  0
SECTION
  2
HEADER
  9
$ACADVER
  1
AC1014
  9
$HANDSEED
  5
FFFF
  9
$MEASUREMENT
 70
     1
  0
ENDSEC
  0
SECTION
  2
TABLES
  0
TABLE
  2
VPORT
  5
8
330
0
100
AcDbSymbolTable
 70
     4
  0
VPORT
  5
2E
330
8
100
AcDbSymbolTableRecord
100
AcDbViewportTableRecord
  2
*ACTIVE
 70
     0
 10
0.0
 20
0.0
 11
1.0
 21
1.0
 12
210.0
 22
148.5
 13
0.0
 23
0.0
 14
10.0
 24
10.0
 15
10.0
 25
10.0
 16
0.0
 26
0.0
 36
1.0
 17
0.0
 27
0.0
 37
0.0
 40
341.0
 41
1.24
 42
50.0
 43
0.0
 44
0.0
 50
0.0
 51
0.0
 71
     0
 72
   100
 73
     1
 74
     3
 75
     0
 76
     0
 77
     0
 78
     0
  0
ENDTAB
  0
TABLE
  2
LTYPE
  5
5
330
0
100
AcDbSymbolTable
 70
     1
  0
LTYPE
  5
14
330
5
100
AcDbSymbolTableRecord
100
AcDbLinetypeTableRecord
  2
BYBLOCK
 70
     0
  3

 72
    65
 73
     0
 40
0.0
  0
LTYPE
  5
15
330
5
100
AcDbSymbolTableRecord
100
AcDbLinetypeTableRecord
  2
BYLAYER
 70
     0
  3

 72
    65
 73
     0
 40
0.0
  0
LTYPE
  5
16
330
5
100
AcDbSymbolTableRecord
100
AcDbLinetypeTableRecord
  2
CONTINUOUS
 70
     0
  3
Solid line
 72
    65
 73
     0
 40
0.0
  0
ENDTAB
  0
TABLE
  2
LAYER
  5
2
100
AcDbSymbolTable
 70
2
  0
LAYER
  5
50
100
AcDbSymbolTableRecord
100
AcDbLayerTableRecord
  2
0
 70
0
  6
CONTINUOUS
  0
LAYER
  5
51
100
AcDbSymbolTableRecord
100
AcDbLayerTableRecord
  2
Ebene_1
 70
0
  6
CONTINUOUS
  0
ENDTAB
  0
TABLE
  2
STYLE
  5
3
330
0
100
AcDbSymbolTable
 70
     1
  0
STYLE
  5
11
330
3
100
AcDbSymbolTableRecord
100
AcDbTextStyleTableRecord
  2
STANDARD
 70
     0
 40
0.0
 41
1.0
 50
0.0
 71
     0
 42
2.5
  3
txt
  4

  0
ENDTAB
  0
TABLE
  2
VIEW
  5
6
330
0
100
AcDbSymbolTable
 70
     0
  0
ENDTAB
  0
TABLE
  2
UCS
  5
7
330
0
100
AcDbSymbolTable
 70
     0
  0
ENDTAB
  0
TABLE
  2
APPID
  5
9
330
0
100
AcDbSymbolTable
 70
     2
  0
APPID
  5
12
330
9
100
AcDbSymbolTableRecord
100
AcDbRegAppTableRecord
  2
ACAD
 70
     0
  0
ENDTAB
  0
TABLE
  2
DIMSTYLE
  5
A
330
0
100
AcDbSymbolTable
 70
     1
  0
DIMSTYLE
105
27
330
A
100
AcDbSymbolTableRecord
100
AcDbDimStyleTableRecord
  2
ISO-25
 70
     0
  3

  4

  5

  6

  7

 40
1.0
 41
2.5
 42
0.625
 43
3.75
 44
1.25
 45
0.0
 46
0.0
 47
0.0
 48
0.0
140
2.5
141
2.5
142
0.0
143
0.03937007874016
144
1.0
145
0.0
146
1.0
147
0.625
 71
     0
 72
     0
 73
     0
 74
     0
 75
     0
 76
     0
 77
     1
 78
     8
170
     0
171
     3
172
     1
173
     0
174
     0
175
     0
176
     0
177
     0
178
     0
270
     2
271
     2
272
     2
273
     2
274
     3
340
11
275
     0
280
     0
281
     0
282
     0
283
     0
284
     8
285
     0
286
     0
287
     3
288
     0
  0
ENDTAB
  0
TABLE
  2
BLOCK_RECORD
  5
1
330
0
100
AcDbSymbolTable
 70
     1
  0
BLOCK_RECORD
  5
1F
330
1
100
AcDbSymbolTableRecord
100
AcDbBlockTableRecord
  2
*MODEL_SPACE
  0
BLOCK_RECORD
  5
1B
330
1
100
AcDbSymbolTableRecord
100
AcDbBlockTableRecord
  2
*PAPER_SPACE
  0
ENDTAB
  0
ENDSEC
  0
SECTION
  2
BLOCKS
  0
BLOCK
  5
20
330
1F
100
AcDbEntity
  8
0
100
AcDbBlockBegin
  2
*MODEL_SPACE
 70
     0
 10
0.0
 20
0.0
 30
0.0
  3
*MODEL_SPACE
  1

  0
ENDBLK
  5
21
330
1F
100
AcDbEntity
  8
0
100
AcDbBlockEnd
  0
BLOCK
  5
1C
330
1B
100
AcDbEntity
 67
     1
  8
0
100
AcDbBlockBegin
  2
*PAPER_SPACE
  1

  0
ENDBLK
  5
1D
330
1B
100
AcDbEntity
 67
     1
  8
0
100
AcDbBlockEnd
  0
ENDSEC
  0
SECTION
  2
ENTITIES
  0
SPLINE
  5
100
100
AcDbEntity
  8
Ebene_1
 62
7
100
AcDbSpline
 70
8
 71
3
 72
8
 73
4
 74
0
 40
0
 40
0
 40
0
 40
0
 40
1
 40
1
 40
1
 40
1
 10
79.658352
 20
43.268970
 30
0.0
 10
79.480730
 20
44.205760
 30
0.0
 10
64.196526
 20
129.536790
 30
0.0
 10
64.196526
 20
129.591670
 30
0.0
  0
SPLINE
  5
101
100
AcDbEntity
  8
Ebene_1
 62
7
100
AcDbSpline
 70
8
 71
3
 72
8
 73
4
 74
0
 40
0
 40
0
 40
0
 40
0
 40
1
 40
1
 40
1
 40
1
 10
64.196526
 20
129.591670
 30
0.0
 10
64.196526
 20
129.669570
 30
0.0
 10
59.682226
 20
129.555570
 30
0.0
 10
57.413117
 20
129.420150
 30
0.0
  0
SPLINE
  5
102
100
AcDbEntity
  8
Ebene_1
 62
7
100
AcDbSpline
 70
8
 71
3
 72
8
 73
4
 74
0
 40
0
 40
0
 40
0
 40
0
 40
1
 40
1
 40
1
 40
1
 10
57.413117
 20
129.420150
 30
0.0
 10
50.660376
 20
129.017450
 30
0.0
 10
47.187257
 20
127.834920
 30
0.0
 10
45.508605
 20
125.366900
 30
0.0
  0
SPLINE
  5
103
100
AcDbEntity
  8
Ebene_1
 62
7
100
AcDbSpline
 70
8
 71
3
 72
8
 73
4
 74
0
 40
0
 40
0
 40
0
 40
0
 40
1
 40
1
 40
1
 40
1
 10
45.508605
 20
125.366900
 30
0.0
 10
44.889695
 20
124.456960
 30
0.0
 10
44.631321
 20
123.808150
 30
0.0
 10
44.361195
 20
122.485990
 30
0.0
  0
SPLINE
  5
104
100
AcDbEntity
  8
Ebene_1
 62
7
100
AcDbSpline
 70
8
 71
3
 72
8
 73
4
 74
0
 40
0
 40
0
 40
0
 40
0
 40
1
 40
1
 40
1
 40
1
 10
44.361195
 20
122.485990
 30
0.0
 10
44.251456
 20
121.948760
 30
0.0
 10
44.141646
 20
121.489220
 30
0.0
 10
44.117188
 20
121.464760
 30
0.0
  0
SPLINE
  5
105
100
AcDbEntity
  8
Ebene_1
 62
7
100
AcDbSpline
 70
8
 71
3
 72
8
 73
4
 74
0
 40
0
 40
0
 40
0
 40
0
 40
1
 40
1
 40
1
 40
1
 10
44.117188
 20
121.464760
 30
0.0
 10
44.034988
 20
121.382560
 30
0.0
 10
41.228684
 20
122.715980
 30
0.0
 10
39.822649
 20
123.505350
 30
0.0
  0
SPLINE
  5
106
100
AcDbEntity
  8
Ebene_1
 62
7
100
AcDbSpline
 70
8
 71
3
 72
8
 73
4
 74
0
 40
0
 40
0
 40
0
 40
0
 40
1
 40
1
 40
1
 40
1
 10
39.822649
 20
123.505350
 30
0.0
 10
35.617142
 20
125.866400
 30
0.0
 10
32.315491
 20
128.600110
 30
0.0
 10
30.069451
 20
131.580840
 30
0.0
  0
SPLINE
  5
107
100
AcDbEntity
  8
Ebene_1
 62
7
100
AcDbSpline
 70
8
 71
3
 72
8
 73
4
 74
0
 40
0
 40
0
 40
0
 40
0
 40
1
 40
1
 40
1
 40
1
 10
30.069451
 20
131.580840
 30
0.0
 10
29.739468
 20
132.018750
 30
0.0
 10
29.469500
 20
132.412890
 30
0.0
 10
29.469500
 20
132.456690
 30
0.0
  0
SPLINE
  5
108
100
AcDbEntity
  8
Ebene_1
 62
7
100
AcDbSpline
 70
8
 71
3
 72
8
 73
4
 74
0
 40
0
 40
0
 40
0
 40
0
 40
1
 40
1
 40
1
 40
1
 10
29.469500
 20
132.456690
 30
0.0
 10
29.469500
 20
132.500490
 30
0.0
 10
29.640350
 20
132.607060
 30
0.0
 10
29.849156
 20
132.693470
 30
0.0
  0
SPLINE
  5
109
100
AcDbEntity
  8
Ebene_1
 62
7
100
AcDbSpline
 70
8
 71
3
 72
8
 73
4
 74
0
 40
0
 40
0
 40
0
 40
0
 40
1
 40
1
 40
1
 40
1
 10
29.849156
 20
132.693470
 30
0.0
 10
30.057979
 20
132.779870
 30
0.0
 10
30.957805
 20
133.167720
 30
0.0
 10
31.848753
 20
133.555330
 30
0.0
  0
SPLINE
  5
10a
100
AcDbEntity
  8
Ebene_1
 62
7
100
AcDbSpline
 70
8
 71
3
 72
8
 73
4
 74
0
 40
0
 40
0
 40
0
 40
0
 40
1
 40
1
 40
1
 40
1
 10
31.848753
 20
133.555330
 30
0.0
 10
42.056857
 20
137.996300
 30
0.0
 10
55.325864
 20
141.100450
 30
0.0
 10
67.233871
 20
141.833320
 30
0.0
  0
SPLINE
  5
10b
100
AcDbEntity
  8
Ebene_1
 62
7
100
AcDbSpline
 70
8
 71
3
 72
8
 73
4
 74
0
 40
0
 40
0
 40
0
 40
0
 40
1
 40
1
 40
1
 40
1
 10
74.003013
 20
134.945650
 30
0.0
 10
77.141347
 20
131.121470
 30
0.0
 10
79.743815
 20
128.030900
 30
0.0
 10
79.786244
 20
128.077720
 30
0.0
  0
SPLINE
  5
10c
100
AcDbEntity
  8
Ebene_1
 62
7
100
AcDbSpline
 70
8
 71
3
 72
8
 73
4
 74
0
 40
0
 40
0
 40
0
 40
0
 40
1
 40
1
 40
1
 40
1
 10
79.786244
 20
128.077720
 30
0.0
 10
79.828644
 20
128.124420
 30
0.0
 10
82.375822
 20
131.224560
 30
0.0
 10
85.446539
 20
134.966630
 30
0.0
  0
SPLINE
  5
10d
100
AcDbEntity
  8
Ebene_1
 62
7
100
AcDbSpline
 70
8
 71
3
 72
8
 73
4
 74
0
 40
0
 40
0
 40
0
 40
0
 40
1
 40
1
 40
1
 40
1
 10
85.446539
 20
134.966630
 30
0.0
 10
88.517282
 20
138.708700
 30
0.0
 10
91.076608
 20
141.799380
 30
0.0
 10
91.133911
 20
141.834810
 30
0.0
  0
SPLINE
  5
10e
100
AcDbEntity
  8
Ebene_1
 62
7
100
AcDbSpline
 70
8
 71
3
 72
8
 73
4
 74
0
 40
0
 40
0
 40
0
 40
0
 40
1
 40
1
 40
1
 40
1
 10
91.133911
 20
141.834810
 30
0.0
 10
91.253500
 20
141.908710
 30
0.0
 10
93.807317
 20
141.744010
 30
0.0
 10
96.038064
 20
141.518510
 30
0.0
  0
SPLINE
  5
10f
100
AcDbEntity
  8
Ebene_1
 62
7
100
AcDbSpline
 70
8
 71
3
 72
8
 73
4
 74
0
 40
0
 40
0
 40
0
 40
0
 40
1
 40
1
 40
1
 40
1
 10
96.038064
 20
141.518510
 30
0.0
 10
105.445457
 20
140.567590
 30
0.0
 10
114.893737
 20
138.390720
 30
0.0
 10
123.475447
 20
135.196960
 30
0.0
  0
SPLINE
  5
110
100
AcDbEntity
  8
Ebene_1
 62
7
100
AcDbSpline
 70
8
 71
3
 72
8
 73
4
 74
0
 40
0
 40
0
 40
0
 40
0
 40
1
 40
1
 40
1
 40
1
 10
123.475447
 20
135.196960
 30
0.0
 10
125.500767
 20
134.443210
 30
0.0
 10
128.758597
 20
133.097910
 30
0.0
 10
129.608267
 20
132.664450
 30
0.0
  0
LWPOLYLINE
  5
111
100
AcDbEntity
  8
Ebene_1
 62
7
100
AcDbPolyline
 90
3
 70
0
 10
67.233871
 20
141.833320
 30
0.0
 10
68.296935
 20
141.898720
 30
0.0
 10
74.003013
 20
134.945650
 30
0.0
  0
SPLINE
  5
112
100
AcDbEntity
  8
Ebene_1
 62
7
100
AcDbSpline
 70
8
 71
3
 72
8
 73
4
 74
0
 40
0
 40
0
 40
0
 40
0
 40
1
 40
1
 40
1
 40
1
 10
129.493187
 20
131.757980
 30
0.0
 10
127.503347
 20
129.022190
 30
0.0
 10
124.383897
 20
126.333690
 30
0.0
 10
120.520767
 20
124.025100
 30
0.0
  0
SPLINE
  5
113
100
AcDbEntity
  8
Ebene_1
 62
7
100
AcDbSpline
 70
8
 71
3
 72
8
 73
4
 74
0
 40
0
 40
0
 40
0
 40
0
 40
1
 40
1
 40
1
 40
1
 10
120.520767
 20
124.025100
 30
0.0
 10
119.458337
 20
123.390180
 30
0.0
 10
115.941317
 20
121.624940
 30
0.0
 10
115.461777
 20
121.485890
 30
0.0
  0
SPLINE
  5
114
100
AcDbEntity
  8
Ebene_1
 62
7
100
AcDbSpline
 70
8
 71
3
 72
8
 73
4
 74
0
 40
0
 40
0
 40
0
 40
0
 40
1
 40
1
 40
1
 40
1
 10
115.461777
 20
121.485890
 30
0.0
 10
115.263887
 20
121.428390
 30
0.0
 10
115.237357
 20
121.471590
 30
0.0
 10
115.171527
 20
121.957940
 30
0.0
  0
SPLINE
  5
115
100
AcDbEntity
  8
Ebene_1
 62
7
100
AcDbSpline
 70
8
 71
3
 72
8
 73
4
 74
0
 40
0
 40
0
 40
0
 40
0
 40
1
 40
1
 40
1
 40
1
 10
115.171527
 20
121.957940
 30
0.0
 10
115.131627
 20
122.252290
 30
0.0
 10
114.987737
 20
122.879170
 30
0.0
 10
114.851677
 20
123.350990
 30
0.0
  0
SPLINE
  5
116
100
AcDbEntity
  8
Ebene_1
 62
7
100
AcDbSpline
 70
8
 71
3
 72
8
 73
4
 74
0
 40
0
 40
0
 40
0
 40
0
 40
1
 40
1
 40
1
 40
1
 10
114.851677
 20
123.350990
 30
0.0
 10
113.780237
 20
127.066520
 30
0.0
 10
110.614507
 20
128.716370
 30
0.0
 10
103.378317
 20
129.330460
 30
0.0
  0
SPLINE
  5
117
100
AcDbEntity
  8
Ebene_1
 62
7
100
AcDbSpline
 70
8
 71
3
 72
8
 73
4
 74
0
 40
0
 40
0
 40
0
 40
0
 40
1
 40
1
 40
1
 40
1
 10
103.378317
 20
129.330460
 30
0.0
 10
101.802717
 20
129.464160
 30
0.0
 10
95.249878
 20
129.635760
 30
0.0
 10
95.167545
 20
129.545460
 30
0.0
  0
SPLINE
  5
118
100
AcDbEntity
  8
Ebene_1
 62
7
100
AcDbSpline
 70
8
 71
3
 72
8
 73
4
 74
0
 40
0
 40
0
 40
0
 40
0
 40
1
 40
1
 40
1
 40
1
 10
95.167545
 20
129.545460
 30
0.0
 10
95.125485
 20
129.499260
 30
0.0
 10
82.475458
 20
58.536720
 30
0.0
 10
79.805744
 20
43.370180
 30
0.0
  0
LWPOLYLINE
  5
119
100
AcDbEntity
  8
Ebene_1
 62
7
100
AcDbPolyline
 90
3
 70
0
 10
129.608267
 20
132.664450
 30
0.0
 10
130.005207
 20
132.461940
 30
0.0
 10
129.493187
 20
131.757980
 30
0.0
  0
SPLINE
  5
11a
100
AcDbEntity
  8
Ebene_1
 62
7
100
AcDbSpline
 70
8
 71
3
 72
8
 73
4
 74
0
 40
0
 40
0
 40
0
 40
0
 40
1
 40
1
 40
1
 40
1
 10
130.005747
 20
136.284880
 30
0.0
 10
117.913687
 20
141.384640
 30
0.0
 10
104.175657
 20
144.629800
 30
0.0
 10
90.469590
 20
145.623990
 30
0.0
  0
SPLINE
  5
11b
100
AcDbEntity
  8
Ebene_1
 62
7
100
AcDbSpline
 70
8
 71
3
 72
8
 73
4
 74
0
 40
0
 40
0
 40
0
 40
0
 40
1
 40
1
 40
1
 40
1
 10
90.469590
 20
145.623990
 30
0.0
 10
86.066124
 20
145.943400
 30
0.0
 10
76.917952
 20
146.048000
 30
0.0
 10
72.488134
 20
145.829580
 30
0.0
  0
SPLINE
  5
11c
100
AcDbEntity
  8
Ebene_1
 62
7
100
AcDbSpline
 70
8
 71
3
 72
8
 73
4
 74
0
 40
0
 40
0
 40
0
 40
0
 40
1
 40
1
 40
1
 40
1
 10
72.488134
 20
145.829580
 30
0.0
 10
57.136802
 20
145.072680
 30
0.0
 10
43.013291
 20
141.944170
 30
0.0
 10
29.439764
 20
136.293920
 30
0.0
  0
SPLINE
  5
11d
100
AcDbEntity
  8
Ebene_1
 62
7
100
AcDbSpline
 70
8
 71
3
 72
8
 73
4
 74
0
 40
0
 40
0
 40
0
 40
0
 40
1
 40
1
 40
1
 40
1
 10
29.439764
 20
136.293920
 30
0.0
 10
28.504607
 20
135.904650
 30
0.0
 10
27.681261
 20
135.608490
 30
0.0
 10
27.610096
 20
135.635800
 30
0.0
  0
SPLINE
  5
11e
100
AcDbEntity
  8
Ebene_1
 62
7
100
AcDbSpline
 70
8
 71
3
 72
8
 73
4
 74
0
 40
0
 40
0
 40
0
 40
0
 40
1
 40
1
 40
1
 40
1
 10
27.610096
 20
135.635800
 30
0.0
 10
27.538936
 20
135.663100
 30
0.0
 10
26.953461
 20
136.749270
 30
0.0
 10
26.309050
 20
138.049500
 30
0.0
  0
SPLINE
  5
11f
100
AcDbEntity
  8
Ebene_1
 62
7
100
AcDbSpline
 70
8
 71
3
 72
8
 73
4
 74
0
 40
0
 40
0
 40
0
 40
0
 40
1
 40
1
 40
1
 40
1
 10
26.309050
 20
138.049500
 30
0.0
 10
25.103380
 20
140.482180
 30
0.0
 10
24.541512
 20
141.745890
 30
0.0
 10
24.627401
 20
141.831780
 30
0.0
  0
SPLINE
  5
120
100
AcDbEntity
  8
Ebene_1
 62
7
100
AcDbSpline
 70
8
 71
3
 72
8
 73
4
 74
0
 40
0
 40
0
 40
0
 40
0
 40
1
 40
1
 40
1
 40
1
 10
24.627401
 20
141.831780
 30
0.0
 10
24.715301
 20
141.919580
 30
0.0
 10
28.255177
 20
143.256960
 30
0.0
 10
30.330076
 20
143.986170
 30
0.0
  0
SPLINE
  5
121
100
AcDbEntity
  8
Ebene_1
 62
7
100
AcDbSpline
 70
8
 71
3
 72
8
 73
4
 74
0
 40
0
 40
0
 40
0
 40
0
 40
1
 40
1
 40
1
 40
1
 10
30.330076
 20
143.986170
 30
0.0
 10
49.781563
 20
150.822310
 30
0.0
 10
70.555231
 20
153.655210
 30
0.0
 10
90.216484
 20
152.152870
 30
0.0
  0
SPLINE
  5
122
100
AcDbEntity
  8
Ebene_1
 62
7
100
AcDbSpline
 70
8
 71
3
 72
8
 73
4
 74
0
 40
0
 40
0
 40
0
 40
0
 40
1
 40
1
 40
1
 40
1
 10
90.216484
 20
152.152870
 30
0.0
 10
104.921907
 20
151.029200
 30
0.0
 10
118.781077
 20
147.927250
 30
0.0
 10
132.888777
 20
142.601970
 30
0.0
  0
SPLINE
  5
123
100
AcDbEntity
  8
Ebene_1
 62
7
100
AcDbSpline
 70
8
 71
3
 72
8
 73
4
 74
0
 40
0
 40
0
 40
0
 40
0
 40
1
 40
1
 40
1
 40
1
 10
132.888777
 20
142.601970
 30
0.0
 10
133.939137
 20
142.205490
 30
0.0
 10
134.816567
 20
141.863050
 30
0.0
 10
134.838617
 20
141.840990
 30
0.0
  0
SPLINE
  5
124
100
AcDbEntity
  8
Ebene_1
 62
7
100
AcDbSpline
 70
8
 71
3
 72
8
 73
4
 74
0
 40
0
 40
0
 40
0
 40
0
 40
1
 40
1
 40
1
 40
1
 10
134.838617
 20
141.840990
 30
0.0
 10
134.953947
 20
141.725670
 30
0.0
 10
132.133077
 20
135.836960
 30
0.0
 10
131.847247
 20
135.596340
 30
0.0
  0
SPLINE
  5
125
100
AcDbEntity
  8
Ebene_1
 62
7
100
AcDbSpline
 70
8
 71
3
 72
8
 73
4
 74
0
 40
0
 40
0
 40
0
 40
0
 40
1
 40
1
 40
1
 40
1
 10
131.847247
 20
135.596340
 30
0.0
 10
131.808947
 20
135.564040
 30
0.0
 10
130.980217
 20
135.873900
 30
0.0
 10
130.005747
 20
136.284880
 30
0.0
  0
LWPOLYLINE
  5
126
100
AcDbEntity
  8
Ebene_1
 62
7
100
AcDbPolyline
 90
3
 70
0
 10
79.805744
 20
43.370180
 30
0.0
 10
79.725554
 20
42.914570
 30
0.0
 10
79.658352
 20
43.268970
 30
0.0
  0
LWPOLYLINE
  5
127
100
AcDbEntity
  8
Ebene_1
 62
7
100
AcDbPolyline
 90
1
 70
1
 10
130.005747
 20
136.284880
 30
0.0
  0
SPLINE
  5
128
100
AcDbEntity
  8
Ebene_1
 62
7
100
AcDbSpline
 70
8
 71
3
 72
8
 73
4
 74
0
 40
0
 40
0
 40
0
 40
0
 40
1
 40
1
 40
1
 40
1
 10
269.499997
 20
184.729840
 30
0.0
 10
280.579997
 20
184.729840
 30
0.0
 10
289.499997
 20
175.809840
 30
0.0
 10
289.499997
 20
164.729840
 30
0.0
  0
LWPOLYLINE
  5
129
100
AcDbEntity
  8
Ebene_1
 62
7
100
AcDbPolyline
 90
2
 70
0
 10
30.500003
 20
184.729840
 30
0.0
 10
269.499997
 20
184.729840
 30
0.0
  0
SPLINE
  5
12a
100
AcDbEntity
  8
Ebene_1
 62
7
100
AcDbSpline
 70
8
 71
3
 72
8
 73
4
 74
0
 40
0
 40
0
 40
0
 40
0
 40
1
 40
1
 40
1
 40
1
 10
289.499997
 20
30.729840
 30
0.0
 10
289.499997
 20
19.649840
 30
0.0
 10
280.579997
 20
10.729840
 30
0.0
 10
269.499997
 20
10.729840
 30
0.0
  0
LWPOLYLINE
  5
12b
100
AcDbEntity
  8
Ebene_1
 62
7
100
AcDbPolyline
 90
2
 70
0
 10
289.499997
 20
164.729840
 30
0.0
 10
289.499997
 20
30.729840
 30
0.0
  0
SPLINE
  5
12c
100
AcDbEntity
  8
Ebene_1
 62
7
100
AcDbSpline
 70
8
 71
3
 72
8
 73
4
 74
0
 40
0
 40
0
 40
0
 40
0
 40
1
 40
1
 40
1
 40
1
 10
30.500003
 20
10.729840
 30
0.0
 10
19.420003
 20
10.729840
 30
0.0
 10
10.500003
 20
19.649840
 30
0.0
 10
10.500003
 20
30.729840
 30
0.0
  0
LWPOLYLINE
  5
12d
100
AcDbEntity
  8
Ebene_1
 62
7
100
AcDbPolyline
 90
2
 70
0
 10
269.499997
 20
10.729840
 30
0.0
 10
30.500003
 20
10.729840
 30
0.0
  0
SPLINE
  5
12e
100
AcDbEntity
  8
Ebene_1
 62
7
100
AcDbSpline
 70
8
 71
3
 72
8
 73
4
 74
0
 40
0
 40
0
 40
0
 40
0
 40
1
 40
1
 40
1
 40
1
 10
10.500003
 20
164.729840
 30
0.0
 10
10.500003
 20
175.809840
 30
0.0
 10
19.420003
 20
184.729840
 30
0.0
 10
30.500003
 20
184.729840
 30
0.0
  0
LWPOLYLINE
  5
12f
100
AcDbEntity
  8
Ebene_1
 62
7
100
AcDbPolyline
 90
2
 70
0
 10
10.500003
 20
30.729840
 30
0.0
 10
10.500003
 20
164.729840
 30
0.0
  0
LWPOLYLINE
  5
130
100
AcDbEntity
  8
Ebene_1
 62
7
100
AcDbPolyline
 90
1
 70
1
 10
30.500003
 20
184.729840
 30
0.0
  0
LWPOLYLINE
  5
131
100
AcDbEntity
  8
Ebene_1
 62
7
100
AcDbPolyline
 90
12
 70
1
 10
157.281910
 20
101.586900
 30
0.0
 10
157.281910
 20
105.110120
 30
0.0
 10
147.509490
 20
105.110120
 30
0.0
 10
147.509490
 20
108.890500
 30
0.0
 10
155.996070
 20
108.890500
 30
0.0
 10
155.996070
 20
112.413720
 30
0.0
 10
147.509490
 20
112.413720
 30
0.0
 10
147.509490
 20
116.065520
 30
0.0
 10
157.153330
 20
116.065520
 30
0.0
 10
157.153330
 20
119.588730
 30
0.0
 10
143.574810
 20
119.588730
 30
0.0
 10
143.574810
 20
101.586900
 30
0.0
  0
LWPOLYLINE
  5
132
100
AcDbEntity
  8
Ebene_1
 62
7
100
AcDbPolyline
 90
6
 70
1
 10
173.738720
 20
101.586900
 30
0.0
 10
173.738720
 20
105.187270
 30
0.0
 10
164.763520
 20
105.187270
 30
0.0
 10
164.763520
 20
119.588730
 30
0.0
 10
160.803120
 20
119.588730
 30
0.0
 10
160.803120
 20
101.586900
 30
0.0
  0
LWPOLYLINE
  5
133
100
AcDbEntity
  8
Ebene_1
 62
7
100
AcDbPolyline
 90
12
 70
1
 10
190.432610
 20
101.586900
 30
0.0
 10
190.432610
 20
105.110120
 30
0.0
 10
180.660180
 20
105.110120
 30
0.0
 10
180.660180
 20
108.890500
 30
0.0
 10
189.146760
 20
108.890500
 30
0.0
 10
189.146760
 20
112.413720
 30
0.0
 10
180.660180
 20
112.413720
 30
0.0
 10
180.660180
 20
116.065520
 30
0.0
 10
190.304020
 20
116.065520
 30
0.0
 10
190.304020
 20
119.588730
 30
0.0
 10
176.725500
 20
119.588730
 30
0.0
 10
176.725500
 20
101.586900
 30
0.0
  0
SPLINE
  5
134
100
AcDbEntity
  8
Ebene_1
 62
7
100
AcDbSpline
 70
8
 71
3
 72
8
 73
4
 74
0
 40
0
 40
0
 40
0
 40
0
 40
1
 40
1
 40
1
 40
1
 10
207.249450
 20
107.038880
 30
0.0
 10
205.835020
 20
105.753040
 30
0.0
 10
204.574890
 20
104.930100
 30
0.0
 10
202.517540
 20
104.930100
 30
0.0
  0
SPLINE
  5
135
100
AcDbEntity
  8
Ebene_1
 62
7
100
AcDbSpline
 70
8
 71
3
 72
8
 73
4
 74
0
 40
0
 40
0
 40
0
 40
0
 40
1
 40
1
 40
1
 40
1
 10
202.517540
 20
104.930100
 30
0.0
 10
199.431510
 20
104.930100
 30
0.0
 10
197.297010
 20
107.501790
 30
0.0
 10
197.297010
 20
110.587820
 30
0.0
  0
LWPOLYLINE
  5
136
100
AcDbEntity
  8
Ebene_1
 62
7
100
AcDbPolyline
 90
2
 70
0
 10
209.769710
 20
104.492910
 30
0.0
 10
207.249450
 20
107.038880
 30
0.0
  0
SPLINE
  5
137
100
AcDbEntity
  8
Ebene_1
 62
7
100
AcDbSpline
 70
8
 71
3
 72
8
 73
4
 74
0
 40
0
 40
0
 40
0
 40
0
 40
1
 40
1
 40
1
 40
1
 10
197.297010
 20
110.639220
 30
0.0
 10
197.297010
 20
113.725250
 30
0.0
 10
199.482950
 20
116.245500
 30
0.0
 10
202.517540
 20
116.245500
 30
0.0
  0
SPLINE
  5
138
100
AcDbEntity
  8
Ebene_1
 62
7
100
AcDbSpline
 70
8
 71
3
 72
8
 73
4
 74
0
 40
0
 40
0
 40
0
 40
0
 40
1
 40
1
 40
1
 40
1
 10
202.517540
 20
116.245500
 30
0.0
 10
204.317720
 20
116.245500
 30
0.0
 10
205.732150
 20
115.474000
 30
0.0
 10
207.120870
 20
114.213870
 30
0.0
  0
LWPOLYLINE
  5
139
100
AcDbEntity
  8
Ebene_1
 62
7
100
AcDbPolyline
 90
2
 70
0
 10
197.297010
 20
110.587820
 30
0.0
 10
197.297010
 20
110.639220
 30
0.0
  0
SPLINE
  5
13a
100
AcDbEntity
  8
Ebene_1
 62
7
100
AcDbSpline
 70
8
 71
3
 72
8
 73
4
 74
0
 40
0
 40
0
 40
0
 40
0
 40
1
 40
1
 40
1
 40
1
 10
209.641120
 20
117.119880
 30
0.0
 10
207.969520
 20
118.765760
 30
0.0
 10
205.937890
 20
119.897300
 30
0.0
 10
202.543260
 20
119.897300
 30
0.0
  0
SPLINE
  5
13b
100
AcDbEntity
  8
Ebene_1
 62
7
100
AcDbSpline
 70
8
 71
3
 72
8
 73
4
 74
0
 40
0
 40
0
 40
0
 40
0
 40
1
 40
1
 40
1
 40
1
 10
202.543260
 20
119.897300
 30
0.0
 10
197.014120
 20
119.897300
 30
0.0
 10
193.156590
 20
115.705450
 30
0.0
 10
193.156590
 20
110.587790
 30
0.0
  0
LWPOLYLINE
  5
13c
100
AcDbEntity
  8
Ebene_1
 62
7
100
AcDbPolyline
 90
2
 70
0
 10
207.120870
 20
114.213870
 30
0.0
 10
209.641120
 20
117.119880
 30
0.0
  0
SPLINE
  5
13d
100
AcDbEntity
  8
Ebene_1
 62
7
100
AcDbSpline
 70
8
 71
3
 72
8
 73
4
 74
0
 40
0
 40
0
 40
0
 40
0
 40
1
 40
1
 40
1
 40
1
 10
193.156590
 20
110.536390
 30
0.0
 10
193.156590
 20
105.367290
 30
0.0
 10
197.091270
 20
101.278310
 30
0.0
 10
202.388960
 20
101.278310
 30
0.0
  0
SPLINE
  5
13e
100
AcDbEntity
  8
Ebene_1
 62
7
100
AcDbSpline
 70
8
 71
3
 72
8
 73
4
 74
0
 40
0
 40
0
 40
0
 40
0
 40
1
 40
1
 40
1
 40
1
 10
202.388960
 20
101.278310
 30
0.0
 10
205.860740
 20
101.278310
 30
0.0
 10
207.918090
 20
102.512720
 30
0.0
 10
209.769710
 20
104.492920
 30
0.0
  0
LWPOLYLINE
  5
13f
100
AcDbEntity
  8
Ebene_1
 62
7
100
AcDbPolyline
 90
2
 70
0
 10
193.156590
 20
110.587790
 30
0.0
 10
193.156590
 20
110.536390
 30
0.0
  0
LWPOLYLINE
  5
140
100
AcDbEntity
  8
Ebene_1
 62
7
100
AcDbPolyline
 90
1
 70
1
 10
209.769710
 20
104.492920
 30
0.0
  0
LWPOLYLINE
  5
141
100
AcDbEntity
  8
Ebene_1
 62
7
100
AcDbPolyline
 90
8
 70
1
 10
226.570070
 20
115.936930
 30
0.0
 10
226.570070
 20
119.588730
 30
0.0
 10
211.654270
 20
119.588730
 30
0.0
 10
211.654270
 20
115.936930
 30
0.0
 10
217.131970
 20
115.936930
 30
0.0
 10
217.131970
 20
101.586900
 30
0.0
 10
221.092370
 20
101.586900
 30
0.0
 10
221.092370
 20
115.936930
 30
0.0
  0
SPLINE
  5
142
100
AcDbEntity
  8
Ebene_1
 62
7
100
AcDbSpline
 70
8
 71
3
 72
8
 73
4
 74
0
 40
0
 40
0
 40
0
 40
0
 40
1
 40
1
 40
1
 40
1
 10
240.777060
 20
108.016130
 30
0.0
 10
243.065860
 20
108.864780
 30
0.0
 10
244.634590
 20
110.690680
 30
0.0
 10
244.634590
 20
113.596690
 30
0.0
  0
LWPOLYLINE
  5
143
100
AcDbEntity
  8
Ebene_1
 62
7
100
AcDbPolyline
 90
2
 70
0
 10
245.174650
 20
101.586900
 30
0.0
 10
240.777060
 20
108.016130
 30
0.0
  0
SPLINE
  5
144
100
AcDbEntity
  8
Ebene_1
 62
7
100
AcDbSpline
 70
8
 71
3
 72
8
 73
4
 74
0
 40
0
 40
0
 40
0
 40
0
 40
1
 40
1
 40
1
 40
1
 10
244.634590
 20
113.648090
 30
0.0
 10
244.634590
 20
117.351320
 30
0.0
 10
242.088620
 20
119.588690
 30
0.0
 10
237.845330
 20
119.588690
 30
0.0
  0
LWPOLYLINE
  5
145
100
AcDbEntity
  8
Ebene_1
 62
7
100
AcDbPolyline
 90
2
 70
0
 10
244.634590
 20
113.596690
 30
0.0
 10
244.634590
 20
113.648090
 30
0.0
  0
SPLINE
  5
146
100
AcDbEntity
  8
Ebene_1
 62
7
100
AcDbSpline
 70
8
 71
3
 72
8
 73
4
 74
0
 40
0
 40
0
 40
0
 40
0
 40
1
 40
1
 40
1
 40
1
 10
240.622750
 20
113.390960
 30
0.0
 10
240.622750
 20
111.873660
 30
0.0
 10
239.516930
 20
110.844980
 30
0.0
 10
237.588160
 20
110.844980
 30
0.0
  0
LWPOLYLINE
  5
147
100
AcDbEntity
  8
Ebene_1
 62
7
100
AcDbPolyline
 90
8
 70
0
 10
237.845330
 20
119.588690
 30
0.0
 10
229.615920
 20
119.588690
 30
0.0
 10
229.615920
 20
101.586860
 30
0.0
 10
233.576320
 20
101.586860
 30
0.0
 10
233.576320
 20
107.347450
 30
0.0
 10
236.688070
 20
107.347450
 30
0.0
 10
240.545600
 20
101.586860
 30
0.0
 10
245.174650
 20
101.586900
 30
0.0
  0
SPLINE
  5
148
100
AcDbEntity
  8
Ebene_1
 62
7
100
AcDbSpline
 70
8
 71
3
 72
8
 73
4
 74
0
 40
0
 40
0
 40
0
 40
0
 40
1
 40
1
 40
1
 40
1
 10
237.511010
 20
116.014080
 30
0.0
 10
239.439780
 20
116.014080
 30
0.0
 10
240.622750
 20
115.139710
 30
0.0
 10
240.622750
 20
113.442390
 30
0.0
  0
LWPOLYLINE
  5
149
100
AcDbEntity
  8
Ebene_1
 62
7
100
AcDbPolyline
 90
4
 70
0
 10
237.588160
 20
110.844980
 30
0.0
 10
233.576320
 20
110.844980
 30
0.0
 10
233.576320
 20
116.014080
 30
0.0
 10
237.511010
 20
116.014080
 30
0.0
  0
LWPOLYLINE
  5
14a
100
AcDbEntity
  8
Ebene_1
 62
7
100
AcDbPolyline
 90
2
 70
0
 10
240.622750
 20
113.442390
 30
0.0
 10
240.622750
 20
113.390960
 30
0.0
  0
LWPOLYLINE
  5
14b
100
AcDbEntity
  8
Ebene_1
 62
7
100
AcDbPolyline
 90
4
 70
1
 10
252.340820
 20
101.586900
 30
0.0
 10
252.340820
 20
119.588730
 30
0.0
 10
248.380410
 20
119.588730
 30
0.0
 10
248.380410
 20
101.586900
 30
0.0
  0
SPLINE
  5
14c
100
AcDbEntity
  8
Ebene_1
 62
7
100
AcDbSpline
 70
8
 71
3
 72
8
 73
4
 74
0
 40
0
 40
0
 40
0
 40
0
 40
1
 40
1
 40
1
 40
1
 10
270.135310
 20
107.038880
 30
0.0
 10
268.720880
 20
105.753040
 30
0.0
 10
267.460750
 20
104.930100
 30
0.0
 10
265.403400
 20
104.930100
 30
0.0
  0
SPLINE
  5
14d
100
AcDbEntity
  8
Ebene_1
 62
7
100
AcDbSpline
 70
8
 71
3
 72
8
 73
4
 74
0
 40
0
 40
0
 40
0
 40
0
 40
1
 40
1
 40
1
 40
1
 10
265.403400
 20
104.930100
 30
0.0
 10
262.317370
 20
104.930100
 30
0.0
 10
260.182870
 20
107.501790
 30
0.0
 10
260.182870
 20
110.587820
 30
0.0
  0
LWPOLYLINE
  5
14e
100
AcDbEntity
  8
Ebene_1
 62
7
100
AcDbPolyline
 90
2
 70
0
 10
272.655560
 20
104.492910
 30
0.0
 10
270.135310
 20
107.038880
 30
0.0
  0
SPLINE
  5
14f
100
AcDbEntity
  8
Ebene_1
 62
7
100
AcDbSpline
 70
8
 71
3
 72
8
 73
4
 74
0
 40
0
 40
0
 40
0
 40
0
 40
1
 40
1
 40
1
 40
1
 10
260.182870
 20
110.639220
 30
0.0
 10
260.182870
 20
113.725250
 30
0.0
 10
262.368800
 20
116.245500
 30
0.0
 10
265.403400
 20
116.245500
 30
0.0
  0
SPLINE
  5
150
100
AcDbEntity
  8
Ebene_1
 62
7
100
AcDbSpline
 70
8
 71
3
 72
8
 73
4
 74
0
 40
0
 40
0
 40
0
 40
0
 40
1
 40
1
 40
1
 40
1
 10
265.403400
 20
116.245500
 30
0.0
 10
267.203580
 20
116.245500
 30
0.0
 10
268.618010
 20
115.474000
 30
0.0
 10
270.006720
 20
114.213870
 30
0.0
  0
LWPOLYLINE
  5
151
100
AcDbEntity
  8
Ebene_1
 62
7
100
AcDbPolyline
 90
2
 70
0
 10
260.182870
 20
110.587820
 30
0.0
 10
260.182870
 20
110.639220
 30
0.0
  0
SPLINE
  5
152
100
AcDbEntity
  8
Ebene_1
 62
7
100
AcDbSpline
 70
8
 71
3
 72
8
 73
4
 74
0
 40
0
 40
0
 40
0
 40
0
 40
1
 40
1
 40
1
 40
1
 10
272.526980
 20
117.119880
 30
0.0
 10
270.855380
 20
118.765760
 30
0.0
 10
268.823740
 20
119.897300
 30
0.0
 10
265.429110
 20
119.897300
 30
0.0
  0
SPLINE
  5
153
100
AcDbEntity
  8
Ebene_1
 62
7
100
AcDbSpline
 70
8
 71
3
 72
8
 73
4
 74
0
 40
0
 40
0
 40
0
 40
0
 40
1
 40
1
 40
1
 40
1
 10
265.429110
 20
119.897300
 30
0.0
 10
259.899980
 20
119.897300
 30
0.0
 10
256.042450
 20
115.705450
 30
0.0
 10
256.042450
 20
110.587790
 30
0.0
  0
LWPOLYLINE
  5
154
100
AcDbEntity
  8
Ebene_1
 62
7
100
AcDbPolyline
 90
2
 70
0
 10
270.006720
 20
114.213870
 30
0.0
 10
272.526980
 20
117.119880
 30
0.0
  0
SPLINE
  5
155
100
AcDbEntity
  8
Ebene_1
 62
7
100
AcDbSpline
 70
8
 71
3
 72
8
 73
4
 74
0
 40
0
 40
0
 40
0
 40
0
 40
1
 40
1
 40
1
 40
1
 10
256.042450
 20
110.536390
 30
0.0
 10
256.042450
 20
105.367290
 30
0.0
 10
259.977130
 20
101.278310
 30
0.0
 10
265.274810
 20
101.278310
 30
0.0
  0
SPLINE
  5
156
100
AcDbEntity
  8
Ebene_1
 62
7
100
AcDbSpline
 70
8
 71
3
 72
8
 73
4
 74
0
 40
0
 40
0
 40
0
 40
0
 40
1
 40
1
 40
1
 40
1
 10
265.274810
 20
101.278310
 30
0.0
 10
268.746590
 20
101.278310
 30
0.0
 10
270.803950
 20
102.512720
 30
0.0
 10
272.655560
 20
104.492920
 30
0.0
  0
LWPOLYLINE
  5
157
100
AcDbEntity
  8
Ebene_1
 62
7
100
AcDbPolyline
 90
2
 70
0
 10
256.042450
 20
110.587790
 30
0.0
 10
256.042450
 20
110.536390
 30
0.0
  0
LWPOLYLINE
  5
158
100
AcDbEntity
  8
Ebene_1
 62
7
100
AcDbPolyline
 90
1
 70
1
 10
272.655560
 20
104.492920
 30
0.0
  0
LWPOLYLINE
  5
159
100
AcDbEntity
  8
Ebene_1
 62
7
100
AcDbPolyline
 90
7
 70
1
 10
159.557660
 20
93.871830
 30
0.0
 10
155.288650
 20
93.871830
 30
0.0
 10
150.582460
 20
81.193400
 30
0.0
 10
145.876270
 20
93.871830
 30
0.0
 10
141.504400
 20
93.871830
 30
0.0
 10
148.782280
 20
75.741420
 30
0.0
 10
152.279780
 20
75.741420
 30
0.0
  0
LWPOLYLINE
  5
15a
100
AcDbEntity
  8
Ebene_1
 62
7
100
AcDbPolyline
 90
12
 70
1
 10
176.042190
 20
75.870000
 30
0.0
 10
176.042190
 20
79.393220
 30
0.0
 10
166.269770
 20
79.393220
 30
0.0
 10
166.269770
 20
83.173600
 30
0.0
 10
174.756350
 20
83.173600
 30
0.0
 10
174.756350
 20
86.696820
 30
0.0
 10
166.269770
 20
86.696820
 30
0.0
 10
166.269770
 20
90.348620
 30
0.0
 10
175.913610
 20
90.348620
 30
0.0
 10
175.913610
 20
93.871830
 30
0.0
 10
162.335080
 20
93.871830
 30
0.0
 10
162.335080
 20
75.870000
 30
0.0
  0
LWPOLYLINE
  5
15b
100
AcDbEntity
  8
Ebene_1
 62
7
100
AcDbPolyline
 90
12
 70
1
 10
194.787800
 20
75.870000
 30
0.0
 10
194.787800
 20
93.871830
 30
0.0
 10
190.827400
 20
93.871830
 30
0.0
 10
190.827400
 20
86.748250
 30
0.0
 10
183.523800
 20
86.748250
 30
0.0
 10
183.523800
 20
93.871830
 30
0.0
 10
179.563400
 20
93.871830
 30
0.0
 10
179.563400
 20
75.870000
 30
0.0
 10
183.523800
 20
75.870000
 30
0.0
 10
183.523800
 20
83.096450
 30
0.0
 10
190.827400
 20
83.096450
 30
0.0
 10
190.827400
 20
75.870000
 30
0.0
  0
LWPOLYLINE
  5
15c
100
AcDbEntity
  8
Ebene_1
 62
7
100
AcDbPolyline
 90
4
 70
1
 10
203.242630
 20
75.870000
 30
0.0
 10
203.242630
 20
93.871830
 30
0.0
 10
199.282230
 20
93.871830
 30
0.0
 10
199.282230
 20
75.870000
 30
0.0
  0
SPLINE
  5
15d
100
AcDbEntity
  8
Ebene_1
 62
7
100
AcDbSpline
 70
8
 71
3
 72
8
 73
4
 74
0
 40
0
 40
0
 40
0
 40
0
 40
1
 40
1
 40
1
 40
1
 10
221.037120
 20
81.321980
 30
0.0
 10
219.622690
 20
80.036140
 30
0.0
 10
218.362570
 20
79.213200
 30
0.0
 10
216.305210
 20
79.213200
 30
0.0
  0
SPLINE
  5
15e
100
AcDbEntity
  8
Ebene_1
 62
7
100
AcDbSpline
 70
8
 71
3
 72
8
 73
4
 74
0
 40
0
 40
0
 40
0
 40
0
 40
1
 40
1
 40
1
 40
1
 10
216.305210
 20
79.213200
 30
0.0
 10
213.219190
 20
79.213200
 30
0.0
 10
211.084680
 20
81.784890
 30
0.0
 10
211.084680
 20
84.870920
 30
0.0
  0
LWPOLYLINE
  5
15f
100
AcDbEntity
  8
Ebene_1
 62
7
100
AcDbPolyline
 90
2
 70
0
 10
223.557380
 20
78.776010
 30
0.0
 10
221.037120
 20
81.321980
 30
0.0
  0
SPLINE
  5
160
100
AcDbEntity
  8
Ebene_1
 62
7
100
AcDbSpline
 70
8
 71
3
 72
8
 73
4
 74
0
 40
0
 40
0
 40
0
 40
0
 40
1
 40
1
 40
1
 40
1
 10
211.084680
 20
84.922320
 30
0.0
 10
211.084680
 20
88.008350
 30
0.0
 10
213.270620
 20
90.528600
 30
0.0
 10
216.305210
 20
90.528600
 30
0.0
  0
SPLINE
  5
161
100
AcDbEntity
  8
Ebene_1
 62
7
100
AcDbSpline
 70
8
 71
3
 72
8
 73
4
 74
0
 40
0
 40
0
 40
0
 40
0
 40
1
 40
1
 40
1
 40
1
 10
216.305210
 20
90.528600
 30
0.0
 10
218.105400
 20
90.528600
 30
0.0
 10
219.519830
 20
89.757100
 30
0.0
 10
220.908540
 20
88.496970
 30
0.0
  0
LWPOLYLINE
  5
162
100
AcDbEntity
  8
Ebene_1
 62
7
100
AcDbPolyline
 90
2
 70
0
 10
211.084680
 20
84.870920
 30
0.0
 10
211.084680
 20
84.922320
 30
0.0
  0
SPLINE
  5
163
100
AcDbEntity
  8
Ebene_1
 62
7
100
AcDbSpline
 70
8
 71
3
 72
8
 73
4
 74
0
 40
0
 40
0
 40
0
 40
0
 40
1
 40
1
 40
1
 40
1
 10
223.428800
 20
91.402980
 30
0.0
 10
221.757200
 20
93.048860
 30
0.0
 10
219.725560
 20
94.180400
 30
0.0
 10
216.330930
 20
94.180400
 30
0.0
  0
SPLINE
  5
164
100
AcDbEntity
  8
Ebene_1
 62
7
100
AcDbSpline
 70
8
 71
3
 72
8
 73
4
 74
0
 40
0
 40
0
 40
0
 40
0
 40
1
 40
1
 40
1
 40
1
 10
216.330930
 20
94.180400
 30
0.0
 10
210.801800
 20
94.180400
 30
0.0
 10
206.944260
 20
89.988550
 30
0.0
 10
206.944260
 20
84.870890
 30
0.0
  0
LWPOLYLINE
  5
165
100
AcDbEntity
  8
Ebene_1
 62
7
100
AcDbPolyline
 90
2
 70
0
 10
220.908540
 20
88.496970
 30
0.0
 10
223.428800
 20
91.402980
 30
0.0
  0
SPLINE
  5
166
100
AcDbEntity
  8
Ebene_1
 62
7
100
AcDbSpline
 70
8
 71
3
 72
8
 73
4
 74
0
 40
0
 40
0
 40
0
 40
0
 40
1
 40
1
 40
1
 40
1
 10
206.944260
 20
84.819490
 30
0.0
 10
206.944260
 20
79.650390
 30
0.0
 10
210.878950
 20
75.561410
 30
0.0
 10
216.176630
 20
75.561410
 30
0.0
  0
SPLINE
  5
167
100
AcDbEntity
  8
Ebene_1
 62
7
100
AcDbSpline
 70
8
 71
3
 72
8
 73
4
 74
0
 40
0
 40
0
 40
0
 40
0
 40
1
 40
1
 40
1
 40
1
 10
216.176630
 20
75.561410
 30
0.0
 10
219.648410
 20
75.561410
 30
0.0
 10
221.705760
 20
76.795820
 30
0.0
 10
223.557380
 20
78.776020
 30
0.0
  0
LWPOLYLINE
  5
168
100
AcDbEntity
  8
Ebene_1
 62
7
100
AcDbPolyline
 90
2
 70
0
 10
206.944260
 20
84.870890
 30
0.0
 10
206.944260
 20
84.819490
 30
0.0
  0
LWPOLYLINE
  5
169
100
AcDbEntity
  8
Ebene_1
 62
7
100
AcDbPolyline
 90
1
 70
1
 10
223.557380
 20
78.776020
 30
0.0
  0
LWPOLYLINE
  5
16a
100
AcDbEntity
  8
Ebene_1
 62
7
100
AcDbPolyline
 90
6
 70
1
 10
239.663390
 20
75.870000
 30
0.0
 10
239.663390
 20
79.470370
 30
0.0
 10
230.688190
 20
79.470370
 30
0.0
 10
230.688190
 20
93.871830
 30
0.0
 10
226.727790
 20
93.871830
 30
0.0
 10
226.727790
 20
75.870000
 30
0.0
  0
LWPOLYLINE
  5
16b
100
AcDbEntity
  8
Ebene_1
 62
7
100
AcDbPolyline
 90
12
 70
1
 10
256.357280
 20
75.870000
 30
0.0
 10
256.357280
 20
79.393220
 30
0.0
 10
246.584860
 20
79.393220
 30
0.0
 10
246.584860
 20
83.173600
 30
0.0
 10
255.071430
 20
83.173600
 30
0.0
 10
255.071430
 20
86.696820
 30
0.0
 10
246.584860
 20
86.696820
 30
0.0
 10
246.584860
 20
90.348620
 30
0.0
 10
256.228690
 20
90.348620
 30
0.0
 10
256.228690
 20
93.871830
 30
0.0
 10
242.650170
 20
93.871830
 30
0.0
 10
242.650170
 20
75.870000
 30
0.0
  0
SPLINE
  5
16c
100
AcDbEntity
  8
Ebene_1
 62
7
100
AcDbSpline
 70
8
 71
3
 72
8
 73
4
 74
0
 40
0
 40
0
 40
0
 40
0
 40
1
 40
1
 40
1
 40
1
 10
272.891230
 20
81.244800
 30
0.0
 10
272.891230
 20
84.382260
 30
0.0
 10
270.833880
 20
85.693830
 30
0.0
 10
267.182080
 20
86.645350
 30
0.0
  0
SPLINE
  5
16d
100
AcDbEntity
  8
Ebene_1
 62
7
100
AcDbSpline
 70
8
 71
3
 72
8
 73
4
 74
0
 40
0
 40
0
 40
0
 40
0
 40
1
 40
1
 40
1
 40
1
 10
267.182080
 20
86.645350
 30
0.0
 10
264.070330
 20
87.442580
 30
0.0
 10
263.298830
 20
87.828330
 30
0.0
 10
263.298830
 20
89.011310
 30
0.0
  0
LWPOLYLINE
  5
16e
100
AcDbEntity
  8
Ebene_1
 62
7
100
AcDbPolyline
 90
2
 70
0
 10
272.891230
 20
81.193400
 30
0.0
 10
272.891230
 20
81.244800
 30
0.0
  0
SPLINE
  5
16f
100
AcDbEntity
  8
Ebene_1
 62
7
100
AcDbSpline
 70
8
 71
3
 72
8
 73
4
 74
0
 40
0
 40
0
 40
0
 40
0
 40
1
 40
1
 40
1
 40
1
 10
263.298830
 20
89.062710
 30
0.0
 10
263.298830
 20
89.937080
 30
0.0
 10
264.096050
 20
90.631440
 30
0.0
 10
265.613350
 20
90.631440
 30
0.0
  0
SPLINE
  5
170
100
AcDbEntity
  8
Ebene_1
 62
7
100
AcDbSpline
 70
8
 71
3
 72
8
 73
4
 74
0
 40
0
 40
0
 40
0
 40
0
 40
1
 40
1
 40
1
 40
1
 10
265.613350
 20
90.631440
 30
0.0
 10
267.130650
 20
90.631440
 30
0.0
 10
268.699380
 20
89.962800
 30
0.0
 10
270.293820
 20
88.856980
 30
0.0
  0
LWPOLYLINE
  5
171
100
AcDbEntity
  8
Ebene_1
 62
7
100
AcDbPolyline
 90
2
 70
0
 10
263.298830
 20
89.011310
 30
0.0
 10
263.298830
 20
89.062710
 30
0.0
  0
SPLINE
  5
172
100
AcDbEntity
  8
Ebene_1
 62
7
100
AcDbSpline
 70
8
 71
3
 72
8
 73
4
 74
0
 40
0
 40
0
 40
0
 40
0
 40
1
 40
1
 40
1
 40
1
 10
272.351180
 20
91.840140
 30
0.0
 10
270.525280
 20
93.306000
 30
0.0
 10
268.287910
 20
94.128940
 30
0.0
 10
265.664780
 20
94.128940
 30
0.0
  0
SPLINE
  5
173
100
AcDbEntity
  8
Ebene_1
 62
7
100
AcDbSpline
 70
8
 71
3
 72
8
 73
4
 74
0
 40
0
 40
0
 40
0
 40
0
 40
1
 40
1
 40
1
 40
1
 10
265.664780
 20
94.128940
 30
0.0
 10
261.987270
 20
94.128940
 30
0.0
 10
259.364140
 20
91.968720
 30
0.0
 10
259.364140
 20
88.702670
 30
0.0
  0
LWPOLYLINE
  5
174
100
AcDbEntity
  8
Ebene_1
 62
7
100
AcDbPolyline
 90
2
 70
0
 10
270.293820
 20
88.856980
 30
0.0
 10
272.351180
 20
91.840140
 30
0.0
  0
SPLINE
  5
175
100
AcDbEntity
  8
Ebene_1
 62
7
100
AcDbSpline
 70
8
 71
3
 72
8
 73
4
 74
0
 40
0
 40
0
 40
0
 40
0
 40
1
 40
1
 40
1
 40
1
 10
259.364140
 20
88.651270
 30
0.0
 10
259.364140
 20
85.076620
 30
0.0
 10
261.704380
 20
84.073660
 30
0.0
 10
265.330460
 20
83.147850
 30
0.0
  0
SPLINE
  5
176
100
AcDbEntity
  8
Ebene_1
 62
7
100
AcDbSpline
 70
8
 71
3
 72
8
 73
4
 74
0
 40
0
 40
0
 40
0
 40
0
 40
1
 40
1
 40
1
 40
1
 10
265.330460
 20
83.147850
 30
0.0
 10
268.339340
 20
82.376350
 30
0.0
 10
268.956550
 20
81.862010
 30
0.0
 10
268.956550
 20
80.859050
 30
0.0
  0
LWPOLYLINE
  5
177
100
AcDbEntity
  8
Ebene_1
 62
7
100
AcDbPolyline
 90
2
 70
0
 10
259.364140
 20
88.702670
 30
0.0
 10
259.364140
 20
88.651270
 30
0.0
  0
SPLINE
  5
178
100
AcDbEntity
  8
Ebene_1
 62
7
100
AcDbSpline
 70
8
 71
3
 72
8
 73
4
 74
0
 40
0
 40
0
 40
0
 40
0
 40
1
 40
1
 40
1
 40
1
 10
268.956550
 20
80.807650
 30
0.0
 10
268.956550
 20
79.753250
 30
0.0
 10
267.979300
 20
79.110330
 30
0.0
 10
266.359140
 20
79.110330
 30
0.0
  0
SPLINE
  5
179
100
AcDbEntity
  8
Ebene_1
 62
7
100
AcDbSpline
 70
8
 71
3
 72
8
 73
4
 74
0
 40
0
 40
0
 40
0
 40
0
 40
1
 40
1
 40
1
 40
1
 10
266.359140
 20
79.110330
 30
0.0
 10
264.301790
 20
79.110330
 30
0.0
 10
262.604470
 20
79.958990
 30
0.0
 10
260.984310
 20
81.296270
 30
0.0
  0
LWPOLYLINE
  5
17a
100
AcDbEntity
  8
Ebene_1
 62
7
100
AcDbPolyline
 90
2
 70
0
 10
268.956550
 20
80.859050
 30
0.0
 10
268.956550
 20
80.807650
 30
0.0
  0
SPLINE
  5
17b
100
AcDbEntity
  8
Ebene_1
 62
7
100
AcDbSpline
 70
8
 71
3
 72
8
 73
4
 74
0
 40
0
 40
0
 40
0
 40
0
 40
1
 40
1
 40
1
 40
1
 10
258.644070
 20
78.493120
 30
0.0
 10
260.804290
 20
76.564360
 30
0.0
 10
263.556000
 20
75.612830
 30
0.0
 10
266.281990
 20
75.612830
 30
0.0
  0
SPLINE
  5
17c
100
AcDbEntity
  8
Ebene_1
 62
7
100
AcDbSpline
 70
8
 71
3
 72
8
 73
4
 74
0
 40
0
 40
0
 40
0
 40
0
 40
1
 40
1
 40
1
 40
1
 10
266.281990
 20
75.612830
 30
0.0
 10
270.165240
 20
75.612830
 30
0.0
 10
272.891230
 20
77.618750
 30
0.0
 10
272.891230
 20
81.193400
 30
0.0
  0
LWPOLYLINE
  5
17d
100
AcDbEntity
  8
Ebene_1
 62
7
100
AcDbPolyline
 90
2
 70
0
 10
260.984310
 20
81.296270
 30
0.0
 10
258.644070
 20
78.493120
 30
0.0
  0
SPLINE
  5
17e
100
AcDbEntity
  8
Ebene_1
 62
7
100
AcDbSpline
 70
8
 71
3
 72
8
 73
4
 74
0
 40
0
 40
0
 40
0
 40
0
 40
1
 40
1
 40
1
 40
1
 10
152.500017
 20
164.642340
 30
0.0
 10
152.500017
 20
163.979299
 30
0.0
 10
152.236625
 20
163.343414
 30
0.0
 10
151.767784
 20
162.874573
 30
0.0
  0
SPLINE
  5
17f
100
AcDbEntity
  8
Ebene_1
 62
7
100
AcDbSpline
 70
8
 71
3
 72
8
 73
4
 74
0
 40
0
 40
0
 40
0
 40
0
 40
1
 40
1
 40
1
 40
1
 10
151.767784
 20
162.874573
 30
0.0
 10
151.298943
 20
162.405732
 30
0.0
 10
150.663058
 20
162.142340
 30
0.0
 10
150.000017
 20
162.142340
 30
0.0
  0
SPLINE
  5
180
100
AcDbEntity
  8
Ebene_1
 62
7
100
AcDbSpline
 70
8
 71
3
 72
8
 73
4
 74
0
 40
0
 40
0
 40
0
 40
0
 40
1
 40
1
 40
1
 40
1
 10
150.000017
 20
162.142340
 30
0.0
 10
149.336976
 20
162.142340
 30
0.0
 10
148.701091
 20
162.405732
 30
0.0
 10
148.232250
 20
162.874573
 30
0.0
  0
SPLINE
  5
181
100
AcDbEntity
  8
Ebene_1
 62
7
100
AcDbSpline
 70
8
 71
3
 72
8
 73
4
 74
0
 40
0
 40
0
 40
0
 40
0
 40
1
 40
1
 40
1
 40
1
 10
148.232250
 20
162.874573
 30
0.0
 10
147.763409
 20
163.343414
 30
0.0
 10
147.500017
 20
163.979299
 30
0.0
 10
147.500017
 20
164.642340
 30
0.0
  0
SPLINE
  5
182
100
AcDbEntity
  8
Ebene_1
 62
7
100
AcDbSpline
 70
8
 71
3
 72
8
 73
4
 74
0
 40
0
 40
0
 40
0
 40
0
 40
1
 40
1
 40
1
 40
1
 10
147.500017
 20
164.642340
 30
0.0
 10
147.500017
 20
165.305381
 30
0.0
 10
147.763409
 20
165.941266
 30
0.0
 10
148.232250
 20
166.410107
 30
0.0
  0
SPLINE
  5
183
100
AcDbEntity
  8
Ebene_1
 62
7
100
AcDbSpline
 70
8
 71
3
 72
8
 73
4
 74
0
 40
0
 40
0
 40
0
 40
0
 40
1
 40
1
 40
1
 40
1
 10
148.232250
 20
166.410107
 30
0.0
 10
148.701091
 20
166.878948
 30
0.0
 10
149.336976
 20
167.142340
 30
0.0
 10
150.000017
 20
167.142340
 30
0.0
  0
SPLINE
  5
184
100
AcDbEntity
  8
Ebene_1
 62
7
100
AcDbSpline
 70
8
 71
3
 72
8
 73
4
 74
0
 40
0
 40
0
 40
0
 40
0
 40
1
 40
1
 40
1
 40
1
 10
150.000017
 20
167.142340
 30
0.0
 10
150.663058
 20
167.142340
 30
0.0
 10
151.298943
 20
166.878948
 30
0.0
 10
151.767784
 20
166.410107
 30
0.0
  0
SPLINE
  5
185
100
AcDbEntity
  8
Ebene_1
 62
7
100
AcDbSpline
 70
8
 71
3
 72
8
 73
4
 74
0
 40
0
 40
0
 40
0
 40
0
 40
1
 40
1
 40
1
 40
1
 10
151.767784
 20
166.410107
 30
0.0
 10
152.236625
 20
165.941266
 30
0.0
 10
152.500017
 20
165.305381
 30
0.0
 10
152.500017
 20
164.642340
 30
0.0
  0
SPLINE
  5
186
100
AcDbEntity
  8
Ebene_1
 62
7
100
AcDbSpline
 70
8
 71
3
 72
8
 73
4
 74
0
 40
0
 40
0
 40
0
 40
0
 40
1
 40
1
 40
1
 40
1
 10
152.500017
 20
30.817350
 30
0.0
 10
152.500017
 20
30.154309
 30
0.0
 10
152.236625
 20
29.518424
 30
0.0
 10
151.767784
 20
29.049583
 30
0.0
  0
SPLINE
  5
187
100
AcDbEntity
  8
Ebene_1
 62
7
100
AcDbSpline
 70
8
 71
3
 72
8
 73
4
 74
0
 40
0
 40
0
 40
0
 40
0
 40
1
 40
1
 40
1
 40
1
 10
151.767784
 20
29.049583
 30
0.0
 10
151.298943
 20
28.580742
 30
0.0
 10
150.663058
 20
28.317350
 30
0.0
 10
150.000017
 20
28.317350
 30
0.0
  0
SPLINE
  5
188
100
AcDbEntity
  8
Ebene_1
 62
7
100
AcDbSpline
 70
8
 71
3
 72
8
 73
4
 74
0
 40
0
 40
0
 40
0
 40
0
 40
1
 40
1
 40
1
 40
1
 10
150.000017
 20
28.317350
 30
0.0
 10
149.336976
 20
28.317350
 30
0.0
 10
148.701091
 20
28.580742
 30
0.0
 10
148.232250
 20
29.049583
 30
0.0
  0
SPLINE
  5
189
100
AcDbEntity
  8
Ebene_1
 62
7
100
AcDbSpline
 70
8
 71
3
 72
8
 73
4
 74
0
 40
0
 40
0
 40
0
 40
0
 40
1
 40
1
 40
1
 40
1
 10
148.232250
 20
29.049583
 30
0.0
 10
147.763409
 20
29.518424
 30
0.0
 10
147.500017
 20
30.154309
 30
0.0
 10
147.500017
 20
30.817350
 30
0.0
  0
SPLINE
  5
18a
100
AcDbEntity
  8
Ebene_1
 62
7
100
AcDbSpline
 70
8
 71
3
 72
8
 73
4
 74
0
 40
0
 40
0
 40
0
 40
0
 40
1
 40
1
 40
1
 40
1
 10
147.500017
 20
30.817350
 30
0.0
 10
147.500017
 20
31.480391
 30
0.0
 10
147.763409
 20
32.116276
 30
0.0
 10
148.232250
 20
32.585117
 30
0.0
  0
SPLINE
  5
18b
100
AcDbEntity
  8
Ebene_1
 62
7
100
AcDbSpline
 70
8
 71
3
 72
8
 73
4
 74
0
 40
0
 40
0
 40
0
 40
0
 40
1
 40
1
 40
1
 40
1
 10
148.232250
 20
32.585117
 30
0.0
 10
148.701091
 20
33.053958
 30
0.0
 10
149.336976
 20
33.317350
 30
0.0
 10
150.000017
 20
33.317350
 30
0.0
  0
SPLINE
  5
18c
100
AcDbEntity
  8
Ebene_1
 62
7
100
AcDbSpline
 70
8
 71
3
 72
8
 73
4
 74
0
 40
0
 40
0
 40
0
 40
0
 40
1
 40
1
 40
1
 40
1
 10
150.000017
 20
33.317350
 30
0.0
 10
150.663058
 20
33.317350
 30
0.0
 10
151.298943
 20
33.053958
 30
0.0
 10
151.767784
 20
32.585117
 30
0.0
  0
SPLINE
  5
18d
100
AcDbEntity
  8
Ebene_1
 62
7
100
AcDbSpline
 70
8
 71
3
 72
8
 73
4
 74
0
 40
0
 40
0
 40
0
 40
0
 40
1
 40
1
 40
1
 40
1
 10
151.767784
 20
32.585117
 30
0.0
 10
152.236625
 20
32.116276
 30
0.0
 10
152.500017
 20
31.480391
 30
0.0
 10
152.500017
 20
30.817350
 30
0.0
  0
LWPOLYLINE
  5
18e
100
AcDbEntity
  8
Ebene_1
 62
7
100
AcDbPolyline
 90
1
 70
1
 10
272.891230
 20
81.193400
 30
0.0
  0
SPLINE
  5
18f
100
AcDbEntity
  8
Ebene_1
 62
7
100
AcDbSpline
 70
8
 71
3
 72
8
 73
4
 74
0
 40
0
 40
0
 40
0
 40
0
 40
1
 40
1
 40
1
 40
1
 10
79.658350
 20
228.539130
 30
0.0
 10
79.480730
 20
229.475920
 30
0.0
 10
64.196530
 20
314.806950
 30
0.0
 10
64.196530
 20
314.861830
 30
0.0
  0
SPLINE
  5
190
100
AcDbEntity
  8
Ebene_1
 62
7
100
AcDbSpline
 70
8
 71
3
 72
8
 73
4
 74
0
 40
0
 40
0
 40
0
 40
0
 40
1
 40
1
 40
1
 40
1
 10
64.196530
 20
314.861830
 30
0.0
 10
64.196530
 20
314.939730
 30
0.0
 10
59.682230
 20
314.825730
 30
0.0
 10
57.413120
 20
314.690310
 30
0.0
  0
SPLINE
  5
191
100
AcDbEntity
  8
Ebene_1
 62
7
100
AcDbSpline
 70
8
 71
3
 72
8
 73
4
 74
0
 40
0
 40
0
 40
0
 40
0
 40
1
 40
1
 40
1
 40
1
 10
57.413120
 20
314.690310
 30
0.0
 10
50.660380
 20
314.287610
 30
0.0
 10
47.187260
 20
313.105080
 30
0.0
 10
45.508600
 20
310.637060
 30
0.0
  0
SPLINE
  5
192
100
AcDbEntity
  8
Ebene_1
 62
7
100
AcDbSpline
 70
8
 71
3
 72
8
 73
4
 74
0
 40
0
 40
0
 40
0
 40
0
 40
1
 40
1
 40
1
 40
1
 10
45.508600
 20
310.637060
 30
0.0
 10
44.889700
 20
309.727120
 30
0.0
 10
44.631320
 20
309.078310
 30
0.0
 10
44.361190
 20
307.756150
 30
0.0
  0
SPLINE
  5
193
100
AcDbEntity
  8
Ebene_1
 62
7
100
AcDbSpline
 70
8
 71
3
 72
8
 73
4
 74
0
 40
0
 40
0
 40
0
 40
0
 40
1
 40
1
 40
1
 40
1
 10
44.361190
 20
307.756150
 30
0.0
 10
44.251460
 20
307.218920
 30
0.0
 10
44.141650
 20
306.759380
 30
0.0
 10
44.117190
 20
306.734920
 30
0.0
  0
SPLINE
  5
194
100
AcDbEntity
  8
Ebene_1
 62
7
100
AcDbSpline
 70
8
 71
3
 72
8
 73
4
 74
0
 40
0
 40
0
 40
0
 40
0
 40
1
 40
1
 40
1
 40
1
 10
44.117190
 20
306.734920
 30
0.0
 10
44.034990
 20
306.652720
 30
0.0
 10
41.228680
 20
307.986140
 30
0.0
 10
39.822650
 20
308.775510
 30
0.0
  0
SPLINE
  5
195
100
AcDbEntity
  8
Ebene_1
 62
7
100
AcDbSpline
 70
8
 71
3
 72
8
 73
4
 74
0
 40
0
 40
0
 40
0
 40
0
 40
1
 40
1
 40
1
 40
1
 10
39.822650
 20
308.775510
 30
0.0
 10
35.617140
 20
311.136560
 30
0.0
 10
32.315490
 20
313.870270
 30
0.0
 10
30.069450
 20
316.851000
 30
0.0
  0
SPLINE
  5
196
100
AcDbEntity
  8
Ebene_1
 62
7
100
AcDbSpline
 70
8
 71
3
 72
8
 73
4
 74
0
 40
0
 40
0
 40
0
 40
0
 40
1
 40
1
 40
1
 40
1
 10
30.069450
 20
316.851000
 30
0.0
 10
29.739470
 20
317.288910
 30
0.0
 10
29.469500
 20
317.683050
 30
0.0
 10
29.469500
 20
317.726850
 30
0.0
  0
SPLINE
  5
197
100
AcDbEntity
  8
Ebene_1
 62
7
100
AcDbSpline
 70
8
 71
3
 72
8
 73
4
 74
0
 40
0
 40
0
 40
0
 40
0
 40
1
 40
1
 40
1
 40
1
 10
29.469500
 20
317.726850
 30
0.0
 10
29.469500
 20
317.770650
 30
0.0
 10
29.640350
 20
317.877220
 30
0.0
 10
29.849160
 20
317.963630
 30
0.0
  0
SPLINE
  5
198
100
AcDbEntity
  8
Ebene_1
 62
7
100
AcDbSpline
 70
8
 71
3
 72
8
 73
4
 74
0
 40
0
 40
0
 40
0
 40
0
 40
1
 40
1
 40
1
 40
1
 10
29.849160
 20
317.963630
 30
0.0
 10
30.057980
 20
318.050030
 30
0.0
 10
30.957810
 20
318.437880
 30
0.0
 10
31.848750
 20
318.825490
 30
0.0
  0
SPLINE
  5
199
100
AcDbEntity
  8
Ebene_1
 62
7
100
AcDbSpline
 70
8
 71
3
 72
8
 73
4
 74
0
 40
0
 40
0
 40
0
 40
0
 40
1
 40
1
 40
1
 40
1
 10
31.848750
 20
318.825490
 30
0.0
 10
42.056860
 20
323.266460
 30
0.0
 10
55.325860
 20
326.370610
 30
0.0
 10
67.233870
 20
327.103480
 30
0.0
  0
LWPOLYLINE
  5
19a
100
AcDbEntity
  8
Ebene_1
 62
7
100
AcDbPolyline
 90
4
 70
1
 10
0.000000
 20
380.000000
 30
0.0
 10
300.000000
 20
380.000000
 30
0.0
 10
300.000000
 20
0.000000
 30
0.0
 10
0.000000
 20
0.000000
 30
0.0
  0
SPLINE
  5
19b
100
AcDbEntity
  8
Ebene_1
 62
7
100
AcDbSpline
 70
8
 71
3
 72
8
 73
4
 74
0
 40
0
 40
0
 40
0
 40
0
 40
1
 40
1
 40
1
 40
1
 10
74.003010
 20
320.215810
 30
0.0
 10
77.141350
 20
316.391630
 30
0.0
 10
79.743810
 20
313.301060
 30
0.0
 10
79.786250
 20
313.347880
 30
0.0
  0
SPLINE
  5
19c
100
AcDbEntity
  8
Ebene_1
 62
7
100
AcDbSpline
 70
8
 71
3
 72
8
 73
4
 74
0
 40
0
 40
0
 40
0
 40
0
 40
1
 40
1
 40
1
 40
1
 10
79.786250
 20
313.347880
 30
0.0
 10
79.828650
 20
313.394580
 30
0.0
 10
82.375820
 20
316.494720
 30
0.0
 10
85.446540
 20
320.236790
 30
0.0
  0
SPLINE
  5
19d
100
AcDbEntity
  8
Ebene_1
 62
7
100
AcDbSpline
 70
8
 71
3
 72
8
 73
4
 74
0
 40
0
 40
0
 40
0
 40
0
 40
1
 40
1
 40
1
 40
1
 10
85.446540
 20
320.236790
 30
0.0
 10
88.517280
 20
323.978860
 30
0.0
 10
91.076610
 20
327.069540
 30
0.0
 10
91.133910
 20
327.104970
 30
0.0
  0
SPLINE
  5
19e
100
AcDbEntity
  8
Ebene_1
 62
7
100
AcDbSpline
 70
8
 71
3
 72
8
 73
4
 74
0
 40
0
 40
0
 40
0
 40
0
 40
1
 40
1
 40
1
 40
1
 10
91.133910
 20
327.104970
 30
0.0
 10
91.253500
 20
327.178870
 30
0.0
 10
93.807320
 20
327.014170
 30
0.0
 10
96.038070
 20
326.788670
 30
0.0
  0
SPLINE
  5
19f
100
AcDbEntity
  8
Ebene_1
 62
7
100
AcDbSpline
 70
8
 71
3
 72
8
 73
4
 74
0
 40
0
 40
0
 40
0
 40
0
 40
1
 40
1
 40
1
 40
1
 10
96.038070
 20
326.788670
 30
0.0
 10
105.445460
 20
325.837750
 30
0.0
 10
114.893740
 20
323.660880
 30
0.0
 10
123.475450
 20
320.467120
 30
0.0
  0
SPLINE
  5
1a0
100
AcDbEntity
  8
Ebene_1
 62
7
100
AcDbSpline
 70
8
 71
3
 72
8
 73
4
 74
0
 40
0
 40
0
 40
0
 40
0
 40
1
 40
1
 40
1
 40
1
 10
123.475450
 20
320.467120
 30
0.0
 10
125.500770
 20
319.713370
 30
0.0
 10
128.758600
 20
318.368070
 30
0.0
 10
129.608270
 20
317.934610
 30
0.0
  0
LWPOLYLINE
  5
1a1
100
AcDbEntity
  8
Ebene_1
 62
7
100
AcDbPolyline
 90
3
 70
0
 10
67.233870
 20
327.103480
 30
0.0
 10
68.296930
 20
327.168880
 30
0.0
 10
74.003010
 20
320.215810
 30
0.0
  0
SPLINE
  5
1a2
100
AcDbEntity
  8
Ebene_1
 62
7
100
AcDbSpline
 70
8
 71
3
 72
8
 73
4
 74
0
 40
0
 40
0
 40
0
 40
0
 40
1
 40
1
 40
1
 40
1
 10
129.493190
 20
317.028140
 30
0.0
 10
127.503350
 20
314.292350
 30
0.0
 10
124.383900
 20
311.603850
 30
0.0
 10
120.520770
 20
309.295260
 30
0.0
  0
SPLINE
  5
1a3
100
AcDbEntity
  8
Ebene_1
 62
7
100
AcDbSpline
 70
8
 71
3
 72
8
 73
4
 74
0
 40
0
 40
0
 40
0
 40
0
 40
1
 40
1
 40
1
 40
1
 10
120.520770
 20
309.295260
 30
0.0
 10
119.458340
 20
308.660340
 30
0.0
 10
115.941320
 20
306.895100
 30
0.0
 10
115.461780
 20
306.756050
 30
0.0
  0
SPLINE
  5
1a4
100
AcDbEntity
  8
Ebene_1
 62
7
100
AcDbSpline
 70
8
 71
3
 72
8
 73
4
 74
0
 40
0
 40
0
 40
0
 40
0
 40
1
 40
1
 40
1
 40
1
 10
115.461780
 20
306.756050
 30
0.0
 10
115.263890
 20
306.698550
 30
0.0
 10
115.237360
 20
306.741750
 30
0.0
 10
115.171530
 20
307.228100
 30
0.0
  0
SPLINE
  5
1a5
100
AcDbEntity
  8
Ebene_1
 62
7
100
AcDbSpline
 70
8
 71
3
 72
8
 73
4
 74
0
 40
0
 40
0
 40
0
 40
0
 40
1
 40
1
 40
1
 40
1
 10
115.171530
 20
307.228100
 30
0.0
 10
115.131630
 20
307.522450
 30
0.0
 10
114.987740
 20
308.149330
 30
0.0
 10
114.851680
 20
308.621150
 30
0.0
  0
SPLINE
  5
1a6
100
AcDbEntity
  8
Ebene_1
 62
7
100
AcDbSpline
 70
8
 71
3
 72
8
 73
4
 74
0
 40
0
 40
0
 40
0
 40
0
 40
1
 40
1
 40
1
 40
1
 10
114.851680
 20
308.621150
 30
0.0
 10
113.780240
 20
312.336680
 30
0.0
 10
110.614510
 20
313.986530
 30
0.0
 10
103.378320
 20
314.600620
 30
0.0
  0
SPLINE
  5
1a7
100
AcDbEntity
  8
Ebene_1
 62
7
100
AcDbSpline
 70
8
 71
3
 72
8
 73
4
 74
0
 40
0
 40
0
 40
0
 40
0
 40
1
 40
1
 40
1
 40
1
 10
103.378320
 20
314.600620
 30
0.0
 10
101.802720
 20
314.734320
 30
0.0
 10
95.249880
 20
314.905920
 30
0.0
 10
95.167550
 20
314.815620
 30
0.0
  0
SPLINE
  5
1a8
100
AcDbEntity
  8
Ebene_1
 62
7
100
AcDbSpline
 70
8
 71
3
 72
8
 73
4
 74
0
 40
0
 40
0
 40
0
 40
0
 40
1
 40
1
 40
1
 40
1
 10
95.167550
 20
314.815620
 30
0.0
 10
95.125450
 20
314.769420
 30
0.0
 10
82.475460
 20
243.806880
 30
0.0
 10
79.805750
 20
228.640340
 30
0.0
  0
LWPOLYLINE
  5
1a9
100
AcDbEntity
  8
Ebene_1
 62
7
100
AcDbPolyline
 90
3
 70
0
 10
129.608270
 20
317.934610
 30
0.0
 10
130.005210
 20
317.732100
 30
0.0
 10
129.493190
 20
317.028140
 30
0.0
  0
SPLINE
  5
1aa
100
AcDbEntity
  8
Ebene_1
 62
7
100
AcDbSpline
 70
8
 71
3
 72
8
 73
4
 74
0
 40
0
 40
0
 40
0
 40
0
 40
1
 40
1
 40
1
 40
1
 10
130.005750
 20
321.555040
 30
0.0
 10
117.913690
 20
326.654800
 30
0.0
 10
104.175660
 20
329.899960
 30
0.0
 10
90.469590
 20
330.894150
 30
0.0
  0
SPLINE
  5
1ab
100
AcDbEntity
  8
Ebene_1
 62
7
100
AcDbSpline
 70
8
 71
3
 72
8
 73
4
 74
0
 40
0
 40
0
 40
0
 40
0
 40
1
 40
1
 40
1
 40
1
 10
90.469590
 20
330.894150
 30
0.0
 10
86.066130
 20
331.213560
 30
0.0
 10
76.917950
 20
331.318160
 30
0.0
 10
72.488140
 20
331.099740
 30
0.0
  0
SPLINE
  5
1ac
100
AcDbEntity
  8
Ebene_1
 62
7
100
AcDbSpline
 70
8
 71
3
 72
8
 73
4
 74
0
 40
0
 40
0
 40
0
 40
0
 40
1
 40
1
 40
1
 40
1
 10
72.488140
 20
331.099740
 30
0.0
 10
57.136800
 20
330.342840
 30
0.0
 10
43.013290
 20
327.214330
 30
0.0
 10
29.439760
 20
321.564080
 30
0.0
  0
SPLINE
  5
1ad
100
AcDbEntity
  8
Ebene_1
 62
7
100
AcDbSpline
 70
8
 71
3
 72
8
 73
4
 74
0
 40
0
 40
0
 40
0
 40
0
 40
1
 40
1
 40
1
 40
1
 10
29.439760
 20
321.564080
 30
0.0
 10
28.504610
 20
321.174810
 30
0.0
 10
27.681260
 20
320.878650
 30
0.0
 10
27.610100
 20
320.905960
 30
0.0
  0
SPLINE
  5
1ae
100
AcDbEntity
  8
Ebene_1
 62
7
100
AcDbSpline
 70
8
 71
3
 72
8
 73
4
 74
0
 40
0
 40
0
 40
0
 40
0
 40
1
 40
1
 40
1
 40
1
 10
27.610100
 20
320.905960
 30
0.0
 10
27.538900
 20
320.933260
 30
0.0
 10
26.953460
 20
322.019430
 30
0.0
 10
26.309050
 20
323.319660
 30
0.0
  0
SPLINE
  5
1af
100
AcDbEntity
  8
Ebene_1
 62
7
100
AcDbSpline
 70
8
 71
3
 72
8
 73
4
 74
0
 40
0
 40
0
 40
0
 40
0
 40
1
 40
1
 40
1
 40
1
 10
26.309050
 20
323.319660
 30
0.0
 10
25.103380
 20
325.752340
 30
0.0
 10
24.541510
 20
327.016050
 30
0.0
 10
24.627400
 20
327.101940
 30
0.0
  0
SPLINE
  5
1b0
100
AcDbEntity
  8
Ebene_1
 62
7
100
AcDbSpline
 70
8
 71
3
 72
8
 73
4
 74
0
 40
0
 40
0
 40
0
 40
0
 40
1
 40
1
 40
1
 40
1
 10
24.627400
 20
327.101940
 30
0.0
 10
24.715300
 20
327.189740
 30
0.0
 10
28.255180
 20
328.527120
 30
0.0
 10
30.330080
 20
329.256330
 30
0.0
  0
SPLINE
  5
1b1
100
AcDbEntity
  8
Ebene_1
 62
7
100
AcDbSpline
 70
8
 71
3
 72
8
 73
4
 74
0
 40
0
 40
0
 40
0
 40
0
 40
1
 40
1
 40
1
 40
1
 10
30.330080
 20
329.256330
 30
0.0
 10
49.781560
 20
336.092470
 30
0.0
 10
70.555230
 20
338.925370
 30
0.0
 10
90.216490
 20
337.423030
 30
0.0
  0
SPLINE
  5
1b2
100
AcDbEntity
  8
Ebene_1
 62
7
100
AcDbSpline
 70
8
 71
3
 72
8
 73
4
 74
0
 40
0
 40
0
 40
0
 40
0
 40
1
 40
1
 40
1
 40
1
 10
90.216490
 20
337.423030
 30
0.0
 10
104.921910
 20
336.299360
 30
0.0
 10
118.781080
 20
333.197410
 30
0.0
 10
132.888780
 20
327.872130
 30
0.0
  0
SPLINE
  5
1b3
100
AcDbEntity
  8
Ebene_1
 62
7
100
AcDbSpline
 70
8
 71
3
 72
8
 73
4
 74
0
 40
0
 40
0
 40
0
 40
0
 40
1
 40
1
 40
1
 40
1
 10
132.888780
 20
327.872130
 30
0.0
 10
133.939140
 20
327.475650
 30
0.0
 10
134.816570
 20
327.133210
 30
0.0
 10
134.838620
 20
327.111150
 30
0.0
  0
SPLINE
  5
1b4
100
AcDbEntity
  8
Ebene_1
 62
7
100
AcDbSpline
 70
8
 71
3
 72
8
 73
4
 74
0
 40
0
 40
0
 40
0
 40
0
 40
1
 40
1
 40
1
 40
1
 10
134.838620
 20
327.111150
 30
0.0
 10
134.953950
 20
326.995830
 30
0.0
 10
132.133080
 20
321.107120
 30
0.0
 10
131.847250
 20
320.866500
 30
0.0
  0
SPLINE
  5
1b5
100
AcDbEntity
  8
Ebene_1
 62
7
100
AcDbSpline
 70
8
 71
3
 72
8
 73
4
 74
0
 40
0
 40
0
 40
0
 40
0
 40
1
 40
1
 40
1
 40
1
 10
131.847250
 20
320.866500
 30
0.0
 10
131.808950
 20
320.834200
 30
0.0
 10
130.980220
 20
321.144060
 30
0.0
 10
130.005750
 20
321.555040
 30
0.0
  0
LWPOLYLINE
  5
1b6
100
AcDbEntity
  8
Ebene_1
 62
7
100
AcDbPolyline
 90
3
 70
0
 10
79.805750
 20
228.640340
 30
0.0
 10
79.725550
 20
228.184730
 30
0.0
 10
79.658350
 20
228.539130
 30
0.0
  0
LWPOLYLINE
  5
1b7
100
AcDbEntity
  8
Ebene_1
 62
7
100
AcDbPolyline
 90
1
 70
1
 10
130.005750
 20
321.555040
 30
0.0
  0
SPLINE
  5
1b8
100
AcDbEntity
  8
Ebene_1
 62
7
100
AcDbSpline
 70
8
 71
3
 72
8
 73
4
 74
0
 40
0
 40
0
 40
0
 40
0
 40
1
 40
1
 40
1
 40
1
 10
269.500000
 20
370.000000
 30
0.0
 10
280.580000
 20
370.000000
 30
0.0
 10
289.500000
 20
361.080000
 30
0.0
 10
289.500000
 20
350.000000
 30
0.0
  0
LWPOLYLINE
  5
1b9
100
AcDbEntity
  8
Ebene_1
 62
7
100
AcDbPolyline
 90
2
 70
0
 10
30.500000
 20
370.000000
 30
0.0
 10
269.500000
 20
370.000000
 30
0.0
  0
SPLINE
  5
1ba
100
AcDbEntity
  8
Ebene_1
 62
7
100
AcDbSpline
 70
8
 71
3
 72
8
 73
4
 74
0
 40
0
 40
0
 40
0
 40
0
 40
1
 40
1
 40
1
 40
1
 10
289.500000
 20
216.000000
 30
0.0
 10
289.500000
 20
204.920000
 30
0.0
 10
280.580000
 20
196.000000
 30
0.0
 10
269.500000
 20
196.000000
 30
0.0
  0
LWPOLYLINE
  5
1bb
100
AcDbEntity
  8
Ebene_1
 62
7
100
AcDbPolyline
 90
2
 70
0
 10
289.500000
 20
350.000000
 30
0.0
 10
289.500000
 20
216.000000
 30
0.0
  0
SPLINE
  5
1bc
100
AcDbEntity
  8
Ebene_1
 62
7
100
AcDbSpline
 70
8
 71
3
 72
8
 73
4
 74
0
 40
0
 40
0
 40
0
 40
0
 40
1
 40
1
 40
1
 40
1
 10
30.500000
 20
196.000000
 30
0.0
 10
19.420000
 20
196.000000
 30
0.0
 10
10.500000
 20
204.920000
 30
0.0
 10
10.500000
 20
216.000000
 30
0.0
  0
LWPOLYLINE
  5
1bd
100
AcDbEntity
  8
Ebene_1
 62
7
100
AcDbPolyline
 90
2
 70
0
 10
269.500000
 20
196.000000
 30
0.0
 10
30.500000
 20
196.000000
 30
0.0
  0
SPLINE
  5
1be
100
AcDbEntity
  8
Ebene_1
 62
7
100
AcDbSpline
 70
8
 71
3
 72
8
 73
4
 74
0
 40
0
 40
0
 40
0
 40
0
 40
1
 40
1
 40
1
 40
1
 10
10.500000
 20
350.000000
 30
0.0
 10
10.500000
 20
361.080000
 30
0.0
 10
19.420000
 20
370.000000
 30
0.0
 10
30.500000
 20
370.000000
 30
0.0
  0
LWPOLYLINE
  5
1bf
100
AcDbEntity
  8
Ebene_1
 62
7
100
AcDbPolyline
 90
2
 70
0
 10
10.500000
 20
216.000000
 30
0.0
 10
10.500000
 20
350.000000
 30
0.0
  0
LWPOLYLINE
  5
1c0
100
AcDbEntity
  8
Ebene_1
 62
7
100
AcDbPolyline
 90
1
 70
1
 10
30.500000
 20
370.000000
 30
0.0
  0
LWPOLYLINE
  5
1c1
100
AcDbEntity
  8
Ebene_1
 62
7
100
AcDbPolyline
 90
12
 70
1
 10
157.281910
 20
286.857500
 30
0.0
 10
157.281910
 20
290.380720
 30
0.0
 10
147.509490
 20
290.380720
 30
0.0
 10
147.509490
 20
294.161100
 30
0.0
 10
155.996070
 20
294.161100
 30
0.0
 10
155.996070
 20
297.684320
 30
0.0
 10
147.509490
 20
297.684320
 30
0.0
 10
147.509490
 20
301.336120
 30
0.0
 10
157.153330
 20
301.336120
 30
0.0
 10
157.153330
 20
304.859330
 30
0.0
 10
143.574810
 20
304.859330
 30
0.0
 10
143.574810
 20
286.857500
 30
0.0
  0
LWPOLYLINE
  5
1c2
100
AcDbEntity
  8
Ebene_1
 62
7
100
AcDbPolyline
 90
6
 70
1
 10
173.738720
 20
286.857500
 30
0.0
 10
173.738720
 20
290.457870
 30
0.0
 10
164.763520
 20
290.457870
 30
0.0
 10
164.763520
 20
304.859330
 30
0.0
 10
160.803120
 20
304.859330
 30
0.0
 10
160.803120
 20
286.857500
 30
0.0
  0
LWPOLYLINE
  5
1c3
100
AcDbEntity
  8
Ebene_1
 62
7
100
AcDbPolyline
 90
12
 70
1
 10
190.432610
 20
286.857500
 30
0.0
 10
190.432610
 20
290.380720
 30
0.0
 10
180.660180
 20
290.380720
 30
0.0
 10
180.660180
 20
294.161100
 30
0.0
 10
189.146760
 20
294.161100
 30
0.0
 10
189.146760
 20
297.684320
 30
0.0
 10
180.660180
 20
297.684320
 30
0.0
 10
180.660180
 20
301.336120
 30
0.0
 10
190.304020
 20
301.336120
 30
0.0
 10
190.304020
 20
304.859330
 30
0.0
 10
176.725500
 20
304.859330
 30
0.0
 10
176.725500
 20
286.857500
 30
0.0
  0
SPLINE
  5
1c4
100
AcDbEntity
  8
Ebene_1
 62
7
100
AcDbSpline
 70
8
 71
3
 72
8
 73
4
 74
0
 40
0
 40
0
 40
0
 40
0
 40
1
 40
1
 40
1
 40
1
 10
207.249450
 20
292.309480
 30
0.0
 10
205.835020
 20
291.023640
 30
0.0
 10
204.574890
 20
290.200700
 30
0.0
 10
202.517540
 20
290.200700
 30
0.0
  0
SPLINE
  5
1c5
100
AcDbEntity
  8
Ebene_1
 62
7
100
AcDbSpline
 70
8
 71
3
 72
8
 73
4
 74
0
 40
0
 40
0
 40
0
 40
0
 40
1
 40
1
 40
1
 40
1
 10
202.517540
 20
290.200700
 30
0.0
 10
199.431510
 20
290.200700
 30
0.0
 10
197.297010
 20
292.772390
 30
0.0
 10
197.297010
 20
295.858420
 30
0.0
  0
LWPOLYLINE
  5
1c6
100
AcDbEntity
  8
Ebene_1
 62
7
100
AcDbPolyline
 90
2
 70
0
 10
209.769710
 20
289.763510
 30
0.0
 10
207.249450
 20
292.309480
 30
0.0
  0
SPLINE
  5
1c7
100
AcDbEntity
  8
Ebene_1
 62
7
100
AcDbSpline
 70
8
 71
3
 72
8
 73
4
 74
0
 40
0
 40
0
 40
0
 40
0
 40
1
 40
1
 40
1
 40
1
 10
197.297010
 20
295.909820
 30
0.0
 10
197.297010
 20
298.995850
 30
0.0
 10
199.482950
 20
301.516100
 30
0.0
 10
202.517540
 20
301.516100
 30
0.0
  0
SPLINE
  5
1c8
100
AcDbEntity
  8
Ebene_1
 62
7
100
AcDbSpline
 70
8
 71
3
 72
8
 73
4
 74
0
 40
0
 40
0
 40
0
 40
0
 40
1
 40
1
 40
1
 40
1
 10
202.517540
 20
301.516100
 30
0.0
 10
204.317720
 20
301.516100
 30
0.0
 10
205.732150
 20
300.744600
 30
0.0
 10
207.120870
 20
299.484470
 30
0.0
  0
LWPOLYLINE
  5
1c9
100
AcDbEntity
  8
Ebene_1
 62
7
100
AcDbPolyline
 90
2
 70
0
 10
197.297010
 20
295.858420
 30
0.0
 10
197.297010
 20
295.909820
 30
0.0
  0
SPLINE
  5
1ca
100
AcDbEntity
  8
Ebene_1
 62
7
100
AcDbSpline
 70
8
 71
3
 72
8
 73
4
 74
0
 40
0
 40
0
 40
0
 40
0
 40
1
 40
1
 40
1
 40
1
 10
209.641120
 20
302.390480
 30
0.0
 10
207.969520
 20
304.036360
 30
0.0
 10
205.937890
 20
305.167900
 30
0.0
 10
202.543260
 20
305.167900
 30
0.0
  0
SPLINE
  5
1cb
100
AcDbEntity
  8
Ebene_1
 62
7
100
AcDbSpline
 70
8
 71
3
 72
8
 73
4
 74
0
 40
0
 40
0
 40
0
 40
0
 40
1
 40
1
 40
1
 40
1
 10
202.543260
 20
305.167900
 30
0.0
 10
197.014120
 20
305.167900
 30
0.0
 10
193.156590
 20
300.976050
 30
0.0
 10
193.156590
 20
295.858390
 30
0.0
  0
LWPOLYLINE
  5
1cc
100
AcDbEntity
  8
Ebene_1
 62
7
100
AcDbPolyline
 90
2
 70
0
 10
207.120870
 20
299.484470
 30
0.0
 10
209.641120
 20
302.390480
 30
0.0
  0
SPLINE
  5
1cd
100
AcDbEntity
  8
Ebene_1
 62
7
100
AcDbSpline
 70
8
 71
3
 72
8
 73
4
 74
0
 40
0
 40
0
 40
0
 40
0
 40
1
 40
1
 40
1
 40
1
 10
193.156590
 20
295.806990
 30
0.0
 10
193.156590
 20
290.637890
 30
0.0
 10
197.091270
 20
286.548910
 30
0.0
 10
202.388960
 20
286.548910
 30
0.0
  0
SPLINE
  5
1ce
100
AcDbEntity
  8
Ebene_1
 62
7
100
AcDbSpline
 70
8
 71
3
 72
8
 73
4
 74
0
 40
0
 40
0
 40
0
 40
0
 40
1
 40
1
 40
1
 40
1
 10
202.388960
 20
286.548910
 30
0.0
 10
205.860740
 20
286.548910
 30
0.0
 10
207.918090
 20
287.783320
 30
0.0
 10
209.769710
 20
289.763520
 30
0.0
  0
LWPOLYLINE
  5
1cf
100
AcDbEntity
  8
Ebene_1
 62
7
100
AcDbPolyline
 90
2
 70
0
 10
193.156590
 20
295.858390
 30
0.0
 10
193.156590
 20
295.806990
 30
0.0
  0
LWPOLYLINE
  5
1d0
100
AcDbEntity
  8
Ebene_1
 62
7
100
AcDbPolyline
 90
1
 70
1
 10
209.769710
 20
289.763520
 30
0.0
  0
LWPOLYLINE
  5
1d1
100
AcDbEntity
  8
Ebene_1
 62
7
100
AcDbPolyline
 90
8
 70
1
 10
226.570070
 20
301.207530
 30
0.0
 10
226.570070
 20
304.859330
 30
0.0
 10
211.654270
 20
304.859330
 30
0.0
 10
211.654270
 20
301.207530
 30
0.0
 10
217.131970
 20
301.207530
 30
0.0
 10
217.131970
 20
286.857500
 30
0.0
 10
221.092370
 20
286.857500
 30
0.0
 10
221.092370
 20
301.207530
 30
0.0
  0
SPLINE
  5
1d2
100
AcDbEntity
  8
Ebene_1
 62
7
100
AcDbSpline
 70
8
 71
3
 72
8
 73
4
 74
0
 40
0
 40
0
 40
0
 40
0
 40
1
 40
1
 40
1
 40
1
 10
240.777060
 20
293.286730
 30
0.0
 10
243.065860
 20
294.135380
 30
0.0
 10
244.634590
 20
295.961280
 30
0.0
 10
244.634590
 20
298.867290
 30
0.0
  0
LWPOLYLINE
  5
1d3
100
AcDbEntity
  8
Ebene_1
 62
7
100
AcDbPolyline
 90
2
 70
0
 10
245.174650
 20
286.857500
 30
0.0
 10
240.777060
 20
293.286730
 30
0.0
  0
SPLINE
  5
1d4
100
AcDbEntity
  8
Ebene_1
 62
7
100
AcDbSpline
 70
8
 71
3
 72
8
 73
4
 74
0
 40
0
 40
0
 40
0
 40
0
 40
1
 40
1
 40
1
 40
1
 10
244.634590
 20
298.918690
 30
0.0
 10
244.634590
 20
302.621920
 30
0.0
 10
242.088620
 20
304.859290
 30
0.0
 10
237.845330
 20
304.859290
 30
0.0
  0
LWPOLYLINE
  5
1d5
100
AcDbEntity
  8
Ebene_1
 62
7
100
AcDbPolyline
 90
2
 70
0
 10
244.634590
 20
298.867290
 30
0.0
 10
244.634590
 20
298.918690
 30
0.0
  0
SPLINE
  5
1d6
100
AcDbEntity
  8
Ebene_1
 62
7
100
AcDbSpline
 70
8
 71
3
 72
8
 73
4
 74
0
 40
0
 40
0
 40
0
 40
0
 40
1
 40
1
 40
1
 40
1
 10
240.622750
 20
298.661560
 30
0.0
 10
240.622750
 20
297.144260
 30
0.0
 10
239.516930
 20
296.115580
 30
0.0
 10
237.588160
 20
296.115580
 30
0.0
  0
LWPOLYLINE
  5
1d7
100
AcDbEntity
  8
Ebene_1
 62
7
100
AcDbPolyline
 90
8
 70
0
 10
237.845330
 20
304.859290
 30
0.0
 10
229.615920
 20
304.859290
 30
0.0
 10
229.615920
 20
286.857460
 30
0.0
 10
233.576320
 20
286.857460
 30
0.0
 10
233.576320
 20
292.618050
 30
0.0
 10
236.688070
 20
292.618050
 30
0.0
 10
240.545600
 20
286.857460
 30
0.0
 10
245.174650
 20
286.857500
 30
0.0
  0
SPLINE
  5
1d8
100
AcDbEntity
  8
Ebene_1
 62
7
100
AcDbSpline
 70
8
 71
3
 72
8
 73
4
 74
0
 40
0
 40
0
 40
0
 40
0
 40
1
 40
1
 40
1
 40
1
 10
237.511010
 20
301.284680
 30
0.0
 10
239.439780
 20
301.284680
 30
0.0
 10
240.622750
 20
300.410310
 30
0.0
 10
240.622750
 20
298.712990
 30
0.0
  0
LWPOLYLINE
  5
1d9
100
AcDbEntity
  8
Ebene_1
 62
7
100
AcDbPolyline
 90
4
 70
0
 10
237.588160
 20
296.115580
 30
0.0
 10
233.576320
 20
296.115580
 30
0.0
 10
233.576320
 20
301.284680
 30
0.0
 10
237.511010
 20
301.284680
 30
0.0
  0
LWPOLYLINE
  5
1da
100
AcDbEntity
  8
Ebene_1
 62
7
100
AcDbPolyline
 90
2
 70
0
 10
240.622750
 20
298.712990
 30
0.0
 10
240.622750
 20
298.661560
 30
0.0
  0
LWPOLYLINE
  5
1db
100
AcDbEntity
  8
Ebene_1
 62
7
100
AcDbPolyline
 90
4
 70
1
 10
252.340820
 20
286.857500
 30
0.0
 10
252.340820
 20
304.859330
 30
0.0
 10
248.380410
 20
304.859330
 30
0.0
 10
248.380410
 20
286.857500
 30
0.0
  0
SPLINE
  5
1dc
100
AcDbEntity
  8
Ebene_1
 62
7
100
AcDbSpline
 70
8
 71
3
 72
8
 73
4
 74
0
 40
0
 40
0
 40
0
 40
0
 40
1
 40
1
 40
1
 40
1
 10
270.135310
 20
292.309480
 30
0.0
 10
268.720880
 20
291.023640
 30
0.0
 10
267.460750
 20
290.200700
 30
0.0
 10
265.403400
 20
290.200700
 30
0.0
  0
SPLINE
  5
1dd
100
AcDbEntity
  8
Ebene_1
 62
7
100
AcDbSpline
 70
8
 71
3
 72
8
 73
4
 74
0
 40
0
 40
0
 40
0
 40
0
 40
1
 40
1
 40
1
 40
1
 10
265.403400
 20
290.200700
 30
0.0
 10
262.317370
 20
290.200700
 30
0.0
 10
260.182870
 20
292.772390
 30
0.0
 10
260.182870
 20
295.858420
 30
0.0
  0
LWPOLYLINE
  5
1de
100
AcDbEntity
  8
Ebene_1
 62
7
100
AcDbPolyline
 90
2
 70
0
 10
272.655560
 20
289.763510
 30
0.0
 10
270.135310
 20
292.309480
 30
0.0
  0
SPLINE
  5
1df
100
AcDbEntity
  8
Ebene_1
 62
7
100
AcDbSpline
 70
8
 71
3
 72
8
 73
4
 74
0
 40
0
 40
0
 40
0
 40
0
 40
1
 40
1
 40
1
 40
1
 10
260.182870
 20
295.909820
 30
0.0
 10
260.182870
 20
298.995850
 30
0.0
 10
262.368800
 20
301.516100
 30
0.0
 10
265.403400
 20
301.516100
 30
0.0
  0
SPLINE
  5
1e0
100
AcDbEntity
  8
Ebene_1
 62
7
100
AcDbSpline
 70
8
 71
3
 72
8
 73
4
 74
0
 40
0
 40
0
 40
0
 40
0
 40
1
 40
1
 40
1
 40
1
 10
265.403400
 20
301.516100
 30
0.0
 10
267.203580
 20
301.516100
 30
0.0
 10
268.618010
 20
300.744600
 30
0.0
 10
270.006720
 20
299.484470
 30
0.0
  0
LWPOLYLINE
  5
1e1
100
AcDbEntity
  8
Ebene_1
 62
7
100
AcDbPolyline
 90
2
 70
0
 10
260.182870
 20
295.858420
 30
0.0
 10
260.182870
 20
295.909820
 30
0.0
  0
SPLINE
  5
1e2
100
AcDbEntity
  8
Ebene_1
 62
7
100
AcDbSpline
 70
8
 71
3
 72
8
 73
4
 74
0
 40
0
 40
0
 40
0
 40
0
 40
1
 40
1
 40
1
 40
1
 10
272.526980
 20
302.390480
 30
0.0
 10
270.855380
 20
304.036360
 30
0.0
 10
268.823740
 20
305.167900
 30
0.0
 10
265.429110
 20
305.167900
 30
0.0
  0
SPLINE
  5
1e3
100
AcDbEntity
  8
Ebene_1
 62
7
100
AcDbSpline
 70
8
 71
3
 72
8
 73
4
 74
0
 40
0
 40
0
 40
0
 40
0
 40
1
 40
1
 40
1
 40
1
 10
265.429110
 20
305.167900
 30
0.0
 10
259.899980
 20
305.167900
 30
0.0
 10
256.042450
 20
300.976050
 30
0.0
 10
256.042450
 20
295.858390
 30
0.0
  0
LWPOLYLINE
  5
1e4
100
AcDbEntity
  8
Ebene_1
 62
7
100
AcDbPolyline
 90
2
 70
0
 10
270.006720
 20
299.484470
 30
0.0
 10
272.526980
 20
302.390480
 30
0.0
  0
SPLINE
  5
1e5
100
AcDbEntity
  8
Ebene_1
 62
7
100
AcDbSpline
 70
8
 71
3
 72
8
 73
4
 74
0
 40
0
 40
0
 40
0
 40
0
 40
1
 40
1
 40
1
 40
1
 10
256.042450
 20
295.806990
 30
0.0
 10
256.042450
 20
290.637890
 30
0.0
 10
259.977130
 20
286.548910
 30
0.0
 10
265.274810
 20
286.548910
 30
0.0
  0
SPLINE
  5
1e6
100
AcDbEntity
  8
Ebene_1
 62
7
100
AcDbSpline
 70
8
 71
3
 72
8
 73
4
 74
0
 40
0
 40
0
 40
0
 40
0
 40
1
 40
1
 40
1
 40
1
 10
265.274810
 20
286.548910
 30
0.0
 10
268.746590
 20
286.548910
 30
0.0
 10
270.803950
 20
287.783320
 30
0.0
 10
272.655560
 20
289.763520
 30
0.0
  0
LWPOLYLINE
  5
1e7
100
AcDbEntity
  8
Ebene_1
 62
7
100
AcDbPolyline
 90
2
 70
0
 10
256.042450
 20
295.858390
 30
0.0
 10
256.042450
 20
295.806990
 30
0.0
  0
LWPOLYLINE
  5
1e8
100
AcDbEntity
  8
Ebene_1
 62
7
100
AcDbPolyline
 90
1
 70
1
 10
272.655560
 20
289.763520
 30
0.0
  0
LWPOLYLINE
  5
1e9
100
AcDbEntity
  8
Ebene_1
 62
7
100
AcDbPolyline
 90
7
 70
1
 10
159.557660
 20
279.142430
 30
0.0
 10
155.288650
 20
279.142430
 30
0.0
 10
150.582460
 20
266.464000
 30
0.0
 10
145.876270
 20
279.142430
 30
0.0
 10
141.504400
 20
279.142430
 30
0.0
 10
148.782280
 20
261.012020
 30
0.0
 10
152.279780
 20
261.012020
 30
0.0
  0
LWPOLYLINE
  5
1ea
100
AcDbEntity
  8
Ebene_1
 62
7
100
AcDbPolyline
 90
12
 70
1
 10
176.042190
 20
261.140600
 30
0.0
 10
176.042190
 20
264.663820
 30
0.0
 10
166.269770
 20
264.663820
 30
0.0
 10
166.269770
 20
268.444200
 30
0.0
 10
174.756350
 20
268.444200
 30
0.0
 10
174.756350
 20
271.967420
 30
0.0
 10
166.269770
 20
271.967420
 30
0.0
 10
166.269770
 20
275.619220
 30
0.0
 10
175.913610
 20
275.619220
 30
0.0
 10
175.913610
 20
279.142430
 30
0.0
 10
162.335080
 20
279.142430
 30
0.0
 10
162.335080
 20
261.140600
 30
0.0
  0
LWPOLYLINE
  5
1eb
100
AcDbEntity
  8
Ebene_1
 62
7
100
AcDbPolyline
 90
12
 70
1
 10
194.787800
 20
261.140600
 30
0.0
 10
194.787800
 20
279.142430
 30
0.0
 10
190.827400
 20
279.142430
 30
0.0
 10
190.827400
 20
272.018850
 30
0.0
 10
183.523800
 20
272.018850
 30
0.0
 10
183.523800
 20
279.142430
 30
0.0
 10
179.563400
 20
279.142430
 30
0.0
 10
179.563400
 20
261.140600
 30
0.0
 10
183.523800
 20
261.140600
 30
0.0
 10
183.523800
 20
268.367050
 30
0.0
 10
190.827400
 20
268.367050
 30
0.0
 10
190.827400
 20
261.140600
 30
0.0
  0
LWPOLYLINE
  5
1ec
100
AcDbEntity
  8
Ebene_1
 62
7
100
AcDbPolyline
 90
4
 70
1
 10
203.242630
 20
261.140600
 30
0.0
 10
203.242630
 20
279.142430
 30
0.0
 10
199.282230
 20
279.142430
 30
0.0
 10
199.282230
 20
261.140600
 30
0.0
  0
SPLINE
  5
1ed
100
AcDbEntity
  8
Ebene_1
 62
7
100
AcDbSpline
 70
8
 71
3
 72
8
 73
4
 74
0
 40
0
 40
0
 40
0
 40
0
 40
1
 40
1
 40
1
 40
1
 10
221.037120
 20
266.592580
 30
0.0
 10
219.622690
 20
265.306740
 30
0.0
 10
218.362570
 20
264.483800
 30
0.0
 10
216.305210
 20
264.483800
 30
0.0
  0
SPLINE
  5
1ee
100
AcDbEntity
  8
Ebene_1
 62
7
100
AcDbSpline
 70
8
 71
3
 72
8
 73
4
 74
0
 40
0
 40
0
 40
0
 40
0
 40
1
 40
1
 40
1
 40
1
 10
216.305210
 20
264.483800
 30
0.0
 10
213.219190
 20
264.483800
 30
0.0
 10
211.084680
 20
267.055490
 30
0.0
 10
211.084680
 20
270.141520
 30
0.0
  0
LWPOLYLINE
  5
1ef
100
AcDbEntity
  8
Ebene_1
 62
7
100
AcDbPolyline
 90
2
 70
0
 10
223.557380
 20
264.046610
 30
0.0
 10
221.037120
 20
266.592580
 30
0.0
  0
SPLINE
  5
1f0
100
AcDbEntity
  8
Ebene_1
 62
7
100
AcDbSpline
 70
8
 71
3
 72
8
 73
4
 74
0
 40
0
 40
0
 40
0
 40
0
 40
1
 40
1
 40
1
 40
1
 10
211.084680
 20
270.192920
 30
0.0
 10
211.084680
 20
273.278950
 30
0.0
 10
213.270620
 20
275.799200
 30
0.0
 10
216.305210
 20
275.799200
 30
0.0
  0
SPLINE
  5
1f1
100
AcDbEntity
  8
Ebene_1
 62
7
100
AcDbSpline
 70
8
 71
3
 72
8
 73
4
 74
0
 40
0
 40
0
 40
0
 40
0
 40
1
 40
1
 40
1
 40
1
 10
216.305210
 20
275.799200
 30
0.0
 10
218.105400
 20
275.799200
 30
0.0
 10
219.519830
 20
275.027700
 30
0.0
 10
220.908540
 20
273.767570
 30
0.0
  0
LWPOLYLINE
  5
1f2
100
AcDbEntity
  8
Ebene_1
 62
7
100
AcDbPolyline
 90
2
 70
0
 10
211.084680
 20
270.141520
 30
0.0
 10
211.084680
 20
270.192920
 30
0.0
  0
SPLINE
  5
1f3
100
AcDbEntity
  8
Ebene_1
 62
7
100
AcDbSpline
 70
8
 71
3
 72
8
 73
4
 74
0
 40
0
 40
0
 40
0
 40
0
 40
1
 40
1
 40
1
 40
1
 10
223.428800
 20
276.673580
 30
0.0
 10
221.757200
 20
278.319460
 30
0.0
 10
219.725560
 20
279.451000
 30
0.0
 10
216.330930
 20
279.451000
 30
0.0
  0
SPLINE
  5
1f4
100
AcDbEntity
  8
Ebene_1
 62
7
100
AcDbSpline
 70
8
 71
3
 72
8
 73
4
 74
0
 40
0
 40
0
 40
0
 40
0
 40
1
 40
1
 40
1
 40
1
 10
216.330930
 20
279.451000
 30
0.0
 10
210.801800
 20
279.451000
 30
0.0
 10
206.944260
 20
275.259150
 30
0.0
 10
206.944260
 20
270.141490
 30
0.0
  0
LWPOLYLINE
  5
1f5
100
AcDbEntity
  8
Ebene_1
 62
7
100
AcDbPolyline
 90
2
 70
0
 10
220.908540
 20
273.767570
 30
0.0
 10
223.428800
 20
276.673580
 30
0.0
  0
SPLINE
  5
1f6
100
AcDbEntity
  8
Ebene_1
 62
7
100
AcDbSpline
 70
8
 71
3
 72
8
 73
4
 74
0
 40
0
 40
0
 40
0
 40
0
 40
1
 40
1
 40
1
 40
1
 10
206.944260
 20
270.090090
 30
0.0
 10
206.944260
 20
264.920990
 30
0.0
 10
210.878950
 20
260.832010
 30
0.0
 10
216.176630
 20
260.832010
 30
0.0
  0
SPLINE
  5
1f7
100
AcDbEntity
  8
Ebene_1
 62
7
100
AcDbSpline
 70
8
 71
3
 72
8
 73
4
 74
0
 40
0
 40
0
 40
0
 40
0
 40
1
 40
1
 40
1
 40
1
 10
216.176630
 20
260.832010
 30
0.0
 10
219.648410
 20
260.832010
 30
0.0
 10
221.705760
 20
262.066420
 30
0.0
 10
223.557380
 20
264.046620
 30
0.0
  0
LWPOLYLINE
  5
1f8
100
AcDbEntity
  8
Ebene_1
 62
7
100
AcDbPolyline
 90
2
 70
0
 10
206.944260
 20
270.141490
 30
0.0
 10
206.944260
 20
270.090090
 30
0.0
  0
LWPOLYLINE
  5
1f9
100
AcDbEntity
  8
Ebene_1
 62
7
100
AcDbPolyline
 90
1
 70
1
 10
223.557380
 20
264.046620
 30
0.0
  0
LWPOLYLINE
  5
1fa
100
AcDbEntity
  8
Ebene_1
 62
7
100
AcDbPolyline
 90
6
 70
1
 10
239.663390
 20
261.140600
 30
0.0
 10
239.663390
 20
264.740970
 30
0.0
 10
230.688190
 20
264.740970
 30
0.0
 10
230.688190
 20
279.142430
 30
0.0
 10
226.727790
 20
279.142430
 30
0.0
 10
226.727790
 20
261.140600
 30
0.0
  0
LWPOLYLINE
  5
1fb
100
AcDbEntity
  8
Ebene_1
 62
7
100
AcDbPolyline
 90
12
 70
1
 10
256.357280
 20
261.140600
 30
0.0
 10
256.357280
 20
264.663820
 30
0.0
 10
246.584860
 20
264.663820
 30
0.0
 10
246.584860
 20
268.444200
 30
0.0
 10
255.071430
 20
268.444200
 30
0.0
 10
255.071430
 20
271.967420
 30
0.0
 10
246.584860
 20
271.967420
 30
0.0
 10
246.584860
 20
275.619220
 30
0.0
 10
256.228690
 20
275.619220
 30
0.0
 10
256.228690
 20
279.142430
 30
0.0
 10
242.650170
 20
279.142430
 30
0.0
 10
242.650170
 20
261.140600
 30
0.0
  0
SPLINE
  5
1fc
100
AcDbEntity
  8
Ebene_1
 62
7
100
AcDbSpline
 70
8
 71
3
 72
8
 73
4
 74
0
 40
0
 40
0
 40
0
 40
0
 40
1
 40
1
 40
1
 40
1
 10
272.891230
 20
266.515400
 30
0.0
 10
272.891230
 20
269.652860
 30
0.0
 10
270.833880
 20
270.964430
 30
0.0
 10
267.182080
 20
271.915950
 30
0.0
  0
SPLINE
  5
1fd
100
AcDbEntity
  8
Ebene_1
 62
7
100
AcDbSpline
 70
8
 71
3
 72
8
 73
4
 74
0
 40
0
 40
0
 40
0
 40
0
 40
1
 40
1
 40
1
 40
1
 10
267.182080
 20
271.915950
 30
0.0
 10
264.070330
 20
272.713180
 30
0.0
 10
263.298830
 20
273.098930
 30
0.0
 10
263.298830
 20
274.281910
 30
0.0
  0
LWPOLYLINE
  5
1fe
100
AcDbEntity
  8
Ebene_1
 62
7
100
AcDbPolyline
 90
2
 70
0
 10
272.891230
 20
266.464000
 30
0.0
 10
272.891230
 20
266.515400
 30
0.0
  0
SPLINE
  5
1ff
100
AcDbEntity
  8
Ebene_1
 62
7
100
AcDbSpline
 70
8
 71
3
 72
8
 73
4
 74
0
 40
0
 40
0
 40
0
 40
0
 40
1
 40
1
 40
1
 40
1
 10
263.298830
 20
274.333310
 30
0.0
 10
263.298830
 20
275.207680
 30
0.0
 10
264.096050
 20
275.902040
 30
0.0
 10
265.613350
 20
275.902040
 30
0.0
  0
SPLINE
  5
200
100
AcDbEntity
  8
Ebene_1
 62
7
100
AcDbSpline
 70
8
 71
3
 72
8
 73
4
 74
0
 40
0
 40
0
 40
0
 40
0
 40
1
 40
1
 40
1
 40
1
 10
265.613350
 20
275.902040
 30
0.0
 10
267.130650
 20
275.902040
 30
0.0
 10
268.699380
 20
275.233400
 30
0.0
 10
270.293820
 20
274.127580
 30
0.0
  0
LWPOLYLINE
  5
201
100
AcDbEntity
  8
Ebene_1
 62
7
100
AcDbPolyline
 90
2
 70
0
 10
263.298830
 20
274.281910
 30
0.0
 10
263.298830
 20
274.333310
 30
0.0
  0
SPLINE
  5
202
100
AcDbEntity
  8
Ebene_1
 62
7
100
AcDbSpline
 70
8
 71
3
 72
8
 73
4
 74
0
 40
0
 40
0
 40
0
 40
0
 40
1
 40
1
 40
1
 40
1
 10
272.351180
 20
277.110740
 30
0.0
 10
270.525280
 20
278.576600
 30
0.0
 10
268.287910
 20
279.399540
 30
0.0
 10
265.664780
 20
279.399540
 30
0.0
  0
SPLINE
  5
203
100
AcDbEntity
  8
Ebene_1
 62
7
100
AcDbSpline
 70
8
 71
3
 72
8
 73
4
 74
0
 40
0
 40
0
 40
0
 40
0
 40
1
 40
1
 40
1
 40
1
 10
265.664780
 20
279.399540
 30
0.0
 10
261.987270
 20
279.399540
 30
0.0
 10
259.364140
 20
277.239320
 30
0.0
 10
259.364140
 20
273.973270
 30
0.0
  0
LWPOLYLINE
  5
204
100
AcDbEntity
  8
Ebene_1
 62
7
100
AcDbPolyline
 90
2
 70
0
 10
270.293820
 20
274.127580
 30
0.0
 10
272.351180
 20
277.110740
 30
0.0
  0
SPLINE
  5
205
100
AcDbEntity
  8
Ebene_1
 62
7
100
AcDbSpline
 70
8
 71
3
 72
8
 73
4
 74
0
 40
0
 40
0
 40
0
 40
0
 40
1
 40
1
 40
1
 40
1
 10
259.364140
 20
273.921870
 30
0.0
 10
259.364140
 20
270.347220
 30
0.0
 10
261.704380
 20
269.344260
 30
0.0
 10
265.330460
 20
268.418450
 30
0.0
  0
SPLINE
  5
206
100
AcDbEntity
  8
Ebene_1
 62
7
100
AcDbSpline
 70
8
 71
3
 72
8
 73
4
 74
0
 40
0
 40
0
 40
0
 40
0
 40
1
 40
1
 40
1
 40
1
 10
265.330460
 20
268.418450
 30
0.0
 10
268.339340
 20
267.646950
 30
0.0
 10
268.956550
 20
267.132610
 30
0.0
 10
268.956550
 20
266.129650
 30
0.0
  0
LWPOLYLINE
  5
207
100
AcDbEntity
  8
Ebene_1
 62
7
100
AcDbPolyline
 90
2
 70
0
 10
259.364140
 20
273.973270
 30
0.0
 10
259.364140
 20
273.921870
 30
0.0
  0
SPLINE
  5
208
100
AcDbEntity
  8
Ebene_1
 62
7
100
AcDbSpline
 70
8
 71
3
 72
8
 73
4
 74
0
 40
0
 40
0
 40
0
 40
0
 40
1
 40
1
 40
1
 40
1
 10
268.956550
 20
266.078250
 30
0.0
 10
268.956550
 20
265.023850
 30
0.0
 10
267.979300
 20
264.380930
 30
0.0
 10
266.359140
 20
264.380930
 30
0.0
  0
SPLINE
  5
209
100
AcDbEntity
  8
Ebene_1
 62
7
100
AcDbSpline
 70
8
 71
3
 72
8
 73
4
 74
0
 40
0
 40
0
 40
0
 40
0
 40
1
 40
1
 40
1
 40
1
 10
266.359140
 20
264.380930
 30
0.0
 10
264.301790
 20
264.380930
 30
0.0
 10
262.604470
 20
265.229590
 30
0.0
 10
260.984310
 20
266.566870
 30
0.0
  0
LWPOLYLINE
  5
20a
100
AcDbEntity
  8
Ebene_1
 62
7
100
AcDbPolyline
 90
2
 70
0
 10
268.956550
 20
266.129650
 30
0.0
 10
268.956550
 20
266.078250
 30
0.0
  0
SPLINE
  5
20b
100
AcDbEntity
  8
Ebene_1
 62
7
100
AcDbSpline
 70
8
 71
3
 72
8
 73
4
 74
0
 40
0
 40
0
 40
0
 40
0
 40
1
 40
1
 40
1
 40
1
 10
258.644070
 20
263.763720
 30
0.0
 10
260.804290
 20
261.834960
 30
0.0
 10
263.556000
 20
260.883430
 30
0.0
 10
266.281990
 20
260.883430
 30
0.0
  0
SPLINE
  5
20c
100
AcDbEntity
  8
Ebene_1
 62
7
100
AcDbSpline
 70
8
 71
3
 72
8
 73
4
 74
0
 40
0
 40
0
 40
0
 40
0
 40
1
 40
1
 40
1
 40
1
 10
266.281990
 20
260.883430
 30
0.0
 10
270.165240
 20
260.883430
 30
0.0
 10
272.891230
 20
262.889350
 30
0.0
 10
272.891230
 20
266.464000
 30
0.0
  0
LWPOLYLINE
  5
20d
100
AcDbEntity
  8
Ebene_1
 62
7
100
AcDbPolyline
 90
2
 70
0
 10
260.984310
 20
266.566870
 30
0.0
 10
258.644070
 20
263.763720
 30
0.0
  0
SPLINE
  5
20e
100
AcDbEntity
  8
Ebene_1
 62
7
100
AcDbSpline
 70
8
 71
3
 72
8
 73
4
 74
0
 40
0
 40
0
 40
0
 40
0
 40
1
 40
1
 40
1
 40
1
 10
152.500020
 20
349.912500
 30
0.0
 10
152.500020
 20
349.249459
 30
0.0
 10
152.236628
 20
348.613574
 30
0.0
 10
151.767787
 20
348.144733
 30
0.0
  0
SPLINE
  5
20f
100
AcDbEntity
  8
Ebene_1
 62
7
100
AcDbSpline
 70
8
 71
3
 72
8
 73
4
 74
0
 40
0
 40
0
 40
0
 40
0
 40
1
 40
1
 40
1
 40
1
 10
151.767787
 20
348.144733
 30
0.0
 10
151.298946
 20
347.675892
 30
0.0
 10
150.663061
 20
347.412500
 30
0.0
 10
150.000020
 20
347.412500
 30
0.0
  0
SPLINE
  5
210
100
AcDbEntity
  8
Ebene_1
 62
7
100
AcDbSpline
 70
8
 71
3
 72
8
 73
4
 74
0
 40
0
 40
0
 40
0
 40
0
 40
1
 40
1
 40
1
 40
1
 10
150.000020
 20
347.412500
 30
0.0
 10
149.336979
 20
347.412500
 30
0.0
 10
148.701094
 20
347.675892
 30
0.0
 10
148.232253
 20
348.144733
 30
0.0
  0
SPLINE
  5
211
100
AcDbEntity
  8
Ebene_1
 62
7
100
AcDbSpline
 70
8
 71
3
 72
8
 73
4
 74
0
 40
0
 40
0
 40
0
 40
0
 40
1
 40
1
 40
1
 40
1
 10
148.232253
 20
348.144733
 30
0.0
 10
147.763412
 20
348.613574
 30
0.0
 10
147.500020
 20
349.249459
 30
0.0
 10
147.500020
 20
349.912500
 30
0.0
  0
SPLINE
  5
212
100
AcDbEntity
  8
Ebene_1
 62
7
100
AcDbSpline
 70
8
 71
3
 72
8
 73
4
 74
0
 40
0
 40
0
 40
0
 40
0
 40
1
 40
1
 40
1
 40
1
 10
147.500020
 20
349.912500
 30
0.0
 10
147.500020
 20
350.575541
 30
0.0
 10
147.763412
 20
351.211426
 30
0.0
 10
148.232253
 20
351.680267
 30
0.0
  0
SPLINE
  5
213
100
AcDbEntity
  8
Ebene_1
 62
7
100
AcDbSpline
 70
8
 71
3
 72
8
 73
4
 74
0
 40
0
 40
0
 40
0
 40
0
 40
1
 40
1
 40
1
 40
1
 10
148.232253
 20
351.680267
 30
0.0
 10
148.701094
 20
352.149108
 30
0.0
 10
149.336979
 20
352.412500
 30
0.0
 10
150.000020
 20
352.412500
 30
0.0
  0
SPLINE
  5
214
100
AcDbEntity
  8
Ebene_1
 62
7
100
AcDbSpline
 70
8
 71
3
 72
8
 73
4
 74
0
 40
0
 40
0
 40
0
 40
0
 40
1
 40
1
 40
1
 40
1
 10
150.000020
 20
352.412500
 30
0.0
 10
150.663061
 20
352.412500
 30
0.0
 10
151.298946
 20
352.149108
 30
0.0
 10
151.767787
 20
351.680267
 30
0.0
  0
SPLINE
  5
215
100
AcDbEntity
  8
Ebene_1
 62
7
100
AcDbSpline
 70
8
 71
3
 72
8
 73
4
 74
0
 40
0
 40
0
 40
0
 40
0
 40
1
 40
1
 40
1
 40
1
 10
151.767787
 20
351.680267
 30
0.0
 10
152.236628
 20
351.211426
 30
0.0
 10
152.500020
 20
350.575541
 30
0.0
 10
152.500020
 20
349.912500
 30
0.0
  0
SPLINE
  5
216
100
AcDbEntity
  8
Ebene_1
 62
7
100
AcDbSpline
 70
8
 71
3
 72
8
 73
4
 74
0
 40
0
 40
0
 40
0
 40
0
 40
1
 40
1
 40
1
 40
1
 10
152.500020
 20
216.087510
 30
0.0
 10
152.500020
 20
215.424469
 30
0.0
 10
152.236628
 20
214.788584
 30
0.0
 10
151.767787
 20
214.319743
 30
0.0
  0
SPLINE
  5
217
100
AcDbEntity
  8
Ebene_1
 62
7
100
AcDbSpline
 70
8
 71
3
 72
8
 73
4
 74
0
 40
0
 40
0
 40
0
 40
0
 40
1
 40
1
 40
1
 40
1
 10
151.767787
 20
214.319743
 30
0.0
 10
151.298946
 20
213.850902
 30
0.0
 10
150.663061
 20
213.587510
 30
0.0
 10
150.000020
 20
213.587510
 30
0.0
  0
SPLINE
  5
218
100
AcDbEntity
  8
Ebene_1
 62
7
100
AcDbSpline
 70
8
 71
3
 72
8
 73
4
 74
0
 40
0
 40
0
 40
0
 40
0
 40
1
 40
1
 40
1
 40
1
 10
150.000020
 20
213.587510
 30
0.0
 10
149.336979
 20
213.587510
 30
0.0
 10
148.701094
 20
213.850902
 30
0.0
 10
148.232253
 20
214.319743
 30
0.0
  0
SPLINE
  5
219
100
AcDbEntity
  8
Ebene_1
 62
7
100
AcDbSpline
 70
8
 71
3
 72
8
 73
4
 74
0
 40
0
 40
0
 40
0
 40
0
 40
1
 40
1
 40
1
 40
1
 10
148.232253
 20
214.319743
 30
0.0
 10
147.763412
 20
214.788584
 30
0.0
 10
147.500020
 20
215.424469
 30
0.0
 10
147.500020
 20
216.087510
 30
0.0
  0
SPLINE
  5
21a
100
AcDbEntity
  8
Ebene_1
 62
7
100
AcDbSpline
 70
8
 71
3
 72
8
 73
4
 74
0
 40
0
 40
0
 40
0
 40
0
 40
1
 40
1
 40
1
 40
1
 10
147.500020
 20
216.087510
 30
0.0
 10
147.500020
 20
216.750551
 30
0.0
 10
147.763412
 20
217.386436
 30
0.0
 10
148.232253
 20
217.855277
 30
0.0
  0
SPLINE
  5
21b
100
AcDbEntity
  8
Ebene_1
 62
7
100
AcDbSpline
 70
8
 71
3
 72
8
 73
4
 74
0
 40
0
 40
0
 40
0
 40
0
 40
1
 40
1
 40
1
 40
1
 10
148.232253
 20
217.855277
 30
0.0
 10
148.701094
 20
218.324118
 30
0.0
 10
149.336979
 20
218.587510
 30
0.0
 10
150.000020
 20
218.587510
 30
0.0
  0
SPLINE
  5
21c
100
AcDbEntity
  8
Ebene_1
 62
7
100
AcDbSpline
 70
8
 71
3
 72
8
 73
4
 74
0
 40
0
 40
0
 40
0
 40
0
 40
1
 40
1
 40
1
 40
1
 10
150.000020
 20
218.587510
 30
0.0
 10
150.663061
 20
218.587510
 30
0.0
 10
151.298946
 20
218.324118
 30
0.0
 10
151.767787
 20
217.855277
 30
0.0
  0
SPLINE
  5
21d
100
AcDbEntity
  8
Ebene_1
 62
7
100
AcDbSpline
 70
8
 71
3
 72
8
 73
4
 74
0
 40
0
 40
0
 40
0
 40
0
 40
1
 40
1
 40
1
 40
1
 10
151.767787
 20
217.855277
 30
0.0
 10
152.236628
 20
217.386436
 30
0.0
 10
152.500020
 20
216.750551
 30
0.0
 10
152.500020
 20
216.087510
 30
0.0
  0
LWPOLYLINE
  5
21e
100
AcDbEntity
  8
Ebene_1
 62
7
100
AcDbPolyline
 90
1
 70
1
 10
272.891230
 20
266.464000
 30
0.0
  0
ENDSEC
  0
SECTION
  2
OBJECTS
  0
DICTIONARY
  5
C
330
0
100
AcDbDictionary
  3
ACAD_GROUP
350
D
  3
ACAD_MLINESTYLE
350
17
  0
DICTIONARY
  5
D
330
C
100
AcDbDictionary
  0
DICTIONARY
  5
1A
330
C
100
AcDbDictionary
  0
DICTIONARY
  5
17
330
C
100
AcDbDictionary
  3
STANDARD
350
18
  0
DICTIONARY
  5
19
330
C
100
AcDbDictionary
  0
ENDSEC
  0
EOF
