<?xml version="1.0" encoding="UTF-8" standalone="no"?>
<svg
   xmlns:dc="http://purl.org/dc/elements/1.1/"
   xmlns:cc="http://creativecommons.org/ns#"
   xmlns:rdf="http://www.w3.org/1999/02/22-rdf-syntax-ns#"
   xmlns:svg="http://www.w3.org/2000/svg"
   xmlns="http://www.w3.org/2000/svg"
   xmlns:sodipodi="http://sodipodi.sourceforge.net/DTD/sodipodi-0.dtd"
   xmlns:inkscape="http://www.inkscape.org/namespaces/inkscape"
   sodipodi:docname="TeslaElectricVehiclesWeiss2x.svg"
   inkscape:version="1.0 (4035a4fb49, 2020-05-01)"
   id="svg1604"
   version="1.1"
   viewBox="0 0 300 380"
   height="380mm"
   width="300mm">
  <defs
     id="defs1598" />
  <sodipodi:namedview
     inkscape:window-maximized="1"
     inkscape:window-y="-8"
     inkscape:window-x="1912"
     inkscape:window-height="1377"
     inkscape:window-width="3440"
     showgrid="true"
     inkscape:document-rotation="0"
     inkscape:current-layer="layer1"
     inkscape:document-units="mm"
     inkscape:cy="711.54184"
     inkscape:cx="720.60508"
     inkscape:zoom="0.7"
     inkscape:pageshadow="2"
     inkscape:pageopacity="0.0"
     borderopacity="1.0"
     bordercolor="#666666"
     pagecolor="#ffffff"
     id="base">
    <inkscape:grid
       id="grid2187"
       type="xygrid" />
  </sodipodi:namedview>
  <metadata
     id="metadata1601">
    <rdf:RDF>
      <cc:Work
         rdf:about="">
        <dc:format>image/svg+xml</dc:format>
        <dc:type
           rdf:resource="http://purl.org/dc/dcmitype/StillImage" />
        <dc:title></dc:title>
      </cc:Work>
    </rdf:RDF>
  </metadata>
  <g
     id="layer1"
     inkscape:groupmode="layer"
     inkscape:label="Ebene 1">
    <g
       transform="translate(0.192557)"
       id="g2347">
      <path
         style="fill:#cb0000;fill-opacity:1;stroke-width:0.91554"
         d="m 79.465795,336.73103 c -0.177622,-0.93679 -15.461826,-86.26782 -15.461826,-86.3227 0,-0.0779 -4.5143,0.0361 -6.783409,0.17152 -6.752741,0.4027 -10.22586,1.58523 -11.904512,4.05325 -0.61891,0.90994 -0.877284,1.55875 -1.14741,2.88091 -0.109739,0.53723 -0.219549,0.99677 -0.244007,1.02123 -0.0822,0.0822 -2.888504,-1.25122 -4.294539,-2.04059 -4.205507,-2.36105 -7.507158,-5.09476 -9.753198,-8.07549 -0.329983,-0.43791 -0.599951,-0.83205 -0.599951,-0.87585 0,-0.0438 0.17085,-0.15037 0.379656,-0.23678 0.208823,-0.0864 1.108649,-0.47425 1.999597,-0.86186 10.208104,-4.44097 23.477111,-7.54512 35.385118,-8.27799 l 1.063064,-0.0654 5.706078,6.95307 c 3.138334,3.82418 5.740802,6.91475 5.783231,6.86793 0.0424,-0.0467 2.589578,-3.14684 5.660295,-6.88891 3.070743,-3.74207 5.630069,-6.83275 5.687372,-6.86818 0.119589,-0.0739 2.673406,0.0908 4.904153,0.3163 9.407393,0.95092 18.855673,3.12779 27.437383,6.32155 2.02532,0.75375 5.28315,2.09905 6.13282,2.53251 l 0.39694,0.20251 -0.51202,0.70396 c -1.98984,2.73579 -5.10929,5.42429 -8.97242,7.73288 -1.06243,0.63492 -4.57945,2.40016 -5.05899,2.53921 -0.19789,0.0575 -0.22442,0.0143 -0.29025,-0.47205 -0.0399,-0.29435 -0.18379,-0.92123 -0.31985,-1.39305 -1.07144,-3.71553 -4.23717,-5.36538 -11.47336,-5.97947 -1.5756,-0.1337 -8.128439,-0.3053 -8.210772,-0.215 -0.04206,0.0462 -12.692087,71.00874 -15.361801,86.17528 l -0.08019,0.45561 z m 50.347395,-93.01591 c -12.09206,-5.09976 -25.83009,-8.34492 -39.536157,-9.33911 -4.403466,-0.31941 -13.551638,-0.42401 -17.981456,-0.20559 -15.351332,0.7569 -29.474843,3.88541 -43.04837,9.53566 -0.935157,0.38927 -1.758503,0.68543 -1.829668,0.65812 -0.07116,-0.0273 -0.656635,-1.11347 -1.301046,-2.4137 -1.20567,-2.43268 -1.767538,-3.69639 -1.681649,-3.78228 0.0879,-0.0878 3.627776,-1.42518 5.702675,-2.15439 19.451487,-6.83614 40.225155,-9.66904 59.886408,-8.1667 14.705423,1.12367 28.564593,4.22562 42.672293,9.5509 1.05036,0.39648 1.92779,0.73892 1.94984,0.76098 0.11533,0.11532 -2.70554,6.00403 -2.99137,6.24465 -0.0383,0.0323 -0.86703,-0.27756 -1.8415,-0.68854 z"
         id="path2190"
         inkscape:connector-curvature="0"
         sodipodi:nodetypes="csscccccscsscscssssccsscccsccccsssccscsssccs" />
      <path
         id="rect2020-3"
         style="fill:none;fill-opacity:1;stroke:#000000;stroke-width:0.537001;stroke-miterlimit:4;stroke-dasharray:none;stroke-opacity:1"
         d="M 30.307446,195.27016 H 269.30744 c 11.08,0 20,8.92 20,20 v 134 c 0,11.08 -8.92,20 -20,20 H 30.307446 c -11.08,0 -20,-8.92 -20,-20 v -134 c 0,-11.08 8.92,-20 20,-20 z" />
      <g
         aria-label="ELECTRIC
VEHICLES"
         id="text2822-22-5-9-0-3-8"
         style="font-style:normal;font-variant:normal;font-weight:bold;font-stretch:normal;font-size:25.7169px;line-height:1;font-family:Gotham;-inkscape-font-specification:'Gotham Bold';text-align:center;letter-spacing:0px;word-spacing:0px;text-anchor:middle;fill:#000000;fill-opacity:1;stroke:none;stroke-width:0.264073"
         transform="translate(-0.53420671,159.46854)">
        <path
           d="m 157.62356,118.9441 v -3.52322 h -9.77242 v -3.78038 h 8.48658 v -3.52322 h -8.48658 v -3.6518 h 9.64384 v -3.52321 h -13.57852 v 18.00183 z"
           style="font-style:normal;font-variant:normal;font-weight:bold;font-stretch:normal;line-height:1;font-family:Gotham;-inkscape-font-specification:'Gotham Bold';text-align:center;text-anchor:middle;stroke-width:0.264073"
           id="path2191" />
        <path
           d="m 174.08037,118.9441 v -3.60037 h -8.9752 v -14.40146 h -3.9604 v 18.00183 z"
           style="font-style:normal;font-variant:normal;font-weight:bold;font-stretch:normal;line-height:1;font-family:Gotham;-inkscape-font-specification:'Gotham Bold';text-align:center;text-anchor:middle;stroke-width:0.264073"
           id="path2193" />
        <path
           d="m 190.77426,118.9441 v -3.52322 h -9.77243 v -3.78038 h 8.48658 v -3.52322 h -8.48658 v -3.6518 h 9.64384 v -3.52321 h -13.57852 v 18.00183 z"
           style="font-style:normal;font-variant:normal;font-weight:bold;font-stretch:normal;line-height:1;font-family:Gotham;-inkscape-font-specification:'Gotham Bold';text-align:center;text-anchor:middle;stroke-width:0.264073"
           id="path2195" />
        <path
           d="m 210.11136,116.03809 -2.52026,-2.54597 c -1.41443,1.28584 -2.67456,2.10878 -4.73191,2.10878 -3.08603,0 -5.22053,-2.57169 -5.22053,-5.65772 v -0.0514 c 0,-3.08603 2.18594,-5.60628 5.22053,-5.60628 1.80018,0 3.21461,0.7715 4.60333,2.03163 l 2.52025,-2.90601 c -1.6716,-1.64588 -3.70323,-2.77742 -7.09786,-2.77742 -5.52914,0 -9.38667,4.19185 -9.38667,9.30951 v 0.0514 c 0,5.1691 3.93468,9.25808 9.23237,9.25808 3.47178,0 5.52913,-1.23441 7.38075,-3.21461 z"
           style="font-style:normal;font-variant:normal;font-weight:bold;font-stretch:normal;line-height:1;font-family:Gotham;-inkscape-font-specification:'Gotham Bold';text-align:center;text-anchor:middle;stroke-width:0.264073"
           id="path2197" />
        <path
           d="m 226.91172,104.59407 v -3.6518 h -14.9158 v 3.6518 h 5.4777 v 14.35003 h 3.9604 v -14.35003 z"
           style="font-style:normal;font-variant:normal;font-weight:bold;font-stretch:normal;line-height:1;font-family:Gotham;-inkscape-font-specification:'Gotham Bold';text-align:center;text-anchor:middle;stroke-width:0.264073"
           id="path2199" />
        <path
           d="m 245.5163,118.9441 -4.39759,-6.42923 c 2.2888,-0.84865 3.85753,-2.67455 3.85753,-5.58056 v -0.0514 c 0,-3.70323 -2.54597,-5.9406 -6.78926,-5.9406 h -8.22941 v 18.00183 h 3.9604 v -5.76059 h 3.11175 l 3.85753,5.76059 z m -4.5519,-11.80406 c 0,1.5173 -1.10582,2.54598 -3.03459,2.54598 h -4.01184 v -5.1691 h 3.93469 c 1.92877,0 3.11174,0.87437 3.11174,2.57169 z"
           style="font-style:normal;font-variant:normal;font-weight:bold;font-stretch:normal;line-height:1;font-family:Gotham;-inkscape-font-specification:'Gotham Bold';text-align:center;text-anchor:middle;stroke-width:0.264073"
           id="path2201" />
        <path
           d="m 252.68247,118.9441 v -18.00183 h -3.96041 v 18.00183 z"
           style="font-style:normal;font-variant:normal;font-weight:bold;font-stretch:normal;line-height:1;font-family:Gotham;-inkscape-font-specification:'Gotham Bold';text-align:center;text-anchor:middle;stroke-width:0.264073"
           id="path2203" />
        <path
           d="m 272.99721,116.03809 -2.52025,-2.54597 c -1.41443,1.28584 -2.67456,2.10878 -4.73191,2.10878 -3.08603,0 -5.22053,-2.57169 -5.22053,-5.65772 v -0.0514 c 0,-3.08603 2.18593,-5.60628 5.22053,-5.60628 1.80018,0 3.21461,0.7715 4.60332,2.03163 l 2.52026,-2.90601 c -1.6716,-1.64588 -3.70324,-2.77742 -7.09787,-2.77742 -5.52913,0 -9.38666,4.19185 -9.38666,9.30951 v 0.0514 c 0,5.1691 3.93468,9.25808 9.23236,9.25808 3.47178,0 5.52914,-1.23441 7.38075,-3.21461 z"
           style="font-style:normal;font-variant:normal;font-weight:bold;font-stretch:normal;line-height:1;font-family:Gotham;-inkscape-font-specification:'Gotham Bold';text-align:center;text-anchor:middle;stroke-width:0.264073"
           id="path2205" />
        <path
           d="m 159.89931,126.65917 h -4.26901 l -4.70619,12.67843 -4.70619,-12.67843 h -4.37187 l 7.27788,18.13041 h 3.4975 z"
           style="font-style:normal;font-variant:normal;font-weight:bold;font-stretch:normal;line-height:1;font-family:Gotham;-inkscape-font-specification:'Gotham Bold';text-align:center;text-anchor:middle;stroke-width:0.264073"
           id="path2207" />
        <path
           d="m 176.38384,144.661 v -3.52322 h -9.77242 v -3.78038 h 8.48658 v -3.52322 h -8.48658 v -3.6518 h 9.64384 v -3.52321 H 162.67673 V 144.661 Z"
           style="font-style:normal;font-variant:normal;font-weight:bold;font-stretch:normal;line-height:1;font-family:Gotham;-inkscape-font-specification:'Gotham Bold';text-align:center;text-anchor:middle;stroke-width:0.264073"
           id="path2209" />
        <path
           d="m 195.12945,144.661 v -18.00183 h -3.9604 v 7.12358 h -7.3036 v -7.12358 h -3.9604 V 144.661 h 3.9604 v -7.22645 h 7.3036 v 7.22645 z"
           style="font-style:normal;font-variant:normal;font-weight:bold;font-stretch:normal;line-height:1;font-family:Gotham;-inkscape-font-specification:'Gotham Bold';text-align:center;text-anchor:middle;stroke-width:0.264073"
           id="path2211" />
        <path
           d="m 203.58428,144.661 v -18.00183 h -3.9604 V 144.661 Z"
           style="font-style:normal;font-variant:normal;font-weight:bold;font-stretch:normal;line-height:1;font-family:Gotham;-inkscape-font-specification:'Gotham Bold';text-align:center;text-anchor:middle;stroke-width:0.264073"
           id="path2213" />
        <path
           d="m 223.89903,141.75499 -2.52026,-2.54597 c -1.41443,1.28584 -2.67455,2.10878 -4.73191,2.10878 -3.08602,0 -5.22053,-2.57169 -5.22053,-5.65772 v -0.0514 c 0,-3.08603 2.18594,-5.60628 5.22053,-5.60628 1.80019,0 3.21462,0.7715 4.60333,2.03163 l 2.52026,-2.90601 c -1.6716,-1.64588 -3.70324,-2.77742 -7.09787,-2.77742 -5.52913,0 -9.38667,4.19185 -9.38667,9.30951 v 0.0514 c 0,5.1691 3.93469,9.25808 9.23237,9.25808 3.47178,0 5.52913,-1.23441 7.38075,-3.21461 z"
           style="font-style:normal;font-variant:normal;font-weight:bold;font-stretch:normal;line-height:1;font-family:Gotham;-inkscape-font-specification:'Gotham Bold';text-align:center;text-anchor:middle;stroke-width:0.264073"
           id="path2215" />
        <path
           d="m 240.00504,144.661 v -3.60037 h -8.9752 v -14.40146 h -3.9604 V 144.661 Z"
           style="font-style:normal;font-variant:normal;font-weight:bold;font-stretch:normal;line-height:1;font-family:Gotham;-inkscape-font-specification:'Gotham Bold';text-align:center;text-anchor:middle;stroke-width:0.264073"
           id="path2217" />
        <path
           d="m 256.69893,144.661 v -3.52322 h -9.77242 v -3.78038 h 8.48657 v -3.52322 h -8.48657 v -3.6518 h 9.64383 v -3.52321 H 242.99182 V 144.661 Z"
           style="font-style:normal;font-variant:normal;font-weight:bold;font-stretch:normal;line-height:1;font-family:Gotham;-inkscape-font-specification:'Gotham Bold';text-align:center;text-anchor:middle;stroke-width:0.264073"
           id="path2219" />
        <path
           d="m 273.23288,139.3376 v -0.0514 c 0,-3.13746 -2.05735,-4.44903 -5.70915,-5.40055 -3.11175,-0.79723 -3.88325,-1.18298 -3.88325,-2.36596 v -0.0514 c 0,-0.87437 0.79722,-1.56873 2.31452,-1.56873 1.5173,0 3.08603,0.66864 4.68047,1.77446 l 2.05736,-2.98316 c -1.8259,-1.46586 -4.06327,-2.2888 -6.6864,-2.2888 -3.67751,0 -6.30064,2.16022 -6.30064,5.42627 v 0.0514 c 0,3.57465 2.34024,4.57761 5.96632,5.50342 3.00888,0.7715 3.62609,1.28584 3.62609,2.2888 v 0.0514 c 0,1.0544 -0.97725,1.69732 -2.59741,1.69732 -2.05735,0 -3.75467,-0.84866 -5.37483,-2.18594 l -2.34024,2.80315 c 2.16022,1.92876 4.91193,2.88029 7.63792,2.88029 3.88325,0 6.60924,-2.00592 6.60924,-5.58057 z"
           style="font-style:normal;font-variant:normal;font-weight:bold;font-stretch:normal;line-height:1;font-family:Gotham;-inkscape-font-specification:'Gotham Bold';text-align:center;text-anchor:middle;stroke-width:0.264073"
           id="path2221" />
      </g>
      <path
         id="path5025-2"
         style="fill:#f0f1f3;stroke:#000000;stroke-width:0.307001;stroke-miterlimit:4;stroke-dasharray:none"
         d="m 152.30746,215.35766 a 2.5,2.5 0 0 1 -2.5,2.5 2.5,2.5 0 0 1 -2.5,-2.5 2.5,2.5 0 0 1 2.5,-2.5 2.5,2.5 0 0 1 2.5,2.5" />
      <path
         id="path5027-2"
         style="fill:#f0f1f3;stroke:#000000;stroke-width:0.306999;stroke-miterlimit:4;stroke-dasharray:none"
         d="m 152.30746,349.18265 a 2.5,2.5 0 0 1 -2.5,2.5 2.5,2.5 0 0 1 -2.5,-2.5 2.5,2.5 0 0 1 2.5,-2.5 2.5,2.5 0 0 1 2.5,2.5" />
    </g>
    <path
       d="M 0,0 H 300 V 380 H 0 Z"
       style="fill:none;stroke:#000000;stroke-width:0.394277"
       id="rect2189" />
    <g
       transform="translate(0.5)"
       id="g2324">
      <path
         sodipodi:nodetypes="csscccccscsscscssssccsscccsccccsssccscsssccs"
         inkscape:connector-curvature="0"
         id="path2190-5"
         d="m 79.15835,151.46087 c -0.17762,-0.93679 -15.46182,-86.26782 -15.46182,-86.3227 0,-0.0779 -4.5143,0.0361 -6.78341,0.17152 -6.75274,0.4027 -10.22586,1.58523 -11.90452,4.05325 -0.6189,0.90994 -0.87728,1.55875 -1.14741,2.88091 -0.10973,0.53723 -0.21954,0.99677 -0.244,1.02123 -0.0822,0.0822 -2.88851,-1.25122 -4.29454,-2.04059 -4.20551,-2.36105 -7.50716,-5.09476 -9.7532,-8.07549 -0.32998,-0.43791 -0.59995,-0.83205 -0.59995,-0.87585 0,-0.0438 0.17085,-0.15037 0.37966,-0.23678 0.20882,-0.0864 1.10865,-0.47425 1.99959,-0.86186 10.20811,-4.44097 23.47711,-7.54512 35.38512,-8.27799 l 1.06306,-0.0654 5.70608,6.95307 c 3.13834,3.82418 5.7408,6.91475 5.78324,6.86793 0.0424,-0.0467 2.58957,-3.14684 5.66029,-6.88891 3.07074,-3.74207 5.63007,-6.83275 5.68737,-6.86818 0.11959,-0.0739 2.67341,0.0908 4.90416,0.3163 9.40739,0.95092 18.85567,3.12779 27.43738,6.32155 2.02532,0.75375 5.28315,2.09905 6.13282,2.53251 l 0.39694,0.20251 -0.51202,0.70396 c -1.98984,2.73579 -5.10929,5.42429 -8.97242,7.73288 -1.06243,0.63492 -4.57945,2.40016 -5.05899,2.53921 -0.19789,0.0575 -0.22442,0.0143 -0.29025,-0.47205 -0.0399,-0.29435 -0.18379,-0.92123 -0.31985,-1.39305 -1.07144,-3.71553 -4.23717,-5.36538 -11.47336,-5.97947 -1.5756,-0.1337 -8.12844,-0.3053 -8.21077,-0.215 -0.0421,0.0462 -12.69209,71.00874 -15.3618,86.17528 l -0.0802,0.45561 z m 50.3474,-93.01591 C 117.41369,53.3452 103.67566,50.10004 89.96959,49.10585 85.56613,48.78644 76.41795,48.68184 71.98814,48.90026 c -15.35134,0.7569 -29.47485,3.88541 -43.04838,9.53566 -0.93515,0.38927 -1.7585,0.68543 -1.82966,0.65812 -0.0712,-0.0273 -0.65664,-1.11347 -1.30105,-2.4137 -1.20567,-2.43268 -1.76754,-3.69639 -1.68165,-3.78228 0.0879,-0.0878 3.62778,-1.42518 5.70268,-2.15439 19.45148,-6.83614 40.22515,-9.66904 59.88641,-8.1667 14.70542,1.12367 28.56459,4.22562 42.67229,9.5509 1.05036,0.39648 1.92779,0.73892 1.94984,0.76098 0.11533,0.11532 -2.70554,6.00403 -2.99137,6.24465 -0.0383,0.0323 -0.86703,-0.27756 -1.8415,-0.68854 z"
         style="fill:#cb0000;fill-opacity:1;stroke-width:0.91554" />
      <path
         d="m 30,10 h 239 c 11.08,0 20,8.92 20,20 v 134 c 0,11.08 -8.92,20 -20,20 H 30 C 18.92,184 10,175.08 10,164 V 30 C 10,18.92 18.92,10 30,10 Z"
         style="fill:none;fill-opacity:1;stroke:#000000;stroke-width:0.537001;stroke-miterlimit:4;stroke-dasharray:none;stroke-opacity:1"
         id="rect2020-3-1" />
      <g
         transform="translate(-0.84165,-25.80162)"
         style="font-style:normal;font-variant:normal;font-weight:bold;font-stretch:normal;font-size:25.7169px;line-height:1;font-family:Gotham;-inkscape-font-specification:'Gotham Bold';text-align:center;letter-spacing:0px;word-spacing:0px;text-anchor:middle;fill:#000000;fill-opacity:1;stroke:none;stroke-width:0.264073"
         id="text2822-22-5-9-0-3-8-3"
         aria-label="ELECTRIC VEHICLES">
        <path
           id="path2191-8"
           style="font-style:normal;font-variant:normal;font-weight:bold;font-stretch:normal;line-height:1;font-family:Gotham;-inkscape-font-specification:'Gotham Bold';text-align:center;text-anchor:middle;stroke-width:0.264073"
           d="m 157.62356,118.9441 v -3.52322 h -9.77242 v -3.78038 h 8.48658 v -3.52322 h -8.48658 v -3.6518 h 9.64384 v -3.52321 h -13.57852 v 18.00183 z" />
        <path
           id="path2193-8"
           style="font-style:normal;font-variant:normal;font-weight:bold;font-stretch:normal;line-height:1;font-family:Gotham;-inkscape-font-specification:'Gotham Bold';text-align:center;text-anchor:middle;stroke-width:0.264073"
           d="m 174.08037,118.9441 v -3.60037 h -8.9752 v -14.40146 h -3.9604 v 18.00183 z" />
        <path
           id="path2195-0"
           style="font-style:normal;font-variant:normal;font-weight:bold;font-stretch:normal;line-height:1;font-family:Gotham;-inkscape-font-specification:'Gotham Bold';text-align:center;text-anchor:middle;stroke-width:0.264073"
           d="m 190.77426,118.9441 v -3.52322 h -9.77243 v -3.78038 h 8.48658 v -3.52322 h -8.48658 v -3.6518 h 9.64384 v -3.52321 h -13.57852 v 18.00183 z" />
        <path
           id="path2197-7"
           style="font-style:normal;font-variant:normal;font-weight:bold;font-stretch:normal;line-height:1;font-family:Gotham;-inkscape-font-specification:'Gotham Bold';text-align:center;text-anchor:middle;stroke-width:0.264073"
           d="m 210.11136,116.03809 -2.52026,-2.54597 c -1.41443,1.28584 -2.67456,2.10878 -4.73191,2.10878 -3.08603,0 -5.22053,-2.57169 -5.22053,-5.65772 v -0.0514 c 0,-3.08603 2.18594,-5.60628 5.22053,-5.60628 1.80018,0 3.21461,0.7715 4.60333,2.03163 l 2.52025,-2.90601 c -1.6716,-1.64588 -3.70323,-2.77742 -7.09786,-2.77742 -5.52914,0 -9.38667,4.19185 -9.38667,9.30951 v 0.0514 c 0,5.1691 3.93468,9.25808 9.23237,9.25808 3.47178,0 5.52913,-1.23441 7.38075,-3.21461 z" />
        <path
           id="path2199-2"
           style="font-style:normal;font-variant:normal;font-weight:bold;font-stretch:normal;line-height:1;font-family:Gotham;-inkscape-font-specification:'Gotham Bold';text-align:center;text-anchor:middle;stroke-width:0.264073"
           d="m 226.91172,104.59407 v -3.6518 h -14.9158 v 3.6518 h 5.4777 v 14.35003 h 3.9604 v -14.35003 z" />
        <path
           id="path2201-3"
           style="font-style:normal;font-variant:normal;font-weight:bold;font-stretch:normal;line-height:1;font-family:Gotham;-inkscape-font-specification:'Gotham Bold';text-align:center;text-anchor:middle;stroke-width:0.264073"
           d="m 245.5163,118.9441 -4.39759,-6.42923 c 2.2888,-0.84865 3.85753,-2.67455 3.85753,-5.58056 v -0.0514 c 0,-3.70323 -2.54597,-5.9406 -6.78926,-5.9406 h -8.22941 v 18.00183 h 3.9604 v -5.76059 h 3.11175 l 3.85753,5.76059 z m -4.5519,-11.80406 c 0,1.5173 -1.10582,2.54598 -3.03459,2.54598 h -4.01184 v -5.1691 h 3.93469 c 1.92877,0 3.11174,0.87437 3.11174,2.57169 z" />
        <path
           id="path2203-5"
           style="font-style:normal;font-variant:normal;font-weight:bold;font-stretch:normal;line-height:1;font-family:Gotham;-inkscape-font-specification:'Gotham Bold';text-align:center;text-anchor:middle;stroke-width:0.264073"
           d="m 252.68247,118.9441 v -18.00183 h -3.96041 v 18.00183 z" />
        <path
           id="path2205-5"
           style="font-style:normal;font-variant:normal;font-weight:bold;font-stretch:normal;line-height:1;font-family:Gotham;-inkscape-font-specification:'Gotham Bold';text-align:center;text-anchor:middle;stroke-width:0.264073"
           d="m 272.99721,116.03809 -2.52025,-2.54597 c -1.41443,1.28584 -2.67456,2.10878 -4.73191,2.10878 -3.08603,0 -5.22053,-2.57169 -5.22053,-5.65772 v -0.0514 c 0,-3.08603 2.18593,-5.60628 5.22053,-5.60628 1.80018,0 3.21461,0.7715 4.60332,2.03163 l 2.52026,-2.90601 c -1.6716,-1.64588 -3.70324,-2.77742 -7.09787,-2.77742 -5.52913,0 -9.38666,4.19185 -9.38666,9.30951 v 0.0514 c 0,5.1691 3.93468,9.25808 9.23236,9.25808 3.47178,0 5.52914,-1.23441 7.38075,-3.21461 z" />
        <path
           id="path2207-1"
           style="font-style:normal;font-variant:normal;font-weight:bold;font-stretch:normal;line-height:1;font-family:Gotham;-inkscape-font-specification:'Gotham Bold';text-align:center;text-anchor:middle;stroke-width:0.264073"
           d="m 159.89931,126.65917 h -4.26901 l -4.70619,12.67843 -4.70619,-12.67843 h -4.37187 l 7.27788,18.13041 h 3.4975 z" />
        <path
           id="path2209-1"
           style="font-style:normal;font-variant:normal;font-weight:bold;font-stretch:normal;line-height:1;font-family:Gotham;-inkscape-font-specification:'Gotham Bold';text-align:center;text-anchor:middle;stroke-width:0.264073"
           d="m 176.38384,144.661 v -3.52322 h -9.77242 v -3.78038 h 8.48658 v -3.52322 h -8.48658 v -3.6518 h 9.64384 v -3.52321 H 162.67673 V 144.661 Z" />
        <path
           id="path2211-9"
           style="font-style:normal;font-variant:normal;font-weight:bold;font-stretch:normal;line-height:1;font-family:Gotham;-inkscape-font-specification:'Gotham Bold';text-align:center;text-anchor:middle;stroke-width:0.264073"
           d="m 195.12945,144.661 v -18.00183 h -3.9604 v 7.12358 h -7.3036 v -7.12358 h -3.9604 V 144.661 h 3.9604 v -7.22645 h 7.3036 v 7.22645 z" />
        <path
           id="path2213-0"
           style="font-style:normal;font-variant:normal;font-weight:bold;font-stretch:normal;line-height:1;font-family:Gotham;-inkscape-font-specification:'Gotham Bold';text-align:center;text-anchor:middle;stroke-width:0.264073"
           d="m 203.58428,144.661 v -18.00183 h -3.9604 V 144.661 Z" />
        <path
           id="path2215-0"
           style="font-style:normal;font-variant:normal;font-weight:bold;font-stretch:normal;line-height:1;font-family:Gotham;-inkscape-font-specification:'Gotham Bold';text-align:center;text-anchor:middle;stroke-width:0.264073"
           d="m 223.89903,141.75499 -2.52026,-2.54597 c -1.41443,1.28584 -2.67455,2.10878 -4.73191,2.10878 -3.08602,0 -5.22053,-2.57169 -5.22053,-5.65772 v -0.0514 c 0,-3.08603 2.18594,-5.60628 5.22053,-5.60628 1.80019,0 3.21462,0.7715 4.60333,2.03163 l 2.52026,-2.90601 c -1.6716,-1.64588 -3.70324,-2.77742 -7.09787,-2.77742 -5.52913,0 -9.38667,4.19185 -9.38667,9.30951 v 0.0514 c 0,5.1691 3.93469,9.25808 9.23237,9.25808 3.47178,0 5.52913,-1.23441 7.38075,-3.21461 z" />
        <path
           id="path2217-1"
           style="font-style:normal;font-variant:normal;font-weight:bold;font-stretch:normal;line-height:1;font-family:Gotham;-inkscape-font-specification:'Gotham Bold';text-align:center;text-anchor:middle;stroke-width:0.264073"
           d="m 240.00504,144.661 v -3.60037 h -8.9752 v -14.40146 h -3.9604 V 144.661 Z" />
        <path
           id="path2219-9"
           style="font-style:normal;font-variant:normal;font-weight:bold;font-stretch:normal;line-height:1;font-family:Gotham;-inkscape-font-specification:'Gotham Bold';text-align:center;text-anchor:middle;stroke-width:0.264073"
           d="m 256.69893,144.661 v -3.52322 h -9.77242 v -3.78038 h 8.48657 v -3.52322 h -8.48657 v -3.6518 h 9.64383 v -3.52321 H 242.99182 V 144.661 Z" />
        <path
           id="path2221-4"
           style="font-style:normal;font-variant:normal;font-weight:bold;font-stretch:normal;line-height:1;font-family:Gotham;-inkscape-font-specification:'Gotham Bold';text-align:center;text-anchor:middle;stroke-width:0.264073"
           d="m 273.23288,139.3376 v -0.0514 c 0,-3.13746 -2.05735,-4.44903 -5.70915,-5.40055 -3.11175,-0.79723 -3.88325,-1.18298 -3.88325,-2.36596 v -0.0514 c 0,-0.87437 0.79722,-1.56873 2.31452,-1.56873 1.5173,0 3.08603,0.66864 4.68047,1.77446 l 2.05736,-2.98316 c -1.8259,-1.46586 -4.06327,-2.2888 -6.6864,-2.2888 -3.67751,0 -6.30064,2.16022 -6.30064,5.42627 v 0.0514 c 0,3.57465 2.34024,4.57761 5.96632,5.50342 3.00888,0.7715 3.62609,1.28584 3.62609,2.2888 v 0.0514 c 0,1.0544 -0.97725,1.69732 -2.59741,1.69732 -2.05735,0 -3.75467,-0.84866 -5.37483,-2.18594 l -2.34024,2.80315 c 2.16022,1.92876 4.91193,2.88029 7.63792,2.88029 3.88325,0 6.60924,-2.00592 6.60924,-5.58057 z" />
      </g>
      <path
         d="m 152.00002,30.0875 a 2.5,2.5 0 0 1 -2.5,2.5 2.5,2.5 0 0 1 -2.5,-2.5 2.5,2.5 0 0 1 2.5,-2.5 2.5,2.5 0 0 1 2.5,2.5"
         style="fill:#f0f1f3;stroke:#000000;stroke-width:0.307001;stroke-miterlimit:4;stroke-dasharray:none"
         id="path5025-2-4" />
      <path
         d="m 152.00002,163.91249 a 2.5,2.5 0 0 1 -2.5,2.5 2.5,2.5 0 0 1 -2.5,-2.5 2.5,2.5 0 0 1 2.5,-2.5 2.5,2.5 0 0 1 2.5,2.5"
         style="fill:#f0f1f3;stroke:#000000;stroke-width:0.306999;stroke-miterlimit:4;stroke-dasharray:none"
         id="path5027-2-4" />
    </g>
  </g>
</svg>
