  0
SECTION
  2
HEADER
  9
$ACADVER
  1
AC1014
  9
$HANDSEED
  5
FFFF
  9
$MEASUREMENT
 70
     1
  0
ENDSEC
  0
SECTION
  2
TABLES
  0
TABLE
  2
VPORT
  5
8
330
0
100
AcDbSymbolTable
 70
     4
  0
VPORT
  5
2E
330
8
100
AcDbSymbolTableRecord
100
AcDbViewportTableRecord
  2
*ACTIVE
 70
     0
 10
0.0
 20
0.0
 11
1.0
 21
1.0
 12
210.0
 22
148.5
 13
0.0
 23
0.0
 14
10.0
 24
10.0
 15
10.0
 25
10.0
 16
0.0
 26
0.0
 36
1.0
 17
0.0
 27
0.0
 37
0.0
 40
341.0
 41
1.24
 42
50.0
 43
0.0
 44
0.0
 50
0.0
 51
0.0
 71
     0
 72
   100
 73
     1
 74
     3
 75
     0
 76
     0
 77
     0
 78
     0
  0
ENDTAB
  0
TABLE
  2
LTYPE
  5
5
330
0
100
AcDbSymbolTable
 70
     1
  0
LTYPE
  5
14
330
5
100
AcDbSymbolTableRecord
100
AcDbLinetypeTableRecord
  2
BYBLOCK
 70
     0
  3

 72
    65
 73
     0
 40
0.0
  0
LTYPE
  5
15
330
5
100
AcDbSymbolTableRecord
100
AcDbLinetypeTableRecord
  2
BYLAYER
 70
     0
  3

 72
    65
 73
     0
 40
0.0
  0
LTYPE
  5
16
330
5
100
AcDbSymbolTableRecord
100
AcDbLinetypeTableRecord
  2
CONTINUOUS
 70
     0
  3
Solid line
 72
    65
 73
     0
 40
0.0
  0
ENDTAB
  0
TABLE
  2
LAYER
  5
2
100
AcDbSymbolTable
 70
2
  0
LAYER
  5
50
100
AcDbSymbolTableRecord
100
AcDbLayerTableRecord
  2
0
 70
0
  6
CONTINUOUS
  0
LAYER
  5
51
100
AcDbSymbolTableRecord
100
AcDbLayerTableRecord
  2
Ebene_1
 70
0
  6
CONTINUOUS
  0
ENDTAB
  0
TABLE
  2
STYLE
  5
3
330
0
100
AcDbSymbolTable
 70
     1
  0
STYLE
  5
11
330
3
100
AcDbSymbolTableRecord
100
AcDbTextStyleTableRecord
  2
STANDARD
 70
     0
 40
0.0
 41
1.0
 50
0.0
 71
     0
 42
2.5
  3
txt
  4

  0
ENDTAB
  0
TABLE
  2
VIEW
  5
6
330
0
100
AcDbSymbolTable
 70
     0
  0
ENDTAB
  0
TABLE
  2
UCS
  5
7
330
0
100
AcDbSymbolTable
 70
     0
  0
ENDTAB
  0
TABLE
  2
APPID
  5
9
330
0
100
AcDbSymbolTable
 70
     2
  0
APPID
  5
12
330
9
100
AcDbSymbolTableRecord
100
AcDbRegAppTableRecord
  2
ACAD
 70
     0
  0
ENDTAB
  0
TABLE
  2
DIMSTYLE
  5
A
330
0
100
AcDbSymbolTable
 70
     1
  0
DIMSTYLE
105
27
330
A
100
AcDbSymbolTableRecord
100
AcDbDimStyleTableRecord
  2
ISO-25
 70
     0
  3

  4

  5

  6

  7

 40
1.0
 41
2.5
 42
0.625
 43
3.75
 44
1.25
 45
0.0
 46
0.0
 47
0.0
 48
0.0
140
2.5
141
2.5
142
0.0
143
0.03937007874016
144
1.0
145
0.0
146
1.0
147
0.625
 71
     0
 72
     0
 73
     0
 74
     0
 75
     0
 76
     0
 77
     1
 78
     8
170
     0
171
     3
172
     1
173
     0
174
     0
175
     0
176
     0
177
     0
178
     0
270
     2
271
     2
272
     2
273
     2
274
     3
340
11
275
     0
280
     0
281
     0
282
     0
283
     0
284
     8
285
     0
286
     0
287
     3
288
     0
  0
ENDTAB
  0
TABLE
  2
BLOCK_RECORD
  5
1
330
0
100
AcDbSymbolTable
 70
     1
  0
BLOCK_RECORD
  5
1F
330
1
100
AcDbSymbolTableRecord
100
AcDbBlockTableRecord
  2
*MODEL_SPACE
  0
BLOCK_RECORD
  5
1B
330
1
100
AcDbSymbolTableRecord
100
AcDbBlockTableRecord
  2
*PAPER_SPACE
  0
ENDTAB
  0
ENDSEC
  0
SECTION
  2
BLOCKS
  0
BLOCK
  5
20
330
1F
100
AcDbEntity
  8
0
100
AcDbBlockBegin
  2
*MODEL_SPACE
 70
     0
 10
0.0
 20
0.0
 30
0.0
  3
*MODEL_SPACE
  1

  0
ENDBLK
  5
21
330
1F
100
AcDbEntity
  8
0
100
AcDbBlockEnd
  0
BLOCK
  5
1C
330
1B
100
AcDbEntity
 67
     1
  8
0
100
AcDbBlockBegin
  2
*PAPER_SPACE
  1

  0
ENDBLK
  5
1D
330
1B
100
AcDbEntity
 67
     1
  8
0
100
AcDbBlockEnd
  0
ENDSEC
  0
SECTION
  2
ENTITIES
  0
LWPOLYLINE
  5
100
100
AcDbEntity
  8
Ebene_1
 62
7
100
AcDbPolyline
 90
4
 70
1
 10
0.000000
 20
380.000000
 30
0.0
 10
300.000000
 20
380.000000
 30
0.0
 10
300.000000
 20
0.000000
 30
0.0
 10
0.000000
 20
0.000000
 30
0.0
  0
SPLINE
  5
101
100
AcDbEntity
  8
Ebene_1
 62
7
100
AcDbSpline
 70
8
 71
3
 72
8
 73
4
 74
0
 40
0
 40
0
 40
0
 40
0
 40
1
 40
1
 40
1
 40
1
 10
269.864540
 20
368.204500
 30
0.0
 10
280.977480
 20
368.204500
 30
0.0
 10
289.924020
 20
359.243720
 30
0.0
 10
289.924020
 20
348.113080
 30
0.0
  0
LWPOLYLINE
  5
102
100
AcDbEntity
  8
Ebene_1
 62
7
100
AcDbPolyline
 90
2
 70
0
 10
30.153890
 20
368.204500
 30
0.0
 10
269.864540
 20
368.204500
 30
0.0
  0
SPLINE
  5
103
100
AcDbEntity
  8
Ebene_1
 62
7
100
AcDbSpline
 70
8
 71
3
 72
8
 73
4
 74
0
 40
0
 40
0
 40
0
 40
0
 40
1
 40
1
 40
1
 40
1
 10
289.924020
 20
213.500530
 30
0.0
 10
289.924020
 20
202.369890
 30
0.0
 10
280.977480
 20
193.409120
 30
0.0
 10
269.864540
 20
193.409120
 30
0.0
  0
LWPOLYLINE
  5
104
100
AcDbEntity
  8
Ebene_1
 62
7
100
AcDbPolyline
 90
2
 70
0
 10
289.924020
 20
348.113080
 30
0.0
 10
289.924020
 20
213.500530
 30
0.0
  0
SPLINE
  5
105
100
AcDbEntity
  8
Ebene_1
 62
7
100
AcDbSpline
 70
8
 71
3
 72
8
 73
4
 74
0
 40
0
 40
0
 40
0
 40
0
 40
1
 40
1
 40
1
 40
1
 10
30.153890
 20
193.409120
 30
0.0
 10
19.040950
 20
193.409120
 30
0.0
 10
10.094420
 20
202.369890
 30
0.0
 10
10.094420
 20
213.500530
 30
0.0
  0
LWPOLYLINE
  5
106
100
AcDbEntity
  8
Ebene_1
 62
7
100
AcDbPolyline
 90
2
 70
0
 10
269.864540
 20
193.409120
 30
0.0
 10
30.153890
 20
193.409120
 30
0.0
  0
SPLINE
  5
107
100
AcDbEntity
  8
Ebene_1
 62
7
100
AcDbSpline
 70
8
 71
3
 72
8
 73
4
 74
0
 40
0
 40
0
 40
0
 40
0
 40
1
 40
1
 40
1
 40
1
 10
10.094420
 20
348.113080
 30
0.0
 10
10.094420
 20
359.243720
 30
0.0
 10
19.040950
 20
368.204500
 30
0.0
 10
30.153890
 20
368.204500
 30
0.0
  0
LWPOLYLINE
  5
108
100
AcDbEntity
  8
Ebene_1
 62
7
100
AcDbPolyline
 90
2
 70
0
 10
10.094420
 20
213.500530
 30
0.0
 10
10.094420
 20
348.113080
 30
0.0
  0
SPLINE
  5
109
100
AcDbEntity
  8
Ebene_1
 62
7
100
AcDbSpline
 70
8
 71
3
 72
8
 73
4
 74
0
 40
0
 40
0
 40
0
 40
0
 40
1
 40
1
 40
1
 40
1
 10
30.009216
 20
350.807000
 30
0.0
 10
30.009216
 20
350.143959
 30
0.0
 10
29.745824
 20
349.508074
 30
0.0
 10
29.276983
 20
349.039233
 30
0.0
  0
SPLINE
  5
10a
100
AcDbEntity
  8
Ebene_1
 62
7
100
AcDbSpline
 70
8
 71
3
 72
8
 73
4
 74
0
 40
0
 40
0
 40
0
 40
0
 40
1
 40
1
 40
1
 40
1
 10
29.276983
 20
349.039233
 30
0.0
 10
28.808142
 20
348.570392
 30
0.0
 10
28.172257
 20
348.307000
 30
0.0
 10
27.509216
 20
348.307000
 30
0.0
  0
SPLINE
  5
10b
100
AcDbEntity
  8
Ebene_1
 62
7
100
AcDbSpline
 70
8
 71
3
 72
8
 73
4
 74
0
 40
0
 40
0
 40
0
 40
0
 40
1
 40
1
 40
1
 40
1
 10
27.509216
 20
348.307000
 30
0.0
 10
26.846175
 20
348.307000
 30
0.0
 10
26.210290
 20
348.570392
 30
0.0
 10
25.741449
 20
349.039233
 30
0.0
  0
SPLINE
  5
10c
100
AcDbEntity
  8
Ebene_1
 62
7
100
AcDbSpline
 70
8
 71
3
 72
8
 73
4
 74
0
 40
0
 40
0
 40
0
 40
0
 40
1
 40
1
 40
1
 40
1
 10
25.741449
 20
349.039233
 30
0.0
 10
25.272608
 20
349.508074
 30
0.0
 10
25.009216
 20
350.143959
 30
0.0
 10
25.009216
 20
350.807000
 30
0.0
  0
SPLINE
  5
10d
100
AcDbEntity
  8
Ebene_1
 62
7
100
AcDbSpline
 70
8
 71
3
 72
8
 73
4
 74
0
 40
0
 40
0
 40
0
 40
0
 40
1
 40
1
 40
1
 40
1
 10
25.009216
 20
350.807000
 30
0.0
 10
25.009216
 20
352.187712
 30
0.0
 10
26.128504
 20
353.307000
 30
0.0
 10
27.509216
 20
353.307000
 30
0.0
  0
SPLINE
  5
10e
100
AcDbEntity
  8
Ebene_1
 62
7
100
AcDbSpline
 70
8
 71
3
 72
8
 73
4
 74
0
 40
0
 40
0
 40
0
 40
0
 40
1
 40
1
 40
1
 40
1
 10
27.509216
 20
353.307000
 30
0.0
 10
28.172257
 20
353.307000
 30
0.0
 10
28.808142
 20
353.043608
 30
0.0
 10
29.276983
 20
352.574767
 30
0.0
  0
SPLINE
  5
10f
100
AcDbEntity
  8
Ebene_1
 62
7
100
AcDbSpline
 70
8
 71
3
 72
8
 73
4
 74
0
 40
0
 40
0
 40
0
 40
0
 40
1
 40
1
 40
1
 40
1
 10
29.276983
 20
352.574767
 30
0.0
 10
29.745824
 20
352.105926
 30
0.0
 10
30.009216
 20
351.470041
 30
0.0
 10
30.009216
 20
350.807000
 30
0.0
  0
LWPOLYLINE
  5
110
100
AcDbEntity
  8
Ebene_1
 62
7
100
AcDbPolyline
 90
1
 70
1
 10
30.153890
 20
368.204500
 30
0.0
  0
SPLINE
  5
111
100
AcDbEntity
  8
Ebene_1
 62
7
100
AcDbSpline
 70
8
 71
3
 72
8
 73
4
 74
0
 40
0
 40
0
 40
0
 40
0
 40
1
 40
1
 40
1
 40
1
 10
30.009216
 20
210.806996
 30
0.0
 10
30.009216
 20
210.143955
 30
0.0
 10
29.745824
 20
209.508070
 30
0.0
 10
29.276983
 20
209.039229
 30
0.0
  0
SPLINE
  5
112
100
AcDbEntity
  8
Ebene_1
 62
7
100
AcDbSpline
 70
8
 71
3
 72
8
 73
4
 74
0
 40
0
 40
0
 40
0
 40
0
 40
1
 40
1
 40
1
 40
1
 10
29.276983
 20
209.039229
 30
0.0
 10
28.808142
 20
208.570388
 30
0.0
 10
28.172257
 20
208.306996
 30
0.0
 10
27.509216
 20
208.306996
 30
0.0
  0
SPLINE
  5
113
100
AcDbEntity
  8
Ebene_1
 62
7
100
AcDbSpline
 70
8
 71
3
 72
8
 73
4
 74
0
 40
0
 40
0
 40
0
 40
0
 40
1
 40
1
 40
1
 40
1
 10
27.509216
 20
208.306996
 30
0.0
 10
26.846175
 20
208.306996
 30
0.0
 10
26.210290
 20
208.570388
 30
0.0
 10
25.741449
 20
209.039229
 30
0.0
  0
SPLINE
  5
114
100
AcDbEntity
  8
Ebene_1
 62
7
100
AcDbSpline
 70
8
 71
3
 72
8
 73
4
 74
0
 40
0
 40
0
 40
0
 40
0
 40
1
 40
1
 40
1
 40
1
 10
25.741449
 20
209.039229
 30
0.0
 10
25.272608
 20
209.508070
 30
0.0
 10
25.009216
 20
210.143955
 30
0.0
 10
25.009216
 20
210.806996
 30
0.0
  0
SPLINE
  5
115
100
AcDbEntity
  8
Ebene_1
 62
7
100
AcDbSpline
 70
8
 71
3
 72
8
 73
4
 74
0
 40
0
 40
0
 40
0
 40
0
 40
1
 40
1
 40
1
 40
1
 10
25.009216
 20
210.806996
 30
0.0
 10
25.009216
 20
212.187708
 30
0.0
 10
26.128504
 20
213.306996
 30
0.0
 10
27.509216
 20
213.306996
 30
0.0
  0
SPLINE
  5
116
100
AcDbEntity
  8
Ebene_1
 62
7
100
AcDbSpline
 70
8
 71
3
 72
8
 73
4
 74
0
 40
0
 40
0
 40
0
 40
0
 40
1
 40
1
 40
1
 40
1
 10
27.509216
 20
213.306996
 30
0.0
 10
28.172257
 20
213.306996
 30
0.0
 10
28.808142
 20
213.043604
 30
0.0
 10
29.276983
 20
212.574763
 30
0.0
  0
SPLINE
  5
117
100
AcDbEntity
  8
Ebene_1
 62
7
100
AcDbSpline
 70
8
 71
3
 72
8
 73
4
 74
0
 40
0
 40
0
 40
0
 40
0
 40
1
 40
1
 40
1
 40
1
 10
29.276983
 20
212.574763
 30
0.0
 10
29.745824
 20
212.105922
 30
0.0
 10
30.009216
 20
211.470037
 30
0.0
 10
30.009216
 20
210.806996
 30
0.0
  0
LWPOLYLINE
  5
118
100
AcDbEntity
  8
Ebene_1
 62
7
100
AcDbPolyline
 90
1
 70
1
 10
30.009216
 20
350.807000
 30
0.0
  0
SPLINE
  5
119
100
AcDbEntity
  8
Ebene_1
 62
7
100
AcDbSpline
 70
8
 71
3
 72
8
 73
4
 74
0
 40
0
 40
0
 40
0
 40
0
 40
1
 40
1
 40
1
 40
1
 10
275.009220
 20
210.806996
 30
0.0
 10
275.009220
 20
210.143955
 30
0.0
 10
274.745828
 20
209.508070
 30
0.0
 10
274.276987
 20
209.039229
 30
0.0
  0
SPLINE
  5
11a
100
AcDbEntity
  8
Ebene_1
 62
7
100
AcDbSpline
 70
8
 71
3
 72
8
 73
4
 74
0
 40
0
 40
0
 40
0
 40
0
 40
1
 40
1
 40
1
 40
1
 10
274.276987
 20
209.039229
 30
0.0
 10
273.808146
 20
208.570388
 30
0.0
 10
273.172261
 20
208.306996
 30
0.0
 10
272.509220
 20
208.306996
 30
0.0
  0
SPLINE
  5
11b
100
AcDbEntity
  8
Ebene_1
 62
7
100
AcDbSpline
 70
8
 71
3
 72
8
 73
4
 74
0
 40
0
 40
0
 40
0
 40
0
 40
1
 40
1
 40
1
 40
1
 10
272.509220
 20
208.306996
 30
0.0
 10
271.846179
 20
208.306996
 30
0.0
 10
271.210294
 20
208.570388
 30
0.0
 10
270.741453
 20
209.039229
 30
0.0
  0
SPLINE
  5
11c
100
AcDbEntity
  8
Ebene_1
 62
7
100
AcDbSpline
 70
8
 71
3
 72
8
 73
4
 74
0
 40
0
 40
0
 40
0
 40
0
 40
1
 40
1
 40
1
 40
1
 10
270.741453
 20
209.039229
 30
0.0
 10
270.272612
 20
209.508070
 30
0.0
 10
270.009220
 20
210.143955
 30
0.0
 10
270.009220
 20
210.806996
 30
0.0
  0
SPLINE
  5
11d
100
AcDbEntity
  8
Ebene_1
 62
7
100
AcDbSpline
 70
8
 71
3
 72
8
 73
4
 74
0
 40
0
 40
0
 40
0
 40
0
 40
1
 40
1
 40
1
 40
1
 10
270.009220
 20
210.806996
 30
0.0
 10
270.009220
 20
211.470037
 30
0.0
 10
270.272612
 20
212.105922
 30
0.0
 10
270.741453
 20
212.574763
 30
0.0
  0
SPLINE
  5
11e
100
AcDbEntity
  8
Ebene_1
 62
7
100
AcDbSpline
 70
8
 71
3
 72
8
 73
4
 74
0
 40
0
 40
0
 40
0
 40
0
 40
1
 40
1
 40
1
 40
1
 10
270.741453
 20
212.574763
 30
0.0
 10
271.210294
 20
213.043604
 30
0.0
 10
271.846179
 20
213.306996
 30
0.0
 10
272.509220
 20
213.306996
 30
0.0
  0
SPLINE
  5
11f
100
AcDbEntity
  8
Ebene_1
 62
7
100
AcDbSpline
 70
8
 71
3
 72
8
 73
4
 74
0
 40
0
 40
0
 40
0
 40
0
 40
1
 40
1
 40
1
 40
1
 10
272.509220
 20
213.306996
 30
0.0
 10
273.172261
 20
213.306996
 30
0.0
 10
273.808146
 20
213.043604
 30
0.0
 10
274.276987
 20
212.574763
 30
0.0
  0
SPLINE
  5
120
100
AcDbEntity
  8
Ebene_1
 62
7
100
AcDbSpline
 70
8
 71
3
 72
8
 73
4
 74
0
 40
0
 40
0
 40
0
 40
0
 40
1
 40
1
 40
1
 40
1
 10
274.276987
 20
212.574763
 30
0.0
 10
274.745828
 20
212.105922
 30
0.0
 10
275.009220
 20
211.470037
 30
0.0
 10
275.009220
 20
210.806996
 30
0.0
  0
LWPOLYLINE
  5
121
100
AcDbEntity
  8
Ebene_1
 62
7
100
AcDbPolyline
 90
1
 70
1
 10
30.009216
 20
210.806996
 30
0.0
  0
SPLINE
  5
122
100
AcDbEntity
  8
Ebene_1
 62
7
100
AcDbSpline
 70
8
 71
3
 72
8
 73
4
 74
0
 40
0
 40
0
 40
0
 40
0
 40
1
 40
1
 40
1
 40
1
 10
275.009220
 20
350.807000
 30
0.0
 10
275.009220
 20
350.143959
 30
0.0
 10
274.745828
 20
349.508074
 30
0.0
 10
274.276987
 20
349.039233
 30
0.0
  0
SPLINE
  5
123
100
AcDbEntity
  8
Ebene_1
 62
7
100
AcDbSpline
 70
8
 71
3
 72
8
 73
4
 74
0
 40
0
 40
0
 40
0
 40
0
 40
1
 40
1
 40
1
 40
1
 10
274.276987
 20
349.039233
 30
0.0
 10
273.808146
 20
348.570392
 30
0.0
 10
273.172261
 20
348.307000
 30
0.0
 10
272.509220
 20
348.307000
 30
0.0
  0
SPLINE
  5
124
100
AcDbEntity
  8
Ebene_1
 62
7
100
AcDbSpline
 70
8
 71
3
 72
8
 73
4
 74
0
 40
0
 40
0
 40
0
 40
0
 40
1
 40
1
 40
1
 40
1
 10
272.509220
 20
348.307000
 30
0.0
 10
271.846179
 20
348.307000
 30
0.0
 10
271.210294
 20
348.570392
 30
0.0
 10
270.741453
 20
349.039233
 30
0.0
  0
SPLINE
  5
125
100
AcDbEntity
  8
Ebene_1
 62
7
100
AcDbSpline
 70
8
 71
3
 72
8
 73
4
 74
0
 40
0
 40
0
 40
0
 40
0
 40
1
 40
1
 40
1
 40
1
 10
270.741453
 20
349.039233
 30
0.0
 10
270.272612
 20
349.508074
 30
0.0
 10
270.009220
 20
350.143959
 30
0.0
 10
270.009220
 20
350.807000
 30
0.0
  0
SPLINE
  5
126
100
AcDbEntity
  8
Ebene_1
 62
7
100
AcDbSpline
 70
8
 71
3
 72
8
 73
4
 74
0
 40
0
 40
0
 40
0
 40
0
 40
1
 40
1
 40
1
 40
1
 10
270.009220
 20
350.807000
 30
0.0
 10
270.009220
 20
351.470041
 30
0.0
 10
270.272612
 20
352.105926
 30
0.0
 10
270.741453
 20
352.574767
 30
0.0
  0
SPLINE
  5
127
100
AcDbEntity
  8
Ebene_1
 62
7
100
AcDbSpline
 70
8
 71
3
 72
8
 73
4
 74
0
 40
0
 40
0
 40
0
 40
0
 40
1
 40
1
 40
1
 40
1
 10
270.741453
 20
352.574767
 30
0.0
 10
271.210294
 20
353.043608
 30
0.0
 10
271.846179
 20
353.307000
 30
0.0
 10
272.509220
 20
353.307000
 30
0.0
  0
SPLINE
  5
128
100
AcDbEntity
  8
Ebene_1
 62
7
100
AcDbSpline
 70
8
 71
3
 72
8
 73
4
 74
0
 40
0
 40
0
 40
0
 40
0
 40
1
 40
1
 40
1
 40
1
 10
272.509220
 20
353.307000
 30
0.0
 10
273.172261
 20
353.307000
 30
0.0
 10
273.808146
 20
353.043608
 30
0.0
 10
274.276987
 20
352.574767
 30
0.0
  0
SPLINE
  5
129
100
AcDbEntity
  8
Ebene_1
 62
7
100
AcDbSpline
 70
8
 71
3
 72
8
 73
4
 74
0
 40
0
 40
0
 40
0
 40
0
 40
1
 40
1
 40
1
 40
1
 10
274.276987
 20
352.574767
 30
0.0
 10
274.745828
 20
352.105926
 30
0.0
 10
275.009220
 20
351.470041
 30
0.0
 10
275.009220
 20
350.807000
 30
0.0
  0
LWPOLYLINE
  5
12a
100
AcDbEntity
  8
Ebene_1
 62
7
100
AcDbPolyline
 90
1
 70
1
 10
275.009220
 20
210.806996
 30
0.0
  0
LWPOLYLINE
  5
12b
100
AcDbEntity
  8
Ebene_1
 62
7
100
AcDbPolyline
 90
1
 70
1
 10
275.009220
 20
350.807000
 30
0.0
  0
LWPOLYLINE
  5
12c
100
AcDbEntity
  8
Ebene_1
 62
7
100
AcDbPolyline
 90
18
 70
1
 10
23.870189
 20
311.404366
 30
0.0
 10
29.283700
 20
305.990856
 30
0.0
 10
29.283700
 20
288.216244
 30
0.0
 10
30.047503
 20
288.216244
 30
0.0
 10
35.143840
 20
288.216244
 30
0.0
 10
35.143840
 20
300.130714
 30
0.0
 10
40.112878
 20
295.161676
 30
0.0
 10
40.112878
 20
288.216244
 30
0.0
 10
45.973020
 20
288.216244
 30
0.0
 10
45.973020
 20
295.161676
 30
0.0
 10
50.942057
 20
300.130714
 30
0.0
 10
50.942057
 20
288.216244
 30
0.0
 10
56.804355
 20
288.216244
 30
0.0
 10
56.804355
 20
305.990856
 30
0.0
 10
62.217866
 20
311.404366
 30
0.0
 10
53.557112
 20
311.404366
 30
0.0
 10
43.042949
 20
300.890202
 30
0.0
 10
32.530943
 20
311.404366
 30
0.0
  0
LWPOLYLINE
  5
12d
100
AcDbEntity
  8
Ebene_1
 62
7
100
AcDbPolyline
 90
9
 70
1
 10
63.939661
 20
302.739297
 30
0.0
 10
63.939661
 20
288.216244
 30
0.0
 10
64.703464
 20
288.216244
 30
0.0
 10
91.460317
 20
288.216244
 30
0.0
 10
91.460317
 20
302.739297
 30
0.0
 10
85.598017
 20
302.739297
 30
0.0
 10
85.598017
 20
294.076385
 30
0.0
 10
69.799802
 20
294.076385
 30
0.0
 10
69.799802
 20
302.739297
 30
0.0
  0
SPLINE
  5
12e
100
AcDbEntity
  8
Ebene_1
 62
7
100
AcDbSpline
 70
8
 71
3
 72
8
 73
4
 74
0
 40
0
 40
0
 40
0
 40
0
 40
1
 40
1
 40
1
 40
1
 10
63.939661
 20
310.640562
 30
0.0
 10
63.939661
 20
309.266866
 30
0.0
 10
64.448122
 20
308.011164
 30
0.0
 10
65.406854
 20
307.026521
 30
0.0
  0
LWPOLYLINE
  5
12f
100
AcDbEntity
  8
Ebene_1
 62
7
100
AcDbPolyline
 90
2
 70
0
 10
63.939661
 20
311.404366
 30
0.0
 10
63.939661
 20
310.640562
 30
0.0
  0
SPLINE
  5
130
100
AcDbEntity
  8
Ebene_1
 62
7
100
AcDbSpline
 70
8
 71
3
 72
8
 73
4
 74
0
 40
0
 40
0
 40
0
 40
0
 40
1
 40
1
 40
1
 40
1
 10
65.415470
 20
307.020004
 30
0.0
 10
66.381764
 20
306.053712
 30
0.0
 10
67.643021
 20
305.544181
 30
0.0
 10
69.035985
 20
305.544181
 30
0.0
  0
LWPOLYLINE
  5
131
100
AcDbEntity
  8
Ebene_1
 62
7
100
AcDbPolyline
 90
3
 70
0
 10
65.406854
 20
307.026521
 30
0.0
 10
65.411162
 20
307.022213
 30
0.0
 10
65.415470
 20
307.020004
 30
0.0
  0
SPLINE
  5
132
100
AcDbEntity
  8
Ebene_1
 62
7
100
AcDbSpline
 70
8
 71
3
 72
8
 73
4
 74
0
 40
0
 40
0
 40
0
 40
0
 40
1
 40
1
 40
1
 40
1
 10
86.363966
 20
305.544181
 30
0.0
 10
87.718521
 20
305.544181
 30
0.0
 10
88.959086
 20
306.054981
 30
0.0
 10
89.941327
 20
307.011374
 30
0.0
  0
SPLINE
  5
133
100
AcDbEntity
  8
Ebene_1
 62
7
100
AcDbSpline
 70
8
 71
3
 72
8
 73
4
 74
0
 40
0
 40
0
 40
0
 40
0
 40
1
 40
1
 40
1
 40
1
 10
89.941327
 20
307.011374
 30
0.0
 10
90.931875
 20
307.975855
 30
0.0
 10
91.460303
 20
309.242835
 30
0.0
 10
91.460303
 20
310.640518
 30
0.0
  0
LWPOLYLINE
  5
134
100
AcDbEntity
  8
Ebene_1
 62
7
100
AcDbPolyline
 90
2
 70
0
 10
69.035985
 20
305.544181
 30
0.0
 10
86.363966
 20
305.544181
 30
0.0
  0
LWPOLYLINE
  5
135
100
AcDbEntity
  8
Ebene_1
 62
7
100
AcDbPolyline
 90
3
 70
0
 10
91.460303
 20
310.640518
 30
0.0
 10
91.460303
 20
311.404321
 30
0.0
 10
63.939661
 20
311.404366
 30
0.0
  0
SPLINE
  5
136
100
AcDbEntity
  8
Ebene_1
 62
7
100
AcDbSpline
 70
8
 71
3
 72
8
 73
4
 74
0
 40
0
 40
0
 40
0
 40
0
 40
1
 40
1
 40
1
 40
1
 10
94.263082
 20
310.640562
 30
0.0
 10
94.263082
 20
309.266866
 30
0.0
 10
94.773701
 20
308.011164
 30
0.0
 10
95.732435
 20
307.026521
 30
0.0
  0
LWPOLYLINE
  5
137
100
AcDbEntity
  8
Ebene_1
 62
7
100
AcDbPolyline
 90
2
 70
0
 10
94.263082
 20
311.404366
 30
0.0
 10
94.263082
 20
310.640562
 30
0.0
  0
SPLINE
  5
138
100
AcDbEntity
  8
Ebene_1
 62
7
100
AcDbSpline
 70
8
 71
3
 72
8
 73
4
 74
0
 40
0
 40
0
 40
0
 40
0
 40
1
 40
1
 40
1
 40
1
 10
95.739063
 20
307.020004
 30
0.0
 10
96.705353
 20
306.053712
 30
0.0
 10
97.966622
 20
305.544181
 30
0.0
 10
99.359584
 20
305.544181
 30
0.0
  0
LWPOLYLINE
  5
139
100
AcDbEntity
  8
Ebene_1
 62
7
100
AcDbPolyline
 90
3
 70
0
 10
95.732435
 20
307.026521
 30
0.0
 10
95.734644
 20
307.022213
 30
0.0
 10
95.739063
 20
307.020004
 30
0.0
  0
SPLINE
  5
13a
100
AcDbEntity
  8
Ebene_1
 62
7
100
AcDbSpline
 70
8
 71
3
 72
8
 73
4
 74
0
 40
0
 40
0
 40
0
 40
0
 40
1
 40
1
 40
1
 40
1
 10
115.921595
 20
295.478806
 30
0.0
 10
115.921595
 20
295.052704
 30
0.0
 10
115.802198
 20
294.768967
 30
0.0
 10
115.507329
 20
294.471188
 30
0.0
  0
SPLINE
  5
13b
100
AcDbEntity
  8
Ebene_1
 62
7
100
AcDbSpline
 70
8
 71
3
 72
8
 73
4
 74
0
 40
0
 40
0
 40
0
 40
0
 40
1
 40
1
 40
1
 40
1
 10
115.507329
 20
294.471188
 30
0.0
 10
115.208671
 20
294.191601
 30
0.0
 10
114.927069
 20
294.076341
 30
0.0
 10
114.521287
 20
294.076341
 30
0.0
  0
LWPOLYLINE
  5
13c
100
AcDbEntity
  8
Ebene_1
 62
7
100
AcDbPolyline
 90
3
 70
0
 10
99.359584
 20
305.544181
 30
0.0
 10
115.921595
 20
305.544181
 30
0.0
 10
115.921595
 20
295.478806
 30
0.0
  0
SPLINE
  5
13d
100
AcDbEntity
  8
Ebene_1
 62
7
100
AcDbSpline
 70
8
 71
3
 72
8
 73
4
 74
0
 40
0
 40
0
 40
0
 40
0
 40
1
 40
1
 40
1
 40
1
 10
116.687557
 20
288.216200
 30
0.0
 10
118.042108
 20
288.216200
 30
0.0
 10
119.284830
 20
288.727001
 30
0.0
 10
120.267083
 20
289.683393
 30
0.0
  0
SPLINE
  5
13e
100
AcDbEntity
  8
Ebene_1
 62
7
100
AcDbSpline
 70
8
 71
3
 72
8
 73
4
 74
0
 40
0
 40
0
 40
0
 40
0
 40
1
 40
1
 40
1
 40
1
 10
120.267083
 20
289.683393
 30
0.0
 10
121.257621
 20
290.647874
 30
0.0
 10
121.783894
 20
291.914855
 30
0.0
 10
121.783894
 20
293.312538
 30
0.0
  0
LWPOLYLINE
  5
13f
100
AcDbEntity
  8
Ebene_1
 62
7
100
AcDbPolyline
 90
7
 70
0
 10
114.521287
 20
294.076341
 30
0.0
 10
100.123381
 20
294.076341
 30
0.0
 10
100.123381
 20
302.739252
 30
0.0
 10
94.263237
 20
302.739252
 30
0.0
 10
94.263237
 20
288.216200
 30
0.0
 10
95.027044
 20
288.216200
 30
0.0
 10
116.687557
 20
288.216200
 30
0.0
  0
LWPOLYLINE
  5
140
100
AcDbEntity
  8
Ebene_1
 62
7
100
AcDbPolyline
 90
3
 70
0
 10
121.783894
 20
293.312538
 30
0.0
 10
121.783894
 20
311.404366
 30
0.0
 10
94.263082
 20
311.404366
 30
0.0
  0
SPLINE
  5
141
100
AcDbEntity
  8
Ebene_1
 62
7
100
AcDbSpline
 70
8
 71
3
 72
8
 73
4
 74
0
 40
0
 40
0
 40
0
 40
0
 40
1
 40
1
 40
1
 40
1
 10
124.586510
 20
293.312582
 30
0.0
 10
124.586510
 20
291.938885
 30
0.0
 10
125.097129
 20
290.683183
 30
0.0
 10
126.055862
 20
289.698541
 30
0.0
  0
LWPOLYLINE
  5
142
100
AcDbEntity
  8
Ebene_1
 62
7
100
AcDbPolyline
 90
2
 70
0
 10
124.586510
 20
294.076385
 30
0.0
 10
124.586510
 20
293.312582
 30
0.0
  0
SPLINE
  5
143
100
AcDbEntity
  8
Ebene_1
 62
7
100
AcDbSpline
 70
8
 71
3
 72
8
 73
4
 74
0
 40
0
 40
0
 40
0
 40
0
 40
1
 40
1
 40
1
 40
1
 10
126.062491
 20
289.692023
 30
0.0
 10
127.028781
 20
288.725731
 30
0.0
 10
128.290039
 20
288.216200
 30
0.0
 10
129.683001
 20
288.216200
 30
0.0
  0
LWPOLYLINE
  5
144
100
AcDbEntity
  8
Ebene_1
 62
7
100
AcDbPolyline
 90
3
 70
0
 10
126.055862
 20
289.698541
 30
0.0
 10
126.058072
 20
289.694232
 30
0.0
 10
126.062491
 20
289.692023
 30
0.0
  0
SPLINE
  5
145
100
AcDbEntity
  8
Ebene_1
 62
7
100
AcDbSpline
 70
8
 71
3
 72
8
 73
4
 74
0
 40
0
 40
0
 40
0
 40
0
 40
1
 40
1
 40
1
 40
1
 10
147.010985
 20
288.216200
 30
0.0
 10
148.365536
 20
288.216200
 30
0.0
 10
149.608258
 20
288.727001
 30
0.0
 10
150.590510
 20
289.683393
 30
0.0
  0
SPLINE
  5
146
100
AcDbEntity
  8
Ebene_1
 62
7
100
AcDbSpline
 70
8
 71
3
 72
8
 73
4
 74
0
 40
0
 40
0
 40
0
 40
0
 40
1
 40
1
 40
1
 40
1
 10
150.590510
 20
289.683393
 30
0.0
 10
151.581049
 20
290.647874
 30
0.0
 10
152.107322
 20
291.914855
 30
0.0
 10
152.107322
 20
293.312538
 30
0.0
  0
LWPOLYLINE
  5
147
100
AcDbEntity
  8
Ebene_1
 62
7
100
AcDbPolyline
 90
2
 70
0
 10
129.683001
 20
288.216200
 30
0.0
 10
147.010985
 20
288.216200
 30
0.0
  0
LWPOLYLINE
  5
148
100
AcDbEntity
  8
Ebene_1
 62
7
100
AcDbPolyline
 90
3
 70
0
 10
152.107322
 20
293.312538
 30
0.0
 10
152.107322
 20
294.076341
 30
0.0
 10
124.586510
 20
294.076385
 30
0.0
  0
SPLINE
  5
149
100
AcDbEntity
  8
Ebene_1
 62
7
100
AcDbSpline
 70
8
 71
3
 72
8
 73
4
 74
0
 40
0
 40
0
 40
0
 40
0
 40
1
 40
1
 40
1
 40
1
 10
124.586510
 20
301.975493
 30
0.0
 10
124.586510
 20
300.601796
 30
0.0
 10
125.097129
 20
299.348252
 30
0.0
 10
126.055862
 20
298.363610
 30
0.0
  0
LWPOLYLINE
  5
14a
100
AcDbEntity
  8
Ebene_1
 62
7
100
AcDbPolyline
 90
2
 70
0
 10
124.586510
 20
302.739297
 30
0.0
 10
124.586510
 20
301.975493
 30
0.0
  0
SPLINE
  5
14b
100
AcDbEntity
  8
Ebene_1
 62
7
100
AcDbSpline
 70
8
 71
3
 72
8
 73
4
 74
0
 40
0
 40
0
 40
0
 40
0
 40
1
 40
1
 40
1
 40
1
 10
126.062491
 20
298.354993
 30
0.0
 10
127.028781
 20
297.388701
 30
0.0
 10
128.290039
 20
296.879170
 30
0.0
 10
129.683001
 20
296.879170
 30
0.0
  0
LWPOLYLINE
  5
14c
100
AcDbEntity
  8
Ebene_1
 62
7
100
AcDbPolyline
 90
3
 70
0
 10
126.055862
 20
298.363610
 30
0.0
 10
126.058072
 20
298.359301
 30
0.0
 10
126.062491
 20
298.354993
 30
0.0
  0
SPLINE
  5
14d
100
AcDbEntity
  8
Ebene_1
 62
7
100
AcDbSpline
 70
8
 71
3
 72
8
 73
4
 74
0
 40
0
 40
0
 40
0
 40
0
 40
1
 40
1
 40
1
 40
1
 10
147.010985
 20
296.879170
 30
0.0
 10
148.365536
 20
296.879170
 30
0.0
 10
149.608258
 20
297.392129
 30
0.0
 10
150.590510
 20
298.348521
 30
0.0
  0
SPLINE
  5
14e
100
AcDbEntity
  8
Ebene_1
 62
7
100
AcDbSpline
 70
8
 71
3
 72
8
 73
4
 74
0
 40
0
 40
0
 40
0
 40
0
 40
1
 40
1
 40
1
 40
1
 10
150.590510
 20
298.348521
 30
0.0
 10
151.581049
 20
299.313003
 30
0.0
 10
152.107322
 20
300.577824
 30
0.0
 10
152.107322
 20
301.975508
 30
0.0
  0
LWPOLYLINE
  5
14f
100
AcDbEntity
  8
Ebene_1
 62
7
100
AcDbPolyline
 90
2
 70
0
 10
129.683001
 20
296.879170
 30
0.0
 10
147.010985
 20
296.879170
 30
0.0
  0
LWPOLYLINE
  5
150
100
AcDbEntity
  8
Ebene_1
 62
7
100
AcDbPolyline
 90
3
 70
0
 10
152.107322
 20
301.975508
 30
0.0
 10
152.107322
 20
302.739311
 30
0.0
 10
124.586510
 20
302.739297
 30
0.0
  0
SPLINE
  5
151
100
AcDbEntity
  8
Ebene_1
 62
7
100
AcDbSpline
 70
8
 71
3
 72
8
 73
4
 74
0
 40
0
 40
0
 40
0
 40
0
 40
1
 40
1
 40
1
 40
1
 10
124.586510
 20
310.640562
 30
0.0
 10
124.586510
 20
309.266866
 30
0.0
 10
125.097129
 20
308.011164
 30
0.0
 10
126.055862
 20
307.026521
 30
0.0
  0
LWPOLYLINE
  5
152
100
AcDbEntity
  8
Ebene_1
 62
7
100
AcDbPolyline
 90
2
 70
0
 10
124.586510
 20
311.404366
 30
0.0
 10
124.586510
 20
310.640562
 30
0.0
  0
SPLINE
  5
153
100
AcDbEntity
  8
Ebene_1
 62
7
100
AcDbSpline
 70
8
 71
3
 72
8
 73
4
 74
0
 40
0
 40
0
 40
0
 40
0
 40
1
 40
1
 40
1
 40
1
 10
126.062491
 20
307.020004
 30
0.0
 10
127.028781
 20
306.053712
 30
0.0
 10
128.290039
 20
305.544181
 30
0.0
 10
129.683001
 20
305.544181
 30
0.0
  0
LWPOLYLINE
  5
154
100
AcDbEntity
  8
Ebene_1
 62
7
100
AcDbPolyline
 90
3
 70
0
 10
126.055862
 20
307.026521
 30
0.0
 10
126.058072
 20
307.022213
 30
0.0
 10
126.062491
 20
307.020004
 30
0.0
  0
SPLINE
  5
155
100
AcDbEntity
  8
Ebene_1
 62
7
100
AcDbSpline
 70
8
 71
3
 72
8
 73
4
 74
0
 40
0
 40
0
 40
0
 40
0
 40
1
 40
1
 40
1
 40
1
 10
147.010985
 20
305.544181
 30
0.0
 10
148.365536
 20
305.544181
 30
0.0
 10
149.608258
 20
306.054982
 30
0.0
 10
150.590510
 20
307.011374
 30
0.0
  0
SPLINE
  5
156
100
AcDbEntity
  8
Ebene_1
 62
7
100
AcDbSpline
 70
8
 71
3
 72
8
 73
4
 74
0
 40
0
 40
0
 40
0
 40
0
 40
1
 40
1
 40
1
 40
1
 10
150.590510
 20
307.011374
 30
0.0
 10
151.581049
 20
307.975856
 30
0.0
 10
152.107322
 20
309.242835
 30
0.0
 10
152.107322
 20
310.640518
 30
0.0
  0
LWPOLYLINE
  5
157
100
AcDbEntity
  8
Ebene_1
 62
7
100
AcDbPolyline
 90
2
 70
0
 10
129.683001
 20
305.544181
 30
0.0
 10
147.010985
 20
305.544181
 30
0.0
  0
LWPOLYLINE
  5
158
100
AcDbEntity
  8
Ebene_1
 62
7
100
AcDbPolyline
 90
3
 70
0
 10
152.107322
 20
310.640518
 30
0.0
 10
152.107322
 20
311.404321
 30
0.0
 10
124.586510
 20
311.404366
 30
0.0
  0
SPLINE
  5
159
100
AcDbEntity
  8
Ebene_1
 62
7
100
AcDbSpline
 70
8
 71
3
 72
8
 73
4
 74
0
 40
0
 40
0
 40
0
 40
0
 40
1
 40
1
 40
1
 40
1
 10
177.334258
 20
288.216244
 30
0.0
 10
178.688809
 20
288.216244
 30
0.0
 10
179.931531
 20
288.727046
 30
0.0
 10
180.913773
 20
289.683437
 30
0.0
  0
SPLINE
  5
15a
100
AcDbEntity
  8
Ebene_1
 62
7
100
AcDbSpline
 70
8
 71
3
 72
8
 73
4
 74
0
 40
0
 40
0
 40
0
 40
0
 40
1
 40
1
 40
1
 40
1
 10
180.913773
 20
289.683437
 30
0.0
 10
181.904322
 20
290.647919
 30
0.0
 10
182.430595
 20
291.914899
 30
0.0
 10
182.430595
 20
293.312582
 30
0.0
  0
LWPOLYLINE
  5
15b
100
AcDbEntity
  8
Ebene_1
 62
7
100
AcDbPolyline
 90
4
 70
0
 10
154.909938
 20
311.404366
 30
0.0
 10
154.909938
 20
288.216244
 30
0.0
 10
155.673745
 20
288.216244
 30
0.0
 10
177.334258
 20
288.216244
 30
0.0
  0
LWPOLYLINE
  5
15c
100
AcDbEntity
  8
Ebene_1
 62
7
100
AcDbPolyline
 90
5
 70
0
 10
182.430595
 20
293.312582
 30
0.0
 10
182.430595
 20
294.076385
 30
0.0
 10
160.770082
 20
294.076385
 30
0.0
 10
160.770082
 20
311.404366
 30
0.0
 10
154.909938
 20
311.404366
 30
0.0
  0
SPLINE
  5
15d
100
AcDbEntity
  8
Ebene_1
 62
7
100
AcDbSpline
 70
8
 71
3
 72
8
 73
4
 74
0
 40
0
 40
0
 40
0
 40
0
 40
1
 40
1
 40
1
 40
1
 10
42.806837
 20
230.354170
 30
0.0
 10
47.785742
 20
230.354170
 30
0.0
 10
51.419771
 20
232.843620
 30
0.0
 10
51.419771
 20
237.565000
 30
0.0
  0
LWPOLYLINE
  5
15e
100
AcDbEntity
  8
Ebene_1
 62
7
100
AcDbPolyline
 90
4
 70
0
 10
34.508660
 20
224.631290
 30
0.0
 10
40.059854
 20
224.631290
 30
0.0
 10
40.059854
 20
230.354170
 30
0.0
 10
42.806837
 20
230.354170
 30
0.0
  0
SPLINE
  5
15f
100
AcDbEntity
  8
Ebene_1
 62
7
100
AcDbSpline
 70
8
 71
3
 72
8
 73
4
 74
0
 40
0
 40
0
 40
0
 40
0
 40
1
 40
1
 40
1
 40
1
 10
51.419771
 20
237.622200
 30
0.0
 10
51.419771
 20
242.057440
 30
0.0
 10
48.157729
 20
244.661350
 30
0.0
 10
43.092981
 20
244.661350
 30
0.0
  0
LWPOLYLINE
  5
160
100
AcDbEntity
  8
Ebene_1
 62
7
100
AcDbPolyline
 90
2
 70
0
 10
51.419771
 20
237.565000
 30
0.0
 10
51.419771
 20
237.622200
 30
0.0
  0
LWPOLYLINE
  5
161
100
AcDbEntity
  8
Ebene_1
 62
7
100
AcDbPolyline
 90
3
 70
0
 10
43.092981
 20
244.661350
 30
0.0
 10
34.508660
 20
244.661350
 30
0.0
 10
34.508660
 20
224.631290
 30
0.0
  0
SPLINE
  5
162
100
AcDbEntity
  8
Ebene_1
 62
7
100
AcDbSpline
 70
8
 71
3
 72
8
 73
4
 74
0
 40
0
 40
0
 40
0
 40
0
 40
1
 40
1
 40
1
 40
1
 10
42.663765
 20
239.997220
 30
0.0
 10
44.666773
 20
239.997220
 30
0.0
 10
45.868577
 20
239.081560
 30
0.0
 10
45.868577
 20
237.364690
 30
0.0
  0
LWPOLYLINE
  5
163
100
AcDbEntity
  8
Ebene_1
 62
7
100
AcDbPolyline
 90
3
 70
0
 10
40.059854
 20
234.703560
 30
0.0
 10
40.059854
 20
239.997220
 30
0.0
 10
42.663765
 20
239.997220
 30
0.0
  0
SPLINE
  5
164
100
AcDbEntity
  8
Ebene_1
 62
7
100
AcDbSpline
 70
8
 71
3
 72
8
 73
4
 74
0
 40
0
 40
0
 40
0
 40
0
 40
1
 40
1
 40
1
 40
1
 10
45.868577
 20
237.307490
 30
0.0
 10
45.868577
 20
235.733690
 30
0.0
 10
44.666773
 20
234.703580
 30
0.0
 10
42.692379
 20
234.703580
 30
0.0
  0
LWPOLYLINE
  5
165
100
AcDbEntity
  8
Ebene_1
 62
7
100
AcDbPolyline
 90
2
 70
0
 10
45.868577
 20
237.364690
 30
0.0
 10
45.868577
 20
237.307490
 30
0.0
  0
LWPOLYLINE
  5
166
100
AcDbEntity
  8
Ebene_1
 62
7
100
AcDbPolyline
 90
2
 70
0
 10
42.692379
 20
234.703580
 30
0.0
 10
40.059854
 20
234.703560
 30
0.0
  0
LWPOLYLINE
  5
167
100
AcDbEntity
  8
Ebene_1
 62
7
100
AcDbPolyline
 90
8
 70
1
 10
50.160646
 20
224.631290
 30
0.0
 10
55.997984
 20
224.631290
 30
0.0
 10
57.428704
 20
228.208090
 30
0.0
 10
65.154592
 20
228.208090
 30
0.0
 10
66.613927
 20
224.631290
 30
0.0
 10
72.565722
 20
224.631290
 30
0.0
 10
64.038631
 20
244.804440
 30
0.0
 10
58.687738
 20
244.804440
 30
0.0
  0
LWPOLYLINE
  5
168
100
AcDbEntity
  8
Ebene_1
 62
7
100
AcDbPolyline
 90
3
 70
1
 10
59.059725
 20
232.528860
 30
0.0
 10
61.320263
 20
238.223130
 30
0.0
 10
63.552186
 20
232.528860
 30
0.0
  0
SPLINE
  5
169
100
AcDbEntity
  8
Ebene_1
 62
7
100
AcDbSpline
 70
8
 71
3
 72
8
 73
4
 74
0
 40
0
 40
0
 40
0
 40
0
 40
1
 40
1
 40
1
 40
1
 10
88.160519
 20
231.613200
 30
0.0
 10
90.649972
 20
232.671930
 30
0.0
 10
92.280993
 20
234.703560
 30
0.0
 10
92.280993
 20
237.765300
 30
0.0
  0
LWPOLYLINE
  5
16a
100
AcDbEntity
  8
Ebene_1
 62
7
100
AcDbPolyline
 90
8
 70
0
 10
74.511449
 20
224.631290
 30
0.0
 10
80.062643
 20
224.631290
 30
0.0
 10
80.062643
 20
230.697540
 30
0.0
 10
82.437638
 20
230.697540
 30
0.0
 10
82.494868
 20
230.697540
 30
0.0
 10
86.529498
 20
224.631290
 30
0.0
 10
92.939124
 20
224.631290
 30
0.0
 10
88.160519
 20
231.613200
 30
0.0
  0
SPLINE
  5
16b
100
AcDbEntity
  8
Ebene_1
 62
7
100
AcDbSpline
 70
8
 71
3
 72
8
 73
4
 74
0
 40
0
 40
0
 40
0
 40
0
 40
1
 40
1
 40
1
 40
1
 10
92.280993
 20
237.822500
 30
0.0
 10
92.280993
 20
239.796890
 30
0.0
 10
91.680090
 20
241.342070
 30
0.0
 10
90.506900
 20
242.486640
 30
0.0
  0
SPLINE
  5
16c
100
AcDbEntity
  8
Ebene_1
 62
7
100
AcDbSpline
 70
8
 71
3
 72
8
 73
4
 74
0
 40
0
 40
0
 40
0
 40
0
 40
1
 40
1
 40
1
 40
1
 10
90.506900
 20
242.486640
 30
0.0
 10
89.162023
 20
243.860130
 30
0.0
 10
87.044557
 20
244.661340
 30
0.0
 10
83.982816
 20
244.661340
 30
0.0
  0
LWPOLYLINE
  5
16d
100
AcDbEntity
  8
Ebene_1
 62
7
100
AcDbPolyline
 90
2
 70
0
 10
92.280993
 20
237.765300
 30
0.0
 10
92.280993
 20
237.822500
 30
0.0
  0
LWPOLYLINE
  5
16e
100
AcDbEntity
  8
Ebene_1
 62
7
100
AcDbPolyline
 90
3
 70
0
 10
83.982816
 20
244.661340
 30
0.0
 10
74.511450
 20
244.661340
 30
0.0
 10
74.511449
 20
224.631290
 30
0.0
  0
SPLINE
  5
16f
100
AcDbEntity
  8
Ebene_1
 62
7
100
AcDbSpline
 70
8
 71
3
 72
8
 73
4
 74
0
 40
0
 40
0
 40
0
 40
0
 40
1
 40
1
 40
1
 40
1
 10
83.696671
 20
239.854150
 30
0.0
 10
85.556608
 20
239.854150
 30
0.0
 10
86.701184
 20
239.052940
 30
0.0
 10
86.701184
 20
237.479150
 30
0.0
  0
LWPOLYLINE
  5
170
100
AcDbEntity
  8
Ebene_1
 62
7
100
AcDbPolyline
 90
3
 70
0
 10
80.062643
 20
235.046930
 30
0.0
 10
80.062643
 20
239.854150
 30
0.0
 10
83.696671
 20
239.854150
 30
0.0
  0
SPLINE
  5
171
100
AcDbEntity
  8
Ebene_1
 62
7
100
AcDbSpline
 70
8
 71
3
 72
8
 73
4
 74
0
 40
0
 40
0
 40
0
 40
0
 40
1
 40
1
 40
1
 40
1
 10
86.701184
 20
237.421950
 30
0.0
 10
86.701184
 20
235.962620
 30
0.0
 10
85.613836
 20
235.046960
 30
0.0
 10
83.725286
 20
235.046960
 30
0.0
  0
LWPOLYLINE
  5
172
100
AcDbEntity
  8
Ebene_1
 62
7
100
AcDbPolyline
 90
2
 70
0
 10
86.701184
 20
237.479150
 30
0.0
 10
86.701184
 20
237.421950
 30
0.0
  0
LWPOLYLINE
  5
173
100
AcDbEntity
  8
Ebene_1
 62
7
100
AcDbPolyline
 90
2
 70
0
 10
83.725286
 20
235.046960
 30
0.0
 10
80.062643
 20
235.046930
 30
0.0
  0
LWPOLYLINE
  5
174
100
AcDbEntity
  8
Ebene_1
 62
7
100
AcDbPolyline
 90
12
 70
1
 10
95.085198
 20
224.631290
 30
0.0
 10
100.636392
 20
224.631290
 30
0.0
 10
100.636392
 20
229.810490
 30
0.0
 10
102.668015
 20
232.071030
 30
0.0
 10
107.704149
 20
224.631290
 30
0.0
 10
114.371300
 20
224.631290
 30
0.0
 10
106.530959
 20
236.048430
 30
0.0
 10
114.113770
 20
244.661370
 30
0.0
 10
107.532463
 20
244.661370
 30
0.0
 10
100.636392
 20
236.534880
 30
0.0
 10
100.636392
 20
244.661370
 30
0.0
 10
95.085198
 20
244.661370
 30
0.0
  0
LWPOLYLINE
  5
175
100
AcDbEntity
  8
Ebene_1
 62
7
100
AcDbPolyline
 90
4
 70
1
 10
116.088160
 20
224.631290
 30
0.0
 10
121.667970
 20
224.631290
 30
0.0
 10
121.667970
 20
244.661370
 30
0.0
 10
116.088160
 20
244.661370
 30
0.0
  0
SPLINE
  5
176
100
AcDbEntity
  8
Ebene_1
 62
7
100
AcDbSpline
 70
8
 71
3
 72
8
 73
4
 74
0
 40
0
 40
0
 40
0
 40
0
 40
1
 40
1
 40
1
 40
1
 10
158.008240
 20
224.230680
 30
0.0
 10
161.642270
 20
224.230680
 30
0.0
 10
164.589550
 20
225.575560
 30
0.0
 10
166.707020
 20
227.321040
 30
0.0
  0
LWPOLYLINE
  5
177
100
AcDbEntity
  8
Ebene_1
 62
7
100
AcDbPolyline
 90
10
 70
1
 10
125.330600
 20
224.631290
 30
0.0
 10
130.824560
 20
224.631290
 30
0.0
 10
130.824560
 20
235.619220
 30
0.0
 10
139.380270
 20
224.631290
 30
0.0
 10
144.244720
 20
224.631290
 30
0.0
 10
144.244720
 20
244.661370
 30
0.0
 10
138.750750
 20
244.661370
 30
0.0
 10
138.750750
 20
234.074040
 30
0.0
 10
130.509800
 20
244.661370
 30
0.0
 10
125.330600
 20
244.661370
 30
0.0
  0
SPLINE
  5
178
100
AcDbEntity
  8
Ebene_1
 62
7
100
AcDbSpline
 70
8
 71
3
 72
8
 73
4
 74
0
 40
0
 40
0
 40
0
 40
0
 40
1
 40
1
 40
1
 40
1
 10
161.441970
 20
229.839110
 30
0.0
 10
160.612150
 20
229.295430
 30
0.0
 10
159.582030
 20
229.009290
 30
0.0
 10
158.237160
 20
229.009290
 30
0.0
  0
SPLINE
  5
179
100
AcDbEntity
  8
Ebene_1
 62
7
100
AcDbSpline
 70
8
 71
3
 72
8
 73
4
 74
0
 40
0
 40
0
 40
0
 40
0
 40
1
 40
1
 40
1
 40
1
 10
158.237160
 20
229.009290
 30
0.0
 10
155.060960
 20
229.009290
 30
0.0
 10
152.800420
 20
231.327060
 30
0.0
 10
152.800420
 20
234.560480
 30
0.0
  0
LWPOLYLINE
  5
17a
100
AcDbEntity
  8
Ebene_1
 62
7
100
AcDbPolyline
 90
6
 70
0
 10
166.707020
 20
227.321040
 30
0.0
 10
166.707020
 20
236.334580
 30
0.0
 10
157.493180
 20
236.334580
 30
0.0
 10
157.493180
 20
232.271330
 30
0.0
 10
161.441970
 20
232.271330
 30
0.0
 10
161.441970
 20
229.839110
 30
0.0
  0
SPLINE
  5
17b
100
AcDbEntity
  8
Ebene_1
 62
7
100
AcDbSpline
 70
8
 71
3
 72
8
 73
4
 74
0
 40
0
 40
0
 40
0
 40
0
 40
1
 40
1
 40
1
 40
1
 10
152.800420
 20
234.617680
 30
0.0
 10
152.800420
 20
237.679420
 30
0.0
 10
155.032340
 20
240.111650
 30
0.0
 10
157.922400
 20
240.111650
 30
0.0
  0
SPLINE
  5
17c
100
AcDbEntity
  8
Ebene_1
 62
7
100
AcDbSpline
 70
8
 71
3
 72
8
 73
4
 74
0
 40
0
 40
0
 40
0
 40
0
 40
1
 40
1
 40
1
 40
1
 10
157.922400
 20
240.111650
 30
0.0
 10
159.896790
 20
240.111650
 30
0.0
 10
161.327510
 20
239.424900
 30
0.0
 10
162.758230
 20
238.223100
 30
0.0
  0
LWPOLYLINE
  5
17d
100
AcDbEntity
  8
Ebene_1
 62
7
100
AcDbPolyline
 90
2
 70
0
 10
152.800420
 20
234.560480
 30
0.0
 10
152.800420
 20
234.617680
 30
0.0
  0
SPLINE
  5
17e
100
AcDbEntity
  8
Ebene_1
 62
7
100
AcDbSpline
 70
8
 71
3
 72
8
 73
4
 74
0
 40
0
 40
0
 40
0
 40
0
 40
1
 40
1
 40
1
 40
1
 10
166.020270
 20
242.143270
 30
0.0
 10
163.902810
 20
243.974590
 30
0.0
 10
161.413360
 20
245.061940
 30
0.0
 10
157.893780
 20
245.061940
 30
0.0
  0
SPLINE
  5
17f
100
AcDbEntity
  8
Ebene_1
 62
7
100
AcDbSpline
 70
8
 71
3
 72
8
 73
4
 74
0
 40
0
 40
0
 40
0
 40
0
 40
1
 40
1
 40
1
 40
1
 10
157.893780
 20
245.061940
 30
0.0
 10
151.684460
 20
245.061940
 30
0.0
 10
147.106160
 20
240.483630
 30
0.0
 10
147.106160
 20
234.646300
 30
0.0
  0
LWPOLYLINE
  5
180
100
AcDbEntity
  8
Ebene_1
 62
7
100
AcDbPolyline
 90
2
 70
0
 10
162.758230
 20
238.223100
 30
0.0
 10
166.020270
 20
242.143270
 30
0.0
  0
SPLINE
  5
181
100
AcDbEntity
  8
Ebene_1
 62
7
100
AcDbSpline
 70
8
 71
3
 72
8
 73
4
 74
0
 40
0
 40
0
 40
0
 40
0
 40
1
 40
1
 40
1
 40
1
 10
147.106160
 20
234.589100
 30
0.0
 10
147.106160
 20
228.522850
 30
0.0
 10
151.770300
 20
224.230680
 30
0.0
 10
158.008240
 20
224.230680
 30
0.0
  0
LWPOLYLINE
  5
182
100
AcDbEntity
  8
Ebene_1
 62
7
100
AcDbPolyline
 90
2
 70
0
 10
147.106160
 20
234.646300
 30
0.0
 10
147.106160
 20
234.589100
 30
0.0
  0
SPLINE
  5
183
100
AcDbEntity
  8
Ebene_1
 62
7
100
AcDbSpline
 70
8
 71
3
 72
8
 73
4
 74
0
 40
0
 40
0
 40
0
 40
0
 40
1
 40
1
 40
1
 40
1
 10
187.795760
 20
224.230680
 30
0.0
 10
193.976470
 20
224.230680
 30
0.0
 10
198.612000
 20
228.894830
 30
0.0
 10
198.612000
 20
234.646330
 30
0.0
  0
LWPOLYLINE
  5
184
100
AcDbEntity
  8
Ebene_1
 62
7
100
AcDbPolyline
 90
1
 70
1
 10
158.008240
 20
224.230680
 30
0.0
  0
SPLINE
  5
185
100
AcDbEntity
  8
Ebene_1
 62
7
100
AcDbSpline
 70
8
 71
3
 72
8
 73
4
 74
0
 40
0
 40
0
 40
0
 40
0
 40
1
 40
1
 40
1
 40
1
 10
198.612000
 20
234.703530
 30
0.0
 10
198.612000
 20
240.455020
 30
0.0
 10
194.033700
 20
245.061940
 30
0.0
 10
187.852990
 20
245.061940
 30
0.0
  0
SPLINE
  5
186
100
AcDbEntity
  8
Ebene_1
 62
7
100
AcDbSpline
 70
8
 71
3
 72
8
 73
4
 74
0
 40
0
 40
0
 40
0
 40
0
 40
1
 40
1
 40
1
 40
1
 10
187.852990
 20
245.061940
 30
0.0
 10
181.672280
 20
245.061940
 30
0.0
 10
177.036740
 20
240.397790
 30
0.0
 10
177.036740
 20
234.646300
 30
0.0
  0
LWPOLYLINE
  5
187
100
AcDbEntity
  8
Ebene_1
 62
7
100
AcDbPolyline
 90
2
 70
0
 10
198.612000
 20
234.646330
 30
0.0
 10
198.612000
 20
234.703530
 30
0.0
  0
SPLINE
  5
188
100
AcDbEntity
  8
Ebene_1
 62
7
100
AcDbSpline
 70
8
 71
3
 72
8
 73
4
 74
0
 40
0
 40
0
 40
0
 40
0
 40
1
 40
1
 40
1
 40
1
 10
177.036740
 20
234.589100
 30
0.0
 10
177.036740
 20
228.837600
 30
0.0
 10
181.615050
 20
224.230680
 30
0.0
 10
187.795760
 20
224.230680
 30
0.0
  0
LWPOLYLINE
  5
189
100
AcDbEntity
  8
Ebene_1
 62
7
100
AcDbPolyline
 90
2
 70
0
 10
177.036740
 20
234.646300
 30
0.0
 10
177.036740
 20
234.589100
 30
0.0
  0
SPLINE
  5
18a
100
AcDbEntity
  8
Ebene_1
 62
7
100
AcDbSpline
 70
8
 71
3
 72
8
 73
4
 74
0
 40
0
 40
0
 40
0
 40
0
 40
1
 40
1
 40
1
 40
1
 10
187.852960
 20
229.238210
 30
0.0
 10
184.819830
 20
229.238210
 30
0.0
 10
182.730980
 20
231.756270
 30
0.0
 10
182.730980
 20
234.646330
 30
0.0
  0
LWPOLYLINE
  5
18b
100
AcDbEntity
  8
Ebene_1
 62
7
100
AcDbPolyline
 90
1
 70
1
 10
187.795760
 20
224.230680
 30
0.0
  0
SPLINE
  5
18c
100
AcDbEntity
  8
Ebene_1
 62
7
100
AcDbSpline
 70
8
 71
3
 72
8
 73
4
 74
0
 40
0
 40
0
 40
0
 40
0
 40
1
 40
1
 40
1
 40
1
 10
182.730980
 20
234.703530
 30
0.0
 10
182.730980
 20
237.593580
 30
0.0
 10
184.762600
 20
240.054420
 30
0.0
 10
187.795730
 20
240.054420
 30
0.0
  0
SPLINE
  5
18d
100
AcDbEntity
  8
Ebene_1
 62
7
100
AcDbSpline
 70
8
 71
3
 72
8
 73
4
 74
0
 40
0
 40
0
 40
0
 40
0
 40
1
 40
1
 40
1
 40
1
 10
187.795730
 20
240.054420
 30
0.0
 10
190.857470
 20
240.054420
 30
0.0
 10
192.946320
 20
237.536350
 30
0.0
 10
192.946320
 20
234.646300
 30
0.0
  0
LWPOLYLINE
  5
18e
100
AcDbEntity
  8
Ebene_1
 62
7
100
AcDbPolyline
 90
2
 70
0
 10
182.730980
 20
234.646330
 30
0.0
 10
182.730980
 20
234.703530
 30
0.0
  0
SPLINE
  5
18f
100
AcDbEntity
  8
Ebene_1
 62
7
100
AcDbSpline
 70
8
 71
3
 72
8
 73
4
 74
0
 40
0
 40
0
 40
0
 40
0
 40
1
 40
1
 40
1
 40
1
 10
192.946320
 20
234.589100
 30
0.0
 10
192.946320
 20
231.699040
 30
0.0
 10
190.914700
 20
229.238210
 30
0.0
 10
187.852960
 20
229.238210
 30
0.0
  0
LWPOLYLINE
  5
190
100
AcDbEntity
  8
Ebene_1
 62
7
100
AcDbPolyline
 90
2
 70
0
 10
192.946320
 20
234.646300
 30
0.0
 10
192.946320
 20
234.589100
 30
0.0
  0
LWPOLYLINE
  5
191
100
AcDbEntity
  8
Ebene_1
 62
7
100
AcDbPolyline
 90
1
 70
1
 10
187.852960
 20
229.238210
 30
0.0
  0
LWPOLYLINE
  5
192
100
AcDbEntity
  8
Ebene_1
 62
7
100
AcDbPolyline
 90
10
 70
1
 10
201.502040
 20
224.631290
 30
0.0
 10
206.996000
 20
224.631290
 30
0.0
 10
206.996000
 20
235.619220
 30
0.0
 10
215.551710
 20
224.631290
 30
0.0
 10
220.416160
 20
224.631290
 30
0.0
 10
220.416160
 20
244.661370
 30
0.0
 10
214.922190
 20
244.661370
 30
0.0
 10
214.922190
 20
234.074040
 30
0.0
 10
206.681240
 20
244.661370
 30
0.0
 10
201.502040
 20
244.661370
 30
0.0
  0
LWPOLYLINE
  5
193
100
AcDbEntity
  8
Ebene_1
 62
7
100
AcDbPolyline
 90
6
 70
1
 10
223.964350
 20
224.631290
 30
0.0
 10
239.215820
 20
224.631290
 30
0.0
 10
239.215820
 20
229.495730
 30
0.0
 10
229.515540
 20
229.495730
 30
0.0
 10
229.515540
 20
244.661370
 30
0.0
 10
223.964350
 20
244.661370
 30
0.0
  0
LWPOLYLINE
  5
194
100
AcDbEntity
  8
Ebene_1
 62
7
100
AcDbPolyline
 90
9
 70
1
 10
243.651000
 20
224.631290
 30
0.0
 10
249.230810
 20
224.631290
 30
0.0
 10
249.230810
 20
232.214100
 30
0.0
 10
256.842240
 20
244.661370
 30
0.0
 10
250.632910
 20
244.661370
 30
0.0
 10
246.483820
 20
237.364690
 30
0.0
 10
242.363350
 20
244.661370
 30
0.0
 10
236.039570
 20
244.661370
 30
0.0
 10
243.651000
 20
232.128260
 30
0.0
  0
LWPOLYLINE
  5
195
100
AcDbEntity
  8
Ebene_1
 62
7
100
AcDbPolyline
 90
6
 70
1
 10
259.989810
 20
231.155370
 30
0.0
 10
262.851250
 20
231.155370
 30
0.0
 10
264.510890
 20
242.229140
 30
0.0
 10
264.510890
 20
244.661370
 30
0.0
 10
258.330180
 20
244.661370
 30
0.0
 10
258.330180
 20
242.229140
 30
0.0
  0
LWPOLYLINE
  5
196
100
AcDbEntity
  8
Ebene_1
 62
7
100
AcDbPolyline
 90
4
 70
1
 10
258.587700
 20
224.631290
 30
0.0
 10
264.253360
 20
224.631290
 30
0.0
 10
264.253360
 20
229.495730
 30
0.0
 10
258.587700
 20
229.495730
 30
0.0
  0
LWPOLYLINE
  5
197
100
AcDbEntity
  8
Ebene_1
 62
7
100
AcDbPolyline
 90
4
 70
1
 10
19.800000
 20
255.847000
 30
0.0
 10
279.800000
 20
255.847000
 30
0.0
 10
279.800000
 20
250.847000
 30
0.0
 10
19.800000
 20
250.847000
 30
0.0
  0
LWPOLYLINE
  5
198
100
AcDbEntity
  8
Ebene_1
 62
7
100
AcDbPolyline
 90
14
 70
1
 10
195.150000
 20
337.233960
 30
0.0
 10
195.150000
 20
322.803140
 30
0.0
 10
227.374800
 20
291.917430
 30
0.0
 10
227.374800
 20
272.528400
 30
0.0
 10
228.905500
 20
272.528400
 30
0.0
 10
243.324100
 20
272.528400
 30
0.0
 10
243.324100
 20
291.917430
 30
0.0
 10
275.548900
 20
322.803140
 30
0.0
 10
275.548900
 20
337.233960
 30
0.0
 10
259.599500
 20
337.233960
 30
0.0
 10
259.599500
 20
330.197400
 30
0.0
 10
235.349500
 20
306.955020
 30
0.0
 10
211.099400
 20
330.197400
 30
0.0
 10
211.099400
 20
337.233960
 30
0.0
  0
SPLINE
  5
199
100
AcDbEntity
  8
Ebene_1
 62
7
100
AcDbSpline
 70
8
 71
3
 72
8
 73
4
 74
0
 40
0
 40
0
 40
0
 40
0
 40
1
 40
1
 40
1
 40
1
 10
269.858880
 20
185.967210
 30
0.0
 10
280.971820
 20
185.967210
 30
0.0
 10
289.918360
 20
177.006430
 30
0.0
 10
289.918360
 20
165.875790
 30
0.0
  0
LWPOLYLINE
  5
19a
100
AcDbEntity
  8
Ebene_1
 62
7
100
AcDbPolyline
 90
2
 70
0
 10
30.148229
 20
185.967210
 30
0.0
 10
269.858880
 20
185.967210
 30
0.0
  0
SPLINE
  5
19b
100
AcDbEntity
  8
Ebene_1
 62
7
100
AcDbSpline
 70
8
 71
3
 72
8
 73
4
 74
0
 40
0
 40
0
 40
0
 40
0
 40
1
 40
1
 40
1
 40
1
 10
289.918360
 20
31.263240
 30
0.0
 10
289.918360
 20
20.132600
 30
0.0
 10
280.971820
 20
11.171830
 30
0.0
 10
269.858880
 20
11.171830
 30
0.0
  0
LWPOLYLINE
  5
19c
100
AcDbEntity
  8
Ebene_1
 62
7
100
AcDbPolyline
 90
2
 70
0
 10
289.918360
 20
165.875790
 30
0.0
 10
289.918360
 20
31.263240
 30
0.0
  0
SPLINE
  5
19d
100
AcDbEntity
  8
Ebene_1
 62
7
100
AcDbSpline
 70
8
 71
3
 72
8
 73
4
 74
0
 40
0
 40
0
 40
0
 40
0
 40
1
 40
1
 40
1
 40
1
 10
30.148229
 20
11.171830
 30
0.0
 10
19.035289
 20
11.171830
 30
0.0
 10
10.088759
 20
20.132600
 30
0.0
 10
10.088759
 20
31.263240
 30
0.0
  0
LWPOLYLINE
  5
19e
100
AcDbEntity
  8
Ebene_1
 62
7
100
AcDbPolyline
 90
2
 70
0
 10
269.858880
 20
11.171830
 30
0.0
 10
30.148229
 20
11.171830
 30
0.0
  0
SPLINE
  5
19f
100
AcDbEntity
  8
Ebene_1
 62
7
100
AcDbSpline
 70
8
 71
3
 72
8
 73
4
 74
0
 40
0
 40
0
 40
0
 40
0
 40
1
 40
1
 40
1
 40
1
 10
10.088759
 20
165.875790
 30
0.0
 10
10.088759
 20
177.006430
 30
0.0
 10
19.035289
 20
185.967210
 30
0.0
 10
30.148229
 20
185.967210
 30
0.0
  0
LWPOLYLINE
  5
1a0
100
AcDbEntity
  8
Ebene_1
 62
7
100
AcDbPolyline
 90
2
 70
0
 10
10.088759
 20
31.263240
 30
0.0
 10
10.088759
 20
165.875790
 30
0.0
  0
SPLINE
  5
1a1
100
AcDbEntity
  8
Ebene_1
 62
7
100
AcDbSpline
 70
8
 71
3
 72
8
 73
4
 74
0
 40
0
 40
0
 40
0
 40
0
 40
1
 40
1
 40
1
 40
1
 10
30.003556
 20
168.570000
 30
0.0
 10
30.003556
 20
167.906959
 30
0.0
 10
29.740164
 20
167.271074
 30
0.0
 10
29.271323
 20
166.802233
 30
0.0
  0
SPLINE
  5
1a2
100
AcDbEntity
  8
Ebene_1
 62
7
100
AcDbSpline
 70
8
 71
3
 72
8
 73
4
 74
0
 40
0
 40
0
 40
0
 40
0
 40
1
 40
1
 40
1
 40
1
 10
29.271323
 20
166.802233
 30
0.0
 10
28.802482
 20
166.333392
 30
0.0
 10
28.166597
 20
166.070000
 30
0.0
 10
27.503556
 20
166.070000
 30
0.0
  0
SPLINE
  5
1a3
100
AcDbEntity
  8
Ebene_1
 62
7
100
AcDbSpline
 70
8
 71
3
 72
8
 73
4
 74
0
 40
0
 40
0
 40
0
 40
0
 40
1
 40
1
 40
1
 40
1
 10
27.503556
 20
166.070000
 30
0.0
 10
26.840515
 20
166.070000
 30
0.0
 10
26.204630
 20
166.333392
 30
0.0
 10
25.735789
 20
166.802233
 30
0.0
  0
SPLINE
  5
1a4
100
AcDbEntity
  8
Ebene_1
 62
7
100
AcDbSpline
 70
8
 71
3
 72
8
 73
4
 74
0
 40
0
 40
0
 40
0
 40
0
 40
1
 40
1
 40
1
 40
1
 10
25.735789
 20
166.802233
 30
0.0
 10
25.266948
 20
167.271074
 30
0.0
 10
25.003556
 20
167.906959
 30
0.0
 10
25.003556
 20
168.570000
 30
0.0
  0
SPLINE
  5
1a5
100
AcDbEntity
  8
Ebene_1
 62
7
100
AcDbSpline
 70
8
 71
3
 72
8
 73
4
 74
0
 40
0
 40
0
 40
0
 40
0
 40
1
 40
1
 40
1
 40
1
 10
25.003556
 20
168.570000
 30
0.0
 10
25.003556
 20
169.950712
 30
0.0
 10
26.122844
 20
171.070000
 30
0.0
 10
27.503556
 20
171.070000
 30
0.0
  0
SPLINE
  5
1a6
100
AcDbEntity
  8
Ebene_1
 62
7
100
AcDbSpline
 70
8
 71
3
 72
8
 73
4
 74
0
 40
0
 40
0
 40
0
 40
0
 40
1
 40
1
 40
1
 40
1
 10
27.503556
 20
171.070000
 30
0.0
 10
28.166597
 20
171.070000
 30
0.0
 10
28.802482
 20
170.806608
 30
0.0
 10
29.271323
 20
170.337767
 30
0.0
  0
SPLINE
  5
1a7
100
AcDbEntity
  8
Ebene_1
 62
7
100
AcDbSpline
 70
8
 71
3
 72
8
 73
4
 74
0
 40
0
 40
0
 40
0
 40
0
 40
1
 40
1
 40
1
 40
1
 10
29.271323
 20
170.337767
 30
0.0
 10
29.740164
 20
169.868926
 30
0.0
 10
30.003556
 20
169.233041
 30
0.0
 10
30.003556
 20
168.570000
 30
0.0
  0
LWPOLYLINE
  5
1a8
100
AcDbEntity
  8
Ebene_1
 62
7
100
AcDbPolyline
 90
1
 70
1
 10
30.148229
 20
185.967210
 30
0.0
  0
SPLINE
  5
1a9
100
AcDbEntity
  8
Ebene_1
 62
7
100
AcDbSpline
 70
8
 71
3
 72
8
 73
4
 74
0
 40
0
 40
0
 40
0
 40
0
 40
1
 40
1
 40
1
 40
1
 10
30.003556
 20
28.569996
 30
0.0
 10
30.003556
 20
27.906955
 30
0.0
 10
29.740164
 20
27.271070
 30
0.0
 10
29.271323
 20
26.802229
 30
0.0
  0
SPLINE
  5
1aa
100
AcDbEntity
  8
Ebene_1
 62
7
100
AcDbSpline
 70
8
 71
3
 72
8
 73
4
 74
0
 40
0
 40
0
 40
0
 40
0
 40
1
 40
1
 40
1
 40
1
 10
29.271323
 20
26.802229
 30
0.0
 10
28.802482
 20
26.333388
 30
0.0
 10
28.166597
 20
26.069996
 30
0.0
 10
27.503556
 20
26.069996
 30
0.0
  0
SPLINE
  5
1ab
100
AcDbEntity
  8
Ebene_1
 62
7
100
AcDbSpline
 70
8
 71
3
 72
8
 73
4
 74
0
 40
0
 40
0
 40
0
 40
0
 40
1
 40
1
 40
1
 40
1
 10
27.503556
 20
26.069996
 30
0.0
 10
26.840515
 20
26.069996
 30
0.0
 10
26.204630
 20
26.333388
 30
0.0
 10
25.735789
 20
26.802229
 30
0.0
  0
SPLINE
  5
1ac
100
AcDbEntity
  8
Ebene_1
 62
7
100
AcDbSpline
 70
8
 71
3
 72
8
 73
4
 74
0
 40
0
 40
0
 40
0
 40
0
 40
1
 40
1
 40
1
 40
1
 10
25.735789
 20
26.802229
 30
0.0
 10
25.266948
 20
27.271070
 30
0.0
 10
25.003556
 20
27.906955
 30
0.0
 10
25.003556
 20
28.569996
 30
0.0
  0
SPLINE
  5
1ad
100
AcDbEntity
  8
Ebene_1
 62
7
100
AcDbSpline
 70
8
 71
3
 72
8
 73
4
 74
0
 40
0
 40
0
 40
0
 40
0
 40
1
 40
1
 40
1
 40
1
 10
25.003556
 20
28.569996
 30
0.0
 10
25.003556
 20
29.950708
 30
0.0
 10
26.122844
 20
31.069996
 30
0.0
 10
27.503556
 20
31.069996
 30
0.0
  0
SPLINE
  5
1ae
100
AcDbEntity
  8
Ebene_1
 62
7
100
AcDbSpline
 70
8
 71
3
 72
8
 73
4
 74
0
 40
0
 40
0
 40
0
 40
0
 40
1
 40
1
 40
1
 40
1
 10
27.503556
 20
31.069996
 30
0.0
 10
28.166597
 20
31.069996
 30
0.0
 10
28.802482
 20
30.806604
 30
0.0
 10
29.271323
 20
30.337763
 30
0.0
  0
SPLINE
  5
1af
100
AcDbEntity
  8
Ebene_1
 62
7
100
AcDbSpline
 70
8
 71
3
 72
8
 73
4
 74
0
 40
0
 40
0
 40
0
 40
0
 40
1
 40
1
 40
1
 40
1
 10
29.271323
 20
30.337763
 30
0.0
 10
29.740164
 20
29.868922
 30
0.0
 10
30.003556
 20
29.233037
 30
0.0
 10
30.003556
 20
28.569996
 30
0.0
  0
LWPOLYLINE
  5
1b0
100
AcDbEntity
  8
Ebene_1
 62
7
100
AcDbPolyline
 90
1
 70
1
 10
30.003556
 20
168.570000
 30
0.0
  0
SPLINE
  5
1b1
100
AcDbEntity
  8
Ebene_1
 62
7
100
AcDbSpline
 70
8
 71
3
 72
8
 73
4
 74
0
 40
0
 40
0
 40
0
 40
0
 40
1
 40
1
 40
1
 40
1
 10
275.003560
 20
28.569996
 30
0.0
 10
275.003560
 20
27.906955
 30
0.0
 10
274.740168
 20
27.271070
 30
0.0
 10
274.271327
 20
26.802229
 30
0.0
  0
SPLINE
  5
1b2
100
AcDbEntity
  8
Ebene_1
 62
7
100
AcDbSpline
 70
8
 71
3
 72
8
 73
4
 74
0
 40
0
 40
0
 40
0
 40
0
 40
1
 40
1
 40
1
 40
1
 10
274.271327
 20
26.802229
 30
0.0
 10
273.802486
 20
26.333388
 30
0.0
 10
273.166601
 20
26.069996
 30
0.0
 10
272.503560
 20
26.069996
 30
0.0
  0
SPLINE
  5
1b3
100
AcDbEntity
  8
Ebene_1
 62
7
100
AcDbSpline
 70
8
 71
3
 72
8
 73
4
 74
0
 40
0
 40
0
 40
0
 40
0
 40
1
 40
1
 40
1
 40
1
 10
272.503560
 20
26.069996
 30
0.0
 10
271.840519
 20
26.069996
 30
0.0
 10
271.204634
 20
26.333388
 30
0.0
 10
270.735793
 20
26.802229
 30
0.0
  0
SPLINE
  5
1b4
100
AcDbEntity
  8
Ebene_1
 62
7
100
AcDbSpline
 70
8
 71
3
 72
8
 73
4
 74
0
 40
0
 40
0
 40
0
 40
0
 40
1
 40
1
 40
1
 40
1
 10
270.735793
 20
26.802229
 30
0.0
 10
270.266952
 20
27.271070
 30
0.0
 10
270.003560
 20
27.906955
 30
0.0
 10
270.003560
 20
28.569996
 30
0.0
  0
SPLINE
  5
1b5
100
AcDbEntity
  8
Ebene_1
 62
7
100
AcDbSpline
 70
8
 71
3
 72
8
 73
4
 74
0
 40
0
 40
0
 40
0
 40
0
 40
1
 40
1
 40
1
 40
1
 10
270.003560
 20
28.569996
 30
0.0
 10
270.003560
 20
29.233037
 30
0.0
 10
270.266952
 20
29.868922
 30
0.0
 10
270.735793
 20
30.337763
 30
0.0
  0
SPLINE
  5
1b6
100
AcDbEntity
  8
Ebene_1
 62
7
100
AcDbSpline
 70
8
 71
3
 72
8
 73
4
 74
0
 40
0
 40
0
 40
0
 40
0
 40
1
 40
1
 40
1
 40
1
 10
270.735793
 20
30.337763
 30
0.0
 10
271.204634
 20
30.806604
 30
0.0
 10
271.840519
 20
31.069996
 30
0.0
 10
272.503560
 20
31.069996
 30
0.0
  0
SPLINE
  5
1b7
100
AcDbEntity
  8
Ebene_1
 62
7
100
AcDbSpline
 70
8
 71
3
 72
8
 73
4
 74
0
 40
0
 40
0
 40
0
 40
0
 40
1
 40
1
 40
1
 40
1
 10
272.503560
 20
31.069996
 30
0.0
 10
273.166601
 20
31.069996
 30
0.0
 10
273.802486
 20
30.806604
 30
0.0
 10
274.271327
 20
30.337763
 30
0.0
  0
SPLINE
  5
1b8
100
AcDbEntity
  8
Ebene_1
 62
7
100
AcDbSpline
 70
8
 71
3
 72
8
 73
4
 74
0
 40
0
 40
0
 40
0
 40
0
 40
1
 40
1
 40
1
 40
1
 10
274.271327
 20
30.337763
 30
0.0
 10
274.740168
 20
29.868922
 30
0.0
 10
275.003560
 20
29.233037
 30
0.0
 10
275.003560
 20
28.569996
 30
0.0
  0
LWPOLYLINE
  5
1b9
100
AcDbEntity
  8
Ebene_1
 62
7
100
AcDbPolyline
 90
1
 70
1
 10
30.003556
 20
28.569996
 30
0.0
  0
SPLINE
  5
1ba
100
AcDbEntity
  8
Ebene_1
 62
7
100
AcDbSpline
 70
8
 71
3
 72
8
 73
4
 74
0
 40
0
 40
0
 40
0
 40
0
 40
1
 40
1
 40
1
 40
1
 10
275.003560
 20
168.570000
 30
0.0
 10
275.003560
 20
167.906959
 30
0.0
 10
274.740168
 20
167.271074
 30
0.0
 10
274.271327
 20
166.802233
 30
0.0
  0
SPLINE
  5
1bb
100
AcDbEntity
  8
Ebene_1
 62
7
100
AcDbSpline
 70
8
 71
3
 72
8
 73
4
 74
0
 40
0
 40
0
 40
0
 40
0
 40
1
 40
1
 40
1
 40
1
 10
274.271327
 20
166.802233
 30
0.0
 10
273.802486
 20
166.333392
 30
0.0
 10
273.166601
 20
166.070000
 30
0.0
 10
272.503560
 20
166.070000
 30
0.0
  0
SPLINE
  5
1bc
100
AcDbEntity
  8
Ebene_1
 62
7
100
AcDbSpline
 70
8
 71
3
 72
8
 73
4
 74
0
 40
0
 40
0
 40
0
 40
0
 40
1
 40
1
 40
1
 40
1
 10
272.503560
 20
166.070000
 30
0.0
 10
271.840519
 20
166.070000
 30
0.0
 10
271.204634
 20
166.333392
 30
0.0
 10
270.735793
 20
166.802233
 30
0.0
  0
SPLINE
  5
1bd
100
AcDbEntity
  8
Ebene_1
 62
7
100
AcDbSpline
 70
8
 71
3
 72
8
 73
4
 74
0
 40
0
 40
0
 40
0
 40
0
 40
1
 40
1
 40
1
 40
1
 10
270.735793
 20
166.802233
 30
0.0
 10
270.266952
 20
167.271074
 30
0.0
 10
270.003560
 20
167.906959
 30
0.0
 10
270.003560
 20
168.570000
 30
0.0
  0
SPLINE
  5
1be
100
AcDbEntity
  8
Ebene_1
 62
7
100
AcDbSpline
 70
8
 71
3
 72
8
 73
4
 74
0
 40
0
 40
0
 40
0
 40
0
 40
1
 40
1
 40
1
 40
1
 10
270.003560
 20
168.570000
 30
0.0
 10
270.003560
 20
169.233041
 30
0.0
 10
270.266952
 20
169.868926
 30
0.0
 10
270.735793
 20
170.337767
 30
0.0
  0
SPLINE
  5
1bf
100
AcDbEntity
  8
Ebene_1
 62
7
100
AcDbSpline
 70
8
 71
3
 72
8
 73
4
 74
0
 40
0
 40
0
 40
0
 40
0
 40
1
 40
1
 40
1
 40
1
 10
270.735793
 20
170.337767
 30
0.0
 10
271.204634
 20
170.806608
 30
0.0
 10
271.840519
 20
171.070000
 30
0.0
 10
272.503560
 20
171.070000
 30
0.0
  0
SPLINE
  5
1c0
100
AcDbEntity
  8
Ebene_1
 62
7
100
AcDbSpline
 70
8
 71
3
 72
8
 73
4
 74
0
 40
0
 40
0
 40
0
 40
0
 40
1
 40
1
 40
1
 40
1
 10
272.503560
 20
171.070000
 30
0.0
 10
273.166601
 20
171.070000
 30
0.0
 10
273.802486
 20
170.806608
 30
0.0
 10
274.271327
 20
170.337767
 30
0.0
  0
SPLINE
  5
1c1
100
AcDbEntity
  8
Ebene_1
 62
7
100
AcDbSpline
 70
8
 71
3
 72
8
 73
4
 74
0
 40
0
 40
0
 40
0
 40
0
 40
1
 40
1
 40
1
 40
1
 10
274.271327
 20
170.337767
 30
0.0
 10
274.740168
 20
169.868926
 30
0.0
 10
275.003560
 20
169.233041
 30
0.0
 10
275.003560
 20
168.570000
 30
0.0
  0
LWPOLYLINE
  5
1c2
100
AcDbEntity
  8
Ebene_1
 62
7
100
AcDbPolyline
 90
1
 70
1
 10
275.003560
 20
28.569996
 30
0.0
  0
LWPOLYLINE
  5
1c3
100
AcDbEntity
  8
Ebene_1
 62
7
100
AcDbPolyline
 90
1
 70
1
 10
275.003560
 20
168.570000
 30
0.0
  0
SPLINE
  5
1c4
100
AcDbEntity
  8
Ebene_1
 62
7
100
AcDbSpline
 70
8
 71
3
 72
8
 73
4
 74
0
 40
0
 40
0
 40
0
 40
0
 40
1
 40
1
 40
1
 40
1
 10
42.801177
 20
48.116880
 30
0.0
 10
47.780083
 20
48.116880
 30
0.0
 10
51.414112
 20
50.606340
 30
0.0
 10
51.414112
 20
55.327710
 30
0.0
  0
LWPOLYLINE
  5
1c5
100
AcDbEntity
  8
Ebene_1
 62
7
100
AcDbPolyline
 90
4
 70
0
 10
34.503001
 20
42.394000
 30
0.0
 10
40.054195
 20
42.394000
 30
0.0
 10
40.054195
 20
48.116880
 30
0.0
 10
42.801177
 20
48.116880
 30
0.0
  0
SPLINE
  5
1c6
100
AcDbEntity
  8
Ebene_1
 62
7
100
AcDbSpline
 70
8
 71
3
 72
8
 73
4
 74
0
 40
0
 40
0
 40
0
 40
0
 40
1
 40
1
 40
1
 40
1
 10
51.414112
 20
55.384910
 30
0.0
 10
51.414112
 20
59.820140
 30
0.0
 10
48.152070
 20
62.424050
 30
0.0
 10
43.087321
 20
62.424050
 30
0.0
  0
LWPOLYLINE
  5
1c7
100
AcDbEntity
  8
Ebene_1
 62
7
100
AcDbPolyline
 90
2
 70
0
 10
51.414112
 20
55.327710
 30
0.0
 10
51.414112
 20
55.384910
 30
0.0
  0
LWPOLYLINE
  5
1c8
100
AcDbEntity
  8
Ebene_1
 62
7
100
AcDbPolyline
 90
3
 70
0
 10
43.087321
 20
62.424050
 30
0.0
 10
34.503001
 20
62.424050
 30
0.0
 10
34.503001
 20
42.394000
 30
0.0
  0
SPLINE
  5
1c9
100
AcDbEntity
  8
Ebene_1
 62
7
100
AcDbSpline
 70
8
 71
3
 72
8
 73
4
 74
0
 40
0
 40
0
 40
0
 40
0
 40
1
 40
1
 40
1
 40
1
 10
42.658105
 20
57.759940
 30
0.0
 10
44.661113
 20
57.759940
 30
0.0
 10
45.862918
 20
56.844270
 30
0.0
 10
45.862918
 20
55.127410
 30
0.0
  0
LWPOLYLINE
  5
1ca
100
AcDbEntity
  8
Ebene_1
 62
7
100
AcDbPolyline
 90
3
 70
0
 10
40.054195
 20
52.466270
 30
0.0
 10
40.054195
 20
57.759940
 30
0.0
 10
42.658105
 20
57.759940
 30
0.0
  0
SPLINE
  5
1cb
100
AcDbEntity
  8
Ebene_1
 62
7
100
AcDbSpline
 70
8
 71
3
 72
8
 73
4
 74
0
 40
0
 40
0
 40
0
 40
0
 40
1
 40
1
 40
1
 40
1
 10
45.862918
 20
55.070210
 30
0.0
 10
45.862918
 20
53.496420
 30
0.0
 10
44.661113
 20
52.466300
 30
0.0
 10
42.686720
 20
52.466300
 30
0.0
  0
LWPOLYLINE
  5
1cc
100
AcDbEntity
  8
Ebene_1
 62
7
100
AcDbPolyline
 90
2
 70
0
 10
45.862918
 20
55.127410
 30
0.0
 10
45.862918
 20
55.070210
 30
0.0
  0
LWPOLYLINE
  5
1cd
100
AcDbEntity
  8
Ebene_1
 62
7
100
AcDbPolyline
 90
2
 70
0
 10
42.686720
 20
52.466300
 30
0.0
 10
40.054195
 20
52.466270
 30
0.0
  0
LWPOLYLINE
  5
1ce
100
AcDbEntity
  8
Ebene_1
 62
7
100
AcDbPolyline
 90
8
 70
1
 10
50.154987
 20
42.394000
 30
0.0
 10
55.992325
 20
42.394000
 30
0.0
 10
57.423045
 20
45.970800
 30
0.0
 10
65.148933
 20
45.970800
 30
0.0
 10
66.608268
 20
42.394000
 30
0.0
 10
72.560063
 20
42.394000
 30
0.0
 10
64.032971
 20
62.567150
 30
0.0
 10
58.682079
 20
62.567150
 30
0.0
  0
LWPOLYLINE
  5
1cf
100
AcDbEntity
  8
Ebene_1
 62
7
100
AcDbPolyline
 90
3
 70
1
 10
59.054066
 20
50.291580
 30
0.0
 10
61.314603
 20
55.985840
 30
0.0
 10
63.546527
 20
50.291580
 30
0.0
  0
SPLINE
  5
1d0
100
AcDbEntity
  8
Ebene_1
 62
7
100
AcDbSpline
 70
8
 71
3
 72
8
 73
4
 74
0
 40
0
 40
0
 40
0
 40
0
 40
1
 40
1
 40
1
 40
1
 10
88.154860
 20
49.375920
 30
0.0
 10
90.644313
 20
50.434650
 30
0.0
 10
92.275333
 20
52.466270
 30
0.0
 10
92.275333
 20
55.528010
 30
0.0
  0
LWPOLYLINE
  5
1d1
100
AcDbEntity
  8
Ebene_1
 62
7
100
AcDbPolyline
 90
8
 70
0
 10
74.505789
 20
42.394000
 30
0.0
 10
80.056983
 20
42.394000
 30
0.0
 10
80.056983
 20
48.460250
 30
0.0
 10
82.431978
 20
48.460250
 30
0.0
 10
82.489208
 20
48.460250
 30
0.0
 10
86.523839
 20
42.394000
 30
0.0
 10
92.933465
 20
42.394000
 30
0.0
 10
88.154860
 20
49.375920
 30
0.0
  0
SPLINE
  5
1d2
100
AcDbEntity
  8
Ebene_1
 62
7
100
AcDbSpline
 70
8
 71
3
 72
8
 73
4
 74
0
 40
0
 40
0
 40
0
 40
0
 40
1
 40
1
 40
1
 40
1
 10
92.275333
 20
55.585210
 30
0.0
 10
92.275333
 20
57.559600
 30
0.0
 10
91.674431
 20
59.104780
 30
0.0
 10
90.501241
 20
60.249360
 30
0.0
  0
SPLINE
  5
1d3
100
AcDbEntity
  8
Ebene_1
 62
7
100
AcDbSpline
 70
8
 71
3
 72
8
 73
4
 74
0
 40
0
 40
0
 40
0
 40
0
 40
1
 40
1
 40
1
 40
1
 10
90.501241
 20
60.249360
 30
0.0
 10
89.156364
 20
61.622850
 30
0.0
 10
87.038898
 20
62.424050
 30
0.0
 10
83.977157
 20
62.424050
 30
0.0
  0
LWPOLYLINE
  5
1d4
100
AcDbEntity
  8
Ebene_1
 62
7
100
AcDbPolyline
 90
2
 70
0
 10
92.275333
 20
55.528010
 30
0.0
 10
92.275333
 20
55.585210
 30
0.0
  0
LWPOLYLINE
  5
1d5
100
AcDbEntity
  8
Ebene_1
 62
7
100
AcDbPolyline
 90
3
 70
0
 10
83.977157
 20
62.424050
 30
0.0
 10
74.505790
 20
62.424050
 30
0.0
 10
74.505789
 20
42.394000
 30
0.0
  0
SPLINE
  5
1d6
100
AcDbEntity
  8
Ebene_1
 62
7
100
AcDbSpline
 70
8
 71
3
 72
8
 73
4
 74
0
 40
0
 40
0
 40
0
 40
0
 40
1
 40
1
 40
1
 40
1
 10
83.691012
 20
57.616860
 30
0.0
 10
85.550948
 20
57.616860
 30
0.0
 10
86.695524
 20
56.815660
 30
0.0
 10
86.695524
 20
55.241870
 30
0.0
  0
LWPOLYLINE
  5
1d7
100
AcDbEntity
  8
Ebene_1
 62
7
100
AcDbPolyline
 90
3
 70
0
 10
80.056983
 20
52.809640
 30
0.0
 10
80.056983
 20
57.616860
 30
0.0
 10
83.691012
 20
57.616860
 30
0.0
  0
SPLINE
  5
1d8
100
AcDbEntity
  8
Ebene_1
 62
7
100
AcDbSpline
 70
8
 71
3
 72
8
 73
4
 74
0
 40
0
 40
0
 40
0
 40
0
 40
1
 40
1
 40
1
 40
1
 10
86.695524
 20
55.184670
 30
0.0
 10
86.695524
 20
53.725330
 30
0.0
 10
85.608177
 20
52.809670
 30
0.0
 10
83.719627
 20
52.809670
 30
0.0
  0
LWPOLYLINE
  5
1d9
100
AcDbEntity
  8
Ebene_1
 62
7
100
AcDbPolyline
 90
2
 70
0
 10
86.695524
 20
55.241870
 30
0.0
 10
86.695524
 20
55.184670
 30
0.0
  0
LWPOLYLINE
  5
1da
100
AcDbEntity
  8
Ebene_1
 62
7
100
AcDbPolyline
 90
2
 70
0
 10
83.719627
 20
52.809670
 30
0.0
 10
80.056983
 20
52.809640
 30
0.0
  0
LWPOLYLINE
  5
1db
100
AcDbEntity
  8
Ebene_1
 62
7
100
AcDbPolyline
 90
12
 70
1
 10
95.079539
 20
42.394000
 30
0.0
 10
100.630730
 20
42.394000
 30
0.0
 10
100.630730
 20
47.573210
 30
0.0
 10
102.662360
 20
49.833750
 30
0.0
 10
107.698490
 20
42.394000
 30
0.0
 10
114.365650
 20
42.394000
 30
0.0
 10
106.525300
 20
53.811150
 30
0.0
 10
114.108120
 20
62.424080
 30
0.0
 10
107.526800
 20
62.424080
 30
0.0
 10
100.630730
 20
54.297590
 30
0.0
 10
100.630730
 20
62.424080
 30
0.0
 10
95.079539
 20
62.424080
 30
0.0
  0
LWPOLYLINE
  5
1dc
100
AcDbEntity
  8
Ebene_1
 62
7
100
AcDbPolyline
 90
4
 70
1
 10
116.082500
 20
42.394000
 30
0.0
 10
121.662310
 20
42.394000
 30
0.0
 10
121.662310
 20
62.424080
 30
0.0
 10
116.082500
 20
62.424080
 30
0.0
  0
SPLINE
  5
1dd
100
AcDbEntity
  8
Ebene_1
 62
7
100
AcDbSpline
 70
8
 71
3
 72
8
 73
4
 74
0
 40
0
 40
0
 40
0
 40
0
 40
1
 40
1
 40
1
 40
1
 10
158.002580
 20
41.993400
 30
0.0
 10
161.636610
 20
41.993400
 30
0.0
 10
164.583890
 20
43.338280
 30
0.0
 10
166.701360
 20
45.083760
 30
0.0
  0
LWPOLYLINE
  5
1de
100
AcDbEntity
  8
Ebene_1
 62
7
100
AcDbPolyline
 90
10
 70
1
 10
125.324940
 20
42.394000
 30
0.0
 10
130.818900
 20
42.394000
 30
0.0
 10
130.818900
 20
53.381930
 30
0.0
 10
139.374610
 20
42.394000
 30
0.0
 10
144.239060
 20
42.394000
 30
0.0
 10
144.239060
 20
62.424080
 30
0.0
 10
138.745090
 20
62.424080
 30
0.0
 10
138.745090
 20
51.836750
 30
0.0
 10
130.504150
 20
62.424080
 30
0.0
 10
125.324940
 20
62.424080
 30
0.0
  0
SPLINE
  5
1df
100
AcDbEntity
  8
Ebene_1
 62
7
100
AcDbSpline
 70
8
 71
3
 72
8
 73
4
 74
0
 40
0
 40
0
 40
0
 40
0
 40
1
 40
1
 40
1
 40
1
 10
161.436310
 20
47.601820
 30
0.0
 10
160.606490
 20
47.058150
 30
0.0
 10
159.576370
 20
46.772010
 30
0.0
 10
158.231500
 20
46.772010
 30
0.0
  0
SPLINE
  5
1e0
100
AcDbEntity
  8
Ebene_1
 62
7
100
AcDbSpline
 70
8
 71
3
 72
8
 73
4
 74
0
 40
0
 40
0
 40
0
 40
0
 40
1
 40
1
 40
1
 40
1
 10
158.231500
 20
46.772010
 30
0.0
 10
155.055300
 20
46.772010
 30
0.0
 10
152.794760
 20
49.089770
 30
0.0
 10
152.794760
 20
52.323200
 30
0.0
  0
LWPOLYLINE
  5
1e1
100
AcDbEntity
  8
Ebene_1
 62
7
100
AcDbPolyline
 90
6
 70
0
 10
166.701360
 20
45.083760
 30
0.0
 10
166.701360
 20
54.097290
 30
0.0
 10
157.487520
 20
54.097290
 30
0.0
 10
157.487520
 20
50.034050
 30
0.0
 10
161.436310
 20
50.034050
 30
0.0
 10
161.436310
 20
47.601820
 30
0.0
  0
SPLINE
  5
1e2
100
AcDbEntity
  8
Ebene_1
 62
7
100
AcDbSpline
 70
8
 71
3
 72
8
 73
4
 74
0
 40
0
 40
0
 40
0
 40
0
 40
1
 40
1
 40
1
 40
1
 10
152.794760
 20
52.380400
 30
0.0
 10
152.794760
 20
55.442140
 30
0.0
 10
155.026690
 20
57.874360
 30
0.0
 10
157.916740
 20
57.874360
 30
0.0
  0
SPLINE
  5
1e3
100
AcDbEntity
  8
Ebene_1
 62
7
100
AcDbSpline
 70
8
 71
3
 72
8
 73
4
 74
0
 40
0
 40
0
 40
0
 40
0
 40
1
 40
1
 40
1
 40
1
 10
157.916740
 20
57.874360
 30
0.0
 10
159.891130
 20
57.874360
 30
0.0
 10
161.321850
 20
57.187620
 30
0.0
 10
162.752570
 20
55.985810
 30
0.0
  0
LWPOLYLINE
  5
1e4
100
AcDbEntity
  8
Ebene_1
 62
7
100
AcDbPolyline
 90
2
 70
0
 10
152.794760
 20
52.323200
 30
0.0
 10
152.794760
 20
52.380400
 30
0.0
  0
SPLINE
  5
1e5
100
AcDbEntity
  8
Ebene_1
 62
7
100
AcDbSpline
 70
8
 71
3
 72
8
 73
4
 74
0
 40
0
 40
0
 40
0
 40
0
 40
1
 40
1
 40
1
 40
1
 10
166.014610
 20
59.905990
 30
0.0
 10
163.897150
 20
61.737310
 30
0.0
 10
161.407700
 20
62.824650
 30
0.0
 10
157.888130
 20
62.824650
 30
0.0
  0
SPLINE
  5
1e6
100
AcDbEntity
  8
Ebene_1
 62
7
100
AcDbSpline
 70
8
 71
3
 72
8
 73
4
 74
0
 40
0
 40
0
 40
0
 40
0
 40
1
 40
1
 40
1
 40
1
 10
157.888130
 20
62.824650
 30
0.0
 10
151.678800
 20
62.824650
 30
0.0
 10
147.100500
 20
58.246350
 30
0.0
 10
147.100500
 20
52.409010
 30
0.0
  0
LWPOLYLINE
  5
1e7
100
AcDbEntity
  8
Ebene_1
 62
7
100
AcDbPolyline
 90
2
 70
0
 10
162.752570
 20
55.985810
 30
0.0
 10
166.014610
 20
59.905990
 30
0.0
  0
SPLINE
  5
1e8
100
AcDbEntity
  8
Ebene_1
 62
7
100
AcDbSpline
 70
8
 71
3
 72
8
 73
4
 74
0
 40
0
 40
0
 40
0
 40
0
 40
1
 40
1
 40
1
 40
1
 10
147.100500
 20
52.351810
 30
0.0
 10
147.100500
 20
46.285560
 30
0.0
 10
151.764640
 20
41.993400
 30
0.0
 10
158.002580
 20
41.993400
 30
0.0
  0
LWPOLYLINE
  5
1e9
100
AcDbEntity
  8
Ebene_1
 62
7
100
AcDbPolyline
 90
2
 70
0
 10
147.100500
 20
52.409010
 30
0.0
 10
147.100500
 20
52.351810
 30
0.0
  0
SPLINE
  5
1ea
100
AcDbEntity
  8
Ebene_1
 62
7
100
AcDbSpline
 70
8
 71
3
 72
8
 73
4
 74
0
 40
0
 40
0
 40
0
 40
0
 40
1
 40
1
 40
1
 40
1
 10
187.790100
 20
41.993400
 30
0.0
 10
193.970810
 20
41.993400
 30
0.0
 10
198.606340
 20
46.657550
 30
0.0
 10
198.606340
 20
52.409040
 30
0.0
  0
LWPOLYLINE
  5
1eb
100
AcDbEntity
  8
Ebene_1
 62
7
100
AcDbPolyline
 90
1
 70
1
 10
158.002580
 20
41.993400
 30
0.0
  0
SPLINE
  5
1ec
100
AcDbEntity
  8
Ebene_1
 62
7
100
AcDbSpline
 70
8
 71
3
 72
8
 73
4
 74
0
 40
0
 40
0
 40
0
 40
0
 40
1
 40
1
 40
1
 40
1
 10
198.606340
 20
52.466240
 30
0.0
 10
198.606340
 20
58.217740
 30
0.0
 10
194.028040
 20
62.824650
 30
0.0
 10
187.847330
 20
62.824650
 30
0.0
  0
SPLINE
  5
1ed
100
AcDbEntity
  8
Ebene_1
 62
7
100
AcDbSpline
 70
8
 71
3
 72
8
 73
4
 74
0
 40
0
 40
0
 40
0
 40
0
 40
1
 40
1
 40
1
 40
1
 10
187.847330
 20
62.824650
 30
0.0
 10
181.666620
 20
62.824650
 30
0.0
 10
177.031080
 20
58.160510
 30
0.0
 10
177.031080
 20
52.409010
 30
0.0
  0
LWPOLYLINE
  5
1ee
100
AcDbEntity
  8
Ebene_1
 62
7
100
AcDbPolyline
 90
2
 70
0
 10
198.606340
 20
52.409040
 30
0.0
 10
198.606340
 20
52.466240
 30
0.0
  0
SPLINE
  5
1ef
100
AcDbEntity
  8
Ebene_1
 62
7
100
AcDbSpline
 70
8
 71
3
 72
8
 73
4
 74
0
 40
0
 40
0
 40
0
 40
0
 40
1
 40
1
 40
1
 40
1
 10
177.031080
 20
52.351810
 30
0.0
 10
177.031080
 20
46.600320
 30
0.0
 10
181.609390
 20
41.993400
 30
0.0
 10
187.790100
 20
41.993400
 30
0.0
  0
LWPOLYLINE
  5
1f0
100
AcDbEntity
  8
Ebene_1
 62
7
100
AcDbPolyline
 90
2
 70
0
 10
177.031080
 20
52.409010
 30
0.0
 10
177.031080
 20
52.351810
 30
0.0
  0
SPLINE
  5
1f1
100
AcDbEntity
  8
Ebene_1
 62
7
100
AcDbSpline
 70
8
 71
3
 72
8
 73
4
 74
0
 40
0
 40
0
 40
0
 40
0
 40
1
 40
1
 40
1
 40
1
 10
187.847300
 20
47.000920
 30
0.0
 10
184.814170
 20
47.000920
 30
0.0
 10
182.725320
 20
49.518990
 30
0.0
 10
182.725320
 20
52.409040
 30
0.0
  0
LWPOLYLINE
  5
1f2
100
AcDbEntity
  8
Ebene_1
 62
7
100
AcDbPolyline
 90
1
 70
1
 10
187.790100
 20
41.993400
 30
0.0
  0
SPLINE
  5
1f3
100
AcDbEntity
  8
Ebene_1
 62
7
100
AcDbSpline
 70
8
 71
3
 72
8
 73
4
 74
0
 40
0
 40
0
 40
0
 40
0
 40
1
 40
1
 40
1
 40
1
 10
182.725320
 20
52.466240
 30
0.0
 10
182.725320
 20
55.356300
 30
0.0
 10
184.756940
 20
57.817130
 30
0.0
 10
187.790070
 20
57.817130
 30
0.0
  0
SPLINE
  5
1f4
100
AcDbEntity
  8
Ebene_1
 62
7
100
AcDbSpline
 70
8
 71
3
 72
8
 73
4
 74
0
 40
0
 40
0
 40
0
 40
0
 40
1
 40
1
 40
1
 40
1
 10
187.790070
 20
57.817130
 30
0.0
 10
190.851810
 20
57.817130
 30
0.0
 10
192.940660
 20
55.299070
 30
0.0
 10
192.940660
 20
52.409010
 30
0.0
  0
LWPOLYLINE
  5
1f5
100
AcDbEntity
  8
Ebene_1
 62
7
100
AcDbPolyline
 90
2
 70
0
 10
182.725320
 20
52.409040
 30
0.0
 10
182.725320
 20
52.466240
 30
0.0
  0
SPLINE
  5
1f6
100
AcDbEntity
  8
Ebene_1
 62
7
100
AcDbSpline
 70
8
 71
3
 72
8
 73
4
 74
0
 40
0
 40
0
 40
0
 40
0
 40
1
 40
1
 40
1
 40
1
 10
192.940660
 20
52.351810
 30
0.0
 10
192.940660
 20
49.461760
 30
0.0
 10
190.909040
 20
47.000920
 30
0.0
 10
187.847300
 20
47.000920
 30
0.0
  0
LWPOLYLINE
  5
1f7
100
AcDbEntity
  8
Ebene_1
 62
7
100
AcDbPolyline
 90
2
 70
0
 10
192.940660
 20
52.409010
 30
0.0
 10
192.940660
 20
52.351810
 30
0.0
  0
LWPOLYLINE
  5
1f8
100
AcDbEntity
  8
Ebene_1
 62
7
100
AcDbPolyline
 90
1
 70
1
 10
187.847300
 20
47.000920
 30
0.0
  0
LWPOLYLINE
  5
1f9
100
AcDbEntity
  8
Ebene_1
 62
7
100
AcDbPolyline
 90
10
 70
1
 10
201.496380
 20
42.394000
 30
0.0
 10
206.990340
 20
42.394000
 30
0.0
 10
206.990340
 20
53.381930
 30
0.0
 10
215.546050
 20
42.394000
 30
0.0
 10
220.410500
 20
42.394000
 30
0.0
 10
220.410500
 20
62.424080
 30
0.0
 10
214.916530
 20
62.424080
 30
0.0
 10
214.916530
 20
51.836750
 30
0.0
 10
206.675590
 20
62.424080
 30
0.0
 10
201.496380
 20
62.424080
 30
0.0
  0
LWPOLYLINE
  5
1fa
100
AcDbEntity
  8
Ebene_1
 62
7
100
AcDbPolyline
 90
6
 70
1
 10
223.958690
 20
42.394000
 30
0.0
 10
239.210170
 20
42.394000
 30
0.0
 10
239.210170
 20
47.258450
 30
0.0
 10
229.509880
 20
47.258450
 30
0.0
 10
229.509880
 20
62.424080
 30
0.0
 10
223.958690
 20
62.424080
 30
0.0
  0
LWPOLYLINE
  5
1fb
100
AcDbEntity
  8
Ebene_1
 62
7
100
AcDbPolyline
 90
9
 70
1
 10
243.645340
 20
42.394000
 30
0.0
 10
249.225150
 20
42.394000
 30
0.0
 10
249.225150
 20
49.976820
 30
0.0
 10
256.836580
 20
62.424080
 30
0.0
 10
250.627250
 20
62.424080
 30
0.0
 10
246.478160
 20
55.127410
 30
0.0
 10
242.357690
 20
62.424080
 30
0.0
 10
236.033910
 20
62.424080
 30
0.0
 10
243.645340
 20
49.890970
 30
0.0
  0
LWPOLYLINE
  5
1fc
100
AcDbEntity
  8
Ebene_1
 62
7
100
AcDbPolyline
 90
6
 70
1
 10
259.984150
 20
48.918090
 30
0.0
 10
262.845590
 20
48.918090
 30
0.0
 10
264.505230
 20
59.991860
 30
0.0
 10
264.505230
 20
62.424080
 30
0.0
 10
258.324520
 20
62.424080
 30
0.0
 10
258.324520
 20
59.991860
 30
0.0
  0
LWPOLYLINE
  5
1fd
100
AcDbEntity
  8
Ebene_1
 62
7
100
AcDbPolyline
 90
4
 70
1
 10
258.582050
 20
42.394000
 30
0.0
 10
264.247700
 20
42.394000
 30
0.0
 10
264.247700
 20
47.258450
 30
0.0
 10
258.582050
 20
47.258450
 30
0.0
  0
LWPOLYLINE
  5
1fe
100
AcDbEntity
  8
Ebene_1
 62
7
100
AcDbPolyline
 90
4
 70
1
 10
19.794343
 20
73.609730
 30
0.0
 10
279.794340
 20
73.609730
 30
0.0
 10
279.794340
 20
68.609730
 30
0.0
 10
19.794343
 20
68.609730
 30
0.0
  0
LWPOLYLINE
  5
1ff
100
AcDbEntity
  8
Ebene_1
 62
7
100
AcDbPolyline
 90
18
 70
1
 10
33.244369
 20
109.208818
 30
0.0
 10
39.066011
 20
103.387177
 30
0.0
 10
39.066011
 20
84.272516
 30
0.0
 10
39.887398
 20
84.272516
 30
0.0
 10
45.367955
 20
84.272516
 30
0.0
 10
45.367955
 20
97.085232
 30
0.0
 10
50.711614
 20
91.741573
 30
0.0
 10
50.711614
 20
84.272516
 30
0.0
 10
57.013559
 20
84.272516
 30
0.0
 10
57.013559
 20
91.741573
 30
0.0
 10
62.357218
 20
97.085232
 30
0.0
 10
62.357218
 20
84.272516
 30
0.0
 10
68.661482
 20
84.272516
 30
0.0
 10
68.661482
 20
103.387177
 30
0.0
 10
74.483124
 20
109.208818
 30
0.0
 10
65.169425
 20
109.208818
 30
0.0
 10
53.862586
 20
97.901979
 30
0.0
 10
42.558067
 20
109.208818
 30
0.0
  0
LWPOLYLINE
  5
200
100
AcDbEntity
  8
Ebene_1
 62
7
100
AcDbPolyline
 90
9
 70
1
 10
76.334726
 20
99.890479
 30
0.0
 10
76.334726
 20
84.272516
 30
0.0
 10
77.156114
 20
84.272516
 30
0.0
 10
105.930198
 20
84.272516
 30
0.0
 10
105.930198
 20
99.890479
 30
0.0
 10
99.625933
 20
99.890479
 30
0.0
 10
99.625933
 20
90.574460
 30
0.0
 10
82.636670
 20
90.574460
 30
0.0
 10
82.636670
 20
99.890479
 30
0.0
  0
SPLINE
  5
201
100
AcDbEntity
  8
Ebene_1
 62
7
100
AcDbSpline
 70
8
 71
3
 72
8
 73
4
 74
0
 40
0
 40
0
 40
0
 40
0
 40
1
 40
1
 40
1
 40
1
 10
76.334726
 20
108.387431
 30
0.0
 10
76.334726
 20
106.910169
 30
0.0
 10
76.881522
 20
105.559799
 30
0.0
 10
77.912533
 20
104.500923
 30
0.0
  0
LWPOLYLINE
  5
202
100
AcDbEntity
  8
Ebene_1
 62
7
100
AcDbPolyline
 90
2
 70
0
 10
76.334726
 20
109.208818
 30
0.0
 10
76.334726
 20
108.387431
 30
0.0
  0
SPLINE
  5
203
100
AcDbEntity
  8
Ebene_1
 62
7
100
AcDbSpline
 70
8
 71
3
 72
8
 73
4
 74
0
 40
0
 40
0
 40
0
 40
0
 40
1
 40
1
 40
1
 40
1
 10
77.921799
 20
104.493914
 30
0.0
 10
78.960942
 20
103.454772
 30
0.0
 10
80.317287
 20
102.906827
 30
0.0
 10
81.815269
 20
102.906827
 30
0.0
  0
LWPOLYLINE
  5
204
100
AcDbEntity
  8
Ebene_1
 62
7
100
AcDbPolyline
 90
3
 70
0
 10
77.912533
 20
104.500923
 30
0.0
 10
77.917166
 20
104.496290
 30
0.0
 10
77.921799
 20
104.493914
 30
0.0
  0
SPLINE
  5
205
100
AcDbEntity
  8
Ebene_1
 62
7
100
AcDbSpline
 70
8
 71
3
 72
8
 73
4
 74
0
 40
0
 40
0
 40
0
 40
0
 40
1
 40
1
 40
1
 40
1
 10
100.449627
 20
102.906827
 30
0.0
 10
101.906304
 20
102.906827
 30
0.0
 10
103.240397
 20
103.456137
 30
0.0
 10
104.296690
 20
104.484633
 30
0.0
  0
SPLINE
  5
206
100
AcDbEntity
  8
Ebene_1
 62
7
100
AcDbSpline
 70
8
 71
3
 72
8
 73
4
 74
0
 40
0
 40
0
 40
0
 40
0
 40
1
 40
1
 40
1
 40
1
 10
104.296690
 20
104.484633
 30
0.0
 10
105.361917
 20
105.521828
 30
0.0
 10
105.930183
 20
106.884327
 30
0.0
 10
105.930183
 20
108.387384
 30
0.0
  0
LWPOLYLINE
  5
207
100
AcDbEntity
  8
Ebene_1
 62
7
100
AcDbPolyline
 90
2
 70
0
 10
81.815269
 20
102.906827
 30
0.0
 10
100.449627
 20
102.906827
 30
0.0
  0
LWPOLYLINE
  5
208
100
AcDbEntity
  8
Ebene_1
 62
7
100
AcDbPolyline
 90
3
 70
0
 10
105.930183
 20
108.387384
 30
0.0
 10
105.930183
 20
109.208771
 30
0.0
 10
76.334726
 20
109.208818
 30
0.0
  0
SPLINE
  5
209
100
AcDbEntity
  8
Ebene_1
 62
7
100
AcDbSpline
 70
8
 71
3
 72
8
 73
4
 74
0
 40
0
 40
0
 40
0
 40
0
 40
1
 40
1
 40
1
 40
1
 10
108.944267
 20
108.387431
 30
0.0
 10
108.944267
 20
106.910169
 30
0.0
 10
109.493382
 20
105.559799
 30
0.0
 10
110.524396
 20
104.500923
 30
0.0
  0
LWPOLYLINE
  5
20a
100
AcDbEntity
  8
Ebene_1
 62
7
100
AcDbPolyline
 90
2
 70
0
 10
108.944267
 20
109.208818
 30
0.0
 10
108.944267
 20
108.387431
 30
0.0
  0
SPLINE
  5
20b
100
AcDbEntity
  8
Ebene_1
 62
7
100
AcDbSpline
 70
8
 71
3
 72
8
 73
4
 74
0
 40
0
 40
0
 40
0
 40
0
 40
1
 40
1
 40
1
 40
1
 10
110.531524
 20
104.493914
 30
0.0
 10
111.570663
 20
103.454772
 30
0.0
 10
112.927021
 20
102.906827
 30
0.0
 10
114.425000
 20
102.906827
 30
0.0
  0
LWPOLYLINE
  5
20c
100
AcDbEntity
  8
Ebene_1
 62
7
100
AcDbPolyline
 90
3
 70
0
 10
110.524396
 20
104.500923
 30
0.0
 10
110.526772
 20
104.496290
 30
0.0
 10
110.531524
 20
104.493914
 30
0.0
  0
SPLINE
  5
20d
100
AcDbEntity
  8
Ebene_1
 62
7
100
AcDbSpline
 70
8
 71
3
 72
8
 73
4
 74
0
 40
0
 40
0
 40
0
 40
0
 40
1
 40
1
 40
1
 40
1
 10
132.235642
 20
92.082611
 30
0.0
 10
132.235642
 20
91.624386
 30
0.0
 10
132.107243
 20
91.319257
 30
0.0
 10
131.790143
 20
90.999028
 30
0.0
  0
SPLINE
  5
20e
100
AcDbEntity
  8
Ebene_1
 62
7
100
AcDbSpline
 70
8
 71
3
 72
8
 73
4
 74
0
 40
0
 40
0
 40
0
 40
0
 40
1
 40
1
 40
1
 40
1
 10
131.790143
 20
90.999028
 30
0.0
 10
131.468969
 20
90.698362
 30
0.0
 10
131.166137
 20
90.574413
 30
0.0
 10
130.729762
 20
90.574413
 30
0.0
  0
LWPOLYLINE
  5
20f
100
AcDbEntity
  8
Ebene_1
 62
7
100
AcDbPolyline
 90
3
 70
0
 10
114.425000
 20
102.906827
 30
0.0
 10
132.235642
 20
102.906827
 30
0.0
 10
132.235642
 20
92.082611
 30
0.0
  0
SPLINE
  5
210
100
AcDbEntity
  8
Ebene_1
 62
7
100
AcDbSpline
 70
8
 71
3
 72
8
 73
4
 74
0
 40
0
 40
0
 40
0
 40
0
 40
1
 40
1
 40
1
 40
1
 10
133.059350
 20
84.272469
 30
0.0
 10
134.516023
 20
84.272469
 30
0.0
 10
135.852434
 20
84.821780
 30
0.0
 10
136.908740
 20
85.850275
 30
0.0
  0
SPLINE
  5
211
100
AcDbEntity
  8
Ebene_1
 62
7
100
AcDbSpline
 70
8
 71
3
 72
8
 73
4
 74
0
 40
0
 40
0
 40
0
 40
0
 40
1
 40
1
 40
1
 40
1
 10
136.908740
 20
85.850275
 30
0.0
 10
137.973956
 20
86.887470
 30
0.0
 10
138.539906
 20
88.249970
 30
0.0
 10
138.539906
 20
89.753026
 30
0.0
  0
LWPOLYLINE
  5
212
100
AcDbEntity
  8
Ebene_1
 62
7
100
AcDbPolyline
 90
7
 70
0
 10
130.729762
 20
90.574413
 30
0.0
 10
115.246381
 20
90.574413
 30
0.0
 10
115.246381
 20
99.890432
 30
0.0
 10
108.944433
 20
99.890432
 30
0.0
 10
108.944433
 20
84.272469
 30
0.0
 10
109.765825
 20
84.272469
 30
0.0
 10
133.059350
 20
84.272469
 30
0.0
  0
LWPOLYLINE
  5
213
100
AcDbEntity
  8
Ebene_1
 62
7
100
AcDbPolyline
 90
3
 70
0
 10
138.539906
 20
89.753026
 30
0.0
 10
138.539906
 20
109.208818
 30
0.0
 10
108.944267
 20
109.208818
 30
0.0
  0
SPLINE
  5
214
100
AcDbEntity
  8
Ebene_1
 62
7
100
AcDbSpline
 70
8
 71
3
 72
8
 73
4
 74
0
 40
0
 40
0
 40
0
 40
0
 40
1
 40
1
 40
1
 40
1
 10
141.553814
 20
89.753073
 30
0.0
 10
141.553814
 20
88.275812
 30
0.0
 10
142.102929
 20
86.925441
 30
0.0
 10
143.133943
 20
85.866565
 30
0.0
  0
LWPOLYLINE
  5
215
100
AcDbEntity
  8
Ebene_1
 62
7
100
AcDbPolyline
 90
2
 70
0
 10
141.553814
 20
90.574460
 30
0.0
 10
141.553814
 20
89.753073
 30
0.0
  0
SPLINE
  5
216
100
AcDbEntity
  8
Ebene_1
 62
7
100
AcDbSpline
 70
8
 71
3
 72
8
 73
4
 74
0
 40
0
 40
0
 40
0
 40
0
 40
1
 40
1
 40
1
 40
1
 10
143.141071
 20
85.859556
 30
0.0
 10
144.180211
 20
84.820414
 30
0.0
 10
145.536557
 20
84.272469
 30
0.0
 10
147.034536
 20
84.272469
 30
0.0
  0
LWPOLYLINE
  5
217
100
AcDbEntity
  8
Ebene_1
 62
7
100
AcDbPolyline
 90
3
 70
0
 10
143.133943
 20
85.866565
 30
0.0
 10
143.136319
 20
85.861932
 30
0.0
 10
143.141071
 20
85.859556
 30
0.0
  0
SPLINE
  5
218
100
AcDbEntity
  8
Ebene_1
 62
7
100
AcDbSpline
 70
8
 71
3
 72
8
 73
4
 74
0
 40
0
 40
0
 40
0
 40
0
 40
1
 40
1
 40
1
 40
1
 10
165.668897
 20
84.272469
 30
0.0
 10
167.125570
 20
84.272469
 30
0.0
 10
168.461982
 20
84.821780
 30
0.0
 10
169.518288
 20
85.850275
 30
0.0
  0
SPLINE
  5
219
100
AcDbEntity
  8
Ebene_1
 62
7
100
AcDbSpline
 70
8
 71
3
 72
8
 73
4
 74
0
 40
0
 40
0
 40
0
 40
0
 40
1
 40
1
 40
1
 40
1
 10
169.518288
 20
85.850275
 30
0.0
 10
170.583504
 20
86.887470
 30
0.0
 10
171.149453
 20
88.249970
 30
0.0
 10
171.149453
 20
89.753026
 30
0.0
  0
LWPOLYLINE
  5
21a
100
AcDbEntity
  8
Ebene_1
 62
7
100
AcDbPolyline
 90
2
 70
0
 10
147.034536
 20
84.272469
 30
0.0
 10
165.668897
 20
84.272469
 30
0.0
  0
LWPOLYLINE
  5
21b
100
AcDbEntity
  8
Ebene_1
 62
7
100
AcDbPolyline
 90
3
 70
0
 10
171.149453
 20
89.753026
 30
0.0
 10
171.149453
 20
90.574413
 30
0.0
 10
141.553814
 20
90.574460
 30
0.0
  0
SPLINE
  5
21c
100
AcDbEntity
  8
Ebene_1
 62
7
100
AcDbSpline
 70
8
 71
3
 72
8
 73
4
 74
0
 40
0
 40
0
 40
0
 40
0
 40
1
 40
1
 40
1
 40
1
 10
141.553814
 20
99.069092
 30
0.0
 10
141.553814
 20
97.591830
 30
0.0
 10
142.102929
 20
96.243780
 30
0.0
 10
143.133943
 20
95.184904
 30
0.0
  0
LWPOLYLINE
  5
21d
100
AcDbEntity
  8
Ebene_1
 62
7
100
AcDbPolyline
 90
2
 70
0
 10
141.553814
 20
99.890479
 30
0.0
 10
141.553814
 20
99.069092
 30
0.0
  0
SPLINE
  5
21e
100
AcDbEntity
  8
Ebene_1
 62
7
100
AcDbSpline
 70
8
 71
3
 72
8
 73
4
 74
0
 40
0
 40
0
 40
0
 40
0
 40
1
 40
1
 40
1
 40
1
 10
143.141071
 20
95.175638
 30
0.0
 10
144.180211
 20
94.136496
 30
0.0
 10
145.536557
 20
93.588551
 30
0.0
 10
147.034536
 20
93.588551
 30
0.0
  0
LWPOLYLINE
  5
21f
100
AcDbEntity
  8
Ebene_1
 62
7
100
AcDbPolyline
 90
3
 70
0
 10
143.133943
 20
95.184904
 30
0.0
 10
143.136319
 20
95.180271
 30
0.0
 10
143.141071
 20
95.175638
 30
0.0
  0
SPLINE
  5
220
100
AcDbEntity
  8
Ebene_1
 62
7
100
AcDbSpline
 70
8
 71
3
 72
8
 73
4
 74
0
 40
0
 40
0
 40
0
 40
0
 40
1
 40
1
 40
1
 40
1
 10
165.668897
 20
93.588551
 30
0.0
 10
167.125570
 20
93.588551
 30
0.0
 10
168.461982
 20
94.140182
 30
0.0
 10
169.518288
 20
95.168677
 30
0.0
  0
SPLINE
  5
221
100
AcDbEntity
  8
Ebene_1
 62
7
100
AcDbSpline
 70
8
 71
3
 72
8
 73
4
 74
0
 40
0
 40
0
 40
0
 40
0
 40
1
 40
1
 40
1
 40
1
 10
169.518288
 20
95.168677
 30
0.0
 10
170.583504
 20
96.205873
 30
0.0
 10
171.149453
 20
97.566051
 30
0.0
 10
171.149453
 20
99.069107
 30
0.0
  0
LWPOLYLINE
  5
222
100
AcDbEntity
  8
Ebene_1
 62
7
100
AcDbPolyline
 90
2
 70
0
 10
147.034536
 20
93.588551
 30
0.0
 10
165.668897
 20
93.588551
 30
0.0
  0
LWPOLYLINE
  5
223
100
AcDbEntity
  8
Ebene_1
 62
7
100
AcDbPolyline
 90
3
 70
0
 10
171.149453
 20
99.069107
 30
0.0
 10
171.149453
 20
99.890495
 30
0.0
 10
141.553814
 20
99.890479
 30
0.0
  0
SPLINE
  5
224
100
AcDbEntity
  8
Ebene_1
 62
7
100
AcDbSpline
 70
8
 71
3
 72
8
 73
4
 74
0
 40
0
 40
0
 40
0
 40
0
 40
1
 40
1
 40
1
 40
1
 10
141.553814
 20
108.387431
 30
0.0
 10
141.553814
 20
106.910169
 30
0.0
 10
142.102929
 20
105.559799
 30
0.0
 10
143.133943
 20
104.500923
 30
0.0
  0
LWPOLYLINE
  5
225
100
AcDbEntity
  8
Ebene_1
 62
7
100
AcDbPolyline
 90
2
 70
0
 10
141.553814
 20
109.208818
 30
0.0
 10
141.553814
 20
108.387431
 30
0.0
  0
SPLINE
  5
226
100
AcDbEntity
  8
Ebene_1
 62
7
100
AcDbSpline
 70
8
 71
3
 72
8
 73
4
 74
0
 40
0
 40
0
 40
0
 40
0
 40
1
 40
1
 40
1
 40
1
 10
143.141071
 20
104.493914
 30
0.0
 10
144.180211
 20
103.454772
 30
0.0
 10
145.536557
 20
102.906827
 30
0.0
 10
147.034536
 20
102.906827
 30
0.0
  0
LWPOLYLINE
  5
227
100
AcDbEntity
  8
Ebene_1
 62
7
100
AcDbPolyline
 90
3
 70
0
 10
143.133943
 20
104.500923
 30
0.0
 10
143.136319
 20
104.496290
 30
0.0
 10
143.141071
 20
104.493914
 30
0.0
  0
SPLINE
  5
228
100
AcDbEntity
  8
Ebene_1
 62
7
100
AcDbSpline
 70
8
 71
3
 72
8
 73
4
 74
0
 40
0
 40
0
 40
0
 40
0
 40
1
 40
1
 40
1
 40
1
 10
165.668897
 20
102.906827
 30
0.0
 10
167.125570
 20
102.906827
 30
0.0
 10
168.461982
 20
103.456138
 30
0.0
 10
169.518288
 20
104.484633
 30
0.0
  0
SPLINE
  5
229
100
AcDbEntity
  8
Ebene_1
 62
7
100
AcDbSpline
 70
8
 71
3
 72
8
 73
4
 74
0
 40
0
 40
0
 40
0
 40
0
 40
1
 40
1
 40
1
 40
1
 10
169.518288
 20
104.484633
 30
0.0
 10
170.583504
 20
105.521829
 30
0.0
 10
171.149453
 20
106.884327
 30
0.0
 10
171.149453
 20
108.387384
 30
0.0
  0
LWPOLYLINE
  5
22a
100
AcDbEntity
  8
Ebene_1
 62
7
100
AcDbPolyline
 90
2
 70
0
 10
147.034536
 20
102.906827
 30
0.0
 10
165.668897
 20
102.906827
 30
0.0
  0
LWPOLYLINE
  5
22b
100
AcDbEntity
  8
Ebene_1
 62
7
100
AcDbPolyline
 90
3
 70
0
 10
171.149453
 20
108.387384
 30
0.0
 10
171.149453
 20
109.208771
 30
0.0
 10
141.553814
 20
109.208818
 30
0.0
  0
SPLINE
  5
22c
100
AcDbEntity
  8
Ebene_1
 62
7
100
AcDbSpline
 70
8
 71
3
 72
8
 73
4
 74
0
 40
0
 40
0
 40
0
 40
0
 40
1
 40
1
 40
1
 40
1
 10
198.278279
 20
84.272516
 30
0.0
 10
199.734951
 20
84.272516
 30
0.0
 10
201.071363
 20
84.821828
 30
0.0
 10
202.127657
 20
85.850323
 30
0.0
  0
SPLINE
  5
22d
100
AcDbEntity
  8
Ebene_1
 62
7
100
AcDbSpline
 70
8
 71
3
 72
8
 73
4
 74
0
 40
0
 40
0
 40
0
 40
0
 40
1
 40
1
 40
1
 40
1
 10
202.127657
 20
85.850323
 30
0.0
 10
203.192885
 20
86.887518
 30
0.0
 10
203.758834
 20
88.250018
 30
0.0
 10
203.758834
 20
89.753073
 30
0.0
  0
LWPOLYLINE
  5
22e
100
AcDbEntity
  8
Ebene_1
 62
7
100
AcDbPolyline
 90
4
 70
0
 10
174.163362
 20
109.208818
 30
0.0
 10
174.163362
 20
84.272516
 30
0.0
 10
174.984754
 20
84.272516
 30
0.0
 10
198.278279
 20
84.272516
 30
0.0
  0
LWPOLYLINE
  5
22f
100
AcDbEntity
  8
Ebene_1
 62
7
100
AcDbPolyline
 90
5
 70
0
 10
203.758834
 20
89.753073
 30
0.0
 10
203.758834
 20
90.574460
 30
0.0
 10
180.465309
 20
90.574460
 30
0.0
 10
180.465309
 20
109.208818
 30
0.0
 10
174.163362
 20
109.208818
 30
0.0
  0
LWPOLYLINE
  5
230
100
AcDbEntity
  8
Ebene_1
 62
7
100
AcDbPolyline
 90
14
 70
1
 10
174.678747
 20
158.382820
 30
0.0
 10
174.678747
 20
141.854498
 30
0.0
 10
211.587374
 20
106.479601
 30
0.0
 10
211.587374
 20
84.272406
 30
0.0
 10
213.340553
 20
84.272406
 30
0.0
 10
229.854881
 20
84.272406
 30
0.0
 10
229.854881
 20
106.479601
 30
0.0
 10
266.763507
 20
141.854498
 30
0.0
 10
266.763507
 20
158.382820
 30
0.0
 10
248.495880
 20
158.382820
 30
0.0
 10
248.495880
 20
150.323502
 30
0.0
 10
220.721182
 20
123.702882
 30
0.0
 10
192.946364
 20
150.323502
 30
0.0
 10
192.946364
 20
158.382820
 30
0.0
  0
SPLINE
  5
231
100
AcDbEntity
  8
Ebene_1
 62
7
100
AcDbSpline
 70
8
 71
3
 72
8
 73
4
 74
0
 40
0
 40
0
 40
0
 40
0
 40
1
 40
1
 40
1
 40
1
 10
42.218853
 20
131.875304
 30
0.0
 10
40.146823
 20
131.875304
 30
0.0
 10
38.270262
 20
131.095226
 30
0.0
 10
36.791476
 20
129.623670
 30
0.0
  0
SPLINE
  5
232
100
AcDbEntity
  8
Ebene_1
 62
7
100
AcDbSpline
 70
8
 71
3
 72
8
 73
4
 74
0
 40
0
 40
0
 40
0
 40
0
 40
1
 40
1
 40
1
 40
1
 10
36.791476
 20
129.623670
 30
0.0
 10
35.343035
 20
128.182299
 30
0.0
 10
34.579761
 20
126.331832
 30
0.0
 10
34.579761
 20
124.276036
 30
0.0
  0
LWPOLYLINE
  5
233
100
AcDbEntity
  8
Ebene_1
 62
7
100
AcDbPolyline
 90
5
 70
0
 10
34.579761
 20
158.382726
 30
0.0
 10
34.579761
 20
136.556067
 30
0.0
 10
67.875283
 20
136.556067
 30
0.0
 10
67.875283
 20
131.875304
 30
0.0
 10
42.218853
 20
131.875304
 30
0.0
  0
SPLINE
  5
234
100
AcDbEntity
  8
Ebene_1
 62
7
100
AcDbSpline
 70
8
 71
3
 72
8
 73
4
 74
0
 40
0
 40
0
 40
0
 40
0
 40
1
 40
1
 40
1
 40
1
 10
68.853739
 20
149.807244
 30
0.0
 10
70.889318
 20
149.807244
 30
0.0
 10
72.742187
 20
150.568697
 30
0.0
 10
74.219956
 20
152.000559
 30
0.0
  0
SPLINE
  5
235
100
AcDbEntity
  8
Ebene_1
 62
7
100
AcDbSpline
 70
8
 71
3
 72
8
 73
4
 74
0
 40
0
 40
0
 40
0
 40
0
 40
1
 40
1
 40
1
 40
1
 10
74.219956
 20
152.000559
 30
0.0
 10
75.708370
 20
153.442723
 30
0.0
 10
76.492830
 20
155.316924
 30
0.0
 10
76.492830
 20
157.409046
 30
0.0
  0
LWPOLYLINE
  5
236
100
AcDbEntity
  8
Ebene_1
 62
7
100
AcDbPolyline
 90
8
 70
0
 10
34.579761
 20
124.276036
 30
0.0
 10
34.579761
 20
123.302356
 30
0.0
 10
35.558217
 20
123.302356
 30
0.0
 10
76.492830
 20
123.302356
 30
0.0
 10
76.492830
 20
145.129015
 30
0.0
 10
43.197309
 20
145.129015
 30
0.0
 10
43.197309
 20
149.807244
 30
0.0
 10
68.853739
 20
149.807244
 30
0.0
  0
LWPOLYLINE
  5
237
100
AcDbEntity
  8
Ebene_1
 62
7
100
AcDbPolyline
 90
3
 70
0
 10
76.492830
 20
157.409046
 30
0.0
 10
76.492830
 20
158.382726
 30
0.0
 10
34.579761
 20
158.382726
 30
0.0
  0
SPLINE
  5
238
100
AcDbEntity
  8
Ebene_1
 62
7
100
AcDbSpline
 70
8
 71
3
 72
8
 73
4
 74
0
 40
0
 40
0
 40
0
 40
0
 40
1
 40
1
 40
1
 40
1
 10
81.194011
 20
130.901625
 30
0.0
 10
81.194011
 20
128.845830
 30
0.0
 10
81.953658
 20
126.984506
 30
0.0
 10
83.395536
 20
125.510886
 30
0.0
  0
LWPOLYLINE
  5
239
100
AcDbEntity
  8
Ebene_1
 62
7
100
AcDbPolyline
 90
2
 70
0
 10
81.194011
 20
131.875304
 30
0.0
 10
81.194011
 20
130.901625
 30
0.0
  0
SPLINE
  5
23a
100
AcDbEntity
  8
Ebene_1
 62
7
100
AcDbSpline
 70
8
 71
3
 72
8
 73
4
 74
0
 40
0
 40
0
 40
0
 40
0
 40
1
 40
1
 40
1
 40
1
 10
83.405973
 20
125.503226
 30
0.0
 10
84.857532
 20
124.058755
 30
0.0
 10
86.734458
 20
123.302303
 30
0.0
 10
88.830793
 20
123.302303
 30
0.0
  0
LWPOLYLINE
  5
23b
100
AcDbEntity
  8
Ebene_1
 62
7
100
AcDbPolyline
 90
3
 70
0
 10
83.395536
 20
125.510886
 30
0.0
 10
83.400755
 20
125.508289
 30
0.0
 10
83.405973
 20
125.503226
 30
0.0
  0
SPLINE
  5
23c
100
AcDbEntity
  8
Ebene_1
 62
7
100
AcDbSpline
 70
8
 71
3
 72
8
 73
4
 74
0
 40
0
 40
0
 40
0
 40
0
 40
1
 40
1
 40
1
 40
1
 10
115.468236
 20
123.302303
 30
0.0
 10
117.503815
 20
123.302303
 30
0.0
 10
119.354128
 20
124.061222
 30
0.0
 10
120.831909
 20
125.493083
 30
0.0
  0
SPLINE
  5
23d
100
AcDbEntity
  8
Ebene_1
 62
7
100
AcDbSpline
 70
8
 71
3
 72
8
 73
4
 74
0
 40
0
 40
0
 40
0
 40
0
 40
1
 40
1
 40
1
 40
1
 10
120.831909
 20
125.493083
 30
0.0
 10
122.320310
 20
126.935248
 30
0.0
 10
123.104784
 20
128.809450
 30
0.0
 10
123.104784
 20
130.901571
 30
0.0
  0
LWPOLYLINE
  5
23e
100
AcDbEntity
  8
Ebene_1
 62
7
100
AcDbPolyline
 90
2
 70
0
 10
88.830793
 20
123.302303
 30
0.0
 10
115.468236
 20
123.302303
 30
0.0
  0
LWPOLYLINE
  5
23f
100
AcDbEntity
  8
Ebene_1
 62
7
100
AcDbPolyline
 90
3
 70
0
 10
123.104784
 20
130.901571
 30
0.0
 10
123.104784
 20
131.875251
 30
0.0
 10
81.194011
 20
131.875304
 30
0.0
  0
SPLINE
  5
240
100
AcDbEntity
  8
Ebene_1
 62
7
100
AcDbSpline
 70
8
 71
3
 72
8
 73
4
 74
0
 40
0
 40
0
 40
0
 40
0
 40
1
 40
1
 40
1
 40
1
 10
81.194011
 20
144.155335
 30
0.0
 10
81.194011
 20
142.099543
 30
0.0
 10
81.953658
 20
140.238217
 30
0.0
 10
83.395536
 20
138.764597
 30
0.0
  0
LWPOLYLINE
  5
241
100
AcDbEntity
  8
Ebene_1
 62
7
100
AcDbPolyline
 90
2
 70
0
 10
81.194011
 20
145.129015
 30
0.0
 10
81.194011
 20
144.155335
 30
0.0
  0
SPLINE
  5
242
100
AcDbEntity
  8
Ebene_1
 62
7
100
AcDbSpline
 70
8
 71
3
 72
8
 73
4
 74
0
 40
0
 40
0
 40
0
 40
0
 40
1
 40
1
 40
1
 40
1
 10
83.405973
 20
138.756937
 30
0.0
 10
84.857532
 20
137.312466
 30
0.0
 10
86.734458
 20
136.556014
 30
0.0
 10
88.830793
 20
136.556014
 30
0.0
  0
LWPOLYLINE
  5
243
100
AcDbEntity
  8
Ebene_1
 62
7
100
AcDbPolyline
 90
3
 70
0
 10
83.395536
 20
138.764597
 30
0.0
 10
83.400755
 20
138.759533
 30
0.0
 10
83.405973
 20
138.756937
 30
0.0
  0
SPLINE
  5
244
100
AcDbEntity
  8
Ebene_1
 62
7
100
AcDbSpline
 70
8
 71
3
 72
8
 73
4
 74
0
 40
0
 40
0
 40
0
 40
0
 40
1
 40
1
 40
1
 40
1
 10
115.468236
 20
136.556014
 30
0.0
 10
117.503815
 20
136.556014
 30
0.0
 10
119.354128
 20
137.314932
 30
0.0
 10
120.831909
 20
138.746794
 30
0.0
  0
SPLINE
  5
245
100
AcDbEntity
  8
Ebene_1
 62
7
100
AcDbSpline
 70
8
 71
3
 72
8
 73
4
 74
0
 40
0
 40
0
 40
0
 40
0
 40
1
 40
1
 40
1
 40
1
 10
120.831909
 20
138.746794
 30
0.0
 10
122.320310
 20
140.188959
 30
0.0
 10
123.104784
 20
142.063161
 30
0.0
 10
123.104784
 20
144.155282
 30
0.0
  0
LWPOLYLINE
  5
246
100
AcDbEntity
  8
Ebene_1
 62
7
100
AcDbPolyline
 90
2
 70
0
 10
88.830793
 20
136.556014
 30
0.0
 10
115.468236
 20
136.556014
 30
0.0
  0
LWPOLYLINE
  5
247
100
AcDbEntity
  8
Ebene_1
 62
7
100
AcDbPolyline
 90
3
 70
0
 10
123.104784
 20
144.155282
 30
0.0
 10
123.104784
 20
145.128962
 30
0.0
 10
81.194011
 20
145.129015
 30
0.0
  0
SPLINE
  5
248
100
AcDbEntity
  8
Ebene_1
 62
7
100
AcDbSpline
 70
8
 71
3
 72
8
 73
4
 74
0
 40
0
 40
0
 40
0
 40
0
 40
1
 40
1
 40
1
 40
1
 10
81.194011
 20
157.409046
 30
0.0
 10
81.194011
 20
155.353253
 30
0.0
 10
81.953658
 20
153.491928
 30
0.0
 10
83.395536
 20
152.018309
 30
0.0
  0
LWPOLYLINE
  5
249
100
AcDbEntity
  8
Ebene_1
 62
7
100
AcDbPolyline
 90
2
 70
0
 10
81.194011
 20
158.382726
 30
0.0
 10
81.194011
 20
157.409046
 30
0.0
  0
SPLINE
  5
24a
100
AcDbEntity
  8
Ebene_1
 62
7
100
AcDbSpline
 70
8
 71
3
 72
8
 73
4
 74
0
 40
0
 40
0
 40
0
 40
0
 40
1
 40
1
 40
1
 40
1
 10
83.405973
 20
152.008182
 30
0.0
 10
84.857532
 20
150.563713
 30
0.0
 10
86.734458
 20
149.807261
 30
0.0
 10
88.830793
 20
149.807261
 30
0.0
  0
LWPOLYLINE
  5
24b
100
AcDbEntity
  8
Ebene_1
 62
7
100
AcDbPolyline
 90
3
 70
0
 10
83.395536
 20
152.018309
 30
0.0
 10
83.400755
 20
152.013246
 30
0.0
 10
83.405973
 20
152.008182
 30
0.0
  0
SPLINE
  5
24c
100
AcDbEntity
  8
Ebene_1
 62
7
100
AcDbSpline
 70
8
 71
3
 72
8
 73
4
 74
0
 40
0
 40
0
 40
0
 40
0
 40
1
 40
1
 40
1
 40
1
 10
115.468236
 20
149.807261
 30
0.0
 10
117.503815
 20
149.807261
 30
0.0
 10
119.354128
 20
150.568715
 30
0.0
 10
120.831909
 20
152.000576
 30
0.0
  0
SPLINE
  5
24d
100
AcDbEntity
  8
Ebene_1
 62
7
100
AcDbSpline
 70
8
 71
3
 72
8
 73
4
 74
0
 40
0
 40
0
 40
0
 40
0
 40
1
 40
1
 40
1
 40
1
 10
120.831909
 20
152.000576
 30
0.0
 10
122.320310
 20
153.442740
 30
0.0
 10
123.104784
 20
155.316943
 30
0.0
 10
123.104784
 20
157.409063
 30
0.0
  0
LWPOLYLINE
  5
24e
100
AcDbEntity
  8
Ebene_1
 62
7
100
AcDbPolyline
 90
2
 70
0
 10
88.830793
 20
149.807261
 30
0.0
 10
115.468236
 20
149.807261
 30
0.0
  0
LWPOLYLINE
  5
24f
100
AcDbEntity
  8
Ebene_1
 62
7
100
AcDbPolyline
 90
3
 70
0
 10
123.104784
 20
157.409063
 30
0.0
 10
123.104784
 20
158.382743
 30
0.0
 10
81.194011
 20
158.382726
 30
0.0
  0
LWPOLYLINE
  5
250
100
AcDbEntity
  8
Ebene_1
 62
7
100
AcDbPolyline
 90
25
 70
1
 10
127.808260
 20
158.382726
 30
0.0
 10
127.808260
 20
150.377759
 30
0.0
 10
134.754266
 20
143.465645
 30
0.0
 10
137.391517
 20
140.841274
 30
0.0
 10
127.808260
 20
131.304789
 30
0.0
 10
127.808260
 20
123.302356
 30
0.0
 10
128.786716
 20
123.302356
 30
0.0
 10
136.423251
 20
123.302356
 30
0.0
 10
136.423251
 20
127.184397
 30
0.0
 10
148.763523
 20
139.464430
 30
0.0
 10
161.103782
 20
127.184397
 30
0.0
 10
161.103782
 20
123.302356
 30
0.0
 10
162.082237
 20
123.302356
 30
0.0
 10
169.718785
 20
123.302356
 30
0.0
 10
169.718785
 20
131.304789
 30
0.0
 10
160.130427
 20
140.846345
 30
0.0
 10
162.438969
 20
143.181655
 30
0.0
 10
162.487370
 20
143.181655
 30
0.0
 10
169.718772
 20
150.377759
 30
0.0
 10
169.718772
 20
158.382726
 30
0.0
 10
161.103769
 20
158.382726
 30
0.0
 10
161.103769
 20
154.498150
 30
0.0
 10
148.763510
 20
142.218119
 30
0.0
 10
136.423238
 20
154.498150
 30
0.0
 10
136.423238
 20
158.382726
 30
0.0
  0
ENDSEC
  0
SECTION
  2
OBJECTS
  0
DICTIONARY
  5
C
330
0
100
AcDbDictionary
  3
ACAD_GROUP
350
D
  3
ACAD_MLINESTYLE
350
17
  0
DICTIONARY
  5
D
330
C
100
AcDbDictionary
  0
DICTIONARY
  5
1A
330
C
100
AcDbDictionary
  0
DICTIONARY
  5
17
330
C
100
AcDbDictionary
  3
STANDARD
350
18
  0
DICTIONARY
  5
19
330
C
100
AcDbDictionary
  0
ENDSEC
  0
EOF
