  0
SECTION
  2
HEADER
  9
$ACADVER
  1
AC1014
  9
$HANDSEED
  5
FFFF
  9
$MEASUREMENT
 70
     1
  0
ENDSEC
  0
SECTION
  2
TABLES
  0
TABLE
  2
VPORT
  5
8
330
0
100
AcDbSymbolTable
 70
     4
  0
VPORT
  5
2E
330
8
100
AcDbSymbolTableRecord
100
AcDbViewportTableRecord
  2
*ACTIVE
 70
     0
 10
0.0
 20
0.0
 11
1.0
 21
1.0
 12
210.0
 22
148.5
 13
0.0
 23
0.0
 14
10.0
 24
10.0
 15
10.0
 25
10.0
 16
0.0
 26
0.0
 36
1.0
 17
0.0
 27
0.0
 37
0.0
 40
341.0
 41
1.24
 42
50.0
 43
0.0
 44
0.0
 50
0.0
 51
0.0
 71
     0
 72
   100
 73
     1
 74
     3
 75
     0
 76
     0
 77
     0
 78
     0
  0
ENDTAB
  0
TABLE
  2
LTYPE
  5
5
330
0
100
AcDbSymbolTable
 70
     1
  0
LTYPE
  5
14
330
5
100
AcDbSymbolTableRecord
100
AcDbLinetypeTableRecord
  2
BYBLOCK
 70
     0
  3

 72
    65
 73
     0
 40
0.0
  0
LTYPE
  5
15
330
5
100
AcDbSymbolTableRecord
100
AcDbLinetypeTableRecord
  2
BYLAYER
 70
     0
  3

 72
    65
 73
     0
 40
0.0
  0
LTYPE
  5
16
330
5
100
AcDbSymbolTableRecord
100
AcDbLinetypeTableRecord
  2
CONTINUOUS
 70
     0
  3
Solid line
 72
    65
 73
     0
 40
0.0
  0
ENDTAB
  0
TABLE
  2
LAYER
  5
2
100
AcDbSymbolTable
 70
2
  0
LAYER
  5
50
100
AcDbSymbolTableRecord
100
AcDbLayerTableRecord
  2
0
 70
0
  6
CONTINUOUS
  0
LAYER
  5
51
100
AcDbSymbolTableRecord
100
AcDbLayerTableRecord
  2
Ebene_1
 70
0
  6
CONTINUOUS
  0
ENDTAB
  0
TABLE
  2
STYLE
  5
3
330
0
100
AcDbSymbolTable
 70
     1
  0
STYLE
  5
11
330
3
100
AcDbSymbolTableRecord
100
AcDbTextStyleTableRecord
  2
STANDARD
 70
     0
 40
0.0
 41
1.0
 50
0.0
 71
     0
 42
2.5
  3
txt
  4

  0
ENDTAB
  0
TABLE
  2
VIEW
  5
6
330
0
100
AcDbSymbolTable
 70
     0
  0
ENDTAB
  0
TABLE
  2
UCS
  5
7
330
0
100
AcDbSymbolTable
 70
     0
  0
ENDTAB
  0
TABLE
  2
APPID
  5
9
330
0
100
AcDbSymbolTable
 70
     2
  0
APPID
  5
12
330
9
100
AcDbSymbolTableRecord
100
AcDbRegAppTableRecord
  2
ACAD
 70
     0
  0
ENDTAB
  0
TABLE
  2
DIMSTYLE
  5
A
330
0
100
AcDbSymbolTable
 70
     1
  0
DIMSTYLE
105
27
330
A
100
AcDbSymbolTableRecord
100
AcDbDimStyleTableRecord
  2
ISO-25
 70
     0
  3

  4

  5

  6

  7

 40
1.0
 41
2.5
 42
0.625
 43
3.75
 44
1.25
 45
0.0
 46
0.0
 47
0.0
 48
0.0
140
2.5
141
2.5
142
0.0
143
0.03937007874016
144
1.0
145
0.0
146
1.0
147
0.625
 71
     0
 72
     0
 73
     0
 74
     0
 75
     0
 76
     0
 77
     1
 78
     8
170
     0
171
     3
172
     1
173
     0
174
     0
175
     0
176
     0
177
     0
178
     0
270
     2
271
     2
272
     2
273
     2
274
     3
340
11
275
     0
280
     0
281
     0
282
     0
283
     0
284
     8
285
     0
286
     0
287
     3
288
     0
  0
ENDTAB
  0
TABLE
  2
BLOCK_RECORD
  5
1
330
0
100
AcDbSymbolTable
 70
     1
  0
BLOCK_RECORD
  5
1F
330
1
100
AcDbSymbolTableRecord
100
AcDbBlockTableRecord
  2
*MODEL_SPACE
  0
BLOCK_RECORD
  5
1B
330
1
100
AcDbSymbolTableRecord
100
AcDbBlockTableRecord
  2
*PAPER_SPACE
  0
ENDTAB
  0
ENDSEC
  0
SECTION
  2
BLOCKS
  0
BLOCK
  5
20
330
1F
100
AcDbEntity
  8
0
100
AcDbBlockBegin
  2
*MODEL_SPACE
 70
     0
 10
0.0
 20
0.0
 30
0.0
  3
*MODEL_SPACE
  1

  0
ENDBLK
  5
21
330
1F
100
AcDbEntity
  8
0
100
AcDbBlockEnd
  0
BLOCK
  5
1C
330
1B
100
AcDbEntity
 67
     1
  8
0
100
AcDbBlockBegin
  2
*PAPER_SPACE
  1

  0
ENDBLK
  5
1D
330
1B
100
AcDbEntity
 67
     1
  8
0
100
AcDbBlockEnd
  0
ENDSEC
  0
SECTION
  2
ENTITIES
  0
SPLINE
  5
100
100
AcDbEntity
  8
Ebene_1
 62
7
100
AcDbSpline
 70
8
 71
3
 72
8
 73
4
 74
0
 40
0
 40
0
 40
0
 40
0
 40
1
 40
1
 40
1
 40
1
 10
46.760752
 20
288.808939
 30
0.0
 10
27.466182
 20
288.808939
 30
0.0
 10
11.825532
 20
273.189399
 30
0.0
 10
11.825532
 20
253.920889
 30
0.0
  0
LWPOLYLINE
  5
101
100
AcDbEntity
  8
Ebene_1
 62
7
100
AcDbPolyline
 90
4
 70
1
 10
0.000000
 20
299.599983
 30
0.0
 10
219.600000
 20
299.599983
 30
0.0
 10
219.600000
 20
0.000000
 30
0.0
 10
0.000000
 20
0.000000
 30
0.0
  0
SPLINE
  5
102
100
AcDbEntity
  8
Ebene_1
 62
7
100
AcDbSpline
 70
8
 71
3
 72
8
 73
4
 74
0
 40
0
 40
0
 40
0
 40
0
 40
1
 40
1
 40
1
 40
1
 10
11.825532
 20
44.074963
 30
0.0
 10
11.825532
 20
24.806433
 30
0.0
 10
27.466182
 20
9.186893
 30
0.0
 10
46.760752
 20
9.186893
 30
0.0
  0
LWPOLYLINE
  5
103
100
AcDbEntity
  8
Ebene_1
 62
7
100
AcDbPolyline
 90
2
 70
0
 10
11.825532
 20
253.920889
 30
0.0
 10
11.825532
 20
44.074963
 30
0.0
  0
SPLINE
  5
104
100
AcDbEntity
  8
Ebene_1
 62
7
100
AcDbSpline
 70
8
 71
3
 72
8
 73
4
 74
0
 40
0
 40
0
 40
0
 40
0
 40
1
 40
1
 40
1
 40
1
 10
172.839248
 20
9.186893
 30
0.0
 10
192.133818
 20
9.186893
 30
0.0
 10
207.774468
 20
24.806443
 30
0.0
 10
207.774468
 20
44.074963
 30
0.0
  0
LWPOLYLINE
  5
105
100
AcDbEntity
  8
Ebene_1
 62
7
100
AcDbPolyline
 90
2
 70
0
 10
46.760752
 20
9.186893
 30
0.0
 10
172.839248
 20
9.186893
 30
0.0
  0
SPLINE
  5
106
100
AcDbEntity
  8
Ebene_1
 62
7
100
AcDbSpline
 70
8
 71
3
 72
8
 73
4
 74
0
 40
0
 40
0
 40
0
 40
0
 40
1
 40
1
 40
1
 40
1
 10
207.774468
 20
253.920889
 30
0.0
 10
207.774468
 20
273.189399
 30
0.0
 10
192.133818
 20
288.808939
 30
0.0
 10
172.839248
 20
288.808939
 30
0.0
  0
LWPOLYLINE
  5
107
100
AcDbEntity
  8
Ebene_1
 62
7
100
AcDbPolyline
 90
2
 70
0
 10
207.774468
 20
44.074963
 30
0.0
 10
207.774468
 20
253.920889
 30
0.0
  0
LWPOLYLINE
  5
108
100
AcDbEntity
  8
Ebene_1
 62
7
100
AcDbPolyline
 90
2
 70
0
 10
172.839248
 20
288.808939
 30
0.0
 10
46.760752
 20
288.808939
 30
0.0
  0
SPLINE
  5
109
100
AcDbEntity
  8
Ebene_1
 62
7
100
AcDbSpline
 70
8
 71
3
 72
8
 73
4
 74
0
 40
0
 40
0
 40
0
 40
0
 40
1
 40
1
 40
1
 40
1
 10
172.839248
 20
281.988889
 30
0.0
 10
188.468528
 20
281.988889
 30
0.0
 10
200.945198
 20
269.529059
 30
0.0
 10
200.945198
 20
253.920889
 30
0.0
  0
LWPOLYLINE
  5
10a
100
AcDbEntity
  8
Ebene_1
 62
7
100
AcDbPolyline
 90
2
 70
0
 10
46.760752
 20
281.988889
 30
0.0
 10
172.839248
 20
281.988889
 30
0.0
  0
SPLINE
  5
10b
100
AcDbEntity
  8
Ebene_1
 62
7
100
AcDbSpline
 70
8
 71
3
 72
8
 73
4
 74
0
 40
0
 40
0
 40
0
 40
0
 40
1
 40
1
 40
1
 40
1
 10
200.945198
 20
44.074963
 30
0.0
 10
200.945198
 20
28.466783
 30
0.0
 10
188.468528
 20
16.006953
 30
0.0
 10
172.839248
 20
16.006953
 30
0.0
  0
LWPOLYLINE
  5
10c
100
AcDbEntity
  8
Ebene_1
 62
7
100
AcDbPolyline
 90
2
 70
0
 10
200.945198
 20
253.920889
 30
0.0
 10
200.945198
 20
44.074963
 30
0.0
  0
SPLINE
  5
10d
100
AcDbEntity
  8
Ebene_1
 62
7
100
AcDbSpline
 70
8
 71
3
 72
8
 73
4
 74
0
 40
0
 40
0
 40
0
 40
0
 40
1
 40
1
 40
1
 40
1
 10
46.760752
 20
16.006953
 30
0.0
 10
31.131462
 20
16.006953
 30
0.0
 10
18.654802
 20
28.466783
 30
0.0
 10
18.654802
 20
44.074963
 30
0.0
  0
LWPOLYLINE
  5
10e
100
AcDbEntity
  8
Ebene_1
 62
7
100
AcDbPolyline
 90
2
 70
0
 10
172.839248
 20
16.006953
 30
0.0
 10
46.760752
 20
16.006953
 30
0.0
  0
SPLINE
  5
10f
100
AcDbEntity
  8
Ebene_1
 62
7
100
AcDbSpline
 70
8
 71
3
 72
8
 73
4
 74
0
 40
0
 40
0
 40
0
 40
0
 40
1
 40
1
 40
1
 40
1
 10
18.654802
 20
253.920889
 30
0.0
 10
18.654802
 20
269.529059
 30
0.0
 10
31.131462
 20
281.988889
 30
0.0
 10
46.760752
 20
281.988889
 30
0.0
  0
LWPOLYLINE
  5
110
100
AcDbEntity
  8
Ebene_1
 62
7
100
AcDbPolyline
 90
2
 70
0
 10
18.654802
 20
44.074963
 30
0.0
 10
18.654802
 20
253.920889
 30
0.0
  0
SPLINE
  5
111
100
AcDbEntity
  8
Ebene_1
 62
7
100
AcDbSpline
 70
8
 71
3
 72
8
 73
4
 74
0
 40
0
 40
0
 40
0
 40
0
 40
1
 40
1
 40
1
 40
1
 10
34.654172
 20
31.308923
 30
0.0
 10
34.654167
 20
29.928215
 30
0.0
 10
33.534880
 20
28.808933
 30
0.0
 10
32.154172
 20
28.808933
 30
0.0
  0
SPLINE
  5
112
100
AcDbEntity
  8
Ebene_1
 62
7
100
AcDbSpline
 70
8
 71
3
 72
8
 73
4
 74
0
 40
0
 40
0
 40
0
 40
0
 40
1
 40
1
 40
1
 40
1
 10
32.154172
 20
28.808933
 30
0.0
 10
30.773464
 20
28.808933
 30
0.0
 10
29.654178
 20
29.928215
 30
0.0
 10
29.654172
 20
31.308923
 30
0.0
  0
SPLINE
  5
113
100
AcDbEntity
  8
Ebene_1
 62
7
100
AcDbSpline
 70
8
 71
3
 72
8
 73
4
 74
0
 40
0
 40
0
 40
0
 40
0
 40
1
 40
1
 40
1
 40
1
 10
29.654172
 20
31.308923
 30
0.0
 10
29.654172
 20
31.971965
 30
0.0
 10
29.917564
 20
32.607849
 30
0.0
 10
30.386405
 20
33.076690
 30
0.0
  0
SPLINE
  5
114
100
AcDbEntity
  8
Ebene_1
 62
7
100
AcDbSpline
 70
8
 71
3
 72
8
 73
4
 74
0
 40
0
 40
0
 40
0
 40
0
 40
1
 40
1
 40
1
 40
1
 10
30.386405
 20
33.076690
 30
0.0
 10
30.855246
 20
33.545531
 30
0.0
 10
31.491131
 20
33.808923
 30
0.0
 10
32.154172
 20
33.808923
 30
0.0
  0
SPLINE
  5
115
100
AcDbEntity
  8
Ebene_1
 62
7
100
AcDbSpline
 70
8
 71
3
 72
8
 73
4
 74
0
 40
0
 40
0
 40
0
 40
0
 40
1
 40
1
 40
1
 40
1
 10
32.154172
 20
33.808923
 30
0.0
 10
32.817213
 20
33.808923
 30
0.0
 10
33.453098
 20
33.545531
 30
0.0
 10
33.921939
 20
33.076690
 30
0.0
  0
SPLINE
  5
116
100
AcDbEntity
  8
Ebene_1
 62
7
100
AcDbSpline
 70
8
 71
3
 72
8
 73
4
 74
0
 40
0
 40
0
 40
0
 40
0
 40
1
 40
1
 40
1
 40
1
 10
33.921939
 20
33.076690
 30
0.0
 10
34.390780
 20
32.607849
 30
0.0
 10
34.654172
 20
31.971965
 30
0.0
 10
34.654172
 20
31.308923
 30
0.0
  0
LWPOLYLINE
  5
117
100
AcDbEntity
  8
Ebene_1
 62
7
100
AcDbPolyline
 90
1
 70
1
 10
46.760752
 20
281.988889
 30
0.0
  0
SPLINE
  5
118
100
AcDbEntity
  8
Ebene_1
 62
7
100
AcDbSpline
 70
8
 71
3
 72
8
 73
4
 74
0
 40
0
 40
0
 40
0
 40
0
 40
1
 40
1
 40
1
 40
1
 10
189.567848
 20
31.600603
 30
0.0
 10
189.567853
 20
30.937559
 30
0.0
 10
189.304464
 20
30.301669
 30
0.0
 10
188.835622
 20
29.832824
 30
0.0
  0
SPLINE
  5
119
100
AcDbEntity
  8
Ebene_1
 62
7
100
AcDbSpline
 70
8
 71
3
 72
8
 73
4
 74
0
 40
0
 40
0
 40
0
 40
0
 40
1
 40
1
 40
1
 40
1
 10
188.835622
 20
29.832824
 30
0.0
 10
188.366781
 20
29.363978
 30
0.0
 10
187.730893
 20
29.100583
 30
0.0
 10
187.067848
 20
29.100583
 30
0.0
  0
SPLINE
  5
11a
100
AcDbEntity
  8
Ebene_1
 62
7
100
AcDbSpline
 70
8
 71
3
 72
8
 73
4
 74
0
 40
0
 40
0
 40
0
 40
0
 40
1
 40
1
 40
1
 40
1
 10
187.067848
 20
29.100583
 30
0.0
 10
186.404803
 20
29.100583
 30
0.0
 10
185.768916
 20
29.363978
 30
0.0
 10
185.300074
 20
29.832824
 30
0.0
  0
SPLINE
  5
11b
100
AcDbEntity
  8
Ebene_1
 62
7
100
AcDbSpline
 70
8
 71
3
 72
8
 73
4
 74
0
 40
0
 40
0
 40
0
 40
0
 40
1
 40
1
 40
1
 40
1
 10
185.300074
 20
29.832824
 30
0.0
 10
184.831233
 20
30.301669
 30
0.0
 10
184.567843
 20
30.937559
 30
0.0
 10
184.567848
 20
31.600603
 30
0.0
  0
SPLINE
  5
11c
100
AcDbEntity
  8
Ebene_1
 62
7
100
AcDbSpline
 70
8
 71
3
 72
8
 73
4
 74
0
 40
0
 40
0
 40
0
 40
0
 40
1
 40
1
 40
1
 40
1
 10
184.567848
 20
31.600603
 30
0.0
 10
184.567854
 20
32.981311
 30
0.0
 10
185.687140
 20
34.100593
 30
0.0
 10
187.067848
 20
34.100593
 30
0.0
  0
SPLINE
  5
11d
100
AcDbEntity
  8
Ebene_1
 62
7
100
AcDbSpline
 70
8
 71
3
 72
8
 73
4
 74
0
 40
0
 40
0
 40
0
 40
0
 40
1
 40
1
 40
1
 40
1
 10
187.067848
 20
34.100593
 30
0.0
 10
188.448556
 20
34.100593
 30
0.0
 10
189.567843
 20
32.981311
 30
0.0
 10
189.567848
 20
31.600603
 30
0.0
  0
LWPOLYLINE
  5
11e
100
AcDbEntity
  8
Ebene_1
 62
7
100
AcDbPolyline
 90
1
 70
1
 10
34.654172
 20
31.308923
 30
0.0
  0
SPLINE
  5
11f
100
AcDbEntity
  8
Ebene_1
 62
7
100
AcDbSpline
 70
8
 71
3
 72
8
 73
4
 74
0
 40
0
 40
0
 40
0
 40
0
 40
1
 40
1
 40
1
 40
1
 10
189.945828
 20
266.686902
 30
0.0
 10
189.945828
 20
266.023861
 30
0.0
 10
189.682436
 20
265.387976
 30
0.0
 10
189.213595
 20
264.919135
 30
0.0
  0
SPLINE
  5
120
100
AcDbEntity
  8
Ebene_1
 62
7
100
AcDbSpline
 70
8
 71
3
 72
8
 73
4
 74
0
 40
0
 40
0
 40
0
 40
0
 40
1
 40
1
 40
1
 40
1
 10
189.213595
 20
264.919135
 30
0.0
 10
188.744754
 20
264.450295
 30
0.0
 10
188.108869
 20
264.186902
 30
0.0
 10
187.445828
 20
264.186902
 30
0.0
  0
SPLINE
  5
121
100
AcDbEntity
  8
Ebene_1
 62
7
100
AcDbSpline
 70
8
 71
3
 72
8
 73
4
 74
0
 40
0
 40
0
 40
0
 40
0
 40
1
 40
1
 40
1
 40
1
 10
187.445828
 20
264.186902
 30
0.0
 10
186.782787
 20
264.186902
 30
0.0
 10
186.146902
 20
264.450295
 30
0.0
 10
185.678061
 20
264.919135
 30
0.0
  0
SPLINE
  5
122
100
AcDbEntity
  8
Ebene_1
 62
7
100
AcDbSpline
 70
8
 71
3
 72
8
 73
4
 74
0
 40
0
 40
0
 40
0
 40
0
 40
1
 40
1
 40
1
 40
1
 10
185.678061
 20
264.919135
 30
0.0
 10
185.209220
 20
265.387976
 30
0.0
 10
184.945828
 20
266.023861
 30
0.0
 10
184.945828
 20
266.686902
 30
0.0
  0
SPLINE
  5
123
100
AcDbEntity
  8
Ebene_1
 62
7
100
AcDbSpline
 70
8
 71
3
 72
8
 73
4
 74
0
 40
0
 40
0
 40
0
 40
0
 40
1
 40
1
 40
1
 40
1
 10
184.945828
 20
266.686902
 30
0.0
 10
184.945828
 20
267.349944
 30
0.0
 10
185.209220
 20
267.985828
 30
0.0
 10
185.678061
 20
268.454669
 30
0.0
  0
SPLINE
  5
124
100
AcDbEntity
  8
Ebene_1
 62
7
100
AcDbSpline
 70
8
 71
3
 72
8
 73
4
 74
0
 40
0
 40
0
 40
0
 40
0
 40
1
 40
1
 40
1
 40
1
 10
185.678061
 20
268.454669
 30
0.0
 10
186.146902
 20
268.923510
 30
0.0
 10
186.782787
 20
269.186902
 30
0.0
 10
187.445828
 20
269.186902
 30
0.0
  0
SPLINE
  5
125
100
AcDbEntity
  8
Ebene_1
 62
7
100
AcDbSpline
 70
8
 71
3
 72
8
 73
4
 74
0
 40
0
 40
0
 40
0
 40
0
 40
1
 40
1
 40
1
 40
1
 10
187.445828
 20
269.186902
 30
0.0
 10
188.108869
 20
269.186902
 30
0.0
 10
188.744754
 20
268.923510
 30
0.0
 10
189.213595
 20
268.454669
 30
0.0
  0
SPLINE
  5
126
100
AcDbEntity
  8
Ebene_1
 62
7
100
AcDbSpline
 70
8
 71
3
 72
8
 73
4
 74
0
 40
0
 40
0
 40
0
 40
0
 40
1
 40
1
 40
1
 40
1
 10
189.213595
 20
268.454669
 30
0.0
 10
189.682436
 20
267.985828
 30
0.0
 10
189.945828
 20
267.349944
 30
0.0
 10
189.945828
 20
266.686902
 30
0.0
  0
LWPOLYLINE
  5
127
100
AcDbEntity
  8
Ebene_1
 62
7
100
AcDbPolyline
 90
1
 70
1
 10
189.567848
 20
31.600603
 30
0.0
  0
SPLINE
  5
128
100
AcDbEntity
  8
Ebene_1
 62
7
100
AcDbSpline
 70
8
 71
3
 72
8
 73
4
 74
0
 40
0
 40
0
 40
0
 40
0
 40
1
 40
1
 40
1
 40
1
 10
34.945832
 20
266.686902
 30
0.0
 10
34.945832
 20
266.023861
 30
0.0
 10
34.682440
 20
265.387976
 30
0.0
 10
34.213599
 20
264.919135
 30
0.0
  0
SPLINE
  5
129
100
AcDbEntity
  8
Ebene_1
 62
7
100
AcDbSpline
 70
8
 71
3
 72
8
 73
4
 74
0
 40
0
 40
0
 40
0
 40
0
 40
1
 40
1
 40
1
 40
1
 10
34.213599
 20
264.919135
 30
0.0
 10
33.744758
 20
264.450295
 30
0.0
 10
33.108873
 20
264.186902
 30
0.0
 10
32.445832
 20
264.186902
 30
0.0
  0
SPLINE
  5
12a
100
AcDbEntity
  8
Ebene_1
 62
7
100
AcDbSpline
 70
8
 71
3
 72
8
 73
4
 74
0
 40
0
 40
0
 40
0
 40
0
 40
1
 40
1
 40
1
 40
1
 10
32.445832
 20
264.186902
 30
0.0
 10
31.782791
 20
264.186902
 30
0.0
 10
31.146906
 20
264.450295
 30
0.0
 10
30.678065
 20
264.919135
 30
0.0
  0
SPLINE
  5
12b
100
AcDbEntity
  8
Ebene_1
 62
7
100
AcDbSpline
 70
8
 71
3
 72
8
 73
4
 74
0
 40
0
 40
0
 40
0
 40
0
 40
1
 40
1
 40
1
 40
1
 10
30.678065
 20
264.919135
 30
0.0
 10
30.209224
 20
265.387976
 30
0.0
 10
29.945832
 20
266.023861
 30
0.0
 10
29.945832
 20
266.686902
 30
0.0
  0
SPLINE
  5
12c
100
AcDbEntity
  8
Ebene_1
 62
7
100
AcDbSpline
 70
8
 71
3
 72
8
 73
4
 74
0
 40
0
 40
0
 40
0
 40
0
 40
1
 40
1
 40
1
 40
1
 10
29.945832
 20
266.686902
 30
0.0
 10
29.945832
 20
267.349944
 30
0.0
 10
30.209224
 20
267.985828
 30
0.0
 10
30.678065
 20
268.454669
 30
0.0
  0
SPLINE
  5
12d
100
AcDbEntity
  8
Ebene_1
 62
7
100
AcDbSpline
 70
8
 71
3
 72
8
 73
4
 74
0
 40
0
 40
0
 40
0
 40
0
 40
1
 40
1
 40
1
 40
1
 10
30.678065
 20
268.454669
 30
0.0
 10
31.146906
 20
268.923510
 30
0.0
 10
31.782791
 20
269.186902
 30
0.0
 10
32.445832
 20
269.186902
 30
0.0
  0
SPLINE
  5
12e
100
AcDbEntity
  8
Ebene_1
 62
7
100
AcDbSpline
 70
8
 71
3
 72
8
 73
4
 74
0
 40
0
 40
0
 40
0
 40
0
 40
1
 40
1
 40
1
 40
1
 10
32.445832
 20
269.186902
 30
0.0
 10
33.108873
 20
269.186902
 30
0.0
 10
33.744758
 20
268.923510
 30
0.0
 10
34.213599
 20
268.454669
 30
0.0
  0
SPLINE
  5
12f
100
AcDbEntity
  8
Ebene_1
 62
7
100
AcDbSpline
 70
8
 71
3
 72
8
 73
4
 74
0
 40
0
 40
0
 40
0
 40
0
 40
1
 40
1
 40
1
 40
1
 10
34.213599
 20
268.454669
 30
0.0
 10
34.682440
 20
267.985828
 30
0.0
 10
34.945832
 20
267.349944
 30
0.0
 10
34.945832
 20
266.686902
 30
0.0
  0
LWPOLYLINE
  5
130
100
AcDbEntity
  8
Ebene_1
 62
7
100
AcDbPolyline
 90
1
 70
1
 10
189.945828
 20
266.686902
 30
0.0
  0
SPLINE
  5
131
100
AcDbEntity
  8
Ebene_1
 62
7
100
AcDbSpline
 70
8
 71
3
 72
8
 73
4
 74
0
 40
0
 40
0
 40
0
 40
0
 40
1
 40
1
 40
1
 40
1
 10
109.741630
 20
182.207040
 30
0.0
 10
109.597730
 20
182.966030
 30
0.0
 10
97.214431
 20
252.101083
 30
0.0
 10
97.214431
 20
252.145563
 30
0.0
  0
SPLINE
  5
132
100
AcDbEntity
  8
Ebene_1
 62
7
100
AcDbSpline
 70
8
 71
3
 72
8
 73
4
 74
0
 40
0
 40
0
 40
0
 40
0
 40
1
 40
1
 40
1
 40
1
 10
97.214431
 20
252.145563
 30
0.0
 10
97.214431
 20
252.208763
 30
0.0
 10
93.556931
 20
252.116363
 30
0.0
 10
91.718531
 20
252.006553
 30
0.0
  0
SPLINE
  5
133
100
AcDbEntity
  8
Ebene_1
 62
7
100
AcDbSpline
 70
8
 71
3
 72
8
 73
4
 74
0
 40
0
 40
0
 40
0
 40
0
 40
1
 40
1
 40
1
 40
1
 10
91.718531
 20
252.006553
 30
0.0
 10
86.247531
 20
251.680283
 30
0.0
 10
83.433631
 20
250.722203
 30
0.0
 10
82.073531
 20
248.722633
 30
0.0
  0
SPLINE
  5
134
100
AcDbEntity
  8
Ebene_1
 62
7
100
AcDbSpline
 70
8
 71
3
 72
8
 73
4
 74
0
 40
0
 40
0
 40
0
 40
0
 40
1
 40
1
 40
1
 40
1
 10
82.073531
 20
248.722633
 30
0.0
 10
81.572131
 20
247.985393
 30
0.0
 10
81.362731
 20
247.459733
 30
0.0
 10
81.143931
 20
246.388523
 30
0.0
  0
SPLINE
  5
135
100
AcDbEntity
  8
Ebene_1
 62
7
100
AcDbSpline
 70
8
 71
3
 72
8
 73
4
 74
0
 40
0
 40
0
 40
0
 40
0
 40
1
 40
1
 40
1
 40
1
 10
81.143931
 20
246.388523
 30
0.0
 10
81.054931
 20
245.953263
 30
0.0
 10
80.966031
 20
245.580933
 30
0.0
 10
80.946231
 20
245.561123
 30
0.0
  0
SPLINE
  5
136
100
AcDbEntity
  8
Ebene_1
 62
7
100
AcDbSpline
 70
8
 71
3
 72
8
 73
4
 74
0
 40
0
 40
0
 40
0
 40
0
 40
1
 40
1
 40
1
 40
1
 10
80.946231
 20
245.561123
 30
0.0
 10
80.879231
 20
245.494523
 30
0.0
 10
78.605931
 20
246.574853
 30
0.0
 10
77.466831
 20
247.214413
 30
0.0
  0
SPLINE
  5
137
100
AcDbEntity
  8
Ebene_1
 62
7
100
AcDbSpline
 70
8
 71
3
 72
8
 73
4
 74
0
 40
0
 40
0
 40
0
 40
0
 40
1
 40
1
 40
1
 40
1
 10
77.466831
 20
247.214413
 30
0.0
 10
74.059531
 20
249.127313
 30
0.0
 10
71.384531
 20
251.342173
 30
0.0
 10
69.564731
 20
253.757133
 30
0.0
  0
SPLINE
  5
138
100
AcDbEntity
  8
Ebene_1
 62
7
100
AcDbSpline
 70
8
 71
3
 72
8
 73
4
 74
0
 40
0
 40
0
 40
0
 40
0
 40
1
 40
1
 40
1
 40
1
 10
69.564731
 20
253.757133
 30
0.0
 10
69.297431
 20
254.111933
 30
0.0
 10
69.078631
 20
254.431263
 30
0.0
 10
69.078631
 20
254.466753
 30
0.0
  0
SPLINE
  5
139
100
AcDbEntity
  8
Ebene_1
 62
7
100
AcDbSpline
 70
8
 71
3
 72
8
 73
4
 74
0
 40
0
 40
0
 40
0
 40
0
 40
1
 40
1
 40
1
 40
1
 10
69.078631
 20
254.466753
 30
0.0
 10
69.078631
 20
254.502253
 30
0.0
 10
69.217131
 20
254.588563
 30
0.0
 10
69.386331
 20
254.658583
 30
0.0
  0
SPLINE
  5
13a
100
AcDbEntity
  8
Ebene_1
 62
7
100
AcDbSpline
 70
8
 71
3
 72
8
 73
4
 74
0
 40
0
 40
0
 40
0
 40
0
 40
1
 40
1
 40
1
 40
1
 10
69.386331
 20
254.658583
 30
0.0
 10
69.555431
 20
254.728683
 30
0.0
 10
70.284531
 20
255.042833
 30
0.0
 10
71.006331
 20
255.356873
 30
0.0
  0
SPLINE
  5
13b
100
AcDbEntity
  8
Ebene_1
 62
7
100
AcDbSpline
 70
8
 71
3
 72
8
 73
4
 74
0
 40
0
 40
0
 40
0
 40
0
 40
1
 40
1
 40
1
 40
1
 10
71.006331
 20
255.356873
 30
0.0
 10
79.276931
 20
258.954933
 30
0.0
 10
90.027431
 20
261.469913
 30
0.0
 10
99.675335
 20
262.063683
 30
0.0
  0
LWPOLYLINE
  5
13c
100
AcDbEntity
  8
Ebene_1
 62
7
100
AcDbPolyline
 90
1
 70
1
 10
34.945832
 20
266.686902
 30
0.0
  0
SPLINE
  5
13d
100
AcDbEntity
  8
Ebene_1
 62
7
100
AcDbSpline
 70
8
 71
3
 72
8
 73
4
 74
0
 40
0
 40
0
 40
0
 40
0
 40
1
 40
1
 40
1
 40
1
 10
105.159630
 20
256.483333
 30
0.0
 10
107.702330
 20
253.384983
 30
0.0
 10
109.810830
 20
250.881023
 30
0.0
 10
109.845230
 20
250.918943
 30
0.0
  0
SPLINE
  5
13e
100
AcDbEntity
  8
Ebene_1
 62
7
100
AcDbSpline
 70
8
 71
3
 72
8
 73
4
 74
0
 40
0
 40
0
 40
0
 40
0
 40
1
 40
1
 40
1
 40
1
 10
109.845230
 20
250.918943
 30
0.0
 10
109.879230
 20
250.956843
 30
0.0
 10
111.943330
 20
253.468513
 30
0.0
 10
114.431130
 20
256.500333
 30
0.0
  0
SPLINE
  5
13f
100
AcDbEntity
  8
Ebene_1
 62
7
100
AcDbSpline
 70
8
 71
3
 72
8
 73
4
 74
0
 40
0
 40
0
 40
0
 40
0
 40
1
 40
1
 40
1
 40
1
 10
114.431130
 20
256.500333
 30
0.0
 10
116.919130
 20
259.532133
 30
0.0
 10
118.992630
 20
262.036203
 30
0.0
 10
119.039030
 20
262.064913
 30
0.0
  0
SPLINE
  5
140
100
AcDbEntity
  8
Ebene_1
 62
7
100
AcDbSpline
 70
8
 71
3
 72
8
 73
4
 74
0
 40
0
 40
0
 40
0
 40
0
 40
1
 40
1
 40
1
 40
1
 10
119.039030
 20
262.064913
 30
0.0
 10
119.136030
 20
262.124713
 30
0.0
 10
121.205030
 20
261.991313
 30
0.0
 10
123.012430
 20
261.808653
 30
0.0
  0
SPLINE
  5
141
100
AcDbEntity
  8
Ebene_1
 62
7
100
AcDbSpline
 70
8
 71
3
 72
8
 73
4
 74
0
 40
0
 40
0
 40
0
 40
0
 40
1
 40
1
 40
1
 40
1
 10
123.012430
 20
261.808653
 30
0.0
 10
130.634230
 20
261.038213
 30
0.0
 10
138.289230
 20
259.274513
 30
0.0
 10
145.242130
 20
256.686953
 30
0.0
  0
SPLINE
  5
142
100
AcDbEntity
  8
Ebene_1
 62
7
100
AcDbSpline
 70
8
 71
3
 72
8
 73
4
 74
0
 40
0
 40
0
 40
0
 40
0
 40
1
 40
1
 40
1
 40
1
 10
145.242130
 20
256.686953
 30
0.0
 10
146.883030
 20
256.076253
 30
0.0
 10
149.522530
 20
254.986303
 30
0.0
 10
150.210930
 20
254.635103
 30
0.0
  0
LWPOLYLINE
  5
143
100
AcDbEntity
  8
Ebene_1
 62
7
100
AcDbPolyline
 90
3
 70
0
 10
99.675335
 20
262.063683
 30
0.0
 10
100.536630
 20
262.116683
 30
0.0
 10
105.159630
 20
256.483333
 30
0.0
  0
SPLINE
  5
144
100
AcDbEntity
  8
Ebene_1
 62
7
100
AcDbSpline
 70
8
 71
3
 72
8
 73
4
 74
0
 40
0
 40
0
 40
0
 40
0
 40
1
 40
1
 40
1
 40
1
 10
150.117730
 20
253.900673
 30
0.0
 10
148.505530
 20
251.684153
 30
0.0
 10
145.978130
 20
249.505953
 30
0.0
 10
142.848230
 20
247.635523
 30
0.0
  0
SPLINE
  5
145
100
AcDbEntity
  8
Ebene_1
 62
7
100
AcDbSpline
 70
8
 71
3
 72
8
 73
4
 74
0
 40
0
 40
0
 40
0
 40
0
 40
1
 40
1
 40
1
 40
1
 10
142.848230
 20
247.635523
 30
0.0
 10
141.987430
 20
247.121113
 30
0.0
 10
139.138030
 20
245.690913
 30
0.0
 10
138.749430
 20
245.578273
 30
0.0
  0
SPLINE
  5
146
100
AcDbEntity
  8
Ebene_1
 62
7
100
AcDbSpline
 70
8
 71
3
 72
8
 73
4
 74
0
 40
0
 40
0
 40
0
 40
0
 40
1
 40
1
 40
1
 40
1
 10
138.749430
 20
245.578273
 30
0.0
 10
138.589130
 20
245.531673
 30
0.0
 10
138.567630
 20
245.567073
 30
0.0
 10
138.514330
 20
245.960723
 30
0.0
  0
SPLINE
  5
147
100
AcDbEntity
  8
Ebene_1
 62
7
100
AcDbSpline
 70
8
 71
3
 72
8
 73
4
 74
0
 40
0
 40
0
 40
0
 40
0
 40
1
 40
1
 40
1
 40
1
 10
138.514330
 20
245.960723
 30
0.0
 10
138.482330
 20
246.199203
 30
0.0
 10
138.365430
 20
246.707093
 30
0.0
 10
138.255230
 20
247.089373
 30
0.0
  0
SPLINE
  5
148
100
AcDbEntity
  8
Ebene_1
 62
7
100
AcDbSpline
 70
8
 71
3
 72
8
 73
4
 74
0
 40
0
 40
0
 40
0
 40
0
 40
1
 40
1
 40
1
 40
1
 10
138.255230
 20
247.089373
 30
0.0
 10
137.387130
 20
250.099683
 30
0.0
 10
134.822230
 20
251.436403
 30
0.0
 10
128.959530
 20
251.933913
 30
0.0
  0
SPLINE
  5
149
100
AcDbEntity
  8
Ebene_1
 62
7
100
AcDbSpline
 70
8
 71
3
 72
8
 73
4
 74
0
 40
0
 40
0
 40
0
 40
0
 40
1
 40
1
 40
1
 40
1
 10
128.959530
 20
251.933913
 30
0.0
 10
127.682930
 20
252.042293
 30
0.0
 10
122.373830
 20
252.181263
 30
0.0
 10
122.307130
 20
252.108103
 30
0.0
  0
SPLINE
  5
14a
100
AcDbEntity
  8
Ebene_1
 62
7
100
AcDbSpline
 70
8
 71
3
 72
8
 73
4
 74
0
 40
0
 40
0
 40
0
 40
0
 40
1
 40
1
 40
1
 40
1
 10
122.307130
 20
252.108103
 30
0.0
 10
122.273130
 20
252.070803
 30
0.0
 10
112.024030
 20
194.576940
 30
0.0
 10
109.861030
 20
182.289020
 30
0.0
  0
LWPOLYLINE
  5
14b
100
AcDbEntity
  8
Ebene_1
 62
7
100
AcDbPolyline
 90
3
 70
0
 10
150.210930
 20
254.635103
 30
0.0
 10
150.532530
 20
254.471033
 30
0.0
 10
150.117730
 20
253.900673
 30
0.0
  0
SPLINE
  5
14c
100
AcDbEntity
  8
Ebene_1
 62
7
100
AcDbSpline
 70
8
 71
3
 72
8
 73
4
 74
0
 40
0
 40
0
 40
0
 40
0
 40
1
 40
1
 40
1
 40
1
 10
150.532930
 20
257.568383
 30
0.0
 10
140.736030
 20
261.700213
 30
0.0
 10
129.605530
 20
264.329433
 30
0.0
 10
118.500830
 20
265.134913
 30
0.0
  0
SPLINE
  5
14d
100
AcDbEntity
  8
Ebene_1
 62
7
100
AcDbSpline
 70
8
 71
3
 72
8
 73
4
 74
0
 40
0
 40
0
 40
0
 40
0
 40
1
 40
1
 40
1
 40
1
 10
118.500830
 20
265.134913
 30
0.0
 10
114.933130
 20
265.393703
 30
0.0
 10
107.521330
 20
265.478453
 30
0.0
 10
103.932330
 20
265.301503
 30
0.0
  0
SPLINE
  5
14e
100
AcDbEntity
  8
Ebene_1
 62
7
100
AcDbSpline
 70
8
 71
3
 72
8
 73
4
 74
0
 40
0
 40
0
 40
0
 40
0
 40
1
 40
1
 40
1
 40
1
 10
103.932330
 20
265.301503
 30
0.0
 10
91.494731
 20
264.688253
 30
0.0
 10
80.051831
 20
262.153533
 30
0.0
 10
69.054631
 20
257.575713
 30
0.0
  0
SPLINE
  5
14f
100
AcDbEntity
  8
Ebene_1
 62
7
100
AcDbSpline
 70
8
 71
3
 72
8
 73
4
 74
0
 40
0
 40
0
 40
0
 40
0
 40
1
 40
1
 40
1
 40
1
 10
69.054631
 20
257.575713
 30
0.0
 10
68.296931
 20
257.260333
 30
0.0
 10
67.629831
 20
257.020373
 30
0.0
 10
67.572231
 20
257.042503
 30
0.0
  0
SPLINE
  5
150
100
AcDbEntity
  8
Ebene_1
 62
7
100
AcDbSpline
 70
8
 71
3
 72
8
 73
4
 74
0
 40
0
 40
0
 40
0
 40
0
 40
1
 40
1
 40
1
 40
1
 10
67.572231
 20
257.042503
 30
0.0
 10
67.514231
 20
257.064703
 30
0.0
 10
67.040231
 20
257.944633
 30
0.0
 10
66.518131
 20
258.998083
 30
0.0
  0
SPLINE
  5
151
100
AcDbEntity
  8
Ebene_1
 62
7
100
AcDbSpline
 70
8
 71
3
 72
8
 73
4
 74
0
 40
0
 40
0
 40
0
 40
0
 40
1
 40
1
 40
1
 40
1
 10
66.518131
 20
258.998083
 30
0.0
 10
65.541231
 20
260.969033
 30
0.0
 10
65.086031
 20
261.992893
 30
0.0
 10
65.155631
 20
262.062483
 30
0.0
  0
SPLINE
  5
152
100
AcDbEntity
  8
Ebene_1
 62
7
100
AcDbSpline
 70
8
 71
3
 72
8
 73
4
 74
0
 40
0
 40
0
 40
0
 40
0
 40
1
 40
1
 40
1
 40
1
 10
65.155631
 20
262.062483
 30
0.0
 10
65.226631
 20
262.133683
 30
0.0
 10
68.094831
 20
263.217153
 30
0.0
 10
69.775931
 20
263.807963
 30
0.0
  0
SPLINE
  5
153
100
AcDbEntity
  8
Ebene_1
 62
7
100
AcDbSpline
 70
8
 71
3
 72
8
 73
4
 74
0
 40
0
 40
0
 40
0
 40
0
 40
1
 40
1
 40
1
 40
1
 10
69.775931
 20
263.807963
 30
0.0
 10
85.535431
 20
269.346603
 30
0.0
 10
102.366230
 20
271.641813
 30
0.0
 10
118.295730
 20
270.424613
 30
0.0
  0
SPLINE
  5
154
100
AcDbEntity
  8
Ebene_1
 62
7
100
AcDbSpline
 70
8
 71
3
 72
8
 73
4
 74
0
 40
0
 40
0
 40
0
 40
0
 40
1
 40
1
 40
1
 40
1
 10
118.295730
 20
270.424613
 30
0.0
 10
130.210130
 20
269.514203
 30
0.0
 10
141.438730
 20
267.001013
 30
0.0
 10
152.868830
 20
262.686483
 30
0.0
  0
SPLINE
  5
155
100
AcDbEntity
  8
Ebene_1
 62
7
100
AcDbSpline
 70
8
 71
3
 72
8
 73
4
 74
0
 40
0
 40
0
 40
0
 40
0
 40
1
 40
1
 40
1
 40
1
 10
152.868830
 20
262.686483
 30
0.0
 10
153.719830
 20
262.365273
 30
0.0
 10
154.430730
 20
262.087813
 30
0.0
 10
154.448530
 20
262.069933
 30
0.0
  0
SPLINE
  5
156
100
AcDbEntity
  8
Ebene_1
 62
7
100
AcDbSpline
 70
8
 71
3
 72
8
 73
4
 74
0
 40
0
 40
0
 40
0
 40
0
 40
1
 40
1
 40
1
 40
1
 10
154.448530
 20
262.069933
 30
0.0
 10
154.541530
 20
261.976533
 30
0.0
 10
152.256530
 20
257.205483
 30
0.0
 10
152.024930
 20
257.010533
 30
0.0
  0
SPLINE
  5
157
100
AcDbEntity
  8
Ebene_1
 62
7
100
AcDbSpline
 70
8
 71
3
 72
8
 73
4
 74
0
 40
0
 40
0
 40
0
 40
0
 40
1
 40
1
 40
1
 40
1
 10
152.024930
 20
257.010533
 30
0.0
 10
151.993930
 20
256.984333
 30
0.0
 10
151.322530
 20
257.235403
 30
0.0
 10
150.532930
 20
257.568383
 30
0.0
  0
LWPOLYLINE
  5
158
100
AcDbEntity
  8
Ebene_1
 62
7
100
AcDbPolyline
 90
3
 70
0
 10
109.861030
 20
182.289020
 30
0.0
 10
109.796030
 20
181.919890
 30
0.0
 10
109.741630
 20
182.207040
 30
0.0
  0
LWPOLYLINE
  5
159
100
AcDbEntity
  8
Ebene_1
 62
7
100
AcDbPolyline
 90
1
 70
1
 10
150.532930
 20
257.568383
 30
0.0
  0
LWPOLYLINE
  5
15a
100
AcDbEntity
  8
Ebene_1
 62
7
100
AcDbPolyline
 90
11
 70
1
 10
57.512326
 20
155.684940
 30
0.0
 10
57.512326
 20
170.624270
 30
0.0
 10
53.777493
 20
174.359100
 30
0.0
 10
59.379743
 20
174.359100
 30
0.0
 10
72.451660
 20
161.287190
 30
0.0
 10
72.451660
 20
174.359100
 30
0.0
 10
76.186494
 20
174.359100
 30
0.0
 10
76.186494
 20
155.684940
 30
0.0
 10
72.451660
 20
155.684940
 30
0.0
 10
61.247160
 20
166.889440
 30
0.0
 10
61.247160
 20
155.684940
 30
0.0
  0
SPLINE
  5
15b
100
AcDbEntity
  8
Ebene_1
 62
7
100
AcDbSpline
 70
8
 71
3
 72
8
 73
4
 74
0
 40
0
 40
0
 40
0
 40
0
 40
1
 40
1
 40
1
 40
1
 10
83.656161
 20
170.624270
 30
0.0
 10
82.605740
 20
170.624270
 30
0.0
 10
81.720662
 20
170.984137
 30
0.0
 10
81.000928
 20
171.703870
 30
0.0
  0
SPLINE
  5
15c
100
AcDbEntity
  8
Ebene_1
 62
7
100
AcDbSpline
 70
8
 71
3
 72
8
 73
4
 74
0
 40
0
 40
0
 40
0
 40
0
 40
1
 40
1
 40
1
 40
1
 10
81.000928
 20
171.703870
 30
0.0
 10
80.281195
 20
172.443057
 30
0.0
 10
79.921328
 20
173.328133
 30
0.0
 10
79.921328
 20
174.359100
 30
0.0
  0
LWPOLYLINE
  5
15d
100
AcDbEntity
  8
Ebene_1
 62
7
100
AcDbPolyline
 90
8
 70
1
 10
79.921328
 20
155.684940
 30
0.0
 10
79.921328
 20
166.889440
 30
0.0
 10
83.656161
 20
166.889440
 30
0.0
 10
83.656161
 20
159.419770
 30
0.0
 10
98.595495
 20
159.419770
 30
0.0
 10
98.595495
 20
166.889440
 30
0.0
 10
102.330330
 20
166.889440
 30
0.0
 10
102.330330
 20
155.684940
 30
0.0
  0
SPLINE
  5
15e
100
AcDbEntity
  8
Ebene_1
 62
7
100
AcDbSpline
 70
8
 71
3
 72
8
 73
4
 74
0
 40
0
 40
0
 40
0
 40
0
 40
1
 40
1
 40
1
 40
1
 10
102.330330
 20
174.359100
 30
0.0
 10
102.330330
 20
173.308680
 30
0.0
 10
101.960737
 20
172.423603
 30
0.0
 10
101.221550
 20
171.703870
 30
0.0
  0
SPLINE
  5
15f
100
AcDbEntity
  8
Ebene_1
 62
7
100
AcDbSpline
 70
8
 71
3
 72
8
 73
4
 74
0
 40
0
 40
0
 40
0
 40
0
 40
1
 40
1
 40
1
 40
1
 10
101.221550
 20
171.703870
 30
0.0
 10
100.482363
 20
170.984137
 30
0.0
 10
99.607012
 20
170.624270
 30
0.0
 10
98.595495
 20
170.624270
 30
0.0
  0
LWPOLYLINE
  5
160
100
AcDbEntity
  8
Ebene_1
 62
7
100
AcDbPolyline
 90
2
 70
0
 10
79.921328
 20
174.359100
 30
0.0
 10
102.330330
 20
174.359100
 30
0.0
  0
LWPOLYLINE
  5
161
100
AcDbEntity
  8
Ebene_1
 62
7
100
AcDbPolyline
 90
2
 70
0
 10
98.595495
 20
170.624270
 30
0.0
 10
83.656161
 20
170.624270
 30
0.0
  0
SPLINE
  5
162
100
AcDbEntity
  8
Ebene_1
 62
7
100
AcDbSpline
 70
8
 71
3
 72
8
 73
4
 74
0
 40
0
 40
0
 40
0
 40
0
 40
1
 40
1
 40
1
 40
1
 10
109.800000
 20
170.624270
 30
0.0
 10
108.749573
 20
170.624270
 30
0.0
 10
107.864493
 20
170.984137
 30
0.0
 10
107.144760
 20
171.703870
 30
0.0
  0
SPLINE
  5
163
100
AcDbEntity
  8
Ebene_1
 62
7
100
AcDbSpline
 70
8
 71
3
 72
8
 73
4
 74
0
 40
0
 40
0
 40
0
 40
0
 40
1
 40
1
 40
1
 40
1
 10
107.144760
 20
171.703870
 30
0.0
 10
106.425027
 20
172.443057
 30
0.0
 10
106.065160
 20
173.328133
 30
0.0
 10
106.065160
 20
174.359100
 30
0.0
  0
LWPOLYLINE
  5
164
100
AcDbEntity
  8
Ebene_1
 62
7
100
AcDbPolyline
 90
3
 70
0
 10
115.402250
 20
155.684940
 30
0.0
 10
115.402250
 20
170.624270
 30
0.0
 10
109.800000
 20
170.624270
 30
0.0
  0
SPLINE
  5
165
100
AcDbEntity
  8
Ebene_1
 62
7
100
AcDbSpline
 70
8
 71
3
 72
8
 73
4
 74
0
 40
0
 40
0
 40
0
 40
0
 40
1
 40
1
 40
1
 40
1
 10
128.474160
 20
174.359100
 30
0.0
 10
128.474160
 20
173.308680
 30
0.0
 10
128.104570
 20
172.423603
 30
0.0
 10
127.365390
 20
171.703870
 30
0.0
  0
SPLINE
  5
166
100
AcDbEntity
  8
Ebene_1
 62
7
100
AcDbSpline
 70
8
 71
3
 72
8
 73
4
 74
0
 40
0
 40
0
 40
0
 40
0
 40
1
 40
1
 40
1
 40
1
 10
127.365390
 20
171.703870
 30
0.0
 10
126.626203
 20
170.984137
 30
0.0
 10
125.750850
 20
170.624270
 30
0.0
 10
124.739330
 20
170.624270
 30
0.0
  0
LWPOLYLINE
  5
167
100
AcDbEntity
  8
Ebene_1
 62
7
100
AcDbPolyline
 90
2
 70
0
 10
106.065160
 20
174.359100
 30
0.0
 10
128.474160
 20
174.359100
 30
0.0
  0
LWPOLYLINE
  5
168
100
AcDbEntity
  8
Ebene_1
 62
7
100
AcDbPolyline
 90
4
 70
0
 10
124.739330
 20
170.624270
 30
0.0
 10
119.137080
 20
170.624270
 30
0.0
 10
119.137080
 20
155.684940
 30
0.0
 10
115.402250
 20
155.684940
 30
0.0
  0
SPLINE
  5
169
100
AcDbEntity
  8
Ebene_1
 62
7
100
AcDbSpline
 70
8
 71
3
 72
8
 73
4
 74
0
 40
0
 40
0
 40
0
 40
0
 40
1
 40
1
 40
1
 40
1
 10
147.148330
 20
170.624270
 30
0.0
 10
146.097910
 20
170.624270
 30
0.0
 10
145.212830
 20
170.984137
 30
0.0
 10
144.493090
 20
171.703870
 30
0.0
  0
SPLINE
  5
16a
100
AcDbEntity
  8
Ebene_1
 62
7
100
AcDbSpline
 70
8
 71
3
 72
8
 73
4
 74
0
 40
0
 40
0
 40
0
 40
0
 40
1
 40
1
 40
1
 40
1
 10
144.493090
 20
171.703870
 30
0.0
 10
143.773357
 20
172.443057
 30
0.0
 10
143.413490
 20
173.328133
 30
0.0
 10
143.413490
 20
174.359100
 30
0.0
  0
LWPOLYLINE
  5
16b
100
AcDbEntity
  8
Ebene_1
 62
7
100
AcDbPolyline
 90
8
 70
1
 10
143.413490
 20
155.684940
 30
0.0
 10
143.413490
 20
166.889440
 30
0.0
 10
165.822500
 20
166.889440
 30
0.0
 10
165.822500
 20
155.684940
 30
0.0
 10
162.087660
 20
155.684940
 30
0.0
 10
162.087660
 20
163.154600
 30
0.0
 10
147.148330
 20
163.154600
 30
0.0
 10
147.148330
 20
155.684940
 30
0.0
  0
SPLINE
  5
16c
100
AcDbEntity
  8
Ebene_1
 62
7
100
AcDbSpline
 70
8
 71
3
 72
8
 73
4
 74
0
 40
0
 40
0
 40
0
 40
0
 40
1
 40
1
 40
1
 40
1
 10
165.822500
 20
174.359100
 30
0.0
 10
165.822500
 20
173.308680
 30
0.0
 10
165.452907
 20
172.423603
 30
0.0
 10
164.713720
 20
171.703870
 30
0.0
  0
SPLINE
  5
16d
100
AcDbEntity
  8
Ebene_1
 62
7
100
AcDbSpline
 70
8
 71
3
 72
8
 73
4
 74
0
 40
0
 40
0
 40
0
 40
0
 40
1
 40
1
 40
1
 40
1
 10
164.713720
 20
171.703870
 30
0.0
 10
163.974533
 20
170.984137
 30
0.0
 10
163.099180
 20
170.624270
 30
0.0
 10
162.087660
 20
170.624270
 30
0.0
  0
LWPOLYLINE
  5
16e
100
AcDbEntity
  8
Ebene_1
 62
7
100
AcDbPolyline
 90
2
 70
0
 10
143.413490
 20
174.359100
 30
0.0
 10
165.822500
 20
174.359100
 30
0.0
  0
LWPOLYLINE
  5
16f
100
AcDbEntity
  8
Ebene_1
 62
7
100
AcDbPolyline
 90
2
 70
0
 10
162.087660
 20
170.624270
 30
0.0
 10
147.148330
 20
170.624270
 30
0.0
  0
SPLINE
  5
170
100
AcDbEntity
  8
Ebene_1
 62
7
100
AcDbSpline
 70
8
 71
3
 72
8
 73
4
 74
0
 40
0
 40
0
 40
0
 40
0
 40
1
 40
1
 40
1
 40
1
 10
64.981993
 20
137.010770
 30
0.0
 10
64.981993
 20
135.960350
 30
0.0
 10
64.612400
 20
135.075273
 30
0.0
 10
63.873215
 20
134.355540
 30
0.0
  0
SPLINE
  5
171
100
AcDbEntity
  8
Ebene_1
 62
7
100
AcDbSpline
 70
8
 71
3
 72
8
 73
4
 74
0
 40
0
 40
0
 40
0
 40
0
 40
1
 40
1
 40
1
 40
1
 10
63.873215
 20
134.355540
 30
0.0
 10
63.134029
 20
133.635807
 30
0.0
 10
62.258677
 20
133.275940
 30
0.0
 10
61.247160
 20
133.275940
 30
0.0
  0
LWPOLYLINE
  5
172
100
AcDbEntity
  8
Ebene_1
 62
7
100
AcDbPolyline
 90
5
 70
0
 10
46.307826
 20
125.806270
 30
0.0
 10
46.307826
 20
144.480440
 30
0.0
 10
50.042659
 20
144.480440
 30
0.0
 10
50.042659
 20
137.010770
 30
0.0
 10
64.981993
 20
137.010770
 30
0.0
  0
LWPOLYLINE
  5
173
100
AcDbEntity
  8
Ebene_1
 62
7
100
AcDbPolyline
 90
4
 70
0
 10
61.247160
 20
133.275940
 30
0.0
 10
50.042659
 20
133.275940
 30
0.0
 10
50.042659
 20
125.806270
 30
0.0
 10
46.307826
 20
125.806270
 30
0.0
  0
LWPOLYLINE
  5
174
100
AcDbEntity
  8
Ebene_1
 62
7
100
AcDbPolyline
 90
4
 70
1
 10
64.981993
 20
125.806270
 30
0.0
 10
64.981993
 20
144.480440
 30
0.0
 10
68.716827
 20
144.480440
 30
0.0
 10
68.716827
 20
125.806270
 30
0.0
  0
SPLINE
  5
175
100
AcDbEntity
  8
Ebene_1
 62
7
100
AcDbSpline
 70
8
 71
3
 72
8
 73
4
 74
0
 40
0
 40
0
 40
0
 40
0
 40
1
 40
1
 40
1
 40
1
 10
76.186494
 20
140.745600
 30
0.0
 10
75.136073
 20
140.745600
 30
0.0
 10
74.250995
 20
141.105467
 30
0.0
 10
73.531261
 20
141.825200
 30
0.0
  0
SPLINE
  5
176
100
AcDbEntity
  8
Ebene_1
 62
7
100
AcDbSpline
 70
8
 71
3
 72
8
 73
4
 74
0
 40
0
 40
0
 40
0
 40
0
 40
1
 40
1
 40
1
 40
1
 10
73.531261
 20
141.825200
 30
0.0
 10
72.811528
 20
142.564387
 30
0.0
 10
72.451661
 20
143.449467
 30
0.0
 10
72.451661
 20
144.480440
 30
0.0
  0
LWPOLYLINE
  5
177
100
AcDbEntity
  8
Ebene_1
 62
7
100
AcDbPolyline
 90
8
 70
1
 10
72.451661
 20
125.806270
 30
0.0
 10
72.451661
 20
137.010770
 30
0.0
 10
76.186494
 20
137.010770
 30
0.0
 10
76.186494
 20
129.541100
 30
0.0
 10
91.125828
 20
129.541100
 30
0.0
 10
91.125828
 20
137.010770
 30
0.0
 10
94.860662
 20
137.010770
 30
0.0
 10
94.860662
 20
125.806270
 30
0.0
  0
SPLINE
  5
178
100
AcDbEntity
  8
Ebene_1
 62
7
100
AcDbSpline
 70
8
 71
3
 72
8
 73
4
 74
0
 40
0
 40
0
 40
0
 40
0
 40
1
 40
1
 40
1
 40
1
 10
94.860662
 20
144.480440
 30
0.0
 10
94.860662
 20
143.430013
 30
0.0
 10
94.491069
 20
142.544933
 30
0.0
 10
93.751883
 20
141.825200
 30
0.0
  0
SPLINE
  5
179
100
AcDbEntity
  8
Ebene_1
 62
7
100
AcDbSpline
 70
8
 71
3
 72
8
 73
4
 74
0
 40
0
 40
0
 40
0
 40
0
 40
1
 40
1
 40
1
 40
1
 10
93.751883
 20
141.825200
 30
0.0
 10
93.012697
 20
141.105467
 30
0.0
 10
92.137345
 20
140.745600
 30
0.0
 10
91.125828
 20
140.745600
 30
0.0
  0
LWPOLYLINE
  5
17a
100
AcDbEntity
  8
Ebene_1
 62
7
100
AcDbPolyline
 90
2
 70
0
 10
72.451661
 20
144.480440
 30
0.0
 10
94.860662
 20
144.480440
 30
0.0
  0
LWPOLYLINE
  5
17b
100
AcDbEntity
  8
Ebene_1
 62
7
100
AcDbPolyline
 90
2
 70
0
 10
91.125828
 20
140.745600
 30
0.0
 10
76.186494
 20
140.745600
 30
0.0
  0
SPLINE
  5
17c
100
AcDbEntity
  8
Ebene_1
 62
7
100
AcDbSpline
 70
8
 71
3
 72
8
 73
4
 74
0
 40
0
 40
0
 40
0
 40
0
 40
1
 40
1
 40
1
 40
1
 10
115.402250
 20
137.010770
 30
0.0
 10
115.908003
 20
137.010770
 30
0.0
 10
116.345677
 20
137.185840
 30
0.0
 10
116.715270
 20
137.535980
 30
0.0
  0
SPLINE
  5
17d
100
AcDbEntity
  8
Ebene_1
 62
7
100
AcDbSpline
 70
8
 71
3
 72
8
 73
4
 74
0
 40
0
 40
0
 40
0
 40
0
 40
1
 40
1
 40
1
 40
1
 10
116.715270
 20
137.535980
 30
0.0
 10
117.084863
 20
137.905573
 30
0.0
 10
117.269660
 20
138.352977
 30
0.0
 10
117.269660
 20
138.878190
 30
0.0
  0
LWPOLYLINE
  5
17e
100
AcDbEntity
  8
Ebene_1
 62
7
100
AcDbPolyline
 90
3
 70
0
 10
98.595496
 20
125.806270
 30
0.0
 10
98.595496
 20
137.010770
 30
0.0
 10
115.402250
 20
137.010770
 30
0.0
  0
SPLINE
  5
17f
100
AcDbEntity
  8
Ebene_1
 62
7
100
AcDbSpline
 70
8
 71
3
 72
8
 73
4
 74
0
 40
0
 40
0
 40
0
 40
0
 40
1
 40
1
 40
1
 40
1
 10
102.330330
 20
140.745600
 30
0.0
 10
101.279910
 20
140.745600
 30
0.0
 10
100.394832
 20
141.105467
 30
0.0
 10
99.675096
 20
141.825200
 30
0.0
  0
SPLINE
  5
180
100
AcDbEntity
  8
Ebene_1
 62
7
100
AcDbSpline
 70
8
 71
3
 72
8
 73
4
 74
0
 40
0
 40
0
 40
0
 40
0
 40
1
 40
1
 40
1
 40
1
 10
99.675096
 20
141.825200
 30
0.0
 10
98.955363
 20
142.564387
 30
0.0
 10
98.595496
 20
143.449467
 30
0.0
 10
98.595496
 20
144.480440
 30
0.0
  0
LWPOLYLINE
  5
181
100
AcDbEntity
  8
Ebene_1
 62
7
100
AcDbPolyline
 90
3
 70
0
 10
117.269660
 20
138.878190
 30
0.0
 10
117.269660
 20
140.745600
 30
0.0
 10
102.330330
 20
140.745600
 30
0.0
  0
SPLINE
  5
182
100
AcDbEntity
  8
Ebene_1
 62
7
100
AcDbSpline
 70
8
 71
3
 72
8
 73
4
 74
0
 40
0
 40
0
 40
0
 40
0
 40
1
 40
1
 40
1
 40
1
 10
121.004500
 20
137.010770
 30
0.0
 10
121.004500
 20
135.960350
 30
0.0
 10
120.634907
 20
135.075273
 30
0.0
 10
119.895720
 20
134.355540
 30
0.0
  0
SPLINE
  5
183
100
AcDbEntity
  8
Ebene_1
 62
7
100
AcDbSpline
 70
8
 71
3
 72
8
 73
4
 74
0
 40
0
 40
0
 40
0
 40
0
 40
1
 40
1
 40
1
 40
1
 10
119.895720
 20
134.355540
 30
0.0
 10
119.156533
 20
133.635807
 30
0.0
 10
118.281180
 20
133.275940
 30
0.0
 10
117.269660
 20
133.275940
 30
0.0
  0
LWPOLYLINE
  5
184
100
AcDbEntity
  8
Ebene_1
 62
7
100
AcDbPolyline
 90
3
 70
0
 10
98.595496
 20
144.480440
 30
0.0
 10
121.004500
 20
144.480440
 30
0.0
 10
121.004500
 20
137.010770
 30
0.0
  0
SPLINE
  5
185
100
AcDbEntity
  8
Ebene_1
 62
7
100
AcDbSpline
 70
8
 71
3
 72
8
 73
4
 74
0
 40
0
 40
0
 40
0
 40
0
 40
1
 40
1
 40
1
 40
1
 10
124.739330
 20
125.806270
 30
0.0
 10
124.739330
 20
126.837237
 30
0.0
 10
125.099197
 20
127.712587
 30
0.0
 10
125.818930
 20
128.432320
 30
0.0
  0
SPLINE
  5
186
100
AcDbEntity
  8
Ebene_1
 62
7
100
AcDbSpline
 70
8
 71
3
 72
8
 73
4
 74
0
 40
0
 40
0
 40
0
 40
0
 40
1
 40
1
 40
1
 40
1
 10
125.818930
 20
128.432320
 30
0.0
 10
126.558117
 20
129.171507
 30
0.0
 10
127.443193
 20
129.541100
 30
0.0
 10
128.474160
 20
129.541100
 30
0.0
  0
LWPOLYLINE
  5
187
100
AcDbEntity
  8
Ebene_1
 62
7
100
AcDbPolyline
 90
8
 70
0
 10
117.269660
 20
133.275940
 30
0.0
 10
113.534830
 20
133.275940
 30
0.0
 10
121.004500
 20
125.806270
 30
0.0
 10
115.402250
 20
125.806270
 30
0.0
 10
107.932580
 20
133.275940
 30
0.0
 10
102.330330
 20
133.275940
 30
0.0
 10
102.330330
 20
125.806270
 30
0.0
 10
98.595496
 20
125.806270
 30
0.0
  0
SPLINE
  5
188
100
AcDbEntity
  8
Ebene_1
 62
7
100
AcDbSpline
 70
8
 71
3
 72
8
 73
4
 74
0
 40
0
 40
0
 40
0
 40
0
 40
1
 40
1
 40
1
 40
1
 10
147.148330
 20
144.480440
 30
0.0
 10
147.148330
 20
143.430013
 30
0.0
 10
146.778737
 20
142.544933
 30
0.0
 10
146.039550
 20
141.825200
 30
0.0
  0
SPLINE
  5
189
100
AcDbEntity
  8
Ebene_1
 62
7
100
AcDbSpline
 70
8
 71
3
 72
8
 73
4
 74
0
 40
0
 40
0
 40
0
 40
0
 40
1
 40
1
 40
1
 40
1
 10
146.039550
 20
141.825200
 30
0.0
 10
145.300363
 20
141.105467
 30
0.0
 10
144.425013
 20
140.745600
 30
0.0
 10
143.413500
 20
140.745600
 30
0.0
  0
LWPOLYLINE
  5
18a
100
AcDbEntity
  8
Ebene_1
 62
7
100
AcDbPolyline
 90
6
 70
0
 10
128.474160
 20
129.541100
 30
0.0
 10
143.413500
 20
129.541100
 30
0.0
 10
143.413500
 20
133.275940
 30
0.0
 10
124.739330
 20
133.275940
 30
0.0
 10
124.739330
 20
144.480440
 30
0.0
 10
147.148330
 20
144.480440
 30
0.0
  0
SPLINE
  5
18b
100
AcDbEntity
  8
Ebene_1
 62
7
100
AcDbSpline
 70
8
 71
3
 72
8
 73
4
 74
0
 40
0
 40
0
 40
0
 40
0
 40
1
 40
1
 40
1
 40
1
 10
154.618000
 20
125.806270
 30
0.0
 10
153.567580
 20
125.806270
 30
0.0
 10
152.682503
 20
126.166137
 30
0.0
 10
151.962770
 20
126.885870
 30
0.0
  0
SPLINE
  5
18c
100
AcDbEntity
  8
Ebene_1
 62
7
100
AcDbSpline
 70
8
 71
3
 72
8
 73
4
 74
0
 40
0
 40
0
 40
0
 40
0
 40
1
 40
1
 40
1
 40
1
 10
151.962770
 20
126.885870
 30
0.0
 10
151.243037
 20
127.625057
 30
0.0
 10
150.883170
 20
128.510133
 30
0.0
 10
150.883170
 20
129.541100
 30
0.0
  0
LWPOLYLINE
  5
18d
100
AcDbEntity
  8
Ebene_1
 62
7
100
AcDbPolyline
 90
6
 70
0
 10
143.413500
 20
140.745600
 30
0.0
 10
128.474160
 20
140.745600
 30
0.0
 10
128.474160
 20
137.010770
 30
0.0
 10
147.148330
 20
137.010770
 30
0.0
 10
147.148330
 20
125.806270
 30
0.0
 10
124.739330
 20
125.806270
 30
0.0
  0
SPLINE
  5
18e
100
AcDbEntity
  8
Ebene_1
 62
7
100
AcDbSpline
 70
8
 71
3
 72
8
 73
4
 74
0
 40
0
 40
0
 40
0
 40
0
 40
1
 40
1
 40
1
 40
1
 10
173.292170
 20
129.541100
 30
0.0
 10
173.292170
 20
128.490680
 30
0.0
 10
172.922577
 20
127.605603
 30
0.0
 10
172.183390
 20
126.885870
 30
0.0
  0
SPLINE
  5
18f
100
AcDbEntity
  8
Ebene_1
 62
7
100
AcDbSpline
 70
8
 71
3
 72
8
 73
4
 74
0
 40
0
 40
0
 40
0
 40
0
 40
1
 40
1
 40
1
 40
1
 10
172.183390
 20
126.885870
 30
0.0
 10
171.444203
 20
126.166137
 30
0.0
 10
170.568850
 20
125.806270
 30
0.0
 10
169.557330
 20
125.806270
 30
0.0
  0
LWPOLYLINE
  5
190
100
AcDbEntity
  8
Ebene_1
 62
7
100
AcDbPolyline
 90
2
 70
0
 10
150.883170
 20
129.541100
 30
0.0
 10
173.292170
 20
129.541100
 30
0.0
  0
SPLINE
  5
191
100
AcDbEntity
  8
Ebene_1
 62
7
100
AcDbSpline
 70
8
 71
3
 72
8
 73
4
 74
0
 40
0
 40
0
 40
0
 40
0
 40
1
 40
1
 40
1
 40
1
 10
154.618000
 20
133.275940
 30
0.0
 10
153.567580
 20
133.275940
 30
0.0
 10
152.682503
 20
133.635807
 30
0.0
 10
151.962770
 20
134.355540
 30
0.0
  0
SPLINE
  5
192
100
AcDbEntity
  8
Ebene_1
 62
7
100
AcDbSpline
 70
8
 71
3
 72
8
 73
4
 74
0
 40
0
 40
0
 40
0
 40
0
 40
1
 40
1
 40
1
 40
1
 10
151.962770
 20
134.355540
 30
0.0
 10
151.243037
 20
135.094720
 30
0.0
 10
150.883170
 20
135.979797
 30
0.0
 10
150.883170
 20
137.010770
 30
0.0
  0
LWPOLYLINE
  5
193
100
AcDbEntity
  8
Ebene_1
 62
7
100
AcDbPolyline
 90
2
 70
0
 10
169.557330
 20
125.806270
 30
0.0
 10
154.618000
 20
125.806270
 30
0.0
  0
SPLINE
  5
194
100
AcDbEntity
  8
Ebene_1
 62
7
100
AcDbSpline
 70
8
 71
3
 72
8
 73
4
 74
0
 40
0
 40
0
 40
0
 40
0
 40
1
 40
1
 40
1
 40
1
 10
173.292170
 20
137.010770
 30
0.0
 10
173.292170
 20
135.960350
 30
0.0
 10
172.922577
 20
135.075273
 30
0.0
 10
172.183390
 20
134.355540
 30
0.0
  0
SPLINE
  5
195
100
AcDbEntity
  8
Ebene_1
 62
7
100
AcDbSpline
 70
8
 71
3
 72
8
 73
4
 74
0
 40
0
 40
0
 40
0
 40
0
 40
1
 40
1
 40
1
 40
1
 10
172.183390
 20
134.355540
 30
0.0
 10
171.444203
 20
133.635807
 30
0.0
 10
170.568850
 20
133.275940
 30
0.0
 10
169.557330
 20
133.275940
 30
0.0
  0
LWPOLYLINE
  5
196
100
AcDbEntity
  8
Ebene_1
 62
7
100
AcDbPolyline
 90
2
 70
0
 10
150.883170
 20
137.010770
 30
0.0
 10
173.292170
 20
137.010770
 30
0.0
  0
SPLINE
  5
197
100
AcDbEntity
  8
Ebene_1
 62
7
100
AcDbSpline
 70
8
 71
3
 72
8
 73
4
 74
0
 40
0
 40
0
 40
0
 40
0
 40
1
 40
1
 40
1
 40
1
 10
154.618000
 20
140.745600
 30
0.0
 10
153.567580
 20
140.745600
 30
0.0
 10
152.682503
 20
141.105467
 30
0.0
 10
151.962770
 20
141.825200
 30
0.0
  0
SPLINE
  5
198
100
AcDbEntity
  8
Ebene_1
 62
7
100
AcDbSpline
 70
8
 71
3
 72
8
 73
4
 74
0
 40
0
 40
0
 40
0
 40
0
 40
1
 40
1
 40
1
 40
1
 10
151.962770
 20
141.825200
 30
0.0
 10
151.243037
 20
142.564387
 30
0.0
 10
150.883170
 20
143.449467
 30
0.0
 10
150.883170
 20
144.480440
 30
0.0
  0
LWPOLYLINE
  5
199
100
AcDbEntity
  8
Ebene_1
 62
7
100
AcDbPolyline
 90
2
 70
0
 10
169.557330
 20
133.275940
 30
0.0
 10
154.618000
 20
133.275940
 30
0.0
  0
SPLINE
  5
19a
100
AcDbEntity
  8
Ebene_1
 62
7
100
AcDbSpline
 70
8
 71
3
 72
8
 73
4
 74
0
 40
0
 40
0
 40
0
 40
0
 40
1
 40
1
 40
1
 40
1
 10
173.292170
 20
144.480440
 30
0.0
 10
173.292170
 20
143.430013
 30
0.0
 10
172.922577
 20
142.544933
 30
0.0
 10
172.183390
 20
141.825200
 30
0.0
  0
SPLINE
  5
19b
100
AcDbEntity
  8
Ebene_1
 62
7
100
AcDbSpline
 70
8
 71
3
 72
8
 73
4
 74
0
 40
0
 40
0
 40
0
 40
0
 40
1
 40
1
 40
1
 40
1
 10
172.183390
 20
141.825200
 30
0.0
 10
171.444203
 20
141.105467
 30
0.0
 10
170.568850
 20
140.745600
 30
0.0
 10
169.557330
 20
140.745600
 30
0.0
  0
LWPOLYLINE
  5
19c
100
AcDbEntity
  8
Ebene_1
 62
7
100
AcDbPolyline
 90
2
 70
0
 10
150.883170
 20
144.480440
 30
0.0
 10
173.292170
 20
144.480440
 30
0.0
  0
SPLINE
  5
19d
100
AcDbEntity
  8
Ebene_1
 62
7
100
AcDbSpline
 70
8
 71
3
 72
8
 73
4
 74
0
 40
0
 40
0
 40
0
 40
0
 40
1
 40
1
 40
1
 40
1
 10
107.963290
 20
116.309058
 30
0.0
 10
101.195026
 20
116.205768
 30
0.0
 10
94.424143
 20
116.119668
 30
0.0
 10
87.662592
 20
115.782020
 30
0.0
  0
SPLINE
  5
19e
100
AcDbEntity
  8
Ebene_1
 62
7
100
AcDbSpline
 70
8
 71
3
 72
8
 73
4
 74
0
 40
0
 40
0
 40
0
 40
0
 40
1
 40
1
 40
1
 40
1
 10
87.662592
 20
115.782020
 30
0.0
 10
81.931433
 20
115.472916
 30
0.0
 10
76.173855
 20
114.951419
 30
0.0
 10
70.598793
 20
113.529039
 30
0.0
  0
SPLINE
  5
19f
100
AcDbEntity
  8
Ebene_1
 62
7
100
AcDbSpline
 70
8
 71
3
 72
8
 73
4
 74
0
 40
0
 40
0
 40
0
 40
0
 40
1
 40
1
 40
1
 40
1
 10
70.598793
 20
113.529039
 30
0.0
 10
69.055140
 20
113.095344
 30
0.0
 10
67.488047
 20
112.664891
 30
0.0
 10
66.065119
 20
111.912590
 30
0.0
  0
SPLINE
  5
1a0
100
AcDbEntity
  8
Ebene_1
 62
7
100
AcDbSpline
 70
8
 71
3
 72
8
 73
4
 74
0
 40
0
 40
0
 40
0
 40
0
 40
1
 40
1
 40
1
 40
1
 10
66.065119
 20
111.912590
 30
0.0
 10
65.316250
 20
111.399961
 30
0.0
 10
64.834191
 20
110.600601
 30
0.0
 10
64.336918
 20
109.861660
 30
0.0
  0
SPLINE
  5
1a1
100
AcDbEntity
  8
Ebene_1
 62
7
100
AcDbSpline
 70
8
 71
3
 72
8
 73
4
 74
0
 40
0
 40
0
 40
0
 40
0
 40
1
 40
1
 40
1
 40
1
 10
64.336918
 20
109.861660
 30
0.0
 10
62.443692
 20
106.821024
 30
0.0
 10
61.317453
 20
103.394793
 30
0.0
 10
60.109841
 20
100.044109
 30
0.0
  0
SPLINE
  5
1a2
100
AcDbEntity
  8
Ebene_1
 62
7
100
AcDbSpline
 70
8
 71
3
 72
8
 73
4
 74
0
 40
0
 40
0
 40
0
 40
0
 40
1
 40
1
 40
1
 40
1
 10
60.109841
 20
100.044109
 30
0.0
 10
58.259666
 20
94.788438
 30
0.0
 10
56.404848
 20
89.534081
 30
0.0
 10
54.465112
 20
84.310633
 30
0.0
  0
SPLINE
  5
1a3
100
AcDbEntity
  8
Ebene_1
 62
7
100
AcDbSpline
 70
8
 71
3
 72
8
 73
4
 74
0
 40
0
 40
0
 40
0
 40
0
 40
1
 40
1
 40
1
 40
1
 10
54.465112
 20
84.310633
 30
0.0
 10
53.241880
 20
84.390057
 30
0.0
 10
51.998480
 20
84.228845
 30
0.0
 10
50.791956
 20
84.502689
 30
0.0
  0
SPLINE
  5
1a4
100
AcDbEntity
  8
Ebene_1
 62
7
100
AcDbSpline
 70
8
 71
3
 72
8
 73
4
 74
0
 40
0
 40
0
 40
0
 40
0
 40
1
 40
1
 40
1
 40
1
 10
50.791956
 20
84.502689
 30
0.0
 10
50.077324
 20
85.225310
 30
0.0
 10
50.154650
 20
86.318872
 30
0.0
 10
49.831581
 20
87.219820
 30
0.0
  0
SPLINE
  5
1a5
100
AcDbEntity
  8
Ebene_1
 62
7
100
AcDbSpline
 70
8
 71
3
 72
8
 73
4
 74
0
 40
0
 40
0
 40
0
 40
0
 40
1
 40
1
 40
1
 40
1
 10
49.831581
 20
87.219820
 30
0.0
 10
49.543194
 20
88.408673
 30
0.0
 10
49.317695
 20
89.733587
 30
0.0
 10
48.394839
 20
90.615549
 30
0.0
  0
SPLINE
  5
1a6
100
AcDbEntity
  8
Ebene_1
 62
7
100
AcDbSpline
 70
8
 71
3
 72
8
 73
4
 74
0
 40
0
 40
0
 40
0
 40
0
 40
1
 40
1
 40
1
 40
1
 10
48.394839
 20
90.615549
 30
0.0
 10
47.490884
 20
91.202487
 30
0.0
 10
46.377560
 20
90.871069
 30
0.0
 10
45.390503
 20
90.755582
 30
0.0
  0
SPLINE
  5
1a7
100
AcDbEntity
  8
Ebene_1
 62
7
100
AcDbSpline
 70
8
 71
3
 72
8
 73
4
 74
0
 40
0
 40
0
 40
0
 40
0
 40
1
 40
1
 40
1
 40
1
 10
45.390503
 20
90.755582
 30
0.0
 10
43.481099
 20
90.429384
 30
0.0
 10
41.434547
 20
90.200963
 30
0.0
 10
39.833415
 20
89.010579
 30
0.0
  0
SPLINE
  5
1a8
100
AcDbEntity
  8
Ebene_1
 62
7
100
AcDbSpline
 70
8
 71
3
 72
8
 73
4
 74
0
 40
0
 40
0
 40
0
 40
0
 40
1
 40
1
 40
1
 40
1
 10
39.833415
 20
89.010579
 30
0.0
 10
38.704367
 20
88.073634
 30
0.0
 10
38.113978
 20
86.665627
 30
0.0
 10
37.676075
 20
85.302749
 30
0.0
  0
SPLINE
  5
1a9
100
AcDbEntity
  8
Ebene_1
 62
7
100
AcDbSpline
 70
8
 71
3
 72
8
 73
4
 74
0
 40
0
 40
0
 40
0
 40
0
 40
1
 40
1
 40
1
 40
1
 10
37.676075
 20
85.302749
 30
0.0
 10
37.512215
 20
84.816567
 30
0.0
 10
37.604971
 20
84.267479
 30
0.0
 10
37.964405
 20
83.892018
 30
0.0
  0
SPLINE
  5
1aa
100
AcDbEntity
  8
Ebene_1
 62
7
100
AcDbSpline
 70
8
 71
3
 72
8
 73
4
 74
0
 40
0
 40
0
 40
0
 40
0
 40
1
 40
1
 40
1
 40
1
 10
37.964405
 20
83.892018
 30
0.0
 10
38.776322
 20
82.885237
 30
0.0
 10
40.149780
 20
82.716857
 30
0.0
 10
41.350669
 20
82.566688
 30
0.0
  0
SPLINE
  5
1ab
100
AcDbEntity
  8
Ebene_1
 62
7
100
AcDbSpline
 70
8
 71
3
 72
8
 73
4
 74
0
 40
0
 40
0
 40
0
 40
0
 40
1
 40
1
 40
1
 40
1
 10
41.350669
 20
82.566688
 30
0.0
 10
45.261561
 20
82.101147
 30
0.0
 10
49.200818
 20
81.910973
 30
0.0
 10
53.107766
 20
81.407554
 30
0.0
  0
SPLINE
  5
1ac
100
AcDbEntity
  8
Ebene_1
 62
7
100
AcDbSpline
 70
8
 71
3
 72
8
 73
4
 74
0
 40
0
 40
0
 40
0
 40
0
 40
1
 40
1
 40
1
 40
1
 10
53.107766
 20
81.407554
 30
0.0
 10
53.156461
 20
80.895492
 30
0.0
 10
52.577958
 20
80.670929
 30
0.0
 10
52.385278
 20
80.258063
 30
0.0
  0
SPLINE
  5
1ad
100
AcDbEntity
  8
Ebene_1
 62
7
100
AcDbSpline
 70
8
 71
3
 72
8
 73
4
 74
0
 40
0
 40
0
 40
0
 40
0
 40
1
 40
1
 40
1
 40
1
 10
52.385278
 20
80.258063
 30
0.0
 10
50.161873
 20
77.480352
 30
0.0
 10
47.439844
 20
75.131447
 30
0.0
 10
45.344720
 20
72.248016
 30
0.0
  0
SPLINE
  5
1ae
100
AcDbEntity
  8
Ebene_1
 62
7
100
AcDbSpline
 70
8
 71
3
 72
8
 73
4
 74
0
 40
0
 40
0
 40
0
 40
0
 40
1
 40
1
 40
1
 40
1
 10
45.344720
 20
72.248016
 30
0.0
 10
44.361350
 20
70.447614
 30
0.0
 10
44.446069
 20
68.332529
 30
0.0
 10
44.375372
 20
66.345460
 30
0.0
  0
SPLINE
  5
1af
100
AcDbEntity
  8
Ebene_1
 62
7
100
AcDbSpline
 70
8
 71
3
 72
8
 73
4
 74
0
 40
0
 40
0
 40
0
 40
0
 40
1
 40
1
 40
1
 40
1
 10
44.375372
 20
66.345460
 30
0.0
 10
44.329987
 20
60.594426
 30
0.0
 10
44.676760
 20
54.849689
 30
0.0
 10
45.033480
 20
49.112365
 30
0.0
  0
SPLINE
  5
1b0
100
AcDbEntity
  8
Ebene_1
 62
7
100
AcDbSpline
 70
8
 71
3
 72
8
 73
4
 74
0
 40
0
 40
0
 40
0
 40
0
 40
1
 40
1
 40
1
 40
1
 10
45.033480
 20
49.112365
 30
0.0
 10
45.362855
 20
44.347887
 30
0.0
 10
45.736614
 20
39.578530
 30
0.0
 10
46.468898
 20
34.856648
 30
0.0
  0
SPLINE
  5
1b1
100
AcDbEntity
  8
Ebene_1
 62
7
100
AcDbSpline
 70
8
 71
3
 72
8
 73
4
 74
0
 40
0
 40
0
 40
0
 40
0
 40
1
 40
1
 40
1
 40
1
 10
46.468898
 20
34.856648
 30
0.0
 10
46.804259
 20
33.044946
 30
0.0
 10
47.583754
 20
31.314948
 30
0.0
 10
48.769930
 20
29.900218
 30
0.0
  0
SPLINE
  5
1b2
100
AcDbEntity
  8
Ebene_1
 62
7
100
AcDbSpline
 70
8
 71
3
 72
8
 73
4
 74
0
 40
0
 40
0
 40
0
 40
0
 40
1
 40
1
 40
1
 40
1
 10
48.769930
 20
29.900218
 30
0.0
 10
49.212353
 20
29.353522
 30
0.0
 10
49.643553
 20
28.769648
 30
0.0
 10
50.137762
 20
28.282463
 30
0.0
  0
SPLINE
  5
1b3
100
AcDbEntity
  8
Ebene_1
 62
7
100
AcDbSpline
 70
8
 71
3
 72
8
 73
4
 74
0
 40
0
 40
0
 40
0
 40
0
 40
1
 40
1
 40
1
 40
1
 10
50.137762
 20
28.282463
 30
0.0
 10
50.859353
 20
28.081567
 30
0.0
 10
51.602804
 20
28.346948
 30
0.0
 10
52.335751
 20
28.292486
 30
0.0
  0
SPLINE
  5
1b4
100
AcDbEntity
  8
Ebene_1
 62
7
100
AcDbSpline
 70
8
 71
3
 72
8
 73
4
 74
0
 40
0
 40
0
 40
0
 40
0
 40
1
 40
1
 40
1
 40
1
 10
52.335751
 20
28.292486
 30
0.0
 10
62.089856
 20
28.757895
 30
0.0
 10
71.854590
 20
28.978931
 30
0.0
 10
81.619521
 20
29.004167
 30
0.0
  0
SPLINE
  5
1b5
100
AcDbEntity
  8
Ebene_1
 62
7
100
AcDbSpline
 70
8
 71
3
 72
8
 73
4
 74
0
 40
0
 40
0
 40
0
 40
0
 40
1
 40
1
 40
1
 40
1
 10
81.619521
 20
29.004167
 30
0.0
 10
103.117572
 20
29.166685
 30
0.0
 10
124.616975
 20
29.131303
 30
0.0
 10
146.114628
 20
28.934009
 30
0.0
  0
SPLINE
  5
1b6
100
AcDbEntity
  8
Ebene_1
 62
7
100
AcDbSpline
 70
8
 71
3
 72
8
 73
4
 74
0
 40
0
 40
0
 40
0
 40
0
 40
1
 40
1
 40
1
 40
1
 10
146.114628
 20
28.934009
 30
0.0
 10
152.618758
 20
28.857894
 30
0.0
 10
159.119862
 20
28.634144
 30
0.0
 10
165.620466
 20
28.420426
 30
0.0
  0
SPLINE
  5
1b7
100
AcDbEntity
  8
Ebene_1
 62
7
100
AcDbSpline
 70
8
 71
3
 72
8
 73
4
 74
0
 40
0
 40
0
 40
0
 40
0
 40
1
 40
1
 40
1
 40
1
 10
165.620466
 20
28.420426
 30
0.0
 10
166.870844
 20
28.410592
 30
0.0
 10
168.160443
 20
28.348944
 30
0.0
 10
169.369180
 20
28.714599
 30
0.0
  0
SPLINE
  5
1b8
100
AcDbEntity
  8
Ebene_1
 62
7
100
AcDbSpline
 70
8
 71
3
 72
8
 73
4
 74
0
 40
0
 40
0
 40
0
 40
0
 40
1
 40
1
 40
1
 40
1
 10
169.369180
 20
28.714599
 30
0.0
 10
170.875059
 20
29.403966
 30
0.0
 10
171.743840
 20
30.936140
 30
0.0
 10
172.348516
 20
32.404974
 30
0.0
  0
SPLINE
  5
1b9
100
AcDbEntity
  8
Ebene_1
 62
7
100
AcDbSpline
 70
8
 71
3
 72
8
 73
4
 74
0
 40
0
 40
0
 40
0
 40
0
 40
1
 40
1
 40
1
 40
1
 10
172.348516
 20
32.404974
 30
0.0
 10
173.341512
 20
34.954765
 30
0.0
 10
173.516066
 20
37.713945
 30
0.0
 10
173.860173
 20
40.402058
 30
0.0
  0
SPLINE
  5
1ba
100
AcDbEntity
  8
Ebene_1
 62
7
100
AcDbSpline
 70
8
 71
3
 72
8
 73
4
 74
0
 40
0
 40
0
 40
0
 40
0
 40
1
 40
1
 40
1
 40
1
 10
173.860173
 20
40.402058
 30
0.0
 10
174.507530
 20
46.661192
 30
0.0
 10
174.713135
 20
52.954251
 30
0.0
 10
174.964694
 20
59.238479
 30
0.0
  0
SPLINE
  5
1bb
100
AcDbEntity
  8
Ebene_1
 62
7
100
AcDbSpline
 70
8
 71
3
 72
8
 73
4
 74
0
 40
0
 40
0
 40
0
 40
0
 40
1
 40
1
 40
1
 40
1
 10
174.964694
 20
59.238479
 30
0.0
 10
175.077590
 20
62.916458
 30
0.0
 10
175.169467
 20
66.601028
 30
0.0
 10
174.999205
 20
70.277976
 30
0.0
  0
SPLINE
  5
1bc
100
AcDbEntity
  8
Ebene_1
 62
7
100
AcDbSpline
 70
8
 71
3
 72
8
 73
4
 74
0
 40
0
 40
0
 40
0
 40
0
 40
1
 40
1
 40
1
 40
1
 10
174.999205
 20
70.277976
 30
0.0
 10
174.780760
 20
71.616194
 30
0.0
 10
173.745073
 20
72.585202
 30
0.0
 10
172.977956
 20
73.633293
 30
0.0
  0
SPLINE
  5
1bd
100
AcDbEntity
  8
Ebene_1
 62
7
100
AcDbSpline
 70
8
 71
3
 72
8
 73
4
 74
0
 40
0
 40
0
 40
0
 40
0
 40
1
 40
1
 40
1
 40
1
 10
172.977956
 20
73.633293
 30
0.0
 10
170.903349
 20
76.213247
 30
0.0
 10
168.529190
 20
78.543524
 30
0.0
 10
166.569551
 20
81.217360
 30
0.0
  0
SPLINE
  5
1be
100
AcDbEntity
  8
Ebene_1
 62
7
100
AcDbSpline
 70
8
 71
3
 72
8
 73
4
 74
0
 40
0
 40
0
 40
0
 40
0
 40
1
 40
1
 40
1
 40
1
 10
166.569551
 20
81.217360
 30
0.0
 10
166.748067
 20
81.667820
 30
0.0
 10
167.314931
 20
81.444051
 30
0.0
 10
167.678100
 20
81.560881
 30
0.0
  0
SPLINE
  5
1bf
100
AcDbEntity
  8
Ebene_1
 62
7
100
AcDbSpline
 70
8
 71
3
 72
8
 73
4
 74
0
 40
0
 40
0
 40
0
 40
0
 40
1
 40
1
 40
1
 40
1
 10
167.678100
 20
81.560881
 30
0.0
 10
171.736219
 20
82.000231
 30
0.0
 10
175.840027
 20
82.040784
 30
0.0
 10
179.865508
 20
82.757874
 30
0.0
  0
SPLINE
  5
1c0
100
AcDbEntity
  8
Ebene_1
 62
7
100
AcDbSpline
 70
8
 71
3
 72
8
 73
4
 74
0
 40
0
 40
0
 40
0
 40
0
 40
1
 40
1
 40
1
 40
1
 10
179.865508
 20
82.757874
 30
0.0
 10
180.834260
 20
83.035624
 30
0.0
 10
181.850761
 20
83.730966
 30
0.0
 10
182.002074
 20
84.795841
 30
0.0
  0
SPLINE
  5
1c1
100
AcDbEntity
  8
Ebene_1
 62
7
100
AcDbSpline
 70
8
 71
3
 72
8
 73
4
 74
0
 40
0
 40
0
 40
0
 40
0
 40
1
 40
1
 40
1
 40
1
 10
182.002074
 20
84.795841
 30
0.0
 10
181.950732
 20
85.745626
 30
0.0
 10
181.401729
 20
86.563935
 30
0.0
 10
181.035932
 20
87.414855
 30
0.0
  0
SPLINE
  5
1c2
100
AcDbEntity
  8
Ebene_1
 62
7
100
AcDbSpline
 70
8
 71
3
 72
8
 73
4
 74
0
 40
0
 40
0
 40
0
 40
0
 40
1
 40
1
 40
1
 40
1
 10
181.035932
 20
87.414855
 30
0.0
 10
180.275054
 20
88.811015
 30
0.0
 10
178.877873
 20
89.814704
 30
0.0
 10
177.324765
 20
90.135249
 30
0.0
  0
SPLINE
  5
1c3
100
AcDbEntity
  8
Ebene_1
 62
7
100
AcDbSpline
 70
8
 71
3
 72
8
 73
4
 74
0
 40
0
 40
0
 40
0
 40
0
 40
1
 40
1
 40
1
 40
1
 10
177.324765
 20
90.135249
 30
0.0
 10
175.148051
 20
90.733882
 30
0.0
 10
172.870194
 20
90.616826
 30
0.0
 10
170.639755
 20
90.789007
 30
0.0
  0
SPLINE
  5
1c4
100
AcDbEntity
  8
Ebene_1
 62
7
100
AcDbSpline
 70
8
 71
3
 72
8
 73
4
 74
0
 40
0
 40
0
 40
0
 40
0
 40
1
 40
1
 40
1
 40
1
 10
170.639755
 20
90.789007
 30
0.0
 10
170.292925
 20
90.551679
 30
0.0
 10
170.369834
 20
90.061705
 30
0.0
 10
170.228648
 20
89.708871
 30
0.0
  0
SPLINE
  5
1c5
100
AcDbEntity
  8
Ebene_1
 62
7
100
AcDbSpline
 70
8
 71
3
 72
8
 73
4
 74
0
 40
0
 40
0
 40
0
 40
0
 40
1
 40
1
 40
1
 40
1
 10
170.228648
 20
89.708871
 30
0.0
 10
169.841226
 20
87.918832
 30
0.0
 10
169.496543
 20
86.119942
 30
0.0
 10
169.121735
 20
84.327274
 30
0.0
  0
SPLINE
  5
1c6
100
AcDbEntity
  8
Ebene_1
 62
7
100
AcDbSpline
 70
8
 71
3
 72
8
 73
4
 74
0
 40
0
 40
0
 40
0
 40
0
 40
1
 40
1
 40
1
 40
1
 10
169.121735
 20
84.327274
 30
0.0
 10
167.644259
 20
84.330111
 30
0.0
 10
166.166736
 20
84.319710
 30
0.0
 10
164.689563
 20
84.288508
 30
0.0
  0
SPLINE
  5
1c7
100
AcDbEntity
  8
Ebene_1
 62
7
100
AcDbSpline
 70
8
 71
3
 72
8
 73
4
 74
0
 40
0
 40
0
 40
0
 40
0
 40
1
 40
1
 40
1
 40
1
 10
164.689563
 20
84.288508
 30
0.0
 10
161.935688
 20
91.871402
 30
0.0
 10
159.492600
 20
99.575712
 30
0.0
 10
156.318021
 20
106.999191
 30
0.0
  0
SPLINE
  5
1c8
100
AcDbEntity
  8
Ebene_1
 62
7
100
AcDbSpline
 70
8
 71
3
 72
8
 73
4
 74
0
 40
0
 40
0
 40
0
 40
0
 40
1
 40
1
 40
1
 40
1
 10
156.318021
 20
106.999191
 30
0.0
 10
155.573331
 20
108.640026
 30
0.0
 10
154.858217
 20
110.339842
 30
0.0
 10
153.682545
 20
111.726916
 30
0.0
  0
SPLINE
  5
1c9
100
AcDbEntity
  8
Ebene_1
 62
7
100
AcDbSpline
 70
8
 71
3
 72
8
 73
4
 74
0
 40
0
 40
0
 40
0
 40
0
 40
1
 40
1
 40
1
 40
1
 10
153.682545
 20
111.726916
 30
0.0
 10
152.699676
 20
112.789351
 30
0.0
 10
151.306032
 20
113.350306
 30
0.0
 10
149.907016
 20
113.607461
 30
0.0
  0
SPLINE
  5
1ca
100
AcDbEntity
  8
Ebene_1
 62
7
100
AcDbSpline
 70
8
 71
3
 72
8
 73
4
 74
0
 40
0
 40
0
 40
0
 40
0
 40
1
 40
1
 40
1
 40
1
 10
149.907016
 20
113.607461
 30
0.0
 10
146.414569
 20
114.426215
 30
0.0
 10
142.833129
 20
114.751203
 30
0.0
 10
139.273643
 20
115.133462
 30
0.0
  0
SPLINE
  5
1cb
100
AcDbEntity
  8
Ebene_1
 62
7
100
AcDbSpline
 70
8
 71
3
 72
8
 73
4
 74
0
 40
0
 40
0
 40
0
 40
0
 40
1
 40
1
 40
1
 40
1
 10
139.273643
 20
115.133462
 30
0.0
 10
133.096487
 20
115.757710
 30
0.0
 10
126.891541
 20
116.059561
 30
0.0
 10
120.685650
 20
116.191529
 30
0.0
  0
SPLINE
  5
1cc
100
AcDbEntity
  8
Ebene_1
 62
7
100
AcDbSpline
 70
8
 71
3
 72
8
 73
4
 74
0
 40
0
 40
0
 40
0
 40
0
 40
1
 40
1
 40
1
 40
1
 10
120.685650
 20
116.191529
 30
0.0
 10
116.445894
 20
116.298298
 30
0.0
 10
112.204341
 20
116.344742
 30
0.0
 10
107.963309
 20
116.309096
 30
0.0
  0
LWPOLYLINE
  5
1cd
100
AcDbEntity
  8
Ebene_1
 62
7
100
AcDbPolyline
 90
2
 70
0
 10
169.557330
 20
140.745600
 30
0.0
 10
154.618000
 20
140.745600
 30
0.0
  0
SPLINE
  5
1ce
100
AcDbEntity
  8
Ebene_1
 62
7
100
AcDbSpline
 70
8
 71
3
 72
8
 73
4
 74
0
 40
0
 40
0
 40
0
 40
0
 40
1
 40
1
 40
1
 40
1
 10
97.902246
 20
111.803022
 30
0.0
 10
109.163432
 20
111.675678
 30
0.0
 10
120.424816
 20
111.492576
 30
0.0
 10
131.680140
 20
111.096465
 30
0.0
  0
SPLINE
  5
1cf
100
AcDbEntity
  8
Ebene_1
 62
7
100
AcDbSpline
 70
8
 71
3
 72
8
 73
4
 74
0
 40
0
 40
0
 40
0
 40
0
 40
1
 40
1
 40
1
 40
1
 10
131.680140
 20
111.096465
 30
0.0
 10
138.018623
 20
110.911491
 30
0.0
 10
144.358779
 20
110.697007
 30
0.0
 10
150.685811
 20
110.272644
 30
0.0
  0
SPLINE
  5
1d0
100
AcDbEntity
  8
Ebene_1
 62
7
100
AcDbSpline
 70
8
 71
3
 72
8
 73
4
 74
0
 40
0
 40
0
 40
0
 40
0
 40
1
 40
1
 40
1
 40
1
 10
150.685811
 20
110.272644
 30
0.0
 10
150.927725
 20
110.289380
 30
0.0
 10
151.190998
 20
110.237848
 30
0.0
 10
151.245017
 20
109.961555
 30
0.0
  0
SPLINE
  5
1d1
100
AcDbEntity
  8
Ebene_1
 62
7
100
AcDbSpline
 70
8
 71
3
 72
8
 73
4
 74
0
 40
0
 40
0
 40
0
 40
0
 40
1
 40
1
 40
1
 40
1
 10
151.245017
 20
109.961555
 30
0.0
 10
154.030708
 20
104.794811
 30
0.0
 10
155.929210
 20
99.213924
 30
0.0
 10
157.619514
 20
93.610203
 30
0.0
  0
SPLINE
  5
1d2
100
AcDbEntity
  8
Ebene_1
 62
7
100
AcDbSpline
 70
8
 71
3
 72
8
 73
4
 74
0
 40
0
 40
0
 40
0
 40
0
 40
1
 40
1
 40
1
 40
1
 10
157.619514
 20
93.610203
 30
0.0
 10
158.382349
 20
91.068638
 30
0.0
 10
159.179497
 20
88.528283
 30
0.0
 10
159.684987
 20
85.920190
 30
0.0
  0
SPLINE
  5
1d3
100
AcDbEntity
  8
Ebene_1
 62
7
100
AcDbSpline
 70
8
 71
3
 72
8
 73
4
 74
0
 40
0
 40
0
 40
0
 40
0
 40
1
 40
1
 40
1
 40
1
 10
159.684987
 20
85.920190
 30
0.0
 10
159.778027
 20
85.267812
 30
0.0
 10
159.919128
 20
84.586453
 30
0.0
 10
159.780920
 20
83.933896
 30
0.0
  0
SPLINE
  5
1d4
100
AcDbEntity
  8
Ebene_1
 62
7
100
AcDbSpline
 70
8
 71
3
 72
8
 73
4
 74
0
 40
0
 40
0
 40
0
 40
0
 40
1
 40
1
 40
1
 40
1
 10
159.780920
 20
83.933896
 30
0.0
 10
159.612068
 20
83.441190
 30
0.0
 10
159.082032
 20
83.213270
 30
0.0
 10
158.593042
 20
83.225146
 30
0.0
  0
SPLINE
  5
1d5
100
AcDbEntity
  8
Ebene_1
 62
7
100
AcDbSpline
 70
8
 71
3
 72
8
 73
4
 74
0
 40
0
 40
0
 40
0
 40
0
 40
1
 40
1
 40
1
 40
1
 10
158.593042
 20
83.225146
 30
0.0
 10
155.435293
 20
82.809689
 30
0.0
 10
152.242428
 20
82.878117
 30
0.0
 10
149.065145
 20
82.806304
 30
0.0
  0
SPLINE
  5
1d6
100
AcDbEntity
  8
Ebene_1
 62
7
100
AcDbSpline
 70
8
 71
3
 72
8
 73
4
 74
0
 40
0
 40
0
 40
0
 40
0
 40
1
 40
1
 40
1
 40
1
 10
149.065145
 20
82.806304
 30
0.0
 10
134.295438
 20
82.625330
 30
0.0
 10
119.524303
 20
82.687007
 30
0.0
 10
104.753849
 20
82.676597
 30
0.0
  0
SPLINE
  5
1d7
100
AcDbEntity
  8
Ebene_1
 62
7
100
AcDbSpline
 70
8
 71
3
 72
8
 73
4
 74
0
 40
0
 40
0
 40
0
 40
0
 40
1
 40
1
 40
1
 40
1
 10
104.753849
 20
82.676597
 30
0.0
 10
90.817362
 20
82.683215
 30
0.0
 10
76.879930
 20
82.702882
 30
0.0
 10
62.945154
 20
82.936835
 30
0.0
  0
SPLINE
  5
1d8
100
AcDbEntity
  8
Ebene_1
 62
7
100
AcDbSpline
 70
8
 71
3
 72
8
 73
4
 74
0
 40
0
 40
0
 40
0
 40
0
 40
1
 40
1
 40
1
 40
1
 10
62.945154
 20
82.936835
 30
0.0
 10
61.933239
 20
82.966713
 30
0.0
 10
60.920850
 20
83.007466
 30
0.0
 10
59.912991
 20
83.106557
 30
0.0
  0
SPLINE
  5
1d9
100
AcDbEntity
  8
Ebene_1
 62
7
100
AcDbSpline
 70
8
 71
3
 72
8
 73
4
 74
0
 40
0
 40
0
 40
0
 40
0
 40
1
 40
1
 40
1
 40
1
 10
59.912991
 20
83.106557
 30
0.0
 10
59.321695
 20
83.584702
 30
0.0
 10
59.556460
 20
84.416031
 30
0.0
 10
59.599453
 20
85.066196
 30
0.0
  0
SPLINE
  5
1da
100
AcDbEntity
  8
Ebene_1
 62
7
100
AcDbSpline
 70
8
 71
3
 72
8
 73
4
 74
0
 40
0
 40
0
 40
0
 40
0
 40
1
 40
1
 40
1
 40
1
 10
59.599453
 20
85.066196
 30
0.0
 10
60.003904
 20
88.450730
 30
0.0
 10
61.117218
 20
91.690522
 30
0.0
 10
62.103056
 20
94.936999
 30
0.0
  0
SPLINE
  5
1db
100
AcDbEntity
  8
Ebene_1
 62
7
100
AcDbSpline
 70
8
 71
3
 72
8
 73
4
 74
0
 40
0
 40
0
 40
0
 40
0
 40
1
 40
1
 40
1
 40
1
 10
62.103056
 20
94.936999
 30
0.0
 10
63.663965
 20
99.824349
 30
0.0
 10
65.390124
 20
104.684080
 30
0.0
 10
67.730027
 20
109.260785
 30
0.0
  0
SPLINE
  5
1dc
100
AcDbEntity
  8
Ebene_1
 62
7
100
AcDbSpline
 70
8
 71
3
 72
8
 73
4
 74
0
 40
0
 40
0
 40
0
 40
0
 40
1
 40
1
 40
1
 40
1
 10
67.730027
 20
109.260785
 30
0.0
 10
67.939462
 20
109.726884
 30
0.0
 10
68.355363
 20
110.081193
 30
0.0
 10
68.865855
 20
110.162149
 30
0.0
  0
SPLINE
  5
1dd
100
AcDbEntity
  8
Ebene_1
 62
7
100
AcDbSpline
 70
8
 71
3
 72
8
 73
4
 74
0
 40
0
 40
0
 40
0
 40
0
 40
1
 40
1
 40
1
 40
1
 10
68.865855
 20
110.162149
 30
0.0
 10
69.598149
 20
110.310418
 30
0.0
 10
70.366184
 20
110.342972
 30
0.0
 10
71.112651
 20
110.478448
 30
0.0
  0
SPLINE
  5
1de
100
AcDbEntity
  8
Ebene_1
 62
7
100
AcDbSpline
 70
8
 71
3
 72
8
 73
4
 74
0
 40
0
 40
0
 40
0
 40
0
 40
1
 40
1
 40
1
 40
1
 10
71.112651
 20
110.478448
 30
0.0
 10
77.870089
 20
111.342133
 30
0.0
 10
84.708265
 20
111.507969
 30
0.0
 10
91.516364
 20
111.754270
 30
0.0
  0
SPLINE
  5
1df
100
AcDbEntity
  8
Ebene_1
 62
7
100
AcDbSpline
 70
8
 71
3
 72
8
 73
4
 74
0
 40
0
 40
0
 40
0
 40
0
 40
1
 40
1
 40
1
 40
1
 10
91.516364
 20
111.754270
 30
0.0
 10
93.644298
 20
111.813744
 30
0.0
 10
95.773651
 20
111.817904
 30
0.0
 10
97.902246
 20
111.803059
 30
0.0
  0
LWPOLYLINE
  5
1e0
100
AcDbEntity
  8
Ebene_1
 62
7
100
AcDbPolyline
 90
1
 70
1
 10
107.963309
 20
116.309096
 30
0.0
  0
SPLINE
  5
1e1
100
AcDbEntity
  8
Ebene_1
 62
7
100
AcDbSpline
 70
8
 71
3
 72
8
 73
4
 74
0
 40
0
 40
0
 40
0
 40
0
 40
1
 40
1
 40
1
 40
1
 10
48.899052
 20
49.747080
 30
0.0
 10
50.808550
 20
49.538590
 30
0.0
 10
52.728562
 20
49.438695
 30
0.0
 10
54.642324
 20
49.273738
 30
0.0
  0
SPLINE
  5
1e2
100
AcDbEntity
  8
Ebene_1
 62
7
100
AcDbSpline
 70
8
 71
3
 72
8
 73
4
 74
0
 40
0
 40
0
 40
0
 40
0
 40
1
 40
1
 40
1
 40
1
 10
54.642324
 20
49.273738
 30
0.0
 10
58.917594
 20
48.941952
 30
0.0
 10
63.193762
 20
48.600228
 30
0.0
 10
67.451380
 20
48.083165
 30
0.0
  0
SPLINE
  5
1e3
100
AcDbEntity
  8
Ebene_1
 62
7
100
AcDbSpline
 70
8
 71
3
 72
8
 73
4
 74
0
 40
0
 40
0
 40
0
 40
0
 40
1
 40
1
 40
1
 40
1
 10
67.451380
 20
48.083165
 30
0.0
 10
67.780679
 20
47.735172
 30
0.0
 10
67.340204
 20
47.311121
 30
0.0
 10
67.042135
 20
47.126317
 30
0.0
  0
SPLINE
  5
1e4
100
AcDbEntity
  8
Ebene_1
 62
7
100
AcDbSpline
 70
8
 71
3
 72
8
 73
4
 74
0
 40
0
 40
0
 40
0
 40
0
 40
1
 40
1
 40
1
 40
1
 10
67.042135
 20
47.126317
 30
0.0
 10
65.894829
 20
46.236375
 30
0.0
 10
64.369075
 20
46.322909
 30
0.0
 10
62.998454
 20
46.216499
 30
0.0
  0
SPLINE
  5
1e5
100
AcDbEntity
  8
Ebene_1
 62
7
100
AcDbSpline
 70
8
 71
3
 72
8
 73
4
 74
0
 40
0
 40
0
 40
0
 40
0
 40
1
 40
1
 40
1
 40
1
 10
62.998454
 20
46.216499
 30
0.0
 10
59.377972
 20
46.061660
 30
0.0
 10
55.753425
 20
46.120226
 30
0.0
 10
52.130835
 20
46.097921
 30
0.0
  0
SPLINE
  5
1e6
100
AcDbEntity
  8
Ebene_1
 62
7
100
AcDbSpline
 70
8
 71
3
 72
8
 73
4
 74
0
 40
0
 40
0
 40
0
 40
0
 40
1
 40
1
 40
1
 40
1
 10
52.130835
 20
46.097921
 30
0.0
 10
51.862201
 20
46.229917
 30
0.0
 10
51.593841
 20
45.847100
 30
0.0
 10
51.842354
 20
45.654164
 30
0.0
  0
SPLINE
  5
1e7
100
AcDbEntity
  8
Ebene_1
 62
7
100
AcDbSpline
 70
8
 71
3
 72
8
 73
4
 74
0
 40
0
 40
0
 40
0
 40
0
 40
1
 40
1
 40
1
 40
1
 10
51.842354
 20
45.654164
 30
0.0
 10
52.848313
 20
43.506469
 30
0.0
 10
54.088650
 20
41.432014
 30
0.0
 10
54.649774
 20
39.107552
 30
0.0
  0
SPLINE
  5
1e8
100
AcDbEntity
  8
Ebene_1
 62
7
100
AcDbSpline
 70
8
 71
3
 72
8
 73
4
 74
0
 40
0
 40
0
 40
0
 40
0
 40
1
 40
1
 40
1
 40
1
 10
54.649774
 20
39.107552
 30
0.0
 10
54.742247
 20
38.599282
 30
0.0
 10
54.922437
 20
37.945656
 30
0.0
 10
54.439299
 20
37.573477
 30
0.0
  0
SPLINE
  5
1e9
100
AcDbEntity
  8
Ebene_1
 62
7
100
AcDbSpline
 70
8
 71
3
 72
8
 73
4
 74
0
 40
0
 40
0
 40
0
 40
0
 40
1
 40
1
 40
1
 40
1
 10
54.439299
 20
37.573477
 30
0.0
 10
54.039435
 20
37.198508
 30
0.0
 10
53.350796
 20
37.185318
 30
0.0
 10
52.983108
 20
37.611960
 30
0.0
  0
SPLINE
  5
1ea
100
AcDbEntity
  8
Ebene_1
 62
7
100
AcDbSpline
 70
8
 71
3
 72
8
 73
4
 74
0
 40
0
 40
0
 40
0
 40
0
 40
1
 40
1
 40
1
 40
1
 10
52.983108
 20
37.611960
 30
0.0
 10
51.782682
 20
38.525020
 30
0.0
 10
51.130314
 20
39.937453
 30
0.0
 10
50.480177
 20
41.256202
 30
0.0
  0
SPLINE
  5
1eb
100
AcDbEntity
  8
Ebene_1
 62
7
100
AcDbSpline
 70
8
 71
3
 72
8
 73
4
 74
0
 40
0
 40
0
 40
0
 40
0
 40
1
 40
1
 40
1
 40
1
 10
50.480177
 20
41.256202
 30
0.0
 10
49.311766
 20
43.900292
 30
0.0
 10
48.933129
 20
46.809668
 30
0.0
 10
48.734691
 20
49.667684
 30
0.0
  0
SPLINE
  5
1ec
100
AcDbEntity
  8
Ebene_1
 62
7
100
AcDbSpline
 70
8
 71
3
 72
8
 73
4
 74
0
 40
0
 40
0
 40
0
 40
0
 40
1
 40
1
 40
1
 40
1
 10
48.734691
 20
49.667684
 30
0.0
 10
48.755587
 20
49.734249
 30
0.0
 10
48.835153
 20
49.765896
 30
0.0
 10
48.899052
 20
49.747108
 30
0.0
  0
LWPOLYLINE
  5
1ed
100
AcDbEntity
  8
Ebene_1
 62
7
100
AcDbPolyline
 90
1
 70
1
 10
97.902246
 20
111.803059
 30
0.0
  0
SPLINE
  5
1ee
100
AcDbEntity
  8
Ebene_1
 62
7
100
AcDbSpline
 70
8
 71
3
 72
8
 73
4
 74
0
 40
0
 40
0
 40
0
 40
0
 40
1
 40
1
 40
1
 40
1
 10
170.237148
 20
49.364802
 30
0.0
 10
170.775098
 20
49.164406
 30
0.0
 10
170.782879
 20
48.482301
 30
0.0
 10
170.670513
 20
48.012222
 30
0.0
  0
SPLINE
  5
1ef
100
AcDbEntity
  8
Ebene_1
 62
7
100
AcDbSpline
 70
8
 71
3
 72
8
 73
4
 74
0
 40
0
 40
0
 40
0
 40
0
 40
1
 40
1
 40
1
 40
1
 10
170.670513
 20
48.012222
 30
0.0
 10
170.466978
 20
44.890545
 30
0.0
 10
169.827213
 20
41.700025
 30
0.0
 10
168.157956
 20
39.010796
 30
0.0
  0
SPLINE
  5
1f0
100
AcDbEntity
  8
Ebene_1
 62
7
100
AcDbSpline
 70
8
 71
3
 72
8
 73
4
 74
0
 40
0
 40
0
 40
0
 40
0
 40
1
 40
1
 40
1
 40
1
 10
168.157956
 20
39.010796
 30
0.0
 10
167.641196
 20
38.234412
 30
0.0
 10
166.948850
 20
37.442994
 30
0.0
 10
165.995737
 20
37.247051
 30
0.0
  0
SPLINE
  5
1f1
100
AcDbEntity
  8
Ebene_1
 62
7
100
AcDbSpline
 70
8
 71
3
 72
8
 73
4
 74
0
 40
0
 40
0
 40
0
 40
0
 40
1
 40
1
 40
1
 40
1
 10
165.995737
 20
37.247051
 30
0.0
 10
165.431672
 20
37.174435
 30
0.0
 10
164.845708
 20
37.634624
 30
0.0
 10
164.892360
 20
38.227027
 30
0.0
  0
SPLINE
  5
1f2
100
AcDbEntity
  8
Ebene_1
 62
7
100
AcDbSpline
 70
8
 71
3
 72
8
 73
4
 74
0
 40
0
 40
0
 40
0
 40
0
 40
1
 40
1
 40
1
 40
1
 10
164.892360
 20
38.227027
 30
0.0
 10
164.822391
 20
39.390085
 30
0.0
 10
165.356209
 20
40.473521
 30
0.0
 10
165.773311
 20
41.527683
 30
0.0
  0
SPLINE
  5
1f3
100
AcDbEntity
  8
Ebene_1
 62
7
100
AcDbSpline
 70
8
 71
3
 72
8
 73
4
 74
0
 40
0
 40
0
 40
0
 40
0
 40
1
 40
1
 40
1
 40
1
 10
165.773311
 20
41.527683
 30
0.0
 10
166.403809
 20
42.968831
 30
0.0
 10
167.121617
 20
44.374995
 30
0.0
 10
167.841932
 20
45.769207
 30
0.0
  0
SPLINE
  5
1f4
100
AcDbEntity
  8
Ebene_1
 62
7
100
AcDbSpline
 70
8
 71
3
 72
8
 73
4
 74
0
 40
0
 40
0
 40
0
 40
0
 40
1
 40
1
 40
1
 40
1
 10
167.841932
 20
45.769207
 30
0.0
 10
167.965739
 20
46.067730
 30
0.0
 10
167.617633
 20
46.156704
 30
0.0
 10
167.393939
 20
46.101618
 30
0.0
  0
SPLINE
  5
1f5
100
AcDbEntity
  8
Ebene_1
 62
7
100
AcDbSpline
 70
8
 71
3
 72
8
 73
4
 74
0
 40
0
 40
0
 40
0
 40
0
 40
1
 40
1
 40
1
 40
1
 10
167.393939
 20
46.101618
 30
0.0
 10
163.043594
 20
46.116557
 30
0.0
 10
158.680843
 20
45.963305
 30
0.0
 10
154.342516
 20
46.354727
 30
0.0
  0
SPLINE
  5
1f6
100
AcDbEntity
  8
Ebene_1
 62
7
100
AcDbSpline
 70
8
 71
3
 72
8
 73
4
 74
0
 40
0
 40
0
 40
0
 40
0
 40
1
 40
1
 40
1
 40
1
 10
154.342516
 20
46.354727
 30
0.0
 10
153.585780
 20
46.465713
 30
0.0
 10
152.753420
 20
46.909450
 30
0.0
 10
152.567558
 20
47.706437
 30
0.0
  0
SPLINE
  5
1f7
100
AcDbEntity
  8
Ebene_1
 62
7
100
AcDbSpline
 70
8
 71
3
 72
8
 73
4
 74
0
 40
0
 40
0
 40
0
 40
0
 40
1
 40
1
 40
1
 40
1
 10
152.567558
 20
47.706437
 30
0.0
 10
152.532951
 20
48.122518
 30
0.0
 10
153.036105
 20
48.044152
 30
0.0
 10
153.304466
 20
48.087476
 30
0.0
  0
SPLINE
  5
1f8
100
AcDbEntity
  8
Ebene_1
 62
7
100
AcDbSpline
 70
8
 71
3
 72
8
 73
4
 74
0
 40
0
 40
0
 40
0
 40
0
 40
1
 40
1
 40
1
 40
1
 10
153.304466
 20
48.087476
 30
0.0
 10
158.902618
 20
48.653338
 30
0.0
 10
164.508702
 20
49.186910
 30
0.0
 10
170.133735
 20
49.390662
 30
0.0
  0
SPLINE
  5
1f9
100
AcDbEntity
  8
Ebene_1
 62
7
100
AcDbSpline
 70
8
 71
3
 72
8
 73
4
 74
0
 40
0
 40
0
 40
0
 40
0
 40
1
 40
1
 40
1
 40
1
 10
170.133735
 20
49.390662
 30
0.0
 10
170.168247
 20
49.382153
 30
0.0
 10
170.202664
 20
49.373454
 30
0.0
 10
170.237148
 20
49.364849
 30
0.0
  0
LWPOLYLINE
  5
1fa
100
AcDbEntity
  8
Ebene_1
 62
7
100
AcDbPolyline
 90
1
 70
1
 10
48.899052
 20
49.747108
 30
0.0
  0
SPLINE
  5
1fb
100
AcDbEntity
  8
Ebene_1
 62
7
100
AcDbSpline
 70
8
 71
3
 72
8
 73
4
 74
0
 40
0
 40
0
 40
0
 40
0
 40
1
 40
1
 40
1
 40
1
 10
79.076594
 20
40.000000
 30
0.0
 10
97.107822
 20
39.949886
 30
0.0
 10
115.140202
 20
40.068267
 30
0.0
 10
133.170380
 20
39.820689
 30
0.0
  0
SPLINE
  5
1fc
100
AcDbEntity
  8
Ebene_1
 62
7
100
AcDbSpline
 70
8
 71
3
 72
8
 73
4
 74
0
 40
0
 40
0
 40
0
 40
0
 40
1
 40
1
 40
1
 40
1
 10
133.170380
 20
39.820689
 30
0.0
 10
135.910705
 20
39.753273
 30
0.0
 10
138.657706
 20
39.706394
 30
0.0
 10
141.385579
 20
39.421288
 30
0.0
  0
SPLINE
  5
1fd
100
AcDbEntity
  8
Ebene_1
 62
7
100
AcDbSpline
 70
8
 71
3
 72
8
 73
4
 74
0
 40
0
 40
0
 40
0
 40
0
 40
1
 40
1
 40
1
 40
1
 10
141.385579
 20
39.421288
 30
0.0
 10
142.778014
 20
39.205319
 30
0.0
 10
144.044286
 20
38.465045
 30
0.0
 10
145.108584
 20
37.565998
 30
0.0
  0
SPLINE
  5
1fe
100
AcDbEntity
  8
Ebene_1
 62
7
100
AcDbSpline
 70
8
 71
3
 72
8
 73
4
 74
0
 40
0
 40
0
 40
0
 40
0
 40
1
 40
1
 40
1
 40
1
 10
145.108584
 20
37.565998
 30
0.0
 10
145.709525
 20
37.021533
 30
0.0
 10
146.301323
 20
36.426738
 30
0.0
 10
146.698625
 20
35.717411
 30
0.0
  0
SPLINE
  5
1ff
100
AcDbEntity
  8
Ebene_1
 62
7
100
AcDbSpline
 70
8
 71
3
 72
8
 73
4
 74
0
 40
0
 40
0
 40
0
 40
0
 40
1
 40
1
 40
1
 40
1
 10
146.698625
 20
35.717411
 30
0.0
 10
146.827321
 20
35.311088
 30
0.0
 10
146.461013
 20
34.938947
 30
0.0
 10
146.060884
 20
34.946237
 30
0.0
  0
SPLINE
  5
200
100
AcDbEntity
  8
Ebene_1
 62
7
100
AcDbSpline
 70
8
 71
3
 72
8
 73
4
 74
0
 40
0
 40
0
 40
0
 40
0
 40
1
 40
1
 40
1
 40
1
 10
146.060884
 20
34.946237
 30
0.0
 10
145.286353
 20
34.831052
 30
0.0
 10
144.498188
 20
34.881184
 30
0.0
 10
143.718995
 20
34.811357
 30
0.0
  0
SPLINE
  5
201
100
AcDbEntity
  8
Ebene_1
 62
7
100
AcDbSpline
 70
8
 71
3
 72
8
 73
4
 74
0
 40
0
 40
0
 40
0
 40
0
 40
1
 40
1
 40
1
 40
1
 10
143.718995
 20
34.811357
 30
0.0
 10
137.170586
 20
34.564848
 30
0.0
 10
130.616248
 20
34.579333
 30
0.0
 10
124.064407
 20
34.522507
 30
0.0
  0
SPLINE
  5
202
100
AcDbEntity
  8
Ebene_1
 62
7
100
AcDbSpline
 70
8
 71
3
 72
8
 73
4
 74
0
 40
0
 40
0
 40
0
 40
0
 40
1
 40
1
 40
1
 40
1
 10
124.064407
 20
34.522507
 30
0.0
 10
109.347914
 20
34.449512
 30
0.0
 10
94.629966
 20
34.460858
 30
0.0
 10
79.915005
 20
34.703576
 30
0.0
  0
SPLINE
  5
203
100
AcDbEntity
  8
Ebene_1
 62
7
100
AcDbSpline
 70
8
 71
3
 72
8
 73
4
 74
0
 40
0
 40
0
 40
0
 40
0
 40
1
 40
1
 40
1
 40
1
 10
79.915005
 20
34.703576
 30
0.0
 10
77.736126
 20
34.759740
 30
0.0
 10
75.551621
 20
34.786972
 30
0.0
 10
73.381252
 20
34.991641
 30
0.0
  0
SPLINE
  5
204
100
AcDbEntity
  8
Ebene_1
 62
7
100
AcDbSpline
 70
8
 71
3
 72
8
 73
4
 74
0
 40
0
 40
0
 40
0
 40
0
 40
1
 40
1
 40
1
 40
1
 10
73.381252
 20
34.991641
 30
0.0
 10
72.832457
 20
35.120488
 30
0.0
 10
72.562810
 20
35.812021
 30
0.0
 10
72.874041
 20
36.281940
 30
0.0
  0
SPLINE
  5
205
100
AcDbEntity
  8
Ebene_1
 62
7
100
AcDbSpline
 70
8
 71
3
 72
8
 73
4
 74
0
 40
0
 40
0
 40
0
 40
0
 40
1
 40
1
 40
1
 40
1
 10
72.874041
 20
36.281940
 30
0.0
 10
73.262975
 20
36.998500
 30
0.0
 10
73.978883
 20
37.457942
 30
0.0
 10
74.623593
 20
37.923323
 30
0.0
  0
SPLINE
  5
206
100
AcDbEntity
  8
Ebene_1
 62
7
100
AcDbSpline
 70
8
 71
3
 72
8
 73
4
 74
0
 40
0
 40
0
 40
0
 40
0
 40
1
 40
1
 40
1
 40
1
 10
74.623593
 20
37.923323
 30
0.0
 10
75.768166
 20
38.659229
 30
0.0
 10
77.010091
 20
39.229535
 30
0.0
 10
78.217268
 20
39.849604
 30
0.0
  0
SPLINE
  5
207
100
AcDbEntity
  8
Ebene_1
 62
7
100
AcDbSpline
 70
8
 71
3
 72
8
 73
4
 74
0
 40
0
 40
0
 40
0
 40
0
 40
1
 40
1
 40
1
 40
1
 10
78.217268
 20
39.849604
 30
0.0
 10
78.490328
 20
39.954406
 30
0.0
 10
78.783395
 20
40.013577
 30
0.0
 10
79.076594
 20
40.000000
 30
0.0
  0
LWPOLYLINE
  5
208
100
AcDbEntity
  8
Ebene_1
 62
7
100
AcDbPolyline
 90
1
 70
1
 10
170.237148
 20
49.364849
 30
0.0
  0
SPLINE
  5
209
100
AcDbEntity
  8
Ebene_1
 62
7
100
AcDbSpline
 70
8
 71
3
 72
8
 73
4
 74
0
 40
0
 40
0
 40
0
 40
0
 40
1
 40
1
 40
1
 40
1
 10
55.477690
 20
60.624210
 30
0.0
 10
51.879050
 20
61.443966
 30
0.0
 10
49.541559
 20
62.342664
 30
0.0
 10
48.759066
 20
63.207313
 30
0.0
  0
SPLINE
  5
20a
100
AcDbEntity
  8
Ebene_1
 62
7
100
AcDbSpline
 70
8
 71
3
 72
8
 73
4
 74
0
 40
0
 40
0
 40
0
 40
0
 40
1
 40
1
 40
1
 40
1
 10
48.759066
 20
63.207313
 30
0.0
 10
47.199197
 20
64.930938
 30
0.0
 10
48.417257
 20
72.044746
 30
0.0
 10
50.678104
 20
74.415057
 30
0.0
  0
SPLINE
  5
20b
100
AcDbEntity
  8
Ebene_1
 62
7
100
AcDbSpline
 70
8
 71
3
 72
8
 73
4
 74
0
 40
0
 40
0
 40
0
 40
0
 40
1
 40
1
 40
1
 40
1
 10
50.678104
 20
74.415057
 30
0.0
 10
51.384387
 20
75.155530
 30
0.0
 10
51.628759
 20
75.234274
 30
0.0
 10
52.691525
 20
75.063738
 30
0.0
  0
SPLINE
  5
20c
100
AcDbEntity
  8
Ebene_1
 62
7
100
AcDbSpline
 70
8
 71
3
 72
8
 73
4
 74
0
 40
0
 40
0
 40
0
 40
0
 40
1
 40
1
 40
1
 40
1
 10
52.691525
 20
75.063738
 30
0.0
 10
54.413099
 20
74.787483
 30
0.0
 10
55.956213
 20
73.778092
 30
0.0
 10
58.763161
 20
71.092144
 30
0.0
  0
SPLINE
  5
20d
100
AcDbEntity
  8
Ebene_1
 62
7
100
AcDbSpline
 70
8
 71
3
 72
8
 73
4
 74
0
 40
0
 40
0
 40
0
 40
0
 40
1
 40
1
 40
1
 40
1
 10
58.763161
 20
71.092144
 30
0.0
 10
60.517828
 20
69.413100
 30
0.0
 10
61.649731
 20
68.589061
 30
0.0
 10
62.739814
 20
68.197073
 30
0.0
  0
SPLINE
  5
20e
100
AcDbEntity
  8
Ebene_1
 62
7
100
AcDbSpline
 70
8
 71
3
 72
8
 73
4
 74
0
 40
0
 40
0
 40
0
 40
0
 40
1
 40
1
 40
1
 40
1
 10
62.739814
 20
68.197073
 30
0.0
 10
63.577912
 20
67.895704
 30
0.0
 10
64.981230
 20
67.134571
 30
0.0
 10
65.858313
 20
66.505662
 30
0.0
  0
SPLINE
  5
20f
100
AcDbEntity
  8
Ebene_1
 62
7
100
AcDbSpline
 70
8
 71
3
 72
8
 73
4
 74
0
 40
0
 40
0
 40
0
 40
0
 40
1
 40
1
 40
1
 40
1
 10
65.858313
 20
66.505662
 30
0.0
 10
67.594590
 20
65.260682
 30
0.0
 10
70.012811
 20
62.577070
 30
0.0
 10
70.012811
 20
61.895229
 30
0.0
  0
SPLINE
  5
210
100
AcDbEntity
  8
Ebene_1
 62
7
100
AcDbSpline
 70
8
 71
3
 72
8
 73
4
 74
0
 40
0
 40
0
 40
0
 40
0
 40
1
 40
1
 40
1
 40
1
 10
70.012811
 20
61.895229
 30
0.0
 10
70.012811
 20
61.088371
 30
0.0
 10
65.987227
 20
60.110239
 30
0.0
 10
62.182821
 20
59.992700
 30
0.0
  0
SPLINE
  5
211
100
AcDbEntity
  8
Ebene_1
 62
7
100
AcDbSpline
 70
8
 71
3
 72
8
 73
4
 74
0
 40
0
 40
0
 40
0
 40
0
 40
1
 40
1
 40
1
 40
1
 10
62.182821
 20
59.992700
 30
0.0
 10
59.321524
 20
59.904293
 30
0.0
 10
58.156083
 20
60.014164
 30
0.0
 10
55.477690
 20
60.624210
 30
0.0
  0
LWPOLYLINE
  5
212
100
AcDbEntity
  8
Ebene_1
 62
7
100
AcDbPolyline
 90
1
 70
1
 10
79.076594
 20
40.000000
 30
0.0
  0
SPLINE
  5
213
100
AcDbEntity
  8
Ebene_1
 62
7
100
AcDbSpline
 70
8
 71
3
 72
8
 73
4
 74
0
 40
0
 40
0
 40
0
 40
0
 40
1
 40
1
 40
1
 40
1
 10
163.437474
 20
60.624210
 30
0.0
 10
167.036113
 20
61.443966
 30
0.0
 10
169.373605
 20
62.342664
 30
0.0
 10
170.156097
 20
63.207313
 30
0.0
  0
SPLINE
  5
214
100
AcDbEntity
  8
Ebene_1
 62
7
100
AcDbSpline
 70
8
 71
3
 72
8
 73
4
 74
0
 40
0
 40
0
 40
0
 40
0
 40
1
 40
1
 40
1
 40
1
 10
170.156097
 20
63.207313
 30
0.0
 10
171.715966
 20
64.930938
 30
0.0
 10
170.497906
 20
72.044746
 30
0.0
 10
168.237059
 20
74.415057
 30
0.0
  0
SPLINE
  5
215
100
AcDbEntity
  8
Ebene_1
 62
7
100
AcDbSpline
 70
8
 71
3
 72
8
 73
4
 74
0
 40
0
 40
0
 40
0
 40
0
 40
1
 40
1
 40
1
 40
1
 10
168.237059
 20
74.415057
 30
0.0
 10
167.530777
 20
75.155530
 30
0.0
 10
167.286404
 20
75.234274
 30
0.0
 10
166.223638
 20
75.063738
 30
0.0
  0
SPLINE
  5
216
100
AcDbEntity
  8
Ebene_1
 62
7
100
AcDbSpline
 70
8
 71
3
 72
8
 73
4
 74
0
 40
0
 40
0
 40
0
 40
0
 40
1
 40
1
 40
1
 40
1
 10
166.223638
 20
75.063738
 30
0.0
 10
164.502065
 20
74.787483
 30
0.0
 10
162.958950
 20
73.778092
 30
0.0
 10
160.152003
 20
71.092144
 30
0.0
  0
SPLINE
  5
217
100
AcDbEntity
  8
Ebene_1
 62
7
100
AcDbSpline
 70
8
 71
3
 72
8
 73
4
 74
0
 40
0
 40
0
 40
0
 40
0
 40
1
 40
1
 40
1
 40
1
 10
160.152003
 20
71.092144
 30
0.0
 10
158.397336
 20
69.413100
 30
0.0
 10
157.265432
 20
68.589061
 30
0.0
 10
156.175350
 20
68.197073
 30
0.0
  0
SPLINE
  5
218
100
AcDbEntity
  8
Ebene_1
 62
7
100
AcDbSpline
 70
8
 71
3
 72
8
 73
4
 74
0
 40
0
 40
0
 40
0
 40
0
 40
1
 40
1
 40
1
 40
1
 10
156.175350
 20
68.197073
 30
0.0
 10
155.337251
 20
67.895704
 30
0.0
 10
153.933933
 20
67.134571
 30
0.0
 10
153.056850
 20
66.505662
 30
0.0
  0
SPLINE
  5
219
100
AcDbEntity
  8
Ebene_1
 62
7
100
AcDbSpline
 70
8
 71
3
 72
8
 73
4
 74
0
 40
0
 40
0
 40
0
 40
0
 40
1
 40
1
 40
1
 40
1
 10
153.056850
 20
66.505662
 30
0.0
 10
151.320564
 20
65.260682
 30
0.0
 10
148.902353
 20
62.577070
 30
0.0
 10
148.902353
 20
61.895229
 30
0.0
  0
SPLINE
  5
21a
100
AcDbEntity
  8
Ebene_1
 62
7
100
AcDbSpline
 70
8
 71
3
 72
8
 73
4
 74
0
 40
0
 40
0
 40
0
 40
0
 40
1
 40
1
 40
1
 40
1
 10
148.902353
 20
61.895229
 30
0.0
 10
148.902353
 20
61.088371
 30
0.0
 10
152.927937
 20
60.110239
 30
0.0
 10
156.732333
 20
59.992700
 30
0.0
  0
SPLINE
  5
21b
100
AcDbEntity
  8
Ebene_1
 62
7
100
AcDbSpline
 70
8
 71
3
 72
8
 73
4
 74
0
 40
0
 40
0
 40
0
 40
0
 40
1
 40
1
 40
1
 40
1
 10
156.732333
 20
59.992700
 30
0.0
 10
159.593639
 20
59.904293
 30
0.0
 10
160.759080
 20
60.014164
 30
0.0
 10
163.437474
 20
60.624210
 30
0.0
  0
LWPOLYLINE
  5
21c
100
AcDbEntity
  8
Ebene_1
 62
7
100
AcDbPolyline
 90
1
 70
1
 10
55.477690
 20
60.624210
 30
0.0
  0
LWPOLYLINE
  5
21d
100
AcDbEntity
  8
Ebene_1
 62
7
100
AcDbPolyline
 90
1
 70
1
 10
163.437474
 20
60.624210
 30
0.0
  0
ENDSEC
  0
SECTION
  2
OBJECTS
  0
DICTIONARY
  5
C
330
0
100
AcDbDictionary
  3
ACAD_GROUP
350
D
  3
ACAD_MLINESTYLE
350
17
  0
DICTIONARY
  5
D
330
C
100
AcDbDictionary
  0
DICTIONARY
  5
1A
330
C
100
AcDbDictionary
  0
DICTIONARY
  5
17
330
C
100
AcDbDictionary
  3
STANDARD
350
18
  0
DICTIONARY
  5
19
330
C
100
AcDbDictionary
  0
ENDSEC
  0
EOF
