<?xml version="1.0" encoding="UTF-8" standalone="no"?>
<!-- Created with Inkscape (http://www.inkscape.org/) -->

<svg
   xmlns:dc="http://purl.org/dc/elements/1.1/"
   xmlns:cc="http://creativecommons.org/ns#"
   xmlns:rdf="http://www.w3.org/1999/02/22-rdf-syntax-ns#"
   xmlns:svg="http://www.w3.org/2000/svg"
   xmlns="http://www.w3.org/2000/svg"
   xmlns:sodipodi="http://sodipodi.sourceforge.net/DTD/sodipodi-0.dtd"
   xmlns:inkscape="http://www.inkscape.org/namespaces/inkscape"
   width="220mm"
   height="300mm"
   viewBox="0 0 220 300"
   version="1.1"
   id="svg8"
   inkscape:version="0.92.4 (5da689c313, 2019-01-14)"
   sodipodi:docname="Notahorse_ParkingOnly.svg">
  <defs
     id="defs2">
    <inkscape:perspective
       sodipodi:type="inkscape:persp3d"
       inkscape:vp_x="0 : 150 : 1"
       inkscape:vp_y="0 : 1000 : 0"
       inkscape:vp_z="220 : 150 : 1"
       inkscape:persp3d-origin="110 : 100 : 1"
       id="perspective1900" />
  </defs>
  <sodipodi:namedview
     id="base"
     pagecolor="#ffffff"
     bordercolor="#666666"
     borderopacity="1.0"
     inkscape:pageopacity="0.0"
     inkscape:pageshadow="2"
     inkscape:zoom="0.24748737"
     inkscape:cx="2055.7101"
     inkscape:cy="995.37436"
     inkscape:document-units="mm"
     inkscape:current-layer="layer1"
     showgrid="true"
     inkscape:window-width="1920"
     inkscape:window-height="1147"
     inkscape:window-x="-8"
     inkscape:window-y="-8"
     inkscape:window-maximized="1">
    <inkscape:grid
       type="xygrid"
       id="grid1508" />
  </sodipodi:namedview>
  <metadata
     id="metadata5">
    <rdf:RDF>
      <cc:Work
         rdf:about="">
        <dc:format>image/svg+xml</dc:format>
        <dc:type
           rdf:resource="http://purl.org/dc/dcmitype/StillImage" />
        <dc:title></dc:title>
      </cc:Work>
    </rdf:RDF>
  </metadata>
  <g
     inkscape:label="Ebene 1"
     inkscape:groupmode="layer"
     id="layer1"
     transform="translate(0,3)">
    <path
       id="path21491-7-7"
       style="fill:#000000;stroke-width:0.26458341"
       d="m 165.25118,43.916273 c -1.00768,-0.678601 -2.26304,-2.266083 -2.26304,-2.861721 0,-0.214021 2.08079,-0.26426 10.94158,-0.26426 7.43876,0 10.94156,0.0675 10.94156,0.21068 0,0.415851 -0.78445,1.72453 -1.34915,2.25076 -0.31667,0.295119 -0.89489,0.72789 -1.28493,0.96171 -0.68655,0.411599 -0.9517,0.425159 -8.31018,0.4259 h -7.60104 l -1.0748,-0.72381 z m -94.66089,0.01299 c -1.30532,-0.87842 -2.40201,-2.185141 -2.42186,-2.885721 -0.005,-0.199588 2.3151,-0.25328 10.94803,-0.25328 h 10.95522 l -0.13524,0.45589 c -0.25894,0.8729 -1.20379,2.029449 -2.21354,2.70945 l -1.01637,0.68448 h -7.53001 -7.53 z m 0.71158,8.472709 c -1.10366,-0.593248 -1.90389,-1.30393 -2.52637,-2.243709 -1.19908,-1.81025 -2.07734,-1.66837 10.3273,-1.66837 7.5044,0 10.94156,0.0666 10.94156,0.212688 0,0.808112 -1.43706,2.718912 -2.599,3.455811 l -0.9249,0.586541 -7.30536,-0.008 c -6.32351,-0.008 -7.38706,-0.0521 -7.91323,-0.334849 z m 92.29413,2.367331 v -6.28314 l 10.38438,0.0525 10.38433,0.0525 0.0537,6.230609 0.0537,6.230602 h -1.82652 -1.82654 v -4.153731 -4.153742 h -6.7878 -6.78783 v 4.153742 4.153739 h -1.82359 -1.82358 z m -31.00109,-3.949251 v -10.2324 h 1.8236 1.82359 v 8.206189 8.20615 h 8.19203 8.19204 l -0.18412,0.641962 c -0.29162,1.016751 -1.11674,2.113909 -2.09704,2.78838 l -0.90421,0.62212 h -8.42294 -8.42295 z m -61.29304,9.830782 c -1.2074,-0.597792 -2.29185,-1.565661 -2.74126,-2.446631 -0.21965,-0.430541 -0.39936,-0.877639 -0.39936,-0.993511 0,-0.143189 3.5028,-0.210701 10.94155,-0.210701 8.86076,0 10.94156,0.0501 10.94156,0.264272 0,0.46737 -1.15194,2.098241 -1.85294,2.623259 -1.59012,1.19104 -1.38781,1.164931 -9.0279,1.164751 -6.61984,-1.51e-4 -7.10075,-0.02471 -7.86165,-0.401439 z m 29.68405,0.399399 c 0,-0.51513 0.91941,-2.077651 1.54651,-2.628241 1.62882,-1.430129 1.57793,-1.422001 8.88046,-1.422001 h 6.59327 v -2.127509 -2.127538 h -8.51012 -8.51012 v -6.07863 -6.078662 h 10.33373 c 5.68355,0 10.33372,0.0345 10.33372,0.0765 0,0.0422 -0.13346,0.39583 -0.29644,0.786019 -0.38103,0.911932 -1.202,1.882802 -2.20882,2.61215 l -0.79752,0.577691 h -6.85873 -6.85873 v 2.026211 2.026208 h 8.61142 8.61142 v 6.281319 6.281251 h -10.435 c -6.8966,0 -10.43505,-0.0694 -10.43505,-0.20483 z m -56.17455,-8.05199 -0.0529,-8.25685 -3.34327,-0.101362 -3.34325,-0.101348 -0.93535,-0.673399 c -0.51445,-0.370383 -1.11578,-0.917451 -1.3363,-1.215732 -0.41597,-0.562639 -1.07159,-1.75606 -1.07159,-1.950601 0,-0.0613 5.42517,-0.1114 12.05597,-0.1114 8.21016,0 12.05598,0.0671 12.05598,0.210701 0,0.46831 -0.82205,1.756759 -1.55316,2.43432 -1.45095,1.344721 -1.28628,1.298491 -5.01171,1.407412 l -3.46489,0.101359 -0.053,8.256849 -0.0529,8.256821 h -1.92036 -1.92037 z"
       inkscape:connector-curvature="0" />
    <path
       inkscape:connector-curvature="0"
       style="opacity:1;fill:none;fill-opacity:1;stroke:#000000;stroke-width:0.40000001;stroke-linejoin:round;stroke-miterlimit:4;stroke-dasharray:none;stroke-opacity:1;paint-order:markers fill stroke"
       d="M 0,-2.599979 H 219.59999 V 297 H 0 Z"
       id="rect867-6-7" />
    <g
       id="g1528-2-8"
       transform="translate(-0.80119,-2.645839)">
      <path
         inkscape:connector-curvature="0"
         id="rect875-7-2"
         d="m 47.561944,10.836904 c -19.29457,0 -34.93522,15.61954 -34.93522,34.88805 V 255.57088 c 0,19.26853 15.64065,34.88807 34.93522,34.88807 H 173.64044 c 19.29457,0 34.93522,-15.61955 34.93522,-34.88807 V 45.724954 c 0,-19.26851 -15.64065,-34.88805 -34.93522,-34.88805 z m 0,6.82005 H 173.64044 c 15.62928,0 28.10595,12.45983 28.10595,28.068 V 255.57088 c 0,15.60818 -12.47667,28.06801 -28.10595,28.06801 H 47.561944 c -15.62929,0 -28.10595,-12.45983 -28.10595,-28.06801 V 45.724954 c 0,-15.60817 12.47666,-28.068 28.10595,-28.068 z"
         style="color:#000000;font-style:normal;font-variant:normal;font-weight:normal;font-stretch:normal;font-size:medium;line-height:normal;font-family:sans-serif;font-variant-ligatures:normal;font-variant-position:normal;font-variant-caps:normal;font-variant-numeric:normal;font-variant-alternates:normal;font-feature-settings:normal;text-indent:0;text-align:start;text-decoration:none;text-decoration-line:none;text-decoration-style:solid;text-decoration-color:#000000;letter-spacing:normal;word-spacing:normal;text-transform:none;writing-mode:lr-tb;direction:ltr;text-orientation:mixed;dominant-baseline:auto;baseline-shift:baseline;text-anchor:start;white-space:normal;shape-padding:0;clip-rule:nonzero;display:inline;overflow:visible;visibility:visible;opacity:1;isolation:auto;mix-blend-mode:normal;color-interpolation:sRGB;color-interpolation-filters:linearRGB;solid-color:#000000;solid-opacity:1;vector-effect:none;fill:#000000;fill-opacity:1;fill-rule:nonzero;stroke:none;stroke-width:7;stroke-linecap:butt;stroke-linejoin:round;stroke-miterlimit:4;stroke-dasharray:none;stroke-dashoffset:0;stroke-opacity:1;paint-order:markers fill stroke;color-rendering:auto;image-rendering:auto;shape-rendering:auto;text-rendering:auto;enable-background:accumulate" />
      <g
         style="fill:#000000;fill-opacity:1;stroke:none"
         id="g1520-8-4">
        <path
           inkscape:connector-curvature="0"
           style="opacity:1;fill:#000000;fill-opacity:1;stroke:none;stroke-width:0.2;stroke-linejoin:round;stroke-miterlimit:4;stroke-dasharray:none;stroke-opacity:1;paint-order:markers fill stroke"
           d="m 35.455364,268.33692 a 2.5,2.5 0 0 1 -2.5,2.49999 2.5,2.5 0 0 1 -2.5,-2.49999 2.5,2.5 0 0 1 2.5,-2.5 2.5,2.5 0 0 1 2.5,2.5 z"
           id="path879-3-8" />
        <path
           inkscape:connector-curvature="0"
           style="opacity:1;fill:#000000;fill-opacity:1;stroke:none;stroke-width:0.2;stroke-linejoin:round;stroke-miterlimit:4;stroke-dasharray:none;stroke-opacity:1;paint-order:markers fill stroke"
           d="m 190.36904,268.04524 a 2.5,2.5 0 0 1 -2.5,2.50002 2.5,2.5 0 0 1 -2.5,-2.50002 2.5,2.5 0 0 1 2.5,-2.49999 2.5,2.5 0 0 1 2.5,2.49999 z"
           id="path881-0-4" />
        <path
           inkscape:connector-curvature="0"
           style="opacity:1;fill:#000000;fill-opacity:1;stroke:none;stroke-width:0.2;stroke-linejoin:round;stroke-miterlimit:4;stroke-dasharray:none;stroke-opacity:1;paint-order:markers fill stroke"
           d="m 190.74702,32.958941 a 2.5,2.5 0 0 1 -2.5,2.5 2.5,2.5 0 0 1 -2.5,-2.5 2.5,2.5 0 0 1 2.5,-2.5 2.5,2.5 0 0 1 2.5,2.5 z"
           id="path883-3-3" />
        <path
           inkscape:connector-curvature="0"
           style="opacity:1;fill:#000000;fill-opacity:1;stroke:none;stroke-width:0.2;stroke-linejoin:round;stroke-miterlimit:4;stroke-dasharray:none;stroke-opacity:1;paint-order:markers fill stroke"
           d="m 35.747024,32.958941 a 2.5,2.5 0 0 1 -2.5,2.5 2.5,2.5 0 0 1 -2.5,-2.5 2.5,2.5 0 0 1 2.5,-2.5 2.5,2.5 0 0 1 2.5,2.5 z"
           id="path885-2-2" />
      </g>
    </g>
    <g
       aria-label="PARKING ONLY"
       transform="matrix(0.96219563,0,0,1.0392897,239.76462,3.740401)"
       style="font-style:normal;font-variant:normal;font-weight:bold;font-stretch:normal;font-size:31.42560768px;line-height:0.89999998;font-family:'Victorian LET';-inkscape-font-specification:'Victorian LET Bold';letter-spacing:0px;word-spacing:0px;fill:#000000;fill-opacity:1;stroke:none;stroke-width:0.26458329"
       id="text2148-6-1">
      <path
         d="m -219.5272,222.50896 v -11.78461 h 17.6769 c 0.53195,0 0.99228,-0.18413 1.38101,-0.5524 0.38873,-0.38873 0.58309,-0.85929 0.58309,-1.4117 v -1.9641 h -19.641 v -3.9282 h 23.5692 v 7.8564 c 0,1.10481 -0.38873,2.03571 -1.16618,2.79271 -0.77746,0.75699 -1.69813,1.13549 -2.76202,1.13549 h -15.7128 v 7.85641 z"
         style="font-style:normal;font-variant:normal;font-weight:bold;font-stretch:normal;line-height:0.89999998;font-family:TESLA;-inkscape-font-specification:'TESLA Bold';text-align:center;text-anchor:middle;stroke-width:0.26458329"
         id="path2156-0-3"
         inkscape:connector-curvature="0"
         sodipodi:nodetypes="ccscsccccscsccc" />
      <path
         d="m -192.0298,222.50896 v -11.78461 h 23.56921 v 11.78461 h -3.9282 v -7.85641 h -15.71281 v 7.85641 z m 3.9282,-15.71281 c -1.1048,0 -2.0357,-0.3785 -2.7927,-1.13549 -0.757,-0.77746 -1.1355,-1.70836 -1.1355,-2.79271 h 23.56921 c 0,1.10481 -0.38873,2.03571 -1.16619,2.79271 -0.77745,0.75699 -1.69812,1.13549 -2.76201,1.13549 z"
         style="font-style:normal;font-variant:normal;font-weight:bold;font-stretch:normal;line-height:0.89999998;font-family:TESLA;-inkscape-font-specification:'TESLA Bold';text-align:center;text-anchor:middle;stroke-width:0.26458329"
         id="path2158-5-7"
         inkscape:connector-curvature="0"
         sodipodi:nodetypes="cccccccccscccsss" />
      <path
         d="m -164.53239,222.50896 v -11.78461 h 17.6769 c 0.53195,0 0.99228,-0.18413 1.38101,-0.5524 0.38873,-0.38873 0.58309,-0.85929 0.58309,-1.4117 v -1.9641 h -15.7128 c -1.10481,0 -2.03571,-0.3785 -2.7927,-1.13549 -0.757,-0.77746 -1.1355,-1.70836 -1.1355,-2.79271 h 23.56921 v 7.8564 c 0,1.10481 -0.38873,2.03571 -1.16619,2.79271 -0.77745,0.75699 -1.7084,1.27206 -2.76202,1.13549 h -3.9282 l 7.85641,7.85641 h -5.89231 l -7.8564,-7.85641 h -5.8923 v 7.85641 z"
         style="font-style:normal;font-variant:normal;font-weight:bold;font-stretch:normal;line-height:0.89999998;font-family:TESLA;-inkscape-font-specification:'TESLA Bold';text-align:center;text-anchor:middle;stroke-width:0.26458329"
         id="path2160-7-8"
         inkscape:connector-curvature="0"
         sodipodi:nodetypes="ccscscscccsssccccccc" />
      <path
         d="m -137.03498,222.50896 v -19.64101 h 3.9282 v 19.64101 z m 17.6769,0 -9.8205,-9.82051 9.8205,-9.8205 h 5.8923 l -7.8564,7.8564 h -0.0307 l -1.93341,1.9641 9.8205,9.82051 z"
         style="font-style:normal;font-variant:normal;font-weight:bold;font-stretch:normal;line-height:0.89999998;font-family:TESLA;-inkscape-font-specification:'TESLA Bold';text-align:center;text-anchor:middle;stroke-width:0.26458329"
         id="path2162-1-7"
         inkscape:connector-curvature="0"
         sodipodi:nodetypes="cccccccccccccc" />
      <path
         d="m -109.53758,222.50896 v -19.64101 h 3.9282 v 19.64101 z"
         style="font-style:normal;font-variant:normal;font-weight:bold;font-stretch:normal;line-height:0.89999998;font-family:TESLA;-inkscape-font-specification:'TESLA Bold';text-align:center;text-anchor:middle;stroke-width:0.26458329"
         id="path2164-5-1"
         inkscape:connector-curvature="0"
         sodipodi:nodetypes="ccccc" />
      <path
         d="m -97.752978,222.50896 v -15.71281 l -3.928202,-3.9282 h 5.892303 l 13.748703,13.7487 v -13.7487 h 3.928201 v 19.64101 h -3.928201 l -11.784603,-11.78461 v 11.78461 z"
         style="font-style:normal;font-variant:normal;font-weight:bold;font-stretch:normal;line-height:0.89999998;font-family:TESLA;-inkscape-font-specification:'TESLA Bold';text-align:center;text-anchor:middle;stroke-width:0.26458329"
         id="path2166-6-8"
         inkscape:connector-curvature="0"
         sodipodi:nodetypes="cccccccccccc" />
      <path
         d="m -70.255572,222.50896 c -1.104806,0 -2.035708,-0.3785 -2.792705,-1.1355 -0.756997,-0.77745 -1.135496,-1.70836 -1.135496,-2.79271 v -7.8564 h 3.928201 v 5.8923 c 0,0.55241 0.184135,1.02297 0.552404,1.4117 0.388728,0.36827 0.859294,0.5524 1.411697,0.5524 h 13.748703 v -3.9282 h -7.856402 c -1.104806,0 -2.035708,-0.3785 -2.792705,-1.13549 -0.756997,-0.77746 -1.135496,-1.70836 -1.135496,-2.79271 h 15.712804 v 11.78461 z m -3.928201,-15.71281 v -3.9282 h 23.569206 c 0,1.10481 -0.388728,2.03571 -1.166184,2.79271 -0.777457,0.75699 -1.698129,1.13549 -2.762017,1.13549 z"
         style="font-style:normal;font-variant:normal;font-weight:bold;font-stretch:normal;line-height:0.89999998;font-family:TESLA;-inkscape-font-specification:'TESLA Bold';text-align:center;text-anchor:middle;stroke-width:0.26458329"
         id="path2168-0-2"
         inkscape:connector-curvature="0"
         sodipodi:nodetypes="scsccscsccsccccsccccsc" />
      <path
         d="m -188.10159,250.91739 v -11.7846 h 3.9282 v 7.8564 h 15.7128 v -7.8564 h 3.9282 v 11.7846 z m 3.9282,-15.7128 q -1.65721,0 -2.79271,-1.1355 -1.13549,-1.16618 -1.13549,-2.7927 h 23.5692 q 0,1.65721 -1.16618,2.7927 -1.16619,1.1355 -2.76202,1.1355 z"
         style="font-style:normal;font-variant:normal;font-weight:bold;font-stretch:normal;line-height:0.89999998;font-family:TESLA;-inkscape-font-specification:'TESLA Bold';text-align:center;text-anchor:middle;stroke-width:0.26458329"
         id="path2170-2-0"
         inkscape:connector-curvature="0" />
      <path
         d="m -156.67599,250.91739 v -15.7128 l -3.9282,-3.9282 h 5.8923 l 13.74871,13.7487 v -13.7487 h 3.9282 v 19.641 h -3.9282 l -11.78461,-11.7846 v 11.7846 z"
         style="font-style:normal;font-variant:normal;font-weight:bold;font-stretch:normal;line-height:0.89999998;font-family:TESLA;-inkscape-font-specification:'TESLA Bold';text-align:center;text-anchor:middle;stroke-width:0.26458329"
         id="path2172-0-9"
         inkscape:connector-curvature="0" />
      <path
         d="m -133.10678,250.91739 v -19.641 h 3.9282 v 15.7128 h 19.641 q 0,1.65721 -1.16618,2.79271 -1.16619,1.13549 -2.76202,1.13549 z"
         style="font-style:normal;font-variant:normal;font-weight:bold;font-stretch:normal;line-height:0.89999998;font-family:TESLA;-inkscape-font-specification:'TESLA Bold';text-align:center;text-anchor:middle;stroke-width:0.26458329"
         id="path2174-8-4"
         inkscape:connector-curvature="0" />
      <path
         d="m -95.788874,250.91739 v -5.8923 l -9.820506,-9.8205 v -3.9282 h 3.9282 v 1.9641 l 7.856406,7.8564 7.856402,-7.8564 v -1.9641 h 3.928201 v 3.9282 l -9.820502,9.8205 v 5.8923 z"
         style="font-style:normal;font-variant:normal;font-weight:bold;font-stretch:normal;line-height:0.89999998;font-family:TESLA;-inkscape-font-specification:'TESLA Bold';text-align:center;text-anchor:middle;stroke-width:0.26458329"
         id="path2176-4-5"
         inkscape:connector-curvature="0" />
    </g>
    <g
       id="g1637-6-0"
       transform="matrix(1.0406997,0,0,1.0406997,3.13523,-43.712669)"
       style="stroke-width:0.96089196">
      <path
         sodipodi:nodetypes="ccsscsccccsccccccsccccccscccccccccccccccsccccccsccsscccccccsccscsscccscscccccccccccccccccccccccccccccccccccccccc"
         inkscape:connector-curvature="0"
         id="path827-2-3"
         d="m 100.5508,126.29493 c -7.15817,0.10924 -14.31911,0.2003 -21.47018,0.5574 -6.06132,0.32691 -12.15058,0.87845 -18.04681,2.38277 -1.63258,0.45868 -3.28995,0.91393 -4.79485,1.70957 -0.79201,0.54216 -1.30184,1.38757 -1.82776,2.16908 -2.00229,3.2158 -3.19341,6.83941 -4.47059,10.38312 -1.95676,5.55844 -3.91843,11.11549 -5.96991,16.63985 -1.2937,-0.084 -2.60873,0.0865 -3.88476,-0.20312 -0.7558,-0.76425 -0.67402,-1.92081 -1.0157,-2.87366 -0.305,-1.25734 -0.54349,-2.65858 -1.51951,-3.59135 -0.95603,-0.62075 -2.13349,-0.27024 -3.17741,-0.1481 -2.0194,0.34499 -4.18385,0.58657 -5.87722,1.84553 -1.19409,0.99092 -1.81849,2.48004 -2.28162,3.92143 -0.1733,0.51419 -0.0752,1.09491 0.30494,1.492 0.85869,1.06478 2.31127,1.24286 3.58134,1.40168 4.13619,0.49236 8.30238,0.69349 12.4344,1.22591 0.0515,0.54156 -0.56033,0.77906 -0.76411,1.21571 -2.35149,2.93773 -5.23033,5.42195 -7.44615,8.47149 -1.04002,1.90412 -0.95042,4.14105 -1.02519,6.24259 -0.048,6.08234 0.31875,12.15802 0.69602,18.22586 0.34835,5.03895 0.74364,10.08306 1.51811,15.07696 0.35468,1.91607 1.17908,3.74573 2.43359,5.24196 0.46791,0.57819 0.92395,1.1957 1.44663,1.71095 0.76316,0.21247 1.54944,-0.0682 2.32461,-0.0106 10.31602,-0.49222 20.64328,-0.72599 30.97075,-0.75268 22.73651,-0.17188 45.47445,-0.13446 68.21054,0.0742 6.87882,0.0805 13.75444,0.31714 20.62953,0.54317 1.32241,0.0104 2.6863,0.0756 3.96467,-0.31112 1.59263,-0.72908 2.51146,-2.34952 3.15097,-3.90297 1.0502,-2.69668 1.23481,-5.61481 1.59874,-8.45778 0.68465,-6.61971 0.9021,-13.2753 1.16815,-19.92155 0.1194,-3.88986 0.21657,-7.78669 0.0365,-11.67546 -0.23103,-1.41531 -1.32638,-2.44014 -2.13769,-3.54861 -2.19412,-2.72858 -4.70505,-5.1931 -6.77758,-8.02097 0.1888,-0.47641 0.78832,-0.23975 1.17241,-0.36331 4.2919,-0.46466 8.63212,-0.50755 12.8895,-1.26595 1.02456,-0.29375 2.09962,-1.02915 2.25965,-2.15537 -0.0543,-1.0045 -0.63493,-1.86995 -1.0218,-2.76989 -0.80471,-1.47659 -2.28238,-2.5381 -3.92496,-2.87711 -2.30211,-0.63312 -4.71119,-0.50932 -7.07012,-0.69142 -0.36681,0.251 -0.28547,0.7692 -0.43479,1.14236 -0.40974,1.89316 -0.77428,3.79568 -1.17068,5.69162 -1.56259,-0.003 -3.12523,0.008 -4.6875,0.041 -2.91252,-8.01973 -5.49635,-16.16787 -8.85381,-24.019 -0.78759,-1.73536 -1.5439,-3.5331 -2.7873,-5.00008 -1.03949,-1.12364 -2.51342,-1.71691 -3.99303,-1.98888 -3.69364,-0.86592 -7.4814,-1.20963 -11.24594,-1.61391 -6.53301,-0.66021 -13.09541,-0.97945 -19.65881,-1.11902 -4.484,-0.11292 -8.9699,-0.16204 -13.45525,-0.12434 z m -10.64064,4.76562 c 11.90992,0.13468 23.82005,0.32833 35.72377,0.74726 6.70363,0.19563 13.40903,0.42247 20.10055,0.87128 0.25585,-0.0177 0.53429,0.0368 0.59142,0.32901 2.94617,5.46439 4.95404,11.36678 6.74172,17.29332 0.80678,2.68798 1.64985,5.37468 2.18446,8.13302 0.0984,0.68996 0.24763,1.41057 0.10146,2.10072 -0.17858,0.52109 -0.73915,0.76214 -1.25631,0.74958 -3.33966,0.43939 -6.71646,0.36702 -10.07678,0.44297 -15.62056,0.1914 -31.24263,0.12617 -46.86398,0.13718 -14.73934,-0.007 -29.47968,-0.0278 -44.21721,-0.27523 -1.07021,-0.0316 -2.14092,-0.0747 -3.20684,-0.1795 -0.62536,-0.50569 -0.37707,-1.38491 -0.3316,-2.07253 0.42775,-3.57951 1.6052,-7.00594 2.64783,-10.43944 1.65083,-5.1689 3.47643,-10.30859 5.95113,-15.14895 0.2215,-0.49295 0.66136,-0.86767 1.20126,-0.95329 0.77448,-0.15681 1.58676,-0.19124 2.37623,-0.33452 7.14672,-0.91344 14.37883,-1.08883 21.57913,-1.34932 2.25052,-0.0629 4.50254,-0.0673 6.75376,-0.0516 z m -51.82617,65.63086 c 2.0195,0.2205 4.05012,0.32615 6.07413,0.50061 4.52156,0.3509 9.04407,0.71231 13.54696,1.25916 0.34827,0.36804 -0.11758,0.81652 -0.43282,1.01197 -1.2134,0.94121 -2.82705,0.84969 -4.27663,0.96223 -3.82905,0.16376 -7.6624,0.10182 -11.49368,0.12541 -0.28411,-0.1396 -0.56793,0.26527 -0.3051,0.46932 1.06391,2.27142 2.3757,4.46538 2.96915,6.92375 0.0978,0.53755 0.28837,1.22883 -0.2226,1.62245 -0.4229,0.39657 -1.15121,0.41052 -1.54008,-0.0407 -1.26958,-0.96566 -1.95953,-2.45946 -2.64712,-3.85418 -1.23572,-2.79641 -1.63617,-5.87339 -1.84604,-8.89605 0.0221,-0.0704 0.10625,-0.10387 0.17383,-0.084 z m 128.32814,0.4043 c 0.56894,0.21194 0.57717,0.93334 0.45833,1.4305 -0.21526,3.30151 -0.89188,6.67583 -2.6573,9.51998 -0.54653,0.82111 -1.27876,1.65812 -2.28678,1.86535 -0.59656,0.0768 -1.21628,-0.4099 -1.16694,-1.03643 -0.074,-1.23006 0.49057,-2.37591 0.9317,-3.4908 0.66682,-1.52417 1.42598,-3.01134 2.18779,-4.48587 0.13094,-0.31572 -0.23722,-0.40982 -0.4738,-0.35156 -4.60096,-0.0158 -9.21504,0.14628 -13.80329,-0.26769 -0.80033,-0.11738 -1.68064,-0.58668 -1.87721,-1.42958 -0.0366,-0.44005 0.49554,-0.35717 0.77936,-0.40299 5.92065,-0.59846 11.84969,-1.16277 17.79877,-1.37826 0.0365,0.009 0.0729,0.0182 0.10937,0.0273 z M 70,207 c 19.06997,0.053 38.14116,-0.0722 57.21002,0.18964 2.89819,0.0713 5.80344,0.12088 8.68846,0.42241 1.47265,0.22841 2.81187,1.01133 3.93748,1.96217 0.63556,0.57583 1.26145,1.20489 1.68164,1.95508 0.13611,0.42973 -0.2513,0.82331 -0.67448,0.8156 -0.81915,0.12182 -1.65272,0.0688 -2.4768,0.14265 -6.92565,0.26071 -13.85757,0.24539 -20.78685,0.30549 -15.56428,0.0772 -31.1301,0.0652 -46.69276,-0.1915 -2.3044,-0.0594 -4.61475,-0.0882 -6.91015,-0.30466 -0.58041,-0.13627 -0.86559,-0.86764 -0.53643,-1.36463 0.41134,-0.75784 1.16849,-1.24375 1.85034,-1.73594 1.21051,-0.7783 2.52398,-1.38146 3.8007,-2.03725 C 69.37996,207.04822 69.68991,206.98564 70,207 Z"
         style="fill:#000000;stroke-width:0.9608919" />
      <path
         inkscape:connector-curvature="0"
         id="path1589-3-9"
         d="m 45.04161,185.18767 c -3.80595,-0.86698 -6.2781,-1.81745 -7.10567,-2.73191 -1.64973,-1.82292 -0.3615,-9.34654 2.02959,-11.8534 0.74697,-0.78313 1.00542,-0.86641 2.12941,-0.68605 1.82075,0.29217 3.45276,1.35971 6.42141,4.20039 1.85575,1.77577 3.05286,2.64728 4.20574,3.06185 0.88638,0.31873 2.37054,1.12371 3.29815,1.78885 1.8363,1.3167 4.39383,4.15491 4.39383,4.87603 0,0.85334 -4.25749,1.88782 -8.28106,2.01213 -3.02613,0.0935 -4.25871,-0.0227 -7.0914,-0.66789 z"
         style="fill:#fffff5;fill-opacity:1;stroke-width:0.96089208" />
      <path
         inkscape:connector-curvature="0"
         id="path1589-1-77-6"
         d="m 159.22074,185.18767 c 3.80595,-0.86698 6.2781,-1.81745 7.10567,-2.73191 1.64973,-1.82292 0.3615,-9.34654 -2.02959,-11.8534 -0.74697,-0.78313 -1.00542,-0.86641 -2.12941,-0.68605 -1.82075,0.29217 -3.45276,1.35971 -6.42141,4.20039 -1.85575,1.77577 -3.05286,2.64728 -4.20574,3.06185 -0.88638,0.31873 -2.37054,1.12371 -3.29815,1.78885 -1.83631,1.3167 -4.39383,4.15491 -4.39383,4.87603 0,0.85334 4.25749,1.88782 8.28105,2.01213 3.02614,0.0935 4.25872,-0.0227 7.09141,-0.66789 z"
         style="fill:#fffff5;fill-opacity:1;stroke-width:0.96089208" />
    </g>
  </g>
</svg>
