  0
SECTION
  2
HEADER
  9
$ACADVER
  1
AC1014
  9
$HANDSEED
  5
FFFF
  9
$MEASUREMENT
 70
     1
  0
ENDSEC
  0
SECTION
  2
TABLES
  0
TABLE
  2
VPORT
  5
8
330
0
100
AcDbSymbolTable
 70
     4
  0
VPORT
  5
2E
330
8
100
AcDbSymbolTableRecord
100
AcDbViewportTableRecord
  2
*ACTIVE
 70
     0
 10
0.0
 20
0.0
 11
1.0
 21
1.0
 12
210.0
 22
148.5
 13
0.0
 23
0.0
 14
10.0
 24
10.0
 15
10.0
 25
10.0
 16
0.0
 26
0.0
 36
1.0
 17
0.0
 27
0.0
 37
0.0
 40
341.0
 41
1.24
 42
50.0
 43
0.0
 44
0.0
 50
0.0
 51
0.0
 71
     0
 72
   100
 73
     1
 74
     3
 75
     0
 76
     0
 77
     0
 78
     0
  0
ENDTAB
  0
TABLE
  2
LTYPE
  5
5
330
0
100
AcDbSymbolTable
 70
     1
  0
LTYPE
  5
14
330
5
100
AcDbSymbolTableRecord
100
AcDbLinetypeTableRecord
  2
BYBLOCK
 70
     0
  3

 72
    65
 73
     0
 40
0.0
  0
LTYPE
  5
15
330
5
100
AcDbSymbolTableRecord
100
AcDbLinetypeTableRecord
  2
BYLAYER
 70
     0
  3

 72
    65
 73
     0
 40
0.0
  0
LTYPE
  5
16
330
5
100
AcDbSymbolTableRecord
100
AcDbLinetypeTableRecord
  2
CONTINUOUS
 70
     0
  3
Solid line
 72
    65
 73
     0
 40
0.0
  0
ENDTAB
  0
TABLE
  2
LAYER
  5
2
100
AcDbSymbolTable
 70
2
  0
LAYER
  5
50
100
AcDbSymbolTableRecord
100
AcDbLayerTableRecord
  2
0
 70
0
  6
CONTINUOUS
  0
LAYER
  5
51
100
AcDbSymbolTableRecord
100
AcDbLayerTableRecord
  2
Ebene_1
 70
0
  6
CONTINUOUS
  0
ENDTAB
  0
TABLE
  2
STYLE
  5
3
330
0
100
AcDbSymbolTable
 70
     1
  0
STYLE
  5
11
330
3
100
AcDbSymbolTableRecord
100
AcDbTextStyleTableRecord
  2
STANDARD
 70
     0
 40
0.0
 41
1.0
 50
0.0
 71
     0
 42
2.5
  3
txt
  4

  0
ENDTAB
  0
TABLE
  2
VIEW
  5
6
330
0
100
AcDbSymbolTable
 70
     0
  0
ENDTAB
  0
TABLE
  2
UCS
  5
7
330
0
100
AcDbSymbolTable
 70
     0
  0
ENDTAB
  0
TABLE
  2
APPID
  5
9
330
0
100
AcDbSymbolTable
 70
     2
  0
APPID
  5
12
330
9
100
AcDbSymbolTableRecord
100
AcDbRegAppTableRecord
  2
ACAD
 70
     0
  0
ENDTAB
  0
TABLE
  2
DIMSTYLE
  5
A
330
0
100
AcDbSymbolTable
 70
     1
  0
DIMSTYLE
105
27
330
A
100
AcDbSymbolTableRecord
100
AcDbDimStyleTableRecord
  2
ISO-25
 70
     0
  3

  4

  5

  6

  7

 40
1.0
 41
2.5
 42
0.625
 43
3.75
 44
1.25
 45
0.0
 46
0.0
 47
0.0
 48
0.0
140
2.5
141
2.5
142
0.0
143
0.03937007874016
144
1.0
145
0.0
146
1.0
147
0.625
 71
     0
 72
     0
 73
     0
 74
     0
 75
     0
 76
     0
 77
     1
 78
     8
170
     0
171
     3
172
     1
173
     0
174
     0
175
     0
176
     0
177
     0
178
     0
270
     2
271
     2
272
     2
273
     2
274
     3
340
11
275
     0
280
     0
281
     0
282
     0
283
     0
284
     8
285
     0
286
     0
287
     3
288
     0
  0
ENDTAB
  0
TABLE
  2
BLOCK_RECORD
  5
1
330
0
100
AcDbSymbolTable
 70
     1
  0
BLOCK_RECORD
  5
1F
330
1
100
AcDbSymbolTableRecord
100
AcDbBlockTableRecord
  2
*MODEL_SPACE
  0
BLOCK_RECORD
  5
1B
330
1
100
AcDbSymbolTableRecord
100
AcDbBlockTableRecord
  2
*PAPER_SPACE
  0
ENDTAB
  0
ENDSEC
  0
SECTION
  2
BLOCKS
  0
BLOCK
  5
20
330
1F
100
AcDbEntity
  8
0
100
AcDbBlockBegin
  2
*MODEL_SPACE
 70
     0
 10
0.0
 20
0.0
 30
0.0
  3
*MODEL_SPACE
  1

  0
ENDBLK
  5
21
330
1F
100
AcDbEntity
  8
0
100
AcDbBlockEnd
  0
BLOCK
  5
1C
330
1B
100
AcDbEntity
 67
     1
  8
0
100
AcDbBlockBegin
  2
*PAPER_SPACE
  1

  0
ENDBLK
  5
1D
330
1B
100
AcDbEntity
 67
     1
  8
0
100
AcDbBlockEnd
  0
ENDSEC
  0
SECTION
  2
ENTITIES
  0
SPLINE
  5
100
100
AcDbEntity
  8
Ebene_1
 62
7
100
AcDbSpline
 70
8
 71
3
 72
8
 73
4
 74
0
 40
0
 40
0
 40
0
 40
0
 40
1
 40
1
 40
1
 40
1
 10
46.760752
 20
288.808934
 30
0.0
 10
27.466182
 20
288.808934
 30
0.0
 10
11.825532
 20
273.189394
 30
0.0
 10
11.825532
 20
253.920884
 30
0.0
  0
LWPOLYLINE
  5
101
100
AcDbEntity
  8
Ebene_1
 62
7
100
AcDbPolyline
 90
4
 70
1
 10
0.000000
 20
299.599980
 30
0.0
 10
219.600000
 20
299.599980
 30
0.0
 10
219.600000
 20
0.000000
 30
0.0
 10
0.000000
 20
0.000000
 30
0.0
  0
SPLINE
  5
102
100
AcDbEntity
  8
Ebene_1
 62
7
100
AcDbSpline
 70
8
 71
3
 72
8
 73
4
 74
0
 40
0
 40
0
 40
0
 40
0
 40
1
 40
1
 40
1
 40
1
 10
11.825532
 20
44.074958
 30
0.0
 10
11.825532
 20
24.806428
 30
0.0
 10
27.466182
 20
9.186888
 30
0.0
 10
46.760752
 20
9.186888
 30
0.0
  0
LWPOLYLINE
  5
103
100
AcDbEntity
  8
Ebene_1
 62
7
100
AcDbPolyline
 90
2
 70
0
 10
11.825532
 20
253.920884
 30
0.0
 10
11.825532
 20
44.074958
 30
0.0
  0
SPLINE
  5
104
100
AcDbEntity
  8
Ebene_1
 62
7
100
AcDbSpline
 70
8
 71
3
 72
8
 73
4
 74
0
 40
0
 40
0
 40
0
 40
0
 40
1
 40
1
 40
1
 40
1
 10
172.839248
 20
9.186888
 30
0.0
 10
192.133818
 20
9.186888
 30
0.0
 10
207.774468
 20
24.806438
 30
0.0
 10
207.774468
 20
44.074958
 30
0.0
  0
LWPOLYLINE
  5
105
100
AcDbEntity
  8
Ebene_1
 62
7
100
AcDbPolyline
 90
2
 70
0
 10
46.760752
 20
9.186888
 30
0.0
 10
172.839248
 20
9.186888
 30
0.0
  0
SPLINE
  5
106
100
AcDbEntity
  8
Ebene_1
 62
7
100
AcDbSpline
 70
8
 71
3
 72
8
 73
4
 74
0
 40
0
 40
0
 40
0
 40
0
 40
1
 40
1
 40
1
 40
1
 10
207.774468
 20
253.920884
 30
0.0
 10
207.774468
 20
273.189394
 30
0.0
 10
192.133818
 20
288.808934
 30
0.0
 10
172.839248
 20
288.808934
 30
0.0
  0
LWPOLYLINE
  5
107
100
AcDbEntity
  8
Ebene_1
 62
7
100
AcDbPolyline
 90
2
 70
0
 10
207.774468
 20
44.074958
 30
0.0
 10
207.774468
 20
253.920884
 30
0.0
  0
LWPOLYLINE
  5
108
100
AcDbEntity
  8
Ebene_1
 62
7
100
AcDbPolyline
 90
2
 70
0
 10
172.839248
 20
288.808934
 30
0.0
 10
46.760752
 20
288.808934
 30
0.0
  0
SPLINE
  5
109
100
AcDbEntity
  8
Ebene_1
 62
7
100
AcDbSpline
 70
8
 71
3
 72
8
 73
4
 74
0
 40
0
 40
0
 40
0
 40
0
 40
1
 40
1
 40
1
 40
1
 10
172.839248
 20
281.988884
 30
0.0
 10
188.468528
 20
281.988884
 30
0.0
 10
200.945198
 20
269.529054
 30
0.0
 10
200.945198
 20
253.920884
 30
0.0
  0
LWPOLYLINE
  5
10a
100
AcDbEntity
  8
Ebene_1
 62
7
100
AcDbPolyline
 90
2
 70
0
 10
46.760752
 20
281.988884
 30
0.0
 10
172.839248
 20
281.988884
 30
0.0
  0
SPLINE
  5
10b
100
AcDbEntity
  8
Ebene_1
 62
7
100
AcDbSpline
 70
8
 71
3
 72
8
 73
4
 74
0
 40
0
 40
0
 40
0
 40
0
 40
1
 40
1
 40
1
 40
1
 10
200.945198
 20
44.074958
 30
0.0
 10
200.945198
 20
28.466778
 30
0.0
 10
188.468528
 20
16.006948
 30
0.0
 10
172.839248
 20
16.006948
 30
0.0
  0
LWPOLYLINE
  5
10c
100
AcDbEntity
  8
Ebene_1
 62
7
100
AcDbPolyline
 90
2
 70
0
 10
200.945198
 20
253.920884
 30
0.0
 10
200.945198
 20
44.074958
 30
0.0
  0
SPLINE
  5
10d
100
AcDbEntity
  8
Ebene_1
 62
7
100
AcDbSpline
 70
8
 71
3
 72
8
 73
4
 74
0
 40
0
 40
0
 40
0
 40
0
 40
1
 40
1
 40
1
 40
1
 10
46.760752
 20
16.006948
 30
0.0
 10
31.131462
 20
16.006948
 30
0.0
 10
18.654802
 20
28.466778
 30
0.0
 10
18.654802
 20
44.074958
 30
0.0
  0
LWPOLYLINE
  5
10e
100
AcDbEntity
  8
Ebene_1
 62
7
100
AcDbPolyline
 90
2
 70
0
 10
172.839248
 20
16.006948
 30
0.0
 10
46.760752
 20
16.006948
 30
0.0
  0
SPLINE
  5
10f
100
AcDbEntity
  8
Ebene_1
 62
7
100
AcDbSpline
 70
8
 71
3
 72
8
 73
4
 74
0
 40
0
 40
0
 40
0
 40
0
 40
1
 40
1
 40
1
 40
1
 10
18.654802
 20
253.920884
 30
0.0
 10
18.654802
 20
269.529054
 30
0.0
 10
31.131462
 20
281.988884
 30
0.0
 10
46.760752
 20
281.988884
 30
0.0
  0
LWPOLYLINE
  5
110
100
AcDbEntity
  8
Ebene_1
 62
7
100
AcDbPolyline
 90
2
 70
0
 10
18.654802
 20
44.074958
 30
0.0
 10
18.654802
 20
253.920884
 30
0.0
  0
SPLINE
  5
111
100
AcDbEntity
  8
Ebene_1
 62
7
100
AcDbSpline
 70
8
 71
3
 72
8
 73
4
 74
0
 40
0
 40
0
 40
0
 40
0
 40
1
 40
1
 40
1
 40
1
 10
34.654172
 20
31.308918
 30
0.0
 10
34.654167
 20
29.928210
 30
0.0
 10
33.534880
 20
28.808928
 30
0.0
 10
32.154172
 20
28.808928
 30
0.0
  0
SPLINE
  5
112
100
AcDbEntity
  8
Ebene_1
 62
7
100
AcDbSpline
 70
8
 71
3
 72
8
 73
4
 74
0
 40
0
 40
0
 40
0
 40
0
 40
1
 40
1
 40
1
 40
1
 10
32.154172
 20
28.808928
 30
0.0
 10
30.773464
 20
28.808928
 30
0.0
 10
29.654178
 20
29.928210
 30
0.0
 10
29.654172
 20
31.308918
 30
0.0
  0
SPLINE
  5
113
100
AcDbEntity
  8
Ebene_1
 62
7
100
AcDbSpline
 70
8
 71
3
 72
8
 73
4
 74
0
 40
0
 40
0
 40
0
 40
0
 40
1
 40
1
 40
1
 40
1
 10
29.654172
 20
31.308918
 30
0.0
 10
29.654172
 20
31.971959
 30
0.0
 10
29.917564
 20
32.607844
 30
0.0
 10
30.386405
 20
33.076685
 30
0.0
  0
SPLINE
  5
114
100
AcDbEntity
  8
Ebene_1
 62
7
100
AcDbSpline
 70
8
 71
3
 72
8
 73
4
 74
0
 40
0
 40
0
 40
0
 40
0
 40
1
 40
1
 40
1
 40
1
 10
30.386405
 20
33.076685
 30
0.0
 10
30.855246
 20
33.545526
 30
0.0
 10
31.491131
 20
33.808918
 30
0.0
 10
32.154172
 20
33.808918
 30
0.0
  0
SPLINE
  5
115
100
AcDbEntity
  8
Ebene_1
 62
7
100
AcDbSpline
 70
8
 71
3
 72
8
 73
4
 74
0
 40
0
 40
0
 40
0
 40
0
 40
1
 40
1
 40
1
 40
1
 10
32.154172
 20
33.808918
 30
0.0
 10
32.817213
 20
33.808918
 30
0.0
 10
33.453098
 20
33.545526
 30
0.0
 10
33.921939
 20
33.076685
 30
0.0
  0
SPLINE
  5
116
100
AcDbEntity
  8
Ebene_1
 62
7
100
AcDbSpline
 70
8
 71
3
 72
8
 73
4
 74
0
 40
0
 40
0
 40
0
 40
0
 40
1
 40
1
 40
1
 40
1
 10
33.921939
 20
33.076685
 30
0.0
 10
34.390780
 20
32.607844
 30
0.0
 10
34.654172
 20
31.971959
 30
0.0
 10
34.654172
 20
31.308918
 30
0.0
  0
LWPOLYLINE
  5
117
100
AcDbEntity
  8
Ebene_1
 62
7
100
AcDbPolyline
 90
1
 70
1
 10
46.760752
 20
281.988884
 30
0.0
  0
SPLINE
  5
118
100
AcDbEntity
  8
Ebene_1
 62
7
100
AcDbSpline
 70
8
 71
3
 72
8
 73
4
 74
0
 40
0
 40
0
 40
0
 40
0
 40
1
 40
1
 40
1
 40
1
 10
189.567848
 20
31.600598
 30
0.0
 10
189.567853
 20
30.937553
 30
0.0
 10
189.304464
 20
30.301663
 30
0.0
 10
188.835622
 20
29.832818
 30
0.0
  0
SPLINE
  5
119
100
AcDbEntity
  8
Ebene_1
 62
7
100
AcDbSpline
 70
8
 71
3
 72
8
 73
4
 74
0
 40
0
 40
0
 40
0
 40
0
 40
1
 40
1
 40
1
 40
1
 10
188.835622
 20
29.832818
 30
0.0
 10
188.366781
 20
29.363973
 30
0.0
 10
187.730893
 20
29.100578
 30
0.0
 10
187.067848
 20
29.100578
 30
0.0
  0
SPLINE
  5
11a
100
AcDbEntity
  8
Ebene_1
 62
7
100
AcDbSpline
 70
8
 71
3
 72
8
 73
4
 74
0
 40
0
 40
0
 40
0
 40
0
 40
1
 40
1
 40
1
 40
1
 10
187.067848
 20
29.100578
 30
0.0
 10
186.404803
 20
29.100578
 30
0.0
 10
185.768916
 20
29.363973
 30
0.0
 10
185.300074
 20
29.832818
 30
0.0
  0
SPLINE
  5
11b
100
AcDbEntity
  8
Ebene_1
 62
7
100
AcDbSpline
 70
8
 71
3
 72
8
 73
4
 74
0
 40
0
 40
0
 40
0
 40
0
 40
1
 40
1
 40
1
 40
1
 10
185.300074
 20
29.832818
 30
0.0
 10
184.831233
 20
30.301663
 30
0.0
 10
184.567843
 20
30.937553
 30
0.0
 10
184.567848
 20
31.600598
 30
0.0
  0
SPLINE
  5
11c
100
AcDbEntity
  8
Ebene_1
 62
7
100
AcDbSpline
 70
8
 71
3
 72
8
 73
4
 74
0
 40
0
 40
0
 40
0
 40
0
 40
1
 40
1
 40
1
 40
1
 10
184.567848
 20
31.600598
 30
0.0
 10
184.567854
 20
32.981306
 30
0.0
 10
185.687140
 20
34.100588
 30
0.0
 10
187.067848
 20
34.100588
 30
0.0
  0
SPLINE
  5
11d
100
AcDbEntity
  8
Ebene_1
 62
7
100
AcDbSpline
 70
8
 71
3
 72
8
 73
4
 74
0
 40
0
 40
0
 40
0
 40
0
 40
1
 40
1
 40
1
 40
1
 10
187.067848
 20
34.100588
 30
0.0
 10
188.448556
 20
34.100588
 30
0.0
 10
189.567843
 20
32.981306
 30
0.0
 10
189.567848
 20
31.600598
 30
0.0
  0
LWPOLYLINE
  5
11e
100
AcDbEntity
  8
Ebene_1
 62
7
100
AcDbPolyline
 90
1
 70
1
 10
34.654172
 20
31.308918
 30
0.0
  0
SPLINE
  5
11f
100
AcDbEntity
  8
Ebene_1
 62
7
100
AcDbSpline
 70
8
 71
3
 72
8
 73
4
 74
0
 40
0
 40
0
 40
0
 40
0
 40
1
 40
1
 40
1
 40
1
 10
189.945828
 20
266.686897
 30
0.0
 10
189.945828
 20
266.023856
 30
0.0
 10
189.682436
 20
265.387971
 30
0.0
 10
189.213595
 20
264.919130
 30
0.0
  0
SPLINE
  5
120
100
AcDbEntity
  8
Ebene_1
 62
7
100
AcDbSpline
 70
8
 71
3
 72
8
 73
4
 74
0
 40
0
 40
0
 40
0
 40
0
 40
1
 40
1
 40
1
 40
1
 10
189.213595
 20
264.919130
 30
0.0
 10
188.744754
 20
264.450289
 30
0.0
 10
188.108869
 20
264.186897
 30
0.0
 10
187.445828
 20
264.186897
 30
0.0
  0
SPLINE
  5
121
100
AcDbEntity
  8
Ebene_1
 62
7
100
AcDbSpline
 70
8
 71
3
 72
8
 73
4
 74
0
 40
0
 40
0
 40
0
 40
0
 40
1
 40
1
 40
1
 40
1
 10
187.445828
 20
264.186897
 30
0.0
 10
186.782787
 20
264.186897
 30
0.0
 10
186.146902
 20
264.450289
 30
0.0
 10
185.678061
 20
264.919130
 30
0.0
  0
SPLINE
  5
122
100
AcDbEntity
  8
Ebene_1
 62
7
100
AcDbSpline
 70
8
 71
3
 72
8
 73
4
 74
0
 40
0
 40
0
 40
0
 40
0
 40
1
 40
1
 40
1
 40
1
 10
185.678061
 20
264.919130
 30
0.0
 10
185.209220
 20
265.387971
 30
0.0
 10
184.945828
 20
266.023856
 30
0.0
 10
184.945828
 20
266.686897
 30
0.0
  0
SPLINE
  5
123
100
AcDbEntity
  8
Ebene_1
 62
7
100
AcDbSpline
 70
8
 71
3
 72
8
 73
4
 74
0
 40
0
 40
0
 40
0
 40
0
 40
1
 40
1
 40
1
 40
1
 10
184.945828
 20
266.686897
 30
0.0
 10
184.945828
 20
267.349938
 30
0.0
 10
185.209220
 20
267.985823
 30
0.0
 10
185.678061
 20
268.454664
 30
0.0
  0
SPLINE
  5
124
100
AcDbEntity
  8
Ebene_1
 62
7
100
AcDbSpline
 70
8
 71
3
 72
8
 73
4
 74
0
 40
0
 40
0
 40
0
 40
0
 40
1
 40
1
 40
1
 40
1
 10
185.678061
 20
268.454664
 30
0.0
 10
186.146902
 20
268.923505
 30
0.0
 10
186.782787
 20
269.186897
 30
0.0
 10
187.445828
 20
269.186897
 30
0.0
  0
SPLINE
  5
125
100
AcDbEntity
  8
Ebene_1
 62
7
100
AcDbSpline
 70
8
 71
3
 72
8
 73
4
 74
0
 40
0
 40
0
 40
0
 40
0
 40
1
 40
1
 40
1
 40
1
 10
187.445828
 20
269.186897
 30
0.0
 10
188.108869
 20
269.186897
 30
0.0
 10
188.744754
 20
268.923505
 30
0.0
 10
189.213595
 20
268.454664
 30
0.0
  0
SPLINE
  5
126
100
AcDbEntity
  8
Ebene_1
 62
7
100
AcDbSpline
 70
8
 71
3
 72
8
 73
4
 74
0
 40
0
 40
0
 40
0
 40
0
 40
1
 40
1
 40
1
 40
1
 10
189.213595
 20
268.454664
 30
0.0
 10
189.682436
 20
267.985823
 30
0.0
 10
189.945828
 20
267.349938
 30
0.0
 10
189.945828
 20
266.686897
 30
0.0
  0
LWPOLYLINE
  5
127
100
AcDbEntity
  8
Ebene_1
 62
7
100
AcDbPolyline
 90
1
 70
1
 10
189.567848
 20
31.600598
 30
0.0
  0
SPLINE
  5
128
100
AcDbEntity
  8
Ebene_1
 62
7
100
AcDbSpline
 70
8
 71
3
 72
8
 73
4
 74
0
 40
0
 40
0
 40
0
 40
0
 40
1
 40
1
 40
1
 40
1
 10
34.945832
 20
266.686897
 30
0.0
 10
34.945832
 20
266.023856
 30
0.0
 10
34.682440
 20
265.387971
 30
0.0
 10
34.213599
 20
264.919130
 30
0.0
  0
SPLINE
  5
129
100
AcDbEntity
  8
Ebene_1
 62
7
100
AcDbSpline
 70
8
 71
3
 72
8
 73
4
 74
0
 40
0
 40
0
 40
0
 40
0
 40
1
 40
1
 40
1
 40
1
 10
34.213599
 20
264.919130
 30
0.0
 10
33.744758
 20
264.450289
 30
0.0
 10
33.108873
 20
264.186897
 30
0.0
 10
32.445832
 20
264.186897
 30
0.0
  0
SPLINE
  5
12a
100
AcDbEntity
  8
Ebene_1
 62
7
100
AcDbSpline
 70
8
 71
3
 72
8
 73
4
 74
0
 40
0
 40
0
 40
0
 40
0
 40
1
 40
1
 40
1
 40
1
 10
32.445832
 20
264.186897
 30
0.0
 10
31.782791
 20
264.186897
 30
0.0
 10
31.146906
 20
264.450289
 30
0.0
 10
30.678065
 20
264.919130
 30
0.0
  0
SPLINE
  5
12b
100
AcDbEntity
  8
Ebene_1
 62
7
100
AcDbSpline
 70
8
 71
3
 72
8
 73
4
 74
0
 40
0
 40
0
 40
0
 40
0
 40
1
 40
1
 40
1
 40
1
 10
30.678065
 20
264.919130
 30
0.0
 10
30.209224
 20
265.387971
 30
0.0
 10
29.945832
 20
266.023856
 30
0.0
 10
29.945832
 20
266.686897
 30
0.0
  0
SPLINE
  5
12c
100
AcDbEntity
  8
Ebene_1
 62
7
100
AcDbSpline
 70
8
 71
3
 72
8
 73
4
 74
0
 40
0
 40
0
 40
0
 40
0
 40
1
 40
1
 40
1
 40
1
 10
29.945832
 20
266.686897
 30
0.0
 10
29.945832
 20
267.349938
 30
0.0
 10
30.209224
 20
267.985823
 30
0.0
 10
30.678065
 20
268.454664
 30
0.0
  0
SPLINE
  5
12d
100
AcDbEntity
  8
Ebene_1
 62
7
100
AcDbSpline
 70
8
 71
3
 72
8
 73
4
 74
0
 40
0
 40
0
 40
0
 40
0
 40
1
 40
1
 40
1
 40
1
 10
30.678065
 20
268.454664
 30
0.0
 10
31.146906
 20
268.923505
 30
0.0
 10
31.782791
 20
269.186897
 30
0.0
 10
32.445832
 20
269.186897
 30
0.0
  0
SPLINE
  5
12e
100
AcDbEntity
  8
Ebene_1
 62
7
100
AcDbSpline
 70
8
 71
3
 72
8
 73
4
 74
0
 40
0
 40
0
 40
0
 40
0
 40
1
 40
1
 40
1
 40
1
 10
32.445832
 20
269.186897
 30
0.0
 10
33.108873
 20
269.186897
 30
0.0
 10
33.744758
 20
268.923505
 30
0.0
 10
34.213599
 20
268.454664
 30
0.0
  0
SPLINE
  5
12f
100
AcDbEntity
  8
Ebene_1
 62
7
100
AcDbSpline
 70
8
 71
3
 72
8
 73
4
 74
0
 40
0
 40
0
 40
0
 40
0
 40
1
 40
1
 40
1
 40
1
 10
34.213599
 20
268.454664
 30
0.0
 10
34.682440
 20
267.985823
 30
0.0
 10
34.945832
 20
267.349938
 30
0.0
 10
34.945832
 20
266.686897
 30
0.0
  0
LWPOLYLINE
  5
130
100
AcDbEntity
  8
Ebene_1
 62
7
100
AcDbPolyline
 90
1
 70
1
 10
189.945828
 20
266.686897
 30
0.0
  0
SPLINE
  5
131
100
AcDbEntity
  8
Ebene_1
 62
7
100
AcDbSpline
 70
8
 71
3
 72
8
 73
4
 74
0
 40
0
 40
0
 40
0
 40
0
 40
1
 40
1
 40
1
 40
1
 10
109.741580
 20
120.090360
 30
0.0
 10
109.597660
 20
120.849350
 30
0.0
 10
97.214428
 20
189.984400
 30
0.0
 10
97.214428
 20
190.028880
 30
0.0
  0
SPLINE
  5
132
100
AcDbEntity
  8
Ebene_1
 62
7
100
AcDbSpline
 70
8
 71
3
 72
8
 73
4
 74
0
 40
0
 40
0
 40
0
 40
0
 40
1
 40
1
 40
1
 40
1
 10
97.214428
 20
190.028880
 30
0.0
 10
97.214428
 20
190.092080
 30
0.0
 10
93.556948
 20
189.999680
 30
0.0
 10
91.718528
 20
189.889870
 30
0.0
  0
SPLINE
  5
133
100
AcDbEntity
  8
Ebene_1
 62
7
100
AcDbSpline
 70
8
 71
3
 72
8
 73
4
 74
0
 40
0
 40
0
 40
0
 40
0
 40
1
 40
1
 40
1
 40
1
 10
91.718528
 20
189.889870
 30
0.0
 10
86.247458
 20
189.563600
 30
0.0
 10
83.433558
 20
188.605520
 30
0.0
 10
82.073508
 20
186.605950
 30
0.0
  0
SPLINE
  5
134
100
AcDbEntity
  8
Ebene_1
 62
7
100
AcDbSpline
 70
8
 71
3
 72
8
 73
4
 74
0
 40
0
 40
0
 40
0
 40
0
 40
1
 40
1
 40
1
 40
1
 10
82.073508
 20
186.605950
 30
0.0
 10
81.572068
 20
185.868710
 30
0.0
 10
81.362728
 20
185.343050
 30
0.0
 10
81.143878
 20
184.271840
 30
0.0
  0
SPLINE
  5
135
100
AcDbEntity
  8
Ebene_1
 62
7
100
AcDbSpline
 70
8
 71
3
 72
8
 73
4
 74
0
 40
0
 40
0
 40
0
 40
0
 40
1
 40
1
 40
1
 40
1
 10
81.143878
 20
184.271840
 30
0.0
 10
81.054978
 20
183.836580
 30
0.0
 10
80.966008
 20
183.464250
 30
0.0
 10
80.946188
 20
183.444440
 30
0.0
  0
SPLINE
  5
136
100
AcDbEntity
  8
Ebene_1
 62
7
100
AcDbSpline
 70
8
 71
3
 72
8
 73
4
 74
0
 40
0
 40
0
 40
0
 40
0
 40
1
 40
1
 40
1
 40
1
 10
80.946188
 20
183.444440
 30
0.0
 10
80.879588
 20
183.377840
 30
0.0
 10
78.605938
 20
184.458170
 30
0.0
 10
77.466758
 20
185.097730
 30
0.0
  0
SPLINE
  5
137
100
AcDbEntity
  8
Ebene_1
 62
7
100
AcDbSpline
 70
8
 71
3
 72
8
 73
4
 74
0
 40
0
 40
0
 40
0
 40
0
 40
1
 40
1
 40
1
 40
1
 10
77.466758
 20
185.097730
 30
0.0
 10
74.059468
 20
187.010630
 30
0.0
 10
71.384468
 20
189.225490
 30
0.0
 10
69.564728
 20
191.640450
 30
0.0
  0
SPLINE
  5
138
100
AcDbEntity
  8
Ebene_1
 62
7
100
AcDbSpline
 70
8
 71
3
 72
8
 73
4
 74
0
 40
0
 40
0
 40
0
 40
0
 40
1
 40
1
 40
1
 40
1
 10
69.564728
 20
191.640450
 30
0.0
 10
69.297378
 20
191.995250
 30
0.0
 10
69.078648
 20
192.314580
 30
0.0
 10
69.078648
 20
192.350070
 30
0.0
  0
SPLINE
  5
139
100
AcDbEntity
  8
Ebene_1
 62
7
100
AcDbSpline
 70
8
 71
3
 72
8
 73
4
 74
0
 40
0
 40
0
 40
0
 40
0
 40
1
 40
1
 40
1
 40
1
 10
69.078648
 20
192.350070
 30
0.0
 10
69.078648
 20
192.385570
 30
0.0
 10
69.217098
 20
192.471880
 30
0.0
 10
69.386258
 20
192.541900
 30
0.0
  0
SPLINE
  5
13a
100
AcDbEntity
  8
Ebene_1
 62
7
100
AcDbSpline
 70
8
 71
3
 72
8
 73
4
 74
0
 40
0
 40
0
 40
0
 40
0
 40
1
 40
1
 40
1
 40
1
 10
69.386258
 20
192.541900
 30
0.0
 10
69.555428
 20
192.612000
 30
0.0
 10
70.284478
 20
192.926150
 30
0.0
 10
71.006318
 20
193.240190
 30
0.0
  0
SPLINE
  5
13b
100
AcDbEntity
  8
Ebene_1
 62
7
100
AcDbSpline
 70
8
 71
3
 72
8
 73
4
 74
0
 40
0
 40
0
 40
0
 40
0
 40
1
 40
1
 40
1
 40
1
 10
71.006318
 20
193.240190
 30
0.0
 10
79.276918
 20
196.838250
 30
0.0
 10
90.027428
 20
199.353230
 30
0.0
 10
99.675278
 20
199.947000
 30
0.0
  0
LWPOLYLINE
  5
13c
100
AcDbEntity
  8
Ebene_1
 62
7
100
AcDbPolyline
 90
1
 70
1
 10
34.945832
 20
266.686897
 30
0.0
  0
SPLINE
  5
13d
100
AcDbEntity
  8
Ebene_1
 62
7
100
AcDbSpline
 70
8
 71
3
 72
8
 73
4
 74
0
 40
0
 40
0
 40
0
 40
0
 40
1
 40
1
 40
1
 40
1
 10
105.159630
 20
194.366650
 30
0.0
 10
107.702300
 20
191.268300
 30
0.0
 10
109.810800
 20
188.764340
 30
0.0
 10
109.845180
 20
188.802260
 30
0.0
  0
SPLINE
  5
13e
100
AcDbEntity
  8
Ebene_1
 62
7
100
AcDbSpline
 70
8
 71
3
 72
8
 73
4
 74
0
 40
0
 40
0
 40
0
 40
0
 40
1
 40
1
 40
1
 40
1
 10
109.845180
 20
188.802260
 30
0.0
 10
109.879580
 20
188.840160
 30
0.0
 10
111.943260
 20
191.351830
 30
0.0
 10
114.431150
 20
194.383650
 30
0.0
  0
SPLINE
  5
13f
100
AcDbEntity
  8
Ebene_1
 62
7
100
AcDbSpline
 70
8
 71
3
 72
8
 73
4
 74
0
 40
0
 40
0
 40
0
 40
0
 40
1
 40
1
 40
1
 40
1
 10
114.431150
 20
194.383650
 30
0.0
 10
116.919060
 20
197.415450
 30
0.0
 10
118.992620
 20
199.919520
 30
0.0
 10
119.039050
 20
199.948230
 30
0.0
  0
SPLINE
  5
140
100
AcDbEntity
  8
Ebene_1
 62
7
100
AcDbSpline
 70
8
 71
3
 72
8
 73
4
 74
0
 40
0
 40
0
 40
0
 40
0
 40
1
 40
1
 40
1
 40
1
 10
119.039050
 20
199.948230
 30
0.0
 10
119.135950
 20
200.008030
 30
0.0
 10
121.205040
 20
199.874630
 30
0.0
 10
123.012390
 20
199.691970
 30
0.0
  0
SPLINE
  5
141
100
AcDbEntity
  8
Ebene_1
 62
7
100
AcDbSpline
 70
8
 71
3
 72
8
 73
4
 74
0
 40
0
 40
0
 40
0
 40
0
 40
1
 40
1
 40
1
 40
1
 10
123.012390
 20
199.691970
 30
0.0
 10
130.634240
 20
198.921530
 30
0.0
 10
138.289220
 20
197.157830
 30
0.0
 10
145.242110
 20
194.570270
 30
0.0
  0
SPLINE
  5
142
100
AcDbEntity
  8
Ebene_1
 62
7
100
AcDbSpline
 70
8
 71
3
 72
8
 73
4
 74
0
 40
0
 40
0
 40
0
 40
0
 40
1
 40
1
 40
1
 40
1
 10
145.242110
 20
194.570270
 30
0.0
 10
146.883020
 20
193.959570
 30
0.0
 10
149.522530
 20
192.869620
 30
0.0
 10
150.210920
 20
192.518420
 30
0.0
  0
LWPOLYLINE
  5
143
100
AcDbEntity
  8
Ebene_1
 62
7
100
AcDbPolyline
 90
3
 70
0
 10
99.675278
 20
199.947000
 30
0.0
 10
100.536580
 20
200.000000
 30
0.0
 10
105.159630
 20
194.366650
 30
0.0
  0
SPLINE
  5
144
100
AcDbEntity
  8
Ebene_1
 62
7
100
AcDbSpline
 70
8
 71
3
 72
8
 73
4
 74
0
 40
0
 40
0
 40
0
 40
0
 40
1
 40
1
 40
1
 40
1
 10
150.117680
 20
191.783990
 30
0.0
 10
148.505520
 20
189.567470
 30
0.0
 10
145.978150
 20
187.389270
 30
0.0
 10
142.848250
 20
185.518840
 30
0.0
  0
SPLINE
  5
145
100
AcDbEntity
  8
Ebene_1
 62
7
100
AcDbSpline
 70
8
 71
3
 72
8
 73
4
 74
0
 40
0
 40
0
 40
0
 40
0
 40
1
 40
1
 40
1
 40
1
 10
142.848250
 20
185.518840
 30
0.0
 10
141.987450
 20
185.004430
 30
0.0
 10
139.137980
 20
183.574230
 30
0.0
 10
138.749450
 20
183.461590
 30
0.0
  0
SPLINE
  5
146
100
AcDbEntity
  8
Ebene_1
 62
7
100
AcDbSpline
 70
8
 71
3
 72
8
 73
4
 74
0
 40
0
 40
0
 40
0
 40
0
 40
1
 40
1
 40
1
 40
1
 10
138.749450
 20
183.461590
 30
0.0
 10
138.589130
 20
183.414990
 30
0.0
 10
138.567640
 20
183.450390
 30
0.0
 10
138.514280
 20
183.844040
 30
0.0
  0
SPLINE
  5
147
100
AcDbEntity
  8
Ebene_1
 62
7
100
AcDbSpline
 70
8
 71
3
 72
8
 73
4
 74
0
 40
0
 40
0
 40
0
 40
0
 40
1
 40
1
 40
1
 40
1
 10
138.514280
 20
183.844040
 30
0.0
 10
138.481980
 20
184.082520
 30
0.0
 10
138.365390
 20
184.590410
 30
0.0
 10
138.255160
 20
184.972690
 30
0.0
  0
SPLINE
  5
148
100
AcDbEntity
  8
Ebene_1
 62
7
100
AcDbSpline
 70
8
 71
3
 72
8
 73
4
 74
0
 40
0
 40
0
 40
0
 40
0
 40
1
 40
1
 40
1
 40
1
 10
138.255160
 20
184.972690
 30
0.0
 10
137.387070
 20
187.983000
 30
0.0
 10
134.822210
 20
189.319720
 30
0.0
 10
128.959460
 20
189.817230
 30
0.0
  0
SPLINE
  5
149
100
AcDbEntity
  8
Ebene_1
 62
7
100
AcDbSpline
 70
8
 71
3
 72
8
 73
4
 74
0
 40
0
 40
0
 40
0
 40
0
 40
1
 40
1
 40
1
 40
1
 10
128.959460
 20
189.817230
 30
0.0
 10
127.682900
 20
189.925610
 30
0.0
 10
122.373800
 20
190.064580
 30
0.0
 10
122.307090
 20
189.991420
 30
0.0
  0
SPLINE
  5
14a
100
AcDbEntity
  8
Ebene_1
 62
7
100
AcDbSpline
 70
8
 71
3
 72
8
 73
4
 74
0
 40
0
 40
0
 40
0
 40
0
 40
1
 40
1
 40
1
 40
1
 10
122.307090
 20
189.991420
 30
0.0
 10
122.272990
 20
189.954120
 30
0.0
 10
112.023990
 20
132.460260
 30
0.0
 10
109.860990
 20
120.172340
 30
0.0
  0
LWPOLYLINE
  5
14b
100
AcDbEntity
  8
Ebene_1
 62
7
100
AcDbPolyline
 90
3
 70
0
 10
150.210920
 20
192.518420
 30
0.0
 10
150.532520
 20
192.354350
 30
0.0
 10
150.117680
 20
191.783990
 30
0.0
  0
SPLINE
  5
14c
100
AcDbEntity
  8
Ebene_1
 62
7
100
AcDbSpline
 70
8
 71
3
 72
8
 73
4
 74
0
 40
0
 40
0
 40
0
 40
0
 40
1
 40
1
 40
1
 40
1
 10
150.532950
 20
195.451700
 30
0.0
 10
140.735980
 20
199.583530
 30
0.0
 10
129.605460
 20
202.212750
 30
0.0
 10
118.500820
 20
203.018230
 30
0.0
  0
SPLINE
  5
14d
100
AcDbEntity
  8
Ebene_1
 62
7
100
AcDbSpline
 70
8
 71
3
 72
8
 73
4
 74
0
 40
0
 40
0
 40
0
 40
0
 40
1
 40
1
 40
1
 40
1
 10
118.500820
 20
203.018230
 30
0.0
 10
114.933140
 20
203.277020
 30
0.0
 10
107.521300
 20
203.361770
 30
0.0
 10
103.932280
 20
203.184820
 30
0.0
  0
SPLINE
  5
14e
100
AcDbEntity
  8
Ebene_1
 62
7
100
AcDbSpline
 70
8
 71
3
 72
8
 73
4
 74
0
 40
0
 40
0
 40
0
 40
0
 40
1
 40
1
 40
1
 40
1
 10
103.932280
 20
203.184820
 30
0.0
 10
91.494658
 20
202.571570
 30
0.0
 10
80.051798
 20
200.036850
 30
0.0
 10
69.054558
 20
195.459030
 30
0.0
  0
SPLINE
  5
14f
100
AcDbEntity
  8
Ebene_1
 62
7
100
AcDbSpline
 70
8
 71
3
 72
8
 73
4
 74
0
 40
0
 40
0
 40
0
 40
0
 40
1
 40
1
 40
1
 40
1
 10
69.054558
 20
195.459030
 30
0.0
 10
68.296888
 20
195.143650
 30
0.0
 10
67.629828
 20
194.903690
 30
0.0
 10
67.572168
 20
194.925820
 30
0.0
  0
SPLINE
  5
150
100
AcDbEntity
  8
Ebene_1
 62
7
100
AcDbSpline
 70
8
 71
3
 72
8
 73
4
 74
0
 40
0
 40
0
 40
0
 40
0
 40
1
 40
1
 40
1
 40
1
 10
67.572168
 20
194.925820
 30
0.0
 10
67.514568
 20
194.948020
 30
0.0
 10
67.040168
 20
195.827950
 30
0.0
 10
66.518058
 20
196.881400
 30
0.0
  0
SPLINE
  5
151
100
AcDbEntity
  8
Ebene_1
 62
7
100
AcDbSpline
 70
8
 71
3
 72
8
 73
4
 74
0
 40
0
 40
0
 40
0
 40
0
 40
1
 40
1
 40
1
 40
1
 10
66.518058
 20
196.881400
 30
0.0
 10
65.541228
 20
198.852350
 30
0.0
 10
65.086008
 20
199.876210
 30
0.0
 10
65.155598
 20
199.945800
 30
0.0
  0
SPLINE
  5
152
100
AcDbEntity
  8
Ebene_1
 62
7
100
AcDbSpline
 70
8
 71
3
 72
8
 73
4
 74
0
 40
0
 40
0
 40
0
 40
0
 40
1
 40
1
 40
1
 40
1
 10
65.155598
 20
199.945800
 30
0.0
 10
65.226798
 20
200.017000
 30
0.0
 10
68.094808
 20
201.100470
 30
0.0
 10
69.775888
 20
201.691280
 30
0.0
  0
SPLINE
  5
153
100
AcDbEntity
  8
Ebene_1
 62
7
100
AcDbSpline
 70
8
 71
3
 72
8
 73
4
 74
0
 40
0
 40
0
 40
0
 40
0
 40
1
 40
1
 40
1
 40
1
 10
69.775888
 20
201.691280
 30
0.0
 10
85.535448
 20
207.229918
 30
0.0
 10
102.366230
 20
209.525128
 30
0.0
 10
118.295740
 20
208.307929
 30
0.0
  0
SPLINE
  5
154
100
AcDbEntity
  8
Ebene_1
 62
7
100
AcDbSpline
 70
8
 71
3
 72
8
 73
4
 74
0
 40
0
 40
0
 40
0
 40
0
 40
1
 40
1
 40
1
 40
1
 10
118.295740
 20
208.307929
 30
0.0
 10
130.210070
 20
207.397518
 30
0.0
 10
141.438740
 20
204.884330
 30
0.0
 10
152.868770
 20
200.569800
 30
0.0
  0
SPLINE
  5
155
100
AcDbEntity
  8
Ebene_1
 62
7
100
AcDbSpline
 70
8
 71
3
 72
8
 73
4
 74
0
 40
0
 40
0
 40
0
 40
0
 40
1
 40
1
 40
1
 40
1
 10
152.868770
 20
200.569800
 30
0.0
 10
153.719770
 20
200.248590
 30
0.0
 10
154.430660
 20
199.971130
 30
0.0
 10
154.448540
 20
199.953250
 30
0.0
  0
SPLINE
  5
156
100
AcDbEntity
  8
Ebene_1
 62
7
100
AcDbSpline
 70
8
 71
3
 72
8
 73
4
 74
0
 40
0
 40
0
 40
0
 40
0
 40
1
 40
1
 40
1
 40
1
 10
154.448540
 20
199.953250
 30
0.0
 10
154.541940
 20
199.859850
 30
0.0
 10
152.256510
 20
195.088800
 30
0.0
 10
152.024940
 20
194.893850
 30
0.0
  0
SPLINE
  5
157
100
AcDbEntity
  8
Ebene_1
 62
7
100
AcDbSpline
 70
8
 71
3
 72
8
 73
4
 74
0
 40
0
 40
0
 40
0
 40
0
 40
1
 40
1
 40
1
 40
1
 10
152.024940
 20
194.893850
 30
0.0
 10
151.993940
 20
194.867650
 30
0.0
 10
151.322460
 20
195.118720
 30
0.0
 10
150.532950
 20
195.451700
 30
0.0
  0
LWPOLYLINE
  5
158
100
AcDbEntity
  8
Ebene_1
 62
7
100
AcDbPolyline
 90
3
 70
0
 10
109.860990
 20
120.172340
 30
0.0
 10
109.795990
 20
119.803210
 30
0.0
 10
109.741580
 20
120.090360
 30
0.0
  0
LWPOLYLINE
  5
159
100
AcDbEntity
  8
Ebene_1
 62
7
100
AcDbPolyline
 90
1
 70
1
 10
150.532950
 20
195.451700
 30
0.0
  0
LWPOLYLINE
  5
15a
100
AcDbEntity
  8
Ebene_1
 62
7
100
AcDbPolyline
 90
11
 70
1
 10
53.613325
 20
251.266762
 30
0.0
 10
53.613325
 20
267.320096
 30
0.0
 10
49.599992
 20
271.333431
 30
0.0
 10
55.619992
 20
271.333431
 30
0.0
 10
69.666660
 20
257.286763
 30
0.0
 10
69.666660
 20
271.333431
 30
0.0
 10
73.679994
 20
271.333431
 30
0.0
 10
73.679994
 20
251.266762
 30
0.0
 10
69.666660
 20
251.266762
 30
0.0
 10
57.626660
 20
263.306763
 30
0.0
 10
57.626660
 20
251.266762
 30
0.0
  0
SPLINE
  5
15b
100
AcDbEntity
  8
Ebene_1
 62
7
100
AcDbSpline
 70
8
 71
3
 72
8
 73
4
 74
0
 40
0
 40
0
 40
0
 40
0
 40
1
 40
1
 40
1
 40
1
 10
81.706662
 20
267.320096
 30
0.0
 10
80.577912
 20
267.320096
 30
0.0
 10
79.626836
 20
267.706798
 30
0.0
 10
78.853432
 20
268.480201
 30
0.0
  0
SPLINE
  5
15c
100
AcDbEntity
  8
Ebene_1
 62
7
100
AcDbSpline
 70
8
 71
3
 72
8
 73
4
 74
0
 40
0
 40
0
 40
0
 40
0
 40
1
 40
1
 40
1
 40
1
 10
78.853432
 20
268.480201
 30
0.0
 10
78.080030
 20
269.274507
 30
0.0
 10
77.693328
 20
270.225583
 30
0.0
 10
77.693328
 20
271.333431
 30
0.0
  0
LWPOLYLINE
  5
15d
100
AcDbEntity
  8
Ebene_1
 62
7
100
AcDbPolyline
 90
8
 70
1
 10
77.693328
 20
251.266762
 30
0.0
 10
77.693328
 20
263.306763
 30
0.0
 10
81.706662
 20
263.306763
 30
0.0
 10
81.706662
 20
255.280096
 30
0.0
 10
97.759996
 20
255.280096
 30
0.0
 10
97.759996
 20
263.306763
 30
0.0
 10
101.773332
 20
263.306763
 30
0.0
 10
101.773332
 20
251.266762
 30
0.0
  0
SPLINE
  5
15e
100
AcDbEntity
  8
Ebene_1
 62
7
100
AcDbSpline
 70
8
 71
3
 72
8
 73
4
 74
0
 40
0
 40
0
 40
0
 40
0
 40
1
 40
1
 40
1
 40
1
 10
101.773332
 20
271.333431
 30
0.0
 10
101.773332
 20
270.204681
 30
0.0
 10
101.376178
 20
269.253604
 30
0.0
 10
100.581872
 20
268.480201
 30
0.0
  0
SPLINE
  5
15f
100
AcDbEntity
  8
Ebene_1
 62
7
100
AcDbSpline
 70
8
 71
3
 72
8
 73
4
 74
0
 40
0
 40
0
 40
0
 40
0
 40
1
 40
1
 40
1
 40
1
 10
100.581872
 20
268.480201
 30
0.0
 10
99.787565
 20
267.706798
 30
0.0
 10
98.846940
 20
267.320096
 30
0.0
 10
97.759996
 20
267.320096
 30
0.0
  0
LWPOLYLINE
  5
160
100
AcDbEntity
  8
Ebene_1
 62
7
100
AcDbPolyline
 90
2
 70
0
 10
77.693328
 20
271.333431
 30
0.0
 10
101.773332
 20
271.333431
 30
0.0
  0
LWPOLYLINE
  5
161
100
AcDbEntity
  8
Ebene_1
 62
7
100
AcDbPolyline
 90
2
 70
0
 10
97.759996
 20
267.320096
 30
0.0
 10
81.706662
 20
267.320096
 30
0.0
  0
SPLINE
  5
162
100
AcDbEntity
  8
Ebene_1
 62
7
100
AcDbSpline
 70
8
 71
3
 72
8
 73
4
 74
0
 40
0
 40
0
 40
0
 40
0
 40
1
 40
1
 40
1
 40
1
 10
109.800002
 20
267.320096
 30
0.0
 10
108.671247
 20
267.320096
 30
0.0
 10
107.720168
 20
267.706798
 30
0.0
 10
106.946766
 20
268.480201
 30
0.0
  0
SPLINE
  5
163
100
AcDbEntity
  8
Ebene_1
 62
7
100
AcDbSpline
 70
8
 71
3
 72
8
 73
4
 74
0
 40
0
 40
0
 40
0
 40
0
 40
1
 40
1
 40
1
 40
1
 10
106.946766
 20
268.480201
 30
0.0
 10
106.173363
 20
269.274507
 30
0.0
 10
105.786662
 20
270.225583
 30
0.0
 10
105.786662
 20
271.333431
 30
0.0
  0
LWPOLYLINE
  5
164
100
AcDbEntity
  8
Ebene_1
 62
7
100
AcDbPolyline
 90
3
 70
0
 10
115.820003
 20
251.266762
 30
0.0
 10
115.820003
 20
267.320096
 30
0.0
 10
109.800002
 20
267.320096
 30
0.0
  0
SPLINE
  5
165
100
AcDbEntity
  8
Ebene_1
 62
7
100
AcDbSpline
 70
8
 71
3
 72
8
 73
4
 74
0
 40
0
 40
0
 40
0
 40
0
 40
1
 40
1
 40
1
 40
1
 10
129.866663
 20
271.333431
 30
0.0
 10
129.866663
 20
270.204681
 30
0.0
 10
129.469513
 20
269.253604
 30
0.0
 10
128.675214
 20
268.480201
 30
0.0
  0
SPLINE
  5
166
100
AcDbEntity
  8
Ebene_1
 62
7
100
AcDbSpline
 70
8
 71
3
 72
8
 73
4
 74
0
 40
0
 40
0
 40
0
 40
0
 40
1
 40
1
 40
1
 40
1
 10
128.675214
 20
268.480201
 30
0.0
 10
127.880907
 20
267.706798
 30
0.0
 10
126.940280
 20
267.320096
 30
0.0
 10
125.853333
 20
267.320096
 30
0.0
  0
LWPOLYLINE
  5
167
100
AcDbEntity
  8
Ebene_1
 62
7
100
AcDbPolyline
 90
2
 70
0
 10
105.786662
 20
271.333431
 30
0.0
 10
129.866663
 20
271.333431
 30
0.0
  0
LWPOLYLINE
  5
168
100
AcDbEntity
  8
Ebene_1
 62
7
100
AcDbPolyline
 90
4
 70
0
 10
125.853333
 20
267.320096
 30
0.0
 10
119.833332
 20
267.320096
 30
0.0
 10
119.833332
 20
251.266762
 30
0.0
 10
115.820003
 20
251.266762
 30
0.0
  0
SPLINE
  5
169
100
AcDbEntity
  8
Ebene_1
 62
7
100
AcDbSpline
 70
8
 71
3
 72
8
 73
4
 74
0
 40
0
 40
0
 40
0
 40
0
 40
1
 40
1
 40
1
 40
1
 10
149.933334
 20
267.320096
 30
0.0
 10
148.804586
 20
267.320096
 30
0.0
 10
147.853507
 20
267.706798
 30
0.0
 10
147.080097
 20
268.480201
 30
0.0
  0
SPLINE
  5
16a
100
AcDbEntity
  8
Ebene_1
 62
7
100
AcDbSpline
 70
8
 71
3
 72
8
 73
4
 74
0
 40
0
 40
0
 40
0
 40
0
 40
1
 40
1
 40
1
 40
1
 10
147.080097
 20
268.480201
 30
0.0
 10
146.306694
 20
269.274507
 30
0.0
 10
145.919993
 20
270.225583
 30
0.0
 10
145.919993
 20
271.333431
 30
0.0
  0
LWPOLYLINE
  5
16b
100
AcDbEntity
  8
Ebene_1
 62
7
100
AcDbPolyline
 90
8
 70
1
 10
145.919993
 20
251.266762
 30
0.0
 10
145.919993
 20
263.306763
 30
0.0
 10
170.000005
 20
263.306763
 30
0.0
 10
170.000005
 20
251.266762
 30
0.0
 10
165.986664
 20
251.266762
 30
0.0
 10
165.986664
 20
259.293429
 30
0.0
 10
149.933334
 20
259.293429
 30
0.0
 10
149.933334
 20
251.266762
 30
0.0
  0
SPLINE
  5
16c
100
AcDbEntity
  8
Ebene_1
 62
7
100
AcDbSpline
 70
8
 71
3
 72
8
 73
4
 74
0
 40
0
 40
0
 40
0
 40
0
 40
1
 40
1
 40
1
 40
1
 10
170.000005
 20
271.333431
 30
0.0
 10
170.000005
 20
270.204681
 30
0.0
 10
169.602852
 20
269.253604
 30
0.0
 10
168.808545
 20
268.480201
 30
0.0
  0
SPLINE
  5
16d
100
AcDbEntity
  8
Ebene_1
 62
7
100
AcDbSpline
 70
8
 71
3
 72
8
 73
4
 74
0
 40
0
 40
0
 40
0
 40
0
 40
1
 40
1
 40
1
 40
1
 10
168.808545
 20
268.480201
 30
0.0
 10
168.014238
 20
267.706798
 30
0.0
 10
167.073611
 20
267.320096
 30
0.0
 10
165.986664
 20
267.320096
 30
0.0
  0
LWPOLYLINE
  5
16e
100
AcDbEntity
  8
Ebene_1
 62
7
100
AcDbPolyline
 90
2
 70
0
 10
145.919993
 20
271.333431
 30
0.0
 10
170.000005
 20
271.333431
 30
0.0
  0
LWPOLYLINE
  5
16f
100
AcDbEntity
  8
Ebene_1
 62
7
100
AcDbPolyline
 90
2
 70
0
 10
165.986664
 20
267.320096
 30
0.0
 10
149.933334
 20
267.320096
 30
0.0
  0
SPLINE
  5
170
100
AcDbEntity
  8
Ebene_1
 62
7
100
AcDbSpline
 70
8
 71
3
 72
8
 73
4
 74
0
 40
0
 40
0
 40
0
 40
0
 40
1
 40
1
 40
1
 40
1
 10
61.639993
 20
231.200094
 30
0.0
 10
61.639993
 20
230.071344
 30
0.0
 10
61.242840
 20
229.120267
 30
0.0
 10
60.448535
 20
228.346865
 30
0.0
  0
SPLINE
  5
171
100
AcDbEntity
  8
Ebene_1
 62
7
100
AcDbSpline
 70
8
 71
3
 72
8
 73
4
 74
0
 40
0
 40
0
 40
0
 40
0
 40
1
 40
1
 40
1
 40
1
 10
60.448535
 20
228.346865
 30
0.0
 10
59.654229
 20
227.573461
 30
0.0
 10
58.713604
 20
227.186760
 30
0.0
 10
57.626660
 20
227.186760
 30
0.0
  0
LWPOLYLINE
  5
172
100
AcDbEntity
  8
Ebene_1
 62
7
100
AcDbPolyline
 90
5
 70
0
 10
41.573325
 20
219.160092
 30
0.0
 10
41.573325
 20
239.226761
 30
0.0
 10
45.586658
 20
239.226761
 30
0.0
 10
45.586658
 20
231.200094
 30
0.0
 10
61.639993
 20
231.200094
 30
0.0
  0
LWPOLYLINE
  5
173
100
AcDbEntity
  8
Ebene_1
 62
7
100
AcDbPolyline
 90
4
 70
0
 10
57.626660
 20
227.186760
 30
0.0
 10
45.586658
 20
227.186760
 30
0.0
 10
45.586658
 20
219.160092
 30
0.0
 10
41.573325
 20
219.160092
 30
0.0
  0
LWPOLYLINE
  5
174
100
AcDbEntity
  8
Ebene_1
 62
7
100
AcDbPolyline
 90
4
 70
1
 10
61.639993
 20
219.160092
 30
0.0
 10
61.639993
 20
239.226761
 30
0.0
 10
65.653327
 20
239.226761
 30
0.0
 10
65.653327
 20
219.160092
 30
0.0
  0
SPLINE
  5
175
100
AcDbEntity
  8
Ebene_1
 62
7
100
AcDbSpline
 70
8
 71
3
 72
8
 73
4
 74
0
 40
0
 40
0
 40
0
 40
0
 40
1
 40
1
 40
1
 40
1
 10
73.679994
 20
235.213427
 30
0.0
 10
72.551245
 20
235.213427
 30
0.0
 10
71.600168
 20
235.600129
 30
0.0
 10
70.826765
 20
236.373532
 30
0.0
  0
SPLINE
  5
176
100
AcDbEntity
  8
Ebene_1
 62
7
100
AcDbSpline
 70
8
 71
3
 72
8
 73
4
 74
0
 40
0
 40
0
 40
0
 40
0
 40
1
 40
1
 40
1
 40
1
 10
70.826765
 20
236.373532
 30
0.0
 10
70.053362
 20
237.167837
 30
0.0
 10
69.666661
 20
238.118914
 30
0.0
 10
69.666661
 20
239.226761
 30
0.0
  0
LWPOLYLINE
  5
177
100
AcDbEntity
  8
Ebene_1
 62
7
100
AcDbPolyline
 90
8
 70
1
 10
69.666661
 20
219.160092
 30
0.0
 10
69.666661
 20
231.200094
 30
0.0
 10
73.679994
 20
231.200094
 30
0.0
 10
73.679994
 20
223.173426
 30
0.0
 10
89.733329
 20
223.173426
 30
0.0
 10
89.733329
 20
231.200094
 30
0.0
 10
93.746663
 20
231.200094
 30
0.0
 10
93.746663
 20
219.160092
 30
0.0
  0
SPLINE
  5
178
100
AcDbEntity
  8
Ebene_1
 62
7
100
AcDbSpline
 70
8
 71
3
 72
8
 73
4
 74
0
 40
0
 40
0
 40
0
 40
0
 40
1
 40
1
 40
1
 40
1
 10
93.746663
 20
239.226761
 30
0.0
 10
93.746663
 20
238.098011
 30
0.0
 10
93.349510
 20
237.146935
 30
0.0
 10
92.555204
 20
236.373532
 30
0.0
  0
SPLINE
  5
179
100
AcDbEntity
  8
Ebene_1
 62
7
100
AcDbSpline
 70
8
 71
3
 72
8
 73
4
 74
0
 40
0
 40
0
 40
0
 40
0
 40
1
 40
1
 40
1
 40
1
 10
92.555204
 20
236.373532
 30
0.0
 10
91.760899
 20
235.600129
 30
0.0
 10
90.820273
 20
235.213427
 30
0.0
 10
89.733329
 20
235.213427
 30
0.0
  0
LWPOLYLINE
  5
17a
100
AcDbEntity
  8
Ebene_1
 62
7
100
AcDbPolyline
 90
2
 70
0
 10
69.666661
 20
239.226761
 30
0.0
 10
93.746663
 20
239.226761
 30
0.0
  0
LWPOLYLINE
  5
17b
100
AcDbEntity
  8
Ebene_1
 62
7
100
AcDbPolyline
 90
2
 70
0
 10
89.733329
 20
235.213427
 30
0.0
 10
73.679994
 20
235.213427
 30
0.0
  0
SPLINE
  5
17c
100
AcDbEntity
  8
Ebene_1
 62
7
100
AcDbSpline
 70
8
 71
3
 72
8
 73
4
 74
0
 40
0
 40
0
 40
0
 40
0
 40
1
 40
1
 40
1
 40
1
 10
115.820003
 20
231.200094
 30
0.0
 10
116.363469
 20
231.200094
 30
0.0
 10
116.833779
 20
231.388219
 30
0.0
 10
117.230932
 20
231.764469
 30
0.0
  0
SPLINE
  5
17d
100
AcDbEntity
  8
Ebene_1
 62
7
100
AcDbSpline
 70
8
 71
3
 72
8
 73
4
 74
0
 40
0
 40
0
 40
0
 40
0
 40
1
 40
1
 40
1
 40
1
 10
117.230932
 20
231.764469
 30
0.0
 10
117.628085
 20
232.161622
 30
0.0
 10
117.826662
 20
232.642386
 30
0.0
 10
117.826662
 20
233.206761
 30
0.0
  0
LWPOLYLINE
  5
17e
100
AcDbEntity
  8
Ebene_1
 62
7
100
AcDbPolyline
 90
3
 70
0
 10
97.759997
 20
219.160092
 30
0.0
 10
97.759997
 20
231.200094
 30
0.0
 10
115.820003
 20
231.200094
 30
0.0
  0
SPLINE
  5
17f
100
AcDbEntity
  8
Ebene_1
 62
7
100
AcDbSpline
 70
8
 71
3
 72
8
 73
4
 74
0
 40
0
 40
0
 40
0
 40
0
 40
1
 40
1
 40
1
 40
1
 10
101.773332
 20
235.213427
 30
0.0
 10
100.644584
 20
235.213427
 30
0.0
 10
99.693507
 20
235.600129
 30
0.0
 10
98.920101
 20
236.373532
 30
0.0
  0
SPLINE
  5
180
100
AcDbEntity
  8
Ebene_1
 62
7
100
AcDbSpline
 70
8
 71
3
 72
8
 73
4
 74
0
 40
0
 40
0
 40
0
 40
0
 40
1
 40
1
 40
1
 40
1
 10
98.920101
 20
236.373532
 30
0.0
 10
98.146699
 20
237.167837
 30
0.0
 10
97.759997
 20
238.118914
 30
0.0
 10
97.759997
 20
239.226761
 30
0.0
  0
LWPOLYLINE
  5
181
100
AcDbEntity
  8
Ebene_1
 62
7
100
AcDbPolyline
 90
3
 70
0
 10
117.826662
 20
233.206761
 30
0.0
 10
117.826662
 20
235.213427
 30
0.0
 10
101.773332
 20
235.213427
 30
0.0
  0
SPLINE
  5
182
100
AcDbEntity
  8
Ebene_1
 62
7
100
AcDbSpline
 70
8
 71
3
 72
8
 73
4
 74
0
 40
0
 40
0
 40
0
 40
0
 40
1
 40
1
 40
1
 40
1
 10
121.840003
 20
231.200094
 30
0.0
 10
121.840003
 20
230.071344
 30
0.0
 10
121.442849
 20
229.120267
 30
0.0
 10
120.648543
 20
228.346865
 30
0.0
  0
SPLINE
  5
183
100
AcDbEntity
  8
Ebene_1
 62
7
100
AcDbSpline
 70
8
 71
3
 72
8
 73
4
 74
0
 40
0
 40
0
 40
0
 40
0
 40
1
 40
1
 40
1
 40
1
 10
120.648543
 20
228.346865
 30
0.0
 10
119.854236
 20
227.573461
 30
0.0
 10
118.913609
 20
227.186760
 30
0.0
 10
117.826662
 20
227.186760
 30
0.0
  0
LWPOLYLINE
  5
184
100
AcDbEntity
  8
Ebene_1
 62
7
100
AcDbPolyline
 90
3
 70
0
 10
97.759997
 20
239.226761
 30
0.0
 10
121.840003
 20
239.226761
 30
0.0
 10
121.840003
 20
231.200094
 30
0.0
  0
SPLINE
  5
185
100
AcDbEntity
  8
Ebene_1
 62
7
100
AcDbSpline
 70
8
 71
3
 72
8
 73
4
 74
0
 40
0
 40
0
 40
0
 40
0
 40
1
 40
1
 40
1
 40
1
 10
125.853333
 20
219.160092
 30
0.0
 10
125.853333
 20
220.267940
 30
0.0
 10
126.240034
 20
221.208565
 30
0.0
 10
127.013437
 20
221.981968
 30
0.0
  0
SPLINE
  5
186
100
AcDbEntity
  8
Ebene_1
 62
7
100
AcDbSpline
 70
8
 71
3
 72
8
 73
4
 74
0
 40
0
 40
0
 40
0
 40
0
 40
1
 40
1
 40
1
 40
1
 10
127.013437
 20
221.981968
 30
0.0
 10
127.807743
 20
222.776274
 30
0.0
 10
128.758819
 20
223.173426
 30
0.0
 10
129.866663
 20
223.173426
 30
0.0
  0
LWPOLYLINE
  5
187
100
AcDbEntity
  8
Ebene_1
 62
7
100
AcDbPolyline
 90
8
 70
0
 10
117.826662
 20
227.186760
 30
0.0
 10
113.813332
 20
227.186760
 30
0.0
 10
121.840003
 20
219.160092
 30
0.0
 10
115.820003
 20
219.160092
 30
0.0
 10
107.793332
 20
227.186760
 30
0.0
 10
101.773332
 20
227.186760
 30
0.0
 10
101.773332
 20
219.160092
 30
0.0
 10
97.759997
 20
219.160092
 30
0.0
  0
SPLINE
  5
188
100
AcDbEntity
  8
Ebene_1
 62
7
100
AcDbSpline
 70
8
 71
3
 72
8
 73
4
 74
0
 40
0
 40
0
 40
0
 40
0
 40
1
 40
1
 40
1
 40
1
 10
149.933334
 20
239.226761
 30
0.0
 10
149.933334
 20
238.098011
 30
0.0
 10
149.536180
 20
237.146935
 30
0.0
 10
148.741874
 20
236.373532
 30
0.0
  0
SPLINE
  5
189
100
AcDbEntity
  8
Ebene_1
 62
7
100
AcDbSpline
 70
8
 71
3
 72
8
 73
4
 74
0
 40
0
 40
0
 40
0
 40
0
 40
1
 40
1
 40
1
 40
1
 10
148.741874
 20
236.373532
 30
0.0
 10
147.947567
 20
235.600129
 30
0.0
 10
147.006944
 20
235.213427
 30
0.0
 10
145.920004
 20
235.213427
 30
0.0
  0
LWPOLYLINE
  5
18a
100
AcDbEntity
  8
Ebene_1
 62
7
100
AcDbPolyline
 90
6
 70
0
 10
129.866663
 20
223.173426
 30
0.0
 10
145.920004
 20
223.173426
 30
0.0
 10
145.920004
 20
227.186760
 30
0.0
 10
125.853333
 20
227.186760
 30
0.0
 10
125.853333
 20
239.226761
 30
0.0
 10
149.933334
 20
239.226761
 30
0.0
  0
SPLINE
  5
18b
100
AcDbEntity
  8
Ebene_1
 62
7
100
AcDbSpline
 70
8
 71
3
 72
8
 73
4
 74
0
 40
0
 40
0
 40
0
 40
0
 40
1
 40
1
 40
1
 40
1
 10
157.960004
 20
219.160092
 30
0.0
 10
156.831256
 20
219.160092
 30
0.0
 10
155.880181
 20
219.546794
 30
0.0
 10
155.106778
 20
220.320197
 30
0.0
  0
SPLINE
  5
18c
100
AcDbEntity
  8
Ebene_1
 62
7
100
AcDbSpline
 70
8
 71
3
 72
8
 73
4
 74
0
 40
0
 40
0
 40
0
 40
0
 40
1
 40
1
 40
1
 40
1
 10
155.106778
 20
220.320197
 30
0.0
 10
154.333376
 20
221.114502
 30
0.0
 10
153.946674
 20
222.065579
 30
0.0
 10
153.946674
 20
223.173426
 30
0.0
  0
LWPOLYLINE
  5
18d
100
AcDbEntity
  8
Ebene_1
 62
7
100
AcDbPolyline
 90
6
 70
0
 10
145.920004
 20
235.213427
 30
0.0
 10
129.866663
 20
235.213427
 30
0.0
 10
129.866663
 20
231.200094
 30
0.0
 10
149.933334
 20
231.200094
 30
0.0
 10
149.933334
 20
219.160092
 30
0.0
 10
125.853333
 20
219.160092
 30
0.0
  0
SPLINE
  5
18e
100
AcDbEntity
  8
Ebene_1
 62
7
100
AcDbSpline
 70
8
 71
3
 72
8
 73
4
 74
0
 40
0
 40
0
 40
0
 40
0
 40
1
 40
1
 40
1
 40
1
 10
178.026675
 20
223.173426
 30
0.0
 10
178.026675
 20
222.044676
 30
0.0
 10
177.629522
 20
221.093600
 30
0.0
 10
176.835216
 20
220.320197
 30
0.0
  0
SPLINE
  5
18f
100
AcDbEntity
  8
Ebene_1
 62
7
100
AcDbSpline
 70
8
 71
3
 72
8
 73
4
 74
0
 40
0
 40
0
 40
0
 40
0
 40
1
 40
1
 40
1
 40
1
 10
176.835216
 20
220.320197
 30
0.0
 10
176.040909
 20
219.546794
 30
0.0
 10
175.100282
 20
219.160092
 30
0.0
 10
174.013335
 20
219.160092
 30
0.0
  0
LWPOLYLINE
  5
190
100
AcDbEntity
  8
Ebene_1
 62
7
100
AcDbPolyline
 90
2
 70
0
 10
153.946674
 20
223.173426
 30
0.0
 10
178.026675
 20
223.173426
 30
0.0
  0
SPLINE
  5
191
100
AcDbEntity
  8
Ebene_1
 62
7
100
AcDbSpline
 70
8
 71
3
 72
8
 73
4
 74
0
 40
0
 40
0
 40
0
 40
0
 40
1
 40
1
 40
1
 40
1
 10
157.960004
 20
227.186760
 30
0.0
 10
156.831256
 20
227.186760
 30
0.0
 10
155.880181
 20
227.573461
 30
0.0
 10
155.106778
 20
228.346865
 30
0.0
  0
SPLINE
  5
192
100
AcDbEntity
  8
Ebene_1
 62
7
100
AcDbSpline
 70
8
 71
3
 72
8
 73
4
 74
0
 40
0
 40
0
 40
0
 40
0
 40
1
 40
1
 40
1
 40
1
 10
155.106778
 20
228.346865
 30
0.0
 10
154.333376
 20
229.141170
 30
0.0
 10
153.946674
 20
230.092246
 30
0.0
 10
153.946674
 20
231.200094
 30
0.0
  0
LWPOLYLINE
  5
193
100
AcDbEntity
  8
Ebene_1
 62
7
100
AcDbPolyline
 90
2
 70
0
 10
174.013335
 20
219.160092
 30
0.0
 10
157.960004
 20
219.160092
 30
0.0
  0
SPLINE
  5
194
100
AcDbEntity
  8
Ebene_1
 62
7
100
AcDbSpline
 70
8
 71
3
 72
8
 73
4
 74
0
 40
0
 40
0
 40
0
 40
0
 40
1
 40
1
 40
1
 40
1
 10
178.026675
 20
231.200094
 30
0.0
 10
178.026675
 20
230.071344
 30
0.0
 10
177.629522
 20
229.120267
 30
0.0
 10
176.835216
 20
228.346865
 30
0.0
  0
SPLINE
  5
195
100
AcDbEntity
  8
Ebene_1
 62
7
100
AcDbSpline
 70
8
 71
3
 72
8
 73
4
 74
0
 40
0
 40
0
 40
0
 40
0
 40
1
 40
1
 40
1
 40
1
 10
176.835216
 20
228.346865
 30
0.0
 10
176.040909
 20
227.573461
 30
0.0
 10
175.100282
 20
227.186760
 30
0.0
 10
174.013335
 20
227.186760
 30
0.0
  0
LWPOLYLINE
  5
196
100
AcDbEntity
  8
Ebene_1
 62
7
100
AcDbPolyline
 90
2
 70
0
 10
153.946674
 20
231.200094
 30
0.0
 10
178.026675
 20
231.200094
 30
0.0
  0
SPLINE
  5
197
100
AcDbEntity
  8
Ebene_1
 62
7
100
AcDbSpline
 70
8
 71
3
 72
8
 73
4
 74
0
 40
0
 40
0
 40
0
 40
0
 40
1
 40
1
 40
1
 40
1
 10
157.960004
 20
235.213427
 30
0.0
 10
156.831256
 20
235.213427
 30
0.0
 10
155.880181
 20
235.600129
 30
0.0
 10
155.106778
 20
236.373532
 30
0.0
  0
SPLINE
  5
198
100
AcDbEntity
  8
Ebene_1
 62
7
100
AcDbSpline
 70
8
 71
3
 72
8
 73
4
 74
0
 40
0
 40
0
 40
0
 40
0
 40
1
 40
1
 40
1
 40
1
 10
155.106778
 20
236.373532
 30
0.0
 10
154.333376
 20
237.167837
 30
0.0
 10
153.946674
 20
238.118914
 30
0.0
 10
153.946674
 20
239.226761
 30
0.0
  0
LWPOLYLINE
  5
199
100
AcDbEntity
  8
Ebene_1
 62
7
100
AcDbPolyline
 90
2
 70
0
 10
174.013335
 20
227.186760
 30
0.0
 10
157.960004
 20
227.186760
 30
0.0
  0
SPLINE
  5
19a
100
AcDbEntity
  8
Ebene_1
 62
7
100
AcDbSpline
 70
8
 71
3
 72
8
 73
4
 74
0
 40
0
 40
0
 40
0
 40
0
 40
1
 40
1
 40
1
 40
1
 10
178.026675
 20
239.226761
 30
0.0
 10
178.026675
 20
238.098011
 30
0.0
 10
177.629522
 20
237.146935
 30
0.0
 10
176.835216
 20
236.373532
 30
0.0
  0
SPLINE
  5
19b
100
AcDbEntity
  8
Ebene_1
 62
7
100
AcDbSpline
 70
8
 71
3
 72
8
 73
4
 74
0
 40
0
 40
0
 40
0
 40
0
 40
1
 40
1
 40
1
 40
1
 10
176.835216
 20
236.373532
 30
0.0
 10
176.040909
 20
235.600129
 30
0.0
 10
175.100282
 20
235.213427
 30
0.0
 10
174.013335
 20
235.213427
 30
0.0
  0
LWPOLYLINE
  5
19c
100
AcDbEntity
  8
Ebene_1
 62
7
100
AcDbPolyline
 90
2
 70
0
 10
153.946674
 20
239.226761
 30
0.0
 10
178.026675
 20
239.226761
 30
0.0
  0
SPLINE
  5
19d
100
AcDbEntity
  8
Ebene_1
 62
7
100
AcDbSpline
 70
8
 71
3
 72
8
 73
4
 74
0
 40
0
 40
0
 40
0
 40
0
 40
1
 40
1
 40
1
 40
1
 10
107.963290
 20
115.956793
 30
0.0
 10
101.195026
 20
115.853503
 30
0.0
 10
94.424143
 20
115.767403
 30
0.0
 10
87.662592
 20
115.429755
 30
0.0
  0
SPLINE
  5
19e
100
AcDbEntity
  8
Ebene_1
 62
7
100
AcDbSpline
 70
8
 71
3
 72
8
 73
4
 74
0
 40
0
 40
0
 40
0
 40
0
 40
1
 40
1
 40
1
 40
1
 10
87.662592
 20
115.429755
 30
0.0
 10
81.931433
 20
115.120651
 30
0.0
 10
76.173855
 20
114.599154
 30
0.0
 10
70.598793
 20
113.176774
 30
0.0
  0
SPLINE
  5
19f
100
AcDbEntity
  8
Ebene_1
 62
7
100
AcDbSpline
 70
8
 71
3
 72
8
 73
4
 74
0
 40
0
 40
0
 40
0
 40
0
 40
1
 40
1
 40
1
 40
1
 10
70.598793
 20
113.176774
 30
0.0
 10
69.055140
 20
112.743079
 30
0.0
 10
67.488047
 20
112.312626
 30
0.0
 10
66.065119
 20
111.560325
 30
0.0
  0
SPLINE
  5
1a0
100
AcDbEntity
  8
Ebene_1
 62
7
100
AcDbSpline
 70
8
 71
3
 72
8
 73
4
 74
0
 40
0
 40
0
 40
0
 40
0
 40
1
 40
1
 40
1
 40
1
 10
66.065119
 20
111.560325
 30
0.0
 10
65.316250
 20
111.047696
 30
0.0
 10
64.834191
 20
110.248336
 30
0.0
 10
64.336918
 20
109.509395
 30
0.0
  0
SPLINE
  5
1a1
100
AcDbEntity
  8
Ebene_1
 62
7
100
AcDbSpline
 70
8
 71
3
 72
8
 73
4
 74
0
 40
0
 40
0
 40
0
 40
0
 40
1
 40
1
 40
1
 40
1
 10
64.336918
 20
109.509395
 30
0.0
 10
62.443692
 20
106.468759
 30
0.0
 10
61.317453
 20
103.042528
 30
0.0
 10
60.109841
 20
99.691844
 30
0.0
  0
SPLINE
  5
1a2
100
AcDbEntity
  8
Ebene_1
 62
7
100
AcDbSpline
 70
8
 71
3
 72
8
 73
4
 74
0
 40
0
 40
0
 40
0
 40
0
 40
1
 40
1
 40
1
 40
1
 10
60.109841
 20
99.691844
 30
0.0
 10
58.259666
 20
94.436173
 30
0.0
 10
56.404848
 20
89.181816
 30
0.0
 10
54.465112
 20
83.958368
 30
0.0
  0
SPLINE
  5
1a3
100
AcDbEntity
  8
Ebene_1
 62
7
100
AcDbSpline
 70
8
 71
3
 72
8
 73
4
 74
0
 40
0
 40
0
 40
0
 40
0
 40
1
 40
1
 40
1
 40
1
 10
54.465112
 20
83.958368
 30
0.0
 10
53.241880
 20
84.037792
 30
0.0
 10
51.998480
 20
83.876580
 30
0.0
 10
50.791956
 20
84.150424
 30
0.0
  0
SPLINE
  5
1a4
100
AcDbEntity
  8
Ebene_1
 62
7
100
AcDbSpline
 70
8
 71
3
 72
8
 73
4
 74
0
 40
0
 40
0
 40
0
 40
0
 40
1
 40
1
 40
1
 40
1
 10
50.791956
 20
84.150424
 30
0.0
 10
50.077324
 20
84.873045
 30
0.0
 10
50.154650
 20
85.966607
 30
0.0
 10
49.831581
 20
86.867555
 30
0.0
  0
SPLINE
  5
1a5
100
AcDbEntity
  8
Ebene_1
 62
7
100
AcDbSpline
 70
8
 71
3
 72
8
 73
4
 74
0
 40
0
 40
0
 40
0
 40
0
 40
1
 40
1
 40
1
 40
1
 10
49.831581
 20
86.867555
 30
0.0
 10
49.543194
 20
88.056408
 30
0.0
 10
49.317695
 20
89.381322
 30
0.0
 10
48.394839
 20
90.263284
 30
0.0
  0
SPLINE
  5
1a6
100
AcDbEntity
  8
Ebene_1
 62
7
100
AcDbSpline
 70
8
 71
3
 72
8
 73
4
 74
0
 40
0
 40
0
 40
0
 40
0
 40
1
 40
1
 40
1
 40
1
 10
48.394839
 20
90.263284
 30
0.0
 10
47.490884
 20
90.850222
 30
0.0
 10
46.377560
 20
90.518804
 30
0.0
 10
45.390503
 20
90.403317
 30
0.0
  0
SPLINE
  5
1a7
100
AcDbEntity
  8
Ebene_1
 62
7
100
AcDbSpline
 70
8
 71
3
 72
8
 73
4
 74
0
 40
0
 40
0
 40
0
 40
0
 40
1
 40
1
 40
1
 40
1
 10
45.390503
 20
90.403317
 30
0.0
 10
43.481099
 20
90.077119
 30
0.0
 10
41.434547
 20
89.848698
 30
0.0
 10
39.833415
 20
88.658314
 30
0.0
  0
SPLINE
  5
1a8
100
AcDbEntity
  8
Ebene_1
 62
7
100
AcDbSpline
 70
8
 71
3
 72
8
 73
4
 74
0
 40
0
 40
0
 40
0
 40
0
 40
1
 40
1
 40
1
 40
1
 10
39.833415
 20
88.658314
 30
0.0
 10
38.704367
 20
87.721369
 30
0.0
 10
38.113978
 20
86.313362
 30
0.0
 10
37.676075
 20
84.950484
 30
0.0
  0
SPLINE
  5
1a9
100
AcDbEntity
  8
Ebene_1
 62
7
100
AcDbSpline
 70
8
 71
3
 72
8
 73
4
 74
0
 40
0
 40
0
 40
0
 40
0
 40
1
 40
1
 40
1
 40
1
 10
37.676075
 20
84.950484
 30
0.0
 10
37.512215
 20
84.464302
 30
0.0
 10
37.604971
 20
83.915214
 30
0.0
 10
37.964405
 20
83.539753
 30
0.0
  0
SPLINE
  5
1aa
100
AcDbEntity
  8
Ebene_1
 62
7
100
AcDbSpline
 70
8
 71
3
 72
8
 73
4
 74
0
 40
0
 40
0
 40
0
 40
0
 40
1
 40
1
 40
1
 40
1
 10
37.964405
 20
83.539753
 30
0.0
 10
38.776322
 20
82.532972
 30
0.0
 10
40.149780
 20
82.364592
 30
0.0
 10
41.350669
 20
82.214423
 30
0.0
  0
SPLINE
  5
1ab
100
AcDbEntity
  8
Ebene_1
 62
7
100
AcDbSpline
 70
8
 71
3
 72
8
 73
4
 74
0
 40
0
 40
0
 40
0
 40
0
 40
1
 40
1
 40
1
 40
1
 10
41.350669
 20
82.214423
 30
0.0
 10
45.261561
 20
81.748882
 30
0.0
 10
49.200818
 20
81.558708
 30
0.0
 10
53.107766
 20
81.055289
 30
0.0
  0
SPLINE
  5
1ac
100
AcDbEntity
  8
Ebene_1
 62
7
100
AcDbSpline
 70
8
 71
3
 72
8
 73
4
 74
0
 40
0
 40
0
 40
0
 40
0
 40
1
 40
1
 40
1
 40
1
 10
53.107766
 20
81.055289
 30
0.0
 10
53.156461
 20
80.543227
 30
0.0
 10
52.577958
 20
80.318664
 30
0.0
 10
52.385278
 20
79.905798
 30
0.0
  0
SPLINE
  5
1ad
100
AcDbEntity
  8
Ebene_1
 62
7
100
AcDbSpline
 70
8
 71
3
 72
8
 73
4
 74
0
 40
0
 40
0
 40
0
 40
0
 40
1
 40
1
 40
1
 40
1
 10
52.385278
 20
79.905798
 30
0.0
 10
50.161873
 20
77.128087
 30
0.0
 10
47.439844
 20
74.779182
 30
0.0
 10
45.344720
 20
71.895751
 30
0.0
  0
SPLINE
  5
1ae
100
AcDbEntity
  8
Ebene_1
 62
7
100
AcDbSpline
 70
8
 71
3
 72
8
 73
4
 74
0
 40
0
 40
0
 40
0
 40
0
 40
1
 40
1
 40
1
 40
1
 10
45.344720
 20
71.895751
 30
0.0
 10
44.361350
 20
70.095349
 30
0.0
 10
44.446069
 20
67.980264
 30
0.0
 10
44.375372
 20
65.993195
 30
0.0
  0
SPLINE
  5
1af
100
AcDbEntity
  8
Ebene_1
 62
7
100
AcDbSpline
 70
8
 71
3
 72
8
 73
4
 74
0
 40
0
 40
0
 40
0
 40
0
 40
1
 40
1
 40
1
 40
1
 10
44.375372
 20
65.993195
 30
0.0
 10
44.329987
 20
60.242161
 30
0.0
 10
44.676760
 20
54.497424
 30
0.0
 10
45.033480
 20
48.760100
 30
0.0
  0
SPLINE
  5
1b0
100
AcDbEntity
  8
Ebene_1
 62
7
100
AcDbSpline
 70
8
 71
3
 72
8
 73
4
 74
0
 40
0
 40
0
 40
0
 40
0
 40
1
 40
1
 40
1
 40
1
 10
45.033480
 20
48.760100
 30
0.0
 10
45.362855
 20
43.995622
 30
0.0
 10
45.736614
 20
39.226265
 30
0.0
 10
46.468898
 20
34.504383
 30
0.0
  0
SPLINE
  5
1b1
100
AcDbEntity
  8
Ebene_1
 62
7
100
AcDbSpline
 70
8
 71
3
 72
8
 73
4
 74
0
 40
0
 40
0
 40
0
 40
0
 40
1
 40
1
 40
1
 40
1
 10
46.468898
 20
34.504383
 30
0.0
 10
46.804259
 20
32.692681
 30
0.0
 10
47.583754
 20
30.962683
 30
0.0
 10
48.769930
 20
29.547953
 30
0.0
  0
SPLINE
  5
1b2
100
AcDbEntity
  8
Ebene_1
 62
7
100
AcDbSpline
 70
8
 71
3
 72
8
 73
4
 74
0
 40
0
 40
0
 40
0
 40
0
 40
1
 40
1
 40
1
 40
1
 10
48.769930
 20
29.547953
 30
0.0
 10
49.212353
 20
29.001257
 30
0.0
 10
49.643553
 20
28.417383
 30
0.0
 10
50.137762
 20
27.930198
 30
0.0
  0
SPLINE
  5
1b3
100
AcDbEntity
  8
Ebene_1
 62
7
100
AcDbSpline
 70
8
 71
3
 72
8
 73
4
 74
0
 40
0
 40
0
 40
0
 40
0
 40
1
 40
1
 40
1
 40
1
 10
50.137762
 20
27.930198
 30
0.0
 10
50.859353
 20
27.729302
 30
0.0
 10
51.602804
 20
27.994683
 30
0.0
 10
52.335751
 20
27.940221
 30
0.0
  0
SPLINE
  5
1b4
100
AcDbEntity
  8
Ebene_1
 62
7
100
AcDbSpline
 70
8
 71
3
 72
8
 73
4
 74
0
 40
0
 40
0
 40
0
 40
0
 40
1
 40
1
 40
1
 40
1
 10
52.335751
 20
27.940221
 30
0.0
 10
62.089856
 20
28.405630
 30
0.0
 10
71.854590
 20
28.626666
 30
0.0
 10
81.619521
 20
28.651902
 30
0.0
  0
SPLINE
  5
1b5
100
AcDbEntity
  8
Ebene_1
 62
7
100
AcDbSpline
 70
8
 71
3
 72
8
 73
4
 74
0
 40
0
 40
0
 40
0
 40
0
 40
1
 40
1
 40
1
 40
1
 10
81.619521
 20
28.651902
 30
0.0
 10
103.117572
 20
28.814420
 30
0.0
 10
124.616975
 20
28.779038
 30
0.0
 10
146.114628
 20
28.581744
 30
0.0
  0
SPLINE
  5
1b6
100
AcDbEntity
  8
Ebene_1
 62
7
100
AcDbSpline
 70
8
 71
3
 72
8
 73
4
 74
0
 40
0
 40
0
 40
0
 40
0
 40
1
 40
1
 40
1
 40
1
 10
146.114628
 20
28.581744
 30
0.0
 10
152.618758
 20
28.505629
 30
0.0
 10
159.119862
 20
28.281879
 30
0.0
 10
165.620466
 20
28.068161
 30
0.0
  0
SPLINE
  5
1b7
100
AcDbEntity
  8
Ebene_1
 62
7
100
AcDbSpline
 70
8
 71
3
 72
8
 73
4
 74
0
 40
0
 40
0
 40
0
 40
0
 40
1
 40
1
 40
1
 40
1
 10
165.620466
 20
28.068161
 30
0.0
 10
166.870844
 20
28.058327
 30
0.0
 10
168.160443
 20
27.996679
 30
0.0
 10
169.369180
 20
28.362334
 30
0.0
  0
SPLINE
  5
1b8
100
AcDbEntity
  8
Ebene_1
 62
7
100
AcDbSpline
 70
8
 71
3
 72
8
 73
4
 74
0
 40
0
 40
0
 40
0
 40
0
 40
1
 40
1
 40
1
 40
1
 10
169.369180
 20
28.362334
 30
0.0
 10
170.875059
 20
29.051701
 30
0.0
 10
171.743840
 20
30.583875
 30
0.0
 10
172.348516
 20
32.052709
 30
0.0
  0
SPLINE
  5
1b9
100
AcDbEntity
  8
Ebene_1
 62
7
100
AcDbSpline
 70
8
 71
3
 72
8
 73
4
 74
0
 40
0
 40
0
 40
0
 40
0
 40
1
 40
1
 40
1
 40
1
 10
172.348516
 20
32.052709
 30
0.0
 10
173.341512
 20
34.602500
 30
0.0
 10
173.516066
 20
37.361680
 30
0.0
 10
173.860173
 20
40.049793
 30
0.0
  0
SPLINE
  5
1ba
100
AcDbEntity
  8
Ebene_1
 62
7
100
AcDbSpline
 70
8
 71
3
 72
8
 73
4
 74
0
 40
0
 40
0
 40
0
 40
0
 40
1
 40
1
 40
1
 40
1
 10
173.860173
 20
40.049793
 30
0.0
 10
174.507530
 20
46.308927
 30
0.0
 10
174.713135
 20
52.601986
 30
0.0
 10
174.964694
 20
58.886214
 30
0.0
  0
SPLINE
  5
1bb
100
AcDbEntity
  8
Ebene_1
 62
7
100
AcDbSpline
 70
8
 71
3
 72
8
 73
4
 74
0
 40
0
 40
0
 40
0
 40
0
 40
1
 40
1
 40
1
 40
1
 10
174.964694
 20
58.886214
 30
0.0
 10
175.077590
 20
62.564193
 30
0.0
 10
175.169467
 20
66.248763
 30
0.0
 10
174.999205
 20
69.925711
 30
0.0
  0
SPLINE
  5
1bc
100
AcDbEntity
  8
Ebene_1
 62
7
100
AcDbSpline
 70
8
 71
3
 72
8
 73
4
 74
0
 40
0
 40
0
 40
0
 40
0
 40
1
 40
1
 40
1
 40
1
 10
174.999205
 20
69.925711
 30
0.0
 10
174.780760
 20
71.263929
 30
0.0
 10
173.745073
 20
72.232937
 30
0.0
 10
172.977956
 20
73.281028
 30
0.0
  0
SPLINE
  5
1bd
100
AcDbEntity
  8
Ebene_1
 62
7
100
AcDbSpline
 70
8
 71
3
 72
8
 73
4
 74
0
 40
0
 40
0
 40
0
 40
0
 40
1
 40
1
 40
1
 40
1
 10
172.977956
 20
73.281028
 30
0.0
 10
170.903349
 20
75.860982
 30
0.0
 10
168.529190
 20
78.191259
 30
0.0
 10
166.569551
 20
80.865095
 30
0.0
  0
SPLINE
  5
1be
100
AcDbEntity
  8
Ebene_1
 62
7
100
AcDbSpline
 70
8
 71
3
 72
8
 73
4
 74
0
 40
0
 40
0
 40
0
 40
0
 40
1
 40
1
 40
1
 40
1
 10
166.569551
 20
80.865095
 30
0.0
 10
166.748067
 20
81.315555
 30
0.0
 10
167.314931
 20
81.091786
 30
0.0
 10
167.678100
 20
81.208616
 30
0.0
  0
SPLINE
  5
1bf
100
AcDbEntity
  8
Ebene_1
 62
7
100
AcDbSpline
 70
8
 71
3
 72
8
 73
4
 74
0
 40
0
 40
0
 40
0
 40
0
 40
1
 40
1
 40
1
 40
1
 10
167.678100
 20
81.208616
 30
0.0
 10
171.736219
 20
81.647966
 30
0.0
 10
175.840027
 20
81.688519
 30
0.0
 10
179.865508
 20
82.405609
 30
0.0
  0
SPLINE
  5
1c0
100
AcDbEntity
  8
Ebene_1
 62
7
100
AcDbSpline
 70
8
 71
3
 72
8
 73
4
 74
0
 40
0
 40
0
 40
0
 40
0
 40
1
 40
1
 40
1
 40
1
 10
179.865508
 20
82.405609
 30
0.0
 10
180.834260
 20
82.683359
 30
0.0
 10
181.850761
 20
83.378701
 30
0.0
 10
182.002074
 20
84.443576
 30
0.0
  0
SPLINE
  5
1c1
100
AcDbEntity
  8
Ebene_1
 62
7
100
AcDbSpline
 70
8
 71
3
 72
8
 73
4
 74
0
 40
0
 40
0
 40
0
 40
0
 40
1
 40
1
 40
1
 40
1
 10
182.002074
 20
84.443576
 30
0.0
 10
181.950732
 20
85.393361
 30
0.0
 10
181.401729
 20
86.211670
 30
0.0
 10
181.035932
 20
87.062590
 30
0.0
  0
SPLINE
  5
1c2
100
AcDbEntity
  8
Ebene_1
 62
7
100
AcDbSpline
 70
8
 71
3
 72
8
 73
4
 74
0
 40
0
 40
0
 40
0
 40
0
 40
1
 40
1
 40
1
 40
1
 10
181.035932
 20
87.062590
 30
0.0
 10
180.275054
 20
88.458750
 30
0.0
 10
178.877873
 20
89.462439
 30
0.0
 10
177.324765
 20
89.782984
 30
0.0
  0
SPLINE
  5
1c3
100
AcDbEntity
  8
Ebene_1
 62
7
100
AcDbSpline
 70
8
 71
3
 72
8
 73
4
 74
0
 40
0
 40
0
 40
0
 40
0
 40
1
 40
1
 40
1
 40
1
 10
177.324765
 20
89.782984
 30
0.0
 10
175.148051
 20
90.381617
 30
0.0
 10
172.870194
 20
90.264561
 30
0.0
 10
170.639755
 20
90.436742
 30
0.0
  0
SPLINE
  5
1c4
100
AcDbEntity
  8
Ebene_1
 62
7
100
AcDbSpline
 70
8
 71
3
 72
8
 73
4
 74
0
 40
0
 40
0
 40
0
 40
0
 40
1
 40
1
 40
1
 40
1
 10
170.639755
 20
90.436742
 30
0.0
 10
170.292925
 20
90.199414
 30
0.0
 10
170.369834
 20
89.709440
 30
0.0
 10
170.228648
 20
89.356606
 30
0.0
  0
SPLINE
  5
1c5
100
AcDbEntity
  8
Ebene_1
 62
7
100
AcDbSpline
 70
8
 71
3
 72
8
 73
4
 74
0
 40
0
 40
0
 40
0
 40
0
 40
1
 40
1
 40
1
 40
1
 10
170.228648
 20
89.356606
 30
0.0
 10
169.841226
 20
87.566567
 30
0.0
 10
169.496543
 20
85.767677
 30
0.0
 10
169.121735
 20
83.975009
 30
0.0
  0
SPLINE
  5
1c6
100
AcDbEntity
  8
Ebene_1
 62
7
100
AcDbSpline
 70
8
 71
3
 72
8
 73
4
 74
0
 40
0
 40
0
 40
0
 40
0
 40
1
 40
1
 40
1
 40
1
 10
169.121735
 20
83.975009
 30
0.0
 10
167.644259
 20
83.977846
 30
0.0
 10
166.166736
 20
83.967445
 30
0.0
 10
164.689563
 20
83.936243
 30
0.0
  0
SPLINE
  5
1c7
100
AcDbEntity
  8
Ebene_1
 62
7
100
AcDbSpline
 70
8
 71
3
 72
8
 73
4
 74
0
 40
0
 40
0
 40
0
 40
0
 40
1
 40
1
 40
1
 40
1
 10
164.689563
 20
83.936243
 30
0.0
 10
161.935688
 20
91.519137
 30
0.0
 10
159.492600
 20
99.223447
 30
0.0
 10
156.318021
 20
106.646926
 30
0.0
  0
SPLINE
  5
1c8
100
AcDbEntity
  8
Ebene_1
 62
7
100
AcDbSpline
 70
8
 71
3
 72
8
 73
4
 74
0
 40
0
 40
0
 40
0
 40
0
 40
1
 40
1
 40
1
 40
1
 10
156.318021
 20
106.646926
 30
0.0
 10
155.573331
 20
108.287761
 30
0.0
 10
154.858217
 20
109.987577
 30
0.0
 10
153.682545
 20
111.374651
 30
0.0
  0
SPLINE
  5
1c9
100
AcDbEntity
  8
Ebene_1
 62
7
100
AcDbSpline
 70
8
 71
3
 72
8
 73
4
 74
0
 40
0
 40
0
 40
0
 40
0
 40
1
 40
1
 40
1
 40
1
 10
153.682545
 20
111.374651
 30
0.0
 10
152.699676
 20
112.437086
 30
0.0
 10
151.306032
 20
112.998041
 30
0.0
 10
149.907016
 20
113.255196
 30
0.0
  0
SPLINE
  5
1ca
100
AcDbEntity
  8
Ebene_1
 62
7
100
AcDbSpline
 70
8
 71
3
 72
8
 73
4
 74
0
 40
0
 40
0
 40
0
 40
0
 40
1
 40
1
 40
1
 40
1
 10
149.907016
 20
113.255196
 30
0.0
 10
146.414569
 20
114.073950
 30
0.0
 10
142.833129
 20
114.398938
 30
0.0
 10
139.273643
 20
114.781197
 30
0.0
  0
SPLINE
  5
1cb
100
AcDbEntity
  8
Ebene_1
 62
7
100
AcDbSpline
 70
8
 71
3
 72
8
 73
4
 74
0
 40
0
 40
0
 40
0
 40
0
 40
1
 40
1
 40
1
 40
1
 10
139.273643
 20
114.781197
 30
0.0
 10
133.096487
 20
115.405445
 30
0.0
 10
126.891541
 20
115.707296
 30
0.0
 10
120.685650
 20
115.839264
 30
0.0
  0
SPLINE
  5
1cc
100
AcDbEntity
  8
Ebene_1
 62
7
100
AcDbSpline
 70
8
 71
3
 72
8
 73
4
 74
0
 40
0
 40
0
 40
0
 40
0
 40
1
 40
1
 40
1
 40
1
 10
120.685650
 20
115.839264
 30
0.0
 10
116.445894
 20
115.946033
 30
0.0
 10
112.204341
 20
115.992477
 30
0.0
 10
107.963309
 20
115.956831
 30
0.0
  0
LWPOLYLINE
  5
1cd
100
AcDbEntity
  8
Ebene_1
 62
7
100
AcDbPolyline
 90
2
 70
0
 10
174.013335
 20
235.213427
 30
0.0
 10
157.960004
 20
235.213427
 30
0.0
  0
SPLINE
  5
1ce
100
AcDbEntity
  8
Ebene_1
 62
7
100
AcDbSpline
 70
8
 71
3
 72
8
 73
4
 74
0
 40
0
 40
0
 40
0
 40
0
 40
1
 40
1
 40
1
 40
1
 10
97.902246
 20
111.450757
 30
0.0
 10
109.163432
 20
111.323413
 30
0.0
 10
120.424816
 20
111.140311
 30
0.0
 10
131.680140
 20
110.744200
 30
0.0
  0
SPLINE
  5
1cf
100
AcDbEntity
  8
Ebene_1
 62
7
100
AcDbSpline
 70
8
 71
3
 72
8
 73
4
 74
0
 40
0
 40
0
 40
0
 40
0
 40
1
 40
1
 40
1
 40
1
 10
131.680140
 20
110.744200
 30
0.0
 10
138.018623
 20
110.559226
 30
0.0
 10
144.358779
 20
110.344742
 30
0.0
 10
150.685811
 20
109.920379
 30
0.0
  0
SPLINE
  5
1d0
100
AcDbEntity
  8
Ebene_1
 62
7
100
AcDbSpline
 70
8
 71
3
 72
8
 73
4
 74
0
 40
0
 40
0
 40
0
 40
0
 40
1
 40
1
 40
1
 40
1
 10
150.685811
 20
109.920379
 30
0.0
 10
150.927725
 20
109.937115
 30
0.0
 10
151.190998
 20
109.885583
 30
0.0
 10
151.245017
 20
109.609290
 30
0.0
  0
SPLINE
  5
1d1
100
AcDbEntity
  8
Ebene_1
 62
7
100
AcDbSpline
 70
8
 71
3
 72
8
 73
4
 74
0
 40
0
 40
0
 40
0
 40
0
 40
1
 40
1
 40
1
 40
1
 10
151.245017
 20
109.609290
 30
0.0
 10
154.030708
 20
104.442546
 30
0.0
 10
155.929210
 20
98.861659
 30
0.0
 10
157.619514
 20
93.257938
 30
0.0
  0
SPLINE
  5
1d2
100
AcDbEntity
  8
Ebene_1
 62
7
100
AcDbSpline
 70
8
 71
3
 72
8
 73
4
 74
0
 40
0
 40
0
 40
0
 40
0
 40
1
 40
1
 40
1
 40
1
 10
157.619514
 20
93.257938
 30
0.0
 10
158.382349
 20
90.716373
 30
0.0
 10
159.179497
 20
88.176018
 30
0.0
 10
159.684987
 20
85.567925
 30
0.0
  0
SPLINE
  5
1d3
100
AcDbEntity
  8
Ebene_1
 62
7
100
AcDbSpline
 70
8
 71
3
 72
8
 73
4
 74
0
 40
0
 40
0
 40
0
 40
0
 40
1
 40
1
 40
1
 40
1
 10
159.684987
 20
85.567925
 30
0.0
 10
159.778027
 20
84.915547
 30
0.0
 10
159.919128
 20
84.234188
 30
0.0
 10
159.780920
 20
83.581631
 30
0.0
  0
SPLINE
  5
1d4
100
AcDbEntity
  8
Ebene_1
 62
7
100
AcDbSpline
 70
8
 71
3
 72
8
 73
4
 74
0
 40
0
 40
0
 40
0
 40
0
 40
1
 40
1
 40
1
 40
1
 10
159.780920
 20
83.581631
 30
0.0
 10
159.612068
 20
83.088925
 30
0.0
 10
159.082032
 20
82.861005
 30
0.0
 10
158.593042
 20
82.872881
 30
0.0
  0
SPLINE
  5
1d5
100
AcDbEntity
  8
Ebene_1
 62
7
100
AcDbSpline
 70
8
 71
3
 72
8
 73
4
 74
0
 40
0
 40
0
 40
0
 40
0
 40
1
 40
1
 40
1
 40
1
 10
158.593042
 20
82.872881
 30
0.0
 10
155.435293
 20
82.457424
 30
0.0
 10
152.242428
 20
82.525852
 30
0.0
 10
149.065145
 20
82.454039
 30
0.0
  0
SPLINE
  5
1d6
100
AcDbEntity
  8
Ebene_1
 62
7
100
AcDbSpline
 70
8
 71
3
 72
8
 73
4
 74
0
 40
0
 40
0
 40
0
 40
0
 40
1
 40
1
 40
1
 40
1
 10
149.065145
 20
82.454039
 30
0.0
 10
134.295438
 20
82.273065
 30
0.0
 10
119.524303
 20
82.334742
 30
0.0
 10
104.753849
 20
82.324332
 30
0.0
  0
SPLINE
  5
1d7
100
AcDbEntity
  8
Ebene_1
 62
7
100
AcDbSpline
 70
8
 71
3
 72
8
 73
4
 74
0
 40
0
 40
0
 40
0
 40
0
 40
1
 40
1
 40
1
 40
1
 10
104.753849
 20
82.324332
 30
0.0
 10
90.817362
 20
82.330950
 30
0.0
 10
76.879930
 20
82.350617
 30
0.0
 10
62.945154
 20
82.584570
 30
0.0
  0
SPLINE
  5
1d8
100
AcDbEntity
  8
Ebene_1
 62
7
100
AcDbSpline
 70
8
 71
3
 72
8
 73
4
 74
0
 40
0
 40
0
 40
0
 40
0
 40
1
 40
1
 40
1
 40
1
 10
62.945154
 20
82.584570
 30
0.0
 10
61.933239
 20
82.614448
 30
0.0
 10
60.920850
 20
82.655201
 30
0.0
 10
59.912991
 20
82.754292
 30
0.0
  0
SPLINE
  5
1d9
100
AcDbEntity
  8
Ebene_1
 62
7
100
AcDbSpline
 70
8
 71
3
 72
8
 73
4
 74
0
 40
0
 40
0
 40
0
 40
0
 40
1
 40
1
 40
1
 40
1
 10
59.912991
 20
82.754292
 30
0.0
 10
59.321695
 20
83.232437
 30
0.0
 10
59.556460
 20
84.063766
 30
0.0
 10
59.599453
 20
84.713931
 30
0.0
  0
SPLINE
  5
1da
100
AcDbEntity
  8
Ebene_1
 62
7
100
AcDbSpline
 70
8
 71
3
 72
8
 73
4
 74
0
 40
0
 40
0
 40
0
 40
0
 40
1
 40
1
 40
1
 40
1
 10
59.599453
 20
84.713931
 30
0.0
 10
60.003904
 20
88.098465
 30
0.0
 10
61.117218
 20
91.338257
 30
0.0
 10
62.103056
 20
94.584734
 30
0.0
  0
SPLINE
  5
1db
100
AcDbEntity
  8
Ebene_1
 62
7
100
AcDbSpline
 70
8
 71
3
 72
8
 73
4
 74
0
 40
0
 40
0
 40
0
 40
0
 40
1
 40
1
 40
1
 40
1
 10
62.103056
 20
94.584734
 30
0.0
 10
63.663965
 20
99.472084
 30
0.0
 10
65.390124
 20
104.331815
 30
0.0
 10
67.730027
 20
108.908520
 30
0.0
  0
SPLINE
  5
1dc
100
AcDbEntity
  8
Ebene_1
 62
7
100
AcDbSpline
 70
8
 71
3
 72
8
 73
4
 74
0
 40
0
 40
0
 40
0
 40
0
 40
1
 40
1
 40
1
 40
1
 10
67.730027
 20
108.908520
 30
0.0
 10
67.939462
 20
109.374619
 30
0.0
 10
68.355363
 20
109.728928
 30
0.0
 10
68.865855
 20
109.809884
 30
0.0
  0
SPLINE
  5
1dd
100
AcDbEntity
  8
Ebene_1
 62
7
100
AcDbSpline
 70
8
 71
3
 72
8
 73
4
 74
0
 40
0
 40
0
 40
0
 40
0
 40
1
 40
1
 40
1
 40
1
 10
68.865855
 20
109.809884
 30
0.0
 10
69.598149
 20
109.958153
 30
0.0
 10
70.366184
 20
109.990707
 30
0.0
 10
71.112651
 20
110.126183
 30
0.0
  0
SPLINE
  5
1de
100
AcDbEntity
  8
Ebene_1
 62
7
100
AcDbSpline
 70
8
 71
3
 72
8
 73
4
 74
0
 40
0
 40
0
 40
0
 40
0
 40
1
 40
1
 40
1
 40
1
 10
71.112651
 20
110.126183
 30
0.0
 10
77.870089
 20
110.989868
 30
0.0
 10
84.708265
 20
111.155704
 30
0.0
 10
91.516364
 20
111.402005
 30
0.0
  0
SPLINE
  5
1df
100
AcDbEntity
  8
Ebene_1
 62
7
100
AcDbSpline
 70
8
 71
3
 72
8
 73
4
 74
0
 40
0
 40
0
 40
0
 40
0
 40
1
 40
1
 40
1
 40
1
 10
91.516364
 20
111.402005
 30
0.0
 10
93.644298
 20
111.461479
 30
0.0
 10
95.773651
 20
111.465639
 30
0.0
 10
97.902246
 20
111.450794
 30
0.0
  0
LWPOLYLINE
  5
1e0
100
AcDbEntity
  8
Ebene_1
 62
7
100
AcDbPolyline
 90
1
 70
1
 10
107.963309
 20
115.956831
 30
0.0
  0
SPLINE
  5
1e1
100
AcDbEntity
  8
Ebene_1
 62
7
100
AcDbSpline
 70
8
 71
3
 72
8
 73
4
 74
0
 40
0
 40
0
 40
0
 40
0
 40
1
 40
1
 40
1
 40
1
 10
48.899052
 20
49.394815
 30
0.0
 10
50.808550
 20
49.186325
 30
0.0
 10
52.728562
 20
49.086430
 30
0.0
 10
54.642324
 20
48.921473
 30
0.0
  0
SPLINE
  5
1e2
100
AcDbEntity
  8
Ebene_1
 62
7
100
AcDbSpline
 70
8
 71
3
 72
8
 73
4
 74
0
 40
0
 40
0
 40
0
 40
0
 40
1
 40
1
 40
1
 40
1
 10
54.642324
 20
48.921473
 30
0.0
 10
58.917594
 20
48.589687
 30
0.0
 10
63.193762
 20
48.247963
 30
0.0
 10
67.451380
 20
47.730900
 30
0.0
  0
SPLINE
  5
1e3
100
AcDbEntity
  8
Ebene_1
 62
7
100
AcDbSpline
 70
8
 71
3
 72
8
 73
4
 74
0
 40
0
 40
0
 40
0
 40
0
 40
1
 40
1
 40
1
 40
1
 10
67.451380
 20
47.730900
 30
0.0
 10
67.780679
 20
47.382907
 30
0.0
 10
67.340204
 20
46.958856
 30
0.0
 10
67.042135
 20
46.774052
 30
0.0
  0
SPLINE
  5
1e4
100
AcDbEntity
  8
Ebene_1
 62
7
100
AcDbSpline
 70
8
 71
3
 72
8
 73
4
 74
0
 40
0
 40
0
 40
0
 40
0
 40
1
 40
1
 40
1
 40
1
 10
67.042135
 20
46.774052
 30
0.0
 10
65.894829
 20
45.884110
 30
0.0
 10
64.369075
 20
45.970644
 30
0.0
 10
62.998454
 20
45.864234
 30
0.0
  0
SPLINE
  5
1e5
100
AcDbEntity
  8
Ebene_1
 62
7
100
AcDbSpline
 70
8
 71
3
 72
8
 73
4
 74
0
 40
0
 40
0
 40
0
 40
0
 40
1
 40
1
 40
1
 40
1
 10
62.998454
 20
45.864234
 30
0.0
 10
59.377972
 20
45.709395
 30
0.0
 10
55.753425
 20
45.767961
 30
0.0
 10
52.130835
 20
45.745656
 30
0.0
  0
SPLINE
  5
1e6
100
AcDbEntity
  8
Ebene_1
 62
7
100
AcDbSpline
 70
8
 71
3
 72
8
 73
4
 74
0
 40
0
 40
0
 40
0
 40
0
 40
1
 40
1
 40
1
 40
1
 10
52.130835
 20
45.745656
 30
0.0
 10
51.862201
 20
45.877652
 30
0.0
 10
51.593841
 20
45.494835
 30
0.0
 10
51.842354
 20
45.301899
 30
0.0
  0
SPLINE
  5
1e7
100
AcDbEntity
  8
Ebene_1
 62
7
100
AcDbSpline
 70
8
 71
3
 72
8
 73
4
 74
0
 40
0
 40
0
 40
0
 40
0
 40
1
 40
1
 40
1
 40
1
 10
51.842354
 20
45.301899
 30
0.0
 10
52.848313
 20
43.154204
 30
0.0
 10
54.088650
 20
41.079749
 30
0.0
 10
54.649774
 20
38.755287
 30
0.0
  0
SPLINE
  5
1e8
100
AcDbEntity
  8
Ebene_1
 62
7
100
AcDbSpline
 70
8
 71
3
 72
8
 73
4
 74
0
 40
0
 40
0
 40
0
 40
0
 40
1
 40
1
 40
1
 40
1
 10
54.649774
 20
38.755287
 30
0.0
 10
54.742247
 20
38.247017
 30
0.0
 10
54.922437
 20
37.593391
 30
0.0
 10
54.439299
 20
37.221212
 30
0.0
  0
SPLINE
  5
1e9
100
AcDbEntity
  8
Ebene_1
 62
7
100
AcDbSpline
 70
8
 71
3
 72
8
 73
4
 74
0
 40
0
 40
0
 40
0
 40
0
 40
1
 40
1
 40
1
 40
1
 10
54.439299
 20
37.221212
 30
0.0
 10
54.039435
 20
36.846243
 30
0.0
 10
53.350796
 20
36.833053
 30
0.0
 10
52.983108
 20
37.259695
 30
0.0
  0
SPLINE
  5
1ea
100
AcDbEntity
  8
Ebene_1
 62
7
100
AcDbSpline
 70
8
 71
3
 72
8
 73
4
 74
0
 40
0
 40
0
 40
0
 40
0
 40
1
 40
1
 40
1
 40
1
 10
52.983108
 20
37.259695
 30
0.0
 10
51.782682
 20
38.172755
 30
0.0
 10
51.130314
 20
39.585188
 30
0.0
 10
50.480177
 20
40.903937
 30
0.0
  0
SPLINE
  5
1eb
100
AcDbEntity
  8
Ebene_1
 62
7
100
AcDbSpline
 70
8
 71
3
 72
8
 73
4
 74
0
 40
0
 40
0
 40
0
 40
0
 40
1
 40
1
 40
1
 40
1
 10
50.480177
 20
40.903937
 30
0.0
 10
49.311766
 20
43.548027
 30
0.0
 10
48.933129
 20
46.457403
 30
0.0
 10
48.734691
 20
49.315419
 30
0.0
  0
SPLINE
  5
1ec
100
AcDbEntity
  8
Ebene_1
 62
7
100
AcDbSpline
 70
8
 71
3
 72
8
 73
4
 74
0
 40
0
 40
0
 40
0
 40
0
 40
1
 40
1
 40
1
 40
1
 10
48.734691
 20
49.315419
 30
0.0
 10
48.755587
 20
49.381984
 30
0.0
 10
48.835153
 20
49.413631
 30
0.0
 10
48.899052
 20
49.394843
 30
0.0
  0
LWPOLYLINE
  5
1ed
100
AcDbEntity
  8
Ebene_1
 62
7
100
AcDbPolyline
 90
1
 70
1
 10
97.902246
 20
111.450794
 30
0.0
  0
SPLINE
  5
1ee
100
AcDbEntity
  8
Ebene_1
 62
7
100
AcDbSpline
 70
8
 71
3
 72
8
 73
4
 74
0
 40
0
 40
0
 40
0
 40
0
 40
1
 40
1
 40
1
 40
1
 10
170.237148
 20
49.012537
 30
0.0
 10
170.775098
 20
48.812141
 30
0.0
 10
170.782879
 20
48.130036
 30
0.0
 10
170.670513
 20
47.659957
 30
0.0
  0
SPLINE
  5
1ef
100
AcDbEntity
  8
Ebene_1
 62
7
100
AcDbSpline
 70
8
 71
3
 72
8
 73
4
 74
0
 40
0
 40
0
 40
0
 40
0
 40
1
 40
1
 40
1
 40
1
 10
170.670513
 20
47.659957
 30
0.0
 10
170.466978
 20
44.538280
 30
0.0
 10
169.827213
 20
41.347760
 30
0.0
 10
168.157956
 20
38.658531
 30
0.0
  0
SPLINE
  5
1f0
100
AcDbEntity
  8
Ebene_1
 62
7
100
AcDbSpline
 70
8
 71
3
 72
8
 73
4
 74
0
 40
0
 40
0
 40
0
 40
0
 40
1
 40
1
 40
1
 40
1
 10
168.157956
 20
38.658531
 30
0.0
 10
167.641196
 20
37.882147
 30
0.0
 10
166.948850
 20
37.090729
 30
0.0
 10
165.995737
 20
36.894786
 30
0.0
  0
SPLINE
  5
1f1
100
AcDbEntity
  8
Ebene_1
 62
7
100
AcDbSpline
 70
8
 71
3
 72
8
 73
4
 74
0
 40
0
 40
0
 40
0
 40
0
 40
1
 40
1
 40
1
 40
1
 10
165.995737
 20
36.894786
 30
0.0
 10
165.431672
 20
36.822170
 30
0.0
 10
164.845708
 20
37.282359
 30
0.0
 10
164.892360
 20
37.874762
 30
0.0
  0
SPLINE
  5
1f2
100
AcDbEntity
  8
Ebene_1
 62
7
100
AcDbSpline
 70
8
 71
3
 72
8
 73
4
 74
0
 40
0
 40
0
 40
0
 40
0
 40
1
 40
1
 40
1
 40
1
 10
164.892360
 20
37.874762
 30
0.0
 10
164.822391
 20
39.037820
 30
0.0
 10
165.356209
 20
40.121256
 30
0.0
 10
165.773311
 20
41.175418
 30
0.0
  0
SPLINE
  5
1f3
100
AcDbEntity
  8
Ebene_1
 62
7
100
AcDbSpline
 70
8
 71
3
 72
8
 73
4
 74
0
 40
0
 40
0
 40
0
 40
0
 40
1
 40
1
 40
1
 40
1
 10
165.773311
 20
41.175418
 30
0.0
 10
166.403809
 20
42.616566
 30
0.0
 10
167.121617
 20
44.022730
 30
0.0
 10
167.841932
 20
45.416942
 30
0.0
  0
SPLINE
  5
1f4
100
AcDbEntity
  8
Ebene_1
 62
7
100
AcDbSpline
 70
8
 71
3
 72
8
 73
4
 74
0
 40
0
 40
0
 40
0
 40
0
 40
1
 40
1
 40
1
 40
1
 10
167.841932
 20
45.416942
 30
0.0
 10
167.965739
 20
45.715465
 30
0.0
 10
167.617633
 20
45.804439
 30
0.0
 10
167.393939
 20
45.749353
 30
0.0
  0
SPLINE
  5
1f5
100
AcDbEntity
  8
Ebene_1
 62
7
100
AcDbSpline
 70
8
 71
3
 72
8
 73
4
 74
0
 40
0
 40
0
 40
0
 40
0
 40
1
 40
1
 40
1
 40
1
 10
167.393939
 20
45.749353
 30
0.0
 10
163.043594
 20
45.764292
 30
0.0
 10
158.680843
 20
45.611040
 30
0.0
 10
154.342516
 20
46.002462
 30
0.0
  0
SPLINE
  5
1f6
100
AcDbEntity
  8
Ebene_1
 62
7
100
AcDbSpline
 70
8
 71
3
 72
8
 73
4
 74
0
 40
0
 40
0
 40
0
 40
0
 40
1
 40
1
 40
1
 40
1
 10
154.342516
 20
46.002462
 30
0.0
 10
153.585780
 20
46.113448
 30
0.0
 10
152.753420
 20
46.557185
 30
0.0
 10
152.567558
 20
47.354172
 30
0.0
  0
SPLINE
  5
1f7
100
AcDbEntity
  8
Ebene_1
 62
7
100
AcDbSpline
 70
8
 71
3
 72
8
 73
4
 74
0
 40
0
 40
0
 40
0
 40
0
 40
1
 40
1
 40
1
 40
1
 10
152.567558
 20
47.354172
 30
0.0
 10
152.532951
 20
47.770253
 30
0.0
 10
153.036105
 20
47.691887
 30
0.0
 10
153.304466
 20
47.735211
 30
0.0
  0
SPLINE
  5
1f8
100
AcDbEntity
  8
Ebene_1
 62
7
100
AcDbSpline
 70
8
 71
3
 72
8
 73
4
 74
0
 40
0
 40
0
 40
0
 40
0
 40
1
 40
1
 40
1
 40
1
 10
153.304466
 20
47.735211
 30
0.0
 10
158.902618
 20
48.301073
 30
0.0
 10
164.508702
 20
48.834645
 30
0.0
 10
170.133735
 20
49.038397
 30
0.0
  0
SPLINE
  5
1f9
100
AcDbEntity
  8
Ebene_1
 62
7
100
AcDbSpline
 70
8
 71
3
 72
8
 73
4
 74
0
 40
0
 40
0
 40
0
 40
0
 40
1
 40
1
 40
1
 40
1
 10
170.133735
 20
49.038397
 30
0.0
 10
170.168247
 20
49.029888
 30
0.0
 10
170.202664
 20
49.021189
 30
0.0
 10
170.237148
 20
49.012584
 30
0.0
  0
LWPOLYLINE
  5
1fa
100
AcDbEntity
  8
Ebene_1
 62
7
100
AcDbPolyline
 90
1
 70
1
 10
48.899052
 20
49.394843
 30
0.0
  0
SPLINE
  5
1fb
100
AcDbEntity
  8
Ebene_1
 62
7
100
AcDbSpline
 70
8
 71
3
 72
8
 73
4
 74
0
 40
0
 40
0
 40
0
 40
0
 40
1
 40
1
 40
1
 40
1
 10
79.076594
 20
39.647735
 30
0.0
 10
97.107822
 20
39.597621
 30
0.0
 10
115.140202
 20
39.716002
 30
0.0
 10
133.170380
 20
39.468424
 30
0.0
  0
SPLINE
  5
1fc
100
AcDbEntity
  8
Ebene_1
 62
7
100
AcDbSpline
 70
8
 71
3
 72
8
 73
4
 74
0
 40
0
 40
0
 40
0
 40
0
 40
1
 40
1
 40
1
 40
1
 10
133.170380
 20
39.468424
 30
0.0
 10
135.910705
 20
39.401008
 30
0.0
 10
138.657706
 20
39.354129
 30
0.0
 10
141.385579
 20
39.069023
 30
0.0
  0
SPLINE
  5
1fd
100
AcDbEntity
  8
Ebene_1
 62
7
100
AcDbSpline
 70
8
 71
3
 72
8
 73
4
 74
0
 40
0
 40
0
 40
0
 40
0
 40
1
 40
1
 40
1
 40
1
 10
141.385579
 20
39.069023
 30
0.0
 10
142.778014
 20
38.853054
 30
0.0
 10
144.044286
 20
38.112780
 30
0.0
 10
145.108584
 20
37.213733
 30
0.0
  0
SPLINE
  5
1fe
100
AcDbEntity
  8
Ebene_1
 62
7
100
AcDbSpline
 70
8
 71
3
 72
8
 73
4
 74
0
 40
0
 40
0
 40
0
 40
0
 40
1
 40
1
 40
1
 40
1
 10
145.108584
 20
37.213733
 30
0.0
 10
145.709525
 20
36.669268
 30
0.0
 10
146.301323
 20
36.074473
 30
0.0
 10
146.698625
 20
35.365146
 30
0.0
  0
SPLINE
  5
1ff
100
AcDbEntity
  8
Ebene_1
 62
7
100
AcDbSpline
 70
8
 71
3
 72
8
 73
4
 74
0
 40
0
 40
0
 40
0
 40
0
 40
1
 40
1
 40
1
 40
1
 10
146.698625
 20
35.365146
 30
0.0
 10
146.827321
 20
34.958823
 30
0.0
 10
146.461013
 20
34.586682
 30
0.0
 10
146.060884
 20
34.593972
 30
0.0
  0
SPLINE
  5
200
100
AcDbEntity
  8
Ebene_1
 62
7
100
AcDbSpline
 70
8
 71
3
 72
8
 73
4
 74
0
 40
0
 40
0
 40
0
 40
0
 40
1
 40
1
 40
1
 40
1
 10
146.060884
 20
34.593972
 30
0.0
 10
145.286353
 20
34.478787
 30
0.0
 10
144.498188
 20
34.528919
 30
0.0
 10
143.718995
 20
34.459092
 30
0.0
  0
SPLINE
  5
201
100
AcDbEntity
  8
Ebene_1
 62
7
100
AcDbSpline
 70
8
 71
3
 72
8
 73
4
 74
0
 40
0
 40
0
 40
0
 40
0
 40
1
 40
1
 40
1
 40
1
 10
143.718995
 20
34.459092
 30
0.0
 10
137.170586
 20
34.212583
 30
0.0
 10
130.616248
 20
34.227068
 30
0.0
 10
124.064407
 20
34.170242
 30
0.0
  0
SPLINE
  5
202
100
AcDbEntity
  8
Ebene_1
 62
7
100
AcDbSpline
 70
8
 71
3
 72
8
 73
4
 74
0
 40
0
 40
0
 40
0
 40
0
 40
1
 40
1
 40
1
 40
1
 10
124.064407
 20
34.170242
 30
0.0
 10
109.347914
 20
34.097247
 30
0.0
 10
94.629966
 20
34.108593
 30
0.0
 10
79.915005
 20
34.351311
 30
0.0
  0
SPLINE
  5
203
100
AcDbEntity
  8
Ebene_1
 62
7
100
AcDbSpline
 70
8
 71
3
 72
8
 73
4
 74
0
 40
0
 40
0
 40
0
 40
0
 40
1
 40
1
 40
1
 40
1
 10
79.915005
 20
34.351311
 30
0.0
 10
77.736126
 20
34.407475
 30
0.0
 10
75.551621
 20
34.434707
 30
0.0
 10
73.381252
 20
34.639376
 30
0.0
  0
SPLINE
  5
204
100
AcDbEntity
  8
Ebene_1
 62
7
100
AcDbSpline
 70
8
 71
3
 72
8
 73
4
 74
0
 40
0
 40
0
 40
0
 40
0
 40
1
 40
1
 40
1
 40
1
 10
73.381252
 20
34.639376
 30
0.0
 10
72.832457
 20
34.768223
 30
0.0
 10
72.562810
 20
35.459756
 30
0.0
 10
72.874041
 20
35.929675
 30
0.0
  0
SPLINE
  5
205
100
AcDbEntity
  8
Ebene_1
 62
7
100
AcDbSpline
 70
8
 71
3
 72
8
 73
4
 74
0
 40
0
 40
0
 40
0
 40
0
 40
1
 40
1
 40
1
 40
1
 10
72.874041
 20
35.929675
 30
0.0
 10
73.262975
 20
36.646235
 30
0.0
 10
73.978883
 20
37.105677
 30
0.0
 10
74.623593
 20
37.571058
 30
0.0
  0
SPLINE
  5
206
100
AcDbEntity
  8
Ebene_1
 62
7
100
AcDbSpline
 70
8
 71
3
 72
8
 73
4
 74
0
 40
0
 40
0
 40
0
 40
0
 40
1
 40
1
 40
1
 40
1
 10
74.623593
 20
37.571058
 30
0.0
 10
75.768166
 20
38.306964
 30
0.0
 10
77.010091
 20
38.877270
 30
0.0
 10
78.217268
 20
39.497339
 30
0.0
  0
SPLINE
  5
207
100
AcDbEntity
  8
Ebene_1
 62
7
100
AcDbSpline
 70
8
 71
3
 72
8
 73
4
 74
0
 40
0
 40
0
 40
0
 40
0
 40
1
 40
1
 40
1
 40
1
 10
78.217268
 20
39.497339
 30
0.0
 10
78.490328
 20
39.602141
 30
0.0
 10
78.783395
 20
39.661312
 30
0.0
 10
79.076594
 20
39.647735
 30
0.0
  0
LWPOLYLINE
  5
208
100
AcDbEntity
  8
Ebene_1
 62
7
100
AcDbPolyline
 90
1
 70
1
 10
170.237148
 20
49.012584
 30
0.0
  0
SPLINE
  5
209
100
AcDbEntity
  8
Ebene_1
 62
7
100
AcDbSpline
 70
8
 71
3
 72
8
 73
4
 74
0
 40
0
 40
0
 40
0
 40
0
 40
1
 40
1
 40
1
 40
1
 10
55.477690
 20
60.271945
 30
0.0
 10
51.879050
 20
61.091701
 30
0.0
 10
49.541559
 20
61.990399
 30
0.0
 10
48.759066
 20
62.855048
 30
0.0
  0
SPLINE
  5
20a
100
AcDbEntity
  8
Ebene_1
 62
7
100
AcDbSpline
 70
8
 71
3
 72
8
 73
4
 74
0
 40
0
 40
0
 40
0
 40
0
 40
1
 40
1
 40
1
 40
1
 10
48.759066
 20
62.855048
 30
0.0
 10
47.199197
 20
64.578673
 30
0.0
 10
48.417257
 20
71.692481
 30
0.0
 10
50.678104
 20
74.062792
 30
0.0
  0
SPLINE
  5
20b
100
AcDbEntity
  8
Ebene_1
 62
7
100
AcDbSpline
 70
8
 71
3
 72
8
 73
4
 74
0
 40
0
 40
0
 40
0
 40
0
 40
1
 40
1
 40
1
 40
1
 10
50.678104
 20
74.062792
 30
0.0
 10
51.384387
 20
74.803265
 30
0.0
 10
51.628759
 20
74.882009
 30
0.0
 10
52.691525
 20
74.711473
 30
0.0
  0
SPLINE
  5
20c
100
AcDbEntity
  8
Ebene_1
 62
7
100
AcDbSpline
 70
8
 71
3
 72
8
 73
4
 74
0
 40
0
 40
0
 40
0
 40
0
 40
1
 40
1
 40
1
 40
1
 10
52.691525
 20
74.711473
 30
0.0
 10
54.413099
 20
74.435218
 30
0.0
 10
55.956213
 20
73.425827
 30
0.0
 10
58.763161
 20
70.739879
 30
0.0
  0
SPLINE
  5
20d
100
AcDbEntity
  8
Ebene_1
 62
7
100
AcDbSpline
 70
8
 71
3
 72
8
 73
4
 74
0
 40
0
 40
0
 40
0
 40
0
 40
1
 40
1
 40
1
 40
1
 10
58.763161
 20
70.739879
 30
0.0
 10
60.517828
 20
69.060835
 30
0.0
 10
61.649731
 20
68.236796
 30
0.0
 10
62.739814
 20
67.844808
 30
0.0
  0
SPLINE
  5
20e
100
AcDbEntity
  8
Ebene_1
 62
7
100
AcDbSpline
 70
8
 71
3
 72
8
 73
4
 74
0
 40
0
 40
0
 40
0
 40
0
 40
1
 40
1
 40
1
 40
1
 10
62.739814
 20
67.844808
 30
0.0
 10
63.577912
 20
67.543439
 30
0.0
 10
64.981230
 20
66.782306
 30
0.0
 10
65.858313
 20
66.153397
 30
0.0
  0
SPLINE
  5
20f
100
AcDbEntity
  8
Ebene_1
 62
7
100
AcDbSpline
 70
8
 71
3
 72
8
 73
4
 74
0
 40
0
 40
0
 40
0
 40
0
 40
1
 40
1
 40
1
 40
1
 10
65.858313
 20
66.153397
 30
0.0
 10
67.594590
 20
64.908417
 30
0.0
 10
70.012811
 20
62.224805
 30
0.0
 10
70.012811
 20
61.542964
 30
0.0
  0
SPLINE
  5
210
100
AcDbEntity
  8
Ebene_1
 62
7
100
AcDbSpline
 70
8
 71
3
 72
8
 73
4
 74
0
 40
0
 40
0
 40
0
 40
0
 40
1
 40
1
 40
1
 40
1
 10
70.012811
 20
61.542964
 30
0.0
 10
70.012811
 20
60.736106
 30
0.0
 10
65.987227
 20
59.757974
 30
0.0
 10
62.182821
 20
59.640435
 30
0.0
  0
SPLINE
  5
211
100
AcDbEntity
  8
Ebene_1
 62
7
100
AcDbSpline
 70
8
 71
3
 72
8
 73
4
 74
0
 40
0
 40
0
 40
0
 40
0
 40
1
 40
1
 40
1
 40
1
 10
62.182821
 20
59.640435
 30
0.0
 10
59.321524
 20
59.552028
 30
0.0
 10
58.156083
 20
59.661899
 30
0.0
 10
55.477690
 20
60.271945
 30
0.0
  0
LWPOLYLINE
  5
212
100
AcDbEntity
  8
Ebene_1
 62
7
100
AcDbPolyline
 90
1
 70
1
 10
79.076594
 20
39.647735
 30
0.0
  0
SPLINE
  5
213
100
AcDbEntity
  8
Ebene_1
 62
7
100
AcDbSpline
 70
8
 71
3
 72
8
 73
4
 74
0
 40
0
 40
0
 40
0
 40
0
 40
1
 40
1
 40
1
 40
1
 10
163.437474
 20
60.271945
 30
0.0
 10
167.036113
 20
61.091701
 30
0.0
 10
169.373605
 20
61.990399
 30
0.0
 10
170.156097
 20
62.855048
 30
0.0
  0
SPLINE
  5
214
100
AcDbEntity
  8
Ebene_1
 62
7
100
AcDbSpline
 70
8
 71
3
 72
8
 73
4
 74
0
 40
0
 40
0
 40
0
 40
0
 40
1
 40
1
 40
1
 40
1
 10
170.156097
 20
62.855048
 30
0.0
 10
171.715966
 20
64.578673
 30
0.0
 10
170.497906
 20
71.692481
 30
0.0
 10
168.237059
 20
74.062792
 30
0.0
  0
SPLINE
  5
215
100
AcDbEntity
  8
Ebene_1
 62
7
100
AcDbSpline
 70
8
 71
3
 72
8
 73
4
 74
0
 40
0
 40
0
 40
0
 40
0
 40
1
 40
1
 40
1
 40
1
 10
168.237059
 20
74.062792
 30
0.0
 10
167.530777
 20
74.803265
 30
0.0
 10
167.286404
 20
74.882009
 30
0.0
 10
166.223638
 20
74.711473
 30
0.0
  0
SPLINE
  5
216
100
AcDbEntity
  8
Ebene_1
 62
7
100
AcDbSpline
 70
8
 71
3
 72
8
 73
4
 74
0
 40
0
 40
0
 40
0
 40
0
 40
1
 40
1
 40
1
 40
1
 10
166.223638
 20
74.711473
 30
0.0
 10
164.502065
 20
74.435218
 30
0.0
 10
162.958950
 20
73.425827
 30
0.0
 10
160.152003
 20
70.739879
 30
0.0
  0
SPLINE
  5
217
100
AcDbEntity
  8
Ebene_1
 62
7
100
AcDbSpline
 70
8
 71
3
 72
8
 73
4
 74
0
 40
0
 40
0
 40
0
 40
0
 40
1
 40
1
 40
1
 40
1
 10
160.152003
 20
70.739879
 30
0.0
 10
158.397336
 20
69.060835
 30
0.0
 10
157.265432
 20
68.236796
 30
0.0
 10
156.175350
 20
67.844808
 30
0.0
  0
SPLINE
  5
218
100
AcDbEntity
  8
Ebene_1
 62
7
100
AcDbSpline
 70
8
 71
3
 72
8
 73
4
 74
0
 40
0
 40
0
 40
0
 40
0
 40
1
 40
1
 40
1
 40
1
 10
156.175350
 20
67.844808
 30
0.0
 10
155.337251
 20
67.543439
 30
0.0
 10
153.933933
 20
66.782306
 30
0.0
 10
153.056850
 20
66.153397
 30
0.0
  0
SPLINE
  5
219
100
AcDbEntity
  8
Ebene_1
 62
7
100
AcDbSpline
 70
8
 71
3
 72
8
 73
4
 74
0
 40
0
 40
0
 40
0
 40
0
 40
1
 40
1
 40
1
 40
1
 10
153.056850
 20
66.153397
 30
0.0
 10
151.320564
 20
64.908417
 30
0.0
 10
148.902353
 20
62.224805
 30
0.0
 10
148.902353
 20
61.542964
 30
0.0
  0
SPLINE
  5
21a
100
AcDbEntity
  8
Ebene_1
 62
7
100
AcDbSpline
 70
8
 71
3
 72
8
 73
4
 74
0
 40
0
 40
0
 40
0
 40
0
 40
1
 40
1
 40
1
 40
1
 10
148.902353
 20
61.542964
 30
0.0
 10
148.902353
 20
60.736106
 30
0.0
 10
152.927937
 20
59.757974
 30
0.0
 10
156.732333
 20
59.640435
 30
0.0
  0
SPLINE
  5
21b
100
AcDbEntity
  8
Ebene_1
 62
7
100
AcDbSpline
 70
8
 71
3
 72
8
 73
4
 74
0
 40
0
 40
0
 40
0
 40
0
 40
1
 40
1
 40
1
 40
1
 10
156.732333
 20
59.640435
 30
0.0
 10
159.593639
 20
59.552028
 30
0.0
 10
160.759080
 20
59.661899
 30
0.0
 10
163.437474
 20
60.271945
 30
0.0
  0
LWPOLYLINE
  5
21c
100
AcDbEntity
  8
Ebene_1
 62
7
100
AcDbPolyline
 90
1
 70
1
 10
55.477690
 20
60.271945
 30
0.0
  0
LWPOLYLINE
  5
21d
100
AcDbEntity
  8
Ebene_1
 62
7
100
AcDbPolyline
 90
1
 70
1
 10
163.437474
 20
60.271945
 30
0.0
  0
ENDSEC
  0
SECTION
  2
OBJECTS
  0
DICTIONARY
  5
C
330
0
100
AcDbDictionary
  3
ACAD_GROUP
350
D
  3
ACAD_MLINESTYLE
350
17
  0
DICTIONARY
  5
D
330
C
100
AcDbDictionary
  0
DICTIONARY
  5
1A
330
C
100
AcDbDictionary
  0
DICTIONARY
  5
17
330
C
100
AcDbDictionary
  3
STANDARD
350
18
  0
DICTIONARY
  5
19
330
C
100
AcDbDictionary
  0
ENDSEC
  0
EOF
