  0
SECTION
  2
HEADER
  9
$ACADVER
  1
AC1014
  9
$HANDSEED
  5
FFFF
  9
$MEASUREMENT
 70
     1
  0
ENDSEC
  0
SECTION
  2
TABLES
  0
TABLE
  2
VPORT
  5
8
330
0
100
AcDbSymbolTable
 70
     4
  0
VPORT
  5
2E
330
8
100
AcDbSymbolTableRecord
100
AcDbViewportTableRecord
  2
*ACTIVE
 70
     0
 10
0.0
 20
0.0
 11
1.0
 21
1.0
 12
210.0
 22
148.5
 13
0.0
 23
0.0
 14
10.0
 24
10.0
 15
10.0
 25
10.0
 16
0.0
 26
0.0
 36
1.0
 17
0.0
 27
0.0
 37
0.0
 40
341.0
 41
1.24
 42
50.0
 43
0.0
 44
0.0
 50
0.0
 51
0.0
 71
     0
 72
   100
 73
     1
 74
     3
 75
     0
 76
     0
 77
     0
 78
     0
  0
ENDTAB
  0
TABLE
  2
LTYPE
  5
5
330
0
100
AcDbSymbolTable
 70
     1
  0
LTYPE
  5
14
330
5
100
AcDbSymbolTableRecord
100
AcDbLinetypeTableRecord
  2
BYBLOCK
 70
     0
  3

 72
    65
 73
     0
 40
0.0
  0
LTYPE
  5
15
330
5
100
AcDbSymbolTableRecord
100
AcDbLinetypeTableRecord
  2
BYLAYER
 70
     0
  3

 72
    65
 73
     0
 40
0.0
  0
LTYPE
  5
16
330
5
100
AcDbSymbolTableRecord
100
AcDbLinetypeTableRecord
  2
CONTINUOUS
 70
     0
  3
Solid line
 72
    65
 73
     0
 40
0.0
  0
ENDTAB
  0
TABLE
  2
LAYER
  5
2
100
AcDbSymbolTable
 70
2
  0
LAYER
  5
50
100
AcDbSymbolTableRecord
100
AcDbLayerTableRecord
  2
0
 70
0
  6
CONTINUOUS
  0
LAYER
  5
51
100
AcDbSymbolTableRecord
100
AcDbLayerTableRecord
  2
Ebene_1
 70
0
  6
CONTINUOUS
  0
ENDTAB
  0
TABLE
  2
STYLE
  5
3
330
0
100
AcDbSymbolTable
 70
     1
  0
STYLE
  5
11
330
3
100
AcDbSymbolTableRecord
100
AcDbTextStyleTableRecord
  2
STANDARD
 70
     0
 40
0.0
 41
1.0
 50
0.0
 71
     0
 42
2.5
  3
txt
  4

  0
ENDTAB
  0
TABLE
  2
VIEW
  5
6
330
0
100
AcDbSymbolTable
 70
     0
  0
ENDTAB
  0
TABLE
  2
UCS
  5
7
330
0
100
AcDbSymbolTable
 70
     0
  0
ENDTAB
  0
TABLE
  2
APPID
  5
9
330
0
100
AcDbSymbolTable
 70
     2
  0
APPID
  5
12
330
9
100
AcDbSymbolTableRecord
100
AcDbRegAppTableRecord
  2
ACAD
 70
     0
  0
ENDTAB
  0
TABLE
  2
DIMSTYLE
  5
A
330
0
100
AcDbSymbolTable
 70
     1
  0
DIMSTYLE
105
27
330
A
100
AcDbSymbolTableRecord
100
AcDbDimStyleTableRecord
  2
ISO-25
 70
     0
  3

  4

  5

  6

  7

 40
1.0
 41
2.5
 42
0.625
 43
3.75
 44
1.25
 45
0.0
 46
0.0
 47
0.0
 48
0.0
140
2.5
141
2.5
142
0.0
143
0.03937007874016
144
1.0
145
0.0
146
1.0
147
0.625
 71
     0
 72
     0
 73
     0
 74
     0
 75
     0
 76
     0
 77
     1
 78
     8
170
     0
171
     3
172
     1
173
     0
174
     0
175
     0
176
     0
177
     0
178
     0
270
     2
271
     2
272
     2
273
     2
274
     3
340
11
275
     0
280
     0
281
     0
282
     0
283
     0
284
     8
285
     0
286
     0
287
     3
288
     0
  0
ENDTAB
  0
TABLE
  2
BLOCK_RECORD
  5
1
330
0
100
AcDbSymbolTable
 70
     1
  0
BLOCK_RECORD
  5
1F
330
1
100
AcDbSymbolTableRecord
100
AcDbBlockTableRecord
  2
*MODEL_SPACE
  0
BLOCK_RECORD
  5
1B
330
1
100
AcDbSymbolTableRecord
100
AcDbBlockTableRecord
  2
*PAPER_SPACE
  0
ENDTAB
  0
ENDSEC
  0
SECTION
  2
BLOCKS
  0
BLOCK
  5
20
330
1F
100
AcDbEntity
  8
0
100
AcDbBlockBegin
  2
*MODEL_SPACE
 70
     0
 10
0.0
 20
0.0
 30
0.0
  3
*MODEL_SPACE
  1

  0
ENDBLK
  5
21
330
1F
100
AcDbEntity
  8
0
100
AcDbBlockEnd
  0
BLOCK
  5
1C
330
1B
100
AcDbEntity
 67
     1
  8
0
100
AcDbBlockBegin
  2
*PAPER_SPACE
  1

  0
ENDBLK
  5
1D
330
1B
100
AcDbEntity
 67
     1
  8
0
100
AcDbBlockEnd
  0
ENDSEC
  0
SECTION
  2
ENTITIES
  0
SPLINE
  5
100
100
AcDbEntity
  8
Ebene_1
 62
7
100
AcDbSpline
 70
8
 71
3
 72
8
 73
4
 74
0
 40
0
 40
0
 40
0
 40
0
 40
1
 40
1
 40
1
 40
1
 10
149.078437
 20
257.530380
 30
0.0
 10
123.278355
 20
257.386297
 30
0.0
 10
96.790056
 20
252.762283
 30
0.0
 10
71.688575
 20
243.940455
 30
0.0
  0
SPLINE
  5
101
100
AcDbEntity
  8
Ebene_1
 62
7
100
AcDbSpline
 70
8
 71
3
 72
8
 73
4
 74
0
 40
0
 40
0
 40
0
 40
0
 40
1
 40
1
 40
1
 40
1
 10
71.688575
 20
243.940455
 30
0.0
 10
68.393045
 20
242.782289
 30
0.0
 10
62.771274
 20
240.658038
 30
0.0
 10
62.631607
 20
240.518535
 30
0.0
  0
SPLINE
  5
102
100
AcDbEntity
  8
Ebene_1
 62
7
100
AcDbSpline
 70
8
 71
3
 72
8
 73
4
 74
0
 40
0
 40
0
 40
0
 40
0
 40
1
 40
1
 40
1
 40
1
 10
62.631607
 20
240.518535
 30
0.0
 10
62.495328
 20
240.382248
 30
0.0
 10
63.387023
 20
238.374885
 30
0.0
 10
65.301983
 20
234.511173
 30
0.0
  0
SPLINE
  5
103
100
AcDbEntity
  8
Ebene_1
 62
7
100
AcDbSpline
 70
8
 71
3
 72
8
 73
4
 74
0
 40
0
 40
0
 40
0
 40
0
 40
1
 40
1
 40
1
 40
1
 10
65.301983
 20
234.511173
 30
0.0
 10
66.325481
 20
232.446024
 30
0.0
 10
67.255981
 20
230.721014
 30
0.0
 10
67.368923
 20
230.677439
 30
0.0
  0
SPLINE
  5
104
100
AcDbEntity
  8
Ebene_1
 62
7
100
AcDbSpline
 70
8
 71
3
 72
8
 73
4
 74
0
 40
0
 40
0
 40
0
 40
0
 40
1
 40
1
 40
1
 40
1
 10
67.368923
 20
230.677439
 30
0.0
 10
67.481968
 20
230.634121
 30
0.0
 10
68.789064
 20
231.105004
 30
0.0
 10
70.274380
 20
231.723270
 30
0.0
  0
SPLINE
  5
105
100
AcDbEntity
  8
Ebene_1
 62
7
100
AcDbSpline
 70
8
 71
3
 72
8
 73
4
 74
0
 40
0
 40
0
 40
0
 40
0
 40
1
 40
1
 40
1
 40
1
 10
70.274380
 20
231.723270
 30
0.0
 10
91.832793
 20
240.697360
 30
0.0
 10
114.264705
 20
245.666423
 30
0.0
 10
138.646766
 20
246.868596
 30
0.0
  0
SPLINE
  5
106
100
AcDbEntity
  8
Ebene_1
 62
7
100
AcDbSpline
 70
8
 71
3
 72
8
 73
4
 74
0
 40
0
 40
0
 40
0
 40
0
 40
1
 40
1
 40
1
 40
1
 10
138.646766
 20
246.868596
 30
0.0
 10
145.682479
 20
247.215508
 30
0.0
 10
160.212388
 20
247.049166
 30
0.0
 10
167.206310
 20
246.541697
 30
0.0
  0
SPLINE
  5
107
100
AcDbEntity
  8
Ebene_1
 62
7
100
AcDbSpline
 70
8
 71
3
 72
8
 73
4
 74
0
 40
0
 40
0
 40
0
 40
0
 40
1
 40
1
 40
1
 40
1
 10
167.206310
 20
246.541697
 30
0.0
 10
188.975246
 20
244.962675
 30
0.0
 10
210.795447
 20
239.808224
 30
0.0
 10
230.000894
 20
231.708453
 30
0.0
  0
SPLINE
  5
108
100
AcDbEntity
  8
Ebene_1
 62
7
100
AcDbSpline
 70
8
 71
3
 72
8
 73
4
 74
0
 40
0
 40
0
 40
0
 40
0
 40
1
 40
1
 40
1
 40
1
 10
230.000894
 20
231.708453
 30
0.0
 10
231.548621
 20
231.055695
 30
0.0
 10
232.864119
 20
230.563976
 30
0.0
 10
232.925053
 20
230.615215
 30
0.0
  0
SPLINE
  5
109
100
AcDbEntity
  8
Ebene_1
 62
7
100
AcDbSpline
 70
8
 71
3
 72
8
 73
4
 74
0
 40
0
 40
0
 40
0
 40
0
 40
1
 40
1
 40
1
 40
1
 10
232.925053
 20
230.615215
 30
0.0
 10
233.379041
 20
230.997342
 30
0.0
 10
237.859524
 20
240.350079
 30
0.0
 10
237.676282
 20
240.533366
 30
0.0
  0
SPLINE
  5
10a
100
AcDbEntity
  8
Ebene_1
 62
7
100
AcDbSpline
 70
8
 71
3
 72
8
 73
4
 74
0
 40
0
 40
0
 40
0
 40
0
 40
1
 40
1
 40
1
 40
1
 10
237.676282
 20
240.533366
 30
0.0
 10
237.641774
 20
240.568144
 30
0.0
 10
236.247480
 20
241.112455
 30
0.0
 10
234.579234
 20
241.742127
 30
0.0
  0
SPLINE
  5
10b
100
AcDbEntity
  8
Ebene_1
 62
7
100
AcDbSpline
 70
8
 71
3
 72
8
 73
4
 74
0
 40
0
 40
0
 40
0
 40
0
 40
1
 40
1
 40
1
 40
1
 10
234.579234
 20
241.742127
 30
0.0
 10
212.172411
 20
250.200099
 30
0.0
 10
190.160530
 20
255.126520
 30
0.0
 10
166.804356
 20
256.911168
 30
0.0
  0
SPLINE
  5
10c
100
AcDbEntity
  8
Ebene_1
 62
7
100
AcDbSpline
 70
8
 71
3
 72
8
 73
4
 74
0
 40
0
 40
0
 40
0
 40
0
 40
1
 40
1
 40
1
 40
1
 10
166.804356
 20
256.911168
 30
0.0
 10
160.949220
 20
257.358604
 30
0.0
 10
155.032331
 20
257.563665
 30
0.0
 10
149.078437
 20
257.530380
 30
0.0
  0
LWPOLYLINE
  5
10d
100
AcDbEntity
  8
Ebene_1
 62
7
100
AcDbPolyline
 90
1
 70
1
 10
149.078437
 20
257.530380
 30
0.0
  0
SPLINE
  5
10e
100
AcDbEntity
  8
Ebene_1
 62
7
100
AcDbSpline
 70
8
 71
3
 72
8
 73
4
 74
0
 40
0
 40
0
 40
0
 40
0
 40
1
 40
1
 40
1
 40
1
 10
130.301766
 20
240.521397
 30
0.0
 10
111.388656
 20
239.357337
 30
0.0
 10
90.314384
 20
234.426284
 30
0.0
 10
74.101197
 20
227.372909
 30
0.0
  0
SPLINE
  5
10f
100
AcDbEntity
  8
Ebene_1
 62
7
100
AcDbSpline
 70
8
 71
3
 72
8
 73
4
 74
0
 40
0
 40
0
 40
0
 40
0
 40
1
 40
1
 40
1
 40
1
 10
74.101197
 20
227.372909
 30
0.0
 10
72.686095
 20
226.757278
 30
0.0
 10
71.256817
 20
226.141323
 30
0.0
 10
70.925174
 20
226.004094
 30
0.0
  0
SPLINE
  5
110
100
AcDbEntity
  8
Ebene_1
 62
7
100
AcDbSpline
 70
8
 71
3
 72
8
 73
4
 74
0
 40
0
 40
0
 40
0
 40
0
 40
1
 40
1
 40
1
 40
1
 10
70.925174
 20
226.004094
 30
0.0
 10
70.593567
 20
225.866933
 30
0.0
 10
70.321739
 20
225.697414
 30
0.0
 10
70.321739
 20
225.627874
 30
0.0
  0
SPLINE
  5
111
100
AcDbEntity
  8
Ebene_1
 62
7
100
AcDbSpline
 70
8
 71
3
 72
8
 73
4
 74
0
 40
0
 40
0
 40
0
 40
0
 40
1
 40
1
 40
1
 40
1
 10
70.321739
 20
225.627874
 30
0.0
 10
70.321739
 20
225.558283
 30
0.0
 10
70.750677
 20
224.932879
 30
0.0
 10
71.274775
 20
224.237375
 30
0.0
  0
SPLINE
  5
112
100
AcDbEntity
  8
Ebene_1
 62
7
100
AcDbSpline
 70
8
 71
3
 72
8
 73
4
 74
0
 40
0
 40
0
 40
0
 40
0
 40
1
 40
1
 40
1
 40
1
 10
71.274775
 20
224.237375
 30
0.0
 10
74.842099
 20
219.503164
 30
0.0
 10
80.086303
 20
215.160732
 30
0.0
 10
86.765801
 20
211.410794
 30
0.0
  0
SPLINE
  5
113
100
AcDbEntity
  8
Ebene_1
 62
7
100
AcDbSpline
 70
8
 71
3
 72
8
 73
4
 74
0
 40
0
 40
0
 40
0
 40
0
 40
1
 40
1
 40
1
 40
1
 10
86.765801
 20
211.410794
 30
0.0
 10
88.998938
 20
210.157066
 30
0.0
 10
93.456392
 20
208.039878
 30
0.0
 10
93.586921
 20
208.170606
 30
0.0
  0
SPLINE
  5
114
100
AcDbEntity
  8
Ebene_1
 62
7
100
AcDbSpline
 70
8
 71
3
 72
8
 73
4
 74
0
 40
0
 40
0
 40
0
 40
0
 40
1
 40
1
 40
1
 40
1
 10
93.586921
 20
208.170606
 30
0.0
 10
93.625961
 20
208.209418
 30
0.0
 10
93.799780
 20
208.938926
 30
0.0
 10
93.974050
 20
209.792193
 30
0.0
  0
SPLINE
  5
115
100
AcDbEntity
  8
Ebene_1
 62
7
100
AcDbSpline
 70
8
 71
3
 72
8
 73
4
 74
0
 40
0
 40
0
 40
0
 40
0
 40
1
 40
1
 40
1
 40
1
 10
93.974050
 20
209.792193
 30
0.0
 10
94.403038
 20
211.892161
 30
0.0
 10
94.813113
 20
212.922392
 30
0.0
 10
95.796101
 20
214.367606
 30
0.0
  0
SPLINE
  5
116
100
AcDbEntity
  8
Ebene_1
 62
7
100
AcDbSpline
 70
8
 71
3
 72
8
 73
4
 74
0
 40
0
 40
0
 40
0
 40
0
 40
1
 40
1
 40
1
 40
1
 10
95.796101
 20
214.367606
 30
0.0
 10
98.462255
 20
218.287420
 30
0.0
 10
103.978943
 20
220.166000
 30
0.0
 10
114.704138
 20
220.805567
 30
0.0
  0
SPLINE
  5
117
100
AcDbEntity
  8
Ebene_1
 62
7
100
AcDbSpline
 70
8
 71
3
 72
8
 73
4
 74
0
 40
0
 40
0
 40
0
 40
0
 40
1
 40
1
 40
1
 40
1
 10
114.704138
 20
220.805567
 30
0.0
 10
118.308076
 20
221.020533
 30
0.0
 10
125.477503
 20
221.201944
 30
0.0
 10
125.477503
 20
221.078093
 30
0.0
  0
SPLINE
  5
118
100
AcDbEntity
  8
Ebene_1
 62
7
100
AcDbSpline
 70
8
 71
3
 72
8
 73
4
 74
0
 40
0
 40
0
 40
0
 40
0
 40
1
 40
1
 40
1
 40
1
 10
125.477503
 20
221.078093
 30
0.0
 10
125.477503
 20
221.052021
 30
0.0
 10
129.807440
 20
196.912702
 30
0.0
 10
132.929665
 20
179.470885
 30
0.0
  0
LWPOLYLINE
  5
119
100
AcDbEntity
  8
Ebene_1
 62
7
100
AcDbPolyline
 90
2
 70
0
 10
131.990506
 20
240.625213
 30
0.0
 10
130.301766
 20
240.521397
 30
0.0
  0
SPLINE
  5
11a
100
AcDbEntity
  8
Ebene_1
 62
7
100
AcDbSpline
 70
8
 71
3
 72
8
 73
4
 74
0
 40
0
 40
0
 40
0
 40
0
 40
1
 40
1
 40
1
 40
1
 10
167.229023
 20
179.470885
 30
0.0
 10
171.247344
 20
201.986938
 30
0.0
 10
174.642137
 20
220.976279
 30
0.0
 10
174.668369
 20
221.005025
 30
0.0
  0
SPLINE
  5
11b
100
AcDbEntity
  8
Ebene_1
 62
7
100
AcDbSpline
 70
8
 71
3
 72
8
 73
4
 74
0
 40
0
 40
0
 40
0
 40
0
 40
1
 40
1
 40
1
 40
1
 10
174.668369
 20
221.005025
 30
0.0
 10
174.798970
 20
221.148063
 30
0.0
 10
185.206712
 20
220.875740
 30
0.0
 10
187.709216
 20
220.663364
 30
0.0
  0
SPLINE
  5
11c
100
AcDbEntity
  8
Ebene_1
 62
7
100
AcDbSpline
 70
8
 71
3
 72
8
 73
4
 74
0
 40
0
 40
0
 40
0
 40
0
 40
1
 40
1
 40
1
 40
1
 10
187.709216
 20
220.663364
 30
0.0
 10
199.202209
 20
219.687983
 30
0.0
 10
204.230116
 20
217.067113
 30
0.0
 10
205.931858
 20
211.165867
 30
0.0
  0
SPLINE
  5
11d
100
AcDbEntity
  8
Ebene_1
 62
7
100
AcDbSpline
 70
8
 71
3
 72
8
 73
4
 74
0
 40
0
 40
0
 40
0
 40
0
 40
1
 40
1
 40
1
 40
1
 10
205.931858
 20
211.165867
 30
0.0
 10
206.148014
 20
210.416522
 30
0.0
 10
206.376210
 20
209.421221
 30
0.0
 10
206.439439
 20
208.953725
 30
0.0
  0
SPLINE
  5
11e
100
AcDbEntity
  8
Ebene_1
 62
7
100
AcDbSpline
 70
8
 71
3
 72
8
 73
4
 74
0
 40
0
 40
0
 40
0
 40
0
 40
1
 40
1
 40
1
 40
1
 10
206.439439
 20
208.953725
 30
0.0
 10
206.544171
 20
208.181322
 30
0.0
 10
206.586181
 20
208.113038
 30
0.0
 10
206.900666
 20
208.204161
 30
0.0
  0
SPLINE
  5
11f
100
AcDbEntity
  8
Ebene_1
 62
7
100
AcDbSpline
 70
8
 71
3
 72
8
 73
4
 74
0
 40
0
 40
0
 40
0
 40
0
 40
1
 40
1
 40
1
 40
1
 10
206.900666
 20
208.204161
 30
0.0
 10
207.662278
 20
208.425093
 30
0.0
 10
213.248069
 20
211.227999
 30
0.0
 10
214.935526
 20
212.236404
 30
0.0
  0
SPLINE
  5
120
100
AcDbEntity
  8
Ebene_1
 62
7
100
AcDbSpline
 70
8
 71
3
 72
8
 73
4
 74
0
 40
0
 40
0
 40
0
 40
0
 40
1
 40
1
 40
1
 40
1
 10
214.935526
 20
212.236404
 30
0.0
 10
221.071170
 20
215.903090
 30
0.0
 10
226.025764
 20
220.173687
 30
0.0
 10
229.186143
 20
224.518811
 30
0.0
  0
LWPOLYLINE
  5
121
100
AcDbEntity
  8
Ebene_1
 62
7
100
AcDbPolyline
 90
2
 70
0
 10
132.929665
 20
179.470885
 30
0.0
 10
167.229023
 20
179.470885
 30
0.0
  0
SPLINE
  5
122
100
AcDbEntity
  8
Ebene_1
 62
7
100
AcDbSpline
 70
8
 71
3
 72
8
 73
4
 74
0
 40
0
 40
0
 40
0
 40
0
 40
1
 40
1
 40
1
 40
1
 10
229.368853
 20
225.958714
 30
0.0
 10
228.019370
 20
226.647174
 30
0.0
 10
222.845203
 20
228.783921
 30
0.0
 10
219.628420
 20
229.981093
 30
0.0
  0
SPLINE
  5
123
100
AcDbEntity
  8
Ebene_1
 62
7
100
AcDbSpline
 70
8
 71
3
 72
8
 73
4
 74
0
 40
0
 40
0
 40
0
 40
0
 40
1
 40
1
 40
1
 40
1
 10
219.628420
 20
229.981093
 30
0.0
 10
205.998394
 20
235.053632
 30
0.0
 10
190.992443
 20
238.510333
 30
0.0
 10
176.051011
 20
240.020727
 30
0.0
  0
SPLINE
  5
124
100
AcDbEntity
  8
Ebene_1
 62
7
100
AcDbSpline
 70
8
 71
3
 72
8
 73
4
 74
0
 40
0
 40
0
 40
0
 40
0
 40
1
 40
1
 40
1
 40
1
 10
176.051011
 20
240.020727
 30
0.0
 10
172.507940
 20
240.378731
 30
0.0
 10
168.451989
 20
240.640687
 30
0.0
 10
168.262023
 20
240.523365
 30
0.0
  0
SPLINE
  5
125
100
AcDbEntity
  8
Ebene_1
 62
7
100
AcDbSpline
 70
8
 71
3
 72
8
 73
4
 74
0
 40
0
 40
0
 40
0
 40
0
 40
1
 40
1
 40
1
 40
1
 10
168.262023
 20
240.523365
 30
0.0
 10
168.170942
 20
240.466928
 30
0.0
 10
164.105903
 20
235.558043
 30
0.0
 10
159.228713
 20
229.614690
 30
0.0
  0
SPLINE
  5
126
100
AcDbEntity
  8
Ebene_1
 62
7
100
AcDbSpline
 70
8
 71
3
 72
8
 73
4
 74
0
 40
0
 40
0
 40
0
 40
0
 40
1
 40
1
 40
1
 40
1
 10
159.228713
 20
229.614690
 30
0.0
 10
154.351582
 20
223.671281
 30
0.0
 10
150.306338
 20
218.747559
 30
0.0
 10
150.238873
 20
218.673411
 30
0.0
  0
SPLINE
  5
127
100
AcDbEntity
  8
Ebene_1
 62
7
100
AcDbSpline
 70
8
 71
3
 72
8
 73
4
 74
0
 40
0
 40
0
 40
0
 40
0
 40
1
 40
1
 40
1
 40
1
 10
150.238873
 20
218.673411
 30
0.0
 10
150.171628
 20
218.599163
 30
0.0
 10
146.037986
 20
223.507259
 30
0.0
 10
141.053439
 20
229.581117
 30
0.0
  0
LWPOLYLINE
  5
128
100
AcDbEntity
  8
Ebene_1
 62
7
100
AcDbPolyline
 90
3
 70
0
 10
229.186143
 20
224.518811
 30
0.0
 10
229.999881
 20
225.636744
 30
0.0
 10
229.368853
 20
225.958714
 30
0.0
  0
SPLINE
  5
129
100
AcDbEntity
  8
Ebene_1
 62
7
100
AcDbSpline
 70
8
 71
3
 72
8
 73
4
 74
0
 40
0
 40
0
 40
0
 40
0
 40
1
 40
1
 40
1
 40
1
 10
139.433834
 20
143.161071
 30
0.0
 10
144.615140
 20
114.239077
 30
0.0
 10
149.913623
 20
84.616295
 30
0.0
 10
150.035432
 20
83.973986
 30
0.0
  0
LWPOLYLINE
  5
12a
100
AcDbEntity
  8
Ebene_1
 62
7
100
AcDbPolyline
 90
2
 70
0
 10
141.053439
 20
229.581117
 30
0.0
 10
131.990506
 20
240.625213
 30
0.0
  0
SPLINE
  5
12b
100
AcDbEntity
  8
Ebene_1
 62
7
100
AcDbSpline
 70
8
 71
3
 72
8
 73
4
 74
0
 40
0
 40
0
 40
0
 40
0
 40
1
 40
1
 40
1
 40
1
 10
150.269526
 20
84.134996
 30
0.0
 10
151.964358
 20
93.763381
 30
0.0
 10
156.286658
 20
118.067794
 30
0.0
 10
160.755533
 20
143.161071
 30
0.0
  0
LWPOLYLINE
  5
12c
100
AcDbEntity
  8
Ebene_1
 62
7
100
AcDbPolyline
 90
3
 70
0
 10
150.035432
 20
83.973986
 30
0.0
 10
150.142122
 20
83.411056
 30
0.0
 10
150.269526
 20
84.134996
 30
0.0
  0
LWPOLYLINE
  5
12d
100
AcDbEntity
  8
Ebene_1
 62
7
100
AcDbPolyline
 90
2
 70
0
 10
160.755533
 20
143.161071
 30
0.0
 10
139.433834
 20
143.161071
 30
0.0
  0
SPLINE
  5
12e
100
AcDbEntity
  8
Ebene_1
 62
7
100
AcDbSpline
 70
8
 71
3
 72
8
 73
4
 74
0
 40
0
 40
0
 40
0
 40
0
 40
1
 40
1
 40
1
 40
1
 10
50.262207
 20
176.241027
 30
0.0
 10
50.262207
 20
174.381746
 30
0.0
 10
50.941774
 20
172.699080
 30
0.0
 10
52.239489
 20
171.366333
 30
0.0
  0
LWPOLYLINE
  5
12f
100
AcDbEntity
  8
Ebene_1
 62
7
100
AcDbPolyline
 90
2
 70
0
 10
50.262207
 20
177.092647
 30
0.0
 10
50.262207
 20
176.241027
 30
0.0
  0
SPLINE
  5
130
100
AcDbEntity
  8
Ebene_1
 62
7
100
AcDbSpline
 70
8
 71
3
 72
8
 73
4
 74
0
 40
0
 40
0
 40
0
 40
0
 40
1
 40
1
 40
1
 40
1
 10
52.249513
 20
171.356309
 30
0.0
 10
53.555622
 20
170.050199
 30
0.0
 10
55.242148
 20
169.369229
 30
0.0
 10
57.129093
 20
169.369229
 30
0.0
  0
LWPOLYLINE
  5
131
100
AcDbEntity
  8
Ebene_1
 62
7
100
AcDbPolyline
 90
3
 70
0
 10
52.239489
 20
171.366333
 30
0.0
 10
52.244501
 20
171.361321
 30
0.0
 10
52.249513
 20
171.356309
 30
0.0
  0
SPLINE
  5
132
100
AcDbEntity
  8
Ebene_1
 62
7
100
AcDbSpline
 70
8
 71
3
 72
8
 73
4
 74
0
 40
0
 40
0
 40
0
 40
0
 40
1
 40
1
 40
1
 40
1
 10
81.199154
 20
169.369229
 30
0.0
 10
83.030895
 20
169.369229
 30
0.0
 10
84.694842
 20
170.056339
 30
0.0
 10
86.024908
 20
171.351423
 30
0.0
  0
SPLINE
  5
133
100
AcDbEntity
  8
Ebene_1
 62
7
100
AcDbSpline
 70
8
 71
3
 72
8
 73
4
 74
0
 40
0
 40
0
 40
0
 40
0
 40
1
 40
1
 40
1
 40
1
 10
86.024908
 20
171.351423
 30
0.0
 10
87.364271
 20
172.655528
 30
0.0
 10
88.070726
 20
174.348594
 30
0.0
 10
88.070726
 20
176.240801
 30
0.0
  0
LWPOLYLINE
  5
134
100
AcDbEntity
  8
Ebene_1
 62
7
100
AcDbPolyline
 90
7
 70
0
 10
57.129093
 20
169.369229
 30
0.0
 10
65.302540
 20
169.369229
 30
0.0
 10
65.302540
 20
145.299194
 30
0.0
 10
66.154135
 20
145.299194
 30
0.0
 10
73.025707
 20
145.299194
 30
0.0
 10
73.025707
 20
169.369229
 30
0.0
 10
81.199154
 20
169.369229
 30
0.0
  0
LWPOLYLINE
  5
135
100
AcDbEntity
  8
Ebene_1
 62
7
100
AcDbPolyline
 90
3
 70
0
 10
88.070726
 20
176.240801
 30
0.0
 10
88.070726
 20
177.092421
 30
0.0
 10
50.262207
 20
177.092647
 30
0.0
  0
SPLINE
  5
136
100
AcDbEntity
  8
Ebene_1
 62
7
100
AcDbSpline
 70
8
 71
3
 72
8
 73
4
 74
0
 40
0
 40
0
 40
0
 40
0
 40
1
 40
1
 40
1
 40
1
 10
90.752558
 20
152.170966
 30
0.0
 10
90.752558
 20
150.311711
 30
0.0
 10
91.437036
 20
148.629019
 30
0.0
 10
92.734751
 20
147.296272
 30
0.0
  0
LWPOLYLINE
  5
137
100
AcDbEntity
  8
Ebene_1
 62
7
100
AcDbPolyline
 90
2
 70
0
 10
90.752558
 20
153.022586
 30
0.0
 10
90.752558
 20
152.170966
 30
0.0
  0
SPLINE
  5
138
100
AcDbEntity
  8
Ebene_1
 62
7
100
AcDbSpline
 70
8
 71
3
 72
8
 73
4
 74
0
 40
0
 40
0
 40
0
 40
0
 40
1
 40
1
 40
1
 40
1
 10
92.744775
 20
147.291260
 30
0.0
 10
94.050884
 20
145.985126
 30
0.0
 10
95.737410
 20
145.299294
 30
0.0
 10
97.624381
 20
145.299294
 30
0.0
  0
LWPOLYLINE
  5
139
100
AcDbEntity
  8
Ebene_1
 62
7
100
AcDbPolyline
 90
3
 70
0
 10
92.734751
 20
147.296272
 30
0.0
 10
92.739763
 20
147.291260
 30
0.0
 10
92.744775
 20
147.291260
 30
0.0
  0
SPLINE
  5
13a
100
AcDbEntity
  8
Ebene_1
 62
7
100
AcDbSpline
 70
8
 71
3
 72
8
 73
4
 74
0
 40
0
 40
0
 40
0
 40
0
 40
1
 40
1
 40
1
 40
1
 10
121.694441
 20
145.299294
 30
0.0
 10
123.526182
 20
145.299294
 30
0.0
 10
125.185218
 20
145.986379
 30
0.0
 10
126.515284
 20
147.281462
 30
0.0
  0
SPLINE
  5
13b
100
AcDbEntity
  8
Ebene_1
 62
7
100
AcDbSpline
 70
8
 71
3
 72
8
 73
4
 74
0
 40
0
 40
0
 40
0
 40
0
 40
1
 40
1
 40
1
 40
1
 10
126.515284
 20
147.281462
 30
0.0
 10
127.854647
 20
148.585567
 30
0.0
 10
128.561102
 20
150.278658
 30
0.0
 10
128.561102
 20
152.170841
 30
0.0
  0
LWPOLYLINE
  5
13c
100
AcDbEntity
  8
Ebene_1
 62
7
100
AcDbPolyline
 90
2
 70
0
 10
97.624381
 20
145.299294
 30
0.0
 10
121.694441
 20
145.299294
 30
0.0
  0
LWPOLYLINE
  5
13d
100
AcDbEntity
  8
Ebene_1
 62
7
100
AcDbPolyline
 90
3
 70
0
 10
128.561102
 20
152.170841
 30
0.0
 10
128.561102
 20
153.022461
 30
0.0
 10
90.752558
 20
153.022586
 30
0.0
  0
SPLINE
  5
13e
100
AcDbEntity
  8
Ebene_1
 62
7
100
AcDbSpline
 70
8
 71
3
 72
8
 73
4
 74
0
 40
0
 40
0
 40
0
 40
0
 40
1
 40
1
 40
1
 40
1
 10
90.752558
 20
164.206009
 30
0.0
 10
90.752558
 20
162.346729
 30
0.0
 10
91.437036
 20
160.664062
 30
0.0
 10
92.734751
 20
159.331315
 30
0.0
  0
LWPOLYLINE
  5
13f
100
AcDbEntity
  8
Ebene_1
 62
7
100
AcDbPolyline
 90
2
 70
0
 10
90.752558
 20
165.057604
 30
0.0
 10
90.752558
 20
164.206009
 30
0.0
  0
SPLINE
  5
140
100
AcDbEntity
  8
Ebene_1
 62
7
100
AcDbSpline
 70
8
 71
3
 72
8
 73
4
 74
0
 40
0
 40
0
 40
0
 40
0
 40
1
 40
1
 40
1
 40
1
 10
92.744775
 20
159.326303
 30
0.0
 10
94.050884
 20
158.020193
 30
0.0
 10
95.737410
 20
157.334337
 30
0.0
 10
97.624381
 20
157.334337
 30
0.0
  0
LWPOLYLINE
  5
141
100
AcDbEntity
  8
Ebene_1
 62
7
100
AcDbPolyline
 90
3
 70
0
 10
92.734751
 20
159.331315
 30
0.0
 10
92.739763
 20
159.326303
 30
0.0
 10
92.744775
 20
159.326303
 30
0.0
  0
SPLINE
  5
142
100
AcDbEntity
  8
Ebene_1
 62
7
100
AcDbSpline
 70
8
 71
3
 72
8
 73
4
 74
0
 40
0
 40
0
 40
0
 40
0
 40
1
 40
1
 40
1
 40
1
 10
121.694441
 20
157.334337
 30
0.0
 10
123.526182
 20
157.334337
 30
0.0
 10
125.185218
 20
158.021446
 30
0.0
 10
126.515284
 20
159.316530
 30
0.0
  0
SPLINE
  5
143
100
AcDbEntity
  8
Ebene_1
 62
7
100
AcDbSpline
 70
8
 71
3
 72
8
 73
4
 74
0
 40
0
 40
0
 40
0
 40
0
 40
1
 40
1
 40
1
 40
1
 10
126.515284
 20
159.316530
 30
0.0
 10
127.854647
 20
160.620635
 30
0.0
 10
128.561102
 20
162.313701
 30
0.0
 10
128.561102
 20
164.205909
 30
0.0
  0
LWPOLYLINE
  5
144
100
AcDbEntity
  8
Ebene_1
 62
7
100
AcDbPolyline
 90
2
 70
0
 10
97.624381
 20
157.334337
 30
0.0
 10
121.694441
 20
157.334337
 30
0.0
  0
LWPOLYLINE
  5
145
100
AcDbEntity
  8
Ebene_1
 62
7
100
AcDbPolyline
 90
3
 70
0
 10
128.561102
 20
164.205909
 30
0.0
 10
128.561102
 20
165.057504
 30
0.0
 10
90.752558
 20
165.057604
 30
0.0
  0
SPLINE
  5
146
100
AcDbEntity
  8
Ebene_1
 62
7
100
AcDbSpline
 70
8
 71
3
 72
8
 73
4
 74
0
 40
0
 40
0
 40
0
 40
0
 40
1
 40
1
 40
1
 40
1
 10
90.752558
 20
176.241027
 30
0.0
 10
90.752558
 20
174.381746
 30
0.0
 10
91.437036
 20
172.699080
 30
0.0
 10
92.734751
 20
171.366333
 30
0.0
  0
LWPOLYLINE
  5
147
100
AcDbEntity
  8
Ebene_1
 62
7
100
AcDbPolyline
 90
2
 70
0
 10
90.752558
 20
177.092647
 30
0.0
 10
90.752558
 20
176.241027
 30
0.0
  0
SPLINE
  5
148
100
AcDbEntity
  8
Ebene_1
 62
7
100
AcDbSpline
 70
8
 71
3
 72
8
 73
4
 74
0
 40
0
 40
0
 40
0
 40
0
 40
1
 40
1
 40
1
 40
1
 10
92.744775
 20
171.356309
 30
0.0
 10
94.050884
 20
170.050199
 30
0.0
 10
95.737410
 20
169.369229
 30
0.0
 10
97.624381
 20
169.369229
 30
0.0
  0
LWPOLYLINE
  5
149
100
AcDbEntity
  8
Ebene_1
 62
7
100
AcDbPolyline
 90
3
 70
0
 10
92.734751
 20
171.366333
 30
0.0
 10
92.739763
 20
171.361321
 30
0.0
 10
92.744775
 20
171.356309
 30
0.0
  0
SPLINE
  5
14a
100
AcDbEntity
  8
Ebene_1
 62
7
100
AcDbSpline
 70
8
 71
3
 72
8
 73
4
 74
0
 40
0
 40
0
 40
0
 40
0
 40
1
 40
1
 40
1
 40
1
 10
121.694441
 20
169.369229
 30
0.0
 10
123.526182
 20
169.369229
 30
0.0
 10
125.185218
 20
170.056339
 30
0.0
 10
126.515284
 20
171.351423
 30
0.0
  0
SPLINE
  5
14b
100
AcDbEntity
  8
Ebene_1
 62
7
100
AcDbSpline
 70
8
 71
3
 72
8
 73
4
 74
0
 40
0
 40
0
 40
0
 40
0
 40
1
 40
1
 40
1
 40
1
 10
126.515284
 20
171.351423
 30
0.0
 10
127.854647
 20
172.655528
 30
0.0
 10
128.561102
 20
174.348594
 30
0.0
 10
128.561102
 20
176.240801
 30
0.0
  0
LWPOLYLINE
  5
14c
100
AcDbEntity
  8
Ebene_1
 62
7
100
AcDbPolyline
 90
2
 70
0
 10
97.624381
 20
169.369229
 30
0.0
 10
121.694441
 20
169.369229
 30
0.0
  0
LWPOLYLINE
  5
14d
100
AcDbEntity
  8
Ebene_1
 62
7
100
AcDbPolyline
 90
3
 70
0
 10
128.561102
 20
176.240801
 30
0.0
 10
128.561102
 20
177.092421
 30
0.0
 10
90.752558
 20
177.092647
 30
0.0
  0
SPLINE
  5
14e
100
AcDbEntity
  8
Ebene_1
 62
7
100
AcDbSpline
 70
8
 71
3
 72
8
 73
4
 74
0
 40
0
 40
0
 40
0
 40
0
 40
1
 40
1
 40
1
 40
1
 10
138.114481
 20
153.022586
 30
0.0
 10
136.249838
 20
153.022586
 30
0.0
 10
134.565843
 20
152.317510
 30
0.0
 10
133.234875
 20
150.986567
 30
0.0
  0
SPLINE
  5
14f
100
AcDbEntity
  8
Ebene_1
 62
7
100
AcDbSpline
 70
8
 71
3
 72
8
 73
4
 74
0
 40
0
 40
0
 40
0
 40
0
 40
1
 40
1
 40
1
 40
1
 10
133.234875
 20
150.986567
 30
0.0
 10
131.931472
 20
149.683164
 30
0.0
 10
131.247820
 20
148.010295
 30
0.0
 10
131.247820
 20
146.151014
 30
0.0
  0
LWPOLYLINE
  5
150
100
AcDbEntity
  8
Ebene_1
 62
7
100
AcDbPolyline
 90
5
 70
0
 10
131.247820
 20
177.092647
 30
0.0
 10
131.247820
 20
157.334437
 30
0.0
 10
161.332946
 20
157.334437
 30
0.0
 10
161.332946
 20
153.022586
 30
0.0
 10
138.114481
 20
153.022586
 30
0.0
  0
SPLINE
  5
151
100
AcDbEntity
  8
Ebene_1
 62
7
100
AcDbSpline
 70
8
 71
3
 72
8
 73
4
 74
0
 40
0
 40
0
 40
0
 40
0
 40
1
 40
1
 40
1
 40
1
 10
162.184541
 20
169.369455
 30
0.0
 10
164.016282
 20
169.369455
 30
0.0
 10
165.680230
 20
170.056564
 30
0.0
 10
167.010296
 20
171.351648
 30
0.0
  0
SPLINE
  5
152
100
AcDbEntity
  8
Ebene_1
 62
7
100
AcDbSpline
 70
8
 71
3
 72
8
 73
4
 74
0
 40
0
 40
0
 40
0
 40
0
 40
1
 40
1
 40
1
 40
1
 10
167.010296
 20
171.351648
 30
0.0
 10
168.349658
 20
172.655753
 30
0.0
 10
169.051202
 20
174.348819
 30
0.0
 10
169.051202
 20
176.241027
 30
0.0
  0
LWPOLYLINE
  5
153
100
AcDbEntity
  8
Ebene_1
 62
7
100
AcDbPolyline
 90
8
 70
0
 10
131.247820
 20
146.151014
 30
0.0
 10
131.247820
 20
145.299419
 30
0.0
 10
132.099415
 20
145.299419
 30
0.0
 10
169.051202
 20
145.299419
 30
0.0
 10
169.051202
 20
165.057604
 30
0.0
 10
138.966076
 20
165.057604
 30
0.0
 10
138.966076
 20
169.369455
 30
0.0
 10
162.184541
 20
169.369455
 30
0.0
  0
LWPOLYLINE
  5
154
100
AcDbEntity
  8
Ebene_1
 62
7
100
AcDbPolyline
 90
3
 70
0
 10
169.051202
 20
176.241027
 30
0.0
 10
169.051202
 20
177.092647
 30
0.0
 10
131.247820
 20
177.092647
 30
0.0
  0
SPLINE
  5
155
100
AcDbEntity
  8
Ebene_1
 62
7
100
AcDbSpline
 70
8
 71
3
 72
8
 73
4
 74
0
 40
0
 40
0
 40
0
 40
0
 40
1
 40
1
 40
1
 40
1
 10
202.674892
 20
145.299419
 30
0.0
 10
204.506658
 20
145.299419
 30
0.0
 10
206.170581
 20
145.986504
 30
0.0
 10
207.500647
 20
147.281588
 30
0.0
  0
SPLINE
  5
156
100
AcDbEntity
  8
Ebene_1
 62
7
100
AcDbSpline
 70
8
 71
3
 72
8
 73
4
 74
0
 40
0
 40
0
 40
0
 40
0
 40
1
 40
1
 40
1
 40
1
 10
207.500647
 20
147.281588
 30
0.0
 10
208.839984
 20
148.585693
 30
0.0
 10
209.546464
 20
150.278784
 30
0.0
 10
209.546464
 20
152.170966
 30
0.0
  0
LWPOLYLINE
  5
157
100
AcDbEntity
  8
Ebene_1
 62
7
100
AcDbPolyline
 90
4
 70
0
 10
171.738171
 20
177.092647
 30
0.0
 10
171.738171
 20
145.299419
 30
0.0
 10
172.589766
 20
145.299419
 30
0.0
 10
202.674892
 20
145.299419
 30
0.0
  0
LWPOLYLINE
  5
158
100
AcDbEntity
  8
Ebene_1
 62
7
100
AcDbPolyline
 90
5
 70
0
 10
209.546464
 20
152.170966
 30
0.0
 10
209.546464
 20
153.022586
 30
0.0
 10
179.461338
 20
153.022586
 30
0.0
 10
179.461338
 20
177.092647
 30
0.0
 10
171.738171
 20
177.092647
 30
0.0
  0
LWPOLYLINE
  5
159
100
AcDbEntity
  8
Ebene_1
 62
7
100
AcDbPolyline
 90
9
 70
1
 10
212.233433
 20
165.057604
 30
0.0
 10
212.233433
 20
145.299419
 30
0.0
 10
213.085028
 20
145.299419
 30
0.0
 10
219.951689
 20
145.299419
 30
0.0
 10
219.951689
 20
157.334437
 30
0.0
 10
242.318559
 20
157.334437
 30
0.0
 10
242.318559
 20
145.299419
 30
0.0
 10
250.036815
 20
145.299419
 30
0.0
 10
250.036815
 20
165.057604
 30
0.0
  0
SPLINE
  5
15a
100
AcDbEntity
  8
Ebene_1
 62
7
100
AcDbSpline
 70
8
 71
3
 72
8
 73
4
 74
0
 40
0
 40
0
 40
0
 40
0
 40
1
 40
1
 40
1
 40
1
 10
212.233433
 20
176.241027
 30
0.0
 10
212.233433
 20
174.381746
 30
0.0
 10
212.913000
 20
172.699080
 30
0.0
 10
214.210715
 20
171.366333
 30
0.0
  0
LWPOLYLINE
  5
15b
100
AcDbEntity
  8
Ebene_1
 62
7
100
AcDbPolyline
 90
2
 70
0
 10
212.233433
 20
177.092647
 30
0.0
 10
212.233433
 20
176.241027
 30
0.0
  0
SPLINE
  5
15c
100
AcDbEntity
  8
Ebene_1
 62
7
100
AcDbSpline
 70
8
 71
3
 72
8
 73
4
 74
0
 40
0
 40
0
 40
0
 40
0
 40
1
 40
1
 40
1
 40
1
 10
214.220739
 20
171.356309
 30
0.0
 10
215.526848
 20
170.050199
 30
0.0
 10
217.213399
 20
169.369229
 30
0.0
 10
219.100345
 20
169.369229
 30
0.0
  0
LWPOLYLINE
  5
15d
100
AcDbEntity
  8
Ebene_1
 62
7
100
AcDbPolyline
 90
3
 70
0
 10
214.210715
 20
171.366333
 30
0.0
 10
214.215727
 20
171.361321
 30
0.0
 10
214.220739
 20
171.356309
 30
0.0
  0
SPLINE
  5
15e
100
AcDbEntity
  8
Ebene_1
 62
7
100
AcDbSpline
 70
8
 71
3
 72
8
 73
4
 74
0
 40
0
 40
0
 40
0
 40
0
 40
1
 40
1
 40
1
 40
1
 10
243.170405
 20
169.369229
 30
0.0
 10
245.002171
 20
169.369229
 30
0.0
 10
246.666069
 20
170.056339
 30
0.0
 10
247.996160
 20
171.351423
 30
0.0
  0
SPLINE
  5
15f
100
AcDbEntity
  8
Ebene_1
 62
7
100
AcDbSpline
 70
8
 71
3
 72
8
 73
4
 74
0
 40
0
 40
0
 40
0
 40
0
 40
1
 40
1
 40
1
 40
1
 10
247.996160
 20
171.351423
 30
0.0
 10
249.335522
 20
172.655528
 30
0.0
 10
250.037065
 20
174.348594
 30
0.0
 10
250.037065
 20
176.240801
 30
0.0
  0
LWPOLYLINE
  5
160
100
AcDbEntity
  8
Ebene_1
 62
7
100
AcDbPolyline
 90
2
 70
0
 10
219.100345
 20
169.369229
 30
0.0
 10
243.170405
 20
169.369229
 30
0.0
  0
LWPOLYLINE
  5
161
100
AcDbEntity
  8
Ebene_1
 62
7
100
AcDbPolyline
 90
3
 70
0
 10
250.037065
 20
176.240801
 30
0.0
 10
250.037065
 20
177.092421
 30
0.0
 10
212.233433
 20
177.092647
 30
0.0
  0
SPLINE
  5
162
100
AcDbEntity
  8
Ebene_1
 62
7
100
AcDbSpline
 70
8
 71
3
 72
8
 73
4
 74
0
 40
0
 40
0
 40
0
 40
0
 40
1
 40
1
 40
1
 40
1
 10
207.173025
 20
66.429343
 30
0.0
 10
207.173025
 20
65.204713
 30
0.0
 10
207.587837
 20
64.101978
 30
0.0
 10
208.379191
 20
63.224117
 30
0.0
  0
LWPOLYLINE
  5
163
100
AcDbEntity
  8
Ebene_1
 62
7
100
AcDbPolyline
 90
2
 70
0
 10
207.173025
 20
74.951386
 30
0.0
 10
207.173025
 20
66.429343
 30
0.0
  0
SPLINE
  5
164
100
AcDbEntity
  8
Ebene_1
 62
7
100
AcDbSpline
 70
8
 71
3
 72
8
 73
4
 74
0
 40
0
 40
0
 40
0
 40
0
 40
1
 40
1
 40
1
 40
1
 10
208.382921
 20
63.220192
 30
0.0
 10
209.178943
 20
62.360388
 30
0.0
 10
210.202996
 20
61.911408
 30
0.0
 10
211.354073
 20
61.911408
 30
0.0
  0
LWPOLYLINE
  5
165
100
AcDbEntity
  8
Ebene_1
 62
7
100
AcDbPolyline
 90
3
 70
0
 10
208.379191
 20
63.224117
 30
0.0
 10
208.381056
 20
63.222154
 30
0.0
 10
208.382921
 20
63.220192
 30
0.0
  0
SPLINE
  5
166
100
AcDbEntity
  8
Ebene_1
 62
7
100
AcDbSpline
 70
8
 71
3
 72
8
 73
4
 74
0
 40
0
 40
0
 40
0
 40
0
 40
1
 40
1
 40
1
 40
1
 10
214.590802
 20
74.441472
 30
0.0
 10
214.590802
 20
73.216831
 30
0.0
 10
215.005617
 20
72.116099
 30
0.0
 10
215.796968
 20
71.238238
 30
0.0
  0
LWPOLYLINE
  5
167
100
AcDbEntity
  8
Ebene_1
 62
7
100
AcDbPolyline
 90
5
 70
0
 10
211.354073
 20
61.911408
 30
0.0
 10
230.372395
 20
61.911408
 30
0.0
 10
230.372395
 20
74.951435
 30
0.0
 10
214.590802
 20
74.951435
 30
0.0
 10
214.590802
 20
74.441472
 30
0.0
  0
SPLINE
  5
168
100
AcDbEntity
  8
Ebene_1
 62
7
100
AcDbSpline
 70
8
 71
3
 72
8
 73
4
 74
0
 40
0
 40
0
 40
0
 40
0
 40
1
 40
1
 40
1
 40
1
 10
215.802562
 20
71.232350
 30
0.0
 10
216.598583
 20
70.372555
 30
0.0
 10
217.622636
 20
69.925558
 30
0.0
 10
218.773714
 20
69.925558
 30
0.0
  0
LWPOLYLINE
  5
169
100
AcDbEntity
  8
Ebene_1
 62
7
100
AcDbPolyline
 90
3
 70
0
 10
215.796968
 20
71.238238
 30
0.0
 10
215.800697
 20
71.234312
 30
0.0
 10
215.802562
 20
71.232350
 30
0.0
  0
SPLINE
  5
16a
100
AcDbEntity
  8
Ebene_1
 62
7
100
AcDbSpline
 70
8
 71
3
 72
8
 73
4
 74
0
 40
0
 40
0
 40
0
 40
0
 40
1
 40
1
 40
1
 40
1
 10
213.209490
 20
66.939453
 30
0.0
 10
212.798855
 20
66.939453
 30
0.0
 10
212.497840
 20
67.072018
 30
0.0
 10
212.215418
 20
67.355783
 30
0.0
  0
SPLINE
  5
16b
100
AcDbEntity
  8
Ebene_1
 62
7
100
AcDbSpline
 70
8
 71
3
 72
8
 73
4
 74
0
 40
0
 40
0
 40
0
 40
0
 40
1
 40
1
 40
1
 40
1
 10
212.215418
 20
67.355783
 30
0.0
 10
211.950568
 20
67.661845
 30
0.0
 10
211.826272
 20
67.986259
 30
0.0
 10
211.826272
 20
68.431500
 30
0.0
  0
LWPOLYLINE
  5
16c
100
AcDbEntity
  8
Ebene_1
 62
7
100
AcDbPolyline
 90
4
 70
0
 10
218.773714
 20
69.925558
 30
0.0
 10
225.719311
 20
69.925558
 30
0.0
 10
225.719311
 20
66.939453
 30
0.0
 10
213.209490
 20
66.939453
 30
0.0
  0
LWPOLYLINE
  5
16d
100
AcDbEntity
  8
Ebene_1
 62
7
100
AcDbPolyline
 90
3
 70
0
 10
211.826272
 20
68.431500
 30
0.0
 10
211.826272
 20
74.951523
 30
0.0
 10
207.173025
 20
74.951386
 30
0.0
  0
SPLINE
  5
16e
100
AcDbEntity
  8
Ebene_1
 62
7
100
AcDbSpline
 70
8
 71
3
 72
8
 73
4
 74
0
 40
0
 40
0
 40
0
 40
0
 40
1
 40
1
 40
1
 40
1
 10
88.474494
 20
76.445424
 30
0.0
 10
88.474494
 20
76.004708
 30
0.0
 10
88.348799
 20
75.682796
 30
0.0
 10
88.065073
 20
75.373692
 30
0.0
  0
SPLINE
  5
16f
100
AcDbEntity
  8
Ebene_1
 62
7
100
AcDbSpline
 70
8
 71
3
 72
8
 73
4
 74
0
 40
0
 40
0
 40
0
 40
0
 40
1
 40
1
 40
1
 40
1
 10
88.065073
 20
75.373692
 30
0.0
 10
87.778000
 20
75.082449
 30
0.0
 10
87.483676
 20
74.951386
 30
0.0
 10
87.093127
 20
74.951386
 30
0.0
  0
LWPOLYLINE
  5
170
100
AcDbEntity
  8
Ebene_1
 62
7
100
AcDbPolyline
 90
4
 70
0
 10
69.928313
 20
82.965438
 30
0.0
 10
69.928313
 20
77.937471
 30
0.0
 10
88.474494
 20
77.937471
 30
0.0
 10
88.474494
 20
76.445424
 30
0.0
  0
SPLINE
  5
171
100
AcDbEntity
  8
Ebene_1
 62
7
100
AcDbSpline
 70
8
 71
3
 72
8
 73
4
 74
0
 40
0
 40
0
 40
0
 40
0
 40
1
 40
1
 40
1
 40
1
 10
88.946634
 20
69.925421
 30
0.0
 10
90.063225
 20
69.925421
 30
0.0
 10
91.073337
 20
70.375038
 30
0.0
 10
91.884592
 20
71.228218
 30
0.0
  0
SPLINE
  5
172
100
AcDbEntity
  8
Ebene_1
 62
7
100
AcDbSpline
 70
8
 71
3
 72
8
 73
4
 74
0
 40
0
 40
0
 40
0
 40
0
 40
1
 40
1
 40
1
 40
1
 10
91.884592
 20
71.228218
 30
0.0
 10
92.700970
 20
72.086815
 30
0.0
 10
93.129489
 20
73.194956
 30
0.0
 10
93.129489
 20
74.441413
 30
0.0
  0
LWPOLYLINE
  5
173
100
AcDbEntity
  8
Ebene_1
 62
7
100
AcDbPolyline
 90
7
 70
0
 10
87.093127
 20
74.951386
 30
0.0
 10
69.928313
 20
74.951386
 30
0.0
 10
69.928313
 20
61.911349
 30
0.0
 10
70.400454
 20
61.911349
 30
0.0
 10
74.581463
 20
61.911349
 30
0.0
 10
74.581463
 20
69.925421
 30
0.0
 10
88.946634
 20
69.925421
 30
0.0
  0
LWPOLYLINE
  5
174
100
AcDbEntity
  8
Ebene_1
 62
7
100
AcDbPolyline
 90
3
 70
0
 10
93.129489
 20
74.441413
 30
0.0
 10
93.129489
 20
82.965438
 30
0.0
 10
69.928313
 20
82.965438
 30
0.0
  0
LWPOLYLINE
  5
175
100
AcDbEntity
  8
Ebene_1
 62
7
100
AcDbPolyline
 90
9
 70
1
 10
95.894077
 20
74.951386
 30
0.0
 10
95.894077
 20
61.911349
 30
0.0
 10
96.366217
 20
61.911349
 30
0.0
 10
100.547227
 20
61.911349
 30
0.0
 10
100.547227
 20
69.925421
 30
0.0
 10
114.440267
 20
69.925421
 30
0.0
 10
114.440267
 20
61.911349
 30
0.0
 10
119.093407
 20
61.911349
 30
0.0
 10
119.093407
 20
74.951386
 30
0.0
  0
SPLINE
  5
176
100
AcDbEntity
  8
Ebene_1
 62
7
100
AcDbSpline
 70
8
 71
3
 72
8
 73
4
 74
0
 40
0
 40
0
 40
0
 40
0
 40
1
 40
1
 40
1
 40
1
 10
95.894077
 20
82.455475
 30
0.0
 10
95.894077
 20
81.230834
 30
0.0
 10
96.308885
 20
80.128110
 30
0.0
 10
97.100248
 20
79.250239
 30
0.0
  0
LWPOLYLINE
  5
177
100
AcDbEntity
  8
Ebene_1
 62
7
100
AcDbPolyline
 90
2
 70
0
 10
95.894077
 20
82.965438
 30
0.0
 10
95.894077
 20
82.455475
 30
0.0
  0
SPLINE
  5
178
100
AcDbEntity
  8
Ebene_1
 62
7
100
AcDbSpline
 70
8
 71
3
 72
8
 73
4
 74
0
 40
0
 40
0
 40
0
 40
0
 40
1
 40
1
 40
1
 40
1
 10
97.104173
 20
79.246314
 30
0.0
 10
97.900198
 20
78.386519
 30
0.0
 10
98.924255
 20
77.937520
 30
0.0
 10
100.075331
 20
77.937520
 30
0.0
  0
LWPOLYLINE
  5
179
100
AcDbEntity
  8
Ebene_1
 62
7
100
AcDbPolyline
 90
3
 70
0
 10
97.100248
 20
79.250239
 30
0.0
 10
97.102211
 20
79.248276
 30
0.0
 10
97.104173
 20
79.246314
 30
0.0
  0
SPLINE
  5
17a
100
AcDbEntity
  8
Ebene_1
 62
7
100
AcDbSpline
 70
8
 71
3
 72
8
 73
4
 74
0
 40
0
 40
0
 40
0
 40
0
 40
1
 40
1
 40
1
 40
1
 10
114.912643
 20
77.937520
 30
0.0
 10
116.029234
 20
77.937520
 30
0.0
 10
117.039346
 20
78.387138
 30
0.0
 10
117.850601
 20
79.240337
 30
0.0
  0
SPLINE
  5
17b
100
AcDbEntity
  8
Ebene_1
 62
7
100
AcDbSpline
 70
8
 71
3
 72
8
 73
4
 74
0
 40
0
 40
0
 40
0
 40
0
 40
1
 40
1
 40
1
 40
1
 10
117.850601
 20
79.240337
 30
0.0
 10
118.666989
 20
80.098924
 30
0.0
 10
119.093642
 20
81.209068
 30
0.0
 10
119.093642
 20
82.455514
 30
0.0
  0
LWPOLYLINE
  5
17c
100
AcDbEntity
  8
Ebene_1
 62
7
100
AcDbPolyline
 90
2
 70
0
 10
100.075331
 20
77.937520
 30
0.0
 10
114.912643
 20
77.937520
 30
0.0
  0
LWPOLYLINE
  5
17d
100
AcDbEntity
  8
Ebene_1
 62
7
100
AcDbPolyline
 90
3
 70
0
 10
119.093642
 20
82.455514
 30
0.0
 10
119.093642
 20
82.965487
 30
0.0
 10
95.894077
 20
82.965438
 30
0.0
  0
SPLINE
  5
17e
100
AcDbEntity
  8
Ebene_1
 62
7
100
AcDbSpline
 70
8
 71
3
 72
8
 73
4
 74
0
 40
0
 40
0
 40
0
 40
0
 40
1
 40
1
 40
1
 40
1
 10
121.858005
 20
82.455475
 30
0.0
 10
121.858005
 20
81.230834
 30
0.0
 10
122.272813
 20
80.128110
 30
0.0
 10
123.064166
 20
79.250239
 30
0.0
  0
LWPOLYLINE
  5
17f
100
AcDbEntity
  8
Ebene_1
 62
7
100
AcDbPolyline
 90
2
 70
0
 10
121.858005
 20
82.965438
 30
0.0
 10
121.858005
 20
82.455475
 30
0.0
  0
SPLINE
  5
180
100
AcDbEntity
  8
Ebene_1
 62
7
100
AcDbSpline
 70
8
 71
3
 72
8
 73
4
 74
0
 40
0
 40
0
 40
0
 40
0
 40
1
 40
1
 40
1
 40
1
 10
123.070054
 20
79.246314
 30
0.0
 10
123.866069
 20
78.386519
 30
0.0
 10
124.890126
 20
77.937530
 30
0.0
 10
126.041203
 20
77.937520
 30
0.0
  0
LWPOLYLINE
  5
181
100
AcDbEntity
  8
Ebene_1
 62
7
100
AcDbPolyline
 90
3
 70
0
 10
123.064166
 20
79.250239
 30
0.0
 10
123.068092
 20
79.248276
 30
0.0
 10
123.070054
 20
79.246314
 30
0.0
  0
SPLINE
  5
182
100
AcDbEntity
  8
Ebene_1
 62
7
100
AcDbSpline
 70
8
 71
3
 72
8
 73
4
 74
0
 40
0
 40
0
 40
0
 40
0
 40
1
 40
1
 40
1
 40
1
 10
140.406393
 20
76.445464
 30
0.0
 10
140.406393
 20
76.004757
 30
0.0
 10
140.278844
 20
75.682845
 30
0.0
 10
139.995108
 20
75.373741
 30
0.0
  0
SPLINE
  5
183
100
AcDbEntity
  8
Ebene_1
 62
7
100
AcDbSpline
 70
8
 71
3
 72
8
 73
4
 74
0
 40
0
 40
0
 40
0
 40
0
 40
1
 40
1
 40
1
 40
1
 10
139.995108
 20
75.373741
 30
0.0
 10
139.708035
 20
75.082498
 30
0.0
 10
139.413721
 20
74.951425
 30
0.0
 10
139.023162
 20
74.951425
 30
0.0
  0
LWPOLYLINE
  5
184
100
AcDbEntity
  8
Ebene_1
 62
7
100
AcDbPolyline
 90
3
 70
0
 10
126.041203
 20
77.937520
 30
0.0
 10
140.406393
 20
77.937520
 30
0.0
 10
140.406393
 20
76.445464
 30
0.0
  0
SPLINE
  5
185
100
AcDbEntity
  8
Ebene_1
 62
7
100
AcDbSpline
 70
8
 71
3
 72
8
 73
4
 74
0
 40
0
 40
0
 40
0
 40
0
 40
1
 40
1
 40
1
 40
1
 10
140.817580
 20
69.929385
 30
0.0
 10
141.997725
 20
69.764161
 30
0.0
 10
143.022146
 20
70.394843
 30
0.0
 10
143.814558
 20
71.228208
 30
0.0
  0
SPLINE
  5
186
100
AcDbEntity
  8
Ebene_1
 62
7
100
AcDbSpline
 70
8
 71
3
 72
8
 73
4
 74
0
 40
0
 40
0
 40
0
 40
0
 40
1
 40
1
 40
1
 40
1
 10
143.814558
 20
71.228208
 30
0.0
 10
144.630946
 20
72.086805
 30
0.0
 10
145.059455
 20
73.194947
 30
0.0
 10
145.059455
 20
74.441403
 30
0.0
  0
LWPOLYLINE
  5
187
100
AcDbEntity
  8
Ebene_1
 62
7
100
AcDbPolyline
 90
12
 70
0
 10
139.023162
 20
74.951425
 30
0.0
 10
121.858358
 20
74.951425
 30
0.0
 10
121.858358
 20
61.911398
 30
0.0
 10
122.330499
 20
61.911398
 30
0.0
 10
126.513343
 20
61.911398
 30
0.0
 10
126.513343
 20
69.925460
 30
0.0
 10
131.408089
 20
69.925460
 30
0.0
 10
138.827672
 20
61.911398
 30
0.0
 10
145.727164
 20
61.911398
 30
0.0
 10
138.307581
 20
69.925460
 30
0.0
 10
140.878524
 20
69.925460
 30
0.0
 10
140.817580
 20
69.929385
 30
0.0
  0
LWPOLYLINE
  5
188
100
AcDbEntity
  8
Ebene_1
 62
7
100
AcDbPolyline
 90
3
 70
0
 10
145.059455
 20
74.441403
 30
0.0
 10
145.059455
 20
82.965428
 30
0.0
 10
121.858005
 20
82.965438
 30
0.0
  0
LWPOLYLINE
  5
189
100
AcDbEntity
  8
Ebene_1
 62
7
100
AcDbPolyline
 90
9
 70
1
 10
164.793082
 20
82.965438
 30
0.0
 10
155.047841
 20
72.439394
 30
0.0
 10
164.793082
 20
61.911349
 30
0.0
 10
164.988572
 20
61.911349
 30
0.0
 10
171.692574
 20
61.911349
 30
0.0
 10
161.943654
 20
72.441387
 30
0.0
 10
163.302890
 20
73.931450
 30
0.0
 10
163.328700
 20
73.931450
 30
0.0
 10
171.692555
 20
82.965438
 30
0.0
  0
LWPOLYLINE
  5
18a
100
AcDbEntity
  8
Ebene_1
 62
7
100
AcDbPolyline
 90
5
 70
1
 10
147.823758
 20
82.965438
 30
0.0
 10
147.823758
 20
61.911349
 30
0.0
 10
148.295899
 20
61.911349
 30
0.0
 10
152.476908
 20
61.911349
 30
0.0
 10
152.476908
 20
82.965438
 30
0.0
  0
LWPOLYLINE
  5
18b
100
AcDbEntity
  8
Ebene_1
 62
7
100
AcDbPolyline
 90
5
 70
1
 10
173.789522
 20
82.965438
 30
0.0
 10
173.789522
 20
61.911349
 30
0.0
 10
174.261662
 20
61.911349
 30
0.0
 10
178.442662
 20
61.911349
 30
0.0
 10
178.442662
 20
82.965438
 30
0.0
  0
LWPOLYLINE
  5
18c
100
AcDbEntity
  8
Ebene_1
 62
7
100
AcDbPolyline
 90
12
 70
1
 10
180.539630
 20
82.965438
 30
0.0
 10
184.916130
 20
78.236290
 30
0.0
 10
184.916130
 20
61.911349
 30
0.0
 10
185.388268
 20
61.911349
 30
0.0
 10
189.571118
 20
61.911349
 30
0.0
 10
189.571118
 20
73.210325
 30
0.0
 10
200.030089
 20
61.911349
 30
0.0
 10
204.408434
 20
61.911349
 30
0.0
 10
204.408434
 20
82.965438
 30
0.0
 10
199.753445
 20
82.965438
 30
0.0
 10
199.753445
 20
69.662461
 30
0.0
 10
187.439118
 20
82.965438
 30
0.0
  0
SPLINE
  5
18d
100
AcDbEntity
  8
Ebene_1
 62
7
100
AcDbSpline
 70
8
 71
3
 72
8
 73
4
 74
0
 40
0
 40
0
 40
0
 40
0
 40
1
 40
1
 40
1
 40
1
 10
226.191348
 20
77.937471
 30
0.0
 10
227.307934
 20
77.937471
 30
0.0
 10
228.318046
 20
78.387108
 30
0.0
 10
229.129302
 20
79.240288
 30
0.0
  0
SPLINE
  5
18e
100
AcDbEntity
  8
Ebene_1
 62
7
100
AcDbSpline
 70
8
 71
3
 72
8
 73
4
 74
0
 40
0
 40
0
 40
0
 40
0
 40
1
 40
1
 40
1
 40
1
 10
229.129302
 20
79.240288
 30
0.0
 10
229.945689
 20
80.098885
 30
0.0
 10
230.372354
 20
81.209018
 30
0.0
 10
230.372354
 20
82.455475
 30
0.0
  0
LWPOLYLINE
  5
18f
100
AcDbEntity
  8
Ebene_1
 62
7
100
AcDbPolyline
 90
4
 70
0
 10
207.173025
 20
82.965438
 30
0.0
 10
207.173025
 20
77.937471
 30
0.0
 10
207.645164
 20
77.937471
 30
0.0
 10
226.191348
 20
77.937471
 30
0.0
  0
LWPOLYLINE
  5
190
100
AcDbEntity
  8
Ebene_1
 62
7
100
AcDbPolyline
 90
3
 70
0
 10
230.372354
 20
82.455475
 30
0.0
 10
230.372354
 20
82.965438
 30
0.0
 10
207.173025
 20
82.965438
 30
0.0
  0
LWPOLYLINE
  5
191
100
AcDbEntity
  8
Ebene_1
 62
7
100
AcDbPolyline
 90
9
 70
1
 10
99.602946
 20
45.976868
 30
0.0
 10
99.602946
 20
32.936831
 30
0.0
 10
100.075086
 20
32.936831
 30
0.0
 10
122.802276
 20
32.936831
 30
0.0
 10
122.802276
 20
45.976868
 30
0.0
 10
118.149126
 20
45.976868
 30
0.0
 10
118.149126
 20
37.964798
 30
0.0
 10
104.256086
 20
37.964798
 30
0.0
 10
104.256086
 20
45.976868
 30
0.0
  0
SPLINE
  5
192
100
AcDbEntity
  8
Ebene_1
 62
7
100
AcDbSpline
 70
8
 71
3
 72
8
 73
4
 74
0
 40
0
 40
0
 40
0
 40
0
 40
1
 40
1
 40
1
 40
1
 10
99.602946
 20
53.478965
 30
0.0
 10
99.602946
 20
52.254324
 30
0.0
 10
100.017764
 20
51.153582
 30
0.0
 10
100.809107
 20
50.275731
 30
0.0
  0
LWPOLYLINE
  5
193
100
AcDbEntity
  8
Ebene_1
 62
7
100
AcDbPolyline
 90
2
 70
0
 10
99.602946
 20
53.988928
 30
0.0
 10
99.602946
 20
53.478965
 30
0.0
  0
SPLINE
  5
194
100
AcDbEntity
  8
Ebene_1
 62
7
100
AcDbSpline
 70
8
 71
3
 72
8
 73
4
 74
0
 40
0
 40
0
 40
0
 40
0
 40
1
 40
1
 40
1
 40
1
 10
100.813033
 20
50.271805
 30
0.0
 10
101.609057
 20
49.412011
 30
0.0
 10
102.633114
 20
48.963021
 30
0.0
 10
103.784181
 20
48.963021
 30
0.0
  0
LWPOLYLINE
  5
195
100
AcDbEntity
  8
Ebene_1
 62
7
100
AcDbPolyline
 90
3
 70
0
 10
100.809107
 20
50.275731
 30
0.0
 10
100.811070
 20
50.273768
 30
0.0
 10
100.813033
 20
50.271805
 30
0.0
  0
SPLINE
  5
196
100
AcDbEntity
  8
Ebene_1
 62
7
100
AcDbSpline
 70
8
 71
3
 72
8
 73
4
 74
0
 40
0
 40
0
 40
0
 40
0
 40
1
 40
1
 40
1
 40
1
 10
118.621502
 20
48.963021
 30
0.0
 10
119.738083
 20
48.963021
 30
0.0
 10
120.748195
 20
49.412629
 30
0.0
 10
121.559450
 20
50.265839
 30
0.0
  0
SPLINE
  5
197
100
AcDbEntity
  8
Ebene_1
 62
7
100
AcDbSpline
 70
8
 71
3
 72
8
 73
4
 74
0
 40
0
 40
0
 40
0
 40
0
 40
1
 40
1
 40
1
 40
1
 10
121.559450
 20
50.265839
 30
0.0
 10
122.375838
 20
51.124416
 30
0.0
 10
122.802511
 20
52.232577
 30
0.0
 10
122.802511
 20
53.479034
 30
0.0
  0
LWPOLYLINE
  5
198
100
AcDbEntity
  8
Ebene_1
 62
7
100
AcDbPolyline
 90
2
 70
0
 10
103.784181
 20
48.963021
 30
0.0
 10
118.621502
 20
48.963021
 30
0.0
  0
LWPOLYLINE
  5
199
100
AcDbEntity
  8
Ebene_1
 62
7
100
AcDbPolyline
 90
3
 70
0
 10
122.802511
 20
53.479034
 30
0.0
 10
122.802511
 20
53.988996
 30
0.0
 10
99.602946
 20
53.988928
 30
0.0
  0
LWPOLYLINE
  5
19a
100
AcDbEntity
  8
Ebene_1
 62
7
100
AcDbPolyline
 90
12
 70
1
 10
124.901078
 20
53.988928
 30
0.0
 10
129.277578
 20
49.261772
 30
0.0
 10
129.277578
 20
32.936831
 30
0.0
 10
129.749718
 20
32.936831
 30
0.0
 10
133.930718
 20
32.936831
 30
0.0
 10
133.930718
 20
44.235807
 30
0.0
 10
144.391539
 20
32.936831
 30
0.0
 10
148.768039
 20
32.936831
 30
0.0
 10
148.768039
 20
53.988928
 30
0.0
 10
144.114899
 20
53.988928
 30
0.0
 10
144.114899
 20
40.687943
 30
0.0
 10
131.800561
 20
53.988928
 30
0.0
  0
SPLINE
  5
19b
100
AcDbEntity
  8
Ebene_1
 62
7
100
AcDbSpline
 70
8
 71
3
 72
8
 73
4
 74
0
 40
0
 40
0
 40
0
 40
0
 40
1
 40
1
 40
1
 40
1
 10
170.552803
 20
32.936831
 30
0.0
 10
171.669374
 20
32.936831
 30
0.0
 10
172.677651
 20
33.386449
 30
0.0
 10
173.488906
 20
34.239648
 30
0.0
  0
SPLINE
  5
19c
100
AcDbEntity
  8
Ebene_1
 62
7
100
AcDbSpline
 70
8
 71
3
 72
8
 73
4
 74
0
 40
0
 40
0
 40
0
 40
0
 40
1
 40
1
 40
1
 40
1
 10
173.488906
 20
34.239648
 30
0.0
 10
174.305284
 20
35.098235
 30
0.0
 10
174.733803
 20
36.208378
 30
0.0
 10
174.733803
 20
37.454825
 30
0.0
  0
LWPOLYLINE
  5
19d
100
AcDbEntity
  8
Ebene_1
 62
7
100
AcDbPolyline
 90
4
 70
0
 10
151.532627
 20
53.988928
 30
0.0
 10
151.532627
 20
32.936831
 30
0.0
 10
152.004768
 20
32.936831
 30
0.0
 10
170.552803
 20
32.936831
 30
0.0
  0
LWPOLYLINE
  5
19e
100
AcDbEntity
  8
Ebene_1
 62
7
100
AcDbPolyline
 90
5
 70
0
 10
174.733803
 20
37.454825
 30
0.0
 10
174.733803
 20
37.964798
 30
0.0
 10
156.187622
 20
37.964798
 30
0.0
 10
156.187622
 20
53.988928
 30
0.0
 10
151.532627
 20
53.988928
 30
0.0
  0
SPLINE
  5
19f
100
AcDbEntity
  8
Ebene_1
 62
7
100
AcDbSpline
 70
8
 71
3
 72
8
 73
4
 74
0
 40
0
 40
0
 40
0
 40
0
 40
1
 40
1
 40
1
 40
1
 10
150.150390
 20
289.509766
 30
0.0
 10
72.892066
 20
289.509766
 30
0.0
 10
10.150393
 20
226.768085
 30
0.0
 10
10.150391
 20
149.509770
 30
0.0
  0
SPLINE
  5
1a0
100
AcDbEntity
  8
Ebene_1
 62
7
100
AcDbSpline
 70
8
 71
3
 72
8
 73
4
 74
0
 40
0
 40
0
 40
0
 40
0
 40
1
 40
1
 40
1
 40
1
 10
10.150391
 20
149.509770
 30
0.0
 10
10.150391
 20
72.251440
 30
0.0
 10
72.892064
 20
9.509770
 30
0.0
 10
150.150390
 20
9.509770
 30
0.0
  0
SPLINE
  5
1a1
100
AcDbEntity
  8
Ebene_1
 62
7
100
AcDbSpline
 70
8
 71
3
 72
8
 73
4
 74
0
 40
0
 40
0
 40
0
 40
0
 40
1
 40
1
 40
1
 40
1
 10
150.150390
 20
9.509770
 30
0.0
 10
227.408720
 20
9.509760
 30
0.0
 10
290.150390
 20
72.251440
 30
0.0
 10
290.150390
 20
149.509770
 30
0.0
  0
SPLINE
  5
1a2
100
AcDbEntity
  8
Ebene_1
 62
7
100
AcDbSpline
 70
8
 71
3
 72
8
 73
4
 74
0
 40
0
 40
0
 40
0
 40
0
 40
1
 40
1
 40
1
 40
1
 10
290.150390
 20
149.509770
 30
0.0
 10
290.150390
 20
226.768089
 30
0.0
 10
227.408720
 20
289.509771
 30
0.0
 10
150.150390
 20
289.509766
 30
0.0
  0
LWPOLYLINE
  5
1a3
100
AcDbEntity
  8
Ebene_1
 62
7
100
AcDbPolyline
 90
14
 70
1
 10
177.498391
 20
53.988928
 30
0.0
 10
177.498391
 20
49.261772
 30
0.0
 10
186.771486
 20
39.245691
 30
0.0
 10
186.771486
 20
32.936831
 30
0.0
 10
187.243624
 20
32.936831
 30
0.0
 10
191.424630
 20
32.936831
 30
0.0
 10
191.424630
 20
39.245691
 30
0.0
 10
200.697722
 20
49.261772
 30
0.0
 10
200.697722
 20
53.988928
 30
0.0
 10
196.044578
 20
53.988928
 30
0.0
 10
196.044578
 20
51.688099
 30
0.0
 10
189.098979
 20
44.184010
 30
0.0
 10
182.151539
 20
51.688099
 30
0.0
 10
182.151539
 20
53.988928
 30
0.0
  0
SPLINE
  5
1a4
100
AcDbEntity
  8
Ebene_1
 62
7
100
AcDbSpline
 70
8
 71
3
 72
8
 73
4
 74
0
 40
0
 40
0
 40
0
 40
0
 40
1
 40
1
 40
1
 40
1
 10
150.150390
 20
279.119141
 30
0.0
 10
221.793550
 20
279.119146
 30
0.0
 10
279.759760
 20
221.152916
 30
0.0
 10
279.759770
 20
149.509770
 30
0.0
  0
SPLINE
  5
1a5
100
AcDbEntity
  8
Ebene_1
 62
7
100
AcDbSpline
 70
8
 71
3
 72
8
 73
4
 74
0
 40
0
 40
0
 40
0
 40
0
 40
1
 40
1
 40
1
 40
1
 10
279.759770
 20
149.509770
 30
0.0
 10
279.759770
 20
77.866610
 30
0.0
 10
221.793550
 20
19.898430
 30
0.0
 10
150.150390
 20
19.898440
 30
0.0
  0
SPLINE
  5
1a6
100
AcDbEntity
  8
Ebene_1
 62
7
100
AcDbSpline
 70
8
 71
3
 72
8
 73
4
 74
0
 40
0
 40
0
 40
0
 40
0
 40
1
 40
1
 40
1
 40
1
 10
150.150390
 20
19.898440
 30
0.0
 10
78.507237
 20
19.898440
 30
0.0
 10
20.539062
 20
77.866620
 30
0.0
 10
20.539062
 20
149.509770
 30
0.0
  0
SPLINE
  5
1a7
100
AcDbEntity
  8
Ebene_1
 62
7
100
AcDbSpline
 70
8
 71
3
 72
8
 73
4
 74
0
 40
0
 40
0
 40
0
 40
0
 40
1
 40
1
 40
1
 40
1
 10
20.539062
 20
149.509770
 30
0.0
 10
20.539065
 20
221.152912
 30
0.0
 10
78.507238
 20
279.119141
 30
0.0
 10
150.150390
 20
279.119141
 30
0.0
  0
LWPOLYLINE
  5
1a8
100
AcDbEntity
  8
Ebene_1
 62
7
100
AcDbPolyline
 90
1
 70
1
 10
150.150390
 20
289.509766
 30
0.0
  0
SPLINE
  5
1a9
100
AcDbEntity
  8
Ebene_1
 62
7
100
AcDbSpline
 70
8
 71
3
 72
8
 73
4
 74
0
 40
0
 40
0
 40
0
 40
0
 40
1
 40
1
 40
1
 40
1
 10
150.149930
 20
17.311150
 30
0.0
 10
150.812971
 20
17.311150
 30
0.0
 10
151.448856
 20
17.047758
 30
0.0
 10
151.917697
 20
16.578917
 30
0.0
  0
SPLINE
  5
1aa
100
AcDbEntity
  8
Ebene_1
 62
7
100
AcDbSpline
 70
8
 71
3
 72
8
 73
4
 74
0
 40
0
 40
0
 40
0
 40
0
 40
1
 40
1
 40
1
 40
1
 10
151.917697
 20
16.578917
 30
0.0
 10
152.386538
 20
16.110076
 30
0.0
 10
152.649930
 20
15.474191
 30
0.0
 10
152.649930
 20
14.811150
 30
0.0
  0
SPLINE
  5
1ab
100
AcDbEntity
  8
Ebene_1
 62
7
100
AcDbSpline
 70
8
 71
3
 72
8
 73
4
 74
0
 40
0
 40
0
 40
0
 40
0
 40
1
 40
1
 40
1
 40
1
 10
152.649930
 20
14.811150
 30
0.0
 10
152.649930
 20
14.148109
 30
0.0
 10
152.386538
 20
13.512224
 30
0.0
 10
151.917697
 20
13.043383
 30
0.0
  0
SPLINE
  5
1ac
100
AcDbEntity
  8
Ebene_1
 62
7
100
AcDbSpline
 70
8
 71
3
 72
8
 73
4
 74
0
 40
0
 40
0
 40
0
 40
0
 40
1
 40
1
 40
1
 40
1
 10
151.917697
 20
13.043383
 30
0.0
 10
151.448856
 20
12.574542
 30
0.0
 10
150.812971
 20
12.311150
 30
0.0
 10
150.149930
 20
12.311150
 30
0.0
  0
SPLINE
  5
1ad
100
AcDbEntity
  8
Ebene_1
 62
7
100
AcDbSpline
 70
8
 71
3
 72
8
 73
4
 74
0
 40
0
 40
0
 40
0
 40
0
 40
1
 40
1
 40
1
 40
1
 10
150.149930
 20
12.311150
 30
0.0
 10
149.486889
 20
12.311150
 30
0.0
 10
148.851004
 20
12.574542
 30
0.0
 10
148.382163
 20
13.043383
 30
0.0
  0
SPLINE
  5
1ae
100
AcDbEntity
  8
Ebene_1
 62
7
100
AcDbSpline
 70
8
 71
3
 72
8
 73
4
 74
0
 40
0
 40
0
 40
0
 40
0
 40
1
 40
1
 40
1
 40
1
 10
148.382163
 20
13.043383
 30
0.0
 10
147.913322
 20
13.512224
 30
0.0
 10
147.649930
 20
14.148109
 30
0.0
 10
147.649930
 20
14.811150
 30
0.0
  0
SPLINE
  5
1af
100
AcDbEntity
  8
Ebene_1
 62
7
100
AcDbSpline
 70
8
 71
3
 72
8
 73
4
 74
0
 40
0
 40
0
 40
0
 40
0
 40
1
 40
1
 40
1
 40
1
 10
147.649930
 20
14.811150
 30
0.0
 10
147.649930
 20
15.474191
 30
0.0
 10
147.913322
 20
16.110076
 30
0.0
 10
148.382163
 20
16.578917
 30
0.0
  0
SPLINE
  5
1b0
100
AcDbEntity
  8
Ebene_1
 62
7
100
AcDbSpline
 70
8
 71
3
 72
8
 73
4
 74
0
 40
0
 40
0
 40
0
 40
0
 40
1
 40
1
 40
1
 40
1
 10
148.382163
 20
16.578917
 30
0.0
 10
148.851004
 20
17.047758
 30
0.0
 10
149.486889
 20
17.311150
 30
0.0
 10
150.149930
 20
17.311150
 30
0.0
  0
SPLINE
  5
1b1
100
AcDbEntity
  8
Ebene_1
 62
7
100
AcDbSpline
 70
8
 71
3
 72
8
 73
4
 74
0
 40
0
 40
0
 40
0
 40
0
 40
1
 40
1
 40
1
 40
1
 10
150.149930
 20
286.707006
 30
0.0
 10
150.812971
 20
286.707006
 30
0.0
 10
151.448856
 20
286.443614
 30
0.0
 10
151.917697
 20
285.974773
 30
0.0
  0
SPLINE
  5
1b2
100
AcDbEntity
  8
Ebene_1
 62
7
100
AcDbSpline
 70
8
 71
3
 72
8
 73
4
 74
0
 40
0
 40
0
 40
0
 40
0
 40
1
 40
1
 40
1
 40
1
 10
151.917697
 20
285.974773
 30
0.0
 10
152.386538
 20
285.505932
 30
0.0
 10
152.649930
 20
284.870047
 30
0.0
 10
152.649930
 20
284.207006
 30
0.0
  0
SPLINE
  5
1b3
100
AcDbEntity
  8
Ebene_1
 62
7
100
AcDbSpline
 70
8
 71
3
 72
8
 73
4
 74
0
 40
0
 40
0
 40
0
 40
0
 40
1
 40
1
 40
1
 40
1
 10
152.649930
 20
284.207006
 30
0.0
 10
152.649930
 20
283.543965
 30
0.0
 10
152.386538
 20
282.908080
 30
0.0
 10
151.917697
 20
282.439239
 30
0.0
  0
SPLINE
  5
1b4
100
AcDbEntity
  8
Ebene_1
 62
7
100
AcDbSpline
 70
8
 71
3
 72
8
 73
4
 74
0
 40
0
 40
0
 40
0
 40
0
 40
1
 40
1
 40
1
 40
1
 10
151.917697
 20
282.439239
 30
0.0
 10
151.448856
 20
281.970398
 30
0.0
 10
150.812971
 20
281.707006
 30
0.0
 10
150.149930
 20
281.707006
 30
0.0
  0
SPLINE
  5
1b5
100
AcDbEntity
  8
Ebene_1
 62
7
100
AcDbSpline
 70
8
 71
3
 72
8
 73
4
 74
0
 40
0
 40
0
 40
0
 40
0
 40
1
 40
1
 40
1
 40
1
 10
150.149930
 20
281.707006
 30
0.0
 10
149.486889
 20
281.707006
 30
0.0
 10
148.851004
 20
281.970398
 30
0.0
 10
148.382163
 20
282.439239
 30
0.0
  0
SPLINE
  5
1b6
100
AcDbEntity
  8
Ebene_1
 62
7
100
AcDbSpline
 70
8
 71
3
 72
8
 73
4
 74
0
 40
0
 40
0
 40
0
 40
0
 40
1
 40
1
 40
1
 40
1
 10
148.382163
 20
282.439239
 30
0.0
 10
147.913322
 20
282.908080
 30
0.0
 10
147.649930
 20
283.543965
 30
0.0
 10
147.649930
 20
284.207006
 30
0.0
  0
SPLINE
  5
1b7
100
AcDbEntity
  8
Ebene_1
 62
7
100
AcDbSpline
 70
8
 71
3
 72
8
 73
4
 74
0
 40
0
 40
0
 40
0
 40
0
 40
1
 40
1
 40
1
 40
1
 10
147.649930
 20
284.207006
 30
0.0
 10
147.649930
 20
284.870047
 30
0.0
 10
147.913322
 20
285.505932
 30
0.0
 10
148.382163
 20
285.974773
 30
0.0
  0
SPLINE
  5
1b8
100
AcDbEntity
  8
Ebene_1
 62
7
100
AcDbSpline
 70
8
 71
3
 72
8
 73
4
 74
0
 40
0
 40
0
 40
0
 40
0
 40
1
 40
1
 40
1
 40
1
 10
148.382163
 20
285.974773
 30
0.0
 10
148.851004
 20
286.443614
 30
0.0
 10
149.486889
 20
286.707006
 30
0.0
 10
150.149930
 20
286.707006
 30
0.0
  0
SPLINE
  5
1b9
100
AcDbEntity
  8
Ebene_1
 62
7
100
AcDbSpline
 70
8
 71
3
 72
8
 73
4
 74
0
 40
0
 40
0
 40
0
 40
0
 40
1
 40
1
 40
1
 40
1
 10
282.347870
 20
149.508670
 30
0.0
 10
282.347870
 20
150.171711
 30
0.0
 10
282.611262
 20
150.807596
 30
0.0
 10
283.080103
 20
151.276437
 30
0.0
  0
SPLINE
  5
1ba
100
AcDbEntity
  8
Ebene_1
 62
7
100
AcDbSpline
 70
8
 71
3
 72
8
 73
4
 74
0
 40
0
 40
0
 40
0
 40
0
 40
1
 40
1
 40
1
 40
1
 10
283.080103
 20
151.276437
 30
0.0
 10
283.548944
 20
151.745278
 30
0.0
 10
284.184829
 20
152.008670
 30
0.0
 10
284.847870
 20
152.008670
 30
0.0
  0
SPLINE
  5
1bb
100
AcDbEntity
  8
Ebene_1
 62
7
100
AcDbSpline
 70
8
 71
3
 72
8
 73
4
 74
0
 40
0
 40
0
 40
0
 40
0
 40
1
 40
1
 40
1
 40
1
 10
284.847870
 20
152.008670
 30
0.0
 10
285.510911
 20
152.008670
 30
0.0
 10
286.146796
 20
151.745278
 30
0.0
 10
286.615637
 20
151.276437
 30
0.0
  0
SPLINE
  5
1bc
100
AcDbEntity
  8
Ebene_1
 62
7
100
AcDbSpline
 70
8
 71
3
 72
8
 73
4
 74
0
 40
0
 40
0
 40
0
 40
0
 40
1
 40
1
 40
1
 40
1
 10
286.615637
 20
151.276437
 30
0.0
 10
287.084478
 20
150.807596
 30
0.0
 10
287.347870
 20
150.171711
 30
0.0
 10
287.347870
 20
149.508670
 30
0.0
  0
SPLINE
  5
1bd
100
AcDbEntity
  8
Ebene_1
 62
7
100
AcDbSpline
 70
8
 71
3
 72
8
 73
4
 74
0
 40
0
 40
0
 40
0
 40
0
 40
1
 40
1
 40
1
 40
1
 10
287.347870
 20
149.508670
 30
0.0
 10
287.347870
 20
148.845629
 30
0.0
 10
287.084478
 20
148.209744
 30
0.0
 10
286.615637
 20
147.740903
 30
0.0
  0
SPLINE
  5
1be
100
AcDbEntity
  8
Ebene_1
 62
7
100
AcDbSpline
 70
8
 71
3
 72
8
 73
4
 74
0
 40
0
 40
0
 40
0
 40
0
 40
1
 40
1
 40
1
 40
1
 10
286.615637
 20
147.740903
 30
0.0
 10
286.146796
 20
147.272062
 30
0.0
 10
285.510911
 20
147.008670
 30
0.0
 10
284.847870
 20
147.008670
 30
0.0
  0
SPLINE
  5
1bf
100
AcDbEntity
  8
Ebene_1
 62
7
100
AcDbSpline
 70
8
 71
3
 72
8
 73
4
 74
0
 40
0
 40
0
 40
0
 40
0
 40
1
 40
1
 40
1
 40
1
 10
284.847870
 20
147.008670
 30
0.0
 10
284.184829
 20
147.008670
 30
0.0
 10
283.548944
 20
147.272062
 30
0.0
 10
283.080103
 20
147.740903
 30
0.0
  0
SPLINE
  5
1c0
100
AcDbEntity
  8
Ebene_1
 62
7
100
AcDbSpline
 70
8
 71
3
 72
8
 73
4
 74
0
 40
0
 40
0
 40
0
 40
0
 40
1
 40
1
 40
1
 40
1
 10
283.080103
 20
147.740903
 30
0.0
 10
282.611262
 20
148.209744
 30
0.0
 10
282.347870
 20
148.845629
 30
0.0
 10
282.347870
 20
149.508670
 30
0.0
  0
SPLINE
  5
1c1
100
AcDbEntity
  8
Ebene_1
 62
7
100
AcDbSpline
 70
8
 71
3
 72
8
 73
4
 74
0
 40
0
 40
0
 40
0
 40
0
 40
1
 40
1
 40
1
 40
1
 10
12.952014
 20
149.508670
 30
0.0
 10
12.952014
 20
150.171711
 30
0.0
 10
13.215406
 20
150.807596
 30
0.0
 10
13.684247
 20
151.276437
 30
0.0
  0
SPLINE
  5
1c2
100
AcDbEntity
  8
Ebene_1
 62
7
100
AcDbSpline
 70
8
 71
3
 72
8
 73
4
 74
0
 40
0
 40
0
 40
0
 40
0
 40
1
 40
1
 40
1
 40
1
 10
13.684247
 20
151.276437
 30
0.0
 10
14.153088
 20
151.745278
 30
0.0
 10
14.788973
 20
152.008670
 30
0.0
 10
15.452014
 20
152.008670
 30
0.0
  0
SPLINE
  5
1c3
100
AcDbEntity
  8
Ebene_1
 62
7
100
AcDbSpline
 70
8
 71
3
 72
8
 73
4
 74
0
 40
0
 40
0
 40
0
 40
0
 40
1
 40
1
 40
1
 40
1
 10
15.452014
 20
152.008670
 30
0.0
 10
16.115055
 20
152.008670
 30
0.0
 10
16.750940
 20
151.745278
 30
0.0
 10
17.219781
 20
151.276437
 30
0.0
  0
SPLINE
  5
1c4
100
AcDbEntity
  8
Ebene_1
 62
7
100
AcDbSpline
 70
8
 71
3
 72
8
 73
4
 74
0
 40
0
 40
0
 40
0
 40
0
 40
1
 40
1
 40
1
 40
1
 10
17.219781
 20
151.276437
 30
0.0
 10
17.688622
 20
150.807596
 30
0.0
 10
17.952014
 20
150.171711
 30
0.0
 10
17.952014
 20
149.508670
 30
0.0
  0
SPLINE
  5
1c5
100
AcDbEntity
  8
Ebene_1
 62
7
100
AcDbSpline
 70
8
 71
3
 72
8
 73
4
 74
0
 40
0
 40
0
 40
0
 40
0
 40
1
 40
1
 40
1
 40
1
 10
17.952014
 20
149.508670
 30
0.0
 10
17.952014
 20
148.845629
 30
0.0
 10
17.688622
 20
148.209744
 30
0.0
 10
17.219781
 20
147.740903
 30
0.0
  0
SPLINE
  5
1c6
100
AcDbEntity
  8
Ebene_1
 62
7
100
AcDbSpline
 70
8
 71
3
 72
8
 73
4
 74
0
 40
0
 40
0
 40
0
 40
0
 40
1
 40
1
 40
1
 40
1
 10
17.219781
 20
147.740903
 30
0.0
 10
16.750940
 20
147.272062
 30
0.0
 10
16.115055
 20
147.008670
 30
0.0
 10
15.452014
 20
147.008670
 30
0.0
  0
SPLINE
  5
1c7
100
AcDbEntity
  8
Ebene_1
 62
7
100
AcDbSpline
 70
8
 71
3
 72
8
 73
4
 74
0
 40
0
 40
0
 40
0
 40
0
 40
1
 40
1
 40
1
 40
1
 10
15.452014
 20
147.008670
 30
0.0
 10
14.788973
 20
147.008670
 30
0.0
 10
14.153088
 20
147.272062
 30
0.0
 10
13.684247
 20
147.740903
 30
0.0
  0
SPLINE
  5
1c8
100
AcDbEntity
  8
Ebene_1
 62
7
100
AcDbSpline
 70
8
 71
3
 72
8
 73
4
 74
0
 40
0
 40
0
 40
0
 40
0
 40
1
 40
1
 40
1
 40
1
 10
13.684247
 20
147.740903
 30
0.0
 10
13.215406
 20
148.209744
 30
0.0
 10
12.952014
 20
148.845629
 30
0.0
 10
12.952014
 20
149.508670
 30
0.0
  0
LWPOLYLINE
  5
1c9
100
AcDbEntity
  8
Ebene_1
 62
7
100
AcDbPolyline
 90
1
 70
1
 10
150.150390
 20
279.119141
 30
0.0
  0
ENDSEC
  0
SECTION
  2
OBJECTS
  0
DICTIONARY
  5
C
330
0
100
AcDbDictionary
  3
ACAD_GROUP
350
D
  3
ACAD_MLINESTYLE
350
17
  0
DICTIONARY
  5
D
330
C
100
AcDbDictionary
  0
DICTIONARY
  5
1A
330
C
100
AcDbDictionary
  0
DICTIONARY
  5
17
330
C
100
AcDbDictionary
  3
STANDARD
350
18
  0
DICTIONARY
  5
19
330
C
100
AcDbDictionary
  0
ENDSEC
  0
EOF
