  0
SECTION
  2
HEADER
  9
$ACADVER
  1
AC1014
  9
$HANDSEED
  5
FFFF
  9
$MEASUREMENT
 70
     1
  0
ENDSEC
  0
SECTION
  2
TABLES
  0
TABLE
  2
VPORT
  5
8
330
0
100
AcDbSymbolTable
 70
     4
  0
VPORT
  5
2E
330
8
100
AcDbSymbolTableRecord
100
AcDbViewportTableRecord
  2
*ACTIVE
 70
     0
 10
0.0
 20
0.0
 11
1.0
 21
1.0
 12
210.0
 22
148.5
 13
0.0
 23
0.0
 14
10.0
 24
10.0
 15
10.0
 25
10.0
 16
0.0
 26
0.0
 36
1.0
 17
0.0
 27
0.0
 37
0.0
 40
341.0
 41
1.24
 42
50.0
 43
0.0
 44
0.0
 50
0.0
 51
0.0
 71
     0
 72
   100
 73
     1
 74
     3
 75
     0
 76
     0
 77
     0
 78
     0
  0
ENDTAB
  0
TABLE
  2
LTYPE
  5
5
330
0
100
AcDbSymbolTable
 70
     1
  0
LTYPE
  5
14
330
5
100
AcDbSymbolTableRecord
100
AcDbLinetypeTableRecord
  2
BYBLOCK
 70
     0
  3

 72
    65
 73
     0
 40
0.0
  0
LTYPE
  5
15
330
5
100
AcDbSymbolTableRecord
100
AcDbLinetypeTableRecord
  2
BYLAYER
 70
     0
  3

 72
    65
 73
     0
 40
0.0
  0
LTYPE
  5
16
330
5
100
AcDbSymbolTableRecord
100
AcDbLinetypeTableRecord
  2
CONTINUOUS
 70
     0
  3
Solid line
 72
    65
 73
     0
 40
0.0
  0
ENDTAB
  0
TABLE
  2
LAYER
  5
2
100
AcDbSymbolTable
 70
2
  0
LAYER
  5
50
100
AcDbSymbolTableRecord
100
AcDbLayerTableRecord
  2
0
 70
0
  6
CONTINUOUS
  0
LAYER
  5
51
100
AcDbSymbolTableRecord
100
AcDbLayerTableRecord
  2
Ebene_1
 70
0
  6
CONTINUOUS
  0
ENDTAB
  0
TABLE
  2
STYLE
  5
3
330
0
100
AcDbSymbolTable
 70
     1
  0
STYLE
  5
11
330
3
100
AcDbSymbolTableRecord
100
AcDbTextStyleTableRecord
  2
STANDARD
 70
     0
 40
0.0
 41
1.0
 50
0.0
 71
     0
 42
2.5
  3
txt
  4

  0
ENDTAB
  0
TABLE
  2
VIEW
  5
6
330
0
100
AcDbSymbolTable
 70
     0
  0
ENDTAB
  0
TABLE
  2
UCS
  5
7
330
0
100
AcDbSymbolTable
 70
     0
  0
ENDTAB
  0
TABLE
  2
APPID
  5
9
330
0
100
AcDbSymbolTable
 70
     2
  0
APPID
  5
12
330
9
100
AcDbSymbolTableRecord
100
AcDbRegAppTableRecord
  2
ACAD
 70
     0
  0
ENDTAB
  0
TABLE
  2
DIMSTYLE
  5
A
330
0
100
AcDbSymbolTable
 70
     1
  0
DIMSTYLE
105
27
330
A
100
AcDbSymbolTableRecord
100
AcDbDimStyleTableRecord
  2
ISO-25
 70
     0
  3

  4

  5

  6

  7

 40
1.0
 41
2.5
 42
0.625
 43
3.75
 44
1.25
 45
0.0
 46
0.0
 47
0.0
 48
0.0
140
2.5
141
2.5
142
0.0
143
0.03937007874016
144
1.0
145
0.0
146
1.0
147
0.625
 71
     0
 72
     0
 73
     0
 74
     0
 75
     0
 76
     0
 77
     1
 78
     8
170
     0
171
     3
172
     1
173
     0
174
     0
175
     0
176
     0
177
     0
178
     0
270
     2
271
     2
272
     2
273
     2
274
     3
340
11
275
     0
280
     0
281
     0
282
     0
283
     0
284
     8
285
     0
286
     0
287
     3
288
     0
  0
ENDTAB
  0
TABLE
  2
BLOCK_RECORD
  5
1
330
0
100
AcDbSymbolTable
 70
     1
  0
BLOCK_RECORD
  5
1F
330
1
100
AcDbSymbolTableRecord
100
AcDbBlockTableRecord
  2
*MODEL_SPACE
  0
BLOCK_RECORD
  5
1B
330
1
100
AcDbSymbolTableRecord
100
AcDbBlockTableRecord
  2
*PAPER_SPACE
  0
ENDTAB
  0
ENDSEC
  0
SECTION
  2
BLOCKS
  0
BLOCK
  5
20
330
1F
100
AcDbEntity
  8
0
100
AcDbBlockBegin
  2
*MODEL_SPACE
 70
     0
 10
0.0
 20
0.0
 30
0.0
  3
*MODEL_SPACE
  1

  0
ENDBLK
  5
21
330
1F
100
AcDbEntity
  8
0
100
AcDbBlockEnd
  0
BLOCK
  5
1C
330
1B
100
AcDbEntity
 67
     1
  8
0
100
AcDbBlockBegin
  2
*PAPER_SPACE
  1

  0
ENDBLK
  5
1D
330
1B
100
AcDbEntity
 67
     1
  8
0
100
AcDbBlockEnd
  0
ENDSEC
  0
SECTION
  2
ENTITIES
  0
SPLINE
  5
100
100
AcDbEntity
  8
Ebene_1
 62
7
100
AcDbSpline
 70
8
 71
3
 72
8
 73
4
 74
0
 40
0
 40
0
 40
0
 40
0
 40
1
 40
1
 40
1
 40
1
 10
47.934729
 20
286.996281
 30
0.0
 10
28.999482
 20
286.996281
 30
0.0
 10
13.650107
 20
271.667622
 30
0.0
 10
13.650107
 20
252.757946
 30
0.0
  0
LWPOLYLINE
  5
101
100
AcDbEntity
  8
Ebene_1
 62
7
100
AcDbPolyline
 90
4
 70
1
 10
0.000000
 20
299.599980
 30
0.0
 10
219.600000
 20
299.599980
 30
0.0
 10
219.600000
 20
0.000000
 30
0.0
 10
0.000000
 20
0.000000
 30
0.0
  0
SPLINE
  5
102
100
AcDbEntity
  8
Ebene_1
 62
7
100
AcDbSpline
 70
8
 71
3
 72
8
 73
4
 74
0
 40
0
 40
0
 40
0
 40
0
 40
1
 40
1
 40
1
 40
1
 10
13.650107
 20
46.819990
 30
0.0
 10
13.650107
 20
27.910310
 30
0.0
 10
28.999482
 20
12.581650
 30
0.0
 10
47.934729
 20
12.581650
 30
0.0
  0
LWPOLYLINE
  5
103
100
AcDbEntity
  8
Ebene_1
 62
7
100
AcDbPolyline
 90
2
 70
0
 10
13.650107
 20
252.757946
 30
0.0
 10
13.650107
 20
46.819990
 30
0.0
  0
SPLINE
  5
104
100
AcDbEntity
  8
Ebene_1
 62
7
100
AcDbSpline
 70
8
 71
3
 72
8
 73
4
 74
0
 40
0
 40
0
 40
0
 40
0
 40
1
 40
1
 40
1
 40
1
 10
171.665270
 20
12.581650
 30
0.0
 10
190.600520
 20
12.581650
 30
0.0
 10
205.949890
 20
27.910310
 30
0.0
 10
205.949890
 20
46.819990
 30
0.0
  0
LWPOLYLINE
  5
105
100
AcDbEntity
  8
Ebene_1
 62
7
100
AcDbPolyline
 90
2
 70
0
 10
47.934729
 20
12.581650
 30
0.0
 10
171.665270
 20
12.581650
 30
0.0
  0
SPLINE
  5
106
100
AcDbEntity
  8
Ebene_1
 62
7
100
AcDbSpline
 70
8
 71
3
 72
8
 73
4
 74
0
 40
0
 40
0
 40
0
 40
0
 40
1
 40
1
 40
1
 40
1
 10
205.949890
 20
252.757946
 30
0.0
 10
205.949890
 20
271.667622
 30
0.0
 10
190.600520
 20
286.996281
 30
0.0
 10
171.665270
 20
286.996281
 30
0.0
  0
LWPOLYLINE
  5
107
100
AcDbEntity
  8
Ebene_1
 62
7
100
AcDbPolyline
 90
2
 70
0
 10
205.949890
 20
46.819990
 30
0.0
 10
205.949890
 20
252.757946
 30
0.0
  0
LWPOLYLINE
  5
108
100
AcDbEntity
  8
Ebene_1
 62
7
100
AcDbPolyline
 90
2
 70
0
 10
171.665270
 20
286.996281
 30
0.0
 10
47.934729
 20
286.996281
 30
0.0
  0
SPLINE
  5
109
100
AcDbEntity
  8
Ebene_1
 62
7
100
AcDbSpline
 70
8
 71
3
 72
8
 73
4
 74
0
 40
0
 40
0
 40
0
 40
0
 40
1
 40
1
 40
1
 40
1
 10
171.665270
 20
280.303242
 30
0.0
 10
187.003490
 20
280.303242
 30
0.0
 10
199.247800
 20
268.075447
 30
0.0
 10
199.247800
 20
252.757946
 30
0.0
  0
LWPOLYLINE
  5
10a
100
AcDbEntity
  8
Ebene_1
 62
7
100
AcDbPolyline
 90
2
 70
0
 10
47.934729
 20
280.303242
 30
0.0
 10
171.665270
 20
280.303242
 30
0.0
  0
SPLINE
  5
10b
100
AcDbEntity
  8
Ebene_1
 62
7
100
AcDbSpline
 70
8
 71
3
 72
8
 73
4
 74
0
 40
0
 40
0
 40
0
 40
0
 40
1
 40
1
 40
1
 40
1
 10
199.247800
 20
46.819990
 30
0.0
 10
199.247800
 20
31.502480
 30
0.0
 10
187.003490
 20
19.274700
 30
0.0
 10
171.665270
 20
19.274700
 30
0.0
  0
LWPOLYLINE
  5
10c
100
AcDbEntity
  8
Ebene_1
 62
7
100
AcDbPolyline
 90
2
 70
0
 10
199.247800
 20
252.757946
 30
0.0
 10
199.247800
 20
46.819990
 30
0.0
  0
SPLINE
  5
10d
100
AcDbEntity
  8
Ebene_1
 62
7
100
AcDbSpline
 70
8
 71
3
 72
8
 73
4
 74
0
 40
0
 40
0
 40
0
 40
0
 40
1
 40
1
 40
1
 40
1
 10
47.934729
 20
19.274700
 30
0.0
 10
32.596503
 20
19.274700
 30
0.0
 10
20.352196
 20
31.502480
 30
0.0
 10
20.352196
 20
46.819990
 30
0.0
  0
LWPOLYLINE
  5
10e
100
AcDbEntity
  8
Ebene_1
 62
7
100
AcDbPolyline
 90
2
 70
0
 10
171.665270
 20
19.274700
 30
0.0
 10
47.934729
 20
19.274700
 30
0.0
  0
SPLINE
  5
10f
100
AcDbEntity
  8
Ebene_1
 62
7
100
AcDbSpline
 70
8
 71
3
 72
8
 73
4
 74
0
 40
0
 40
0
 40
0
 40
0
 40
1
 40
1
 40
1
 40
1
 10
20.352196
 20
252.757946
 30
0.0
 10
20.352196
 20
268.075447
 30
0.0
 10
32.596503
 20
280.303242
 30
0.0
 10
47.934729
 20
280.303242
 30
0.0
  0
LWPOLYLINE
  5
110
100
AcDbEntity
  8
Ebene_1
 62
7
100
AcDbPolyline
 90
2
 70
0
 10
20.352196
 20
46.819990
 30
0.0
 10
20.352196
 20
252.757946
 30
0.0
  0
SPLINE
  5
111
100
AcDbEntity
  8
Ebene_1
 62
7
100
AcDbSpline
 70
8
 71
3
 72
8
 73
4
 74
0
 40
0
 40
0
 40
0
 40
0
 40
1
 40
1
 40
1
 40
1
 10
36.281437
 20
34.005470
 30
0.0
 10
36.281436
 20
32.650472
 30
0.0
 10
35.182992
 20
31.552030
 30
0.0
 10
33.827994
 20
31.552030
 30
0.0
  0
SPLINE
  5
112
100
AcDbEntity
  8
Ebene_1
 62
7
100
AcDbSpline
 70
8
 71
3
 72
8
 73
4
 74
0
 40
0
 40
0
 40
0
 40
0
 40
1
 40
1
 40
1
 40
1
 10
33.827994
 20
31.552030
 30
0.0
 10
32.472996
 20
31.552030
 30
0.0
 10
31.374553
 20
32.650472
 30
0.0
 10
31.374552
 20
34.005470
 30
0.0
  0
SPLINE
  5
113
100
AcDbEntity
  8
Ebene_1
 62
7
100
AcDbSpline
 70
8
 71
3
 72
8
 73
4
 74
0
 40
0
 40
0
 40
0
 40
0
 40
1
 40
1
 40
1
 40
1
 10
31.374552
 20
34.005470
 30
0.0
 10
31.374553
 20
35.360468
 30
0.0
 10
32.472996
 20
36.458910
 30
0.0
 10
33.827994
 20
36.458910
 30
0.0
  0
SPLINE
  5
114
100
AcDbEntity
  8
Ebene_1
 62
7
100
AcDbSpline
 70
8
 71
3
 72
8
 73
4
 74
0
 40
0
 40
0
 40
0
 40
0
 40
1
 40
1
 40
1
 40
1
 10
33.827994
 20
36.458910
 30
0.0
 10
35.182992
 20
36.458910
 30
0.0
 10
36.281436
 20
35.360468
 30
0.0
 10
36.281437
 20
34.005470
 30
0.0
  0
LWPOLYLINE
  5
115
100
AcDbEntity
  8
Ebene_1
 62
7
100
AcDbPolyline
 90
1
 70
1
 10
47.934729
 20
280.303242
 30
0.0
  0
SPLINE
  5
116
100
AcDbEntity
  8
Ebene_1
 62
7
100
AcDbSpline
 70
8
 71
3
 72
8
 73
4
 74
0
 40
0
 40
0
 40
0
 40
0
 40
1
 40
1
 40
1
 40
1
 10
188.310160
 20
34.291700
 30
0.0
 10
188.310159
 20
32.936703
 30
0.0
 10
187.211717
 20
31.838261
 30
0.0
 10
185.856720
 20
31.838260
 30
0.0
  0
SPLINE
  5
117
100
AcDbEntity
  8
Ebene_1
 62
7
100
AcDbSpline
 70
8
 71
3
 72
8
 73
4
 74
0
 40
0
 40
0
 40
0
 40
0
 40
1
 40
1
 40
1
 40
1
 10
185.856720
 20
31.838260
 30
0.0
 10
184.501723
 20
31.838261
 30
0.0
 10
183.403281
 20
32.936703
 30
0.0
 10
183.403280
 20
34.291700
 30
0.0
  0
SPLINE
  5
118
100
AcDbEntity
  8
Ebene_1
 62
7
100
AcDbSpline
 70
8
 71
3
 72
8
 73
4
 74
0
 40
0
 40
0
 40
0
 40
0
 40
1
 40
1
 40
1
 40
1
 10
183.403280
 20
34.291700
 30
0.0
 10
183.403281
 20
35.646697
 30
0.0
 10
184.501723
 20
36.745139
 30
0.0
 10
185.856720
 20
36.745140
 30
0.0
  0
SPLINE
  5
119
100
AcDbEntity
  8
Ebene_1
 62
7
100
AcDbSpline
 70
8
 71
3
 72
8
 73
4
 74
0
 40
0
 40
0
 40
0
 40
0
 40
1
 40
1
 40
1
 40
1
 10
185.856720
 20
36.745140
 30
0.0
 10
187.211717
 20
36.745139
 30
0.0
 10
188.310159
 20
35.646697
 30
0.0
 10
188.310160
 20
34.291700
 30
0.0
  0
LWPOLYLINE
  5
11a
100
AcDbEntity
  8
Ebene_1
 62
7
100
AcDbPolyline
 90
1
 70
1
 10
36.281437
 20
34.005470
 30
0.0
  0
SPLINE
  5
11b
100
AcDbEntity
  8
Ebene_1
 62
7
100
AcDbSpline
 70
8
 71
3
 72
8
 73
4
 74
0
 40
0
 40
0
 40
0
 40
0
 40
1
 40
1
 40
1
 40
1
 10
188.681090
 20
265.000000
 30
0.0
 10
188.681090
 20
263.645002
 30
0.0
 10
187.582648
 20
262.546558
 30
0.0
 10
186.227650
 20
262.546557
 30
0.0
  0
SPLINE
  5
11c
100
AcDbEntity
  8
Ebene_1
 62
7
100
AcDbSpline
 70
8
 71
3
 72
8
 73
4
 74
0
 40
0
 40
0
 40
0
 40
0
 40
1
 40
1
 40
1
 40
1
 10
186.227650
 20
262.546557
 30
0.0
 10
184.872652
 20
262.546558
 30
0.0
 10
183.774210
 20
263.645002
 30
0.0
 10
183.774210
 20
265.000000
 30
0.0
  0
SPLINE
  5
11d
100
AcDbEntity
  8
Ebene_1
 62
7
100
AcDbSpline
 70
8
 71
3
 72
8
 73
4
 74
0
 40
0
 40
0
 40
0
 40
0
 40
1
 40
1
 40
1
 40
1
 10
183.774210
 20
265.000000
 30
0.0
 10
183.774210
 20
266.354998
 30
0.0
 10
184.872652
 20
267.453442
 30
0.0
 10
186.227650
 20
267.453443
 30
0.0
  0
SPLINE
  5
11e
100
AcDbEntity
  8
Ebene_1
 62
7
100
AcDbSpline
 70
8
 71
3
 72
8
 73
4
 74
0
 40
0
 40
0
 40
0
 40
0
 40
1
 40
1
 40
1
 40
1
 10
186.227650
 20
267.453443
 30
0.0
 10
187.582648
 20
267.453442
 30
0.0
 10
188.681090
 20
266.354998
 30
0.0
 10
188.681090
 20
265.000000
 30
0.0
  0
LWPOLYLINE
  5
11f
100
AcDbEntity
  8
Ebene_1
 62
7
100
AcDbPolyline
 90
1
 70
1
 10
188.310160
 20
34.291700
 30
0.0
  0
SPLINE
  5
120
100
AcDbEntity
  8
Ebene_1
 62
7
100
AcDbSpline
 70
8
 71
3
 72
8
 73
4
 74
0
 40
0
 40
0
 40
0
 40
0
 40
1
 40
1
 40
1
 40
1
 10
36.567665
 20
265.000000
 30
0.0
 10
36.567665
 20
264.349306
 30
0.0
 10
36.309178
 20
263.725264
 30
0.0
 10
35.849068
 20
263.265154
 30
0.0
  0
SPLINE
  5
121
100
AcDbEntity
  8
Ebene_1
 62
7
100
AcDbSpline
 70
8
 71
3
 72
8
 73
4
 74
0
 40
0
 40
0
 40
0
 40
0
 40
1
 40
1
 40
1
 40
1
 10
35.849068
 20
263.265154
 30
0.0
 10
35.388958
 20
262.805044
 30
0.0
 10
34.764916
 20
262.546557
 30
0.0
 10
34.114222
 20
262.546557
 30
0.0
  0
SPLINE
  5
122
100
AcDbEntity
  8
Ebene_1
 62
7
100
AcDbSpline
 70
8
 71
3
 72
8
 73
4
 74
0
 40
0
 40
0
 40
0
 40
0
 40
1
 40
1
 40
1
 40
1
 10
34.114222
 20
262.546557
 30
0.0
 10
32.759223
 20
262.546557
 30
0.0
 10
31.660780
 20
263.645001
 30
0.0
 10
31.660780
 20
265.000000
 30
0.0
  0
SPLINE
  5
123
100
AcDbEntity
  8
Ebene_1
 62
7
100
AcDbSpline
 70
8
 71
3
 72
8
 73
4
 74
0
 40
0
 40
0
 40
0
 40
0
 40
1
 40
1
 40
1
 40
1
 10
31.660780
 20
265.000000
 30
0.0
 10
31.660780
 20
266.354999
 30
0.0
 10
32.759223
 20
267.453443
 30
0.0
 10
34.114222
 20
267.453443
 30
0.0
  0
SPLINE
  5
124
100
AcDbEntity
  8
Ebene_1
 62
7
100
AcDbSpline
 70
8
 71
3
 72
8
 73
4
 74
0
 40
0
 40
0
 40
0
 40
0
 40
1
 40
1
 40
1
 40
1
 10
34.114222
 20
267.453443
 30
0.0
 10
34.764916
 20
267.453443
 30
0.0
 10
35.388958
 20
267.194956
 30
0.0
 10
35.849068
 20
266.734846
 30
0.0
  0
SPLINE
  5
125
100
AcDbEntity
  8
Ebene_1
 62
7
100
AcDbSpline
 70
8
 71
3
 72
8
 73
4
 74
0
 40
0
 40
0
 40
0
 40
0
 40
1
 40
1
 40
1
 40
1
 10
35.849068
 20
266.734846
 30
0.0
 10
36.309178
 20
266.274736
 30
0.0
 10
36.567665
 20
265.650694
 30
0.0
 10
36.567665
 20
265.000000
 30
0.0
  0
LWPOLYLINE
  5
126
100
AcDbEntity
  8
Ebene_1
 62
7
100
AcDbPolyline
 90
1
 70
1
 10
188.681090
 20
265.000000
 30
0.0
  0
SPLINE
  5
127
100
AcDbEntity
  8
Ebene_1
 62
7
100
AcDbSpline
 70
8
 71
3
 72
8
 73
4
 74
0
 40
0
 40
0
 40
0
 40
0
 40
1
 40
1
 40
1
 40
1
 10
109.784750
 20
71.191130
 30
0.0
 10
109.537040
 20
72.497590
 30
0.0
 10
88.221459
 20
191.501550
 30
0.0
 10
88.221459
 20
191.578090
 30
0.0
  0
SPLINE
  5
128
100
AcDbEntity
  8
Ebene_1
 62
7
100
AcDbSpline
 70
8
 71
3
 72
8
 73
4
 74
0
 40
0
 40
0
 40
0
 40
0
 40
1
 40
1
 40
1
 40
1
 10
88.221459
 20
191.578090
 30
0.0
 10
88.221459
 20
191.686780
 30
0.0
 10
81.925750
 20
191.527790
 30
0.0
 10
78.761215
 20
191.338880
 30
0.0
  0
SPLINE
  5
129
100
AcDbEntity
  8
Ebene_1
 62
7
100
AcDbSpline
 70
8
 71
3
 72
8
 73
4
 74
0
 40
0
 40
0
 40
0
 40
0
 40
1
 40
1
 40
1
 40
1
 10
78.761215
 20
191.338880
 30
0.0
 10
69.343740
 20
190.777270
 30
0.0
 10
64.500072
 20
189.128090
 30
0.0
 10
62.159001
 20
185.686160
 30
0.0
  0
SPLINE
  5
12a
100
AcDbEntity
  8
Ebene_1
 62
7
100
AcDbSpline
 70
8
 71
3
 72
8
 73
4
 74
0
 40
0
 40
0
 40
0
 40
0
 40
1
 40
1
 40
1
 40
1
 10
62.159001
 20
185.686160
 30
0.0
 10
61.295858
 20
184.417140
 30
0.0
 10
60.935526
 20
183.512300
 30
0.0
 10
60.558805
 20
181.668390
 30
0.0
  0
SPLINE
  5
12b
100
AcDbEntity
  8
Ebene_1
 62
7
100
AcDbSpline
 70
8
 71
3
 72
8
 73
4
 74
0
 40
0
 40
0
 40
0
 40
0
 40
1
 40
1
 40
1
 40
1
 10
60.558805
 20
181.668390
 30
0.0
 10
60.405762
 20
180.919170
 30
0.0
 10
60.252618
 20
180.278290
 30
0.0
 10
60.218512
 20
180.244170
 30
0.0
  0
SPLINE
  5
12c
100
AcDbEntity
  8
Ebene_1
 62
7
100
AcDbSpline
 70
8
 71
3
 72
8
 73
4
 74
0
 40
0
 40
0
 40
0
 40
0
 40
1
 40
1
 40
1
 40
1
 10
60.218512
 20
180.244170
 30
0.0
 10
60.103874
 20
180.129530
 30
0.0
 10
56.190159
 20
181.989140
 30
0.0
 10
54.229276
 20
183.090010
 30
0.0
  0
SPLINE
  5
12d
100
AcDbEntity
  8
Ebene_1
 62
7
100
AcDbSpline
 70
8
 71
3
 72
8
 73
4
 74
0
 40
0
 40
0
 40
0
 40
0
 40
1
 40
1
 40
1
 40
1
 10
54.229276
 20
183.090010
 30
0.0
 10
48.364217
 20
186.382770
 30
0.0
 10
43.759680
 20
190.195240
 30
0.0
 10
40.627318
 20
194.352220
 30
0.0
  0
SPLINE
  5
12e
100
AcDbEntity
  8
Ebene_1
 62
7
100
AcDbSpline
 70
8
 71
3
 72
8
 73
4
 74
0
 40
0
 40
0
 40
0
 40
0
 40
1
 40
1
 40
1
 40
1
 10
40.627318
 20
194.352220
 30
0.0
 10
40.167128
 20
194.962920
 30
0.0
 10
39.790623
 20
195.512600
 30
0.0
 10
39.790623
 20
195.573680
 30
0.0
  0
SPLINE
  5
12f
100
AcDbEntity
  8
Ebene_1
 62
7
100
AcDbSpline
 70
8
 71
3
 72
8
 73
4
 74
0
 40
0
 40
0
 40
0
 40
0
 40
1
 40
1
 40
1
 40
1
 10
39.790623
 20
195.573680
 30
0.0
 10
39.790623
 20
195.634780
 30
0.0
 10
40.028895
 20
195.783390
 30
0.0
 10
40.320101
 20
195.903910
 30
0.0
  0
SPLINE
  5
130
100
AcDbEntity
  8
Ebene_1
 62
7
100
AcDbSpline
 70
8
 71
3
 72
8
 73
4
 74
0
 40
0
 40
0
 40
0
 40
0
 40
1
 40
1
 40
1
 40
1
 10
40.320101
 20
195.903910
 30
0.0
 10
40.611317
 20
196.024420
 30
0.0
 10
41.866231
 20
196.565300
 30
0.0
 10
43.108761
 20
197.105860
 30
0.0
  0
SPLINE
  5
131
100
AcDbEntity
  8
Ebene_1
 62
7
100
AcDbSpline
 70
8
 71
3
 72
8
 73
4
 74
0
 40
0
 40
0
 40
0
 40
0
 40
1
 40
1
 40
1
 40
1
 10
43.108761
 20
197.105860
 30
0.0
 10
57.345136
 20
203.299361
 30
0.0
 10
75.850300
 20
207.628468
 30
0.0
 10
92.457389
 20
208.650545
 30
0.0
  0
LWPOLYLINE
  5
132
100
AcDbEntity
  8
Ebene_1
 62
7
100
AcDbPolyline
 90
1
 70
1
 10
36.567665
 20
265.000000
 30
0.0
  0
SPLINE
  5
133
100
AcDbEntity
  8
Ebene_1
 62
7
100
AcDbSpline
 70
8
 71
3
 72
8
 73
4
 74
0
 40
0
 40
0
 40
0
 40
0
 40
1
 40
1
 40
1
 40
1
 10
101.897740
 20
199.044900
 30
0.0
 10
106.274510
 20
193.711600
 30
0.0
 10
109.903940
 20
189.401450
 30
0.0
 10
109.963120
 20
189.466750
 30
0.0
  0
SPLINE
  5
134
100
AcDbEntity
  8
Ebene_1
 62
7
100
AcDbSpline
 70
8
 71
3
 72
8
 73
4
 74
0
 40
0
 40
0
 40
0
 40
0
 40
1
 40
1
 40
1
 40
1
 10
109.963120
 20
189.466750
 30
0.0
 10
110.022220
 20
189.531950
 30
0.0
 10
113.574580
 20
193.855380
 30
0.0
 10
117.857050
 20
199.074170
 30
0.0
  0
SPLINE
  5
135
100
AcDbEntity
  8
Ebene_1
 62
7
100
AcDbSpline
 70
8
 71
3
 72
8
 73
4
 74
0
 40
0
 40
0
 40
0
 40
0
 40
1
 40
1
 40
1
 40
1
 10
117.857050
 20
199.074170
 30
0.0
 10
122.139550
 20
204.292934
 30
0.0
 10
125.708830
 20
208.603259
 30
0.0
 10
125.788740
 20
208.652672
 30
0.0
  0
SPLINE
  5
136
100
AcDbEntity
  8
Ebene_1
 62
7
100
AcDbSpline
 70
8
 71
3
 72
8
 73
4
 74
0
 40
0
 40
0
 40
0
 40
0
 40
1
 40
1
 40
1
 40
1
 10
125.788740
 20
208.652672
 30
0.0
 10
125.955530
 20
208.755732
 30
0.0
 10
129.517120
 20
208.526023
 30
0.0
 10
132.628150
 20
208.211557
 30
0.0
  0
SPLINE
  5
137
100
AcDbEntity
  8
Ebene_1
 62
7
100
AcDbSpline
 70
8
 71
3
 72
8
 73
4
 74
0
 40
0
 40
0
 40
0
 40
0
 40
1
 40
1
 40
1
 40
1
 10
132.628150
 20
208.211557
 30
0.0
 10
145.747840
 20
206.885379
 30
0.0
 10
158.924550
 20
203.849470
 30
0.0
 10
170.892740
 20
199.395380
 30
0.0
  0
SPLINE
  5
138
100
AcDbEntity
  8
Ebene_1
 62
7
100
AcDbSpline
 70
8
 71
3
 72
8
 73
4
 74
0
 40
0
 40
0
 40
0
 40
0
 40
1
 40
1
 40
1
 40
1
 10
170.892740
 20
199.395380
 30
0.0
 10
173.717290
 20
198.344180
 30
0.0
 10
178.260720
 20
196.467980
 30
0.0
 10
179.445660
 20
195.863470
 30
0.0
  0
LWPOLYLINE
  5
139
100
AcDbEntity
  8
Ebene_1
 62
7
100
AcDbPolyline
 90
3
 70
0
 10
92.457389
 20
208.650545
 30
0.0
 10
93.939954
 20
208.741795
 30
0.0
 10
101.897740
 20
199.044900
 30
0.0
  0
SPLINE
  5
13a
100
AcDbEntity
  8
Ebene_1
 62
7
100
AcDbSpline
 70
8
 71
3
 72
8
 73
4
 74
0
 40
0
 40
0
 40
0
 40
0
 40
1
 40
1
 40
1
 40
1
 10
179.285170
 20
194.599290
 30
0.0
 10
176.510110
 20
190.783920
 30
0.0
 10
172.159700
 20
187.034510
 30
0.0
 10
166.772120
 20
183.814900
 30
0.0
  0
SPLINE
  5
13b
100
AcDbEntity
  8
Ebene_1
 62
7
100
AcDbSpline
 70
8
 71
3
 72
8
 73
4
 74
0
 40
0
 40
0
 40
0
 40
0
 40
1
 40
1
 40
1
 40
1
 10
166.772120
 20
183.814900
 30
0.0
 10
165.290420
 20
182.929430
 30
0.0
 10
160.385530
 20
180.467610
 30
0.0
 10
159.716760
 20
180.273680
 30
0.0
  0
SPLINE
  5
13c
100
AcDbEntity
  8
Ebene_1
 62
7
100
AcDbSpline
 70
8
 71
3
 72
8
 73
4
 74
0
 40
0
 40
0
 40
0
 40
0
 40
1
 40
1
 40
1
 40
1
 10
159.716760
 20
180.273680
 30
0.0
 10
159.440780
 20
180.193580
 30
0.0
 10
159.403780
 20
180.253780
 30
0.0
 10
159.311960
 20
180.932020
 30
0.0
  0
SPLINE
  5
13d
100
AcDbEntity
  8
Ebene_1
 62
7
100
AcDbSpline
 70
8
 71
3
 72
8
 73
4
 74
0
 40
0
 40
0
 40
0
 40
0
 40
1
 40
1
 40
1
 40
1
 10
159.311960
 20
180.932020
 30
0.0
 10
159.256360
 20
181.342530
 30
0.0
 10
159.055660
 20
182.216790
 30
0.0
 10
158.865900
 20
182.874790
 30
0.0
  0
SPLINE
  5
13e
100
AcDbEntity
  8
Ebene_1
 62
7
100
AcDbSpline
 70
8
 71
3
 72
8
 73
4
 74
0
 40
0
 40
0
 40
0
 40
0
 40
1
 40
1
 40
1
 40
1
 10
158.865900
 20
182.874790
 30
0.0
 10
157.371660
 20
188.056510
 30
0.0
 10
152.956690
 20
190.357430
 30
0.0
 10
142.864990
 20
191.213840
 30
0.0
  0
SPLINE
  5
13f
100
AcDbEntity
  8
Ebene_1
 62
7
100
AcDbSpline
 70
8
 71
3
 72
8
 73
4
 74
0
 40
0
 40
0
 40
0
 40
0
 40
1
 40
1
 40
1
 40
1
 10
142.864990
 20
191.213840
 30
0.0
 10
140.667630
 20
191.400310
 30
0.0
 10
131.528940
 20
191.639620
 30
0.0
 10
131.414110
 20
191.513700
 30
0.0
  0
SPLINE
  5
140
100
AcDbEntity
  8
Ebene_1
 62
7
100
AcDbSpline
 70
8
 71
3
 72
8
 73
4
 74
0
 40
0
 40
0
 40
0
 40
0
 40
1
 40
1
 40
1
 40
1
 10
131.414110
 20
191.513700
 30
0.0
 10
131.355410
 20
191.449300
 30
0.0
 10
113.713540
 20
92.483810
 30
0.0
 10
109.990320
 20
71.332340
 30
0.0
  0
LWPOLYLINE
  5
141
100
AcDbEntity
  8
Ebene_1
 62
7
100
AcDbPolyline
 90
3
 70
0
 10
179.445660
 20
195.863470
 30
0.0
 10
179.999240
 20
195.581060
 30
0.0
 10
179.285170
 20
194.599290
 30
0.0
  0
SPLINE
  5
142
100
AcDbEntity
  8
Ebene_1
 62
7
100
AcDbSpline
 70
8
 71
3
 72
8
 73
4
 74
0
 40
0
 40
0
 40
0
 40
0
 40
1
 40
1
 40
1
 40
1
 10
180.000000
 20
200.912581
 30
0.0
 10
163.136220
 20
208.024814
 30
0.0
 10
143.976980
 20
212.550559
 30
0.0
 10
124.862270
 20
213.937070
 30
0.0
  0
SPLINE
  5
143
100
AcDbEntity
  8
Ebene_1
 62
7
100
AcDbSpline
 70
8
 71
3
 72
8
 73
4
 74
0
 40
0
 40
0
 40
0
 40
0
 40
1
 40
1
 40
1
 40
1
 10
124.862270
 20
213.937070
 30
0.0
 10
118.721140
 20
214.382523
 30
0.0
 10
105.962950
 20
214.528400
 30
0.0
 10
99.785063
 20
214.223797
 30
0.0
  0
SPLINE
  5
144
100
AcDbEntity
  8
Ebene_1
 62
7
100
AcDbSpline
 70
8
 71
3
 72
8
 73
4
 74
0
 40
0
 40
0
 40
0
 40
0
 40
1
 40
1
 40
1
 40
1
 10
99.785063
 20
214.223797
 30
0.0
 10
78.375863
 20
213.168209
 30
0.0
 10
58.678997
 20
208.805144
 30
0.0
 10
39.749159
 20
200.925188
 30
0.0
  0
SPLINE
  5
145
100
AcDbEntity
  8
Ebene_1
 62
7
100
AcDbSpline
 70
8
 71
3
 72
8
 73
4
 74
0
 40
0
 40
0
 40
0
 40
0
 40
1
 40
1
 40
1
 40
1
 10
39.749159
 20
200.925188
 30
0.0
 10
38.444963
 20
200.382308
 30
0.0
 10
37.296716
 20
199.969270
 30
0.0
 10
37.197475
 20
200.007354
 30
0.0
  0
SPLINE
  5
146
100
AcDbEntity
  8
Ebene_1
 62
7
100
AcDbSpline
 70
8
 71
3
 72
8
 73
4
 74
0
 40
0
 40
0
 40
0
 40
0
 40
1
 40
1
 40
1
 40
1
 10
37.197475
 20
200.007354
 30
0.0
 10
37.098255
 20
200.045474
 30
0.0
 10
36.281711
 20
201.560225
 30
0.0
 10
35.383009
 20
203.373567
 30
0.0
  0
SPLINE
  5
147
100
AcDbEntity
  8
Ebene_1
 62
7
100
AcDbSpline
 70
8
 71
3
 72
8
 73
4
 74
0
 40
0
 40
0
 40
0
 40
0
 40
1
 40
1
 40
1
 40
1
 10
35.383009
 20
203.373567
 30
0.0
 10
33.701564
 20
206.766219
 30
0.0
 10
32.917976
 20
208.528617
 30
0.0
 10
33.037759
 20
208.648394
 30
0.0
  0
SPLINE
  5
148
100
AcDbEntity
  8
Ebene_1
 62
7
100
AcDbSpline
 70
8
 71
3
 72
8
 73
4
 74
0
 40
0
 40
0
 40
0
 40
0
 40
1
 40
1
 40
1
 40
1
 10
33.037759
 20
208.648394
 30
0.0
 10
33.160334
 20
208.770894
 30
0.0
 10
38.097105
 20
210.635970
 30
0.0
 10
40.990796
 20
211.652942
 30
0.0
  0
SPLINE
  5
149
100
AcDbEntity
  8
Ebene_1
 62
7
100
AcDbSpline
 70
8
 71
3
 72
8
 73
4
 74
0
 40
0
 40
0
 40
0
 40
0
 40
1
 40
1
 40
1
 40
1
 10
40.990796
 20
211.652942
 30
0.0
 10
68.118137
 20
221.186726
 30
0.0
 10
97.089405
 20
225.137534
 30
0.0
 10
124.509290
 20
223.042341
 30
0.0
  0
SPLINE
  5
14a
100
AcDbEntity
  8
Ebene_1
 62
7
100
AcDbSpline
 70
8
 71
3
 72
8
 73
4
 74
0
 40
0
 40
0
 40
0
 40
0
 40
1
 40
1
 40
1
 40
1
 10
124.509290
 20
223.042341
 30
0.0
 10
145.017700
 20
221.475260
 30
0.0
 10
164.345890
 20
217.149232
 30
0.0
 10
184.020720
 20
209.722520
 30
0.0
  0
SPLINE
  5
14b
100
AcDbEntity
  8
Ebene_1
 62
7
100
AcDbSpline
 70
8
 71
3
 72
8
 73
4
 74
0
 40
0
 40
0
 40
0
 40
0
 40
1
 40
1
 40
1
 40
1
 10
184.020720
 20
209.722520
 30
0.0
 10
185.485560
 20
209.169580
 30
0.0
 10
186.709240
 20
208.692004
 30
0.0
 10
186.740010
 20
208.661236
 30
0.0
  0
SPLINE
  5
14c
100
AcDbEntity
  8
Ebene_1
 62
7
100
AcDbSpline
 70
8
 71
3
 72
8
 73
4
 74
0
 40
0
 40
0
 40
0
 40
0
 40
1
 40
1
 40
1
 40
1
 10
186.740010
 20
208.661236
 30
0.0
 10
186.900830
 20
208.500411
 30
0.0
 10
182.966810
 20
200.287900
 30
0.0
 10
182.568200
 20
199.952330
 30
0.0
  0
SPLINE
  5
14d
100
AcDbEntity
  8
Ebene_1
 62
7
100
AcDbSpline
 70
8
 71
3
 72
8
 73
4
 74
0
 40
0
 40
0
 40
0
 40
0
 40
1
 40
1
 40
1
 40
1
 10
182.568200
 20
199.952330
 30
0.0
 10
182.514800
 20
199.907330
 30
0.0
 10
181.359010
 20
200.339409
 30
0.0
 10
180.000000
 20
200.912581
 30
0.0
  0
LWPOLYLINE
  5
14e
100
AcDbEntity
  8
Ebene_1
 62
7
100
AcDbPolyline
 90
3
 70
0
 10
109.990320
 20
71.332340
 30
0.0
 10
109.878480
 20
70.696940
 30
0.0
 10
109.784750
 20
71.191130
 30
0.0
  0
LWPOLYLINE
  5
14f
100
AcDbEntity
  8
Ebene_1
 62
7
100
AcDbPolyline
 90
1
 70
1
 10
180.000000
 20
200.912581
 30
0.0
  0
SPLINE
  5
150
100
AcDbEntity
  8
Ebene_1
 62
7
100
AcDbSpline
 70
8
 71
3
 72
8
 73
4
 74
0
 40
0
 40
0
 40
0
 40
0
 40
1
 40
1
 40
1
 40
1
 10
41.849251
 20
50.975170
 30
0.0
 10
47.551284
 20
50.975170
 30
0.0
 10
51.713112
 20
53.826190
 30
0.0
 10
51.713112
 20
59.233290
 30
0.0
  0
LWPOLYLINE
  5
151
100
AcDbEntity
  8
Ebene_1
 62
7
100
AcDbPolyline
 90
4
 70
0
 10
32.345864
 20
44.421110
 30
0.0
 10
38.703302
 20
44.421110
 30
0.0
 10
38.703302
 20
50.975170
 30
0.0
 10
41.849251
 20
50.975170
 30
0.0
  0
SPLINE
  5
152
100
AcDbEntity
  8
Ebene_1
 62
7
100
AcDbSpline
 70
8
 71
3
 72
8
 73
4
 74
0
 40
0
 40
0
 40
0
 40
0
 40
1
 40
1
 40
1
 40
1
 10
51.713112
 20
59.298790
 30
0.0
 10
51.713112
 20
64.378190
 30
0.0
 10
47.977298
 20
67.360280
 30
0.0
 10
42.176954
 20
67.360280
 30
0.0
  0
LWPOLYLINE
  5
153
100
AcDbEntity
  8
Ebene_1
 62
7
100
AcDbPolyline
 90
2
 70
0
 10
51.713112
 20
59.233290
 30
0.0
 10
51.713112
 20
59.298790
 30
0.0
  0
LWPOLYLINE
  5
154
100
AcDbEntity
  8
Ebene_1
 62
7
100
AcDbPolyline
 90
3
 70
0
 10
42.176954
 20
67.360280
 30
0.0
 10
32.345864
 20
67.360280
 30
0.0
 10
32.345864
 20
44.421110
 30
0.0
  0
SPLINE
  5
155
100
AcDbEntity
  8
Ebene_1
 62
7
100
AcDbSpline
 70
8
 71
3
 72
8
 73
4
 74
0
 40
0
 40
0
 40
0
 40
0
 40
1
 40
1
 40
1
 40
1
 10
41.685400
 20
62.018760
 30
0.0
 10
43.979321
 20
62.018760
 30
0.0
 10
45.355674
 20
60.970110
 30
0.0
 10
45.355674
 20
59.003900
 30
0.0
  0
LWPOLYLINE
  5
156
100
AcDbEntity
  8
Ebene_1
 62
7
100
AcDbPolyline
 90
3
 70
0
 10
38.703302
 20
55.956260
 30
0.0
 10
38.703302
 20
62.018760
 30
0.0
 10
41.685400
 20
62.018760
 30
0.0
  0
SPLINE
  5
157
100
AcDbEntity
  8
Ebene_1
 62
7
100
AcDbSpline
 70
8
 71
3
 72
8
 73
4
 74
0
 40
0
 40
0
 40
0
 40
0
 40
1
 40
1
 40
1
 40
1
 10
45.355674
 20
58.938400
 30
0.0
 10
45.355674
 20
57.136030
 30
0.0
 10
43.979321
 20
55.956300
 30
0.0
 10
41.718170
 20
55.956300
 30
0.0
  0
LWPOLYLINE
  5
158
100
AcDbEntity
  8
Ebene_1
 62
7
100
AcDbPolyline
 90
2
 70
0
 10
45.355674
 20
59.003900
 30
0.0
 10
45.355674
 20
58.938400
 30
0.0
  0
SPLINE
  5
159
100
AcDbEntity
  8
Ebene_1
 62
7
100
AcDbSpline
 70
8
 71
3
 72
8
 73
4
 74
0
 40
0
 40
0
 40
0
 40
0
 40
1
 40
1
 40
1
 40
1
 10
58.634303
 20
44.027870
 30
0.0
 10
60.960994
 20
44.027870
 30
0.0
 10
62.632279
 20
44.912670
 30
0.0
 10
63.844781
 20
46.256250
 30
0.0
  0
LWPOLYLINE
  5
15a
100
AcDbEntity
  8
Ebene_1
 62
7
100
AcDbPolyline
 90
2
 70
0
 10
41.718170
 20
55.956300
 30
0.0
 10
38.703302
 20
55.956260
 30
0.0
  0
SPLINE
  5
15b
100
AcDbEntity
  8
Ebene_1
 62
7
100
AcDbSpline
 70
8
 71
3
 72
8
 73
4
 74
0
 40
0
 40
0
 40
0
 40
0
 40
1
 40
1
 40
1
 40
1
 10
70.005597
 20
54.612680
 30
0.0
 10
70.005597
 20
57.103220
 30
0.0
 10
69.448502
 20
58.938360
 30
0.0
 10
68.104920
 20
60.249170
 30
0.0
  0
SPLINE
  5
15c
100
AcDbEntity
  8
Ebene_1
 62
7
100
AcDbSpline
 70
8
 71
3
 72
8
 73
4
 74
0
 40
0
 40
0
 40
0
 40
0
 40
1
 40
1
 40
1
 40
1
 10
68.104920
 20
60.249170
 30
0.0
 10
66.695797
 20
61.658290
 30
0.0
 10
64.532957
 20
62.412010
 30
0.0
 10
61.354238
 20
62.412010
 30
0.0
  0
SPLINE
  5
15d
100
AcDbEntity
  8
Ebene_1
 62
7
100
AcDbSpline
 70
8
 71
3
 72
8
 73
4
 74
0
 40
0
 40
0
 40
0
 40
0
 40
1
 40
1
 40
1
 40
1
 10
61.354238
 20
62.412010
 30
0.0
 10
58.306600
 20
62.412010
 30
0.0
 10
56.176530
 20
61.854910
 30
0.0
 10
54.177542
 20
61.035660
 30
0.0
  0
LWPOLYLINE
  5
15e
100
AcDbEntity
  8
Ebene_1
 62
7
100
AcDbPolyline
 90
4
 70
0
 10
63.844781
 20
46.256250
 30
0.0
 10
63.844781
 20
44.421110
 30
0.0
 10
70.005597
 20
44.421110
 30
0.0
 10
70.005597
 20
54.612680
 30
0.0
  0
SPLINE
  5
15f
100
AcDbEntity
  8
Ebene_1
 62
7
100
AcDbSpline
 70
8
 71
3
 72
8
 73
4
 74
0
 40
0
 40
0
 40
0
 40
0
 40
1
 40
1
 40
1
 40
1
 10
55.455583
 20
56.644430
 30
0.0
 10
57.028558
 20
57.267070
 30
0.0
 10
58.470451
 20
57.627540
 30
0.0
 10
60.338358
 20
57.627540
 30
0.0
  0
SPLINE
  5
160
100
AcDbEntity
  8
Ebene_1
 62
7
100
AcDbSpline
 70
8
 71
3
 72
8
 73
4
 74
0
 40
0
 40
0
 40
0
 40
0
 40
1
 40
1
 40
1
 40
1
 10
60.338358
 20
57.627540
 30
0.0
 10
62.730590
 20
57.627540
 30
0.0
 10
63.877551
 20
56.578890
 30
0.0
 10
63.877551
 20
54.743760
 30
0.0
  0
LWPOLYLINE
  5
161
100
AcDbEntity
  8
Ebene_1
 62
7
100
AcDbPolyline
 90
2
 70
0
 10
54.177542
 20
61.035660
 30
0.0
 10
55.455583
 20
56.644430
 30
0.0
  0
SPLINE
  5
162
100
AcDbEntity
  8
Ebene_1
 62
7
100
AcDbSpline
 70
8
 71
3
 72
8
 73
4
 74
0
 40
0
 40
0
 40
0
 40
0
 40
1
 40
1
 40
1
 40
1
 10
63.877551
 20
54.448820
 30
0.0
 10
62.861672
 20
54.809300
 30
0.0
 10
61.255927
 20
55.137000
 30
0.0
 10
59.617412
 20
55.137000
 30
0.0
  0
SPLINE
  5
163
100
AcDbEntity
  8
Ebene_1
 62
7
100
AcDbSpline
 70
8
 71
3
 72
8
 73
4
 74
0
 40
0
 40
0
 40
0
 40
0
 40
1
 40
1
 40
1
 40
1
 10
59.617412
 20
55.137000
 30
0.0
 10
55.455583
 20
55.137000
 30
0.0
 10
52.670108
 20
53.236320
 30
0.0
 10
52.670108
 20
49.566050
 30
0.0
  0
LWPOLYLINE
  5
164
100
AcDbEntity
  8
Ebene_1
 62
7
100
AcDbPolyline
 90
2
 70
0
 10
63.877551
 20
54.743760
 30
0.0
 10
63.877551
 20
54.448820
 30
0.0
  0
SPLINE
  5
165
100
AcDbEntity
  8
Ebene_1
 62
7
100
AcDbSpline
 70
8
 71
3
 72
8
 73
4
 74
0
 40
0
 40
0
 40
0
 40
0
 40
1
 40
1
 40
1
 40
1
 10
52.670108
 20
49.500550
 30
0.0
 10
52.670108
 20
45.961360
 30
0.0
 10
55.258962
 20
44.027910
 30
0.0
 10
58.634303
 20
44.027910
 30
0.0
  0
LWPOLYLINE
  5
166
100
AcDbEntity
  8
Ebene_1
 62
7
100
AcDbPolyline
 90
2
 70
0
 10
52.670108
 20
49.566050
 30
0.0
 10
52.670108
 20
49.500550
 30
0.0
  0
SPLINE
  5
167
100
AcDbEntity
  8
Ebene_1
 62
7
100
AcDbSpline
 70
8
 71
3
 72
8
 73
4
 74
0
 40
0
 40
0
 40
0
 40
0
 40
1
 40
1
 40
1
 40
1
 10
60.862683
 20
47.927530
 30
0.0
 10
59.584641
 20
47.927530
 30
0.0
 10
58.667073
 20
48.648480
 30
0.0
 10
58.667073
 20
49.860980
 30
0.0
  0
LWPOLYLINE
  5
168
100
AcDbEntity
  8
Ebene_1
 62
7
100
AcDbPolyline
 90
1
 70
1
 10
58.634303
 20
44.027910
 30
0.0
  0
SPLINE
  5
169
100
AcDbEntity
  8
Ebene_1
 62
7
100
AcDbSpline
 70
8
 71
3
 72
8
 73
4
 74
0
 40
0
 40
0
 40
0
 40
0
 40
1
 40
1
 40
1
 40
1
 10
58.667073
 20
49.926480
 30
0.0
 10
58.667073
 20
51.237290
 30
0.0
 10
59.715723
 20
52.122090
 30
0.0
 10
61.518089
 20
52.122090
 30
0.0
  0
SPLINE
  5
16a
100
AcDbEntity
  8
Ebene_1
 62
7
100
AcDbSpline
 70
8
 71
3
 72
8
 73
4
 74
0
 40
0
 40
0
 40
0
 40
0
 40
1
 40
1
 40
1
 40
1
 10
61.518089
 20
52.122090
 30
0.0
 10
62.435658
 20
52.122090
 30
0.0
 10
63.320456
 20
51.925470
 30
0.0
 10
63.943092
 20
51.663310
 30
0.0
  0
LWPOLYLINE
  5
16b
100
AcDbEntity
  8
Ebene_1
 62
7
100
AcDbPolyline
 90
2
 70
0
 10
58.667073
 20
49.860980
 30
0.0
 10
58.667073
 20
49.926480
 30
0.0
  0
SPLINE
  5
16c
100
AcDbEntity
  8
Ebene_1
 62
7
100
AcDbSpline
 70
8
 71
3
 72
8
 73
4
 74
0
 40
0
 40
0
 40
0
 40
0
 40
1
 40
1
 40
1
 40
1
 10
63.943092
 20
50.844050
 30
0.0
 10
63.943092
 20
49.074450
 30
0.0
 10
62.665050
 20
47.927490
 30
0.0
 10
60.862683
 20
47.927490
 30
0.0
  0
LWPOLYLINE
  5
16d
100
AcDbEntity
  8
Ebene_1
 62
7
100
AcDbPolyline
 90
2
 70
0
 10
63.943092
 20
51.663310
 30
0.0
 10
63.943092
 20
50.844050
 30
0.0
  0
LWPOLYLINE
  5
16e
100
AcDbEntity
  8
Ebene_1
 62
7
100
AcDbPolyline
 90
1
 70
1
 10
60.862683
 20
47.927490
 30
0.0
  0
SPLINE
  5
16f
100
AcDbEntity
  8
Ebene_1
 62
7
100
AcDbSpline
 70
8
 71
3
 72
8
 73
4
 74
0
 40
0
 40
0
 40
0
 40
0
 40
1
 40
1
 40
1
 40
1
 10
79.430643
 20
49.926520
 30
0.0
 10
79.430643
 20
54.022810
 30
0.0
 10
81.265780
 20
55.890720
 30
0.0
 10
84.510040
 20
55.890720
 30
0.0
  0
LWPOLYLINE
  5
170
100
AcDbEntity
  8
Ebene_1
 62
7
100
AcDbPolyline
 90
3
 70
0
 10
73.204286
 20
44.421110
 30
0.0
 10
79.430643
 20
44.421110
 30
0.0
 10
79.430643
 20
49.926520
 30
0.0
  0
SPLINE
  5
171
100
AcDbEntity
  8
Ebene_1
 62
7
100
AcDbSpline
 70
8
 71
3
 72
8
 73
4
 74
0
 40
0
 40
0
 40
0
 40
0
 40
1
 40
1
 40
1
 40
1
 10
85.034365
 20
62.444780
 30
0.0
 10
82.085037
 20
62.575860
 30
0.0
 10
80.446522
 20
61.002880
 30
0.0
 10
79.430643
 20
58.577880
 30
0.0
  0
LWPOLYLINE
  5
172
100
AcDbEntity
  8
Ebene_1
 62
7
100
AcDbPolyline
 90
3
 70
0
 10
84.510040
 20
55.890720
 30
0.0
 10
85.034365
 20
55.890720
 30
0.0
 10
85.034365
 20
62.444780
 30
0.0
  0
LWPOLYLINE
  5
173
100
AcDbEntity
  8
Ebene_1
 62
7
100
AcDbPolyline
 90
4
 70
0
 10
79.430643
 20
58.577880
 30
0.0
 10
79.430643
 20
62.149850
 30
0.0
 10
73.204286
 20
62.149850
 30
0.0
 10
73.204286
 20
44.421110
 30
0.0
  0
LWPOLYLINE
  5
174
100
AcDbEntity
  8
Ebene_1
 62
7
100
AcDbPolyline
 90
12
 70
1
 10
87.221269
 20
44.421110
 30
0.0
 10
93.447626
 20
44.421110
 30
0.0
 10
93.447626
 20
48.582940
 30
0.0
 10
95.053371
 20
50.450850
 30
0.0
 10
98.625334
 20
44.421110
 30
0.0
 10
105.474330
 20
44.421110
 30
0.0
 10
99.149658
 20
55.038690
 30
0.0
 10
105.310480
 20
62.149850
 30
0.0
 10
98.264860
 20
62.149850
 30
0.0
 10
93.447626
 20
56.218420
 30
0.0
 10
93.447626
 20
68.343430
 30
0.0
 10
87.221269
 20
68.343430
 30
0.0
  0
SPLINE
  5
175
100
AcDbEntity
  8
Ebene_1
 62
7
100
AcDbSpline
 70
8
 71
3
 72
8
 73
4
 74
0
 40
0
 40
0
 40
0
 40
0
 40
1
 40
1
 40
1
 40
1
 10
113.225020
 20
46.583950
 30
0.0
 10
114.371980
 20
45.240370
 30
0.0
 10
115.944950
 20
44.027870
 30
0.0
 10
118.632120
 20
44.027870
 30
0.0
  0
SPLINE
  5
176
100
AcDbEntity
  8
Ebene_1
 62
7
100
AcDbSpline
 70
8
 71
3
 72
8
 73
4
 74
0
 40
0
 40
0
 40
0
 40
0
 40
1
 40
1
 40
1
 40
1
 10
118.632120
 20
44.027870
 30
0.0
 10
122.826710
 20
44.027870
 30
0.0
 10
126.464220
 20
47.534290
 30
0.0
 10
126.464220
 20
53.301860
 30
0.0
  0
LWPOLYLINE
  5
177
100
AcDbEntity
  8
Ebene_1
 62
7
100
AcDbPolyline
 90
3
 70
0
 10
106.998660
 20
39.177860
 30
0.0
 10
113.225020
 20
39.177860
 30
0.0
 10
113.225020
 20
46.583950
 30
0.0
  0
SPLINE
  5
178
100
AcDbEntity
  8
Ebene_1
 62
7
100
AcDbSpline
 70
8
 71
3
 72
8
 73
4
 74
0
 40
0
 40
0
 40
0
 40
0
 40
1
 40
1
 40
1
 40
1
 10
126.464220
 20
53.367360
 30
0.0
 10
126.464220
 20
59.036630
 30
0.0
 10
122.826710
 20
62.543050
 30
0.0
 10
118.599340
 20
62.543050
 30
0.0
  0
SPLINE
  5
179
100
AcDbEntity
  8
Ebene_1
 62
7
100
AcDbSpline
 70
8
 71
3
 72
8
 73
4
 74
0
 40
0
 40
0
 40
0
 40
0
 40
1
 40
1
 40
1
 40
1
 10
118.599340
 20
62.543050
 30
0.0
 10
115.944950
 20
62.543050
 30
0.0
 10
114.437520
 20
61.265010
 30
0.0
 10
113.225020
 20
59.790340
 30
0.0
  0
LWPOLYLINE
  5
17a
100
AcDbEntity
  8
Ebene_1
 62
7
100
AcDbPolyline
 90
2
 70
0
 10
126.464220
 20
53.301860
 30
0.0
 10
126.464220
 20
53.367360
 30
0.0
  0
SPLINE
  5
17b
100
AcDbEntity
  8
Ebene_1
 62
7
100
AcDbSpline
 70
8
 71
3
 72
8
 73
4
 74
0
 40
0
 40
0
 40
0
 40
0
 40
1
 40
1
 40
1
 40
1
 10
116.698670
 20
49.238350
 30
0.0
 10
114.699680
 20
49.238350
 30
0.0
 10
113.093930
 20
50.909630
 30
0.0
 10
113.093930
 20
53.269090
 30
0.0
  0
LWPOLYLINE
  5
17c
100
AcDbEntity
  8
Ebene_1
 62
7
100
AcDbPolyline
 90
4
 70
0
 10
113.225020
 20
59.790340
 30
0.0
 10
113.225020
 20
62.149810
 30
0.0
 10
106.998660
 20
62.149810
 30
0.0
 10
106.998660
 20
39.177860
 30
0.0
  0
SPLINE
  5
17d
100
AcDbEntity
  8
Ebene_1
 62
7
100
AcDbSpline
 70
8
 71
3
 72
8
 73
4
 74
0
 40
0
 40
0
 40
0
 40
0
 40
1
 40
1
 40
1
 40
1
 10
113.093930
 20
53.334590
 30
0.0
 10
113.093930
 20
55.661290
 30
0.0
 10
114.699680
 20
57.332570
 30
0.0
 10
116.698670
 20
57.332570
 30
0.0
  0
SPLINE
  5
17e
100
AcDbEntity
  8
Ebene_1
 62
7
100
AcDbSpline
 70
8
 71
3
 72
8
 73
4
 74
0
 40
0
 40
0
 40
0
 40
0
 40
1
 40
1
 40
1
 40
1
 10
116.698670
 20
57.332570
 30
0.0
 10
118.730430
 20
57.332570
 30
0.0
 10
120.336170
 20
55.661290
 30
0.0
 10
120.336170
 20
53.334590
 30
0.0
  0
LWPOLYLINE
  5
17f
100
AcDbEntity
  8
Ebene_1
 62
7
100
AcDbPolyline
 90
2
 70
0
 10
113.093930
 20
53.269090
 30
0.0
 10
113.093930
 20
53.334590
 30
0.0
  0
SPLINE
  5
180
100
AcDbEntity
  8
Ebene_1
 62
7
100
AcDbSpline
 70
8
 71
3
 72
8
 73
4
 74
0
 40
0
 40
0
 40
0
 40
0
 40
1
 40
1
 40
1
 40
1
 10
120.336170
 20
53.269090
 30
0.0
 10
120.336170
 20
50.876860
 30
0.0
 10
118.730430
 20
49.238350
 30
0.0
 10
116.698670
 20
49.238350
 30
0.0
  0
LWPOLYLINE
  5
181
100
AcDbEntity
  8
Ebene_1
 62
7
100
AcDbPolyline
 90
2
 70
0
 10
120.336170
 20
53.334590
 30
0.0
 10
120.336170
 20
53.269090
 30
0.0
  0
LWPOLYLINE
  5
182
100
AcDbEntity
  8
Ebene_1
 62
7
100
AcDbPolyline
 90
1
 70
1
 10
116.698670
 20
49.238350
 30
0.0
  0
SPLINE
  5
183
100
AcDbEntity
  8
Ebene_1
 62
7
100
AcDbSpline
 70
8
 71
3
 72
8
 73
4
 74
0
 40
0
 40
0
 40
0
 40
0
 40
1
 40
1
 40
1
 40
1
 10
144.080310
 20
44.027870
 30
0.0
 10
146.407000
 20
44.027870
 30
0.0
 10
148.078280
 20
44.912670
 30
0.0
 10
149.290780
 20
46.256250
 30
0.0
  0
LWPOLYLINE
  5
184
100
AcDbEntity
  8
Ebene_1
 62
7
100
AcDbPolyline
 90
4
 70
1
 10
129.275300
 20
44.421110
 30
0.0
 10
135.501660
 20
44.421110
 30
0.0
 10
135.501660
 20
68.343430
 30
0.0
 10
129.275300
 20
68.343430
 30
0.0
  0
SPLINE
  5
185
100
AcDbEntity
  8
Ebene_1
 62
7
100
AcDbSpline
 70
8
 71
3
 72
8
 73
4
 74
0
 40
0
 40
0
 40
0
 40
0
 40
1
 40
1
 40
1
 40
1
 10
155.451600
 20
54.612680
 30
0.0
 10
155.451600
 20
57.103220
 30
0.0
 10
154.894510
 20
58.938360
 30
0.0
 10
153.550920
 20
60.249170
 30
0.0
  0
SPLINE
  5
186
100
AcDbEntity
  8
Ebene_1
 62
7
100
AcDbSpline
 70
8
 71
3
 72
8
 73
4
 74
0
 40
0
 40
0
 40
0
 40
0
 40
1
 40
1
 40
1
 40
1
 10
153.550920
 20
60.249170
 30
0.0
 10
152.141800
 20
61.658290
 30
0.0
 10
149.978960
 20
62.412010
 30
0.0
 10
146.800240
 20
62.412010
 30
0.0
  0
SPLINE
  5
187
100
AcDbEntity
  8
Ebene_1
 62
7
100
AcDbSpline
 70
8
 71
3
 72
8
 73
4
 74
0
 40
0
 40
0
 40
0
 40
0
 40
1
 40
1
 40
1
 40
1
 10
146.800240
 20
62.412010
 30
0.0
 10
143.752600
 20
62.412010
 30
0.0
 10
141.622530
 20
61.854910
 30
0.0
 10
139.623540
 20
61.035660
 30
0.0
  0
LWPOLYLINE
  5
188
100
AcDbEntity
  8
Ebene_1
 62
7
100
AcDbPolyline
 90
4
 70
0
 10
149.290780
 20
46.256250
 30
0.0
 10
149.290780
 20
44.421110
 30
0.0
 10
155.451600
 20
44.421110
 30
0.0
 10
155.451600
 20
54.612680
 30
0.0
  0
SPLINE
  5
189
100
AcDbEntity
  8
Ebene_1
 62
7
100
AcDbSpline
 70
8
 71
3
 72
8
 73
4
 74
0
 40
0
 40
0
 40
0
 40
0
 40
1
 40
1
 40
1
 40
1
 10
140.901590
 20
56.644430
 30
0.0
 10
142.474560
 20
57.267070
 30
0.0
 10
143.916450
 20
57.627540
 30
0.0
 10
145.784360
 20
57.627540
 30
0.0
  0
SPLINE
  5
18a
100
AcDbEntity
  8
Ebene_1
 62
7
100
AcDbSpline
 70
8
 71
3
 72
8
 73
4
 74
0
 40
0
 40
0
 40
0
 40
0
 40
1
 40
1
 40
1
 40
1
 10
145.784360
 20
57.627540
 30
0.0
 10
148.176590
 20
57.627540
 30
0.0
 10
149.323550
 20
56.578890
 30
0.0
 10
149.323550
 20
54.743760
 30
0.0
  0
LWPOLYLINE
  5
18b
100
AcDbEntity
  8
Ebene_1
 62
7
100
AcDbPolyline
 90
2
 70
0
 10
139.623540
 20
61.035660
 30
0.0
 10
140.901590
 20
56.644430
 30
0.0
  0
SPLINE
  5
18c
100
AcDbEntity
  8
Ebene_1
 62
7
100
AcDbSpline
 70
8
 71
3
 72
8
 73
4
 74
0
 40
0
 40
0
 40
0
 40
0
 40
1
 40
1
 40
1
 40
1
 10
149.323550
 20
54.448820
 30
0.0
 10
148.307670
 20
54.809300
 30
0.0
 10
146.701930
 20
55.137000
 30
0.0
 10
145.063410
 20
55.137000
 30
0.0
  0
SPLINE
  5
18d
100
AcDbEntity
  8
Ebene_1
 62
7
100
AcDbSpline
 70
8
 71
3
 72
8
 73
4
 74
0
 40
0
 40
0
 40
0
 40
0
 40
1
 40
1
 40
1
 40
1
 10
145.063410
 20
55.137000
 30
0.0
 10
140.901590
 20
55.137000
 30
0.0
 10
138.116110
 20
53.236320
 30
0.0
 10
138.116110
 20
49.566050
 30
0.0
  0
LWPOLYLINE
  5
18e
100
AcDbEntity
  8
Ebene_1
 62
7
100
AcDbPolyline
 90
2
 70
0
 10
149.323550
 20
54.743760
 30
0.0
 10
149.323550
 20
54.448820
 30
0.0
  0
SPLINE
  5
18f
100
AcDbEntity
  8
Ebene_1
 62
7
100
AcDbSpline
 70
8
 71
3
 72
8
 73
4
 74
0
 40
0
 40
0
 40
0
 40
0
 40
1
 40
1
 40
1
 40
1
 10
138.116110
 20
49.500550
 30
0.0
 10
138.116110
 20
45.961360
 30
0.0
 10
140.704960
 20
44.027910
 30
0.0
 10
144.080310
 20
44.027910
 30
0.0
  0
LWPOLYLINE
  5
190
100
AcDbEntity
  8
Ebene_1
 62
7
100
AcDbPolyline
 90
2
 70
0
 10
138.116110
 20
49.566050
 30
0.0
 10
138.116110
 20
49.500550
 30
0.0
  0
SPLINE
  5
191
100
AcDbEntity
  8
Ebene_1
 62
7
100
AcDbSpline
 70
8
 71
3
 72
8
 73
4
 74
0
 40
0
 40
0
 40
0
 40
0
 40
1
 40
1
 40
1
 40
1
 10
146.308690
 20
47.927530
 30
0.0
 10
145.030640
 20
47.927530
 30
0.0
 10
144.113080
 20
48.648480
 30
0.0
 10
144.113080
 20
49.860980
 30
0.0
  0
LWPOLYLINE
  5
192
100
AcDbEntity
  8
Ebene_1
 62
7
100
AcDbPolyline
 90
1
 70
1
 10
144.080310
 20
44.027910
 30
0.0
  0
SPLINE
  5
193
100
AcDbEntity
  8
Ebene_1
 62
7
100
AcDbSpline
 70
8
 71
3
 72
8
 73
4
 74
0
 40
0
 40
0
 40
0
 40
0
 40
1
 40
1
 40
1
 40
1
 10
144.113080
 20
49.926480
 30
0.0
 10
144.113080
 20
51.237290
 30
0.0
 10
145.161730
 20
52.122090
 30
0.0
 10
146.964090
 20
52.122090
 30
0.0
  0
SPLINE
  5
194
100
AcDbEntity
  8
Ebene_1
 62
7
100
AcDbSpline
 70
8
 71
3
 72
8
 73
4
 74
0
 40
0
 40
0
 40
0
 40
0
 40
1
 40
1
 40
1
 40
1
 10
146.964090
 20
52.122090
 30
0.0
 10
147.881660
 20
52.122090
 30
0.0
 10
148.766460
 20
51.925470
 30
0.0
 10
149.389090
 20
51.663310
 30
0.0
  0
LWPOLYLINE
  5
195
100
AcDbEntity
  8
Ebene_1
 62
7
100
AcDbPolyline
 90
2
 70
0
 10
144.113080
 20
49.860980
 30
0.0
 10
144.113080
 20
49.926480
 30
0.0
  0
SPLINE
  5
196
100
AcDbEntity
  8
Ebene_1
 62
7
100
AcDbSpline
 70
8
 71
3
 72
8
 73
4
 74
0
 40
0
 40
0
 40
0
 40
0
 40
1
 40
1
 40
1
 40
1
 10
149.389090
 20
50.844050
 30
0.0
 10
149.389090
 20
49.074450
 30
0.0
 10
148.111050
 20
47.927490
 30
0.0
 10
146.308690
 20
47.927490
 30
0.0
  0
LWPOLYLINE
  5
197
100
AcDbEntity
  8
Ebene_1
 62
7
100
AcDbPolyline
 90
2
 70
0
 10
149.389090
 20
51.663310
 30
0.0
 10
149.389090
 20
50.844050
 30
0.0
  0
SPLINE
  5
198
100
AcDbEntity
  8
Ebene_1
 62
7
100
AcDbSpline
 70
8
 71
3
 72
8
 73
4
 74
0
 40
0
 40
0
 40
0
 40
0
 40
1
 40
1
 40
1
 40
1
 10
165.503890
 20
44.060640
 30
0.0
 10
167.240720
 20
44.060640
 30
0.0
 10
168.715380
 20
44.453880
 30
0.0
 10
169.829570
 20
45.076520
 30
0.0
  0
LWPOLYLINE
  5
199
100
AcDbEntity
  8
Ebene_1
 62
7
100
AcDbPolyline
 90
1
 70
1
 10
146.308690
 20
47.927490
 30
0.0
  0
SPLINE
  5
19a
100
AcDbEntity
  8
Ebene_1
 62
7
100
AcDbSpline
 70
8
 71
3
 72
8
 73
4
 74
0
 40
0
 40
0
 40
0
 40
0
 40
1
 40
1
 40
1
 40
1
 10
169.829570
 20
49.959290
 30
0.0
 10
169.075850
 20
49.598820
 30
0.0
 10
168.289370
 20
49.369430
 30
0.0
 10
167.470110
 20
49.369430
 30
0.0
  0
SPLINE
  5
19b
100
AcDbEntity
  8
Ebene_1
 62
7
100
AcDbSpline
 70
8
 71
3
 72
8
 73
4
 74
0
 40
0
 40
0
 40
0
 40
0
 40
1
 40
1
 40
1
 40
1
 10
167.470110
 20
49.369430
 30
0.0
 10
166.323150
 20
49.369430
 30
0.0
 10
165.766050
 20
49.893750
 30
0.0
 10
165.766050
 20
51.139020
 30
0.0
  0
LWPOLYLINE
  5
19c
100
AcDbEntity
  8
Ebene_1
 62
7
100
AcDbPolyline
 90
2
 70
0
 10
169.829570
 20
45.076520
 30
0.0
 10
169.829570
 20
49.959290
 30
0.0
  0
SPLINE
  5
19d
100
AcDbEntity
  8
Ebene_1
 62
7
100
AcDbSpline
 70
8
 71
3
 72
8
 73
4
 74
0
 40
0
 40
0
 40
0
 40
0
 40
1
 40
1
 40
1
 40
1
 10
159.539700
 20
49.926520
 30
0.0
 10
159.539700
 20
45.699150
 30
0.0
 10
161.768080
 20
44.060640
 30
0.0
 10
165.503890
 20
44.060640
 30
0.0
  0
LWPOLYLINE
  5
19e
100
AcDbEntity
  8
Ebene_1
 62
7
100
AcDbPolyline
 90
12
 70
0
 10
165.766050
 20
51.139020
 30
0.0
 10
165.766050
 20
57.135990
 30
0.0
 10
169.895110
 20
57.135990
 30
0.0
 10
169.895110
 20
62.149850
 30
0.0
 10
165.766050
 20
62.149850
 30
0.0
 10
165.766050
 20
66.639380
 30
0.0
 10
159.539700
 20
66.639380
 30
0.0
 10
159.539700
 20
62.149850
 30
0.0
 10
157.442400
 20
62.149850
 30
0.0
 10
157.442400
 20
57.135990
 30
0.0
 10
159.539700
 20
57.135990
 30
0.0
 10
159.539700
 20
49.926520
 30
0.0
  0
LWPOLYLINE
  5
19f
100
AcDbEntity
  8
Ebene_1
 62
7
100
AcDbPolyline
 90
1
 70
1
 10
165.503890
 20
44.060640
 30
0.0
  0
LWPOLYLINE
  5
1a0
100
AcDbEntity
  8
Ebene_1
 62
7
100
AcDbPolyline
 90
10
 70
1
 10
171.980630
 20
44.421110
 30
0.0
 10
188.431320
 20
44.421110
 30
0.0
 10
188.431320
 20
49.369430
 30
0.0
 10
180.205970
 20
49.369430
 30
0.0
 10
188.431320
 20
58.053560
 30
0.0
 10
188.431320
 20
62.149850
 30
0.0
 10
172.275560
 20
62.149850
 30
0.0
 10
172.275560
 20
57.201530
 30
0.0
 10
180.173200
 20
57.201530
 30
0.0
 10
171.980630
 20
48.517400
 30
0.0
  0
LWPOLYLINE
  5
1a1
100
AcDbEntity
  8
Ebene_1
 62
7
100
AcDbPolyline
 90
9
 70
1
 10
162.339653
 20
246.547806
 30
0.0
 10
162.339653
 20
232.950367
 30
0.0
 10
162.830341
 20
232.950367
 30
0.0
 10
167.526378
 20
232.950367
 30
0.0
 10
167.526378
 20
241.361074
 30
0.0
 10
183.366421
 20
241.361074
 30
0.0
 10
183.366421
 20
232.950367
 30
0.0
 10
188.553155
 20
232.950367
 30
0.0
 10
188.553155
 20
246.547806
 30
0.0
  0
SPLINE
  5
1a2
100
AcDbEntity
  8
Ebene_1
 62
7
100
AcDbSpline
 70
8
 71
3
 72
8
 73
4
 74
0
 40
0
 40
0
 40
0
 40
0
 40
1
 40
1
 40
1
 40
1
 10
162.339653
 20
254.467824
 30
0.0
 10
162.339653
 20
253.192771
 30
0.0
 10
162.802922
 20
252.050524
 30
0.0
 10
163.692883
 20
251.136510
 30
0.0
  0
LWPOLYLINE
  5
1a3
100
AcDbEntity
  8
Ebene_1
 62
7
100
AcDbPolyline
 90
2
 70
0
 10
162.339653
 20
254.958513
 30
0.0
 10
162.339653
 20
254.467824
 30
0.0
  0
SPLINE
  5
1a4
100
AcDbEntity
  8
Ebene_1
 62
7
100
AcDbSpline
 70
8
 71
3
 72
8
 73
4
 74
0
 40
0
 40
0
 40
0
 40
0
 40
1
 40
1
 40
1
 40
1
 10
163.698772
 20
251.132584
 30
0.0
 10
164.593591
 20
250.237770
 30
0.0
 10
165.740998
 20
249.771690
 30
0.0
 10
167.035836
 20
249.771690
 30
0.0
  0
LWPOLYLINE
  5
1a5
100
AcDbEntity
  8
Ebene_1
 62
7
100
AcDbPolyline
 90
3
 70
0
 10
163.692883
 20
251.136510
 30
0.0
 10
163.696809
 20
251.134547
 30
0.0
 10
163.698772
 20
251.132584
 30
0.0
  0
SPLINE
  5
1a6
100
AcDbEntity
  8
Ebene_1
 62
7
100
AcDbSpline
 70
8
 71
3
 72
8
 73
4
 74
0
 40
0
 40
0
 40
0
 40
0
 40
1
 40
1
 40
1
 40
1
 10
183.857256
 20
249.771690
 30
0.0
 10
185.112604
 20
249.771690
 30
0.0
 10
186.243514
 20
250.238373
 30
0.0
 10
187.155988
 20
251.126833
 30
0.0
  0
SPLINE
  5
1a7
100
AcDbEntity
  8
Ebene_1
 62
7
100
AcDbSpline
 70
8
 71
3
 72
8
 73
4
 74
0
 40
0
 40
0
 40
0
 40
0
 40
1
 40
1
 40
1
 40
1
 10
187.155988
 20
251.126833
 30
0.0
 10
188.073792
 20
252.020487
 30
0.0
 10
188.553302
 20
253.169862
 30
0.0
 10
188.553302
 20
254.467732
 30
0.0
  0
LWPOLYLINE
  5
1a8
100
AcDbEntity
  8
Ebene_1
 62
7
100
AcDbPolyline
 90
2
 70
0
 10
167.035836
 20
249.771690
 30
0.0
 10
183.857256
 20
249.771690
 30
0.0
  0
LWPOLYLINE
  5
1a9
100
AcDbEntity
  8
Ebene_1
 62
7
100
AcDbPolyline
 90
3
 70
0
 10
188.553302
 20
254.467732
 30
0.0
 10
188.553302
 20
254.958421
 30
0.0
 10
162.339653
 20
254.958513
 30
0.0
  0
SPLINE
  5
1aa
100
AcDbEntity
  8
Ebene_1
 62
7
100
AcDbSpline
 70
8
 71
3
 72
8
 73
4
 74
0
 40
0
 40
0
 40
0
 40
0
 40
1
 40
1
 40
1
 40
1
 10
31.628667
 20
254.467824
 30
0.0
 10
31.628667
 20
253.192771
 30
0.0
 10
32.093849
 20
252.050524
 30
0.0
 10
32.983811
 20
251.136510
 30
0.0
  0
LWPOLYLINE
  5
1ab
100
AcDbEntity
  8
Ebene_1
 62
7
100
AcDbPolyline
 90
2
 70
0
 10
31.628667
 20
254.958513
 30
0.0
 10
31.628667
 20
254.467824
 30
0.0
  0
SPLINE
  5
1ac
100
AcDbEntity
  8
Ebene_1
 62
7
100
AcDbSpline
 70
8
 71
3
 72
8
 73
4
 74
0
 40
0
 40
0
 40
0
 40
0
 40
1
 40
1
 40
1
 40
1
 10
32.987736
 20
251.132584
 30
0.0
 10
33.882556
 20
250.237769
 30
0.0
 10
35.029962
 20
249.771690
 30
0.0
 10
36.324801
 20
249.771690
 30
0.0
  0
LWPOLYLINE
  5
1ad
100
AcDbEntity
  8
Ebene_1
 62
7
100
AcDbPolyline
 90
3
 70
0
 10
32.983811
 20
251.136510
 30
0.0
 10
32.985774
 20
251.134547
 30
0.0
 10
32.987736
 20
251.132584
 30
0.0
  0
SPLINE
  5
1ae
100
AcDbEntity
  8
Ebene_1
 62
7
100
AcDbSpline
 70
8
 71
3
 72
8
 73
4
 74
0
 40
0
 40
0
 40
0
 40
0
 40
1
 40
1
 40
1
 40
1
 10
53.146221
 20
249.771782
 30
0.0
 10
54.401569
 20
249.771782
 30
0.0
 10
55.532478
 20
250.238465
 30
0.0
 10
56.444953
 20
251.126926
 30
0.0
  0
SPLINE
  5
1af
100
AcDbEntity
  8
Ebene_1
 62
7
100
AcDbSpline
 70
8
 71
3
 72
8
 73
4
 74
0
 40
0
 40
0
 40
0
 40
0
 40
1
 40
1
 40
1
 40
1
 10
56.444953
 20
251.126926
 30
0.0
 10
57.362756
 20
252.020578
 30
0.0
 10
57.842257
 20
253.169953
 30
0.0
 10
57.842257
 20
254.467824
 30
0.0
  0
LWPOLYLINE
  5
1b0
100
AcDbEntity
  8
Ebene_1
 62
7
100
AcDbPolyline
 90
7
 70
0
 10
36.324801
 20
249.771690
 30
0.0
 10
42.142149
 20
249.771690
 30
0.0
 10
42.142149
 20
232.950367
 30
0.0
 10
42.632837
 20
232.950367
 30
0.0
 10
47.328873
 20
232.950367
 30
0.0
 10
47.328873
 20
249.771782
 30
0.0
 10
53.146221
 20
249.771782
 30
0.0
  0
LWPOLYLINE
  5
1b1
100
AcDbEntity
  8
Ebene_1
 62
7
100
AcDbPolyline
 90
3
 70
0
 10
57.842257
 20
254.467824
 30
0.0
 10
57.842257
 20
254.958513
 30
0.0
 10
31.628667
 20
254.958513
 30
0.0
  0
SPLINE
  5
1b2
100
AcDbEntity
  8
Ebene_1
 62
7
100
AcDbSpline
 70
8
 71
3
 72
8
 73
4
 74
0
 40
0
 40
0
 40
0
 40
0
 40
1
 40
1
 40
1
 40
1
 10
64.305459
 20
237.646409
 30
0.0
 10
64.305459
 20
236.371356
 30
0.0
 10
64.770641
 20
235.229109
 30
0.0
 10
65.660603
 20
234.315095
 30
0.0
  0
LWPOLYLINE
  5
1b3
100
AcDbEntity
  8
Ebene_1
 62
7
100
AcDbPolyline
 90
2
 70
0
 10
64.305459
 20
238.137098
 30
0.0
 10
64.305459
 20
237.646409
 30
0.0
  0
SPLINE
  5
1b4
100
AcDbEntity
  8
Ebene_1
 62
7
100
AcDbSpline
 70
8
 71
3
 72
8
 73
4
 74
0
 40
0
 40
0
 40
0
 40
0
 40
1
 40
1
 40
1
 40
1
 10
65.664529
 20
234.309305
 30
0.0
 10
66.559338
 20
233.414489
 30
0.0
 10
67.706745
 20
232.950327
 30
0.0
 10
69.001593
 20
232.950327
 30
0.0
  0
LWPOLYLINE
  5
1b5
100
AcDbEntity
  8
Ebene_1
 62
7
100
AcDbPolyline
 90
3
 70
0
 10
65.660603
 20
234.315095
 30
0.0
 10
65.662566
 20
234.313132
 30
0.0
 10
65.664529
 20
234.309305
 30
0.0
  0
SPLINE
  5
1b6
100
AcDbEntity
  8
Ebene_1
 62
7
100
AcDbSpline
 70
8
 71
3
 72
8
 73
4
 74
0
 40
0
 40
0
 40
0
 40
0
 40
1
 40
1
 40
1
 40
1
 10
85.823003
 20
232.950327
 30
0.0
 10
87.078351
 20
232.950327
 30
0.0
 10
88.211184
 20
233.417010
 30
0.0
 10
89.123649
 20
234.305470
 30
0.0
  0
SPLINE
  5
1b7
100
AcDbEntity
  8
Ebene_1
 62
7
100
AcDbSpline
 70
8
 71
3
 72
8
 73
4
 74
0
 40
0
 40
0
 40
0
 40
0
 40
1
 40
1
 40
1
 40
1
 10
89.123649
 20
234.305470
 30
0.0
 10
90.041462
 20
235.199123
 30
0.0
 10
90.519049
 20
236.348498
 30
0.0
 10
90.519049
 20
237.646369
 30
0.0
  0
LWPOLYLINE
  5
1b8
100
AcDbEntity
  8
Ebene_1
 62
7
100
AcDbPolyline
 90
2
 70
0
 10
69.001593
 20
232.950327
 30
0.0
 10
85.823003
 20
232.950327
 30
0.0
  0
LWPOLYLINE
  5
1b9
100
AcDbEntity
  8
Ebene_1
 62
7
100
AcDbPolyline
 90
3
 70
0
 10
90.519049
 20
237.646369
 30
0.0
 10
90.519049
 20
238.137058
 30
0.0
 10
64.305459
 20
238.137098
 30
0.0
  0
SPLINE
  5
1ba
100
AcDbEntity
  8
Ebene_1
 62
7
100
AcDbSpline
 70
8
 71
3
 72
8
 73
4
 74
0
 40
0
 40
0
 40
0
 40
0
 40
1
 40
1
 40
1
 40
1
 10
64.305459
 20
246.057117
 30
0.0
 10
64.305459
 20
244.782063
 30
0.0
 10
64.770641
 20
243.639817
 30
0.0
 10
65.660603
 20
242.725803
 30
0.0
  0
LWPOLYLINE
  5
1bb
100
AcDbEntity
  8
Ebene_1
 62
7
100
AcDbPolyline
 90
2
 70
0
 10
64.305459
 20
246.547806
 30
0.0
 10
64.305459
 20
246.057117
 30
0.0
  0
SPLINE
  5
1bc
100
AcDbEntity
  8
Ebene_1
 62
7
100
AcDbSpline
 70
8
 71
3
 72
8
 73
4
 74
0
 40
0
 40
0
 40
0
 40
0
 40
1
 40
1
 40
1
 40
1
 10
65.664529
 20
242.720013
 30
0.0
 10
66.559338
 20
241.825198
 30
0.0
 10
67.706745
 20
241.361035
 30
0.0
 10
69.001593
 20
241.361035
 30
0.0
  0
LWPOLYLINE
  5
1bd
100
AcDbEntity
  8
Ebene_1
 62
7
100
AcDbPolyline
 90
3
 70
0
 10
65.660603
 20
242.725803
 30
0.0
 10
65.662566
 20
242.723840
 30
0.0
 10
65.664529
 20
242.720013
 30
0.0
  0
SPLINE
  5
1be
100
AcDbEntity
  8
Ebene_1
 62
7
100
AcDbSpline
 70
8
 71
3
 72
8
 73
4
 74
0
 40
0
 40
0
 40
0
 40
0
 40
1
 40
1
 40
1
 40
1
 10
85.823003
 20
241.361035
 30
0.0
 10
87.078351
 20
241.361035
 30
0.0
 10
88.211184
 20
241.827718
 30
0.0
 10
89.123649
 20
242.716179
 30
0.0
  0
SPLINE
  5
1bf
100
AcDbEntity
  8
Ebene_1
 62
7
100
AcDbSpline
 70
8
 71
3
 72
8
 73
4
 74
0
 40
0
 40
0
 40
0
 40
0
 40
1
 40
1
 40
1
 40
1
 10
89.123649
 20
242.716179
 30
0.0
 10
90.041462
 20
243.609832
 30
0.0
 10
90.519049
 20
244.759207
 30
0.0
 10
90.519049
 20
246.057078
 30
0.0
  0
LWPOLYLINE
  5
1c0
100
AcDbEntity
  8
Ebene_1
 62
7
100
AcDbPolyline
 90
2
 70
0
 10
69.001593
 20
241.361035
 30
0.0
 10
85.823003
 20
241.361035
 30
0.0
  0
LWPOLYLINE
  5
1c1
100
AcDbEntity
  8
Ebene_1
 62
7
100
AcDbPolyline
 90
3
 70
0
 10
90.519049
 20
246.057078
 30
0.0
 10
90.519049
 20
246.547767
 30
0.0
 10
64.305459
 20
246.547806
 30
0.0
  0
SPLINE
  5
1c2
100
AcDbEntity
  8
Ebene_1
 62
7
100
AcDbSpline
 70
8
 71
3
 72
8
 73
4
 74
0
 40
0
 40
0
 40
0
 40
0
 40
1
 40
1
 40
1
 40
1
 10
64.305459
 20
254.467824
 30
0.0
 10
64.305459
 20
253.192771
 30
0.0
 10
64.770641
 20
252.050524
 30
0.0
 10
65.660603
 20
251.136510
 30
0.0
  0
LWPOLYLINE
  5
1c3
100
AcDbEntity
  8
Ebene_1
 62
7
100
AcDbPolyline
 90
2
 70
0
 10
64.305459
 20
254.958513
 30
0.0
 10
64.305459
 20
254.467824
 30
0.0
  0
SPLINE
  5
1c4
100
AcDbEntity
  8
Ebene_1
 62
7
100
AcDbSpline
 70
8
 71
3
 72
8
 73
4
 74
0
 40
0
 40
0
 40
0
 40
0
 40
1
 40
1
 40
1
 40
1
 10
65.664529
 20
251.132584
 30
0.0
 10
66.559338
 20
250.237769
 30
0.0
 10
67.706745
 20
249.771690
 30
0.0
 10
69.001593
 20
249.771690
 30
0.0
  0
LWPOLYLINE
  5
1c5
100
AcDbEntity
  8
Ebene_1
 62
7
100
AcDbPolyline
 90
3
 70
0
 10
65.660603
 20
251.136510
 30
0.0
 10
65.662566
 20
251.134547
 30
0.0
 10
65.664529
 20
251.132584
 30
0.0
  0
SPLINE
  5
1c6
100
AcDbEntity
  8
Ebene_1
 62
7
100
AcDbSpline
 70
8
 71
3
 72
8
 73
4
 74
0
 40
0
 40
0
 40
0
 40
0
 40
1
 40
1
 40
1
 40
1
 10
85.823003
 20
249.771690
 30
0.0
 10
87.078351
 20
249.771690
 30
0.0
 10
88.211184
 20
250.238373
 30
0.0
 10
89.123649
 20
251.126833
 30
0.0
  0
SPLINE
  5
1c7
100
AcDbEntity
  8
Ebene_1
 62
7
100
AcDbSpline
 70
8
 71
3
 72
8
 73
4
 74
0
 40
0
 40
0
 40
0
 40
0
 40
1
 40
1
 40
1
 40
1
 10
89.123649
 20
251.126833
 30
0.0
 10
90.041462
 20
252.020486
 30
0.0
 10
90.519049
 20
253.169861
 30
0.0
 10
90.519049
 20
254.467732
 30
0.0
  0
LWPOLYLINE
  5
1c8
100
AcDbEntity
  8
Ebene_1
 62
7
100
AcDbPolyline
 90
2
 70
0
 10
69.001593
 20
249.771690
 30
0.0
 10
85.823003
 20
249.771690
 30
0.0
  0
LWPOLYLINE
  5
1c9
100
AcDbEntity
  8
Ebene_1
 62
7
100
AcDbPolyline
 90
3
 70
0
 10
90.519049
 20
254.467732
 30
0.0
 10
90.519049
 20
254.958421
 30
0.0
 10
64.305459
 20
254.958513
 30
0.0
  0
SPLINE
  5
1ca
100
AcDbEntity
  8
Ebene_1
 62
7
100
AcDbSpline
 70
8
 71
3
 72
8
 73
4
 74
0
 40
0
 40
0
 40
0
 40
0
 40
1
 40
1
 40
1
 40
1
 10
101.680201
 20
238.137098
 30
0.0
 10
100.402065
 20
238.137098
 30
0.0
 10
99.256111
 20
237.658512
 30
0.0
 10
98.343136
 20
236.745537
 30
0.0
  0
SPLINE
  5
1cb
100
AcDbEntity
  8
Ebene_1
 62
7
100
AcDbSpline
 70
8
 71
3
 72
8
 73
4
 74
0
 40
0
 40
0
 40
0
 40
0
 40
1
 40
1
 40
1
 40
1
 10
98.343136
 20
236.745537
 30
0.0
 10
97.449887
 20
235.852283
 30
0.0
 10
96.984165
 20
234.716109
 30
0.0
 10
96.984165
 20
233.441056
 30
0.0
  0
LWPOLYLINE
  5
1cc
100
AcDbEntity
  8
Ebene_1
 62
7
100
AcDbPolyline
 90
5
 70
0
 10
96.984165
 20
254.958513
 30
0.0
 10
96.984165
 20
241.361074
 30
0.0
 10
118.010932
 20
241.361074
 30
0.0
 10
118.010932
 20
238.137098
 30
0.0
 10
101.680201
 20
238.137098
 30
0.0
  0
SPLINE
  5
1cd
100
AcDbEntity
  8
Ebene_1
 62
7
100
AcDbSpline
 70
8
 71
3
 72
8
 73
4
 74
0
 40
0
 40
0
 40
0
 40
0
 40
1
 40
1
 40
1
 40
1
 10
118.501621
 20
249.771782
 30
0.0
 10
119.756969
 20
249.771782
 30
0.0
 10
120.887878
 20
250.238465
 30
0.0
 10
121.800353
 20
251.126926
 30
0.0
  0
SPLINE
  5
1ce
100
AcDbEntity
  8
Ebene_1
 62
7
100
AcDbSpline
 70
8
 71
3
 72
8
 73
4
 74
0
 40
0
 40
0
 40
0
 40
0
 40
1
 40
1
 40
1
 40
1
 10
121.800353
 20
251.126926
 30
0.0
 10
122.718156
 20
252.020579
 30
0.0
 10
123.197657
 20
253.169954
 30
0.0
 10
123.197657
 20
254.467824
 30
0.0
  0
LWPOLYLINE
  5
1cf
100
AcDbEntity
  8
Ebene_1
 62
7
100
AcDbPolyline
 90
8
 70
0
 10
96.984165
 20
233.441056
 30
0.0
 10
96.984165
 20
232.950367
 30
0.0
 10
97.474853
 20
232.950367
 30
0.0
 10
123.197657
 20
232.950367
 30
0.0
 10
123.197657
 20
246.547806
 30
0.0
 10
102.170889
 20
246.547806
 30
0.0
 10
102.170889
 20
249.771782
 30
0.0
 10
118.501621
 20
249.771782
 30
0.0
  0
LWPOLYLINE
  5
1d0
100
AcDbEntity
  8
Ebene_1
 62
7
100
AcDbPolyline
 90
3
 70
0
 10
123.197657
 20
254.467824
 30
0.0
 10
123.197657
 20
254.958513
 30
0.0
 10
96.984165
 20
254.958513
 30
0.0
  0
SPLINE
  5
1d1
100
AcDbEntity
  8
Ebene_1
 62
7
100
AcDbSpline
 70
8
 71
3
 72
8
 73
4
 74
0
 40
0
 40
0
 40
0
 40
0
 40
1
 40
1
 40
1
 40
1
 10
151.178403
 20
232.950367
 30
0.0
 10
152.433751
 20
232.950367
 30
0.0
 10
153.566584
 20
233.417050
 30
0.0
 10
154.479049
 20
234.305511
 30
0.0
  0
SPLINE
  5
1d2
100
AcDbEntity
  8
Ebene_1
 62
7
100
AcDbSpline
 70
8
 71
3
 72
8
 73
4
 74
0
 40
0
 40
0
 40
0
 40
0
 40
1
 40
1
 40
1
 40
1
 10
154.479049
 20
234.305511
 30
0.0
 10
155.396852
 20
235.199164
 30
0.0
 10
155.874449
 20
236.348539
 30
0.0
 10
155.874449
 20
237.646409
 30
0.0
  0
LWPOLYLINE
  5
1d3
100
AcDbEntity
  8
Ebene_1
 62
7
100
AcDbPolyline
 90
4
 70
0
 10
129.660947
 20
254.958513
 30
0.0
 10
129.660947
 20
232.950367
 30
0.0
 10
130.151636
 20
232.950367
 30
0.0
 10
151.178403
 20
232.950367
 30
0.0
  0
LWPOLYLINE
  5
1d4
100
AcDbEntity
  8
Ebene_1
 62
7
100
AcDbPolyline
 90
5
 70
0
 10
155.874449
 20
237.646409
 30
0.0
 10
155.874449
 20
238.137098
 30
0.0
 10
134.847682
 20
238.137098
 30
0.0
 10
134.847682
 20
254.958513
 30
0.0
 10
129.660947
 20
254.958513
 30
0.0
  0
ENDSEC
  0
SECTION
  2
OBJECTS
  0
DICTIONARY
  5
C
330
0
100
AcDbDictionary
  3
ACAD_GROUP
350
D
  3
ACAD_MLINESTYLE
350
17
  0
DICTIONARY
  5
D
330
C
100
AcDbDictionary
  0
DICTIONARY
  5
1A
330
C
100
AcDbDictionary
  0
DICTIONARY
  5
17
330
C
100
AcDbDictionary
  3
STANDARD
350
18
  0
DICTIONARY
  5
19
330
C
100
AcDbDictionary
  0
ENDSEC
  0
EOF
