  0
SECTION
  2
HEADER
  9
$ACADVER
  1
AC1014
  9
$HANDSEED
  5
FFFF
  9
$MEASUREMENT
 70
     1
  0
ENDSEC
  0
SECTION
  2
TABLES
  0
TABLE
  2
VPORT
  5
8
330
0
100
AcDbSymbolTable
 70
     4
  0
VPORT
  5
2E
330
8
100
AcDbSymbolTableRecord
100
AcDbViewportTableRecord
  2
*ACTIVE
 70
     0
 10
0.0
 20
0.0
 11
1.0
 21
1.0
 12
210.0
 22
148.5
 13
0.0
 23
0.0
 14
10.0
 24
10.0
 15
10.0
 25
10.0
 16
0.0
 26
0.0
 36
1.0
 17
0.0
 27
0.0
 37
0.0
 40
341.0
 41
1.24
 42
50.0
 43
0.0
 44
0.0
 50
0.0
 51
0.0
 71
     0
 72
   100
 73
     1
 74
     3
 75
     0
 76
     0
 77
     0
 78
     0
  0
ENDTAB
  0
TABLE
  2
LTYPE
  5
5
330
0
100
AcDbSymbolTable
 70
     1
  0
LTYPE
  5
14
330
5
100
AcDbSymbolTableRecord
100
AcDbLinetypeTableRecord
  2
BYBLOCK
 70
     0
  3

 72
    65
 73
     0
 40
0.0
  0
LTYPE
  5
15
330
5
100
AcDbSymbolTableRecord
100
AcDbLinetypeTableRecord
  2
BYLAYER
 70
     0
  3

 72
    65
 73
     0
 40
0.0
  0
LTYPE
  5
16
330
5
100
AcDbSymbolTableRecord
100
AcDbLinetypeTableRecord
  2
CONTINUOUS
 70
     0
  3
Solid line
 72
    65
 73
     0
 40
0.0
  0
ENDTAB
  0
TABLE
  2
LAYER
  5
2
100
AcDbSymbolTable
 70
2
  0
LAYER
  5
50
100
AcDbSymbolTableRecord
100
AcDbLayerTableRecord
  2
0
 70
0
  6
CONTINUOUS
  0
LAYER
  5
51
100
AcDbSymbolTableRecord
100
AcDbLayerTableRecord
  2
Ebene_1
 70
0
  6
CONTINUOUS
  0
ENDTAB
  0
TABLE
  2
STYLE
  5
3
330
0
100
AcDbSymbolTable
 70
     1
  0
STYLE
  5
11
330
3
100
AcDbSymbolTableRecord
100
AcDbTextStyleTableRecord
  2
STANDARD
 70
     0
 40
0.0
 41
1.0
 50
0.0
 71
     0
 42
2.5
  3
txt
  4

  0
ENDTAB
  0
TABLE
  2
VIEW
  5
6
330
0
100
AcDbSymbolTable
 70
     0
  0
ENDTAB
  0
TABLE
  2
UCS
  5
7
330
0
100
AcDbSymbolTable
 70
     0
  0
ENDTAB
  0
TABLE
  2
APPID
  5
9
330
0
100
AcDbSymbolTable
 70
     2
  0
APPID
  5
12
330
9
100
AcDbSymbolTableRecord
100
AcDbRegAppTableRecord
  2
ACAD
 70
     0
  0
ENDTAB
  0
TABLE
  2
DIMSTYLE
  5
A
330
0
100
AcDbSymbolTable
 70
     1
  0
DIMSTYLE
105
27
330
A
100
AcDbSymbolTableRecord
100
AcDbDimStyleTableRecord
  2
ISO-25
 70
     0
  3

  4

  5

  6

  7

 40
1.0
 41
2.5
 42
0.625
 43
3.75
 44
1.25
 45
0.0
 46
0.0
 47
0.0
 48
0.0
140
2.5
141
2.5
142
0.0
143
0.03937007874016
144
1.0
145
0.0
146
1.0
147
0.625
 71
     0
 72
     0
 73
     0
 74
     0
 75
     0
 76
     0
 77
     1
 78
     8
170
     0
171
     3
172
     1
173
     0
174
     0
175
     0
176
     0
177
     0
178
     0
270
     2
271
     2
272
     2
273
     2
274
     3
340
11
275
     0
280
     0
281
     0
282
     0
283
     0
284
     8
285
     0
286
     0
287
     3
288
     0
  0
ENDTAB
  0
TABLE
  2
BLOCK_RECORD
  5
1
330
0
100
AcDbSymbolTable
 70
     1
  0
BLOCK_RECORD
  5
1F
330
1
100
AcDbSymbolTableRecord
100
AcDbBlockTableRecord
  2
*MODEL_SPACE
  0
BLOCK_RECORD
  5
1B
330
1
100
AcDbSymbolTableRecord
100
AcDbBlockTableRecord
  2
*PAPER_SPACE
  0
ENDTAB
  0
ENDSEC
  0
SECTION
  2
BLOCKS
  0
BLOCK
  5
20
330
1F
100
AcDbEntity
  8
0
100
AcDbBlockBegin
  2
*MODEL_SPACE
 70
     0
 10
0.0
 20
0.0
 30
0.0
  3
*MODEL_SPACE
  1

  0
ENDBLK
  5
21
330
1F
100
AcDbEntity
  8
0
100
AcDbBlockEnd
  0
BLOCK
  5
1C
330
1B
100
AcDbEntity
 67
     1
  8
0
100
AcDbBlockBegin
  2
*PAPER_SPACE
  1

  0
ENDBLK
  5
1D
330
1B
100
AcDbEntity
 67
     1
  8
0
100
AcDbBlockEnd
  0
ENDSEC
  0
SECTION
  2
ENTITIES
  0
SPLINE
  5
100
100
AcDbEntity
  8
Ebene_1
 62
7
100
AcDbSpline
 70
8
 71
3
 72
8
 73
4
 74
0
 40
0
 40
0
 40
0
 40
0
 40
1
 40
1
 40
1
 40
1
 10
28.263789
 20
260.688889
 30
0.0
 10
17.830376
 20
260.688889
 30
0.0
 10
9.431078
 20
252.729964
 30
0.0
 10
9.431078
 20
242.843991
 30
0.0
  0
SPLINE
  5
101
100
AcDbEntity
  8
Ebene_1
 62
7
100
AcDbSpline
 70
8
 71
3
 72
8
 73
4
 74
0
 40
0
 40
0
 40
0
 40
0
 40
1
 40
1
 40
1
 40
1
 10
9.431078
 20
186.102350
 30
0.0
 10
9.431078
 20
176.216370
 30
0.0
 10
17.830376
 20
168.257930
 30
0.0
 10
28.263789
 20
168.257930
 30
0.0
  0
LWPOLYLINE
  5
102
100
AcDbEntity
  8
Ebene_1
 62
7
100
AcDbPolyline
 90
2
 70
0
 10
9.431078
 20
242.843991
 30
0.0
 10
9.431078
 20
186.102350
 30
0.0
  0
SPLINE
  5
103
100
AcDbEntity
  8
Ebene_1
 62
7
100
AcDbSpline
 70
8
 71
3
 72
8
 73
4
 74
0
 40
0
 40
0
 40
0
 40
0
 40
1
 40
1
 40
1
 40
1
 10
47.096990
 20
168.257930
 30
0.0
 10
57.530415
 20
168.257930
 30
0.0
 10
65.929703
 20
159.858150
 30
0.0
 10
65.929703
 20
149.424730
 30
0.0
  0
LWPOLYLINE
  5
104
100
AcDbEntity
  8
Ebene_1
 62
7
100
AcDbPolyline
 90
3
 70
0
 10
28.263789
 20
168.257930
 30
0.0
 10
37.928318
 20
168.257930
 30
0.0
 10
47.096990
 20
168.257930
 30
0.0
  0
SPLINE
  5
105
100
AcDbEntity
  8
Ebene_1
 62
7
100
AcDbSpline
 70
8
 71
3
 72
8
 73
4
 74
0
 40
0
 40
0
 40
0
 40
0
 40
1
 40
1
 40
1
 40
1
 10
65.929703
 20
107.050890
 30
0.0
 10
65.929703
 20
96.617460
 30
0.0
 10
57.530415
 20
88.218170
 30
0.0
 10
47.096990
 20
88.218170
 30
0.0
  0
LWPOLYLINE
  5
106
100
AcDbEntity
  8
Ebene_1
 62
7
100
AcDbPolyline
 90
2
 70
0
 10
65.929703
 20
149.424730
 30
0.0
 10
65.929703
 20
107.050890
 30
0.0
  0
SPLINE
  5
107
100
AcDbEntity
  8
Ebene_1
 62
7
100
AcDbSpline
 70
8
 71
3
 72
8
 73
4
 74
0
 40
0
 40
0
 40
0
 40
0
 40
1
 40
1
 40
1
 40
1
 10
28.263789
 20
88.218170
 30
0.0
 10
17.830376
 20
88.218170
 30
0.0
 10
9.431078
 20
79.818390
 30
0.0
 10
9.431078
 20
69.384970
 30
0.0
  0
LWPOLYLINE
  5
108
100
AcDbEntity
  8
Ebene_1
 62
7
100
AcDbPolyline
 90
3
 70
0
 10
47.096990
 20
88.218170
 30
0.0
 10
37.928318
 20
88.218170
 30
0.0
 10
28.263789
 20
88.218170
 30
0.0
  0
SPLINE
  5
109
100
AcDbEntity
  8
Ebene_1
 62
7
100
AcDbSpline
 70
8
 71
3
 72
8
 73
4
 74
0
 40
0
 40
0
 40
0
 40
0
 40
1
 40
1
 40
1
 40
1
 10
9.431078
 20
38.435510
 30
0.0
 10
9.431078
 20
28.002090
 30
0.0
 10
17.830376
 20
19.602780
 30
0.0
 10
28.263789
 20
19.602780
 30
0.0
  0
LWPOLYLINE
  5
10a
100
AcDbEntity
  8
Ebene_1
 62
7
100
AcDbPolyline
 90
2
 70
0
 10
9.431078
 20
69.384970
 30
0.0
 10
9.431078
 20
38.435510
 30
0.0
  0
SPLINE
  5
10b
100
AcDbEntity
  8
Ebene_1
 62
7
100
AcDbSpline
 70
8
 71
3
 72
8
 73
4
 74
0
 40
0
 40
0
 40
0
 40
0
 40
1
 40
1
 40
1
 40
1
 10
150.677880
 20
19.602780
 30
0.0
 10
161.111300
 20
19.602780
 30
0.0
 10
169.510590
 20
28.002090
 30
0.0
 10
169.510590
 20
38.435510
 30
0.0
  0
LWPOLYLINE
  5
10c
100
AcDbEntity
  8
Ebene_1
 62
7
100
AcDbPolyline
 90
2
 70
0
 10
28.263789
 20
19.602780
 30
0.0
 10
150.677880
 20
19.602780
 30
0.0
  0
SPLINE
  5
10d
100
AcDbEntity
  8
Ebene_1
 62
7
100
AcDbSpline
 70
8
 71
3
 72
8
 73
4
 74
0
 40
0
 40
0
 40
0
 40
0
 40
1
 40
1
 40
1
 40
1
 10
169.510590
 20
69.384970
 30
0.0
 10
169.510590
 20
79.818390
 30
0.0
 10
161.111300
 20
88.218170
 30
0.0
 10
150.677880
 20
88.218170
 30
0.0
  0
LWPOLYLINE
  5
10e
100
AcDbEntity
  8
Ebene_1
 62
7
100
AcDbPolyline
 90
2
 70
0
 10
169.510590
 20
38.435510
 30
0.0
 10
169.510590
 20
69.384970
 30
0.0
  0
SPLINE
  5
10f
100
AcDbEntity
  8
Ebene_1
 62
7
100
AcDbSpline
 70
8
 71
3
 72
8
 73
4
 74
0
 40
0
 40
0
 40
0
 40
0
 40
1
 40
1
 40
1
 40
1
 10
131.844680
 20
88.218170
 30
0.0
 10
121.411250
 20
88.218170
 30
0.0
 10
113.011970
 20
96.617460
 30
0.0
 10
113.011970
 20
107.050890
 30
0.0
  0
LWPOLYLINE
  5
110
100
AcDbEntity
  8
Ebene_1
 62
7
100
AcDbPolyline
 90
3
 70
0
 10
150.677880
 20
88.218170
 30
0.0
 10
145.969460
 20
88.218170
 30
0.0
 10
131.844680
 20
88.218170
 30
0.0
  0
SPLINE
  5
111
100
AcDbEntity
  8
Ebene_1
 62
7
100
AcDbSpline
 70
8
 71
3
 72
8
 73
4
 74
0
 40
0
 40
0
 40
0
 40
0
 40
1
 40
1
 40
1
 40
1
 10
113.011970
 20
149.424730
 30
0.0
 10
113.011970
 20
159.858150
 30
0.0
 10
121.411250
 20
168.257930
 30
0.0
 10
131.844680
 20
168.257930
 30
0.0
  0
LWPOLYLINE
  5
112
100
AcDbEntity
  8
Ebene_1
 62
7
100
AcDbPolyline
 90
2
 70
0
 10
113.011970
 20
107.050890
 30
0.0
 10
113.011970
 20
149.424730
 30
0.0
  0
SPLINE
  5
113
100
AcDbEntity
  8
Ebene_1
 62
7
100
AcDbSpline
 70
8
 71
3
 72
8
 73
4
 74
0
 40
0
 40
0
 40
0
 40
0
 40
1
 40
1
 40
1
 40
1
 10
150.677880
 20
168.257930
 30
0.0
 10
161.111300
 20
168.257930
 30
0.0
 10
169.510590
 20
176.216370
 30
0.0
 10
169.510590
 20
186.102350
 30
0.0
  0
LWPOLYLINE
  5
114
100
AcDbEntity
  8
Ebene_1
 62
7
100
AcDbPolyline
 90
3
 70
0
 10
131.844680
 20
168.257930
 30
0.0
 10
145.969460
 20
168.257930
 30
0.0
 10
150.677880
 20
168.257930
 30
0.0
  0
SPLINE
  5
115
100
AcDbEntity
  8
Ebene_1
 62
7
100
AcDbSpline
 70
8
 71
3
 72
8
 73
4
 74
0
 40
0
 40
0
 40
0
 40
0
 40
1
 40
1
 40
1
 40
1
 10
169.510590
 20
242.843991
 30
0.0
 10
169.510590
 20
252.729964
 30
0.0
 10
161.111300
 20
260.688889
 30
0.0
 10
150.677880
 20
260.688889
 30
0.0
  0
LWPOLYLINE
  5
116
100
AcDbEntity
  8
Ebene_1
 62
7
100
AcDbPolyline
 90
2
 70
0
 10
169.510590
 20
186.102350
 30
0.0
 10
169.510590
 20
242.843991
 30
0.0
  0
LWPOLYLINE
  5
117
100
AcDbEntity
  8
Ebene_1
 62
7
100
AcDbPolyline
 90
2
 70
0
 10
150.677880
 20
260.688889
 30
0.0
 10
28.263789
 20
260.688889
 30
0.0
  0
SPLINE
  5
118
100
AcDbEntity
  8
Ebene_1
 62
7
100
AcDbSpline
 70
8
 71
3
 72
8
 73
4
 74
0
 40
0
 40
0
 40
0
 40
0
 40
1
 40
1
 40
1
 40
1
 10
169.762500
 20
270.000000
 30
0.0
 10
171.088582
 20
270.000000
 30
0.0
 10
172.360352
 20
269.473216
 30
0.0
 10
173.298034
 20
268.535534
 30
0.0
  0
SPLINE
  5
119
100
AcDbEntity
  8
Ebene_1
 62
7
100
AcDbSpline
 70
8
 71
3
 72
8
 73
4
 74
0
 40
0
 40
0
 40
0
 40
0
 40
1
 40
1
 40
1
 40
1
 10
173.298034
 20
268.535534
 30
0.0
 10
174.235716
 20
267.597852
 30
0.0
 10
174.762500
 20
266.326082
 30
0.0
 10
174.762500
 20
265.000000
 30
0.0
  0
LWPOLYLINE
  5
11a
100
AcDbEntity
  8
Ebene_1
 62
7
100
AcDbPolyline
 90
2
 70
0
 10
9.762500
 20
270.000000
 30
0.0
 10
169.762500
 20
270.000000
 30
0.0
  0
SPLINE
  5
11b
100
AcDbEntity
  8
Ebene_1
 62
7
100
AcDbSpline
 70
8
 71
3
 72
8
 73
4
 74
0
 40
0
 40
0
 40
0
 40
0
 40
1
 40
1
 40
1
 40
1
 10
174.762500
 20
15.000000
 30
0.0
 10
174.762500
 20
13.673918
 30
0.0
 10
174.235716
 20
12.402148
 30
0.0
 10
173.298034
 20
11.464466
 30
0.0
  0
SPLINE
  5
11c
100
AcDbEntity
  8
Ebene_1
 62
7
100
AcDbSpline
 70
8
 71
3
 72
8
 73
4
 74
0
 40
0
 40
0
 40
0
 40
0
 40
1
 40
1
 40
1
 40
1
 10
173.298034
 20
11.464466
 30
0.0
 10
172.360352
 20
10.526784
 30
0.0
 10
171.088582
 20
10.000000
 30
0.0
 10
169.762500
 20
10.000000
 30
0.0
  0
LWPOLYLINE
  5
11d
100
AcDbEntity
  8
Ebene_1
 62
7
100
AcDbPolyline
 90
2
 70
0
 10
174.762500
 20
265.000000
 30
0.0
 10
174.762500
 20
15.000000
 30
0.0
  0
SPLINE
  5
11e
100
AcDbEntity
  8
Ebene_1
 62
7
100
AcDbSpline
 70
8
 71
3
 72
8
 73
4
 74
0
 40
0
 40
0
 40
0
 40
0
 40
1
 40
1
 40
1
 40
1
 10
9.762500
 20
10.000000
 30
0.0
 10
8.436417
 20
10.000000
 30
0.0
 10
7.164648
 20
10.526784
 30
0.0
 10
6.226966
 20
11.464466
 30
0.0
  0
SPLINE
  5
11f
100
AcDbEntity
  8
Ebene_1
 62
7
100
AcDbSpline
 70
8
 71
3
 72
8
 73
4
 74
0
 40
0
 40
0
 40
0
 40
0
 40
1
 40
1
 40
1
 40
1
 10
6.226966
 20
11.464466
 30
0.0
 10
5.289284
 20
12.402148
 30
0.0
 10
4.762500
 20
13.673918
 30
0.0
 10
4.762500
 20
15.000000
 30
0.0
  0
LWPOLYLINE
  5
120
100
AcDbEntity
  8
Ebene_1
 62
7
100
AcDbPolyline
 90
2
 70
0
 10
169.762500
 20
10.000000
 30
0.0
 10
9.762500
 20
10.000000
 30
0.0
  0
SPLINE
  5
121
100
AcDbEntity
  8
Ebene_1
 62
7
100
AcDbSpline
 70
8
 71
3
 72
8
 73
4
 74
0
 40
0
 40
0
 40
0
 40
0
 40
1
 40
1
 40
1
 40
1
 10
4.762500
 20
265.000000
 30
0.0
 10
4.762500
 20
266.326082
 30
0.0
 10
5.289284
 20
267.597852
 30
0.0
 10
6.226966
 20
268.535534
 30
0.0
  0
SPLINE
  5
122
100
AcDbEntity
  8
Ebene_1
 62
7
100
AcDbSpline
 70
8
 71
3
 72
8
 73
4
 74
0
 40
0
 40
0
 40
0
 40
0
 40
1
 40
1
 40
1
 40
1
 10
6.226966
 20
268.535534
 30
0.0
 10
7.164648
 20
269.473216
 30
0.0
 10
8.436417
 20
270.000000
 30
0.0
 10
9.762500
 20
270.000000
 30
0.0
  0
LWPOLYLINE
  5
123
100
AcDbEntity
  8
Ebene_1
 62
7
100
AcDbPolyline
 90
2
 70
0
 10
4.762500
 20
15.000000
 30
0.0
 10
4.762500
 20
265.000000
 30
0.0
  0
LWPOLYLINE
  5
124
100
AcDbEntity
  8
Ebene_1
 62
7
100
AcDbPolyline
 90
1
 70
1
 10
9.762500
 20
270.000000
 30
0.0
  0
LWPOLYLINE
  5
125
100
AcDbEntity
  8
Ebene_1
 62
7
100
AcDbPolyline
 90
4
 70
1
 10
0.000000
 20
299.599980
 30
0.0
 10
180.000000
 20
299.599980
 30
0.0
 10
180.000000
 20
0.000000
 30
0.0
 10
0.000000
 20
0.000000
 30
0.0
  0
SPLINE
  5
126
100
AcDbEntity
  8
Ebene_1
 62
7
100
AcDbSpline
 70
8
 71
3
 72
8
 73
4
 74
0
 40
0
 40
0
 40
0
 40
0
 40
1
 40
1
 40
1
 40
1
 10
139.553646
 20
57.623992
 30
0.0
 10
139.553646
 20
56.544667
 30
0.0
 10
139.919239
 20
55.572776
 30
0.0
 10
140.616697
 20
54.799075
 30
0.0
  0
LWPOLYLINE
  5
127
100
AcDbEntity
  8
Ebene_1
 62
7
100
AcDbPolyline
 90
2
 70
0
 10
139.553646
 20
65.134872
 30
0.0
 10
139.553646
 20
57.623992
 30
0.0
  0
SPLINE
  5
128
100
AcDbEntity
  8
Ebene_1
 62
7
100
AcDbSpline
 70
8
 71
3
 72
8
 73
4
 74
0
 40
0
 40
0
 40
0
 40
0
 40
1
 40
1
 40
1
 40
1
 10
140.619984
 20
54.795615
 30
0.0
 10
141.321556
 20
54.037829
 30
0.0
 10
142.224102
 20
53.642122
 30
0.0
 10
143.238601
 20
53.642122
 30
0.0
  0
LWPOLYLINE
  5
129
100
AcDbEntity
  8
Ebene_1
 62
7
100
AcDbPolyline
 90
3
 70
0
 10
140.616697
 20
54.799075
 30
0.0
 10
140.618340
 20
54.797345
 30
0.0
 10
140.619984
 20
54.795615
 30
0.0
  0
SPLINE
  5
12a
100
AcDbEntity
  8
Ebene_1
 62
7
100
AcDbSpline
 70
8
 71
3
 72
8
 73
4
 74
0
 40
0
 40
0
 40
0
 40
0
 40
1
 40
1
 40
1
 40
1
 10
146.091284
 20
64.685461
 30
0.0
 10
146.091284
 20
63.606127
 30
0.0
 10
146.456879
 20
62.636000
 30
0.0
 10
147.154334
 20
61.862299
 30
0.0
  0
LWPOLYLINE
  5
12b
100
AcDbEntity
  8
Ebene_1
 62
7
100
AcDbPolyline
 90
5
 70
0
 10
143.238601
 20
53.642122
 30
0.0
 10
160.000348
 20
53.642122
 30
0.0
 10
160.000348
 20
65.134915
 30
0.0
 10
146.091284
 20
65.134915
 30
0.0
 10
146.091284
 20
64.685461
 30
0.0
  0
SPLINE
  5
12c
100
AcDbEntity
  8
Ebene_1
 62
7
100
AcDbSpline
 70
8
 71
3
 72
8
 73
4
 74
0
 40
0
 40
0
 40
0
 40
0
 40
1
 40
1
 40
1
 40
1
 10
147.159265
 20
61.857109
 30
0.0
 10
147.860836
 20
61.099332
 30
0.0
 10
148.763382
 20
60.705372
 30
0.0
 10
149.777882
 20
60.705372
 30
0.0
  0
LWPOLYLINE
  5
12d
100
AcDbEntity
  8
Ebene_1
 62
7
100
AcDbPolyline
 90
3
 70
0
 10
147.154334
 20
61.862299
 30
0.0
 10
147.157621
 20
61.858839
 30
0.0
 10
147.159265
 20
61.857109
 30
0.0
  0
SPLINE
  5
12e
100
AcDbEntity
  8
Ebene_1
 62
7
100
AcDbSpline
 70
8
 71
3
 72
8
 73
4
 74
0
 40
0
 40
0
 40
0
 40
0
 40
1
 40
1
 40
1
 40
1
 10
144.873868
 20
58.073576
 30
0.0
 10
144.511956
 20
58.073576
 30
0.0
 10
144.246657
 20
58.190412
 30
0.0
 10
143.997745
 20
58.440507
 30
0.0
  0
SPLINE
  5
12f
100
AcDbEntity
  8
Ebene_1
 62
7
100
AcDbSpline
 70
8
 71
3
 72
8
 73
4
 74
0
 40
0
 40
0
 40
0
 40
0
 40
1
 40
1
 40
1
 40
1
 10
143.997745
 20
58.440507
 30
0.0
 10
143.764321
 20
58.710254
 30
0.0
 10
143.654772
 20
58.996176
 30
0.0
 10
143.654772
 20
59.388588
 30
0.0
  0
LWPOLYLINE
  5
130
100
AcDbEntity
  8
Ebene_1
 62
7
100
AcDbPolyline
 90
4
 70
0
 10
149.777882
 20
60.705372
 30
0.0
 10
155.899365
 20
60.705372
 30
0.0
 10
155.899365
 20
58.073576
 30
0.0
 10
144.873868
 20
58.073576
 30
0.0
  0
LWPOLYLINE
  5
131
100
AcDbEntity
  8
Ebene_1
 62
7
100
AcDbPolyline
 90
3
 70
0
 10
143.654772
 20
59.388588
 30
0.0
 10
143.654772
 20
65.134993
 30
0.0
 10
139.553646
 20
65.134872
 30
0.0
  0
SPLINE
  5
132
100
AcDbEntity
  8
Ebene_1
 62
7
100
AcDbSpline
 70
8
 71
3
 72
8
 73
4
 74
0
 40
0
 40
0
 40
0
 40
0
 40
1
 40
1
 40
1
 40
1
 10
34.939012
 20
66.451639
 30
0.0
 10
34.939012
 20
66.063214
 30
0.0
 10
34.828231
 20
65.779498
 30
0.0
 10
34.578170
 20
65.507070
 30
0.0
  0
SPLINE
  5
133
100
AcDbEntity
  8
Ebene_1
 62
7
100
AcDbSpline
 70
8
 71
3
 72
8
 73
4
 74
0
 40
0
 40
0
 40
0
 40
0
 40
1
 40
1
 40
1
 40
1
 10
34.578170
 20
65.507070
 30
0.0
 10
34.325159
 20
65.250384
 30
0.0
 10
34.065757
 20
65.134872
 30
0.0
 10
33.721548
 20
65.134872
 30
0.0
  0
LWPOLYLINE
  5
134
100
AcDbEntity
  8
Ebene_1
 62
7
100
AcDbPolyline
 90
4
 70
0
 10
18.593385
 20
72.198035
 30
0.0
 10
18.593385
 20
67.766650
 30
0.0
 10
34.939012
 20
67.766650
 30
0.0
 10
34.939012
 20
66.451639
 30
0.0
  0
SPLINE
  5
135
100
AcDbEntity
  8
Ebene_1
 62
7
100
AcDbSpline
 70
8
 71
3
 72
8
 73
4
 74
0
 40
0
 40
0
 40
0
 40
0
 40
1
 40
1
 40
1
 40
1
 10
35.355131
 20
60.705251
 30
0.0
 10
36.339236
 20
60.705251
 30
0.0
 10
37.229495
 20
61.101520
 30
0.0
 10
37.944493
 20
61.853468
 30
0.0
  0
SPLINE
  5
136
100
AcDbEntity
  8
Ebene_1
 62
7
100
AcDbSpline
 70
8
 71
3
 72
8
 73
4
 74
0
 40
0
 40
0
 40
0
 40
0
 40
1
 40
1
 40
1
 40
1
 10
37.944493
 20
61.853468
 30
0.0
 10
38.664006
 20
62.610190
 30
0.0
 10
39.041679
 20
63.586847
 30
0.0
 10
39.041679
 20
64.685409
 30
0.0
  0
LWPOLYLINE
  5
137
100
AcDbEntity
  8
Ebene_1
 62
7
100
AcDbPolyline
 90
7
 70
0
 10
33.721548
 20
65.134872
 30
0.0
 10
18.593385
 20
65.134872
 30
0.0
 10
18.593385
 20
53.642070
 30
0.0
 10
19.009505
 20
53.642070
 30
0.0
 10
22.694426
 20
53.642070
 30
0.0
 10
22.694426
 20
60.705251
 30
0.0
 10
35.355131
 20
60.705251
 30
0.0
  0
LWPOLYLINE
  5
138
100
AcDbEntity
  8
Ebene_1
 62
7
100
AcDbPolyline
 90
3
 70
0
 10
39.041679
 20
64.685409
 30
0.0
 10
39.041679
 20
72.198035
 30
0.0
 10
18.593385
 20
72.198035
 30
0.0
  0
LWPOLYLINE
  5
139
100
AcDbEntity
  8
Ebene_1
 62
7
100
AcDbPolyline
 90
9
 70
1
 10
41.478241
 20
65.134872
 30
0.0
 10
41.478241
 20
53.642070
 30
0.0
 10
41.894361
 20
53.642070
 30
0.0
 10
45.579283
 20
53.642070
 30
0.0
 10
45.579283
 20
60.705251
 30
0.0
 10
57.823876
 20
60.705251
 30
0.0
 10
57.823876
 20
53.642070
 30
0.0
 10
61.924909
 20
53.642070
 30
0.0
 10
61.924909
 20
65.134872
 30
0.0
  0
SPLINE
  5
13a
100
AcDbEntity
  8
Ebene_1
 62
7
100
AcDbSpline
 70
8
 71
3
 72
8
 73
4
 74
0
 40
0
 40
0
 40
0
 40
0
 40
1
 40
1
 40
1
 40
1
 10
41.478241
 20
71.748581
 30
0.0
 10
41.478241
 20
70.669247
 30
0.0
 10
41.843832
 20
69.697364
 30
0.0
 10
42.541297
 20
68.923655
 30
0.0
  0
LWPOLYLINE
  5
13b
100
AcDbEntity
  8
Ebene_1
 62
7
100
AcDbPolyline
 90
2
 70
0
 10
41.478241
 20
72.198035
 30
0.0
 10
41.478241
 20
71.748581
 30
0.0
  0
SPLINE
  5
13c
100
AcDbEntity
  8
Ebene_1
 62
7
100
AcDbSpline
 70
8
 71
3
 72
8
 73
4
 74
0
 40
0
 40
0
 40
0
 40
0
 40
1
 40
1
 40
1
 40
1
 10
42.544757
 20
68.920195
 30
0.0
 10
43.246331
 20
68.162417
 30
0.0
 10
44.148881
 20
67.766693
 30
0.0
 10
45.163379
 20
67.766693
 30
0.0
  0
LWPOLYLINE
  5
13d
100
AcDbEntity
  8
Ebene_1
 62
7
100
AcDbPolyline
 90
3
 70
0
 10
42.541297
 20
68.923655
 30
0.0
 10
42.543027
 20
68.921925
 30
0.0
 10
42.544757
 20
68.920195
 30
0.0
  0
SPLINE
  5
13e
100
AcDbEntity
  8
Ebene_1
 62
7
100
AcDbSpline
 70
8
 71
3
 72
8
 73
4
 74
0
 40
0
 40
0
 40
0
 40
0
 40
1
 40
1
 40
1
 40
1
 10
58.240204
 20
67.766693
 30
0.0
 10
59.224308
 20
67.766693
 30
0.0
 10
60.114568
 20
68.162962
 30
0.0
 10
60.829565
 20
68.914927
 30
0.0
  0
SPLINE
  5
13f
100
AcDbEntity
  8
Ebene_1
 62
7
100
AcDbSpline
 70
8
 71
3
 72
8
 73
4
 74
0
 40
0
 40
0
 40
0
 40
0
 40
1
 40
1
 40
1
 40
1
 10
60.829565
 20
68.914927
 30
0.0
 10
61.549087
 20
69.671641
 30
0.0
 10
61.925117
 20
70.650063
 30
0.0
 10
61.925117
 20
71.748615
 30
0.0
  0
LWPOLYLINE
  5
140
100
AcDbEntity
  8
Ebene_1
 62
7
100
AcDbPolyline
 90
2
 70
0
 10
45.163379
 20
67.766693
 30
0.0
 10
58.240204
 20
67.766693
 30
0.0
  0
LWPOLYLINE
  5
141
100
AcDbEntity
  8
Ebene_1
 62
7
100
AcDbPolyline
 90
3
 70
0
 10
61.925117
 20
71.748615
 30
0.0
 10
61.925117
 20
72.198078
 30
0.0
 10
41.478241
 20
72.198035
 30
0.0
  0
SPLINE
  5
142
100
AcDbEntity
  8
Ebene_1
 62
7
100
AcDbSpline
 70
8
 71
3
 72
8
 73
4
 74
0
 40
0
 40
0
 40
0
 40
0
 40
1
 40
1
 40
1
 40
1
 10
64.361480
 20
71.748581
 30
0.0
 10
64.361480
 20
70.669247
 30
0.0
 10
64.727070
 20
69.697364
 30
0.0
 10
65.424527
 20
68.923655
 30
0.0
  0
LWPOLYLINE
  5
143
100
AcDbEntity
  8
Ebene_1
 62
7
100
AcDbPolyline
 90
2
 70
0
 10
64.361480
 20
72.198035
 30
0.0
 10
64.361480
 20
71.748581
 30
0.0
  0
SPLINE
  5
144
100
AcDbEntity
  8
Ebene_1
 62
7
100
AcDbSpline
 70
8
 71
3
 72
8
 73
4
 74
0
 40
0
 40
0
 40
0
 40
0
 40
1
 40
1
 40
1
 40
1
 10
65.429717
 20
68.920195
 30
0.0
 10
66.131282
 20
68.162417
 30
0.0
 10
67.033832
 20
67.766702
 30
0.0
 10
68.048330
 20
67.766693
 30
0.0
  0
LWPOLYLINE
  5
145
100
AcDbEntity
  8
Ebene_1
 62
7
100
AcDbPolyline
 90
3
 70
0
 10
65.424527
 20
68.923655
 30
0.0
 10
65.427987
 20
68.921925
 30
0.0
 10
65.429717
 20
68.920195
 30
0.0
  0
SPLINE
  5
146
100
AcDbEntity
  8
Ebene_1
 62
7
100
AcDbSpline
 70
8
 71
3
 72
8
 73
4
 74
0
 40
0
 40
0
 40
0
 40
0
 40
1
 40
1
 40
1
 40
1
 10
80.709053
 20
66.451673
 30
0.0
 10
80.709053
 20
66.063257
 30
0.0
 10
80.596637
 20
65.779542
 30
0.0
 10
80.346568
 20
65.507113
 30
0.0
  0
SPLINE
  5
147
100
AcDbEntity
  8
Ebene_1
 62
7
100
AcDbSpline
 70
8
 71
3
 72
8
 73
4
 74
0
 40
0
 40
0
 40
0
 40
0
 40
1
 40
1
 40
1
 40
1
 10
80.346568
 20
65.507113
 30
0.0
 10
80.093557
 20
65.250427
 30
0.0
 10
79.834163
 20
65.134906
 30
0.0
 10
79.489946
 20
65.134906
 30
0.0
  0
LWPOLYLINE
  5
148
100
AcDbEntity
  8
Ebene_1
 62
7
100
AcDbPolyline
 90
3
 70
0
 10
68.048330
 20
67.766693
 30
0.0
 10
80.709053
 20
67.766693
 30
0.0
 10
80.709053
 20
66.451673
 30
0.0
  0
SPLINE
  5
149
100
AcDbEntity
  8
Ebene_1
 62
7
100
AcDbSpline
 70
8
 71
3
 72
8
 73
4
 74
0
 40
0
 40
0
 40
0
 40
0
 40
1
 40
1
 40
1
 40
1
 10
81.071451
 20
60.708745
 30
0.0
 10
82.111569
 20
60.563125
 30
0.0
 10
83.014439
 20
61.118975
 30
0.0
 10
83.712830
 20
61.853459
 30
0.0
  0
SPLINE
  5
14a
100
AcDbEntity
  8
Ebene_1
 62
7
100
AcDbSpline
 70
8
 71
3
 72
8
 73
4
 74
0
 40
0
 40
0
 40
0
 40
0
 40
1
 40
1
 40
1
 40
1
 10
83.712830
 20
61.853459
 30
0.0
 10
84.432351
 20
62.610181
 30
0.0
 10
84.810016
 20
63.586839
 30
0.0
 10
84.810016
 20
64.685400
 30
0.0
  0
LWPOLYLINE
  5
14b
100
AcDbEntity
  8
Ebene_1
 62
7
100
AcDbPolyline
 90
12
 70
0
 10
79.489946
 20
65.134906
 30
0.0
 10
64.361791
 20
65.134906
 30
0.0
 10
64.361791
 20
53.642113
 30
0.0
 10
64.777911
 20
53.642113
 30
0.0
 10
68.464450
 20
53.642113
 30
0.0
 10
68.464450
 20
60.705285
 30
0.0
 10
72.778421
 20
60.705285
 30
0.0
 10
79.317651
 20
53.642113
 30
0.0
 10
85.398500
 20
53.642113
 30
0.0
 10
78.859270
 20
60.705285
 30
0.0
 10
81.125164
 20
60.705285
 30
0.0
 10
81.071451
 20
60.708745
 30
0.0
  0
LWPOLYLINE
  5
14c
100
AcDbEntity
  8
Ebene_1
 62
7
100
AcDbPolyline
 90
3
 70
0
 10
84.810016
 20
64.685400
 30
0.0
 10
84.810016
 20
72.198027
 30
0.0
 10
64.361480
 20
72.198035
 30
0.0
  0
LWPOLYLINE
  5
14d
100
AcDbEntity
  8
Ebene_1
 62
7
100
AcDbPolyline
 90
9
 70
1
 10
102.202196
 20
72.198035
 30
0.0
 10
93.613254
 20
62.920935
 30
0.0
 10
102.202196
 20
53.642070
 30
0.0
 10
102.374490
 20
53.642070
 30
0.0
 10
108.283045
 20
53.642070
 30
0.0
 10
99.690860
 20
62.922691
 30
0.0
 10
100.888819
 20
64.235954
 30
0.0
 10
100.911567
 20
64.235954
 30
0.0
 10
108.283028
 20
72.198035
 30
0.0
  0
LWPOLYLINE
  5
14e
100
AcDbEntity
  8
Ebene_1
 62
7
100
AcDbPolyline
 90
5
 70
1
 10
87.246328
 20
72.198035
 30
0.0
 10
87.246328
 20
53.642070
 30
0.0
 10
87.662447
 20
53.642070
 30
0.0
 10
91.347369
 20
53.642070
 30
0.0
 10
91.347369
 20
72.198035
 30
0.0
  0
LWPOLYLINE
  5
14f
100
AcDbEntity
  8
Ebene_1
 62
7
100
AcDbPolyline
 90
5
 70
1
 10
110.131184
 20
72.198035
 30
0.0
 10
110.131184
 20
53.642070
 30
0.0
 10
110.547304
 20
53.642070
 30
0.0
 10
114.232217
 20
53.642070
 30
0.0
 10
114.232217
 20
72.198035
 30
0.0
  0
LWPOLYLINE
  5
150
100
AcDbEntity
  8
Ebene_1
 62
7
100
AcDbPolyline
 90
12
 70
1
 10
116.080374
 20
72.198035
 30
0.0
 10
119.937590
 20
68.030013
 30
0.0
 10
119.937590
 20
53.642070
 30
0.0
 10
120.353708
 20
53.642070
 30
0.0
 10
124.040252
 20
53.642070
 30
0.0
 10
124.040252
 20
63.600392
 30
0.0
 10
133.258238
 20
53.642070
 30
0.0
 10
137.117081
 20
53.642070
 30
0.0
 10
137.117081
 20
72.198035
 30
0.0
 10
133.014418
 20
72.198035
 30
0.0
 10
133.014418
 20
60.473492
 30
0.0
 10
122.161220
 20
72.198035
 30
0.0
  0
SPLINE
  5
151
100
AcDbEntity
  8
Ebene_1
 62
7
100
AcDbSpline
 70
8
 71
3
 72
8
 73
4
 74
0
 40
0
 40
0
 40
0
 40
0
 40
1
 40
1
 40
1
 40
1
 10
156.315394
 20
67.766650
 30
0.0
 10
157.299494
 20
67.766650
 30
0.0
 10
158.189753
 20
68.162936
 30
0.0
 10
158.904752
 20
68.914884
 30
0.0
  0
SPLINE
  5
152
100
AcDbEntity
  8
Ebene_1
 62
7
100
AcDbSpline
 70
8
 71
3
 72
8
 73
4
 74
0
 40
0
 40
0
 40
0
 40
0
 40
1
 40
1
 40
1
 40
1
 10
158.904752
 20
68.914884
 30
0.0
 10
159.624272
 20
69.671606
 30
0.0
 10
160.000313
 20
70.650020
 30
0.0
 10
160.000313
 20
71.748581
 30
0.0
  0
LWPOLYLINE
  5
153
100
AcDbEntity
  8
Ebene_1
 62
7
100
AcDbPolyline
 90
4
 70
0
 10
139.553646
 20
72.198035
 30
0.0
 10
139.553646
 20
67.766650
 30
0.0
 10
139.969764
 20
67.766650
 30
0.0
 10
156.315394
 20
67.766650
 30
0.0
  0
LWPOLYLINE
  5
154
100
AcDbEntity
  8
Ebene_1
 62
7
100
AcDbPolyline
 90
3
 70
0
 10
160.000313
 20
71.748581
 30
0.0
 10
160.000313
 20
72.198035
 30
0.0
 10
139.553646
 20
72.198035
 30
0.0
  0
LWPOLYLINE
  5
155
100
AcDbEntity
  8
Ebene_1
 62
7
100
AcDbPolyline
 90
9
 70
1
 10
44.747043
 20
39.598258
 30
0.0
 10
44.747043
 20
28.105456
 30
0.0
 10
45.163163
 20
28.105456
 30
0.0
 10
65.193711
 20
28.105456
 30
0.0
 10
65.193711
 20
39.598258
 30
0.0
 10
61.092670
 20
39.598258
 30
0.0
 10
61.092670
 20
32.536841
 30
0.0
 10
48.848076
 20
32.536841
 30
0.0
 10
48.848076
 20
39.598258
 30
0.0
  0
SPLINE
  5
156
100
AcDbEntity
  8
Ebene_1
 62
7
100
AcDbSpline
 70
8
 71
3
 72
8
 73
4
 74
0
 40
0
 40
0
 40
0
 40
0
 40
1
 40
1
 40
1
 40
1
 10
44.747043
 20
46.210211
 30
0.0
 10
44.747043
 20
45.130877
 30
0.0
 10
45.112642
 20
44.160741
 30
0.0
 10
45.810090
 20
43.387049
 30
0.0
  0
LWPOLYLINE
  5
157
100
AcDbEntity
  8
Ebene_1
 62
7
100
AcDbPolyline
 90
2
 70
0
 10
44.747043
 20
46.659665
 30
0.0
 10
44.747043
 20
46.210211
 30
0.0
  0
SPLINE
  5
158
100
AcDbEntity
  8
Ebene_1
 62
7
100
AcDbSpline
 70
8
 71
3
 72
8
 73
4
 74
0
 40
0
 40
0
 40
0
 40
0
 40
1
 40
1
 40
1
 40
1
 10
45.813550
 20
43.383589
 30
0.0
 10
46.515124
 20
42.625812
 30
0.0
 10
47.417674
 20
42.230096
 30
0.0
 10
48.432164
 20
42.230096
 30
0.0
  0
LWPOLYLINE
  5
159
100
AcDbEntity
  8
Ebene_1
 62
7
100
AcDbPolyline
 90
3
 70
0
 10
45.810090
 20
43.387049
 30
0.0
 10
45.811820
 20
43.385319
 30
0.0
 10
45.813550
 20
43.383589
 30
0.0
  0
SPLINE
  5
15a
100
AcDbEntity
  8
Ebene_1
 62
7
100
AcDbSpline
 70
8
 71
3
 72
8
 73
4
 74
0
 40
0
 40
0
 40
0
 40
0
 40
1
 40
1
 40
1
 40
1
 10
61.508997
 20
42.230096
 30
0.0
 10
62.493093
 20
42.230096
 30
0.0
 10
63.383352
 20
42.626357
 30
0.0
 10
64.098350
 20
43.378331
 30
0.0
  0
SPLINE
  5
15b
100
AcDbEntity
  8
Ebene_1
 62
7
100
AcDbSpline
 70
8
 71
3
 72
8
 73
4
 74
0
 40
0
 40
0
 40
0
 40
0
 40
1
 40
1
 40
1
 40
1
 10
64.098350
 20
43.378331
 30
0.0
 10
64.817871
 20
44.135035
 30
0.0
 10
65.193919
 20
45.111710
 30
0.0
 10
65.193919
 20
46.210271
 30
0.0
  0
LWPOLYLINE
  5
15c
100
AcDbEntity
  8
Ebene_1
 62
7
100
AcDbPolyline
 90
2
 70
0
 10
48.432164
 20
42.230096
 30
0.0
 10
61.508997
 20
42.230096
 30
0.0
  0
LWPOLYLINE
  5
15d
100
AcDbEntity
  8
Ebene_1
 62
7
100
AcDbPolyline
 90
3
 70
0
 10
65.193919
 20
46.210271
 30
0.0
 10
65.193919
 20
46.659726
 30
0.0
 10
44.747043
 20
46.659665
 30
0.0
  0
LWPOLYLINE
  5
15e
100
AcDbEntity
  8
Ebene_1
 62
7
100
AcDbPolyline
 90
12
 70
1
 10
67.043485
 20
46.659665
 30
0.0
 10
70.900701
 20
42.493399
 30
0.0
 10
70.900701
 20
28.105456
 30
0.0
 10
71.316821
 20
28.105456
 30
0.0
 10
75.001734
 20
28.105456
 30
0.0
 10
75.001734
 20
38.063778
 30
0.0
 10
84.221351
 20
28.105456
 30
0.0
 10
88.078567
 20
28.105456
 30
0.0
 10
88.078567
 20
46.659665
 30
0.0
 10
83.977535
 20
46.659665
 30
0.0
 10
83.977535
 20
34.936877
 30
0.0
 10
73.124325
 20
46.659665
 30
0.0
  0
SPLINE
  5
15f
100
AcDbEntity
  8
Ebene_1
 62
7
100
AcDbSpline
 70
8
 71
3
 72
8
 73
4
 74
0
 40
0
 40
0
 40
0
 40
0
 40
1
 40
1
 40
1
 40
1
 10
107.278511
 20
28.105456
 30
0.0
 10
108.262598
 20
28.105456
 30
0.0
 10
109.151240
 20
28.501725
 30
0.0
 10
109.866237
 20
29.253690
 30
0.0
  0
SPLINE
  5
160
100
AcDbEntity
  8
Ebene_1
 62
7
100
AcDbSpline
 70
8
 71
3
 72
8
 73
4
 74
0
 40
0
 40
0
 40
0
 40
0
 40
1
 40
1
 40
1
 40
1
 10
109.866237
 20
29.253690
 30
0.0
 10
110.585750
 20
30.010404
 30
0.0
 10
110.963423
 20
30.988826
 30
0.0
 10
110.963423
 20
32.087378
 30
0.0
  0
LWPOLYLINE
  5
161
100
AcDbEntity
  8
Ebene_1
 62
7
100
AcDbPolyline
 90
4
 70
0
 10
90.515130
 20
46.659665
 30
0.0
 10
90.515130
 20
28.105456
 30
0.0
 10
90.931249
 20
28.105456
 30
0.0
 10
107.278511
 20
28.105456
 30
0.0
  0
LWPOLYLINE
  5
162
100
AcDbEntity
  8
Ebene_1
 62
7
100
AcDbPolyline
 90
5
 70
0
 10
110.963423
 20
32.087378
 30
0.0
 10
110.963423
 20
32.536841
 30
0.0
 10
94.617797
 20
32.536841
 30
0.0
 10
94.617797
 20
46.659665
 30
0.0
 10
90.515130
 20
46.659665
 30
0.0
  0
SPLINE
  5
163
100
AcDbEntity
  8
Ebene_1
 62
7
100
AcDbSpline
 70
8
 71
3
 72
8
 73
4
 74
0
 40
0
 40
0
 40
0
 40
0
 40
1
 40
1
 40
1
 40
1
 10
89.268706
 20
79.285290
 30
0.0
 10
89.036810
 20
80.499670
 30
0.0
 10
69.082439
 20
191.115460
 30
0.0
 10
69.082439
 20
191.186570
 30
0.0
  0
SPLINE
  5
164
100
AcDbEntity
  8
Ebene_1
 62
7
100
AcDbSpline
 70
8
 71
3
 72
8
 73
4
 74
0
 40
0
 40
0
 40
0
 40
0
 40
1
 40
1
 40
1
 40
1
 10
69.082439
 20
191.186570
 30
0.0
 10
69.082439
 20
191.287630
 30
0.0
 10
63.188774
 20
191.139770
 30
0.0
 10
60.226328
 20
190.964230
 30
0.0
  0
SPLINE
  5
165
100
AcDbEntity
  8
Ebene_1
 62
7
100
AcDbSpline
 70
8
 71
3
 72
8
 73
4
 74
0
 40
0
 40
0
 40
0
 40
0
 40
1
 40
1
 40
1
 40
1
 10
60.226328
 20
190.964230
 30
0.0
 10
51.410253
 20
190.442210
 30
0.0
 10
46.875901
 20
188.909280
 30
0.0
 10
44.684331
 20
185.709950
 30
0.0
  0
SPLINE
  5
166
100
AcDbEntity
  8
Ebene_1
 62
7
100
AcDbSpline
 70
8
 71
3
 72
8
 73
4
 74
0
 40
0
 40
0
 40
0
 40
0
 40
1
 40
1
 40
1
 40
1
 10
44.684331
 20
185.709950
 30
0.0
 10
43.876311
 20
184.530400
 30
0.0
 10
43.538988
 20
183.689330
 30
0.0
 10
43.186322
 20
181.975380
 30
0.0
  0
SPLINE
  5
167
100
AcDbEntity
  8
Ebene_1
 62
7
100
AcDbSpline
 70
8
 71
3
 72
8
 73
4
 74
0
 40
0
 40
0
 40
0
 40
0
 40
1
 40
1
 40
1
 40
1
 10
43.186322
 20
181.975380
 30
0.0
 10
43.043053
 20
181.278970
 30
0.0
 10
42.899690
 20
180.683260
 30
0.0
 10
42.867762
 20
180.651540
 30
0.0
  0
SPLINE
  5
168
100
AcDbEntity
  8
Ebene_1
 62
7
100
AcDbSpline
 70
8
 71
3
 72
8
 73
4
 74
0
 40
0
 40
0
 40
0
 40
0
 40
1
 40
1
 40
1
 40
1
 10
42.867762
 20
180.651540
 30
0.0
 10
42.760448
 20
180.544920
 30
0.0
 10
39.096660
 20
182.273520
 30
0.0
 10
37.260999
 20
183.296810
 30
0.0
  0
SPLINE
  5
169
100
AcDbEntity
  8
Ebene_1
 62
7
100
AcDbSpline
 70
8
 71
3
 72
8
 73
4
 74
0
 40
0
 40
0
 40
0
 40
0
 40
1
 40
1
 40
1
 40
1
 10
37.260999
 20
183.296810
 30
0.0
 10
31.770483
 20
186.357450
 30
0.0
 10
27.459992
 20
189.901190
 30
0.0
 10
24.527662
 20
193.765170
 30
0.0
  0
SPLINE
  5
16a
100
AcDbEntity
  8
Ebene_1
 62
7
100
AcDbSpline
 70
8
 71
3
 72
8
 73
4
 74
0
 40
0
 40
0
 40
0
 40
0
 40
1
 40
1
 40
1
 40
1
 10
24.527662
 20
193.765170
 30
0.0
 10
24.096858
 20
194.332850
 30
0.0
 10
23.744399
 20
194.843740
 30
0.0
 10
23.744399
 20
194.900550
 30
0.0
  0
SPLINE
  5
16b
100
AcDbEntity
  8
Ebene_1
 62
7
100
AcDbSpline
 70
8
 71
3
 72
8
 73
4
 74
0
 40
0
 40
0
 40
0
 40
0
 40
1
 40
1
 40
1
 40
1
 10
23.744399
 20
194.900550
 30
0.0
 10
23.744399
 20
194.957550
 30
0.0
 10
23.967454
 20
195.095460
 30
0.0
 10
24.240065
 20
195.207500
 30
0.0
  0
SPLINE
  5
16c
100
AcDbEntity
  8
Ebene_1
 62
7
100
AcDbSpline
 70
8
 71
3
 72
8
 73
4
 74
0
 40
0
 40
0
 40
0
 40
0
 40
1
 40
1
 40
1
 40
1
 10
24.240065
 20
195.207500
 30
0.0
 10
24.512684
 20
195.319440
 30
0.0
 10
25.687457
 20
195.822260
 30
0.0
 10
26.850642
 20
196.324720
 30
0.0
  0
SPLINE
  5
16d
100
AcDbEntity
  8
Ebene_1
 62
7
100
AcDbSpline
 70
8
 71
3
 72
8
 73
4
 74
0
 40
0
 40
0
 40
0
 40
0
 40
1
 40
1
 40
1
 40
1
 10
26.850642
 20
196.324720
 30
0.0
 10
40.177879
 20
202.081604
 30
0.0
 10
57.501303
 20
206.105535
 30
0.0
 10
73.047862
 20
207.055571
 30
0.0
  0
LWPOLYLINE
  5
16e
100
AcDbEntity
  8
Ebene_1
 62
7
100
AcDbPolyline
 90
14
 70
1
 10
113.399986
 20
46.659665
 30
0.0
 10
113.399986
 20
42.493399
 30
0.0
 10
121.572803
 20
33.665753
 30
0.0
 10
121.572803
 20
28.105456
 30
0.0
 10
121.988921
 20
28.105456
 30
0.0
 10
125.673839
 20
28.105456
 30
0.0
 10
125.673839
 20
33.665753
 30
0.0
 10
133.846654
 20
42.493399
 30
0.0
 10
133.846654
 20
46.659665
 30
0.0
 10
129.745618
 20
46.659665
 30
0.0
 10
129.745618
 20
44.631836
 30
0.0
 10
123.624134
 20
38.018127
 30
0.0
 10
117.501025
 20
44.631836
 30
0.0
 10
117.501025
 20
46.659665
 30
0.0
  0
SPLINE
  5
16f
100
AcDbEntity
  8
Ebene_1
 62
7
100
AcDbSpline
 70
8
 71
3
 72
8
 73
4
 74
0
 40
0
 40
0
 40
0
 40
0
 40
1
 40
1
 40
1
 40
1
 10
81.885344
 20
198.127050
 30
0.0
 10
85.982608
 20
193.169740
 30
0.0
 10
89.380283
 20
189.163380
 30
0.0
 10
89.435665
 20
189.224060
 30
0.0
  0
SPLINE
  5
170
100
AcDbEntity
  8
Ebene_1
 62
7
100
AcDbSpline
 70
8
 71
3
 72
8
 73
4
 74
0
 40
0
 40
0
 40
0
 40
0
 40
1
 40
1
 40
1
 40
1
 10
89.435665
 20
189.224060
 30
0.0
 10
89.490995
 20
189.284660
 30
0.0
 10
92.816507
 20
193.303360
 30
0.0
 10
96.825518
 20
198.154260
 30
0.0
  0
SPLINE
  5
171
100
AcDbEntity
  8
Ebene_1
 62
7
100
AcDbSpline
 70
8
 71
3
 72
8
 73
4
 74
0
 40
0
 40
0
 40
0
 40
0
 40
1
 40
1
 40
1
 40
1
 10
96.825518
 20
198.154260
 30
0.0
 10
100.834510
 20
203.005123
 30
0.0
 10
104.175850
 20
207.011619
 30
0.0
 10
104.250670
 20
207.057550
 30
0.0
  0
SPLINE
  5
172
100
AcDbEntity
  8
Ebene_1
 62
7
100
AcDbSpline
 70
8
 71
3
 72
8
 73
4
 74
0
 40
0
 40
0
 40
0
 40
0
 40
1
 40
1
 40
1
 40
1
 10
104.250670
 20
207.057550
 30
0.0
 10
104.406810
 20
207.153350
 30
0.0
 10
107.740960
 20
206.939840
 30
0.0
 10
110.653320
 20
206.647530
 30
0.0
  0
SPLINE
  5
173
100
AcDbEntity
  8
Ebene_1
 62
7
100
AcDbSpline
 70
8
 71
3
 72
8
 73
4
 74
0
 40
0
 40
0
 40
0
 40
0
 40
1
 40
1
 40
1
 40
1
 10
110.653320
 20
206.647530
 30
0.0
 10
122.935210
 20
205.414827
 30
0.0
 10
135.270450
 20
202.592930
 30
0.0
 10
146.474340
 20
198.452810
 30
0.0
  0
SPLINE
  5
174
100
AcDbEntity
  8
Ebene_1
 62
7
100
AcDbSpline
 70
8
 71
3
 72
8
 73
4
 74
0
 40
0
 40
0
 40
0
 40
0
 40
1
 40
1
 40
1
 40
1
 10
146.474340
 20
198.452810
 30
0.0
 10
149.118500
 20
197.475730
 30
0.0
 10
153.371790
 20
195.731810
 30
0.0
 10
154.481060
 20
195.169900
 30
0.0
  0
LWPOLYLINE
  5
175
100
AcDbEntity
  8
Ebene_1
 62
7
100
AcDbPolyline
 90
3
 70
0
 10
73.047862
 20
207.055571
 30
0.0
 10
74.435751
 20
207.140391
 30
0.0
 10
81.885344
 20
198.127050
 30
0.0
  0
SPLINE
  5
176
100
AcDbEntity
  8
Ebene_1
 62
7
100
AcDbSpline
 70
8
 71
3
 72
8
 73
4
 74
0
 40
0
 40
0
 40
0
 40
0
 40
1
 40
1
 40
1
 40
1
 10
154.330800
 20
193.994840
 30
0.0
 10
151.732970
 20
190.448390
 30
0.0
 10
147.660370
 20
186.963260
 30
0.0
 10
142.616830
 20
183.970600
 30
0.0
  0
SPLINE
  5
177
100
AcDbEntity
  8
Ebene_1
 62
7
100
AcDbSpline
 70
8
 71
3
 72
8
 73
4
 74
0
 40
0
 40
0
 40
0
 40
0
 40
1
 40
1
 40
1
 40
1
 10
142.616830
 20
183.970600
 30
0.0
 10
141.229760
 20
183.147530
 30
0.0
 10
136.638120
 20
180.859250
 30
0.0
 10
136.012030
 20
180.679000
 30
0.0
  0
SPLINE
  5
178
100
AcDbEntity
  8
Ebene_1
 62
7
100
AcDbSpline
 70
8
 71
3
 72
8
 73
4
 74
0
 40
0
 40
0
 40
0
 40
0
 40
1
 40
1
 40
1
 40
1
 10
136.012030
 20
180.679000
 30
0.0
 10
135.753680
 20
180.604500
 30
0.0
 10
135.719070
 20
180.660500
 30
0.0
 10
135.633100
 20
181.290910
 30
0.0
  0
SPLINE
  5
179
100
AcDbEntity
  8
Ebene_1
 62
7
100
AcDbSpline
 70
8
 71
3
 72
8
 73
4
 74
0
 40
0
 40
0
 40
0
 40
0
 40
1
 40
1
 40
1
 40
1
 10
135.633100
 20
181.290910
 30
0.0
 10
135.581100
 20
181.672490
 30
0.0
 10
135.393180
 20
182.485110
 30
0.0
 10
135.215530
 20
183.096760
 30
0.0
  0
SPLINE
  5
17a
100
AcDbEntity
  8
Ebene_1
 62
7
100
AcDbSpline
 70
8
 71
3
 72
8
 73
4
 74
0
 40
0
 40
0
 40
0
 40
0
 40
1
 40
1
 40
1
 40
1
 10
135.215530
 20
183.096760
 30
0.0
 10
133.816700
 20
187.913260
 30
0.0
 10
129.683670
 20
190.051960
 30
0.0
 10
120.236420
 20
190.848010
 30
0.0
  0
SPLINE
  5
17b
100
AcDbEntity
  8
Ebene_1
 62
7
100
AcDbSpline
 70
8
 71
3
 72
8
 73
4
 74
0
 40
0
 40
0
 40
0
 40
0
 40
1
 40
1
 40
1
 40
1
 10
120.236420
 20
190.848010
 30
0.0
 10
118.179380
 20
191.021320
 30
0.0
 10
109.624300
 20
191.243770
 30
0.0
 10
109.516810
 20
191.126710
 30
0.0
  0
SPLINE
  5
17c
100
AcDbEntity
  8
Ebene_1
 62
7
100
AcDbSpline
 70
8
 71
3
 72
8
 73
4
 74
0
 40
0
 40
0
 40
0
 40
0
 40
1
 40
1
 40
1
 40
1
 10
109.516810
 20
191.126710
 30
0.0
 10
109.462110
 20
191.067110
 30
0.0
 10
92.946593
 20
99.077130
 30
0.0
 10
89.461147
 20
79.416540
 30
0.0
  0
LWPOLYLINE
  5
17d
100
AcDbEntity
  8
Ebene_1
 62
7
100
AcDbPolyline
 90
3
 70
0
 10
154.481060
 20
195.169900
 30
0.0
 10
154.999280
 20
194.907390
 30
0.0
 10
154.330800
 20
193.994840
 30
0.0
  0
SPLINE
  5
17e
100
AcDbEntity
  8
Ebene_1
 62
7
100
AcDbSpline
 70
8
 71
3
 72
8
 73
4
 74
0
 40
0
 40
0
 40
0
 40
0
 40
1
 40
1
 40
1
 40
1
 10
155.000000
 20
199.863060
 30
0.0
 10
139.213130
 20
206.473945
 30
0.0
 10
121.277410
 20
210.680686
 30
0.0
 10
103.383360
 20
211.969467
 30
0.0
  0
SPLINE
  5
17f
100
AcDbEntity
  8
Ebene_1
 62
7
100
AcDbSpline
 70
8
 71
3
 72
8
 73
4
 74
0
 40
0
 40
0
 40
0
 40
0
 40
1
 40
1
 40
1
 40
1
 10
103.383360
 20
211.969467
 30
0.0
 10
97.634418
 20
212.383518
 30
0.0
 10
85.690976
 20
212.519115
 30
0.0
 10
79.907600
 20
212.235985
 30
0.0
  0
SPLINE
  5
180
100
AcDbEntity
  8
Ebene_1
 62
7
100
AcDbSpline
 70
8
 71
3
 72
8
 73
4
 74
0
 40
0
 40
0
 40
0
 40
0
 40
1
 40
1
 40
1
 40
1
 10
79.907600
 20
212.235985
 30
0.0
 10
59.865585
 20
211.254798
 30
0.0
 10
41.426562
 20
207.199273
 30
0.0
 10
23.705582
 20
199.874780
 30
0.0
  0
SPLINE
  5
181
100
AcDbEntity
  8
Ebene_1
 62
7
100
AcDbSpline
 70
8
 71
3
 72
8
 73
4
 74
0
 40
0
 40
0
 40
0
 40
0
 40
1
 40
1
 40
1
 40
1
 10
23.705582
 20
199.874780
 30
0.0
 10
22.484673
 20
199.370160
 30
0.0
 10
21.409753
 20
198.986240
 30
0.0
 10
21.316851
 20
199.021650
 30
0.0
  0
SPLINE
  5
182
100
AcDbEntity
  8
Ebene_1
 62
7
100
AcDbSpline
 70
8
 71
3
 72
8
 73
4
 74
0
 40
0
 40
0
 40
0
 40
0
 40
1
 40
1
 40
1
 40
1
 10
21.316851
 20
199.021650
 30
0.0
 10
21.223991
 20
199.057050
 30
0.0
 10
20.459567
 20
200.465063
 30
0.0
 10
19.618256
 20
202.150576
 30
0.0
  0
SPLINE
  5
183
100
AcDbEntity
  8
Ebene_1
 62
7
100
AcDbSpline
 70
8
 71
3
 72
8
 73
4
 74
0
 40
0
 40
0
 40
0
 40
0
 40
1
 40
1
 40
1
 40
1
 10
19.618256
 20
202.150576
 30
0.0
 10
18.044188
 20
205.304065
 30
0.0
 10
17.310641
 20
206.942238
 30
0.0
 10
17.422774
 20
207.053574
 30
0.0
  0
SPLINE
  5
184
100
AcDbEntity
  8
Ebene_1
 62
7
100
AcDbSpline
 70
8
 71
3
 72
8
 73
4
 74
0
 40
0
 40
0
 40
0
 40
0
 40
1
 40
1
 40
1
 40
1
 10
17.422774
 20
207.053574
 30
0.0
 10
17.537520
 20
207.167448
 30
0.0
 10
22.159030
 20
208.901049
 30
0.0
 10
24.867931
 20
209.846340
 30
0.0
  0
SPLINE
  5
185
100
AcDbEntity
  8
Ebene_1
 62
7
100
AcDbSpline
 70
8
 71
3
 72
8
 73
4
 74
0
 40
0
 40
0
 40
0
 40
0
 40
1
 40
1
 40
1
 40
1
 10
24.867931
 20
209.846340
 30
0.0
 10
50.262917
 20
218.708119
 30
0.0
 10
77.384080
 20
222.380445
 30
0.0
 10
103.052920
 20
220.432938
 30
0.0
  0
SPLINE
  5
186
100
AcDbEntity
  8
Ebene_1
 62
7
100
AcDbSpline
 70
8
 71
3
 72
8
 73
4
 74
0
 40
0
 40
0
 40
0
 40
0
 40
1
 40
1
 40
1
 40
1
 10
103.052920
 20
220.432938
 30
0.0
 10
122.251670
 20
218.976313
 30
0.0
 10
140.345570
 20
214.955212
 30
0.0
 10
158.763950
 20
208.051984
 30
0.0
  0
SPLINE
  5
187
100
AcDbEntity
  8
Ebene_1
 62
7
100
AcDbSpline
 70
8
 71
3
 72
8
 73
4
 74
0
 40
0
 40
0
 40
0
 40
0
 40
1
 40
1
 40
1
 40
1
 10
158.763950
 20
208.051984
 30
0.0
 10
160.135240
 20
207.538021
 30
0.0
 10
161.280800
 20
207.094108
 30
0.0
 10
161.309580
 20
207.065507
 30
0.0
  0
SPLINE
  5
188
100
AcDbEntity
  8
Ebene_1
 62
7
100
AcDbSpline
 70
8
 71
3
 72
8
 73
4
 74
0
 40
0
 40
0
 40
0
 40
0
 40
1
 40
1
 40
1
 40
1
 10
161.309580
 20
207.065507
 30
0.0
 10
161.460140
 20
206.916021
 30
0.0
 10
157.777350
 20
199.282440
 30
0.0
 10
157.404200
 20
198.970490
 30
0.0
  0
SPLINE
  5
189
100
AcDbEntity
  8
Ebene_1
 62
7
100
AcDbSpline
 70
8
 71
3
 72
8
 73
4
 74
0
 40
0
 40
0
 40
0
 40
0
 40
1
 40
1
 40
1
 40
1
 10
157.404200
 20
198.970490
 30
0.0
 10
157.354200
 20
198.928890
 30
0.0
 10
156.272230
 20
199.330310
 30
0.0
 10
155.000000
 20
199.863060
 30
0.0
  0
LWPOLYLINE
  5
18a
100
AcDbEntity
  8
Ebene_1
 62
7
100
AcDbPolyline
 90
3
 70
0
 10
89.461147
 20
79.416540
 30
0.0
 10
89.356464
 20
78.825930
 30
0.0
 10
89.268706
 20
79.285290
 30
0.0
  0
LWPOLYLINE
  5
18b
100
AcDbEntity
  8
Ebene_1
 62
7
100
AcDbPolyline
 90
1
 70
1
 10
155.000000
 20
199.863060
 30
0.0
  0
LWPOLYLINE
  5
18c
100
AcDbEntity
  8
Ebene_1
 62
7
100
AcDbPolyline
 90
9
 70
1
 10
136.925918
 20
242.735429
 30
0.0
 10
136.925918
 20
230.766202
 30
0.0
 10
137.357850
 20
230.766202
 30
0.0
 10
141.491564
 20
230.766202
 30
0.0
 10
141.491564
 20
238.169778
 30
0.0
 10
155.434857
 20
238.169778
 30
0.0
 10
155.434857
 20
230.766202
 30
0.0
 10
160.000511
 20
230.766202
 30
0.0
 10
160.000511
 20
242.735429
 30
0.0
  0
SPLINE
  5
18d
100
AcDbEntity
  8
Ebene_1
 62
7
100
AcDbSpline
 70
8
 71
3
 72
8
 73
4
 74
0
 40
0
 40
0
 40
0
 40
0
 40
1
 40
1
 40
1
 40
1
 10
136.925918
 20
249.707073
 30
0.0
 10
136.925918
 20
248.584700
 30
0.0
 10
137.333713
 20
247.579230
 30
0.0
 10
138.117107
 20
246.774663
 30
0.0
  0
LWPOLYLINE
  5
18e
100
AcDbEntity
  8
Ebene_1
 62
7
100
AcDbPolyline
 90
2
 70
0
 10
136.925918
 20
250.139005
 30
0.0
 10
136.925918
 20
249.707073
 30
0.0
  0
SPLINE
  5
18f
100
AcDbEntity
  8
Ebene_1
 62
7
100
AcDbSpline
 70
8
 71
3
 72
8
 73
4
 74
0
 40
0
 40
0
 40
0
 40
0
 40
1
 40
1
 40
1
 40
1
 10
138.122291
 20
246.771208
 30
0.0
 10
138.909961
 20
245.983542
 30
0.0
 10
139.919972
 20
245.573273
 30
0.0
 10
141.059762
 20
245.573273
 30
0.0
  0
LWPOLYLINE
  5
190
100
AcDbEntity
  8
Ebene_1
 62
7
100
AcDbPolyline
 90
3
 70
0
 10
138.117107
 20
246.774663
 30
0.0
 10
138.120563
 20
246.772936
 30
0.0
 10
138.122291
 20
246.771208
 30
0.0
  0
SPLINE
  5
191
100
AcDbEntity
  8
Ebene_1
 62
7
100
AcDbSpline
 70
8
 71
3
 72
8
 73
4
 74
0
 40
0
 40
0
 40
0
 40
0
 40
1
 40
1
 40
1
 40
1
 10
155.866918
 20
245.573273
 30
0.0
 10
156.971945
 20
245.573273
 30
0.0
 10
157.967435
 20
245.984073
 30
0.0
 10
158.770646
 20
246.766146
 30
0.0
  0
SPLINE
  5
192
100
AcDbEntity
  8
Ebene_1
 62
7
100
AcDbSpline
 70
8
 71
3
 72
8
 73
4
 74
0
 40
0
 40
0
 40
0
 40
0
 40
1
 40
1
 40
1
 40
1
 10
158.770646
 20
246.766146
 30
0.0
 10
159.578548
 20
247.552790
 30
0.0
 10
160.000640
 20
248.564534
 30
0.0
 10
160.000640
 20
249.706992
 30
0.0
  0
LWPOLYLINE
  5
193
100
AcDbEntity
  8
Ebene_1
 62
7
100
AcDbPolyline
 90
2
 70
0
 10
141.059762
 20
245.573273
 30
0.0
 10
155.866918
 20
245.573273
 30
0.0
  0
LWPOLYLINE
  5
194
100
AcDbEntity
  8
Ebene_1
 62
7
100
AcDbPolyline
 90
3
 70
0
 10
160.000640
 20
249.706992
 30
0.0
 10
160.000640
 20
250.138923
 30
0.0
 10
136.925918
 20
250.139005
 30
0.0
  0
SPLINE
  5
195
100
AcDbEntity
  8
Ebene_1
 62
7
100
AcDbSpline
 70
8
 71
3
 72
8
 73
4
 74
0
 40
0
 40
0
 40
0
 40
0
 40
1
 40
1
 40
1
 40
1
 10
21.866787
 20
249.707073
 30
0.0
 10
21.866787
 20
248.584700
 30
0.0
 10
22.276267
 20
247.579230
 30
0.0
 10
23.059661
 20
246.774663
 30
0.0
  0
LWPOLYLINE
  5
196
100
AcDbEntity
  8
Ebene_1
 62
7
100
AcDbPolyline
 90
2
 70
0
 10
21.866787
 20
250.139005
 30
0.0
 10
21.866787
 20
249.707073
 30
0.0
  0
SPLINE
  5
197
100
AcDbEntity
  8
Ebene_1
 62
7
100
AcDbSpline
 70
8
 71
3
 72
8
 73
4
 74
0
 40
0
 40
0
 40
0
 40
0
 40
1
 40
1
 40
1
 40
1
 10
23.063116
 20
246.771208
 30
0.0
 10
23.850787
 20
245.983541
 30
0.0
 10
24.860798
 20
245.573273
 30
0.0
 10
26.000587
 20
245.573273
 30
0.0
  0
LWPOLYLINE
  5
198
100
AcDbEntity
  8
Ebene_1
 62
7
100
AcDbPolyline
 90
3
 70
0
 10
23.059661
 20
246.774663
 30
0.0
 10
23.061389
 20
246.772936
 30
0.0
 10
23.063116
 20
246.771208
 30
0.0
  0
SPLINE
  5
199
100
AcDbEntity
  8
Ebene_1
 62
7
100
AcDbSpline
 70
8
 71
3
 72
8
 73
4
 74
0
 40
0
 40
0
 40
0
 40
0
 40
1
 40
1
 40
1
 40
1
 10
40.807744
 20
245.573354
 30
0.0
 10
41.912771
 20
245.573354
 30
0.0
 10
42.908261
 20
245.984154
 30
0.0
 10
43.711472
 20
246.766227
 30
0.0
  0
SPLINE
  5
19a
100
AcDbEntity
  8
Ebene_1
 62
7
100
AcDbSpline
 70
8
 71
3
 72
8
 73
4
 74
0
 40
0
 40
0
 40
0
 40
0
 40
1
 40
1
 40
1
 40
1
 10
43.711472
 20
246.766227
 30
0.0
 10
44.519374
 20
247.552870
 30
0.0
 10
44.941458
 20
248.564614
 30
0.0
 10
44.941458
 20
249.707073
 30
0.0
  0
LWPOLYLINE
  5
19b
100
AcDbEntity
  8
Ebene_1
 62
7
100
AcDbPolyline
 90
7
 70
0
 10
26.000587
 20
245.573273
 30
0.0
 10
31.121343
 20
245.573273
 30
0.0
 10
31.121343
 20
230.766202
 30
0.0
 10
31.553274
 20
230.766202
 30
0.0
 10
35.686988
 20
230.766202
 30
0.0
 10
35.686988
 20
245.573354
 30
0.0
 10
40.807744
 20
245.573354
 30
0.0
  0
LWPOLYLINE
  5
19c
100
AcDbEntity
  8
Ebene_1
 62
7
100
AcDbPolyline
 90
3
 70
0
 10
44.941458
 20
249.707073
 30
0.0
 10
44.941458
 20
250.139005
 30
0.0
 10
21.866787
 20
250.139005
 30
0.0
  0
SPLINE
  5
19d
100
AcDbEntity
  8
Ebene_1
 62
7
100
AcDbSpline
 70
8
 71
3
 72
8
 73
4
 74
0
 40
0
 40
0
 40
0
 40
0
 40
1
 40
1
 40
1
 40
1
 10
50.630730
 20
234.899921
 30
0.0
 10
50.630730
 20
233.777548
 30
0.0
 10
51.040209
 20
232.772078
 30
0.0
 10
51.823604
 20
231.967512
 30
0.0
  0
LWPOLYLINE
  5
19e
100
AcDbEntity
  8
Ebene_1
 62
7
100
AcDbPolyline
 90
2
 70
0
 10
50.630730
 20
235.331853
 30
0.0
 10
50.630730
 20
234.899921
 30
0.0
  0
SPLINE
  5
19f
100
AcDbEntity
  8
Ebene_1
 62
7
100
AcDbSpline
 70
8
 71
3
 72
8
 73
4
 74
0
 40
0
 40
0
 40
0
 40
0
 40
1
 40
1
 40
1
 40
1
 10
51.827059
 20
231.962415
 30
0.0
 10
52.614721
 20
231.174748
 30
0.0
 10
53.624732
 20
230.766167
 30
0.0
 10
54.764530
 20
230.766167
 30
0.0
  0
LWPOLYLINE
  5
1a0
100
AcDbEntity
  8
Ebene_1
 62
7
100
AcDbPolyline
 90
3
 70
0
 10
51.823604
 20
231.967512
 30
0.0
 10
51.825331
 20
231.965784
 30
0.0
 10
51.827059
 20
231.962415
 30
0.0
  0
SPLINE
  5
1a1
100
AcDbEntity
  8
Ebene_1
 62
7
100
AcDbSpline
 70
8
 71
3
 72
8
 73
4
 74
0
 40
0
 40
0
 40
0
 40
0
 40
1
 40
1
 40
1
 40
1
 10
69.571678
 20
230.766167
 30
0.0
 10
70.676705
 20
230.766167
 30
0.0
 10
71.673888
 20
231.176967
 30
0.0
 10
72.477091
 20
231.959040
 30
0.0
  0
SPLINE
  5
1a2
100
AcDbEntity
  8
Ebene_1
 62
7
100
AcDbSpline
 70
8
 71
3
 72
8
 73
4
 74
0
 40
0
 40
0
 40
0
 40
0
 40
1
 40
1
 40
1
 40
1
 10
72.477091
 20
231.959040
 30
0.0
 10
73.285001
 20
232.745683
 30
0.0
 10
73.705400
 20
233.757427
 30
0.0
 10
73.705400
 20
234.899886
 30
0.0
  0
LWPOLYLINE
  5
1a3
100
AcDbEntity
  8
Ebene_1
 62
7
100
AcDbPolyline
 90
2
 70
0
 10
54.764530
 20
230.766167
 30
0.0
 10
69.571678
 20
230.766167
 30
0.0
  0
LWPOLYLINE
  5
1a4
100
AcDbEntity
  8
Ebene_1
 62
7
100
AcDbPolyline
 90
3
 70
0
 10
73.705400
 20
234.899886
 30
0.0
 10
73.705400
 20
235.331818
 30
0.0
 10
50.630730
 20
235.331853
 30
0.0
  0
SPLINE
  5
1a5
100
AcDbEntity
  8
Ebene_1
 62
7
100
AcDbSpline
 70
8
 71
3
 72
8
 73
4
 74
0
 40
0
 40
0
 40
0
 40
0
 40
1
 40
1
 40
1
 40
1
 10
50.630730
 20
242.303498
 30
0.0
 10
50.630730
 20
241.181124
 30
0.0
 10
51.040209
 20
240.175655
 30
0.0
 10
51.823604
 20
239.371088
 30
0.0
  0
LWPOLYLINE
  5
1a6
100
AcDbEntity
  8
Ebene_1
 62
7
100
AcDbPolyline
 90
2
 70
0
 10
50.630730
 20
242.735429
 30
0.0
 10
50.630730
 20
242.303498
 30
0.0
  0
SPLINE
  5
1a7
100
AcDbEntity
  8
Ebene_1
 62
7
100
AcDbSpline
 70
8
 71
3
 72
8
 73
4
 74
0
 40
0
 40
0
 40
0
 40
0
 40
1
 40
1
 40
1
 40
1
 10
51.827059
 20
239.365991
 30
0.0
 10
52.614721
 20
238.578325
 30
0.0
 10
53.624732
 20
238.169743
 30
0.0
 10
54.764530
 20
238.169743
 30
0.0
  0
LWPOLYLINE
  5
1a8
100
AcDbEntity
  8
Ebene_1
 62
7
100
AcDbPolyline
 90
3
 70
0
 10
51.823604
 20
239.371088
 30
0.0
 10
51.825331
 20
239.369360
 30
0.0
 10
51.827059
 20
239.365991
 30
0.0
  0
SPLINE
  5
1a9
100
AcDbEntity
  8
Ebene_1
 62
7
100
AcDbSpline
 70
8
 71
3
 72
8
 73
4
 74
0
 40
0
 40
0
 40
0
 40
0
 40
1
 40
1
 40
1
 40
1
 10
69.571678
 20
238.169743
 30
0.0
 10
70.676705
 20
238.169743
 30
0.0
 10
71.673888
 20
238.580544
 30
0.0
 10
72.477091
 20
239.362617
 30
0.0
  0
SPLINE
  5
1aa
100
AcDbEntity
  8
Ebene_1
 62
7
100
AcDbSpline
 70
8
 71
3
 72
8
 73
4
 74
0
 40
0
 40
0
 40
0
 40
0
 40
1
 40
1
 40
1
 40
1
 10
72.477091
 20
239.362617
 30
0.0
 10
73.285001
 20
240.149260
 30
0.0
 10
73.705400
 20
241.161004
 30
0.0
 10
73.705400
 20
242.303463
 30
0.0
  0
LWPOLYLINE
  5
1ab
100
AcDbEntity
  8
Ebene_1
 62
7
100
AcDbPolyline
 90
2
 70
0
 10
54.764530
 20
238.169743
 30
0.0
 10
69.571678
 20
238.169743
 30
0.0
  0
LWPOLYLINE
  5
1ac
100
AcDbEntity
  8
Ebene_1
 62
7
100
AcDbPolyline
 90
3
 70
0
 10
73.705400
 20
242.303463
 30
0.0
 10
73.705400
 20
242.735395
 30
0.0
 10
50.630730
 20
242.735429
 30
0.0
  0
SPLINE
  5
1ad
100
AcDbEntity
  8
Ebene_1
 62
7
100
AcDbSpline
 70
8
 71
3
 72
8
 73
4
 74
0
 40
0
 40
0
 40
0
 40
0
 40
1
 40
1
 40
1
 40
1
 10
50.630730
 20
249.707073
 30
0.0
 10
50.630730
 20
248.584700
 30
0.0
 10
51.040209
 20
247.579230
 30
0.0
 10
51.823604
 20
246.774663
 30
0.0
  0
LWPOLYLINE
  5
1ae
100
AcDbEntity
  8
Ebene_1
 62
7
100
AcDbPolyline
 90
2
 70
0
 10
50.630730
 20
250.139005
 30
0.0
 10
50.630730
 20
249.707073
 30
0.0
  0
SPLINE
  5
1af
100
AcDbEntity
  8
Ebene_1
 62
7
100
AcDbSpline
 70
8
 71
3
 72
8
 73
4
 74
0
 40
0
 40
0
 40
0
 40
0
 40
1
 40
1
 40
1
 40
1
 10
51.827059
 20
246.771208
 30
0.0
 10
52.614721
 20
245.983541
 30
0.0
 10
53.624732
 20
245.573273
 30
0.0
 10
54.764530
 20
245.573273
 30
0.0
  0
LWPOLYLINE
  5
1b0
100
AcDbEntity
  8
Ebene_1
 62
7
100
AcDbPolyline
 90
3
 70
0
 10
51.823604
 20
246.774663
 30
0.0
 10
51.825331
 20
246.772936
 30
0.0
 10
51.827059
 20
246.771208
 30
0.0
  0
SPLINE
  5
1b1
100
AcDbEntity
  8
Ebene_1
 62
7
100
AcDbSpline
 70
8
 71
3
 72
8
 73
4
 74
0
 40
0
 40
0
 40
0
 40
0
 40
1
 40
1
 40
1
 40
1
 10
69.571678
 20
245.573273
 30
0.0
 10
70.676705
 20
245.573273
 30
0.0
 10
71.673888
 20
245.984073
 30
0.0
 10
72.477091
 20
246.766146
 30
0.0
  0
SPLINE
  5
1b2
100
AcDbEntity
  8
Ebene_1
 62
7
100
AcDbSpline
 70
8
 71
3
 72
8
 73
4
 74
0
 40
0
 40
0
 40
0
 40
0
 40
1
 40
1
 40
1
 40
1
 10
72.477091
 20
246.766146
 30
0.0
 10
73.285001
 20
247.552789
 30
0.0
 10
73.705400
 20
248.564533
 30
0.0
 10
73.705400
 20
249.706992
 30
0.0
  0
LWPOLYLINE
  5
1b3
100
AcDbEntity
  8
Ebene_1
 62
7
100
AcDbPolyline
 90
2
 70
0
 10
54.764530
 20
245.573273
 30
0.0
 10
69.571678
 20
245.573273
 30
0.0
  0
LWPOLYLINE
  5
1b4
100
AcDbEntity
  8
Ebene_1
 62
7
100
AcDbPolyline
 90
3
 70
0
 10
73.705400
 20
249.706992
 30
0.0
 10
73.705400
 20
250.138923
 30
0.0
 10
50.630730
 20
250.139005
 30
0.0
  0
SPLINE
  5
1b5
100
AcDbEntity
  8
Ebene_1
 62
7
100
AcDbSpline
 70
8
 71
3
 72
8
 73
4
 74
0
 40
0
 40
0
 40
0
 40
0
 40
1
 40
1
 40
1
 40
1
 10
83.530071
 20
235.331853
 30
0.0
 10
82.404984
 20
235.331853
 30
0.0
 10
81.396252
 20
234.910575
 30
0.0
 10
80.592600
 20
234.106923
 30
0.0
  0
SPLINE
  5
1b6
100
AcDbEntity
  8
Ebene_1
 62
7
100
AcDbSpline
 70
8
 71
3
 72
8
 73
4
 74
0
 40
0
 40
0
 40
0
 40
0
 40
1
 40
1
 40
1
 40
1
 10
80.592600
 20
234.106923
 30
0.0
 10
79.806312
 20
233.320631
 30
0.0
 10
79.396357
 20
232.320507
 30
0.0
 10
79.396357
 20
231.198134
 30
0.0
  0
LWPOLYLINE
  5
1b7
100
AcDbEntity
  8
Ebene_1
 62
7
100
AcDbPolyline
 90
5
 70
0
 10
79.396357
 20
250.139005
 30
0.0
 10
79.396357
 20
238.169778
 30
0.0
 10
97.905295
 20
238.169778
 30
0.0
 10
97.905295
 20
235.331853
 30
0.0
 10
83.530071
 20
235.331853
 30
0.0
  0
SPLINE
  5
1b8
100
AcDbEntity
  8
Ebene_1
 62
7
100
AcDbSpline
 70
8
 71
3
 72
8
 73
4
 74
0
 40
0
 40
0
 40
0
 40
0
 40
1
 40
1
 40
1
 40
1
 10
98.337227
 20
245.573354
 30
0.0
 10
99.442255
 20
245.573354
 30
0.0
 10
100.437744
 20
245.984154
 30
0.0
 10
101.240956
 20
246.766227
 30
0.0
  0
SPLINE
  5
1b9
100
AcDbEntity
  8
Ebene_1
 62
7
100
AcDbSpline
 70
8
 71
3
 72
8
 73
4
 74
0
 40
0
 40
0
 40
0
 40
0
 40
1
 40
1
 40
1
 40
1
 10
101.240956
 20
246.766227
 30
0.0
 10
102.048858
 20
247.552871
 30
0.0
 10
102.470941
 20
248.564615
 30
0.0
 10
102.470941
 20
249.707073
 30
0.0
  0
LWPOLYLINE
  5
1ba
100
AcDbEntity
  8
Ebene_1
 62
7
100
AcDbPolyline
 90
8
 70
0
 10
79.396357
 20
231.198134
 30
0.0
 10
79.396357
 20
230.766202
 30
0.0
 10
79.828288
 20
230.766202
 30
0.0
 10
102.470941
 20
230.766202
 30
0.0
 10
102.470941
 20
242.735429
 30
0.0
 10
83.962002
 20
242.735429
 30
0.0
 10
83.962002
 20
245.573354
 30
0.0
 10
98.337227
 20
245.573354
 30
0.0
  0
LWPOLYLINE
  5
1bb
100
AcDbEntity
  8
Ebene_1
 62
7
100
AcDbPolyline
 90
3
 70
0
 10
102.470941
 20
249.707073
 30
0.0
 10
102.470941
 20
250.139005
 30
0.0
 10
79.396357
 20
250.139005
 30
0.0
  0
SPLINE
  5
1bc
100
AcDbEntity
  8
Ebene_1
 62
7
100
AcDbSpline
 70
8
 71
3
 72
8
 73
4
 74
0
 40
0
 40
0
 40
0
 40
0
 40
1
 40
1
 40
1
 40
1
 10
127.101161
 20
230.766202
 30
0.0
 10
128.206189
 20
230.766202
 30
0.0
 10
129.203372
 20
231.177003
 30
0.0
 10
130.006574
 20
231.959075
 30
0.0
  0
SPLINE
  5
1bd
100
AcDbEntity
  8
Ebene_1
 62
7
100
AcDbSpline
 70
8
 71
3
 72
8
 73
4
 74
0
 40
0
 40
0
 40
0
 40
0
 40
1
 40
1
 40
1
 40
1
 10
130.006574
 20
231.959075
 30
0.0
 10
130.814476
 20
232.745719
 30
0.0
 10
131.234884
 20
233.757463
 30
0.0
 10
131.234884
 20
234.899921
 30
0.0
  0
LWPOLYLINE
  5
1be
100
AcDbEntity
  8
Ebene_1
 62
7
100
AcDbPolyline
 90
4
 70
0
 10
108.160291
 20
250.139005
 30
0.0
 10
108.160291
 20
230.766202
 30
0.0
 10
108.592222
 20
230.766202
 30
0.0
 10
127.101161
 20
230.766202
 30
0.0
  0
SPLINE
  5
1bf
100
AcDbEntity
  8
Ebene_1
 62
7
100
AcDbSpline
 70
8
 71
3
 72
8
 73
4
 74
0
 40
0
 40
0
 40
0
 40
0
 40
1
 40
1
 40
1
 40
1
 10
12.262493
 20
265.000004
 30
0.0
 10
11.251337
 20
265.000004
 30
0.0
 10
10.339747
 20
264.390899
 30
0.0
 10
9.952794
 20
263.456713
 30
0.0
  0
SPLINE
  5
1c0
100
AcDbEntity
  8
Ebene_1
 62
7
100
AcDbSpline
 70
8
 71
3
 72
8
 73
4
 74
0
 40
0
 40
0
 40
0
 40
0
 40
1
 40
1
 40
1
 40
1
 10
9.952794
 20
263.456713
 30
0.0
 10
9.565842
 20
262.522527
 30
0.0
 10
9.779731
 20
261.447232
 30
0.0
 10
10.494726
 20
260.732237
 30
0.0
  0
SPLINE
  5
1c1
100
AcDbEntity
  8
Ebene_1
 62
7
100
AcDbSpline
 70
8
 71
3
 72
8
 73
4
 74
0
 40
0
 40
0
 40
0
 40
0
 40
1
 40
1
 40
1
 40
1
 10
10.494726
 20
260.732237
 30
0.0
 10
11.209721
 20
260.017242
 30
0.0
 10
12.285016
 20
259.803353
 30
0.0
 10
13.219202
 20
260.190305
 30
0.0
  0
SPLINE
  5
1c2
100
AcDbEntity
  8
Ebene_1
 62
7
100
AcDbSpline
 70
8
 71
3
 72
8
 73
4
 74
0
 40
0
 40
0
 40
0
 40
0
 40
1
 40
1
 40
1
 40
1
 10
13.219202
 20
260.190305
 30
0.0
 10
14.153388
 20
260.577258
 30
0.0
 10
14.762493
 20
261.488848
 30
0.0
 10
14.762493
 20
262.500004
 30
0.0
  0
SPLINE
  5
1c3
100
AcDbEntity
  8
Ebene_1
 62
7
100
AcDbSpline
 70
8
 71
3
 72
8
 73
4
 74
0
 40
0
 40
0
 40
0
 40
0
 40
1
 40
1
 40
1
 40
1
 10
14.762493
 20
262.500004
 30
0.0
 10
14.762493
 20
263.163045
 30
0.0
 10
14.499101
 20
263.798930
 30
0.0
 10
14.030260
 20
264.267771
 30
0.0
  0
SPLINE
  5
1c4
100
AcDbEntity
  8
Ebene_1
 62
7
100
AcDbSpline
 70
8
 71
3
 72
8
 73
4
 74
0
 40
0
 40
0
 40
0
 40
0
 40
1
 40
1
 40
1
 40
1
 10
14.030260
 20
264.267771
 30
0.0
 10
13.561419
 20
264.736612
 30
0.0
 10
12.925534
 20
265.000004
 30
0.0
 10
12.262493
 20
265.000004
 30
0.0
  0
LWPOLYLINE
  5
1c5
100
AcDbEntity
  8
Ebene_1
 62
7
100
AcDbPolyline
 90
5
 70
0
 10
131.234884
 20
234.899921
 30
0.0
 10
131.234884
 20
235.331853
 30
0.0
 10
112.725945
 20
235.331853
 30
0.0
 10
112.725945
 20
250.139005
 30
0.0
 10
108.160291
 20
250.139005
 30
0.0
  0
SPLINE
  5
1c6
100
AcDbEntity
  8
Ebene_1
 62
7
100
AcDbSpline
 70
8
 71
3
 72
8
 73
4
 74
0
 40
0
 40
0
 40
0
 40
0
 40
1
 40
1
 40
1
 40
1
 10
167.488010
 20
265.000004
 30
0.0
 10
166.476854
 20
265.000004
 30
0.0
 10
165.565264
 20
264.390899
 30
0.0
 10
165.178311
 20
263.456713
 30
0.0
  0
SPLINE
  5
1c7
100
AcDbEntity
  8
Ebene_1
 62
7
100
AcDbSpline
 70
8
 71
3
 72
8
 73
4
 74
0
 40
0
 40
0
 40
0
 40
0
 40
1
 40
1
 40
1
 40
1
 10
165.178311
 20
263.456713
 30
0.0
 10
164.791359
 20
262.522527
 30
0.0
 10
165.005248
 20
261.447232
 30
0.0
 10
165.720243
 20
260.732237
 30
0.0
  0
SPLINE
  5
1c8
100
AcDbEntity
  8
Ebene_1
 62
7
100
AcDbSpline
 70
8
 71
3
 72
8
 73
4
 74
0
 40
0
 40
0
 40
0
 40
0
 40
1
 40
1
 40
1
 40
1
 10
165.720243
 20
260.732237
 30
0.0
 10
166.435238
 20
260.017242
 30
0.0
 10
167.510533
 20
259.803353
 30
0.0
 10
168.444719
 20
260.190305
 30
0.0
  0
SPLINE
  5
1c9
100
AcDbEntity
  8
Ebene_1
 62
7
100
AcDbSpline
 70
8
 71
3
 72
8
 73
4
 74
0
 40
0
 40
0
 40
0
 40
0
 40
1
 40
1
 40
1
 40
1
 10
168.444719
 20
260.190305
 30
0.0
 10
169.378905
 20
260.577258
 30
0.0
 10
169.988010
 20
261.488848
 30
0.0
 10
169.988010
 20
262.500004
 30
0.0
  0
SPLINE
  5
1ca
100
AcDbEntity
  8
Ebene_1
 62
7
100
AcDbSpline
 70
8
 71
3
 72
8
 73
4
 74
0
 40
0
 40
0
 40
0
 40
0
 40
1
 40
1
 40
1
 40
1
 10
169.988010
 20
262.500004
 30
0.0
 10
169.988010
 20
263.163045
 30
0.0
 10
169.724618
 20
263.798930
 30
0.0
 10
169.255777
 20
264.267771
 30
0.0
  0
SPLINE
  5
1cb
100
AcDbEntity
  8
Ebene_1
 62
7
100
AcDbSpline
 70
8
 71
3
 72
8
 73
4
 74
0
 40
0
 40
0
 40
0
 40
0
 40
1
 40
1
 40
1
 40
1
 10
169.255777
 20
264.267771
 30
0.0
 10
168.786936
 20
264.736612
 30
0.0
 10
168.151051
 20
265.000004
 30
0.0
 10
167.488010
 20
265.000004
 30
0.0
  0
LWPOLYLINE
  5
1cc
100
AcDbEntity
  8
Ebene_1
 62
7
100
AcDbPolyline
 90
1
 70
1
 10
12.262493
 20
265.000004
 30
0.0
  0
SPLINE
  5
1cd
100
AcDbEntity
  8
Ebene_1
 62
7
100
AcDbSpline
 70
8
 71
3
 72
8
 73
4
 74
0
 40
0
 40
0
 40
0
 40
0
 40
1
 40
1
 40
1
 40
1
 10
167.237380
 20
19.749360
 30
0.0
 10
166.226224
 20
19.749360
 30
0.0
 10
165.314634
 20
19.140255
 30
0.0
 10
164.927681
 20
18.206069
 30
0.0
  0
SPLINE
  5
1ce
100
AcDbEntity
  8
Ebene_1
 62
7
100
AcDbSpline
 70
8
 71
3
 72
8
 73
4
 74
0
 40
0
 40
0
 40
0
 40
0
 40
1
 40
1
 40
1
 40
1
 10
164.927681
 20
18.206069
 30
0.0
 10
164.540729
 20
17.271883
 30
0.0
 10
164.754618
 20
16.196588
 30
0.0
 10
165.469613
 20
15.481593
 30
0.0
  0
SPLINE
  5
1cf
100
AcDbEntity
  8
Ebene_1
 62
7
100
AcDbSpline
 70
8
 71
3
 72
8
 73
4
 74
0
 40
0
 40
0
 40
0
 40
0
 40
1
 40
1
 40
1
 40
1
 10
165.469613
 20
15.481593
 30
0.0
 10
166.184608
 20
14.766598
 30
0.0
 10
167.259903
 20
14.552709
 30
0.0
 10
168.194089
 20
14.939661
 30
0.0
  0
SPLINE
  5
1d0
100
AcDbEntity
  8
Ebene_1
 62
7
100
AcDbSpline
 70
8
 71
3
 72
8
 73
4
 74
0
 40
0
 40
0
 40
0
 40
0
 40
1
 40
1
 40
1
 40
1
 10
168.194089
 20
14.939661
 30
0.0
 10
169.128275
 20
15.326614
 30
0.0
 10
169.737380
 20
16.238204
 30
0.0
 10
169.737380
 20
17.249360
 30
0.0
  0
SPLINE
  5
1d1
100
AcDbEntity
  8
Ebene_1
 62
7
100
AcDbSpline
 70
8
 71
3
 72
8
 73
4
 74
0
 40
0
 40
0
 40
0
 40
0
 40
1
 40
1
 40
1
 40
1
 10
169.737380
 20
17.249360
 30
0.0
 10
169.737380
 20
17.912401
 30
0.0
 10
169.473988
 20
18.548286
 30
0.0
 10
169.005147
 20
19.017127
 30
0.0
  0
SPLINE
  5
1d2
100
AcDbEntity
  8
Ebene_1
 62
7
100
AcDbSpline
 70
8
 71
3
 72
8
 73
4
 74
0
 40
0
 40
0
 40
0
 40
0
 40
1
 40
1
 40
1
 40
1
 10
169.005147
 20
19.017127
 30
0.0
 10
168.536306
 20
19.485968
 30
0.0
 10
167.900421
 20
19.749360
 30
0.0
 10
167.237380
 20
19.749360
 30
0.0
  0
LWPOLYLINE
  5
1d3
100
AcDbEntity
  8
Ebene_1
 62
7
100
AcDbPolyline
 90
1
 70
1
 10
167.488010
 20
265.000004
 30
0.0
  0
SPLINE
  5
1d4
100
AcDbEntity
  8
Ebene_1
 62
7
100
AcDbSpline
 70
8
 71
3
 72
8
 73
4
 74
0
 40
0
 40
0
 40
0
 40
0
 40
1
 40
1
 40
1
 40
1
 10
12.262493
 20
20.000000
 30
0.0
 10
11.251337
 20
20.000000
 30
0.0
 10
10.339747
 20
19.390895
 30
0.0
 10
9.952794
 20
18.456709
 30
0.0
  0
SPLINE
  5
1d5
100
AcDbEntity
  8
Ebene_1
 62
7
100
AcDbSpline
 70
8
 71
3
 72
8
 73
4
 74
0
 40
0
 40
0
 40
0
 40
0
 40
1
 40
1
 40
1
 40
1
 10
9.952794
 20
18.456709
 30
0.0
 10
9.565842
 20
17.522523
 30
0.0
 10
9.779731
 20
16.447228
 30
0.0
 10
10.494726
 20
15.732233
 30
0.0
  0
SPLINE
  5
1d6
100
AcDbEntity
  8
Ebene_1
 62
7
100
AcDbSpline
 70
8
 71
3
 72
8
 73
4
 74
0
 40
0
 40
0
 40
0
 40
0
 40
1
 40
1
 40
1
 40
1
 10
10.494726
 20
15.732233
 30
0.0
 10
11.209721
 20
15.017238
 30
0.0
 10
12.285016
 20
14.803349
 30
0.0
 10
13.219202
 20
15.190301
 30
0.0
  0
SPLINE
  5
1d7
100
AcDbEntity
  8
Ebene_1
 62
7
100
AcDbSpline
 70
8
 71
3
 72
8
 73
4
 74
0
 40
0
 40
0
 40
0
 40
0
 40
1
 40
1
 40
1
 40
1
 10
13.219202
 20
15.190301
 30
0.0
 10
14.153388
 20
15.577254
 30
0.0
 10
14.762493
 20
16.488844
 30
0.0
 10
14.762493
 20
17.500000
 30
0.0
  0
SPLINE
  5
1d8
100
AcDbEntity
  8
Ebene_1
 62
7
100
AcDbSpline
 70
8
 71
3
 72
8
 73
4
 74
0
 40
0
 40
0
 40
0
 40
0
 40
1
 40
1
 40
1
 40
1
 10
14.762493
 20
17.500000
 30
0.0
 10
14.762493
 20
18.163041
 30
0.0
 10
14.499101
 20
18.798926
 30
0.0
 10
14.030260
 20
19.267767
 30
0.0
  0
SPLINE
  5
1d9
100
AcDbEntity
  8
Ebene_1
 62
7
100
AcDbSpline
 70
8
 71
3
 72
8
 73
4
 74
0
 40
0
 40
0
 40
0
 40
0
 40
1
 40
1
 40
1
 40
1
 10
14.030260
 20
19.267767
 30
0.0
 10
13.561419
 20
19.736608
 30
0.0
 10
12.925534
 20
20.000000
 30
0.0
 10
12.262493
 20
20.000000
 30
0.0
  0
LWPOLYLINE
  5
1da
100
AcDbEntity
  8
Ebene_1
 62
7
100
AcDbPolyline
 90
1
 70
1
 10
167.237380
 20
19.749360
 30
0.0
  0
LWPOLYLINE
  5
1db
100
AcDbEntity
  8
Ebene_1
 62
7
100
AcDbPolyline
 90
1
 70
1
 10
12.262493
 20
20.000000
 30
0.0
  0
SPLINE
  5
1dc
100
AcDbEntity
  8
Ebene_1
 62
7
100
AcDbSpline
 70
8
 71
3
 72
8
 73
4
 74
0
 40
0
 40
0
 40
0
 40
0
 40
1
 40
1
 40
1
 40
1
 10
47.096830
 20
163.549620
 30
0.0
 10
54.897668
 20
163.549620
 30
0.0
 10
61.221496
 20
157.225792
 30
0.0
 10
61.221496
 20
149.424954
 30
0.0
  0
LWPOLYLINE
  5
1dd
100
AcDbEntity
  8
Ebene_1
 62
7
100
AcDbPolyline
 90
2
 70
0
 10
23.555722
 20
163.549620
 30
0.0
 10
47.096830
 20
163.549620
 30
0.0
  0
SPLINE
  5
1de
100
AcDbEntity
  8
Ebene_1
 62
7
100
AcDbSpline
 70
8
 71
3
 72
8
 73
4
 74
0
 40
0
 40
0
 40
0
 40
0
 40
1
 40
1
 40
1
 40
1
 10
61.221496
 20
107.050957
 30
0.0
 10
61.221496
 20
99.250119
 30
0.0
 10
54.897668
 20
92.926291
 30
0.0
 10
47.096830
 20
92.926291
 30
0.0
  0
LWPOLYLINE
  5
1df
100
AcDbEntity
  8
Ebene_1
 62
7
100
AcDbPolyline
 90
2
 70
0
 10
61.221496
 20
149.424954
 30
0.0
 10
61.221496
 20
107.050957
 30
0.0
  0
SPLINE
  5
1e0
100
AcDbEntity
  8
Ebene_1
 62
7
100
AcDbSpline
 70
8
 71
3
 72
8
 73
4
 74
0
 40
0
 40
0
 40
0
 40
0
 40
1
 40
1
 40
1
 40
1
 10
23.555722
 20
92.926291
 30
0.0
 10
19.809628
 20
92.926291
 30
0.0
 10
16.216964
 20
94.414421
 30
0.0
 10
13.568075
 20
97.063310
 30
0.0
  0
SPLINE
  5
1e1
100
AcDbEntity
  8
Ebene_1
 62
7
100
AcDbSpline
 70
8
 71
3
 72
8
 73
4
 74
0
 40
0
 40
0
 40
0
 40
0
 40
1
 40
1
 40
1
 40
1
 10
13.568075
 20
97.063310
 30
0.0
 10
10.919186
 20
99.712199
 30
0.0
 10
9.431056
 20
103.304863
 30
0.0
 10
9.431056
 20
107.050957
 30
0.0
  0
LWPOLYLINE
  5
1e2
100
AcDbEntity
  8
Ebene_1
 62
7
100
AcDbPolyline
 90
2
 70
0
 10
47.096830
 20
92.926291
 30
0.0
 10
23.555722
 20
92.926291
 30
0.0
  0
SPLINE
  5
1e3
100
AcDbEntity
  8
Ebene_1
 62
7
100
AcDbSpline
 70
8
 71
3
 72
8
 73
4
 74
0
 40
0
 40
0
 40
0
 40
0
 40
1
 40
1
 40
1
 40
1
 10
9.431056
 20
149.424954
 30
0.0
 10
9.431056
 20
153.171048
 30
0.0
 10
10.919186
 20
156.763712
 30
0.0
 10
13.568075
 20
159.412601
 30
0.0
  0
SPLINE
  5
1e4
100
AcDbEntity
  8
Ebene_1
 62
7
100
AcDbSpline
 70
8
 71
3
 72
8
 73
4
 74
0
 40
0
 40
0
 40
0
 40
0
 40
1
 40
1
 40
1
 40
1
 10
13.568075
 20
159.412601
 30
0.0
 10
16.216964
 20
162.061490
 30
0.0
 10
19.809628
 20
163.549620
 30
0.0
 10
23.555722
 20
163.549620
 30
0.0
  0
LWPOLYLINE
  5
1e5
100
AcDbEntity
  8
Ebene_1
 62
7
100
AcDbPolyline
 90
2
 70
0
 10
9.431056
 20
107.050957
 30
0.0
 10
9.431056
 20
149.424954
 30
0.0
  0
LWPOLYLINE
  5
1e6
100
AcDbEntity
  8
Ebene_1
 62
7
100
AcDbPolyline
 90
1
 70
1
 10
23.555722
 20
163.549620
 30
0.0
  0
ENDSEC
  0
SECTION
  2
OBJECTS
  0
DICTIONARY
  5
C
330
0
100
AcDbDictionary
  3
ACAD_GROUP
350
D
  3
ACAD_MLINESTYLE
350
17
  0
DICTIONARY
  5
D
330
C
100
AcDbDictionary
  0
DICTIONARY
  5
1A
330
C
100
AcDbDictionary
  0
DICTIONARY
  5
17
330
C
100
AcDbDictionary
  3
STANDARD
350
18
  0
DICTIONARY
  5
19
330
C
100
AcDbDictionary
  0
ENDSEC
  0
EOF
