  0
SECTION
  2
HEADER
  9
$ACADVER
  1
AC1014
  9
$HANDSEED
  5
FFFF
  9
$MEASUREMENT
 70
     1
  0
ENDSEC
  0
SECTION
  2
TABLES
  0
TABLE
  2
VPORT
  5
8
330
0
100
AcDbSymbolTable
 70
     4
  0
VPORT
  5
2E
330
8
100
AcDbSymbolTableRecord
100
AcDbViewportTableRecord
  2
*ACTIVE
 70
     0
 10
0.0
 20
0.0
 11
1.0
 21
1.0
 12
210.0
 22
148.5
 13
0.0
 23
0.0
 14
10.0
 24
10.0
 15
10.0
 25
10.0
 16
0.0
 26
0.0
 36
1.0
 17
0.0
 27
0.0
 37
0.0
 40
341.0
 41
1.24
 42
50.0
 43
0.0
 44
0.0
 50
0.0
 51
0.0
 71
     0
 72
   100
 73
     1
 74
     3
 75
     0
 76
     0
 77
     0
 78
     0
  0
ENDTAB
  0
TABLE
  2
LTYPE
  5
5
330
0
100
AcDbSymbolTable
 70
     1
  0
LTYPE
  5
14
330
5
100
AcDbSymbolTableRecord
100
AcDbLinetypeTableRecord
  2
BYBLOCK
 70
     0
  3

 72
    65
 73
     0
 40
0.0
  0
LTYPE
  5
15
330
5
100
AcDbSymbolTableRecord
100
AcDbLinetypeTableRecord
  2
BYLAYER
 70
     0
  3

 72
    65
 73
     0
 40
0.0
  0
LTYPE
  5
16
330
5
100
AcDbSymbolTableRecord
100
AcDbLinetypeTableRecord
  2
CONTINUOUS
 70
     0
  3
Solid line
 72
    65
 73
     0
 40
0.0
  0
ENDTAB
  0
TABLE
  2
LAYER
  5
2
100
AcDbSymbolTable
 70
2
  0
LAYER
  5
50
100
AcDbSymbolTableRecord
100
AcDbLayerTableRecord
  2
0
 70
0
  6
CONTINUOUS
  0
LAYER
  5
51
100
AcDbSymbolTableRecord
100
AcDbLayerTableRecord
  2
Ebene_1
 70
0
  6
CONTINUOUS
  0
ENDTAB
  0
TABLE
  2
STYLE
  5
3
330
0
100
AcDbSymbolTable
 70
     1
  0
STYLE
  5
11
330
3
100
AcDbSymbolTableRecord
100
AcDbTextStyleTableRecord
  2
STANDARD
 70
     0
 40
0.0
 41
1.0
 50
0.0
 71
     0
 42
2.5
  3
txt
  4

  0
ENDTAB
  0
TABLE
  2
VIEW
  5
6
330
0
100
AcDbSymbolTable
 70
     0
  0
ENDTAB
  0
TABLE
  2
UCS
  5
7
330
0
100
AcDbSymbolTable
 70
     0
  0
ENDTAB
  0
TABLE
  2
APPID
  5
9
330
0
100
AcDbSymbolTable
 70
     2
  0
APPID
  5
12
330
9
100
AcDbSymbolTableRecord
100
AcDbRegAppTableRecord
  2
ACAD
 70
     0
  0
ENDTAB
  0
TABLE
  2
DIMSTYLE
  5
A
330
0
100
AcDbSymbolTable
 70
     1
  0
DIMSTYLE
105
27
330
A
100
AcDbSymbolTableRecord
100
AcDbDimStyleTableRecord
  2
ISO-25
 70
     0
  3

  4

  5

  6

  7

 40
1.0
 41
2.5
 42
0.625
 43
3.75
 44
1.25
 45
0.0
 46
0.0
 47
0.0
 48
0.0
140
2.5
141
2.5
142
0.0
143
0.03937007874016
144
1.0
145
0.0
146
1.0
147
0.625
 71
     0
 72
     0
 73
     0
 74
     0
 75
     0
 76
     0
 77
     1
 78
     8
170
     0
171
     3
172
     1
173
     0
174
     0
175
     0
176
     0
177
     0
178
     0
270
     2
271
     2
272
     2
273
     2
274
     3
340
11
275
     0
280
     0
281
     0
282
     0
283
     0
284
     8
285
     0
286
     0
287
     3
288
     0
  0
ENDTAB
  0
TABLE
  2
BLOCK_RECORD
  5
1
330
0
100
AcDbSymbolTable
 70
     1
  0
BLOCK_RECORD
  5
1F
330
1
100
AcDbSymbolTableRecord
100
AcDbBlockTableRecord
  2
*MODEL_SPACE
  0
BLOCK_RECORD
  5
1B
330
1
100
AcDbSymbolTableRecord
100
AcDbBlockTableRecord
  2
*PAPER_SPACE
  0
ENDTAB
  0
ENDSEC
  0
SECTION
  2
BLOCKS
  0
BLOCK
  5
20
330
1F
100
AcDbEntity
  8
0
100
AcDbBlockBegin
  2
*MODEL_SPACE
 70
     0
 10
0.0
 20
0.0
 30
0.0
  3
*MODEL_SPACE
  1

  0
ENDBLK
  5
21
330
1F
100
AcDbEntity
  8
0
100
AcDbBlockEnd
  0
BLOCK
  5
1C
330
1B
100
AcDbEntity
 67
     1
  8
0
100
AcDbBlockBegin
  2
*PAPER_SPACE
  1

  0
ENDBLK
  5
1D
330
1B
100
AcDbEntity
 67
     1
  8
0
100
AcDbBlockEnd
  0
ENDSEC
  0
SECTION
  2
ENTITIES
  0
SPLINE
  5
100
100
AcDbEntity
  8
Ebene_1
 62
7
100
AcDbSpline
 70
8
 71
3
 72
8
 73
4
 74
0
 40
0
 40
0
 40
0
 40
0
 40
1
 40
1
 40
1
 40
1
 10
47.934729
 20
286.996281
 30
0.0
 10
28.999482
 20
286.996281
 30
0.0
 10
13.650107
 20
271.667622
 30
0.0
 10
13.650107
 20
252.757946
 30
0.0
  0
LWPOLYLINE
  5
101
100
AcDbEntity
  8
Ebene_1
 62
7
100
AcDbPolyline
 90
4
 70
1
 10
0.000000
 20
299.599980
 30
0.0
 10
219.600000
 20
299.599980
 30
0.0
 10
219.600000
 20
0.000000
 30
0.0
 10
0.000000
 20
0.000000
 30
0.0
  0
SPLINE
  5
102
100
AcDbEntity
  8
Ebene_1
 62
7
100
AcDbSpline
 70
8
 71
3
 72
8
 73
4
 74
0
 40
0
 40
0
 40
0
 40
0
 40
1
 40
1
 40
1
 40
1
 10
13.650107
 20
46.819990
 30
0.0
 10
13.650107
 20
27.910310
 30
0.0
 10
28.999482
 20
12.581650
 30
0.0
 10
47.934729
 20
12.581650
 30
0.0
  0
LWPOLYLINE
  5
103
100
AcDbEntity
  8
Ebene_1
 62
7
100
AcDbPolyline
 90
2
 70
0
 10
13.650107
 20
252.757946
 30
0.0
 10
13.650107
 20
46.819990
 30
0.0
  0
SPLINE
  5
104
100
AcDbEntity
  8
Ebene_1
 62
7
100
AcDbSpline
 70
8
 71
3
 72
8
 73
4
 74
0
 40
0
 40
0
 40
0
 40
0
 40
1
 40
1
 40
1
 40
1
 10
171.665270
 20
12.581650
 30
0.0
 10
190.600520
 20
12.581650
 30
0.0
 10
205.949890
 20
27.910310
 30
0.0
 10
205.949890
 20
46.819990
 30
0.0
  0
LWPOLYLINE
  5
105
100
AcDbEntity
  8
Ebene_1
 62
7
100
AcDbPolyline
 90
2
 70
0
 10
47.934729
 20
12.581650
 30
0.0
 10
171.665270
 20
12.581650
 30
0.0
  0
SPLINE
  5
106
100
AcDbEntity
  8
Ebene_1
 62
7
100
AcDbSpline
 70
8
 71
3
 72
8
 73
4
 74
0
 40
0
 40
0
 40
0
 40
0
 40
1
 40
1
 40
1
 40
1
 10
205.949890
 20
252.757946
 30
0.0
 10
205.949890
 20
271.667622
 30
0.0
 10
190.600520
 20
286.996281
 30
0.0
 10
171.665270
 20
286.996281
 30
0.0
  0
LWPOLYLINE
  5
107
100
AcDbEntity
  8
Ebene_1
 62
7
100
AcDbPolyline
 90
2
 70
0
 10
205.949890
 20
46.819990
 30
0.0
 10
205.949890
 20
252.757946
 30
0.0
  0
LWPOLYLINE
  5
108
100
AcDbEntity
  8
Ebene_1
 62
7
100
AcDbPolyline
 90
2
 70
0
 10
171.665270
 20
286.996281
 30
0.0
 10
47.934729
 20
286.996281
 30
0.0
  0
SPLINE
  5
109
100
AcDbEntity
  8
Ebene_1
 62
7
100
AcDbSpline
 70
8
 71
3
 72
8
 73
4
 74
0
 40
0
 40
0
 40
0
 40
0
 40
1
 40
1
 40
1
 40
1
 10
171.665270
 20
280.303242
 30
0.0
 10
187.003490
 20
280.303242
 30
0.0
 10
199.247800
 20
268.075447
 30
0.0
 10
199.247800
 20
252.757946
 30
0.0
  0
LWPOLYLINE
  5
10a
100
AcDbEntity
  8
Ebene_1
 62
7
100
AcDbPolyline
 90
2
 70
0
 10
47.934729
 20
280.303242
 30
0.0
 10
171.665270
 20
280.303242
 30
0.0
  0
SPLINE
  5
10b
100
AcDbEntity
  8
Ebene_1
 62
7
100
AcDbSpline
 70
8
 71
3
 72
8
 73
4
 74
0
 40
0
 40
0
 40
0
 40
0
 40
1
 40
1
 40
1
 40
1
 10
199.247800
 20
46.819990
 30
0.0
 10
199.247800
 20
31.502480
 30
0.0
 10
187.003490
 20
19.274700
 30
0.0
 10
171.665270
 20
19.274700
 30
0.0
  0
LWPOLYLINE
  5
10c
100
AcDbEntity
  8
Ebene_1
 62
7
100
AcDbPolyline
 90
2
 70
0
 10
199.247800
 20
252.757946
 30
0.0
 10
199.247800
 20
46.819990
 30
0.0
  0
SPLINE
  5
10d
100
AcDbEntity
  8
Ebene_1
 62
7
100
AcDbSpline
 70
8
 71
3
 72
8
 73
4
 74
0
 40
0
 40
0
 40
0
 40
0
 40
1
 40
1
 40
1
 40
1
 10
47.934729
 20
19.274700
 30
0.0
 10
32.596503
 20
19.274700
 30
0.0
 10
20.352196
 20
31.502480
 30
0.0
 10
20.352196
 20
46.819990
 30
0.0
  0
LWPOLYLINE
  5
10e
100
AcDbEntity
  8
Ebene_1
 62
7
100
AcDbPolyline
 90
2
 70
0
 10
171.665270
 20
19.274700
 30
0.0
 10
47.934729
 20
19.274700
 30
0.0
  0
SPLINE
  5
10f
100
AcDbEntity
  8
Ebene_1
 62
7
100
AcDbSpline
 70
8
 71
3
 72
8
 73
4
 74
0
 40
0
 40
0
 40
0
 40
0
 40
1
 40
1
 40
1
 40
1
 10
20.352196
 20
252.757946
 30
0.0
 10
20.352196
 20
268.075447
 30
0.0
 10
32.596503
 20
280.303242
 30
0.0
 10
47.934729
 20
280.303242
 30
0.0
  0
LWPOLYLINE
  5
110
100
AcDbEntity
  8
Ebene_1
 62
7
100
AcDbPolyline
 90
2
 70
0
 10
20.352196
 20
46.819990
 30
0.0
 10
20.352196
 20
252.757946
 30
0.0
  0
SPLINE
  5
111
100
AcDbEntity
  8
Ebene_1
 62
7
100
AcDbSpline
 70
8
 71
3
 72
8
 73
4
 74
0
 40
0
 40
0
 40
0
 40
0
 40
1
 40
1
 40
1
 40
1
 10
36.281437
 20
34.005470
 30
0.0
 10
36.281436
 20
32.650472
 30
0.0
 10
35.182992
 20
31.552030
 30
0.0
 10
33.827994
 20
31.552030
 30
0.0
  0
SPLINE
  5
112
100
AcDbEntity
  8
Ebene_1
 62
7
100
AcDbSpline
 70
8
 71
3
 72
8
 73
4
 74
0
 40
0
 40
0
 40
0
 40
0
 40
1
 40
1
 40
1
 40
1
 10
33.827994
 20
31.552030
 30
0.0
 10
32.472996
 20
31.552030
 30
0.0
 10
31.374553
 20
32.650472
 30
0.0
 10
31.374552
 20
34.005470
 30
0.0
  0
SPLINE
  5
113
100
AcDbEntity
  8
Ebene_1
 62
7
100
AcDbSpline
 70
8
 71
3
 72
8
 73
4
 74
0
 40
0
 40
0
 40
0
 40
0
 40
1
 40
1
 40
1
 40
1
 10
31.374552
 20
34.005470
 30
0.0
 10
31.374553
 20
35.360468
 30
0.0
 10
32.472996
 20
36.458910
 30
0.0
 10
33.827994
 20
36.458910
 30
0.0
  0
SPLINE
  5
114
100
AcDbEntity
  8
Ebene_1
 62
7
100
AcDbSpline
 70
8
 71
3
 72
8
 73
4
 74
0
 40
0
 40
0
 40
0
 40
0
 40
1
 40
1
 40
1
 40
1
 10
33.827994
 20
36.458910
 30
0.0
 10
35.182992
 20
36.458910
 30
0.0
 10
36.281436
 20
35.360468
 30
0.0
 10
36.281437
 20
34.005470
 30
0.0
  0
LWPOLYLINE
  5
115
100
AcDbEntity
  8
Ebene_1
 62
7
100
AcDbPolyline
 90
1
 70
1
 10
47.934729
 20
280.303242
 30
0.0
  0
SPLINE
  5
116
100
AcDbEntity
  8
Ebene_1
 62
7
100
AcDbSpline
 70
8
 71
3
 72
8
 73
4
 74
0
 40
0
 40
0
 40
0
 40
0
 40
1
 40
1
 40
1
 40
1
 10
188.310160
 20
34.291700
 30
0.0
 10
188.310159
 20
32.936703
 30
0.0
 10
187.211717
 20
31.838261
 30
0.0
 10
185.856720
 20
31.838260
 30
0.0
  0
SPLINE
  5
117
100
AcDbEntity
  8
Ebene_1
 62
7
100
AcDbSpline
 70
8
 71
3
 72
8
 73
4
 74
0
 40
0
 40
0
 40
0
 40
0
 40
1
 40
1
 40
1
 40
1
 10
185.856720
 20
31.838260
 30
0.0
 10
184.501723
 20
31.838261
 30
0.0
 10
183.403281
 20
32.936703
 30
0.0
 10
183.403280
 20
34.291700
 30
0.0
  0
SPLINE
  5
118
100
AcDbEntity
  8
Ebene_1
 62
7
100
AcDbSpline
 70
8
 71
3
 72
8
 73
4
 74
0
 40
0
 40
0
 40
0
 40
0
 40
1
 40
1
 40
1
 40
1
 10
183.403280
 20
34.291700
 30
0.0
 10
183.403281
 20
35.646697
 30
0.0
 10
184.501723
 20
36.745139
 30
0.0
 10
185.856720
 20
36.745140
 30
0.0
  0
SPLINE
  5
119
100
AcDbEntity
  8
Ebene_1
 62
7
100
AcDbSpline
 70
8
 71
3
 72
8
 73
4
 74
0
 40
0
 40
0
 40
0
 40
0
 40
1
 40
1
 40
1
 40
1
 10
185.856720
 20
36.745140
 30
0.0
 10
187.211717
 20
36.745139
 30
0.0
 10
188.310159
 20
35.646697
 30
0.0
 10
188.310160
 20
34.291700
 30
0.0
  0
LWPOLYLINE
  5
11a
100
AcDbEntity
  8
Ebene_1
 62
7
100
AcDbPolyline
 90
1
 70
1
 10
36.281437
 20
34.005470
 30
0.0
  0
SPLINE
  5
11b
100
AcDbEntity
  8
Ebene_1
 62
7
100
AcDbSpline
 70
8
 71
3
 72
8
 73
4
 74
0
 40
0
 40
0
 40
0
 40
0
 40
1
 40
1
 40
1
 40
1
 10
188.681090
 20
265.000000
 30
0.0
 10
188.681090
 20
263.645002
 30
0.0
 10
187.582648
 20
262.546558
 30
0.0
 10
186.227650
 20
262.546557
 30
0.0
  0
SPLINE
  5
11c
100
AcDbEntity
  8
Ebene_1
 62
7
100
AcDbSpline
 70
8
 71
3
 72
8
 73
4
 74
0
 40
0
 40
0
 40
0
 40
0
 40
1
 40
1
 40
1
 40
1
 10
186.227650
 20
262.546557
 30
0.0
 10
184.872652
 20
262.546558
 30
0.0
 10
183.774210
 20
263.645002
 30
0.0
 10
183.774210
 20
265.000000
 30
0.0
  0
SPLINE
  5
11d
100
AcDbEntity
  8
Ebene_1
 62
7
100
AcDbSpline
 70
8
 71
3
 72
8
 73
4
 74
0
 40
0
 40
0
 40
0
 40
0
 40
1
 40
1
 40
1
 40
1
 10
183.774210
 20
265.000000
 30
0.0
 10
183.774210
 20
266.354998
 30
0.0
 10
184.872652
 20
267.453442
 30
0.0
 10
186.227650
 20
267.453443
 30
0.0
  0
SPLINE
  5
11e
100
AcDbEntity
  8
Ebene_1
 62
7
100
AcDbSpline
 70
8
 71
3
 72
8
 73
4
 74
0
 40
0
 40
0
 40
0
 40
0
 40
1
 40
1
 40
1
 40
1
 10
186.227650
 20
267.453443
 30
0.0
 10
187.582648
 20
267.453442
 30
0.0
 10
188.681090
 20
266.354998
 30
0.0
 10
188.681090
 20
265.000000
 30
0.0
  0
LWPOLYLINE
  5
11f
100
AcDbEntity
  8
Ebene_1
 62
7
100
AcDbPolyline
 90
1
 70
1
 10
188.310160
 20
34.291700
 30
0.0
  0
SPLINE
  5
120
100
AcDbEntity
  8
Ebene_1
 62
7
100
AcDbSpline
 70
8
 71
3
 72
8
 73
4
 74
0
 40
0
 40
0
 40
0
 40
0
 40
1
 40
1
 40
1
 40
1
 10
36.567665
 20
265.000000
 30
0.0
 10
36.567665
 20
264.349306
 30
0.0
 10
36.309178
 20
263.725264
 30
0.0
 10
35.849068
 20
263.265154
 30
0.0
  0
SPLINE
  5
121
100
AcDbEntity
  8
Ebene_1
 62
7
100
AcDbSpline
 70
8
 71
3
 72
8
 73
4
 74
0
 40
0
 40
0
 40
0
 40
0
 40
1
 40
1
 40
1
 40
1
 10
35.849068
 20
263.265154
 30
0.0
 10
35.388958
 20
262.805044
 30
0.0
 10
34.764916
 20
262.546557
 30
0.0
 10
34.114222
 20
262.546557
 30
0.0
  0
SPLINE
  5
122
100
AcDbEntity
  8
Ebene_1
 62
7
100
AcDbSpline
 70
8
 71
3
 72
8
 73
4
 74
0
 40
0
 40
0
 40
0
 40
0
 40
1
 40
1
 40
1
 40
1
 10
34.114222
 20
262.546557
 30
0.0
 10
32.759223
 20
262.546557
 30
0.0
 10
31.660780
 20
263.645001
 30
0.0
 10
31.660780
 20
265.000000
 30
0.0
  0
SPLINE
  5
123
100
AcDbEntity
  8
Ebene_1
 62
7
100
AcDbSpline
 70
8
 71
3
 72
8
 73
4
 74
0
 40
0
 40
0
 40
0
 40
0
 40
1
 40
1
 40
1
 40
1
 10
31.660780
 20
265.000000
 30
0.0
 10
31.660780
 20
266.354999
 30
0.0
 10
32.759223
 20
267.453443
 30
0.0
 10
34.114222
 20
267.453443
 30
0.0
  0
SPLINE
  5
124
100
AcDbEntity
  8
Ebene_1
 62
7
100
AcDbSpline
 70
8
 71
3
 72
8
 73
4
 74
0
 40
0
 40
0
 40
0
 40
0
 40
1
 40
1
 40
1
 40
1
 10
34.114222
 20
267.453443
 30
0.0
 10
34.764916
 20
267.453443
 30
0.0
 10
35.388958
 20
267.194956
 30
0.0
 10
35.849068
 20
266.734846
 30
0.0
  0
SPLINE
  5
125
100
AcDbEntity
  8
Ebene_1
 62
7
100
AcDbSpline
 70
8
 71
3
 72
8
 73
4
 74
0
 40
0
 40
0
 40
0
 40
0
 40
1
 40
1
 40
1
 40
1
 10
35.849068
 20
266.734846
 30
0.0
 10
36.309178
 20
266.274736
 30
0.0
 10
36.567665
 20
265.650694
 30
0.0
 10
36.567665
 20
265.000000
 30
0.0
  0
LWPOLYLINE
  5
126
100
AcDbEntity
  8
Ebene_1
 62
7
100
AcDbPolyline
 90
1
 70
1
 10
188.681090
 20
265.000000
 30
0.0
  0
LWPOLYLINE
  5
127
100
AcDbEntity
  8
Ebene_1
 62
7
100
AcDbPolyline
 90
1
 70
1
 10
36.567665
 20
265.000000
 30
0.0
  0
SPLINE
  5
128
100
AcDbEntity
  8
Ebene_1
 62
7
100
AcDbSpline
 70
8
 71
3
 72
8
 73
4
 74
0
 40
0
 40
0
 40
0
 40
0
 40
1
 40
1
 40
1
 40
1
 10
166.838025
 20
66.157943
 30
0.0
 10
166.838025
 20
64.933313
 30
0.0
 10
167.252837
 20
63.830578
 30
0.0
 10
168.044191
 20
62.952717
 30
0.0
  0
LWPOLYLINE
  5
129
100
AcDbEntity
  8
Ebene_1
 62
7
100
AcDbPolyline
 90
2
 70
0
 10
166.838025
 20
74.679986
 30
0.0
 10
166.838025
 20
66.157943
 30
0.0
  0
SPLINE
  5
12a
100
AcDbEntity
  8
Ebene_1
 62
7
100
AcDbSpline
 70
8
 71
3
 72
8
 73
4
 74
0
 40
0
 40
0
 40
0
 40
0
 40
1
 40
1
 40
1
 40
1
 10
168.047921
 20
62.948792
 30
0.0
 10
168.843943
 20
62.088988
 30
0.0
 10
169.867996
 20
61.640008
 30
0.0
 10
171.019073
 20
61.640008
 30
0.0
  0
LWPOLYLINE
  5
12b
100
AcDbEntity
  8
Ebene_1
 62
7
100
AcDbPolyline
 90
3
 70
0
 10
168.044191
 20
62.952717
 30
0.0
 10
168.046056
 20
62.950754
 30
0.0
 10
168.047921
 20
62.948792
 30
0.0
  0
SPLINE
  5
12c
100
AcDbEntity
  8
Ebene_1
 62
7
100
AcDbSpline
 70
8
 71
3
 72
8
 73
4
 74
0
 40
0
 40
0
 40
0
 40
0
 40
1
 40
1
 40
1
 40
1
 10
174.255802
 20
74.170072
 30
0.0
 10
174.255802
 20
72.945431
 30
0.0
 10
174.670617
 20
71.844699
 30
0.0
 10
175.461968
 20
70.966838
 30
0.0
  0
LWPOLYLINE
  5
12d
100
AcDbEntity
  8
Ebene_1
 62
7
100
AcDbPolyline
 90
5
 70
0
 10
171.019073
 20
61.640008
 30
0.0
 10
190.037395
 20
61.640008
 30
0.0
 10
190.037395
 20
74.680035
 30
0.0
 10
174.255802
 20
74.680035
 30
0.0
 10
174.255802
 20
74.170072
 30
0.0
  0
SPLINE
  5
12e
100
AcDbEntity
  8
Ebene_1
 62
7
100
AcDbSpline
 70
8
 71
3
 72
8
 73
4
 74
0
 40
0
 40
0
 40
0
 40
0
 40
1
 40
1
 40
1
 40
1
 10
175.467562
 20
70.960950
 30
0.0
 10
176.263583
 20
70.101155
 30
0.0
 10
177.287636
 20
69.654158
 30
0.0
 10
178.438714
 20
69.654158
 30
0.0
  0
LWPOLYLINE
  5
12f
100
AcDbEntity
  8
Ebene_1
 62
7
100
AcDbPolyline
 90
3
 70
0
 10
175.461968
 20
70.966838
 30
0.0
 10
175.465697
 20
70.962912
 30
0.0
 10
175.467562
 20
70.960950
 30
0.0
  0
SPLINE
  5
130
100
AcDbEntity
  8
Ebene_1
 62
7
100
AcDbSpline
 70
8
 71
3
 72
8
 73
4
 74
0
 40
0
 40
0
 40
0
 40
0
 40
1
 40
1
 40
1
 40
1
 10
172.874490
 20
66.668053
 30
0.0
 10
172.463855
 20
66.668053
 30
0.0
 10
172.162840
 20
66.800618
 30
0.0
 10
171.880418
 20
67.084383
 30
0.0
  0
SPLINE
  5
131
100
AcDbEntity
  8
Ebene_1
 62
7
100
AcDbSpline
 70
8
 71
3
 72
8
 73
4
 74
0
 40
0
 40
0
 40
0
 40
0
 40
1
 40
1
 40
1
 40
1
 10
171.880418
 20
67.084383
 30
0.0
 10
171.615568
 20
67.390445
 30
0.0
 10
171.491272
 20
67.714859
 30
0.0
 10
171.491272
 20
68.160100
 30
0.0
  0
LWPOLYLINE
  5
132
100
AcDbEntity
  8
Ebene_1
 62
7
100
AcDbPolyline
 90
4
 70
0
 10
178.438714
 20
69.654158
 30
0.0
 10
185.384311
 20
69.654158
 30
0.0
 10
185.384311
 20
66.668053
 30
0.0
 10
172.874490
 20
66.668053
 30
0.0
  0
LWPOLYLINE
  5
133
100
AcDbEntity
  8
Ebene_1
 62
7
100
AcDbPolyline
 90
3
 70
0
 10
171.491272
 20
68.160100
 30
0.0
 10
171.491272
 20
74.680123
 30
0.0
 10
166.838025
 20
74.679986
 30
0.0
  0
SPLINE
  5
134
100
AcDbEntity
  8
Ebene_1
 62
7
100
AcDbSpline
 70
8
 71
3
 72
8
 73
4
 74
0
 40
0
 40
0
 40
0
 40
0
 40
1
 40
1
 40
1
 40
1
 10
48.139494
 20
76.174024
 30
0.0
 10
48.139494
 20
75.733308
 30
0.0
 10
48.013799
 20
75.411396
 30
0.0
 10
47.730073
 20
75.102292
 30
0.0
  0
SPLINE
  5
135
100
AcDbEntity
  8
Ebene_1
 62
7
100
AcDbSpline
 70
8
 71
3
 72
8
 73
4
 74
0
 40
0
 40
0
 40
0
 40
0
 40
1
 40
1
 40
1
 40
1
 10
47.730073
 20
75.102292
 30
0.0
 10
47.443000
 20
74.811049
 30
0.0
 10
47.148676
 20
74.679986
 30
0.0
 10
46.758127
 20
74.679986
 30
0.0
  0
LWPOLYLINE
  5
136
100
AcDbEntity
  8
Ebene_1
 62
7
100
AcDbPolyline
 90
4
 70
0
 10
29.593313
 20
82.694038
 30
0.0
 10
29.593313
 20
77.666071
 30
0.0
 10
48.139494
 20
77.666071
 30
0.0
 10
48.139494
 20
76.174024
 30
0.0
  0
SPLINE
  5
137
100
AcDbEntity
  8
Ebene_1
 62
7
100
AcDbSpline
 70
8
 71
3
 72
8
 73
4
 74
0
 40
0
 40
0
 40
0
 40
0
 40
1
 40
1
 40
1
 40
1
 10
48.611634
 20
69.654021
 30
0.0
 10
49.728225
 20
69.654021
 30
0.0
 10
50.738337
 20
70.103638
 30
0.0
 10
51.549592
 20
70.956818
 30
0.0
  0
SPLINE
  5
138
100
AcDbEntity
  8
Ebene_1
 62
7
100
AcDbSpline
 70
8
 71
3
 72
8
 73
4
 74
0
 40
0
 40
0
 40
0
 40
0
 40
1
 40
1
 40
1
 40
1
 10
51.549592
 20
70.956818
 30
0.0
 10
52.365970
 20
71.815415
 30
0.0
 10
52.794489
 20
72.923556
 30
0.0
 10
52.794489
 20
74.170013
 30
0.0
  0
LWPOLYLINE
  5
139
100
AcDbEntity
  8
Ebene_1
 62
7
100
AcDbPolyline
 90
7
 70
0
 10
46.758127
 20
74.679986
 30
0.0
 10
29.593313
 20
74.679986
 30
0.0
 10
29.593313
 20
61.639949
 30
0.0
 10
30.065454
 20
61.639949
 30
0.0
 10
34.246463
 20
61.639949
 30
0.0
 10
34.246463
 20
69.654021
 30
0.0
 10
48.611634
 20
69.654021
 30
0.0
  0
LWPOLYLINE
  5
13a
100
AcDbEntity
  8
Ebene_1
 62
7
100
AcDbPolyline
 90
3
 70
0
 10
52.794489
 20
74.170013
 30
0.0
 10
52.794489
 20
82.694038
 30
0.0
 10
29.593313
 20
82.694038
 30
0.0
  0
LWPOLYLINE
  5
13b
100
AcDbEntity
  8
Ebene_1
 62
7
100
AcDbPolyline
 90
9
 70
1
 10
55.559077
 20
74.679986
 30
0.0
 10
55.559077
 20
61.639949
 30
0.0
 10
56.031217
 20
61.639949
 30
0.0
 10
60.212227
 20
61.639949
 30
0.0
 10
60.212227
 20
69.654021
 30
0.0
 10
74.105267
 20
69.654021
 30
0.0
 10
74.105267
 20
61.639949
 30
0.0
 10
78.758407
 20
61.639949
 30
0.0
 10
78.758407
 20
74.679986
 30
0.0
  0
SPLINE
  5
13c
100
AcDbEntity
  8
Ebene_1
 62
7
100
AcDbSpline
 70
8
 71
3
 72
8
 73
4
 74
0
 40
0
 40
0
 40
0
 40
0
 40
1
 40
1
 40
1
 40
1
 10
55.559077
 20
82.184075
 30
0.0
 10
55.559077
 20
80.959434
 30
0.0
 10
55.973885
 20
79.856710
 30
0.0
 10
56.765248
 20
78.978839
 30
0.0
  0
LWPOLYLINE
  5
13d
100
AcDbEntity
  8
Ebene_1
 62
7
100
AcDbPolyline
 90
2
 70
0
 10
55.559077
 20
82.694038
 30
0.0
 10
55.559077
 20
82.184075
 30
0.0
  0
SPLINE
  5
13e
100
AcDbEntity
  8
Ebene_1
 62
7
100
AcDbSpline
 70
8
 71
3
 72
8
 73
4
 74
0
 40
0
 40
0
 40
0
 40
0
 40
1
 40
1
 40
1
 40
1
 10
56.769173
 20
78.974914
 30
0.0
 10
57.565198
 20
78.115119
 30
0.0
 10
58.589255
 20
77.666120
 30
0.0
 10
59.740331
 20
77.666120
 30
0.0
  0
LWPOLYLINE
  5
13f
100
AcDbEntity
  8
Ebene_1
 62
7
100
AcDbPolyline
 90
3
 70
0
 10
56.765248
 20
78.978839
 30
0.0
 10
56.767211
 20
78.976876
 30
0.0
 10
56.769173
 20
78.974914
 30
0.0
  0
SPLINE
  5
140
100
AcDbEntity
  8
Ebene_1
 62
7
100
AcDbSpline
 70
8
 71
3
 72
8
 73
4
 74
0
 40
0
 40
0
 40
0
 40
0
 40
1
 40
1
 40
1
 40
1
 10
74.577643
 20
77.666120
 30
0.0
 10
75.694234
 20
77.666120
 30
0.0
 10
76.704346
 20
78.115738
 30
0.0
 10
77.515601
 20
78.968937
 30
0.0
  0
SPLINE
  5
141
100
AcDbEntity
  8
Ebene_1
 62
7
100
AcDbSpline
 70
8
 71
3
 72
8
 73
4
 74
0
 40
0
 40
0
 40
0
 40
0
 40
1
 40
1
 40
1
 40
1
 10
77.515601
 20
78.968937
 30
0.0
 10
78.331989
 20
79.827524
 30
0.0
 10
78.758642
 20
80.937668
 30
0.0
 10
78.758642
 20
82.184114
 30
0.0
  0
LWPOLYLINE
  5
142
100
AcDbEntity
  8
Ebene_1
 62
7
100
AcDbPolyline
 90
2
 70
0
 10
59.740331
 20
77.666120
 30
0.0
 10
74.577643
 20
77.666120
 30
0.0
  0
LWPOLYLINE
  5
143
100
AcDbEntity
  8
Ebene_1
 62
7
100
AcDbPolyline
 90
3
 70
0
 10
78.758642
 20
82.184114
 30
0.0
 10
78.758642
 20
82.694087
 30
0.0
 10
55.559077
 20
82.694038
 30
0.0
  0
SPLINE
  5
144
100
AcDbEntity
  8
Ebene_1
 62
7
100
AcDbSpline
 70
8
 71
3
 72
8
 73
4
 74
0
 40
0
 40
0
 40
0
 40
0
 40
1
 40
1
 40
1
 40
1
 10
81.523005
 20
82.184075
 30
0.0
 10
81.523005
 20
80.959434
 30
0.0
 10
81.937813
 20
79.856710
 30
0.0
 10
82.729166
 20
78.978839
 30
0.0
  0
LWPOLYLINE
  5
145
100
AcDbEntity
  8
Ebene_1
 62
7
100
AcDbPolyline
 90
2
 70
0
 10
81.523005
 20
82.694038
 30
0.0
 10
81.523005
 20
82.184075
 30
0.0
  0
SPLINE
  5
146
100
AcDbEntity
  8
Ebene_1
 62
7
100
AcDbSpline
 70
8
 71
3
 72
8
 73
4
 74
0
 40
0
 40
0
 40
0
 40
0
 40
1
 40
1
 40
1
 40
1
 10
82.735054
 20
78.974914
 30
0.0
 10
83.531069
 20
78.115119
 30
0.0
 10
84.555126
 20
77.666130
 30
0.0
 10
85.706203
 20
77.666120
 30
0.0
  0
LWPOLYLINE
  5
147
100
AcDbEntity
  8
Ebene_1
 62
7
100
AcDbPolyline
 90
3
 70
0
 10
82.729166
 20
78.978839
 30
0.0
 10
82.733092
 20
78.976876
 30
0.0
 10
82.735054
 20
78.974914
 30
0.0
  0
SPLINE
  5
148
100
AcDbEntity
  8
Ebene_1
 62
7
100
AcDbSpline
 70
8
 71
3
 72
8
 73
4
 74
0
 40
0
 40
0
 40
0
 40
0
 40
1
 40
1
 40
1
 40
1
 10
100.071393
 20
76.174064
 30
0.0
 10
100.071393
 20
75.733357
 30
0.0
 10
99.943844
 20
75.411445
 30
0.0
 10
99.660108
 20
75.102341
 30
0.0
  0
SPLINE
  5
149
100
AcDbEntity
  8
Ebene_1
 62
7
100
AcDbSpline
 70
8
 71
3
 72
8
 73
4
 74
0
 40
0
 40
0
 40
0
 40
0
 40
1
 40
1
 40
1
 40
1
 10
99.660108
 20
75.102341
 30
0.0
 10
99.373035
 20
74.811098
 30
0.0
 10
99.078721
 20
74.680025
 30
0.0
 10
98.688162
 20
74.680025
 30
0.0
  0
LWPOLYLINE
  5
14a
100
AcDbEntity
  8
Ebene_1
 62
7
100
AcDbPolyline
 90
3
 70
0
 10
85.706203
 20
77.666120
 30
0.0
 10
100.071393
 20
77.666120
 30
0.0
 10
100.071393
 20
76.174064
 30
0.0
  0
SPLINE
  5
14b
100
AcDbEntity
  8
Ebene_1
 62
7
100
AcDbSpline
 70
8
 71
3
 72
8
 73
4
 74
0
 40
0
 40
0
 40
0
 40
0
 40
1
 40
1
 40
1
 40
1
 10
100.482580
 20
69.657985
 30
0.0
 10
101.662725
 20
69.492761
 30
0.0
 10
102.687146
 20
70.123443
 30
0.0
 10
103.479558
 20
70.956808
 30
0.0
  0
SPLINE
  5
14c
100
AcDbEntity
  8
Ebene_1
 62
7
100
AcDbSpline
 70
8
 71
3
 72
8
 73
4
 74
0
 40
0
 40
0
 40
0
 40
0
 40
1
 40
1
 40
1
 40
1
 10
103.479558
 20
70.956808
 30
0.0
 10
104.295946
 20
71.815405
 30
0.0
 10
104.724455
 20
72.923547
 30
0.0
 10
104.724455
 20
74.170003
 30
0.0
  0
LWPOLYLINE
  5
14d
100
AcDbEntity
  8
Ebene_1
 62
7
100
AcDbPolyline
 90
12
 70
0
 10
98.688162
 20
74.680025
 30
0.0
 10
81.523358
 20
74.680025
 30
0.0
 10
81.523358
 20
61.639998
 30
0.0
 10
81.995499
 20
61.639998
 30
0.0
 10
86.178343
 20
61.639998
 30
0.0
 10
86.178343
 20
69.654060
 30
0.0
 10
91.073089
 20
69.654060
 30
0.0
 10
98.492672
 20
61.639998
 30
0.0
 10
105.392164
 20
61.639998
 30
0.0
 10
97.972581
 20
69.654060
 30
0.0
 10
100.543524
 20
69.654060
 30
0.0
 10
100.482580
 20
69.657985
 30
0.0
  0
LWPOLYLINE
  5
14e
100
AcDbEntity
  8
Ebene_1
 62
7
100
AcDbPolyline
 90
3
 70
0
 10
104.724455
 20
74.170003
 30
0.0
 10
104.724455
 20
82.694028
 30
0.0
 10
81.523005
 20
82.694038
 30
0.0
  0
LWPOLYLINE
  5
14f
100
AcDbEntity
  8
Ebene_1
 62
7
100
AcDbPolyline
 90
9
 70
1
 10
124.458082
 20
82.694038
 30
0.0
 10
114.712841
 20
72.167994
 30
0.0
 10
124.458082
 20
61.639949
 30
0.0
 10
124.653572
 20
61.639949
 30
0.0
 10
131.357574
 20
61.639949
 30
0.0
 10
121.608654
 20
72.169987
 30
0.0
 10
122.967890
 20
73.660050
 30
0.0
 10
122.993700
 20
73.660050
 30
0.0
 10
131.357555
 20
82.694038
 30
0.0
  0
LWPOLYLINE
  5
150
100
AcDbEntity
  8
Ebene_1
 62
7
100
AcDbPolyline
 90
5
 70
1
 10
107.488758
 20
82.694038
 30
0.0
 10
107.488758
 20
61.639949
 30
0.0
 10
107.960899
 20
61.639949
 30
0.0
 10
112.141908
 20
61.639949
 30
0.0
 10
112.141908
 20
82.694038
 30
0.0
  0
LWPOLYLINE
  5
151
100
AcDbEntity
  8
Ebene_1
 62
7
100
AcDbPolyline
 90
5
 70
1
 10
133.454522
 20
82.694038
 30
0.0
 10
133.454522
 20
61.639949
 30
0.0
 10
133.926662
 20
61.639949
 30
0.0
 10
138.107662
 20
61.639949
 30
0.0
 10
138.107662
 20
82.694038
 30
0.0
  0
LWPOLYLINE
  5
152
100
AcDbEntity
  8
Ebene_1
 62
7
100
AcDbPolyline
 90
12
 70
1
 10
140.204630
 20
82.694038
 30
0.0
 10
144.581130
 20
77.964890
 30
0.0
 10
144.581130
 20
61.639949
 30
0.0
 10
145.053268
 20
61.639949
 30
0.0
 10
149.236118
 20
61.639949
 30
0.0
 10
149.236118
 20
72.938925
 30
0.0
 10
159.695089
 20
61.639949
 30
0.0
 10
164.073434
 20
61.639949
 30
0.0
 10
164.073434
 20
82.694038
 30
0.0
 10
159.418445
 20
82.694038
 30
0.0
 10
159.418445
 20
69.391061
 30
0.0
 10
147.104118
 20
82.694038
 30
0.0
  0
SPLINE
  5
153
100
AcDbEntity
  8
Ebene_1
 62
7
100
AcDbSpline
 70
8
 71
3
 72
8
 73
4
 74
0
 40
0
 40
0
 40
0
 40
0
 40
1
 40
1
 40
1
 40
1
 10
185.856348
 20
77.666071
 30
0.0
 10
186.972934
 20
77.666071
 30
0.0
 10
187.983046
 20
78.115708
 30
0.0
 10
188.794302
 20
78.968888
 30
0.0
  0
SPLINE
  5
154
100
AcDbEntity
  8
Ebene_1
 62
7
100
AcDbSpline
 70
8
 71
3
 72
8
 73
4
 74
0
 40
0
 40
0
 40
0
 40
0
 40
1
 40
1
 40
1
 40
1
 10
188.794302
 20
78.968888
 30
0.0
 10
189.610689
 20
79.827485
 30
0.0
 10
190.037354
 20
80.937618
 30
0.0
 10
190.037354
 20
82.184075
 30
0.0
  0
LWPOLYLINE
  5
155
100
AcDbEntity
  8
Ebene_1
 62
7
100
AcDbPolyline
 90
4
 70
0
 10
166.838025
 20
82.694038
 30
0.0
 10
166.838025
 20
77.666071
 30
0.0
 10
167.310164
 20
77.666071
 30
0.0
 10
185.856348
 20
77.666071
 30
0.0
  0
LWPOLYLINE
  5
156
100
AcDbEntity
  8
Ebene_1
 62
7
100
AcDbPolyline
 90
3
 70
0
 10
190.037354
 20
82.184075
 30
0.0
 10
190.037354
 20
82.694038
 30
0.0
 10
166.838025
 20
82.694038
 30
0.0
  0
LWPOLYLINE
  5
157
100
AcDbEntity
  8
Ebene_1
 62
7
100
AcDbPolyline
 90
9
 70
1
 10
59.267946
 20
45.705468
 30
0.0
 10
59.267946
 20
32.665431
 30
0.0
 10
59.740086
 20
32.665431
 30
0.0
 10
82.467276
 20
32.665431
 30
0.0
 10
82.467276
 20
45.705468
 30
0.0
 10
77.814126
 20
45.705468
 30
0.0
 10
77.814126
 20
37.693398
 30
0.0
 10
63.921086
 20
37.693398
 30
0.0
 10
63.921086
 20
45.705468
 30
0.0
  0
SPLINE
  5
158
100
AcDbEntity
  8
Ebene_1
 62
7
100
AcDbSpline
 70
8
 71
3
 72
8
 73
4
 74
0
 40
0
 40
0
 40
0
 40
0
 40
1
 40
1
 40
1
 40
1
 10
59.267946
 20
53.207565
 30
0.0
 10
59.267946
 20
51.982924
 30
0.0
 10
59.682764
 20
50.882182
 30
0.0
 10
60.474107
 20
50.004331
 30
0.0
  0
LWPOLYLINE
  5
159
100
AcDbEntity
  8
Ebene_1
 62
7
100
AcDbPolyline
 90
2
 70
0
 10
59.267946
 20
53.717528
 30
0.0
 10
59.267946
 20
53.207565
 30
0.0
  0
SPLINE
  5
15a
100
AcDbEntity
  8
Ebene_1
 62
7
100
AcDbSpline
 70
8
 71
3
 72
8
 73
4
 74
0
 40
0
 40
0
 40
0
 40
0
 40
1
 40
1
 40
1
 40
1
 10
60.478033
 20
50.000405
 30
0.0
 10
61.274057
 20
49.140611
 30
0.0
 10
62.298114
 20
48.691621
 30
0.0
 10
63.449181
 20
48.691621
 30
0.0
  0
LWPOLYLINE
  5
15b
100
AcDbEntity
  8
Ebene_1
 62
7
100
AcDbPolyline
 90
3
 70
0
 10
60.474107
 20
50.004331
 30
0.0
 10
60.476070
 20
50.002368
 30
0.0
 10
60.478033
 20
50.000405
 30
0.0
  0
SPLINE
  5
15c
100
AcDbEntity
  8
Ebene_1
 62
7
100
AcDbSpline
 70
8
 71
3
 72
8
 73
4
 74
0
 40
0
 40
0
 40
0
 40
0
 40
1
 40
1
 40
1
 40
1
 10
78.286502
 20
48.691621
 30
0.0
 10
79.403083
 20
48.691621
 30
0.0
 10
80.413195
 20
49.141229
 30
0.0
 10
81.224450
 20
49.994439
 30
0.0
  0
SPLINE
  5
15d
100
AcDbEntity
  8
Ebene_1
 62
7
100
AcDbSpline
 70
8
 71
3
 72
8
 73
4
 74
0
 40
0
 40
0
 40
0
 40
0
 40
1
 40
1
 40
1
 40
1
 10
81.224450
 20
49.994439
 30
0.0
 10
82.040838
 20
50.853016
 30
0.0
 10
82.467511
 20
51.961177
 30
0.0
 10
82.467511
 20
53.207634
 30
0.0
  0
LWPOLYLINE
  5
15e
100
AcDbEntity
  8
Ebene_1
 62
7
100
AcDbPolyline
 90
2
 70
0
 10
63.449181
 20
48.691621
 30
0.0
 10
78.286502
 20
48.691621
 30
0.0
  0
LWPOLYLINE
  5
15f
100
AcDbEntity
  8
Ebene_1
 62
7
100
AcDbPolyline
 90
3
 70
0
 10
82.467511
 20
53.207634
 30
0.0
 10
82.467511
 20
53.717596
 30
0.0
 10
59.267946
 20
53.717528
 30
0.0
  0
LWPOLYLINE
  5
160
100
AcDbEntity
  8
Ebene_1
 62
7
100
AcDbPolyline
 90
12
 70
1
 10
84.566078
 20
53.717528
 30
0.0
 10
88.942578
 20
48.990372
 30
0.0
 10
88.942578
 20
32.665431
 30
0.0
 10
89.414718
 20
32.665431
 30
0.0
 10
93.595718
 20
32.665431
 30
0.0
 10
93.595718
 20
43.964407
 30
0.0
 10
104.056539
 20
32.665431
 30
0.0
 10
108.433039
 20
32.665431
 30
0.0
 10
108.433039
 20
53.717528
 30
0.0
 10
103.779899
 20
53.717528
 30
0.0
 10
103.779899
 20
40.416543
 30
0.0
 10
91.465561
 20
53.717528
 30
0.0
  0
SPLINE
  5
161
100
AcDbEntity
  8
Ebene_1
 62
7
100
AcDbSpline
 70
8
 71
3
 72
8
 73
4
 74
0
 40
0
 40
0
 40
0
 40
0
 40
1
 40
1
 40
1
 40
1
 10
130.217803
 20
32.665431
 30
0.0
 10
131.334374
 20
32.665431
 30
0.0
 10
132.342651
 20
33.115049
 30
0.0
 10
133.153906
 20
33.968248
 30
0.0
  0
SPLINE
  5
162
100
AcDbEntity
  8
Ebene_1
 62
7
100
AcDbSpline
 70
8
 71
3
 72
8
 73
4
 74
0
 40
0
 40
0
 40
0
 40
0
 40
1
 40
1
 40
1
 40
1
 10
133.153906
 20
33.968248
 30
0.0
 10
133.970284
 20
34.826835
 30
0.0
 10
134.398803
 20
35.936978
 30
0.0
 10
134.398803
 20
37.183425
 30
0.0
  0
LWPOLYLINE
  5
163
100
AcDbEntity
  8
Ebene_1
 62
7
100
AcDbPolyline
 90
4
 70
0
 10
111.197627
 20
53.717528
 30
0.0
 10
111.197627
 20
32.665431
 30
0.0
 10
111.669768
 20
32.665431
 30
0.0
 10
130.217803
 20
32.665431
 30
0.0
  0
LWPOLYLINE
  5
164
100
AcDbEntity
  8
Ebene_1
 62
7
100
AcDbPolyline
 90
5
 70
0
 10
134.398803
 20
37.183425
 30
0.0
 10
134.398803
 20
37.693398
 30
0.0
 10
115.852622
 20
37.693398
 30
0.0
 10
115.852622
 20
53.717528
 30
0.0
 10
111.197627
 20
53.717528
 30
0.0
  0
SPLINE
  5
165
100
AcDbEntity
  8
Ebene_1
 62
7
100
AcDbSpline
 70
8
 71
3
 72
8
 73
4
 74
0
 40
0
 40
0
 40
0
 40
0
 40
1
 40
1
 40
1
 40
1
 10
109.799090
 20
92.288820
 30
0.0
 10
109.586680
 20
93.409080
 30
0.0
 10
91.309051
 20
195.452280
 30
0.0
 10
91.309051
 20
195.517910
 30
0.0
  0
SPLINE
  5
166
100
AcDbEntity
  8
Ebene_1
 62
7
100
AcDbSpline
 70
8
 71
3
 72
8
 73
4
 74
0
 40
0
 40
0
 40
0
 40
0
 40
1
 40
1
 40
1
 40
1
 10
91.309051
 20
195.517910
 30
0.0
 10
91.309051
 20
195.611110
 30
0.0
 10
85.910624
 20
195.474710
 30
0.0
 10
83.197107
 20
195.312790
 30
0.0
  0
SPLINE
  5
167
100
AcDbEntity
  8
Ebene_1
 62
7
100
AcDbSpline
 70
8
 71
3
 72
8
 73
4
 74
0
 40
0
 40
0
 40
0
 40
0
 40
1
 40
1
 40
1
 40
1
 10
83.197107
 20
195.312790
 30
0.0
 10
75.121836
 20
194.831220
 30
0.0
 10
70.968501
 20
193.417090
 30
0.0
 10
68.961085
 20
190.465710
 30
0.0
  0
SPLINE
  5
168
100
AcDbEntity
  8
Ebene_1
 62
7
100
AcDbSpline
 70
8
 71
3
 72
8
 73
4
 74
0
 40
0
 40
0
 40
0
 40
0
 40
1
 40
1
 40
1
 40
1
 10
68.961085
 20
190.465710
 30
0.0
 10
68.220960
 20
189.377560
 30
0.0
 10
67.911983
 20
188.601680
 30
0.0
 10
67.588953
 20
187.020570
 30
0.0
  0
SPLINE
  5
169
100
AcDbEntity
  8
Ebene_1
 62
7
100
AcDbSpline
 70
8
 71
3
 72
8
 73
4
 74
0
 40
0
 40
0
 40
0
 40
0
 40
1
 40
1
 40
1
 40
1
 10
67.588953
 20
187.020570
 30
0.0
 10
67.457723
 20
186.378130
 30
0.0
 10
67.326405
 20
185.828580
 30
0.0
 10
67.297160
 20
185.799330
 30
0.0
  0
SPLINE
  5
16a
100
AcDbEntity
  8
Ebene_1
 62
7
100
AcDbSpline
 70
8
 71
3
 72
8
 73
4
 74
0
 40
0
 40
0
 40
0
 40
0
 40
1
 40
1
 40
1
 40
1
 10
67.297160
 20
185.799330
 30
0.0
 10
67.198860
 20
185.701030
 30
0.0
 10
63.842939
 20
187.295600
 30
0.0
 10
62.161526
 20
188.239580
 30
0.0
  0
SPLINE
  5
16b
100
AcDbEntity
  8
Ebene_1
 62
7
100
AcDbSpline
 70
8
 71
3
 72
8
 73
4
 74
0
 40
0
 40
0
 40
0
 40
0
 40
1
 40
1
 40
1
 40
1
 10
62.161526
 20
188.239580
 30
0.0
 10
57.132371
 20
191.063040
 30
0.0
 10
53.184085
 20
194.332150
 30
0.0
 10
50.498155
 20
197.896660
 30
0.0
  0
SPLINE
  5
16c
100
AcDbEntity
  8
Ebene_1
 62
7
100
AcDbSpline
 70
8
 71
3
 72
8
 73
4
 74
0
 40
0
 40
0
 40
0
 40
0
 40
1
 40
1
 40
1
 40
1
 10
50.498155
 20
197.896660
 30
0.0
 10
50.103553
 20
198.420330
 30
0.0
 10
49.780709
 20
198.891660
 30
0.0
 10
49.780709
 20
198.944040
 30
0.0
  0
SPLINE
  5
16d
100
AcDbEntity
  8
Ebene_1
 62
7
100
AcDbSpline
 70
8
 71
3
 72
8
 73
4
 74
0
 40
0
 40
0
 40
0
 40
0
 40
1
 40
1
 40
1
 40
1
 10
49.780709
 20
198.944040
 30
0.0
 10
49.780709
 20
198.996440
 30
0.0
 10
49.985022
 20
199.123860
 30
0.0
 10
50.234724
 20
199.227200
 30
0.0
  0
SPLINE
  5
16e
100
AcDbEntity
  8
Ebene_1
 62
7
100
AcDbSpline
 70
8
 71
3
 72
8
 73
4
 74
0
 40
0
 40
0
 40
0
 40
0
 40
1
 40
1
 40
1
 40
1
 10
50.234724
 20
199.227200
 30
0.0
 10
50.484435
 20
199.330540
 30
0.0
 10
51.560495
 20
199.794330
 30
0.0
 10
52.625937
 20
200.257849
 30
0.0
  0
SPLINE
  5
16f
100
AcDbEntity
  8
Ebene_1
 62
7
100
AcDbSpline
 70
8
 71
3
 72
8
 73
4
 74
0
 40
0
 40
0
 40
0
 40
0
 40
1
 40
1
 40
1
 40
1
 10
52.625937
 20
200.257849
 30
0.0
 10
64.833305
 20
205.568585
 30
0.0
 10
80.701063
 20
209.280686
 30
0.0
 10
94.941265
 20
210.157094
 30
0.0
  0
LWPOLYLINE
  5
170
100
AcDbEntity
  8
Ebene_1
 62
7
100
AcDbPolyline
 90
14
 70
1
 10
137.163391
 20
53.717528
 30
0.0
 10
137.163391
 20
48.990372
 30
0.0
 10
146.436486
 20
38.974291
 30
0.0
 10
146.436486
 20
32.665431
 30
0.0
 10
146.908624
 20
32.665431
 30
0.0
 10
151.089630
 20
32.665431
 30
0.0
 10
151.089630
 20
38.974291
 30
0.0
 10
160.362722
 20
48.990372
 30
0.0
 10
160.362722
 20
53.717528
 30
0.0
 10
155.709578
 20
53.717528
 30
0.0
 10
155.709578
 20
51.416699
 30
0.0
 10
148.763979
 20
43.912610
 30
0.0
 10
141.816539
 20
51.416699
 30
0.0
 10
141.816539
 20
53.717528
 30
0.0
  0
SPLINE
  5
171
100
AcDbEntity
  8
Ebene_1
 62
7
100
AcDbSpline
 70
8
 71
3
 72
8
 73
4
 74
0
 40
0
 40
0
 40
0
 40
0
 40
1
 40
1
 40
1
 40
1
 10
103.036150
 20
201.920505
 30
0.0
 10
106.789130
 20
197.347350
 30
0.0
 10
109.901290
 20
193.651490
 30
0.0
 10
109.952030
 20
193.707480
 30
0.0
  0
SPLINE
  5
172
100
AcDbEntity
  8
Ebene_1
 62
7
100
AcDbSpline
 70
8
 71
3
 72
8
 73
4
 74
0
 40
0
 40
0
 40
0
 40
0
 40
1
 40
1
 40
1
 40
1
 10
109.952030
 20
193.707480
 30
0.0
 10
110.002730
 20
193.763380
 30
0.0
 10
113.048780
 20
197.470630
 30
0.0
 10
116.720900
 20
201.945593
 30
0.0
  0
SPLINE
  5
173
100
AcDbEntity
  8
Ebene_1
 62
7
100
AcDbSpline
 70
8
 71
3
 72
8
 73
4
 74
0
 40
0
 40
0
 40
0
 40
0
 40
1
 40
1
 40
1
 40
1
 10
116.720900
 20
201.945593
 30
0.0
 10
120.393050
 20
206.420545
 30
0.0
 10
123.453620
 20
210.116542
 30
0.0
 10
123.522150
 20
210.158913
 30
0.0
  0
SPLINE
  5
174
100
AcDbEntity
  8
Ebene_1
 62
7
100
AcDbSpline
 70
8
 71
3
 72
8
 73
4
 74
0
 40
0
 40
0
 40
0
 40
0
 40
1
 40
1
 40
1
 40
1
 10
123.522150
 20
210.158913
 30
0.0
 10
123.665160
 20
210.247283
 30
0.0
 10
126.719140
 20
210.050314
 30
0.0
 10
129.386780
 20
209.780667
 30
0.0
  0
SPLINE
  5
175
100
AcDbEntity
  8
Ebene_1
 62
7
100
AcDbSpline
 70
8
 71
3
 72
8
 73
4
 74
0
 40
0
 40
0
 40
0
 40
0
 40
1
 40
1
 40
1
 40
1
 10
129.386780
 20
209.780667
 30
0.0
 10
140.636620
 20
208.643499
 30
0.0
 10
151.935350
 20
206.040285
 30
0.0
 10
162.197800
 20
202.221033
 30
0.0
  0
SPLINE
  5
176
100
AcDbEntity
  8
Ebene_1
 62
7
100
AcDbSpline
 70
8
 71
3
 72
8
 73
4
 74
0
 40
0
 40
0
 40
0
 40
0
 40
1
 40
1
 40
1
 40
1
 10
162.197800
 20
202.221033
 30
0.0
 10
164.619780
 20
201.319665
 30
0.0
 10
168.515670
 20
199.710880
 30
0.0
 10
169.531740
 20
199.192530
 30
0.0
  0
LWPOLYLINE
  5
177
100
AcDbEntity
  8
Ebene_1
 62
7
100
AcDbPolyline
 90
3
 70
0
 10
94.941265
 20
210.157094
 30
0.0
 10
96.212531
 20
210.235334
 30
0.0
 10
103.036150
 20
201.920505
 30
0.0
  0
SPLINE
  5
178
100
AcDbEntity
  8
Ebene_1
 62
7
100
AcDbSpline
 70
8
 71
3
 72
8
 73
4
 74
0
 40
0
 40
0
 40
0
 40
0
 40
1
 40
1
 40
1
 40
1
 10
169.394120
 20
198.108520
 30
0.0
 10
167.014570
 20
194.836930
 30
0.0
 10
163.284180
 20
191.621890
 30
0.0
 10
158.664460
 20
188.861150
 30
0.0
  0
SPLINE
  5
179
100
AcDbEntity
  8
Ebene_1
 62
7
100
AcDbSpline
 70
8
 71
3
 72
8
 73
4
 74
0
 40
0
 40
0
 40
0
 40
0
 40
1
 40
1
 40
1
 40
1
 10
158.664460
 20
188.861150
 30
0.0
 10
157.393940
 20
188.101880
 30
0.0
 10
153.188110
 20
185.990920
 30
0.0
 10
152.614650
 20
185.824640
 30
0.0
  0
SPLINE
  5
17a
100
AcDbEntity
  8
Ebene_1
 62
7
100
AcDbSpline
 70
8
 71
3
 72
8
 73
4
 74
0
 40
0
 40
0
 40
0
 40
0
 40
1
 40
1
 40
1
 40
1
 10
152.614650
 20
185.824640
 30
0.0
 10
152.378000
 20
185.755940
 30
0.0
 10
152.346280
 20
185.807540
 30
0.0
 10
152.267550
 20
186.389140
 30
0.0
  0
SPLINE
  5
17b
100
AcDbEntity
  8
Ebene_1
 62
7
100
AcDbSpline
 70
8
 71
3
 72
8
 73
4
 74
0
 40
0
 40
0
 40
0
 40
0
 40
1
 40
1
 40
1
 40
1
 10
152.267550
 20
186.389140
 30
0.0
 10
152.219850
 20
186.741140
 30
0.0
 10
152.047770
 20
187.490790
 30
0.0
 10
151.885060
 20
188.055020
 30
0.0
  0
SPLINE
  5
17c
100
AcDbEntity
  8
Ebene_1
 62
7
100
AcDbSpline
 70
8
 71
3
 72
8
 73
4
 74
0
 40
0
 40
0
 40
0
 40
0
 40
1
 40
1
 40
1
 40
1
 10
151.885060
 20
188.055020
 30
0.0
 10
150.603780
 20
192.498240
 30
0.0
 10
146.818040
 20
194.471220
 30
0.0
 10
138.164640
 20
195.205570
 30
0.0
  0
SPLINE
  5
17d
100
AcDbEntity
  8
Ebene_1
 62
7
100
AcDbSpline
 70
8
 71
3
 72
8
 73
4
 74
0
 40
0
 40
0
 40
0
 40
0
 40
1
 40
1
 40
1
 40
1
 10
138.164640
 20
195.205570
 30
0.0
 10
136.280450
 20
195.365460
 30
0.0
 10
128.444230
 20
195.570660
 30
0.0
 10
128.345770
 20
195.462680
 30
0.0
  0
SPLINE
  5
17e
100
AcDbEntity
  8
Ebene_1
 62
7
100
AcDbSpline
 70
8
 71
3
 72
8
 73
4
 74
0
 40
0
 40
0
 40
0
 40
0
 40
1
 40
1
 40
1
 40
1
 10
128.345770
 20
195.462680
 30
0.0
 10
128.295470
 20
195.407480
 30
0.0
 10
113.167930
 20
110.546810
 30
0.0
 10
109.975350
 20
92.409890
 30
0.0
  0
LWPOLYLINE
  5
17f
100
AcDbEntity
  8
Ebene_1
 62
7
100
AcDbPolyline
 90
3
 70
0
 10
169.531740
 20
199.192530
 30
0.0
 10
170.006420
 20
198.950360
 30
0.0
 10
169.394120
 20
198.108520
 30
0.0
  0
SPLINE
  5
180
100
AcDbEntity
  8
Ebene_1
 62
7
100
AcDbSpline
 70
8
 71
3
 72
8
 73
4
 74
0
 40
0
 40
0
 40
0
 40
0
 40
1
 40
1
 40
1
 40
1
 10
170.007070
 20
203.521987
 30
0.0
 10
155.546760
 20
209.620544
 30
0.0
 10
139.118140
 20
213.501268
 30
0.0
 10
122.727720
 20
214.690169
 30
0.0
  0
SPLINE
  5
181
100
AcDbEntity
  8
Ebene_1
 62
7
100
AcDbSpline
 70
8
 71
3
 72
8
 73
4
 74
0
 40
0
 40
0
 40
0
 40
0
 40
1
 40
1
 40
1
 40
1
 10
122.727720
 20
214.690169
 30
0.0
 10
117.461830
 20
215.072135
 30
0.0
 10
106.521980
 20
215.197221
 30
0.0
 10
101.224580
 20
214.936032
 30
0.0
  0
SPLINE
  5
182
100
AcDbEntity
  8
Ebene_1
 62
7
100
AcDbSpline
 70
8
 71
3
 72
8
 73
4
 74
0
 40
0
 40
0
 40
0
 40
0
 40
1
 40
1
 40
1
 40
1
 10
101.224580
 20
214.936032
 30
0.0
 10
82.866677
 20
214.030889
 30
0.0
 10
65.977061
 20
210.289660
 30
0.0
 10
49.745154
 20
203.532802
 30
0.0
  0
SPLINE
  5
183
100
AcDbEntity
  8
Ebene_1
 62
7
100
AcDbSpline
 70
8
 71
3
 72
8
 73
4
 74
0
 40
0
 40
0
 40
0
 40
0
 40
1
 40
1
 40
1
 40
1
 10
49.745154
 20
203.532802
 30
0.0
 10
48.626836
 20
203.067287
 30
0.0
 10
47.642240
 20
202.713131
 30
0.0
 10
47.557144
 20
202.745780
 30
0.0
  0
SPLINE
  5
184
100
AcDbEntity
  8
Ebene_1
 62
7
100
AcDbSpline
 70
8
 71
3
 72
8
 73
4
 74
0
 40
0
 40
0
 40
0
 40
0
 40
1
 40
1
 40
1
 40
1
 10
47.557144
 20
202.745780
 30
0.0
 10
47.472064
 20
202.778480
 30
0.0
 10
46.771896
 20
204.077326
 30
0.0
 10
46.001279
 20
205.632213
 30
0.0
  0
SPLINE
  5
185
100
AcDbEntity
  8
Ebene_1
 62
7
100
AcDbSpline
 70
8
 71
3
 72
8
 73
4
 74
0
 40
0
 40
0
 40
0
 40
0
 40
1
 40
1
 40
1
 40
1
 10
46.001279
 20
205.632213
 30
0.0
 10
44.559479
 20
208.541328
 30
0.0
 10
43.887570
 20
210.052544
 30
0.0
 10
43.990281
 20
210.155250
 30
0.0
  0
SPLINE
  5
186
100
AcDbEntity
  8
Ebene_1
 62
7
100
AcDbSpline
 70
8
 71
3
 72
8
 73
4
 74
0
 40
0
 40
0
 40
0
 40
0
 40
1
 40
1
 40
1
 40
1
 10
43.990281
 20
210.155250
 30
0.0
 10
44.095386
 20
210.260291
 30
0.0
 10
48.328556
 20
211.859551
 30
0.0
 10
50.809830
 20
212.731582
 30
0.0
  0
SPLINE
  5
187
100
AcDbEntity
  8
Ebene_1
 62
7
100
AcDbSpline
 70
8
 71
3
 72
8
 73
4
 74
0
 40
0
 40
0
 40
0
 40
0
 40
1
 40
1
 40
1
 40
1
 10
50.809830
 20
212.731582
 30
0.0
 10
74.070909
 20
220.906585
 30
0.0
 10
98.913114
 20
224.294313
 30
0.0
 10
122.425040
 20
222.497733
 30
0.0
  0
SPLINE
  5
188
100
AcDbEntity
  8
Ebene_1
 62
7
100
AcDbSpline
 70
8
 71
3
 72
8
 73
4
 74
0
 40
0
 40
0
 40
0
 40
0
 40
1
 40
1
 40
1
 40
1
 10
122.425040
 20
222.497733
 30
0.0
 10
140.010540
 20
221.153996
 30
0.0
 10
156.584030
 20
217.444526
 30
0.0
 10
173.454740
 20
211.076288
 30
0.0
  0
SPLINE
  5
189
100
AcDbEntity
  8
Ebene_1
 62
7
100
AcDbSpline
 70
8
 71
3
 72
8
 73
4
 74
0
 40
0
 40
0
 40
0
 40
0
 40
1
 40
1
 40
1
 40
1
 10
173.454740
 20
211.076288
 30
0.0
 10
174.710810
 20
210.602155
 30
0.0
 10
175.760090
 20
210.192644
 30
0.0
 10
175.786470
 20
210.166261
 30
0.0
  0
SPLINE
  5
18a
100
AcDbEntity
  8
Ebene_1
 62
7
100
AcDbSpline
 70
8
 71
3
 72
8
 73
4
 74
0
 40
0
 40
0
 40
0
 40
0
 40
1
 40
1
 40
1
 40
1
 10
175.786470
 20
210.166261
 30
0.0
 10
175.924370
 20
210.028358
 30
0.0
 10
172.551040
 20
202.986341
 30
0.0
 10
172.209240
 20
202.698597
 30
0.0
  0
SPLINE
  5
18b
100
AcDbEntity
  8
Ebene_1
 62
7
100
AcDbSpline
 70
8
 71
3
 72
8
 73
4
 74
0
 40
0
 40
0
 40
0
 40
0
 40
1
 40
1
 40
1
 40
1
 10
172.209240
 20
202.698597
 30
0.0
 10
172.163440
 20
202.659987
 30
0.0
 10
171.172390
 20
203.030511
 30
0.0
 10
170.007070
 20
203.521987
 30
0.0
  0
LWPOLYLINE
  5
18c
100
AcDbEntity
  8
Ebene_1
 62
7
100
AcDbPolyline
 90
3
 70
0
 10
109.975350
 20
92.409890
 30
0.0
 10
109.879450
 20
91.865050
 30
0.0
 10
109.799090
 20
92.288820
 30
0.0
  0
LWPOLYLINE
  5
18d
100
AcDbEntity
  8
Ebene_1
 62
7
100
AcDbPolyline
 90
1
 70
1
 10
170.007070
 20
203.521987
 30
0.0
  0
LWPOLYLINE
  5
18e
100
AcDbEntity
  8
Ebene_1
 62
7
100
AcDbPolyline
 90
9
 70
1
 10
162.339653
 20
247.022806
 30
0.0
 10
162.339653
 20
233.425367
 30
0.0
 10
162.830341
 20
233.425367
 30
0.0
 10
167.526378
 20
233.425367
 30
0.0
 10
167.526378
 20
241.836074
 30
0.0
 10
183.366421
 20
241.836074
 30
0.0
 10
183.366421
 20
233.425367
 30
0.0
 10
188.553155
 20
233.425367
 30
0.0
 10
188.553155
 20
247.022806
 30
0.0
  0
SPLINE
  5
18f
100
AcDbEntity
  8
Ebene_1
 62
7
100
AcDbSpline
 70
8
 71
3
 72
8
 73
4
 74
0
 40
0
 40
0
 40
0
 40
0
 40
1
 40
1
 40
1
 40
1
 10
162.339653
 20
254.942824
 30
0.0
 10
162.339653
 20
253.667771
 30
0.0
 10
162.802922
 20
252.525524
 30
0.0
 10
163.692883
 20
251.611510
 30
0.0
  0
LWPOLYLINE
  5
190
100
AcDbEntity
  8
Ebene_1
 62
7
100
AcDbPolyline
 90
2
 70
0
 10
162.339653
 20
255.433513
 30
0.0
 10
162.339653
 20
254.942824
 30
0.0
  0
SPLINE
  5
191
100
AcDbEntity
  8
Ebene_1
 62
7
100
AcDbSpline
 70
8
 71
3
 72
8
 73
4
 74
0
 40
0
 40
0
 40
0
 40
0
 40
1
 40
1
 40
1
 40
1
 10
163.698772
 20
251.607584
 30
0.0
 10
164.593591
 20
250.712770
 30
0.0
 10
165.740998
 20
250.246690
 30
0.0
 10
167.035836
 20
250.246690
 30
0.0
  0
LWPOLYLINE
  5
192
100
AcDbEntity
  8
Ebene_1
 62
7
100
AcDbPolyline
 90
3
 70
0
 10
163.692883
 20
251.611510
 30
0.0
 10
163.696809
 20
251.609547
 30
0.0
 10
163.698772
 20
251.607584
 30
0.0
  0
SPLINE
  5
193
100
AcDbEntity
  8
Ebene_1
 62
7
100
AcDbSpline
 70
8
 71
3
 72
8
 73
4
 74
0
 40
0
 40
0
 40
0
 40
0
 40
1
 40
1
 40
1
 40
1
 10
183.857256
 20
250.246690
 30
0.0
 10
185.112604
 20
250.246690
 30
0.0
 10
186.243514
 20
250.713373
 30
0.0
 10
187.155988
 20
251.601833
 30
0.0
  0
SPLINE
  5
194
100
AcDbEntity
  8
Ebene_1
 62
7
100
AcDbSpline
 70
8
 71
3
 72
8
 73
4
 74
0
 40
0
 40
0
 40
0
 40
0
 40
1
 40
1
 40
1
 40
1
 10
187.155988
 20
251.601833
 30
0.0
 10
188.073792
 20
252.495487
 30
0.0
 10
188.553302
 20
253.644862
 30
0.0
 10
188.553302
 20
254.942732
 30
0.0
  0
LWPOLYLINE
  5
195
100
AcDbEntity
  8
Ebene_1
 62
7
100
AcDbPolyline
 90
2
 70
0
 10
167.035836
 20
250.246690
 30
0.0
 10
183.857256
 20
250.246690
 30
0.0
  0
LWPOLYLINE
  5
196
100
AcDbEntity
  8
Ebene_1
 62
7
100
AcDbPolyline
 90
3
 70
0
 10
188.553302
 20
254.942732
 30
0.0
 10
188.553302
 20
255.433421
 30
0.0
 10
162.339653
 20
255.433513
 30
0.0
  0
SPLINE
  5
197
100
AcDbEntity
  8
Ebene_1
 62
7
100
AcDbSpline
 70
8
 71
3
 72
8
 73
4
 74
0
 40
0
 40
0
 40
0
 40
0
 40
1
 40
1
 40
1
 40
1
 10
31.628667
 20
254.942824
 30
0.0
 10
31.628667
 20
253.667771
 30
0.0
 10
32.093849
 20
252.525524
 30
0.0
 10
32.983811
 20
251.611510
 30
0.0
  0
LWPOLYLINE
  5
198
100
AcDbEntity
  8
Ebene_1
 62
7
100
AcDbPolyline
 90
2
 70
0
 10
31.628667
 20
255.433513
 30
0.0
 10
31.628667
 20
254.942824
 30
0.0
  0
SPLINE
  5
199
100
AcDbEntity
  8
Ebene_1
 62
7
100
AcDbSpline
 70
8
 71
3
 72
8
 73
4
 74
0
 40
0
 40
0
 40
0
 40
0
 40
1
 40
1
 40
1
 40
1
 10
32.987736
 20
251.607584
 30
0.0
 10
33.882556
 20
250.712769
 30
0.0
 10
35.029962
 20
250.246690
 30
0.0
 10
36.324801
 20
250.246690
 30
0.0
  0
LWPOLYLINE
  5
19a
100
AcDbEntity
  8
Ebene_1
 62
7
100
AcDbPolyline
 90
3
 70
0
 10
32.983811
 20
251.611510
 30
0.0
 10
32.985774
 20
251.609547
 30
0.0
 10
32.987736
 20
251.607584
 30
0.0
  0
SPLINE
  5
19b
100
AcDbEntity
  8
Ebene_1
 62
7
100
AcDbSpline
 70
8
 71
3
 72
8
 73
4
 74
0
 40
0
 40
0
 40
0
 40
0
 40
1
 40
1
 40
1
 40
1
 10
53.146221
 20
250.246782
 30
0.0
 10
54.401569
 20
250.246782
 30
0.0
 10
55.532478
 20
250.713465
 30
0.0
 10
56.444953
 20
251.601926
 30
0.0
  0
SPLINE
  5
19c
100
AcDbEntity
  8
Ebene_1
 62
7
100
AcDbSpline
 70
8
 71
3
 72
8
 73
4
 74
0
 40
0
 40
0
 40
0
 40
0
 40
1
 40
1
 40
1
 40
1
 10
56.444953
 20
251.601926
 30
0.0
 10
57.362756
 20
252.495578
 30
0.0
 10
57.842257
 20
253.644953
 30
0.0
 10
57.842257
 20
254.942824
 30
0.0
  0
LWPOLYLINE
  5
19d
100
AcDbEntity
  8
Ebene_1
 62
7
100
AcDbPolyline
 90
7
 70
0
 10
36.324801
 20
250.246690
 30
0.0
 10
42.142149
 20
250.246690
 30
0.0
 10
42.142149
 20
233.425367
 30
0.0
 10
42.632837
 20
233.425367
 30
0.0
 10
47.328873
 20
233.425367
 30
0.0
 10
47.328873
 20
250.246782
 30
0.0
 10
53.146221
 20
250.246782
 30
0.0
  0
LWPOLYLINE
  5
19e
100
AcDbEntity
  8
Ebene_1
 62
7
100
AcDbPolyline
 90
3
 70
0
 10
57.842257
 20
254.942824
 30
0.0
 10
57.842257
 20
255.433513
 30
0.0
 10
31.628667
 20
255.433513
 30
0.0
  0
SPLINE
  5
19f
100
AcDbEntity
  8
Ebene_1
 62
7
100
AcDbSpline
 70
8
 71
3
 72
8
 73
4
 74
0
 40
0
 40
0
 40
0
 40
0
 40
1
 40
1
 40
1
 40
1
 10
64.305459
 20
238.121409
 30
0.0
 10
64.305459
 20
236.846356
 30
0.0
 10
64.770641
 20
235.704109
 30
0.0
 10
65.660603
 20
234.790095
 30
0.0
  0
LWPOLYLINE
  5
1a0
100
AcDbEntity
  8
Ebene_1
 62
7
100
AcDbPolyline
 90
2
 70
0
 10
64.305459
 20
238.612098
 30
0.0
 10
64.305459
 20
238.121409
 30
0.0
  0
SPLINE
  5
1a1
100
AcDbEntity
  8
Ebene_1
 62
7
100
AcDbSpline
 70
8
 71
3
 72
8
 73
4
 74
0
 40
0
 40
0
 40
0
 40
0
 40
1
 40
1
 40
1
 40
1
 10
65.664529
 20
234.784305
 30
0.0
 10
66.559338
 20
233.889489
 30
0.0
 10
67.706745
 20
233.425327
 30
0.0
 10
69.001593
 20
233.425327
 30
0.0
  0
LWPOLYLINE
  5
1a2
100
AcDbEntity
  8
Ebene_1
 62
7
100
AcDbPolyline
 90
3
 70
0
 10
65.660603
 20
234.790095
 30
0.0
 10
65.662566
 20
234.788132
 30
0.0
 10
65.664529
 20
234.784305
 30
0.0
  0
SPLINE
  5
1a3
100
AcDbEntity
  8
Ebene_1
 62
7
100
AcDbSpline
 70
8
 71
3
 72
8
 73
4
 74
0
 40
0
 40
0
 40
0
 40
0
 40
1
 40
1
 40
1
 40
1
 10
85.823003
 20
233.425327
 30
0.0
 10
87.078351
 20
233.425327
 30
0.0
 10
88.211184
 20
233.892010
 30
0.0
 10
89.123649
 20
234.780470
 30
0.0
  0
SPLINE
  5
1a4
100
AcDbEntity
  8
Ebene_1
 62
7
100
AcDbSpline
 70
8
 71
3
 72
8
 73
4
 74
0
 40
0
 40
0
 40
0
 40
0
 40
1
 40
1
 40
1
 40
1
 10
89.123649
 20
234.780470
 30
0.0
 10
90.041462
 20
235.674123
 30
0.0
 10
90.519049
 20
236.823498
 30
0.0
 10
90.519049
 20
238.121369
 30
0.0
  0
LWPOLYLINE
  5
1a5
100
AcDbEntity
  8
Ebene_1
 62
7
100
AcDbPolyline
 90
2
 70
0
 10
69.001593
 20
233.425327
 30
0.0
 10
85.823003
 20
233.425327
 30
0.0
  0
LWPOLYLINE
  5
1a6
100
AcDbEntity
  8
Ebene_1
 62
7
100
AcDbPolyline
 90
3
 70
0
 10
90.519049
 20
238.121369
 30
0.0
 10
90.519049
 20
238.612058
 30
0.0
 10
64.305459
 20
238.612098
 30
0.0
  0
SPLINE
  5
1a7
100
AcDbEntity
  8
Ebene_1
 62
7
100
AcDbSpline
 70
8
 71
3
 72
8
 73
4
 74
0
 40
0
 40
0
 40
0
 40
0
 40
1
 40
1
 40
1
 40
1
 10
64.305459
 20
246.532117
 30
0.0
 10
64.305459
 20
245.257063
 30
0.0
 10
64.770641
 20
244.114817
 30
0.0
 10
65.660603
 20
243.200803
 30
0.0
  0
LWPOLYLINE
  5
1a8
100
AcDbEntity
  8
Ebene_1
 62
7
100
AcDbPolyline
 90
2
 70
0
 10
64.305459
 20
247.022806
 30
0.0
 10
64.305459
 20
246.532117
 30
0.0
  0
SPLINE
  5
1a9
100
AcDbEntity
  8
Ebene_1
 62
7
100
AcDbSpline
 70
8
 71
3
 72
8
 73
4
 74
0
 40
0
 40
0
 40
0
 40
0
 40
1
 40
1
 40
1
 40
1
 10
65.664529
 20
243.195013
 30
0.0
 10
66.559338
 20
242.300198
 30
0.0
 10
67.706745
 20
241.836035
 30
0.0
 10
69.001593
 20
241.836035
 30
0.0
  0
LWPOLYLINE
  5
1aa
100
AcDbEntity
  8
Ebene_1
 62
7
100
AcDbPolyline
 90
3
 70
0
 10
65.660603
 20
243.200803
 30
0.0
 10
65.662566
 20
243.198840
 30
0.0
 10
65.664529
 20
243.195013
 30
0.0
  0
SPLINE
  5
1ab
100
AcDbEntity
  8
Ebene_1
 62
7
100
AcDbSpline
 70
8
 71
3
 72
8
 73
4
 74
0
 40
0
 40
0
 40
0
 40
0
 40
1
 40
1
 40
1
 40
1
 10
85.823003
 20
241.836035
 30
0.0
 10
87.078351
 20
241.836035
 30
0.0
 10
88.211184
 20
242.302718
 30
0.0
 10
89.123649
 20
243.191179
 30
0.0
  0
SPLINE
  5
1ac
100
AcDbEntity
  8
Ebene_1
 62
7
100
AcDbSpline
 70
8
 71
3
 72
8
 73
4
 74
0
 40
0
 40
0
 40
0
 40
0
 40
1
 40
1
 40
1
 40
1
 10
89.123649
 20
243.191179
 30
0.0
 10
90.041462
 20
244.084832
 30
0.0
 10
90.519049
 20
245.234207
 30
0.0
 10
90.519049
 20
246.532078
 30
0.0
  0
LWPOLYLINE
  5
1ad
100
AcDbEntity
  8
Ebene_1
 62
7
100
AcDbPolyline
 90
2
 70
0
 10
69.001593
 20
241.836035
 30
0.0
 10
85.823003
 20
241.836035
 30
0.0
  0
LWPOLYLINE
  5
1ae
100
AcDbEntity
  8
Ebene_1
 62
7
100
AcDbPolyline
 90
3
 70
0
 10
90.519049
 20
246.532078
 30
0.0
 10
90.519049
 20
247.022767
 30
0.0
 10
64.305459
 20
247.022806
 30
0.0
  0
SPLINE
  5
1af
100
AcDbEntity
  8
Ebene_1
 62
7
100
AcDbSpline
 70
8
 71
3
 72
8
 73
4
 74
0
 40
0
 40
0
 40
0
 40
0
 40
1
 40
1
 40
1
 40
1
 10
64.305459
 20
254.942824
 30
0.0
 10
64.305459
 20
253.667771
 30
0.0
 10
64.770641
 20
252.525524
 30
0.0
 10
65.660603
 20
251.611510
 30
0.0
  0
LWPOLYLINE
  5
1b0
100
AcDbEntity
  8
Ebene_1
 62
7
100
AcDbPolyline
 90
2
 70
0
 10
64.305459
 20
255.433513
 30
0.0
 10
64.305459
 20
254.942824
 30
0.0
  0
SPLINE
  5
1b1
100
AcDbEntity
  8
Ebene_1
 62
7
100
AcDbSpline
 70
8
 71
3
 72
8
 73
4
 74
0
 40
0
 40
0
 40
0
 40
0
 40
1
 40
1
 40
1
 40
1
 10
65.664529
 20
251.607584
 30
0.0
 10
66.559338
 20
250.712769
 30
0.0
 10
67.706745
 20
250.246690
 30
0.0
 10
69.001593
 20
250.246690
 30
0.0
  0
LWPOLYLINE
  5
1b2
100
AcDbEntity
  8
Ebene_1
 62
7
100
AcDbPolyline
 90
3
 70
0
 10
65.660603
 20
251.611510
 30
0.0
 10
65.662566
 20
251.609547
 30
0.0
 10
65.664529
 20
251.607584
 30
0.0
  0
SPLINE
  5
1b3
100
AcDbEntity
  8
Ebene_1
 62
7
100
AcDbSpline
 70
8
 71
3
 72
8
 73
4
 74
0
 40
0
 40
0
 40
0
 40
0
 40
1
 40
1
 40
1
 40
1
 10
85.823003
 20
250.246690
 30
0.0
 10
87.078351
 20
250.246690
 30
0.0
 10
88.211184
 20
250.713373
 30
0.0
 10
89.123649
 20
251.601833
 30
0.0
  0
SPLINE
  5
1b4
100
AcDbEntity
  8
Ebene_1
 62
7
100
AcDbSpline
 70
8
 71
3
 72
8
 73
4
 74
0
 40
0
 40
0
 40
0
 40
0
 40
1
 40
1
 40
1
 40
1
 10
89.123649
 20
251.601833
 30
0.0
 10
90.041462
 20
252.495486
 30
0.0
 10
90.519049
 20
253.644861
 30
0.0
 10
90.519049
 20
254.942732
 30
0.0
  0
LWPOLYLINE
  5
1b5
100
AcDbEntity
  8
Ebene_1
 62
7
100
AcDbPolyline
 90
2
 70
0
 10
69.001593
 20
250.246690
 30
0.0
 10
85.823003
 20
250.246690
 30
0.0
  0
LWPOLYLINE
  5
1b6
100
AcDbEntity
  8
Ebene_1
 62
7
100
AcDbPolyline
 90
3
 70
0
 10
90.519049
 20
254.942732
 30
0.0
 10
90.519049
 20
255.433421
 30
0.0
 10
64.305459
 20
255.433513
 30
0.0
  0
SPLINE
  5
1b7
100
AcDbEntity
  8
Ebene_1
 62
7
100
AcDbSpline
 70
8
 71
3
 72
8
 73
4
 74
0
 40
0
 40
0
 40
0
 40
0
 40
1
 40
1
 40
1
 40
1
 10
101.680201
 20
238.612098
 30
0.0
 10
100.402065
 20
238.612098
 30
0.0
 10
99.256111
 20
238.133512
 30
0.0
 10
98.343136
 20
237.220537
 30
0.0
  0
SPLINE
  5
1b8
100
AcDbEntity
  8
Ebene_1
 62
7
100
AcDbSpline
 70
8
 71
3
 72
8
 73
4
 74
0
 40
0
 40
0
 40
0
 40
0
 40
1
 40
1
 40
1
 40
1
 10
98.343136
 20
237.220537
 30
0.0
 10
97.449887
 20
236.327283
 30
0.0
 10
96.984165
 20
235.191109
 30
0.0
 10
96.984165
 20
233.916056
 30
0.0
  0
LWPOLYLINE
  5
1b9
100
AcDbEntity
  8
Ebene_1
 62
7
100
AcDbPolyline
 90
5
 70
0
 10
96.984165
 20
255.433513
 30
0.0
 10
96.984165
 20
241.836074
 30
0.0
 10
118.010932
 20
241.836074
 30
0.0
 10
118.010932
 20
238.612098
 30
0.0
 10
101.680201
 20
238.612098
 30
0.0
  0
SPLINE
  5
1ba
100
AcDbEntity
  8
Ebene_1
 62
7
100
AcDbSpline
 70
8
 71
3
 72
8
 73
4
 74
0
 40
0
 40
0
 40
0
 40
0
 40
1
 40
1
 40
1
 40
1
 10
118.501621
 20
250.246782
 30
0.0
 10
119.756969
 20
250.246782
 30
0.0
 10
120.887878
 20
250.713465
 30
0.0
 10
121.800353
 20
251.601926
 30
0.0
  0
SPLINE
  5
1bb
100
AcDbEntity
  8
Ebene_1
 62
7
100
AcDbSpline
 70
8
 71
3
 72
8
 73
4
 74
0
 40
0
 40
0
 40
0
 40
0
 40
1
 40
1
 40
1
 40
1
 10
121.800353
 20
251.601926
 30
0.0
 10
122.718156
 20
252.495579
 30
0.0
 10
123.197657
 20
253.644954
 30
0.0
 10
123.197657
 20
254.942824
 30
0.0
  0
LWPOLYLINE
  5
1bc
100
AcDbEntity
  8
Ebene_1
 62
7
100
AcDbPolyline
 90
8
 70
0
 10
96.984165
 20
233.916056
 30
0.0
 10
96.984165
 20
233.425367
 30
0.0
 10
97.474853
 20
233.425367
 30
0.0
 10
123.197657
 20
233.425367
 30
0.0
 10
123.197657
 20
247.022806
 30
0.0
 10
102.170889
 20
247.022806
 30
0.0
 10
102.170889
 20
250.246782
 30
0.0
 10
118.501621
 20
250.246782
 30
0.0
  0
LWPOLYLINE
  5
1bd
100
AcDbEntity
  8
Ebene_1
 62
7
100
AcDbPolyline
 90
3
 70
0
 10
123.197657
 20
254.942824
 30
0.0
 10
123.197657
 20
255.433513
 30
0.0
 10
96.984165
 20
255.433513
 30
0.0
  0
SPLINE
  5
1be
100
AcDbEntity
  8
Ebene_1
 62
7
100
AcDbSpline
 70
8
 71
3
 72
8
 73
4
 74
0
 40
0
 40
0
 40
0
 40
0
 40
1
 40
1
 40
1
 40
1
 10
151.178403
 20
233.425367
 30
0.0
 10
152.433751
 20
233.425367
 30
0.0
 10
153.566584
 20
233.892050
 30
0.0
 10
154.479049
 20
234.780511
 30
0.0
  0
SPLINE
  5
1bf
100
AcDbEntity
  8
Ebene_1
 62
7
100
AcDbSpline
 70
8
 71
3
 72
8
 73
4
 74
0
 40
0
 40
0
 40
0
 40
0
 40
1
 40
1
 40
1
 40
1
 10
154.479049
 20
234.780511
 30
0.0
 10
155.396852
 20
235.674164
 30
0.0
 10
155.874449
 20
236.823539
 30
0.0
 10
155.874449
 20
238.121409
 30
0.0
  0
LWPOLYLINE
  5
1c0
100
AcDbEntity
  8
Ebene_1
 62
7
100
AcDbPolyline
 90
4
 70
0
 10
129.660947
 20
255.433513
 30
0.0
 10
129.660947
 20
233.425367
 30
0.0
 10
130.151636
 20
233.425367
 30
0.0
 10
151.178403
 20
233.425367
 30
0.0
  0
SPLINE
  5
1c1
100
AcDbEntity
  8
Ebene_1
 62
7
100
AcDbSpline
 70
8
 71
3
 72
8
 73
4
 74
0
 40
0
 40
0
 40
0
 40
0
 40
1
 40
1
 40
1
 40
1
 10
47.934768
 20
290.495995
 30
0.0
 10
27.110608
 20
290.495995
 30
0.0
 10
10.149608
 20
273.561404
 30
0.0
 10
10.149608
 20
252.757714
 30
0.0
  0
LWPOLYLINE
  5
1c2
100
AcDbEntity
  8
Ebene_1
 62
7
100
AcDbPolyline
 90
5
 70
0
 10
155.874449
 20
238.121409
 30
0.0
 10
155.874449
 20
238.612098
 30
0.0
 10
134.847682
 20
238.612098
 30
0.0
 10
134.847682
 20
255.433513
 30
0.0
 10
129.660947
 20
255.433513
 30
0.0
  0
SPLINE
  5
1c3
100
AcDbEntity
  8
Ebene_1
 62
7
100
AcDbSpline
 70
8
 71
3
 72
8
 73
4
 74
0
 40
0
 40
0
 40
0
 40
0
 40
1
 40
1
 40
1
 40
1
 10
10.149608
 20
46.820220
 30
0.0
 10
10.149608
 20
26.016530
 30
0.0
 10
27.110608
 20
9.081940
 30
0.0
 10
47.934768
 20
9.081940
 30
0.0
  0
LWPOLYLINE
  5
1c4
100
AcDbEntity
  8
Ebene_1
 62
7
100
AcDbPolyline
 90
2
 70
0
 10
10.149608
 20
252.757714
 30
0.0
 10
10.149608
 20
46.820220
 30
0.0
  0
SPLINE
  5
1c5
100
AcDbEntity
  8
Ebene_1
 62
7
100
AcDbSpline
 70
8
 71
3
 72
8
 73
4
 74
0
 40
0
 40
0
 40
0
 40
0
 40
1
 40
1
 40
1
 40
1
 10
171.665230
 20
9.081940
 30
0.0
 10
192.489390
 20
9.081940
 30
0.0
 10
209.450390
 20
26.016530
 30
0.0
 10
209.450390
 20
46.820220
 30
0.0
  0
LWPOLYLINE
  5
1c6
100
AcDbEntity
  8
Ebene_1
 62
7
100
AcDbPolyline
 90
2
 70
0
 10
47.934768
 20
9.081940
 30
0.0
 10
171.665230
 20
9.081940
 30
0.0
  0
SPLINE
  5
1c7
100
AcDbEntity
  8
Ebene_1
 62
7
100
AcDbSpline
 70
8
 71
3
 72
8
 73
4
 74
0
 40
0
 40
0
 40
0
 40
0
 40
1
 40
1
 40
1
 40
1
 10
209.450390
 20
252.757714
 30
0.0
 10
209.450390
 20
273.561404
 30
0.0
 10
192.489390
 20
290.495995
 30
0.0
 10
171.665230
 20
290.495995
 30
0.0
  0
LWPOLYLINE
  5
1c8
100
AcDbEntity
  8
Ebene_1
 62
7
100
AcDbPolyline
 90
2
 70
0
 10
209.450390
 20
46.820220
 30
0.0
 10
209.450390
 20
252.757714
 30
0.0
  0
LWPOLYLINE
  5
1c9
100
AcDbEntity
  8
Ebene_1
 62
7
100
AcDbPolyline
 90
2
 70
0
 10
171.665230
 20
290.495995
 30
0.0
 10
47.934768
 20
290.495995
 30
0.0
  0
ENDSEC
  0
SECTION
  2
OBJECTS
  0
DICTIONARY
  5
C
330
0
100
AcDbDictionary
  3
ACAD_GROUP
350
D
  3
ACAD_MLINESTYLE
350
17
  0
DICTIONARY
  5
D
330
C
100
AcDbDictionary
  0
DICTIONARY
  5
1A
330
C
100
AcDbDictionary
  0
DICTIONARY
  5
17
330
C
100
AcDbDictionary
  3
STANDARD
350
18
  0
DICTIONARY
  5
19
330
C
100
AcDbDictionary
  0
ENDSEC
  0
EOF
