  0
SECTION
  2
HEADER
  9
$ACADVER
  1
AC1014
  9
$HANDSEED
  5
FFFF
  9
$MEASUREMENT
 70
     1
  0
ENDSEC
  0
SECTION
  2
TABLES
  0
TABLE
  2
VPORT
  5
8
330
0
100
AcDbSymbolTable
 70
     4
  0
VPORT
  5
2E
330
8
100
AcDbSymbolTableRecord
100
AcDbViewportTableRecord
  2
*ACTIVE
 70
     0
 10
0.0
 20
0.0
 11
1.0
 21
1.0
 12
210.0
 22
148.5
 13
0.0
 23
0.0
 14
10.0
 24
10.0
 15
10.0
 25
10.0
 16
0.0
 26
0.0
 36
1.0
 17
0.0
 27
0.0
 37
0.0
 40
341.0
 41
1.24
 42
50.0
 43
0.0
 44
0.0
 50
0.0
 51
0.0
 71
     0
 72
   100
 73
     1
 74
     3
 75
     0
 76
     0
 77
     0
 78
     0
  0
ENDTAB
  0
TABLE
  2
LTYPE
  5
5
330
0
100
AcDbSymbolTable
 70
     1
  0
LTYPE
  5
14
330
5
100
AcDbSymbolTableRecord
100
AcDbLinetypeTableRecord
  2
BYBLOCK
 70
     0
  3

 72
    65
 73
     0
 40
0.0
  0
LTYPE
  5
15
330
5
100
AcDbSymbolTableRecord
100
AcDbLinetypeTableRecord
  2
BYLAYER
 70
     0
  3

 72
    65
 73
     0
 40
0.0
  0
LTYPE
  5
16
330
5
100
AcDbSymbolTableRecord
100
AcDbLinetypeTableRecord
  2
CONTINUOUS
 70
     0
  3
Solid line
 72
    65
 73
     0
 40
0.0
  0
ENDTAB
  0
TABLE
  2
LAYER
  5
2
100
AcDbSymbolTable
 70
2
  0
LAYER
  5
50
100
AcDbSymbolTableRecord
100
AcDbLayerTableRecord
  2
0
 70
0
  6
CONTINUOUS
  0
LAYER
  5
51
100
AcDbSymbolTableRecord
100
AcDbLayerTableRecord
  2
Ebene_1
 70
0
  6
CONTINUOUS
  0
ENDTAB
  0
TABLE
  2
STYLE
  5
3
330
0
100
AcDbSymbolTable
 70
     1
  0
STYLE
  5
11
330
3
100
AcDbSymbolTableRecord
100
AcDbTextStyleTableRecord
  2
STANDARD
 70
     0
 40
0.0
 41
1.0
 50
0.0
 71
     0
 42
2.5
  3
txt
  4

  0
ENDTAB
  0
TABLE
  2
VIEW
  5
6
330
0
100
AcDbSymbolTable
 70
     0
  0
ENDTAB
  0
TABLE
  2
UCS
  5
7
330
0
100
AcDbSymbolTable
 70
     0
  0
ENDTAB
  0
TABLE
  2
APPID
  5
9
330
0
100
AcDbSymbolTable
 70
     2
  0
APPID
  5
12
330
9
100
AcDbSymbolTableRecord
100
AcDbRegAppTableRecord
  2
ACAD
 70
     0
  0
ENDTAB
  0
TABLE
  2
DIMSTYLE
  5
A
330
0
100
AcDbSymbolTable
 70
     1
  0
DIMSTYLE
105
27
330
A
100
AcDbSymbolTableRecord
100
AcDbDimStyleTableRecord
  2
ISO-25
 70
     0
  3

  4

  5

  6

  7

 40
1.0
 41
2.5
 42
0.625
 43
3.75
 44
1.25
 45
0.0
 46
0.0
 47
0.0
 48
0.0
140
2.5
141
2.5
142
0.0
143
0.03937007874016
144
1.0
145
0.0
146
1.0
147
0.625
 71
     0
 72
     0
 73
     0
 74
     0
 75
     0
 76
     0
 77
     1
 78
     8
170
     0
171
     3
172
     1
173
     0
174
     0
175
     0
176
     0
177
     0
178
     0
270
     2
271
     2
272
     2
273
     2
274
     3
340
11
275
     0
280
     0
281
     0
282
     0
283
     0
284
     8
285
     0
286
     0
287
     3
288
     0
  0
ENDTAB
  0
TABLE
  2
BLOCK_RECORD
  5
1
330
0
100
AcDbSymbolTable
 70
     1
  0
BLOCK_RECORD
  5
1F
330
1
100
AcDbSymbolTableRecord
100
AcDbBlockTableRecord
  2
*MODEL_SPACE
  0
BLOCK_RECORD
  5
1B
330
1
100
AcDbSymbolTableRecord
100
AcDbBlockTableRecord
  2
*PAPER_SPACE
  0
ENDTAB
  0
ENDSEC
  0
SECTION
  2
BLOCKS
  0
BLOCK
  5
20
330
1F
100
AcDbEntity
  8
0
100
AcDbBlockBegin
  2
*MODEL_SPACE
 70
     0
 10
0.0
 20
0.0
 30
0.0
  3
*MODEL_SPACE
  1

  0
ENDBLK
  5
21
330
1F
100
AcDbEntity
  8
0
100
AcDbBlockEnd
  0
BLOCK
  5
1C
330
1B
100
AcDbEntity
 67
     1
  8
0
100
AcDbBlockBegin
  2
*PAPER_SPACE
  1

  0
ENDBLK
  5
1D
330
1B
100
AcDbEntity
 67
     1
  8
0
100
AcDbBlockEnd
  0
ENDSEC
  0
SECTION
  2
ENTITIES
  0
SPLINE
  5
100
100
AcDbEntity
  8
Ebene_1
 62
7
100
AcDbSpline
 70
8
 71
3
 72
8
 73
4
 74
0
 40
0
 40
0
 40
0
 40
0
 40
1
 40
1
 40
1
 40
1
 10
50.619770
 20
283.388204
 30
0.0
 10
31.239646
 20
283.388204
 30
0.0
 10
15.475775
 20
267.647292
 30
0.0
 10
15.475775
 20
248.288217
 30
0.0
  0
SPLINE
  5
101
100
AcDbEntity
  8
Ebene_1
 62
7
100
AcDbSpline
 70
8
 71
3
 72
8
 73
4
 74
0
 40
0
 40
0
 40
0
 40
0
 40
1
 40
1
 40
1
 40
1
 10
15.475775
 20
51.287870
 30
0.0
 10
15.475775
 20
31.928780
 30
0.0
 10
31.239646
 20
16.189720
 30
0.0
 10
50.619770
 20
16.189720
 30
0.0
  0
LWPOLYLINE
  5
102
100
AcDbEntity
  8
Ebene_1
 62
7
100
AcDbPolyline
 90
2
 70
0
 10
15.475775
 20
248.288217
 30
0.0
 10
15.475775
 20
51.287870
 30
0.0
  0
SPLINE
  5
103
100
AcDbEntity
  8
Ebene_1
 62
7
100
AcDbSpline
 70
8
 71
3
 72
8
 73
4
 74
0
 40
0
 40
0
 40
0
 40
0
 40
1
 40
1
 40
1
 40
1
 10
168.980230
 20
16.189720
 30
0.0
 10
188.360350
 20
16.189720
 30
0.0
 10
204.124230
 20
31.928780
 30
0.0
 10
204.124230
 20
51.287870
 30
0.0
  0
LWPOLYLINE
  5
104
100
AcDbEntity
  8
Ebene_1
 62
7
100
AcDbPolyline
 90
2
 70
0
 10
50.619770
 20
16.189720
 30
0.0
 10
168.980230
 20
16.189720
 30
0.0
  0
SPLINE
  5
105
100
AcDbEntity
  8
Ebene_1
 62
7
100
AcDbSpline
 70
8
 71
3
 72
8
 73
4
 74
0
 40
0
 40
0
 40
0
 40
0
 40
1
 40
1
 40
1
 40
1
 10
204.124230
 20
248.288217
 30
0.0
 10
204.124230
 20
267.647292
 30
0.0
 10
188.360350
 20
283.388204
 30
0.0
 10
168.980230
 20
283.388204
 30
0.0
  0
LWPOLYLINE
  5
106
100
AcDbEntity
  8
Ebene_1
 62
7
100
AcDbPolyline
 90
2
 70
0
 10
204.124230
 20
51.287870
 30
0.0
 10
204.124230
 20
248.288217
 30
0.0
  0
SPLINE
  5
107
100
AcDbEntity
  8
Ebene_1
 62
7
100
AcDbSpline
 70
8
 71
3
 72
8
 73
4
 74
0
 40
0
 40
0
 40
0
 40
0
 40
1
 40
1
 40
1
 40
1
 10
310.000000
 20
100.000000
 30
0.0
 10
309.807980
 20
101.012710
 30
0.0
 10
293.285110
 20
193.259190
 30
0.0
 10
293.285110
 20
193.318520
 30
0.0
  0
SPLINE
  5
108
100
AcDbEntity
  8
Ebene_1
 62
7
100
AcDbSpline
 70
8
 71
3
 72
8
 73
4
 74
0
 40
0
 40
0
 40
0
 40
0
 40
1
 40
1
 40
1
 40
1
 10
293.285110
 20
193.318520
 30
0.0
 10
293.285110
 20
193.402720
 30
0.0
 10
288.404960
 20
193.279420
 30
0.0
 10
285.951960
 20
193.133090
 30
0.0
  0
SPLINE
  5
109
100
AcDbEntity
  8
Ebene_1
 62
7
100
AcDbSpline
 70
8
 71
3
 72
8
 73
4
 74
0
 40
0
 40
0
 40
0
 40
0
 40
1
 40
1
 40
1
 40
1
 10
285.951960
 20
193.133090
 30
0.0
 10
278.651960
 20
192.697750
 30
0.0
 10
274.897360
 20
191.419390
 30
0.0
 10
273.082670
 20
188.751360
 30
0.0
  0
SPLINE
  5
10a
100
AcDbEntity
  8
Ebene_1
 62
7
100
AcDbSpline
 70
8
 71
3
 72
8
 73
4
 74
0
 40
0
 40
0
 40
0
 40
0
 40
1
 40
1
 40
1
 40
1
 10
273.082670
 20
188.751360
 30
0.0
 10
272.413600
 20
187.767680
 30
0.0
 10
272.134290
 20
187.066280
 30
0.0
 10
271.842270
 20
185.636970
 30
0.0
  0
SPLINE
  5
10b
100
AcDbEntity
  8
Ebene_1
 62
7
100
AcDbSpline
 70
8
 71
3
 72
8
 73
4
 74
0
 40
0
 40
0
 40
0
 40
0
 40
1
 40
1
 40
1
 40
1
 10
271.842270
 20
185.636970
 30
0.0
 10
271.723640
 20
185.056210
 30
0.0
 10
271.604930
 20
184.559420
 30
0.0
 10
271.578490
 20
184.532980
 30
0.0
  0
SPLINE
  5
10c
100
AcDbEntity
  8
Ebene_1
 62
7
100
AcDbSpline
 70
8
 71
3
 72
8
 73
4
 74
0
 40
0
 40
0
 40
0
 40
0
 40
1
 40
1
 40
1
 40
1
 10
271.578490
 20
184.532980
 30
0.0
 10
271.489590
 20
184.444080
 30
0.0
 10
268.455900
 20
185.885600
 30
0.0
 10
266.935910
 20
186.738950
 30
0.0
  0
SPLINE
  5
10d
100
AcDbEntity
  8
Ebene_1
 62
7
100
AcDbSpline
 70
8
 71
3
 72
8
 73
4
 74
0
 40
0
 40
0
 40
0
 40
0
 40
1
 40
1
 40
1
 40
1
 10
266.935910
 20
186.738950
 30
0.0
 10
262.389580
 20
189.291340
 30
0.0
 10
258.820350
 20
192.246600
 30
0.0
 10
256.392290
 20
195.468890
 30
0.0
  0
SPLINE
  5
10e
100
AcDbEntity
  8
Ebene_1
 62
7
100
AcDbSpline
 70
8
 71
3
 72
8
 73
4
 74
0
 40
0
 40
0
 40
0
 40
0
 40
1
 40
1
 40
1
 40
1
 10
256.392290
 20
195.468890
 30
0.0
 10
256.035570
 20
195.942290
 30
0.0
 10
255.743720
 20
196.368370
 30
0.0
 10
255.743720
 20
196.415720
 30
0.0
  0
SPLINE
  5
10f
100
AcDbEntity
  8
Ebene_1
 62
7
100
AcDbSpline
 70
8
 71
3
 72
8
 73
4
 74
0
 40
0
 40
0
 40
0
 40
0
 40
1
 40
1
 40
1
 40
1
 10
255.743720
 20
196.415720
 30
0.0
 10
255.743720
 20
196.463120
 30
0.0
 10
255.928420
 20
196.578280
 30
0.0
 10
256.154150
 20
196.671700
 30
0.0
  0
SPLINE
  5
110
100
AcDbEntity
  8
Ebene_1
 62
7
100
AcDbSpline
 70
8
 71
3
 72
8
 73
4
 74
0
 40
0
 40
0
 40
0
 40
0
 40
1
 40
1
 40
1
 40
1
 10
256.154150
 20
196.671700
 30
0.0
 10
256.379880
 20
196.765100
 30
0.0
 10
257.352640
 20
197.184380
 30
0.0
 10
258.315790
 20
197.603400
 30
0.0
  0
SPLINE
  5
111
100
AcDbEntity
  8
Ebene_1
 62
7
100
AcDbSpline
 70
8
 71
3
 72
8
 73
4
 74
0
 40
0
 40
0
 40
0
 40
0
 40
1
 40
1
 40
1
 40
1
 10
258.315790
 20
197.603400
 30
0.0
 10
269.351180
 20
202.404272
 30
0.0
 10
283.695550
 20
205.759992
 30
0.0
 10
296.568610
 20
206.552260
 30
0.0
  0
LWPOLYLINE
  5
112
100
AcDbEntity
  8
Ebene_1
 62
7
100
AcDbPolyline
 90
2
 70
0
 10
168.980230
 20
283.388204
 30
0.0
 10
50.619770
 20
283.388204
 30
0.0
  0
SPLINE
  5
113
100
AcDbEntity
  8
Ebene_1
 62
7
100
AcDbSpline
 70
8
 71
3
 72
8
 73
4
 74
0
 40
0
 40
0
 40
0
 40
0
 40
1
 40
1
 40
1
 40
1
 10
303.886340
 20
199.106430
 30
0.0
 10
307.279010
 20
194.972320
 30
0.0
 10
310.092390
 20
191.631280
 30
0.0
 10
310.138250
 20
191.681900
 30
0.0
  0
SPLINE
  5
114
100
AcDbEntity
  8
Ebene_1
 62
7
100
AcDbSpline
 70
8
 71
3
 72
8
 73
4
 74
0
 40
0
 40
0
 40
0
 40
0
 40
1
 40
1
 40
1
 40
1
 10
310.138250
 20
191.681900
 30
0.0
 10
310.184050
 20
191.732400
 30
0.0
 10
312.937700
 20
195.083770
 30
0.0
 10
316.257280
 20
199.129110
 30
0.0
  0
SPLINE
  5
115
100
AcDbEntity
  8
Ebene_1
 62
7
100
AcDbSpline
 70
8
 71
3
 72
8
 73
4
 74
0
 40
0
 40
0
 40
0
 40
0
 40
1
 40
1
 40
1
 40
1
 10
316.257280
 20
199.129110
 30
0.0
 10
319.576880
 20
203.174442
 30
0.0
 10
322.343620
 20
206.515602
 30
0.0
 10
322.405570
 20
206.553906
 30
0.0
  0
SPLINE
  5
116
100
AcDbEntity
  8
Ebene_1
 62
7
100
AcDbSpline
 70
8
 71
3
 72
8
 73
4
 74
0
 40
0
 40
0
 40
0
 40
0
 40
1
 40
1
 40
1
 40
1
 10
322.405570
 20
206.553906
 30
0.0
 10
322.534850
 20
206.633796
 30
0.0
 10
325.295630
 20
206.455736
 30
0.0
 10
327.707160
 20
206.211973
 30
0.0
  0
SPLINE
  5
117
100
AcDbEntity
  8
Ebene_1
 62
7
100
AcDbSpline
 70
8
 71
3
 72
8
 73
4
 74
0
 40
0
 40
0
 40
0
 40
0
 40
1
 40
1
 40
1
 40
1
 10
327.707160
 20
206.211973
 30
0.0
 10
337.876960
 20
205.183980
 30
0.0
 10
348.090950
 20
202.830692
 30
0.0
 10
357.368140
 20
199.378100
 30
0.0
  0
SPLINE
  5
118
100
AcDbEntity
  8
Ebene_1
 62
7
100
AcDbSpline
 70
8
 71
3
 72
8
 73
4
 74
0
 40
0
 40
0
 40
0
 40
0
 40
1
 40
1
 40
1
 40
1
 10
357.368140
 20
199.378100
 30
0.0
 10
359.557600
 20
198.563270
 30
0.0
 10
363.079460
 20
197.108940
 30
0.0
 10
363.997980
 20
196.640350
 30
0.0
  0
LWPOLYLINE
  5
119
100
AcDbEntity
  8
Ebene_1
 62
7
100
AcDbPolyline
 90
3
 70
0
 10
296.568610
 20
206.552260
 30
0.0
 10
297.717830
 20
206.622990
 30
0.0
 10
303.886340
 20
199.106430
 30
0.0
  0
SPLINE
  5
11a
100
AcDbEntity
  8
Ebene_1
 62
7
100
AcDbSpline
 70
8
 71
3
 72
8
 73
4
 74
0
 40
0
 40
0
 40
0
 40
0
 40
1
 40
1
 40
1
 40
1
 10
363.873580
 20
195.660410
 30
0.0
 10
361.722480
 20
192.702920
 30
0.0
 10
358.350220
 20
189.796540
 30
0.0
 10
354.174020
 20
187.300840
 30
0.0
  0
SPLINE
  5
11b
100
AcDbEntity
  8
Ebene_1
 62
7
100
AcDbSpline
 70
8
 71
3
 72
8
 73
4
 74
0
 40
0
 40
0
 40
0
 40
0
 40
1
 40
1
 40
1
 40
1
 10
354.174020
 20
187.300840
 30
0.0
 10
353.025480
 20
186.614470
 30
0.0
 10
349.223430
 20
184.706170
 30
0.0
 10
348.705030
 20
184.555860
 30
0.0
  0
SPLINE
  5
11c
100
AcDbEntity
  8
Ebene_1
 62
7
100
AcDbSpline
 70
8
 71
3
 72
8
 73
4
 74
0
 40
0
 40
0
 40
0
 40
0
 40
1
 40
1
 40
1
 40
1
 10
348.705030
 20
184.555860
 30
0.0
 10
348.491100
 20
184.493760
 30
0.0
 10
348.462420
 20
184.540360
 30
0.0
 10
348.391250
 20
185.066160
 30
0.0
  0
SPLINE
  5
11d
100
AcDbEntity
  8
Ebene_1
 62
7
100
AcDbSpline
 70
8
 71
3
 72
8
 73
4
 74
0
 40
0
 40
0
 40
0
 40
0
 40
1
 40
1
 40
1
 40
1
 10
348.391250
 20
185.066160
 30
0.0
 10
348.348150
 20
185.384370
 30
0.0
 10
348.192570
 20
186.062050
 30
0.0
 10
348.045480
 20
186.572110
 30
0.0
  0
SPLINE
  5
11e
100
AcDbEntity
  8
Ebene_1
 62
7
100
AcDbSpline
 70
8
 71
3
 72
8
 73
4
 74
0
 40
0
 40
0
 40
0
 40
0
 40
1
 40
1
 40
1
 40
1
 10
348.045480
 20
186.572110
 30
0.0
 10
346.887210
 20
190.588750
 30
0.0
 10
343.464930
 20
192.372320
 30
0.0
 10
335.642300
 20
193.036160
 30
0.0
  0
SPLINE
  5
11f
100
AcDbEntity
  8
Ebene_1
 62
7
100
AcDbSpline
 70
8
 71
3
 72
8
 73
4
 74
0
 40
0
 40
0
 40
0
 40
0
 40
1
 40
1
 40
1
 40
1
 10
335.642300
 20
193.036160
 30
0.0
 10
333.939000
 20
193.180700
 30
0.0
 10
326.855100
 20
193.366200
 30
0.0
 10
326.766100
 20
193.268590
 30
0.0
  0
SPLINE
  5
120
100
AcDbEntity
  8
Ebene_1
 62
7
100
AcDbSpline
 70
8
 71
3
 72
8
 73
4
 74
0
 40
0
 40
0
 40
0
 40
0
 40
1
 40
1
 40
1
 40
1
 10
326.766100
 20
193.268590
 30
0.0
 10
326.720600
 20
193.218690
 30
0.0
 10
313.045410
 20
116.505120
 30
0.0
 10
310.159340
 20
100.109440
 30
0.0
  0
LWPOLYLINE
  5
121
100
AcDbEntity
  8
Ebene_1
 62
7
100
AcDbPolyline
 90
3
 70
0
 10
363.997980
 20
196.640350
 30
0.0
 10
364.427090
 20
196.421430
 30
0.0
 10
363.873580
 20
195.660410
 30
0.0
  0
SPLINE
  5
122
100
AcDbEntity
  8
Ebene_1
 62
7
100
AcDbSpline
 70
8
 71
3
 72
8
 73
4
 74
0
 40
0
 40
0
 40
0
 40
0
 40
1
 40
1
 40
1
 40
1
 10
364.427680
 20
200.554162
 30
0.0
 10
351.355640
 20
206.067222
 30
0.0
 10
336.504260
 20
209.575375
 30
0.0
 10
321.687410
 20
210.650135
 30
0.0
  0
SPLINE
  5
123
100
AcDbEntity
  8
Ebene_1
 62
7
100
AcDbSpline
 70
8
 71
3
 72
8
 73
4
 74
0
 40
0
 40
0
 40
0
 40
0
 40
1
 40
1
 40
1
 40
1
 10
321.687410
 20
210.650135
 30
0.0
 10
316.927080
 20
210.995430
 30
0.0
 10
307.037510
 20
211.108507
 30
0.0
 10
302.248690
 20
210.872393
 30
0.0
  0
SPLINE
  5
124
100
AcDbEntity
  8
Ebene_1
 62
7
100
AcDbSpline
 70
8
 71
3
 72
8
 73
4
 74
0
 40
0
 40
0
 40
0
 40
0
 40
1
 40
1
 40
1
 40
1
 10
302.248690
 20
210.872393
 30
0.0
 10
285.653250
 20
210.054149
 30
0.0
 10
270.385130
 20
206.672099
 30
0.0
 10
255.711580
 20
200.563942
 30
0.0
  0
SPLINE
  5
125
100
AcDbEntity
  8
Ebene_1
 62
7
100
AcDbSpline
 70
8
 71
3
 72
8
 73
4
 74
0
 40
0
 40
0
 40
0
 40
0
 40
1
 40
1
 40
1
 40
1
 10
255.711580
 20
200.563942
 30
0.0
 10
254.700620
 20
200.143110
 30
0.0
 10
253.810560
 20
199.822960
 30
0.0
 10
253.733630
 20
199.852470
 30
0.0
  0
SPLINE
  5
126
100
AcDbEntity
  8
Ebene_1
 62
7
100
AcDbSpline
 70
8
 71
3
 72
8
 73
4
 74
0
 40
0
 40
0
 40
0
 40
0
 40
1
 40
1
 40
1
 40
1
 10
253.733630
 20
199.852470
 30
0.0
 10
253.656730
 20
199.882070
 30
0.0
 10
253.023770
 20
201.056182
 30
0.0
 10
252.327140
 20
202.461792
 30
0.0
  0
SPLINE
  5
127
100
AcDbEntity
  8
Ebene_1
 62
7
100
AcDbSpline
 70
8
 71
3
 72
8
 73
4
 74
0
 40
0
 40
0
 40
0
 40
0
 40
1
 40
1
 40
1
 40
1
 10
252.327140
 20
202.461792
 30
0.0
 10
251.023760
 20
205.091617
 30
0.0
 10
250.416350
 20
206.457748
 30
0.0
 10
250.509200
 20
206.550593
 30
0.0
  0
SPLINE
  5
128
100
AcDbEntity
  8
Ebene_1
 62
7
100
AcDbSpline
 70
8
 71
3
 72
8
 73
4
 74
0
 40
0
 40
0
 40
0
 40
0
 40
1
 40
1
 40
1
 40
1
 10
250.509200
 20
206.550593
 30
0.0
 10
250.604200
 20
206.645553
 30
0.0
 10
254.430980
 20
208.091272
 30
0.0
 10
256.674040
 20
208.879583
 30
0.0
  0
SPLINE
  5
129
100
AcDbEntity
  8
Ebene_1
 62
7
100
AcDbSpline
 70
8
 71
3
 72
8
 73
4
 74
0
 40
0
 40
0
 40
0
 40
0
 40
1
 40
1
 40
1
 40
1
 10
256.674040
 20
208.879583
 30
0.0
 10
277.701920
 20
216.269740
 30
0.0
 10
300.159140
 20
219.332227
 30
0.0
 10
321.413790
 20
217.708129
 30
0.0
  0
SPLINE
  5
12a
100
AcDbEntity
  8
Ebene_1
 62
7
100
AcDbSpline
 70
8
 71
3
 72
8
 73
4
 74
0
 40
0
 40
0
 40
0
 40
0
 40
1
 40
1
 40
1
 40
1
 10
321.413790
 20
217.708129
 30
0.0
 10
337.310980
 20
216.493398
 30
0.0
 10
352.293330
 20
213.140058
 30
0.0
 10
367.544350
 20
207.383206
 30
0.0
  0
SPLINE
  5
12b
100
AcDbEntity
  8
Ebene_1
 62
7
100
AcDbSpline
 70
8
 71
3
 72
8
 73
4
 74
0
 40
0
 40
0
 40
0
 40
0
 40
1
 40
1
 40
1
 40
1
 10
367.544350
 20
207.383206
 30
0.0
 10
368.679830
 20
206.954593
 30
0.0
 10
369.628380
 20
206.584397
 30
0.0
 10
369.652220
 20
206.560547
 30
0.0
  0
SPLINE
  5
12c
100
AcDbEntity
  8
Ebene_1
 62
7
100
AcDbSpline
 70
8
 71
3
 72
8
 73
4
 74
0
 40
0
 40
0
 40
0
 40
0
 40
1
 40
1
 40
1
 40
1
 10
369.652220
 20
206.560547
 30
0.0
 10
369.776890
 20
206.435884
 30
0.0
 10
366.727410
 20
200.069940
 30
0.0
 10
366.418430
 20
199.809820
 30
0.0
  0
SPLINE
  5
12d
100
AcDbEntity
  8
Ebene_1
 62
7
100
AcDbSpline
 70
8
 71
3
 72
8
 73
4
 74
0
 40
0
 40
0
 40
0
 40
0
 40
1
 40
1
 40
1
 40
1
 10
366.418430
 20
199.809820
 30
0.0
 10
366.377030
 20
199.774920
 30
0.0
 10
365.481120
 20
200.109870
 30
0.0
 10
364.427680
 20
200.554162
 30
0.0
  0
LWPOLYLINE
  5
12e
100
AcDbEntity
  8
Ebene_1
 62
7
100
AcDbPolyline
 90
3
 70
0
 10
310.159340
 20
100.109440
 30
0.0
 10
310.072640
 20
99.616910
 30
0.0
 10
310.000000
 20
100.000000
 30
0.0
  0
LWPOLYLINE
  5
12f
100
AcDbEntity
  8
Ebene_1
 62
7
100
AcDbPolyline
 90
1
 70
1
 10
364.427680
 20
200.554162
 30
0.0
  0
LWPOLYLINE
  5
130
100
AcDbEntity
  8
Ebene_1
 62
7
100
AcDbPolyline
 90
9
 70
1
 10
352.657102
 20
239.647650
 30
0.0
 10
352.657102
 20
228.566628
 30
0.0
 10
353.056981
 20
228.566628
 30
0.0
 10
356.883943
 20
228.566628
 30
0.0
 10
356.883943
 20
235.420804
 30
0.0
 10
369.792541
 20
235.420804
 30
0.0
 10
369.792541
 20
228.566628
 30
0.0
 10
374.019390
 20
228.566628
 30
0.0
 10
374.019390
 20
239.647650
 30
0.0
  0
SPLINE
  5
131
100
AcDbEntity
  8
Ebene_1
 62
7
100
AcDbSpline
 70
8
 71
3
 72
8
 73
4
 74
0
 40
0
 40
0
 40
0
 40
0
 40
1
 40
1
 40
1
 40
1
 10
352.657102
 20
246.101947
 30
0.0
 10
352.657102
 20
245.062862
 30
0.0
 10
353.034636
 20
244.132006
 30
0.0
 10
353.759896
 20
243.387144
 30
0.0
  0
LWPOLYLINE
  5
132
100
AcDbEntity
  8
Ebene_1
 62
7
100
AcDbPolyline
 90
2
 70
0
 10
352.657102
 20
246.501826
 30
0.0
 10
352.657102
 20
246.101947
 30
0.0
  0
SPLINE
  5
133
100
AcDbEntity
  8
Ebene_1
 62
7
100
AcDbSpline
 70
8
 71
3
 72
8
 73
4
 74
0
 40
0
 40
0
 40
0
 40
0
 40
1
 40
1
 40
1
 40
1
 10
353.764695
 20
243.383945
 30
0.0
 10
354.493914
 20
242.654729
 30
0.0
 10
355.428975
 20
242.274905
 30
0.0
 10
356.484184
 20
242.274905
 30
0.0
  0
LWPOLYLINE
  5
134
100
AcDbEntity
  8
Ebene_1
 62
7
100
AcDbPolyline
 90
3
 70
0
 10
353.759896
 20
243.387144
 30
0.0
 10
353.763095
 20
243.385544
 30
0.0
 10
353.764695
 20
243.383945
 30
0.0
  0
SPLINE
  5
135
100
AcDbEntity
  8
Ebene_1
 62
7
100
AcDbSpline
 70
8
 71
3
 72
8
 73
4
 74
0
 40
0
 40
0
 40
0
 40
0
 40
1
 40
1
 40
1
 40
1
 10
370.192540
 20
242.274905
 30
0.0
 10
371.215566
 20
242.274905
 30
0.0
 10
372.137183
 20
242.655221
 30
0.0
 10
372.880790
 20
243.379258
 30
0.0
  0
SPLINE
  5
136
100
AcDbEntity
  8
Ebene_1
 62
7
100
AcDbSpline
 70
8
 71
3
 72
8
 73
4
 74
0
 40
0
 40
0
 40
0
 40
0
 40
1
 40
1
 40
1
 40
1
 10
372.880790
 20
243.379258
 30
0.0
 10
373.628740
 20
244.107527
 30
0.0
 10
374.019510
 20
245.044193
 30
0.0
 10
374.019510
 20
246.101872
 30
0.0
  0
LWPOLYLINE
  5
137
100
AcDbEntity
  8
Ebene_1
 62
7
100
AcDbPolyline
 90
2
 70
0
 10
356.484184
 20
242.274905
 30
0.0
 10
370.192540
 20
242.274905
 30
0.0
  0
LWPOLYLINE
  5
138
100
AcDbEntity
  8
Ebene_1
 62
7
100
AcDbPolyline
 90
3
 70
0
 10
374.019510
 20
246.101872
 30
0.0
 10
374.019510
 20
246.501751
 30
0.0
 10
352.657102
 20
246.501826
 30
0.0
  0
SPLINE
  5
139
100
AcDbEntity
  8
Ebene_1
 62
7
100
AcDbSpline
 70
8
 71
3
 72
8
 73
4
 74
0
 40
0
 40
0
 40
0
 40
0
 40
1
 40
1
 40
1
 40
1
 10
246.136206
 20
246.101947
 30
0.0
 10
246.136206
 20
245.062862
 30
0.0
 10
246.515299
 20
244.132006
 30
0.0
 10
247.240560
 20
243.387144
 30
0.0
  0
LWPOLYLINE
  5
13a
100
AcDbEntity
  8
Ebene_1
 62
7
100
AcDbPolyline
 90
2
 70
0
 10
246.136206
 20
246.501826
 30
0.0
 10
246.136206
 20
246.101947
 30
0.0
  0
SPLINE
  5
13b
100
AcDbEntity
  8
Ebene_1
 62
7
100
AcDbSpline
 70
8
 71
3
 72
8
 73
4
 74
0
 40
0
 40
0
 40
0
 40
0
 40
1
 40
1
 40
1
 40
1
 10
247.243759
 20
243.383945
 30
0.0
 10
247.972978
 20
242.654729
 30
0.0
 10
248.908039
 20
242.274905
 30
0.0
 10
249.963248
 20
242.274905
 30
0.0
  0
LWPOLYLINE
  5
13c
100
AcDbEntity
  8
Ebene_1
 62
7
100
AcDbPolyline
 90
3
 70
0
 10
247.240560
 20
243.387144
 30
0.0
 10
247.242159
 20
243.385544
 30
0.0
 10
247.243759
 20
243.383945
 30
0.0
  0
SPLINE
  5
13d
100
AcDbEntity
  8
Ebene_1
 62
7
100
AcDbSpline
 70
8
 71
3
 72
8
 73
4
 74
0
 40
0
 40
0
 40
0
 40
0
 40
1
 40
1
 40
1
 40
1
 10
263.671604
 20
242.274980
 30
0.0
 10
264.694630
 20
242.274980
 30
0.0
 10
265.616248
 20
242.655296
 30
0.0
 10
266.359855
 20
243.379333
 30
0.0
  0
SPLINE
  5
13e
100
AcDbEntity
  8
Ebene_1
 62
7
100
AcDbSpline
 70
8
 71
3
 72
8
 73
4
 74
0
 40
0
 40
0
 40
0
 40
0
 40
1
 40
1
 40
1
 40
1
 10
266.359855
 20
243.379333
 30
0.0
 10
267.107804
 20
244.107602
 30
0.0
 10
267.498566
 20
245.044267
 30
0.0
 10
267.498566
 20
246.101947
 30
0.0
  0
LWPOLYLINE
  5
13f
100
AcDbEntity
  8
Ebene_1
 62
7
100
AcDbPolyline
 90
7
 70
0
 10
249.963248
 20
242.274905
 30
0.0
 10
254.704006
 20
242.274905
 30
0.0
 10
254.704006
 20
228.566628
 30
0.0
 10
255.103885
 20
228.566628
 30
0.0
 10
258.930847
 20
228.566628
 30
0.0
 10
258.930847
 20
242.274980
 30
0.0
 10
263.671604
 20
242.274980
 30
0.0
  0
LWPOLYLINE
  5
140
100
AcDbEntity
  8
Ebene_1
 62
7
100
AcDbPolyline
 90
3
 70
0
 10
267.498566
 20
246.101947
 30
0.0
 10
267.498566
 20
246.501826
 30
0.0
 10
246.136206
 20
246.501826
 30
0.0
  0
SPLINE
  5
141
100
AcDbEntity
  8
Ebene_1
 62
7
100
AcDbSpline
 70
8
 71
3
 72
8
 73
4
 74
0
 40
0
 40
0
 40
0
 40
0
 40
1
 40
1
 40
1
 40
1
 10
272.765652
 20
232.393595
 30
0.0
 10
272.765652
 20
231.354510
 30
0.0
 10
273.144746
 20
230.423654
 30
0.0
 10
273.870006
 20
229.678792
 30
0.0
  0
LWPOLYLINE
  5
142
100
AcDbEntity
  8
Ebene_1
 62
7
100
AcDbPolyline
 90
2
 70
0
 10
272.765652
 20
232.793474
 30
0.0
 10
272.765652
 20
232.393595
 30
0.0
  0
SPLINE
  5
143
100
AcDbEntity
  8
Ebene_1
 62
7
100
AcDbSpline
 70
8
 71
3
 72
8
 73
4
 74
0
 40
0
 40
0
 40
0
 40
0
 40
1
 40
1
 40
1
 40
1
 10
273.873205
 20
229.674073
 30
0.0
 10
274.602416
 20
228.944857
 30
0.0
 10
275.537478
 20
228.566596
 30
0.0
 10
276.592694
 20
228.566596
 30
0.0
  0
LWPOLYLINE
  5
144
100
AcDbEntity
  8
Ebene_1
 62
7
100
AcDbPolyline
 90
3
 70
0
 10
273.870006
 20
229.678792
 30
0.0
 10
273.871606
 20
229.677192
 30
0.0
 10
273.873205
 20
229.674073
 30
0.0
  0
SPLINE
  5
145
100
AcDbEntity
  8
Ebene_1
 62
7
100
AcDbSpline
 70
8
 71
3
 72
8
 73
4
 74
0
 40
0
 40
0
 40
0
 40
0
 40
1
 40
1
 40
1
 40
1
 10
290.301042
 20
228.566596
 30
0.0
 10
291.324069
 20
228.566596
 30
0.0
 10
292.247253
 20
228.946912
 30
0.0
 10
292.990852
 20
229.670949
 30
0.0
  0
SPLINE
  5
146
100
AcDbEntity
  8
Ebene_1
 62
7
100
AcDbSpline
 70
8
 71
3
 72
8
 73
4
 74
0
 40
0
 40
0
 40
0
 40
0
 40
1
 40
1
 40
1
 40
1
 10
292.990852
 20
229.670949
 30
0.0
 10
293.738810
 20
230.399217
 30
0.0
 10
294.128012
 20
231.335882
 30
0.0
 10
294.128012
 20
232.393562
 30
0.0
  0
LWPOLYLINE
  5
147
100
AcDbEntity
  8
Ebene_1
 62
7
100
AcDbPolyline
 90
2
 70
0
 10
276.592694
 20
228.566596
 30
0.0
 10
290.301042
 20
228.566596
 30
0.0
  0
LWPOLYLINE
  5
148
100
AcDbEntity
  8
Ebene_1
 62
7
100
AcDbPolyline
 90
3
 70
0
 10
294.128012
 20
232.393562
 30
0.0
 10
294.128012
 20
232.793441
 30
0.0
 10
272.765652
 20
232.793474
 30
0.0
  0
SPLINE
  5
149
100
AcDbEntity
  8
Ebene_1
 62
7
100
AcDbSpline
 70
8
 71
3
 72
8
 73
4
 74
0
 40
0
 40
0
 40
0
 40
0
 40
1
 40
1
 40
1
 40
1
 10
272.765652
 20
239.247771
 30
0.0
 10
272.765652
 20
238.208686
 30
0.0
 10
273.144746
 20
237.277830
 30
0.0
 10
273.870006
 20
236.532968
 30
0.0
  0
LWPOLYLINE
  5
14a
100
AcDbEntity
  8
Ebene_1
 62
7
100
AcDbPolyline
 90
2
 70
0
 10
272.765652
 20
239.647650
 30
0.0
 10
272.765652
 20
239.247771
 30
0.0
  0
SPLINE
  5
14b
100
AcDbEntity
  8
Ebene_1
 62
7
100
AcDbSpline
 70
8
 71
3
 72
8
 73
4
 74
0
 40
0
 40
0
 40
0
 40
0
 40
1
 40
1
 40
1
 40
1
 10
273.873205
 20
236.528250
 30
0.0
 10
274.602416
 20
235.799034
 30
0.0
 10
275.537478
 20
235.420772
 30
0.0
 10
276.592694
 20
235.420772
 30
0.0
  0
LWPOLYLINE
  5
14c
100
AcDbEntity
  8
Ebene_1
 62
7
100
AcDbPolyline
 90
3
 70
0
 10
273.870006
 20
236.532968
 30
0.0
 10
273.871606
 20
236.531369
 30
0.0
 10
273.873205
 20
236.528250
 30
0.0
  0
SPLINE
  5
14d
100
AcDbEntity
  8
Ebene_1
 62
7
100
AcDbSpline
 70
8
 71
3
 72
8
 73
4
 74
0
 40
0
 40
0
 40
0
 40
0
 40
1
 40
1
 40
1
 40
1
 10
290.301042
 20
235.420772
 30
0.0
 10
291.324069
 20
235.420772
 30
0.0
 10
292.247253
 20
235.801088
 30
0.0
 10
292.990852
 20
236.525126
 30
0.0
  0
SPLINE
  5
14e
100
AcDbEntity
  8
Ebene_1
 62
7
100
AcDbSpline
 70
8
 71
3
 72
8
 73
4
 74
0
 40
0
 40
0
 40
0
 40
0
 40
1
 40
1
 40
1
 40
1
 10
292.990852
 20
236.525126
 30
0.0
 10
293.738810
 20
237.253394
 30
0.0
 10
294.128012
 20
238.190060
 30
0.0
 10
294.128012
 20
239.247739
 30
0.0
  0
LWPOLYLINE
  5
14f
100
AcDbEntity
  8
Ebene_1
 62
7
100
AcDbPolyline
 90
2
 70
0
 10
276.592694
 20
235.420772
 30
0.0
 10
290.301042
 20
235.420772
 30
0.0
  0
LWPOLYLINE
  5
150
100
AcDbEntity
  8
Ebene_1
 62
7
100
AcDbPolyline
 90
3
 70
0
 10
294.128012
 20
239.247739
 30
0.0
 10
294.128012
 20
239.647618
 30
0.0
 10
272.765652
 20
239.647650
 30
0.0
  0
SPLINE
  5
151
100
AcDbEntity
  8
Ebene_1
 62
7
100
AcDbSpline
 70
8
 71
3
 72
8
 73
4
 74
0
 40
0
 40
0
 40
0
 40
0
 40
1
 40
1
 40
1
 40
1
 10
272.765652
 20
246.101947
 30
0.0
 10
272.765652
 20
245.062862
 30
0.0
 10
273.144746
 20
244.132006
 30
0.0
 10
273.870006
 20
243.387144
 30
0.0
  0
LWPOLYLINE
  5
152
100
AcDbEntity
  8
Ebene_1
 62
7
100
AcDbPolyline
 90
2
 70
0
 10
272.765652
 20
246.501826
 30
0.0
 10
272.765652
 20
246.101947
 30
0.0
  0
SPLINE
  5
153
100
AcDbEntity
  8
Ebene_1
 62
7
100
AcDbSpline
 70
8
 71
3
 72
8
 73
4
 74
0
 40
0
 40
0
 40
0
 40
0
 40
1
 40
1
 40
1
 40
1
 10
273.873205
 20
243.383945
 30
0.0
 10
274.602416
 20
242.654729
 30
0.0
 10
275.537478
 20
242.274905
 30
0.0
 10
276.592694
 20
242.274905
 30
0.0
  0
LWPOLYLINE
  5
154
100
AcDbEntity
  8
Ebene_1
 62
7
100
AcDbPolyline
 90
3
 70
0
 10
273.870006
 20
243.387144
 30
0.0
 10
273.871606
 20
243.385544
 30
0.0
 10
273.873205
 20
243.383945
 30
0.0
  0
SPLINE
  5
155
100
AcDbEntity
  8
Ebene_1
 62
7
100
AcDbSpline
 70
8
 71
3
 72
8
 73
4
 74
0
 40
0
 40
0
 40
0
 40
0
 40
1
 40
1
 40
1
 40
1
 10
290.301042
 20
242.274905
 30
0.0
 10
291.324069
 20
242.274905
 30
0.0
 10
292.247253
 20
242.655221
 30
0.0
 10
292.990852
 20
243.379258
 30
0.0
  0
SPLINE
  5
156
100
AcDbEntity
  8
Ebene_1
 62
7
100
AcDbSpline
 70
8
 71
3
 72
8
 73
4
 74
0
 40
0
 40
0
 40
0
 40
0
 40
1
 40
1
 40
1
 40
1
 10
292.990852
 20
243.379258
 30
0.0
 10
293.738810
 20
244.107527
 30
0.0
 10
294.128012
 20
245.044192
 30
0.0
 10
294.128012
 20
246.101872
 30
0.0
  0
LWPOLYLINE
  5
157
100
AcDbEntity
  8
Ebene_1
 62
7
100
AcDbPolyline
 90
2
 70
0
 10
276.592694
 20
242.274905
 30
0.0
 10
290.301042
 20
242.274905
 30
0.0
  0
LWPOLYLINE
  5
158
100
AcDbEntity
  8
Ebene_1
 62
7
100
AcDbPolyline
 90
3
 70
0
 10
294.128012
 20
246.101872
 30
0.0
 10
294.128012
 20
246.501751
 30
0.0
 10
272.765652
 20
246.501826
 30
0.0
  0
SPLINE
  5
159
100
AcDbEntity
  8
Ebene_1
 62
7
100
AcDbSpline
 70
8
 71
3
 72
8
 73
4
 74
0
 40
0
 40
0
 40
0
 40
0
 40
1
 40
1
 40
1
 40
1
 10
303.223620
 20
232.793474
 30
0.0
 10
302.182023
 20
232.793474
 30
0.0
 10
301.248146
 20
232.403458
 30
0.0
 10
300.504131
 20
231.659443
 30
0.0
  0
SPLINE
  5
15a
100
AcDbEntity
  8
Ebene_1
 62
7
100
AcDbSpline
 70
8
 71
3
 72
8
 73
4
 74
0
 40
0
 40
0
 40
0
 40
0
 40
1
 40
1
 40
1
 40
1
 10
300.504131
 20
231.659443
 30
0.0
 10
299.776191
 20
230.931500
 30
0.0
 10
299.396658
 20
230.005592
 30
0.0
 10
299.396658
 20
228.966507
 30
0.0
  0
LWPOLYLINE
  5
15b
100
AcDbEntity
  8
Ebene_1
 62
7
100
AcDbPolyline
 90
5
 70
0
 10
299.396658
 20
246.501826
 30
0.0
 10
299.396658
 20
235.420804
 30
0.0
 10
316.532097
 20
235.420804
 30
0.0
 10
316.532097
 20
232.793474
 30
0.0
 10
303.223620
 20
232.793474
 30
0.0
  0
SPLINE
  5
15c
100
AcDbEntity
  8
Ebene_1
 62
7
100
AcDbSpline
 70
8
 71
3
 72
8
 73
4
 74
0
 40
0
 40
0
 40
0
 40
0
 40
1
 40
1
 40
1
 40
1
 10
316.931976
 20
242.274980
 30
0.0
 10
317.955002
 20
242.274980
 30
0.0
 10
318.876619
 20
242.655296
 30
0.0
 10
319.620226
 20
243.379333
 30
0.0
  0
SPLINE
  5
15d
100
AcDbEntity
  8
Ebene_1
 62
7
100
AcDbSpline
 70
8
 71
3
 72
8
 73
4
 74
0
 40
0
 40
0
 40
0
 40
0
 40
1
 40
1
 40
1
 40
1
 10
319.620226
 20
243.379333
 30
0.0
 10
320.368176
 20
244.107603
 30
0.0
 10
320.758938
 20
245.044268
 30
0.0
 10
320.758938
 20
246.101947
 30
0.0
  0
LWPOLYLINE
  5
15e
100
AcDbEntity
  8
Ebene_1
 62
7
100
AcDbPolyline
 90
8
 70
0
 10
299.396658
 20
228.966507
 30
0.0
 10
299.396658
 20
228.566628
 30
0.0
 10
299.796537
 20
228.566628
 30
0.0
 10
320.758938
 20
228.566628
 30
0.0
 10
320.758938
 20
239.647650
 30
0.0
 10
303.623499
 20
239.647650
 30
0.0
 10
303.623499
 20
242.274980
 30
0.0
 10
316.931976
 20
242.274980
 30
0.0
  0
LWPOLYLINE
  5
15f
100
AcDbEntity
  8
Ebene_1
 62
7
100
AcDbPolyline
 90
3
 70
0
 10
320.758938
 20
246.101947
 30
0.0
 10
320.758938
 20
246.501826
 30
0.0
 10
299.396658
 20
246.501826
 30
0.0
  0
SPLINE
  5
160
100
AcDbEntity
  8
Ebene_1
 62
7
100
AcDbSpline
 70
8
 71
3
 72
8
 73
4
 74
0
 40
0
 40
0
 40
0
 40
0
 40
1
 40
1
 40
1
 40
1
 10
343.561414
 20
228.566628
 30
0.0
 10
344.584441
 20
228.566628
 30
0.0
 10
345.507625
 20
228.946944
 30
0.0
 10
346.251224
 20
229.670981
 30
0.0
  0
SPLINE
  5
161
100
AcDbEntity
  8
Ebene_1
 62
7
100
AcDbSpline
 70
8
 71
3
 72
8
 73
4
 74
0
 40
0
 40
0
 40
0
 40
0
 40
1
 40
1
 40
1
 40
1
 10
346.251224
 20
229.670981
 30
0.0
 10
346.999174
 20
230.399251
 30
0.0
 10
347.388384
 20
231.335916
 30
0.0
 10
347.388384
 20
232.393595
 30
0.0
  0
LWPOLYLINE
  5
162
100
AcDbEntity
  8
Ebene_1
 62
7
100
AcDbPolyline
 90
4
 70
0
 10
326.026096
 20
246.501826
 30
0.0
 10
326.026096
 20
228.566628
 30
0.0
 10
326.425975
 20
228.566628
 30
0.0
 10
343.561414
 20
228.566628
 30
0.0
  0
SPLINE
  5
163
100
AcDbEntity
  8
Ebene_1
 62
7
100
AcDbSpline
 70
8
 71
3
 72
8
 73
4
 74
0
 40
0
 40
0
 40
0
 40
0
 40
1
 40
1
 40
1
 40
1
 10
250.077950
 20
273.925502
 30
0.0
 10
236.851140
 20
273.925502
 30
0.0
 10
226.077950
 20
263.152313
 30
0.0
 10
226.077950
 20
249.925502
 30
0.0
  0
LWPOLYLINE
  5
164
100
AcDbEntity
  8
Ebene_1
 62
7
100
AcDbPolyline
 90
5
 70
0
 10
347.388384
 20
232.393595
 30
0.0
 10
347.388384
 20
232.793474
 30
0.0
 10
330.252945
 20
232.793474
 30
0.0
 10
330.252945
 20
246.501826
 30
0.0
 10
326.026096
 20
246.501826
 30
0.0
  0
SPLINE
  5
165
100
AcDbEntity
  8
Ebene_1
 62
7
100
AcDbSpline
 70
8
 71
3
 72
8
 73
4
 74
0
 40
0
 40
0
 40
0
 40
0
 40
1
 40
1
 40
1
 40
1
 10
226.077950
 20
49.925500
 30
0.0
 10
226.077950
 20
36.698690
 30
0.0
 10
236.851140
 20
25.925500
 30
0.0
 10
250.077950
 20
25.925500
 30
0.0
  0
LWPOLYLINE
  5
166
100
AcDbEntity
  8
Ebene_1
 62
7
100
AcDbPolyline
 90
2
 70
0
 10
226.077950
 20
249.925502
 30
0.0
 10
226.077950
 20
49.925500
 30
0.0
  0
SPLINE
  5
167
100
AcDbEntity
  8
Ebene_1
 62
7
100
AcDbSpline
 70
8
 71
3
 72
8
 73
4
 74
0
 40
0
 40
0
 40
0
 40
0
 40
1
 40
1
 40
1
 40
1
 10
370.077950
 20
25.925500
 30
0.0
 10
383.304760
 20
25.925500
 30
0.0
 10
394.077950
 20
36.698690
 30
0.0
 10
394.077950
 20
49.925500
 30
0.0
  0
LWPOLYLINE
  5
168
100
AcDbEntity
  8
Ebene_1
 62
7
100
AcDbPolyline
 90
2
 70
0
 10
250.077950
 20
25.925500
 30
0.0
 10
370.077950
 20
25.925500
 30
0.0
  0
SPLINE
  5
169
100
AcDbEntity
  8
Ebene_1
 62
7
100
AcDbSpline
 70
8
 71
3
 72
8
 73
4
 74
0
 40
0
 40
0
 40
0
 40
0
 40
1
 40
1
 40
1
 40
1
 10
394.077950
 20
249.925502
 30
0.0
 10
394.077950
 20
263.152313
 30
0.0
 10
383.304760
 20
273.925502
 30
0.0
 10
370.077950
 20
273.925502
 30
0.0
  0
LWPOLYLINE
  5
16a
100
AcDbEntity
  8
Ebene_1
 62
7
100
AcDbPolyline
 90
2
 70
0
 10
394.077950
 20
49.925500
 30
0.0
 10
394.077950
 20
249.925502
 30
0.0
  0
LWPOLYLINE
  5
16b
100
AcDbEntity
  8
Ebene_1
 62
7
100
AcDbPolyline
 90
2
 70
0
 10
370.077950
 20
273.925502
 30
0.0
 10
250.077950
 20
273.925502
 30
0.0
  0
SPLINE
  5
16c
100
AcDbEntity
  8
Ebene_1
 62
7
100
AcDbSpline
 70
8
 71
3
 72
8
 73
4
 74
0
 40
0
 40
0
 40
0
 40
0
 40
1
 40
1
 40
1
 40
1
 10
370.077950
 20
265.925502
 30
0.0
 10
379.011140
 20
265.925502
 30
0.0
 10
386.077950
 20
258.858691
 30
0.0
 10
386.077950
 20
249.925502
 30
0.0
  0
LWPOLYLINE
  5
16d
100
AcDbEntity
  8
Ebene_1
 62
7
100
AcDbPolyline
 90
2
 70
0
 10
250.077950
 20
265.925502
 30
0.0
 10
370.077950
 20
265.925502
 30
0.0
  0
SPLINE
  5
16e
100
AcDbEntity
  8
Ebene_1
 62
7
100
AcDbSpline
 70
8
 71
3
 72
8
 73
4
 74
0
 40
0
 40
0
 40
0
 40
0
 40
1
 40
1
 40
1
 40
1
 10
386.077950
 20
49.925500
 30
0.0
 10
386.077950
 20
40.992310
 30
0.0
 10
379.011140
 20
33.925500
 30
0.0
 10
370.077950
 20
33.925500
 30
0.0
  0
LWPOLYLINE
  5
16f
100
AcDbEntity
  8
Ebene_1
 62
7
100
AcDbPolyline
 90
2
 70
0
 10
386.077950
 20
249.925502
 30
0.0
 10
386.077950
 20
49.925500
 30
0.0
  0
SPLINE
  5
170
100
AcDbEntity
  8
Ebene_1
 62
7
100
AcDbSpline
 70
8
 71
3
 72
8
 73
4
 74
0
 40
0
 40
0
 40
0
 40
0
 40
1
 40
1
 40
1
 40
1
 10
250.077950
 20
33.925500
 30
0.0
 10
241.144760
 20
33.925500
 30
0.0
 10
234.077950
 20
40.992310
 30
0.0
 10
234.077950
 20
49.925500
 30
0.0
  0
LWPOLYLINE
  5
171
100
AcDbEntity
  8
Ebene_1
 62
7
100
AcDbPolyline
 90
2
 70
0
 10
370.077950
 20
33.925500
 30
0.0
 10
250.077950
 20
33.925500
 30
0.0
  0
SPLINE
  5
172
100
AcDbEntity
  8
Ebene_1
 62
7
100
AcDbSpline
 70
8
 71
3
 72
8
 73
4
 74
0
 40
0
 40
0
 40
0
 40
0
 40
1
 40
1
 40
1
 40
1
 10
234.077950
 20
249.925502
 30
0.0
 10
234.077950
 20
258.858691
 30
0.0
 10
241.144760
 20
265.925502
 30
0.0
 10
250.077950
 20
265.925502
 30
0.0
  0
LWPOLYLINE
  5
173
100
AcDbEntity
  8
Ebene_1
 62
7
100
AcDbPolyline
 90
2
 70
0
 10
234.077950
 20
49.925500
 30
0.0
 10
234.077950
 20
249.925502
 30
0.0
  0
SPLINE
  5
174
100
AcDbEntity
  8
Ebene_1
 62
7
100
AcDbSpline
 70
8
 71
3
 72
8
 73
4
 74
0
 40
0
 40
0
 40
0
 40
0
 40
1
 40
1
 40
1
 40
1
 10
246.077996
 20
256.425500
 30
0.0
 10
246.077996
 20
255.762459
 30
0.0
 10
245.814604
 20
255.126574
 30
0.0
 10
245.345763
 20
254.657733
 30
0.0
  0
SPLINE
  5
175
100
AcDbEntity
  8
Ebene_1
 62
7
100
AcDbSpline
 70
8
 71
3
 72
8
 73
4
 74
0
 40
0
 40
0
 40
0
 40
0
 40
1
 40
1
 40
1
 40
1
 10
245.345763
 20
254.657733
 30
0.0
 10
244.876922
 20
254.188892
 30
0.0
 10
244.241037
 20
253.925500
 30
0.0
 10
243.577996
 20
253.925500
 30
0.0
  0
SPLINE
  5
176
100
AcDbEntity
  8
Ebene_1
 62
7
100
AcDbSpline
 70
8
 71
3
 72
8
 73
4
 74
0
 40
0
 40
0
 40
0
 40
0
 40
1
 40
1
 40
1
 40
1
 10
243.577996
 20
253.925500
 30
0.0
 10
242.914955
 20
253.925500
 30
0.0
 10
242.279070
 20
254.188892
 30
0.0
 10
241.810229
 20
254.657733
 30
0.0
  0
SPLINE
  5
177
100
AcDbEntity
  8
Ebene_1
 62
7
100
AcDbSpline
 70
8
 71
3
 72
8
 73
4
 74
0
 40
0
 40
0
 40
0
 40
0
 40
1
 40
1
 40
1
 40
1
 10
241.810229
 20
254.657733
 30
0.0
 10
241.341388
 20
255.126574
 30
0.0
 10
241.077996
 20
255.762459
 30
0.0
 10
241.077996
 20
256.425500
 30
0.0
  0
SPLINE
  5
178
100
AcDbEntity
  8
Ebene_1
 62
7
100
AcDbSpline
 70
8
 71
3
 72
8
 73
4
 74
0
 40
0
 40
0
 40
0
 40
0
 40
1
 40
1
 40
1
 40
1
 10
241.077996
 20
256.425500
 30
0.0
 10
241.077996
 20
257.088541
 30
0.0
 10
241.341388
 20
257.724426
 30
0.0
 10
241.810229
 20
258.193267
 30
0.0
  0
SPLINE
  5
179
100
AcDbEntity
  8
Ebene_1
 62
7
100
AcDbSpline
 70
8
 71
3
 72
8
 73
4
 74
0
 40
0
 40
0
 40
0
 40
0
 40
1
 40
1
 40
1
 40
1
 10
241.810229
 20
258.193267
 30
0.0
 10
242.279070
 20
258.662108
 30
0.0
 10
242.914955
 20
258.925500
 30
0.0
 10
243.577996
 20
258.925500
 30
0.0
  0
SPLINE
  5
17a
100
AcDbEntity
  8
Ebene_1
 62
7
100
AcDbSpline
 70
8
 71
3
 72
8
 73
4
 74
0
 40
0
 40
0
 40
0
 40
0
 40
1
 40
1
 40
1
 40
1
 10
243.577996
 20
258.925500
 30
0.0
 10
244.241037
 20
258.925500
 30
0.0
 10
244.876922
 20
258.662108
 30
0.0
 10
245.345763
 20
258.193267
 30
0.0
  0
SPLINE
  5
17b
100
AcDbEntity
  8
Ebene_1
 62
7
100
AcDbSpline
 70
8
 71
3
 72
8
 73
4
 74
0
 40
0
 40
0
 40
0
 40
0
 40
1
 40
1
 40
1
 40
1
 10
245.345763
 20
258.193267
 30
0.0
 10
245.814604
 20
257.724426
 30
0.0
 10
246.077996
 20
257.088541
 30
0.0
 10
246.077996
 20
256.425500
 30
0.0
  0
SPLINE
  5
17c
100
AcDbEntity
  8
Ebene_1
 62
7
100
AcDbSpline
 70
8
 71
3
 72
8
 73
4
 74
0
 40
0
 40
0
 40
0
 40
0
 40
1
 40
1
 40
1
 40
1
 10
379.078000
 20
256.425500
 30
0.0
 10
379.078000
 20
255.762459
 30
0.0
 10
378.814608
 20
255.126574
 30
0.0
 10
378.345767
 20
254.657733
 30
0.0
  0
SPLINE
  5
17d
100
AcDbEntity
  8
Ebene_1
 62
7
100
AcDbSpline
 70
8
 71
3
 72
8
 73
4
 74
0
 40
0
 40
0
 40
0
 40
0
 40
1
 40
1
 40
1
 40
1
 10
378.345767
 20
254.657733
 30
0.0
 10
377.876926
 20
254.188892
 30
0.0
 10
377.241041
 20
253.925500
 30
0.0
 10
376.578000
 20
253.925500
 30
0.0
  0
SPLINE
  5
17e
100
AcDbEntity
  8
Ebene_1
 62
7
100
AcDbSpline
 70
8
 71
3
 72
8
 73
4
 74
0
 40
0
 40
0
 40
0
 40
0
 40
1
 40
1
 40
1
 40
1
 10
376.578000
 20
253.925500
 30
0.0
 10
375.914959
 20
253.925500
 30
0.0
 10
375.279074
 20
254.188892
 30
0.0
 10
374.810233
 20
254.657733
 30
0.0
  0
SPLINE
  5
17f
100
AcDbEntity
  8
Ebene_1
 62
7
100
AcDbSpline
 70
8
 71
3
 72
8
 73
4
 74
0
 40
0
 40
0
 40
0
 40
0
 40
1
 40
1
 40
1
 40
1
 10
374.810233
 20
254.657733
 30
0.0
 10
374.341392
 20
255.126574
 30
0.0
 10
374.078000
 20
255.762459
 30
0.0
 10
374.078000
 20
256.425500
 30
0.0
  0
SPLINE
  5
180
100
AcDbEntity
  8
Ebene_1
 62
7
100
AcDbSpline
 70
8
 71
3
 72
8
 73
4
 74
0
 40
0
 40
0
 40
0
 40
0
 40
1
 40
1
 40
1
 40
1
 10
374.078000
 20
256.425500
 30
0.0
 10
374.078000
 20
257.088541
 30
0.0
 10
374.341392
 20
257.724426
 30
0.0
 10
374.810233
 20
258.193267
 30
0.0
  0
SPLINE
  5
181
100
AcDbEntity
  8
Ebene_1
 62
7
100
AcDbSpline
 70
8
 71
3
 72
8
 73
4
 74
0
 40
0
 40
0
 40
0
 40
0
 40
1
 40
1
 40
1
 40
1
 10
374.810233
 20
258.193267
 30
0.0
 10
375.279074
 20
258.662108
 30
0.0
 10
375.914959
 20
258.925500
 30
0.0
 10
376.578000
 20
258.925500
 30
0.0
  0
SPLINE
  5
182
100
AcDbEntity
  8
Ebene_1
 62
7
100
AcDbSpline
 70
8
 71
3
 72
8
 73
4
 74
0
 40
0
 40
0
 40
0
 40
0
 40
1
 40
1
 40
1
 40
1
 10
376.578000
 20
258.925500
 30
0.0
 10
377.241041
 20
258.925500
 30
0.0
 10
377.876926
 20
258.662108
 30
0.0
 10
378.345767
 20
258.193267
 30
0.0
  0
SPLINE
  5
183
100
AcDbEntity
  8
Ebene_1
 62
7
100
AcDbSpline
 70
8
 71
3
 72
8
 73
4
 74
0
 40
0
 40
0
 40
0
 40
0
 40
1
 40
1
 40
1
 40
1
 10
378.345767
 20
258.193267
 30
0.0
 10
378.814608
 20
257.724426
 30
0.0
 10
379.078000
 20
257.088541
 30
0.0
 10
379.078000
 20
256.425500
 30
0.0
  0
SPLINE
  5
184
100
AcDbEntity
  8
Ebene_1
 62
7
100
AcDbSpline
 70
8
 71
3
 72
8
 73
4
 74
0
 40
0
 40
0
 40
0
 40
0
 40
1
 40
1
 40
1
 40
1
 10
379.078000
 20
43.425500
 30
0.0
 10
379.078000
 20
42.762459
 30
0.0
 10
378.814608
 20
42.126574
 30
0.0
 10
378.345767
 20
41.657733
 30
0.0
  0
SPLINE
  5
185
100
AcDbEntity
  8
Ebene_1
 62
7
100
AcDbSpline
 70
8
 71
3
 72
8
 73
4
 74
0
 40
0
 40
0
 40
0
 40
0
 40
1
 40
1
 40
1
 40
1
 10
378.345767
 20
41.657733
 30
0.0
 10
377.876926
 20
41.188892
 30
0.0
 10
377.241041
 20
40.925500
 30
0.0
 10
376.578000
 20
40.925500
 30
0.0
  0
SPLINE
  5
186
100
AcDbEntity
  8
Ebene_1
 62
7
100
AcDbSpline
 70
8
 71
3
 72
8
 73
4
 74
0
 40
0
 40
0
 40
0
 40
0
 40
1
 40
1
 40
1
 40
1
 10
376.578000
 20
40.925500
 30
0.0
 10
375.914959
 20
40.925500
 30
0.0
 10
375.279074
 20
41.188892
 30
0.0
 10
374.810233
 20
41.657733
 30
0.0
  0
SPLINE
  5
187
100
AcDbEntity
  8
Ebene_1
 62
7
100
AcDbSpline
 70
8
 71
3
 72
8
 73
4
 74
0
 40
0
 40
0
 40
0
 40
0
 40
1
 40
1
 40
1
 40
1
 10
374.810233
 20
41.657733
 30
0.0
 10
374.341392
 20
42.126574
 30
0.0
 10
374.078000
 20
42.762459
 30
0.0
 10
374.078000
 20
43.425500
 30
0.0
  0
SPLINE
  5
188
100
AcDbEntity
  8
Ebene_1
 62
7
100
AcDbSpline
 70
8
 71
3
 72
8
 73
4
 74
0
 40
0
 40
0
 40
0
 40
0
 40
1
 40
1
 40
1
 40
1
 10
374.078000
 20
43.425500
 30
0.0
 10
374.078000
 20
44.088541
 30
0.0
 10
374.341392
 20
44.724426
 30
0.0
 10
374.810233
 20
45.193267
 30
0.0
  0
SPLINE
  5
189
100
AcDbEntity
  8
Ebene_1
 62
7
100
AcDbSpline
 70
8
 71
3
 72
8
 73
4
 74
0
 40
0
 40
0
 40
0
 40
0
 40
1
 40
1
 40
1
 40
1
 10
374.810233
 20
45.193267
 30
0.0
 10
375.279074
 20
45.662108
 30
0.0
 10
375.914959
 20
45.925500
 30
0.0
 10
376.578000
 20
45.925500
 30
0.0
  0
SPLINE
  5
18a
100
AcDbEntity
  8
Ebene_1
 62
7
100
AcDbSpline
 70
8
 71
3
 72
8
 73
4
 74
0
 40
0
 40
0
 40
0
 40
0
 40
1
 40
1
 40
1
 40
1
 10
376.578000
 20
45.925500
 30
0.0
 10
377.241041
 20
45.925500
 30
0.0
 10
377.876926
 20
45.662108
 30
0.0
 10
378.345767
 20
45.193267
 30
0.0
  0
SPLINE
  5
18b
100
AcDbEntity
  8
Ebene_1
 62
7
100
AcDbSpline
 70
8
 71
3
 72
8
 73
4
 74
0
 40
0
 40
0
 40
0
 40
0
 40
1
 40
1
 40
1
 40
1
 10
378.345767
 20
45.193267
 30
0.0
 10
378.814608
 20
44.724426
 30
0.0
 10
379.078000
 20
44.088541
 30
0.0
 10
379.078000
 20
43.425500
 30
0.0
  0
SPLINE
  5
18c
100
AcDbEntity
  8
Ebene_1
 62
7
100
AcDbSpline
 70
8
 71
3
 72
8
 73
4
 74
0
 40
0
 40
0
 40
0
 40
0
 40
1
 40
1
 40
1
 40
1
 10
246.077996
 20
43.425500
 30
0.0
 10
246.077996
 20
42.762459
 30
0.0
 10
245.814604
 20
42.126574
 30
0.0
 10
245.345763
 20
41.657733
 30
0.0
  0
SPLINE
  5
18d
100
AcDbEntity
  8
Ebene_1
 62
7
100
AcDbSpline
 70
8
 71
3
 72
8
 73
4
 74
0
 40
0
 40
0
 40
0
 40
0
 40
1
 40
1
 40
1
 40
1
 10
245.345763
 20
41.657733
 30
0.0
 10
244.876922
 20
41.188892
 30
0.0
 10
244.241037
 20
40.925500
 30
0.0
 10
243.577996
 20
40.925500
 30
0.0
  0
SPLINE
  5
18e
100
AcDbEntity
  8
Ebene_1
 62
7
100
AcDbSpline
 70
8
 71
3
 72
8
 73
4
 74
0
 40
0
 40
0
 40
0
 40
0
 40
1
 40
1
 40
1
 40
1
 10
243.577996
 20
40.925500
 30
0.0
 10
242.914955
 20
40.925500
 30
0.0
 10
242.279070
 20
41.188892
 30
0.0
 10
241.810229
 20
41.657733
 30
0.0
  0
SPLINE
  5
18f
100
AcDbEntity
  8
Ebene_1
 62
7
100
AcDbSpline
 70
8
 71
3
 72
8
 73
4
 74
0
 40
0
 40
0
 40
0
 40
0
 40
1
 40
1
 40
1
 40
1
 10
241.810229
 20
41.657733
 30
0.0
 10
241.341388
 20
42.126574
 30
0.0
 10
241.077996
 20
42.762459
 30
0.0
 10
241.077996
 20
43.425500
 30
0.0
  0
SPLINE
  5
190
100
AcDbEntity
  8
Ebene_1
 62
7
100
AcDbSpline
 70
8
 71
3
 72
8
 73
4
 74
0
 40
0
 40
0
 40
0
 40
0
 40
1
 40
1
 40
1
 40
1
 10
241.077996
 20
43.425500
 30
0.0
 10
241.077996
 20
44.088541
 30
0.0
 10
241.341388
 20
44.724426
 30
0.0
 10
241.810229
 20
45.193267
 30
0.0
  0
SPLINE
  5
191
100
AcDbEntity
  8
Ebene_1
 62
7
100
AcDbSpline
 70
8
 71
3
 72
8
 73
4
 74
0
 40
0
 40
0
 40
0
 40
0
 40
1
 40
1
 40
1
 40
1
 10
241.810229
 20
45.193267
 30
0.0
 10
242.279070
 20
45.662108
 30
0.0
 10
242.914955
 20
45.925500
 30
0.0
 10
243.577996
 20
45.925500
 30
0.0
  0
SPLINE
  5
192
100
AcDbEntity
  8
Ebene_1
 62
7
100
AcDbSpline
 70
8
 71
3
 72
8
 73
4
 74
0
 40
0
 40
0
 40
0
 40
0
 40
1
 40
1
 40
1
 40
1
 10
243.577996
 20
45.925500
 30
0.0
 10
244.241037
 20
45.925500
 30
0.0
 10
244.876922
 20
45.662108
 30
0.0
 10
245.345763
 20
45.193267
 30
0.0
  0
SPLINE
  5
193
100
AcDbEntity
  8
Ebene_1
 62
7
100
AcDbSpline
 70
8
 71
3
 72
8
 73
4
 74
0
 40
0
 40
0
 40
0
 40
0
 40
1
 40
1
 40
1
 40
1
 10
245.345763
 20
45.193267
 30
0.0
 10
245.814604
 20
44.724426
 30
0.0
 10
246.077996
 20
44.088541
 30
0.0
 10
246.077996
 20
43.425500
 30
0.0
  0
LWPOLYLINE
  5
194
100
AcDbEntity
  8
Ebene_1
 62
7
100
AcDbPolyline
 90
1
 70
1
 10
250.077950
 20
265.925502
 30
0.0
  0
SPLINE
  5
195
100
AcDbEntity
  8
Ebene_1
 62
7
100
AcDbSpline
 70
8
 71
3
 72
8
 73
4
 74
0
 40
0
 40
0
 40
0
 40
0
 40
1
 40
1
 40
1
 40
1
 10
370.929390
 20
276.776934
 30
0.0
 10
377.825019
 20
276.776934
 30
0.0
 10
384.438220
 20
274.037656
 30
0.0
 10
389.314166
 20
269.161710
 30
0.0
  0
SPLINE
  5
196
100
AcDbEntity
  8
Ebene_1
 62
7
100
AcDbSpline
 70
8
 71
3
 72
8
 73
4
 74
0
 40
0
 40
0
 40
0
 40
0
 40
1
 40
1
 40
1
 40
1
 10
389.314166
 20
269.161710
 30
0.0
 10
394.190112
 20
264.285764
 30
0.0
 10
396.929390
 20
257.672563
 30
0.0
 10
396.929390
 20
250.776934
 30
0.0
  0
LWPOLYLINE
  5
197
100
AcDbEntity
  8
Ebene_1
 62
7
100
AcDbPolyline
 90
2
 70
0
 10
249.226520
 20
276.776934
 30
0.0
 10
370.929390
 20
276.776934
 30
0.0
  0
SPLINE
  5
198
100
AcDbEntity
  8
Ebene_1
 62
7
100
AcDbSpline
 70
8
 71
3
 72
8
 73
4
 74
0
 40
0
 40
0
 40
0
 40
0
 40
1
 40
1
 40
1
 40
1
 10
396.929390
 20
49.074064
 30
0.0
 10
396.929390
 20
42.178435
 30
0.0
 10
394.190112
 20
35.565234
 30
0.0
 10
389.314166
 20
30.689288
 30
0.0
  0
SPLINE
  5
199
100
AcDbEntity
  8
Ebene_1
 62
7
100
AcDbSpline
 70
8
 71
3
 72
8
 73
4
 74
0
 40
0
 40
0
 40
0
 40
0
 40
1
 40
1
 40
1
 40
1
 10
389.314166
 20
30.689288
 30
0.0
 10
384.438220
 20
25.813342
 30
0.0
 10
377.825019
 20
23.074064
 30
0.0
 10
370.929390
 20
23.074064
 30
0.0
  0
LWPOLYLINE
  5
19a
100
AcDbEntity
  8
Ebene_1
 62
7
100
AcDbPolyline
 90
2
 70
0
 10
396.929390
 20
250.776934
 30
0.0
 10
396.929390
 20
49.074064
 30
0.0
  0
SPLINE
  5
19b
100
AcDbEntity
  8
Ebene_1
 62
7
100
AcDbSpline
 70
8
 71
3
 72
8
 73
4
 74
0
 40
0
 40
0
 40
0
 40
0
 40
1
 40
1
 40
1
 40
1
 10
249.226520
 20
23.074064
 30
0.0
 10
242.330891
 20
23.074064
 30
0.0
 10
235.717690
 20
25.813342
 30
0.0
 10
230.841744
 20
30.689288
 30
0.0
  0
SPLINE
  5
19c
100
AcDbEntity
  8
Ebene_1
 62
7
100
AcDbSpline
 70
8
 71
3
 72
8
 73
4
 74
0
 40
0
 40
0
 40
0
 40
0
 40
1
 40
1
 40
1
 40
1
 10
230.841744
 20
30.689288
 30
0.0
 10
225.965798
 20
35.565234
 30
0.0
 10
223.226520
 20
42.178435
 30
0.0
 10
223.226520
 20
49.074064
 30
0.0
  0
LWPOLYLINE
  5
19d
100
AcDbEntity
  8
Ebene_1
 62
7
100
AcDbPolyline
 90
2
 70
0
 10
370.929390
 20
23.074064
 30
0.0
 10
249.226520
 20
23.074064
 30
0.0
  0
SPLINE
  5
19e
100
AcDbEntity
  8
Ebene_1
 62
7
100
AcDbSpline
 70
8
 71
3
 72
8
 73
4
 74
0
 40
0
 40
0
 40
0
 40
0
 40
1
 40
1
 40
1
 40
1
 10
223.226520
 20
250.776934
 30
0.0
 10
223.226520
 20
257.672563
 30
0.0
 10
225.965798
 20
264.285764
 30
0.0
 10
230.841744
 20
269.161710
 30
0.0
  0
SPLINE
  5
19f
100
AcDbEntity
  8
Ebene_1
 62
7
100
AcDbSpline
 70
8
 71
3
 72
8
 73
4
 74
0
 40
0
 40
0
 40
0
 40
0
 40
1
 40
1
 40
1
 40
1
 10
230.841744
 20
269.161710
 30
0.0
 10
235.717690
 20
274.037656
 30
0.0
 10
242.330891
 20
276.776934
 30
0.0
 10
249.226520
 20
276.776934
 30
0.0
  0
LWPOLYLINE
  5
1a0
100
AcDbEntity
  8
Ebene_1
 62
7
100
AcDbPolyline
 90
2
 70
0
 10
223.226520
 20
49.074064
 30
0.0
 10
223.226520
 20
250.776934
 30
0.0
  0
LWPOLYLINE
  5
1a1
100
AcDbEntity
  8
Ebene_1
 62
7
100
AcDbPolyline
 90
1
 70
1
 10
249.226520
 20
276.776934
 30
0.0
  0
SPLINE
  5
1a2
100
AcDbEntity
  8
Ebene_1
 62
7
100
AcDbSpline
 70
8
 71
3
 72
8
 73
4
 74
0
 40
0
 40
0
 40
0
 40
0
 40
1
 40
1
 40
1
 40
1
 10
50.619601
 20
281.041683
 30
0.0
 10
32.506107
 20
281.041683
 30
0.0
 10
17.822864
 20
266.378257
 30
0.0
 10
17.822864
 20
248.289237
 30
0.0
  0
LWPOLYLINE
  5
1a3
100
AcDbEntity
  8
Ebene_1
 62
7
100
AcDbPolyline
 90
4
 70
1
 10
0.000000
 20
299.599980
 30
0.0
 10
219.600010
 20
299.599980
 30
0.0
 10
219.600010
 20
0.000000
 30
0.0
 10
0.000000
 20
0.000000
 30
0.0
  0
SPLINE
  5
1a4
100
AcDbEntity
  8
Ebene_1
 62
7
100
AcDbSpline
 70
8
 71
3
 72
8
 73
4
 74
0
 40
0
 40
0
 40
0
 40
0
 40
1
 40
1
 40
1
 40
1
 10
17.822864
 20
51.288690
 30
0.0
 10
17.822864
 20
33.199650
 30
0.0
 10
32.506107
 20
18.536240
 30
0.0
 10
50.619601
 20
18.536240
 30
0.0
  0
LWPOLYLINE
  5
1a5
100
AcDbEntity
  8
Ebene_1
 62
7
100
AcDbPolyline
 90
2
 70
0
 10
17.822864
 20
248.289237
 30
0.0
 10
17.822864
 20
51.288690
 30
0.0
  0
SPLINE
  5
1a6
100
AcDbEntity
  8
Ebene_1
 62
7
100
AcDbSpline
 70
8
 71
3
 72
8
 73
4
 74
0
 40
0
 40
0
 40
0
 40
0
 40
1
 40
1
 40
1
 40
1
 10
168.980400
 20
18.536240
 30
0.0
 10
187.093890
 20
18.536240
 30
0.0
 10
201.777140
 20
33.199650
 30
0.0
 10
201.777140
 20
51.288690
 30
0.0
  0
LWPOLYLINE
  5
1a7
100
AcDbEntity
  8
Ebene_1
 62
7
100
AcDbPolyline
 90
2
 70
0
 10
50.619601
 20
18.536240
 30
0.0
 10
168.980400
 20
18.536240
 30
0.0
  0
SPLINE
  5
1a8
100
AcDbEntity
  8
Ebene_1
 62
7
100
AcDbSpline
 70
8
 71
3
 72
8
 73
4
 74
0
 40
0
 40
0
 40
0
 40
0
 40
1
 40
1
 40
1
 40
1
 10
201.777140
 20
248.289237
 30
0.0
 10
201.777140
 20
266.378257
 30
0.0
 10
187.093890
 20
281.041683
 30
0.0
 10
168.980400
 20
281.041683
 30
0.0
  0
LWPOLYLINE
  5
1a9
100
AcDbEntity
  8
Ebene_1
 62
7
100
AcDbPolyline
 90
2
 70
0
 10
201.777140
 20
51.288690
 30
0.0
 10
201.777140
 20
248.289237
 30
0.0
  0
LWPOLYLINE
  5
1aa
100
AcDbEntity
  8
Ebene_1
 62
7
100
AcDbPolyline
 90
2
 70
0
 10
168.980400
 20
281.041683
 30
0.0
 10
50.619601
 20
281.041683
 30
0.0
  0
SPLINE
  5
1ab
100
AcDbEntity
  8
Ebene_1
 62
7
100
AcDbSpline
 70
8
 71
3
 72
8
 73
4
 74
0
 40
0
 40
0
 40
0
 40
0
 40
1
 40
1
 40
1
 40
1
 10
168.980400
 20
274.639111
 30
0.0
 10
183.652960
 20
274.639111
 30
0.0
 10
195.365920
 20
262.941979
 30
0.0
 10
195.365920
 20
248.289237
 30
0.0
  0
LWPOLYLINE
  5
1ac
100
AcDbEntity
  8
Ebene_1
 62
7
100
AcDbPolyline
 90
2
 70
0
 10
50.619601
 20
274.639111
 30
0.0
 10
168.980400
 20
274.639111
 30
0.0
  0
SPLINE
  5
1ad
100
AcDbEntity
  8
Ebene_1
 62
7
100
AcDbSpline
 70
8
 71
3
 72
8
 73
4
 74
0
 40
0
 40
0
 40
0
 40
0
 40
1
 40
1
 40
1
 40
1
 10
195.365920
 20
51.288690
 30
0.0
 10
195.365920
 20
36.635940
 30
0.0
 10
183.652960
 20
24.938820
 30
0.0
 10
168.980400
 20
24.938820
 30
0.0
  0
LWPOLYLINE
  5
1ae
100
AcDbEntity
  8
Ebene_1
 62
7
100
AcDbPolyline
 90
2
 70
0
 10
195.365920
 20
248.289237
 30
0.0
 10
195.365920
 20
51.288690
 30
0.0
  0
SPLINE
  5
1af
100
AcDbEntity
  8
Ebene_1
 62
7
100
AcDbSpline
 70
8
 71
3
 72
8
 73
4
 74
0
 40
0
 40
0
 40
0
 40
0
 40
1
 40
1
 40
1
 40
1
 10
50.619601
 20
24.938820
 30
0.0
 10
35.947042
 20
24.938820
 30
0.0
 10
24.234091
 20
36.635940
 30
0.0
 10
24.234091
 20
51.288690
 30
0.0
  0
LWPOLYLINE
  5
1b0
100
AcDbEntity
  8
Ebene_1
 62
7
100
AcDbPolyline
 90
2
 70
0
 10
168.980400
 20
24.938820
 30
0.0
 10
50.619601
 20
24.938820
 30
0.0
  0
SPLINE
  5
1b1
100
AcDbEntity
  8
Ebene_1
 62
7
100
AcDbSpline
 70
8
 71
3
 72
8
 73
4
 74
0
 40
0
 40
0
 40
0
 40
0
 40
1
 40
1
 40
1
 40
1
 10
24.234091
 20
248.289237
 30
0.0
 10
24.234091
 20
262.941979
 30
0.0
 10
35.947042
 20
274.639111
 30
0.0
 10
50.619601
 20
274.639111
 30
0.0
  0
LWPOLYLINE
  5
1b2
100
AcDbEntity
  8
Ebene_1
 62
7
100
AcDbPolyline
 90
2
 70
0
 10
24.234091
 20
51.288690
 30
0.0
 10
24.234091
 20
248.289237
 30
0.0
  0
SPLINE
  5
1b3
100
AcDbEntity
  8
Ebene_1
 62
7
100
AcDbSpline
 70
8
 71
3
 72
8
 73
4
 74
0
 40
0
 40
0
 40
0
 40
0
 40
1
 40
1
 40
1
 40
1
 10
39.472026
 20
39.030300
 30
0.0
 10
39.472022
 20
37.734123
 30
0.0
 10
38.421274
 20
36.683361
 30
0.0
 10
37.125097
 20
36.683340
 30
0.0
  0
SPLINE
  5
1b4
100
AcDbEntity
  8
Ebene_1
 62
7
100
AcDbSpline
 70
8
 71
3
 72
8
 73
4
 74
0
 40
0
 40
0
 40
0
 40
0
 40
1
 40
1
 40
1
 40
1
 10
37.125097
 20
36.683340
 30
0.0
 10
36.502639
 20
36.683332
 30
0.0
 10
35.905673
 20
36.930597
 30
0.0
 10
35.465525
 20
37.370738
 30
0.0
  0
SPLINE
  5
1b5
100
AcDbEntity
  8
Ebene_1
 62
7
100
AcDbSpline
 70
8
 71
3
 72
8
 73
4
 74
0
 40
0
 40
0
 40
0
 40
0
 40
1
 40
1
 40
1
 40
1
 10
35.465525
 20
37.370738
 30
0.0
 10
35.025377
 20
37.810879
 30
0.0
 10
34.778104
 20
38.407842
 30
0.0
 10
34.778102
 20
39.030300
 30
0.0
  0
SPLINE
  5
1b6
100
AcDbEntity
  8
Ebene_1
 62
7
100
AcDbSpline
 70
8
 71
3
 72
8
 73
4
 74
0
 40
0
 40
0
 40
0
 40
0
 40
1
 40
1
 40
1
 40
1
 10
34.778102
 20
39.030300
 30
0.0
 10
34.778104
 20
39.652758
 30
0.0
 10
35.025377
 20
40.249721
 30
0.0
 10
35.465525
 20
40.689862
 30
0.0
  0
SPLINE
  5
1b7
100
AcDbEntity
  8
Ebene_1
 62
7
100
AcDbSpline
 70
8
 71
3
 72
8
 73
4
 74
0
 40
0
 40
0
 40
0
 40
0
 40
1
 40
1
 40
1
 40
1
 10
35.465525
 20
40.689862
 30
0.0
 10
35.905673
 20
41.130003
 30
0.0
 10
36.502639
 20
41.377268
 30
0.0
 10
37.125097
 20
41.377260
 30
0.0
  0
SPLINE
  5
1b8
100
AcDbEntity
  8
Ebene_1
 62
7
100
AcDbSpline
 70
8
 71
3
 72
8
 73
4
 74
0
 40
0
 40
0
 40
0
 40
0
 40
1
 40
1
 40
1
 40
1
 10
37.125097
 20
41.377260
 30
0.0
 10
38.421274
 20
41.377239
 30
0.0
 10
39.472022
 20
40.326477
 30
0.0
 10
39.472026
 20
39.030300
 30
0.0
  0
LWPOLYLINE
  5
1b9
100
AcDbEntity
  8
Ebene_1
 62
7
100
AcDbPolyline
 90
1
 70
1
 10
50.619601
 20
274.639111
 30
0.0
  0
SPLINE
  5
1ba
100
AcDbEntity
  8
Ebene_1
 62
7
100
AcDbSpline
 70
8
 71
3
 72
8
 73
4
 74
0
 40
0
 40
0
 40
0
 40
0
 40
1
 40
1
 40
1
 40
1
 10
184.902940
 20
39.304120
 30
0.0
 10
184.902944
 20
38.681661
 30
0.0
 10
184.655674
 20
38.084696
 30
0.0
 10
184.215529
 20
37.644551
 30
0.0
  0
SPLINE
  5
1bb
100
AcDbEntity
  8
Ebene_1
 62
7
100
AcDbSpline
 70
8
 71
3
 72
8
 73
4
 74
0
 40
0
 40
0
 40
0
 40
0
 40
1
 40
1
 40
1
 40
1
 10
184.215529
 20
37.644551
 30
0.0
 10
183.775384
 20
37.204406
 30
0.0
 10
183.178419
 20
36.957136
 30
0.0
 10
182.555960
 20
36.957140
 30
0.0
  0
SPLINE
  5
1bc
100
AcDbEntity
  8
Ebene_1
 62
7
100
AcDbSpline
 70
8
 71
3
 72
8
 73
4
 74
0
 40
0
 40
0
 40
0
 40
0
 40
1
 40
1
 40
1
 40
1
 10
182.555960
 20
36.957140
 30
0.0
 10
181.933505
 20
36.957142
 30
0.0
 10
181.336544
 20
37.204413
 30
0.0
 10
180.896404
 20
37.644558
 30
0.0
  0
SPLINE
  5
1bd
100
AcDbEntity
  8
Ebene_1
 62
7
100
AcDbSpline
 70
8
 71
3
 72
8
 73
4
 74
0
 40
0
 40
0
 40
0
 40
0
 40
1
 40
1
 40
1
 40
1
 10
180.896404
 20
37.644558
 30
0.0
 10
180.456263
 20
38.084702
 30
0.0
 10
180.208996
 20
38.681665
 30
0.0
 10
180.209000
 20
39.304120
 30
0.0
  0
SPLINE
  5
1be
100
AcDbEntity
  8
Ebene_1
 62
7
100
AcDbSpline
 70
8
 71
3
 72
8
 73
4
 74
0
 40
0
 40
0
 40
0
 40
0
 40
1
 40
1
 40
1
 40
1
 10
180.209000
 20
39.304120
 30
0.0
 10
180.209004
 20
40.600309
 30
0.0
 10
181.259771
 20
41.651076
 30
0.0
 10
182.555960
 20
41.651080
 30
0.0
  0
SPLINE
  5
1bf
100
AcDbEntity
  8
Ebene_1
 62
7
100
AcDbSpline
 70
8
 71
3
 72
8
 73
4
 74
0
 40
0
 40
0
 40
0
 40
0
 40
1
 40
1
 40
1
 40
1
 10
182.555960
 20
41.651080
 30
0.0
 10
183.178415
 20
41.651084
 30
0.0
 10
183.775378
 20
41.403817
 30
0.0
 10
184.215522
 20
40.963676
 30
0.0
  0
SPLINE
  5
1c0
100
AcDbEntity
  8
Ebene_1
 62
7
100
AcDbSpline
 70
8
 71
3
 72
8
 73
4
 74
0
 40
0
 40
0
 40
0
 40
0
 40
1
 40
1
 40
1
 40
1
 10
184.215522
 20
40.963676
 30
0.0
 10
184.655667
 20
40.523536
 30
0.0
 10
184.902938
 20
39.926575
 30
0.0
 10
184.902940
 20
39.304120
 30
0.0
  0
LWPOLYLINE
  5
1c1
100
AcDbEntity
  8
Ebene_1
 62
7
100
AcDbPolyline
 90
1
 70
1
 10
39.472026
 20
39.030300
 30
0.0
  0
SPLINE
  5
1c2
100
AcDbEntity
  8
Ebene_1
 62
7
100
AcDbSpline
 70
8
 71
3
 72
8
 73
4
 74
0
 40
0
 40
0
 40
0
 40
0
 40
1
 40
1
 40
1
 40
1
 10
185.257800
 20
260.000000
 30
0.0
 10
185.257797
 20
259.377543
 30
0.0
 10
185.010524
 20
258.780582
 30
0.0
 10
184.570378
 20
258.340442
 30
0.0
  0
SPLINE
  5
1c3
100
AcDbEntity
  8
Ebene_1
 62
7
100
AcDbSpline
 70
8
 71
3
 72
8
 73
4
 74
0
 40
0
 40
0
 40
0
 40
0
 40
1
 40
1
 40
1
 40
1
 10
184.570378
 20
258.340442
 30
0.0
 10
184.130231
 20
257.900302
 30
0.0
 10
183.533267
 20
257.653037
 30
0.0
 10
182.910810
 20
257.653043
 30
0.0
  0
SPLINE
  5
1c4
100
AcDbEntity
  8
Ebene_1
 62
7
100
AcDbSpline
 70
8
 71
3
 72
8
 73
4
 74
0
 40
0
 40
0
 40
0
 40
0
 40
1
 40
1
 40
1
 40
1
 10
182.910810
 20
257.653043
 30
0.0
 10
181.614619
 20
257.653041
 30
0.0
 10
180.563845
 20
258.703809
 30
0.0
 10
180.563840
 20
260.000000
 30
0.0
  0
SPLINE
  5
1c5
100
AcDbEntity
  8
Ebene_1
 62
7
100
AcDbSpline
 70
8
 71
3
 72
8
 73
4
 74
0
 40
0
 40
0
 40
0
 40
0
 40
1
 40
1
 40
1
 40
1
 10
180.563840
 20
260.000000
 30
0.0
 10
180.563840
 20
260.622455
 30
0.0
 10
180.811109
 20
261.219416
 30
0.0
 10
181.251252
 20
261.659557
 30
0.0
  0
SPLINE
  5
1c6
100
AcDbEntity
  8
Ebene_1
 62
7
100
AcDbSpline
 70
8
 71
3
 72
8
 73
4
 74
0
 40
0
 40
0
 40
0
 40
0
 40
1
 40
1
 40
1
 40
1
 10
181.251252
 20
261.659557
 30
0.0
 10
181.691394
 20
262.099699
 30
0.0
 10
182.288355
 20
262.346968
 30
0.0
 10
182.910810
 20
262.346967
 30
0.0
  0
SPLINE
  5
1c7
100
AcDbEntity
  8
Ebene_1
 62
7
100
AcDbSpline
 70
8
 71
3
 72
8
 73
4
 74
0
 40
0
 40
0
 40
0
 40
0
 40
1
 40
1
 40
1
 40
1
 10
182.910810
 20
262.346967
 30
0.0
 10
183.533268
 20
262.346973
 30
0.0
 10
184.130235
 20
262.099707
 30
0.0
 10
184.570381
 20
261.659565
 30
0.0
  0
SPLINE
  5
1c8
100
AcDbEntity
  8
Ebene_1
 62
7
100
AcDbSpline
 70
8
 71
3
 72
8
 73
4
 74
0
 40
0
 40
0
 40
0
 40
0
 40
1
 40
1
 40
1
 40
1
 10
184.570381
 20
261.659565
 30
0.0
 10
185.010528
 20
261.219422
 30
0.0
 10
185.257800
 20
260.622458
 30
0.0
 10
185.257800
 20
260.000000
 30
0.0
  0
LWPOLYLINE
  5
1c9
100
AcDbEntity
  8
Ebene_1
 62
7
100
AcDbPolyline
 90
1
 70
1
 10
184.902940
 20
39.304120
 30
0.0
  0
SPLINE
  5
1ca
100
AcDbEntity
  8
Ebene_1
 62
7
100
AcDbSpline
 70
8
 71
3
 72
8
 73
4
 74
0
 40
0
 40
0
 40
0
 40
0
 40
1
 40
1
 40
1
 40
1
 10
39.745851
 20
260.000000
 30
0.0
 10
39.745846
 20
258.703814
 30
0.0
 10
38.695080
 20
257.653048
 30
0.0
 10
37.398894
 20
257.653043
 30
0.0
  0
SPLINE
  5
1cb
100
AcDbEntity
  8
Ebene_1
 62
7
100
AcDbSpline
 70
8
 71
3
 72
8
 73
4
 74
0
 40
0
 40
0
 40
0
 40
0
 40
1
 40
1
 40
1
 40
1
 10
37.398894
 20
257.653043
 30
0.0
 10
36.776437
 20
257.653035
 30
0.0
 10
36.179471
 20
257.900300
 30
0.0
 10
35.739323
 20
258.340440
 30
0.0
  0
SPLINE
  5
1cc
100
AcDbEntity
  8
Ebene_1
 62
7
100
AcDbSpline
 70
8
 71
3
 72
8
 73
4
 74
0
 40
0
 40
0
 40
0
 40
0
 40
1
 40
1
 40
1
 40
1
 10
35.739323
 20
258.340440
 30
0.0
 10
35.299176
 20
258.780581
 30
0.0
 10
35.051902
 20
259.377543
 30
0.0
 10
35.051899
 20
260.000000
 30
0.0
  0
SPLINE
  5
1cd
100
AcDbEntity
  8
Ebene_1
 62
7
100
AcDbSpline
 70
8
 71
3
 72
8
 73
4
 74
0
 40
0
 40
0
 40
0
 40
0
 40
1
 40
1
 40
1
 40
1
 10
35.051899
 20
260.000000
 30
0.0
 10
35.051899
 20
260.622459
 30
0.0
 10
35.299172
 20
261.219424
 30
0.0
 10
35.739320
 20
261.659566
 30
0.0
  0
SPLINE
  5
1ce
100
AcDbEntity
  8
Ebene_1
 62
7
100
AcDbSpline
 70
8
 71
3
 72
8
 73
4
 74
0
 40
0
 40
0
 40
0
 40
0
 40
1
 40
1
 40
1
 40
1
 10
35.739320
 20
261.659566
 30
0.0
 10
36.179467
 20
262.099709
 30
0.0
 10
36.776435
 20
262.346975
 30
0.0
 10
37.398894
 20
262.346967
 30
0.0
  0
SPLINE
  5
1cf
100
AcDbEntity
  8
Ebene_1
 62
7
100
AcDbSpline
 70
8
 71
3
 72
8
 73
4
 74
0
 40
0
 40
0
 40
0
 40
0
 40
1
 40
1
 40
1
 40
1
 10
37.398894
 20
262.346967
 30
0.0
 10
38.695084
 20
262.346962
 30
0.0
 10
39.745851
 20
261.296190
 30
0.0
 10
39.745851
 20
260.000000
 30
0.0
  0
LWPOLYLINE
  5
1d0
100
AcDbEntity
  8
Ebene_1
 62
7
100
AcDbPolyline
 90
1
 70
1
 10
185.257800
 20
260.000000
 30
0.0
  0
SPLINE
  5
1d1
100
AcDbEntity
  8
Ebene_1
 62
7
100
AcDbSpline
 70
8
 71
3
 72
8
 73
4
 74
0
 40
0
 40
0
 40
0
 40
0
 40
1
 40
1
 40
1
 40
1
 10
108.306710
 20
97.427190
 30
0.0
 10
108.109910
 20
98.465140
 30
0.0
 10
91.174914
 20
193.012300
 30
0.0
 10
91.174914
 20
193.073100
 30
0.0
  0
SPLINE
  5
1d2
100
AcDbEntity
  8
Ebene_1
 62
7
100
AcDbSpline
 70
8
 71
3
 72
8
 73
4
 74
0
 40
0
 40
0
 40
0
 40
0
 40
1
 40
1
 40
1
 40
1
 10
91.174914
 20
193.073100
 30
0.0
 10
91.174914
 20
193.159600
 30
0.0
 10
86.173068
 20
193.033100
 30
0.0
 10
83.658912
 20
192.883070
 30
0.0
  0
SPLINE
  5
1d3
100
AcDbEntity
  8
Ebene_1
 62
7
100
AcDbSpline
 70
8
 71
3
 72
8
 73
4
 74
0
 40
0
 40
0
 40
0
 40
0
 40
1
 40
1
 40
1
 40
1
 10
83.658912
 20
192.883070
 30
0.0
 10
76.176820
 20
192.436880
 30
0.0
 10
72.328574
 20
191.126660
 30
0.0
 10
70.468603
 20
188.392100
 30
0.0
  0
SPLINE
  5
1d4
100
AcDbEntity
  8
Ebene_1
 62
7
100
AcDbSpline
 70
8
 71
3
 72
8
 73
4
 74
0
 40
0
 40
0
 40
0
 40
0
 40
1
 40
1
 40
1
 40
1
 10
70.468603
 20
188.392100
 30
0.0
 10
69.782885
 20
187.383880
 30
0.0
 10
69.496564
 20
186.665020
 30
0.0
 10
69.197279
 20
185.200040
 30
0.0
  0
SPLINE
  5
1d5
100
AcDbEntity
  8
Ebene_1
 62
7
100
AcDbSpline
 70
8
 71
3
 72
8
 73
4
 74
0
 40
0
 40
0
 40
0
 40
0
 40
1
 40
1
 40
1
 40
1
 10
69.197279
 20
185.200040
 30
0.0
 10
69.075772
 20
184.604820
 30
0.0
 10
68.954039
 20
184.095630
 30
0.0
 10
68.926937
 20
184.068530
 30
0.0
  0
SPLINE
  5
1d6
100
AcDbEntity
  8
Ebene_1
 62
7
100
AcDbSpline
 70
8
 71
3
 72
8
 73
4
 74
0
 40
0
 40
0
 40
0
 40
0
 40
1
 40
1
 40
1
 40
1
 10
68.926937
 20
184.068530
 30
0.0
 10
68.835967
 20
183.977530
 30
0.0
 10
65.726472
 20
185.454860
 30
0.0
 10
64.168556
 20
186.329500
 30
0.0
  0
SPLINE
  5
1d7
100
AcDbEntity
  8
Ebene_1
 62
7
100
AcDbSpline
 70
8
 71
3
 72
8
 73
4
 74
0
 40
0
 40
0
 40
0
 40
0
 40
1
 40
1
 40
1
 40
1
 10
64.168556
 20
186.329500
 30
0.0
 10
59.508860
 20
188.945550
 30
0.0
 10
55.850586
 20
191.974480
 30
0.0
 10
53.361994
 20
195.277140
 30
0.0
  0
SPLINE
  5
1d8
100
AcDbEntity
  8
Ebene_1
 62
7
100
AcDbSpline
 70
8
 71
3
 72
8
 73
4
 74
0
 40
0
 40
0
 40
0
 40
0
 40
1
 40
1
 40
1
 40
1
 10
53.361994
 20
195.277140
 30
0.0
 10
52.996346
 20
195.762340
 30
0.0
 10
52.697211
 20
196.199020
 30
0.0
 10
52.697211
 20
196.247570
 30
0.0
  0
SPLINE
  5
1d9
100
AcDbEntity
  8
Ebene_1
 62
7
100
AcDbSpline
 70
8
 71
3
 72
8
 73
4
 74
0
 40
0
 40
0
 40
0
 40
0
 40
1
 40
1
 40
1
 40
1
 10
52.697211
 20
196.247570
 30
0.0
 10
52.697211
 20
196.296270
 30
0.0
 10
52.886537
 20
196.414180
 30
0.0
 10
53.117882
 20
196.509910
 30
0.0
  0
SPLINE
  5
1da
100
AcDbEntity
  8
Ebene_1
 62
7
100
AcDbSpline
 70
8
 71
3
 72
8
 73
4
 74
0
 40
0
 40
0
 40
0
 40
0
 40
1
 40
1
 40
1
 40
1
 10
53.117882
 20
196.509910
 30
0.0
 10
53.349283
 20
196.605810
 30
0.0
 10
54.346256
 20
197.035380
 30
0.0
 10
55.333475
 20
197.464840
 30
0.0
  0
SPLINE
  5
1db
100
AcDbEntity
  8
Ebene_1
 62
7
100
AcDbSpline
 70
8
 71
3
 72
8
 73
4
 74
0
 40
0
 40
0
 40
0
 40
0
 40
1
 40
1
 40
1
 40
1
 10
55.333475
 20
197.464840
 30
0.0
 10
66.644089
 20
202.385441
 30
0.0
 10
81.346183
 20
205.824874
 30
0.0
 10
94.540342
 20
206.636915
 30
0.0
  0
LWPOLYLINE
  5
1dc
100
AcDbEntity
  8
Ebene_1
 62
7
100
AcDbPolyline
 90
1
 70
1
 10
39.745851
 20
260.000000
 30
0.0
  0
SPLINE
  5
1dd
100
AcDbEntity
  8
Ebene_1
 62
7
100
AcDbSpline
 70
8
 71
3
 72
8
 73
4
 74
0
 40
0
 40
0
 40
0
 40
0
 40
1
 40
1
 40
1
 40
1
 10
102.040590
 20
199.005340
 30
0.0
 10
105.517870
 20
194.768160
 30
0.0
 10
108.401400
 20
191.343820
 30
0.0
 10
108.448420
 20
191.395680
 30
0.0
  0
SPLINE
  5
1de
100
AcDbEntity
  8
Ebene_1
 62
7
100
AcDbSpline
 70
8
 71
3
 72
8
 73
4
 74
0
 40
0
 40
0
 40
0
 40
0
 40
1
 40
1
 40
1
 40
1
 10
108.448420
 20
191.395680
 30
0.0
 10
108.495320
 20
191.447480
 30
0.0
 10
111.317690
 20
194.882390
 30
0.0
 10
114.720070
 20
199.028580
 30
0.0
  0
SPLINE
  5
1df
100
AcDbEntity
  8
Ebene_1
 62
7
100
AcDbSpline
 70
8
 71
3
 72
8
 73
4
 74
0
 40
0
 40
0
 40
0
 40
0
 40
1
 40
1
 40
1
 40
1
 10
114.720070
 20
199.028580
 30
0.0
 10
118.122460
 20
203.174788
 30
0.0
 10
120.958190
 20
206.599313
 30
0.0
 10
121.021700
 20
206.638573
 30
0.0
  0
SPLINE
  5
1e0
100
AcDbEntity
  8
Ebene_1
 62
7
100
AcDbSpline
 70
8
 71
3
 72
8
 73
4
 74
0
 40
0
 40
0
 40
0
 40
0
 40
1
 40
1
 40
1
 40
1
 10
121.021700
 20
206.638573
 30
0.0
 10
121.154190
 20
206.720433
 30
0.0
 10
123.983850
 20
206.538038
 30
0.0
 10
126.455520
 20
206.288114
 30
0.0
  0
SPLINE
  5
1e1
100
AcDbEntity
  8
Ebene_1
 62
7
100
AcDbSpline
 70
8
 71
3
 72
8
 73
4
 74
0
 40
0
 40
0
 40
0
 40
0
 40
1
 40
1
 40
1
 40
1
 10
126.455520
 20
206.288114
 30
0.0
 10
136.878970
 20
205.234467
 30
0.0
 10
147.347760
 20
202.822461
 30
0.0
 10
156.856320
 20
199.283780
 30
0.0
  0
SPLINE
  5
1e2
100
AcDbEntity
  8
Ebene_1
 62
7
100
AcDbSpline
 70
8
 71
3
 72
8
 73
4
 74
0
 40
0
 40
0
 40
0
 40
0
 40
1
 40
1
 40
1
 40
1
 10
156.856320
 20
199.283780
 30
0.0
 10
159.100400
 20
198.448660
 30
0.0
 10
162.710090
 20
196.958040
 30
0.0
 10
163.651530
 20
196.477780
 30
0.0
  0
LWPOLYLINE
  5
1e3
100
AcDbEntity
  8
Ebene_1
 62
7
100
AcDbPolyline
 90
3
 70
0
 10
94.540342
 20
206.636915
 30
0.0
 10
95.718190
 20
206.709385
 30
0.0
 10
102.040590
 20
199.005340
 30
0.0
  0
SPLINE
  5
1e4
100
AcDbEntity
  8
Ebene_1
 62
7
100
AcDbSpline
 70
8
 71
3
 72
8
 73
4
 74
0
 40
0
 40
0
 40
0
 40
0
 40
1
 40
1
 40
1
 40
1
 10
163.524000
 20
195.473420
 30
0.0
 10
161.319270
 20
192.442170
 30
0.0
 10
157.862910
 20
189.463330
 30
0.0
 10
153.582520
 20
186.905400
 30
0.0
  0
SPLINE
  5
1e5
100
AcDbEntity
  8
Ebene_1
 62
7
100
AcDbSpline
 70
8
 71
3
 72
8
 73
4
 74
0
 40
0
 40
0
 40
0
 40
0
 40
1
 40
1
 40
1
 40
1
 10
153.582520
 20
186.905400
 30
0.0
 10
152.405340
 20
186.201910
 30
0.0
 10
148.508470
 20
184.246020
 30
0.0
 10
147.977140
 20
184.091990
 30
0.0
  0
SPLINE
  5
1e6
100
AcDbEntity
  8
Ebene_1
 62
7
100
AcDbSpline
 70
8
 71
3
 72
8
 73
4
 74
0
 40
0
 40
0
 40
0
 40
0
 40
1
 40
1
 40
1
 40
1
 10
147.977140
 20
184.091990
 30
0.0
 10
147.757900
 20
184.028390
 30
0.0
 10
147.728480
 20
184.076090
 30
0.0
 10
147.655530
 20
184.614990
 30
0.0
  0
SPLINE
  5
1e7
100
AcDbEntity
  8
Ebene_1
 62
7
100
AcDbSpline
 70
8
 71
3
 72
8
 73
4
 74
0
 40
0
 40
0
 40
0
 40
0
 40
1
 40
1
 40
1
 40
1
 10
147.655530
 20
184.614990
 30
0.0
 10
147.611430
 20
184.941120
 30
0.0
 10
147.451910
 20
185.635720
 30
0.0
 10
147.301130
 20
186.158490
 30
0.0
  0
SPLINE
  5
1e8
100
AcDbEntity
  8
Ebene_1
 62
7
100
AcDbSpline
 70
8
 71
3
 72
8
 73
4
 74
0
 40
0
 40
0
 40
0
 40
0
 40
1
 40
1
 40
1
 40
1
 10
147.301130
 20
186.158490
 30
0.0
 10
146.113990
 20
190.275270
 30
0.0
 10
142.606340
 20
192.103340
 30
0.0
 10
134.588570
 20
192.783720
 30
0.0
  0
SPLINE
  5
1e9
100
AcDbEntity
  8
Ebene_1
 62
7
100
AcDbSpline
 70
8
 71
3
 72
8
 73
4
 74
0
 40
0
 40
0
 40
0
 40
0
 40
1
 40
1
 40
1
 40
1
 10
134.588570
 20
192.783720
 30
0.0
 10
132.842780
 20
192.931860
 30
0.0
 10
125.582220
 20
193.122000
 30
0.0
 10
125.490980
 20
193.021930
 30
0.0
  0
SPLINE
  5
1ea
100
AcDbEntity
  8
Ebene_1
 62
7
100
AcDbSpline
 70
8
 71
3
 72
8
 73
4
 74
0
 40
0
 40
0
 40
0
 40
0
 40
1
 40
1
 40
1
 40
1
 10
125.490980
 20
193.021930
 30
0.0
 10
125.444280
 20
192.970630
 30
0.0
 10
111.428090
 20
114.343930
 30
0.0
 10
108.470020
 20
97.539320
 30
0.0
  0
LWPOLYLINE
  5
1eb
100
AcDbEntity
  8
Ebene_1
 62
7
100
AcDbPolyline
 90
3
 70
0
 10
163.651530
 20
196.477780
 30
0.0
 10
164.091320
 20
196.253400
 30
0.0
 10
163.524000
 20
195.473420
 30
0.0
  0
SPLINE
  5
1ec
100
AcDbEntity
  8
Ebene_1
 62
7
100
AcDbSpline
 70
8
 71
3
 72
8
 73
4
 74
0
 40
0
 40
0
 40
0
 40
0
 40
1
 40
1
 40
1
 40
1
 10
164.091920
 20
200.489195
 30
0.0
 10
150.693860
 20
206.139771
 30
0.0
 10
135.472030
 20
209.735437
 30
0.0
 10
120.285610
 20
210.837009
 30
0.0
  0
SPLINE
  5
1ed
100
AcDbEntity
  8
Ebene_1
 62
7
100
AcDbSpline
 70
8
 71
3
 72
8
 73
4
 74
0
 40
0
 40
0
 40
0
 40
0
 40
1
 40
1
 40
1
 40
1
 10
120.285610
 20
210.837009
 30
0.0
 10
115.406570
 20
211.190922
 30
0.0
 10
105.270340
 20
211.306816
 30
0.0
 10
100.362100
 20
211.064815
 30
0.0
  0
SPLINE
  5
1ee
100
AcDbEntity
  8
Ebene_1
 62
7
100
AcDbSpline
 70
8
 71
3
 72
8
 73
4
 74
0
 40
0
 40
0
 40
0
 40
0
 40
1
 40
1
 40
1
 40
1
 10
100.362100
 20
211.064815
 30
0.0
 10
83.352755
 20
210.226169
 30
0.0
 10
67.703801
 20
206.759737
 30
0.0
 10
52.664298
 20
200.499222
 30
0.0
  0
SPLINE
  5
1ef
100
AcDbEntity
  8
Ebene_1
 62
7
100
AcDbSpline
 70
8
 71
3
 72
8
 73
4
 74
0
 40
0
 40
0
 40
0
 40
0
 40
1
 40
1
 40
1
 40
1
 10
52.664298
 20
200.499222
 30
0.0
 10
51.628102
 20
200.067906
 30
0.0
 10
50.715855
 20
199.739750
 30
0.0
 10
50.636988
 20
199.770000
 30
0.0
  0
SPLINE
  5
1f0
100
AcDbEntity
  8
Ebene_1
 62
7
100
AcDbSpline
 70
8
 71
3
 72
8
 73
4
 74
0
 40
0
 40
0
 40
0
 40
0
 40
1
 40
1
 40
1
 40
1
 10
50.636988
 20
199.770000
 30
0.0
 10
50.557938
 20
199.800400
 30
0.0
 10
49.909409
 20
201.003735
 30
0.0
 10
49.195453
 20
202.444406
 30
0.0
  0
SPLINE
  5
1f1
100
AcDbEntity
  8
Ebene_1
 62
7
100
AcDbSpline
 70
8
 71
3
 72
8
 73
4
 74
0
 40
0
 40
0
 40
0
 40
0
 40
1
 40
1
 40
1
 40
1
 10
49.195453
 20
202.444406
 30
0.0
 10
47.859550
 20
205.139832
 30
0.0
 10
47.236993
 20
206.540042
 30
0.0
 10
47.332149
 20
206.635197
 30
0.0
  0
SPLINE
  5
1f2
100
AcDbEntity
  8
Ebene_1
 62
7
100
AcDbSpline
 70
8
 71
3
 72
8
 73
4
 74
0
 40
0
 40
0
 40
0
 40
0
 40
1
 40
1
 40
1
 40
1
 10
47.332149
 20
206.635197
 30
0.0
 10
47.429609
 20
206.732627
 30
0.0
 10
51.351752
 20
208.214311
 30
0.0
 10
53.650775
 20
209.022278
 30
0.0
  0
SPLINE
  5
1f3
100
AcDbEntity
  8
Ebene_1
 62
7
100
AcDbSpline
 70
8
 71
3
 72
8
 73
4
 74
0
 40
0
 40
0
 40
0
 40
0
 40
1
 40
1
 40
1
 40
1
 10
53.650775
 20
209.022278
 30
0.0
 10
75.203092
 20
216.596813
 30
0.0
 10
98.220442
 20
219.735684
 30
0.0
 10
120.005180
 20
218.071074
 30
0.0
  0
SPLINE
  5
1f4
100
AcDbEntity
  8
Ebene_1
 62
7
100
AcDbSpline
 70
8
 71
3
 72
8
 73
4
 74
0
 40
0
 40
0
 40
0
 40
0
 40
1
 40
1
 40
1
 40
1
 10
120.005180
 20
218.071074
 30
0.0
 10
136.298890
 20
216.826046
 30
0.0
 10
151.654910
 20
213.389054
 30
0.0
 10
167.286350
 20
207.488573
 30
0.0
  0
SPLINE
  5
1f5
100
AcDbEntity
  8
Ebene_1
 62
7
100
AcDbSpline
 70
8
 71
3
 72
8
 73
4
 74
0
 40
0
 40
0
 40
0
 40
0
 40
1
 40
1
 40
1
 40
1
 10
167.286350
 20
207.488573
 30
0.0
 10
168.450140
 20
207.049277
 30
0.0
 10
169.422330
 20
206.669857
 30
0.0
 10
169.446780
 20
206.645402
 30
0.0
  0
SPLINE
  5
1f6
100
AcDbEntity
  8
Ebene_1
 62
7
100
AcDbSpline
 70
8
 71
3
 72
8
 73
4
 74
0
 40
0
 40
0
 40
0
 40
0
 40
1
 40
1
 40
1
 40
1
 10
169.446780
 20
206.645402
 30
0.0
 10
169.574570
 20
206.517633
 30
0.0
 10
166.449040
 20
199.992900
 30
0.0
 10
166.132350
 20
199.726270
 30
0.0
  0
SPLINE
  5
1f7
100
AcDbEntity
  8
Ebene_1
 62
7
100
AcDbSpline
 70
8
 71
3
 72
8
 73
4
 74
0
 40
0
 40
0
 40
0
 40
0
 40
1
 40
1
 40
1
 40
1
 10
166.132350
 20
199.726270
 30
0.0
 10
166.089850
 20
199.690470
 30
0.0
 10
165.171660
 20
200.033828
 30
0.0
 10
164.091920
 20
200.489195
 30
0.0
  0
LWPOLYLINE
  5
1f8
100
AcDbEntity
  8
Ebene_1
 62
7
100
AcDbPolyline
 90
3
 70
0
 10
108.470020
 20
97.539320
 30
0.0
 10
108.381120
 20
97.034530
 30
0.0
 10
108.306710
 20
97.427190
 30
0.0
  0
LWPOLYLINE
  5
1f9
100
AcDbEntity
  8
Ebene_1
 62
7
100
AcDbPolyline
 90
1
 70
1
 10
164.091920
 20
200.489195
 30
0.0
  0
LWPOLYLINE
  5
1fa
100
AcDbEntity
  8
Ebene_1
 62
7
100
AcDbPolyline
 90
12
 70
1
 10
60.082678
 20
67.966130
 30
0.0
 10
60.082678
 20
71.422920
 30
0.0
 10
50.494480
 20
71.422920
 30
0.0
 10
50.494480
 20
75.132040
 30
0.0
 10
58.821073
 20
75.132040
 30
0.0
 10
58.821073
 20
78.588840
 30
0.0
 10
50.494480
 20
78.588840
 30
0.0
 10
50.494480
 20
82.171800
 30
0.0
 10
59.956517
 20
82.171800
 30
0.0
 10
59.956517
 20
85.628600
 30
0.0
 10
46.633968
 20
85.628600
 30
0.0
 10
46.633968
 20
67.966130
 30
0.0
  0
LWPOLYLINE
  5
1fb
100
AcDbEntity
  8
Ebene_1
 62
7
100
AcDbPolyline
 90
6
 70
1
 10
76.229250
 20
67.966130
 30
0.0
 10
76.229250
 20
71.498620
 30
0.0
 10
67.423248
 20
71.498620
 30
0.0
 10
67.423248
 20
85.628600
 30
0.0
 10
63.537504
 20
85.628600
 30
0.0
 10
63.537504
 20
67.966130
 30
0.0
  0
LWPOLYLINE
  5
1fc
100
AcDbEntity
  8
Ebene_1
 62
7
100
AcDbPolyline
 90
12
 70
1
 10
92.608431
 20
67.966130
 30
0.0
 10
92.608431
 20
71.422920
 30
0.0
 10
83.020233
 20
71.422920
 30
0.0
 10
83.020233
 20
75.132040
 30
0.0
 10
91.346826
 20
75.132040
 30
0.0
 10
91.346826
 20
78.588840
 30
0.0
 10
83.020233
 20
78.588840
 30
0.0
 10
83.020233
 20
82.171800
 30
0.0
 10
92.482270
 20
82.171800
 30
0.0
 10
92.482270
 20
85.628600
 30
0.0
 10
79.159721
 20
85.628600
 30
0.0
 10
79.159721
 20
67.966130
 30
0.0
  0
SPLINE
  5
1fd
100
AcDbEntity
  8
Ebene_1
 62
7
100
AcDbSpline
 70
8
 71
3
 72
8
 73
4
 74
0
 40
0
 40
0
 40
0
 40
0
 40
1
 40
1
 40
1
 40
1
 10
109.108250
 20
73.315330
 30
0.0
 10
107.720490
 20
72.053730
 30
0.0
 10
106.484120
 20
71.246300
 30
0.0
 10
104.465550
 20
71.246300
 30
0.0
  0
SPLINE
  5
1fe
100
AcDbEntity
  8
Ebene_1
 62
7
100
AcDbSpline
 70
8
 71
3
 72
8
 73
4
 74
0
 40
0
 40
0
 40
0
 40
0
 40
1
 40
1
 40
1
 40
1
 10
104.465550
 20
71.246300
 30
0.0
 10
101.437700
 20
71.246300
 30
0.0
 10
99.343432
 20
73.769510
 30
0.0
 10
99.343432
 20
76.797360
 30
0.0
  0
LWPOLYLINE
  5
1ff
100
AcDbEntity
  8
Ebene_1
 62
7
100
AcDbPolyline
 90
2
 70
0
 10
111.581000
 20
70.817350
 30
0.0
 10
109.108250
 20
73.315330
 30
0.0
  0
SPLINE
  5
200
100
AcDbEntity
  8
Ebene_1
 62
7
100
AcDbSpline
 70
8
 71
3
 72
8
 73
4
 74
0
 40
0
 40
0
 40
0
 40
0
 40
1
 40
1
 40
1
 40
1
 10
99.343432
 20
76.847860
 30
0.0
 10
99.343432
 20
79.875720
 30
0.0
 10
101.488160
 20
82.348460
 30
0.0
 10
104.465550
 20
82.348460
 30
0.0
  0
SPLINE
  5
201
100
AcDbEntity
  8
Ebene_1
 62
7
100
AcDbSpline
 70
8
 71
3
 72
8
 73
4
 74
0
 40
0
 40
0
 40
0
 40
0
 40
1
 40
1
 40
1
 40
1
 10
104.465550
 20
82.348460
 30
0.0
 10
106.231800
 20
82.348460
 30
0.0
 10
107.619560
 20
81.591500
 30
0.0
 10
108.982090
 20
80.355130
 30
0.0
  0
LWPOLYLINE
  5
202
100
AcDbEntity
  8
Ebene_1
 62
7
100
AcDbPolyline
 90
2
 70
0
 10
99.343432
 20
76.797360
 30
0.0
 10
99.343432
 20
76.847860
 30
0.0
  0
SPLINE
  5
203
100
AcDbEntity
  8
Ebene_1
 62
7
100
AcDbSpline
 70
8
 71
3
 72
8
 73
4
 74
0
 40
0
 40
0
 40
0
 40
0
 40
1
 40
1
 40
1
 40
1
 10
111.454840
 20
83.206350
 30
0.0
 10
109.814750
 20
84.821210
 30
0.0
 10
107.821420
 20
85.931420
 30
0.0
 10
104.490780
 20
85.931420
 30
0.0
  0
SPLINE
  5
204
100
AcDbEntity
  8
Ebene_1
 62
7
100
AcDbSpline
 70
8
 71
3
 72
8
 73
4
 74
0
 40
0
 40
0
 40
0
 40
0
 40
1
 40
1
 40
1
 40
1
 10
104.490780
 20
85.931420
 30
0.0
 10
99.065879
 20
85.931420
 30
0.0
 10
95.281064
 20
81.818590
 30
0.0
 10
95.281064
 20
76.797400
 30
0.0
  0
LWPOLYLINE
  5
205
100
AcDbEntity
  8
Ebene_1
 62
7
100
AcDbPolyline
 90
2
 70
0
 10
108.982090
 20
80.355130
 30
0.0
 10
111.454840
 20
83.206350
 30
0.0
  0
SPLINE
  5
206
100
AcDbEntity
  8
Ebene_1
 62
7
100
AcDbSpline
 70
8
 71
3
 72
8
 73
4
 74
0
 40
0
 40
0
 40
0
 40
0
 40
1
 40
1
 40
1
 40
1
 10
95.281064
 20
76.746900
 30
0.0
 10
95.281064
 20
71.675240
 30
0.0
 10
99.141575
 20
67.663340
 30
0.0
 10
104.339390
 20
67.663340
 30
0.0
  0
SPLINE
  5
207
100
AcDbEntity
  8
Ebene_1
 62
7
100
AcDbSpline
 70
8
 71
3
 72
8
 73
4
 74
0
 40
0
 40
0
 40
0
 40
0
 40
1
 40
1
 40
1
 40
1
 10
104.339390
 20
67.663340
 30
0.0
 10
107.745720
 20
67.663340
 30
0.0
 10
109.764290
 20
68.874480
 30
0.0
 10
111.581000
 20
70.817350
 30
0.0
  0
LWPOLYLINE
  5
208
100
AcDbEntity
  8
Ebene_1
 62
7
100
AcDbPolyline
 90
2
 70
0
 10
95.281064
 20
76.797400
 30
0.0
 10
95.281064
 20
76.746900
 30
0.0
  0
LWPOLYLINE
  5
209
100
AcDbEntity
  8
Ebene_1
 62
7
100
AcDbPolyline
 90
1
 70
1
 10
111.581000
 20
70.817350
 30
0.0
  0
LWPOLYLINE
  5
20a
100
AcDbEntity
  8
Ebene_1
 62
7
100
AcDbPolyline
 90
8
 70
1
 10
128.064660
 20
82.045640
 30
0.0
 10
128.064660
 20
85.628600
 30
0.0
 10
113.430040
 20
85.628600
 30
0.0
 10
113.430040
 20
82.045640
 30
0.0
 10
118.804480
 20
82.045640
 30
0.0
 10
118.804480
 20
67.966130
 30
0.0
 10
122.690220
 20
67.966130
 30
0.0
 10
122.690220
 20
82.045640
 30
0.0
  0
SPLINE
  5
20b
100
AcDbEntity
  8
Ebene_1
 62
7
100
AcDbSpline
 70
8
 71
3
 72
8
 73
4
 74
0
 40
0
 40
0
 40
0
 40
0
 40
1
 40
1
 40
1
 40
1
 10
142.003810
 20
74.274150
 30
0.0
 10
144.249470
 20
75.106810
 30
0.0
 10
145.788630
 20
76.898290
 30
0.0
 10
145.788630
 20
79.749520
 30
0.0
  0
LWPOLYLINE
  5
20c
100
AcDbEntity
  8
Ebene_1
 62
7
100
AcDbPolyline
 90
2
 70
0
 10
146.318500
 20
67.966130
 30
0.0
 10
142.003810
 20
74.274150
 30
0.0
  0
SPLINE
  5
20d
100
AcDbEntity
  8
Ebene_1
 62
7
100
AcDbSpline
 70
8
 71
3
 72
8
 73
4
 74
0
 40
0
 40
0
 40
0
 40
0
 40
1
 40
1
 40
1
 40
1
 10
145.788630
 20
79.800020
 30
0.0
 10
145.788630
 20
83.433440
 30
0.0
 10
143.290650
 20
85.628640
 30
0.0
 10
139.127350
 20
85.628640
 30
0.0
  0
LWPOLYLINE
  5
20e
100
AcDbEntity
  8
Ebene_1
 62
7
100
AcDbPolyline
 90
2
 70
0
 10
145.788630
 20
79.749520
 30
0.0
 10
145.788630
 20
79.800020
 30
0.0
  0
SPLINE
  5
20f
100
AcDbEntity
  8
Ebene_1
 62
7
100
AcDbSpline
 70
8
 71
3
 72
8
 73
4
 74
0
 40
0
 40
0
 40
0
 40
0
 40
1
 40
1
 40
1
 40
1
 10
141.852420
 20
79.547660
 30
0.0
 10
141.852420
 20
78.058970
 30
0.0
 10
140.767440
 20
77.049680
 30
0.0
 10
138.875030
 20
77.049680
 30
0.0
  0
LWPOLYLINE
  5
210
100
AcDbEntity
  8
Ebene_1
 62
7
100
AcDbPolyline
 90
8
 70
0
 10
139.127350
 20
85.628640
 30
0.0
 10
131.053080
 20
85.628640
 30
0.0
 10
131.053080
 20
67.966170
 30
0.0
 10
134.938820
 20
67.966170
 30
0.0
 10
134.938820
 20
73.618160
 30
0.0
 10
137.991910
 20
73.618160
 30
0.0
 10
141.776720
 20
67.966170
 30
0.0
 10
146.318500
 20
67.966130
 30
0.0
  0
SPLINE
  5
211
100
AcDbEntity
  8
Ebene_1
 62
7
100
AcDbSpline
 70
8
 71
3
 72
8
 73
4
 74
0
 40
0
 40
0
 40
0
 40
0
 40
1
 40
1
 40
1
 40
1
 10
138.799340
 20
82.121330
 30
0.0
 10
140.691740
 20
82.121330
 30
0.0
 10
141.852420
 20
81.263440
 30
0.0
 10
141.852420
 20
79.598120
 30
0.0
  0
LWPOLYLINE
  5
212
100
AcDbEntity
  8
Ebene_1
 62
7
100
AcDbPolyline
 90
4
 70
0
 10
138.875030
 20
77.049680
 30
0.0
 10
134.938820
 20
77.049680
 30
0.0
 10
134.938820
 20
82.121330
 30
0.0
 10
138.799340
 20
82.121330
 30
0.0
  0
LWPOLYLINE
  5
213
100
AcDbEntity
  8
Ebene_1
 62
7
100
AcDbPolyline
 90
2
 70
0
 10
141.852420
 20
79.598120
 30
0.0
 10
141.852420
 20
79.547660
 30
0.0
  0
LWPOLYLINE
  5
214
100
AcDbEntity
  8
Ebene_1
 62
7
100
AcDbPolyline
 90
4
 70
1
 10
153.349590
 20
67.966130
 30
0.0
 10
153.349590
 20
85.628600
 30
0.0
 10
149.463840
 20
85.628600
 30
0.0
 10
149.463840
 20
67.966130
 30
0.0
  0
SPLINE
  5
215
100
AcDbEntity
  8
Ebene_1
 62
7
100
AcDbSpline
 70
8
 71
3
 72
8
 73
4
 74
0
 40
0
 40
0
 40
0
 40
0
 40
1
 40
1
 40
1
 40
1
 10
170.808620
 20
73.315330
 30
0.0
 10
169.420850
 20
72.053730
 30
0.0
 10
168.184480
 20
71.246300
 30
0.0
 10
166.165910
 20
71.246300
 30
0.0
  0
SPLINE
  5
216
100
AcDbEntity
  8
Ebene_1
 62
7
100
AcDbSpline
 70
8
 71
3
 72
8
 73
4
 74
0
 40
0
 40
0
 40
0
 40
0
 40
1
 40
1
 40
1
 40
1
 10
166.165910
 20
71.246300
 30
0.0
 10
163.138060
 20
71.246300
 30
0.0
 10
161.043800
 20
73.769510
 30
0.0
 10
161.043800
 20
76.797360
 30
0.0
  0
LWPOLYLINE
  5
217
100
AcDbEntity
  8
Ebene_1
 62
7
100
AcDbPolyline
 90
2
 70
0
 10
173.281360
 20
70.817350
 30
0.0
 10
170.808620
 20
73.315330
 30
0.0
  0
SPLINE
  5
218
100
AcDbEntity
  8
Ebene_1
 62
7
100
AcDbSpline
 70
8
 71
3
 72
8
 73
4
 74
0
 40
0
 40
0
 40
0
 40
0
 40
1
 40
1
 40
1
 40
1
 10
161.043800
 20
76.847860
 30
0.0
 10
161.043800
 20
79.875720
 30
0.0
 10
163.188520
 20
82.348460
 30
0.0
 10
166.165910
 20
82.348460
 30
0.0
  0
SPLINE
  5
219
100
AcDbEntity
  8
Ebene_1
 62
7
100
AcDbSpline
 70
8
 71
3
 72
8
 73
4
 74
0
 40
0
 40
0
 40
0
 40
0
 40
1
 40
1
 40
1
 40
1
 10
166.165910
 20
82.348460
 30
0.0
 10
167.932160
 20
82.348460
 30
0.0
 10
169.319920
 20
81.591500
 30
0.0
 10
170.682460
 20
80.355130
 30
0.0
  0
LWPOLYLINE
  5
21a
100
AcDbEntity
  8
Ebene_1
 62
7
100
AcDbPolyline
 90
2
 70
0
 10
161.043800
 20
76.797360
 30
0.0
 10
161.043800
 20
76.847860
 30
0.0
  0
SPLINE
  5
21b
100
AcDbEntity
  8
Ebene_1
 62
7
100
AcDbSpline
 70
8
 71
3
 72
8
 73
4
 74
0
 40
0
 40
0
 40
0
 40
0
 40
1
 40
1
 40
1
 40
1
 10
173.155200
 20
83.206350
 30
0.0
 10
171.515120
 20
84.821210
 30
0.0
 10
169.521780
 20
85.931420
 30
0.0
 10
166.191140
 20
85.931420
 30
0.0
  0
SPLINE
  5
21c
100
AcDbEntity
  8
Ebene_1
 62
7
100
AcDbSpline
 70
8
 71
3
 72
8
 73
4
 74
0
 40
0
 40
0
 40
0
 40
0
 40
1
 40
1
 40
1
 40
1
 10
166.191140
 20
85.931420
 30
0.0
 10
160.766240
 20
85.931420
 30
0.0
 10
156.981430
 20
81.818590
 30
0.0
 10
156.981430
 20
76.797400
 30
0.0
  0
LWPOLYLINE
  5
21d
100
AcDbEntity
  8
Ebene_1
 62
7
100
AcDbPolyline
 90
2
 70
0
 10
170.682460
 20
80.355130
 30
0.0
 10
173.155200
 20
83.206350
 30
0.0
  0
SPLINE
  5
21e
100
AcDbEntity
  8
Ebene_1
 62
7
100
AcDbSpline
 70
8
 71
3
 72
8
 73
4
 74
0
 40
0
 40
0
 40
0
 40
0
 40
1
 40
1
 40
1
 40
1
 10
156.981430
 20
76.746900
 30
0.0
 10
156.981430
 20
71.675240
 30
0.0
 10
160.841940
 20
67.663340
 30
0.0
 10
166.039750
 20
67.663340
 30
0.0
  0
SPLINE
  5
21f
100
AcDbEntity
  8
Ebene_1
 62
7
100
AcDbSpline
 70
8
 71
3
 72
8
 73
4
 74
0
 40
0
 40
0
 40
0
 40
0
 40
1
 40
1
 40
1
 40
1
 10
166.039750
 20
67.663340
 30
0.0
 10
169.446080
 20
67.663340
 30
0.0
 10
171.464650
 20
68.874480
 30
0.0
 10
173.281360
 20
70.817350
 30
0.0
  0
LWPOLYLINE
  5
220
100
AcDbEntity
  8
Ebene_1
 62
7
100
AcDbPolyline
 90
2
 70
0
 10
156.981430
 20
76.797400
 30
0.0
 10
156.981430
 20
76.746900
 30
0.0
  0
LWPOLYLINE
  5
221
100
AcDbEntity
  8
Ebene_1
 62
7
100
AcDbPolyline
 90
1
 70
1
 10
173.281360
 20
70.817350
 30
0.0
  0
LWPOLYLINE
  5
222
100
AcDbEntity
  8
Ebene_1
 62
7
100
AcDbPolyline
 90
7
 70
1
 10
62.315521
 20
60.396500
 30
0.0
 10
58.126993
 20
60.396500
 30
0.0
 10
53.509518
 20
47.957070
 30
0.0
 10
48.892044
 20
60.396500
 30
0.0
 10
44.602587
 20
60.396500
 30
0.0
 10
51.743271
 20
42.607870
 30
0.0
 10
55.174837
 20
42.607870
 30
0.0
  0
LWPOLYLINE
  5
223
100
AcDbEntity
  8
Ebene_1
 62
7
100
AcDbPolyline
 90
12
 70
1
 10
78.489297
 20
42.734030
 30
0.0
 10
78.489297
 20
46.190820
 30
0.0
 10
68.901099
 20
46.190820
 30
0.0
 10
68.901099
 20
49.899940
 30
0.0
 10
77.227692
 20
49.899940
 30
0.0
 10
77.227692
 20
53.356740
 30
0.0
 10
68.901099
 20
53.356740
 30
0.0
 10
68.901099
 20
56.939700
 30
0.0
 10
78.363136
 20
56.939700
 30
0.0
 10
78.363136
 20
60.396500
 30
0.0
 10
65.040587
 20
60.396500
 30
0.0
 10
65.040587
 20
42.734030
 30
0.0
  0
LWPOLYLINE
  5
224
100
AcDbEntity
  8
Ebene_1
 62
7
100
AcDbPolyline
 90
12
 70
1
 10
96.881526
 20
42.734030
 30
0.0
 10
96.881526
 20
60.396500
 30
0.0
 10
92.995783
 20
60.396500
 30
0.0
 10
92.995783
 20
53.407200
 30
0.0
 10
85.829867
 20
53.407200
 30
0.0
 10
85.829867
 20
60.396500
 30
0.0
 10
81.944123
 20
60.396500
 30
0.0
 10
81.944123
 20
42.734030
 30
0.0
 10
85.829867
 20
42.734030
 30
0.0
 10
85.829867
 20
49.824250
 30
0.0
 10
92.995783
 20
49.824250
 30
0.0
 10
92.995783
 20
42.734030
 30
0.0
  0
LWPOLYLINE
  5
225
100
AcDbEntity
  8
Ebene_1
 62
7
100
AcDbPolyline
 90
4
 70
1
 10
105.176970
 20
42.734030
 30
0.0
 10
105.176970
 20
60.396500
 30
0.0
 10
101.291230
 20
60.396500
 30
0.0
 10
101.291230
 20
42.734030
 30
0.0
  0
SPLINE
  5
226
100
AcDbEntity
  8
Ebene_1
 62
7
100
AcDbSpline
 70
8
 71
3
 72
8
 73
4
 74
0
 40
0
 40
0
 40
0
 40
0
 40
1
 40
1
 40
1
 40
1
 10
122.636010
 20
48.083230
 30
0.0
 10
121.248250
 20
46.821630
 30
0.0
 10
120.011870
 20
46.014200
 30
0.0
 10
117.993310
 20
46.014200
 30
0.0
  0
SPLINE
  5
227
100
AcDbEntity
  8
Ebene_1
 62
7
100
AcDbSpline
 70
8
 71
3
 72
8
 73
4
 74
0
 40
0
 40
0
 40
0
 40
0
 40
1
 40
1
 40
1
 40
1
 10
117.993310
 20
46.014200
 30
0.0
 10
114.965450
 20
46.014200
 30
0.0
 10
112.871190
 20
48.537410
 30
0.0
 10
112.871190
 20
51.565260
 30
0.0
  0
LWPOLYLINE
  5
228
100
AcDbEntity
  8
Ebene_1
 62
7
100
AcDbPolyline
 90
2
 70
0
 10
125.108760
 20
45.585250
 30
0.0
 10
122.636010
 20
48.083230
 30
0.0
  0
SPLINE
  5
229
100
AcDbEntity
  8
Ebene_1
 62
7
100
AcDbSpline
 70
8
 71
3
 72
8
 73
4
 74
0
 40
0
 40
0
 40
0
 40
0
 40
1
 40
1
 40
1
 40
1
 10
112.871190
 20
51.615760
 30
0.0
 10
112.871190
 20
54.643620
 30
0.0
 10
115.015920
 20
57.116360
 30
0.0
 10
117.993310
 20
57.116360
 30
0.0
  0
SPLINE
  5
22a
100
AcDbEntity
  8
Ebene_1
 62
7
100
AcDbSpline
 70
8
 71
3
 72
8
 73
4
 74
0
 40
0
 40
0
 40
0
 40
0
 40
1
 40
1
 40
1
 40
1
 10
117.993310
 20
57.116360
 30
0.0
 10
119.759550
 20
57.116360
 30
0.0
 10
121.147320
 20
56.359400
 30
0.0
 10
122.509850
 20
55.123030
 30
0.0
  0
LWPOLYLINE
  5
22b
100
AcDbEntity
  8
Ebene_1
 62
7
100
AcDbPolyline
 90
2
 70
0
 10
112.871190
 20
51.565260
 30
0.0
 10
112.871190
 20
51.615760
 30
0.0
  0
SPLINE
  5
22c
100
AcDbEntity
  8
Ebene_1
 62
7
100
AcDbSpline
 70
8
 71
3
 72
8
 73
4
 74
0
 40
0
 40
0
 40
0
 40
0
 40
1
 40
1
 40
1
 40
1
 10
124.982600
 20
57.974250
 30
0.0
 10
123.342510
 20
59.589110
 30
0.0
 10
121.349170
 20
60.699320
 30
0.0
 10
118.018540
 20
60.699320
 30
0.0
  0
SPLINE
  5
22d
100
AcDbEntity
  8
Ebene_1
 62
7
100
AcDbSpline
 70
8
 71
3
 72
8
 73
4
 74
0
 40
0
 40
0
 40
0
 40
0
 40
1
 40
1
 40
1
 40
1
 10
118.018540
 20
60.699320
 30
0.0
 10
112.593640
 20
60.699320
 30
0.0
 10
108.808820
 20
56.586490
 30
0.0
 10
108.808820
 20
51.565300
 30
0.0
  0
LWPOLYLINE
  5
22e
100
AcDbEntity
  8
Ebene_1
 62
7
100
AcDbPolyline
 90
2
 70
0
 10
122.509850
 20
55.123030
 30
0.0
 10
124.982600
 20
57.974250
 30
0.0
  0
SPLINE
  5
22f
100
AcDbEntity
  8
Ebene_1
 62
7
100
AcDbSpline
 70
8
 71
3
 72
8
 73
4
 74
0
 40
0
 40
0
 40
0
 40
0
 40
1
 40
1
 40
1
 40
1
 10
108.808820
 20
51.514800
 30
0.0
 10
108.808820
 20
46.443140
 30
0.0
 10
112.669330
 20
42.431240
 30
0.0
 10
117.867140
 20
42.431240
 30
0.0
  0
SPLINE
  5
230
100
AcDbEntity
  8
Ebene_1
 62
7
100
AcDbSpline
 70
8
 71
3
 72
8
 73
4
 74
0
 40
0
 40
0
 40
0
 40
0
 40
1
 40
1
 40
1
 40
1
 10
117.867140
 20
42.431240
 30
0.0
 10
121.273480
 20
42.431240
 30
0.0
 10
123.292050
 20
43.642380
 30
0.0
 10
125.108760
 20
45.585250
 30
0.0
  0
LWPOLYLINE
  5
231
100
AcDbEntity
  8
Ebene_1
 62
7
100
AcDbPolyline
 90
2
 70
0
 10
108.808820
 20
51.565300
 30
0.0
 10
108.808820
 20
51.514800
 30
0.0
  0
LWPOLYLINE
  5
232
100
AcDbEntity
  8
Ebene_1
 62
7
100
AcDbPolyline
 90
1
 70
1
 10
125.108760
 20
45.585250
 30
0.0
  0
LWPOLYLINE
  5
233
100
AcDbEntity
  8
Ebene_1
 62
7
100
AcDbPolyline
 90
6
 70
1
 10
140.911150
 20
42.734030
 30
0.0
 10
140.911150
 20
46.266520
 30
0.0
 10
132.105150
 20
46.266520
 30
0.0
 10
132.105150
 20
60.396500
 30
0.0
 10
128.219400
 20
60.396500
 30
0.0
 10
128.219400
 20
42.734030
 30
0.0
  0
LWPOLYLINE
  5
234
100
AcDbEntity
  8
Ebene_1
 62
7
100
AcDbPolyline
 90
12
 70
1
 10
157.290330
 20
42.734030
 30
0.0
 10
157.290330
 20
46.190820
 30
0.0
 10
147.702130
 20
46.190820
 30
0.0
 10
147.702130
 20
49.899940
 30
0.0
 10
156.028720
 20
49.899940
 30
0.0
 10
156.028720
 20
53.356740
 30
0.0
 10
147.702130
 20
53.356740
 30
0.0
 10
147.702130
 20
56.939700
 30
0.0
 10
157.164170
 20
56.939700
 30
0.0
 10
157.164170
 20
60.396500
 30
0.0
 10
143.841620
 20
60.396500
 30
0.0
 10
143.841620
 20
42.734030
 30
0.0
  0
SPLINE
  5
235
100
AcDbEntity
  8
Ebene_1
 62
7
100
AcDbSpline
 70
8
 71
3
 72
8
 73
4
 74
0
 40
0
 40
0
 40
0
 40
0
 40
1
 40
1
 40
1
 40
1
 10
173.512590
 20
48.007570
 30
0.0
 10
173.512590
 20
51.085890
 30
0.0
 10
171.494030
 20
52.372730
 30
0.0
 10
167.911070
 20
53.306320
 30
0.0
  0
SPLINE
  5
236
100
AcDbEntity
  8
Ebene_1
 62
7
100
AcDbSpline
 70
8
 71
3
 72
8
 73
4
 74
0
 40
0
 40
0
 40
0
 40
0
 40
1
 40
1
 40
1
 40
1
 10
167.911070
 20
53.306320
 30
0.0
 10
164.857980
 20
54.088510
 30
0.0
 10
164.101020
 20
54.466990
 30
0.0
 10
164.101020
 20
55.627670
 30
0.0
  0
LWPOLYLINE
  5
237
100
AcDbEntity
  8
Ebene_1
 62
7
100
AcDbPolyline
 90
2
 70
0
 10
173.512590
 20
47.957070
 30
0.0
 10
173.512590
 20
48.007570
 30
0.0
  0
SPLINE
  5
238
100
AcDbEntity
  8
Ebene_1
 62
7
100
AcDbSpline
 70
8
 71
3
 72
8
 73
4
 74
0
 40
0
 40
0
 40
0
 40
0
 40
1
 40
1
 40
1
 40
1
 10
164.101020
 20
55.678170
 30
0.0
 10
164.101020
 20
56.536060
 30
0.0
 10
164.883220
 20
57.217330
 30
0.0
 10
166.371910
 20
57.217330
 30
0.0
  0
SPLINE
  5
239
100
AcDbEntity
  8
Ebene_1
 62
7
100
AcDbSpline
 70
8
 71
3
 72
8
 73
4
 74
0
 40
0
 40
0
 40
0
 40
0
 40
1
 40
1
 40
1
 40
1
 10
166.371910
 20
57.217330
 30
0.0
 10
167.860600
 20
57.217330
 30
0.0
 10
169.399760
 20
56.561300
 30
0.0
 10
170.964150
 20
55.476320
 30
0.0
  0
LWPOLYLINE
  5
23a
100
AcDbEntity
  8
Ebene_1
 62
7
100
AcDbPolyline
 90
2
 70
0
 10
164.101020
 20
55.627670
 30
0.0
 10
164.101020
 20
55.678170
 30
0.0
  0
SPLINE
  5
23b
100
AcDbEntity
  8
Ebene_1
 62
7
100
AcDbSpline
 70
8
 71
3
 72
8
 73
4
 74
0
 40
0
 40
0
 40
0
 40
0
 40
1
 40
1
 40
1
 40
1
 10
172.982720
 20
58.403240
 30
0.0
 10
171.191240
 20
59.841470
 30
0.0
 10
168.996050
 20
60.648900
 30
0.0
 10
166.422370
 20
60.648900
 30
0.0
  0
SPLINE
  5
23c
100
AcDbEntity
  8
Ebene_1
 62
7
100
AcDbSpline
 70
8
 71
3
 72
8
 73
4
 74
0
 40
0
 40
0
 40
0
 40
0
 40
1
 40
1
 40
1
 40
1
 10
166.422370
 20
60.648900
 30
0.0
 10
162.814180
 20
60.648900
 30
0.0
 10
160.240510
 20
58.529400
 30
0.0
 10
160.240510
 20
55.324920
 30
0.0
  0
LWPOLYLINE
  5
23d
100
AcDbEntity
  8
Ebene_1
 62
7
100
AcDbPolyline
 90
2
 70
0
 10
170.964150
 20
55.476320
 30
0.0
 10
172.982720
 20
58.403240
 30
0.0
  0
SPLINE
  5
23e
100
AcDbEntity
  8
Ebene_1
 62
7
100
AcDbSpline
 70
8
 71
3
 72
8
 73
4
 74
0
 40
0
 40
0
 40
0
 40
0
 40
1
 40
1
 40
1
 40
1
 10
160.240510
 20
55.274420
 30
0.0
 10
160.240510
 20
51.767160
 30
0.0
 10
162.536630
 20
50.783110
 30
0.0
 10
166.094360
 20
49.874750
 30
0.0
  0
SPLINE
  5
23f
100
AcDbEntity
  8
Ebene_1
 62
7
100
AcDbSpline
 70
8
 71
3
 72
8
 73
4
 74
0
 40
0
 40
0
 40
0
 40
0
 40
1
 40
1
 40
1
 40
1
 10
166.094360
 20
49.874750
 30
0.0
 10
169.046510
 20
49.117790
 30
0.0
 10
169.652080
 20
48.613150
 30
0.0
 10
169.652080
 20
47.629090
 30
0.0
  0
LWPOLYLINE
  5
240
100
AcDbEntity
  8
Ebene_1
 62
7
100
AcDbPolyline
 90
2
 70
0
 10
160.240510
 20
55.324920
 30
0.0
 10
160.240510
 20
55.274420
 30
0.0
  0
SPLINE
  5
241
100
AcDbEntity
  8
Ebene_1
 62
7
100
AcDbSpline
 70
8
 71
3
 72
8
 73
4
 74
0
 40
0
 40
0
 40
0
 40
0
 40
1
 40
1
 40
1
 40
1
 10
169.652080
 20
47.578590
 30
0.0
 10
169.652080
 20
46.544070
 30
0.0
 10
168.693260
 20
45.913270
 30
0.0
 10
167.103640
 20
45.913270
 30
0.0
  0
SPLINE
  5
242
100
AcDbEntity
  8
Ebene_1
 62
7
100
AcDbSpline
 70
8
 71
3
 72
8
 73
4
 74
0
 40
0
 40
0
 40
0
 40
0
 40
1
 40
1
 40
1
 40
1
 10
167.103640
 20
45.913270
 30
0.0
 10
165.085070
 20
45.913270
 30
0.0
 10
163.419760
 20
46.745930
 30
0.0
 10
161.830130
 20
48.058000
 30
0.0
  0
LWPOLYLINE
  5
243
100
AcDbEntity
  8
Ebene_1
 62
7
100
AcDbPolyline
 90
2
 70
0
 10
169.652080
 20
47.629090
 30
0.0
 10
169.652080
 20
47.578590
 30
0.0
  0
SPLINE
  5
244
100
AcDbEntity
  8
Ebene_1
 62
7
100
AcDbSpline
 70
8
 71
3
 72
8
 73
4
 74
0
 40
0
 40
0
 40
0
 40
0
 40
1
 40
1
 40
1
 40
1
 10
159.534010
 20
45.307700
 30
0.0
 10
161.653510
 20
43.415290
 30
0.0
 10
164.353340
 20
42.481700
 30
0.0
 10
167.027950
 20
42.481700
 30
0.0
  0
SPLINE
  5
245
100
AcDbEntity
  8
Ebene_1
 62
7
100
AcDbSpline
 70
8
 71
3
 72
8
 73
4
 74
0
 40
0
 40
0
 40
0
 40
0
 40
1
 40
1
 40
1
 40
1
 10
167.027950
 20
42.481700
 30
0.0
 10
170.837990
 20
42.481700
 30
0.0
 10
173.512590
 20
44.449810
 30
0.0
 10
173.512590
 20
47.957070
 30
0.0
  0
LWPOLYLINE
  5
246
100
AcDbEntity
  8
Ebene_1
 62
7
100
AcDbPolyline
 90
2
 70
0
 10
161.830130
 20
48.058000
 30
0.0
 10
159.534010
 20
45.307700
 30
0.0
  0
LWPOLYLINE
  5
247
100
AcDbEntity
  8
Ebene_1
 62
7
100
AcDbPolyline
 90
1
 70
1
 10
173.512590
 20
47.957070
 30
0.0
  0
LWPOLYLINE
  5
248
100
AcDbEntity
  8
Ebene_1
 62
7
100
AcDbPolyline
 90
9
 70
1
 10
159.649250
 20
242.115337
 30
0.0
 10
159.649250
 20
229.160903
 30
0.0
 10
160.116735
 20
229.160903
 30
0.0
 10
164.590702
 20
229.160903
 30
0.0
 10
164.590702
 20
237.173879
 30
0.0
 10
179.681691
 20
237.173879
 30
0.0
 10
179.681691
 20
229.160903
 30
0.0
 10
184.623151
 20
229.160903
 30
0.0
 10
184.623151
 20
242.115337
 30
0.0
  0
SPLINE
  5
249
100
AcDbEntity
  8
Ebene_1
 62
7
100
AcDbSpline
 70
8
 71
3
 72
8
 73
4
 74
0
 40
0
 40
0
 40
0
 40
0
 40
1
 40
1
 40
1
 40
1
 10
159.649250
 20
249.660828
 30
0.0
 10
159.649250
 20
248.446071
 30
0.0
 10
160.090612
 20
247.357839
 30
0.0
 10
160.938489
 20
246.487047
 30
0.0
  0
LWPOLYLINE
  5
24a
100
AcDbEntity
  8
Ebene_1
 62
7
100
AcDbPolyline
 90
2
 70
0
 10
159.649250
 20
250.128313
 30
0.0
 10
159.649250
 20
249.660828
 30
0.0
  0
SPLINE
  5
24b
100
AcDbEntity
  8
Ebene_1
 62
7
100
AcDbSpline
 70
8
 71
3
 72
8
 73
4
 74
0
 40
0
 40
0
 40
0
 40
0
 40
1
 40
1
 40
1
 40
1
 10
160.944098
 20
246.483307
 30
0.0
 10
161.796603
 20
245.630807
 30
0.0
 10
162.889750
 20
245.186768
 30
0.0
 10
164.123358
 20
245.186768
 30
0.0
  0
LWPOLYLINE
  5
24c
100
AcDbEntity
  8
Ebene_1
 62
7
100
AcDbPolyline
 90
3
 70
0
 10
160.938489
 20
246.487047
 30
0.0
 10
160.942228
 20
246.485177
 30
0.0
 10
160.944098
 20
246.483307
 30
0.0
  0
SPLINE
  5
24d
100
AcDbEntity
  8
Ebene_1
 62
7
100
AcDbSpline
 70
8
 71
3
 72
8
 73
4
 74
0
 40
0
 40
0
 40
0
 40
0
 40
1
 40
1
 40
1
 40
1
 10
180.149315
 20
245.186768
 30
0.0
 10
181.345300
 20
245.186768
 30
0.0
 10
182.422730
 20
245.631382
 30
0.0
 10
183.292055
 20
246.477828
 30
0.0
  0
SPLINE
  5
24e
100
AcDbEntity
  8
Ebene_1
 62
7
100
AcDbSpline
 70
8
 71
3
 72
8
 73
4
 74
0
 40
0
 40
0
 40
0
 40
0
 40
1
 40
1
 40
1
 40
1
 10
183.292055
 20
246.477828
 30
0.0
 10
184.166456
 20
247.329222
 30
0.0
 10
184.623292
 20
248.424245
 30
0.0
 10
184.623292
 20
249.660740
 30
0.0
  0
LWPOLYLINE
  5
24f
100
AcDbEntity
  8
Ebene_1
 62
7
100
AcDbPolyline
 90
2
 70
0
 10
164.123358
 20
245.186768
 30
0.0
 10
180.149315
 20
245.186768
 30
0.0
  0
LWPOLYLINE
  5
250
100
AcDbEntity
  8
Ebene_1
 62
7
100
AcDbPolyline
 90
3
 70
0
 10
184.623292
 20
249.660740
 30
0.0
 10
184.623292
 20
250.128225
 30
0.0
 10
159.649250
 20
250.128313
 30
0.0
  0
SPLINE
  5
251
100
AcDbEntity
  8
Ebene_1
 62
7
100
AcDbSpline
 70
8
 71
3
 72
8
 73
4
 74
0
 40
0
 40
0
 40
0
 40
0
 40
1
 40
1
 40
1
 40
1
 10
35.119411
 20
249.660828
 30
0.0
 10
35.119411
 20
248.446071
 30
0.0
 10
35.562596
 20
247.357839
 30
0.0
 10
36.410472
 20
246.487047
 30
0.0
  0
LWPOLYLINE
  5
252
100
AcDbEntity
  8
Ebene_1
 62
7
100
AcDbPolyline
 90
2
 70
0
 10
35.119411
 20
250.128313
 30
0.0
 10
35.119411
 20
249.660828
 30
0.0
  0
SPLINE
  5
253
100
AcDbEntity
  8
Ebene_1
 62
7
100
AcDbSpline
 70
8
 71
3
 72
8
 73
4
 74
0
 40
0
 40
0
 40
0
 40
0
 40
1
 40
1
 40
1
 40
1
 10
36.414212
 20
246.483307
 30
0.0
 10
37.266717
 20
245.630806
 30
0.0
 10
38.359864
 20
245.186768
 30
0.0
 10
39.593471
 20
245.186768
 30
0.0
  0
LWPOLYLINE
  5
254
100
AcDbEntity
  8
Ebene_1
 62
7
100
AcDbPolyline
 90
3
 70
0
 10
36.410472
 20
246.487047
 30
0.0
 10
36.412342
 20
246.485177
 30
0.0
 10
36.414212
 20
246.483307
 30
0.0
  0
SPLINE
  5
255
100
AcDbEntity
  8
Ebene_1
 62
7
100
AcDbSpline
 70
8
 71
3
 72
8
 73
4
 74
0
 40
0
 40
0
 40
0
 40
0
 40
1
 40
1
 40
1
 40
1
 10
55.619429
 20
245.186856
 30
0.0
 10
56.815413
 20
245.186856
 30
0.0
 10
57.892844
 20
245.631470
 30
0.0
 10
58.762169
 20
246.477916
 30
0.0
  0
SPLINE
  5
256
100
AcDbEntity
  8
Ebene_1
 62
7
100
AcDbSpline
 70
8
 71
3
 72
8
 73
4
 74
0
 40
0
 40
0
 40
0
 40
0
 40
1
 40
1
 40
1
 40
1
 10
58.762169
 20
246.477916
 30
0.0
 10
59.636570
 20
247.329309
 30
0.0
 10
60.093396
 20
248.424332
 30
0.0
 10
60.093396
 20
249.660828
 30
0.0
  0
LWPOLYLINE
  5
257
100
AcDbEntity
  8
Ebene_1
 62
7
100
AcDbPolyline
 90
7
 70
0
 10
39.593471
 20
245.186768
 30
0.0
 10
45.135725
 20
245.186768
 30
0.0
 10
45.135725
 20
229.160903
 30
0.0
 10
45.603209
 20
229.160903
 30
0.0
 10
50.077176
 20
229.160903
 30
0.0
 10
50.077176
 20
245.186856
 30
0.0
 10
55.619429
 20
245.186856
 30
0.0
  0
LWPOLYLINE
  5
258
100
AcDbEntity
  8
Ebene_1
 62
7
100
AcDbPolyline
 90
3
 70
0
 10
60.093396
 20
249.660828
 30
0.0
 10
60.093396
 20
250.128313
 30
0.0
 10
35.119411
 20
250.128313
 30
0.0
  0
SPLINE
  5
259
100
AcDbEntity
  8
Ebene_1
 62
7
100
AcDbSpline
 70
8
 71
3
 72
8
 73
4
 74
0
 40
0
 40
0
 40
0
 40
0
 40
1
 40
1
 40
1
 40
1
 10
66.250962
 20
233.634875
 30
0.0
 10
66.250962
 20
232.420118
 30
0.0
 10
66.694146
 20
231.331886
 30
0.0
 10
67.542023
 20
230.461094
 30
0.0
  0
LWPOLYLINE
  5
25a
100
AcDbEntity
  8
Ebene_1
 62
7
100
AcDbPolyline
 90
2
 70
0
 10
66.250962
 20
234.102360
 30
0.0
 10
66.250962
 20
233.634875
 30
0.0
  0
SPLINE
  5
25b
100
AcDbEntity
  8
Ebene_1
 62
7
100
AcDbSpline
 70
8
 71
3
 72
8
 73
4
 74
0
 40
0
 40
0
 40
0
 40
0
 40
1
 40
1
 40
1
 40
1
 10
67.545763
 20
230.455578
 30
0.0
 10
68.398258
 20
229.603077
 30
0.0
 10
69.491405
 20
229.160864
 30
0.0
 10
70.725022
 20
229.160864
 30
0.0
  0
LWPOLYLINE
  5
25c
100
AcDbEntity
  8
Ebene_1
 62
7
100
AcDbPolyline
 90
3
 70
0
 10
67.542023
 20
230.461094
 30
0.0
 10
67.543893
 20
230.459224
 30
0.0
 10
67.545763
 20
230.455578
 30
0.0
  0
SPLINE
  5
25d
100
AcDbEntity
  8
Ebene_1
 62
7
100
AcDbSpline
 70
8
 71
3
 72
8
 73
4
 74
0
 40
0
 40
0
 40
0
 40
0
 40
1
 40
1
 40
1
 40
1
 10
86.750970
 20
229.160864
 30
0.0
 10
87.946955
 20
229.160864
 30
0.0
 10
89.026217
 20
229.605479
 30
0.0
 10
89.895533
 20
230.451925
 30
0.0
  0
SPLINE
  5
25e
100
AcDbEntity
  8
Ebene_1
 62
7
100
AcDbSpline
 70
8
 71
3
 72
8
 73
4
 74
0
 40
0
 40
0
 40
0
 40
0
 40
1
 40
1
 40
1
 40
1
 10
89.895533
 20
230.451925
 30
0.0
 10
90.769944
 20
231.303318
 30
0.0
 10
91.224947
 20
232.398340
 30
0.0
 10
91.224947
 20
233.634837
 30
0.0
  0
LWPOLYLINE
  5
25f
100
AcDbEntity
  8
Ebene_1
 62
7
100
AcDbPolyline
 90
2
 70
0
 10
70.725022
 20
229.160864
 30
0.0
 10
86.750970
 20
229.160864
 30
0.0
  0
LWPOLYLINE
  5
260
100
AcDbEntity
  8
Ebene_1
 62
7
100
AcDbPolyline
 90
3
 70
0
 10
91.224947
 20
233.634837
 30
0.0
 10
91.224947
 20
234.102321
 30
0.0
 10
66.250962
 20
234.102360
 30
0.0
  0
SPLINE
  5
261
100
AcDbEntity
  8
Ebene_1
 62
7
100
AcDbSpline
 70
8
 71
3
 72
8
 73
4
 74
0
 40
0
 40
0
 40
0
 40
0
 40
1
 40
1
 40
1
 40
1
 10
66.250962
 20
241.647852
 30
0.0
 10
66.250962
 20
240.433094
 30
0.0
 10
66.694146
 20
239.344863
 30
0.0
 10
67.542023
 20
238.474071
 30
0.0
  0
LWPOLYLINE
  5
262
100
AcDbEntity
  8
Ebene_1
 62
7
100
AcDbPolyline
 90
2
 70
0
 10
66.250962
 20
242.115337
 30
0.0
 10
66.250962
 20
241.647852
 30
0.0
  0
SPLINE
  5
263
100
AcDbEntity
  8
Ebene_1
 62
7
100
AcDbSpline
 70
8
 71
3
 72
8
 73
4
 74
0
 40
0
 40
0
 40
0
 40
0
 40
1
 40
1
 40
1
 40
1
 10
67.545763
 20
238.468555
 30
0.0
 10
68.398258
 20
237.616055
 30
0.0
 10
69.491405
 20
237.173841
 30
0.0
 10
70.725022
 20
237.173841
 30
0.0
  0
LWPOLYLINE
  5
264
100
AcDbEntity
  8
Ebene_1
 62
7
100
AcDbPolyline
 90
3
 70
0
 10
67.542023
 20
238.474071
 30
0.0
 10
67.543893
 20
238.472201
 30
0.0
 10
67.545763
 20
238.468555
 30
0.0
  0
SPLINE
  5
265
100
AcDbEntity
  8
Ebene_1
 62
7
100
AcDbSpline
 70
8
 71
3
 72
8
 73
4
 74
0
 40
0
 40
0
 40
0
 40
0
 40
1
 40
1
 40
1
 40
1
 10
86.750970
 20
237.173841
 30
0.0
 10
87.946955
 20
237.173841
 30
0.0
 10
89.026217
 20
237.618456
 30
0.0
 10
89.895533
 20
238.464903
 30
0.0
  0
SPLINE
  5
266
100
AcDbEntity
  8
Ebene_1
 62
7
100
AcDbSpline
 70
8
 71
3
 72
8
 73
4
 74
0
 40
0
 40
0
 40
0
 40
0
 40
1
 40
1
 40
1
 40
1
 10
89.895533
 20
238.464903
 30
0.0
 10
90.769944
 20
239.316296
 30
0.0
 10
91.224947
 20
240.411318
 30
0.0
 10
91.224947
 20
241.647815
 30
0.0
  0
LWPOLYLINE
  5
267
100
AcDbEntity
  8
Ebene_1
 62
7
100
AcDbPolyline
 90
2
 70
0
 10
70.725022
 20
237.173841
 30
0.0
 10
86.750970
 20
237.173841
 30
0.0
  0
LWPOLYLINE
  5
268
100
AcDbEntity
  8
Ebene_1
 62
7
100
AcDbPolyline
 90
3
 70
0
 10
91.224947
 20
241.647815
 30
0.0
 10
91.224947
 20
242.115299
 30
0.0
 10
66.250962
 20
242.115337
 30
0.0
  0
SPLINE
  5
269
100
AcDbEntity
  8
Ebene_1
 62
7
100
AcDbSpline
 70
8
 71
3
 72
8
 73
4
 74
0
 40
0
 40
0
 40
0
 40
0
 40
1
 40
1
 40
1
 40
1
 10
66.250962
 20
249.660828
 30
0.0
 10
66.250962
 20
248.446071
 30
0.0
 10
66.694146
 20
247.357839
 30
0.0
 10
67.542023
 20
246.487047
 30
0.0
  0
LWPOLYLINE
  5
26a
100
AcDbEntity
  8
Ebene_1
 62
7
100
AcDbPolyline
 90
2
 70
0
 10
66.250962
 20
250.128313
 30
0.0
 10
66.250962
 20
249.660828
 30
0.0
  0
SPLINE
  5
26b
100
AcDbEntity
  8
Ebene_1
 62
7
100
AcDbSpline
 70
8
 71
3
 72
8
 73
4
 74
0
 40
0
 40
0
 40
0
 40
0
 40
1
 40
1
 40
1
 40
1
 10
67.545763
 20
246.483307
 30
0.0
 10
68.398258
 20
245.630806
 30
0.0
 10
69.491405
 20
245.186768
 30
0.0
 10
70.725022
 20
245.186768
 30
0.0
  0
LWPOLYLINE
  5
26c
100
AcDbEntity
  8
Ebene_1
 62
7
100
AcDbPolyline
 90
3
 70
0
 10
67.542023
 20
246.487047
 30
0.0
 10
67.543893
 20
246.485177
 30
0.0
 10
67.545763
 20
246.483307
 30
0.0
  0
SPLINE
  5
26d
100
AcDbEntity
  8
Ebene_1
 62
7
100
AcDbSpline
 70
8
 71
3
 72
8
 73
4
 74
0
 40
0
 40
0
 40
0
 40
0
 40
1
 40
1
 40
1
 40
1
 10
86.750970
 20
245.186768
 30
0.0
 10
87.946955
 20
245.186768
 30
0.0
 10
89.026217
 20
245.631382
 30
0.0
 10
89.895533
 20
246.477828
 30
0.0
  0
SPLINE
  5
26e
100
AcDbEntity
  8
Ebene_1
 62
7
100
AcDbSpline
 70
8
 71
3
 72
8
 73
4
 74
0
 40
0
 40
0
 40
0
 40
0
 40
1
 40
1
 40
1
 40
1
 10
89.895533
 20
246.477828
 30
0.0
 10
90.769944
 20
247.329221
 30
0.0
 10
91.224947
 20
248.424244
 30
0.0
 10
91.224947
 20
249.660740
 30
0.0
  0
LWPOLYLINE
  5
26f
100
AcDbEntity
  8
Ebene_1
 62
7
100
AcDbPolyline
 90
2
 70
0
 10
70.725022
 20
245.186768
 30
0.0
 10
86.750970
 20
245.186768
 30
0.0
  0
LWPOLYLINE
  5
270
100
AcDbEntity
  8
Ebene_1
 62
7
100
AcDbPolyline
 90
3
 70
0
 10
91.224947
 20
249.660740
 30
0.0
 10
91.224947
 20
250.128225
 30
0.0
 10
66.250962
 20
250.128313
 30
0.0
  0
SPLINE
  5
271
100
AcDbEntity
  8
Ebene_1
 62
7
100
AcDbSpline
 70
8
 71
3
 72
8
 73
4
 74
0
 40
0
 40
0
 40
0
 40
0
 40
1
 40
1
 40
1
 40
1
 10
101.858302
 20
234.102360
 30
0.0
 10
100.640608
 20
234.102360
 30
0.0
 10
99.548845
 20
233.646405
 30
0.0
 10
98.679043
 20
232.776604
 30
0.0
  0
SPLINE
  5
272
100
AcDbEntity
  8
Ebene_1
 62
7
100
AcDbSpline
 70
8
 71
3
 72
8
 73
4
 74
0
 40
0
 40
0
 40
0
 40
0
 40
1
 40
1
 40
1
 40
1
 10
98.679043
 20
232.776604
 30
0.0
 10
97.828034
 20
231.925591
 30
0.0
 10
97.384335
 20
230.843145
 30
0.0
 10
97.384335
 20
229.628387
 30
0.0
  0
LWPOLYLINE
  5
273
100
AcDbEntity
  8
Ebene_1
 62
7
100
AcDbPolyline
 90
5
 70
0
 10
97.384335
 20
250.128313
 30
0.0
 10
97.384335
 20
237.173879
 30
0.0
 10
117.416776
 20
237.173879
 30
0.0
 10
117.416776
 20
234.102360
 30
0.0
 10
101.858302
 20
234.102360
 30
0.0
  0
SPLINE
  5
274
100
AcDbEntity
  8
Ebene_1
 62
7
100
AcDbSpline
 70
8
 71
3
 72
8
 73
4
 74
0
 40
0
 40
0
 40
0
 40
0
 40
1
 40
1
 40
1
 40
1
 10
117.884260
 20
245.186856
 30
0.0
 10
119.080244
 20
245.186856
 30
0.0
 10
120.157675
 20
245.631470
 30
0.0
 10
121.026999
 20
246.477916
 30
0.0
  0
SPLINE
  5
275
100
AcDbEntity
  8
Ebene_1
 62
7
100
AcDbSpline
 70
8
 71
3
 72
8
 73
4
 74
0
 40
0
 40
0
 40
0
 40
0
 40
1
 40
1
 40
1
 40
1
 10
121.026999
 20
246.477916
 30
0.0
 10
121.901401
 20
247.329310
 30
0.0
 10
122.358227
 20
248.424333
 30
0.0
 10
122.358227
 20
249.660828
 30
0.0
  0
LWPOLYLINE
  5
276
100
AcDbEntity
  8
Ebene_1
 62
7
100
AcDbPolyline
 90
8
 70
0
 10
97.384335
 20
229.628387
 30
0.0
 10
97.384335
 20
229.160903
 30
0.0
 10
97.851820
 20
229.160903
 30
0.0
 10
122.358227
 20
229.160903
 30
0.0
 10
122.358227
 20
242.115337
 30
0.0
 10
102.325787
 20
242.115337
 30
0.0
 10
102.325787
 20
245.186856
 30
0.0
 10
117.884260
 20
245.186856
 30
0.0
  0
LWPOLYLINE
  5
277
100
AcDbEntity
  8
Ebene_1
 62
7
100
AcDbPolyline
 90
3
 70
0
 10
122.358227
 20
249.660828
 30
0.0
 10
122.358227
 20
250.128313
 30
0.0
 10
97.384335
 20
250.128313
 30
0.0
  0
SPLINE
  5
278
100
AcDbEntity
  8
Ebene_1
 62
7
100
AcDbSpline
 70
8
 71
3
 72
8
 73
4
 74
0
 40
0
 40
0
 40
0
 40
0
 40
1
 40
1
 40
1
 40
1
 10
149.015801
 20
229.160903
 30
0.0
 10
150.211786
 20
229.160903
 30
0.0
 10
151.291048
 20
229.605517
 30
0.0
 10
152.160364
 20
230.451963
 30
0.0
  0
SPLINE
  5
279
100
AcDbEntity
  8
Ebene_1
 62
7
100
AcDbSpline
 70
8
 71
3
 72
8
 73
4
 74
0
 40
0
 40
0
 40
0
 40
0
 40
1
 40
1
 40
1
 40
1
 10
152.160364
 20
230.451963
 30
0.0
 10
153.034766
 20
231.303357
 30
0.0
 10
153.489778
 20
232.398380
 30
0.0
 10
153.489778
 20
233.634875
 30
0.0
  0
LWPOLYLINE
  5
27a
100
AcDbEntity
  8
Ebene_1
 62
7
100
AcDbPolyline
 90
4
 70
0
 10
128.515877
 20
250.128313
 30
0.0
 10
128.515877
 20
229.160903
 30
0.0
 10
128.983361
 20
229.160903
 30
0.0
 10
149.015801
 20
229.160903
 30
0.0
  0
LWPOLYLINE
  5
27b
100
AcDbEntity
  8
Ebene_1
 62
7
100
AcDbPolyline
 90
5
 70
0
 10
153.489778
 20
233.634875
 30
0.0
 10
153.489778
 20
234.102360
 30
0.0
 10
133.457337
 20
234.102360
 30
0.0
 10
133.457337
 20
250.128313
 30
0.0
 10
128.515877
 20
250.128313
 30
0.0
  0
ENDSEC
  0
SECTION
  2
OBJECTS
  0
DICTIONARY
  5
C
330
0
100
AcDbDictionary
  3
ACAD_GROUP
350
D
  3
ACAD_MLINESTYLE
350
17
  0
DICTIONARY
  5
D
330
C
100
AcDbDictionary
  0
DICTIONARY
  5
1A
330
C
100
AcDbDictionary
  0
DICTIONARY
  5
17
330
C
100
AcDbDictionary
  3
STANDARD
350
18
  0
DICTIONARY
  5
19
330
C
100
AcDbDictionary
  0
ENDSEC
  0
EOF
