<?xml version="1.0" encoding="UTF-8" standalone="no"?>
<svg
   sodipodi:docname="Tesla Fahrer Parkplatz.svg"
   inkscape:version="1.1.1 (3bf5ae0d25, 2021-09-20)"
   id="svg1604"
   version="1.1"
   viewBox="0 0 300 380"
   height="380mm"
   width="300mm"
   xmlns:inkscape="http://www.inkscape.org/namespaces/inkscape"
   xmlns:sodipodi="http://sodipodi.sourceforge.net/DTD/sodipodi-0.dtd"
   xmlns="http://www.w3.org/2000/svg"
   xmlns:svg="http://www.w3.org/2000/svg"
   xmlns:rdf="http://www.w3.org/1999/02/22-rdf-syntax-ns#"
   xmlns:cc="http://creativecommons.org/ns#"
   xmlns:dc="http://purl.org/dc/elements/1.1/">
  <defs
     id="defs1598" />
  <sodipodi:namedview
     inkscape:window-maximized="0"
     inkscape:window-y="21"
     inkscape:window-x="2002"
     inkscape:window-height="1146"
     inkscape:window-width="1864"
     showgrid="true"
     inkscape:document-rotation="0"
     inkscape:current-layer="layer1"
     inkscape:document-units="mm"
     inkscape:cy="904.53861"
     inkscape:cx="413.13937"
     inkscape:zoom="0.54945139"
     inkscape:pageshadow="2"
     inkscape:pageopacity="0.0"
     borderopacity="1.0"
     bordercolor="#666666"
     pagecolor="#ffffff"
     id="base"
     inkscape:pagecheckerboard="0">
    <inkscape:grid
       id="grid2187"
       type="xygrid" />
  </sodipodi:namedview>
  <metadata
     id="metadata1601">
    <rdf:RDF>
      <cc:Work
         rdf:about="">
        <dc:format>image/svg+xml</dc:format>
        <dc:type
           rdf:resource="http://purl.org/dc/dcmitype/StillImage" />
      </cc:Work>
    </rdf:RDF>
  </metadata>
  <g
     id="layer1"
     inkscape:groupmode="layer"
     inkscape:label="Ebene 1">
    <path
       d="M 0,0 H 300 V 380 H 0 Z"
       style="fill:none;stroke:#000000;stroke-width:0.394277"
       id="rect2189" />
    <path
       id="rect2020-3-2-0-0-6-7-7-8-8-8"
       style="fill:#d8dcdd;fill-opacity:1;stroke:#000000;stroke-width:0.539028;stroke-miterlimit:4;stroke-dasharray:none;stroke-opacity:1"
       d="m 31.04267,195.81685 h 239.71065 c 11.11293,0 20.05947,8.96078 20.05947,20.09142 v 134.61256 c 0,11.13064 -8.94654,20.09142 -20.05947,20.09142 H 31.04267 c -11.11294,0 -20.05947,-8.96078 -20.05947,-20.09142 V 215.90827 c 0,-11.13064 8.94653,-20.09142 20.05947,-20.09142 z" />
    <g
       transform="matrix(0.69538926,0,0,0.69538926,444.89098,134.42397)"
       id="g3569-4-7-8-9"
       style="fill:#000000;fill-opacity:1">
      <text
         id="text38386-4-2-7-2-5-8-2-1"
         y="274.7468"
         x="-365.82175"
         style="font-style:normal;font-variant:normal;font-weight:normal;font-stretch:normal;font-size:52.8744px;line-height:0.8;font-family:TESLA;-inkscape-font-specification:TESLA;text-align:center;text-anchor:middle;fill:#000000;fill-opacity:1;stroke-width:1.32187"
         xml:space="preserve"><tspan
           id="tspan2140-7-1"
           style="font-style:normal;font-variant:normal;font-weight:normal;font-stretch:normal;font-size:37.705px;font-family:'Gotham Black';-inkscape-font-specification:'Gotham Black, ';text-align:center;text-anchor:middle;fill:#000000;fill-opacity:1;stroke-width:1.32187"
           y="274.7468"
           x="-365.82175"
           sodipodi:role="line">PARKPLATZ</tspan></text>
    </g>
    <g
       transform="translate(0.898,378.46726)"
       id="g40775-6-4-4-3-3-9-0">
      <circle
         style="fill:#000000;fill-opacity:1;stroke:none;stroke-width:1.5;stroke-miterlimit:4;stroke-dasharray:none;stroke-opacity:1"
         id="path38845-5-6-8-9-0-4-3"
         cx="27.499996"
         cy="-167.5"
         r="2.5" />
      <circle
         style="fill:#000000;fill-opacity:1;stroke:none;stroke-width:1.5;stroke-miterlimit:4;stroke-dasharray:none;stroke-opacity:1"
         id="path38847-0-5-3-0-4-0-7"
         cx="27.499996"
         cy="-27.499996"
         r="2.5" />
      <circle
         style="fill:#000000;fill-opacity:1;stroke:none;stroke-width:1.5;stroke-miterlimit:4;stroke-dasharray:none;stroke-opacity:1"
         id="path38849-7-1-9-3-9-1-6"
         cx="272.5"
         cy="-27.499996"
         r="2.5" />
      <circle
         style="fill:#000000;fill-opacity:1;stroke:none;stroke-width:1.5;stroke-miterlimit:4;stroke-dasharray:none;stroke-opacity:1"
         id="path38851-7-3-0-5-3-2-1"
         cx="272.5"
         cy="-167.5"
         r="2.5" />
    </g>
    <path
       sodipodi:nodetypes="csscccccscsscscssssccsscccsccccsssccscsssccs"
       inkscape:connector-curvature="0"
       id="path2190-3-1"
       d="M 88.075144,351.50622 C 87.85663,350.35377 69.053866,245.37876 69.053866,245.31124 c 0,-0.0958 -5.553528,0.0445 -8.345014,0.21102 -8.307284,0.49541 -12.579954,1.95016 -14.645037,4.98633 -0.761388,1.11943 -1.079242,1.9176 -1.411558,3.54414 -0.135001,0.66089 -0.27009,1.22623 -0.300169,1.25632 -0.101203,0.10124 -3.553475,-1.53926 -5.283193,-2.51037 -5.173646,-2.90457 -9.235365,-6.26761 -11.998479,-9.93452 -0.405941,-0.53872 -0.738047,-1.0236 -0.738047,-1.07749 0,-0.0539 0.210176,-0.18498 0.467047,-0.29129 0.256895,-0.10628 1.363866,-0.58343 2.459931,-1.06026 12.558089,-5.46332 28.88175,-9.28207 43.531092,-10.18365 l 1.307778,-0.0805 7.019687,8.55373 c 3.860802,4.70454 7.062383,8.5066 7.114574,8.44899 0.05214,-0.0575 3.185718,-3.87127 6.963342,-8.47481 3.777626,-4.60352 6.92612,-8.4057 6.99663,-8.4493 0.14712,-0.0909 3.28885,0.11179 6.03313,0.38912 11.57306,1.16985 23.19641,3.84784 33.75371,7.77683 2.49158,0.92727 6.4994,2.58227 7.54466,3.11551 l 0.48833,0.24913 -0.6299,0.86603 c -2.44792,3.36558 -6.28548,6.67299 -11.03794,9.51306 -1.30702,0.78108 -5.63369,2.9527 -6.22362,3.12374 -0.24346,0.0707 -0.2761,0.0177 -0.35707,-0.58071 -0.0491,-0.36211 -0.22611,-1.13331 -0.39349,-1.71375 -1.31809,-4.57087 -5.21259,-6.60055 -14.11462,-7.35598 -1.93833,-0.16448 -9.99969,-0.37558 -10.10098,-0.2645 -0.0518,0.0568 -15.613882,87.35559 -18.898189,106.01362 l -0.09862,0.56049 z M 150.01294,237.0772 c -14.87577,-6.27377 -31.77641,-10.266 -48.63775,-11.48904 -5.417146,-0.39294 -16.671309,-0.52163 -22.120911,-0.25294 -18.885341,0.93116 -36.260217,4.77988 -52.958496,11.73085 -1.150443,0.4789 -2.163328,0.84322 -2.250874,0.80964 -0.08756,-0.0337 -0.807798,-1.36981 -1.600569,-2.96937 -1.483227,-2.99268 -2.174433,-4.54732 -2.068772,-4.65298 0.108094,-0.10809 4.462924,-1.75327 7.01548,-2.65035 23.929397,-8.40988 49.485348,-11.89494 73.672772,-10.04674 18.09076,1.38234 35.14042,5.19839 52.49584,11.7496 1.29216,0.48774 2.3716,0.90903 2.39873,0.93617 0.14186,0.14186 -3.32839,7.38619 -3.68,7.68221 -0.0471,0.0397 -1.06666,-0.34145 -2.26545,-0.84705 z"
       style="fill:#c50000;fill-opacity:1;stroke-width:1.1263" />
    <g
       transform="matrix(1.1949481,0,0,1.1949481,569.00403,-259.87282)"
       id="g3569-4-7-2-4"
       style="fill:#000000;fill-opacity:1">
      <g
         transform="matrix(0.83015935,0,0,0.83015935,-209.00631,410.50501)"
         id="g2199-6-0"
         style="fill:#000000;fill-opacity:1">
        <path
           style="color:#000000;font-style:normal;font-variant:normal;font-weight:normal;font-stretch:normal;font-size:medium;line-height:1.55;font-family:TESLA;-inkscape-font-specification:TESLA;font-variant-ligatures:normal;font-variant-position:normal;font-variant-caps:normal;font-variant-numeric:normal;font-variant-alternates:normal;font-variant-east-asian:normal;font-feature-settings:normal;font-variation-settings:normal;text-indent:0;text-align:start;text-decoration:none;text-decoration-line:none;text-decoration-style:solid;text-decoration-color:#000000;letter-spacing:3.30133px;word-spacing:normal;text-transform:none;writing-mode:lr-tb;direction:ltr;text-orientation:mixed;dominant-baseline:auto;baseline-shift:baseline;text-anchor:start;white-space:normal;shape-padding:0;shape-margin:0;inline-size:0;clip-rule:nonzero;display:inline;overflow:visible;visibility:visible;isolation:auto;mix-blend-mode:normal;color-interpolation:sRGB;color-interpolation-filters:linearRGB;solid-color:#000000;solid-opacity:1;vector-effect:none;fill:#000000;fill-opacity:1;fill-rule:nonzero;stroke:none;stroke-width:1;stroke-linecap:butt;stroke-linejoin:miter;stroke-miterlimit:4;stroke-dasharray:none;stroke-dashoffset:0;stroke-opacity:1;color-rendering:auto;image-rendering:auto;shape-rendering:auto;text-rendering:auto;enable-background:accumulate;stop-color:#000000"
           d="m -76.48676,47.517686 v 13.855469 h 0.5 4.78515 v -8.570312 h 16.14063 v 8.570312 h 5.28516 V 47.517686 Z"
           id="path2187-1-1" />
        <path
           style="color:#000000;font-style:normal;font-variant:normal;font-weight:normal;font-stretch:normal;font-size:medium;line-height:1.55;font-family:TESLA;-inkscape-font-specification:TESLA;font-variant-ligatures:normal;font-variant-position:normal;font-variant-caps:normal;font-variant-numeric:normal;font-variant-alternates:normal;font-variant-east-asian:normal;font-feature-settings:normal;font-variation-settings:normal;text-indent:0;text-align:start;text-decoration:none;text-decoration-line:none;text-decoration-style:solid;text-decoration-color:#000000;letter-spacing:3.30133px;word-spacing:normal;text-transform:none;writing-mode:lr-tb;direction:ltr;text-orientation:mixed;dominant-baseline:auto;baseline-shift:baseline;text-anchor:start;white-space:normal;shape-padding:0;shape-margin:0;inline-size:0;clip-rule:nonzero;display:inline;overflow:visible;visibility:visible;isolation:auto;mix-blend-mode:normal;color-interpolation:sRGB;color-interpolation-filters:linearRGB;solid-color:#000000;solid-opacity:1;vector-effect:none;fill:#000000;fill-opacity:1;fill-rule:nonzero;stroke:none;stroke-width:1;stroke-linecap:butt;stroke-linejoin:miter;stroke-miterlimit:4;stroke-dasharray:none;stroke-dashoffset:0;stroke-opacity:1;color-rendering:auto;image-rendering:auto;shape-rendering:auto;text-rendering:auto;enable-background:accumulate;stop-color:#000000"
           d="m -76.48676,38.947374 v 0.5 c 0,1.299249 0.47206,2.463172 1.37891,3.394531 l 0.004,0.002 0.002,0.002 c 0.9118,0.911795 2.08098,1.386719 3.40039,1.386719 h 17.14063 c 1.27917,0 2.43154,-0.475539 3.36133,-1.380859 0.93522,-0.910612 1.42383,-2.081798 1.42383,-3.404297 v -0.5 z"
           id="path2152-2-5" />
        <path
           style="color:#000000;font-style:normal;font-variant:normal;font-weight:normal;font-stretch:normal;font-size:medium;line-height:1.55;font-family:TESLA;-inkscape-font-specification:TESLA;font-variant-ligatures:normal;font-variant-position:normal;font-variant-caps:normal;font-variant-numeric:normal;font-variant-alternates:normal;font-variant-east-asian:normal;font-feature-settings:normal;font-variation-settings:normal;text-indent:0;text-align:start;text-decoration:none;text-decoration-line:none;text-decoration-style:solid;text-decoration-color:#000000;letter-spacing:3.30133px;word-spacing:normal;text-transform:none;writing-mode:lr-tb;direction:ltr;text-orientation:mixed;dominant-baseline:auto;baseline-shift:baseline;text-anchor:start;white-space:normal;shape-padding:0;shape-margin:0;inline-size:0;clip-rule:nonzero;display:inline;overflow:visible;visibility:visible;isolation:auto;mix-blend-mode:normal;color-interpolation:sRGB;color-interpolation-filters:linearRGB;solid-color:#000000;solid-opacity:1;vector-effect:none;fill:#000000;fill-opacity:1;fill-rule:nonzero;stroke:none;stroke-width:1;stroke-linecap:butt;stroke-linejoin:miter;stroke-miterlimit:4;stroke-dasharray:none;stroke-dashoffset:0;stroke-opacity:1;color-rendering:auto;image-rendering:auto;shape-rendering:auto;text-rendering:auto;enable-background:accumulate;stop-color:#000000"
           d="m -209.67817,38.947374 v 0.5 c 0,1.299249 0.47401,2.463172 1.38086,3.394531 l 0.002,0.002 0.002,0.002 c 0.9118,0.911796 2.08098,1.386719 3.40039,1.386719 h 5.92774 v 17.140531 h 0.5 4.78515 V 44.23253 h 5.92774 c 1.27917,0 2.43154,-0.475539 3.36133,-1.380859 0.93522,-0.910611 1.42382,-2.081797 1.42382,-3.404297 v -0.5 z"
           id="path2136-3-7" />
        <path
           style="color:#000000;font-style:normal;font-variant:normal;font-weight:normal;font-stretch:normal;font-size:medium;line-height:1.55;font-family:TESLA;-inkscape-font-specification:TESLA;font-variant-ligatures:normal;font-variant-position:normal;font-variant-caps:normal;font-variant-numeric:normal;font-variant-alternates:normal;font-variant-east-asian:normal;font-feature-settings:normal;font-variation-settings:normal;text-indent:0;text-align:start;text-decoration:none;text-decoration-line:none;text-decoration-style:solid;text-decoration-color:#000000;letter-spacing:3.30133px;word-spacing:normal;text-transform:none;writing-mode:lr-tb;direction:ltr;text-orientation:mixed;dominant-baseline:auto;baseline-shift:baseline;text-anchor:start;white-space:normal;shape-padding:0;shape-margin:0;inline-size:0;clip-rule:nonzero;display:inline;overflow:visible;visibility:visible;isolation:auto;mix-blend-mode:normal;color-interpolation:sRGB;color-interpolation-filters:linearRGB;solid-color:#000000;solid-opacity:1;vector-effect:none;fill:#000000;fill-opacity:1;fill-rule:nonzero;stroke:none;stroke-width:1;stroke-linecap:butt;stroke-linejoin:miter;stroke-miterlimit:4;stroke-dasharray:none;stroke-dashoffset:0;stroke-opacity:1;color-rendering:auto;image-rendering:auto;shape-rendering:auto;text-rendering:auto;enable-background:accumulate;stop-color:#000000"
           d="m -176.38129,56.087999 v 0.5 c 0,1.299249 0.47401,2.463172 1.38086,3.394531 l 0.002,0.002 0.002,0.0039 c 0.91179,0.911796 2.08097,1.384766 3.40039,1.384766 h 17.14062 c 1.27917,0 2.4335,-0.475539 3.36328,-1.380859 0.93523,-0.910611 1.42188,-2.081797 1.42188,-3.404297 v -0.5 z"
           id="path2171-0-2" />
        <path
           style="color:#000000;font-style:normal;font-variant:normal;font-weight:normal;font-stretch:normal;font-size:medium;line-height:1.55;font-family:TESLA;-inkscape-font-specification:TESLA;font-variant-ligatures:normal;font-variant-position:normal;font-variant-caps:normal;font-variant-numeric:normal;font-variant-alternates:normal;font-variant-east-asian:normal;font-feature-settings:normal;font-variation-settings:normal;text-indent:0;text-align:start;text-decoration:none;text-decoration-line:none;text-decoration-style:solid;text-decoration-color:#000000;letter-spacing:3.30133px;word-spacing:normal;text-transform:none;writing-mode:lr-tb;direction:ltr;text-orientation:mixed;dominant-baseline:auto;baseline-shift:baseline;text-anchor:start;white-space:normal;shape-padding:0;shape-margin:0;inline-size:0;clip-rule:nonzero;display:inline;overflow:visible;visibility:visible;isolation:auto;mix-blend-mode:normal;color-interpolation:sRGB;color-interpolation-filters:linearRGB;solid-color:#000000;solid-opacity:1;vector-effect:none;fill:#000000;fill-opacity:1;fill-rule:nonzero;stroke:none;stroke-width:1;stroke-linecap:butt;stroke-linejoin:miter;stroke-miterlimit:4;stroke-dasharray:none;stroke-dashoffset:0;stroke-opacity:1;color-rendering:auto;image-rendering:auto;shape-rendering:auto;text-rendering:auto;enable-background:accumulate;stop-color:#000000"
           d="m -176.38129,47.517686 v 0.5 c 0,1.29925 0.47401,2.463172 1.38086,3.394531 l 0.002,0.002 0.002,0.0039 c 0.91179,0.911795 2.08097,1.384766 3.40039,1.384766 h 17.14062 c 1.27917,0 2.4335,-0.475539 3.36328,-1.38086 0.93523,-0.910611 1.42188,-2.081797 1.42188,-3.404297 v -0.5 z"
           id="path2167-3-4" />
        <path
           style="color:#000000;font-style:normal;font-variant:normal;font-weight:normal;font-stretch:normal;font-size:medium;line-height:1.55;font-family:TESLA;-inkscape-font-specification:TESLA;font-variant-ligatures:normal;font-variant-position:normal;font-variant-caps:normal;font-variant-numeric:normal;font-variant-alternates:normal;font-variant-east-asian:normal;font-feature-settings:normal;font-variation-settings:normal;text-indent:0;text-align:start;text-decoration:none;text-decoration-line:none;text-decoration-style:solid;text-decoration-color:#000000;letter-spacing:3.30133px;word-spacing:normal;text-transform:none;writing-mode:lr-tb;direction:ltr;text-orientation:mixed;dominant-baseline:auto;baseline-shift:baseline;text-anchor:start;white-space:normal;shape-padding:0;shape-margin:0;inline-size:0;clip-rule:nonzero;display:inline;overflow:visible;visibility:visible;isolation:auto;mix-blend-mode:normal;color-interpolation:sRGB;color-interpolation-filters:linearRGB;solid-color:#000000;solid-opacity:1;vector-effect:none;fill:#000000;fill-opacity:1;fill-rule:nonzero;stroke:none;stroke-width:1;stroke-linecap:butt;stroke-linejoin:miter;stroke-miterlimit:4;stroke-dasharray:none;stroke-dashoffset:0;stroke-opacity:1;color-rendering:auto;image-rendering:auto;shape-rendering:auto;text-rendering:auto;enable-background:accumulate;stop-color:#000000"
           d="m -176.38129,38.947374 v 0.5 c 0,1.299249 0.47401,2.463172 1.38086,3.394531 l 0.002,0.002 0.002,0.002 c 0.91179,0.911796 2.08097,1.386719 3.40039,1.386719 h 17.14062 c 1.27917,0 2.4335,-0.475539 3.36328,-1.380859 0.93523,-0.910611 1.42188,-2.081797 1.42188,-3.404297 v -0.5 z"
           id="path2140-6-6" />
        <path
           style="color:#000000;font-style:normal;font-variant:normal;font-weight:normal;font-stretch:normal;font-size:medium;line-height:1.55;font-family:TESLA;-inkscape-font-specification:TESLA;font-variant-ligatures:normal;font-variant-position:normal;font-variant-caps:normal;font-variant-numeric:normal;font-variant-alternates:normal;font-variant-east-asian:normal;font-feature-settings:normal;font-variation-settings:normal;text-indent:0;text-align:start;text-decoration:none;text-decoration-line:none;text-decoration-style:solid;text-decoration-color:#000000;letter-spacing:3.30133px;word-spacing:normal;text-transform:none;writing-mode:lr-tb;direction:ltr;text-orientation:mixed;dominant-baseline:auto;baseline-shift:baseline;text-anchor:start;white-space:normal;shape-padding:0;shape-margin:0;inline-size:0;clip-rule:nonzero;display:inline;overflow:visible;visibility:visible;isolation:auto;mix-blend-mode:normal;color-interpolation:sRGB;color-interpolation-filters:linearRGB;solid-color:#000000;solid-opacity:1;vector-effect:none;fill:#000000;fill-opacity:1;fill-rule:nonzero;stroke:none;stroke-width:1;stroke-linecap:butt;stroke-linejoin:miter;stroke-miterlimit:4;stroke-dasharray:none;stroke-dashoffset:0;stroke-opacity:1;color-rendering:auto;image-rendering:auto;shape-rendering:auto;text-rendering:auto;enable-background:accumulate;stop-color:#000000"
           d="m -143.08246,38.947374 v 13.855469 h 21.42578 v 3.285156 h -16.64063 c -1.30239,0 -2.47009,0.487668 -3.40039,1.417968 -0.9102,0.910204 -1.38476,2.067939 -1.38476,3.367188 v 0.5 h 0.5 26.21093 V 47.517686 h -21.42578 V 44.23253 h 16.64063 c 1.27917,0 2.43154,-0.475539 3.36133,-1.380859 0.93522,-0.910612 1.42382,-2.081798 1.42382,-3.404297 v -0.5 z"
           id="path2144-7-2" />
        <path
           style="color:#000000;font-style:normal;font-variant:normal;font-weight:normal;font-stretch:normal;font-size:medium;line-height:1.55;font-family:TESLA;-inkscape-font-specification:TESLA;font-variant-ligatures:normal;font-variant-position:normal;font-variant-caps:normal;font-variant-numeric:normal;font-variant-alternates:normal;font-variant-east-asian:normal;font-feature-settings:normal;font-variation-settings:normal;text-indent:0;text-align:start;text-decoration:none;text-decoration-line:none;text-decoration-style:solid;text-decoration-color:#000000;letter-spacing:3.30133px;word-spacing:normal;text-transform:none;writing-mode:lr-tb;direction:ltr;text-orientation:mixed;dominant-baseline:auto;baseline-shift:baseline;text-anchor:start;white-space:normal;shape-padding:0;shape-margin:0;inline-size:0;clip-rule:nonzero;display:inline;overflow:visible;visibility:visible;isolation:auto;mix-blend-mode:normal;color-interpolation:sRGB;color-interpolation-filters:linearRGB;solid-color:#000000;solid-opacity:1;vector-effect:none;fill:#000000;fill-opacity:1;fill-rule:nonzero;stroke:none;stroke-width:1;stroke-linecap:butt;stroke-linejoin:miter;stroke-miterlimit:4;stroke-dasharray:none;stroke-dashoffset:0;stroke-opacity:1;color-rendering:auto;image-rendering:auto;shape-rendering:auto;text-rendering:auto;enable-background:accumulate;stop-color:#000000"
           d="m -109.78559,38.947374 v 22.425781 h 0.5 21.42578 c 1.27917,0 2.4335,-0.475539 3.36328,-1.380859 0.93522,-0.910612 1.42188,-2.081798 1.42188,-3.404297 v -0.5 h -21.42578 V 38.947374 Z"
           id="path2148-4-6" />
      </g>
    </g>
    <path
       id="rect2020-3-2-0-0-6-7-7-8-8-8-5"
       style="fill:#d8dcdd;fill-opacity:1;stroke:#000000;stroke-width:0.539028;stroke-miterlimit:4;stroke-dasharray:none;stroke-opacity:1"
       d="m 408.83178,234.0012 h 239.71065 c 11.11293,0 20.05947,8.96078 20.05947,20.09142 v 134.61256 c 0,11.13064 -8.94654,20.09142 -20.05947,20.09142 H 408.83178 c -11.11294,0 -20.05947,-8.96078 -20.05947,-20.09142 V 254.09262 c 0,-11.13064 8.94653,-20.09142 20.05947,-20.09142 z" />
    <g
       transform="translate(898.07004,1.3653165)"
       id="g3569-4-7-8-9-9"
       style="fill:#000000;fill-opacity:1">
      <text
         id="text38386-4-2-7-2-5-8-2-1-3"
         y="274.7468"
         x="-369.81476"
         style="font-style:normal;font-variant:normal;font-weight:normal;font-stretch:normal;font-size:51.0279px;line-height:0.8;font-family:TESLA;-inkscape-font-specification:TESLA;text-align:center;text-anchor:middle;fill:#000000;fill-opacity:1;stroke-width:1.27571"
         xml:space="preserve"><tspan
           id="tspan2140-7-1-8"
           style="font-style:normal;font-variant:normal;font-weight:normal;font-stretch:normal;font-size:36.3883px;font-family:'Gotham Black';-inkscape-font-specification:'Gotham Black, ';text-align:center;text-anchor:middle;fill:#000000;fill-opacity:1;stroke-width:1.27571"
           y="274.7468"
           x="-369.81476"
           sodipodi:role="line">PARKPLATZ</tspan></text>
    </g>
    <g
       transform="translate(378.68711,416.65161)"
       id="g40775-6-4-4-3-3-9-0-1">
      <circle
         style="fill:#000000;fill-opacity:1;stroke:none;stroke-width:1.5;stroke-miterlimit:4;stroke-dasharray:none;stroke-opacity:1"
         id="path38845-5-6-8-9-0-4-3-1"
         cx="27.499996"
         cy="-167.5"
         r="2.5" />
      <circle
         style="fill:#000000;fill-opacity:1;stroke:none;stroke-width:1.5;stroke-miterlimit:4;stroke-dasharray:none;stroke-opacity:1"
         id="path38847-0-5-3-0-4-0-7-1"
         cx="27.499996"
         cy="-27.499996"
         r="2.5" />
      <circle
         style="fill:#000000;fill-opacity:1;stroke:none;stroke-width:1.5;stroke-miterlimit:4;stroke-dasharray:none;stroke-opacity:1"
         id="path38849-7-1-9-3-9-1-6-3"
         cx="272.5"
         cy="-27.499996"
         r="2.5" />
      <circle
         style="fill:#000000;fill-opacity:1;stroke:none;stroke-width:1.5;stroke-miterlimit:4;stroke-dasharray:none;stroke-opacity:1"
         id="path38851-7-3-0-5-3-2-1-8"
         cx="272.5"
         cy="-167.5"
         r="2.5" />
    </g>
    <g
       transform="matrix(1.0686615,0,0,1.0686615,828.13746,-37.246933)"
       id="g3569-4-7-2-5">
      <text
         id="text38386-4-2-7-2-5-8-06-8"
         y="349.11499"
         x="-367.94946"
         style="font-style:normal;font-variant:normal;font-weight:normal;font-stretch:normal;font-size:35.1472px;line-height:0.8;font-family:TESLA;-inkscape-font-specification:TESLA;text-align:start;text-anchor:start;stroke-width:0.878684"
         xml:space="preserve"><tspan
           id="tspan2140-4-9"
           style="font-style:normal;font-variant:normal;font-weight:normal;font-stretch:normal;font-size:25.0636px;font-family:'Gotham Black';-inkscape-font-specification:'Gotham Black, ';text-align:start;text-anchor:start;stroke-width:0.878684"
           y="349.11499"
           x="-367.94946"
           sodipodi:role="line">Tesla</tspan><tspan
           id="tspan2465-4"
           style="font-style:normal;font-variant:normal;font-weight:normal;font-stretch:normal;font-size:25.0636px;font-family:'Gotham Black';-inkscape-font-specification:'Gotham Black, ';text-align:start;text-anchor:start;stroke-width:0.878684"
           y="377.23276"
           x="-367.94946"
           sodipodi:role="line">Fahrer</tspan><tspan
           id="tspan2418-1"
           style="font-style:normal;font-variant:normal;font-weight:normal;font-stretch:normal;font-size:25.0636px;font-family:'Gotham Black';-inkscape-font-specification:'Gotham Black, ';text-align:start;text-anchor:start;stroke-width:0.878684"
           y="405.35052"
           x="-367.94946"
           sodipodi:role="line" /></text>
    </g>
    <path
       sodipodi:nodetypes="csscccccscsscscssssccsscccsccccsssccscsssccs"
       inkscape:connector-curvature="0"
       id="path2190-3-1-8"
       d="m 584.16411,392.72602 c -0.17769,-0.93714 -15.46759,-86.29999 -15.46759,-86.3549 0,-0.0779 -4.51598,0.0362 -6.78594,0.1716 -6.75526,0.40285 -10.22968,1.58582 -11.90895,4.05475 -0.61914,0.91028 -0.87761,1.55934 -1.14784,2.88199 -0.10978,0.53742 -0.21963,0.99714 -0.24409,1.02161 -0.0823,0.0823 -2.88959,-1.25169 -4.29615,-2.04136 -4.20707,-2.36192 -7.50995,-5.09665 -9.75684,-8.07849 -0.3301,-0.43807 -0.60016,-0.83236 -0.60016,-0.87618 0,-0.0439 0.17091,-0.15043 0.37979,-0.23687 0.2089,-0.0864 1.10906,-0.47443 2.00035,-0.86218 10.2119,-4.44262 23.48586,-7.54793 35.39831,-8.28107 l 1.06345,-0.0654 5.70822,6.95565 c 3.1395,3.82561 5.74294,6.91734 5.78538,6.87049 0.0424,-0.0467 2.59054,-3.14801 5.66241,-6.89148 3.07188,-3.74346 5.63216,-6.83529 5.68949,-6.87074 0.11963,-0.0739 2.6744,0.0909 4.90598,0.31642 9.4109,0.95129 18.8627,3.12896 27.44761,6.32391 2.02608,0.75403 5.28513,2.09983 6.13511,2.53345 l 0.39709,0.20259 -0.51221,0.70423 c -1.99058,2.73679 -5.11119,5.42629 -8.97576,7.73576 -1.06283,0.63515 -4.58116,2.40105 -5.06088,2.54014 -0.19797,0.0575 -0.22451,0.0144 -0.29036,-0.47222 -0.0399,-0.29446 -0.18386,-0.92157 -0.31997,-1.39357 -1.07184,-3.71691 -4.23874,-5.36739 -11.47763,-5.98169 -1.5762,-0.13375 -8.13148,-0.30541 -8.21384,-0.21508 -0.0421,0.0462 -12.69682,71.03521 -15.36753,86.20741 l -0.0802,0.45578 z m 50.36617,-93.0506 c -12.09657,-5.10166 -25.83971,-8.34803 -39.5509,-9.34258 -4.4051,-0.31953 -13.55669,-0.42417 -17.98816,-0.20568 -15.35705,0.75719 -29.48583,3.88687 -43.06442,9.53921 -0.93551,0.38943 -1.75916,0.68569 -1.83035,0.65838 -0.0712,-0.0274 -0.65688,-1.11389 -1.30154,-2.41461 -1.20612,-2.43357 -1.76819,-3.69776 -1.68227,-3.78368 0.0879,-0.0879 3.62913,-1.42571 5.7048,-2.1552 19.45874,-6.83868 40.24015,-9.67264 59.90874,-8.16973 14.71091,1.12408 28.57524,4.22719 42.6882,9.55445 1.05075,0.39663 1.92852,0.7392 1.95058,0.76127 0.11536,0.11536 -2.70656,6.00626 -2.99248,6.24697 -0.0383,0.0323 -0.86737,-0.27766 -1.8422,-0.6888 z"
       style="fill:#c50000;fill-opacity:1;stroke-width:0.915882" />
    <path
       id="rect2020-3-2-0-0-6-7-7-8-8-8-0"
       style="fill:#d8dcdd;fill-opacity:1;stroke:#000000;stroke-width:0.539028;stroke-miterlimit:4;stroke-dasharray:none;stroke-opacity:1"
       d="m 412.68801,37.906612 h 239.71065 c 11.11293,0 20.05947,8.96078 20.05947,20.09142 V 192.61059 c 0,11.13064 -8.94654,20.09142 -20.05947,20.09142 H 412.68801 c -11.11294,0 -20.05947,-8.96078 -20.05947,-20.09142 V 57.998032 c 0,-11.13064 8.94653,-20.09142 20.05947,-20.09142 z" />
    <g
       transform="translate(901.92627,-194.72927)"
       id="g3569-4-7-8-9-5"
       style="fill:#000000;fill-opacity:1">
      <text
         id="text38386-4-2-7-2-5-8-2-1-2"
         y="274.7468"
         x="-369.81476"
         style="font-style:normal;font-variant:normal;font-weight:normal;font-stretch:normal;font-size:51.0279px;line-height:0.8;font-family:TESLA;-inkscape-font-specification:TESLA;text-align:center;text-anchor:middle;fill:#000000;fill-opacity:1;stroke-width:1.27571"
         xml:space="preserve"><tspan
           id="tspan2140-7-1-87"
           style="font-style:normal;font-variant:normal;font-weight:normal;font-stretch:normal;font-size:36.3883px;font-family:'Gotham Black';-inkscape-font-specification:'Gotham Black, ';text-align:center;text-anchor:middle;fill:#000000;fill-opacity:1;stroke-width:1.27571"
           y="274.7468"
           x="-369.81476"
           sodipodi:role="line">PARKPLATZ</tspan></text>
    </g>
    <g
       transform="translate(382.54334,220.55702)"
       id="g40775-6-4-4-3-3-9-0-9">
      <circle
         style="fill:#000000;fill-opacity:1;stroke:none;stroke-width:1.5;stroke-miterlimit:4;stroke-dasharray:none;stroke-opacity:1"
         id="path38845-5-6-8-9-0-4-3-5"
         cx="27.499996"
         cy="-167.5"
         r="2.5" />
      <circle
         style="fill:#000000;fill-opacity:1;stroke:none;stroke-width:1.5;stroke-miterlimit:4;stroke-dasharray:none;stroke-opacity:1"
         id="path38847-0-5-3-0-4-0-7-0"
         cx="27.499996"
         cy="-27.499996"
         r="2.5" />
      <circle
         style="fill:#000000;fill-opacity:1;stroke:none;stroke-width:1.5;stroke-miterlimit:4;stroke-dasharray:none;stroke-opacity:1"
         id="path38849-7-1-9-3-9-1-6-6"
         cx="272.5"
         cy="-27.499996"
         r="2.5" />
      <circle
         style="fill:#000000;fill-opacity:1;stroke:none;stroke-width:1.5;stroke-miterlimit:4;stroke-dasharray:none;stroke-opacity:1"
         id="path38851-7-3-0-5-3-2-1-5"
         cx="272.5"
         cy="-167.5"
         r="2.5" />
    </g>
    <path
       sodipodi:nodetypes="csscccccscsscscssssccsscccsccccsssccscsssccs"
       inkscape:connector-curvature="0"
       id="path2190-3-1-4"
       d="m 462.73942,200.03644 c -0.17769,-0.93714 -15.46759,-86.29999 -15.46759,-86.3549 0,-0.0779 -4.51598,0.0362 -6.78594,0.1716 -6.75526,0.40285 -10.22968,1.58582 -11.90895,4.05475 -0.61914,0.91028 -0.87761,1.55934 -1.14784,2.88199 -0.10978,0.53742 -0.21963,0.99714 -0.24409,1.02161 -0.0823,0.0823 -2.88959,-1.25169 -4.29615,-2.04136 -4.20707,-2.36192 -7.50995,-5.09665 -9.75684,-8.07849 -0.3301,-0.43807 -0.60016,-0.83236 -0.60016,-0.87618 0,-0.0439 0.17091,-0.15043 0.37979,-0.23687 0.2089,-0.0864 1.10906,-0.47443 2.00035,-0.86218 10.2119,-4.44262 23.48586,-7.54793 35.39831,-8.28107 l 1.06345,-0.0654 5.70822,6.95565 c 3.1395,3.82561 5.74294,6.91734 5.78538,6.87049 0.0424,-0.0467 2.59054,-3.14801 5.66241,-6.89148 3.07188,-3.74346 5.63216,-6.83529 5.68949,-6.87074 0.11963,-0.0739 2.6744,0.0909 4.90598,0.31642 9.4109,0.95129 18.8627,3.12896 27.44761,6.32391 2.02608,0.75403 5.28513,2.09983 6.13511,2.53345 l 0.39709,0.20259 -0.51221,0.70423 c -1.99058,2.73679 -5.11119,5.42629 -8.97576,7.73576 -1.06283,0.63515 -4.58116,2.40105 -5.06088,2.54014 -0.19797,0.0575 -0.22451,0.0144 -0.29036,-0.47222 -0.0399,-0.29446 -0.18386,-0.92157 -0.31997,-1.39357 -1.07184,-3.71691 -4.23874,-5.36739 -11.47763,-5.98169 -1.5762,-0.13375 -8.13148,-0.30541 -8.21384,-0.21508 -0.0421,0.0462 -12.69682,71.03521 -15.36753,86.20741 l -0.0802,0.45578 z m 50.36617,-93.0506 c -12.09657,-5.10166 -25.83971,-8.348028 -39.5509,-9.342578 -4.4051,-0.31953 -13.55669,-0.42417 -17.98816,-0.20568 -15.35705,0.75719 -29.48583,3.886868 -43.06442,9.539208 -0.93551,0.38943 -1.75916,0.68569 -1.83035,0.65838 -0.0712,-0.0274 -0.65688,-1.11389 -1.30154,-2.41461 -1.20612,-2.43357 -1.76819,-3.69776 -1.68227,-3.78368 0.0879,-0.0879 3.62913,-1.42571 5.7048,-2.155198 19.45874,-6.83868 40.24015,-9.67264 59.90874,-8.16973 14.71091,1.12408 28.57524,4.22719 42.6882,9.554448 1.05075,0.39663 1.92852,0.7392 1.95058,0.76127 0.11536,0.11536 -2.70656,6.00626 -2.99248,6.24697 -0.0383,0.0323 -0.86737,-0.27766 -1.8422,-0.6888 z"
       style="fill:#c50000;fill-opacity:1;stroke-width:0.915882" />
    <g
       transform="matrix(1.2812464,0,0,1.2812464,973.82426,-430.00937)"
       id="g3569-4-7-2-4-0"
       style="fill:#000000;fill-opacity:1">
      <g
         transform="matrix(0.83015935,0,0,0.83015935,-209.00631,410.50501)"
         id="g2199-6-0-5"
         style="fill:#000000;fill-opacity:1">
        <path
           style="color:#000000;font-style:normal;font-variant:normal;font-weight:normal;font-stretch:normal;font-size:medium;line-height:1.55;font-family:TESLA;-inkscape-font-specification:TESLA;font-variant-ligatures:normal;font-variant-position:normal;font-variant-caps:normal;font-variant-numeric:normal;font-variant-alternates:normal;font-variant-east-asian:normal;font-feature-settings:normal;font-variation-settings:normal;text-indent:0;text-align:start;text-decoration:none;text-decoration-line:none;text-decoration-style:solid;text-decoration-color:#000000;letter-spacing:3.30133px;word-spacing:normal;text-transform:none;writing-mode:lr-tb;direction:ltr;text-orientation:mixed;dominant-baseline:auto;baseline-shift:baseline;text-anchor:start;white-space:normal;shape-padding:0;shape-margin:0;inline-size:0;clip-rule:nonzero;display:inline;overflow:visible;visibility:visible;isolation:auto;mix-blend-mode:normal;color-interpolation:sRGB;color-interpolation-filters:linearRGB;solid-color:#000000;solid-opacity:1;vector-effect:none;fill:#000000;fill-opacity:1;fill-rule:nonzero;stroke:none;stroke-width:1;stroke-linecap:butt;stroke-linejoin:miter;stroke-miterlimit:4;stroke-dasharray:none;stroke-dashoffset:0;stroke-opacity:1;color-rendering:auto;image-rendering:auto;shape-rendering:auto;text-rendering:auto;enable-background:accumulate;stop-color:#000000"
           d="m -76.48676,47.517686 v 13.855469 h 0.5 4.78515 v -8.570312 h 16.14063 v 8.570312 h 5.28516 V 47.517686 Z"
           id="path2187-1-1-8" />
        <path
           style="color:#000000;font-style:normal;font-variant:normal;font-weight:normal;font-stretch:normal;font-size:medium;line-height:1.55;font-family:TESLA;-inkscape-font-specification:TESLA;font-variant-ligatures:normal;font-variant-position:normal;font-variant-caps:normal;font-variant-numeric:normal;font-variant-alternates:normal;font-variant-east-asian:normal;font-feature-settings:normal;font-variation-settings:normal;text-indent:0;text-align:start;text-decoration:none;text-decoration-line:none;text-decoration-style:solid;text-decoration-color:#000000;letter-spacing:3.30133px;word-spacing:normal;text-transform:none;writing-mode:lr-tb;direction:ltr;text-orientation:mixed;dominant-baseline:auto;baseline-shift:baseline;text-anchor:start;white-space:normal;shape-padding:0;shape-margin:0;inline-size:0;clip-rule:nonzero;display:inline;overflow:visible;visibility:visible;isolation:auto;mix-blend-mode:normal;color-interpolation:sRGB;color-interpolation-filters:linearRGB;solid-color:#000000;solid-opacity:1;vector-effect:none;fill:#000000;fill-opacity:1;fill-rule:nonzero;stroke:none;stroke-width:1;stroke-linecap:butt;stroke-linejoin:miter;stroke-miterlimit:4;stroke-dasharray:none;stroke-dashoffset:0;stroke-opacity:1;color-rendering:auto;image-rendering:auto;shape-rendering:auto;text-rendering:auto;enable-background:accumulate;stop-color:#000000"
           d="m -76.48676,38.947374 v 0.5 c 0,1.299249 0.47206,2.463172 1.37891,3.394531 l 0.004,0.002 0.002,0.002 c 0.9118,0.911795 2.08098,1.386719 3.40039,1.386719 h 17.14063 c 1.27917,0 2.43154,-0.475539 3.36133,-1.380859 0.93522,-0.910612 1.42383,-2.081798 1.42383,-3.404297 v -0.5 z"
           id="path2152-2-5-3" />
        <path
           style="color:#000000;font-style:normal;font-variant:normal;font-weight:normal;font-stretch:normal;font-size:medium;line-height:1.55;font-family:TESLA;-inkscape-font-specification:TESLA;font-variant-ligatures:normal;font-variant-position:normal;font-variant-caps:normal;font-variant-numeric:normal;font-variant-alternates:normal;font-variant-east-asian:normal;font-feature-settings:normal;font-variation-settings:normal;text-indent:0;text-align:start;text-decoration:none;text-decoration-line:none;text-decoration-style:solid;text-decoration-color:#000000;letter-spacing:3.30133px;word-spacing:normal;text-transform:none;writing-mode:lr-tb;direction:ltr;text-orientation:mixed;dominant-baseline:auto;baseline-shift:baseline;text-anchor:start;white-space:normal;shape-padding:0;shape-margin:0;inline-size:0;clip-rule:nonzero;display:inline;overflow:visible;visibility:visible;isolation:auto;mix-blend-mode:normal;color-interpolation:sRGB;color-interpolation-filters:linearRGB;solid-color:#000000;solid-opacity:1;vector-effect:none;fill:#000000;fill-opacity:1;fill-rule:nonzero;stroke:none;stroke-width:1;stroke-linecap:butt;stroke-linejoin:miter;stroke-miterlimit:4;stroke-dasharray:none;stroke-dashoffset:0;stroke-opacity:1;color-rendering:auto;image-rendering:auto;shape-rendering:auto;text-rendering:auto;enable-background:accumulate;stop-color:#000000"
           d="m -209.67817,38.947374 v 0.5 c 0,1.299249 0.47401,2.463172 1.38086,3.394531 l 0.002,0.002 0.002,0.002 c 0.9118,0.911796 2.08098,1.386719 3.40039,1.386719 h 5.92774 v 17.140531 h 0.5 4.78515 V 44.23253 h 5.92774 c 1.27917,0 2.43154,-0.475539 3.36133,-1.380859 0.93522,-0.910611 1.42382,-2.081797 1.42382,-3.404297 v -0.5 z"
           id="path2136-3-7-8" />
        <path
           style="color:#000000;font-style:normal;font-variant:normal;font-weight:normal;font-stretch:normal;font-size:medium;line-height:1.55;font-family:TESLA;-inkscape-font-specification:TESLA;font-variant-ligatures:normal;font-variant-position:normal;font-variant-caps:normal;font-variant-numeric:normal;font-variant-alternates:normal;font-variant-east-asian:normal;font-feature-settings:normal;font-variation-settings:normal;text-indent:0;text-align:start;text-decoration:none;text-decoration-line:none;text-decoration-style:solid;text-decoration-color:#000000;letter-spacing:3.30133px;word-spacing:normal;text-transform:none;writing-mode:lr-tb;direction:ltr;text-orientation:mixed;dominant-baseline:auto;baseline-shift:baseline;text-anchor:start;white-space:normal;shape-padding:0;shape-margin:0;inline-size:0;clip-rule:nonzero;display:inline;overflow:visible;visibility:visible;isolation:auto;mix-blend-mode:normal;color-interpolation:sRGB;color-interpolation-filters:linearRGB;solid-color:#000000;solid-opacity:1;vector-effect:none;fill:#000000;fill-opacity:1;fill-rule:nonzero;stroke:none;stroke-width:1;stroke-linecap:butt;stroke-linejoin:miter;stroke-miterlimit:4;stroke-dasharray:none;stroke-dashoffset:0;stroke-opacity:1;color-rendering:auto;image-rendering:auto;shape-rendering:auto;text-rendering:auto;enable-background:accumulate;stop-color:#000000"
           d="m -176.38129,56.087999 v 0.5 c 0,1.299249 0.47401,2.463172 1.38086,3.394531 l 0.002,0.002 0.002,0.0039 c 0.91179,0.911796 2.08097,1.384766 3.40039,1.384766 h 17.14062 c 1.27917,0 2.4335,-0.475539 3.36328,-1.380859 0.93523,-0.910611 1.42188,-2.081797 1.42188,-3.404297 v -0.5 z"
           id="path2171-0-2-6" />
        <path
           style="color:#000000;font-style:normal;font-variant:normal;font-weight:normal;font-stretch:normal;font-size:medium;line-height:1.55;font-family:TESLA;-inkscape-font-specification:TESLA;font-variant-ligatures:normal;font-variant-position:normal;font-variant-caps:normal;font-variant-numeric:normal;font-variant-alternates:normal;font-variant-east-asian:normal;font-feature-settings:normal;font-variation-settings:normal;text-indent:0;text-align:start;text-decoration:none;text-decoration-line:none;text-decoration-style:solid;text-decoration-color:#000000;letter-spacing:3.30133px;word-spacing:normal;text-transform:none;writing-mode:lr-tb;direction:ltr;text-orientation:mixed;dominant-baseline:auto;baseline-shift:baseline;text-anchor:start;white-space:normal;shape-padding:0;shape-margin:0;inline-size:0;clip-rule:nonzero;display:inline;overflow:visible;visibility:visible;isolation:auto;mix-blend-mode:normal;color-interpolation:sRGB;color-interpolation-filters:linearRGB;solid-color:#000000;solid-opacity:1;vector-effect:none;fill:#000000;fill-opacity:1;fill-rule:nonzero;stroke:none;stroke-width:1;stroke-linecap:butt;stroke-linejoin:miter;stroke-miterlimit:4;stroke-dasharray:none;stroke-dashoffset:0;stroke-opacity:1;color-rendering:auto;image-rendering:auto;shape-rendering:auto;text-rendering:auto;enable-background:accumulate;stop-color:#000000"
           d="m -176.38129,47.517686 v 0.5 c 0,1.29925 0.47401,2.463172 1.38086,3.394531 l 0.002,0.002 0.002,0.0039 c 0.91179,0.911795 2.08097,1.384766 3.40039,1.384766 h 17.14062 c 1.27917,0 2.4335,-0.475539 3.36328,-1.38086 0.93523,-0.910611 1.42188,-2.081797 1.42188,-3.404297 v -0.5 z"
           id="path2167-3-4-7" />
        <path
           style="color:#000000;font-style:normal;font-variant:normal;font-weight:normal;font-stretch:normal;font-size:medium;line-height:1.55;font-family:TESLA;-inkscape-font-specification:TESLA;font-variant-ligatures:normal;font-variant-position:normal;font-variant-caps:normal;font-variant-numeric:normal;font-variant-alternates:normal;font-variant-east-asian:normal;font-feature-settings:normal;font-variation-settings:normal;text-indent:0;text-align:start;text-decoration:none;text-decoration-line:none;text-decoration-style:solid;text-decoration-color:#000000;letter-spacing:3.30133px;word-spacing:normal;text-transform:none;writing-mode:lr-tb;direction:ltr;text-orientation:mixed;dominant-baseline:auto;baseline-shift:baseline;text-anchor:start;white-space:normal;shape-padding:0;shape-margin:0;inline-size:0;clip-rule:nonzero;display:inline;overflow:visible;visibility:visible;isolation:auto;mix-blend-mode:normal;color-interpolation:sRGB;color-interpolation-filters:linearRGB;solid-color:#000000;solid-opacity:1;vector-effect:none;fill:#000000;fill-opacity:1;fill-rule:nonzero;stroke:none;stroke-width:1;stroke-linecap:butt;stroke-linejoin:miter;stroke-miterlimit:4;stroke-dasharray:none;stroke-dashoffset:0;stroke-opacity:1;color-rendering:auto;image-rendering:auto;shape-rendering:auto;text-rendering:auto;enable-background:accumulate;stop-color:#000000"
           d="m -176.38129,38.947374 v 0.5 c 0,1.299249 0.47401,2.463172 1.38086,3.394531 l 0.002,0.002 0.002,0.002 c 0.91179,0.911796 2.08097,1.386719 3.40039,1.386719 h 17.14062 c 1.27917,0 2.4335,-0.475539 3.36328,-1.380859 0.93523,-0.910611 1.42188,-2.081797 1.42188,-3.404297 v -0.5 z"
           id="path2140-6-6-8" />
        <path
           style="color:#000000;font-style:normal;font-variant:normal;font-weight:normal;font-stretch:normal;font-size:medium;line-height:1.55;font-family:TESLA;-inkscape-font-specification:TESLA;font-variant-ligatures:normal;font-variant-position:normal;font-variant-caps:normal;font-variant-numeric:normal;font-variant-alternates:normal;font-variant-east-asian:normal;font-feature-settings:normal;font-variation-settings:normal;text-indent:0;text-align:start;text-decoration:none;text-decoration-line:none;text-decoration-style:solid;text-decoration-color:#000000;letter-spacing:3.30133px;word-spacing:normal;text-transform:none;writing-mode:lr-tb;direction:ltr;text-orientation:mixed;dominant-baseline:auto;baseline-shift:baseline;text-anchor:start;white-space:normal;shape-padding:0;shape-margin:0;inline-size:0;clip-rule:nonzero;display:inline;overflow:visible;visibility:visible;isolation:auto;mix-blend-mode:normal;color-interpolation:sRGB;color-interpolation-filters:linearRGB;solid-color:#000000;solid-opacity:1;vector-effect:none;fill:#000000;fill-opacity:1;fill-rule:nonzero;stroke:none;stroke-width:1;stroke-linecap:butt;stroke-linejoin:miter;stroke-miterlimit:4;stroke-dasharray:none;stroke-dashoffset:0;stroke-opacity:1;color-rendering:auto;image-rendering:auto;shape-rendering:auto;text-rendering:auto;enable-background:accumulate;stop-color:#000000"
           d="m -143.08246,38.947374 v 13.855469 h 21.42578 v 3.285156 h -16.64063 c -1.30239,0 -2.47009,0.487668 -3.40039,1.417968 -0.9102,0.910204 -1.38476,2.067939 -1.38476,3.367188 v 0.5 h 0.5 26.21093 V 47.517686 h -21.42578 V 44.23253 h 16.64063 c 1.27917,0 2.43154,-0.475539 3.36133,-1.380859 0.93522,-0.910612 1.42382,-2.081798 1.42382,-3.404297 v -0.5 z"
           id="path2144-7-2-6" />
        <path
           style="color:#000000;font-style:normal;font-variant:normal;font-weight:normal;font-stretch:normal;font-size:medium;line-height:1.55;font-family:TESLA;-inkscape-font-specification:TESLA;font-variant-ligatures:normal;font-variant-position:normal;font-variant-caps:normal;font-variant-numeric:normal;font-variant-alternates:normal;font-variant-east-asian:normal;font-feature-settings:normal;font-variation-settings:normal;text-indent:0;text-align:start;text-decoration:none;text-decoration-line:none;text-decoration-style:solid;text-decoration-color:#000000;letter-spacing:3.30133px;word-spacing:normal;text-transform:none;writing-mode:lr-tb;direction:ltr;text-orientation:mixed;dominant-baseline:auto;baseline-shift:baseline;text-anchor:start;white-space:normal;shape-padding:0;shape-margin:0;inline-size:0;clip-rule:nonzero;display:inline;overflow:visible;visibility:visible;isolation:auto;mix-blend-mode:normal;color-interpolation:sRGB;color-interpolation-filters:linearRGB;solid-color:#000000;solid-opacity:1;vector-effect:none;fill:#000000;fill-opacity:1;fill-rule:nonzero;stroke:none;stroke-width:1;stroke-linecap:butt;stroke-linejoin:miter;stroke-miterlimit:4;stroke-dasharray:none;stroke-dashoffset:0;stroke-opacity:1;color-rendering:auto;image-rendering:auto;shape-rendering:auto;text-rendering:auto;enable-background:accumulate;stop-color:#000000"
           d="m -109.78559,38.947374 v 22.425781 h 0.5 21.42578 c 1.27917,0 2.4335,-0.475539 3.36328,-1.380859 0.93522,-0.910612 1.42188,-2.081798 1.42188,-3.404297 v -0.5 h -21.42578 V 38.947374 Z"
           id="path2148-4-6-2" />
      </g>
    </g>
    <rect
       style="fill:#000000;fill-opacity:1;stroke-width:0.237047"
       id="rect1197"
       width="169.33334"
       height="4.1148081"
       x="105.83334"
       y="296.98102" />
  </g>
</svg>
