  0
SECTION
  2
HEADER
  9
$ACADVER
  1
AC1014
  9
$HANDSEED
  5
FFFF
  9
$MEASUREMENT
 70
     1
  0
ENDSEC
  0
SECTION
  2
TABLES
  0
TABLE
  2
VPORT
  5
8
330
0
100
AcDbSymbolTable
 70
     4
  0
VPORT
  5
2E
330
8
100
AcDbSymbolTableRecord
100
AcDbViewportTableRecord
  2
*ACTIVE
 70
     0
 10
0.0
 20
0.0
 11
1.0
 21
1.0
 12
210.0
 22
148.5
 13
0.0
 23
0.0
 14
10.0
 24
10.0
 15
10.0
 25
10.0
 16
0.0
 26
0.0
 36
1.0
 17
0.0
 27
0.0
 37
0.0
 40
341.0
 41
1.24
 42
50.0
 43
0.0
 44
0.0
 50
0.0
 51
0.0
 71
     0
 72
   100
 73
     1
 74
     3
 75
     0
 76
     0
 77
     0
 78
     0
  0
ENDTAB
  0
TABLE
  2
LTYPE
  5
5
330
0
100
AcDbSymbolTable
 70
     1
  0
LTYPE
  5
14
330
5
100
AcDbSymbolTableRecord
100
AcDbLinetypeTableRecord
  2
BYBLOCK
 70
     0
  3

 72
    65
 73
     0
 40
0.0
  0
LTYPE
  5
15
330
5
100
AcDbSymbolTableRecord
100
AcDbLinetypeTableRecord
  2
BYLAYER
 70
     0
  3

 72
    65
 73
     0
 40
0.0
  0
LTYPE
  5
16
330
5
100
AcDbSymbolTableRecord
100
AcDbLinetypeTableRecord
  2
CONTINUOUS
 70
     0
  3
Solid line
 72
    65
 73
     0
 40
0.0
  0
ENDTAB
  0
TABLE
  2
LAYER
  5
2
100
AcDbSymbolTable
 70
2
  0
LAYER
  5
50
100
AcDbSymbolTableRecord
100
AcDbLayerTableRecord
  2
0
 70
0
  6
CONTINUOUS
  0
LAYER
  5
51
100
AcDbSymbolTableRecord
100
AcDbLayerTableRecord
  2
Ebene_1
 70
0
  6
CONTINUOUS
  0
ENDTAB
  0
TABLE
  2
STYLE
  5
3
330
0
100
AcDbSymbolTable
 70
     1
  0
STYLE
  5
11
330
3
100
AcDbSymbolTableRecord
100
AcDbTextStyleTableRecord
  2
STANDARD
 70
     0
 40
0.0
 41
1.0
 50
0.0
 71
     0
 42
2.5
  3
txt
  4

  0
ENDTAB
  0
TABLE
  2
VIEW
  5
6
330
0
100
AcDbSymbolTable
 70
     0
  0
ENDTAB
  0
TABLE
  2
UCS
  5
7
330
0
100
AcDbSymbolTable
 70
     0
  0
ENDTAB
  0
TABLE
  2
APPID
  5
9
330
0
100
AcDbSymbolTable
 70
     2
  0
APPID
  5
12
330
9
100
AcDbSymbolTableRecord
100
AcDbRegAppTableRecord
  2
ACAD
 70
     0
  0
ENDTAB
  0
TABLE
  2
DIMSTYLE
  5
A
330
0
100
AcDbSymbolTable
 70
     1
  0
DIMSTYLE
105
27
330
A
100
AcDbSymbolTableRecord
100
AcDbDimStyleTableRecord
  2
ISO-25
 70
     0
  3

  4

  5

  6

  7

 40
1.0
 41
2.5
 42
0.625
 43
3.75
 44
1.25
 45
0.0
 46
0.0
 47
0.0
 48
0.0
140
2.5
141
2.5
142
0.0
143
0.03937007874016
144
1.0
145
0.0
146
1.0
147
0.625
 71
     0
 72
     0
 73
     0
 74
     0
 75
     0
 76
     0
 77
     1
 78
     8
170
     0
171
     3
172
     1
173
     0
174
     0
175
     0
176
     0
177
     0
178
     0
270
     2
271
     2
272
     2
273
     2
274
     3
340
11
275
     0
280
     0
281
     0
282
     0
283
     0
284
     8
285
     0
286
     0
287
     3
288
     0
  0
ENDTAB
  0
TABLE
  2
BLOCK_RECORD
  5
1
330
0
100
AcDbSymbolTable
 70
     1
  0
BLOCK_RECORD
  5
1F
330
1
100
AcDbSymbolTableRecord
100
AcDbBlockTableRecord
  2
*MODEL_SPACE
  0
BLOCK_RECORD
  5
1B
330
1
100
AcDbSymbolTableRecord
100
AcDbBlockTableRecord
  2
*PAPER_SPACE
  0
ENDTAB
  0
ENDSEC
  0
SECTION
  2
BLOCKS
  0
BLOCK
  5
20
330
1F
100
AcDbEntity
  8
0
100
AcDbBlockBegin
  2
*MODEL_SPACE
 70
     0
 10
0.0
 20
0.0
 30
0.0
  3
*MODEL_SPACE
  1

  0
ENDBLK
  5
21
330
1F
100
AcDbEntity
  8
0
100
AcDbBlockEnd
  0
BLOCK
  5
1C
330
1B
100
AcDbEntity
 67
     1
  8
0
100
AcDbBlockBegin
  2
*PAPER_SPACE
  1

  0
ENDBLK
  5
1D
330
1B
100
AcDbEntity
 67
     1
  8
0
100
AcDbBlockEnd
  0
ENDSEC
  0
SECTION
  2
ENTITIES
  0
SPLINE
  5
100
100
AcDbEntity
  8
Ebene_1
 62
7
100
AcDbSpline
 70
8
 71
3
 72
8
 73
4
 74
0
 40
0
 40
0
 40
0
 40
0
 40
1
 40
1
 40
1
 40
1
 10
42.564985
 20
254.846384
 30
0.0
 10
25.750902
 20
254.846384
 30
0.0
 10
12.120995
 20
241.234872
 30
0.0
 10
12.120995
 20
224.443495
 30
0.0
  0
LWPOLYLINE
  5
101
100
AcDbEntity
  8
Ebene_1
 62
7
100
AcDbPolyline
 90
4
 70
1
 10
0.000000
 20
266.038224
 30
0.0
 10
195.000000
 20
266.038224
 30
0.0
 10
195.000000
 20
0.000000
 30
0.0
 10
0.000000
 20
0.000000
 30
0.0
  0
SPLINE
  5
102
100
AcDbEntity
  8
Ebene_1
 62
7
100
AcDbSpline
 70
8
 71
3
 72
8
 73
4
 74
0
 40
0
 40
0
 40
0
 40
0
 40
1
 40
1
 40
1
 40
1
 10
12.120995
 20
41.575121
 30
0.0
 10
12.120995
 20
24.783741
 30
0.0
 10
25.750902
 20
11.172228
 30
0.0
 10
42.564985
 20
11.172228
 30
0.0
  0
LWPOLYLINE
  5
103
100
AcDbEntity
  8
Ebene_1
 62
7
100
AcDbPolyline
 90
2
 70
0
 10
12.120995
 20
224.443495
 30
0.0
 10
12.120995
 20
41.575121
 30
0.0
  0
SPLINE
  5
104
100
AcDbEntity
  8
Ebene_1
 62
7
100
AcDbSpline
 70
8
 71
3
 72
8
 73
4
 74
0
 40
0
 40
0
 40
0
 40
0
 40
1
 40
1
 40
1
 40
1
 10
152.434983
 20
11.172228
 30
0.0
 10
169.249069
 20
11.172228
 30
0.0
 10
182.878971
 20
24.783741
 30
0.0
 10
182.878971
 20
41.575121
 30
0.0
  0
LWPOLYLINE
  5
105
100
AcDbEntity
  8
Ebene_1
 62
7
100
AcDbPolyline
 90
2
 70
0
 10
42.564985
 20
11.172228
 30
0.0
 10
152.434983
 20
11.172228
 30
0.0
  0
SPLINE
  5
106
100
AcDbEntity
  8
Ebene_1
 62
7
100
AcDbSpline
 70
8
 71
3
 72
8
 73
4
 74
0
 40
0
 40
0
 40
0
 40
0
 40
1
 40
1
 40
1
 40
1
 10
182.878971
 20
224.443495
 30
0.0
 10
182.878971
 20
241.234872
 30
0.0
 10
169.249069
 20
254.846384
 30
0.0
 10
152.434983
 20
254.846384
 30
0.0
  0
LWPOLYLINE
  5
107
100
AcDbEntity
  8
Ebene_1
 62
7
100
AcDbPolyline
 90
2
 70
0
 10
182.878971
 20
41.575121
 30
0.0
 10
182.878971
 20
224.443495
 30
0.0
  0
LWPOLYLINE
  5
108
100
AcDbEntity
  8
Ebene_1
 62
7
100
AcDbPolyline
 90
2
 70
0
 10
152.434983
 20
254.846384
 30
0.0
 10
42.564985
 20
254.846384
 30
0.0
  0
SPLINE
  5
109
100
AcDbEntity
  8
Ebene_1
 62
7
100
AcDbSpline
 70
8
 71
3
 72
8
 73
4
 74
0
 40
0
 40
0
 40
0
 40
0
 40
1
 40
1
 40
1
 40
1
 10
152.434983
 20
248.903112
 30
0.0
 10
166.054985
 20
248.903112
 30
0.0
 10
176.927663
 20
238.045099
 30
0.0
 10
176.927663
 20
224.443495
 30
0.0
  0
LWPOLYLINE
  5
10a
100
AcDbEntity
  8
Ebene_1
 62
7
100
AcDbPolyline
 90
2
 70
0
 10
42.564985
 20
248.903112
 30
0.0
 10
152.434983
 20
248.903112
 30
0.0
  0
SPLINE
  5
10b
100
AcDbEntity
  8
Ebene_1
 62
7
100
AcDbSpline
 70
8
 71
3
 72
8
 73
4
 74
0
 40
0
 40
0
 40
0
 40
0
 40
1
 40
1
 40
1
 40
1
 10
176.927663
 20
41.575121
 30
0.0
 10
176.927663
 20
27.973509
 30
0.0
 10
166.054985
 20
17.115510
 30
0.0
 10
152.434983
 20
17.115510
 30
0.0
  0
LWPOLYLINE
  5
10c
100
AcDbEntity
  8
Ebene_1
 62
7
100
AcDbPolyline
 90
2
 70
0
 10
176.927663
 20
224.443495
 30
0.0
 10
176.927663
 20
41.575121
 30
0.0
  0
SPLINE
  5
10d
100
AcDbEntity
  8
Ebene_1
 62
7
100
AcDbSpline
 70
8
 71
3
 72
8
 73
4
 74
0
 40
0
 40
0
 40
0
 40
0
 40
1
 40
1
 40
1
 40
1
 10
42.564985
 20
17.115510
 30
0.0
 10
28.944978
 20
17.115510
 30
0.0
 10
18.072302
 20
27.973509
 30
0.0
 10
18.072302
 20
41.575121
 30
0.0
  0
LWPOLYLINE
  5
10e
100
AcDbEntity
  8
Ebene_1
 62
7
100
AcDbPolyline
 90
2
 70
0
 10
152.434983
 20
17.115510
 30
0.0
 10
42.564985
 20
17.115510
 30
0.0
  0
SPLINE
  5
10f
100
AcDbEntity
  8
Ebene_1
 62
7
100
AcDbSpline
 70
8
 71
3
 72
8
 73
4
 74
0
 40
0
 40
0
 40
0
 40
0
 40
1
 40
1
 40
1
 40
1
 10
18.072302
 20
224.443495
 30
0.0
 10
18.072302
 20
238.045099
 30
0.0
 10
28.944978
 20
248.903112
 30
0.0
 10
42.564985
 20
248.903112
 30
0.0
  0
LWPOLYLINE
  5
110
100
AcDbEntity
  8
Ebene_1
 62
7
100
AcDbPolyline
 90
2
 70
0
 10
18.072302
 20
41.575121
 30
0.0
 10
18.072302
 20
224.443495
 30
0.0
  0
SPLINE
  5
111
100
AcDbEntity
  8
Ebene_1
 62
7
100
AcDbSpline
 70
8
 71
3
 72
8
 73
4
 74
0
 40
0
 40
0
 40
0
 40
0
 40
1
 40
1
 40
1
 40
1
 10
32.217118
 20
30.196109
 30
0.0
 10
32.217117
 20
28.992901
 30
0.0
 10
31.241723
 20
28.017508
 30
0.0
 10
30.038514
 20
28.017508
 30
0.0
  0
SPLINE
  5
112
100
AcDbEntity
  8
Ebene_1
 62
7
100
AcDbSpline
 70
8
 71
3
 72
8
 73
4
 74
0
 40
0
 40
0
 40
0
 40
0
 40
1
 40
1
 40
1
 40
1
 10
30.038514
 20
28.017508
 30
0.0
 10
28.835306
 20
28.017509
 30
0.0
 10
27.859913
 20
28.992901
 30
0.0
 10
27.859912
 20
30.196109
 30
0.0
  0
SPLINE
  5
113
100
AcDbEntity
  8
Ebene_1
 62
7
100
AcDbSpline
 70
8
 71
3
 72
8
 73
4
 74
0
 40
0
 40
0
 40
0
 40
0
 40
1
 40
1
 40
1
 40
1
 10
27.859912
 20
30.196109
 30
0.0
 10
27.859913
 20
31.399317
 30
0.0
 10
28.835306
 20
32.374710
 30
0.0
 10
30.038514
 20
32.374710
 30
0.0
  0
SPLINE
  5
114
100
AcDbEntity
  8
Ebene_1
 62
7
100
AcDbSpline
 70
8
 71
3
 72
8
 73
4
 74
0
 40
0
 40
0
 40
0
 40
0
 40
1
 40
1
 40
1
 40
1
 10
30.038514
 20
32.374710
 30
0.0
 10
31.241723
 20
32.374710
 30
0.0
 10
32.217117
 20
31.399318
 30
0.0
 10
32.217118
 20
30.196109
 30
0.0
  0
LWPOLYLINE
  5
115
100
AcDbEntity
  8
Ebene_1
 62
7
100
AcDbPolyline
 90
1
 70
1
 10
42.564985
 20
248.903112
 30
0.0
  0
SPLINE
  5
116
100
AcDbEntity
  8
Ebene_1
 62
7
100
AcDbSpline
 70
8
 71
3
 72
8
 73
4
 74
0
 40
0
 40
0
 40
0
 40
0
 40
1
 40
1
 40
1
 40
1
 10
167.215279
 20
30.450275
 30
0.0
 10
167.215278
 20
29.247068
 30
0.0
 10
166.239886
 20
28.271676
 30
0.0
 10
165.036679
 20
28.271674
 30
0.0
  0
SPLINE
  5
117
100
AcDbEntity
  8
Ebene_1
 62
7
100
AcDbSpline
 70
8
 71
3
 72
8
 73
4
 74
0
 40
0
 40
0
 40
0
 40
0
 40
1
 40
1
 40
1
 40
1
 10
165.036679
 20
28.271674
 30
0.0
 10
163.833471
 20
28.271676
 30
0.0
 10
162.858079
 20
29.247068
 30
0.0
 10
162.858078
 20
30.450275
 30
0.0
  0
SPLINE
  5
118
100
AcDbEntity
  8
Ebene_1
 62
7
100
AcDbSpline
 70
8
 71
3
 72
8
 73
4
 74
0
 40
0
 40
0
 40
0
 40
0
 40
1
 40
1
 40
1
 40
1
 10
162.858078
 20
30.450275
 30
0.0
 10
162.858079
 20
31.653483
 30
0.0
 10
163.833471
 20
32.628875
 30
0.0
 10
165.036679
 20
32.628876
 30
0.0
  0
SPLINE
  5
119
100
AcDbEntity
  8
Ebene_1
 62
7
100
AcDbSpline
 70
8
 71
3
 72
8
 73
4
 74
0
 40
0
 40
0
 40
0
 40
0
 40
1
 40
1
 40
1
 40
1
 10
165.036679
 20
32.628876
 30
0.0
 10
166.239886
 20
32.628875
 30
0.0
 10
167.215278
 20
31.653483
 30
0.0
 10
167.215279
 20
30.450275
 30
0.0
  0
LWPOLYLINE
  5
11a
100
AcDbEntity
  8
Ebene_1
 62
7
100
AcDbPolyline
 90
1
 70
1
 10
32.217118
 20
30.196109
 30
0.0
  0
SPLINE
  5
11b
100
AcDbEntity
  8
Ebene_1
 62
7
100
AcDbSpline
 70
8
 71
3
 72
8
 73
4
 74
0
 40
0
 40
0
 40
0
 40
0
 40
1
 40
1
 40
1
 40
1
 10
167.544657
 20
235.314170
 30
0.0
 10
167.544657
 20
234.110961
 30
0.0
 10
166.569265
 20
233.135568
 30
0.0
 10
165.366056
 20
233.135567
 30
0.0
  0
SPLINE
  5
11c
100
AcDbEntity
  8
Ebene_1
 62
7
100
AcDbSpline
 70
8
 71
3
 72
8
 73
4
 74
0
 40
0
 40
0
 40
0
 40
0
 40
1
 40
1
 40
1
 40
1
 10
165.366056
 20
233.135567
 30
0.0
 10
164.162848
 20
233.135568
 30
0.0
 10
163.187455
 20
234.110961
 30
0.0
 10
163.187455
 20
235.314170
 30
0.0
  0
SPLINE
  5
11d
100
AcDbEntity
  8
Ebene_1
 62
7
100
AcDbSpline
 70
8
 71
3
 72
8
 73
4
 74
0
 40
0
 40
0
 40
0
 40
0
 40
1
 40
1
 40
1
 40
1
 10
163.187455
 20
235.314170
 30
0.0
 10
163.187455
 20
236.517378
 30
0.0
 10
164.162848
 20
237.492772
 30
0.0
 10
165.366056
 20
237.492773
 30
0.0
  0
SPLINE
  5
11e
100
AcDbEntity
  8
Ebene_1
 62
7
100
AcDbSpline
 70
8
 71
3
 72
8
 73
4
 74
0
 40
0
 40
0
 40
0
 40
0
 40
1
 40
1
 40
1
 40
1
 10
165.366056
 20
237.492773
 30
0.0
 10
166.569265
 20
237.492772
 30
0.0
 10
167.544657
 20
236.517379
 30
0.0
 10
167.544657
 20
235.314170
 30
0.0
  0
LWPOLYLINE
  5
11f
100
AcDbEntity
  8
Ebene_1
 62
7
100
AcDbPolyline
 90
1
 70
1
 10
167.215279
 20
30.450275
 30
0.0
  0
SPLINE
  5
120
100
AcDbEntity
  8
Ebene_1
 62
7
100
AcDbSpline
 70
8
 71
3
 72
8
 73
4
 74
0
 40
0
 40
0
 40
0
 40
0
 40
1
 40
1
 40
1
 40
1
 10
32.471282
 20
235.314170
 30
0.0
 10
32.471282
 20
234.736368
 30
0.0
 10
32.241751
 20
234.182232
 30
0.0
 10
31.833184
 20
233.773665
 30
0.0
  0
SPLINE
  5
121
100
AcDbEntity
  8
Ebene_1
 62
7
100
AcDbSpline
 70
8
 71
3
 72
8
 73
4
 74
0
 40
0
 40
0
 40
0
 40
0
 40
1
 40
1
 40
1
 40
1
 10
31.833184
 20
233.773665
 30
0.0
 10
31.424617
 20
233.365097
 30
0.0
 10
30.870480
 20
233.135566
 30
0.0
 10
30.292679
 20
233.135567
 30
0.0
  0
SPLINE
  5
122
100
AcDbEntity
  8
Ebene_1
 62
7
100
AcDbSpline
 70
8
 71
3
 72
8
 73
4
 74
0
 40
0
 40
0
 40
0
 40
0
 40
1
 40
1
 40
1
 40
1
 10
30.292679
 20
233.135567
 30
0.0
 10
29.089469
 20
233.135567
 30
0.0
 10
28.114076
 20
234.110961
 30
0.0
 10
28.114076
 20
235.314170
 30
0.0
  0
SPLINE
  5
123
100
AcDbEntity
  8
Ebene_1
 62
7
100
AcDbSpline
 70
8
 71
3
 72
8
 73
4
 74
0
 40
0
 40
0
 40
0
 40
0
 40
1
 40
1
 40
1
 40
1
 10
28.114076
 20
235.314170
 30
0.0
 10
28.114076
 20
236.517379
 30
0.0
 10
29.089469
 20
237.492773
 30
0.0
 10
30.292679
 20
237.492773
 30
0.0
  0
SPLINE
  5
124
100
AcDbEntity
  8
Ebene_1
 62
7
100
AcDbSpline
 70
8
 71
3
 72
8
 73
4
 74
0
 40
0
 40
0
 40
0
 40
0
 40
1
 40
1
 40
1
 40
1
 10
30.292679
 20
237.492773
 30
0.0
 10
30.870480
 20
237.492774
 30
0.0
 10
31.424617
 20
237.263243
 30
0.0
 10
31.833184
 20
236.854675
 30
0.0
  0
SPLINE
  5
125
100
AcDbEntity
  8
Ebene_1
 62
7
100
AcDbSpline
 70
8
 71
3
 72
8
 73
4
 74
0
 40
0
 40
0
 40
0
 40
0
 40
1
 40
1
 40
1
 40
1
 10
31.833184
 20
236.854675
 30
0.0
 10
32.241751
 20
236.446108
 30
0.0
 10
32.471282
 20
235.891972
 30
0.0
 10
32.471282
 20
235.314170
 30
0.0
  0
LWPOLYLINE
  5
126
100
AcDbEntity
  8
Ebene_1
 62
7
100
AcDbPolyline
 90
1
 70
1
 10
167.544657
 20
235.314170
 30
0.0
  0
LWPOLYLINE
  5
127
100
AcDbEntity
  8
Ebene_1
 62
7
100
AcDbPolyline
 90
1
 70
1
 10
32.471282
 20
235.314170
 30
0.0
  0
SPLINE
  5
128
100
AcDbEntity
  8
Ebene_1
 62
7
100
AcDbSpline
 70
8
 71
3
 72
8
 73
4
 74
0
 40
0
 40
0
 40
0
 40
0
 40
1
 40
1
 40
1
 40
1
 10
148.148051
 20
58.746843
 30
0.0
 10
148.148051
 20
57.659398
 30
0.0
 10
148.516395
 20
56.680194
 30
0.0
 10
149.219100
 20
55.900673
 30
0.0
  0
LWPOLYLINE
  5
129
100
AcDbEntity
  8
Ebene_1
 62
7
100
AcDbPolyline
 90
2
 70
0
 10
148.148051
 20
66.314227
 30
0.0
 10
148.148051
 20
58.746843
 30
0.0
  0
SPLINE
  5
12a
100
AcDbEntity
  8
Ebene_1
 62
7
100
AcDbSpline
 70
8
 71
3
 72
8
 73
4
 74
0
 40
0
 40
0
 40
0
 40
0
 40
1
 40
1
 40
1
 40
1
 10
149.222411
 20
55.897187
 30
0.0
 10
149.929262
 20
55.133700
 30
0.0
 10
150.838598
 20
54.735016
 30
0.0
 10
151.860729
 20
54.735016
 30
0.0
  0
LWPOLYLINE
  5
12b
100
AcDbEntity
  8
Ebene_1
 62
7
100
AcDbPolyline
 90
3
 70
0
 10
149.219100
 20
55.900673
 30
0.0
 10
149.220756
 20
55.898930
 30
0.0
 10
149.222411
 20
55.897187
 30
0.0
  0
SPLINE
  5
12c
100
AcDbEntity
  8
Ebene_1
 62
7
100
AcDbSpline
 70
8
 71
3
 72
8
 73
4
 74
0
 40
0
 40
0
 40
0
 40
0
 40
1
 40
1
 40
1
 40
1
 10
154.734873
 20
65.861435
 30
0.0
 10
154.734873
 20
64.773982
 30
0.0
 10
155.103219
 20
63.796556
 30
0.0
 10
155.805921
 20
63.017035
 30
0.0
  0
LWPOLYLINE
  5
12d
100
AcDbEntity
  8
Ebene_1
 62
7
100
AcDbPolyline
 90
5
 70
0
 10
151.860729
 20
54.735016
 30
0.0
 10
168.748576
 20
54.735016
 30
0.0
 10
168.748576
 20
66.314271
 30
0.0
 10
154.734873
 20
66.314271
 30
0.0
 10
154.734873
 20
65.861435
 30
0.0
  0
SPLINE
  5
12e
100
AcDbEntity
  8
Ebene_1
 62
7
100
AcDbSpline
 70
8
 71
3
 72
8
 73
4
 74
0
 40
0
 40
0
 40
0
 40
0
 40
1
 40
1
 40
1
 40
1
 10
155.810888
 20
63.011806
 30
0.0
 10
156.517737
 20
62.248328
 30
0.0
 10
157.427074
 20
61.851404
 30
0.0
 10
158.449205
 20
61.851404
 30
0.0
  0
LWPOLYLINE
  5
12f
100
AcDbEntity
  8
Ebene_1
 62
7
100
AcDbPolyline
 90
3
 70
0
 10
155.805921
 20
63.017035
 30
0.0
 10
155.809232
 20
63.013549
 30
0.0
 10
155.810888
 20
63.011806
 30
0.0
  0
SPLINE
  5
130
100
AcDbEntity
  8
Ebene_1
 62
7
100
AcDbSpline
 70
8
 71
3
 72
8
 73
4
 74
0
 40
0
 40
0
 40
0
 40
0
 40
1
 40
1
 40
1
 40
1
 10
153.508298
 20
59.199809
 30
0.0
 10
153.143663
 20
59.199809
 30
0.0
 10
152.876369
 20
59.317524
 30
0.0
 10
152.625584
 20
59.569501
 30
0.0
  0
SPLINE
  5
131
100
AcDbEntity
  8
Ebene_1
 62
7
100
AcDbSpline
 70
8
 71
3
 72
8
 73
4
 74
0
 40
0
 40
0
 40
0
 40
0
 40
1
 40
1
 40
1
 40
1
 10
152.625584
 20
59.569501
 30
0.0
 10
152.390404
 20
59.841277
 30
0.0
 10
152.280031
 20
60.129349
 30
0.0
 10
152.280031
 20
60.524713
 30
0.0
  0
LWPOLYLINE
  5
132
100
AcDbEntity
  8
Ebene_1
 62
7
100
AcDbPolyline
 90
4
 70
0
 10
158.449205
 20
61.851404
 30
0.0
 10
164.616742
 20
61.851404
 30
0.0
 10
164.616742
 20
59.199809
 30
0.0
 10
153.508298
 20
59.199809
 30
0.0
  0
LWPOLYLINE
  5
133
100
AcDbEntity
  8
Ebene_1
 62
7
100
AcDbPolyline
 90
3
 70
0
 10
152.280031
 20
60.524713
 30
0.0
 10
152.280031
 20
66.314349
 30
0.0
 10
148.148051
 20
66.314227
 30
0.0
  0
SPLINE
  5
134
100
AcDbEntity
  8
Ebene_1
 62
7
100
AcDbSpline
 70
8
 71
3
 72
8
 73
4
 74
0
 40
0
 40
0
 40
0
 40
0
 40
1
 40
1
 40
1
 40
1
 10
42.746389
 20
67.640901
 30
0.0
 10
42.746389
 20
67.249554
 30
0.0
 10
42.634775
 20
66.963704
 30
0.0
 10
42.382832
 20
66.689226
 30
0.0
  0
SPLINE
  5
135
100
AcDbEntity
  8
Ebene_1
 62
7
100
AcDbSpline
 70
8
 71
3
 72
8
 73
4
 74
0
 40
0
 40
0
 40
0
 40
0
 40
1
 40
1
 40
1
 40
1
 10
42.382832
 20
66.689226
 30
0.0
 10
42.127919
 20
66.430608
 30
0.0
 10
41.866565
 20
66.314227
 30
0.0
 10
41.519766
 20
66.314227
 30
0.0
  0
LWPOLYLINE
  5
136
100
AcDbEntity
  8
Ebene_1
 62
7
100
AcDbPolyline
 90
4
 70
0
 10
26.277792
 20
73.430528
 30
0.0
 10
26.277792
 20
68.965805
 30
0.0
 10
42.746389
 20
68.965805
 30
0.0
 10
42.746389
 20
67.640901
 30
0.0
  0
SPLINE
  5
137
100
AcDbEntity
  8
Ebene_1
 62
7
100
AcDbSpline
 70
8
 71
3
 72
8
 73
4
 74
0
 40
0
 40
0
 40
0
 40
0
 40
1
 40
1
 40
1
 40
1
 10
43.165639
 20
61.851282
 30
0.0
 10
44.157147
 20
61.851282
 30
0.0
 10
45.054104
 20
62.250533
 30
0.0
 10
45.774481
 20
63.008137
 30
0.0
  0
SPLINE
  5
138
100
AcDbEntity
  8
Ebene_1
 62
7
100
AcDbSpline
 70
8
 71
3
 72
8
 73
4
 74
0
 40
0
 40
0
 40
0
 40
0
 40
1
 40
1
 40
1
 40
1
 10
45.774481
 20
63.008137
 30
0.0
 10
46.499406
 20
63.770552
 30
0.0
 10
46.879921
 20
64.754557
 30
0.0
 10
46.879921
 20
65.861383
 30
0.0
  0
LWPOLYLINE
  5
139
100
AcDbEntity
  8
Ebene_1
 62
7
100
AcDbPolyline
 90
7
 70
0
 10
41.519766
 20
66.314227
 30
0.0
 10
26.277792
 20
66.314227
 30
0.0
 10
26.277792
 20
54.734964
 30
0.0
 10
26.697043
 20
54.734964
 30
0.0
 10
30.409686
 20
54.734964
 30
0.0
 10
30.409686
 20
61.851282
 30
0.0
 10
43.165639
 20
61.851282
 30
0.0
  0
LWPOLYLINE
  5
13a
100
AcDbEntity
  8
Ebene_1
 62
7
100
AcDbPolyline
 90
3
 70
0
 10
46.879921
 20
65.861383
 30
0.0
 10
46.879921
 20
73.430528
 30
0.0
 10
26.277792
 20
73.430528
 30
0.0
  0
LWPOLYLINE
  5
13b
100
AcDbEntity
  8
Ebene_1
 62
7
100
AcDbPolyline
 90
9
 70
1
 10
49.334814
 20
66.314227
 30
0.0
 10
49.334814
 20
54.734964
 30
0.0
 10
49.754064
 20
54.734964
 30
0.0
 10
53.466708
 20
54.734964
 30
0.0
 10
53.466708
 20
61.851282
 30
0.0
 10
65.803419
 20
61.851282
 30
0.0
 10
65.803419
 20
54.734964
 30
0.0
 10
69.935305
 20
54.734964
 30
0.0
 10
69.935305
 20
66.314227
 30
0.0
  0
SPLINE
  5
13c
100
AcDbEntity
  8
Ebene_1
 62
7
100
AcDbSpline
 70
8
 71
3
 72
8
 73
4
 74
0
 40
0
 40
0
 40
0
 40
0
 40
1
 40
1
 40
1
 40
1
 10
49.334814
 20
72.977692
 30
0.0
 10
49.334814
 20
71.890239
 30
0.0
 10
49.703155
 20
70.911044
 30
0.0
 10
50.405867
 20
70.131514
 30
0.0
  0
LWPOLYLINE
  5
13d
100
AcDbEntity
  8
Ebene_1
 62
7
100
AcDbPolyline
 90
2
 70
0
 10
49.334814
 20
73.430528
 30
0.0
 10
49.334814
 20
72.977692
 30
0.0
  0
SPLINE
  5
13e
100
AcDbEntity
  8
Ebene_1
 62
7
100
AcDbSpline
 70
8
 71
3
 72
8
 73
4
 74
0
 40
0
 40
0
 40
0
 40
0
 40
1
 40
1
 40
1
 40
1
 10
50.409353
 20
70.128028
 30
0.0
 10
51.116205
 20
69.364550
 30
0.0
 10
52.025545
 20
68.965848
 30
0.0
 10
53.047676
 20
68.965848
 30
0.0
  0
LWPOLYLINE
  5
13f
100
AcDbEntity
  8
Ebene_1
 62
7
100
AcDbPolyline
 90
3
 70
0
 10
50.405867
 20
70.131514
 30
0.0
 10
50.407610
 20
70.129771
 30
0.0
 10
50.409353
 20
70.128028
 30
0.0
  0
SPLINE
  5
140
100
AcDbEntity
  8
Ebene_1
 62
7
100
AcDbSpline
 70
8
 71
3
 72
8
 73
4
 74
0
 40
0
 40
0
 40
0
 40
0
 40
1
 40
1
 40
1
 40
1
 10
66.222879
 20
68.965848
 30
0.0
 10
67.214387
 20
68.965848
 30
0.0
 10
68.111344
 20
69.365099
 30
0.0
 10
68.831720
 20
70.122721
 30
0.0
  0
SPLINE
  5
141
100
AcDbEntity
  8
Ebene_1
 62
7
100
AcDbSpline
 70
8
 71
3
 72
8
 73
4
 74
0
 40
0
 40
0
 40
0
 40
0
 40
1
 40
1
 40
1
 40
1
 10
68.831720
 20
70.122721
 30
0.0
 10
69.556655
 20
70.885127
 30
0.0
 10
69.935514
 20
71.870910
 30
0.0
 10
69.935514
 20
72.977727
 30
0.0
  0
LWPOLYLINE
  5
142
100
AcDbEntity
  8
Ebene_1
 62
7
100
AcDbPolyline
 90
2
 70
0
 10
53.047676
 20
68.965848
 30
0.0
 10
66.222879
 20
68.965848
 30
0.0
  0
LWPOLYLINE
  5
143
100
AcDbEntity
  8
Ebene_1
 62
7
100
AcDbPolyline
 90
3
 70
0
 10
69.935514
 20
72.977727
 30
0.0
 10
69.935514
 20
73.430572
 30
0.0
 10
49.334814
 20
73.430528
 30
0.0
  0
SPLINE
  5
144
100
AcDbEntity
  8
Ebene_1
 62
7
100
AcDbSpline
 70
8
 71
3
 72
8
 73
4
 74
0
 40
0
 40
0
 40
0
 40
0
 40
1
 40
1
 40
1
 40
1
 10
72.390206
 20
72.977692
 30
0.0
 10
72.390206
 20
71.890239
 30
0.0
 10
72.758547
 20
70.911044
 30
0.0
 10
73.461251
 20
70.131514
 30
0.0
  0
LWPOLYLINE
  5
145
100
AcDbEntity
  8
Ebene_1
 62
7
100
AcDbPolyline
 90
2
 70
0
 10
72.390206
 20
73.430528
 30
0.0
 10
72.390206
 20
72.977692
 30
0.0
  0
SPLINE
  5
146
100
AcDbEntity
  8
Ebene_1
 62
7
100
AcDbSpline
 70
8
 71
3
 72
8
 73
4
 74
0
 40
0
 40
0
 40
0
 40
0
 40
1
 40
1
 40
1
 40
1
 10
73.466479
 20
70.128028
 30
0.0
 10
74.173323
 20
69.364550
 30
0.0
 10
75.082663
 20
68.965857
 30
0.0
 10
76.104793
 20
68.965848
 30
0.0
  0
LWPOLYLINE
  5
147
100
AcDbEntity
  8
Ebene_1
 62
7
100
AcDbPolyline
 90
3
 70
0
 10
73.461251
 20
70.131514
 30
0.0
 10
73.464736
 20
70.129771
 30
0.0
 10
73.466479
 20
70.128028
 30
0.0
  0
SPLINE
  5
148
100
AcDbEntity
  8
Ebene_1
 62
7
100
AcDbSpline
 70
8
 71
3
 72
8
 73
4
 74
0
 40
0
 40
0
 40
0
 40
0
 40
1
 40
1
 40
1
 40
1
 10
88.860763
 20
67.640935
 30
0.0
 10
88.860763
 20
67.249597
 30
0.0
 10
88.747502
 20
66.963747
 30
0.0
 10
88.495551
 20
66.689270
 30
0.0
  0
SPLINE
  5
149
100
AcDbEntity
  8
Ebene_1
 62
7
100
AcDbSpline
 70
8
 71
3
 72
8
 73
4
 74
0
 40
0
 40
0
 40
0
 40
0
 40
1
 40
1
 40
1
 40
1
 10
88.495551
 20
66.689270
 30
0.0
 10
88.240637
 20
66.430652
 30
0.0
 10
87.979292
 20
66.314262
 30
0.0
 10
87.632485
 20
66.314262
 30
0.0
  0
LWPOLYLINE
  5
14a
100
AcDbEntity
  8
Ebene_1
 62
7
100
AcDbPolyline
 90
3
 70
0
 10
76.104793
 20
68.965848
 30
0.0
 10
88.860763
 20
68.965848
 30
0.0
 10
88.860763
 20
67.640935
 30
0.0
  0
SPLINE
  5
14b
100
AcDbEntity
  8
Ebene_1
 62
7
100
AcDbSpline
 70
8
 71
3
 72
8
 73
4
 74
0
 40
0
 40
0
 40
0
 40
0
 40
1
 40
1
 40
1
 40
1
 10
89.225889
 20
61.854802
 30
0.0
 10
90.273831
 20
61.708087
 30
0.0
 10
91.183494
 20
62.268118
 30
0.0
 10
91.887139
 20
63.008128
 30
0.0
  0
SPLINE
  5
14c
100
AcDbEntity
  8
Ebene_1
 62
7
100
AcDbSpline
 70
8
 71
3
 72
8
 73
4
 74
0
 40
0
 40
0
 40
0
 40
0
 40
1
 40
1
 40
1
 40
1
 10
91.887139
 20
63.008128
 30
0.0
 10
92.612073
 20
63.770543
 30
0.0
 10
92.992579
 20
64.754549
 30
0.0
 10
92.992579
 20
65.861374
 30
0.0
  0
LWPOLYLINE
  5
14d
100
AcDbEntity
  8
Ebene_1
 62
7
100
AcDbPolyline
 90
12
 70
0
 10
87.632485
 20
66.314262
 30
0.0
 10
72.390520
 20
66.314262
 30
0.0
 10
72.390520
 20
54.735007
 30
0.0
 10
72.809770
 20
54.735007
 30
0.0
 10
76.524043
 20
54.735007
 30
0.0
 10
76.524043
 20
61.851317
 30
0.0
 10
80.870469
 20
61.851317
 30
0.0
 10
87.458894
 20
54.735007
 30
0.0
 10
93.585490
 20
54.735007
 30
0.0
 10
86.997065
 20
61.851317
 30
0.0
 10
89.280005
 20
61.851317
 30
0.0
 10
89.225889
 20
61.854802
 30
0.0
  0
LWPOLYLINE
  5
14e
100
AcDbEntity
  8
Ebene_1
 62
7
100
AcDbPolyline
 90
3
 70
0
 10
92.992579
 20
65.861374
 30
0.0
 10
92.992579
 20
73.430519
 30
0.0
 10
72.390206
 20
73.430528
 30
0.0
  0
LWPOLYLINE
  5
14f
100
AcDbEntity
  8
Ebene_1
 62
7
100
AcDbPolyline
 90
9
 70
1
 10
110.515602
 20
73.430528
 30
0.0
 10
101.862044
 20
64.083635
 30
0.0
 10
110.515602
 20
54.734964
 30
0.0
 10
110.689193
 20
54.734964
 30
0.0
 10
116.642198
 20
54.734964
 30
0.0
 10
107.985373
 20
64.085404
 30
0.0
 10
109.192345
 20
65.408548
 30
0.0
 10
109.215264
 20
65.408548
 30
0.0
 10
116.642181
 20
73.430528
 30
0.0
  0
LWPOLYLINE
  5
150
100
AcDbEntity
  8
Ebene_1
 62
7
100
AcDbPolyline
 90
5
 70
1
 10
95.447219
 20
73.430528
 30
0.0
 10
95.447219
 20
54.734964
 30
0.0
 10
95.866469
 20
54.734964
 30
0.0
 10
99.579113
 20
54.734964
 30
0.0
 10
99.579113
 20
73.430528
 30
0.0
  0
LWPOLYLINE
  5
151
100
AcDbEntity
  8
Ebene_1
 62
7
100
AcDbPolyline
 90
5
 70
1
 10
118.504241
 20
73.430528
 30
0.0
 10
118.504241
 20
54.734964
 30
0.0
 10
118.923491
 20
54.734964
 30
0.0
 10
122.636126
 20
54.734964
 30
0.0
 10
122.636126
 20
73.430528
 30
0.0
  0
LWPOLYLINE
  5
152
100
AcDbEntity
  8
Ebene_1
 62
7
100
AcDbPolyline
 90
12
 70
1
 10
124.498187
 20
73.430528
 30
0.0
 10
128.384422
 20
69.231150
 30
0.0
 10
128.384422
 20
54.734964
 30
0.0
 10
128.803670
 20
54.734964
 30
0.0
 10
132.517948
 20
54.734964
 30
0.0
 10
132.517948
 20
64.768204
 30
0.0
 10
141.805283
 20
54.734964
 30
0.0
 10
145.693156
 20
54.734964
 30
0.0
 10
145.693156
 20
73.430528
 30
0.0
 10
141.559629
 20
73.430528
 30
0.0
 10
141.559629
 20
61.617779
 30
0.0
 10
130.624780
 20
73.430528
 30
0.0
  0
SPLINE
  5
153
100
AcDbEntity
  8
Ebene_1
 62
7
100
AcDbSpline
 70
8
 71
3
 72
8
 73
4
 74
0
 40
0
 40
0
 40
0
 40
0
 40
1
 40
1
 40
1
 40
1
 10
165.035900
 20
68.965805
 30
0.0
 10
166.027403
 20
68.965805
 30
0.0
 10
166.924360
 20
69.365073
 30
0.0
 10
167.644738
 20
70.122677
 30
0.0
  0
SPLINE
  5
154
100
AcDbEntity
  8
Ebene_1
 62
7
100
AcDbSpline
 70
8
 71
3
 72
8
 73
4
 74
0
 40
0
 40
0
 40
0
 40
0
 40
1
 40
1
 40
1
 40
1
 10
167.644738
 20
70.122677
 30
0.0
 10
168.369671
 20
70.885092
 30
0.0
 10
168.748541
 20
71.870866
 30
0.0
 10
168.748541
 20
72.977692
 30
0.0
  0
LWPOLYLINE
  5
155
100
AcDbEntity
  8
Ebene_1
 62
7
100
AcDbPolyline
 90
4
 70
0
 10
148.148051
 20
73.430528
 30
0.0
 10
148.148051
 20
68.965805
 30
0.0
 10
148.567300
 20
68.965805
 30
0.0
 10
165.035900
 20
68.965805
 30
0.0
  0
LWPOLYLINE
  5
156
100
AcDbEntity
  8
Ebene_1
 62
7
100
AcDbPolyline
 90
3
 70
0
 10
168.748541
 20
72.977692
 30
0.0
 10
168.748541
 20
73.430528
 30
0.0
 10
148.148051
 20
73.430528
 30
0.0
  0
LWPOLYLINE
  5
157
100
AcDbEntity
  8
Ebene_1
 62
7
100
AcDbPolyline
 90
9
 70
1
 10
52.628207
 20
40.585498
 30
0.0
 10
52.628207
 20
29.006235
 30
0.0
 10
53.047458
 20
29.006235
 30
0.0
 10
73.228698
 20
29.006235
 30
0.0
 10
73.228698
 20
40.585498
 30
0.0
 10
69.096804
 20
40.585498
 30
0.0
 10
69.096804
 20
33.470958
 30
0.0
 10
56.760093
 20
33.470958
 30
0.0
 10
56.760093
 20
40.585498
 30
0.0
  0
SPLINE
  5
158
100
AcDbEntity
  8
Ebene_1
 62
7
100
AcDbSpline
 70
8
 71
3
 72
8
 73
4
 74
0
 40
0
 40
0
 40
0
 40
0
 40
1
 40
1
 40
1
 40
1
 10
52.628207
 20
47.247194
 30
0.0
 10
52.628207
 20
46.159740
 30
0.0
 10
52.996557
 20
45.182306
 30
0.0
 10
53.699252
 20
44.402793
 30
0.0
  0
LWPOLYLINE
  5
159
100
AcDbEntity
  8
Ebene_1
 62
7
100
AcDbPolyline
 90
2
 70
0
 10
52.628207
 20
47.700030
 30
0.0
 10
52.628207
 20
47.247194
 30
0.0
  0
SPLINE
  5
15a
100
AcDbEntity
  8
Ebene_1
 62
7
100
AcDbSpline
 70
8
 71
3
 72
8
 73
4
 74
0
 40
0
 40
0
 40
0
 40
0
 40
1
 40
1
 40
1
 40
1
 10
53.702738
 20
44.399308
 30
0.0
 10
54.409590
 20
43.635829
 30
0.0
 10
55.318930
 20
43.237136
 30
0.0
 10
56.341052
 20
43.237136
 30
0.0
  0
LWPOLYLINE
  5
15b
100
AcDbEntity
  8
Ebene_1
 62
7
100
AcDbPolyline
 90
3
 70
0
 10
53.699252
 20
44.402793
 30
0.0
 10
53.700995
 20
44.401051
 30
0.0
 10
53.702738
 20
44.399308
 30
0.0
  0
SPLINE
  5
15c
100
AcDbEntity
  8
Ebene_1
 62
7
100
AcDbSpline
 70
8
 71
3
 72
8
 73
4
 74
0
 40
0
 40
0
 40
0
 40
0
 40
1
 40
1
 40
1
 40
1
 10
69.516263
 20
43.237136
 30
0.0
 10
70.507763
 20
43.237136
 30
0.0
 10
71.404720
 20
43.636378
 30
0.0
 10
72.125096
 20
44.394009
 30
0.0
  0
SPLINE
  5
15d
100
AcDbEntity
  8
Ebene_1
 62
7
100
AcDbSpline
 70
8
 71
3
 72
8
 73
4
 74
0
 40
0
 40
0
 40
0
 40
0
 40
1
 40
1
 40
1
 40
1
 10
72.125096
 20
44.394009
 30
0.0
 10
72.850031
 20
45.156407
 30
0.0
 10
73.228907
 20
46.140429
 30
0.0
 10
73.228907
 20
47.247255
 30
0.0
  0
LWPOLYLINE
  5
15e
100
AcDbEntity
  8
Ebene_1
 62
7
100
AcDbPolyline
 90
2
 70
0
 10
56.341052
 20
43.237136
 30
0.0
 10
69.516263
 20
43.237136
 30
0.0
  0
LWPOLYLINE
  5
15f
100
AcDbEntity
  8
Ebene_1
 62
7
100
AcDbPolyline
 90
3
 70
0
 10
73.228907
 20
47.247255
 30
0.0
 10
73.228907
 20
47.700091
 30
0.0
 10
52.628207
 20
47.700030
 30
0.0
  0
LWPOLYLINE
  5
160
100
AcDbEntity
  8
Ebene_1
 62
7
100
AcDbPolyline
 90
12
 70
1
 10
75.092388
 20
47.700030
 30
0.0
 10
78.978623
 20
43.502421
 30
0.0
 10
78.978623
 20
29.006235
 30
0.0
 10
79.397873
 20
29.006235
 30
0.0
 10
83.110508
 20
29.006235
 30
0.0
 10
83.110508
 20
39.039475
 30
0.0
 10
92.399485
 20
29.006235
 30
0.0
 10
96.285720
 20
29.006235
 30
0.0
 10
96.285720
 20
47.700030
 30
0.0
 10
92.153834
 20
47.700030
 30
0.0
 10
92.153834
 20
35.889050
 30
0.0
 10
81.218975
 20
47.700030
 30
0.0
  0
SPLINE
  5
161
100
AcDbEntity
  8
Ebene_1
 62
7
100
AcDbSpline
 70
8
 71
3
 72
8
 73
4
 74
0
 40
0
 40
0
 40
0
 40
0
 40
1
 40
1
 40
1
 40
1
 10
115.630106
 20
29.006235
 30
0.0
 10
116.621597
 20
29.006235
 30
0.0
 10
117.516924
 20
29.405485
 30
0.0
 10
118.237301
 20
30.163108
 30
0.0
  0
SPLINE
  5
162
100
AcDbEntity
  8
Ebene_1
 62
7
100
AcDbSpline
 70
8
 71
3
 72
8
 73
4
 74
0
 40
0
 40
0
 40
0
 40
0
 40
1
 40
1
 40
1
 40
1
 10
118.237301
 20
30.163108
 30
0.0
 10
118.962227
 20
30.925514
 30
0.0
 10
119.342741
 20
31.911297
 30
0.0
 10
119.342741
 20
33.018114
 30
0.0
  0
LWPOLYLINE
  5
163
100
AcDbEntity
  8
Ebene_1
 62
7
100
AcDbPolyline
 90
4
 70
0
 10
98.740613
 20
47.700030
 30
0.0
 10
98.740613
 20
29.006235
 30
0.0
 10
99.159863
 20
29.006235
 30
0.0
 10
115.630106
 20
29.006235
 30
0.0
  0
LWPOLYLINE
  5
164
100
AcDbEntity
  8
Ebene_1
 62
7
100
AcDbPolyline
 90
5
 70
0
 10
119.342741
 20
33.018114
 30
0.0
 10
119.342741
 20
33.470958
 30
0.0
 10
102.874145
 20
33.470958
 30
0.0
 10
102.874145
 20
47.700030
 30
0.0
 10
98.740613
 20
47.700030
 30
0.0
  0
SPLINE
  5
165
100
AcDbEntity
  8
Ebene_1
 62
7
100
AcDbSpline
 70
8
 71
3
 72
8
 73
4
 74
0
 40
0
 40
0
 40
0
 40
0
 40
1
 40
1
 40
1
 40
1
 10
97.499188
 20
81.950460
 30
0.0
 10
97.310573
 20
82.945220
 30
0.0
 10
81.080442
 20
173.557350
 30
0.0
 10
81.080442
 20
173.615630
 30
0.0
  0
SPLINE
  5
166
100
AcDbEntity
  8
Ebene_1
 62
7
100
AcDbSpline
 70
8
 71
3
 72
8
 73
4
 74
0
 40
0
 40
0
 40
0
 40
0
 40
1
 40
1
 40
1
 40
1
 10
81.080442
 20
173.615630
 30
0.0
 10
81.080442
 20
173.698330
 30
0.0
 10
76.286757
 20
173.577330
 30
0.0
 10
73.877212
 20
173.433480
 30
0.0
  0
SPLINE
  5
167
100
AcDbEntity
  8
Ebene_1
 62
7
100
AcDbSpline
 70
8
 71
3
 72
8
 73
4
 74
0
 40
0
 40
0
 40
0
 40
0
 40
1
 40
1
 40
1
 40
1
 10
73.877212
 20
173.433480
 30
0.0
 10
66.706549
 20
173.005870
 30
0.0
 10
63.018477
 20
171.750140
 30
0.0
 10
61.235936
 20
169.129380
 30
0.0
  0
SPLINE
  5
168
100
AcDbEntity
  8
Ebene_1
 62
7
100
AcDbSpline
 70
8
 71
3
 72
8
 73
4
 74
0
 40
0
 40
0
 40
0
 40
0
 40
1
 40
1
 40
1
 40
1
 10
61.235936
 20
169.129380
 30
0.0
 10
60.578722
 20
168.163120
 30
0.0
 10
60.304357
 20
167.474170
 30
0.0
 10
60.017513
 20
166.070170
 30
0.0
  0
SPLINE
  5
169
100
AcDbEntity
  8
Ebene_1
 62
7
100
AcDbSpline
 70
8
 71
3
 72
8
 73
4
 74
0
 40
0
 40
0
 40
0
 40
0
 40
1
 40
1
 40
1
 40
1
 10
60.017513
 20
166.070170
 30
0.0
 10
59.900983
 20
165.499700
 30
0.0
 10
59.784376
 20
165.011710
 30
0.0
 10
59.758407
 20
164.985740
 30
0.0
  0
SPLINE
  5
16a
100
AcDbEntity
  8
Ebene_1
 62
7
100
AcDbSpline
 70
8
 71
3
 72
8
 73
4
 74
0
 40
0
 40
0
 40
0
 40
0
 40
1
 40
1
 40
1
 40
1
 10
59.758407
 20
164.985740
 30
0.0
 10
59.671117
 20
164.898440
 30
0.0
 10
56.691135
 20
166.314390
 30
0.0
 10
55.198077
 20
167.152630
 30
0.0
  0
SPLINE
  5
16b
100
AcDbEntity
  8
Ebene_1
 62
7
100
AcDbSpline
 70
8
 71
3
 72
8
 73
4
 74
0
 40
0
 40
0
 40
0
 40
0
 40
1
 40
1
 40
1
 40
1
 10
55.198077
 20
167.152630
 30
0.0
 10
50.732296
 20
169.659800
 30
0.0
 10
47.226305
 20
172.562700
 30
0.0
 10
44.841258
 20
175.727900
 30
0.0
  0
SPLINE
  5
16c
100
AcDbEntity
  8
Ebene_1
 62
7
100
AcDbSpline
 70
8
 71
3
 72
8
 73
4
 74
0
 40
0
 40
0
 40
0
 40
0
 40
1
 40
1
 40
1
 40
1
 10
44.841258
 20
175.727900
 30
0.0
 10
44.490860
 20
176.192910
 30
0.0
 10
44.204182
 20
176.611440
 30
0.0
 10
44.204182
 20
176.657950
 30
0.0
  0
SPLINE
  5
16d
100
AcDbEntity
  8
Ebene_1
 62
7
100
AcDbSpline
 70
8
 71
3
 72
8
 73
4
 74
0
 40
0
 40
0
 40
0
 40
0
 40
1
 40
1
 40
1
 40
1
 10
44.204182
 20
176.657950
 30
0.0
 10
44.204182
 20
176.704550
 30
0.0
 10
44.385607
 20
176.817630
 30
0.0
 10
44.607337
 20
176.909390
 30
0.0
  0
SPLINE
  5
16e
100
AcDbEntity
  8
Ebene_1
 62
7
100
AcDbSpline
 70
8
 71
3
 72
8
 73
4
 74
0
 40
0
 40
0
 40
0
 40
0
 40
1
 40
1
 40
1
 40
1
 10
44.607337
 20
176.909390
 30
0.0
 10
44.829075
 20
177.001190
 30
0.0
 10
45.784592
 20
177.412990
 30
0.0
 10
46.730682
 20
177.824590
 30
0.0
  0
SPLINE
  5
16f
100
AcDbEntity
  8
Ebene_1
 62
7
100
AcDbSpline
 70
8
 71
3
 72
8
 73
4
 74
0
 40
0
 40
0
 40
0
 40
0
 40
1
 40
1
 40
1
 40
1
 10
46.730682
 20
177.824590
 30
0.0
 10
57.570557
 20
182.540400
 30
0.0
 10
71.660780
 20
185.836670
 30
0.0
 10
84.305768
 20
186.614900
 30
0.0
  0
LWPOLYLINE
  5
170
100
AcDbEntity
  8
Ebene_1
 62
7
100
AcDbPolyline
 90
14
 70
1
 10
121.797634
 20
47.700030
 30
0.0
 10
121.797634
 20
43.502421
 30
0.0
 10
130.031937
 20
34.608363
 30
0.0
 10
130.031937
 20
29.006235
 30
0.0
 10
130.451185
 20
29.006235
 30
0.0
 10
134.163826
 20
29.006235
 30
0.0
 10
134.163826
 20
34.608363
 30
0.0
 10
142.398126
 20
43.502421
 30
0.0
 10
142.398126
 20
47.700030
 30
0.0
 10
138.266237
 20
47.700030
 30
0.0
 10
138.266237
 20
45.656945
 30
0.0
 10
132.098699
 20
38.993480
 30
0.0
 10
125.929526
 20
45.656945
 30
0.0
 10
125.929526
 20
47.700030
 30
0.0
  0
SPLINE
  5
171
100
AcDbEntity
  8
Ebene_1
 62
7
100
AcDbSpline
 70
8
 71
3
 72
8
 73
4
 74
0
 40
0
 40
0
 40
0
 40
0
 40
1
 40
1
 40
1
 40
1
 10
91.493851
 20
179.301020
 30
0.0
 10
94.826417
 20
175.240150
 30
0.0
 10
97.589947
 20
171.958320
 30
0.0
 10
97.635001
 20
172.008030
 30
0.0
  0
SPLINE
  5
172
100
AcDbEntity
  8
Ebene_1
 62
7
100
AcDbSpline
 70
8
 71
3
 72
8
 73
4
 74
0
 40
0
 40
0
 40
0
 40
0
 40
1
 40
1
 40
1
 40
1
 10
97.635001
 20
172.008030
 30
0.0
 10
97.679971
 20
172.057730
 30
0.0
 10
100.384840
 20
175.349620
 30
0.0
 10
103.645610
 20
179.323300
 30
0.0
  0
SPLINE
  5
173
100
AcDbEntity
  8
Ebene_1
 62
7
100
AcDbSpline
 70
8
 71
3
 72
8
 73
4
 74
0
 40
0
 40
0
 40
0
 40
0
 40
1
 40
1
 40
1
 40
1
 10
103.645610
 20
179.323300
 30
0.0
 10
106.906390
 20
183.296960
 30
0.0
 10
109.624110
 20
186.578920
 30
0.0
 10
109.684970
 20
186.616550
 30
0.0
  0
SPLINE
  5
174
100
AcDbEntity
  8
Ebene_1
 62
7
100
AcDbSpline
 70
8
 71
3
 72
8
 73
4
 74
0
 40
0
 40
0
 40
0
 40
0
 40
1
 40
1
 40
1
 40
1
 10
109.684970
 20
186.616550
 30
0.0
 10
109.811960
 20
186.695050
 30
0.0
 10
112.523820
 20
186.520050
 30
0.0
 10
114.892640
 20
186.280670
 30
0.0
  0
SPLINE
  5
175
100
AcDbEntity
  8
Ebene_1
 62
7
100
AcDbSpline
 70
8
 71
3
 72
8
 73
4
 74
0
 40
0
 40
0
 40
0
 40
0
 40
1
 40
1
 40
1
 40
1
 10
114.892640
 20
186.280670
 30
0.0
 10
124.882250
 20
185.270890
 30
0.0
 10
134.915270
 20
182.959290
 30
0.0
 10
144.028100
 20
179.567880
 30
0.0
  0
SPLINE
  5
176
100
AcDbEntity
  8
Ebene_1
 62
7
100
AcDbSpline
 70
8
 71
3
 72
8
 73
4
 74
0
 40
0
 40
0
 40
0
 40
0
 40
1
 40
1
 40
1
 40
1
 10
144.028100
 20
179.567880
 30
0.0
 10
146.178760
 20
178.767490
 30
0.0
 10
149.638230
 20
177.338920
 30
0.0
 10
150.540480
 20
176.878640
 30
0.0
  0
LWPOLYLINE
  5
177
100
AcDbEntity
  8
Ebene_1
 62
7
100
AcDbPolyline
 90
3
 70
0
 10
84.305768
 20
186.614900
 30
0.0
 10
85.434624
 20
186.684400
 30
0.0
 10
91.493851
 20
179.301020
 30
0.0
  0
SPLINE
  5
178
100
AcDbEntity
  8
Ebene_1
 62
7
100
AcDbSpline
 70
8
 71
3
 72
8
 73
4
 74
0
 40
0
 40
0
 40
0
 40
0
 40
1
 40
1
 40
1
 40
1
 10
150.418270
 20
175.916060
 30
0.0
 10
148.305290
 20
173.010960
 30
0.0
 10
144.992790
 20
170.156080
 30
0.0
 10
140.890570
 20
167.704590
 30
0.0
  0
SPLINE
  5
179
100
AcDbEntity
  8
Ebene_1
 62
7
100
AcDbSpline
 70
8
 71
3
 72
8
 73
4
 74
0
 40
0
 40
0
 40
0
 40
0
 40
1
 40
1
 40
1
 40
1
 10
140.890570
 20
167.704590
 30
0.0
 10
139.762380
 20
167.030380
 30
0.0
 10
136.027700
 20
165.155900
 30
0.0
 10
135.518480
 20
165.008240
 30
0.0
  0
SPLINE
  5
17a
100
AcDbEntity
  8
Ebene_1
 62
7
100
AcDbSpline
 70
8
 71
3
 72
8
 73
4
 74
0
 40
0
 40
0
 40
0
 40
0
 40
1
 40
1
 40
1
 40
1
 10
135.518480
 20
165.008240
 30
0.0
 10
135.308340
 20
164.947240
 30
0.0
 10
135.280160
 20
164.993040
 30
0.0
 10
135.210250
 20
165.509510
 30
0.0
  0
SPLINE
  5
17b
100
AcDbEntity
  8
Ebene_1
 62
7
100
AcDbSpline
 70
8
 71
3
 72
8
 73
4
 74
0
 40
0
 40
0
 40
0
 40
0
 40
1
 40
1
 40
1
 40
1
 10
135.210250
 20
165.509510
 30
0.0
 10
135.167950
 20
165.822080
 30
0.0
 10
135.015090
 20
166.487740
 30
0.0
 10
134.870620
 20
166.988770
 30
0.0
  0
SPLINE
  5
17c
100
AcDbEntity
  8
Ebene_1
 62
7
100
AcDbSpline
 70
8
 71
3
 72
8
 73
4
 74
0
 40
0
 40
0
 40
0
 40
0
 40
1
 40
1
 40
1
 40
1
 10
134.870620
 20
166.988770
 30
0.0
 10
133.732870
 20
170.934260
 30
0.0
 10
130.371210
 20
172.686220
 30
0.0
 10
122.687180
 20
173.338310
 30
0.0
  0
SPLINE
  5
17d
100
AcDbEntity
  8
Ebene_1
 62
7
100
AcDbSpline
 70
8
 71
3
 72
8
 73
4
 74
0
 40
0
 40
0
 40
0
 40
0
 40
1
 40
1
 40
1
 40
1
 10
122.687180
 20
173.338310
 30
0.0
 10
121.014060
 20
173.480280
 30
0.0
 10
114.055670
 20
173.662500
 30
0.0
 10
113.968240
 20
173.566610
 30
0.0
  0
SPLINE
  5
17e
100
AcDbEntity
  8
Ebene_1
 62
7
100
AcDbSpline
 70
8
 71
3
 72
8
 73
4
 74
0
 40
0
 40
0
 40
0
 40
0
 40
1
 40
1
 40
1
 40
1
 10
113.968240
 20
173.566610
 30
0.0
 10
113.923640
 20
173.517610
 30
0.0
 10
100.490650
 20
98.163180
 30
0.0
 10
97.655702
 20
82.057990
 30
0.0
  0
LWPOLYLINE
  5
17f
100
AcDbEntity
  8
Ebene_1
 62
7
100
AcDbPolyline
 90
3
 70
0
 10
150.540480
 20
176.878640
 30
0.0
 10
150.961990
 20
176.663600
 30
0.0
 10
150.418270
 20
175.916060
 30
0.0
  0
SPLINE
  5
180
100
AcDbEntity
  8
Ebene_1
 62
7
100
AcDbSpline
 70
8
 71
3
 72
8
 73
4
 74
0
 40
0
 40
0
 40
0
 40
0
 40
1
 40
1
 40
1
 40
1
 10
150.962560
 20
180.723070
 30
0.0
 10
138.122130
 20
186.138450
 30
0.0
 10
123.533860
 20
189.584460
 30
0.0
 10
108.979540
 20
190.640170
 30
0.0
  0
SPLINE
  5
181
100
AcDbEntity
  8
Ebene_1
 62
7
100
AcDbSpline
 70
8
 71
3
 72
8
 73
4
 74
0
 40
0
 40
0
 40
0
 40
0
 40
1
 40
1
 40
1
 40
1
 10
108.979540
 20
190.640170
 30
0.0
 10
104.303540
 20
190.979350
 30
0.0
 10
94.589190
 20
191.090420
 30
0.0
 10
89.885216
 20
190.858490
 30
0.0
  0
SPLINE
  5
182
100
AcDbEntity
  8
Ebene_1
 62
7
100
AcDbSpline
 70
8
 71
3
 72
8
 73
4
 74
0
 40
0
 40
0
 40
0
 40
0
 40
1
 40
1
 40
1
 40
1
 10
89.885216
 20
190.858490
 30
0.0
 10
73.583798
 20
190.054750
 30
0.0
 10
58.586188
 20
186.732620
 30
0.0
 10
44.172610
 20
180.732670
 30
0.0
  0
SPLINE
  5
183
100
AcDbEntity
  8
Ebene_1
 62
7
100
AcDbSpline
 70
8
 71
3
 72
8
 73
4
 74
0
 40
0
 40
0
 40
0
 40
0
 40
1
 40
1
 40
1
 40
1
 10
44.172610
 20
180.732670
 30
0.0
 10
43.179568
 20
180.319300
 30
0.0
 10
42.305268
 20
180.004820
 30
0.0
 10
42.229705
 20
180.033820
 30
0.0
  0
SPLINE
  5
184
100
AcDbEntity
  8
Ebene_1
 62
7
100
AcDbSpline
 70
8
 71
3
 72
8
 73
4
 74
0
 40
0
 40
0
 40
0
 40
0
 40
1
 40
1
 40
1
 40
1
 10
42.229705
 20
180.033820
 30
0.0
 10
42.154155
 20
180.062920
 30
0.0
 10
41.532422
 20
181.216200
 30
0.0
 10
40.848131
 20
182.596900
 30
0.0
  0
SPLINE
  5
185
100
AcDbEntity
  8
Ebene_1
 62
7
100
AcDbSpline
 70
8
 71
3
 72
8
 73
4
 74
0
 40
0
 40
0
 40
0
 40
0
 40
1
 40
1
 40
1
 40
1
 10
40.848131
 20
182.596900
 30
0.0
 10
39.567844
 20
185.180140
 30
0.0
 10
38.971203
 20
186.522070
 30
0.0
 10
39.062408
 20
186.613260
 30
0.0
  0
SPLINE
  5
186
100
AcDbEntity
  8
Ebene_1
 62
7
100
AcDbSpline
 70
8
 71
3
 72
8
 73
4
 74
0
 40
0
 40
0
 40
0
 40
0
 40
1
 40
1
 40
1
 40
1
 10
39.062408
 20
186.613260
 30
0.0
 10
39.155748
 20
186.706560
 30
0.0
 10
42.914702
 20
188.126650
 30
0.0
 10
45.118019
 20
188.900990
 30
0.0
  0
SPLINE
  5
187
100
AcDbEntity
  8
Ebene_1
 62
7
100
AcDbSpline
 70
8
 71
3
 72
8
 73
4
 74
0
 40
0
 40
0
 40
0
 40
0
 40
1
 40
1
 40
1
 40
1
 10
45.118019
 20
188.900990
 30
0.0
 10
65.773348
 20
196.160200
 30
0.0
 10
87.832680
 20
199.168430
 30
0.0
 10
108.710760
 20
197.573120
 30
0.0
  0
SPLINE
  5
188
100
AcDbEntity
  8
Ebene_1
 62
7
100
AcDbSpline
 70
8
 71
3
 72
8
 73
4
 74
0
 40
0
 40
0
 40
0
 40
0
 40
1
 40
1
 40
1
 40
1
 10
108.710760
 20
197.573120
 30
0.0
 10
124.326300
 20
196.379900
 30
0.0
 10
139.043190
 20
193.085980
 30
0.0
 10
154.024020
 20
187.431130
 30
0.0
  0
SPLINE
  5
189
100
AcDbEntity
  8
Ebene_1
 62
7
100
AcDbSpline
 70
8
 71
3
 72
8
 73
4
 74
0
 40
0
 40
0
 40
0
 40
0
 40
1
 40
1
 40
1
 40
1
 10
154.024020
 20
187.431130
 30
0.0
 10
155.139380
 20
187.010100
 30
0.0
 10
156.071120
 20
186.646470
 30
0.0
 10
156.094550
 20
186.623040
 30
0.0
  0
SPLINE
  5
18a
100
AcDbEntity
  8
Ebene_1
 62
7
100
AcDbSpline
 70
8
 71
3
 72
8
 73
4
 74
0
 40
0
 40
0
 40
0
 40
0
 40
1
 40
1
 40
1
 40
1
 10
156.094550
 20
186.623040
 30
0.0
 10
156.216990
 20
186.500590
 30
0.0
 10
153.221550
 20
180.247430
 30
0.0
 10
152.918040
 20
179.991920
 30
0.0
  0
SPLINE
  5
18b
100
AcDbEntity
  8
Ebene_1
 62
7
100
AcDbSpline
 70
8
 71
3
 72
8
 73
4
 74
0
 40
0
 40
0
 40
0
 40
0
 40
1
 40
1
 40
1
 40
1
 10
152.918040
 20
179.991920
 30
0.0
 10
152.877440
 20
179.957620
 30
0.0
 10
151.997340
 20
180.286650
 30
0.0
 10
150.962560
 20
180.723070
 30
0.0
  0
LWPOLYLINE
  5
18c
100
AcDbEntity
  8
Ebene_1
 62
7
100
AcDbPolyline
 90
3
 70
0
 10
97.655702
 20
82.057990
 30
0.0
 10
97.570562
 20
81.574180
 30
0.0
 10
97.499188
 20
81.950460
 30
0.0
  0
LWPOLYLINE
  5
18d
100
AcDbEntity
  8
Ebene_1
 62
7
100
AcDbPolyline
 90
1
 70
1
 10
150.962560
 20
180.723070
 30
0.0
  0
LWPOLYLINE
  5
18e
100
AcDbEntity
  8
Ebene_1
 62
7
100
AcDbPolyline
 90
9
 70
1
 10
144.154301
 20
219.350840
 30
0.0
 10
144.154301
 20
207.276616
 30
0.0
 10
144.590022
 20
207.276616
 30
0.0
 10
148.759998
 20
207.276616
 30
0.0
 10
148.759998
 20
214.745138
 30
0.0
 10
162.825605
 20
214.745138
 30
0.0
 10
162.825605
 20
207.276616
 30
0.0
 10
167.431310
 20
207.276616
 30
0.0
 10
167.431310
 20
219.350840
 30
0.0
  0
SPLINE
  5
18f
100
AcDbEntity
  8
Ebene_1
 62
7
100
AcDbSpline
 70
8
 71
3
 72
8
 73
4
 74
0
 40
0
 40
0
 40
0
 40
0
 40
1
 40
1
 40
1
 40
1
 10
144.154301
 20
226.383641
 30
0.0
 10
144.154301
 20
225.251422
 30
0.0
 10
144.565674
 20
224.237132
 30
0.0
 10
145.355940
 20
223.425507
 30
0.0
  0
LWPOLYLINE
  5
190
100
AcDbEntity
  8
Ebene_1
 62
7
100
AcDbPolyline
 90
2
 70
0
 10
144.154301
 20
226.819361
 30
0.0
 10
144.154301
 20
226.383641
 30
0.0
  0
SPLINE
  5
191
100
AcDbEntity
  8
Ebene_1
 62
7
100
AcDbSpline
 70
8
 71
3
 72
8
 73
4
 74
0
 40
0
 40
0
 40
0
 40
0
 40
1
 40
1
 40
1
 40
1
 10
145.361169
 20
223.422022
 30
0.0
 10
146.155749
 20
222.627446
 30
0.0
 10
147.174620
 20
222.213578
 30
0.0
 10
148.324408
 20
222.213578
 30
0.0
  0
LWPOLYLINE
  5
192
100
AcDbEntity
  8
Ebene_1
 62
7
100
AcDbPolyline
 90
3
 70
0
 10
145.355940
 20
223.425507
 30
0.0
 10
145.359426
 20
223.423765
 30
0.0
 10
145.361169
 20
223.422022
 30
0.0
  0
SPLINE
  5
193
100
AcDbEntity
  8
Ebene_1
 62
7
100
AcDbSpline
 70
8
 71
3
 72
8
 73
4
 74
0
 40
0
 40
0
 40
0
 40
0
 40
1
 40
1
 40
1
 40
1
 10
163.261456
 20
222.213578
 30
0.0
 10
164.376177
 20
222.213578
 30
0.0
 10
165.380399
 20
222.627982
 30
0.0
 10
166.190657
 20
223.416915
 30
0.0
  0
SPLINE
  5
194
100
AcDbEntity
  8
Ebene_1
 62
7
100
AcDbSpline
 70
8
 71
3
 72
8
 73
4
 74
0
 40
0
 40
0
 40
0
 40
0
 40
1
 40
1
 40
1
 40
1
 10
166.190657
 20
223.416915
 30
0.0
 10
167.005646
 20
224.210460
 30
0.0
 10
167.431440
 20
225.231079
 30
0.0
 10
167.431440
 20
226.383559
 30
0.0
  0
LWPOLYLINE
  5
195
100
AcDbEntity
  8
Ebene_1
 62
7
100
AcDbPolyline
 90
2
 70
0
 10
148.324408
 20
222.213578
 30
0.0
 10
163.261456
 20
222.213578
 30
0.0
  0
LWPOLYLINE
  5
196
100
AcDbEntity
  8
Ebene_1
 62
7
100
AcDbPolyline
 90
3
 70
0
 10
167.431440
 20
226.383559
 30
0.0
 10
167.431440
 20
226.819280
 30
0.0
 10
144.154301
 20
226.819361
 30
0.0
  0
SPLINE
  5
197
100
AcDbEntity
  8
Ebene_1
 62
7
100
AcDbSpline
 70
8
 71
3
 72
8
 73
4
 74
0
 40
0
 40
0
 40
0
 40
0
 40
1
 40
1
 40
1
 40
1
 10
28.085846
 20
226.383641
 30
0.0
 10
28.085846
 20
225.251422
 30
0.0
 10
28.498918
 20
224.237132
 30
0.0
 10
29.289184
 20
223.425507
 30
0.0
  0
LWPOLYLINE
  5
198
100
AcDbEntity
  8
Ebene_1
 62
7
100
AcDbPolyline
 90
2
 70
0
 10
28.085846
 20
226.819361
 30
0.0
 10
28.085846
 20
226.383641
 30
0.0
  0
SPLINE
  5
199
100
AcDbEntity
  8
Ebene_1
 62
7
100
AcDbSpline
 70
8
 71
3
 72
8
 73
4
 74
0
 40
0
 40
0
 40
0
 40
0
 40
1
 40
1
 40
1
 40
1
 10
29.292670
 20
223.422022
 30
0.0
 10
30.087250
 20
222.627445
 30
0.0
 10
31.106121
 20
222.213578
 30
0.0
 10
32.255909
 20
222.213578
 30
0.0
  0
LWPOLYLINE
  5
19a
100
AcDbEntity
  8
Ebene_1
 62
7
100
AcDbPolyline
 90
3
 70
0
 10
29.289184
 20
223.425507
 30
0.0
 10
29.290927
 20
223.423765
 30
0.0
 10
29.292670
 20
223.422022
 30
0.0
  0
SPLINE
  5
19b
100
AcDbEntity
  8
Ebene_1
 62
7
100
AcDbSpline
 70
8
 71
3
 72
8
 73
4
 74
0
 40
0
 40
0
 40
0
 40
0
 40
1
 40
1
 40
1
 40
1
 10
47.192957
 20
222.213660
 30
0.0
 10
48.307678
 20
222.213660
 30
0.0
 10
49.311900
 20
222.628064
 30
0.0
 10
50.122157
 20
223.416997
 30
0.0
  0
SPLINE
  5
19c
100
AcDbEntity
  8
Ebene_1
 62
7
100
AcDbSpline
 70
8
 71
3
 72
8
 73
4
 74
0
 40
0
 40
0
 40
0
 40
0
 40
1
 40
1
 40
1
 40
1
 10
50.122157
 20
223.416997
 30
0.0
 10
50.937146
 20
224.210541
 30
0.0
 10
51.362933
 20
225.231160
 30
0.0
 10
51.362933
 20
226.383641
 30
0.0
  0
LWPOLYLINE
  5
19d
100
AcDbEntity
  8
Ebene_1
 62
7
100
AcDbPolyline
 90
7
 70
0
 10
32.255909
 20
222.213578
 30
0.0
 10
37.421585
 20
222.213578
 30
0.0
 10
37.421585
 20
207.276616
 30
0.0
 10
37.857305
 20
207.276616
 30
0.0
 10
42.027281
 20
207.276616
 30
0.0
 10
42.027281
 20
222.213660
 30
0.0
 10
47.192957
 20
222.213660
 30
0.0
  0
LWPOLYLINE
  5
19e
100
AcDbEntity
  8
Ebene_1
 62
7
100
AcDbPolyline
 90
3
 70
0
 10
51.362933
 20
226.383641
 30
0.0
 10
51.362933
 20
226.819361
 30
0.0
 10
28.085846
 20
226.819361
 30
0.0
  0
SPLINE
  5
19f
100
AcDbEntity
  8
Ebene_1
 62
7
100
AcDbSpline
 70
8
 71
3
 72
8
 73
4
 74
0
 40
0
 40
0
 40
0
 40
0
 40
1
 40
1
 40
1
 40
1
 10
57.102112
 20
211.446598
 30
0.0
 10
57.102112
 20
210.314379
 30
0.0
 10
57.515184
 20
209.300088
 30
0.0
 10
58.305450
 20
208.488464
 30
0.0
  0
LWPOLYLINE
  5
1a0
100
AcDbEntity
  8
Ebene_1
 62
7
100
AcDbPolyline
 90
2
 70
0
 10
57.102112
 20
211.882318
 30
0.0
 10
57.102112
 20
211.446598
 30
0.0
  0
SPLINE
  5
1a1
100
AcDbEntity
  8
Ebene_1
 62
7
100
AcDbSpline
 70
8
 71
3
 72
8
 73
4
 74
0
 40
0
 40
0
 40
0
 40
0
 40
1
 40
1
 40
1
 40
1
 10
58.308936
 20
208.483323
 30
0.0
 10
59.103507
 20
207.688746
 30
0.0
 10
60.122379
 20
207.276581
 30
0.0
 10
61.272175
 20
207.276581
 30
0.0
  0
LWPOLYLINE
  5
1a2
100
AcDbEntity
  8
Ebene_1
 62
7
100
AcDbPolyline
 90
3
 70
0
 10
58.305450
 20
208.488464
 30
0.0
 10
58.307193
 20
208.486721
 30
0.0
 10
58.308936
 20
208.483323
 30
0.0
  0
SPLINE
  5
1a3
100
AcDbEntity
  8
Ebene_1
 62
7
100
AcDbSpline
 70
8
 71
3
 72
8
 73
4
 74
0
 40
0
 40
0
 40
0
 40
0
 40
1
 40
1
 40
1
 40
1
 10
76.209214
 20
207.276581
 30
0.0
 10
77.323936
 20
207.276581
 30
0.0
 10
78.329866
 20
207.690985
 30
0.0
 10
79.140114
 20
208.479918
 30
0.0
  0
SPLINE
  5
1a4
100
AcDbEntity
  8
Ebene_1
 62
7
100
AcDbSpline
 70
8
 71
3
 72
8
 73
4
 74
0
 40
0
 40
0
 40
0
 40
0
 40
1
 40
1
 40
1
 40
1
 10
79.140114
 20
208.479918
 30
0.0
 10
79.955112
 20
209.273462
 30
0.0
 10
80.379199
 20
210.294081
 30
0.0
 10
80.379199
 20
211.446562
 30
0.0
  0
LWPOLYLINE
  5
1a5
100
AcDbEntity
  8
Ebene_1
 62
7
100
AcDbPolyline
 90
2
 70
0
 10
61.272175
 20
207.276581
 30
0.0
 10
76.209214
 20
207.276581
 30
0.0
  0
LWPOLYLINE
  5
1a6
100
AcDbEntity
  8
Ebene_1
 62
7
100
AcDbPolyline
 90
3
 70
0
 10
80.379199
 20
211.446562
 30
0.0
 10
80.379199
 20
211.882282
 30
0.0
 10
57.102112
 20
211.882318
 30
0.0
  0
SPLINE
  5
1a7
100
AcDbEntity
  8
Ebene_1
 62
7
100
AcDbSpline
 70
8
 71
3
 72
8
 73
4
 74
0
 40
0
 40
0
 40
0
 40
0
 40
1
 40
1
 40
1
 40
1
 10
57.102112
 20
218.915120
 30
0.0
 10
57.102112
 20
217.782900
 30
0.0
 10
57.515184
 20
216.768611
 30
0.0
 10
58.305450
 20
215.956986
 30
0.0
  0
LWPOLYLINE
  5
1a8
100
AcDbEntity
  8
Ebene_1
 62
7
100
AcDbPolyline
 90
2
 70
0
 10
57.102112
 20
219.350840
 30
0.0
 10
57.102112
 20
218.915120
 30
0.0
  0
SPLINE
  5
1a9
100
AcDbEntity
  8
Ebene_1
 62
7
100
AcDbSpline
 70
8
 71
3
 72
8
 73
4
 74
0
 40
0
 40
0
 40
0
 40
0
 40
1
 40
1
 40
1
 40
1
 10
58.308936
 20
215.951845
 30
0.0
 10
59.103507
 20
215.157269
 30
0.0
 10
60.122379
 20
214.745103
 30
0.0
 10
61.272175
 20
214.745103
 30
0.0
  0
LWPOLYLINE
  5
1aa
100
AcDbEntity
  8
Ebene_1
 62
7
100
AcDbPolyline
 90
3
 70
0
 10
58.305450
 20
215.956986
 30
0.0
 10
58.307193
 20
215.955243
 30
0.0
 10
58.308936
 20
215.951845
 30
0.0
  0
SPLINE
  5
1ab
100
AcDbEntity
  8
Ebene_1
 62
7
100
AcDbSpline
 70
8
 71
3
 72
8
 73
4
 74
0
 40
0
 40
0
 40
0
 40
0
 40
1
 40
1
 40
1
 40
1
 10
76.209214
 20
214.745103
 30
0.0
 10
77.323936
 20
214.745103
 30
0.0
 10
78.329866
 20
215.159507
 30
0.0
 10
79.140114
 20
215.948441
 30
0.0
  0
SPLINE
  5
1ac
100
AcDbEntity
  8
Ebene_1
 62
7
100
AcDbSpline
 70
8
 71
3
 72
8
 73
4
 74
0
 40
0
 40
0
 40
0
 40
0
 40
1
 40
1
 40
1
 40
1
 10
79.140114
 20
215.948441
 30
0.0
 10
79.955112
 20
216.741985
 30
0.0
 10
80.379199
 20
217.762604
 30
0.0
 10
80.379199
 20
218.915085
 30
0.0
  0
LWPOLYLINE
  5
1ad
100
AcDbEntity
  8
Ebene_1
 62
7
100
AcDbPolyline
 90
2
 70
0
 10
61.272175
 20
214.745103
 30
0.0
 10
76.209214
 20
214.745103
 30
0.0
  0
LWPOLYLINE
  5
1ae
100
AcDbEntity
  8
Ebene_1
 62
7
100
AcDbPolyline
 90
3
 70
0
 10
80.379199
 20
218.915085
 30
0.0
 10
80.379199
 20
219.350805
 30
0.0
 10
57.102112
 20
219.350840
 30
0.0
  0
SPLINE
  5
1af
100
AcDbEntity
  8
Ebene_1
 62
7
100
AcDbSpline
 70
8
 71
3
 72
8
 73
4
 74
0
 40
0
 40
0
 40
0
 40
0
 40
1
 40
1
 40
1
 40
1
 10
57.102112
 20
226.383641
 30
0.0
 10
57.102112
 20
225.251422
 30
0.0
 10
57.515184
 20
224.237132
 30
0.0
 10
58.305450
 20
223.425507
 30
0.0
  0
LWPOLYLINE
  5
1b0
100
AcDbEntity
  8
Ebene_1
 62
7
100
AcDbPolyline
 90
2
 70
0
 10
57.102112
 20
226.819361
 30
0.0
 10
57.102112
 20
226.383641
 30
0.0
  0
SPLINE
  5
1b1
100
AcDbEntity
  8
Ebene_1
 62
7
100
AcDbSpline
 70
8
 71
3
 72
8
 73
4
 74
0
 40
0
 40
0
 40
0
 40
0
 40
1
 40
1
 40
1
 40
1
 10
58.308936
 20
223.422022
 30
0.0
 10
59.103507
 20
222.627445
 30
0.0
 10
60.122379
 20
222.213578
 30
0.0
 10
61.272175
 20
222.213578
 30
0.0
  0
LWPOLYLINE
  5
1b2
100
AcDbEntity
  8
Ebene_1
 62
7
100
AcDbPolyline
 90
3
 70
0
 10
58.305450
 20
223.425507
 30
0.0
 10
58.307193
 20
223.423765
 30
0.0
 10
58.308936
 20
223.422022
 30
0.0
  0
SPLINE
  5
1b3
100
AcDbEntity
  8
Ebene_1
 62
7
100
AcDbSpline
 70
8
 71
3
 72
8
 73
4
 74
0
 40
0
 40
0
 40
0
 40
0
 40
1
 40
1
 40
1
 40
1
 10
76.209214
 20
222.213578
 30
0.0
 10
77.323936
 20
222.213578
 30
0.0
 10
78.329866
 20
222.627982
 30
0.0
 10
79.140114
 20
223.416915
 30
0.0
  0
SPLINE
  5
1b4
100
AcDbEntity
  8
Ebene_1
 62
7
100
AcDbSpline
 70
8
 71
3
 72
8
 73
4
 74
0
 40
0
 40
0
 40
0
 40
0
 40
1
 40
1
 40
1
 40
1
 10
79.140114
 20
223.416915
 30
0.0
 10
79.955112
 20
224.210459
 30
0.0
 10
80.379199
 20
225.231078
 30
0.0
 10
80.379199
 20
226.383559
 30
0.0
  0
LWPOLYLINE
  5
1b5
100
AcDbEntity
  8
Ebene_1
 62
7
100
AcDbPolyline
 90
2
 70
0
 10
61.272175
 20
222.213578
 30
0.0
 10
76.209214
 20
222.213578
 30
0.0
  0
LWPOLYLINE
  5
1b6
100
AcDbEntity
  8
Ebene_1
 62
7
100
AcDbPolyline
 90
3
 70
0
 10
80.379199
 20
226.383559
 30
0.0
 10
80.379199
 20
226.819280
 30
0.0
 10
57.102112
 20
226.819361
 30
0.0
  0
SPLINE
  5
1b7
100
AcDbEntity
  8
Ebene_1
 62
7
100
AcDbSpline
 70
8
 71
3
 72
8
 73
4
 74
0
 40
0
 40
0
 40
0
 40
0
 40
1
 40
1
 40
1
 40
1
 10
90.290054
 20
211.882318
 30
0.0
 10
89.155098
 20
211.882318
 30
0.0
 10
88.137516
 20
211.457344
 30
0.0
 10
87.326815
 20
210.646643
 30
0.0
  0
SPLINE
  5
1b8
100
AcDbEntity
  8
Ebene_1
 62
7
100
AcDbSpline
 70
8
 71
3
 72
8
 73
4
 74
0
 40
0
 40
0
 40
0
 40
0
 40
1
 40
1
 40
1
 40
1
 10
87.326815
 20
210.646643
 30
0.0
 10
86.533629
 20
209.853454
 30
0.0
 10
86.120078
 20
208.844556
 30
0.0
 10
86.120078
 20
207.712337
 30
0.0
  0
LWPOLYLINE
  5
1b9
100
AcDbEntity
  8
Ebene_1
 62
7
100
AcDbPolyline
 90
5
 70
0
 10
86.120078
 20
226.819361
 30
0.0
 10
86.120078
 20
214.745138
 30
0.0
 10
104.791381
 20
214.745138
 30
0.0
 10
104.791381
 20
211.882318
 30
0.0
 10
90.290054
 20
211.882318
 30
0.0
  0
SPLINE
  5
1ba
100
AcDbEntity
  8
Ebene_1
 62
7
100
AcDbSpline
 70
8
 71
3
 72
8
 73
4
 74
0
 40
0
 40
0
 40
0
 40
0
 40
1
 40
1
 40
1
 40
1
 10
105.227102
 20
222.213660
 30
0.0
 10
106.341823
 20
222.213660
 30
0.0
 10
107.346045
 20
222.628064
 30
0.0
 10
108.156302
 20
223.416997
 30
0.0
  0
SPLINE
  5
1bb
100
AcDbEntity
  8
Ebene_1
 62
7
100
AcDbSpline
 70
8
 71
3
 72
8
 73
4
 74
0
 40
0
 40
0
 40
0
 40
0
 40
1
 40
1
 40
1
 40
1
 10
108.156302
 20
223.416997
 30
0.0
 10
108.971291
 20
224.210542
 30
0.0
 10
109.397078
 20
225.231161
 30
0.0
 10
109.397078
 20
226.383641
 30
0.0
  0
LWPOLYLINE
  5
1bc
100
AcDbEntity
  8
Ebene_1
 62
7
100
AcDbPolyline
 90
8
 70
0
 10
86.120078
 20
207.712337
 30
0.0
 10
86.120078
 20
207.276616
 30
0.0
 10
86.555798
 20
207.276616
 30
0.0
 10
109.397078
 20
207.276616
 30
0.0
 10
109.397078
 20
219.350840
 30
0.0
 10
90.725774
 20
219.350840
 30
0.0
 10
90.725774
 20
222.213660
 30
0.0
 10
105.227102
 20
222.213660
 30
0.0
  0
LWPOLYLINE
  5
1bd
100
AcDbEntity
  8
Ebene_1
 62
7
100
AcDbPolyline
 90
3
 70
0
 10
109.397078
 20
226.383641
 30
0.0
 10
109.397078
 20
226.819361
 30
0.0
 10
86.120078
 20
226.819361
 30
0.0
  0
SPLINE
  5
1be
100
AcDbEntity
  8
Ebene_1
 62
7
100
AcDbSpline
 70
8
 71
3
 72
8
 73
4
 74
0
 40
0
 40
0
 40
0
 40
0
 40
1
 40
1
 40
1
 40
1
 10
134.243359
 20
207.276616
 30
0.0
 10
135.358080
 20
207.276616
 30
0.0
 10
136.364011
 20
207.691021
 30
0.0
 10
137.174259
 20
208.479954
 30
0.0
  0
SPLINE
  5
1bf
100
AcDbEntity
  8
Ebene_1
 62
7
100
AcDbSpline
 70
8
 71
3
 72
8
 73
4
 74
0
 40
0
 40
0
 40
0
 40
0
 40
1
 40
1
 40
1
 40
1
 10
137.174259
 20
208.479954
 30
0.0
 10
137.989248
 20
209.273498
 30
0.0
 10
138.413344
 20
210.294118
 30
0.0
 10
138.413344
 20
211.446598
 30
0.0
  0
LWPOLYLINE
  5
1c0
100
AcDbEntity
  8
Ebene_1
 62
7
100
AcDbPolyline
 90
4
 70
0
 10
115.136336
 20
226.819361
 30
0.0
 10
115.136336
 20
207.276616
 30
0.0
 10
115.572056
 20
207.276616
 30
0.0
 10
134.243359
 20
207.276616
 30
0.0
  0
LWPOLYLINE
  5
1c1
100
AcDbEntity
  8
Ebene_1
 62
7
100
AcDbPolyline
 90
5
 70
0
 10
138.413344
 20
211.446598
 30
0.0
 10
138.413344
 20
211.882318
 30
0.0
 10
119.742041
 20
211.882318
 30
0.0
 10
119.742041
 20
226.819361
 30
0.0
 10
115.136336
 20
226.819361
 30
0.0
  0
ENDSEC
  0
SECTION
  2
OBJECTS
  0
DICTIONARY
  5
C
330
0
100
AcDbDictionary
  3
ACAD_GROUP
350
D
  3
ACAD_MLINESTYLE
350
17
  0
DICTIONARY
  5
D
330
C
100
AcDbDictionary
  0
DICTIONARY
  5
1A
330
C
100
AcDbDictionary
  0
DICTIONARY
  5
17
330
C
100
AcDbDictionary
  3
STANDARD
350
18
  0
DICTIONARY
  5
19
330
C
100
AcDbDictionary
  0
ENDSEC
  0
EOF
