  0
SECTION
  2
HEADER
  9
$ACADVER
  1
AC1014
  9
$HANDSEED
  5
FFFF
  9
$MEASUREMENT
 70
     1
  0
ENDSEC
  0
SECTION
  2
TABLES
  0
TABLE
  2
VPORT
  5
8
330
0
100
AcDbSymbolTable
 70
     4
  0
VPORT
  5
2E
330
8
100
AcDbSymbolTableRecord
100
AcDbViewportTableRecord
  2
*ACTIVE
 70
     0
 10
0.0
 20
0.0
 11
1.0
 21
1.0
 12
210.0
 22
148.5
 13
0.0
 23
0.0
 14
10.0
 24
10.0
 15
10.0
 25
10.0
 16
0.0
 26
0.0
 36
1.0
 17
0.0
 27
0.0
 37
0.0
 40
341.0
 41
1.24
 42
50.0
 43
0.0
 44
0.0
 50
0.0
 51
0.0
 71
     0
 72
   100
 73
     1
 74
     3
 75
     0
 76
     0
 77
     0
 78
     0
  0
ENDTAB
  0
TABLE
  2
LTYPE
  5
5
330
0
100
AcDbSymbolTable
 70
     1
  0
LTYPE
  5
14
330
5
100
AcDbSymbolTableRecord
100
AcDbLinetypeTableRecord
  2
BYBLOCK
 70
     0
  3

 72
    65
 73
     0
 40
0.0
  0
LTYPE
  5
15
330
5
100
AcDbSymbolTableRecord
100
AcDbLinetypeTableRecord
  2
BYLAYER
 70
     0
  3

 72
    65
 73
     0
 40
0.0
  0
LTYPE
  5
16
330
5
100
AcDbSymbolTableRecord
100
AcDbLinetypeTableRecord
  2
CONTINUOUS
 70
     0
  3
Solid line
 72
    65
 73
     0
 40
0.0
  0
ENDTAB
  0
TABLE
  2
LAYER
  5
2
100
AcDbSymbolTable
 70
2
  0
LAYER
  5
50
100
AcDbSymbolTableRecord
100
AcDbLayerTableRecord
  2
0
 70
0
  6
CONTINUOUS
  0
LAYER
  5
51
100
AcDbSymbolTableRecord
100
AcDbLayerTableRecord
  2
Ebene_1
 70
0
  6
CONTINUOUS
  0
ENDTAB
  0
TABLE
  2
STYLE
  5
3
330
0
100
AcDbSymbolTable
 70
     1
  0
STYLE
  5
11
330
3
100
AcDbSymbolTableRecord
100
AcDbTextStyleTableRecord
  2
STANDARD
 70
     0
 40
0.0
 41
1.0
 50
0.0
 71
     0
 42
2.5
  3
txt
  4

  0
ENDTAB
  0
TABLE
  2
VIEW
  5
6
330
0
100
AcDbSymbolTable
 70
     0
  0
ENDTAB
  0
TABLE
  2
UCS
  5
7
330
0
100
AcDbSymbolTable
 70
     0
  0
ENDTAB
  0
TABLE
  2
APPID
  5
9
330
0
100
AcDbSymbolTable
 70
     2
  0
APPID
  5
12
330
9
100
AcDbSymbolTableRecord
100
AcDbRegAppTableRecord
  2
ACAD
 70
     0
  0
ENDTAB
  0
TABLE
  2
DIMSTYLE
  5
A
330
0
100
AcDbSymbolTable
 70
     1
  0
DIMSTYLE
105
27
330
A
100
AcDbSymbolTableRecord
100
AcDbDimStyleTableRecord
  2
ISO-25
 70
     0
  3

  4

  5

  6

  7

 40
1.0
 41
2.5
 42
0.625
 43
3.75
 44
1.25
 45
0.0
 46
0.0
 47
0.0
 48
0.0
140
2.5
141
2.5
142
0.0
143
0.03937007874016
144
1.0
145
0.0
146
1.0
147
0.625
 71
     0
 72
     0
 73
     0
 74
     0
 75
     0
 76
     0
 77
     1
 78
     8
170
     0
171
     3
172
     1
173
     0
174
     0
175
     0
176
     0
177
     0
178
     0
270
     2
271
     2
272
     2
273
     2
274
     3
340
11
275
     0
280
     0
281
     0
282
     0
283
     0
284
     8
285
     0
286
     0
287
     3
288
     0
  0
ENDTAB
  0
TABLE
  2
BLOCK_RECORD
  5
1
330
0
100
AcDbSymbolTable
 70
     1
  0
BLOCK_RECORD
  5
1F
330
1
100
AcDbSymbolTableRecord
100
AcDbBlockTableRecord
  2
*MODEL_SPACE
  0
BLOCK_RECORD
  5
1B
330
1
100
AcDbSymbolTableRecord
100
AcDbBlockTableRecord
  2
*PAPER_SPACE
  0
ENDTAB
  0
ENDSEC
  0
SECTION
  2
BLOCKS
  0
BLOCK
  5
20
330
1F
100
AcDbEntity
  8
0
100
AcDbBlockBegin
  2
*MODEL_SPACE
 70
     0
 10
0.0
 20
0.0
 30
0.0
  3
*MODEL_SPACE
  1

  0
ENDBLK
  5
21
330
1F
100
AcDbEntity
  8
0
100
AcDbBlockEnd
  0
BLOCK
  5
1C
330
1B
100
AcDbEntity
 67
     1
  8
0
100
AcDbBlockBegin
  2
*PAPER_SPACE
  1

  0
ENDBLK
  5
1D
330
1B
100
AcDbEntity
 67
     1
  8
0
100
AcDbBlockEnd
  0
ENDSEC
  0
SECTION
  2
ENTITIES
  0
SPLINE
  5
100
100
AcDbEntity
  8
Ebene_1
 62
7
100
AcDbSpline
 70
8
 71
3
 72
8
 73
4
 74
0
 40
0
 40
0
 40
0
 40
0
 40
1
 40
1
 40
1
 40
1
 10
36.436552
 20
203.771318
 30
0.0
 10
23.471054
 20
203.771318
 30
0.0
 10
12.960898
 20
193.275350
 30
0.0
 10
12.960898
 20
180.327340
 30
0.0
  0
LWPOLYLINE
  5
101
100
AcDbEntity
  8
Ebene_1
 62
7
100
AcDbPolyline
 90
4
 70
1
 10
299.801860
 20
219.405233
 30
0.0
 10
299.801860
 20
-0.194790
 30
0.0
 10
0.201867
 20
-0.194790
 30
0.0
 10
0.201867
 20
219.405233
 30
0.0
  0
SPLINE
  5
102
100
AcDbEntity
  8
Ebene_1
 62
7
100
AcDbSpline
 70
8
 71
3
 72
8
 73
4
 74
0
 40
0
 40
0
 40
0
 40
0
 40
1
 40
1
 40
1
 40
1
 10
12.960898
 20
39.315720
 30
0.0
 10
12.960898
 20
26.367710
 30
0.0
 10
23.471054
 20
15.871730
 30
0.0
 10
36.436552
 20
15.871730
 30
0.0
  0
LWPOLYLINE
  5
103
100
AcDbEntity
  8
Ebene_1
 62
7
100
AcDbPolyline
 90
2
 70
0
 10
12.960898
 20
180.327340
 30
0.0
 10
12.960898
 20
39.315720
 30
0.0
  0
SPLINE
  5
104
100
AcDbEntity
  8
Ebene_1
 62
7
100
AcDbSpline
 70
8
 71
3
 72
8
 73
4
 74
0
 40
0
 40
0
 40
0
 40
0
 40
1
 40
1
 40
1
 40
1
 10
121.158410
 20
15.871730
 30
0.0
 10
134.123930
 20
15.871730
 30
0.0
 10
144.634080
 20
26.367710
 30
0.0
 10
144.634080
 20
39.315720
 30
0.0
  0
LWPOLYLINE
  5
105
100
AcDbEntity
  8
Ebene_1
 62
7
100
AcDbPolyline
 90
2
 70
0
 10
36.436552
 20
15.871730
 30
0.0
 10
121.158410
 20
15.871730
 30
0.0
  0
SPLINE
  5
106
100
AcDbEntity
  8
Ebene_1
 62
7
100
AcDbSpline
 70
8
 71
3
 72
8
 73
4
 74
0
 40
0
 40
0
 40
0
 40
0
 40
1
 40
1
 40
1
 40
1
 10
144.634080
 20
180.327340
 30
0.0
 10
144.634080
 20
193.275350
 30
0.0
 10
134.123930
 20
203.771318
 30
0.0
 10
121.158410
 20
203.771318
 30
0.0
  0
LWPOLYLINE
  5
107
100
AcDbEntity
  8
Ebene_1
 62
7
100
AcDbPolyline
 90
2
 70
0
 10
144.634080
 20
39.315720
 30
0.0
 10
144.634080
 20
180.327340
 30
0.0
  0
LWPOLYLINE
  5
108
100
AcDbEntity
  8
Ebene_1
 62
7
100
AcDbPolyline
 90
2
 70
0
 10
121.158410
 20
203.771318
 30
0.0
 10
36.436552
 20
203.771318
 30
0.0
  0
SPLINE
  5
109
100
AcDbEntity
  8
Ebene_1
 62
7
100
AcDbSpline
 70
8
 71
3
 72
8
 73
4
 74
0
 40
0
 40
0
 40
0
 40
0
 40
1
 40
1
 40
1
 40
1
 10
121.158410
 20
199.188395
 30
0.0
 10
131.660940
 20
199.188395
 30
0.0
 10
140.044980
 20
190.815680
 30
0.0
 10
140.044980
 20
180.327340
 30
0.0
  0
LWPOLYLINE
  5
10a
100
AcDbEntity
  8
Ebene_1
 62
7
100
AcDbPolyline
 90
2
 70
0
 10
36.436552
 20
199.188395
 30
0.0
 10
121.158410
 20
199.188395
 30
0.0
  0
SPLINE
  5
10b
100
AcDbEntity
  8
Ebene_1
 62
7
100
AcDbSpline
 70
8
 71
3
 72
8
 73
4
 74
0
 40
0
 40
0
 40
0
 40
0
 40
1
 40
1
 40
1
 40
1
 10
140.044980
 20
39.315720
 30
0.0
 10
140.044980
 20
28.827370
 30
0.0
 10
131.660940
 20
20.454670
 30
0.0
 10
121.158410
 20
20.454670
 30
0.0
  0
LWPOLYLINE
  5
10c
100
AcDbEntity
  8
Ebene_1
 62
7
100
AcDbPolyline
 90
2
 70
0
 10
140.044980
 20
180.327340
 30
0.0
 10
140.044980
 20
39.315720
 30
0.0
  0
SPLINE
  5
10d
100
AcDbEntity
  8
Ebene_1
 62
7
100
AcDbSpline
 70
8
 71
3
 72
8
 73
4
 74
0
 40
0
 40
0
 40
0
 40
0
 40
1
 40
1
 40
1
 40
1
 10
36.436552
 20
20.454670
 30
0.0
 10
25.934045
 20
20.454670
 30
0.0
 10
17.550002
 20
28.827380
 30
0.0
 10
17.550002
 20
39.315720
 30
0.0
  0
LWPOLYLINE
  5
10e
100
AcDbEntity
  8
Ebene_1
 62
7
100
AcDbPolyline
 90
2
 70
0
 10
121.158410
 20
20.454670
 30
0.0
 10
36.436552
 20
20.454670
 30
0.0
  0
SPLINE
  5
10f
100
AcDbEntity
  8
Ebene_1
 62
7
100
AcDbSpline
 70
8
 71
3
 72
8
 73
4
 74
0
 40
0
 40
0
 40
0
 40
0
 40
1
 40
1
 40
1
 40
1
 10
17.550002
 20
180.327340
 30
0.0
 10
17.550002
 20
190.815680
 30
0.0
 10
25.934045
 20
199.188395
 30
0.0
 10
36.436552
 20
199.188395
 30
0.0
  0
LWPOLYLINE
  5
110
100
AcDbEntity
  8
Ebene_1
 62
7
100
AcDbPolyline
 90
2
 70
0
 10
17.550002
 20
39.315720
 30
0.0
 10
17.550002
 20
180.327340
 30
0.0
  0
SPLINE
  5
111
100
AcDbEntity
  8
Ebene_1
 62
7
100
AcDbSpline
 70
8
 71
3
 72
8
 73
4
 74
0
 40
0
 40
0
 40
0
 40
0
 40
1
 40
1
 40
1
 40
1
 10
28.457217
 20
30.541250
 30
0.0
 10
28.457216
 20
30.095701
 30
0.0
 10
28.280222
 20
29.668401
 30
0.0
 10
27.965171
 20
29.353351
 30
0.0
  0
SPLINE
  5
112
100
AcDbEntity
  8
Ebene_1
 62
7
100
AcDbSpline
 70
8
 71
3
 72
8
 73
4
 74
0
 40
0
 40
0
 40
0
 40
0
 40
1
 40
1
 40
1
 40
1
 10
27.965171
 20
29.353351
 30
0.0
 10
27.650120
 20
29.038301
 30
0.0
 10
27.222819
 20
28.861309
 30
0.0
 10
26.777270
 20
28.861310
 30
0.0
  0
SPLINE
  5
113
100
AcDbEntity
  8
Ebene_1
 62
7
100
AcDbSpline
 70
8
 71
3
 72
8
 73
4
 74
0
 40
0
 40
0
 40
0
 40
0
 40
1
 40
1
 40
1
 40
1
 10
26.777270
 20
28.861310
 30
0.0
 10
25.849467
 20
28.861313
 30
0.0
 10
25.097334
 20
29.613447
 30
0.0
 10
25.097333
 20
30.541250
 30
0.0
  0
SPLINE
  5
114
100
AcDbEntity
  8
Ebene_1
 62
7
100
AcDbSpline
 70
8
 71
3
 72
8
 73
4
 74
0
 40
0
 40
0
 40
0
 40
0
 40
1
 40
1
 40
1
 40
1
 10
25.097333
 20
30.541250
 30
0.0
 10
25.097331
 20
30.986799
 30
0.0
 10
25.274323
 20
31.414100
 30
0.0
 10
25.589372
 20
31.729152
 30
0.0
  0
SPLINE
  5
115
100
AcDbEntity
  8
Ebene_1
 62
7
100
AcDbSpline
 70
8
 71
3
 72
8
 73
4
 74
0
 40
0
 40
0
 40
0
 40
0
 40
1
 40
1
 40
1
 40
1
 10
25.589372
 20
31.729152
 30
0.0
 10
25.904422
 20
32.044203
 30
0.0
 10
26.331721
 20
32.221199
 30
0.0
 10
26.777270
 20
32.221200
 30
0.0
  0
SPLINE
  5
116
100
AcDbEntity
  8
Ebene_1
 62
7
100
AcDbSpline
 70
8
 71
3
 72
8
 73
4
 74
0
 40
0
 40
0
 40
0
 40
0
 40
1
 40
1
 40
1
 40
1
 10
26.777270
 20
32.221200
 30
0.0
 10
27.222821
 20
32.221201
 30
0.0
 10
27.650123
 20
32.044207
 30
0.0
 10
27.965174
 20
31.729155
 30
0.0
  0
SPLINE
  5
117
100
AcDbEntity
  8
Ebene_1
 62
7
100
AcDbSpline
 70
8
 71
3
 72
8
 73
4
 74
0
 40
0
 40
0
 40
0
 40
0
 40
1
 40
1
 40
1
 40
1
 10
27.965174
 20
31.729155
 30
0.0
 10
28.280226
 20
31.414103
 30
0.0
 10
28.457219
 20
30.986801
 30
0.0
 10
28.457217
 20
30.541250
 30
0.0
  0
LWPOLYLINE
  5
118
100
AcDbEntity
  8
Ebene_1
 62
7
100
AcDbPolyline
 90
1
 70
1
 10
36.436552
 20
199.188395
 30
0.0
  0
SPLINE
  5
119
100
AcDbEntity
  8
Ebene_1
 62
7
100
AcDbSpline
 70
8
 71
3
 72
8
 73
4
 74
0
 40
0
 40
0
 40
0
 40
0
 40
1
 40
1
 40
1
 40
1
 10
132.555650
 20
30.737240
 30
0.0
 10
132.555652
 20
30.291689
 30
0.0
 10
132.378658
 20
29.864386
 30
0.0
 10
132.063606
 20
29.549334
 30
0.0
  0
SPLINE
  5
11a
100
AcDbEntity
  8
Ebene_1
 62
7
100
AcDbSpline
 70
8
 71
3
 72
8
 73
4
 74
0
 40
0
 40
0
 40
0
 40
0
 40
1
 40
1
 40
1
 40
1
 10
132.063606
 20
29.549334
 30
0.0
 10
131.748554
 20
29.234282
 30
0.0
 10
131.321251
 20
29.057288
 30
0.0
 10
130.875700
 20
29.057290
 30
0.0
  0
SPLINE
  5
11b
100
AcDbEntity
  8
Ebene_1
 62
7
100
AcDbSpline
 70
8
 71
3
 72
8
 73
4
 74
0
 40
0
 40
0
 40
0
 40
0
 40
1
 40
1
 40
1
 40
1
 10
130.875700
 20
29.057290
 30
0.0
 10
129.947895
 20
29.057297
 30
0.0
 10
129.195766
 20
29.809435
 30
0.0
 10
129.195770
 20
30.737240
 30
0.0
  0
SPLINE
  5
11c
100
AcDbEntity
  8
Ebene_1
 62
7
100
AcDbSpline
 70
8
 71
3
 72
8
 73
4
 74
0
 40
0
 40
0
 40
0
 40
0
 40
1
 40
1
 40
1
 40
1
 10
129.195770
 20
30.737240
 30
0.0
 10
129.195766
 20
31.665045
 30
0.0
 10
129.947895
 20
32.417183
 30
0.0
 10
130.875700
 20
32.417190
 30
0.0
  0
SPLINE
  5
11d
100
AcDbEntity
  8
Ebene_1
 62
7
100
AcDbSpline
 70
8
 71
3
 72
8
 73
4
 74
0
 40
0
 40
0
 40
0
 40
0
 40
1
 40
1
 40
1
 40
1
 10
130.875700
 20
32.417190
 30
0.0
 10
131.321251
 20
32.417192
 30
0.0
 10
131.748554
 20
32.240198
 30
0.0
 10
132.063606
 20
31.925146
 30
0.0
  0
SPLINE
  5
11e
100
AcDbEntity
  8
Ebene_1
 62
7
100
AcDbSpline
 70
8
 71
3
 72
8
 73
4
 74
0
 40
0
 40
0
 40
0
 40
0
 40
1
 40
1
 40
1
 40
1
 10
132.063606
 20
31.925146
 30
0.0
 10
132.378658
 20
31.610094
 30
0.0
 10
132.555652
 20
31.182791
 30
0.0
 10
132.555650
 20
30.737240
 30
0.0
  0
LWPOLYLINE
  5
11f
100
AcDbEntity
  8
Ebene_1
 62
7
100
AcDbPolyline
 90
1
 70
1
 10
28.457217
 20
30.541250
 30
0.0
  0
SPLINE
  5
120
100
AcDbEntity
  8
Ebene_1
 62
7
100
AcDbSpline
 70
8
 71
3
 72
8
 73
4
 74
0
 40
0
 40
0
 40
0
 40
0
 40
1
 40
1
 40
1
 40
1
 10
132.809640
 20
188.709840
 30
0.0
 10
132.809639
 20
187.782039
 30
0.0
 10
132.057511
 20
187.029907
 30
0.0
 10
131.129710
 20
187.029900
 30
0.0
  0
SPLINE
  5
121
100
AcDbEntity
  8
Ebene_1
 62
7
100
AcDbSpline
 70
8
 71
3
 72
8
 73
4
 74
0
 40
0
 40
0
 40
0
 40
0
 40
1
 40
1
 40
1
 40
1
 10
131.129710
 20
187.029900
 30
0.0
 10
130.684161
 20
187.029898
 30
0.0
 10
130.256859
 20
187.206890
 30
0.0
 10
129.941807
 20
187.521940
 30
0.0
  0
SPLINE
  5
122
100
AcDbEntity
  8
Ebene_1
 62
7
100
AcDbSpline
 70
8
 71
3
 72
8
 73
4
 74
0
 40
0
 40
0
 40
0
 40
0
 40
1
 40
1
 40
1
 40
1
 10
129.941807
 20
187.521940
 30
0.0
 10
129.626755
 20
187.836990
 30
0.0
 10
129.449761
 20
188.264291
 30
0.0
 10
129.449760
 20
188.709840
 30
0.0
  0
SPLINE
  5
123
100
AcDbEntity
  8
Ebene_1
 62
7
100
AcDbSpline
 70
8
 71
3
 72
8
 73
4
 74
0
 40
0
 40
0
 40
0
 40
0
 40
1
 40
1
 40
1
 40
1
 10
129.449760
 20
188.709840
 30
0.0
 10
129.449758
 20
189.155391
 30
0.0
 10
129.626752
 20
189.582694
 30
0.0
 10
129.941804
 20
189.897746
 30
0.0
  0
SPLINE
  5
124
100
AcDbEntity
  8
Ebene_1
 62
7
100
AcDbSpline
 70
8
 71
3
 72
8
 73
4
 74
0
 40
0
 40
0
 40
0
 40
0
 40
1
 40
1
 40
1
 40
1
 10
129.941804
 20
189.897746
 30
0.0
 10
130.256856
 20
190.212798
 30
0.0
 10
130.684159
 20
190.389792
 30
0.0
 10
131.129710
 20
190.389790
 30
0.0
  0
SPLINE
  5
125
100
AcDbEntity
  8
Ebene_1
 62
7
100
AcDbSpline
 70
8
 71
3
 72
8
 73
4
 74
0
 40
0
 40
0
 40
0
 40
0
 40
1
 40
1
 40
1
 40
1
 10
131.129710
 20
190.389790
 30
0.0
 10
132.057515
 20
190.389783
 30
0.0
 10
132.809644
 20
189.637645
 30
0.0
 10
132.809640
 20
188.709840
 30
0.0
  0
LWPOLYLINE
  5
126
100
AcDbEntity
  8
Ebene_1
 62
7
100
AcDbPolyline
 90
1
 70
1
 10
132.555650
 20
30.737240
 30
0.0
  0
SPLINE
  5
127
100
AcDbEntity
  8
Ebene_1
 62
7
100
AcDbSpline
 70
8
 71
3
 72
8
 73
4
 74
0
 40
0
 40
0
 40
0
 40
0
 40
1
 40
1
 40
1
 40
1
 10
28.653196
 20
188.709840
 30
0.0
 10
28.653195
 20
187.782036
 30
0.0
 10
27.901062
 20
187.029902
 30
0.0
 10
26.973258
 20
187.029900
 30
0.0
  0
SPLINE
  5
128
100
AcDbEntity
  8
Ebene_1
 62
7
100
AcDbSpline
 70
8
 71
3
 72
8
 73
4
 74
0
 40
0
 40
0
 40
0
 40
0
 40
1
 40
1
 40
1
 40
1
 10
26.973258
 20
187.029900
 30
0.0
 10
26.527709
 20
187.029899
 30
0.0
 10
26.100408
 20
187.206891
 30
0.0
 10
25.785357
 20
187.521941
 30
0.0
  0
SPLINE
  5
129
100
AcDbEntity
  8
Ebene_1
 62
7
100
AcDbSpline
 70
8
 71
3
 72
8
 73
4
 74
0
 40
0
 40
0
 40
0
 40
0
 40
1
 40
1
 40
1
 40
1
 10
25.785357
 20
187.521941
 30
0.0
 10
25.470306
 20
187.836991
 30
0.0
 10
25.293312
 20
188.264291
 30
0.0
 10
25.293311
 20
188.709840
 30
0.0
  0
SPLINE
  5
12a
100
AcDbEntity
  8
Ebene_1
 62
7
100
AcDbSpline
 70
8
 71
3
 72
8
 73
4
 74
0
 40
0
 40
0
 40
0
 40
0
 40
1
 40
1
 40
1
 40
1
 10
25.293311
 20
188.709840
 30
0.0
 10
25.293309
 20
189.155391
 30
0.0
 10
25.470302
 20
189.582693
 30
0.0
 10
25.785354
 20
189.897745
 30
0.0
  0
SPLINE
  5
12b
100
AcDbEntity
  8
Ebene_1
 62
7
100
AcDbSpline
 70
8
 71
3
 72
8
 73
4
 74
0
 40
0
 40
0
 40
0
 40
0
 40
1
 40
1
 40
1
 40
1
 10
25.785354
 20
189.897745
 30
0.0
 10
26.100405
 20
190.212797
 30
0.0
 10
26.527707
 20
190.389791
 30
0.0
 10
26.973258
 20
190.389790
 30
0.0
  0
SPLINE
  5
12c
100
AcDbEntity
  8
Ebene_1
 62
7
100
AcDbSpline
 70
8
 71
3
 72
8
 73
4
 74
0
 40
0
 40
0
 40
0
 40
0
 40
1
 40
1
 40
1
 40
1
 10
26.973258
 20
190.389790
 30
0.0
 10
27.418807
 20
190.389789
 30
0.0
 10
27.846107
 20
190.212794
 30
0.0
 10
28.161156
 20
189.897742
 30
0.0
  0
SPLINE
  5
12d
100
AcDbEntity
  8
Ebene_1
 62
7
100
AcDbSpline
 70
8
 71
3
 72
8
 73
4
 74
0
 40
0
 40
0
 40
0
 40
0
 40
1
 40
1
 40
1
 40
1
 10
28.161156
 20
189.897742
 30
0.0
 10
28.476206
 20
189.582690
 30
0.0
 10
28.653198
 20
189.155389
 30
0.0
 10
28.653196
 20
188.709840
 30
0.0
  0
LWPOLYLINE
  5
12e
100
AcDbEntity
  8
Ebene_1
 62
7
100
AcDbPolyline
 90
1
 70
1
 10
132.809640
 20
188.709840
 30
0.0
  0
LWPOLYLINE
  5
12f
100
AcDbEntity
  8
Ebene_1
 62
7
100
AcDbPolyline
 90
1
 70
1
 10
28.653196
 20
188.709840
 30
0.0
  0
SPLINE
  5
130
100
AcDbEntity
  8
Ebene_1
 62
7
100
AcDbSpline
 70
8
 71
3
 72
8
 73
4
 74
0
 40
0
 40
0
 40
0
 40
0
 40
1
 40
1
 40
1
 40
1
 10
36.431935
 20
66.237637
 30
0.0
 10
36.431935
 20
65.977128
 30
0.0
 10
36.364219
 20
65.808295
 30
0.0
 10
36.198308
 20
65.626556
 30
0.0
  0
SPLINE
  5
131
100
AcDbEntity
  8
Ebene_1
 62
7
100
AcDbSpline
 70
8
 71
3
 72
8
 73
4
 74
0
 40
0
 40
0
 40
0
 40
0
 40
1
 40
1
 40
1
 40
1
 10
36.198308
 20
65.626556
 30
0.0
 10
36.029126
 20
65.455872
 30
0.0
 10
35.873787
 20
65.385126
 30
0.0
 10
35.643923
 20
65.385126
 30
0.0
  0
LWPOLYLINE
  5
132
100
AcDbEntity
  8
Ebene_1
 62
7
100
AcDbPolyline
 90
4
 70
0
 10
23.732833
 20
70.872582
 30
0.0
 10
23.732833
 20
67.088787
 30
0.0
 10
36.431935
 20
67.088787
 30
0.0
 10
36.431935
 20
66.237637
 30
0.0
  0
SPLINE
  5
133
100
AcDbEntity
  8
Ebene_1
 62
7
100
AcDbSpline
 70
8
 71
3
 72
8
 73
4
 74
0
 40
0
 40
0
 40
0
 40
0
 40
1
 40
1
 40
1
 40
1
 10
36.913076
 20
61.602700
 30
0.0
 10
37.715066
 20
61.602700
 30
0.0
 10
38.453375
 20
61.931196
 30
0.0
 10
39.034645
 20
62.542508
 30
0.0
  0
SPLINE
  5
134
100
AcDbEntity
  8
Ebene_1
 62
7
100
AcDbSpline
 70
8
 71
3
 72
8
 73
4
 74
0
 40
0
 40
0
 40
0
 40
0
 40
1
 40
1
 40
1
 40
1
 10
39.034645
 20
62.542508
 30
0.0
 10
39.621138
 20
63.159323
 30
0.0
 10
39.933789
 20
63.971964
 30
0.0
 10
39.933789
 20
64.865435
 30
0.0
  0
LWPOLYLINE
  5
135
100
AcDbEntity
  8
Ebene_1
 62
7
100
AcDbPolyline
 90
7
 70
0
 10
35.643923
 20
65.385126
 30
0.0
 10
23.732833
 20
65.385126
 30
0.0
 10
23.732833
 20
56.115237
 30
0.0
 10
24.213975
 20
56.115237
 30
0.0
 10
27.234681
 20
56.115237
 30
0.0
 10
27.234681
 20
61.602700
 30
0.0
 10
36.913076
 20
61.602700
 30
0.0
  0
LWPOLYLINE
  5
136
100
AcDbEntity
  8
Ebene_1
 62
7
100
AcDbPolyline
 90
3
 70
0
 10
39.933789
 20
64.865435
 30
0.0
 10
39.933789
 20
70.872582
 30
0.0
 10
23.732833
 20
70.872582
 30
0.0
  0
SPLINE
  5
137
100
AcDbEntity
  8
Ebene_1
 62
7
100
AcDbSpline
 70
8
 71
3
 72
8
 73
4
 74
0
 40
0
 40
0
 40
0
 40
0
 40
1
 40
1
 40
1
 40
1
 10
41.512333
 20
70.352890
 30
0.0
 10
41.512333
 20
69.474679
 30
0.0
 10
41.814988
 20
68.668987
 30
0.0
 10
42.382433
 20
68.039511
 30
0.0
  0
LWPOLYLINE
  5
138
100
AcDbEntity
  8
Ebene_1
 62
7
100
AcDbPolyline
 90
2
 70
0
 10
41.512333
 20
70.872582
 30
0.0
 10
41.512333
 20
70.352890
 30
0.0
  0
SPLINE
  5
139
100
AcDbEntity
  8
Ebene_1
 62
7
100
AcDbSpline
 70
8
 71
3
 72
8
 73
4
 74
0
 40
0
 40
0
 40
0
 40
0
 40
1
 40
1
 40
1
 40
1
 10
42.387606
 20
68.033924
 30
0.0
 10
42.959810
 20
67.415879
 30
0.0
 10
43.708950
 20
67.088654
 30
0.0
 10
44.533169
 20
67.088654
 30
0.0
  0
LWPOLYLINE
  5
13a
100
AcDbEntity
  8
Ebene_1
 62
7
100
AcDbPolyline
 90
3
 70
0
 10
42.382433
 20
68.039511
 30
0.0
 10
42.385020
 20
68.036717
 30
0.0
 10
42.387606
 20
68.033924
 30
0.0
  0
SPLINE
  5
13b
100
AcDbEntity
  8
Ebene_1
 62
7
100
AcDbSpline
 70
8
 71
3
 72
8
 73
4
 74
0
 40
0
 40
0
 40
0
 40
0
 40
1
 40
1
 40
1
 40
1
 10
54.692705
 20
67.088654
 30
0.0
 10
55.494695
 20
67.088654
 30
0.0
 10
56.233011
 20
67.418519
 30
0.0
 10
56.814273
 20
68.029831
 30
0.0
  0
SPLINE
  5
13c
100
AcDbEntity
  8
Ebene_1
 62
7
100
AcDbSpline
 70
8
 71
3
 72
8
 73
4
 74
0
 40
0
 40
0
 40
0
 40
0
 40
1
 40
1
 40
1
 40
1
 10
56.814273
 20
68.029831
 30
0.0
 10
57.400774
 20
68.646653
 30
0.0
 10
57.713411
 20
69.459294
 30
0.0
 10
57.713411
 20
70.352758
 30
0.0
  0
LWPOLYLINE
  5
13d
100
AcDbEntity
  8
Ebene_1
 62
7
100
AcDbPolyline
 90
2
 70
0
 10
44.533169
 20
67.088654
 30
0.0
 10
54.692705
 20
67.088654
 30
0.0
  0
LWPOLYLINE
  5
13e
100
AcDbEntity
  8
Ebene_1
 62
7
100
AcDbPolyline
 90
3
 70
0
 10
57.713411
 20
70.352758
 30
0.0
 10
57.713411
 20
70.872449
 30
0.0
 10
41.512333
 20
70.872582
 30
0.0
  0
LWPOLYLINE
  5
13f
100
AcDbEntity
  8
Ebene_1
 62
7
100
AcDbPolyline
 90
9
 70
1
 10
41.512333
 20
65.385126
 30
0.0
 10
41.512333
 20
56.115237
 30
0.0
 10
41.993474
 20
56.115237
 30
0.0
 10
45.014187
 20
56.115237
 30
0.0
 10
45.014187
 20
61.602700
 30
0.0
 10
54.211441
 20
61.602700
 30
0.0
 10
54.211441
 20
56.115237
 30
0.0
 10
57.713288
 20
56.115237
 30
0.0
 10
57.713288
 20
65.385126
 30
0.0
  0
SPLINE
  5
140
100
AcDbEntity
  8
Ebene_1
 62
7
100
AcDbSpline
 70
8
 71
3
 72
8
 73
4
 74
0
 40
0
 40
0
 40
0
 40
0
 40
1
 40
1
 40
1
 40
1
 10
59.290578
 20
70.352890
 30
0.0
 10
59.290578
 20
69.474679
 30
0.0
 10
59.594487
 20
68.668987
 30
0.0
 10
60.161933
 20
68.039511
 30
0.0
  0
LWPOLYLINE
  5
141
100
AcDbEntity
  8
Ebene_1
 62
7
100
AcDbPolyline
 90
2
 70
0
 10
59.290578
 20
70.872582
 30
0.0
 10
59.290578
 20
70.352890
 30
0.0
  0
SPLINE
  5
142
100
AcDbEntity
  8
Ebene_1
 62
7
100
AcDbSpline
 70
8
 71
3
 72
8
 73
4
 74
0
 40
0
 40
0
 40
0
 40
0
 40
1
 40
1
 40
1
 40
1
 10
60.165812
 20
68.033924
 30
0.0
 10
60.738010
 20
67.415879
 30
0.0
 10
61.488417
 20
67.088654
 30
0.0
 10
62.312636
 20
67.088654
 30
0.0
  0
LWPOLYLINE
  5
143
100
AcDbEntity
  8
Ebene_1
 62
7
100
AcDbPolyline
 90
3
 70
0
 10
60.161933
 20
68.039511
 30
0.0
 10
60.164519
 20
68.036717
 30
0.0
 10
60.165812
 20
68.033924
 30
0.0
  0
SPLINE
  5
144
100
AcDbEntity
  8
Ebene_1
 62
7
100
AcDbSpline
 70
8
 71
3
 72
8
 73
4
 74
0
 40
0
 40
0
 40
0
 40
0
 40
1
 40
1
 40
1
 40
1
 10
71.991031
 20
66.237505
 30
0.0
 10
71.991031
 20
65.977198
 30
0.0
 10
71.924292
 20
65.808002
 30
0.0
 10
71.758672
 20
65.626423
 30
0.0
  0
SPLINE
  5
145
100
AcDbEntity
  8
Ebene_1
 62
7
100
AcDbSpline
 70
8
 71
3
 72
8
 73
4
 74
0
 40
0
 40
0
 40
0
 40
0
 40
1
 40
1
 40
1
 40
1
 10
71.758672
 20
65.626423
 30
0.0
 10
71.588720
 20
65.454245
 30
0.0
 10
71.432521
 20
65.384994
 30
0.0
 10
71.201759
 20
65.384994
 30
0.0
  0
LWPOLYLINE
  5
146
100
AcDbEntity
  8
Ebene_1
 62
7
100
AcDbPolyline
 90
3
 70
0
 10
62.312636
 20
67.088654
 30
0.0
 10
71.991031
 20
67.088654
 30
0.0
 10
71.991031
 20
66.237505
 30
0.0
  0
SPLINE
  5
147
100
AcDbEntity
  8
Ebene_1
 62
7
100
AcDbSpline
 70
8
 71
3
 72
8
 73
4
 74
0
 40
0
 40
0
 40
0
 40
0
 40
1
 40
1
 40
1
 40
1
 10
72.410301
 20
61.606758
 30
0.0
 10
73.280292
 20
61.484953
 30
0.0
 10
74.031687
 20
61.951352
 30
0.0
 10
74.593747
 20
62.542473
 30
0.0
  0
SPLINE
  5
148
100
AcDbEntity
  8
Ebene_1
 62
7
100
AcDbSpline
 70
8
 71
3
 72
8
 73
4
 74
0
 40
0
 40
0
 40
0
 40
0
 40
1
 40
1
 40
1
 40
1
 10
74.593747
 20
62.542473
 30
0.0
 10
75.180247
 20
63.159288
 30
0.0
 10
75.492891
 20
63.971929
 30
0.0
 10
75.492891
 20
64.865400
 30
0.0
  0
LWPOLYLINE
  5
149
100
AcDbEntity
  8
Ebene_1
 62
7
100
AcDbPolyline
 90
12
 70
0
 10
71.201759
 20
65.384994
 30
0.0
 10
59.290669
 20
65.384994
 30
0.0
 10
59.290669
 20
56.115105
 30
0.0
 10
59.771810
 20
56.115105
 30
0.0
 10
62.793777
 20
56.115105
 30
0.0
 10
62.793777
 20
61.602567
 30
0.0
 10
65.923095
 20
61.602567
 30
0.0
 10
71.002233
 20
56.115105
 30
0.0
 10
76.173552
 20
56.115105
 30
0.0
 10
71.093154
 20
61.602567
 30
0.0
 10
72.472178
 20
61.602567
 30
0.0
 10
72.410301
 20
61.606758
 30
0.0
  0
LWPOLYLINE
  5
14a
100
AcDbEntity
  8
Ebene_1
 62
7
100
AcDbPolyline
 90
3
 70
0
 10
75.492891
 20
64.865400
 30
0.0
 10
75.492891
 20
70.872547
 30
0.0
 10
59.290578
 20
70.872582
 30
0.0
  0
LWPOLYLINE
  5
14b
100
AcDbEntity
  8
Ebene_1
 62
7
100
AcDbPolyline
 90
5
 70
1
 10
77.070078
 20
70.872582
 30
0.0
 10
77.070078
 20
56.115237
 30
0.0
 10
77.551219
 20
56.115237
 30
0.0
 10
80.571932
 20
56.115237
 30
0.0
 10
80.571932
 20
70.872582
 30
0.0
  0
LWPOLYLINE
  5
14c
100
AcDbEntity
  8
Ebene_1
 62
7
100
AcDbPolyline
 90
9
 70
1
 10
88.781642
 20
70.872582
 30
0.0
 10
81.950950
 20
63.494594
 30
0.0
 10
88.781642
 20
56.115237
 30
0.0
 10
88.981174
 20
56.115237
 30
0.0
 10
93.951707
 20
56.115237
 30
0.0
 10
87.118487
 20
63.497325
 30
0.0
 10
87.892603
 20
64.345743
 30
0.0
 10
87.910255
 20
64.345743
 30
0.0
 10
93.951675
 20
70.872582
 30
0.0
  0
LWPOLYLINE
  5
14d
100
AcDbEntity
  8
Ebene_1
 62
7
100
AcDbPolyline
 90
5
 70
1
 10
94.849584
 20
70.872582
 30
0.0
 10
94.849584
 20
56.115237
 30
0.0
 10
95.330725
 20
56.115237
 30
0.0
 10
98.351438
 20
56.115237
 30
0.0
 10
98.351438
 20
70.872582
 30
0.0
  0
LWPOLYLINE
  5
14e
100
AcDbEntity
  8
Ebene_1
 62
7
100
AcDbPolyline
 90
12
 70
1
 10
99.249315
 20
70.872582
 30
0.0
 10
102.469552
 20
67.394327
 30
0.0
 10
102.469552
 20
56.115237
 30
0.0
 10
102.949431
 20
56.115237
 30
0.0
 10
105.971403
 20
56.115237
 30
0.0
 10
105.971403
 20
63.610539
 30
0.0
 10
112.910701
 20
56.115237
 30
0.0
 10
116.130939
 20
56.115237
 30
0.0
 10
116.130939
 20
70.872582
 30
0.0
 10
112.627825
 20
70.872582
 30
0.0
 10
112.627825
 20
62.006447
 30
0.0
 10
104.419374
 20
70.872582
 30
0.0
  0
SPLINE
  5
14f
100
AcDbEntity
  8
Ebene_1
 62
7
100
AcDbSpline
 70
8
 71
3
 72
8
 73
4
 74
0
 40
0
 40
0
 40
0
 40
0
 40
1
 40
1
 40
1
 40
1
 10
130.888470
 20
67.088787
 30
0.0
 10
131.690459
 20
67.088787
 30
0.0
 10
132.428770
 20
67.418652
 30
0.0
 10
133.010039
 20
68.029964
 30
0.0
  0
SPLINE
  5
150
100
AcDbEntity
  8
Ebene_1
 62
7
100
AcDbSpline
 70
8
 71
3
 72
8
 73
4
 74
0
 40
0
 40
0
 40
0
 40
0
 40
1
 40
1
 40
1
 40
1
 10
133.010039
 20
68.029964
 30
0.0
 10
133.596535
 20
68.646786
 30
0.0
 10
133.909180
 20
69.459426
 30
0.0
 10
133.909180
 20
70.352890
 30
0.0
  0
LWPOLYLINE
  5
151
100
AcDbEntity
  8
Ebene_1
 62
7
100
AcDbPolyline
 90
4
 70
0
 10
117.708225
 20
70.872582
 30
0.0
 10
117.708225
 20
67.088787
 30
0.0
 10
118.189366
 20
67.088787
 30
0.0
 10
130.888470
 20
67.088787
 30
0.0
  0
LWPOLYLINE
  5
152
100
AcDbEntity
  8
Ebene_1
 62
7
100
AcDbPolyline
 90
3
 70
0
 10
133.909180
 20
70.352890
 30
0.0
 10
133.909180
 20
70.872582
 30
0.0
 10
117.708225
 20
70.872582
 30
0.0
  0
SPLINE
  5
153
100
AcDbEntity
  8
Ebene_1
 62
7
100
AcDbSpline
 70
8
 71
3
 72
8
 73
4
 74
0
 40
0
 40
0
 40
0
 40
0
 40
1
 40
1
 40
1
 40
1
 10
117.708225
 20
59.379341
 30
0.0
 10
117.708225
 20
58.501130
 30
0.0
 10
118.010874
 20
57.695431
 30
0.0
 10
118.578320
 20
57.065961
 30
0.0
  0
LWPOLYLINE
  5
154
100
AcDbEntity
  8
Ebene_1
 62
7
100
AcDbPolyline
 90
2
 70
0
 10
117.708225
 20
65.385126
 30
0.0
 10
117.708225
 20
59.379341
 30
0.0
  0
SPLINE
  5
155
100
AcDbEntity
  8
Ebene_1
 62
7
100
AcDbSpline
 70
8
 71
3
 72
8
 73
4
 74
0
 40
0
 40
0
 40
0
 40
0
 40
1
 40
1
 40
1
 40
1
 10
118.583364
 20
57.060374
 30
0.0
 10
119.155566
 20
56.442323
 30
0.0
 10
119.904707
 20
56.115105
 30
0.0
 10
120.728927
 20
56.115105
 30
0.0
  0
LWPOLYLINE
  5
156
100
AcDbEntity
  8
Ebene_1
 62
7
100
AcDbPolyline
 90
3
 70
0
 10
118.578320
 20
57.065961
 30
0.0
 10
118.580842
 20
57.063168
 30
0.0
 10
118.583364
 20
57.060374
 30
0.0
  0
SPLINE
  5
157
100
AcDbEntity
  8
Ebene_1
 62
7
100
AcDbSpline
 70
8
 71
3
 72
8
 73
4
 74
0
 40
0
 40
0
 40
0
 40
0
 40
1
 40
1
 40
1
 40
1
 10
122.787353
 20
64.865302
 30
0.0
 10
122.787353
 20
63.987091
 30
0.0
 10
123.091269
 20
63.181399
 30
0.0
 10
123.658712
 20
62.551922
 30
0.0
  0
LWPOLYLINE
  5
158
100
AcDbEntity
  8
Ebene_1
 62
7
100
AcDbPolyline
 90
5
 70
0
 10
120.728927
 20
56.115105
 30
0.0
 10
133.909172
 20
56.115105
 30
0.0
 10
133.909172
 20
65.384994
 30
0.0
 10
122.787353
 20
65.384994
 30
0.0
 10
122.787353
 20
64.865302
 30
0.0
  0
SPLINE
  5
159
100
AcDbEntity
  8
Ebene_1
 62
7
100
AcDbSpline
 70
8
 71
3
 72
8
 73
4
 74
0
 40
0
 40
0
 40
0
 40
0
 40
1
 40
1
 40
1
 40
1
 10
123.662527
 20
62.547732
 30
0.0
 10
124.234729
 20
61.929688
 30
0.0
 10
124.985134
 20
61.602469
 30
0.0
 10
125.809352
 20
61.602469
 30
0.0
  0
LWPOLYLINE
  5
15a
100
AcDbEntity
  8
Ebene_1
 62
7
100
AcDbPolyline
 90
3
 70
0
 10
123.658712
 20
62.551922
 30
0.0
 10
123.661234
 20
62.550526
 30
0.0
 10
123.662527
 20
62.547732
 30
0.0
  0
SPLINE
  5
15b
100
AcDbEntity
  8
Ebene_1
 62
7
100
AcDbSpline
 70
8
 71
3
 72
8
 73
4
 74
0
 40
0
 40
0
 40
0
 40
0
 40
1
 40
1
 40
1
 40
1
 10
121.999368
 20
59.898802
 30
0.0
 10
121.755034
 20
59.898802
 30
0.0
 10
121.595618
 20
59.972258
 30
0.0
 10
121.431091
 20
60.136146
 30
0.0
  0
SPLINE
  5
15c
100
AcDbEntity
  8
Ebene_1
 62
7
100
AcDbSpline
 70
8
 71
3
 72
8
 73
4
 74
0
 40
0
 40
0
 40
0
 40
0
 40
1
 40
1
 40
1
 40
1
 10
121.431091
 20
60.136146
 30
0.0
 10
121.279355
 20
60.313863
 30
0.0
 10
121.210094
 20
60.486034
 30
0.0
 10
121.210094
 20
60.749951
 30
0.0
  0
LWPOLYLINE
  5
15d
100
AcDbEntity
  8
Ebene_1
 62
7
100
AcDbPolyline
 90
4
 70
0
 10
125.809352
 20
61.602469
 30
0.0
 10
130.407348
 20
61.602469
 30
0.0
 10
130.407348
 20
59.898802
 30
0.0
 10
121.999368
 20
59.898802
 30
0.0
  0
LWPOLYLINE
  5
15e
100
AcDbEntity
  8
Ebene_1
 62
7
100
AcDbPolyline
 90
3
 70
0
 10
121.210094
 20
60.749951
 30
0.0
 10
121.210094
 20
65.384896
 30
0.0
 10
117.708225
 20
65.385126
 30
0.0
  0
SPLINE
  5
15f
100
AcDbEntity
  8
Ebene_1
 62
7
100
AcDbSpline
 70
8
 71
3
 72
8
 73
4
 74
0
 40
0
 40
0
 40
0
 40
0
 40
1
 40
1
 40
1
 40
1
 10
44.051905
 20
50.511844
 30
0.0
 10
44.051905
 20
49.633633
 30
0.0
 10
44.354560
 20
48.829296
 30
0.0
 10
44.921999
 20
48.199826
 30
0.0
  0
LWPOLYLINE
  5
160
100
AcDbEntity
  8
Ebene_1
 62
7
100
AcDbPolyline
 90
2
 70
0
 10
44.051905
 20
51.031536
 30
0.0
 10
44.051905
 20
50.511844
 30
0.0
  0
SPLINE
  5
161
100
AcDbEntity
  8
Ebene_1
 62
7
100
AcDbSpline
 70
8
 71
3
 72
8
 73
4
 74
0
 40
0
 40
0
 40
0
 40
0
 40
1
 40
1
 40
1
 40
1
 10
44.927171
 20
48.194239
 30
0.0
 10
45.499376
 20
47.576188
 30
0.0
 10
46.248515
 20
47.248970
 30
0.0
 10
47.072734
 20
47.248970
 30
0.0
  0
LWPOLYLINE
  5
162
100
AcDbEntity
  8
Ebene_1
 62
7
100
AcDbPolyline
 90
3
 70
0
 10
44.921999
 20
48.199826
 30
0.0
 10
44.924585
 20
48.197033
 30
0.0
 10
44.927171
 20
48.194239
 30
0.0
  0
SPLINE
  5
163
100
AcDbEntity
  8
Ebene_1
 62
7
100
AcDbSpline
 70
8
 71
3
 72
8
 73
4
 74
0
 40
0
 40
0
 40
0
 40
0
 40
1
 40
1
 40
1
 40
1
 10
57.232270
 20
47.248970
 30
0.0
 10
58.034260
 20
47.248970
 30
0.0
 10
58.772570
 20
47.578821
 30
0.0
 10
59.353839
 20
48.190147
 30
0.0
  0
SPLINE
  5
164
100
AcDbEntity
  8
Ebene_1
 62
7
100
AcDbSpline
 70
8
 71
3
 72
8
 73
4
 74
0
 40
0
 40
0
 40
0
 40
0
 40
1
 40
1
 40
1
 40
1
 10
59.353839
 20
48.190147
 30
0.0
 10
59.940339
 20
48.806962
 30
0.0
 10
60.252983
 20
49.618241
 30
0.0
 10
60.252983
 20
50.511711
 30
0.0
  0
LWPOLYLINE
  5
165
100
AcDbEntity
  8
Ebene_1
 62
7
100
AcDbPolyline
 90
2
 70
0
 10
47.072734
 20
47.248970
 30
0.0
 10
57.232270
 20
47.248970
 30
0.0
  0
LWPOLYLINE
  5
166
100
AcDbEntity
  8
Ebene_1
 62
7
100
AcDbPolyline
 90
3
 70
0
 10
60.252983
 20
50.511711
 30
0.0
 10
60.252983
 20
51.031403
 30
0.0
 10
44.051905
 20
51.031536
 30
0.0
  0
LWPOLYLINE
  5
167
100
AcDbEntity
  8
Ebene_1
 62
7
100
AcDbPolyline
 90
9
 70
1
 10
44.051905
 20
45.545442
 30
0.0
 10
44.051905
 20
36.275553
 30
0.0
 10
44.533046
 20
36.275553
 30
0.0
 10
60.252860
 20
36.275553
 30
0.0
 10
60.252860
 20
45.545442
 30
0.0
 10
56.751006
 20
45.545442
 30
0.0
 10
56.751006
 20
40.059348
 30
0.0
 10
47.553753
 20
40.059348
 30
0.0
 10
47.553753
 20
45.545442
 30
0.0
  0
LWPOLYLINE
  5
168
100
AcDbEntity
  8
Ebene_1
 62
7
100
AcDbPolyline
 90
12
 70
1
 10
61.150737
 20
51.031536
 30
0.0
 10
64.370977
 20
47.553281
 30
0.0
 10
64.370977
 20
36.275553
 30
0.0
 10
64.852118
 20
36.275553
 30
0.0
 10
67.872824
 20
36.275553
 30
0.0
 10
67.872824
 20
43.772216
 30
0.0
 10
74.812127
 20
36.275553
 30
0.0
 10
78.032360
 20
36.275553
 30
0.0
 10
78.032360
 20
51.031536
 30
0.0
 10
74.530512
 20
51.031536
 30
0.0
 10
74.530512
 20
42.165394
 30
0.0
 10
66.320796
 20
51.031536
 30
0.0
  0
SPLINE
  5
169
100
AcDbEntity
  8
Ebene_1
 62
7
100
AcDbSpline
 70
8
 71
3
 72
8
 73
4
 74
0
 40
0
 40
0
 40
0
 40
0
 40
1
 40
1
 40
1
 40
1
 10
92.791159
 20
36.275553
 30
0.0
 10
93.593143
 20
36.275553
 30
0.0
 10
94.330191
 20
36.605411
 30
0.0
 10
94.911461
 20
37.216730
 30
0.0
  0
SPLINE
  5
16a
100
AcDbEntity
  8
Ebene_1
 62
7
100
AcDbSpline
 70
8
 71
3
 72
8
 73
4
 74
0
 40
0
 40
0
 40
0
 40
0
 40
1
 40
1
 40
1
 40
1
 10
94.911461
 20
37.216730
 30
0.0
 10
95.497955
 20
37.833545
 30
0.0
 10
95.811866
 20
38.646193
 30
0.0
 10
95.811866
 20
39.539657
 30
0.0
  0
LWPOLYLINE
  5
16b
100
AcDbEntity
  8
Ebene_1
 62
7
100
AcDbPolyline
 90
4
 70
0
 10
79.609650
 20
51.031536
 30
0.0
 10
79.609650
 20
36.275553
 30
0.0
 10
80.090791
 20
36.275553
 30
0.0
 10
92.791159
 20
36.275553
 30
0.0
  0
LWPOLYLINE
  5
16c
100
AcDbEntity
  8
Ebene_1
 62
7
100
AcDbPolyline
 90
5
 70
0
 10
95.811866
 20
39.539657
 30
0.0
 10
95.811866
 20
40.059348
 30
0.0
 10
83.112765
 20
40.059348
 30
0.0
 10
83.112765
 20
51.031536
 30
0.0
 10
79.609650
 20
51.031536
 30
0.0
  0
SPLINE
  5
16d
100
AcDbEntity
  8
Ebene_1
 62
7
100
AcDbSpline
 70
8
 71
3
 72
8
 73
4
 74
0
 40
0
 40
0
 40
0
 40
0
 40
1
 40
1
 40
1
 40
1
 10
78.802967
 20
77.560650
 30
0.0
 10
78.672601
 20
78.248220
 30
0.0
 10
67.454537
 20
140.878240
 30
0.0
 10
67.454537
 20
140.918510
 30
0.0
  0
SPLINE
  5
16e
100
AcDbEntity
  8
Ebene_1
 62
7
100
AcDbSpline
 70
8
 71
3
 72
8
 73
4
 74
0
 40
0
 40
0
 40
0
 40
0
 40
1
 40
1
 40
1
 40
1
 10
67.454537
 20
140.918510
 30
0.0
 10
67.454537
 20
140.975910
 30
0.0
 10
64.141193
 20
140.892010
 30
0.0
 10
62.475747
 20
140.792610
 30
0.0
  0
SPLINE
  5
16f
100
AcDbEntity
  8
Ebene_1
 62
7
100
AcDbSpline
 70
8
 71
3
 72
8
 73
4
 74
0
 40
0
 40
0
 40
0
 40
0
 40
1
 40
1
 40
1
 40
1
 10
62.475747
 20
140.792610
 30
0.0
 10
57.519465
 20
140.497040
 30
0.0
 10
54.970320
 20
139.629100
 30
0.0
 10
53.738252
 20
137.817680
 30
0.0
  0
SPLINE
  5
170
100
AcDbEntity
  8
Ebene_1
 62
7
100
AcDbSpline
 70
8
 71
3
 72
8
 73
4
 74
0
 40
0
 40
0
 40
0
 40
0
 40
1
 40
1
 40
1
 40
1
 10
53.738252
 20
137.817680
 30
0.0
 10
53.283994
 20
137.149830
 30
0.0
 10
53.094347
 20
136.673620
 30
0.0
 10
52.896106
 20
135.703200
 30
0.0
  0
SPLINE
  5
171
100
AcDbEntity
  8
Ebene_1
 62
7
100
AcDbSpline
 70
8
 71
3
 72
8
 73
4
 74
0
 40
0
 40
0
 40
0
 40
0
 40
1
 40
1
 40
1
 40
1
 10
52.896106
 20
135.703200
 30
0.0
 10
52.815646
 20
135.308900
 30
0.0
 10
52.734950
 20
134.971600
 30
0.0
 10
52.716994
 20
134.953650
 30
0.0
  0
SPLINE
  5
172
100
AcDbEntity
  8
Ebene_1
 62
7
100
AcDbSpline
 70
8
 71
3
 72
8
 73
4
 74
0
 40
0
 40
0
 40
0
 40
0
 40
1
 40
1
 40
1
 40
1
 10
52.716994
 20
134.953650
 30
0.0
 10
52.656604
 20
134.893250
 30
0.0
 10
50.596940
 20
135.872000
 30
0.0
 10
49.564948
 20
136.451380
 30
0.0
  0
SPLINE
  5
173
100
AcDbEntity
  8
Ebene_1
 62
7
100
AcDbSpline
 70
8
 71
3
 72
8
 73
4
 74
0
 40
0
 40
0
 40
0
 40
0
 40
1
 40
1
 40
1
 40
1
 10
49.564948
 20
136.451380
 30
0.0
 10
46.478260
 20
138.184290
 30
0.0
 10
44.054956
 20
140.190750
 30
0.0
 10
42.406444
 20
142.378490
 30
0.0
  0
SPLINE
  5
174
100
AcDbEntity
  8
Ebene_1
 62
7
100
AcDbSpline
 70
8
 71
3
 72
8
 73
4
 74
0
 40
0
 40
0
 40
0
 40
0
 40
1
 40
1
 40
1
 40
1
 10
42.406444
 20
142.378490
 30
0.0
 10
42.164265
 20
142.699900
 30
0.0
 10
41.966109
 20
142.989180
 30
0.0
 10
41.966109
 20
143.021330
 30
0.0
  0
SPLINE
  5
175
100
AcDbEntity
  8
Ebene_1
 62
7
100
AcDbSpline
 70
8
 71
3
 72
8
 73
4
 74
0
 40
0
 40
0
 40
0
 40
0
 40
1
 40
1
 40
1
 40
1
 10
41.966109
 20
143.021330
 30
0.0
 10
41.966109
 20
143.053530
 30
0.0
 10
42.091505
 20
143.131630
 30
0.0
 10
42.244767
 20
143.195110
 30
0.0
  0
SPLINE
  5
176
100
AcDbEntity
  8
Ebene_1
 62
7
100
AcDbSpline
 70
8
 71
3
 72
8
 73
4
 74
0
 40
0
 40
0
 40
0
 40
0
 40
1
 40
1
 40
1
 40
1
 10
42.244767
 20
143.195110
 30
0.0
 10
42.398029
 20
143.258510
 30
0.0
 10
43.058460
 20
143.543200
 30
0.0
 10
43.712398
 20
143.827690
 30
0.0
  0
SPLINE
  5
177
100
AcDbEntity
  8
Ebene_1
 62
7
100
AcDbSpline
 70
8
 71
3
 72
8
 73
4
 74
0
 40
0
 40
0
 40
0
 40
0
 40
1
 40
1
 40
1
 40
1
 10
43.712398
 20
143.827690
 30
0.0
 10
51.204791
 20
147.087200
 30
0.0
 10
60.943761
 20
149.365550
 30
0.0
 10
69.683840
 20
149.903450
 30
0.0
  0
LWPOLYLINE
  5
178
100
AcDbEntity
  8
Ebene_1
 62
7
100
AcDbPolyline
 90
14
 70
1
 10
97.389149
 20
51.031536
 30
0.0
 10
97.389149
 20
47.553281
 30
0.0
 10
103.738705
 20
40.694985
 30
0.0
 10
103.738705
 20
36.275553
 30
0.0
 10
104.219846
 20
36.275553
 30
0.0
 10
107.240555
 20
36.275553
 30
0.0
 10
107.240555
 20
40.694985
 30
0.0
 10
113.590108
 20
47.553281
 30
0.0
 10
113.590108
 20
51.031536
 30
0.0
 10
110.088256
 20
51.031536
 30
0.0
 10
110.088256
 20
49.356516
 30
0.0
 10
105.490261
 20
44.388752
 30
0.0
 10
100.891003
 20
49.356516
 30
0.0
 10
100.891003
 20
51.031536
 30
0.0
  0
SPLINE
  5
179
100
AcDbEntity
  8
Ebene_1
 62
7
100
AcDbSpline
 70
8
 71
3
 72
8
 73
4
 74
0
 40
0
 40
0
 40
0
 40
0
 40
1
 40
1
 40
1
 40
1
 10
74.652153
 20
144.848260
 30
0.0
 10
76.955588
 20
142.041440
 30
0.0
 10
78.865703
 20
139.773070
 30
0.0
 10
78.896843
 20
139.807430
 30
0.0
  0
SPLINE
  5
17a
100
AcDbEntity
  8
Ebene_1
 62
7
100
AcDbSpline
 70
8
 71
3
 72
8
 73
4
 74
0
 40
0
 40
0
 40
0
 40
0
 40
1
 40
1
 40
1
 40
1
 10
78.896843
 20
139.807430
 30
0.0
 10
78.928083
 20
139.841830
 30
0.0
 10
80.797502
 20
142.117100
 30
0.0
 10
83.051301
 20
144.863650
 30
0.0
  0
SPLINE
  5
17b
100
AcDbEntity
  8
Ebene_1
 62
7
100
AcDbSpline
 70
8
 71
3
 72
8
 73
4
 74
0
 40
0
 40
0
 40
0
 40
0
 40
1
 40
1
 40
1
 40
1
 10
83.051301
 20
144.863650
 30
0.0
 10
85.305120
 20
147.610200
 30
0.0
 10
87.183582
 20
149.878640
 30
0.0
 10
87.225646
 20
149.904650
 30
0.0
  0
SPLINE
  5
17c
100
AcDbEntity
  8
Ebene_1
 62
7
100
AcDbSpline
 70
8
 71
3
 72
8
 73
4
 74
0
 40
0
 40
0
 40
0
 40
0
 40
1
 40
1
 40
1
 40
1
 10
87.225646
 20
149.904650
 30
0.0
 10
87.313386
 20
149.958850
 30
0.0
 10
89.187820
 20
149.838050
 30
0.0
 10
90.825116
 20
149.672500
 30
0.0
  0
SPLINE
  5
17d
100
AcDbEntity
  8
Ebene_1
 62
7
100
AcDbSpline
 70
8
 71
3
 72
8
 73
4
 74
0
 40
0
 40
0
 40
0
 40
0
 40
1
 40
1
 40
1
 40
1
 10
90.825116
 20
149.672500
 30
0.0
 10
97.729809
 20
148.974560
 30
0.0
 10
104.664530
 20
147.376800
 30
0.0
 10
110.963200
 20
145.032700
 30
0.0
  0
SPLINE
  5
17e
100
AcDbEntity
  8
Ebene_1
 62
7
100
AcDbSpline
 70
8
 71
3
 72
8
 73
4
 74
0
 40
0
 40
0
 40
0
 40
0
 40
1
 40
1
 40
1
 40
1
 10
110.963200
 20
145.032700
 30
0.0
 10
112.449730
 20
144.479480
 30
0.0
 10
114.840880
 20
143.492070
 30
0.0
 10
115.464490
 20
143.173930
 30
0.0
  0
LWPOLYLINE
  5
17f
100
AcDbEntity
  8
Ebene_1
 62
7
100
AcDbPolyline
 90
3
 70
0
 10
69.683840
 20
149.903450
 30
0.0
 10
70.464093
 20
149.951550
 30
0.0
 10
74.652153
 20
144.848260
 30
0.0
  0
SPLINE
  5
180
100
AcDbEntity
  8
Ebene_1
 62
7
100
AcDbSpline
 70
8
 71
3
 72
8
 73
4
 74
0
 40
0
 40
0
 40
0
 40
0
 40
1
 40
1
 40
1
 40
1
 10
115.380030
 20
142.508610
 30
0.0
 10
113.919560
 20
140.500650
 30
0.0
 10
111.629990
 20
138.527390
 30
0.0
 10
108.794580
 20
136.832960
 30
0.0
  0
SPLINE
  5
181
100
AcDbEntity
  8
Ebene_1
 62
7
100
AcDbSpline
 70
8
 71
3
 72
8
 73
4
 74
0
 40
0
 40
0
 40
0
 40
0
 40
1
 40
1
 40
1
 40
1
 10
108.794580
 20
136.832960
 30
0.0
 10
108.014800
 20
136.366940
 30
0.0
 10
105.433430
 20
135.071310
 30
0.0
 10
105.081460
 20
134.969270
 30
0.0
  0
SPLINE
  5
182
100
AcDbEntity
  8
Ebene_1
 62
7
100
AcDbSpline
 70
8
 71
3
 72
8
 73
4
 74
0
 40
0
 40
0
 40
0
 40
0
 40
1
 40
1
 40
1
 40
1
 10
105.081460
 20
134.969270
 30
0.0
 10
104.936220
 20
134.927170
 30
0.0
 10
104.916750
 20
134.959170
 30
0.0
 10
104.868420
 20
135.315740
 30
0.0
  0
SPLINE
  5
183
100
AcDbEntity
  8
Ebene_1
 62
7
100
AcDbSpline
 70
8
 71
3
 72
8
 73
4
 74
0
 40
0
 40
0
 40
0
 40
0
 40
1
 40
1
 40
1
 40
1
 10
104.868420
 20
135.315740
 30
0.0
 10
104.839220
 20
135.531790
 30
0.0
 10
104.733540
 20
135.991880
 30
0.0
 10
104.633680
 20
136.338190
 30
0.0
  0
SPLINE
  5
184
100
AcDbEntity
  8
Ebene_1
 62
7
100
AcDbSpline
 70
8
 71
3
 72
8
 73
4
 74
0
 40
0
 40
0
 40
0
 40
0
 40
1
 40
1
 40
1
 40
1
 10
104.633680
 20
136.338190
 30
0.0
 10
103.847280
 20
139.065260
 30
0.0
 10
101.523720
 20
140.276180
 30
0.0
 10
96.212608
 20
140.726900
 30
0.0
  0
SPLINE
  5
185
100
AcDbEntity
  8
Ebene_1
 62
7
100
AcDbSpline
 70
8
 71
3
 72
8
 73
4
 74
0
 40
0
 40
0
 40
0
 40
0
 40
1
 40
1
 40
1
 40
1
 10
96.212608
 20
140.726900
 30
0.0
 10
95.056168
 20
140.825000
 30
0.0
 10
90.246617
 20
140.950980
 30
0.0
 10
90.186190
 20
140.884700
 30
0.0
  0
SPLINE
  5
186
100
AcDbEntity
  8
Ebene_1
 62
7
100
AcDbSpline
 70
8
 71
3
 72
8
 73
4
 74
0
 40
0
 40
0
 40
0
 40
0
 40
1
 40
1
 40
1
 40
1
 10
90.186190
 20
140.884700
 30
0.0
 10
90.155240
 20
140.850900
 30
0.0
 10
80.870631
 20
88.766740
 30
0.0
 10
78.911164
 20
77.635030
 30
0.0
  0
LWPOLYLINE
  5
187
100
AcDbEntity
  8
Ebene_1
 62
7
100
AcDbPolyline
 90
3
 70
0
 10
115.464490
 20
143.173930
 30
0.0
 10
115.755820
 20
143.025300
 30
0.0
 10
115.380030
 20
142.508610
 30
0.0
  0
SPLINE
  5
188
100
AcDbEntity
  8
Ebene_1
 62
7
100
AcDbSpline
 70
8
 71
3
 72
8
 73
4
 74
0
 40
0
 40
0
 40
0
 40
0
 40
1
 40
1
 40
1
 40
1
 10
115.756220
 20
145.831090
 30
0.0
 10
106.881070
 20
149.574130
 30
0.0
 10
96.797828
 20
151.955980
 30
0.0
 10
86.738061
 20
152.685680
 30
0.0
  0
SPLINE
  5
189
100
AcDbEntity
  8
Ebene_1
 62
7
100
AcDbSpline
 70
8
 71
3
 72
8
 73
4
 74
0
 40
0
 40
0
 40
0
 40
0
 40
1
 40
1
 40
1
 40
1
 10
86.738061
 20
152.685680
 30
0.0
 10
83.506052
 20
152.920090
 30
0.0
 10
76.791621
 20
152.996900
 30
0.0
 10
73.540293
 20
152.836570
 30
0.0
  0
SPLINE
  5
18a
100
AcDbEntity
  8
Ebene_1
 62
7
100
AcDbSpline
 70
8
 71
3
 72
8
 73
4
 74
0
 40
0
 40
0
 40
0
 40
0
 40
1
 40
1
 40
1
 40
1
 10
73.540293
 20
152.836570
 30
0.0
 10
62.272953
 20
152.281030
 30
0.0
 10
51.906775
 20
149.984810
 30
0.0
 10
41.944291
 20
145.837740
 30
0.0
  0
SPLINE
  5
18b
100
AcDbEntity
  8
Ebene_1
 62
7
100
AcDbSpline
 70
8
 71
3
 72
8
 73
4
 74
0
 40
0
 40
0
 40
0
 40
0
 40
1
 40
1
 40
1
 40
1
 10
41.944291
 20
145.837740
 30
0.0
 10
41.257897
 20
145.552010
 30
0.0
 10
40.653595
 20
145.334660
 30
0.0
 10
40.601365
 20
145.354690
 30
0.0
  0
SPLINE
  5
18c
100
AcDbEntity
  8
Ebene_1
 62
7
100
AcDbSpline
 70
8
 71
3
 72
8
 73
4
 74
0
 40
0
 40
0
 40
0
 40
0
 40
1
 40
1
 40
1
 40
1
 10
40.601365
 20
145.354690
 30
0.0
 10
40.549115
 20
145.374890
 30
0.0
 10
40.119412
 20
146.171940
 30
0.0
 10
39.646440
 20
147.126260
 30
0.0
  0
SPLINE
  5
18d
100
AcDbEntity
  8
Ebene_1
 62
7
100
AcDbSpline
 70
8
 71
3
 72
8
 73
4
 74
0
 40
0
 40
0
 40
0
 40
0
 40
1
 40
1
 40
1
 40
1
 10
39.646440
 20
147.126260
 30
0.0
 10
38.761530
 20
148.911770
 30
0.0
 10
38.349137
 20
149.839280
 30
0.0
 10
38.412176
 20
149.902330
 30
0.0
  0
SPLINE
  5
18e
100
AcDbEntity
  8
Ebene_1
 62
7
100
AcDbSpline
 70
8
 71
3
 72
8
 73
4
 74
0
 40
0
 40
0
 40
0
 40
0
 40
1
 40
1
 40
1
 40
1
 10
38.412176
 20
149.902330
 30
0.0
 10
38.476726
 20
149.966830
 30
0.0
 10
41.074829
 20
150.948350
 30
0.0
 10
42.597737
 20
151.483560
 30
0.0
  0
SPLINE
  5
18f
100
AcDbEntity
  8
Ebene_1
 62
7
100
AcDbSpline
 70
8
 71
3
 72
8
 73
4
 74
0
 40
0
 40
0
 40
0
 40
0
 40
1
 40
1
 40
1
 40
1
 10
42.597737
 20
151.483560
 30
0.0
 10
56.874453
 20
156.501060
 30
0.0
 10
72.121607
 20
158.580310
 30
0.0
 10
86.552285
 20
157.477650
 30
0.0
  0
SPLINE
  5
190
100
AcDbEntity
  8
Ebene_1
 62
7
100
AcDbSpline
 70
8
 71
3
 72
8
 73
4
 74
0
 40
0
 40
0
 40
0
 40
0
 40
1
 40
1
 40
1
 40
1
 10
86.552285
 20
157.477650
 30
0.0
 10
97.345556
 20
156.652910
 30
0.0
 10
107.517710
 20
154.376190
 30
0.0
 10
117.872270
 20
150.467620
 30
0.0
  0
SPLINE
  5
191
100
AcDbEntity
  8
Ebene_1
 62
7
100
AcDbSpline
 70
8
 71
3
 72
8
 73
4
 74
0
 40
0
 40
0
 40
0
 40
0
 40
1
 40
1
 40
1
 40
1
 10
117.872270
 20
150.467620
 30
0.0
 10
118.643200
 20
150.176620
 30
0.0
 10
119.287200
 20
149.925280
 30
0.0
 10
119.303390
 20
149.909090
 30
0.0
  0
SPLINE
  5
192
100
AcDbEntity
  8
Ebene_1
 62
7
100
AcDbSpline
 70
8
 71
3
 72
8
 73
4
 74
0
 40
0
 40
0
 40
0
 40
0
 40
1
 40
1
 40
1
 40
1
 10
119.303390
 20
149.909090
 30
0.0
 10
119.387990
 20
149.824390
 30
0.0
 10
117.317610
 20
145.502340
 30
0.0
 10
117.107830
 20
145.325730
 30
0.0
  0
SPLINE
  5
193
100
AcDbEntity
  8
Ebene_1
 62
7
100
AcDbSpline
 70
8
 71
3
 72
8
 73
4
 74
0
 40
0
 40
0
 40
0
 40
0
 40
1
 40
1
 40
1
 40
1
 10
117.107830
 20
145.325730
 30
0.0
 10
117.079630
 20
145.302030
 30
0.0
 10
116.471460
 20
145.529440
 30
0.0
 10
115.756220
 20
145.831090
 30
0.0
  0
LWPOLYLINE
  5
194
100
AcDbEntity
  8
Ebene_1
 62
7
100
AcDbPolyline
 90
3
 70
0
 10
78.911164
 20
77.635030
 30
0.0
 10
78.852294
 20
77.300640
 30
0.0
 10
78.802967
 20
77.560650
 30
0.0
  0
LWPOLYLINE
  5
195
100
AcDbEntity
  8
Ebene_1
 62
7
100
AcDbPolyline
 90
1
 70
1
 10
115.756220
 20
145.831090
 30
0.0
  0
SPLINE
  5
196
100
AcDbEntity
  8
Ebene_1
 62
7
100
AcDbSpline
 70
8
 71
3
 72
8
 73
4
 74
0
 40
0
 40
0
 40
0
 40
0
 40
1
 40
1
 40
1
 40
1
 10
28.693359
 20
180.125000
 30
0.0
 10
28.693359
 20
179.202100
 30
0.0
 10
29.035570
 20
178.360750
 30
0.0
 10
29.679688
 20
177.699220
 30
0.0
  0
LWPOLYLINE
  5
197
100
AcDbEntity
  8
Ebene_1
 62
7
100
AcDbPolyline
 90
2
 70
0
 10
28.693359
 20
180.625000
 30
0.0
 10
28.693359
 20
180.125000
 30
0.0
  0
SPLINE
  5
198
100
AcDbEntity
  8
Ebene_1
 62
7
100
AcDbSpline
 70
8
 71
3
 72
8
 73
4
 74
0
 40
0
 40
0
 40
0
 40
0
 40
1
 40
1
 40
1
 40
1
 10
29.683688
 20
177.695220
 30
0.0
 10
30.332751
 20
177.046160
 30
0.0
 10
31.179362
 20
176.703030
 30
0.0
 10
32.115328
 20
176.703030
 30
0.0
  0
LWPOLYLINE
  5
199
100
AcDbEntity
  8
Ebene_1
 62
7
100
AcDbPolyline
 90
3
 70
0
 10
29.679688
 20
177.699220
 30
0.0
 10
29.681688
 20
177.697220
 30
0.0
 10
29.683688
 20
177.695220
 30
0.0
  0
SPLINE
  5
19a
100
AcDbEntity
  8
Ebene_1
 62
7
100
AcDbSpline
 70
8
 71
3
 72
8
 73
4
 74
0
 40
0
 40
0
 40
0
 40
0
 40
1
 40
1
 40
1
 40
1
 10
43.802828
 20
176.703030
 30
0.0
 10
44.712752
 20
176.703030
 30
0.0
 10
45.545216
 20
177.046770
 30
0.0
 10
46.205172
 20
177.689360
 30
0.0
  0
SPLINE
  5
19b
100
AcDbEntity
  8
Ebene_1
 62
7
100
AcDbSpline
 70
8
 71
3
 72
8
 73
4
 74
0
 40
0
 40
0
 40
0
 40
0
 40
1
 40
1
 40
1
 40
1
 10
46.205172
 20
177.689360
 30
0.0
 10
46.870562
 20
178.337240
 30
0.0
 10
47.222750
 20
179.185860
 30
0.0
 10
47.222750
 20
180.124910
 30
0.0
  0
LWPOLYLINE
  5
19c
100
AcDbEntity
  8
Ebene_1
 62
7
100
AcDbPolyline
 90
7
 70
0
 10
32.115328
 20
176.703030
 30
0.0
 10
35.998141
 20
176.703030
 30
0.0
 10
35.998141
 20
165.017490
 30
0.0
 10
36.498141
 20
165.017490
 30
0.0
 10
39.920016
 20
165.017490
 30
0.0
 10
39.920016
 20
176.703030
 30
0.0
 10
43.802828
 20
176.703030
 30
0.0
  0
LWPOLYLINE
  5
19d
100
AcDbEntity
  8
Ebene_1
 62
7
100
AcDbPolyline
 90
3
 70
0
 10
47.222750
 20
180.124910
 30
0.0
 10
47.222750
 20
180.624910
 30
0.0
 10
28.693359
 20
180.625000
 30
0.0
  0
SPLINE
  5
19e
100
AcDbEntity
  8
Ebene_1
 62
7
100
AcDbSpline
 70
8
 71
3
 72
8
 73
4
 74
0
 40
0
 40
0
 40
0
 40
0
 40
1
 40
1
 40
1
 40
1
 10
49.144531
 20
180.125000
 30
0.0
 10
49.144531
 20
179.202100
 30
0.0
 10
49.486741
 20
178.360750
 30
0.0
 10
50.130859
 20
177.699220
 30
0.0
  0
LWPOLYLINE
  5
19f
100
AcDbEntity
  8
Ebene_1
 62
7
100
AcDbPolyline
 90
2
 70
0
 10
49.144531
 20
180.625000
 30
0.0
 10
49.144531
 20
180.125000
 30
0.0
  0
SPLINE
  5
1a0
100
AcDbEntity
  8
Ebene_1
 62
7
100
AcDbSpline
 70
8
 71
3
 72
8
 73
4
 74
0
 40
0
 40
0
 40
0
 40
0
 40
1
 40
1
 40
1
 40
1
 10
50.136759
 20
177.695220
 30
0.0
 10
50.785822
 20
177.046160
 30
0.0
 10
51.630479
 20
176.703030
 30
0.0
 10
52.566446
 20
176.703030
 30
0.0
  0
LWPOLYLINE
  5
1a1
100
AcDbEntity
  8
Ebene_1
 62
7
100
AcDbPolyline
 90
3
 70
0
 10
50.130859
 20
177.699220
 30
0.0
 10
50.134759
 20
177.697220
 30
0.0
 10
50.136759
 20
177.695220
 30
0.0
  0
SPLINE
  5
1a2
100
AcDbEntity
  8
Ebene_1
 62
7
100
AcDbSpline
 70
8
 71
3
 72
8
 73
4
 74
0
 40
0
 40
0
 40
0
 40
0
 40
1
 40
1
 40
1
 40
1
 10
64.253946
 20
176.703030
 30
0.0
 10
65.163869
 20
176.703030
 30
0.0
 10
65.998287
 20
177.046770
 30
0.0
 10
66.658243
 20
177.689360
 30
0.0
  0
SPLINE
  5
1a3
100
AcDbEntity
  8
Ebene_1
 62
7
100
AcDbSpline
 70
8
 71
3
 72
8
 73
4
 74
0
 40
0
 40
0
 40
0
 40
0
 40
1
 40
1
 40
1
 40
1
 10
66.658243
 20
177.689360
 30
0.0
 10
67.323633
 20
178.337240
 30
0.0
 10
67.675821
 20
179.185860
 30
0.0
 10
67.675821
 20
180.124910
 30
0.0
  0
LWPOLYLINE
  5
1a4
100
AcDbEntity
  8
Ebene_1
 62
7
100
AcDbPolyline
 90
2
 70
0
 10
52.566446
 20
176.703030
 30
0.0
 10
64.253946
 20
176.703030
 30
0.0
  0
LWPOLYLINE
  5
1a5
100
AcDbEntity
  8
Ebene_1
 62
7
100
AcDbPolyline
 90
3
 70
0
 10
67.675821
 20
180.124910
 30
0.0
 10
67.675821
 20
180.624910
 30
0.0
 10
49.144531
 20
180.625000
 30
0.0
  0
SPLINE
  5
1a6
100
AcDbEntity
  8
Ebene_1
 62
7
100
AcDbSpline
 70
8
 71
3
 72
8
 73
4
 74
0
 40
0
 40
0
 40
0
 40
0
 40
1
 40
1
 40
1
 40
1
 10
73.019531
 20
168.939450
 30
0.0
 10
72.093483
 20
168.939450
 30
0.0
 10
71.250312
 20
168.584300
 30
0.0
 10
70.589844
 20
167.923830
 30
0.0
  0
SPLINE
  5
1a7
100
AcDbEntity
  8
Ebene_1
 62
7
100
AcDbSpline
 70
8
 71
3
 72
8
 73
4
 74
0
 40
0
 40
0
 40
0
 40
0
 40
1
 40
1
 40
1
 40
1
 10
70.589844
 20
167.923830
 30
0.0
 10
69.942373
 20
167.276360
 30
0.0
 10
69.597656
 20
166.440480
 30
0.0
 10
69.597656
 20
165.517580
 30
0.0
  0
LWPOLYLINE
  5
1a8
100
AcDbEntity
  8
Ebene_1
 62
7
100
AcDbPolyline
 90
5
 70
0
 10
69.597656
 20
180.625000
 30
0.0
 10
69.597656
 20
170.861330
 30
0.0
 10
84.207031
 20
170.861330
 30
0.0
 10
84.207031
 20
168.939450
 30
0.0
 10
73.019531
 20
168.939450
 30
0.0
  0
SPLINE
  5
1a9
100
AcDbEntity
  8
Ebene_1
 62
7
100
AcDbSpline
 70
8
 71
3
 72
8
 73
4
 74
0
 40
0
 40
0
 40
0
 40
0
 40
1
 40
1
 40
1
 40
1
 10
84.707031
 20
176.703120
 30
0.0
 10
85.616954
 20
176.703120
 30
0.0
 10
86.451372
 20
177.046860
 30
0.0
 10
87.111328
 20
177.689450
 30
0.0
  0
SPLINE
  5
1aa
100
AcDbEntity
  8
Ebene_1
 62
7
100
AcDbSpline
 70
8
 71
3
 72
8
 73
4
 74
0
 40
0
 40
0
 40
0
 40
0
 40
1
 40
1
 40
1
 40
1
 10
87.111328
 20
177.689450
 30
0.0
 10
87.776718
 20
178.337330
 30
0.0
 10
88.128906
 20
179.185950
 30
0.0
 10
88.128906
 20
180.125000
 30
0.0
  0
LWPOLYLINE
  5
1ab
100
AcDbEntity
  8
Ebene_1
 62
7
100
AcDbPolyline
 90
8
 70
0
 10
69.597656
 20
165.517580
 30
0.0
 10
69.597656
 20
165.017580
 30
0.0
 10
70.097656
 20
165.017580
 30
0.0
 10
88.128906
 20
165.017580
 30
0.0
 10
88.128906
 20
174.781250
 30
0.0
 10
73.519531
 20
174.781250
 30
0.0
 10
73.519531
 20
176.703120
 30
0.0
 10
84.707031
 20
176.703120
 30
0.0
  0
LWPOLYLINE
  5
1ac
100
AcDbEntity
  8
Ebene_1
 62
7
100
AcDbPolyline
 90
3
 70
0
 10
88.128906
 20
180.125000
 30
0.0
 10
88.128906
 20
180.625000
 30
0.0
 10
69.597656
 20
180.625000
 30
0.0
  0
SPLINE
  5
1ad
100
AcDbEntity
  8
Ebene_1
 62
7
100
AcDbSpline
 70
8
 71
3
 72
8
 73
4
 74
0
 40
0
 40
0
 40
0
 40
0
 40
1
 40
1
 40
1
 40
1
 10
105.160160
 20
165.017580
 30
0.0
 10
106.070080
 20
165.017580
 30
0.0
 10
106.904500
 20
165.361320
 30
0.0
 10
107.564450
 20
166.003910
 30
0.0
  0
SPLINE
  5
1ae
100
AcDbEntity
  8
Ebene_1
 62
7
100
AcDbSpline
 70
8
 71
3
 72
8
 73
4
 74
0
 40
0
 40
0
 40
0
 40
0
 40
1
 40
1
 40
1
 40
1
 10
107.564450
 20
166.003910
 30
0.0
 10
108.229840
 20
166.651790
 30
0.0
 10
108.582030
 20
167.500400
 30
0.0
 10
108.582030
 20
168.439450
 30
0.0
  0
LWPOLYLINE
  5
1af
100
AcDbEntity
  8
Ebene_1
 62
7
100
AcDbPolyline
 90
4
 70
0
 10
90.050781
 20
180.625000
 30
0.0
 10
90.050781
 20
165.017580
 30
0.0
 10
90.550781
 20
165.017580
 30
0.0
 10
105.160160
 20
165.017580
 30
0.0
  0
LWPOLYLINE
  5
1b0
100
AcDbEntity
  8
Ebene_1
 62
7
100
AcDbPolyline
 90
5
 70
0
 10
108.582030
 20
168.439450
 30
0.0
 10
108.582030
 20
168.939450
 30
0.0
 10
93.972656
 20
168.939450
 30
0.0
 10
93.972656
 20
180.625000
 30
0.0
 10
90.050781
 20
180.625000
 30
0.0
  0
SPLINE
  5
1b1
100
AcDbEntity
  8
Ebene_1
 62
7
100
AcDbSpline
 70
8
 71
3
 72
8
 73
4
 74
0
 40
0
 40
0
 40
0
 40
0
 40
1
 40
1
 40
1
 40
1
 10
110.503910
 20
180.125000
 30
0.0
 10
110.503910
 20
179.202100
 30
0.0
 10
110.846120
 20
178.360750
 30
0.0
 10
111.490230
 20
177.699220
 30
0.0
  0
LWPOLYLINE
  5
1b2
100
AcDbEntity
  8
Ebene_1
 62
7
100
AcDbPolyline
 90
2
 70
0
 10
110.503910
 20
180.625000
 30
0.0
 10
110.503910
 20
180.125000
 30
0.0
  0
SPLINE
  5
1b3
100
AcDbEntity
  8
Ebene_1
 62
7
100
AcDbSpline
 70
8
 71
3
 72
8
 73
4
 74
0
 40
0
 40
0
 40
0
 40
0
 40
1
 40
1
 40
1
 40
1
 10
111.496230
 20
177.695220
 30
0.0
 10
112.145300
 20
177.046160
 30
0.0
 10
112.989950
 20
176.703030
 30
0.0
 10
113.925920
 20
176.703030
 30
0.0
  0
LWPOLYLINE
  5
1b4
100
AcDbEntity
  8
Ebene_1
 62
7
100
AcDbPolyline
 90
3
 70
0
 10
111.490230
 20
177.699220
 30
0.0
 10
111.492230
 20
177.697220
 30
0.0
 10
111.496230
 20
177.695220
 30
0.0
  0
SPLINE
  5
1b5
100
AcDbEntity
  8
Ebene_1
 62
7
100
AcDbSpline
 70
8
 71
3
 72
8
 73
4
 74
0
 40
0
 40
0
 40
0
 40
0
 40
1
 40
1
 40
1
 40
1
 10
125.613420
 20
176.703030
 30
0.0
 10
126.523340
 20
176.703030
 30
0.0
 10
127.357760
 20
177.046770
 30
0.0
 10
128.017720
 20
177.689360
 30
0.0
  0
SPLINE
  5
1b6
100
AcDbEntity
  8
Ebene_1
 62
7
100
AcDbSpline
 70
8
 71
3
 72
8
 73
4
 74
0
 40
0
 40
0
 40
0
 40
0
 40
1
 40
1
 40
1
 40
1
 10
128.017720
 20
177.689360
 30
0.0
 10
128.683110
 20
178.337240
 30
0.0
 10
129.035300
 20
179.185860
 30
0.0
 10
129.035300
 20
180.124910
 30
0.0
  0
LWPOLYLINE
  5
1b7
100
AcDbEntity
  8
Ebene_1
 62
7
100
AcDbPolyline
 90
2
 70
0
 10
113.925920
 20
176.703030
 30
0.0
 10
125.613420
 20
176.703030
 30
0.0
  0
LWPOLYLINE
  5
1b8
100
AcDbEntity
  8
Ebene_1
 62
7
100
AcDbPolyline
 90
3
 70
0
 10
129.035300
 20
180.124910
 30
0.0
 10
129.035300
 20
180.624910
 30
0.0
 10
110.503910
 20
180.625000
 30
0.0
  0
SPLINE
  5
1b9
100
AcDbEntity
  8
Ebene_1
 62
7
100
AcDbSpline
 70
8
 71
3
 72
8
 73
4
 74
0
 40
0
 40
0
 40
0
 40
0
 40
1
 40
1
 40
1
 40
1
 10
49.144531
 20
174.281250
 30
0.0
 10
49.144531
 20
173.358350
 30
0.0
 10
49.486741
 20
172.517000
 30
0.0
 10
50.130859
 20
171.855470
 30
0.0
  0
LWPOLYLINE
  5
1ba
100
AcDbEntity
  8
Ebene_1
 62
7
100
AcDbPolyline
 90
2
 70
0
 10
49.144531
 20
174.781250
 30
0.0
 10
49.144531
 20
174.281250
 30
0.0
  0
SPLINE
  5
1bb
100
AcDbEntity
  8
Ebene_1
 62
7
100
AcDbSpline
 70
8
 71
3
 72
8
 73
4
 74
0
 40
0
 40
0
 40
0
 40
0
 40
1
 40
1
 40
1
 40
1
 10
50.136759
 20
171.851470
 30
0.0
 10
50.785822
 20
171.202410
 30
0.0
 10
51.630479
 20
170.861240
 30
0.0
 10
52.566446
 20
170.861240
 30
0.0
  0
LWPOLYLINE
  5
1bc
100
AcDbEntity
  8
Ebene_1
 62
7
100
AcDbPolyline
 90
3
 70
0
 10
50.130859
 20
171.855470
 30
0.0
 10
50.134759
 20
171.853470
 30
0.0
 10
50.136759
 20
171.851470
 30
0.0
  0
SPLINE
  5
1bd
100
AcDbEntity
  8
Ebene_1
 62
7
100
AcDbSpline
 70
8
 71
3
 72
8
 73
4
 74
0
 40
0
 40
0
 40
0
 40
0
 40
1
 40
1
 40
1
 40
1
 10
64.253946
 20
170.861240
 30
0.0
 10
65.163869
 20
170.861240
 30
0.0
 10
65.998287
 20
171.204980
 30
0.0
 10
66.658243
 20
171.847570
 30
0.0
  0
SPLINE
  5
1be
100
AcDbEntity
  8
Ebene_1
 62
7
100
AcDbSpline
 70
8
 71
3
 72
8
 73
4
 74
0
 40
0
 40
0
 40
0
 40
0
 40
1
 40
1
 40
1
 40
1
 10
66.658243
 20
171.847570
 30
0.0
 10
67.323633
 20
172.495450
 30
0.0
 10
67.675821
 20
173.342110
 30
0.0
 10
67.675821
 20
174.281160
 30
0.0
  0
LWPOLYLINE
  5
1bf
100
AcDbEntity
  8
Ebene_1
 62
7
100
AcDbPolyline
 90
2
 70
0
 10
52.566446
 20
170.861240
 30
0.0
 10
64.253946
 20
170.861240
 30
0.0
  0
LWPOLYLINE
  5
1c0
100
AcDbEntity
  8
Ebene_1
 62
7
100
AcDbPolyline
 90
3
 70
0
 10
67.675821
 20
174.281160
 30
0.0
 10
67.675821
 20
174.781160
 30
0.0
 10
49.144531
 20
174.781250
 30
0.0
  0
LWPOLYLINE
  5
1c1
100
AcDbEntity
  8
Ebene_1
 62
7
100
AcDbPolyline
 90
9
 70
1
 10
110.503910
 20
174.781250
 30
0.0
 10
110.503910
 20
165.017580
 30
0.0
 10
111.003910
 20
165.017580
 30
0.0
 10
114.425780
 20
165.017580
 30
0.0
 10
114.425780
 20
170.861330
 30
0.0
 10
125.113280
 20
170.861330
 30
0.0
 10
125.113280
 20
165.017580
 30
0.0
 10
129.035160
 20
165.017580
 30
0.0
 10
129.035160
 20
174.781250
 30
0.0
  0
SPLINE
  5
1c2
100
AcDbEntity
  8
Ebene_1
 62
7
100
AcDbSpline
 70
8
 71
3
 72
8
 73
4
 74
0
 40
0
 40
0
 40
0
 40
0
 40
1
 40
1
 40
1
 40
1
 10
49.144531
 20
168.439450
 30
0.0
 10
49.144531
 20
167.516550
 30
0.0
 10
49.486741
 20
166.673250
 30
0.0
 10
50.130859
 20
166.011720
 30
0.0
  0
LWPOLYLINE
  5
1c3
100
AcDbEntity
  8
Ebene_1
 62
7
100
AcDbPolyline
 90
2
 70
0
 10
49.144531
 20
168.939450
 30
0.0
 10
49.144531
 20
168.439450
 30
0.0
  0
SPLINE
  5
1c4
100
AcDbEntity
  8
Ebene_1
 62
7
100
AcDbSpline
 70
8
 71
3
 72
8
 73
4
 74
0
 40
0
 40
0
 40
0
 40
0
 40
1
 40
1
 40
1
 40
1
 10
50.136759
 20
166.007720
 30
0.0
 10
50.785822
 20
165.358660
 30
0.0
 10
51.630479
 20
165.017490
 30
0.0
 10
52.566446
 20
165.017490
 30
0.0
  0
LWPOLYLINE
  5
1c5
100
AcDbEntity
  8
Ebene_1
 62
7
100
AcDbPolyline
 90
3
 70
0
 10
50.130859
 20
166.011720
 30
0.0
 10
50.134759
 20
166.009720
 30
0.0
 10
50.136759
 20
166.007720
 30
0.0
  0
SPLINE
  5
1c6
100
AcDbEntity
  8
Ebene_1
 62
7
100
AcDbSpline
 70
8
 71
3
 72
8
 73
4
 74
0
 40
0
 40
0
 40
0
 40
0
 40
1
 40
1
 40
1
 40
1
 10
64.253946
 20
165.017490
 30
0.0
 10
65.163869
 20
165.017490
 30
0.0
 10
65.998287
 20
165.361230
 30
0.0
 10
66.658243
 20
166.003820
 30
0.0
  0
SPLINE
  5
1c7
100
AcDbEntity
  8
Ebene_1
 62
7
100
AcDbSpline
 70
8
 71
3
 72
8
 73
4
 74
0
 40
0
 40
0
 40
0
 40
0
 40
1
 40
1
 40
1
 40
1
 10
66.658243
 20
166.003820
 30
0.0
 10
67.323633
 20
166.651700
 30
0.0
 10
67.675821
 20
167.500310
 30
0.0
 10
67.675821
 20
168.439360
 30
0.0
  0
LWPOLYLINE
  5
1c8
100
AcDbEntity
  8
Ebene_1
 62
7
100
AcDbPolyline
 90
2
 70
0
 10
52.566446
 20
165.017490
 30
0.0
 10
64.253946
 20
165.017490
 30
0.0
  0
SPLINE
  5
1c9
100
AcDbEntity
  8
Ebene_1
 62
7
100
AcDbSpline
 70
8
 71
3
 72
8
 73
4
 74
0
 40
0
 40
0
 40
0
 40
0
 40
1
 40
1
 40
1
 40
1
 10
176.501630
 20
203.819778
 30
0.0
 10
163.536130
 20
203.819778
 30
0.0
 10
153.025980
 20
193.323810
 30
0.0
 10
153.025980
 20
180.375800
 30
0.0
  0
LWPOLYLINE
  5
1ca
100
AcDbEntity
  8
Ebene_1
 62
7
100
AcDbPolyline
 90
3
 70
0
 10
67.675821
 20
168.439360
 30
0.0
 10
67.675821
 20
168.939360
 30
0.0
 10
49.144531
 20
168.939450
 30
0.0
  0
SPLINE
  5
1cb
100
AcDbEntity
  8
Ebene_1
 62
7
100
AcDbSpline
 70
8
 71
3
 72
8
 73
4
 74
0
 40
0
 40
0
 40
0
 40
0
 40
1
 40
1
 40
1
 40
1
 10
153.025980
 20
39.364180
 30
0.0
 10
153.025980
 20
26.416170
 30
0.0
 10
163.536130
 20
15.920190
 30
0.0
 10
176.501630
 20
15.920190
 30
0.0
  0
LWPOLYLINE
  5
1cc
100
AcDbEntity
  8
Ebene_1
 62
7
100
AcDbPolyline
 90
2
 70
0
 10
153.025980
 20
180.375800
 30
0.0
 10
153.025980
 20
39.364180
 30
0.0
  0
SPLINE
  5
1cd
100
AcDbEntity
  8
Ebene_1
 62
7
100
AcDbSpline
 70
8
 71
3
 72
8
 73
4
 74
0
 40
0
 40
0
 40
0
 40
0
 40
1
 40
1
 40
1
 40
1
 10
261.223490
 20
15.920190
 30
0.0
 10
274.189010
 20
15.920190
 30
0.0
 10
284.699160
 20
26.416170
 30
0.0
 10
284.699160
 20
39.364180
 30
0.0
  0
LWPOLYLINE
  5
1ce
100
AcDbEntity
  8
Ebene_1
 62
7
100
AcDbPolyline
 90
2
 70
0
 10
176.501630
 20
15.920190
 30
0.0
 10
261.223490
 20
15.920190
 30
0.0
  0
SPLINE
  5
1cf
100
AcDbEntity
  8
Ebene_1
 62
7
100
AcDbSpline
 70
8
 71
3
 72
8
 73
4
 74
0
 40
0
 40
0
 40
0
 40
0
 40
1
 40
1
 40
1
 40
1
 10
284.699160
 20
180.375800
 30
0.0
 10
284.699160
 20
193.323810
 30
0.0
 10
274.189010
 20
203.819778
 30
0.0
 10
261.223490
 20
203.819778
 30
0.0
  0
LWPOLYLINE
  5
1d0
100
AcDbEntity
  8
Ebene_1
 62
7
100
AcDbPolyline
 90
2
 70
0
 10
284.699160
 20
39.364180
 30
0.0
 10
284.699160
 20
180.375800
 30
0.0
  0
LWPOLYLINE
  5
1d1
100
AcDbEntity
  8
Ebene_1
 62
7
100
AcDbPolyline
 90
2
 70
0
 10
261.223490
 20
203.819778
 30
0.0
 10
176.501630
 20
203.819778
 30
0.0
  0
SPLINE
  5
1d2
100
AcDbEntity
  8
Ebene_1
 62
7
100
AcDbSpline
 70
8
 71
3
 72
8
 73
4
 74
0
 40
0
 40
0
 40
0
 40
0
 40
1
 40
1
 40
1
 40
1
 10
261.223490
 20
199.236848
 30
0.0
 10
271.726020
 20
199.236848
 30
0.0
 10
280.110060
 20
190.864140
 30
0.0
 10
280.110060
 20
180.375800
 30
0.0
  0
LWPOLYLINE
  5
1d3
100
AcDbEntity
  8
Ebene_1
 62
7
100
AcDbPolyline
 90
2
 70
0
 10
176.501630
 20
199.236848
 30
0.0
 10
261.223490
 20
199.236848
 30
0.0
  0
SPLINE
  5
1d4
100
AcDbEntity
  8
Ebene_1
 62
7
100
AcDbSpline
 70
8
 71
3
 72
8
 73
4
 74
0
 40
0
 40
0
 40
0
 40
0
 40
1
 40
1
 40
1
 40
1
 10
280.110060
 20
39.364180
 30
0.0
 10
280.110060
 20
28.875830
 30
0.0
 10
271.726020
 20
20.503130
 30
0.0
 10
261.223490
 20
20.503130
 30
0.0
  0
LWPOLYLINE
  5
1d5
100
AcDbEntity
  8
Ebene_1
 62
7
100
AcDbPolyline
 90
2
 70
0
 10
280.110060
 20
180.375800
 30
0.0
 10
280.110060
 20
39.364180
 30
0.0
  0
SPLINE
  5
1d6
100
AcDbEntity
  8
Ebene_1
 62
7
100
AcDbSpline
 70
8
 71
3
 72
8
 73
4
 74
0
 40
0
 40
0
 40
0
 40
0
 40
1
 40
1
 40
1
 40
1
 10
176.501630
 20
20.503130
 30
0.0
 10
165.999120
 20
20.503130
 30
0.0
 10
157.615080
 20
28.875840
 30
0.0
 10
157.615080
 20
39.364180
 30
0.0
  0
LWPOLYLINE
  5
1d7
100
AcDbEntity
  8
Ebene_1
 62
7
100
AcDbPolyline
 90
2
 70
0
 10
261.223490
 20
20.503130
 30
0.0
 10
176.501630
 20
20.503130
 30
0.0
  0
SPLINE
  5
1d8
100
AcDbEntity
  8
Ebene_1
 62
7
100
AcDbSpline
 70
8
 71
3
 72
8
 73
4
 74
0
 40
0
 40
0
 40
0
 40
0
 40
1
 40
1
 40
1
 40
1
 10
157.615080
 20
180.375800
 30
0.0
 10
157.615080
 20
190.864140
 30
0.0
 10
165.999120
 20
199.236848
 30
0.0
 10
176.501630
 20
199.236848
 30
0.0
  0
LWPOLYLINE
  5
1d9
100
AcDbEntity
  8
Ebene_1
 62
7
100
AcDbPolyline
 90
2
 70
0
 10
157.615080
 20
39.364180
 30
0.0
 10
157.615080
 20
180.375800
 30
0.0
  0
SPLINE
  5
1da
100
AcDbEntity
  8
Ebene_1
 62
7
100
AcDbSpline
 70
8
 71
3
 72
8
 73
4
 74
0
 40
0
 40
0
 40
0
 40
0
 40
1
 40
1
 40
1
 40
1
 10
168.522300
 20
30.589710
 30
0.0
 10
168.522299
 20
30.144161
 30
0.0
 10
168.345305
 20
29.716860
 30
0.0
 10
168.030253
 20
29.401810
 30
0.0
  0
SPLINE
  5
1db
100
AcDbEntity
  8
Ebene_1
 62
7
100
AcDbSpline
 70
8
 71
3
 72
8
 73
4
 74
0
 40
0
 40
0
 40
0
 40
0
 40
1
 40
1
 40
1
 40
1
 10
168.030253
 20
29.401810
 30
0.0
 10
167.715201
 20
29.086760
 30
0.0
 10
167.287899
 20
28.909768
 30
0.0
 10
166.842350
 20
28.909770
 30
0.0
  0
SPLINE
  5
1dc
100
AcDbEntity
  8
Ebene_1
 62
7
100
AcDbSpline
 70
8
 71
3
 72
8
 73
4
 74
0
 40
0
 40
0
 40
0
 40
0
 40
1
 40
1
 40
1
 40
1
 10
166.842350
 20
28.909770
 30
0.0
 10
165.914545
 20
28.909771
 30
0.0
 10
165.162411
 20
29.661905
 30
0.0
 10
165.162410
 20
30.589710
 30
0.0
  0
SPLINE
  5
1dd
100
AcDbEntity
  8
Ebene_1
 62
7
100
AcDbSpline
 70
8
 71
3
 72
8
 73
4
 74
0
 40
0
 40
0
 40
0
 40
0
 40
1
 40
1
 40
1
 40
1
 10
165.162410
 20
30.589710
 30
0.0
 10
165.162408
 20
31.035259
 30
0.0
 10
165.339400
 20
31.462561
 30
0.0
 10
165.654450
 20
31.777613
 30
0.0
  0
SPLINE
  5
1de
100
AcDbEntity
  8
Ebene_1
 62
7
100
AcDbSpline
 70
8
 71
3
 72
8
 73
4
 74
0
 40
0
 40
0
 40
0
 40
0
 40
1
 40
1
 40
1
 40
1
 10
165.654450
 20
31.777613
 30
0.0
 10
165.969500
 20
32.092665
 30
0.0
 10
166.396801
 20
32.269659
 30
0.0
 10
166.842350
 20
32.269660
 30
0.0
  0
SPLINE
  5
1df
100
AcDbEntity
  8
Ebene_1
 62
7
100
AcDbSpline
 70
8
 71
3
 72
8
 73
4
 74
0
 40
0
 40
0
 40
0
 40
0
 40
1
 40
1
 40
1
 40
1
 10
166.842350
 20
32.269660
 30
0.0
 10
167.287901
 20
32.269662
 30
0.0
 10
167.715204
 20
32.092668
 30
0.0
 10
168.030256
 20
31.777616
 30
0.0
  0
SPLINE
  5
1e0
100
AcDbEntity
  8
Ebene_1
 62
7
100
AcDbSpline
 70
8
 71
3
 72
8
 73
4
 74
0
 40
0
 40
0
 40
0
 40
0
 40
1
 40
1
 40
1
 40
1
 10
168.030256
 20
31.777616
 30
0.0
 10
168.345308
 20
31.462564
 30
0.0
 10
168.522302
 20
31.035261
 30
0.0
 10
168.522300
 20
30.589710
 30
0.0
  0
LWPOLYLINE
  5
1e1
100
AcDbEntity
  8
Ebene_1
 62
7
100
AcDbPolyline
 90
1
 70
1
 10
176.501630
 20
199.236848
 30
0.0
  0
SPLINE
  5
1e2
100
AcDbEntity
  8
Ebene_1
 62
7
100
AcDbSpline
 70
8
 71
3
 72
8
 73
4
 74
0
 40
0
 40
0
 40
0
 40
0
 40
1
 40
1
 40
1
 40
1
 10
272.620730
 20
30.785700
 30
0.0
 10
272.620732
 20
30.340149
 30
0.0
 10
272.443738
 20
29.912846
 30
0.0
 10
272.128686
 20
29.597794
 30
0.0
  0
SPLINE
  5
1e3
100
AcDbEntity
  8
Ebene_1
 62
7
100
AcDbSpline
 70
8
 71
3
 72
8
 73
4
 74
0
 40
0
 40
0
 40
0
 40
0
 40
1
 40
1
 40
1
 40
1
 10
272.128686
 20
29.597794
 30
0.0
 10
271.813634
 20
29.282742
 30
0.0
 10
271.386331
 20
29.105748
 30
0.0
 10
270.940780
 20
29.105750
 30
0.0
  0
SPLINE
  5
1e4
100
AcDbEntity
  8
Ebene_1
 62
7
100
AcDbSpline
 70
8
 71
3
 72
8
 73
4
 74
0
 40
0
 40
0
 40
0
 40
0
 40
1
 40
1
 40
1
 40
1
 10
270.940780
 20
29.105750
 30
0.0
 10
270.012975
 20
29.105757
 30
0.0
 10
269.260846
 20
29.857895
 30
0.0
 10
269.260850
 20
30.785700
 30
0.0
  0
SPLINE
  5
1e5
100
AcDbEntity
  8
Ebene_1
 62
7
100
AcDbSpline
 70
8
 71
3
 72
8
 73
4
 74
0
 40
0
 40
0
 40
0
 40
0
 40
1
 40
1
 40
1
 40
1
 10
269.260850
 20
30.785700
 30
0.0
 10
269.260846
 20
31.713505
 30
0.0
 10
270.012975
 20
32.465643
 30
0.0
 10
270.940780
 20
32.465650
 30
0.0
  0
SPLINE
  5
1e6
100
AcDbEntity
  8
Ebene_1
 62
7
100
AcDbSpline
 70
8
 71
3
 72
8
 73
4
 74
0
 40
0
 40
0
 40
0
 40
0
 40
1
 40
1
 40
1
 40
1
 10
270.940780
 20
32.465650
 30
0.0
 10
271.386331
 20
32.465652
 30
0.0
 10
271.813634
 20
32.288658
 30
0.0
 10
272.128686
 20
31.973606
 30
0.0
  0
SPLINE
  5
1e7
100
AcDbEntity
  8
Ebene_1
 62
7
100
AcDbSpline
 70
8
 71
3
 72
8
 73
4
 74
0
 40
0
 40
0
 40
0
 40
0
 40
1
 40
1
 40
1
 40
1
 10
272.128686
 20
31.973606
 30
0.0
 10
272.443738
 20
31.658554
 30
0.0
 10
272.620732
 20
31.231251
 30
0.0
 10
272.620730
 20
30.785700
 30
0.0
  0
LWPOLYLINE
  5
1e8
100
AcDbEntity
  8
Ebene_1
 62
7
100
AcDbPolyline
 90
1
 70
1
 10
168.522300
 20
30.589710
 30
0.0
  0
SPLINE
  5
1e9
100
AcDbEntity
  8
Ebene_1
 62
7
100
AcDbSpline
 70
8
 71
3
 72
8
 73
4
 74
0
 40
0
 40
0
 40
0
 40
0
 40
1
 40
1
 40
1
 40
1
 10
272.874720
 20
188.758300
 30
0.0
 10
272.874719
 20
187.830499
 30
0.0
 10
272.122591
 20
187.078367
 30
0.0
 10
271.194790
 20
187.078360
 30
0.0
  0
SPLINE
  5
1ea
100
AcDbEntity
  8
Ebene_1
 62
7
100
AcDbSpline
 70
8
 71
3
 72
8
 73
4
 74
0
 40
0
 40
0
 40
0
 40
0
 40
1
 40
1
 40
1
 40
1
 10
271.194790
 20
187.078360
 30
0.0
 10
270.749241
 20
187.078358
 30
0.0
 10
270.321939
 20
187.255350
 30
0.0
 10
270.006887
 20
187.570400
 30
0.0
  0
SPLINE
  5
1eb
100
AcDbEntity
  8
Ebene_1
 62
7
100
AcDbSpline
 70
8
 71
3
 72
8
 73
4
 74
0
 40
0
 40
0
 40
0
 40
0
 40
1
 40
1
 40
1
 40
1
 10
270.006887
 20
187.570400
 30
0.0
 10
269.691835
 20
187.885450
 30
0.0
 10
269.514841
 20
188.312751
 30
0.0
 10
269.514840
 20
188.758300
 30
0.0
  0
SPLINE
  5
1ec
100
AcDbEntity
  8
Ebene_1
 62
7
100
AcDbSpline
 70
8
 71
3
 72
8
 73
4
 74
0
 40
0
 40
0
 40
0
 40
0
 40
1
 40
1
 40
1
 40
1
 10
269.514840
 20
188.758300
 30
0.0
 10
269.514838
 20
189.203851
 30
0.0
 10
269.691832
 20
189.631154
 30
0.0
 10
270.006884
 20
189.946206
 30
0.0
  0
SPLINE
  5
1ed
100
AcDbEntity
  8
Ebene_1
 62
7
100
AcDbSpline
 70
8
 71
3
 72
8
 73
4
 74
0
 40
0
 40
0
 40
0
 40
0
 40
1
 40
1
 40
1
 40
1
 10
270.006884
 20
189.946206
 30
0.0
 10
270.321936
 20
190.261258
 30
0.0
 10
270.749239
 20
190.438252
 30
0.0
 10
271.194790
 20
190.438250
 30
0.0
  0
SPLINE
  5
1ee
100
AcDbEntity
  8
Ebene_1
 62
7
100
AcDbSpline
 70
8
 71
3
 72
8
 73
4
 74
0
 40
0
 40
0
 40
0
 40
0
 40
1
 40
1
 40
1
 40
1
 10
271.194790
 20
190.438250
 30
0.0
 10
272.122595
 20
190.438243
 30
0.0
 10
272.874724
 20
189.686105
 30
0.0
 10
272.874720
 20
188.758300
 30
0.0
  0
LWPOLYLINE
  5
1ef
100
AcDbEntity
  8
Ebene_1
 62
7
100
AcDbPolyline
 90
1
 70
1
 10
272.620730
 20
30.785700
 30
0.0
  0
SPLINE
  5
1f0
100
AcDbEntity
  8
Ebene_1
 62
7
100
AcDbSpline
 70
8
 71
3
 72
8
 73
4
 74
0
 40
0
 40
0
 40
0
 40
0
 40
1
 40
1
 40
1
 40
1
 10
168.718280
 20
188.758300
 30
0.0
 10
168.718279
 20
187.830495
 30
0.0
 10
167.966145
 20
187.078361
 30
0.0
 10
167.038340
 20
187.078360
 30
0.0
  0
SPLINE
  5
1f1
100
AcDbEntity
  8
Ebene_1
 62
7
100
AcDbSpline
 70
8
 71
3
 72
8
 73
4
 74
0
 40
0
 40
0
 40
0
 40
0
 40
1
 40
1
 40
1
 40
1
 10
167.038340
 20
187.078360
 30
0.0
 10
166.592791
 20
187.078358
 30
0.0
 10
166.165489
 20
187.255350
 30
0.0
 10
165.850437
 20
187.570400
 30
0.0
  0
SPLINE
  5
1f2
100
AcDbEntity
  8
Ebene_1
 62
7
100
AcDbSpline
 70
8
 71
3
 72
8
 73
4
 74
0
 40
0
 40
0
 40
0
 40
0
 40
1
 40
1
 40
1
 40
1
 10
165.850437
 20
187.570400
 30
0.0
 10
165.535385
 20
187.885450
 30
0.0
 10
165.358391
 20
188.312751
 30
0.0
 10
165.358390
 20
188.758300
 30
0.0
  0
SPLINE
  5
1f3
100
AcDbEntity
  8
Ebene_1
 62
7
100
AcDbSpline
 70
8
 71
3
 72
8
 73
4
 74
0
 40
0
 40
0
 40
0
 40
0
 40
1
 40
1
 40
1
 40
1
 10
165.358390
 20
188.758300
 30
0.0
 10
165.358388
 20
189.203851
 30
0.0
 10
165.535382
 20
189.631154
 30
0.0
 10
165.850434
 20
189.946206
 30
0.0
  0
SPLINE
  5
1f4
100
AcDbEntity
  8
Ebene_1
 62
7
100
AcDbSpline
 70
8
 71
3
 72
8
 73
4
 74
0
 40
0
 40
0
 40
0
 40
0
 40
1
 40
1
 40
1
 40
1
 10
165.850434
 20
189.946206
 30
0.0
 10
166.165486
 20
190.261258
 30
0.0
 10
166.592789
 20
190.438252
 30
0.0
 10
167.038340
 20
190.438250
 30
0.0
  0
SPLINE
  5
1f5
100
AcDbEntity
  8
Ebene_1
 62
7
100
AcDbSpline
 70
8
 71
3
 72
8
 73
4
 74
0
 40
0
 40
0
 40
0
 40
0
 40
1
 40
1
 40
1
 40
1
 10
167.038340
 20
190.438250
 30
0.0
 10
167.483889
 20
190.438249
 30
0.0
 10
167.911190
 20
190.261255
 30
0.0
 10
168.226240
 20
189.946203
 30
0.0
  0
SPLINE
  5
1f6
100
AcDbEntity
  8
Ebene_1
 62
7
100
AcDbSpline
 70
8
 71
3
 72
8
 73
4
 74
0
 40
0
 40
0
 40
0
 40
0
 40
1
 40
1
 40
1
 40
1
 10
168.226240
 20
189.946203
 30
0.0
 10
168.541290
 20
189.631151
 30
0.0
 10
168.718282
 20
189.203849
 30
0.0
 10
168.718280
 20
188.758300
 30
0.0
  0
LWPOLYLINE
  5
1f7
100
AcDbEntity
  8
Ebene_1
 62
7
100
AcDbPolyline
 90
1
 70
1
 10
272.874720
 20
188.758300
 30
0.0
  0
LWPOLYLINE
  5
1f8
100
AcDbEntity
  8
Ebene_1
 62
7
100
AcDbPolyline
 90
1
 70
1
 10
168.718280
 20
188.758300
 30
0.0
  0
SPLINE
  5
1f9
100
AcDbEntity
  8
Ebene_1
 62
7
100
AcDbSpline
 70
8
 71
3
 72
8
 73
4
 74
0
 40
0
 40
0
 40
0
 40
0
 40
1
 40
1
 40
1
 40
1
 10
176.497013
 20
66.286092
 30
0.0
 10
176.497013
 20
66.025583
 30
0.0
 10
176.429297
 20
65.856750
 30
0.0
 10
176.263386
 20
65.675011
 30
0.0
  0
SPLINE
  5
1fa
100
AcDbEntity
  8
Ebene_1
 62
7
100
AcDbSpline
 70
8
 71
3
 72
8
 73
4
 74
0
 40
0
 40
0
 40
0
 40
0
 40
1
 40
1
 40
1
 40
1
 10
176.263386
 20
65.675011
 30
0.0
 10
176.094204
 20
65.504327
 30
0.0
 10
175.938865
 20
65.433581
 30
0.0
 10
175.709001
 20
65.433581
 30
0.0
  0
LWPOLYLINE
  5
1fb
100
AcDbEntity
  8
Ebene_1
 62
7
100
AcDbPolyline
 90
4
 70
0
 10
163.797911
 20
70.921037
 30
0.0
 10
163.797911
 20
67.137242
 30
0.0
 10
176.497013
 20
67.137242
 30
0.0
 10
176.497013
 20
66.286092
 30
0.0
  0
SPLINE
  5
1fc
100
AcDbEntity
  8
Ebene_1
 62
7
100
AcDbSpline
 70
8
 71
3
 72
8
 73
4
 74
0
 40
0
 40
0
 40
0
 40
0
 40
1
 40
1
 40
1
 40
1
 10
176.978154
 20
61.651155
 30
0.0
 10
177.780144
 20
61.651155
 30
0.0
 10
178.518453
 20
61.979651
 30
0.0
 10
179.099723
 20
62.590963
 30
0.0
  0
SPLINE
  5
1fd
100
AcDbEntity
  8
Ebene_1
 62
7
100
AcDbSpline
 70
8
 71
3
 72
8
 73
4
 74
0
 40
0
 40
0
 40
0
 40
0
 40
1
 40
1
 40
1
 40
1
 10
179.099723
 20
62.590963
 30
0.0
 10
179.686216
 20
63.207778
 30
0.0
 10
179.998867
 20
64.020419
 30
0.0
 10
179.998867
 20
64.913890
 30
0.0
  0
LWPOLYLINE
  5
1fe
100
AcDbEntity
  8
Ebene_1
 62
7
100
AcDbPolyline
 90
7
 70
0
 10
175.709001
 20
65.433581
 30
0.0
 10
163.797911
 20
65.433581
 30
0.0
 10
163.797911
 20
56.163692
 30
0.0
 10
164.279052
 20
56.163692
 30
0.0
 10
167.299759
 20
56.163692
 30
0.0
 10
167.299759
 20
61.651155
 30
0.0
 10
176.978154
 20
61.651155
 30
0.0
  0
LWPOLYLINE
  5
1ff
100
AcDbEntity
  8
Ebene_1
 62
7
100
AcDbPolyline
 90
3
 70
0
 10
179.998867
 20
64.913890
 30
0.0
 10
179.998867
 20
70.921037
 30
0.0
 10
163.797911
 20
70.921037
 30
0.0
  0
SPLINE
  5
200
100
AcDbEntity
  8
Ebene_1
 62
7
100
AcDbSpline
 70
8
 71
3
 72
8
 73
4
 74
0
 40
0
 40
0
 40
0
 40
0
 40
1
 40
1
 40
1
 40
1
 10
181.577411
 20
70.401345
 30
0.0
 10
181.577411
 20
69.523134
 30
0.0
 10
181.880066
 20
68.717442
 30
0.0
 10
182.447511
 20
68.087966
 30
0.0
  0
LWPOLYLINE
  5
201
100
AcDbEntity
  8
Ebene_1
 62
7
100
AcDbPolyline
 90
2
 70
0
 10
181.577411
 20
70.921037
 30
0.0
 10
181.577411
 20
70.401345
 30
0.0
  0
SPLINE
  5
202
100
AcDbEntity
  8
Ebene_1
 62
7
100
AcDbSpline
 70
8
 71
3
 72
8
 73
4
 74
0
 40
0
 40
0
 40
0
 40
0
 40
1
 40
1
 40
1
 40
1
 10
182.452684
 20
68.082379
 30
0.0
 10
183.024888
 20
67.464334
 30
0.0
 10
183.774028
 20
67.137109
 30
0.0
 10
184.598247
 20
67.137109
 30
0.0
  0
LWPOLYLINE
  5
203
100
AcDbEntity
  8
Ebene_1
 62
7
100
AcDbPolyline
 90
3
 70
0
 10
182.447511
 20
68.087966
 30
0.0
 10
182.450098
 20
68.085172
 30
0.0
 10
182.452684
 20
68.082379
 30
0.0
  0
SPLINE
  5
204
100
AcDbEntity
  8
Ebene_1
 62
7
100
AcDbSpline
 70
8
 71
3
 72
8
 73
4
 74
0
 40
0
 40
0
 40
0
 40
0
 40
1
 40
1
 40
1
 40
1
 10
194.757783
 20
67.137109
 30
0.0
 10
195.559773
 20
67.137109
 30
0.0
 10
196.298089
 20
67.466974
 30
0.0
 10
196.879352
 20
68.078286
 30
0.0
  0
SPLINE
  5
205
100
AcDbEntity
  8
Ebene_1
 62
7
100
AcDbSpline
 70
8
 71
3
 72
8
 73
4
 74
0
 40
0
 40
0
 40
0
 40
0
 40
1
 40
1
 40
1
 40
1
 10
196.879352
 20
68.078286
 30
0.0
 10
197.465852
 20
68.695108
 30
0.0
 10
197.778490
 20
69.507749
 30
0.0
 10
197.778490
 20
70.401213
 30
0.0
  0
LWPOLYLINE
  5
206
100
AcDbEntity
  8
Ebene_1
 62
7
100
AcDbPolyline
 90
2
 70
0
 10
184.598247
 20
67.137109
 30
0.0
 10
194.757783
 20
67.137109
 30
0.0
  0
LWPOLYLINE
  5
207
100
AcDbEntity
  8
Ebene_1
 62
7
100
AcDbPolyline
 90
3
 70
0
 10
197.778490
 20
70.401213
 30
0.0
 10
197.778490
 20
70.920904
 30
0.0
 10
181.577411
 20
70.921037
 30
0.0
  0
LWPOLYLINE
  5
208
100
AcDbEntity
  8
Ebene_1
 62
7
100
AcDbPolyline
 90
9
 70
1
 10
181.577411
 20
65.433581
 30
0.0
 10
181.577411
 20
56.163692
 30
0.0
 10
182.058552
 20
56.163692
 30
0.0
 10
185.079265
 20
56.163692
 30
0.0
 10
185.079265
 20
61.651155
 30
0.0
 10
194.276519
 20
61.651155
 30
0.0
 10
194.276519
 20
56.163692
 30
0.0
 10
197.778367
 20
56.163692
 30
0.0
 10
197.778367
 20
65.433581
 30
0.0
  0
SPLINE
  5
209
100
AcDbEntity
  8
Ebene_1
 62
7
100
AcDbSpline
 70
8
 71
3
 72
8
 73
4
 74
0
 40
0
 40
0
 40
0
 40
0
 40
1
 40
1
 40
1
 40
1
 10
199.355657
 20
70.401345
 30
0.0
 10
199.355657
 20
69.523134
 30
0.0
 10
199.659565
 20
68.717442
 30
0.0
 10
200.227011
 20
68.087966
 30
0.0
  0
LWPOLYLINE
  5
20a
100
AcDbEntity
  8
Ebene_1
 62
7
100
AcDbPolyline
 90
2
 70
0
 10
199.355657
 20
70.921037
 30
0.0
 10
199.355657
 20
70.401345
 30
0.0
  0
SPLINE
  5
20b
100
AcDbEntity
  8
Ebene_1
 62
7
100
AcDbSpline
 70
8
 71
3
 72
8
 73
4
 74
0
 40
0
 40
0
 40
0
 40
0
 40
1
 40
1
 40
1
 40
1
 10
200.230891
 20
68.082379
 30
0.0
 10
200.803089
 20
67.464334
 30
0.0
 10
201.553495
 20
67.137109
 30
0.0
 10
202.377715
 20
67.137109
 30
0.0
  0
LWPOLYLINE
  5
20c
100
AcDbEntity
  8
Ebene_1
 62
7
100
AcDbPolyline
 90
3
 70
0
 10
200.227011
 20
68.087966
 30
0.0
 10
200.229597
 20
68.085172
 30
0.0
 10
200.230891
 20
68.082379
 30
0.0
  0
SPLINE
  5
20d
100
AcDbEntity
  8
Ebene_1
 62
7
100
AcDbSpline
 70
8
 71
3
 72
8
 73
4
 74
0
 40
0
 40
0
 40
0
 40
0
 40
1
 40
1
 40
1
 40
1
 10
212.056109
 20
66.285960
 30
0.0
 10
212.056109
 20
66.025653
 30
0.0
 10
211.989370
 20
65.856457
 30
0.0
 10
211.823750
 20
65.674878
 30
0.0
  0
SPLINE
  5
20e
100
AcDbEntity
  8
Ebene_1
 62
7
100
AcDbSpline
 70
8
 71
3
 72
8
 73
4
 74
0
 40
0
 40
0
 40
0
 40
0
 40
1
 40
1
 40
1
 40
1
 10
211.823750
 20
65.674878
 30
0.0
 10
211.653799
 20
65.502700
 30
0.0
 10
211.497599
 20
65.433449
 30
0.0
 10
211.266837
 20
65.433449
 30
0.0
  0
LWPOLYLINE
  5
20f
100
AcDbEntity
  8
Ebene_1
 62
7
100
AcDbPolyline
 90
3
 70
0
 10
202.377715
 20
67.137109
 30
0.0
 10
212.056109
 20
67.137109
 30
0.0
 10
212.056109
 20
66.285960
 30
0.0
  0
SPLINE
  5
210
100
AcDbEntity
  8
Ebene_1
 62
7
100
AcDbSpline
 70
8
 71
3
 72
8
 73
4
 74
0
 40
0
 40
0
 40
0
 40
0
 40
1
 40
1
 40
1
 40
1
 10
212.475380
 20
61.655213
 30
0.0
 10
213.345370
 20
61.533408
 30
0.0
 10
214.096766
 20
61.999807
 30
0.0
 10
214.658826
 20
62.590928
 30
0.0
  0
SPLINE
  5
211
100
AcDbEntity
  8
Ebene_1
 62
7
100
AcDbSpline
 70
8
 71
3
 72
8
 73
4
 74
0
 40
0
 40
0
 40
0
 40
0
 40
1
 40
1
 40
1
 40
1
 10
214.658826
 20
62.590928
 30
0.0
 10
215.245326
 20
63.207743
 30
0.0
 10
215.557970
 20
64.020384
 30
0.0
 10
215.557970
 20
64.913855
 30
0.0
  0
LWPOLYLINE
  5
212
100
AcDbEntity
  8
Ebene_1
 62
7
100
AcDbPolyline
 90
12
 70
0
 10
211.266837
 20
65.433449
 30
0.0
 10
199.355747
 20
65.433449
 30
0.0
 10
199.355747
 20
56.163560
 30
0.0
 10
199.836888
 20
56.163560
 30
0.0
 10
202.858856
 20
56.163560
 30
0.0
 10
202.858856
 20
61.651022
 30
0.0
 10
205.988174
 20
61.651022
 30
0.0
 10
211.067311
 20
56.163560
 30
0.0
 10
216.238631
 20
56.163560
 30
0.0
 10
211.158232
 20
61.651022
 30
0.0
 10
212.537257
 20
61.651022
 30
0.0
 10
212.475380
 20
61.655213
 30
0.0
  0
LWPOLYLINE
  5
213
100
AcDbEntity
  8
Ebene_1
 62
7
100
AcDbPolyline
 90
3
 70
0
 10
215.557970
 20
64.913855
 30
0.0
 10
215.557970
 20
70.921002
 30
0.0
 10
199.355657
 20
70.921037
 30
0.0
  0
LWPOLYLINE
  5
214
100
AcDbEntity
  8
Ebene_1
 62
7
100
AcDbPolyline
 90
5
 70
1
 10
217.135156
 20
70.921037
 30
0.0
 10
217.135156
 20
56.163692
 30
0.0
 10
217.616298
 20
56.163692
 30
0.0
 10
220.637011
 20
56.163692
 30
0.0
 10
220.637011
 20
70.921037
 30
0.0
  0
LWPOLYLINE
  5
215
100
AcDbEntity
  8
Ebene_1
 62
7
100
AcDbPolyline
 90
9
 70
1
 10
228.846721
 20
70.921037
 30
0.0
 10
222.016029
 20
63.543049
 30
0.0
 10
228.846721
 20
56.163692
 30
0.0
 10
229.046253
 20
56.163692
 30
0.0
 10
234.016786
 20
56.163692
 30
0.0
 10
227.183566
 20
63.545780
 30
0.0
 10
227.957682
 20
64.394198
 30
0.0
 10
227.975334
 20
64.394198
 30
0.0
 10
234.016753
 20
70.921037
 30
0.0
  0
LWPOLYLINE
  5
216
100
AcDbEntity
  8
Ebene_1
 62
7
100
AcDbPolyline
 90
5
 70
1
 10
234.914663
 20
70.921037
 30
0.0
 10
234.914663
 20
56.163692
 30
0.0
 10
235.395804
 20
56.163692
 30
0.0
 10
238.416517
 20
56.163692
 30
0.0
 10
238.416517
 20
70.921037
 30
0.0
  0
LWPOLYLINE
  5
217
100
AcDbEntity
  8
Ebene_1
 62
7
100
AcDbPolyline
 90
12
 70
1
 10
239.314394
 20
70.921037
 30
0.0
 10
242.534631
 20
67.442782
 30
0.0
 10
242.534631
 20
56.163692
 30
0.0
 10
243.014510
 20
56.163692
 30
0.0
 10
246.036482
 20
56.163692
 30
0.0
 10
246.036482
 20
63.658994
 30
0.0
 10
252.975780
 20
56.163692
 30
0.0
 10
256.196018
 20
56.163692
 30
0.0
 10
256.196018
 20
70.921037
 30
0.0
 10
252.692904
 20
70.921037
 30
0.0
 10
252.692904
 20
62.054902
 30
0.0
 10
244.484453
 20
70.921037
 30
0.0
  0
SPLINE
  5
218
100
AcDbEntity
  8
Ebene_1
 62
7
100
AcDbSpline
 70
8
 71
3
 72
8
 73
4
 74
0
 40
0
 40
0
 40
0
 40
0
 40
1
 40
1
 40
1
 40
1
 10
270.953550
 20
67.137242
 30
0.0
 10
271.755539
 20
67.137242
 30
0.0
 10
272.493850
 20
67.467107
 30
0.0
 10
273.075119
 20
68.078419
 30
0.0
  0
SPLINE
  5
219
100
AcDbEntity
  8
Ebene_1
 62
7
100
AcDbSpline
 70
8
 71
3
 72
8
 73
4
 74
0
 40
0
 40
0
 40
0
 40
0
 40
1
 40
1
 40
1
 40
1
 10
273.075119
 20
68.078419
 30
0.0
 10
273.661614
 20
68.695241
 30
0.0
 10
273.974260
 20
69.507881
 30
0.0
 10
273.974260
 20
70.401345
 30
0.0
  0
LWPOLYLINE
  5
21a
100
AcDbEntity
  8
Ebene_1
 62
7
100
AcDbPolyline
 90
4
 70
0
 10
257.773304
 20
70.921037
 30
0.0
 10
257.773304
 20
67.137242
 30
0.0
 10
258.254445
 20
67.137242
 30
0.0
 10
270.953550
 20
67.137242
 30
0.0
  0
LWPOLYLINE
  5
21b
100
AcDbEntity
  8
Ebene_1
 62
7
100
AcDbPolyline
 90
3
 70
0
 10
273.974260
 20
70.401345
 30
0.0
 10
273.974260
 20
70.921037
 30
0.0
 10
257.773304
 20
70.921037
 30
0.0
  0
SPLINE
  5
21c
100
AcDbEntity
  8
Ebene_1
 62
7
100
AcDbSpline
 70
8
 71
3
 72
8
 73
4
 74
0
 40
0
 40
0
 40
0
 40
0
 40
1
 40
1
 40
1
 40
1
 10
257.773304
 20
59.427796
 30
0.0
 10
257.773304
 20
58.549585
 30
0.0
 10
258.075953
 20
57.743886
 30
0.0
 10
258.643400
 20
57.114416
 30
0.0
  0
LWPOLYLINE
  5
21d
100
AcDbEntity
  8
Ebene_1
 62
7
100
AcDbPolyline
 90
2
 70
0
 10
257.773304
 20
65.433581
 30
0.0
 10
257.773304
 20
59.427796
 30
0.0
  0
SPLINE
  5
21e
100
AcDbEntity
  8
Ebene_1
 62
7
100
AcDbSpline
 70
8
 71
3
 72
8
 73
4
 74
0
 40
0
 40
0
 40
0
 40
0
 40
1
 40
1
 40
1
 40
1
 10
258.648443
 20
57.108829
 30
0.0
 10
259.220646
 20
56.490778
 30
0.0
 10
259.969787
 20
56.163560
 30
0.0
 10
260.794006
 20
56.163560
 30
0.0
  0
LWPOLYLINE
  5
21f
100
AcDbEntity
  8
Ebene_1
 62
7
100
AcDbPolyline
 90
3
 70
0
 10
258.643400
 20
57.114416
 30
0.0
 10
258.645921
 20
57.111623
 30
0.0
 10
258.648443
 20
57.108829
 30
0.0
  0
SPLINE
  5
220
100
AcDbEntity
  8
Ebene_1
 62
7
100
AcDbSpline
 70
8
 71
3
 72
8
 73
4
 74
0
 40
0
 40
0
 40
0
 40
0
 40
1
 40
1
 40
1
 40
1
 10
262.852433
 20
64.913757
 30
0.0
 10
262.852433
 20
64.035546
 30
0.0
 10
263.156349
 20
63.229854
 30
0.0
 10
263.723792
 20
62.600377
 30
0.0
  0
LWPOLYLINE
  5
221
100
AcDbEntity
  8
Ebene_1
 62
7
100
AcDbPolyline
 90
5
 70
0
 10
260.794006
 20
56.163560
 30
0.0
 10
273.974252
 20
56.163560
 30
0.0
 10
273.974252
 20
65.433449
 30
0.0
 10
262.852433
 20
65.433449
 30
0.0
 10
262.852433
 20
64.913757
 30
0.0
  0
SPLINE
  5
222
100
AcDbEntity
  8
Ebene_1
 62
7
100
AcDbSpline
 70
8
 71
3
 72
8
 73
4
 74
0
 40
0
 40
0
 40
0
 40
0
 40
1
 40
1
 40
1
 40
1
 10
263.727606
 20
62.596187
 30
0.0
 10
264.299808
 20
61.978143
 30
0.0
 10
265.050213
 20
61.650924
 30
0.0
 10
265.874432
 20
61.650924
 30
0.0
  0
LWPOLYLINE
  5
223
100
AcDbEntity
  8
Ebene_1
 62
7
100
AcDbPolyline
 90
3
 70
0
 10
263.723792
 20
62.600377
 30
0.0
 10
263.726313
 20
62.598981
 30
0.0
 10
263.727606
 20
62.596187
 30
0.0
  0
SPLINE
  5
224
100
AcDbEntity
  8
Ebene_1
 62
7
100
AcDbSpline
 70
8
 71
3
 72
8
 73
4
 74
0
 40
0
 40
0
 40
0
 40
0
 40
1
 40
1
 40
1
 40
1
 10
262.064448
 20
59.947257
 30
0.0
 10
261.820114
 20
59.947257
 30
0.0
 10
261.660697
 20
60.020713
 30
0.0
 10
261.496171
 20
60.184601
 30
0.0
  0
SPLINE
  5
225
100
AcDbEntity
  8
Ebene_1
 62
7
100
AcDbSpline
 70
8
 71
3
 72
8
 73
4
 74
0
 40
0
 40
0
 40
0
 40
0
 40
1
 40
1
 40
1
 40
1
 10
261.496171
 20
60.184601
 30
0.0
 10
261.344434
 20
60.362318
 30
0.0
 10
261.275174
 20
60.534489
 30
0.0
 10
261.275174
 20
60.798406
 30
0.0
  0
LWPOLYLINE
  5
226
100
AcDbEntity
  8
Ebene_1
 62
7
100
AcDbPolyline
 90
4
 70
0
 10
265.874432
 20
61.650924
 30
0.0
 10
270.472427
 20
61.650924
 30
0.0
 10
270.472427
 20
59.947257
 30
0.0
 10
262.064448
 20
59.947257
 30
0.0
  0
LWPOLYLINE
  5
227
100
AcDbEntity
  8
Ebene_1
 62
7
100
AcDbPolyline
 90
3
 70
0
 10
261.275174
 20
60.798406
 30
0.0
 10
261.275174
 20
65.433351
 30
0.0
 10
257.773304
 20
65.433581
 30
0.0
  0
SPLINE
  5
228
100
AcDbEntity
  8
Ebene_1
 62
7
100
AcDbSpline
 70
8
 71
3
 72
8
 73
4
 74
0
 40
0
 40
0
 40
0
 40
0
 40
1
 40
1
 40
1
 40
1
 10
184.116983
 20
50.560299
 30
0.0
 10
184.116983
 20
49.682088
 30
0.0
 10
184.419638
 20
48.877751
 30
0.0
 10
184.987077
 20
48.248281
 30
0.0
  0
LWPOLYLINE
  5
229
100
AcDbEntity
  8
Ebene_1
 62
7
100
AcDbPolyline
 90
2
 70
0
 10
184.116983
 20
51.079991
 30
0.0
 10
184.116983
 20
50.560299
 30
0.0
  0
SPLINE
  5
22a
100
AcDbEntity
  8
Ebene_1
 62
7
100
AcDbSpline
 70
8
 71
3
 72
8
 73
4
 74
0
 40
0
 40
0
 40
0
 40
0
 40
1
 40
1
 40
1
 40
1
 10
184.992249
 20
48.242694
 30
0.0
 10
185.564454
 20
47.624643
 30
0.0
 10
186.313593
 20
47.297425
 30
0.0
 10
187.137813
 20
47.297425
 30
0.0
  0
LWPOLYLINE
  5
22b
100
AcDbEntity
  8
Ebene_1
 62
7
100
AcDbPolyline
 90
3
 70
0
 10
184.987077
 20
48.248281
 30
0.0
 10
184.989663
 20
48.245488
 30
0.0
 10
184.992249
 20
48.242694
 30
0.0
  0
SPLINE
  5
22c
100
AcDbEntity
  8
Ebene_1
 62
7
100
AcDbSpline
 70
8
 71
3
 72
8
 73
4
 74
0
 40
0
 40
0
 40
0
 40
0
 40
1
 40
1
 40
1
 40
1
 10
197.297349
 20
47.297425
 30
0.0
 10
198.099339
 20
47.297425
 30
0.0
 10
198.837648
 20
47.627276
 30
0.0
 10
199.418917
 20
48.238602
 30
0.0
  0
SPLINE
  5
22d
100
AcDbEntity
  8
Ebene_1
 62
7
100
AcDbSpline
 70
8
 71
3
 72
8
 73
4
 74
0
 40
0
 40
0
 40
0
 40
0
 40
1
 40
1
 40
1
 40
1
 10
199.418917
 20
48.238602
 30
0.0
 10
200.005418
 20
48.855417
 30
0.0
 10
200.318062
 20
49.666696
 30
0.0
 10
200.318062
 20
50.560166
 30
0.0
  0
LWPOLYLINE
  5
22e
100
AcDbEntity
  8
Ebene_1
 62
7
100
AcDbPolyline
 90
2
 70
0
 10
187.137813
 20
47.297425
 30
0.0
 10
197.297349
 20
47.297425
 30
0.0
  0
LWPOLYLINE
  5
22f
100
AcDbEntity
  8
Ebene_1
 62
7
100
AcDbPolyline
 90
3
 70
0
 10
200.318062
 20
50.560166
 30
0.0
 10
200.318062
 20
51.079858
 30
0.0
 10
184.116983
 20
51.079991
 30
0.0
  0
LWPOLYLINE
  5
230
100
AcDbEntity
  8
Ebene_1
 62
7
100
AcDbPolyline
 90
9
 70
1
 10
184.116983
 20
45.593897
 30
0.0
 10
184.116983
 20
36.324008
 30
0.0
 10
184.598124
 20
36.324008
 30
0.0
 10
200.317939
 20
36.324008
 30
0.0
 10
200.317939
 20
45.593897
 30
0.0
 10
196.816085
 20
45.593897
 30
0.0
 10
196.816085
 20
40.107803
 30
0.0
 10
187.618831
 20
40.107803
 30
0.0
 10
187.618831
 20
45.593897
 30
0.0
  0
LWPOLYLINE
  5
231
100
AcDbEntity
  8
Ebene_1
 62
7
100
AcDbPolyline
 90
12
 70
1
 10
201.215816
 20
51.079991
 30
0.0
 10
204.436055
 20
47.601736
 30
0.0
 10
204.436055
 20
36.324008
 30
0.0
 10
204.917196
 20
36.324008
 30
0.0
 10
207.937903
 20
36.324008
 30
0.0
 10
207.937903
 20
43.820671
 30
0.0
 10
214.877206
 20
36.324008
 30
0.0
 10
218.097439
 20
36.324008
 30
0.0
 10
218.097439
 20
51.079991
 30
0.0
 10
214.595591
 20
51.079991
 30
0.0
 10
214.595591
 20
42.213849
 30
0.0
 10
206.385874
 20
51.079991
 30
0.0
  0
SPLINE
  5
232
100
AcDbEntity
  8
Ebene_1
 62
7
100
AcDbSpline
 70
8
 71
3
 72
8
 73
4
 74
0
 40
0
 40
0
 40
0
 40
0
 40
1
 40
1
 40
1
 40
1
 10
232.856238
 20
36.324008
 30
0.0
 10
233.658222
 20
36.324008
 30
0.0
 10
234.395270
 20
36.653866
 30
0.0
 10
234.976540
 20
37.265185
 30
0.0
  0
SPLINE
  5
233
100
AcDbEntity
  8
Ebene_1
 62
7
100
AcDbSpline
 70
8
 71
3
 72
8
 73
4
 74
0
 40
0
 40
0
 40
0
 40
0
 40
1
 40
1
 40
1
 40
1
 10
234.976540
 20
37.265185
 30
0.0
 10
235.563034
 20
37.882000
 30
0.0
 10
235.876945
 20
38.694648
 30
0.0
 10
235.876945
 20
39.588112
 30
0.0
  0
LWPOLYLINE
  5
234
100
AcDbEntity
  8
Ebene_1
 62
7
100
AcDbPolyline
 90
4
 70
0
 10
219.674728
 20
51.079991
 30
0.0
 10
219.674728
 20
36.324008
 30
0.0
 10
220.155870
 20
36.324008
 30
0.0
 10
232.856238
 20
36.324008
 30
0.0
  0
LWPOLYLINE
  5
235
100
AcDbEntity
  8
Ebene_1
 62
7
100
AcDbPolyline
 90
5
 70
0
 10
235.876945
 20
39.588112
 30
0.0
 10
235.876945
 20
40.107803
 30
0.0
 10
223.177843
 20
40.107803
 30
0.0
 10
223.177843
 20
51.079991
 30
0.0
 10
219.674728
 20
51.079991
 30
0.0
  0
SPLINE
  5
236
100
AcDbEntity
  8
Ebene_1
 62
7
100
AcDbSpline
 70
8
 71
3
 72
8
 73
4
 74
0
 40
0
 40
0
 40
0
 40
0
 40
1
 40
1
 40
1
 40
1
 10
218.868050
 20
77.609110
 30
0.0
 10
218.737680
 20
78.296680
 30
0.0
 10
207.519620
 20
140.926700
 30
0.0
 10
207.519620
 20
140.966970
 30
0.0
  0
SPLINE
  5
237
100
AcDbEntity
  8
Ebene_1
 62
7
100
AcDbSpline
 70
8
 71
3
 72
8
 73
4
 74
0
 40
0
 40
0
 40
0
 40
0
 40
1
 40
1
 40
1
 40
1
 10
207.519620
 20
140.966970
 30
0.0
 10
207.519620
 20
141.024370
 30
0.0
 10
204.206270
 20
140.940470
 30
0.0
 10
202.540830
 20
140.841070
 30
0.0
  0
SPLINE
  5
238
100
AcDbEntity
  8
Ebene_1
 62
7
100
AcDbSpline
 70
8
 71
3
 72
8
 73
4
 74
0
 40
0
 40
0
 40
0
 40
0
 40
1
 40
1
 40
1
 40
1
 10
202.540830
 20
140.841070
 30
0.0
 10
197.584540
 20
140.545500
 30
0.0
 10
195.035400
 20
139.677560
 30
0.0
 10
193.803330
 20
137.866140
 30
0.0
  0
SPLINE
  5
239
100
AcDbEntity
  8
Ebene_1
 62
7
100
AcDbSpline
 70
8
 71
3
 72
8
 73
4
 74
0
 40
0
 40
0
 40
0
 40
0
 40
1
 40
1
 40
1
 40
1
 10
193.803330
 20
137.866140
 30
0.0
 10
193.349070
 20
137.198290
 30
0.0
 10
193.159430
 20
136.722080
 30
0.0
 10
192.961190
 20
135.751660
 30
0.0
  0
SPLINE
  5
23a
100
AcDbEntity
  8
Ebene_1
 62
7
100
AcDbSpline
 70
8
 71
3
 72
8
 73
4
 74
0
 40
0
 40
0
 40
0
 40
0
 40
1
 40
1
 40
1
 40
1
 10
192.961190
 20
135.751660
 30
0.0
 10
192.880690
 20
135.357360
 30
0.0
 10
192.800030
 20
135.020060
 30
0.0
 10
192.782070
 20
135.002110
 30
0.0
  0
SPLINE
  5
23b
100
AcDbEntity
  8
Ebene_1
 62
7
100
AcDbSpline
 70
8
 71
3
 72
8
 73
4
 74
0
 40
0
 40
0
 40
0
 40
0
 40
1
 40
1
 40
1
 40
1
 10
192.782070
 20
135.002110
 30
0.0
 10
192.721670
 20
134.941710
 30
0.0
 10
190.662020
 20
135.920460
 30
0.0
 10
189.630030
 20
136.499840
 30
0.0
  0
SPLINE
  5
23c
100
AcDbEntity
  8
Ebene_1
 62
7
100
AcDbSpline
 70
8
 71
3
 72
8
 73
4
 74
0
 40
0
 40
0
 40
0
 40
0
 40
1
 40
1
 40
1
 40
1
 10
189.630030
 20
136.499840
 30
0.0
 10
186.543340
 20
138.232750
 30
0.0
 10
184.120040
 20
140.239210
 30
0.0
 10
182.471520
 20
142.426950
 30
0.0
  0
SPLINE
  5
23d
100
AcDbEntity
  8
Ebene_1
 62
7
100
AcDbSpline
 70
8
 71
3
 72
8
 73
4
 74
0
 40
0
 40
0
 40
0
 40
0
 40
1
 40
1
 40
1
 40
1
 10
182.471520
 20
142.426950
 30
0.0
 10
182.229340
 20
142.748360
 30
0.0
 10
182.031190
 20
143.037640
 30
0.0
 10
182.031190
 20
143.069790
 30
0.0
  0
SPLINE
  5
23e
100
AcDbEntity
  8
Ebene_1
 62
7
100
AcDbSpline
 70
8
 71
3
 72
8
 73
4
 74
0
 40
0
 40
0
 40
0
 40
0
 40
1
 40
1
 40
1
 40
1
 10
182.031190
 20
143.069790
 30
0.0
 10
182.031190
 20
143.101990
 30
0.0
 10
182.156580
 20
143.180090
 30
0.0
 10
182.309850
 20
143.243570
 30
0.0
  0
SPLINE
  5
23f
100
AcDbEntity
  8
Ebene_1
 62
7
100
AcDbSpline
 70
8
 71
3
 72
8
 73
4
 74
0
 40
0
 40
0
 40
0
 40
0
 40
1
 40
1
 40
1
 40
1
 10
182.309850
 20
143.243570
 30
0.0
 10
182.463110
 20
143.306970
 30
0.0
 10
183.123540
 20
143.591660
 30
0.0
 10
183.777480
 20
143.876150
 30
0.0
  0
SPLINE
  5
240
100
AcDbEntity
  8
Ebene_1
 62
7
100
AcDbSpline
 70
8
 71
3
 72
8
 73
4
 74
0
 40
0
 40
0
 40
0
 40
0
 40
1
 40
1
 40
1
 40
1
 10
183.777480
 20
143.876150
 30
0.0
 10
191.269870
 20
147.135660
 30
0.0
 10
201.008840
 20
149.414010
 30
0.0
 10
209.748920
 20
149.951910
 30
0.0
  0
LWPOLYLINE
  5
241
100
AcDbEntity
  8
Ebene_1
 62
7
100
AcDbPolyline
 90
14
 70
1
 10
237.454228
 20
51.079991
 30
0.0
 10
237.454228
 20
47.601736
 30
0.0
 10
243.803784
 20
40.743440
 30
0.0
 10
243.803784
 20
36.324008
 30
0.0
 10
244.284925
 20
36.324008
 30
0.0
 10
247.305635
 20
36.324008
 30
0.0
 10
247.305635
 20
40.743440
 30
0.0
 10
253.655187
 20
47.601736
 30
0.0
 10
253.655187
 20
51.079991
 30
0.0
 10
250.153336
 20
51.079991
 30
0.0
 10
250.153336
 20
49.404971
 30
0.0
 10
245.555340
 20
44.437207
 30
0.0
 10
240.956082
 20
49.404971
 30
0.0
 10
240.956082
 20
51.079991
 30
0.0
  0
SPLINE
  5
242
100
AcDbEntity
  8
Ebene_1
 62
7
100
AcDbSpline
 70
8
 71
3
 72
8
 73
4
 74
0
 40
0
 40
0
 40
0
 40
0
 40
1
 40
1
 40
1
 40
1
 10
214.717230
 20
144.896720
 30
0.0
 10
217.020670
 20
142.089900
 30
0.0
 10
218.930780
 20
139.821530
 30
0.0
 10
218.961920
 20
139.855890
 30
0.0
  0
SPLINE
  5
243
100
AcDbEntity
  8
Ebene_1
 62
7
100
AcDbSpline
 70
8
 71
3
 72
8
 73
4
 74
0
 40
0
 40
0
 40
0
 40
0
 40
1
 40
1
 40
1
 40
1
 10
218.961920
 20
139.855890
 30
0.0
 10
218.993120
 20
139.890290
 30
0.0
 10
220.862580
 20
142.165560
 30
0.0
 10
223.116380
 20
144.912110
 30
0.0
  0
SPLINE
  5
244
100
AcDbEntity
  8
Ebene_1
 62
7
100
AcDbSpline
 70
8
 71
3
 72
8
 73
4
 74
0
 40
0
 40
0
 40
0
 40
0
 40
1
 40
1
 40
1
 40
1
 10
223.116380
 20
144.912110
 30
0.0
 10
225.370200
 20
147.658660
 30
0.0
 10
227.248660
 20
149.927100
 30
0.0
 10
227.290730
 20
149.953110
 30
0.0
  0
SPLINE
  5
245
100
AcDbEntity
  8
Ebene_1
 62
7
100
AcDbSpline
 70
8
 71
3
 72
8
 73
4
 74
0
 40
0
 40
0
 40
0
 40
0
 40
1
 40
1
 40
1
 40
1
 10
227.290730
 20
149.953110
 30
0.0
 10
227.378430
 20
150.007310
 30
0.0
 10
229.252900
 20
149.886510
 30
0.0
 10
230.890200
 20
149.720960
 30
0.0
  0
SPLINE
  5
246
100
AcDbEntity
  8
Ebene_1
 62
7
100
AcDbSpline
 70
8
 71
3
 72
8
 73
4
 74
0
 40
0
 40
0
 40
0
 40
0
 40
1
 40
1
 40
1
 40
1
 10
230.890200
 20
149.720960
 30
0.0
 10
237.794890
 20
149.023020
 30
0.0
 10
244.729610
 20
147.425260
 30
0.0
 10
251.028280
 20
145.081160
 30
0.0
  0
SPLINE
  5
247
100
AcDbEntity
  8
Ebene_1
 62
7
100
AcDbSpline
 70
8
 71
3
 72
8
 73
4
 74
0
 40
0
 40
0
 40
0
 40
0
 40
1
 40
1
 40
1
 40
1
 10
251.028280
 20
145.081160
 30
0.0
 10
252.514810
 20
144.527940
 30
0.0
 10
254.905960
 20
143.540530
 30
0.0
 10
255.529570
 20
143.222390
 30
0.0
  0
LWPOLYLINE
  5
248
100
AcDbEntity
  8
Ebene_1
 62
7
100
AcDbPolyline
 90
3
 70
0
 10
209.748920
 20
149.951910
 30
0.0
 10
210.529170
 20
150.000010
 30
0.0
 10
214.717230
 20
144.896720
 30
0.0
  0
SPLINE
  5
249
100
AcDbEntity
  8
Ebene_1
 62
7
100
AcDbSpline
 70
8
 71
3
 72
8
 73
4
 74
0
 40
0
 40
0
 40
0
 40
0
 40
1
 40
1
 40
1
 40
1
 10
255.445110
 20
142.557070
 30
0.0
 10
253.984640
 20
140.549110
 30
0.0
 10
251.695070
 20
138.575850
 30
0.0
 10
248.859660
 20
136.881420
 30
0.0
  0
SPLINE
  5
24a
100
AcDbEntity
  8
Ebene_1
 62
7
100
AcDbSpline
 70
8
 71
3
 72
8
 73
4
 74
0
 40
0
 40
0
 40
0
 40
0
 40
1
 40
1
 40
1
 40
1
 10
248.859660
 20
136.881420
 30
0.0
 10
248.079880
 20
136.415400
 30
0.0
 10
245.498510
 20
135.119770
 30
0.0
 10
245.146540
 20
135.017730
 30
0.0
  0
SPLINE
  5
24b
100
AcDbEntity
  8
Ebene_1
 62
7
100
AcDbSpline
 70
8
 71
3
 72
8
 73
4
 74
0
 40
0
 40
0
 40
0
 40
0
 40
1
 40
1
 40
1
 40
1
 10
245.146540
 20
135.017730
 30
0.0
 10
245.001300
 20
134.975630
 30
0.0
 10
244.981830
 20
135.007630
 30
0.0
 10
244.933500
 20
135.364200
 30
0.0
  0
SPLINE
  5
24c
100
AcDbEntity
  8
Ebene_1
 62
7
100
AcDbSpline
 70
8
 71
3
 72
8
 73
4
 74
0
 40
0
 40
0
 40
0
 40
0
 40
1
 40
1
 40
1
 40
1
 10
244.933500
 20
135.364200
 30
0.0
 10
244.904300
 20
135.580250
 30
0.0
 10
244.798620
 20
136.040340
 30
0.0
 10
244.698760
 20
136.386650
 30
0.0
  0
SPLINE
  5
24d
100
AcDbEntity
  8
Ebene_1
 62
7
100
AcDbSpline
 70
8
 71
3
 72
8
 73
4
 74
0
 40
0
 40
0
 40
0
 40
0
 40
1
 40
1
 40
1
 40
1
 10
244.698760
 20
136.386650
 30
0.0
 10
243.912360
 20
139.113720
 30
0.0
 10
241.588800
 20
140.324640
 30
0.0
 10
236.277690
 20
140.775360
 30
0.0
  0
SPLINE
  5
24e
100
AcDbEntity
  8
Ebene_1
 62
7
100
AcDbSpline
 70
8
 71
3
 72
8
 73
4
 74
0
 40
0
 40
0
 40
0
 40
0
 40
1
 40
1
 40
1
 40
1
 10
236.277690
 20
140.775360
 30
0.0
 10
235.121250
 20
140.873460
 30
0.0
 10
230.311700
 20
140.999440
 30
0.0
 10
230.251270
 20
140.933160
 30
0.0
  0
SPLINE
  5
24f
100
AcDbEntity
  8
Ebene_1
 62
7
100
AcDbSpline
 70
8
 71
3
 72
8
 73
4
 74
0
 40
0
 40
0
 40
0
 40
0
 40
1
 40
1
 40
1
 40
1
 10
230.251270
 20
140.933160
 30
0.0
 10
230.220270
 20
140.899360
 30
0.0
 10
220.935710
 20
88.815200
 30
0.0
 10
218.976240
 20
77.683490
 30
0.0
  0
LWPOLYLINE
  5
250
100
AcDbEntity
  8
Ebene_1
 62
7
100
AcDbPolyline
 90
3
 70
0
 10
255.529570
 20
143.222390
 30
0.0
 10
255.820900
 20
143.073760
 30
0.0
 10
255.445110
 20
142.557070
 30
0.0
  0
SPLINE
  5
251
100
AcDbEntity
  8
Ebene_1
 62
7
100
AcDbSpline
 70
8
 71
3
 72
8
 73
4
 74
0
 40
0
 40
0
 40
0
 40
0
 40
1
 40
1
 40
1
 40
1
 10
255.821300
 20
145.879550
 30
0.0
 10
246.946150
 20
149.622590
 30
0.0
 10
236.862910
 20
152.004440
 30
0.0
 10
226.803140
 20
152.734140
 30
0.0
  0
SPLINE
  5
252
100
AcDbEntity
  8
Ebene_1
 62
7
100
AcDbSpline
 70
8
 71
3
 72
8
 73
4
 74
0
 40
0
 40
0
 40
0
 40
0
 40
1
 40
1
 40
1
 40
1
 10
226.803140
 20
152.734140
 30
0.0
 10
223.571130
 20
152.968550
 30
0.0
 10
216.856700
 20
153.045360
 30
0.0
 10
213.605370
 20
152.885030
 30
0.0
  0
SPLINE
  5
253
100
AcDbEntity
  8
Ebene_1
 62
7
100
AcDbSpline
 70
8
 71
3
 72
8
 73
4
 74
0
 40
0
 40
0
 40
0
 40
0
 40
1
 40
1
 40
1
 40
1
 10
213.605370
 20
152.885030
 30
0.0
 10
202.338030
 20
152.329490
 30
0.0
 10
191.971860
 20
150.033270
 30
0.0
 10
182.009370
 20
145.886200
 30
0.0
  0
SPLINE
  5
254
100
AcDbEntity
  8
Ebene_1
 62
7
100
AcDbSpline
 70
8
 71
3
 72
8
 73
4
 74
0
 40
0
 40
0
 40
0
 40
0
 40
1
 40
1
 40
1
 40
1
 10
182.009370
 20
145.886200
 30
0.0
 10
181.322980
 20
145.600470
 30
0.0
 10
180.718670
 20
145.383120
 30
0.0
 10
180.666450
 20
145.403150
 30
0.0
  0
SPLINE
  5
255
100
AcDbEntity
  8
Ebene_1
 62
7
100
AcDbSpline
 70
8
 71
3
 72
8
 73
4
 74
0
 40
0
 40
0
 40
0
 40
0
 40
1
 40
1
 40
1
 40
1
 10
180.666450
 20
145.403150
 30
0.0
 10
180.614150
 20
145.423350
 30
0.0
 10
180.184490
 20
146.220400
 30
0.0
 10
179.711520
 20
147.174720
 30
0.0
  0
SPLINE
  5
256
100
AcDbEntity
  8
Ebene_1
 62
7
100
AcDbSpline
 70
8
 71
3
 72
8
 73
4
 74
0
 40
0
 40
0
 40
0
 40
0
 40
1
 40
1
 40
1
 40
1
 10
179.711520
 20
147.174720
 30
0.0
 10
178.826610
 20
148.960230
 30
0.0
 10
178.414220
 20
149.887740
 30
0.0
 10
178.477260
 20
149.950790
 30
0.0
  0
SPLINE
  5
257
100
AcDbEntity
  8
Ebene_1
 62
7
100
AcDbSpline
 70
8
 71
3
 72
8
 73
4
 74
0
 40
0
 40
0
 40
0
 40
0
 40
1
 40
1
 40
1
 40
1
 10
178.477260
 20
149.950790
 30
0.0
 10
178.541760
 20
150.015290
 30
0.0
 10
181.139910
 20
150.996810
 30
0.0
 10
182.662820
 20
151.532020
 30
0.0
  0
SPLINE
  5
258
100
AcDbEntity
  8
Ebene_1
 62
7
100
AcDbSpline
 70
8
 71
3
 72
8
 73
4
 74
0
 40
0
 40
0
 40
0
 40
0
 40
1
 40
1
 40
1
 40
1
 10
182.662820
 20
151.532020
 30
0.0
 10
196.939530
 20
156.549520
 30
0.0
 10
212.186690
 20
158.628770
 30
0.0
 10
226.617370
 20
157.526110
 30
0.0
  0
SPLINE
  5
259
100
AcDbEntity
  8
Ebene_1
 62
7
100
AcDbSpline
 70
8
 71
3
 72
8
 73
4
 74
0
 40
0
 40
0
 40
0
 40
0
 40
1
 40
1
 40
1
 40
1
 10
226.617370
 20
157.526110
 30
0.0
 10
237.410640
 20
156.701370
 30
0.0
 10
247.582790
 20
154.424650
 30
0.0
 10
257.937350
 20
150.516080
 30
0.0
  0
SPLINE
  5
25a
100
AcDbEntity
  8
Ebene_1
 62
7
100
AcDbSpline
 70
8
 71
3
 72
8
 73
4
 74
0
 40
0
 40
0
 40
0
 40
0
 40
1
 40
1
 40
1
 40
1
 10
257.937350
 20
150.516080
 30
0.0
 10
258.708280
 20
150.225080
 30
0.0
 10
259.352280
 20
149.973740
 30
0.0
 10
259.368470
 20
149.957550
 30
0.0
  0
SPLINE
  5
25b
100
AcDbEntity
  8
Ebene_1
 62
7
100
AcDbSpline
 70
8
 71
3
 72
8
 73
4
 74
0
 40
0
 40
0
 40
0
 40
0
 40
1
 40
1
 40
1
 40
1
 10
259.368470
 20
149.957550
 30
0.0
 10
259.453070
 20
149.872850
 30
0.0
 10
257.382690
 20
145.550800
 30
0.0
 10
257.172910
 20
145.374190
 30
0.0
  0
SPLINE
  5
25c
100
AcDbEntity
  8
Ebene_1
 62
7
100
AcDbSpline
 70
8
 71
3
 72
8
 73
4
 74
0
 40
0
 40
0
 40
0
 40
0
 40
1
 40
1
 40
1
 40
1
 10
257.172910
 20
145.374190
 30
0.0
 10
257.144710
 20
145.350490
 30
0.0
 10
256.536540
 20
145.577900
 30
0.0
 10
255.821300
 20
145.879550
 30
0.0
  0
LWPOLYLINE
  5
25d
100
AcDbEntity
  8
Ebene_1
 62
7
100
AcDbPolyline
 90
3
 70
0
 10
218.976240
 20
77.683490
 30
0.0
 10
218.917340
 20
77.349100
 30
0.0
 10
218.868050
 20
77.609110
 30
0.0
  0
LWPOLYLINE
  5
25e
100
AcDbEntity
  8
Ebene_1
 62
7
100
AcDbPolyline
 90
1
 70
1
 10
255.821300
 20
145.879550
 30
0.0
  0
SPLINE
  5
25f
100
AcDbEntity
  8
Ebene_1
 62
7
100
AcDbSpline
 70
8
 71
3
 72
8
 73
4
 74
0
 40
0
 40
0
 40
0
 40
0
 40
1
 40
1
 40
1
 40
1
 10
168.758440
 20
180.173460
 30
0.0
 10
168.758440
 20
179.250560
 30
0.0
 10
169.100650
 20
178.409210
 30
0.0
 10
169.744770
 20
177.747680
 30
0.0
  0
LWPOLYLINE
  5
260
100
AcDbEntity
  8
Ebene_1
 62
7
100
AcDbPolyline
 90
2
 70
0
 10
168.758440
 20
180.673460
 30
0.0
 10
168.758440
 20
180.173460
 30
0.0
  0
SPLINE
  5
261
100
AcDbEntity
  8
Ebene_1
 62
7
100
AcDbSpline
 70
8
 71
3
 72
8
 73
4
 74
0
 40
0
 40
0
 40
0
 40
0
 40
1
 40
1
 40
1
 40
1
 10
169.748770
 20
177.743680
 30
0.0
 10
170.397830
 20
177.094620
 30
0.0
 10
171.244440
 20
176.751490
 30
0.0
 10
172.180410
 20
176.751490
 30
0.0
  0
LWPOLYLINE
  5
262
100
AcDbEntity
  8
Ebene_1
 62
7
100
AcDbPolyline
 90
3
 70
0
 10
169.744770
 20
177.747680
 30
0.0
 10
169.746770
 20
177.745680
 30
0.0
 10
169.748770
 20
177.743680
 30
0.0
  0
SPLINE
  5
263
100
AcDbEntity
  8
Ebene_1
 62
7
100
AcDbSpline
 70
8
 71
3
 72
8
 73
4
 74
0
 40
0
 40
0
 40
0
 40
0
 40
1
 40
1
 40
1
 40
1
 10
183.867910
 20
176.751490
 30
0.0
 10
184.777830
 20
176.751490
 30
0.0
 10
185.610300
 20
177.095230
 30
0.0
 10
186.270250
 20
177.737820
 30
0.0
  0
SPLINE
  5
264
100
AcDbEntity
  8
Ebene_1
 62
7
100
AcDbSpline
 70
8
 71
3
 72
8
 73
4
 74
0
 40
0
 40
0
 40
0
 40
0
 40
1
 40
1
 40
1
 40
1
 10
186.270250
 20
177.737820
 30
0.0
 10
186.935640
 20
178.385700
 30
0.0
 10
187.287830
 20
179.234320
 30
0.0
 10
187.287830
 20
180.173370
 30
0.0
  0
LWPOLYLINE
  5
265
100
AcDbEntity
  8
Ebene_1
 62
7
100
AcDbPolyline
 90
7
 70
0
 10
172.180410
 20
176.751490
 30
0.0
 10
176.063220
 20
176.751490
 30
0.0
 10
176.063220
 20
165.065950
 30
0.0
 10
176.563220
 20
165.065950
 30
0.0
 10
179.985090
 20
165.065950
 30
0.0
 10
179.985090
 20
176.751490
 30
0.0
 10
183.867910
 20
176.751490
 30
0.0
  0
LWPOLYLINE
  5
266
100
AcDbEntity
  8
Ebene_1
 62
7
100
AcDbPolyline
 90
3
 70
0
 10
187.287830
 20
180.173370
 30
0.0
 10
187.287830
 20
180.673370
 30
0.0
 10
168.758440
 20
180.673460
 30
0.0
  0
SPLINE
  5
267
100
AcDbEntity
  8
Ebene_1
 62
7
100
AcDbSpline
 70
8
 71
3
 72
8
 73
4
 74
0
 40
0
 40
0
 40
0
 40
0
 40
1
 40
1
 40
1
 40
1
 10
189.209610
 20
180.173460
 30
0.0
 10
189.209610
 20
179.250560
 30
0.0
 10
189.551820
 20
178.409210
 30
0.0
 10
190.195940
 20
177.747680
 30
0.0
  0
LWPOLYLINE
  5
268
100
AcDbEntity
  8
Ebene_1
 62
7
100
AcDbPolyline
 90
2
 70
0
 10
189.209610
 20
180.673460
 30
0.0
 10
189.209610
 20
180.173460
 30
0.0
  0
SPLINE
  5
269
100
AcDbEntity
  8
Ebene_1
 62
7
100
AcDbSpline
 70
8
 71
3
 72
8
 73
4
 74
0
 40
0
 40
0
 40
0
 40
0
 40
1
 40
1
 40
1
 40
1
 10
190.201940
 20
177.743680
 30
0.0
 10
190.851000
 20
177.094620
 30
0.0
 10
191.695660
 20
176.751490
 30
0.0
 10
192.631620
 20
176.751490
 30
0.0
  0
LWPOLYLINE
  5
26a
100
AcDbEntity
  8
Ebene_1
 62
7
100
AcDbPolyline
 90
3
 70
0
 10
190.195940
 20
177.747680
 30
0.0
 10
190.199940
 20
177.745680
 30
0.0
 10
190.201940
 20
177.743680
 30
0.0
  0
SPLINE
  5
26b
100
AcDbEntity
  8
Ebene_1
 62
7
100
AcDbSpline
 70
8
 71
3
 72
8
 73
4
 74
0
 40
0
 40
0
 40
0
 40
0
 40
1
 40
1
 40
1
 40
1
 10
204.319120
 20
176.751490
 30
0.0
 10
205.229050
 20
176.751490
 30
0.0
 10
206.063470
 20
177.095230
 30
0.0
 10
206.723420
 20
177.737820
 30
0.0
  0
SPLINE
  5
26c
100
AcDbEntity
  8
Ebene_1
 62
7
100
AcDbSpline
 70
8
 71
3
 72
8
 73
4
 74
0
 40
0
 40
0
 40
0
 40
0
 40
1
 40
1
 40
1
 40
1
 10
206.723420
 20
177.737820
 30
0.0
 10
207.388810
 20
178.385700
 30
0.0
 10
207.741000
 20
179.234320
 30
0.0
 10
207.741000
 20
180.173370
 30
0.0
  0
LWPOLYLINE
  5
26d
100
AcDbEntity
  8
Ebene_1
 62
7
100
AcDbPolyline
 90
2
 70
0
 10
192.631620
 20
176.751490
 30
0.0
 10
204.319120
 20
176.751490
 30
0.0
  0
LWPOLYLINE
  5
26e
100
AcDbEntity
  8
Ebene_1
 62
7
100
AcDbPolyline
 90
3
 70
0
 10
207.741000
 20
180.173370
 30
0.0
 10
207.741000
 20
180.673370
 30
0.0
 10
189.209610
 20
180.673460
 30
0.0
  0
SPLINE
  5
26f
100
AcDbEntity
  8
Ebene_1
 62
7
100
AcDbSpline
 70
8
 71
3
 72
8
 73
4
 74
0
 40
0
 40
0
 40
0
 40
0
 40
1
 40
1
 40
1
 40
1
 10
213.084610
 20
168.987910
 30
0.0
 10
212.158560
 20
168.987910
 30
0.0
 10
211.315390
 20
168.632760
 30
0.0
 10
210.654920
 20
167.972290
 30
0.0
  0
SPLINE
  5
270
100
AcDbEntity
  8
Ebene_1
 62
7
100
AcDbSpline
 70
8
 71
3
 72
8
 73
4
 74
0
 40
0
 40
0
 40
0
 40
0
 40
1
 40
1
 40
1
 40
1
 10
210.654920
 20
167.972290
 30
0.0
 10
210.007450
 20
167.324820
 30
0.0
 10
209.662740
 20
166.488940
 30
0.0
 10
209.662740
 20
165.566040
 30
0.0
  0
LWPOLYLINE
  5
271
100
AcDbEntity
  8
Ebene_1
 62
7
100
AcDbPolyline
 90
5
 70
0
 10
209.662740
 20
180.673460
 30
0.0
 10
209.662740
 20
170.909790
 30
0.0
 10
224.272110
 20
170.909790
 30
0.0
 10
224.272110
 20
168.987910
 30
0.0
 10
213.084610
 20
168.987910
 30
0.0
  0
SPLINE
  5
272
100
AcDbEntity
  8
Ebene_1
 62
7
100
AcDbSpline
 70
8
 71
3
 72
8
 73
4
 74
0
 40
0
 40
0
 40
0
 40
0
 40
1
 40
1
 40
1
 40
1
 10
224.772110
 20
176.751580
 30
0.0
 10
225.682030
 20
176.751580
 30
0.0
 10
226.516450
 20
177.095320
 30
0.0
 10
227.176410
 20
177.737910
 30
0.0
  0
SPLINE
  5
273
100
AcDbEntity
  8
Ebene_1
 62
7
100
AcDbSpline
 70
8
 71
3
 72
8
 73
4
 74
0
 40
0
 40
0
 40
0
 40
0
 40
1
 40
1
 40
1
 40
1
 10
227.176410
 20
177.737910
 30
0.0
 10
227.841800
 20
178.385790
 30
0.0
 10
228.193990
 20
179.234410
 30
0.0
 10
228.193990
 20
180.173460
 30
0.0
  0
LWPOLYLINE
  5
274
100
AcDbEntity
  8
Ebene_1
 62
7
100
AcDbPolyline
 90
8
 70
0
 10
209.662740
 20
165.566040
 30
0.0
 10
209.662740
 20
165.066040
 30
0.0
 10
210.162740
 20
165.066040
 30
0.0
 10
228.193990
 20
165.066040
 30
0.0
 10
228.193990
 20
174.829710
 30
0.0
 10
213.584610
 20
174.829710
 30
0.0
 10
213.584610
 20
176.751580
 30
0.0
 10
224.772110
 20
176.751580
 30
0.0
  0
LWPOLYLINE
  5
275
100
AcDbEntity
  8
Ebene_1
 62
7
100
AcDbPolyline
 90
3
 70
0
 10
228.193990
 20
180.173460
 30
0.0
 10
228.193990
 20
180.673460
 30
0.0
 10
209.662740
 20
180.673460
 30
0.0
  0
SPLINE
  5
276
100
AcDbEntity
  8
Ebene_1
 62
7
100
AcDbSpline
 70
8
 71
3
 72
8
 73
4
 74
0
 40
0
 40
0
 40
0
 40
0
 40
1
 40
1
 40
1
 40
1
 10
245.225240
 20
165.066040
 30
0.0
 10
246.135160
 20
165.066040
 30
0.0
 10
246.969580
 20
165.409780
 30
0.0
 10
247.629530
 20
166.052370
 30
0.0
  0
SPLINE
  5
277
100
AcDbEntity
  8
Ebene_1
 62
7
100
AcDbSpline
 70
8
 71
3
 72
8
 73
4
 74
0
 40
0
 40
0
 40
0
 40
0
 40
1
 40
1
 40
1
 40
1
 10
247.629530
 20
166.052370
 30
0.0
 10
248.294920
 20
166.700250
 30
0.0
 10
248.647110
 20
167.548860
 30
0.0
 10
248.647110
 20
168.487910
 30
0.0
  0
LWPOLYLINE
  5
278
100
AcDbEntity
  8
Ebene_1
 62
7
100
AcDbPolyline
 90
4
 70
0
 10
230.115860
 20
180.673460
 30
0.0
 10
230.115860
 20
165.066040
 30
0.0
 10
230.615860
 20
165.066040
 30
0.0
 10
245.225240
 20
165.066040
 30
0.0
  0
LWPOLYLINE
  5
279
100
AcDbEntity
  8
Ebene_1
 62
7
100
AcDbPolyline
 90
5
 70
0
 10
248.647110
 20
168.487910
 30
0.0
 10
248.647110
 20
168.987910
 30
0.0
 10
234.037740
 20
168.987910
 30
0.0
 10
234.037740
 20
180.673460
 30
0.0
 10
230.115860
 20
180.673460
 30
0.0
  0
SPLINE
  5
27a
100
AcDbEntity
  8
Ebene_1
 62
7
100
AcDbSpline
 70
8
 71
3
 72
8
 73
4
 74
0
 40
0
 40
0
 40
0
 40
0
 40
1
 40
1
 40
1
 40
1
 10
250.568990
 20
180.173460
 30
0.0
 10
250.568990
 20
179.250560
 30
0.0
 10
250.911200
 20
178.409210
 30
0.0
 10
251.555310
 20
177.747680
 30
0.0
  0
LWPOLYLINE
  5
27b
100
AcDbEntity
  8
Ebene_1
 62
7
100
AcDbPolyline
 90
2
 70
0
 10
250.568990
 20
180.673460
 30
0.0
 10
250.568990
 20
180.173460
 30
0.0
  0
SPLINE
  5
27c
100
AcDbEntity
  8
Ebene_1
 62
7
100
AcDbSpline
 70
8
 71
3
 72
8
 73
4
 74
0
 40
0
 40
0
 40
0
 40
0
 40
1
 40
1
 40
1
 40
1
 10
251.561310
 20
177.743680
 30
0.0
 10
252.210380
 20
177.094620
 30
0.0
 10
253.055030
 20
176.751490
 30
0.0
 10
253.991000
 20
176.751490
 30
0.0
  0
LWPOLYLINE
  5
27d
100
AcDbEntity
  8
Ebene_1
 62
7
100
AcDbPolyline
 90
3
 70
0
 10
251.555310
 20
177.747680
 30
0.0
 10
251.557310
 20
177.745680
 30
0.0
 10
251.561310
 20
177.743680
 30
0.0
  0
SPLINE
  5
27e
100
AcDbEntity
  8
Ebene_1
 62
7
100
AcDbSpline
 70
8
 71
3
 72
8
 73
4
 74
0
 40
0
 40
0
 40
0
 40
0
 40
1
 40
1
 40
1
 40
1
 10
265.678510
 20
176.751490
 30
0.0
 10
266.588420
 20
176.751490
 30
0.0
 10
267.422850
 20
177.095230
 30
0.0
 10
268.082800
 20
177.737820
 30
0.0
  0
SPLINE
  5
27f
100
AcDbEntity
  8
Ebene_1
 62
7
100
AcDbSpline
 70
8
 71
3
 72
8
 73
4
 74
0
 40
0
 40
0
 40
0
 40
0
 40
1
 40
1
 40
1
 40
1
 10
268.082800
 20
177.737820
 30
0.0
 10
268.748190
 20
178.385700
 30
0.0
 10
269.100390
 20
179.234320
 30
0.0
 10
269.100390
 20
180.173370
 30
0.0
  0
LWPOLYLINE
  5
280
100
AcDbEntity
  8
Ebene_1
 62
7
100
AcDbPolyline
 90
2
 70
0
 10
253.991000
 20
176.751490
 30
0.0
 10
265.678510
 20
176.751490
 30
0.0
  0
LWPOLYLINE
  5
281
100
AcDbEntity
  8
Ebene_1
 62
7
100
AcDbPolyline
 90
3
 70
0
 10
269.100390
 20
180.173370
 30
0.0
 10
269.100390
 20
180.673370
 30
0.0
 10
250.568990
 20
180.673460
 30
0.0
  0
SPLINE
  5
282
100
AcDbEntity
  8
Ebene_1
 62
7
100
AcDbSpline
 70
8
 71
3
 72
8
 73
4
 74
0
 40
0
 40
0
 40
0
 40
0
 40
1
 40
1
 40
1
 40
1
 10
189.209610
 20
174.329710
 30
0.0
 10
189.209610
 20
173.406810
 30
0.0
 10
189.551820
 20
172.565460
 30
0.0
 10
190.195940
 20
171.903930
 30
0.0
  0
LWPOLYLINE
  5
283
100
AcDbEntity
  8
Ebene_1
 62
7
100
AcDbPolyline
 90
2
 70
0
 10
189.209610
 20
174.829710
 30
0.0
 10
189.209610
 20
174.329710
 30
0.0
  0
SPLINE
  5
284
100
AcDbEntity
  8
Ebene_1
 62
7
100
AcDbSpline
 70
8
 71
3
 72
8
 73
4
 74
0
 40
0
 40
0
 40
0
 40
0
 40
1
 40
1
 40
1
 40
1
 10
190.201940
 20
171.899930
 30
0.0
 10
190.851000
 20
171.250870
 30
0.0
 10
191.695660
 20
170.909700
 30
0.0
 10
192.631620
 20
170.909700
 30
0.0
  0
LWPOLYLINE
  5
285
100
AcDbEntity
  8
Ebene_1
 62
7
100
AcDbPolyline
 90
3
 70
0
 10
190.195940
 20
171.903930
 30
0.0
 10
190.199940
 20
171.901930
 30
0.0
 10
190.201940
 20
171.899930
 30
0.0
  0
SPLINE
  5
286
100
AcDbEntity
  8
Ebene_1
 62
7
100
AcDbSpline
 70
8
 71
3
 72
8
 73
4
 74
0
 40
0
 40
0
 40
0
 40
0
 40
1
 40
1
 40
1
 40
1
 10
204.319120
 20
170.909700
 30
0.0
 10
205.229050
 20
170.909700
 30
0.0
 10
206.063470
 20
171.253440
 30
0.0
 10
206.723420
 20
171.896030
 30
0.0
  0
SPLINE
  5
287
100
AcDbEntity
  8
Ebene_1
 62
7
100
AcDbSpline
 70
8
 71
3
 72
8
 73
4
 74
0
 40
0
 40
0
 40
0
 40
0
 40
1
 40
1
 40
1
 40
1
 10
206.723420
 20
171.896030
 30
0.0
 10
207.388810
 20
172.543910
 30
0.0
 10
207.741000
 20
173.390570
 30
0.0
 10
207.741000
 20
174.329620
 30
0.0
  0
LWPOLYLINE
  5
288
100
AcDbEntity
  8
Ebene_1
 62
7
100
AcDbPolyline
 90
2
 70
0
 10
192.631620
 20
170.909700
 30
0.0
 10
204.319120
 20
170.909700
 30
0.0
  0
LWPOLYLINE
  5
289
100
AcDbEntity
  8
Ebene_1
 62
7
100
AcDbPolyline
 90
3
 70
0
 10
207.741000
 20
174.329620
 30
0.0
 10
207.741000
 20
174.829620
 30
0.0
 10
189.209610
 20
174.829710
 30
0.0
  0
LWPOLYLINE
  5
28a
100
AcDbEntity
  8
Ebene_1
 62
7
100
AcDbPolyline
 90
9
 70
1
 10
250.568990
 20
174.829710
 30
0.0
 10
250.568990
 20
165.066040
 30
0.0
 10
251.068990
 20
165.066040
 30
0.0
 10
254.490860
 20
165.066040
 30
0.0
 10
254.490860
 20
170.909790
 30
0.0
 10
265.178360
 20
170.909790
 30
0.0
 10
265.178360
 20
165.066040
 30
0.0
 10
269.100240
 20
165.066040
 30
0.0
 10
269.100240
 20
174.829710
 30
0.0
  0
SPLINE
  5
28b
100
AcDbEntity
  8
Ebene_1
 62
7
100
AcDbSpline
 70
8
 71
3
 72
8
 73
4
 74
0
 40
0
 40
0
 40
0
 40
0
 40
1
 40
1
 40
1
 40
1
 10
189.209610
 20
168.487910
 30
0.0
 10
189.209610
 20
167.565010
 30
0.0
 10
189.551820
 20
166.721710
 30
0.0
 10
190.195940
 20
166.060180
 30
0.0
  0
LWPOLYLINE
  5
28c
100
AcDbEntity
  8
Ebene_1
 62
7
100
AcDbPolyline
 90
2
 70
0
 10
189.209610
 20
168.987910
 30
0.0
 10
189.209610
 20
168.487910
 30
0.0
  0
SPLINE
  5
28d
100
AcDbEntity
  8
Ebene_1
 62
7
100
AcDbSpline
 70
8
 71
3
 72
8
 73
4
 74
0
 40
0
 40
0
 40
0
 40
0
 40
1
 40
1
 40
1
 40
1
 10
190.201940
 20
166.056180
 30
0.0
 10
190.851000
 20
165.407120
 30
0.0
 10
191.695660
 20
165.065950
 30
0.0
 10
192.631620
 20
165.065950
 30
0.0
  0
LWPOLYLINE
  5
28e
100
AcDbEntity
  8
Ebene_1
 62
7
100
AcDbPolyline
 90
3
 70
0
 10
190.195940
 20
166.060180
 30
0.0
 10
190.199940
 20
166.058180
 30
0.0
 10
190.201940
 20
166.056180
 30
0.0
  0
SPLINE
  5
28f
100
AcDbEntity
  8
Ebene_1
 62
7
100
AcDbSpline
 70
8
 71
3
 72
8
 73
4
 74
0
 40
0
 40
0
 40
0
 40
0
 40
1
 40
1
 40
1
 40
1
 10
204.319120
 20
165.065950
 30
0.0
 10
205.229050
 20
165.065950
 30
0.0
 10
206.063470
 20
165.409690
 30
0.0
 10
206.723420
 20
166.052280
 30
0.0
  0
SPLINE
  5
290
100
AcDbEntity
  8
Ebene_1
 62
7
100
AcDbSpline
 70
8
 71
3
 72
8
 73
4
 74
0
 40
0
 40
0
 40
0
 40
0
 40
1
 40
1
 40
1
 40
1
 10
206.723420
 20
166.052280
 30
0.0
 10
207.388810
 20
166.700160
 30
0.0
 10
207.741000
 20
167.548770
 30
0.0
 10
207.741000
 20
168.487820
 30
0.0
  0
LWPOLYLINE
  5
291
100
AcDbEntity
  8
Ebene_1
 62
7
100
AcDbPolyline
 90
2
 70
0
 10
192.631620
 20
165.065950
 30
0.0
 10
204.319120
 20
165.065950
 30
0.0
  0
LWPOLYLINE
  5
292
100
AcDbEntity
  8
Ebene_1
 62
7
100
AcDbPolyline
 90
3
 70
0
 10
207.741000
 20
168.487820
 30
0.0
 10
207.741000
 20
168.987820
 30
0.0
 10
189.209610
 20
168.987910
 30
0.0
  0
ENDSEC
  0
SECTION
  2
OBJECTS
  0
DICTIONARY
  5
C
330
0
100
AcDbDictionary
  3
ACAD_GROUP
350
D
  3
ACAD_MLINESTYLE
350
17
  0
DICTIONARY
  5
D
330
C
100
AcDbDictionary
  0
DICTIONARY
  5
1A
330
C
100
AcDbDictionary
  0
DICTIONARY
  5
17
330
C
100
AcDbDictionary
  3
STANDARD
350
18
  0
DICTIONARY
  5
19
330
C
100
AcDbDictionary
  0
ENDSEC
  0
EOF
