<?xml version="1.0" encoding="UTF-8" standalone="no"?>
<!-- Created with Inkscape (http://www.inkscape.org/) -->

<svg
   xmlns:dc="http://purl.org/dc/elements/1.1/"
   xmlns:cc="http://creativecommons.org/ns#"
   xmlns:rdf="http://www.w3.org/1999/02/22-rdf-syntax-ns#"
   xmlns:svg="http://www.w3.org/2000/svg"
   xmlns="http://www.w3.org/2000/svg"
   xmlns:sodipodi="http://sodipodi.sourceforge.net/DTD/sodipodi-0.dtd"
   xmlns:inkscape="http://www.inkscape.org/namespaces/inkscape"
   width="210mm"
   height="297mm"
   viewBox="0 0 210 297"
   version="1.1"
   id="svg8"
   inkscape:version="0.92.4 (5da689c313, 2019-01-14)"
   sodipodi:docname="TeslaParkingV3Gotham.svg">
  <defs
     id="defs2" />
  <sodipodi:namedview
     id="base"
     pagecolor="#ffffff"
     bordercolor="#666666"
     borderopacity="1.0"
     inkscape:pageopacity="0.0"
     inkscape:pageshadow="2"
     inkscape:zoom="0.7"
     inkscape:cx="-515.28303"
     inkscape:cy="466.47044"
     inkscape:document-units="mm"
     inkscape:current-layer="layer1"
     showgrid="true"
     inkscape:window-width="1920"
     inkscape:window-height="1137"
     inkscape:window-x="-8"
     inkscape:window-y="-8"
     inkscape:window-maximized="1">
    <inkscape:grid
       type="xygrid"
       id="grid21485"
       empspacing="5" />
  </sodipodi:namedview>
  <metadata
     id="metadata5">
    <rdf:RDF>
      <cc:Work
         rdf:about="">
        <dc:format>image/svg+xml</dc:format>
        <dc:type
           rdf:resource="http://purl.org/dc/dcmitype/StillImage" />
        <dc:title />
      </cc:Work>
    </rdf:RDF>
  </metadata>
  <g
     inkscape:label="Ebene 1"
     inkscape:groupmode="layer"
     id="layer1">
    <g
       aria-label="PARKING ONLY"
       style="font-style:normal;font-variant:normal;font-weight:bold;font-stretch:normal;font-size:34.67768478px;line-height:1;font-family:'Sitka Small';-inkscape-font-specification:'Sitka Small Bold';text-align:center;letter-spacing:0px;word-spacing:0px;text-anchor:middle;fill:#000000;fill-opacity:1;stroke:none;stroke-width:0.26458329"
       id="text861"
       transform="translate(3.19821,-4.09853)">
      <g
         aria-label="PARKING ONLY"
         style="font-style:normal;font-variant:normal;font-weight:bold;font-stretch:normal;font-size:32.79470062px;line-height:1;font-family:Gotham;-inkscape-font-specification:'Gotham Bold';letter-spacing:0px;word-spacing:0px;fill:#000000;fill-opacity:1;stroke:none;stroke-width:0.07000434"
         id="text835">
        <path
           d="m -189.26011,216.28899 v -0.0656 q 0,-1.77091 -0.6231,-3.21388 -0.59031,-1.47576 -1.73812,-2.52519 -1.11502,-1.04943 -2.75476,-1.60694 -1.60694,-0.5903 -3.673,-0.5903 h -9.37929 v 22.95629 h 5.05039 v -6.88689 h 3.83698 q 1.93488,0 3.60741,-0.49192 1.70533,-0.52472 2.95153,-1.54135 1.27899,-1.01664 2.00047,-2.52519 0.72149,-1.50856 0.72149,-3.50904 z m -5.11598,0.0984 q 0,1.47576 -1.04943,2.4924 -1.04943,0.98384 -2.95152,0.98384 h -4.00095 v -7.01807 h 3.90257 q 1.90209,0 2.98431,0.88546 1.11502,0.88545 1.11502,2.59078 z"
           style="font-style:normal;font-variant:normal;font-weight:bold;font-stretch:normal;line-height:1;font-family:Gotham;-inkscape-font-specification:'Gotham Bold';stroke-width:0.07000434"
           id="path839" />
        <path
           d="m -163.15655,231.24338 -9.83841,-23.12027 h -4.65685 l -9.83841,23.12027 h 5.14877 l 2.09886,-5.14877 h 9.70723 l 2.09886,5.14877 z m -9.18252,-9.60885 h -6.09981 l 3.0499,-7.4444 z"
           style="font-style:normal;font-variant:normal;font-weight:bold;font-stretch:normal;line-height:1;font-family:Gotham;-inkscape-font-specification:'Gotham Bold';stroke-width:0.07000434"
           id="path841" />
        <path
           d="m -139.80468,231.24338 -5.60789,-8.19868 q 2.19724,-0.81986 3.54183,-2.55798 1.37737,-1.77092 1.37737,-4.55847 v -0.0656 q 0,-3.57462 -2.29562,-5.5751 -2.26284,-2.00047 -6.36218,-2.00047 h -10.4943 v 22.95629 h 5.05038 v -7.34602 h 3.96816 l 4.91921,7.34602 z m -5.80466,-15.05277 q 0,1.47576 -1.01663,2.36122 -0.98385,0.88546 -2.85314,0.88546 h -5.11598 v -6.59174 h 5.01759 q 1.8693,0 2.91873,0.81987 1.04943,0.81987 1.04943,2.4596 z"
           style="font-style:normal;font-variant:normal;font-weight:bold;font-stretch:normal;line-height:1;font-family:Gotham;-inkscape-font-specification:'Gotham Bold';stroke-width:0.07000434"
           id="path843" />
        <path
           d="m -115.05595,231.24338 -9.77282,-13.21627 9.34649,-9.74002 h -6.09982 l -9.31369,10.03518 v -10.03518 h -5.05039 v 22.95629 h 5.05039 v -7.01807 l 2.65637,-2.75475 7.11645,9.77282 z"
           style="font-style:normal;font-variant:normal;font-weight:bold;font-stretch:normal;line-height:1;font-family:Gotham;-inkscape-font-specification:'Gotham Bold';stroke-width:0.07000434"
           id="path845" />
        <path
           d="m -106.71073,231.24338 v -22.95629 h -5.05039 v 22.95629 z"
           style="font-style:normal;font-variant:normal;font-weight:bold;font-stretch:normal;line-height:1;font-family:Gotham;-inkscape-font-specification:'Gotham Bold';stroke-width:0.07000434"
           id="path847" />
        <path
           d="m -80.575399,231.24338 v -22.95629 h -4.984794 v 14.13451 l -10.756662,-14.13451 h -4.656845 v 22.95629 h 4.984792 v -14.59364 l 11.117403,14.59364 z"
           style="font-style:normal;font-variant:normal;font-weight:bold;font-stretch:normal;line-height:1;font-family:Gotham;-inkscape-font-specification:'Gotham Bold';stroke-width:0.07000434"
           id="path849" />
        <path
           d="m -54.239206,227.9967 v -9.96959 h -9.969588 v 4.3617 h 5.083178 v 3.27947 q -1.934887,1.37738 -4.755231,1.37738 -1.541351,0 -2.820345,-0.52472 -1.246198,-0.55751 -2.197245,-1.54135 -0.918251,-0.98384 -1.442967,-2.29563 -0.49192,-1.34458 -0.49192,-2.91873 v -0.0656 q 0,-1.47576 0.49192,-2.75475 0.524716,-1.31179 1.410173,-2.26284 0.918251,-0.98384 2.09886,-1.54135 1.213404,-0.5903 2.590782,-0.5903 0.983841,0 1.803708,0.16397 0.819868,0.16398 1.508557,0.45913 0.721483,0.29515 1.377377,0.72148 0.655894,0.42633 1.311788,0.98384 l 3.181086,-3.83698 q -0.885457,-0.75428 -1.836503,-1.34458 -0.951047,-0.59031 -2.033272,-0.98384 -1.082225,-0.39354 -2.361218,-0.59031 -1.246199,-0.22956 -2.78755,-0.22956 -2.623576,0 -4.820821,0.95105 -2.197245,0.91825 -3.804185,2.55798 -1.60694,1.60694 -2.525192,3.77139 -0.885457,2.13166 -0.885457,4.59126 v 0.0656 q 0,2.55799 0.885457,4.72244 0.885457,2.16445 2.459603,3.73859 1.60694,1.57415 3.804185,2.45961 2.23004,0.88545 4.919205,0.88545 3.148291,0 5.575099,-1.04943 2.459603,-1.08222 4.230516,-2.59078 z"
           style="font-style:normal;font-variant:normal;font-weight:bold;font-stretch:normal;line-height:1;font-family:Gotham;-inkscape-font-specification:'Gotham Bold';stroke-width:0.07000434"
           id="path851" />
        <path
           d="m -153.81314,252.55993 v -0.0656 q 0,-2.4596 -0.91825,-4.59125 -0.88546,-2.16445 -2.52519,-3.7386 -1.60694,-1.60694 -3.83698,-2.52519 -2.23004,-0.95105 -4.88641,-0.95105 -2.65637,0 -4.91921,0.95105 -2.23004,0.91825 -3.86977,2.55798 -1.60694,1.60694 -2.5252,3.7714 -0.91825,2.13165 -0.91825,4.59125 v 0.0656 q 0,2.45961 0.88546,4.62406 0.91825,2.13165 2.52519,3.73859 1.63974,1.57415 3.86978,2.52519 2.23004,0.91825 4.88641,0.91825 2.65637,0 4.88641,-0.91825 2.26283,-0.95104 3.86977,-2.55798 1.63974,-1.63974 2.55799,-3.77139 0.91825,-2.16445 0.91825,-4.62406 z m -5.27995,0.0656 q 0,1.47576 -0.52471,2.78755 -0.49192,1.279 -1.41017,2.26284 -0.88546,0.98384 -2.16445,1.54135 -1.279,0.55751 -2.78755,0.55751 -1.54136,0 -2.82035,-0.55751 -1.2462,-0.59031 -2.19724,-1.57415 -0.91825,-0.98384 -1.44297,-2.29563 -0.49192,-1.31179 -0.49192,-2.78755 v -0.0656 q 0,-1.47576 0.49192,-2.75475 0.52472,-1.31179 1.41017,-2.29563 0.91825,-0.98384 2.16445,-1.54135 1.279,-0.55751 2.82035,-0.55751 1.50855,0 2.78755,0.5903 1.27899,0.55751 2.19724,1.54135 0.95105,0.98385 1.44297,2.29563 0.52471,1.31179 0.52471,2.78755 z"
           style="font-style:normal;font-variant:normal;font-weight:bold;font-stretch:normal;line-height:1;font-family:Gotham;-inkscape-font-specification:'Gotham Bold';stroke-width:0.07000434"
           id="path853" />
        <path
           d="m -128.93477,264.03808 v -22.95629 h -4.9848 v 14.13451 l -10.75666,-14.13451 h -4.65685 v 22.95629 h 4.9848 v -14.59364 l 11.1174,14.59364 z"
           style="font-style:normal;font-variant:normal;font-weight:bold;font-stretch:normal;line-height:1;font-family:Gotham;-inkscape-font-specification:'Gotham Bold';stroke-width:0.07000434"
           id="path855" />
        <path
           d="m -106.96027,264.03808 v -4.59126 h -11.44535 v -18.36503 h -5.05039 v 22.95629 z"
           style="font-style:normal;font-variant:normal;font-weight:bold;font-stretch:normal;line-height:1;font-family:Gotham;-inkscape-font-specification:'Gotham Bold';stroke-width:0.07000434"
           id="path857" />
        <path
           d="m -82.818766,241.08179 h -5.739073 l -5.575099,9.21531 -5.476715,-9.21531 h -5.903047 l 8.821775,13.90495 v 9.05134 h 5.050384 v -9.14972 z"
           style="font-style:normal;font-variant:normal;font-weight:bold;font-stretch:normal;line-height:1;font-family:Gotham;-inkscape-font-specification:'Gotham Bold';stroke-width:0.07000434"
           id="path859" />
      </g>
    </g>
    <path
       id="path21491-8"
       style="fill:#000000;stroke-width:0.26458338"
       d="m -72.57545,44.717587 c -1.00768,-0.6786 -2.26304,-2.26608 -2.26304,-2.86172 0,-0.21402 2.08079,-0.26426 10.94158,-0.26426 7.43876,0 10.94156,0.0675 10.94156,0.21068 0,0.41585 -0.78445,1.72452 -1.34915,2.25076 -0.31667,0.29512 -0.89489,0.72788 -1.28493,0.9617 -0.68655,0.41161 -0.9517,0.42516 -8.31018,0.42591 h -7.60104 l -1.0748,-0.72382 z m -94.66086,0.013 c -1.30532,-0.87842 -2.40201,-2.18515 -2.42186,-2.88572 -0.005,-0.19959 2.3151,-0.25328 10.94803,-0.25328 h 10.95522 l -0.13524,0.45588 c -0.25894,0.87291 -1.20379,2.02946 -2.21354,2.70946 l -1.01637,0.68447 h -7.53001 -7.53 z m 0.71158,8.4727 c -1.10366,-0.59326 -1.90389,-1.30394 -2.52637,-2.24372 -1.19908,-1.81024 -2.07734,-1.66836 10.3273,-1.66836 7.5044,0 10.94156,0.0666 10.94156,0.21269 0,0.80811 -1.43706,2.7189 -2.599,3.45581 l -0.9249,0.58654 -7.30536,-0.008 c -6.32351,-0.008 -7.38706,-0.0521 -7.91323,-0.33485 z m 92.2941,2.36734 v -6.28314 l 10.38438,0.0525 10.38433,0.0525 0.0537,6.23061 0.0537,6.2306 h -1.82652 -1.82654 v -4.15374 -4.15373 h -6.7878 -6.78783 v 4.15373 4.15374 h -1.82359 -1.82358 z m -31.00109,-3.94927 v -10.2324 h 1.8236 1.82359 v 8.2062 8.20615 h 8.19203 8.19204 l -0.18412,0.64196 c -0.29162,1.01674 -1.11674,2.1139 -2.09704,2.78837 l -0.90421,0.62212 h -8.42294 -8.42295 z m -61.29301,9.83079 c -1.2074,-0.5978 -2.29185,-1.56567 -2.74126,-2.44663 -0.21965,-0.43054 -0.39936,-0.87765 -0.39936,-0.99351 0,-0.14319 3.5028,-0.2107 10.94155,-0.2107 8.86076,0 10.94156,0.0501 10.94156,0.26426 0,0.46737 -1.15194,2.09824 -1.85294,2.62327 -1.59012,1.19103 -1.38781,1.16492 -9.0279,1.16475 -6.61984,-1.5e-4 -7.10075,-0.0247 -7.86165,-0.40144 z m 29.68406,0.39939 c 0,-0.51512 0.91941,-2.07764 1.5465,-2.62824 1.62881,-1.43013 1.57792,-1.42199 8.88043,-1.42199 h 6.59327 v -2.12751 -2.12755 h -8.51012 -8.51008 v -6.07862 -6.07866 h 10.33369 c 5.68355,0 10.33372,0.0345 10.33372,0.0765 0,0.0422 -0.13346,0.39582 -0.29644,0.78601 -0.38103,0.91193 -1.202,1.8828 -2.20882,2.61216 l -0.79752,0.57769 h -6.85873 -6.85871 v 2.02621 2.02621 h 8.6114 8.61142 v 6.28131 6.28125 h -10.435 c -6.89658,0 -10.43501,-0.0694 -10.43501,-0.20482 z m -56.17456,-8.05199 -0.0529,-8.25685 -3.34327,-0.10135 -3.34325,-0.10135 -0.93535,-0.6734 c -0.51445,-0.37038 -1.11578,-0.91745 -1.3363,-1.21573 -0.41597,-0.56265 -1.07159,-1.75607 -1.07159,-1.9506 0,-0.0613 5.42517,-0.11141 12.05597,-0.11141 8.21016,0 12.05597,0.0671 12.05597,0.2107 0,0.46831 -0.82205,1.75677 -1.55315,2.43433 -1.45095,1.34472 -1.28628,1.29849 -5.01171,1.40741 l -3.46489,0.10135 -0.053,8.25685 -0.0529,8.25682 h -1.92036 -1.92037 z"
       inkscape:connector-curvature="0"
       inkscape:export-xdpi="119"
       inkscape:export-ydpi="119" />
    <path
       inkscape:connector-curvature="0"
       style="opacity:1;fill:none;fill-opacity:1;stroke:#000000;stroke-width:0.40000001;stroke-linejoin:round;stroke-miterlimit:4;stroke-dasharray:none;stroke-opacity:1;paint-order:markers fill stroke"
       d="M -237.82662,-1.777903 H -18.22661 V 297.82208 h -219.60001 z"
       id="rect867-7"
       inkscape:export-xdpi="119"
       inkscape:export-ydpi="119" />
    <path
       style="color:#000000;font-style:normal;font-variant:normal;font-weight:normal;font-stretch:normal;font-size:medium;line-height:normal;font-family:sans-serif;font-variant-ligatures:normal;font-variant-position:normal;font-variant-caps:normal;font-variant-numeric:normal;font-variant-alternates:normal;font-feature-settings:normal;text-indent:0;text-align:start;text-decoration:none;text-decoration-line:none;text-decoration-style:solid;text-decoration-color:#000000;letter-spacing:normal;word-spacing:normal;text-transform:none;writing-mode:lr-tb;direction:ltr;text-orientation:mixed;dominant-baseline:auto;baseline-shift:baseline;text-anchor:start;white-space:normal;shape-padding:0;clip-rule:nonzero;display:inline;overflow:visible;visibility:visible;opacity:1;isolation:auto;mix-blend-mode:normal;color-interpolation:sRGB;color-interpolation-filters:linearRGB;solid-color:#000000;solid-opacity:1;vector-effect:none;fill:#000000;fill-opacity:1;fill-rule:nonzero;stroke:none;stroke-width:7;stroke-linecap:butt;stroke-linejoin:round;stroke-miterlimit:4;stroke-dasharray:none;stroke-dashoffset:0;stroke-opacity:1;paint-order:markers fill stroke;color-rendering:auto;image-rendering:auto;shape-rendering:auto;text-rendering:auto;enable-background:accumulate"
       d="m -191.06587,8.2220967 c -19.29457,0 -34.93522,15.6195403 -34.93522,34.8880603 V 252.95607 c 0,19.26853 15.64065,34.88807 34.93522,34.88807 h 126.0785 c 19.29457,0 34.93522,-15.61954 34.93522,-34.88807 V 43.110157 c 0,-19.26852 -15.64065,-34.8880603 -34.93522,-34.8880603 z m 0,6.8200503 h 126.0785 c 15.62928,0 28.10595,12.45984 28.10595,28.06801 V 252.95607 c 0,15.60818 -12.47667,28.06801 -28.10595,28.06801 h -126.0785 c -15.62929,0 -28.10595,-12.45983 -28.10595,-28.06801 V 43.110157 c 0,-15.60817 12.47666,-28.06801 28.10595,-28.06801 z"
       id="rect875-8"
       inkscape:connector-curvature="0"
       inkscape:export-xdpi="119"
       inkscape:export-ydpi="119" />
    <path
       inkscape:connector-curvature="0"
       style="opacity:1;fill:none;fill-opacity:1;stroke:#000000;stroke-width:0.2;stroke-linejoin:round;stroke-miterlimit:4;stroke-dasharray:none;stroke-opacity:1;paint-order:markers fill stroke"
       d="m -202.9403,266.01377 a 2.5,2.5 0 0 1 -2.5,2.49999 2.5,2.5 0 0 1 -2.5,-2.49999 2.5,2.5 0 0 1 2.5,-2.5 2.5,2.5 0 0 1 2.5,2.5 z"
       id="path879-6"
       inkscape:export-xdpi="119"
       inkscape:export-ydpi="119" />
    <path
       inkscape:connector-curvature="0"
       style="opacity:1;fill:none;fill-opacity:1;stroke:#000000;stroke-width:0.2;stroke-linejoin:round;stroke-miterlimit:4;stroke-dasharray:none;stroke-opacity:1;paint-order:markers fill stroke"
       d="m -48.02662,265.72209 a 2.5,2.5 0 0 1 -2.5,2.50002 2.5,2.5 0 0 1 -2.5,-2.50002 2.5,2.5 0 0 1 2.5,-2.49999 2.5,2.5 0 0 1 2.5,2.49999 z"
       id="path881-2"
       inkscape:export-xdpi="119"
       inkscape:export-ydpi="119" />
    <path
       inkscape:connector-curvature="0"
       style="opacity:1;fill:none;fill-opacity:1;stroke:#000000;stroke-width:0.2;stroke-linejoin:round;stroke-miterlimit:4;stroke-dasharray:none;stroke-opacity:1;paint-order:markers fill stroke"
       d="m -47.64864,30.635797 a 2.5,2.5 0 0 1 -2.5,2.49999 2.5,2.5 0 0 1 -2.5,-2.49999 2.5,2.5 0 0 1 2.5,-2.50001 2.5,2.5 0 0 1 2.5,2.50001 z"
       id="path883-1"
       inkscape:export-xdpi="119"
       inkscape:export-ydpi="119" />
    <path
       inkscape:connector-curvature="0"
       style="opacity:1;fill:none;fill-opacity:1;stroke:#000000;stroke-width:0.2;stroke-linejoin:round;stroke-miterlimit:4;stroke-dasharray:none;stroke-opacity:1;paint-order:markers fill stroke"
       d="m -202.64864,30.635797 a 2.5,2.5 0 0 1 -2.5,2.49999 2.5,2.5 0 0 1 -2.5,-2.49999 2.5,2.5 0 0 1 2.5,-2.50001 2.5,2.5 0 0 1 2.5,2.50001 z"
       id="path885-2"
       inkscape:export-xdpi="119"
       inkscape:export-ydpi="119" />
    <path
       style="fill:#000000;stroke-width:1"
       d="m -127.59052,194.72813 c -0.19401,-1.0232 -16.88815,-94.2258 -16.88815,-94.28575 0,-0.0852 -4.93073,0.0395 -7.40916,0.18734 -7.37566,0.43985 -11.16917,1.73146 -13.00267,4.42713 -0.676,0.99388 -0.95822,1.70254 -1.25325,3.14668 -0.11987,0.58677 -0.23981,1.08872 -0.26652,1.11543 -0.0898,0.0898 -3.15496,-1.36663 -4.69071,-2.22883 -4.59345,-2.57885 -8.19967,-5.56473 -10.6529,-8.820415 -0.36042,-0.478302 -0.6553,-0.908797 -0.6553,-0.956648 0,-0.04787 0.18662,-0.164232 0.41469,-0.25862 0.22808,-0.09439 1.21091,-0.517998 2.18405,-0.941359 11.14978,-4.850637 25.64281,-8.241138 38.64931,-9.041618 L -140,87 l 6.23245,7.594469 c 3.42784,4.176951 6.27037,7.552611 6.31671,7.501471 0.0464,-0.0511 2.82847,-3.437126 6.18245,-7.524385 3.35401,-4.087262 6.14943,-7.463054 6.21203,-7.501755 0.13062,-0.08072 2.92001,0.09919 5.35654,0.345477 10.275204,1.038649 20.595061,3.416332 29.968409,6.9047 2.21216,0.823277 5.77053,2.292681 6.69857,2.766127 l 0.43355,0.221185 -0.55926,0.768907 c -2.17338,2.988144 -5.58059,5.924634 -9.80008,8.446204 -1.16044,0.69349 -5.001903,2.62157 -5.52568,2.77343 -0.216141,0.0627 -0.245123,0.0156 -0.317032,-0.51559 -0.04353,-0.3215 -0.200736,-1.0062 -0.349347,-1.52155 -1.170276,-4.05828 -4.628039,-5.86033 -12.53175,-6.53105 -1.72095,-0.14604 -8.87827,-0.33346 -8.9682,-0.23483 -0.046,0.0504 -13.8629,77.55912 -16.77889,94.12474 l -0.0876,0.49763 z M -72.598701,93.13174 c -13.20753,-5.570205 -28.212849,-9.11472 -43.183269,-10.20062 -4.80968,-0.348874 -14.80175,-0.463123 -19.6402,-0.224563 -16.76746,0.826726 -32.19384,4.243832 -47.01948,10.415305 -1.02143,0.425185 -1.92073,0.748659 -1.99845,0.718838 -0.0777,-0.02987 -0.71721,-1.216186 -1.42107,-2.636364 -1.31689,-2.657083 -1.93059,-4.037374 -1.83678,-4.131182 0.096,-0.09594 3.96243,-1.556647 6.22874,-2.35313 21.24584,-7.466757 43.93583,-10.560988 65.41078,-8.920055 16.061967,1.227321 31.199599,4.615419 46.608709,10.431942 1.14725,0.433056 2.10562,0.807089 2.12972,0.831186 0.12595,0.125956 -2.95512,6.557884 -3.26731,6.820698 -0.0419,0.03526 -0.94701,-0.303158 -2.01139,-0.752055 z"
       id="path2190"
       inkscape:connector-curvature="0"
       sodipodi:nodetypes="csscccccscsscscssssccsscccsccccsssccscsssccs" />
  </g>
</svg>
