  0
SECTION
  2
HEADER
  9
$ACADVER
  1
AC1014
  9
$HANDSEED
  5
FFFF
  9
$MEASUREMENT
 70
     1
  0
ENDSEC
  0
SECTION
  2
TABLES
  0
TABLE
  2
VPORT
  5
8
330
0
100
AcDbSymbolTable
 70
     4
  0
VPORT
  5
2E
330
8
100
AcDbSymbolTableRecord
100
AcDbViewportTableRecord
  2
*ACTIVE
 70
     0
 10
0.0
 20
0.0
 11
1.0
 21
1.0
 12
210.0
 22
148.5
 13
0.0
 23
0.0
 14
10.0
 24
10.0
 15
10.0
 25
10.0
 16
0.0
 26
0.0
 36
1.0
 17
0.0
 27
0.0
 37
0.0
 40
341.0
 41
1.24
 42
50.0
 43
0.0
 44
0.0
 50
0.0
 51
0.0
 71
     0
 72
   100
 73
     1
 74
     3
 75
     0
 76
     0
 77
     0
 78
     0
  0
ENDTAB
  0
TABLE
  2
LTYPE
  5
5
330
0
100
AcDbSymbolTable
 70
     1
  0
LTYPE
  5
14
330
5
100
AcDbSymbolTableRecord
100
AcDbLinetypeTableRecord
  2
BYBLOCK
 70
     0
  3

 72
    65
 73
     0
 40
0.0
  0
LTYPE
  5
15
330
5
100
AcDbSymbolTableRecord
100
AcDbLinetypeTableRecord
  2
BYLAYER
 70
     0
  3

 72
    65
 73
     0
 40
0.0
  0
LTYPE
  5
16
330
5
100
AcDbSymbolTableRecord
100
AcDbLinetypeTableRecord
  2
CONTINUOUS
 70
     0
  3
Solid line
 72
    65
 73
     0
 40
0.0
  0
ENDTAB
  0
TABLE
  2
LAYER
  5
2
100
AcDbSymbolTable
 70
2
  0
LAYER
  5
50
100
AcDbSymbolTableRecord
100
AcDbLayerTableRecord
  2
0
 70
0
  6
CONTINUOUS
  0
LAYER
  5
51
100
AcDbSymbolTableRecord
100
AcDbLayerTableRecord
  2
Ebene_1
 70
0
  6
CONTINUOUS
  0
ENDTAB
  0
TABLE
  2
STYLE
  5
3
330
0
100
AcDbSymbolTable
 70
     1
  0
STYLE
  5
11
330
3
100
AcDbSymbolTableRecord
100
AcDbTextStyleTableRecord
  2
STANDARD
 70
     0
 40
0.0
 41
1.0
 50
0.0
 71
     0
 42
2.5
  3
txt
  4

  0
ENDTAB
  0
TABLE
  2
VIEW
  5
6
330
0
100
AcDbSymbolTable
 70
     0
  0
ENDTAB
  0
TABLE
  2
UCS
  5
7
330
0
100
AcDbSymbolTable
 70
     0
  0
ENDTAB
  0
TABLE
  2
APPID
  5
9
330
0
100
AcDbSymbolTable
 70
     2
  0
APPID
  5
12
330
9
100
AcDbSymbolTableRecord
100
AcDbRegAppTableRecord
  2
ACAD
 70
     0
  0
ENDTAB
  0
TABLE
  2
DIMSTYLE
  5
A
330
0
100
AcDbSymbolTable
 70
     1
  0
DIMSTYLE
105
27
330
A
100
AcDbSymbolTableRecord
100
AcDbDimStyleTableRecord
  2
ISO-25
 70
     0
  3

  4

  5

  6

  7

 40
1.0
 41
2.5
 42
0.625
 43
3.75
 44
1.25
 45
0.0
 46
0.0
 47
0.0
 48
0.0
140
2.5
141
2.5
142
0.0
143
0.03937007874016
144
1.0
145
0.0
146
1.0
147
0.625
 71
     0
 72
     0
 73
     0
 74
     0
 75
     0
 76
     0
 77
     1
 78
     8
170
     0
171
     3
172
     1
173
     0
174
     0
175
     0
176
     0
177
     0
178
     0
270
     2
271
     2
272
     2
273
     2
274
     3
340
11
275
     0
280
     0
281
     0
282
     0
283
     0
284
     8
285
     0
286
     0
287
     3
288
     0
  0
ENDTAB
  0
TABLE
  2
BLOCK_RECORD
  5
1
330
0
100
AcDbSymbolTable
 70
     1
  0
BLOCK_RECORD
  5
1F
330
1
100
AcDbSymbolTableRecord
100
AcDbBlockTableRecord
  2
*MODEL_SPACE
  0
BLOCK_RECORD
  5
1B
330
1
100
AcDbSymbolTableRecord
100
AcDbBlockTableRecord
  2
*PAPER_SPACE
  0
ENDTAB
  0
ENDSEC
  0
SECTION
  2
BLOCKS
  0
BLOCK
  5
20
330
1F
100
AcDbEntity
  8
0
100
AcDbBlockBegin
  2
*MODEL_SPACE
 70
     0
 10
0.0
 20
0.0
 30
0.0
  3
*MODEL_SPACE
  1

  0
ENDBLK
  5
21
330
1F
100
AcDbEntity
  8
0
100
AcDbBlockEnd
  0
BLOCK
  5
1C
330
1B
100
AcDbEntity
 67
     1
  8
0
100
AcDbBlockBegin
  2
*PAPER_SPACE
  1

  0
ENDBLK
  5
1D
330
1B
100
AcDbEntity
 67
     1
  8
0
100
AcDbBlockEnd
  0
ENDSEC
  0
SECTION
  2
ENTITIES
  0
SPLINE
  5
100
100
AcDbEntity
  8
Ebene_1
 62
7
100
AcDbSpline
 70
8
 71
3
 72
8
 73
4
 74
0
 40
0
 40
0
 40
0
 40
0
 40
1
 40
1
 40
1
 40
1
 10
-208.475130
 20
75.718020
 30
0.0
 10
-208.296490
 20
75.791573
 30
0.0
 10
-208.159880
 20
75.875640
 30
0.0
 10
-208.065300
 20
75.970220
 30
0.0
  0
SPLINE
  5
101
100
AcDbEntity
  8
Ebene_1
 62
7
100
AcDbSpline
 70
8
 71
3
 72
8
 73
4
 74
0
 40
0
 40
0
 40
0
 40
0
 40
1
 40
1
 40
1
 40
1
 10
-208.065300
 20
75.970220
 30
0.0
 10
-207.970727
 20
76.075300
 30
0.0
 10
-207.923440
 20
76.243433
 30
0.0
 10
-207.923440
 20
76.474620
 30
0.0
  0
LWPOLYLINE
  5
102
100
AcDbEntity
  8
Ebene_1
 62
7
100
AcDbPolyline
 90
2
 70
0
 10
-211.028670
 20
74.677690
 30
0.0
 10
-208.475130
 20
75.718020
 30
0.0
  0
SPLINE
  5
103
100
AcDbEntity
  8
Ebene_1
 62
7
100
AcDbSpline
 70
8
 71
3
 72
8
 73
4
 74
0
 40
0
 40
0
 40
0
 40
0
 40
1
 40
1
 40
1
 40
1
 10
-207.923440
 20
92.883470
 30
0.0
 10
-207.923440
 20
93.093637
 30
0.0
 10
-207.975983
 20
93.246010
 30
0.0
 10
-208.081070
 20
93.340590
 30
0.0
  0
SPLINE
  5
104
100
AcDbEntity
  8
Ebene_1
 62
7
100
AcDbSpline
 70
8
 71
3
 72
8
 73
4
 74
0
 40
0
 40
0
 40
0
 40
0
 40
1
 40
1
 40
1
 40
1
 10
-208.081070
 20
93.340590
 30
0.0
 10
-208.186150
 20
93.435163
 30
0.0
 10
-208.317503
 20
93.513973
 30
0.0
 10
-208.475130
 20
93.577020
 30
0.0
  0
LWPOLYLINE
  5
105
100
AcDbEntity
  8
Ebene_1
 62
7
100
AcDbPolyline
 90
2
 70
0
 10
-207.923440
 20
76.474620
 30
0.0
 10
-207.923440
 20
92.883470
 30
0.0
  0
SPLINE
  5
106
100
AcDbEntity
  8
Ebene_1
 62
7
100
AcDbSpline
 70
8
 71
3
 72
8
 73
4
 74
0
 40
0
 40
0
 40
0
 40
0
 40
1
 40
1
 40
1
 40
1
 10
-199.364360
 20
96.083270
 30
0.0
 10
-198.134873
 20
96.083270
 30
0.0
 10
-196.984203
 20
95.957170
 30
0.0
 10
-195.912350
 20
95.704970
 30
0.0
  0
SPLINE
  5
107
100
AcDbEntity
  8
Ebene_1
 62
7
100
AcDbSpline
 70
8
 71
3
 72
8
 73
4
 74
0
 40
0
 40
0
 40
0
 40
0
 40
1
 40
1
 40
1
 40
1
 10
-195.912350
 20
95.704970
 30
0.0
 10
-194.829983
 20
95.452770
 30
0.0
 10
-193.889483
 20
95.058707
 30
0.0
 10
-193.090850
 20
94.522780
 30
0.0
  0
SPLINE
  5
108
100
AcDbEntity
  8
Ebene_1
 62
7
100
AcDbSpline
 70
8
 71
3
 72
8
 73
4
 74
0
 40
0
 40
0
 40
0
 40
0
 40
1
 40
1
 40
1
 40
1
 10
-193.090850
 20
94.522780
 30
0.0
 10
-192.292210
 20
93.986853
 30
0.0
 10
-191.661707
 20
93.293300
 30
0.0
 10
-191.199340
 20
92.442120
 30
0.0
  0
SPLINE
  5
109
100
AcDbEntity
  8
Ebene_1
 62
7
100
AcDbSpline
 70
8
 71
3
 72
8
 73
4
 74
0
 40
0
 40
0
 40
0
 40
0
 40
1
 40
1
 40
1
 40
1
 10
-191.199340
 20
92.442120
 30
0.0
 10
-190.736967
 20
91.601447
 30
0.0
 10
-190.505780
 20
90.587387
 30
0.0
 10
-190.505780
 20
89.399940
 30
0.0
  0
SPLINE
  5
10a
100
AcDbEntity
  8
Ebene_1
 62
7
100
AcDbSpline
 70
8
 71
3
 72
8
 73
4
 74
0
 40
0
 40
0
 40
0
 40
0
 40
1
 40
1
 40
1
 40
1
 10
-190.505780
 20
89.399940
 30
0.0
 10
-190.505780
 20
88.149440
 30
0.0
 10
-190.705440
 20
87.025043
 30
0.0
 10
-191.104760
 20
86.026750
 30
0.0
  0
SPLINE
  5
10b
100
AcDbEntity
  8
Ebene_1
 62
7
100
AcDbSpline
 70
8
 71
3
 72
8
 73
4
 74
0
 40
0
 40
0
 40
0
 40
0
 40
1
 40
1
 40
1
 40
1
 10
-191.104760
 20
86.026750
 30
0.0
 10
-191.504080
 20
85.028450
 30
0.0
 10
-192.061027
 20
84.182523
 30
0.0
 10
-192.775600
 20
83.488970
 30
0.0
  0
SPLINE
  5
10c
100
AcDbEntity
  8
Ebene_1
 62
7
100
AcDbSpline
 70
8
 71
3
 72
8
 73
4
 74
0
 40
0
 40
0
 40
0
 40
0
 40
1
 40
1
 40
1
 40
1
 10
-192.775600
 20
83.488970
 30
0.0
 10
-193.490167
 20
82.795417
 30
0.0
 10
-194.341347
 20
82.259490
 30
0.0
 10
-195.329140
 20
81.881190
 30
0.0
  0
SPLINE
  5
10d
100
AcDbEntity
  8
Ebene_1
 62
7
100
AcDbSpline
 70
8
 71
3
 72
8
 73
4
 74
0
 40
0
 40
0
 40
0
 40
0
 40
1
 40
1
 40
1
 40
1
 10
-195.329140
 20
81.881190
 30
0.0
 10
-196.316927
 20
81.513397
 30
0.0
 10
-197.399290
 20
81.329500
 30
0.0
 10
-198.576230
 20
81.329500
 30
0.0
  0
SPLINE
  5
10e
100
AcDbEntity
  8
Ebene_1
 62
7
100
AcDbSpline
 70
8
 71
3
 72
8
 73
4
 74
0
 40
0
 40
0
 40
0
 40
0
 40
1
 40
1
 40
1
 40
1
 10
-198.576230
 20
81.329500
 30
0.0
 10
-198.849443
 20
81.329500
 30
0.0
 10
-199.159440
 20
81.355767
 30
0.0
 10
-199.506220
 20
81.408300
 30
0.0
  0
SPLINE
  5
10f
100
AcDbEntity
  8
Ebene_1
 62
7
100
AcDbSpline
 70
8
 71
3
 72
8
 73
4
 74
0
 40
0
 40
0
 40
0
 40
0
 40
1
 40
1
 40
1
 40
1
 10
-199.506220
 20
81.408300
 30
0.0
 10
-199.853000
 20
81.471367
 30
0.0
 10
-200.205030
 20
81.555433
 30
0.0
 10
-200.562310
 20
81.660500
 30
0.0
  0
SPLINE
  5
110
100
AcDbEntity
  8
Ebene_1
 62
7
100
AcDbSpline
 70
8
 71
3
 72
8
 73
4
 74
0
 40
0
 40
0
 40
0
 40
0
 40
1
 40
1
 40
1
 40
1
 10
-200.562310
 20
81.660500
 30
0.0
 10
-200.909090
 20
81.765587
 30
0.0
 10
-201.255867
 20
81.886433
 30
0.0
 10
-201.602640
 20
82.023040
 30
0.0
  0
SPLINE
  5
111
100
AcDbEntity
  8
Ebene_1
 62
7
100
AcDbSpline
 70
8
 71
3
 72
8
 73
4
 74
0
 40
0
 40
0
 40
0
 40
0
 40
1
 40
1
 40
1
 40
1
 10
-201.602640
 20
82.023040
 30
0.0
 10
-201.938913
 20
82.170160
 30
0.0
 10
-202.233150
 20
82.322530
 30
0.0
 10
-202.485350
 20
82.480150
 30
0.0
  0
LWPOLYLINE
  5
112
100
AcDbEntity
  8
Ebene_1
 62
7
100
AcDbPolyline
 90
4
 70
0
 10
-208.475130
 20
93.577020
 30
0.0
 10
-211.028670
 20
94.617350
 30
0.0
 10
-211.028670
 20
96.083270
 30
0.0
 10
-199.364360
 20
96.083270
 30
0.0
  0
SPLINE
  5
113
100
AcDbEntity
  8
Ebene_1
 62
7
100
AcDbSpline
 70
8
 71
3
 72
8
 73
4
 74
0
 40
0
 40
0
 40
0
 40
0
 40
1
 40
1
 40
1
 40
1
 10
-202.485350
 20
76.474610
 30
0.0
 10
-202.485350
 20
76.243423
 30
0.0
 10
-202.427553
 20
76.070037
 30
0.0
 10
-202.311960
 20
75.954450
 30
0.0
  0
SPLINE
  5
114
100
AcDbEntity
  8
Ebene_1
 62
7
100
AcDbSpline
 70
8
 71
3
 72
8
 73
4
 74
0
 40
0
 40
0
 40
0
 40
0
 40
1
 40
1
 40
1
 40
1
 10
-202.311960
 20
75.954450
 30
0.0
 10
-202.185860
 20
75.849363
 30
0.0
 10
-202.049250
 20
75.770550
 30
0.0
 10
-201.902130
 20
75.718010
 30
0.0
  0
LWPOLYLINE
  5
115
100
AcDbEntity
  8
Ebene_1
 62
7
100
AcDbPolyline
 90
2
 70
0
 10
-202.485350
 20
82.480150
 30
0.0
 10
-202.485350
 20
76.474610
 30
0.0
  0
SPLINE
  5
116
100
AcDbEntity
  8
Ebene_1
 62
7
100
AcDbSpline
 70
8
 71
3
 72
8
 73
4
 74
0
 40
0
 40
0
 40
0
 40
0
 40
1
 40
1
 40
1
 40
1
 10
-199.916050
 20
84.324390
 30
0.0
 10
-199.390630
 20
84.324390
 30
0.0
 10
-198.933513
 20
84.397947
 30
0.0
 10
-198.544700
 20
84.545060
 30
0.0
  0
SPLINE
  5
117
100
AcDbEntity
  8
Ebene_1
 62
7
100
AcDbSpline
 70
8
 71
3
 72
8
 73
4
 74
0
 40
0
 40
0
 40
0
 40
0
 40
1
 40
1
 40
1
 40
1
 10
-198.544700
 20
84.545060
 30
0.0
 10
-198.155893
 20
84.702687
 30
0.0
 10
-197.824880
 20
84.902347
 30
0.0
 10
-197.551660
 20
85.144040
 30
0.0
  0
SPLINE
  5
118
100
AcDbEntity
  8
Ebene_1
 62
7
100
AcDbSpline
 70
8
 71
3
 72
8
 73
4
 74
0
 40
0
 40
0
 40
0
 40
0
 40
1
 40
1
 40
1
 40
1
 10
-197.551660
 20
85.144040
 30
0.0
 10
-197.278440
 20
85.385733
 30
0.0
 10
-197.057763
 20
85.658953
 30
0.0
 10
-196.889630
 20
85.963700
 30
0.0
  0
SPLINE
  5
119
100
AcDbEntity
  8
Ebene_1
 62
7
100
AcDbSpline
 70
8
 71
3
 72
8
 73
4
 74
0
 40
0
 40
0
 40
0
 40
0
 40
1
 40
1
 40
1
 40
1
 10
-196.889630
 20
85.963700
 30
0.0
 10
-196.710990
 20
86.278947
 30
0.0
 10
-196.574380
 20
86.594197
 30
0.0
 10
-196.479800
 20
86.909450
 30
0.0
  0
SPLINE
  5
11a
100
AcDbEntity
  8
Ebene_1
 62
7
100
AcDbSpline
 70
8
 71
3
 72
8
 73
4
 74
0
 40
0
 40
0
 40
0
 40
0
 40
1
 40
1
 40
1
 40
1
 10
-196.479800
 20
86.909450
 30
0.0
 10
-196.385227
 20
87.235210
 30
0.0
 10
-196.322177
 20
87.545207
 30
0.0
 10
-196.290650
 20
87.839440
 30
0.0
  0
SPLINE
  5
11b
100
AcDbEntity
  8
Ebene_1
 62
7
100
AcDbSpline
 70
8
 71
3
 72
8
 73
4
 74
0
 40
0
 40
0
 40
0
 40
0
 40
1
 40
1
 40
1
 40
1
 10
-196.290650
 20
87.839440
 30
0.0
 10
-196.248650
 20
88.133680
 30
0.0
 10
-196.227650
 20
88.391137
 30
0.0
 10
-196.227650
 20
88.611810
 30
0.0
  0
SPLINE
  5
11c
100
AcDbEntity
  8
Ebene_1
 62
7
100
AcDbSpline
 70
8
 71
3
 72
8
 73
4
 74
0
 40
0
 40
0
 40
0
 40
0
 40
1
 40
1
 40
1
 40
1
 10
-196.227650
 20
88.611810
 30
0.0
 10
-196.227650
 20
89.210790
 30
0.0
 10
-196.301210
 20
89.783497
 30
0.0
 10
-196.448330
 20
90.329930
 30
0.0
  0
SPLINE
  5
11d
100
AcDbEntity
  8
Ebene_1
 62
7
100
AcDbSpline
 70
8
 71
3
 72
8
 73
4
 74
0
 40
0
 40
0
 40
0
 40
0
 40
1
 40
1
 40
1
 40
1
 10
-196.448330
 20
90.329930
 30
0.0
 10
-196.584937
 20
90.886877
 30
0.0
 10
-196.826630
 20
91.375517
 30
0.0
 10
-197.173410
 20
91.795850
 30
0.0
  0
SPLINE
  5
11e
100
AcDbEntity
  8
Ebene_1
 62
7
100
AcDbSpline
 70
8
 71
3
 72
8
 73
4
 74
0
 40
0
 40
0
 40
0
 40
0
 40
1
 40
1
 40
1
 40
1
 10
-197.173410
 20
91.795850
 30
0.0
 10
-197.509677
 20
92.216190
 30
0.0
 10
-197.966790
 20
92.552460
 30
0.0
 10
-198.544750
 20
92.804660
 30
0.0
  0
SPLINE
  5
11f
100
AcDbEntity
  8
Ebene_1
 62
7
100
AcDbSpline
 70
8
 71
3
 72
8
 73
4
 74
0
 40
0
 40
0
 40
0
 40
0
 40
1
 40
1
 40
1
 40
1
 10
-198.544750
 20
92.804660
 30
0.0
 10
-199.122710
 20
93.056860
 30
0.0
 10
-199.842537
 20
93.182960
 30
0.0
 10
-200.704230
 20
93.182960
 30
0.0
  0
LWPOLYLINE
  5
120
100
AcDbEntity
  8
Ebene_1
 62
7
100
AcDbPolyline
 90
5
 70
0
 10
-201.902130
 20
75.718010
 30
0.0
 10
-199.238260
 20
74.677680
 30
0.0
 10
-199.238260
 20
73.211760
 30
0.0
 10
-211.028670
 20
73.211760
 30
0.0
 10
-211.028670
 20
74.677690
 30
0.0
  0
SPLINE
  5
121
100
AcDbEntity
  8
Ebene_1
 62
7
100
AcDbSpline
 70
8
 71
3
 72
8
 73
4
 74
0
 40
0
 40
0
 40
0
 40
0
 40
1
 40
1
 40
1
 40
1
 10
-202.485400
 20
84.592350
 30
0.0
 10
-202.338280
 20
84.550283
 30
0.0
 10
-202.159637
 20
84.513503
 30
0.0
 10
-201.949470
 20
84.482010
 30
0.0
  0
SPLINE
  5
122
100
AcDbEntity
  8
Ebene_1
 62
7
100
AcDbSpline
 70
8
 71
3
 72
8
 73
4
 74
0
 40
0
 40
0
 40
0
 40
0
 40
1
 40
1
 40
1
 40
1
 10
-201.949470
 20
84.482010
 30
0.0
 10
-201.739303
 20
84.450477
 30
0.0
 10
-201.518627
 20
84.418943
 30
0.0
 10
-201.287440
 20
84.387410
 30
0.0
  0
SPLINE
  5
123
100
AcDbEntity
  8
Ebene_1
 62
7
100
AcDbSpline
 70
8
 71
3
 72
8
 73
4
 74
0
 40
0
 40
0
 40
0
 40
0
 40
1
 40
1
 40
1
 40
1
 10
-201.287440
 20
84.387410
 30
0.0
 10
-201.056260
 20
84.366410
 30
0.0
 10
-200.825077
 20
84.350643
 30
0.0
 10
-200.593890
 20
84.340110
 30
0.0
  0
SPLINE
  5
124
100
AcDbEntity
  8
Ebene_1
 62
7
100
AcDbSpline
 70
8
 71
3
 72
8
 73
4
 74
0
 40
0
 40
0
 40
0
 40
0
 40
1
 40
1
 40
1
 40
1
 10
-200.593890
 20
84.340110
 30
0.0
 10
-200.352197
 20
84.329577
 30
0.0
 10
-200.126267
 20
84.324310
 30
0.0
 10
-199.916100
 20
84.324310
 30
0.0
  0
LWPOLYLINE
  5
125
100
AcDbEntity
  8
Ebene_1
 62
7
100
AcDbPolyline
 90
3
 70
0
 10
-200.704230
 20
93.182960
 30
0.0
 10
-202.485400
 20
93.182960
 30
0.0
 10
-202.485400
 20
84.592350
 30
0.0
  0
LWPOLYLINE
  5
126
100
AcDbEntity
  8
Ebene_1
 62
7
100
AcDbPolyline
 90
1
 70
1
 10
-199.916100
 20
84.324310
 30
0.0
  0
SPLINE
  5
127
100
AcDbEntity
  8
Ebene_1
 62
7
100
AcDbSpline
 70
8
 71
3
 72
8
 73
4
 74
0
 40
0
 40
0
 40
0
 40
0
 40
1
 40
1
 40
1
 40
1
 10
-189.007110
 20
75.497340
 30
0.0
 10
-188.649823
 20
75.665473
 30
0.0
 10
-188.392367
 20
75.949200
 30
0.0
 10
-188.234740
 20
76.348520
 30
0.0
  0
LWPOLYLINE
  5
128
100
AcDbEntity
  8
Ebene_1
 62
7
100
AcDbPolyline
 90
2
 70
0
 10
-190.693710
 20
74.677690
 30
0.0
 10
-189.007110
 20
75.497340
 30
0.0
  0
SPLINE
  5
129
100
AcDbEntity
  8
Ebene_1
 62
7
100
AcDbSpline
 70
8
 71
3
 72
8
 73
4
 74
0
 40
0
 40
0
 40
0
 40
0
 40
1
 40
1
 40
1
 40
1
 10
-167.901010
 20
76.269710
 30
0.0
 10
-167.827450
 20
76.091063
 30
0.0
 10
-167.732873
 20
75.922927
 30
0.0
 10
-167.617280
 20
75.765300
 30
0.0
  0
SPLINE
  5
12a
100
AcDbEntity
  8
Ebene_1
 62
7
100
AcDbSpline
 70
8
 71
3
 72
8
 73
4
 74
0
 40
0
 40
0
 40
0
 40
0
 40
1
 40
1
 40
1
 40
1
 10
-167.617280
 20
75.765300
 30
0.0
 10
-167.501687
 20
75.607680
 30
0.0
 10
-167.365077
 20
75.497343
 30
0.0
 10
-167.207450
 20
75.434290
 30
0.0
  0
LWPOLYLINE
  5
12b
100
AcDbEntity
  8
Ebene_1
 62
7
100
AcDbPolyline
 90
5
 70
0
 10
-188.234740
 20
76.348520
 30
0.0
 10
-181.772080
 20
92.615510
 30
0.0
 10
-179.864810
 20
96.430050
 30
0.0
 10
-175.624670
 20
96.430050
 30
0.0
 10
-167.901010
 20
76.269710
 30
0.0
  0
LWPOLYLINE
  5
12c
100
AcDbEntity
  8
Ebene_1
 62
7
100
AcDbPolyline
 90
13
 70
0
 10
-167.207450
 20
75.434290
 30
0.0
 10
-165.442050
 20
74.677690
 30
0.0
 10
-165.442050
 20
73.211770
 30
0.0
 10
-175.924160
 20
73.211770
 30
0.0
 10
-175.924160
 20
74.677690
 30
0.0
 10
-173.291810
 20
75.718020
 30
0.0
 10
-175.167560
 20
80.304930
 30
0.0
 10
-183.395630
 20
80.304930
 30
0.0
 10
-185.129510
 20
75.812590
 30
0.0
 10
-182.449870
 20
74.677690
 30
0.0
 10
-182.449870
 20
73.211770
 30
0.0
 10
-190.693710
 20
73.211770
 30
0.0
 10
-190.693710
 20
74.677690
 30
0.0
  0
LWPOLYLINE
  5
12d
100
AcDbEntity
  8
Ebene_1
 62
7
100
AcDbPolyline
 90
5
 70
1
 10
-176.255180
 20
83.094910
 30
0.0
 10
-178.430410
 20
88.706390
 30
0.0
 10
-178.997870
 20
90.834330
 30
0.0
 10
-179.344640
 20
90.834330
 30
0.0
 10
-182.276490
 20
83.094910
 30
0.0
  0
SPLINE
  5
12e
100
AcDbEntity
  8
Ebene_1
 62
7
100
AcDbSpline
 70
8
 71
3
 72
8
 73
4
 74
0
 40
0
 40
0
 40
0
 40
0
 40
1
 40
1
 40
1
 40
1
 10
-161.199690
 20
75.718020
 30
0.0
 10
-161.052577
 20
75.781087
 30
0.0
 10
-160.926477
 20
75.865153
 30
0.0
 10
-160.821390
 20
75.970220
 30
0.0
  0
SPLINE
  5
12f
100
AcDbEntity
  8
Ebene_1
 62
7
100
AcDbSpline
 70
8
 71
3
 72
8
 73
4
 74
0
 40
0
 40
0
 40
0
 40
0
 40
1
 40
1
 40
1
 40
1
 10
-160.821390
 20
75.970220
 30
0.0
 10
-160.705797
 20
76.075300
 30
0.0
 10
-160.648000
 20
76.243433
 30
0.0
 10
-160.648000
 20
76.474620
 30
0.0
  0
LWPOLYLINE
  5
130
100
AcDbEntity
  8
Ebene_1
 62
7
100
AcDbPolyline
 90
2
 70
0
 10
-163.753230
 20
74.677690
 30
0.0
 10
-161.199690
 20
75.718020
 30
0.0
  0
SPLINE
  5
131
100
AcDbEntity
  8
Ebene_1
 62
7
100
AcDbSpline
 70
8
 71
3
 72
8
 73
4
 74
0
 40
0
 40
0
 40
0
 40
0
 40
1
 40
1
 40
1
 40
1
 10
-160.648000
 20
92.883470
 30
0.0
 10
-160.648000
 20
93.093637
 30
0.0
 10
-160.705797
 20
93.246010
 30
0.0
 10
-160.821390
 20
93.340590
 30
0.0
  0
SPLINE
  5
132
100
AcDbEntity
  8
Ebene_1
 62
7
100
AcDbSpline
 70
8
 71
3
 72
8
 73
4
 74
0
 40
0
 40
0
 40
0
 40
0
 40
1
 40
1
 40
1
 40
1
 10
-160.821390
 20
93.340590
 30
0.0
 10
-160.926477
 20
93.445670
 30
0.0
 10
-161.052577
 20
93.524480
 30
0.0
 10
-161.199690
 20
93.577020
 30
0.0
  0
LWPOLYLINE
  5
133
100
AcDbEntity
  8
Ebene_1
 62
7
100
AcDbPolyline
 90
2
 70
0
 10
-160.648000
 20
76.474620
 30
0.0
 10
-160.648000
 20
92.883470
 30
0.0
  0
SPLINE
  5
134
100
AcDbEntity
  8
Ebene_1
 62
7
100
AcDbSpline
 70
8
 71
3
 72
8
 73
4
 74
0
 40
0
 40
0
 40
0
 40
0
 40
1
 40
1
 40
1
 40
1
 10
-151.836720
 20
96.083270
 30
0.0
 10
-150.670287
 20
96.083270
 30
0.0
 10
-149.650973
 20
96.004460
 30
0.0
 10
-148.778780
 20
95.846840
 30
0.0
  0
SPLINE
  5
135
100
AcDbEntity
  8
Ebene_1
 62
7
100
AcDbSpline
 70
8
 71
3
 72
8
 73
4
 74
0
 40
0
 40
0
 40
0
 40
0
 40
1
 40
1
 40
1
 40
1
 10
-148.778780
 20
95.846840
 30
0.0
 10
-147.896073
 20
95.689213
 30
0.0
 10
-147.144723
 20
95.468537
 30
0.0
 10
-146.524730
 20
95.184810
 30
0.0
  0
SPLINE
  5
136
100
AcDbEntity
  8
Ebene_1
 62
7
100
AcDbSpline
 70
8
 71
3
 72
8
 73
4
 74
0
 40
0
 40
0
 40
0
 40
0
 40
1
 40
1
 40
1
 40
1
 10
-146.524730
 20
95.184810
 30
0.0
 10
-145.894223
 20
94.911590
 30
0.0
 10
-145.379313
 20
94.585830
 30
0.0
 10
-144.980000
 20
94.207530
 30
0.0
  0
SPLINE
  5
137
100
AcDbEntity
  8
Ebene_1
 62
7
100
AcDbSpline
 70
8
 71
3
 72
8
 73
4
 74
0
 40
0
 40
0
 40
0
 40
0
 40
1
 40
1
 40
1
 40
1
 10
-144.980000
 20
94.207530
 30
0.0
 10
-144.570167
 20
93.839737
 30
0.0
 10
-144.249660
 20
93.440417
 30
0.0
 10
-144.018480
 20
93.009570
 30
0.0
  0
SPLINE
  5
138
100
AcDbEntity
  8
Ebene_1
 62
7
100
AcDbSpline
 70
8
 71
3
 72
8
 73
4
 74
0
 40
0
 40
0
 40
0
 40
0
 40
1
 40
1
 40
1
 40
1
 10
-144.018480
 20
93.009570
 30
0.0
 10
-143.776787
 20
92.578730
 30
0.0
 10
-143.608650
 20
92.126870
 30
0.0
 10
-143.514070
 20
91.653990
 30
0.0
  0
SPLINE
  5
139
100
AcDbEntity
  8
Ebene_1
 62
7
100
AcDbSpline
 70
8
 71
3
 72
8
 73
4
 74
0
 40
0
 40
0
 40
0
 40
0
 40
1
 40
1
 40
1
 40
1
 10
-143.514070
 20
91.653990
 30
0.0
 10
-143.419497
 20
91.191623
 30
0.0
 10
-143.372210
 20
90.729253
 30
0.0
 10
-143.372210
 20
90.266880
 30
0.0
  0
SPLINE
  5
13a
100
AcDbEntity
  8
Ebene_1
 62
7
100
AcDbSpline
 70
8
 71
3
 72
8
 73
4
 74
0
 40
0
 40
0
 40
0
 40
0
 40
1
 40
1
 40
1
 40
1
 10
-143.372210
 20
90.266880
 30
0.0
 10
-143.372210
 20
89.394687
 30
0.0
 10
-143.503567
 20
88.627573
 30
0.0
 10
-143.766280
 20
87.965540
 30
0.0
  0
SPLINE
  5
13b
100
AcDbEntity
  8
Ebene_1
 62
7
100
AcDbSpline
 70
8
 71
3
 72
8
 73
4
 74
0
 40
0
 40
0
 40
0
 40
0
 40
1
 40
1
 40
1
 40
1
 10
-143.766280
 20
87.965540
 30
0.0
 10
-144.028987
 20
87.303513
 30
0.0
 10
-144.370507
 20
86.725553
 30
0.0
 10
-144.790840
 20
86.231660
 30
0.0
  0
SPLINE
  5
13c
100
AcDbEntity
  8
Ebene_1
 62
7
100
AcDbSpline
 70
8
 71
3
 72
8
 73
4
 74
0
 40
0
 40
0
 40
0
 40
0
 40
1
 40
1
 40
1
 40
1
 10
-144.790840
 20
86.231660
 30
0.0
 10
-145.211180
 20
85.748273
 30
0.0
 10
-145.689313
 20
85.338447
 30
0.0
 10
-146.225240
 20
85.002180
 30
0.0
  0
SPLINE
  5
13d
100
AcDbEntity
  8
Ebene_1
 62
7
100
AcDbSpline
 70
8
 71
3
 72
8
 73
4
 74
0
 40
0
 40
0
 40
0
 40
0
 40
1
 40
1
 40
1
 40
1
 10
-146.225240
 20
85.002180
 30
0.0
 10
-146.750660
 20
84.676420
 30
0.0
 10
-147.281333
 20
84.413710
 30
0.0
 10
-147.817260
 20
84.214050
 30
0.0
  0
LWPOLYLINE
  5
13e
100
AcDbEntity
  8
Ebene_1
 62
7
100
AcDbPolyline
 90
4
 70
0
 10
-161.199690
 20
93.577020
 30
0.0
 10
-163.753230
 20
94.617350
 30
0.0
 10
-163.753230
 20
96.083270
 30
0.0
 10
-151.836720
 20
96.083270
 30
0.0
  0
SPLINE
  5
13f
100
AcDbEntity
  8
Ebene_1
 62
7
100
AcDbSpline
 70
8
 71
3
 72
8
 73
4
 74
0
 40
0
 40
0
 40
0
 40
0
 40
1
 40
1
 40
1
 40
1
 10
-142.505270
 20
76.474620
 30
0.0
 10
-142.442203
 20
76.380047
 30
0.0
 10
-142.373900
 20
76.280217
 30
0.0
 10
-142.300360
 20
76.175130
 30
0.0
  0
SPLINE
  5
140
100
AcDbEntity
  8
Ebene_1
 62
7
100
AcDbSpline
 70
8
 71
3
 72
8
 73
4
 74
0
 40
0
 40
0
 40
0
 40
0
 40
1
 40
1
 40
1
 40
1
 10
-142.300360
 20
76.175130
 30
0.0
 10
-142.216293
 20
76.080557
 30
0.0
 10
-142.126970
 20
75.985980
 30
0.0
 10
-142.032390
 20
75.891400
 30
0.0
  0
SPLINE
  5
141
100
AcDbEntity
  8
Ebene_1
 62
7
100
AcDbSpline
 70
8
 71
3
 72
8
 73
4
 74
0
 40
0
 40
0
 40
0
 40
0
 40
1
 40
1
 40
1
 40
1
 10
-142.032390
 20
75.891400
 30
0.0
 10
-141.927310
 20
75.807333
 30
0.0
 10
-141.822227
 20
75.728523
 30
0.0
 10
-141.717140
 20
75.654970
 30
0.0
  0
SPLINE
  5
142
100
AcDbEntity
  8
Ebene_1
 62
7
100
AcDbSpline
 70
8
 71
3
 72
8
 73
4
 74
0
 40
0
 40
0
 40
0
 40
0
 40
1
 40
1
 40
1
 40
1
 10
-141.717140
 20
75.654970
 30
0.0
 10
-141.612053
 20
75.581410
 30
0.0
 10
-141.501717
 20
75.528867
 30
0.0
 10
-141.386130
 20
75.497340
 30
0.0
  0
LWPOLYLINE
  5
143
100
AcDbEntity
  8
Ebene_1
 62
7
100
AcDbPolyline
 90
2
 70
0
 10
-147.817260
 20
84.214050
 30
0.0
 10
-142.505270
 20
76.474620
 30
0.0
  0
SPLINE
  5
144
100
AcDbEntity
  8
Ebene_1
 62
7
100
AcDbSpline
 70
8
 71
3
 72
8
 73
4
 74
0
 40
0
 40
0
 40
0
 40
0
 40
1
 40
1
 40
1
 40
1
 10
-144.869660
 20
73.211770
 30
0.0
 10
-145.426600
 20
73.211770
 30
0.0
 10
-145.862697
 20
73.253803
 30
0.0
 10
-146.177950
 20
73.337870
 30
0.0
  0
SPLINE
  5
145
100
AcDbEntity
  8
Ebene_1
 62
7
100
AcDbSpline
 70
8
 71
3
 72
8
 73
4
 74
0
 40
0
 40
0
 40
0
 40
0
 40
1
 40
1
 40
1
 40
1
 10
-146.177950
 20
73.337870
 30
0.0
 10
-146.493203
 20
73.432443
 30
0.0
 10
-146.761167
 20
73.569050
 30
0.0
 10
-146.981840
 20
73.747690
 30
0.0
  0
SPLINE
  5
146
100
AcDbEntity
  8
Ebene_1
 62
7
100
AcDbSpline
 70
8
 71
3
 72
8
 73
4
 74
0
 40
0
 40
0
 40
0
 40
0
 40
1
 40
1
 40
1
 40
1
 10
-146.981840
 20
73.747690
 30
0.0
 10
-147.192013
 20
73.926337
 30
0.0
 10
-147.381167
 20
74.152267
 30
0.0
 10
-147.549300
 20
74.425480
 30
0.0
  0
SPLINE
  5
147
100
AcDbEntity
  8
Ebene_1
 62
7
100
AcDbSpline
 70
8
 71
3
 72
8
 73
4
 74
0
 40
0
 40
0
 40
0
 40
0
 40
1
 40
1
 40
1
 40
1
 10
-147.549300
 20
74.425480
 30
0.0
 10
-147.717433
 20
74.709207
 30
0.0
 10
-147.927600
 20
75.040223
 30
0.0
 10
-148.179800
 20
75.418530
 30
0.0
  0
LWPOLYLINE
  5
148
100
AcDbEntity
  8
Ebene_1
 62
7
100
AcDbPolyline
 90
4
 70
0
 10
-141.386130
 20
75.497340
 30
0.0
 10
-138.864110
 20
74.677690
 30
0.0
 10
-138.864110
 20
73.211770
 30
0.0
 10
-144.869660
 20
73.211770
 30
0.0
  0
SPLINE
  5
149
100
AcDbEntity
  8
Ebene_1
 62
7
100
AcDbSpline
 70
8
 71
3
 72
8
 73
4
 74
0
 40
0
 40
0
 40
0
 40
0
 40
1
 40
1
 40
1
 40
1
 10
-155.209910
 20
76.474620
 30
0.0
 10
-155.209910
 20
76.243433
 30
0.0
 10
-155.157370
 20
76.075300
 30
0.0
 10
-155.052290
 20
75.970220
 30
0.0
  0
SPLINE
  5
14a
100
AcDbEntity
  8
Ebene_1
 62
7
100
AcDbSpline
 70
8
 71
3
 72
8
 73
4
 74
0
 40
0
 40
0
 40
0
 40
0
 40
1
 40
1
 40
1
 40
1
 10
-155.052290
 20
75.970220
 30
0.0
 10
-154.936697
 20
75.875640
 30
0.0
 10
-154.794833
 20
75.791573
 30
0.0
 10
-154.626700
 20
75.718020
 30
0.0
  0
LWPOLYLINE
  5
14b
100
AcDbEntity
  8
Ebene_1
 62
7
100
AcDbPolyline
 90
4
 70
0
 10
-148.179800
 20
75.418530
 30
0.0
 10
-153.050440
 20
82.795420
 30
0.0
 10
-155.209910
 20
83.331340
 30
0.0
 10
-155.209910
 20
76.474620
 30
0.0
  0
SPLINE
  5
14c
100
AcDbEntity
  8
Ebene_1
 62
7
100
AcDbSpline
 70
8
 71
3
 72
8
 73
4
 74
0
 40
0
 40
0
 40
0
 40
0
 40
1
 40
1
 40
1
 40
1
 10
-152.892810
 20
85.412010
 30
0.0
 10
-152.241290
 20
85.412010
 30
0.0
 10
-151.679093
 20
85.522347
 30
0.0
 10
-151.206220
 20
85.743020
 30
0.0
  0
SPLINE
  5
14d
100
AcDbEntity
  8
Ebene_1
 62
7
100
AcDbSpline
 70
8
 71
3
 72
8
 73
4
 74
0
 40
0
 40
0
 40
0
 40
0
 40
1
 40
1
 40
1
 40
1
 10
-151.206220
 20
85.743020
 30
0.0
 10
-150.733340
 20
85.974207
 30
0.0
 10
-150.344527
 20
86.273697
 30
0.0
 10
-150.039780
 20
86.641490
 30
0.0
  0
SPLINE
  5
14e
100
AcDbEntity
  8
Ebene_1
 62
7
100
AcDbSpline
 70
8
 71
3
 72
8
 73
4
 74
0
 40
0
 40
0
 40
0
 40
0
 40
1
 40
1
 40
1
 40
1
 10
-150.039780
 20
86.641490
 30
0.0
 10
-149.735040
 20
87.009283
 30
0.0
 10
-149.509110
 20
87.429617
 30
0.0
 10
-149.361990
 20
87.902490
 30
0.0
  0
SPLINE
  5
14f
100
AcDbEntity
  8
Ebene_1
 62
7
100
AcDbSpline
 70
8
 71
3
 72
8
 73
4
 74
0
 40
0
 40
0
 40
0
 40
0
 40
1
 40
1
 40
1
 40
1
 10
-149.361990
 20
87.902490
 30
0.0
 10
-149.214877
 20
88.385877
 30
0.0
 10
-149.141320
 20
88.874517
 30
0.0
 10
-149.141320
 20
89.368410
 30
0.0
  0
SPLINE
  5
150
100
AcDbEntity
  8
Ebene_1
 62
7
100
AcDbSpline
 70
8
 71
3
 72
8
 73
4
 74
0
 40
0
 40
0
 40
0
 40
0
 40
1
 40
1
 40
1
 40
1
 10
-149.141320
 20
89.368410
 30
0.0
 10
-149.141320
 20
90.692470
 30
0.0
 10
-149.488097
 20
91.659243
 30
0.0
 10
-150.181650
 20
92.268730
 30
0.0
  0
SPLINE
  5
151
100
AcDbEntity
  8
Ebene_1
 62
7
100
AcDbSpline
 70
8
 71
3
 72
8
 73
4
 74
0
 40
0
 40
0
 40
0
 40
0
 40
1
 40
1
 40
1
 40
1
 10
-150.181650
 20
92.268730
 30
0.0
 10
-150.875203
 20
92.878217
 30
0.0
 10
-151.889263
 20
93.182960
 30
0.0
 10
-153.223830
 20
93.182960
 30
0.0
  0
LWPOLYLINE
  5
152
100
AcDbEntity
  8
Ebene_1
 62
7
100
AcDbPolyline
 90
5
 70
0
 10
-154.626700
 20
75.718020
 30
0.0
 10
-152.088920
 20
74.677690
 30
0.0
 10
-152.088920
 20
73.211770
 30
0.0
 10
-163.753230
 20
73.211770
 30
0.0
 10
-163.753230
 20
74.677690
 30
0.0
  0
SPLINE
  5
153
100
AcDbEntity
  8
Ebene_1
 62
7
100
AcDbSpline
 70
8
 71
3
 72
8
 73
4
 74
0
 40
0
 40
0
 40
0
 40
0
 40
1
 40
1
 40
1
 40
1
 10
-155.209910
 20
85.601160
 30
0.0
 10
-155.125843
 20
85.580160
 30
0.0
 10
-154.983980
 20
85.559127
 30
0.0
 10
-154.784320
 20
85.538060
 30
0.0
  0
SPLINE
  5
154
100
AcDbEntity
  8
Ebene_1
 62
7
100
AcDbSpline
 70
8
 71
3
 72
8
 73
4
 74
0
 40
0
 40
0
 40
0
 40
0
 40
1
 40
1
 40
1
 40
1
 10
-154.784320
 20
85.538060
 30
0.0
 10
-154.574153
 20
85.517060
 30
0.0
 10
-154.353477
 20
85.496027
 30
0.0
 10
-154.122290
 20
85.474960
 30
0.0
  0
SPLINE
  5
155
100
AcDbEntity
  8
Ebene_1
 62
7
100
AcDbSpline
 70
8
 71
3
 72
8
 73
4
 74
0
 40
0
 40
0
 40
0
 40
0
 40
1
 40
1
 40
1
 40
1
 10
-154.122290
 20
85.474960
 30
0.0
 10
-153.880597
 20
85.453960
 30
0.0
 10
-153.649413
 20
85.438193
 30
0.0
 10
-153.428740
 20
85.427660
 30
0.0
  0
SPLINE
  5
156
100
AcDbEntity
  8
Ebene_1
 62
7
100
AcDbSpline
 70
8
 71
3
 72
8
 73
4
 74
0
 40
0
 40
0
 40
0
 40
0
 40
1
 40
1
 40
1
 40
1
 10
-153.428740
 20
85.427660
 30
0.0
 10
-153.197553
 20
85.417127
 30
0.0
 10
-153.018910
 20
85.411860
 30
0.0
 10
-152.892810
 20
85.411860
 30
0.0
  0
LWPOLYLINE
  5
157
100
AcDbEntity
  8
Ebene_1
 62
7
100
AcDbPolyline
 90
3
 70
0
 10
-153.223830
 20
93.182960
 30
0.0
 10
-155.209910
 20
93.182960
 30
0.0
 10
-155.209910
 20
85.601160
 30
0.0
  0
LWPOLYLINE
  5
158
100
AcDbEntity
  8
Ebene_1
 62
7
100
AcDbPolyline
 90
2
 70
0
 10
-152.892810
 20
85.411860
 30
0.0
 10
-152.892810
 20
85.412010
 30
0.0
  0
SPLINE
  5
159
100
AcDbEntity
  8
Ebene_1
 62
7
100
AcDbSpline
 70
8
 71
3
 72
8
 73
4
 74
0
 40
0
 40
0
 40
0
 40
0
 40
1
 40
1
 40
1
 40
1
 10
-135.055970
 20
75.718020
 30
0.0
 10
-134.887837
 20
75.791573
 30
0.0
 10
-134.756483
 20
75.875640
 30
0.0
 10
-134.661910
 20
75.970220
 30
0.0
  0
SPLINE
  5
15a
100
AcDbEntity
  8
Ebene_1
 62
7
100
AcDbSpline
 70
8
 71
3
 72
8
 73
4
 74
0
 40
0
 40
0
 40
0
 40
0
 40
1
 40
1
 40
1
 40
1
 10
-134.661910
 20
75.970220
 30
0.0
 10
-134.556823
 20
76.075300
 30
0.0
 10
-134.504280
 20
76.243433
 30
0.0
 10
-134.504280
 20
76.474620
 30
0.0
  0
LWPOLYLINE
  5
15b
100
AcDbEntity
  8
Ebene_1
 62
7
100
AcDbPolyline
 90
2
 70
0
 10
-137.609510
 20
74.677690
 30
0.0
 10
-135.055970
 20
75.718020
 30
0.0
  0
SPLINE
  5
15c
100
AcDbEntity
  8
Ebene_1
 62
7
100
AcDbSpline
 70
8
 71
3
 72
8
 73
4
 74
0
 40
0
 40
0
 40
0
 40
0
 40
1
 40
1
 40
1
 40
1
 10
-134.504280
 20
92.883470
 30
0.0
 10
-134.504280
 20
93.093637
 30
0.0
 10
-134.562077
 20
93.246010
 30
0.0
 10
-134.677670
 20
93.340590
 30
0.0
  0
SPLINE
  5
15d
100
AcDbEntity
  8
Ebene_1
 62
7
100
AcDbSpline
 70
8
 71
3
 72
8
 73
4
 74
0
 40
0
 40
0
 40
0
 40
0
 40
1
 40
1
 40
1
 40
1
 10
-134.677670
 20
93.340590
 30
0.0
 10
-134.782757
 20
93.435163
 30
0.0
 10
-134.908857
 20
93.513973
 30
0.0
 10
-135.055970
 20
93.577020
 30
0.0
  0
LWPOLYLINE
  5
15e
100
AcDbEntity
  8
Ebene_1
 62
7
100
AcDbPolyline
 90
2
 70
0
 10
-134.504280
 20
76.474620
 30
0.0
 10
-134.504280
 20
92.883470
 30
0.0
  0
SPLINE
  5
15f
100
AcDbEntity
  8
Ebene_1
 62
7
100
AcDbSpline
 70
8
 71
3
 72
8
 73
4
 74
0
 40
0
 40
0
 40
0
 40
0
 40
1
 40
1
 40
1
 40
1
 10
-128.482970
 20
93.577020
 30
0.0
 10
-128.630090
 20
93.513953
 30
0.0
 10
-128.766700
 20
93.435143
 30
0.0
 10
-128.892800
 20
93.340590
 30
0.0
  0
SPLINE
  5
160
100
AcDbEntity
  8
Ebene_1
 62
7
100
AcDbSpline
 70
8
 71
3
 72
8
 73
4
 74
0
 40
0
 40
0
 40
0
 40
0
 40
1
 40
1
 40
1
 40
1
 10
-128.892800
 20
93.340590
 30
0.0
 10
-129.008393
 20
93.246010
 30
0.0
 10
-129.066190
 20
93.093637
 30
0.0
 10
-129.066190
 20
92.883470
 30
0.0
  0
LWPOLYLINE
  5
161
100
AcDbEntity
  8
Ebene_1
 62
7
100
AcDbPolyline
 90
6
 70
0
 10
-135.055970
 20
93.577020
 30
0.0
 10
-137.609510
 20
94.617350
 30
0.0
 10
-137.609510
 20
96.083270
 30
0.0
 10
-125.945200
 20
96.083270
 30
0.0
 10
-125.945200
 20
94.617350
 30
0.0
 10
-128.482970
 20
93.577020
 30
0.0
  0
SPLINE
  5
162
100
AcDbEntity
  8
Ebene_1
 62
7
100
AcDbSpline
 70
8
 71
3
 72
8
 73
4
 74
0
 40
0
 40
0
 40
0
 40
0
 40
1
 40
1
 40
1
 40
1
 10
-115.951720
 20
93.766180
 30
0.0
 10
-116.161887
 20
93.703113
 30
0.0
 10
-116.372053
 20
93.613790
 30
0.0
 10
-116.582220
 20
93.498210
 30
0.0
  0
SPLINE
  5
163
100
AcDbEntity
  8
Ebene_1
 62
7
100
AcDbSpline
 70
8
 71
3
 72
8
 73
4
 74
0
 40
0
 40
0
 40
0
 40
0
 40
1
 40
1
 40
1
 40
1
 10
-116.582220
 20
93.498210
 30
0.0
 10
-116.792387
 20
93.382617
 30
0.0
 10
-116.997300
 20
93.219737
 30
0.0
 10
-117.196960
 20
93.009570
 30
0.0
  0
LWPOLYLINE
  5
164
100
AcDbEntity
  8
Ebene_1
 62
7
100
AcDbPolyline
 90
8
 70
0
 10
-129.066190
 20
92.883470
 30
0.0
 10
-129.066190
 20
84.308620
 30
0.0
 10
-120.459820
 20
93.671600
 30
0.0
 10
-121.862690
 20
94.617350
 30
0.0
 10
-121.862690
 20
96.083270
 30
0.0
 10
-113.256320
 20
96.083270
 30
0.0
 10
-113.256320
 20
94.617350
 30
0.0
 10
-115.951720
 20
93.766180
 30
0.0
  0
SPLINE
  5
165
100
AcDbEntity
  8
Ebene_1
 62
7
100
AcDbSpline
 70
8
 71
3
 72
8
 73
4
 74
0
 40
0
 40
0
 40
0
 40
0
 40
1
 40
1
 40
1
 40
1
 10
-115.778330
 20
76.364280
 30
0.0
 10
-115.725797
 20
76.290720
 30
0.0
 10
-115.657493
 20
76.206653
 30
0.0
 10
-115.573420
 20
76.112080
 30
0.0
  0
SPLINE
  5
166
100
AcDbEntity
  8
Ebene_1
 62
7
100
AcDbSpline
 70
8
 71
3
 72
8
 73
4
 74
0
 40
0
 40
0
 40
0
 40
0
 40
1
 40
1
 40
1
 40
1
 10
-115.573420
 20
76.112080
 30
0.0
 10
-115.489353
 20
76.028013
 30
0.0
 10
-115.400030
 20
75.938693
 30
0.0
 10
-115.305450
 20
75.844120
 30
0.0
  0
SPLINE
  5
167
100
AcDbEntity
  8
Ebene_1
 62
7
100
AcDbSpline
 70
8
 71
3
 72
8
 73
4
 74
0
 40
0
 40
0
 40
0
 40
0
 40
1
 40
1
 40
1
 40
1
 10
-115.305450
 20
75.844120
 30
0.0
 10
-115.210877
 20
75.760053
 30
0.0
 10
-115.116303
 20
75.681240
 30
0.0
 10
-115.021730
 20
75.607680
 30
0.0
  0
SPLINE
  5
168
100
AcDbEntity
  8
Ebene_1
 62
7
100
AcDbSpline
 70
8
 71
3
 72
8
 73
4
 74
0
 40
0
 40
0
 40
0
 40
0
 40
1
 40
1
 40
1
 40
1
 10
-115.021730
 20
75.607680
 30
0.0
 10
-114.927150
 20
75.534120
 30
0.0
 10
-114.837827
 20
75.481577
 30
0.0
 10
-114.753760
 20
75.450050
 30
0.0
  0
LWPOLYLINE
  5
169
100
AcDbEntity
  8
Ebene_1
 62
7
100
AcDbPolyline
 90
3
 70
0
 10
-117.196960
 20
93.009570
 30
0.0
 10
-123.423180
 20
86.562670
 30
0.0
 10
-115.778330
 20
76.364280
 30
0.0
  0
SPLINE
  5
16a
100
AcDbEntity
  8
Ebene_1
 62
7
100
AcDbSpline
 70
8
 71
3
 72
8
 73
4
 74
0
 40
0
 40
0
 40
0
 40
0
 40
1
 40
1
 40
1
 40
1
 10
-129.066190
 20
76.474620
 30
0.0
 10
-129.066190
 20
76.243433
 30
0.0
 10
-129.008393
 20
76.075300
 30
0.0
 10
-128.892800
 20
75.970220
 30
0.0
  0
SPLINE
  5
16b
100
AcDbEntity
  8
Ebene_1
 62
7
100
AcDbSpline
 70
8
 71
3
 72
8
 73
4
 74
0
 40
0
 40
0
 40
0
 40
0
 40
1
 40
1
 40
1
 40
1
 10
-128.892800
 20
75.970220
 30
0.0
 10
-128.766700
 20
75.865133
 30
0.0
 10
-128.630090
 20
75.781067
 30
0.0
 10
-128.482970
 20
75.718020
 30
0.0
  0
LWPOLYLINE
  5
16c
100
AcDbEntity
  8
Ebene_1
 62
7
100
AcDbPolyline
 90
9
 70
0
 10
-114.753760
 20
75.450050
 30
0.0
 10
-112.420900
 20
74.598870
 30
0.0
 10
-112.420900
 20
73.211770
 30
0.0
 10
-122.508950
 20
73.211770
 30
0.0
 10
-122.508950
 20
74.598870
 30
0.0
 10
-121.578960
 20
75.418530
 30
0.0
 10
-127.489930
 20
83.331340
 30
0.0
 10
-129.066190
 20
82.700840
 30
0.0
 10
-129.066190
 20
76.474620
 30
0.0
  0
LWPOLYLINE
  5
16d
100
AcDbEntity
  8
Ebene_1
 62
7
100
AcDbPolyline
 90
5
 70
0
 10
-128.482970
 20
75.718020
 30
0.0
 10
-125.945200
 20
74.677690
 30
0.0
 10
-125.945200
 20
73.211770
 30
0.0
 10
-137.609510
 20
73.211770
 30
0.0
 10
-137.609510
 20
74.677690
 30
0.0
  0
SPLINE
  5
16e
100
AcDbEntity
  8
Ebene_1
 62
7
100
AcDbSpline
 70
8
 71
3
 72
8
 73
4
 74
0
 40
0
 40
0
 40
0
 40
0
 40
1
 40
1
 40
1
 40
1
 10
-108.212780
 20
75.718020
 30
0.0
 10
-108.034140
 20
75.791573
 30
0.0
 10
-107.897533
 20
75.875640
 30
0.0
 10
-107.802960
 20
75.970220
 30
0.0
  0
SPLINE
  5
16f
100
AcDbEntity
  8
Ebene_1
 62
7
100
AcDbSpline
 70
8
 71
3
 72
8
 73
4
 74
0
 40
0
 40
0
 40
0
 40
0
 40
1
 40
1
 40
1
 40
1
 10
-107.802960
 20
75.970220
 30
0.0
 10
-107.708380
 20
76.075300
 30
0.0
 10
-107.661090
 20
76.243433
 30
0.0
 10
-107.661090
 20
76.474620
 30
0.0
  0
LWPOLYLINE
  5
170
100
AcDbEntity
  8
Ebene_1
 62
7
100
AcDbPolyline
 90
2
 70
0
 10
-110.923950
 20
74.677690
 30
0.0
 10
-108.212780
 20
75.718020
 30
0.0
  0
SPLINE
  5
171
100
AcDbEntity
  8
Ebene_1
 62
7
100
AcDbSpline
 70
8
 71
3
 72
8
 73
4
 74
0
 40
0
 40
0
 40
0
 40
0
 40
1
 40
1
 40
1
 40
1
 10
-107.661090
 20
92.883470
 30
0.0
 10
-107.661090
 20
93.093637
 30
0.0
 10
-107.718887
 20
93.246010
 30
0.0
 10
-107.834480
 20
93.340590
 30
0.0
  0
SPLINE
  5
172
100
AcDbEntity
  8
Ebene_1
 62
7
100
AcDbSpline
 70
8
 71
3
 72
8
 73
4
 74
0
 40
0
 40
0
 40
0
 40
0
 40
1
 40
1
 40
1
 40
1
 10
-107.834480
 20
93.340590
 30
0.0
 10
-107.939567
 20
93.445670
 30
0.0
 10
-108.065667
 20
93.524480
 30
0.0
 10
-108.212780
 20
93.577020
 30
0.0
  0
LWPOLYLINE
  5
173
100
AcDbEntity
  8
Ebene_1
 62
7
100
AcDbPolyline
 90
2
 70
0
 10
-107.661090
 20
76.474620
 30
0.0
 10
-107.661090
 20
92.883470
 30
0.0
  0
SPLINE
  5
174
100
AcDbEntity
  8
Ebene_1
 62
7
100
AcDbSpline
 70
8
 71
3
 72
8
 73
4
 74
0
 40
0
 40
0
 40
0
 40
0
 40
1
 40
1
 40
1
 40
1
 10
-101.639790
 20
93.577020
 30
0.0
 10
-101.807923
 20
93.513953
 30
0.0
 10
-101.949787
 20
93.435143
 30
0.0
 10
-102.065380
 20
93.340590
 30
0.0
  0
SPLINE
  5
175
100
AcDbEntity
  8
Ebene_1
 62
7
100
AcDbSpline
 70
8
 71
3
 72
8
 73
4
 74
0
 40
0
 40
0
 40
0
 40
0
 40
1
 40
1
 40
1
 40
1
 10
-102.065380
 20
93.340590
 30
0.0
 10
-102.170460
 20
93.246010
 30
0.0
 10
-102.223000
 20
93.093637
 30
0.0
 10
-102.223000
 20
92.883470
 30
0.0
  0
LWPOLYLINE
  5
176
100
AcDbEntity
  8
Ebene_1
 62
7
100
AcDbPolyline
 90
6
 70
0
 10
-108.212780
 20
93.577020
 30
0.0
 10
-110.923950
 20
94.617350
 30
0.0
 10
-110.923950
 20
96.083270
 30
0.0
 10
-98.944380
 20
96.083270
 30
0.0
 10
-98.944380
 20
94.617350
 30
0.0
 10
-101.639790
 20
93.577020
 30
0.0
  0
SPLINE
  5
177
100
AcDbEntity
  8
Ebene_1
 62
7
100
AcDbSpline
 70
8
 71
3
 72
8
 73
4
 74
0
 40
0
 40
0
 40
0
 40
0
 40
1
 40
1
 40
1
 40
1
 10
-102.223000
 20
76.474620
 30
0.0
 10
-102.223000
 20
76.243433
 30
0.0
 10
-102.170460
 20
76.075300
 30
0.0
 10
-102.065380
 20
75.970220
 30
0.0
  0
SPLINE
  5
178
100
AcDbEntity
  8
Ebene_1
 62
7
100
AcDbSpline
 70
8
 71
3
 72
8
 73
4
 74
0
 40
0
 40
0
 40
0
 40
0
 40
1
 40
1
 40
1
 40
1
 10
-102.065380
 20
75.970220
 30
0.0
 10
-101.949787
 20
75.865133
 30
0.0
 10
-101.807923
 20
75.781067
 30
0.0
 10
-101.639790
 20
75.718020
 30
0.0
  0
LWPOLYLINE
  5
179
100
AcDbEntity
  8
Ebene_1
 62
7
100
AcDbPolyline
 90
2
 70
0
 10
-102.223000
 20
92.883470
 30
0.0
 10
-102.223000
 20
76.474620
 30
0.0
  0
LWPOLYLINE
  5
17a
100
AcDbEntity
  8
Ebene_1
 62
7
100
AcDbPolyline
 90
5
 70
0
 10
-101.639790
 20
75.718020
 30
0.0
 10
-98.944380
 20
74.677690
 30
0.0
 10
-98.944380
 20
73.211770
 30
0.0
 10
-110.923950
 20
73.211770
 30
0.0
 10
-110.923950
 20
74.677690
 30
0.0
  0
SPLINE
  5
17b
100
AcDbEntity
  8
Ebene_1
 62
7
100
AcDbSpline
 70
8
 71
3
 72
8
 73
4
 74
0
 40
0
 40
0
 40
0
 40
0
 40
1
 40
1
 40
1
 40
1
 10
-89.144984
 20
76.569200
 30
0.0
 10
-89.144984
 20
76.338013
 30
0.0
 10
-89.087188
 20
76.175133
 30
0.0
 10
-88.971595
 20
76.080560
 30
0.0
  0
SPLINE
  5
17c
100
AcDbEntity
  8
Ebene_1
 62
7
100
AcDbSpline
 70
8
 71
3
 72
8
 73
4
 74
0
 40
0
 40
0
 40
0
 40
0
 40
1
 40
1
 40
1
 40
1
 10
-88.971595
 20
76.080560
 30
0.0
 10
-88.845494
 20
75.985980
 30
0.0
 10
-88.719394
 20
75.907167
 30
0.0
 10
-88.593293
 20
75.844120
 30
0.0
  0
LWPOLYLINE
  5
17d
100
AcDbEntity
  8
Ebene_1
 62
7
100
AcDbPolyline
 90
4
 70
0
 10
-87.726351
 20
88.249270
 30
0.0
 10
-88.813969
 20
90.219590
 30
0.0
 10
-89.144984
 20
90.219590
 30
0.0
 10
-89.144984
 20
76.569200
 30
0.0
  0
SPLINE
  5
17e
100
AcDbEntity
  8
Ebene_1
 62
7
100
AcDbSpline
 70
8
 71
3
 72
8
 73
4
 74
0
 40
0
 40
0
 40
0
 40
0
 40
1
 40
1
 40
1
 40
1
 10
-92.928004
 20
75.844120
 30
0.0
 10
-92.770378
 20
75.917680
 30
0.0
 10
-92.639023
 20
75.996493
 30
0.0
 10
-92.533939
 20
76.080560
 30
0.0
  0
SPLINE
  5
17f
100
AcDbEntity
  8
Ebene_1
 62
7
100
AcDbSpline
 70
8
 71
3
 72
8
 73
4
 74
0
 40
0
 40
0
 40
0
 40
0
 40
1
 40
1
 40
1
 40
1
 10
-92.533939
 20
76.080560
 30
0.0
 10
-92.428855
 20
76.175133
 30
0.0
 10
-92.376313
 20
76.338013
 30
0.0
 10
-92.376313
 20
76.569200
 30
0.0
  0
LWPOLYLINE
  5
180
100
AcDbEntity
  8
Ebene_1
 62
7
100
AcDbPolyline
 90
6
 70
0
 10
-88.593293
 20
75.844120
 30
0.0
 10
-86.087042
 20
74.677690
 30
0.0
 10
-86.087042
 20
73.211770
 30
0.0
 10
-95.481542
 20
73.211770
 30
0.0
 10
-95.481542
 20
74.677690
 30
0.0
 10
-92.928004
 20
75.844120
 30
0.0
  0
SPLINE
  5
181
100
AcDbEntity
  8
Ebene_1
 62
7
100
AcDbSpline
 70
8
 71
3
 72
8
 73
4
 74
0
 40
0
 40
0
 40
0
 40
0
 40
1
 40
1
 40
1
 40
1
 10
-92.376313
 20
92.883470
 30
0.0
 10
-92.376313
 20
93.093637
 30
0.0
 10
-92.434109
 20
93.246010
 30
0.0
 10
-92.549702
 20
93.340590
 30
0.0
  0
SPLINE
  5
182
100
AcDbEntity
  8
Ebene_1
 62
7
100
AcDbSpline
 70
8
 71
3
 72
8
 73
4
 74
0
 40
0
 40
0
 40
0
 40
0
 40
1
 40
1
 40
1
 40
1
 10
-92.549702
 20
93.340590
 30
0.0
 10
-92.654786
 20
93.445670
 30
0.0
 10
-92.780887
 20
93.524480
 30
0.0
 10
-92.928004
 20
93.577020
 30
0.0
  0
LWPOLYLINE
  5
183
100
AcDbEntity
  8
Ebene_1
 62
7
100
AcDbPolyline
 90
2
 70
0
 10
-92.376313
 20
76.569200
 30
0.0
 10
-92.376313
 20
92.883470
 30
0.0
  0
SPLINE
  5
184
100
AcDbEntity
  8
Ebene_1
 62
7
100
AcDbSpline
 70
8
 71
3
 72
8
 73
4
 74
0
 40
0
 40
0
 40
0
 40
0
 40
1
 40
1
 40
1
 40
1
 10
-76.046276
 20
92.788890
 30
0.0
 10
-76.046276
 20
92.999063
 30
0.0
 10
-76.098818
 20
93.140927
 30
0.0
 10
-76.203902
 20
93.214480
 30
0.0
  0
SPLINE
  5
185
100
AcDbEntity
  8
Ebene_1
 62
7
100
AcDbSpline
 70
8
 71
3
 72
8
 73
4
 74
0
 40
0
 40
0
 40
0
 40
0
 40
1
 40
1
 40
1
 40
1
 10
-76.203902
 20
93.214480
 30
0.0
 10
-76.308986
 20
93.298553
 30
0.0
 10
-76.450849
 20
93.382623
 30
0.0
 10
-76.629492
 20
93.466690
 30
0.0
  0
LWPOLYLINE
  5
186
100
AcDbEntity
  8
Ebene_1
 62
7
100
AcDbPolyline
 90
8
 70
0
 10
-92.928004
 20
93.577020
 30
0.0
 10
-95.560355
 20
94.617350
 30
0.0
 10
-95.560355
 20
96.083270
 30
0.0
 10
-87.017035
 20
96.083270
 30
0.0
 10
-77.512197
 20
82.432880
 30
0.0
 10
-76.377291
 20
80.446790
 30
0.0
 10
-76.046276
 20
80.446790
 30
0.0
 10
-76.046276
 20
92.788890
 30
0.0
  0
SPLINE
  5
187
100
AcDbEntity
  8
Ebene_1
 62
7
100
AcDbSpline
 70
8
 71
3
 72
8
 73
4
 74
0
 40
0
 40
0
 40
0
 40
0
 40
1
 40
1
 40
1
 40
1
 10
-72.294781
 20
93.466690
 30
0.0
 10
-72.431390
 20
93.403623
 30
0.0
 10
-72.562745
 20
93.324810
 30
0.0
 10
-72.688846
 20
93.230250
 30
0.0
  0
SPLINE
  5
188
100
AcDbEntity
  8
Ebene_1
 62
7
100
AcDbSpline
 70
8
 71
3
 72
8
 73
4
 74
0
 40
0
 40
0
 40
0
 40
0
 40
1
 40
1
 40
1
 40
1
 10
-72.688846
 20
93.230250
 30
0.0
 10
-72.804438
 20
93.146183
 30
0.0
 10
-72.862234
 20
92.999063
 30
0.0
 10
-72.862234
 20
92.788890
 30
0.0
  0
LWPOLYLINE
  5
189
100
AcDbEntity
  8
Ebene_1
 62
7
100
AcDbPolyline
 90
6
 70
0
 10
-76.629492
 20
93.466690
 30
0.0
 10
-79.151505
 20
94.617350
 30
0.0
 10
-79.151505
 20
96.083270
 30
0.0
 10
-69.757005
 20
96.083270
 30
0.0
 10
-69.757005
 20
94.617350
 30
0.0
 10
-72.294781
 20
93.466690
 30
0.0
  0
SPLINE
  5
18a
100
AcDbEntity
  8
Ebene_1
 62
7
100
AcDbSpline
 70
8
 71
3
 72
8
 73
4
 74
0
 40
0
 40
0
 40
0
 40
0
 40
1
 40
1
 40
1
 40
1
 10
-54.727879
 20
72.691600
 30
0.0
 10
-56.388204
 20
72.691600
 30
0.0
 10
-57.953954
 20
72.943800
 30
0.0
 10
-59.425129
 20
73.448200
 30
0.0
  0
SPLINE
  5
18b
100
AcDbEntity
  8
Ebene_1
 62
7
100
AcDbSpline
 70
8
 71
3
 72
8
 73
4
 74
0
 40
0
 40
0
 40
0
 40
0
 40
1
 40
1
 40
1
 40
1
 10
-59.425129
 20
73.448200
 30
0.0
 10
-60.896303
 20
73.963113
 30
0.0
 10
-62.183581
 20
74.719720
 30
0.0
 10
-63.286962
 20
75.718020
 30
0.0
  0
SPLINE
  5
18c
100
AcDbEntity
  8
Ebene_1
 62
7
100
AcDbSpline
 70
8
 71
3
 72
8
 73
4
 74
0
 40
0
 40
0
 40
0
 40
0
 40
1
 40
1
 40
1
 40
1
 10
-63.286962
 20
75.718020
 30
0.0
 10
-64.379834
 20
76.716313
 30
0.0
 10
-65.246776
 20
77.956303
 30
0.0
 10
-65.887788
 20
79.437990
 30
0.0
  0
SPLINE
  5
18d
100
AcDbEntity
  8
Ebene_1
 62
7
100
AcDbSpline
 70
8
 71
3
 72
8
 73
4
 74
0
 40
0
 40
0
 40
0
 40
0
 40
1
 40
1
 40
1
 40
1
 10
-65.887788
 20
79.437990
 30
0.0
 10
-66.518291
 20
80.919670
 30
0.0
 10
-66.833543
 20
82.632537
 30
0.0
 10
-66.833543
 20
84.576590
 30
0.0
  0
SPLINE
  5
18e
100
AcDbEntity
  8
Ebene_1
 62
7
100
AcDbSpline
 70
8
 71
3
 72
8
 73
4
 74
0
 40
0
 40
0
 40
0
 40
0
 40
1
 40
1
 40
1
 40
1
 10
-66.833543
 20
84.576590
 30
0.0
 10
-66.833543
 20
86.426063
 30
0.0
 10
-66.523546
 20
88.091643
 30
0.0
 10
-65.903551
 20
89.573330
 30
0.0
  0
SPLINE
  5
18f
100
AcDbEntity
  8
Ebene_1
 62
7
100
AcDbSpline
 70
8
 71
3
 72
8
 73
4
 74
0
 40
0
 40
0
 40
0
 40
0
 40
1
 40
1
 40
1
 40
1
 10
-65.903551
 20
89.573330
 30
0.0
 10
-65.283556
 20
91.055010
 30
0.0
 10
-64.421868
 20
92.316017
 30
0.0
 10
-63.318487
 20
93.356350
 30
0.0
  0
SPLINE
  5
190
100
AcDbEntity
  8
Ebene_1
 62
7
100
AcDbSpline
 70
8
 71
3
 72
8
 73
4
 74
0
 40
0
 40
0
 40
0
 40
0
 40
1
 40
1
 40
1
 40
1
 10
-63.318487
 20
93.356350
 30
0.0
 10
-62.215106
 20
94.396677
 30
0.0
 10
-60.901557
 20
95.195313
 30
0.0
 10
-59.377841
 20
95.752260
 30
0.0
  0
SPLINE
  5
191
100
AcDbEntity
  8
Ebene_1
 62
7
100
AcDbSpline
 70
8
 71
3
 72
8
 73
4
 74
0
 40
0
 40
0
 40
0
 40
0
 40
1
 40
1
 40
1
 40
1
 10
-59.377841
 20
95.752260
 30
0.0
 10
-57.843616
 20
96.309207
 30
0.0
 10
-56.167528
 20
96.587680
 30
0.0
 10
-54.349577
 20
96.587680
 30
0.0
  0
SPLINE
  5
192
100
AcDbEntity
  8
Ebene_1
 62
7
100
AcDbSpline
 70
8
 71
3
 72
8
 73
4
 74
0
 40
0
 40
0
 40
0
 40
0
 40
1
 40
1
 40
1
 40
1
 10
-54.349577
 20
96.587680
 30
0.0
 10
-53.193654
 20
96.587680
 30
0.0
 10
-52.163831
 20
96.545647
 30
0.0
 10
-51.260110
 20
96.461580
 30
0.0
  0
SPLINE
  5
193
100
AcDbEntity
  8
Ebene_1
 62
7
100
AcDbSpline
 70
8
 71
3
 72
8
 73
4
 74
0
 40
0
 40
0
 40
0
 40
0
 40
1
 40
1
 40
1
 40
1
 10
-51.260110
 20
96.461580
 30
0.0
 10
-50.356389
 20
96.388020
 30
0.0
 10
-49.547243
 20
96.288190
 30
0.0
 10
-48.832672
 20
96.162090
 30
0.0
  0
SPLINE
  5
194
100
AcDbEntity
  8
Ebene_1
 62
7
100
AcDbSpline
 70
8
 71
3
 72
8
 73
4
 74
0
 40
0
 40
0
 40
0
 40
0
 40
1
 40
1
 40
1
 40
1
 10
-48.832672
 20
96.162090
 30
0.0
 10
-48.118101
 20
96.046497
 30
0.0
 10
-47.477090
 20
95.920397
 30
0.0
 10
-46.909637
 20
95.783790
 30
0.0
  0
SPLINE
  5
195
100
AcDbEntity
  8
Ebene_1
 62
7
100
AcDbSpline
 70
8
 71
3
 72
8
 73
4
 74
0
 40
0
 40
0
 40
0
 40
0
 40
1
 40
1
 40
1
 40
1
 10
-46.909637
 20
95.783790
 30
0.0
 10
-46.331676
 20
95.657683
 30
0.0
 10
-45.795748
 20
95.542090
 30
0.0
 10
-45.301853
 20
95.437010
 30
0.0
  0
LWPOLYLINE
  5
196
100
AcDbEntity
  8
Ebene_1
 62
7
100
AcDbPolyline
 90
5
 70
0
 10
-72.862234
 20
92.788890
 30
0.0
 10
-72.862234
 20
76.679530
 30
0.0
 10
-73.350874
 20
73.054140
 30
0.0
 10
-77.086607
 20
73.054140
 30
0.0
 10
-87.726351
 20
88.249270
 30
0.0
  0
SPLINE
  5
197
100
AcDbEntity
  8
Ebene_1
 62
7
100
AcDbSpline
 70
8
 71
3
 72
8
 73
4
 74
0
 40
0
 40
0
 40
0
 40
0
 40
1
 40
1
 40
1
 40
1
 10
-48.485895
 20
91.985000
 30
0.0
 10
-48.527928
 20
92.142627
 30
0.0
 10
-48.627758
 20
92.273983
 30
0.0
 10
-48.785384
 20
92.379070
 30
0.0
  0
SPLINE
  5
198
100
AcDbEntity
  8
Ebene_1
 62
7
100
AcDbSpline
 70
8
 71
3
 72
8
 73
4
 74
0
 40
0
 40
0
 40
0
 40
0
 40
1
 40
1
 40
1
 40
1
 10
-48.785384
 20
92.379070
 30
0.0
 10
-48.932502
 20
92.484150
 30
0.0
 10
-49.074365
 20
92.562963
 30
0.0
 10
-49.210974
 20
92.615510
 30
0.0
  0
SPLINE
  5
199
100
AcDbEntity
  8
Ebene_1
 62
7
100
AcDbSpline
 70
8
 71
3
 72
8
 73
4
 74
0
 40
0
 40
0
 40
0
 40
0
 40
1
 40
1
 40
1
 40
1
 10
-49.210974
 20
92.615510
 30
0.0
 10
-49.578768
 20
92.773137
 30
0.0
 10
-49.988595
 20
92.915000
 30
0.0
 10
-50.440456
 20
93.041100
 30
0.0
  0
SPLINE
  5
19a
100
AcDbEntity
  8
Ebene_1
 62
7
100
AcDbSpline
 70
8
 71
3
 72
8
 73
4
 74
0
 40
0
 40
0
 40
0
 40
0
 40
1
 40
1
 40
1
 40
1
 10
-50.440456
 20
93.041100
 30
0.0
 10
-50.881808
 20
93.177707
 30
0.0
 10
-51.333669
 20
93.293297
 30
0.0
 10
-51.796038
 20
93.387870
 30
0.0
  0
SPLINE
  5
19b
100
AcDbEntity
  8
Ebene_1
 62
7
100
AcDbSpline
 70
8
 71
3
 72
8
 73
4
 74
0
 40
0
 40
0
 40
0
 40
0
 40
1
 40
1
 40
1
 40
1
 10
-51.796038
 20
93.387870
 30
0.0
 10
-52.258407
 20
93.492957
 30
0.0
 10
-52.715522
 20
93.571770
 30
0.0
 10
-53.167383
 20
93.624310
 30
0.0
  0
SPLINE
  5
19c
100
AcDbEntity
  8
Ebene_1
 62
7
100
AcDbSpline
 70
8
 71
3
 72
8
 73
4
 74
0
 40
0
 40
0
 40
0
 40
0
 40
1
 40
1
 40
1
 40
1
 10
-53.167383
 20
93.624310
 30
0.0
 10
-53.619244
 20
93.676843
 30
0.0
 10
-54.034325
 20
93.703110
 30
0.0
 10
-54.412627
 20
93.703110
 30
0.0
  0
SPLINE
  5
19d
100
AcDbEntity
  8
Ebene_1
 62
7
100
AcDbSpline
 70
8
 71
3
 72
8
 73
4
 74
0
 40
0
 40
0
 40
0
 40
0
 40
1
 40
1
 40
1
 40
1
 10
-54.412627
 20
93.703110
 30
0.0
 10
-55.358382
 20
93.703110
 30
0.0
 10
-56.241086
 20
93.529723
 30
0.0
 10
-57.060741
 20
93.182950
 30
0.0
  0
SPLINE
  5
19e
100
AcDbEntity
  8
Ebene_1
 62
7
100
AcDbSpline
 70
8
 71
3
 72
8
 73
4
 74
0
 40
0
 40
0
 40
0
 40
0
 40
1
 40
1
 40
1
 40
1
 10
-57.060741
 20
93.182950
 30
0.0
 10
-57.869887
 20
92.836170
 30
0.0
 10
-58.568695
 20
92.310750
 30
0.0
 10
-59.157165
 20
91.606690
 30
0.0
  0
SPLINE
  5
19f
100
AcDbEntity
  8
Ebene_1
 62
7
100
AcDbSpline
 70
8
 71
3
 72
8
 73
4
 74
0
 40
0
 40
0
 40
0
 40
0
 40
1
 40
1
 40
1
 40
1
 10
-59.157165
 20
91.606690
 30
0.0
 10
-59.745634
 20
90.913137
 30
0.0
 10
-60.208003
 20
90.030433
 30
0.0
 10
-60.544272
 20
88.958580
 30
0.0
  0
SPLINE
  5
1a0
100
AcDbEntity
  8
Ebene_1
 62
7
100
AcDbSpline
 70
8
 71
3
 72
8
 73
4
 74
0
 40
0
 40
0
 40
0
 40
0
 40
1
 40
1
 40
1
 40
1
 10
-60.544272
 20
88.958580
 30
0.0
 10
-60.880541
 20
87.897233
 30
0.0
 10
-61.048675
 20
86.651987
 30
0.0
 10
-61.048675
 20
85.222840
 30
0.0
  0
SPLINE
  5
1a1
100
AcDbEntity
  8
Ebene_1
 62
7
100
AcDbSpline
 70
8
 71
3
 72
8
 73
4
 74
0
 40
0
 40
0
 40
0
 40
0
 40
1
 40
1
 40
1
 40
1
 10
-61.048675
 20
85.222840
 30
0.0
 10
-61.048675
 20
83.793700
 30
0.0
 10
-60.901557
 20
82.485407
 30
0.0
 10
-60.607322
 20
81.297960
 30
0.0
  0
SPLINE
  5
1a2
100
AcDbEntity
  8
Ebene_1
 62
7
100
AcDbSpline
 70
8
 71
3
 72
8
 73
4
 74
0
 40
0
 40
0
 40
0
 40
0
 40
1
 40
1
 40
1
 40
1
 10
-60.607322
 20
81.297960
 30
0.0
 10
-60.302579
 20
80.121020
 30
0.0
 10
-59.861226
 20
79.106960
 30
0.0
 10
-59.283265
 20
78.255780
 30
0.0
  0
SPLINE
  5
1a3
100
AcDbEntity
  8
Ebene_1
 62
7
100
AcDbSpline
 70
8
 71
3
 72
8
 73
4
 74
0
 40
0
 40
0
 40
0
 40
0
 40
1
 40
1
 40
1
 40
1
 10
-59.283265
 20
78.255780
 30
0.0
 10
-58.694796
 20
77.404600
 30
0.0
 10
-57.974971
 20
76.742573
 30
0.0
 10
-57.123791
 20
76.269700
 30
0.0
  0
SPLINE
  5
1a4
100
AcDbEntity
  8
Ebene_1
 62
7
100
AcDbSpline
 70
8
 71
3
 72
8
 73
4
 74
0
 40
0
 40
0
 40
0
 40
0
 40
1
 40
1
 40
1
 40
1
 10
-57.123791
 20
76.269700
 30
0.0
 10
-56.262103
 20
75.796820
 30
0.0
 10
-55.274315
 20
75.560380
 30
0.0
 10
-54.160426
 20
75.560380
 30
0.0
  0
SPLINE
  5
1a5
100
AcDbEntity
  8
Ebene_1
 62
7
100
AcDbSpline
 70
8
 71
3
 72
8
 73
4
 74
0
 40
0
 40
0
 40
0
 40
0
 40
1
 40
1
 40
1
 40
1
 10
-54.160426
 20
75.560380
 30
0.0
 10
-53.719073
 20
75.560380
 30
0.0
 10
-53.309246
 20
75.591913
 30
0.0
 10
-52.930944
 20
75.654980
 30
0.0
  0
SPLINE
  5
1a6
100
AcDbEntity
  8
Ebene_1
 62
7
100
AcDbSpline
 70
8
 71
3
 72
8
 73
4
 74
0
 40
0
 40
0
 40
0
 40
0
 40
1
 40
1
 40
1
 40
1
 10
-52.930944
 20
75.654980
 30
0.0
 10
-52.552642
 20
75.718047
 30
0.0
 10
-52.211119
 20
75.796857
 30
0.0
 10
-51.906376
 20
75.891410
 30
0.0
  0
SPLINE
  5
1a7
100
AcDbEntity
  8
Ebene_1
 62
7
100
AcDbSpline
 70
8
 71
3
 72
8
 73
4
 74
0
 40
0
 40
0
 40
0
 40
0
 40
1
 40
1
 40
1
 40
1
 10
-51.906376
 20
75.891410
 30
0.0
 10
-51.601633
 20
75.985990
 30
0.0
 10
-51.333669
 20
76.080567
 30
0.0
 10
-51.102484
 20
76.175140
 30
0.0
  0
SPLINE
  5
1a8
100
AcDbEntity
  8
Ebene_1
 62
7
100
AcDbSpline
 70
8
 71
3
 72
8
 73
4
 74
0
 40
0
 40
0
 40
0
 40
0
 40
1
 40
1
 40
1
 40
1
 10
-51.102484
 20
76.175140
 30
0.0
 10
-50.871299
 20
76.269713
 30
0.0
 10
-50.682148
 20
76.348527
 30
0.0
 10
-50.535031
 20
76.411580
 30
0.0
  0
LWPOLYLINE
  5
1a9
100
AcDbEntity
  8
Ebene_1
 62
7
100
AcDbPolyline
 90
4
 70
0
 10
-45.301853
 20
95.437010
 30
0.0
 10
-45.301853
 20
88.895540
 30
0.0
 10
-47.697766
 20
88.895540
 30
0.0
 10
-48.485895
 20
91.985000
 30
0.0
  0
SPLINE
  5
1aa
100
AcDbEntity
  8
Ebene_1
 62
7
100
AcDbSpline
 70
8
 71
3
 72
8
 73
4
 74
0
 40
0
 40
0
 40
0
 40
0
 40
1
 40
1
 40
1
 40
1
 10
-50.535031
 20
81.077300
 30
0.0
 10
-50.535031
 20
81.287473
 30
0.0
 10
-50.592827
 20
81.439847
 30
0.0
 10
-50.708420
 20
81.534420
 30
0.0
  0
SPLINE
  5
1ab
100
AcDbEntity
  8
Ebene_1
 62
7
100
AcDbSpline
 70
8
 71
3
 72
8
 73
4
 74
0
 40
0
 40
0
 40
0
 40
0
 40
1
 40
1
 40
1
 40
1
 10
-50.708420
 20
81.534420
 30
0.0
 10
-50.813503
 20
81.628993
 30
0.0
 10
-50.939604
 20
81.702553
 30
0.0
 10
-51.086722
 20
81.755100
 30
0.0
  0
LWPOLYLINE
  5
1ac
100
AcDbEntity
  8
Ebene_1
 62
7
100
AcDbPolyline
 90
2
 70
0
 10
-50.535031
 20
76.411580
 30
0.0
 10
-50.535031
 20
81.077300
 30
0.0
  0
SPLINE
  5
1ad
100
AcDbEntity
  8
Ebene_1
 62
7
100
AcDbSpline
 70
8
 71
3
 72
8
 73
4
 74
0
 40
0
 40
0
 40
0
 40
0
 40
1
 40
1
 40
1
 40
1
 10
-44.576774
 20
81.755100
 30
0.0
 10
-44.713383
 20
81.681540
 30
0.0
 10
-44.844738
 20
81.602727
 30
0.0
 10
-44.970839
 20
81.518660
 30
0.0
  0
SPLINE
  5
1ae
100
AcDbEntity
  8
Ebene_1
 62
7
100
AcDbSpline
 70
8
 71
3
 72
8
 73
4
 74
0
 40
0
 40
0
 40
0
 40
0
 40
1
 40
1
 40
1
 40
1
 10
-44.970839
 20
81.518660
 30
0.0
 10
-45.086431
 20
81.434593
 30
0.0
 10
-45.144227
 20
81.287473
 30
0.0
 10
-45.144227
 20
81.077300
 30
0.0
  0
LWPOLYLINE
  5
1af
100
AcDbEntity
  8
Ebene_1
 62
7
100
AcDbPolyline
 90
6
 70
0
 10
-51.086722
 20
81.755100
 30
0.0
 10
-54.491440
 20
82.842710
 30
0.0
 10
-54.491440
 20
84.277110
 30
0.0
 10
-42.574926
 20
84.277110
 30
0.0
 10
-42.574926
 20
82.842710
 30
0.0
 10
-44.576774
 20
81.755100
 30
0.0
  0
SPLINE
  5
1b0
100
AcDbEntity
  8
Ebene_1
 62
7
100
AcDbSpline
 70
8
 71
3
 72
8
 73
4
 74
0
 40
0
 40
0
 40
0
 40
0
 40
1
 40
1
 40
1
 40
1
 10
-45.144227
 20
78.602580
 30
0.0
 10
-45.144227
 20
77.562247
 30
0.0
 10
-45.138974
 20
76.690050
 30
0.0
 10
-45.128467
 20
75.985990
 30
0.0
  0
SPLINE
  5
1b1
100
AcDbEntity
  8
Ebene_1
 62
7
100
AcDbSpline
 70
8
 71
3
 72
8
 73
4
 74
0
 40
0
 40
0
 40
0
 40
0
 40
1
 40
1
 40
1
 40
1
 10
-45.128467
 20
75.985990
 30
0.0
 10
-45.117960
 20
75.281930
 30
0.0
 10
-45.086434
 20
74.724987
 30
0.0
 10
-45.033887
 20
74.315160
 30
0.0
  0
SPLINE
  5
1b2
100
AcDbEntity
  8
Ebene_1
 62
7
100
AcDbSpline
 70
8
 71
3
 72
8
 73
4
 74
0
 40
0
 40
0
 40
0
 40
0
 40
1
 40
1
 40
1
 40
1
 10
-45.033887
 20
74.315160
 30
0.0
 10
-45.674899
 20
74.104987
 30
0.0
 10
-46.378961
 20
73.900073
 30
0.0
 10
-47.146074
 20
73.700420
 30
0.0
  0
SPLINE
  5
1b3
100
AcDbEntity
  8
Ebene_1
 62
7
100
AcDbSpline
 70
8
 71
3
 72
8
 73
4
 74
0
 40
0
 40
0
 40
0
 40
0
 40
1
 40
1
 40
1
 40
1
 10
-47.146074
 20
73.700420
 30
0.0
 10
-47.902678
 20
73.511267
 30
0.0
 10
-48.701315
 20
73.343130
 30
0.0
 10
-49.541986
 20
73.196010
 30
0.0
  0
SPLINE
  5
1b4
100
AcDbEntity
  8
Ebene_1
 62
7
100
AcDbSpline
 70
8
 71
3
 72
8
 73
4
 74
0
 40
0
 40
0
 40
0
 40
0
 40
1
 40
1
 40
1
 40
1
 10
-49.541986
 20
73.196010
 30
0.0
 10
-50.372149
 20
73.038383
 30
0.0
 10
-51.228583
 20
72.917537
 30
0.0
 10
-52.111288
 20
72.833470
 30
0.0
  0
SPLINE
  5
1b5
100
AcDbEntity
  8
Ebene_1
 62
7
100
AcDbSpline
 70
8
 71
3
 72
8
 73
4
 74
0
 40
0
 40
0
 40
0
 40
0
 40
1
 40
1
 40
1
 40
1
 10
-52.111288
 20
72.833470
 30
0.0
 10
-52.983484
 20
72.738897
 30
0.0
 10
-53.855680
 20
72.691610
 30
0.0
 10
-54.727877
 20
72.691610
 30
0.0
  0
LWPOLYLINE
  5
1b6
100
AcDbEntity
  8
Ebene_1
 62
7
100
AcDbPolyline
 90
2
 70
0
 10
-45.144227
 20
81.077300
 30
0.0
 10
-45.144227
 20
78.602580
 30
0.0
  0
SPLINE
  5
1b7
100
AcDbEntity
  8
Ebene_1
 62
7
100
AcDbSpline
 70
8
 71
3
 72
8
 73
4
 74
0
 40
0
 40
0
 40
0
 40
0
 40
1
 40
1
 40
1
 40
1
 10
-164.478800
 20
38.013920
 30
0.0
 10
-166.380820
 20
38.013920
 30
0.0
 10
-168.067417
 20
38.287137
 30
0.0
 10
-169.538590
 20
38.833570
 30
0.0
  0
SPLINE
  5
1b8
100
AcDbEntity
  8
Ebene_1
 62
7
100
AcDbSpline
 70
8
 71
3
 72
8
 73
4
 74
0
 40
0
 40
0
 40
0
 40
0
 40
1
 40
1
 40
1
 40
1
 10
-169.538590
 20
38.833570
 30
0.0
 10
-170.999257
 20
39.380003
 30
0.0
 10
-172.233993
 20
40.168133
 30
0.0
 10
-173.242800
 20
41.197960
 30
0.0
  0
SPLINE
  5
1b9
100
AcDbEntity
  8
Ebene_1
 62
7
100
AcDbSpline
 70
8
 71
3
 72
8
 73
4
 74
0
 40
0
 40
0
 40
0
 40
0
 40
1
 40
1
 40
1
 40
1
 10
-173.242800
 20
41.197960
 30
0.0
 10
-174.241100
 20
42.238287
 30
0.0
 10
-174.997703
 20
43.499293
 30
0.0
 10
-175.512610
 20
44.980980
 30
0.0
  0
SPLINE
  5
1ba
100
AcDbEntity
  8
Ebene_1
 62
7
100
AcDbSpline
 70
8
 71
3
 72
8
 73
4
 74
0
 40
0
 40
0
 40
0
 40
0
 40
1
 40
1
 40
1
 40
1
 10
-175.512610
 20
44.980980
 30
0.0
 10
-176.027523
 20
46.462660
 30
0.0
 10
-176.284980
 20
48.138747
 30
0.0
 10
-176.284980
 20
50.009240
 30
0.0
  0
SPLINE
  5
1bb
100
AcDbEntity
  8
Ebene_1
 62
7
100
AcDbSpline
 70
8
 71
3
 72
8
 73
4
 74
0
 40
0
 40
0
 40
0
 40
0
 40
1
 40
1
 40
1
 40
1
 10
-176.284980
 20
50.009240
 30
0.0
 10
-176.284980
 20
51.764140
 30
0.0
 10
-176.017017
 20
53.371923
 30
0.0
 10
-175.481090
 20
54.832590
 30
0.0
  0
SPLINE
  5
1bc
100
AcDbEntity
  8
Ebene_1
 62
7
100
AcDbSpline
 70
8
 71
3
 72
8
 73
4
 74
0
 40
0
 40
0
 40
0
 40
0
 40
1
 40
1
 40
1
 40
1
 10
-175.481090
 20
54.832590
 30
0.0
 10
-174.945157
 20
56.293257
 30
0.0
 10
-174.167533
 20
57.549010
 30
0.0
 10
-173.148220
 20
58.599850
 30
0.0
  0
SPLINE
  5
1bd
100
AcDbEntity
  8
Ebene_1
 62
7
100
AcDbSpline
 70
8
 71
3
 72
8
 73
4
 74
0
 40
0
 40
0
 40
0
 40
0
 40
1
 40
1
 40
1
 40
1
 10
-173.148220
 20
58.599850
 30
0.0
 10
-172.128907
 20
59.661197
 30
0.0
 10
-170.888917
 20
60.480850
 30
0.0
 10
-169.428250
 20
61.058810
 30
0.0
  0
SPLINE
  5
1be
100
AcDbEntity
  8
Ebene_1
 62
7
100
AcDbSpline
 70
8
 71
3
 72
8
 73
4
 74
0
 40
0
 40
0
 40
0
 40
0
 40
1
 40
1
 40
1
 40
1
 10
-169.428250
 20
61.058810
 30
0.0
 10
-167.957077
 20
61.647283
 30
0.0
 10
-166.296753
 20
61.941520
 30
0.0
 10
-164.447280
 20
61.941520
 30
0.0
  0
SPLINE
  5
1bf
100
AcDbEntity
  8
Ebene_1
 62
7
100
AcDbSpline
 70
8
 71
3
 72
8
 73
4
 74
0
 40
0
 40
0
 40
0
 40
0
 40
1
 40
1
 40
1
 40
1
 10
-164.447280
 20
61.941520
 30
0.0
 10
-162.429667
 20
61.941520
 30
0.0
 10
-160.685273
 20
61.642030
 30
0.0
 10
-159.214100
 20
61.043050
 30
0.0
  0
SPLINE
  5
1c0
100
AcDbEntity
  8
Ebene_1
 62
7
100
AcDbSpline
 70
8
 71
3
 72
8
 73
4
 74
0
 40
0
 40
0
 40
0
 40
0
 40
1
 40
1
 40
1
 40
1
 10
-159.214100
 20
61.043050
 30
0.0
 10
-157.732420
 20
60.444070
 30
0.0
 10
-156.508193
 20
59.613907
 30
0.0
 10
-155.541420
 20
58.552560
 30
0.0
  0
SPLINE
  5
1c1
100
AcDbEntity
  8
Ebene_1
 62
7
100
AcDbSpline
 70
8
 71
3
 72
8
 73
4
 74
0
 40
0
 40
0
 40
0
 40
0
 40
1
 40
1
 40
1
 40
1
 10
-155.541420
 20
58.552560
 30
0.0
 10
-154.564140
 20
57.491213
 30
0.0
 10
-153.839060
 20
56.230207
 30
0.0
 10
-153.366180
 20
54.769540
 30
0.0
  0
SPLINE
  5
1c2
100
AcDbEntity
  8
Ebene_1
 62
7
100
AcDbSpline
 70
8
 71
3
 72
8
 73
4
 74
0
 40
0
 40
0
 40
0
 40
0
 40
1
 40
1
 40
1
 40
1
 10
-153.366180
 20
54.769540
 30
0.0
 10
-152.893307
 20
53.308873
 30
0.0
 10
-152.656870
 20
51.722107
 30
0.0
 10
-152.656870
 20
50.009240
 30
0.0
  0
SPLINE
  5
1c3
100
AcDbEntity
  8
Ebene_1
 62
7
100
AcDbSpline
 70
8
 71
3
 72
8
 73
4
 74
0
 40
0
 40
0
 40
0
 40
0
 40
1
 40
1
 40
1
 40
1
 10
-152.656870
 20
50.009240
 30
0.0
 10
-152.656870
 20
48.989927
 30
0.0
 10
-152.756697
 20
47.981123
 30
0.0
 10
-152.956350
 20
46.982830
 30
0.0
  0
SPLINE
  5
1c4
100
AcDbEntity
  8
Ebene_1
 62
7
100
AcDbSpline
 70
8
 71
3
 72
8
 73
4
 74
0
 40
0
 40
0
 40
0
 40
0
 40
1
 40
1
 40
1
 40
1
 10
-152.956350
 20
46.982830
 30
0.0
 10
-153.156010
 20
45.995037
 30
0.0
 10
-153.460753
 20
45.054533
 30
0.0
 10
-153.870580
 20
44.161320
 30
0.0
  0
SPLINE
  5
1c5
100
AcDbEntity
  8
Ebene_1
 62
7
100
AcDbSpline
 70
8
 71
3
 72
8
 73
4
 74
0
 40
0
 40
0
 40
0
 40
0
 40
1
 40
1
 40
1
 40
1
 10
-153.870580
 20
44.161320
 30
0.0
 10
-154.280407
 20
43.278620
 30
0.0
 10
-154.805827
 20
42.458967
 30
0.0
 10
-155.446840
 20
41.702360
 30
0.0
  0
SPLINE
  5
1c6
100
AcDbEntity
  8
Ebene_1
 62
7
100
AcDbSpline
 70
8
 71
3
 72
8
 73
4
 74
0
 40
0
 40
0
 40
0
 40
0
 40
1
 40
1
 40
1
 40
1
 10
-155.446840
 20
41.702360
 30
0.0
 10
-156.087853
 20
40.956267
 30
0.0
 10
-156.844457
 20
40.310000
 30
0.0
 10
-157.716650
 20
39.763560
 30
0.0
  0
SPLINE
  5
1c7
100
AcDbEntity
  8
Ebene_1
 62
7
100
AcDbSpline
 70
8
 71
3
 72
8
 73
4
 74
0
 40
0
 40
0
 40
0
 40
0
 40
1
 40
1
 40
1
 40
1
 10
-157.716650
 20
39.763560
 30
0.0
 10
-158.588850
 20
39.217127
 30
0.0
 10
-159.587150
 20
38.791537
 30
0.0
 10
-160.711550
 20
38.486790
 30
0.0
  0
SPLINE
  5
1c8
100
AcDbEntity
  8
Ebene_1
 62
7
100
AcDbSpline
 70
8
 71
3
 72
8
 73
4
 74
0
 40
0
 40
0
 40
0
 40
0
 40
1
 40
1
 40
1
 40
1
 10
-160.711550
 20
38.486790
 30
0.0
 10
-161.835943
 20
38.171543
 30
0.0
 10
-163.091693
 20
38.013920
 30
0.0
 10
-164.478800
 20
38.013920
 30
0.0
  0
LWPOLYLINE
  5
1c9
100
AcDbEntity
  8
Ebene_1
 62
7
100
AcDbPolyline
 90
1
 70
1
 10
-54.727877
 20
72.691610
 30
0.0
  0
SPLINE
  5
1ca
100
AcDbEntity
  8
Ebene_1
 62
7
100
AcDbSpline
 70
8
 71
3
 72
8
 73
4
 74
0
 40
0
 40
0
 40
0
 40
0
 40
1
 40
1
 40
1
 40
1
 10
-164.242360
 20
40.803890
 30
0.0
 10
-163.286100
 20
40.803890
 30
0.0
 10
-162.450683
 20
41.008803
 30
0.0
 10
-161.736110
 20
41.418630
 30
0.0
  0
SPLINE
  5
1cb
100
AcDbEntity
  8
Ebene_1
 62
7
100
AcDbSpline
 70
8
 71
3
 72
8
 73
4
 74
0
 40
0
 40
0
 40
0
 40
0
 40
1
 40
1
 40
1
 40
1
 10
-161.736110
 20
41.418630
 30
0.0
 10
-161.021543
 20
41.838970
 30
0.0
 10
-160.427820
 20
42.427440
 30
0.0
 10
-159.954940
 20
43.184040
 30
0.0
  0
SPLINE
  5
1cc
100
AcDbEntity
  8
Ebene_1
 62
7
100
AcDbSpline
 70
8
 71
3
 72
8
 73
4
 74
0
 40
0
 40
0
 40
0
 40
0
 40
1
 40
1
 40
1
 40
1
 10
-159.954940
 20
43.184040
 30
0.0
 10
-159.482067
 20
43.940647
 30
0.0
 10
-159.130037
 20
44.849623
 30
0.0
 10
-158.898850
 20
45.910970
 30
0.0
  0
SPLINE
  5
1cd
100
AcDbEntity
  8
Ebene_1
 62
7
100
AcDbSpline
 70
8
 71
3
 72
8
 73
4
 74
0
 40
0
 40
0
 40
0
 40
0
 40
1
 40
1
 40
1
 40
1
 10
-158.898850
 20
45.910970
 30
0.0
 10
-158.657157
 20
46.982823
 30
0.0
 10
-158.536310
 20
48.175527
 30
0.0
 10
-158.536310
 20
49.489080
 30
0.0
  0
SPLINE
  5
1ce
100
AcDbEntity
  8
Ebene_1
 62
7
100
AcDbSpline
 70
8
 71
3
 72
8
 73
4
 74
0
 40
0
 40
0
 40
0
 40
0
 40
1
 40
1
 40
1
 40
1
 10
-158.536310
 20
49.489080
 30
0.0
 10
-158.536310
 20
51.002287
 30
0.0
 10
-158.662410
 20
52.352613
 30
0.0
 10
-158.914610
 20
53.540060
 30
0.0
  0
SPLINE
  5
1cf
100
AcDbEntity
  8
Ebene_1
 62
7
100
AcDbSpline
 70
8
 71
3
 72
8
 73
4
 74
0
 40
0
 40
0
 40
0
 40
0
 40
1
 40
1
 40
1
 40
1
 10
-158.914610
 20
53.540060
 30
0.0
 10
-159.156303
 20
54.738020
 30
0.0
 10
-159.534607
 20
55.746827
 30
0.0
 10
-160.049520
 20
56.566480
 30
0.0
  0
SPLINE
  5
1d0
100
AcDbEntity
  8
Ebene_1
 62
7
100
AcDbSpline
 70
8
 71
3
 72
8
 73
4
 74
0
 40
0
 40
0
 40
0
 40
0
 40
1
 40
1
 40
1
 40
1
 10
-160.049520
 20
56.566480
 30
0.0
 10
-160.553920
 20
57.396640
 30
0.0
 10
-161.194930
 20
58.032397
 30
0.0
 10
-161.972550
 20
58.473750
 30
0.0
  0
SPLINE
  5
1d1
100
AcDbEntity
  8
Ebene_1
 62
7
100
AcDbSpline
 70
8
 71
3
 72
8
 73
4
 74
0
 40
0
 40
0
 40
0
 40
0
 40
1
 40
1
 40
1
 40
1
 10
-161.972550
 20
58.473750
 30
0.0
 10
-162.750170
 20
58.915103
 30
0.0
 10
-163.669653
 20
59.135780
 30
0.0
 10
-164.731000
 20
59.135780
 30
0.0
  0
SPLINE
  5
1d2
100
AcDbEntity
  8
Ebene_1
 62
7
100
AcDbSpline
 70
8
 71
3
 72
8
 73
4
 74
0
 40
0
 40
0
 40
0
 40
0
 40
1
 40
1
 40
1
 40
1
 10
-164.731000
 20
59.135780
 30
0.0
 10
-165.750320
 20
59.135780
 30
0.0
 10
-166.617263
 20
58.909850
 30
0.0
 10
-167.331830
 20
58.457990
 30
0.0
  0
SPLINE
  5
1d3
100
AcDbEntity
  8
Ebene_1
 62
7
100
AcDbSpline
 70
8
 71
3
 72
8
 73
4
 74
0
 40
0
 40
0
 40
0
 40
0
 40
1
 40
1
 40
1
 40
1
 10
-167.331830
 20
58.457990
 30
0.0
 10
-168.046403
 20
58.016637
 30
0.0
 10
-168.634873
 20
57.407150
 30
0.0
 10
-169.097240
 20
56.629530
 30
0.0
  0
SPLINE
  5
1d4
100
AcDbEntity
  8
Ebene_1
 62
7
100
AcDbSpline
 70
8
 71
3
 72
8
 73
4
 74
0
 40
0
 40
0
 40
0
 40
0
 40
1
 40
1
 40
1
 40
1
 10
-169.097240
 20
56.629530
 30
0.0
 10
-169.549100
 20
55.862417
 30
0.0
 10
-169.880113
 20
54.953440
 30
0.0
 10
-170.090280
 20
53.902600
 30
0.0
  0
SPLINE
  5
1d5
100
AcDbEntity
  8
Ebene_1
 62
7
100
AcDbSpline
 70
8
 71
3
 72
8
 73
4
 74
0
 40
0
 40
0
 40
0
 40
0
 40
1
 40
1
 40
1
 40
1
 10
-170.090280
 20
53.902600
 30
0.0
 10
-170.300447
 20
52.862267
 30
0.0
 10
-170.405530
 20
51.743123
 30
0.0
 10
-170.405530
 20
50.545170
 30
0.0
  0
SPLINE
  5
1d6
100
AcDbEntity
  8
Ebene_1
 62
7
100
AcDbSpline
 70
8
 71
3
 72
8
 73
4
 74
0
 40
0
 40
0
 40
0
 40
0
 40
1
 40
1
 40
1
 40
1
 10
-170.405530
 20
50.545170
 30
0.0
 10
-170.405530
 20
49.042470
 30
0.0
 10
-170.284687
 20
47.692143
 30
0.0
 10
-170.043000
 20
46.494190
 30
0.0
  0
SPLINE
  5
1d7
100
AcDbEntity
  8
Ebene_1
 62
7
100
AcDbSpline
 70
8
 71
3
 72
8
 73
4
 74
0
 40
0
 40
0
 40
0
 40
0
 40
1
 40
1
 40
1
 40
1
 10
-170.043000
 20
46.494190
 30
0.0
 10
-169.801307
 20
45.296230
 30
0.0
 10
-169.428257
 20
44.271660
 30
0.0
 10
-168.923850
 20
43.420480
 30
0.0
  0
SPLINE
  5
1d8
100
AcDbEntity
  8
Ebene_1
 62
7
100
AcDbSpline
 70
8
 71
3
 72
8
 73
4
 74
0
 40
0
 40
0
 40
0
 40
0
 40
1
 40
1
 40
1
 40
1
 10
-168.923850
 20
43.420480
 30
0.0
 10
-168.419450
 20
42.579813
 30
0.0
 10
-167.783693
 20
41.933547
 30
0.0
 10
-167.016580
 20
41.481680
 30
0.0
  0
SPLINE
  5
1d9
100
AcDbEntity
  8
Ebene_1
 62
7
100
AcDbSpline
 70
8
 71
3
 72
8
 73
4
 74
0
 40
0
 40
0
 40
0
 40
0
 40
1
 40
1
 40
1
 40
1
 10
-167.016580
 20
41.481680
 30
0.0
 10
-166.238960
 20
41.029820
 30
0.0
 10
-165.314220
 20
40.803890
 30
0.0
 10
-164.242360
 20
40.803890
 30
0.0
  0
LWPOLYLINE
  5
1da
100
AcDbEntity
  8
Ebene_1
 62
7
100
AcDbPolyline
 90
1
 70
1
 10
-164.478800
 20
38.013920
 30
0.0
  0
LWPOLYLINE
  5
1db
100
AcDbEntity
  8
Ebene_1
 62
7
100
AcDbPolyline
 90
1
 70
1
 10
-164.242360
 20
40.803890
 30
0.0
  0
SPLINE
  5
1dc
100
AcDbEntity
  8
Ebene_1
 62
7
100
AcDbSpline
 70
8
 71
3
 72
8
 73
4
 74
0
 40
0
 40
0
 40
0
 40
0
 40
1
 40
1
 40
1
 40
1
 10
-143.057940
 20
41.891510
 30
0.0
 10
-143.057940
 20
41.660323
 30
0.0
 10
-143.000147
 20
41.497443
 30
0.0
 10
-142.884560
 20
41.402870
 30
0.0
  0
SPLINE
  5
1dd
100
AcDbEntity
  8
Ebene_1
 62
7
100
AcDbSpline
 70
8
 71
3
 72
8
 73
4
 74
0
 40
0
 40
0
 40
0
 40
0
 40
1
 40
1
 40
1
 40
1
 10
-142.884560
 20
41.402870
 30
0.0
 10
-142.758453
 20
41.308297
 30
0.0
 10
-142.632350
 20
41.229483
 30
0.0
 10
-142.506250
 20
41.166430
 30
0.0
  0
LWPOLYLINE
  5
1de
100
AcDbEntity
  8
Ebene_1
 62
7
100
AcDbPolyline
 90
4
 70
0
 10
-141.639310
 20
53.571590
 30
0.0
 10
-142.726930
 20
55.541910
 30
0.0
 10
-143.057940
 20
55.541910
 30
0.0
 10
-143.057940
 20
41.891510
 30
0.0
  0
SPLINE
  5
1df
100
AcDbEntity
  8
Ebene_1
 62
7
100
AcDbSpline
 70
8
 71
3
 72
8
 73
4
 74
0
 40
0
 40
0
 40
0
 40
0
 40
1
 40
1
 40
1
 40
1
 10
-146.840960
 20
41.166430
 30
0.0
 10
-146.683340
 20
41.239990
 30
0.0
 10
-146.551987
 20
41.318803
 30
0.0
 10
-146.446900
 20
41.402870
 30
0.0
  0
SPLINE
  5
1e0
100
AcDbEntity
  8
Ebene_1
 62
7
100
AcDbSpline
 70
8
 71
3
 72
8
 73
4
 74
0
 40
0
 40
0
 40
0
 40
0
 40
1
 40
1
 40
1
 40
1
 10
-146.446900
 20
41.402870
 30
0.0
 10
-146.341813
 20
41.497443
 30
0.0
 10
-146.289270
 20
41.660323
 30
0.0
 10
-146.289270
 20
41.891510
 30
0.0
  0
LWPOLYLINE
  5
1e1
100
AcDbEntity
  8
Ebene_1
 62
7
100
AcDbPolyline
 90
6
 70
0
 10
-142.506250
 20
41.166430
 30
0.0
 10
-140.000000
 20
40.000000
 30
0.0
 10
-140.000000
 20
38.534080
 30
0.0
 10
-149.394500
 20
38.534080
 30
0.0
 10
-149.394500
 20
40.000000
 30
0.0
 10
-146.840960
 20
41.166430
 30
0.0
  0
SPLINE
  5
1e2
100
AcDbEntity
  8
Ebene_1
 62
7
100
AcDbSpline
 70
8
 71
3
 72
8
 73
4
 74
0
 40
0
 40
0
 40
0
 40
0
 40
1
 40
1
 40
1
 40
1
 10
-146.289270
 20
58.205790
 30
0.0
 10
-146.289270
 20
58.415957
 30
0.0
 10
-146.347067
 20
58.568327
 30
0.0
 10
-146.462660
 20
58.662900
 30
0.0
  0
SPLINE
  5
1e3
100
AcDbEntity
  8
Ebene_1
 62
7
100
AcDbSpline
 70
8
 71
3
 72
8
 73
4
 74
0
 40
0
 40
0
 40
0
 40
0
 40
1
 40
1
 40
1
 40
1
 10
-146.462660
 20
58.662900
 30
0.0
 10
-146.567747
 20
58.767987
 30
0.0
 10
-146.693847
 20
58.846800
 30
0.0
 10
-146.840960
 20
58.899340
 30
0.0
  0
LWPOLYLINE
  5
1e4
100
AcDbEntity
  8
Ebene_1
 62
7
100
AcDbPolyline
 90
2
 70
0
 10
-146.289270
 20
41.891510
 30
0.0
 10
-146.289270
 20
58.205790
 30
0.0
  0
SPLINE
  5
1e5
100
AcDbEntity
  8
Ebene_1
 62
7
100
AcDbSpline
 70
8
 71
3
 72
8
 73
4
 74
0
 40
0
 40
0
 40
0
 40
0
 40
1
 40
1
 40
1
 40
1
 10
-129.959240
 20
58.111210
 30
0.0
 10
-129.959240
 20
58.321377
 30
0.0
 10
-130.011780
 20
58.463240
 30
0.0
 10
-130.116860
 20
58.536800
 30
0.0
  0
SPLINE
  5
1e6
100
AcDbEntity
  8
Ebene_1
 62
7
100
AcDbSpline
 70
8
 71
3
 72
8
 73
4
 74
0
 40
0
 40
0
 40
0
 40
0
 40
1
 40
1
 40
1
 40
1
 10
-130.116860
 20
58.536800
 30
0.0
 10
-130.221947
 20
58.620867
 30
0.0
 10
-130.363810
 20
58.704933
 30
0.0
 10
-130.542450
 20
58.789000
 30
0.0
  0
LWPOLYLINE
  5
1e7
100
AcDbEntity
  8
Ebene_1
 62
7
100
AcDbPolyline
 90
8
 70
0
 10
-146.840960
 20
58.899340
 30
0.0
 10
-149.473320
 20
59.939670
 30
0.0
 10
-149.473320
 20
61.405590
 30
0.0
 10
-140.930000
 20
61.405590
 30
0.0
 10
-131.425160
 20
47.755190
 30
0.0
 10
-130.290250
 20
45.769110
 30
0.0
 10
-129.959240
 20
45.769110
 30
0.0
 10
-129.959240
 20
58.111210
 30
0.0
  0
SPLINE
  5
1e8
100
AcDbEntity
  8
Ebene_1
 62
7
100
AcDbSpline
 70
8
 71
3
 72
8
 73
4
 74
0
 40
0
 40
0
 40
0
 40
0
 40
1
 40
1
 40
1
 40
1
 10
-126.207740
 20
58.789000
 30
0.0
 10
-126.344353
 20
58.725933
 30
0.0
 10
-126.475710
 20
58.647120
 30
0.0
 10
-126.601810
 20
58.552560
 30
0.0
  0
SPLINE
  5
1e9
100
AcDbEntity
  8
Ebene_1
 62
7
100
AcDbSpline
 70
8
 71
3
 72
8
 73
4
 74
0
 40
0
 40
0
 40
0
 40
0
 40
1
 40
1
 40
1
 40
1
 10
-126.601810
 20
58.552560
 30
0.0
 10
-126.717397
 20
58.468493
 30
0.0
 10
-126.775190
 20
58.321377
 30
0.0
 10
-126.775190
 20
58.111210
 30
0.0
  0
LWPOLYLINE
  5
1ea
100
AcDbEntity
  8
Ebene_1
 62
7
100
AcDbPolyline
 90
6
 70
0
 10
-130.542450
 20
58.789000
 30
0.0
 10
-133.064470
 20
59.939670
 30
0.0
 10
-133.064470
 20
61.405590
 30
0.0
 10
-123.669970
 20
61.405590
 30
0.0
 10
-123.669970
 20
59.939670
 30
0.0
 10
-126.207740
 20
58.789000
 30
0.0
  0
LWPOLYLINE
  5
1eb
100
AcDbEntity
  8
Ebene_1
 62
7
100
AcDbPolyline
 90
5
 70
0
 10
-126.775190
 20
58.111210
 30
0.0
 10
-126.775190
 20
42.001850
 30
0.0
 10
-127.263830
 20
38.376450
 30
0.0
 10
-130.999570
 20
38.376450
 30
0.0
 10
-141.639310
 20
53.571590
 30
0.0
  0
SPLINE
  5
1ec
100
AcDbEntity
  8
Ebene_1
 62
7
100
AcDbSpline
 70
8
 71
3
 72
8
 73
4
 74
0
 40
0
 40
0
 40
0
 40
0
 40
1
 40
1
 40
1
 40
1
 10
-117.988050
 20
41.040330
 30
0.0
 10
-117.851437
 20
41.092863
 30
0.0
 10
-117.725337
 20
41.171677
 30
0.0
 10
-117.609750
 20
41.276770
 30
0.0
  0
SPLINE
  5
1ed
100
AcDbEntity
  8
Ebene_1
 62
7
100
AcDbSpline
 70
8
 71
3
 72
8
 73
4
 74
0
 40
0
 40
0
 40
0
 40
0
 40
1
 40
1
 40
1
 40
1
 10
-117.609750
 20
41.276770
 30
0.0
 10
-117.494157
 20
41.392363
 30
0.0
 10
-117.436360
 20
41.565753
 30
0.0
 10
-117.436360
 20
41.796940
 30
0.0
  0
LWPOLYLINE
  5
1ee
100
AcDbEntity
  8
Ebene_1
 62
7
100
AcDbPolyline
 90
2
 70
0
 10
-120.541590
 20
40.000000
 30
0.0
 10
-117.988050
 20
41.040330
 30
0.0
  0
SPLINE
  5
1ef
100
AcDbEntity
  8
Ebene_1
 62
7
100
AcDbSpline
 70
8
 71
3
 72
8
 73
4
 74
0
 40
0
 40
0
 40
0
 40
0
 40
1
 40
1
 40
1
 40
1
 10
-117.436360
 20
58.205790
 30
0.0
 10
-117.436360
 20
58.415957
 30
0.0
 10
-117.494157
 20
58.568327
 30
0.0
 10
-117.609750
 20
58.662900
 30
0.0
  0
SPLINE
  5
1f0
100
AcDbEntity
  8
Ebene_1
 62
7
100
AcDbSpline
 70
8
 71
3
 72
8
 73
4
 74
0
 40
0
 40
0
 40
0
 40
0
 40
1
 40
1
 40
1
 40
1
 10
-117.609750
 20
58.662900
 30
0.0
 10
-117.714830
 20
58.757473
 30
0.0
 10
-117.840930
 20
58.836287
 30
0.0
 10
-117.988050
 20
58.899340
 30
0.0
  0
LWPOLYLINE
  5
1f1
100
AcDbEntity
  8
Ebene_1
 62
7
100
AcDbPolyline
 90
2
 70
0
 10
-117.436360
 20
41.796940
 30
0.0
 10
-117.436360
 20
58.205790
 30
0.0
  0
SPLINE
  5
1f2
100
AcDbEntity
  8
Ebene_1
 62
7
100
AcDbSpline
 70
8
 71
3
 72
8
 73
4
 74
0
 40
0
 40
0
 40
0
 40
0
 40
1
 40
1
 40
1
 40
1
 10
-111.415050
 20
58.899340
 30
0.0
 10
-111.562170
 20
58.836273
 30
0.0
 10
-111.698780
 20
58.757460
 30
0.0
 10
-111.824880
 20
58.662900
 30
0.0
  0
SPLINE
  5
1f3
100
AcDbEntity
  8
Ebene_1
 62
7
100
AcDbSpline
 70
8
 71
3
 72
8
 73
4
 74
0
 40
0
 40
0
 40
0
 40
0
 40
1
 40
1
 40
1
 40
1
 10
-111.824880
 20
58.662900
 30
0.0
 10
-111.940473
 20
58.568327
 30
0.0
 10
-111.998270
 20
58.415957
 30
0.0
 10
-111.998270
 20
58.205790
 30
0.0
  0
LWPOLYLINE
  5
1f4
100
AcDbEntity
  8
Ebene_1
 62
7
100
AcDbPolyline
 90
6
 70
0
 10
-117.988050
 20
58.899340
 30
0.0
 10
-120.541590
 20
59.939670
 30
0.0
 10
-120.541590
 20
61.405590
 30
0.0
 10
-108.877270
 20
61.405590
 30
0.0
 10
-108.877270
 20
59.939670
 30
0.0
 10
-111.415050
 20
58.899340
 30
0.0
  0
SPLINE
  5
1f5
100
AcDbEntity
  8
Ebene_1
 62
7
100
AcDbSpline
 70
8
 71
3
 72
8
 73
4
 74
0
 40
0
 40
0
 40
0
 40
0
 40
1
 40
1
 40
1
 40
1
 10
-104.526800
 20
41.465920
 30
0.0
 10
-104.453240
 20
41.465920
 30
0.0
 10
-104.379680
 20
41.476420
 30
0.0
 10
-104.306120
 20
41.497420
 30
0.0
  0
SPLINE
  5
1f6
100
AcDbEntity
  8
Ebene_1
 62
7
100
AcDbSpline
 70
8
 71
3
 72
8
 73
4
 74
0
 40
0
 40
0
 40
0
 40
0
 40
1
 40
1
 40
1
 40
1
 10
-104.306120
 20
41.497420
 30
0.0
 10
-104.222053
 20
41.528953
 30
0.0
 10
-104.148497
 20
41.565730
 30
0.0
 10
-104.085450
 20
41.607750
 30
0.0
  0
SPLINE
  5
1f7
100
AcDbEntity
  8
Ebene_1
 62
7
100
AcDbSpline
 70
8
 71
3
 72
8
 73
4
 74
0
 40
0
 40
0
 40
0
 40
0
 40
1
 40
1
 40
1
 40
1
 10
-104.085450
 20
41.607750
 30
0.0
 10
-104.022383
 20
41.660283
 30
0.0
 10
-103.969840
 20
41.723337
 30
0.0
 10
-103.927820
 20
41.796910
 30
0.0
  0
SPLINE
  5
1f8
100
AcDbEntity
  8
Ebene_1
 62
7
100
AcDbSpline
 70
8
 71
3
 72
8
 73
4
 74
0
 40
0
 40
0
 40
0
 40
0
 40
1
 40
1
 40
1
 40
1
 10
-103.927820
 20
41.796910
 30
0.0
 10
-103.885753
 20
41.880977
 30
0.0
 10
-103.854220
 20
41.975550
 30
0.0
 10
-103.833220
 20
42.080630
 30
0.0
  0
LWPOLYLINE
  5
1f9
100
AcDbEntity
  8
Ebene_1
 62
7
100
AcDbPolyline
 90
3
 70
0
 10
-111.998270
 20
58.205790
 30
0.0
 10
-111.998270
 20
41.465920
 30
0.0
 10
-104.526800
 20
41.465920
 30
0.0
  0
LWPOLYLINE
  5
1fa
100
AcDbEntity
  8
Ebene_1
 62
7
100
AcDbPolyline
 90
6
 70
0
 10
-103.833220
 20
42.080630
 30
0.0
 10
-102.966270
 20
46.856700
 30
0.0
 10
-100.507310
 20
46.856700
 30
0.0
 10
-100.507310
 20
38.534050
 30
0.0
 10
-120.541560
 20
38.534050
 30
0.0
 10
-120.541590
 20
40.000000
 30
0.0
  0
SPLINE
  5
1fb
100
AcDbEntity
  8
Ebene_1
 62
7
100
AcDbSpline
 70
8
 71
3
 72
8
 73
4
 74
0
 40
0
 40
0
 40
0
 40
0
 40
1
 40
1
 40
1
 40
1
 10
-92.061548
 20
41.040330
 30
0.0
 10
-91.882905
 20
41.103397
 30
0.0
 10
-91.741042
 20
41.187463
 30
0.0
 10
-91.635959
 20
41.292530
 30
0.0
  0
SPLINE
  5
1fc
100
AcDbEntity
  8
Ebene_1
 62
7
100
AcDbSpline
 70
8
 71
3
 72
8
 73
4
 74
0
 40
0
 40
0
 40
0
 40
0
 40
1
 40
1
 40
1
 40
1
 10
-91.635959
 20
41.292530
 30
0.0
 10
-91.530875
 20
41.397617
 30
0.0
 10
-91.478333
 20
41.565753
 30
0.0
 10
-91.478333
 20
41.796940
 30
0.0
  0
LWPOLYLINE
  5
1fd
100
AcDbEntity
  8
Ebene_1
 62
7
100
AcDbPolyline
 90
2
 70
0
 10
-94.725425
 20
40.000000
 30
0.0
 10
-92.061548
 20
41.040330
 30
0.0
  0
SPLINE
  5
1fe
100
AcDbEntity
  8
Ebene_1
 62
7
100
AcDbSpline
 70
8
 71
3
 72
8
 73
4
 74
0
 40
0
 40
0
 40
0
 40
0
 40
1
 40
1
 40
1
 40
1
 10
-98.019810
 20
58.394940
 30
0.0
 10
-98.103877
 20
58.542053
 30
0.0
 10
-98.203703
 20
58.689170
 30
0.0
 10
-98.319290
 20
58.836290
 30
0.0
  0
SPLINE
  5
1ff
100
AcDbEntity
  8
Ebene_1
 62
7
100
AcDbSpline
 70
8
 71
3
 72
8
 73
4
 74
0
 40
0
 40
0
 40
0
 40
0
 40
1
 40
1
 40
1
 40
1
 10
-98.319290
 20
58.836290
 30
0.0
 10
-98.434883
 20
58.993917
 30
0.0
 10
-98.582003
 20
59.109510
 30
0.0
 10
-98.760650
 20
59.183070
 30
0.0
  0
LWPOLYLINE
  5
200
100
AcDbEntity
  8
Ebene_1
 62
7
100
AcDbPolyline
 90
3
 70
0
 10
-91.478333
 20
41.796940
 30
0.0
 10
-91.478333
 20
46.919780
 30
0.0
 10
-98.019810
 20
58.394940
 30
0.0
  0
SPLINE
  5
201
100
AcDbEntity
  8
Ebene_1
 62
7
100
AcDbSpline
 70
8
 71
3
 72
8
 73
4
 74
0
 40
0
 40
0
 40
0
 40
0
 40
1
 40
1
 40
1
 40
1
 10
-78.647589
 20
59.120020
 30
0.0
 10
-78.805215
 20
59.046460
 30
0.0
 10
-78.952333
 20
58.930867
 30
0.0
 10
-79.088942
 20
58.773240
 30
0.0
  0
SPLINE
  5
202
100
AcDbEntity
  8
Ebene_1
 62
7
100
AcDbSpline
 70
8
 71
3
 72
8
 73
4
 74
0
 40
0
 40
0
 40
0
 40
0
 40
1
 40
1
 40
1
 40
1
 10
-79.088942
 20
58.773240
 30
0.0
 10
-79.215043
 20
58.626120
 30
0.0
 10
-79.320126
 20
58.479003
 30
0.0
 10
-79.404193
 20
58.331890
 30
0.0
  0
LWPOLYLINE
  5
203
100
AcDbEntity
  8
Ebene_1
 62
7
100
AcDbPolyline
 90
15
 70
0
 10
-98.760650
 20
59.183070
 30
0.0
 10
-100.589110
 20
59.939670
 30
0.0
 10
-100.589110
 20
61.405590
 30
0.0
 10
-90.075463
 20
61.405590
 30
0.0
 10
-90.075463
 20
59.939670
 30
0.0
 10
-92.629001
 20
58.915100
 30
0.0
 10
-88.530730
 20
52.074140
 30
0.0
 10
-87.758363
 20
50.135340
 30
0.0
 10
-87.427349
 20
50.135340
 30
0.0
 10
-82.540948
 20
58.820530
 30
0.0
 10
-85.110249
 20
59.939670
 30
0.0
 10
-85.110249
 20
61.405590
 30
0.0
 10
-76.866417
 20
61.405590
 30
0.0
 10
-76.866417
 20
59.939670
 30
0.0
 10
-78.647589
 20
59.120020
 30
0.0
  0
SPLINE
  5
204
100
AcDbEntity
  8
Ebene_1
 62
7
100
AcDbSpline
 70
8
 71
3
 72
8
 73
4
 74
0
 40
0
 40
0
 40
0
 40
0
 40
1
 40
1
 40
1
 40
1
 10
-86.024479
 20
41.796940
 30
0.0
 10
-86.024479
 20
41.565753
 30
0.0
 10
-85.977191
 20
41.397617
 30
0.0
 10
-85.882615
 20
41.292530
 30
0.0
  0
SPLINE
  5
205
100
AcDbEntity
  8
Ebene_1
 62
7
100
AcDbSpline
 70
8
 71
3
 72
8
 73
4
 74
0
 40
0
 40
0
 40
0
 40
0
 40
1
 40
1
 40
1
 40
1
 10
-85.882615
 20
41.292530
 30
0.0
 10
-85.777532
 20
41.187450
 30
0.0
 10
-85.646177
 20
41.103383
 30
0.0
 10
-85.488551
 20
41.040330
 30
0.0
  0
LWPOLYLINE
  5
206
100
AcDbEntity
  8
Ebene_1
 62
7
100
AcDbPolyline
 90
3
 70
0
 10
-79.404193
 20
58.331890
 30
0.0
 10
-86.024479
 20
46.998590
 30
0.0
 10
-86.024479
 20
41.796940
 30
0.0
  0
SPLINE
  5
207
100
AcDbEntity
  8
Ebene_1
 62
7
100
AcDbSpline
 70
8
 71
3
 72
8
 73
4
 74
0
 40
0
 40
0
 40
0
 40
0
 40
1
 40
1
 40
1
 40
1
 10
-72.575450
 20
252.282413
 30
0.0
 10
-73.583130
 20
252.961013
 30
0.0
 10
-74.838490
 20
254.548493
 30
0.0
 10
-74.838490
 20
255.144133
 30
0.0
  0
SPLINE
  5
208
100
AcDbEntity
  8
Ebene_1
 62
7
100
AcDbSpline
 70
8
 71
3
 72
8
 73
4
 74
0
 40
0
 40
0
 40
0
 40
0
 40
1
 40
1
 40
1
 40
1
 10
-74.838490
 20
255.144133
 30
0.0
 10
-74.838490
 20
255.358153
 30
0.0
 10
-72.757700
 20
255.408393
 30
0.0
 10
-63.896910
 20
255.408393
 30
0.0
  0
SPLINE
  5
209
100
AcDbEntity
  8
Ebene_1
 62
7
100
AcDbSpline
 70
8
 71
3
 72
8
 73
4
 74
0
 40
0
 40
0
 40
0
 40
0
 40
1
 40
1
 40
1
 40
1
 10
-63.896910
 20
255.408393
 30
0.0
 10
-56.458150
 20
255.408393
 30
0.0
 10
-52.955350
 20
255.340893
 30
0.0
 10
-52.955350
 20
255.197713
 30
0.0
  0
SPLINE
  5
20a
100
AcDbEntity
  8
Ebene_1
 62
7
100
AcDbSpline
 70
8
 71
3
 72
8
 73
4
 74
0
 40
0
 40
0
 40
0
 40
0
 40
1
 40
1
 40
1
 40
1
 10
-52.955350
 20
255.197713
 30
0.0
 10
-52.955350
 20
254.781863
 30
0.0
 10
-53.739800
 20
253.473193
 30
0.0
 10
-54.304500
 20
252.946953
 30
0.0
  0
SPLINE
  5
20b
100
AcDbEntity
  8
Ebene_1
 62
7
100
AcDbSpline
 70
8
 71
3
 72
8
 73
4
 74
0
 40
0
 40
0
 40
0
 40
0
 40
1
 40
1
 40
1
 40
1
 10
-54.304500
 20
252.946953
 30
0.0
 10
-54.621170
 20
252.651833
 30
0.0
 10
-55.199390
 20
252.219073
 30
0.0
 10
-55.589430
 20
251.985253
 30
0.0
  0
SPLINE
  5
20c
100
AcDbEntity
  8
Ebene_1
 62
7
100
AcDbSpline
 70
8
 71
3
 72
8
 73
4
 74
0
 40
0
 40
0
 40
0
 40
0
 40
1
 40
1
 40
1
 40
1
 10
-55.589430
 20
251.985253
 30
0.0
 10
-56.275980
 20
251.573643
 30
0.0
 10
-56.541130
 20
251.560093
 30
0.0
 10
-63.899610
 20
251.559343
 30
0.0
  0
LWPOLYLINE
  5
20d
100
AcDbEntity
  8
Ebene_1
 62
7
100
AcDbPolyline
 90
5
 70
0
 10
-85.488551
 20
41.040330
 30
0.0
 10
-82.793149
 20
40.000000
 30
0.0
 10
-82.793149
 20
38.534080
 30
0.0
 10
-94.725425
 20
38.534080
 30
0.0
 10
-94.725425
 20
40.000000
 30
0.0
  0
SPLINE
  5
20e
100
AcDbEntity
  8
Ebene_1
 62
7
100
AcDbSpline
 70
8
 71
3
 72
8
 73
4
 74
0
 40
0
 40
0
 40
0
 40
0
 40
1
 40
1
 40
1
 40
1
 10
-167.236310
 20
252.269413
 30
0.0
 10
-168.541630
 20
253.147833
 30
0.0
 10
-169.638320
 20
254.454563
 30
0.0
 10
-169.658170
 20
255.155133
 30
0.0
  0
SPLINE
  5
20f
100
AcDbEntity
  8
Ebene_1
 62
7
100
AcDbSpline
 70
8
 71
3
 72
8
 73
4
 74
0
 40
0
 40
0
 40
0
 40
0
 40
1
 40
1
 40
1
 40
1
 10
-169.658170
 20
255.155133
 30
0.0
 10
-169.663170
 20
255.354723
 30
0.0
 10
-167.343070
 20
255.408413
 30
0.0
 10
-158.710140
 20
255.408413
 30
0.0
  0
LWPOLYLINE
  5
210
100
AcDbEntity
  8
Ebene_1
 62
7
100
AcDbPolyline
 90
4
 70
0
 10
-63.899610
 20
251.559343
 30
0.0
 10
-71.500650
 20
251.559343
 30
0.0
 10
-72.575450
 20
252.283163
 30
0.0
 10
-72.575450
 20
252.282413
 30
0.0
  0
SPLINE
  5
211
100
AcDbEntity
  8
Ebene_1
 62
7
100
AcDbSpline
 70
8
 71
3
 72
8
 73
4
 74
0
 40
0
 40
0
 40
0
 40
0
 40
1
 40
1
 40
1
 40
1
 10
-147.890160
 20
254.952533
 30
0.0
 10
-148.149100
 20
254.079623
 30
0.0
 10
-149.093950
 20
252.923073
 30
0.0
 10
-150.103700
 20
252.243073
 30
0.0
  0
LWPOLYLINE
  5
212
100
AcDbEntity
  8
Ebene_1
 62
7
100
AcDbPolyline
 90
3
 70
0
 10
-158.710140
 20
255.408413
 30
0.0
 10
-147.754920
 20
255.408413
 30
0.0
 10
-147.890160
 20
254.952533
 30
0.0
  0
SPLINE
  5
213
100
AcDbEntity
  8
Ebene_1
 62
7
100
AcDbSpline
 70
8
 71
3
 72
8
 73
4
 74
0
 40
0
 40
0
 40
0
 40
0
 40
1
 40
1
 40
1
 40
1
 10
-166.524730
 20
243.796713
 30
0.0
 10
-167.628390
 20
244.389973
 30
0.0
 10
-168.428620
 20
245.100653
 30
0.0
 10
-169.051100
 20
246.040433
 30
0.0
  0
SPLINE
  5
214
100
AcDbEntity
  8
Ebene_1
 62
7
100
AcDbSpline
 70
8
 71
3
 72
8
 73
4
 74
0
 40
0
 40
0
 40
0
 40
0
 40
1
 40
1
 40
1
 40
1
 10
-169.051100
 20
246.040433
 30
0.0
 10
-170.250180
 20
247.850673
 30
0.0
 10
-171.128440
 20
247.708793
 30
0.0
 10
-158.723800
 20
247.708793
 30
0.0
  0
SPLINE
  5
215
100
AcDbEntity
  8
Ebene_1
 62
7
100
AcDbSpline
 70
8
 71
3
 72
8
 73
4
 74
0
 40
0
 40
0
 40
0
 40
0
 40
1
 40
1
 40
1
 40
1
 10
-158.723800
 20
247.708793
 30
0.0
 10
-151.219400
 20
247.708793
 30
0.0
 10
-147.782240
 20
247.642193
 30
0.0
 10
-147.782240
 20
247.496103
 30
0.0
  0
SPLINE
  5
216
100
AcDbEntity
  8
Ebene_1
 62
7
100
AcDbSpline
 70
8
 71
3
 72
8
 73
4
 74
0
 40
0
 40
0
 40
0
 40
0
 40
1
 40
1
 40
1
 40
1
 10
-147.782240
 20
247.496103
 30
0.0
 10
-147.782240
 20
246.687993
 30
0.0
 10
-149.219300
 20
244.777203
 30
0.0
 10
-150.381240
 20
244.040293
 30
0.0
  0
LWPOLYLINE
  5
217
100
AcDbEntity
  8
Ebene_1
 62
7
100
AcDbPolyline
 90
5
 70
0
 10
-150.103700
 20
252.243073
 30
0.0
 10
-151.120070
 20
251.558603
 30
0.0
 10
-158.650080
 20
251.558603
 30
0.0
 10
-166.180080
 20
251.558603
 30
0.0
 10
-167.236310
 20
252.269413
 30
0.0
  0
SPLINE
  5
218
100
AcDbEntity
  8
Ebene_1
 62
7
100
AcDbSpline
 70
8
 71
3
 72
8
 73
4
 74
0
 40
0
 40
0
 40
0
 40
0
 40
1
 40
1
 40
1
 40
1
 10
-158.611500
 20
243.461753
 30
0.0
 10
-164.935010
 20
243.469753
 30
0.0
 10
-165.998560
 20
243.513853
 30
0.0
 10
-166.524730
 20
243.796603
 30
0.0
  0
LWPOLYLINE
  5
219
100
AcDbEntity
  8
Ebene_1
 62
7
100
AcDbPolyline
 90
3
 70
0
 10
-150.381240
 20
244.040293
 30
0.0
 10
-151.306140
 20
243.453753
 30
0.0
 10
-158.611500
 20
243.461753
 30
0.0
  0
LWPOLYLINE
  5
21a
100
AcDbEntity
  8
Ebene_1
 62
7
100
AcDbPolyline
 90
2
 70
0
 10
-166.524730
 20
243.796603
 30
0.0
 10
-166.524730
 20
243.796713
 30
0.0
  0
LWPOLYLINE
  5
21b
100
AcDbEntity
  8
Ebene_1
 62
7
100
AcDbPolyline
 90
16
 70
1
 10
-74.230630
 20
241.429373
 30
0.0
 10
-74.230630
 20
247.712513
 30
0.0
 10
-63.846250
 20
247.660013
 30
0.0
 10
-53.461920
 20
247.607513
 30
0.0
 10
-53.408220
 20
241.376903
 30
0.0
 10
-53.354520
 20
235.146303
 30
0.0
 10
-55.181040
 20
235.146303
 30
0.0
 10
-57.007580
 20
235.146303
 30
0.0
 10
-57.007580
 20
239.300043
 30
0.0
 10
-57.007580
 20
243.453773
 30
0.0
 10
-63.795380
 20
243.453773
 30
0.0
 10
-70.583210
 20
243.453773
 30
0.0
 10
-70.583210
 20
239.300043
 30
0.0
 10
-70.583210
 20
235.146303
 30
0.0
 10
-72.406800
 20
235.146303
 30
0.0
 10
-74.230380
 20
235.146303
 30
0.0
  0
SPLINE
  5
21c
100
AcDbEntity
  8
Ebene_1
 62
7
100
AcDbSpline
 70
8
 71
3
 72
8
 73
4
 74
0
 40
0
 40
0
 40
0
 40
0
 40
1
 40
1
 40
1
 40
1
 10
-85.384580
 20
238.556733
 30
0.0
 10
-85.676200
 20
237.539993
 30
0.0
 10
-86.501320
 20
236.442833
 30
0.0
 10
-87.481620
 20
235.768363
 30
0.0
  0
LWPOLYLINE
  5
21d
100
AcDbEntity
  8
Ebene_1
 62
7
100
AcDbPolyline
 90
9
 70
0
 10
-105.231720
 20
245.378643
 30
0.0
 10
-105.231720
 20
255.611043
 30
0.0
 10
-103.408120
 20
255.611043
 30
0.0
 10
-101.584530
 20
255.611043
 30
0.0
 10
-101.584530
 20
247.404843
 30
0.0
 10
-101.584530
 20
239.198693
 30
0.0
 10
-93.392500
 20
239.198693
 30
0.0
 10
-85.200460
 20
239.198693
 30
0.0
 10
-85.384580
 20
238.556733
 30
0.0
  0
SPLINE
  5
21e
100
AcDbEntity
  8
Ebene_1
 62
7
100
AcDbSpline
 70
8
 71
3
 72
8
 73
4
 74
0
 40
0
 40
0
 40
0
 40
0
 40
1
 40
1
 40
1
 40
1
 10
-166.524730
 20
235.547853
 30
0.0
 10
-167.732130
 20
236.145653
 30
0.0
 10
-168.816580
 20
237.113523
 30
0.0
 10
-169.265990
 20
237.994483
 30
0.0
  0
SPLINE
  5
21f
100
AcDbEntity
  8
Ebene_1
 62
7
100
AcDbSpline
 70
8
 71
3
 72
8
 73
4
 74
0
 40
0
 40
0
 40
0
 40
0
 40
1
 40
1
 40
1
 40
1
 10
-169.265990
 20
237.994483
 30
0.0
 10
-169.485640
 20
238.425023
 30
0.0
 10
-169.665350
 20
238.872133
 30
0.0
 10
-169.665350
 20
238.987993
 30
0.0
  0
SPLINE
  5
220
100
AcDbEntity
  8
Ebene_1
 62
7
100
AcDbSpline
 70
8
 71
3
 72
8
 73
4
 74
0
 40
0
 40
0
 40
0
 40
0
 40
1
 40
1
 40
1
 40
1
 10
-169.665350
 20
238.987993
 30
0.0
 10
-169.665350
 20
239.131183
 30
0.0
 10
-166.162550
 20
239.198693
 30
0.0
 10
-158.723800
 20
239.198693
 30
0.0
  0
SPLINE
  5
221
100
AcDbEntity
  8
Ebene_1
 62
7
100
AcDbSpline
 70
8
 71
3
 72
8
 73
4
 74
0
 40
0
 40
0
 40
0
 40
0
 40
1
 40
1
 40
1
 40
1
 10
-158.723800
 20
239.198693
 30
0.0
 10
-149.863040
 20
239.198693
 30
0.0
 10
-147.782240
 20
239.148593
 30
0.0
 10
-147.782240
 20
238.934433
 30
0.0
  0
SPLINE
  5
222
100
AcDbEntity
  8
Ebene_1
 62
7
100
AcDbSpline
 70
8
 71
3
 72
8
 73
4
 74
0
 40
0
 40
0
 40
0
 40
0
 40
1
 40
1
 40
1
 40
1
 10
-147.782240
 20
238.934433
 30
0.0
 10
-147.782240
 20
238.467063
 30
0.0
 10
-148.934180
 20
236.836193
 30
0.0
 10
-149.635180
 20
236.311163
 30
0.0
  0
SPLINE
  5
223
100
AcDbEntity
  8
Ebene_1
 62
7
100
AcDbSpline
 70
8
 71
3
 72
8
 73
4
 74
0
 40
0
 40
0
 40
0
 40
0
 40
1
 40
1
 40
1
 40
1
 10
-149.635180
 20
236.311163
 30
0.0
 10
-151.225300
 20
235.120133
 30
0.0
 10
-151.022990
 20
235.146243
 30
0.0
 10
-158.663080
 20
235.146413
 30
0.0
  0
SPLINE
  5
224
100
AcDbEntity
  8
Ebene_1
 62
7
100
AcDbSpline
 70
8
 71
3
 72
8
 73
4
 74
0
 40
0
 40
0
 40
0
 40
0
 40
1
 40
1
 40
1
 40
1
 10
-158.663080
 20
235.146413
 30
0.0
 10
-165.282920
 20
235.146563
 30
0.0
 10
-165.763830
 20
235.171113
 30
0.0
 10
-166.524730
 20
235.547853
 30
0.0
  0
LWPOLYLINE
  5
225
100
AcDbEntity
  8
Ebene_1
 62
7
100
AcDbPolyline
 90
5
 70
0
 10
-87.481620
 20
235.768363
 30
0.0
 10
-88.385830
 20
235.146243
 30
0.0
 10
-96.808770
 20
235.146243
 30
0.0
 10
-105.231720
 20
235.146243
 30
0.0
 10
-105.231720
 20
245.378643
 30
0.0
  0
SPLINE
  5
226
100
AcDbEntity
  8
Ebene_1
 62
7
100
AcDbSpline
 70
8
 71
3
 72
8
 73
4
 74
0
 40
0
 40
0
 40
0
 40
0
 40
1
 40
1
 40
1
 40
1
 10
-136.840670
 20
235.148463
 30
0.0
 10
-136.840670
 20
235.663583
 30
0.0
 10
-135.921260
 20
237.226103
 30
0.0
 10
-135.294170
 20
237.776703
 30
0.0
  0
SPLINE
  5
227
100
AcDbEntity
  8
Ebene_1
 62
7
100
AcDbSpline
 70
8
 71
3
 72
8
 73
4
 74
0
 40
0
 40
0
 40
0
 40
0
 40
1
 40
1
 40
1
 40
1
 10
-135.294170
 20
237.776703
 30
0.0
 10
-133.665360
 20
239.206833
 30
0.0
 10
-133.716250
 20
239.198693
 30
0.0
 10
-126.413740
 20
239.198693
 30
0.0
  0
LWPOLYLINE
  5
228
100
AcDbEntity
  8
Ebene_1
 62
7
100
AcDbPolyline
 90
1
 70
1
 10
-166.524730
 20
235.547853
 30
0.0
  0
SPLINE
  5
229
100
AcDbEntity
  8
Ebene_1
 62
7
100
AcDbSpline
 70
8
 71
3
 72
8
 73
4
 74
0
 40
0
 40
0
 40
0
 40
0
 40
1
 40
1
 40
1
 40
1
 10
-126.506980
 20
255.611033
 30
0.0
 10
-120.823430
 20
255.611033
 30
0.0
 10
-116.173260
 20
255.576533
 30
0.0
 10
-116.173260
 20
255.534533
 30
0.0
  0
SPLINE
  5
22a
100
AcDbEntity
  8
Ebene_1
 62
7
100
AcDbSpline
 70
8
 71
3
 72
8
 73
4
 74
0
 40
0
 40
0
 40
0
 40
0
 40
1
 40
1
 40
1
 40
1
 10
-116.173260
 20
255.534533
 30
0.0
 10
-116.173260
 20
255.492333
 30
0.0
 10
-116.306720
 20
255.138713
 30
0.0
 10
-116.469700
 20
254.748523
 30
0.0
  0
SPLINE
  5
22b
100
AcDbEntity
  8
Ebene_1
 62
7
100
AcDbSpline
 70
8
 71
3
 72
8
 73
4
 74
0
 40
0
 40
0
 40
0
 40
0
 40
1
 40
1
 40
1
 40
1
 10
-116.469700
 20
254.748523
 30
0.0
 10
-116.850730
 20
253.836593
 30
0.0
 10
-117.671700
 20
252.865723
 30
0.0
 10
-118.678520
 20
252.136363
 30
0.0
  0
LWPOLYLINE
  5
22c
100
AcDbEntity
  8
Ebene_1
 62
7
100
AcDbPolyline
 90
9
 70
0
 10
-126.413740
 20
239.198693
 30
0.0
 10
-119.820470
 20
239.198693
 30
0.0
 10
-119.820470
 20
241.326203
 30
0.0
 10
-119.820470
 20
243.453753
 30
0.0
 10
-128.330590
 20
243.453753
 30
0.0
 10
-136.840670
 20
243.453753
 30
0.0
 10
-136.840670
 20
249.532373
 30
0.0
 10
-136.840670
 20
255.611033
 30
0.0
 10
-126.506980
 20
255.611033
 30
0.0
  0
SPLINE
  5
22d
100
AcDbEntity
  8
Ebene_1
 62
7
100
AcDbSpline
 70
8
 71
3
 72
8
 73
4
 74
0
 40
0
 40
0
 40
0
 40
0
 40
1
 40
1
 40
1
 40
1
 10
-126.405660
 20
234.943693
 30
0.0
 10
-133.302240
 20
234.943693
 30
0.0
 10
-136.840670
 20
235.013093
 30
0.0
 10
-136.840670
 20
235.148513
 30
0.0
  0
LWPOLYLINE
  5
22e
100
AcDbEntity
  8
Ebene_1
 62
7
100
AcDbPolyline
 90
11
 70
0
 10
-118.678520
 20
252.136363
 30
0.0
 10
-119.476040
 20
251.558673
 30
0.0
 10
-126.334770
 20
251.558673
 30
0.0
 10
-133.193480
 20
251.558673
 30
0.0
 10
-133.193480
 20
249.532463
 30
0.0
 10
-133.193480
 20
247.506253
 30
0.0
 10
-124.582080
 20
247.506253
 30
0.0
 10
-115.970660
 20
247.506253
 30
0.0
 10
-115.970660
 20
241.224943
 30
0.0
 10
-115.970660
 20
234.943693
 30
0.0
 10
-126.405660
 20
234.943693
 30
0.0
  0
LWPOLYLINE
  5
22f
100
AcDbEntity
  8
Ebene_1
 62
7
100
AcDbPolyline
 90
1
 70
1
 10
-136.840670
 20
235.148513
 30
0.0
  0
SPLINE
  5
230
100
AcDbEntity
  8
Ebene_1
 62
7
100
AcDbSpline
 70
8
 71
3
 72
8
 73
4
 74
0
 40
0
 40
0
 40
0
 40
0
 40
1
 40
1
 40
1
 40
1
 10
-200.690000
 20
252.333403
 30
0.0
 10
-201.204450
 20
252.703783
 30
0.0
 10
-201.805780
 20
253.250853
 30
0.0
 10
-202.026300
 20
253.549133
 30
0.0
  0
SPLINE
  5
231
100
AcDbEntity
  8
Ebene_1
 62
7
100
AcDbSpline
 70
8
 71
3
 72
8
 73
4
 74
0
 40
0
 40
0
 40
0
 40
0
 40
1
 40
1
 40
1
 40
1
 10
-202.026300
 20
253.549133
 30
0.0
 10
-202.442270
 20
254.111783
 30
0.0
 10
-203.097890
 20
255.305203
 30
0.0
 10
-203.097890
 20
255.499733
 30
0.0
  0
SPLINE
  5
232
100
AcDbEntity
  8
Ebene_1
 62
7
100
AcDbSpline
 70
8
 71
3
 72
8
 73
4
 74
0
 40
0
 40
0
 40
0
 40
0
 40
1
 40
1
 40
1
 40
1
 10
-203.097890
 20
255.499733
 30
0.0
 10
-203.097890
 20
255.561033
 30
0.0
 10
-197.672720
 20
255.611143
 30
0.0
 10
-191.041920
 20
255.611143
 30
0.0
  0
SPLINE
  5
233
100
AcDbEntity
  8
Ebene_1
 62
7
100
AcDbSpline
 70
8
 71
3
 72
8
 73
4
 74
0
 40
0
 40
0
 40
0
 40
0
 40
1
 40
1
 40
1
 40
1
 10
-191.041920
 20
255.611143
 30
0.0
 10
-182.831760
 20
255.611143
 30
0.0
 10
-178.985950
 20
255.544043
 30
0.0
 10
-178.985950
 20
255.400443
 30
0.0
  0
SPLINE
  5
234
100
AcDbEntity
  8
Ebene_1
 62
7
100
AcDbSpline
 70
8
 71
3
 72
8
 73
4
 74
0
 40
0
 40
0
 40
0
 40
0
 40
1
 40
1
 40
1
 40
1
 10
-178.985950
 20
255.400443
 30
0.0
 10
-178.985950
 20
254.932133
 30
0.0
 10
-179.808000
 20
253.643673
 30
0.0
 10
-180.539100
 20
252.966113
 30
0.0
  0
SPLINE
  5
235
100
AcDbEntity
  8
Ebene_1
 62
7
100
AcDbSpline
 70
8
 71
3
 72
8
 73
4
 74
0
 40
0
 40
0
 40
0
 40
0
 40
1
 40
1
 40
1
 40
1
 10
-180.539100
 20
252.966113
 30
0.0
 10
-181.990050
 20
251.621393
 30
0.0
 10
-181.825380
 20
251.667623
 30
0.0
 10
-185.550810
 20
251.558703
 30
0.0
  0
LWPOLYLINE
  5
236
100
AcDbEntity
  8
Ebene_1
 62
7
100
AcDbPolyline
 90
5
 70
0
 10
-193.015230
 20
243.200453
 30
0.0
 10
-193.068130
 20
251.457303
 30
0.0
 10
-196.411400
 20
251.558653
 30
0.0
 10
-199.754650
 20
251.660003
 30
0.0
 10
-200.690000
 20
252.333403
 30
0.0
  0
LWPOLYLINE
  5
237
100
AcDbEntity
  8
Ebene_1
 62
7
100
AcDbPolyline
 90
7
 70
0
 10
-185.550810
 20
251.558703
 30
0.0
 10
-189.015700
 20
251.457353
 30
0.0
 10
-189.068700
 20
243.200503
 30
0.0
 10
-189.121600
 20
234.943683
 30
0.0
 10
-191.041960
 20
234.943683
 30
0.0
 10
-192.962330
 20
234.943683
 30
0.0
 10
-193.015230
 20
243.200453
 30
0.0
  0
SPLINE
  5
238
100
AcDbEntity
  8
Ebene_1
 62
7
100
AcDbSpline
 70
8
 71
3
 72
8
 73
4
 74
0
 40
0
 40
0
 40
0
 40
0
 40
1
 40
1
 40
1
 40
1
 10
-191.065870
 20
288.777903
 30
0.0
 10
-210.360440
 20
288.777903
 30
0.0
 10
-226.001090
 20
273.158363
 30
0.0
 10
-226.001090
 20
253.889843
 30
0.0
  0
LWPOLYLINE
  5
239
100
AcDbEntity
  8
Ebene_1
 62
7
100
AcDbPolyline
 90
4
 70
1
 10
-237.826620
 20
298.777903
 30
0.0
 10
-18.226610
 20
298.777903
 30
0.0
 10
-18.226610
 20
-0.822080
 30
0.0
 10
-237.826620
 20
-0.822080
 30
0.0
  0
SPLINE
  5
23a
100
AcDbEntity
  8
Ebene_1
 62
7
100
AcDbSpline
 70
8
 71
3
 72
8
 73
4
 74
0
 40
0
 40
0
 40
0
 40
0
 40
1
 40
1
 40
1
 40
1
 10
-226.001090
 20
44.043930
 30
0.0
 10
-226.001090
 20
24.775400
 30
0.0
 10
-210.360440
 20
9.155860
 30
0.0
 10
-191.065870
 20
9.155860
 30
0.0
  0
LWPOLYLINE
  5
23b
100
AcDbEntity
  8
Ebene_1
 62
7
100
AcDbPolyline
 90
2
 70
0
 10
-226.001090
 20
253.889843
 30
0.0
 10
-226.001090
 20
44.043930
 30
0.0
  0
SPLINE
  5
23c
100
AcDbEntity
  8
Ebene_1
 62
7
100
AcDbSpline
 70
8
 71
3
 72
8
 73
4
 74
0
 40
0
 40
0
 40
0
 40
0
 40
1
 40
1
 40
1
 40
1
 10
-64.987370
 20
9.155860
 30
0.0
 10
-45.692800
 20
9.155860
 30
0.0
 10
-30.052150
 20
24.775400
 30
0.0
 10
-30.052150
 20
44.043930
 30
0.0
  0
LWPOLYLINE
  5
23d
100
AcDbEntity
  8
Ebene_1
 62
7
100
AcDbPolyline
 90
2
 70
0
 10
-191.065870
 20
9.155860
 30
0.0
 10
-64.987370
 20
9.155860
 30
0.0
  0
SPLINE
  5
23e
100
AcDbEntity
  8
Ebene_1
 62
7
100
AcDbSpline
 70
8
 71
3
 72
8
 73
4
 74
0
 40
0
 40
0
 40
0
 40
0
 40
1
 40
1
 40
1
 40
1
 10
-30.052150
 20
253.889843
 30
0.0
 10
-30.052150
 20
273.158363
 30
0.0
 10
-45.692800
 20
288.777903
 30
0.0
 10
-64.987370
 20
288.777903
 30
0.0
  0
LWPOLYLINE
  5
23f
100
AcDbEntity
  8
Ebene_1
 62
7
100
AcDbPolyline
 90
2
 70
0
 10
-30.052150
 20
44.043930
 30
0.0
 10
-30.052150
 20
253.889843
 30
0.0
  0
LWPOLYLINE
  5
240
100
AcDbEntity
  8
Ebene_1
 62
7
100
AcDbPolyline
 90
2
 70
0
 10
-64.987370
 20
288.777903
 30
0.0
 10
-191.065870
 20
288.777903
 30
0.0
  0
SPLINE
  5
241
100
AcDbEntity
  8
Ebene_1
 62
7
100
AcDbSpline
 70
8
 71
3
 72
8
 73
4
 74
0
 40
0
 40
0
 40
0
 40
0
 40
1
 40
1
 40
1
 40
1
 10
-64.987370
 20
281.957853
 30
0.0
 10
-49.358090
 20
281.957853
 30
0.0
 10
-36.881420
 20
269.498013
 30
0.0
 10
-36.881420
 20
253.889843
 30
0.0
  0
LWPOLYLINE
  5
242
100
AcDbEntity
  8
Ebene_1
 62
7
100
AcDbPolyline
 90
2
 70
0
 10
-191.065870
 20
281.957853
 30
0.0
 10
-64.987370
 20
281.957853
 30
0.0
  0
SPLINE
  5
243
100
AcDbEntity
  8
Ebene_1
 62
7
100
AcDbSpline
 70
8
 71
3
 72
8
 73
4
 74
0
 40
0
 40
0
 40
0
 40
0
 40
1
 40
1
 40
1
 40
1
 10
-36.881420
 20
44.043930
 30
0.0
 10
-36.881420
 20
28.435750
 30
0.0
 10
-49.358090
 20
15.975920
 30
0.0
 10
-64.987370
 20
15.975920
 30
0.0
  0
LWPOLYLINE
  5
244
100
AcDbEntity
  8
Ebene_1
 62
7
100
AcDbPolyline
 90
2
 70
0
 10
-36.881420
 20
253.889843
 30
0.0
 10
-36.881420
 20
44.043930
 30
0.0
  0
SPLINE
  5
245
100
AcDbEntity
  8
Ebene_1
 62
7
100
AcDbSpline
 70
8
 71
3
 72
8
 73
4
 74
0
 40
0
 40
0
 40
0
 40
0
 40
1
 40
1
 40
1
 40
1
 10
-191.065870
 20
15.975920
 30
0.0
 10
-206.695160
 20
15.975920
 30
0.0
 10
-219.171820
 20
28.435750
 30
0.0
 10
-219.171820
 20
44.043930
 30
0.0
  0
LWPOLYLINE
  5
246
100
AcDbEntity
  8
Ebene_1
 62
7
100
AcDbPolyline
 90
2
 70
0
 10
-64.987370
 20
15.975920
 30
0.0
 10
-191.065870
 20
15.975920
 30
0.0
  0
SPLINE
  5
247
100
AcDbEntity
  8
Ebene_1
 62
7
100
AcDbSpline
 70
8
 71
3
 72
8
 73
4
 74
0
 40
0
 40
0
 40
0
 40
0
 40
1
 40
1
 40
1
 40
1
 10
-219.171820
 20
253.889843
 30
0.0
 10
-219.171820
 20
269.498013
 30
0.0
 10
-206.695160
 20
281.957853
 30
0.0
 10
-191.065870
 20
281.957853
 30
0.0
  0
LWPOLYLINE
  5
248
100
AcDbEntity
  8
Ebene_1
 62
7
100
AcDbPolyline
 90
2
 70
0
 10
-219.171820
 20
44.043930
 30
0.0
 10
-219.171820
 20
253.889843
 30
0.0
  0
SPLINE
  5
249
100
AcDbEntity
  8
Ebene_1
 62
7
100
AcDbSpline
 70
8
 71
3
 72
8
 73
4
 74
0
 40
0
 40
0
 40
0
 40
0
 40
1
 40
1
 40
1
 40
1
 10
-202.940300
 20
30.986230
 30
0.0
 10
-202.940306
 20
29.605522
 30
0.0
 10
-204.059592
 20
28.486240
 30
0.0
 10
-205.440300
 20
28.486240
 30
0.0
  0
SPLINE
  5
24a
100
AcDbEntity
  8
Ebene_1
 62
7
100
AcDbSpline
 70
8
 71
3
 72
8
 73
4
 74
0
 40
0
 40
0
 40
0
 40
0
 40
1
 40
1
 40
1
 40
1
 10
-205.440300
 20
28.486240
 30
0.0
 10
-206.821008
 20
28.486240
 30
0.0
 10
-207.940294
 20
29.605522
 30
0.0
 10
-207.940300
 20
30.986230
 30
0.0
  0
SPLINE
  5
24b
100
AcDbEntity
  8
Ebene_1
 62
7
100
AcDbSpline
 70
8
 71
3
 72
8
 73
4
 74
0
 40
0
 40
0
 40
0
 40
0
 40
1
 40
1
 40
1
 40
1
 10
-207.940300
 20
30.986230
 30
0.0
 10
-207.940300
 20
31.649271
 30
0.0
 10
-207.676908
 20
32.285156
 30
0.0
 10
-207.208067
 20
32.753997
 30
0.0
  0
SPLINE
  5
24c
100
AcDbEntity
  8
Ebene_1
 62
7
100
AcDbSpline
 70
8
 71
3
 72
8
 73
4
 74
0
 40
0
 40
0
 40
0
 40
0
 40
1
 40
1
 40
1
 40
1
 10
-207.208067
 20
32.753997
 30
0.0
 10
-206.739226
 20
33.222838
 30
0.0
 10
-206.103341
 20
33.486230
 30
0.0
 10
-205.440300
 20
33.486230
 30
0.0
  0
SPLINE
  5
24d
100
AcDbEntity
  8
Ebene_1
 62
7
100
AcDbSpline
 70
8
 71
3
 72
8
 73
4
 74
0
 40
0
 40
0
 40
0
 40
0
 40
1
 40
1
 40
1
 40
1
 10
-205.440300
 20
33.486230
 30
0.0
 10
-204.777259
 20
33.486230
 30
0.0
 10
-204.141374
 20
33.222838
 30
0.0
 10
-203.672533
 20
32.753997
 30
0.0
  0
SPLINE
  5
24e
100
AcDbEntity
  8
Ebene_1
 62
7
100
AcDbSpline
 70
8
 71
3
 72
8
 73
4
 74
0
 40
0
 40
0
 40
0
 40
0
 40
1
 40
1
 40
1
 40
1
 10
-203.672533
 20
32.753997
 30
0.0
 10
-203.203692
 20
32.285156
 30
0.0
 10
-202.940300
 20
31.649271
 30
0.0
 10
-202.940300
 20
30.986230
 30
0.0
  0
LWPOLYLINE
  5
24f
100
AcDbEntity
  8
Ebene_1
 62
7
100
AcDbPolyline
 90
1
 70
1
 10
-191.065870
 20
281.957853
 30
0.0
  0
SPLINE
  5
250
100
AcDbEntity
  8
Ebene_1
 62
7
100
AcDbSpline
 70
8
 71
3
 72
8
 73
4
 74
0
 40
0
 40
0
 40
0
 40
0
 40
1
 40
1
 40
1
 40
1
 10
-48.026620
 20
31.277910
 30
0.0
 10
-48.026615
 20
30.614865
 30
0.0
 10
-48.290004
 20
29.978975
 30
0.0
 10
-48.758846
 20
29.510130
 30
0.0
  0
SPLINE
  5
251
100
AcDbEntity
  8
Ebene_1
 62
7
100
AcDbSpline
 70
8
 71
3
 72
8
 73
4
 74
0
 40
0
 40
0
 40
0
 40
0
 40
1
 40
1
 40
1
 40
1
 10
-48.758846
 20
29.510130
 30
0.0
 10
-49.227687
 20
29.041285
 30
0.0
 10
-49.863575
 20
28.777890
 30
0.0
 10
-50.526620
 20
28.777890
 30
0.0
  0
SPLINE
  5
252
100
AcDbEntity
  8
Ebene_1
 62
7
100
AcDbSpline
 70
8
 71
3
 72
8
 73
4
 74
0
 40
0
 40
0
 40
0
 40
0
 40
1
 40
1
 40
1
 40
1
 10
-50.526620
 20
28.777890
 30
0.0
 10
-51.189665
 20
28.777890
 30
0.0
 10
-51.825553
 20
29.041285
 30
0.0
 10
-52.294394
 20
29.510130
 30
0.0
  0
SPLINE
  5
253
100
AcDbEntity
  8
Ebene_1
 62
7
100
AcDbSpline
 70
8
 71
3
 72
8
 73
4
 74
0
 40
0
 40
0
 40
0
 40
0
 40
1
 40
1
 40
1
 40
1
 10
-52.294394
 20
29.510130
 30
0.0
 10
-52.763236
 20
29.978975
 30
0.0
 10
-53.026625
 20
30.614865
 30
0.0
 10
-53.026620
 20
31.277910
 30
0.0
  0
SPLINE
  5
254
100
AcDbEntity
  8
Ebene_1
 62
7
100
AcDbSpline
 70
8
 71
3
 72
8
 73
4
 74
0
 40
0
 40
0
 40
0
 40
0
 40
1
 40
1
 40
1
 40
1
 10
-53.026620
 20
31.277910
 30
0.0
 10
-53.026614
 20
32.658618
 30
0.0
 10
-51.907328
 20
33.777900
 30
0.0
 10
-50.526620
 20
33.777900
 30
0.0
  0
SPLINE
  5
255
100
AcDbEntity
  8
Ebene_1
 62
7
100
AcDbSpline
 70
8
 71
3
 72
8
 73
4
 74
0
 40
0
 40
0
 40
0
 40
0
 40
1
 40
1
 40
1
 40
1
 10
-50.526620
 20
33.777900
 30
0.0
 10
-49.145912
 20
33.777900
 30
0.0
 10
-48.026626
 20
32.658618
 30
0.0
 10
-48.026620
 20
31.277910
 30
0.0
  0
LWPOLYLINE
  5
256
100
AcDbEntity
  8
Ebene_1
 62
7
100
AcDbPolyline
 90
1
 70
1
 10
-202.940300
 20
30.986230
 30
0.0
  0
SPLINE
  5
257
100
AcDbEntity
  8
Ebene_1
 62
7
100
AcDbSpline
 70
8
 71
3
 72
8
 73
4
 74
0
 40
0
 40
0
 40
0
 40
0
 40
1
 40
1
 40
1
 40
1
 10
-47.648640
 20
266.364203
 30
0.0
 10
-47.648646
 20
264.983495
 30
0.0
 10
-48.767932
 20
263.864213
 30
0.0
 10
-50.148640
 20
263.864213
 30
0.0
  0
SPLINE
  5
258
100
AcDbEntity
  8
Ebene_1
 62
7
100
AcDbSpline
 70
8
 71
3
 72
8
 73
4
 74
0
 40
0
 40
0
 40
0
 40
0
 40
1
 40
1
 40
1
 40
1
 10
-50.148640
 20
263.864213
 30
0.0
 10
-51.529348
 20
263.864213
 30
0.0
 10
-52.648634
 20
264.983495
 30
0.0
 10
-52.648640
 20
266.364203
 30
0.0
  0
SPLINE
  5
259
100
AcDbEntity
  8
Ebene_1
 62
7
100
AcDbSpline
 70
8
 71
3
 72
8
 73
4
 74
0
 40
0
 40
0
 40
0
 40
0
 40
1
 40
1
 40
1
 40
1
 10
-52.648640
 20
266.364203
 30
0.0
 10
-52.648643
 20
267.027246
 30
0.0
 10
-52.385252
 20
267.663133
 30
0.0
 10
-51.916410
 20
268.131976
 30
0.0
  0
SPLINE
  5
25a
100
AcDbEntity
  8
Ebene_1
 62
7
100
AcDbSpline
 70
8
 71
3
 72
8
 73
4
 74
0
 40
0
 40
0
 40
0
 40
0
 40
1
 40
1
 40
1
 40
1
 10
-51.916410
 20
268.131976
 30
0.0
 10
-51.447569
 20
268.600820
 30
0.0
 10
-50.811683
 20
268.864213
 30
0.0
 10
-50.148640
 20
268.864213
 30
0.0
  0
SPLINE
  5
25b
100
AcDbEntity
  8
Ebene_1
 62
7
100
AcDbSpline
 70
8
 71
3
 72
8
 73
4
 74
0
 40
0
 40
0
 40
0
 40
0
 40
1
 40
1
 40
1
 40
1
 10
-50.148640
 20
268.864213
 30
0.0
 10
-49.485597
 20
268.864213
 30
0.0
 10
-48.849711
 20
268.600820
 30
0.0
 10
-48.380870
 20
268.131976
 30
0.0
  0
SPLINE
  5
25c
100
AcDbEntity
  8
Ebene_1
 62
7
100
AcDbSpline
 70
8
 71
3
 72
8
 73
4
 74
0
 40
0
 40
0
 40
0
 40
0
 40
1
 40
1
 40
1
 40
1
 10
-48.380870
 20
268.131976
 30
0.0
 10
-47.912028
 20
267.663133
 30
0.0
 10
-47.648637
 20
267.027246
 30
0.0
 10
-47.648640
 20
266.364203
 30
0.0
  0
LWPOLYLINE
  5
25d
100
AcDbEntity
  8
Ebene_1
 62
7
100
AcDbPolyline
 90
1
 70
1
 10
-48.026620
 20
31.277910
 30
0.0
  0
SPLINE
  5
25e
100
AcDbEntity
  8
Ebene_1
 62
7
100
AcDbSpline
 70
8
 71
3
 72
8
 73
4
 74
0
 40
0
 40
0
 40
0
 40
0
 40
1
 40
1
 40
1
 40
1
 10
-202.648640
 20
266.364203
 30
0.0
 10
-202.648646
 20
264.983495
 30
0.0
 10
-203.767932
 20
263.864213
 30
0.0
 10
-205.148640
 20
263.864213
 30
0.0
  0
SPLINE
  5
25f
100
AcDbEntity
  8
Ebene_1
 62
7
100
AcDbSpline
 70
8
 71
3
 72
8
 73
4
 74
0
 40
0
 40
0
 40
0
 40
0
 40
1
 40
1
 40
1
 40
1
 10
-205.148640
 20
263.864213
 30
0.0
 10
-206.529348
 20
263.864213
 30
0.0
 10
-207.648634
 20
264.983495
 30
0.0
 10
-207.648640
 20
266.364203
 30
0.0
  0
SPLINE
  5
260
100
AcDbEntity
  8
Ebene_1
 62
7
100
AcDbSpline
 70
8
 71
3
 72
8
 73
4
 74
0
 40
0
 40
0
 40
0
 40
0
 40
1
 40
1
 40
1
 40
1
 10
-207.648640
 20
266.364203
 30
0.0
 10
-207.648643
 20
267.027246
 30
0.0
 10
-207.385252
 20
267.663133
 30
0.0
 10
-206.916410
 20
268.131976
 30
0.0
  0
SPLINE
  5
261
100
AcDbEntity
  8
Ebene_1
 62
7
100
AcDbSpline
 70
8
 71
3
 72
8
 73
4
 74
0
 40
0
 40
0
 40
0
 40
0
 40
1
 40
1
 40
1
 40
1
 10
-206.916410
 20
268.131976
 30
0.0
 10
-206.447569
 20
268.600820
 30
0.0
 10
-205.811683
 20
268.864213
 30
0.0
 10
-205.148640
 20
268.864213
 30
0.0
  0
SPLINE
  5
262
100
AcDbEntity
  8
Ebene_1
 62
7
100
AcDbSpline
 70
8
 71
3
 72
8
 73
4
 74
0
 40
0
 40
0
 40
0
 40
0
 40
1
 40
1
 40
1
 40
1
 10
-205.148640
 20
268.864213
 30
0.0
 10
-204.485597
 20
268.864213
 30
0.0
 10
-203.849711
 20
268.600820
 30
0.0
 10
-203.380870
 20
268.131976
 30
0.0
  0
SPLINE
  5
263
100
AcDbEntity
  8
Ebene_1
 62
7
100
AcDbSpline
 70
8
 71
3
 72
8
 73
4
 74
0
 40
0
 40
0
 40
0
 40
0
 40
1
 40
1
 40
1
 40
1
 10
-203.380870
 20
268.131976
 30
0.0
 10
-202.912028
 20
267.663133
 30
0.0
 10
-202.648637
 20
267.027246
 30
0.0
 10
-202.648640
 20
266.364203
 30
0.0
  0
LWPOLYLINE
  5
264
100
AcDbEntity
  8
Ebene_1
 62
7
100
AcDbPolyline
 90
1
 70
1
 10
-47.648640
 20
266.364203
 30
0.0
  0
SPLINE
  5
265
100
AcDbEntity
  8
Ebene_1
 62
7
100
AcDbSpline
 70
8
 71
3
 72
8
 73
4
 74
0
 40
0
 40
0
 40
0
 40
0
 40
1
 40
1
 40
1
 40
1
 10
-127.590520
 20
107.271870
 30
0.0
 10
-127.784530
 20
108.295070
 30
0.0
 10
-144.478670
 20
201.497668
 30
0.0
 10
-144.478670
 20
201.557618
 30
0.0
  0
SPLINE
  5
266
100
AcDbEntity
  8
Ebene_1
 62
7
100
AcDbSpline
 70
8
 71
3
 72
8
 73
4
 74
0
 40
0
 40
0
 40
0
 40
0
 40
1
 40
1
 40
1
 40
1
 10
-144.478670
 20
201.557618
 30
0.0
 10
-144.478670
 20
201.642818
 30
0.0
 10
-149.409400
 20
201.518118
 30
0.0
 10
-151.887830
 20
201.370278
 30
0.0
  0
SPLINE
  5
267
100
AcDbEntity
  8
Ebene_1
 62
7
100
AcDbSpline
 70
8
 71
3
 72
8
 73
4
 74
0
 40
0
 40
0
 40
0
 40
0
 40
1
 40
1
 40
1
 40
1
 10
-151.887830
 20
201.370278
 30
0.0
 10
-159.263490
 20
200.930428
 30
0.0
 10
-163.057000
 20
199.638819
 30
0.0
 10
-164.890500
 20
196.943150
 30
0.0
  0
SPLINE
  5
268
100
AcDbEntity
  8
Ebene_1
 62
7
100
AcDbSpline
 70
8
 71
3
 72
8
 73
4
 74
0
 40
0
 40
0
 40
0
 40
0
 40
1
 40
1
 40
1
 40
1
 10
-164.890500
 20
196.943150
 30
0.0
 10
-165.566500
 20
195.949270
 30
0.0
 10
-165.848720
 20
195.240610
 30
0.0
 10
-166.143750
 20
193.796470
 30
0.0
  0
SPLINE
  5
269
100
AcDbEntity
  8
Ebene_1
 62
7
100
AcDbSpline
 70
8
 71
3
 72
8
 73
4
 74
0
 40
0
 40
0
 40
0
 40
0
 40
1
 40
1
 40
1
 40
1
 10
-166.143750
 20
193.796470
 30
0.0
 10
-166.263620
 20
193.209700
 30
0.0
 10
-166.383560
 20
192.707750
 30
0.0
 10
-166.410270
 20
192.681040
 30
0.0
  0
SPLINE
  5
26a
100
AcDbEntity
  8
Ebene_1
 62
7
100
AcDbSpline
 70
8
 71
3
 72
8
 73
4
 74
0
 40
0
 40
0
 40
0
 40
0
 40
1
 40
1
 40
1
 40
1
 10
-166.410270
 20
192.681040
 30
0.0
 10
-166.500070
 20
192.591240
 30
0.0
 10
-169.565230
 20
194.047670
 30
0.0
 10
-171.100980
 20
194.909870
 30
0.0
  0
SPLINE
  5
26b
100
AcDbEntity
  8
Ebene_1
 62
7
100
AcDbSpline
 70
8
 71
3
 72
8
 73
4
 74
0
 40
0
 40
0
 40
0
 40
0
 40
1
 40
1
 40
1
 40
1
 10
-171.100980
 20
194.909870
 30
0.0
 10
-175.694430
 20
197.488717
 30
0.0
 10
-179.300650
 20
200.474598
 30
0.0
 10
-181.753880
 20
203.730285
 30
0.0
  0
SPLINE
  5
26c
100
AcDbEntity
  8
Ebene_1
 62
7
100
AcDbSpline
 70
8
 71
3
 72
8
 73
4
 74
0
 40
0
 40
0
 40
0
 40
0
 40
1
 40
1
 40
1
 40
1
 10
-181.753880
 20
203.730285
 30
0.0
 10
-182.114300
 20
204.208587
 30
0.0
 10
-182.409180
 20
204.639082
 30
0.0
 10
-182.409180
 20
204.686933
 30
0.0
  0
SPLINE
  5
26d
100
AcDbEntity
  8
Ebene_1
 62
7
100
AcDbSpline
 70
8
 71
3
 72
8
 73
4
 74
0
 40
0
 40
0
 40
0
 40
0
 40
1
 40
1
 40
1
 40
1
 10
-182.409180
 20
204.686933
 30
0.0
 10
-182.409180
 20
204.734803
 30
0.0
 10
-182.222560
 20
204.851165
 30
0.0
 10
-181.994490
 20
204.945553
 30
0.0
  0
SPLINE
  5
26e
100
AcDbEntity
  8
Ebene_1
 62
7
100
AcDbSpline
 70
8
 71
3
 72
8
 73
4
 74
0
 40
0
 40
0
 40
0
 40
0
 40
1
 40
1
 40
1
 40
1
 10
-181.994490
 20
204.945553
 30
0.0
 10
-181.766410
 20
205.039943
 30
0.0
 10
-180.783580
 20
205.463551
 30
0.0
 10
-179.810440
 20
205.886912
 30
0.0
  0
SPLINE
  5
26f
100
AcDbEntity
  8
Ebene_1
 62
7
100
AcDbSpline
 70
8
 71
3
 72
8
 73
4
 74
0
 40
0
 40
0
 40
0
 40
0
 40
1
 40
1
 40
1
 40
1
 10
-179.810440
 20
205.886912
 30
0.0
 10
-168.660660
 20
210.737549
 30
0.0
 10
-154.167630
 20
214.128050
 30
0.0
 10
-141.161130
 20
214.928530
 30
0.0
  0
LWPOLYLINE
  5
270
100
AcDbEntity
  8
Ebene_1
 62
7
100
AcDbPolyline
 90
1
 70
1
 10
-202.648640
 20
266.364203
 30
0.0
  0
SPLINE
  5
271
100
AcDbEntity
  8
Ebene_1
 62
7
100
AcDbSpline
 70
8
 71
3
 72
8
 73
4
 74
0
 40
0
 40
0
 40
0
 40
0
 40
1
 40
1
 40
1
 40
1
 10
-133.767550
 20
207.405531
 30
0.0
 10
-130.339710
 20
203.228580
 30
0.0
 10
-127.497180
 20
199.852917
 30
0.0
 10
-127.450840
 20
199.904058
 30
0.0
  0
SPLINE
  5
272
100
AcDbEntity
  8
Ebene_1
 62
7
100
AcDbSpline
 70
8
 71
3
 72
8
 73
4
 74
0
 40
0
 40
0
 40
0
 40
0
 40
1
 40
1
 40
1
 40
1
 10
-127.450840
 20
199.904058
 30
0.0
 10
-127.404440
 20
199.955158
 30
0.0
 10
-124.622370
 20
203.341186
 30
0.0
 10
-121.268390
 20
207.428445
 30
0.0
  0
SPLINE
  5
273
100
AcDbEntity
  8
Ebene_1
 62
7
100
AcDbSpline
 70
8
 71
3
 72
8
 73
4
 74
0
 40
0
 40
0
 40
0
 40
0
 40
1
 40
1
 40
1
 40
1
 10
-121.268390
 20
207.428445
 30
0.0
 10
-117.914380
 20
211.515707
 30
0.0
 10
-115.118960
 20
214.891499
 30
0.0
 10
-115.056360
 20
214.930200
 30
0.0
  0
SPLINE
  5
274
100
AcDbEntity
  8
Ebene_1
 62
7
100
AcDbSpline
 70
8
 71
3
 72
8
 73
4
 74
0
 40
0
 40
0
 40
0
 40
0
 40
1
 40
1
 40
1
 40
1
 10
-115.056360
 20
214.930200
 30
0.0
 10
-114.925740
 20
215.010920
 30
0.0
 10
-112.136350
 20
214.831010
 30
0.0
 10
-109.699820
 20
214.584723
 30
0.0
  0
SPLINE
  5
275
100
AcDbEntity
  8
Ebene_1
 62
7
100
AcDbSpline
 70
8
 71
3
 72
8
 73
4
 74
0
 40
0
 40
0
 40
0
 40
0
 40
1
 40
1
 40
1
 40
1
 10
-109.699820
 20
214.584723
 30
0.0
 10
-99.424620
 20
213.546074
 30
0.0
 10
-89.104759
 20
211.168391
 30
0.0
 10
-79.731411
 20
207.680023
 30
0.0
  0
SPLINE
  5
276
100
AcDbEntity
  8
Ebene_1
 62
7
100
AcDbSpline
 70
8
 71
3
 72
8
 73
4
 74
0
 40
0
 40
0
 40
0
 40
0
 40
1
 40
1
 40
1
 40
1
 10
-79.731411
 20
207.680023
 30
0.0
 10
-77.519251
 20
206.856746
 30
0.0
 10
-73.960881
 20
205.387342
 30
0.0
 10
-73.032841
 20
204.913896
 30
0.0
  0
LWPOLYLINE
  5
277
100
AcDbEntity
  8
Ebene_1
 62
7
100
AcDbPolyline
 90
3
 70
0
 10
-141.161130
 20
214.928530
 30
0.0
 10
-140.000000
 20
215.000000
 30
0.0
 10
-133.767550
 20
207.405531
 30
0.0
  0
SPLINE
  5
278
100
AcDbEntity
  8
Ebene_1
 62
7
100
AcDbSpline
 70
8
 71
3
 72
8
 73
4
 74
0
 40
0
 40
0
 40
0
 40
0
 40
1
 40
1
 40
1
 40
1
 10
-73.158551
 20
203.923804
 30
0.0
 10
-75.331931
 20
200.935658
 30
0.0
 10
-78.739141
 20
197.999167
 30
0.0
 10
-82.958631
 20
195.477600
 30
0.0
  0
SPLINE
  5
279
100
AcDbEntity
  8
Ebene_1
 62
7
100
AcDbSpline
 70
8
 71
3
 72
8
 73
4
 74
0
 40
0
 40
0
 40
0
 40
0
 40
1
 40
1
 40
1
 40
1
 10
-82.958631
 20
195.477600
 30
0.0
 10
-84.119071
 20
194.784110
 30
0.0
 10
-87.960534
 20
192.856030
 30
0.0
 10
-88.484311
 20
192.704170
 30
0.0
  0
SPLINE
  5
27a
100
AcDbEntity
  8
Ebene_1
 62
7
100
AcDbSpline
 70
8
 71
3
 72
8
 73
4
 74
0
 40
0
 40
0
 40
0
 40
0
 40
1
 40
1
 40
1
 40
1
 10
-88.484311
 20
192.704170
 30
0.0
 10
-88.700452
 20
192.641470
 30
0.0
 10
-88.729434
 20
192.688570
 30
0.0
 10
-88.801343
 20
193.219760
 30
0.0
  0
SPLINE
  5
27b
100
AcDbEntity
  8
Ebene_1
 62
7
100
AcDbSpline
 70
8
 71
3
 72
8
 73
4
 74
0
 40
0
 40
0
 40
0
 40
0
 40
1
 40
1
 40
1
 40
1
 10
-88.801343
 20
193.219760
 30
0.0
 10
-88.844873
 20
193.541260
 30
0.0
 10
-89.002079
 20
194.225960
 30
0.0
 10
-89.150690
 20
194.741310
 30
0.0
  0
SPLINE
  5
27c
100
AcDbEntity
  8
Ebene_1
 62
7
100
AcDbSpline
 70
8
 71
3
 72
8
 73
4
 74
0
 40
0
 40
0
 40
0
 40
0
 40
1
 40
1
 40
1
 40
1
 10
-89.150690
 20
194.741310
 30
0.0
 10
-90.320966
 20
198.799587
 30
0.0
 10
-93.778730
 20
200.601638
 30
0.0
 10
-101.682440
 20
201.272358
 30
0.0
  0
SPLINE
  5
27d
100
AcDbEntity
  8
Ebene_1
 62
7
100
AcDbSpline
 70
8
 71
3
 72
8
 73
4
 74
0
 40
0
 40
0
 40
0
 40
0
 40
1
 40
1
 40
1
 40
1
 10
-101.682440
 20
201.272358
 30
0.0
 10
-103.403390
 20
201.418398
 30
0.0
 10
-110.560710
 20
201.605818
 30
0.0
 10
-110.650640
 20
201.507188
 30
0.0
  0
SPLINE
  5
27e
100
AcDbEntity
  8
Ebene_1
 62
7
100
AcDbSpline
 70
8
 71
3
 72
8
 73
4
 74
0
 40
0
 40
0
 40
0
 40
0
 40
1
 40
1
 40
1
 40
1
 10
-110.650640
 20
201.507188
 30
0.0
 10
-110.696640
 20
201.456788
 30
0.0
 10
-124.513540
 20
123.948070
 30
0.0
 10
-127.429530
 20
107.382450
 30
0.0
  0
LWPOLYLINE
  5
27f
100
AcDbEntity
  8
Ebene_1
 62
7
100
AcDbPolyline
 90
3
 70
0
 10
-73.032841
 20
204.913896
 30
0.0
 10
-72.599291
 20
204.692711
 30
0.0
 10
-73.158551
 20
203.923804
 30
0.0
  0
SPLINE
  5
280
100
AcDbEntity
  8
Ebene_1
 62
7
100
AcDbSpline
 70
8
 71
3
 72
8
 73
4
 74
0
 40
0
 40
0
 40
0
 40
0
 40
1
 40
1
 40
1
 40
1
 10
-72.598701
 20
208.868260
 30
0.0
 10
-85.806231
 20
214.438465
 30
0.0
 10
-100.811550
 20
217.982980
 30
0.0
 10
-115.781970
 20
219.068880
 30
0.0
  0
SPLINE
  5
281
100
AcDbEntity
  8
Ebene_1
 62
7
100
AcDbSpline
 70
8
 71
3
 72
8
 73
4
 74
0
 40
0
 40
0
 40
0
 40
0
 40
1
 40
1
 40
1
 40
1
 10
-115.781970
 20
219.068880
 30
0.0
 10
-120.591650
 20
219.417754
 30
0.0
 10
-130.583720
 20
219.532003
 30
0.0
 10
-135.422170
 20
219.293443
 30
0.0
  0
SPLINE
  5
282
100
AcDbEntity
  8
Ebene_1
 62
7
100
AcDbSpline
 70
8
 71
3
 72
8
 73
4
 74
0
 40
0
 40
0
 40
0
 40
0
 40
1
 40
1
 40
1
 40
1
 10
-135.422170
 20
219.293443
 30
0.0
 10
-152.189630
 20
218.466717
 30
0.0
 10
-167.616010
 20
215.049611
 30
0.0
 10
-182.441650
 20
208.878138
 30
0.0
  0
SPLINE
  5
283
100
AcDbEntity
  8
Ebene_1
 62
7
100
AcDbSpline
 70
8
 71
3
 72
8
 73
4
 74
0
 40
0
 40
0
 40
0
 40
0
 40
1
 40
1
 40
1
 40
1
 10
-182.441650
 20
208.878138
 30
0.0
 10
-183.463080
 20
208.452953
 30
0.0
 10
-184.362380
 20
208.129479
 30
0.0
 10
-184.440100
 20
208.159300
 30
0.0
  0
SPLINE
  5
284
100
AcDbEntity
  8
Ebene_1
 62
7
100
AcDbSpline
 70
8
 71
3
 72
8
 73
4
 74
0
 40
0
 40
0
 40
0
 40
0
 40
1
 40
1
 40
1
 40
1
 10
-184.440100
 20
208.159300
 30
0.0
 10
-184.517800
 20
208.189170
 30
0.0
 10
-185.157310
 20
209.375486
 30
0.0
 10
-185.861170
 20
210.795664
 30
0.0
  0
SPLINE
  5
285
100
AcDbEntity
  8
Ebene_1
 62
7
100
AcDbSpline
 70
8
 71
3
 72
8
 73
4
 74
0
 40
0
 40
0
 40
0
 40
0
 40
1
 40
1
 40
1
 40
1
 10
-185.861170
 20
210.795664
 30
0.0
 10
-187.178060
 20
213.452747
 30
0.0
 10
-187.791760
 20
214.833038
 30
0.0
 10
-187.697950
 20
214.926846
 30
0.0
  0
SPLINE
  5
286
100
AcDbEntity
  8
Ebene_1
 62
7
100
AcDbSpline
 70
8
 71
3
 72
8
 73
4
 74
0
 40
0
 40
0
 40
0
 40
0
 40
1
 40
1
 40
1
 40
1
 10
-187.697950
 20
214.926846
 30
0.0
 10
-187.601950
 20
215.022786
 30
0.0
 10
-183.735520
 20
216.483493
 30
0.0
 10
-181.469210
 20
217.279976
 30
0.0
  0
SPLINE
  5
287
100
AcDbEntity
  8
Ebene_1
 62
7
100
AcDbSpline
 70
8
 71
3
 72
8
 73
4
 74
0
 40
0
 40
0
 40
0
 40
0
 40
1
 40
1
 40
1
 40
1
 10
-181.469210
 20
217.279976
 30
0.0
 10
-160.223370
 20
224.746733
 30
0.0
 10
-137.533380
 20
227.840964
 30
0.0
 10
-116.058430
 20
226.200031
 30
0.0
  0
SPLINE
  5
288
100
AcDbEntity
  8
Ebene_1
 62
7
100
AcDbSpline
 70
8
 71
3
 72
8
 73
4
 74
0
 40
0
 40
0
 40
0
 40
0
 40
1
 40
1
 40
1
 40
1
 10
-116.058430
 20
226.200031
 30
0.0
 10
-99.996460
 20
224.972710
 30
0.0
 10
-84.858831
 20
221.584612
 30
0.0
 10
-69.449721
 20
215.768089
 30
0.0
  0
SPLINE
  5
289
100
AcDbEntity
  8
Ebene_1
 62
7
100
AcDbSpline
 70
8
 71
3
 72
8
 73
4
 74
0
 40
0
 40
0
 40
0
 40
0
 40
1
 40
1
 40
1
 40
1
 10
-69.449721
 20
215.768089
 30
0.0
 10
-68.302471
 20
215.335033
 30
0.0
 10
-67.344101
 20
214.961000
 30
0.0
 10
-67.320001
 20
214.936903
 30
0.0
  0
SPLINE
  5
28a
100
AcDbEntity
  8
Ebene_1
 62
7
100
AcDbSpline
 70
8
 71
3
 72
8
 73
4
 74
0
 40
0
 40
0
 40
0
 40
0
 40
1
 40
1
 40
1
 40
1
 10
-67.320001
 20
214.936903
 30
0.0
 10
-67.194051
 20
214.810947
 30
0.0
 10
-70.275121
 20
208.379019
 30
0.0
 10
-70.587311
 20
208.116205
 30
0.0
  0
SPLINE
  5
28b
100
AcDbEntity
  8
Ebene_1
 62
7
100
AcDbSpline
 70
8
 71
3
 72
8
 73
4
 74
0
 40
0
 40
0
 40
0
 40
0
 40
1
 40
1
 40
1
 40
1
 10
-70.587311
 20
208.116205
 30
0.0
 10
-70.629211
 20
208.080945
 30
0.0
 10
-71.534321
 20
208.419363
 30
0.0
 10
-72.598701
 20
208.868260
 30
0.0
  0
LWPOLYLINE
  5
28c
100
AcDbEntity
  8
Ebene_1
 62
7
100
AcDbPolyline
 90
3
 70
0
 10
-127.429530
 20
107.382450
 30
0.0
 10
-127.517130
 20
106.884820
 30
0.0
 10
-127.590520
 20
107.271870
 30
0.0
  0
LWPOLYLINE
  5
28d
100
AcDbEntity
  8
Ebene_1
 62
7
100
AcDbPolyline
 90
1
 70
1
 10
-72.598701
 20
208.868260
 30
0.0
  0
ENDSEC
  0
SECTION
  2
OBJECTS
  0
DICTIONARY
  5
C
330
0
100
AcDbDictionary
  3
ACAD_GROUP
350
D
  3
ACAD_MLINESTYLE
350
17
  0
DICTIONARY
  5
D
330
C
100
AcDbDictionary
  0
DICTIONARY
  5
1A
330
C
100
AcDbDictionary
  0
DICTIONARY
  5
17
330
C
100
AcDbDictionary
  3
STANDARD
350
18
  0
DICTIONARY
  5
19
330
C
100
AcDbDictionary
  0
ENDSEC
  0
EOF
