<?xml version="1.0" encoding="UTF-8" standalone="no"?>
<svg
   xmlns:dc="http://purl.org/dc/elements/1.1/"
   xmlns:cc="http://creativecommons.org/ns#"
   xmlns:rdf="http://www.w3.org/1999/02/22-rdf-syntax-ns#"
   xmlns:svg="http://www.w3.org/2000/svg"
   xmlns="http://www.w3.org/2000/svg"
   xmlns:sodipodi="http://sodipodi.sourceforge.net/DTD/sodipodi-0.dtd"
   xmlns:inkscape="http://www.inkscape.org/namespaces/inkscape"
   width="220mm"
   height="300mm"
   viewBox="0 0 220 300"
   version="1.1"
   id="svg8"
   inkscape:version="1.0 (4035a4fb49, 2020-05-01)"
   sodipodi:docname="TeslaParkPlatz.svg">
  <defs
     id="defs2" />
  <sodipodi:namedview
     id="base"
     pagecolor="#ffffff"
     bordercolor="#666666"
     borderopacity="1.0"
     inkscape:pageopacity="0.0"
     inkscape:pageshadow="2"
     inkscape:zoom="0.74648384"
     inkscape:cx="503.97565"
     inkscape:cy="521.5932"
     inkscape:document-units="mm"
     inkscape:current-layer="layer1"
     showgrid="true"
     inkscape:window-width="3440"
     inkscape:window-height="1377"
     inkscape:window-x="1912"
     inkscape:window-y="-8"
     inkscape:window-maximized="1"
     inkscape:document-rotation="0">
    <inkscape:grid
       type="xygrid"
       id="grid21485"
       empspacing="5" />
  </sodipodi:namedview>
  <metadata
     id="metadata5">
    <rdf:RDF>
      <cc:Work
         rdf:about="">
        <dc:format>image/svg+xml</dc:format>
        <dc:type
           rdf:resource="http://purl.org/dc/dcmitype/StillImage" />
        <dc:title></dc:title>
      </cc:Work>
    </rdf:RDF>
  </metadata>
  <g
     inkscape:label="Ebene 1"
     inkscape:groupmode="layer"
     id="layer1">
    <path
       style="opacity:1;fill:none;fill-opacity:1;stroke:#000000;stroke-width:0.4;stroke-linejoin:round;stroke-miterlimit:4;stroke-dasharray:none;stroke-opacity:1;paint-order:markers fill stroke"
       d="M 0,0.40002 H 219.6 V 300 H 0 Z"
       id="rect867" />
    <g
       id="g3041">
      <path
         inkscape:connector-curvature="0"
         id="rect875"
         d="m 47.934729,13.003719 c -18.935247,0 -34.284622,15.328659 -34.284622,34.238335 V 253.18001 c 0,18.90968 15.349375,34.23834 34.284622,34.23834 H 171.66527 c 18.93525,0 34.28462,-15.32866 34.28462,-34.23834 V 47.242054 c 0,-18.909676 -15.34937,-34.238335 -34.28462,-34.238335 z m 0,6.693039 H 171.66527 c 15.33822,0 27.58253,12.227795 27.58253,27.545296 V 253.18001 c 0,15.31751 -12.24431,27.54529 -27.58253,27.54529 H 47.934729 c -15.338226,0 -27.582533,-12.22778 -27.582533,-27.54529 V 47.242054 c 0,-15.317501 12.244307,-27.545296 27.582533,-27.545296 z"
         style="color:#000000;font-style:normal;font-variant:normal;font-weight:normal;font-stretch:normal;font-size:medium;line-height:normal;font-family:sans-serif;font-variant-ligatures:normal;font-variant-position:normal;font-variant-caps:normal;font-variant-numeric:normal;font-variant-alternates:normal;font-feature-settings:normal;text-indent:0;text-align:start;text-decoration:none;text-decoration-line:none;text-decoration-style:solid;text-decoration-color:#000000;letter-spacing:normal;word-spacing:normal;text-transform:none;writing-mode:lr-tb;direction:ltr;text-orientation:mixed;dominant-baseline:auto;baseline-shift:baseline;text-anchor:start;white-space:normal;shape-padding:0;clip-rule:nonzero;display:inline;overflow:visible;visibility:visible;opacity:1;isolation:auto;mix-blend-mode:normal;color-interpolation:sRGB;color-interpolation-filters:linearRGB;solid-color:#000000;solid-opacity:1;vector-effect:none;fill:#000000;fill-opacity:1;fill-rule:nonzero;stroke:none;stroke-width:6.86964;stroke-linecap:butt;stroke-linejoin:round;stroke-miterlimit:4;stroke-dasharray:none;stroke-dashoffset:0;stroke-opacity:1;paint-order:markers fill stroke;color-rendering:auto;image-rendering:auto;shape-rendering:auto;text-rendering:auto;enable-background:accumulate" />
      <path
         id="path879"
         d="m 36.281437,265.99453 a 2.4534425,2.4534425 0 0 1 -2.453443,2.45344 2.4534425,2.4534425 0 0 1 -2.453442,-2.45344 2.4534425,2.4534425 0 0 1 2.453442,-2.45344 2.4534425,2.4534425 0 0 1 2.453443,2.45344 z"
         style="opacity:1;fill:none;fill-opacity:1;stroke:#000000;stroke-width:0.196275;stroke-linejoin:round;stroke-miterlimit:4;stroke-dasharray:none;stroke-opacity:1;paint-order:markers fill stroke" />
      <path
         id="path881"
         d="m 188.31016,265.7083 a 2.4534425,2.4534425 0 0 1 -2.45344,2.45344 2.4534425,2.4534425 0 0 1 -2.45344,-2.45344 2.4534425,2.4534425 0 0 1 2.45344,-2.45344 2.4534425,2.4534425 0 0 1 2.45344,2.45344 z"
         style="opacity:1;fill:none;fill-opacity:1;stroke:#000000;stroke-width:0.196275;stroke-linejoin:round;stroke-miterlimit:4;stroke-dasharray:none;stroke-opacity:1;paint-order:markers fill stroke" />
      <path
         id="path883"
         d="M 188.68109,35 A 2.4534425,2.4534425 0 0 1 186.22765,37.453443 2.4534425,2.4534425 0 0 1 183.77421,35 2.4534425,2.4534425 0 0 1 186.22765,32.546557 2.4534425,2.4534425 0 0 1 188.68109,35 Z"
         style="opacity:1;fill:none;fill-opacity:1;stroke:#000000;stroke-width:0.196275;stroke-linejoin:round;stroke-miterlimit:4;stroke-dasharray:none;stroke-opacity:1;paint-order:markers fill stroke" />
      <path
         id="path885"
         d="M 36.567665,35 A 2.4534425,2.4534425 0 0 1 34.114222,37.453443 2.4534425,2.4534425 0 0 1 31.66078,35 2.4534425,2.4534425 0 0 1 34.114222,32.546557 2.4534425,2.4534425 0 0 1 36.567665,35 Z"
         style="opacity:1;fill:none;fill-opacity:1;stroke:#000000;stroke-width:0.196275;stroke-linejoin:round;stroke-miterlimit:4;stroke-dasharray:none;stroke-opacity:1;paint-order:markers fill stroke" />
    </g>
    <path
       style="fill:#000000;stroke-width:1.27683"
       d="m 109.78475,228.80887 c -0.24771,-1.30646 -21.563291,-120.31042 -21.563291,-120.38696 0,-0.10869 -6.295709,0.0503 -9.460244,0.23921 -9.417475,0.56161 -14.261143,2.21079 -16.602214,5.65272 -0.863143,1.26902 -1.223475,2.17386 -1.600196,4.01777 -0.153043,0.74922 -0.306187,1.3901 -0.340293,1.42422 -0.114638,0.11464 -4.028353,-1.74497 -5.989236,-2.84584 -5.865059,-3.29276 -10.469596,-7.10523 -13.601958,-11.26221 -0.46019,-0.6107 -0.836695,-1.16038 -0.836695,-1.22146 0,-0.0611 0.238272,-0.20971 0.529478,-0.33023 0.291216,-0.12051 1.54613,-0.66139 2.78866,-1.20195 C 57.345136,96.700639 75.8503,92.371532 92.457389,91.349455 l 1.482565,-0.09125 7.957786,9.696895 c 4.37677,5.3333 8.0062,9.64345 8.06538,9.57815 0.0591,-0.0652 3.61146,-4.38863 7.89393,-9.60742 4.2825,-5.218764 7.85178,-9.529089 7.93169,-9.578502 0.16679,-0.10306 3.72838,0.126649 6.83941,0.441115 13.11969,1.326178 26.2964,4.362087 38.26459,8.816177 2.82455,1.0512 7.36798,2.9274 8.55292,3.53191 l 0.55358,0.28241 -0.71407,0.98177 c -2.77506,3.81537 -7.12547,7.56478 -12.51305,10.78439 -1.4817,0.88547 -6.38659,3.34729 -7.05536,3.54122 -0.27598,0.0801 -0.31298,0.0199 -0.4048,-0.65834 -0.0556,-0.41051 -0.2563,-1.28477 -0.44606,-1.94277 -1.49424,-5.18172 -5.90921,-7.48264 -16.00091,-8.33905 -2.19736,-0.18647 -11.33605,-0.42578 -11.45088,-0.29986 -0.0587,0.0644 -17.70057,99.02989 -21.42379,120.18136 l -0.11184,0.6354 z M 180,99.087419 C 163.13622,91.975186 143.97698,87.449441 124.86227,86.06293 118.72114,85.617477 105.96295,85.4716 99.785063,85.776203 c -21.4092,1.055588 -41.106066,5.418653 -60.035904,13.298609 -1.304196,0.54288 -2.452443,0.955918 -2.551684,0.917834 -0.09922,-0.03812 -0.915764,-1.552871 -1.814466,-3.366213 -1.681445,-3.392652 -2.465033,-5.15505 -2.34525,-5.274827 0.122575,-0.1225 5.059346,-1.987576 7.953037,-3.004548 27.127341,-9.533784 56.098609,-13.484592 83.518494,-11.389399 20.50841,1.567081 39.8366,5.893109 59.51143,13.319821 1.46484,0.55294 2.68852,1.030516 2.71929,1.061284 0.16082,0.160825 -3.7732,8.373336 -4.17181,8.708906 -0.0534,0.045 -1.20919,-0.387079 -2.5682,-0.960251 z"
       id="path2190"
       inkscape:connector-curvature="0"
       sodipodi:nodetypes="csscccccscsscscssssccsscccsccccsssccscsssccs" />
    <g
       style="font-style:normal;font-variant:normal;font-weight:normal;font-stretch:normal;font-size:32.7703px;line-height:1;font-family:TESLA;-inkscape-font-specification:TESLA;stroke-width:0.819259"
       id="text3947"
       aria-label="Parkplatz">
      <path
         id="path3953"
         style="font-style:normal;font-variant:normal;font-weight:500;font-stretch:normal;font-family:Gotham;-inkscape-font-specification:'Gotham Medium';text-align:center;text-anchor:middle;stroke-width:0.819259"
         d="m 32.345864,255.57889 h 6.357438 v -6.55406 h 3.145949 c 5.702033,0 9.863861,-2.85102 9.863861,-8.25812 v -0.0655 c 0,-5.0794 -3.735814,-8.06149 -9.536158,-8.06149 h -9.83109 z m 6.357438,-11.53515 v -6.0625 H 41.6854 c 2.293921,0 3.670274,1.04865 3.670274,3.01486 v 0.0655 c 0,1.80237 -1.376353,2.9821 -3.637504,2.9821 z" />
      <path
         id="path3955"
         style="font-style:normal;font-variant:normal;font-weight:500;font-stretch:normal;font-family:Gotham;-inkscape-font-specification:'Gotham Medium';text-align:center;text-anchor:middle;stroke-width:0.819259"
         d="m 58.634303,255.97213 c 2.326691,0 3.997976,-0.8848 5.210478,-2.22838 v 1.83514 h 6.160816 v -10.19157 c 0,-2.49054 -0.557095,-4.32568 -1.900677,-5.63649 -1.409123,-1.40912 -3.571963,-2.16284 -6.750682,-2.16284 -3.047638,0 -5.177708,0.5571 -7.176696,1.37635 l 1.278041,4.39123 c 1.572975,-0.62264 3.014868,-0.98311 4.882775,-0.98311 2.392232,0 3.539193,1.04865 3.539193,2.88378 v 0.29494 c -1.015879,-0.36048 -2.621624,-0.68818 -4.260139,-0.68818 -4.161829,0 -6.947304,1.90068 -6.947304,5.57095 v 0.0655 c 0,3.53919 2.588854,5.47264 5.964195,5.47264 z m 2.22838,-3.89966 c -1.278042,0 -2.19561,-0.72095 -2.19561,-1.93345 v -0.0655 c 0,-1.31081 1.04865,-2.19561 2.851016,-2.19561 0.917569,0 1.802367,0.19662 2.425003,0.45878 v 0.81926 c 0,1.7696 -1.278042,2.91656 -3.080409,2.91656 z" />
      <path
         id="path3957"
         style="font-style:normal;font-variant:normal;font-weight:500;font-stretch:normal;font-family:Gotham;-inkscape-font-specification:'Gotham Medium';text-align:center;text-anchor:middle;stroke-width:0.819259"
         d="m 73.204286,255.57889 h 6.226357 v -5.50541 c 0,-4.09629 1.835137,-5.9642 5.079397,-5.9642 h 0.524325 v -6.55406 c -2.949328,-0.13108 -4.587843,1.4419 -5.603722,3.8669 v -3.57197 h -6.226357 z" />
      <path
         id="path3959"
         style="font-style:normal;font-variant:normal;font-weight:500;font-stretch:normal;font-family:Gotham;-inkscape-font-specification:'Gotham Medium';text-align:center;text-anchor:middle;stroke-width:0.819259"
         d="m 87.221269,255.57889 h 6.226357 v -4.16183 l 1.605745,-1.86791 3.571963,6.02974 h 6.848996 l -6.324672,-10.61758 6.160822,-7.11116 h -7.04562 l -4.817234,5.93143 v -12.12501 h -6.226357 z" />
      <path
         id="path3961"
         style="font-style:normal;font-variant:normal;font-weight:500;font-stretch:normal;font-family:Gotham;-inkscape-font-specification:'Gotham Medium';text-align:center;text-anchor:middle;stroke-width:0.819259"
         d="m 106.99866,260.82214 h 6.22636 v -7.40609 c 1.14696,1.34358 2.71993,2.55608 5.4071,2.55608 4.19459,0 7.8321,-3.50642 7.8321,-9.27399 v -0.0655 c 0,-5.66927 -3.63751,-9.17569 -7.86488,-9.17569 -2.65439,0 -4.16182,1.27804 -5.37432,2.75271 v -2.35947 h -6.22636 z m 9.70001,-10.06049 c -1.99899,0 -3.60474,-1.67128 -3.60474,-4.03074 v -0.0655 c 0,-2.3267 1.60575,-3.99798 3.60474,-3.99798 2.03176,0 3.6375,1.67128 3.6375,3.99798 v 0.0655 c 0,2.39223 -1.60574,4.03074 -3.6375,4.03074 z" />
      <path
         id="path3963"
         style="font-style:normal;font-variant:normal;font-weight:500;font-stretch:normal;font-family:Gotham;-inkscape-font-specification:'Gotham Medium';text-align:center;text-anchor:middle;stroke-width:0.819259"
         d="m 129.2753,255.57889 h 6.22636 v -23.92232 h -6.22636 z" />
      <path
         id="path3965"
         style="font-style:normal;font-variant:normal;font-weight:500;font-stretch:normal;font-family:Gotham;-inkscape-font-specification:'Gotham Medium';text-align:center;text-anchor:middle;stroke-width:0.819259"
         d="m 144.08031,255.97213 c 2.32669,0 3.99797,-0.8848 5.21047,-2.22838 v 1.83514 h 6.16082 v -10.19157 c 0,-2.49054 -0.55709,-4.32568 -1.90068,-5.63649 -1.40912,-1.40912 -3.57196,-2.16284 -6.75068,-2.16284 -3.04764,0 -5.17771,0.5571 -7.1767,1.37635 l 1.27805,4.39123 c 1.57297,-0.62264 3.01486,-0.98311 4.88277,-0.98311 2.39223,0 3.53919,1.04865 3.53919,2.88378 v 0.29494 c -1.01588,-0.36048 -2.62162,-0.68818 -4.26014,-0.68818 -4.16182,0 -6.9473,1.90068 -6.9473,5.57095 v 0.0655 c 0,3.53919 2.58885,5.47264 5.9642,5.47264 z m 2.22838,-3.89966 c -1.27805,0 -2.19561,-0.72095 -2.19561,-1.93345 v -0.0655 c 0,-1.31081 1.04865,-2.19561 2.85101,-2.19561 0.91757,0 1.80237,0.19662 2.425,0.45878 v 0.81926 c 0,1.7696 -1.27804,2.91656 -3.0804,2.91656 z" />
      <path
         id="path3967"
         style="font-style:normal;font-variant:normal;font-weight:500;font-stretch:normal;font-family:Gotham;-inkscape-font-specification:'Gotham Medium';text-align:center;text-anchor:middle;stroke-width:0.819259"
         d="m 165.50389,255.93936 c 1.73683,0 3.21149,-0.39324 4.32568,-1.01588 v -4.88277 c -0.75372,0.36047 -1.5402,0.58986 -2.35946,0.58986 -1.14696,0 -1.70406,-0.52432 -1.70406,-1.76959 v -5.99697 h 4.12906 v -5.01386 h -4.12906 v -4.48953 h -6.22635 v 4.48953 h -2.0973 v 5.01386 h 2.0973 v 7.20947 c 0,4.22737 2.22838,5.86588 5.96419,5.86588 z" />
      <path
         id="path3969"
         style="font-style:normal;font-variant:normal;font-weight:500;font-stretch:normal;font-family:Gotham;-inkscape-font-specification:'Gotham Medium';text-align:center;text-anchor:middle;stroke-width:0.819259"
         d="m 171.98063,255.57889 h 16.45069 v -4.94832 h -8.22535 l 8.22535,-8.68413 v -4.09629 h -16.15576 v 4.94832 h 7.89764 l -8.19257,8.68413 z" />
    </g>
    <g
       transform="matrix(0.98137702,0,0,0.98137702,237.40208,6.8194301)"
       id="g2199">
      <path
         style="color:#000000;font-style:normal;font-variant:normal;font-weight:normal;font-stretch:normal;font-size:medium;line-height:1.55;font-family:TESLA;-inkscape-font-specification:TESLA;font-variant-ligatures:normal;font-variant-position:normal;font-variant-caps:normal;font-variant-numeric:normal;font-variant-alternates:normal;font-variant-east-asian:normal;font-feature-settings:normal;font-variation-settings:normal;text-indent:0;text-align:start;text-decoration:none;text-decoration-line:none;text-decoration-style:solid;text-decoration-color:#000000;letter-spacing:3.30133px;word-spacing:normal;text-transform:none;writing-mode:lr-tb;direction:ltr;text-orientation:mixed;dominant-baseline:auto;baseline-shift:baseline;text-anchor:start;white-space:normal;shape-padding:0;shape-margin:0;inline-size:0;clip-rule:nonzero;display:inline;overflow:visible;visibility:visible;isolation:auto;mix-blend-mode:normal;color-interpolation:sRGB;color-interpolation-filters:linearRGB;solid-color:#000000;solid-opacity:1;vector-effect:none;fill:#000000;fill-opacity:1;fill-rule:nonzero;stroke:none;stroke-width:1;stroke-linecap:butt;stroke-linejoin:miter;stroke-miterlimit:4;stroke-dasharray:none;stroke-dashoffset:0;stroke-opacity:1;color-rendering:auto;image-rendering:auto;shape-rendering:auto;text-rendering:auto;enable-background:accumulate;stop-color:#000000"
         d="m -76.48676,47.517686 v 13.855469 h 0.5 4.78515 v -8.570312 h 16.14063 v 8.570312 h 5.28516 V 47.517686 Z"
         id="path2187" />
      <path
         style="color:#000000;font-style:normal;font-variant:normal;font-weight:normal;font-stretch:normal;font-size:medium;line-height:1.55;font-family:TESLA;-inkscape-font-specification:TESLA;font-variant-ligatures:normal;font-variant-position:normal;font-variant-caps:normal;font-variant-numeric:normal;font-variant-alternates:normal;font-variant-east-asian:normal;font-feature-settings:normal;font-variation-settings:normal;text-indent:0;text-align:start;text-decoration:none;text-decoration-line:none;text-decoration-style:solid;text-decoration-color:#000000;letter-spacing:3.30133px;word-spacing:normal;text-transform:none;writing-mode:lr-tb;direction:ltr;text-orientation:mixed;dominant-baseline:auto;baseline-shift:baseline;text-anchor:start;white-space:normal;shape-padding:0;shape-margin:0;inline-size:0;clip-rule:nonzero;display:inline;overflow:visible;visibility:visible;isolation:auto;mix-blend-mode:normal;color-interpolation:sRGB;color-interpolation-filters:linearRGB;solid-color:#000000;solid-opacity:1;vector-effect:none;fill:#000000;fill-opacity:1;fill-rule:nonzero;stroke:none;stroke-width:1;stroke-linecap:butt;stroke-linejoin:miter;stroke-miterlimit:4;stroke-dasharray:none;stroke-dashoffset:0;stroke-opacity:1;color-rendering:auto;image-rendering:auto;shape-rendering:auto;text-rendering:auto;enable-background:accumulate;stop-color:#000000"
         d="m -76.48676,38.947374 v 0.5 c 0,1.299249 0.47206,2.463172 1.37891,3.394531 l 0.004,0.002 0.002,0.002 c 0.9118,0.911795 2.08098,1.386719 3.40039,1.386719 h 17.14063 c 1.27917,0 2.43154,-0.475539 3.36133,-1.380859 0.93522,-0.910612 1.42383,-2.081798 1.42383,-3.404297 v -0.5 z"
         id="path2152" />
      <path
         style="color:#000000;font-style:normal;font-variant:normal;font-weight:normal;font-stretch:normal;font-size:medium;line-height:1.55;font-family:TESLA;-inkscape-font-specification:TESLA;font-variant-ligatures:normal;font-variant-position:normal;font-variant-caps:normal;font-variant-numeric:normal;font-variant-alternates:normal;font-variant-east-asian:normal;font-feature-settings:normal;font-variation-settings:normal;text-indent:0;text-align:start;text-decoration:none;text-decoration-line:none;text-decoration-style:solid;text-decoration-color:#000000;letter-spacing:3.30133px;word-spacing:normal;text-transform:none;writing-mode:lr-tb;direction:ltr;text-orientation:mixed;dominant-baseline:auto;baseline-shift:baseline;text-anchor:start;white-space:normal;shape-padding:0;shape-margin:0;inline-size:0;clip-rule:nonzero;display:inline;overflow:visible;visibility:visible;isolation:auto;mix-blend-mode:normal;color-interpolation:sRGB;color-interpolation-filters:linearRGB;solid-color:#000000;solid-opacity:1;vector-effect:none;fill:#000000;fill-opacity:1;fill-rule:nonzero;stroke:none;stroke-width:1;stroke-linecap:butt;stroke-linejoin:miter;stroke-miterlimit:4;stroke-dasharray:none;stroke-dashoffset:0;stroke-opacity:1;color-rendering:auto;image-rendering:auto;shape-rendering:auto;text-rendering:auto;enable-background:accumulate;stop-color:#000000"
         d="m -209.67817,38.947374 v 0.5 c 0,1.299249 0.47401,2.463172 1.38086,3.394531 l 0.002,0.002 0.002,0.002 c 0.9118,0.911796 2.08098,1.386719 3.40039,1.386719 h 5.92774 v 17.140531 h 0.5 4.78515 V 44.23253 h 5.92774 c 1.27917,0 2.43154,-0.475539 3.36133,-1.380859 0.93522,-0.910611 1.42382,-2.081797 1.42382,-3.404297 v -0.5 z"
         id="path2136" />
      <path
         style="color:#000000;font-style:normal;font-variant:normal;font-weight:normal;font-stretch:normal;font-size:medium;line-height:1.55;font-family:TESLA;-inkscape-font-specification:TESLA;font-variant-ligatures:normal;font-variant-position:normal;font-variant-caps:normal;font-variant-numeric:normal;font-variant-alternates:normal;font-variant-east-asian:normal;font-feature-settings:normal;font-variation-settings:normal;text-indent:0;text-align:start;text-decoration:none;text-decoration-line:none;text-decoration-style:solid;text-decoration-color:#000000;letter-spacing:3.30133px;word-spacing:normal;text-transform:none;writing-mode:lr-tb;direction:ltr;text-orientation:mixed;dominant-baseline:auto;baseline-shift:baseline;text-anchor:start;white-space:normal;shape-padding:0;shape-margin:0;inline-size:0;clip-rule:nonzero;display:inline;overflow:visible;visibility:visible;isolation:auto;mix-blend-mode:normal;color-interpolation:sRGB;color-interpolation-filters:linearRGB;solid-color:#000000;solid-opacity:1;vector-effect:none;fill:#000000;fill-opacity:1;fill-rule:nonzero;stroke:none;stroke-width:1;stroke-linecap:butt;stroke-linejoin:miter;stroke-miterlimit:4;stroke-dasharray:none;stroke-dashoffset:0;stroke-opacity:1;color-rendering:auto;image-rendering:auto;shape-rendering:auto;text-rendering:auto;enable-background:accumulate;stop-color:#000000"
         d="m -176.38129,56.087999 v 0.5 c 0,1.299249 0.47401,2.463172 1.38086,3.394531 l 0.002,0.002 0.002,0.0039 c 0.91179,0.911796 2.08097,1.384766 3.40039,1.384766 h 17.14062 c 1.27917,0 2.4335,-0.475539 3.36328,-1.380859 0.93523,-0.910611 1.42188,-2.081797 1.42188,-3.404297 v -0.5 z"
         id="path2171" />
      <path
         style="color:#000000;font-style:normal;font-variant:normal;font-weight:normal;font-stretch:normal;font-size:medium;line-height:1.55;font-family:TESLA;-inkscape-font-specification:TESLA;font-variant-ligatures:normal;font-variant-position:normal;font-variant-caps:normal;font-variant-numeric:normal;font-variant-alternates:normal;font-variant-east-asian:normal;font-feature-settings:normal;font-variation-settings:normal;text-indent:0;text-align:start;text-decoration:none;text-decoration-line:none;text-decoration-style:solid;text-decoration-color:#000000;letter-spacing:3.30133px;word-spacing:normal;text-transform:none;writing-mode:lr-tb;direction:ltr;text-orientation:mixed;dominant-baseline:auto;baseline-shift:baseline;text-anchor:start;white-space:normal;shape-padding:0;shape-margin:0;inline-size:0;clip-rule:nonzero;display:inline;overflow:visible;visibility:visible;isolation:auto;mix-blend-mode:normal;color-interpolation:sRGB;color-interpolation-filters:linearRGB;solid-color:#000000;solid-opacity:1;vector-effect:none;fill:#000000;fill-opacity:1;fill-rule:nonzero;stroke:none;stroke-width:1;stroke-linecap:butt;stroke-linejoin:miter;stroke-miterlimit:4;stroke-dasharray:none;stroke-dashoffset:0;stroke-opacity:1;color-rendering:auto;image-rendering:auto;shape-rendering:auto;text-rendering:auto;enable-background:accumulate;stop-color:#000000"
         d="m -176.38129,47.517686 v 0.5 c 0,1.29925 0.47401,2.463172 1.38086,3.394531 l 0.002,0.002 0.002,0.0039 c 0.91179,0.911795 2.08097,1.384766 3.40039,1.384766 h 17.14062 c 1.27917,0 2.4335,-0.475539 3.36328,-1.38086 0.93523,-0.910611 1.42188,-2.081797 1.42188,-3.404297 v -0.5 z"
         id="path2167" />
      <path
         style="color:#000000;font-style:normal;font-variant:normal;font-weight:normal;font-stretch:normal;font-size:medium;line-height:1.55;font-family:TESLA;-inkscape-font-specification:TESLA;font-variant-ligatures:normal;font-variant-position:normal;font-variant-caps:normal;font-variant-numeric:normal;font-variant-alternates:normal;font-variant-east-asian:normal;font-feature-settings:normal;font-variation-settings:normal;text-indent:0;text-align:start;text-decoration:none;text-decoration-line:none;text-decoration-style:solid;text-decoration-color:#000000;letter-spacing:3.30133px;word-spacing:normal;text-transform:none;writing-mode:lr-tb;direction:ltr;text-orientation:mixed;dominant-baseline:auto;baseline-shift:baseline;text-anchor:start;white-space:normal;shape-padding:0;shape-margin:0;inline-size:0;clip-rule:nonzero;display:inline;overflow:visible;visibility:visible;isolation:auto;mix-blend-mode:normal;color-interpolation:sRGB;color-interpolation-filters:linearRGB;solid-color:#000000;solid-opacity:1;vector-effect:none;fill:#000000;fill-opacity:1;fill-rule:nonzero;stroke:none;stroke-width:1;stroke-linecap:butt;stroke-linejoin:miter;stroke-miterlimit:4;stroke-dasharray:none;stroke-dashoffset:0;stroke-opacity:1;color-rendering:auto;image-rendering:auto;shape-rendering:auto;text-rendering:auto;enable-background:accumulate;stop-color:#000000"
         d="m -176.38129,38.947374 v 0.5 c 0,1.299249 0.47401,2.463172 1.38086,3.394531 l 0.002,0.002 0.002,0.002 c 0.91179,0.911796 2.08097,1.386719 3.40039,1.386719 h 17.14062 c 1.27917,0 2.4335,-0.475539 3.36328,-1.380859 0.93523,-0.910611 1.42188,-2.081797 1.42188,-3.404297 v -0.5 z"
         id="path2140" />
      <path
         style="color:#000000;font-style:normal;font-variant:normal;font-weight:normal;font-stretch:normal;font-size:medium;line-height:1.55;font-family:TESLA;-inkscape-font-specification:TESLA;font-variant-ligatures:normal;font-variant-position:normal;font-variant-caps:normal;font-variant-numeric:normal;font-variant-alternates:normal;font-variant-east-asian:normal;font-feature-settings:normal;font-variation-settings:normal;text-indent:0;text-align:start;text-decoration:none;text-decoration-line:none;text-decoration-style:solid;text-decoration-color:#000000;letter-spacing:3.30133px;word-spacing:normal;text-transform:none;writing-mode:lr-tb;direction:ltr;text-orientation:mixed;dominant-baseline:auto;baseline-shift:baseline;text-anchor:start;white-space:normal;shape-padding:0;shape-margin:0;inline-size:0;clip-rule:nonzero;display:inline;overflow:visible;visibility:visible;isolation:auto;mix-blend-mode:normal;color-interpolation:sRGB;color-interpolation-filters:linearRGB;solid-color:#000000;solid-opacity:1;vector-effect:none;fill:#000000;fill-opacity:1;fill-rule:nonzero;stroke:none;stroke-width:1;stroke-linecap:butt;stroke-linejoin:miter;stroke-miterlimit:4;stroke-dasharray:none;stroke-dashoffset:0;stroke-opacity:1;color-rendering:auto;image-rendering:auto;shape-rendering:auto;text-rendering:auto;enable-background:accumulate;stop-color:#000000"
         d="m -143.08246,38.947374 v 13.855469 h 21.42578 v 3.285156 h -16.64063 c -1.30239,0 -2.47009,0.487668 -3.40039,1.417968 -0.9102,0.910204 -1.38476,2.067939 -1.38476,3.367188 v 0.5 h 0.5 26.21093 V 47.517686 h -21.42578 V 44.23253 h 16.64063 c 1.27917,0 2.43154,-0.475539 3.36133,-1.380859 0.93522,-0.910612 1.42382,-2.081798 1.42382,-3.404297 v -0.5 z"
         id="path2144" />
      <path
         style="color:#000000;font-style:normal;font-variant:normal;font-weight:normal;font-stretch:normal;font-size:medium;line-height:1.55;font-family:TESLA;-inkscape-font-specification:TESLA;font-variant-ligatures:normal;font-variant-position:normal;font-variant-caps:normal;font-variant-numeric:normal;font-variant-alternates:normal;font-variant-east-asian:normal;font-feature-settings:normal;font-variation-settings:normal;text-indent:0;text-align:start;text-decoration:none;text-decoration-line:none;text-decoration-style:solid;text-decoration-color:#000000;letter-spacing:3.30133px;word-spacing:normal;text-transform:none;writing-mode:lr-tb;direction:ltr;text-orientation:mixed;dominant-baseline:auto;baseline-shift:baseline;text-anchor:start;white-space:normal;shape-padding:0;shape-margin:0;inline-size:0;clip-rule:nonzero;display:inline;overflow:visible;visibility:visible;isolation:auto;mix-blend-mode:normal;color-interpolation:sRGB;color-interpolation-filters:linearRGB;solid-color:#000000;solid-opacity:1;vector-effect:none;fill:#000000;fill-opacity:1;fill-rule:nonzero;stroke:none;stroke-width:1;stroke-linecap:butt;stroke-linejoin:miter;stroke-miterlimit:4;stroke-dasharray:none;stroke-dashoffset:0;stroke-opacity:1;color-rendering:auto;image-rendering:auto;shape-rendering:auto;text-rendering:auto;enable-background:accumulate;stop-color:#000000"
         d="m -109.78559,38.947374 v 22.425781 h 0.5 21.42578 c 1.27917,0 2.4335,-0.475539 3.36328,-1.380859 0.93522,-0.910612 1.42188,-2.081798 1.42188,-3.404297 v -0.5 h -21.42578 V 38.947374 Z"
         id="path2148" />
    </g>
  </g>
</svg>
