  0
SECTION
  2
HEADER
  9
$ACADVER
  1
AC1014
  9
$HANDSEED
  5
FFFF
  9
$MEASUREMENT
 70
     1
  0
ENDSEC
  0
SECTION
  2
TABLES
  0
TABLE
  2
VPORT
  5
8
330
0
100
AcDbSymbolTable
 70
     4
  0
VPORT
  5
2E
330
8
100
AcDbSymbolTableRecord
100
AcDbViewportTableRecord
  2
*ACTIVE
 70
     0
 10
0.0
 20
0.0
 11
1.0
 21
1.0
 12
210.0
 22
148.5
 13
0.0
 23
0.0
 14
10.0
 24
10.0
 15
10.0
 25
10.0
 16
0.0
 26
0.0
 36
1.0
 17
0.0
 27
0.0
 37
0.0
 40
341.0
 41
1.24
 42
50.0
 43
0.0
 44
0.0
 50
0.0
 51
0.0
 71
     0
 72
   100
 73
     1
 74
     3
 75
     0
 76
     0
 77
     0
 78
     0
  0
ENDTAB
  0
TABLE
  2
LTYPE
  5
5
330
0
100
AcDbSymbolTable
 70
     1
  0
LTYPE
  5
14
330
5
100
AcDbSymbolTableRecord
100
AcDbLinetypeTableRecord
  2
BYBLOCK
 70
     0
  3

 72
    65
 73
     0
 40
0.0
  0
LTYPE
  5
15
330
5
100
AcDbSymbolTableRecord
100
AcDbLinetypeTableRecord
  2
BYLAYER
 70
     0
  3

 72
    65
 73
     0
 40
0.0
  0
LTYPE
  5
16
330
5
100
AcDbSymbolTableRecord
100
AcDbLinetypeTableRecord
  2
CONTINUOUS
 70
     0
  3
Solid line
 72
    65
 73
     0
 40
0.0
  0
ENDTAB
  0
TABLE
  2
LAYER
  5
2
100
AcDbSymbolTable
 70
2
  0
LAYER
  5
50
100
AcDbSymbolTableRecord
100
AcDbLayerTableRecord
  2
0
 70
0
  6
CONTINUOUS
  0
LAYER
  5
51
100
AcDbSymbolTableRecord
100
AcDbLayerTableRecord
  2
Ebene_1
 70
0
  6
CONTINUOUS
  0
ENDTAB
  0
TABLE
  2
STYLE
  5
3
330
0
100
AcDbSymbolTable
 70
     1
  0
STYLE
  5
11
330
3
100
AcDbSymbolTableRecord
100
AcDbTextStyleTableRecord
  2
STANDARD
 70
     0
 40
0.0
 41
1.0
 50
0.0
 71
     0
 42
2.5
  3
txt
  4

  0
ENDTAB
  0
TABLE
  2
VIEW
  5
6
330
0
100
AcDbSymbolTable
 70
     0
  0
ENDTAB
  0
TABLE
  2
UCS
  5
7
330
0
100
AcDbSymbolTable
 70
     0
  0
ENDTAB
  0
TABLE
  2
APPID
  5
9
330
0
100
AcDbSymbolTable
 70
     2
  0
APPID
  5
12
330
9
100
AcDbSymbolTableRecord
100
AcDbRegAppTableRecord
  2
ACAD
 70
     0
  0
ENDTAB
  0
TABLE
  2
DIMSTYLE
  5
A
330
0
100
AcDbSymbolTable
 70
     1
  0
DIMSTYLE
105
27
330
A
100
AcDbSymbolTableRecord
100
AcDbDimStyleTableRecord
  2
ISO-25
 70
     0
  3

  4

  5

  6

  7

 40
1.0
 41
2.5
 42
0.625
 43
3.75
 44
1.25
 45
0.0
 46
0.0
 47
0.0
 48
0.0
140
2.5
141
2.5
142
0.0
143
0.03937007874016
144
1.0
145
0.0
146
1.0
147
0.625
 71
     0
 72
     0
 73
     0
 74
     0
 75
     0
 76
     0
 77
     1
 78
     8
170
     0
171
     3
172
     1
173
     0
174
     0
175
     0
176
     0
177
     0
178
     0
270
     2
271
     2
272
     2
273
     2
274
     3
340
11
275
     0
280
     0
281
     0
282
     0
283
     0
284
     8
285
     0
286
     0
287
     3
288
     0
  0
ENDTAB
  0
TABLE
  2
BLOCK_RECORD
  5
1
330
0
100
AcDbSymbolTable
 70
     1
  0
BLOCK_RECORD
  5
1F
330
1
100
AcDbSymbolTableRecord
100
AcDbBlockTableRecord
  2
*MODEL_SPACE
  0
BLOCK_RECORD
  5
1B
330
1
100
AcDbSymbolTableRecord
100
AcDbBlockTableRecord
  2
*PAPER_SPACE
  0
ENDTAB
  0
ENDSEC
  0
SECTION
  2
BLOCKS
  0
BLOCK
  5
20
330
1F
100
AcDbEntity
  8
0
100
AcDbBlockBegin
  2
*MODEL_SPACE
 70
     0
 10
0.0
 20
0.0
 30
0.0
  3
*MODEL_SPACE
  1

  0
ENDBLK
  5
21
330
1F
100
AcDbEntity
  8
0
100
AcDbBlockEnd
  0
BLOCK
  5
1C
330
1B
100
AcDbEntity
 67
     1
  8
0
100
AcDbBlockBegin
  2
*PAPER_SPACE
  1

  0
ENDBLK
  5
1D
330
1B
100
AcDbEntity
 67
     1
  8
0
100
AcDbBlockEnd
  0
ENDSEC
  0
SECTION
  2
ENTITIES
  0
LWPOLYLINE
  5
100
100
AcDbEntity
  8
Ebene_1
 62
7
100
AcDbPolyline
 90
4
 70
1
 10
0.000000
 20
299.599980
 30
0.0
 10
380.000000
 20
299.599980
 30
0.0
 10
380.000000
 20
0.000000
 30
0.0
 10
0.000000
 20
0.000000
 30
0.0
  0
SPLINE
  5
101
100
AcDbEntity
  8
Ebene_1
 62
7
100
AcDbSpline
 70
8
 71
3
 72
8
 73
4
 74
0
 40
0
 40
0
 40
0
 40
0
 40
1
 40
1
 40
1
 40
1
 10
150.758908
 20
73.471940
 30
0.0
 10
150.758908
 20
72.364881
 30
0.0
 10
151.133896
 20
71.368016
 30
0.0
 10
151.849275
 20
70.574435
 30
0.0
  0
LWPOLYLINE
  5
102
100
AcDbEntity
  8
Ebene_1
 62
7
100
AcDbPolyline
 90
2
 70
0
 10
150.758908
 20
81.175816
 30
0.0
 10
150.758908
 20
73.471940
 30
0.0
  0
SPLINE
  5
103
100
AcDbEntity
  8
Ebene_1
 62
7
100
AcDbSpline
 70
8
 71
3
 72
8
 73
4
 74
0
 40
0
 40
0
 40
0
 40
0
 40
1
 40
1
 40
1
 40
1
 10
151.852646
 20
70.570886
 30
0.0
 10
152.572246
 20
69.793628
 30
0.0
 10
153.497984
 20
69.387753
 30
0.0
 10
154.538550
 20
69.387753
 30
0.0
  0
LWPOLYLINE
  5
104
100
AcDbEntity
  8
Ebene_1
 62
7
100
AcDbPolyline
 90
3
 70
0
 10
151.849275
 20
70.574435
 30
0.0
 10
151.850961
 20
70.572660
 30
0.0
 10
151.852646
 20
70.570886
 30
0.0
  0
SPLINE
  5
105
100
AcDbEntity
  8
Ebene_1
 62
7
100
AcDbSpline
 70
8
 71
3
 72
8
 73
4
 74
0
 40
0
 40
0
 40
0
 40
0
 40
1
 40
1
 40
1
 40
1
 10
157.464535
 20
80.714857
 30
0.0
 10
157.464535
 20
79.607789
 30
0.0
 10
157.839524
 20
78.612734
 30
0.0
 10
158.554901
 20
77.819153
 30
0.0
  0
LWPOLYLINE
  5
106
100
AcDbEntity
  8
Ebene_1
 62
7
100
AcDbPolyline
 90
5
 70
0
 10
154.538550
 20
69.387753
 30
0.0
 10
171.731001
 20
69.387753
 30
0.0
 10
171.731001
 20
81.175861
 30
0.0
 10
157.464535
 20
81.175861
 30
0.0
 10
157.464535
 20
80.714857
 30
0.0
  0
SPLINE
  5
107
100
AcDbEntity
  8
Ebene_1
 62
7
100
AcDbSpline
 70
8
 71
3
 72
8
 73
4
 74
0
 40
0
 40
0
 40
0
 40
0
 40
1
 40
1
 40
1
 40
1
 10
158.559958
 20
77.813830
 30
0.0
 10
159.279557
 20
77.036581
 30
0.0
 10
160.205295
 20
76.632498
 30
0.0
 10
161.245862
 20
76.632498
 30
0.0
  0
LWPOLYLINE
  5
108
100
AcDbEntity
  8
Ebene_1
 62
7
100
AcDbPolyline
 90
3
 70
0
 10
158.554901
 20
77.819153
 30
0.0
 10
158.558272
 20
77.815604
 30
0.0
 10
158.559958
 20
77.813830
 30
0.0
  0
SPLINE
  5
109
100
AcDbEntity
  8
Ebene_1
 62
7
100
AcDbSpline
 70
8
 71
3
 72
8
 73
4
 74
0
 40
0
 40
0
 40
0
 40
0
 40
1
 40
1
 40
1
 40
1
 10
156.215836
 20
73.933077
 30
0.0
 10
155.844625
 20
73.933077
 30
0.0
 10
155.572509
 20
74.052914
 30
0.0
 10
155.317201
 20
74.309436
 30
0.0
  0
SPLINE
  5
10a
100
AcDbEntity
  8
Ebene_1
 62
7
100
AcDbSpline
 70
8
 71
3
 72
8
 73
4
 74
0
 40
0
 40
0
 40
0
 40
0
 40
1
 40
1
 40
1
 40
1
 10
155.317201
 20
74.309436
 30
0.0
 10
155.077779
 20
74.586114
 30
0.0
 10
154.965416
 20
74.879383
 30
0.0
 10
154.965416
 20
75.281878
 30
0.0
  0
LWPOLYLINE
  5
10b
100
AcDbEntity
  8
Ebene_1
 62
7
100
AcDbPolyline
 90
4
 70
0
 10
161.245862
 20
76.632498
 30
0.0
 10
167.524641
 20
76.632498
 30
0.0
 10
167.524641
 20
73.933077
 30
0.0
 10
156.215836
 20
73.933077
 30
0.0
  0
LWPOLYLINE
  5
10c
100
AcDbEntity
  8
Ebene_1
 62
7
100
AcDbPolyline
 90
3
 70
0
 10
154.965416
 20
75.281878
 30
0.0
 10
154.965416
 20
81.175940
 30
0.0
 10
150.758908
 20
81.175816
 30
0.0
  0
SPLINE
  5
10d
100
AcDbEntity
  8
Ebene_1
 62
7
100
AcDbSpline
 70
8
 71
3
 72
8
 73
4
 74
0
 40
0
 40
0
 40
0
 40
0
 40
1
 40
1
 40
1
 40
1
 10
43.456138
 20
82.526418
 30
0.0
 10
43.456138
 20
82.128013
 30
0.0
 10
43.342511
 20
81.837007
 30
0.0
 10
43.086024
 20
81.557578
 30
0.0
  0
SPLINE
  5
10e
100
AcDbEntity
  8
Ebene_1
 62
7
100
AcDbSpline
 70
8
 71
3
 72
8
 73
4
 74
0
 40
0
 40
0
 40
0
 40
0
 40
1
 40
1
 40
1
 40
1
 10
43.086024
 20
81.557578
 30
0.0
 10
42.826512
 20
81.294296
 30
0.0
 10
42.560445
 20
81.175816
 30
0.0
 10
42.207391
 20
81.175816
 30
0.0
  0
LWPOLYLINE
  5
10f
100
AcDbEntity
  8
Ebene_1
 62
7
100
AcDbPolyline
 90
4
 70
0
 10
26.690501
 20
88.420472
 30
0.0
 10
26.690501
 20
83.875219
 30
0.0
 10
43.456138
 20
83.875219
 30
0.0
 10
43.456138
 20
82.526418
 30
0.0
  0
SPLINE
  5
110
100
AcDbEntity
  8
Ebene_1
 62
7
100
AcDbSpline
 70
8
 71
3
 72
8
 73
4
 74
0
 40
0
 40
0
 40
0
 40
0
 40
1
 40
1
 40
1
 40
1
 10
43.882950
 20
76.632373
 30
0.0
 10
44.892342
 20
76.632373
 30
0.0
 10
45.805477
 20
77.038825
 30
0.0
 10
46.538847
 20
77.810095
 30
0.0
  0
SPLINE
  5
111
100
AcDbEntity
  8
Ebene_1
 62
7
100
AcDbSpline
 70
8
 71
3
 72
8
 73
4
 74
0
 40
0
 40
0
 40
0
 40
0
 40
1
 40
1
 40
1
 40
1
 10
46.538847
 20
77.810095
 30
0.0
 10
47.276848
 20
78.586261
 30
0.0
 10
47.664226
 20
79.588014
 30
0.0
 10
47.664226
 20
80.714804
 30
0.0
  0
LWPOLYLINE
  5
112
100
AcDbEntity
  8
Ebene_1
 62
7
100
AcDbPolyline
 90
7
 70
0
 10
42.207391
 20
81.175816
 30
0.0
 10
26.690501
 20
81.175816
 30
0.0
 10
26.690501
 20
69.387700
 30
0.0
 10
27.117313
 20
69.387700
 30
0.0
 10
30.896921
 20
69.387700
 30
0.0
 10
30.896921
 20
76.632373
 30
0.0
 10
43.882950
 20
76.632373
 30
0.0
  0
LWPOLYLINE
  5
113
100
AcDbEntity
  8
Ebene_1
 62
7
100
AcDbPolyline
 90
3
 70
0
 10
47.664226
 20
80.714804
 30
0.0
 10
47.664226
 20
88.420472
 30
0.0
 10
26.690501
 20
88.420472
 30
0.0
  0
LWPOLYLINE
  5
114
100
AcDbEntity
  8
Ebene_1
 62
7
100
AcDbPolyline
 90
9
 70
1
 10
50.163397
 20
81.175816
 30
0.0
 10
50.163397
 20
69.387700
 30
0.0
 10
50.590209
 20
69.387700
 30
0.0
 10
54.369817
 20
69.387700
 30
0.0
 10
54.369817
 20
76.632373
 30
0.0
 10
66.929043
 20
76.632373
 30
0.0
 10
66.929043
 20
69.387700
 30
0.0
 10
71.135454
 20
69.387700
 30
0.0
 10
71.135454
 20
81.175816
 30
0.0
  0
SPLINE
  5
115
100
AcDbEntity
  8
Ebene_1
 62
7
100
AcDbSpline
 70
8
 71
3
 72
8
 73
4
 74
0
 40
0
 40
0
 40
0
 40
0
 40
1
 40
1
 40
1
 40
1
 10
50.163397
 20
87.959469
 30
0.0
 10
50.163397
 20
86.852401
 30
0.0
 10
50.538382
 20
85.855544
 30
0.0
 10
51.253769
 20
85.061954
 30
0.0
  0
LWPOLYLINE
  5
116
100
AcDbEntity
  8
Ebene_1
 62
7
100
AcDbPolyline
 90
2
 70
0
 10
50.163397
 20
88.420472
 30
0.0
 10
50.163397
 20
87.959469
 30
0.0
  0
SPLINE
  5
117
100
AcDbEntity
  8
Ebene_1
 62
7
100
AcDbSpline
 70
8
 71
3
 72
8
 73
4
 74
0
 40
0
 40
0
 40
0
 40
0
 40
1
 40
1
 40
1
 40
1
 10
51.257317
 20
85.058405
 30
0.0
 10
51.976919
 20
84.281157
 30
0.0
 10
52.902660
 20
83.875264
 30
0.0
 10
53.943227
 20
83.875264
 30
0.0
  0
LWPOLYLINE
  5
118
100
AcDbEntity
  8
Ebene_1
 62
7
100
AcDbPolyline
 90
3
 70
0
 10
51.253769
 20
85.061954
 30
0.0
 10
51.255543
 20
85.060180
 30
0.0
 10
51.257317
 20
85.058405
 30
0.0
  0
SPLINE
  5
119
100
AcDbEntity
  8
Ebene_1
 62
7
100
AcDbSpline
 70
8
 71
3
 72
8
 73
4
 74
0
 40
0
 40
0
 40
0
 40
0
 40
1
 40
1
 40
1
 40
1
 10
67.356068
 20
83.875264
 30
0.0
 10
68.365460
 20
83.875264
 30
0.0
 10
69.278595
 20
84.281715
 30
0.0
 10
70.011965
 20
85.053003
 30
0.0
  0
SPLINE
  5
11a
100
AcDbEntity
  8
Ebene_1
 62
7
100
AcDbSpline
 70
8
 71
3
 72
8
 73
4
 74
0
 40
0
 40
0
 40
0
 40
0
 40
1
 40
1
 40
1
 40
1
 10
70.011965
 20
85.053003
 30
0.0
 10
70.749975
 20
85.829160
 30
0.0
 10
71.135667
 20
86.832723
 30
0.0
 10
71.135667
 20
87.959504
 30
0.0
  0
LWPOLYLINE
  5
11b
100
AcDbEntity
  8
Ebene_1
 62
7
100
AcDbPolyline
 90
2
 70
0
 10
53.943227
 20
83.875264
 30
0.0
 10
67.356068
 20
83.875264
 30
0.0
  0
LWPOLYLINE
  5
11c
100
AcDbEntity
  8
Ebene_1
 62
7
100
AcDbPolyline
 90
3
 70
0
 10
71.135667
 20
87.959504
 30
0.0
 10
71.135667
 20
88.420516
 30
0.0
 10
50.163397
 20
88.420472
 30
0.0
  0
SPLINE
  5
11d
100
AcDbEntity
  8
Ebene_1
 62
7
100
AcDbSpline
 70
8
 71
3
 72
8
 73
4
 74
0
 40
0
 40
0
 40
0
 40
0
 40
1
 40
1
 40
1
 40
1
 10
73.634635
 20
87.959469
 30
0.0
 10
73.634635
 20
86.852401
 30
0.0
 10
74.009619
 20
85.855544
 30
0.0
 10
74.724997
 20
85.061954
 30
0.0
  0
LWPOLYLINE
  5
11e
100
AcDbEntity
  8
Ebene_1
 62
7
100
AcDbPolyline
 90
2
 70
0
 10
73.634635
 20
88.420472
 30
0.0
 10
73.634635
 20
87.959469
 30
0.0
  0
SPLINE
  5
11f
100
AcDbEntity
  8
Ebene_1
 62
7
100
AcDbSpline
 70
8
 71
3
 72
8
 73
4
 74
0
 40
0
 40
0
 40
0
 40
0
 40
1
 40
1
 40
1
 40
1
 10
74.730320
 20
85.058405
 30
0.0
 10
75.449913
 20
84.281157
 30
0.0
 10
76.375654
 20
83.875272
 30
0.0
 10
77.416221
 20
83.875264
 30
0.0
  0
LWPOLYLINE
  5
120
100
AcDbEntity
  8
Ebene_1
 62
7
100
AcDbPolyline
 90
3
 70
0
 10
74.724997
 20
85.061954
 30
0.0
 10
74.728546
 20
85.060180
 30
0.0
 10
74.730320
 20
85.058405
 30
0.0
  0
SPLINE
  5
121
100
AcDbEntity
  8
Ebene_1
 62
7
100
AcDbSpline
 70
8
 71
3
 72
8
 73
4
 74
0
 40
0
 40
0
 40
0
 40
0
 40
1
 40
1
 40
1
 40
1
 10
90.402268
 20
82.526454
 30
0.0
 10
90.402268
 20
82.128057
 30
0.0
 10
90.286964
 20
81.837051
 30
0.0
 10
90.030468
 20
81.557623
 30
0.0
  0
SPLINE
  5
122
100
AcDbEntity
  8
Ebene_1
 62
7
100
AcDbSpline
 70
8
 71
3
 72
8
 73
4
 74
0
 40
0
 40
0
 40
0
 40
0
 40
1
 40
1
 40
1
 40
1
 10
90.030468
 20
81.557623
 30
0.0
 10
89.770957
 20
81.294341
 30
0.0
 10
89.504898
 20
81.175852
 30
0.0
 10
89.151835
 20
81.175852
 30
0.0
  0
LWPOLYLINE
  5
123
100
AcDbEntity
  8
Ebene_1
 62
7
100
AcDbPolyline
 90
3
 70
0
 10
77.416221
 20
83.875264
 30
0.0
 10
90.402268
 20
83.875264
 30
0.0
 10
90.402268
 20
82.526454
 30
0.0
  0
SPLINE
  5
124
100
AcDbEntity
  8
Ebene_1
 62
7
100
AcDbSpline
 70
8
 71
3
 72
8
 73
4
 74
0
 40
0
 40
0
 40
0
 40
0
 40
1
 40
1
 40
1
 40
1
 10
90.773979
 20
76.635957
 30
0.0
 10
91.840823
 20
76.486595
 30
0.0
 10
92.766893
 20
77.056728
 30
0.0
 10
93.483229
 20
77.810086
 30
0.0
  0
SPLINE
  5
125
100
AcDbEntity
  8
Ebene_1
 62
7
100
AcDbSpline
 70
8
 71
3
 72
8
 73
4
 74
0
 40
0
 40
0
 40
0
 40
0
 40
1
 40
1
 40
1
 40
1
 10
93.483229
 20
77.810086
 30
0.0
 10
94.221239
 20
78.586252
 30
0.0
 10
94.608608
 20
79.588006
 30
0.0
 10
94.608608
 20
80.714795
 30
0.0
  0
LWPOLYLINE
  5
126
100
AcDbEntity
  8
Ebene_1
 62
7
100
AcDbPolyline
 90
12
 70
0
 10
89.151835
 20
81.175852
 30
0.0
 10
73.634954
 20
81.175852
 30
0.0
 10
73.634954
 20
69.387744
 30
0.0
 10
74.061766
 20
69.387744
 30
0.0
 10
77.843033
 20
69.387744
 30
0.0
 10
77.843033
 20
76.632409
 30
0.0
 10
82.267854
 20
76.632409
 30
0.0
 10
88.975113
 20
69.387744
 30
0.0
 10
95.212213
 20
69.387744
 30
0.0
 10
88.504954
 20
76.632409
 30
0.0
 10
90.829071
 20
76.632409
 30
0.0
 10
90.773979
 20
76.635957
 30
0.0
  0
LWPOLYLINE
  5
127
100
AcDbEntity
  8
Ebene_1
 62
7
100
AcDbPolyline
 90
3
 70
0
 10
94.608608
 20
80.714795
 30
0.0
 10
94.608608
 20
88.420463
 30
0.0
 10
73.634635
 20
88.420472
 30
0.0
  0
LWPOLYLINE
  5
128
100
AcDbEntity
  8
Ebene_1
 62
7
100
AcDbPolyline
 90
9
 70
1
 10
112.447690
 20
88.420472
 30
0.0
 10
103.638050
 20
78.904991
 30
0.0
 10
112.447690
 20
69.387700
 30
0.0
 10
112.624412
 20
69.387700
 30
0.0
 10
118.684790
 20
69.387700
 30
0.0
 10
109.871824
 20
78.906792
 30
0.0
 10
111.100566
 20
80.253801
 30
0.0
 10
111.123898
 20
80.253801
 30
0.0
 10
118.684773
 20
88.420472
 30
0.0
  0
LWPOLYLINE
  5
129
100
AcDbEntity
  8
Ebene_1
 62
7
100
AcDbPolyline
 90
5
 70
1
 10
97.107522
 20
88.420472
 30
0.0
 10
97.107522
 20
69.387700
 30
0.0
 10
97.534334
 20
69.387700
 30
0.0
 10
101.313942
 20
69.387700
 30
0.0
 10
101.313942
 20
88.420472
 30
0.0
  0
LWPOLYLINE
  5
12a
100
AcDbEntity
  8
Ebene_1
 62
7
100
AcDbPolyline
 90
5
 70
1
 10
120.580419
 20
88.420472
 30
0.0
 10
120.580419
 20
69.387700
 30
0.0
 10
121.007231
 20
69.387700
 30
0.0
 10
124.786830
 20
69.387700
 30
0.0
 10
124.786830
 20
88.420472
 30
0.0
  0
LWPOLYLINE
  5
12b
100
AcDbEntity
  8
Ebene_1
 62
7
100
AcDbPolyline
 90
12
 70
1
 10
126.682476
 20
88.420472
 30
0.0
 10
130.638806
 20
84.145350
 30
0.0
 10
130.638806
 20
69.387700
 30
0.0
 10
131.065617
 20
69.387700
 30
0.0
 10
134.846888
 20
69.387700
 30
0.0
 10
134.846888
 20
79.601907
 30
0.0
 10
144.301736
 20
69.387700
 30
0.0
 10
148.259734
 20
69.387700
 30
0.0
 10
148.259734
 20
88.420472
 30
0.0
 10
144.051651
 20
88.420472
 30
0.0
 10
144.051651
 20
76.394659
 30
0.0
 10
132.919573
 20
88.420472
 30
0.0
  0
SPLINE
  5
12c
100
AcDbEntity
  8
Ebene_1
 62
7
100
AcDbSpline
 70
8
 71
3
 72
8
 73
4
 74
0
 40
0
 40
0
 40
0
 40
0
 40
1
 40
1
 40
1
 40
1
 10
167.951359
 20
83.875219
 30
0.0
 10
168.960747
 20
83.875219
 30
0.0
 10
169.873882
 20
84.281689
 30
0.0
 10
170.607252
 20
85.052958
 30
0.0
  0
SPLINE
  5
12d
100
AcDbEntity
  8
Ebene_1
 62
7
100
AcDbSpline
 70
8
 71
3
 72
8
 73
4
 74
0
 40
0
 40
0
 40
0
 40
0
 40
1
 40
1
 40
1
 40
1
 10
170.607252
 20
85.052958
 30
0.0
 10
171.345261
 20
85.829125
 30
0.0
 10
171.730964
 20
86.832679
 30
0.0
 10
171.730964
 20
87.959469
 30
0.0
  0
LWPOLYLINE
  5
12e
100
AcDbEntity
  8
Ebene_1
 62
7
100
AcDbPolyline
 90
4
 70
0
 10
150.758908
 20
88.420472
 30
0.0
 10
150.758908
 20
83.875219
 30
0.0
 10
151.185718
 20
83.875219
 30
0.0
 10
167.951359
 20
83.875219
 30
0.0
  0
LWPOLYLINE
  5
12f
100
AcDbEntity
  8
Ebene_1
 62
7
100
AcDbPolyline
 90
3
 70
0
 10
171.730964
 20
87.959469
 30
0.0
 10
171.730964
 20
88.420472
 30
0.0
 10
150.758908
 20
88.420472
 30
0.0
  0
LWPOLYLINE
  5
130
100
AcDbEntity
  8
Ebene_1
 62
7
100
AcDbPolyline
 90
9
 70
1
 10
53.516193
 20
54.983023
 30
0.0
 10
53.516193
 20
43.194907
 30
0.0
 10
53.943005
 20
43.194907
 30
0.0
 10
74.488250
 20
43.194907
 30
0.0
 10
74.488250
 20
54.983023
 30
0.0
 10
70.281830
 20
54.983023
 30
0.0
 10
70.281830
 20
47.740160
 30
0.0
 10
57.722604
 20
47.740160
 30
0.0
 10
57.722604
 20
54.983023
 30
0.0
  0
SPLINE
  5
131
100
AcDbEntity
  8
Ebene_1
 62
7
100
AcDbSpline
 70
8
 71
3
 72
8
 73
4
 74
0
 40
0
 40
0
 40
0
 40
0
 40
1
 40
1
 40
1
 40
1
 10
53.516193
 20
61.764875
 30
0.0
 10
53.516193
 20
60.657807
 30
0.0
 10
53.891186
 20
59.662743
 30
0.0
 10
54.606556
 20
58.869170
 30
0.0
  0
LWPOLYLINE
  5
132
100
AcDbEntity
  8
Ebene_1
 62
7
100
AcDbPolyline
 90
2
 70
0
 10
53.516193
 20
62.225878
 30
0.0
 10
53.516193
 20
61.764875
 30
0.0
  0
SPLINE
  5
133
100
AcDbEntity
  8
Ebene_1
 62
7
100
AcDbSpline
 70
8
 71
3
 72
8
 73
4
 74
0
 40
0
 40
0
 40
0
 40
0
 40
1
 40
1
 40
1
 40
1
 10
54.610104
 20
58.865621
 30
0.0
 10
55.329706
 20
58.088373
 30
0.0
 10
56.255447
 20
57.682489
 30
0.0
 10
57.296005
 20
57.682489
 30
0.0
  0
LWPOLYLINE
  5
134
100
AcDbEntity
  8
Ebene_1
 62
7
100
AcDbPolyline
 90
3
 70
0
 10
54.606556
 20
58.869170
 30
0.0
 10
54.608330
 20
58.867396
 30
0.0
 10
54.610104
 20
58.865621
 30
0.0
  0
SPLINE
  5
135
100
AcDbEntity
  8
Ebene_1
 62
7
100
AcDbSpline
 70
8
 71
3
 72
8
 73
4
 74
0
 40
0
 40
0
 40
0
 40
0
 40
1
 40
1
 40
1
 40
1
 10
70.708855
 20
57.682489
 30
0.0
 10
71.718238
 20
57.682489
 30
0.0
 10
72.631373
 20
58.088932
 30
0.0
 10
73.364743
 20
58.860228
 30
0.0
  0
SPLINE
  5
136
100
AcDbEntity
  8
Ebene_1
 62
7
100
AcDbSpline
 70
8
 71
3
 72
8
 73
4
 74
0
 40
0
 40
0
 40
0
 40
0
 40
1
 40
1
 40
1
 40
1
 10
73.364743
 20
58.860228
 30
0.0
 10
74.102753
 20
59.636376
 30
0.0
 10
74.488463
 20
60.638147
 30
0.0
 10
74.488463
 20
61.764937
 30
0.0
  0
LWPOLYLINE
  5
137
100
AcDbEntity
  8
Ebene_1
 62
7
100
AcDbPolyline
 90
2
 70
0
 10
57.296005
 20
57.682489
 30
0.0
 10
70.708855
 20
57.682489
 30
0.0
  0
LWPOLYLINE
  5
138
100
AcDbEntity
  8
Ebene_1
 62
7
100
AcDbPolyline
 90
3
 70
0
 10
74.488463
 20
61.764937
 30
0.0
 10
74.488463
 20
62.225940
 30
0.0
 10
53.516193
 20
62.225878
 30
0.0
  0
LWPOLYLINE
  5
139
100
AcDbEntity
  8
Ebene_1
 62
7
100
AcDbPolyline
 90
12
 70
1
 10
76.385555
 20
62.225878
 30
0.0
 10
80.341885
 20
57.952557
 30
0.0
 10
80.341885
 20
43.194907
 30
0.0
 10
80.768697
 20
43.194907
 30
0.0
 10
84.548296
 20
43.194907
 30
0.0
 10
84.548296
 20
53.409115
 30
0.0
 10
94.004817
 20
43.194907
 30
0.0
 10
97.961146
 20
43.194907
 30
0.0
 10
97.961146
 20
62.225878
 30
0.0
 10
93.754735
 20
62.225878
 30
0.0
 10
93.754735
 20
50.201866
 30
0.0
 10
82.622646
 20
62.225878
 30
0.0
  0
SPLINE
  5
13a
100
AcDbEntity
  8
Ebene_1
 62
7
100
AcDbSpline
 70
8
 71
3
 72
8
 73
4
 74
0
 40
0
 40
0
 40
0
 40
0
 40
1
 40
1
 40
1
 40
1
 10
117.654444
 20
43.194907
 30
0.0
 10
118.663818
 20
43.194907
 30
0.0
 10
119.575294
 20
43.601359
 30
0.0
 10
120.308664
 20
44.372646
 30
0.0
  0
SPLINE
  5
13b
100
AcDbEntity
  8
Ebene_1
 62
7
100
AcDbSpline
 70
8
 71
3
 72
8
 73
4
 74
0
 40
0
 40
0
 40
0
 40
0
 40
1
 40
1
 40
1
 40
1
 10
120.308664
 20
44.372646
 30
0.0
 10
121.046665
 20
45.148804
 30
0.0
 10
121.434043
 20
46.152367
 30
0.0
 10
121.434043
 20
47.279148
 30
0.0
  0
LWPOLYLINE
  5
13c
100
AcDbEntity
  8
Ebene_1
 62
7
100
AcDbPolyline
 90
4
 70
0
 10
100.460318
 20
62.225878
 30
0.0
 10
100.460318
 20
43.194907
 30
0.0
 10
100.887130
 20
43.194907
 30
0.0
 10
117.654444
 20
43.194907
 30
0.0
  0
LWPOLYLINE
  5
13d
100
AcDbEntity
  8
Ebene_1
 62
7
100
AcDbPolyline
 90
5
 70
0
 10
121.434043
 20
47.279148
 30
0.0
 10
121.434043
 20
47.740160
 30
0.0
 10
104.668406
 20
47.740160
 30
0.0
 10
104.668406
 20
62.225878
 30
0.0
 10
100.460318
 20
62.225878
 30
0.0
  0
SPLINE
  5
13e
100
AcDbEntity
  8
Ebene_1
 62
7
100
AcDbSpline
 70
8
 71
3
 72
8
 73
4
 74
0
 40
0
 40
0
 40
0
 40
0
 40
1
 40
1
 40
1
 40
1
 10
99.132336
 20
97.094030
 30
0.0
 10
98.940315
 20
98.106740
 30
0.0
 10
82.417441
 20
190.353220
 30
0.0
 10
82.417441
 20
190.412550
 30
0.0
  0
SPLINE
  5
13f
100
AcDbEntity
  8
Ebene_1
 62
7
100
AcDbSpline
 70
8
 71
3
 72
8
 73
4
 74
0
 40
0
 40
0
 40
0
 40
0
 40
1
 40
1
 40
1
 40
1
 10
82.417441
 20
190.412550
 30
0.0
 10
82.417441
 20
190.496750
 30
0.0
 10
77.537293
 20
190.373450
 30
0.0
 10
75.084289
 20
190.227120
 30
0.0
  0
SPLINE
  5
140
100
AcDbEntity
  8
Ebene_1
 62
7
100
AcDbSpline
 70
8
 71
3
 72
8
 73
4
 74
0
 40
0
 40
0
 40
0
 40
0
 40
1
 40
1
 40
1
 40
1
 10
75.084289
 20
190.227120
 30
0.0
 10
67.784289
 20
189.791780
 30
0.0
 10
64.029697
 20
188.513420
 30
0.0
 10
62.215004
 20
185.845390
 30
0.0
  0
SPLINE
  5
141
100
AcDbEntity
  8
Ebene_1
 62
7
100
AcDbSpline
 70
8
 71
3
 72
8
 73
4
 74
0
 40
0
 40
0
 40
0
 40
0
 40
1
 40
1
 40
1
 40
1
 10
62.215004
 20
185.845390
 30
0.0
 10
61.545935
 20
184.861710
 30
0.0
 10
61.266622
 20
184.160310
 30
0.0
 10
60.974605
 20
182.731000
 30
0.0
  0
SPLINE
  5
142
100
AcDbEntity
  8
Ebene_1
 62
7
100
AcDbSpline
 70
8
 71
3
 72
8
 73
4
 74
0
 40
0
 40
0
 40
0
 40
0
 40
1
 40
1
 40
1
 40
1
 10
60.974605
 20
182.731000
 30
0.0
 10
60.855974
 20
182.150240
 30
0.0
 10
60.737263
 20
181.653450
 30
0.0
 10
60.710825
 20
181.627010
 30
0.0
  0
SPLINE
  5
143
100
AcDbEntity
  8
Ebene_1
 62
7
100
AcDbSpline
 70
8
 71
3
 72
8
 73
4
 74
0
 40
0
 40
0
 40
0
 40
0
 40
1
 40
1
 40
1
 40
1
 10
60.710825
 20
181.627010
 30
0.0
 10
60.621965
 20
181.538110
 30
0.0
 10
57.588229
 20
182.979630
 30
0.0
 10
56.068241
 20
183.832980
 30
0.0
  0
SPLINE
  5
144
100
AcDbEntity
  8
Ebene_1
 62
7
100
AcDbSpline
 70
8
 71
3
 72
8
 73
4
 74
0
 40
0
 40
0
 40
0
 40
0
 40
1
 40
1
 40
1
 40
1
 10
56.068241
 20
183.832980
 30
0.0
 10
51.521913
 20
186.385370
 30
0.0
 10
47.952685
 20
189.340630
 30
0.0
 10
45.524619
 20
192.562920
 30
0.0
  0
SPLINE
  5
145
100
AcDbEntity
  8
Ebene_1
 62
7
100
AcDbSpline
 70
8
 71
3
 72
8
 73
4
 74
0
 40
0
 40
0
 40
0
 40
0
 40
1
 40
1
 40
1
 40
1
 10
45.524619
 20
192.562920
 30
0.0
 10
45.167901
 20
193.036320
 30
0.0
 10
44.876052
 20
193.462400
 30
0.0
 10
44.876052
 20
193.509750
 30
0.0
  0
SPLINE
  5
146
100
AcDbEntity
  8
Ebene_1
 62
7
100
AcDbSpline
 70
8
 71
3
 72
8
 73
4
 74
0
 40
0
 40
0
 40
0
 40
0
 40
1
 40
1
 40
1
 40
1
 10
44.876052
 20
193.509750
 30
0.0
 10
44.876052
 20
193.557150
 30
0.0
 10
45.060749
 20
193.672310
 30
0.0
 10
45.286479
 20
193.765730
 30
0.0
  0
SPLINE
  5
147
100
AcDbEntity
  8
Ebene_1
 62
7
100
AcDbSpline
 70
8
 71
3
 72
8
 73
4
 74
0
 40
0
 40
0
 40
0
 40
0
 40
1
 40
1
 40
1
 40
1
 10
45.286479
 20
193.765730
 30
0.0
 10
45.512216
 20
193.859130
 30
0.0
 10
46.484968
 20
194.278410
 30
0.0
 10
47.448122
 20
194.697430
 30
0.0
  0
SPLINE
  5
148
100
AcDbEntity
  8
Ebene_1
 62
7
100
AcDbSpline
 70
8
 71
3
 72
8
 73
4
 74
0
 40
0
 40
0
 40
0
 40
0
 40
1
 40
1
 40
1
 40
1
 10
47.448122
 20
194.697430
 30
0.0
 10
58.483514
 20
199.498299
 30
0.0
 10
72.827879
 20
202.854019
 30
0.0
 10
85.700942
 20
203.646287
 30
0.0
  0
LWPOLYLINE
  5
149
100
AcDbEntity
  8
Ebene_1
 62
7
100
AcDbPolyline
 90
14
 70
1
 10
123.933214
 20
62.225878
 30
0.0
 10
123.933214
 20
57.952557
 30
0.0
 10
132.316037
 20
48.898080
 30
0.0
 10
132.316037
 20
43.194907
 30
0.0
 10
132.742848
 20
43.194907
 30
0.0
 10
136.522452
 20
43.194907
 30
0.0
 10
136.522452
 20
48.898080
 30
0.0
 10
144.905272
 20
57.952557
 30
0.0
 10
144.905272
 20
62.225878
 30
0.0
 10
140.698858
 20
62.225878
 30
0.0
 10
140.698858
 20
60.145943
 30
0.0
 10
134.420078
 20
53.362290
 30
0.0
 10
128.139632
 20
60.145943
 30
0.0
 10
128.139632
 20
62.225878
 30
0.0
  0
SPLINE
  5
14a
100
AcDbEntity
  8
Ebene_1
 62
7
100
AcDbSpline
 70
8
 71
3
 72
8
 73
4
 74
0
 40
0
 40
0
 40
0
 40
0
 40
1
 40
1
 40
1
 40
1
 10
93.018673
 20
196.200460
 30
0.0
 10
96.411346
 20
192.066350
 30
0.0
 10
99.224726
 20
188.725310
 30
0.0
 10
99.270586
 20
188.775930
 30
0.0
  0
SPLINE
  5
14b
100
AcDbEntity
  8
Ebene_1
 62
7
100
AcDbSpline
 70
8
 71
3
 72
8
 73
4
 74
0
 40
0
 40
0
 40
0
 40
0
 40
1
 40
1
 40
1
 40
1
 10
99.270586
 20
188.775930
 30
0.0
 10
99.316386
 20
188.826430
 30
0.0
 10
102.070036
 20
192.177800
 30
0.0
 10
105.389616
 20
196.223140
 30
0.0
  0
SPLINE
  5
14c
100
AcDbEntity
  8
Ebene_1
 62
7
100
AcDbSpline
 70
8
 71
3
 72
8
 73
4
 74
0
 40
0
 40
0
 40
0
 40
0
 40
1
 40
1
 40
1
 40
1
 10
105.389616
 20
196.223140
 30
0.0
 10
108.709216
 20
200.268469
 30
0.0
 10
111.475956
 20
203.609629
 30
0.0
 10
111.537906
 20
203.647933
 30
0.0
  0
SPLINE
  5
14d
100
AcDbEntity
  8
Ebene_1
 62
7
100
AcDbSpline
 70
8
 71
3
 72
8
 73
4
 74
0
 40
0
 40
0
 40
0
 40
0
 40
1
 40
1
 40
1
 40
1
 10
111.537906
 20
203.647933
 30
0.0
 10
111.667186
 20
203.727823
 30
0.0
 10
114.427966
 20
203.549763
 30
0.0
 10
116.839496
 20
203.306000
 30
0.0
  0
SPLINE
  5
14e
100
AcDbEntity
  8
Ebene_1
 62
7
100
AcDbSpline
 70
8
 71
3
 72
8
 73
4
 74
0
 40
0
 40
0
 40
0
 40
0
 40
1
 40
1
 40
1
 40
1
 10
116.839496
 20
203.306000
 30
0.0
 10
127.009296
 20
202.278007
 30
0.0
 10
137.223286
 20
199.924719
 30
0.0
 10
146.500476
 20
196.472130
 30
0.0
  0
SPLINE
  5
14f
100
AcDbEntity
  8
Ebene_1
 62
7
100
AcDbSpline
 70
8
 71
3
 72
8
 73
4
 74
0
 40
0
 40
0
 40
0
 40
0
 40
1
 40
1
 40
1
 40
1
 10
146.500476
 20
196.472130
 30
0.0
 10
148.689936
 20
195.657300
 30
0.0
 10
152.211796
 20
194.202970
 30
0.0
 10
153.130316
 20
193.734380
 30
0.0
  0
LWPOLYLINE
  5
150
100
AcDbEntity
  8
Ebene_1
 62
7
100
AcDbPolyline
 90
3
 70
0
 10
85.700942
 20
203.646287
 30
0.0
 10
86.850159
 20
203.717017
 30
0.0
 10
93.018673
 20
196.200460
 30
0.0
  0
SPLINE
  5
151
100
AcDbEntity
  8
Ebene_1
 62
7
100
AcDbSpline
 70
8
 71
3
 72
8
 73
4
 74
0
 40
0
 40
0
 40
0
 40
0
 40
1
 40
1
 40
1
 40
1
 10
153.005916
 20
192.754440
 30
0.0
 10
150.854816
 20
189.796950
 30
0.0
 10
147.482556
 20
186.890570
 30
0.0
 10
143.306356
 20
184.394870
 30
0.0
  0
SPLINE
  5
152
100
AcDbEntity
  8
Ebene_1
 62
7
100
AcDbSpline
 70
8
 71
3
 72
8
 73
4
 74
0
 40
0
 40
0
 40
0
 40
0
 40
1
 40
1
 40
1
 40
1
 10
143.306356
 20
184.394870
 30
0.0
 10
142.157816
 20
183.708500
 30
0.0
 10
138.355766
 20
181.800200
 30
0.0
 10
137.837366
 20
181.649890
 30
0.0
  0
SPLINE
  5
153
100
AcDbEntity
  8
Ebene_1
 62
7
100
AcDbSpline
 70
8
 71
3
 72
8
 73
4
 74
0
 40
0
 40
0
 40
0
 40
0
 40
1
 40
1
 40
1
 40
1
 10
137.837366
 20
181.649890
 30
0.0
 10
137.623436
 20
181.587790
 30
0.0
 10
137.594756
 20
181.634390
 30
0.0
 10
137.523586
 20
182.160190
 30
0.0
  0
SPLINE
  5
154
100
AcDbEntity
  8
Ebene_1
 62
7
100
AcDbSpline
 70
8
 71
3
 72
8
 73
4
 74
0
 40
0
 40
0
 40
0
 40
0
 40
1
 40
1
 40
1
 40
1
 10
137.523586
 20
182.160190
 30
0.0
 10
137.480486
 20
182.478400
 30
0.0
 10
137.324906
 20
183.156080
 30
0.0
 10
137.177816
 20
183.666140
 30
0.0
  0
SPLINE
  5
155
100
AcDbEntity
  8
Ebene_1
 62
7
100
AcDbSpline
 70
8
 71
3
 72
8
 73
4
 74
0
 40
0
 40
0
 40
0
 40
0
 40
1
 40
1
 40
1
 40
1
 10
137.177816
 20
183.666140
 30
0.0
 10
136.019546
 20
187.682780
 30
0.0
 10
132.597266
 20
189.466350
 30
0.0
 10
124.774636
 20
190.130190
 30
0.0
  0
SPLINE
  5
156
100
AcDbEntity
  8
Ebene_1
 62
7
100
AcDbSpline
 70
8
 71
3
 72
8
 73
4
 74
0
 40
0
 40
0
 40
0
 40
0
 40
1
 40
1
 40
1
 40
1
 10
124.774636
 20
190.130190
 30
0.0
 10
123.071336
 20
190.274730
 30
0.0
 10
115.987436
 20
190.460230
 30
0.0
 10
115.898436
 20
190.362620
 30
0.0
  0
SPLINE
  5
157
100
AcDbEntity
  8
Ebene_1
 62
7
100
AcDbSpline
 70
8
 71
3
 72
8
 73
4
 74
0
 40
0
 40
0
 40
0
 40
0
 40
1
 40
1
 40
1
 40
1
 10
115.898436
 20
190.362620
 30
0.0
 10
115.852936
 20
190.312720
 30
0.0
 10
102.177746
 20
113.599150
 30
0.0
 10
99.291676
 20
97.203470
 30
0.0
  0
LWPOLYLINE
  5
158
100
AcDbEntity
  8
Ebene_1
 62
7
100
AcDbPolyline
 90
3
 70
0
 10
153.130316
 20
193.734380
 30
0.0
 10
153.559426
 20
193.515460
 30
0.0
 10
153.005916
 20
192.754440
 30
0.0
  0
SPLINE
  5
159
100
AcDbEntity
  8
Ebene_1
 62
7
100
AcDbSpline
 70
8
 71
3
 72
8
 73
4
 74
0
 40
0
 40
0
 40
0
 40
0
 40
1
 40
1
 40
1
 40
1
 10
153.560016
 20
197.648189
 30
0.0
 10
140.487976
 20
203.161249
 30
0.0
 10
125.636596
 20
206.669402
 30
0.0
 10
110.819746
 20
207.744162
 30
0.0
  0
SPLINE
  5
15a
100
AcDbEntity
  8
Ebene_1
 62
7
100
AcDbSpline
 70
8
 71
3
 72
8
 73
4
 74
0
 40
0
 40
0
 40
0
 40
0
 40
1
 40
1
 40
1
 40
1
 10
110.819746
 20
207.744162
 30
0.0
 10
106.059416
 20
208.089457
 30
0.0
 10
96.169843
 20
208.202534
 30
0.0
 10
91.381023
 20
207.966420
 30
0.0
  0
SPLINE
  5
15b
100
AcDbEntity
  8
Ebene_1
 62
7
100
AcDbSpline
 70
8
 71
3
 72
8
 73
4
 74
0
 40
0
 40
0
 40
0
 40
0
 40
1
 40
1
 40
1
 40
1
 10
91.381023
 20
207.966420
 30
0.0
 10
74.785582
 20
207.148176
 30
0.0
 10
59.517463
 20
203.766126
 30
0.0
 10
44.843910
 20
197.657969
 30
0.0
  0
SPLINE
  5
15c
100
AcDbEntity
  8
Ebene_1
 62
7
100
AcDbSpline
 70
8
 71
3
 72
8
 73
4
 74
0
 40
0
 40
0
 40
0
 40
0
 40
1
 40
1
 40
1
 40
1
 10
44.843910
 20
197.657969
 30
0.0
 10
43.832957
 20
197.237139
 30
0.0
 10
42.942888
 20
196.916989
 30
0.0
 10
42.865961
 20
196.946499
 30
0.0
  0
SPLINE
  5
15d
100
AcDbEntity
  8
Ebene_1
 62
7
100
AcDbSpline
 70
8
 71
3
 72
8
 73
4
 74
0
 40
0
 40
0
 40
0
 40
0
 40
1
 40
1
 40
1
 40
1
 10
42.865961
 20
196.946499
 30
0.0
 10
42.789051
 20
196.976099
 30
0.0
 10
42.156102
 20
198.150209
 30
0.0
 10
41.459468
 20
199.555819
 30
0.0
  0
SPLINE
  5
15e
100
AcDbEntity
  8
Ebene_1
 62
7
100
AcDbSpline
 70
8
 71
3
 72
8
 73
4
 74
0
 40
0
 40
0
 40
0
 40
0
 40
1
 40
1
 40
1
 40
1
 10
41.459468
 20
199.555819
 30
0.0
 10
40.156089
 20
202.185644
 30
0.0
 10
39.548687
 20
203.551775
 30
0.0
 10
39.641537
 20
203.644620
 30
0.0
  0
SPLINE
  5
15f
100
AcDbEntity
  8
Ebene_1
 62
7
100
AcDbSpline
 70
8
 71
3
 72
8
 73
4
 74
0
 40
0
 40
0
 40
0
 40
0
 40
1
 40
1
 40
1
 40
1
 10
39.641537
 20
203.644620
 30
0.0
 10
39.736547
 20
203.739580
 30
0.0
 10
43.563313
 20
205.185299
 30
0.0
 10
45.806371
 20
205.973610
 30
0.0
  0
SPLINE
  5
160
100
AcDbEntity
  8
Ebene_1
 62
7
100
AcDbSpline
 70
8
 71
3
 72
8
 73
4
 74
0
 40
0
 40
0
 40
0
 40
0
 40
1
 40
1
 40
1
 40
1
 10
45.806371
 20
205.973610
 30
0.0
 10
66.834257
 20
213.363767
 30
0.0
 10
89.291471
 20
216.426254
 30
0.0
 10
110.546126
 20
214.802156
 30
0.0
  0
SPLINE
  5
161
100
AcDbEntity
  8
Ebene_1
 62
7
100
AcDbSpline
 70
8
 71
3
 72
8
 73
4
 74
0
 40
0
 40
0
 40
0
 40
0
 40
1
 40
1
 40
1
 40
1
 10
110.546126
 20
214.802156
 30
0.0
 10
126.443316
 20
213.587425
 30
0.0
 10
141.425666
 20
210.234085
 30
0.0
 10
156.676686
 20
204.477233
 30
0.0
  0
SPLINE
  5
162
100
AcDbEntity
  8
Ebene_1
 62
7
100
AcDbSpline
 70
8
 71
3
 72
8
 73
4
 74
0
 40
0
 40
0
 40
0
 40
0
 40
1
 40
1
 40
1
 40
1
 10
156.676686
 20
204.477233
 30
0.0
 10
157.812166
 20
204.048620
 30
0.0
 10
158.760716
 20
203.678424
 30
0.0
 10
158.784556
 20
203.654574
 30
0.0
  0
SPLINE
  5
163
100
AcDbEntity
  8
Ebene_1
 62
7
100
AcDbSpline
 70
8
 71
3
 72
8
 73
4
 74
0
 40
0
 40
0
 40
0
 40
0
 40
1
 40
1
 40
1
 40
1
 10
158.784556
 20
203.654574
 30
0.0
 10
158.909226
 20
203.529911
 30
0.0
 10
155.859746
 20
197.163969
 30
0.0
 10
155.550766
 20
196.903849
 30
0.0
  0
SPLINE
  5
164
100
AcDbEntity
  8
Ebene_1
 62
7
100
AcDbSpline
 70
8
 71
3
 72
8
 73
4
 74
0
 40
0
 40
0
 40
0
 40
0
 40
1
 40
1
 40
1
 40
1
 10
155.550766
 20
196.903849
 30
0.0
 10
155.509366
 20
196.868949
 30
0.0
 10
154.613456
 20
197.203899
 30
0.0
 10
153.560016
 20
197.648189
 30
0.0
  0
LWPOLYLINE
  5
165
100
AcDbEntity
  8
Ebene_1
 62
7
100
AcDbPolyline
 90
3
 70
0
 10
99.291676
 20
97.203470
 30
0.0
 10
99.204976
 20
96.710940
 30
0.0
 10
99.132336
 20
97.094030
 30
0.0
  0
LWPOLYLINE
  5
166
100
AcDbEntity
  8
Ebene_1
 62
7
100
AcDbPolyline
 90
1
 70
1
 10
153.560016
 20
197.648189
 30
0.0
  0
LWPOLYLINE
  5
167
100
AcDbEntity
  8
Ebene_1
 62
7
100
AcDbPolyline
 90
9
 70
1
 10
146.442438
 20
236.972707
 30
0.0
 10
146.442438
 20
224.680703
 30
0.0
 10
146.886018
 20
224.680703
 30
0.0
 10
151.131207
 20
224.680703
 30
0.0
 10
151.131207
 20
232.283933
 30
0.0
 10
165.450512
 20
232.283933
 30
0.0
 10
165.450512
 20
224.680703
 30
0.0
 10
170.139289
 20
224.680703
 30
0.0
 10
170.139289
 20
236.972707
 30
0.0
  0
SPLINE
  5
168
100
AcDbEntity
  8
Ebene_1
 62
7
100
AcDbSpline
 70
8
 71
3
 72
8
 73
4
 74
0
 40
0
 40
0
 40
0
 40
0
 40
1
 40
1
 40
1
 40
1
 10
146.442438
 20
244.132357
 30
0.0
 10
146.442438
 20
242.979717
 30
0.0
 10
146.861231
 20
241.947132
 30
0.0
 10
147.665751
 20
241.120868
 30
0.0
  0
LWPOLYLINE
  5
169
100
AcDbEntity
  8
Ebene_1
 62
7
100
AcDbPolyline
 90
2
 70
0
 10
146.442438
 20
244.575937
 30
0.0
 10
146.442438
 20
244.132357
 30
0.0
  0
SPLINE
  5
16a
100
AcDbEntity
  8
Ebene_1
 62
7
100
AcDbSpline
 70
8
 71
3
 72
8
 73
4
 74
0
 40
0
 40
0
 40
0
 40
0
 40
1
 40
1
 40
1
 40
1
 10
147.671074
 20
241.117320
 30
0.0
 10
148.479985
 20
240.308413
 30
0.0
 10
149.517234
 20
239.887080
 30
0.0
 10
150.687760
 20
239.887080
 30
0.0
  0
LWPOLYLINE
  5
16b
100
AcDbEntity
  8
Ebene_1
 62
7
100
AcDbPolyline
 90
3
 70
0
 10
147.665751
 20
241.120868
 30
0.0
 10
147.669300
 20
241.119094
 30
0.0
 10
147.671074
 20
241.117320
 30
0.0
  0
SPLINE
  5
16c
100
AcDbEntity
  8
Ebene_1
 62
7
100
AcDbSpline
 70
8
 71
3
 72
8
 73
4
 74
0
 40
0
 40
0
 40
0
 40
0
 40
1
 40
1
 40
1
 40
1
 10
165.894225
 20
239.887080
 30
0.0
 10
167.029052
 20
239.887080
 30
0.0
 10
168.051387
 20
240.308958
 30
0.0
 10
168.876259
 20
241.112121
 30
0.0
  0
SPLINE
  5
16d
100
AcDbEntity
  8
Ebene_1
 62
7
100
AcDbSpline
 70
8
 71
3
 72
8
 73
4
 74
0
 40
0
 40
0
 40
0
 40
0
 40
1
 40
1
 40
1
 40
1
 10
168.876259
 20
241.112121
 30
0.0
 10
169.705948
 20
241.919979
 30
0.0
 10
170.139422
 20
242.959007
 30
0.0
 10
170.139422
 20
244.132274
 30
0.0
  0
LWPOLYLINE
  5
16e
100
AcDbEntity
  8
Ebene_1
 62
7
100
AcDbPolyline
 90
2
 70
0
 10
150.687760
 20
239.887080
 30
0.0
 10
165.894225
 20
239.887080
 30
0.0
  0
LWPOLYLINE
  5
16f
100
AcDbEntity
  8
Ebene_1
 62
7
100
AcDbPolyline
 90
3
 70
0
 10
170.139422
 20
244.132274
 30
0.0
 10
170.139422
 20
244.575853
 30
0.0
 10
146.442438
 20
244.575937
 30
0.0
  0
SPLINE
  5
170
100
AcDbEntity
  8
Ebene_1
 62
7
100
AcDbSpline
 70
8
 71
3
 72
8
 73
4
 74
0
 40
0
 40
0
 40
0
 40
0
 40
1
 40
1
 40
1
 40
1
 10
28.280480
 20
244.132357
 30
0.0
 10
28.280480
 20
242.979717
 30
0.0
 10
28.701003
 20
241.947132
 30
0.0
 10
29.505523
 20
241.120868
 30
0.0
  0
LWPOLYLINE
  5
171
100
AcDbEntity
  8
Ebene_1
 62
7
100
AcDbPolyline
 90
2
 70
0
 10
28.280480
 20
244.575937
 30
0.0
 10
28.280480
 20
244.132357
 30
0.0
  0
SPLINE
  5
172
100
AcDbEntity
  8
Ebene_1
 62
7
100
AcDbSpline
 70
8
 71
3
 72
8
 73
4
 74
0
 40
0
 40
0
 40
0
 40
0
 40
1
 40
1
 40
1
 40
1
 10
29.509071
 20
241.117320
 30
0.0
 10
30.317983
 20
240.308412
 30
0.0
 10
31.355232
 20
239.887080
 30
0.0
 10
32.525758
 20
239.887080
 30
0.0
  0
LWPOLYLINE
  5
173
100
AcDbEntity
  8
Ebene_1
 62
7
100
AcDbPolyline
 90
3
 70
0
 10
29.505523
 20
241.120868
 30
0.0
 10
29.507297
 20
241.119094
 30
0.0
 10
29.509071
 20
241.117320
 30
0.0
  0
SPLINE
  5
174
100
AcDbEntity
  8
Ebene_1
 62
7
100
AcDbSpline
 70
8
 71
3
 72
8
 73
4
 74
0
 40
0
 40
0
 40
0
 40
0
 40
1
 40
1
 40
1
 40
1
 10
47.732222
 20
239.887163
 30
0.0
 10
48.867049
 20
239.887163
 30
0.0
 10
49.889385
 20
240.309042
 30
0.0
 10
50.714256
 20
241.112204
 30
0.0
  0
SPLINE
  5
175
100
AcDbEntity
  8
Ebene_1
 62
7
100
AcDbSpline
 70
8
 71
3
 72
8
 73
4
 74
0
 40
0
 40
0
 40
0
 40
0
 40
1
 40
1
 40
1
 40
1
 10
50.714256
 20
241.112204
 30
0.0
 10
51.543945
 20
241.920061
 30
0.0
 10
51.977411
 20
242.959089
 30
0.0
 10
51.977411
 20
244.132357
 30
0.0
  0
LWPOLYLINE
  5
176
100
AcDbEntity
  8
Ebene_1
 62
7
100
AcDbPolyline
 90
7
 70
0
 10
32.525758
 20
239.887080
 30
0.0
 10
37.784606
 20
239.887080
 30
0.0
 10
37.784606
 20
224.680703
 30
0.0
 10
38.228185
 20
224.680703
 30
0.0
 10
42.473374
 20
224.680703
 30
0.0
 10
42.473374
 20
239.887163
 30
0.0
 10
47.732222
 20
239.887163
 30
0.0
  0
LWPOLYLINE
  5
177
100
AcDbEntity
  8
Ebene_1
 62
7
100
AcDbPolyline
 90
3
 70
0
 10
51.977411
 20
244.132357
 30
0.0
 10
51.977411
 20
244.575937
 30
0.0
 10
28.280480
 20
244.575937
 30
0.0
  0
SPLINE
  5
178
100
AcDbEntity
  8
Ebene_1
 62
7
100
AcDbSpline
 70
8
 71
3
 72
8
 73
4
 74
0
 40
0
 40
0
 40
0
 40
0
 40
1
 40
1
 40
1
 40
1
 10
57.820107
 20
228.925897
 30
0.0
 10
57.820107
 20
227.773257
 30
0.0
 10
58.240629
 20
226.740672
 30
0.0
 10
59.045150
 20
225.914409
 30
0.0
  0
LWPOLYLINE
  5
179
100
AcDbEntity
  8
Ebene_1
 62
7
100
AcDbPolyline
 90
2
 70
0
 10
57.820107
 20
229.369477
 30
0.0
 10
57.820107
 20
228.925897
 30
0.0
  0
SPLINE
  5
17a
100
AcDbEntity
  8
Ebene_1
 62
7
100
AcDbSpline
 70
8
 71
3
 72
8
 73
4
 74
0
 40
0
 40
0
 40
0
 40
0
 40
1
 40
1
 40
1
 40
1
 10
59.048698
 20
225.909174
 30
0.0
 10
59.857601
 20
225.100266
 30
0.0
 10
60.894849
 20
224.680667
 30
0.0
 10
62.065385
 20
224.680667
 30
0.0
  0
LWPOLYLINE
  5
17b
100
AcDbEntity
  8
Ebene_1
 62
7
100
AcDbPolyline
 90
3
 70
0
 10
59.045150
 20
225.914409
 30
0.0
 10
59.046924
 20
225.912634
 30
0.0
 10
59.048698
 20
225.909174
 30
0.0
  0
SPLINE
  5
17c
100
AcDbEntity
  8
Ebene_1
 62
7
100
AcDbSpline
 70
8
 71
3
 72
8
 73
4
 74
0
 40
0
 40
0
 40
0
 40
0
 40
1
 40
1
 40
1
 40
1
 10
77.271840
 20
224.680667
 30
0.0
 10
78.406667
 20
224.680667
 30
0.0
 10
79.430741
 20
225.102546
 30
0.0
 10
80.255604
 20
225.905708
 30
0.0
  0
SPLINE
  5
17d
100
AcDbEntity
  8
Ebene_1
 62
7
100
AcDbSpline
 70
8
 71
3
 72
8
 73
4
 74
0
 40
0
 40
0
 40
0
 40
0
 40
1
 40
1
 40
1
 40
1
 10
80.255604
 20
225.905708
 30
0.0
 10
81.085302
 20
226.713565
 30
0.0
 10
81.517038
 20
227.752593
 30
0.0
 10
81.517038
 20
228.925861
 30
0.0
  0
LWPOLYLINE
  5
17e
100
AcDbEntity
  8
Ebene_1
 62
7
100
AcDbPolyline
 90
2
 70
0
 10
62.065385
 20
224.680667
 30
0.0
 10
77.271840
 20
224.680667
 30
0.0
  0
LWPOLYLINE
  5
17f
100
AcDbEntity
  8
Ebene_1
 62
7
100
AcDbPolyline
 90
3
 70
0
 10
81.517038
 20
228.925861
 30
0.0
 10
81.517038
 20
229.369441
 30
0.0
 10
57.820107
 20
229.369477
 30
0.0
  0
SPLINE
  5
180
100
AcDbEntity
  8
Ebene_1
 62
7
100
AcDbSpline
 70
8
 71
3
 72
8
 73
4
 74
0
 40
0
 40
0
 40
0
 40
0
 40
1
 40
1
 40
1
 40
1
 10
57.820107
 20
236.529128
 30
0.0
 10
57.820107
 20
235.376486
 30
0.0
 10
58.240629
 20
234.343902
 30
0.0
 10
59.045150
 20
233.517639
 30
0.0
  0
LWPOLYLINE
  5
181
100
AcDbEntity
  8
Ebene_1
 62
7
100
AcDbPolyline
 90
2
 70
0
 10
57.820107
 20
236.972707
 30
0.0
 10
57.820107
 20
236.529128
 30
0.0
  0
SPLINE
  5
182
100
AcDbEntity
  8
Ebene_1
 62
7
100
AcDbSpline
 70
8
 71
3
 72
8
 73
4
 74
0
 40
0
 40
0
 40
0
 40
0
 40
1
 40
1
 40
1
 40
1
 10
59.048698
 20
233.512405
 30
0.0
 10
59.857601
 20
232.703498
 30
0.0
 10
60.894849
 20
232.283897
 30
0.0
 10
62.065385
 20
232.283897
 30
0.0
  0
LWPOLYLINE
  5
183
100
AcDbEntity
  8
Ebene_1
 62
7
100
AcDbPolyline
 90
3
 70
0
 10
59.045150
 20
233.517639
 30
0.0
 10
59.046924
 20
233.515865
 30
0.0
 10
59.048698
 20
233.512405
 30
0.0
  0
SPLINE
  5
184
100
AcDbEntity
  8
Ebene_1
 62
7
100
AcDbSpline
 70
8
 71
3
 72
8
 73
4
 74
0
 40
0
 40
0
 40
0
 40
0
 40
1
 40
1
 40
1
 40
1
 10
77.271840
 20
232.283897
 30
0.0
 10
78.406667
 20
232.283897
 30
0.0
 10
79.430741
 20
232.705776
 30
0.0
 10
80.255604
 20
233.508939
 30
0.0
  0
SPLINE
  5
185
100
AcDbEntity
  8
Ebene_1
 62
7
100
AcDbSpline
 70
8
 71
3
 72
8
 73
4
 74
0
 40
0
 40
0
 40
0
 40
0
 40
1
 40
1
 40
1
 40
1
 10
80.255604
 20
233.508939
 30
0.0
 10
81.085302
 20
234.316796
 30
0.0
 10
81.517038
 20
235.355824
 30
0.0
 10
81.517038
 20
236.529092
 30
0.0
  0
LWPOLYLINE
  5
186
100
AcDbEntity
  8
Ebene_1
 62
7
100
AcDbPolyline
 90
2
 70
0
 10
62.065385
 20
232.283897
 30
0.0
 10
77.271840
 20
232.283897
 30
0.0
  0
LWPOLYLINE
  5
187
100
AcDbEntity
  8
Ebene_1
 62
7
100
AcDbPolyline
 90
3
 70
0
 10
81.517038
 20
236.529092
 30
0.0
 10
81.517038
 20
236.972672
 30
0.0
 10
57.820107
 20
236.972707
 30
0.0
  0
SPLINE
  5
188
100
AcDbEntity
  8
Ebene_1
 62
7
100
AcDbSpline
 70
8
 71
3
 72
8
 73
4
 74
0
 40
0
 40
0
 40
0
 40
0
 40
1
 40
1
 40
1
 40
1
 10
57.820107
 20
244.132357
 30
0.0
 10
57.820107
 20
242.979717
 30
0.0
 10
58.240629
 20
241.947132
 30
0.0
 10
59.045150
 20
241.120868
 30
0.0
  0
LWPOLYLINE
  5
189
100
AcDbEntity
  8
Ebene_1
 62
7
100
AcDbPolyline
 90
2
 70
0
 10
57.820107
 20
244.575937
 30
0.0
 10
57.820107
 20
244.132357
 30
0.0
  0
SPLINE
  5
18a
100
AcDbEntity
  8
Ebene_1
 62
7
100
AcDbSpline
 70
8
 71
3
 72
8
 73
4
 74
0
 40
0
 40
0
 40
0
 40
0
 40
1
 40
1
 40
1
 40
1
 10
59.048698
 20
241.117320
 30
0.0
 10
59.857601
 20
240.308412
 30
0.0
 10
60.894849
 20
239.887080
 30
0.0
 10
62.065385
 20
239.887080
 30
0.0
  0
LWPOLYLINE
  5
18b
100
AcDbEntity
  8
Ebene_1
 62
7
100
AcDbPolyline
 90
3
 70
0
 10
59.045150
 20
241.120868
 30
0.0
 10
59.046924
 20
241.119094
 30
0.0
 10
59.048698
 20
241.117320
 30
0.0
  0
SPLINE
  5
18c
100
AcDbEntity
  8
Ebene_1
 62
7
100
AcDbSpline
 70
8
 71
3
 72
8
 73
4
 74
0
 40
0
 40
0
 40
0
 40
0
 40
1
 40
1
 40
1
 40
1
 10
77.271840
 20
239.887080
 30
0.0
 10
78.406667
 20
239.887080
 30
0.0
 10
79.430741
 20
240.308958
 30
0.0
 10
80.255604
 20
241.112121
 30
0.0
  0
SPLINE
  5
18d
100
AcDbEntity
  8
Ebene_1
 62
7
100
AcDbSpline
 70
8
 71
3
 72
8
 73
4
 74
0
 40
0
 40
0
 40
0
 40
0
 40
1
 40
1
 40
1
 40
1
 10
80.255604
 20
241.112121
 30
0.0
 10
81.085302
 20
241.919978
 30
0.0
 10
81.517038
 20
242.959006
 30
0.0
 10
81.517038
 20
244.132274
 30
0.0
  0
LWPOLYLINE
  5
18e
100
AcDbEntity
  8
Ebene_1
 62
7
100
AcDbPolyline
 90
2
 70
0
 10
62.065385
 20
239.887080
 30
0.0
 10
77.271840
 20
239.887080
 30
0.0
  0
LWPOLYLINE
  5
18f
100
AcDbEntity
  8
Ebene_1
 62
7
100
AcDbPolyline
 90
3
 70
0
 10
81.517038
 20
244.132274
 30
0.0
 10
81.517038
 20
244.575853
 30
0.0
 10
57.820107
 20
244.575937
 30
0.0
  0
SPLINE
  5
190
100
AcDbEntity
  8
Ebene_1
 62
7
100
AcDbSpline
 70
8
 71
3
 72
8
 73
4
 74
0
 40
0
 40
0
 40
0
 40
0
 40
1
 40
1
 40
1
 40
1
 10
91.606653
 20
229.369477
 30
0.0
 10
90.451226
 20
229.369477
 30
0.0
 10
89.415290
 20
228.936838
 30
0.0
 10
88.589966
 20
228.111514
 30
0.0
  0
SPLINE
  5
191
100
AcDbEntity
  8
Ebene_1
 62
7
100
AcDbSpline
 70
8
 71
3
 72
8
 73
4
 74
0
 40
0
 40
0
 40
0
 40
0
 40
1
 40
1
 40
1
 40
1
 10
88.589966
 20
228.111514
 30
0.0
 10
87.782474
 20
227.304018
 30
0.0
 10
87.361464
 20
226.276923
 30
0.0
 10
87.361464
 20
225.124283
 30
0.0
  0
LWPOLYLINE
  5
192
100
AcDbEntity
  8
Ebene_1
 62
7
100
AcDbPolyline
 90
5
 70
0
 10
87.361464
 20
244.575937
 30
0.0
 10
87.361464
 20
232.283933
 30
0.0
 10
106.369537
 20
232.283933
 30
0.0
 10
106.369537
 20
229.369477
 30
0.0
 10
91.606653
 20
229.369477
 30
0.0
  0
SPLINE
  5
193
100
AcDbEntity
  8
Ebene_1
 62
7
100
AcDbSpline
 70
8
 71
3
 72
8
 73
4
 74
0
 40
0
 40
0
 40
0
 40
0
 40
1
 40
1
 40
1
 40
1
 10
106.813117
 20
239.887163
 30
0.0
 10
107.947944
 20
239.887163
 30
0.0
 10
108.970280
 20
240.309042
 30
0.0
 10
109.795151
 20
241.112204
 30
0.0
  0
SPLINE
  5
194
100
AcDbEntity
  8
Ebene_1
 62
7
100
AcDbSpline
 70
8
 71
3
 72
8
 73
4
 74
0
 40
0
 40
0
 40
0
 40
0
 40
1
 40
1
 40
1
 40
1
 10
109.795151
 20
241.112204
 30
0.0
 10
110.624840
 20
241.920062
 30
0.0
 10
111.058306
 20
242.959090
 30
0.0
 10
111.058306
 20
244.132357
 30
0.0
  0
LWPOLYLINE
  5
195
100
AcDbEntity
  8
Ebene_1
 62
7
100
AcDbPolyline
 90
8
 70
0
 10
87.361464
 20
225.124283
 30
0.0
 10
87.361464
 20
224.680703
 30
0.0
 10
87.805043
 20
224.680703
 30
0.0
 10
111.058306
 20
224.680703
 30
0.0
 10
111.058306
 20
236.972707
 30
0.0
 10
92.050232
 20
236.972707
 30
0.0
 10
92.050232
 20
239.887163
 30
0.0
 10
106.813117
 20
239.887163
 30
0.0
  0
LWPOLYLINE
  5
196
100
AcDbEntity
  8
Ebene_1
 62
7
100
AcDbPolyline
 90
3
 70
0
 10
111.058306
 20
244.132357
 30
0.0
 10
111.058306
 20
244.575937
 30
0.0
 10
87.361464
 20
244.575937
 30
0.0
  0
SPLINE
  5
197
100
AcDbEntity
  8
Ebene_1
 62
7
100
AcDbSpline
 70
8
 71
3
 72
8
 73
4
 74
0
 40
0
 40
0
 40
0
 40
0
 40
1
 40
1
 40
1
 40
1
 10
136.352735
 20
224.680703
 30
0.0
 10
137.487562
 20
224.680703
 30
0.0
 10
138.511636
 20
225.102582
 30
0.0
 10
139.336499
 20
225.905745
 30
0.0
  0
SPLINE
  5
198
100
AcDbEntity
  8
Ebene_1
 62
7
100
AcDbSpline
 70
8
 71
3
 72
8
 73
4
 74
0
 40
0
 40
0
 40
0
 40
0
 40
1
 40
1
 40
1
 40
1
 10
139.336499
 20
225.905745
 30
0.0
 10
140.166188
 20
226.713602
 30
0.0
 10
140.597933
 20
227.752631
 30
0.0
 10
140.597933
 20
228.925897
 30
0.0
  0
LWPOLYLINE
  5
199
100
AcDbEntity
  8
Ebene_1
 62
7
100
AcDbPolyline
 90
4
 70
0
 10
116.901082
 20
244.575937
 30
0.0
 10
116.901082
 20
224.680703
 30
0.0
 10
117.344661
 20
224.680703
 30
0.0
 10
136.352735
 20
224.680703
 30
0.0
  0
SPLINE
  5
19a
100
AcDbEntity
  8
Ebene_1
 62
7
100
AcDbSpline
 70
8
 71
3
 72
8
 73
4
 74
0
 40
0
 40
0
 40
0
 40
0
 40
1
 40
1
 40
1
 40
1
 10
35.210282
 20
253.519530
 30
0.0
 10
35.210282
 20
252.856489
 30
0.0
 10
34.946890
 20
252.220604
 30
0.0
 10
34.478049
 20
251.751763
 30
0.0
  0
SPLINE
  5
19b
100
AcDbEntity
  8
Ebene_1
 62
7
100
AcDbSpline
 70
8
 71
3
 72
8
 73
4
 74
0
 40
0
 40
0
 40
0
 40
0
 40
1
 40
1
 40
1
 40
1
 10
34.478049
 20
251.751763
 30
0.0
 10
34.009208
 20
251.282922
 30
0.0
 10
33.373323
 20
251.019530
 30
0.0
 10
32.710282
 20
251.019530
 30
0.0
  0
SPLINE
  5
19c
100
AcDbEntity
  8
Ebene_1
 62
7
100
AcDbSpline
 70
8
 71
3
 72
8
 73
4
 74
0
 40
0
 40
0
 40
0
 40
0
 40
1
 40
1
 40
1
 40
1
 10
32.710282
 20
251.019530
 30
0.0
 10
32.047241
 20
251.019530
 30
0.0
 10
31.411356
 20
251.282922
 30
0.0
 10
30.942515
 20
251.751763
 30
0.0
  0
SPLINE
  5
19d
100
AcDbEntity
  8
Ebene_1
 62
7
100
AcDbSpline
 70
8
 71
3
 72
8
 73
4
 74
0
 40
0
 40
0
 40
0
 40
0
 40
1
 40
1
 40
1
 40
1
 10
30.942515
 20
251.751763
 30
0.0
 10
30.473674
 20
252.220604
 30
0.0
 10
30.210282
 20
252.856489
 30
0.0
 10
30.210282
 20
253.519530
 30
0.0
  0
SPLINE
  5
19e
100
AcDbEntity
  8
Ebene_1
 62
7
100
AcDbSpline
 70
8
 71
3
 72
8
 73
4
 74
0
 40
0
 40
0
 40
0
 40
0
 40
1
 40
1
 40
1
 40
1
 10
30.210282
 20
253.519530
 30
0.0
 10
30.210282
 20
254.182571
 30
0.0
 10
30.473674
 20
254.818456
 30
0.0
 10
30.942515
 20
255.287297
 30
0.0
  0
SPLINE
  5
19f
100
AcDbEntity
  8
Ebene_1
 62
7
100
AcDbSpline
 70
8
 71
3
 72
8
 73
4
 74
0
 40
0
 40
0
 40
0
 40
0
 40
1
 40
1
 40
1
 40
1
 10
30.942515
 20
255.287297
 30
0.0
 10
31.411356
 20
255.756138
 30
0.0
 10
32.047241
 20
256.019530
 30
0.0
 10
32.710282
 20
256.019530
 30
0.0
  0
SPLINE
  5
1a0
100
AcDbEntity
  8
Ebene_1
 62
7
100
AcDbSpline
 70
8
 71
3
 72
8
 73
4
 74
0
 40
0
 40
0
 40
0
 40
0
 40
1
 40
1
 40
1
 40
1
 10
32.710282
 20
256.019530
 30
0.0
 10
33.373323
 20
256.019530
 30
0.0
 10
34.009208
 20
255.756138
 30
0.0
 10
34.478049
 20
255.287297
 30
0.0
  0
SPLINE
  5
1a1
100
AcDbEntity
  8
Ebene_1
 62
7
100
AcDbSpline
 70
8
 71
3
 72
8
 73
4
 74
0
 40
0
 40
0
 40
0
 40
0
 40
1
 40
1
 40
1
 40
1
 10
34.478049
 20
255.287297
 30
0.0
 10
34.946890
 20
254.818456
 30
0.0
 10
35.210282
 20
254.182571
 30
0.0
 10
35.210282
 20
253.519530
 30
0.0
  0
SPLINE
  5
1a2
100
AcDbEntity
  8
Ebene_1
 62
7
100
AcDbSpline
 70
8
 71
3
 72
8
 73
4
 74
0
 40
0
 40
0
 40
0
 40
0
 40
1
 40
1
 40
1
 40
1
 10
168.210286
 20
253.519530
 30
0.0
 10
168.210286
 20
252.856489
 30
0.0
 10
167.946894
 20
252.220604
 30
0.0
 10
167.478053
 20
251.751763
 30
0.0
  0
SPLINE
  5
1a3
100
AcDbEntity
  8
Ebene_1
 62
7
100
AcDbSpline
 70
8
 71
3
 72
8
 73
4
 74
0
 40
0
 40
0
 40
0
 40
0
 40
1
 40
1
 40
1
 40
1
 10
167.478053
 20
251.751763
 30
0.0
 10
167.009212
 20
251.282922
 30
0.0
 10
166.373327
 20
251.019530
 30
0.0
 10
165.710286
 20
251.019530
 30
0.0
  0
SPLINE
  5
1a4
100
AcDbEntity
  8
Ebene_1
 62
7
100
AcDbSpline
 70
8
 71
3
 72
8
 73
4
 74
0
 40
0
 40
0
 40
0
 40
0
 40
1
 40
1
 40
1
 40
1
 10
165.710286
 20
251.019530
 30
0.0
 10
165.047245
 20
251.019530
 30
0.0
 10
164.411360
 20
251.282922
 30
0.0
 10
163.942519
 20
251.751763
 30
0.0
  0
SPLINE
  5
1a5
100
AcDbEntity
  8
Ebene_1
 62
7
100
AcDbSpline
 70
8
 71
3
 72
8
 73
4
 74
0
 40
0
 40
0
 40
0
 40
0
 40
1
 40
1
 40
1
 40
1
 10
163.942519
 20
251.751763
 30
0.0
 10
163.473678
 20
252.220604
 30
0.0
 10
163.210286
 20
252.856489
 30
0.0
 10
163.210286
 20
253.519530
 30
0.0
  0
SPLINE
  5
1a6
100
AcDbEntity
  8
Ebene_1
 62
7
100
AcDbSpline
 70
8
 71
3
 72
8
 73
4
 74
0
 40
0
 40
0
 40
0
 40
0
 40
1
 40
1
 40
1
 40
1
 10
163.210286
 20
253.519530
 30
0.0
 10
163.210286
 20
254.182571
 30
0.0
 10
163.473678
 20
254.818456
 30
0.0
 10
163.942519
 20
255.287297
 30
0.0
  0
SPLINE
  5
1a7
100
AcDbEntity
  8
Ebene_1
 62
7
100
AcDbSpline
 70
8
 71
3
 72
8
 73
4
 74
0
 40
0
 40
0
 40
0
 40
0
 40
1
 40
1
 40
1
 40
1
 10
163.942519
 20
255.287297
 30
0.0
 10
164.411360
 20
255.756138
 30
0.0
 10
165.047245
 20
256.019530
 30
0.0
 10
165.710286
 20
256.019530
 30
0.0
  0
SPLINE
  5
1a8
100
AcDbEntity
  8
Ebene_1
 62
7
100
AcDbSpline
 70
8
 71
3
 72
8
 73
4
 74
0
 40
0
 40
0
 40
0
 40
0
 40
1
 40
1
 40
1
 40
1
 10
165.710286
 20
256.019530
 30
0.0
 10
166.373327
 20
256.019530
 30
0.0
 10
167.009212
 20
255.756138
 30
0.0
 10
167.478053
 20
255.287297
 30
0.0
  0
SPLINE
  5
1a9
100
AcDbEntity
  8
Ebene_1
 62
7
100
AcDbSpline
 70
8
 71
3
 72
8
 73
4
 74
0
 40
0
 40
0
 40
0
 40
0
 40
1
 40
1
 40
1
 40
1
 10
167.478053
 20
255.287297
 30
0.0
 10
167.946894
 20
254.818456
 30
0.0
 10
168.210286
 20
254.182571
 30
0.0
 10
168.210286
 20
253.519530
 30
0.0
  0
SPLINE
  5
1aa
100
AcDbEntity
  8
Ebene_1
 62
7
100
AcDbSpline
 70
8
 71
3
 72
8
 73
4
 74
0
 40
0
 40
0
 40
0
 40
0
 40
1
 40
1
 40
1
 40
1
 10
168.210286
 20
40.519530
 30
0.0
 10
168.210286
 20
39.856489
 30
0.0
 10
167.946894
 20
39.220604
 30
0.0
 10
167.478053
 20
38.751763
 30
0.0
  0
SPLINE
  5
1ab
100
AcDbEntity
  8
Ebene_1
 62
7
100
AcDbSpline
 70
8
 71
3
 72
8
 73
4
 74
0
 40
0
 40
0
 40
0
 40
0
 40
1
 40
1
 40
1
 40
1
 10
167.478053
 20
38.751763
 30
0.0
 10
167.009212
 20
38.282922
 30
0.0
 10
166.373327
 20
38.019530
 30
0.0
 10
165.710286
 20
38.019530
 30
0.0
  0
SPLINE
  5
1ac
100
AcDbEntity
  8
Ebene_1
 62
7
100
AcDbSpline
 70
8
 71
3
 72
8
 73
4
 74
0
 40
0
 40
0
 40
0
 40
0
 40
1
 40
1
 40
1
 40
1
 10
165.710286
 20
38.019530
 30
0.0
 10
165.047245
 20
38.019530
 30
0.0
 10
164.411360
 20
38.282922
 30
0.0
 10
163.942519
 20
38.751763
 30
0.0
  0
SPLINE
  5
1ad
100
AcDbEntity
  8
Ebene_1
 62
7
100
AcDbSpline
 70
8
 71
3
 72
8
 73
4
 74
0
 40
0
 40
0
 40
0
 40
0
 40
1
 40
1
 40
1
 40
1
 10
163.942519
 20
38.751763
 30
0.0
 10
163.473678
 20
39.220604
 30
0.0
 10
163.210286
 20
39.856489
 30
0.0
 10
163.210286
 20
40.519530
 30
0.0
  0
SPLINE
  5
1ae
100
AcDbEntity
  8
Ebene_1
 62
7
100
AcDbSpline
 70
8
 71
3
 72
8
 73
4
 74
0
 40
0
 40
0
 40
0
 40
0
 40
1
 40
1
 40
1
 40
1
 10
163.210286
 20
40.519530
 30
0.0
 10
163.210286
 20
41.182571
 30
0.0
 10
163.473678
 20
41.818456
 30
0.0
 10
163.942519
 20
42.287297
 30
0.0
  0
SPLINE
  5
1af
100
AcDbEntity
  8
Ebene_1
 62
7
100
AcDbSpline
 70
8
 71
3
 72
8
 73
4
 74
0
 40
0
 40
0
 40
0
 40
0
 40
1
 40
1
 40
1
 40
1
 10
163.942519
 20
42.287297
 30
0.0
 10
164.411360
 20
42.756138
 30
0.0
 10
165.047245
 20
43.019530
 30
0.0
 10
165.710286
 20
43.019530
 30
0.0
  0
SPLINE
  5
1b0
100
AcDbEntity
  8
Ebene_1
 62
7
100
AcDbSpline
 70
8
 71
3
 72
8
 73
4
 74
0
 40
0
 40
0
 40
0
 40
0
 40
1
 40
1
 40
1
 40
1
 10
165.710286
 20
43.019530
 30
0.0
 10
166.373327
 20
43.019530
 30
0.0
 10
167.009212
 20
42.756138
 30
0.0
 10
167.478053
 20
42.287297
 30
0.0
  0
SPLINE
  5
1b1
100
AcDbEntity
  8
Ebene_1
 62
7
100
AcDbSpline
 70
8
 71
3
 72
8
 73
4
 74
0
 40
0
 40
0
 40
0
 40
0
 40
1
 40
1
 40
1
 40
1
 10
167.478053
 20
42.287297
 30
0.0
 10
167.946894
 20
41.818456
 30
0.0
 10
168.210286
 20
41.182571
 30
0.0
 10
168.210286
 20
40.519530
 30
0.0
  0
SPLINE
  5
1b2
100
AcDbEntity
  8
Ebene_1
 62
7
100
AcDbSpline
 70
8
 71
3
 72
8
 73
4
 74
0
 40
0
 40
0
 40
0
 40
0
 40
1
 40
1
 40
1
 40
1
 10
35.210282
 20
40.519530
 30
0.0
 10
35.210282
 20
39.856489
 30
0.0
 10
34.946890
 20
39.220604
 30
0.0
 10
34.478049
 20
38.751763
 30
0.0
  0
SPLINE
  5
1b3
100
AcDbEntity
  8
Ebene_1
 62
7
100
AcDbSpline
 70
8
 71
3
 72
8
 73
4
 74
0
 40
0
 40
0
 40
0
 40
0
 40
1
 40
1
 40
1
 40
1
 10
34.478049
 20
38.751763
 30
0.0
 10
34.009208
 20
38.282922
 30
0.0
 10
33.373323
 20
38.019530
 30
0.0
 10
32.710282
 20
38.019530
 30
0.0
  0
SPLINE
  5
1b4
100
AcDbEntity
  8
Ebene_1
 62
7
100
AcDbSpline
 70
8
 71
3
 72
8
 73
4
 74
0
 40
0
 40
0
 40
0
 40
0
 40
1
 40
1
 40
1
 40
1
 10
32.710282
 20
38.019530
 30
0.0
 10
32.047241
 20
38.019530
 30
0.0
 10
31.411356
 20
38.282922
 30
0.0
 10
30.942515
 20
38.751763
 30
0.0
  0
SPLINE
  5
1b5
100
AcDbEntity
  8
Ebene_1
 62
7
100
AcDbSpline
 70
8
 71
3
 72
8
 73
4
 74
0
 40
0
 40
0
 40
0
 40
0
 40
1
 40
1
 40
1
 40
1
 10
30.942515
 20
38.751763
 30
0.0
 10
30.473674
 20
39.220604
 30
0.0
 10
30.210282
 20
39.856489
 30
0.0
 10
30.210282
 20
40.519530
 30
0.0
  0
SPLINE
  5
1b6
100
AcDbEntity
  8
Ebene_1
 62
7
100
AcDbSpline
 70
8
 71
3
 72
8
 73
4
 74
0
 40
0
 40
0
 40
0
 40
0
 40
1
 40
1
 40
1
 40
1
 10
30.210282
 20
40.519530
 30
0.0
 10
30.210282
 20
41.182571
 30
0.0
 10
30.473674
 20
41.818456
 30
0.0
 10
30.942515
 20
42.287297
 30
0.0
  0
SPLINE
  5
1b7
100
AcDbEntity
  8
Ebene_1
 62
7
100
AcDbSpline
 70
8
 71
3
 72
8
 73
4
 74
0
 40
0
 40
0
 40
0
 40
0
 40
1
 40
1
 40
1
 40
1
 10
30.942515
 20
42.287297
 30
0.0
 10
31.411356
 20
42.756138
 30
0.0
 10
32.047241
 20
43.019530
 30
0.0
 10
32.710282
 20
43.019530
 30
0.0
  0
SPLINE
  5
1b8
100
AcDbEntity
  8
Ebene_1
 62
7
100
AcDbSpline
 70
8
 71
3
 72
8
 73
4
 74
0
 40
0
 40
0
 40
0
 40
0
 40
1
 40
1
 40
1
 40
1
 10
32.710282
 20
43.019530
 30
0.0
 10
33.373323
 20
43.019530
 30
0.0
 10
34.009208
 20
42.756138
 30
0.0
 10
34.478049
 20
42.287297
 30
0.0
  0
SPLINE
  5
1b9
100
AcDbEntity
  8
Ebene_1
 62
7
100
AcDbSpline
 70
8
 71
3
 72
8
 73
4
 74
0
 40
0
 40
0
 40
0
 40
0
 40
1
 40
1
 40
1
 40
1
 10
34.478049
 20
42.287297
 30
0.0
 10
34.946890
 20
41.818456
 30
0.0
 10
35.210282
 20
41.182571
 30
0.0
 10
35.210282
 20
40.519530
 30
0.0
  0
SPLINE
  5
1ba
100
AcDbEntity
  8
Ebene_1
 62
1
100
AcDbSpline
 70
8
 71
3
 72
8
 73
4
 74
0
 40
0
 40
0
 40
0
 40
0
 40
1
 40
1
 40
1
 40
1
 10
28.340302
 20
275.890405
 30
0.0
 10
18.600137
 20
275.890405
 30
0.0
 10
10.381202
 20
267.867657
 30
0.0
 10
10.381202
 20
257.849999
 30
0.0
  0
LWPOLYLINE
  5
1bb
100
AcDbEntity
  8
Ebene_1
 62
7
100
AcDbPolyline
 90
5
 70
0
 10
140.597933
 20
228.925897
 30
0.0
 10
140.597933
 20
229.369477
 30
0.0
 10
121.589859
 20
229.369477
 30
0.0
 10
121.589859
 20
244.575937
 30
0.0
 10
116.901082
 20
244.575937
 30
0.0
  0
SPLINE
  5
1bc
100
AcDbEntity
  8
Ebene_1
 62
1
100
AcDbSpline
 70
8
 71
3
 72
8
 73
4
 74
0
 40
0
 40
0
 40
0
 40
0
 40
1
 40
1
 40
1
 40
1
 10
10.381202
 20
37.116630
 30
0.0
 10
10.381202
 20
27.098960
 30
0.0
 10
18.600137
 20
19.076220
 30
0.0
 10
28.340302
 20
19.076220
 30
0.0
  0
LWPOLYLINE
  5
1bd
100
AcDbEntity
  8
Ebene_1
 62
1
100
AcDbPolyline
 90
2
 70
0
 10
10.381202
 20
257.849999
 30
0.0
 10
10.381202
 20
37.116630
 30
0.0
  0
SPLINE
  5
1be
100
AcDbEntity
  8
Ebene_1
 62
1
100
AcDbSpline
 70
8
 71
3
 72
8
 73
4
 74
0
 40
0
 40
0
 40
0
 40
0
 40
1
 40
1
 40
1
 40
1
 10
170.080270
 20
19.076220
 30
0.0
 10
179.820440
 20
19.076220
 30
0.0
 10
188.039370
 20
27.098960
 30
0.0
 10
188.039370
 20
37.116630
 30
0.0
  0
LWPOLYLINE
  5
1bf
100
AcDbEntity
  8
Ebene_1
 62
1
100
AcDbPolyline
 90
2
 70
0
 10
28.340302
 20
19.076220
 30
0.0
 10
170.080270
 20
19.076220
 30
0.0
  0
SPLINE
  5
1c0
100
AcDbEntity
  8
Ebene_1
 62
1
100
AcDbSpline
 70
8
 71
3
 72
8
 73
4
 74
0
 40
0
 40
0
 40
0
 40
0
 40
1
 40
1
 40
1
 40
1
 10
188.039370
 20
257.849999
 30
0.0
 10
188.039370
 20
267.867655
 30
0.0
 10
179.820440
 20
275.890405
 30
0.0
 10
170.080270
 20
275.890405
 30
0.0
  0
LWPOLYLINE
  5
1c1
100
AcDbEntity
  8
Ebene_1
 62
1
100
AcDbPolyline
 90
2
 70
0
 10
188.039370
 20
37.116630
 30
0.0
 10
188.039370
 20
257.849999
 30
0.0
  0
SPLINE
  5
1c2
100
AcDbEntity
  8
Ebene_1
 62
7
100
AcDbSpline
 70
8
 71
3
 72
8
 73
4
 74
0
 40
0
 40
0
 40
0
 40
0
 40
1
 40
1
 40
1
 40
1
 10
28.339844
 20
271.833984
 30
0.0
 10
20.630046
 20
271.833984
 30
0.0
 10
14.265625
 20
265.547283
 30
0.0
 10
14.265625
 20
257.849609
 30
0.0
  0
LWPOLYLINE
  5
1c3
100
AcDbEntity
  8
Ebene_1
 62
1
100
AcDbPolyline
 90
2
 70
0
 10
170.080270
 20
275.890405
 30
0.0
 10
28.340302
 20
275.890405
 30
0.0
  0
SPLINE
  5
1c4
100
AcDbEntity
  8
Ebene_1
 62
7
100
AcDbSpline
 70
8
 71
3
 72
8
 73
4
 74
0
 40
0
 40
0
 40
0
 40
0
 40
1
 40
1
 40
1
 40
1
 10
14.265625
 20
37.117190
 30
0.0
 10
14.265625
 20
29.419520
 30
0.0
 10
20.630044
 20
23.132810
 30
0.0
 10
28.339844
 20
23.132810
 30
0.0
  0
LWPOLYLINE
  5
1c5
100
AcDbEntity
  8
Ebene_1
 62
7
100
AcDbPolyline
 90
2
 70
0
 10
14.265625
 20
257.849609
 30
0.0
 10
14.265625
 20
37.117190
 30
0.0
  0
SPLINE
  5
1c6
100
AcDbEntity
  8
Ebene_1
 62
7
100
AcDbSpline
 70
8
 71
3
 72
8
 73
4
 74
0
 40
0
 40
0
 40
0
 40
0
 40
1
 40
1
 40
1
 40
1
 10
170.080080
 20
23.132810
 30
0.0
 10
177.789880
 20
23.132810
 30
0.0
 10
184.154300
 20
29.419520
 30
0.0
 10
184.154300
 20
37.117190
 30
0.0
  0
LWPOLYLINE
  5
1c7
100
AcDbEntity
  8
Ebene_1
 62
7
100
AcDbPolyline
 90
2
 70
0
 10
28.339844
 20
23.132810
 30
0.0
 10
170.080080
 20
23.132810
 30
0.0
  0
SPLINE
  5
1c8
100
AcDbEntity
  8
Ebene_1
 62
7
100
AcDbSpline
 70
8
 71
3
 72
8
 73
4
 74
0
 40
0
 40
0
 40
0
 40
0
 40
1
 40
1
 40
1
 40
1
 10
184.154300
 20
257.849609
 30
0.0
 10
184.154300
 20
265.547283
 30
0.0
 10
177.789870
 20
271.833984
 30
0.0
 10
170.080080
 20
271.833984
 30
0.0
  0
LWPOLYLINE
  5
1c9
100
AcDbEntity
  8
Ebene_1
 62
7
100
AcDbPolyline
 90
2
 70
0
 10
184.154300
 20
37.117190
 30
0.0
 10
184.154300
 20
257.849609
 30
0.0
  0
LWPOLYLINE
  5
1ca
100
AcDbEntity
  8
Ebene_1
 62
7
100
AcDbPolyline
 90
3
 70
0
 10
170.080080
 20
271.833984
 30
0.0
 10
28.339844
 20
271.833984
 30
0.0
 10
28.339844
 20
271.833984
 30
0.0
  0
SPLINE
  5
1cb
100
AcDbEntity
  8
Ebene_1
 62
7
100
AcDbSpline
 70
8
 71
3
 72
8
 73
4
 74
0
 40
0
 40
0
 40
0
 40
0
 40
1
 40
1
 40
1
 40
1
 10
170.080080
 20
263.933594
 30
0.0
 10
173.587980
 20
263.933594
 30
0.0
 10
176.253910
 20
261.268870
 30
0.0
 10
176.253910
 20
257.849609
 30
0.0
  0
LWPOLYLINE
  5
1cc
100
AcDbEntity
  8
Ebene_1
 62
7
100
AcDbPolyline
 90
2
 70
0
 10
28.339844
 20
263.933594
 30
0.0
 10
170.080080
 20
263.933594
 30
0.0
  0
SPLINE
  5
1cd
100
AcDbEntity
  8
Ebene_1
 62
7
100
AcDbSpline
 70
8
 71
3
 72
8
 73
4
 74
0
 40
0
 40
0
 40
0
 40
0
 40
1
 40
1
 40
1
 40
1
 10
176.253910
 20
37.117190
 30
0.0
 10
176.253910
 20
33.697940
 30
0.0
 10
173.587980
 20
31.033200
 30
0.0
 10
170.080080
 20
31.033200
 30
0.0
  0
LWPOLYLINE
  5
1ce
100
AcDbEntity
  8
Ebene_1
 62
7
100
AcDbPolyline
 90
2
 70
0
 10
176.253910
 20
257.849609
 30
0.0
 10
176.253910
 20
37.117190
 30
0.0
  0
SPLINE
  5
1cf
100
AcDbEntity
  8
Ebene_1
 62
7
100
AcDbSpline
 70
8
 71
3
 72
8
 73
4
 74
0
 40
0
 40
0
 40
0
 40
0
 40
1
 40
1
 40
1
 40
1
 10
28.339844
 20
31.033200
 30
0.0
 10
24.831937
 20
31.033200
 30
0.0
 10
22.166016
 20
33.697940
 30
0.0
 10
22.166016
 20
37.117190
 30
0.0
  0
LWPOLYLINE
  5
1d0
100
AcDbEntity
  8
Ebene_1
 62
7
100
AcDbPolyline
 90
2
 70
0
 10
170.080080
 20
31.033200
 30
0.0
 10
28.339844
 20
31.033200
 30
0.0
  0
SPLINE
  5
1d1
100
AcDbEntity
  8
Ebene_1
 62
7
100
AcDbSpline
 70
8
 71
3
 72
8
 73
4
 74
0
 40
0
 40
0
 40
0
 40
0
 40
1
 40
1
 40
1
 40
1
 10
22.166016
 20
257.849609
 30
0.0
 10
22.166016
 20
261.268870
 30
0.0
 10
24.831936
 20
263.933594
 30
0.0
 10
28.339844
 20
263.933594
 30
0.0
  0
LWPOLYLINE
  5
1d2
100
AcDbEntity
  8
Ebene_1
 62
7
100
AcDbPolyline
 90
2
 70
0
 10
22.166016
 20
37.117190
 30
0.0
 10
22.166016
 20
257.849609
 30
0.0
  0
LWPOLYLINE
  5
1d3
100
AcDbEntity
  8
Ebene_1
 62
7
100
AcDbPolyline
 90
1
 70
1
 10
28.339844
 20
263.933594
 30
0.0
  0
SPLINE
  5
1d4
100
AcDbEntity
  8
Ebene_1
 62
7
100
AcDbSpline
 70
8
 71
3
 72
8
 73
4
 74
0
 40
0
 40
0
 40
0
 40
0
 40
1
 40
1
 40
1
 40
1
 10
332.321552
 20
73.471940
 30
0.0
 10
332.321552
 20
72.364881
 30
0.0
 10
332.696540
 20
71.368016
 30
0.0
 10
333.411919
 20
70.574435
 30
0.0
  0
LWPOLYLINE
  5
1d5
100
AcDbEntity
  8
Ebene_1
 62
7
100
AcDbPolyline
 90
2
 70
0
 10
332.321552
 20
81.175816
 30
0.0
 10
332.321552
 20
73.471940
 30
0.0
  0
SPLINE
  5
1d6
100
AcDbEntity
  8
Ebene_1
 62
7
100
AcDbSpline
 70
8
 71
3
 72
8
 73
4
 74
0
 40
0
 40
0
 40
0
 40
0
 40
1
 40
1
 40
1
 40
1
 10
333.415290
 20
70.570886
 30
0.0
 10
334.134890
 20
69.793628
 30
0.0
 10
335.060628
 20
69.387753
 30
0.0
 10
336.101194
 20
69.387753
 30
0.0
  0
LWPOLYLINE
  5
1d7
100
AcDbEntity
  8
Ebene_1
 62
7
100
AcDbPolyline
 90
3
 70
0
 10
333.411919
 20
70.574435
 30
0.0
 10
333.413605
 20
70.572660
 30
0.0
 10
333.415290
 20
70.570886
 30
0.0
  0
SPLINE
  5
1d8
100
AcDbEntity
  8
Ebene_1
 62
7
100
AcDbSpline
 70
8
 71
3
 72
8
 73
4
 74
0
 40
0
 40
0
 40
0
 40
0
 40
1
 40
1
 40
1
 40
1
 10
339.027179
 20
80.714857
 30
0.0
 10
339.027179
 20
79.607789
 30
0.0
 10
339.402168
 20
78.612734
 30
0.0
 10
340.117545
 20
77.819153
 30
0.0
  0
LWPOLYLINE
  5
1d9
100
AcDbEntity
  8
Ebene_1
 62
7
100
AcDbPolyline
 90
5
 70
0
 10
336.101194
 20
69.387753
 30
0.0
 10
353.293645
 20
69.387753
 30
0.0
 10
353.293645
 20
81.175861
 30
0.0
 10
339.027179
 20
81.175861
 30
0.0
 10
339.027179
 20
80.714857
 30
0.0
  0
SPLINE
  5
1da
100
AcDbEntity
  8
Ebene_1
 62
7
100
AcDbSpline
 70
8
 71
3
 72
8
 73
4
 74
0
 40
0
 40
0
 40
0
 40
0
 40
1
 40
1
 40
1
 40
1
 10
340.122602
 20
77.813830
 30
0.0
 10
340.842201
 20
77.036581
 30
0.0
 10
341.767939
 20
76.632498
 30
0.0
 10
342.808506
 20
76.632498
 30
0.0
  0
LWPOLYLINE
  5
1db
100
AcDbEntity
  8
Ebene_1
 62
7
100
AcDbPolyline
 90
3
 70
0
 10
340.117545
 20
77.819153
 30
0.0
 10
340.120916
 20
77.815604
 30
0.0
 10
340.122602
 20
77.813830
 30
0.0
  0
SPLINE
  5
1dc
100
AcDbEntity
  8
Ebene_1
 62
7
100
AcDbSpline
 70
8
 71
3
 72
8
 73
4
 74
0
 40
0
 40
0
 40
0
 40
0
 40
1
 40
1
 40
1
 40
1
 10
337.778480
 20
73.933077
 30
0.0
 10
337.407269
 20
73.933077
 30
0.0
 10
337.135153
 20
74.052914
 30
0.0
 10
336.879845
 20
74.309436
 30
0.0
  0
SPLINE
  5
1dd
100
AcDbEntity
  8
Ebene_1
 62
7
100
AcDbSpline
 70
8
 71
3
 72
8
 73
4
 74
0
 40
0
 40
0
 40
0
 40
0
 40
1
 40
1
 40
1
 40
1
 10
336.879845
 20
74.309436
 30
0.0
 10
336.640423
 20
74.586114
 30
0.0
 10
336.528060
 20
74.879383
 30
0.0
 10
336.528060
 20
75.281878
 30
0.0
  0
LWPOLYLINE
  5
1de
100
AcDbEntity
  8
Ebene_1
 62
7
100
AcDbPolyline
 90
4
 70
0
 10
342.808506
 20
76.632498
 30
0.0
 10
349.087285
 20
76.632498
 30
0.0
 10
349.087285
 20
73.933077
 30
0.0
 10
337.778480
 20
73.933077
 30
0.0
  0
LWPOLYLINE
  5
1df
100
AcDbEntity
  8
Ebene_1
 62
7
100
AcDbPolyline
 90
3
 70
0
 10
336.528060
 20
75.281878
 30
0.0
 10
336.528060
 20
81.175940
 30
0.0
 10
332.321552
 20
81.175816
 30
0.0
  0
SPLINE
  5
1e0
100
AcDbEntity
  8
Ebene_1
 62
7
100
AcDbSpline
 70
8
 71
3
 72
8
 73
4
 74
0
 40
0
 40
0
 40
0
 40
0
 40
1
 40
1
 40
1
 40
1
 10
225.018782
 20
82.526418
 30
0.0
 10
225.018782
 20
82.128013
 30
0.0
 10
224.905155
 20
81.837007
 30
0.0
 10
224.648668
 20
81.557578
 30
0.0
  0
SPLINE
  5
1e1
100
AcDbEntity
  8
Ebene_1
 62
7
100
AcDbSpline
 70
8
 71
3
 72
8
 73
4
 74
0
 40
0
 40
0
 40
0
 40
0
 40
1
 40
1
 40
1
 40
1
 10
224.648668
 20
81.557578
 30
0.0
 10
224.389156
 20
81.294296
 30
0.0
 10
224.123089
 20
81.175816
 30
0.0
 10
223.770035
 20
81.175816
 30
0.0
  0
LWPOLYLINE
  5
1e2
100
AcDbEntity
  8
Ebene_1
 62
7
100
AcDbPolyline
 90
4
 70
0
 10
208.253145
 20
88.420472
 30
0.0
 10
208.253145
 20
83.875219
 30
0.0
 10
225.018782
 20
83.875219
 30
0.0
 10
225.018782
 20
82.526418
 30
0.0
  0
SPLINE
  5
1e3
100
AcDbEntity
  8
Ebene_1
 62
7
100
AcDbSpline
 70
8
 71
3
 72
8
 73
4
 74
0
 40
0
 40
0
 40
0
 40
0
 40
1
 40
1
 40
1
 40
1
 10
225.445594
 20
76.632373
 30
0.0
 10
226.454986
 20
76.632373
 30
0.0
 10
227.368121
 20
77.038825
 30
0.0
 10
228.101491
 20
77.810095
 30
0.0
  0
SPLINE
  5
1e4
100
AcDbEntity
  8
Ebene_1
 62
7
100
AcDbSpline
 70
8
 71
3
 72
8
 73
4
 74
0
 40
0
 40
0
 40
0
 40
0
 40
1
 40
1
 40
1
 40
1
 10
228.101491
 20
77.810095
 30
0.0
 10
228.839492
 20
78.586261
 30
0.0
 10
229.226870
 20
79.588014
 30
0.0
 10
229.226870
 20
80.714804
 30
0.0
  0
LWPOLYLINE
  5
1e5
100
AcDbEntity
  8
Ebene_1
 62
7
100
AcDbPolyline
 90
7
 70
0
 10
223.770035
 20
81.175816
 30
0.0
 10
208.253145
 20
81.175816
 30
0.0
 10
208.253145
 20
69.387700
 30
0.0
 10
208.679957
 20
69.387700
 30
0.0
 10
212.459565
 20
69.387700
 30
0.0
 10
212.459565
 20
76.632373
 30
0.0
 10
225.445594
 20
76.632373
 30
0.0
  0
LWPOLYLINE
  5
1e6
100
AcDbEntity
  8
Ebene_1
 62
7
100
AcDbPolyline
 90
3
 70
0
 10
229.226870
 20
80.714804
 30
0.0
 10
229.226870
 20
88.420472
 30
0.0
 10
208.253145
 20
88.420472
 30
0.0
  0
LWPOLYLINE
  5
1e7
100
AcDbEntity
  8
Ebene_1
 62
7
100
AcDbPolyline
 90
9
 70
1
 10
231.726041
 20
81.175816
 30
0.0
 10
231.726041
 20
69.387700
 30
0.0
 10
232.152853
 20
69.387700
 30
0.0
 10
235.932461
 20
69.387700
 30
0.0
 10
235.932461
 20
76.632373
 30
0.0
 10
248.491687
 20
76.632373
 30
0.0
 10
248.491687
 20
69.387700
 30
0.0
 10
252.698098
 20
69.387700
 30
0.0
 10
252.698098
 20
81.175816
 30
0.0
  0
SPLINE
  5
1e8
100
AcDbEntity
  8
Ebene_1
 62
7
100
AcDbSpline
 70
8
 71
3
 72
8
 73
4
 74
0
 40
0
 40
0
 40
0
 40
0
 40
1
 40
1
 40
1
 40
1
 10
231.726041
 20
87.959469
 30
0.0
 10
231.726041
 20
86.852401
 30
0.0
 10
232.101026
 20
85.855544
 30
0.0
 10
232.816413
 20
85.061954
 30
0.0
  0
LWPOLYLINE
  5
1e9
100
AcDbEntity
  8
Ebene_1
 62
7
100
AcDbPolyline
 90
2
 70
0
 10
231.726041
 20
88.420472
 30
0.0
 10
231.726041
 20
87.959469
 30
0.0
  0
SPLINE
  5
1ea
100
AcDbEntity
  8
Ebene_1
 62
7
100
AcDbSpline
 70
8
 71
3
 72
8
 73
4
 74
0
 40
0
 40
0
 40
0
 40
0
 40
1
 40
1
 40
1
 40
1
 10
232.819961
 20
85.058405
 30
0.0
 10
233.539563
 20
84.281157
 30
0.0
 10
234.465304
 20
83.875264
 30
0.0
 10
235.505871
 20
83.875264
 30
0.0
  0
LWPOLYLINE
  5
1eb
100
AcDbEntity
  8
Ebene_1
 62
7
100
AcDbPolyline
 90
3
 70
0
 10
232.816413
 20
85.061954
 30
0.0
 10
232.818187
 20
85.060180
 30
0.0
 10
232.819961
 20
85.058405
 30
0.0
  0
SPLINE
  5
1ec
100
AcDbEntity
  8
Ebene_1
 62
7
100
AcDbSpline
 70
8
 71
3
 72
8
 73
4
 74
0
 40
0
 40
0
 40
0
 40
0
 40
1
 40
1
 40
1
 40
1
 10
248.918712
 20
83.875264
 30
0.0
 10
249.928104
 20
83.875264
 30
0.0
 10
250.841239
 20
84.281715
 30
0.0
 10
251.574609
 20
85.053003
 30
0.0
  0
SPLINE
  5
1ed
100
AcDbEntity
  8
Ebene_1
 62
7
100
AcDbSpline
 70
8
 71
3
 72
8
 73
4
 74
0
 40
0
 40
0
 40
0
 40
0
 40
1
 40
1
 40
1
 40
1
 10
251.574609
 20
85.053003
 30
0.0
 10
252.312619
 20
85.829160
 30
0.0
 10
252.698311
 20
86.832723
 30
0.0
 10
252.698311
 20
87.959504
 30
0.0
  0
LWPOLYLINE
  5
1ee
100
AcDbEntity
  8
Ebene_1
 62
7
100
AcDbPolyline
 90
2
 70
0
 10
235.505871
 20
83.875264
 30
0.0
 10
248.918712
 20
83.875264
 30
0.0
  0
LWPOLYLINE
  5
1ef
100
AcDbEntity
  8
Ebene_1
 62
7
100
AcDbPolyline
 90
3
 70
0
 10
252.698311
 20
87.959504
 30
0.0
 10
252.698311
 20
88.420516
 30
0.0
 10
231.726041
 20
88.420472
 30
0.0
  0
SPLINE
  5
1f0
100
AcDbEntity
  8
Ebene_1
 62
7
100
AcDbSpline
 70
8
 71
3
 72
8
 73
4
 74
0
 40
0
 40
0
 40
0
 40
0
 40
1
 40
1
 40
1
 40
1
 10
255.197279
 20
87.959469
 30
0.0
 10
255.197279
 20
86.852401
 30
0.0
 10
255.572263
 20
85.855544
 30
0.0
 10
256.287641
 20
85.061954
 30
0.0
  0
LWPOLYLINE
  5
1f1
100
AcDbEntity
  8
Ebene_1
 62
7
100
AcDbPolyline
 90
2
 70
0
 10
255.197279
 20
88.420472
 30
0.0
 10
255.197279
 20
87.959469
 30
0.0
  0
SPLINE
  5
1f2
100
AcDbEntity
  8
Ebene_1
 62
7
100
AcDbSpline
 70
8
 71
3
 72
8
 73
4
 74
0
 40
0
 40
0
 40
0
 40
0
 40
1
 40
1
 40
1
 40
1
 10
256.292964
 20
85.058405
 30
0.0
 10
257.012557
 20
84.281157
 30
0.0
 10
257.938298
 20
83.875272
 30
0.0
 10
258.978865
 20
83.875264
 30
0.0
  0
LWPOLYLINE
  5
1f3
100
AcDbEntity
  8
Ebene_1
 62
7
100
AcDbPolyline
 90
3
 70
0
 10
256.287641
 20
85.061954
 30
0.0
 10
256.291190
 20
85.060180
 30
0.0
 10
256.292964
 20
85.058405
 30
0.0
  0
SPLINE
  5
1f4
100
AcDbEntity
  8
Ebene_1
 62
7
100
AcDbSpline
 70
8
 71
3
 72
8
 73
4
 74
0
 40
0
 40
0
 40
0
 40
0
 40
1
 40
1
 40
1
 40
1
 10
271.964912
 20
82.526454
 30
0.0
 10
271.964912
 20
82.128057
 30
0.0
 10
271.849608
 20
81.837051
 30
0.0
 10
271.593112
 20
81.557623
 30
0.0
  0
SPLINE
  5
1f5
100
AcDbEntity
  8
Ebene_1
 62
7
100
AcDbSpline
 70
8
 71
3
 72
8
 73
4
 74
0
 40
0
 40
0
 40
0
 40
0
 40
1
 40
1
 40
1
 40
1
 10
271.593112
 20
81.557623
 30
0.0
 10
271.333601
 20
81.294341
 30
0.0
 10
271.067542
 20
81.175852
 30
0.0
 10
270.714479
 20
81.175852
 30
0.0
  0
LWPOLYLINE
  5
1f6
100
AcDbEntity
  8
Ebene_1
 62
7
100
AcDbPolyline
 90
3
 70
0
 10
258.978865
 20
83.875264
 30
0.0
 10
271.964912
 20
83.875264
 30
0.0
 10
271.964912
 20
82.526454
 30
0.0
  0
SPLINE
  5
1f7
100
AcDbEntity
  8
Ebene_1
 62
7
100
AcDbSpline
 70
8
 71
3
 72
8
 73
4
 74
0
 40
0
 40
0
 40
0
 40
0
 40
1
 40
1
 40
1
 40
1
 10
272.336623
 20
76.635957
 30
0.0
 10
273.403467
 20
76.486595
 30
0.0
 10
274.329537
 20
77.056728
 30
0.0
 10
275.045873
 20
77.810086
 30
0.0
  0
SPLINE
  5
1f8
100
AcDbEntity
  8
Ebene_1
 62
7
100
AcDbSpline
 70
8
 71
3
 72
8
 73
4
 74
0
 40
0
 40
0
 40
0
 40
0
 40
1
 40
1
 40
1
 40
1
 10
275.045873
 20
77.810086
 30
0.0
 10
275.783883
 20
78.586252
 30
0.0
 10
276.171252
 20
79.588006
 30
0.0
 10
276.171252
 20
80.714795
 30
0.0
  0
LWPOLYLINE
  5
1f9
100
AcDbEntity
  8
Ebene_1
 62
7
100
AcDbPolyline
 90
12
 70
0
 10
270.714479
 20
81.175852
 30
0.0
 10
255.197598
 20
81.175852
 30
0.0
 10
255.197598
 20
69.387744
 30
0.0
 10
255.624410
 20
69.387744
 30
0.0
 10
259.405677
 20
69.387744
 30
0.0
 10
259.405677
 20
76.632409
 30
0.0
 10
263.830498
 20
76.632409
 30
0.0
 10
270.537757
 20
69.387744
 30
0.0
 10
276.774857
 20
69.387744
 30
0.0
 10
270.067598
 20
76.632409
 30
0.0
 10
272.391715
 20
76.632409
 30
0.0
 10
272.336623
 20
76.635957
 30
0.0
  0
LWPOLYLINE
  5
1fa
100
AcDbEntity
  8
Ebene_1
 62
7
100
AcDbPolyline
 90
3
 70
0
 10
276.171252
 20
80.714795
 30
0.0
 10
276.171252
 20
88.420463
 30
0.0
 10
255.197279
 20
88.420472
 30
0.0
  0
LWPOLYLINE
  5
1fb
100
AcDbEntity
  8
Ebene_1
 62
7
100
AcDbPolyline
 90
9
 70
1
 10
294.010334
 20
88.420472
 30
0.0
 10
285.200694
 20
78.904991
 30
0.0
 10
294.010334
 20
69.387700
 30
0.0
 10
294.187056
 20
69.387700
 30
0.0
 10
300.247434
 20
69.387700
 30
0.0
 10
291.434468
 20
78.906792
 30
0.0
 10
292.663210
 20
80.253801
 30
0.0
 10
292.686542
 20
80.253801
 30
0.0
 10
300.247417
 20
88.420472
 30
0.0
  0
LWPOLYLINE
  5
1fc
100
AcDbEntity
  8
Ebene_1
 62
7
100
AcDbPolyline
 90
5
 70
1
 10
278.670166
 20
88.420472
 30
0.0
 10
278.670166
 20
69.387700
 30
0.0
 10
279.096978
 20
69.387700
 30
0.0
 10
282.876586
 20
69.387700
 30
0.0
 10
282.876586
 20
88.420472
 30
0.0
  0
LWPOLYLINE
  5
1fd
100
AcDbEntity
  8
Ebene_1
 62
7
100
AcDbPolyline
 90
5
 70
1
 10
302.143063
 20
88.420472
 30
0.0
 10
302.143063
 20
69.387700
 30
0.0
 10
302.569875
 20
69.387700
 30
0.0
 10
306.349474
 20
69.387700
 30
0.0
 10
306.349474
 20
88.420472
 30
0.0
  0
LWPOLYLINE
  5
1fe
100
AcDbEntity
  8
Ebene_1
 62
7
100
AcDbPolyline
 90
12
 70
1
 10
308.245120
 20
88.420472
 30
0.0
 10
312.201450
 20
84.145350
 30
0.0
 10
312.201450
 20
69.387700
 30
0.0
 10
312.628261
 20
69.387700
 30
0.0
 10
316.409532
 20
69.387700
 30
0.0
 10
316.409532
 20
79.601907
 30
0.0
 10
325.864380
 20
69.387700
 30
0.0
 10
329.822378
 20
69.387700
 30
0.0
 10
329.822378
 20
88.420472
 30
0.0
 10
325.614295
 20
88.420472
 30
0.0
 10
325.614295
 20
76.394659
 30
0.0
 10
314.482217
 20
88.420472
 30
0.0
  0
SPLINE
  5
1ff
100
AcDbEntity
  8
Ebene_1
 62
7
100
AcDbSpline
 70
8
 71
3
 72
8
 73
4
 74
0
 40
0
 40
0
 40
0
 40
0
 40
1
 40
1
 40
1
 40
1
 10
349.514003
 20
83.875219
 30
0.0
 10
350.523391
 20
83.875219
 30
0.0
 10
351.436526
 20
84.281689
 30
0.0
 10
352.169896
 20
85.052958
 30
0.0
  0
SPLINE
  5
200
100
AcDbEntity
  8
Ebene_1
 62
7
100
AcDbSpline
 70
8
 71
3
 72
8
 73
4
 74
0
 40
0
 40
0
 40
0
 40
0
 40
1
 40
1
 40
1
 40
1
 10
352.169896
 20
85.052958
 30
0.0
 10
352.907905
 20
85.829125
 30
0.0
 10
353.293608
 20
86.832679
 30
0.0
 10
353.293608
 20
87.959469
 30
0.0
  0
LWPOLYLINE
  5
201
100
AcDbEntity
  8
Ebene_1
 62
7
100
AcDbPolyline
 90
4
 70
0
 10
332.321552
 20
88.420472
 30
0.0
 10
332.321552
 20
83.875219
 30
0.0
 10
332.748362
 20
83.875219
 30
0.0
 10
349.514003
 20
83.875219
 30
0.0
  0
LWPOLYLINE
  5
202
100
AcDbEntity
  8
Ebene_1
 62
7
100
AcDbPolyline
 90
3
 70
0
 10
353.293608
 20
87.959469
 30
0.0
 10
353.293608
 20
88.420472
 30
0.0
 10
332.321552
 20
88.420472
 30
0.0
  0
LWPOLYLINE
  5
203
100
AcDbEntity
  8
Ebene_1
 62
7
100
AcDbPolyline
 90
9
 70
1
 10
235.078837
 20
54.983023
 30
0.0
 10
235.078837
 20
43.194907
 30
0.0
 10
235.505649
 20
43.194907
 30
0.0
 10
256.050894
 20
43.194907
 30
0.0
 10
256.050894
 20
54.983023
 30
0.0
 10
251.844474
 20
54.983023
 30
0.0
 10
251.844474
 20
47.740160
 30
0.0
 10
239.285248
 20
47.740160
 30
0.0
 10
239.285248
 20
54.983023
 30
0.0
  0
SPLINE
  5
204
100
AcDbEntity
  8
Ebene_1
 62
7
100
AcDbSpline
 70
8
 71
3
 72
8
 73
4
 74
0
 40
0
 40
0
 40
0
 40
0
 40
1
 40
1
 40
1
 40
1
 10
235.078837
 20
61.764875
 30
0.0
 10
235.078837
 20
60.657807
 30
0.0
 10
235.453830
 20
59.662743
 30
0.0
 10
236.169200
 20
58.869170
 30
0.0
  0
LWPOLYLINE
  5
205
100
AcDbEntity
  8
Ebene_1
 62
7
100
AcDbPolyline
 90
2
 70
0
 10
235.078837
 20
62.225878
 30
0.0
 10
235.078837
 20
61.764875
 30
0.0
  0
SPLINE
  5
206
100
AcDbEntity
  8
Ebene_1
 62
7
100
AcDbSpline
 70
8
 71
3
 72
8
 73
4
 74
0
 40
0
 40
0
 40
0
 40
0
 40
1
 40
1
 40
1
 40
1
 10
236.172748
 20
58.865621
 30
0.0
 10
236.892350
 20
58.088373
 30
0.0
 10
237.818091
 20
57.682489
 30
0.0
 10
238.858649
 20
57.682489
 30
0.0
  0
LWPOLYLINE
  5
207
100
AcDbEntity
  8
Ebene_1
 62
7
100
AcDbPolyline
 90
3
 70
0
 10
236.169200
 20
58.869170
 30
0.0
 10
236.170974
 20
58.867396
 30
0.0
 10
236.172748
 20
58.865621
 30
0.0
  0
SPLINE
  5
208
100
AcDbEntity
  8
Ebene_1
 62
7
100
AcDbSpline
 70
8
 71
3
 72
8
 73
4
 74
0
 40
0
 40
0
 40
0
 40
0
 40
1
 40
1
 40
1
 40
1
 10
252.271499
 20
57.682489
 30
0.0
 10
253.280882
 20
57.682489
 30
0.0
 10
254.194017
 20
58.088932
 30
0.0
 10
254.927387
 20
58.860228
 30
0.0
  0
SPLINE
  5
209
100
AcDbEntity
  8
Ebene_1
 62
7
100
AcDbSpline
 70
8
 71
3
 72
8
 73
4
 74
0
 40
0
 40
0
 40
0
 40
0
 40
1
 40
1
 40
1
 40
1
 10
254.927387
 20
58.860228
 30
0.0
 10
255.665397
 20
59.636376
 30
0.0
 10
256.051107
 20
60.638147
 30
0.0
 10
256.051107
 20
61.764937
 30
0.0
  0
LWPOLYLINE
  5
20a
100
AcDbEntity
  8
Ebene_1
 62
7
100
AcDbPolyline
 90
2
 70
0
 10
238.858649
 20
57.682489
 30
0.0
 10
252.271499
 20
57.682489
 30
0.0
  0
LWPOLYLINE
  5
20b
100
AcDbEntity
  8
Ebene_1
 62
7
100
AcDbPolyline
 90
3
 70
0
 10
256.051107
 20
61.764937
 30
0.0
 10
256.051107
 20
62.225940
 30
0.0
 10
235.078837
 20
62.225878
 30
0.0
  0
LWPOLYLINE
  5
20c
100
AcDbEntity
  8
Ebene_1
 62
7
100
AcDbPolyline
 90
12
 70
1
 10
257.948199
 20
62.225878
 30
0.0
 10
261.904529
 20
57.952557
 30
0.0
 10
261.904529
 20
43.194907
 30
0.0
 10
262.331341
 20
43.194907
 30
0.0
 10
266.110940
 20
43.194907
 30
0.0
 10
266.110940
 20
53.409115
 30
0.0
 10
275.567461
 20
43.194907
 30
0.0
 10
279.523790
 20
43.194907
 30
0.0
 10
279.523790
 20
62.225878
 30
0.0
 10
275.317379
 20
62.225878
 30
0.0
 10
275.317379
 20
50.201866
 30
0.0
 10
264.185290
 20
62.225878
 30
0.0
  0
SPLINE
  5
20d
100
AcDbEntity
  8
Ebene_1
 62
7
100
AcDbSpline
 70
8
 71
3
 72
8
 73
4
 74
0
 40
0
 40
0
 40
0
 40
0
 40
1
 40
1
 40
1
 40
1
 10
299.217088
 20
43.194907
 30
0.0
 10
300.226462
 20
43.194907
 30
0.0
 10
301.137938
 20
43.601359
 30
0.0
 10
301.871308
 20
44.372646
 30
0.0
  0
SPLINE
  5
20e
100
AcDbEntity
  8
Ebene_1
 62
7
100
AcDbSpline
 70
8
 71
3
 72
8
 73
4
 74
0
 40
0
 40
0
 40
0
 40
0
 40
1
 40
1
 40
1
 40
1
 10
301.871308
 20
44.372646
 30
0.0
 10
302.609309
 20
45.148804
 30
0.0
 10
302.996687
 20
46.152367
 30
0.0
 10
302.996687
 20
47.279148
 30
0.0
  0
LWPOLYLINE
  5
20f
100
AcDbEntity
  8
Ebene_1
 62
7
100
AcDbPolyline
 90
4
 70
0
 10
282.022962
 20
62.225878
 30
0.0
 10
282.022962
 20
43.194907
 30
0.0
 10
282.449774
 20
43.194907
 30
0.0
 10
299.217088
 20
43.194907
 30
0.0
  0
LWPOLYLINE
  5
210
100
AcDbEntity
  8
Ebene_1
 62
7
100
AcDbPolyline
 90
5
 70
0
 10
302.996687
 20
47.279148
 30
0.0
 10
302.996687
 20
47.740160
 30
0.0
 10
286.231050
 20
47.740160
 30
0.0
 10
286.231050
 20
62.225878
 30
0.0
 10
282.022962
 20
62.225878
 30
0.0
  0
SPLINE
  5
211
100
AcDbEntity
  8
Ebene_1
 62
7
100
AcDbSpline
 70
8
 71
3
 72
8
 73
4
 74
0
 40
0
 40
0
 40
0
 40
0
 40
1
 40
1
 40
1
 40
1
 10
280.694980
 20
97.094030
 30
0.0
 10
280.502959
 20
98.106740
 30
0.0
 10
263.980085
 20
190.353220
 30
0.0
 10
263.980085
 20
190.412550
 30
0.0
  0
SPLINE
  5
212
100
AcDbEntity
  8
Ebene_1
 62
7
100
AcDbSpline
 70
8
 71
3
 72
8
 73
4
 74
0
 40
0
 40
0
 40
0
 40
0
 40
1
 40
1
 40
1
 40
1
 10
263.980085
 20
190.412550
 30
0.0
 10
263.980085
 20
190.496750
 30
0.0
 10
259.099937
 20
190.373450
 30
0.0
 10
256.646933
 20
190.227120
 30
0.0
  0
SPLINE
  5
213
100
AcDbEntity
  8
Ebene_1
 62
7
100
AcDbSpline
 70
8
 71
3
 72
8
 73
4
 74
0
 40
0
 40
0
 40
0
 40
0
 40
1
 40
1
 40
1
 40
1
 10
256.646933
 20
190.227120
 30
0.0
 10
249.346933
 20
189.791780
 30
0.0
 10
245.592341
 20
188.513420
 30
0.0
 10
243.777648
 20
185.845390
 30
0.0
  0
SPLINE
  5
214
100
AcDbEntity
  8
Ebene_1
 62
7
100
AcDbSpline
 70
8
 71
3
 72
8
 73
4
 74
0
 40
0
 40
0
 40
0
 40
0
 40
1
 40
1
 40
1
 40
1
 10
243.777648
 20
185.845390
 30
0.0
 10
243.108579
 20
184.861710
 30
0.0
 10
242.829266
 20
184.160310
 30
0.0
 10
242.537249
 20
182.731000
 30
0.0
  0
SPLINE
  5
215
100
AcDbEntity
  8
Ebene_1
 62
7
100
AcDbSpline
 70
8
 71
3
 72
8
 73
4
 74
0
 40
0
 40
0
 40
0
 40
0
 40
1
 40
1
 40
1
 40
1
 10
242.537249
 20
182.731000
 30
0.0
 10
242.418618
 20
182.150240
 30
0.0
 10
242.299907
 20
181.653450
 30
0.0
 10
242.273469
 20
181.627010
 30
0.0
  0
SPLINE
  5
216
100
AcDbEntity
  8
Ebene_1
 62
7
100
AcDbSpline
 70
8
 71
3
 72
8
 73
4
 74
0
 40
0
 40
0
 40
0
 40
0
 40
1
 40
1
 40
1
 40
1
 10
242.273469
 20
181.627010
 30
0.0
 10
242.184609
 20
181.538110
 30
0.0
 10
239.150873
 20
182.979630
 30
0.0
 10
237.630885
 20
183.832980
 30
0.0
  0
SPLINE
  5
217
100
AcDbEntity
  8
Ebene_1
 62
7
100
AcDbSpline
 70
8
 71
3
 72
8
 73
4
 74
0
 40
0
 40
0
 40
0
 40
0
 40
1
 40
1
 40
1
 40
1
 10
237.630885
 20
183.832980
 30
0.0
 10
233.084557
 20
186.385370
 30
0.0
 10
229.515329
 20
189.340630
 30
0.0
 10
227.087263
 20
192.562920
 30
0.0
  0
SPLINE
  5
218
100
AcDbEntity
  8
Ebene_1
 62
7
100
AcDbSpline
 70
8
 71
3
 72
8
 73
4
 74
0
 40
0
 40
0
 40
0
 40
0
 40
1
 40
1
 40
1
 40
1
 10
227.087263
 20
192.562920
 30
0.0
 10
226.730545
 20
193.036320
 30
0.0
 10
226.438696
 20
193.462400
 30
0.0
 10
226.438696
 20
193.509750
 30
0.0
  0
SPLINE
  5
219
100
AcDbEntity
  8
Ebene_1
 62
7
100
AcDbSpline
 70
8
 71
3
 72
8
 73
4
 74
0
 40
0
 40
0
 40
0
 40
0
 40
1
 40
1
 40
1
 40
1
 10
226.438696
 20
193.509750
 30
0.0
 10
226.438696
 20
193.557150
 30
0.0
 10
226.623393
 20
193.672310
 30
0.0
 10
226.849123
 20
193.765730
 30
0.0
  0
SPLINE
  5
21a
100
AcDbEntity
  8
Ebene_1
 62
7
100
AcDbSpline
 70
8
 71
3
 72
8
 73
4
 74
0
 40
0
 40
0
 40
0
 40
0
 40
1
 40
1
 40
1
 40
1
 10
226.849123
 20
193.765730
 30
0.0
 10
227.074860
 20
193.859130
 30
0.0
 10
228.047612
 20
194.278410
 30
0.0
 10
229.010766
 20
194.697430
 30
0.0
  0
SPLINE
  5
21b
100
AcDbEntity
  8
Ebene_1
 62
7
100
AcDbSpline
 70
8
 71
3
 72
8
 73
4
 74
0
 40
0
 40
0
 40
0
 40
0
 40
1
 40
1
 40
1
 40
1
 10
229.010766
 20
194.697430
 30
0.0
 10
240.046158
 20
199.498299
 30
0.0
 10
254.390523
 20
202.854019
 30
0.0
 10
267.263586
 20
203.646287
 30
0.0
  0
LWPOLYLINE
  5
21c
100
AcDbEntity
  8
Ebene_1
 62
7
100
AcDbPolyline
 90
14
 70
1
 10
305.495858
 20
62.225878
 30
0.0
 10
305.495858
 20
57.952557
 30
0.0
 10
313.878681
 20
48.898080
 30
0.0
 10
313.878681
 20
43.194907
 30
0.0
 10
314.305492
 20
43.194907
 30
0.0
 10
318.085096
 20
43.194907
 30
0.0
 10
318.085096
 20
48.898080
 30
0.0
 10
326.467916
 20
57.952557
 30
0.0
 10
326.467916
 20
62.225878
 30
0.0
 10
322.261502
 20
62.225878
 30
0.0
 10
322.261502
 20
60.145943
 30
0.0
 10
315.982722
 20
53.362290
 30
0.0
 10
309.702276
 20
60.145943
 30
0.0
 10
309.702276
 20
62.225878
 30
0.0
  0
SPLINE
  5
21d
100
AcDbEntity
  8
Ebene_1
 62
7
100
AcDbSpline
 70
8
 71
3
 72
8
 73
4
 74
0
 40
0
 40
0
 40
0
 40
0
 40
1
 40
1
 40
1
 40
1
 10
274.581317
 20
196.200460
 30
0.0
 10
277.973990
 20
192.066350
 30
0.0
 10
280.787370
 20
188.725310
 30
0.0
 10
280.833230
 20
188.775930
 30
0.0
  0
SPLINE
  5
21e
100
AcDbEntity
  8
Ebene_1
 62
7
100
AcDbSpline
 70
8
 71
3
 72
8
 73
4
 74
0
 40
0
 40
0
 40
0
 40
0
 40
1
 40
1
 40
1
 40
1
 10
280.833230
 20
188.775930
 30
0.0
 10
280.879030
 20
188.826430
 30
0.0
 10
283.632680
 20
192.177800
 30
0.0
 10
286.952260
 20
196.223140
 30
0.0
  0
SPLINE
  5
21f
100
AcDbEntity
  8
Ebene_1
 62
7
100
AcDbSpline
 70
8
 71
3
 72
8
 73
4
 74
0
 40
0
 40
0
 40
0
 40
0
 40
1
 40
1
 40
1
 40
1
 10
286.952260
 20
196.223140
 30
0.0
 10
290.271860
 20
200.268469
 30
0.0
 10
293.038600
 20
203.609629
 30
0.0
 10
293.100550
 20
203.647933
 30
0.0
  0
SPLINE
  5
220
100
AcDbEntity
  8
Ebene_1
 62
7
100
AcDbSpline
 70
8
 71
3
 72
8
 73
4
 74
0
 40
0
 40
0
 40
0
 40
0
 40
1
 40
1
 40
1
 40
1
 10
293.100550
 20
203.647933
 30
0.0
 10
293.229830
 20
203.727823
 30
0.0
 10
295.990610
 20
203.549763
 30
0.0
 10
298.402140
 20
203.306000
 30
0.0
  0
SPLINE
  5
221
100
AcDbEntity
  8
Ebene_1
 62
7
100
AcDbSpline
 70
8
 71
3
 72
8
 73
4
 74
0
 40
0
 40
0
 40
0
 40
0
 40
1
 40
1
 40
1
 40
1
 10
298.402140
 20
203.306000
 30
0.0
 10
308.571940
 20
202.278007
 30
0.0
 10
318.785930
 20
199.924719
 30
0.0
 10
328.063120
 20
196.472130
 30
0.0
  0
SPLINE
  5
222
100
AcDbEntity
  8
Ebene_1
 62
7
100
AcDbSpline
 70
8
 71
3
 72
8
 73
4
 74
0
 40
0
 40
0
 40
0
 40
0
 40
1
 40
1
 40
1
 40
1
 10
328.063120
 20
196.472130
 30
0.0
 10
330.252580
 20
195.657300
 30
0.0
 10
333.774440
 20
194.202970
 30
0.0
 10
334.692960
 20
193.734380
 30
0.0
  0
LWPOLYLINE
  5
223
100
AcDbEntity
  8
Ebene_1
 62
7
100
AcDbPolyline
 90
3
 70
0
 10
267.263586
 20
203.646287
 30
0.0
 10
268.412803
 20
203.717017
 30
0.0
 10
274.581317
 20
196.200460
 30
0.0
  0
SPLINE
  5
224
100
AcDbEntity
  8
Ebene_1
 62
7
100
AcDbSpline
 70
8
 71
3
 72
8
 73
4
 74
0
 40
0
 40
0
 40
0
 40
0
 40
1
 40
1
 40
1
 40
1
 10
334.568560
 20
192.754440
 30
0.0
 10
332.417460
 20
189.796950
 30
0.0
 10
329.045200
 20
186.890570
 30
0.0
 10
324.869000
 20
184.394870
 30
0.0
  0
SPLINE
  5
225
100
AcDbEntity
  8
Ebene_1
 62
7
100
AcDbSpline
 70
8
 71
3
 72
8
 73
4
 74
0
 40
0
 40
0
 40
0
 40
0
 40
1
 40
1
 40
1
 40
1
 10
324.869000
 20
184.394870
 30
0.0
 10
323.720460
 20
183.708500
 30
0.0
 10
319.918410
 20
181.800200
 30
0.0
 10
319.400010
 20
181.649890
 30
0.0
  0
SPLINE
  5
226
100
AcDbEntity
  8
Ebene_1
 62
7
100
AcDbSpline
 70
8
 71
3
 72
8
 73
4
 74
0
 40
0
 40
0
 40
0
 40
0
 40
1
 40
1
 40
1
 40
1
 10
319.400010
 20
181.649890
 30
0.0
 10
319.186080
 20
181.587790
 30
0.0
 10
319.157400
 20
181.634390
 30
0.0
 10
319.086230
 20
182.160190
 30
0.0
  0
SPLINE
  5
227
100
AcDbEntity
  8
Ebene_1
 62
7
100
AcDbSpline
 70
8
 71
3
 72
8
 73
4
 74
0
 40
0
 40
0
 40
0
 40
0
 40
1
 40
1
 40
1
 40
1
 10
319.086230
 20
182.160190
 30
0.0
 10
319.043130
 20
182.478400
 30
0.0
 10
318.887550
 20
183.156080
 30
0.0
 10
318.740460
 20
183.666140
 30
0.0
  0
SPLINE
  5
228
100
AcDbEntity
  8
Ebene_1
 62
7
100
AcDbSpline
 70
8
 71
3
 72
8
 73
4
 74
0
 40
0
 40
0
 40
0
 40
0
 40
1
 40
1
 40
1
 40
1
 10
318.740460
 20
183.666140
 30
0.0
 10
317.582190
 20
187.682780
 30
0.0
 10
314.159910
 20
189.466350
 30
0.0
 10
306.337280
 20
190.130190
 30
0.0
  0
SPLINE
  5
229
100
AcDbEntity
  8
Ebene_1
 62
7
100
AcDbSpline
 70
8
 71
3
 72
8
 73
4
 74
0
 40
0
 40
0
 40
0
 40
0
 40
1
 40
1
 40
1
 40
1
 10
306.337280
 20
190.130190
 30
0.0
 10
304.633980
 20
190.274730
 30
0.0
 10
297.550080
 20
190.460230
 30
0.0
 10
297.461080
 20
190.362620
 30
0.0
  0
SPLINE
  5
22a
100
AcDbEntity
  8
Ebene_1
 62
7
100
AcDbSpline
 70
8
 71
3
 72
8
 73
4
 74
0
 40
0
 40
0
 40
0
 40
0
 40
1
 40
1
 40
1
 40
1
 10
297.461080
 20
190.362620
 30
0.0
 10
297.415580
 20
190.312720
 30
0.0
 10
283.740390
 20
113.599150
 30
0.0
 10
280.854320
 20
97.203470
 30
0.0
  0
LWPOLYLINE
  5
22b
100
AcDbEntity
  8
Ebene_1
 62
7
100
AcDbPolyline
 90
3
 70
0
 10
334.692960
 20
193.734380
 30
0.0
 10
335.122070
 20
193.515460
 30
0.0
 10
334.568560
 20
192.754440
 30
0.0
  0
SPLINE
  5
22c
100
AcDbEntity
  8
Ebene_1
 62
7
100
AcDbSpline
 70
8
 71
3
 72
8
 73
4
 74
0
 40
0
 40
0
 40
0
 40
0
 40
1
 40
1
 40
1
 40
1
 10
335.122660
 20
197.648189
 30
0.0
 10
322.050620
 20
203.161249
 30
0.0
 10
307.199240
 20
206.669402
 30
0.0
 10
292.382390
 20
207.744162
 30
0.0
  0
SPLINE
  5
22d
100
AcDbEntity
  8
Ebene_1
 62
7
100
AcDbSpline
 70
8
 71
3
 72
8
 73
4
 74
0
 40
0
 40
0
 40
0
 40
0
 40
1
 40
1
 40
1
 40
1
 10
292.382390
 20
207.744162
 30
0.0
 10
287.622060
 20
208.089457
 30
0.0
 10
277.732487
 20
208.202534
 30
0.0
 10
272.943667
 20
207.966420
 30
0.0
  0
SPLINE
  5
22e
100
AcDbEntity
  8
Ebene_1
 62
7
100
AcDbSpline
 70
8
 71
3
 72
8
 73
4
 74
0
 40
0
 40
0
 40
0
 40
0
 40
1
 40
1
 40
1
 40
1
 10
272.943667
 20
207.966420
 30
0.0
 10
256.348226
 20
207.148176
 30
0.0
 10
241.080107
 20
203.766126
 30
0.0
 10
226.406554
 20
197.657969
 30
0.0
  0
SPLINE
  5
22f
100
AcDbEntity
  8
Ebene_1
 62
7
100
AcDbSpline
 70
8
 71
3
 72
8
 73
4
 74
0
 40
0
 40
0
 40
0
 40
0
 40
1
 40
1
 40
1
 40
1
 10
226.406554
 20
197.657969
 30
0.0
 10
225.395601
 20
197.237139
 30
0.0
 10
224.505532
 20
196.916989
 30
0.0
 10
224.428605
 20
196.946499
 30
0.0
  0
SPLINE
  5
230
100
AcDbEntity
  8
Ebene_1
 62
7
100
AcDbSpline
 70
8
 71
3
 72
8
 73
4
 74
0
 40
0
 40
0
 40
0
 40
0
 40
1
 40
1
 40
1
 40
1
 10
224.428605
 20
196.946499
 30
0.0
 10
224.351695
 20
196.976099
 30
0.0
 10
223.718746
 20
198.150209
 30
0.0
 10
223.022112
 20
199.555819
 30
0.0
  0
SPLINE
  5
231
100
AcDbEntity
  8
Ebene_1
 62
7
100
AcDbSpline
 70
8
 71
3
 72
8
 73
4
 74
0
 40
0
 40
0
 40
0
 40
0
 40
1
 40
1
 40
1
 40
1
 10
223.022112
 20
199.555819
 30
0.0
 10
221.718733
 20
202.185644
 30
0.0
 10
221.111331
 20
203.551775
 30
0.0
 10
221.204181
 20
203.644620
 30
0.0
  0
SPLINE
  5
232
100
AcDbEntity
  8
Ebene_1
 62
7
100
AcDbSpline
 70
8
 71
3
 72
8
 73
4
 74
0
 40
0
 40
0
 40
0
 40
0
 40
1
 40
1
 40
1
 40
1
 10
221.204181
 20
203.644620
 30
0.0
 10
221.299191
 20
203.739580
 30
0.0
 10
225.125957
 20
205.185299
 30
0.0
 10
227.369015
 20
205.973610
 30
0.0
  0
SPLINE
  5
233
100
AcDbEntity
  8
Ebene_1
 62
7
100
AcDbSpline
 70
8
 71
3
 72
8
 73
4
 74
0
 40
0
 40
0
 40
0
 40
0
 40
1
 40
1
 40
1
 40
1
 10
227.369015
 20
205.973610
 30
0.0
 10
248.396901
 20
213.363767
 30
0.0
 10
270.854115
 20
216.426254
 30
0.0
 10
292.108770
 20
214.802156
 30
0.0
  0
SPLINE
  5
234
100
AcDbEntity
  8
Ebene_1
 62
7
100
AcDbSpline
 70
8
 71
3
 72
8
 73
4
 74
0
 40
0
 40
0
 40
0
 40
0
 40
1
 40
1
 40
1
 40
1
 10
292.108770
 20
214.802156
 30
0.0
 10
308.005960
 20
213.587425
 30
0.0
 10
322.988310
 20
210.234085
 30
0.0
 10
338.239330
 20
204.477233
 30
0.0
  0
SPLINE
  5
235
100
AcDbEntity
  8
Ebene_1
 62
7
100
AcDbSpline
 70
8
 71
3
 72
8
 73
4
 74
0
 40
0
 40
0
 40
0
 40
0
 40
1
 40
1
 40
1
 40
1
 10
338.239330
 20
204.477233
 30
0.0
 10
339.374810
 20
204.048620
 30
0.0
 10
340.323360
 20
203.678424
 30
0.0
 10
340.347200
 20
203.654574
 30
0.0
  0
SPLINE
  5
236
100
AcDbEntity
  8
Ebene_1
 62
7
100
AcDbSpline
 70
8
 71
3
 72
8
 73
4
 74
0
 40
0
 40
0
 40
0
 40
0
 40
1
 40
1
 40
1
 40
1
 10
340.347200
 20
203.654574
 30
0.0
 10
340.471870
 20
203.529911
 30
0.0
 10
337.422390
 20
197.163969
 30
0.0
 10
337.113410
 20
196.903849
 30
0.0
  0
SPLINE
  5
237
100
AcDbEntity
  8
Ebene_1
 62
7
100
AcDbSpline
 70
8
 71
3
 72
8
 73
4
 74
0
 40
0
 40
0
 40
0
 40
0
 40
1
 40
1
 40
1
 40
1
 10
337.113410
 20
196.903849
 30
0.0
 10
337.072010
 20
196.868949
 30
0.0
 10
336.176100
 20
197.203899
 30
0.0
 10
335.122660
 20
197.648189
 30
0.0
  0
LWPOLYLINE
  5
238
100
AcDbEntity
  8
Ebene_1
 62
7
100
AcDbPolyline
 90
3
 70
0
 10
280.854320
 20
97.203470
 30
0.0
 10
280.767620
 20
96.710940
 30
0.0
 10
280.694980
 20
97.094030
 30
0.0
  0
LWPOLYLINE
  5
239
100
AcDbEntity
  8
Ebene_1
 62
7
100
AcDbPolyline
 90
1
 70
1
 10
335.122660
 20
197.648189
 30
0.0
  0
LWPOLYLINE
  5
23a
100
AcDbEntity
  8
Ebene_1
 62
7
100
AcDbPolyline
 90
9
 70
1
 10
328.005082
 20
236.972707
 30
0.0
 10
328.005082
 20
224.680703
 30
0.0
 10
328.448662
 20
224.680703
 30
0.0
 10
332.693851
 20
224.680703
 30
0.0
 10
332.693851
 20
232.283933
 30
0.0
 10
347.013156
 20
232.283933
 30
0.0
 10
347.013156
 20
224.680703
 30
0.0
 10
351.701933
 20
224.680703
 30
0.0
 10
351.701933
 20
236.972707
 30
0.0
  0
SPLINE
  5
23b
100
AcDbEntity
  8
Ebene_1
 62
7
100
AcDbSpline
 70
8
 71
3
 72
8
 73
4
 74
0
 40
0
 40
0
 40
0
 40
0
 40
1
 40
1
 40
1
 40
1
 10
328.005082
 20
244.132357
 30
0.0
 10
328.005082
 20
242.979717
 30
0.0
 10
328.423875
 20
241.947132
 30
0.0
 10
329.228395
 20
241.120868
 30
0.0
  0
LWPOLYLINE
  5
23c
100
AcDbEntity
  8
Ebene_1
 62
7
100
AcDbPolyline
 90
2
 70
0
 10
328.005082
 20
244.575937
 30
0.0
 10
328.005082
 20
244.132357
 30
0.0
  0
SPLINE
  5
23d
100
AcDbEntity
  8
Ebene_1
 62
7
100
AcDbSpline
 70
8
 71
3
 72
8
 73
4
 74
0
 40
0
 40
0
 40
0
 40
0
 40
1
 40
1
 40
1
 40
1
 10
329.233718
 20
241.117320
 30
0.0
 10
330.042629
 20
240.308413
 30
0.0
 10
331.079878
 20
239.887080
 30
0.0
 10
332.250404
 20
239.887080
 30
0.0
  0
LWPOLYLINE
  5
23e
100
AcDbEntity
  8
Ebene_1
 62
7
100
AcDbPolyline
 90
3
 70
0
 10
329.228395
 20
241.120868
 30
0.0
 10
329.231944
 20
241.119094
 30
0.0
 10
329.233718
 20
241.117320
 30
0.0
  0
SPLINE
  5
23f
100
AcDbEntity
  8
Ebene_1
 62
7
100
AcDbSpline
 70
8
 71
3
 72
8
 73
4
 74
0
 40
0
 40
0
 40
0
 40
0
 40
1
 40
1
 40
1
 40
1
 10
347.456869
 20
239.887080
 30
0.0
 10
348.591696
 20
239.887080
 30
0.0
 10
349.614031
 20
240.308958
 30
0.0
 10
350.438903
 20
241.112121
 30
0.0
  0
SPLINE
  5
240
100
AcDbEntity
  8
Ebene_1
 62
7
100
AcDbSpline
 70
8
 71
3
 72
8
 73
4
 74
0
 40
0
 40
0
 40
0
 40
0
 40
1
 40
1
 40
1
 40
1
 10
350.438903
 20
241.112121
 30
0.0
 10
351.268592
 20
241.919979
 30
0.0
 10
351.702066
 20
242.959007
 30
0.0
 10
351.702066
 20
244.132274
 30
0.0
  0
LWPOLYLINE
  5
241
100
AcDbEntity
  8
Ebene_1
 62
7
100
AcDbPolyline
 90
2
 70
0
 10
332.250404
 20
239.887080
 30
0.0
 10
347.456869
 20
239.887080
 30
0.0
  0
LWPOLYLINE
  5
242
100
AcDbEntity
  8
Ebene_1
 62
7
100
AcDbPolyline
 90
3
 70
0
 10
351.702066
 20
244.132274
 30
0.0
 10
351.702066
 20
244.575853
 30
0.0
 10
328.005082
 20
244.575937
 30
0.0
  0
SPLINE
  5
243
100
AcDbEntity
  8
Ebene_1
 62
7
100
AcDbSpline
 70
8
 71
3
 72
8
 73
4
 74
0
 40
0
 40
0
 40
0
 40
0
 40
1
 40
1
 40
1
 40
1
 10
209.843124
 20
244.132357
 30
0.0
 10
209.843124
 20
242.979717
 30
0.0
 10
210.263647
 20
241.947132
 30
0.0
 10
211.068167
 20
241.120868
 30
0.0
  0
LWPOLYLINE
  5
244
100
AcDbEntity
  8
Ebene_1
 62
7
100
AcDbPolyline
 90
2
 70
0
 10
209.843124
 20
244.575937
 30
0.0
 10
209.843124
 20
244.132357
 30
0.0
  0
SPLINE
  5
245
100
AcDbEntity
  8
Ebene_1
 62
7
100
AcDbSpline
 70
8
 71
3
 72
8
 73
4
 74
0
 40
0
 40
0
 40
0
 40
0
 40
1
 40
1
 40
1
 40
1
 10
211.071715
 20
241.117320
 30
0.0
 10
211.880627
 20
240.308412
 30
0.0
 10
212.917876
 20
239.887080
 30
0.0
 10
214.088402
 20
239.887080
 30
0.0
  0
LWPOLYLINE
  5
246
100
AcDbEntity
  8
Ebene_1
 62
7
100
AcDbPolyline
 90
3
 70
0
 10
211.068167
 20
241.120868
 30
0.0
 10
211.069941
 20
241.119094
 30
0.0
 10
211.071715
 20
241.117320
 30
0.0
  0
SPLINE
  5
247
100
AcDbEntity
  8
Ebene_1
 62
7
100
AcDbSpline
 70
8
 71
3
 72
8
 73
4
 74
0
 40
0
 40
0
 40
0
 40
0
 40
1
 40
1
 40
1
 40
1
 10
229.294866
 20
239.887163
 30
0.0
 10
230.429693
 20
239.887163
 30
0.0
 10
231.452029
 20
240.309042
 30
0.0
 10
232.276900
 20
241.112204
 30
0.0
  0
SPLINE
  5
248
100
AcDbEntity
  8
Ebene_1
 62
7
100
AcDbSpline
 70
8
 71
3
 72
8
 73
4
 74
0
 40
0
 40
0
 40
0
 40
0
 40
1
 40
1
 40
1
 40
1
 10
232.276900
 20
241.112204
 30
0.0
 10
233.106589
 20
241.920061
 30
0.0
 10
233.540055
 20
242.959089
 30
0.0
 10
233.540055
 20
244.132357
 30
0.0
  0
LWPOLYLINE
  5
249
100
AcDbEntity
  8
Ebene_1
 62
7
100
AcDbPolyline
 90
7
 70
0
 10
214.088402
 20
239.887080
 30
0.0
 10
219.347250
 20
239.887080
 30
0.0
 10
219.347250
 20
224.680703
 30
0.0
 10
219.790829
 20
224.680703
 30
0.0
 10
224.036018
 20
224.680703
 30
0.0
 10
224.036018
 20
239.887163
 30
0.0
 10
229.294866
 20
239.887163
 30
0.0
  0
LWPOLYLINE
  5
24a
100
AcDbEntity
  8
Ebene_1
 62
7
100
AcDbPolyline
 90
3
 70
0
 10
233.540055
 20
244.132357
 30
0.0
 10
233.540055
 20
244.575937
 30
0.0
 10
209.843124
 20
244.575937
 30
0.0
  0
SPLINE
  5
24b
100
AcDbEntity
  8
Ebene_1
 62
7
100
AcDbSpline
 70
8
 71
3
 72
8
 73
4
 74
0
 40
0
 40
0
 40
0
 40
0
 40
1
 40
1
 40
1
 40
1
 10
239.382751
 20
228.925897
 30
0.0
 10
239.382751
 20
227.773257
 30
0.0
 10
239.803273
 20
226.740672
 30
0.0
 10
240.607794
 20
225.914409
 30
0.0
  0
LWPOLYLINE
  5
24c
100
AcDbEntity
  8
Ebene_1
 62
7
100
AcDbPolyline
 90
2
 70
0
 10
239.382751
 20
229.369477
 30
0.0
 10
239.382751
 20
228.925897
 30
0.0
  0
SPLINE
  5
24d
100
AcDbEntity
  8
Ebene_1
 62
7
100
AcDbSpline
 70
8
 71
3
 72
8
 73
4
 74
0
 40
0
 40
0
 40
0
 40
0
 40
1
 40
1
 40
1
 40
1
 10
240.611342
 20
225.909174
 30
0.0
 10
241.420245
 20
225.100266
 30
0.0
 10
242.457493
 20
224.680667
 30
0.0
 10
243.628029
 20
224.680667
 30
0.0
  0
LWPOLYLINE
  5
24e
100
AcDbEntity
  8
Ebene_1
 62
7
100
AcDbPolyline
 90
3
 70
0
 10
240.607794
 20
225.914409
 30
0.0
 10
240.609568
 20
225.912634
 30
0.0
 10
240.611342
 20
225.909174
 30
0.0
  0
SPLINE
  5
24f
100
AcDbEntity
  8
Ebene_1
 62
7
100
AcDbSpline
 70
8
 71
3
 72
8
 73
4
 74
0
 40
0
 40
0
 40
0
 40
0
 40
1
 40
1
 40
1
 40
1
 10
258.834484
 20
224.680667
 30
0.0
 10
259.969311
 20
224.680667
 30
0.0
 10
260.993385
 20
225.102546
 30
0.0
 10
261.818248
 20
225.905708
 30
0.0
  0
SPLINE
  5
250
100
AcDbEntity
  8
Ebene_1
 62
7
100
AcDbSpline
 70
8
 71
3
 72
8
 73
4
 74
0
 40
0
 40
0
 40
0
 40
0
 40
1
 40
1
 40
1
 40
1
 10
261.818248
 20
225.905708
 30
0.0
 10
262.647946
 20
226.713565
 30
0.0
 10
263.079682
 20
227.752593
 30
0.0
 10
263.079682
 20
228.925861
 30
0.0
  0
LWPOLYLINE
  5
251
100
AcDbEntity
  8
Ebene_1
 62
7
100
AcDbPolyline
 90
2
 70
0
 10
243.628029
 20
224.680667
 30
0.0
 10
258.834484
 20
224.680667
 30
0.0
  0
LWPOLYLINE
  5
252
100
AcDbEntity
  8
Ebene_1
 62
7
100
AcDbPolyline
 90
3
 70
0
 10
263.079682
 20
228.925861
 30
0.0
 10
263.079682
 20
229.369441
 30
0.0
 10
239.382751
 20
229.369477
 30
0.0
  0
SPLINE
  5
253
100
AcDbEntity
  8
Ebene_1
 62
7
100
AcDbSpline
 70
8
 71
3
 72
8
 73
4
 74
0
 40
0
 40
0
 40
0
 40
0
 40
1
 40
1
 40
1
 40
1
 10
239.382751
 20
236.529128
 30
0.0
 10
239.382751
 20
235.376486
 30
0.0
 10
239.803273
 20
234.343902
 30
0.0
 10
240.607794
 20
233.517639
 30
0.0
  0
LWPOLYLINE
  5
254
100
AcDbEntity
  8
Ebene_1
 62
7
100
AcDbPolyline
 90
2
 70
0
 10
239.382751
 20
236.972707
 30
0.0
 10
239.382751
 20
236.529128
 30
0.0
  0
SPLINE
  5
255
100
AcDbEntity
  8
Ebene_1
 62
7
100
AcDbSpline
 70
8
 71
3
 72
8
 73
4
 74
0
 40
0
 40
0
 40
0
 40
0
 40
1
 40
1
 40
1
 40
1
 10
240.611342
 20
233.512405
 30
0.0
 10
241.420245
 20
232.703498
 30
0.0
 10
242.457493
 20
232.283897
 30
0.0
 10
243.628029
 20
232.283897
 30
0.0
  0
LWPOLYLINE
  5
256
100
AcDbEntity
  8
Ebene_1
 62
7
100
AcDbPolyline
 90
3
 70
0
 10
240.607794
 20
233.517639
 30
0.0
 10
240.609568
 20
233.515865
 30
0.0
 10
240.611342
 20
233.512405
 30
0.0
  0
SPLINE
  5
257
100
AcDbEntity
  8
Ebene_1
 62
7
100
AcDbSpline
 70
8
 71
3
 72
8
 73
4
 74
0
 40
0
 40
0
 40
0
 40
0
 40
1
 40
1
 40
1
 40
1
 10
258.834484
 20
232.283897
 30
0.0
 10
259.969311
 20
232.283897
 30
0.0
 10
260.993385
 20
232.705776
 30
0.0
 10
261.818248
 20
233.508939
 30
0.0
  0
SPLINE
  5
258
100
AcDbEntity
  8
Ebene_1
 62
7
100
AcDbSpline
 70
8
 71
3
 72
8
 73
4
 74
0
 40
0
 40
0
 40
0
 40
0
 40
1
 40
1
 40
1
 40
1
 10
261.818248
 20
233.508939
 30
0.0
 10
262.647946
 20
234.316796
 30
0.0
 10
263.079682
 20
235.355824
 30
0.0
 10
263.079682
 20
236.529092
 30
0.0
  0
LWPOLYLINE
  5
259
100
AcDbEntity
  8
Ebene_1
 62
7
100
AcDbPolyline
 90
2
 70
0
 10
243.628029
 20
232.283897
 30
0.0
 10
258.834484
 20
232.283897
 30
0.0
  0
LWPOLYLINE
  5
25a
100
AcDbEntity
  8
Ebene_1
 62
7
100
AcDbPolyline
 90
3
 70
0
 10
263.079682
 20
236.529092
 30
0.0
 10
263.079682
 20
236.972672
 30
0.0
 10
239.382751
 20
236.972707
 30
0.0
  0
SPLINE
  5
25b
100
AcDbEntity
  8
Ebene_1
 62
7
100
AcDbSpline
 70
8
 71
3
 72
8
 73
4
 74
0
 40
0
 40
0
 40
0
 40
0
 40
1
 40
1
 40
1
 40
1
 10
239.382751
 20
244.132357
 30
0.0
 10
239.382751
 20
242.979717
 30
0.0
 10
239.803273
 20
241.947132
 30
0.0
 10
240.607794
 20
241.120868
 30
0.0
  0
LWPOLYLINE
  5
25c
100
AcDbEntity
  8
Ebene_1
 62
7
100
AcDbPolyline
 90
2
 70
0
 10
239.382751
 20
244.575937
 30
0.0
 10
239.382751
 20
244.132357
 30
0.0
  0
SPLINE
  5
25d
100
AcDbEntity
  8
Ebene_1
 62
7
100
AcDbSpline
 70
8
 71
3
 72
8
 73
4
 74
0
 40
0
 40
0
 40
0
 40
0
 40
1
 40
1
 40
1
 40
1
 10
240.611342
 20
241.117320
 30
0.0
 10
241.420245
 20
240.308412
 30
0.0
 10
242.457493
 20
239.887080
 30
0.0
 10
243.628029
 20
239.887080
 30
0.0
  0
LWPOLYLINE
  5
25e
100
AcDbEntity
  8
Ebene_1
 62
7
100
AcDbPolyline
 90
3
 70
0
 10
240.607794
 20
241.120868
 30
0.0
 10
240.609568
 20
241.119094
 30
0.0
 10
240.611342
 20
241.117320
 30
0.0
  0
SPLINE
  5
25f
100
AcDbEntity
  8
Ebene_1
 62
7
100
AcDbSpline
 70
8
 71
3
 72
8
 73
4
 74
0
 40
0
 40
0
 40
0
 40
0
 40
1
 40
1
 40
1
 40
1
 10
258.834484
 20
239.887080
 30
0.0
 10
259.969311
 20
239.887080
 30
0.0
 10
260.993385
 20
240.308958
 30
0.0
 10
261.818248
 20
241.112121
 30
0.0
  0
SPLINE
  5
260
100
AcDbEntity
  8
Ebene_1
 62
7
100
AcDbSpline
 70
8
 71
3
 72
8
 73
4
 74
0
 40
0
 40
0
 40
0
 40
0
 40
1
 40
1
 40
1
 40
1
 10
261.818248
 20
241.112121
 30
0.0
 10
262.647946
 20
241.919978
 30
0.0
 10
263.079682
 20
242.959006
 30
0.0
 10
263.079682
 20
244.132274
 30
0.0
  0
LWPOLYLINE
  5
261
100
AcDbEntity
  8
Ebene_1
 62
7
100
AcDbPolyline
 90
2
 70
0
 10
243.628029
 20
239.887080
 30
0.0
 10
258.834484
 20
239.887080
 30
0.0
  0
LWPOLYLINE
  5
262
100
AcDbEntity
  8
Ebene_1
 62
7
100
AcDbPolyline
 90
3
 70
0
 10
263.079682
 20
244.132274
 30
0.0
 10
263.079682
 20
244.575853
 30
0.0
 10
239.382751
 20
244.575937
 30
0.0
  0
SPLINE
  5
263
100
AcDbEntity
  8
Ebene_1
 62
7
100
AcDbSpline
 70
8
 71
3
 72
8
 73
4
 74
0
 40
0
 40
0
 40
0
 40
0
 40
1
 40
1
 40
1
 40
1
 10
273.169297
 20
229.369477
 30
0.0
 10
272.013870
 20
229.369477
 30
0.0
 10
270.977934
 20
228.936838
 30
0.0
 10
270.152610
 20
228.111514
 30
0.0
  0
SPLINE
  5
264
100
AcDbEntity
  8
Ebene_1
 62
7
100
AcDbSpline
 70
8
 71
3
 72
8
 73
4
 74
0
 40
0
 40
0
 40
0
 40
0
 40
1
 40
1
 40
1
 40
1
 10
270.152610
 20
228.111514
 30
0.0
 10
269.345118
 20
227.304018
 30
0.0
 10
268.924108
 20
226.276923
 30
0.0
 10
268.924108
 20
225.124283
 30
0.0
  0
LWPOLYLINE
  5
265
100
AcDbEntity
  8
Ebene_1
 62
7
100
AcDbPolyline
 90
5
 70
0
 10
268.924108
 20
244.575937
 30
0.0
 10
268.924108
 20
232.283933
 30
0.0
 10
287.932181
 20
232.283933
 30
0.0
 10
287.932181
 20
229.369477
 30
0.0
 10
273.169297
 20
229.369477
 30
0.0
  0
SPLINE
  5
266
100
AcDbEntity
  8
Ebene_1
 62
7
100
AcDbSpline
 70
8
 71
3
 72
8
 73
4
 74
0
 40
0
 40
0
 40
0
 40
0
 40
1
 40
1
 40
1
 40
1
 10
288.375761
 20
239.887163
 30
0.0
 10
289.510588
 20
239.887163
 30
0.0
 10
290.532924
 20
240.309042
 30
0.0
 10
291.357795
 20
241.112204
 30
0.0
  0
SPLINE
  5
267
100
AcDbEntity
  8
Ebene_1
 62
7
100
AcDbSpline
 70
8
 71
3
 72
8
 73
4
 74
0
 40
0
 40
0
 40
0
 40
0
 40
1
 40
1
 40
1
 40
1
 10
291.357795
 20
241.112204
 30
0.0
 10
292.187484
 20
241.920062
 30
0.0
 10
292.620950
 20
242.959090
 30
0.0
 10
292.620950
 20
244.132357
 30
0.0
  0
LWPOLYLINE
  5
268
100
AcDbEntity
  8
Ebene_1
 62
7
100
AcDbPolyline
 90
8
 70
0
 10
268.924108
 20
225.124283
 30
0.0
 10
268.924108
 20
224.680703
 30
0.0
 10
269.367687
 20
224.680703
 30
0.0
 10
292.620950
 20
224.680703
 30
0.0
 10
292.620950
 20
236.972707
 30
0.0
 10
273.612876
 20
236.972707
 30
0.0
 10
273.612876
 20
239.887163
 30
0.0
 10
288.375761
 20
239.887163
 30
0.0
  0
LWPOLYLINE
  5
269
100
AcDbEntity
  8
Ebene_1
 62
7
100
AcDbPolyline
 90
3
 70
0
 10
292.620950
 20
244.132357
 30
0.0
 10
292.620950
 20
244.575937
 30
0.0
 10
268.924108
 20
244.575937
 30
0.0
  0
SPLINE
  5
26a
100
AcDbEntity
  8
Ebene_1
 62
7
100
AcDbSpline
 70
8
 71
3
 72
8
 73
4
 74
0
 40
0
 40
0
 40
0
 40
0
 40
1
 40
1
 40
1
 40
1
 10
317.915379
 20
224.680703
 30
0.0
 10
319.050206
 20
224.680703
 30
0.0
 10
320.074280
 20
225.102582
 30
0.0
 10
320.899143
 20
225.905745
 30
0.0
  0
SPLINE
  5
26b
100
AcDbEntity
  8
Ebene_1
 62
7
100
AcDbSpline
 70
8
 71
3
 72
8
 73
4
 74
0
 40
0
 40
0
 40
0
 40
0
 40
1
 40
1
 40
1
 40
1
 10
320.899143
 20
225.905745
 30
0.0
 10
321.728832
 20
226.713602
 30
0.0
 10
322.160577
 20
227.752631
 30
0.0
 10
322.160577
 20
228.925897
 30
0.0
  0
LWPOLYLINE
  5
26c
100
AcDbEntity
  8
Ebene_1
 62
7
100
AcDbPolyline
 90
4
 70
0
 10
298.463726
 20
244.575937
 30
0.0
 10
298.463726
 20
224.680703
 30
0.0
 10
298.907305
 20
224.680703
 30
0.0
 10
317.915379
 20
224.680703
 30
0.0
  0
SPLINE
  5
26d
100
AcDbEntity
  8
Ebene_1
 62
7
100
AcDbSpline
 70
8
 71
3
 72
8
 73
4
 74
0
 40
0
 40
0
 40
0
 40
0
 40
1
 40
1
 40
1
 40
1
 10
216.772926
 20
253.519530
 30
0.0
 10
216.772926
 20
252.856489
 30
0.0
 10
216.509534
 20
252.220604
 30
0.0
 10
216.040693
 20
251.751763
 30
0.0
  0
SPLINE
  5
26e
100
AcDbEntity
  8
Ebene_1
 62
7
100
AcDbSpline
 70
8
 71
3
 72
8
 73
4
 74
0
 40
0
 40
0
 40
0
 40
0
 40
1
 40
1
 40
1
 40
1
 10
216.040693
 20
251.751763
 30
0.0
 10
215.571852
 20
251.282922
 30
0.0
 10
214.935967
 20
251.019530
 30
0.0
 10
214.272926
 20
251.019530
 30
0.0
  0
SPLINE
  5
26f
100
AcDbEntity
  8
Ebene_1
 62
7
100
AcDbSpline
 70
8
 71
3
 72
8
 73
4
 74
0
 40
0
 40
0
 40
0
 40
0
 40
1
 40
1
 40
1
 40
1
 10
214.272926
 20
251.019530
 30
0.0
 10
213.609885
 20
251.019530
 30
0.0
 10
212.974000
 20
251.282922
 30
0.0
 10
212.505159
 20
251.751763
 30
0.0
  0
SPLINE
  5
270
100
AcDbEntity
  8
Ebene_1
 62
7
100
AcDbSpline
 70
8
 71
3
 72
8
 73
4
 74
0
 40
0
 40
0
 40
0
 40
0
 40
1
 40
1
 40
1
 40
1
 10
212.505159
 20
251.751763
 30
0.0
 10
212.036318
 20
252.220604
 30
0.0
 10
211.772926
 20
252.856489
 30
0.0
 10
211.772926
 20
253.519530
 30
0.0
  0
SPLINE
  5
271
100
AcDbEntity
  8
Ebene_1
 62
7
100
AcDbSpline
 70
8
 71
3
 72
8
 73
4
 74
0
 40
0
 40
0
 40
0
 40
0
 40
1
 40
1
 40
1
 40
1
 10
211.772926
 20
253.519530
 30
0.0
 10
211.772926
 20
254.182571
 30
0.0
 10
212.036318
 20
254.818456
 30
0.0
 10
212.505159
 20
255.287297
 30
0.0
  0
SPLINE
  5
272
100
AcDbEntity
  8
Ebene_1
 62
7
100
AcDbSpline
 70
8
 71
3
 72
8
 73
4
 74
0
 40
0
 40
0
 40
0
 40
0
 40
1
 40
1
 40
1
 40
1
 10
212.505159
 20
255.287297
 30
0.0
 10
212.974000
 20
255.756138
 30
0.0
 10
213.609885
 20
256.019530
 30
0.0
 10
214.272926
 20
256.019530
 30
0.0
  0
SPLINE
  5
273
100
AcDbEntity
  8
Ebene_1
 62
7
100
AcDbSpline
 70
8
 71
3
 72
8
 73
4
 74
0
 40
0
 40
0
 40
0
 40
0
 40
1
 40
1
 40
1
 40
1
 10
214.272926
 20
256.019530
 30
0.0
 10
214.935967
 20
256.019530
 30
0.0
 10
215.571852
 20
255.756138
 30
0.0
 10
216.040693
 20
255.287297
 30
0.0
  0
SPLINE
  5
274
100
AcDbEntity
  8
Ebene_1
 62
7
100
AcDbSpline
 70
8
 71
3
 72
8
 73
4
 74
0
 40
0
 40
0
 40
0
 40
0
 40
1
 40
1
 40
1
 40
1
 10
216.040693
 20
255.287297
 30
0.0
 10
216.509534
 20
254.818456
 30
0.0
 10
216.772926
 20
254.182571
 30
0.0
 10
216.772926
 20
253.519530
 30
0.0
  0
SPLINE
  5
275
100
AcDbEntity
  8
Ebene_1
 62
7
100
AcDbSpline
 70
8
 71
3
 72
8
 73
4
 74
0
 40
0
 40
0
 40
0
 40
0
 40
1
 40
1
 40
1
 40
1
 10
349.772930
 20
253.519530
 30
0.0
 10
349.772930
 20
252.856489
 30
0.0
 10
349.509538
 20
252.220604
 30
0.0
 10
349.040697
 20
251.751763
 30
0.0
  0
SPLINE
  5
276
100
AcDbEntity
  8
Ebene_1
 62
7
100
AcDbSpline
 70
8
 71
3
 72
8
 73
4
 74
0
 40
0
 40
0
 40
0
 40
0
 40
1
 40
1
 40
1
 40
1
 10
349.040697
 20
251.751763
 30
0.0
 10
348.571856
 20
251.282922
 30
0.0
 10
347.935971
 20
251.019530
 30
0.0
 10
347.272930
 20
251.019530
 30
0.0
  0
SPLINE
  5
277
100
AcDbEntity
  8
Ebene_1
 62
7
100
AcDbSpline
 70
8
 71
3
 72
8
 73
4
 74
0
 40
0
 40
0
 40
0
 40
0
 40
1
 40
1
 40
1
 40
1
 10
347.272930
 20
251.019530
 30
0.0
 10
346.609889
 20
251.019530
 30
0.0
 10
345.974004
 20
251.282922
 30
0.0
 10
345.505163
 20
251.751763
 30
0.0
  0
SPLINE
  5
278
100
AcDbEntity
  8
Ebene_1
 62
7
100
AcDbSpline
 70
8
 71
3
 72
8
 73
4
 74
0
 40
0
 40
0
 40
0
 40
0
 40
1
 40
1
 40
1
 40
1
 10
345.505163
 20
251.751763
 30
0.0
 10
345.036322
 20
252.220604
 30
0.0
 10
344.772930
 20
252.856489
 30
0.0
 10
344.772930
 20
253.519530
 30
0.0
  0
SPLINE
  5
279
100
AcDbEntity
  8
Ebene_1
 62
7
100
AcDbSpline
 70
8
 71
3
 72
8
 73
4
 74
0
 40
0
 40
0
 40
0
 40
0
 40
1
 40
1
 40
1
 40
1
 10
344.772930
 20
253.519530
 30
0.0
 10
344.772930
 20
254.182571
 30
0.0
 10
345.036322
 20
254.818456
 30
0.0
 10
345.505163
 20
255.287297
 30
0.0
  0
SPLINE
  5
27a
100
AcDbEntity
  8
Ebene_1
 62
7
100
AcDbSpline
 70
8
 71
3
 72
8
 73
4
 74
0
 40
0
 40
0
 40
0
 40
0
 40
1
 40
1
 40
1
 40
1
 10
345.505163
 20
255.287297
 30
0.0
 10
345.974004
 20
255.756138
 30
0.0
 10
346.609889
 20
256.019530
 30
0.0
 10
347.272930
 20
256.019530
 30
0.0
  0
SPLINE
  5
27b
100
AcDbEntity
  8
Ebene_1
 62
7
100
AcDbSpline
 70
8
 71
3
 72
8
 73
4
 74
0
 40
0
 40
0
 40
0
 40
0
 40
1
 40
1
 40
1
 40
1
 10
347.272930
 20
256.019530
 30
0.0
 10
347.935971
 20
256.019530
 30
0.0
 10
348.571856
 20
255.756138
 30
0.0
 10
349.040697
 20
255.287297
 30
0.0
  0
SPLINE
  5
27c
100
AcDbEntity
  8
Ebene_1
 62
7
100
AcDbSpline
 70
8
 71
3
 72
8
 73
4
 74
0
 40
0
 40
0
 40
0
 40
0
 40
1
 40
1
 40
1
 40
1
 10
349.040697
 20
255.287297
 30
0.0
 10
349.509538
 20
254.818456
 30
0.0
 10
349.772930
 20
254.182571
 30
0.0
 10
349.772930
 20
253.519530
 30
0.0
  0
SPLINE
  5
27d
100
AcDbEntity
  8
Ebene_1
 62
7
100
AcDbSpline
 70
8
 71
3
 72
8
 73
4
 74
0
 40
0
 40
0
 40
0
 40
0
 40
1
 40
1
 40
1
 40
1
 10
349.772930
 20
40.519530
 30
0.0
 10
349.772930
 20
39.856489
 30
0.0
 10
349.509538
 20
39.220604
 30
0.0
 10
349.040697
 20
38.751763
 30
0.0
  0
SPLINE
  5
27e
100
AcDbEntity
  8
Ebene_1
 62
7
100
AcDbSpline
 70
8
 71
3
 72
8
 73
4
 74
0
 40
0
 40
0
 40
0
 40
0
 40
1
 40
1
 40
1
 40
1
 10
349.040697
 20
38.751763
 30
0.0
 10
348.571856
 20
38.282922
 30
0.0
 10
347.935971
 20
38.019530
 30
0.0
 10
347.272930
 20
38.019530
 30
0.0
  0
SPLINE
  5
27f
100
AcDbEntity
  8
Ebene_1
 62
7
100
AcDbSpline
 70
8
 71
3
 72
8
 73
4
 74
0
 40
0
 40
0
 40
0
 40
0
 40
1
 40
1
 40
1
 40
1
 10
347.272930
 20
38.019530
 30
0.0
 10
346.609889
 20
38.019530
 30
0.0
 10
345.974004
 20
38.282922
 30
0.0
 10
345.505163
 20
38.751763
 30
0.0
  0
SPLINE
  5
280
100
AcDbEntity
  8
Ebene_1
 62
7
100
AcDbSpline
 70
8
 71
3
 72
8
 73
4
 74
0
 40
0
 40
0
 40
0
 40
0
 40
1
 40
1
 40
1
 40
1
 10
345.505163
 20
38.751763
 30
0.0
 10
345.036322
 20
39.220604
 30
0.0
 10
344.772930
 20
39.856489
 30
0.0
 10
344.772930
 20
40.519530
 30
0.0
  0
SPLINE
  5
281
100
AcDbEntity
  8
Ebene_1
 62
7
100
AcDbSpline
 70
8
 71
3
 72
8
 73
4
 74
0
 40
0
 40
0
 40
0
 40
0
 40
1
 40
1
 40
1
 40
1
 10
344.772930
 20
40.519530
 30
0.0
 10
344.772930
 20
41.182571
 30
0.0
 10
345.036322
 20
41.818456
 30
0.0
 10
345.505163
 20
42.287297
 30
0.0
  0
SPLINE
  5
282
100
AcDbEntity
  8
Ebene_1
 62
7
100
AcDbSpline
 70
8
 71
3
 72
8
 73
4
 74
0
 40
0
 40
0
 40
0
 40
0
 40
1
 40
1
 40
1
 40
1
 10
345.505163
 20
42.287297
 30
0.0
 10
345.974004
 20
42.756138
 30
0.0
 10
346.609889
 20
43.019530
 30
0.0
 10
347.272930
 20
43.019530
 30
0.0
  0
SPLINE
  5
283
100
AcDbEntity
  8
Ebene_1
 62
7
100
AcDbSpline
 70
8
 71
3
 72
8
 73
4
 74
0
 40
0
 40
0
 40
0
 40
0
 40
1
 40
1
 40
1
 40
1
 10
347.272930
 20
43.019530
 30
0.0
 10
347.935971
 20
43.019530
 30
0.0
 10
348.571856
 20
42.756138
 30
0.0
 10
349.040697
 20
42.287297
 30
0.0
  0
SPLINE
  5
284
100
AcDbEntity
  8
Ebene_1
 62
7
100
AcDbSpline
 70
8
 71
3
 72
8
 73
4
 74
0
 40
0
 40
0
 40
0
 40
0
 40
1
 40
1
 40
1
 40
1
 10
349.040697
 20
42.287297
 30
0.0
 10
349.509538
 20
41.818456
 30
0.0
 10
349.772930
 20
41.182571
 30
0.0
 10
349.772930
 20
40.519530
 30
0.0
  0
SPLINE
  5
285
100
AcDbEntity
  8
Ebene_1
 62
7
100
AcDbSpline
 70
8
 71
3
 72
8
 73
4
 74
0
 40
0
 40
0
 40
0
 40
0
 40
1
 40
1
 40
1
 40
1
 10
216.772926
 20
40.519530
 30
0.0
 10
216.772926
 20
39.856489
 30
0.0
 10
216.509534
 20
39.220604
 30
0.0
 10
216.040693
 20
38.751763
 30
0.0
  0
SPLINE
  5
286
100
AcDbEntity
  8
Ebene_1
 62
7
100
AcDbSpline
 70
8
 71
3
 72
8
 73
4
 74
0
 40
0
 40
0
 40
0
 40
0
 40
1
 40
1
 40
1
 40
1
 10
216.040693
 20
38.751763
 30
0.0
 10
215.571852
 20
38.282922
 30
0.0
 10
214.935967
 20
38.019530
 30
0.0
 10
214.272926
 20
38.019530
 30
0.0
  0
SPLINE
  5
287
100
AcDbEntity
  8
Ebene_1
 62
7
100
AcDbSpline
 70
8
 71
3
 72
8
 73
4
 74
0
 40
0
 40
0
 40
0
 40
0
 40
1
 40
1
 40
1
 40
1
 10
214.272926
 20
38.019530
 30
0.0
 10
213.609885
 20
38.019530
 30
0.0
 10
212.974000
 20
38.282922
 30
0.0
 10
212.505159
 20
38.751763
 30
0.0
  0
SPLINE
  5
288
100
AcDbEntity
  8
Ebene_1
 62
7
100
AcDbSpline
 70
8
 71
3
 72
8
 73
4
 74
0
 40
0
 40
0
 40
0
 40
0
 40
1
 40
1
 40
1
 40
1
 10
212.505159
 20
38.751763
 30
0.0
 10
212.036318
 20
39.220604
 30
0.0
 10
211.772926
 20
39.856489
 30
0.0
 10
211.772926
 20
40.519530
 30
0.0
  0
SPLINE
  5
289
100
AcDbEntity
  8
Ebene_1
 62
7
100
AcDbSpline
 70
8
 71
3
 72
8
 73
4
 74
0
 40
0
 40
0
 40
0
 40
0
 40
1
 40
1
 40
1
 40
1
 10
211.772926
 20
40.519530
 30
0.0
 10
211.772926
 20
41.182571
 30
0.0
 10
212.036318
 20
41.818456
 30
0.0
 10
212.505159
 20
42.287297
 30
0.0
  0
SPLINE
  5
28a
100
AcDbEntity
  8
Ebene_1
 62
7
100
AcDbSpline
 70
8
 71
3
 72
8
 73
4
 74
0
 40
0
 40
0
 40
0
 40
0
 40
1
 40
1
 40
1
 40
1
 10
212.505159
 20
42.287297
 30
0.0
 10
212.974000
 20
42.756138
 30
0.0
 10
213.609885
 20
43.019530
 30
0.0
 10
214.272926
 20
43.019530
 30
0.0
  0
SPLINE
  5
28b
100
AcDbEntity
  8
Ebene_1
 62
7
100
AcDbSpline
 70
8
 71
3
 72
8
 73
4
 74
0
 40
0
 40
0
 40
0
 40
0
 40
1
 40
1
 40
1
 40
1
 10
214.272926
 20
43.019530
 30
0.0
 10
214.935967
 20
43.019530
 30
0.0
 10
215.571852
 20
42.756138
 30
0.0
 10
216.040693
 20
42.287297
 30
0.0
  0
SPLINE
  5
28c
100
AcDbEntity
  8
Ebene_1
 62
7
100
AcDbSpline
 70
8
 71
3
 72
8
 73
4
 74
0
 40
0
 40
0
 40
0
 40
0
 40
1
 40
1
 40
1
 40
1
 10
216.040693
 20
42.287297
 30
0.0
 10
216.509534
 20
41.818456
 30
0.0
 10
216.772926
 20
41.182571
 30
0.0
 10
216.772926
 20
40.519530
 30
0.0
  0
SPLINE
  5
28d
100
AcDbEntity
  8
Ebene_1
 62
1
100
AcDbSpline
 70
8
 71
3
 72
8
 73
4
 74
0
 40
0
 40
0
 40
0
 40
0
 40
1
 40
1
 40
1
 40
1
 10
209.902640
 20
275.890404
 30
0.0
 10
200.162480
 20
275.890404
 30
0.0
 10
191.943540
 20
267.867656
 30
0.0
 10
191.943540
 20
257.849998
 30
0.0
  0
LWPOLYLINE
  5
28e
100
AcDbEntity
  8
Ebene_1
 62
7
100
AcDbPolyline
 90
5
 70
0
 10
322.160577
 20
228.925897
 30
0.0
 10
322.160577
 20
229.369477
 30
0.0
 10
303.152503
 20
229.369477
 30
0.0
 10
303.152503
 20
244.575937
 30
0.0
 10
298.463726
 20
244.575937
 30
0.0
  0
SPLINE
  5
28f
100
AcDbEntity
  8
Ebene_1
 62
1
100
AcDbSpline
 70
8
 71
3
 72
8
 73
4
 74
0
 40
0
 40
0
 40
0
 40
0
 40
1
 40
1
 40
1
 40
1
 10
191.943540
 20
37.116630
 30
0.0
 10
191.943540
 20
27.098960
 30
0.0
 10
200.162480
 20
19.076220
 30
0.0
 10
209.902640
 20
19.076220
 30
0.0
  0
LWPOLYLINE
  5
290
100
AcDbEntity
  8
Ebene_1
 62
1
100
AcDbPolyline
 90
2
 70
0
 10
191.943540
 20
257.849998
 30
0.0
 10
191.943540
 20
37.116630
 30
0.0
  0
SPLINE
  5
291
100
AcDbEntity
  8
Ebene_1
 62
1
100
AcDbSpline
 70
8
 71
3
 72
8
 73
4
 74
0
 40
0
 40
0
 40
0
 40
0
 40
1
 40
1
 40
1
 40
1
 10
351.642610
 20
19.076220
 30
0.0
 10
361.382780
 20
19.076220
 30
0.0
 10
369.601710
 20
27.098960
 30
0.0
 10
369.601710
 20
37.116630
 30
0.0
  0
LWPOLYLINE
  5
292
100
AcDbEntity
  8
Ebene_1
 62
1
100
AcDbPolyline
 90
2
 70
0
 10
209.902640
 20
19.076220
 30
0.0
 10
351.642610
 20
19.076220
 30
0.0
  0
SPLINE
  5
293
100
AcDbEntity
  8
Ebene_1
 62
1
100
AcDbSpline
 70
8
 71
3
 72
8
 73
4
 74
0
 40
0
 40
0
 40
0
 40
0
 40
1
 40
1
 40
1
 40
1
 10
369.601710
 20
257.849998
 30
0.0
 10
369.601710
 20
267.867654
 30
0.0
 10
361.382780
 20
275.890404
 30
0.0
 10
351.642610
 20
275.890404
 30
0.0
  0
LWPOLYLINE
  5
294
100
AcDbEntity
  8
Ebene_1
 62
1
100
AcDbPolyline
 90
2
 70
0
 10
369.601710
 20
37.116630
 30
0.0
 10
369.601710
 20
257.849998
 30
0.0
  0
SPLINE
  5
295
100
AcDbEntity
  8
Ebene_1
 62
7
100
AcDbSpline
 70
8
 71
3
 72
8
 73
4
 74
0
 40
0
 40
0
 40
0
 40
0
 40
1
 40
1
 40
1
 40
1
 10
209.902340
 20
271.833984
 30
0.0
 10
202.192550
 20
271.833984
 30
0.0
 10
195.828130
 20
265.547283
 30
0.0
 10
195.828120
 20
257.849609
 30
0.0
  0
LWPOLYLINE
  5
296
100
AcDbEntity
  8
Ebene_1
 62
1
100
AcDbPolyline
 90
2
 70
0
 10
351.642610
 20
275.890404
 30
0.0
 10
209.902640
 20
275.890404
 30
0.0
  0
SPLINE
  5
297
100
AcDbEntity
  8
Ebene_1
 62
7
100
AcDbSpline
 70
8
 71
3
 72
8
 73
4
 74
0
 40
0
 40
0
 40
0
 40
0
 40
1
 40
1
 40
1
 40
1
 10
195.828120
 20
37.117190
 30
0.0
 10
195.828120
 20
29.419520
 30
0.0
 10
202.192550
 20
23.132810
 30
0.0
 10
209.902340
 20
23.132810
 30
0.0
  0
LWPOLYLINE
  5
298
100
AcDbEntity
  8
Ebene_1
 62
7
100
AcDbPolyline
 90
2
 70
0
 10
195.828120
 20
257.849609
 30
0.0
 10
195.828120
 20
37.117190
 30
0.0
  0
SPLINE
  5
299
100
AcDbEntity
  8
Ebene_1
 62
7
100
AcDbSpline
 70
8
 71
3
 72
8
 73
4
 74
0
 40
0
 40
0
 40
0
 40
0
 40
1
 40
1
 40
1
 40
1
 10
351.642580
 20
23.132810
 30
0.0
 10
359.352380
 20
23.132810
 30
0.0
 10
365.716800
 20
29.419520
 30
0.0
 10
365.716800
 20
37.117190
 30
0.0
  0
LWPOLYLINE
  5
29a
100
AcDbEntity
  8
Ebene_1
 62
7
100
AcDbPolyline
 90
2
 70
0
 10
209.902340
 20
23.132810
 30
0.0
 10
351.642580
 20
23.132810
 30
0.0
  0
SPLINE
  5
29b
100
AcDbEntity
  8
Ebene_1
 62
7
100
AcDbSpline
 70
8
 71
3
 72
8
 73
4
 74
0
 40
0
 40
0
 40
0
 40
0
 40
1
 40
1
 40
1
 40
1
 10
365.716800
 20
257.849609
 30
0.0
 10
365.716800
 20
265.547283
 30
0.0
 10
359.352380
 20
271.833984
 30
0.0
 10
351.642580
 20
271.833984
 30
0.0
  0
LWPOLYLINE
  5
29c
100
AcDbEntity
  8
Ebene_1
 62
7
100
AcDbPolyline
 90
2
 70
0
 10
365.716800
 20
37.117190
 30
0.0
 10
365.716800
 20
257.849609
 30
0.0
  0
LWPOLYLINE
  5
29d
100
AcDbEntity
  8
Ebene_1
 62
7
100
AcDbPolyline
 90
3
 70
0
 10
351.642580
 20
271.833984
 30
0.0
 10
209.902340
 20
271.833984
 30
0.0
 10
209.902340
 20
271.833984
 30
0.0
  0
SPLINE
  5
29e
100
AcDbEntity
  8
Ebene_1
 62
7
100
AcDbSpline
 70
8
 71
3
 72
8
 73
4
 74
0
 40
0
 40
0
 40
0
 40
0
 40
1
 40
1
 40
1
 40
1
 10
351.642580
 20
263.933594
 30
0.0
 10
355.150500
 20
263.933594
 30
0.0
 10
357.816410
 20
261.268870
 30
0.0
 10
357.816410
 20
257.849609
 30
0.0
  0
LWPOLYLINE
  5
29f
100
AcDbEntity
  8
Ebene_1
 62
7
100
AcDbPolyline
 90
2
 70
0
 10
209.902340
 20
263.933594
 30
0.0
 10
351.642580
 20
263.933594
 30
0.0
  0
SPLINE
  5
2a0
100
AcDbEntity
  8
Ebene_1
 62
7
100
AcDbSpline
 70
8
 71
3
 72
8
 73
4
 74
0
 40
0
 40
0
 40
0
 40
0
 40
1
 40
1
 40
1
 40
1
 10
357.816410
 20
37.117190
 30
0.0
 10
357.816410
 20
33.697940
 30
0.0
 10
355.150490
 20
31.033200
 30
0.0
 10
351.642580
 20
31.033200
 30
0.0
  0
LWPOLYLINE
  5
2a1
100
AcDbEntity
  8
Ebene_1
 62
7
100
AcDbPolyline
 90
2
 70
0
 10
357.816410
 20
257.849609
 30
0.0
 10
357.816410
 20
37.117190
 30
0.0
  0
SPLINE
  5
2a2
100
AcDbEntity
  8
Ebene_1
 62
7
100
AcDbSpline
 70
8
 71
3
 72
8
 73
4
 74
0
 40
0
 40
0
 40
0
 40
0
 40
1
 40
1
 40
1
 40
1
 10
209.902340
 20
31.033200
 30
0.0
 10
206.394440
 20
31.033200
 30
0.0
 10
203.728520
 20
33.697940
 30
0.0
 10
203.728520
 20
37.117190
 30
0.0
  0
LWPOLYLINE
  5
2a3
100
AcDbEntity
  8
Ebene_1
 62
7
100
AcDbPolyline
 90
2
 70
0
 10
351.642580
 20
31.033200
 30
0.0
 10
209.902340
 20
31.033200
 30
0.0
  0
SPLINE
  5
2a4
100
AcDbEntity
  8
Ebene_1
 62
7
100
AcDbSpline
 70
8
 71
3
 72
8
 73
4
 74
0
 40
0
 40
0
 40
0
 40
0
 40
1
 40
1
 40
1
 40
1
 10
203.728520
 20
257.849609
 30
0.0
 10
203.728520
 20
261.268870
 30
0.0
 10
206.394440
 20
263.933594
 30
0.0
 10
209.902340
 20
263.933594
 30
0.0
  0
LWPOLYLINE
  5
2a5
100
AcDbEntity
  8
Ebene_1
 62
7
100
AcDbPolyline
 90
2
 70
0
 10
203.728520
 20
37.117190
 30
0.0
 10
203.728520
 20
257.849609
 30
0.0
  0
LWPOLYLINE
  5
2a6
100
AcDbEntity
  8
Ebene_1
 62
7
100
AcDbPolyline
 90
1
 70
1
 10
209.902340
 20
263.933594
 30
0.0
  0
ENDSEC
  0
SECTION
  2
OBJECTS
  0
DICTIONARY
  5
C
330
0
100
AcDbDictionary
  3
ACAD_GROUP
350
D
  3
ACAD_MLINESTYLE
350
17
  0
DICTIONARY
  5
D
330
C
100
AcDbDictionary
  0
DICTIONARY
  5
1A
330
C
100
AcDbDictionary
  0
DICTIONARY
  5
17
330
C
100
AcDbDictionary
  3
STANDARD
350
18
  0
DICTIONARY
  5
19
330
C
100
AcDbDictionary
  0
ENDSEC
  0
EOF
