  0
SECTION
  2
HEADER
  9
$ACADVER
  1
AC1014
  9
$HANDSEED
  5
FFFF
  9
$MEASUREMENT
 70
     1
  0
ENDSEC
  0
SECTION
  2
TABLES
  0
TABLE
  2
VPORT
  5
8
330
0
100
AcDbSymbolTable
 70
     4
  0
VPORT
  5
2E
330
8
100
AcDbSymbolTableRecord
100
AcDbViewportTableRecord
  2
*ACTIVE
 70
     0
 10
0.0
 20
0.0
 11
1.0
 21
1.0
 12
210.0
 22
148.5
 13
0.0
 23
0.0
 14
10.0
 24
10.0
 15
10.0
 25
10.0
 16
0.0
 26
0.0
 36
1.0
 17
0.0
 27
0.0
 37
0.0
 40
341.0
 41
1.24
 42
50.0
 43
0.0
 44
0.0
 50
0.0
 51
0.0
 71
     0
 72
   100
 73
     1
 74
     3
 75
     0
 76
     0
 77
     0
 78
     0
  0
ENDTAB
  0
TABLE
  2
LTYPE
  5
5
330
0
100
AcDbSymbolTable
 70
     1
  0
LTYPE
  5
14
330
5
100
AcDbSymbolTableRecord
100
AcDbLinetypeTableRecord
  2
BYBLOCK
 70
     0
  3

 72
    65
 73
     0
 40
0.0
  0
LTYPE
  5
15
330
5
100
AcDbSymbolTableRecord
100
AcDbLinetypeTableRecord
  2
BYLAYER
 70
     0
  3

 72
    65
 73
     0
 40
0.0
  0
LTYPE
  5
16
330
5
100
AcDbSymbolTableRecord
100
AcDbLinetypeTableRecord
  2
CONTINUOUS
 70
     0
  3
Solid line
 72
    65
 73
     0
 40
0.0
  0
ENDTAB
  0
TABLE
  2
LAYER
  5
2
100
AcDbSymbolTable
 70
2
  0
LAYER
  5
50
100
AcDbSymbolTableRecord
100
AcDbLayerTableRecord
  2
0
 70
0
  6
CONTINUOUS
  0
LAYER
  5
51
100
AcDbSymbolTableRecord
100
AcDbLayerTableRecord
  2
Ebene_1
 70
0
  6
CONTINUOUS
  0
ENDTAB
  0
TABLE
  2
STYLE
  5
3
330
0
100
AcDbSymbolTable
 70
     1
  0
STYLE
  5
11
330
3
100
AcDbSymbolTableRecord
100
AcDbTextStyleTableRecord
  2
STANDARD
 70
     0
 40
0.0
 41
1.0
 50
0.0
 71
     0
 42
2.5
  3
txt
  4

  0
ENDTAB
  0
TABLE
  2
VIEW
  5
6
330
0
100
AcDbSymbolTable
 70
     0
  0
ENDTAB
  0
TABLE
  2
UCS
  5
7
330
0
100
AcDbSymbolTable
 70
     0
  0
ENDTAB
  0
TABLE
  2
APPID
  5
9
330
0
100
AcDbSymbolTable
 70
     2
  0
APPID
  5
12
330
9
100
AcDbSymbolTableRecord
100
AcDbRegAppTableRecord
  2
ACAD
 70
     0
  0
ENDTAB
  0
TABLE
  2
DIMSTYLE
  5
A
330
0
100
AcDbSymbolTable
 70
     1
  0
DIMSTYLE
105
27
330
A
100
AcDbSymbolTableRecord
100
AcDbDimStyleTableRecord
  2
ISO-25
 70
     0
  3

  4

  5

  6

  7

 40
1.0
 41
2.5
 42
0.625
 43
3.75
 44
1.25
 45
0.0
 46
0.0
 47
0.0
 48
0.0
140
2.5
141
2.5
142
0.0
143
0.03937007874016
144
1.0
145
0.0
146
1.0
147
0.625
 71
     0
 72
     0
 73
     0
 74
     0
 75
     0
 76
     0
 77
     1
 78
     8
170
     0
171
     3
172
     1
173
     0
174
     0
175
     0
176
     0
177
     0
178
     0
270
     2
271
     2
272
     2
273
     2
274
     3
340
11
275
     0
280
     0
281
     0
282
     0
283
     0
284
     8
285
     0
286
     0
287
     3
288
     0
  0
ENDTAB
  0
TABLE
  2
BLOCK_RECORD
  5
1
330
0
100
AcDbSymbolTable
 70
     1
  0
BLOCK_RECORD
  5
1F
330
1
100
AcDbSymbolTableRecord
100
AcDbBlockTableRecord
  2
*MODEL_SPACE
  0
BLOCK_RECORD
  5
1B
330
1
100
AcDbSymbolTableRecord
100
AcDbBlockTableRecord
  2
*PAPER_SPACE
  0
ENDTAB
  0
ENDSEC
  0
SECTION
  2
BLOCKS
  0
BLOCK
  5
20
330
1F
100
AcDbEntity
  8
0
100
AcDbBlockBegin
  2
*MODEL_SPACE
 70
     0
 10
0.0
 20
0.0
 30
0.0
  3
*MODEL_SPACE
  1

  0
ENDBLK
  5
21
330
1F
100
AcDbEntity
  8
0
100
AcDbBlockEnd
  0
BLOCK
  5
1C
330
1B
100
AcDbEntity
 67
     1
  8
0
100
AcDbBlockBegin
  2
*PAPER_SPACE
  1

  0
ENDBLK
  5
1D
330
1B
100
AcDbEntity
 67
     1
  8
0
100
AcDbBlockEnd
  0
ENDSEC
  0
SECTION
  2
ENTITIES
  0
SPLINE
  5
100
100
AcDbEntity
  8
Ebene_1
 62
7
100
AcDbSpline
 70
8
 71
3
 72
8
 73
4
 74
0
 40
0
 40
0
 40
0
 40
0
 40
1
 40
1
 40
1
 40
1
 10
46.410698
 20
289.611010
 30
0.0
 10
27.116118
 20
289.611010
 30
0.0
 10
11.475458
 20
273.991470
 30
0.0
 10
11.475458
 20
254.722950
 30
0.0
  0
LWPOLYLINE
  5
101
100
AcDbEntity
  8
Ebene_1
 62
7
100
AcDbPolyline
 90
4
 70
1
 10
-0.350071
 20
299.599980
 30
0.0
 10
219.249930
 20
299.599980
 30
0.0
 10
219.249930
 20
0.000000
 30
0.0
 10
-0.350071
 20
0.000000
 30
0.0
  0
SPLINE
  5
102
100
AcDbEntity
  8
Ebene_1
 62
7
100
AcDbSpline
 70
8
 71
3
 72
8
 73
4
 74
0
 40
0
 40
0
 40
0
 40
0
 40
1
 40
1
 40
1
 40
1
 10
11.475458
 20
44.877040
 30
0.0
 10
11.475458
 20
25.608510
 30
0.0
 10
27.116118
 20
9.988970
 30
0.0
 10
46.410698
 20
9.988970
 30
0.0
  0
LWPOLYLINE
  5
103
100
AcDbEntity
  8
Ebene_1
 62
7
100
AcDbPolyline
 90
2
 70
0
 10
11.475458
 20
254.722950
 30
0.0
 10
11.475458
 20
44.877040
 30
0.0
  0
SPLINE
  5
104
100
AcDbEntity
  8
Ebene_1
 62
7
100
AcDbSpline
 70
8
 71
3
 72
8
 73
4
 74
0
 40
0
 40
0
 40
0
 40
0
 40
1
 40
1
 40
1
 40
1
 10
172.489180
 20
9.988970
 30
0.0
 10
191.783760
 20
9.988970
 30
0.0
 10
207.424400
 20
25.608510
 30
0.0
 10
207.424400
 20
44.877040
 30
0.0
  0
LWPOLYLINE
  5
105
100
AcDbEntity
  8
Ebene_1
 62
7
100
AcDbPolyline
 90
2
 70
0
 10
46.410698
 20
9.988970
 30
0.0
 10
172.489180
 20
9.988970
 30
0.0
  0
SPLINE
  5
106
100
AcDbEntity
  8
Ebene_1
 62
7
100
AcDbSpline
 70
8
 71
3
 72
8
 73
4
 74
0
 40
0
 40
0
 40
0
 40
0
 40
1
 40
1
 40
1
 40
1
 10
207.424400
 20
254.722950
 30
0.0
 10
207.424400
 20
273.991470
 30
0.0
 10
191.783760
 20
289.611010
 30
0.0
 10
172.489180
 20
289.611010
 30
0.0
  0
LWPOLYLINE
  5
107
100
AcDbEntity
  8
Ebene_1
 62
7
100
AcDbPolyline
 90
2
 70
0
 10
207.424400
 20
44.877040
 30
0.0
 10
207.424400
 20
254.722950
 30
0.0
  0
LWPOLYLINE
  5
108
100
AcDbEntity
  8
Ebene_1
 62
7
100
AcDbPolyline
 90
2
 70
0
 10
172.489180
 20
289.611010
 30
0.0
 10
46.410698
 20
289.611010
 30
0.0
  0
SPLINE
  5
109
100
AcDbEntity
  8
Ebene_1
 62
7
100
AcDbSpline
 70
8
 71
3
 72
8
 73
4
 74
0
 40
0
 40
0
 40
0
 40
0
 40
1
 40
1
 40
1
 40
1
 10
172.489180
 20
282.790960
 30
0.0
 10
188.118460
 20
282.790960
 30
0.0
 10
200.595150
 20
270.331120
 30
0.0
 10
200.595150
 20
254.722950
 30
0.0
  0
LWPOLYLINE
  5
10a
100
AcDbEntity
  8
Ebene_1
 62
7
100
AcDbPolyline
 90
2
 70
0
 10
46.410698
 20
282.790960
 30
0.0
 10
172.489180
 20
282.790960
 30
0.0
  0
SPLINE
  5
10b
100
AcDbEntity
  8
Ebene_1
 62
7
100
AcDbSpline
 70
8
 71
3
 72
8
 73
4
 74
0
 40
0
 40
0
 40
0
 40
0
 40
1
 40
1
 40
1
 40
1
 10
200.595150
 20
44.877040
 30
0.0
 10
200.595150
 20
29.268860
 30
0.0
 10
188.118460
 20
16.809030
 30
0.0
 10
172.489180
 20
16.809030
 30
0.0
  0
LWPOLYLINE
  5
10c
100
AcDbEntity
  8
Ebene_1
 62
7
100
AcDbPolyline
 90
2
 70
0
 10
200.595150
 20
254.722950
 30
0.0
 10
200.595150
 20
44.877040
 30
0.0
  0
SPLINE
  5
10d
100
AcDbEntity
  8
Ebene_1
 62
7
100
AcDbSpline
 70
8
 71
3
 72
8
 73
4
 74
0
 40
0
 40
0
 40
0
 40
0
 40
1
 40
1
 40
1
 40
1
 10
46.410698
 20
16.809030
 30
0.0
 10
30.781388
 20
16.809030
 30
0.0
 10
18.304758
 20
29.268860
 30
0.0
 10
18.304758
 20
44.877040
 30
0.0
  0
LWPOLYLINE
  5
10e
100
AcDbEntity
  8
Ebene_1
 62
7
100
AcDbPolyline
 90
2
 70
0
 10
172.489180
 20
16.809030
 30
0.0
 10
46.410698
 20
16.809030
 30
0.0
  0
SPLINE
  5
10f
100
AcDbEntity
  8
Ebene_1
 62
7
100
AcDbSpline
 70
8
 71
3
 72
8
 73
4
 74
0
 40
0
 40
0
 40
0
 40
0
 40
1
 40
1
 40
1
 40
1
 10
18.304758
 20
254.722950
 30
0.0
 10
18.304758
 20
270.331120
 30
0.0
 10
30.781388
 20
282.790960
 30
0.0
 10
46.410698
 20
282.790960
 30
0.0
  0
LWPOLYLINE
  5
110
100
AcDbEntity
  8
Ebene_1
 62
7
100
AcDbPolyline
 90
2
 70
0
 10
18.304758
 20
44.877040
 30
0.0
 10
18.304758
 20
254.722950
 30
0.0
  0
SPLINE
  5
111
100
AcDbEntity
  8
Ebene_1
 62
7
100
AcDbSpline
 70
8
 71
3
 72
8
 73
4
 74
0
 40
0
 40
0
 40
0
 40
0
 40
1
 40
1
 40
1
 40
1
 10
109.348700
 20
71.812710
 30
0.0
 10
109.099460
 20
73.127250
 30
0.0
 10
87.651486
 20
192.870130
 30
0.0
 10
87.651486
 20
192.947120
 30
0.0
  0
SPLINE
  5
112
100
AcDbEntity
  8
Ebene_1
 62
7
100
AcDbSpline
 70
8
 71
3
 72
8
 73
4
 74
0
 40
0
 40
0
 40
0
 40
0
 40
1
 40
1
 40
1
 40
1
 10
87.651486
 20
192.947120
 30
0.0
 10
87.651486
 20
193.056630
 30
0.0
 10
81.316708
 20
192.896520
 30
0.0
 10
78.132561
 20
192.706450
 30
0.0
  0
SPLINE
  5
113
100
AcDbEntity
  8
Ebene_1
 62
7
100
AcDbSpline
 70
8
 71
3
 72
8
 73
4
 74
0
 40
0
 40
0
 40
0
 40
0
 40
1
 40
1
 40
1
 40
1
 10
78.132561
 20
192.706450
 30
0.0
 10
68.656581
 20
192.141370
 30
0.0
 10
63.782836
 20
190.481970
 30
0.0
 10
61.427193
 20
187.018680
 30
0.0
  0
SPLINE
  5
114
100
AcDbEntity
  8
Ebene_1
 62
7
100
AcDbSpline
 70
8
 71
3
 72
8
 73
4
 74
0
 40
0
 40
0
 40
0
 40
0
 40
1
 40
1
 40
1
 40
1
 10
61.427193
 20
187.018680
 30
0.0
 10
60.558739
 20
185.741770
 30
0.0
 10
60.196118
 20
184.831350
 30
0.0
 10
59.817089
 20
182.975970
 30
0.0
  0
SPLINE
  5
115
100
AcDbEntity
  8
Ebene_1
 62
7
100
AcDbSpline
 70
8
 71
3
 72
8
 73
4
 74
0
 40
0
 40
0
 40
0
 40
0
 40
1
 40
1
 40
1
 40
1
 10
59.817089
 20
182.975970
 30
0.0
 10
59.663190
 20
182.222140
 30
0.0
 10
59.509017
 20
181.577250
 30
0.0
 10
59.474691
 20
181.542930
 30
0.0
  0
SPLINE
  5
116
100
AcDbEntity
  8
Ebene_1
 62
7
100
AcDbSpline
 70
8
 71
3
 72
8
 73
4
 74
0
 40
0
 40
0
 40
0
 40
0
 40
1
 40
1
 40
1
 40
1
 10
59.474691
 20
181.542930
 30
0.0
 10
59.359481
 20
181.427710
 30
0.0
 10
55.421341
 20
183.298700
 30
0.0
 10
53.448259
 20
184.406420
 30
0.0
  0
SPLINE
  5
117
100
AcDbEntity
  8
Ebene_1
 62
7
100
AcDbSpline
 70
8
 71
3
 72
8
 73
4
 74
0
 40
0
 40
0
 40
0
 40
0
 40
1
 40
1
 40
1
 40
1
 10
53.448259
 20
184.406420
 30
0.0
 10
47.546810
 20
187.719610
 30
0.0
 10
42.913651
 20
191.555730
 30
0.0
 10
39.761879
 20
195.738520
 30
0.0
  0
SPLINE
  5
118
100
AcDbEntity
  8
Ebene_1
 62
7
100
AcDbSpline
 70
8
 71
3
 72
8
 73
4
 74
0
 40
0
 40
0
 40
0
 40
0
 40
1
 40
1
 40
1
 40
1
 10
39.761879
 20
195.738520
 30
0.0
 10
39.298791
 20
196.353030
 30
0.0
 10
38.919940
 20
196.906080
 30
0.0
 10
38.919940
 20
196.967570
 30
0.0
  0
SPLINE
  5
119
100
AcDbEntity
  8
Ebene_1
 62
7
100
AcDbSpline
 70
8
 71
3
 72
8
 73
4
 74
0
 40
0
 40
0
 40
0
 40
0
 40
1
 40
1
 40
1
 40
1
 10
38.919940
 20
196.967570
 30
0.0
 10
38.919940
 20
197.029270
 30
0.0
 10
39.159718
 20
197.178580
 30
0.0
 10
39.452714
 20
197.299830
 30
0.0
  0
SPLINE
  5
11a
100
AcDbEntity
  8
Ebene_1
 62
7
100
AcDbSpline
 70
8
 71
3
 72
8
 73
4
 74
0
 40
0
 40
0
 40
0
 40
0
 40
1
 40
1
 40
1
 40
1
 10
39.452714
 20
197.299830
 30
0.0
 10
39.745781
 20
197.421270
 30
0.0
 10
41.008435
 20
197.965330
 30
0.0
 10
42.258735
 20
198.509240
 30
0.0
  0
SPLINE
  5
11b
100
AcDbEntity
  8
Ebene_1
 62
7
100
AcDbSpline
 70
8
 71
3
 72
8
 73
4
 74
0
 40
0
 40
0
 40
0
 40
0
 40
1
 40
1
 40
1
 40
1
 10
42.258735
 20
198.509240
 30
0.0
 10
56.583493
 20
204.741127
 30
0.0
 10
75.203518
 20
209.097125
 30
0.0
 10
91.913760
 20
210.125566
 30
0.0
  0
LWPOLYLINE
  5
11c
100
AcDbEntity
  8
Ebene_1
 62
7
100
AcDbPolyline
 90
1
 70
1
 10
46.410698
 20
282.790960
 30
0.0
  0
SPLINE
  5
11d
100
AcDbEntity
  8
Ebene_1
 62
7
100
AcDbSpline
 70
8
 71
3
 72
8
 73
4
 74
0
 40
0
 40
0
 40
0
 40
0
 40
1
 40
1
 40
1
 40
1
 10
101.412740
 20
200.460269
 30
0.0
 10
105.816700
 20
195.093910
 30
0.0
 10
109.468620
 20
190.756990
 30
0.0
 10
109.528170
 20
190.822670
 30
0.0
  0
SPLINE
  5
11e
100
AcDbEntity
  8
Ebene_1
 62
7
100
AcDbSpline
 70
8
 71
3
 72
8
 73
4
 74
0
 40
0
 40
0
 40
0
 40
0
 40
1
 40
1
 40
1
 40
1
 10
109.528170
 20
190.822670
 30
0.0
 10
109.587670
 20
190.888270
 30
0.0
 10
113.162070
 20
195.238570
 30
0.0
 10
117.471140
 20
200.489708
 30
0.0
  0
SPLINE
  5
11f
100
AcDbEntity
  8
Ebene_1
 62
7
100
AcDbSpline
 70
8
 71
3
 72
8
 73
4
 74
0
 40
0
 40
0
 40
0
 40
0
 40
1
 40
1
 40
1
 40
1
 10
117.471140
 20
200.489708
 30
0.0
 10
121.780230
 20
205.740830
 30
0.0
 10
125.371650
 20
210.077950
 30
0.0
 10
125.452100
 20
210.127672
 30
0.0
  0
SPLINE
  5
120
100
AcDbEntity
  8
Ebene_1
 62
7
100
AcDbSpline
 70
8
 71
3
 72
8
 73
4
 74
0
 40
0
 40
0
 40
0
 40
0
 40
1
 40
1
 40
1
 40
1
 10
125.452100
 20
210.127672
 30
0.0
 10
125.619880
 20
210.231350
 30
0.0
 10
129.203600
 20
210.000346
 30
0.0
 10
132.333970
 20
209.683821
 30
0.0
  0
SPLINE
  5
121
100
AcDbEntity
  8
Ebene_1
 62
7
100
AcDbSpline
 70
8
 71
3
 72
8
 73
4
 74
0
 40
0
 40
0
 40
0
 40
0
 40
1
 40
1
 40
1
 40
1
 10
132.333970
 20
209.683821
 30
0.0
 10
145.535170
 20
208.349389
 30
0.0
 10
158.793710
 20
205.294613
 30
0.0
 10
170.836210
 20
200.812916
 30
0.0
  0
SPLINE
  5
122
100
AcDbEntity
  8
Ebene_1
 62
7
100
AcDbSpline
 70
8
 71
3
 72
8
 73
4
 74
0
 40
0
 40
0
 40
0
 40
0
 40
1
 40
1
 40
1
 40
1
 10
170.836210
 20
200.812916
 30
0.0
 10
173.678310
 20
199.755240
 30
0.0
 10
178.249930
 20
197.867380
 30
0.0
 10
179.442250
 20
197.259120
 30
0.0
  0
LWPOLYLINE
  5
123
100
AcDbEntity
  8
Ebene_1
 62
7
100
AcDbPolyline
 90
3
 70
0
 10
91.913760
 20
210.125566
 30
0.0
 10
93.405491
 20
210.217356
 30
0.0
 10
101.412740
 20
200.460269
 30
0.0
  0
SPLINE
  5
124
100
AcDbEntity
  8
Ebene_1
 62
7
100
AcDbSpline
 70
8
 71
3
 72
8
 73
4
 74
0
 40
0
 40
0
 40
0
 40
0
 40
1
 40
1
 40
1
 40
1
 10
179.280740
 20
195.987110
 30
0.0
 10
176.488470
 20
192.148050
 30
0.0
 10
172.111040
 20
188.375390
 30
0.0
 10
166.690010
 20
185.135790
 30
0.0
  0
SPLINE
  5
125
100
AcDbEntity
  8
Ebene_1
 62
7
100
AcDbSpline
 70
8
 71
3
 72
8
 73
4
 74
0
 40
0
 40
0
 40
0
 40
0
 40
1
 40
1
 40
1
 40
1
 10
166.690010
 20
185.135790
 30
0.0
 10
165.199120
 20
184.244830
 30
0.0
 10
160.263750
 20
181.767710
 30
0.0
 10
159.590840
 20
181.572630
 30
0.0
  0
SPLINE
  5
126
100
AcDbEntity
  8
Ebene_1
 62
7
100
AcDbSpline
 70
8
 71
3
 72
8
 73
4
 74
0
 40
0
 40
0
 40
0
 40
0
 40
1
 40
1
 40
1
 40
1
 10
159.590840
 20
181.572630
 30
0.0
 10
159.313160
 20
181.492030
 30
0.0
 10
159.275900
 20
181.552630
 30
0.0
 10
159.183510
 20
182.235000
 30
0.0
  0
SPLINE
  5
127
100
AcDbEntity
  8
Ebene_1
 62
7
100
AcDbSpline
 70
8
 71
3
 72
8
 73
4
 74
0
 40
0
 40
0
 40
0
 40
0
 40
1
 40
1
 40
1
 40
1
 10
159.183510
 20
182.235000
 30
0.0
 10
159.127610
 20
182.648050
 30
0.0
 10
158.925630
 20
183.527750
 30
0.0
 10
158.734680
 20
184.189840
 30
0.0
  0
SPLINE
  5
128
100
AcDbEntity
  8
Ebene_1
 62
7
100
AcDbSpline
 70
8
 71
3
 72
8
 73
4
 74
0
 40
0
 40
0
 40
0
 40
0
 40
1
 40
1
 40
1
 40
1
 10
158.734680
 20
184.189840
 30
0.0
 10
157.231170
 20
189.403690
 30
0.0
 10
152.788770
 20
191.718930
 30
0.0
 10
142.634360
 20
192.580630
 30
0.0
  0
SPLINE
  5
129
100
AcDbEntity
  8
Ebene_1
 62
7
100
AcDbSpline
 70
8
 71
3
 72
8
 73
4
 74
0
 40
0
 40
0
 40
0
 40
0
 40
1
 40
1
 40
1
 40
1
 10
142.634360
 20
192.580630
 30
0.0
 10
140.423340
 20
192.768250
 30
0.0
 10
131.227930
 20
193.009060
 30
0.0
 10
131.112390
 20
192.882310
 30
0.0
  0
SPLINE
  5
12a
100
AcDbEntity
  8
Ebene_1
 62
7
100
AcDbSpline
 70
8
 71
3
 72
8
 73
4
 74
0
 40
0
 40
0
 40
0
 40
0
 40
1
 40
1
 40
1
 40
1
 10
131.112390
 20
192.882310
 30
0.0
 10
131.053190
 20
192.817410
 30
0.0
 10
113.301890
 20
93.237560
 30
0.0
 10
109.555550
 20
71.954720
 30
0.0
  0
LWPOLYLINE
  5
12b
100
AcDbEntity
  8
Ebene_1
 62
7
100
AcDbPolyline
 90
3
 70
0
 10
179.442250
 20
197.259120
 30
0.0
 10
179.999240
 20
196.974960
 30
0.0
 10
179.280740
 20
195.987110
 30
0.0
  0
SPLINE
  5
12c
100
AcDbEntity
  8
Ebene_1
 62
7
100
AcDbSpline
 70
8
 71
3
 72
8
 73
4
 74
0
 40
0
 40
0
 40
0
 40
0
 40
1
 40
1
 40
1
 40
1
 10
180.000000
 20
202.339554
 30
0.0
 10
163.031510
 20
209.495940
 30
0.0
 10
143.753260
 20
214.049807
 30
0.0
 10
124.519830
 20
215.444935
 30
0.0
  0
SPLINE
  5
12d
100
AcDbEntity
  8
Ebene_1
 62
7
100
AcDbSpline
 70
8
 71
3
 72
8
 73
4
 74
0
 40
0
 40
0
 40
0
 40
0
 40
1
 40
1
 40
1
 40
1
 10
124.519830
 20
215.444935
 30
0.0
 10
118.340580
 20
215.893162
 30
0.0
 10
105.503200
 20
216.039939
 30
0.0
 10
99.286944
 20
215.733448
 30
0.0
  0
SPLINE
  5
12e
100
AcDbEntity
  8
Ebene_1
 62
7
100
AcDbSpline
 70
8
 71
3
 72
8
 73
4
 74
0
 40
0
 40
0
 40
0
 40
0
 40
1
 40
1
 40
1
 40
1
 10
99.286944
 20
215.733448
 30
0.0
 10
77.744816
 20
214.671312
 30
0.0
 10
57.925617
 20
210.281118
 30
0.0
 10
38.878231
 20
202.352252
 30
0.0
  0
SPLINE
  5
12f
100
AcDbEntity
  8
Ebene_1
 62
7
100
AcDbSpline
 70
8
 71
3
 72
8
 73
4
 74
0
 40
0
 40
0
 40
0
 40
0
 40
1
 40
1
 40
1
 40
1
 10
38.878231
 20
202.352252
 30
0.0
 10
37.565926
 20
201.805995
 30
0.0
 10
36.410575
 20
201.390394
 30
0.0
 10
36.310691
 20
201.428701
 30
0.0
  0
SPLINE
  5
130
100
AcDbEntity
  8
Ebene_1
 62
7
100
AcDbSpline
 70
8
 71
3
 72
8
 73
4
 74
0
 40
0
 40
0
 40
0
 40
0
 40
1
 40
1
 40
1
 40
1
 10
36.310691
 20
201.428701
 30
0.0
 10
36.210581
 20
201.467221
 30
0.0
 10
35.389233
 20
202.991211
 30
0.0
 10
34.485004
 20
204.815805
 30
0.0
  0
SPLINE
  5
131
100
AcDbEntity
  8
Ebene_1
 62
7
100
AcDbSpline
 70
8
 71
3
 72
8
 73
4
 74
0
 40
0
 40
0
 40
0
 40
0
 40
1
 40
1
 40
1
 40
1
 10
34.485004
 20
204.815805
 30
0.0
 10
32.793100
 20
208.229528
 30
0.0
 10
32.004640
 20
210.002877
 30
0.0
 10
32.125153
 20
210.123391
 30
0.0
  0
SPLINE
  5
132
100
AcDbEntity
  8
Ebene_1
 62
7
100
AcDbSpline
 70
8
 71
3
 72
8
 73
4
 74
0
 40
0
 40
0
 40
0
 40
0
 40
1
 40
1
 40
1
 40
1
 10
32.125153
 20
210.123391
 30
0.0
 10
32.248590
 20
210.246781
 30
0.0
 10
37.215931
 20
212.123321
 30
0.0
 10
40.127580
 20
213.146601
 30
0.0
  0
SPLINE
  5
133
100
AcDbEntity
  8
Ebene_1
 62
7
100
AcDbSpline
 70
8
 71
3
 72
8
 73
4
 74
0
 40
0
 40
0
 40
0
 40
0
 40
1
 40
1
 40
1
 40
1
 10
40.127580
 20
213.146601
 30
0.0
 10
67.423366
 20
222.739656
 30
0.0
 10
96.574574
 20
226.715000
 30
0.0
 10
124.164680
 20
224.606790
 30
0.0
  0
SPLINE
  5
134
100
AcDbEntity
  8
Ebene_1
 62
7
100
AcDbSpline
 70
8
 71
3
 72
8
 73
4
 74
0
 40
0
 40
0
 40
0
 40
0
 40
1
 40
1
 40
1
 40
1
 10
124.164680
 20
224.606790
 30
0.0
 10
144.800470
 20
223.029978
 30
0.0
 10
164.248670
 20
218.677070
 30
0.0
 10
184.045690
 20
211.204181
 30
0.0
  0
SPLINE
  5
135
100
AcDbEntity
  8
Ebene_1
 62
7
100
AcDbSpline
 70
8
 71
3
 72
8
 73
4
 74
0
 40
0
 40
0
 40
0
 40
0
 40
1
 40
1
 40
1
 40
1
 10
184.045690
 20
211.204181
 30
0.0
 10
185.519640
 20
210.647818
 30
0.0
 10
186.750880
 20
210.167287
 30
0.0
 10
186.781860
 20
210.136315
 30
0.0
  0
SPLINE
  5
136
100
AcDbEntity
  8
Ebene_1
 62
7
100
AcDbSpline
 70
8
 71
3
 72
8
 73
4
 74
0
 40
0
 40
0
 40
0
 40
0
 40
1
 40
1
 40
1
 40
1
 10
186.781860
 20
210.136315
 30
0.0
 10
186.943700
 20
209.974497
 30
0.0
 10
182.985240
 20
201.710997
 30
0.0
 10
182.584170
 20
201.373320
 30
0.0
  0
SPLINE
  5
137
100
AcDbEntity
  8
Ebene_1
 62
7
100
AcDbSpline
 70
8
 71
3
 72
8
 73
4
 74
0
 40
0
 40
0
 40
0
 40
0
 40
1
 40
1
 40
1
 40
1
 10
182.584170
 20
201.373320
 30
0.0
 10
182.530270
 20
201.328030
 30
0.0
 10
181.367470
 20
201.762835
 30
0.0
 10
180.000000
 20
202.339554
 30
0.0
  0
LWPOLYLINE
  5
138
100
AcDbEntity
  8
Ebene_1
 62
7
100
AcDbPolyline
 90
3
 70
0
 10
109.555550
 20
71.954720
 30
0.0
 10
109.442950
 20
71.315410
 30
0.0
 10
109.348700
 20
71.812710
 30
0.0
  0
LWPOLYLINE
  5
139
100
AcDbEntity
  8
Ebene_1
 62
7
100
AcDbPolyline
 90
1
 70
1
 10
180.000000
 20
202.339554
 30
0.0
  0
LWPOLYLINE
  5
13a
100
AcDbEntity
  8
Ebene_1
 62
7
100
AcDbPolyline
 90
9
 70
1
 10
162.690240
 20
248.617974
 30
0.0
 10
162.690240
 20
234.762505
 30
0.0
 10
163.190240
 20
234.762505
 30
0.0
 10
167.975390
 20
234.762505
 30
0.0
 10
167.975390
 20
243.332817
 30
0.0
 10
184.116020
 20
243.332817
 30
0.0
 10
184.116020
 20
234.762505
 30
0.0
 10
189.401180
 20
234.762505
 30
0.0
 10
189.401180
 20
248.617974
 30
0.0
  0
SPLINE
  5
13b
100
AcDbEntity
  8
Ebene_1
 62
7
100
AcDbSpline
 70
8
 71
3
 72
8
 73
4
 74
0
 40
0
 40
0
 40
0
 40
0
 40
1
 40
1
 40
1
 40
1
 10
162.690240
 20
256.688286
 30
0.0
 10
162.690240
 20
255.389037
 30
0.0
 10
163.162300
 20
254.225114
 30
0.0
 10
164.069150
 20
253.293755
 30
0.0
  0
LWPOLYLINE
  5
13c
100
AcDbEntity
  8
Ebene_1
 62
7
100
AcDbPolyline
 90
2
 70
0
 10
162.690240
 20
257.188286
 30
0.0
 10
162.690240
 20
256.688286
 30
0.0
  0
SPLINE
  5
13d
100
AcDbEntity
  8
Ebene_1
 62
7
100
AcDbSpline
 70
8
 71
3
 72
8
 73
4
 74
0
 40
0
 40
0
 40
0
 40
0
 40
1
 40
1
 40
1
 40
1
 10
164.075150
 20
253.289755
 30
0.0
 10
164.986950
 20
252.377960
 30
0.0
 10
166.156130
 20
251.903036
 30
0.0
 10
167.475540
 20
251.903036
 30
0.0
  0
LWPOLYLINE
  5
13e
100
AcDbEntity
  8
Ebene_1
 62
7
100
AcDbPolyline
 90
3
 70
0
 10
164.069150
 20
253.293755
 30
0.0
 10
164.073150
 20
253.291755
 30
0.0
 10
164.075150
 20
253.289755
 30
0.0
  0
SPLINE
  5
13f
100
AcDbEntity
  8
Ebene_1
 62
7
100
AcDbSpline
 70
8
 71
3
 72
8
 73
4
 74
0
 40
0
 40
0
 40
0
 40
0
 40
1
 40
1
 40
1
 40
1
 10
184.616170
 20
251.903036
 30
0.0
 10
185.895340
 20
251.903036
 30
0.0
 10
187.047710
 20
252.378575
 30
0.0
 10
187.977500
 20
253.283895
 30
0.0
  0
SPLINE
  5
140
100
AcDbEntity
  8
Ebene_1
 62
7
100
AcDbSpline
 70
8
 71
3
 72
8
 73
4
 74
0
 40
0
 40
0
 40
0
 40
0
 40
1
 40
1
 40
1
 40
1
 10
187.977500
 20
253.283895
 30
0.0
 10
188.912720
 20
254.194507
 30
0.0
 10
189.401330
 20
255.365693
 30
0.0
 10
189.401330
 20
256.688192
 30
0.0
  0
LWPOLYLINE
  5
141
100
AcDbEntity
  8
Ebene_1
 62
7
100
AcDbPolyline
 90
2
 70
0
 10
167.475540
 20
251.903036
 30
0.0
 10
184.616170
 20
251.903036
 30
0.0
  0
LWPOLYLINE
  5
142
100
AcDbEntity
  8
Ebene_1
 62
7
100
AcDbPolyline
 90
3
 70
0
 10
189.401330
 20
256.688192
 30
0.0
 10
189.401330
 20
257.188192
 30
0.0
 10
162.690240
 20
257.188286
 30
0.0
  0
SPLINE
  5
143
100
AcDbEntity
  8
Ebene_1
 62
7
100
AcDbSpline
 70
8
 71
3
 72
8
 73
4
 74
0
 40
0
 40
0
 40
0
 40
0
 40
1
 40
1
 40
1
 40
1
 10
29.498830
 20
256.688286
 30
0.0
 10
29.498830
 20
255.389037
 30
0.0
 10
29.972840
 20
254.225114
 30
0.0
 10
30.879690
 20
253.293755
 30
0.0
  0
LWPOLYLINE
  5
144
100
AcDbEntity
  8
Ebene_1
 62
7
100
AcDbPolyline
 90
2
 70
0
 10
29.498830
 20
257.188286
 30
0.0
 10
29.498830
 20
256.688286
 30
0.0
  0
SPLINE
  5
145
100
AcDbEntity
  8
Ebene_1
 62
7
100
AcDbSpline
 70
8
 71
3
 72
8
 73
4
 74
0
 40
0
 40
0
 40
0
 40
0
 40
1
 40
1
 40
1
 40
1
 10
30.883690
 20
253.289755
 30
0.0
 10
31.795490
 20
252.377959
 30
0.0
 10
32.964670
 20
251.903036
 30
0.0
 10
34.284080
 20
251.903036
 30
0.0
  0
LWPOLYLINE
  5
146
100
AcDbEntity
  8
Ebene_1
 62
7
100
AcDbPolyline
 90
3
 70
0
 10
30.879690
 20
253.293755
 30
0.0
 10
30.881690
 20
253.291755
 30
0.0
 10
30.883690
 20
253.289755
 30
0.0
  0
SPLINE
  5
147
100
AcDbEntity
  8
Ebene_1
 62
7
100
AcDbSpline
 70
8
 71
3
 72
8
 73
4
 74
0
 40
0
 40
0
 40
0
 40
0
 40
1
 40
1
 40
1
 40
1
 10
51.424710
 20
251.903130
 30
0.0
 10
52.703880
 20
251.903130
 30
0.0
 10
53.856250
 20
252.378669
 30
0.0
 10
54.786040
 20
253.283989
 30
0.0
  0
SPLINE
  5
148
100
AcDbEntity
  8
Ebene_1
 62
7
100
AcDbSpline
 70
8
 71
3
 72
8
 73
4
 74
0
 40
0
 40
0
 40
0
 40
0
 40
1
 40
1
 40
1
 40
1
 10
54.786040
 20
253.283989
 30
0.0
 10
55.721260
 20
254.194600
 30
0.0
 10
56.209860
 20
255.365786
 30
0.0
 10
56.209860
 20
256.688286
 30
0.0
  0
LWPOLYLINE
  5
149
100
AcDbEntity
  8
Ebene_1
 62
7
100
AcDbPolyline
 90
7
 70
0
 10
34.284080
 20
251.903036
 30
0.0
 10
40.211820
 20
251.903036
 30
0.0
 10
40.211820
 20
234.762505
 30
0.0
 10
40.711820
 20
234.762505
 30
0.0
 10
45.496970
 20
234.762505
 30
0.0
 10
45.496970
 20
251.903130
 30
0.0
 10
51.424710
 20
251.903130
 30
0.0
  0
LWPOLYLINE
  5
14a
100
AcDbEntity
  8
Ebene_1
 62
7
100
AcDbPolyline
 90
3
 70
0
 10
56.209860
 20
256.688286
 30
0.0
 10
56.209860
 20
257.188286
 30
0.0
 10
29.498830
 20
257.188286
 30
0.0
  0
SPLINE
  5
14b
100
AcDbEntity
  8
Ebene_1
 62
7
100
AcDbSpline
 70
8
 71
3
 72
8
 73
4
 74
0
 40
0
 40
0
 40
0
 40
0
 40
1
 40
1
 40
1
 40
1
 10
62.795710
 20
239.547661
 30
0.0
 10
62.795710
 20
238.248412
 30
0.0
 10
63.269720
 20
237.084489
 30
0.0
 10
64.176570
 20
236.153130
 30
0.0
  0
LWPOLYLINE
  5
14c
100
AcDbEntity
  8
Ebene_1
 62
7
100
AcDbPolyline
 90
2
 70
0
 10
62.795710
 20
240.047661
 30
0.0
 10
62.795710
 20
239.547661
 30
0.0
  0
SPLINE
  5
14d
100
AcDbEntity
  8
Ebene_1
 62
7
100
AcDbSpline
 70
8
 71
3
 72
8
 73
4
 74
0
 40
0
 40
0
 40
0
 40
0
 40
1
 40
1
 40
1
 40
1
 10
64.180570
 20
236.147230
 30
0.0
 10
65.092360
 20
235.235434
 30
0.0
 10
66.261540
 20
234.762464
 30
0.0
 10
67.580960
 20
234.762464
 30
0.0
  0
LWPOLYLINE
  5
14e
100
AcDbEntity
  8
Ebene_1
 62
7
100
AcDbPolyline
 90
3
 70
0
 10
64.176570
 20
236.153130
 30
0.0
 10
64.178570
 20
236.151130
 30
0.0
 10
64.180570
 20
236.147230
 30
0.0
  0
SPLINE
  5
14f
100
AcDbEntity
  8
Ebene_1
 62
7
100
AcDbSpline
 70
8
 71
3
 72
8
 73
4
 74
0
 40
0
 40
0
 40
0
 40
0
 40
1
 40
1
 40
1
 40
1
 10
84.721580
 20
234.762464
 30
0.0
 10
86.000750
 20
234.762464
 30
0.0
 10
87.155080
 20
235.238003
 30
0.0
 10
88.084860
 20
236.143323
 30
0.0
  0
SPLINE
  5
150
100
AcDbEntity
  8
Ebene_1
 62
7
100
AcDbSpline
 70
8
 71
3
 72
8
 73
4
 74
0
 40
0
 40
0
 40
0
 40
0
 40
1
 40
1
 40
1
 40
1
 10
88.084860
 20
236.143323
 30
0.0
 10
89.020090
 20
237.053934
 30
0.0
 10
89.506740
 20
238.225120
 30
0.0
 10
89.506740
 20
239.547620
 30
0.0
  0
LWPOLYLINE
  5
151
100
AcDbEntity
  8
Ebene_1
 62
7
100
AcDbPolyline
 90
2
 70
0
 10
67.580960
 20
234.762464
 30
0.0
 10
84.721580
 20
234.762464
 30
0.0
  0
LWPOLYLINE
  5
152
100
AcDbEntity
  8
Ebene_1
 62
7
100
AcDbPolyline
 90
3
 70
0
 10
89.506740
 20
239.547620
 30
0.0
 10
89.506740
 20
240.047620
 30
0.0
 10
62.795710
 20
240.047661
 30
0.0
  0
SPLINE
  5
153
100
AcDbEntity
  8
Ebene_1
 62
7
100
AcDbSpline
 70
8
 71
3
 72
8
 73
4
 74
0
 40
0
 40
0
 40
0
 40
0
 40
1
 40
1
 40
1
 40
1
 10
62.795710
 20
248.117974
 30
0.0
 10
62.795710
 20
246.818724
 30
0.0
 10
63.269720
 20
245.654802
 30
0.0
 10
64.176570
 20
244.723443
 30
0.0
  0
LWPOLYLINE
  5
154
100
AcDbEntity
  8
Ebene_1
 62
7
100
AcDbPolyline
 90
2
 70
0
 10
62.795710
 20
248.617974
 30
0.0
 10
62.795710
 20
248.117974
 30
0.0
  0
SPLINE
  5
155
100
AcDbEntity
  8
Ebene_1
 62
7
100
AcDbSpline
 70
8
 71
3
 72
8
 73
4
 74
0
 40
0
 40
0
 40
0
 40
0
 40
1
 40
1
 40
1
 40
1
 10
64.180570
 20
244.717543
 30
0.0
 10
65.092360
 20
243.805748
 30
0.0
 10
66.261540
 20
243.332777
 30
0.0
 10
67.580960
 20
243.332777
 30
0.0
  0
LWPOLYLINE
  5
156
100
AcDbEntity
  8
Ebene_1
 62
7
100
AcDbPolyline
 90
3
 70
0
 10
64.176570
 20
244.723443
 30
0.0
 10
64.178570
 20
244.721443
 30
0.0
 10
64.180570
 20
244.717543
 30
0.0
  0
SPLINE
  5
157
100
AcDbEntity
  8
Ebene_1
 62
7
100
AcDbSpline
 70
8
 71
3
 72
8
 73
4
 74
0
 40
0
 40
0
 40
0
 40
0
 40
1
 40
1
 40
1
 40
1
 10
84.721580
 20
243.332777
 30
0.0
 10
86.000750
 20
243.332777
 30
0.0
 10
87.155080
 20
243.808316
 30
0.0
 10
88.084860
 20
244.713637
 30
0.0
  0
SPLINE
  5
158
100
AcDbEntity
  8
Ebene_1
 62
7
100
AcDbSpline
 70
8
 71
3
 72
8
 73
4
 74
0
 40
0
 40
0
 40
0
 40
0
 40
1
 40
1
 40
1
 40
1
 10
88.084860
 20
244.713637
 30
0.0
 10
89.020090
 20
245.624248
 30
0.0
 10
89.506740
 20
246.795434
 30
0.0
 10
89.506740
 20
248.117934
 30
0.0
  0
LWPOLYLINE
  5
159
100
AcDbEntity
  8
Ebene_1
 62
7
100
AcDbPolyline
 90
2
 70
0
 10
67.580960
 20
243.332777
 30
0.0
 10
84.721580
 20
243.332777
 30
0.0
  0
LWPOLYLINE
  5
15a
100
AcDbEntity
  8
Ebene_1
 62
7
100
AcDbPolyline
 90
3
 70
0
 10
89.506740
 20
248.117934
 30
0.0
 10
89.506740
 20
248.617934
 30
0.0
 10
62.795710
 20
248.617974
 30
0.0
  0
SPLINE
  5
15b
100
AcDbEntity
  8
Ebene_1
 62
7
100
AcDbSpline
 70
8
 71
3
 72
8
 73
4
 74
0
 40
0
 40
0
 40
0
 40
0
 40
1
 40
1
 40
1
 40
1
 10
62.795710
 20
256.688286
 30
0.0
 10
62.795710
 20
255.389037
 30
0.0
 10
63.269720
 20
254.225114
 30
0.0
 10
64.176570
 20
253.293755
 30
0.0
  0
LWPOLYLINE
  5
15c
100
AcDbEntity
  8
Ebene_1
 62
7
100
AcDbPolyline
 90
2
 70
0
 10
62.795710
 20
257.188286
 30
0.0
 10
62.795710
 20
256.688286
 30
0.0
  0
SPLINE
  5
15d
100
AcDbEntity
  8
Ebene_1
 62
7
100
AcDbSpline
 70
8
 71
3
 72
8
 73
4
 74
0
 40
0
 40
0
 40
0
 40
0
 40
1
 40
1
 40
1
 40
1
 10
64.180570
 20
253.289755
 30
0.0
 10
65.092360
 20
252.377959
 30
0.0
 10
66.261540
 20
251.903036
 30
0.0
 10
67.580960
 20
251.903036
 30
0.0
  0
LWPOLYLINE
  5
15e
100
AcDbEntity
  8
Ebene_1
 62
7
100
AcDbPolyline
 90
3
 70
0
 10
64.176570
 20
253.293755
 30
0.0
 10
64.178570
 20
253.291755
 30
0.0
 10
64.180570
 20
253.289755
 30
0.0
  0
SPLINE
  5
15f
100
AcDbEntity
  8
Ebene_1
 62
7
100
AcDbSpline
 70
8
 71
3
 72
8
 73
4
 74
0
 40
0
 40
0
 40
0
 40
0
 40
1
 40
1
 40
1
 40
1
 10
84.721580
 20
251.903036
 30
0.0
 10
86.000750
 20
251.903036
 30
0.0
 10
87.155080
 20
252.378575
 30
0.0
 10
88.084860
 20
253.283895
 30
0.0
  0
SPLINE
  5
160
100
AcDbEntity
  8
Ebene_1
 62
7
100
AcDbSpline
 70
8
 71
3
 72
8
 73
4
 74
0
 40
0
 40
0
 40
0
 40
0
 40
1
 40
1
 40
1
 40
1
 10
88.084860
 20
253.283895
 30
0.0
 10
89.020090
 20
254.194506
 30
0.0
 10
89.506740
 20
255.365692
 30
0.0
 10
89.506740
 20
256.688192
 30
0.0
  0
LWPOLYLINE
  5
161
100
AcDbEntity
  8
Ebene_1
 62
7
100
AcDbPolyline
 90
2
 70
0
 10
67.580960
 20
251.903036
 30
0.0
 10
84.721580
 20
251.903036
 30
0.0
  0
LWPOLYLINE
  5
162
100
AcDbEntity
  8
Ebene_1
 62
7
100
AcDbPolyline
 90
3
 70
0
 10
89.506740
 20
256.688192
 30
0.0
 10
89.506740
 20
257.188192
 30
0.0
 10
62.795710
 20
257.188286
 30
0.0
  0
SPLINE
  5
163
100
AcDbEntity
  8
Ebene_1
 62
7
100
AcDbSpline
 70
8
 71
3
 72
8
 73
4
 74
0
 40
0
 40
0
 40
0
 40
0
 40
1
 40
1
 40
1
 40
1
 10
100.879690
 20
240.047661
 30
0.0
 10
99.577300
 20
240.047661
 30
0.0
 10
98.409600
 20
239.559993
 30
0.0
 10
97.479300
 20
238.629693
 30
0.0
  0
SPLINE
  5
164
100
AcDbEntity
  8
Ebene_1
 62
7
100
AcDbSpline
 70
8
 71
3
 72
8
 73
4
 74
0
 40
0
 40
0
 40
0
 40
0
 40
1
 40
1
 40
1
 40
1
 10
97.479300
 20
238.629693
 30
0.0
 10
96.569100
 20
237.719489
 30
0.0
 10
96.094540
 20
236.561754
 30
0.0
 10
96.094540
 20
235.262505
 30
0.0
  0
LWPOLYLINE
  5
165
100
AcDbEntity
  8
Ebene_1
 62
7
100
AcDbPolyline
 90
5
 70
0
 10
96.094540
 20
257.188286
 30
0.0
 10
96.094540
 20
243.332817
 30
0.0
 10
117.520320
 20
243.332817
 30
0.0
 10
117.520320
 20
240.047661
 30
0.0
 10
100.879690
 20
240.047661
 30
0.0
  0
SPLINE
  5
166
100
AcDbEntity
  8
Ebene_1
 62
7
100
AcDbSpline
 70
8
 71
3
 72
8
 73
4
 74
0
 40
0
 40
0
 40
0
 40
0
 40
1
 40
1
 40
1
 40
1
 10
118.020320
 20
251.903130
 30
0.0
 10
119.299490
 20
251.903130
 30
0.0
 10
120.451860
 20
252.378669
 30
0.0
 10
121.381650
 20
253.283989
 30
0.0
  0
SPLINE
  5
167
100
AcDbEntity
  8
Ebene_1
 62
7
100
AcDbSpline
 70
8
 71
3
 72
8
 73
4
 74
0
 40
0
 40
0
 40
0
 40
0
 40
1
 40
1
 40
1
 40
1
 10
121.381650
 20
253.283989
 30
0.0
 10
122.316870
 20
254.194601
 30
0.0
 10
122.805470
 20
255.365787
 30
0.0
 10
122.805470
 20
256.688286
 30
0.0
  0
LWPOLYLINE
  5
168
100
AcDbEntity
  8
Ebene_1
 62
7
100
AcDbPolyline
 90
8
 70
0
 10
96.094540
 20
235.262505
 30
0.0
 10
96.094540
 20
234.762505
 30
0.0
 10
96.594540
 20
234.762505
 30
0.0
 10
122.805470
 20
234.762505
 30
0.0
 10
122.805470
 20
248.617974
 30
0.0
 10
101.379690
 20
248.617974
 30
0.0
 10
101.379690
 20
251.903130
 30
0.0
 10
118.020320
 20
251.903130
 30
0.0
  0
LWPOLYLINE
  5
169
100
AcDbEntity
  8
Ebene_1
 62
7
100
AcDbPolyline
 90
3
 70
0
 10
122.805470
 20
256.688286
 30
0.0
 10
122.805470
 20
257.188286
 30
0.0
 10
96.094540
 20
257.188286
 30
0.0
  0
SPLINE
  5
16a
100
AcDbEntity
  8
Ebene_1
 62
7
100
AcDbSpline
 70
8
 71
3
 72
8
 73
4
 74
0
 40
0
 40
0
 40
0
 40
0
 40
1
 40
1
 40
1
 40
1
 10
151.317190
 20
234.762505
 30
0.0
 10
152.596360
 20
234.762505
 30
0.0
 10
153.750690
 20
235.238044
 30
0.0
 10
154.680470
 20
236.143364
 30
0.0
  0
SPLINE
  5
16b
100
AcDbEntity
  8
Ebene_1
 62
7
100
AcDbSpline
 70
8
 71
3
 72
8
 73
4
 74
0
 40
0
 40
0
 40
0
 40
0
 40
1
 40
1
 40
1
 40
1
 10
154.680470
 20
236.143364
 30
0.0
 10
155.615690
 20
237.053976
 30
0.0
 10
156.102350
 20
238.225162
 30
0.0
 10
156.102350
 20
239.547661
 30
0.0
  0
LWPOLYLINE
  5
16c
100
AcDbEntity
  8
Ebene_1
 62
7
100
AcDbPolyline
 90
4
 70
0
 10
129.391410
 20
257.188286
 30
0.0
 10
129.391410
 20
234.762505
 30
0.0
 10
129.891410
 20
234.762505
 30
0.0
 10
151.317190
 20
234.762505
 30
0.0
  0
SPLINE
  5
16d
100
AcDbEntity
  8
Ebene_1
 62
7
100
AcDbSpline
 70
8
 71
3
 72
8
 73
4
 74
0
 40
0
 40
0
 40
0
 40
0
 40
1
 40
1
 40
1
 40
1
 10
34.304320
 20
32.111010
 30
0.0
 10
34.304320
 20
31.447969
 30
0.0
 10
34.040928
 20
30.812084
 30
0.0
 10
33.572087
 20
30.343243
 30
0.0
  0
SPLINE
  5
16e
100
AcDbEntity
  8
Ebene_1
 62
7
100
AcDbSpline
 70
8
 71
3
 72
8
 73
4
 74
0
 40
0
 40
0
 40
0
 40
0
 40
1
 40
1
 40
1
 40
1
 10
33.572087
 20
30.343243
 30
0.0
 10
33.103246
 20
29.874402
 30
0.0
 10
32.467361
 20
29.611010
 30
0.0
 10
31.804320
 20
29.611010
 30
0.0
  0
SPLINE
  5
16f
100
AcDbEntity
  8
Ebene_1
 62
7
100
AcDbSpline
 70
8
 71
3
 72
8
 73
4
 74
0
 40
0
 40
0
 40
0
 40
0
 40
1
 40
1
 40
1
 40
1
 10
31.804320
 20
29.611010
 30
0.0
 10
31.141279
 20
29.611010
 30
0.0
 10
30.505394
 20
29.874402
 30
0.0
 10
30.036553
 20
30.343243
 30
0.0
  0
SPLINE
  5
170
100
AcDbEntity
  8
Ebene_1
 62
7
100
AcDbSpline
 70
8
 71
3
 72
8
 73
4
 74
0
 40
0
 40
0
 40
0
 40
0
 40
1
 40
1
 40
1
 40
1
 10
30.036553
 20
30.343243
 30
0.0
 10
29.567712
 20
30.812084
 30
0.0
 10
29.304320
 20
31.447969
 30
0.0
 10
29.304320
 20
32.111010
 30
0.0
  0
SPLINE
  5
171
100
AcDbEntity
  8
Ebene_1
 62
7
100
AcDbSpline
 70
8
 71
3
 72
8
 73
4
 74
0
 40
0
 40
0
 40
0
 40
0
 40
1
 40
1
 40
1
 40
1
 10
29.304320
 20
32.111010
 30
0.0
 10
29.304320
 20
32.774051
 30
0.0
 10
29.567712
 20
33.409936
 30
0.0
 10
30.036553
 20
33.878777
 30
0.0
  0
SPLINE
  5
172
100
AcDbEntity
  8
Ebene_1
 62
7
100
AcDbSpline
 70
8
 71
3
 72
8
 73
4
 74
0
 40
0
 40
0
 40
0
 40
0
 40
1
 40
1
 40
1
 40
1
 10
30.036553
 20
33.878777
 30
0.0
 10
30.505394
 20
34.347618
 30
0.0
 10
31.141279
 20
34.611010
 30
0.0
 10
31.804320
 20
34.611010
 30
0.0
  0
SPLINE
  5
173
100
AcDbEntity
  8
Ebene_1
 62
7
100
AcDbSpline
 70
8
 71
3
 72
8
 73
4
 74
0
 40
0
 40
0
 40
0
 40
0
 40
1
 40
1
 40
1
 40
1
 10
31.804320
 20
34.611010
 30
0.0
 10
32.467361
 20
34.611010
 30
0.0
 10
33.103246
 20
34.347618
 30
0.0
 10
33.572087
 20
33.878777
 30
0.0
  0
SPLINE
  5
174
100
AcDbEntity
  8
Ebene_1
 62
7
100
AcDbSpline
 70
8
 71
3
 72
8
 73
4
 74
0
 40
0
 40
0
 40
0
 40
0
 40
1
 40
1
 40
1
 40
1
 10
33.572087
 20
33.878777
 30
0.0
 10
34.040928
 20
33.409936
 30
0.0
 10
34.304320
 20
32.774051
 30
0.0
 10
34.304320
 20
32.111010
 30
0.0
  0
LWPOLYLINE
  5
175
100
AcDbEntity
  8
Ebene_1
 62
7
100
AcDbPolyline
 90
5
 70
0
 10
156.102350
 20
239.547661
 30
0.0
 10
156.102350
 20
240.047661
 30
0.0
 10
134.676570
 20
240.047661
 30
0.0
 10
134.676570
 20
257.188286
 30
0.0
 10
129.391410
 20
257.188286
 30
0.0
  0
SPLINE
  5
176
100
AcDbEntity
  8
Ebene_1
 62
7
100
AcDbSpline
 70
8
 71
3
 72
8
 73
4
 74
0
 40
0
 40
0
 40
0
 40
0
 40
1
 40
1
 40
1
 40
1
 10
189.218000
 20
32.402670
 30
0.0
 10
189.218000
 20
31.739629
 30
0.0
 10
188.954608
 20
31.103744
 30
0.0
 10
188.485767
 20
30.634903
 30
0.0
  0
SPLINE
  5
177
100
AcDbEntity
  8
Ebene_1
 62
7
100
AcDbSpline
 70
8
 71
3
 72
8
 73
4
 74
0
 40
0
 40
0
 40
0
 40
0
 40
1
 40
1
 40
1
 40
1
 10
188.485767
 20
30.634903
 30
0.0
 10
188.016926
 20
30.166062
 30
0.0
 10
187.381041
 20
29.902670
 30
0.0
 10
186.718000
 20
29.902670
 30
0.0
  0
SPLINE
  5
178
100
AcDbEntity
  8
Ebene_1
 62
7
100
AcDbSpline
 70
8
 71
3
 72
8
 73
4
 74
0
 40
0
 40
0
 40
0
 40
0
 40
1
 40
1
 40
1
 40
1
 10
186.718000
 20
29.902670
 30
0.0
 10
186.054959
 20
29.902670
 30
0.0
 10
185.419074
 20
30.166062
 30
0.0
 10
184.950233
 20
30.634903
 30
0.0
  0
SPLINE
  5
179
100
AcDbEntity
  8
Ebene_1
 62
7
100
AcDbSpline
 70
8
 71
3
 72
8
 73
4
 74
0
 40
0
 40
0
 40
0
 40
0
 40
1
 40
1
 40
1
 40
1
 10
184.950233
 20
30.634903
 30
0.0
 10
184.481392
 20
31.103744
 30
0.0
 10
184.218000
 20
31.739629
 30
0.0
 10
184.218000
 20
32.402670
 30
0.0
  0
SPLINE
  5
17a
100
AcDbEntity
  8
Ebene_1
 62
7
100
AcDbSpline
 70
8
 71
3
 72
8
 73
4
 74
0
 40
0
 40
0
 40
0
 40
0
 40
1
 40
1
 40
1
 40
1
 10
184.218000
 20
32.402670
 30
0.0
 10
184.218000
 20
33.065711
 30
0.0
 10
184.481392
 20
33.701596
 30
0.0
 10
184.950233
 20
34.170437
 30
0.0
  0
SPLINE
  5
17b
100
AcDbEntity
  8
Ebene_1
 62
7
100
AcDbSpline
 70
8
 71
3
 72
8
 73
4
 74
0
 40
0
 40
0
 40
0
 40
0
 40
1
 40
1
 40
1
 40
1
 10
184.950233
 20
34.170437
 30
0.0
 10
185.419074
 20
34.639278
 30
0.0
 10
186.054959
 20
34.902670
 30
0.0
 10
186.718000
 20
34.902670
 30
0.0
  0
SPLINE
  5
17c
100
AcDbEntity
  8
Ebene_1
 62
7
100
AcDbSpline
 70
8
 71
3
 72
8
 73
4
 74
0
 40
0
 40
0
 40
0
 40
0
 40
1
 40
1
 40
1
 40
1
 10
186.718000
 20
34.902670
 30
0.0
 10
187.381041
 20
34.902670
 30
0.0
 10
188.016926
 20
34.639278
 30
0.0
 10
188.485767
 20
34.170437
 30
0.0
  0
SPLINE
  5
17d
100
AcDbEntity
  8
Ebene_1
 62
7
100
AcDbSpline
 70
8
 71
3
 72
8
 73
4
 74
0
 40
0
 40
0
 40
0
 40
0
 40
1
 40
1
 40
1
 40
1
 10
188.485767
 20
34.170437
 30
0.0
 10
188.954608
 20
33.701596
 30
0.0
 10
189.218000
 20
33.065711
 30
0.0
 10
189.218000
 20
32.402670
 30
0.0
  0
LWPOLYLINE
  5
17e
100
AcDbEntity
  8
Ebene_1
 62
7
100
AcDbPolyline
 90
1
 70
1
 10
34.304320
 20
32.111010
 30
0.0
  0
SPLINE
  5
17f
100
AcDbEntity
  8
Ebene_1
 62
7
100
AcDbSpline
 70
8
 71
3
 72
8
 73
4
 74
0
 40
0
 40
0
 40
0
 40
0
 40
1
 40
1
 40
1
 40
1
 10
189.595975
 20
267.488979
 30
0.0
 10
189.595975
 20
266.825938
 30
0.0
 10
189.332583
 20
266.190053
 30
0.0
 10
188.863742
 20
265.721212
 30
0.0
  0
SPLINE
  5
180
100
AcDbEntity
  8
Ebene_1
 62
7
100
AcDbSpline
 70
8
 71
3
 72
8
 73
4
 74
0
 40
0
 40
0
 40
0
 40
0
 40
1
 40
1
 40
1
 40
1
 10
188.863742
 20
265.721212
 30
0.0
 10
188.394901
 20
265.252371
 30
0.0
 10
187.759016
 20
264.988979
 30
0.0
 10
187.095975
 20
264.988979
 30
0.0
  0
SPLINE
  5
181
100
AcDbEntity
  8
Ebene_1
 62
7
100
AcDbSpline
 70
8
 71
3
 72
8
 73
4
 74
0
 40
0
 40
0
 40
0
 40
0
 40
1
 40
1
 40
1
 40
1
 10
187.095975
 20
264.988979
 30
0.0
 10
186.432934
 20
264.988979
 30
0.0
 10
185.797049
 20
265.252371
 30
0.0
 10
185.328208
 20
265.721212
 30
0.0
  0
SPLINE
  5
182
100
AcDbEntity
  8
Ebene_1
 62
7
100
AcDbSpline
 70
8
 71
3
 72
8
 73
4
 74
0
 40
0
 40
0
 40
0
 40
0
 40
1
 40
1
 40
1
 40
1
 10
185.328208
 20
265.721212
 30
0.0
 10
184.859367
 20
266.190053
 30
0.0
 10
184.595975
 20
266.825938
 30
0.0
 10
184.595975
 20
267.488979
 30
0.0
  0
SPLINE
  5
183
100
AcDbEntity
  8
Ebene_1
 62
7
100
AcDbSpline
 70
8
 71
3
 72
8
 73
4
 74
0
 40
0
 40
0
 40
0
 40
0
 40
1
 40
1
 40
1
 40
1
 10
184.595975
 20
267.488979
 30
0.0
 10
184.595975
 20
268.152020
 30
0.0
 10
184.859367
 20
268.787905
 30
0.0
 10
185.328208
 20
269.256746
 30
0.0
  0
SPLINE
  5
184
100
AcDbEntity
  8
Ebene_1
 62
7
100
AcDbSpline
 70
8
 71
3
 72
8
 73
4
 74
0
 40
0
 40
0
 40
0
 40
0
 40
1
 40
1
 40
1
 40
1
 10
185.328208
 20
269.256746
 30
0.0
 10
185.797049
 20
269.725587
 30
0.0
 10
186.432934
 20
269.988979
 30
0.0
 10
187.095975
 20
269.988979
 30
0.0
  0
SPLINE
  5
185
100
AcDbEntity
  8
Ebene_1
 62
7
100
AcDbSpline
 70
8
 71
3
 72
8
 73
4
 74
0
 40
0
 40
0
 40
0
 40
0
 40
1
 40
1
 40
1
 40
1
 10
187.095975
 20
269.988979
 30
0.0
 10
187.759016
 20
269.988979
 30
0.0
 10
188.394901
 20
269.725587
 30
0.0
 10
188.863742
 20
269.256746
 30
0.0
  0
SPLINE
  5
186
100
AcDbEntity
  8
Ebene_1
 62
7
100
AcDbSpline
 70
8
 71
3
 72
8
 73
4
 74
0
 40
0
 40
0
 40
0
 40
0
 40
1
 40
1
 40
1
 40
1
 10
188.863742
 20
269.256746
 30
0.0
 10
189.332583
 20
268.787905
 30
0.0
 10
189.595975
 20
268.152020
 30
0.0
 10
189.595975
 20
267.488979
 30
0.0
  0
LWPOLYLINE
  5
187
100
AcDbEntity
  8
Ebene_1
 62
7
100
AcDbPolyline
 90
1
 70
1
 10
189.218000
 20
32.402670
 30
0.0
  0
SPLINE
  5
188
100
AcDbEntity
  8
Ebene_1
 62
7
100
AcDbSpline
 70
8
 71
3
 72
8
 73
4
 74
0
 40
0
 40
0
 40
0
 40
0
 40
1
 40
1
 40
1
 40
1
 10
34.595980
 20
267.488979
 30
0.0
 10
34.595980
 20
266.825938
 30
0.0
 10
34.332588
 20
266.190053
 30
0.0
 10
33.863747
 20
265.721212
 30
0.0
  0
SPLINE
  5
189
100
AcDbEntity
  8
Ebene_1
 62
7
100
AcDbSpline
 70
8
 71
3
 72
8
 73
4
 74
0
 40
0
 40
0
 40
0
 40
0
 40
1
 40
1
 40
1
 40
1
 10
33.863747
 20
265.721212
 30
0.0
 10
33.394906
 20
265.252371
 30
0.0
 10
32.759021
 20
264.988979
 30
0.0
 10
32.095980
 20
264.988979
 30
0.0
  0
SPLINE
  5
18a
100
AcDbEntity
  8
Ebene_1
 62
7
100
AcDbSpline
 70
8
 71
3
 72
8
 73
4
 74
0
 40
0
 40
0
 40
0
 40
0
 40
1
 40
1
 40
1
 40
1
 10
32.095980
 20
264.988979
 30
0.0
 10
31.432939
 20
264.988979
 30
0.0
 10
30.797054
 20
265.252371
 30
0.0
 10
30.328213
 20
265.721212
 30
0.0
  0
SPLINE
  5
18b
100
AcDbEntity
  8
Ebene_1
 62
7
100
AcDbSpline
 70
8
 71
3
 72
8
 73
4
 74
0
 40
0
 40
0
 40
0
 40
0
 40
1
 40
1
 40
1
 40
1
 10
30.328213
 20
265.721212
 30
0.0
 10
29.859372
 20
266.190053
 30
0.0
 10
29.595980
 20
266.825938
 30
0.0
 10
29.595980
 20
267.488979
 30
0.0
  0
SPLINE
  5
18c
100
AcDbEntity
  8
Ebene_1
 62
7
100
AcDbSpline
 70
8
 71
3
 72
8
 73
4
 74
0
 40
0
 40
0
 40
0
 40
0
 40
1
 40
1
 40
1
 40
1
 10
29.595980
 20
267.488979
 30
0.0
 10
29.595980
 20
268.152020
 30
0.0
 10
29.859372
 20
268.787905
 30
0.0
 10
30.328213
 20
269.256746
 30
0.0
  0
SPLINE
  5
18d
100
AcDbEntity
  8
Ebene_1
 62
7
100
AcDbSpline
 70
8
 71
3
 72
8
 73
4
 74
0
 40
0
 40
0
 40
0
 40
0
 40
1
 40
1
 40
1
 40
1
 10
30.328213
 20
269.256746
 30
0.0
 10
30.797054
 20
269.725587
 30
0.0
 10
31.432939
 20
269.988979
 30
0.0
 10
32.095980
 20
269.988979
 30
0.0
  0
SPLINE
  5
18e
100
AcDbEntity
  8
Ebene_1
 62
7
100
AcDbSpline
 70
8
 71
3
 72
8
 73
4
 74
0
 40
0
 40
0
 40
0
 40
0
 40
1
 40
1
 40
1
 40
1
 10
32.095980
 20
269.988979
 30
0.0
 10
32.759021
 20
269.988979
 30
0.0
 10
33.394906
 20
269.725587
 30
0.0
 10
33.863747
 20
269.256746
 30
0.0
  0
SPLINE
  5
18f
100
AcDbEntity
  8
Ebene_1
 62
7
100
AcDbSpline
 70
8
 71
3
 72
8
 73
4
 74
0
 40
0
 40
0
 40
0
 40
0
 40
1
 40
1
 40
1
 40
1
 10
33.863747
 20
269.256746
 30
0.0
 10
34.332588
 20
268.787905
 30
0.0
 10
34.595980
 20
268.152020
 30
0.0
 10
34.595980
 20
267.488979
 30
0.0
  0
LWPOLYLINE
  5
190
100
AcDbEntity
  8
Ebene_1
 62
7
100
AcDbPolyline
 90
1
 70
1
 10
189.595975
 20
267.488979
 30
0.0
  0
SPLINE
  5
191
100
AcDbEntity
  8
Ebene_1
 62
7
100
AcDbSpline
 70
8
 71
3
 72
8
 73
4
 74
0
 40
0
 40
0
 40
0
 40
0
 40
1
 40
1
 40
1
 40
1
 10
90.344073
 20
67.805970
 30
0.0
 10
84.035907
 20
67.805970
 30
0.0
 10
80.042009
 20
62.543420
 30
0.0
 10
80.042009
 20
56.266950
 30
0.0
  0
LWPOLYLINE
  5
192
100
AcDbEntity
  8
Ebene_1
 62
7
100
AcDbPolyline
 90
1
 70
1
 10
34.595980
 20
267.488979
 30
0.0
  0
SPLINE
  5
193
100
AcDbEntity
  8
Ebene_1
 62
7
100
AcDbSpline
 70
8
 71
3
 72
8
 73
4
 74
0
 40
0
 40
0
 40
0
 40
0
 40
1
 40
1
 40
1
 40
1
 10
80.042009
 20
56.203650
 30
0.0
 10
80.042009
 20
49.927180
 30
0.0
 10
83.940875
 20
44.728770
 30
0.0
 10
90.280745
 20
44.728770
 30
0.0
  0
SPLINE
  5
194
100
AcDbEntity
  8
Ebene_1
 62
7
100
AcDbSpline
 70
8
 71
3
 72
8
 73
4
 74
0
 40
0
 40
0
 40
0
 40
0
 40
1
 40
1
 40
1
 40
1
 10
90.280745
 20
44.728770
 30
0.0
 10
96.620618
 20
44.728770
 30
0.0
 10
100.582810
 20
49.990510
 30
0.0
 10
100.582810
 20
56.266980
 30
0.0
  0
LWPOLYLINE
  5
195
100
AcDbEntity
  8
Ebene_1
 62
7
100
AcDbPolyline
 90
2
 70
0
 10
80.042009
 20
56.266950
 30
0.0
 10
80.042009
 20
56.203650
 30
0.0
  0
SPLINE
  5
196
100
AcDbEntity
  8
Ebene_1
 62
7
100
AcDbSpline
 70
8
 71
3
 72
8
 73
4
 74
0
 40
0
 40
0
 40
0
 40
0
 40
1
 40
1
 40
1
 40
1
 10
100.582810
 20
56.330280
 30
0.0
 10
100.582810
 20
62.606750
 30
0.0
 10
96.652243
 20
67.805970
 30
0.0
 10
90.344073
 20
67.805970
 30
0.0
  0
LWPOLYLINE
  5
197
100
AcDbEntity
  8
Ebene_1
 62
7
100
AcDbPolyline
 90
2
 70
0
 10
100.582810
 20
56.266980
 30
0.0
 10
100.582810
 20
56.330280
 30
0.0
  0
SPLINE
  5
198
100
AcDbEntity
  8
Ebene_1
 62
7
100
AcDbSpline
 70
8
 71
3
 72
8
 73
4
 74
0
 40
0
 40
0
 40
0
 40
0
 40
1
 40
1
 40
1
 40
1
 10
113.499860
 20
67.805970
 30
0.0
 10
107.191700
 20
67.805970
 30
0.0
 10
103.197000
 20
62.543420
 30
0.0
 10
103.197000
 20
56.266950
 30
0.0
  0
LWPOLYLINE
  5
199
100
AcDbEntity
  8
Ebene_1
 62
7
100
AcDbPolyline
 90
1
 70
1
 10
90.344073
 20
67.805970
 30
0.0
  0
SPLINE
  5
19a
100
AcDbEntity
  8
Ebene_1
 62
7
100
AcDbSpline
 70
8
 71
3
 72
8
 73
4
 74
0
 40
0
 40
0
 40
0
 40
0
 40
1
 40
1
 40
1
 40
1
 10
103.197000
 20
56.203650
 30
0.0
 10
103.197000
 20
49.927180
 30
0.0
 10
107.095860
 20
44.728770
 30
0.0
 10
113.435740
 20
44.728770
 30
0.0
  0
SPLINE
  5
19b
100
AcDbEntity
  8
Ebene_1
 62
7
100
AcDbSpline
 70
8
 71
3
 72
8
 73
4
 74
0
 40
0
 40
0
 40
0
 40
0
 40
1
 40
1
 40
1
 40
1
 10
113.435740
 20
44.728770
 30
0.0
 10
119.775600
 20
44.728770
 30
0.0
 10
123.738600
 20
49.990510
 30
0.0
 10
123.738600
 20
56.266980
 30
0.0
  0
LWPOLYLINE
  5
19c
100
AcDbEntity
  8
Ebene_1
 62
7
100
AcDbPolyline
 90
2
 70
0
 10
103.197000
 20
56.266950
 30
0.0
 10
103.197000
 20
56.203650
 30
0.0
  0
SPLINE
  5
19d
100
AcDbEntity
  8
Ebene_1
 62
7
100
AcDbSpline
 70
8
 71
3
 72
8
 73
4
 74
0
 40
0
 40
0
 40
0
 40
0
 40
1
 40
1
 40
1
 40
1
 10
123.738600
 20
56.330280
 30
0.0
 10
123.738600
 20
62.606750
 30
0.0
 10
119.808030
 20
67.805970
 30
0.0
 10
113.499860
 20
67.805970
 30
0.0
  0
LWPOLYLINE
  5
19e
100
AcDbEntity
  8
Ebene_1
 62
7
100
AcDbPolyline
 90
2
 70
0
 10
123.738600
 20
56.266980
 30
0.0
 10
123.738600
 20
56.330280
 30
0.0
  0
SPLINE
  5
19f
100
AcDbEntity
  8
Ebene_1
 62
7
100
AcDbSpline
 70
8
 71
3
 72
8
 73
4
 74
0
 40
0
 40
0
 40
0
 40
0
 40
1
 40
1
 40
1
 40
1
 10
131.900250
 20
67.679300
 30
0.0
 10
128.413310
 20
67.679300
 30
0.0
 10
126.162810
 20
64.984830
 30
0.0
 10
126.162810
 20
61.719800
 30
0.0
  0
LWPOLYLINE
  5
1a0
100
AcDbEntity
  8
Ebene_1
 62
7
100
AcDbPolyline
 90
1
 70
1
 10
113.499860
 20
67.805970
 30
0.0
  0
SPLINE
  5
1a1
100
AcDbEntity
  8
Ebene_1
 62
7
100
AcDbSpline
 70
8
 71
3
 72
8
 73
4
 74
0
 40
0
 40
0
 40
0
 40
0
 40
1
 40
1
 40
1
 40
1
 10
126.162810
 20
61.655700
 30
0.0
 10
126.162810
 20
58.390670
 30
0.0
 10
128.444660
 20
55.728270
 30
0.0
 10
131.868170
 20
55.728270
 30
0.0
  0
SPLINE
  5
1a2
100
AcDbEntity
  8
Ebene_1
 62
7
100
AcDbSpline
 70
8
 71
3
 72
8
 73
4
 74
0
 40
0
 40
0
 40
0
 40
0
 40
1
 40
1
 40
1
 40
1
 10
131.868170
 20
55.728270
 30
0.0
 10
135.291700
 20
55.728270
 30
0.0
 10
137.605630
 20
58.422740
 30
0.0
 10
137.605630
 20
61.687770
 30
0.0
  0
LWPOLYLINE
  5
1a3
100
AcDbEntity
  8
Ebene_1
 62
7
100
AcDbPolyline
 90
2
 70
0
 10
126.162810
 20
61.719800
 30
0.0
 10
126.162810
 20
61.655700
 30
0.0
  0
SPLINE
  5
1a4
100
AcDbEntity
  8
Ebene_1
 62
7
100
AcDbSpline
 70
8
 71
3
 72
8
 73
4
 74
0
 40
0
 40
0
 40
0
 40
0
 40
1
 40
1
 40
1
 40
1
 10
137.605630
 20
61.751070
 30
0.0
 10
137.605630
 20
64.984400
 30
0.0
 10
135.355470
 20
67.679300
 30
0.0
 10
131.900250
 20
67.679300
 30
0.0
  0
LWPOLYLINE
  5
1a5
100
AcDbEntity
  8
Ebene_1
 62
7
100
AcDbPolyline
 90
2
 70
0
 10
137.605630
 20
61.687770
 30
0.0
 10
137.605630
 20
61.751070
 30
0.0
  0
LWPOLYLINE
  5
1a6
100
AcDbEntity
  8
Ebene_1
 62
7
100
AcDbPolyline
 90
1
 70
1
 10
131.900250
 20
67.679300
 30
0.0
  0
LWPOLYLINE
  5
1a7
100
AcDbEntity
  8
Ebene_1
 62
7
100
AcDbPolyline
 90
7
 70
1
 10
72.120864
 20
67.520580
 30
0.0
 10
65.622649
 20
65.681580
 30
0.0
 10
66.795472
 20
60.926970
 30
0.0
 10
70.535992
 20
61.783140
 30
0.0
 10
70.535992
 20
45.172050
 30
0.0
 10
76.590888
 20
45.172050
 30
0.0
 10
76.590888
 20
67.520580
 30
0.0
  0
SPLINE
  5
1a8
100
AcDbEntity
  8
Ebene_1
 62
7
100
AcDbSpline
 70
8
 71
3
 72
8
 73
4
 74
0
 40
0
 40
0
 40
0
 40
0
 40
1
 40
1
 40
1
 40
1
 10
131.868170
 20
64.192100
 30
0.0
 10
132.945960
 20
64.192100
 30
0.0
 10
133.738440
 20
63.114580
 30
0.0
 10
133.738440
 20
61.719800
 30
0.0
  0
LWPOLYLINE
  5
1a9
100
AcDbEntity
  8
Ebene_1
 62
7
100
AcDbPolyline
 90
4
 70
1
 10
145.720770
 20
67.361850
 30
0.0
 10
128.603040
 20
45.172050
 30
0.0
 10
132.883080
 20
45.172050
 30
0.0
 10
150.000000
 20
67.361850
 30
0.0
  0
SPLINE
  5
1aa
100
AcDbEntity
  8
Ebene_1
 62
7
100
AcDbSpline
 70
8
 71
3
 72
8
 73
4
 74
0
 40
0
 40
0
 40
0
 40
0
 40
1
 40
1
 40
1
 40
1
 10
133.738440
 20
61.655700
 30
0.0
 10
133.738440
 20
60.260940
 30
0.0
 10
132.978030
 20
59.215460
 30
0.0
 10
131.900250
 20
59.215460
 30
0.0
  0
SPLINE
  5
1ab
100
AcDbEntity
  8
Ebene_1
 62
7
100
AcDbSpline
 70
8
 71
3
 72
8
 73
4
 74
0
 40
0
 40
0
 40
0
 40
0
 40
1
 40
1
 40
1
 40
1
 10
131.900250
 20
59.215460
 30
0.0
 10
130.854180
 20
59.215460
 30
0.0
 10
130.029990
 20
60.261300
 30
0.0
 10
130.029990
 20
61.687770
 30
0.0
  0
LWPOLYLINE
  5
1ac
100
AcDbEntity
  8
Ebene_1
 62
7
100
AcDbPolyline
 90
2
 70
0
 10
133.738440
 20
61.719800
 30
0.0
 10
133.738440
 20
61.655700
 30
0.0
  0
SPLINE
  5
1ad
100
AcDbEntity
  8
Ebene_1
 62
7
100
AcDbSpline
 70
8
 71
3
 72
8
 73
4
 74
0
 40
0
 40
0
 40
0
 40
0
 40
1
 40
1
 40
1
 40
1
 10
130.029990
 20
61.751070
 30
0.0
 10
130.029990
 20
63.145840
 30
0.0
 10
130.758680
 20
64.192100
 30
0.0
 10
131.868170
 20
64.192100
 30
0.0
  0
LWPOLYLINE
  5
1ae
100
AcDbEntity
  8
Ebene_1
 62
7
100
AcDbPolyline
 90
2
 70
0
 10
130.029990
 20
61.687770
 30
0.0
 10
130.029990
 20
61.751070
 30
0.0
  0
SPLINE
  5
1af
100
AcDbEntity
  8
Ebene_1
 62
7
100
AcDbSpline
 70
8
 71
3
 72
8
 73
4
 74
0
 40
0
 40
0
 40
0
 40
0
 40
1
 40
1
 40
1
 40
1
 10
90.280745
 20
62.353110
 30
0.0
 10
92.721592
 20
62.353110
 30
0.0
 10
94.402049
 20
59.785590
 30
0.0
 10
94.402049
 20
56.266950
 30
0.0
  0
LWPOLYLINE
  5
1b0
100
AcDbEntity
  8
Ebene_1
 62
7
100
AcDbPolyline
 90
1
 70
1
 10
131.868170
 20
64.192100
 30
0.0
  0
SPLINE
  5
1b1
100
AcDbEntity
  8
Ebene_1
 62
7
100
AcDbSpline
 70
8
 71
3
 72
8
 73
4
 74
0
 40
0
 40
0
 40
0
 40
0
 40
1
 40
1
 40
1
 40
1
 10
94.402049
 20
56.203650
 30
0.0
 10
94.402049
 20
52.685030
 30
0.0
 10
92.816623
 20
50.180820
 30
0.0
 10
90.344073
 20
50.180820
 30
0.0
  0
SPLINE
  5
1b2
100
AcDbEntity
  8
Ebene_1
 62
7
100
AcDbSpline
 70
8
 71
3
 72
8
 73
4
 74
0
 40
0
 40
0
 40
0
 40
0
 40
1
 40
1
 40
1
 40
1
 10
90.344073
 20
50.180820
 30
0.0
 10
87.871527
 20
50.180820
 30
0.0
 10
86.223569
 20
52.716660
 30
0.0
 10
86.223569
 20
56.266980
 30
0.0
  0
LWPOLYLINE
  5
1b3
100
AcDbEntity
  8
Ebene_1
 62
7
100
AcDbPolyline
 90
2
 70
0
 10
94.402049
 20
56.266950
 30
0.0
 10
94.402049
 20
56.203650
 30
0.0
  0
SPLINE
  5
1b4
100
AcDbEntity
  8
Ebene_1
 62
7
100
AcDbSpline
 70
8
 71
3
 72
8
 73
4
 74
0
 40
0
 40
0
 40
0
 40
0
 40
1
 40
1
 40
1
 40
1
 10
86.223569
 20
56.330280
 30
0.0
 10
86.223569
 20
59.880610
 30
0.0
 10
87.839894
 20
62.353110
 30
0.0
 10
90.280745
 20
62.353110
 30
0.0
  0
LWPOLYLINE
  5
1b5
100
AcDbEntity
  8
Ebene_1
 62
7
100
AcDbPolyline
 90
2
 70
0
 10
86.223569
 20
56.266980
 30
0.0
 10
86.223569
 20
56.330280
 30
0.0
  0
SPLINE
  5
1b6
100
AcDbEntity
  8
Ebene_1
 62
7
100
AcDbSpline
 70
8
 71
3
 72
8
 73
4
 74
0
 40
0
 40
0
 40
0
 40
0
 40
1
 40
1
 40
1
 40
1
 10
113.436530
 20
62.353110
 30
0.0
 10
115.877380
 20
62.353110
 30
0.0
 10
117.557050
 20
59.785590
 30
0.0
 10
117.557050
 20
56.266950
 30
0.0
  0
LWPOLYLINE
  5
1b7
100
AcDbEntity
  8
Ebene_1
 62
7
100
AcDbPolyline
 90
1
 70
1
 10
90.280745
 20
62.353110
 30
0.0
  0
SPLINE
  5
1b8
100
AcDbEntity
  8
Ebene_1
 62
7
100
AcDbSpline
 70
8
 71
3
 72
8
 73
4
 74
0
 40
0
 40
0
 40
0
 40
0
 40
1
 40
1
 40
1
 40
1
 10
117.557050
 20
56.203650
 30
0.0
 10
117.557050
 20
52.685030
 30
0.0
 10
115.972420
 20
50.180820
 30
0.0
 10
113.499860
 20
50.180820
 30
0.0
  0
SPLINE
  5
1b9
100
AcDbEntity
  8
Ebene_1
 62
7
100
AcDbSpline
 70
8
 71
3
 72
8
 73
4
 74
0
 40
0
 40
0
 40
0
 40
0
 40
1
 40
1
 40
1
 40
1
 10
113.499860
 20
50.180820
 30
0.0
 10
111.027320
 20
50.180820
 30
0.0
 10
109.378550
 20
52.716660
 30
0.0
 10
109.378550
 20
56.266980
 30
0.0
  0
LWPOLYLINE
  5
1ba
100
AcDbEntity
  8
Ebene_1
 62
7
100
AcDbPolyline
 90
2
 70
0
 10
117.557050
 20
56.266950
 30
0.0
 10
117.557050
 20
56.203650
 30
0.0
  0
SPLINE
  5
1bb
100
AcDbEntity
  8
Ebene_1
 62
7
100
AcDbSpline
 70
8
 71
3
 72
8
 73
4
 74
0
 40
0
 40
0
 40
0
 40
0
 40
1
 40
1
 40
1
 40
1
 10
109.378550
 20
56.330280
 30
0.0
 10
109.378550
 20
59.880610
 30
0.0
 10
110.995680
 20
62.353110
 30
0.0
 10
113.436530
 20
62.353110
 30
0.0
  0
LWPOLYLINE
  5
1bc
100
AcDbEntity
  8
Ebene_1
 62
7
100
AcDbPolyline
 90
2
 70
0
 10
109.378550
 20
56.266980
 30
0.0
 10
109.378550
 20
56.330280
 30
0.0
  0
SPLINE
  5
1bd
100
AcDbEntity
  8
Ebene_1
 62
7
100
AcDbSpline
 70
8
 71
3
 72
8
 73
4
 74
0
 40
0
 40
0
 40
0
 40
0
 40
1
 40
1
 40
1
 40
1
 10
146.735660
 20
56.806470
 30
0.0
 10
143.248740
 20
56.806470
 30
0.0
 10
140.997420
 20
54.112000
 30
0.0
 10
140.997420
 20
50.846960
 30
0.0
  0
LWPOLYLINE
  5
1be
100
AcDbEntity
  8
Ebene_1
 62
7
100
AcDbPolyline
 90
1
 70
1
 10
113.436530
 20
62.353110
 30
0.0
  0
SPLINE
  5
1bf
100
AcDbEntity
  8
Ebene_1
 62
7
100
AcDbSpline
 70
8
 71
3
 72
8
 73
4
 74
0
 40
0
 40
0
 40
0
 40
0
 40
1
 40
1
 40
1
 40
1
 10
140.997420
 20
50.782860
 30
0.0
 10
140.997420
 20
47.549520
 30
0.0
 10
143.280060
 20
44.855420
 30
0.0
 10
146.703600
 20
44.855420
 30
0.0
  0
SPLINE
  5
1c0
100
AcDbEntity
  8
Ebene_1
 62
7
100
AcDbSpline
 70
8
 71
3
 72
8
 73
4
 74
0
 40
0
 40
0
 40
0
 40
0
 40
1
 40
1
 40
1
 40
1
 10
146.703600
 20
44.855420
 30
0.0
 10
150.127130
 20
44.855420
 30
0.0
 10
152.441040
 20
47.581580
 30
0.0
 10
152.441040
 20
50.814920
 30
0.0
  0
LWPOLYLINE
  5
1c1
100
AcDbEntity
  8
Ebene_1
 62
7
100
AcDbPolyline
 90
2
 70
0
 10
140.997420
 20
50.846960
 30
0.0
 10
140.997420
 20
50.782860
 30
0.0
  0
SPLINE
  5
1c2
100
AcDbEntity
  8
Ebene_1
 62
7
100
AcDbSpline
 70
8
 71
3
 72
8
 73
4
 74
0
 40
0
 40
0
 40
0
 40
0
 40
1
 40
1
 40
1
 40
1
 10
152.441040
 20
50.878220
 30
0.0
 10
152.441040
 20
54.143260
 30
0.0
 10
150.190900
 20
56.806460
 30
0.0
 10
146.735660
 20
56.806460
 30
0.0
  0
LWPOLYLINE
  5
1c3
100
AcDbEntity
  8
Ebene_1
 62
7
100
AcDbPolyline
 90
2
 70
0
 10
152.441040
 20
50.814920
 30
0.0
 10
152.441040
 20
50.878220
 30
0.0
  0
SPLINE
  5
1c4
100
AcDbEntity
  8
Ebene_1
 62
7
100
AcDbSpline
 70
8
 71
3
 72
8
 73
4
 74
0
 40
0
 40
0
 40
0
 40
0
 40
1
 40
1
 40
1
 40
1
 10
146.703560
 20
53.319270
 30
0.0
 10
147.781340
 20
53.319270
 30
0.0
 10
148.573820
 20
52.273430
 30
0.0
 10
148.573820
 20
50.846960
 30
0.0
  0
LWPOLYLINE
  5
1c5
100
AcDbEntity
  8
Ebene_1
 62
7
100
AcDbPolyline
 90
1
 70
1
 10
146.735660
 20
56.806460
 30
0.0
  0
SPLINE
  5
1c6
100
AcDbEntity
  8
Ebene_1
 62
7
100
AcDbSpline
 70
8
 71
3
 72
8
 73
4
 74
0
 40
0
 40
0
 40
0
 40
0
 40
1
 40
1
 40
1
 40
1
 10
148.573820
 20
50.782860
 30
0.0
 10
148.573820
 20
49.388080
 30
0.0
 10
147.813400
 20
48.342610
 30
0.0
 10
146.735620
 20
48.342610
 30
0.0
  0
SPLINE
  5
1c7
100
AcDbEntity
  8
Ebene_1
 62
7
100
AcDbSpline
 70
8
 71
3
 72
8
 73
4
 74
0
 40
0
 40
0
 40
0
 40
0
 40
1
 40
1
 40
1
 40
1
 10
146.735620
 20
48.342610
 30
0.0
 10
145.689550
 20
48.342610
 30
0.0
 10
144.865370
 20
49.420140
 30
0.0
 10
144.865370
 20
50.814920
 30
0.0
  0
LWPOLYLINE
  5
1c8
100
AcDbEntity
  8
Ebene_1
 62
7
100
AcDbPolyline
 90
2
 70
0
 10
148.573820
 20
50.846960
 30
0.0
 10
148.573820
 20
50.782860
 30
0.0
  0
SPLINE
  5
1c9
100
AcDbEntity
  8
Ebene_1
 62
7
100
AcDbSpline
 70
8
 71
3
 72
8
 73
4
 74
0
 40
0
 40
0
 40
0
 40
0
 40
1
 40
1
 40
1
 40
1
 10
144.865370
 20
50.878220
 30
0.0
 10
144.865370
 20
52.304690
 30
0.0
 10
145.562380
 20
53.319260
 30
0.0
 10
146.703560
 20
53.319260
 30
0.0
  0
LWPOLYLINE
  5
1ca
100
AcDbEntity
  8
Ebene_1
 62
7
100
AcDbPolyline
 90
2
 70
0
 10
144.865370
 20
50.814920
 30
0.0
 10
144.865370
 20
50.878220
 30
0.0
  0
LWPOLYLINE
  5
1cb
100
AcDbEntity
  8
Ebene_1
 62
7
100
AcDbPolyline
 90
1
 70
1
 10
146.703560
 20
53.319260
 30
0.0
  0
LWPOLYLINE
  5
1cc
100
AcDbEntity
  8
Ebene_1
 62
7
100
AcDbPolyline
 90
12
 70
1
 10
43.938572
 20
26.035340
 30
0.0
 10
55.545140
 20
26.035340
 30
0.0
 10
55.545140
 20
29.406960
 30
0.0
 10
47.861919
 20
29.406960
 30
0.0
 10
47.861919
 20
31.675150
 30
0.0
 10
54.727776
 20
31.675150
 30
0.0
 10
54.727776
 20
34.801570
 30
0.0
 10
47.861919
 20
34.801570
 30
0.0
 10
47.861919
 20
36.967580
 30
0.0
 10
55.442969
 20
36.967580
 30
0.0
 10
55.442969
 20
40.339210
 30
0.0
 10
43.938572
 20
40.339210
 30
0.0
  0
LWPOLYLINE
  5
1cd
100
AcDbEntity
  8
Ebene_1
 62
7
100
AcDbPolyline
 90
6
 70
1
 10
57.587911
 20
26.035340
 30
0.0
 10
68.479286
 20
26.035340
 30
0.0
 10
68.479286
 20
29.509130
 30
0.0
 10
61.552126
 20
29.509130
 30
0.0
 10
61.552126
 20
40.339210
 30
0.0
 10
57.587911
 20
40.339210
 30
0.0
  0
LWPOLYLINE
  5
1ce
100
AcDbEntity
  8
Ebene_1
 62
7
100
AcDbPolyline
 90
12
 70
1
 10
70.159671
 20
26.035340
 30
0.0
 10
81.766240
 20
26.035340
 30
0.0
 10
81.766240
 20
29.406960
 30
0.0
 10
74.083018
 20
29.406960
 30
0.0
 10
74.083018
 20
31.675150
 30
0.0
 10
80.948876
 20
31.675150
 30
0.0
 10
80.948876
 20
34.801570
 30
0.0
 10
74.083018
 20
34.801570
 30
0.0
 10
74.083018
 20
36.967580
 30
0.0
 10
81.664069
 20
36.967580
 30
0.0
 10
81.664069
 20
40.339210
 30
0.0
 10
70.159671
 20
40.339210
 30
0.0
  0
LWPOLYLINE
  5
1cf
100
AcDbEntity
  8
Ebene_1
 62
7
100
AcDbPolyline
 90
12
 70
1
 10
83.809009
 20
26.035340
 30
0.0
 10
87.773224
 20
26.035340
 30
0.0
 10
87.773224
 20
29.733910
 30
0.0
 10
89.224045
 20
31.348200
 30
0.0
 10
92.820447
 20
26.035340
 30
0.0
 10
97.581592
 20
26.035340
 30
0.0
 10
91.982649
 20
34.188540
 30
0.0
 10
97.397685
 20
40.339210
 30
0.0
 10
92.697842
 20
40.339210
 30
0.0
 10
87.773224
 20
34.535920
 30
0.0
 10
87.773224
 20
40.339210
 30
0.0
 10
83.809009
 20
40.339210
 30
0.0
  0
LWPOLYLINE
  5
1d0
100
AcDbEntity
  8
Ebene_1
 62
7
100
AcDbPolyline
 90
8
 70
1
 10
102.030160
 20
26.035340
 30
0.0
 10
105.994380
 20
26.035340
 30
0.0
 10
105.994380
 20
36.865410
 30
0.0
 10
110.285540
 20
36.865410
 30
0.0
 10
110.285540
 20
40.339210
 30
0.0
 10
97.739000
 20
40.339210
 30
0.0
 10
97.739000
 20
36.865410
 30
0.0
 10
102.030160
 20
36.865410
 30
0.0
  0
SPLINE
  5
1d1
100
AcDbEntity
  8
Ebene_1
 62
7
100
AcDbSpline
 70
8
 71
3
 72
8
 73
4
 74
0
 40
0
 40
0
 40
0
 40
0
 40
1
 40
1
 40
1
 40
1
 10
121.772740
 20
31.021260
 30
0.0
 10
123.550500
 20
31.777320
 30
0.0
 10
124.715250
 20
33.228140
 30
0.0
 10
124.715250
 20
35.414590
 30
0.0
  0
LWPOLYLINE
  5
1d2
100
AcDbEntity
  8
Ebene_1
 62
7
100
AcDbPolyline
 90
8
 70
0
 10
112.025630
 20
26.035340
 30
0.0
 10
115.989850
 20
26.035340
 30
0.0
 10
115.989850
 20
30.367370
 30
0.0
 10
117.685880
 20
30.367370
 30
0.0
 10
117.726780
 20
30.367370
 30
0.0
 10
120.607990
 20
26.035340
 30
0.0
 10
125.185230
 20
26.035340
 30
0.0
 10
121.772740
 20
31.021260
 30
0.0
  0
SPLINE
  5
1d3
100
AcDbEntity
  8
Ebene_1
 62
7
100
AcDbSpline
 70
8
 71
3
 72
8
 73
4
 74
0
 40
0
 40
0
 40
0
 40
0
 40
1
 40
1
 40
1
 40
1
 10
124.715250
 20
35.455490
 30
0.0
 10
124.715250
 20
36.865440
 30
0.0
 10
124.286130
 20
37.968880
 30
0.0
 10
123.448330
 20
38.786250
 30
0.0
  0
SPLINE
  5
1d4
100
AcDbEntity
  8
Ebene_1
 62
7
100
AcDbSpline
 70
8
 71
3
 72
8
 73
4
 74
0
 40
0
 40
0
 40
0
 40
0
 40
1
 40
1
 40
1
 40
1
 10
123.448330
 20
38.786250
 30
0.0
 10
122.487930
 20
39.767080
 30
0.0
 10
120.975810
 20
40.339240
 30
0.0
 10
118.789360
 20
40.339240
 30
0.0
  0
LWPOLYLINE
  5
1d5
100
AcDbEntity
  8
Ebene_1
 62
7
100
AcDbPolyline
 90
2
 70
0
 10
124.715250
 20
35.414590
 30
0.0
 10
124.715250
 20
35.455490
 30
0.0
  0
LWPOLYLINE
  5
1d6
100
AcDbEntity
  8
Ebene_1
 62
7
100
AcDbPolyline
 90
3
 70
0
 10
118.789360
 20
40.339240
 30
0.0
 10
112.025670
 20
40.339240
 30
0.0
 10
112.025630
 20
26.035340
 30
0.0
  0
SPLINE
  5
1d7
100
AcDbEntity
  8
Ebene_1
 62
7
100
AcDbSpline
 70
8
 71
3
 72
8
 73
4
 74
0
 40
0
 40
0
 40
0
 40
0
 40
1
 40
1
 40
1
 40
1
 10
118.584980
 20
36.906280
 30
0.0
 10
119.913190
 20
36.906280
 30
0.0
 10
120.730560
 20
36.334120
 30
0.0
 10
120.730560
 20
35.210250
 30
0.0
  0
LWPOLYLINE
  5
1d8
100
AcDbEntity
  8
Ebene_1
 62
7
100
AcDbPolyline
 90
3
 70
0
 10
115.989850
 20
33.473350
 30
0.0
 10
115.989850
 20
36.906280
 30
0.0
 10
118.584980
 20
36.906280
 30
0.0
  0
SPLINE
  5
1d9
100
AcDbEntity
  8
Ebene_1
 62
7
100
AcDbSpline
 70
8
 71
3
 72
8
 73
4
 74
0
 40
0
 40
0
 40
0
 40
0
 40
1
 40
1
 40
1
 40
1
 10
120.730560
 20
35.169350
 30
0.0
 10
120.730560
 20
34.127210
 30
0.0
 10
119.954060
 20
33.473320
 30
0.0
 10
118.605410
 20
33.473320
 30
0.0
  0
LWPOLYLINE
  5
1da
100
AcDbEntity
  8
Ebene_1
 62
7
100
AcDbPolyline
 90
2
 70
0
 10
120.730560
 20
35.210250
 30
0.0
 10
120.730560
 20
35.169350
 30
0.0
  0
LWPOLYLINE
  5
1db
100
AcDbEntity
  8
Ebene_1
 62
7
100
AcDbPolyline
 90
2
 70
0
 10
118.605410
 20
33.473320
 30
0.0
 10
115.989850
 20
33.473350
 30
0.0
  0
SPLINE
  5
1dc
100
AcDbEntity
  8
Ebene_1
 62
7
100
AcDbSpline
 70
8
 71
3
 72
8
 73
4
 74
0
 40
0
 40
0
 40
0
 40
0
 40
1
 40
1
 40
1
 40
1
 10
138.997040
 20
25.790130
 30
0.0
 10
142.470840
 20
25.790130
 30
0.0
 10
144.779890
 20
27.527030
 30
0.0
 10
144.779890
 20
30.449100
 30
0.0
  0
LWPOLYLINE
  5
1dd
100
AcDbEntity
  8
Ebene_1
 62
7
100
AcDbPolyline
 90
4
 70
1
 10
126.794370
 20
26.035340
 30
0.0
 10
130.779020
 20
26.035340
 30
0.0
 10
130.779020
 20
40.339210
 30
0.0
 10
126.794370
 20
40.339210
 30
0.0
  0
SPLINE
  5
1de
100
AcDbEntity
  8
Ebene_1
 62
7
100
AcDbSpline
 70
8
 71
3
 72
8
 73
4
 74
0
 40
0
 40
0
 40
0
 40
0
 40
1
 40
1
 40
1
 40
1
 10
144.779890
 20
30.490000
 30
0.0
 10
144.779890
 20
33.166870
 30
0.0
 10
142.736480
 20
34.229440
 30
0.0
 10
139.446590
 20
34.944630
 30
0.0
  0
SPLINE
  5
1df
100
AcDbEntity
  8
Ebene_1
 62
7
100
AcDbSpline
 70
8
 71
3
 72
8
 73
4
 74
0
 40
0
 40
0
 40
0
 40
0
 40
1
 40
1
 40
1
 40
1
 10
139.446590
 20
34.944630
 30
0.0
 10
137.464490
 20
35.394180
 30
0.0
 10
136.974070
 20
35.680260
 30
0.0
 10
136.974070
 20
36.334150
 30
0.0
  0
LWPOLYLINE
  5
1e0
100
AcDbEntity
  8
Ebene_1
 62
7
100
AcDbPolyline
 90
2
 70
0
 10
144.779890
 20
30.449100
 30
0.0
 10
144.779890
 20
30.490000
 30
0.0
  0
SPLINE
  5
1e1
100
AcDbEntity
  8
Ebene_1
 62
7
100
AcDbSpline
 70
8
 71
3
 72
8
 73
4
 74
0
 40
0
 40
0
 40
0
 40
0
 40
1
 40
1
 40
1
 40
1
 10
136.974070
 20
36.375050
 30
0.0
 10
136.974070
 20
36.885900
 30
0.0
 10
137.444050
 20
37.294590
 30
0.0
 10
138.404450
 20
37.294590
 30
0.0
  0
SPLINE
  5
1e2
100
AcDbEntity
  8
Ebene_1
 62
7
100
AcDbSpline
 70
8
 71
3
 72
8
 73
4
 74
0
 40
0
 40
0
 40
0
 40
0
 40
1
 40
1
 40
1
 40
1
 10
138.404450
 20
37.294590
 30
0.0
 10
139.671370
 20
37.294590
 30
0.0
 10
141.101760
 20
36.804170
 30
0.0
 10
142.409540
 20
35.884630
 30
0.0
  0
LWPOLYLINE
  5
1e3
100
AcDbEntity
  8
Ebene_1
 62
7
100
AcDbPolyline
 90
2
 70
0
 10
136.974070
 20
36.334150
 30
0.0
 10
136.974070
 20
36.375050
 30
0.0
  0
SPLINE
  5
1e4
100
AcDbEntity
  8
Ebene_1
 62
7
100
AcDbSpline
 70
8
 71
3
 72
8
 73
4
 74
0
 40
0
 40
0
 40
0
 40
0
 40
1
 40
1
 40
1
 40
1
 10
144.391650
 20
38.684100
 30
0.0
 10
142.838650
 20
39.930580
 30
0.0
 10
140.938280
 20
40.584480
 30
0.0
 10
138.506620
 20
40.584480
 30
0.0
  0
SPLINE
  5
1e5
100
AcDbEntity
  8
Ebene_1
 62
7
100
AcDbSpline
 70
8
 71
3
 72
8
 73
4
 74
0
 40
0
 40
0
 40
0
 40
0
 40
1
 40
1
 40
1
 40
1
 10
138.506620
 20
40.584480
 30
0.0
 10
135.073700
 20
40.584480
 30
0.0
 10
132.968980
 20
38.663670
 30
0.0
 10
132.968980
 20
36.007240
 30
0.0
  0
LWPOLYLINE
  5
1e6
100
AcDbEntity
  8
Ebene_1
 62
7
100
AcDbPolyline
 90
2
 70
0
 10
142.409540
 20
35.884630
 30
0.0
 10
144.391650
 20
38.684100
 30
0.0
  0
SPLINE
  5
1e7
100
AcDbEntity
  8
Ebene_1
 62
7
100
AcDbSpline
 70
8
 71
3
 72
8
 73
4
 74
0
 40
0
 40
0
 40
0
 40
0
 40
1
 40
1
 40
1
 40
1
 10
132.968980
 20
35.966340
 30
0.0
 10
132.968980
 20
33.023830
 30
0.0
 10
135.318910
 20
32.165600
 30
0.0
 10
138.363590
 20
31.470840
 30
0.0
  0
SPLINE
  5
1e8
100
AcDbEntity
  8
Ebene_1
 62
7
100
AcDbSpline
 70
8
 71
3
 72
8
 73
4
 74
0
 40
0
 40
0
 40
0
 40
0
 40
1
 40
1
 40
1
 40
1
 10
138.363590
 20
31.470840
 30
0.0
 10
140.304830
 20
31.021290
 30
0.0
 10
140.774810
 20
30.694340
 30
0.0
 10
140.774810
 20
30.101750
 30
0.0
  0
LWPOLYLINE
  5
1e9
100
AcDbEntity
  8
Ebene_1
 62
7
100
AcDbPolyline
 90
2
 70
0
 10
132.968980
 20
36.007240
 30
0.0
 10
132.968980
 20
35.966340
 30
0.0
  0
SPLINE
  5
1ea
100
AcDbEntity
  8
Ebene_1
 62
7
100
AcDbSpline
 70
8
 71
3
 72
8
 73
4
 74
0
 40
0
 40
0
 40
0
 40
0
 40
1
 40
1
 40
1
 40
1
 10
140.774810
 20
30.060850
 30
0.0
 10
140.774810
 20
29.447830
 30
0.0
 10
140.202660
 20
29.080020
 30
0.0
 10
139.140080
 20
29.080020
 30
0.0
  0
SPLINE
  5
1eb
100
AcDbEntity
  8
Ebene_1
 62
7
100
AcDbSpline
 70
8
 71
3
 72
8
 73
4
 74
0
 40
0
 40
0
 40
0
 40
0
 40
1
 40
1
 40
1
 40
1
 10
139.140080
 20
29.080020
 30
0.0
 10
137.484920
 20
29.080020
 30
0.0
 10
135.911490
 20
29.672610
 30
0.0
 10
134.501540
 20
30.796480
 30
0.0
  0
LWPOLYLINE
  5
1ec
100
AcDbEntity
  8
Ebene_1
 62
7
100
AcDbPolyline
 90
2
 70
0
 10
140.774810
 20
30.101750
 30
0.0
 10
140.774810
 20
30.060850
 30
0.0
  0
SPLINE
  5
1ed
100
AcDbEntity
  8
Ebene_1
 62
7
100
AcDbSpline
 70
8
 71
3
 72
8
 73
4
 74
0
 40
0
 40
0
 40
0
 40
0
 40
1
 40
1
 40
1
 40
1
 10
132.294660
 20
28.160480
 30
0.0
 10
134.051990
 20
26.587060
 30
0.0
 10
136.463220
 20
25.790130
 30
0.0
 10
138.997040
 20
25.790130
 30
0.0
  0
LWPOLYLINE
  5
1ee
100
AcDbEntity
  8
Ebene_1
 62
7
100
AcDbPolyline
 90
2
 70
0
 10
134.501540
 20
30.796480
 30
0.0
 10
132.294660
 20
28.160480
 30
0.0
  0
SPLINE
  5
1ef
100
AcDbEntity
  8
Ebene_1
 62
7
100
AcDbSpline
 70
8
 71
3
 72
8
 73
4
 74
0
 40
0
 40
0
 40
0
 40
0
 40
1
 40
1
 40
1
 40
1
 10
153.594010
 20
25.749260
 30
0.0
 10
156.761300
 20
25.749260
 30
0.0
 10
158.579930
 20
27.118340
 30
0.0
 10
159.928580
 20
28.977850
 30
0.0
  0
LWPOLYLINE
  5
1f0
100
AcDbEntity
  8
Ebene_1
 62
7
100
AcDbPolyline
 90
1
 70
1
 10
138.997040
 20
25.790130
 30
0.0
  0
SPLINE
  5
1f1
100
AcDbEntity
  8
Ebene_1
 62
7
100
AcDbSpline
 70
8
 71
3
 72
8
 73
4
 74
0
 40
0
 40
0
 40
0
 40
0
 40
1
 40
1
 40
1
 40
1
 10
156.945210
 20
31.102990
 30
0.0
 10
156.086970
 20
30.060850
 30
0.0
 10
155.208310
 20
29.366100
 30
0.0
 10
153.716620
 20
29.366100
 30
0.0
  0
SPLINE
  5
1f2
100
AcDbEntity
  8
Ebene_1
 62
7
100
AcDbSpline
 70
8
 71
3
 72
8
 73
4
 74
0
 40
0
 40
0
 40
0
 40
0
 40
1
 40
1
 40
1
 40
1
 10
153.716620
 20
29.366100
 30
0.0
 10
151.714080
 20
29.366100
 30
0.0
 10
150.304120
 20
31.041690
 30
0.0
 10
150.304120
 20
33.187270
 30
0.0
  0
LWPOLYLINE
  5
1f3
100
AcDbEntity
  8
Ebene_1
 62
7
100
AcDbPolyline
 90
2
 70
0
 10
159.928580
 20
28.977850
 30
0.0
 10
156.945210
 20
31.102990
 30
0.0
  0
SPLINE
  5
1f4
100
AcDbEntity
  8
Ebene_1
 62
7
100
AcDbSpline
 70
8
 71
3
 72
8
 73
4
 74
0
 40
0
 40
0
 40
0
 40
0
 40
1
 40
1
 40
1
 40
1
 10
150.304120
 20
33.228170
 30
0.0
 10
150.304120
 20
35.312450
 30
0.0
 10
151.714080
 20
37.008480
 30
0.0
 10
153.716620
 20
37.008480
 30
0.0
  0
SPLINE
  5
1f5
100
AcDbEntity
  8
Ebene_1
 62
7
100
AcDbSpline
 70
8
 71
3
 72
8
 73
4
 74
0
 40
0
 40
0
 40
0
 40
0
 40
1
 40
1
 40
1
 40
1
 10
153.716620
 20
37.008480
 30
0.0
 10
155.085700
 20
37.008480
 30
0.0
 10
156.025670
 20
36.354590
 30
0.0
 10
156.843030
 20
35.332880
 30
0.0
  0
LWPOLYLINE
  5
1f6
100
AcDbEntity
  8
Ebene_1
 62
7
100
AcDbPolyline
 90
2
 70
0
 10
150.304120
 20
33.187270
 30
0.0
 10
150.304120
 20
33.228170
 30
0.0
  0
SPLINE
  5
1f7
100
AcDbEntity
  8
Ebene_1
 62
7
100
AcDbSpline
 70
8
 71
3
 72
8
 73
4
 74
0
 40
0
 40
0
 40
0
 40
0
 40
1
 40
1
 40
1
 40
1
 10
159.826410
 20
37.641940
 30
0.0
 10
158.559500
 20
39.399270
 30
0.0
 10
156.679560
 20
40.625310
 30
0.0
 10
153.757490
 20
40.625310
 30
0.0
  0
SPLINE
  5
1f8
100
AcDbEntity
  8
Ebene_1
 62
7
100
AcDbSpline
 70
8
 71
3
 72
8
 73
4
 74
0
 40
0
 40
0
 40
0
 40
0
 40
1
 40
1
 40
1
 40
1
 10
153.757490
 20
40.625310
 30
0.0
 10
149.425460
 20
40.625310
 30
0.0
 10
146.217300
 20
37.355860
 30
0.0
 10
146.217300
 20
33.187300
 30
0.0
  0
LWPOLYLINE
  5
1f9
100
AcDbEntity
  8
Ebene_1
 62
7
100
AcDbPolyline
 90
2
 70
0
 10
156.843030
 20
35.332880
 30
0.0
 10
159.826410
 20
37.641940
 30
0.0
  0
SPLINE
  5
1fa
100
AcDbEntity
  8
Ebene_1
 62
7
100
AcDbSpline
 70
8
 71
3
 72
8
 73
4
 74
0
 40
0
 40
0
 40
0
 40
0
 40
1
 40
1
 40
1
 40
1
 10
146.217300
 20
33.146400
 30
0.0
 10
146.217300
 20
28.875680
 30
0.0
 10
149.507190
 20
25.749260
 30
0.0
 10
153.594010
 20
25.749260
 30
0.0
  0
LWPOLYLINE
  5
1fb
100
AcDbEntity
  8
Ebene_1
 62
7
100
AcDbPolyline
 90
2
 70
0
 10
146.217300
 20
33.187300
 30
0.0
 10
146.217300
 20
33.146400
 30
0.0
  0
LWPOLYLINE
  5
1fc
100
AcDbEntity
  8
Ebene_1
 62
7
100
AcDbPolyline
 90
1
 70
1
 10
153.594010
 20
25.749260
 30
0.0
  0
LWPOLYLINE
  5
1fd
100
AcDbEntity
  8
Ebene_1
 62
7
100
AcDbPolyline
 90
12
 70
1
 10
161.634200
 20
26.035340
 30
0.0
 10
165.598410
 20
26.035340
 30
0.0
 10
165.598410
 20
31.470810
 30
0.0
 10
170.686500
 20
31.470810
 30
0.0
 10
170.686500
 20
26.035340
 30
0.0
 10
174.650720
 20
26.035340
 30
0.0
 10
174.650720
 20
40.339210
 30
0.0
 10
170.686500
 20
40.339210
 30
0.0
 10
170.686500
 20
34.985470
 30
0.0
 10
165.598410
 20
34.985470
 30
0.0
 10
165.598410
 20
40.339210
 30
0.0
 10
161.634200
 20
40.339210
 30
0.0
  0
ENDSEC
  0
SECTION
  2
OBJECTS
  0
DICTIONARY
  5
C
330
0
100
AcDbDictionary
  3
ACAD_GROUP
350
D
  3
ACAD_MLINESTYLE
350
17
  0
DICTIONARY
  5
D
330
C
100
AcDbDictionary
  0
DICTIONARY
  5
1A
330
C
100
AcDbDictionary
  0
DICTIONARY
  5
17
330
C
100
AcDbDictionary
  3
STANDARD
350
18
  0
DICTIONARY
  5
19
330
C
100
AcDbDictionary
  0
ENDSEC
  0
EOF
