  0
SECTION
  2
HEADER
  9
$ACADVER
  1
AC1014
  9
$HANDSEED
  5
FFFF
  9
$MEASUREMENT
 70
     1
  0
ENDSEC
  0
SECTION
  2
TABLES
  0
TABLE
  2
VPORT
  5
8
330
0
100
AcDbSymbolTable
 70
     4
  0
VPORT
  5
2E
330
8
100
AcDbSymbolTableRecord
100
AcDbViewportTableRecord
  2
*ACTIVE
 70
     0
 10
0.0
 20
0.0
 11
1.0
 21
1.0
 12
210.0
 22
148.5
 13
0.0
 23
0.0
 14
10.0
 24
10.0
 15
10.0
 25
10.0
 16
0.0
 26
0.0
 36
1.0
 17
0.0
 27
0.0
 37
0.0
 40
341.0
 41
1.24
 42
50.0
 43
0.0
 44
0.0
 50
0.0
 51
0.0
 71
     0
 72
   100
 73
     1
 74
     3
 75
     0
 76
     0
 77
     0
 78
     0
  0
ENDTAB
  0
TABLE
  2
LTYPE
  5
5
330
0
100
AcDbSymbolTable
 70
     1
  0
LTYPE
  5
14
330
5
100
AcDbSymbolTableRecord
100
AcDbLinetypeTableRecord
  2
BYBLOCK
 70
     0
  3

 72
    65
 73
     0
 40
0.0
  0
LTYPE
  5
15
330
5
100
AcDbSymbolTableRecord
100
AcDbLinetypeTableRecord
  2
BYLAYER
 70
     0
  3

 72
    65
 73
     0
 40
0.0
  0
LTYPE
  5
16
330
5
100
AcDbSymbolTableRecord
100
AcDbLinetypeTableRecord
  2
CONTINUOUS
 70
     0
  3
Solid line
 72
    65
 73
     0
 40
0.0
  0
ENDTAB
  0
TABLE
  2
LAYER
  5
2
100
AcDbSymbolTable
 70
2
  0
LAYER
  5
50
100
AcDbSymbolTableRecord
100
AcDbLayerTableRecord
  2
0
 70
0
  6
CONTINUOUS
  0
LAYER
  5
51
100
AcDbSymbolTableRecord
100
AcDbLayerTableRecord
  2
Ebene_1
 70
0
  6
CONTINUOUS
  0
ENDTAB
  0
TABLE
  2
STYLE
  5
3
330
0
100
AcDbSymbolTable
 70
     1
  0
STYLE
  5
11
330
3
100
AcDbSymbolTableRecord
100
AcDbTextStyleTableRecord
  2
STANDARD
 70
     0
 40
0.0
 41
1.0
 50
0.0
 71
     0
 42
2.5
  3
txt
  4

  0
ENDTAB
  0
TABLE
  2
VIEW
  5
6
330
0
100
AcDbSymbolTable
 70
     0
  0
ENDTAB
  0
TABLE
  2
UCS
  5
7
330
0
100
AcDbSymbolTable
 70
     0
  0
ENDTAB
  0
TABLE
  2
APPID
  5
9
330
0
100
AcDbSymbolTable
 70
     2
  0
APPID
  5
12
330
9
100
AcDbSymbolTableRecord
100
AcDbRegAppTableRecord
  2
ACAD
 70
     0
  0
ENDTAB
  0
TABLE
  2
DIMSTYLE
  5
A
330
0
100
AcDbSymbolTable
 70
     1
  0
DIMSTYLE
105
27
330
A
100
AcDbSymbolTableRecord
100
AcDbDimStyleTableRecord
  2
ISO-25
 70
     0
  3

  4

  5

  6

  7

 40
1.0
 41
2.5
 42
0.625
 43
3.75
 44
1.25
 45
0.0
 46
0.0
 47
0.0
 48
0.0
140
2.5
141
2.5
142
0.0
143
0.03937007874016
144
1.0
145
0.0
146
1.0
147
0.625
 71
     0
 72
     0
 73
     0
 74
     0
 75
     0
 76
     0
 77
     1
 78
     8
170
     0
171
     3
172
     1
173
     0
174
     0
175
     0
176
     0
177
     0
178
     0
270
     2
271
     2
272
     2
273
     2
274
     3
340
11
275
     0
280
     0
281
     0
282
     0
283
     0
284
     8
285
     0
286
     0
287
     3
288
     0
  0
ENDTAB
  0
TABLE
  2
BLOCK_RECORD
  5
1
330
0
100
AcDbSymbolTable
 70
     1
  0
BLOCK_RECORD
  5
1F
330
1
100
AcDbSymbolTableRecord
100
AcDbBlockTableRecord
  2
*MODEL_SPACE
  0
BLOCK_RECORD
  5
1B
330
1
100
AcDbSymbolTableRecord
100
AcDbBlockTableRecord
  2
*PAPER_SPACE
  0
ENDTAB
  0
ENDSEC
  0
SECTION
  2
BLOCKS
  0
BLOCK
  5
20
330
1F
100
AcDbEntity
  8
0
100
AcDbBlockBegin
  2
*MODEL_SPACE
 70
     0
 10
0.0
 20
0.0
 30
0.0
  3
*MODEL_SPACE
  1

  0
ENDBLK
  5
21
330
1F
100
AcDbEntity
  8
0
100
AcDbBlockEnd
  0
BLOCK
  5
1C
330
1B
100
AcDbEntity
 67
     1
  8
0
100
AcDbBlockBegin
  2
*PAPER_SPACE
  1

  0
ENDBLK
  5
1D
330
1B
100
AcDbEntity
 67
     1
  8
0
100
AcDbBlockEnd
  0
ENDSEC
  0
SECTION
  2
ENTITIES
  0
SPLINE
  5
100
100
AcDbEntity
  8
Ebene_1
 62
7
100
AcDbSpline
 70
8
 71
3
 72
8
 73
4
 74
0
 40
0
 40
0
 40
0
 40
0
 40
1
 40
1
 40
1
 40
1
 10
205.194710
 20
222.000000
 30
0.0
 10
203.574250
 20
209.947316
 30
0.0
 10
201.241390
 20
197.990760
 30
0.0
 10
198.063750
 20
186.266600
 30
0.0
  0
SPLINE
  5
101
100
AcDbEntity
  8
Ebene_1
 62
7
100
AcDbSpline
 70
8
 71
3
 72
8
 73
4
 74
0
 40
0
 40
0
 40
0
 40
0
 40
1
 40
1
 40
1
 40
1
 10
198.063750
 20
47.705040
 30
0.0
 10
198.063750
 20
32.632720
 30
0.0
 10
186.085240
 20
20.610780
 30
0.0
 10
171.068090
 20
20.610780
 30
0.0
  0
LWPOLYLINE
  5
102
100
AcDbEntity
  8
Ebene_1
 62
7
100
AcDbPolyline
 90
2
 70
0
 10
198.063750
 20
186.266600
 30
0.0
 10
198.063750
 20
47.705040
 30
0.0
  0
SPLINE
  5
103
100
AcDbEntity
  8
Ebene_1
 62
7
100
AcDbSpline
 70
8
 71
3
 72
8
 73
4
 74
0
 40
0
 40
0
 40
0
 40
0
 40
1
 40
1
 40
1
 40
1
 10
48.824598
 20
20.610780
 30
0.0
 10
33.807440
 20
20.610780
 30
0.0
 10
21.829468
 20
32.632720
 30
0.0
 10
21.829468
 20
47.705040
 30
0.0
  0
LWPOLYLINE
  5
104
100
AcDbEntity
  8
Ebene_1
 62
7
100
AcDbPolyline
 90
2
 70
0
 10
171.068090
 20
20.610780
 30
0.0
 10
48.824598
 20
20.610780
 30
0.0
  0
SPLINE
  5
105
100
AcDbEntity
  8
Ebene_1
 62
7
100
AcDbSpline
 70
8
 71
3
 72
8
 73
4
 74
0
 40
0
 40
0
 40
0
 40
0
 40
1
 40
1
 40
1
 40
1
 10
21.829468
 20
181.382440
 30
0.0
 10
18.803351
 20
191.712990
 30
0.0
 10
16.460955
 20
202.214943
 30
0.0
 10
14.698500
 20
212.818709
 30
0.0
  0
LWPOLYLINE
  5
106
100
AcDbEntity
  8
Ebene_1
 62
7
100
AcDbPolyline
 90
2
 70
0
 10
21.829468
 20
47.705040
 30
0.0
 10
21.829468
 20
181.382440
 30
0.0
  0
SPLINE
  5
107
100
AcDbEntity
  8
Ebene_1
 62
7
100
AcDbSpline
 70
8
 71
3
 72
8
 73
4
 74
0
 40
0
 40
0
 40
0
 40
0
 40
1
 40
1
 40
1
 40
1
 10
14.698500
 20
47.705040
 30
0.0
 10
14.698500
 20
28.791510
 30
0.0
 10
29.980279
 20
13.453630
 30
0.0
 10
48.824598
 20
13.453630
 30
0.0
  0
LWPOLYLINE
  5
108
100
AcDbEntity
  8
Ebene_1
 62
7
100
AcDbPolyline
 90
2
 70
0
 10
14.698500
 20
212.818709
 30
0.0
 10
14.698500
 20
47.705040
 30
0.0
  0
SPLINE
  5
109
100
AcDbEntity
  8
Ebene_1
 62
7
100
AcDbSpline
 70
8
 71
3
 72
8
 73
4
 74
0
 40
0
 40
0
 40
0
 40
0
 40
1
 40
1
 40
1
 40
1
 10
171.068090
 20
13.453630
 30
0.0
 10
189.912420
 20
13.453630
 30
0.0
 10
205.194710
 20
28.791510
 30
0.0
 10
205.194710
 20
47.705040
 30
0.0
  0
LWPOLYLINE
  5
10a
100
AcDbEntity
  8
Ebene_1
 62
7
100
AcDbPolyline
 90
2
 70
0
 10
48.824598
 20
13.453630
 30
0.0
 10
171.068090
 20
13.453630
 30
0.0
  0
LWPOLYLINE
  5
10b
100
AcDbEntity
  8
Ebene_1
 62
7
100
AcDbPolyline
 90
2
 70
0
 10
205.194710
 20
47.705040
 30
0.0
 10
205.194710
 20
222.000000
 30
0.0
  0
LWPOLYLINE
  5
10c
100
AcDbEntity
  8
Ebene_1
 62
7
100
AcDbPolyline
 90
4
 70
1
 10
0.000000
 20
300.000000
 30
0.0
 10
219.893210
 20
300.000000
 30
0.0
 10
219.893210
 20
0.000000
 30
0.0
 10
0.000000
 20
0.000000
 30
0.0
  0
LWPOLYLINE
  5
10d
100
AcDbEntity
  8
Ebene_1
 62
7
100
AcDbPolyline
 90
9
 70
1
 10
162.589186
 20
251.053188
 30
0.0
 10
162.589186
 20
237.353316
 30
0.0
 10
163.083571
 20
237.353316
 30
0.0
 10
167.814984
 20
237.353316
 30
0.0
 10
167.814984
 20
245.827383
 30
0.0
 10
183.774355
 20
245.827383
 30
0.0
 10
183.774355
 20
237.353316
 30
0.0
 10
189.000162
 20
237.353316
 30
0.0
 10
189.000162
 20
251.053188
 30
0.0
  0
SPLINE
  5
10e
100
AcDbEntity
  8
Ebene_1
 62
7
100
AcDbSpline
 70
8
 71
3
 72
8
 73
4
 74
0
 40
0
 40
0
 40
0
 40
0
 40
1
 40
1
 40
1
 40
1
 10
162.589186
 20
259.032870
 30
0.0
 10
162.589186
 20
257.748212
 30
0.0
 10
163.055945
 20
256.597359
 30
0.0
 10
163.952611
 20
255.676460
 30
0.0
  0
LWPOLYLINE
  5
10f
100
AcDbEntity
  8
Ebene_1
 62
7
100
AcDbPolyline
 90
2
 70
0
 10
162.589186
 20
259.527255
 30
0.0
 10
162.589186
 20
259.032870
 30
0.0
  0
SPLINE
  5
110
100
AcDbEntity
  8
Ebene_1
 62
7
100
AcDbSpline
 70
8
 71
3
 72
8
 73
4
 74
0
 40
0
 40
0
 40
0
 40
0
 40
1
 40
1
 40
1
 40
1
 10
163.958544
 20
255.672505
 30
0.0
 10
164.860104
 20
254.770949
 30
0.0
 10
166.016154
 20
254.301358
 30
0.0
 10
167.320747
 20
254.301358
 30
0.0
  0
LWPOLYLINE
  5
111
100
AcDbEntity
  8
Ebene_1
 62
7
100
AcDbPolyline
 90
3
 70
0
 10
163.952611
 20
255.676460
 30
0.0
 10
163.956566
 20
255.674482
 30
0.0
 10
163.958544
 20
255.672505
 30
0.0
  0
SPLINE
  5
112
100
AcDbEntity
  8
Ebene_1
 62
7
100
AcDbSpline
 70
8
 71
3
 72
8
 73
4
 74
0
 40
0
 40
0
 40
0
 40
0
 40
1
 40
1
 40
1
 40
1
 10
184.268888
 20
254.301358
 30
0.0
 10
185.533693
 20
254.301358
 30
0.0
 10
186.673122
 20
254.771557
 30
0.0
 10
187.592470
 20
255.666710
 30
0.0
  0
SPLINE
  5
113
100
AcDbEntity
  8
Ebene_1
 62
7
100
AcDbSpline
 70
8
 71
3
 72
8
 73
4
 74
0
 40
0
 40
0
 40
0
 40
0
 40
1
 40
1
 40
1
 40
1
 10
187.592470
 20
255.666710
 30
0.0
 10
188.517188
 20
256.567096
 30
0.0
 10
189.000311
 20
257.725130
 30
0.0
 10
189.000311
 20
259.032777
 30
0.0
  0
LWPOLYLINE
  5
114
100
AcDbEntity
  8
Ebene_1
 62
7
100
AcDbPolyline
 90
2
 70
0
 10
167.320747
 20
254.301358
 30
0.0
 10
184.268888
 20
254.301358
 30
0.0
  0
LWPOLYLINE
  5
115
100
AcDbEntity
  8
Ebene_1
 62
7
100
AcDbPolyline
 90
3
 70
0
 10
189.000311
 20
259.032777
 30
0.0
 10
189.000311
 20
259.527162
 30
0.0
 10
162.589186
 20
259.527255
 30
0.0
  0
SPLINE
  5
116
100
AcDbEntity
  8
Ebene_1
 62
7
100
AcDbSpline
 70
8
 71
3
 72
8
 73
4
 74
0
 40
0
 40
0
 40
0
 40
0
 40
1
 40
1
 40
1
 40
1
 10
30.893516
 20
259.032870
 30
0.0
 10
30.893516
 20
257.748212
 30
0.0
 10
31.362203
 20
256.597359
 30
0.0
 10
32.258869
 20
255.676460
 30
0.0
  0
LWPOLYLINE
  5
117
100
AcDbEntity
  8
Ebene_1
 62
7
100
AcDbPolyline
 90
2
 70
0
 10
30.893516
 20
259.527255
 30
0.0
 10
30.893516
 20
259.032870
 30
0.0
  0
SPLINE
  5
118
100
AcDbEntity
  8
Ebene_1
 62
7
100
AcDbSpline
 70
8
 71
3
 72
8
 73
4
 74
0
 40
0
 40
0
 40
0
 40
0
 40
1
 40
1
 40
1
 40
1
 10
32.262824
 20
255.672505
 30
0.0
 10
33.164384
 20
254.770948
 30
0.0
 10
34.320434
 20
254.301358
 30
0.0
 10
35.625027
 20
254.301358
 30
0.0
  0
LWPOLYLINE
  5
119
100
AcDbEntity
  8
Ebene_1
 62
7
100
AcDbPolyline
 90
3
 70
0
 10
32.258869
 20
255.676460
 30
0.0
 10
32.260846
 20
255.674482
 30
0.0
 10
32.262824
 20
255.672505
 30
0.0
  0
SPLINE
  5
11a
100
AcDbEntity
  8
Ebene_1
 62
7
100
AcDbSpline
 70
8
 71
3
 72
8
 73
4
 74
0
 40
0
 40
0
 40
0
 40
0
 40
1
 40
1
 40
1
 40
1
 10
52.573168
 20
254.301451
 30
0.0
 10
53.837973
 20
254.301451
 30
0.0
 10
54.977402
 20
254.771650
 30
0.0
 10
55.896750
 20
255.666803
 30
0.0
  0
SPLINE
  5
11b
100
AcDbEntity
  8
Ebene_1
 62
7
100
AcDbSpline
 70
8
 71
3
 72
8
 73
4
 74
0
 40
0
 40
0
 40
0
 40
0
 40
1
 40
1
 40
1
 40
1
 10
55.896750
 20
255.666803
 30
0.0
 10
56.821468
 20
256.567188
 30
0.0
 10
57.304581
 20
257.725222
 30
0.0
 10
57.304581
 20
259.032870
 30
0.0
  0
LWPOLYLINE
  5
11c
100
AcDbEntity
  8
Ebene_1
 62
7
100
AcDbPolyline
 90
7
 70
0
 10
35.625027
 20
254.301358
 30
0.0
 10
41.486199
 20
254.301358
 30
0.0
 10
41.486199
 20
237.353316
 30
0.0
 10
41.980584
 20
237.353316
 30
0.0
 10
46.711997
 20
237.353316
 30
0.0
 10
46.711997
 20
254.301451
 30
0.0
 10
52.573168
 20
254.301451
 30
0.0
  0
LWPOLYLINE
  5
11d
100
AcDbEntity
  8
Ebene_1
 62
7
100
AcDbPolyline
 90
3
 70
0
 10
57.304581
 20
259.032870
 30
0.0
 10
57.304581
 20
259.527255
 30
0.0
 10
30.893516
 20
259.527255
 30
0.0
  0
SPLINE
  5
11e
100
AcDbEntity
  8
Ebene_1
 62
7
100
AcDbSpline
 70
8
 71
3
 72
8
 73
4
 74
0
 40
0
 40
0
 40
0
 40
0
 40
1
 40
1
 40
1
 40
1
 10
63.816472
 20
242.084734
 30
0.0
 10
63.816472
 20
240.800076
 30
0.0
 10
64.285159
 20
239.649224
 30
0.0
 10
65.181825
 20
238.728324
 30
0.0
  0
LWPOLYLINE
  5
11f
100
AcDbEntity
  8
Ebene_1
 62
7
100
AcDbPolyline
 90
2
 70
0
 10
63.816472
 20
242.579119
 30
0.0
 10
63.816472
 20
242.084734
 30
0.0
  0
SPLINE
  5
120
100
AcDbEntity
  8
Ebene_1
 62
7
100
AcDbSpline
 70
8
 71
3
 72
8
 73
4
 74
0
 40
0
 40
0
 40
0
 40
0
 40
1
 40
1
 40
1
 40
1
 10
65.185780
 20
238.722490
 30
0.0
 10
66.087331
 20
237.820934
 30
0.0
 10
67.243381
 20
237.353275
 30
0.0
 10
68.547984
 20
237.353275
 30
0.0
  0
LWPOLYLINE
  5
121
100
AcDbEntity
  8
Ebene_1
 62
7
100
AcDbPolyline
 90
3
 70
0
 10
65.181825
 20
238.728324
 30
0.0
 10
65.183802
 20
238.726346
 30
0.0
 10
65.185780
 20
238.722490
 30
0.0
  0
SPLINE
  5
122
100
AcDbEntity
  8
Ebene_1
 62
7
100
AcDbSpline
 70
8
 71
3
 72
8
 73
4
 74
0
 40
0
 40
0
 40
0
 40
0
 40
1
 40
1
 40
1
 40
1
 10
85.496114
 20
237.353275
 30
0.0
 10
86.760919
 20
237.353275
 30
0.0
 10
87.902286
 20
237.823474
 30
0.0
 10
88.821625
 20
238.718627
 30
0.0
  0
SPLINE
  5
123
100
AcDbEntity
  8
Ebene_1
 62
7
100
AcDbSpline
 70
8
 71
3
 72
8
 73
4
 74
0
 40
0
 40
0
 40
0
 40
0
 40
1
 40
1
 40
1
 40
1
 10
88.821625
 20
238.718627
 30
0.0
 10
89.746352
 20
239.619012
 30
0.0
 10
90.227537
 20
240.777045
 30
0.0
 10
90.227537
 20
242.084694
 30
0.0
  0
LWPOLYLINE
  5
124
100
AcDbEntity
  8
Ebene_1
 62
7
100
AcDbPolyline
 90
2
 70
0
 10
68.547984
 20
237.353275
 30
0.0
 10
85.496114
 20
237.353275
 30
0.0
  0
LWPOLYLINE
  5
125
100
AcDbEntity
  8
Ebene_1
 62
7
100
AcDbPolyline
 90
3
 70
0
 10
90.227537
 20
242.084694
 30
0.0
 10
90.227537
 20
242.579079
 30
0.0
 10
63.816472
 20
242.579119
 30
0.0
  0
SPLINE
  5
126
100
AcDbEntity
  8
Ebene_1
 62
7
100
AcDbSpline
 70
8
 71
3
 72
8
 73
4
 74
0
 40
0
 40
0
 40
0
 40
0
 40
1
 40
1
 40
1
 40
1
 10
63.816472
 20
250.558803
 30
0.0
 10
63.816472
 20
249.274143
 30
0.0
 10
64.285159
 20
248.123292
 30
0.0
 10
65.181825
 20
247.202392
 30
0.0
  0
LWPOLYLINE
  5
127
100
AcDbEntity
  8
Ebene_1
 62
7
100
AcDbPolyline
 90
2
 70
0
 10
63.816472
 20
251.053188
 30
0.0
 10
63.816472
 20
250.558803
 30
0.0
  0
SPLINE
  5
128
100
AcDbEntity
  8
Ebene_1
 62
7
100
AcDbSpline
 70
8
 71
3
 72
8
 73
4
 74
0
 40
0
 40
0
 40
0
 40
0
 40
1
 40
1
 40
1
 40
1
 10
65.185780
 20
247.196558
 30
0.0
 10
66.087331
 20
246.295003
 30
0.0
 10
67.243381
 20
245.827343
 30
0.0
 10
68.547984
 20
245.827343
 30
0.0
  0
LWPOLYLINE
  5
129
100
AcDbEntity
  8
Ebene_1
 62
7
100
AcDbPolyline
 90
3
 70
0
 10
65.181825
 20
247.202392
 30
0.0
 10
65.183802
 20
247.200415
 30
0.0
 10
65.185780
 20
247.196558
 30
0.0
  0
SPLINE
  5
12a
100
AcDbEntity
  8
Ebene_1
 62
7
100
AcDbSpline
 70
8
 71
3
 72
8
 73
4
 74
0
 40
0
 40
0
 40
0
 40
0
 40
1
 40
1
 40
1
 40
1
 10
85.496114
 20
245.827343
 30
0.0
 10
86.760919
 20
245.827343
 30
0.0
 10
87.902286
 20
246.297542
 30
0.0
 10
88.821625
 20
247.192696
 30
0.0
  0
SPLINE
  5
12b
100
AcDbEntity
  8
Ebene_1
 62
7
100
AcDbSpline
 70
8
 71
3
 72
8
 73
4
 74
0
 40
0
 40
0
 40
0
 40
0
 40
1
 40
1
 40
1
 40
1
 10
88.821625
 20
247.192696
 30
0.0
 10
89.746352
 20
248.093081
 30
0.0
 10
90.227537
 20
249.251115
 30
0.0
 10
90.227537
 20
250.558763
 30
0.0
  0
LWPOLYLINE
  5
12c
100
AcDbEntity
  8
Ebene_1
 62
7
100
AcDbPolyline
 90
2
 70
0
 10
68.547984
 20
245.827343
 30
0.0
 10
85.496114
 20
245.827343
 30
0.0
  0
LWPOLYLINE
  5
12d
100
AcDbEntity
  8
Ebene_1
 62
7
100
AcDbPolyline
 90
3
 70
0
 10
90.227537
 20
250.558763
 30
0.0
 10
90.227537
 20
251.053148
 30
0.0
 10
63.816472
 20
251.053188
 30
0.0
  0
SPLINE
  5
12e
100
AcDbEntity
  8
Ebene_1
 62
7
100
AcDbSpline
 70
8
 71
3
 72
8
 73
4
 74
0
 40
0
 40
0
 40
0
 40
0
 40
1
 40
1
 40
1
 40
1
 10
63.816472
 20
259.032870
 30
0.0
 10
63.816472
 20
257.748212
 30
0.0
 10
64.285159
 20
256.597359
 30
0.0
 10
65.181825
 20
255.676460
 30
0.0
  0
LWPOLYLINE
  5
12f
100
AcDbEntity
  8
Ebene_1
 62
7
100
AcDbPolyline
 90
2
 70
0
 10
63.816472
 20
259.527255
 30
0.0
 10
63.816472
 20
259.032870
 30
0.0
  0
SPLINE
  5
130
100
AcDbEntity
  8
Ebene_1
 62
7
100
AcDbSpline
 70
8
 71
3
 72
8
 73
4
 74
0
 40
0
 40
0
 40
0
 40
0
 40
1
 40
1
 40
1
 40
1
 10
65.185780
 20
255.672505
 30
0.0
 10
66.087331
 20
254.770948
 30
0.0
 10
67.243381
 20
254.301358
 30
0.0
 10
68.547984
 20
254.301358
 30
0.0
  0
LWPOLYLINE
  5
131
100
AcDbEntity
  8
Ebene_1
 62
7
100
AcDbPolyline
 90
3
 70
0
 10
65.181825
 20
255.676460
 30
0.0
 10
65.183802
 20
255.674482
 30
0.0
 10
65.185780
 20
255.672505
 30
0.0
  0
SPLINE
  5
132
100
AcDbEntity
  8
Ebene_1
 62
7
100
AcDbSpline
 70
8
 71
3
 72
8
 73
4
 74
0
 40
0
 40
0
 40
0
 40
0
 40
1
 40
1
 40
1
 40
1
 10
85.496114
 20
254.301358
 30
0.0
 10
86.760919
 20
254.301358
 30
0.0
 10
87.902286
 20
254.771557
 30
0.0
 10
88.821625
 20
255.666710
 30
0.0
  0
SPLINE
  5
133
100
AcDbEntity
  8
Ebene_1
 62
7
100
AcDbSpline
 70
8
 71
3
 72
8
 73
4
 74
0
 40
0
 40
0
 40
0
 40
0
 40
1
 40
1
 40
1
 40
1
 10
88.821625
 20
255.666710
 30
0.0
 10
89.746352
 20
256.567095
 30
0.0
 10
90.227537
 20
257.725129
 30
0.0
 10
90.227537
 20
259.032777
 30
0.0
  0
LWPOLYLINE
  5
134
100
AcDbEntity
  8
Ebene_1
 62
7
100
AcDbPolyline
 90
2
 70
0
 10
68.547984
 20
254.301358
 30
0.0
 10
85.496114
 20
254.301358
 30
0.0
  0
LWPOLYLINE
  5
135
100
AcDbEntity
  8
Ebene_1
 62
7
100
AcDbPolyline
 90
3
 70
0
 10
90.227537
 20
259.032777
 30
0.0
 10
90.227537
 20
259.527162
 30
0.0
 10
63.816472
 20
259.527255
 30
0.0
  0
SPLINE
  5
136
100
AcDbEntity
  8
Ebene_1
 62
7
100
AcDbSpline
 70
8
 71
3
 72
8
 73
4
 74
0
 40
0
 40
0
 40
0
 40
0
 40
1
 40
1
 40
1
 40
1
 10
101.472769
 20
242.579119
 30
0.0
 10
100.185005
 20
242.579119
 30
0.0
 10
99.030418
 20
242.096928
 30
0.0
 10
98.110565
 20
241.177075
 30
0.0
  0
SPLINE
  5
137
100
AcDbEntity
  8
Ebene_1
 62
7
100
AcDbSpline
 70
8
 71
3
 72
8
 73
4
 74
0
 40
0
 40
0
 40
0
 40
0
 40
1
 40
1
 40
1
 40
1
 10
98.110565
 20
241.177075
 30
0.0
 10
97.210587
 20
240.277093
 30
0.0
 10
96.741356
 20
239.132359
 30
0.0
 10
96.741356
 20
237.847701
 30
0.0
  0
LWPOLYLINE
  5
138
100
AcDbEntity
  8
Ebene_1
 62
7
100
AcDbPolyline
 90
5
 70
0
 10
96.741356
 20
259.527255
 30
0.0
 10
96.741356
 20
245.827383
 30
0.0
 10
117.926525
 20
245.827383
 30
0.0
 10
117.926525
 20
242.579119
 30
0.0
 10
101.472769
 20
242.579119
 30
0.0
  0
SPLINE
  5
139
100
AcDbEntity
  8
Ebene_1
 62
7
100
AcDbSpline
 70
8
 71
3
 72
8
 73
4
 74
0
 40
0
 40
0
 40
0
 40
0
 40
1
 40
1
 40
1
 40
1
 10
118.420910
 20
254.301451
 30
0.0
 10
119.685714
 20
254.301451
 30
0.0
 10
120.825143
 20
254.771650
 30
0.0
 10
121.744492
 20
255.666803
 30
0.0
  0
SPLINE
  5
13a
100
AcDbEntity
  8
Ebene_1
 62
7
100
AcDbSpline
 70
8
 71
3
 72
8
 73
4
 74
0
 40
0
 40
0
 40
0
 40
0
 40
1
 40
1
 40
1
 40
1
 10
121.744492
 20
255.666803
 30
0.0
 10
122.669209
 20
256.567189
 30
0.0
 10
123.152322
 20
257.725223
 30
0.0
 10
123.152322
 20
259.032870
 30
0.0
  0
LWPOLYLINE
  5
13b
100
AcDbEntity
  8
Ebene_1
 62
7
100
AcDbPolyline
 90
8
 70
0
 10
96.741356
 20
237.847701
 30
0.0
 10
96.741356
 20
237.353316
 30
0.0
 10
97.235741
 20
237.353316
 30
0.0
 10
123.152322
 20
237.353316
 30
0.0
 10
123.152322
 20
251.053188
 30
0.0
 10
101.967154
 20
251.053188
 30
0.0
 10
101.967154
 20
254.301451
 30
0.0
 10
118.420910
 20
254.301451
 30
0.0
  0
LWPOLYLINE
  5
13c
100
AcDbEntity
  8
Ebene_1
 62
7
100
AcDbPolyline
 90
3
 70
0
 10
123.152322
 20
259.032870
 30
0.0
 10
123.152322
 20
259.527255
 30
0.0
 10
96.741356
 20
259.527255
 30
0.0
  0
SPLINE
  5
13d
100
AcDbEntity
  8
Ebene_1
 62
7
100
AcDbSpline
 70
8
 71
3
 72
8
 73
4
 74
0
 40
0
 40
0
 40
0
 40
0
 40
1
 40
1
 40
1
 40
1
 10
151.343856
 20
237.353316
 30
0.0
 10
152.608661
 20
237.353316
 30
0.0
 10
153.750027
 20
237.823514
 30
0.0
 10
154.669366
 20
238.718667
 30
0.0
  0
SPLINE
  5
13e
100
AcDbEntity
  8
Ebene_1
 62
7
100
AcDbSpline
 70
8
 71
3
 72
8
 73
4
 74
0
 40
0
 40
0
 40
0
 40
0
 40
1
 40
1
 40
1
 40
1
 10
154.669366
 20
238.718667
 30
0.0
 10
155.594084
 20
239.619053
 30
0.0
 10
156.075278
 20
240.777087
 30
0.0
 10
156.075278
 20
242.084734
 30
0.0
  0
LWPOLYLINE
  5
13f
100
AcDbEntity
  8
Ebene_1
 62
7
100
AcDbPolyline
 90
4
 70
0
 10
129.664302
 20
259.527255
 30
0.0
 10
129.664302
 20
237.353316
 30
0.0
 10
130.158687
 20
237.353316
 30
0.0
 10
151.343856
 20
237.353316
 30
0.0
  0
SPLINE
  5
140
100
AcDbEntity
  8
Ebene_1
 62
7
100
AcDbSpline
 70
8
 71
3
 72
8
 73
4
 74
0
 40
0
 40
0
 40
0
 40
0
 40
1
 40
1
 40
1
 40
1
 10
109.851990
 20
82.052300
 30
0.0
 10
109.619040
 20
83.280900
 30
0.0
 10
89.573593
 20
195.193710
 30
0.0
 10
89.573593
 20
195.265680
 30
0.0
  0
SPLINE
  5
141
100
AcDbEntity
  8
Ebene_1
 62
7
100
AcDbSpline
 70
8
 71
3
 72
8
 73
4
 74
0
 40
0
 40
0
 40
0
 40
0
 40
1
 40
1
 40
1
 40
1
 10
89.573593
 20
195.265680
 30
0.0
 10
89.573593
 20
195.368130
 30
0.0
 10
83.653033
 20
195.218380
 30
0.0
 10
80.677083
 20
195.040740
 30
0.0
  0
SPLINE
  5
142
100
AcDbEntity
  8
Ebene_1
 62
7
100
AcDbSpline
 70
8
 71
3
 72
8
 73
4
 74
0
 40
0
 40
0
 40
0
 40
0
 40
1
 40
1
 40
1
 40
1
 10
80.677083
 20
195.040740
 30
0.0
 10
71.820743
 20
194.512590
 30
0.0
 10
67.265693
 20
192.961720
 30
0.0
 10
65.064103
 20
189.724900
 30
0.0
  0
SPLINE
  5
143
100
AcDbEntity
  8
Ebene_1
 62
7
100
AcDbSpline
 70
8
 71
3
 72
8
 73
4
 74
0
 40
0
 40
0
 40
0
 40
0
 40
1
 40
1
 40
1
 40
1
 10
65.064103
 20
189.724900
 30
0.0
 10
64.252433
 20
188.531500
 30
0.0
 10
63.913533
 20
187.680590
 30
0.0
 10
63.559253
 20
185.946540
 30
0.0
  0
SPLINE
  5
144
100
AcDbEntity
  8
Ebene_1
 62
7
100
AcDbSpline
 70
8
 71
3
 72
8
 73
4
 74
0
 40
0
 40
0
 40
0
 40
0
 40
1
 40
1
 40
1
 40
1
 10
63.559253
 20
185.946540
 30
0.0
 10
63.415443
 20
185.242010
 30
0.0
 10
63.271353
 20
184.639290
 30
0.0
 10
63.239253
 20
184.607210
 30
0.0
  0
SPLINE
  5
145
100
AcDbEntity
  8
Ebene_1
 62
7
100
AcDbSpline
 70
8
 71
3
 72
8
 73
4
 74
0
 40
0
 40
0
 40
0
 40
0
 40
1
 40
1
 40
1
 40
1
 10
63.239253
 20
184.607210
 30
0.0
 10
63.131583
 20
184.499560
 30
0.0
 10
59.450943
 20
186.248170
 30
0.0
 10
57.606903
 20
187.283460
 30
0.0
  0
SPLINE
  5
146
100
AcDbEntity
  8
Ebene_1
 62
7
100
AcDbSpline
 70
8
 71
3
 72
8
 73
4
 74
0
 40
0
 40
0
 40
0
 40
0
 40
1
 40
1
 40
1
 40
1
 10
57.606903
 20
187.283460
 30
0.0
 10
52.091343
 20
190.379980
 30
0.0
 10
47.761153
 20
193.965250
 30
0.0
 10
44.815473
 20
197.874530
 30
0.0
  0
SPLINE
  5
147
100
AcDbEntity
  8
Ebene_1
 62
7
100
AcDbSpline
 70
8
 71
3
 72
8
 73
4
 74
0
 40
0
 40
0
 40
0
 40
0
 40
1
 40
1
 40
1
 40
1
 10
44.815473
 20
197.874530
 30
0.0
 10
44.382663
 20
198.448850
 30
0.0
 10
44.028593
 20
198.965740
 30
0.0
 10
44.028593
 20
199.023210
 30
0.0
  0
SPLINE
  5
148
100
AcDbEntity
  8
Ebene_1
 62
7
100
AcDbSpline
 70
8
 71
3
 72
8
 73
4
 74
0
 40
0
 40
0
 40
0
 40
0
 40
1
 40
1
 40
1
 40
1
 10
44.028593
 20
199.023210
 30
0.0
 10
44.028593
 20
199.080810
 30
0.0
 10
44.252673
 20
199.220410
 30
0.0
 10
44.526533
 20
199.333750
 30
0.0
  0
SPLINE
  5
149
100
AcDbEntity
  8
Ebene_1
 62
7
100
AcDbSpline
 70
8
 71
3
 72
8
 73
4
 74
0
 40
0
 40
0
 40
0
 40
0
 40
1
 40
1
 40
1
 40
1
 10
44.526533
 20
199.333750
 30
0.0
 10
44.800413
 20
199.447230
 30
0.0
 10
45.980523
 20
199.955720
 30
0.0
 10
47.149043
 20
200.464047
 30
0.0
  0
SPLINE
  5
14a
100
AcDbEntity
  8
Ebene_1
 62
7
100
AcDbSpline
 70
8
 71
3
 72
8
 73
4
 74
0
 40
0
 40
0
 40
0
 40
0
 40
1
 40
1
 40
1
 40
1
 10
47.149043
 20
200.464047
 30
0.0
 10
60.537113
 20
206.288431
 30
0.0
 10
77.939573
 20
210.359591
 30
0.0
 10
93.557133
 20
211.320781
 30
0.0
  0
LWPOLYLINE
  5
14b
100
AcDbEntity
  8
Ebene_1
 62
7
100
AcDbPolyline
 90
5
 70
0
 10
156.075278
 20
242.084734
 30
0.0
 10
156.075278
 20
242.579119
 30
0.0
 10
134.890110
 20
242.579119
 30
0.0
 10
134.890110
 20
259.527255
 30
0.0
 10
129.664302
 20
259.527255
 30
0.0
  0
SPLINE
  5
14c
100
AcDbEntity
  8
Ebene_1
 62
7
100
AcDbSpline
 70
8
 71
3
 72
8
 73
4
 74
0
 40
0
 40
0
 40
0
 40
0
 40
1
 40
1
 40
1
 40
1
 10
102.434950
 20
202.287521
 30
0.0
 10
106.550920
 20
197.272090
 30
0.0
 10
109.964070
 20
193.218790
 30
0.0
 10
110.019730
 20
193.280160
 30
0.0
  0
SPLINE
  5
14d
100
AcDbEntity
  8
Ebene_1
 62
7
100
AcDbSpline
 70
8
 71
3
 72
8
 73
4
 74
0
 40
0
 40
0
 40
0
 40
0
 40
1
 40
1
 40
1
 40
1
 10
110.019730
 20
193.280160
 30
0.0
 10
110.075330
 20
193.341460
 30
0.0
 10
113.416000
 20
197.407300
 30
0.0
 10
117.443300
 20
202.315031
 30
0.0
  0
SPLINE
  5
14e
100
AcDbEntity
  8
Ebene_1
 62
7
100
AcDbSpline
 70
8
 71
3
 72
8
 73
4
 74
0
 40
0
 40
0
 40
0
 40
0
 40
1
 40
1
 40
1
 40
1
 10
117.443300
 20
202.315031
 30
0.0
 10
121.470610
 20
207.222771
 30
0.0
 10
124.827210
 20
211.276301
 30
0.0
 10
124.902370
 20
211.322771
 30
0.0
  0
SPLINE
  5
14f
100
AcDbEntity
  8
Ebene_1
 62
7
100
AcDbSpline
 70
8
 71
3
 72
8
 73
4
 74
0
 40
0
 40
0
 40
0
 40
0
 40
1
 40
1
 40
1
 40
1
 10
124.902370
 20
211.322771
 30
0.0
 10
125.059220
 20
211.419671
 30
0.0
 10
128.408580
 20
211.203741
 30
0.0
 10
131.334240
 20
210.907931
 30
0.0
  0
SPLINE
  5
150
100
AcDbEntity
  8
Ebene_1
 62
7
100
AcDbSpline
 70
8
 71
3
 72
8
 73
4
 74
0
 40
0
 40
0
 40
0
 40
0
 40
1
 40
1
 40
1
 40
1
 10
131.334240
 20
210.907931
 30
0.0
 10
143.672210
 20
209.660761
 30
0.0
 10
156.063770
 20
206.805741
 30
0.0
 10
167.318800
 20
202.617101
 30
0.0
  0
SPLINE
  5
151
100
AcDbEntity
  8
Ebene_1
 62
7
100
AcDbSpline
 70
8
 71
3
 72
8
 73
4
 74
0
 40
0
 40
0
 40
0
 40
0
 40
1
 40
1
 40
1
 40
1
 10
167.318800
 20
202.617101
 30
0.0
 10
169.975060
 20
201.628581
 30
0.0
 10
174.247750
 20
199.864190
 30
0.0
 10
175.362100
 20
199.295710
 30
0.0
  0
LWPOLYLINE
  5
152
100
AcDbEntity
  8
Ebene_1
 62
7
100
AcDbPolyline
 90
3
 70
0
 10
93.557133
 20
211.320781
 30
0.0
 10
94.951343
 20
211.406581
 30
0.0
 10
102.434950
 20
202.287521
 30
0.0
  0
SPLINE
  5
153
100
AcDbEntity
  8
Ebene_1
 62
7
100
AcDbSpline
 70
8
 71
3
 72
8
 73
4
 74
0
 40
0
 40
0
 40
0
 40
0
 40
1
 40
1
 40
1
 40
1
 10
175.211160
 20
198.106870
 30
0.0
 10
172.601460
 20
194.518870
 30
0.0
 10
168.510270
 20
190.992890
 30
0.0
 10
163.443720
 20
187.965120
 30
0.0
  0
SPLINE
  5
154
100
AcDbEntity
  8
Ebene_1
 62
7
100
AcDbSpline
 70
8
 71
3
 72
8
 73
4
 74
0
 40
0
 40
0
 40
0
 40
0
 40
1
 40
1
 40
1
 40
1
 10
163.443720
 20
187.965120
 30
0.0
 10
162.050330
 20
187.132430
 30
0.0
 10
157.437700
 20
184.817300
 30
0.0
 10
156.808780
 20
184.634980
 30
0.0
  0
SPLINE
  5
155
100
AcDbEntity
  8
Ebene_1
 62
7
100
AcDbSpline
 70
8
 71
3
 72
8
 73
4
 74
0
 40
0
 40
0
 40
0
 40
0
 40
1
 40
1
 40
1
 40
1
 10
156.808780
 20
184.634980
 30
0.0
 10
156.549250
 20
184.559580
 30
0.0
 10
156.514440
 20
184.616080
 30
0.0
 10
156.428100
 20
185.254030
 30
0.0
  0
SPLINE
  5
156
100
AcDbEntity
  8
Ebene_1
 62
7
100
AcDbSpline
 70
8
 71
3
 72
8
 73
4
 74
0
 40
0
 40
0
 40
0
 40
0
 40
1
 40
1
 40
1
 40
1
 10
156.428100
 20
185.254030
 30
0.0
 10
156.375900
 20
185.640080
 30
0.0
 10
156.187070
 20
186.462260
 30
0.0
 10
156.008600
 20
187.081040
 30
0.0
  0
SPLINE
  5
157
100
AcDbEntity
  8
Ebene_1
 62
7
100
AcDbSpline
 70
8
 71
3
 72
8
 73
4
 74
0
 40
0
 40
0
 40
0
 40
0
 40
1
 40
1
 40
1
 40
1
 10
156.008600
 20
187.081040
 30
0.0
 10
154.603430
 20
191.953970
 30
0.0
 10
150.451510
 20
194.117800
 30
0.0
 10
140.961100
 20
194.923140
 30
0.0
  0
SPLINE
  5
158
100
AcDbEntity
  8
Ebene_1
 62
7
100
AcDbSpline
 70
8
 71
3
 72
8
 73
4
 74
0
 40
0
 40
0
 40
0
 40
0
 40
1
 40
1
 40
1
 40
1
 10
140.961100
 20
194.923140
 30
0.0
 10
138.894660
 20
195.098480
 30
0.0
 10
130.300520
 20
195.323560
 30
0.0
 10
130.192530
 20
195.205110
 30
0.0
  0
SPLINE
  5
159
100
AcDbEntity
  8
Ebene_1
 62
7
100
AcDbSpline
 70
8
 71
3
 72
8
 73
4
 74
0
 40
0
 40
0
 40
0
 40
0
 40
1
 40
1
 40
1
 40
1
 10
130.192530
 20
195.205110
 30
0.0
 10
130.137230
 20
195.144510
 30
0.0
 10
113.546690
 20
102.076200
 30
0.0
 10
110.045310
 20
82.185050
 30
0.0
  0
LWPOLYLINE
  5
15a
100
AcDbEntity
  8
Ebene_1
 62
7
100
AcDbPolyline
 90
3
 70
0
 10
175.362100
 20
199.295710
 30
0.0
 10
175.882680
 20
199.030120
 30
0.0
 10
175.211160
 20
198.106870
 30
0.0
  0
SPLINE
  5
15b
100
AcDbEntity
  8
Ebene_1
 62
7
100
AcDbSpline
 70
8
 71
3
 72
8
 73
4
 74
0
 40
0
 40
0
 40
0
 40
0
 40
1
 40
1
 40
1
 40
1
 10
175.883390
 20
204.043901
 30
0.0
 10
160.024470
 20
210.732321
 30
0.0
 10
142.006830
 20
214.988411
 30
0.0
 10
124.031090
 20
216.292311
 30
0.0
  0
SPLINE
  5
15c
100
AcDbEntity
  8
Ebene_1
 62
7
100
AcDbSpline
 70
8
 71
3
 72
8
 73
4
 74
0
 40
0
 40
0
 40
0
 40
0
 40
1
 40
1
 40
1
 40
1
 10
124.031090
 20
216.292311
 30
0.0
 10
118.255890
 20
216.711231
 30
0.0
 10
106.257920
 20
216.848421
 30
0.0
 10
100.448180
 20
216.561961
 30
0.0
  0
SPLINE
  5
15d
100
AcDbEntity
  8
Ebene_1
 62
7
100
AcDbSpline
 70
8
 71
3
 72
8
 73
4
 74
0
 40
0
 40
0
 40
0
 40
0
 40
1
 40
1
 40
1
 40
1
 10
100.448180
 20
216.561961
 30
0.0
 10
80.314683
 20
215.569291
 30
0.0
 10
61.791473
 20
211.466161
 30
0.0
 10
43.989613
 20
204.055771
 30
0.0
  0
SPLINE
  5
15e
100
AcDbEntity
  8
Ebene_1
 62
7
100
AcDbSpline
 70
8
 71
3
 72
8
 73
4
 74
0
 40
0
 40
0
 40
0
 40
0
 40
1
 40
1
 40
1
 40
1
 10
43.989613
 20
204.055771
 30
0.0
 10
42.763123
 20
203.545231
 30
0.0
 10
41.683303
 20
203.156801
 30
0.0
 10
41.589953
 20
203.192601
 30
0.0
  0
SPLINE
  5
15f
100
AcDbEntity
  8
Ebene_1
 62
7
100
AcDbSpline
 70
8
 71
3
 72
8
 73
4
 74
0
 40
0
 40
0
 40
0
 40
0
 40
1
 40
1
 40
1
 40
1
 10
41.589953
 20
203.192601
 30
0.0
 10
41.496353
 20
203.228701
 30
0.0
 10
40.728763
 20
204.652951
 30
0.0
 10
39.883653
 20
206.358231
 30
0.0
  0
SPLINE
  5
160
100
AcDbEntity
  8
Ebene_1
 62
7
100
AcDbSpline
 70
8
 71
3
 72
8
 73
4
 74
0
 40
0
 40
0
 40
0
 40
0
 40
1
 40
1
 40
1
 40
1
 10
39.883653
 20
206.358231
 30
0.0
 10
38.302393
 20
209.548731
 30
0.0
 10
37.565473
 20
211.206121
 30
0.0
 10
37.678093
 20
211.318751
 30
0.0
  0
SPLINE
  5
161
100
AcDbEntity
  8
Ebene_1
 62
7
100
AcDbSpline
 70
8
 71
3
 72
8
 73
4
 74
0
 40
0
 40
0
 40
0
 40
0
 40
1
 40
1
 40
1
 40
1
 10
37.678093
 20
211.318751
 30
0.0
 10
37.793473
 20
211.434141
 30
0.0
 10
42.435983
 20
213.187901
 30
0.0
 10
45.157263
 20
214.144271
 30
0.0
  0
SPLINE
  5
162
100
AcDbEntity
  8
Ebene_1
 62
7
100
AcDbSpline
 70
8
 71
3
 72
8
 73
4
 74
0
 40
0
 40
0
 40
0
 40
0
 40
1
 40
1
 40
1
 40
1
 10
45.157263
 20
214.144271
 30
0.0
 10
70.668163
 20
223.110031
 30
0.0
 10
97.913193
 20
226.825421
 30
0.0
 10
123.699140
 20
224.855081
 30
0.0
  0
SPLINE
  5
163
100
AcDbEntity
  8
Ebene_1
 62
7
100
AcDbSpline
 70
8
 71
3
 72
8
 73
4
 74
0
 40
0
 40
0
 40
0
 40
0
 40
1
 40
1
 40
1
 40
1
 10
123.699140
 20
224.855081
 30
0.0
 10
142.985540
 20
223.381381
 30
0.0
 10
161.162070
 20
219.313101
 30
0.0
 10
179.664530
 20
212.328871
 30
0.0
  0
SPLINE
  5
164
100
AcDbEntity
  8
Ebene_1
 62
7
100
AcDbSpline
 70
8
 71
3
 72
8
 73
4
 74
0
 40
0
 40
0
 40
0
 40
0
 40
1
 40
1
 40
1
 40
1
 10
179.664530
 20
212.328871
 30
0.0
 10
181.042080
 20
211.808881
 30
0.0
 10
182.192860
 20
211.359781
 30
0.0
 10
182.221800
 20
211.330831
 30
0.0
  0
SPLINE
  5
165
100
AcDbEntity
  8
Ebene_1
 62
7
100
AcDbSpline
 70
8
 71
3
 72
8
 73
4
 74
0
 40
0
 40
0
 40
0
 40
0
 40
1
 40
1
 40
1
 40
1
 10
182.221800
 20
211.330831
 30
0.0
 10
182.373110
 20
211.179671
 30
0.0
 10
178.673430
 20
203.456441
 30
0.0
 10
178.298550
 20
203.140841
 30
0.0
  0
SPLINE
  5
166
100
AcDbEntity
  8
Ebene_1
 62
7
100
AcDbSpline
 70
8
 71
3
 72
8
 73
4
 74
0
 40
0
 40
0
 40
0
 40
0
 40
1
 40
1
 40
1
 40
1
 10
178.298550
 20
203.140841
 30
0.0
 10
178.248250
 20
203.098441
 30
0.0
 10
177.161450
 20
203.504891
 30
0.0
 10
175.883390
 20
204.043901
 30
0.0
  0
LWPOLYLINE
  5
167
100
AcDbEntity
  8
Ebene_1
 62
7
100
AcDbPolyline
 90
3
 70
0
 10
110.045310
 20
82.185050
 30
0.0
 10
109.940110
 20
81.587510
 30
0.0
 10
109.851990
 20
82.052300
 30
0.0
  0
SPLINE
  5
168
100
AcDbEntity
  8
Ebene_1
 62
7
100
AcDbSpline
 70
8
 71
3
 72
8
 73
4
 74
0
 40
0
 40
0
 40
0
 40
0
 40
1
 40
1
 40
1
 40
1
 10
111.115660
 20
283.770555
 30
0.0
 10
80.687391
 20
283.809565
 30
0.0
 10
49.732630
 20
278.963877
 30
0.0
 10
17.318868
 20
269.121294
 30
0.0
  0
LWPOLYLINE
  5
169
100
AcDbEntity
  8
Ebene_1
 62
7
100
AcDbPolyline
 90
1
 70
1
 10
175.883390
 20
204.043901
 30
0.0
  0
SPLINE
  5
16a
100
AcDbEntity
  8
Ebene_1
 62
7
100
AcDbSpline
 70
8
 71
3
 72
8
 73
4
 74
0
 40
0
 40
0
 40
0
 40
0
 40
1
 40
1
 40
1
 40
1
 10
14.863355
 20
265.822708
 30
0.0
 10
14.863355
 20
155.994000
 30
0.0
 10
59.696978
 20
103.683020
 30
0.0
 10
107.391780
 20
67.060780
 30
0.0
  0
LWPOLYLINE
  5
16b
100
AcDbEntity
  8
Ebene_1
 62
7
100
AcDbPolyline
 90
3
 70
0
 10
17.318868
 20
269.121294
 30
0.0
 10
14.863355
 20
268.374589
 30
0.0
 10
14.863355
 20
265.822708
 30
0.0
  0
SPLINE
  5
16c
100
AcDbEntity
  8
Ebene_1
 62
7
100
AcDbSpline
 70
8
 71
3
 72
8
 73
4
 74
0
 40
0
 40
0
 40
0
 40
0
 40
1
 40
1
 40
1
 40
1
 10
111.620290
 20
67.056930
 30
0.0
 10
159.455180
 20
103.682090
 30
0.0
 10
204.150670
 20
155.996840
 30
0.0
 10
204.150670
 20
265.822708
 30
0.0
  0
LWPOLYLINE
  5
16d
100
AcDbEntity
  8
Ebene_1
 62
7
100
AcDbPolyline
 90
3
 70
0
 10
107.391780
 20
67.060780
 30
0.0
 10
109.505070
 20
65.438430
 30
0.0
 10
111.620290
 20
67.056930
 30
0.0
  0
SPLINE
  5
16e
100
AcDbEntity
  8
Ebene_1
 62
7
100
AcDbSpline
 70
8
 71
3
 72
8
 73
4
 74
0
 40
0
 40
0
 40
0
 40
0
 40
1
 40
1
 40
1
 40
1
 10
201.747360
 20
269.105898
 30
0.0
 10
171.444880
 20
278.808031
 30
0.0
 10
141.543940
 20
283.731547
 30
0.0
 10
111.115660
 20
283.770555
 30
0.0
  0
LWPOLYLINE
  5
16f
100
AcDbEntity
  8
Ebene_1
 62
7
100
AcDbPolyline
 90
3
 70
0
 10
204.150670
 20
265.822708
 30
0.0
 10
204.150670
 20
268.336099
 30
0.0
 10
201.747360
 20
269.105898
 30
0.0
  0
SPLINE
  5
170
100
AcDbEntity
  8
Ebene_1
 62
7
100
AcDbSpline
 70
8
 71
3
 72
8
 73
4
 74
0
 40
0
 40
0
 40
0
 40
0
 40
1
 40
1
 40
1
 40
1
 10
111.098260
 20
276.913577
 30
0.0
 10
139.959010
 20
276.877567
 30
0.0
 10
168.318240
 20
272.223361
 30
0.0
 10
197.155360
 20
263.234260
 30
0.0
  0
SPLINE
  5
171
100
AcDbEntity
  8
Ebene_1
 62
7
100
AcDbSpline
 70
8
 71
3
 72
8
 73
4
 74
0
 40
0
 40
0
 40
0
 40
0
 40
1
 40
1
 40
1
 40
1
 10
197.155360
 20
263.234260
 30
0.0
 10
196.466430
 20
158.729740
 30
0.0
 10
155.264830
 20
109.797440
 30
0.0
 10
109.510860
 20
74.256470
 30
0.0
  0
SPLINE
  5
172
100
AcDbEntity
  8
Ebene_1
 62
7
100
AcDbSpline
 70
8
 71
3
 72
8
 73
4
 74
0
 40
0
 40
0
 40
0
 40
0
 40
1
 40
1
 40
1
 40
1
 10
109.510860
 20
74.256470
 30
0.0
 10
63.882650
 20
109.796060
 30
0.0
 10
22.558825
 20
158.724730
 30
0.0
 10
21.858670
 20
263.199620
 30
0.0
  0
SPLINE
  5
173
100
AcDbEntity
  8
Ebene_1
 62
7
100
AcDbSpline
 70
8
 71
3
 72
8
 73
4
 74
0
 40
0
 40
0
 40
0
 40
0
 40
1
 40
1
 40
1
 40
1
 10
21.858670
 20
263.199620
 30
0.0
 10
52.771890
 20
272.356740
 30
0.0
 10
82.203823
 20
276.949628
 30
0.0
 10
111.098250
 20
276.913577
 30
0.0
  0
LWPOLYLINE
  5
174
100
AcDbEntity
  8
Ebene_1
 62
7
100
AcDbPolyline
 90
1
 70
1
 10
111.115660
 20
283.770555
 30
0.0
  0
SPLINE
  5
175
100
AcDbEntity
  8
Ebene_1
 62
7
100
AcDbSpline
 70
8
 71
3
 72
8
 73
4
 74
0
 40
0
 40
0
 40
0
 40
0
 40
1
 40
1
 40
1
 40
1
 10
106.782140
 20
288.412519
 30
0.0
 10
75.095242
 20
287.959523
 30
0.0
 10
43.633242
 20
282.130767
 30
0.0
 10
13.442402
 20
272.664800
 30
0.0
  0
SPLINE
  5
176
100
AcDbEntity
  8
Ebene_1
 62
7
100
AcDbSpline
 70
8
 71
3
 72
8
 73
4
 74
0
 40
0
 40
0
 40
0
 40
0
 40
1
 40
1
 40
1
 40
1
 10
13.442402
 20
272.664800
 30
0.0
 10
12.507452
 20
272.380253
 30
0.0
 10
11.572722
 20
272.095016
 30
0.0
 10
10.637632
 20
271.810957
 30
0.0
  0
SPLINE
  5
177
100
AcDbEntity
  8
Ebene_1
 62
7
100
AcDbSpline
 70
8
 71
3
 72
8
 73
4
 74
0
 40
0
 40
0
 40
0
 40
0
 40
1
 40
1
 40
1
 40
1
 10
10.637632
 20
271.810957
 30
0.0
 10
10.478282
 20
256.027131
 30
0.0
 10
11.094332
 20
240.221106
 30
0.0
 10
12.916932
 20
224.537519
 30
0.0
  0
SPLINE
  5
178
100
AcDbEntity
  8
Ebene_1
 62
7
100
AcDbSpline
 70
8
 71
3
 72
8
 73
4
 74
0
 40
0
 40
0
 40
0
 40
0
 40
1
 40
1
 40
1
 40
1
 10
12.916932
 20
224.537519
 30
0.0
 10
12.551452
 20
223.772680
 30
0.0
 10
12.623112
 20
222.870228
 30
0.0
 10
12.393322
 20
222.057124
 30
0.0
  0
SPLINE
  5
179
100
AcDbEntity
  8
Ebene_1
 62
7
100
AcDbSpline
 70
8
 71
3
 72
8
 73
4
 74
0
 40
0
 40
0
 40
0
 40
0
 40
1
 40
1
 40
1
 40
1
 10
12.393322
 20
222.057124
 30
0.0
 10
11.879912
 20
219.170885
 30
0.0
 10
10.851362
 20
216.483045
 30
0.0
 10
10.135652
 20
213.646422
 30
0.0
  0
SPLINE
  5
17a
100
AcDbEntity
  8
Ebene_1
 62
7
100
AcDbSpline
 70
8
 71
3
 72
8
 73
4
 74
0
 40
0
 40
0
 40
0
 40
0
 40
1
 40
1
 40
1
 40
1
 10
10.135652
 20
213.646422
 30
0.0
 10
9.637392
 20
210.697617
 30
0.0
 10
10.062052
 20
207.698742
 30
0.0
 10
9.919082
 20
204.728144
 30
0.0
  0
SPLINE
  5
17b
100
AcDbEntity
  8
Ebene_1
 62
7
100
AcDbSpline
 70
8
 71
3
 72
8
 73
4
 74
0
 40
0
 40
0
 40
0
 40
0
 40
1
 40
1
 40
1
 40
1
 10
9.919082
 20
204.728144
 30
0.0
 10
9.949282
 20
151.710730
 30
0.0
 10
9.897882
 20
98.692600
 30
0.0
 10
10.001382
 20
45.675660
 30
0.0
  0
SPLINE
  5
17c
100
AcDbEntity
  8
Ebene_1
 62
7
100
AcDbSpline
 70
8
 71
3
 72
8
 73
4
 74
0
 40
0
 40
0
 40
0
 40
0
 40
1
 40
1
 40
1
 40
1
 10
10.001382
 20
45.675660
 30
0.0
 10
10.541092
 20
31.366630
 30
0.0
 10
19.766102
 20
17.757820
 30
0.0
 10
32.899272
 20
12.024040
 30
0.0
  0
SPLINE
  5
17d
100
AcDbEntity
  8
Ebene_1
 62
7
100
AcDbSpline
 70
8
 71
3
 72
8
 73
4
 74
0
 40
0
 40
0
 40
0
 40
0
 40
1
 40
1
 40
1
 40
1
 10
32.899272
 20
12.024040
 30
0.0
 10
39.050292
 20
9.241830
 30
0.0
 10
45.899282
 20
8.267870
 30
0.0
 10
52.609932
 20
8.599980
 30
0.0
  0
SPLINE
  5
17e
100
AcDbEntity
  8
Ebene_1
 62
7
100
AcDbSpline
 70
8
 71
3
 72
8
 73
4
 74
0
 40
0
 40
0
 40
0
 40
0
 40
1
 40
1
 40
1
 40
1
 10
52.609932
 20
8.599980
 30
0.0
 10
92.847012
 20
8.603980
 30
0.0
 10
133.084950
 20
8.564680
 30
0.0
 10
173.321420
 20
8.672880
 30
0.0
  0
SPLINE
  5
17f
100
AcDbEntity
  8
Ebene_1
 62
7
100
AcDbSpline
 70
8
 71
3
 72
8
 73
4
 74
0
 40
0
 40
0
 40
0
 40
0
 40
1
 40
1
 40
1
 40
1
 10
173.321420
 20
8.672880
 30
0.0
 10
187.532850
 20
9.370570
 30
0.0
 10
200.957750
 20
18.647360
 30
0.0
 10
206.570130
 20
31.733040
 30
0.0
  0
SPLINE
  5
180
100
AcDbEntity
  8
Ebene_1
 62
7
100
AcDbSpline
 70
8
 71
3
 72
8
 73
4
 74
0
 40
0
 40
0
 40
0
 40
0
 40
1
 40
1
 40
1
 40
1
 10
206.570130
 20
31.733040
 30
0.0
 10
209.329700
 20
37.885280
 30
0.0
 10
210.273390
 20
44.726680
 30
0.0
 10
209.948200
 20
51.427720
 30
0.0
  0
LWPOLYLINE
  5
181
100
AcDbEntity
  8
Ebene_1
 62
7
100
AcDbPolyline
 90
1
 70
1
 10
111.098250
 20
276.913577
 30
0.0
  0
SPLINE
  5
182
100
AcDbEntity
  8
Ebene_1
 62
7
100
AcDbSpline
 70
8
 71
3
 72
8
 73
4
 74
0
 40
0
 40
0
 40
0
 40
0
 40
1
 40
1
 40
1
 40
1
 10
209.952200
 20
222.639061
 30
0.0
 10
208.954290
 20
225.409523
 30
0.0
 10
207.954680
 20
228.179380
 30
0.0
 10
206.956110
 20
230.949608
 30
0.0
  0
SPLINE
  5
183
100
AcDbEntity
  8
Ebene_1
 62
7
100
AcDbSpline
 70
8
 71
3
 72
8
 73
4
 74
0
 40
0
 40
0
 40
0
 40
0
 40
1
 40
1
 40
1
 40
1
 10
206.956110
 20
230.949608
 30
0.0
 10
208.251090
 20
244.488779
 30
0.0
 10
208.645390
 20
258.098964
 30
0.0
 10
208.549860
 20
271.695702
 30
0.0
  0
SPLINE
  5
184
100
AcDbEntity
  8
Ebene_1
 62
7
100
AcDbSpline
 70
8
 71
3
 72
8
 73
4
 74
0
 40
0
 40
0
 40
0
 40
0
 40
1
 40
1
 40
1
 40
1
 10
208.549860
 20
271.695702
 30
0.0
 10
179.233910
 20
281.602673
 30
0.0
 10
148.506590
 20
287.707231
 30
0.0
 10
117.519820
 20
288.339119
 30
0.0
  0
SPLINE
  5
185
100
AcDbEntity
  8
Ebene_1
 62
7
100
AcDbSpline
 70
8
 71
3
 72
8
 73
4
 74
0
 40
0
 40
0
 40
0
 40
0
 40
1
 40
1
 40
1
 40
1
 10
117.519820
 20
288.339119
 30
0.0
 10
113.941470
 20
288.428519
 30
0.0
 10
110.361410
 20
288.431739
 30
0.0
 10
106.782180
 20
288.412499
 30
0.0
  0
LWPOLYLINE
  5
186
100
AcDbEntity
  8
Ebene_1
 62
7
100
AcDbPolyline
 90
2
 70
0
 10
209.948200
 20
51.427720
 30
0.0
 10
209.952200
 20
222.639061
 30
0.0
  0
SPLINE
  5
187
100
AcDbEntity
  8
Ebene_1
 62
7
100
AcDbSpline
 70
8
 71
3
 72
8
 73
4
 74
0
 40
0
 40
0
 40
0
 40
0
 40
1
 40
1
 40
1
 40
1
 10
36.577270
 20
34.416637
 30
0.0
 10
36.577270
 20
33.753596
 30
0.0
 10
36.313878
 20
33.117711
 30
0.0
 10
35.845037
 20
32.648870
 30
0.0
  0
SPLINE
  5
188
100
AcDbEntity
  8
Ebene_1
 62
7
100
AcDbSpline
 70
8
 71
3
 72
8
 73
4
 74
0
 40
0
 40
0
 40
0
 40
0
 40
1
 40
1
 40
1
 40
1
 10
35.845037
 20
32.648870
 30
0.0
 10
35.376197
 20
32.180029
 30
0.0
 10
34.740312
 20
31.916637
 30
0.0
 10
34.077270
 20
31.916637
 30
0.0
  0
SPLINE
  5
189
100
AcDbEntity
  8
Ebene_1
 62
7
100
AcDbSpline
 70
8
 71
3
 72
8
 73
4
 74
0
 40
0
 40
0
 40
0
 40
0
 40
1
 40
1
 40
1
 40
1
 10
34.077270
 20
31.916637
 30
0.0
 10
33.414229
 20
31.916637
 30
0.0
 10
32.778344
 20
32.180029
 30
0.0
 10
32.309504
 20
32.648870
 30
0.0
  0
SPLINE
  5
18a
100
AcDbEntity
  8
Ebene_1
 62
7
100
AcDbSpline
 70
8
 71
3
 72
8
 73
4
 74
0
 40
0
 40
0
 40
0
 40
0
 40
1
 40
1
 40
1
 40
1
 10
32.309504
 20
32.648870
 30
0.0
 10
31.840663
 20
33.117711
 30
0.0
 10
31.577270
 20
33.753596
 30
0.0
 10
31.577270
 20
34.416637
 30
0.0
  0
SPLINE
  5
18b
100
AcDbEntity
  8
Ebene_1
 62
7
100
AcDbSpline
 70
8
 71
3
 72
8
 73
4
 74
0
 40
0
 40
0
 40
0
 40
0
 40
1
 40
1
 40
1
 40
1
 10
31.577270
 20
34.416637
 30
0.0
 10
31.577270
 20
35.079678
 30
0.0
 10
31.840663
 20
35.715563
 30
0.0
 10
32.309504
 20
36.184404
 30
0.0
  0
SPLINE
  5
18c
100
AcDbEntity
  8
Ebene_1
 62
7
100
AcDbSpline
 70
8
 71
3
 72
8
 73
4
 74
0
 40
0
 40
0
 40
0
 40
0
 40
1
 40
1
 40
1
 40
1
 10
32.309504
 20
36.184404
 30
0.0
 10
32.778344
 20
36.653245
 30
0.0
 10
33.414229
 20
36.916637
 30
0.0
 10
34.077270
 20
36.916637
 30
0.0
  0
SPLINE
  5
18d
100
AcDbEntity
  8
Ebene_1
 62
7
100
AcDbSpline
 70
8
 71
3
 72
8
 73
4
 74
0
 40
0
 40
0
 40
0
 40
0
 40
1
 40
1
 40
1
 40
1
 10
34.077270
 20
36.916637
 30
0.0
 10
34.740312
 20
36.916637
 30
0.0
 10
35.376197
 20
36.653245
 30
0.0
 10
35.845037
 20
36.184404
 30
0.0
  0
SPLINE
  5
18e
100
AcDbEntity
  8
Ebene_1
 62
7
100
AcDbSpline
 70
8
 71
3
 72
8
 73
4
 74
0
 40
0
 40
0
 40
0
 40
0
 40
1
 40
1
 40
1
 40
1
 10
35.845037
 20
36.184404
 30
0.0
 10
36.313878
 20
35.715563
 30
0.0
 10
36.577270
 20
35.079678
 30
0.0
 10
36.577270
 20
34.416637
 30
0.0
  0
LWPOLYLINE
  5
18f
100
AcDbEntity
  8
Ebene_1
 62
7
100
AcDbPolyline
 90
1
 70
1
 10
106.782180
 20
288.412499
 30
0.0
  0
SPLINE
  5
190
100
AcDbEntity
  8
Ebene_1
 62
7
100
AcDbSpline
 70
8
 71
3
 72
8
 73
4
 74
0
 40
0
 40
0
 40
0
 40
0
 40
1
 40
1
 40
1
 40
1
 10
188.315939
 20
34.708297
 30
0.0
 10
188.315940
 20
34.045256
 30
0.0
 10
188.052547
 20
33.409371
 30
0.0
 10
187.583706
 20
32.940530
 30
0.0
  0
SPLINE
  5
191
100
AcDbEntity
  8
Ebene_1
 62
7
100
AcDbSpline
 70
8
 71
3
 72
8
 73
4
 74
0
 40
0
 40
0
 40
0
 40
0
 40
1
 40
1
 40
1
 40
1
 10
187.583706
 20
32.940530
 30
0.0
 10
187.114866
 20
32.471689
 30
0.0
 10
186.478981
 20
32.208297
 30
0.0
 10
185.815940
 20
32.208297
 30
0.0
  0
SPLINE
  5
192
100
AcDbEntity
  8
Ebene_1
 62
7
100
AcDbSpline
 70
8
 71
3
 72
8
 73
4
 74
0
 40
0
 40
0
 40
0
 40
0
 40
1
 40
1
 40
1
 40
1
 10
185.815940
 20
32.208297
 30
0.0
 10
185.152898
 20
32.208297
 30
0.0
 10
184.517013
 20
32.471689
 30
0.0
 10
184.048173
 20
32.940530
 30
0.0
  0
SPLINE
  5
193
100
AcDbEntity
  8
Ebene_1
 62
7
100
AcDbSpline
 70
8
 71
3
 72
8
 73
4
 74
0
 40
0
 40
0
 40
0
 40
0
 40
1
 40
1
 40
1
 40
1
 10
184.048173
 20
32.940530
 30
0.0
 10
183.579332
 20
33.409371
 30
0.0
 10
183.315940
 20
34.045256
 30
0.0
 10
183.315940
 20
34.708297
 30
0.0
  0
SPLINE
  5
194
100
AcDbEntity
  8
Ebene_1
 62
7
100
AcDbSpline
 70
8
 71
3
 72
8
 73
4
 74
0
 40
0
 40
0
 40
0
 40
0
 40
1
 40
1
 40
1
 40
1
 10
183.315940
 20
34.708297
 30
0.0
 10
183.315940
 20
35.371338
 30
0.0
 10
183.579332
 20
36.007223
 30
0.0
 10
184.048173
 20
36.476064
 30
0.0
  0
SPLINE
  5
195
100
AcDbEntity
  8
Ebene_1
 62
7
100
AcDbSpline
 70
8
 71
3
 72
8
 73
4
 74
0
 40
0
 40
0
 40
0
 40
0
 40
1
 40
1
 40
1
 40
1
 10
184.048173
 20
36.476064
 30
0.0
 10
184.517013
 20
36.944905
 30
0.0
 10
185.152898
 20
37.208297
 30
0.0
 10
185.815940
 20
37.208297
 30
0.0
  0
SPLINE
  5
196
100
AcDbEntity
  8
Ebene_1
 62
7
100
AcDbSpline
 70
8
 71
3
 72
8
 73
4
 74
0
 40
0
 40
0
 40
0
 40
0
 40
1
 40
1
 40
1
 40
1
 10
185.815940
 20
37.208297
 30
0.0
 10
186.478981
 20
37.208297
 30
0.0
 10
187.114866
 20
36.944905
 30
0.0
 10
187.583706
 20
36.476064
 30
0.0
  0
SPLINE
  5
197
100
AcDbEntity
  8
Ebene_1
 62
7
100
AcDbSpline
 70
8
 71
3
 72
8
 73
4
 74
0
 40
0
 40
0
 40
0
 40
0
 40
1
 40
1
 40
1
 40
1
 10
187.583706
 20
36.476064
 30
0.0
 10
188.052547
 20
36.007223
 30
0.0
 10
188.315940
 20
35.371338
 30
0.0
 10
188.315940
 20
34.708297
 30
0.0
  0
LWPOLYLINE
  5
198
100
AcDbEntity
  8
Ebene_1
 62
7
100
AcDbPolyline
 90
1
 70
1
 10
36.577270
 20
34.416637
 30
0.0
  0
SPLINE
  5
199
100
AcDbEntity
  8
Ebene_1
 62
7
100
AcDbSpline
 70
8
 71
3
 72
8
 73
4
 74
0
 40
0
 40
0
 40
0
 40
0
 40
1
 40
1
 40
1
 40
1
 10
33.666842
 20
227.062683
 30
0.0
 10
33.666842
 20
226.399642
 30
0.0
 10
33.403450
 20
225.763757
 30
0.0
 10
32.934609
 20
225.294916
 30
0.0
  0
SPLINE
  5
19a
100
AcDbEntity
  8
Ebene_1
 62
7
100
AcDbSpline
 70
8
 71
3
 72
8
 73
4
 74
0
 40
0
 40
0
 40
0
 40
0
 40
1
 40
1
 40
1
 40
1
 10
32.934609
 20
225.294916
 30
0.0
 10
32.465768
 20
224.826075
 30
0.0
 10
31.829883
 20
224.562683
 30
0.0
 10
31.166842
 20
224.562683
 30
0.0
  0
SPLINE
  5
19b
100
AcDbEntity
  8
Ebene_1
 62
7
100
AcDbSpline
 70
8
 71
3
 72
8
 73
4
 74
0
 40
0
 40
0
 40
0
 40
0
 40
1
 40
1
 40
1
 40
1
 10
31.166842
 20
224.562683
 30
0.0
 10
30.503801
 20
224.562683
 30
0.0
 10
29.867916
 20
224.826075
 30
0.0
 10
29.399075
 20
225.294916
 30
0.0
  0
SPLINE
  5
19c
100
AcDbEntity
  8
Ebene_1
 62
7
100
AcDbSpline
 70
8
 71
3
 72
8
 73
4
 74
0
 40
0
 40
0
 40
0
 40
0
 40
1
 40
1
 40
1
 40
1
 10
29.399075
 20
225.294916
 30
0.0
 10
28.930234
 20
225.763757
 30
0.0
 10
28.666842
 20
226.399642
 30
0.0
 10
28.666842
 20
227.062683
 30
0.0
  0
SPLINE
  5
19d
100
AcDbEntity
  8
Ebene_1
 62
7
100
AcDbSpline
 70
8
 71
3
 72
8
 73
4
 74
0
 40
0
 40
0
 40
0
 40
0
 40
1
 40
1
 40
1
 40
1
 10
28.666842
 20
227.062683
 30
0.0
 10
28.666842
 20
227.725724
 30
0.0
 10
28.930234
 20
228.361609
 30
0.0
 10
29.399075
 20
228.830450
 30
0.0
  0
SPLINE
  5
19e
100
AcDbEntity
  8
Ebene_1
 62
7
100
AcDbSpline
 70
8
 71
3
 72
8
 73
4
 74
0
 40
0
 40
0
 40
0
 40
0
 40
1
 40
1
 40
1
 40
1
 10
29.399075
 20
228.830450
 30
0.0
 10
29.867916
 20
229.299291
 30
0.0
 10
30.503801
 20
229.562683
 30
0.0
 10
31.166842
 20
229.562683
 30
0.0
  0
SPLINE
  5
19f
100
AcDbEntity
  8
Ebene_1
 62
7
100
AcDbSpline
 70
8
 71
3
 72
8
 73
4
 74
0
 40
0
 40
0
 40
0
 40
0
 40
1
 40
1
 40
1
 40
1
 10
31.166842
 20
229.562683
 30
0.0
 10
31.829883
 20
229.562683
 30
0.0
 10
32.465768
 20
229.299291
 30
0.0
 10
32.934609
 20
228.830450
 30
0.0
  0
SPLINE
  5
1a0
100
AcDbEntity
  8
Ebene_1
 62
7
100
AcDbSpline
 70
8
 71
3
 72
8
 73
4
 74
0
 40
0
 40
0
 40
0
 40
0
 40
1
 40
1
 40
1
 40
1
 10
32.934609
 20
228.830450
 30
0.0
 10
33.403450
 20
228.361609
 30
0.0
 10
33.666842
 20
227.725724
 30
0.0
 10
33.666842
 20
227.062683
 30
0.0
  0
LWPOLYLINE
  5
1a1
100
AcDbEntity
  8
Ebene_1
 62
7
100
AcDbPolyline
 90
1
 70
1
 10
188.315940
 20
34.708297
 30
0.0
  0
SPLINE
  5
1a2
100
AcDbEntity
  8
Ebene_1
 62
7
100
AcDbSpline
 70
8
 71
3
 72
8
 73
4
 74
0
 40
0
 40
0
 40
0
 40
0
 40
1
 40
1
 40
1
 40
1
 10
191.226369
 20
227.354343
 30
0.0
 10
191.226369
 20
226.691302
 30
0.0
 10
190.962977
 20
226.055417
 30
0.0
 10
190.494136
 20
225.586576
 30
0.0
  0
SPLINE
  5
1a3
100
AcDbEntity
  8
Ebene_1
 62
7
100
AcDbSpline
 70
8
 71
3
 72
8
 73
4
 74
0
 40
0
 40
0
 40
0
 40
0
 40
1
 40
1
 40
1
 40
1
 10
190.494136
 20
225.586576
 30
0.0
 10
190.025295
 20
225.117735
 30
0.0
 10
189.389410
 20
224.854343
 30
0.0
 10
188.726369
 20
224.854343
 30
0.0
  0
SPLINE
  5
1a4
100
AcDbEntity
  8
Ebene_1
 62
7
100
AcDbSpline
 70
8
 71
3
 72
8
 73
4
 74
0
 40
0
 40
0
 40
0
 40
0
 40
1
 40
1
 40
1
 40
1
 10
188.726369
 20
224.854343
 30
0.0
 10
188.063328
 20
224.854343
 30
0.0
 10
187.427443
 20
225.117735
 30
0.0
 10
186.958602
 20
225.586576
 30
0.0
  0
SPLINE
  5
1a5
100
AcDbEntity
  8
Ebene_1
 62
7
100
AcDbSpline
 70
8
 71
3
 72
8
 73
4
 74
0
 40
0
 40
0
 40
0
 40
0
 40
1
 40
1
 40
1
 40
1
 10
186.958602
 20
225.586576
 30
0.0
 10
186.489761
 20
226.055417
 30
0.0
 10
186.226369
 20
226.691302
 30
0.0
 10
186.226369
 20
227.354343
 30
0.0
  0
SPLINE
  5
1a6
100
AcDbEntity
  8
Ebene_1
 62
7
100
AcDbSpline
 70
8
 71
3
 72
8
 73
4
 74
0
 40
0
 40
0
 40
0
 40
0
 40
1
 40
1
 40
1
 40
1
 10
186.226369
 20
227.354343
 30
0.0
 10
186.226369
 20
228.017384
 30
0.0
 10
186.489761
 20
228.653269
 30
0.0
 10
186.958602
 20
229.122110
 30
0.0
  0
SPLINE
  5
1a7
100
AcDbEntity
  8
Ebene_1
 62
7
100
AcDbSpline
 70
8
 71
3
 72
8
 73
4
 74
0
 40
0
 40
0
 40
0
 40
0
 40
1
 40
1
 40
1
 40
1
 10
186.958602
 20
229.122110
 30
0.0
 10
187.427443
 20
229.590951
 30
0.0
 10
188.063328
 20
229.854343
 30
0.0
 10
188.726369
 20
229.854343
 30
0.0
  0
SPLINE
  5
1a8
100
AcDbEntity
  8
Ebene_1
 62
7
100
AcDbSpline
 70
8
 71
3
 72
8
 73
4
 74
0
 40
0
 40
0
 40
0
 40
0
 40
1
 40
1
 40
1
 40
1
 10
188.726369
 20
229.854343
 30
0.0
 10
189.389410
 20
229.854343
 30
0.0
 10
190.025295
 20
229.590951
 30
0.0
 10
190.494136
 20
229.122110
 30
0.0
  0
SPLINE
  5
1a9
100
AcDbEntity
  8
Ebene_1
 62
7
100
AcDbSpline
 70
8
 71
3
 72
8
 73
4
 74
0
 40
0
 40
0
 40
0
 40
0
 40
1
 40
1
 40
1
 40
1
 10
190.494136
 20
229.122110
 30
0.0
 10
190.962977
 20
228.653269
 30
0.0
 10
191.226369
 20
228.017384
 30
0.0
 10
191.226369
 20
227.354343
 30
0.0
  0
LWPOLYLINE
  5
1aa
100
AcDbEntity
  8
Ebene_1
 62
7
100
AcDbPolyline
 90
1
 70
1
 10
33.666842
 20
227.062683
 30
0.0
  0
SPLINE
  5
1ab
100
AcDbEntity
  8
Ebene_1
 62
7
100
AcDbSpline
 70
8
 71
3
 72
8
 73
4
 74
0
 40
0
 40
0
 40
0
 40
0
 40
1
 40
1
 40
1
 40
1
 10
465.194710
 20
222.000000
 30
0.0
 10
463.574250
 20
209.947310
 30
0.0
 10
461.241390
 20
197.990760
 30
0.0
 10
458.063750
 20
186.266600
 30
0.0
  0
LWPOLYLINE
  5
1ac
100
AcDbEntity
  8
Ebene_1
 62
7
100
AcDbPolyline
 90
1
 70
1
 10
191.226369
 20
227.354343
 30
0.0
  0
SPLINE
  5
1ad
100
AcDbEntity
  8
Ebene_1
 62
7
100
AcDbSpline
 70
8
 71
3
 72
8
 73
4
 74
0
 40
0
 40
0
 40
0
 40
0
 40
1
 40
1
 40
1
 40
1
 10
458.063750
 20
47.705040
 30
0.0
 10
458.063750
 20
32.632730
 30
0.0
 10
446.085240
 20
20.610780
 30
0.0
 10
431.068090
 20
20.610780
 30
0.0
  0
LWPOLYLINE
  5
1ae
100
AcDbEntity
  8
Ebene_1
 62
7
100
AcDbPolyline
 90
2
 70
0
 10
458.063750
 20
186.266600
 30
0.0
 10
458.063750
 20
47.705040
 30
0.0
  0
SPLINE
  5
1af
100
AcDbEntity
  8
Ebene_1
 62
7
100
AcDbSpline
 70
8
 71
3
 72
8
 73
4
 74
0
 40
0
 40
0
 40
0
 40
0
 40
1
 40
1
 40
1
 40
1
 10
308.824600
 20
20.610780
 30
0.0
 10
293.807440
 20
20.610780
 30
0.0
 10
281.829470
 20
32.632730
 30
0.0
 10
281.829470
 20
47.705040
 30
0.0
  0
LWPOLYLINE
  5
1b0
100
AcDbEntity
  8
Ebene_1
 62
7
100
AcDbPolyline
 90
2
 70
0
 10
431.068090
 20
20.610780
 30
0.0
 10
308.824600
 20
20.610780
 30
0.0
  0
SPLINE
  5
1b1
100
AcDbEntity
  8
Ebene_1
 62
7
100
AcDbSpline
 70
8
 71
3
 72
8
 73
4
 74
0
 40
0
 40
0
 40
0
 40
0
 40
1
 40
1
 40
1
 40
1
 10
281.829470
 20
181.382440
 30
0.0
 10
278.803350
 20
191.712990
 30
0.0
 10
276.460960
 20
202.214940
 30
0.0
 10
274.698500
 20
212.818710
 30
0.0
  0
LWPOLYLINE
  5
1b2
100
AcDbEntity
  8
Ebene_1
 62
7
100
AcDbPolyline
 90
2
 70
0
 10
281.829470
 20
47.705040
 30
0.0
 10
281.829470
 20
181.382440
 30
0.0
  0
SPLINE
  5
1b3
100
AcDbEntity
  8
Ebene_1
 62
7
100
AcDbSpline
 70
8
 71
3
 72
8
 73
4
 74
0
 40
0
 40
0
 40
0
 40
0
 40
1
 40
1
 40
1
 40
1
 10
274.698500
 20
47.705040
 30
0.0
 10
274.698500
 20
28.791510
 30
0.0
 10
289.980280
 20
13.453640
 30
0.0
 10
308.824600
 20
13.453640
 30
0.0
  0
LWPOLYLINE
  5
1b4
100
AcDbEntity
  8
Ebene_1
 62
7
100
AcDbPolyline
 90
2
 70
0
 10
274.698500
 20
212.818710
 30
0.0
 10
274.698500
 20
47.705040
 30
0.0
  0
SPLINE
  5
1b5
100
AcDbEntity
  8
Ebene_1
 62
7
100
AcDbSpline
 70
8
 71
3
 72
8
 73
4
 74
0
 40
0
 40
0
 40
0
 40
0
 40
1
 40
1
 40
1
 40
1
 10
431.068090
 20
13.453640
 30
0.0
 10
449.912420
 20
13.453640
 30
0.0
 10
465.194710
 20
28.791510
 30
0.0
 10
465.194710
 20
47.705040
 30
0.0
  0
LWPOLYLINE
  5
1b6
100
AcDbEntity
  8
Ebene_1
 62
7
100
AcDbPolyline
 90
2
 70
0
 10
308.824600
 20
13.453640
 30
0.0
 10
431.068090
 20
13.453640
 30
0.0
  0
LWPOLYLINE
  5
1b7
100
AcDbEntity
  8
Ebene_1
 62
7
100
AcDbPolyline
 90
2
 70
0
 10
465.194710
 20
47.705040
 30
0.0
 10
465.194710
 20
222.000000
 30
0.0
  0
LWPOLYLINE
  5
1b8
100
AcDbEntity
  8
Ebene_1
 62
7
100
AcDbPolyline
 90
4
 70
1
 10
260.000000
 20
300.000000
 30
0.0
 10
479.893210
 20
300.000000
 30
0.0
 10
479.893210
 20
0.000000
 30
0.0
 10
260.000000
 20
0.000000
 30
0.0
  0
LWPOLYLINE
  5
1b9
100
AcDbEntity
  8
Ebene_1
 62
7
100
AcDbPolyline
 90
9
 70
1
 10
422.589186
 20
251.053188
 30
0.0
 10
422.589186
 20
237.353316
 30
0.0
 10
423.083571
 20
237.353316
 30
0.0
 10
427.814984
 20
237.353316
 30
0.0
 10
427.814984
 20
245.827383
 30
0.0
 10
443.774355
 20
245.827383
 30
0.0
 10
443.774355
 20
237.353316
 30
0.0
 10
449.000162
 20
237.353316
 30
0.0
 10
449.000162
 20
251.053188
 30
0.0
  0
SPLINE
  5
1ba
100
AcDbEntity
  8
Ebene_1
 62
7
100
AcDbSpline
 70
8
 71
3
 72
8
 73
4
 74
0
 40
0
 40
0
 40
0
 40
0
 40
1
 40
1
 40
1
 40
1
 10
422.589186
 20
259.032870
 30
0.0
 10
422.589186
 20
257.748212
 30
0.0
 10
423.055945
 20
256.597359
 30
0.0
 10
423.952611
 20
255.676460
 30
0.0
  0
LWPOLYLINE
  5
1bb
100
AcDbEntity
  8
Ebene_1
 62
7
100
AcDbPolyline
 90
2
 70
0
 10
422.589186
 20
259.527255
 30
0.0
 10
422.589186
 20
259.032870
 30
0.0
  0
SPLINE
  5
1bc
100
AcDbEntity
  8
Ebene_1
 62
7
100
AcDbSpline
 70
8
 71
3
 72
8
 73
4
 74
0
 40
0
 40
0
 40
0
 40
0
 40
1
 40
1
 40
1
 40
1
 10
423.958544
 20
255.672505
 30
0.0
 10
424.860104
 20
254.770949
 30
0.0
 10
426.016154
 20
254.301358
 30
0.0
 10
427.320747
 20
254.301358
 30
0.0
  0
LWPOLYLINE
  5
1bd
100
AcDbEntity
  8
Ebene_1
 62
7
100
AcDbPolyline
 90
3
 70
0
 10
423.952611
 20
255.676460
 30
0.0
 10
423.956566
 20
255.674482
 30
0.0
 10
423.958544
 20
255.672505
 30
0.0
  0
SPLINE
  5
1be
100
AcDbEntity
  8
Ebene_1
 62
7
100
AcDbSpline
 70
8
 71
3
 72
8
 73
4
 74
0
 40
0
 40
0
 40
0
 40
0
 40
1
 40
1
 40
1
 40
1
 10
444.268888
 20
254.301358
 30
0.0
 10
445.533693
 20
254.301358
 30
0.0
 10
446.673122
 20
254.771557
 30
0.0
 10
447.592470
 20
255.666710
 30
0.0
  0
SPLINE
  5
1bf
100
AcDbEntity
  8
Ebene_1
 62
7
100
AcDbSpline
 70
8
 71
3
 72
8
 73
4
 74
0
 40
0
 40
0
 40
0
 40
0
 40
1
 40
1
 40
1
 40
1
 10
447.592470
 20
255.666710
 30
0.0
 10
448.517188
 20
256.567096
 30
0.0
 10
449.000311
 20
257.725130
 30
0.0
 10
449.000311
 20
259.032777
 30
0.0
  0
LWPOLYLINE
  5
1c0
100
AcDbEntity
  8
Ebene_1
 62
7
100
AcDbPolyline
 90
2
 70
0
 10
427.320747
 20
254.301358
 30
0.0
 10
444.268888
 20
254.301358
 30
0.0
  0
LWPOLYLINE
  5
1c1
100
AcDbEntity
  8
Ebene_1
 62
7
100
AcDbPolyline
 90
3
 70
0
 10
449.000311
 20
259.032777
 30
0.0
 10
449.000311
 20
259.527162
 30
0.0
 10
422.589186
 20
259.527255
 30
0.0
  0
SPLINE
  5
1c2
100
AcDbEntity
  8
Ebene_1
 62
7
100
AcDbSpline
 70
8
 71
3
 72
8
 73
4
 74
0
 40
0
 40
0
 40
0
 40
0
 40
1
 40
1
 40
1
 40
1
 10
290.893516
 20
259.032870
 30
0.0
 10
290.893516
 20
257.748212
 30
0.0
 10
291.362203
 20
256.597359
 30
0.0
 10
292.258869
 20
255.676460
 30
0.0
  0
LWPOLYLINE
  5
1c3
100
AcDbEntity
  8
Ebene_1
 62
7
100
AcDbPolyline
 90
2
 70
0
 10
290.893516
 20
259.527255
 30
0.0
 10
290.893516
 20
259.032870
 30
0.0
  0
SPLINE
  5
1c4
100
AcDbEntity
  8
Ebene_1
 62
7
100
AcDbSpline
 70
8
 71
3
 72
8
 73
4
 74
0
 40
0
 40
0
 40
0
 40
0
 40
1
 40
1
 40
1
 40
1
 10
292.262824
 20
255.672505
 30
0.0
 10
293.164384
 20
254.770948
 30
0.0
 10
294.320434
 20
254.301358
 30
0.0
 10
295.625027
 20
254.301358
 30
0.0
  0
LWPOLYLINE
  5
1c5
100
AcDbEntity
  8
Ebene_1
 62
7
100
AcDbPolyline
 90
3
 70
0
 10
292.258869
 20
255.676460
 30
0.0
 10
292.260846
 20
255.674482
 30
0.0
 10
292.262824
 20
255.672505
 30
0.0
  0
SPLINE
  5
1c6
100
AcDbEntity
  8
Ebene_1
 62
7
100
AcDbSpline
 70
8
 71
3
 72
8
 73
4
 74
0
 40
0
 40
0
 40
0
 40
0
 40
1
 40
1
 40
1
 40
1
 10
312.573168
 20
254.301451
 30
0.0
 10
313.837973
 20
254.301451
 30
0.0
 10
314.977402
 20
254.771650
 30
0.0
 10
315.896750
 20
255.666803
 30
0.0
  0
SPLINE
  5
1c7
100
AcDbEntity
  8
Ebene_1
 62
7
100
AcDbSpline
 70
8
 71
3
 72
8
 73
4
 74
0
 40
0
 40
0
 40
0
 40
0
 40
1
 40
1
 40
1
 40
1
 10
315.896750
 20
255.666803
 30
0.0
 10
316.821468
 20
256.567188
 30
0.0
 10
317.304581
 20
257.725222
 30
0.0
 10
317.304581
 20
259.032870
 30
0.0
  0
LWPOLYLINE
  5
1c8
100
AcDbEntity
  8
Ebene_1
 62
7
100
AcDbPolyline
 90
7
 70
0
 10
295.625027
 20
254.301358
 30
0.0
 10
301.486199
 20
254.301358
 30
0.0
 10
301.486199
 20
237.353316
 30
0.0
 10
301.980584
 20
237.353316
 30
0.0
 10
306.711997
 20
237.353316
 30
0.0
 10
306.711997
 20
254.301451
 30
0.0
 10
312.573168
 20
254.301451
 30
0.0
  0
LWPOLYLINE
  5
1c9
100
AcDbEntity
  8
Ebene_1
 62
7
100
AcDbPolyline
 90
3
 70
0
 10
317.304581
 20
259.032870
 30
0.0
 10
317.304581
 20
259.527255
 30
0.0
 10
290.893516
 20
259.527255
 30
0.0
  0
SPLINE
  5
1ca
100
AcDbEntity
  8
Ebene_1
 62
7
100
AcDbSpline
 70
8
 71
3
 72
8
 73
4
 74
0
 40
0
 40
0
 40
0
 40
0
 40
1
 40
1
 40
1
 40
1
 10
323.816472
 20
242.084734
 30
0.0
 10
323.816472
 20
240.800076
 30
0.0
 10
324.285159
 20
239.649224
 30
0.0
 10
325.181825
 20
238.728324
 30
0.0
  0
LWPOLYLINE
  5
1cb
100
AcDbEntity
  8
Ebene_1
 62
7
100
AcDbPolyline
 90
2
 70
0
 10
323.816472
 20
242.579119
 30
0.0
 10
323.816472
 20
242.084734
 30
0.0
  0
SPLINE
  5
1cc
100
AcDbEntity
  8
Ebene_1
 62
7
100
AcDbSpline
 70
8
 71
3
 72
8
 73
4
 74
0
 40
0
 40
0
 40
0
 40
0
 40
1
 40
1
 40
1
 40
1
 10
325.185780
 20
238.722490
 30
0.0
 10
326.087331
 20
237.820934
 30
0.0
 10
327.243381
 20
237.353275
 30
0.0
 10
328.547984
 20
237.353275
 30
0.0
  0
LWPOLYLINE
  5
1cd
100
AcDbEntity
  8
Ebene_1
 62
7
100
AcDbPolyline
 90
3
 70
0
 10
325.181825
 20
238.728324
 30
0.0
 10
325.183802
 20
238.726346
 30
0.0
 10
325.185780
 20
238.722490
 30
0.0
  0
SPLINE
  5
1ce
100
AcDbEntity
  8
Ebene_1
 62
7
100
AcDbSpline
 70
8
 71
3
 72
8
 73
4
 74
0
 40
0
 40
0
 40
0
 40
0
 40
1
 40
1
 40
1
 40
1
 10
345.496114
 20
237.353275
 30
0.0
 10
346.760919
 20
237.353275
 30
0.0
 10
347.902286
 20
237.823474
 30
0.0
 10
348.821625
 20
238.718627
 30
0.0
  0
SPLINE
  5
1cf
100
AcDbEntity
  8
Ebene_1
 62
7
100
AcDbSpline
 70
8
 71
3
 72
8
 73
4
 74
0
 40
0
 40
0
 40
0
 40
0
 40
1
 40
1
 40
1
 40
1
 10
348.821625
 20
238.718627
 30
0.0
 10
349.746352
 20
239.619012
 30
0.0
 10
350.227537
 20
240.777045
 30
0.0
 10
350.227537
 20
242.084694
 30
0.0
  0
LWPOLYLINE
  5
1d0
100
AcDbEntity
  8
Ebene_1
 62
7
100
AcDbPolyline
 90
2
 70
0
 10
328.547984
 20
237.353275
 30
0.0
 10
345.496114
 20
237.353275
 30
0.0
  0
LWPOLYLINE
  5
1d1
100
AcDbEntity
  8
Ebene_1
 62
7
100
AcDbPolyline
 90
3
 70
0
 10
350.227537
 20
242.084694
 30
0.0
 10
350.227537
 20
242.579079
 30
0.0
 10
323.816472
 20
242.579119
 30
0.0
  0
SPLINE
  5
1d2
100
AcDbEntity
  8
Ebene_1
 62
7
100
AcDbSpline
 70
8
 71
3
 72
8
 73
4
 74
0
 40
0
 40
0
 40
0
 40
0
 40
1
 40
1
 40
1
 40
1
 10
323.816472
 20
250.558803
 30
0.0
 10
323.816472
 20
249.274143
 30
0.0
 10
324.285159
 20
248.123292
 30
0.0
 10
325.181825
 20
247.202392
 30
0.0
  0
LWPOLYLINE
  5
1d3
100
AcDbEntity
  8
Ebene_1
 62
7
100
AcDbPolyline
 90
2
 70
0
 10
323.816472
 20
251.053188
 30
0.0
 10
323.816472
 20
250.558803
 30
0.0
  0
SPLINE
  5
1d4
100
AcDbEntity
  8
Ebene_1
 62
7
100
AcDbSpline
 70
8
 71
3
 72
8
 73
4
 74
0
 40
0
 40
0
 40
0
 40
0
 40
1
 40
1
 40
1
 40
1
 10
325.185780
 20
247.196558
 30
0.0
 10
326.087331
 20
246.295003
 30
0.0
 10
327.243381
 20
245.827343
 30
0.0
 10
328.547984
 20
245.827343
 30
0.0
  0
LWPOLYLINE
  5
1d5
100
AcDbEntity
  8
Ebene_1
 62
7
100
AcDbPolyline
 90
3
 70
0
 10
325.181825
 20
247.202392
 30
0.0
 10
325.183802
 20
247.200415
 30
0.0
 10
325.185780
 20
247.196558
 30
0.0
  0
SPLINE
  5
1d6
100
AcDbEntity
  8
Ebene_1
 62
7
100
AcDbSpline
 70
8
 71
3
 72
8
 73
4
 74
0
 40
0
 40
0
 40
0
 40
0
 40
1
 40
1
 40
1
 40
1
 10
345.496114
 20
245.827343
 30
0.0
 10
346.760919
 20
245.827343
 30
0.0
 10
347.902286
 20
246.297542
 30
0.0
 10
348.821625
 20
247.192696
 30
0.0
  0
SPLINE
  5
1d7
100
AcDbEntity
  8
Ebene_1
 62
7
100
AcDbSpline
 70
8
 71
3
 72
8
 73
4
 74
0
 40
0
 40
0
 40
0
 40
0
 40
1
 40
1
 40
1
 40
1
 10
348.821625
 20
247.192696
 30
0.0
 10
349.746352
 20
248.093081
 30
0.0
 10
350.227537
 20
249.251115
 30
0.0
 10
350.227537
 20
250.558763
 30
0.0
  0
LWPOLYLINE
  5
1d8
100
AcDbEntity
  8
Ebene_1
 62
7
100
AcDbPolyline
 90
2
 70
0
 10
328.547984
 20
245.827343
 30
0.0
 10
345.496114
 20
245.827343
 30
0.0
  0
LWPOLYLINE
  5
1d9
100
AcDbEntity
  8
Ebene_1
 62
7
100
AcDbPolyline
 90
3
 70
0
 10
350.227537
 20
250.558763
 30
0.0
 10
350.227537
 20
251.053148
 30
0.0
 10
323.816472
 20
251.053188
 30
0.0
  0
SPLINE
  5
1da
100
AcDbEntity
  8
Ebene_1
 62
7
100
AcDbSpline
 70
8
 71
3
 72
8
 73
4
 74
0
 40
0
 40
0
 40
0
 40
0
 40
1
 40
1
 40
1
 40
1
 10
323.816472
 20
259.032870
 30
0.0
 10
323.816472
 20
257.748212
 30
0.0
 10
324.285159
 20
256.597359
 30
0.0
 10
325.181825
 20
255.676460
 30
0.0
  0
LWPOLYLINE
  5
1db
100
AcDbEntity
  8
Ebene_1
 62
7
100
AcDbPolyline
 90
2
 70
0
 10
323.816472
 20
259.527255
 30
0.0
 10
323.816472
 20
259.032870
 30
0.0
  0
SPLINE
  5
1dc
100
AcDbEntity
  8
Ebene_1
 62
7
100
AcDbSpline
 70
8
 71
3
 72
8
 73
4
 74
0
 40
0
 40
0
 40
0
 40
0
 40
1
 40
1
 40
1
 40
1
 10
325.185780
 20
255.672505
 30
0.0
 10
326.087331
 20
254.770948
 30
0.0
 10
327.243381
 20
254.301358
 30
0.0
 10
328.547984
 20
254.301358
 30
0.0
  0
LWPOLYLINE
  5
1dd
100
AcDbEntity
  8
Ebene_1
 62
7
100
AcDbPolyline
 90
3
 70
0
 10
325.181825
 20
255.676460
 30
0.0
 10
325.183802
 20
255.674482
 30
0.0
 10
325.185780
 20
255.672505
 30
0.0
  0
SPLINE
  5
1de
100
AcDbEntity
  8
Ebene_1
 62
7
100
AcDbSpline
 70
8
 71
3
 72
8
 73
4
 74
0
 40
0
 40
0
 40
0
 40
0
 40
1
 40
1
 40
1
 40
1
 10
345.496114
 20
254.301358
 30
0.0
 10
346.760919
 20
254.301358
 30
0.0
 10
347.902286
 20
254.771557
 30
0.0
 10
348.821625
 20
255.666710
 30
0.0
  0
SPLINE
  5
1df
100
AcDbEntity
  8
Ebene_1
 62
7
100
AcDbSpline
 70
8
 71
3
 72
8
 73
4
 74
0
 40
0
 40
0
 40
0
 40
0
 40
1
 40
1
 40
1
 40
1
 10
348.821625
 20
255.666710
 30
0.0
 10
349.746352
 20
256.567095
 30
0.0
 10
350.227537
 20
257.725129
 30
0.0
 10
350.227537
 20
259.032777
 30
0.0
  0
LWPOLYLINE
  5
1e0
100
AcDbEntity
  8
Ebene_1
 62
7
100
AcDbPolyline
 90
2
 70
0
 10
328.547984
 20
254.301358
 30
0.0
 10
345.496114
 20
254.301358
 30
0.0
  0
LWPOLYLINE
  5
1e1
100
AcDbEntity
  8
Ebene_1
 62
7
100
AcDbPolyline
 90
3
 70
0
 10
350.227537
 20
259.032777
 30
0.0
 10
350.227537
 20
259.527162
 30
0.0
 10
323.816472
 20
259.527255
 30
0.0
  0
SPLINE
  5
1e2
100
AcDbEntity
  8
Ebene_1
 62
7
100
AcDbSpline
 70
8
 71
3
 72
8
 73
4
 74
0
 40
0
 40
0
 40
0
 40
0
 40
1
 40
1
 40
1
 40
1
 10
361.472769
 20
242.579119
 30
0.0
 10
360.185005
 20
242.579119
 30
0.0
 10
359.030418
 20
242.096928
 30
0.0
 10
358.110565
 20
241.177075
 30
0.0
  0
SPLINE
  5
1e3
100
AcDbEntity
  8
Ebene_1
 62
7
100
AcDbSpline
 70
8
 71
3
 72
8
 73
4
 74
0
 40
0
 40
0
 40
0
 40
0
 40
1
 40
1
 40
1
 40
1
 10
358.110565
 20
241.177075
 30
0.0
 10
357.210587
 20
240.277093
 30
0.0
 10
356.741356
 20
239.132359
 30
0.0
 10
356.741356
 20
237.847701
 30
0.0
  0
LWPOLYLINE
  5
1e4
100
AcDbEntity
  8
Ebene_1
 62
7
100
AcDbPolyline
 90
5
 70
0
 10
356.741356
 20
259.527255
 30
0.0
 10
356.741356
 20
245.827383
 30
0.0
 10
377.926525
 20
245.827383
 30
0.0
 10
377.926525
 20
242.579119
 30
0.0
 10
361.472769
 20
242.579119
 30
0.0
  0
SPLINE
  5
1e5
100
AcDbEntity
  8
Ebene_1
 62
7
100
AcDbSpline
 70
8
 71
3
 72
8
 73
4
 74
0
 40
0
 40
0
 40
0
 40
0
 40
1
 40
1
 40
1
 40
1
 10
378.420910
 20
254.301451
 30
0.0
 10
379.685714
 20
254.301451
 30
0.0
 10
380.825143
 20
254.771650
 30
0.0
 10
381.744492
 20
255.666803
 30
0.0
  0
SPLINE
  5
1e6
100
AcDbEntity
  8
Ebene_1
 62
7
100
AcDbSpline
 70
8
 71
3
 72
8
 73
4
 74
0
 40
0
 40
0
 40
0
 40
0
 40
1
 40
1
 40
1
 40
1
 10
381.744492
 20
255.666803
 30
0.0
 10
382.669209
 20
256.567189
 30
0.0
 10
383.152322
 20
257.725223
 30
0.0
 10
383.152322
 20
259.032870
 30
0.0
  0
LWPOLYLINE
  5
1e7
100
AcDbEntity
  8
Ebene_1
 62
7
100
AcDbPolyline
 90
8
 70
0
 10
356.741356
 20
237.847701
 30
0.0
 10
356.741356
 20
237.353316
 30
0.0
 10
357.235741
 20
237.353316
 30
0.0
 10
383.152322
 20
237.353316
 30
0.0
 10
383.152322
 20
251.053188
 30
0.0
 10
361.967154
 20
251.053188
 30
0.0
 10
361.967154
 20
254.301451
 30
0.0
 10
378.420910
 20
254.301451
 30
0.0
  0
LWPOLYLINE
  5
1e8
100
AcDbEntity
  8
Ebene_1
 62
7
100
AcDbPolyline
 90
3
 70
0
 10
383.152322
 20
259.032870
 30
0.0
 10
383.152322
 20
259.527255
 30
0.0
 10
356.741356
 20
259.527255
 30
0.0
  0
SPLINE
  5
1e9
100
AcDbEntity
  8
Ebene_1
 62
7
100
AcDbSpline
 70
8
 71
3
 72
8
 73
4
 74
0
 40
0
 40
0
 40
0
 40
0
 40
1
 40
1
 40
1
 40
1
 10
411.343856
 20
237.353316
 30
0.0
 10
412.608661
 20
237.353316
 30
0.0
 10
413.750027
 20
237.823514
 30
0.0
 10
414.669366
 20
238.718667
 30
0.0
  0
SPLINE
  5
1ea
100
AcDbEntity
  8
Ebene_1
 62
7
100
AcDbSpline
 70
8
 71
3
 72
8
 73
4
 74
0
 40
0
 40
0
 40
0
 40
0
 40
1
 40
1
 40
1
 40
1
 10
414.669366
 20
238.718667
 30
0.0
 10
415.594084
 20
239.619053
 30
0.0
 10
416.075278
 20
240.777087
 30
0.0
 10
416.075278
 20
242.084734
 30
0.0
  0
LWPOLYLINE
  5
1eb
100
AcDbEntity
  8
Ebene_1
 62
7
100
AcDbPolyline
 90
4
 70
0
 10
389.664302
 20
259.527255
 30
0.0
 10
389.664302
 20
237.353316
 30
0.0
 10
390.158687
 20
237.353316
 30
0.0
 10
411.343856
 20
237.353316
 30
0.0
  0
SPLINE
  5
1ec
100
AcDbEntity
  8
Ebene_1
 62
7
100
AcDbSpline
 70
8
 71
3
 72
8
 73
4
 74
0
 40
0
 40
0
 40
0
 40
0
 40
1
 40
1
 40
1
 40
1
 10
369.851990
 20
82.052300
 30
0.0
 10
369.619040
 20
83.280900
 30
0.0
 10
349.573600
 20
195.193710
 30
0.0
 10
349.573600
 20
195.265680
 30
0.0
  0
SPLINE
  5
1ed
100
AcDbEntity
  8
Ebene_1
 62
7
100
AcDbSpline
 70
8
 71
3
 72
8
 73
4
 74
0
 40
0
 40
0
 40
0
 40
0
 40
1
 40
1
 40
1
 40
1
 10
349.573600
 20
195.265680
 30
0.0
 10
349.573600
 20
195.368130
 30
0.0
 10
343.653030
 20
195.218380
 30
0.0
 10
340.677080
 20
195.040740
 30
0.0
  0
SPLINE
  5
1ee
100
AcDbEntity
  8
Ebene_1
 62
7
100
AcDbSpline
 70
8
 71
3
 72
8
 73
4
 74
0
 40
0
 40
0
 40
0
 40
0
 40
1
 40
1
 40
1
 40
1
 10
340.677080
 20
195.040740
 30
0.0
 10
331.820740
 20
194.512590
 30
0.0
 10
327.265700
 20
192.961720
 30
0.0
 10
325.064110
 20
189.724900
 30
0.0
  0
SPLINE
  5
1ef
100
AcDbEntity
  8
Ebene_1
 62
7
100
AcDbSpline
 70
8
 71
3
 72
8
 73
4
 74
0
 40
0
 40
0
 40
0
 40
0
 40
1
 40
1
 40
1
 40
1
 10
325.064110
 20
189.724900
 30
0.0
 10
324.252440
 20
188.531500
 30
0.0
 10
323.913530
 20
187.680590
 30
0.0
 10
323.559250
 20
185.946540
 30
0.0
  0
SPLINE
  5
1f0
100
AcDbEntity
  8
Ebene_1
 62
7
100
AcDbSpline
 70
8
 71
3
 72
8
 73
4
 74
0
 40
0
 40
0
 40
0
 40
0
 40
1
 40
1
 40
1
 40
1
 10
323.559250
 20
185.946540
 30
0.0
 10
323.415440
 20
185.242010
 30
0.0
 10
323.271360
 20
184.639290
 30
0.0
 10
323.239250
 20
184.607210
 30
0.0
  0
SPLINE
  5
1f1
100
AcDbEntity
  8
Ebene_1
 62
7
100
AcDbSpline
 70
8
 71
3
 72
8
 73
4
 74
0
 40
0
 40
0
 40
0
 40
0
 40
1
 40
1
 40
1
 40
1
 10
323.239250
 20
184.607210
 30
0.0
 10
323.131580
 20
184.499560
 30
0.0
 10
319.450940
 20
186.248170
 30
0.0
 10
317.606900
 20
187.283460
 30
0.0
  0
SPLINE
  5
1f2
100
AcDbEntity
  8
Ebene_1
 62
7
100
AcDbSpline
 70
8
 71
3
 72
8
 73
4
 74
0
 40
0
 40
0
 40
0
 40
0
 40
1
 40
1
 40
1
 40
1
 10
317.606900
 20
187.283460
 30
0.0
 10
312.091340
 20
190.379980
 30
0.0
 10
307.761150
 20
193.965250
 30
0.0
 10
304.815470
 20
197.874530
 30
0.0
  0
SPLINE
  5
1f3
100
AcDbEntity
  8
Ebene_1
 62
7
100
AcDbSpline
 70
8
 71
3
 72
8
 73
4
 74
0
 40
0
 40
0
 40
0
 40
0
 40
1
 40
1
 40
1
 40
1
 10
304.815470
 20
197.874530
 30
0.0
 10
304.382660
 20
198.448850
 30
0.0
 10
304.028600
 20
198.965740
 30
0.0
 10
304.028600
 20
199.023210
 30
0.0
  0
SPLINE
  5
1f4
100
AcDbEntity
  8
Ebene_1
 62
7
100
AcDbSpline
 70
8
 71
3
 72
8
 73
4
 74
0
 40
0
 40
0
 40
0
 40
0
 40
1
 40
1
 40
1
 40
1
 10
304.028600
 20
199.023210
 30
0.0
 10
304.028600
 20
199.080810
 30
0.0
 10
304.252670
 20
199.220410
 30
0.0
 10
304.526530
 20
199.333750
 30
0.0
  0
SPLINE
  5
1f5
100
AcDbEntity
  8
Ebene_1
 62
7
100
AcDbSpline
 70
8
 71
3
 72
8
 73
4
 74
0
 40
0
 40
0
 40
0
 40
0
 40
1
 40
1
 40
1
 40
1
 10
304.526530
 20
199.333750
 30
0.0
 10
304.800410
 20
199.447230
 30
0.0
 10
305.980520
 20
199.955720
 30
0.0
 10
307.149040
 20
200.464050
 30
0.0
  0
SPLINE
  5
1f6
100
AcDbEntity
  8
Ebene_1
 62
7
100
AcDbSpline
 70
8
 71
3
 72
8
 73
4
 74
0
 40
0
 40
0
 40
0
 40
0
 40
1
 40
1
 40
1
 40
1
 10
307.149040
 20
200.464050
 30
0.0
 10
320.537110
 20
206.288430
 30
0.0
 10
337.939570
 20
210.359590
 30
0.0
 10
353.557140
 20
211.320780
 30
0.0
  0
LWPOLYLINE
  5
1f7
100
AcDbEntity
  8
Ebene_1
 62
7
100
AcDbPolyline
 90
5
 70
0
 10
416.075278
 20
242.084734
 30
0.0
 10
416.075278
 20
242.579119
 30
0.0
 10
394.890110
 20
242.579119
 30
0.0
 10
394.890110
 20
259.527255
 30
0.0
 10
389.664302
 20
259.527255
 30
0.0
  0
SPLINE
  5
1f8
100
AcDbEntity
  8
Ebene_1
 62
7
100
AcDbSpline
 70
8
 71
3
 72
8
 73
4
 74
0
 40
0
 40
0
 40
0
 40
0
 40
1
 40
1
 40
1
 40
1
 10
362.434950
 20
202.287520
 30
0.0
 10
366.550920
 20
197.272090
 30
0.0
 10
369.964070
 20
193.218790
 30
0.0
 10
370.019730
 20
193.280160
 30
0.0
  0
SPLINE
  5
1f9
100
AcDbEntity
  8
Ebene_1
 62
7
100
AcDbSpline
 70
8
 71
3
 72
8
 73
4
 74
0
 40
0
 40
0
 40
0
 40
0
 40
1
 40
1
 40
1
 40
1
 10
370.019730
 20
193.280160
 30
0.0
 10
370.075330
 20
193.341460
 30
0.0
 10
373.416000
 20
197.407300
 30
0.0
 10
377.443300
 20
202.315030
 30
0.0
  0
SPLINE
  5
1fa
100
AcDbEntity
  8
Ebene_1
 62
7
100
AcDbSpline
 70
8
 71
3
 72
8
 73
4
 74
0
 40
0
 40
0
 40
0
 40
0
 40
1
 40
1
 40
1
 40
1
 10
377.443300
 20
202.315030
 30
0.0
 10
381.470610
 20
207.222770
 30
0.0
 10
384.827210
 20
211.276300
 30
0.0
 10
384.902370
 20
211.322770
 30
0.0
  0
SPLINE
  5
1fb
100
AcDbEntity
  8
Ebene_1
 62
7
100
AcDbSpline
 70
8
 71
3
 72
8
 73
4
 74
0
 40
0
 40
0
 40
0
 40
0
 40
1
 40
1
 40
1
 40
1
 10
384.902370
 20
211.322770
 30
0.0
 10
385.059220
 20
211.419670
 30
0.0
 10
388.408580
 20
211.203740
 30
0.0
 10
391.334240
 20
210.907930
 30
0.0
  0
SPLINE
  5
1fc
100
AcDbEntity
  8
Ebene_1
 62
7
100
AcDbSpline
 70
8
 71
3
 72
8
 73
4
 74
0
 40
0
 40
0
 40
0
 40
0
 40
1
 40
1
 40
1
 40
1
 10
391.334240
 20
210.907930
 30
0.0
 10
403.672210
 20
209.660760
 30
0.0
 10
416.063770
 20
206.805740
 30
0.0
 10
427.318800
 20
202.617100
 30
0.0
  0
SPLINE
  5
1fd
100
AcDbEntity
  8
Ebene_1
 62
7
100
AcDbSpline
 70
8
 71
3
 72
8
 73
4
 74
0
 40
0
 40
0
 40
0
 40
0
 40
1
 40
1
 40
1
 40
1
 10
427.318800
 20
202.617100
 30
0.0
 10
429.975060
 20
201.628580
 30
0.0
 10
434.247750
 20
199.864190
 30
0.0
 10
435.362100
 20
199.295710
 30
0.0
  0
LWPOLYLINE
  5
1fe
100
AcDbEntity
  8
Ebene_1
 62
7
100
AcDbPolyline
 90
3
 70
0
 10
353.557140
 20
211.320780
 30
0.0
 10
354.951340
 20
211.406580
 30
0.0
 10
362.434950
 20
202.287520
 30
0.0
  0
SPLINE
  5
1ff
100
AcDbEntity
  8
Ebene_1
 62
7
100
AcDbSpline
 70
8
 71
3
 72
8
 73
4
 74
0
 40
0
 40
0
 40
0
 40
0
 40
1
 40
1
 40
1
 40
1
 10
435.211160
 20
198.106870
 30
0.0
 10
432.601460
 20
194.518870
 30
0.0
 10
428.510270
 20
190.992890
 30
0.0
 10
423.443720
 20
187.965120
 30
0.0
  0
SPLINE
  5
200
100
AcDbEntity
  8
Ebene_1
 62
7
100
AcDbSpline
 70
8
 71
3
 72
8
 73
4
 74
0
 40
0
 40
0
 40
0
 40
0
 40
1
 40
1
 40
1
 40
1
 10
423.443720
 20
187.965120
 30
0.0
 10
422.050330
 20
187.132430
 30
0.0
 10
417.437700
 20
184.817300
 30
0.0
 10
416.808780
 20
184.634980
 30
0.0
  0
SPLINE
  5
201
100
AcDbEntity
  8
Ebene_1
 62
7
100
AcDbSpline
 70
8
 71
3
 72
8
 73
4
 74
0
 40
0
 40
0
 40
0
 40
0
 40
1
 40
1
 40
1
 40
1
 10
416.808780
 20
184.634980
 30
0.0
 10
416.549250
 20
184.559580
 30
0.0
 10
416.514440
 20
184.616080
 30
0.0
 10
416.428100
 20
185.254030
 30
0.0
  0
SPLINE
  5
202
100
AcDbEntity
  8
Ebene_1
 62
7
100
AcDbSpline
 70
8
 71
3
 72
8
 73
4
 74
0
 40
0
 40
0
 40
0
 40
0
 40
1
 40
1
 40
1
 40
1
 10
416.428100
 20
185.254030
 30
0.0
 10
416.375900
 20
185.640080
 30
0.0
 10
416.187070
 20
186.462260
 30
0.0
 10
416.008600
 20
187.081040
 30
0.0
  0
SPLINE
  5
203
100
AcDbEntity
  8
Ebene_1
 62
7
100
AcDbSpline
 70
8
 71
3
 72
8
 73
4
 74
0
 40
0
 40
0
 40
0
 40
0
 40
1
 40
1
 40
1
 40
1
 10
416.008600
 20
187.081040
 30
0.0
 10
414.603430
 20
191.953970
 30
0.0
 10
410.451510
 20
194.117800
 30
0.0
 10
400.961100
 20
194.923140
 30
0.0
  0
SPLINE
  5
204
100
AcDbEntity
  8
Ebene_1
 62
7
100
AcDbSpline
 70
8
 71
3
 72
8
 73
4
 74
0
 40
0
 40
0
 40
0
 40
0
 40
1
 40
1
 40
1
 40
1
 10
400.961100
 20
194.923140
 30
0.0
 10
398.894660
 20
195.098480
 30
0.0
 10
390.300520
 20
195.323560
 30
0.0
 10
390.192530
 20
195.205110
 30
0.0
  0
SPLINE
  5
205
100
AcDbEntity
  8
Ebene_1
 62
7
100
AcDbSpline
 70
8
 71
3
 72
8
 73
4
 74
0
 40
0
 40
0
 40
0
 40
0
 40
1
 40
1
 40
1
 40
1
 10
390.192530
 20
195.205110
 30
0.0
 10
390.137230
 20
195.144510
 30
0.0
 10
373.546690
 20
102.076200
 30
0.0
 10
370.045310
 20
82.185050
 30
0.0
  0
LWPOLYLINE
  5
206
100
AcDbEntity
  8
Ebene_1
 62
7
100
AcDbPolyline
 90
3
 70
0
 10
435.362100
 20
199.295710
 30
0.0
 10
435.882680
 20
199.030120
 30
0.0
 10
435.211160
 20
198.106870
 30
0.0
  0
SPLINE
  5
207
100
AcDbEntity
  8
Ebene_1
 62
7
100
AcDbSpline
 70
8
 71
3
 72
8
 73
4
 74
0
 40
0
 40
0
 40
0
 40
0
 40
1
 40
1
 40
1
 40
1
 10
435.883390
 20
204.043900
 30
0.0
 10
420.024470
 20
210.732320
 30
0.0
 10
402.006830
 20
214.988410
 30
0.0
 10
384.031090
 20
216.292310
 30
0.0
  0
SPLINE
  5
208
100
AcDbEntity
  8
Ebene_1
 62
7
100
AcDbSpline
 70
8
 71
3
 72
8
 73
4
 74
0
 40
0
 40
0
 40
0
 40
0
 40
1
 40
1
 40
1
 40
1
 10
384.031090
 20
216.292310
 30
0.0
 10
378.255890
 20
216.711230
 30
0.0
 10
366.257920
 20
216.848420
 30
0.0
 10
360.448180
 20
216.561960
 30
0.0
  0
SPLINE
  5
209
100
AcDbEntity
  8
Ebene_1
 62
7
100
AcDbSpline
 70
8
 71
3
 72
8
 73
4
 74
0
 40
0
 40
0
 40
0
 40
0
 40
1
 40
1
 40
1
 40
1
 10
360.448180
 20
216.561960
 30
0.0
 10
340.314680
 20
215.569290
 30
0.0
 10
321.791470
 20
211.466160
 30
0.0
 10
303.989610
 20
204.055770
 30
0.0
  0
SPLINE
  5
20a
100
AcDbEntity
  8
Ebene_1
 62
7
100
AcDbSpline
 70
8
 71
3
 72
8
 73
4
 74
0
 40
0
 40
0
 40
0
 40
0
 40
1
 40
1
 40
1
 40
1
 10
303.989610
 20
204.055770
 30
0.0
 10
302.763130
 20
203.545230
 30
0.0
 10
301.683310
 20
203.156800
 30
0.0
 10
301.589950
 20
203.192600
 30
0.0
  0
SPLINE
  5
20b
100
AcDbEntity
  8
Ebene_1
 62
7
100
AcDbSpline
 70
8
 71
3
 72
8
 73
4
 74
0
 40
0
 40
0
 40
0
 40
0
 40
1
 40
1
 40
1
 40
1
 10
301.589950
 20
203.192600
 30
0.0
 10
301.496350
 20
203.228700
 30
0.0
 10
300.728770
 20
204.652950
 30
0.0
 10
299.883650
 20
206.358230
 30
0.0
  0
SPLINE
  5
20c
100
AcDbEntity
  8
Ebene_1
 62
7
100
AcDbSpline
 70
8
 71
3
 72
8
 73
4
 74
0
 40
0
 40
0
 40
0
 40
0
 40
1
 40
1
 40
1
 40
1
 10
299.883650
 20
206.358230
 30
0.0
 10
298.302390
 20
209.548730
 30
0.0
 10
297.565470
 20
211.206120
 30
0.0
 10
297.678100
 20
211.318750
 30
0.0
  0
SPLINE
  5
20d
100
AcDbEntity
  8
Ebene_1
 62
7
100
AcDbSpline
 70
8
 71
3
 72
8
 73
4
 74
0
 40
0
 40
0
 40
0
 40
0
 40
1
 40
1
 40
1
 40
1
 10
297.678100
 20
211.318750
 30
0.0
 10
297.793480
 20
211.434140
 30
0.0
 10
302.435980
 20
213.187900
 30
0.0
 10
305.157260
 20
214.144270
 30
0.0
  0
SPLINE
  5
20e
100
AcDbEntity
  8
Ebene_1
 62
7
100
AcDbSpline
 70
8
 71
3
 72
8
 73
4
 74
0
 40
0
 40
0
 40
0
 40
0
 40
1
 40
1
 40
1
 40
1
 10
305.157260
 20
214.144270
 30
0.0
 10
330.668170
 20
223.110030
 30
0.0
 10
357.913200
 20
226.825420
 30
0.0
 10
383.699140
 20
224.855080
 30
0.0
  0
SPLINE
  5
20f
100
AcDbEntity
  8
Ebene_1
 62
7
100
AcDbSpline
 70
8
 71
3
 72
8
 73
4
 74
0
 40
0
 40
0
 40
0
 40
0
 40
1
 40
1
 40
1
 40
1
 10
383.699140
 20
224.855080
 30
0.0
 10
402.985540
 20
223.381380
 30
0.0
 10
421.162070
 20
219.313100
 30
0.0
 10
439.664530
 20
212.328870
 30
0.0
  0
SPLINE
  5
210
100
AcDbEntity
  8
Ebene_1
 62
7
100
AcDbSpline
 70
8
 71
3
 72
8
 73
4
 74
0
 40
0
 40
0
 40
0
 40
0
 40
1
 40
1
 40
1
 40
1
 10
439.664530
 20
212.328870
 30
0.0
 10
441.042080
 20
211.808880
 30
0.0
 10
442.192860
 20
211.359780
 30
0.0
 10
442.221800
 20
211.330830
 30
0.0
  0
SPLINE
  5
211
100
AcDbEntity
  8
Ebene_1
 62
7
100
AcDbSpline
 70
8
 71
3
 72
8
 73
4
 74
0
 40
0
 40
0
 40
0
 40
0
 40
1
 40
1
 40
1
 40
1
 10
442.221800
 20
211.330830
 30
0.0
 10
442.373110
 20
211.179670
 30
0.0
 10
438.673430
 20
203.456440
 30
0.0
 10
438.298550
 20
203.140840
 30
0.0
  0
SPLINE
  5
212
100
AcDbEntity
  8
Ebene_1
 62
7
100
AcDbSpline
 70
8
 71
3
 72
8
 73
4
 74
0
 40
0
 40
0
 40
0
 40
0
 40
1
 40
1
 40
1
 40
1
 10
438.298550
 20
203.140840
 30
0.0
 10
438.248250
 20
203.098440
 30
0.0
 10
437.161450
 20
203.504890
 30
0.0
 10
435.883390
 20
204.043900
 30
0.0
  0
LWPOLYLINE
  5
213
100
AcDbEntity
  8
Ebene_1
 62
7
100
AcDbPolyline
 90
3
 70
0
 10
370.045310
 20
82.185050
 30
0.0
 10
369.940110
 20
81.587510
 30
0.0
 10
369.851990
 20
82.052300
 30
0.0
  0
SPLINE
  5
214
100
AcDbEntity
  8
Ebene_1
 62
7
100
AcDbSpline
 70
8
 71
3
 72
8
 73
4
 74
0
 40
0
 40
0
 40
0
 40
0
 40
1
 40
1
 40
1
 40
1
 10
371.547780
 20
283.770550
 30
0.0
 10
341.260840
 20
283.809550
 30
0.0
 10
310.449860
 20
278.963880
 30
0.0
 10
278.186650
 20
269.121290
 30
0.0
  0
LWPOLYLINE
  5
215
100
AcDbEntity
  8
Ebene_1
 62
7
100
AcDbPolyline
 90
1
 70
1
 10
435.883390
 20
204.043900
 30
0.0
  0
SPLINE
  5
216
100
AcDbEntity
  8
Ebene_1
 62
7
100
AcDbSpline
 70
8
 71
3
 72
8
 73
4
 74
0
 40
0
 40
0
 40
0
 40
0
 40
1
 40
1
 40
1
 40
1
 10
275.742540
 20
265.822710
 30
0.0
 10
275.742540
 20
155.994000
 30
0.0
 10
320.367930
 20
103.683020
 30
0.0
 10
367.841200
 20
67.060780
 30
0.0
  0
LWPOLYLINE
  5
217
100
AcDbEntity
  8
Ebene_1
 62
7
100
AcDbPolyline
 90
3
 70
0
 10
278.186650
 20
269.121290
 30
0.0
 10
275.742540
 20
268.374590
 30
0.0
 10
275.742540
 20
265.822710
 30
0.0
  0
SPLINE
  5
218
100
AcDbEntity
  8
Ebene_1
 62
7
100
AcDbSpline
 70
8
 71
3
 72
8
 73
4
 74
0
 40
0
 40
0
 40
0
 40
0
 40
1
 40
1
 40
1
 40
1
 10
372.050070
 20
67.056930
 30
0.0
 10
419.662780
 20
103.682090
 30
0.0
 10
464.150670
 20
155.996840
 30
0.0
 10
464.150670
 20
265.822710
 30
0.0
  0
LWPOLYLINE
  5
219
100
AcDbEntity
  8
Ebene_1
 62
7
100
AcDbPolyline
 90
3
 70
0
 10
367.841200
 20
67.060780
 30
0.0
 10
369.944670
 20
65.438430
 30
0.0
 10
372.050070
 20
67.056930
 30
0.0
  0
SPLINE
  5
21a
100
AcDbEntity
  8
Ebene_1
 62
7
100
AcDbSpline
 70
8
 71
3
 72
8
 73
4
 74
0
 40
0
 40
0
 40
0
 40
0
 40
1
 40
1
 40
1
 40
1
 10
461.758520
 20
269.105900
 30
0.0
 10
431.596790
 20
278.808030
 30
0.0
 10
401.834730
 20
283.731550
 30
0.0
 10
371.547780
 20
283.770550
 30
0.0
  0
LWPOLYLINE
  5
21b
100
AcDbEntity
  8
Ebene_1
 62
7
100
AcDbPolyline
 90
3
 70
0
 10
464.150670
 20
265.822710
 30
0.0
 10
464.150670
 20
268.336100
 30
0.0
 10
461.758520
 20
269.105900
 30
0.0
  0
SPLINE
  5
21c
100
AcDbEntity
  8
Ebene_1
 62
7
100
AcDbSpline
 70
8
 71
3
 72
8
 73
4
 74
0
 40
0
 40
0
 40
0
 40
0
 40
1
 40
1
 40
1
 40
1
 10
371.530480
 20
276.913580
 30
0.0
 10
400.257180
 20
276.877580
 30
0.0
 10
428.484690
 20
272.223360
 30
0.0
 10
457.187870
 20
263.234260
 30
0.0
  0
SPLINE
  5
21d
100
AcDbEntity
  8
Ebene_1
 62
7
100
AcDbSpline
 70
8
 71
3
 72
8
 73
4
 74
0
 40
0
 40
0
 40
0
 40
0
 40
1
 40
1
 40
1
 40
1
 10
457.187870
 20
263.234260
 30
0.0
 10
456.502140
 20
158.729740
 30
0.0
 10
415.491910
 20
109.797440
 30
0.0
 10
369.950450
 20
74.256470
 30
0.0
  0
SPLINE
  5
21e
100
AcDbEntity
  8
Ebene_1
 62
7
100
AcDbSpline
 70
8
 71
3
 72
8
 73
4
 74
0
 40
0
 40
0
 40
0
 40
0
 40
1
 40
1
 40
1
 40
1
 10
369.950450
 20
74.256470
 30
0.0
 10
324.534160
 20
109.796060
 30
0.0
 10
283.402270
 20
158.724730
 30
0.0
 10
282.705370
 20
263.199620
 30
0.0
  0
SPLINE
  5
21f
100
AcDbEntity
  8
Ebene_1
 62
7
100
AcDbSpline
 70
8
 71
3
 72
8
 73
4
 74
0
 40
0
 40
0
 40
0
 40
0
 40
1
 40
1
 40
1
 40
1
 10
282.705370
 20
263.199620
 30
0.0
 10
313.475000
 20
272.356740
 30
0.0
 10
342.770230
 20
276.949630
 30
0.0
 10
371.530450
 20
276.913580
 30
0.0
  0
LWPOLYLINE
  5
220
100
AcDbEntity
  8
Ebene_1
 62
7
100
AcDbPolyline
 90
1
 70
1
 10
371.547780
 20
283.770550
 30
0.0
  0
LWPOLYLINE
  5
221
100
AcDbEntity
  8
Ebene_1
 62
7
100
AcDbPolyline
 90
1
 70
1
 10
371.530450
 20
276.913580
 30
0.0
  0
SPLINE
  5
222
100
AcDbEntity
  8
Ebene_1
 62
7
100
AcDbSpline
 70
8
 71
3
 72
8
 73
4
 74
0
 40
0
 40
0
 40
0
 40
0
 40
1
 40
1
 40
1
 40
1
 10
323.963820
 20
47.504660
 30
0.0
 10
324.809460
 20
47.504660
 30
0.0
 10
325.577060
 20
47.821280
 30
0.0
 10
326.191210
 20
48.419270
 30
0.0
  0
SPLINE
  5
223
100
AcDbEntity
  8
Ebene_1
 62
7
100
AcDbSpline
 70
8
 71
3
 72
8
 73
4
 74
0
 40
0
 40
0
 40
0
 40
0
 40
1
 40
1
 40
1
 40
1
 10
326.191210
 20
48.419270
 30
0.0
 10
326.809520
 20
49.021310
 30
0.0
 10
327.134250
 20
49.801420
 30
0.0
 10
327.134250
 20
50.675100
 30
0.0
  0
LWPOLYLINE
  5
224
100
AcDbEntity
  8
Ebene_1
 62
7
100
AcDbPolyline
 90
4
 70
0
 10
309.647460
 20
62.205720
 30
0.0
 10
309.647460
 20
47.504660
 30
0.0
 10
310.030670
 20
47.504660
 30
0.0
 10
323.963820
 20
47.504660
 30
0.0
  0
LWPOLYLINE
  5
225
100
AcDbEntity
  8
Ebene_1
 62
7
100
AcDbPolyline
 90
5
 70
0
 10
327.134250
 20
50.675100
 30
0.0
 10
327.134250
 20
51.058300
 30
0.0
 10
313.199600
 20
51.058300
 30
0.0
 10
313.199600
 20
62.205720
 30
0.0
 10
309.647460
 20
62.205720
 30
0.0
  0
LWPOLYLINE
  5
226
100
AcDbEntity
  8
Ebene_1
 62
7
100
AcDbPolyline
 90
9
 70
1
 10
329.155070
 20
56.632760
 30
0.0
 10
329.155070
 20
47.504660
 30
0.0
 10
329.538280
 20
47.504660
 30
0.0
 10
346.641860
 20
47.504660
 30
0.0
 10
346.641860
 20
56.632760
 30
0.0
 10
343.088220
 20
56.632760
 30
0.0
 10
343.088220
 20
51.058300
 30
0.0
 10
332.707210
 20
51.058300
 30
0.0
 10
332.707210
 20
56.632760
 30
0.0
  0
SPLINE
  5
227
100
AcDbEntity
  8
Ebene_1
 62
7
100
AcDbSpline
 70
8
 71
3
 72
8
 73
4
 74
0
 40
0
 40
0
 40
0
 40
0
 40
1
 40
1
 40
1
 40
1
 10
329.155070
 20
61.822510
 30
0.0
 10
329.155070
 20
60.964080
 30
0.0
 10
329.469020
 20
60.189520
 30
0.0
 10
330.068180
 20
59.574170
 30
0.0
  0
LWPOLYLINE
  5
228
100
AcDbEntity
  8
Ebene_1
 62
7
100
AcDbPolyline
 90
2
 70
0
 10
329.155070
 20
62.205720
 30
0.0
 10
329.155070
 20
61.822510
 30
0.0
  0
SPLINE
  5
229
100
AcDbEntity
  8
Ebene_1
 62
7
100
AcDbSpline
 70
8
 71
3
 72
8
 73
4
 74
0
 40
0
 40
0
 40
0
 40
0
 40
1
 40
1
 40
1
 40
1
 10
330.073180
 20
59.569170
 30
0.0
 10
330.676130
 20
58.966220
 30
0.0
 10
331.453220
 20
58.651570
 30
0.0
 10
332.324520
 20
58.651570
 30
0.0
  0
LWPOLYLINE
  5
22a
100
AcDbEntity
  8
Ebene_1
 62
7
100
AcDbPolyline
 90
3
 70
0
 10
330.068180
 20
59.574170
 30
0.0
 10
330.071180
 20
59.572170
 30
0.0
 10
330.073180
 20
59.569170
 30
0.0
  0
SPLINE
  5
22b
100
AcDbEntity
  8
Ebene_1
 62
7
100
AcDbSpline
 70
8
 71
3
 72
8
 73
4
 74
0
 40
0
 40
0
 40
0
 40
0
 40
1
 40
1
 40
1
 40
1
 10
343.471940
 20
58.651570
 30
0.0
 10
344.317580
 20
58.651570
 30
0.0
 10
345.085180
 20
58.968190
 30
0.0
 10
345.699330
 20
59.566180
 30
0.0
  0
SPLINE
  5
22c
100
AcDbEntity
  8
Ebene_1
 62
7
100
AcDbSpline
 70
8
 71
3
 72
8
 73
4
 74
0
 40
0
 40
0
 40
0
 40
0
 40
1
 40
1
 40
1
 40
1
 10
345.699330
 20
59.566180
 30
0.0
 10
346.317640
 20
60.168220
 30
0.0
 10
346.642380
 20
60.948330
 30
0.0
 10
346.642380
 20
61.822010
 30
0.0
  0
LWPOLYLINE
  5
22d
100
AcDbEntity
  8
Ebene_1
 62
7
100
AcDbPolyline
 90
2
 70
0
 10
332.324520
 20
58.651570
 30
0.0
 10
343.471940
 20
58.651570
 30
0.0
  0
LWPOLYLINE
  5
22e
100
AcDbEntity
  8
Ebene_1
 62
7
100
AcDbPolyline
 90
3
 70
0
 10
346.642380
 20
61.822010
 30
0.0
 10
346.642380
 20
62.205210
 30
0.0
 10
329.155070
 20
62.205720
 30
0.0
  0
LWPOLYLINE
  5
22f
100
AcDbEntity
  8
Ebene_1
 62
7
100
AcDbPolyline
 90
9
 70
1
 10
348.661180
 20
56.632760
 30
0.0
 10
348.661180
 20
47.504660
 30
0.0
 10
349.044390
 20
47.504660
 30
0.0
 10
352.214830
 20
47.504660
 30
0.0
 10
352.214830
 20
53.079120
 30
0.0
 10
362.595830
 20
53.079120
 30
0.0
 10
362.595830
 20
47.504660
 30
0.0
 10
366.149470
 20
47.504660
 30
0.0
 10
366.149470
 20
56.632760
 30
0.0
  0
SPLINE
  5
230
100
AcDbEntity
  8
Ebene_1
 62
7
100
AcDbSpline
 70
8
 71
3
 72
8
 73
4
 74
0
 40
0
 40
0
 40
0
 40
0
 40
1
 40
1
 40
1
 40
1
 10
348.661180
 20
61.822510
 30
0.0
 10
348.661180
 20
60.964080
 30
0.0
 10
348.976630
 20
60.189520
 30
0.0
 10
349.575790
 20
59.574170
 30
0.0
  0
LWPOLYLINE
  5
231
100
AcDbEntity
  8
Ebene_1
 62
7
100
AcDbPolyline
 90
2
 70
0
 10
348.661180
 20
62.205720
 30
0.0
 10
348.661180
 20
61.822510
 30
0.0
  0
SPLINE
  5
232
100
AcDbEntity
  8
Ebene_1
 62
7
100
AcDbSpline
 70
8
 71
3
 72
8
 73
4
 74
0
 40
0
 40
0
 40
0
 40
0
 40
1
 40
1
 40
1
 40
1
 10
349.580790
 20
59.569170
 30
0.0
 10
350.183740
 20
58.966220
 30
0.0
 10
350.960830
 20
58.651570
 30
0.0
 10
351.832130
 20
58.651570
 30
0.0
  0
LWPOLYLINE
  5
233
100
AcDbEntity
  8
Ebene_1
 62
7
100
AcDbPolyline
 90
3
 70
0
 10
349.575790
 20
59.574170
 30
0.0
 10
349.577790
 20
59.572170
 30
0.0
 10
349.580790
 20
59.569170
 30
0.0
  0
SPLINE
  5
234
100
AcDbEntity
  8
Ebene_1
 62
7
100
AcDbSpline
 70
8
 71
3
 72
8
 73
4
 74
0
 40
0
 40
0
 40
0
 40
0
 40
1
 40
1
 40
1
 40
1
 10
362.979550
 20
58.651570
 30
0.0
 10
363.825190
 20
58.651570
 30
0.0
 10
364.592790
 20
58.968190
 30
0.0
 10
365.206940
 20
59.566180
 30
0.0
  0
SPLINE
  5
235
100
AcDbEntity
  8
Ebene_1
 62
7
100
AcDbSpline
 70
8
 71
3
 72
8
 73
4
 74
0
 40
0
 40
0
 40
0
 40
0
 40
1
 40
1
 40
1
 40
1
 10
365.206940
 20
59.566180
 30
0.0
 10
365.825250
 20
60.168220
 30
0.0
 10
366.149980
 20
60.948330
 30
0.0
 10
366.149980
 20
61.822010
 30
0.0
  0
LWPOLYLINE
  5
236
100
AcDbEntity
  8
Ebene_1
 62
7
100
AcDbPolyline
 90
2
 70
0
 10
351.832130
 20
58.651570
 30
0.0
 10
362.979550
 20
58.651570
 30
0.0
  0
LWPOLYLINE
  5
237
100
AcDbEntity
  8
Ebene_1
 62
7
100
AcDbPolyline
 90
3
 70
0
 10
366.149980
 20
61.822010
 30
0.0
 10
366.149980
 20
62.205210
 30
0.0
 10
348.661180
 20
62.205720
 30
0.0
  0
SPLINE
  5
238
100
AcDbEntity
  8
Ebene_1
 62
7
100
AcDbSpline
 70
8
 71
3
 72
8
 73
4
 74
0
 40
0
 40
0
 40
0
 40
0
 40
1
 40
1
 40
1
 40
1
 10
368.168800
 20
61.822510
 30
0.0
 10
368.168800
 20
60.964080
 30
0.0
 10
368.484250
 20
60.189520
 30
0.0
 10
369.083400
 20
59.574170
 30
0.0
  0
LWPOLYLINE
  5
239
100
AcDbEntity
  8
Ebene_1
 62
7
100
AcDbPolyline
 90
2
 70
0
 10
368.168800
 20
62.205720
 30
0.0
 10
368.168800
 20
61.822510
 30
0.0
  0
SPLINE
  5
23a
100
AcDbEntity
  8
Ebene_1
 62
7
100
AcDbSpline
 70
8
 71
3
 72
8
 73
4
 74
0
 40
0
 40
0
 40
0
 40
0
 40
1
 40
1
 40
1
 40
1
 10
369.087400
 20
59.569170
 30
0.0
 10
369.690340
 20
58.966220
 30
0.0
 10
370.468940
 20
58.651570
 30
0.0
 10
371.340230
 20
58.651570
 30
0.0
  0
LWPOLYLINE
  5
23b
100
AcDbEntity
  8
Ebene_1
 62
7
100
AcDbPolyline
 90
3
 70
0
 10
369.083400
 20
59.574170
 30
0.0
 10
369.085400
 20
59.572170
 30
0.0
 10
369.087400
 20
59.569170
 30
0.0
  0
SPLINE
  5
23c
100
AcDbEntity
  8
Ebene_1
 62
7
100
AcDbSpline
 70
8
 71
3
 72
8
 73
4
 74
0
 40
0
 40
0
 40
0
 40
0
 40
1
 40
1
 40
1
 40
1
 10
382.104450
 20
52.068200
 30
0.0
 10
382.104450
 20
51.768540
 30
0.0
 10
382.011650
 20
51.553760
 30
0.0
 10
381.803570
 20
51.343700
 30
0.0
  0
SPLINE
  5
23d
100
AcDbEntity
  8
Ebene_1
 62
7
100
AcDbSpline
 70
8
 71
3
 72
8
 73
4
 74
0
 40
0
 40
0
 40
0
 40
0
 40
1
 40
1
 40
1
 40
1
 10
381.803570
 20
51.343700
 30
0.0
 10
381.592790
 20
51.145870
 30
0.0
 10
381.380700
 20
51.057800
 30
0.0
 10
381.094040
 20
51.057800
 30
0.0
  0
LWPOLYLINE
  5
23e
100
AcDbEntity
  8
Ebene_1
 62
7
100
AcDbPolyline
 90
3
 70
0
 10
371.340230
 20
58.651570
 30
0.0
 10
382.104450
 20
58.651570
 30
0.0
 10
382.104450
 20
52.068200
 30
0.0
  0
SPLINE
  5
23f
100
AcDbEntity
  8
Ebene_1
 62
7
100
AcDbSpline
 70
8
 71
3
 72
8
 73
4
 74
0
 40
0
 40
0
 40
0
 40
0
 40
1
 40
1
 40
1
 40
1
 10
382.487660
 20
47.504150
 30
0.0
 10
383.333300
 20
47.504150
 30
0.0
 10
384.099400
 20
47.820770
 30
0.0
 10
384.713540
 20
48.418760
 30
0.0
  0
SPLINE
  5
240
100
AcDbEntity
  8
Ebene_1
 62
7
100
AcDbSpline
 70
8
 71
3
 72
8
 73
4
 74
0
 40
0
 40
0
 40
0
 40
0
 40
1
 40
1
 40
1
 40
1
 10
384.713540
 20
48.418760
 30
0.0
 10
385.331860
 20
49.020790
 30
0.0
 10
385.658090
 20
49.800920
 30
0.0
 10
385.658090
 20
50.674590
 30
0.0
  0
LWPOLYLINE
  5
241
100
AcDbEntity
  8
Ebene_1
 62
7
100
AcDbPolyline
 90
7
 70
0
 10
381.094040
 20
51.057800
 30
0.0
 10
371.723440
 20
51.057800
 30
0.0
 10
371.723440
 20
56.632250
 30
0.0
 10
368.169800
 20
56.632250
 30
0.0
 10
368.169800
 20
47.504150
 30
0.0
 10
368.553010
 20
47.504150
 30
0.0
 10
382.487660
 20
47.504150
 30
0.0
  0
LWPOLYLINE
  5
242
100
AcDbEntity
  8
Ebene_1
 62
7
100
AcDbPolyline
 90
3
 70
0
 10
385.658090
 20
50.674590
 30
0.0
 10
385.658090
 20
62.205210
 30
0.0
 10
368.168800
 20
62.205720
 30
0.0
  0
LWPOLYLINE
  5
243
100
AcDbEntity
  8
Ebene_1
 62
7
100
AcDbPolyline
 90
5
 70
1
 10
387.676400
 20
62.205720
 30
0.0
 10
387.676400
 20
47.504660
 30
0.0
 10
388.059610
 20
47.504660
 30
0.0
 10
391.230050
 20
47.504660
 30
0.0
 10
391.230050
 20
62.205720
 30
0.0
  0
LWPOLYLINE
  5
244
100
AcDbEntity
  8
Ebene_1
 62
7
100
AcDbPolyline
 90
12
 70
1
 10
392.708990
 20
62.205720
 30
0.0
 10
396.036590
 20
58.876610
 30
0.0
 10
396.036590
 20
47.504660
 30
0.0
 10
396.419800
 20
47.504660
 30
0.0
 10
399.590230
 20
47.504660
 30
0.0
 10
399.590230
 20
55.324470
 30
0.0
 10
407.408550
 20
47.504660
 30
0.0
 10
410.737650
 20
47.504660
 30
0.0
 10
410.737650
 20
62.205720
 30
0.0
 10
407.184020
 20
62.205720
 30
0.0
 10
407.184020
 20
52.993800
 30
0.0
 10
397.972080
 20
62.205720
 30
0.0
  0
SPLINE
  5
245
100
AcDbEntity
  8
Ebene_1
 62
7
100
AcDbSpline
 70
8
 71
3
 72
8
 73
4
 74
0
 40
0
 40
0
 40
0
 40
0
 40
1
 40
1
 40
1
 40
1
 10
412.756980
 20
50.675100
 30
0.0
 10
412.756980
 20
49.816650
 30
0.0
 10
413.072420
 20
49.042100
 30
0.0
 10
413.671580
 20
48.426750
 30
0.0
  0
LWPOLYLINE
  5
246
100
AcDbEntity
  8
Ebene_1
 62
7
100
AcDbPolyline
 90
2
 70
0
 10
412.756980
 20
56.632760
 30
0.0
 10
412.756980
 20
50.675100
 30
0.0
  0
SPLINE
  5
247
100
AcDbEntity
  8
Ebene_1
 62
7
100
AcDbSpline
 70
8
 71
3
 72
8
 73
4
 74
0
 40
0
 40
0
 40
0
 40
0
 40
1
 40
1
 40
1
 40
1
 10
413.676580
 20
48.422750
 30
0.0
 10
414.279530
 20
47.819800
 30
0.0
 10
415.056610
 20
47.503650
 30
0.0
 10
415.927920
 20
47.503650
 30
0.0
  0
LWPOLYLINE
  5
248
100
AcDbEntity
  8
Ebene_1
 62
7
100
AcDbPolyline
 90
3
 70
0
 10
413.671580
 20
48.426750
 30
0.0
 10
413.673580
 20
48.424750
 30
0.0
 10
413.676580
 20
48.422750
 30
0.0
  0
SPLINE
  5
249
100
AcDbEntity
  8
Ebene_1
 62
7
100
AcDbSpline
 70
8
 71
3
 72
8
 73
4
 74
0
 40
0
 40
0
 40
0
 40
0
 40
1
 40
1
 40
1
 40
1
 10
418.331940
 20
56.248540
 30
0.0
 10
418.331940
 20
55.390110
 30
0.0
 10
418.647390
 20
54.614050
 30
0.0
 10
419.246550
 20
53.998710
 30
0.0
  0
LWPOLYLINE
  5
24a
100
AcDbEntity
  8
Ebene_1
 62
7
100
AcDbPolyline
 90
5
 70
0
 10
415.927920
 20
47.503650
 30
0.0
 10
430.245770
 20
47.503650
 30
0.0
 10
430.245770
 20
56.631750
 30
0.0
 10
418.331940
 20
56.631750
 30
0.0
 10
418.331940
 20
56.248540
 30
0.0
  0
SPLINE
  5
24b
100
AcDbEntity
  8
Ebene_1
 62
7
100
AcDbSpline
 70
8
 71
3
 72
8
 73
4
 74
0
 40
0
 40
0
 40
0
 40
0
 40
1
 40
1
 40
1
 40
1
 10
419.250550
 20
53.994710
 30
0.0
 10
419.853490
 20
53.391770
 30
0.0
 10
420.632080
 20
53.077110
 30
0.0
 10
421.503390
 20
53.077110
 30
0.0
  0
LWPOLYLINE
  5
24c
100
AcDbEntity
  8
Ebene_1
 62
7
100
AcDbPolyline
 90
3
 70
0
 10
419.246550
 20
53.998710
 30
0.0
 10
419.248550
 20
53.996710
 30
0.0
 10
419.250550
 20
53.994710
 30
0.0
  0
SPLINE
  5
24d
100
AcDbEntity
  8
Ebene_1
 62
7
100
AcDbSpline
 70
8
 71
3
 72
8
 73
4
 74
0
 40
0
 40
0
 40
0
 40
0
 40
1
 40
1
 40
1
 40
1
 10
417.322540
 20
51.056300
 30
0.0
 10
417.020210
 20
51.056300
 30
0.0
 10
416.802350
 20
51.146300
 30
0.0
 10
416.595050
 20
51.339210
 30
0.0
  0
SPLINE
  5
24e
100
AcDbEntity
  8
Ebene_1
 62
7
100
AcDbSpline
 70
8
 71
3
 72
8
 73
4
 74
0
 40
0
 40
0
 40
0
 40
0
 40
1
 40
1
 40
1
 40
1
 10
416.595050
 20
51.339210
 30
0.0
 10
416.402120
 20
51.546510
 30
0.0
 10
416.312130
 20
51.764390
 30
0.0
 10
416.312130
 20
52.066710
 30
0.0
  0
LWPOLYLINE
  5
24f
100
AcDbEntity
  8
Ebene_1
 62
7
100
AcDbPolyline
 90
4
 70
0
 10
421.503390
 20
53.077110
 30
0.0
 10
426.693140
 20
53.077110
 30
0.0
 10
426.693140
 20
51.056300
 30
0.0
 10
417.322540
 20
51.056300
 30
0.0
  0
LWPOLYLINE
  5
250
100
AcDbEntity
  8
Ebene_1
 62
7
100
AcDbPolyline
 90
3
 70
0
 10
416.312130
 20
52.066710
 30
0.0
 10
416.312130
 20
56.630750
 30
0.0
 10
412.756980
 20
56.632760
 30
0.0
  0
SPLINE
  5
251
100
AcDbEntity
  8
Ebene_1
 62
7
100
AcDbSpline
 70
8
 71
3
 72
8
 73
4
 74
0
 40
0
 40
0
 40
0
 40
0
 40
1
 40
1
 40
1
 40
1
 10
427.074830
 20
58.652080
 30
0.0
 10
427.920480
 20
58.652080
 30
0.0
 10
428.688070
 20
58.968700
 30
0.0
 10
429.302220
 20
59.566690
 30
0.0
  0
SPLINE
  5
252
100
AcDbEntity
  8
Ebene_1
 62
7
100
AcDbSpline
 70
8
 71
3
 72
8
 73
4
 74
0
 40
0
 40
0
 40
0
 40
0
 40
1
 40
1
 40
1
 40
1
 10
429.302220
 20
59.566690
 30
0.0
 10
429.920520
 20
60.168730
 30
0.0
 10
430.245270
 20
60.948840
 30
0.0
 10
430.245270
 20
61.822510
 30
0.0
  0
LWPOLYLINE
  5
253
100
AcDbEntity
  8
Ebene_1
 62
7
100
AcDbPolyline
 90
4
 70
0
 10
412.756980
 20
62.205720
 30
0.0
 10
412.756980
 20
58.652080
 30
0.0
 10
413.140180
 20
58.652080
 30
0.0
 10
427.074830
 20
58.652080
 30
0.0
  0
LWPOLYLINE
  5
254
100
AcDbEntity
  8
Ebene_1
 62
7
100
AcDbPolyline
 90
3
 70
0
 10
430.245270
 20
61.822510
 30
0.0
 10
430.245270
 20
62.205720
 30
0.0
 10
412.756980
 20
62.205720
 30
0.0
  0
SPLINE
  5
255
100
AcDbEntity
  8
Ebene_1
 62
7
100
AcDbSpline
 70
8
 71
3
 72
8
 73
4
 74
0
 40
0
 40
0
 40
0
 40
0
 40
1
 40
1
 40
1
 40
1
 10
343.471430
 20
30.784280
 30
0.0
 10
344.317070
 20
30.784280
 30
0.0
 10
345.084670
 20
31.100900
 30
0.0
 10
345.698820
 20
31.698880
 30
0.0
  0
SPLINE
  5
256
100
AcDbEntity
  8
Ebene_1
 62
7
100
AcDbSpline
 70
8
 71
3
 72
8
 73
4
 74
0
 40
0
 40
0
 40
0
 40
0
 40
1
 40
1
 40
1
 40
1
 10
345.698820
 20
31.698880
 30
0.0
 10
345.776420
 20
31.774480
 30
0.0
 10
345.807140
 20
31.875330
 30
0.0
 10
345.875450
 20
31.956350
 30
0.0
  0
LWPOLYLINE
  5
257
100
AcDbEntity
  8
Ebene_1
 62
7
100
AcDbPolyline
 90
6
 70
0
 10
331.940800
 20
39.910880
 30
0.0
 10
331.940800
 20
25.211320
 30
0.0
 10
332.324010
 20
25.211320
 30
0.0
 10
335.494440
 20
25.211320
 30
0.0
 10
335.494440
 20
30.784280
 30
0.0
 10
343.471430
 20
30.784280
 30
0.0
  0
LWPOLYLINE
  5
258
100
AcDbEntity
  8
Ebene_1
 62
7
100
AcDbPolyline
 90
10
 70
0
 10
345.875450
 20
31.956350
 30
0.0
 10
345.875450
 20
25.211320
 30
0.0
 10
346.258660
 20
25.211320
 30
0.0
 10
349.427600
 20
25.211320
 30
0.0
 10
349.427600
 20
39.910880
 30
0.0
 10
345.875450
 20
39.910880
 30
0.0
 10
345.875450
 20
34.337920
 30
0.0
 10
335.494440
 20
34.337920
 30
0.0
 10
335.494440
 20
39.910880
 30
0.0
 10
331.940800
 20
39.910880
 30
0.0
  0
SPLINE
  5
259
100
AcDbEntity
  8
Ebene_1
 62
7
100
AcDbSpline
 70
8
 71
3
 72
8
 73
4
 74
0
 40
0
 40
0
 40
0
 40
0
 40
1
 40
1
 40
1
 40
1
 10
351.448410
 20
28.381750
 30
0.0
 10
351.448410
 20
27.523310
 30
0.0
 10
351.763860
 20
26.747260
 30
0.0
 10
352.363020
 20
26.131910
 30
0.0
  0
LWPOLYLINE
  5
25a
100
AcDbEntity
  8
Ebene_1
 62
7
100
AcDbPolyline
 90
2
 70
0
 10
351.448410
 20
28.764960
 30
0.0
 10
351.448410
 20
28.381750
 30
0.0
  0
SPLINE
  5
25b
100
AcDbEntity
  8
Ebene_1
 62
7
100
AcDbSpline
 70
8
 71
3
 72
8
 73
4
 74
0
 40
0
 40
0
 40
0
 40
0
 40
1
 40
1
 40
1
 40
1
 10
352.367020
 20
26.127910
 30
0.0
 10
352.969970
 20
25.524970
 30
0.0
 10
353.748560
 20
25.210320
 30
0.0
 10
354.619860
 20
25.210320
 30
0.0
  0
LWPOLYLINE
  5
25c
100
AcDbEntity
  8
Ebene_1
 62
7
100
AcDbPolyline
 90
3
 70
0
 10
352.363020
 20
26.131910
 30
0.0
 10
352.365020
 20
26.129910
 30
0.0
 10
352.367020
 20
26.127910
 30
0.0
  0
SPLINE
  5
25d
100
AcDbEntity
  8
Ebene_1
 62
7
100
AcDbSpline
 70
8
 71
3
 72
8
 73
4
 74
0
 40
0
 40
0
 40
0
 40
0
 40
1
 40
1
 40
1
 40
1
 10
365.767280
 20
25.210320
 30
0.0
 10
366.612920
 20
25.210320
 30
0.0
 10
367.379030
 20
25.526940
 30
0.0
 10
367.993170
 20
26.124930
 30
0.0
  0
SPLINE
  5
25e
100
AcDbEntity
  8
Ebene_1
 62
7
100
AcDbSpline
 70
8
 71
3
 72
8
 73
4
 74
0
 40
0
 40
0
 40
0
 40
0
 40
1
 40
1
 40
1
 40
1
 10
367.993170
 20
26.124930
 30
0.0
 10
368.611470
 20
26.726960
 30
0.0
 10
368.936220
 20
27.507080
 30
0.0
 10
368.936220
 20
28.380760
 30
0.0
  0
LWPOLYLINE
  5
25f
100
AcDbEntity
  8
Ebene_1
 62
7
100
AcDbPolyline
 90
2
 70
0
 10
354.619860
 20
25.210320
 30
0.0
 10
365.767280
 20
25.210320
 30
0.0
  0
LWPOLYLINE
  5
260
100
AcDbEntity
  8
Ebene_1
 62
7
100
AcDbPolyline
 90
3
 70
0
 10
368.936220
 20
28.380760
 30
0.0
 10
368.936220
 20
28.763960
 30
0.0
 10
351.448410
 20
28.764960
 30
0.0
  0
SPLINE
  5
261
100
AcDbEntity
  8
Ebene_1
 62
7
100
AcDbSpline
 70
8
 71
3
 72
8
 73
4
 74
0
 40
0
 40
0
 40
0
 40
0
 40
1
 40
1
 40
1
 40
1
 10
351.448410
 20
33.954710
 30
0.0
 10
351.448410
 20
33.096270
 30
0.0
 10
351.763860
 20
32.321720
 30
0.0
 10
352.363020
 20
31.706370
 30
0.0
  0
LWPOLYLINE
  5
262
100
AcDbEntity
  8
Ebene_1
 62
7
100
AcDbPolyline
 90
2
 70
0
 10
351.448410
 20
34.337920
 30
0.0
 10
351.448410
 20
33.954710
 30
0.0
  0
SPLINE
  5
263
100
AcDbEntity
  8
Ebene_1
 62
7
100
AcDbSpline
 70
8
 71
3
 72
8
 73
4
 74
0
 40
0
 40
0
 40
0
 40
0
 40
1
 40
1
 40
1
 40
1
 10
352.367020
 20
31.701370
 30
0.0
 10
352.969970
 20
31.098420
 30
0.0
 10
353.748560
 20
30.783770
 30
0.0
 10
354.619860
 20
30.783770
 30
0.0
  0
LWPOLYLINE
  5
264
100
AcDbEntity
  8
Ebene_1
 62
7
100
AcDbPolyline
 90
3
 70
0
 10
352.363020
 20
31.706370
 30
0.0
 10
352.365020
 20
31.704370
 30
0.0
 10
352.367020
 20
31.701370
 30
0.0
  0
SPLINE
  5
265
100
AcDbEntity
  8
Ebene_1
 62
7
100
AcDbSpline
 70
8
 71
3
 72
8
 73
4
 74
0
 40
0
 40
0
 40
0
 40
0
 40
1
 40
1
 40
1
 40
1
 10
365.767280
 20
30.783770
 30
0.0
 10
366.612920
 20
30.783770
 30
0.0
 10
367.379030
 20
31.100390
 30
0.0
 10
367.993170
 20
31.698380
 30
0.0
  0
SPLINE
  5
266
100
AcDbEntity
  8
Ebene_1
 62
7
100
AcDbSpline
 70
8
 71
3
 72
8
 73
4
 74
0
 40
0
 40
0
 40
0
 40
0
 40
1
 40
1
 40
1
 40
1
 10
367.993170
 20
31.698380
 30
0.0
 10
368.611470
 20
32.300420
 30
0.0
 10
368.936220
 20
33.080540
 30
0.0
 10
368.936220
 20
33.954210
 30
0.0
  0
LWPOLYLINE
  5
267
100
AcDbEntity
  8
Ebene_1
 62
7
100
AcDbPolyline
 90
2
 70
0
 10
354.619860
 20
30.783770
 30
0.0
 10
365.767280
 20
30.783770
 30
0.0
  0
LWPOLYLINE
  5
268
100
AcDbEntity
  8
Ebene_1
 62
7
100
AcDbPolyline
 90
3
 70
0
 10
368.936220
 20
33.954210
 30
0.0
 10
368.936220
 20
34.337410
 30
0.0
 10
351.448410
 20
34.337920
 30
0.0
  0
SPLINE
  5
269
100
AcDbEntity
  8
Ebene_1
 62
7
100
AcDbSpline
 70
8
 71
3
 72
8
 73
4
 74
0
 40
0
 40
0
 40
0
 40
0
 40
1
 40
1
 40
1
 40
1
 10
351.448410
 20
39.527670
 30
0.0
 10
351.448410
 20
38.669230
 30
0.0
 10
351.763860
 20
37.894670
 30
0.0
 10
352.363020
 20
37.279330
 30
0.0
  0
LWPOLYLINE
  5
26a
100
AcDbEntity
  8
Ebene_1
 62
7
100
AcDbPolyline
 90
2
 70
0
 10
351.448410
 20
39.910880
 30
0.0
 10
351.448410
 20
39.527670
 30
0.0
  0
SPLINE
  5
26b
100
AcDbEntity
  8
Ebene_1
 62
7
100
AcDbSpline
 70
8
 71
3
 72
8
 73
4
 74
0
 40
0
 40
0
 40
0
 40
0
 40
1
 40
1
 40
1
 40
1
 10
352.367020
 20
37.275330
 30
0.0
 10
352.969970
 20
36.672390
 30
0.0
 10
353.748560
 20
36.357740
 30
0.0
 10
354.619860
 20
36.357740
 30
0.0
  0
LWPOLYLINE
  5
26c
100
AcDbEntity
  8
Ebene_1
 62
7
100
AcDbPolyline
 90
3
 70
0
 10
352.363020
 20
37.279330
 30
0.0
 10
352.365020
 20
37.277330
 30
0.0
 10
352.367020
 20
37.275330
 30
0.0
  0
SPLINE
  5
26d
100
AcDbEntity
  8
Ebene_1
 62
7
100
AcDbSpline
 70
8
 71
3
 72
8
 73
4
 74
0
 40
0
 40
0
 40
0
 40
0
 40
1
 40
1
 40
1
 40
1
 10
365.767280
 20
36.357740
 30
0.0
 10
366.612920
 20
36.357740
 30
0.0
 10
367.379030
 20
36.672860
 30
0.0
 10
367.993170
 20
37.270850
 30
0.0
  0
SPLINE
  5
26e
100
AcDbEntity
  8
Ebene_1
 62
7
100
AcDbSpline
 70
8
 71
3
 72
8
 73
4
 74
0
 40
0
 40
0
 40
0
 40
0
 40
1
 40
1
 40
1
 40
1
 10
367.993170
 20
37.270850
 30
0.0
 10
368.611470
 20
37.872880
 30
0.0
 10
368.936220
 20
38.653010
 30
0.0
 10
368.936220
 20
39.526670
 30
0.0
  0
LWPOLYLINE
  5
26f
100
AcDbEntity
  8
Ebene_1
 62
7
100
AcDbPolyline
 90
2
 70
0
 10
354.619860
 20
36.357740
 30
0.0
 10
365.767280
 20
36.357740
 30
0.0
  0
LWPOLYLINE
  5
270
100
AcDbEntity
  8
Ebene_1
 62
7
100
AcDbPolyline
 90
3
 70
0
 10
368.936220
 20
39.526670
 30
0.0
 10
368.936220
 20
39.909880
 30
0.0
 10
351.448410
 20
39.910880
 30
0.0
  0
SPLINE
  5
271
100
AcDbEntity
  8
Ebene_1
 62
7
100
AcDbSpline
 70
8
 71
3
 72
8
 73
4
 74
0
 40
0
 40
0
 40
0
 40
0
 40
1
 40
1
 40
1
 40
1
 10
370.956020
 20
39.527670
 30
0.0
 10
370.956020
 20
38.669230
 30
0.0
 10
371.271470
 20
37.894670
 30
0.0
 10
371.870630
 20
37.279330
 30
0.0
  0
LWPOLYLINE
  5
272
100
AcDbEntity
  8
Ebene_1
 62
7
100
AcDbPolyline
 90
2
 70
0
 10
370.956020
 20
39.910880
 30
0.0
 10
370.956020
 20
39.527670
 30
0.0
  0
SPLINE
  5
273
100
AcDbEntity
  8
Ebene_1
 62
7
100
AcDbSpline
 70
8
 71
3
 72
8
 73
4
 74
0
 40
0
 40
0
 40
0
 40
0
 40
1
 40
1
 40
1
 40
1
 10
371.874630
 20
37.275330
 30
0.0
 10
372.477580
 20
36.672390
 30
0.0
 10
373.256170
 20
36.357740
 30
0.0
 10
374.127460
 20
36.357740
 30
0.0
  0
LWPOLYLINE
  5
274
100
AcDbEntity
  8
Ebene_1
 62
7
100
AcDbPolyline
 90
3
 70
0
 10
371.870630
 20
37.279330
 30
0.0
 10
371.872630
 20
37.277330
 30
0.0
 10
371.874630
 20
37.275330
 30
0.0
  0
SPLINE
  5
275
100
AcDbEntity
  8
Ebene_1
 62
7
100
AcDbSpline
 70
8
 71
3
 72
8
 73
4
 74
0
 40
0
 40
0
 40
0
 40
0
 40
1
 40
1
 40
1
 40
1
 10
384.891680
 20
35.347330
 30
0.0
 10
384.891680
 20
35.047650
 30
0.0
 10
384.798880
 20
34.832870
 30
0.0
 10
384.590810
 20
34.622830
 30
0.0
  0
SPLINE
  5
276
100
AcDbEntity
  8
Ebene_1
 62
7
100
AcDbSpline
 70
8
 71
3
 72
8
 73
4
 74
0
 40
0
 40
0
 40
0
 40
0
 40
1
 40
1
 40
1
 40
1
 10
384.590810
 20
34.622830
 30
0.0
 10
384.380030
 20
34.425000
 30
0.0
 10
384.167930
 20
34.336920
 30
0.0
 10
383.881280
 20
34.336920
 30
0.0
  0
LWPOLYLINE
  5
277
100
AcDbEntity
  8
Ebene_1
 62
7
100
AcDbPolyline
 90
3
 70
0
 10
374.127460
 20
36.357740
 30
0.0
 10
384.891680
 20
36.357740
 30
0.0
 10
384.891680
 20
35.347330
 30
0.0
  0
SPLINE
  5
278
100
AcDbEntity
  8
Ebene_1
 62
7
100
AcDbSpline
 70
8
 71
3
 72
8
 73
4
 74
0
 40
0
 40
0
 40
0
 40
0
 40
1
 40
1
 40
1
 40
1
 10
385.274890
 20
30.783280
 30
0.0
 10
386.120530
 20
30.783280
 30
0.0
 10
386.886630
 20
31.099900
 30
0.0
 10
387.500780
 20
31.697880
 30
0.0
  0
SPLINE
  5
279
100
AcDbEntity
  8
Ebene_1
 62
7
100
AcDbSpline
 70
8
 71
3
 72
8
 73
4
 74
0
 40
0
 40
0
 40
0
 40
0
 40
1
 40
1
 40
1
 40
1
 10
387.500780
 20
31.697880
 30
0.0
 10
388.119090
 20
32.299920
 30
0.0
 10
388.443830
 20
33.080050
 30
0.0
 10
388.443830
 20
33.953710
 30
0.0
  0
LWPOLYLINE
  5
27a
100
AcDbEntity
  8
Ebene_1
 62
7
100
AcDbPolyline
 90
11
 70
0
 10
383.881280
 20
34.336920
 30
0.0
 10
370.957030
 20
34.336920
 30
0.0
 10
370.957030
 20
25.210320
 30
0.0
 10
371.340230
 20
25.210320
 30
0.0
 10
374.510670
 20
25.210320
 30
0.0
 10
374.510670
 20
30.783280
 30
0.0
 10
378.148140
 20
30.783280
 30
0.0
 10
383.722600
 20
25.210320
 30
0.0
 10
388.985700
 20
25.210320
 30
0.0
 10
383.412740
 20
30.783280
 30
0.0
 10
385.274890
 20
30.783280
 30
0.0
  0
LWPOLYLINE
  5
27b
100
AcDbEntity
  8
Ebene_1
 62
7
100
AcDbPolyline
 90
3
 70
0
 10
388.443830
 20
33.953710
 30
0.0
 10
388.443830
 20
39.909880
 30
0.0
 10
370.956020
 20
39.910880
 30
0.0
  0
SPLINE
  5
27c
100
AcDbEntity
  8
Ebene_1
 62
7
100
AcDbSpline
 70
8
 71
3
 72
8
 73
4
 74
0
 40
0
 40
0
 40
0
 40
0
 40
1
 40
1
 40
1
 40
1
 10
390.463630
 20
28.381750
 30
0.0
 10
390.463630
 20
27.523310
 30
0.0
 10
390.779090
 20
26.747260
 30
0.0
 10
391.378240
 20
26.131910
 30
0.0
  0
LWPOLYLINE
  5
27d
100
AcDbEntity
  8
Ebene_1
 62
7
100
AcDbPolyline
 90
2
 70
0
 10
390.463630
 20
28.764960
 30
0.0
 10
390.463630
 20
28.381750
 30
0.0
  0
SPLINE
  5
27e
100
AcDbEntity
  8
Ebene_1
 62
7
100
AcDbSpline
 70
8
 71
3
 72
8
 73
4
 74
0
 40
0
 40
0
 40
0
 40
0
 40
1
 40
1
 40
1
 40
1
 10
391.382240
 20
26.127910
 30
0.0
 10
391.985190
 20
25.524970
 30
0.0
 10
392.763770
 20
25.210320
 30
0.0
 10
393.635080
 20
25.210320
 30
0.0
  0
LWPOLYLINE
  5
27f
100
AcDbEntity
  8
Ebene_1
 62
7
100
AcDbPolyline
 90
3
 70
0
 10
391.378240
 20
26.131910
 30
0.0
 10
391.380240
 20
26.129910
 30
0.0
 10
391.382240
 20
26.127910
 30
0.0
  0
SPLINE
  5
280
100
AcDbEntity
  8
Ebene_1
 62
7
100
AcDbSpline
 70
8
 71
3
 72
8
 73
4
 74
0
 40
0
 40
0
 40
0
 40
0
 40
1
 40
1
 40
1
 40
1
 10
404.781000
 20
25.210320
 30
0.0
 10
405.626640
 20
25.210320
 30
0.0
 10
406.394250
 20
25.526940
 30
0.0
 10
407.008390
 20
26.124930
 30
0.0
  0
SPLINE
  5
281
100
AcDbEntity
  8
Ebene_1
 62
7
100
AcDbSpline
 70
8
 71
3
 72
8
 73
4
 74
0
 40
0
 40
0
 40
0
 40
0
 40
1
 40
1
 40
1
 40
1
 10
407.008390
 20
26.124930
 30
0.0
 10
407.626700
 20
26.726960
 30
0.0
 10
407.951440
 20
27.507080
 30
0.0
 10
407.951440
 20
28.380760
 30
0.0
  0
LWPOLYLINE
  5
282
100
AcDbEntity
  8
Ebene_1
 62
7
100
AcDbPolyline
 90
2
 70
0
 10
393.635080
 20
25.210320
 30
0.0
 10
404.781000
 20
25.210320
 30
0.0
  0
LWPOLYLINE
  5
283
100
AcDbEntity
  8
Ebene_1
 62
7
100
AcDbPolyline
 90
3
 70
0
 10
407.951440
 20
28.380760
 30
0.0
 10
407.951440
 20
28.763960
 30
0.0
 10
390.463630
 20
28.764960
 30
0.0
  0
SPLINE
  5
284
100
AcDbEntity
  8
Ebene_1
 62
7
100
AcDbSpline
 70
8
 71
3
 72
8
 73
4
 74
0
 40
0
 40
0
 40
0
 40
0
 40
1
 40
1
 40
1
 40
1
 10
390.463630
 20
33.954710
 30
0.0
 10
390.463630
 20
33.096270
 30
0.0
 10
390.779090
 20
32.321720
 30
0.0
 10
391.378240
 20
31.706370
 30
0.0
  0
LWPOLYLINE
  5
285
100
AcDbEntity
  8
Ebene_1
 62
7
100
AcDbPolyline
 90
2
 70
0
 10
390.463630
 20
34.337920
 30
0.0
 10
390.463630
 20
33.954710
 30
0.0
  0
SPLINE
  5
286
100
AcDbEntity
  8
Ebene_1
 62
7
100
AcDbSpline
 70
8
 71
3
 72
8
 73
4
 74
0
 40
0
 40
0
 40
0
 40
0
 40
1
 40
1
 40
1
 40
1
 10
391.382240
 20
31.701370
 30
0.0
 10
391.985190
 20
31.098420
 30
0.0
 10
392.763770
 20
30.783770
 30
0.0
 10
393.635080
 20
30.783770
 30
0.0
  0
LWPOLYLINE
  5
287
100
AcDbEntity
  8
Ebene_1
 62
7
100
AcDbPolyline
 90
3
 70
0
 10
391.378240
 20
31.706370
 30
0.0
 10
391.380240
 20
31.704370
 30
0.0
 10
391.382240
 20
31.701370
 30
0.0
  0
SPLINE
  5
288
100
AcDbEntity
  8
Ebene_1
 62
7
100
AcDbSpline
 70
8
 71
3
 72
8
 73
4
 74
0
 40
0
 40
0
 40
0
 40
0
 40
1
 40
1
 40
1
 40
1
 10
404.781000
 20
30.783770
 30
0.0
 10
405.626640
 20
30.783770
 30
0.0
 10
406.394250
 20
31.100390
 30
0.0
 10
407.008390
 20
31.698380
 30
0.0
  0
SPLINE
  5
289
100
AcDbEntity
  8
Ebene_1
 62
7
100
AcDbSpline
 70
8
 71
3
 72
8
 73
4
 74
0
 40
0
 40
0
 40
0
 40
0
 40
1
 40
1
 40
1
 40
1
 10
407.008390
 20
31.698380
 30
0.0
 10
407.626700
 20
32.300420
 30
0.0
 10
407.951440
 20
33.080540
 30
0.0
 10
407.951440
 20
33.954210
 30
0.0
  0
LWPOLYLINE
  5
28a
100
AcDbEntity
  8
Ebene_1
 62
7
100
AcDbPolyline
 90
2
 70
0
 10
393.635080
 20
30.783770
 30
0.0
 10
404.781000
 20
30.783770
 30
0.0
  0
LWPOLYLINE
  5
28b
100
AcDbEntity
  8
Ebene_1
 62
7
100
AcDbPolyline
 90
3
 70
0
 10
407.951440
 20
33.954210
 30
0.0
 10
407.951440
 20
34.337410
 30
0.0
 10
390.463630
 20
34.337920
 30
0.0
  0
SPLINE
  5
28c
100
AcDbEntity
  8
Ebene_1
 62
7
100
AcDbSpline
 70
8
 71
3
 72
8
 73
4
 74
0
 40
0
 40
0
 40
0
 40
0
 40
1
 40
1
 40
1
 40
1
 10
390.463630
 20
39.527670
 30
0.0
 10
390.463630
 20
38.669230
 30
0.0
 10
390.779090
 20
37.894670
 30
0.0
 10
391.378240
 20
37.279330
 30
0.0
  0
LWPOLYLINE
  5
28d
100
AcDbEntity
  8
Ebene_1
 62
7
100
AcDbPolyline
 90
2
 70
0
 10
390.463630
 20
39.910880
 30
0.0
 10
390.463630
 20
39.527670
 30
0.0
  0
SPLINE
  5
28e
100
AcDbEntity
  8
Ebene_1
 62
7
100
AcDbSpline
 70
8
 71
3
 72
8
 73
4
 74
0
 40
0
 40
0
 40
0
 40
0
 40
1
 40
1
 40
1
 40
1
 10
391.382240
 20
37.275330
 30
0.0
 10
391.985190
 20
36.672390
 30
0.0
 10
392.763770
 20
36.357740
 30
0.0
 10
393.635080
 20
36.357740
 30
0.0
  0
LWPOLYLINE
  5
28f
100
AcDbEntity
  8
Ebene_1
 62
7
100
AcDbPolyline
 90
3
 70
0
 10
391.378240
 20
37.279330
 30
0.0
 10
391.380240
 20
37.277330
 30
0.0
 10
391.382240
 20
37.275330
 30
0.0
  0
SPLINE
  5
290
100
AcDbEntity
  8
Ebene_1
 62
7
100
AcDbSpline
 70
8
 71
3
 72
8
 73
4
 74
0
 40
0
 40
0
 40
0
 40
0
 40
1
 40
1
 40
1
 40
1
 10
404.781000
 20
36.357740
 30
0.0
 10
405.626640
 20
36.357740
 30
0.0
 10
406.394250
 20
36.672860
 30
0.0
 10
407.008390
 20
37.270850
 30
0.0
  0
SPLINE
  5
291
100
AcDbEntity
  8
Ebene_1
 62
7
100
AcDbSpline
 70
8
 71
3
 72
8
 73
4
 74
0
 40
0
 40
0
 40
0
 40
0
 40
1
 40
1
 40
1
 40
1
 10
407.008390
 20
37.270850
 30
0.0
 10
407.626700
 20
37.872880
 30
0.0
 10
407.951440
 20
38.653010
 30
0.0
 10
407.951440
 20
39.526670
 30
0.0
  0
LWPOLYLINE
  5
292
100
AcDbEntity
  8
Ebene_1
 62
7
100
AcDbPolyline
 90
2
 70
0
 10
393.635080
 20
36.357740
 30
0.0
 10
404.781000
 20
36.357740
 30
0.0
  0
LWPOLYLINE
  5
293
100
AcDbEntity
  8
Ebene_1
 62
7
100
AcDbPolyline
 90
3
 70
0
 10
407.951440
 20
39.526670
 30
0.0
 10
407.951440
 20
39.909880
 30
0.0
 10
390.463630
 20
39.910880
 30
0.0
  0
SPLINE
  5
294
100
AcDbEntity
  8
Ebene_1
 62
7
100
AcDbSpline
 70
8
 71
3
 72
8
 73
4
 74
0
 40
0
 40
0
 40
0
 40
0
 40
1
 40
1
 40
1
 40
1
 10
59.880837
 20
57.345440
 30
0.0
 10
59.880837
 20
57.069129
 30
0.0
 10
59.806394
 20
56.896402
 30
0.0
 10
59.616431
 20
56.703896
 30
0.0
  0
SPLINE
  5
295
100
AcDbEntity
  8
Ebene_1
 62
7
100
AcDbSpline
 70
8
 71
3
 72
8
 73
4
 74
0
 40
0
 40
0
 40
0
 40
0
 40
1
 40
1
 40
1
 40
1
 10
59.616431
 20
56.703896
 30
0.0
 10
59.422735
 20
56.522833
 30
0.0
 10
59.249104
 20
56.450627
 30
0.0
 10
58.986024
 20
56.450627
 30
0.0
  0
LWPOLYLINE
  5
296
100
AcDbEntity
  8
Ebene_1
 62
7
100
AcDbPolyline
 90
4
 70
0
 10
44.893075
 20
62.445729
 30
0.0
 10
44.893075
 20
58.240246
 30
0.0
 10
59.880837
 20
58.240246
 30
0.0
 10
59.880837
 20
57.345440
 30
0.0
  0
SPLINE
  5
297
100
AcDbEntity
  8
Ebene_1
 62
7
100
AcDbSpline
 70
8
 71
3
 72
8
 73
4
 74
0
 40
0
 40
0
 40
0
 40
0
 40
1
 40
1
 40
1
 40
1
 10
60.484803
 20
52.245144
 30
0.0
 10
61.439979
 20
52.245144
 30
0.0
 10
62.322779
 20
52.608125
 30
0.0
 10
63.014769
 20
53.281903
 30
0.0
  0
SPLINE
  5
298
100
AcDbEntity
  8
Ebene_1
 62
7
100
AcDbSpline
 70
8
 71
3
 72
8
 73
4
 74
0
 40
0
 40
0
 40
0
 40
0
 40
1
 40
1
 40
1
 40
1
 10
63.014769
 20
53.281903
 30
0.0
 10
63.713321
 20
53.962072
 30
0.0
 10
64.087709
 20
54.861830
 30
0.0
 10
64.087709
 20
55.846661
 30
0.0
  0
LWPOLYLINE
  5
299
100
AcDbEntity
  8
Ebene_1
 62
7
100
AcDbPolyline
 90
7
 70
0
 10
58.986024
 20
56.450627
 30
0.0
 10
44.893075
 20
56.450627
 30
0.0
 10
44.893075
 20
46.250042
 30
0.0
 10
45.497041
 20
46.250042
 30
0.0
 10
49.098558
 20
46.250042
 30
0.0
 10
49.098558
 20
52.245144
 30
0.0
 10
60.484803
 20
52.245144
 30
0.0
  0
LWPOLYLINE
  5
29a
100
AcDbEntity
  8
Ebene_1
 62
7
100
AcDbPolyline
 90
3
 70
0
 10
64.087709
 20
55.846661
 30
0.0
 10
64.087709
 20
62.445729
 30
0.0
 10
44.893075
 20
62.445729
 30
0.0
  0
LWPOLYLINE
  5
29b
100
AcDbEntity
  8
Ebene_1
 62
7
100
AcDbPolyline
 90
9
 70
1
 10
65.875938
 20
56.450627
 30
0.0
 10
65.875938
 20
46.250042
 30
0.0
 10
66.481294
 20
46.250042
 30
0.0
 10
70.082811
 20
46.250042
 30
0.0
 10
70.082811
 20
52.245144
 30
0.0
 10
80.865090
 20
52.245144
 30
0.0
 10
80.865090
 20
46.250042
 30
0.0
 10
85.070573
 20
46.250042
 30
0.0
 10
85.070573
 20
56.450627
 30
0.0
  0
SPLINE
  5
29c
100
AcDbEntity
  8
Ebene_1
 62
7
100
AcDbSpline
 70
8
 71
3
 72
8
 73
4
 74
0
 40
0
 40
0
 40
0
 40
0
 40
1
 40
1
 40
1
 40
1
 10
65.875938
 20
61.841763
 30
0.0
 10
65.875938
 20
60.873675
 30
0.0
 10
66.238464
 20
59.983416
 30
0.0
 10
66.914087
 20
59.289531
 30
0.0
  0
LWPOLYLINE
  5
29d
100
AcDbEntity
  8
Ebene_1
 62
7
100
AcDbPolyline
 90
2
 70
0
 10
65.875938
 20
62.445729
 30
0.0
 10
65.875938
 20
61.841763
 30
0.0
  0
SPLINE
  5
29e
100
AcDbEntity
  8
Ebene_1
 62
7
100
AcDbSpline
 70
8
 71
3
 72
8
 73
4
 74
0
 40
0
 40
0
 40
0
 40
0
 40
1
 40
1
 40
1
 40
1
 10
66.919787
 20
59.283831
 30
0.0
 10
67.601388
 20
58.602229
 30
0.0
 10
68.497876
 20
58.240110
 30
0.0
 10
69.478973
 20
58.240110
 30
0.0
  0
LWPOLYLINE
  5
29f
100
AcDbEntity
  8
Ebene_1
 62
7
100
AcDbPolyline
 90
3
 70
0
 10
66.914087
 20
59.289531
 30
0.0
 10
66.916937
 20
59.286681
 30
0.0
 10
66.919787
 20
59.283831
 30
0.0
  0
SPLINE
  5
2a0
100
AcDbEntity
  8
Ebene_1
 62
7
100
AcDbSpline
 70
8
 71
3
 72
8
 73
4
 74
0
 40
0
 40
0
 40
0
 40
0
 40
1
 40
1
 40
1
 40
1
 10
81.469184
 20
58.240110
 30
0.0
 10
82.424361
 20
58.240110
 30
0.0
 10
83.305771
 20
58.604488
 30
0.0
 10
83.997761
 20
59.278266
 30
0.0
  0
SPLINE
  5
2a1
100
AcDbEntity
  8
Ebene_1
 62
7
100
AcDbSpline
 70
8
 71
3
 72
8
 73
4
 74
0
 40
0
 40
0
 40
0
 40
0
 40
1
 40
1
 40
1
 40
1
 10
83.997761
 20
59.278266
 30
0.0
 10
84.696313
 20
59.958435
 30
0.0
 10
85.070701
 20
60.856803
 30
0.0
 10
85.070701
 20
61.841627
 30
0.0
  0
LWPOLYLINE
  5
2a2
100
AcDbEntity
  8
Ebene_1
 62
7
100
AcDbPolyline
 90
2
 70
0
 10
69.478973
 20
58.240110
 30
0.0
 10
81.469184
 20
58.240110
 30
0.0
  0
LWPOLYLINE
  5
2a3
100
AcDbEntity
  8
Ebene_1
 62
7
100
AcDbPolyline
 90
3
 70
0
 10
85.070701
 20
61.841627
 30
0.0
 10
85.070701
 20
62.445594
 30
0.0
 10
65.875938
 20
62.445729
 30
0.0
  0
SPLINE
  5
2a4
100
AcDbEntity
  8
Ebene_1
 62
7
100
AcDbSpline
 70
8
 71
3
 72
8
 73
4
 74
0
 40
0
 40
0
 40
0
 40
0
 40
1
 40
1
 40
1
 40
1
 10
86.860199
 20
61.841763
 30
0.0
 10
86.860192
 20
60.873675
 30
0.0
 10
87.221320
 20
59.983416
 30
0.0
 10
87.896951
 20
59.289531
 30
0.0
  0
LWPOLYLINE
  5
2a5
100
AcDbEntity
  8
Ebene_1
 62
7
100
AcDbPolyline
 90
2
 70
0
 10
86.860199
 20
62.445729
 30
0.0
 10
86.860199
 20
61.841763
 30
0.0
  0
SPLINE
  5
2a6
100
AcDbEntity
  8
Ebene_1
 62
7
100
AcDbSpline
 70
8
 71
3
 72
8
 73
4
 74
0
 40
0
 40
0
 40
0
 40
0
 40
1
 40
1
 40
1
 40
1
 10
87.904076
 20
59.283831
 30
0.0
 10
88.585677
 20
58.602229
 30
0.0
 10
89.480775
 20
58.240110
 30
0.0
 10
90.461873
 20
58.240110
 30
0.0
  0
LWPOLYLINE
  5
2a7
100
AcDbEntity
  8
Ebene_1
 62
7
100
AcDbPolyline
 90
3
 70
0
 10
87.896951
 20
59.289531
 30
0.0
 10
87.899801
 20
59.286681
 30
0.0
 10
87.904076
 20
59.283831
 30
0.0
  0
SPLINE
  5
2a8
100
AcDbEntity
  8
Ebene_1
 62
7
100
AcDbSpline
 70
8
 71
3
 72
8
 73
4
 74
0
 40
0
 40
0
 40
0
 40
0
 40
1
 40
1
 40
1
 40
1
 10
101.848117
 20
57.345305
 30
0.0
 10
101.848117
 20
57.068480
 30
0.0
 10
101.773090
 20
56.895305
 30
0.0
 10
101.582315
 20
56.702371
 30
0.0
  0
SPLINE
  5
2a9
100
AcDbEntity
  8
Ebene_1
 62
7
100
AcDbSpline
 70
8
 71
3
 72
8
 73
4
 74
0
 40
0
 40
0
 40
0
 40
0
 40
1
 40
1
 40
1
 40
1
 10
101.582315
 20
56.702371
 30
0.0
 10
101.389240
 20
56.522391
 30
0.0
 10
101.215679
 20
56.450492
 30
0.0
 10
100.953305
 20
56.450492
 30
0.0
  0
LWPOLYLINE
  5
2aa
100
AcDbEntity
  8
Ebene_1
 62
7
100
AcDbPolyline
 90
3
 70
0
 10
90.461873
 20
58.240110
 30
0.0
 10
101.848117
 20
58.240110
 30
0.0
 10
101.848117
 20
57.345305
 30
0.0
  0
SPLINE
  5
2ab
100
AcDbEntity
  8
Ebene_1
 62
7
100
AcDbSpline
 70
8
 71
3
 72
8
 73
4
 74
0
 40
0
 40
0
 40
0
 40
0
 40
1
 40
1
 40
1
 40
1
 10
102.452084
 20
52.245008
 30
0.0
 10
103.407260
 20
52.245008
 30
0.0
 10
104.290060
 20
52.607989
 30
0.0
 10
104.982050
 20
53.281767
 30
0.0
  0
SPLINE
  5
2ac
100
AcDbEntity
  8
Ebene_1
 62
7
100
AcDbSpline
 70
8
 71
3
 72
8
 73
4
 74
0
 40
0
 40
0
 40
0
 40
0
 40
1
 40
1
 40
1
 40
1
 10
104.982050
 20
53.281767
 30
0.0
 10
105.680609
 20
53.961937
 30
0.0
 10
106.053601
 20
54.861694
 30
0.0
 10
106.053601
 20
55.846526
 30
0.0
  0
LWPOLYLINE
  5
2ad
100
AcDbEntity
  8
Ebene_1
 62
7
100
AcDbPolyline
 90
11
 70
0
 10
100.953305
 20
56.450492
 30
0.0
 10
86.860363
 20
56.450492
 30
0.0
 10
86.860363
 20
46.249906
 30
0.0
 10
87.464322
 20
46.249906
 30
0.0
 10
91.065839
 20
46.249906
 30
0.0
 10
91.065839
 20
52.245008
 30
0.0
 10
94.707713
 20
52.245008
 30
0.0
 10
100.702814
 20
46.249906
 30
0.0
 10
106.909446
 20
46.249906
 30
0.0
 10
100.912948
 20
52.245008
 30
0.0
 10
102.452084
 20
52.245008
 30
0.0
  0
LWPOLYLINE
  5
2ae
100
AcDbEntity
  8
Ebene_1
 62
7
100
AcDbPolyline
 90
3
 70
0
 10
106.053601
 20
55.846526
 30
0.0
 10
106.053601
 20
62.445594
 30
0.0
 10
86.860199
 20
62.445729
 30
0.0
  0
LWPOLYLINE
  5
2af
100
AcDbEntity
  8
Ebene_1
 62
7
100
AcDbPolyline
 90
9
 70
1
 10
121.686904
 20
62.445729
 30
0.0
 10
113.587667
 20
54.347882
 30
0.0
 10
121.686904
 20
46.250042
 30
0.0
 10
121.937394
 20
46.250042
 30
0.0
 10
127.892146
 20
46.250042
 30
0.0
 10
119.790124
 20
54.350668
 30
0.0
 10
120.668235
 20
55.242695
 30
0.0
 10
120.687758
 20
55.242695
 30
0.0
 10
127.892182
 20
62.445729
 30
0.0
  0
LWPOLYLINE
  5
2b0
100
AcDbEntity
  8
Ebene_1
 62
7
100
AcDbPolyline
 90
5
 70
1
 10
107.843055
 20
62.445729
 30
0.0
 10
107.843055
 20
46.250042
 30
0.0
 10
108.447022
 20
46.250042
 30
0.0
 10
112.049928
 20
46.250042
 30
0.0
 10
112.049928
 20
62.445729
 30
0.0
  0
LWPOLYLINE
  5
2b1
100
AcDbEntity
  8
Ebene_1
 62
7
100
AcDbPolyline
 90
5
 70
1
 10
128.825919
 20
62.445729
 30
0.0
 10
128.825919
 20
46.250042
 30
0.0
 10
129.431275
 20
46.250042
 30
0.0
 10
133.032792
 20
46.250042
 30
0.0
 10
133.032792
 20
62.445729
 30
0.0
  0
LWPOLYLINE
  5
2b2
100
AcDbEntity
  8
Ebene_1
 62
7
100
AcDbPolyline
 90
12
 70
1
 10
133.966572
 20
62.445729
 30
0.0
 10
137.819968
 20
58.593722
 30
0.0
 10
137.819968
 20
46.250042
 30
0.0
 10
138.423935
 20
46.250042
 30
0.0
 10
142.025445
 20
46.250042
 30
0.0
 10
142.025445
 20
54.388238
 30
0.0
 10
150.163648
 20
46.250042
 30
0.0
 10
154.015656
 20
46.250042
 30
0.0
 10
154.015656
 20
62.445729
 30
0.0
 10
149.810172
 20
62.445729
 30
0.0
 10
149.810172
 20
52.808753
 30
0.0
 10
140.173197
 20
62.445729
 30
0.0
  0
SPLINE
  5
2b3
100
AcDbEntity
  8
Ebene_1
 62
7
100
AcDbSpline
 70
8
 71
3
 72
8
 73
4
 74
0
 40
0
 40
0
 40
0
 40
0
 40
1
 40
1
 40
1
 40
1
 10
155.805281
 20
49.851559
 30
0.0
 10
155.805281
 20
48.883465
 30
0.0
 10
156.167806
 20
47.993212
 30
0.0
 10
156.843430
 20
47.299327
 30
0.0
  0
LWPOLYLINE
  5
2b4
100
AcDbEntity
  8
Ebene_1
 62
7
100
AcDbPolyline
 90
2
 70
0
 10
155.805281
 20
56.450627
 30
0.0
 10
155.805281
 20
49.851559
 30
0.0
  0
SPLINE
  5
2b5
100
AcDbEntity
  8
Ebene_1
 62
7
100
AcDbSpline
 70
8
 71
3
 72
8
 73
4
 74
0
 40
0
 40
0
 40
0
 40
0
 40
1
 40
1
 40
1
 40
1
 10
156.849130
 20
47.292202
 30
0.0
 10
157.530738
 20
46.610593
 30
0.0
 10
158.425829
 20
46.249878
 30
0.0
 10
159.406927
 20
46.249878
 30
0.0
  0
LWPOLYLINE
  5
2b6
100
AcDbEntity
  8
Ebene_1
 62
7
100
AcDbPolyline
 90
3
 70
0
 10
156.843430
 20
47.299327
 30
0.0
 10
156.846280
 20
47.295052
 30
0.0
 10
156.849130
 20
47.292202
 30
0.0
  0
SPLINE
  5
2b7
100
AcDbEntity
  8
Ebene_1
 62
7
100
AcDbSpline
 70
8
 71
3
 72
8
 73
4
 74
0
 40
0
 40
0
 40
0
 40
0
 40
1
 40
1
 40
1
 40
1
 10
161.800518
 20
55.846497
 30
0.0
 10
161.800518
 20
54.878403
 30
0.0
 10
162.163036
 20
53.988150
 30
0.0
 10
162.838667
 20
53.294265
 30
0.0
  0
LWPOLYLINE
  5
2b8
100
AcDbEntity
  8
Ebene_1
 62
7
100
AcDbPolyline
 90
5
 70
0
 10
159.406927
 20
46.249878
 30
0.0
 10
175.000044
 20
46.249878
 30
0.0
 10
175.000044
 20
56.450463
 30
0.0
 10
161.800518
 20
56.450463
 30
0.0
 10
161.800518
 20
55.846497
 30
0.0
  0
SPLINE
  5
2b9
100
AcDbEntity
  8
Ebene_1
 62
7
100
AcDbSpline
 70
8
 71
3
 72
8
 73
4
 74
0
 40
0
 40
0
 40
0
 40
0
 40
1
 40
1
 40
1
 40
1
 10
162.844367
 20
53.288565
 30
0.0
 10
163.525975
 20
52.606956
 30
0.0
 10
164.421073
 20
52.244845
 30
0.0
 10
165.402171
 20
52.244845
 30
0.0
  0
LWPOLYLINE
  5
2ba
100
AcDbEntity
  8
Ebene_1
 62
7
100
AcDbPolyline
 90
3
 70
0
 10
162.838667
 20
53.294265
 30
0.0
 10
162.841517
 20
53.291415
 30
0.0
 10
162.844367
 20
53.288565
 30
0.0
  0
SPLINE
  5
2bb
100
AcDbEntity
  8
Ebene_1
 62
7
100
AcDbSpline
 70
8
 71
3
 72
8
 73
4
 74
0
 40
0
 40
0
 40
0
 40
0
 40
1
 40
1
 40
1
 40
1
 10
160.905841
 20
50.455219
 30
0.0
 10
160.625183
 20
50.455219
 30
0.0
 10
160.448139
 20
50.532070
 30
0.0
 10
160.260129
 20
50.705716
 30
0.0
  0
SPLINE
  5
2bc
100
AcDbEntity
  8
Ebene_1
 62
7
100
AcDbSpline
 70
8
 71
3
 72
8
 73
4
 74
0
 40
0
 40
0
 40
0
 40
0
 40
1
 40
1
 40
1
 40
1
 10
160.260129
 20
50.705716
 30
0.0
 10
160.088165
 20
50.892828
 30
0.0
 10
160.011028
 20
51.070621
 30
0.0
 10
160.011028
 20
51.350032
 30
0.0
  0
LWPOLYLINE
  5
2bd
100
AcDbEntity
  8
Ebene_1
 62
7
100
AcDbPolyline
 90
4
 70
0
 10
165.402171
 20
52.244845
 30
0.0
 10
170.793307
 20
52.244845
 30
0.0
 10
170.793307
 20
50.455219
 30
0.0
 10
160.905841
 20
50.455219
 30
0.0
  0
LWPOLYLINE
  5
2be
100
AcDbEntity
  8
Ebene_1
 62
7
100
AcDbPolyline
 90
3
 70
0
 10
160.011028
 20
51.350032
 30
0.0
 10
160.011028
 20
56.450328
 30
0.0
 10
155.805281
 20
56.450627
 30
0.0
  0
SPLINE
  5
2bf
100
AcDbEntity
  8
Ebene_1
 62
7
100
AcDbSpline
 70
8
 71
3
 72
8
 73
4
 74
0
 40
0
 40
0
 40
0
 40
0
 40
1
 40
1
 40
1
 40
1
 10
171.397002
 20
58.240246
 30
0.0
 10
172.352179
 20
58.240246
 30
0.0
 10
173.234979
 20
58.604623
 30
0.0
 10
173.926968
 20
59.278401
 30
0.0
  0
SPLINE
  5
2c0
100
AcDbEntity
  8
Ebene_1
 62
7
100
AcDbSpline
 70
8
 71
3
 72
8
 73
4
 74
0
 40
0
 40
0
 40
0
 40
0
 40
1
 40
1
 40
1
 40
1
 10
173.926968
 20
59.278401
 30
0.0
 10
174.625520
 20
59.958570
 30
0.0
 10
174.999909
 20
60.856939
 30
0.0
 10
174.999909
 20
61.841763
 30
0.0
  0
LWPOLYLINE
  5
2c1
100
AcDbEntity
  8
Ebene_1
 62
7
100
AcDbPolyline
 90
4
 70
0
 10
155.805281
 20
62.445729
 30
0.0
 10
155.805281
 20
58.240246
 30
0.0
 10
156.409240
 20
58.240246
 30
0.0
 10
171.397002
 20
58.240246
 30
0.0
  0
LWPOLYLINE
  5
2c2
100
AcDbEntity
  8
Ebene_1
 62
7
100
AcDbPolyline
 90
3
 70
0
 10
174.999909
 20
61.841763
 30
0.0
 10
174.999909
 20
62.445729
 30
0.0
 10
155.805281
 20
62.445729
 30
0.0
  0
LWPOLYLINE
  5
2c3
100
AcDbEntity
  8
Ebene_1
 62
7
100
AcDbPolyline
 90
9
 70
1
 10
68.873489
 20
34.867973
 30
0.0
 10
68.873489
 20
24.665998
 30
0.0
 10
69.478845
 20
24.665998
 30
0.0
 10
88.068124
 20
24.665998
 30
0.0
 10
88.068124
 20
34.867973
 30
0.0
 10
83.862641
 20
34.867973
 30
0.0
 10
83.862641
 20
28.872871
 30
0.0
 10
73.080362
 20
28.872871
 30
0.0
 10
73.080362
 20
34.867973
 30
0.0
  0
SPLINE
  5
2c4
100
AcDbEntity
  8
Ebene_1
 62
7
100
AcDbSpline
 70
8
 71
3
 72
8
 73
4
 74
0
 40
0
 40
0
 40
0
 40
0
 40
1
 40
1
 40
1
 40
1
 10
68.873489
 20
40.259115
 30
0.0
 10
68.873489
 20
39.291021
 30
0.0
 10
69.236014
 20
38.400768
 30
0.0
 10
69.911645
 20
37.706883
 30
0.0
  0
LWPOLYLINE
  5
2c5
100
AcDbEntity
  8
Ebene_1
 62
7
100
AcDbPolyline
 90
2
 70
0
 10
68.873489
 20
40.863074
 30
0.0
 10
68.873489
 20
40.259115
 30
0.0
  0
SPLINE
  5
2c6
100
AcDbEntity
  8
Ebene_1
 62
7
100
AcDbSpline
 70
8
 71
3
 72
8
 73
4
 74
0
 40
0
 40
0
 40
0
 40
0
 40
1
 40
1
 40
1
 40
1
 10
69.917345
 20
37.699758
 30
0.0
 10
70.598946
 20
37.018157
 30
0.0
 10
71.495441
 20
36.657434
 30
0.0
 10
72.476538
 20
36.657434
 30
0.0
  0
LWPOLYLINE
  5
2c7
100
AcDbEntity
  8
Ebene_1
 62
7
100
AcDbPolyline
 90
3
 70
0
 10
69.911645
 20
37.706883
 30
0.0
 10
69.914495
 20
37.704033
 30
0.0
 10
69.917345
 20
37.699758
 30
0.0
  0
SPLINE
  5
2c8
100
AcDbEntity
  8
Ebene_1
 62
7
100
AcDbSpline
 70
8
 71
3
 72
8
 73
4
 74
0
 40
0
 40
0
 40
0
 40
0
 40
1
 40
1
 40
1
 40
1
 10
84.466742
 20
36.657434
 30
0.0
 10
85.421926
 20
36.657434
 30
0.0
 10
86.303329
 20
37.020415
 30
0.0
 10
86.995319
 20
37.694193
 30
0.0
  0
SPLINE
  5
2c9
100
AcDbEntity
  8
Ebene_1
 62
7
100
AcDbSpline
 70
8
 71
3
 72
8
 73
4
 74
0
 40
0
 40
0
 40
0
 40
0
 40
1
 40
1
 40
1
 40
1
 10
86.995319
 20
37.694193
 30
0.0
 10
87.693871
 20
38.374362
 30
0.0
 10
88.068259
 20
39.274120
 30
0.0
 10
88.068259
 20
40.258951
 30
0.0
  0
LWPOLYLINE
  5
2ca
100
AcDbEntity
  8
Ebene_1
 62
7
100
AcDbPolyline
 90
2
 70
0
 10
72.476538
 20
36.657434
 30
0.0
 10
84.466742
 20
36.657434
 30
0.0
  0
LWPOLYLINE
  5
2cb
100
AcDbEntity
  8
Ebene_1
 62
7
100
AcDbPolyline
 90
3
 70
0
 10
88.068259
 20
40.258951
 30
0.0
 10
88.068259
 20
40.862911
 30
0.0
 10
68.873489
 20
40.863074
 30
0.0
  0
LWPOLYLINE
  5
2cc
100
AcDbEntity
  8
Ebene_1
 62
7
100
AcDbPolyline
 90
12
 70
1
 10
89.003293
 20
40.863074
 30
0.0
 10
92.855301
 20
37.011067
 30
0.0
 10
92.855301
 20
24.665998
 30
0.0
 10
93.459260
 20
24.665998
 30
0.0
 10
97.060777
 20
24.665998
 30
0.0
 10
97.060777
 20
32.805591
 30
0.0
 10
105.198981
 20
24.665998
 30
0.0
 10
109.052377
 20
24.665998
 30
0.0
 10
109.052377
 20
40.863074
 30
0.0
 10
104.845504
 20
40.863074
 30
0.0
 10
104.845504
 20
31.226099
 30
0.0
 10
95.208529
 20
40.863074
 30
0.0
  0
SPLINE
  5
2cd
100
AcDbEntity
  8
Ebene_1
 62
7
100
AcDbSpline
 70
8
 71
3
 72
8
 73
4
 74
0
 40
0
 40
0
 40
0
 40
0
 40
1
 40
1
 40
1
 40
1
 10
126.433724
 20
24.665998
 30
0.0
 10
127.388908
 20
24.665998
 30
0.0
 10
128.270311
 20
25.030368
 30
0.0
 10
128.962301
 20
25.704146
 30
0.0
  0
SPLINE
  5
2ce
100
AcDbEntity
  8
Ebene_1
 62
7
100
AcDbSpline
 70
8
 71
3
 72
8
 73
4
 74
0
 40
0
 40
0
 40
0
 40
0
 40
1
 40
1
 40
1
 40
1
 10
128.962301
 20
25.704146
 30
0.0
 10
129.660860
 20
26.384323
 30
0.0
 10
130.035241
 20
27.284080
 30
0.0
 10
130.035241
 20
28.268904
 30
0.0
  0
LWPOLYLINE
  5
2cf
100
AcDbEntity
  8
Ebene_1
 62
7
100
AcDbPolyline
 90
4
 70
0
 10
110.840606
 20
40.863074
 30
0.0
 10
110.840606
 20
24.665998
 30
0.0
 10
111.444573
 20
24.665998
 30
0.0
 10
126.433724
 20
24.665998
 30
0.0
  0
LWPOLYLINE
  5
2d0
100
AcDbEntity
  8
Ebene_1
 62
7
100
AcDbPolyline
 90
5
 70
0
 10
130.035241
 20
28.268904
 30
0.0
 10
130.035241
 20
28.872871
 30
0.0
 10
115.047479
 20
28.872871
 30
0.0
 10
115.047479
 20
40.863074
 30
0.0
 10
110.840606
 20
40.863074
 30
0.0
  0
SPLINE
  5
2d1
100
AcDbEntity
  8
Ebene_1
 62
7
100
AcDbSpline
 70
8
 71
3
 72
8
 73
4
 74
0
 40
0
 40
0
 40
0
 40
0
 40
1
 40
1
 40
1
 40
1
 10
366.782140
 20
288.941680
 30
0.0
 10
335.095240
 20
288.488690
 30
0.0
 10
303.633240
 20
282.659930
 30
0.0
 10
273.442400
 20
273.193970
 30
0.0
  0
SPLINE
  5
2d2
100
AcDbEntity
  8
Ebene_1
 62
7
100
AcDbSpline
 70
8
 71
3
 72
8
 73
4
 74
0
 40
0
 40
0
 40
0
 40
0
 40
1
 40
1
 40
1
 40
1
 10
273.442400
 20
273.193970
 30
0.0
 10
272.507450
 20
272.909420
 30
0.0
 10
271.572720
 20
272.624180
 30
0.0
 10
270.637630
 20
272.340120
 30
0.0
  0
SPLINE
  5
2d3
100
AcDbEntity
  8
Ebene_1
 62
7
100
AcDbSpline
 70
8
 71
3
 72
8
 73
4
 74
0
 40
0
 40
0
 40
0
 40
0
 40
1
 40
1
 40
1
 40
1
 10
270.637630
 20
272.340120
 30
0.0
 10
270.478280
 20
256.556300
 30
0.0
 10
271.094330
 20
240.750270
 30
0.0
 10
272.916930
 20
225.066680
 30
0.0
  0
SPLINE
  5
2d4
100
AcDbEntity
  8
Ebene_1
 62
7
100
AcDbSpline
 70
8
 71
3
 72
8
 73
4
 74
0
 40
0
 40
0
 40
0
 40
0
 40
1
 40
1
 40
1
 40
1
 10
272.916930
 20
225.066680
 30
0.0
 10
272.551450
 20
224.301850
 30
0.0
 10
272.623110
 20
223.399390
 30
0.0
 10
272.393320
 20
222.586290
 30
0.0
  0
SPLINE
  5
2d5
100
AcDbEntity
  8
Ebene_1
 62
7
100
AcDbSpline
 70
8
 71
3
 72
8
 73
4
 74
0
 40
0
 40
0
 40
0
 40
0
 40
1
 40
1
 40
1
 40
1
 10
272.393320
 20
222.586290
 30
0.0
 10
271.879910
 20
219.700050
 30
0.0
 10
270.851360
 20
217.012210
 30
0.0
 10
270.135650
 20
214.175590
 30
0.0
  0
SPLINE
  5
2d6
100
AcDbEntity
  8
Ebene_1
 62
7
100
AcDbSpline
 70
8
 71
3
 72
8
 73
4
 74
0
 40
0
 40
0
 40
0
 40
0
 40
1
 40
1
 40
1
 40
1
 10
270.135650
 20
214.175590
 30
0.0
 10
269.637390
 20
211.226780
 30
0.0
 10
270.062050
 20
208.227910
 30
0.0
 10
269.919080
 20
205.257310
 30
0.0
  0
SPLINE
  5
2d7
100
AcDbEntity
  8
Ebene_1
 62
7
100
AcDbSpline
 70
8
 71
3
 72
8
 73
4
 74
0
 40
0
 40
0
 40
0
 40
0
 40
1
 40
1
 40
1
 40
1
 10
269.919080
 20
205.257310
 30
0.0
 10
269.949280
 20
152.239900
 30
0.0
 10
269.897880
 20
99.221770
 30
0.0
 10
270.001380
 20
46.204830
 30
0.0
  0
SPLINE
  5
2d8
100
AcDbEntity
  8
Ebene_1
 62
7
100
AcDbSpline
 70
8
 71
3
 72
8
 73
4
 74
0
 40
0
 40
0
 40
0
 40
0
 40
1
 40
1
 40
1
 40
1
 10
270.001380
 20
46.204830
 30
0.0
 10
270.541090
 20
31.895810
 30
0.0
 10
279.766100
 20
18.286990
 30
0.0
 10
292.899270
 20
12.553210
 30
0.0
  0
SPLINE
  5
2d9
100
AcDbEntity
  8
Ebene_1
 62
7
100
AcDbSpline
 70
8
 71
3
 72
8
 73
4
 74
0
 40
0
 40
0
 40
0
 40
0
 40
1
 40
1
 40
1
 40
1
 10
292.899270
 20
12.553210
 30
0.0
 10
299.050290
 20
9.771010
 30
0.0
 10
305.899280
 20
8.797050
 30
0.0
 10
312.609930
 20
9.129160
 30
0.0
  0
SPLINE
  5
2da
100
AcDbEntity
  8
Ebene_1
 62
7
100
AcDbSpline
 70
8
 71
3
 72
8
 73
4
 74
0
 40
0
 40
0
 40
0
 40
0
 40
1
 40
1
 40
1
 40
1
 10
312.609930
 20
9.129160
 30
0.0
 10
352.847010
 20
9.133160
 30
0.0
 10
393.084950
 20
9.093860
 30
0.0
 10
433.321420
 20
9.202060
 30
0.0
  0
SPLINE
  5
2db
100
AcDbEntity
  8
Ebene_1
 62
7
100
AcDbSpline
 70
8
 71
3
 72
8
 73
4
 74
0
 40
0
 40
0
 40
0
 40
0
 40
1
 40
1
 40
1
 40
1
 10
433.321420
 20
9.202060
 30
0.0
 10
447.532850
 20
9.899740
 30
0.0
 10
460.957750
 20
19.176530
 30
0.0
 10
466.570130
 20
32.262220
 30
0.0
  0
SPLINE
  5
2dc
100
AcDbEntity
  8
Ebene_1
 62
7
100
AcDbSpline
 70
8
 71
3
 72
8
 73
4
 74
0
 40
0
 40
0
 40
0
 40
0
 40
1
 40
1
 40
1
 40
1
 10
466.570130
 20
32.262220
 30
0.0
 10
469.329700
 20
38.414460
 30
0.0
 10
470.273390
 20
45.255860
 30
0.0
 10
469.948200
 20
51.956900
 30
0.0
  0
LWPOLYLINE
  5
2dd
100
AcDbEntity
  8
Ebene_1
 62
7
100
AcDbPolyline
 90
14
 70
1
 10
131.823470
 20
40.863074
 30
0.0
 10
131.823470
 20
37.011067
 30
0.0
 10
139.318747
 20
29.517186
 30
0.0
 10
139.318747
 20
24.665998
 30
0.0
 10
139.922707
 20
24.665998
 30
0.0
 10
143.524224
 20
24.665998
 30
0.0
 10
143.524224
 20
29.517186
 30
0.0
 10
151.018105
 20
37.011067
 30
0.0
 10
151.018105
 20
40.863074
 30
0.0
 10
146.812621
 20
40.863074
 30
0.0
 10
146.812621
 20
39.010826
 30
0.0
 10
141.421486
 20
33.619691
 30
0.0
 10
136.030343
 20
39.010826
 30
0.0
 10
136.030343
 20
40.863074
 30
0.0
  0
SPLINE
  5
2de
100
AcDbEntity
  8
Ebene_1
 62
7
100
AcDbSpline
 70
8
 71
3
 72
8
 73
4
 74
0
 40
0
 40
0
 40
0
 40
0
 40
1
 40
1
 40
1
 40
1
 10
469.952200
 20
223.168240
 30
0.0
 10
468.954290
 20
225.938700
 30
0.0
 10
467.954680
 20
228.708550
 30
0.0
 10
466.956110
 20
231.478780
 30
0.0
  0
SPLINE
  5
2df
100
AcDbEntity
  8
Ebene_1
 62
7
100
AcDbSpline
 70
8
 71
3
 72
8
 73
4
 74
0
 40
0
 40
0
 40
0
 40
0
 40
1
 40
1
 40
1
 40
1
 10
466.956110
 20
231.478780
 30
0.0
 10
468.251090
 20
245.017960
 30
0.0
 10
468.645390
 20
258.628140
 30
0.0
 10
468.549860
 20
272.224880
 30
0.0
  0
SPLINE
  5
2e0
100
AcDbEntity
  8
Ebene_1
 62
7
100
AcDbSpline
 70
8
 71
3
 72
8
 73
4
 74
0
 40
0
 40
0
 40
0
 40
0
 40
1
 40
1
 40
1
 40
1
 10
468.549860
 20
272.224880
 30
0.0
 10
439.233920
 20
282.131850
 30
0.0
 10
408.506600
 20
288.236410
 30
0.0
 10
377.519830
 20
288.868290
 30
0.0
  0
SPLINE
  5
2e1
100
AcDbEntity
  8
Ebene_1
 62
7
100
AcDbSpline
 70
8
 71
3
 72
8
 73
4
 74
0
 40
0
 40
0
 40
0
 40
0
 40
1
 40
1
 40
1
 40
1
 10
377.519830
 20
288.868290
 30
0.0
 10
373.941480
 20
288.957690
 30
0.0
 10
370.361420
 20
288.960890
 30
0.0
 10
366.782190
 20
288.941690
 30
0.0
  0
LWPOLYLINE
  5
2e2
100
AcDbEntity
  8
Ebene_1
 62
7
100
AcDbPolyline
 90
2
 70
0
 10
469.948200
 20
51.956900
 30
0.0
 10
469.952200
 20
223.168240
 30
0.0
  0
SPLINE
  5
2e3
100
AcDbEntity
  8
Ebene_1
 62
7
100
AcDbSpline
 70
8
 71
3
 72
8
 73
4
 74
0
 40
0
 40
0
 40
0
 40
0
 40
1
 40
1
 40
1
 40
1
 10
296.576821
 20
34.416640
 30
0.0
 10
296.576821
 20
33.753599
 30
0.0
 10
296.313429
 20
33.117714
 30
0.0
 10
295.844588
 20
32.648873
 30
0.0
  0
SPLINE
  5
2e4
100
AcDbEntity
  8
Ebene_1
 62
7
100
AcDbSpline
 70
8
 71
3
 72
8
 73
4
 74
0
 40
0
 40
0
 40
0
 40
0
 40
1
 40
1
 40
1
 40
1
 10
295.844588
 20
32.648873
 30
0.0
 10
295.375747
 20
32.180032
 30
0.0
 10
294.739862
 20
31.916640
 30
0.0
 10
294.076821
 20
31.916640
 30
0.0
  0
SPLINE
  5
2e5
100
AcDbEntity
  8
Ebene_1
 62
7
100
AcDbSpline
 70
8
 71
3
 72
8
 73
4
 74
0
 40
0
 40
0
 40
0
 40
0
 40
1
 40
1
 40
1
 40
1
 10
294.076821
 20
31.916640
 30
0.0
 10
293.413780
 20
31.916640
 30
0.0
 10
292.777895
 20
32.180032
 30
0.0
 10
292.309054
 20
32.648873
 30
0.0
  0
SPLINE
  5
2e6
100
AcDbEntity
  8
Ebene_1
 62
7
100
AcDbSpline
 70
8
 71
3
 72
8
 73
4
 74
0
 40
0
 40
0
 40
0
 40
0
 40
1
 40
1
 40
1
 40
1
 10
292.309054
 20
32.648873
 30
0.0
 10
291.840213
 20
33.117714
 30
0.0
 10
291.576821
 20
33.753599
 30
0.0
 10
291.576821
 20
34.416640
 30
0.0
  0
SPLINE
  5
2e7
100
AcDbEntity
  8
Ebene_1
 62
7
100
AcDbSpline
 70
8
 71
3
 72
8
 73
4
 74
0
 40
0
 40
0
 40
0
 40
0
 40
1
 40
1
 40
1
 40
1
 10
291.576821
 20
34.416640
 30
0.0
 10
291.576821
 20
35.079681
 30
0.0
 10
291.840213
 20
35.715566
 30
0.0
 10
292.309054
 20
36.184407
 30
0.0
  0
SPLINE
  5
2e8
100
AcDbEntity
  8
Ebene_1
 62
7
100
AcDbSpline
 70
8
 71
3
 72
8
 73
4
 74
0
 40
0
 40
0
 40
0
 40
0
 40
1
 40
1
 40
1
 40
1
 10
292.309054
 20
36.184407
 30
0.0
 10
292.777895
 20
36.653248
 30
0.0
 10
293.413780
 20
36.916640
 30
0.0
 10
294.076821
 20
36.916640
 30
0.0
  0
SPLINE
  5
2e9
100
AcDbEntity
  8
Ebene_1
 62
7
100
AcDbSpline
 70
8
 71
3
 72
8
 73
4
 74
0
 40
0
 40
0
 40
0
 40
0
 40
1
 40
1
 40
1
 40
1
 10
294.076821
 20
36.916640
 30
0.0
 10
294.739862
 20
36.916640
 30
0.0
 10
295.375747
 20
36.653248
 30
0.0
 10
295.844588
 20
36.184407
 30
0.0
  0
SPLINE
  5
2ea
100
AcDbEntity
  8
Ebene_1
 62
7
100
AcDbSpline
 70
8
 71
3
 72
8
 73
4
 74
0
 40
0
 40
0
 40
0
 40
0
 40
1
 40
1
 40
1
 40
1
 10
295.844588
 20
36.184407
 30
0.0
 10
296.313429
 20
35.715566
 30
0.0
 10
296.576821
 20
35.079681
 30
0.0
 10
296.576821
 20
34.416640
 30
0.0
  0
LWPOLYLINE
  5
2eb
100
AcDbEntity
  8
Ebene_1
 62
7
100
AcDbPolyline
 90
1
 70
1
 10
366.782190
 20
288.941690
 30
0.0
  0
SPLINE
  5
2ec
100
AcDbEntity
  8
Ebene_1
 62
7
100
AcDbSpline
 70
8
 71
3
 72
8
 73
4
 74
0
 40
0
 40
0
 40
0
 40
0
 40
1
 40
1
 40
1
 40
1
 10
448.315490
 20
34.708300
 30
0.0
 10
448.315490
 20
34.045259
 30
0.0
 10
448.052098
 20
33.409374
 30
0.0
 10
447.583257
 20
32.940533
 30
0.0
  0
SPLINE
  5
2ed
100
AcDbEntity
  8
Ebene_1
 62
7
100
AcDbSpline
 70
8
 71
3
 72
8
 73
4
 74
0
 40
0
 40
0
 40
0
 40
0
 40
1
 40
1
 40
1
 40
1
 10
447.583257
 20
32.940533
 30
0.0
 10
447.114416
 20
32.471692
 30
0.0
 10
446.478531
 20
32.208300
 30
0.0
 10
445.815490
 20
32.208300
 30
0.0
  0
SPLINE
  5
2ee
100
AcDbEntity
  8
Ebene_1
 62
7
100
AcDbSpline
 70
8
 71
3
 72
8
 73
4
 74
0
 40
0
 40
0
 40
0
 40
0
 40
1
 40
1
 40
1
 40
1
 10
445.815490
 20
32.208300
 30
0.0
 10
445.152449
 20
32.208300
 30
0.0
 10
444.516564
 20
32.471692
 30
0.0
 10
444.047723
 20
32.940533
 30
0.0
  0
SPLINE
  5
2ef
100
AcDbEntity
  8
Ebene_1
 62
7
100
AcDbSpline
 70
8
 71
3
 72
8
 73
4
 74
0
 40
0
 40
0
 40
0
 40
0
 40
1
 40
1
 40
1
 40
1
 10
444.047723
 20
32.940533
 30
0.0
 10
443.578882
 20
33.409374
 30
0.0
 10
443.315490
 20
34.045259
 30
0.0
 10
443.315490
 20
34.708300
 30
0.0
  0
SPLINE
  5
2f0
100
AcDbEntity
  8
Ebene_1
 62
7
100
AcDbSpline
 70
8
 71
3
 72
8
 73
4
 74
0
 40
0
 40
0
 40
0
 40
0
 40
1
 40
1
 40
1
 40
1
 10
443.315490
 20
34.708300
 30
0.0
 10
443.315490
 20
35.371341
 30
0.0
 10
443.578882
 20
36.007226
 30
0.0
 10
444.047723
 20
36.476067
 30
0.0
  0
SPLINE
  5
2f1
100
AcDbEntity
  8
Ebene_1
 62
7
100
AcDbSpline
 70
8
 71
3
 72
8
 73
4
 74
0
 40
0
 40
0
 40
0
 40
0
 40
1
 40
1
 40
1
 40
1
 10
444.047723
 20
36.476067
 30
0.0
 10
444.516564
 20
36.944908
 30
0.0
 10
445.152449
 20
37.208300
 30
0.0
 10
445.815490
 20
37.208300
 30
0.0
  0
SPLINE
  5
2f2
100
AcDbEntity
  8
Ebene_1
 62
7
100
AcDbSpline
 70
8
 71
3
 72
8
 73
4
 74
0
 40
0
 40
0
 40
0
 40
0
 40
1
 40
1
 40
1
 40
1
 10
445.815490
 20
37.208300
 30
0.0
 10
446.478531
 20
37.208300
 30
0.0
 10
447.114416
 20
36.944908
 30
0.0
 10
447.583257
 20
36.476067
 30
0.0
  0
SPLINE
  5
2f3
100
AcDbEntity
  8
Ebene_1
 62
7
100
AcDbSpline
 70
8
 71
3
 72
8
 73
4
 74
0
 40
0
 40
0
 40
0
 40
0
 40
1
 40
1
 40
1
 40
1
 10
447.583257
 20
36.476067
 30
0.0
 10
448.052098
 20
36.007226
 30
0.0
 10
448.315490
 20
35.371341
 30
0.0
 10
448.315490
 20
34.708300
 30
0.0
  0
LWPOLYLINE
  5
2f4
100
AcDbEntity
  8
Ebene_1
 62
7
100
AcDbPolyline
 90
1
 70
1
 10
296.576821
 20
34.416640
 30
0.0
  0
SPLINE
  5
2f5
100
AcDbEntity
  8
Ebene_1
 62
7
100
AcDbSpline
 70
8
 71
3
 72
8
 73
4
 74
0
 40
0
 40
0
 40
0
 40
0
 40
1
 40
1
 40
1
 40
1
 10
293.667163
 20
227.062683
 30
0.0
 10
293.667163
 20
226.399642
 30
0.0
 10
293.403771
 20
225.763757
 30
0.0
 10
292.934930
 20
225.294916
 30
0.0
  0
SPLINE
  5
2f6
100
AcDbEntity
  8
Ebene_1
 62
7
100
AcDbSpline
 70
8
 71
3
 72
8
 73
4
 74
0
 40
0
 40
0
 40
0
 40
0
 40
1
 40
1
 40
1
 40
1
 10
292.934930
 20
225.294916
 30
0.0
 10
292.466089
 20
224.826075
 30
0.0
 10
291.830204
 20
224.562683
 30
0.0
 10
291.167163
 20
224.562683
 30
0.0
  0
SPLINE
  5
2f7
100
AcDbEntity
  8
Ebene_1
 62
7
100
AcDbSpline
 70
8
 71
3
 72
8
 73
4
 74
0
 40
0
 40
0
 40
0
 40
0
 40
1
 40
1
 40
1
 40
1
 10
291.167163
 20
224.562683
 30
0.0
 10
290.504122
 20
224.562683
 30
0.0
 10
289.868237
 20
224.826075
 30
0.0
 10
289.399396
 20
225.294916
 30
0.0
  0
SPLINE
  5
2f8
100
AcDbEntity
  8
Ebene_1
 62
7
100
AcDbSpline
 70
8
 71
3
 72
8
 73
4
 74
0
 40
0
 40
0
 40
0
 40
0
 40
1
 40
1
 40
1
 40
1
 10
289.399396
 20
225.294916
 30
0.0
 10
288.930555
 20
225.763757
 30
0.0
 10
288.667163
 20
226.399642
 30
0.0
 10
288.667163
 20
227.062683
 30
0.0
  0
SPLINE
  5
2f9
100
AcDbEntity
  8
Ebene_1
 62
7
100
AcDbSpline
 70
8
 71
3
 72
8
 73
4
 74
0
 40
0
 40
0
 40
0
 40
0
 40
1
 40
1
 40
1
 40
1
 10
288.667163
 20
227.062683
 30
0.0
 10
288.667163
 20
227.725724
 30
0.0
 10
288.930555
 20
228.361609
 30
0.0
 10
289.399396
 20
228.830450
 30
0.0
  0
SPLINE
  5
2fa
100
AcDbEntity
  8
Ebene_1
 62
7
100
AcDbSpline
 70
8
 71
3
 72
8
 73
4
 74
0
 40
0
 40
0
 40
0
 40
0
 40
1
 40
1
 40
1
 40
1
 10
289.399396
 20
228.830450
 30
0.0
 10
289.868237
 20
229.299291
 30
0.0
 10
290.504122
 20
229.562683
 30
0.0
 10
291.167163
 20
229.562683
 30
0.0
  0
SPLINE
  5
2fb
100
AcDbEntity
  8
Ebene_1
 62
7
100
AcDbSpline
 70
8
 71
3
 72
8
 73
4
 74
0
 40
0
 40
0
 40
0
 40
0
 40
1
 40
1
 40
1
 40
1
 10
291.167163
 20
229.562683
 30
0.0
 10
291.830204
 20
229.562683
 30
0.0
 10
292.466089
 20
229.299291
 30
0.0
 10
292.934930
 20
228.830450
 30
0.0
  0
SPLINE
  5
2fc
100
AcDbEntity
  8
Ebene_1
 62
7
100
AcDbSpline
 70
8
 71
3
 72
8
 73
4
 74
0
 40
0
 40
0
 40
0
 40
0
 40
1
 40
1
 40
1
 40
1
 10
292.934930
 20
228.830450
 30
0.0
 10
293.403771
 20
228.361609
 30
0.0
 10
293.667163
 20
227.725724
 30
0.0
 10
293.667163
 20
227.062683
 30
0.0
  0
LWPOLYLINE
  5
2fd
100
AcDbEntity
  8
Ebene_1
 62
7
100
AcDbPolyline
 90
1
 70
1
 10
448.315490
 20
34.708300
 30
0.0
  0
SPLINE
  5
2fe
100
AcDbEntity
  8
Ebene_1
 62
7
100
AcDbSpline
 70
8
 71
3
 72
8
 73
4
 74
0
 40
0
 40
0
 40
0
 40
0
 40
1
 40
1
 40
1
 40
1
 10
451.226690
 20
227.354343
 30
0.0
 10
451.226690
 20
226.691302
 30
0.0
 10
450.963298
 20
226.055417
 30
0.0
 10
450.494457
 20
225.586576
 30
0.0
  0
SPLINE
  5
2ff
100
AcDbEntity
  8
Ebene_1
 62
7
100
AcDbSpline
 70
8
 71
3
 72
8
 73
4
 74
0
 40
0
 40
0
 40
0
 40
0
 40
1
 40
1
 40
1
 40
1
 10
450.494457
 20
225.586576
 30
0.0
 10
450.025616
 20
225.117735
 30
0.0
 10
449.389731
 20
224.854343
 30
0.0
 10
448.726690
 20
224.854343
 30
0.0
  0
SPLINE
  5
300
100
AcDbEntity
  8
Ebene_1
 62
7
100
AcDbSpline
 70
8
 71
3
 72
8
 73
4
 74
0
 40
0
 40
0
 40
0
 40
0
 40
1
 40
1
 40
1
 40
1
 10
448.726690
 20
224.854343
 30
0.0
 10
448.063649
 20
224.854343
 30
0.0
 10
447.427764
 20
225.117735
 30
0.0
 10
446.958923
 20
225.586576
 30
0.0
  0
SPLINE
  5
301
100
AcDbEntity
  8
Ebene_1
 62
7
100
AcDbSpline
 70
8
 71
3
 72
8
 73
4
 74
0
 40
0
 40
0
 40
0
 40
0
 40
1
 40
1
 40
1
 40
1
 10
446.958923
 20
225.586576
 30
0.0
 10
446.490082
 20
226.055417
 30
0.0
 10
446.226690
 20
226.691302
 30
0.0
 10
446.226690
 20
227.354343
 30
0.0
  0
SPLINE
  5
302
100
AcDbEntity
  8
Ebene_1
 62
7
100
AcDbSpline
 70
8
 71
3
 72
8
 73
4
 74
0
 40
0
 40
0
 40
0
 40
0
 40
1
 40
1
 40
1
 40
1
 10
446.226690
 20
227.354343
 30
0.0
 10
446.226690
 20
228.017384
 30
0.0
 10
446.490082
 20
228.653269
 30
0.0
 10
446.958923
 20
229.122110
 30
0.0
  0
SPLINE
  5
303
100
AcDbEntity
  8
Ebene_1
 62
7
100
AcDbSpline
 70
8
 71
3
 72
8
 73
4
 74
0
 40
0
 40
0
 40
0
 40
0
 40
1
 40
1
 40
1
 40
1
 10
446.958923
 20
229.122110
 30
0.0
 10
447.427764
 20
229.590951
 30
0.0
 10
448.063649
 20
229.854343
 30
0.0
 10
448.726690
 20
229.854343
 30
0.0
  0
SPLINE
  5
304
100
AcDbEntity
  8
Ebene_1
 62
7
100
AcDbSpline
 70
8
 71
3
 72
8
 73
4
 74
0
 40
0
 40
0
 40
0
 40
0
 40
1
 40
1
 40
1
 40
1
 10
448.726690
 20
229.854343
 30
0.0
 10
449.389731
 20
229.854343
 30
0.0
 10
450.025616
 20
229.590951
 30
0.0
 10
450.494457
 20
229.122110
 30
0.0
  0
SPLINE
  5
305
100
AcDbEntity
  8
Ebene_1
 62
7
100
AcDbSpline
 70
8
 71
3
 72
8
 73
4
 74
0
 40
0
 40
0
 40
0
 40
0
 40
1
 40
1
 40
1
 40
1
 10
450.494457
 20
229.122110
 30
0.0
 10
450.963298
 20
228.653269
 30
0.0
 10
451.226690
 20
228.017384
 30
0.0
 10
451.226690
 20
227.354343
 30
0.0
  0
LWPOLYLINE
  5
306
100
AcDbEntity
  8
Ebene_1
 62
7
100
AcDbPolyline
 90
1
 70
1
 10
293.667163
 20
227.062683
 30
0.0
  0
LWPOLYLINE
  5
307
100
AcDbEntity
  8
Ebene_1
 62
7
100
AcDbPolyline
 90
1
 70
1
 10
451.226690
 20
227.354343
 30
0.0
  0
ENDSEC
  0
SECTION
  2
OBJECTS
  0
DICTIONARY
  5
C
330
0
100
AcDbDictionary
  3
ACAD_GROUP
350
D
  3
ACAD_MLINESTYLE
350
17
  0
DICTIONARY
  5
D
330
C
100
AcDbDictionary
  0
DICTIONARY
  5
1A
330
C
100
AcDbDictionary
  0
DICTIONARY
  5
17
330
C
100
AcDbDictionary
  3
STANDARD
350
18
  0
DICTIONARY
  5
19
330
C
100
AcDbDictionary
  0
ENDSEC
  0
EOF
