  0
SECTION
  2
HEADER
  9
$ACADVER
  1
AC1014
  9
$HANDSEED
  5
FFFF
  9
$MEASUREMENT
 70
     1
  0
ENDSEC
  0
SECTION
  2
TABLES
  0
TABLE
  2
VPORT
  5
8
330
0
100
AcDbSymbolTable
 70
     4
  0
VPORT
  5
2E
330
8
100
AcDbSymbolTableRecord
100
AcDbViewportTableRecord
  2
*ACTIVE
 70
     0
 10
0.0
 20
0.0
 11
1.0
 21
1.0
 12
210.0
 22
148.5
 13
0.0
 23
0.0
 14
10.0
 24
10.0
 15
10.0
 25
10.0
 16
0.0
 26
0.0
 36
1.0
 17
0.0
 27
0.0
 37
0.0
 40
341.0
 41
1.24
 42
50.0
 43
0.0
 44
0.0
 50
0.0
 51
0.0
 71
     0
 72
   100
 73
     1
 74
     3
 75
     0
 76
     0
 77
     0
 78
     0
  0
ENDTAB
  0
TABLE
  2
LTYPE
  5
5
330
0
100
AcDbSymbolTable
 70
     1
  0
LTYPE
  5
14
330
5
100
AcDbSymbolTableRecord
100
AcDbLinetypeTableRecord
  2
BYBLOCK
 70
     0
  3

 72
    65
 73
     0
 40
0.0
  0
LTYPE
  5
15
330
5
100
AcDbSymbolTableRecord
100
AcDbLinetypeTableRecord
  2
BYLAYER
 70
     0
  3

 72
    65
 73
     0
 40
0.0
  0
LTYPE
  5
16
330
5
100
AcDbSymbolTableRecord
100
AcDbLinetypeTableRecord
  2
CONTINUOUS
 70
     0
  3
Solid line
 72
    65
 73
     0
 40
0.0
  0
ENDTAB
  0
TABLE
  2
LAYER
  5
2
100
AcDbSymbolTable
 70
2
  0
LAYER
  5
50
100
AcDbSymbolTableRecord
100
AcDbLayerTableRecord
  2
0
 70
0
  6
CONTINUOUS
  0
LAYER
  5
51
100
AcDbSymbolTableRecord
100
AcDbLayerTableRecord
  2
Ebene_1
 70
0
  6
CONTINUOUS
  0
ENDTAB
  0
TABLE
  2
STYLE
  5
3
330
0
100
AcDbSymbolTable
 70
     1
  0
STYLE
  5
11
330
3
100
AcDbSymbolTableRecord
100
AcDbTextStyleTableRecord
  2
STANDARD
 70
     0
 40
0.0
 41
1.0
 50
0.0
 71
     0
 42
2.5
  3
txt
  4

  0
ENDTAB
  0
TABLE
  2
VIEW
  5
6
330
0
100
AcDbSymbolTable
 70
     0
  0
ENDTAB
  0
TABLE
  2
UCS
  5
7
330
0
100
AcDbSymbolTable
 70
     0
  0
ENDTAB
  0
TABLE
  2
APPID
  5
9
330
0
100
AcDbSymbolTable
 70
     2
  0
APPID
  5
12
330
9
100
AcDbSymbolTableRecord
100
AcDbRegAppTableRecord
  2
ACAD
 70
     0
  0
ENDTAB
  0
TABLE
  2
DIMSTYLE
  5
A
330
0
100
AcDbSymbolTable
 70
     1
  0
DIMSTYLE
105
27
330
A
100
AcDbSymbolTableRecord
100
AcDbDimStyleTableRecord
  2
ISO-25
 70
     0
  3

  4

  5

  6

  7

 40
1.0
 41
2.5
 42
0.625
 43
3.75
 44
1.25
 45
0.0
 46
0.0
 47
0.0
 48
0.0
140
2.5
141
2.5
142
0.0
143
0.03937007874016
144
1.0
145
0.0
146
1.0
147
0.625
 71
     0
 72
     0
 73
     0
 74
     0
 75
     0
 76
     0
 77
     1
 78
     8
170
     0
171
     3
172
     1
173
     0
174
     0
175
     0
176
     0
177
     0
178
     0
270
     2
271
     2
272
     2
273
     2
274
     3
340
11
275
     0
280
     0
281
     0
282
     0
283
     0
284
     8
285
     0
286
     0
287
     3
288
     0
  0
ENDTAB
  0
TABLE
  2
BLOCK_RECORD
  5
1
330
0
100
AcDbSymbolTable
 70
     1
  0
BLOCK_RECORD
  5
1F
330
1
100
AcDbSymbolTableRecord
100
AcDbBlockTableRecord
  2
*MODEL_SPACE
  0
BLOCK_RECORD
  5
1B
330
1
100
AcDbSymbolTableRecord
100
AcDbBlockTableRecord
  2
*PAPER_SPACE
  0
ENDTAB
  0
ENDSEC
  0
SECTION
  2
BLOCKS
  0
BLOCK
  5
20
330
1F
100
AcDbEntity
  8
0
100
AcDbBlockBegin
  2
*MODEL_SPACE
 70
     0
 10
0.0
 20
0.0
 30
0.0
  3
*MODEL_SPACE
  1

  0
ENDBLK
  5
21
330
1F
100
AcDbEntity
  8
0
100
AcDbBlockEnd
  0
BLOCK
  5
1C
330
1B
100
AcDbEntity
 67
     1
  8
0
100
AcDbBlockBegin
  2
*PAPER_SPACE
  1

  0
ENDBLK
  5
1D
330
1B
100
AcDbEntity
 67
     1
  8
0
100
AcDbBlockEnd
  0
ENDSEC
  0
SECTION
  2
ENTITIES
  0
SPLINE
  5
100
100
AcDbEntity
  8
Ebene_1
 62
7
100
AcDbSpline
 70
8
 71
3
 72
8
 73
4
 74
0
 40
0
 40
0
 40
0
 40
0
 40
1
 40
1
 40
1
 40
1
 10
109.815430
 20
93.376910
 30
0.0
 10
109.610500
 20
94.458210
 30
0.0
 10
91.976671
 20
192.954470
 30
0.0
 10
91.976671
 20
193.017800
 30
0.0
  0
SPLINE
  5
101
100
AcDbEntity
  8
Ebene_1
 62
7
100
AcDbSpline
 70
8
 71
3
 72
8
 73
4
 74
0
 40
0
 40
0
 40
0
 40
0
 40
1
 40
1
 40
1
 40
1
 10
91.976671
 20
193.017800
 30
0.0
 10
91.976671
 20
193.107800
 30
0.0
 10
86.768415
 20
192.976100
 30
0.0
 10
84.150497
 20
192.819840
 30
0.0
  0
SPLINE
  5
102
100
AcDbEntity
  8
Ebene_1
 62
7
100
AcDbSpline
 70
8
 71
3
 72
8
 73
4
 74
0
 40
0
 40
0
 40
0
 40
0
 40
1
 40
1
 40
1
 40
1
 10
84.150497
 20
192.819840
 30
0.0
 10
76.359647
 20
192.355010
 30
0.0
 10
72.352610
 20
190.990070
 30
0.0
 10
70.415895
 20
188.141290
 30
0.0
  0
SPLINE
  5
103
100
AcDbEntity
  8
Ebene_1
 62
7
100
AcDbSpline
 70
8
 71
3
 72
8
 73
4
 74
0
 40
0
 40
0
 40
0
 40
0
 40
1
 40
1
 40
1
 40
1
 10
70.415895
 20
188.141290
 30
0.0
 10
69.701867
 20
187.090970
 30
0.0
 10
69.403744
 20
186.342070
 30
0.0
 10
69.092086
 20
184.815900
 30
0.0
  0
SPLINE
  5
104
100
AcDbEntity
  8
Ebene_1
 62
7
100
AcDbSpline
 70
8
 71
3
 72
8
 73
4
 74
0
 40
0
 40
0
 40
0
 40
0
 40
1
 40
1
 40
1
 40
1
 10
69.092086
 20
184.815900
 30
0.0
 10
68.965580
 20
184.195820
 30
0.0
 10
68.838821
 20
183.665360
 30
0.0
 10
68.810586
 20
183.637130
 30
0.0
  0
SPLINE
  5
105
100
AcDbEntity
  8
Ebene_1
 62
7
100
AcDbSpline
 70
8
 71
3
 72
8
 73
4
 74
0
 40
0
 40
0
 40
0
 40
0
 40
1
 40
1
 40
1
 40
1
 10
68.810586
 20
183.637130
 30
0.0
 10
68.715846
 20
183.542430
 30
0.0
 10
65.478043
 20
185.081360
 30
0.0
 10
63.855858
 20
185.992550
 30
0.0
  0
SPLINE
  5
106
100
AcDbEntity
  8
Ebene_1
 62
7
100
AcDbSpline
 70
8
 71
3
 72
8
 73
4
 74
0
 40
0
 40
0
 40
0
 40
0
 40
1
 40
1
 40
1
 40
1
 10
63.855858
 20
185.992550
 30
0.0
 10
59.003863
 20
188.717850
 30
0.0
 10
55.194638
 20
191.873300
 30
0.0
 10
52.603343
 20
195.313900
 30
0.0
  0
SPLINE
  5
107
100
AcDbEntity
  8
Ebene_1
 62
7
100
AcDbSpline
 70
8
 71
3
 72
8
 73
4
 74
0
 40
0
 40
0
 40
0
 40
0
 40
1
 40
1
 40
1
 40
1
 10
52.603343
 20
195.313900
 30
0.0
 10
52.222605
 20
195.819370
 30
0.0
 10
51.911133
 20
196.274280
 30
0.0
 10
51.911133
 20
196.324870
 30
0.0
  0
SPLINE
  5
108
100
AcDbEntity
  8
Ebene_1
 62
7
100
AcDbSpline
 70
8
 71
3
 72
8
 73
4
 74
0
 40
0
 40
0
 40
0
 40
0
 40
1
 40
1
 40
1
 40
1
 10
51.911133
 20
196.324870
 30
0.0
 10
51.911133
 20
196.375670
 30
0.0
 10
52.108259
 20
196.498430
 30
0.0
 10
52.349170
 20
196.598170
 30
0.0
  0
SPLINE
  5
109
100
AcDbEntity
  8
Ebene_1
 62
7
100
AcDbSpline
 70
8
 71
3
 72
8
 73
4
 74
0
 40
0
 40
0
 40
0
 40
0
 40
1
 40
1
 40
1
 40
1
 10
52.349170
 20
196.598170
 30
0.0
 10
52.590099
 20
196.698070
 30
0.0
 10
53.628229
 20
197.145590
 30
0.0
 10
54.656162
 20
197.592990
 30
0.0
  0
SPLINE
  5
10a
100
AcDbEntity
  8
Ebene_1
 62
7
100
AcDbSpline
 70
8
 71
3
 72
8
 73
4
 74
0
 40
0
 40
0
 40
0
 40
0
 40
1
 40
1
 40
1
 40
1
 10
54.656162
 20
197.592990
 30
0.0
 10
66.433538
 20
202.719108
 30
0.0
 10
81.742333
 20
206.302200
 30
0.0
 10
95.480958
 20
207.148164
 30
0.0
  0
SPLINE
  5
10b
100
AcDbEntity
  8
Ebene_1
 62
7
100
AcDbSpline
 70
8
 71
3
 72
8
 73
4
 74
0
 40
0
 40
0
 40
0
 40
0
 40
1
 40
1
 40
1
 40
1
 10
103.290720
 20
199.197830
 30
0.0
 10
106.911510
 20
194.783660
 30
0.0
 10
109.914020
 20
191.216290
 30
0.0
 10
109.962970
 20
191.270310
 30
0.0
  0
SPLINE
  5
10c
100
AcDbEntity
  8
Ebene_1
 62
7
100
AcDbSpline
 70
8
 71
3
 72
8
 73
4
 74
0
 40
0
 40
0
 40
0
 40
0
 40
1
 40
1
 40
1
 40
1
 10
109.962970
 20
191.270310
 30
0.0
 10
110.011770
 20
191.324210
 30
0.0
 10
112.950650
 20
194.902650
 30
0.0
 10
116.493430
 20
199.222040
 30
0.0
  0
SPLINE
  5
10d
100
AcDbEntity
  8
Ebene_1
 62
7
100
AcDbSpline
 70
8
 71
3
 72
8
 73
4
 74
0
 40
0
 40
0
 40
0
 40
0
 40
1
 40
1
 40
1
 40
1
 10
116.493430
 20
199.222040
 30
0.0
 10
120.036220
 20
203.541432
 30
0.0
 10
122.988990
 20
207.108986
 30
0.0
 10
123.055110
 20
207.149888
 30
0.0
  0
SPLINE
  5
10e
100
AcDbEntity
  8
Ebene_1
 62
7
100
AcDbSpline
 70
8
 71
3
 72
8
 73
4
 74
0
 40
0
 40
0
 40
0
 40
0
 40
1
 40
1
 40
1
 40
1
 10
123.055110
 20
207.149888
 30
0.0
 10
123.193080
 20
207.235148
 30
0.0
 10
126.139490
 20
207.045163
 30
0.0
 10
128.713170
 20
206.784797
 30
0.0
  0
SPLINE
  5
10f
100
AcDbEntity
  8
Ebene_1
 62
7
100
AcDbSpline
 70
8
 71
3
 72
8
 73
4
 74
0
 40
0
 40
0
 40
0
 40
0
 40
1
 40
1
 40
1
 40
1
 10
128.713170
 20
206.784797
 30
0.0
 10
139.566770
 20
205.687141
 30
0.0
 10
150.467530
 20
203.174388
 30
0.0
 10
160.368490
 20
199.487890
 30
0.0
  0
SPLINE
  5
110
100
AcDbEntity
  8
Ebene_1
 62
7
100
AcDbSpline
 70
8
 71
3
 72
8
 73
4
 74
0
 40
0
 40
0
 40
0
 40
0
 40
1
 40
1
 40
1
 40
1
 10
160.368490
 20
199.487890
 30
0.0
 10
162.705150
 20
198.617900
 30
0.0
 10
166.463820
 20
197.065010
 30
0.0
 10
167.444100
 20
196.564690
 30
0.0
  0
LWPOLYLINE
  5
111
100
AcDbEntity
  8
Ebene_1
 62
7
100
AcDbPolyline
 90
3
 70
0
 10
95.480958
 20
207.148164
 30
0.0
 10
96.707434
 20
207.223664
 30
0.0
 10
103.290720
 20
199.197830
 30
0.0
  0
SPLINE
  5
112
100
AcDbEntity
  8
Ebene_1
 62
7
100
AcDbSpline
 70
8
 71
3
 72
8
 73
4
 74
0
 40
0
 40
0
 40
0
 40
0
 40
1
 40
1
 40
1
 40
1
 10
167.311330
 20
195.518380
 30
0.0
 10
165.015600
 20
192.360520
 30
0.0
 10
161.416610
 20
189.257270
 30
0.0
 10
156.959610
 20
186.592490
 30
0.0
  0
SPLINE
  5
113
100
AcDbEntity
  8
Ebene_1
 62
7
100
AcDbSpline
 70
8
 71
3
 72
8
 73
4
 74
0
 40
0
 40
0
 40
0
 40
0
 40
1
 40
1
 40
1
 40
1
 10
156.959610
 20
186.592490
 30
0.0
 10
155.733860
 20
185.859610
 30
0.0
 10
151.676170
 20
183.822030
 30
0.0
 10
151.122910
 20
183.661570
 30
0.0
  0
SPLINE
  5
114
100
AcDbEntity
  8
Ebene_1
 62
7
100
AcDbSpline
 70
8
 71
3
 72
8
 73
4
 74
0
 40
0
 40
0
 40
0
 40
0
 40
1
 40
1
 40
1
 40
1
 10
151.122910
 20
183.661570
 30
0.0
 10
150.894590
 20
183.595270
 30
0.0
 10
150.863980
 20
183.645070
 30
0.0
 10
150.788020
 20
184.206400
 30
0.0
  0
SPLINE
  5
115
100
AcDbEntity
  8
Ebene_1
 62
7
100
AcDbSpline
 70
8
 71
3
 72
8
 73
4
 74
0
 40
0
 40
0
 40
0
 40
0
 40
1
 40
1
 40
1
 40
1
 10
150.788020
 20
184.206400
 30
0.0
 10
150.742120
 20
184.546160
 30
0.0
 10
150.575990
 20
185.269780
 30
0.0
 10
150.419000
 20
185.814380
 30
0.0
  0
SPLINE
  5
116
100
AcDbEntity
  8
Ebene_1
 62
7
100
AcDbSpline
 70
8
 71
3
 72
8
 73
4
 74
0
 40
0
 40
0
 40
0
 40
0
 40
1
 40
1
 40
1
 40
1
 10
150.419000
 20
185.814380
 30
0.0
 10
149.182870
 20
190.103120
 30
0.0
 10
145.530480
 20
192.007540
 30
0.0
 10
137.181850
 20
192.716330
 30
0.0
  0
SPLINE
  5
117
100
AcDbEntity
  8
Ebene_1
 62
7
100
AcDbSpline
 70
8
 71
3
 72
8
 73
4
 74
0
 40
0
 40
0
 40
0
 40
0
 40
1
 40
1
 40
1
 40
1
 10
137.181850
 20
192.716330
 30
0.0
 10
135.364010
 20
192.870660
 30
0.0
 10
127.803820
 20
193.068740
 30
0.0
 10
127.708820
 20
192.964490
 30
0.0
  0
SPLINE
  5
118
100
AcDbEntity
  8
Ebene_1
 62
7
100
AcDbSpline
 70
8
 71
3
 72
8
 73
4
 74
0
 40
0
 40
0
 40
0
 40
0
 40
1
 40
1
 40
1
 40
1
 10
127.708820
 20
192.964490
 30
0.0
 10
127.660220
 20
192.911090
 30
0.0
 10
113.065610
 20
111.000220
 30
0.0
 10
109.985480
 20
93.493710
 30
0.0
  0
LWPOLYLINE
  5
119
100
AcDbEntity
  8
Ebene_1
 62
7
100
AcDbPolyline
 90
3
 70
0
 10
167.444100
 20
196.564690
 30
0.0
 10
167.902050
 20
196.330930
 30
0.0
 10
167.311330
 20
195.518380
 30
0.0
  0
SPLINE
  5
11a
100
AcDbEntity
  8
Ebene_1
 62
7
100
AcDbSpline
 70
8
 71
3
 72
8
 73
4
 74
0
 40
0
 40
0
 40
0
 40
0
 40
1
 40
1
 40
1
 40
1
 10
167.902680
 20
200.743659
 30
0.0
 10
153.951720
 20
206.630257
 30
0.0
 10
138.101750
 20
210.376098
 30
0.0
 10
122.288650
 20
211.523691
 30
0.0
  0
SPLINE
  5
11b
100
AcDbEntity
  8
Ebene_1
 62
7
100
AcDbSpline
 70
8
 71
3
 72
8
 73
4
 74
0
 40
0
 40
0
 40
0
 40
0
 40
1
 40
1
 40
1
 40
1
 10
122.288650
 20
211.523691
 30
0.0
 10
117.208260
 20
211.892386
 30
0.0
 10
106.653760
 20
212.013119
 30
0.0
 10
101.542970
 20
211.761007
 30
0.0
  0
SPLINE
  5
11c
100
AcDbEntity
  8
Ebene_1
 62
7
100
AcDbSpline
 70
8
 71
3
 72
8
 73
4
 74
0
 40
0
 40
0
 40
0
 40
0
 40
1
 40
1
 40
1
 40
1
 10
101.542970
 20
211.761007
 30
0.0
 10
83.831699
 20
210.887336
 30
0.0
 10
67.536986
 20
207.276115
 30
0.0
 10
51.876843
 20
200.754099
 30
0.0
  0
SPLINE
  5
11d
100
AcDbEntity
  8
Ebene_1
 62
7
100
AcDbSpline
 70
8
 71
3
 72
8
 73
4
 74
0
 40
0
 40
0
 40
0
 40
0
 40
1
 40
1
 40
1
 40
1
 10
51.876843
 20
200.754099
 30
0.0
 10
50.797909
 20
200.304772
 30
0.0
 10
49.848009
 20
199.962920
 30
0.0
 10
49.765882
 20
199.994420
 30
0.0
  0
SPLINE
  5
11e
100
AcDbEntity
  8
Ebene_1
 62
7
100
AcDbSpline
 70
8
 71
3
 72
8
 73
4
 74
0
 40
0
 40
0
 40
0
 40
0
 40
1
 40
1
 40
1
 40
1
 10
49.765882
 20
199.994420
 30
0.0
 10
49.683552
 20
200.026160
 30
0.0
 10
49.008296
 20
201.279692
 30
0.0
 10
48.264860
 20
202.780539
 30
0.0
  0
SPLINE
  5
11f
100
AcDbEntity
  8
Ebene_1
 62
7
100
AcDbSpline
 70
8
 71
3
 72
8
 73
4
 74
0
 40
0
 40
0
 40
0
 40
0
 40
1
 40
1
 40
1
 40
1
 10
48.264860
 20
202.780539
 30
0.0
 10
46.873838
 20
205.588543
 30
0.0
 10
46.225587
 20
207.047237
 30
0.0
 10
46.324659
 20
207.146368
 30
0.0
  0
SPLINE
  5
120
100
AcDbEntity
  8
Ebene_1
 62
7
100
AcDbSpline
 70
8
 71
3
 72
8
 73
4
 74
0
 40
0
 40
0
 40
0
 40
0
 40
1
 40
1
 40
1
 40
1
 10
46.324659
 20
207.146368
 30
0.0
 10
46.426152
 20
207.247870
 30
0.0
 10
50.510129
 20
208.791445
 30
0.0
 10
52.904024
 20
209.633152
 30
0.0
  0
SPLINE
  5
121
100
AcDbEntity
  8
Ebene_1
 62
7
100
AcDbSpline
 70
8
 71
3
 72
8
 73
4
 74
0
 40
0
 40
0
 40
0
 40
0
 40
1
 40
1
 40
1
 40
1
 10
52.904024
 20
209.633152
 30
0.0
 10
75.345738
 20
217.524069
 30
0.0
 10
99.312950
 20
220.794047
 30
0.0
 10
121.996630
 20
219.059909
 30
0.0
  0
SPLINE
  5
122
100
AcDbEntity
  8
Ebene_1
 62
7
100
AcDbSpline
 70
8
 71
3
 72
8
 73
4
 74
0
 40
0
 40
0
 40
0
 40
0
 40
1
 40
1
 40
1
 40
1
 10
121.996630
 20
219.059909
 30
0.0
 10
138.962720
 20
217.762879
 30
0.0
 10
154.952450
 20
214.182325
 30
0.0
 10
171.228910
 20
208.035392
 30
0.0
  0
SPLINE
  5
123
100
AcDbEntity
  8
Ebene_1
 62
7
100
AcDbSpline
 70
8
 71
3
 72
8
 73
4
 74
0
 40
0
 40
0
 40
0
 40
0
 40
1
 40
1
 40
1
 40
1
 10
171.228910
 20
208.035392
 30
0.0
 10
172.440740
 20
207.577744
 30
0.0
 10
173.453060
 20
207.182483
 30
0.0
 10
173.478510
 20
207.157003
 30
0.0
  0
SPLINE
  5
124
100
AcDbEntity
  8
Ebene_1
 62
7
100
AcDbSpline
 70
8
 71
3
 72
8
 73
4
 74
0
 40
0
 40
0
 40
0
 40
0
 40
1
 40
1
 40
1
 40
1
 10
173.478510
 20
207.157003
 30
0.0
 10
173.611620
 20
207.023896
 30
0.0
 10
170.357050
 20
200.226630
 30
0.0
 10
170.027280
 20
199.948860
 30
0.0
  0
SPLINE
  5
125
100
AcDbEntity
  8
Ebene_1
 62
7
100
AcDbSpline
 70
8
 71
3
 72
8
 73
4
 74
0
 40
0
 40
0
 40
0
 40
0
 40
1
 40
1
 40
1
 40
1
 10
170.027280
 20
199.948860
 30
0.0
 10
169.983080
 20
199.911560
 30
0.0
 10
169.026980
 20
200.269271
 30
0.0
 10
167.902680
 20
200.743659
 30
0.0
  0
LWPOLYLINE
  5
126
100
AcDbEntity
  8
Ebene_1
 62
7
100
AcDbPolyline
 90
3
 70
0
 10
109.985480
 20
93.493710
 30
0.0
 10
109.892980
 20
92.967820
 30
0.0
 10
109.815430
 20
93.376910
 30
0.0
  0
LWPOLYLINE
  5
127
100
AcDbEntity
  8
Ebene_1
 62
7
100
AcDbPolyline
 90
1
 70
1
 10
167.902680
 20
200.743659
 30
0.0
  0
LWPOLYLINE
  5
128
100
AcDbEntity
  8
Ebene_1
 62
7
100
AcDbPolyline
 90
9
 70
1
 10
161.895282
 20
246.268569
 30
0.0
 10
161.895282
 20
232.736640
 30
0.0
 10
162.383607
 20
232.736640
 30
0.0
 10
167.057019
 20
232.736640
 30
0.0
 10
167.057019
 20
241.106826
 30
0.0
 10
182.820749
 20
241.106826
 30
0.0
 10
182.820749
 20
232.736640
 30
0.0
 10
187.982495
 20
232.736640
 30
0.0
 10
187.982495
 20
246.268569
 30
0.0
  0
SPLINE
  5
129
100
AcDbEntity
  8
Ebene_1
 62
7
100
AcDbSpline
 70
8
 71
3
 72
8
 73
4
 74
0
 40
0
 40
0
 40
0
 40
0
 40
1
 40
1
 40
1
 40
1
 10
161.895282
 20
254.150432
 30
0.0
 10
161.895282
 20
252.881521
 30
0.0
 10
162.356319
 20
251.744777
 30
0.0
 10
163.241993
 20
250.835166
 30
0.0
  0
LWPOLYLINE
  5
12a
100
AcDbEntity
  8
Ebene_1
 62
7
100
AcDbPolyline
 90
2
 70
0
 10
161.895282
 20
254.638756
 30
0.0
 10
161.895282
 20
254.150432
 30
0.0
  0
SPLINE
  5
12b
100
AcDbEntity
  8
Ebene_1
 62
7
100
AcDbSpline
 70
8
 71
3
 72
8
 73
4
 74
0
 40
0
 40
0
 40
0
 40
0
 40
1
 40
1
 40
1
 40
1
 10
163.247853
 20
250.831260
 30
0.0
 10
164.138362
 20
249.940756
 30
0.0
 10
165.280240
 20
249.476922
 30
0.0
 10
166.568841
 20
249.476922
 30
0.0
  0
LWPOLYLINE
  5
12c
100
AcDbEntity
  8
Ebene_1
 62
7
100
AcDbPolyline
 90
3
 70
0
 10
163.241993
 20
250.835166
 30
0.0
 10
163.245900
 20
250.833213
 30
0.0
 10
163.247853
 20
250.831260
 30
0.0
  0
SPLINE
  5
12d
100
AcDbEntity
  8
Ebene_1
 62
7
100
AcDbSpline
 70
8
 71
3
 72
8
 73
4
 74
0
 40
0
 40
0
 40
0
 40
0
 40
1
 40
1
 40
1
 40
1
 10
183.309220
 20
249.476922
 30
0.0
 10
184.558520
 20
249.476922
 30
0.0
 10
185.683981
 20
249.941357
 30
0.0
 10
186.592060
 20
250.825537
 30
0.0
  0
SPLINE
  5
12e
100
AcDbEntity
  8
Ebene_1
 62
7
100
AcDbSpline
 70
8
 71
3
 72
8
 73
4
 74
0
 40
0
 40
0
 40
0
 40
0
 40
1
 40
1
 40
1
 40
1
 10
186.592060
 20
250.825537
 30
0.0
 10
187.505441
 20
251.714885
 30
0.0
 10
187.982642
 20
252.858722
 30
0.0
 10
187.982642
 20
254.150340
 30
0.0
  0
LWPOLYLINE
  5
12f
100
AcDbEntity
  8
Ebene_1
 62
7
100
AcDbPolyline
 90
2
 70
0
 10
166.568841
 20
249.476922
 30
0.0
 10
183.309220
 20
249.476922
 30
0.0
  0
LWPOLYLINE
  5
130
100
AcDbEntity
  8
Ebene_1
 62
7
100
AcDbPolyline
 90
3
 70
0
 10
187.982642
 20
254.150340
 30
0.0
 10
187.982642
 20
254.638664
 30
0.0
 10
161.895282
 20
254.638756
 30
0.0
  0
SPLINE
  5
131
100
AcDbEntity
  8
Ebene_1
 62
7
100
AcDbSpline
 70
8
 71
3
 72
8
 73
4
 74
0
 40
0
 40
0
 40
0
 40
0
 40
1
 40
1
 40
1
 40
1
 10
31.814025
 20
254.150432
 30
0.0
 10
31.814025
 20
252.881521
 30
0.0
 10
32.276966
 20
251.744777
 30
0.0
 10
33.162640
 20
250.835166
 30
0.0
  0
LWPOLYLINE
  5
132
100
AcDbEntity
  8
Ebene_1
 62
7
100
AcDbPolyline
 90
2
 70
0
 10
31.814025
 20
254.638756
 30
0.0
 10
31.814025
 20
254.150432
 30
0.0
  0
SPLINE
  5
133
100
AcDbEntity
  8
Ebene_1
 62
7
100
AcDbSpline
 70
8
 71
3
 72
8
 73
4
 74
0
 40
0
 40
0
 40
0
 40
0
 40
1
 40
1
 40
1
 40
1
 10
33.166547
 20
250.831260
 30
0.0
 10
34.057056
 20
249.940755
 30
0.0
 10
35.198934
 20
249.476922
 30
0.0
 10
36.487535
 20
249.476922
 30
0.0
  0
LWPOLYLINE
  5
134
100
AcDbEntity
  8
Ebene_1
 62
7
100
AcDbPolyline
 90
3
 70
0
 10
33.162640
 20
250.835166
 30
0.0
 10
33.164594
 20
250.833213
 30
0.0
 10
33.166547
 20
250.831260
 30
0.0
  0
SPLINE
  5
135
100
AcDbEntity
  8
Ebene_1
 62
7
100
AcDbSpline
 70
8
 71
3
 72
8
 73
4
 74
0
 40
0
 40
0
 40
0
 40
0
 40
1
 40
1
 40
1
 40
1
 10
53.227914
 20
249.477014
 30
0.0
 10
54.477214
 20
249.477014
 30
0.0
 10
55.602675
 20
249.941448
 30
0.0
 10
56.510753
 20
250.825628
 30
0.0
  0
SPLINE
  5
136
100
AcDbEntity
  8
Ebene_1
 62
7
100
AcDbSpline
 70
8
 71
3
 72
8
 73
4
 74
0
 40
0
 40
0
 40
0
 40
0
 40
1
 40
1
 40
1
 40
1
 10
56.510753
 20
250.825628
 30
0.0
 10
57.424135
 20
251.714976
 30
0.0
 10
57.901326
 20
252.858813
 30
0.0
 10
57.901326
 20
254.150432
 30
0.0
  0
LWPOLYLINE
  5
137
100
AcDbEntity
  8
Ebene_1
 62
7
100
AcDbPolyline
 90
7
 70
0
 10
36.487535
 20
249.476922
 30
0.0
 10
42.276856
 20
249.476922
 30
0.0
 10
42.276856
 20
232.736640
 30
0.0
 10
42.765180
 20
232.736640
 30
0.0
 10
47.438592
 20
232.736640
 30
0.0
 10
47.438592
 20
249.477014
 30
0.0
 10
53.227914
 20
249.477014
 30
0.0
  0
LWPOLYLINE
  5
138
100
AcDbEntity
  8
Ebene_1
 62
7
100
AcDbPolyline
 90
3
 70
0
 10
57.901326
 20
254.150432
 30
0.0
 10
57.901326
 20
254.638756
 30
0.0
 10
31.814025
 20
254.638756
 30
0.0
  0
SPLINE
  5
139
100
AcDbEntity
  8
Ebene_1
 62
7
100
AcDbSpline
 70
8
 71
3
 72
8
 73
4
 74
0
 40
0
 40
0
 40
0
 40
0
 40
1
 40
1
 40
1
 40
1
 10
64.333390
 20
237.410057
 30
0.0
 10
64.333390
 20
236.141147
 30
0.0
 10
64.796331
 20
235.004403
 30
0.0
 10
65.682005
 20
234.094792
 30
0.0
  0
LWPOLYLINE
  5
13a
100
AcDbEntity
  8
Ebene_1
 62
7
100
AcDbPolyline
 90
2
 70
0
 10
64.333390
 20
237.898382
 30
0.0
 10
64.333390
 20
237.410057
 30
0.0
  0
SPLINE
  5
13b
100
AcDbEntity
  8
Ebene_1
 62
7
100
AcDbSpline
 70
8
 71
3
 72
8
 73
4
 74
0
 40
0
 40
0
 40
0
 40
0
 40
1
 40
1
 40
1
 40
1
 10
65.685912
 20
234.089030
 30
0.0
 10
66.576410
 20
233.198525
 30
0.0
 10
67.718289
 20
232.736599
 30
0.0
 10
69.006899
 20
232.736599
 30
0.0
  0
LWPOLYLINE
  5
13c
100
AcDbEntity
  8
Ebene_1
 62
7
100
AcDbPolyline
 90
3
 70
0
 10
65.682005
 20
234.094792
 30
0.0
 10
65.683958
 20
234.092839
 30
0.0
 10
65.685912
 20
234.089030
 30
0.0
  0
SPLINE
  5
13d
100
AcDbEntity
  8
Ebene_1
 62
7
100
AcDbSpline
 70
8
 71
3
 72
8
 73
4
 74
0
 40
0
 40
0
 40
0
 40
0
 40
1
 40
1
 40
1
 40
1
 10
85.747269
 20
232.736599
 30
0.0
 10
86.996569
 20
232.736599
 30
0.0
 10
88.123944
 20
233.201034
 30
0.0
 10
89.032013
 20
234.085214
 30
0.0
  0
SPLINE
  5
13e
100
AcDbEntity
  8
Ebene_1
 62
7
100
AcDbSpline
 70
8
 71
3
 72
8
 73
4
 74
0
 40
0
 40
0
 40
0
 40
0
 40
1
 40
1
 40
1
 40
1
 10
89.032013
 20
234.085214
 30
0.0
 10
89.945404
 20
234.974561
 30
0.0
 10
90.420690
 20
236.118399
 30
0.0
 10
90.420690
 20
237.410017
 30
0.0
  0
LWPOLYLINE
  5
13f
100
AcDbEntity
  8
Ebene_1
 62
7
100
AcDbPolyline
 90
2
 70
0
 10
69.006899
 20
232.736599
 30
0.0
 10
85.747269
 20
232.736599
 30
0.0
  0
LWPOLYLINE
  5
140
100
AcDbEntity
  8
Ebene_1
 62
7
100
AcDbPolyline
 90
3
 70
0
 10
90.420690
 20
237.410017
 30
0.0
 10
90.420690
 20
237.898342
 30
0.0
 10
64.333390
 20
237.898382
 30
0.0
  0
SPLINE
  5
141
100
AcDbEntity
  8
Ebene_1
 62
7
100
AcDbSpline
 70
8
 71
3
 72
8
 73
4
 74
0
 40
0
 40
0
 40
0
 40
0
 40
1
 40
1
 40
1
 40
1
 10
64.333390
 20
245.780245
 30
0.0
 10
64.333390
 20
244.511334
 30
0.0
 10
64.796331
 20
243.374591
 30
0.0
 10
65.682005
 20
242.464980
 30
0.0
  0
LWPOLYLINE
  5
142
100
AcDbEntity
  8
Ebene_1
 62
7
100
AcDbPolyline
 90
2
 70
0
 10
64.333390
 20
246.268569
 30
0.0
 10
64.333390
 20
245.780245
 30
0.0
  0
SPLINE
  5
143
100
AcDbEntity
  8
Ebene_1
 62
7
100
AcDbSpline
 70
8
 71
3
 72
8
 73
4
 74
0
 40
0
 40
0
 40
0
 40
0
 40
1
 40
1
 40
1
 40
1
 10
65.685912
 20
242.459217
 30
0.0
 10
66.576410
 20
241.568714
 30
0.0
 10
67.718289
 20
241.106787
 30
0.0
 10
69.006899
 20
241.106787
 30
0.0
  0
LWPOLYLINE
  5
144
100
AcDbEntity
  8
Ebene_1
 62
7
100
AcDbPolyline
 90
3
 70
0
 10
65.682005
 20
242.464980
 30
0.0
 10
65.683958
 20
242.463026
 30
0.0
 10
65.685912
 20
242.459217
 30
0.0
  0
SPLINE
  5
145
100
AcDbEntity
  8
Ebene_1
 62
7
100
AcDbSpline
 70
8
 71
3
 72
8
 73
4
 74
0
 40
0
 40
0
 40
0
 40
0
 40
1
 40
1
 40
1
 40
1
 10
85.747269
 20
241.106787
 30
0.0
 10
86.996569
 20
241.106787
 30
0.0
 10
88.123944
 20
241.571222
 30
0.0
 10
89.032013
 20
242.455403
 30
0.0
  0
SPLINE
  5
146
100
AcDbEntity
  8
Ebene_1
 62
7
100
AcDbSpline
 70
8
 71
3
 72
8
 73
4
 74
0
 40
0
 40
0
 40
0
 40
0
 40
1
 40
1
 40
1
 40
1
 10
89.032013
 20
242.455403
 30
0.0
 10
89.945404
 20
243.344750
 30
0.0
 10
90.420690
 20
244.488588
 30
0.0
 10
90.420690
 20
245.780206
 30
0.0
  0
LWPOLYLINE
  5
147
100
AcDbEntity
  8
Ebene_1
 62
7
100
AcDbPolyline
 90
2
 70
0
 10
69.006899
 20
241.106787
 30
0.0
 10
85.747269
 20
241.106787
 30
0.0
  0
LWPOLYLINE
  5
148
100
AcDbEntity
  8
Ebene_1
 62
7
100
AcDbPolyline
 90
3
 70
0
 10
90.420690
 20
245.780206
 30
0.0
 10
90.420690
 20
246.268530
 30
0.0
 10
64.333390
 20
246.268569
 30
0.0
  0
SPLINE
  5
149
100
AcDbEntity
  8
Ebene_1
 62
7
100
AcDbSpline
 70
8
 71
3
 72
8
 73
4
 74
0
 40
0
 40
0
 40
0
 40
0
 40
1
 40
1
 40
1
 40
1
 10
64.333390
 20
254.150432
 30
0.0
 10
64.333390
 20
252.881521
 30
0.0
 10
64.796331
 20
251.744777
 30
0.0
 10
65.682005
 20
250.835166
 30
0.0
  0
LWPOLYLINE
  5
14a
100
AcDbEntity
  8
Ebene_1
 62
7
100
AcDbPolyline
 90
2
 70
0
 10
64.333390
 20
254.638756
 30
0.0
 10
64.333390
 20
254.150432
 30
0.0
  0
SPLINE
  5
14b
100
AcDbEntity
  8
Ebene_1
 62
7
100
AcDbSpline
 70
8
 71
3
 72
8
 73
4
 74
0
 40
0
 40
0
 40
0
 40
0
 40
1
 40
1
 40
1
 40
1
 10
65.685912
 20
250.831260
 30
0.0
 10
66.576410
 20
249.940755
 30
0.0
 10
67.718289
 20
249.476922
 30
0.0
 10
69.006899
 20
249.476922
 30
0.0
  0
LWPOLYLINE
  5
14c
100
AcDbEntity
  8
Ebene_1
 62
7
100
AcDbPolyline
 90
3
 70
0
 10
65.682005
 20
250.835166
 30
0.0
 10
65.683958
 20
250.833213
 30
0.0
 10
65.685912
 20
250.831260
 30
0.0
  0
SPLINE
  5
14d
100
AcDbEntity
  8
Ebene_1
 62
7
100
AcDbSpline
 70
8
 71
3
 72
8
 73
4
 74
0
 40
0
 40
0
 40
0
 40
0
 40
1
 40
1
 40
1
 40
1
 10
85.747269
 20
249.476922
 30
0.0
 10
86.996569
 20
249.476922
 30
0.0
 10
88.123944
 20
249.941357
 30
0.0
 10
89.032013
 20
250.825537
 30
0.0
  0
SPLINE
  5
14e
100
AcDbEntity
  8
Ebene_1
 62
7
100
AcDbSpline
 70
8
 71
3
 72
8
 73
4
 74
0
 40
0
 40
0
 40
0
 40
0
 40
1
 40
1
 40
1
 40
1
 10
89.032013
 20
250.825537
 30
0.0
 10
89.945404
 20
251.714884
 30
0.0
 10
90.420690
 20
252.858722
 30
0.0
 10
90.420690
 20
254.150340
 30
0.0
  0
LWPOLYLINE
  5
14f
100
AcDbEntity
  8
Ebene_1
 62
7
100
AcDbPolyline
 90
2
 70
0
 10
69.006899
 20
249.476922
 30
0.0
 10
85.747269
 20
249.476922
 30
0.0
  0
LWPOLYLINE
  5
150
100
AcDbEntity
  8
Ebene_1
 62
7
100
AcDbPolyline
 90
3
 70
0
 10
90.420690
 20
254.150340
 30
0.0
 10
90.420690
 20
254.638664
 30
0.0
 10
64.333390
 20
254.638756
 30
0.0
  0
SPLINE
  5
151
100
AcDbEntity
  8
Ebene_1
 62
7
100
AcDbSpline
 70
8
 71
3
 72
8
 73
4
 74
0
 40
0
 40
0
 40
0
 40
0
 40
1
 40
1
 40
1
 40
1
 10
101.528070
 20
237.898382
 30
0.0
 10
100.256093
 20
237.898382
 30
0.0
 10
99.115660
 20
237.422101
 30
0.0
 10
98.207083
 20
236.513525
 30
0.0
  0
SPLINE
  5
152
100
AcDbEntity
  8
Ebene_1
 62
7
100
AcDbSpline
 70
8
 71
3
 72
8
 73
4
 74
0
 40
0
 40
0
 40
0
 40
0
 40
1
 40
1
 40
1
 40
1
 10
98.207083
 20
236.513525
 30
0.0
 10
97.318137
 20
235.624575
 30
0.0
 10
96.854659
 20
234.493874
 30
0.0
 10
96.854659
 20
233.224964
 30
0.0
  0
LWPOLYLINE
  5
153
100
AcDbEntity
  8
Ebene_1
 62
7
100
AcDbPolyline
 90
5
 70
0
 10
96.854659
 20
254.638756
 30
0.0
 10
96.854659
 20
241.106826
 30
0.0
 10
117.780125
 20
241.106826
 30
0.0
 10
117.780125
 20
237.898382
 30
0.0
 10
101.528070
 20
237.898382
 30
0.0
  0
SPLINE
  5
154
100
AcDbEntity
  8
Ebene_1
 62
7
100
AcDbSpline
 70
8
 71
3
 72
8
 73
4
 74
0
 40
0
 40
0
 40
0
 40
0
 40
1
 40
1
 40
1
 40
1
 10
118.268450
 20
249.477014
 30
0.0
 10
119.517750
 20
249.477014
 30
0.0
 10
120.643211
 20
249.941448
 30
0.0
 10
121.551289
 20
250.825628
 30
0.0
  0
SPLINE
  5
155
100
AcDbEntity
  8
Ebene_1
 62
7
100
AcDbSpline
 70
8
 71
3
 72
8
 73
4
 74
0
 40
0
 40
0
 40
0
 40
0
 40
1
 40
1
 40
1
 40
1
 10
121.551289
 20
250.825628
 30
0.0
 10
122.464671
 20
251.714977
 30
0.0
 10
122.941862
 20
252.858814
 30
0.0
 10
122.941862
 20
254.150432
 30
0.0
  0
LWPOLYLINE
  5
156
100
AcDbEntity
  8
Ebene_1
 62
7
100
AcDbPolyline
 90
8
 70
0
 10
96.854659
 20
233.224964
 30
0.0
 10
96.854659
 20
232.736640
 30
0.0
 10
97.342983
 20
232.736640
 30
0.0
 10
122.941862
 20
232.736640
 30
0.0
 10
122.941862
 20
246.268569
 30
0.0
 10
102.016395
 20
246.268569
 30
0.0
 10
102.016395
 20
249.477014
 30
0.0
 10
118.268450
 20
249.477014
 30
0.0
  0
LWPOLYLINE
  5
157
100
AcDbEntity
  8
Ebene_1
 62
7
100
AcDbPolyline
 90
3
 70
0
 10
122.941862
 20
254.150432
 30
0.0
 10
122.941862
 20
254.638756
 30
0.0
 10
96.854659
 20
254.638756
 30
0.0
  0
SPLINE
  5
158
100
AcDbEntity
  8
Ebene_1
 62
7
100
AcDbSpline
 70
8
 71
3
 72
8
 73
4
 74
0
 40
0
 40
0
 40
0
 40
0
 40
1
 40
1
 40
1
 40
1
 10
150.787804
 20
232.736640
 30
0.0
 10
152.037105
 20
232.736640
 30
0.0
 10
153.164480
 20
233.201074
 30
0.0
 10
154.072548
 20
234.085254
 30
0.0
  0
SPLINE
  5
159
100
AcDbEntity
  8
Ebene_1
 62
7
100
AcDbSpline
 70
8
 71
3
 72
8
 73
4
 74
0
 40
0
 40
0
 40
0
 40
0
 40
1
 40
1
 40
1
 40
1
 10
154.072548
 20
234.085254
 30
0.0
 10
154.985930
 20
234.974602
 30
0.0
 10
155.461226
 20
236.118440
 30
0.0
 10
155.461226
 20
237.410057
 30
0.0
  0
LWPOLYLINE
  5
15a
100
AcDbEntity
  8
Ebene_1
 62
7
100
AcDbPolyline
 90
4
 70
0
 10
129.374013
 20
254.638756
 30
0.0
 10
129.374013
 20
232.736640
 30
0.0
 10
129.862338
 20
232.736640
 30
0.0
 10
150.787804
 20
232.736640
 30
0.0
  0
LWPOLYLINE
  5
15b
100
AcDbEntity
  8
Ebene_1
 62
7
100
AcDbPolyline
 90
5
 70
0
 10
155.461226
 20
237.410057
 30
0.0
 10
155.461226
 20
237.898382
 30
0.0
 10
134.535760
 20
237.898382
 30
0.0
 10
134.535760
 20
254.638756
 30
0.0
 10
129.374013
 20
254.638756
 30
0.0
  0
SPLINE
  5
15c
100
AcDbEntity
  8
Ebene_1
 62
7
100
AcDbSpline
 70
8
 71
3
 72
8
 73
4
 74
0
 40
0
 40
0
 40
0
 40
0
 40
1
 40
1
 40
1
 40
1
 10
48.276085
 20
286.730825
 30
0.0
 10
29.415125
 20
286.730825
 30
0.0
 10
14.125970
 20
271.454938
 30
0.0
 10
14.125970
 20
252.610354
 30
0.0
  0
LWPOLYLINE
  5
15d
100
AcDbEntity
  8
Ebene_1
 62
7
100
AcDbPolyline
 90
4
 70
1
 10
0.000000
 20
300.013813
 30
0.0
 10
219.797280
 20
300.013813
 30
0.0
 10
219.797280
 20
0.000000
 30
0.0
 10
0.000000
 20
0.000000
 30
0.0
  0
SPLINE
  5
15e
100
AcDbEntity
  8
Ebene_1
 62
7
100
AcDbSpline
 70
8
 71
3
 72
8
 73
4
 74
0
 40
0
 40
0
 40
0
 40
0
 40
1
 40
1
 40
1
 40
1
 10
14.125970
 20
47.381370
 30
0.0
 10
14.125970
 20
28.536770
 30
0.0
 10
29.415125
 20
13.260900
 30
0.0
 10
48.276085
 20
13.260900
 30
0.0
  0
LWPOLYLINE
  5
15f
100
AcDbEntity
  8
Ebene_1
 62
7
100
AcDbPolyline
 90
2
 70
0
 10
14.125970
 20
252.610354
 30
0.0
 10
14.125970
 20
47.381370
 30
0.0
  0
SPLINE
  5
160
100
AcDbEntity
  8
Ebene_1
 62
7
100
AcDbSpline
 70
8
 71
3
 72
8
 73
4
 74
0
 40
0
 40
0
 40
0
 40
0
 40
1
 40
1
 40
1
 40
1
 10
171.521200
 20
13.260900
 30
0.0
 10
190.382150
 20
13.260900
 30
0.0
 10
205.671310
 20
28.536770
 30
0.0
 10
205.671310
 20
47.381370
 30
0.0
  0
LWPOLYLINE
  5
161
100
AcDbEntity
  8
Ebene_1
 62
7
100
AcDbPolyline
 90
2
 70
0
 10
48.276085
 20
13.260900
 30
0.0
 10
171.521200
 20
13.260900
 30
0.0
  0
SPLINE
  5
162
100
AcDbEntity
  8
Ebene_1
 62
7
100
AcDbSpline
 70
8
 71
3
 72
8
 73
4
 74
0
 40
0
 40
0
 40
0
 40
0
 40
1
 40
1
 40
1
 40
1
 10
205.671310
 20
252.610354
 30
0.0
 10
205.671310
 20
271.454938
 30
0.0
 10
190.382150
 20
286.730825
 30
0.0
 10
171.521200
 20
286.730825
 30
0.0
  0
LWPOLYLINE
  5
163
100
AcDbEntity
  8
Ebene_1
 62
7
100
AcDbPolyline
 90
2
 70
0
 10
205.671310
 20
47.381370
 30
0.0
 10
205.671310
 20
252.610354
 30
0.0
  0
LWPOLYLINE
  5
164
100
AcDbEntity
  8
Ebene_1
 62
7
100
AcDbPolyline
 90
2
 70
0
 10
171.521200
 20
286.730825
 30
0.0
 10
48.276085
 20
286.730825
 30
0.0
  0
SPLINE
  5
165
100
AcDbEntity
  8
Ebene_1
 62
7
100
AcDbSpline
 70
8
 71
3
 72
8
 73
4
 74
0
 40
0
 40
0
 40
0
 40
0
 40
1
 40
1
 40
1
 40
1
 10
171.521200
 20
280.060826
 30
0.0
 10
186.799230
 20
280.060826
 30
0.0
 10
198.995520
 20
267.875122
 30
0.0
 10
198.995520
 20
252.610354
 30
0.0
  0
LWPOLYLINE
  5
166
100
AcDbEntity
  8
Ebene_1
 62
7
100
AcDbPolyline
 90
2
 70
0
 10
48.276085
 20
280.060826
 30
0.0
 10
171.521200
 20
280.060826
 30
0.0
  0
SPLINE
  5
167
100
AcDbEntity
  8
Ebene_1
 62
7
100
AcDbSpline
 70
8
 71
3
 72
8
 73
4
 74
0
 40
0
 40
0
 40
0
 40
0
 40
1
 40
1
 40
1
 40
1
 10
198.995520
 20
47.381370
 30
0.0
 10
198.995520
 20
32.116590
 30
0.0
 10
186.799230
 20
19.930900
 30
0.0
 10
171.521200
 20
19.930900
 30
0.0
  0
LWPOLYLINE
  5
168
100
AcDbEntity
  8
Ebene_1
 62
7
100
AcDbPolyline
 90
2
 70
0
 10
198.995520
 20
252.610354
 30
0.0
 10
198.995520
 20
47.381370
 30
0.0
  0
SPLINE
  5
169
100
AcDbEntity
  8
Ebene_1
 62
7
100
AcDbSpline
 70
8
 71
3
 72
8
 73
4
 74
0
 40
0
 40
0
 40
0
 40
0
 40
1
 40
1
 40
1
 40
1
 10
48.276085
 20
19.930900
 30
0.0
 10
32.998034
 20
19.930900
 30
0.0
 10
20.801764
 20
32.116590
 30
0.0
 10
20.801764
 20
47.381370
 30
0.0
  0
LWPOLYLINE
  5
16a
100
AcDbEntity
  8
Ebene_1
 62
7
100
AcDbPolyline
 90
2
 70
0
 10
171.521200
 20
19.930900
 30
0.0
 10
48.276085
 20
19.930900
 30
0.0
  0
SPLINE
  5
16b
100
AcDbEntity
  8
Ebene_1
 62
7
100
AcDbSpline
 70
8
 71
3
 72
8
 73
4
 74
0
 40
0
 40
0
 40
0
 40
0
 40
1
 40
1
 40
1
 40
1
 10
20.801764
 20
252.610354
 30
0.0
 10
20.801764
 20
267.875122
 30
0.0
 10
32.998034
 20
280.060826
 30
0.0
 10
48.276085
 20
280.060826
 30
0.0
  0
LWPOLYLINE
  5
16c
100
AcDbEntity
  8
Ebene_1
 62
7
100
AcDbPolyline
 90
2
 70
0
 10
20.801764
 20
47.381370
 30
0.0
 10
20.801764
 20
252.610354
 30
0.0
  0
SPLINE
  5
16d
100
AcDbEntity
  8
Ebene_1
 62
7
100
AcDbSpline
 70
8
 71
3
 72
8
 73
4
 74
0
 40
0
 40
0
 40
0
 40
0
 40
1
 40
1
 40
1
 40
1
 10
188.100700
 20
266.000014
 30
0.0
 10
188.100694
 20
264.649687
 30
0.0
 10
187.006566
 20
263.555033
 30
0.0
 10
185.656890
 20
263.555030
 30
0.0
  0
SPLINE
  5
16e
100
AcDbEntity
  8
Ebene_1
 62
7
100
AcDbSpline
 70
8
 71
3
 72
8
 73
4
 74
0
 40
0
 40
0
 40
0
 40
0
 40
1
 40
1
 40
1
 40
1
 10
185.656890
 20
263.555030
 30
0.0
 10
184.307214
 20
263.555033
 30
0.0
 10
183.213086
 20
264.649687
 30
0.0
 10
183.213080
 20
266.000014
 30
0.0
  0
SPLINE
  5
16f
100
AcDbEntity
  8
Ebene_1
 62
7
100
AcDbSpline
 70
8
 71
3
 72
8
 73
4
 74
0
 40
0
 40
0
 40
0
 40
0
 40
1
 40
1
 40
1
 40
1
 10
183.213080
 20
266.000014
 30
0.0
 10
183.213077
 20
266.648468
 30
0.0
 10
183.470548
 20
267.270364
 30
0.0
 10
183.928851
 20
267.728891
 30
0.0
  0
SPLINE
  5
170
100
AcDbEntity
  8
Ebene_1
 62
7
100
AcDbSpline
 70
8
 71
3
 72
8
 73
4
 74
0
 40
0
 40
0
 40
0
 40
0
 40
1
 40
1
 40
1
 40
1
 10
183.928851
 20
267.728891
 30
0.0
 10
184.387155
 20
268.187418
 30
0.0
 10
185.008749
 20
268.445017
 30
0.0
 10
185.656890
 20
268.445019
 30
0.0
  0
SPLINE
  5
171
100
AcDbEntity
  8
Ebene_1
 62
7
100
AcDbSpline
 70
8
 71
3
 72
8
 73
4
 74
0
 40
0
 40
0
 40
0
 40
0
 40
1
 40
1
 40
1
 40
1
 10
185.656890
 20
268.445019
 30
0.0
 10
186.305031
 20
268.445017
 30
0.0
 10
186.926625
 20
268.187418
 30
0.0
 10
187.384928
 20
267.728891
 30
0.0
  0
SPLINE
  5
172
100
AcDbEntity
  8
Ebene_1
 62
7
100
AcDbSpline
 70
8
 71
3
 72
8
 73
4
 74
0
 40
0
 40
0
 40
0
 40
0
 40
1
 40
1
 40
1
 40
1
 10
187.384928
 20
267.728891
 30
0.0
 10
187.843232
 20
267.270364
 30
0.0
 10
188.100703
 20
266.648468
 30
0.0
 10
188.100700
 20
266.000014
 30
0.0
  0
LWPOLYLINE
  5
173
100
AcDbEntity
  8
Ebene_1
 62
7
100
AcDbPolyline
 90
1
 70
1
 10
48.276085
 20
280.060826
 30
0.0
  0
SPLINE
  5
174
100
AcDbEntity
  8
Ebene_1
 62
7
100
AcDbSpline
 70
8
 71
3
 72
8
 73
4
 74
0
 40
0
 40
0
 40
0
 40
0
 40
1
 40
1
 40
1
 40
1
 10
36.584115
 20
266.000014
 30
0.0
 10
36.584109
 20
264.649685
 30
0.0
 10
35.489977
 20
263.555030
 30
0.0
 10
34.140299
 20
263.555030
 30
0.0
  0
SPLINE
  5
175
100
AcDbEntity
  8
Ebene_1
 62
7
100
AcDbSpline
 70
8
 71
3
 72
8
 73
4
 74
0
 40
0
 40
0
 40
0
 40
0
 40
1
 40
1
 40
1
 40
1
 10
34.140299
 20
263.555030
 30
0.0
 10
32.790621
 20
263.555030
 30
0.0
 10
31.696489
 20
264.649685
 30
0.0
 10
31.696483
 20
266.000014
 30
0.0
  0
SPLINE
  5
176
100
AcDbEntity
  8
Ebene_1
 62
7
100
AcDbSpline
 70
8
 71
3
 72
8
 73
4
 74
0
 40
0
 40
0
 40
0
 40
0
 40
1
 40
1
 40
1
 40
1
 10
31.696483
 20
266.000014
 30
0.0
 10
31.696481
 20
266.648469
 30
0.0
 10
31.953952
 20
267.270366
 30
0.0
 10
32.412257
 20
267.728893
 30
0.0
  0
SPLINE
  5
177
100
AcDbEntity
  8
Ebene_1
 62
7
100
AcDbSpline
 70
8
 71
3
 72
8
 73
4
 74
0
 40
0
 40
0
 40
0
 40
0
 40
1
 40
1
 40
1
 40
1
 10
32.412257
 20
267.728893
 30
0.0
 10
32.870562
 20
268.187421
 30
0.0
 10
33.492157
 20
268.445019
 30
0.0
 10
34.140299
 20
268.445019
 30
0.0
  0
SPLINE
  5
178
100
AcDbEntity
  8
Ebene_1
 62
7
100
AcDbSpline
 70
8
 71
3
 72
8
 73
4
 74
0
 40
0
 40
0
 40
0
 40
0
 40
1
 40
1
 40
1
 40
1
 10
34.140299
 20
268.445019
 30
0.0
 10
34.788441
 20
268.445019
 30
0.0
 10
35.410037
 20
268.187421
 30
0.0
 10
35.868342
 20
267.728893
 30
0.0
  0
SPLINE
  5
179
100
AcDbEntity
  8
Ebene_1
 62
7
100
AcDbSpline
 70
8
 71
3
 72
8
 73
4
 74
0
 40
0
 40
0
 40
0
 40
0
 40
1
 40
1
 40
1
 40
1
 10
35.868342
 20
267.728893
 30
0.0
 10
36.326646
 20
267.270366
 30
0.0
 10
36.584118
 20
266.648469
 30
0.0
 10
36.584115
 20
266.000014
 30
0.0
  0
LWPOLYLINE
  5
17a
100
AcDbEntity
  8
Ebene_1
 62
7
100
AcDbPolyline
 90
1
 70
1
 10
188.100700
 20
266.000014
 30
0.0
  0
SPLINE
  5
17b
100
AcDbEntity
  8
Ebene_1
 62
7
100
AcDbSpline
 70
8
 71
3
 72
8
 73
4
 74
0
 40
0
 40
0
 40
0
 40
0
 40
1
 40
1
 40
1
 40
1
 10
188.100700
 20
33.992161
 30
0.0
 10
188.100694
 20
32.641834
 30
0.0
 10
187.006566
 20
31.547180
 30
0.0
 10
185.656890
 20
31.547177
 30
0.0
  0
SPLINE
  5
17c
100
AcDbEntity
  8
Ebene_1
 62
7
100
AcDbSpline
 70
8
 71
3
 72
8
 73
4
 74
0
 40
0
 40
0
 40
0
 40
0
 40
1
 40
1
 40
1
 40
1
 10
185.656890
 20
31.547177
 30
0.0
 10
184.307214
 20
31.547180
 30
0.0
 10
183.213086
 20
32.641834
 30
0.0
 10
183.213080
 20
33.992161
 30
0.0
  0
SPLINE
  5
17d
100
AcDbEntity
  8
Ebene_1
 62
7
100
AcDbSpline
 70
8
 71
3
 72
8
 73
4
 74
0
 40
0
 40
0
 40
0
 40
0
 40
1
 40
1
 40
1
 40
1
 10
183.213080
 20
33.992161
 30
0.0
 10
183.213077
 20
34.640615
 30
0.0
 10
183.470548
 20
35.262510
 30
0.0
 10
183.928851
 20
35.721038
 30
0.0
  0
SPLINE
  5
17e
100
AcDbEntity
  8
Ebene_1
 62
7
100
AcDbSpline
 70
8
 71
3
 72
8
 73
4
 74
0
 40
0
 40
0
 40
0
 40
0
 40
1
 40
1
 40
1
 40
1
 10
183.928851
 20
35.721038
 30
0.0
 10
184.387155
 20
36.179565
 30
0.0
 10
185.008749
 20
36.437164
 30
0.0
 10
185.656890
 20
36.437166
 30
0.0
  0
SPLINE
  5
17f
100
AcDbEntity
  8
Ebene_1
 62
7
100
AcDbSpline
 70
8
 71
3
 72
8
 73
4
 74
0
 40
0
 40
0
 40
0
 40
0
 40
1
 40
1
 40
1
 40
1
 10
185.656890
 20
36.437166
 30
0.0
 10
186.305031
 20
36.437164
 30
0.0
 10
186.926625
 20
36.179565
 30
0.0
 10
187.384928
 20
35.721038
 30
0.0
  0
SPLINE
  5
180
100
AcDbEntity
  8
Ebene_1
 62
7
100
AcDbSpline
 70
8
 71
3
 72
8
 73
4
 74
0
 40
0
 40
0
 40
0
 40
0
 40
1
 40
1
 40
1
 40
1
 10
187.384928
 20
35.721038
 30
0.0
 10
187.843232
 20
35.262510
 30
0.0
 10
188.100703
 20
34.640615
 30
0.0
 10
188.100700
 20
33.992161
 30
0.0
  0
LWPOLYLINE
  5
181
100
AcDbEntity
  8
Ebene_1
 62
7
100
AcDbPolyline
 90
1
 70
1
 10
36.584115
 20
266.000014
 30
0.0
  0
SPLINE
  5
182
100
AcDbEntity
  8
Ebene_1
 62
7
100
AcDbSpline
 70
8
 71
3
 72
8
 73
4
 74
0
 40
0
 40
0
 40
0
 40
0
 40
1
 40
1
 40
1
 40
1
 10
36.584115
 20
33.992161
 30
0.0
 10
36.584109
 20
32.641832
 30
0.0
 10
35.489977
 20
31.547177
 30
0.0
 10
34.140299
 20
31.547177
 30
0.0
  0
SPLINE
  5
183
100
AcDbEntity
  8
Ebene_1
 62
7
100
AcDbSpline
 70
8
 71
3
 72
8
 73
4
 74
0
 40
0
 40
0
 40
0
 40
0
 40
1
 40
1
 40
1
 40
1
 10
34.140299
 20
31.547177
 30
0.0
 10
32.790621
 20
31.547177
 30
0.0
 10
31.696489
 20
32.641832
 30
0.0
 10
31.696483
 20
33.992161
 30
0.0
  0
SPLINE
  5
184
100
AcDbEntity
  8
Ebene_1
 62
7
100
AcDbSpline
 70
8
 71
3
 72
8
 73
4
 74
0
 40
0
 40
0
 40
0
 40
0
 40
1
 40
1
 40
1
 40
1
 10
31.696483
 20
33.992161
 30
0.0
 10
31.696481
 20
34.640616
 30
0.0
 10
31.953952
 20
35.262512
 30
0.0
 10
32.412257
 20
35.721040
 30
0.0
  0
SPLINE
  5
185
100
AcDbEntity
  8
Ebene_1
 62
7
100
AcDbSpline
 70
8
 71
3
 72
8
 73
4
 74
0
 40
0
 40
0
 40
0
 40
0
 40
1
 40
1
 40
1
 40
1
 10
32.412257
 20
35.721040
 30
0.0
 10
32.870562
 20
36.179568
 30
0.0
 10
33.492157
 20
36.437166
 30
0.0
 10
34.140299
 20
36.437166
 30
0.0
  0
SPLINE
  5
186
100
AcDbEntity
  8
Ebene_1
 62
7
100
AcDbSpline
 70
8
 71
3
 72
8
 73
4
 74
0
 40
0
 40
0
 40
0
 40
0
 40
1
 40
1
 40
1
 40
1
 10
34.140299
 20
36.437166
 30
0.0
 10
34.788441
 20
36.437166
 30
0.0
 10
35.410037
 20
36.179568
 30
0.0
 10
35.868342
 20
35.721040
 30
0.0
  0
SPLINE
  5
187
100
AcDbEntity
  8
Ebene_1
 62
7
100
AcDbSpline
 70
8
 71
3
 72
8
 73
4
 74
0
 40
0
 40
0
 40
0
 40
0
 40
1
 40
1
 40
1
 40
1
 10
35.868342
 20
35.721040
 30
0.0
 10
36.326646
 20
35.262512
 30
0.0
 10
36.584118
 20
34.640616
 30
0.0
 10
36.584115
 20
33.992161
 30
0.0
  0
LWPOLYLINE
  5
188
100
AcDbEntity
  8
Ebene_1
 62
7
100
AcDbPolyline
 90
1
 70
1
 10
188.100700
 20
33.992161
 30
0.0
  0
LWPOLYLINE
  5
189
100
AcDbEntity
  8
Ebene_1
 62
7
100
AcDbPolyline
 90
1
 70
1
 10
36.584115
 20
33.992161
 30
0.0
  0
SPLINE
  5
18a
100
AcDbEntity
  8
Ebene_1
 62
7
100
AcDbSpline
 70
8
 71
3
 72
8
 73
4
 74
0
 40
0
 40
0
 40
0
 40
0
 40
1
 40
1
 40
1
 40
1
 10
32.988366
 20
65.647507
 30
0.0
 10
32.988366
 20
64.657576
 30
0.0
 10
33.358079
 20
63.745650
 30
0.0
 10
34.048945
 20
63.036114
 30
0.0
  0
LWPOLYLINE
  5
18b
100
AcDbEntity
  8
Ebene_1
 62
7
100
AcDbPolyline
 90
2
 70
0
 10
32.988366
 20
72.384862
 30
0.0
 10
32.988366
 20
65.647507
 30
0.0
  0
SPLINE
  5
18c
100
AcDbEntity
  8
Ebene_1
 62
7
100
AcDbSpline
 70
8
 71
3
 72
8
 73
4
 74
0
 40
0
 40
0
 40
0
 40
0
 40
1
 40
1
 40
1
 40
1
 10
34.054707
 20
63.030254
 30
0.0
 10
34.751851
 20
62.333112
 30
0.0
 10
35.670641
 20
61.962044
 30
0.0
 10
36.673729
 20
61.962044
 30
0.0
  0
LWPOLYLINE
  5
18d
100
AcDbEntity
  8
Ebene_1
 62
7
100
AcDbPolyline
 90
3
 70
0
 10
34.048945
 20
63.036114
 30
0.0
 10
34.052754
 20
63.032207
 30
0.0
 10
34.054707
 20
63.030254
 30
0.0
  0
SPLINE
  5
18e
100
AcDbEntity
  8
Ebene_1
 62
7
100
AcDbSpline
 70
8
 71
3
 72
8
 73
4
 74
0
 40
0
 40
0
 40
0
 40
0
 40
1
 40
1
 40
1
 40
1
 10
48.878026
 20
61.962044
 30
0.0
 10
49.854909
 20
61.962044
 30
0.0
 10
50.758984
 20
62.333708
 30
0.0
 10
51.466528
 20
63.022626
 30
0.0
  0
SPLINE
  5
18f
100
AcDbEntity
  8
Ebene_1
 62
7
100
AcDbSpline
 70
8
 71
3
 72
8
 73
4
 74
0
 40
0
 40
0
 40
0
 40
0
 40
1
 40
1
 40
1
 40
1
 10
51.466528
 20
63.022626
 30
0.0
 10
52.180969
 20
63.718264
 30
0.0
 10
52.563351
 20
64.640367
 30
0.0
 10
52.563351
 20
65.647371
 30
0.0
  0
LWPOLYLINE
  5
190
100
AcDbEntity
  8
Ebene_1
 62
7
100
AcDbPolyline
 90
2
 70
0
 10
36.673729
 20
61.962044
 30
0.0
 10
48.878026
 20
61.962044
 30
0.0
  0
SPLINE
  5
191
100
AcDbEntity
  8
Ebene_1
 62
7
100
AcDbSpline
 70
8
 71
3
 72
8
 73
4
 74
0
 40
0
 40
0
 40
0
 40
0
 40
1
 40
1
 40
1
 40
1
 10
38.199703
 20
66.282573
 30
0.0
 10
37.919090
 20
66.282573
 30
0.0
 10
37.744253
 20
66.357971
 30
0.0
 10
37.556870
 20
66.530554
 30
0.0
  0
SPLINE
  5
192
100
AcDbEntity
  8
Ebene_1
 62
7
100
AcDbSpline
 70
8
 71
3
 72
8
 73
4
 74
0
 40
0
 40
0
 40
0
 40
0
 40
1
 40
1
 40
1
 40
1
 10
37.556870
 20
66.530554
 30
0.0
 10
37.384246
 20
66.717934
 30
0.0
 10
37.308893
 20
66.892774
 30
0.0
 10
37.308893
 20
67.173385
 30
0.0
  0
LWPOLYLINE
  5
193
100
AcDbEntity
  8
Ebene_1
 62
7
100
AcDbPolyline
 90
3
 70
0
 10
52.563351
 20
65.647371
 30
0.0
 10
52.563351
 20
66.282573
 30
0.0
 10
38.199703
 20
66.282573
 30
0.0
  0
LWPOLYLINE
  5
194
100
AcDbEntity
  8
Ebene_1
 62
7
100
AcDbPolyline
 90
3
 70
0
 10
37.308893
 20
67.173385
 30
0.0
 10
37.308893
 20
72.384725
 30
0.0
 10
32.988366
 20
72.384862
 30
0.0
  0
SPLINE
  5
195
100
AcDbEntity
  8
Ebene_1
 62
7
100
AcDbSpline
 70
8
 71
3
 72
8
 73
4
 74
0
 40
0
 40
0
 40
0
 40
0
 40
1
 40
1
 40
1
 40
1
 10
48.877987
 20
74.166485
 30
0.0
 10
49.854870
 20
74.166485
 30
0.0
 10
50.758945
 20
74.538139
 30
0.0
 10
51.466489
 20
75.227057
 30
0.0
  0
SPLINE
  5
196
100
AcDbEntity
  8
Ebene_1
 62
7
100
AcDbSpline
 70
8
 71
3
 72
8
 73
4
 74
0
 40
0
 40
0
 40
0
 40
0
 40
1
 40
1
 40
1
 40
1
 10
51.466489
 20
75.227057
 30
0.0
 10
52.180930
 20
75.922705
 30
0.0
 10
52.563312
 20
76.844798
 30
0.0
 10
52.563312
 20
77.851801
 30
0.0
  0
LWPOLYLINE
  5
197
100
AcDbEntity
  8
Ebene_1
 62
7
100
AcDbPolyline
 90
4
 70
0
 10
32.988366
 20
78.487004
 30
0.0
 10
32.988366
 20
74.166485
 30
0.0
 10
33.621661
 20
74.166485
 30
0.0
 10
48.877987
 20
74.166485
 30
0.0
  0
LWPOLYLINE
  5
198
100
AcDbEntity
  8
Ebene_1
 62
7
100
AcDbPolyline
 90
3
 70
0
 10
52.563312
 20
77.851801
 30
0.0
 10
52.563312
 20
78.487004
 30
0.0
 10
32.988366
 20
78.487004
 30
0.0
  0
SPLINE
  5
199
100
AcDbEntity
  8
Ebene_1
 62
7
100
AcDbSpline
 70
8
 71
3
 72
8
 73
4
 74
0
 40
0
 40
0
 40
0
 40
0
 40
1
 40
1
 40
1
 40
1
 10
67.184434
 20
68.064333
 30
0.0
 10
68.091151
 20
68.064333
 30
0.0
 10
68.917065
 20
68.415321
 30
0.0
 10
69.599351
 20
69.012366
 30
0.0
  0
LWPOLYLINE
  5
19a
100
AcDbEntity
  8
Ebene_1
 62
7
100
AcDbPolyline
 90
6
 70
0
 10
54.344932
 20
78.487004
 30
0.0
 10
54.344932
 20
61.962181
 30
0.0
 10
54.980136
 20
61.962181
 30
0.0
 10
58.665460
 20
61.962181
 30
0.0
 10
58.665460
 20
68.064333
 30
0.0
 10
67.184434
 20
68.064333
 30
0.0
  0
LWPOLYLINE
  5
19b
100
AcDbEntity
  8
Ebene_1
 62
7
100
AcDbPolyline
 90
10
 70
0
 10
69.599351
 20
69.012366
 30
0.0
 10
69.599351
 20
61.962181
 30
0.0
 10
70.234554
 20
61.962181
 30
0.0
 10
73.919878
 20
61.962181
 30
0.0
 10
73.919878
 20
78.487004
 30
0.0
 10
69.599351
 20
78.487004
 30
0.0
 10
69.599351
 20
72.384862
 30
0.0
 10
58.665460
 20
72.384862
 30
0.0
 10
58.665460
 20
78.487004
 30
0.0
 10
54.344932
 20
78.487004
 30
0.0
  0
LWPOLYLINE
  5
19c
100
AcDbEntity
  8
Ebene_1
 62
7
100
AcDbPolyline
 90
9
 70
1
 10
75.701500
 20
72.384862
 30
0.0
 10
75.701500
 20
61.962181
 30
0.0
 10
76.336703
 20
61.962181
 30
0.0
 10
80.022027
 20
61.962181
 30
0.0
 10
80.022027
 20
68.064333
 30
0.0
 10
90.957825
 20
68.064333
 30
0.0
 10
90.957825
 20
61.962181
 30
0.0
 10
95.278353
 20
61.962181
 30
0.0
 10
95.278353
 20
72.384862
 30
0.0
  0
SPLINE
  5
19d
100
AcDbEntity
  8
Ebene_1
 62
7
100
AcDbSpline
 70
8
 71
3
 72
8
 73
4
 74
0
 40
0
 40
0
 40
0
 40
0
 40
1
 40
1
 40
1
 40
1
 10
75.701500
 20
77.851801
 30
0.0
 10
75.701500
 20
76.861870
 30
0.0
 10
76.073119
 20
75.949943
 30
0.0
 10
76.763987
 20
75.240418
 30
0.0
  0
LWPOLYLINE
  5
19e
100
AcDbEntity
  8
Ebene_1
 62
7
100
AcDbPolyline
 90
2
 70
0
 10
75.701500
 20
78.487004
 30
0.0
 10
75.701500
 20
77.851801
 30
0.0
  0
SPLINE
  5
19f
100
AcDbEntity
  8
Ebene_1
 62
7
100
AcDbSpline
 70
8
 71
3
 72
8
 73
4
 74
0
 40
0
 40
0
 40
0
 40
0
 40
1
 40
1
 40
1
 40
1
 10
76.769749
 20
75.232604
 30
0.0
 10
77.466894
 20
74.535463
 30
0.0
 10
78.385683
 20
74.166309
 30
0.0
 10
79.388771
 20
74.166309
 30
0.0
  0
LWPOLYLINE
  5
1a0
100
AcDbEntity
  8
Ebene_1
 62
7
100
AcDbPolyline
 90
3
 70
0
 10
76.763987
 20
75.240418
 30
0.0
 10
76.765941
 20
75.236511
 30
0.0
 10
76.769749
 20
75.232604
 30
0.0
  0
SPLINE
  5
1a1
100
AcDbEntity
  8
Ebene_1
 62
7
100
AcDbSpline
 70
8
 71
3
 72
8
 73
4
 74
0
 40
0
 40
0
 40
0
 40
0
 40
1
 40
1
 40
1
 40
1
 10
91.591161
 20
74.166309
 30
0.0
 10
92.568044
 20
74.166309
 30
0.0
 10
93.472119
 20
74.537963
 30
0.0
 10
94.179663
 20
75.226881
 30
0.0
  0
SPLINE
  5
1a2
100
AcDbEntity
  8
Ebene_1
 62
7
100
AcDbSpline
 70
8
 71
3
 72
8
 73
4
 74
0
 40
0
 40
0
 40
0
 40
0
 40
1
 40
1
 40
1
 40
1
 10
94.179663
 20
75.226881
 30
0.0
 10
94.894105
 20
75.922529
 30
0.0
 10
95.278393
 20
76.844622
 30
0.0
 10
95.278393
 20
77.851625
 30
0.0
  0
LWPOLYLINE
  5
1a3
100
AcDbEntity
  8
Ebene_1
 62
7
100
AcDbPolyline
 90
2
 70
0
 10
79.388771
 20
74.166309
 30
0.0
 10
91.591161
 20
74.166309
 30
0.0
  0
LWPOLYLINE
  5
1a4
100
AcDbEntity
  8
Ebene_1
 62
7
100
AcDbPolyline
 90
3
 70
0
 10
95.278393
 20
77.851625
 30
0.0
 10
95.278393
 20
78.486828
 30
0.0
 10
75.701500
 20
78.487004
 30
0.0
  0
SPLINE
  5
1a5
100
AcDbEntity
  8
Ebene_1
 62
7
100
AcDbSpline
 70
8
 71
3
 72
8
 73
4
 74
0
 40
0
 40
0
 40
0
 40
0
 40
1
 40
1
 40
1
 40
1
 10
97.059974
 20
77.851801
 30
0.0
 10
97.059974
 20
76.861870
 30
0.0
 10
97.429687
 20
75.949943
 30
0.0
 10
98.120554
 20
75.240418
 30
0.0
  0
LWPOLYLINE
  5
1a6
100
AcDbEntity
  8
Ebene_1
 62
7
100
AcDbPolyline
 90
2
 70
0
 10
97.059974
 20
78.487004
 30
0.0
 10
97.059974
 20
77.851801
 30
0.0
  0
SPLINE
  5
1a7
100
AcDbEntity
  8
Ebene_1
 62
7
100
AcDbSpline
 70
8
 71
3
 72
8
 73
4
 74
0
 40
0
 40
0
 40
0
 40
0
 40
1
 40
1
 40
1
 40
1
 10
98.126316
 20
75.232604
 30
0.0
 10
98.823462
 20
74.535463
 30
0.0
 10
99.742247
 20
74.166309
 30
0.0
 10
100.745342
 20
74.166309
 30
0.0
  0
LWPOLYLINE
  5
1a8
100
AcDbEntity
  8
Ebene_1
 62
7
100
AcDbPolyline
 90
3
 70
0
 10
98.120554
 20
75.240418
 30
0.0
 10
98.124362
 20
75.236511
 30
0.0
 10
98.126316
 20
75.232604
 30
0.0
  0
SPLINE
  5
1a9
100
AcDbEntity
  8
Ebene_1
 62
7
100
AcDbSpline
 70
8
 71
3
 72
8
 73
4
 74
0
 40
0
 40
0
 40
0
 40
0
 40
1
 40
1
 40
1
 40
1
 10
112.314433
 20
73.275497
 30
0.0
 10
112.314433
 20
72.998754
 30
0.0
 10
112.241477
 20
72.827255
 30
0.0
 10
112.051197
 20
72.634572
 30
0.0
  0
SPLINE
  5
1aa
100
AcDbEntity
  8
Ebene_1
 62
7
100
AcDbSpline
 70
8
 71
3
 72
8
 73
4
 74
0
 40
0
 40
0
 40
0
 40
0
 40
1
 40
1
 40
1
 40
1
 10
112.051197
 20
72.634572
 30
0.0
 10
111.857263
 20
72.453179
 30
0.0
 10
111.686975
 20
72.384686
 30
0.0
 10
111.423621
 20
72.384686
 30
0.0
  0
LWPOLYLINE
  5
1ab
100
AcDbEntity
  8
Ebene_1
 62
7
100
AcDbPolyline
 90
3
 70
0
 10
100.745342
 20
74.166309
 30
0.0
 10
112.314433
 20
74.166309
 30
0.0
 10
112.314433
 20
73.275497
 30
0.0
  0
SPLINE
  5
1ac
100
AcDbEntity
  8
Ebene_1
 62
7
100
AcDbSpline
 70
8
 71
3
 72
8
 73
4
 74
0
 40
0
 40
0
 40
0
 40
0
 40
1
 40
1
 40
1
 40
1
 10
112.949596
 20
68.064157
 30
0.0
 10
113.926480
 20
68.064157
 30
0.0
 10
114.828640
 20
68.435811
 30
0.0
 10
115.536193
 20
69.124739
 30
0.0
  0
SPLINE
  5
1ad
100
AcDbEntity
  8
Ebene_1
 62
7
100
AcDbSpline
 70
8
 71
3
 72
8
 73
4
 74
0
 40
0
 40
0
 40
0
 40
0
 40
1
 40
1
 40
1
 40
1
 10
115.536193
 20
69.124739
 30
0.0
 10
116.250631
 20
69.820377
 30
0.0
 10
116.634923
 20
70.742470
 30
0.0
 10
116.634923
 20
71.749483
 30
0.0
  0
LWPOLYLINE
  5
1ae
100
AcDbEntity
  8
Ebene_1
 62
7
100
AcDbPolyline
 90
11
 70
0
 10
111.423621
 20
72.384686
 30
0.0
 10
97.059974
 20
72.384686
 30
0.0
 10
97.059974
 20
61.962005
 30
0.0
 10
97.693270
 20
61.962005
 30
0.0
 10
101.380505
 20
61.962005
 30
0.0
 10
101.380505
 20
68.064157
 30
0.0
 10
105.058194
 20
68.064157
 30
0.0
 10
111.160346
 20
61.962005
 30
0.0
 10
117.533362
 20
61.962005
 30
0.0
 10
111.431210
 20
68.064157
 30
0.0
 10
112.949596
 20
68.064157
 30
0.0
  0
LWPOLYLINE
  5
1af
100
AcDbEntity
  8
Ebene_1
 62
7
100
AcDbPolyline
 90
3
 70
0
 10
116.634923
 20
71.749483
 30
0.0
 10
116.634923
 20
78.486828
 30
0.0
 10
97.059974
 20
78.487004
 30
0.0
  0
SPLINE
  5
1b0
100
AcDbEntity
  8
Ebene_1
 62
7
100
AcDbSpline
 70
8
 71
3
 72
8
 73
4
 74
0
 40
0
 40
0
 40
0
 40
0
 40
1
 40
1
 40
1
 40
1
 10
118.416536
 20
65.647507
 30
0.0
 10
118.416545
 20
64.657576
 30
0.0
 10
118.788160
 20
63.745650
 30
0.0
 10
119.479032
 20
63.036114
 30
0.0
  0
LWPOLYLINE
  5
1b1
100
AcDbEntity
  8
Ebene_1
 62
7
100
AcDbPolyline
 90
2
 70
0
 10
118.416536
 20
72.384862
 30
0.0
 10
118.416536
 20
65.647507
 30
0.0
  0
SPLINE
  5
1b2
100
AcDbEntity
  8
Ebene_1
 62
7
100
AcDbSpline
 70
8
 71
3
 72
8
 73
4
 74
0
 40
0
 40
0
 40
0
 40
0
 40
1
 40
1
 40
1
 40
1
 10
119.484892
 20
63.030254
 30
0.0
 10
120.182034
 20
62.333112
 30
0.0
 10
121.098912
 20
61.962044
 30
0.0
 10
122.101999
 20
61.962044
 30
0.0
  0
LWPOLYLINE
  5
1b3
100
AcDbEntity
  8
Ebene_1
 62
7
100
AcDbPolyline
 90
3
 70
0
 10
119.479032
 20
63.036114
 30
0.0
 10
119.480985
 20
63.032207
 30
0.0
 10
119.484892
 20
63.030254
 30
0.0
  0
SPLINE
  5
1b4
100
AcDbEntity
  8
Ebene_1
 62
7
100
AcDbSpline
 70
8
 71
3
 72
8
 73
4
 74
0
 40
0
 40
0
 40
0
 40
0
 40
1
 40
1
 40
1
 40
1
 10
124.518824
 20
71.749522
 30
0.0
 10
124.518824
 20
70.759591
 30
0.0
 10
124.888544
 20
69.847665
 30
0.0
 10
125.579406
 20
69.138129
 30
0.0
  0
LWPOLYLINE
  5
1b5
100
AcDbEntity
  8
Ebene_1
 62
7
100
AcDbPolyline
 90
5
 70
0
 10
122.101999
 20
61.962044
 30
0.0
 10
137.991619
 20
61.962044
 30
0.0
 10
137.991619
 20
72.384725
 30
0.0
 10
124.518824
 20
72.384725
 30
0.0
 10
124.518824
 20
71.749522
 30
0.0
  0
SPLINE
  5
1b6
100
AcDbEntity
  8
Ebene_1
 62
7
100
AcDbSpline
 70
8
 71
3
 72
8
 73
4
 74
0
 40
0
 40
0
 40
0
 40
0
 40
1
 40
1
 40
1
 40
1
 10
125.587220
 20
69.130316
 30
0.0
 10
126.284371
 20
68.433174
 30
0.0
 10
127.201249
 20
68.064010
 30
0.0
 10
128.204336
 20
68.064010
 30
0.0
  0
LWPOLYLINE
  5
1b7
100
AcDbEntity
  8
Ebene_1
 62
7
100
AcDbPolyline
 90
3
 70
0
 10
125.579406
 20
69.138129
 30
0.0
 10
125.583313
 20
69.134222
 30
0.0
 10
125.587220
 20
69.130316
 30
0.0
  0
SPLINE
  5
1b8
100
AcDbEntity
  8
Ebene_1
 62
7
100
AcDbSpline
 70
8
 71
3
 72
8
 73
4
 74
0
 40
0
 40
0
 40
0
 40
0
 40
1
 40
1
 40
1
 40
1
 10
123.628198
 20
66.282388
 30
0.0
 10
123.348594
 20
66.282388
 30
0.0
 10
123.173910
 20
66.357199
 30
0.0
 10
122.987273
 20
66.528455
 30
0.0
  0
SPLINE
  5
1b9
100
AcDbEntity
  8
Ebene_1
 62
7
100
AcDbSpline
 70
8
 71
3
 72
8
 73
4
 74
0
 40
0
 40
0
 40
0
 40
0
 40
1
 40
1
 40
1
 40
1
 10
122.987273
 20
66.528455
 30
0.0
 10
122.813654
 20
66.716381
 30
0.0
 10
122.737387
 20
66.891856
 30
0.0
 10
122.737387
 20
67.173199
 30
0.0
  0
LWPOLYLINE
  5
1ba
100
AcDbEntity
  8
Ebene_1
 62
7
100
AcDbPolyline
 90
4
 70
0
 10
128.204336
 20
68.064010
 30
0.0
 10
133.671285
 20
68.064010
 30
0.0
 10
133.671285
 20
66.282388
 30
0.0
 10
123.628198
 20
66.282388
 30
0.0
  0
LWPOLYLINE
  5
1bb
100
AcDbEntity
  8
Ebene_1
 62
7
100
AcDbPolyline
 90
3
 70
0
 10
122.737387
 20
67.173199
 30
0.0
 10
122.737387
 20
72.384540
 30
0.0
 10
118.416536
 20
72.384862
 30
0.0
  0
SPLINE
  5
1bc
100
AcDbEntity
  8
Ebene_1
 62
7
100
AcDbSpline
 70
8
 71
3
 72
8
 73
4
 74
0
 40
0
 40
0
 40
0
 40
0
 40
1
 40
1
 40
1
 40
1
 10
134.306166
 20
74.166485
 30
0.0
 10
135.283049
 20
74.166485
 30
0.0
 10
136.187114
 20
74.538139
 30
0.0
 10
136.894666
 20
75.227057
 30
0.0
  0
SPLINE
  5
1bd
100
AcDbEntity
  8
Ebene_1
 62
7
100
AcDbSpline
 70
8
 71
3
 72
8
 73
4
 74
0
 40
0
 40
0
 40
0
 40
0
 40
1
 40
1
 40
1
 40
1
 10
136.894666
 20
75.227057
 30
0.0
 10
137.609105
 20
75.922705
 30
0.0
 10
137.991482
 20
76.844798
 30
0.0
 10
137.991482
 20
77.851801
 30
0.0
  0
LWPOLYLINE
  5
1be
100
AcDbEntity
  8
Ebene_1
 62
7
100
AcDbPolyline
 90
4
 70
0
 10
118.416536
 20
78.487004
 30
0.0
 10
118.416536
 20
74.166485
 30
0.0
 10
119.051748
 20
74.166485
 30
0.0
 10
134.306166
 20
74.166485
 30
0.0
  0
LWPOLYLINE
  5
1bf
100
AcDbEntity
  8
Ebene_1
 62
7
100
AcDbPolyline
 90
3
 70
0
 10
137.991482
 20
77.851801
 30
0.0
 10
137.991482
 20
78.487004
 30
0.0
 10
118.416536
 20
78.487004
 30
0.0
  0
LWPOLYLINE
  5
1c0
100
AcDbEntity
  8
Ebene_1
 62
7
100
AcDbPolyline
 90
5
 70
1
 10
139.773105
 20
78.487004
 30
0.0
 10
139.773105
 20
61.962181
 30
0.0
 10
140.408308
 20
61.962181
 30
0.0
 10
144.093634
 20
61.962181
 30
0.0
 10
144.093634
 20
78.487004
 30
0.0
  0
LWPOLYLINE
  5
1c1
100
AcDbEntity
  8
Ebene_1
 62
7
100
AcDbPolyline
 90
12
 70
1
 10
144.976818
 20
78.487004
 30
0.0
 10
148.925380
 20
74.538451
 30
0.0
 10
148.925380
 20
61.962181
 30
0.0
 10
149.560583
 20
61.962181
 30
0.0
 10
153.247814
 20
61.962181
 30
0.0
 10
153.247814
 20
70.216008
 30
0.0
 10
161.501641
 20
61.962181
 30
0.0
 10
165.450203
 20
61.962181
 30
0.0
 10
165.450203
 20
78.487004
 30
0.0
 10
161.129674
 20
78.487004
 30
0.0
 10
161.129674
 20
68.705259
 30
0.0
 10
151.349833
 20
78.487004
 30
0.0
  0
SPLINE
  5
1c2
100
AcDbEntity
  8
Ebene_1
 62
7
100
AcDbSpline
 70
8
 71
3
 72
8
 73
4
 74
0
 40
0
 40
0
 40
0
 40
0
 40
1
 40
1
 40
1
 40
1
 10
167.231826
 20
65.647507
 30
0.0
 10
167.231826
 20
64.657576
 30
0.0
 10
167.603441
 20
63.745650
 30
0.0
 10
168.294313
 20
63.036114
 30
0.0
  0
LWPOLYLINE
  5
1c3
100
AcDbEntity
  8
Ebene_1
 62
7
100
AcDbPolyline
 90
2
 70
0
 10
167.231826
 20
72.384862
 30
0.0
 10
167.231826
 20
65.647507
 30
0.0
  0
SPLINE
  5
1c4
100
AcDbEntity
  8
Ebene_1
 62
7
100
AcDbSpline
 70
8
 71
3
 72
8
 73
4
 74
0
 40
0
 40
0
 40
0
 40
0
 40
1
 40
1
 40
1
 40
1
 10
168.300173
 20
63.030254
 30
0.0
 10
168.997314
 20
62.333112
 30
0.0
 10
169.916107
 20
61.962044
 30
0.0
 10
170.919194
 20
61.962044
 30
0.0
  0
LWPOLYLINE
  5
1c5
100
AcDbEntity
  8
Ebene_1
 62
7
100
AcDbPolyline
 90
3
 70
0
 10
168.294313
 20
63.036114
 30
0.0
 10
168.298219
 20
63.032207
 30
0.0
 10
168.300173
 20
63.030254
 30
0.0
  0
SPLINE
  5
1c6
100
AcDbEntity
  8
Ebene_1
 62
7
100
AcDbSpline
 70
8
 71
3
 72
8
 73
4
 74
0
 40
0
 40
0
 40
0
 40
0
 40
1
 40
1
 40
1
 40
1
 10
173.334105
 20
71.749522
 30
0.0
 10
173.334105
 20
70.759591
 30
0.0
 10
173.705729
 20
69.847665
 30
0.0
 10
174.396591
 20
69.138129
 30
0.0
  0
LWPOLYLINE
  5
1c7
100
AcDbEntity
  8
Ebene_1
 62
7
100
AcDbPolyline
 90
5
 70
0
 10
170.919194
 20
61.962044
 30
0.0
 10
186.808814
 20
61.962044
 30
0.0
 10
186.808814
 20
72.384725
 30
0.0
 10
173.334105
 20
72.384725
 30
0.0
 10
173.334105
 20
71.749522
 30
0.0
  0
SPLINE
  5
1c8
100
AcDbEntity
  8
Ebene_1
 62
7
100
AcDbSpline
 70
8
 71
3
 72
8
 73
4
 74
0
 40
0
 40
0
 40
0
 40
0
 40
1
 40
1
 40
1
 40
1
 10
174.402451
 20
69.130316
 30
0.0
 10
175.099603
 20
68.433164
 30
0.0
 10
176.018385
 20
68.064010
 30
0.0
 10
177.021472
 20
68.064010
 30
0.0
  0
LWPOLYLINE
  5
1c9
100
AcDbEntity
  8
Ebene_1
 62
7
100
AcDbPolyline
 90
3
 70
0
 10
174.396591
 20
69.138129
 30
0.0
 10
174.398545
 20
69.134222
 30
0.0
 10
174.402451
 20
69.130316
 30
0.0
  0
SPLINE
  5
1ca
100
AcDbEntity
  8
Ebene_1
 62
7
100
AcDbSpline
 70
8
 71
3
 72
8
 73
4
 74
0
 40
0
 40
0
 40
0
 40
0
 40
1
 40
1
 40
1
 40
1
 10
172.443430
 20
66.282388
 30
0.0
 10
172.163825
 20
66.282388
 30
0.0
 10
171.989152
 20
66.357199
 30
0.0
 10
171.802504
 20
66.528455
 30
0.0
  0
SPLINE
  5
1cb
100
AcDbEntity
  8
Ebene_1
 62
7
100
AcDbSpline
 70
8
 71
3
 72
8
 73
4
 74
0
 40
0
 40
0
 40
0
 40
0
 40
1
 40
1
 40
1
 40
1
 10
171.802504
 20
66.528455
 30
0.0
 10
171.628885
 20
66.716381
 30
0.0
 10
171.552629
 20
66.891856
 30
0.0
 10
171.552629
 20
67.173199
 30
0.0
  0
LWPOLYLINE
  5
1cc
100
AcDbEntity
  8
Ebene_1
 62
7
100
AcDbPolyline
 90
4
 70
0
 10
177.021472
 20
68.064010
 30
0.0
 10
182.488421
 20
68.064010
 30
0.0
 10
182.488421
 20
66.282388
 30
0.0
 10
172.443430
 20
66.282388
 30
0.0
  0
LWPOLYLINE
  5
1cd
100
AcDbEntity
  8
Ebene_1
 62
7
100
AcDbPolyline
 90
3
 70
0
 10
171.552629
 20
67.173199
 30
0.0
 10
171.552629
 20
72.384540
 30
0.0
 10
167.231826
 20
72.384862
 30
0.0
  0
SPLINE
  5
1ce
100
AcDbEntity
  8
Ebene_1
 62
7
100
AcDbSpline
 70
8
 71
3
 72
8
 73
4
 74
0
 40
0
 40
0
 40
0
 40
0
 40
1
 40
1
 40
1
 40
1
 10
183.121446
 20
74.166485
 30
0.0
 10
184.098330
 20
74.166485
 30
0.0
 10
185.002404
 20
74.538139
 30
0.0
 10
185.709947
 20
75.227057
 30
0.0
  0
SPLINE
  5
1cf
100
AcDbEntity
  8
Ebene_1
 62
7
100
AcDbSpline
 70
8
 71
3
 72
8
 73
4
 74
0
 40
0
 40
0
 40
0
 40
0
 40
1
 40
1
 40
1
 40
1
 10
185.709947
 20
75.227057
 30
0.0
 10
186.424385
 20
75.922705
 30
0.0
 10
186.808677
 20
76.844798
 30
0.0
 10
186.808677
 20
77.851801
 30
0.0
  0
LWPOLYLINE
  5
1d0
100
AcDbEntity
  8
Ebene_1
 62
7
100
AcDbPolyline
 90
4
 70
0
 10
167.231826
 20
78.487004
 30
0.0
 10
167.231826
 20
74.166485
 30
0.0
 10
167.867029
 20
74.166485
 30
0.0
 10
183.121446
 20
74.166485
 30
0.0
  0
LWPOLYLINE
  5
1d1
100
AcDbEntity
  8
Ebene_1
 62
7
100
AcDbPolyline
 90
3
 70
0
 10
186.808677
 20
77.851801
 30
0.0
 10
186.808677
 20
78.487004
 30
0.0
 10
167.231826
 20
78.487004
 30
0.0
  0
LWPOLYLINE
  5
1d2
100
AcDbEntity
  8
Ebene_1
 62
7
100
AcDbPolyline
 90
9
 70
1
 10
68.075244
 20
48.592647
 30
0.0
 10
68.075244
 20
38.169976
 30
0.0
 10
68.708540
 20
38.169976
 30
0.0
 10
87.650190
 20
38.169976
 30
0.0
 10
87.650190
 20
48.592647
 30
0.0
 10
83.329662
 20
48.592647
 30
0.0
 10
83.329662
 20
42.490505
 30
0.0
 10
72.395771
 20
42.490505
 30
0.0
 10
72.395771
 20
48.592647
 30
0.0
  0
SPLINE
  5
1d3
100
AcDbEntity
  8
Ebene_1
 62
7
100
AcDbSpline
 70
8
 71
3
 72
8
 73
4
 74
0
 40
0
 40
0
 40
0
 40
0
 40
1
 40
1
 40
1
 40
1
 10
68.075244
 20
54.059596
 30
0.0
 10
68.075244
 20
53.069665
 30
0.0
 10
69.128581
 20
52.438496
 30
0.0
 10
69.135824
 20
51.448203
 30
0.0
  0
LWPOLYLINE
  5
1d4
100
AcDbEntity
  8
Ebene_1
 62
7
100
AcDbPolyline
 90
2
 70
0
 10
68.075244
 20
54.694799
 30
0.0
 10
68.075244
 20
54.059596
 30
0.0
  0
SPLINE
  5
1d5
100
AcDbEntity
  8
Ebene_1
 62
7
100
AcDbSpline
 70
8
 71
3
 72
8
 73
4
 74
0
 40
0
 40
0
 40
0
 40
0
 40
1
 40
1
 40
1
 40
1
 10
69.141587
 20
51.442343
 30
0.0
 10
69.838729
 20
50.745201
 30
0.0
 10
70.757520
 20
50.374133
 30
0.0
 10
71.760609
 20
50.374133
 30
0.0
  0
LWPOLYLINE
  5
1d6
100
AcDbEntity
  8
Ebene_1
 62
7
100
AcDbPolyline
 90
3
 70
0
 10
69.135824
 20
51.448203
 30
0.0
 10
69.139633
 20
51.444296
 30
0.0
 10
69.141587
 20
51.442343
 30
0.0
  0
SPLINE
  5
1d7
100
AcDbEntity
  8
Ebene_1
 62
7
100
AcDbSpline
 70
8
 71
3
 72
8
 73
4
 74
0
 40
0
 40
0
 40
0
 40
0
 40
1
 40
1
 40
1
 40
1
 10
83.964905
 20
50.374133
 30
0.0
 10
84.941789
 20
50.374133
 30
0.0
 10
85.845864
 20
50.747701
 30
0.0
 10
86.553407
 20
51.436620
 30
0.0
  0
SPLINE
  5
1d8
100
AcDbEntity
  8
Ebene_1
 62
7
100
AcDbSpline
 70
8
 71
3
 72
8
 73
4
 74
0
 40
0
 40
0
 40
0
 40
0
 40
1
 40
1
 40
1
 40
1
 10
86.553407
 20
51.436620
 30
0.0
 10
87.267849
 20
52.132267
 30
0.0
 10
87.650230
 20
53.052456
 30
0.0
 10
87.650230
 20
54.059460
 30
0.0
  0
LWPOLYLINE
  5
1d9
100
AcDbEntity
  8
Ebene_1
 62
7
100
AcDbPolyline
 90
2
 70
0
 10
71.760609
 20
50.374133
 30
0.0
 10
83.964905
 20
50.374133
 30
0.0
  0
LWPOLYLINE
  5
1da
100
AcDbEntity
  8
Ebene_1
 62
7
100
AcDbPolyline
 90
3
 70
0
 10
87.650230
 20
54.059460
 30
0.0
 10
87.650230
 20
54.694662
 30
0.0
 10
68.075244
 20
54.694799
 30
0.0
  0
LWPOLYLINE
  5
1db
100
AcDbEntity
  8
Ebene_1
 62
7
100
AcDbPolyline
 90
12
 70
1
 10
88.533370
 20
54.694799
 30
0.0
 10
92.481932
 20
50.746236
 30
0.0
 10
92.481932
 20
38.169976
 30
0.0
 10
93.117135
 20
38.169976
 30
0.0
 10
96.802459
 20
38.169976
 30
0.0
 10
96.802459
 20
46.425707
 30
0.0
 10
105.058194
 20
38.169976
 30
0.0
 10
109.006757
 20
38.169976
 30
0.0
 10
109.006757
 20
54.694799
 30
0.0
 10
104.686228
 20
54.694799
 30
0.0
 10
104.686228
 20
44.913054
 30
0.0
 10
94.906386
 20
54.694799
 30
0.0
  0
SPLINE
  5
1dc
100
AcDbEntity
  8
Ebene_1
 62
7
100
AcDbSpline
 70
8
 71
3
 72
8
 73
4
 74
0
 40
0
 40
0
 40
0
 40
0
 40
1
 40
1
 40
1
 40
1
 10
126.678000
 20
38.169976
 30
0.0
 10
127.654883
 20
38.169976
 30
0.0
 10
128.558957
 20
38.543535
 30
0.0
 10
129.266501
 20
39.232463
 30
0.0
  0
SPLINE
  5
1dd
100
AcDbEntity
  8
Ebene_1
 62
7
100
AcDbSpline
 70
8
 71
3
 72
8
 73
4
 74
0
 40
0
 40
0
 40
0
 40
0
 40
1
 40
1
 40
1
 40
1
 10
129.266501
 20
39.232463
 30
0.0
 10
129.980949
 20
39.928101
 30
0.0
 10
130.365231
 20
40.848290
 30
0.0
 10
130.365231
 20
41.855303
 30
0.0
  0
LWPOLYLINE
  5
1de
100
AcDbEntity
  8
Ebene_1
 62
7
100
AcDbPolyline
 90
4
 70
0
 10
110.788380
 20
54.694799
 30
0.0
 10
110.788380
 20
38.169976
 30
0.0
 10
111.423582
 20
38.169976
 30
0.0
 10
126.678000
 20
38.169976
 30
0.0
  0
LWPOLYLINE
  5
1df
100
AcDbEntity
  8
Ebene_1
 62
7
100
AcDbPolyline
 90
5
 70
0
 10
130.365231
 20
41.855303
 30
0.0
 10
130.365231
 20
42.490505
 30
0.0
 10
115.108909
 20
42.490505
 30
0.0
 10
115.108909
 20
54.694799
 30
0.0
 10
110.788380
 20
54.694799
 30
0.0
  0
LWPOLYLINE
  5
1e0
100
AcDbEntity
  8
Ebene_1
 62
7
100
AcDbPolyline
 90
14
 70
1
 10
132.144949
 20
54.694799
 30
0.0
 10
132.144949
 20
50.746236
 30
0.0
 10
139.773105
 20
43.118071
 30
0.0
 10
139.773105
 20
38.169976
 30
0.0
 10
140.408308
 20
38.169976
 30
0.0
 10
144.093634
 20
38.169976
 30
0.0
 10
144.093634
 20
43.118071
 30
0.0
 10
151.721800
 20
50.746236
 30
0.0
 10
151.721800
 20
54.694799
 30
0.0
 10
147.401271
 20
54.694799
 30
0.0
 10
147.401271
 20
52.796818
 30
0.0
 10
141.934322
 20
47.329869
 30
0.0
 10
136.465468
 20
52.796818
 30
0.0
 10
136.465468
 20
54.694799
 30
0.0
  0
ENDSEC
  0
SECTION
  2
OBJECTS
  0
DICTIONARY
  5
C
330
0
100
AcDbDictionary
  3
ACAD_GROUP
350
D
  3
ACAD_MLINESTYLE
350
17
  0
DICTIONARY
  5
D
330
C
100
AcDbDictionary
  0
DICTIONARY
  5
1A
330
C
100
AcDbDictionary
  0
DICTIONARY
  5
17
330
C
100
AcDbDictionary
  3
STANDARD
350
18
  0
DICTIONARY
  5
19
330
C
100
AcDbDictionary
  0
ENDSEC
  0
EOF
