<?xml version="1.0" encoding="UTF-8" standalone="no"?>
<svg
   xmlns:dc="http://purl.org/dc/elements/1.1/"
   xmlns:cc="http://creativecommons.org/ns#"
   xmlns:rdf="http://www.w3.org/1999/02/22-rdf-syntax-ns#"
   xmlns:svg="http://www.w3.org/2000/svg"
   xmlns="http://www.w3.org/2000/svg"
   xmlns:sodipodi="http://sodipodi.sourceforge.net/DTD/sodipodi-0.dtd"
   xmlns:inkscape="http://www.inkscape.org/namespaces/inkscape"
   sodipodi:docname="TeslaParkingV3TimesRoman.svg"
   inkscape:version="1.0 (4035a4fb49, 2020-05-01)"
   id="svg8"
   version="1.1"
   viewBox="0 0 210 297"
   height="297mm"
   width="210mm">
  <defs
     id="defs2" />
  <sodipodi:namedview
     inkscape:document-rotation="0"
     inkscape:window-maximized="1"
     inkscape:window-y="-8"
     inkscape:window-x="1912"
     inkscape:window-height="1377"
     inkscape:window-width="3440"
     showgrid="true"
     inkscape:current-layer="layer1"
     inkscape:document-units="mm"
     inkscape:cy="466.47044"
     inkscape:cx="-860.13175"
     inkscape:zoom="0.7"
     inkscape:pageshadow="2"
     inkscape:pageopacity="0.0"
     borderopacity="1.0"
     bordercolor="#666666"
     pagecolor="#ffffff"
     id="base">
    <inkscape:grid
       empspacing="5"
       id="grid21485"
       type="xygrid" />
  </sodipodi:namedview>
  <metadata
     id="metadata5">
    <rdf:RDF>
      <cc:Work
         rdf:about="">
        <dc:format>image/svg+xml</dc:format>
        <dc:type
           rdf:resource="http://purl.org/dc/dcmitype/StillImage" />
        <dc:title />
      </cc:Work>
    </rdf:RDF>
  </metadata>
  <g
     id="layer1"
     inkscape:groupmode="layer"
     inkscape:label="Ebene 1">
    <g
       transform="translate(240.43452,-3.829117)"
       id="text861"
       style="font-style:normal;font-variant:normal;font-weight:bold;font-stretch:normal;font-size:34.6777px;line-height:1;font-family:'Sitka Small';-inkscape-font-specification:'Sitka Small Bold';text-align:center;letter-spacing:0px;word-spacing:0px;text-anchor:middle;fill:#000000;fill-opacity:1;stroke:none;stroke-width:0.264583"
       aria-label="PARKING ONLY">
      <path
         inkscape:connector-curvature="0"
         id="path892"
         style="font-style:normal;font-variant:normal;font-weight:bold;font-stretch:normal;line-height:1;font-family:'Sitka Small';-inkscape-font-specification:'Sitka Small Bold';text-align:center;text-anchor:middle;stroke-width:0.264583"
         d="m -214.22688,226.42084 2.55354,-1.04033 q 0.26796,-0.11033 0.40983,-0.2522 0.14186,-0.15762 0.14186,-0.5044 v -16.40885 q 0,-0.31525 -0.15763,-0.45712 -0.15762,-0.14186 -0.39406,-0.23643 l -2.55354,-1.04033 v -1.46592 h 11.66431 q 1.84423,0 3.45201,0.3783 1.62355,0.3783 2.8215,1.18219 1.19796,0.80389 1.89151,2.08066 0.69356,1.26101 0.69356,3.04218 0,1.87575 -0.59898,3.37319 -0.59898,1.49745 -1.67084,2.53778 -1.07185,1.04033 -2.55354,1.60778 -1.48168,0.55169 -3.24709,0.55169 -0.40982,0 -0.92999,-0.0788 -0.52017,-0.0946 -1.05609,-0.2522 -0.52017,-0.15763 -1.04033,-0.36254 -0.50441,-0.22068 -0.88271,-0.45711 v 6.00554 q 0,0.34678 0.17339,0.52016 0.18915,0.15763 0.40983,0.23644 l 2.66387,1.04033 v 1.46592 h -11.79041 z m 11.11262,-9.6467 q 0.78813,0 1.37135,-0.22067 0.58321,-0.23644 0.99304,-0.59898 0.40983,-0.36254 0.66203,-0.81966 0.26796,-0.47287 0.40983,-0.94575 0.14186,-0.48864 0.18915,-0.92999 0.063,-0.44136 0.063,-0.77237 0,-0.89847 -0.22068,-1.71812 -0.20491,-0.83542 -0.72508,-1.46592 -0.5044,-0.63051 -1.37134,-1.00881 -0.86694,-0.3783 -2.15948,-0.3783 h -1.78117 v 8.59061 q 0.22068,0.0631 0.53593,0.11034 0.31525,0.0473 0.66203,0.0946 0.34677,0.0315 0.69355,0.0473 0.36254,0.0158 0.67779,0.0158 z" />
      <path
         inkscape:connector-curvature="0"
         id="path894"
         style="font-style:normal;font-variant:normal;font-weight:bold;font-stretch:normal;line-height:1;font-family:'Sitka Small';-inkscape-font-specification:'Sitka Small Bold';text-align:center;text-anchor:middle;stroke-width:0.264583"
         d="m -193.89192,226.42084 1.6866,-0.81965 q 0.53593,-0.2522 0.77237,-0.85118 l 6.46266,-16.26699 1.90727,-3.81454 h 4.24014 l 7.72366,20.16034 q 0.11034,0.26797 0.28373,0.50441 0.17339,0.23643 0.40983,0.33101 l 1.7654,0.7566 v 1.46592 h -10.48211 v -1.46592 l 2.63235,-1.04033 -1.87575,-4.58691 h -8.22807 l -1.73388,4.49234 2.67964,1.1349 v 1.46592 h -8.24384 z m 14.43853,-8.41722 -2.17523,-5.61148 -0.56746,-2.12794 h -0.34677 l -2.93185,7.73942 z" />
      <path
         inkscape:connector-curvature="0"
         id="path896"
         style="font-style:normal;font-variant:normal;font-weight:bold;font-stretch:normal;line-height:1;font-family:'Sitka Small';-inkscape-font-specification:'Sitka Small Bold';text-align:center;text-anchor:middle;stroke-width:0.264583"
         d="m -166.95144,226.42084 2.55354,-1.04033 q 0.22067,-0.0946 0.3783,-0.2522 0.17339,-0.15762 0.17339,-0.5044 v -16.40885 q 0,-0.31525 -0.17339,-0.45712 -0.15763,-0.15762 -0.3783,-0.23643 l -2.55354,-1.04033 v -1.46592 h 11.91651 q 1.74965,0 3.05794,0.23643 1.32406,0.23644 2.25405,0.66203 0.94576,0.40983 1.54473,0.97728 0.61475,0.55169 0.96152,1.19796 0.36254,0.64626 0.50441,1.35558 0.14186,0.69355 0.14186,1.38711 0,1.30829 -0.39407,2.30134 -0.39406,0.99304 -1.02456,1.73388 -0.63051,0.72508 -1.4344,1.22948 -0.78813,0.48864 -1.59202,0.78813 l 5.31199,7.73943 q 0.0946,0.14186 0.20491,0.29949 0.1261,0.14186 0.26797,0.28373 0.15762,0.1261 0.31525,0.23643 0.15763,0.11034 0.33101,0.15763 l 2.52202,0.81965 v 1.46592 h -6.00555 q -0.83541,0 -1.30829,-0.1261 -0.47288,-0.14186 -0.80389,-0.40982 -0.31526,-0.26797 -0.56746,-0.67779 -0.2522,-0.42559 -0.6305,-0.99305 l -4.87064,-7.37689 -2.15947,-0.53592 v 6.85672 q 0,0.34678 0.15762,0.5044 0.17339,0.14187 0.42559,0.2522 l 2.53778,1.04033 v 1.46592 h -11.66431 z m 10.86042,-10.73432 q 0.97728,0 1.68659,-0.33101 0.70932,-0.34678 1.16644,-0.89847 0.45711,-0.55169 0.67779,-1.261 0.22067,-0.72508 0.22067,-1.46592 0,-1.98609 -1.04033,-2.90032 -1.04033,-0.91423 -3.04218,-0.91423 h -1.98608 v 7.5818 q 0.1261,0.0315 0.42559,0.0631 0.31525,0.0315 0.66203,0.0631 0.36254,0.0315 0.69355,0.0473 0.34678,0.0158 0.53593,0.0158 z" />
      <path
         inkscape:connector-curvature="0"
         id="path898"
         style="font-style:normal;font-variant:normal;font-weight:bold;font-stretch:normal;line-height:1;font-family:'Sitka Small';-inkscape-font-specification:'Sitka Small Bold';text-align:center;text-anchor:middle;stroke-width:0.264583"
         d="m -140.80772,226.42084 2.55354,-1.04033 q 0.2522,-0.11033 0.39406,-0.2522 0.15763,-0.15762 0.15763,-0.5044 v -16.40885 q 0,-0.31525 -0.17339,-0.45712 -0.15763,-0.14186 -0.3783,-0.23643 l -2.55354,-1.04033 v -1.46592 h 11.66431 v 1.46592 l -2.53777,1.04033 q -0.22068,0.0946 -0.40983,0.23643 -0.17339,0.14187 -0.17339,0.45712 v 8.57485 l 8.60637,-9.36298 -1.40287,-0.94575 v -1.46592 h 8.60637 v 1.46592 l -2.6954,0.85117 q -0.31525,0.0946 -0.6305,0.26797 -0.31525,0.17339 -0.61474,0.48864 l -6.22622,6.4469 7.64485,10.19839 q 0.0788,0.11034 0.20491,0.2522 0.1261,0.1261 0.26797,0.26796 0.14186,0.1261 0.28372,0.23644 0.14187,0.11034 0.26797,0.15763 l 2.33286,0.85118 v 1.3871 h -10.08805 v -1.3871 l 0.92999,-0.81966 -5.91097,-7.91281 -1.57626,0.6305 v 6.22622 q 0,0.34678 0.17339,0.5044 0.18915,0.15763 0.40983,0.2522 l 2.53777,1.04033 v 1.46592 h -11.66431 z" />
      <path
         inkscape:connector-curvature="0"
         id="path900"
         style="font-style:normal;font-variant:normal;font-weight:bold;font-stretch:normal;line-height:1;font-family:'Sitka Small';-inkscape-font-specification:'Sitka Small Bold';text-align:center;text-anchor:middle;stroke-width:0.264583"
         d="m -114.12216,226.42084 2.71117,-1.04033 q 0.26796,-0.11033 0.40982,-0.2522 0.14187,-0.15762 0.14187,-0.5044 v -16.40885 q 0,-0.31525 -0.17339,-0.45712 -0.15763,-0.15762 -0.3783,-0.23643 l -2.71117,-1.04033 v -1.46592 h 11.97957 v 1.46592 l -2.69541,1.04033 q -0.2522,0.0946 -0.42559,0.23643 -0.15762,0.14187 -0.15762,0.45712 v 16.40885 q 0,0.34678 0.15762,0.5044 0.17339,0.15763 0.42559,0.2522 l 2.69541,1.04033 v 1.46592 h -11.97957 z" />
      <path
         inkscape:connector-curvature="0"
         id="path902"
         style="font-style:normal;font-variant:normal;font-weight:bold;font-stretch:normal;line-height:1;font-family:'Sitka Small';-inkscape-font-specification:'Sitka Small Bold';text-align:center;text-anchor:middle;stroke-width:0.264583"
         d="m -90.924561,212.84926 -1.087618,-1.97032 h -0.331015 v 13.65039 q 0,0.34678 0.173389,0.48864 0.189151,0.14187 0.378302,0.23644 l 2.506251,1.16643 v 1.46592 h -9.3945 v -1.46592 l 2.553538,-1.16643 q 0.236439,-0.11034 0.394065,-0.23644 0.157626,-0.14186 0.157626,-0.48864 v -16.31427 q 0,-0.31525 -0.173389,-0.45712 -0.157626,-0.15762 -0.378302,-0.23643 l -2.632351,-1.04033 v -1.46592 h 8.54332 l 9.504838,13.65039 1.134906,1.98609 h 0.331015 v -12.3421 q 0,-0.31526 -0.157626,-0.42559 -0.157626,-0.12611 -0.42559,-0.25221 l -2.522013,-1.15066 v -1.46592 h 9.3945 v 1.46592 l -2.537776,1.15066 q -0.204914,0.0946 -0.394065,0.23644 -0.173388,0.1261 -0.173388,0.44136 V 224.419 l -0.48864,3.62539 h -3.735733 z" />
      <path
         inkscape:connector-curvature="0"
         id="path904"
         style="font-style:normal;font-variant:normal;font-weight:bold;font-stretch:normal;line-height:1;font-family:'Sitka Small';-inkscape-font-specification:'Sitka Small Bold';text-align:center;text-anchor:middle;stroke-width:0.264583"
         d="m -57.926089,228.40693 q -2.490488,0 -4.69725,-0.7566 -2.206761,-0.77237 -3.861833,-2.26982 -1.639308,-1.49744 -2.600826,-3.71997 -0.945755,-2.22252 -0.945755,-5.1386 0,-2.77421 0.929992,-4.99674 0.929993,-2.22252 2.585064,-3.78302 1.655072,-1.56049 3.940646,-2.39591 2.301337,-0.83542 5.028264,-0.83542 1.733885,0 3.089467,0.1261 1.355582,0.11034 2.427438,0.29949 1.071856,0.17339 1.923035,0.3783 0.866942,0.18916 1.607784,0.34678 v 6.54147 h -2.395913 l -0.788129,-3.08946 q -0.06305,-0.23644 -0.299489,-0.39407 -0.220677,-0.15762 -0.42559,-0.23644 -0.551691,-0.23644 -1.229482,-0.42559 -0.662028,-0.20491 -1.355582,-0.34677 -0.693554,-0.15763 -1.371345,-0.23644 -0.677791,-0.0788 -1.245244,-0.0788 -1.418632,0 -2.648114,0.52016 -1.213719,0.52017 -2.096424,1.57626 -0.882704,1.04033 -1.387107,2.64811 -0.504403,1.59202 -0.504403,3.73574 0,2.14371 0.441353,3.92488 0.457115,1.76541 1.324057,3.04218 0.882704,1.27677 2.159474,1.98608 1.292532,0.70932 2.963365,0.70932 0.662029,0 1.229482,-0.0946 0.567453,-0.0946 1.024568,-0.23643 0.457115,-0.14187 0.803892,-0.28373 0.346777,-0.14186 0.567453,-0.23644 v -4.66572 q 0,-0.31526 -0.173389,-0.45712 -0.157625,-0.14186 -0.378302,-0.22068 l -3.404718,-1.08761 v -1.4344 h 11.916514 v 1.4344 l -2.001848,1.08761 q -0.204914,0.11034 -0.394065,0.23644 -0.173388,0.1261 -0.173388,0.44136 v 2.47472 q 0,1.5605 0.01576,2.61659 0.01576,1.05609 0.09458,1.67083 -0.961518,0.31526 -2.112187,0.61474 -1.134906,0.28373 -2.395912,0.50441 -1.245245,0.23644 -2.569302,0.36254 -1.308294,0.14186 -2.616589,0.14186 z" />
      <path
         inkscape:connector-curvature="0"
         id="path906"
         style="font-style:normal;font-variant:normal;font-weight:bold;font-stretch:normal;line-height:1;font-family:'Sitka Small';-inkscape-font-specification:'Sitka Small Bold';text-align:center;text-anchor:middle;stroke-width:0.264583"
         d="m -167.67701,263.08461 q -2.85303,0 -5.05979,-0.81965 -2.191,-0.81965 -3.70421,-2.36439 -1.49745,-1.56049 -2.26981,-3.78302 -0.77237,-2.22252 -0.77237,-5.02826 0,-2.63235 0.80389,-4.82335 0.8039,-2.191 2.33287,-3.76726 1.52897,-1.59202 3.71997,-2.45896 2.20676,-0.88271 4.98097,-0.88271 3.02642,0 5.23318,0.89847 2.22252,0.89847 3.67268,2.49049 1.46592,1.59202 2.17524,3.78302 0.70931,2.191 0.70931,4.7603 0,1.52897 -0.29948,3.02641 -0.29949,1.48169 -0.91423,2.82151 -0.61474,1.32405 -1.57626,2.45896 -0.96152,1.11914 -2.26981,1.9388 -1.3083,0.81965 -2.9949,1.27677 -1.68659,0.47287 -3.76725,0.47287 z m 0.23644,-2.78997 q 1.43439,0 2.50625,-0.61474 1.07185,-0.63051 1.78117,-1.76541 0.70931,-1.13491 1.05609,-2.72693 0.36254,-1.60778 0.36254,-3.57811 0,-2.26981 -0.3783,-4.05098 -0.36254,-1.79694 -1.13491,-3.02642 -0.7566,-1.24524 -1.92303,-1.90727 -1.16643,-0.66203 -2.75845,-0.66203 -1.52898,0 -2.60083,0.67779 -1.07186,0.66203 -1.76541,1.82846 -0.67779,1.15067 -0.99304,2.72693 -0.31525,1.5605 -0.31525,3.35743 0,2.25405 0.36253,4.05098 0.36254,1.79694 1.11915,3.07371 0.7566,1.261 1.90727,1.9388 1.16643,0.67779 2.77422,0.67779 z" />
      <path
         inkscape:connector-curvature="0"
         id="path908"
         style="font-style:normal;font-variant:normal;font-weight:bold;font-stretch:normal;line-height:1;font-family:'Sitka Small';-inkscape-font-specification:'Sitka Small Bold';text-align:center;text-anchor:middle;stroke-width:0.264583"
         d="m -144.83752,247.52694 -1.08762,-1.97032 h -0.33101 v 13.6504 q 0,0.34678 0.17338,0.48864 0.18916,0.14186 0.37831,0.23644 l 2.50625,1.16643 v 1.46592 h -9.3945 v -1.46592 l 2.55354,-1.16643 q 0.23643,-0.11034 0.39406,-0.23644 0.15763,-0.14186 0.15763,-0.48864 v -16.31428 q 0,-0.31525 -0.17339,-0.45711 -0.15763,-0.15763 -0.3783,-0.23644 l -2.63236,-1.04033 v -1.46592 h 8.54332 l 9.50484,13.6504 1.13491,1.98608 h 0.33101 v -12.3421 q 0,-0.31525 -0.15762,-0.42559 -0.15763,-0.1261 -0.42559,-0.2522 l -2.52202,-1.15067 v -1.46592 h 9.3945 v 1.46592 l -2.53777,1.15067 q -0.20492,0.0946 -0.39407,0.23644 -0.17338,0.1261 -0.17338,0.44135 v 16.10936 l -0.48864,3.6254 h -3.73574 z" />
      <path
         inkscape:connector-curvature="0"
         id="path910"
         style="font-style:normal;font-variant:normal;font-weight:bold;font-stretch:normal;line-height:1;font-family:'Sitka Small';-inkscape-font-specification:'Sitka Small Bold';text-align:center;text-anchor:middle;stroke-width:0.264583"
         d="m -123.7398,261.09853 2.55354,-1.04033 q 0.20492,-0.0788 0.3783,-0.23644 0.17339,-0.17339 0.17339,-0.52017 v -16.40885 q 0,-0.31525 -0.17339,-0.45711 -0.15762,-0.14186 -0.3783,-0.23644 l -2.55354,-1.04033 v -1.46592 h 11.66432 v 1.46592 l -2.53778,1.04033 q -0.22068,0.0946 -0.40983,0.23644 -0.17339,0.14186 -0.17339,0.45711 v 16.73987 h 7.47147 q 0.11034,0 0.22068,-0.0315 0.1261,-0.0473 0.22067,-0.11033 0.0946,-0.0788 0.15763,-0.18916 0.0631,-0.1261 0.0946,-0.28372 l 0.86695,-4.77607 h 2.45896 v 8.32265 h -20.03425 z" />
      <path
         inkscape:connector-curvature="0"
         id="path912"
         style="font-style:normal;font-variant:normal;font-weight:bold;font-stretch:normal;line-height:1;font-family:'Sitka Small';-inkscape-font-specification:'Sitka Small Bold';text-align:center;text-anchor:middle;stroke-width:0.264583"
         d="m -97.923635,261.09853 2.663877,-1.04033 q 0.267964,-0.0946 0.425589,-0.2522 0.157626,-0.15763 0.157626,-0.50441 v -5.12284 l -6.541477,-11.47516 q -0.1261,-0.22067 -0.29948,-0.44135 -0.17339,-0.23644 -0.44136,-0.34678 l -1.82846,-0.7566 v -1.46592 h 10.513647 v 1.46592 l -2.553538,1.02457 4.098271,6.84096 0.772367,1.9388 h 0.331014 l 4.886401,-8.68519 -2.569301,-1.11914 v -1.46592 h 8.243832 v 1.46592 l -1.781172,0.81965 q -0.236439,0.11034 -0.441353,0.34678 -0.189151,0.22068 -0.315251,0.44135 l -6.620286,11.3333 v 5.20165 q 0,0.34678 0.141864,0.50441 0.157625,0.15762 0.394064,0.2522 l 2.695402,1.04033 v 1.46592 h -11.932276 z" />
    </g>
    <path
       inkscape:connector-curvature="0"
       d="m 164.66086,44.987 c -1.00768,-0.6786 -2.26304,-2.26608 -2.26304,-2.86172 0,-0.21402 2.08079,-0.26426 10.94158,-0.26426 7.43876,0 10.94156,0.0675 10.94156,0.21068 0,0.41585 -0.78445,1.72452 -1.34915,2.25076 -0.31667,0.29512 -0.89489,0.72788 -1.28493,0.9617 -0.68655,0.41161 -0.9517,0.42516 -8.31018,0.42591 h -7.60104 l -1.0748,-0.72382 z M 70,45 c -1.30532,-0.87842 -2.40201,-2.18515 -2.42186,-2.88572 -0.005,-0.19959 2.3151,-0.25328 10.94803,-0.25328 h 10.95522 l -0.13524,0.45588 c -0.25894,0.87291 -1.20379,2.02946 -2.21354,2.70946 l -1.01637,0.68447 h -7.53001 -7.53 z m 0.71158,8.4727 c -1.10366,-0.59326 -1.90389,-1.30394 -2.52637,-2.24372 -1.19908,-1.81024 -2.07734,-1.66836 10.3273,-1.66836 7.5044,0 10.94156,0.0666 10.94156,0.21269 0,0.80811 -1.43706,2.7189 -2.599,3.45581 l -0.9249,0.58654 -7.30536,-0.008 c -6.32351,-0.008 -7.38706,-0.0521 -7.91323,-0.33485 z m 92.2941,2.36734 V 49.5569 l 10.38438,0.0525 10.38433,0.0525 0.0537,6.23061 0.0537,6.2306 h -1.82652 -1.82654 v -4.15374 -4.15373 h -6.7878 -6.78783 v 4.15373 4.15374 h -1.82359 -1.82358 z m -31.00109,-3.94927 v -10.2324 h 1.8236 1.82359 v 8.2062 8.20615 h 8.19203 8.19204 l -0.18412,0.64196 c -0.29162,1.01674 -1.11674,2.1139 -2.09704,2.78837 l -0.90421,0.62212 h -8.42294 -8.42295 z m -61.29301,9.83079 c -1.2074,-0.5978 -2.29185,-1.56567 -2.74126,-2.44663 -0.21965,-0.43054 -0.39936,-0.87765 -0.39936,-0.99351 0,-0.14319 3.5028,-0.2107 10.94155,-0.2107 8.86076,0 10.94156,0.0501 10.94156,0.26426 0,0.46737 -1.15194,2.09824 -1.85294,2.62327 -1.59012,1.19103 -1.38781,1.16492 -9.0279,1.16475 -6.61984,-1.5e-4 -7.10075,-0.0247 -7.86165,-0.40144 z m 29.68406,0.39939 c 0,-0.51512 0.91941,-2.07764 1.5465,-2.62824 1.62881,-1.43013 1.57792,-1.42199 8.88043,-1.42199 h 6.59327 v -2.12751 -2.12755 h -8.51012 -8.51008 v -6.07862 -6.07866 h 10.33369 c 5.68355,0 10.33372,0.0345 10.33372,0.0765 0,0.0422 -0.13346,0.39582 -0.29644,0.78601 -0.38103,0.91193 -1.202,1.8828 -2.20882,2.61216 l -0.79752,0.57769 h -6.85873 -6.85871 v 2.02621 2.02621 h 8.6114 8.61142 v 6.28131 6.28125 h -10.435 c -6.89658,0 -10.43501,-0.0694 -10.43501,-0.20482 z m -56.17456,-8.05199 -0.0529,-8.25685 -3.34327,-0.10135 -3.34325,-0.10135 -0.93535,-0.6734 c -0.51445,-0.37038 -1.11578,-0.91745 -1.3363,-1.21573 -0.41597,-0.56265 -1.07159,-1.75607 -1.07159,-1.9506 0,-0.0613 5.42517,-0.11141 12.05597,-0.11141 8.21016,0 12.05597,0.0671 12.05597,0.2107 0,0.46831 -0.82205,1.75677 -1.55315,2.43433 -1.45095,1.34472 -1.28628,1.29849 -5.01171,1.40741 l -3.46489,0.10135 -0.053,8.25685 -0.0529,8.25682 h -1.92036 -1.92037 z"
       style="fill:#000000;stroke-width:0.264583"
       id="path21491-8" />
    <path
       id="rect867-7"
       d="M -0.59031,-1.50849 H 219.0097 V 298.09149 H -0.59031 Z"
       style="opacity:1;fill:none;fill-opacity:1;stroke:#000000;stroke-width:0.4;stroke-linejoin:round;stroke-miterlimit:4;stroke-dasharray:none;stroke-opacity:1;paint-order:markers fill stroke"
       inkscape:connector-curvature="0" />
    <path
       inkscape:connector-curvature="0"
       id="rect875-8"
       d="m 46.17044,8.49151 c -19.29457,0 -34.93522,15.61954 -34.93522,34.88806 v 209.84591 c 0,19.26853 15.64065,34.88807 34.93522,34.88807 h 126.0785 c 19.29457,0 34.93522,-15.61954 34.93522,-34.88807 V 43.37957 c 0,-19.26852 -15.64065,-34.88806 -34.93522,-34.88806 z m 0,6.82005 h 126.0785 c 15.62928,0 28.10595,12.45984 28.10595,28.06801 v 209.84591 c 0,15.60818 -12.47667,28.06801 -28.10595,28.06801 H 46.17044 c -15.62929,0 -28.10595,-12.45983 -28.10595,-28.06801 V 43.37957 c 0,-15.60817 12.47666,-28.06801 28.10595,-28.06801 z"
       style="color:#000000;font-style:normal;font-variant:normal;font-weight:normal;font-stretch:normal;font-size:medium;line-height:normal;font-family:sans-serif;font-variant-ligatures:normal;font-variant-position:normal;font-variant-caps:normal;font-variant-numeric:normal;font-variant-alternates:normal;font-feature-settings:normal;text-indent:0;text-align:start;text-decoration:none;text-decoration-line:none;text-decoration-style:solid;text-decoration-color:#000000;letter-spacing:normal;word-spacing:normal;text-transform:none;writing-mode:lr-tb;direction:ltr;text-orientation:mixed;dominant-baseline:auto;baseline-shift:baseline;text-anchor:start;white-space:normal;shape-padding:0;clip-rule:nonzero;display:inline;overflow:visible;visibility:visible;opacity:1;isolation:auto;mix-blend-mode:normal;color-interpolation:sRGB;color-interpolation-filters:linearRGB;solid-color:#000000;solid-opacity:1;vector-effect:none;fill:#000000;fill-opacity:1;fill-rule:nonzero;stroke:none;stroke-width:7;stroke-linecap:butt;stroke-linejoin:round;stroke-miterlimit:4;stroke-dasharray:none;stroke-dashoffset:0;stroke-opacity:1;paint-order:markers fill stroke;color-rendering:auto;image-rendering:auto;shape-rendering:auto;text-rendering:auto;enable-background:accumulate" />
    <path
       id="path879-6"
       d="m 34.29601,266.28318 a 2.5,2.5 0 0 1 -2.5,2.49999 2.5,2.5 0 0 1 -2.5,-2.49999 2.5,2.5 0 0 1 2.5,-2.5 2.5,2.5 0 0 1 2.5,2.5 z"
       style="opacity:1;fill:none;fill-opacity:1;stroke:#000000;stroke-width:0.2;stroke-linejoin:round;stroke-miterlimit:4;stroke-dasharray:none;stroke-opacity:1;paint-order:markers fill stroke"
       inkscape:connector-curvature="0" />
    <path
       id="path881-2"
       d="m 189.20969,265.9915 a 2.5,2.5 0 0 1 -2.5,2.50002 2.5,2.5 0 0 1 -2.5,-2.50002 2.5,2.5 0 0 1 2.5,-2.49999 2.5,2.5 0 0 1 2.5,2.49999 z"
       style="opacity:1;fill:none;fill-opacity:1;stroke:#000000;stroke-width:0.2;stroke-linejoin:round;stroke-miterlimit:4;stroke-dasharray:none;stroke-opacity:1;paint-order:markers fill stroke"
       inkscape:connector-curvature="0" />
    <path
       id="path883-1"
       d="m 189.58767,30.90521 a 2.5,2.5 0 0 1 -2.5,2.49999 2.5,2.5 0 0 1 -2.5,-2.49999 2.5,2.5 0 0 1 2.5,-2.50001 2.5,2.5 0 0 1 2.5,2.50001 z"
       style="opacity:1;fill:none;fill-opacity:1;stroke:#000000;stroke-width:0.2;stroke-linejoin:round;stroke-miterlimit:4;stroke-dasharray:none;stroke-opacity:1;paint-order:markers fill stroke"
       inkscape:connector-curvature="0" />
    <path
       id="path885-2"
       d="m 34.58767,30.90521 a 2.5,2.5 0 0 1 -2.5,2.49999 2.5,2.5 0 0 1 -2.5,-2.49999 2.5,2.5 0 0 1 2.5,-2.50001 2.5,2.5 0 0 1 2.5,2.50001 z"
       style="opacity:1;fill:none;fill-opacity:1;stroke:#000000;stroke-width:0.2;stroke-linejoin:round;stroke-miterlimit:4;stroke-dasharray:none;stroke-opacity:1;paint-order:markers fill stroke"
       inkscape:connector-curvature="0" />
    <path
       sodipodi:nodetypes="csscccccscsscscssssccsscccsccccsssccscsssccs"
       inkscape:connector-curvature="0"
       id="path2190"
       d="m 109.64579,189.99754 c -0.19401,-1.0232 -16.88815,-94.225795 -16.88815,-94.285745 0,-0.0852 -4.93073,0.0395 -7.40916,0.18734 -7.37566,0.43985 -11.16917,1.731458 -13.00267,4.427125 -0.676,0.99388 -0.95822,1.70254 -1.25325,3.14668 -0.11987,0.58677 -0.23981,1.08872 -0.26652,1.11543 -0.0898,0.0898 -3.15496,-1.36663 -4.69071,-2.22883 -4.59345,-2.578847 -8.19967,-5.564727 -10.6529,-8.820412 -0.36042,-0.478302 -0.6553,-0.908797 -0.6553,-0.956648 0,-0.04787 0.18662,-0.164232 0.41469,-0.25862 0.22808,-0.09439 1.21091,-0.517998 2.18405,-0.941359 11.14978,-4.850637 25.64281,-8.241138 38.64931,-9.041618 l 1.16113,-0.07147 6.23245,7.594469 c 3.42784,4.176951 6.27037,7.552611 6.31671,7.501471 0.0464,-0.0511 2.82847,-3.437126 6.18245,-7.524385 3.35401,-4.087262 6.14943,-7.463054 6.21203,-7.501755 0.13062,-0.08072 2.92001,0.09919 5.35654,0.345477 10.2752,1.038649 20.59506,3.416332 29.96841,6.9047 2.21216,0.823277 5.77053,2.292681 6.69857,2.766127 l 0.43355,0.221185 -0.55926,0.768907 c -2.17338,2.988146 -5.58059,5.924634 -9.80008,8.446201 -1.16044,0.69349 -5.0019,2.62157 -5.52568,2.77343 -0.21614,0.0627 -0.24512,0.0156 -0.31703,-0.51559 -0.0435,-0.3215 -0.20074,-1.0062 -0.34935,-1.52155 -1.17028,-4.058277 -4.62804,-5.860327 -12.53175,-6.531045 -1.72095,-0.14604 -8.87827,-0.33346 -8.9682,-0.23483 -0.046,0.0504 -13.8629,77.559115 -16.77889,94.124735 l -0.0876,0.49763 z M 164.63761,88.401153 c -13.20753,-5.570205 -28.21285,-9.11472 -43.18327,-10.20062 -4.80968,-0.348874 -14.80175,-0.463123 -19.6402,-0.224563 -16.76746,0.826726 -32.19384,4.243832 -47.01948,10.415305 -1.02143,0.425185 -1.92073,0.748659 -1.99845,0.718838 -0.0777,-0.02987 -0.71721,-1.216186 -1.42107,-2.636364 -1.31689,-2.657083 -1.93059,-4.037374 -1.83678,-4.131182 0.096,-0.09594 3.96243,-1.556647 6.22874,-2.35313 21.24584,-7.466757 43.93583,-10.560988 65.41078,-8.920055 16.06197,1.227321 31.1996,4.615419 46.60871,10.431942 1.14725,0.433056 2.10562,0.807089 2.12972,0.831186 0.12595,0.125956 -2.95512,6.557884 -3.26731,6.820698 -0.0419,0.03526 -0.94701,-0.303158 -2.01139,-0.752055 z"
       style="fill:#000000;stroke-width:1" />
  </g>
</svg>
