  0
SECTION
  2
HEADER
  9
$ACADVER
  1
AC1014
  9
$HANDSEED
  5
FFFF
  9
$MEASUREMENT
 70
     1
  0
ENDSEC
  0
SECTION
  2
TABLES
  0
TABLE
  2
VPORT
  5
8
330
0
100
AcDbSymbolTable
 70
     4
  0
VPORT
  5
2E
330
8
100
AcDbSymbolTableRecord
100
AcDbViewportTableRecord
  2
*ACTIVE
 70
     0
 10
0.0
 20
0.0
 11
1.0
 21
1.0
 12
210.0
 22
148.5
 13
0.0
 23
0.0
 14
10.0
 24
10.0
 15
10.0
 25
10.0
 16
0.0
 26
0.0
 36
1.0
 17
0.0
 27
0.0
 37
0.0
 40
341.0
 41
1.24
 42
50.0
 43
0.0
 44
0.0
 50
0.0
 51
0.0
 71
     0
 72
   100
 73
     1
 74
     3
 75
     0
 76
     0
 77
     0
 78
     0
  0
ENDTAB
  0
TABLE
  2
LTYPE
  5
5
330
0
100
AcDbSymbolTable
 70
     1
  0
LTYPE
  5
14
330
5
100
AcDbSymbolTableRecord
100
AcDbLinetypeTableRecord
  2
BYBLOCK
 70
     0
  3

 72
    65
 73
     0
 40
0.0
  0
LTYPE
  5
15
330
5
100
AcDbSymbolTableRecord
100
AcDbLinetypeTableRecord
  2
BYLAYER
 70
     0
  3

 72
    65
 73
     0
 40
0.0
  0
LTYPE
  5
16
330
5
100
AcDbSymbolTableRecord
100
AcDbLinetypeTableRecord
  2
CONTINUOUS
 70
     0
  3
Solid line
 72
    65
 73
     0
 40
0.0
  0
ENDTAB
  0
TABLE
  2
LAYER
  5
2
100
AcDbSymbolTable
 70
2
  0
LAYER
  5
50
100
AcDbSymbolTableRecord
100
AcDbLayerTableRecord
  2
0
 70
0
  6
CONTINUOUS
  0
LAYER
  5
51
100
AcDbSymbolTableRecord
100
AcDbLayerTableRecord
  2
Ebene_1
 70
0
  6
CONTINUOUS
  0
ENDTAB
  0
TABLE
  2
STYLE
  5
3
330
0
100
AcDbSymbolTable
 70
     1
  0
STYLE
  5
11
330
3
100
AcDbSymbolTableRecord
100
AcDbTextStyleTableRecord
  2
STANDARD
 70
     0
 40
0.0
 41
1.0
 50
0.0
 71
     0
 42
2.5
  3
txt
  4

  0
ENDTAB
  0
TABLE
  2
VIEW
  5
6
330
0
100
AcDbSymbolTable
 70
     0
  0
ENDTAB
  0
TABLE
  2
UCS
  5
7
330
0
100
AcDbSymbolTable
 70
     0
  0
ENDTAB
  0
TABLE
  2
APPID
  5
9
330
0
100
AcDbSymbolTable
 70
     2
  0
APPID
  5
12
330
9
100
AcDbSymbolTableRecord
100
AcDbRegAppTableRecord
  2
ACAD
 70
     0
  0
ENDTAB
  0
TABLE
  2
DIMSTYLE
  5
A
330
0
100
AcDbSymbolTable
 70
     1
  0
DIMSTYLE
105
27
330
A
100
AcDbSymbolTableRecord
100
AcDbDimStyleTableRecord
  2
ISO-25
 70
     0
  3

  4

  5

  6

  7

 40
1.0
 41
2.5
 42
0.625
 43
3.75
 44
1.25
 45
0.0
 46
0.0
 47
0.0
 48
0.0
140
2.5
141
2.5
142
0.0
143
0.03937007874016
144
1.0
145
0.0
146
1.0
147
0.625
 71
     0
 72
     0
 73
     0
 74
     0
 75
     0
 76
     0
 77
     1
 78
     8
170
     0
171
     3
172
     1
173
     0
174
     0
175
     0
176
     0
177
     0
178
     0
270
     2
271
     2
272
     2
273
     2
274
     3
340
11
275
     0
280
     0
281
     0
282
     0
283
     0
284
     8
285
     0
286
     0
287
     3
288
     0
  0
ENDTAB
  0
TABLE
  2
BLOCK_RECORD
  5
1
330
0
100
AcDbSymbolTable
 70
     1
  0
BLOCK_RECORD
  5
1F
330
1
100
AcDbSymbolTableRecord
100
AcDbBlockTableRecord
  2
*MODEL_SPACE
  0
BLOCK_RECORD
  5
1B
330
1
100
AcDbSymbolTableRecord
100
AcDbBlockTableRecord
  2
*PAPER_SPACE
  0
ENDTAB
  0
ENDSEC
  0
SECTION
  2
BLOCKS
  0
BLOCK
  5
20
330
1F
100
AcDbEntity
  8
0
100
AcDbBlockBegin
  2
*MODEL_SPACE
 70
     0
 10
0.0
 20
0.0
 30
0.0
  3
*MODEL_SPACE
  1

  0
ENDBLK
  5
21
330
1F
100
AcDbEntity
  8
0
100
AcDbBlockEnd
  0
BLOCK
  5
1C
330
1B
100
AcDbEntity
 67
     1
  8
0
100
AcDbBlockBegin
  2
*PAPER_SPACE
  1

  0
ENDBLK
  5
1D
330
1B
100
AcDbEntity
 67
     1
  8
0
100
AcDbBlockEnd
  0
ENDSEC
  0
SECTION
  2
ENTITIES
  0
SPLINE
  5
100
100
AcDbEntity
  8
Ebene_1
 62
7
100
AcDbSpline
 70
8
 71
3
 72
8
 73
4
 74
0
 40
0
 40
0
 40
0
 40
0
 40
1
 40
1
 40
1
 40
1
 10
228.229540
 20
273.911804
 30
0.0
 10
208.891370
 20
273.911804
 30
0.0
 10
193.116260
 20
258.159543
 30
0.0
 10
193.116260
 20
238.837584
 30
0.0
  0
SPLINE
  5
101
100
AcDbEntity
  8
Ebene_1
 62
7
100
AcDbSpline
 70
8
 71
3
 72
8
 73
4
 74
0
 40
0
 40
0
 40
0
 40
0
 40
1
 40
1
 40
1
 40
1
 10
193.116260
 20
56.124770
 30
0.0
 10
193.116260
 20
36.802800
 30
0.0
 10
208.891570
 20
21.052500
 30
0.0
 10
228.229540
 20
21.052500
 30
0.0
  0
LWPOLYLINE
  5
102
100
AcDbEntity
  8
Ebene_1
 62
7
100
AcDbPolyline
 90
2
 70
0
 10
193.116260
 20
238.837584
 30
0.0
 10
193.116260
 20
56.124770
 30
0.0
  0
SPLINE
  5
103
100
AcDbEntity
  8
Ebene_1
 62
7
100
AcDbSpline
 70
8
 71
3
 72
8
 73
4
 74
0
 40
0
 40
0
 40
0
 40
0
 40
1
 40
1
 40
1
 40
1
 10
338.006870
 20
21.052500
 30
0.0
 10
357.344860
 20
21.052500
 30
0.0
 10
373.120160
 20
36.802800
 30
0.0
 10
373.120150
 20
56.124770
 30
0.0
  0
LWPOLYLINE
  5
104
100
AcDbEntity
  8
Ebene_1
 62
7
100
AcDbPolyline
 90
2
 70
0
 10
228.229540
 20
21.052500
 30
0.0
 10
338.006870
 20
21.052500
 30
0.0
  0
SPLINE
  5
105
100
AcDbEntity
  8
Ebene_1
 62
7
100
AcDbSpline
 70
8
 71
3
 72
8
 73
4
 74
0
 40
0
 40
0
 40
0
 40
0
 40
1
 40
1
 40
1
 40
1
 10
373.120150
 20
238.837584
 30
0.0
 10
373.120160
 20
258.159542
 30
0.0
 10
357.345050
 20
273.911804
 30
0.0
 10
338.006870
 20
273.911804
 30
0.0
  0
LWPOLYLINE
  5
106
100
AcDbEntity
  8
Ebene_1
 62
7
100
AcDbPolyline
 90
2
 70
0
 10
373.120150
 20
56.124770
 30
0.0
 10
373.120150
 20
238.837584
 30
0.0
  0
SPLINE
  5
107
100
AcDbEntity
  8
Ebene_1
 62
7
100
AcDbSpline
 70
8
 71
3
 72
8
 73
4
 74
0
 40
0
 40
0
 40
0
 40
0
 40
1
 40
1
 40
1
 40
1
 10
42.522279
 20
273.911806
 30
0.0
 10
23.184109
 20
273.911806
 30
0.0
 10
7.409000
 20
258.159545
 30
0.0
 10
7.409000
 20
238.837587
 30
0.0
  0
LWPOLYLINE
  5
108
100
AcDbEntity
  8
Ebene_1
 62
7
100
AcDbPolyline
 90
2
 70
0
 10
338.006870
 20
273.911804
 30
0.0
 10
228.229540
 20
273.911804
 30
0.0
  0
SPLINE
  5
109
100
AcDbEntity
  8
Ebene_1
 62
7
100
AcDbSpline
 70
8
 71
3
 72
8
 73
4
 74
0
 40
0
 40
0
 40
0
 40
0
 40
1
 40
1
 40
1
 40
1
 10
7.409000
 20
56.124780
 30
0.0
 10
7.409000
 20
36.802810
 30
0.0
 10
23.184309
 20
21.052510
 30
0.0
 10
42.522279
 20
21.052510
 30
0.0
  0
LWPOLYLINE
  5
10a
100
AcDbEntity
  8
Ebene_1
 62
7
100
AcDbPolyline
 90
2
 70
0
 10
7.409000
 20
238.837587
 30
0.0
 10
7.409000
 20
56.124780
 30
0.0
  0
SPLINE
  5
10b
100
AcDbEntity
  8
Ebene_1
 62
7
100
AcDbSpline
 70
8
 71
3
 72
8
 73
4
 74
0
 40
0
 40
0
 40
0
 40
0
 40
1
 40
1
 40
1
 40
1
 10
152.299610
 20
21.052510
 30
0.0
 10
171.637600
 20
21.052510
 30
0.0
 10
187.412900
 20
36.802810
 30
0.0
 10
187.412890
 20
56.124780
 30
0.0
  0
LWPOLYLINE
  5
10c
100
AcDbEntity
  8
Ebene_1
 62
7
100
AcDbPolyline
 90
2
 70
0
 10
42.522279
 20
21.052510
 30
0.0
 10
152.299610
 20
21.052510
 30
0.0
  0
SPLINE
  5
10d
100
AcDbEntity
  8
Ebene_1
 62
7
100
AcDbSpline
 70
8
 71
3
 72
8
 73
4
 74
0
 40
0
 40
0
 40
0
 40
0
 40
1
 40
1
 40
1
 40
1
 10
187.412890
 20
238.837587
 30
0.0
 10
187.412900
 20
258.159544
 30
0.0
 10
171.637790
 20
273.911806
 30
0.0
 10
152.299610
 20
273.911806
 30
0.0
  0
LWPOLYLINE
  5
10e
100
AcDbEntity
  8
Ebene_1
 62
7
100
AcDbPolyline
 90
2
 70
0
 10
187.412890
 20
56.124780
 30
0.0
 10
187.412890
 20
238.837587
 30
0.0
  0
SPLINE
  5
10f
100
AcDbEntity
  8
Ebene_1
 62
7
100
AcDbSpline
 70
8
 71
3
 72
8
 73
4
 74
0
 40
0
 40
0
 40
0
 40
0
 40
1
 40
1
 40
1
 40
1
 10
42.522656
 20
269.215572
 30
0.0
 10
25.722874
 20
269.215572
 30
0.0
 10
12.104559
 20
255.615637
 30
0.0
 10
12.104559
 20
238.838542
 30
0.0
  0
LWPOLYLINE
  5
110
100
AcDbEntity
  8
Ebene_1
 62
7
100
AcDbPolyline
 90
2
 70
0
 10
152.299610
 20
273.911806
 30
0.0
 10
42.522279
 20
273.911806
 30
0.0
  0
SPLINE
  5
111
100
AcDbEntity
  8
Ebene_1
 62
7
100
AcDbSpline
 70
8
 71
3
 72
8
 73
4
 74
0
 40
0
 40
0
 40
0
 40
0
 40
1
 40
1
 40
1
 40
1
 10
12.104559
 20
56.125640
 30
0.0
 10
12.104559
 20
39.348540
 30
0.0
 10
25.722874
 20
25.748600
 30
0.0
 10
42.522656
 20
25.748600
 30
0.0
  0
LWPOLYLINE
  5
112
100
AcDbEntity
  8
Ebene_1
 62
7
100
AcDbPolyline
 90
2
 70
0
 10
12.104559
 20
238.838542
 30
0.0
 10
12.104559
 20
56.125640
 30
0.0
  0
SPLINE
  5
113
100
AcDbEntity
  8
Ebene_1
 62
7
100
AcDbSpline
 70
8
 71
3
 72
8
 73
4
 74
0
 40
0
 40
0
 40
0
 40
0
 40
1
 40
1
 40
1
 40
1
 10
152.299230
 20
25.748600
 30
0.0
 10
169.099020
 20
25.748600
 30
0.0
 10
182.717330
 20
39.348540
 30
0.0
 10
182.717330
 20
56.125640
 30
0.0
  0
LWPOLYLINE
  5
114
100
AcDbEntity
  8
Ebene_1
 62
7
100
AcDbPolyline
 90
2
 70
0
 10
42.522656
 20
25.748600
 30
0.0
 10
152.299230
 20
25.748600
 30
0.0
  0
SPLINE
  5
115
100
AcDbEntity
  8
Ebene_1
 62
7
100
AcDbSpline
 70
8
 71
3
 72
8
 73
4
 74
0
 40
0
 40
0
 40
0
 40
0
 40
1
 40
1
 40
1
 40
1
 10
182.717330
 20
238.838542
 30
0.0
 10
182.717330
 20
255.615637
 30
0.0
 10
169.099020
 20
269.215572
 30
0.0
 10
152.299230
 20
269.215572
 30
0.0
  0
LWPOLYLINE
  5
116
100
AcDbEntity
  8
Ebene_1
 62
7
100
AcDbPolyline
 90
2
 70
0
 10
182.717330
 20
56.125640
 30
0.0
 10
182.717330
 20
238.838542
 30
0.0
  0
LWPOLYLINE
  5
117
100
AcDbEntity
  8
Ebene_1
 62
7
100
AcDbPolyline
 90
2
 70
0
 10
152.299230
 20
269.215572
 30
0.0
 10
42.522656
 20
269.215572
 30
0.0
  0
SPLINE
  5
118
100
AcDbEntity
  8
Ebene_1
 62
7
100
AcDbSpline
 70
8
 71
3
 72
8
 73
4
 74
0
 40
0
 40
0
 40
0
 40
0
 40
1
 40
1
 40
1
 40
1
 10
152.299230
 20
263.277355
 30
0.0
 10
165.907650
 20
263.277355
 30
0.0
 10
176.771070
 20
252.428576
 30
0.0
 10
176.771070
 20
238.838542
 30
0.0
  0
LWPOLYLINE
  5
119
100
AcDbEntity
  8
Ebene_1
 62
7
100
AcDbPolyline
 90
2
 70
0
 10
42.522656
 20
263.277355
 30
0.0
 10
152.299230
 20
263.277355
 30
0.0
  0
SPLINE
  5
11a
100
AcDbEntity
  8
Ebene_1
 62
7
100
AcDbSpline
 70
8
 71
3
 72
8
 73
4
 74
0
 40
0
 40
0
 40
0
 40
0
 40
1
 40
1
 40
1
 40
1
 10
176.771070
 20
56.125640
 30
0.0
 10
176.771070
 20
42.535580
 30
0.0
 10
165.907650
 20
31.686830
 30
0.0
 10
152.299230
 20
31.686830
 30
0.0
  0
LWPOLYLINE
  5
11b
100
AcDbEntity
  8
Ebene_1
 62
7
100
AcDbPolyline
 90
2
 70
0
 10
176.771070
 20
238.838542
 30
0.0
 10
176.771070
 20
56.125640
 30
0.0
  0
SPLINE
  5
11c
100
AcDbEntity
  8
Ebene_1
 62
7
100
AcDbSpline
 70
8
 71
3
 72
8
 73
4
 74
0
 40
0
 40
0
 40
0
 40
0
 40
1
 40
1
 40
1
 40
1
 10
42.522656
 20
31.686830
 30
0.0
 10
28.914234
 20
31.686830
 30
0.0
 10
18.050807
 20
42.535580
 30
0.0
 10
18.050807
 20
56.125640
 30
0.0
  0
LWPOLYLINE
  5
11d
100
AcDbEntity
  8
Ebene_1
 62
7
100
AcDbPolyline
 90
2
 70
0
 10
152.299230
 20
31.686830
 30
0.0
 10
42.522656
 20
31.686830
 30
0.0
  0
SPLINE
  5
11e
100
AcDbEntity
  8
Ebene_1
 62
7
100
AcDbSpline
 70
8
 71
3
 72
8
 73
4
 74
0
 40
0
 40
0
 40
0
 40
0
 40
1
 40
1
 40
1
 40
1
 10
18.050807
 20
238.838542
 30
0.0
 10
18.050807
 20
252.428576
 30
0.0
 10
28.914234
 20
263.277355
 30
0.0
 10
42.522656
 20
263.277355
 30
0.0
  0
LWPOLYLINE
  5
11f
100
AcDbEntity
  8
Ebene_1
 62
7
100
AcDbPolyline
 90
2
 70
0
 10
18.050807
 20
56.125640
 30
0.0
 10
18.050807
 20
238.838542
 30
0.0
  0
SPLINE
  5
120
100
AcDbEntity
  8
Ebene_1
 62
7
100
AcDbSpline
 70
8
 71
3
 72
8
 73
4
 74
0
 40
0
 40
0
 40
0
 40
0
 40
1
 40
1
 40
1
 40
1
 10
32.183590
 20
44.756310
 30
0.0
 10
32.183590
 20
44.179000
 30
0.0
 10
31.954254
 20
43.625335
 30
0.0
 10
31.546035
 20
43.217115
 30
0.0
  0
SPLINE
  5
121
100
AcDbEntity
  8
Ebene_1
 62
7
100
AcDbSpline
 70
8
 71
3
 72
8
 73
4
 74
0
 40
0
 40
0
 40
0
 40
0
 40
1
 40
1
 40
1
 40
1
 10
31.546035
 20
43.217115
 30
0.0
 10
31.137815
 20
42.808896
 30
0.0
 10
30.584150
 20
42.579560
 30
0.0
 10
30.006840
 20
42.579560
 30
0.0
  0
SPLINE
  5
122
100
AcDbEntity
  8
Ebene_1
 62
7
100
AcDbSpline
 70
8
 71
3
 72
8
 73
4
 74
0
 40
0
 40
0
 40
0
 40
0
 40
1
 40
1
 40
1
 40
1
 10
30.006840
 20
42.579560
 30
0.0
 10
28.804655
 20
42.579561
 30
0.0
 10
27.830091
 20
43.554125
 30
0.0
 10
27.830091
 20
44.756310
 30
0.0
  0
SPLINE
  5
123
100
AcDbEntity
  8
Ebene_1
 62
7
100
AcDbSpline
 70
8
 71
3
 72
8
 73
4
 74
0
 40
0
 40
0
 40
0
 40
0
 40
1
 40
1
 40
1
 40
1
 10
27.830091
 20
44.756310
 30
0.0
 10
27.830102
 20
45.958488
 30
0.0
 10
28.804662
 20
46.933039
 30
0.0
 10
30.006840
 20
46.933040
 30
0.0
  0
SPLINE
  5
124
100
AcDbEntity
  8
Ebene_1
 62
7
100
AcDbSpline
 70
8
 71
3
 72
8
 73
4
 74
0
 40
0
 40
0
 40
0
 40
0
 40
1
 40
1
 40
1
 40
1
 10
30.006840
 20
46.933040
 30
0.0
 10
31.209018
 20
46.933040
 30
0.0
 10
32.183579
 20
45.958488
 30
0.0
 10
32.183590
 20
44.756310
 30
0.0
  0
LWPOLYLINE
  5
125
100
AcDbEntity
  8
Ebene_1
 62
7
100
AcDbPolyline
 90
1
 70
1
 10
42.522656
 20
263.277355
 30
0.0
  0
SPLINE
  5
126
100
AcDbEntity
  8
Ebene_1
 62
7
100
AcDbSpline
 70
8
 71
3
 72
8
 73
4
 74
0
 40
0
 40
0
 40
0
 40
0
 40
1
 40
1
 40
1
 40
1
 10
167.066950
 20
45.010250
 30
0.0
 10
167.066944
 20
43.808068
 30
0.0
 10
166.092382
 20
42.833510
 30
0.0
 10
164.890200
 20
42.833510
 30
0.0
  0
SPLINE
  5
127
100
AcDbEntity
  8
Ebene_1
 62
7
100
AcDbSpline
 70
8
 71
3
 72
8
 73
4
 74
0
 40
0
 40
0
 40
0
 40
0
 40
1
 40
1
 40
1
 40
1
 10
164.890200
 20
42.833510
 30
0.0
 10
163.688018
 20
42.833510
 30
0.0
 10
162.713456
 20
43.808068
 30
0.0
 10
162.713450
 20
45.010250
 30
0.0
  0
SPLINE
  5
128
100
AcDbEntity
  8
Ebene_1
 62
7
100
AcDbSpline
 70
8
 71
3
 72
8
 73
4
 74
0
 40
0
 40
0
 40
0
 40
0
 40
1
 40
1
 40
1
 40
1
 10
162.713450
 20
45.010250
 30
0.0
 10
162.713447
 20
45.587562
 30
0.0
 10
162.942782
 20
46.141229
 30
0.0
 10
163.351002
 20
46.549451
 30
0.0
  0
SPLINE
  5
129
100
AcDbEntity
  8
Ebene_1
 62
7
100
AcDbSpline
 70
8
 71
3
 72
8
 73
4
 74
0
 40
0
 40
0
 40
0
 40
0
 40
1
 40
1
 40
1
 40
1
 10
163.351002
 20
46.549451
 30
0.0
 10
163.759222
 20
46.957673
 30
0.0
 10
164.312888
 20
47.187010
 30
0.0
 10
164.890200
 20
47.187010
 30
0.0
  0
SPLINE
  5
12a
100
AcDbEntity
  8
Ebene_1
 62
7
100
AcDbSpline
 70
8
 71
3
 72
8
 73
4
 74
0
 40
0
 40
0
 40
0
 40
0
 40
1
 40
1
 40
1
 40
1
 10
164.890200
 20
47.187010
 30
0.0
 10
165.467512
 20
47.187010
 30
0.0
 10
166.021178
 20
46.957673
 30
0.0
 10
166.429398
 20
46.549451
 30
0.0
  0
SPLINE
  5
12b
100
AcDbEntity
  8
Ebene_1
 62
7
100
AcDbSpline
 70
8
 71
3
 72
8
 73
4
 74
0
 40
0
 40
0
 40
0
 40
0
 40
1
 40
1
 40
1
 40
1
 10
166.429398
 20
46.549451
 30
0.0
 10
166.837618
 20
46.141229
 30
0.0
 10
167.066953
 20
45.587562
 30
0.0
 10
167.066950
 20
45.010250
 30
0.0
  0
LWPOLYLINE
  5
12c
100
AcDbEntity
  8
Ebene_1
 62
7
100
AcDbPolyline
 90
1
 70
1
 10
32.183590
 20
44.756310
 30
0.0
  0
SPLINE
  5
12d
100
AcDbEntity
  8
Ebene_1
 62
7
100
AcDbSpline
 70
8
 71
3
 72
8
 73
4
 74
0
 40
0
 40
0
 40
0
 40
0
 40
1
 40
1
 40
1
 40
1
 10
167.396060
 20
249.699972
 30
0.0
 10
167.396061
 20
248.497789
 30
0.0
 10
166.421503
 20
247.523226
 30
0.0
 10
165.219320
 20
247.523220
 30
0.0
  0
SPLINE
  5
12e
100
AcDbEntity
  8
Ebene_1
 62
7
100
AcDbSpline
 70
8
 71
3
 72
8
 73
4
 74
0
 40
0
 40
0
 40
0
 40
0
 40
1
 40
1
 40
1
 40
1
 10
165.219320
 20
247.523220
 30
0.0
 10
164.642008
 20
247.523217
 30
0.0
 10
164.088340
 20
247.752552
 30
0.0
 10
163.680118
 20
248.160772
 30
0.0
  0
SPLINE
  5
12f
100
AcDbEntity
  8
Ebene_1
 62
7
100
AcDbSpline
 70
8
 71
3
 72
8
 73
4
 74
0
 40
0
 40
0
 40
0
 40
0
 40
1
 40
1
 40
1
 40
1
 10
163.680118
 20
248.160772
 30
0.0
 10
163.271896
 20
248.568993
 30
0.0
 10
163.042559
 20
249.122660
 30
0.0
 10
163.042560
 20
249.699972
 30
0.0
  0
SPLINE
  5
130
100
AcDbEntity
  8
Ebene_1
 62
7
100
AcDbSpline
 70
8
 71
3
 72
8
 73
4
 74
0
 40
0
 40
0
 40
0
 40
0
 40
1
 40
1
 40
1
 40
1
 10
163.042560
 20
249.699972
 30
0.0
 10
163.042560
 20
250.277284
 30
0.0
 10
163.271897
 20
250.830950
 30
0.0
 10
163.680119
 20
251.239170
 30
0.0
  0
SPLINE
  5
131
100
AcDbEntity
  8
Ebene_1
 62
7
100
AcDbSpline
 70
8
 71
3
 72
8
 73
4
 74
0
 40
0
 40
0
 40
0
 40
0
 40
1
 40
1
 40
1
 40
1
 10
163.680119
 20
251.239170
 30
0.0
 10
164.088341
 20
251.647390
 30
0.0
 10
164.642008
 20
251.876725
 30
0.0
 10
165.219320
 20
251.876722
 30
0.0
  0
SPLINE
  5
132
100
AcDbEntity
  8
Ebene_1
 62
7
100
AcDbSpline
 70
8
 71
3
 72
8
 73
4
 74
0
 40
0
 40
0
 40
0
 40
0
 40
1
 40
1
 40
1
 40
1
 10
165.219320
 20
251.876722
 30
0.0
 10
166.421502
 20
251.876716
 30
0.0
 10
167.396060
 20
250.902154
 30
0.0
 10
167.396060
 20
249.699972
 30
0.0
  0
LWPOLYLINE
  5
133
100
AcDbEntity
  8
Ebene_1
 62
7
100
AcDbPolyline
 90
1
 70
1
 10
167.066950
 20
45.010250
 30
0.0
  0
SPLINE
  5
134
100
AcDbEntity
  8
Ebene_1
 62
7
100
AcDbSpline
 70
8
 71
3
 72
8
 73
4
 74
0
 40
0
 40
0
 40
0
 40
0
 40
1
 40
1
 40
1
 40
1
 10
32.437538
 20
249.699972
 30
0.0
 10
32.437539
 20
249.122662
 30
0.0
 10
32.208203
 20
248.568997
 30
0.0
 10
31.799984
 20
248.160776
 30
0.0
  0
SPLINE
  5
135
100
AcDbEntity
  8
Ebene_1
 62
7
100
AcDbSpline
 70
8
 71
3
 72
8
 73
4
 74
0
 40
0
 40
0
 40
0
 40
0
 40
1
 40
1
 40
1
 40
1
 10
31.799984
 20
248.160776
 30
0.0
 10
31.391764
 20
247.752556
 30
0.0
 10
30.838099
 20
247.523220
 30
0.0
 10
30.260789
 20
247.523220
 30
0.0
  0
SPLINE
  5
136
100
AcDbEntity
  8
Ebene_1
 62
7
100
AcDbSpline
 70
8
 71
3
 72
8
 73
4
 74
0
 40
0
 40
0
 40
0
 40
0
 40
1
 40
1
 40
1
 40
1
 10
30.260789
 20
247.523220
 30
0.0
 10
29.683479
 20
247.523220
 30
0.0
 10
29.129813
 20
247.752556
 30
0.0
 10
28.721594
 20
248.160776
 30
0.0
  0
SPLINE
  5
137
100
AcDbEntity
  8
Ebene_1
 62
7
100
AcDbSpline
 70
8
 71
3
 72
8
 73
4
 74
0
 40
0
 40
0
 40
0
 40
0
 40
1
 40
1
 40
1
 40
1
 10
28.721594
 20
248.160776
 30
0.0
 10
28.313374
 20
248.568996
 30
0.0
 10
28.084038
 20
249.122662
 30
0.0
 10
28.084039
 20
249.699972
 30
0.0
  0
SPLINE
  5
138
100
AcDbEntity
  8
Ebene_1
 62
7
100
AcDbSpline
 70
8
 71
3
 72
8
 73
4
 74
0
 40
0
 40
0
 40
0
 40
0
 40
1
 40
1
 40
1
 40
1
 10
28.084039
 20
249.699972
 30
0.0
 10
28.084039
 20
250.277282
 30
0.0
 10
28.313375
 20
250.830947
 30
0.0
 10
28.721594
 20
251.239167
 30
0.0
  0
SPLINE
  5
139
100
AcDbEntity
  8
Ebene_1
 62
7
100
AcDbSpline
 70
8
 71
3
 72
8
 73
4
 74
0
 40
0
 40
0
 40
0
 40
0
 40
1
 40
1
 40
1
 40
1
 10
28.721594
 20
251.239167
 30
0.0
 10
29.129814
 20
251.647386
 30
0.0
 10
29.683479
 20
251.876722
 30
0.0
 10
30.260789
 20
251.876722
 30
0.0
  0
SPLINE
  5
13a
100
AcDbEntity
  8
Ebene_1
 62
7
100
AcDbSpline
 70
8
 71
3
 72
8
 73
4
 74
0
 40
0
 40
0
 40
0
 40
0
 40
1
 40
1
 40
1
 40
1
 10
30.260789
 20
251.876722
 30
0.0
 10
31.462974
 20
251.876721
 30
0.0
 10
32.437538
 20
250.902157
 30
0.0
 10
32.437538
 20
249.699972
 30
0.0
  0
LWPOLYLINE
  5
13b
100
AcDbEntity
  8
Ebene_1
 62
7
100
AcDbPolyline
 90
1
 70
1
 10
167.396060
 20
249.699972
 30
0.0
  0
LWPOLYLINE
  5
13c
100
AcDbEntity
  8
Ebene_1
 62
7
100
AcDbPolyline
 90
1
 70
1
 10
32.437538
 20
249.699972
 30
0.0
  0
SPLINE
  5
13d
100
AcDbEntity
  8
Ebene_1
 62
7
100
AcDbSpline
 70
8
 71
3
 72
8
 73
4
 74
0
 40
0
 40
0
 40
0
 40
0
 40
1
 40
1
 40
1
 40
1
 10
148.016299
 20
73.282753
 30
0.0
 10
148.016299
 20
72.196233
 30
0.0
 10
148.384330
 20
71.217862
 30
0.0
 10
149.086438
 20
70.439004
 30
0.0
  0
LWPOLYLINE
  5
13e
100
AcDbEntity
  8
Ebene_1
 62
7
100
AcDbPolyline
 90
2
 70
0
 10
148.016299
 20
80.843703
 30
0.0
 10
148.016299
 20
73.282753
 30
0.0
  0
SPLINE
  5
13f
100
AcDbEntity
  8
Ebene_1
 62
7
100
AcDbSpline
 70
8
 71
3
 72
8
 73
4
 74
0
 40
0
 40
0
 40
0
 40
0
 40
1
 40
1
 40
1
 40
1
 10
149.089746
 20
70.435521
 30
0.0
 10
149.795995
 20
69.672683
 30
0.0
 10
150.704559
 20
69.274338
 30
0.0
 10
151.725820
 20
69.274338
 30
0.0
  0
LWPOLYLINE
  5
140
100
AcDbEntity
  8
Ebene_1
 62
7
100
AcDbPolyline
 90
3
 70
0
 10
149.086438
 20
70.439004
 30
0.0
 10
149.088092
 20
70.437262
 30
0.0
 10
149.089746
 20
70.435521
 30
0.0
  0
SPLINE
  5
141
100
AcDbEntity
  8
Ebene_1
 62
7
100
AcDbSpline
 70
8
 71
3
 72
8
 73
4
 74
0
 40
0
 40
0
 40
0
 40
0
 40
1
 40
1
 40
1
 40
1
 10
154.597520
 20
80.391296
 30
0.0
 10
154.597520
 20
79.304767
 30
0.0
 10
154.965553
 20
78.328173
 30
0.0
 10
155.667658
 20
77.549314
 30
0.0
  0
LWPOLYLINE
  5
142
100
AcDbEntity
  8
Ebene_1
 62
7
100
AcDbPolyline
 90
5
 70
0
 10
151.725820
 20
69.274338
 30
0.0
 10
168.599308
 20
69.274338
 30
0.0
 10
168.599308
 20
80.843747
 30
0.0
 10
154.597520
 20
80.843747
 30
0.0
 10
154.597520
 20
80.391296
 30
0.0
  0
SPLINE
  5
143
100
AcDbEntity
  8
Ebene_1
 62
7
100
AcDbSpline
 70
8
 71
3
 72
8
 73
4
 74
0
 40
0
 40
0
 40
0
 40
0
 40
1
 40
1
 40
1
 40
1
 10
155.672621
 20
77.544090
 30
0.0
 10
156.378869
 20
76.781261
 30
0.0
 10
157.287432
 20
76.384674
 30
0.0
 10
158.308694
 20
76.384674
 30
0.0
  0
LWPOLYLINE
  5
144
100
AcDbEntity
  8
Ebene_1
 62
7
100
AcDbPolyline
 90
3
 70
0
 10
155.667658
 20
77.549314
 30
0.0
 10
155.670966
 20
77.545831
 30
0.0
 10
155.672621
 20
77.544090
 30
0.0
  0
SPLINE
  5
145
100
AcDbEntity
  8
Ebene_1
 62
7
100
AcDbSpline
 70
8
 71
3
 72
8
 73
4
 74
0
 40
0
 40
0
 40
0
 40
0
 40
1
 40
1
 40
1
 40
1
 10
153.371988
 20
73.735335
 30
0.0
 10
153.007664
 20
73.735335
 30
0.0
 10
152.740597
 20
73.852949
 30
0.0
 10
152.490025
 20
74.104712
 30
0.0
  0
SPLINE
  5
146
100
AcDbEntity
  8
Ebene_1
 62
7
100
AcDbSpline
 70
8
 71
3
 72
8
 73
4
 74
0
 40
0
 40
0
 40
0
 40
0
 40
1
 40
1
 40
1
 40
1
 10
152.490025
 20
74.104712
 30
0.0
 10
152.255045
 20
74.376257
 30
0.0
 10
152.144766
 20
74.664084
 30
0.0
 10
152.144766
 20
75.059112
 30
0.0
  0
LWPOLYLINE
  5
147
100
AcDbEntity
  8
Ebene_1
 62
7
100
AcDbPolyline
 90
4
 70
0
 10
158.308694
 20
76.384674
 30
0.0
 10
164.470987
 20
76.384674
 30
0.0
 10
164.470987
 20
73.735335
 30
0.0
 10
153.371988
 20
73.735335
 30
0.0
  0
LWPOLYLINE
  5
148
100
AcDbEntity
  8
Ebene_1
 62
7
100
AcDbPolyline
 90
3
 70
0
 10
152.144766
 20
75.059112
 30
0.0
 10
152.144766
 20
80.843825
 30
0.0
 10
148.016299
 20
80.843703
 30
0.0
  0
SPLINE
  5
149
100
AcDbEntity
  8
Ebene_1
 62
7
100
AcDbSpline
 70
8
 71
3
 72
8
 73
4
 74
0
 40
0
 40
0
 40
0
 40
0
 40
1
 40
1
 40
1
 40
1
 10
42.704262
 20
82.169248
 30
0.0
 10
42.704262
 20
81.778234
 30
0.0
 10
42.592743
 20
81.492627
 30
0.0
 10
42.341015
 20
81.218383
 30
0.0
  0
SPLINE
  5
14a
100
AcDbEntity
  8
Ebene_1
 62
7
100
AcDbSpline
 70
8
 71
3
 72
8
 73
4
 74
0
 40
0
 40
0
 40
0
 40
0
 40
1
 40
1
 40
1
 40
1
 10
42.341015
 20
81.218383
 30
0.0
 10
42.086318
 20
80.959985
 30
0.0
 10
41.825186
 20
80.843703
 30
0.0
 10
41.478682
 20
80.843703
 30
0.0
  0
LWPOLYLINE
  5
14b
100
AcDbEntity
  8
Ebene_1
 62
7
100
AcDbPolyline
 90
4
 70
0
 10
26.249669
 20
87.953953
 30
0.0
 10
26.249669
 20
83.493026
 30
0.0
 10
42.704262
 20
83.493026
 30
0.0
 10
42.704262
 20
82.169248
 30
0.0
  0
SPLINE
  5
14c
100
AcDbEntity
  8
Ebene_1
 62
7
100
AcDbSpline
 70
8
 71
3
 72
8
 73
4
 74
0
 40
0
 40
0
 40
0
 40
0
 40
1
 40
1
 40
1
 40
1
 10
43.123156
 20
76.384552
 30
0.0
 10
44.113821
 20
76.384552
 30
0.0
 10
45.010015
 20
76.783464
 30
0.0
 10
45.729779
 20
77.540424
 30
0.0
  0
SPLINE
  5
14d
100
AcDbEntity
  8
Ebene_1
 62
7
100
AcDbSpline
 70
8
 71
3
 72
8
 73
4
 74
0
 40
0
 40
0
 40
0
 40
0
 40
1
 40
1
 40
1
 40
1
 10
45.729779
 20
77.540424
 30
0.0
 10
46.454088
 20
78.302191
 30
0.0
 10
46.834279
 20
79.285359
 30
0.0
 10
46.834279
 20
80.391244
 30
0.0
  0
LWPOLYLINE
  5
14e
100
AcDbEntity
  8
Ebene_1
 62
7
100
AcDbPolyline
 90
7
 70
0
 10
41.478682
 20
80.843703
 30
0.0
 10
26.249669
 20
80.843703
 30
0.0
 10
26.249669
 20
69.274286
 30
0.0
 10
26.668563
 20
69.274286
 30
0.0
 10
30.378049
 20
69.274286
 30
0.0
 10
30.378049
 20
76.384552
 30
0.0
 10
43.123156
 20
76.384552
 30
0.0
  0
LWPOLYLINE
  5
14f
100
AcDbEntity
  8
Ebene_1
 62
7
100
AcDbPolyline
 90
3
 70
0
 10
46.834279
 20
80.391244
 30
0.0
 10
46.834279
 20
87.953953
 30
0.0
 10
26.249669
 20
87.953953
 30
0.0
  0
LWPOLYLINE
  5
150
100
AcDbEntity
  8
Ebene_1
 62
7
100
AcDbPolyline
 90
9
 70
1
 10
49.287085
 20
80.843703
 30
0.0
 10
49.287085
 20
69.274286
 30
0.0
 10
49.705979
 20
69.274286
 30
0.0
 10
53.415465
 20
69.274286
 30
0.0
 10
53.415465
 20
76.384552
 30
0.0
 10
65.741687
 20
76.384552
 30
0.0
 10
65.741687
 20
69.274286
 30
0.0
 10
69.870059
 20
69.274286
 30
0.0
 10
69.870059
 20
80.843703
 30
0.0
  0
SPLINE
  5
151
100
AcDbEntity
  8
Ebene_1
 62
7
100
AcDbSpline
 70
8
 71
3
 72
8
 73
4
 74
0
 40
0
 40
0
 40
0
 40
0
 40
1
 40
1
 40
1
 40
1
 10
49.287085
 20
87.501502
 30
0.0
 10
49.287085
 20
86.414973
 30
0.0
 10
49.655112
 20
85.436611
 30
0.0
 10
50.357227
 20
84.657744
 30
0.0
  0
LWPOLYLINE
  5
152
100
AcDbEntity
  8
Ebene_1
 62
7
100
AcDbPolyline
 90
2
 70
0
 10
49.287085
 20
87.953953
 30
0.0
 10
49.287085
 20
87.501502
 30
0.0
  0
SPLINE
  5
153
100
AcDbEntity
  8
Ebene_1
 62
7
100
AcDbSpline
 70
8
 71
3
 72
8
 73
4
 74
0
 40
0
 40
0
 40
0
 40
0
 40
1
 40
1
 40
1
 40
1
 10
50.360710
 20
84.654261
 30
0.0
 10
51.066961
 20
83.891432
 30
0.0
 10
51.975528
 20
83.493069
 30
0.0
 10
52.996789
 20
83.493069
 30
0.0
  0
LWPOLYLINE
  5
154
100
AcDbEntity
  8
Ebene_1
 62
7
100
AcDbPolyline
 90
3
 70
0
 10
50.357227
 20
84.657744
 30
0.0
 10
50.358969
 20
84.656002
 30
0.0
 10
50.360710
 20
84.654261
 30
0.0
  0
SPLINE
  5
155
100
AcDbEntity
  8
Ebene_1
 62
7
100
AcDbSpline
 70
8
 71
3
 72
8
 73
4
 74
0
 40
0
 40
0
 40
0
 40
0
 40
1
 40
1
 40
1
 40
1
 10
66.160789
 20
83.493069
 30
0.0
 10
67.151454
 20
83.493069
 30
0.0
 10
68.047649
 20
83.891980
 30
0.0
 10
68.767413
 20
84.648958
 30
0.0
  0
SPLINE
  5
156
100
AcDbEntity
  8
Ebene_1
 62
7
100
AcDbSpline
 70
8
 71
3
 72
8
 73
4
 74
0
 40
0
 40
0
 40
0
 40
0
 40
1
 40
1
 40
1
 40
1
 10
68.767413
 20
84.648958
 30
0.0
 10
69.491731
 20
85.410716
 30
0.0
 10
69.870267
 20
86.395661
 30
0.0
 10
69.870267
 20
87.501537
 30
0.0
  0
LWPOLYLINE
  5
157
100
AcDbEntity
  8
Ebene_1
 62
7
100
AcDbPolyline
 90
2
 70
0
 10
52.996789
 20
83.493069
 30
0.0
 10
66.160789
 20
83.493069
 30
0.0
  0
LWPOLYLINE
  5
158
100
AcDbEntity
  8
Ebene_1
 62
7
100
AcDbPolyline
 90
3
 70
0
 10
69.870267
 20
87.501537
 30
0.0
 10
69.870267
 20
87.953996
 30
0.0
 10
49.287085
 20
87.953953
 30
0.0
  0
SPLINE
  5
159
100
AcDbEntity
  8
Ebene_1
 62
7
100
AcDbSpline
 70
8
 71
3
 72
8
 73
4
 74
0
 40
0
 40
0
 40
0
 40
0
 40
1
 40
1
 40
1
 40
1
 10
72.322873
 20
87.501502
 30
0.0
 10
72.322873
 20
86.414973
 30
0.0
 10
72.690900
 20
85.436611
 30
0.0
 10
73.393006
 20
84.657744
 30
0.0
  0
LWPOLYLINE
  5
15a
100
AcDbEntity
  8
Ebene_1
 62
7
100
AcDbPolyline
 90
2
 70
0
 10
72.322873
 20
87.953953
 30
0.0
 10
72.322873
 20
87.501502
 30
0.0
  0
SPLINE
  5
15b
100
AcDbEntity
  8
Ebene_1
 62
7
100
AcDbSpline
 70
8
 71
3
 72
8
 73
4
 74
0
 40
0
 40
0
 40
0
 40
0
 40
1
 40
1
 40
1
 40
1
 10
73.398231
 20
84.654261
 30
0.0
 10
74.104473
 20
83.891432
 30
0.0
 10
75.013040
 20
83.493078
 30
0.0
 10
76.034301
 20
83.493069
 30
0.0
  0
LWPOLYLINE
  5
15c
100
AcDbEntity
  8
Ebene_1
 62
7
100
AcDbPolyline
 90
3
 70
0
 10
73.393006
 20
84.657744
 30
0.0
 10
73.396489
 20
84.656002
 30
0.0
 10
73.398231
 20
84.654261
 30
0.0
  0
SPLINE
  5
15d
100
AcDbEntity
  8
Ebene_1
 62
7
100
AcDbSpline
 70
8
 71
3
 72
8
 73
4
 74
0
 40
0
 40
0
 40
0
 40
0
 40
1
 40
1
 40
1
 40
1
 10
88.779425
 20
82.169283
 30
0.0
 10
88.779425
 20
81.778278
 30
0.0
 10
88.666260
 20
81.492671
 30
0.0
 10
88.414523
 20
81.218426
 30
0.0
  0
SPLINE
  5
15e
100
AcDbEntity
  8
Ebene_1
 62
7
100
AcDbSpline
 70
8
 71
3
 72
8
 73
4
 74
0
 40
0
 40
0
 40
0
 40
0
 40
1
 40
1
 40
1
 40
1
 10
88.414523
 20
81.218426
 30
0.0
 10
88.159826
 20
80.960029
 30
0.0
 10
87.898703
 20
80.843738
 30
0.0
 10
87.552191
 20
80.843738
 30
0.0
  0
LWPOLYLINE
  5
15f
100
AcDbEntity
  8
Ebene_1
 62
7
100
AcDbPolyline
 90
3
 70
0
 10
76.034301
 20
83.493069
 30
0.0
 10
88.779425
 20
83.493069
 30
0.0
 10
88.779425
 20
82.169283
 30
0.0
  0
SPLINE
  5
160
100
AcDbEntity
  8
Ebene_1
 62
7
100
AcDbSpline
 70
8
 71
3
 72
8
 73
4
 74
0
 40
0
 40
0
 40
0
 40
0
 40
1
 40
1
 40
1
 40
1
 10
89.144239
 20
76.388070
 30
0.0
 10
90.191291
 20
76.241479
 30
0.0
 10
91.100180
 20
76.801034
 30
0.0
 10
91.803227
 20
77.540415
 30
0.0
  0
SPLINE
  5
161
100
AcDbEntity
  8
Ebene_1
 62
7
100
AcDbSpline
 70
8
 71
3
 72
8
 73
4
 74
0
 40
0
 40
0
 40
0
 40
0
 40
1
 40
1
 40
1
 40
1
 10
91.803227
 20
77.540415
 30
0.0
 10
92.527545
 20
78.302182
 30
0.0
 10
92.907727
 20
79.285350
 30
0.0
 10
92.907727
 20
80.391235
 30
0.0
  0
LWPOLYLINE
  5
162
100
AcDbEntity
  8
Ebene_1
 62
7
100
AcDbPolyline
 90
12
 70
0
 10
87.552191
 20
80.843738
 30
0.0
 10
72.323186
 20
80.843738
 30
0.0
 10
72.323186
 20
69.274329
 30
0.0
 10
72.742080
 20
69.274329
 30
0.0
 10
76.453195
 20
69.274329
 30
0.0
 10
76.453195
 20
76.384587
 30
0.0
 10
80.795924
 20
76.384587
 30
0.0
 10
87.378747
 20
69.274329
 30
0.0
 10
93.500134
 20
69.274329
 30
0.0
 10
86.917311
 20
76.384587
 30
0.0
 10
89.198310
 20
76.384587
 30
0.0
 10
89.144239
 20
76.388070
 30
0.0
  0
LWPOLYLINE
  5
163
100
AcDbEntity
  8
Ebene_1
 62
7
100
AcDbPolyline
 90
3
 70
0
 10
92.907727
 20
80.391235
 30
0.0
 10
92.907727
 20
87.953944
 30
0.0
 10
72.322873
 20
87.953953
 30
0.0
  0
LWPOLYLINE
  5
164
100
AcDbEntity
  8
Ebene_1
 62
7
100
AcDbPolyline
 90
9
 70
1
 10
110.415850
 20
87.953953
 30
0.0
 10
101.769651
 20
78.615007
 30
0.0
 10
110.415850
 20
69.274286
 30
0.0
 10
110.589293
 20
69.274286
 30
0.0
 10
116.537236
 20
69.274286
 30
0.0
 10
107.887772
 20
78.616775
 30
0.0
 10
109.093718
 20
79.938793
 30
0.0
 10
109.116617
 20
79.938793
 30
0.0
 10
116.537219
 20
87.953953
 30
0.0
  0
LWPOLYLINE
  5
165
100
AcDbEntity
  8
Ebene_1
 62
7
100
AcDbPolyline
 90
5
 70
1
 10
95.360280
 20
87.953953
 30
0.0
 10
95.360280
 20
69.274286
 30
0.0
 10
95.779174
 20
69.274286
 30
0.0
 10
99.488660
 20
69.274286
 30
0.0
 10
99.488660
 20
87.953953
 30
0.0
  0
LWPOLYLINE
  5
166
100
AcDbEntity
  8
Ebene_1
 62
7
100
AcDbPolyline
 90
5
 70
1
 10
118.397696
 20
87.953953
 30
0.0
 10
118.397696
 20
69.274286
 30
0.0
 10
118.816590
 20
69.274286
 30
0.0
 10
122.526068
 20
69.274286
 30
0.0
 10
122.526068
 20
87.953953
 30
0.0
  0
LWPOLYLINE
  5
167
100
AcDbEntity
  8
Ebene_1
 62
7
100
AcDbPolyline
 90
12
 70
1
 10
124.386545
 20
87.953953
 30
0.0
 10
128.269476
 20
83.758145
 30
0.0
 10
128.269476
 20
69.274286
 30
0.0
 10
128.688368
 20
69.274286
 30
0.0
 10
132.399487
 20
69.274286
 30
0.0
 10
132.399487
 20
79.298994
 30
0.0
 10
141.678924
 20
69.274286
 30
0.0
 10
145.563491
 20
69.274286
 30
0.0
 10
145.563491
 20
87.953953
 30
0.0
 10
141.433479
 20
87.953953
 30
0.0
 10
141.433479
 20
76.151248
 30
0.0
 10
130.507929
 20
87.953953
 30
0.0
  0
SPLINE
  5
168
100
AcDbEntity
  8
Ebene_1
 62
7
100
AcDbSpline
 70
8
 71
3
 72
8
 73
4
 74
0
 40
0
 40
0
 40
0
 40
0
 40
1
 40
1
 40
1
 40
1
 10
164.889788
 20
83.493026
 30
0.0
 10
165.880449
 20
83.493026
 30
0.0
 10
166.776643
 20
83.891954
 30
0.0
 10
167.496408
 20
84.648915
 30
0.0
  0
SPLINE
  5
169
100
AcDbEntity
  8
Ebene_1
 62
7
100
AcDbSpline
 70
8
 71
3
 72
8
 73
4
 74
0
 40
0
 40
0
 40
0
 40
0
 40
1
 40
1
 40
1
 40
1
 10
167.496408
 20
84.648915
 30
0.0
 10
168.220725
 20
85.410681
 30
0.0
 10
168.599272
 20
86.395617
 30
0.0
 10
168.599272
 20
87.501502
 30
0.0
  0
LWPOLYLINE
  5
16a
100
AcDbEntity
  8
Ebene_1
 62
7
100
AcDbPolyline
 90
4
 70
0
 10
148.016299
 20
87.953953
 30
0.0
 10
148.016299
 20
83.493026
 30
0.0
 10
148.435192
 20
83.493026
 30
0.0
 10
164.889788
 20
83.493026
 30
0.0
  0
LWPOLYLINE
  5
16b
100
AcDbEntity
  8
Ebene_1
 62
7
100
AcDbPolyline
 90
3
 70
0
 10
168.599272
 20
87.501502
 30
0.0
 10
168.599272
 20
87.953953
 30
0.0
 10
148.016299
 20
87.953953
 30
0.0
  0
LWPOLYLINE
  5
16c
100
AcDbEntity
  8
Ebene_1
 62
7
100
AcDbPolyline
 90
9
 70
1
 10
52.577678
 20
55.136852
 30
0.0
 10
52.577678
 20
43.567434
 30
0.0
 10
52.996572
 20
43.567434
 30
0.0
 10
73.160651
 20
43.567434
 30
0.0
 10
73.160651
 20
55.136852
 30
0.0
 10
69.032271
 20
55.136852
 30
0.0
 10
69.032271
 20
48.028361
 30
0.0
 10
56.706050
 20
48.028361
 30
0.0
 10
56.706050
 20
55.136852
 30
0.0
  0
SPLINE
  5
16d
100
AcDbEntity
  8
Ebene_1
 62
7
100
AcDbSpline
 70
8
 71
3
 72
8
 73
4
 74
0
 40
0
 40
0
 40
0
 40
0
 40
1
 40
1
 40
1
 40
1
 10
52.577678
 20
61.792883
 30
0.0
 10
52.577678
 20
60.706354
 30
0.0
 10
52.945714
 20
59.729751
 30
0.0
 10
53.647812
 20
58.950901
 30
0.0
  0
LWPOLYLINE
  5
16e
100
AcDbEntity
  8
Ebene_1
 62
7
100
AcDbPolyline
 90
2
 70
0
 10
52.577678
 20
62.245334
 30
0.0
 10
52.577678
 20
61.792883
 30
0.0
  0
SPLINE
  5
16f
100
AcDbEntity
  8
Ebene_1
 62
7
100
AcDbSpline
 70
8
 71
3
 72
8
 73
4
 74
0
 40
0
 40
0
 40
0
 40
0
 40
1
 40
1
 40
1
 40
1
 10
53.651295
 20
58.947418
 30
0.0
 10
54.357545
 20
58.184589
 30
0.0
 10
55.266112
 20
57.786235
 30
0.0
 10
56.287365
 20
57.786235
 30
0.0
  0
LWPOLYLINE
  5
170
100
AcDbEntity
  8
Ebene_1
 62
7
100
AcDbPolyline
 90
3
 70
0
 10
53.647812
 20
58.950901
 30
0.0
 10
53.649553
 20
58.949159
 30
0.0
 10
53.651295
 20
58.947418
 30
0.0
  0
SPLINE
  5
171
100
AcDbEntity
  8
Ebene_1
 62
7
100
AcDbSpline
 70
8
 71
3
 72
8
 73
4
 74
0
 40
0
 40
0
 40
0
 40
0
 40
1
 40
1
 40
1
 40
1
 10
69.451374
 20
57.786235
 30
0.0
 10
70.442030
 20
57.786235
 30
0.0
 10
71.338224
 20
58.185138
 30
0.0
 10
72.057988
 20
58.942124
 30
0.0
  0
SPLINE
  5
172
100
AcDbEntity
  8
Ebene_1
 62
7
100
AcDbSpline
 70
8
 71
3
 72
8
 73
4
 74
0
 40
0
 40
0
 40
0
 40
0
 40
1
 40
1
 40
1
 40
1
 10
72.057988
 20
58.942124
 30
0.0
 10
72.782306
 20
59.703873
 30
0.0
 10
73.160860
 20
60.687059
 30
0.0
 10
73.160860
 20
61.792944
 30
0.0
  0
LWPOLYLINE
  5
173
100
AcDbEntity
  8
Ebene_1
 62
7
100
AcDbPolyline
 90
2
 70
0
 10
56.287365
 20
57.786235
 30
0.0
 10
69.451374
 20
57.786235
 30
0.0
  0
LWPOLYLINE
  5
174
100
AcDbEntity
  8
Ebene_1
 62
7
100
AcDbPolyline
 90
3
 70
0
 10
73.160860
 20
61.792944
 30
0.0
 10
73.160860
 20
62.245394
 30
0.0
 10
52.577678
 20
62.245334
 30
0.0
  0
LWPOLYLINE
  5
175
100
AcDbEntity
  8
Ebene_1
 62
7
100
AcDbPolyline
 90
12
 70
1
 10
75.022757
 20
62.245334
 30
0.0
 10
78.905687
 20
58.051294
 30
0.0
 10
78.905687
 20
43.567434
 30
0.0
 10
79.324581
 20
43.567434
 30
0.0
 10
83.034059
 20
43.567434
 30
0.0
 10
83.034059
 20
53.592143
 30
0.0
 10
92.315137
 20
43.567434
 30
0.0
 10
96.198067
 20
43.567434
 30
0.0
 10
96.198067
 20
62.245334
 30
0.0
 10
92.069696
 20
62.245334
 30
0.0
 10
92.069696
 20
50.444397
 30
0.0
 10
81.144135
 20
62.245334
 30
0.0
  0
SPLINE
  5
176
100
AcDbEntity
  8
Ebene_1
 62
7
100
AcDbSpline
 70
8
 71
3
 72
8
 73
4
 74
0
 40
0
 40
0
 40
0
 40
0
 40
1
 40
1
 40
1
 40
1
 10
115.526005
 20
43.567434
 30
0.0
 10
116.516653
 20
43.567434
 30
0.0
 10
117.411219
 20
43.966345
 30
0.0
 10
118.130983
 20
44.723323
 30
0.0
  0
SPLINE
  5
177
100
AcDbEntity
  8
Ebene_1
 62
7
100
AcDbSpline
 70
8
 71
3
 72
8
 73
4
 74
0
 40
0
 40
0
 40
0
 40
0
 40
1
 40
1
 40
1
 40
1
 10
118.130983
 20
44.723323
 30
0.0
 10
118.855292
 20
45.485081
 30
0.0
 10
119.235483
 20
46.470026
 30
0.0
 10
119.235483
 20
47.575902
 30
0.0
  0
LWPOLYLINE
  5
178
100
AcDbEntity
  8
Ebene_1
 62
7
100
AcDbPolyline
 90
4
 70
0
 10
98.650873
 20
62.245334
 30
0.0
 10
98.650873
 20
43.567434
 30
0.0
 10
99.069767
 20
43.567434
 30
0.0
 10
115.526005
 20
43.567434
 30
0.0
  0
LWPOLYLINE
  5
179
100
AcDbEntity
  8
Ebene_1
 62
7
100
AcDbPolyline
 90
5
 70
0
 10
119.235483
 20
47.575902
 30
0.0
 10
119.235483
 20
48.028361
 30
0.0
 10
102.780890
 20
48.028361
 30
0.0
 10
102.780890
 20
62.245334
 30
0.0
 10
98.650873
 20
62.245334
 30
0.0
  0
SPLINE
  5
17a
100
AcDbEntity
  8
Ebene_1
 62
7
100
AcDbSpline
 70
8
 71
3
 72
8
 73
4
 74
0
 40
0
 40
0
 40
0
 40
0
 40
1
 40
1
 40
1
 40
1
 10
97.410123
 20
96.466610
 30
0.0
 10
97.221668
 20
97.460530
 30
0.0
 10
81.005340
 20
187.995580
 30
0.0
 10
81.005340
 20
188.053820
 30
0.0
  0
SPLINE
  5
17b
100
AcDbEntity
  8
Ebene_1
 62
7
100
AcDbSpline
 70
8
 71
3
 72
8
 73
4
 74
0
 40
0
 40
0
 40
0
 40
0
 40
1
 40
1
 40
1
 40
1
 10
81.005340
 20
188.053820
 30
0.0
 10
81.005340
 20
188.136520
 30
0.0
 10
76.215734
 20
188.015520
 30
0.0
 10
73.808240
 20
187.871830
 30
0.0
  0
SPLINE
  5
17c
100
AcDbEntity
  8
Ebene_1
 62
7
100
AcDbSpline
 70
8
 71
3
 72
8
 73
4
 74
0
 40
0
 40
0
 40
0
 40
0
 40
1
 40
1
 40
1
 40
1
 10
73.808240
 20
187.871830
 30
0.0
 10
66.643675
 20
187.444570
 30
0.0
 10
62.958742
 20
186.189920
 30
0.0
 10
61.177718
 20
183.571380
 30
0.0
  0
SPLINE
  5
17d
100
AcDbEntity
  8
Ebene_1
 62
7
100
AcDbSpline
 70
8
 71
3
 72
8
 73
4
 74
0
 40
0
 40
0
 40
0
 40
0
 40
1
 40
1
 40
1
 40
1
 10
61.177718
 20
183.571380
 30
0.0
 10
60.521062
 20
182.605950
 30
0.0
 10
60.246930
 20
181.917570
 30
0.0
 10
59.960330
 20
180.514780
 30
0.0
  0
SPLINE
  5
17e
100
AcDbEntity
  8
Ebene_1
 62
7
100
AcDbSpline
 70
8
 71
3
 72
8
 73
4
 74
0
 40
0
 40
0
 40
0
 40
0
 40
1
 40
1
 40
1
 40
1
 10
59.960330
 20
180.514780
 30
0.0
 10
59.843900
 20
179.944790
 30
0.0
 10
59.727392
 20
179.457220
 30
0.0
 10
59.701444
 20
179.431270
 30
0.0
  0
SPLINE
  5
17f
100
AcDbEntity
  8
Ebene_1
 62
7
100
AcDbSpline
 70
8
 71
3
 72
8
 73
4
 74
0
 40
0
 40
0
 40
0
 40
0
 40
1
 40
1
 40
1
 40
1
 10
59.701444
 20
179.431270
 30
0.0
 10
59.614234
 20
179.344070
 30
0.0
 10
56.636782
 20
180.758800
 30
0.0
 10
55.144994
 20
181.596310
 30
0.0
  0
SPLINE
  5
180
100
AcDbEntity
  8
Ebene_1
 62
7
100
AcDbSpline
 70
8
 71
3
 72
8
 73
4
 74
0
 40
0
 40
0
 40
0
 40
0
 40
1
 40
1
 40
1
 40
1
 10
55.144994
 20
181.596310
 30
0.0
 10
50.683013
 20
184.101350
 30
0.0
 10
47.180004
 20
187.001780
 30
0.0
 10
44.796987
 20
190.164290
 30
0.0
  0
SPLINE
  5
181
100
AcDbEntity
  8
Ebene_1
 62
7
100
AcDbSpline
 70
8
 71
3
 72
8
 73
4
 74
0
 40
0
 40
0
 40
0
 40
0
 40
1
 40
1
 40
1
 40
1
 10
44.796987
 20
190.164290
 30
0.0
 10
44.446887
 20
190.628910
 30
0.0
 10
44.160452
 20
191.047080
 30
0.0
 10
44.160452
 20
191.093550
 30
0.0
  0
SPLINE
  5
182
100
AcDbEntity
  8
Ebene_1
 62
7
100
AcDbSpline
 70
8
 71
3
 72
8
 73
4
 74
0
 40
0
 40
0
 40
0
 40
0
 40
1
 40
1
 40
1
 40
1
 10
44.160452
 20
191.093550
 30
0.0
 10
44.160452
 20
191.139950
 30
0.0
 10
44.341722
 20
191.253100
 30
0.0
 10
44.563264
 20
191.344790
 30
0.0
  0
SPLINE
  5
183
100
AcDbEntity
  8
Ebene_1
 62
7
100
AcDbSpline
 70
8
 71
3
 72
8
 73
4
 74
0
 40
0
 40
0
 40
0
 40
0
 40
1
 40
1
 40
1
 40
1
 10
44.563264
 20
191.344790
 30
0.0
 10
44.784812
 20
191.436390
 30
0.0
 10
45.739517
 20
191.847950
 30
0.0
 10
46.684803
 20
192.259190
 30
0.0
  0
SPLINE
  5
184
100
AcDbEntity
  8
Ebene_1
 62
7
100
AcDbSpline
 70
8
 71
3
 72
8
 73
4
 74
0
 40
0
 40
0
 40
0
 40
0
 40
1
 40
1
 40
1
 40
1
 10
46.684803
 20
192.259190
 30
0.0
 10
57.515457
 20
196.971000
 30
0.0
 10
71.593693
 20
200.264480
 30
0.0
 10
84.227924
 20
201.042060
 30
0.0
  0
LWPOLYLINE
  5
185
100
AcDbEntity
  8
Ebene_1
 62
7
100
AcDbPolyline
 90
14
 70
1
 10
121.688289
 20
62.245334
 30
0.0
 10
121.688289
 20
58.051294
 30
0.0
 10
129.915590
 20
49.164799
 30
0.0
 10
129.915590
 20
43.567434
 30
0.0
 10
130.334482
 20
43.567434
 30
0.0
 10
134.043965
 20
43.567434
 30
0.0
 10
134.043965
 20
49.164799
 30
0.0
 10
142.271263
 20
58.051294
 30
0.0
 10
142.271263
 20
62.245334
 30
0.0
 10
138.142888
 20
62.245334
 30
0.0
 10
138.142888
 20
60.203986
 30
0.0
 10
131.980595
 20
53.546187
 30
0.0
 10
125.816668
 20
60.203986
 30
0.0
 10
125.816668
 20
62.245334
 30
0.0
  0
SPLINE
  5
186
100
AcDbEntity
  8
Ebene_1
 62
7
100
AcDbSpline
 70
8
 71
3
 72
8
 73
4
 74
0
 40
0
 40
0
 40
0
 40
0
 40
1
 40
1
 40
1
 40
1
 10
91.409889
 20
193.734330
 30
0.0
 10
94.739618
 20
189.676930
 30
0.0
 10
97.500796
 20
186.397870
 30
0.0
 10
97.545815
 20
186.447550
 30
0.0
  0
SPLINE
  5
187
100
AcDbEntity
  8
Ebene_1
 62
7
100
AcDbSpline
 70
8
 71
3
 72
8
 73
4
 74
0
 40
0
 40
0
 40
0
 40
0
 40
1
 40
1
 40
1
 40
1
 10
97.545815
 20
186.447550
 30
0.0
 10
97.590795
 20
186.497150
 30
0.0
 10
100.293320
 20
189.786300
 30
0.0
 10
103.551340
 20
193.756590
 30
0.0
  0
SPLINE
  5
188
100
AcDbEntity
  8
Ebene_1
 62
7
100
AcDbSpline
 70
8
 71
3
 72
8
 73
4
 74
0
 40
0
 40
0
 40
0
 40
0
 40
1
 40
1
 40
1
 40
1
 10
103.551340
 20
193.756590
 30
0.0
 10
106.809360
 20
197.726850
 30
0.0
 10
109.524760
 20
201.006050
 30
0.0
 10
109.585550
 20
201.043650
 30
0.0
  0
SPLINE
  5
189
100
AcDbEntity
  8
Ebene_1
 62
7
100
AcDbSpline
 70
8
 71
3
 72
8
 73
4
 74
0
 40
0
 40
0
 40
0
 40
0
 40
1
 40
1
 40
1
 40
1
 10
109.585550
 20
201.043650
 30
0.0
 10
109.712440
 20
201.122050
 30
0.0
 10
112.422010
 20
200.947350
 30
0.0
 10
114.788790
 20
200.708060
 30
0.0
  0
SPLINE
  5
18a
100
AcDbEntity
  8
Ebene_1
 62
7
100
AcDbSpline
 70
8
 71
3
 72
8
 73
4
 74
0
 40
0
 40
0
 40
0
 40
0
 40
1
 40
1
 40
1
 40
1
 10
114.788790
 20
200.708060
 30
0.0
 10
124.769910
 20
199.699130
 30
0.0
 10
134.794400
 20
197.389500
 30
0.0
 10
143.899480
 20
194.000970
 30
0.0
  0
SPLINE
  5
18b
100
AcDbEntity
  8
Ebene_1
 62
7
100
AcDbSpline
 70
8
 71
3
 72
8
 73
4
 74
0
 40
0
 40
0
 40
0
 40
0
 40
1
 40
1
 40
1
 40
1
 10
143.899480
 20
194.000970
 30
0.0
 10
146.048310
 20
193.201250
 30
0.0
 10
149.504830
 20
191.773900
 30
0.0
 10
150.406330
 20
191.314000
 30
0.0
  0
LWPOLYLINE
  5
18c
100
AcDbEntity
  8
Ebene_1
 62
7
100
AcDbPolyline
 90
3
 70
0
 10
84.227924
 20
201.042060
 30
0.0
 10
85.355819
 20
201.111460
 30
0.0
 10
91.409889
 20
193.734330
 30
0.0
  0
SPLINE
  5
18d
100
AcDbEntity
  8
Ebene_1
 62
7
100
AcDbSpline
 70
8
 71
3
 72
8
 73
4
 74
0
 40
0
 40
0
 40
0
 40
0
 40
1
 40
1
 40
1
 40
1
 10
150.284220
 20
190.352250
 30
0.0
 10
148.173020
 20
187.449620
 30
0.0
 10
144.863340
 20
184.597160
 30
0.0
 10
140.764610
 20
182.147780
 30
0.0
  0
SPLINE
  5
18e
100
AcDbEntity
  8
Ebene_1
 62
7
100
AcDbSpline
 70
8
 71
3
 72
8
 73
4
 74
0
 40
0
 40
0
 40
0
 40
0
 40
1
 40
1
 40
1
 40
1
 10
140.764610
 20
182.147780
 30
0.0
 10
139.637380
 20
181.474130
 30
0.0
 10
135.905870
 20
179.601250
 30
0.0
 10
135.397080
 20
179.453710
 30
0.0
  0
SPLINE
  5
18f
100
AcDbEntity
  8
Ebene_1
 62
7
100
AcDbSpline
 70
8
 71
3
 72
8
 73
4
 74
0
 40
0
 40
0
 40
0
 40
0
 40
1
 40
1
 40
1
 40
1
 10
135.397080
 20
179.453710
 30
0.0
 10
135.187120
 20
179.392810
 30
0.0
 10
135.158980
 20
179.438510
 30
0.0
 10
135.089130
 20
179.954550
 30
0.0
  0
SPLINE
  5
190
100
AcDbEntity
  8
Ebene_1
 62
7
100
AcDbSpline
 70
8
 71
3
 72
8
 73
4
 74
0
 40
0
 40
0
 40
0
 40
0
 40
1
 40
1
 40
1
 40
1
 10
135.089130
 20
179.954550
 30
0.0
 10
135.046830
 20
180.266850
 30
0.0
 10
134.894140
 20
180.931970
 30
0.0
 10
134.749780
 20
181.432550
 30
0.0
  0
SPLINE
  5
191
100
AcDbEntity
  8
Ebene_1
 62
7
100
AcDbSpline
 70
8
 71
3
 72
8
 73
4
 74
0
 40
0
 40
0
 40
0
 40
0
 40
1
 40
1
 40
1
 40
1
 10
134.749780
 20
181.432550
 30
0.0
 10
133.613010
 20
185.374690
 30
0.0
 10
130.254200
 20
187.125150
 30
0.0
 10
122.576710
 20
187.776690
 30
0.0
  0
SPLINE
  5
192
100
AcDbEntity
  8
Ebene_1
 62
7
100
AcDbSpline
 70
8
 71
3
 72
8
 73
4
 74
0
 40
0
 40
0
 40
0
 40
0
 40
1
 40
1
 40
1
 40
1
 10
122.576710
 20
187.776690
 30
0.0
 10
120.905020
 20
187.918540
 30
0.0
 10
113.952530
 20
188.100610
 30
0.0
 10
113.865190
 20
188.004800
 30
0.0
  0
SPLINE
  5
193
100
AcDbEntity
  8
Ebene_1
 62
7
100
AcDbSpline
 70
8
 71
3
 72
8
 73
4
 74
0
 40
0
 40
0
 40
0
 40
0
 40
1
 40
1
 40
1
 40
1
 10
113.865190
 20
188.004800
 30
0.0
 10
113.820590
 20
187.955800
 30
0.0
 10
100.399030
 20
112.665510
 30
0.0
 10
97.566505
 20
96.574020
 30
0.0
  0
LWPOLYLINE
  5
194
100
AcDbEntity
  8
Ebene_1
 62
7
100
AcDbPolyline
 90
3
 70
0
 10
150.406330
 20
191.314000
 30
0.0
 10
150.827450
 20
191.099160
 30
0.0
 10
150.284220
 20
190.352250
 30
0.0
  0
SPLINE
  5
195
100
AcDbEntity
  8
Ebene_1
 62
7
100
AcDbSpline
 70
8
 71
3
 72
8
 73
4
 74
0
 40
0
 40
0
 40
0
 40
0
 40
1
 40
1
 40
1
 40
1
 10
150.828040
 20
195.155210
 30
0.0
 10
137.998530
 20
200.566000
 30
0.0
 10
123.422680
 20
204.009090
 30
0.0
 10
108.880740
 20
205.063920
 30
0.0
  0
SPLINE
  5
196
100
AcDbEntity
  8
Ebene_1
 62
7
100
AcDbSpline
 70
8
 71
3
 72
8
 73
4
 74
0
 40
0
 40
0
 40
0
 40
0
 40
1
 40
1
 40
1
 40
1
 10
108.880740
 20
205.063920
 30
0.0
 10
104.208700
 20
205.402810
 30
0.0
 10
94.502597
 20
205.513790
 30
0.0
 10
89.802623
 20
205.282050
 30
0.0
  0
SPLINE
  5
197
100
AcDbEntity
  8
Ebene_1
 62
7
100
AcDbSpline
 70
8
 71
3
 72
8
 73
4
 74
0
 40
0
 40
0
 40
0
 40
0
 40
1
 40
1
 40
1
 40
1
 10
89.802623
 20
205.282050
 30
0.0
 10
73.515074
 20
204.478990
 30
0.0
 10
58.530223
 20
201.159670
 30
0.0
 10
44.128906
 20
195.164800
 30
0.0
  0
SPLINE
  5
198
100
AcDbEntity
  8
Ebene_1
 62
7
100
AcDbSpline
 70
8
 71
3
 72
8
 73
4
 74
0
 40
0
 40
0
 40
0
 40
0
 40
1
 40
1
 40
1
 40
1
 10
44.128906
 20
195.164800
 30
0.0
 10
43.136708
 20
194.751790
 30
0.0
 10
42.263152
 20
194.437580
 30
0.0
 10
42.187653
 20
194.466540
 30
0.0
  0
SPLINE
  5
199
100
AcDbEntity
  8
Ebene_1
 62
7
100
AcDbSpline
 70
8
 71
3
 72
8
 73
4
 74
0
 40
0
 40
0
 40
0
 40
0
 40
1
 40
1
 40
1
 40
1
 10
42.187653
 20
194.466540
 30
0.0
 10
42.112173
 20
194.495640
 30
0.0
 10
41.490964
 20
195.647930
 30
0.0
 10
40.807256
 20
197.027460
 30
0.0
  0
SPLINE
  5
19a
100
AcDbEntity
  8
Ebene_1
 62
7
100
AcDbSpline
 70
8
 71
3
 72
8
 73
4
 74
0
 40
0
 40
0
 40
0
 40
0
 40
1
 40
1
 40
1
 40
1
 10
40.807256
 20
197.027460
 30
0.0
 10
39.528057
 20
199.608510
 30
0.0
 10
38.931924
 20
200.949290
 30
0.0
 10
39.023052
 20
201.040410
 30
0.0
  0
SPLINE
  5
19b
100
AcDbEntity
  8
Ebene_1
 62
7
100
AcDbSpline
 70
8
 71
3
 72
8
 73
4
 74
0
 40
0
 40
0
 40
0
 40
0
 40
1
 40
1
 40
1
 40
1
 10
39.023052
 20
201.040410
 30
0.0
 10
39.116322
 20
201.133610
 30
0.0
 10
42.872068
 20
202.552520
 30
0.0
 10
45.073511
 20
203.326220
 30
0.0
  0
SPLINE
  5
19c
100
AcDbEntity
  8
Ebene_1
 62
7
100
AcDbSpline
 70
8
 71
3
 72
8
 73
4
 74
0
 40
0
 40
0
 40
0
 40
0
 40
1
 40
1
 40
1
 40
1
 10
45.073511
 20
203.326220
 30
0.0
 10
65.711269
 20
210.579290
 30
0.0
 10
87.751838
 20
213.584963
 30
0.0
 10
108.612180
 20
211.990991
 30
0.0
  0
SPLINE
  5
19d
100
AcDbEntity
  8
Ebene_1
 62
7
100
AcDbSpline
 70
8
 71
3
 72
8
 73
4
 74
0
 40
0
 40
0
 40
0
 40
0
 40
1
 40
1
 40
1
 40
1
 10
108.612180
 20
211.990991
 30
0.0
 10
124.214440
 20
210.798797
 30
0.0
 10
138.918820
 20
207.507670
 30
0.0
 10
153.886890
 20
201.857590
 30
0.0
  0
SPLINE
  5
19e
100
AcDbEntity
  8
Ebene_1
 62
7
100
AcDbSpline
 70
8
 71
3
 72
8
 73
4
 74
0
 40
0
 40
0
 40
0
 40
0
 40
1
 40
1
 40
1
 40
1
 10
153.886890
 20
201.857590
 30
0.0
 10
155.001310
 20
201.436920
 30
0.0
 10
155.932250
 20
201.073600
 30
0.0
 10
155.955660
 20
201.050190
 30
0.0
  0
SPLINE
  5
19f
100
AcDbEntity
  8
Ebene_1
 62
7
100
AcDbSpline
 70
8
 71
3
 72
8
 73
4
 74
0
 40
0
 40
0
 40
0
 40
0
 40
1
 40
1
 40
1
 40
1
 10
155.955660
 20
201.050190
 30
0.0
 10
156.078000
 20
200.927830
 30
0.0
 10
153.085090
 20
194.679970
 30
0.0
 10
152.781860
 20
194.424680
 30
0.0
  0
SPLINE
  5
1a0
100
AcDbEntity
  8
Ebene_1
 62
7
100
AcDbSpline
 70
8
 71
3
 72
8
 73
4
 74
0
 40
0
 40
0
 40
0
 40
0
 40
1
 40
1
 40
1
 40
1
 10
152.781860
 20
194.424680
 30
0.0
 10
152.741260
 20
194.390480
 30
0.0
 10
151.861930
 20
194.719170
 30
0.0
 10
150.828040
 20
195.155210
 30
0.0
  0
LWPOLYLINE
  5
1a1
100
AcDbEntity
  8
Ebene_1
 62
7
100
AcDbPolyline
 90
3
 70
0
 10
97.566505
 20
96.574020
 30
0.0
 10
97.481415
 20
96.090630
 30
0.0
 10
97.410123
 20
96.466610
 30
0.0
  0
LWPOLYLINE
  5
1a2
100
AcDbEntity
  8
Ebene_1
 62
7
100
AcDbPolyline
 90
1
 70
1
 10
150.828040
 20
195.155210
 30
0.0
  0
LWPOLYLINE
  5
1a3
100
AcDbEntity
  8
Ebene_1
 62
7
100
AcDbPolyline
 90
9
 70
1
 10
144.024978
 20
233.750151
 30
0.0
 10
144.024978
 20
221.686194
 30
0.0
 10
144.460328
 20
221.686194
 30
0.0
 10
148.626758
 20
221.686194
 30
0.0
 10
148.626758
 20
229.148365
 30
0.0
 10
162.680405
 20
229.148365
 30
0.0
 10
162.680405
 20
221.686194
 30
0.0
 10
167.282194
 20
221.686194
 30
0.0
 10
167.282194
 20
233.750151
 30
0.0
  0
SPLINE
  5
1a4
100
AcDbEntity
  8
Ebene_1
 62
7
100
AcDbSpline
 70
8
 71
3
 72
8
 73
4
 74
0
 40
0
 40
0
 40
0
 40
0
 40
1
 40
1
 40
1
 40
1
 10
144.024978
 20
240.776971
 30
0.0
 10
144.024978
 20
239.645715
 30
0.0
 10
144.436001
 20
238.632288
 30
0.0
 10
145.225595
 20
237.821353
 30
0.0
  0
LWPOLYLINE
  5
1a5
100
AcDbEntity
  8
Ebene_1
 62
7
100
AcDbPolyline
 90
2
 70
0
 10
144.024978
 20
241.212321
 30
0.0
 10
144.024978
 20
240.776971
 30
0.0
  0
SPLINE
  5
1a6
100
AcDbEntity
  8
Ebene_1
 62
7
100
AcDbSpline
 70
8
 71
3
 72
8
 73
4
 74
0
 40
0
 40
0
 40
0
 40
0
 40
1
 40
1
 40
1
 40
1
 10
145.230819
 20
237.817871
 30
0.0
 10
146.024723
 20
237.023971
 30
0.0
 10
147.042728
 20
236.610454
 30
0.0
 10
148.191539
 20
236.610454
 30
0.0
  0
LWPOLYLINE
  5
1a7
100
AcDbEntity
  8
Ebene_1
 62
7
100
AcDbPolyline
 90
3
 70
0
 10
145.225595
 20
237.821353
 30
0.0
 10
145.229078
 20
237.819612
 30
0.0
 10
145.230819
 20
237.817871
 30
0.0
  0
SPLINE
  5
1a8
100
AcDbEntity
  8
Ebene_1
 62
7
100
AcDbSpline
 70
8
 71
3
 72
8
 73
4
 74
0
 40
0
 40
0
 40
0
 40
0
 40
1
 40
1
 40
1
 40
1
 10
163.115885
 20
236.610454
 30
0.0
 10
164.229659
 20
236.610454
 30
0.0
 10
165.233027
 20
237.024506
 30
0.0
 10
166.042595
 20
237.812768
 30
0.0
  0
SPLINE
  5
1a9
100
AcDbEntity
  8
Ebene_1
 62
7
100
AcDbSpline
 70
8
 71
3
 72
8
 73
4
 74
0
 40
0
 40
0
 40
0
 40
0
 40
1
 40
1
 40
1
 40
1
 10
166.042595
 20
237.812768
 30
0.0
 10
166.856891
 20
238.605638
 30
0.0
 10
167.282324
 20
239.625390
 30
0.0
 10
167.282324
 20
240.776890
 30
0.0
  0
LWPOLYLINE
  5
1aa
100
AcDbEntity
  8
Ebene_1
 62
7
100
AcDbPolyline
 90
2
 70
0
 10
148.191539
 20
236.610454
 30
0.0
 10
163.115885
 20
236.610454
 30
0.0
  0
LWPOLYLINE
  5
1ab
100
AcDbEntity
  8
Ebene_1
 62
7
100
AcDbPolyline
 90
3
 70
0
 10
167.282324
 20
240.776890
 30
0.0
 10
167.282324
 20
241.212240
 30
0.0
 10
144.024978
 20
241.212321
 30
0.0
  0
SPLINE
  5
1ac
100
AcDbEntity
  8
Ebene_1
 62
7
100
AcDbSpline
 70
8
 71
3
 72
8
 73
4
 74
0
 40
0
 40
0
 40
0
 40
0
 40
1
 40
1
 40
1
 40
1
 10
28.055217
 20
240.776971
 30
0.0
 10
28.055217
 20
239.645715
 30
0.0
 10
28.467938
 20
238.632288
 30
0.0
 10
29.257532
 20
237.821353
 30
0.0
  0
LWPOLYLINE
  5
1ad
100
AcDbEntity
  8
Ebene_1
 62
7
100
AcDbPolyline
 90
2
 70
0
 10
28.055217
 20
241.212321
 30
0.0
 10
28.055217
 20
240.776971
 30
0.0
  0
SPLINE
  5
1ae
100
AcDbEntity
  8
Ebene_1
 62
7
100
AcDbSpline
 70
8
 71
3
 72
8
 73
4
 74
0
 40
0
 40
0
 40
0
 40
0
 40
1
 40
1
 40
1
 40
1
 10
29.261015
 20
237.817871
 30
0.0
 10
30.054919
 20
237.023970
 30
0.0
 10
31.072924
 20
236.610454
 30
0.0
 10
32.221735
 20
236.610454
 30
0.0
  0
LWPOLYLINE
  5
1af
100
AcDbEntity
  8
Ebene_1
 62
7
100
AcDbPolyline
 90
3
 70
0
 10
29.257532
 20
237.821353
 30
0.0
 10
29.259274
 20
237.819612
 30
0.0
 10
29.261015
 20
237.817871
 30
0.0
  0
SPLINE
  5
1b0
100
AcDbEntity
  8
Ebene_1
 62
7
100
AcDbSpline
 70
8
 71
3
 72
8
 73
4
 74
0
 40
0
 40
0
 40
0
 40
0
 40
1
 40
1
 40
1
 40
1
 10
47.146081
 20
236.610536
 30
0.0
 10
48.259854
 20
236.610536
 30
0.0
 10
49.263223
 20
237.024588
 30
0.0
 10
50.072791
 20
237.812850
 30
0.0
  0
SPLINE
  5
1b1
100
AcDbEntity
  8
Ebene_1
 62
7
100
AcDbSpline
 70
8
 71
3
 72
8
 73
4
 74
0
 40
0
 40
0
 40
0
 40
0
 40
1
 40
1
 40
1
 40
1
 10
50.072791
 20
237.812850
 30
0.0
 10
50.887087
 20
238.605719
 30
0.0
 10
51.312511
 20
239.625471
 30
0.0
 10
51.312511
 20
240.776971
 30
0.0
  0
LWPOLYLINE
  5
1b2
100
AcDbEntity
  8
Ebene_1
 62
7
100
AcDbPolyline
 90
7
 70
0
 10
32.221735
 20
236.610454
 30
0.0
 10
37.383018
 20
236.610454
 30
0.0
 10
37.383018
 20
221.686194
 30
0.0
 10
37.818368
 20
221.686194
 30
0.0
 10
41.984798
 20
221.686194
 30
0.0
 10
41.984798
 20
236.610536
 30
0.0
 10
47.146081
 20
236.610536
 30
0.0
  0
LWPOLYLINE
  5
1b3
100
AcDbEntity
  8
Ebene_1
 62
7
100
AcDbPolyline
 90
3
 70
0
 10
51.312511
 20
240.776971
 30
0.0
 10
51.312511
 20
241.212321
 30
0.0
 10
28.055217
 20
241.212321
 30
0.0
  0
SPLINE
  5
1b4
100
AcDbEntity
  8
Ebene_1
 62
7
100
AcDbSpline
 70
8
 71
3
 72
8
 73
4
 74
0
 40
0
 40
0
 40
0
 40
0
 40
1
 40
1
 40
1
 40
1
 10
57.046811
 20
225.852629
 30
0.0
 10
57.046811
 20
224.721373
 30
0.0
 10
57.459531
 20
223.707945
 30
0.0
 10
58.249126
 20
222.897011
 30
0.0
  0
LWPOLYLINE
  5
1b5
100
AcDbEntity
  8
Ebene_1
 62
7
100
AcDbPolyline
 90
2
 70
0
 10
57.046811
 20
226.287979
 30
0.0
 10
57.046811
 20
225.852629
 30
0.0
  0
SPLINE
  5
1b6
100
AcDbEntity
  8
Ebene_1
 62
7
100
AcDbSpline
 70
8
 71
3
 72
8
 73
4
 74
0
 40
0
 40
0
 40
0
 40
0
 40
1
 40
1
 40
1
 40
1
 10
58.252608
 20
222.891874
 30
0.0
 10
59.046504
 20
222.097973
 30
0.0
 10
60.064509
 20
221.686158
 30
0.0
 10
61.213328
 20
221.686158
 30
0.0
  0
LWPOLYLINE
  5
1b7
100
AcDbEntity
  8
Ebene_1
 62
7
100
AcDbPolyline
 90
3
 70
0
 10
58.249126
 20
222.897011
 30
0.0
 10
58.250867
 20
222.895270
 30
0.0
 10
58.252608
 20
222.891874
 30
0.0
  0
SPLINE
  5
1b8
100
AcDbEntity
  8
Ebene_1
 62
7
100
AcDbSpline
 70
8
 71
3
 72
8
 73
4
 74
0
 40
0
 40
0
 40
0
 40
0
 40
1
 40
1
 40
1
 40
1
 10
76.137666
 20
221.686158
 30
0.0
 10
77.251439
 20
221.686158
 30
0.0
 10
78.256514
 20
222.100210
 30
0.0
 10
79.066074
 20
222.888472
 30
0.0
  0
SPLINE
  5
1b9
100
AcDbEntity
  8
Ebene_1
 62
7
100
AcDbSpline
 70
8
 71
3
 72
8
 73
4
 74
0
 40
0
 40
0
 40
0
 40
0
 40
1
 40
1
 40
1
 40
1
 10
79.066074
 20
222.888472
 30
0.0
 10
79.880378
 20
223.681341
 30
0.0
 10
80.304105
 20
224.701093
 30
0.0
 10
80.304105
 20
225.852594
 30
0.0
  0
LWPOLYLINE
  5
1ba
100
AcDbEntity
  8
Ebene_1
 62
7
100
AcDbPolyline
 90
2
 70
0
 10
61.213328
 20
221.686158
 30
0.0
 10
76.137666
 20
221.686158
 30
0.0
  0
LWPOLYLINE
  5
1bb
100
AcDbEntity
  8
Ebene_1
 62
7
100
AcDbPolyline
 90
3
 70
0
 10
80.304105
 20
225.852594
 30
0.0
 10
80.304105
 20
226.287944
 30
0.0
 10
57.046811
 20
226.287979
 30
0.0
  0
SPLINE
  5
1bc
100
AcDbEntity
  8
Ebene_1
 62
7
100
AcDbSpline
 70
8
 71
3
 72
8
 73
4
 74
0
 40
0
 40
0
 40
0
 40
0
 40
1
 40
1
 40
1
 40
1
 10
57.046811
 20
233.314801
 30
0.0
 10
57.046811
 20
232.183544
 30
0.0
 10
57.459531
 20
231.170117
 30
0.0
 10
58.249126
 20
230.359183
 30
0.0
  0
LWPOLYLINE
  5
1bd
100
AcDbEntity
  8
Ebene_1
 62
7
100
AcDbPolyline
 90
2
 70
0
 10
57.046811
 20
233.750151
 30
0.0
 10
57.046811
 20
233.314801
 30
0.0
  0
SPLINE
  5
1be
100
AcDbEntity
  8
Ebene_1
 62
7
100
AcDbSpline
 70
8
 71
3
 72
8
 73
4
 74
0
 40
0
 40
0
 40
0
 40
0
 40
1
 40
1
 40
1
 40
1
 10
58.252608
 20
230.354046
 30
0.0
 10
59.046504
 20
229.560146
 30
0.0
 10
60.064509
 20
229.148330
 30
0.0
 10
61.213328
 20
229.148330
 30
0.0
  0
LWPOLYLINE
  5
1bf
100
AcDbEntity
  8
Ebene_1
 62
7
100
AcDbPolyline
 90
3
 70
0
 10
58.249126
 20
230.359183
 30
0.0
 10
58.250867
 20
230.357441
 30
0.0
 10
58.252608
 20
230.354046
 30
0.0
  0
SPLINE
  5
1c0
100
AcDbEntity
  8
Ebene_1
 62
7
100
AcDbSpline
 70
8
 71
3
 72
8
 73
4
 74
0
 40
0
 40
0
 40
0
 40
0
 40
1
 40
1
 40
1
 40
1
 10
76.137666
 20
229.148330
 30
0.0
 10
77.251439
 20
229.148330
 30
0.0
 10
78.256514
 20
229.562382
 30
0.0
 10
79.066074
 20
230.350645
 30
0.0
  0
SPLINE
  5
1c1
100
AcDbEntity
  8
Ebene_1
 62
7
100
AcDbSpline
 70
8
 71
3
 72
8
 73
4
 74
0
 40
0
 40
0
 40
0
 40
0
 40
1
 40
1
 40
1
 40
1
 10
79.066074
 20
230.350645
 30
0.0
 10
79.880378
 20
231.143514
 30
0.0
 10
80.304105
 20
232.163265
 30
0.0
 10
80.304105
 20
233.314766
 30
0.0
  0
LWPOLYLINE
  5
1c2
100
AcDbEntity
  8
Ebene_1
 62
7
100
AcDbPolyline
 90
2
 70
0
 10
61.213328
 20
229.148330
 30
0.0
 10
76.137666
 20
229.148330
 30
0.0
  0
LWPOLYLINE
  5
1c3
100
AcDbEntity
  8
Ebene_1
 62
7
100
AcDbPolyline
 90
3
 70
0
 10
80.304105
 20
233.314766
 30
0.0
 10
80.304105
 20
233.750116
 30
0.0
 10
57.046811
 20
233.750151
 30
0.0
  0
SPLINE
  5
1c4
100
AcDbEntity
  8
Ebene_1
 62
7
100
AcDbSpline
 70
8
 71
3
 72
8
 73
4
 74
0
 40
0
 40
0
 40
0
 40
0
 40
1
 40
1
 40
1
 40
1
 10
57.046811
 20
240.776971
 30
0.0
 10
57.046811
 20
239.645715
 30
0.0
 10
57.459531
 20
238.632288
 30
0.0
 10
58.249126
 20
237.821353
 30
0.0
  0
LWPOLYLINE
  5
1c5
100
AcDbEntity
  8
Ebene_1
 62
7
100
AcDbPolyline
 90
2
 70
0
 10
57.046811
 20
241.212321
 30
0.0
 10
57.046811
 20
240.776971
 30
0.0
  0
SPLINE
  5
1c6
100
AcDbEntity
  8
Ebene_1
 62
7
100
AcDbSpline
 70
8
 71
3
 72
8
 73
4
 74
0
 40
0
 40
0
 40
0
 40
0
 40
1
 40
1
 40
1
 40
1
 10
58.252608
 20
237.817871
 30
0.0
 10
59.046504
 20
237.023970
 30
0.0
 10
60.064509
 20
236.610454
 30
0.0
 10
61.213328
 20
236.610454
 30
0.0
  0
LWPOLYLINE
  5
1c7
100
AcDbEntity
  8
Ebene_1
 62
7
100
AcDbPolyline
 90
3
 70
0
 10
58.249126
 20
237.821353
 30
0.0
 10
58.250867
 20
237.819612
 30
0.0
 10
58.252608
 20
237.817871
 30
0.0
  0
SPLINE
  5
1c8
100
AcDbEntity
  8
Ebene_1
 62
7
100
AcDbSpline
 70
8
 71
3
 72
8
 73
4
 74
0
 40
0
 40
0
 40
0
 40
0
 40
1
 40
1
 40
1
 40
1
 10
76.137666
 20
236.610454
 30
0.0
 10
77.251439
 20
236.610454
 30
0.0
 10
78.256514
 20
237.024506
 30
0.0
 10
79.066074
 20
237.812768
 30
0.0
  0
SPLINE
  5
1c9
100
AcDbEntity
  8
Ebene_1
 62
7
100
AcDbSpline
 70
8
 71
3
 72
8
 73
4
 74
0
 40
0
 40
0
 40
0
 40
0
 40
1
 40
1
 40
1
 40
1
 10
79.066074
 20
237.812768
 30
0.0
 10
79.880378
 20
238.605637
 30
0.0
 10
80.304105
 20
239.625389
 30
0.0
 10
80.304105
 20
240.776890
 30
0.0
  0
LWPOLYLINE
  5
1ca
100
AcDbEntity
  8
Ebene_1
 62
7
100
AcDbPolyline
 90
2
 70
0
 10
61.213328
 20
236.610454
 30
0.0
 10
76.137666
 20
236.610454
 30
0.0
  0
LWPOLYLINE
  5
1cb
100
AcDbEntity
  8
Ebene_1
 62
7
100
AcDbPolyline
 90
3
 70
0
 10
80.304105
 20
240.776890
 30
0.0
 10
80.304105
 20
241.212240
 30
0.0
 10
57.046811
 20
241.212321
 30
0.0
  0
SPLINE
  5
1cc
100
AcDbEntity
  8
Ebene_1
 62
7
100
AcDbSpline
 70
8
 71
3
 72
8
 73
4
 74
0
 40
0
 40
0
 40
0
 40
0
 40
1
 40
1
 40
1
 40
1
 10
90.206532
 20
226.287979
 30
0.0
 10
89.072541
 20
226.287979
 30
0.0
 10
88.055825
 20
225.863367
 30
0.0
 10
87.245813
 20
225.053355
 30
0.0
  0
SPLINE
  5
1cd
100
AcDbEntity
  8
Ebene_1
 62
7
100
AcDbSpline
 70
8
 71
3
 72
8
 73
4
 74
0
 40
0
 40
0
 40
0
 40
0
 40
1
 40
1
 40
1
 40
1
 10
87.245813
 20
225.053355
 30
0.0
 10
86.453301
 20
224.260840
 30
0.0
 10
86.040102
 20
223.252800
 30
0.0
 10
86.040102
 20
222.121544
 30
0.0
  0
LWPOLYLINE
  5
1ce
100
AcDbEntity
  8
Ebene_1
 62
7
100
AcDbPolyline
 90
5
 70
0
 10
86.040102
 20
241.212321
 30
0.0
 10
86.040102
 20
229.148365
 30
0.0
 10
104.695529
 20
229.148365
 30
0.0
 10
104.695529
 20
226.287979
 30
0.0
 10
90.206532
 20
226.287979
 30
0.0
  0
SPLINE
  5
1cf
100
AcDbEntity
  8
Ebene_1
 62
7
100
AcDbSpline
 70
8
 71
3
 72
8
 73
4
 74
0
 40
0
 40
0
 40
0
 40
0
 40
1
 40
1
 40
1
 40
1
 10
105.130879
 20
236.610536
 30
0.0
 10
106.244652
 20
236.610536
 30
0.0
 10
107.248021
 20
237.024588
 30
0.0
 10
108.057589
 20
237.812850
 30
0.0
  0
SPLINE
  5
1d0
100
AcDbEntity
  8
Ebene_1
 62
7
100
AcDbSpline
 70
8
 71
3
 72
8
 73
4
 74
0
 40
0
 40
0
 40
0
 40
0
 40
1
 40
1
 40
1
 40
1
 10
108.057589
 20
237.812850
 30
0.0
 10
108.871885
 20
238.605720
 30
0.0
 10
109.297309
 20
239.625472
 30
0.0
 10
109.297309
 20
240.776971
 30
0.0
  0
LWPOLYLINE
  5
1d1
100
AcDbEntity
  8
Ebene_1
 62
7
100
AcDbPolyline
 90
8
 70
0
 10
86.040102
 20
222.121544
 30
0.0
 10
86.040102
 20
221.686194
 30
0.0
 10
86.475452
 20
221.686194
 30
0.0
 10
109.297309
 20
221.686194
 30
0.0
 10
109.297309
 20
233.750151
 30
0.0
 10
90.641882
 20
233.750151
 30
0.0
 10
90.641882
 20
236.610536
 30
0.0
 10
105.130879
 20
236.610536
 30
0.0
  0
LWPOLYLINE
  5
1d2
100
AcDbEntity
  8
Ebene_1
 62
7
100
AcDbPolyline
 90
3
 70
0
 10
109.297309
 20
240.776971
 30
0.0
 10
109.297309
 20
241.212321
 30
0.0
 10
86.040102
 20
241.212321
 30
0.0
  0
SPLINE
  5
1d3
100
AcDbEntity
  8
Ebene_1
 62
7
100
AcDbSpline
 70
8
 71
3
 72
8
 73
4
 74
0
 40
0
 40
0
 40
0
 40
0
 40
1
 40
1
 40
1
 40
1
 10
134.122463
 20
221.686194
 30
0.0
 10
135.236237
 20
221.686194
 30
0.0
 10
136.241312
 20
222.100246
 30
0.0
 10
137.050871
 20
222.888508
 30
0.0
  0
SPLINE
  5
1d4
100
AcDbEntity
  8
Ebene_1
 62
7
100
AcDbSpline
 70
8
 71
3
 72
8
 73
4
 74
0
 40
0
 40
0
 40
0
 40
0
 40
1
 40
1
 40
1
 40
1
 10
137.050871
 20
222.888508
 30
0.0
 10
137.865167
 20
223.681378
 30
0.0
 10
138.288902
 20
224.701129
 30
0.0
 10
138.288902
 20
225.852629
 30
0.0
  0
LWPOLYLINE
  5
1d5
100
AcDbEntity
  8
Ebene_1
 62
7
100
AcDbPolyline
 90
4
 70
0
 10
115.031687
 20
241.212321
 30
0.0
 10
115.031687
 20
221.686194
 30
0.0
 10
115.467037
 20
221.686194
 30
0.0
 10
134.122463
 20
221.686194
 30
0.0
  0
SPLINE
  5
1d6
100
AcDbEntity
  8
Ebene_1
 62
7
100
AcDbSpline
 70
8
 71
3
 72
8
 73
4
 74
0
 40
0
 40
0
 40
0
 40
0
 40
1
 40
1
 40
1
 40
1
 10
228.229930
 20
269.215568
 30
0.0
 10
211.430150
 20
269.215568
 30
0.0
 10
197.811840
 20
255.615634
 30
0.0
 10
197.811840
 20
238.838539
 30
0.0
  0
LWPOLYLINE
  5
1d7
100
AcDbEntity
  8
Ebene_1
 62
7
100
AcDbPolyline
 90
5
 70
0
 10
138.288902
 20
225.852629
 30
0.0
 10
138.288902
 20
226.287979
 30
0.0
 10
119.633476
 20
226.287979
 30
0.0
 10
119.633476
 20
241.212321
 30
0.0
 10
115.031687
 20
241.212321
 30
0.0
  0
SPLINE
  5
1d8
100
AcDbEntity
  8
Ebene_1
 62
7
100
AcDbSpline
 70
8
 71
3
 72
8
 73
4
 74
0
 40
0
 40
0
 40
0
 40
0
 40
1
 40
1
 40
1
 40
1
 10
197.811840
 20
56.125640
 30
0.0
 10
197.811840
 20
39.348540
 30
0.0
 10
211.430150
 20
25.748600
 30
0.0
 10
228.229930
 20
25.748600
 30
0.0
  0
LWPOLYLINE
  5
1d9
100
AcDbEntity
  8
Ebene_1
 62
7
100
AcDbPolyline
 90
2
 70
0
 10
197.811840
 20
238.838539
 30
0.0
 10
197.811840
 20
56.125640
 30
0.0
  0
SPLINE
  5
1da
100
AcDbEntity
  8
Ebene_1
 62
7
100
AcDbSpline
 70
8
 71
3
 72
8
 73
4
 74
0
 40
0
 40
0
 40
0
 40
0
 40
1
 40
1
 40
1
 40
1
 10
338.006490
 20
25.748600
 30
0.0
 10
354.806270
 20
25.748600
 30
0.0
 10
368.424580
 20
39.348540
 30
0.0
 10
368.424580
 20
56.125640
 30
0.0
  0
LWPOLYLINE
  5
1db
100
AcDbEntity
  8
Ebene_1
 62
7
100
AcDbPolyline
 90
2
 70
0
 10
228.229930
 20
25.748600
 30
0.0
 10
338.006490
 20
25.748600
 30
0.0
  0
SPLINE
  5
1dc
100
AcDbEntity
  8
Ebene_1
 62
7
100
AcDbSpline
 70
8
 71
3
 72
8
 73
4
 74
0
 40
0
 40
0
 40
0
 40
0
 40
1
 40
1
 40
1
 40
1
 10
368.424580
 20
238.838539
 30
0.0
 10
368.424580
 20
255.615634
 30
0.0
 10
354.806270
 20
269.215568
 30
0.0
 10
338.006490
 20
269.215568
 30
0.0
  0
LWPOLYLINE
  5
1dd
100
AcDbEntity
  8
Ebene_1
 62
7
100
AcDbPolyline
 90
2
 70
0
 10
368.424580
 20
56.125640
 30
0.0
 10
368.424580
 20
238.838539
 30
0.0
  0
LWPOLYLINE
  5
1de
100
AcDbEntity
  8
Ebene_1
 62
7
100
AcDbPolyline
 90
2
 70
0
 10
338.006490
 20
269.215568
 30
0.0
 10
228.229930
 20
269.215568
 30
0.0
  0
SPLINE
  5
1df
100
AcDbEntity
  8
Ebene_1
 62
7
100
AcDbSpline
 70
8
 71
3
 72
8
 73
4
 74
0
 40
0
 40
0
 40
0
 40
0
 40
1
 40
1
 40
1
 40
1
 10
338.006490
 20
263.277351
 30
0.0
 10
351.614900
 20
263.277351
 30
0.0
 10
362.478330
 20
252.428573
 30
0.0
 10
362.478330
 20
238.838539
 30
0.0
  0
LWPOLYLINE
  5
1e0
100
AcDbEntity
  8
Ebene_1
 62
7
100
AcDbPolyline
 90
2
 70
0
 10
228.229930
 20
263.277351
 30
0.0
 10
338.006490
 20
263.277351
 30
0.0
  0
SPLINE
  5
1e1
100
AcDbEntity
  8
Ebene_1
 62
7
100
AcDbSpline
 70
8
 71
3
 72
8
 73
4
 74
0
 40
0
 40
0
 40
0
 40
0
 40
1
 40
1
 40
1
 40
1
 10
362.478330
 20
56.125640
 30
0.0
 10
362.478330
 20
42.535580
 30
0.0
 10
351.614900
 20
31.686830
 30
0.0
 10
338.006490
 20
31.686830
 30
0.0
  0
LWPOLYLINE
  5
1e2
100
AcDbEntity
  8
Ebene_1
 62
7
100
AcDbPolyline
 90
2
 70
0
 10
362.478330
 20
238.838539
 30
0.0
 10
362.478330
 20
56.125640
 30
0.0
  0
SPLINE
  5
1e3
100
AcDbEntity
  8
Ebene_1
 62
7
100
AcDbSpline
 70
8
 71
3
 72
8
 73
4
 74
0
 40
0
 40
0
 40
0
 40
0
 40
1
 40
1
 40
1
 40
1
 10
228.229930
 20
31.686830
 30
0.0
 10
214.621510
 20
31.686830
 30
0.0
 10
203.758090
 20
42.535580
 30
0.0
 10
203.758090
 20
56.125640
 30
0.0
  0
LWPOLYLINE
  5
1e4
100
AcDbEntity
  8
Ebene_1
 62
7
100
AcDbPolyline
 90
2
 70
0
 10
338.006490
 20
31.686830
 30
0.0
 10
228.229930
 20
31.686830
 30
0.0
  0
SPLINE
  5
1e5
100
AcDbEntity
  8
Ebene_1
 62
7
100
AcDbSpline
 70
8
 71
3
 72
8
 73
4
 74
0
 40
0
 40
0
 40
0
 40
0
 40
1
 40
1
 40
1
 40
1
 10
203.758090
 20
238.838539
 30
0.0
 10
203.758090
 20
252.428573
 30
0.0
 10
214.621510
 20
263.277351
 30
0.0
 10
228.229930
 20
263.277351
 30
0.0
  0
LWPOLYLINE
  5
1e6
100
AcDbEntity
  8
Ebene_1
 62
7
100
AcDbPolyline
 90
2
 70
0
 10
203.758090
 20
56.125640
 30
0.0
 10
203.758090
 20
238.838539
 30
0.0
  0
SPLINE
  5
1e7
100
AcDbEntity
  8
Ebene_1
 62
7
100
AcDbSpline
 70
8
 71
3
 72
8
 73
4
 74
0
 40
0
 40
0
 40
0
 40
0
 40
1
 40
1
 40
1
 40
1
 10
217.890860
 20
44.756310
 30
0.0
 10
217.890863
 20
44.178998
 30
0.0
 10
217.661528
 20
43.625331
 30
0.0
 10
217.253308
 20
43.217109
 30
0.0
  0
SPLINE
  5
1e8
100
AcDbEntity
  8
Ebene_1
 62
7
100
AcDbSpline
 70
8
 71
3
 72
8
 73
4
 74
0
 40
0
 40
0
 40
0
 40
0
 40
1
 40
1
 40
1
 40
1
 10
217.253308
 20
43.217109
 30
0.0
 10
216.845088
 20
42.808887
 30
0.0
 10
216.291422
 20
42.579550
 30
0.0
 10
215.714110
 20
42.579550
 30
0.0
  0
SPLINE
  5
1e9
100
AcDbEntity
  8
Ebene_1
 62
7
100
AcDbSpline
 70
8
 71
3
 72
8
 73
4
 74
0
 40
0
 40
0
 40
0
 40
0
 40
1
 40
1
 40
1
 40
1
 10
215.714110
 20
42.579550
 30
0.0
 10
215.136800
 20
42.579553
 30
0.0
 10
214.583136
 20
42.808891
 30
0.0
 10
214.174918
 20
43.217112
 30
0.0
  0
SPLINE
  5
1ea
100
AcDbEntity
  8
Ebene_1
 62
7
100
AcDbSpline
 70
8
 71
3
 72
8
 73
4
 74
0
 40
0
 40
0
 40
0
 40
0
 40
1
 40
1
 40
1
 40
1
 10
214.174918
 20
43.217112
 30
0.0
 10
213.766700
 20
43.625334
 30
0.0
 10
213.537367
 20
44.179000
 30
0.0
 10
213.537370
 20
44.756310
 30
0.0
  0
SPLINE
  5
1eb
100
AcDbEntity
  8
Ebene_1
 62
7
100
AcDbSpline
 70
8
 71
3
 72
8
 73
4
 74
0
 40
0
 40
0
 40
0
 40
0
 40
1
 40
1
 40
1
 40
1
 10
213.537370
 20
44.756310
 30
0.0
 10
213.537381
 20
45.958484
 30
0.0
 10
214.511936
 20
46.933034
 30
0.0
 10
215.714110
 20
46.933040
 30
0.0
  0
SPLINE
  5
1ec
100
AcDbEntity
  8
Ebene_1
 62
7
100
AcDbSpline
 70
8
 71
3
 72
8
 73
4
 74
0
 40
0
 40
0
 40
0
 40
0
 40
1
 40
1
 40
1
 40
1
 10
215.714110
 20
46.933040
 30
0.0
 10
216.916288
 20
46.933040
 30
0.0
 10
217.890849
 20
45.958488
 30
0.0
 10
217.890860
 20
44.756310
 30
0.0
  0
LWPOLYLINE
  5
1ed
100
AcDbEntity
  8
Ebene_1
 62
7
100
AcDbPolyline
 90
1
 70
1
 10
228.229930
 20
263.277351
 30
0.0
  0
SPLINE
  5
1ee
100
AcDbEntity
  8
Ebene_1
 62
7
100
AcDbSpline
 70
8
 71
3
 72
8
 73
4
 74
0
 40
0
 40
0
 40
0
 40
0
 40
1
 40
1
 40
1
 40
1
 10
352.774210
 20
45.010250
 30
0.0
 10
352.774204
 20
43.808068
 30
0.0
 10
351.799642
 20
42.833510
 30
0.0
 10
350.597460
 20
42.833510
 30
0.0
  0
SPLINE
  5
1ef
100
AcDbEntity
  8
Ebene_1
 62
7
100
AcDbSpline
 70
8
 71
3
 72
8
 73
4
 74
0
 40
0
 40
0
 40
0
 40
0
 40
1
 40
1
 40
1
 40
1
 10
350.597460
 20
42.833510
 30
0.0
 10
350.020150
 20
42.833507
 30
0.0
 10
349.466484
 20
43.062840
 30
0.0
 10
349.058262
 20
43.471058
 30
0.0
  0
SPLINE
  5
1f0
100
AcDbEntity
  8
Ebene_1
 62
7
100
AcDbSpline
 70
8
 71
3
 72
8
 73
4
 74
0
 40
0
 40
0
 40
0
 40
0
 40
1
 40
1
 40
1
 40
1
 10
349.058262
 20
43.471058
 30
0.0
 10
348.650041
 20
43.879276
 30
0.0
 10
348.420703
 20
44.432940
 30
0.0
 10
348.420700
 20
45.010250
 30
0.0
  0
SPLINE
  5
1f1
100
AcDbEntity
  8
Ebene_1
 62
7
100
AcDbSpline
 70
8
 71
3
 72
8
 73
4
 74
0
 40
0
 40
0
 40
0
 40
0
 40
1
 40
1
 40
1
 40
1
 10
348.420700
 20
45.010250
 30
0.0
 10
348.420697
 20
45.587563
 30
0.0
 10
348.650033
 20
46.141232
 30
0.0
 10
349.058255
 20
46.549455
 30
0.0
  0
SPLINE
  5
1f2
100
AcDbEntity
  8
Ebene_1
 62
7
100
AcDbSpline
 70
8
 71
3
 72
8
 73
4
 74
0
 40
0
 40
0
 40
0
 40
0
 40
1
 40
1
 40
1
 40
1
 10
349.058255
 20
46.549455
 30
0.0
 10
349.466478
 20
46.957677
 30
0.0
 10
350.020147
 20
47.187013
 30
0.0
 10
350.597460
 20
47.187010
 30
0.0
  0
SPLINE
  5
1f3
100
AcDbEntity
  8
Ebene_1
 62
7
100
AcDbSpline
 70
8
 71
3
 72
8
 73
4
 74
0
 40
0
 40
0
 40
0
 40
0
 40
1
 40
1
 40
1
 40
1
 10
350.597460
 20
47.187010
 30
0.0
 10
351.174772
 20
47.187010
 30
0.0
 10
351.728438
 20
46.957673
 30
0.0
 10
352.136658
 20
46.549451
 30
0.0
  0
SPLINE
  5
1f4
100
AcDbEntity
  8
Ebene_1
 62
7
100
AcDbSpline
 70
8
 71
3
 72
8
 73
4
 74
0
 40
0
 40
0
 40
0
 40
0
 40
1
 40
1
 40
1
 40
1
 10
352.136658
 20
46.549451
 30
0.0
 10
352.544878
 20
46.141229
 30
0.0
 10
352.774213
 20
45.587562
 30
0.0
 10
352.774210
 20
45.010250
 30
0.0
  0
LWPOLYLINE
  5
1f5
100
AcDbEntity
  8
Ebene_1
 62
7
100
AcDbPolyline
 90
1
 70
1
 10
217.890860
 20
44.756310
 30
0.0
  0
SPLINE
  5
1f6
100
AcDbEntity
  8
Ebene_1
 62
7
100
AcDbSpline
 70
8
 71
3
 72
8
 73
4
 74
0
 40
0
 40
0
 40
0
 40
0
 40
1
 40
1
 40
1
 40
1
 10
353.103300
 20
249.699968
 30
0.0
 10
353.103300
 20
249.122658
 30
0.0
 10
352.873965
 20
248.568993
 30
0.0
 10
352.465745
 20
248.160773
 30
0.0
  0
SPLINE
  5
1f7
100
AcDbEntity
  8
Ebene_1
 62
7
100
AcDbSpline
 70
8
 71
3
 72
8
 73
4
 74
0
 40
0
 40
0
 40
0
 40
0
 40
1
 40
1
 40
1
 40
1
 10
352.465745
 20
248.160773
 30
0.0
 10
352.057525
 20
247.752553
 30
0.0
 10
351.503860
 20
247.523217
 30
0.0
 10
350.926550
 20
247.523217
 30
0.0
  0
SPLINE
  5
1f8
100
AcDbEntity
  8
Ebene_1
 62
7
100
AcDbSpline
 70
8
 71
3
 72
8
 73
4
 74
0
 40
0
 40
0
 40
0
 40
0
 40
1
 40
1
 40
1
 40
1
 10
350.926550
 20
247.523217
 30
0.0
 10
350.349240
 20
247.523217
 30
0.0
 10
349.795575
 20
247.752553
 30
0.0
 10
349.387355
 20
248.160773
 30
0.0
  0
SPLINE
  5
1f9
100
AcDbEntity
  8
Ebene_1
 62
7
100
AcDbSpline
 70
8
 71
3
 72
8
 73
4
 74
0
 40
0
 40
0
 40
0
 40
0
 40
1
 40
1
 40
1
 40
1
 10
349.387355
 20
248.160773
 30
0.0
 10
348.979135
 20
248.568993
 30
0.0
 10
348.749800
 20
249.122658
 30
0.0
 10
348.749800
 20
249.699968
 30
0.0
  0
SPLINE
  5
1fa
100
AcDbEntity
  8
Ebene_1
 62
7
100
AcDbSpline
 70
8
 71
3
 72
8
 73
4
 74
0
 40
0
 40
0
 40
0
 40
0
 40
1
 40
1
 40
1
 40
1
 10
348.749800
 20
249.699968
 30
0.0
 10
348.749800
 20
250.277278
 30
0.0
 10
348.979136
 20
250.830943
 30
0.0
 10
349.387355
 20
251.239163
 30
0.0
  0
SPLINE
  5
1fb
100
AcDbEntity
  8
Ebene_1
 62
7
100
AcDbSpline
 70
8
 71
3
 72
8
 73
4
 74
0
 40
0
 40
0
 40
0
 40
0
 40
1
 40
1
 40
1
 40
1
 10
349.387355
 20
251.239163
 30
0.0
 10
349.795575
 20
251.647382
 30
0.0
 10
350.349240
 20
251.876718
 30
0.0
 10
350.926550
 20
251.876718
 30
0.0
  0
SPLINE
  5
1fc
100
AcDbEntity
  8
Ebene_1
 62
7
100
AcDbSpline
 70
8
 71
3
 72
8
 73
4
 74
0
 40
0
 40
0
 40
0
 40
0
 40
1
 40
1
 40
1
 40
1
 10
350.926550
 20
251.876718
 30
0.0
 10
351.503860
 20
251.876718
 30
0.0
 10
352.057525
 20
251.647382
 30
0.0
 10
352.465745
 20
251.239163
 30
0.0
  0
SPLINE
  5
1fd
100
AcDbEntity
  8
Ebene_1
 62
7
100
AcDbSpline
 70
8
 71
3
 72
8
 73
4
 74
0
 40
0
 40
0
 40
0
 40
0
 40
1
 40
1
 40
1
 40
1
 10
352.465745
 20
251.239163
 30
0.0
 10
352.873964
 20
250.830943
 30
0.0
 10
353.103300
 20
250.277278
 30
0.0
 10
353.103300
 20
249.699968
 30
0.0
  0
LWPOLYLINE
  5
1fe
100
AcDbEntity
  8
Ebene_1
 62
7
100
AcDbPolyline
 90
1
 70
1
 10
352.774210
 20
45.010250
 30
0.0
  0
SPLINE
  5
1ff
100
AcDbEntity
  8
Ebene_1
 62
7
100
AcDbSpline
 70
8
 71
3
 72
8
 73
4
 74
0
 40
0
 40
0
 40
0
 40
0
 40
1
 40
1
 40
1
 40
1
 10
218.144820
 20
249.699968
 30
0.0
 10
218.144821
 20
248.497786
 30
0.0
 10
217.170262
 20
247.523223
 30
0.0
 10
215.968080
 20
247.523217
 30
0.0
  0
SPLINE
  5
200
100
AcDbEntity
  8
Ebene_1
 62
7
100
AcDbSpline
 70
8
 71
3
 72
8
 73
4
 74
0
 40
0
 40
0
 40
0
 40
0
 40
1
 40
1
 40
1
 40
1
 10
215.968080
 20
247.523217
 30
0.0
 10
215.390770
 20
247.523217
 30
0.0
 10
214.837105
 20
247.752553
 30
0.0
 10
214.428885
 20
248.160773
 30
0.0
  0
SPLINE
  5
201
100
AcDbEntity
  8
Ebene_1
 62
7
100
AcDbSpline
 70
8
 71
3
 72
8
 73
4
 74
0
 40
0
 40
0
 40
0
 40
0
 40
1
 40
1
 40
1
 40
1
 10
214.428885
 20
248.160773
 30
0.0
 10
214.020665
 20
248.568993
 30
0.0
 10
213.791330
 20
249.122658
 30
0.0
 10
213.791330
 20
249.699968
 30
0.0
  0
SPLINE
  5
202
100
AcDbEntity
  8
Ebene_1
 62
7
100
AcDbSpline
 70
8
 71
3
 72
8
 73
4
 74
0
 40
0
 40
0
 40
0
 40
0
 40
1
 40
1
 40
1
 40
1
 10
213.791330
 20
249.699968
 30
0.0
 10
213.791330
 20
250.277278
 30
0.0
 10
214.020666
 20
250.830943
 30
0.0
 10
214.428885
 20
251.239163
 30
0.0
  0
SPLINE
  5
203
100
AcDbEntity
  8
Ebene_1
 62
7
100
AcDbSpline
 70
8
 71
3
 72
8
 73
4
 74
0
 40
0
 40
0
 40
0
 40
0
 40
1
 40
1
 40
1
 40
1
 10
214.428885
 20
251.239163
 30
0.0
 10
214.837105
 20
251.647382
 30
0.0
 10
215.390770
 20
251.876718
 30
0.0
 10
215.968080
 20
251.876718
 30
0.0
  0
SPLINE
  5
204
100
AcDbEntity
  8
Ebene_1
 62
7
100
AcDbSpline
 70
8
 71
3
 72
8
 73
4
 74
0
 40
0
 40
0
 40
0
 40
0
 40
1
 40
1
 40
1
 40
1
 10
215.968080
 20
251.876718
 30
0.0
 10
217.170262
 20
251.876712
 30
0.0
 10
218.144820
 20
250.902150
 30
0.0
 10
218.144820
 20
249.699968
 30
0.0
  0
LWPOLYLINE
  5
205
100
AcDbEntity
  8
Ebene_1
 62
7
100
AcDbPolyline
 90
1
 70
1
 10
353.103300
 20
249.699968
 30
0.0
  0
LWPOLYLINE
  5
206
100
AcDbEntity
  8
Ebene_1
 62
7
100
AcDbPolyline
 90
1
 70
1
 10
218.144820
 20
249.699968
 30
0.0
  0
SPLINE
  5
207
100
AcDbEntity
  8
Ebene_1
 62
7
100
AcDbSpline
 70
8
 71
3
 72
8
 73
4
 74
0
 40
0
 40
0
 40
0
 40
0
 40
1
 40
1
 40
1
 40
1
 10
333.723299
 20
73.282753
 30
0.0
 10
333.723299
 20
72.196233
 30
0.0
 10
334.091330
 20
71.217862
 30
0.0
 10
334.793438
 20
70.439004
 30
0.0
  0
LWPOLYLINE
  5
208
100
AcDbEntity
  8
Ebene_1
 62
7
100
AcDbPolyline
 90
2
 70
0
 10
333.723299
 20
80.843703
 30
0.0
 10
333.723299
 20
73.282753
 30
0.0
  0
SPLINE
  5
209
100
AcDbEntity
  8
Ebene_1
 62
7
100
AcDbSpline
 70
8
 71
3
 72
8
 73
4
 74
0
 40
0
 40
0
 40
0
 40
0
 40
1
 40
1
 40
1
 40
1
 10
334.796746
 20
70.435521
 30
0.0
 10
335.502995
 20
69.672683
 30
0.0
 10
336.411559
 20
69.274338
 30
0.0
 10
337.432820
 20
69.274338
 30
0.0
  0
LWPOLYLINE
  5
20a
100
AcDbEntity
  8
Ebene_1
 62
7
100
AcDbPolyline
 90
3
 70
0
 10
334.793438
 20
70.439004
 30
0.0
 10
334.795092
 20
70.437262
 30
0.0
 10
334.796746
 20
70.435521
 30
0.0
  0
SPLINE
  5
20b
100
AcDbEntity
  8
Ebene_1
 62
7
100
AcDbSpline
 70
8
 71
3
 72
8
 73
4
 74
0
 40
0
 40
0
 40
0
 40
0
 40
1
 40
1
 40
1
 40
1
 10
340.304520
 20
80.391296
 30
0.0
 10
340.304520
 20
79.304767
 30
0.0
 10
340.672553
 20
78.328173
 30
0.0
 10
341.374658
 20
77.549314
 30
0.0
  0
LWPOLYLINE
  5
20c
100
AcDbEntity
  8
Ebene_1
 62
7
100
AcDbPolyline
 90
5
 70
0
 10
337.432820
 20
69.274338
 30
0.0
 10
354.306308
 20
69.274338
 30
0.0
 10
354.306308
 20
80.843747
 30
0.0
 10
340.304520
 20
80.843747
 30
0.0
 10
340.304520
 20
80.391296
 30
0.0
  0
SPLINE
  5
20d
100
AcDbEntity
  8
Ebene_1
 62
7
100
AcDbSpline
 70
8
 71
3
 72
8
 73
4
 74
0
 40
0
 40
0
 40
0
 40
0
 40
1
 40
1
 40
1
 40
1
 10
341.379621
 20
77.544090
 30
0.0
 10
342.085869
 20
76.781261
 30
0.0
 10
342.994432
 20
76.384674
 30
0.0
 10
344.015694
 20
76.384674
 30
0.0
  0
LWPOLYLINE
  5
20e
100
AcDbEntity
  8
Ebene_1
 62
7
100
AcDbPolyline
 90
3
 70
0
 10
341.374658
 20
77.549314
 30
0.0
 10
341.377966
 20
77.545831
 30
0.0
 10
341.379621
 20
77.544090
 30
0.0
  0
SPLINE
  5
20f
100
AcDbEntity
  8
Ebene_1
 62
7
100
AcDbSpline
 70
8
 71
3
 72
8
 73
4
 74
0
 40
0
 40
0
 40
0
 40
0
 40
1
 40
1
 40
1
 40
1
 10
339.078988
 20
73.735335
 30
0.0
 10
338.714664
 20
73.735335
 30
0.0
 10
338.447597
 20
73.852949
 30
0.0
 10
338.197025
 20
74.104712
 30
0.0
  0
SPLINE
  5
210
100
AcDbEntity
  8
Ebene_1
 62
7
100
AcDbSpline
 70
8
 71
3
 72
8
 73
4
 74
0
 40
0
 40
0
 40
0
 40
0
 40
1
 40
1
 40
1
 40
1
 10
338.197025
 20
74.104712
 30
0.0
 10
337.962045
 20
74.376257
 30
0.0
 10
337.851766
 20
74.664084
 30
0.0
 10
337.851766
 20
75.059112
 30
0.0
  0
LWPOLYLINE
  5
211
100
AcDbEntity
  8
Ebene_1
 62
7
100
AcDbPolyline
 90
4
 70
0
 10
344.015694
 20
76.384674
 30
0.0
 10
350.177987
 20
76.384674
 30
0.0
 10
350.177987
 20
73.735335
 30
0.0
 10
339.078988
 20
73.735335
 30
0.0
  0
LWPOLYLINE
  5
212
100
AcDbEntity
  8
Ebene_1
 62
7
100
AcDbPolyline
 90
3
 70
0
 10
337.851766
 20
75.059112
 30
0.0
 10
337.851766
 20
80.843825
 30
0.0
 10
333.723299
 20
80.843703
 30
0.0
  0
SPLINE
  5
213
100
AcDbEntity
  8
Ebene_1
 62
7
100
AcDbSpline
 70
8
 71
3
 72
8
 73
4
 74
0
 40
0
 40
0
 40
0
 40
0
 40
1
 40
1
 40
1
 40
1
 10
228.411262
 20
82.169248
 30
0.0
 10
228.411262
 20
81.778234
 30
0.0
 10
228.299743
 20
81.492627
 30
0.0
 10
228.048015
 20
81.218383
 30
0.0
  0
SPLINE
  5
214
100
AcDbEntity
  8
Ebene_1
 62
7
100
AcDbSpline
 70
8
 71
3
 72
8
 73
4
 74
0
 40
0
 40
0
 40
0
 40
0
 40
1
 40
1
 40
1
 40
1
 10
228.048015
 20
81.218383
 30
0.0
 10
227.793318
 20
80.959985
 30
0.0
 10
227.532186
 20
80.843703
 30
0.0
 10
227.185682
 20
80.843703
 30
0.0
  0
LWPOLYLINE
  5
215
100
AcDbEntity
  8
Ebene_1
 62
7
100
AcDbPolyline
 90
4
 70
0
 10
211.956669
 20
87.953953
 30
0.0
 10
211.956669
 20
83.493026
 30
0.0
 10
228.411262
 20
83.493026
 30
0.0
 10
228.411262
 20
82.169248
 30
0.0
  0
SPLINE
  5
216
100
AcDbEntity
  8
Ebene_1
 62
7
100
AcDbSpline
 70
8
 71
3
 72
8
 73
4
 74
0
 40
0
 40
0
 40
0
 40
0
 40
1
 40
1
 40
1
 40
1
 10
228.830156
 20
76.384552
 30
0.0
 10
229.820821
 20
76.384552
 30
0.0
 10
230.717015
 20
76.783464
 30
0.0
 10
231.436779
 20
77.540424
 30
0.0
  0
SPLINE
  5
217
100
AcDbEntity
  8
Ebene_1
 62
7
100
AcDbSpline
 70
8
 71
3
 72
8
 73
4
 74
0
 40
0
 40
0
 40
0
 40
0
 40
1
 40
1
 40
1
 40
1
 10
231.436779
 20
77.540424
 30
0.0
 10
232.161088
 20
78.302191
 30
0.0
 10
232.541279
 20
79.285359
 30
0.0
 10
232.541279
 20
80.391244
 30
0.0
  0
LWPOLYLINE
  5
218
100
AcDbEntity
  8
Ebene_1
 62
7
100
AcDbPolyline
 90
7
 70
0
 10
227.185682
 20
80.843703
 30
0.0
 10
211.956669
 20
80.843703
 30
0.0
 10
211.956669
 20
69.274286
 30
0.0
 10
212.375563
 20
69.274286
 30
0.0
 10
216.085049
 20
69.274286
 30
0.0
 10
216.085049
 20
76.384552
 30
0.0
 10
228.830156
 20
76.384552
 30
0.0
  0
LWPOLYLINE
  5
219
100
AcDbEntity
  8
Ebene_1
 62
7
100
AcDbPolyline
 90
3
 70
0
 10
232.541279
 20
80.391244
 30
0.0
 10
232.541279
 20
87.953953
 30
0.0
 10
211.956669
 20
87.953953
 30
0.0
  0
LWPOLYLINE
  5
21a
100
AcDbEntity
  8
Ebene_1
 62
7
100
AcDbPolyline
 90
9
 70
1
 10
234.994085
 20
80.843703
 30
0.0
 10
234.994085
 20
69.274286
 30
0.0
 10
235.412979
 20
69.274286
 30
0.0
 10
239.122465
 20
69.274286
 30
0.0
 10
239.122465
 20
76.384552
 30
0.0
 10
251.448687
 20
76.384552
 30
0.0
 10
251.448687
 20
69.274286
 30
0.0
 10
255.577059
 20
69.274286
 30
0.0
 10
255.577059
 20
80.843703
 30
0.0
  0
SPLINE
  5
21b
100
AcDbEntity
  8
Ebene_1
 62
7
100
AcDbSpline
 70
8
 71
3
 72
8
 73
4
 74
0
 40
0
 40
0
 40
0
 40
0
 40
1
 40
1
 40
1
 40
1
 10
234.994085
 20
87.501502
 30
0.0
 10
234.994085
 20
86.414973
 30
0.0
 10
235.362112
 20
85.436611
 30
0.0
 10
236.064227
 20
84.657744
 30
0.0
  0
LWPOLYLINE
  5
21c
100
AcDbEntity
  8
Ebene_1
 62
7
100
AcDbPolyline
 90
2
 70
0
 10
234.994085
 20
87.953953
 30
0.0
 10
234.994085
 20
87.501502
 30
0.0
  0
SPLINE
  5
21d
100
AcDbEntity
  8
Ebene_1
 62
7
100
AcDbSpline
 70
8
 71
3
 72
8
 73
4
 74
0
 40
0
 40
0
 40
0
 40
0
 40
1
 40
1
 40
1
 40
1
 10
236.067710
 20
84.654261
 30
0.0
 10
236.773961
 20
83.891432
 30
0.0
 10
237.682528
 20
83.493069
 30
0.0
 10
238.703789
 20
83.493069
 30
0.0
  0
LWPOLYLINE
  5
21e
100
AcDbEntity
  8
Ebene_1
 62
7
100
AcDbPolyline
 90
3
 70
0
 10
236.064227
 20
84.657744
 30
0.0
 10
236.065969
 20
84.656002
 30
0.0
 10
236.067710
 20
84.654261
 30
0.0
  0
SPLINE
  5
21f
100
AcDbEntity
  8
Ebene_1
 62
7
100
AcDbSpline
 70
8
 71
3
 72
8
 73
4
 74
0
 40
0
 40
0
 40
0
 40
0
 40
1
 40
1
 40
1
 40
1
 10
251.867789
 20
83.493069
 30
0.0
 10
252.858454
 20
83.493069
 30
0.0
 10
253.754649
 20
83.891980
 30
0.0
 10
254.474413
 20
84.648958
 30
0.0
  0
SPLINE
  5
220
100
AcDbEntity
  8
Ebene_1
 62
7
100
AcDbSpline
 70
8
 71
3
 72
8
 73
4
 74
0
 40
0
 40
0
 40
0
 40
0
 40
1
 40
1
 40
1
 40
1
 10
254.474413
 20
84.648958
 30
0.0
 10
255.198731
 20
85.410716
 30
0.0
 10
255.577267
 20
86.395661
 30
0.0
 10
255.577267
 20
87.501537
 30
0.0
  0
LWPOLYLINE
  5
221
100
AcDbEntity
  8
Ebene_1
 62
7
100
AcDbPolyline
 90
2
 70
0
 10
238.703789
 20
83.493069
 30
0.0
 10
251.867789
 20
83.493069
 30
0.0
  0
LWPOLYLINE
  5
222
100
AcDbEntity
  8
Ebene_1
 62
7
100
AcDbPolyline
 90
3
 70
0
 10
255.577267
 20
87.501537
 30
0.0
 10
255.577267
 20
87.953996
 30
0.0
 10
234.994085
 20
87.953953
 30
0.0
  0
SPLINE
  5
223
100
AcDbEntity
  8
Ebene_1
 62
7
100
AcDbSpline
 70
8
 71
3
 72
8
 73
4
 74
0
 40
0
 40
0
 40
0
 40
0
 40
1
 40
1
 40
1
 40
1
 10
258.029873
 20
87.501502
 30
0.0
 10
258.029873
 20
86.414973
 30
0.0
 10
258.397900
 20
85.436611
 30
0.0
 10
259.100006
 20
84.657744
 30
0.0
  0
LWPOLYLINE
  5
224
100
AcDbEntity
  8
Ebene_1
 62
7
100
AcDbPolyline
 90
2
 70
0
 10
258.029873
 20
87.953953
 30
0.0
 10
258.029873
 20
87.501502
 30
0.0
  0
SPLINE
  5
225
100
AcDbEntity
  8
Ebene_1
 62
7
100
AcDbSpline
 70
8
 71
3
 72
8
 73
4
 74
0
 40
0
 40
0
 40
0
 40
0
 40
1
 40
1
 40
1
 40
1
 10
259.105231
 20
84.654261
 30
0.0
 10
259.811473
 20
83.891432
 30
0.0
 10
260.720040
 20
83.493078
 30
0.0
 10
261.741301
 20
83.493069
 30
0.0
  0
LWPOLYLINE
  5
226
100
AcDbEntity
  8
Ebene_1
 62
7
100
AcDbPolyline
 90
3
 70
0
 10
259.100006
 20
84.657744
 30
0.0
 10
259.103489
 20
84.656002
 30
0.0
 10
259.105231
 20
84.654261
 30
0.0
  0
SPLINE
  5
227
100
AcDbEntity
  8
Ebene_1
 62
7
100
AcDbSpline
 70
8
 71
3
 72
8
 73
4
 74
0
 40
0
 40
0
 40
0
 40
0
 40
1
 40
1
 40
1
 40
1
 10
274.486425
 20
82.169283
 30
0.0
 10
274.486425
 20
81.778278
 30
0.0
 10
274.373260
 20
81.492671
 30
0.0
 10
274.121523
 20
81.218426
 30
0.0
  0
SPLINE
  5
228
100
AcDbEntity
  8
Ebene_1
 62
7
100
AcDbSpline
 70
8
 71
3
 72
8
 73
4
 74
0
 40
0
 40
0
 40
0
 40
0
 40
1
 40
1
 40
1
 40
1
 10
274.121523
 20
81.218426
 30
0.0
 10
273.866826
 20
80.960029
 30
0.0
 10
273.605703
 20
80.843738
 30
0.0
 10
273.259191
 20
80.843738
 30
0.0
  0
LWPOLYLINE
  5
229
100
AcDbEntity
  8
Ebene_1
 62
7
100
AcDbPolyline
 90
3
 70
0
 10
261.741301
 20
83.493069
 30
0.0
 10
274.486425
 20
83.493069
 30
0.0
 10
274.486425
 20
82.169283
 30
0.0
  0
SPLINE
  5
22a
100
AcDbEntity
  8
Ebene_1
 62
7
100
AcDbSpline
 70
8
 71
3
 72
8
 73
4
 74
0
 40
0
 40
0
 40
0
 40
0
 40
1
 40
1
 40
1
 40
1
 10
274.851239
 20
76.388070
 30
0.0
 10
275.898291
 20
76.241479
 30
0.0
 10
276.807180
 20
76.801034
 30
0.0
 10
277.510227
 20
77.540415
 30
0.0
  0
SPLINE
  5
22b
100
AcDbEntity
  8
Ebene_1
 62
7
100
AcDbSpline
 70
8
 71
3
 72
8
 73
4
 74
0
 40
0
 40
0
 40
0
 40
0
 40
1
 40
1
 40
1
 40
1
 10
277.510227
 20
77.540415
 30
0.0
 10
278.234545
 20
78.302182
 30
0.0
 10
278.614727
 20
79.285350
 30
0.0
 10
278.614727
 20
80.391235
 30
0.0
  0
LWPOLYLINE
  5
22c
100
AcDbEntity
  8
Ebene_1
 62
7
100
AcDbPolyline
 90
12
 70
0
 10
273.259191
 20
80.843738
 30
0.0
 10
258.030186
 20
80.843738
 30
0.0
 10
258.030186
 20
69.274329
 30
0.0
 10
258.449080
 20
69.274329
 30
0.0
 10
262.160195
 20
69.274329
 30
0.0
 10
262.160195
 20
76.384587
 30
0.0
 10
266.502924
 20
76.384587
 30
0.0
 10
273.085747
 20
69.274329
 30
0.0
 10
279.207134
 20
69.274329
 30
0.0
 10
272.624311
 20
76.384587
 30
0.0
 10
274.905310
 20
76.384587
 30
0.0
 10
274.851239
 20
76.388070
 30
0.0
  0
LWPOLYLINE
  5
22d
100
AcDbEntity
  8
Ebene_1
 62
7
100
AcDbPolyline
 90
3
 70
0
 10
278.614727
 20
80.391235
 30
0.0
 10
278.614727
 20
87.953944
 30
0.0
 10
258.029873
 20
87.953953
 30
0.0
  0
LWPOLYLINE
  5
22e
100
AcDbEntity
  8
Ebene_1
 62
7
100
AcDbPolyline
 90
9
 70
1
 10
296.122850
 20
87.953953
 30
0.0
 10
287.476651
 20
78.615007
 30
0.0
 10
296.122850
 20
69.274286
 30
0.0
 10
296.296293
 20
69.274286
 30
0.0
 10
302.244236
 20
69.274286
 30
0.0
 10
293.594772
 20
78.616775
 30
0.0
 10
294.800718
 20
79.938793
 30
0.0
 10
294.823617
 20
79.938793
 30
0.0
 10
302.244219
 20
87.953953
 30
0.0
  0
LWPOLYLINE
  5
22f
100
AcDbEntity
  8
Ebene_1
 62
7
100
AcDbPolyline
 90
5
 70
1
 10
281.067280
 20
87.953953
 30
0.0
 10
281.067280
 20
69.274286
 30
0.0
 10
281.486174
 20
69.274286
 30
0.0
 10
285.195660
 20
69.274286
 30
0.0
 10
285.195660
 20
87.953953
 30
0.0
  0
LWPOLYLINE
  5
230
100
AcDbEntity
  8
Ebene_1
 62
7
100
AcDbPolyline
 90
5
 70
1
 10
304.104696
 20
87.953953
 30
0.0
 10
304.104696
 20
69.274286
 30
0.0
 10
304.523590
 20
69.274286
 30
0.0
 10
308.233068
 20
69.274286
 30
0.0
 10
308.233068
 20
87.953953
 30
0.0
  0
LWPOLYLINE
  5
231
100
AcDbEntity
  8
Ebene_1
 62
7
100
AcDbPolyline
 90
12
 70
1
 10
310.093545
 20
87.953953
 30
0.0
 10
313.976476
 20
83.758145
 30
0.0
 10
313.976476
 20
69.274286
 30
0.0
 10
314.395368
 20
69.274286
 30
0.0
 10
318.106487
 20
69.274286
 30
0.0
 10
318.106487
 20
79.298994
 30
0.0
 10
327.385924
 20
69.274286
 30
0.0
 10
331.270491
 20
69.274286
 30
0.0
 10
331.270491
 20
87.953953
 30
0.0
 10
327.140479
 20
87.953953
 30
0.0
 10
327.140479
 20
76.151248
 30
0.0
 10
316.214929
 20
87.953953
 30
0.0
  0
SPLINE
  5
232
100
AcDbEntity
  8
Ebene_1
 62
7
100
AcDbSpline
 70
8
 71
3
 72
8
 73
4
 74
0
 40
0
 40
0
 40
0
 40
0
 40
1
 40
1
 40
1
 40
1
 10
350.596788
 20
83.493026
 30
0.0
 10
351.587449
 20
83.493026
 30
0.0
 10
352.483643
 20
83.891954
 30
0.0
 10
353.203408
 20
84.648915
 30
0.0
  0
SPLINE
  5
233
100
AcDbEntity
  8
Ebene_1
 62
7
100
AcDbSpline
 70
8
 71
3
 72
8
 73
4
 74
0
 40
0
 40
0
 40
0
 40
0
 40
1
 40
1
 40
1
 40
1
 10
353.203408
 20
84.648915
 30
0.0
 10
353.927725
 20
85.410681
 30
0.0
 10
354.306272
 20
86.395617
 30
0.0
 10
354.306272
 20
87.501502
 30
0.0
  0
LWPOLYLINE
  5
234
100
AcDbEntity
  8
Ebene_1
 62
7
100
AcDbPolyline
 90
4
 70
0
 10
333.723299
 20
87.953953
 30
0.0
 10
333.723299
 20
83.493026
 30
0.0
 10
334.142192
 20
83.493026
 30
0.0
 10
350.596788
 20
83.493026
 30
0.0
  0
LWPOLYLINE
  5
235
100
AcDbEntity
  8
Ebene_1
 62
7
100
AcDbPolyline
 90
3
 70
0
 10
354.306272
 20
87.501502
 30
0.0
 10
354.306272
 20
87.953953
 30
0.0
 10
333.723299
 20
87.953953
 30
0.0
  0
LWPOLYLINE
  5
236
100
AcDbEntity
  8
Ebene_1
 62
7
100
AcDbPolyline
 90
9
 70
1
 10
238.284678
 20
55.136852
 30
0.0
 10
238.284678
 20
43.567434
 30
0.0
 10
238.703572
 20
43.567434
 30
0.0
 10
258.867651
 20
43.567434
 30
0.0
 10
258.867651
 20
55.136852
 30
0.0
 10
254.739271
 20
55.136852
 30
0.0
 10
254.739271
 20
48.028361
 30
0.0
 10
242.413050
 20
48.028361
 30
0.0
 10
242.413050
 20
55.136852
 30
0.0
  0
SPLINE
  5
237
100
AcDbEntity
  8
Ebene_1
 62
7
100
AcDbSpline
 70
8
 71
3
 72
8
 73
4
 74
0
 40
0
 40
0
 40
0
 40
0
 40
1
 40
1
 40
1
 40
1
 10
238.284678
 20
61.792883
 30
0.0
 10
238.284678
 20
60.706354
 30
0.0
 10
238.652714
 20
59.729751
 30
0.0
 10
239.354812
 20
58.950901
 30
0.0
  0
LWPOLYLINE
  5
238
100
AcDbEntity
  8
Ebene_1
 62
7
100
AcDbPolyline
 90
2
 70
0
 10
238.284678
 20
62.245334
 30
0.0
 10
238.284678
 20
61.792883
 30
0.0
  0
SPLINE
  5
239
100
AcDbEntity
  8
Ebene_1
 62
7
100
AcDbSpline
 70
8
 71
3
 72
8
 73
4
 74
0
 40
0
 40
0
 40
0
 40
0
 40
1
 40
1
 40
1
 40
1
 10
239.358295
 20
58.947418
 30
0.0
 10
240.064545
 20
58.184589
 30
0.0
 10
240.973112
 20
57.786235
 30
0.0
 10
241.994365
 20
57.786235
 30
0.0
  0
LWPOLYLINE
  5
23a
100
AcDbEntity
  8
Ebene_1
 62
7
100
AcDbPolyline
 90
3
 70
0
 10
239.354812
 20
58.950901
 30
0.0
 10
239.356553
 20
58.949159
 30
0.0
 10
239.358295
 20
58.947418
 30
0.0
  0
SPLINE
  5
23b
100
AcDbEntity
  8
Ebene_1
 62
7
100
AcDbSpline
 70
8
 71
3
 72
8
 73
4
 74
0
 40
0
 40
0
 40
0
 40
0
 40
1
 40
1
 40
1
 40
1
 10
255.158374
 20
57.786235
 30
0.0
 10
256.149030
 20
57.786235
 30
0.0
 10
257.045224
 20
58.185138
 30
0.0
 10
257.764988
 20
58.942124
 30
0.0
  0
SPLINE
  5
23c
100
AcDbEntity
  8
Ebene_1
 62
7
100
AcDbSpline
 70
8
 71
3
 72
8
 73
4
 74
0
 40
0
 40
0
 40
0
 40
0
 40
1
 40
1
 40
1
 40
1
 10
257.764988
 20
58.942124
 30
0.0
 10
258.489306
 20
59.703873
 30
0.0
 10
258.867860
 20
60.687059
 30
0.0
 10
258.867860
 20
61.792944
 30
0.0
  0
LWPOLYLINE
  5
23d
100
AcDbEntity
  8
Ebene_1
 62
7
100
AcDbPolyline
 90
2
 70
0
 10
241.994365
 20
57.786235
 30
0.0
 10
255.158374
 20
57.786235
 30
0.0
  0
LWPOLYLINE
  5
23e
100
AcDbEntity
  8
Ebene_1
 62
7
100
AcDbPolyline
 90
3
 70
0
 10
258.867860
 20
61.792944
 30
0.0
 10
258.867860
 20
62.245394
 30
0.0
 10
238.284678
 20
62.245334
 30
0.0
  0
LWPOLYLINE
  5
23f
100
AcDbEntity
  8
Ebene_1
 62
7
100
AcDbPolyline
 90
12
 70
1
 10
260.729757
 20
62.245334
 30
0.0
 10
264.612687
 20
58.051294
 30
0.0
 10
264.612687
 20
43.567434
 30
0.0
 10
265.031581
 20
43.567434
 30
0.0
 10
268.741059
 20
43.567434
 30
0.0
 10
268.741059
 20
53.592143
 30
0.0
 10
278.022137
 20
43.567434
 30
0.0
 10
281.905067
 20
43.567434
 30
0.0
 10
281.905067
 20
62.245334
 30
0.0
 10
277.776696
 20
62.245334
 30
0.0
 10
277.776696
 20
50.444397
 30
0.0
 10
266.851135
 20
62.245334
 30
0.0
  0
SPLINE
  5
240
100
AcDbEntity
  8
Ebene_1
 62
7
100
AcDbSpline
 70
8
 71
3
 72
8
 73
4
 74
0
 40
0
 40
0
 40
0
 40
0
 40
1
 40
1
 40
1
 40
1
 10
301.233005
 20
43.567434
 30
0.0
 10
302.223653
 20
43.567434
 30
0.0
 10
303.118219
 20
43.966345
 30
0.0
 10
303.837983
 20
44.723323
 30
0.0
  0
SPLINE
  5
241
100
AcDbEntity
  8
Ebene_1
 62
7
100
AcDbSpline
 70
8
 71
3
 72
8
 73
4
 74
0
 40
0
 40
0
 40
0
 40
0
 40
1
 40
1
 40
1
 40
1
 10
303.837983
 20
44.723323
 30
0.0
 10
304.562292
 20
45.485081
 30
0.0
 10
304.942483
 20
46.470026
 30
0.0
 10
304.942483
 20
47.575902
 30
0.0
  0
LWPOLYLINE
  5
242
100
AcDbEntity
  8
Ebene_1
 62
7
100
AcDbPolyline
 90
4
 70
0
 10
284.357873
 20
62.245334
 30
0.0
 10
284.357873
 20
43.567434
 30
0.0
 10
284.776767
 20
43.567434
 30
0.0
 10
301.233005
 20
43.567434
 30
0.0
  0
LWPOLYLINE
  5
243
100
AcDbEntity
  8
Ebene_1
 62
7
100
AcDbPolyline
 90
5
 70
0
 10
304.942483
 20
47.575902
 30
0.0
 10
304.942483
 20
48.028361
 30
0.0
 10
288.487890
 20
48.028361
 30
0.0
 10
288.487890
 20
62.245334
 30
0.0
 10
284.357873
 20
62.245334
 30
0.0
  0
SPLINE
  5
244
100
AcDbEntity
  8
Ebene_1
 62
7
100
AcDbSpline
 70
8
 71
3
 72
8
 73
4
 74
0
 40
0
 40
0
 40
0
 40
0
 40
1
 40
1
 40
1
 40
1
 10
283.117400
 20
96.466610
 30
0.0
 10
282.928950
 20
97.460530
 30
0.0
 10
266.712610
 20
187.995580
 30
0.0
 10
266.712610
 20
188.053810
 30
0.0
  0
SPLINE
  5
245
100
AcDbEntity
  8
Ebene_1
 62
7
100
AcDbSpline
 70
8
 71
3
 72
8
 73
4
 74
0
 40
0
 40
0
 40
0
 40
0
 40
1
 40
1
 40
1
 40
1
 10
266.712610
 20
188.053810
 30
0.0
 10
266.712610
 20
188.136510
 30
0.0
 10
261.923010
 20
188.015510
 30
0.0
 10
259.515520
 20
187.871820
 30
0.0
  0
SPLINE
  5
246
100
AcDbEntity
  8
Ebene_1
 62
7
100
AcDbSpline
 70
8
 71
3
 72
8
 73
4
 74
0
 40
0
 40
0
 40
0
 40
0
 40
1
 40
1
 40
1
 40
1
 10
259.515520
 20
187.871820
 30
0.0
 10
252.350940
 20
187.444560
 30
0.0
 10
248.666020
 20
186.189910
 30
0.0
 10
246.885000
 20
183.571370
 30
0.0
  0
SPLINE
  5
247
100
AcDbEntity
  8
Ebene_1
 62
7
100
AcDbSpline
 70
8
 71
3
 72
8
 73
4
 74
0
 40
0
 40
0
 40
0
 40
0
 40
1
 40
1
 40
1
 40
1
 10
246.885000
 20
183.571370
 30
0.0
 10
246.228350
 20
182.605950
 30
0.0
 10
245.954200
 20
181.917570
 30
0.0
 10
245.667600
 20
180.514780
 30
0.0
  0
SPLINE
  5
248
100
AcDbEntity
  8
Ebene_1
 62
7
100
AcDbSpline
 70
8
 71
3
 72
8
 73
4
 74
0
 40
0
 40
0
 40
0
 40
0
 40
1
 40
1
 40
1
 40
1
 10
245.667600
 20
180.514780
 30
0.0
 10
245.551170
 20
179.944790
 30
0.0
 10
245.434670
 20
179.457210
 30
0.0
 10
245.408720
 20
179.431270
 30
0.0
  0
SPLINE
  5
249
100
AcDbEntity
  8
Ebene_1
 62
7
100
AcDbSpline
 70
8
 71
3
 72
8
 73
4
 74
0
 40
0
 40
0
 40
0
 40
0
 40
1
 40
1
 40
1
 40
1
 10
245.408720
 20
179.431270
 30
0.0
 10
245.321620
 20
179.344070
 30
0.0
 10
242.344070
 20
180.758790
 30
0.0
 10
240.852270
 20
181.596300
 30
0.0
  0
SPLINE
  5
24a
100
AcDbEntity
  8
Ebene_1
 62
7
100
AcDbSpline
 70
8
 71
3
 72
8
 73
4
 74
0
 40
0
 40
0
 40
0
 40
0
 40
1
 40
1
 40
1
 40
1
 10
240.852270
 20
181.596300
 30
0.0
 10
236.390300
 20
184.101350
 30
0.0
 10
232.887290
 20
187.001770
 30
0.0
 10
230.504260
 20
190.164290
 30
0.0
  0
SPLINE
  5
24b
100
AcDbEntity
  8
Ebene_1
 62
7
100
AcDbSpline
 70
8
 71
3
 72
8
 73
4
 74
0
 40
0
 40
0
 40
0
 40
0
 40
1
 40
1
 40
1
 40
1
 10
230.504260
 20
190.164290
 30
0.0
 10
230.154170
 20
190.628910
 30
0.0
 10
229.867740
 20
191.047070
 30
0.0
 10
229.867740
 20
191.093540
 30
0.0
  0
SPLINE
  5
24c
100
AcDbEntity
  8
Ebene_1
 62
7
100
AcDbSpline
 70
8
 71
3
 72
8
 73
4
 74
0
 40
0
 40
0
 40
0
 40
0
 40
1
 40
1
 40
1
 40
1
 10
229.867740
 20
191.093540
 30
0.0
 10
229.867740
 20
191.139940
 30
0.0
 10
230.049000
 20
191.253100
 30
0.0
 10
230.270540
 20
191.344790
 30
0.0
  0
SPLINE
  5
24d
100
AcDbEntity
  8
Ebene_1
 62
7
100
AcDbSpline
 70
8
 71
3
 72
8
 73
4
 74
0
 40
0
 40
0
 40
0
 40
0
 40
1
 40
1
 40
1
 40
1
 10
230.270540
 20
191.344790
 30
0.0
 10
230.492090
 20
191.436390
 30
0.0
 10
231.446800
 20
191.847940
 30
0.0
 10
232.392080
 20
192.259180
 30
0.0
  0
SPLINE
  5
24e
100
AcDbEntity
  8
Ebene_1
 62
7
100
AcDbSpline
 70
8
 71
3
 72
8
 73
4
 74
0
 40
0
 40
0
 40
0
 40
0
 40
1
 40
1
 40
1
 40
1
 10
232.392080
 20
192.259180
 30
0.0
 10
243.222740
 20
196.970990
 30
0.0
 10
257.300970
 20
200.264470
 30
0.0
 10
269.935200
 20
201.042050
 30
0.0
  0
LWPOLYLINE
  5
24f
100
AcDbEntity
  8
Ebene_1
 62
7
100
AcDbPolyline
 90
14
 70
1
 10
307.395289
 20
62.245334
 30
0.0
 10
307.395289
 20
58.051294
 30
0.0
 10
315.622590
 20
49.164799
 30
0.0
 10
315.622590
 20
43.567434
 30
0.0
 10
316.041482
 20
43.567434
 30
0.0
 10
319.750965
 20
43.567434
 30
0.0
 10
319.750965
 20
49.164799
 30
0.0
 10
327.978263
 20
58.051294
 30
0.0
 10
327.978263
 20
62.245334
 30
0.0
 10
323.849888
 20
62.245334
 30
0.0
 10
323.849888
 20
60.203986
 30
0.0
 10
317.687595
 20
53.546187
 30
0.0
 10
311.523668
 20
60.203986
 30
0.0
 10
311.523668
 20
62.245334
 30
0.0
  0
SPLINE
  5
250
100
AcDbEntity
  8
Ebene_1
 62
7
100
AcDbSpline
 70
8
 71
3
 72
8
 73
4
 74
0
 40
0
 40
0
 40
0
 40
0
 40
1
 40
1
 40
1
 40
1
 10
277.117160
 20
193.734330
 30
0.0
 10
280.446910
 20
189.676920
 30
0.0
 10
283.208090
 20
186.397870
 30
0.0
 10
283.253100
 20
186.447540
 30
0.0
  0
SPLINE
  5
251
100
AcDbEntity
  8
Ebene_1
 62
7
100
AcDbSpline
 70
8
 71
3
 72
8
 73
4
 74
0
 40
0
 40
0
 40
0
 40
0
 40
1
 40
1
 40
1
 40
1
 10
283.253100
 20
186.447540
 30
0.0
 10
283.298100
 20
186.497140
 30
0.0
 10
286.000600
 20
189.786300
 30
0.0
 10
289.258590
 20
193.756590
 30
0.0
  0
SPLINE
  5
252
100
AcDbEntity
  8
Ebene_1
 62
7
100
AcDbSpline
 70
8
 71
3
 72
8
 73
4
 74
0
 40
0
 40
0
 40
0
 40
0
 40
1
 40
1
 40
1
 40
1
 10
289.258590
 20
193.756590
 30
0.0
 10
292.516620
 20
197.726850
 30
0.0
 10
295.232010
 20
201.006050
 30
0.0
 10
295.292800
 20
201.043650
 30
0.0
  0
SPLINE
  5
253
100
AcDbEntity
  8
Ebene_1
 62
7
100
AcDbSpline
 70
8
 71
3
 72
8
 73
4
 74
0
 40
0
 40
0
 40
0
 40
0
 40
1
 40
1
 40
1
 40
1
 10
295.292800
 20
201.043650
 30
0.0
 10
295.419710
 20
201.122050
 30
0.0
 10
298.129260
 20
200.947350
 30
0.0
 10
300.496040
 20
200.708060
 30
0.0
  0
SPLINE
  5
254
100
AcDbEntity
  8
Ebene_1
 62
7
100
AcDbSpline
 70
8
 71
3
 72
8
 73
4
 74
0
 40
0
 40
0
 40
0
 40
0
 40
1
 40
1
 40
1
 40
1
 10
300.496040
 20
200.708060
 30
0.0
 10
310.477150
 20
199.699130
 30
0.0
 10
320.501650
 20
197.389490
 30
0.0
 10
329.606730
 20
194.000970
 30
0.0
  0
SPLINE
  5
255
100
AcDbEntity
  8
Ebene_1
 62
7
100
AcDbSpline
 70
8
 71
3
 72
8
 73
4
 74
0
 40
0
 40
0
 40
0
 40
0
 40
1
 40
1
 40
1
 40
1
 10
329.606730
 20
194.000970
 30
0.0
 10
331.755560
 20
193.201250
 30
0.0
 10
335.212080
 20
191.773900
 30
0.0
 10
336.113580
 20
191.314000
 30
0.0
  0
LWPOLYLINE
  5
256
100
AcDbEntity
  8
Ebene_1
 62
7
100
AcDbPolyline
 90
3
 70
0
 10
269.935200
 20
201.042050
 30
0.0
 10
271.063100
 20
201.111450
 30
0.0
 10
277.117160
 20
193.734330
 30
0.0
  0
SPLINE
  5
257
100
AcDbEntity
  8
Ebene_1
 62
7
100
AcDbSpline
 70
8
 71
3
 72
8
 73
4
 74
0
 40
0
 40
0
 40
0
 40
0
 40
1
 40
1
 40
1
 40
1
 10
335.991470
 20
190.352240
 30
0.0
 10
333.880290
 20
187.449610
 30
0.0
 10
330.570600
 20
184.597160
 30
0.0
 10
326.471870
 20
182.147770
 30
0.0
  0
SPLINE
  5
258
100
AcDbEntity
  8
Ebene_1
 62
7
100
AcDbSpline
 70
8
 71
3
 72
8
 73
4
 74
0
 40
0
 40
0
 40
0
 40
0
 40
1
 40
1
 40
1
 40
1
 10
326.471870
 20
182.147770
 30
0.0
 10
325.344640
 20
181.474130
 30
0.0
 10
321.613120
 20
179.601230
 30
0.0
 10
321.104350
 20
179.453710
 30
0.0
  0
SPLINE
  5
259
100
AcDbEntity
  8
Ebene_1
 62
7
100
AcDbSpline
 70
8
 71
3
 72
8
 73
4
 74
0
 40
0
 40
0
 40
0
 40
0
 40
1
 40
1
 40
1
 40
1
 10
321.104350
 20
179.453710
 30
0.0
 10
320.894380
 20
179.392810
 30
0.0
 10
320.866240
 20
179.438510
 30
0.0
 10
320.796380
 20
179.954550
 30
0.0
  0
SPLINE
  5
25a
100
AcDbEntity
  8
Ebene_1
 62
7
100
AcDbSpline
 70
8
 71
3
 72
8
 73
4
 74
0
 40
0
 40
0
 40
0
 40
0
 40
1
 40
1
 40
1
 40
1
 10
320.796380
 20
179.954550
 30
0.0
 10
320.754080
 20
180.266850
 30
0.0
 10
320.601400
 20
180.931960
 30
0.0
 10
320.457030
 20
181.432550
 30
0.0
  0
SPLINE
  5
25b
100
AcDbEntity
  8
Ebene_1
 62
7
100
AcDbSpline
 70
8
 71
3
 72
8
 73
4
 74
0
 40
0
 40
0
 40
0
 40
0
 40
1
 40
1
 40
1
 40
1
 10
320.457030
 20
181.432550
 30
0.0
 10
319.320260
 20
185.374690
 30
0.0
 10
315.961470
 20
187.125150
 30
0.0
 10
308.283960
 20
187.776680
 30
0.0
  0
SPLINE
  5
25c
100
AcDbEntity
  8
Ebene_1
 62
7
100
AcDbSpline
 70
8
 71
3
 72
8
 73
4
 74
0
 40
0
 40
0
 40
0
 40
0
 40
1
 40
1
 40
1
 40
1
 10
308.283960
 20
187.776680
 30
0.0
 10
306.612270
 20
187.918530
 30
0.0
 10
299.659780
 20
188.100600
 30
0.0
 10
299.572440
 20
188.004800
 30
0.0
  0
SPLINE
  5
25d
100
AcDbEntity
  8
Ebene_1
 62
7
100
AcDbSpline
 70
8
 71
3
 72
8
 73
4
 74
0
 40
0
 40
0
 40
0
 40
0
 40
1
 40
1
 40
1
 40
1
 10
299.572440
 20
188.004800
 30
0.0
 10
299.527840
 20
187.955800
 30
0.0
 10
286.106310
 20
112.665500
 30
0.0
 10
283.273790
 20
96.574020
 30
0.0
  0
LWPOLYLINE
  5
25e
100
AcDbEntity
  8
Ebene_1
 62
7
100
AcDbPolyline
 90
3
 70
0
 10
336.113580
 20
191.314000
 30
0.0
 10
336.534710
 20
191.099150
 30
0.0
 10
335.991470
 20
190.352240
 30
0.0
  0
SPLINE
  5
25f
100
AcDbEntity
  8
Ebene_1
 62
7
100
AcDbSpline
 70
8
 71
3
 72
8
 73
4
 74
0
 40
0
 40
0
 40
0
 40
0
 40
1
 40
1
 40
1
 40
1
 10
336.535300
 20
195.155210
 30
0.0
 10
323.705780
 20
200.566000
 30
0.0
 10
309.129940
 20
204.009090
 30
0.0
 10
294.587980
 20
205.063920
 30
0.0
  0
SPLINE
  5
260
100
AcDbEntity
  8
Ebene_1
 62
7
100
AcDbSpline
 70
8
 71
3
 72
8
 73
4
 74
0
 40
0
 40
0
 40
0
 40
0
 40
1
 40
1
 40
1
 40
1
 10
294.587980
 20
205.063920
 30
0.0
 10
289.915970
 20
205.402810
 30
0.0
 10
280.209870
 20
205.513790
 30
0.0
 10
275.509910
 20
205.282050
 30
0.0
  0
SPLINE
  5
261
100
AcDbEntity
  8
Ebene_1
 62
7
100
AcDbSpline
 70
8
 71
3
 72
8
 73
4
 74
0
 40
0
 40
0
 40
0
 40
0
 40
1
 40
1
 40
1
 40
1
 10
275.509910
 20
205.282050
 30
0.0
 10
259.222350
 20
204.478990
 30
0.0
 10
244.237510
 20
201.159670
 30
0.0
 10
229.836200
 20
195.164790
 30
0.0
  0
SPLINE
  5
262
100
AcDbEntity
  8
Ebene_1
 62
7
100
AcDbSpline
 70
8
 71
3
 72
8
 73
4
 74
0
 40
0
 40
0
 40
0
 40
0
 40
1
 40
1
 40
1
 40
1
 10
229.836200
 20
195.164790
 30
0.0
 10
228.843990
 20
194.751790
 30
0.0
 10
227.970440
 20
194.437580
 30
0.0
 10
227.894940
 20
194.466540
 30
0.0
  0
SPLINE
  5
263
100
AcDbEntity
  8
Ebene_1
 62
7
100
AcDbSpline
 70
8
 71
3
 72
8
 73
4
 74
0
 40
0
 40
0
 40
0
 40
0
 40
1
 40
1
 40
1
 40
1
 10
227.894940
 20
194.466540
 30
0.0
 10
227.819540
 20
194.495640
 30
0.0
 10
227.198250
 20
195.647920
 30
0.0
 10
226.514530
 20
197.027450
 30
0.0
  0
SPLINE
  5
264
100
AcDbEntity
  8
Ebene_1
 62
7
100
AcDbSpline
 70
8
 71
3
 72
8
 73
4
 74
0
 40
0
 40
0
 40
0
 40
0
 40
1
 40
1
 40
1
 40
1
 10
226.514530
 20
197.027450
 30
0.0
 10
225.235340
 20
199.608500
 30
0.0
 10
224.639200
 20
200.949280
 30
0.0
 10
224.730330
 20
201.040410
 30
0.0
  0
SPLINE
  5
265
100
AcDbEntity
  8
Ebene_1
 62
7
100
AcDbSpline
 70
8
 71
3
 72
8
 73
4
 74
0
 40
0
 40
0
 40
0
 40
0
 40
1
 40
1
 40
1
 40
1
 10
224.730330
 20
201.040410
 30
0.0
 10
224.823630
 20
201.133610
 30
0.0
 10
228.579340
 20
202.552520
 30
0.0
 10
230.780800
 20
203.326210
 30
0.0
  0
SPLINE
  5
266
100
AcDbEntity
  8
Ebene_1
 62
7
100
AcDbSpline
 70
8
 71
3
 72
8
 73
4
 74
0
 40
0
 40
0
 40
0
 40
0
 40
1
 40
1
 40
1
 40
1
 10
230.780800
 20
203.326210
 30
0.0
 10
251.418540
 20
210.579290
 30
0.0
 10
273.459120
 20
213.584953
 30
0.0
 10
294.319430
 20
211.990991
 30
0.0
  0
SPLINE
  5
267
100
AcDbEntity
  8
Ebene_1
 62
7
100
AcDbSpline
 70
8
 71
3
 72
8
 73
4
 74
0
 40
0
 40
0
 40
0
 40
0
 40
1
 40
1
 40
1
 40
1
 10
294.319430
 20
211.990991
 30
0.0
 10
309.921680
 20
210.798787
 30
0.0
 10
324.626060
 20
207.507660
 30
0.0
 10
339.594140
 20
201.857580
 30
0.0
  0
SPLINE
  5
268
100
AcDbEntity
  8
Ebene_1
 62
7
100
AcDbSpline
 70
8
 71
3
 72
8
 73
4
 74
0
 40
0
 40
0
 40
0
 40
0
 40
1
 40
1
 40
1
 40
1
 10
339.594140
 20
201.857580
 30
0.0
 10
340.708570
 20
201.436910
 30
0.0
 10
341.639500
 20
201.073590
 30
0.0
 10
341.662900
 20
201.050190
 30
0.0
  0
SPLINE
  5
269
100
AcDbEntity
  8
Ebene_1
 62
7
100
AcDbSpline
 70
8
 71
3
 72
8
 73
4
 74
0
 40
0
 40
0
 40
0
 40
0
 40
1
 40
1
 40
1
 40
1
 10
341.662900
 20
201.050190
 30
0.0
 10
341.785260
 20
200.927830
 30
0.0
 10
338.792360
 20
194.679970
 30
0.0
 10
338.489100
 20
194.424670
 30
0.0
  0
SPLINE
  5
26a
100
AcDbEntity
  8
Ebene_1
 62
7
100
AcDbSpline
 70
8
 71
3
 72
8
 73
4
 74
0
 40
0
 40
0
 40
0
 40
0
 40
1
 40
1
 40
1
 40
1
 10
338.489100
 20
194.424670
 30
0.0
 10
338.448500
 20
194.390470
 30
0.0
 10
337.569180
 20
194.719170
 30
0.0
 10
336.535300
 20
195.155210
 30
0.0
  0
LWPOLYLINE
  5
26b
100
AcDbEntity
  8
Ebene_1
 62
7
100
AcDbPolyline
 90
3
 70
0
 10
283.273790
 20
96.574020
 30
0.0
 10
283.188690
 20
96.090630
 30
0.0
 10
283.117400
 20
96.466610
 30
0.0
  0
LWPOLYLINE
  5
26c
100
AcDbEntity
  8
Ebene_1
 62
7
100
AcDbPolyline
 90
1
 70
1
 10
336.535300
 20
195.155210
 30
0.0
  0
LWPOLYLINE
  5
26d
100
AcDbEntity
  8
Ebene_1
 62
7
100
AcDbPolyline
 90
9
 70
1
 10
329.732978
 20
233.750151
 30
0.0
 10
329.732978
 20
221.686194
 30
0.0
 10
330.168328
 20
221.686194
 30
0.0
 10
334.334758
 20
221.686194
 30
0.0
 10
334.334758
 20
229.148365
 30
0.0
 10
348.388405
 20
229.148365
 30
0.0
 10
348.388405
 20
221.686194
 30
0.0
 10
352.990194
 20
221.686194
 30
0.0
 10
352.990194
 20
233.750151
 30
0.0
  0
SPLINE
  5
26e
100
AcDbEntity
  8
Ebene_1
 62
7
100
AcDbSpline
 70
8
 71
3
 72
8
 73
4
 74
0
 40
0
 40
0
 40
0
 40
0
 40
1
 40
1
 40
1
 40
1
 10
329.732978
 20
240.776971
 30
0.0
 10
329.732978
 20
239.645715
 30
0.0
 10
330.144001
 20
238.632288
 30
0.0
 10
330.933595
 20
237.821353
 30
0.0
  0
LWPOLYLINE
  5
26f
100
AcDbEntity
  8
Ebene_1
 62
7
100
AcDbPolyline
 90
2
 70
0
 10
329.732978
 20
241.212321
 30
0.0
 10
329.732978
 20
240.776971
 30
0.0
  0
SPLINE
  5
270
100
AcDbEntity
  8
Ebene_1
 62
7
100
AcDbSpline
 70
8
 71
3
 72
8
 73
4
 74
0
 40
0
 40
0
 40
0
 40
0
 40
1
 40
1
 40
1
 40
1
 10
330.938819
 20
237.817871
 30
0.0
 10
331.732723
 20
237.023971
 30
0.0
 10
332.750728
 20
236.610454
 30
0.0
 10
333.899539
 20
236.610454
 30
0.0
  0
LWPOLYLINE
  5
271
100
AcDbEntity
  8
Ebene_1
 62
7
100
AcDbPolyline
 90
3
 70
0
 10
330.933595
 20
237.821353
 30
0.0
 10
330.937078
 20
237.819612
 30
0.0
 10
330.938819
 20
237.817871
 30
0.0
  0
SPLINE
  5
272
100
AcDbEntity
  8
Ebene_1
 62
7
100
AcDbSpline
 70
8
 71
3
 72
8
 73
4
 74
0
 40
0
 40
0
 40
0
 40
0
 40
1
 40
1
 40
1
 40
1
 10
348.823885
 20
236.610454
 30
0.0
 10
349.937659
 20
236.610454
 30
0.0
 10
350.941027
 20
237.024506
 30
0.0
 10
351.750595
 20
237.812768
 30
0.0
  0
SPLINE
  5
273
100
AcDbEntity
  8
Ebene_1
 62
7
100
AcDbSpline
 70
8
 71
3
 72
8
 73
4
 74
0
 40
0
 40
0
 40
0
 40
0
 40
1
 40
1
 40
1
 40
1
 10
351.750595
 20
237.812768
 30
0.0
 10
352.564891
 20
238.605638
 30
0.0
 10
352.990324
 20
239.625390
 30
0.0
 10
352.990324
 20
240.776890
 30
0.0
  0
LWPOLYLINE
  5
274
100
AcDbEntity
  8
Ebene_1
 62
7
100
AcDbPolyline
 90
2
 70
0
 10
333.899539
 20
236.610454
 30
0.0
 10
348.823885
 20
236.610454
 30
0.0
  0
LWPOLYLINE
  5
275
100
AcDbEntity
  8
Ebene_1
 62
7
100
AcDbPolyline
 90
3
 70
0
 10
352.990324
 20
240.776890
 30
0.0
 10
352.990324
 20
241.212240
 30
0.0
 10
329.732978
 20
241.212321
 30
0.0
  0
SPLINE
  5
276
100
AcDbEntity
  8
Ebene_1
 62
7
100
AcDbSpline
 70
8
 71
3
 72
8
 73
4
 74
0
 40
0
 40
0
 40
0
 40
0
 40
1
 40
1
 40
1
 40
1
 10
213.763217
 20
240.776971
 30
0.0
 10
213.763217
 20
239.645715
 30
0.0
 10
214.175938
 20
238.632288
 30
0.0
 10
214.965532
 20
237.821353
 30
0.0
  0
LWPOLYLINE
  5
277
100
AcDbEntity
  8
Ebene_1
 62
7
100
AcDbPolyline
 90
2
 70
0
 10
213.763217
 20
241.212321
 30
0.0
 10
213.763217
 20
240.776971
 30
0.0
  0
SPLINE
  5
278
100
AcDbEntity
  8
Ebene_1
 62
7
100
AcDbSpline
 70
8
 71
3
 72
8
 73
4
 74
0
 40
0
 40
0
 40
0
 40
0
 40
1
 40
1
 40
1
 40
1
 10
214.969015
 20
237.817871
 30
0.0
 10
215.762919
 20
237.023970
 30
0.0
 10
216.780924
 20
236.610454
 30
0.0
 10
217.929735
 20
236.610454
 30
0.0
  0
LWPOLYLINE
  5
279
100
AcDbEntity
  8
Ebene_1
 62
7
100
AcDbPolyline
 90
3
 70
0
 10
214.965532
 20
237.821353
 30
0.0
 10
214.967274
 20
237.819612
 30
0.0
 10
214.969015
 20
237.817871
 30
0.0
  0
SPLINE
  5
27a
100
AcDbEntity
  8
Ebene_1
 62
7
100
AcDbSpline
 70
8
 71
3
 72
8
 73
4
 74
0
 40
0
 40
0
 40
0
 40
0
 40
1
 40
1
 40
1
 40
1
 10
232.854081
 20
236.610536
 30
0.0
 10
233.967854
 20
236.610536
 30
0.0
 10
234.971223
 20
237.024588
 30
0.0
 10
235.780791
 20
237.812850
 30
0.0
  0
SPLINE
  5
27b
100
AcDbEntity
  8
Ebene_1
 62
7
100
AcDbSpline
 70
8
 71
3
 72
8
 73
4
 74
0
 40
0
 40
0
 40
0
 40
0
 40
1
 40
1
 40
1
 40
1
 10
235.780791
 20
237.812850
 30
0.0
 10
236.595087
 20
238.605719
 30
0.0
 10
237.020511
 20
239.625471
 30
0.0
 10
237.020511
 20
240.776971
 30
0.0
  0
LWPOLYLINE
  5
27c
100
AcDbEntity
  8
Ebene_1
 62
7
100
AcDbPolyline
 90
7
 70
0
 10
217.929735
 20
236.610454
 30
0.0
 10
223.091018
 20
236.610454
 30
0.0
 10
223.091018
 20
221.686194
 30
0.0
 10
223.526368
 20
221.686194
 30
0.0
 10
227.692798
 20
221.686194
 30
0.0
 10
227.692798
 20
236.610536
 30
0.0
 10
232.854081
 20
236.610536
 30
0.0
  0
LWPOLYLINE
  5
27d
100
AcDbEntity
  8
Ebene_1
 62
7
100
AcDbPolyline
 90
3
 70
0
 10
237.020511
 20
240.776971
 30
0.0
 10
237.020511
 20
241.212321
 30
0.0
 10
213.763217
 20
241.212321
 30
0.0
  0
SPLINE
  5
27e
100
AcDbEntity
  8
Ebene_1
 62
7
100
AcDbSpline
 70
8
 71
3
 72
8
 73
4
 74
0
 40
0
 40
0
 40
0
 40
0
 40
1
 40
1
 40
1
 40
1
 10
242.754811
 20
225.852629
 30
0.0
 10
242.754811
 20
224.721373
 30
0.0
 10
243.167531
 20
223.707945
 30
0.0
 10
243.957126
 20
222.897011
 30
0.0
  0
LWPOLYLINE
  5
27f
100
AcDbEntity
  8
Ebene_1
 62
7
100
AcDbPolyline
 90
2
 70
0
 10
242.754811
 20
226.287979
 30
0.0
 10
242.754811
 20
225.852629
 30
0.0
  0
SPLINE
  5
280
100
AcDbEntity
  8
Ebene_1
 62
7
100
AcDbSpline
 70
8
 71
3
 72
8
 73
4
 74
0
 40
0
 40
0
 40
0
 40
0
 40
1
 40
1
 40
1
 40
1
 10
243.960608
 20
222.891874
 30
0.0
 10
244.754504
 20
222.097973
 30
0.0
 10
245.772509
 20
221.686158
 30
0.0
 10
246.921328
 20
221.686158
 30
0.0
  0
LWPOLYLINE
  5
281
100
AcDbEntity
  8
Ebene_1
 62
7
100
AcDbPolyline
 90
3
 70
0
 10
243.957126
 20
222.897011
 30
0.0
 10
243.958867
 20
222.895270
 30
0.0
 10
243.960608
 20
222.891874
 30
0.0
  0
SPLINE
  5
282
100
AcDbEntity
  8
Ebene_1
 62
7
100
AcDbSpline
 70
8
 71
3
 72
8
 73
4
 74
0
 40
0
 40
0
 40
0
 40
0
 40
1
 40
1
 40
1
 40
1
 10
261.845666
 20
221.686158
 30
0.0
 10
262.959439
 20
221.686158
 30
0.0
 10
263.964514
 20
222.100210
 30
0.0
 10
264.774074
 20
222.888472
 30
0.0
  0
SPLINE
  5
283
100
AcDbEntity
  8
Ebene_1
 62
7
100
AcDbSpline
 70
8
 71
3
 72
8
 73
4
 74
0
 40
0
 40
0
 40
0
 40
0
 40
1
 40
1
 40
1
 40
1
 10
264.774074
 20
222.888472
 30
0.0
 10
265.588378
 20
223.681341
 30
0.0
 10
266.012105
 20
224.701093
 30
0.0
 10
266.012105
 20
225.852594
 30
0.0
  0
LWPOLYLINE
  5
284
100
AcDbEntity
  8
Ebene_1
 62
7
100
AcDbPolyline
 90
2
 70
0
 10
246.921328
 20
221.686158
 30
0.0
 10
261.845666
 20
221.686158
 30
0.0
  0
LWPOLYLINE
  5
285
100
AcDbEntity
  8
Ebene_1
 62
7
100
AcDbPolyline
 90
3
 70
0
 10
266.012105
 20
225.852594
 30
0.0
 10
266.012105
 20
226.287944
 30
0.0
 10
242.754811
 20
226.287979
 30
0.0
  0
SPLINE
  5
286
100
AcDbEntity
  8
Ebene_1
 62
7
100
AcDbSpline
 70
8
 71
3
 72
8
 73
4
 74
0
 40
0
 40
0
 40
0
 40
0
 40
1
 40
1
 40
1
 40
1
 10
242.754811
 20
233.314801
 30
0.0
 10
242.754811
 20
232.183544
 30
0.0
 10
243.167531
 20
231.170117
 30
0.0
 10
243.957126
 20
230.359183
 30
0.0
  0
LWPOLYLINE
  5
287
100
AcDbEntity
  8
Ebene_1
 62
7
100
AcDbPolyline
 90
2
 70
0
 10
242.754811
 20
233.750151
 30
0.0
 10
242.754811
 20
233.314801
 30
0.0
  0
SPLINE
  5
288
100
AcDbEntity
  8
Ebene_1
 62
7
100
AcDbSpline
 70
8
 71
3
 72
8
 73
4
 74
0
 40
0
 40
0
 40
0
 40
0
 40
1
 40
1
 40
1
 40
1
 10
243.960608
 20
230.354046
 30
0.0
 10
244.754504
 20
229.560146
 30
0.0
 10
245.772509
 20
229.148330
 30
0.0
 10
246.921328
 20
229.148330
 30
0.0
  0
LWPOLYLINE
  5
289
100
AcDbEntity
  8
Ebene_1
 62
7
100
AcDbPolyline
 90
3
 70
0
 10
243.957126
 20
230.359183
 30
0.0
 10
243.958867
 20
230.357441
 30
0.0
 10
243.960608
 20
230.354046
 30
0.0
  0
SPLINE
  5
28a
100
AcDbEntity
  8
Ebene_1
 62
7
100
AcDbSpline
 70
8
 71
3
 72
8
 73
4
 74
0
 40
0
 40
0
 40
0
 40
0
 40
1
 40
1
 40
1
 40
1
 10
261.845666
 20
229.148330
 30
0.0
 10
262.959439
 20
229.148330
 30
0.0
 10
263.964514
 20
229.562382
 30
0.0
 10
264.774074
 20
230.350645
 30
0.0
  0
SPLINE
  5
28b
100
AcDbEntity
  8
Ebene_1
 62
7
100
AcDbSpline
 70
8
 71
3
 72
8
 73
4
 74
0
 40
0
 40
0
 40
0
 40
0
 40
1
 40
1
 40
1
 40
1
 10
264.774074
 20
230.350645
 30
0.0
 10
265.588378
 20
231.143514
 30
0.0
 10
266.012105
 20
232.163265
 30
0.0
 10
266.012105
 20
233.314766
 30
0.0
  0
LWPOLYLINE
  5
28c
100
AcDbEntity
  8
Ebene_1
 62
7
100
AcDbPolyline
 90
2
 70
0
 10
246.921328
 20
229.148330
 30
0.0
 10
261.845666
 20
229.148330
 30
0.0
  0
LWPOLYLINE
  5
28d
100
AcDbEntity
  8
Ebene_1
 62
7
100
AcDbPolyline
 90
3
 70
0
 10
266.012105
 20
233.314766
 30
0.0
 10
266.012105
 20
233.750116
 30
0.0
 10
242.754811
 20
233.750151
 30
0.0
  0
SPLINE
  5
28e
100
AcDbEntity
  8
Ebene_1
 62
7
100
AcDbSpline
 70
8
 71
3
 72
8
 73
4
 74
0
 40
0
 40
0
 40
0
 40
0
 40
1
 40
1
 40
1
 40
1
 10
242.754811
 20
240.776971
 30
0.0
 10
242.754811
 20
239.645715
 30
0.0
 10
243.167531
 20
238.632288
 30
0.0
 10
243.957126
 20
237.821353
 30
0.0
  0
LWPOLYLINE
  5
28f
100
AcDbEntity
  8
Ebene_1
 62
7
100
AcDbPolyline
 90
2
 70
0
 10
242.754811
 20
241.212321
 30
0.0
 10
242.754811
 20
240.776971
 30
0.0
  0
SPLINE
  5
290
100
AcDbEntity
  8
Ebene_1
 62
7
100
AcDbSpline
 70
8
 71
3
 72
8
 73
4
 74
0
 40
0
 40
0
 40
0
 40
0
 40
1
 40
1
 40
1
 40
1
 10
243.960608
 20
237.817871
 30
0.0
 10
244.754504
 20
237.023970
 30
0.0
 10
245.772509
 20
236.610454
 30
0.0
 10
246.921328
 20
236.610454
 30
0.0
  0
LWPOLYLINE
  5
291
100
AcDbEntity
  8
Ebene_1
 62
7
100
AcDbPolyline
 90
3
 70
0
 10
243.957126
 20
237.821353
 30
0.0
 10
243.958867
 20
237.819612
 30
0.0
 10
243.960608
 20
237.817871
 30
0.0
  0
SPLINE
  5
292
100
AcDbEntity
  8
Ebene_1
 62
7
100
AcDbSpline
 70
8
 71
3
 72
8
 73
4
 74
0
 40
0
 40
0
 40
0
 40
0
 40
1
 40
1
 40
1
 40
1
 10
261.845666
 20
236.610454
 30
0.0
 10
262.959439
 20
236.610454
 30
0.0
 10
263.964514
 20
237.024506
 30
0.0
 10
264.774074
 20
237.812768
 30
0.0
  0
SPLINE
  5
293
100
AcDbEntity
  8
Ebene_1
 62
7
100
AcDbSpline
 70
8
 71
3
 72
8
 73
4
 74
0
 40
0
 40
0
 40
0
 40
0
 40
1
 40
1
 40
1
 40
1
 10
264.774074
 20
237.812768
 30
0.0
 10
265.588378
 20
238.605637
 30
0.0
 10
266.012105
 20
239.625389
 30
0.0
 10
266.012105
 20
240.776890
 30
0.0
  0
LWPOLYLINE
  5
294
100
AcDbEntity
  8
Ebene_1
 62
7
100
AcDbPolyline
 90
2
 70
0
 10
246.921328
 20
236.610454
 30
0.0
 10
261.845666
 20
236.610454
 30
0.0
  0
LWPOLYLINE
  5
295
100
AcDbEntity
  8
Ebene_1
 62
7
100
AcDbPolyline
 90
3
 70
0
 10
266.012105
 20
240.776890
 30
0.0
 10
266.012105
 20
241.212240
 30
0.0
 10
242.754811
 20
241.212321
 30
0.0
  0
SPLINE
  5
296
100
AcDbEntity
  8
Ebene_1
 62
7
100
AcDbSpline
 70
8
 71
3
 72
8
 73
4
 74
0
 40
0
 40
0
 40
0
 40
0
 40
1
 40
1
 40
1
 40
1
 10
275.914532
 20
226.287979
 30
0.0
 10
274.780541
 20
226.287979
 30
0.0
 10
273.763825
 20
225.863367
 30
0.0
 10
272.953813
 20
225.053355
 30
0.0
  0
SPLINE
  5
297
100
AcDbEntity
  8
Ebene_1
 62
7
100
AcDbSpline
 70
8
 71
3
 72
8
 73
4
 74
0
 40
0
 40
0
 40
0
 40
0
 40
1
 40
1
 40
1
 40
1
 10
272.953813
 20
225.053355
 30
0.0
 10
272.161301
 20
224.260840
 30
0.0
 10
271.748102
 20
223.252800
 30
0.0
 10
271.748102
 20
222.121544
 30
0.0
  0
LWPOLYLINE
  5
298
100
AcDbEntity
  8
Ebene_1
 62
7
100
AcDbPolyline
 90
5
 70
0
 10
271.748102
 20
241.212321
 30
0.0
 10
271.748102
 20
229.148365
 30
0.0
 10
290.403529
 20
229.148365
 30
0.0
 10
290.403529
 20
226.287979
 30
0.0
 10
275.914532
 20
226.287979
 30
0.0
  0
SPLINE
  5
299
100
AcDbEntity
  8
Ebene_1
 62
7
100
AcDbSpline
 70
8
 71
3
 72
8
 73
4
 74
0
 40
0
 40
0
 40
0
 40
0
 40
1
 40
1
 40
1
 40
1
 10
290.838879
 20
236.610536
 30
0.0
 10
291.952652
 20
236.610536
 30
0.0
 10
292.956021
 20
237.024588
 30
0.0
 10
293.765589
 20
237.812850
 30
0.0
  0
SPLINE
  5
29a
100
AcDbEntity
  8
Ebene_1
 62
7
100
AcDbSpline
 70
8
 71
3
 72
8
 73
4
 74
0
 40
0
 40
0
 40
0
 40
0
 40
1
 40
1
 40
1
 40
1
 10
293.765589
 20
237.812850
 30
0.0
 10
294.579885
 20
238.605720
 30
0.0
 10
295.005309
 20
239.625472
 30
0.0
 10
295.005309
 20
240.776971
 30
0.0
  0
LWPOLYLINE
  5
29b
100
AcDbEntity
  8
Ebene_1
 62
7
100
AcDbPolyline
 90
8
 70
0
 10
271.748102
 20
222.121544
 30
0.0
 10
271.748102
 20
221.686194
 30
0.0
 10
272.183452
 20
221.686194
 30
0.0
 10
295.005309
 20
221.686194
 30
0.0
 10
295.005309
 20
233.750151
 30
0.0
 10
276.349882
 20
233.750151
 30
0.0
 10
276.349882
 20
236.610536
 30
0.0
 10
290.838879
 20
236.610536
 30
0.0
  0
LWPOLYLINE
  5
29c
100
AcDbEntity
  8
Ebene_1
 62
7
100
AcDbPolyline
 90
3
 70
0
 10
295.005309
 20
240.776971
 30
0.0
 10
295.005309
 20
241.212321
 30
0.0
 10
271.748102
 20
241.212321
 30
0.0
  0
SPLINE
  5
29d
100
AcDbEntity
  8
Ebene_1
 62
7
100
AcDbSpline
 70
8
 71
3
 72
8
 73
4
 74
0
 40
0
 40
0
 40
0
 40
0
 40
1
 40
1
 40
1
 40
1
 10
319.830463
 20
221.686194
 30
0.0
 10
320.944237
 20
221.686194
 30
0.0
 10
321.949312
 20
222.100246
 30
0.0
 10
322.758871
 20
222.888508
 30
0.0
  0
SPLINE
  5
29e
100
AcDbEntity
  8
Ebene_1
 62
7
100
AcDbSpline
 70
8
 71
3
 72
8
 73
4
 74
0
 40
0
 40
0
 40
0
 40
0
 40
1
 40
1
 40
1
 40
1
 10
322.758871
 20
222.888508
 30
0.0
 10
323.573167
 20
223.681378
 30
0.0
 10
323.996902
 20
224.701129
 30
0.0
 10
323.996902
 20
225.852629
 30
0.0
  0
LWPOLYLINE
  5
29f
100
AcDbEntity
  8
Ebene_1
 62
7
100
AcDbPolyline
 90
4
 70
0
 10
300.739687
 20
241.212321
 30
0.0
 10
300.739687
 20
221.686194
 30
0.0
 10
301.175037
 20
221.686194
 30
0.0
 10
319.830463
 20
221.686194
 30
0.0
  0
LWPOLYLINE
  5
2a0
100
AcDbEntity
  8
Ebene_1
 62
7
100
AcDbPolyline
 90
5
 70
0
 10
323.996902
 20
225.852629
 30
0.0
 10
323.996902
 20
226.287979
 30
0.0
 10
305.341476
 20
226.287979
 30
0.0
 10
305.341476
 20
241.212321
 30
0.0
 10
300.739687
 20
241.212321
 30
0.0
  0
LWPOLYLINE
  5
2a1
100
AcDbEntity
  8
Ebene_1
 62
7
100
AcDbPolyline
 90
4
 70
1
 10
0.000000
 20
300.000000
 30
0.0
 10
380.000000
 20
300.000000
 30
0.0
 10
380.000000
 20
0.000000
 30
0.0
 10
0.000000
 20
0.000000
 30
0.0
  0
ENDSEC
  0
SECTION
  2
OBJECTS
  0
DICTIONARY
  5
C
330
0
100
AcDbDictionary
  3
ACAD_GROUP
350
D
  3
ACAD_MLINESTYLE
350
17
  0
DICTIONARY
  5
D
330
C
100
AcDbDictionary
  0
DICTIONARY
  5
1A
330
C
100
AcDbDictionary
  0
DICTIONARY
  5
17
330
C
100
AcDbDictionary
  3
STANDARD
350
18
  0
DICTIONARY
  5
19
330
C
100
AcDbDictionary
  0
ENDSEC
  0
EOF
