  0
SECTION
  2
HEADER
  9
$ACADVER
  1
AC1014
  9
$HANDSEED
  5
FFFF
  9
$MEASUREMENT
 70
     1
  0
ENDSEC
  0
SECTION
  2
TABLES
  0
TABLE
  2
VPORT
  5
8
330
0
100
AcDbSymbolTable
 70
     4
  0
VPORT
  5
2E
330
8
100
AcDbSymbolTableRecord
100
AcDbViewportTableRecord
  2
*ACTIVE
 70
     0
 10
0.0
 20
0.0
 11
1.0
 21
1.0
 12
210.0
 22
148.5
 13
0.0
 23
0.0
 14
10.0
 24
10.0
 15
10.0
 25
10.0
 16
0.0
 26
0.0
 36
1.0
 17
0.0
 27
0.0
 37
0.0
 40
341.0
 41
1.24
 42
50.0
 43
0.0
 44
0.0
 50
0.0
 51
0.0
 71
     0
 72
   100
 73
     1
 74
     3
 75
     0
 76
     0
 77
     0
 78
     0
  0
ENDTAB
  0
TABLE
  2
LTYPE
  5
5
330
0
100
AcDbSymbolTable
 70
     1
  0
LTYPE
  5
14
330
5
100
AcDbSymbolTableRecord
100
AcDbLinetypeTableRecord
  2
BYBLOCK
 70
     0
  3

 72
    65
 73
     0
 40
0.0
  0
LTYPE
  5
15
330
5
100
AcDbSymbolTableRecord
100
AcDbLinetypeTableRecord
  2
BYLAYER
 70
     0
  3

 72
    65
 73
     0
 40
0.0
  0
LTYPE
  5
16
330
5
100
AcDbSymbolTableRecord
100
AcDbLinetypeTableRecord
  2
CONTINUOUS
 70
     0
  3
Solid line
 72
    65
 73
     0
 40
0.0
  0
ENDTAB
  0
TABLE
  2
LAYER
  5
2
100
AcDbSymbolTable
 70
2
  0
LAYER
  5
50
100
AcDbSymbolTableRecord
100
AcDbLayerTableRecord
  2
0
 70
0
  6
CONTINUOUS
  0
LAYER
  5
51
100
AcDbSymbolTableRecord
100
AcDbLayerTableRecord
  2
Ebene_1
 70
0
  6
CONTINUOUS
  0
ENDTAB
  0
TABLE
  2
STYLE
  5
3
330
0
100
AcDbSymbolTable
 70
     1
  0
STYLE
  5
11
330
3
100
AcDbSymbolTableRecord
100
AcDbTextStyleTableRecord
  2
STANDARD
 70
     0
 40
0.0
 41
1.0
 50
0.0
 71
     0
 42
2.5
  3
txt
  4

  0
ENDTAB
  0
TABLE
  2
VIEW
  5
6
330
0
100
AcDbSymbolTable
 70
     0
  0
ENDTAB
  0
TABLE
  2
UCS
  5
7
330
0
100
AcDbSymbolTable
 70
     0
  0
ENDTAB
  0
TABLE
  2
APPID
  5
9
330
0
100
AcDbSymbolTable
 70
     2
  0
APPID
  5
12
330
9
100
AcDbSymbolTableRecord
100
AcDbRegAppTableRecord
  2
ACAD
 70
     0
  0
ENDTAB
  0
TABLE
  2
DIMSTYLE
  5
A
330
0
100
AcDbSymbolTable
 70
     1
  0
DIMSTYLE
105
27
330
A
100
AcDbSymbolTableRecord
100
AcDbDimStyleTableRecord
  2
ISO-25
 70
     0
  3

  4

  5

  6

  7

 40
1.0
 41
2.5
 42
0.625
 43
3.75
 44
1.25
 45
0.0
 46
0.0
 47
0.0
 48
0.0
140
2.5
141
2.5
142
0.0
143
0.03937007874016
144
1.0
145
0.0
146
1.0
147
0.625
 71
     0
 72
     0
 73
     0
 74
     0
 75
     0
 76
     0
 77
     1
 78
     8
170
     0
171
     3
172
     1
173
     0
174
     0
175
     0
176
     0
177
     0
178
     0
270
     2
271
     2
272
     2
273
     2
274
     3
340
11
275
     0
280
     0
281
     0
282
     0
283
     0
284
     8
285
     0
286
     0
287
     3
288
     0
  0
ENDTAB
  0
TABLE
  2
BLOCK_RECORD
  5
1
330
0
100
AcDbSymbolTable
 70
     1
  0
BLOCK_RECORD
  5
1F
330
1
100
AcDbSymbolTableRecord
100
AcDbBlockTableRecord
  2
*MODEL_SPACE
  0
BLOCK_RECORD
  5
1B
330
1
100
AcDbSymbolTableRecord
100
AcDbBlockTableRecord
  2
*PAPER_SPACE
  0
ENDTAB
  0
ENDSEC
  0
SECTION
  2
BLOCKS
  0
BLOCK
  5
20
330
1F
100
AcDbEntity
  8
0
100
AcDbBlockBegin
  2
*MODEL_SPACE
 70
     0
 10
0.0
 20
0.0
 30
0.0
  3
*MODEL_SPACE
  1

  0
ENDBLK
  5
21
330
1F
100
AcDbEntity
  8
0
100
AcDbBlockEnd
  0
BLOCK
  5
1C
330
1B
100
AcDbEntity
 67
     1
  8
0
100
AcDbBlockBegin
  2
*PAPER_SPACE
  1

  0
ENDBLK
  5
1D
330
1B
100
AcDbEntity
 67
     1
  8
0
100
AcDbBlockEnd
  0
ENDSEC
  0
SECTION
  2
ENTITIES
  0
SPLINE
  5
100
100
AcDbEntity
  8
Ebene_1
 62
7
100
AcDbSpline
 70
8
 71
3
 72
8
 73
4
 74
0
 40
0
 40
0
 40
0
 40
0
 40
1
 40
1
 40
1
 40
1
 10
39.934974
 20
242.015352
 30
0.0
 10
22.586142
 20
242.015352
 30
0.0
 10
8.455749
 20
227.906961
 30
0.0
 10
8.455749
 20
210.575183
 30
0.0
  0
LWPOLYLINE
  5
101
100
AcDbEntity
  8
Ebene_1
 62
7
100
AcDbPolyline
 90
4
 70
1
 10
0.000000
 20
249.599980
 30
0.0
 10
182.951130
 20
249.599980
 30
0.0
 10
182.951130
 20
0.000000
 30
0.0
 10
0.000000
 20
0.000000
 30
0.0
  0
SPLINE
  5
102
100
AcDbEntity
  8
Ebene_1
 62
7
100
AcDbSpline
 70
8
 71
3
 72
8
 73
4
 74
0
 40
0
 40
0
 40
0
 40
0
 40
1
 40
1
 40
1
 40
1
 10
8.455749
 20
39.006440
 30
0.0
 10
8.455749
 20
21.674660
 30
0.0
 10
22.586142
 20
7.566270
 30
0.0
 10
39.934974
 20
7.566270
 30
0.0
  0
LWPOLYLINE
  5
103
100
AcDbEntity
  8
Ebene_1
 62
7
100
AcDbPolyline
 90
2
 70
0
 10
8.455749
 20
210.575183
 30
0.0
 10
8.455749
 20
39.006440
 30
0.0
  0
SPLINE
  5
104
100
AcDbEntity
  8
Ebene_1
 62
7
100
AcDbSpline
 70
8
 71
3
 72
8
 73
4
 74
0
 40
0
 40
0
 40
0
 40
0
 40
1
 40
1
 40
1
 40
1
 10
143.016150
 20
7.566270
 30
0.0
 10
160.364990
 20
7.566270
 30
0.0
 10
174.495380
 20
21.674660
 30
0.0
 10
174.495380
 20
39.006440
 30
0.0
  0
LWPOLYLINE
  5
105
100
AcDbEntity
  8
Ebene_1
 62
7
100
AcDbPolyline
 90
2
 70
0
 10
39.934974
 20
7.566270
 30
0.0
 10
143.016150
 20
7.566270
 30
0.0
  0
SPLINE
  5
106
100
AcDbEntity
  8
Ebene_1
 62
7
100
AcDbSpline
 70
8
 71
3
 72
8
 73
4
 74
0
 40
0
 40
0
 40
0
 40
0
 40
1
 40
1
 40
1
 40
1
 10
174.495380
 20
210.575183
 30
0.0
 10
174.495380
 20
227.906961
 30
0.0
 10
160.364990
 20
242.015352
 30
0.0
 10
143.016150
 20
242.015352
 30
0.0
  0
LWPOLYLINE
  5
107
100
AcDbEntity
  8
Ebene_1
 62
7
100
AcDbPolyline
 90
2
 70
0
 10
174.495380
 20
39.006440
 30
0.0
 10
174.495380
 20
210.575183
 30
0.0
  0
SPLINE
  5
108
100
AcDbEntity
  8
Ebene_1
 62
7
100
AcDbSpline
 70
8
 71
3
 72
8
 73
4
 74
0
 40
0
 40
0
 40
0
 40
0
 40
1
 40
1
 40
1
 40
1
 10
40.382318
 20
238.107529
 30
0.0
 10
24.744076
 20
238.107529
 30
0.0
 10
12.067334
 20
225.447896
 30
0.0
 10
12.067334
 20
209.830772
 30
0.0
  0
LWPOLYLINE
  5
109
100
AcDbEntity
  8
Ebene_1
 62
7
100
AcDbPolyline
 90
2
 70
0
 10
143.016150
 20
242.015352
 30
0.0
 10
39.934974
 20
242.015352
 30
0.0
  0
SPLINE
  5
10a
100
AcDbEntity
  8
Ebene_1
 62
7
100
AcDbSpline
 70
8
 71
3
 72
8
 73
4
 74
0
 40
0
 40
0
 40
0
 40
0
 40
1
 40
1
 40
1
 40
1
 10
12.067334
 20
39.750733
 30
0.0
 10
12.067334
 20
24.133607
 30
0.0
 10
24.744076
 20
11.473973
 30
0.0
 10
40.382318
 20
11.473973
 30
0.0
  0
LWPOLYLINE
  5
10b
100
AcDbEntity
  8
Ebene_1
 62
7
100
AcDbPolyline
 90
2
 70
0
 10
12.067334
 20
209.830772
 30
0.0
 10
12.067334
 20
39.750733
 30
0.0
  0
SPLINE
  5
10c
100
AcDbEntity
  8
Ebene_1
 62
7
100
AcDbSpline
 70
8
 71
3
 72
8
 73
4
 74
0
 40
0
 40
0
 40
0
 40
0
 40
1
 40
1
 40
1
 40
1
 10
142.568897
 20
11.473973
 30
0.0
 10
158.207141
 20
11.473973
 30
0.0
 10
170.883879
 20
24.133607
 30
0.0
 10
170.883879
 20
39.750733
 30
0.0
  0
LWPOLYLINE
  5
10d
100
AcDbEntity
  8
Ebene_1
 62
7
100
AcDbPolyline
 90
2
 70
0
 10
40.382318
 20
11.473973
 30
0.0
 10
142.568897
 20
11.473973
 30
0.0
  0
SPLINE
  5
10e
100
AcDbEntity
  8
Ebene_1
 62
7
100
AcDbSpline
 70
8
 71
3
 72
8
 73
4
 74
0
 40
0
 40
0
 40
0
 40
0
 40
1
 40
1
 40
1
 40
1
 10
170.883879
 20
209.830772
 30
0.0
 10
170.883879
 20
225.447896
 30
0.0
 10
158.207141
 20
238.107529
 30
0.0
 10
142.568897
 20
238.107529
 30
0.0
  0
LWPOLYLINE
  5
10f
100
AcDbEntity
  8
Ebene_1
 62
7
100
AcDbPolyline
 90
2
 70
0
 10
170.883879
 20
39.750733
 30
0.0
 10
170.883879
 20
209.830772
 30
0.0
  0
LWPOLYLINE
  5
110
100
AcDbEntity
  8
Ebene_1
 62
7
100
AcDbPolyline
 90
2
 70
0
 10
142.568897
 20
238.107529
 30
0.0
 10
40.382318
 20
238.107529
 30
0.0
  0
SPLINE
  5
111
100
AcDbEntity
  8
Ebene_1
 62
7
100
AcDbSpline
 70
8
 71
3
 72
8
 73
4
 74
0
 40
0
 40
0
 40
0
 40
0
 40
1
 40
1
 40
1
 40
1
 10
142.568897
 20
232.579882
 30
0.0
 10
155.236426
 20
232.579882
 30
0.0
 10
165.348757
 20
222.481190
 30
0.0
 10
165.348757
 20
209.830772
 30
0.0
  0
LWPOLYLINE
  5
112
100
AcDbEntity
  8
Ebene_1
 62
7
100
AcDbPolyline
 90
2
 70
0
 10
40.382318
 20
232.579882
 30
0.0
 10
142.568897
 20
232.579882
 30
0.0
  0
SPLINE
  5
113
100
AcDbEntity
  8
Ebene_1
 62
7
100
AcDbSpline
 70
8
 71
3
 72
8
 73
4
 74
0
 40
0
 40
0
 40
0
 40
0
 40
1
 40
1
 40
1
 40
1
 10
165.348757
 20
39.750733
 30
0.0
 10
165.348757
 20
27.100308
 30
0.0
 10
155.236426
 20
17.001629
 30
0.0
 10
142.568897
 20
17.001629
 30
0.0
  0
LWPOLYLINE
  5
114
100
AcDbEntity
  8
Ebene_1
 62
7
100
AcDbPolyline
 90
2
 70
0
 10
165.348757
 20
209.830772
 30
0.0
 10
165.348757
 20
39.750733
 30
0.0
  0
SPLINE
  5
115
100
AcDbEntity
  8
Ebene_1
 62
7
100
AcDbSpline
 70
8
 71
3
 72
8
 73
4
 74
0
 40
0
 40
0
 40
0
 40
0
 40
1
 40
1
 40
1
 40
1
 10
40.382318
 20
17.001629
 30
0.0
 10
27.714784
 20
17.001629
 30
0.0
 10
17.602456
 20
27.100308
 30
0.0
 10
17.602456
 20
39.750733
 30
0.0
  0
LWPOLYLINE
  5
116
100
AcDbEntity
  8
Ebene_1
 62
7
100
AcDbPolyline
 90
2
 70
0
 10
142.568897
 20
17.001629
 30
0.0
 10
40.382318
 20
17.001629
 30
0.0
  0
SPLINE
  5
117
100
AcDbEntity
  8
Ebene_1
 62
7
100
AcDbSpline
 70
8
 71
3
 72
8
 73
4
 74
0
 40
0
 40
0
 40
0
 40
0
 40
1
 40
1
 40
1
 40
1
 10
17.602456
 20
209.830772
 30
0.0
 10
17.602456
 20
222.481190
 30
0.0
 10
27.714784
 20
232.579882
 30
0.0
 10
40.382318
 20
232.579882
 30
0.0
  0
LWPOLYLINE
  5
118
100
AcDbEntity
  8
Ebene_1
 62
7
100
AcDbPolyline
 90
2
 70
0
 10
17.602456
 20
39.750733
 30
0.0
 10
17.602456
 20
209.830772
 30
0.0
  0
SPLINE
  5
119
100
AcDbEntity
  8
Ebene_1
 62
7
100
AcDbSpline
 70
8
 71
3
 72
8
 73
4
 74
0
 40
0
 40
0
 40
0
 40
0
 40
1
 40
1
 40
1
 40
1
 10
30.758097
 20
29.167478
 30
0.0
 10
30.758096
 20
28.048412
 30
0.0
 10
29.850914
 20
27.141230
 30
0.0
 10
28.731848
 20
27.141231
 30
0.0
  0
SPLINE
  5
11a
100
AcDbEntity
  8
Ebene_1
 62
7
100
AcDbSpline
 70
8
 71
3
 72
8
 73
4
 74
0
 40
0
 40
0
 40
0
 40
0
 40
1
 40
1
 40
1
 40
1
 10
28.731848
 20
27.141231
 30
0.0
 10
27.612782
 20
27.141231
 30
0.0
 10
26.705600
 20
28.048412
 30
0.0
 10
26.705599
 20
29.167478
 30
0.0
  0
SPLINE
  5
11b
100
AcDbEntity
  8
Ebene_1
 62
7
100
AcDbSpline
 70
8
 71
3
 72
8
 73
4
 74
0
 40
0
 40
0
 40
0
 40
0
 40
1
 40
1
 40
1
 40
1
 10
26.705599
 20
29.167478
 30
0.0
 10
26.705600
 20
30.286543
 30
0.0
 10
27.612782
 20
31.193724
 30
0.0
 10
28.731848
 20
31.193725
 30
0.0
  0
SPLINE
  5
11c
100
AcDbEntity
  8
Ebene_1
 62
7
100
AcDbSpline
 70
8
 71
3
 72
8
 73
4
 74
0
 40
0
 40
0
 40
0
 40
0
 40
1
 40
1
 40
1
 40
1
 10
28.731848
 20
31.193725
 30
0.0
 10
29.850914
 20
31.193725
 30
0.0
 10
30.758096
 20
30.286543
 30
0.0
 10
30.758097
 20
29.167478
 30
0.0
  0
LWPOLYLINE
  5
11d
100
AcDbEntity
  8
Ebene_1
 62
7
100
AcDbPolyline
 90
1
 70
1
 10
40.382318
 20
232.579882
 30
0.0
  0
SPLINE
  5
11e
100
AcDbEntity
  8
Ebene_1
 62
7
100
AcDbSpline
 70
8
 71
3
 72
8
 73
4
 74
0
 40
0
 40
0
 40
0
 40
0
 40
1
 40
1
 40
1
 40
1
 10
156.315579
 20
29.403869
 30
0.0
 10
156.315578
 20
28.284804
 30
0.0
 10
155.408397
 20
27.377623
 30
0.0
 10
154.289332
 20
27.377622
 30
0.0
  0
SPLINE
  5
11f
100
AcDbEntity
  8
Ebene_1
 62
7
100
AcDbSpline
 70
8
 71
3
 72
8
 73
4
 74
0
 40
0
 40
0
 40
0
 40
0
 40
1
 40
1
 40
1
 40
1
 10
154.289332
 20
27.377622
 30
0.0
 10
153.170267
 20
27.377623
 30
0.0
 10
152.263086
 20
28.284804
 30
0.0
 10
152.263085
 20
29.403869
 30
0.0
  0
SPLINE
  5
120
100
AcDbEntity
  8
Ebene_1
 62
7
100
AcDbSpline
 70
8
 71
3
 72
8
 73
4
 74
0
 40
0
 40
0
 40
0
 40
0
 40
1
 40
1
 40
1
 40
1
 10
152.263085
 20
29.403869
 30
0.0
 10
152.263086
 20
30.522934
 30
0.0
 10
153.170267
 20
31.430115
 30
0.0
 10
154.289332
 20
31.430116
 30
0.0
  0
SPLINE
  5
121
100
AcDbEntity
  8
Ebene_1
 62
7
100
AcDbSpline
 70
8
 71
3
 72
8
 73
4
 74
0
 40
0
 40
0
 40
0
 40
0
 40
1
 40
1
 40
1
 40
1
 10
154.289332
 20
31.430116
 30
0.0
 10
155.408397
 20
31.430115
 30
0.0
 10
156.315578
 20
30.522934
 30
0.0
 10
156.315579
 20
29.403869
 30
0.0
  0
LWPOLYLINE
  5
122
100
AcDbEntity
  8
Ebene_1
 62
7
100
AcDbPolyline
 90
1
 70
1
 10
30.758097
 20
29.167478
 30
0.0
  0
SPLINE
  5
123
100
AcDbEntity
  8
Ebene_1
 62
7
100
AcDbSpline
 70
8
 71
3
 72
8
 73
4
 74
0
 40
0
 40
0
 40
0
 40
0
 40
1
 40
1
 40
1
 40
1
 10
156.621923
 20
219.941240
 30
0.0
 10
156.621923
 20
218.822174
 30
0.0
 10
155.714741
 20
217.914992
 30
0.0
 10
154.595676
 20
217.914990
 30
0.0
  0
SPLINE
  5
124
100
AcDbEntity
  8
Ebene_1
 62
7
100
AcDbSpline
 70
8
 71
3
 72
8
 73
4
 74
0
 40
0
 40
0
 40
0
 40
0
 40
1
 40
1
 40
1
 40
1
 10
154.595676
 20
217.914990
 30
0.0
 10
153.476610
 20
217.914992
 30
0.0
 10
152.569428
 20
218.822174
 30
0.0
 10
152.569429
 20
219.941240
 30
0.0
  0
SPLINE
  5
125
100
AcDbEntity
  8
Ebene_1
 62
7
100
AcDbSpline
 70
8
 71
3
 72
8
 73
4
 74
0
 40
0
 40
0
 40
0
 40
0
 40
1
 40
1
 40
1
 40
1
 10
152.569429
 20
219.941240
 30
0.0
 10
152.569428
 20
221.060306
 30
0.0
 10
153.476610
 20
221.967488
 30
0.0
 10
154.595676
 20
221.967490
 30
0.0
  0
SPLINE
  5
126
100
AcDbEntity
  8
Ebene_1
 62
7
100
AcDbSpline
 70
8
 71
3
 72
8
 73
4
 74
0
 40
0
 40
0
 40
0
 40
0
 40
1
 40
1
 40
1
 40
1
 10
154.595676
 20
221.967490
 30
0.0
 10
155.714741
 20
221.967488
 30
0.0
 10
156.621923
 20
221.060306
 30
0.0
 10
156.621923
 20
219.941240
 30
0.0
  0
LWPOLYLINE
  5
127
100
AcDbEntity
  8
Ebene_1
 62
7
100
AcDbPolyline
 90
1
 70
1
 10
156.315579
 20
29.403869
 30
0.0
  0
SPLINE
  5
128
100
AcDbEntity
  8
Ebene_1
 62
7
100
AcDbSpline
 70
8
 71
3
 72
8
 73
4
 74
0
 40
0
 40
0
 40
0
 40
0
 40
1
 40
1
 40
1
 40
1
 10
30.994487
 20
219.941240
 30
0.0
 10
30.994487
 20
219.403845
 30
0.0
 10
30.781008
 20
218.888461
 30
0.0
 10
30.401013
 20
218.508465
 30
0.0
  0
SPLINE
  5
129
100
AcDbEntity
  8
Ebene_1
 62
7
100
AcDbSpline
 70
8
 71
3
 72
8
 73
4
 74
0
 40
0
 40
0
 40
0
 40
0
 40
1
 40
1
 40
1
 40
1
 10
30.401013
 20
218.508465
 30
0.0
 10
30.021017
 20
218.128470
 30
0.0
 10
29.505632
 20
217.914990
 30
0.0
 10
28.968238
 20
217.914990
 30
0.0
  0
SPLINE
  5
12a
100
AcDbEntity
  8
Ebene_1
 62
7
100
AcDbSpline
 70
8
 71
3
 72
8
 73
4
 74
0
 40
0
 40
0
 40
0
 40
0
 40
1
 40
1
 40
1
 40
1
 10
28.968238
 20
217.914990
 30
0.0
 10
27.849171
 20
217.914991
 30
0.0
 10
26.941989
 20
218.822174
 30
0.0
 10
26.941989
 20
219.941240
 30
0.0
  0
SPLINE
  5
12b
100
AcDbEntity
  8
Ebene_1
 62
7
100
AcDbSpline
 70
8
 71
3
 72
8
 73
4
 74
0
 40
0
 40
0
 40
0
 40
0
 40
1
 40
1
 40
1
 40
1
 10
26.941989
 20
219.941240
 30
0.0
 10
26.941989
 20
221.060306
 30
0.0
 10
27.849171
 20
221.967489
 30
0.0
 10
28.968238
 20
221.967490
 30
0.0
  0
SPLINE
  5
12c
100
AcDbEntity
  8
Ebene_1
 62
7
100
AcDbSpline
 70
8
 71
3
 72
8
 73
4
 74
0
 40
0
 40
0
 40
0
 40
0
 40
1
 40
1
 40
1
 40
1
 10
28.968238
 20
221.967490
 30
0.0
 10
29.505632
 20
221.967490
 30
0.0
 10
30.021017
 20
221.754010
 30
0.0
 10
30.401013
 20
221.374015
 30
0.0
  0
SPLINE
  5
12d
100
AcDbEntity
  8
Ebene_1
 62
7
100
AcDbSpline
 70
8
 71
3
 72
8
 73
4
 74
0
 40
0
 40
0
 40
0
 40
0
 40
1
 40
1
 40
1
 40
1
 10
30.401013
 20
221.374015
 30
0.0
 10
30.781008
 20
220.994019
 30
0.0
 10
30.994487
 20
220.478635
 30
0.0
 10
30.994487
 20
219.941240
 30
0.0
  0
LWPOLYLINE
  5
12e
100
AcDbEntity
  8
Ebene_1
 62
7
100
AcDbPolyline
 90
1
 70
1
 10
156.621923
 20
219.941240
 30
0.0
  0
LWPOLYLINE
  5
12f
100
AcDbEntity
  8
Ebene_1
 62
7
100
AcDbPolyline
 90
1
 70
1
 10
30.994487
 20
219.941240
 30
0.0
  0
SPLINE
  5
130
100
AcDbEntity
  8
Ebene_1
 62
7
100
AcDbSpline
 70
8
 71
3
 72
8
 73
4
 74
0
 40
0
 40
0
 40
0
 40
0
 40
1
 40
1
 40
1
 40
1
 10
133.219031
 20
55.825742
 30
0.0
 10
133.219031
 20
54.929244
 30
0.0
 10
133.522697
 20
54.121982
 30
0.0
 10
134.102011
 20
53.479340
 30
0.0
  0
LWPOLYLINE
  5
131
100
AcDbEntity
  8
Ebene_1
 62
7
100
AcDbPolyline
 90
2
 70
0
 10
133.219031
 20
62.064346
 30
0.0
 10
133.219031
 20
55.825742
 30
0.0
  0
SPLINE
  5
132
100
AcDbEntity
  8
Ebene_1
 62
7
100
AcDbSpline
 70
8
 71
3
 72
8
 73
4
 74
0
 40
0
 40
0
 40
0
 40
0
 40
1
 40
1
 40
1
 40
1
 10
134.104741
 20
53.476466
 30
0.0
 10
134.687474
 20
52.847042
 30
0.0
 10
135.437137
 20
52.518364
 30
0.0
 10
136.279788
 20
52.518364
 30
0.0
  0
LWPOLYLINE
  5
133
100
AcDbEntity
  8
Ebene_1
 62
7
100
AcDbPolyline
 90
3
 70
0
 10
134.102011
 20
53.479340
 30
0.0
 10
134.103376
 20
53.477903
 30
0.0
 10
134.104741
 20
53.476466
 30
0.0
  0
SPLINE
  5
134
100
AcDbEntity
  8
Ebene_1
 62
7
100
AcDbSpline
 70
8
 71
3
 72
8
 73
4
 74
0
 40
0
 40
0
 40
0
 40
0
 40
1
 40
1
 40
1
 40
1
 10
138.649253
 20
61.691061
 30
0.0
 10
138.649253
 20
60.794557
 30
0.0
 10
138.952920
 20
59.988760
 30
0.0
 10
139.532232
 20
59.346117
 30
0.0
  0
LWPOLYLINE
  5
135
100
AcDbEntity
  8
Ebene_1
 62
7
100
AcDbPolyline
 90
5
 70
0
 10
136.279788
 20
52.518364
 30
0.0
 10
150.202247
 20
52.518364
 30
0.0
 10
150.202247
 20
62.064382
 30
0.0
 10
138.649253
 20
62.064382
 30
0.0
 10
138.649253
 20
61.691061
 30
0.0
  0
SPLINE
  5
136
100
AcDbEntity
  8
Ebene_1
 62
7
100
AcDbSpline
 70
8
 71
3
 72
8
 73
4
 74
0
 40
0
 40
0
 40
0
 40
0
 40
1
 40
1
 40
1
 40
1
 10
139.536327
 20
59.341807
 30
0.0
 10
140.119059
 20
58.712390
 30
0.0
 10
140.868722
 20
58.385163
 30
0.0
 10
141.711374
 20
58.385163
 30
0.0
  0
LWPOLYLINE
  5
137
100
AcDbEntity
  8
Ebene_1
 62
7
100
AcDbPolyline
 90
3
 70
0
 10
139.532232
 20
59.346117
 30
0.0
 10
139.534962
 20
59.343244
 30
0.0
 10
139.536327
 20
59.341807
 30
0.0
  0
SPLINE
  5
138
100
AcDbEntity
  8
Ebene_1
 62
7
100
AcDbSpline
 70
8
 71
3
 72
8
 73
4
 74
0
 40
0
 40
0
 40
0
 40
0
 40
1
 40
1
 40
1
 40
1
 10
137.638056
 20
56.199170
 30
0.0
 10
137.337449
 20
56.199170
 30
0.0
 10
137.117089
 20
56.296215
 30
0.0
 10
136.910340
 20
56.503946
 30
0.0
  0
SPLINE
  5
139
100
AcDbEntity
  8
Ebene_1
 62
7
100
AcDbSpline
 70
8
 71
3
 72
8
 73
4
 74
0
 40
0
 40
0
 40
0
 40
0
 40
1
 40
1
 40
1
 40
1
 10
136.910340
 20
56.503946
 30
0.0
 10
136.716456
 20
56.728001
 30
0.0
 10
136.625464
 20
56.965489
 30
0.0
 10
136.625464
 20
57.291430
 30
0.0
  0
LWPOLYLINE
  5
13a
100
AcDbEntity
  8
Ebene_1
 62
7
100
AcDbPolyline
 90
4
 70
0
 10
141.711374
 20
58.385163
 30
0.0
 10
146.795934
 20
58.385163
 30
0.0
 10
146.795934
 20
56.199170
 30
0.0
 10
137.638056
 20
56.199170
 30
0.0
  0
LWPOLYLINE
  5
13b
100
AcDbEntity
  8
Ebene_1
 62
7
100
AcDbPolyline
 90
3
 70
0
 10
136.625464
 20
57.291430
 30
0.0
 10
136.625464
 20
62.064447
 30
0.0
 10
133.219031
 20
62.064346
 30
0.0
  0
SPLINE
  5
13c
100
AcDbEntity
  8
Ebene_1
 62
7
100
AcDbSpline
 70
8
 71
3
 72
8
 73
4
 74
0
 40
0
 40
0
 40
0
 40
0
 40
1
 40
1
 40
1
 40
1
 10
46.325171
 20
63.158064
 30
0.0
 10
46.325171
 20
62.835435
 30
0.0
 10
46.233155
 20
62.599779
 30
0.0
 10
46.025452
 20
62.373497
 30
0.0
  0
SPLINE
  5
13d
100
AcDbEntity
  8
Ebene_1
 62
7
100
AcDbSpline
 70
8
 71
3
 72
8
 73
4
 74
0
 40
0
 40
0
 40
0
 40
0
 40
1
 40
1
 40
1
 40
1
 10
46.025452
 20
62.373497
 30
0.0
 10
45.815299
 20
62.160291
 30
0.0
 10
45.599837
 20
62.064346
 30
0.0
 10
45.313934
 20
62.064346
 30
0.0
  0
LWPOLYLINE
  5
13e
100
AcDbEntity
  8
Ebene_1
 62
7
100
AcDbPolyline
 90
4
 70
0
 10
32.748345
 20
67.931073
 30
0.0
 10
32.748345
 20
64.250324
 30
0.0
 10
46.325171
 20
64.250324
 30
0.0
 10
46.325171
 20
63.158064
 30
0.0
  0
SPLINE
  5
13f
100
AcDbEntity
  8
Ebene_1
 62
7
100
AcDbSpline
 70
8
 71
3
 72
8
 73
4
 74
0
 40
0
 40
0
 40
0
 40
0
 40
1
 40
1
 40
1
 40
1
 10
46.670803
 20
58.385063
 30
0.0
 10
47.488210
 20
58.385063
 30
0.0
 10
48.227667
 20
58.714208
 30
0.0
 10
48.821550
 20
59.338782
 30
0.0
  0
SPLINE
  5
140
100
AcDbEntity
  8
Ebene_1
 62
7
100
AcDbSpline
 70
8
 71
3
 72
8
 73
4
 74
0
 40
0
 40
0
 40
0
 40
0
 40
1
 40
1
 40
1
 40
1
 10
48.821550
 20
59.338782
 30
0.0
 10
49.419184
 20
59.967322
 30
0.0
 10
49.732883
 20
60.778543
 30
0.0
 10
49.732883
 20
61.691018
 30
0.0
  0
LWPOLYLINE
  5
141
100
AcDbEntity
  8
Ebene_1
 62
7
100
AcDbPolyline
 90
7
 70
0
 10
45.313934
 20
62.064346
 30
0.0
 10
32.748345
 20
62.064346
 30
0.0
 10
32.748345
 20
52.518321
 30
0.0
 10
33.093978
 20
52.518321
 30
0.0
 10
36.154707
 20
52.518321
 30
0.0
 10
36.154707
 20
58.385063
 30
0.0
 10
46.670803
 20
58.385063
 30
0.0
  0
LWPOLYLINE
  5
142
100
AcDbEntity
  8
Ebene_1
 62
7
100
AcDbPolyline
 90
3
 70
0
 10
49.732883
 20
61.691018
 30
0.0
 10
49.732883
 20
67.931073
 30
0.0
 10
32.748345
 20
67.931073
 30
0.0
  0
LWPOLYLINE
  5
143
100
AcDbEntity
  8
Ebene_1
 62
7
100
AcDbPolyline
 90
9
 70
1
 10
51.756714
 20
62.064346
 30
0.0
 10
51.756714
 20
52.518321
 30
0.0
 10
52.102347
 20
52.518321
 30
0.0
 10
55.163076
 20
52.518321
 30
0.0
 10
55.163076
 20
58.385063
 30
0.0
 10
65.333546
 20
58.385063
 30
0.0
 10
65.333546
 20
52.518321
 30
0.0
 10
68.739901
 20
52.518321
 30
0.0
 10
68.739901
 20
62.064346
 30
0.0
  0
SPLINE
  5
144
100
AcDbEntity
  8
Ebene_1
 62
7
100
AcDbSpline
 70
8
 71
3
 72
8
 73
4
 74
0
 40
0
 40
0
 40
0
 40
0
 40
1
 40
1
 40
1
 40
1
 10
51.756714
 20
67.557753
 30
0.0
 10
51.756714
 20
66.661248
 30
0.0
 10
52.060376
 20
65.853993
 30
0.0
 10
52.639698
 20
65.211343
 30
0.0
  0
LWPOLYLINE
  5
145
100
AcDbEntity
  8
Ebene_1
 62
7
100
AcDbPolyline
 90
2
 70
0
 10
51.756714
 20
67.931073
 30
0.0
 10
51.756714
 20
67.557753
 30
0.0
  0
SPLINE
  5
146
100
AcDbEntity
  8
Ebene_1
 62
7
100
AcDbSpline
 70
8
 71
3
 72
8
 73
4
 74
0
 40
0
 40
0
 40
0
 40
0
 40
1
 40
1
 40
1
 40
1
 10
52.642571
 20
65.208470
 30
0.0
 10
53.225305
 20
64.579053
 30
0.0
 10
53.974971
 20
64.250360
 30
0.0
 10
54.817623
 20
64.250360
 30
0.0
  0
LWPOLYLINE
  5
147
100
AcDbEntity
  8
Ebene_1
 62
7
100
AcDbPolyline
 90
3
 70
0
 10
52.639698
 20
65.211343
 30
0.0
 10
52.641134
 20
65.209906
 30
0.0
 10
52.642571
 20
65.208470
 30
0.0
  0
SPLINE
  5
148
100
AcDbEntity
  8
Ebene_1
 62
7
100
AcDbSpline
 70
8
 71
3
 72
8
 73
4
 74
0
 40
0
 40
0
 40
0
 40
0
 40
1
 40
1
 40
1
 40
1
 10
65.679351
 20
64.250360
 30
0.0
 10
66.496758
 20
64.250360
 30
0.0
 10
67.236215
 20
64.579505
 30
0.0
 10
67.830099
 20
65.204094
 30
0.0
  0
SPLINE
  5
149
100
AcDbEntity
  8
Ebene_1
 62
7
100
AcDbSpline
 70
8
 71
3
 72
8
 73
4
 74
0
 40
0
 40
0
 40
0
 40
0
 40
1
 40
1
 40
1
 40
1
 10
67.830099
 20
65.204094
 30
0.0
 10
68.427739
 20
65.832627
 30
0.0
 10
68.740073
 20
66.645314
 30
0.0
 10
68.740073
 20
67.557781
 30
0.0
  0
LWPOLYLINE
  5
14a
100
AcDbEntity
  8
Ebene_1
 62
7
100
AcDbPolyline
 90
2
 70
0
 10
54.817623
 20
64.250360
 30
0.0
 10
65.679351
 20
64.250360
 30
0.0
  0
LWPOLYLINE
  5
14b
100
AcDbEntity
  8
Ebene_1
 62
7
100
AcDbPolyline
 90
3
 70
0
 10
68.740073
 20
67.557781
 30
0.0
 10
68.740073
 20
67.931109
 30
0.0
 10
51.756714
 20
67.931073
 30
0.0
  0
SPLINE
  5
14c
100
AcDbEntity
  8
Ebene_1
 62
7
100
AcDbSpline
 70
8
 71
3
 72
8
 73
4
 74
0
 40
0
 40
0
 40
0
 40
0
 40
1
 40
1
 40
1
 40
1
 10
70.763739
 20
67.557753
 30
0.0
 10
70.763739
 20
66.661248
 30
0.0
 10
71.067401
 20
65.853993
 30
0.0
 10
71.646715
 20
65.211343
 30
0.0
  0
LWPOLYLINE
  5
14d
100
AcDbEntity
  8
Ebene_1
 62
7
100
AcDbPolyline
 90
2
 70
0
 10
70.763739
 20
67.931073
 30
0.0
 10
70.763739
 20
67.557753
 30
0.0
  0
SPLINE
  5
14e
100
AcDbEntity
  8
Ebene_1
 62
7
100
AcDbSpline
 70
8
 71
3
 72
8
 73
4
 74
0
 40
0
 40
0
 40
0
 40
0
 40
1
 40
1
 40
1
 40
1
 10
71.651026
 20
65.208470
 30
0.0
 10
72.233752
 20
64.579053
 30
0.0
 10
72.983419
 20
64.250368
 30
0.0
 10
73.826070
 20
64.250360
 30
0.0
  0
LWPOLYLINE
  5
14f
100
AcDbEntity
  8
Ebene_1
 62
7
100
AcDbPolyline
 90
3
 70
0
 10
71.646715
 20
65.211343
 30
0.0
 10
71.649589
 20
65.209906
 30
0.0
 10
71.651026
 20
65.208470
 30
0.0
  0
SPLINE
  5
150
100
AcDbEntity
  8
Ebene_1
 62
7
100
AcDbSpline
 70
8
 71
3
 72
8
 73
4
 74
0
 40
0
 40
0
 40
0
 40
0
 40
1
 40
1
 40
1
 40
1
 10
84.342180
 20
63.158093
 30
0.0
 10
84.342180
 20
62.835471
 30
0.0
 10
84.248807
 20
62.599815
 30
0.0
 10
84.041097
 20
62.373533
 30
0.0
  0
SPLINE
  5
151
100
AcDbEntity
  8
Ebene_1
 62
7
100
AcDbSpline
 70
8
 71
3
 72
8
 73
4
 74
0
 40
0
 40
0
 40
0
 40
0
 40
1
 40
1
 40
1
 40
1
 10
84.041097
 20
62.373533
 30
0.0
 10
83.830944
 20
62.160327
 30
0.0
 10
83.615489
 20
62.064375
 30
0.0
 10
83.329579
 20
62.064375
 30
0.0
  0
LWPOLYLINE
  5
152
100
AcDbEntity
  8
Ebene_1
 62
7
100
AcDbPolyline
 90
3
 70
0
 10
73.826070
 20
64.250360
 30
0.0
 10
84.342180
 20
64.250360
 30
0.0
 10
84.342180
 20
63.158093
 30
0.0
  0
SPLINE
  5
153
100
AcDbEntity
  8
Ebene_1
 62
7
100
AcDbSpline
 70
8
 71
3
 72
8
 73
4
 74
0
 40
0
 40
0
 40
0
 40
0
 40
1
 40
1
 40
1
 40
1
 10
84.643192
 20
58.387965
 30
0.0
 10
85.507123
 20
58.267011
 30
0.0
 10
86.257055
 20
58.728705
 30
0.0
 10
86.837145
 20
59.338775
 30
0.0
  0
SPLINE
  5
154
100
AcDbEntity
  8
Ebene_1
 62
7
100
AcDbSpline
 70
8
 71
3
 72
8
 73
4
 74
0
 40
0
 40
0
 40
0
 40
0
 40
1
 40
1
 40
1
 40
1
 10
86.837145
 20
59.338775
 30
0.0
 10
87.434786
 20
59.967315
 30
0.0
 10
87.748478
 20
60.778536
 30
0.0
 10
87.748478
 20
61.691011
 30
0.0
  0
LWPOLYLINE
  5
155
100
AcDbEntity
  8
Ebene_1
 62
7
100
AcDbPolyline
 90
12
 70
0
 10
83.329579
 20
62.064375
 30
0.0
 10
70.763998
 20
62.064375
 30
0.0
 10
70.763998
 20
52.518357
 30
0.0
 10
71.109630
 20
52.518357
 30
0.0
 10
74.171703
 20
52.518357
 30
0.0
 10
74.171703
 20
58.385091
 30
0.0
 10
77.754926
 20
58.385091
 30
0.0
 10
83.186469
 20
52.518357
 30
0.0
 10
88.237278
 20
52.518357
 30
0.0
 10
82.805734
 20
58.385091
 30
0.0
 10
84.687806
 20
58.385091
 30
0.0
 10
84.643192
 20
58.387965
 30
0.0
  0
LWPOLYLINE
  5
156
100
AcDbEntity
  8
Ebene_1
 62
7
100
AcDbPolyline
 90
3
 70
0
 10
87.748478
 20
61.691011
 30
0.0
 10
87.748478
 20
67.931066
 30
0.0
 10
70.763739
 20
67.931073
 30
0.0
  0
LWPOLYLINE
  5
157
100
AcDbEntity
  8
Ebene_1
 62
7
100
AcDbPolyline
 90
9
 70
1
 10
102.194579
 20
67.931073
 30
0.0
 10
95.060527
 20
60.225430
 30
0.0
 10
102.194579
 20
52.518321
 30
0.0
 10
102.337689
 20
52.518321
 30
0.0
 10
107.245388
 20
52.518321
 30
0.0
 10
100.108641
 20
60.226888
 30
0.0
 10
101.103677
 20
61.317697
 30
0.0
 10
101.122571
 20
61.317697
 30
0.0
 10
107.245373
 20
67.931073
 30
0.0
  0
LWPOLYLINE
  5
158
100
AcDbEntity
  8
Ebene_1
 62
7
100
AcDbPolyline
 90
5
 70
1
 10
89.772100
 20
67.931073
 30
0.0
 10
89.772100
 20
52.518321
 30
0.0
 10
90.117733
 20
52.518321
 30
0.0
 10
93.178462
 20
52.518321
 30
0.0
 10
93.178462
 20
67.931073
 30
0.0
  0
LWPOLYLINE
  5
159
100
AcDbEntity
  8
Ebene_1
 62
7
100
AcDbPolyline
 90
5
 70
1
 10
108.780469
 20
67.931073
 30
0.0
 10
108.780469
 20
52.518321
 30
0.0
 10
109.126101
 20
52.518321
 30
0.0
 10
112.186823
 20
52.518321
 30
0.0
 10
112.186823
 20
67.931073
 30
0.0
  0
LWPOLYLINE
  5
15a
100
AcDbEntity
  8
Ebene_1
 62
7
100
AcDbPolyline
 90
12
 70
1
 10
113.721920
 20
67.931073
 30
0.0
 10
116.925758
 20
64.469077
 30
0.0
 10
116.925758
 20
52.518321
 30
0.0
 10
117.271390
 20
52.518321
 30
0.0
 10
120.333466
 20
52.518321
 30
0.0
 10
120.333466
 20
60.789793
 30
0.0
 10
127.990009
 20
52.518321
 30
0.0
 10
131.195198
 20
52.518321
 30
0.0
 10
131.195198
 20
67.931073
 30
0.0
 10
127.787490
 20
67.931073
 30
0.0
 10
127.787490
 20
58.192561
 30
0.0
 10
118.772725
 20
67.931073
 30
0.0
  0
SPLINE
  5
15b
100
AcDbEntity
  8
Ebene_1
 62
7
100
AcDbSpline
 70
8
 71
3
 72
8
 73
4
 74
0
 40
0
 40
0
 40
0
 40
0
 40
1
 40
1
 40
1
 40
1
 10
147.141491
 20
64.250324
 30
0.0
 10
147.958893
 20
64.250324
 30
0.0
 10
148.698351
 20
64.579484
 30
0.0
 10
149.292235
 20
65.204058
 30
0.0
  0
SPLINE
  5
15c
100
AcDbEntity
  8
Ebene_1
 62
7
100
AcDbSpline
 70
8
 71
3
 72
8
 73
4
 74
0
 40
0
 40
0
 40
0
 40
0
 40
1
 40
1
 40
1
 40
1
 10
149.292235
 20
65.204058
 30
0.0
 10
149.889875
 20
65.832599
 30
0.0
 10
150.202218
 20
66.645278
 30
0.0
 10
150.202218
 20
67.557753
 30
0.0
  0
LWPOLYLINE
  5
15d
100
AcDbEntity
  8
Ebene_1
 62
7
100
AcDbPolyline
 90
4
 70
0
 10
133.219031
 20
67.931073
 30
0.0
 10
133.219031
 20
64.250324
 30
0.0
 10
133.564663
 20
64.250324
 30
0.0
 10
147.141491
 20
64.250324
 30
0.0
  0
LWPOLYLINE
  5
15e
100
AcDbEntity
  8
Ebene_1
 62
7
100
AcDbPolyline
 90
3
 70
0
 10
150.202218
 20
67.557753
 30
0.0
 10
150.202218
 20
67.931073
 30
0.0
 10
133.219031
 20
67.931073
 30
0.0
  0
LWPOLYLINE
  5
15f
100
AcDbEntity
  8
Ebene_1
 62
7
100
AcDbPolyline
 90
9
 70
1
 10
54.471810
 20
40.853403
 30
0.0
 10
54.471810
 20
31.307378
 30
0.0
 10
54.817443
 20
31.307378
 30
0.0
 10
71.454997
 20
31.307378
 30
0.0
 10
71.454997
 20
40.853403
 30
0.0
 10
68.048635
 20
40.853403
 30
0.0
 10
68.048635
 20
34.988127
 30
0.0
 10
57.878165
 20
34.988127
 30
0.0
 10
57.878165
 20
40.853403
 30
0.0
  0
SPLINE
  5
160
100
AcDbEntity
  8
Ebene_1
 62
7
100
AcDbSpline
 70
8
 71
3
 72
8
 73
4
 74
0
 40
0
 40
0
 40
0
 40
0
 40
1
 40
1
 40
1
 40
1
 10
54.471810
 20
46.345352
 30
0.0
 10
54.471810
 20
45.448847
 30
0.0
 10
54.775480
 20
44.643043
 30
0.0
 10
55.354787
 20
44.000408
 30
0.0
  0
LWPOLYLINE
  5
161
100
AcDbEntity
  8
Ebene_1
 62
7
100
AcDbPolyline
 90
2
 70
0
 10
54.471810
 20
46.718672
 30
0.0
 10
54.471810
 20
46.345352
 30
0.0
  0
SPLINE
  5
162
100
AcDbEntity
  8
Ebene_1
 62
7
100
AcDbSpline
 70
8
 71
3
 72
8
 73
4
 74
0
 40
0
 40
0
 40
0
 40
0
 40
1
 40
1
 40
1
 40
1
 10
55.357660
 20
43.997534
 30
0.0
 10
55.940394
 20
43.368117
 30
0.0
 10
56.690060
 20
43.039432
 30
0.0
 10
57.532705
 20
43.039432
 30
0.0
  0
LWPOLYLINE
  5
163
100
AcDbEntity
  8
Ebene_1
 62
7
100
AcDbPolyline
 90
3
 70
0
 10
55.354787
 20
44.000408
 30
0.0
 10
55.356224
 20
43.998971
 30
0.0
 10
55.357660
 20
43.997534
 30
0.0
  0
SPLINE
  5
164
100
AcDbEntity
  8
Ebene_1
 62
7
100
AcDbSpline
 70
8
 71
3
 72
8
 73
4
 74
0
 40
0
 40
0
 40
0
 40
0
 40
1
 40
1
 40
1
 40
1
 10
68.394441
 20
43.039432
 30
0.0
 10
69.211840
 20
43.039432
 30
0.0
 10
69.951297
 20
43.368570
 30
0.0
 10
70.545181
 20
43.993166
 30
0.0
  0
SPLINE
  5
165
100
AcDbEntity
  8
Ebene_1
 62
7
100
AcDbSpline
 70
8
 71
3
 72
8
 73
4
 74
0
 40
0
 40
0
 40
0
 40
0
 40
1
 40
1
 40
1
 40
1
 10
70.545181
 20
43.993166
 30
0.0
 10
71.142821
 20
44.621692
 30
0.0
 10
71.455170
 20
45.432927
 30
0.0
 10
71.455170
 20
46.345402
 30
0.0
  0
LWPOLYLINE
  5
166
100
AcDbEntity
  8
Ebene_1
 62
7
100
AcDbPolyline
 90
2
 70
0
 10
57.532705
 20
43.039432
 30
0.0
 10
68.394441
 20
43.039432
 30
0.0
  0
LWPOLYLINE
  5
167
100
AcDbEntity
  8
Ebene_1
 62
7
100
AcDbPolyline
 90
3
 70
0
 10
71.455170
 20
46.345402
 30
0.0
 10
71.455170
 20
46.718723
 30
0.0
 10
54.471810
 20
46.718672
 30
0.0
  0
LWPOLYLINE
  5
168
100
AcDbEntity
  8
Ebene_1
 62
7
100
AcDbPolyline
 90
12
 70
1
 10
72.991436
 20
46.718672
 30
0.0
 10
76.195275
 20
43.258134
 30
0.0
 10
76.195275
 20
31.307378
 30
0.0
 10
76.540908
 20
31.307378
 30
0.0
 10
79.601630
 20
31.307378
 30
0.0
 10
79.601630
 20
39.578851
 30
0.0
 10
87.259527
 20
31.307378
 30
0.0
 10
90.463366
 20
31.307378
 30
0.0
 10
90.463366
 20
46.718672
 30
0.0
 10
87.057011
 20
46.718672
 30
0.0
 10
87.057011
 20
36.981619
 30
0.0
 10
78.042237
 20
46.718672
 30
0.0
  0
SPLINE
  5
169
100
AcDbEntity
  8
Ebene_1
 62
7
100
AcDbSpline
 70
8
 71
3
 72
8
 73
4
 74
0
 40
0
 40
0
 40
0
 40
0
 40
1
 40
1
 40
1
 40
1
 10
106.411012
 20
31.307378
 30
0.0
 10
107.228404
 20
31.307378
 30
0.0
 10
107.966518
 20
31.636523
 30
0.0
 10
108.560402
 20
32.261112
 30
0.0
  0
SPLINE
  5
16a
100
AcDbEntity
  8
Ebene_1
 62
7
100
AcDbSpline
 70
8
 71
3
 72
8
 73
4
 74
0
 40
0
 40
0
 40
0
 40
0
 40
1
 40
1
 40
1
 40
1
 10
108.560402
 20
32.261112
 30
0.0
 10
109.158035
 20
32.889645
 30
0.0
 10
109.471734
 20
33.702331
 30
0.0
 10
109.471734
 20
34.614799
 30
0.0
  0
LWPOLYLINE
  5
16b
100
AcDbEntity
  8
Ebene_1
 62
7
100
AcDbPolyline
 90
4
 70
0
 10
92.487197
 20
46.718672
 30
0.0
 10
92.487197
 20
31.307378
 30
0.0
 10
92.832829
 20
31.307378
 30
0.0
 10
106.411012
 20
31.307378
 30
0.0
  0
LWPOLYLINE
  5
16c
100
AcDbEntity
  8
Ebene_1
 62
7
100
AcDbPolyline
 90
5
 70
0
 10
109.471734
 20
34.614799
 30
0.0
 10
109.471734
 20
34.988127
 30
0.0
 10
95.894909
 20
34.988127
 30
0.0
 10
95.894909
 20
46.718672
 30
0.0
 10
92.487197
 20
46.718672
 30
0.0
  0
SPLINE
  5
16d
100
AcDbEntity
  8
Ebene_1
 62
7
100
AcDbSpline
 70
8
 71
3
 72
8
 73
4
 74
0
 40
0
 40
0
 40
0
 40
0
 40
1
 40
1
 40
1
 40
1
 10
91.403726
 20
111.273680
 30
0.0
 10
91.226765
 20
112.206980
 30
0.0
 10
75.999470
 20
197.220096
 30
0.0
 10
75.999470
 20
197.274774
 30
0.0
  0
SPLINE
  5
16e
100
AcDbEntity
  8
Ebene_1
 62
7
100
AcDbSpline
 70
8
 71
3
 72
8
 73
4
 74
0
 40
0
 40
0
 40
0
 40
0
 40
1
 40
1
 40
1
 40
1
 10
75.999470
 20
197.274774
 30
0.0
 10
75.999470
 20
197.352424
 30
0.0
 10
71.501982
 20
197.238784
 30
0.0
 10
69.241321
 20
197.103886
 30
0.0
  0
SPLINE
  5
16f
100
AcDbEntity
  8
Ebene_1
 62
7
100
AcDbSpline
 70
8
 71
3
 72
8
 73
4
 74
0
 40
0
 40
0
 40
0
 40
0
 40
1
 40
1
 40
1
 40
1
 10
69.241321
 20
197.103886
 30
0.0
 10
62.513727
 20
196.702688
 30
0.0
 10
59.053538
 20
195.524568
 30
0.0
 10
57.381139
 20
193.065757
 30
0.0
  0
SPLINE
  5
170
100
AcDbEntity
  8
Ebene_1
 62
7
100
AcDbSpline
 70
8
 71
3
 72
8
 73
4
 74
0
 40
0
 40
0
 40
0
 40
0
 40
1
 40
1
 40
1
 40
1
 10
57.381139
 20
193.065757
 30
0.0
 10
56.764532
 20
192.159212
 30
0.0
 10
56.507120
 20
191.512820
 30
0.0
 10
56.238001
 20
190.195588
 30
0.0
  0
SPLINE
  5
171
100
AcDbEntity
  8
Ebene_1
 62
7
100
AcDbSpline
 70
8
 71
3
 72
8
 73
4
 74
0
 40
0
 40
0
 40
0
 40
0
 40
1
 40
1
 40
1
 40
1
 10
56.238001
 20
190.195588
 30
0.0
 10
56.128671
 20
189.660367
 30
0.0
 10
56.019268
 20
189.202533
 30
0.0
 10
55.994904
 20
189.178165
 30
0.0
  0
SPLINE
  5
172
100
AcDbEntity
  8
Ebene_1
 62
7
100
AcDbSpline
 70
8
 71
3
 72
8
 73
4
 74
0
 40
0
 40
0
 40
0
 40
0
 40
1
 40
1
 40
1
 40
1
 10
55.994904
 20
189.178165
 30
0.0
 10
55.913014
 20
189.096275
 30
0.0
 10
53.117156
 20
190.424719
 30
0.0
 10
51.716353
 20
191.211153
 30
0.0
  0
SPLINE
  5
173
100
AcDbEntity
  8
Ebene_1
 62
7
100
AcDbSpline
 70
8
 71
3
 72
8
 73
4
 74
0
 40
0
 40
0
 40
0
 40
0
 40
1
 40
1
 40
1
 40
1
 10
51.716353
 20
191.211153
 30
0.0
 10
47.526509
 20
193.563394
 30
0.0
 10
44.237149
 20
196.286909
 30
0.0
 10
41.999472
 20
199.256523
 30
0.0
  0
SPLINE
  5
174
100
AcDbEntity
  8
Ebene_1
 62
7
100
AcDbSpline
 70
8
 71
3
 72
8
 73
4
 74
0
 40
0
 40
0
 40
0
 40
0
 40
1
 40
1
 40
1
 40
1
 10
41.999472
 20
199.256523
 30
0.0
 10
41.670725
 20
199.692797
 30
0.0
 10
41.401760
 20
200.085466
 30
0.0
 10
41.401760
 20
200.129102
 30
0.0
  0
SPLINE
  5
175
100
AcDbEntity
  8
Ebene_1
 62
7
100
AcDbSpline
 70
8
 71
3
 72
8
 73
4
 74
0
 40
0
 40
0
 40
0
 40
0
 40
1
 40
1
 40
1
 40
1
 10
41.401760
 20
200.129102
 30
0.0
 10
41.401760
 20
200.172752
 30
0.0
 10
41.571975
 20
200.278912
 30
0.0
 10
41.780005
 20
200.365005
 30
0.0
  0
SPLINE
  5
176
100
AcDbEntity
  8
Ebene_1
 62
7
100
AcDbSpline
 70
8
 71
3
 72
8
 73
4
 74
0
 40
0
 40
0
 40
0
 40
0
 40
1
 40
1
 40
1
 40
1
 10
41.780005
 20
200.365005
 30
0.0
 10
41.988042
 20
200.451105
 30
0.0
 10
42.884519
 20
200.837485
 30
0.0
 10
43.772150
 20
201.223649
 30
0.0
  0
SPLINE
  5
177
100
AcDbEntity
  8
Ebene_1
 62
7
100
AcDbSpline
 70
8
 71
3
 72
8
 73
4
 74
0
 40
0
 40
0
 40
0
 40
0
 40
1
 40
1
 40
1
 40
1
 10
43.772150
 20
201.223649
 30
0.0
 10
53.942240
 20
205.648079
 30
0.0
 10
67.161841
 20
208.740671
 30
0.0
 10
79.025506
 20
209.470815
 30
0.0
  0
LWPOLYLINE
  5
178
100
AcDbEntity
  8
Ebene_1
 62
7
100
AcDbPolyline
 90
14
 70
1
 10
111.495565
 20
46.718672
 30
0.0
 10
111.495565
 20
43.258134
 30
0.0
 10
118.283981
 20
35.925812
 30
0.0
 10
118.283981
 20
31.307378
 30
0.0
 10
118.629613
 20
31.307378
 30
0.0
 10
121.690339
 20
31.307378
 30
0.0
 10
121.690339
 20
35.925812
 30
0.0
 10
128.478753
 20
43.258134
 30
0.0
 10
128.478753
 20
46.718672
 30
0.0
 10
125.072395
 20
46.718672
 30
0.0
 10
125.072395
 20
45.034339
 30
0.0
 10
119.987835
 20
39.540933
 30
0.0
 10
114.901926
 20
45.034339
 30
0.0
 10
114.901926
 20
46.718672
 30
0.0
  0
SPLINE
  5
179
100
AcDbEntity
  8
Ebene_1
 62
7
100
AcDbSpline
 70
8
 71
3
 72
8
 73
4
 74
0
 40
0
 40
0
 40
0
 40
0
 40
1
 40
1
 40
1
 40
1
 10
85.769448
 20
202.608821
 30
0.0
 10
88.896096
 20
198.798888
 30
0.0
 10
91.488870
 20
195.719843
 30
0.0
 10
91.531142
 20
195.766488
 30
0.0
  0
SPLINE
  5
17a
100
AcDbEntity
  8
Ebene_1
 62
7
100
AcDbSpline
 70
8
 71
3
 72
8
 73
4
 74
0
 40
0
 40
0
 40
0
 40
0
 40
1
 40
1
 40
1
 40
1
 10
91.531142
 20
195.766488
 30
0.0
 10
91.573382
 20
195.813058
 30
0.0
 10
94.111078
 20
198.901592
 30
0.0
 10
97.170360
 20
202.629722
 30
0.0
  0
SPLINE
  5
17b
100
AcDbEntity
  8
Ebene_1
 62
7
100
AcDbSpline
 70
8
 71
3
 72
8
 73
4
 74
0
 40
0
 40
0
 40
0
 40
0
 40
1
 40
1
 40
1
 40
1
 10
97.170360
 20
202.629722
 30
0.0
 10
100.229670
 20
206.357853
 30
0.0
 10
102.779460
 20
209.437028
 30
0.0
 10
102.836550
 20
209.472328
 30
0.0
  0
SPLINE
  5
17c
100
AcDbEntity
  8
Ebene_1
 62
7
100
AcDbSpline
 70
8
 71
3
 72
8
 73
4
 74
0
 40
0
 40
0
 40
0
 40
0
 40
1
 40
1
 40
1
 40
1
 10
102.836550
 20
209.472328
 30
0.0
 10
102.955700
 20
209.545948
 30
0.0
 10
105.500010
 20
209.381848
 30
0.0
 10
107.722450
 20
209.157207
 30
0.0
  0
SPLINE
  5
17d
100
AcDbEntity
  8
Ebene_1
 62
7
100
AcDbSpline
 70
8
 71
3
 72
8
 73
4
 74
0
 40
0
 40
0
 40
0
 40
0
 40
1
 40
1
 40
1
 40
1
 10
107.722450
 20
209.157207
 30
0.0
 10
117.094810
 20
208.209819
 30
0.0
 10
126.507900
 20
206.041054
 30
0.0
 10
135.057660
 20
202.859194
 30
0.0
  0
SPLINE
  5
17e
100
AcDbEntity
  8
Ebene_1
 62
7
100
AcDbSpline
 70
8
 71
3
 72
8
 73
4
 74
0
 40
0
 40
0
 40
0
 40
0
 40
1
 40
1
 40
1
 40
1
 10
135.057660
 20
202.859194
 30
0.0
 10
137.075430
 20
202.108255
 30
0.0
 10
140.321140
 20
200.767959
 30
0.0
 10
141.167640
 20
200.336118
 30
0.0
  0
LWPOLYLINE
  5
17f
100
AcDbEntity
  8
Ebene_1
 62
7
100
AcDbPolyline
 90
3
 70
0
 10
79.025506
 20
209.470815
 30
0.0
 10
80.084612
 20
209.535995
 30
0.0
 10
85.769448
 20
202.608821
 30
0.0
  0
SPLINE
  5
180
100
AcDbEntity
  8
Ebene_1
 62
7
100
AcDbSpline
 70
8
 71
3
 72
8
 73
4
 74
0
 40
0
 40
0
 40
0
 40
0
 40
1
 40
1
 40
1
 40
1
 10
141.052990
 20
199.433023
 30
0.0
 10
139.070560
 20
196.707441
 30
0.0
 10
135.962730
 20
194.028971
 30
0.0
 10
132.114000
 20
191.728983
 30
0.0
  0
SPLINE
  5
181
100
AcDbEntity
  8
Ebene_1
 62
7
100
AcDbSpline
 70
8
 71
3
 72
8
 73
4
 74
0
 40
0
 40
0
 40
0
 40
0
 40
1
 40
1
 40
1
 40
1
 10
132.114000
 20
191.728983
 30
0.0
 10
131.055510
 20
191.096430
 30
0.0
 10
127.551590
 20
189.337776
 30
0.0
 10
127.073830
 20
189.199247
 30
0.0
  0
SPLINE
  5
182
100
AcDbEntity
  8
Ebene_1
 62
7
100
AcDbSpline
 70
8
 71
3
 72
8
 73
4
 74
0
 40
0
 40
0
 40
0
 40
0
 40
1
 40
1
 40
1
 40
1
 10
127.073830
 20
189.199247
 30
0.0
 10
126.876680
 20
189.142007
 30
0.0
 10
126.850250
 20
189.184997
 30
0.0
 10
126.784660
 20
189.669535
 30
0.0
  0
SPLINE
  5
183
100
AcDbEntity
  8
Ebene_1
 62
7
100
AcDbSpline
 70
8
 71
3
 72
8
 73
4
 74
0
 40
0
 40
0
 40
0
 40
0
 40
1
 40
1
 40
1
 40
1
 10
126.784660
 20
189.669535
 30
0.0
 10
126.744860
 20
189.962791
 30
0.0
 10
126.601560
 20
190.587327
 30
0.0
 10
126.466000
 20
191.057390
 30
0.0
  0
SPLINE
  5
184
100
AcDbEntity
  8
Ebene_1
 62
7
100
AcDbSpline
 70
8
 71
3
 72
8
 73
4
 74
0
 40
0
 40
0
 40
0
 40
0
 40
1
 40
1
 40
1
 40
1
 10
126.466000
 20
191.057390
 30
0.0
 10
125.398550
 20
194.759065
 30
0.0
 10
122.244610
 20
196.402766
 30
0.0
 10
115.035370
 20
197.014558
 30
0.0
  0
SPLINE
  5
185
100
AcDbEntity
  8
Ebene_1
 62
7
100
AcDbSpline
 70
8
 71
3
 72
8
 73
4
 74
0
 40
0
 40
0
 40
0
 40
0
 40
1
 40
1
 40
1
 40
1
 10
115.035370
 20
197.014558
 30
0.0
 10
113.465630
 20
197.147762
 30
0.0
 10
106.937190
 20
197.318716
 30
0.0
 10
106.855170
 20
197.228757
 30
0.0
  0
SPLINE
  5
186
100
AcDbEntity
  8
Ebene_1
 62
7
100
AcDbSpline
 70
8
 71
3
 72
8
 73
4
 74
0
 40
0
 40
0
 40
0
 40
0
 40
1
 40
1
 40
1
 40
1
 10
106.855170
 20
197.228757
 30
0.0
 10
106.813270
 20
197.182767
 30
0.0
 10
94.210343
 20
126.484610
 30
0.0
 10
91.550570
 20
111.374550
 30
0.0
  0
LWPOLYLINE
  5
187
100
AcDbEntity
  8
Ebene_1
 62
7
100
AcDbPolyline
 90
3
 70
0
 10
141.167640
 20
200.336118
 30
0.0
 10
141.563100
 20
200.134363
 30
0.0
 10
141.052990
 20
199.433023
 30
0.0
  0
SPLINE
  5
188
100
AcDbEntity
  8
Ebene_1
 62
7
100
AcDbSpline
 70
8
 71
3
 72
8
 73
4
 74
0
 40
0
 40
0
 40
0
 40
0
 40
1
 40
1
 40
1
 40
1
 10
141.563650
 20
203.943037
 30
0.0
 10
129.516600
 20
209.023810
 30
0.0
 10
115.829740
 20
212.256883
 30
0.0
 10
102.174710
 20
213.247370
 30
0.0
  0
SPLINE
  5
189
100
AcDbEntity
  8
Ebene_1
 62
7
100
AcDbSpline
 70
8
 71
3
 72
8
 73
4
 74
0
 40
0
 40
0
 40
0
 40
0
 40
1
 40
1
 40
1
 40
1
 10
102.174710
 20
213.247370
 30
0.0
 10
97.787637
 20
213.565589
 30
0.0
 10
88.673530
 20
213.669800
 30
0.0
 10
84.260209
 20
213.452201
 30
0.0
  0
SPLINE
  5
18a
100
AcDbEntity
  8
Ebene_1
 62
7
100
AcDbSpline
 70
8
 71
3
 72
8
 73
4
 74
0
 40
0
 40
0
 40
0
 40
0
 40
1
 40
1
 40
1
 40
1
 10
84.260209
 20
213.452201
 30
0.0
 10
68.966037
 20
212.698116
 30
0.0
 10
54.895116
 20
209.581258
 30
0.0
 10
41.372138
 20
203.952047
 30
0.0
  0
SPLINE
  5
18b
100
AcDbEntity
  8
Ebene_1
 62
7
100
AcDbSpline
 70
8
 71
3
 72
8
 73
4
 74
0
 40
0
 40
0
 40
0
 40
0
 40
1
 40
1
 40
1
 40
1
 10
41.372138
 20
203.952047
 30
0.0
 10
40.440456
 20
203.564221
 30
0.0
 10
39.620179
 20
203.269170
 30
0.0
 10
39.549284
 20
203.296370
 30
0.0
  0
SPLINE
  5
18c
100
AcDbEntity
  8
Ebene_1
 62
7
100
AcDbSpline
 70
8
 71
3
 72
8
 73
4
 74
0
 40
0
 40
0
 40
0
 40
0
 40
1
 40
1
 40
1
 40
1
 10
39.549284
 20
203.296370
 30
0.0
 10
39.478404
 20
203.323610
 30
0.0
 10
38.895085
 20
204.405696
 30
0.0
 10
38.253076
 20
205.701089
 30
0.0
  0
SPLINE
  5
18d
100
AcDbEntity
  8
Ebene_1
 62
7
100
AcDbSpline
 70
8
 71
3
 72
8
 73
4
 74
0
 40
0
 40
0
 40
0
 40
0
 40
1
 40
1
 40
1
 40
1
 10
38.253076
 20
205.701089
 30
0.0
 10
37.051897
 20
208.124704
 30
0.0
 10
36.492123
 20
209.383714
 30
0.0
 10
36.577691
 20
209.469280
 30
0.0
  0
SPLINE
  5
18e
100
AcDbEntity
  8
Ebene_1
 62
7
100
AcDbSpline
 70
8
 71
3
 72
8
 73
4
 74
0
 40
0
 40
0
 40
0
 40
0
 40
1
 40
1
 40
1
 40
1
 10
36.577691
 20
209.469280
 30
0.0
 10
36.665261
 20
209.556790
 30
0.0
 10
40.191955
 20
210.889152
 30
0.0
 10
42.259132
 20
211.615649
 30
0.0
  0
SPLINE
  5
18f
100
AcDbEntity
  8
Ebene_1
 62
7
100
AcDbSpline
 70
8
 71
3
 72
8
 73
4
 74
0
 40
0
 40
0
 40
0
 40
0
 40
1
 40
1
 40
1
 40
1
 10
42.259132
 20
211.615649
 30
0.0
 10
61.638188
 20
218.426333
 30
0.0
 10
82.334497
 20
221.248686
 30
0.0
 10
101.922540
 20
219.751935
 30
0.0
  0
SPLINE
  5
190
100
AcDbEntity
  8
Ebene_1
 62
7
100
AcDbSpline
 70
8
 71
3
 72
8
 73
4
 74
0
 40
0
 40
0
 40
0
 40
0
 40
1
 40
1
 40
1
 40
1
 10
101.922540
 20
219.751935
 30
0.0
 10
116.573210
 20
218.632453
 30
0.0
 10
130.380770
 20
215.542054
 30
0.0
 10
144.435930
 20
210.236606
 30
0.0
  0
SPLINE
  5
191
100
AcDbEntity
  8
Ebene_1
 62
7
100
AcDbSpline
 70
8
 71
3
 72
8
 73
4
 74
0
 40
0
 40
0
 40
0
 40
0
 40
1
 40
1
 40
1
 40
1
 10
144.435930
 20
210.236606
 30
0.0
 10
145.482380
 20
209.841601
 30
0.0
 10
146.356540
 20
209.500433
 30
0.0
 10
146.378530
 20
209.478453
 30
0.0
  0
SPLINE
  5
192
100
AcDbEntity
  8
Ebene_1
 62
7
100
AcDbSpline
 70
8
 71
3
 72
8
 73
4
 74
0
 40
0
 40
0
 40
0
 40
0
 40
1
 40
1
 40
1
 40
1
 10
146.378530
 20
209.478453
 30
0.0
 10
146.493410
 20
209.363565
 30
0.0
 10
143.683050
 20
203.496785
 30
0.0
 10
143.398290
 20
203.257061
 30
0.0
  0
SPLINE
  5
193
100
AcDbEntity
  8
Ebene_1
 62
7
100
AcDbSpline
 70
8
 71
3
 72
8
 73
4
 74
0
 40
0
 40
0
 40
0
 40
0
 40
1
 40
1
 40
1
 40
1
 10
143.398290
 20
203.257061
 30
0.0
 10
143.360090
 20
203.224891
 30
0.0
 10
142.534490
 20
203.533583
 30
0.0
 10
141.563650
 20
203.943037
 30
0.0
  0
LWPOLYLINE
  5
194
100
AcDbEntity
  8
Ebene_1
 62
7
100
AcDbPolyline
 90
3
 70
0
 10
91.550570
 20
111.374550
 30
0.0
 10
91.470680
 20
110.920630
 30
0.0
 10
91.403726
 20
111.273680
 30
0.0
  0
LWPOLYLINE
  5
195
100
AcDbEntity
  8
Ebene_1
 62
7
100
AcDbPolyline
 90
1
 70
1
 10
141.563650
 20
203.943037
 30
0.0
  0
LWPOLYLINE
  5
196
100
AcDbEntity
  8
Ebene_1
 62
7
100
AcDbPolyline
 90
9
 70
1
 10
135.004731
 20
92.056730
 30
0.0
 10
135.004731
 20
80.728554
 30
0.0
 10
135.413529
 20
80.728554
 30
0.0
 10
139.325848
 20
80.728554
 30
0.0
 10
139.325848
 20
87.735607
 30
0.0
 10
152.522363
 20
87.735607
 30
0.0
 10
152.522363
 20
80.728554
 30
0.0
 10
156.843489
 20
80.728554
 30
0.0
 10
156.843489
 20
92.056730
 30
0.0
  0
SPLINE
  5
197
100
AcDbEntity
  8
Ebene_1
 62
7
100
AcDbSpline
 70
8
 71
3
 72
8
 73
4
 74
0
 40
0
 40
0
 40
0
 40
0
 40
1
 40
1
 40
1
 40
1
 10
135.004731
 20
98.654985
 30
0.0
 10
135.004731
 20
97.592724
 30
0.0
 10
135.390685
 20
96.641105
 30
0.0
 10
136.132122
 20
95.879630
 30
0.0
  0
LWPOLYLINE
  5
198
100
AcDbEntity
  8
Ebene_1
 62
7
100
AcDbPolyline
 90
2
 70
0
 10
135.004731
 20
99.063783
 30
0.0
 10
135.004731
 20
98.654985
 30
0.0
  0
SPLINE
  5
199
100
AcDbEntity
  8
Ebene_1
 62
7
100
AcDbSpline
 70
8
 71
3
 72
8
 73
4
 74
0
 40
0
 40
0
 40
0
 40
0
 40
1
 40
1
 40
1
 40
1
 10
136.137028
 20
95.876359
 30
0.0
 10
136.882512
 20
95.130880
 30
0.0
 10
137.838429
 20
94.742584
 30
0.0
 10
138.917173
 20
94.742584
 30
0.0
  0
LWPOLYLINE
  5
19a
100
AcDbEntity
  8
Ebene_1
 62
7
100
AcDbPolyline
 90
3
 70
0
 10
136.132122
 20
95.879630
 30
0.0
 10
136.135393
 20
95.877995
 30
0.0
 10
136.137028
 20
95.876359
 30
0.0
  0
SPLINE
  5
19b
100
AcDbEntity
  8
Ebene_1
 62
7
100
AcDbSpline
 70
8
 71
3
 72
8
 73
4
 74
0
 40
0
 40
0
 40
0
 40
0
 40
1
 40
1
 40
1
 40
1
 10
152.931284
 20
94.742584
 30
0.0
 10
153.977128
 20
94.742584
 30
0.0
 10
154.919301
 20
95.131382
 30
0.0
 10
155.679494
 20
95.871568
 30
0.0
  0
SPLINE
  5
19c
100
AcDbEntity
  8
Ebene_1
 62
7
100
AcDbSpline
 70
8
 71
3
 72
8
 73
4
 74
0
 40
0
 40
0
 40
0
 40
0
 40
1
 40
1
 40
1
 40
1
 10
155.679494
 20
95.871568
 30
0.0
 10
156.444126
 20
96.616081
 30
0.0
 10
156.843611
 20
97.573638
 30
0.0
 10
156.843611
 20
98.654908
 30
0.0
  0
LWPOLYLINE
  5
19d
100
AcDbEntity
  8
Ebene_1
 62
7
100
AcDbPolyline
 90
2
 70
0
 10
138.917173
 20
94.742584
 30
0.0
 10
152.931284
 20
94.742584
 30
0.0
  0
LWPOLYLINE
  5
19e
100
AcDbEntity
  8
Ebene_1
 62
7
100
AcDbPolyline
 90
3
 70
0
 10
156.843611
 20
98.654908
 30
0.0
 10
156.843611
 20
99.063706
 30
0.0
 10
135.004731
 20
99.063783
 30
0.0
  0
SPLINE
  5
19f
100
AcDbEntity
  8
Ebene_1
 62
7
100
AcDbSpline
 70
8
 71
3
 72
8
 73
4
 74
0
 40
0
 40
0
 40
0
 40
0
 40
1
 40
1
 40
1
 40
1
 10
26.107967
 20
98.654985
 30
0.0
 10
26.107967
 20
97.592724
 30
0.0
 10
26.495516
 20
96.641105
 30
0.0
 10
27.236953
 20
95.879630
 30
0.0
  0
LWPOLYLINE
  5
1a0
100
AcDbEntity
  8
Ebene_1
 62
7
100
AcDbPolyline
 90
2
 70
0
 10
26.107967
 20
99.063783
 30
0.0
 10
26.107967
 20
98.654985
 30
0.0
  0
SPLINE
  5
1a1
100
AcDbEntity
  8
Ebene_1
 62
7
100
AcDbSpline
 70
8
 71
3
 72
8
 73
4
 74
0
 40
0
 40
0
 40
0
 40
0
 40
1
 40
1
 40
1
 40
1
 10
27.240223
 20
95.876359
 30
0.0
 10
27.985707
 20
95.130879
 30
0.0
 10
28.941624
 20
94.742584
 30
0.0
 10
30.020368
 20
94.742584
 30
0.0
  0
LWPOLYLINE
  5
1a2
100
AcDbEntity
  8
Ebene_1
 62
7
100
AcDbPolyline
 90
3
 70
0
 10
27.236953
 20
95.879630
 30
0.0
 10
27.238588
 20
95.877995
 30
0.0
 10
27.240223
 20
95.876359
 30
0.0
  0
SPLINE
  5
1a3
100
AcDbEntity
  8
Ebene_1
 62
7
100
AcDbSpline
 70
8
 71
3
 72
8
 73
4
 74
0
 40
0
 40
0
 40
0
 40
0
 40
1
 40
1
 40
1
 40
1
 10
44.034479
 20
94.742660
 30
0.0
 10
45.080323
 20
94.742660
 30
0.0
 10
46.022496
 20
95.131459
 30
0.0
 10
46.782689
 20
95.871645
 30
0.0
  0
SPLINE
  5
1a4
100
AcDbEntity
  8
Ebene_1
 62
7
100
AcDbSpline
 70
8
 71
3
 72
8
 73
4
 74
0
 40
0
 40
0
 40
0
 40
0
 40
1
 40
1
 40
1
 40
1
 10
46.782689
 20
95.871645
 30
0.0
 10
47.547321
 20
96.616157
 30
0.0
 10
47.946798
 20
97.573714
 30
0.0
 10
47.946798
 20
98.654985
 30
0.0
  0
LWPOLYLINE
  5
1a5
100
AcDbEntity
  8
Ebene_1
 62
7
100
AcDbPolyline
 90
7
 70
0
 10
30.020368
 20
94.742584
 30
0.0
 10
34.866865
 20
94.742584
 30
0.0
 10
34.866865
 20
80.728554
 30
0.0
 10
35.275663
 20
80.728554
 30
0.0
 10
39.187982
 20
80.728554
 30
0.0
 10
39.187982
 20
94.742660
 30
0.0
 10
44.034479
 20
94.742660
 30
0.0
  0
LWPOLYLINE
  5
1a6
100
AcDbEntity
  8
Ebene_1
 62
7
100
AcDbPolyline
 90
3
 70
0
 10
47.946798
 20
98.654985
 30
0.0
 10
47.946798
 20
99.063783
 30
0.0
 10
26.107967
 20
99.063783
 30
0.0
  0
SPLINE
  5
1a7
100
AcDbEntity
  8
Ebene_1
 62
7
100
AcDbSpline
 70
8
 71
3
 72
8
 73
4
 74
0
 40
0
 40
0
 40
0
 40
0
 40
1
 40
1
 40
1
 40
1
 10
53.331363
 20
84.640878
 30
0.0
 10
53.331363
 20
83.578618
 30
0.0
 10
53.718912
 20
82.626999
 30
0.0
 10
54.460348
 20
81.865523
 30
0.0
  0
LWPOLYLINE
  5
1a8
100
AcDbEntity
  8
Ebene_1
 62
7
100
AcDbPolyline
 90
2
 70
0
 10
53.331363
 20
85.049676
 30
0.0
 10
53.331363
 20
84.640878
 30
0.0
  0
SPLINE
  5
1a9
100
AcDbEntity
  8
Ebene_1
 62
7
100
AcDbSpline
 70
8
 71
3
 72
8
 73
4
 74
0
 40
0
 40
0
 40
0
 40
0
 40
1
 40
1
 40
1
 40
1
 10
54.463619
 20
81.860700
 30
0.0
 10
55.209095
 20
81.115219
 30
0.0
 10
56.165012
 20
80.728520
 30
0.0
 10
57.243764
 20
80.728520
 30
0.0
  0
LWPOLYLINE
  5
1aa
100
AcDbEntity
  8
Ebene_1
 62
7
100
AcDbPolyline
 90
3
 70
0
 10
54.460348
 20
81.865523
 30
0.0
 10
54.461984
 20
81.863888
 30
0.0
 10
54.463619
 20
81.860700
 30
0.0
  0
SPLINE
  5
1ab
100
AcDbEntity
  8
Ebene_1
 62
7
100
AcDbSpline
 70
8
 71
3
 72
8
 73
4
 74
0
 40
0
 40
0
 40
0
 40
0
 40
1
 40
1
 40
1
 40
1
 10
71.257866
 20
80.728520
 30
0.0
 10
72.303711
 20
80.728520
 30
0.0
 10
73.247486
 20
81.117319
 30
0.0
 10
74.007671
 20
81.857505
 30
0.0
  0
SPLINE
  5
1ac
100
AcDbEntity
  8
Ebene_1
 62
7
100
AcDbSpline
 70
8
 71
3
 72
8
 73
4
 74
0
 40
0
 40
0
 40
0
 40
0
 40
1
 40
1
 40
1
 40
1
 10
74.007671
 20
81.857505
 30
0.0
 10
74.772311
 20
82.602017
 30
0.0
 10
75.170194
 20
83.559574
 30
0.0
 10
75.170194
 20
84.640845
 30
0.0
  0
LWPOLYLINE
  5
1ad
100
AcDbEntity
  8
Ebene_1
 62
7
100
AcDbPolyline
 90
2
 70
0
 10
57.243764
 20
80.728520
 30
0.0
 10
71.257866
 20
80.728520
 30
0.0
  0
LWPOLYLINE
  5
1ae
100
AcDbEntity
  8
Ebene_1
 62
7
100
AcDbPolyline
 90
3
 70
0
 10
75.170194
 20
84.640845
 30
0.0
 10
75.170194
 20
85.049643
 30
0.0
 10
53.331363
 20
85.049676
 30
0.0
  0
SPLINE
  5
1af
100
AcDbEntity
  8
Ebene_1
 62
7
100
AcDbSpline
 70
8
 71
3
 72
8
 73
4
 74
0
 40
0
 40
0
 40
0
 40
0
 40
1
 40
1
 40
1
 40
1
 10
53.331363
 20
91.647932
 30
0.0
 10
53.331363
 20
90.585670
 30
0.0
 10
53.718912
 20
89.634052
 30
0.0
 10
54.460348
 20
88.872577
 30
0.0
  0
LWPOLYLINE
  5
1b0
100
AcDbEntity
  8
Ebene_1
 62
7
100
AcDbPolyline
 90
2
 70
0
 10
53.331363
 20
92.056730
 30
0.0
 10
53.331363
 20
91.647932
 30
0.0
  0
SPLINE
  5
1b1
100
AcDbEntity
  8
Ebene_1
 62
7
100
AcDbSpline
 70
8
 71
3
 72
8
 73
4
 74
0
 40
0
 40
0
 40
0
 40
0
 40
1
 40
1
 40
1
 40
1
 10
54.463619
 20
88.867753
 30
0.0
 10
55.209095
 20
88.122273
 30
0.0
 10
56.165012
 20
87.735574
 30
0.0
 10
57.243764
 20
87.735574
 30
0.0
  0
LWPOLYLINE
  5
1b2
100
AcDbEntity
  8
Ebene_1
 62
7
100
AcDbPolyline
 90
3
 70
0
 10
54.460348
 20
88.872577
 30
0.0
 10
54.461984
 20
88.870942
 30
0.0
 10
54.463619
 20
88.867753
 30
0.0
  0
SPLINE
  5
1b3
100
AcDbEntity
  8
Ebene_1
 62
7
100
AcDbSpline
 70
8
 71
3
 72
8
 73
4
 74
0
 40
0
 40
0
 40
0
 40
0
 40
1
 40
1
 40
1
 40
1
 10
71.257866
 20
87.735574
 30
0.0
 10
72.303711
 20
87.735574
 30
0.0
 10
73.247486
 20
88.124373
 30
0.0
 10
74.007671
 20
88.864560
 30
0.0
  0
SPLINE
  5
1b4
100
AcDbEntity
  8
Ebene_1
 62
7
100
AcDbSpline
 70
8
 71
3
 72
8
 73
4
 74
0
 40
0
 40
0
 40
0
 40
0
 40
1
 40
1
 40
1
 40
1
 10
74.007671
 20
88.864560
 30
0.0
 10
74.772311
 20
89.609072
 30
0.0
 10
75.170194
 20
90.566629
 30
0.0
 10
75.170194
 20
91.647899
 30
0.0
  0
LWPOLYLINE
  5
1b5
100
AcDbEntity
  8
Ebene_1
 62
7
100
AcDbPolyline
 90
2
 70
0
 10
57.243764
 20
87.735574
 30
0.0
 10
71.257866
 20
87.735574
 30
0.0
  0
LWPOLYLINE
  5
1b6
100
AcDbEntity
  8
Ebene_1
 62
7
100
AcDbPolyline
 90
3
 70
0
 10
75.170194
 20
91.647899
 30
0.0
 10
75.170194
 20
92.056697
 30
0.0
 10
53.331363
 20
92.056730
 30
0.0
  0
SPLINE
  5
1b7
100
AcDbEntity
  8
Ebene_1
 62
7
100
AcDbSpline
 70
8
 71
3
 72
8
 73
4
 74
0
 40
0
 40
0
 40
0
 40
0
 40
1
 40
1
 40
1
 40
1
 10
53.331363
 20
98.654985
 30
0.0
 10
53.331363
 20
97.592724
 30
0.0
 10
53.718912
 20
96.641105
 30
0.0
 10
54.460348
 20
95.879630
 30
0.0
  0
LWPOLYLINE
  5
1b8
100
AcDbEntity
  8
Ebene_1
 62
7
100
AcDbPolyline
 90
2
 70
0
 10
53.331363
 20
99.063783
 30
0.0
 10
53.331363
 20
98.654985
 30
0.0
  0
SPLINE
  5
1b9
100
AcDbEntity
  8
Ebene_1
 62
7
100
AcDbSpline
 70
8
 71
3
 72
8
 73
4
 74
0
 40
0
 40
0
 40
0
 40
0
 40
1
 40
1
 40
1
 40
1
 10
54.463619
 20
95.876359
 30
0.0
 10
55.209095
 20
95.130879
 30
0.0
 10
56.165012
 20
94.742584
 30
0.0
 10
57.243764
 20
94.742584
 30
0.0
  0
LWPOLYLINE
  5
1ba
100
AcDbEntity
  8
Ebene_1
 62
7
100
AcDbPolyline
 90
3
 70
0
 10
54.460348
 20
95.879630
 30
0.0
 10
54.461984
 20
95.877995
 30
0.0
 10
54.463619
 20
95.876359
 30
0.0
  0
SPLINE
  5
1bb
100
AcDbEntity
  8
Ebene_1
 62
7
100
AcDbSpline
 70
8
 71
3
 72
8
 73
4
 74
0
 40
0
 40
0
 40
0
 40
0
 40
1
 40
1
 40
1
 40
1
 10
71.257866
 20
94.742584
 30
0.0
 10
72.303711
 20
94.742584
 30
0.0
 10
73.247486
 20
95.131382
 30
0.0
 10
74.007671
 20
95.871568
 30
0.0
  0
SPLINE
  5
1bc
100
AcDbEntity
  8
Ebene_1
 62
7
100
AcDbSpline
 70
8
 71
3
 72
8
 73
4
 74
0
 40
0
 40
0
 40
0
 40
0
 40
1
 40
1
 40
1
 40
1
 10
74.007671
 20
95.871568
 30
0.0
 10
74.772311
 20
96.616080
 30
0.0
 10
75.170194
 20
97.573637
 30
0.0
 10
75.170194
 20
98.654908
 30
0.0
  0
LWPOLYLINE
  5
1bd
100
AcDbEntity
  8
Ebene_1
 62
7
100
AcDbPolyline
 90
2
 70
0
 10
57.243764
 20
94.742584
 30
0.0
 10
71.257866
 20
94.742584
 30
0.0
  0
LWPOLYLINE
  5
1be
100
AcDbEntity
  8
Ebene_1
 62
7
100
AcDbPolyline
 90
3
 70
0
 10
75.170194
 20
98.654908
 30
0.0
 10
75.170194
 20
99.063706
 30
0.0
 10
53.331363
 20
99.063783
 30
0.0
  0
SPLINE
  5
1bf
100
AcDbEntity
  8
Ebene_1
 62
7
100
AcDbSpline
 70
8
 71
3
 72
8
 73
4
 74
0
 40
0
 40
0
 40
0
 40
0
 40
1
 40
1
 40
1
 40
1
 10
84.468673
 20
85.049676
 30
0.0
 10
83.403844
 20
85.049676
 30
0.0
 10
82.449137
 20
84.650961
 30
0.0
 10
81.688527
 20
83.890351
 30
0.0
  0
SPLINE
  5
1c0
100
AcDbEntity
  8
Ebene_1
 62
7
100
AcDbSpline
 70
8
 71
3
 72
8
 73
4
 74
0
 40
0
 40
0
 40
0
 40
0
 40
1
 40
1
 40
1
 40
1
 10
81.688527
 20
83.890351
 30
0.0
 10
80.944351
 20
83.146172
 30
0.0
 10
80.556353
 20
82.199613
 30
0.0
 10
80.556353
 20
81.137352
 30
0.0
  0
LWPOLYLINE
  5
1c1
100
AcDbEntity
  8
Ebene_1
 62
7
100
AcDbPolyline
 90
5
 70
0
 10
80.556353
 20
99.063783
 30
0.0
 10
80.556353
 20
87.735607
 30
0.0
 10
98.073985
 20
87.735607
 30
0.0
 10
98.073985
 20
85.049676
 30
0.0
 10
84.468673
 20
85.049676
 30
0.0
  0
SPLINE
  5
1c2
100
AcDbEntity
  8
Ebene_1
 62
7
100
AcDbSpline
 70
8
 71
3
 72
8
 73
4
 74
0
 40
0
 40
0
 40
0
 40
0
 40
1
 40
1
 40
1
 40
1
 10
98.482783
 20
94.742660
 30
0.0
 10
99.528627
 20
94.742660
 30
0.0
 10
100.470800
 20
95.131459
 30
0.0
 10
101.230993
 20
95.871645
 30
0.0
  0
SPLINE
  5
1c3
100
AcDbEntity
  8
Ebene_1
 62
7
100
AcDbSpline
 70
8
 71
3
 72
8
 73
4
 74
0
 40
0
 40
0
 40
0
 40
0
 40
1
 40
1
 40
1
 40
1
 10
101.230993
 20
95.871645
 30
0.0
 10
101.995625
 20
96.616158
 30
0.0
 10
102.395103
 20
97.573715
 30
0.0
 10
102.395103
 20
98.654985
 30
0.0
  0
LWPOLYLINE
  5
1c4
100
AcDbEntity
  8
Ebene_1
 62
7
100
AcDbPolyline
 90
8
 70
0
 10
80.556353
 20
81.137352
 30
0.0
 10
80.556353
 20
80.728554
 30
0.0
 10
80.965151
 20
80.728554
 30
0.0
 10
102.395103
 20
80.728554
 30
0.0
 10
102.395103
 20
92.056730
 30
0.0
 10
84.877471
 20
92.056730
 30
0.0
 10
84.877471
 20
94.742660
 30
0.0
 10
98.482783
 20
94.742660
 30
0.0
  0
LWPOLYLINE
  5
1c5
100
AcDbEntity
  8
Ebene_1
 62
7
100
AcDbPolyline
 90
3
 70
0
 10
102.395103
 20
98.654985
 30
0.0
 10
102.395103
 20
99.063783
 30
0.0
 10
80.556353
 20
99.063783
 30
0.0
  0
SPLINE
  5
1c6
100
AcDbEntity
  8
Ebene_1
 62
7
100
AcDbSpline
 70
8
 71
3
 72
8
 73
4
 74
0
 40
0
 40
0
 40
0
 40
0
 40
1
 40
1
 40
1
 40
1
 10
125.706171
 20
80.728554
 30
0.0
 10
126.752015
 20
80.728554
 30
0.0
 10
127.695791
 20
81.117353
 30
0.0
 10
128.455975
 20
81.857539
 30
0.0
  0
SPLINE
  5
1c7
100
AcDbEntity
  8
Ebene_1
 62
7
100
AcDbSpline
 70
8
 71
3
 72
8
 73
4
 74
0
 40
0
 40
0
 40
0
 40
0
 40
1
 40
1
 40
1
 40
1
 10
128.455975
 20
81.857539
 30
0.0
 10
129.220607
 20
82.602051
 30
0.0
 10
129.618498
 20
83.559608
 30
0.0
 10
129.618498
 20
84.640878
 30
0.0
  0
LWPOLYLINE
  5
1c8
100
AcDbEntity
  8
Ebene_1
 62
7
100
AcDbPolyline
 90
4
 70
0
 10
107.779741
 20
99.063783
 30
0.0
 10
107.779741
 20
80.728554
 30
0.0
 10
108.188539
 20
80.728554
 30
0.0
 10
125.706171
 20
80.728554
 30
0.0
  0
SPLINE
  5
1c9
100
AcDbEntity
  8
Ebene_1
 62
7
100
AcDbSpline
 70
8
 71
3
 72
8
 73
4
 74
0
 40
0
 40
0
 40
0
 40
0
 40
1
 40
1
 40
1
 40
1
 10
214.404540
 20
242.015347
 30
0.0
 10
197.055710
 20
242.015347
 30
0.0
 10
182.925320
 20
227.906957
 30
0.0
 10
182.925320
 20
210.575177
 30
0.0
  0
LWPOLYLINE
  5
1ca
100
AcDbEntity
  8
Ebene_1
 62
7
100
AcDbPolyline
 90
5
 70
0
 10
129.618498
 20
84.640878
 30
0.0
 10
129.618498
 20
85.049676
 30
0.0
 10
112.100866
 20
85.049676
 30
0.0
 10
112.100866
 20
99.063783
 30
0.0
 10
107.779741
 20
99.063783
 30
0.0
  0
SPLINE
  5
1cb
100
AcDbEntity
  8
Ebene_1
 62
7
100
AcDbSpline
 70
8
 71
3
 72
8
 73
4
 74
0
 40
0
 40
0
 40
0
 40
0
 40
1
 40
1
 40
1
 40
1
 10
182.925320
 20
39.006440
 30
0.0
 10
182.925320
 20
21.674660
 30
0.0
 10
197.055710
 20
7.566270
 30
0.0
 10
214.404540
 20
7.566270
 30
0.0
  0
LWPOLYLINE
  5
1cc
100
AcDbEntity
  8
Ebene_1
 62
7
100
AcDbPolyline
 90
2
 70
0
 10
182.925320
 20
210.575177
 30
0.0
 10
182.925320
 20
39.006440
 30
0.0
  0
SPLINE
  5
1cd
100
AcDbEntity
  8
Ebene_1
 62
7
100
AcDbSpline
 70
8
 71
3
 72
8
 73
4
 74
0
 40
0
 40
0
 40
0
 40
0
 40
1
 40
1
 40
1
 40
1
 10
317.485720
 20
7.566270
 30
0.0
 10
334.834560
 20
7.566270
 30
0.0
 10
348.964950
 20
21.674660
 30
0.0
 10
348.964950
 20
39.006440
 30
0.0
  0
LWPOLYLINE
  5
1ce
100
AcDbEntity
  8
Ebene_1
 62
7
100
AcDbPolyline
 90
2
 70
0
 10
214.404540
 20
7.566270
 30
0.0
 10
317.485720
 20
7.566270
 30
0.0
  0
SPLINE
  5
1cf
100
AcDbEntity
  8
Ebene_1
 62
7
100
AcDbSpline
 70
8
 71
3
 72
8
 73
4
 74
0
 40
0
 40
0
 40
0
 40
0
 40
1
 40
1
 40
1
 40
1
 10
348.964950
 20
210.575177
 30
0.0
 10
348.964950
 20
227.906957
 30
0.0
 10
334.834560
 20
242.015347
 30
0.0
 10
317.485720
 20
242.015347
 30
0.0
  0
LWPOLYLINE
  5
1d0
100
AcDbEntity
  8
Ebene_1
 62
7
100
AcDbPolyline
 90
2
 70
0
 10
348.964950
 20
39.006440
 30
0.0
 10
348.964950
 20
210.575177
 30
0.0
  0
SPLINE
  5
1d1
100
AcDbEntity
  8
Ebene_1
 62
7
100
AcDbSpline
 70
8
 71
3
 72
8
 73
4
 74
0
 40
0
 40
0
 40
0
 40
0
 40
1
 40
1
 40
1
 40
1
 10
214.852004
 20
238.107529
 30
0.0
 10
199.213762
 20
238.107529
 30
0.0
 10
186.537020
 20
225.447896
 30
0.0
 10
186.537020
 20
209.830772
 30
0.0
  0
LWPOLYLINE
  5
1d2
100
AcDbEntity
  8
Ebene_1
 62
7
100
AcDbPolyline
 90
2
 70
0
 10
317.485720
 20
242.015347
 30
0.0
 10
214.404540
 20
242.015347
 30
0.0
  0
SPLINE
  5
1d3
100
AcDbEntity
  8
Ebene_1
 62
7
100
AcDbSpline
 70
8
 71
3
 72
8
 73
4
 74
0
 40
0
 40
0
 40
0
 40
0
 40
1
 40
1
 40
1
 40
1
 10
186.537020
 20
39.750733
 30
0.0
 10
186.537020
 20
24.133607
 30
0.0
 10
199.213762
 20
11.473973
 30
0.0
 10
214.852004
 20
11.473973
 30
0.0
  0
LWPOLYLINE
  5
1d4
100
AcDbEntity
  8
Ebene_1
 62
7
100
AcDbPolyline
 90
2
 70
0
 10
186.537020
 20
209.830772
 30
0.0
 10
186.537020
 20
39.750733
 30
0.0
  0
SPLINE
  5
1d5
100
AcDbEntity
  8
Ebene_1
 62
7
100
AcDbSpline
 70
8
 71
3
 72
8
 73
4
 74
0
 40
0
 40
0
 40
0
 40
0
 40
1
 40
1
 40
1
 40
1
 10
317.038583
 20
11.473973
 30
0.0
 10
332.676827
 20
11.473973
 30
0.0
 10
345.353565
 20
24.133607
 30
0.0
 10
345.353565
 20
39.750733
 30
0.0
  0
LWPOLYLINE
  5
1d6
100
AcDbEntity
  8
Ebene_1
 62
7
100
AcDbPolyline
 90
2
 70
0
 10
214.852004
 20
11.473973
 30
0.0
 10
317.038583
 20
11.473973
 30
0.0
  0
SPLINE
  5
1d7
100
AcDbEntity
  8
Ebene_1
 62
7
100
AcDbSpline
 70
8
 71
3
 72
8
 73
4
 74
0
 40
0
 40
0
 40
0
 40
0
 40
1
 40
1
 40
1
 40
1
 10
345.353565
 20
209.830772
 30
0.0
 10
345.353565
 20
225.447896
 30
0.0
 10
332.676827
 20
238.107529
 30
0.0
 10
317.038583
 20
238.107529
 30
0.0
  0
LWPOLYLINE
  5
1d8
100
AcDbEntity
  8
Ebene_1
 62
7
100
AcDbPolyline
 90
2
 70
0
 10
345.353565
 20
39.750733
 30
0.0
 10
345.353565
 20
209.830772
 30
0.0
  0
LWPOLYLINE
  5
1d9
100
AcDbEntity
  8
Ebene_1
 62
7
100
AcDbPolyline
 90
2
 70
0
 10
317.038583
 20
238.107529
 30
0.0
 10
214.852004
 20
238.107529
 30
0.0
  0
SPLINE
  5
1da
100
AcDbEntity
  8
Ebene_1
 62
7
100
AcDbSpline
 70
8
 71
3
 72
8
 73
4
 74
0
 40
0
 40
0
 40
0
 40
0
 40
1
 40
1
 40
1
 40
1
 10
317.038583
 20
232.579882
 30
0.0
 10
329.706112
 20
232.579882
 30
0.0
 10
339.818443
 20
222.481190
 30
0.0
 10
339.818443
 20
209.830772
 30
0.0
  0
LWPOLYLINE
  5
1db
100
AcDbEntity
  8
Ebene_1
 62
7
100
AcDbPolyline
 90
2
 70
0
 10
214.852004
 20
232.579882
 30
0.0
 10
317.038583
 20
232.579882
 30
0.0
  0
SPLINE
  5
1dc
100
AcDbEntity
  8
Ebene_1
 62
7
100
AcDbSpline
 70
8
 71
3
 72
8
 73
4
 74
0
 40
0
 40
0
 40
0
 40
0
 40
1
 40
1
 40
1
 40
1
 10
339.818443
 20
39.750733
 30
0.0
 10
339.818443
 20
27.100308
 30
0.0
 10
329.706112
 20
17.001629
 30
0.0
 10
317.038583
 20
17.001629
 30
0.0
  0
LWPOLYLINE
  5
1dd
100
AcDbEntity
  8
Ebene_1
 62
7
100
AcDbPolyline
 90
2
 70
0
 10
339.818443
 20
209.830772
 30
0.0
 10
339.818443
 20
39.750733
 30
0.0
  0
SPLINE
  5
1de
100
AcDbEntity
  8
Ebene_1
 62
7
100
AcDbSpline
 70
8
 71
3
 72
8
 73
4
 74
0
 40
0
 40
0
 40
0
 40
0
 40
1
 40
1
 40
1
 40
1
 10
214.852004
 20
17.001629
 30
0.0
 10
202.184470
 20
17.001629
 30
0.0
 10
192.072142
 20
27.100308
 30
0.0
 10
192.072142
 20
39.750733
 30
0.0
  0
LWPOLYLINE
  5
1df
100
AcDbEntity
  8
Ebene_1
 62
7
100
AcDbPolyline
 90
2
 70
0
 10
317.038583
 20
17.001629
 30
0.0
 10
214.852004
 20
17.001629
 30
0.0
  0
SPLINE
  5
1e0
100
AcDbEntity
  8
Ebene_1
 62
7
100
AcDbSpline
 70
8
 71
3
 72
8
 73
4
 74
0
 40
0
 40
0
 40
0
 40
0
 40
1
 40
1
 40
1
 40
1
 10
192.072142
 20
209.830772
 30
0.0
 10
192.072142
 20
222.481190
 30
0.0
 10
202.184470
 20
232.579882
 30
0.0
 10
214.852004
 20
232.579882
 30
0.0
  0
LWPOLYLINE
  5
1e1
100
AcDbEntity
  8
Ebene_1
 62
7
100
AcDbPolyline
 90
2
 70
0
 10
192.072142
 20
39.750733
 30
0.0
 10
192.072142
 20
209.830772
 30
0.0
  0
SPLINE
  5
1e2
100
AcDbEntity
  8
Ebene_1
 62
7
100
AcDbSpline
 70
8
 71
3
 72
8
 73
4
 74
0
 40
0
 40
0
 40
0
 40
0
 40
1
 40
1
 40
1
 40
1
 10
205.227783
 20
29.167478
 30
0.0
 10
205.227782
 20
28.048412
 30
0.0
 10
204.320600
 20
27.141230
 30
0.0
 10
203.201534
 20
27.141231
 30
0.0
  0
SPLINE
  5
1e3
100
AcDbEntity
  8
Ebene_1
 62
7
100
AcDbSpline
 70
8
 71
3
 72
8
 73
4
 74
0
 40
0
 40
0
 40
0
 40
0
 40
1
 40
1
 40
1
 40
1
 10
203.201534
 20
27.141231
 30
0.0
 10
202.082468
 20
27.141231
 30
0.0
 10
201.175286
 20
28.048412
 30
0.0
 10
201.175285
 20
29.167478
 30
0.0
  0
SPLINE
  5
1e4
100
AcDbEntity
  8
Ebene_1
 62
7
100
AcDbSpline
 70
8
 71
3
 72
8
 73
4
 74
0
 40
0
 40
0
 40
0
 40
0
 40
1
 40
1
 40
1
 40
1
 10
201.175285
 20
29.167478
 30
0.0
 10
201.175286
 20
30.286543
 30
0.0
 10
202.082468
 20
31.193724
 30
0.0
 10
203.201534
 20
31.193725
 30
0.0
  0
SPLINE
  5
1e5
100
AcDbEntity
  8
Ebene_1
 62
7
100
AcDbSpline
 70
8
 71
3
 72
8
 73
4
 74
0
 40
0
 40
0
 40
0
 40
0
 40
1
 40
1
 40
1
 40
1
 10
203.201534
 20
31.193725
 30
0.0
 10
204.320600
 20
31.193725
 30
0.0
 10
205.227782
 20
30.286543
 30
0.0
 10
205.227783
 20
29.167478
 30
0.0
  0
LWPOLYLINE
  5
1e6
100
AcDbEntity
  8
Ebene_1
 62
7
100
AcDbPolyline
 90
1
 70
1
 10
214.852004
 20
232.579882
 30
0.0
  0
SPLINE
  5
1e7
100
AcDbEntity
  8
Ebene_1
 62
7
100
AcDbSpline
 70
8
 71
3
 72
8
 73
4
 74
0
 40
0
 40
0
 40
0
 40
0
 40
1
 40
1
 40
1
 40
1
 10
330.785265
 20
29.403869
 30
0.0
 10
330.785264
 20
28.284804
 30
0.0
 10
329.878083
 20
27.377623
 30
0.0
 10
328.759018
 20
27.377622
 30
0.0
  0
SPLINE
  5
1e8
100
AcDbEntity
  8
Ebene_1
 62
7
100
AcDbSpline
 70
8
 71
3
 72
8
 73
4
 74
0
 40
0
 40
0
 40
0
 40
0
 40
1
 40
1
 40
1
 40
1
 10
328.759018
 20
27.377622
 30
0.0
 10
327.639953
 20
27.377623
 30
0.0
 10
326.732772
 20
28.284804
 30
0.0
 10
326.732771
 20
29.403869
 30
0.0
  0
SPLINE
  5
1e9
100
AcDbEntity
  8
Ebene_1
 62
7
100
AcDbSpline
 70
8
 71
3
 72
8
 73
4
 74
0
 40
0
 40
0
 40
0
 40
0
 40
1
 40
1
 40
1
 40
1
 10
326.732771
 20
29.403869
 30
0.0
 10
326.732772
 20
30.522934
 30
0.0
 10
327.639953
 20
31.430115
 30
0.0
 10
328.759018
 20
31.430116
 30
0.0
  0
SPLINE
  5
1ea
100
AcDbEntity
  8
Ebene_1
 62
7
100
AcDbSpline
 70
8
 71
3
 72
8
 73
4
 74
0
 40
0
 40
0
 40
0
 40
0
 40
1
 40
1
 40
1
 40
1
 10
328.759018
 20
31.430116
 30
0.0
 10
329.878083
 20
31.430115
 30
0.0
 10
330.785264
 20
30.522934
 30
0.0
 10
330.785265
 20
29.403869
 30
0.0
  0
LWPOLYLINE
  5
1eb
100
AcDbEntity
  8
Ebene_1
 62
7
100
AcDbPolyline
 90
1
 70
1
 10
205.227783
 20
29.167478
 30
0.0
  0
SPLINE
  5
1ec
100
AcDbEntity
  8
Ebene_1
 62
7
100
AcDbSpline
 70
8
 71
3
 72
8
 73
4
 74
0
 40
0
 40
0
 40
0
 40
0
 40
1
 40
1
 40
1
 40
1
 10
331.091609
 20
219.941240
 30
0.0
 10
331.091609
 20
218.822174
 30
0.0
 10
330.184427
 20
217.914992
 30
0.0
 10
329.065362
 20
217.914990
 30
0.0
  0
SPLINE
  5
1ed
100
AcDbEntity
  8
Ebene_1
 62
7
100
AcDbSpline
 70
8
 71
3
 72
8
 73
4
 74
0
 40
0
 40
0
 40
0
 40
0
 40
1
 40
1
 40
1
 40
1
 10
329.065362
 20
217.914990
 30
0.0
 10
327.946296
 20
217.914992
 30
0.0
 10
327.039114
 20
218.822174
 30
0.0
 10
327.039115
 20
219.941240
 30
0.0
  0
SPLINE
  5
1ee
100
AcDbEntity
  8
Ebene_1
 62
7
100
AcDbSpline
 70
8
 71
3
 72
8
 73
4
 74
0
 40
0
 40
0
 40
0
 40
0
 40
1
 40
1
 40
1
 40
1
 10
327.039115
 20
219.941240
 30
0.0
 10
327.039114
 20
221.060306
 30
0.0
 10
327.946296
 20
221.967488
 30
0.0
 10
329.065362
 20
221.967490
 30
0.0
  0
SPLINE
  5
1ef
100
AcDbEntity
  8
Ebene_1
 62
7
100
AcDbSpline
 70
8
 71
3
 72
8
 73
4
 74
0
 40
0
 40
0
 40
0
 40
0
 40
1
 40
1
 40
1
 40
1
 10
329.065362
 20
221.967490
 30
0.0
 10
330.184427
 20
221.967488
 30
0.0
 10
331.091609
 20
221.060306
 30
0.0
 10
331.091609
 20
219.941240
 30
0.0
  0
LWPOLYLINE
  5
1f0
100
AcDbEntity
  8
Ebene_1
 62
7
100
AcDbPolyline
 90
1
 70
1
 10
330.785265
 20
29.403869
 30
0.0
  0
SPLINE
  5
1f1
100
AcDbEntity
  8
Ebene_1
 62
7
100
AcDbSpline
 70
8
 71
3
 72
8
 73
4
 74
0
 40
0
 40
0
 40
0
 40
0
 40
1
 40
1
 40
1
 40
1
 10
205.464173
 20
219.941240
 30
0.0
 10
205.464173
 20
219.403845
 30
0.0
 10
205.250694
 20
218.888461
 30
0.0
 10
204.870699
 20
218.508465
 30
0.0
  0
SPLINE
  5
1f2
100
AcDbEntity
  8
Ebene_1
 62
7
100
AcDbSpline
 70
8
 71
3
 72
8
 73
4
 74
0
 40
0
 40
0
 40
0
 40
0
 40
1
 40
1
 40
1
 40
1
 10
204.870699
 20
218.508465
 30
0.0
 10
204.490703
 20
218.128470
 30
0.0
 10
203.975318
 20
217.914990
 30
0.0
 10
203.437924
 20
217.914990
 30
0.0
  0
SPLINE
  5
1f3
100
AcDbEntity
  8
Ebene_1
 62
7
100
AcDbSpline
 70
8
 71
3
 72
8
 73
4
 74
0
 40
0
 40
0
 40
0
 40
0
 40
1
 40
1
 40
1
 40
1
 10
203.437924
 20
217.914990
 30
0.0
 10
202.318857
 20
217.914991
 30
0.0
 10
201.411675
 20
218.822174
 30
0.0
 10
201.411675
 20
219.941240
 30
0.0
  0
SPLINE
  5
1f4
100
AcDbEntity
  8
Ebene_1
 62
7
100
AcDbSpline
 70
8
 71
3
 72
8
 73
4
 74
0
 40
0
 40
0
 40
0
 40
0
 40
1
 40
1
 40
1
 40
1
 10
201.411675
 20
219.941240
 30
0.0
 10
201.411675
 20
221.060306
 30
0.0
 10
202.318857
 20
221.967489
 30
0.0
 10
203.437924
 20
221.967490
 30
0.0
  0
SPLINE
  5
1f5
100
AcDbEntity
  8
Ebene_1
 62
7
100
AcDbSpline
 70
8
 71
3
 72
8
 73
4
 74
0
 40
0
 40
0
 40
0
 40
0
 40
1
 40
1
 40
1
 40
1
 10
203.437924
 20
221.967490
 30
0.0
 10
203.975318
 20
221.967490
 30
0.0
 10
204.490703
 20
221.754010
 30
0.0
 10
204.870699
 20
221.374015
 30
0.0
  0
SPLINE
  5
1f6
100
AcDbEntity
  8
Ebene_1
 62
7
100
AcDbSpline
 70
8
 71
3
 72
8
 73
4
 74
0
 40
0
 40
0
 40
0
 40
0
 40
1
 40
1
 40
1
 40
1
 10
204.870699
 20
221.374015
 30
0.0
 10
205.250694
 20
220.994019
 30
0.0
 10
205.464173
 20
220.478635
 30
0.0
 10
205.464173
 20
219.941240
 30
0.0
  0
LWPOLYLINE
  5
1f7
100
AcDbEntity
  8
Ebene_1
 62
7
100
AcDbPolyline
 90
1
 70
1
 10
331.091609
 20
219.941240
 30
0.0
  0
LWPOLYLINE
  5
1f8
100
AcDbEntity
  8
Ebene_1
 62
7
100
AcDbPolyline
 90
1
 70
1
 10
205.464173
 20
219.941240
 30
0.0
  0
SPLINE
  5
1f9
100
AcDbEntity
  8
Ebene_1
 62
7
100
AcDbSpline
 70
8
 71
3
 72
8
 73
4
 74
0
 40
0
 40
0
 40
0
 40
0
 40
1
 40
1
 40
1
 40
1
 10
307.688701
 20
55.825652
 30
0.0
 10
307.688701
 20
54.929154
 30
0.0
 10
307.992367
 20
54.121892
 30
0.0
 10
308.571681
 20
53.479250
 30
0.0
  0
LWPOLYLINE
  5
1fa
100
AcDbEntity
  8
Ebene_1
 62
7
100
AcDbPolyline
 90
2
 70
0
 10
307.688701
 20
62.064256
 30
0.0
 10
307.688701
 20
55.825652
 30
0.0
  0
SPLINE
  5
1fb
100
AcDbEntity
  8
Ebene_1
 62
7
100
AcDbSpline
 70
8
 71
3
 72
8
 73
4
 74
0
 40
0
 40
0
 40
0
 40
0
 40
1
 40
1
 40
1
 40
1
 10
308.574411
 20
53.476376
 30
0.0
 10
309.157144
 20
52.846952
 30
0.0
 10
309.906807
 20
52.518274
 30
0.0
 10
310.749458
 20
52.518274
 30
0.0
  0
LWPOLYLINE
  5
1fc
100
AcDbEntity
  8
Ebene_1
 62
7
100
AcDbPolyline
 90
3
 70
0
 10
308.571681
 20
53.479250
 30
0.0
 10
308.573046
 20
53.477813
 30
0.0
 10
308.574411
 20
53.476376
 30
0.0
  0
SPLINE
  5
1fd
100
AcDbEntity
  8
Ebene_1
 62
7
100
AcDbSpline
 70
8
 71
3
 72
8
 73
4
 74
0
 40
0
 40
0
 40
0
 40
0
 40
1
 40
1
 40
1
 40
1
 10
313.118923
 20
61.690971
 30
0.0
 10
313.118923
 20
60.794467
 30
0.0
 10
313.422590
 20
59.988670
 30
0.0
 10
314.001902
 20
59.346027
 30
0.0
  0
LWPOLYLINE
  5
1fe
100
AcDbEntity
  8
Ebene_1
 62
7
100
AcDbPolyline
 90
5
 70
0
 10
310.749458
 20
52.518274
 30
0.0
 10
324.671917
 20
52.518274
 30
0.0
 10
324.671917
 20
62.064292
 30
0.0
 10
313.118923
 20
62.064292
 30
0.0
 10
313.118923
 20
61.690971
 30
0.0
  0
SPLINE
  5
1ff
100
AcDbEntity
  8
Ebene_1
 62
7
100
AcDbSpline
 70
8
 71
3
 72
8
 73
4
 74
0
 40
0
 40
0
 40
0
 40
0
 40
1
 40
1
 40
1
 40
1
 10
314.005997
 20
59.341717
 30
0.0
 10
314.588729
 20
58.712300
 30
0.0
 10
315.338392
 20
58.385073
 30
0.0
 10
316.181044
 20
58.385073
 30
0.0
  0
LWPOLYLINE
  5
200
100
AcDbEntity
  8
Ebene_1
 62
7
100
AcDbPolyline
 90
3
 70
0
 10
314.001902
 20
59.346027
 30
0.0
 10
314.004632
 20
59.343154
 30
0.0
 10
314.005997
 20
59.341717
 30
0.0
  0
SPLINE
  5
201
100
AcDbEntity
  8
Ebene_1
 62
7
100
AcDbSpline
 70
8
 71
3
 72
8
 73
4
 74
0
 40
0
 40
0
 40
0
 40
0
 40
1
 40
1
 40
1
 40
1
 10
312.107726
 20
56.199080
 30
0.0
 10
311.807119
 20
56.199080
 30
0.0
 10
311.586759
 20
56.296125
 30
0.0
 10
311.380010
 20
56.503856
 30
0.0
  0
SPLINE
  5
202
100
AcDbEntity
  8
Ebene_1
 62
7
100
AcDbSpline
 70
8
 71
3
 72
8
 73
4
 74
0
 40
0
 40
0
 40
0
 40
0
 40
1
 40
1
 40
1
 40
1
 10
311.380010
 20
56.503856
 30
0.0
 10
311.186126
 20
56.727911
 30
0.0
 10
311.095134
 20
56.965399
 30
0.0
 10
311.095134
 20
57.291340
 30
0.0
  0
LWPOLYLINE
  5
203
100
AcDbEntity
  8
Ebene_1
 62
7
100
AcDbPolyline
 90
4
 70
0
 10
316.181044
 20
58.385073
 30
0.0
 10
321.265604
 20
58.385073
 30
0.0
 10
321.265604
 20
56.199080
 30
0.0
 10
312.107726
 20
56.199080
 30
0.0
  0
LWPOLYLINE
  5
204
100
AcDbEntity
  8
Ebene_1
 62
7
100
AcDbPolyline
 90
3
 70
0
 10
311.095134
 20
57.291340
 30
0.0
 10
311.095134
 20
62.064357
 30
0.0
 10
307.688701
 20
62.064256
 30
0.0
  0
SPLINE
  5
205
100
AcDbEntity
  8
Ebene_1
 62
7
100
AcDbSpline
 70
8
 71
3
 72
8
 73
4
 74
0
 40
0
 40
0
 40
0
 40
0
 40
1
 40
1
 40
1
 40
1
 10
220.794841
 20
63.157974
 30
0.0
 10
220.794841
 20
62.835345
 30
0.0
 10
220.702825
 20
62.599689
 30
0.0
 10
220.495122
 20
62.373407
 30
0.0
  0
SPLINE
  5
206
100
AcDbEntity
  8
Ebene_1
 62
7
100
AcDbSpline
 70
8
 71
3
 72
8
 73
4
 74
0
 40
0
 40
0
 40
0
 40
0
 40
1
 40
1
 40
1
 40
1
 10
220.495122
 20
62.373407
 30
0.0
 10
220.284969
 20
62.160201
 30
0.0
 10
220.069507
 20
62.064256
 30
0.0
 10
219.783604
 20
62.064256
 30
0.0
  0
LWPOLYLINE
  5
207
100
AcDbEntity
  8
Ebene_1
 62
7
100
AcDbPolyline
 90
4
 70
0
 10
207.218015
 20
67.930983
 30
0.0
 10
207.218015
 20
64.250234
 30
0.0
 10
220.794841
 20
64.250234
 30
0.0
 10
220.794841
 20
63.157974
 30
0.0
  0
SPLINE
  5
208
100
AcDbEntity
  8
Ebene_1
 62
7
100
AcDbSpline
 70
8
 71
3
 72
8
 73
4
 74
0
 40
0
 40
0
 40
0
 40
0
 40
1
 40
1
 40
1
 40
1
 10
221.140473
 20
58.384973
 30
0.0
 10
221.957880
 20
58.384973
 30
0.0
 10
222.697337
 20
58.714118
 30
0.0
 10
223.291220
 20
59.338692
 30
0.0
  0
SPLINE
  5
209
100
AcDbEntity
  8
Ebene_1
 62
7
100
AcDbSpline
 70
8
 71
3
 72
8
 73
4
 74
0
 40
0
 40
0
 40
0
 40
0
 40
1
 40
1
 40
1
 40
1
 10
223.291220
 20
59.338692
 30
0.0
 10
223.888854
 20
59.967232
 30
0.0
 10
224.202553
 20
60.778453
 30
0.0
 10
224.202553
 20
61.690928
 30
0.0
  0
LWPOLYLINE
  5
20a
100
AcDbEntity
  8
Ebene_1
 62
7
100
AcDbPolyline
 90
7
 70
0
 10
219.783604
 20
62.064256
 30
0.0
 10
207.218015
 20
62.064256
 30
0.0
 10
207.218015
 20
52.518231
 30
0.0
 10
207.563648
 20
52.518231
 30
0.0
 10
210.624377
 20
52.518231
 30
0.0
 10
210.624377
 20
58.384973
 30
0.0
 10
221.140473
 20
58.384973
 30
0.0
  0
LWPOLYLINE
  5
20b
100
AcDbEntity
  8
Ebene_1
 62
7
100
AcDbPolyline
 90
3
 70
0
 10
224.202553
 20
61.690928
 30
0.0
 10
224.202553
 20
67.930983
 30
0.0
 10
207.218015
 20
67.930983
 30
0.0
  0
LWPOLYLINE
  5
20c
100
AcDbEntity
  8
Ebene_1
 62
7
100
AcDbPolyline
 90
9
 70
1
 10
226.226384
 20
62.064256
 30
0.0
 10
226.226384
 20
52.518231
 30
0.0
 10
226.572017
 20
52.518231
 30
0.0
 10
229.632746
 20
52.518231
 30
0.0
 10
229.632746
 20
58.384973
 30
0.0
 10
239.803216
 20
58.384973
 30
0.0
 10
239.803216
 20
52.518231
 30
0.0
 10
243.209571
 20
52.518231
 30
0.0
 10
243.209571
 20
62.064256
 30
0.0
  0
SPLINE
  5
20d
100
AcDbEntity
  8
Ebene_1
 62
7
100
AcDbSpline
 70
8
 71
3
 72
8
 73
4
 74
0
 40
0
 40
0
 40
0
 40
0
 40
1
 40
1
 40
1
 40
1
 10
226.226384
 20
67.557663
 30
0.0
 10
226.226384
 20
66.661158
 30
0.0
 10
226.530046
 20
65.853903
 30
0.0
 10
227.109368
 20
65.211253
 30
0.0
  0
LWPOLYLINE
  5
20e
100
AcDbEntity
  8
Ebene_1
 62
7
100
AcDbPolyline
 90
2
 70
0
 10
226.226384
 20
67.930983
 30
0.0
 10
226.226384
 20
67.557663
 30
0.0
  0
SPLINE
  5
20f
100
AcDbEntity
  8
Ebene_1
 62
7
100
AcDbSpline
 70
8
 71
3
 72
8
 73
4
 74
0
 40
0
 40
0
 40
0
 40
0
 40
1
 40
1
 40
1
 40
1
 10
227.112241
 20
65.208380
 30
0.0
 10
227.694975
 20
64.578963
 30
0.0
 10
228.444641
 20
64.250270
 30
0.0
 10
229.287293
 20
64.250270
 30
0.0
  0
LWPOLYLINE
  5
210
100
AcDbEntity
  8
Ebene_1
 62
7
100
AcDbPolyline
 90
3
 70
0
 10
227.109368
 20
65.211253
 30
0.0
 10
227.110804
 20
65.209816
 30
0.0
 10
227.112241
 20
65.208380
 30
0.0
  0
SPLINE
  5
211
100
AcDbEntity
  8
Ebene_1
 62
7
100
AcDbSpline
 70
8
 71
3
 72
8
 73
4
 74
0
 40
0
 40
0
 40
0
 40
0
 40
1
 40
1
 40
1
 40
1
 10
240.149021
 20
64.250270
 30
0.0
 10
240.966428
 20
64.250270
 30
0.0
 10
241.705885
 20
64.579415
 30
0.0
 10
242.299769
 20
65.204004
 30
0.0
  0
SPLINE
  5
212
100
AcDbEntity
  8
Ebene_1
 62
7
100
AcDbSpline
 70
8
 71
3
 72
8
 73
4
 74
0
 40
0
 40
0
 40
0
 40
0
 40
1
 40
1
 40
1
 40
1
 10
242.299769
 20
65.204004
 30
0.0
 10
242.897409
 20
65.832537
 30
0.0
 10
243.209743
 20
66.645224
 30
0.0
 10
243.209743
 20
67.557691
 30
0.0
  0
LWPOLYLINE
  5
213
100
AcDbEntity
  8
Ebene_1
 62
7
100
AcDbPolyline
 90
2
 70
0
 10
229.287293
 20
64.250270
 30
0.0
 10
240.149021
 20
64.250270
 30
0.0
  0
LWPOLYLINE
  5
214
100
AcDbEntity
  8
Ebene_1
 62
7
100
AcDbPolyline
 90
3
 70
0
 10
243.209743
 20
67.557691
 30
0.0
 10
243.209743
 20
67.931019
 30
0.0
 10
226.226384
 20
67.930983
 30
0.0
  0
SPLINE
  5
215
100
AcDbEntity
  8
Ebene_1
 62
7
100
AcDbSpline
 70
8
 71
3
 72
8
 73
4
 74
0
 40
0
 40
0
 40
0
 40
0
 40
1
 40
1
 40
1
 40
1
 10
245.233409
 20
67.557663
 30
0.0
 10
245.233409
 20
66.661158
 30
0.0
 10
245.537071
 20
65.853903
 30
0.0
 10
246.116385
 20
65.211253
 30
0.0
  0
LWPOLYLINE
  5
216
100
AcDbEntity
  8
Ebene_1
 62
7
100
AcDbPolyline
 90
2
 70
0
 10
245.233409
 20
67.930983
 30
0.0
 10
245.233409
 20
67.557663
 30
0.0
  0
SPLINE
  5
217
100
AcDbEntity
  8
Ebene_1
 62
7
100
AcDbSpline
 70
8
 71
3
 72
8
 73
4
 74
0
 40
0
 40
0
 40
0
 40
0
 40
1
 40
1
 40
1
 40
1
 10
246.120696
 20
65.208380
 30
0.0
 10
246.703422
 20
64.578963
 30
0.0
 10
247.453089
 20
64.250278
 30
0.0
 10
248.295740
 20
64.250270
 30
0.0
  0
LWPOLYLINE
  5
218
100
AcDbEntity
  8
Ebene_1
 62
7
100
AcDbPolyline
 90
3
 70
0
 10
246.116385
 20
65.211253
 30
0.0
 10
246.119259
 20
65.209816
 30
0.0
 10
246.120696
 20
65.208380
 30
0.0
  0
SPLINE
  5
219
100
AcDbEntity
  8
Ebene_1
 62
7
100
AcDbSpline
 70
8
 71
3
 72
8
 73
4
 74
0
 40
0
 40
0
 40
0
 40
0
 40
1
 40
1
 40
1
 40
1
 10
258.811850
 20
63.158003
 30
0.0
 10
258.811850
 20
62.835381
 30
0.0
 10
258.718477
 20
62.599725
 30
0.0
 10
258.510767
 20
62.373443
 30
0.0
  0
SPLINE
  5
21a
100
AcDbEntity
  8
Ebene_1
 62
7
100
AcDbSpline
 70
8
 71
3
 72
8
 73
4
 74
0
 40
0
 40
0
 40
0
 40
0
 40
1
 40
1
 40
1
 40
1
 10
258.510767
 20
62.373443
 30
0.0
 10
258.300614
 20
62.160237
 30
0.0
 10
258.085159
 20
62.064285
 30
0.0
 10
257.799249
 20
62.064285
 30
0.0
  0
LWPOLYLINE
  5
21b
100
AcDbEntity
  8
Ebene_1
 62
7
100
AcDbPolyline
 90
3
 70
0
 10
248.295740
 20
64.250270
 30
0.0
 10
258.811850
 20
64.250270
 30
0.0
 10
258.811850
 20
63.158003
 30
0.0
  0
SPLINE
  5
21c
100
AcDbEntity
  8
Ebene_1
 62
7
100
AcDbSpline
 70
8
 71
3
 72
8
 73
4
 74
0
 40
0
 40
0
 40
0
 40
0
 40
1
 40
1
 40
1
 40
1
 10
259.112862
 20
58.387875
 30
0.0
 10
259.976793
 20
58.266921
 30
0.0
 10
260.726725
 20
58.728615
 30
0.0
 10
261.306815
 20
59.338685
 30
0.0
  0
SPLINE
  5
21d
100
AcDbEntity
  8
Ebene_1
 62
7
100
AcDbSpline
 70
8
 71
3
 72
8
 73
4
 74
0
 40
0
 40
0
 40
0
 40
0
 40
1
 40
1
 40
1
 40
1
 10
261.306815
 20
59.338685
 30
0.0
 10
261.904456
 20
59.967225
 30
0.0
 10
262.218148
 20
60.778446
 30
0.0
 10
262.218148
 20
61.690921
 30
0.0
  0
LWPOLYLINE
  5
21e
100
AcDbEntity
  8
Ebene_1
 62
7
100
AcDbPolyline
 90
12
 70
0
 10
257.799249
 20
62.064285
 30
0.0
 10
245.233668
 20
62.064285
 30
0.0
 10
245.233668
 20
52.518267
 30
0.0
 10
245.579300
 20
52.518267
 30
0.0
 10
248.641373
 20
52.518267
 30
0.0
 10
248.641373
 20
58.385001
 30
0.0
 10
252.224596
 20
58.385001
 30
0.0
 10
257.656139
 20
52.518267
 30
0.0
 10
262.706948
 20
52.518267
 30
0.0
 10
257.275404
 20
58.385001
 30
0.0
 10
259.157476
 20
58.385001
 30
0.0
 10
259.112862
 20
58.387875
 30
0.0
  0
LWPOLYLINE
  5
21f
100
AcDbEntity
  8
Ebene_1
 62
7
100
AcDbPolyline
 90
3
 70
0
 10
262.218148
 20
61.690921
 30
0.0
 10
262.218148
 20
67.930976
 30
0.0
 10
245.233409
 20
67.930983
 30
0.0
  0
LWPOLYLINE
  5
220
100
AcDbEntity
  8
Ebene_1
 62
7
100
AcDbPolyline
 90
9
 70
1
 10
276.664249
 20
67.930983
 30
0.0
 10
269.530197
 20
60.225340
 30
0.0
 10
276.664249
 20
52.518231
 30
0.0
 10
276.807359
 20
52.518231
 30
0.0
 10
281.715058
 20
52.518231
 30
0.0
 10
274.578311
 20
60.226798
 30
0.0
 10
275.573347
 20
61.317607
 30
0.0
 10
275.592241
 20
61.317607
 30
0.0
 10
281.715043
 20
67.930983
 30
0.0
  0
LWPOLYLINE
  5
221
100
AcDbEntity
  8
Ebene_1
 62
7
100
AcDbPolyline
 90
5
 70
1
 10
264.241770
 20
67.930983
 30
0.0
 10
264.241770
 20
52.518231
 30
0.0
 10
264.587403
 20
52.518231
 30
0.0
 10
267.648132
 20
52.518231
 30
0.0
 10
267.648132
 20
67.930983
 30
0.0
  0
LWPOLYLINE
  5
222
100
AcDbEntity
  8
Ebene_1
 62
7
100
AcDbPolyline
 90
5
 70
1
 10
283.250139
 20
67.930983
 30
0.0
 10
283.250139
 20
52.518231
 30
0.0
 10
283.595771
 20
52.518231
 30
0.0
 10
286.656493
 20
52.518231
 30
0.0
 10
286.656493
 20
67.930983
 30
0.0
  0
LWPOLYLINE
  5
223
100
AcDbEntity
  8
Ebene_1
 62
7
100
AcDbPolyline
 90
12
 70
1
 10
288.191590
 20
67.930983
 30
0.0
 10
291.395428
 20
64.468987
 30
0.0
 10
291.395428
 20
52.518231
 30
0.0
 10
291.741060
 20
52.518231
 30
0.0
 10
294.803136
 20
52.518231
 30
0.0
 10
294.803136
 20
60.789703
 30
0.0
 10
302.459679
 20
52.518231
 30
0.0
 10
305.664868
 20
52.518231
 30
0.0
 10
305.664868
 20
67.930983
 30
0.0
 10
302.257160
 20
67.930983
 30
0.0
 10
302.257160
 20
58.192471
 30
0.0
 10
293.242395
 20
67.930983
 30
0.0
  0
SPLINE
  5
224
100
AcDbEntity
  8
Ebene_1
 62
7
100
AcDbSpline
 70
8
 71
3
 72
8
 73
4
 74
0
 40
0
 40
0
 40
0
 40
0
 40
1
 40
1
 40
1
 40
1
 10
321.611161
 20
64.250234
 30
0.0
 10
322.428563
 20
64.250234
 30
0.0
 10
323.168021
 20
64.579394
 30
0.0
 10
323.761905
 20
65.203968
 30
0.0
  0
SPLINE
  5
225
100
AcDbEntity
  8
Ebene_1
 62
7
100
AcDbSpline
 70
8
 71
3
 72
8
 73
4
 74
0
 40
0
 40
0
 40
0
 40
0
 40
1
 40
1
 40
1
 40
1
 10
323.761905
 20
65.203968
 30
0.0
 10
324.359545
 20
65.832509
 30
0.0
 10
324.671888
 20
66.645188
 30
0.0
 10
324.671888
 20
67.557663
 30
0.0
  0
LWPOLYLINE
  5
226
100
AcDbEntity
  8
Ebene_1
 62
7
100
AcDbPolyline
 90
4
 70
0
 10
307.688701
 20
67.930983
 30
0.0
 10
307.688701
 20
64.250234
 30
0.0
 10
308.034333
 20
64.250234
 30
0.0
 10
321.611161
 20
64.250234
 30
0.0
  0
LWPOLYLINE
  5
227
100
AcDbEntity
  8
Ebene_1
 62
7
100
AcDbPolyline
 90
3
 70
0
 10
324.671888
 20
67.557663
 30
0.0
 10
324.671888
 20
67.930983
 30
0.0
 10
307.688701
 20
67.930983
 30
0.0
  0
LWPOLYLINE
  5
228
100
AcDbEntity
  8
Ebene_1
 62
7
100
AcDbPolyline
 90
9
 70
1
 10
228.941480
 20
40.853313
 30
0.0
 10
228.941480
 20
31.307288
 30
0.0
 10
229.287113
 20
31.307288
 30
0.0
 10
245.924667
 20
31.307288
 30
0.0
 10
245.924667
 20
40.853313
 30
0.0
 10
242.518305
 20
40.853313
 30
0.0
 10
242.518305
 20
34.988037
 30
0.0
 10
232.347835
 20
34.988037
 30
0.0
 10
232.347835
 20
40.853313
 30
0.0
  0
SPLINE
  5
229
100
AcDbEntity
  8
Ebene_1
 62
7
100
AcDbSpline
 70
8
 71
3
 72
8
 73
4
 74
0
 40
0
 40
0
 40
0
 40
0
 40
1
 40
1
 40
1
 40
1
 10
228.941480
 20
46.345262
 30
0.0
 10
228.941480
 20
45.448757
 30
0.0
 10
229.245150
 20
44.642953
 30
0.0
 10
229.824457
 20
44.000318
 30
0.0
  0
LWPOLYLINE
  5
22a
100
AcDbEntity
  8
Ebene_1
 62
7
100
AcDbPolyline
 90
2
 70
0
 10
228.941480
 20
46.718582
 30
0.0
 10
228.941480
 20
46.345262
 30
0.0
  0
SPLINE
  5
22b
100
AcDbEntity
  8
Ebene_1
 62
7
100
AcDbSpline
 70
8
 71
3
 72
8
 73
4
 74
0
 40
0
 40
0
 40
0
 40
0
 40
1
 40
1
 40
1
 40
1
 10
229.827330
 20
43.997444
 30
0.0
 10
230.410064
 20
43.368027
 30
0.0
 10
231.159730
 20
43.039342
 30
0.0
 10
232.002375
 20
43.039342
 30
0.0
  0
LWPOLYLINE
  5
22c
100
AcDbEntity
  8
Ebene_1
 62
7
100
AcDbPolyline
 90
3
 70
0
 10
229.824457
 20
44.000318
 30
0.0
 10
229.825894
 20
43.998881
 30
0.0
 10
229.827330
 20
43.997444
 30
0.0
  0
SPLINE
  5
22d
100
AcDbEntity
  8
Ebene_1
 62
7
100
AcDbSpline
 70
8
 71
3
 72
8
 73
4
 74
0
 40
0
 40
0
 40
0
 40
0
 40
1
 40
1
 40
1
 40
1
 10
242.864111
 20
43.039342
 30
0.0
 10
243.681510
 20
43.039342
 30
0.0
 10
244.420967
 20
43.368480
 30
0.0
 10
245.014851
 20
43.993076
 30
0.0
  0
SPLINE
  5
22e
100
AcDbEntity
  8
Ebene_1
 62
7
100
AcDbSpline
 70
8
 71
3
 72
8
 73
4
 74
0
 40
0
 40
0
 40
0
 40
0
 40
1
 40
1
 40
1
 40
1
 10
245.014851
 20
43.993076
 30
0.0
 10
245.612491
 20
44.621602
 30
0.0
 10
245.924840
 20
45.432837
 30
0.0
 10
245.924840
 20
46.345312
 30
0.0
  0
LWPOLYLINE
  5
22f
100
AcDbEntity
  8
Ebene_1
 62
7
100
AcDbPolyline
 90
2
 70
0
 10
232.002375
 20
43.039342
 30
0.0
 10
242.864111
 20
43.039342
 30
0.0
  0
LWPOLYLINE
  5
230
100
AcDbEntity
  8
Ebene_1
 62
7
100
AcDbPolyline
 90
3
 70
0
 10
245.924840
 20
46.345312
 30
0.0
 10
245.924840
 20
46.718633
 30
0.0
 10
228.941480
 20
46.718582
 30
0.0
  0
LWPOLYLINE
  5
231
100
AcDbEntity
  8
Ebene_1
 62
7
100
AcDbPolyline
 90
12
 70
1
 10
247.461106
 20
46.718582
 30
0.0
 10
250.664945
 20
43.258044
 30
0.0
 10
250.664945
 20
31.307288
 30
0.0
 10
251.010578
 20
31.307288
 30
0.0
 10
254.071300
 20
31.307288
 30
0.0
 10
254.071300
 20
39.578761
 30
0.0
 10
261.729197
 20
31.307288
 30
0.0
 10
264.933036
 20
31.307288
 30
0.0
 10
264.933036
 20
46.718582
 30
0.0
 10
261.526681
 20
46.718582
 30
0.0
 10
261.526681
 20
36.981529
 30
0.0
 10
252.511907
 20
46.718582
 30
0.0
  0
SPLINE
  5
232
100
AcDbEntity
  8
Ebene_1
 62
7
100
AcDbSpline
 70
8
 71
3
 72
8
 73
4
 74
0
 40
0
 40
0
 40
0
 40
0
 40
1
 40
1
 40
1
 40
1
 10
280.880682
 20
31.307288
 30
0.0
 10
281.698074
 20
31.307288
 30
0.0
 10
282.436188
 20
31.636433
 30
0.0
 10
283.030072
 20
32.261022
 30
0.0
  0
SPLINE
  5
233
100
AcDbEntity
  8
Ebene_1
 62
7
100
AcDbSpline
 70
8
 71
3
 72
8
 73
4
 74
0
 40
0
 40
0
 40
0
 40
0
 40
1
 40
1
 40
1
 40
1
 10
283.030072
 20
32.261022
 30
0.0
 10
283.627705
 20
32.889555
 30
0.0
 10
283.941404
 20
33.702241
 30
0.0
 10
283.941404
 20
34.614709
 30
0.0
  0
LWPOLYLINE
  5
234
100
AcDbEntity
  8
Ebene_1
 62
7
100
AcDbPolyline
 90
4
 70
0
 10
266.956867
 20
46.718582
 30
0.0
 10
266.956867
 20
31.307288
 30
0.0
 10
267.302499
 20
31.307288
 30
0.0
 10
280.880682
 20
31.307288
 30
0.0
  0
LWPOLYLINE
  5
235
100
AcDbEntity
  8
Ebene_1
 62
7
100
AcDbPolyline
 90
5
 70
0
 10
283.941404
 20
34.614709
 30
0.0
 10
283.941404
 20
34.988037
 30
0.0
 10
270.364579
 20
34.988037
 30
0.0
 10
270.364579
 20
46.718582
 30
0.0
 10
266.956867
 20
46.718582
 30
0.0
  0
SPLINE
  5
236
100
AcDbEntity
  8
Ebene_1
 62
7
100
AcDbSpline
 70
8
 71
3
 72
8
 73
4
 74
0
 40
0
 40
0
 40
0
 40
0
 40
1
 40
1
 40
1
 40
1
 10
265.873300
 20
111.273680
 30
0.0
 10
265.696330
 20
112.206980
 30
0.0
 10
250.469040
 20
197.220087
 30
0.0
 10
250.469040
 20
197.274767
 30
0.0
  0
SPLINE
  5
237
100
AcDbEntity
  8
Ebene_1
 62
7
100
AcDbSpline
 70
8
 71
3
 72
8
 73
4
 74
0
 40
0
 40
0
 40
0
 40
0
 40
1
 40
1
 40
1
 40
1
 10
250.469040
 20
197.274767
 30
0.0
 10
250.469040
 20
197.352467
 30
0.0
 10
245.971550
 20
197.238767
 30
0.0
 10
243.710890
 20
197.103877
 30
0.0
  0
SPLINE
  5
238
100
AcDbEntity
  8
Ebene_1
 62
7
100
AcDbSpline
 70
8
 71
3
 72
8
 73
4
 74
0
 40
0
 40
0
 40
0
 40
0
 40
1
 40
1
 40
1
 40
1
 10
243.710890
 20
197.103877
 30
0.0
 10
236.983300
 20
196.702677
 30
0.0
 10
233.523110
 20
195.524557
 30
0.0
 10
231.850710
 20
193.065747
 30
0.0
  0
SPLINE
  5
239
100
AcDbEntity
  8
Ebene_1
 62
7
100
AcDbSpline
 70
8
 71
3
 72
8
 73
4
 74
0
 40
0
 40
0
 40
0
 40
0
 40
1
 40
1
 40
1
 40
1
 10
231.850710
 20
193.065747
 30
0.0
 10
231.234100
 20
192.159207
 30
0.0
 10
230.976690
 20
191.512817
 30
0.0
 10
230.707570
 20
190.195577
 30
0.0
  0
SPLINE
  5
23a
100
AcDbEntity
  8
Ebene_1
 62
7
100
AcDbSpline
 70
8
 71
3
 72
8
 73
4
 74
0
 40
0
 40
0
 40
0
 40
0
 40
1
 40
1
 40
1
 40
1
 10
230.707570
 20
190.195577
 30
0.0
 10
230.598240
 20
189.660357
 30
0.0
 10
230.488840
 20
189.202527
 30
0.0
 10
230.464470
 20
189.178157
 30
0.0
  0
SPLINE
  5
23b
100
AcDbEntity
  8
Ebene_1
 62
7
100
AcDbSpline
 70
8
 71
3
 72
8
 73
4
 74
0
 40
0
 40
0
 40
0
 40
0
 40
1
 40
1
 40
1
 40
1
 10
230.464470
 20
189.178157
 30
0.0
 10
230.382570
 20
189.096257
 30
0.0
 10
227.586730
 20
190.424707
 30
0.0
 10
226.185920
 20
191.211147
 30
0.0
  0
SPLINE
  5
23c
100
AcDbEntity
  8
Ebene_1
 62
7
100
AcDbSpline
 70
8
 71
3
 72
8
 73
4
 74
0
 40
0
 40
0
 40
0
 40
0
 40
1
 40
1
 40
1
 40
1
 10
226.185920
 20
191.211147
 30
0.0
 10
221.996080
 20
193.563387
 30
0.0
 10
218.706720
 20
196.286897
 30
0.0
 10
216.469040
 20
199.256517
 30
0.0
  0
SPLINE
  5
23d
100
AcDbEntity
  8
Ebene_1
 62
7
100
AcDbSpline
 70
8
 71
3
 72
8
 73
4
 74
0
 40
0
 40
0
 40
0
 40
0
 40
1
 40
1
 40
1
 40
1
 10
216.469040
 20
199.256517
 30
0.0
 10
216.140290
 20
199.692787
 30
0.0
 10
215.871330
 20
200.085457
 30
0.0
 10
215.871330
 20
200.129097
 30
0.0
  0
SPLINE
  5
23e
100
AcDbEntity
  8
Ebene_1
 62
7
100
AcDbSpline
 70
8
 71
3
 72
8
 73
4
 74
0
 40
0
 40
0
 40
0
 40
0
 40
1
 40
1
 40
1
 40
1
 10
215.871330
 20
200.129097
 30
0.0
 10
215.871330
 20
200.172797
 30
0.0
 10
216.041550
 20
200.278907
 30
0.0
 10
216.249580
 20
200.364997
 30
0.0
  0
SPLINE
  5
23f
100
AcDbEntity
  8
Ebene_1
 62
7
100
AcDbSpline
 70
8
 71
3
 72
8
 73
4
 74
0
 40
0
 40
0
 40
0
 40
0
 40
1
 40
1
 40
1
 40
1
 10
216.249580
 20
200.364997
 30
0.0
 10
216.457610
 20
200.451097
 30
0.0
 10
217.354090
 20
200.837477
 30
0.0
 10
218.241720
 20
201.223647
 30
0.0
  0
SPLINE
  5
240
100
AcDbEntity
  8
Ebene_1
 62
7
100
AcDbSpline
 70
8
 71
3
 72
8
 73
4
 74
0
 40
0
 40
0
 40
0
 40
0
 40
1
 40
1
 40
1
 40
1
 10
218.241720
 20
201.223647
 30
0.0
 10
228.411810
 20
205.648067
 30
0.0
 10
241.631410
 20
208.740667
 30
0.0
 10
253.495080
 20
209.470807
 30
0.0
  0
LWPOLYLINE
  5
241
100
AcDbEntity
  8
Ebene_1
 62
7
100
AcDbPolyline
 90
14
 70
1
 10
285.965235
 20
46.718582
 30
0.0
 10
285.965235
 20
43.258044
 30
0.0
 10
292.753651
 20
35.925722
 30
0.0
 10
292.753651
 20
31.307288
 30
0.0
 10
293.099283
 20
31.307288
 30
0.0
 10
296.160009
 20
31.307288
 30
0.0
 10
296.160009
 20
35.925722
 30
0.0
 10
302.948423
 20
43.258044
 30
0.0
 10
302.948423
 20
46.718582
 30
0.0
 10
299.542065
 20
46.718582
 30
0.0
 10
299.542065
 20
45.034249
 30
0.0
 10
294.457505
 20
39.540843
 30
0.0
 10
289.371596
 20
45.034249
 30
0.0
 10
289.371596
 20
46.718582
 30
0.0
  0
SPLINE
  5
242
100
AcDbEntity
  8
Ebene_1
 62
7
100
AcDbSpline
 70
8
 71
3
 72
8
 73
4
 74
0
 40
0
 40
0
 40
0
 40
0
 40
1
 40
1
 40
1
 40
1
 10
260.239020
 20
202.608837
 30
0.0
 10
263.365670
 20
198.798897
 30
0.0
 10
265.958440
 20
195.719857
 30
0.0
 10
266.000710
 20
195.766507
 30
0.0
  0
SPLINE
  5
243
100
AcDbEntity
  8
Ebene_1
 62
7
100
AcDbSpline
 70
8
 71
3
 72
8
 73
4
 74
0
 40
0
 40
0
 40
0
 40
0
 40
1
 40
1
 40
1
 40
1
 10
266.000710
 20
195.766507
 30
0.0
 10
266.042910
 20
195.813107
 30
0.0
 10
268.580650
 20
198.901607
 30
0.0
 10
271.639930
 20
202.629737
 30
0.0
  0
SPLINE
  5
244
100
AcDbEntity
  8
Ebene_1
 62
7
100
AcDbSpline
 70
8
 71
3
 72
8
 73
4
 74
0
 40
0
 40
0
 40
0
 40
0
 40
1
 40
1
 40
1
 40
1
 10
271.639930
 20
202.629737
 30
0.0
 10
274.699240
 20
206.357867
 30
0.0
 10
277.249030
 20
209.437037
 30
0.0
 10
277.306120
 20
209.472347
 30
0.0
  0
SPLINE
  5
245
100
AcDbEntity
  8
Ebene_1
 62
7
100
AcDbSpline
 70
8
 71
3
 72
8
 73
4
 74
0
 40
0
 40
0
 40
0
 40
0
 40
1
 40
1
 40
1
 40
1
 10
277.306120
 20
209.472347
 30
0.0
 10
277.425270
 20
209.545947
 30
0.0
 10
279.969580
 20
209.381847
 30
0.0
 10
282.192020
 20
209.157217
 30
0.0
  0
SPLINE
  5
246
100
AcDbEntity
  8
Ebene_1
 62
7
100
AcDbSpline
 70
8
 71
3
 72
8
 73
4
 74
0
 40
0
 40
0
 40
0
 40
0
 40
1
 40
1
 40
1
 40
1
 10
282.192020
 20
209.157217
 30
0.0
 10
291.564380
 20
208.209837
 30
0.0
 10
300.977470
 20
206.041067
 30
0.0
 10
309.527230
 20
202.859207
 30
0.0
  0
SPLINE
  5
247
100
AcDbEntity
  8
Ebene_1
 62
7
100
AcDbSpline
 70
8
 71
3
 72
8
 73
4
 74
0
 40
0
 40
0
 40
0
 40
0
 40
1
 40
1
 40
1
 40
1
 10
309.527230
 20
202.859207
 30
0.0
 10
311.545000
 20
202.108267
 30
0.0
 10
314.790710
 20
200.767967
 30
0.0
 10
315.637210
 20
200.336127
 30
0.0
  0
LWPOLYLINE
  5
248
100
AcDbEntity
  8
Ebene_1
 62
7
100
AcDbPolyline
 90
3
 70
0
 10
253.495080
 20
209.470807
 30
0.0
 10
254.554180
 20
209.536007
 30
0.0
 10
260.239020
 20
202.608837
 30
0.0
  0
SPLINE
  5
249
100
AcDbEntity
  8
Ebene_1
 62
7
100
AcDbSpline
 70
8
 71
3
 72
8
 73
4
 74
0
 40
0
 40
0
 40
0
 40
0
 40
1
 40
1
 40
1
 40
1
 10
315.522560
 20
199.433037
 30
0.0
 10
313.540130
 20
196.707457
 30
0.0
 10
310.432300
 20
194.028987
 30
0.0
 10
306.583570
 20
191.728997
 30
0.0
  0
SPLINE
  5
24a
100
AcDbEntity
  8
Ebene_1
 62
7
100
AcDbSpline
 70
8
 71
3
 72
8
 73
4
 74
0
 40
0
 40
0
 40
0
 40
0
 40
1
 40
1
 40
1
 40
1
 10
306.583570
 20
191.728997
 30
0.0
 10
305.525080
 20
191.096447
 30
0.0
 10
302.021160
 20
189.337787
 30
0.0
 10
301.543400
 20
189.199257
 30
0.0
  0
SPLINE
  5
24b
100
AcDbEntity
  8
Ebene_1
 62
7
100
AcDbSpline
 70
8
 71
3
 72
8
 73
4
 74
0
 40
0
 40
0
 40
0
 40
0
 40
1
 40
1
 40
1
 40
1
 10
301.543400
 20
189.199257
 30
0.0
 10
301.346250
 20
189.142057
 30
0.0
 10
301.319820
 20
189.184957
 30
0.0
 10
301.254230
 20
189.669547
 30
0.0
  0
SPLINE
  5
24c
100
AcDbEntity
  8
Ebene_1
 62
7
100
AcDbSpline
 70
8
 71
3
 72
8
 73
4
 74
0
 40
0
 40
0
 40
0
 40
0
 40
1
 40
1
 40
1
 40
1
 10
301.254230
 20
189.669547
 30
0.0
 10
301.214430
 20
189.962807
 30
0.0
 10
301.071130
 20
190.587337
 30
0.0
 10
300.935570
 20
191.057407
 30
0.0
  0
SPLINE
  5
24d
100
AcDbEntity
  8
Ebene_1
 62
7
100
AcDbSpline
 70
8
 71
3
 72
8
 73
4
 74
0
 40
0
 40
0
 40
0
 40
0
 40
1
 40
1
 40
1
 40
1
 10
300.935570
 20
191.057407
 30
0.0
 10
299.868120
 20
194.759077
 30
0.0
 10
296.714180
 20
196.402777
 30
0.0
 10
289.504940
 20
197.014567
 30
0.0
  0
SPLINE
  5
24e
100
AcDbEntity
  8
Ebene_1
 62
7
100
AcDbSpline
 70
8
 71
3
 72
8
 73
4
 74
0
 40
0
 40
0
 40
0
 40
0
 40
1
 40
1
 40
1
 40
1
 10
289.504940
 20
197.014567
 30
0.0
 10
287.935200
 20
197.147777
 30
0.0
 10
281.406760
 20
197.318727
 30
0.0
 10
281.324740
 20
197.228767
 30
0.0
  0
SPLINE
  5
24f
100
AcDbEntity
  8
Ebene_1
 62
7
100
AcDbSpline
 70
8
 71
3
 72
8
 73
4
 74
0
 40
0
 40
0
 40
0
 40
0
 40
1
 40
1
 40
1
 40
1
 10
281.324740
 20
197.228767
 30
0.0
 10
281.282840
 20
197.182767
 30
0.0
 10
268.679910
 20
126.484620
 30
0.0
 10
266.020140
 20
111.374570
 30
0.0
  0
LWPOLYLINE
  5
250
100
AcDbEntity
  8
Ebene_1
 62
7
100
AcDbPolyline
 90
3
 70
0
 10
315.637210
 20
200.336127
 30
0.0
 10
316.032670
 20
200.134377
 30
0.0
 10
315.522560
 20
199.433037
 30
0.0
  0
SPLINE
  5
251
100
AcDbEntity
  8
Ebene_1
 62
7
100
AcDbSpline
 70
8
 71
3
 72
8
 73
4
 74
0
 40
0
 40
0
 40
0
 40
0
 40
1
 40
1
 40
1
 40
1
 10
316.033220
 20
203.943027
 30
0.0
 10
303.986170
 20
209.023807
 30
0.0
 10
290.299310
 20
212.256877
 30
0.0
 10
276.644280
 20
213.247367
 30
0.0
  0
SPLINE
  5
252
100
AcDbEntity
  8
Ebene_1
 62
7
100
AcDbSpline
 70
8
 71
3
 72
8
 73
4
 74
0
 40
0
 40
0
 40
0
 40
0
 40
1
 40
1
 40
1
 40
1
 10
276.644280
 20
213.247367
 30
0.0
 10
272.257210
 20
213.565587
 30
0.0
 10
263.143100
 20
213.669797
 30
0.0
 10
258.729780
 20
213.452197
 30
0.0
  0
SPLINE
  5
253
100
AcDbEntity
  8
Ebene_1
 62
7
100
AcDbSpline
 70
8
 71
3
 72
8
 73
4
 74
0
 40
0
 40
0
 40
0
 40
0
 40
1
 40
1
 40
1
 40
1
 10
258.729780
 20
213.452197
 30
0.0
 10
243.435610
 20
212.698107
 30
0.0
 10
229.364690
 20
209.581247
 30
0.0
 10
215.841710
 20
203.952037
 30
0.0
  0
SPLINE
  5
254
100
AcDbEntity
  8
Ebene_1
 62
7
100
AcDbSpline
 70
8
 71
3
 72
8
 73
4
 74
0
 40
0
 40
0
 40
0
 40
0
 40
1
 40
1
 40
1
 40
1
 10
215.841710
 20
203.952037
 30
0.0
 10
214.910030
 20
203.564217
 30
0.0
 10
214.089750
 20
203.269167
 30
0.0
 10
214.018850
 20
203.296367
 30
0.0
  0
SPLINE
  5
255
100
AcDbEntity
  8
Ebene_1
 62
7
100
AcDbSpline
 70
8
 71
3
 72
8
 73
4
 74
0
 40
0
 40
0
 40
0
 40
0
 40
1
 40
1
 40
1
 40
1
 10
214.018850
 20
203.296367
 30
0.0
 10
213.947950
 20
203.323567
 30
0.0
 10
213.364660
 20
204.405687
 30
0.0
 10
212.722650
 20
205.701077
 30
0.0
  0
SPLINE
  5
256
100
AcDbEntity
  8
Ebene_1
 62
7
100
AcDbSpline
 70
8
 71
3
 72
8
 73
4
 74
0
 40
0
 40
0
 40
0
 40
0
 40
1
 40
1
 40
1
 40
1
 10
212.722650
 20
205.701077
 30
0.0
 10
211.521470
 20
208.124697
 30
0.0
 10
210.961690
 20
209.383707
 30
0.0
 10
211.047260
 20
209.469277
 30
0.0
  0
SPLINE
  5
257
100
AcDbEntity
  8
Ebene_1
 62
7
100
AcDbSpline
 70
8
 71
3
 72
8
 73
4
 74
0
 40
0
 40
0
 40
0
 40
0
 40
1
 40
1
 40
1
 40
1
 10
211.047260
 20
209.469277
 30
0.0
 10
211.134860
 20
209.556777
 30
0.0
 10
214.661530
 20
210.889147
 30
0.0
 10
216.728700
 20
211.615647
 30
0.0
  0
SPLINE
  5
258
100
AcDbEntity
  8
Ebene_1
 62
7
100
AcDbSpline
 70
8
 71
3
 72
8
 73
4
 74
0
 40
0
 40
0
 40
0
 40
0
 40
1
 40
1
 40
1
 40
1
 10
216.728700
 20
211.615647
 30
0.0
 10
236.107760
 20
218.426327
 30
0.0
 10
256.804070
 20
221.248677
 30
0.0
 10
276.392110
 20
219.751927
 30
0.0
  0
SPLINE
  5
259
100
AcDbEntity
  8
Ebene_1
 62
7
100
AcDbSpline
 70
8
 71
3
 72
8
 73
4
 74
0
 40
0
 40
0
 40
0
 40
0
 40
1
 40
1
 40
1
 40
1
 10
276.392110
 20
219.751927
 30
0.0
 10
291.042780
 20
218.632447
 30
0.0
 10
304.850340
 20
215.542047
 30
0.0
 10
318.905500
 20
210.236597
 30
0.0
  0
SPLINE
  5
25a
100
AcDbEntity
  8
Ebene_1
 62
7
100
AcDbSpline
 70
8
 71
3
 72
8
 73
4
 74
0
 40
0
 40
0
 40
0
 40
0
 40
1
 40
1
 40
1
 40
1
 10
318.905500
 20
210.236597
 30
0.0
 10
319.951950
 20
209.841597
 30
0.0
 10
320.826110
 20
209.500427
 30
0.0
 10
320.848100
 20
209.478447
 30
0.0
  0
SPLINE
  5
25b
100
AcDbEntity
  8
Ebene_1
 62
7
100
AcDbSpline
 70
8
 71
3
 72
8
 73
4
 74
0
 40
0
 40
0
 40
0
 40
0
 40
1
 40
1
 40
1
 40
1
 10
320.848100
 20
209.478447
 30
0.0
 10
320.962980
 20
209.363557
 30
0.0
 10
318.152620
 20
203.496777
 30
0.0
 10
317.867860
 20
203.257057
 30
0.0
  0
SPLINE
  5
25c
100
AcDbEntity
  8
Ebene_1
 62
7
100
AcDbSpline
 70
8
 71
3
 72
8
 73
4
 74
0
 40
0
 40
0
 40
0
 40
0
 40
1
 40
1
 40
1
 40
1
 10
317.867860
 20
203.257057
 30
0.0
 10
317.829660
 20
203.224857
 30
0.0
 10
317.004060
 20
203.533577
 30
0.0
 10
316.033220
 20
203.943027
 30
0.0
  0
LWPOLYLINE
  5
25d
100
AcDbEntity
  8
Ebene_1
 62
7
100
AcDbPolyline
 90
3
 70
0
 10
266.020140
 20
111.374570
 30
0.0
 10
265.940240
 20
110.920640
 30
0.0
 10
265.873300
 20
111.273680
 30
0.0
  0
LWPOLYLINE
  5
25e
100
AcDbEntity
  8
Ebene_1
 62
7
100
AcDbPolyline
 90
1
 70
1
 10
316.033220
 20
203.943027
 30
0.0
  0
LWPOLYLINE
  5
25f
100
AcDbEntity
  8
Ebene_1
 62
7
100
AcDbPolyline
 90
9
 70
1
 10
309.474401
 20
92.056140
 30
0.0
 10
309.474401
 20
80.727964
 30
0.0
 10
309.883199
 20
80.727964
 30
0.0
 10
313.795518
 20
80.727964
 30
0.0
 10
313.795518
 20
87.735017
 30
0.0
 10
326.992033
 20
87.735017
 30
0.0
 10
326.992033
 20
80.727964
 30
0.0
 10
331.313159
 20
80.727964
 30
0.0
 10
331.313159
 20
92.056140
 30
0.0
  0
SPLINE
  5
260
100
AcDbEntity
  8
Ebene_1
 62
7
100
AcDbSpline
 70
8
 71
3
 72
8
 73
4
 74
0
 40
0
 40
0
 40
0
 40
0
 40
1
 40
1
 40
1
 40
1
 10
309.474401
 20
98.654395
 30
0.0
 10
309.474401
 20
97.592134
 30
0.0
 10
309.860355
 20
96.640515
 30
0.0
 10
310.601792
 20
95.879040
 30
0.0
  0
LWPOLYLINE
  5
261
100
AcDbEntity
  8
Ebene_1
 62
7
100
AcDbPolyline
 90
2
 70
0
 10
309.474401
 20
99.063193
 30
0.0
 10
309.474401
 20
98.654395
 30
0.0
  0
SPLINE
  5
262
100
AcDbEntity
  8
Ebene_1
 62
7
100
AcDbSpline
 70
8
 71
3
 72
8
 73
4
 74
0
 40
0
 40
0
 40
0
 40
0
 40
1
 40
1
 40
1
 40
1
 10
310.606698
 20
95.875769
 30
0.0
 10
311.352182
 20
95.130290
 30
0.0
 10
312.308099
 20
94.741994
 30
0.0
 10
313.386843
 20
94.741994
 30
0.0
  0
LWPOLYLINE
  5
263
100
AcDbEntity
  8
Ebene_1
 62
7
100
AcDbPolyline
 90
3
 70
0
 10
310.601792
 20
95.879040
 30
0.0
 10
310.605063
 20
95.877405
 30
0.0
 10
310.606698
 20
95.875769
 30
0.0
  0
SPLINE
  5
264
100
AcDbEntity
  8
Ebene_1
 62
7
100
AcDbSpline
 70
8
 71
3
 72
8
 73
4
 74
0
 40
0
 40
0
 40
0
 40
0
 40
1
 40
1
 40
1
 40
1
 10
327.400954
 20
94.741994
 30
0.0
 10
328.446798
 20
94.741994
 30
0.0
 10
329.388971
 20
95.130792
 30
0.0
 10
330.149164
 20
95.870978
 30
0.0
  0
SPLINE
  5
265
100
AcDbEntity
  8
Ebene_1
 62
7
100
AcDbSpline
 70
8
 71
3
 72
8
 73
4
 74
0
 40
0
 40
0
 40
0
 40
0
 40
1
 40
1
 40
1
 40
1
 10
330.149164
 20
95.870978
 30
0.0
 10
330.913796
 20
96.615491
 30
0.0
 10
331.313281
 20
97.573048
 30
0.0
 10
331.313281
 20
98.654318
 30
0.0
  0
LWPOLYLINE
  5
266
100
AcDbEntity
  8
Ebene_1
 62
7
100
AcDbPolyline
 90
2
 70
0
 10
313.386843
 20
94.741994
 30
0.0
 10
327.400954
 20
94.741994
 30
0.0
  0
LWPOLYLINE
  5
267
100
AcDbEntity
  8
Ebene_1
 62
7
100
AcDbPolyline
 90
3
 70
0
 10
331.313281
 20
98.654318
 30
0.0
 10
331.313281
 20
99.063116
 30
0.0
 10
309.474401
 20
99.063193
 30
0.0
  0
SPLINE
  5
268
100
AcDbEntity
  8
Ebene_1
 62
7
100
AcDbSpline
 70
8
 71
3
 72
8
 73
4
 74
0
 40
0
 40
0
 40
0
 40
0
 40
1
 40
1
 40
1
 40
1
 10
200.577637
 20
98.654395
 30
0.0
 10
200.577637
 20
97.592134
 30
0.0
 10
200.965186
 20
96.640515
 30
0.0
 10
201.706623
 20
95.879040
 30
0.0
  0
LWPOLYLINE
  5
269
100
AcDbEntity
  8
Ebene_1
 62
7
100
AcDbPolyline
 90
2
 70
0
 10
200.577637
 20
99.063193
 30
0.0
 10
200.577637
 20
98.654395
 30
0.0
  0
SPLINE
  5
26a
100
AcDbEntity
  8
Ebene_1
 62
7
100
AcDbSpline
 70
8
 71
3
 72
8
 73
4
 74
0
 40
0
 40
0
 40
0
 40
0
 40
1
 40
1
 40
1
 40
1
 10
201.709893
 20
95.875769
 30
0.0
 10
202.455377
 20
95.130289
 30
0.0
 10
203.411294
 20
94.741994
 30
0.0
 10
204.490038
 20
94.741994
 30
0.0
  0
LWPOLYLINE
  5
26b
100
AcDbEntity
  8
Ebene_1
 62
7
100
AcDbPolyline
 90
3
 70
0
 10
201.706623
 20
95.879040
 30
0.0
 10
201.708258
 20
95.877405
 30
0.0
 10
201.709893
 20
95.875769
 30
0.0
  0
SPLINE
  5
26c
100
AcDbEntity
  8
Ebene_1
 62
7
100
AcDbSpline
 70
8
 71
3
 72
8
 73
4
 74
0
 40
0
 40
0
 40
0
 40
0
 40
1
 40
1
 40
1
 40
1
 10
218.504149
 20
94.742070
 30
0.0
 10
219.549993
 20
94.742070
 30
0.0
 10
220.492166
 20
95.130869
 30
0.0
 10
221.252359
 20
95.871055
 30
0.0
  0
SPLINE
  5
26d
100
AcDbEntity
  8
Ebene_1
 62
7
100
AcDbSpline
 70
8
 71
3
 72
8
 73
4
 74
0
 40
0
 40
0
 40
0
 40
0
 40
1
 40
1
 40
1
 40
1
 10
221.252359
 20
95.871055
 30
0.0
 10
222.016991
 20
96.615567
 30
0.0
 10
222.416468
 20
97.573124
 30
0.0
 10
222.416468
 20
98.654395
 30
0.0
  0
LWPOLYLINE
  5
26e
100
AcDbEntity
  8
Ebene_1
 62
7
100
AcDbPolyline
 90
7
 70
0
 10
204.490038
 20
94.741994
 30
0.0
 10
209.336535
 20
94.741994
 30
0.0
 10
209.336535
 20
80.727964
 30
0.0
 10
209.745333
 20
80.727964
 30
0.0
 10
213.657652
 20
80.727964
 30
0.0
 10
213.657652
 20
94.742070
 30
0.0
 10
218.504149
 20
94.742070
 30
0.0
  0
LWPOLYLINE
  5
26f
100
AcDbEntity
  8
Ebene_1
 62
7
100
AcDbPolyline
 90
3
 70
0
 10
222.416468
 20
98.654395
 30
0.0
 10
222.416468
 20
99.063193
 30
0.0
 10
200.577637
 20
99.063193
 30
0.0
  0
SPLINE
  5
270
100
AcDbEntity
  8
Ebene_1
 62
7
100
AcDbSpline
 70
8
 71
3
 72
8
 73
4
 74
0
 40
0
 40
0
 40
0
 40
0
 40
1
 40
1
 40
1
 40
1
 10
227.801033
 20
84.640288
 30
0.0
 10
227.801033
 20
83.578028
 30
0.0
 10
228.188582
 20
82.626409
 30
0.0
 10
228.930018
 20
81.864933
 30
0.0
  0
LWPOLYLINE
  5
271
100
AcDbEntity
  8
Ebene_1
 62
7
100
AcDbPolyline
 90
2
 70
0
 10
227.801033
 20
85.049086
 30
0.0
 10
227.801033
 20
84.640288
 30
0.0
  0
SPLINE
  5
272
100
AcDbEntity
  8
Ebene_1
 62
7
100
AcDbSpline
 70
8
 71
3
 72
8
 73
4
 74
0
 40
0
 40
0
 40
0
 40
0
 40
1
 40
1
 40
1
 40
1
 10
228.933289
 20
81.860110
 30
0.0
 10
229.678765
 20
81.114629
 30
0.0
 10
230.634682
 20
80.727930
 30
0.0
 10
231.713434
 20
80.727930
 30
0.0
  0
LWPOLYLINE
  5
273
100
AcDbEntity
  8
Ebene_1
 62
7
100
AcDbPolyline
 90
3
 70
0
 10
228.930018
 20
81.864933
 30
0.0
 10
228.931654
 20
81.863298
 30
0.0
 10
228.933289
 20
81.860110
 30
0.0
  0
SPLINE
  5
274
100
AcDbEntity
  8
Ebene_1
 62
7
100
AcDbSpline
 70
8
 71
3
 72
8
 73
4
 74
0
 40
0
 40
0
 40
0
 40
0
 40
1
 40
1
 40
1
 40
1
 10
245.727536
 20
80.727930
 30
0.0
 10
246.773381
 20
80.727930
 30
0.0
 10
247.717156
 20
81.116729
 30
0.0
 10
248.477341
 20
81.856915
 30
0.0
  0
SPLINE
  5
275
100
AcDbEntity
  8
Ebene_1
 62
7
100
AcDbSpline
 70
8
 71
3
 72
8
 73
4
 74
0
 40
0
 40
0
 40
0
 40
0
 40
1
 40
1
 40
1
 40
1
 10
248.477341
 20
81.856915
 30
0.0
 10
249.241981
 20
82.601427
 30
0.0
 10
249.639864
 20
83.558984
 30
0.0
 10
249.639864
 20
84.640255
 30
0.0
  0
LWPOLYLINE
  5
276
100
AcDbEntity
  8
Ebene_1
 62
7
100
AcDbPolyline
 90
2
 70
0
 10
231.713434
 20
80.727930
 30
0.0
 10
245.727536
 20
80.727930
 30
0.0
  0
LWPOLYLINE
  5
277
100
AcDbEntity
  8
Ebene_1
 62
7
100
AcDbPolyline
 90
3
 70
0
 10
249.639864
 20
84.640255
 30
0.0
 10
249.639864
 20
85.049053
 30
0.0
 10
227.801033
 20
85.049086
 30
0.0
  0
SPLINE
  5
278
100
AcDbEntity
  8
Ebene_1
 62
7
100
AcDbSpline
 70
8
 71
3
 72
8
 73
4
 74
0
 40
0
 40
0
 40
0
 40
0
 40
1
 40
1
 40
1
 40
1
 10
227.801033
 20
91.647342
 30
0.0
 10
227.801033
 20
90.585080
 30
0.0
 10
228.188582
 20
89.633462
 30
0.0
 10
228.930018
 20
88.871987
 30
0.0
  0
LWPOLYLINE
  5
279
100
AcDbEntity
  8
Ebene_1
 62
7
100
AcDbPolyline
 90
2
 70
0
 10
227.801033
 20
92.056140
 30
0.0
 10
227.801033
 20
91.647342
 30
0.0
  0
SPLINE
  5
27a
100
AcDbEntity
  8
Ebene_1
 62
7
100
AcDbSpline
 70
8
 71
3
 72
8
 73
4
 74
0
 40
0
 40
0
 40
0
 40
0
 40
1
 40
1
 40
1
 40
1
 10
228.933289
 20
88.867163
 30
0.0
 10
229.678765
 20
88.121683
 30
0.0
 10
230.634682
 20
87.734984
 30
0.0
 10
231.713434
 20
87.734984
 30
0.0
  0
LWPOLYLINE
  5
27b
100
AcDbEntity
  8
Ebene_1
 62
7
100
AcDbPolyline
 90
3
 70
0
 10
228.930018
 20
88.871987
 30
0.0
 10
228.931654
 20
88.870352
 30
0.0
 10
228.933289
 20
88.867163
 30
0.0
  0
SPLINE
  5
27c
100
AcDbEntity
  8
Ebene_1
 62
7
100
AcDbSpline
 70
8
 71
3
 72
8
 73
4
 74
0
 40
0
 40
0
 40
0
 40
0
 40
1
 40
1
 40
1
 40
1
 10
245.727536
 20
87.734984
 30
0.0
 10
246.773381
 20
87.734984
 30
0.0
 10
247.717156
 20
88.123783
 30
0.0
 10
248.477341
 20
88.863970
 30
0.0
  0
SPLINE
  5
27d
100
AcDbEntity
  8
Ebene_1
 62
7
100
AcDbSpline
 70
8
 71
3
 72
8
 73
4
 74
0
 40
0
 40
0
 40
0
 40
0
 40
1
 40
1
 40
1
 40
1
 10
248.477341
 20
88.863970
 30
0.0
 10
249.241981
 20
89.608482
 30
0.0
 10
249.639864
 20
90.566039
 30
0.0
 10
249.639864
 20
91.647309
 30
0.0
  0
LWPOLYLINE
  5
27e
100
AcDbEntity
  8
Ebene_1
 62
7
100
AcDbPolyline
 90
2
 70
0
 10
231.713434
 20
87.734984
 30
0.0
 10
245.727536
 20
87.734984
 30
0.0
  0
LWPOLYLINE
  5
27f
100
AcDbEntity
  8
Ebene_1
 62
7
100
AcDbPolyline
 90
3
 70
0
 10
249.639864
 20
91.647309
 30
0.0
 10
249.639864
 20
92.056107
 30
0.0
 10
227.801033
 20
92.056140
 30
0.0
  0
SPLINE
  5
280
100
AcDbEntity
  8
Ebene_1
 62
7
100
AcDbSpline
 70
8
 71
3
 72
8
 73
4
 74
0
 40
0
 40
0
 40
0
 40
0
 40
1
 40
1
 40
1
 40
1
 10
227.801033
 20
98.654395
 30
0.0
 10
227.801033
 20
97.592134
 30
0.0
 10
228.188582
 20
96.640515
 30
0.0
 10
228.930018
 20
95.879040
 30
0.0
  0
LWPOLYLINE
  5
281
100
AcDbEntity
  8
Ebene_1
 62
7
100
AcDbPolyline
 90
2
 70
0
 10
227.801033
 20
99.063193
 30
0.0
 10
227.801033
 20
98.654395
 30
0.0
  0
SPLINE
  5
282
100
AcDbEntity
  8
Ebene_1
 62
7
100
AcDbSpline
 70
8
 71
3
 72
8
 73
4
 74
0
 40
0
 40
0
 40
0
 40
0
 40
1
 40
1
 40
1
 40
1
 10
228.933289
 20
95.875769
 30
0.0
 10
229.678765
 20
95.130289
 30
0.0
 10
230.634682
 20
94.741994
 30
0.0
 10
231.713434
 20
94.741994
 30
0.0
  0
LWPOLYLINE
  5
283
100
AcDbEntity
  8
Ebene_1
 62
7
100
AcDbPolyline
 90
3
 70
0
 10
228.930018
 20
95.879040
 30
0.0
 10
228.931654
 20
95.877405
 30
0.0
 10
228.933289
 20
95.875769
 30
0.0
  0
SPLINE
  5
284
100
AcDbEntity
  8
Ebene_1
 62
7
100
AcDbSpline
 70
8
 71
3
 72
8
 73
4
 74
0
 40
0
 40
0
 40
0
 40
0
 40
1
 40
1
 40
1
 40
1
 10
245.727536
 20
94.741994
 30
0.0
 10
246.773381
 20
94.741994
 30
0.0
 10
247.717156
 20
95.130792
 30
0.0
 10
248.477341
 20
95.870978
 30
0.0
  0
SPLINE
  5
285
100
AcDbEntity
  8
Ebene_1
 62
7
100
AcDbSpline
 70
8
 71
3
 72
8
 73
4
 74
0
 40
0
 40
0
 40
0
 40
0
 40
1
 40
1
 40
1
 40
1
 10
248.477341
 20
95.870978
 30
0.0
 10
249.241981
 20
96.615490
 30
0.0
 10
249.639864
 20
97.573047
 30
0.0
 10
249.639864
 20
98.654318
 30
0.0
  0
LWPOLYLINE
  5
286
100
AcDbEntity
  8
Ebene_1
 62
7
100
AcDbPolyline
 90
2
 70
0
 10
231.713434
 20
94.741994
 30
0.0
 10
245.727536
 20
94.741994
 30
0.0
  0
LWPOLYLINE
  5
287
100
AcDbEntity
  8
Ebene_1
 62
7
100
AcDbPolyline
 90
3
 70
0
 10
249.639864
 20
98.654318
 30
0.0
 10
249.639864
 20
99.063116
 30
0.0
 10
227.801033
 20
99.063193
 30
0.0
  0
SPLINE
  5
288
100
AcDbEntity
  8
Ebene_1
 62
7
100
AcDbSpline
 70
8
 71
3
 72
8
 73
4
 74
0
 40
0
 40
0
 40
0
 40
0
 40
1
 40
1
 40
1
 40
1
 10
258.938343
 20
85.049086
 30
0.0
 10
257.873514
 20
85.049086
 30
0.0
 10
256.918807
 20
84.650371
 30
0.0
 10
256.158197
 20
83.889761
 30
0.0
  0
SPLINE
  5
289
100
AcDbEntity
  8
Ebene_1
 62
7
100
AcDbSpline
 70
8
 71
3
 72
8
 73
4
 74
0
 40
0
 40
0
 40
0
 40
0
 40
1
 40
1
 40
1
 40
1
 10
256.158197
 20
83.889761
 30
0.0
 10
255.414021
 20
83.145582
 30
0.0
 10
255.026023
 20
82.199023
 30
0.0
 10
255.026023
 20
81.136762
 30
0.0
  0
LWPOLYLINE
  5
28a
100
AcDbEntity
  8
Ebene_1
 62
7
100
AcDbPolyline
 90
5
 70
0
 10
255.026023
 20
99.063193
 30
0.0
 10
255.026023
 20
87.735017
 30
0.0
 10
272.543655
 20
87.735017
 30
0.0
 10
272.543655
 20
85.049086
 30
0.0
 10
258.938343
 20
85.049086
 30
0.0
  0
SPLINE
  5
28b
100
AcDbEntity
  8
Ebene_1
 62
7
100
AcDbSpline
 70
8
 71
3
 72
8
 73
4
 74
0
 40
0
 40
0
 40
0
 40
0
 40
1
 40
1
 40
1
 40
1
 10
272.952453
 20
94.742070
 30
0.0
 10
273.998297
 20
94.742070
 30
0.0
 10
274.940470
 20
95.130869
 30
0.0
 10
275.700663
 20
95.871055
 30
0.0
  0
SPLINE
  5
28c
100
AcDbEntity
  8
Ebene_1
 62
7
100
AcDbSpline
 70
8
 71
3
 72
8
 73
4
 74
0
 40
0
 40
0
 40
0
 40
0
 40
1
 40
1
 40
1
 40
1
 10
275.700663
 20
95.871055
 30
0.0
 10
276.465295
 20
96.615568
 30
0.0
 10
276.864773
 20
97.573125
 30
0.0
 10
276.864773
 20
98.654395
 30
0.0
  0
LWPOLYLINE
  5
28d
100
AcDbEntity
  8
Ebene_1
 62
7
100
AcDbPolyline
 90
8
 70
0
 10
255.026023
 20
81.136762
 30
0.0
 10
255.026023
 20
80.727964
 30
0.0
 10
255.434821
 20
80.727964
 30
0.0
 10
276.864773
 20
80.727964
 30
0.0
 10
276.864773
 20
92.056140
 30
0.0
 10
259.347141
 20
92.056140
 30
0.0
 10
259.347141
 20
94.742070
 30
0.0
 10
272.952453
 20
94.742070
 30
0.0
  0
LWPOLYLINE
  5
28e
100
AcDbEntity
  8
Ebene_1
 62
7
100
AcDbPolyline
 90
3
 70
0
 10
276.864773
 20
98.654395
 30
0.0
 10
276.864773
 20
99.063193
 30
0.0
 10
255.026023
 20
99.063193
 30
0.0
  0
SPLINE
  5
28f
100
AcDbEntity
  8
Ebene_1
 62
7
100
AcDbSpline
 70
8
 71
3
 72
8
 73
4
 74
0
 40
0
 40
0
 40
0
 40
0
 40
1
 40
1
 40
1
 40
1
 10
300.175841
 20
80.727964
 30
0.0
 10
301.221685
 20
80.727964
 30
0.0
 10
302.165461
 20
81.116763
 30
0.0
 10
302.925645
 20
81.856949
 30
0.0
  0
SPLINE
  5
290
100
AcDbEntity
  8
Ebene_1
 62
7
100
AcDbSpline
 70
8
 71
3
 72
8
 73
4
 74
0
 40
0
 40
0
 40
0
 40
0
 40
1
 40
1
 40
1
 40
1
 10
302.925645
 20
81.856949
 30
0.0
 10
303.690277
 20
82.601461
 30
0.0
 10
304.088168
 20
83.559018
 30
0.0
 10
304.088168
 20
84.640288
 30
0.0
  0
LWPOLYLINE
  5
291
100
AcDbEntity
  8
Ebene_1
 62
7
100
AcDbPolyline
 90
4
 70
0
 10
282.249411
 20
99.063193
 30
0.0
 10
282.249411
 20
80.727964
 30
0.0
 10
282.658209
 20
80.727964
 30
0.0
 10
300.175841
 20
80.727964
 30
0.0
  0
LWPOLYLINE
  5
292
100
AcDbEntity
  8
Ebene_1
 62
7
100
AcDbPolyline
 90
5
 70
0
 10
304.088168
 20
84.640288
 30
0.0
 10
304.088168
 20
85.049086
 30
0.0
 10
286.570536
 20
85.049086
 30
0.0
 10
286.570536
 20
99.063193
 30
0.0
 10
282.249411
 20
99.063193
 30
0.0
  0
ENDSEC
  0
SECTION
  2
OBJECTS
  0
DICTIONARY
  5
C
330
0
100
AcDbDictionary
  3
ACAD_GROUP
350
D
  3
ACAD_MLINESTYLE
350
17
  0
DICTIONARY
  5
D
330
C
100
AcDbDictionary
  0
DICTIONARY
  5
1A
330
C
100
AcDbDictionary
  0
DICTIONARY
  5
17
330
C
100
AcDbDictionary
  3
STANDARD
350
18
  0
DICTIONARY
  5
19
330
C
100
AcDbDictionary
  0
ENDSEC
  0
EOF
