  0
SECTION
  2
HEADER
  9
$ACADVER
  1
AC1014
  9
$HANDSEED
  5
FFFF
  9
$MEASUREMENT
 70
     1
  0
ENDSEC
  0
SECTION
  2
TABLES
  0
TABLE
  2
VPORT
  5
8
330
0
100
AcDbSymbolTable
 70
     4
  0
VPORT
  5
2E
330
8
100
AcDbSymbolTableRecord
100
AcDbViewportTableRecord
  2
*ACTIVE
 70
     0
 10
0.0
 20
0.0
 11
1.0
 21
1.0
 12
210.0
 22
148.5
 13
0.0
 23
0.0
 14
10.0
 24
10.0
 15
10.0
 25
10.0
 16
0.0
 26
0.0
 36
1.0
 17
0.0
 27
0.0
 37
0.0
 40
341.0
 41
1.24
 42
50.0
 43
0.0
 44
0.0
 50
0.0
 51
0.0
 71
     0
 72
   100
 73
     1
 74
     3
 75
     0
 76
     0
 77
     0
 78
     0
  0
ENDTAB
  0
TABLE
  2
LTYPE
  5
5
330
0
100
AcDbSymbolTable
 70
     1
  0
LTYPE
  5
14
330
5
100
AcDbSymbolTableRecord
100
AcDbLinetypeTableRecord
  2
BYBLOCK
 70
     0
  3

 72
    65
 73
     0
 40
0.0
  0
LTYPE
  5
15
330
5
100
AcDbSymbolTableRecord
100
AcDbLinetypeTableRecord
  2
BYLAYER
 70
     0
  3

 72
    65
 73
     0
 40
0.0
  0
LTYPE
  5
16
330
5
100
AcDbSymbolTableRecord
100
AcDbLinetypeTableRecord
  2
CONTINUOUS
 70
     0
  3
Solid line
 72
    65
 73
     0
 40
0.0
  0
ENDTAB
  0
TABLE
  2
LAYER
  5
2
100
AcDbSymbolTable
 70
2
  0
LAYER
  5
50
100
AcDbSymbolTableRecord
100
AcDbLayerTableRecord
  2
0
 70
0
  6
CONTINUOUS
  0
LAYER
  5
51
100
AcDbSymbolTableRecord
100
AcDbLayerTableRecord
  2
Ebene_1
 70
0
  6
CONTINUOUS
  0
ENDTAB
  0
TABLE
  2
STYLE
  5
3
330
0
100
AcDbSymbolTable
 70
     1
  0
STYLE
  5
11
330
3
100
AcDbSymbolTableRecord
100
AcDbTextStyleTableRecord
  2
STANDARD
 70
     0
 40
0.0
 41
1.0
 50
0.0
 71
     0
 42
2.5
  3
txt
  4

  0
ENDTAB
  0
TABLE
  2
VIEW
  5
6
330
0
100
AcDbSymbolTable
 70
     0
  0
ENDTAB
  0
TABLE
  2
UCS
  5
7
330
0
100
AcDbSymbolTable
 70
     0
  0
ENDTAB
  0
TABLE
  2
APPID
  5
9
330
0
100
AcDbSymbolTable
 70
     2
  0
APPID
  5
12
330
9
100
AcDbSymbolTableRecord
100
AcDbRegAppTableRecord
  2
ACAD
 70
     0
  0
ENDTAB
  0
TABLE
  2
DIMSTYLE
  5
A
330
0
100
AcDbSymbolTable
 70
     1
  0
DIMSTYLE
105
27
330
A
100
AcDbSymbolTableRecord
100
AcDbDimStyleTableRecord
  2
ISO-25
 70
     0
  3

  4

  5

  6

  7

 40
1.0
 41
2.5
 42
0.625
 43
3.75
 44
1.25
 45
0.0
 46
0.0
 47
0.0
 48
0.0
140
2.5
141
2.5
142
0.0
143
0.03937007874016
144
1.0
145
0.0
146
1.0
147
0.625
 71
     0
 72
     0
 73
     0
 74
     0
 75
     0
 76
     0
 77
     1
 78
     8
170
     0
171
     3
172
     1
173
     0
174
     0
175
     0
176
     0
177
     0
178
     0
270
     2
271
     2
272
     2
273
     2
274
     3
340
11
275
     0
280
     0
281
     0
282
     0
283
     0
284
     8
285
     0
286
     0
287
     3
288
     0
  0
ENDTAB
  0
TABLE
  2
BLOCK_RECORD
  5
1
330
0
100
AcDbSymbolTable
 70
     1
  0
BLOCK_RECORD
  5
1F
330
1
100
AcDbSymbolTableRecord
100
AcDbBlockTableRecord
  2
*MODEL_SPACE
  0
BLOCK_RECORD
  5
1B
330
1
100
AcDbSymbolTableRecord
100
AcDbBlockTableRecord
  2
*PAPER_SPACE
  0
ENDTAB
  0
ENDSEC
  0
SECTION
  2
BLOCKS
  0
BLOCK
  5
20
330
1F
100
AcDbEntity
  8
0
100
AcDbBlockBegin
  2
*MODEL_SPACE
 70
     0
 10
0.0
 20
0.0
 30
0.0
  3
*MODEL_SPACE
  1

  0
ENDBLK
  5
21
330
1F
100
AcDbEntity
  8
0
100
AcDbBlockEnd
  0
BLOCK
  5
1C
330
1B
100
AcDbEntity
 67
     1
  8
0
100
AcDbBlockBegin
  2
*PAPER_SPACE
  1

  0
ENDBLK
  5
1D
330
1B
100
AcDbEntity
 67
     1
  8
0
100
AcDbBlockEnd
  0
ENDSEC
  0
SECTION
  2
ENTITIES
  0
LWPOLYLINE
  5
100
100
AcDbEntity
  8
Ebene_1
 62
7
100
AcDbPolyline
 90
4
 70
1
 10
0.000000
 20
299.599980
 30
0.0
 10
200.000000
 20
299.599980
 30
0.0
 10
200.000000
 20
0.000000
 30
0.0
 10
0.000000
 20
0.000000
 30
0.0
  0
SPLINE
  5
101
100
AcDbEntity
  8
Ebene_1
 62
7
100
AcDbSpline
 70
8
 71
3
 72
8
 73
4
 74
0
 40
0
 40
0
 40
0
 40
0
 40
1
 40
1
 40
1
 40
1
 10
170.000000
 20
290.000000
 30
0.0
 10
175.304330
 20
290.000000
 30
0.0
 10
180.391408
 20
287.892863
 30
0.0
 10
184.142136
 20
284.142136
 30
0.0
  0
SPLINE
  5
102
100
AcDbEntity
  8
Ebene_1
 62
7
100
AcDbSpline
 70
8
 71
3
 72
8
 73
4
 74
0
 40
0
 40
0
 40
0
 40
0
 40
1
 40
1
 40
1
 40
1
 10
184.142136
 20
284.142136
 30
0.0
 10
187.892863
 20
280.391408
 30
0.0
 10
190.000000
 20
275.304330
 30
0.0
 10
190.000000
 20
270.000000
 30
0.0
  0
LWPOLYLINE
  5
103
100
AcDbEntity
  8
Ebene_1
 62
7
100
AcDbPolyline
 90
2
 70
0
 10
30.000000
 20
290.000000
 30
0.0
 10
170.000000
 20
290.000000
 30
0.0
  0
SPLINE
  5
104
100
AcDbEntity
  8
Ebene_1
 62
7
100
AcDbSpline
 70
8
 71
3
 72
8
 73
4
 74
0
 40
0
 40
0
 40
0
 40
0
 40
1
 40
1
 40
1
 40
1
 10
190.000000
 20
30.000000
 30
0.0
 10
190.000000
 20
24.695670
 30
0.0
 10
187.892863
 20
19.608592
 30
0.0
 10
184.142136
 20
15.857864
 30
0.0
  0
SPLINE
  5
105
100
AcDbEntity
  8
Ebene_1
 62
7
100
AcDbSpline
 70
8
 71
3
 72
8
 73
4
 74
0
 40
0
 40
0
 40
0
 40
0
 40
1
 40
1
 40
1
 40
1
 10
184.142136
 20
15.857864
 30
0.0
 10
180.391408
 20
12.107137
 30
0.0
 10
175.304330
 20
10.000000
 30
0.0
 10
170.000000
 20
10.000000
 30
0.0
  0
LWPOLYLINE
  5
106
100
AcDbEntity
  8
Ebene_1
 62
7
100
AcDbPolyline
 90
2
 70
0
 10
190.000000
 20
270.000000
 30
0.0
 10
190.000000
 20
30.000000
 30
0.0
  0
SPLINE
  5
107
100
AcDbEntity
  8
Ebene_1
 62
7
100
AcDbSpline
 70
8
 71
3
 72
8
 73
4
 74
0
 40
0
 40
0
 40
0
 40
0
 40
1
 40
1
 40
1
 40
1
 10
30.000000
 20
10.000000
 30
0.0
 10
24.695670
 20
10.000000
 30
0.0
 10
19.608592
 20
12.107137
 30
0.0
 10
15.857864
 20
15.857864
 30
0.0
  0
SPLINE
  5
108
100
AcDbEntity
  8
Ebene_1
 62
7
100
AcDbSpline
 70
8
 71
3
 72
8
 73
4
 74
0
 40
0
 40
0
 40
0
 40
0
 40
1
 40
1
 40
1
 40
1
 10
15.857864
 20
15.857864
 30
0.0
 10
12.107137
 20
19.608592
 30
0.0
 10
10.000000
 20
24.695670
 30
0.0
 10
10.000000
 20
30.000000
 30
0.0
  0
LWPOLYLINE
  5
109
100
AcDbEntity
  8
Ebene_1
 62
7
100
AcDbPolyline
 90
2
 70
0
 10
170.000000
 20
10.000000
 30
0.0
 10
30.000000
 20
10.000000
 30
0.0
  0
SPLINE
  5
10a
100
AcDbEntity
  8
Ebene_1
 62
7
100
AcDbSpline
 70
8
 71
3
 72
8
 73
4
 74
0
 40
0
 40
0
 40
0
 40
0
 40
1
 40
1
 40
1
 40
1
 10
10.000000
 20
270.000000
 30
0.0
 10
10.000000
 20
275.304330
 30
0.0
 10
12.107137
 20
280.391408
 30
0.0
 10
15.857864
 20
284.142136
 30
0.0
  0
SPLINE
  5
10b
100
AcDbEntity
  8
Ebene_1
 62
7
100
AcDbSpline
 70
8
 71
3
 72
8
 73
4
 74
0
 40
0
 40
0
 40
0
 40
0
 40
1
 40
1
 40
1
 40
1
 10
15.857864
 20
284.142136
 30
0.0
 10
19.608592
 20
287.892863
 30
0.0
 10
24.695670
 20
290.000000
 30
0.0
 10
30.000000
 20
290.000000
 30
0.0
  0
LWPOLYLINE
  5
10c
100
AcDbEntity
  8
Ebene_1
 62
7
100
AcDbPolyline
 90
2
 70
0
 10
10.000000
 20
30.000000
 30
0.0
 10
10.000000
 20
270.000000
 30
0.0
  0
SPLINE
  5
10d
100
AcDbEntity
  8
Ebene_1
 62
7
100
AcDbSpline
 70
8
 71
3
 72
8
 73
4
 74
0
 40
0
 40
0
 40
0
 40
0
 40
1
 40
1
 40
1
 40
1
 10
99.902422
 20
101.383180
 30
0.0
 10
99.662147
 20
102.650250
 30
0.0
 10
78.989589
 20
218.065319
 30
0.0
 10
78.989589
 20
218.139614
 30
0.0
  0
SPLINE
  5
10e
100
AcDbEntity
  8
Ebene_1
 62
7
100
AcDbSpline
 70
8
 71
3
 72
8
 73
4
 74
0
 40
0
 40
0
 40
0
 40
0
 40
1
 40
1
 40
1
 40
1
 10
78.989589
 20
218.139614
 30
0.0
 10
78.989589
 20
218.244937
 30
0.0
 10
72.883776
 20
218.090744
 30
0.0
 10
69.814694
 20
217.907601
 30
0.0
  0
SPLINE
  5
10f
100
AcDbEntity
  8
Ebene_1
 62
7
100
AcDbSpline
 70
8
 71
3
 72
8
 73
4
 74
0
 40
0
 40
0
 40
0
 40
0
 40
1
 40
1
 40
1
 40
1
 10
69.814694
 20
217.907601
 30
0.0
 10
60.681235
 20
217.362935
 30
0.0
 10
55.983641
 20
215.763501
 30
0.0
 10
53.713199
 20
212.425382
 30
0.0
  0
SPLINE
  5
110
100
AcDbEntity
  8
Ebene_1
 62
7
100
AcDbSpline
 70
8
 71
3
 72
8
 73
4
 74
0
 40
0
 40
0
 40
0
 40
0
 40
1
 40
1
 40
1
 40
1
 10
53.713199
 20
212.425382
 30
0.0
 10
52.876043
 20
211.194587
 30
0.0
 10
52.526565
 20
210.317090
 30
0.0
 10
52.161242
 20
208.528753
 30
0.0
  0
SPLINE
  5
111
100
AcDbEntity
  8
Ebene_1
 62
7
100
AcDbSpline
 70
8
 71
3
 72
8
 73
4
 74
0
 40
0
 40
0
 40
0
 40
0
 40
1
 40
1
 40
1
 40
1
 10
52.161242
 20
208.528753
 30
0.0
 10
52.012931
 20
207.802126
 30
0.0
 10
51.864286
 20
207.180541
 30
0.0
 10
51.831189
 20
207.147486
 30
0.0
  0
SPLINE
  5
112
100
AcDbEntity
  8
Ebene_1
 62
7
100
AcDbSpline
 70
8
 71
3
 72
8
 73
4
 74
0
 40
0
 40
0
 40
0
 40
0
 40
1
 40
1
 40
1
 40
1
 10
51.831189
 20
207.147486
 30
0.0
 10
51.719893
 20
207.036071
 30
0.0
 10
47.924364
 20
208.839803
 30
0.0
 10
46.022635
 20
209.907490
 30
0.0
  0
SPLINE
  5
113
100
AcDbEntity
  8
Ebene_1
 62
7
100
AcDbSpline
 70
8
 71
3
 72
8
 73
4
 74
0
 40
0
 40
0
 40
0
 40
0
 40
1
 40
1
 40
1
 40
1
 10
46.022635
 20
209.907490
 30
0.0
 10
40.334417
 20
213.100939
 30
0.0
 10
35.868758
 20
216.798463
 30
0.0
 10
32.830856
 20
220.830102
 30
0.0
  0
SPLINE
  5
114
100
AcDbEntity
  8
Ebene_1
 62
7
100
AcDbSpline
 70
8
 71
3
 72
8
 73
4
 74
0
 40
0
 40
0
 40
0
 40
0
 40
1
 40
1
 40
1
 40
1
 10
32.830856
 20
220.830102
 30
0.0
 10
32.384564
 20
221.422382
 30
0.0
 10
32.019395
 20
221.955483
 30
0.0
 10
32.019395
 20
222.014727
 30
0.0
  0
SPLINE
  5
115
100
AcDbEntity
  8
Ebene_1
 62
7
100
AcDbSpline
 70
8
 71
3
 72
8
 73
4
 74
0
 40
0
 40
0
 40
0
 40
0
 40
1
 40
1
 40
1
 40
1
 10
32.019395
 20
222.014727
 30
0.0
 10
32.019395
 20
222.073947
 30
0.0
 10
32.250476
 20
222.218125
 30
0.0
 10
32.532891
 20
222.335012
 30
0.0
  0
SPLINE
  5
116
100
AcDbEntity
  8
Ebene_1
 62
7
100
AcDbSpline
 70
8
 71
3
 72
8
 73
4
 74
0
 40
0
 40
0
 40
0
 40
0
 40
1
 40
1
 40
1
 40
1
 10
32.532891
 20
222.335012
 30
0.0
 10
32.815355
 20
222.452126
 30
0.0
 10
34.032431
 20
222.976468
 30
0.0
 10
35.237466
 20
223.500746
 30
0.0
  0
SPLINE
  5
117
100
AcDbEntity
  8
Ebene_1
 62
7
100
AcDbSpline
 70
8
 71
3
 72
8
 73
4
 74
0
 40
0
 40
0
 40
0
 40
0
 40
1
 40
1
 40
1
 40
1
 10
35.237466
 20
223.500746
 30
0.0
 10
49.044495
 20
229.507375
 30
0.0
 10
66.991542
 20
233.705926
 30
0.0
 10
83.097773
 20
234.697184
 30
0.0
  0
LWPOLYLINE
  5
118
100
AcDbEntity
  8
Ebene_1
 62
7
100
AcDbPolyline
 90
1
 70
1
 10
30.000000
 20
290.000000
 30
0.0
  0
SPLINE
  5
119
100
AcDbEntity
  8
Ebene_1
 62
7
100
AcDbSpline
 70
8
 71
3
 72
8
 73
4
 74
0
 40
0
 40
0
 40
0
 40
0
 40
1
 40
1
 40
1
 40
1
 10
92.253324
 20
225.381177
 30
0.0
 10
96.498080
 20
220.208736
 30
0.0
 10
100.018010
 20
216.028533
 30
0.0
 10
100.075380
 20
216.091873
 30
0.0
  0
SPLINE
  5
11a
100
AcDbEntity
  8
Ebene_1
 62
7
100
AcDbSpline
 70
8
 71
3
 72
8
 73
4
 74
0
 40
0
 40
0
 40
0
 40
0
 40
1
 40
1
 40
1
 40
1
 10
100.075380
 20
216.091873
 30
0.0
 10
100.132780
 20
216.154933
 30
0.0
 10
103.577910
 20
220.348106
 30
0.0
 10
107.731190
 20
225.409527
 30
0.0
  0
SPLINE
  5
11b
100
AcDbEntity
  8
Ebene_1
 62
7
100
AcDbSpline
 70
8
 71
3
 72
8
 73
4
 74
0
 40
0
 40
0
 40
0
 40
0
 40
1
 40
1
 40
1
 40
1
 10
107.731190
 20
225.409527
 30
0.0
 10
111.884570
 20
230.470897
 30
0.0
 10
115.346190
 20
234.651219
 30
0.0
 10
115.423710
 20
234.699138
 30
0.0
  0
SPLINE
  5
11c
100
AcDbEntity
  8
Ebene_1
 62
7
100
AcDbSpline
 70
8
 71
3
 72
8
 73
4
 74
0
 40
0
 40
0
 40
0
 40
0
 40
1
 40
1
 40
1
 40
1
 10
115.423710
 20
234.699138
 30
0.0
 10
115.585340
 20
234.799038
 30
0.0
 10
119.039630
 20
234.576328
 30
0.0
 10
122.056810
 20
234.271346
 30
0.0
  0
SPLINE
  5
11d
100
AcDbEntity
  8
Ebene_1
 62
7
100
AcDbSpline
 70
8
 71
3
 72
8
 73
4
 74
0
 40
0
 40
0
 40
0
 40
0
 40
1
 40
1
 40
1
 40
1
 10
122.056810
 20
234.271346
 30
0.0
 10
134.780860
 20
232.985121
 30
0.0
 10
147.560160
 20
230.040813
 30
0.0
 10
159.167390
 20
225.721108
 30
0.0
  0
SPLINE
  5
11e
100
AcDbEntity
  8
Ebene_1
 62
7
100
AcDbSpline
 70
8
 71
3
 72
8
 73
4
 74
0
 40
0
 40
0
 40
0
 40
0
 40
1
 40
1
 40
1
 40
1
 10
159.167390
 20
225.721108
 30
0.0
 10
161.906750
 20
224.701593
 30
0.0
 10
166.313170
 20
222.882003
 30
0.0
 10
167.462370
 20
222.295724
 30
0.0
  0
LWPOLYLINE
  5
11f
100
AcDbEntity
  8
Ebene_1
 62
7
100
AcDbPolyline
 90
3
 70
0
 10
83.097773
 20
234.697184
 30
0.0
 10
84.535594
 20
234.785554
 30
0.0
 10
92.253324
 20
225.381177
 30
0.0
  0
SPLINE
  5
120
100
AcDbEntity
  8
Ebene_1
 62
7
100
AcDbSpline
 70
8
 71
3
 72
8
 73
4
 74
0
 40
0
 40
0
 40
0
 40
0
 40
1
 40
1
 40
1
 40
1
 10
167.306710
 20
221.069634
 30
0.0
 10
164.615380
 20
217.369301
 30
0.0
 10
160.396140
 20
213.733008
 30
0.0
 10
155.171060
 20
210.610422
 30
0.0
  0
SPLINE
  5
121
100
AcDbEntity
  8
Ebene_1
 62
7
100
AcDbSpline
 70
8
 71
3
 72
8
 73
4
 74
0
 40
0
 40
0
 40
0
 40
0
 40
1
 40
1
 40
1
 40
1
 10
155.171060
 20
210.610422
 30
0.0
 10
153.734060
 20
209.751644
 30
0.0
 10
148.977090
 20
207.364058
 30
0.0
 10
148.328490
 20
207.176017
 30
0.0
  0
SPLINE
  5
122
100
AcDbEntity
  8
Ebene_1
 62
7
100
AcDbSpline
 70
8
 71
3
 72
8
 73
4
 74
0
 40
0
 40
0
 40
0
 40
0
 40
1
 40
1
 40
1
 40
1
 10
148.328490
 20
207.176017
 30
0.0
 10
148.060830
 20
207.098367
 30
0.0
 10
148.024940
 20
207.156677
 30
0.0
 10
147.935890
 20
207.814466
 30
0.0
  0
SPLINE
  5
123
100
AcDbEntity
  8
Ebene_1
 62
7
100
AcDbSpline
 70
8
 71
3
 72
8
 73
4
 74
0
 40
0
 40
0
 40
0
 40
0
 40
1
 40
1
 40
1
 40
1
 10
147.935890
 20
207.814466
 30
0.0
 10
147.881990
 20
208.212608
 30
0.0
 10
147.687310
 20
209.060483
 30
0.0
 10
147.503270
 20
209.698680
 30
0.0
  0
SPLINE
  5
124
100
AcDbEntity
  8
Ebene_1
 62
7
100
AcDbSpline
 70
8
 71
3
 72
8
 73
4
 74
0
 40
0
 40
0
 40
0
 40
0
 40
1
 40
1
 40
1
 40
1
 10
147.503270
 20
209.698680
 30
0.0
 10
146.054110
 20
214.724160
 30
0.0
 10
141.772280
 20
216.955696
 30
0.0
 10
131.984920
 20
217.786282
 30
0.0
  0
SPLINE
  5
125
100
AcDbEntity
  8
Ebene_1
 62
7
100
AcDbSpline
 70
8
 71
3
 72
8
 73
4
 74
0
 40
0
 40
0
 40
0
 40
0
 40
1
 40
1
 40
1
 40
1
 10
131.984920
 20
217.786282
 30
0.0
 10
129.853820
 20
217.967210
 30
0.0
 10
120.990800
 20
218.199143
 30
0.0
 10
120.879410
 20
218.077037
 30
0.0
  0
SPLINE
  5
126
100
AcDbEntity
  8
Ebene_1
 62
7
100
AcDbSpline
 70
8
 71
3
 72
8
 73
4
 74
0
 40
0
 40
0
 40
0
 40
0
 40
1
 40
1
 40
1
 40
1
 10
120.879410
 20
218.077037
 30
0.0
 10
120.822610
 20
218.014647
 30
0.0
 10
103.712670
 20
122.033590
 30
0.0
 10
100.101750
 20
101.520000
 30
0.0
  0
LWPOLYLINE
  5
127
100
AcDbEntity
  8
Ebene_1
 62
7
100
AcDbPolyline
 90
3
 70
0
 10
167.462370
 20
222.295724
 30
0.0
 10
167.999270
 20
222.021781
 30
0.0
 10
167.306710
 20
221.069634
 30
0.0
  0
SPLINE
  5
128
100
AcDbEntity
  8
Ebene_1
 62
7
100
AcDbSpline
 70
8
 71
3
 72
8
 73
4
 74
0
 40
0
 40
0
 40
0
 40
0
 40
1
 40
1
 40
1
 40
1
 10
168.000000
 20
227.192587
 30
0.0
 10
151.644810
 20
234.090304
 30
0.0
 10
133.063390
 20
238.479575
 30
0.0
 10
114.525170
 20
239.824249
 30
0.0
  0
SPLINE
  5
129
100
AcDbEntity
  8
Ebene_1
 62
7
100
AcDbSpline
 70
8
 71
3
 72
8
 73
4
 74
0
 40
0
 40
0
 40
0
 40
0
 40
1
 40
1
 40
1
 40
1
 10
114.525170
 20
239.824249
 30
0.0
 10
108.569230
 20
240.256268
 30
0.0
 10
96.195910
 20
240.397743
 30
0.0
 10
90.204373
 20
240.102338
 30
0.0
  0
SPLINE
  5
12a
100
AcDbEntity
  8
Ebene_1
 62
7
100
AcDbSpline
 70
8
 71
3
 72
8
 73
4
 74
0
 40
0
 40
0
 40
0
 40
0
 40
1
 40
1
 40
1
 40
1
 10
90.204373
 20
240.102338
 30
0.0
 10
69.440936
 20
239.078584
 30
0.0
 10
50.338116
 20
234.847112
 30
0.0
 10
31.979169
 20
227.204855
 30
0.0
  0
SPLINE
  5
12b
100
AcDbEntity
  8
Ebene_1
 62
7
100
AcDbSpline
 70
8
 71
3
 72
8
 73
4
 74
0
 40
0
 40
0
 40
0
 40
0
 40
1
 40
1
 40
1
 40
1
 10
31.979169
 20
227.204855
 30
0.0
 10
30.714350
 20
226.678312
 30
0.0
 10
29.600697
 20
226.277745
 30
0.0
 10
29.504459
 20
226.314680
 30
0.0
  0
SPLINE
  5
12c
100
AcDbEntity
  8
Ebene_1
 62
7
100
AcDbSpline
 70
8
 71
3
 72
8
 73
4
 74
0
 40
0
 40
0
 40
0
 40
0
 40
1
 40
1
 40
1
 40
1
 10
29.504459
 20
226.314680
 30
0.0
 10
29.407969
 20
226.351640
 30
0.0
 10
28.616339
 20
227.820689
 30
0.0
 10
27.744705
 20
229.579364
 30
0.0
  0
SPLINE
  5
12d
100
AcDbEntity
  8
Ebene_1
 62
7
100
AcDbSpline
 70
8
 71
3
 72
8
 73
4
 74
0
 40
0
 40
0
 40
0
 40
0
 40
1
 40
1
 40
1
 40
1
 10
27.744705
 20
229.579364
 30
0.0
 10
26.113990
 20
232.869685
 30
0.0
 10
25.354002
 20
234.578919
 30
0.0
 10
25.470188
 20
234.695051
 30
0.0
  0
SPLINE
  5
12e
100
AcDbEntity
  8
Ebene_1
 62
7
100
AcDbSpline
 70
8
 71
3
 72
8
 73
4
 74
0
 40
0
 40
0
 40
0
 40
0
 40
1
 40
1
 40
1
 40
1
 10
25.470188
 20
234.695051
 30
0.0
 10
25.588904
 20
234.813620
 30
0.0
 10
30.376952
 20
236.622718
 30
0.0
 10
33.183387
 20
237.609020
 30
0.0
  0
SPLINE
  5
12f
100
AcDbEntity
  8
Ebene_1
 62
7
100
AcDbSpline
 70
8
 71
3
 72
8
 73
4
 74
0
 40
0
 40
0
 40
0
 40
0
 40
1
 40
1
 40
1
 40
1
 10
33.183387
 20
237.609020
 30
0.0
 10
59.492569
 20
246.855295
 30
0.0
 10
87.590046
 20
250.686956
 30
0.0
 10
114.182820
 20
248.654921
 30
0.0
  0
SPLINE
  5
130
100
AcDbEntity
  8
Ebene_1
 62
7
100
AcDbSpline
 70
8
 71
3
 72
8
 73
4
 74
0
 40
0
 40
0
 40
0
 40
0
 40
1
 40
1
 40
1
 40
1
 10
114.182820
 20
248.654921
 30
0.0
 10
134.072720
 20
247.135121
 30
0.0
 10
152.817990
 20
242.939537
 30
0.0
 10
171.899470
 20
235.736810
 30
0.0
  0
SPLINE
  5
131
100
AcDbEntity
  8
Ebene_1
 62
7
100
AcDbSpline
 70
8
 71
3
 72
8
 73
4
 74
0
 40
0
 40
0
 40
0
 40
0
 40
1
 40
1
 40
1
 40
1
 10
171.899470
 20
235.736810
 30
0.0
 10
173.320110
 20
235.200556
 30
0.0
 10
174.506890
 20
234.737391
 30
0.0
 10
174.536720
 20
234.707530
 30
0.0
  0
SPLINE
  5
132
100
AcDbEntity
  8
Ebene_1
 62
7
100
AcDbSpline
 70
8
 71
3
 72
8
 73
4
 74
0
 40
0
 40
0
 40
0
 40
0
 40
1
 40
1
 40
1
 40
1
 10
174.536720
 20
234.707530
 30
0.0
 10
174.692670
 20
234.551509
 30
0.0
 10
170.877340
 20
226.586754
 30
0.0
 10
170.490730
 20
226.261317
 30
0.0
  0
SPLINE
  5
133
100
AcDbEntity
  8
Ebene_1
 62
7
100
AcDbSpline
 70
8
 71
3
 72
8
 73
4
 74
0
 40
0
 40
0
 40
0
 40
0
 40
1
 40
1
 40
1
 40
1
 10
170.490730
 20
226.261317
 30
0.0
 10
170.438830
 20
226.217717
 30
0.0
 10
169.318030
 20
226.636726
 30
0.0
 10
168.000000
 20
227.192587
 30
0.0
  0
LWPOLYLINE
  5
134
100
AcDbEntity
  8
Ebene_1
 62
7
100
AcDbPolyline
 90
3
 70
0
 10
100.101750
 20
101.520000
 30
0.0
 10
99.993372
 20
100.903830
 30
0.0
 10
99.902422
 20
101.383180
 30
0.0
  0
LWPOLYLINE
  5
135
100
AcDbEntity
  8
Ebene_1
 62
7
100
AcDbPolyline
 90
1
 70
1
 10
168.000000
 20
227.192587
 30
0.0
  0
LWPOLYLINE
  5
136
100
AcDbEntity
  8
Ebene_1
 62
7
100
AcDbPolyline
 90
9
 70
1
 10
149.942912
 20
52.406989
 30
0.0
 10
149.942912
 20
39.409562
 30
0.0
 10
150.411948
 20
39.409562
 30
0.0
 10
154.900763
 20
39.409562
 30
0.0
 10
154.900763
 20
47.449131
 30
0.0
 10
170.041836
 20
47.449131
 30
0.0
 10
170.041836
 20
39.409562
 30
0.0
 10
174.999697
 20
39.409562
 30
0.0
 10
174.999697
 20
52.406989
 30
0.0
  0
SPLINE
  5
137
100
AcDbEntity
  8
Ebene_1
 62
7
100
AcDbSpline
 70
8
 71
3
 72
8
 73
4
 74
0
 40
0
 40
0
 40
0
 40
0
 40
1
 40
1
 40
1
 40
1
 10
149.942912
 20
59.977523
 30
0.0
 10
149.942912
 20
58.758734
 30
0.0
 10
150.385738
 20
57.666890
 30
0.0
 10
151.236429
 20
56.793208
 30
0.0
  0
LWPOLYLINE
  5
138
100
AcDbEntity
  8
Ebene_1
 62
7
100
AcDbPolyline
 90
2
 70
0
 10
149.942912
 20
60.446559
 30
0.0
 10
149.942912
 20
59.977523
 30
0.0
  0
SPLINE
  5
139
100
AcDbEntity
  8
Ebene_1
 62
7
100
AcDbSpline
 70
8
 71
3
 72
8
 73
4
 74
0
 40
0
 40
0
 40
0
 40
0
 40
1
 40
1
 40
1
 40
1
 10
151.242057
 20
56.789456
 30
0.0
 10
152.097391
 20
55.934127
 30
0.0
 10
153.194166
 20
55.488614
 30
0.0
 10
154.431868
 20
55.488614
 30
0.0
  0
LWPOLYLINE
  5
13a
100
AcDbEntity
  8
Ebene_1
 62
7
100
AcDbPolyline
 90
3
 70
0
 10
151.236429
 20
56.793208
 30
0.0
 10
151.240181
 20
56.791332
 30
0.0
 10
151.242057
 20
56.789456
 30
0.0
  0
SPLINE
  5
13b
100
AcDbEntity
  8
Ebene_1
 62
7
100
AcDbSpline
 70
8
 71
3
 72
8
 73
4
 74
0
 40
0
 40
0
 40
0
 40
0
 40
1
 40
1
 40
1
 40
1
 10
170.511013
 20
55.488614
 30
0.0
 10
171.710967
 20
55.488614
 30
0.0
 10
172.791973
 20
55.934704
 30
0.0
 10
173.664183
 20
56.783959
 30
0.0
  0
SPLINE
  5
13c
100
AcDbEntity
  8
Ebene_1
 62
7
100
AcDbSpline
 70
8
 71
3
 72
8
 73
4
 74
0
 40
0
 40
0
 40
0
 40
0
 40
1
 40
1
 40
1
 40
1
 10
173.664183
 20
56.783959
 30
0.0
 10
174.541486
 20
57.638179
 30
0.0
 10
174.999838
 20
58.736836
 30
0.0
 10
174.999838
 20
59.977435
 30
0.0
  0
LWPOLYLINE
  5
13d
100
AcDbEntity
  8
Ebene_1
 62
7
100
AcDbPolyline
 90
2
 70
0
 10
154.431868
 20
55.488614
 30
0.0
 10
170.511013
 20
55.488614
 30
0.0
  0
LWPOLYLINE
  5
13e
100
AcDbEntity
  8
Ebene_1
 62
7
100
AcDbPolyline
 90
3
 70
0
 10
174.999838
 20
59.977435
 30
0.0
 10
174.999838
 20
60.446471
 30
0.0
 10
149.942912
 20
60.446559
 30
0.0
  0
SPLINE
  5
13f
100
AcDbEntity
  8
Ebene_1
 62
7
100
AcDbSpline
 70
8
 71
3
 72
8
 73
4
 74
0
 40
0
 40
0
 40
0
 40
0
 40
1
 40
1
 40
1
 40
1
 10
24.999780
 20
59.977523
 30
0.0
 10
24.999780
 20
58.758734
 30
0.0
 10
25.444435
 20
57.666890
 30
0.0
 10
26.295126
 20
56.793208
 30
0.0
  0
LWPOLYLINE
  5
140
100
AcDbEntity
  8
Ebene_1
 62
7
100
AcDbPolyline
 90
2
 70
0
 10
24.999780
 20
60.446559
 30
0.0
 10
24.999780
 20
59.977523
 30
0.0
  0
SPLINE
  5
141
100
AcDbEntity
  8
Ebene_1
 62
7
100
AcDbSpline
 70
8
 71
3
 72
8
 73
4
 74
0
 40
0
 40
0
 40
0
 40
0
 40
1
 40
1
 40
1
 40
1
 10
26.298878
 20
56.789456
 30
0.0
 10
27.154212
 20
55.934126
 30
0.0
 10
28.250987
 20
55.488614
 30
0.0
 10
29.488689
 20
55.488614
 30
0.0
  0
LWPOLYLINE
  5
142
100
AcDbEntity
  8
Ebene_1
 62
7
100
AcDbPolyline
 90
3
 70
0
 10
26.295126
 20
56.793208
 30
0.0
 10
26.297002
 20
56.791332
 30
0.0
 10
26.298878
 20
56.789456
 30
0.0
  0
SPLINE
  5
143
100
AcDbEntity
  8
Ebene_1
 62
7
100
AcDbSpline
 70
8
 71
3
 72
8
 73
4
 74
0
 40
0
 40
0
 40
0
 40
0
 40
1
 40
1
 40
1
 40
1
 10
45.567834
 20
55.488702
 30
0.0
 10
46.767787
 20
55.488702
 30
0.0
 10
47.848793
 20
55.934792
 30
0.0
 10
48.721003
 20
56.784047
 30
0.0
  0
SPLINE
  5
144
100
AcDbEntity
  8
Ebene_1
 62
7
100
AcDbSpline
 70
8
 71
3
 72
8
 73
4
 74
0
 40
0
 40
0
 40
0
 40
0
 40
1
 40
1
 40
1
 40
1
 10
48.721003
 20
56.784047
 30
0.0
 10
49.598307
 20
57.638266
 30
0.0
 10
50.056649
 20
58.736923
 30
0.0
 10
50.056649
 20
59.977523
 30
0.0
  0
LWPOLYLINE
  5
145
100
AcDbEntity
  8
Ebene_1
 62
7
100
AcDbPolyline
 90
7
 70
0
 10
29.488689
 20
55.488614
 30
0.0
 10
35.049336
 20
55.488614
 30
0.0
 10
35.049336
 20
39.409562
 30
0.0
 10
35.518372
 20
39.409562
 30
0.0
 10
40.007187
 20
39.409562
 30
0.0
 10
40.007187
 20
55.488702
 30
0.0
 10
45.567834
 20
55.488702
 30
0.0
  0
LWPOLYLINE
  5
146
100
AcDbEntity
  8
Ebene_1
 62
7
100
AcDbPolyline
 90
3
 70
0
 10
50.056649
 20
59.977523
 30
0.0
 10
50.056649
 20
60.446559
 30
0.0
 10
24.999780
 20
60.446559
 30
0.0
  0
SPLINE
  5
147
100
AcDbEntity
  8
Ebene_1
 62
7
100
AcDbSpline
 70
8
 71
3
 72
8
 73
4
 74
0
 40
0
 40
0
 40
0
 40
0
 40
1
 40
1
 40
1
 40
1
 10
56.234651
 20
43.898383
 30
0.0
 10
56.234651
 20
42.679593
 30
0.0
 10
56.679306
 20
41.587750
 30
0.0
 10
57.529997
 20
40.714068
 30
0.0
  0
LWPOLYLINE
  5
148
100
AcDbEntity
  8
Ebene_1
 62
7
100
AcDbPolyline
 90
2
 70
0
 10
56.234651
 20
44.367419
 30
0.0
 10
56.234651
 20
43.898383
 30
0.0
  0
SPLINE
  5
149
100
AcDbEntity
  8
Ebene_1
 62
7
100
AcDbSpline
 70
8
 71
3
 72
8
 73
4
 74
0
 40
0
 40
0
 40
0
 40
0
 40
1
 40
1
 40
1
 40
1
 10
57.533749
 20
40.708533
 30
0.0
 10
58.389074
 20
39.853203
 30
0.0
 10
59.485849
 20
39.409523
 30
0.0
 10
60.723560
 20
39.409523
 30
0.0
  0
LWPOLYLINE
  5
14a
100
AcDbEntity
  8
Ebene_1
 62
7
100
AcDbPolyline
 90
3
 70
0
 10
57.529997
 20
40.714068
 30
0.0
 10
57.531873
 20
40.712192
 30
0.0
 10
57.533749
 20
40.708533
 30
0.0
  0
SPLINE
  5
14b
100
AcDbEntity
  8
Ebene_1
 62
7
100
AcDbSpline
 70
8
 71
3
 72
8
 73
4
 74
0
 40
0
 40
0
 40
0
 40
0
 40
1
 40
1
 40
1
 40
1
 10
76.802695
 20
39.409523
 30
0.0
 10
78.002649
 20
39.409523
 30
0.0
 10
79.085493
 20
39.855613
 30
0.0
 10
79.957694
 20
40.704868
 30
0.0
  0
SPLINE
  5
14c
100
AcDbEntity
  8
Ebene_1
 62
7
100
AcDbSpline
 70
8
 71
3
 72
8
 73
4
 74
0
 40
0
 40
0
 40
0
 40
0
 40
1
 40
1
 40
1
 40
1
 10
79.957694
 20
40.704868
 30
0.0
 10
80.835007
 20
41.559087
 30
0.0
 10
81.291520
 20
42.657744
 30
0.0
 10
81.291520
 20
43.898344
 30
0.0
  0
LWPOLYLINE
  5
14d
100
AcDbEntity
  8
Ebene_1
 62
7
100
AcDbPolyline
 90
2
 70
0
 10
60.723560
 20
39.409523
 30
0.0
 10
76.802695
 20
39.409523
 30
0.0
  0
LWPOLYLINE
  5
14e
100
AcDbEntity
  8
Ebene_1
 62
7
100
AcDbPolyline
 90
3
 70
0
 10
81.291520
 20
43.898344
 30
0.0
 10
81.291520
 20
44.367380
 30
0.0
 10
56.234651
 20
44.367419
 30
0.0
  0
SPLINE
  5
14f
100
AcDbEntity
  8
Ebene_1
 62
7
100
AcDbSpline
 70
8
 71
3
 72
8
 73
4
 74
0
 40
0
 40
0
 40
0
 40
0
 40
1
 40
1
 40
1
 40
1
 10
56.234651
 20
51.937953
 30
0.0
 10
56.234651
 20
50.719163
 30
0.0
 10
56.679306
 20
49.627321
 30
0.0
 10
57.529997
 20
48.753639
 30
0.0
  0
LWPOLYLINE
  5
150
100
AcDbEntity
  8
Ebene_1
 62
7
100
AcDbPolyline
 90
2
 70
0
 10
56.234651
 20
52.406989
 30
0.0
 10
56.234651
 20
51.937953
 30
0.0
  0
SPLINE
  5
151
100
AcDbEntity
  8
Ebene_1
 62
7
100
AcDbSpline
 70
8
 71
3
 72
8
 73
4
 74
0
 40
0
 40
0
 40
0
 40
0
 40
1
 40
1
 40
1
 40
1
 10
57.533749
 20
48.748104
 30
0.0
 10
58.389074
 20
47.892775
 30
0.0
 10
59.485849
 20
47.449094
 30
0.0
 10
60.723560
 20
47.449094
 30
0.0
  0
LWPOLYLINE
  5
152
100
AcDbEntity
  8
Ebene_1
 62
7
100
AcDbPolyline
 90
3
 70
0
 10
57.529997
 20
48.753639
 30
0.0
 10
57.531873
 20
48.751763
 30
0.0
 10
57.533749
 20
48.748104
 30
0.0
  0
SPLINE
  5
153
100
AcDbEntity
  8
Ebene_1
 62
7
100
AcDbSpline
 70
8
 71
3
 72
8
 73
4
 74
0
 40
0
 40
0
 40
0
 40
0
 40
1
 40
1
 40
1
 40
1
 10
76.802695
 20
47.449094
 30
0.0
 10
78.002649
 20
47.449094
 30
0.0
 10
79.085493
 20
47.895184
 30
0.0
 10
79.957694
 20
48.744440
 30
0.0
  0
SPLINE
  5
154
100
AcDbEntity
  8
Ebene_1
 62
7
100
AcDbSpline
 70
8
 71
3
 72
8
 73
4
 74
0
 40
0
 40
0
 40
0
 40
0
 40
1
 40
1
 40
1
 40
1
 10
79.957694
 20
48.744440
 30
0.0
 10
80.835007
 20
49.598659
 30
0.0
 10
81.291520
 20
50.697316
 30
0.0
 10
81.291520
 20
51.937916
 30
0.0
  0
LWPOLYLINE
  5
155
100
AcDbEntity
  8
Ebene_1
 62
7
100
AcDbPolyline
 90
2
 70
0
 10
60.723560
 20
47.449094
 30
0.0
 10
76.802695
 20
47.449094
 30
0.0
  0
LWPOLYLINE
  5
156
100
AcDbEntity
  8
Ebene_1
 62
7
100
AcDbPolyline
 90
3
 70
0
 10
81.291520
 20
51.937916
 30
0.0
 10
81.291520
 20
52.406952
 30
0.0
 10
56.234651
 20
52.406989
 30
0.0
  0
SPLINE
  5
157
100
AcDbEntity
  8
Ebene_1
 62
7
100
AcDbSpline
 70
8
 71
3
 72
8
 73
4
 74
0
 40
0
 40
0
 40
0
 40
0
 40
1
 40
1
 40
1
 40
1
 10
56.234651
 20
59.977523
 30
0.0
 10
56.234651
 20
58.758734
 30
0.0
 10
56.679306
 20
57.666890
 30
0.0
 10
57.529997
 20
56.793208
 30
0.0
  0
LWPOLYLINE
  5
158
100
AcDbEntity
  8
Ebene_1
 62
7
100
AcDbPolyline
 90
2
 70
0
 10
56.234651
 20
60.446559
 30
0.0
 10
56.234651
 20
59.977523
 30
0.0
  0
SPLINE
  5
159
100
AcDbEntity
  8
Ebene_1
 62
7
100
AcDbSpline
 70
8
 71
3
 72
8
 73
4
 74
0
 40
0
 40
0
 40
0
 40
0
 40
1
 40
1
 40
1
 40
1
 10
57.533749
 20
56.789456
 30
0.0
 10
58.389074
 20
55.934126
 30
0.0
 10
59.485849
 20
55.488614
 30
0.0
 10
60.723560
 20
55.488614
 30
0.0
  0
LWPOLYLINE
  5
15a
100
AcDbEntity
  8
Ebene_1
 62
7
100
AcDbPolyline
 90
3
 70
0
 10
57.529997
 20
56.793208
 30
0.0
 10
57.531873
 20
56.791332
 30
0.0
 10
57.533749
 20
56.789456
 30
0.0
  0
SPLINE
  5
15b
100
AcDbEntity
  8
Ebene_1
 62
7
100
AcDbSpline
 70
8
 71
3
 72
8
 73
4
 74
0
 40
0
 40
0
 40
0
 40
0
 40
1
 40
1
 40
1
 40
1
 10
76.802695
 20
55.488614
 30
0.0
 10
78.002649
 20
55.488614
 30
0.0
 10
79.085493
 20
55.934704
 30
0.0
 10
79.957694
 20
56.783959
 30
0.0
  0
SPLINE
  5
15c
100
AcDbEntity
  8
Ebene_1
 62
7
100
AcDbSpline
 70
8
 71
3
 72
8
 73
4
 74
0
 40
0
 40
0
 40
0
 40
0
 40
1
 40
1
 40
1
 40
1
 10
79.957694
 20
56.783959
 30
0.0
 10
80.835007
 20
57.638178
 30
0.0
 10
81.291520
 20
58.736835
 30
0.0
 10
81.291520
 20
59.977435
 30
0.0
  0
LWPOLYLINE
  5
15d
100
AcDbEntity
  8
Ebene_1
 62
7
100
AcDbPolyline
 90
2
 70
0
 10
60.723560
 20
55.488614
 30
0.0
 10
76.802695
 20
55.488614
 30
0.0
  0
LWPOLYLINE
  5
15e
100
AcDbEntity
  8
Ebene_1
 62
7
100
AcDbPolyline
 90
3
 70
0
 10
81.291520
 20
59.977435
 30
0.0
 10
81.291520
 20
60.446471
 30
0.0
 10
56.234651
 20
60.446559
 30
0.0
  0
SPLINE
  5
15f
100
AcDbEntity
  8
Ebene_1
 62
7
100
AcDbSpline
 70
8
 71
3
 72
8
 73
4
 74
0
 40
0
 40
0
 40
0
 40
0
 40
1
 40
1
 40
1
 40
1
 10
91.960166
 20
44.367419
 30
0.0
 10
90.738430
 20
44.367419
 30
0.0
 10
89.643044
 20
43.909951
 30
0.0
 10
88.770355
 20
43.037263
 30
0.0
  0
SPLINE
  5
160
100
AcDbEntity
  8
Ebene_1
 62
7
100
AcDbSpline
 70
8
 71
3
 72
8
 73
4
 74
0
 40
0
 40
0
 40
0
 40
0
 40
1
 40
1
 40
1
 40
1
 10
88.770355
 20
43.037263
 30
0.0
 10
87.916522
 20
42.183426
 30
0.0
 10
87.471351
 20
41.097387
 30
0.0
 10
87.471351
 20
39.878598
 30
0.0
  0
LWPOLYLINE
  5
161
100
AcDbEntity
  8
Ebene_1
 62
7
100
AcDbPolyline
 90
5
 70
0
 10
87.471351
 20
60.446559
 30
0.0
 10
87.471351
 20
47.449131
 30
0.0
 10
107.570275
 20
47.449131
 30
0.0
 10
107.570275
 20
44.367419
 30
0.0
 10
91.960166
 20
44.367419
 30
0.0
  0
SPLINE
  5
162
100
AcDbEntity
  8
Ebene_1
 62
7
100
AcDbSpline
 70
8
 71
3
 72
8
 73
4
 74
0
 40
0
 40
0
 40
0
 40
0
 40
1
 40
1
 40
1
 40
1
 10
108.039311
 20
55.488702
 30
0.0
 10
109.239264
 20
55.488702
 30
0.0
 10
110.320270
 20
55.934792
 30
0.0
 10
111.192480
 20
56.784047
 30
0.0
  0
SPLINE
  5
163
100
AcDbEntity
  8
Ebene_1
 62
7
100
AcDbSpline
 70
8
 71
3
 72
8
 73
4
 74
0
 40
0
 40
0
 40
0
 40
0
 40
1
 40
1
 40
1
 40
1
 10
111.192480
 20
56.784047
 30
0.0
 10
112.069784
 20
57.638267
 30
0.0
 10
112.528126
 20
58.736924
 30
0.0
 10
112.528126
 20
59.977523
 30
0.0
  0
LWPOLYLINE
  5
164
100
AcDbEntity
  8
Ebene_1
 62
7
100
AcDbPolyline
 90
8
 70
0
 10
87.471351
 20
39.878598
 30
0.0
 10
87.471351
 20
39.409562
 30
0.0
 10
87.940387
 20
39.409562
 30
0.0
 10
112.528126
 20
39.409562
 30
0.0
 10
112.528126
 20
52.406989
 30
0.0
 10
92.429202
 20
52.406989
 30
0.0
 10
92.429202
 20
55.488702
 30
0.0
 10
108.039311
 20
55.488702
 30
0.0
  0
LWPOLYLINE
  5
165
100
AcDbEntity
  8
Ebene_1
 62
7
100
AcDbPolyline
 90
3
 70
0
 10
112.528126
 20
59.977523
 30
0.0
 10
112.528126
 20
60.446559
 30
0.0
 10
87.471351
 20
60.446559
 30
0.0
  0
SPLINE
  5
166
100
AcDbEntity
  8
Ebene_1
 62
7
100
AcDbSpline
 70
8
 71
3
 72
8
 73
4
 74
0
 40
0
 40
0
 40
0
 40
0
 40
1
 40
1
 40
1
 40
1
 10
139.274172
 20
39.409562
 30
0.0
 10
140.474126
 20
39.409562
 30
0.0
 10
141.556971
 20
39.855652
 30
0.0
 10
142.429171
 20
40.704907
 30
0.0
  0
SPLINE
  5
167
100
AcDbEntity
  8
Ebene_1
 62
7
100
AcDbSpline
 70
8
 71
3
 72
8
 73
4
 74
0
 40
0
 40
0
 40
0
 40
0
 40
1
 40
1
 40
1
 40
1
 10
142.429171
 20
40.704907
 30
0.0
 10
143.306475
 20
41.559127
 30
0.0
 10
143.762997
 20
42.657783
 30
0.0
 10
143.762997
 20
43.898383
 30
0.0
  0
LWPOLYLINE
  5
168
100
AcDbEntity
  8
Ebene_1
 62
7
100
AcDbPolyline
 90
4
 70
0
 10
118.706212
 20
60.446559
 30
0.0
 10
118.706212
 20
39.409562
 30
0.0
 10
119.175248
 20
39.409562
 30
0.0
 10
139.274172
 20
39.409562
 30
0.0
  0
SPLINE
  5
169
100
AcDbEntity
  8
Ebene_1
 62
7
100
AcDbSpline
 70
8
 71
3
 72
8
 73
4
 74
0
 40
0
 40
0
 40
0
 40
0
 40
1
 40
1
 40
1
 40
1
 10
22.500000
 20
280.000000
 30
0.0
 10
21.488844
 20
280.000000
 30
0.0
 10
20.577254
 20
279.390895
 30
0.0
 10
20.190301
 20
278.456709
 30
0.0
  0
SPLINE
  5
16a
100
AcDbEntity
  8
Ebene_1
 62
7
100
AcDbSpline
 70
8
 71
3
 72
8
 73
4
 74
0
 40
0
 40
0
 40
0
 40
0
 40
1
 40
1
 40
1
 40
1
 10
20.190301
 20
278.456709
 30
0.0
 10
19.803349
 20
277.522523
 30
0.0
 10
20.017238
 20
276.447228
 30
0.0
 10
20.732233
 20
275.732233
 30
0.0
  0
SPLINE
  5
16b
100
AcDbEntity
  8
Ebene_1
 62
7
100
AcDbSpline
 70
8
 71
3
 72
8
 73
4
 74
0
 40
0
 40
0
 40
0
 40
0
 40
1
 40
1
 40
1
 40
1
 10
20.732233
 20
275.732233
 30
0.0
 10
21.447228
 20
275.017238
 30
0.0
 10
22.522523
 20
274.803349
 30
0.0
 10
23.456709
 20
275.190301
 30
0.0
  0
SPLINE
  5
16c
100
AcDbEntity
  8
Ebene_1
 62
7
100
AcDbSpline
 70
8
 71
3
 72
8
 73
4
 74
0
 40
0
 40
0
 40
0
 40
0
 40
1
 40
1
 40
1
 40
1
 10
23.456709
 20
275.190301
 30
0.0
 10
24.390895
 20
275.577254
 30
0.0
 10
25.000000
 20
276.488844
 30
0.0
 10
25.000000
 20
277.500000
 30
0.0
  0
SPLINE
  5
16d
100
AcDbEntity
  8
Ebene_1
 62
7
100
AcDbSpline
 70
8
 71
3
 72
8
 73
4
 74
0
 40
0
 40
0
 40
0
 40
0
 40
1
 40
1
 40
1
 40
1
 10
25.000000
 20
277.500000
 30
0.0
 10
25.000000
 20
278.163041
 30
0.0
 10
24.736608
 20
278.798926
 30
0.0
 10
24.267767
 20
279.267767
 30
0.0
  0
SPLINE
  5
16e
100
AcDbEntity
  8
Ebene_1
 62
7
100
AcDbSpline
 70
8
 71
3
 72
8
 73
4
 74
0
 40
0
 40
0
 40
0
 40
0
 40
1
 40
1
 40
1
 40
1
 10
24.267767
 20
279.267767
 30
0.0
 10
23.798926
 20
279.736608
 30
0.0
 10
23.163041
 20
280.000000
 30
0.0
 10
22.500000
 20
280.000000
 30
0.0
  0
LWPOLYLINE
  5
16f
100
AcDbEntity
  8
Ebene_1
 62
7
100
AcDbPolyline
 90
5
 70
0
 10
143.762997
 20
43.898383
 30
0.0
 10
143.762997
 20
44.367419
 30
0.0
 10
123.664073
 20
44.367419
 30
0.0
 10
123.664073
 20
60.446559
 30
0.0
 10
118.706212
 20
60.446559
 30
0.0
  0
SPLINE
  5
170
100
AcDbEntity
  8
Ebene_1
 62
7
100
AcDbSpline
 70
8
 71
3
 72
8
 73
4
 74
0
 40
0
 40
0
 40
0
 40
0
 40
1
 40
1
 40
1
 40
1
 10
177.500000
 20
280.000000
 30
0.0
 10
176.488844
 20
280.000000
 30
0.0
 10
175.577254
 20
279.390895
 30
0.0
 10
175.190301
 20
278.456709
 30
0.0
  0
SPLINE
  5
171
100
AcDbEntity
  8
Ebene_1
 62
7
100
AcDbSpline
 70
8
 71
3
 72
8
 73
4
 74
0
 40
0
 40
0
 40
0
 40
0
 40
1
 40
1
 40
1
 40
1
 10
175.190301
 20
278.456709
 30
0.0
 10
174.803349
 20
277.522523
 30
0.0
 10
175.017238
 20
276.447228
 30
0.0
 10
175.732233
 20
275.732233
 30
0.0
  0
SPLINE
  5
172
100
AcDbEntity
  8
Ebene_1
 62
7
100
AcDbSpline
 70
8
 71
3
 72
8
 73
4
 74
0
 40
0
 40
0
 40
0
 40
0
 40
1
 40
1
 40
1
 40
1
 10
175.732233
 20
275.732233
 30
0.0
 10
176.447228
 20
275.017238
 30
0.0
 10
177.522523
 20
274.803349
 30
0.0
 10
178.456709
 20
275.190301
 30
0.0
  0
SPLINE
  5
173
100
AcDbEntity
  8
Ebene_1
 62
7
100
AcDbSpline
 70
8
 71
3
 72
8
 73
4
 74
0
 40
0
 40
0
 40
0
 40
0
 40
1
 40
1
 40
1
 40
1
 10
178.456709
 20
275.190301
 30
0.0
 10
179.390895
 20
275.577254
 30
0.0
 10
180.000000
 20
276.488844
 30
0.0
 10
180.000000
 20
277.500000
 30
0.0
  0
SPLINE
  5
174
100
AcDbEntity
  8
Ebene_1
 62
7
100
AcDbSpline
 70
8
 71
3
 72
8
 73
4
 74
0
 40
0
 40
0
 40
0
 40
0
 40
1
 40
1
 40
1
 40
1
 10
180.000000
 20
277.500000
 30
0.0
 10
180.000000
 20
278.163041
 30
0.0
 10
179.736608
 20
278.798926
 30
0.0
 10
179.267767
 20
279.267767
 30
0.0
  0
SPLINE
  5
175
100
AcDbEntity
  8
Ebene_1
 62
7
100
AcDbSpline
 70
8
 71
3
 72
8
 73
4
 74
0
 40
0
 40
0
 40
0
 40
0
 40
1
 40
1
 40
1
 40
1
 10
179.267767
 20
279.267767
 30
0.0
 10
178.798926
 20
279.736608
 30
0.0
 10
178.163041
 20
280.000000
 30
0.0
 10
177.500000
 20
280.000000
 30
0.0
  0
LWPOLYLINE
  5
176
100
AcDbEntity
  8
Ebene_1
 62
7
100
AcDbPolyline
 90
1
 70
1
 10
22.500000
 20
280.000000
 30
0.0
  0
SPLINE
  5
177
100
AcDbEntity
  8
Ebene_1
 62
7
100
AcDbSpline
 70
8
 71
3
 72
8
 73
4
 74
0
 40
0
 40
0
 40
0
 40
0
 40
1
 40
1
 40
1
 40
1
 10
177.500000
 20
25.000030
 30
0.0
 10
176.488844
 20
25.000030
 30
0.0
 10
175.577254
 20
24.390925
 30
0.0
 10
175.190301
 20
23.456739
 30
0.0
  0
SPLINE
  5
178
100
AcDbEntity
  8
Ebene_1
 62
7
100
AcDbSpline
 70
8
 71
3
 72
8
 73
4
 74
0
 40
0
 40
0
 40
0
 40
0
 40
1
 40
1
 40
1
 40
1
 10
175.190301
 20
23.456739
 30
0.0
 10
174.803349
 20
22.522553
 30
0.0
 10
175.017238
 20
21.447258
 30
0.0
 10
175.732233
 20
20.732263
 30
0.0
  0
SPLINE
  5
179
100
AcDbEntity
  8
Ebene_1
 62
7
100
AcDbSpline
 70
8
 71
3
 72
8
 73
4
 74
0
 40
0
 40
0
 40
0
 40
0
 40
1
 40
1
 40
1
 40
1
 10
175.732233
 20
20.732263
 30
0.0
 10
176.447228
 20
20.017268
 30
0.0
 10
177.522523
 20
19.803379
 30
0.0
 10
178.456709
 20
20.190331
 30
0.0
  0
SPLINE
  5
17a
100
AcDbEntity
  8
Ebene_1
 62
7
100
AcDbSpline
 70
8
 71
3
 72
8
 73
4
 74
0
 40
0
 40
0
 40
0
 40
0
 40
1
 40
1
 40
1
 40
1
 10
178.456709
 20
20.190331
 30
0.0
 10
179.390895
 20
20.577284
 30
0.0
 10
180.000000
 20
21.488874
 30
0.0
 10
180.000000
 20
22.500030
 30
0.0
  0
SPLINE
  5
17b
100
AcDbEntity
  8
Ebene_1
 62
7
100
AcDbSpline
 70
8
 71
3
 72
8
 73
4
 74
0
 40
0
 40
0
 40
0
 40
0
 40
1
 40
1
 40
1
 40
1
 10
180.000000
 20
22.500030
 30
0.0
 10
180.000000
 20
23.163071
 30
0.0
 10
179.736608
 20
23.798956
 30
0.0
 10
179.267767
 20
24.267797
 30
0.0
  0
SPLINE
  5
17c
100
AcDbEntity
  8
Ebene_1
 62
7
100
AcDbSpline
 70
8
 71
3
 72
8
 73
4
 74
0
 40
0
 40
0
 40
0
 40
0
 40
1
 40
1
 40
1
 40
1
 10
179.267767
 20
24.267797
 30
0.0
 10
178.798926
 20
24.736638
 30
0.0
 10
178.163041
 20
25.000030
 30
0.0
 10
177.500000
 20
25.000030
 30
0.0
  0
LWPOLYLINE
  5
17d
100
AcDbEntity
  8
Ebene_1
 62
7
100
AcDbPolyline
 90
1
 70
1
 10
177.500000
 20
280.000000
 30
0.0
  0
SPLINE
  5
17e
100
AcDbEntity
  8
Ebene_1
 62
7
100
AcDbSpline
 70
8
 71
3
 72
8
 73
4
 74
0
 40
0
 40
0
 40
0
 40
0
 40
1
 40
1
 40
1
 40
1
 10
22.500000
 20
25.000030
 30
0.0
 10
21.488844
 20
25.000030
 30
0.0
 10
20.577254
 20
24.390925
 30
0.0
 10
20.190301
 20
23.456739
 30
0.0
  0
SPLINE
  5
17f
100
AcDbEntity
  8
Ebene_1
 62
7
100
AcDbSpline
 70
8
 71
3
 72
8
 73
4
 74
0
 40
0
 40
0
 40
0
 40
0
 40
1
 40
1
 40
1
 40
1
 10
20.190301
 20
23.456739
 30
0.0
 10
19.803349
 20
22.522553
 30
0.0
 10
20.017238
 20
21.447258
 30
0.0
 10
20.732233
 20
20.732263
 30
0.0
  0
SPLINE
  5
180
100
AcDbEntity
  8
Ebene_1
 62
7
100
AcDbSpline
 70
8
 71
3
 72
8
 73
4
 74
0
 40
0
 40
0
 40
0
 40
0
 40
1
 40
1
 40
1
 40
1
 10
20.732233
 20
20.732263
 30
0.0
 10
21.447228
 20
20.017268
 30
0.0
 10
22.522523
 20
19.803379
 30
0.0
 10
23.456709
 20
20.190331
 30
0.0
  0
SPLINE
  5
181
100
AcDbEntity
  8
Ebene_1
 62
7
100
AcDbSpline
 70
8
 71
3
 72
8
 73
4
 74
0
 40
0
 40
0
 40
0
 40
0
 40
1
 40
1
 40
1
 40
1
 10
23.456709
 20
20.190331
 30
0.0
 10
24.390895
 20
20.577284
 30
0.0
 10
25.000000
 20
21.488874
 30
0.0
 10
25.000000
 20
22.500030
 30
0.0
  0
SPLINE
  5
182
100
AcDbEntity
  8
Ebene_1
 62
7
100
AcDbSpline
 70
8
 71
3
 72
8
 73
4
 74
0
 40
0
 40
0
 40
0
 40
0
 40
1
 40
1
 40
1
 40
1
 10
25.000000
 20
22.500030
 30
0.0
 10
25.000000
 20
23.163071
 30
0.0
 10
24.736608
 20
23.798956
 30
0.0
 10
24.267767
 20
24.267797
 30
0.0
  0
SPLINE
  5
183
100
AcDbEntity
  8
Ebene_1
 62
7
100
AcDbSpline
 70
8
 71
3
 72
8
 73
4
 74
0
 40
0
 40
0
 40
0
 40
0
 40
1
 40
1
 40
1
 40
1
 10
24.267767
 20
24.267797
 30
0.0
 10
23.798926
 20
24.736638
 30
0.0
 10
23.163041
 20
25.000030
 30
0.0
 10
22.500000
 20
25.000030
 30
0.0
  0
LWPOLYLINE
  5
184
100
AcDbEntity
  8
Ebene_1
 62
7
100
AcDbPolyline
 90
1
 70
1
 10
177.500000
 20
25.000030
 30
0.0
  0
LWPOLYLINE
  5
185
100
AcDbEntity
  8
Ebene_1
 62
7
100
AcDbPolyline
 90
1
 70
1
 10
22.500000
 20
25.000030
 30
0.0
  0
ENDSEC
  0
SECTION
  2
OBJECTS
  0
DICTIONARY
  5
C
330
0
100
AcDbDictionary
  3
ACAD_GROUP
350
D
  3
ACAD_MLINESTYLE
350
17
  0
DICTIONARY
  5
D
330
C
100
AcDbDictionary
  0
DICTIONARY
  5
1A
330
C
100
AcDbDictionary
  0
DICTIONARY
  5
17
330
C
100
AcDbDictionary
  3
STANDARD
350
18
  0
DICTIONARY
  5
19
330
C
100
AcDbDictionary
  0
ENDSEC
  0
EOF
