  0
SECTION
  2
HEADER
  9
$ACADVER
  1
AC1014
  9
$HANDSEED
  5
FFFF
  9
$MEASUREMENT
 70
     1
  0
ENDSEC
  0
SECTION
  2
TABLES
  0
TABLE
  2
VPORT
  5
8
330
0
100
AcDbSymbolTable
 70
     4
  0
VPORT
  5
2E
330
8
100
AcDbSymbolTableRecord
100
AcDbViewportTableRecord
  2
*ACTIVE
 70
     0
 10
0.0
 20
0.0
 11
1.0
 21
1.0
 12
210.0
 22
148.5
 13
0.0
 23
0.0
 14
10.0
 24
10.0
 15
10.0
 25
10.0
 16
0.0
 26
0.0
 36
1.0
 17
0.0
 27
0.0
 37
0.0
 40
341.0
 41
1.24
 42
50.0
 43
0.0
 44
0.0
 50
0.0
 51
0.0
 71
     0
 72
   100
 73
     1
 74
     3
 75
     0
 76
     0
 77
     0
 78
     0
  0
ENDTAB
  0
TABLE
  2
LTYPE
  5
5
330
0
100
AcDbSymbolTable
 70
     1
  0
LTYPE
  5
14
330
5
100
AcDbSymbolTableRecord
100
AcDbLinetypeTableRecord
  2
BYBLOCK
 70
     0
  3

 72
    65
 73
     0
 40
0.0
  0
LTYPE
  5
15
330
5
100
AcDbSymbolTableRecord
100
AcDbLinetypeTableRecord
  2
BYLAYER
 70
     0
  3

 72
    65
 73
     0
 40
0.0
  0
LTYPE
  5
16
330
5
100
AcDbSymbolTableRecord
100
AcDbLinetypeTableRecord
  2
CONTINUOUS
 70
     0
  3
Solid line
 72
    65
 73
     0
 40
0.0
  0
ENDTAB
  0
TABLE
  2
LAYER
  5
2
100
AcDbSymbolTable
 70
2
  0
LAYER
  5
50
100
AcDbSymbolTableRecord
100
AcDbLayerTableRecord
  2
0
 70
0
  6
CONTINUOUS
  0
LAYER
  5
51
100
AcDbSymbolTableRecord
100
AcDbLayerTableRecord
  2
Ebene_1
 70
0
  6
CONTINUOUS
  0
ENDTAB
  0
TABLE
  2
STYLE
  5
3
330
0
100
AcDbSymbolTable
 70
     1
  0
STYLE
  5
11
330
3
100
AcDbSymbolTableRecord
100
AcDbTextStyleTableRecord
  2
STANDARD
 70
     0
 40
0.0
 41
1.0
 50
0.0
 71
     0
 42
2.5
  3
txt
  4

  0
ENDTAB
  0
TABLE
  2
VIEW
  5
6
330
0
100
AcDbSymbolTable
 70
     0
  0
ENDTAB
  0
TABLE
  2
UCS
  5
7
330
0
100
AcDbSymbolTable
 70
     0
  0
ENDTAB
  0
TABLE
  2
APPID
  5
9
330
0
100
AcDbSymbolTable
 70
     2
  0
APPID
  5
12
330
9
100
AcDbSymbolTableRecord
100
AcDbRegAppTableRecord
  2
ACAD
 70
     0
  0
ENDTAB
  0
TABLE
  2
DIMSTYLE
  5
A
330
0
100
AcDbSymbolTable
 70
     1
  0
DIMSTYLE
105
27
330
A
100
AcDbSymbolTableRecord
100
AcDbDimStyleTableRecord
  2
ISO-25
 70
     0
  3

  4

  5

  6

  7

 40
1.0
 41
2.5
 42
0.625
 43
3.75
 44
1.25
 45
0.0
 46
0.0
 47
0.0
 48
0.0
140
2.5
141
2.5
142
0.0
143
0.03937007874016
144
1.0
145
0.0
146
1.0
147
0.625
 71
     0
 72
     0
 73
     0
 74
     0
 75
     0
 76
     0
 77
     1
 78
     8
170
     0
171
     3
172
     1
173
     0
174
     0
175
     0
176
     0
177
     0
178
     0
270
     2
271
     2
272
     2
273
     2
274
     3
340
11
275
     0
280
     0
281
     0
282
     0
283
     0
284
     8
285
     0
286
     0
287
     3
288
     0
  0
ENDTAB
  0
TABLE
  2
BLOCK_RECORD
  5
1
330
0
100
AcDbSymbolTable
 70
     1
  0
BLOCK_RECORD
  5
1F
330
1
100
AcDbSymbolTableRecord
100
AcDbBlockTableRecord
  2
*MODEL_SPACE
  0
BLOCK_RECORD
  5
1B
330
1
100
AcDbSymbolTableRecord
100
AcDbBlockTableRecord
  2
*PAPER_SPACE
  0
ENDTAB
  0
ENDSEC
  0
SECTION
  2
BLOCKS
  0
BLOCK
  5
20
330
1F
100
AcDbEntity
  8
0
100
AcDbBlockBegin
  2
*MODEL_SPACE
 70
     0
 10
0.0
 20
0.0
 30
0.0
  3
*MODEL_SPACE
  1

  0
ENDBLK
  5
21
330
1F
100
AcDbEntity
  8
0
100
AcDbBlockEnd
  0
BLOCK
  5
1C
330
1B
100
AcDbEntity
 67
     1
  8
0
100
AcDbBlockBegin
  2
*PAPER_SPACE
  1

  0
ENDBLK
  5
1D
330
1B
100
AcDbEntity
 67
     1
  8
0
100
AcDbBlockEnd
  0
ENDSEC
  0
SECTION
  2
ENTITIES
  0
SPLINE
  5
100
100
AcDbEntity
  8
Ebene_1
 62
7
100
AcDbSpline
 70
8
 71
3
 72
8
 73
4
 74
0
 40
0
 40
0
 40
0
 40
0
 40
1
 40
1
 40
1
 40
1
 10
218.138000
 20
277.468066
 30
0.0
 10
203.775750
 20
277.468066
 30
0.0
 10
192.055150
 20
265.824717
 30
0.0
 10
192.055150
 20
251.557135
 30
0.0
  0
LWPOLYLINE
  5
101
100
AcDbEntity
  8
Ebene_1
 62
7
100
AcDbPolyline
 90
4
 70
1
 10
0.000000
 20
299.599980
 30
0.0
 10
380.000000
 20
299.599980
 30
0.0
 10
380.000000
 20
0.000000
 30
0.0
 10
0.000000
 20
0.000000
 30
0.0
  0
SPLINE
  5
102
100
AcDbEntity
  8
Ebene_1
 62
7
100
AcDbSpline
 70
8
 71
3
 72
8
 73
4
 74
0
 40
0
 40
0
 40
0
 40
0
 40
1
 40
1
 40
1
 40
1
 10
192.055150
 20
48.334146
 30
0.0
 10
192.055150
 20
34.066586
 30
0.0
 10
203.775750
 20
22.423226
 30
0.0
 10
218.138000
 20
22.423226
 30
0.0
  0
LWPOLYLINE
  5
103
100
AcDbEntity
  8
Ebene_1
 62
7
100
AcDbPolyline
 90
2
 70
0
 10
192.055150
 20
251.557135
 30
0.0
 10
192.055150
 20
48.334146
 30
0.0
  0
SPLINE
  5
104
100
AcDbEntity
  8
Ebene_1
 62
7
100
AcDbSpline
 70
8
 71
3
 72
8
 73
4
 74
0
 40
0
 40
0
 40
0
 40
0
 40
1
 40
1
 40
1
 40
1
 10
340.880860
 20
22.423226
 30
0.0
 10
355.243100
 20
22.423226
 30
0.0
 10
366.963720
 20
34.066586
 30
0.0
 10
366.963720
 20
48.334146
 30
0.0
  0
LWPOLYLINE
  5
105
100
AcDbEntity
  8
Ebene_1
 62
7
100
AcDbPolyline
 90
2
 70
0
 10
218.138000
 20
22.423226
 30
0.0
 10
340.880860
 20
22.423226
 30
0.0
  0
SPLINE
  5
106
100
AcDbEntity
  8
Ebene_1
 62
7
100
AcDbSpline
 70
8
 71
3
 72
8
 73
4
 74
0
 40
0
 40
0
 40
0
 40
0
 40
1
 40
1
 40
1
 40
1
 10
366.963720
 20
251.557135
 30
0.0
 10
366.963720
 20
265.824717
 30
0.0
 10
355.243100
 20
277.468066
 30
0.0
 10
340.880860
 20
277.468066
 30
0.0
  0
LWPOLYLINE
  5
107
100
AcDbEntity
  8
Ebene_1
 62
7
100
AcDbPolyline
 90
2
 70
0
 10
366.963720
 20
48.334146
 30
0.0
 10
366.963720
 20
251.557135
 30
0.0
  0
LWPOLYLINE
  5
108
100
AcDbEntity
  8
Ebene_1
 62
7
100
AcDbPolyline
 90
2
 70
0
 10
340.880860
 20
277.468066
 30
0.0
 10
218.138000
 20
277.468066
 30
0.0
  0
SPLINE
  5
109
100
AcDbEntity
  8
Ebene_1
 62
7
100
AcDbSpline
 70
8
 71
3
 72
8
 73
4
 74
0
 40
0
 40
0
 40
0
 40
0
 40
1
 40
1
 40
1
 40
1
 10
330.971552
 20
76.572966
 30
0.0
 10
330.971552
 20
75.465907
 30
0.0
 10
331.346540
 20
74.469042
 30
0.0
 10
332.061919
 20
73.675461
 30
0.0
  0
LWPOLYLINE
  5
10a
100
AcDbEntity
  8
Ebene_1
 62
7
100
AcDbPolyline
 90
2
 70
0
 10
330.971552
 20
84.276842
 30
0.0
 10
330.971552
 20
76.572966
 30
0.0
  0
SPLINE
  5
10b
100
AcDbEntity
  8
Ebene_1
 62
7
100
AcDbSpline
 70
8
 71
3
 72
8
 73
4
 74
0
 40
0
 40
0
 40
0
 40
0
 40
1
 40
1
 40
1
 40
1
 10
332.065290
 20
73.671912
 30
0.0
 10
332.784890
 20
72.894654
 30
0.0
 10
333.710628
 20
72.488779
 30
0.0
 10
334.751194
 20
72.488779
 30
0.0
  0
LWPOLYLINE
  5
10c
100
AcDbEntity
  8
Ebene_1
 62
7
100
AcDbPolyline
 90
3
 70
0
 10
332.061919
 20
73.675461
 30
0.0
 10
332.063605
 20
73.673686
 30
0.0
 10
332.065290
 20
73.671912
 30
0.0
  0
SPLINE
  5
10d
100
AcDbEntity
  8
Ebene_1
 62
7
100
AcDbSpline
 70
8
 71
3
 72
8
 73
4
 74
0
 40
0
 40
0
 40
0
 40
0
 40
1
 40
1
 40
1
 40
1
 10
337.677179
 20
83.815883
 30
0.0
 10
337.677179
 20
82.708815
 30
0.0
 10
338.052168
 20
81.713760
 30
0.0
 10
338.767545
 20
80.920179
 30
0.0
  0
LWPOLYLINE
  5
10e
100
AcDbEntity
  8
Ebene_1
 62
7
100
AcDbPolyline
 90
5
 70
0
 10
334.751194
 20
72.488779
 30
0.0
 10
351.943645
 20
72.488779
 30
0.0
 10
351.943645
 20
84.276887
 30
0.0
 10
337.677179
 20
84.276887
 30
0.0
 10
337.677179
 20
83.815883
 30
0.0
  0
SPLINE
  5
10f
100
AcDbEntity
  8
Ebene_1
 62
7
100
AcDbSpline
 70
8
 71
3
 72
8
 73
4
 74
0
 40
0
 40
0
 40
0
 40
0
 40
1
 40
1
 40
1
 40
1
 10
338.772602
 20
80.914856
 30
0.0
 10
339.492201
 20
80.137607
 30
0.0
 10
340.417939
 20
79.733524
 30
0.0
 10
341.458506
 20
79.733524
 30
0.0
  0
LWPOLYLINE
  5
110
100
AcDbEntity
  8
Ebene_1
 62
7
100
AcDbPolyline
 90
3
 70
0
 10
338.767545
 20
80.920179
 30
0.0
 10
338.770916
 20
80.916630
 30
0.0
 10
338.772602
 20
80.914856
 30
0.0
  0
SPLINE
  5
111
100
AcDbEntity
  8
Ebene_1
 62
7
100
AcDbSpline
 70
8
 71
3
 72
8
 73
4
 74
0
 40
0
 40
0
 40
0
 40
0
 40
1
 40
1
 40
1
 40
1
 10
336.428480
 20
77.034103
 30
0.0
 10
336.057269
 20
77.034103
 30
0.0
 10
335.785153
 20
77.153940
 30
0.0
 10
335.529845
 20
77.410462
 30
0.0
  0
SPLINE
  5
112
100
AcDbEntity
  8
Ebene_1
 62
7
100
AcDbSpline
 70
8
 71
3
 72
8
 73
4
 74
0
 40
0
 40
0
 40
0
 40
0
 40
1
 40
1
 40
1
 40
1
 10
335.529845
 20
77.410462
 30
0.0
 10
335.290423
 20
77.687140
 30
0.0
 10
335.178060
 20
77.980409
 30
0.0
 10
335.178060
 20
78.382904
 30
0.0
  0
LWPOLYLINE
  5
113
100
AcDbEntity
  8
Ebene_1
 62
7
100
AcDbPolyline
 90
4
 70
0
 10
341.458506
 20
79.733524
 30
0.0
 10
347.737285
 20
79.733524
 30
0.0
 10
347.737285
 20
77.034103
 30
0.0
 10
336.428480
 20
77.034103
 30
0.0
  0
LWPOLYLINE
  5
114
100
AcDbEntity
  8
Ebene_1
 62
7
100
AcDbPolyline
 90
3
 70
0
 10
335.178060
 20
78.382904
 30
0.0
 10
335.178060
 20
84.276966
 30
0.0
 10
330.971552
 20
84.276842
 30
0.0
  0
SPLINE
  5
115
100
AcDbEntity
  8
Ebene_1
 62
7
100
AcDbSpline
 70
8
 71
3
 72
8
 73
4
 74
0
 40
0
 40
0
 40
0
 40
0
 40
1
 40
1
 40
1
 40
1
 10
223.668782
 20
85.627444
 30
0.0
 10
223.668782
 20
85.229039
 30
0.0
 10
223.555155
 20
84.938033
 30
0.0
 10
223.298668
 20
84.658604
 30
0.0
  0
SPLINE
  5
116
100
AcDbEntity
  8
Ebene_1
 62
7
100
AcDbSpline
 70
8
 71
3
 72
8
 73
4
 74
0
 40
0
 40
0
 40
0
 40
0
 40
1
 40
1
 40
1
 40
1
 10
223.298668
 20
84.658604
 30
0.0
 10
223.039156
 20
84.395322
 30
0.0
 10
222.773089
 20
84.276842
 30
0.0
 10
222.420035
 20
84.276842
 30
0.0
  0
LWPOLYLINE
  5
117
100
AcDbEntity
  8
Ebene_1
 62
7
100
AcDbPolyline
 90
4
 70
0
 10
206.903145
 20
91.521498
 30
0.0
 10
206.903145
 20
86.976245
 30
0.0
 10
223.668782
 20
86.976245
 30
0.0
 10
223.668782
 20
85.627444
 30
0.0
  0
SPLINE
  5
118
100
AcDbEntity
  8
Ebene_1
 62
7
100
AcDbSpline
 70
8
 71
3
 72
8
 73
4
 74
0
 40
0
 40
0
 40
0
 40
0
 40
1
 40
1
 40
1
 40
1
 10
224.095594
 20
79.733399
 30
0.0
 10
225.104986
 20
79.733399
 30
0.0
 10
226.018121
 20
80.139851
 30
0.0
 10
226.751491
 20
80.911121
 30
0.0
  0
SPLINE
  5
119
100
AcDbEntity
  8
Ebene_1
 62
7
100
AcDbSpline
 70
8
 71
3
 72
8
 73
4
 74
0
 40
0
 40
0
 40
0
 40
0
 40
1
 40
1
 40
1
 40
1
 10
226.751491
 20
80.911121
 30
0.0
 10
227.489492
 20
81.687287
 30
0.0
 10
227.876870
 20
82.689040
 30
0.0
 10
227.876870
 20
83.815830
 30
0.0
  0
LWPOLYLINE
  5
11a
100
AcDbEntity
  8
Ebene_1
 62
7
100
AcDbPolyline
 90
7
 70
0
 10
222.420035
 20
84.276842
 30
0.0
 10
206.903145
 20
84.276842
 30
0.0
 10
206.903145
 20
72.488726
 30
0.0
 10
207.329957
 20
72.488726
 30
0.0
 10
211.109565
 20
72.488726
 30
0.0
 10
211.109565
 20
79.733399
 30
0.0
 10
224.095594
 20
79.733399
 30
0.0
  0
LWPOLYLINE
  5
11b
100
AcDbEntity
  8
Ebene_1
 62
7
100
AcDbPolyline
 90
3
 70
0
 10
227.876870
 20
83.815830
 30
0.0
 10
227.876870
 20
91.521498
 30
0.0
 10
206.903145
 20
91.521498
 30
0.0
  0
LWPOLYLINE
  5
11c
100
AcDbEntity
  8
Ebene_1
 62
7
100
AcDbPolyline
 90
9
 70
1
 10
230.376041
 20
84.276842
 30
0.0
 10
230.376041
 20
72.488726
 30
0.0
 10
230.802853
 20
72.488726
 30
0.0
 10
234.582461
 20
72.488726
 30
0.0
 10
234.582461
 20
79.733399
 30
0.0
 10
247.141687
 20
79.733399
 30
0.0
 10
247.141687
 20
72.488726
 30
0.0
 10
251.348098
 20
72.488726
 30
0.0
 10
251.348098
 20
84.276842
 30
0.0
  0
SPLINE
  5
11d
100
AcDbEntity
  8
Ebene_1
 62
7
100
AcDbSpline
 70
8
 71
3
 72
8
 73
4
 74
0
 40
0
 40
0
 40
0
 40
0
 40
1
 40
1
 40
1
 40
1
 10
230.376041
 20
91.060495
 30
0.0
 10
230.376041
 20
89.953427
 30
0.0
 10
230.751026
 20
88.956570
 30
0.0
 10
231.466413
 20
88.162980
 30
0.0
  0
LWPOLYLINE
  5
11e
100
AcDbEntity
  8
Ebene_1
 62
7
100
AcDbPolyline
 90
2
 70
0
 10
230.376041
 20
91.521498
 30
0.0
 10
230.376041
 20
91.060495
 30
0.0
  0
SPLINE
  5
11f
100
AcDbEntity
  8
Ebene_1
 62
7
100
AcDbSpline
 70
8
 71
3
 72
8
 73
4
 74
0
 40
0
 40
0
 40
0
 40
0
 40
1
 40
1
 40
1
 40
1
 10
231.469961
 20
88.159431
 30
0.0
 10
232.189563
 20
87.382183
 30
0.0
 10
233.115304
 20
86.976290
 30
0.0
 10
234.155871
 20
86.976290
 30
0.0
  0
LWPOLYLINE
  5
120
100
AcDbEntity
  8
Ebene_1
 62
7
100
AcDbPolyline
 90
3
 70
0
 10
231.466413
 20
88.162980
 30
0.0
 10
231.468187
 20
88.161206
 30
0.0
 10
231.469961
 20
88.159431
 30
0.0
  0
SPLINE
  5
121
100
AcDbEntity
  8
Ebene_1
 62
7
100
AcDbSpline
 70
8
 71
3
 72
8
 73
4
 74
0
 40
0
 40
0
 40
0
 40
0
 40
1
 40
1
 40
1
 40
1
 10
247.568712
 20
86.976290
 30
0.0
 10
248.578104
 20
86.976290
 30
0.0
 10
249.491239
 20
87.382741
 30
0.0
 10
250.224609
 20
88.154029
 30
0.0
  0
SPLINE
  5
122
100
AcDbEntity
  8
Ebene_1
 62
7
100
AcDbSpline
 70
8
 71
3
 72
8
 73
4
 74
0
 40
0
 40
0
 40
0
 40
0
 40
1
 40
1
 40
1
 40
1
 10
250.224609
 20
88.154029
 30
0.0
 10
250.962619
 20
88.930186
 30
0.0
 10
251.348311
 20
89.933749
 30
0.0
 10
251.348311
 20
91.060530
 30
0.0
  0
LWPOLYLINE
  5
123
100
AcDbEntity
  8
Ebene_1
 62
7
100
AcDbPolyline
 90
2
 70
0
 10
234.155871
 20
86.976290
 30
0.0
 10
247.568712
 20
86.976290
 30
0.0
  0
LWPOLYLINE
  5
124
100
AcDbEntity
  8
Ebene_1
 62
7
100
AcDbPolyline
 90
3
 70
0
 10
251.348311
 20
91.060530
 30
0.0
 10
251.348311
 20
91.521542
 30
0.0
 10
230.376041
 20
91.521498
 30
0.0
  0
SPLINE
  5
125
100
AcDbEntity
  8
Ebene_1
 62
7
100
AcDbSpline
 70
8
 71
3
 72
8
 73
4
 74
0
 40
0
 40
0
 40
0
 40
0
 40
1
 40
1
 40
1
 40
1
 10
253.847279
 20
91.060495
 30
0.0
 10
253.847279
 20
89.953427
 30
0.0
 10
254.222263
 20
88.956570
 30
0.0
 10
254.937641
 20
88.162980
 30
0.0
  0
LWPOLYLINE
  5
126
100
AcDbEntity
  8
Ebene_1
 62
7
100
AcDbPolyline
 90
2
 70
0
 10
253.847279
 20
91.521498
 30
0.0
 10
253.847279
 20
91.060495
 30
0.0
  0
SPLINE
  5
127
100
AcDbEntity
  8
Ebene_1
 62
7
100
AcDbSpline
 70
8
 71
3
 72
8
 73
4
 74
0
 40
0
 40
0
 40
0
 40
0
 40
1
 40
1
 40
1
 40
1
 10
254.942964
 20
88.159431
 30
0.0
 10
255.662557
 20
87.382183
 30
0.0
 10
256.588298
 20
86.976298
 30
0.0
 10
257.628865
 20
86.976290
 30
0.0
  0
LWPOLYLINE
  5
128
100
AcDbEntity
  8
Ebene_1
 62
7
100
AcDbPolyline
 90
3
 70
0
 10
254.937641
 20
88.162980
 30
0.0
 10
254.941190
 20
88.161206
 30
0.0
 10
254.942964
 20
88.159431
 30
0.0
  0
SPLINE
  5
129
100
AcDbEntity
  8
Ebene_1
 62
7
100
AcDbSpline
 70
8
 71
3
 72
8
 73
4
 74
0
 40
0
 40
0
 40
0
 40
0
 40
1
 40
1
 40
1
 40
1
 10
270.614912
 20
85.627480
 30
0.0
 10
270.614912
 20
85.229083
 30
0.0
 10
270.499608
 20
84.938077
 30
0.0
 10
270.243112
 20
84.658649
 30
0.0
  0
SPLINE
  5
12a
100
AcDbEntity
  8
Ebene_1
 62
7
100
AcDbSpline
 70
8
 71
3
 72
8
 73
4
 74
0
 40
0
 40
0
 40
0
 40
0
 40
1
 40
1
 40
1
 40
1
 10
270.243112
 20
84.658649
 30
0.0
 10
269.983601
 20
84.395367
 30
0.0
 10
269.717542
 20
84.276878
 30
0.0
 10
269.364479
 20
84.276878
 30
0.0
  0
LWPOLYLINE
  5
12b
100
AcDbEntity
  8
Ebene_1
 62
7
100
AcDbPolyline
 90
3
 70
0
 10
257.628865
 20
86.976290
 30
0.0
 10
270.614912
 20
86.976290
 30
0.0
 10
270.614912
 20
85.627480
 30
0.0
  0
SPLINE
  5
12c
100
AcDbEntity
  8
Ebene_1
 62
7
100
AcDbSpline
 70
8
 71
3
 72
8
 73
4
 74
0
 40
0
 40
0
 40
0
 40
0
 40
1
 40
1
 40
1
 40
1
 10
270.986623
 20
79.736983
 30
0.0
 10
272.053467
 20
79.587621
 30
0.0
 10
272.979537
 20
80.157754
 30
0.0
 10
273.695873
 20
80.911112
 30
0.0
  0
SPLINE
  5
12d
100
AcDbEntity
  8
Ebene_1
 62
7
100
AcDbSpline
 70
8
 71
3
 72
8
 73
4
 74
0
 40
0
 40
0
 40
0
 40
0
 40
1
 40
1
 40
1
 40
1
 10
273.695873
 20
80.911112
 30
0.0
 10
274.433883
 20
81.687278
 30
0.0
 10
274.821252
 20
82.689032
 30
0.0
 10
274.821252
 20
83.815821
 30
0.0
  0
LWPOLYLINE
  5
12e
100
AcDbEntity
  8
Ebene_1
 62
7
100
AcDbPolyline
 90
12
 70
0
 10
269.364479
 20
84.276878
 30
0.0
 10
253.847598
 20
84.276878
 30
0.0
 10
253.847598
 20
72.488770
 30
0.0
 10
254.274410
 20
72.488770
 30
0.0
 10
258.055677
 20
72.488770
 30
0.0
 10
258.055677
 20
79.733435
 30
0.0
 10
262.480498
 20
79.733435
 30
0.0
 10
269.187757
 20
72.488770
 30
0.0
 10
275.424857
 20
72.488770
 30
0.0
 10
268.717598
 20
79.733435
 30
0.0
 10
271.041715
 20
79.733435
 30
0.0
 10
270.986623
 20
79.736983
 30
0.0
  0
LWPOLYLINE
  5
12f
100
AcDbEntity
  8
Ebene_1
 62
7
100
AcDbPolyline
 90
3
 70
0
 10
274.821252
 20
83.815821
 30
0.0
 10
274.821252
 20
91.521489
 30
0.0
 10
253.847279
 20
91.521498
 30
0.0
  0
LWPOLYLINE
  5
130
100
AcDbEntity
  8
Ebene_1
 62
7
100
AcDbPolyline
 90
9
 70
1
 10
292.660334
 20
91.521498
 30
0.0
 10
283.850694
 20
82.006017
 30
0.0
 10
292.660334
 20
72.488726
 30
0.0
 10
292.837056
 20
72.488726
 30
0.0
 10
298.897434
 20
72.488726
 30
0.0
 10
290.084468
 20
82.007818
 30
0.0
 10
291.313210
 20
83.354827
 30
0.0
 10
291.336542
 20
83.354827
 30
0.0
 10
298.897417
 20
91.521498
 30
0.0
  0
LWPOLYLINE
  5
131
100
AcDbEntity
  8
Ebene_1
 62
7
100
AcDbPolyline
 90
5
 70
1
 10
277.320166
 20
91.521498
 30
0.0
 10
277.320166
 20
72.488726
 30
0.0
 10
277.746978
 20
72.488726
 30
0.0
 10
281.526586
 20
72.488726
 30
0.0
 10
281.526586
 20
91.521498
 30
0.0
  0
LWPOLYLINE
  5
132
100
AcDbEntity
  8
Ebene_1
 62
7
100
AcDbPolyline
 90
5
 70
1
 10
300.793063
 20
91.521498
 30
0.0
 10
300.793063
 20
72.488726
 30
0.0
 10
301.219875
 20
72.488726
 30
0.0
 10
304.999474
 20
72.488726
 30
0.0
 10
304.999474
 20
91.521498
 30
0.0
  0
LWPOLYLINE
  5
133
100
AcDbEntity
  8
Ebene_1
 62
7
100
AcDbPolyline
 90
12
 70
1
 10
306.895120
 20
91.521498
 30
0.0
 10
310.851450
 20
87.246376
 30
0.0
 10
310.851450
 20
72.488726
 30
0.0
 10
311.278261
 20
72.488726
 30
0.0
 10
315.059532
 20
72.488726
 30
0.0
 10
315.059532
 20
82.702933
 30
0.0
 10
324.514380
 20
72.488726
 30
0.0
 10
328.472378
 20
72.488726
 30
0.0
 10
328.472378
 20
91.521498
 30
0.0
 10
324.264296
 20
91.521498
 30
0.0
 10
324.264296
 20
79.495685
 30
0.0
 10
313.132217
 20
91.521498
 30
0.0
  0
SPLINE
  5
134
100
AcDbEntity
  8
Ebene_1
 62
7
100
AcDbSpline
 70
8
 71
3
 72
8
 73
4
 74
0
 40
0
 40
0
 40
0
 40
0
 40
1
 40
1
 40
1
 40
1
 10
348.164003
 20
86.976245
 30
0.0
 10
349.173391
 20
86.976245
 30
0.0
 10
350.086526
 20
87.382715
 30
0.0
 10
350.819896
 20
88.153984
 30
0.0
  0
SPLINE
  5
135
100
AcDbEntity
  8
Ebene_1
 62
7
100
AcDbSpline
 70
8
 71
3
 72
8
 73
4
 74
0
 40
0
 40
0
 40
0
 40
0
 40
1
 40
1
 40
1
 40
1
 10
350.819896
 20
88.153984
 30
0.0
 10
351.557905
 20
88.930151
 30
0.0
 10
351.943608
 20
89.933705
 30
0.0
 10
351.943608
 20
91.060495
 30
0.0
  0
LWPOLYLINE
  5
136
100
AcDbEntity
  8
Ebene_1
 62
7
100
AcDbPolyline
 90
4
 70
0
 10
330.971552
 20
91.521498
 30
0.0
 10
330.971552
 20
86.976245
 30
0.0
 10
331.398362
 20
86.976245
 30
0.0
 10
348.164003
 20
86.976245
 30
0.0
  0
LWPOLYLINE
  5
137
100
AcDbEntity
  8
Ebene_1
 62
7
100
AcDbPolyline
 90
3
 70
0
 10
351.943608
 20
91.060495
 30
0.0
 10
351.943608
 20
91.521498
 30
0.0
 10
330.971552
 20
91.521498
 30
0.0
  0
LWPOLYLINE
  5
138
100
AcDbEntity
  8
Ebene_1
 62
7
100
AcDbPolyline
 90
9
 70
1
 10
233.728837
 20
58.084049
 30
0.0
 10
233.728837
 20
46.295933
 30
0.0
 10
234.155649
 20
46.295933
 30
0.0
 10
254.700894
 20
46.295933
 30
0.0
 10
254.700894
 20
58.084049
 30
0.0
 10
250.494474
 20
58.084049
 30
0.0
 10
250.494474
 20
50.841186
 30
0.0
 10
237.935248
 20
50.841186
 30
0.0
 10
237.935248
 20
58.084049
 30
0.0
  0
SPLINE
  5
139
100
AcDbEntity
  8
Ebene_1
 62
7
100
AcDbSpline
 70
8
 71
3
 72
8
 73
4
 74
0
 40
0
 40
0
 40
0
 40
0
 40
1
 40
1
 40
1
 40
1
 10
233.728837
 20
64.865901
 30
0.0
 10
233.728837
 20
63.758833
 30
0.0
 10
234.103830
 20
62.763769
 30
0.0
 10
234.819200
 20
61.970196
 30
0.0
  0
LWPOLYLINE
  5
13a
100
AcDbEntity
  8
Ebene_1
 62
7
100
AcDbPolyline
 90
2
 70
0
 10
233.728837
 20
65.326904
 30
0.0
 10
233.728837
 20
64.865901
 30
0.0
  0
SPLINE
  5
13b
100
AcDbEntity
  8
Ebene_1
 62
7
100
AcDbSpline
 70
8
 71
3
 72
8
 73
4
 74
0
 40
0
 40
0
 40
0
 40
0
 40
1
 40
1
 40
1
 40
1
 10
234.822748
 20
61.966647
 30
0.0
 10
235.542350
 20
61.189399
 30
0.0
 10
236.468091
 20
60.783515
 30
0.0
 10
237.508649
 20
60.783515
 30
0.0
  0
LWPOLYLINE
  5
13c
100
AcDbEntity
  8
Ebene_1
 62
7
100
AcDbPolyline
 90
3
 70
0
 10
234.819200
 20
61.970196
 30
0.0
 10
234.820974
 20
61.968422
 30
0.0
 10
234.822748
 20
61.966647
 30
0.0
  0
SPLINE
  5
13d
100
AcDbEntity
  8
Ebene_1
 62
7
100
AcDbSpline
 70
8
 71
3
 72
8
 73
4
 74
0
 40
0
 40
0
 40
0
 40
0
 40
1
 40
1
 40
1
 40
1
 10
250.921499
 20
60.783515
 30
0.0
 10
251.930882
 20
60.783515
 30
0.0
 10
252.844017
 20
61.189958
 30
0.0
 10
253.577387
 20
61.961254
 30
0.0
  0
SPLINE
  5
13e
100
AcDbEntity
  8
Ebene_1
 62
7
100
AcDbSpline
 70
8
 71
3
 72
8
 73
4
 74
0
 40
0
 40
0
 40
0
 40
0
 40
1
 40
1
 40
1
 40
1
 10
253.577387
 20
61.961254
 30
0.0
 10
254.315397
 20
62.737402
 30
0.0
 10
254.701107
 20
63.739173
 30
0.0
 10
254.701107
 20
64.865963
 30
0.0
  0
LWPOLYLINE
  5
13f
100
AcDbEntity
  8
Ebene_1
 62
7
100
AcDbPolyline
 90
2
 70
0
 10
237.508649
 20
60.783515
 30
0.0
 10
250.921499
 20
60.783515
 30
0.0
  0
LWPOLYLINE
  5
140
100
AcDbEntity
  8
Ebene_1
 62
7
100
AcDbPolyline
 90
3
 70
0
 10
254.701107
 20
64.865963
 30
0.0
 10
254.701107
 20
65.326966
 30
0.0
 10
233.728837
 20
65.326904
 30
0.0
  0
LWPOLYLINE
  5
141
100
AcDbEntity
  8
Ebene_1
 62
7
100
AcDbPolyline
 90
12
 70
1
 10
256.598199
 20
65.326904
 30
0.0
 10
260.554529
 20
61.053583
 30
0.0
 10
260.554529
 20
46.295933
 30
0.0
 10
260.981341
 20
46.295933
 30
0.0
 10
264.760940
 20
46.295933
 30
0.0
 10
264.760940
 20
56.510141
 30
0.0
 10
274.217461
 20
46.295933
 30
0.0
 10
278.173791
 20
46.295933
 30
0.0
 10
278.173791
 20
65.326904
 30
0.0
 10
273.967379
 20
65.326904
 30
0.0
 10
273.967379
 20
53.302892
 30
0.0
 10
262.835290
 20
65.326904
 30
0.0
  0
SPLINE
  5
142
100
AcDbEntity
  8
Ebene_1
 62
7
100
AcDbSpline
 70
8
 71
3
 72
8
 73
4
 74
0
 40
0
 40
0
 40
0
 40
0
 40
1
 40
1
 40
1
 40
1
 10
297.867088
 20
46.295933
 30
0.0
 10
298.876462
 20
46.295933
 30
0.0
 10
299.787938
 20
46.702385
 30
0.0
 10
300.521308
 20
47.473672
 30
0.0
  0
SPLINE
  5
143
100
AcDbEntity
  8
Ebene_1
 62
7
100
AcDbSpline
 70
8
 71
3
 72
8
 73
4
 74
0
 40
0
 40
0
 40
0
 40
0
 40
1
 40
1
 40
1
 40
1
 10
300.521308
 20
47.473672
 30
0.0
 10
301.259309
 20
48.249830
 30
0.0
 10
301.646687
 20
49.253393
 30
0.0
 10
301.646687
 20
50.380174
 30
0.0
  0
LWPOLYLINE
  5
144
100
AcDbEntity
  8
Ebene_1
 62
7
100
AcDbPolyline
 90
4
 70
0
 10
280.672962
 20
65.326904
 30
0.0
 10
280.672962
 20
46.295933
 30
0.0
 10
281.099774
 20
46.295933
 30
0.0
 10
297.867088
 20
46.295933
 30
0.0
  0
LWPOLYLINE
  5
145
100
AcDbEntity
  8
Ebene_1
 62
7
100
AcDbPolyline
 90
5
 70
0
 10
301.646687
 20
50.380174
 30
0.0
 10
301.646687
 20
50.841186
 30
0.0
 10
284.881050
 20
50.841186
 30
0.0
 10
284.881050
 20
65.326904
 30
0.0
 10
280.672962
 20
65.326904
 30
0.0
  0
SPLINE
  5
146
100
AcDbEntity
  8
Ebene_1
 62
7
100
AcDbSpline
 70
8
 71
3
 72
8
 73
4
 74
0
 40
0
 40
0
 40
0
 40
0
 40
1
 40
1
 40
1
 40
1
 10
279.345047
 20
100.195076
 30
0.0
 10
279.153029
 20
101.207786
 30
0.0
 10
262.630155
 20
193.454266
 30
0.0
 10
262.630155
 20
193.513596
 30
0.0
  0
SPLINE
  5
147
100
AcDbEntity
  8
Ebene_1
 62
7
100
AcDbSpline
 70
8
 71
3
 72
8
 73
4
 74
0
 40
0
 40
0
 40
0
 40
0
 40
1
 40
1
 40
1
 40
1
 10
262.630155
 20
193.513596
 30
0.0
 10
262.630155
 20
193.597796
 30
0.0
 10
257.750007
 20
193.474496
 30
0.0
 10
255.297003
 20
193.328166
 30
0.0
  0
SPLINE
  5
148
100
AcDbEntity
  8
Ebene_1
 62
7
100
AcDbSpline
 70
8
 71
3
 72
8
 73
4
 74
0
 40
0
 40
0
 40
0
 40
0
 40
1
 40
1
 40
1
 40
1
 10
255.297003
 20
193.328166
 30
0.0
 10
247.997003
 20
192.892826
 30
0.0
 10
244.242411
 20
191.614466
 30
0.0
 10
242.427718
 20
188.946436
 30
0.0
  0
SPLINE
  5
149
100
AcDbEntity
  8
Ebene_1
 62
7
100
AcDbSpline
 70
8
 71
3
 72
8
 73
4
 74
0
 40
0
 40
0
 40
0
 40
0
 40
1
 40
1
 40
1
 40
1
 10
242.427718
 20
188.946436
 30
0.0
 10
241.758649
 20
187.962756
 30
0.0
 10
241.479336
 20
187.261356
 30
0.0
 10
241.187319
 20
185.832046
 30
0.0
  0
SPLINE
  5
14a
100
AcDbEntity
  8
Ebene_1
 62
7
100
AcDbSpline
 70
8
 71
3
 72
8
 73
4
 74
0
 40
0
 40
0
 40
0
 40
0
 40
1
 40
1
 40
1
 40
1
 10
241.187319
 20
185.832046
 30
0.0
 10
241.068688
 20
185.251286
 30
0.0
 10
240.949977
 20
184.754496
 30
0.0
 10
240.923539
 20
184.728056
 30
0.0
  0
SPLINE
  5
14b
100
AcDbEntity
  8
Ebene_1
 62
7
100
AcDbSpline
 70
8
 71
3
 72
8
 73
4
 74
0
 40
0
 40
0
 40
0
 40
0
 40
1
 40
1
 40
1
 40
1
 10
240.923539
 20
184.728056
 30
0.0
 10
240.834679
 20
184.639156
 30
0.0
 10
237.800943
 20
186.080676
 30
0.0
 10
236.280955
 20
186.934026
 30
0.0
  0
SPLINE
  5
14c
100
AcDbEntity
  8
Ebene_1
 62
7
100
AcDbSpline
 70
8
 71
3
 72
8
 73
4
 74
0
 40
0
 40
0
 40
0
 40
0
 40
1
 40
1
 40
1
 40
1
 10
236.280955
 20
186.934026
 30
0.0
 10
231.734627
 20
189.486416
 30
0.0
 10
228.165399
 20
192.441676
 30
0.0
 10
225.737333
 20
195.663966
 30
0.0
  0
SPLINE
  5
14d
100
AcDbEntity
  8
Ebene_1
 62
7
100
AcDbSpline
 70
8
 71
3
 72
8
 73
4
 74
0
 40
0
 40
0
 40
0
 40
0
 40
1
 40
1
 40
1
 40
1
 10
225.737333
 20
195.663966
 30
0.0
 10
225.380615
 20
196.137366
 30
0.0
 10
225.088766
 20
196.563446
 30
0.0
 10
225.088766
 20
196.610796
 30
0.0
  0
SPLINE
  5
14e
100
AcDbEntity
  8
Ebene_1
 62
7
100
AcDbSpline
 70
8
 71
3
 72
8
 73
4
 74
0
 40
0
 40
0
 40
0
 40
0
 40
1
 40
1
 40
1
 40
1
 10
225.088766
 20
196.610796
 30
0.0
 10
225.088766
 20
196.658196
 30
0.0
 10
225.273463
 20
196.773356
 30
0.0
 10
225.499193
 20
196.866776
 30
0.0
  0
SPLINE
  5
14f
100
AcDbEntity
  8
Ebene_1
 62
7
100
AcDbSpline
 70
8
 71
3
 72
8
 73
4
 74
0
 40
0
 40
0
 40
0
 40
0
 40
1
 40
1
 40
1
 40
1
 10
225.499193
 20
196.866776
 30
0.0
 10
225.724930
 20
196.960176
 30
0.0
 10
226.697682
 20
197.379456
 30
0.0
 10
227.660836
 20
197.798476
 30
0.0
  0
SPLINE
  5
150
100
AcDbEntity
  8
Ebene_1
 62
7
100
AcDbSpline
 70
8
 71
3
 72
8
 73
4
 74
0
 40
0
 40
0
 40
0
 40
0
 40
1
 40
1
 40
1
 40
1
 10
227.660836
 20
197.798476
 30
0.0
 10
238.696228
 20
202.599346
 30
0.0
 10
253.040593
 20
205.955066
 30
0.0
 10
265.913656
 20
206.747334
 30
0.0
  0
LWPOLYLINE
  5
151
100
AcDbEntity
  8
Ebene_1
 62
7
100
AcDbPolyline
 90
14
 70
1
 10
304.145858
 20
65.326904
 30
0.0
 10
304.145858
 20
61.053583
 30
0.0
 10
312.528681
 20
51.999106
 30
0.0
 10
312.528681
 20
46.295933
 30
0.0
 10
312.955492
 20
46.295933
 30
0.0
 10
316.735096
 20
46.295933
 30
0.0
 10
316.735096
 20
51.999106
 30
0.0
 10
325.117916
 20
61.053583
 30
0.0
 10
325.117916
 20
65.326904
 30
0.0
 10
320.911502
 20
65.326904
 30
0.0
 10
320.911502
 20
63.246969
 30
0.0
 10
314.632722
 20
56.463316
 30
0.0
 10
308.352276
 20
63.246969
 30
0.0
 10
308.352276
 20
65.326904
 30
0.0
  0
SPLINE
  5
152
100
AcDbEntity
  8
Ebene_1
 62
7
100
AcDbSpline
 70
8
 71
3
 72
8
 73
4
 74
0
 40
0
 40
0
 40
0
 40
0
 40
1
 40
1
 40
1
 40
1
 10
273.231387
 20
199.301506
 30
0.0
 10
276.624060
 20
195.167396
 30
0.0
 10
279.437440
 20
191.826356
 30
0.0
 10
279.483300
 20
191.876976
 30
0.0
  0
SPLINE
  5
153
100
AcDbEntity
  8
Ebene_1
 62
7
100
AcDbSpline
 70
8
 71
3
 72
8
 73
4
 74
0
 40
0
 40
0
 40
0
 40
0
 40
1
 40
1
 40
1
 40
1
 10
279.483300
 20
191.876976
 30
0.0
 10
279.529100
 20
191.927476
 30
0.0
 10
282.282750
 20
195.278846
 30
0.0
 10
285.602330
 20
199.324186
 30
0.0
  0
SPLINE
  5
154
100
AcDbEntity
  8
Ebene_1
 62
7
100
AcDbSpline
 70
8
 71
3
 72
8
 73
4
 74
0
 40
0
 40
0
 40
0
 40
0
 40
1
 40
1
 40
1
 40
1
 10
285.602330
 20
199.324186
 30
0.0
 10
288.921930
 20
203.369516
 30
0.0
 10
291.688670
 20
206.710676
 30
0.0
 10
291.750620
 20
206.748980
 30
0.0
  0
SPLINE
  5
155
100
AcDbEntity
  8
Ebene_1
 62
7
100
AcDbSpline
 70
8
 71
3
 72
8
 73
4
 74
0
 40
0
 40
0
 40
0
 40
0
 40
1
 40
1
 40
1
 40
1
 10
291.750620
 20
206.748980
 30
0.0
 10
291.879900
 20
206.828870
 30
0.0
 10
294.640680
 20
206.650810
 30
0.0
 10
297.052210
 20
206.407047
 30
0.0
  0
SPLINE
  5
156
100
AcDbEntity
  8
Ebene_1
 62
7
100
AcDbSpline
 70
8
 71
3
 72
8
 73
4
 74
0
 40
0
 40
0
 40
0
 40
0
 40
1
 40
1
 40
1
 40
1
 10
297.052210
 20
206.407047
 30
0.0
 10
307.222010
 20
205.379054
 30
0.0
 10
317.436000
 20
203.025766
 30
0.0
 10
326.713190
 20
199.573176
 30
0.0
  0
SPLINE
  5
157
100
AcDbEntity
  8
Ebene_1
 62
7
100
AcDbSpline
 70
8
 71
3
 72
8
 73
4
 74
0
 40
0
 40
0
 40
0
 40
0
 40
1
 40
1
 40
1
 40
1
 10
326.713190
 20
199.573176
 30
0.0
 10
328.902650
 20
198.758346
 30
0.0
 10
332.424510
 20
197.304016
 30
0.0
 10
333.343030
 20
196.835426
 30
0.0
  0
LWPOLYLINE
  5
158
100
AcDbEntity
  8
Ebene_1
 62
7
100
AcDbPolyline
 90
3
 70
0
 10
265.913656
 20
206.747334
 30
0.0
 10
267.062873
 20
206.818064
 30
0.0
 10
273.231387
 20
199.301506
 30
0.0
  0
SPLINE
  5
159
100
AcDbEntity
  8
Ebene_1
 62
7
100
AcDbSpline
 70
8
 71
3
 72
8
 73
4
 74
0
 40
0
 40
0
 40
0
 40
0
 40
1
 40
1
 40
1
 40
1
 10
333.218630
 20
195.855486
 30
0.0
 10
331.067530
 20
192.897996
 30
0.0
 10
327.695270
 20
189.991616
 30
0.0
 10
323.519070
 20
187.495916
 30
0.0
  0
SPLINE
  5
15a
100
AcDbEntity
  8
Ebene_1
 62
7
100
AcDbSpline
 70
8
 71
3
 72
8
 73
4
 74
0
 40
0
 40
0
 40
0
 40
0
 40
1
 40
1
 40
1
 40
1
 10
323.519070
 20
187.495916
 30
0.0
 10
322.370530
 20
186.809546
 30
0.0
 10
318.568480
 20
184.901246
 30
0.0
 10
318.050080
 20
184.750936
 30
0.0
  0
SPLINE
  5
15b
100
AcDbEntity
  8
Ebene_1
 62
7
100
AcDbSpline
 70
8
 71
3
 72
8
 73
4
 74
0
 40
0
 40
0
 40
0
 40
0
 40
1
 40
1
 40
1
 40
1
 10
318.050080
 20
184.750936
 30
0.0
 10
317.836150
 20
184.688836
 30
0.0
 10
317.807470
 20
184.735436
 30
0.0
 10
317.736300
 20
185.261236
 30
0.0
  0
SPLINE
  5
15c
100
AcDbEntity
  8
Ebene_1
 62
7
100
AcDbSpline
 70
8
 71
3
 72
8
 73
4
 74
0
 40
0
 40
0
 40
0
 40
0
 40
1
 40
1
 40
1
 40
1
 10
317.736300
 20
185.261236
 30
0.0
 10
317.693200
 20
185.579446
 30
0.0
 10
317.537620
 20
186.257126
 30
0.0
 10
317.390530
 20
186.767186
 30
0.0
  0
SPLINE
  5
15d
100
AcDbEntity
  8
Ebene_1
 62
7
100
AcDbSpline
 70
8
 71
3
 72
8
 73
4
 74
0
 40
0
 40
0
 40
0
 40
0
 40
1
 40
1
 40
1
 40
1
 10
317.390530
 20
186.767186
 30
0.0
 10
316.232260
 20
190.783826
 30
0.0
 10
312.809980
 20
192.567396
 30
0.0
 10
304.987350
 20
193.231236
 30
0.0
  0
SPLINE
  5
15e
100
AcDbEntity
  8
Ebene_1
 62
7
100
AcDbSpline
 70
8
 71
3
 72
8
 73
4
 74
0
 40
0
 40
0
 40
0
 40
0
 40
1
 40
1
 40
1
 40
1
 10
304.987350
 20
193.231236
 30
0.0
 10
303.284050
 20
193.375776
 30
0.0
 10
296.200150
 20
193.561276
 30
0.0
 10
296.111150
 20
193.463666
 30
0.0
  0
SPLINE
  5
15f
100
AcDbEntity
  8
Ebene_1
 62
7
100
AcDbSpline
 70
8
 71
3
 72
8
 73
4
 74
0
 40
0
 40
0
 40
0
 40
0
 40
1
 40
1
 40
1
 40
1
 10
296.111150
 20
193.463666
 30
0.0
 10
296.065650
 20
193.413766
 30
0.0
 10
282.390460
 20
116.700196
 30
0.0
 10
279.504390
 20
100.304516
 30
0.0
  0
LWPOLYLINE
  5
160
100
AcDbEntity
  8
Ebene_1
 62
7
100
AcDbPolyline
 90
3
 70
0
 10
333.343030
 20
196.835426
 30
0.0
 10
333.772140
 20
196.616506
 30
0.0
 10
333.218630
 20
195.855486
 30
0.0
  0
SPLINE
  5
161
100
AcDbEntity
  8
Ebene_1
 62
7
100
AcDbSpline
 70
8
 71
3
 72
8
 73
4
 74
0
 40
0
 40
0
 40
0
 40
0
 40
1
 40
1
 40
1
 40
1
 10
333.772730
 20
200.749236
 30
0.0
 10
320.700690
 20
206.262296
 30
0.0
 10
305.849310
 20
209.770449
 30
0.0
 10
291.032460
 20
210.845209
 30
0.0
  0
SPLINE
  5
162
100
AcDbEntity
  8
Ebene_1
 62
7
100
AcDbSpline
 70
8
 71
3
 72
8
 73
4
 74
0
 40
0
 40
0
 40
0
 40
0
 40
1
 40
1
 40
1
 40
1
 10
291.032460
 20
210.845209
 30
0.0
 10
286.272130
 20
211.190504
 30
0.0
 10
276.382557
 20
211.303581
 30
0.0
 10
271.593737
 20
211.067467
 30
0.0
  0
SPLINE
  5
163
100
AcDbEntity
  8
Ebene_1
 62
7
100
AcDbSpline
 70
8
 71
3
 72
8
 73
4
 74
0
 40
0
 40
0
 40
0
 40
0
 40
1
 40
1
 40
1
 40
1
 10
271.593737
 20
211.067467
 30
0.0
 10
254.998296
 20
210.249223
 30
0.0
 10
239.730177
 20
206.867173
 30
0.0
 10
225.056624
 20
200.759016
 30
0.0
  0
SPLINE
  5
164
100
AcDbEntity
  8
Ebene_1
 62
7
100
AcDbSpline
 70
8
 71
3
 72
8
 73
4
 74
0
 40
0
 40
0
 40
0
 40
0
 40
1
 40
1
 40
1
 40
1
 10
225.056624
 20
200.759016
 30
0.0
 10
224.045671
 20
200.338186
 30
0.0
 10
223.155602
 20
200.018036
 30
0.0
 10
223.078675
 20
200.047546
 30
0.0
  0
SPLINE
  5
165
100
AcDbEntity
  8
Ebene_1
 62
7
100
AcDbSpline
 70
8
 71
3
 72
8
 73
4
 74
0
 40
0
 40
0
 40
0
 40
0
 40
1
 40
1
 40
1
 40
1
 10
223.078675
 20
200.047546
 30
0.0
 10
223.001765
 20
200.077146
 30
0.0
 10
222.368816
 20
201.251256
 30
0.0
 10
221.672182
 20
202.656866
 30
0.0
  0
SPLINE
  5
166
100
AcDbEntity
  8
Ebene_1
 62
7
100
AcDbSpline
 70
8
 71
3
 72
8
 73
4
 74
0
 40
0
 40
0
 40
0
 40
0
 40
1
 40
1
 40
1
 40
1
 10
221.672182
 20
202.656866
 30
0.0
 10
220.368803
 20
205.286691
 30
0.0
 10
219.761401
 20
206.652822
 30
0.0
 10
219.854251
 20
206.745667
 30
0.0
  0
SPLINE
  5
167
100
AcDbEntity
  8
Ebene_1
 62
7
100
AcDbSpline
 70
8
 71
3
 72
8
 73
4
 74
0
 40
0
 40
0
 40
0
 40
0
 40
1
 40
1
 40
1
 40
1
 10
219.854251
 20
206.745667
 30
0.0
 10
219.949261
 20
206.840627
 30
0.0
 10
223.776027
 20
208.286346
 30
0.0
 10
226.019085
 20
209.074657
 30
0.0
  0
SPLINE
  5
168
100
AcDbEntity
  8
Ebene_1
 62
7
100
AcDbSpline
 70
8
 71
3
 72
8
 73
4
 74
0
 40
0
 40
0
 40
0
 40
0
 40
1
 40
1
 40
1
 40
1
 10
226.019085
 20
209.074657
 30
0.0
 10
247.046971
 20
216.464814
 30
0.0
 10
269.504185
 20
219.527301
 30
0.0
 10
290.758840
 20
217.903203
 30
0.0
  0
SPLINE
  5
169
100
AcDbEntity
  8
Ebene_1
 62
7
100
AcDbSpline
 70
8
 71
3
 72
8
 73
4
 74
0
 40
0
 40
0
 40
0
 40
0
 40
1
 40
1
 40
1
 40
1
 10
290.758840
 20
217.903203
 30
0.0
 10
306.656030
 20
216.688472
 30
0.0
 10
321.638380
 20
213.335132
 30
0.0
 10
336.889400
 20
207.578280
 30
0.0
  0
SPLINE
  5
16a
100
AcDbEntity
  8
Ebene_1
 62
7
100
AcDbSpline
 70
8
 71
3
 72
8
 73
4
 74
0
 40
0
 40
0
 40
0
 40
0
 40
1
 40
1
 40
1
 40
1
 10
336.889400
 20
207.578280
 30
0.0
 10
338.024880
 20
207.149667
 30
0.0
 10
338.973430
 20
206.779471
 30
0.0
 10
338.997270
 20
206.755621
 30
0.0
  0
SPLINE
  5
16b
100
AcDbEntity
  8
Ebene_1
 62
7
100
AcDbSpline
 70
8
 71
3
 72
8
 73
4
 74
0
 40
0
 40
0
 40
0
 40
0
 40
1
 40
1
 40
1
 40
1
 10
338.997270
 20
206.755621
 30
0.0
 10
339.121940
 20
206.630958
 30
0.0
 10
336.072460
 20
200.265016
 30
0.0
 10
335.763480
 20
200.004896
 30
0.0
  0
SPLINE
  5
16c
100
AcDbEntity
  8
Ebene_1
 62
7
100
AcDbSpline
 70
8
 71
3
 72
8
 73
4
 74
0
 40
0
 40
0
 40
0
 40
0
 40
1
 40
1
 40
1
 40
1
 10
335.763480
 20
200.004896
 30
0.0
 10
335.722080
 20
199.969996
 30
0.0
 10
334.826170
 20
200.304946
 30
0.0
 10
333.772730
 20
200.749236
 30
0.0
  0
LWPOLYLINE
  5
16d
100
AcDbEntity
  8
Ebene_1
 62
7
100
AcDbPolyline
 90
3
 70
0
 10
279.504390
 20
100.304516
 30
0.0
 10
279.417690
 20
99.811986
 30
0.0
 10
279.345047
 20
100.195076
 30
0.0
  0
LWPOLYLINE
  5
16e
100
AcDbEntity
  8
Ebene_1
 62
7
100
AcDbPolyline
 90
1
 70
1
 10
333.772730
 20
200.749236
 30
0.0
  0
LWPOLYLINE
  5
16f
100
AcDbEntity
  8
Ebene_1
 62
7
100
AcDbPolyline
 90
9
 70
1
 10
326.655083
 20
240.073733
 30
0.0
 10
326.655083
 20
227.781729
 30
0.0
 10
327.098662
 20
227.781729
 30
0.0
 10
331.343851
 20
227.781729
 30
0.0
 10
331.343851
 20
235.384959
 30
0.0
 10
345.663156
 20
235.384959
 30
0.0
 10
345.663156
 20
227.781729
 30
0.0
 10
350.351933
 20
227.781729
 30
0.0
 10
350.351933
 20
240.073733
 30
0.0
  0
SPLINE
  5
170
100
AcDbEntity
  8
Ebene_1
 62
7
100
AcDbSpline
 70
8
 71
3
 72
8
 73
4
 74
0
 40
0
 40
0
 40
0
 40
0
 40
1
 40
1
 40
1
 40
1
 10
326.655083
 20
247.233383
 30
0.0
 10
326.655083
 20
246.080743
 30
0.0
 10
327.073875
 20
245.048158
 30
0.0
 10
327.878395
 20
244.221894
 30
0.0
  0
LWPOLYLINE
  5
171
100
AcDbEntity
  8
Ebene_1
 62
7
100
AcDbPolyline
 90
2
 70
0
 10
326.655083
 20
247.676963
 30
0.0
 10
326.655083
 20
247.233383
 30
0.0
  0
SPLINE
  5
172
100
AcDbEntity
  8
Ebene_1
 62
7
100
AcDbSpline
 70
8
 71
3
 72
8
 73
4
 74
0
 40
0
 40
0
 40
0
 40
0
 40
1
 40
1
 40
1
 40
1
 10
327.883718
 20
244.218346
 30
0.0
 10
328.692629
 20
243.409439
 30
0.0
 10
329.729878
 20
242.988106
 30
0.0
 10
330.900404
 20
242.988106
 30
0.0
  0
LWPOLYLINE
  5
173
100
AcDbEntity
  8
Ebene_1
 62
7
100
AcDbPolyline
 90
3
 70
0
 10
327.878395
 20
244.221894
 30
0.0
 10
327.881944
 20
244.220120
 30
0.0
 10
327.883718
 20
244.218346
 30
0.0
  0
SPLINE
  5
174
100
AcDbEntity
  8
Ebene_1
 62
7
100
AcDbSpline
 70
8
 71
3
 72
8
 73
4
 74
0
 40
0
 40
0
 40
0
 40
0
 40
1
 40
1
 40
1
 40
1
 10
346.106869
 20
242.988106
 30
0.0
 10
347.241696
 20
242.988106
 30
0.0
 10
348.264031
 20
243.409984
 30
0.0
 10
349.088903
 20
244.213147
 30
0.0
  0
SPLINE
  5
175
100
AcDbEntity
  8
Ebene_1
 62
7
100
AcDbSpline
 70
8
 71
3
 72
8
 73
4
 74
0
 40
0
 40
0
 40
0
 40
0
 40
1
 40
1
 40
1
 40
1
 10
349.088903
 20
244.213147
 30
0.0
 10
349.918592
 20
245.021005
 30
0.0
 10
350.352066
 20
246.060033
 30
0.0
 10
350.352066
 20
247.233300
 30
0.0
  0
LWPOLYLINE
  5
176
100
AcDbEntity
  8
Ebene_1
 62
7
100
AcDbPolyline
 90
2
 70
0
 10
330.900404
 20
242.988106
 30
0.0
 10
346.106869
 20
242.988106
 30
0.0
  0
LWPOLYLINE
  5
177
100
AcDbEntity
  8
Ebene_1
 62
7
100
AcDbPolyline
 90
3
 70
0
 10
350.352066
 20
247.233300
 30
0.0
 10
350.352066
 20
247.676879
 30
0.0
 10
326.655083
 20
247.676963
 30
0.0
  0
SPLINE
  5
178
100
AcDbEntity
  8
Ebene_1
 62
7
100
AcDbSpline
 70
8
 71
3
 72
8
 73
4
 74
0
 40
0
 40
0
 40
0
 40
0
 40
1
 40
1
 40
1
 40
1
 10
208.493124
 20
247.233383
 30
0.0
 10
208.493124
 20
246.080743
 30
0.0
 10
208.913647
 20
245.048158
 30
0.0
 10
209.718167
 20
244.221894
 30
0.0
  0
LWPOLYLINE
  5
179
100
AcDbEntity
  8
Ebene_1
 62
7
100
AcDbPolyline
 90
2
 70
0
 10
208.493124
 20
247.676963
 30
0.0
 10
208.493124
 20
247.233383
 30
0.0
  0
SPLINE
  5
17a
100
AcDbEntity
  8
Ebene_1
 62
7
100
AcDbSpline
 70
8
 71
3
 72
8
 73
4
 74
0
 40
0
 40
0
 40
0
 40
0
 40
1
 40
1
 40
1
 40
1
 10
209.721715
 20
244.218346
 30
0.0
 10
210.530627
 20
243.409438
 30
0.0
 10
211.567876
 20
242.988106
 30
0.0
 10
212.738402
 20
242.988106
 30
0.0
  0
LWPOLYLINE
  5
17b
100
AcDbEntity
  8
Ebene_1
 62
7
100
AcDbPolyline
 90
3
 70
0
 10
209.718167
 20
244.221894
 30
0.0
 10
209.719941
 20
244.220120
 30
0.0
 10
209.721715
 20
244.218346
 30
0.0
  0
SPLINE
  5
17c
100
AcDbEntity
  8
Ebene_1
 62
7
100
AcDbSpline
 70
8
 71
3
 72
8
 73
4
 74
0
 40
0
 40
0
 40
0
 40
0
 40
1
 40
1
 40
1
 40
1
 10
227.944866
 20
242.988189
 30
0.0
 10
229.079693
 20
242.988189
 30
0.0
 10
230.102029
 20
243.410068
 30
0.0
 10
230.926900
 20
244.213230
 30
0.0
  0
SPLINE
  5
17d
100
AcDbEntity
  8
Ebene_1
 62
7
100
AcDbSpline
 70
8
 71
3
 72
8
 73
4
 74
0
 40
0
 40
0
 40
0
 40
0
 40
1
 40
1
 40
1
 40
1
 10
230.926900
 20
244.213230
 30
0.0
 10
231.756589
 20
245.021087
 30
0.0
 10
232.190055
 20
246.060115
 30
0.0
 10
232.190055
 20
247.233383
 30
0.0
  0
LWPOLYLINE
  5
17e
100
AcDbEntity
  8
Ebene_1
 62
7
100
AcDbPolyline
 90
7
 70
0
 10
212.738402
 20
242.988106
 30
0.0
 10
217.997250
 20
242.988106
 30
0.0
 10
217.997250
 20
227.781729
 30
0.0
 10
218.440829
 20
227.781729
 30
0.0
 10
222.686018
 20
227.781729
 30
0.0
 10
222.686018
 20
242.988189
 30
0.0
 10
227.944866
 20
242.988189
 30
0.0
  0
LWPOLYLINE
  5
17f
100
AcDbEntity
  8
Ebene_1
 62
7
100
AcDbPolyline
 90
3
 70
0
 10
232.190055
 20
247.233383
 30
0.0
 10
232.190055
 20
247.676963
 30
0.0
 10
208.493124
 20
247.676963
 30
0.0
  0
SPLINE
  5
180
100
AcDbEntity
  8
Ebene_1
 62
7
100
AcDbSpline
 70
8
 71
3
 72
8
 73
4
 74
0
 40
0
 40
0
 40
0
 40
0
 40
1
 40
1
 40
1
 40
1
 10
238.032751
 20
232.026923
 30
0.0
 10
238.032751
 20
230.874283
 30
0.0
 10
238.453273
 20
229.841698
 30
0.0
 10
239.257794
 20
229.015435
 30
0.0
  0
LWPOLYLINE
  5
181
100
AcDbEntity
  8
Ebene_1
 62
7
100
AcDbPolyline
 90
2
 70
0
 10
238.032751
 20
232.470503
 30
0.0
 10
238.032751
 20
232.026923
 30
0.0
  0
SPLINE
  5
182
100
AcDbEntity
  8
Ebene_1
 62
7
100
AcDbSpline
 70
8
 71
3
 72
8
 73
4
 74
0
 40
0
 40
0
 40
0
 40
0
 40
1
 40
1
 40
1
 40
1
 10
239.261342
 20
229.010200
 30
0.0
 10
240.070245
 20
228.201292
 30
0.0
 10
241.107493
 20
227.781693
 30
0.0
 10
242.278029
 20
227.781693
 30
0.0
  0
LWPOLYLINE
  5
183
100
AcDbEntity
  8
Ebene_1
 62
7
100
AcDbPolyline
 90
3
 70
0
 10
239.257794
 20
229.015435
 30
0.0
 10
239.259568
 20
229.013660
 30
0.0
 10
239.261342
 20
229.010200
 30
0.0
  0
SPLINE
  5
184
100
AcDbEntity
  8
Ebene_1
 62
7
100
AcDbSpline
 70
8
 71
3
 72
8
 73
4
 74
0
 40
0
 40
0
 40
0
 40
0
 40
1
 40
1
 40
1
 40
1
 10
257.484484
 20
227.781693
 30
0.0
 10
258.619311
 20
227.781693
 30
0.0
 10
259.643386
 20
228.203572
 30
0.0
 10
260.468248
 20
229.006734
 30
0.0
  0
SPLINE
  5
185
100
AcDbEntity
  8
Ebene_1
 62
7
100
AcDbSpline
 70
8
 71
3
 72
8
 73
4
 74
0
 40
0
 40
0
 40
0
 40
0
 40
1
 40
1
 40
1
 40
1
 10
260.468248
 20
229.006734
 30
0.0
 10
261.297946
 20
229.814591
 30
0.0
 10
261.729682
 20
230.853619
 30
0.0
 10
261.729682
 20
232.026887
 30
0.0
  0
LWPOLYLINE
  5
186
100
AcDbEntity
  8
Ebene_1
 62
7
100
AcDbPolyline
 90
2
 70
0
 10
242.278029
 20
227.781693
 30
0.0
 10
257.484484
 20
227.781693
 30
0.0
  0
LWPOLYLINE
  5
187
100
AcDbEntity
  8
Ebene_1
 62
7
100
AcDbPolyline
 90
3
 70
0
 10
261.729682
 20
232.026887
 30
0.0
 10
261.729682
 20
232.470467
 30
0.0
 10
238.032751
 20
232.470503
 30
0.0
  0
SPLINE
  5
188
100
AcDbEntity
  8
Ebene_1
 62
7
100
AcDbSpline
 70
8
 71
3
 72
8
 73
4
 74
0
 40
0
 40
0
 40
0
 40
0
 40
1
 40
1
 40
1
 40
1
 10
238.032751
 20
239.630154
 30
0.0
 10
238.032751
 20
238.477512
 30
0.0
 10
238.453273
 20
237.444928
 30
0.0
 10
239.257794
 20
236.618665
 30
0.0
  0
LWPOLYLINE
  5
189
100
AcDbEntity
  8
Ebene_1
 62
7
100
AcDbPolyline
 90
2
 70
0
 10
238.032751
 20
240.073733
 30
0.0
 10
238.032751
 20
239.630154
 30
0.0
  0
SPLINE
  5
18a
100
AcDbEntity
  8
Ebene_1
 62
7
100
AcDbSpline
 70
8
 71
3
 72
8
 73
4
 74
0
 40
0
 40
0
 40
0
 40
0
 40
1
 40
1
 40
1
 40
1
 10
239.261342
 20
236.613431
 30
0.0
 10
240.070245
 20
235.804524
 30
0.0
 10
241.107493
 20
235.384923
 30
0.0
 10
242.278029
 20
235.384923
 30
0.0
  0
LWPOLYLINE
  5
18b
100
AcDbEntity
  8
Ebene_1
 62
7
100
AcDbPolyline
 90
3
 70
0
 10
239.257794
 20
236.618665
 30
0.0
 10
239.259568
 20
236.616891
 30
0.0
 10
239.261342
 20
236.613431
 30
0.0
  0
SPLINE
  5
18c
100
AcDbEntity
  8
Ebene_1
 62
7
100
AcDbSpline
 70
8
 71
3
 72
8
 73
4
 74
0
 40
0
 40
0
 40
0
 40
0
 40
1
 40
1
 40
1
 40
1
 10
257.484484
 20
235.384923
 30
0.0
 10
258.619311
 20
235.384923
 30
0.0
 10
259.643386
 20
235.806802
 30
0.0
 10
260.468248
 20
236.609965
 30
0.0
  0
SPLINE
  5
18d
100
AcDbEntity
  8
Ebene_1
 62
7
100
AcDbSpline
 70
8
 71
3
 72
8
 73
4
 74
0
 40
0
 40
0
 40
0
 40
0
 40
1
 40
1
 40
1
 40
1
 10
260.468248
 20
236.609965
 30
0.0
 10
261.297946
 20
237.417822
 30
0.0
 10
261.729682
 20
238.456850
 30
0.0
 10
261.729682
 20
239.630118
 30
0.0
  0
LWPOLYLINE
  5
18e
100
AcDbEntity
  8
Ebene_1
 62
7
100
AcDbPolyline
 90
2
 70
0
 10
242.278029
 20
235.384923
 30
0.0
 10
257.484484
 20
235.384923
 30
0.0
  0
LWPOLYLINE
  5
18f
100
AcDbEntity
  8
Ebene_1
 62
7
100
AcDbPolyline
 90
3
 70
0
 10
261.729682
 20
239.630118
 30
0.0
 10
261.729682
 20
240.073698
 30
0.0
 10
238.032751
 20
240.073733
 30
0.0
  0
SPLINE
  5
190
100
AcDbEntity
  8
Ebene_1
 62
7
100
AcDbSpline
 70
8
 71
3
 72
8
 73
4
 74
0
 40
0
 40
0
 40
0
 40
0
 40
1
 40
1
 40
1
 40
1
 10
238.032751
 20
247.233383
 30
0.0
 10
238.032751
 20
246.080743
 30
0.0
 10
238.453273
 20
245.048158
 30
0.0
 10
239.257794
 20
244.221894
 30
0.0
  0
LWPOLYLINE
  5
191
100
AcDbEntity
  8
Ebene_1
 62
7
100
AcDbPolyline
 90
2
 70
0
 10
238.032751
 20
247.676963
 30
0.0
 10
238.032751
 20
247.233383
 30
0.0
  0
SPLINE
  5
192
100
AcDbEntity
  8
Ebene_1
 62
7
100
AcDbSpline
 70
8
 71
3
 72
8
 73
4
 74
0
 40
0
 40
0
 40
0
 40
0
 40
1
 40
1
 40
1
 40
1
 10
239.261342
 20
244.218346
 30
0.0
 10
240.070245
 20
243.409438
 30
0.0
 10
241.107493
 20
242.988106
 30
0.0
 10
242.278029
 20
242.988106
 30
0.0
  0
LWPOLYLINE
  5
193
100
AcDbEntity
  8
Ebene_1
 62
7
100
AcDbPolyline
 90
3
 70
0
 10
239.257794
 20
244.221894
 30
0.0
 10
239.259568
 20
244.220120
 30
0.0
 10
239.261342
 20
244.218346
 30
0.0
  0
SPLINE
  5
194
100
AcDbEntity
  8
Ebene_1
 62
7
100
AcDbSpline
 70
8
 71
3
 72
8
 73
4
 74
0
 40
0
 40
0
 40
0
 40
0
 40
1
 40
1
 40
1
 40
1
 10
257.484484
 20
242.988106
 30
0.0
 10
258.619311
 20
242.988106
 30
0.0
 10
259.643386
 20
243.409984
 30
0.0
 10
260.468248
 20
244.213147
 30
0.0
  0
SPLINE
  5
195
100
AcDbEntity
  8
Ebene_1
 62
7
100
AcDbSpline
 70
8
 71
3
 72
8
 73
4
 74
0
 40
0
 40
0
 40
0
 40
0
 40
1
 40
1
 40
1
 40
1
 10
260.468248
 20
244.213147
 30
0.0
 10
261.297946
 20
245.021004
 30
0.0
 10
261.729682
 20
246.060032
 30
0.0
 10
261.729682
 20
247.233300
 30
0.0
  0
LWPOLYLINE
  5
196
100
AcDbEntity
  8
Ebene_1
 62
7
100
AcDbPolyline
 90
2
 70
0
 10
242.278029
 20
242.988106
 30
0.0
 10
257.484484
 20
242.988106
 30
0.0
  0
LWPOLYLINE
  5
197
100
AcDbEntity
  8
Ebene_1
 62
7
100
AcDbPolyline
 90
3
 70
0
 10
261.729682
 20
247.233300
 30
0.0
 10
261.729682
 20
247.676879
 30
0.0
 10
238.032751
 20
247.676963
 30
0.0
  0
SPLINE
  5
198
100
AcDbEntity
  8
Ebene_1
 62
7
100
AcDbSpline
 70
8
 71
3
 72
8
 73
4
 74
0
 40
0
 40
0
 40
0
 40
0
 40
1
 40
1
 40
1
 40
1
 10
271.819297
 20
232.470503
 30
0.0
 10
270.663870
 20
232.470503
 30
0.0
 10
269.627934
 20
232.037864
 30
0.0
 10
268.802610
 20
231.212540
 30
0.0
  0
SPLINE
  5
199
100
AcDbEntity
  8
Ebene_1
 62
7
100
AcDbSpline
 70
8
 71
3
 72
8
 73
4
 74
0
 40
0
 40
0
 40
0
 40
0
 40
1
 40
1
 40
1
 40
1
 10
268.802610
 20
231.212540
 30
0.0
 10
267.995118
 20
230.405044
 30
0.0
 10
267.574108
 20
229.377949
 30
0.0
 10
267.574108
 20
228.225309
 30
0.0
  0
LWPOLYLINE
  5
19a
100
AcDbEntity
  8
Ebene_1
 62
7
100
AcDbPolyline
 90
5
 70
0
 10
267.574108
 20
247.676963
 30
0.0
 10
267.574108
 20
235.384959
 30
0.0
 10
286.582181
 20
235.384959
 30
0.0
 10
286.582181
 20
232.470503
 30
0.0
 10
271.819297
 20
232.470503
 30
0.0
  0
SPLINE
  5
19b
100
AcDbEntity
  8
Ebene_1
 62
7
100
AcDbSpline
 70
8
 71
3
 72
8
 73
4
 74
0
 40
0
 40
0
 40
0
 40
0
 40
1
 40
1
 40
1
 40
1
 10
287.025761
 20
242.988189
 30
0.0
 10
288.160588
 20
242.988189
 30
0.0
 10
289.182924
 20
243.410068
 30
0.0
 10
290.007795
 20
244.213230
 30
0.0
  0
SPLINE
  5
19c
100
AcDbEntity
  8
Ebene_1
 62
7
100
AcDbSpline
 70
8
 71
3
 72
8
 73
4
 74
0
 40
0
 40
0
 40
0
 40
0
 40
1
 40
1
 40
1
 40
1
 10
290.007795
 20
244.213230
 30
0.0
 10
290.837484
 20
245.021088
 30
0.0
 10
291.270950
 20
246.060116
 30
0.0
 10
291.270950
 20
247.233383
 30
0.0
  0
LWPOLYLINE
  5
19d
100
AcDbEntity
  8
Ebene_1
 62
7
100
AcDbPolyline
 90
8
 70
0
 10
267.574108
 20
228.225309
 30
0.0
 10
267.574108
 20
227.781729
 30
0.0
 10
268.017687
 20
227.781729
 30
0.0
 10
291.270950
 20
227.781729
 30
0.0
 10
291.270950
 20
240.073733
 30
0.0
 10
272.262876
 20
240.073733
 30
0.0
 10
272.262876
 20
242.988189
 30
0.0
 10
287.025761
 20
242.988189
 30
0.0
  0
LWPOLYLINE
  5
19e
100
AcDbEntity
  8
Ebene_1
 62
7
100
AcDbPolyline
 90
3
 70
0
 10
291.270950
 20
247.233383
 30
0.0
 10
291.270950
 20
247.676963
 30
0.0
 10
267.574108
 20
247.676963
 30
0.0
  0
SPLINE
  5
19f
100
AcDbEntity
  8
Ebene_1
 62
7
100
AcDbSpline
 70
8
 71
3
 72
8
 73
4
 74
0
 40
0
 40
0
 40
0
 40
0
 40
1
 40
1
 40
1
 40
1
 10
316.565379
 20
227.781729
 30
0.0
 10
317.700206
 20
227.781729
 30
0.0
 10
318.724280
 20
228.203608
 30
0.0
 10
319.549143
 20
229.006771
 30
0.0
  0
SPLINE
  5
1a0
100
AcDbEntity
  8
Ebene_1
 62
7
100
AcDbSpline
 70
8
 71
3
 72
8
 73
4
 74
0
 40
0
 40
0
 40
0
 40
0
 40
1
 40
1
 40
1
 40
1
 10
319.549143
 20
229.006771
 30
0.0
 10
320.378832
 20
229.814628
 30
0.0
 10
320.810577
 20
230.853657
 30
0.0
 10
320.810577
 20
232.026923
 30
0.0
  0
LWPOLYLINE
  5
1a1
100
AcDbEntity
  8
Ebene_1
 62
7
100
AcDbPolyline
 90
4
 70
0
 10
297.113726
 20
247.676963
 30
0.0
 10
297.113726
 20
227.781729
 30
0.0
 10
297.557305
 20
227.781729
 30
0.0
 10
316.565379
 20
227.781729
 30
0.0
  0
SPLINE
  5
1a2
100
AcDbEntity
  8
Ebene_1
 62
7
100
AcDbSpline
 70
8
 71
3
 72
8
 73
4
 74
0
 40
0
 40
0
 40
0
 40
0
 40
1
 40
1
 40
1
 40
1
 10
219.423000
 20
274.120576
 30
0.0
 10
206.196189
 20
274.120576
 30
0.0
 10
195.423000
 20
263.347387
 30
0.0
 10
195.423000
 20
250.120576
 30
0.0
  0
LWPOLYLINE
  5
1a3
100
AcDbEntity
  8
Ebene_1
 62
7
100
AcDbPolyline
 90
5
 70
0
 10
320.810577
 20
232.026923
 30
0.0
 10
320.810577
 20
232.470503
 30
0.0
 10
301.802503
 20
232.470503
 30
0.0
 10
301.802503
 20
247.676963
 30
0.0
 10
297.113726
 20
247.676963
 30
0.0
  0
SPLINE
  5
1a4
100
AcDbEntity
  8
Ebene_1
 62
7
100
AcDbSpline
 70
8
 71
3
 72
8
 73
4
 74
0
 40
0
 40
0
 40
0
 40
0
 40
1
 40
1
 40
1
 40
1
 10
195.423000
 20
50.120576
 30
0.0
 10
195.423000
 20
36.893766
 30
0.0
 10
206.196189
 20
26.120576
 30
0.0
 10
219.423000
 20
26.120576
 30
0.0
  0
LWPOLYLINE
  5
1a5
100
AcDbEntity
  8
Ebene_1
 62
7
100
AcDbPolyline
 90
2
 70
0
 10
195.423000
 20
250.120576
 30
0.0
 10
195.423000
 20
50.120576
 30
0.0
  0
SPLINE
  5
1a6
100
AcDbEntity
  8
Ebene_1
 62
7
100
AcDbSpline
 70
8
 71
3
 72
8
 73
4
 74
0
 40
0
 40
0
 40
0
 40
0
 40
1
 40
1
 40
1
 40
1
 10
339.423000
 20
26.120576
 30
0.0
 10
352.649810
 20
26.120576
 30
0.0
 10
363.423000
 20
36.893766
 30
0.0
 10
363.423000
 20
50.120576
 30
0.0
  0
LWPOLYLINE
  5
1a7
100
AcDbEntity
  8
Ebene_1
 62
7
100
AcDbPolyline
 90
2
 70
0
 10
219.423000
 20
26.120576
 30
0.0
 10
339.423000
 20
26.120576
 30
0.0
  0
SPLINE
  5
1a8
100
AcDbEntity
  8
Ebene_1
 62
7
100
AcDbSpline
 70
8
 71
3
 72
8
 73
4
 74
0
 40
0
 40
0
 40
0
 40
0
 40
1
 40
1
 40
1
 40
1
 10
363.423000
 20
250.120576
 30
0.0
 10
363.423000
 20
263.347387
 30
0.0
 10
352.649810
 20
274.120576
 30
0.0
 10
339.423000
 20
274.120576
 30
0.0
  0
LWPOLYLINE
  5
1a9
100
AcDbEntity
  8
Ebene_1
 62
7
100
AcDbPolyline
 90
2
 70
0
 10
363.423000
 20
50.120576
 30
0.0
 10
363.423000
 20
250.120576
 30
0.0
  0
LWPOLYLINE
  5
1aa
100
AcDbEntity
  8
Ebene_1
 62
7
100
AcDbPolyline
 90
2
 70
0
 10
339.423000
 20
274.120576
 30
0.0
 10
219.423000
 20
274.120576
 30
0.0
  0
SPLINE
  5
1ab
100
AcDbEntity
  8
Ebene_1
 62
7
100
AcDbSpline
 70
8
 71
3
 72
8
 73
4
 74
0
 40
0
 40
0
 40
0
 40
0
 40
1
 40
1
 40
1
 40
1
 10
339.423000
 20
266.120576
 30
0.0
 10
348.356190
 20
266.120576
 30
0.0
 10
355.423000
 20
259.053765
 30
0.0
 10
355.423000
 20
250.120576
 30
0.0
  0
LWPOLYLINE
  5
1ac
100
AcDbEntity
  8
Ebene_1
 62
7
100
AcDbPolyline
 90
2
 70
0
 10
219.423000
 20
266.120576
 30
0.0
 10
339.423000
 20
266.120576
 30
0.0
  0
SPLINE
  5
1ad
100
AcDbEntity
  8
Ebene_1
 62
7
100
AcDbSpline
 70
8
 71
3
 72
8
 73
4
 74
0
 40
0
 40
0
 40
0
 40
0
 40
1
 40
1
 40
1
 40
1
 10
355.423000
 20
50.120576
 30
0.0
 10
355.423000
 20
41.187386
 30
0.0
 10
348.356190
 20
34.120576
 30
0.0
 10
339.423000
 20
34.120576
 30
0.0
  0
LWPOLYLINE
  5
1ae
100
AcDbEntity
  8
Ebene_1
 62
7
100
AcDbPolyline
 90
2
 70
0
 10
355.423000
 20
250.120576
 30
0.0
 10
355.423000
 20
50.120576
 30
0.0
  0
SPLINE
  5
1af
100
AcDbEntity
  8
Ebene_1
 62
7
100
AcDbSpline
 70
8
 71
3
 72
8
 73
4
 74
0
 40
0
 40
0
 40
0
 40
0
 40
1
 40
1
 40
1
 40
1
 10
219.423000
 20
34.120576
 30
0.0
 10
210.489811
 20
34.120576
 30
0.0
 10
203.423000
 20
41.187386
 30
0.0
 10
203.423000
 20
50.120576
 30
0.0
  0
LWPOLYLINE
  5
1b0
100
AcDbEntity
  8
Ebene_1
 62
7
100
AcDbPolyline
 90
2
 70
0
 10
339.423000
 20
34.120576
 30
0.0
 10
219.423000
 20
34.120576
 30
0.0
  0
SPLINE
  5
1b1
100
AcDbEntity
  8
Ebene_1
 62
7
100
AcDbSpline
 70
8
 71
3
 72
8
 73
4
 74
0
 40
0
 40
0
 40
0
 40
0
 40
1
 40
1
 40
1
 40
1
 10
203.423000
 20
250.120576
 30
0.0
 10
203.423000
 20
259.053765
 30
0.0
 10
210.489811
 20
266.120576
 30
0.0
 10
219.423000
 20
266.120576
 30
0.0
  0
LWPOLYLINE
  5
1b2
100
AcDbEntity
  8
Ebene_1
 62
7
100
AcDbPolyline
 90
2
 70
0
 10
203.423000
 20
50.120576
 30
0.0
 10
203.423000
 20
250.120576
 30
0.0
  0
SPLINE
  5
1b3
100
AcDbEntity
  8
Ebene_1
 62
7
100
AcDbSpline
 70
8
 71
3
 72
8
 73
4
 74
0
 40
0
 40
0
 40
0
 40
0
 40
1
 40
1
 40
1
 40
1
 10
215.422996
 20
256.620576
 30
0.0
 10
215.422996
 20
255.957535
 30
0.0
 10
215.159604
 20
255.321650
 30
0.0
 10
214.690763
 20
254.852809
 30
0.0
  0
SPLINE
  5
1b4
100
AcDbEntity
  8
Ebene_1
 62
7
100
AcDbSpline
 70
8
 71
3
 72
8
 73
4
 74
0
 40
0
 40
0
 40
0
 40
0
 40
1
 40
1
 40
1
 40
1
 10
214.690763
 20
254.852809
 30
0.0
 10
214.221922
 20
254.383968
 30
0.0
 10
213.586037
 20
254.120576
 30
0.0
 10
212.922996
 20
254.120576
 30
0.0
  0
SPLINE
  5
1b5
100
AcDbEntity
  8
Ebene_1
 62
7
100
AcDbSpline
 70
8
 71
3
 72
8
 73
4
 74
0
 40
0
 40
0
 40
0
 40
0
 40
1
 40
1
 40
1
 40
1
 10
212.922996
 20
254.120576
 30
0.0
 10
212.259955
 20
254.120576
 30
0.0
 10
211.624070
 20
254.383968
 30
0.0
 10
211.155229
 20
254.852809
 30
0.0
  0
SPLINE
  5
1b6
100
AcDbEntity
  8
Ebene_1
 62
7
100
AcDbSpline
 70
8
 71
3
 72
8
 73
4
 74
0
 40
0
 40
0
 40
0
 40
0
 40
1
 40
1
 40
1
 40
1
 10
211.155229
 20
254.852809
 30
0.0
 10
210.686388
 20
255.321650
 30
0.0
 10
210.422996
 20
255.957535
 30
0.0
 10
210.422996
 20
256.620576
 30
0.0
  0
SPLINE
  5
1b7
100
AcDbEntity
  8
Ebene_1
 62
7
100
AcDbSpline
 70
8
 71
3
 72
8
 73
4
 74
0
 40
0
 40
0
 40
0
 40
0
 40
1
 40
1
 40
1
 40
1
 10
210.422996
 20
256.620576
 30
0.0
 10
210.422996
 20
257.283617
 30
0.0
 10
210.686388
 20
257.919502
 30
0.0
 10
211.155229
 20
258.388343
 30
0.0
  0
SPLINE
  5
1b8
100
AcDbEntity
  8
Ebene_1
 62
7
100
AcDbSpline
 70
8
 71
3
 72
8
 73
4
 74
0
 40
0
 40
0
 40
0
 40
0
 40
1
 40
1
 40
1
 40
1
 10
211.155229
 20
258.388343
 30
0.0
 10
211.624070
 20
258.857184
 30
0.0
 10
212.259955
 20
259.120576
 30
0.0
 10
212.922996
 20
259.120576
 30
0.0
  0
SPLINE
  5
1b9
100
AcDbEntity
  8
Ebene_1
 62
7
100
AcDbSpline
 70
8
 71
3
 72
8
 73
4
 74
0
 40
0
 40
0
 40
0
 40
0
 40
1
 40
1
 40
1
 40
1
 10
212.922996
 20
259.120576
 30
0.0
 10
213.586037
 20
259.120576
 30
0.0
 10
214.221922
 20
258.857184
 30
0.0
 10
214.690763
 20
258.388343
 30
0.0
  0
SPLINE
  5
1ba
100
AcDbEntity
  8
Ebene_1
 62
7
100
AcDbSpline
 70
8
 71
3
 72
8
 73
4
 74
0
 40
0
 40
0
 40
0
 40
0
 40
1
 40
1
 40
1
 40
1
 10
214.690763
 20
258.388343
 30
0.0
 10
215.159604
 20
257.919502
 30
0.0
 10
215.422996
 20
257.283617
 30
0.0
 10
215.422996
 20
256.620576
 30
0.0
  0
SPLINE
  5
1bb
100
AcDbEntity
  8
Ebene_1
 62
7
100
AcDbSpline
 70
8
 71
3
 72
8
 73
4
 74
0
 40
0
 40
0
 40
0
 40
0
 40
1
 40
1
 40
1
 40
1
 10
348.423000
 20
256.620576
 30
0.0
 10
348.423000
 20
255.957535
 30
0.0
 10
348.159608
 20
255.321650
 30
0.0
 10
347.690767
 20
254.852809
 30
0.0
  0
SPLINE
  5
1bc
100
AcDbEntity
  8
Ebene_1
 62
7
100
AcDbSpline
 70
8
 71
3
 72
8
 73
4
 74
0
 40
0
 40
0
 40
0
 40
0
 40
1
 40
1
 40
1
 40
1
 10
347.690767
 20
254.852809
 30
0.0
 10
347.221926
 20
254.383968
 30
0.0
 10
346.586041
 20
254.120576
 30
0.0
 10
345.923000
 20
254.120576
 30
0.0
  0
SPLINE
  5
1bd
100
AcDbEntity
  8
Ebene_1
 62
7
100
AcDbSpline
 70
8
 71
3
 72
8
 73
4
 74
0
 40
0
 40
0
 40
0
 40
0
 40
1
 40
1
 40
1
 40
1
 10
345.923000
 20
254.120576
 30
0.0
 10
345.259959
 20
254.120576
 30
0.0
 10
344.624074
 20
254.383968
 30
0.0
 10
344.155233
 20
254.852809
 30
0.0
  0
SPLINE
  5
1be
100
AcDbEntity
  8
Ebene_1
 62
7
100
AcDbSpline
 70
8
 71
3
 72
8
 73
4
 74
0
 40
0
 40
0
 40
0
 40
0
 40
1
 40
1
 40
1
 40
1
 10
344.155233
 20
254.852809
 30
0.0
 10
343.686392
 20
255.321650
 30
0.0
 10
343.423000
 20
255.957535
 30
0.0
 10
343.423000
 20
256.620576
 30
0.0
  0
SPLINE
  5
1bf
100
AcDbEntity
  8
Ebene_1
 62
7
100
AcDbSpline
 70
8
 71
3
 72
8
 73
4
 74
0
 40
0
 40
0
 40
0
 40
0
 40
1
 40
1
 40
1
 40
1
 10
343.423000
 20
256.620576
 30
0.0
 10
343.423000
 20
257.283617
 30
0.0
 10
343.686392
 20
257.919502
 30
0.0
 10
344.155233
 20
258.388343
 30
0.0
  0
SPLINE
  5
1c0
100
AcDbEntity
  8
Ebene_1
 62
7
100
AcDbSpline
 70
8
 71
3
 72
8
 73
4
 74
0
 40
0
 40
0
 40
0
 40
0
 40
1
 40
1
 40
1
 40
1
 10
344.155233
 20
258.388343
 30
0.0
 10
344.624074
 20
258.857184
 30
0.0
 10
345.259959
 20
259.120576
 30
0.0
 10
345.923000
 20
259.120576
 30
0.0
  0
SPLINE
  5
1c1
100
AcDbEntity
  8
Ebene_1
 62
7
100
AcDbSpline
 70
8
 71
3
 72
8
 73
4
 74
0
 40
0
 40
0
 40
0
 40
0
 40
1
 40
1
 40
1
 40
1
 10
345.923000
 20
259.120576
 30
0.0
 10
346.586041
 20
259.120576
 30
0.0
 10
347.221926
 20
258.857184
 30
0.0
 10
347.690767
 20
258.388343
 30
0.0
  0
SPLINE
  5
1c2
100
AcDbEntity
  8
Ebene_1
 62
7
100
AcDbSpline
 70
8
 71
3
 72
8
 73
4
 74
0
 40
0
 40
0
 40
0
 40
0
 40
1
 40
1
 40
1
 40
1
 10
347.690767
 20
258.388343
 30
0.0
 10
348.159608
 20
257.919502
 30
0.0
 10
348.423000
 20
257.283617
 30
0.0
 10
348.423000
 20
256.620576
 30
0.0
  0
SPLINE
  5
1c3
100
AcDbEntity
  8
Ebene_1
 62
7
100
AcDbSpline
 70
8
 71
3
 72
8
 73
4
 74
0
 40
0
 40
0
 40
0
 40
0
 40
1
 40
1
 40
1
 40
1
 10
348.423000
 20
43.620576
 30
0.0
 10
348.423000
 20
42.957535
 30
0.0
 10
348.159608
 20
42.321650
 30
0.0
 10
347.690767
 20
41.852809
 30
0.0
  0
SPLINE
  5
1c4
100
AcDbEntity
  8
Ebene_1
 62
7
100
AcDbSpline
 70
8
 71
3
 72
8
 73
4
 74
0
 40
0
 40
0
 40
0
 40
0
 40
1
 40
1
 40
1
 40
1
 10
347.690767
 20
41.852809
 30
0.0
 10
347.221926
 20
41.383968
 30
0.0
 10
346.586041
 20
41.120576
 30
0.0
 10
345.923000
 20
41.120576
 30
0.0
  0
SPLINE
  5
1c5
100
AcDbEntity
  8
Ebene_1
 62
7
100
AcDbSpline
 70
8
 71
3
 72
8
 73
4
 74
0
 40
0
 40
0
 40
0
 40
0
 40
1
 40
1
 40
1
 40
1
 10
345.923000
 20
41.120576
 30
0.0
 10
345.259959
 20
41.120576
 30
0.0
 10
344.624074
 20
41.383968
 30
0.0
 10
344.155233
 20
41.852809
 30
0.0
  0
SPLINE
  5
1c6
100
AcDbEntity
  8
Ebene_1
 62
7
100
AcDbSpline
 70
8
 71
3
 72
8
 73
4
 74
0
 40
0
 40
0
 40
0
 40
0
 40
1
 40
1
 40
1
 40
1
 10
344.155233
 20
41.852809
 30
0.0
 10
343.686392
 20
42.321650
 30
0.0
 10
343.423000
 20
42.957535
 30
0.0
 10
343.423000
 20
43.620576
 30
0.0
  0
SPLINE
  5
1c7
100
AcDbEntity
  8
Ebene_1
 62
7
100
AcDbSpline
 70
8
 71
3
 72
8
 73
4
 74
0
 40
0
 40
0
 40
0
 40
0
 40
1
 40
1
 40
1
 40
1
 10
343.423000
 20
43.620576
 30
0.0
 10
343.423000
 20
44.283617
 30
0.0
 10
343.686392
 20
44.919502
 30
0.0
 10
344.155233
 20
45.388343
 30
0.0
  0
SPLINE
  5
1c8
100
AcDbEntity
  8
Ebene_1
 62
7
100
AcDbSpline
 70
8
 71
3
 72
8
 73
4
 74
0
 40
0
 40
0
 40
0
 40
0
 40
1
 40
1
 40
1
 40
1
 10
344.155233
 20
45.388343
 30
0.0
 10
344.624074
 20
45.857184
 30
0.0
 10
345.259959
 20
46.120576
 30
0.0
 10
345.923000
 20
46.120576
 30
0.0
  0
SPLINE
  5
1c9
100
AcDbEntity
  8
Ebene_1
 62
7
100
AcDbSpline
 70
8
 71
3
 72
8
 73
4
 74
0
 40
0
 40
0
 40
0
 40
0
 40
1
 40
1
 40
1
 40
1
 10
345.923000
 20
46.120576
 30
0.0
 10
346.586041
 20
46.120576
 30
0.0
 10
347.221926
 20
45.857184
 30
0.0
 10
347.690767
 20
45.388343
 30
0.0
  0
SPLINE
  5
1ca
100
AcDbEntity
  8
Ebene_1
 62
7
100
AcDbSpline
 70
8
 71
3
 72
8
 73
4
 74
0
 40
0
 40
0
 40
0
 40
0
 40
1
 40
1
 40
1
 40
1
 10
347.690767
 20
45.388343
 30
0.0
 10
348.159608
 20
44.919502
 30
0.0
 10
348.423000
 20
44.283617
 30
0.0
 10
348.423000
 20
43.620576
 30
0.0
  0
SPLINE
  5
1cb
100
AcDbEntity
  8
Ebene_1
 62
7
100
AcDbSpline
 70
8
 71
3
 72
8
 73
4
 74
0
 40
0
 40
0
 40
0
 40
0
 40
1
 40
1
 40
1
 40
1
 10
215.422996
 20
43.620576
 30
0.0
 10
215.422996
 20
42.957535
 30
0.0
 10
215.159604
 20
42.321650
 30
0.0
 10
214.690763
 20
41.852809
 30
0.0
  0
SPLINE
  5
1cc
100
AcDbEntity
  8
Ebene_1
 62
7
100
AcDbSpline
 70
8
 71
3
 72
8
 73
4
 74
0
 40
0
 40
0
 40
0
 40
0
 40
1
 40
1
 40
1
 40
1
 10
214.690763
 20
41.852809
 30
0.0
 10
214.221922
 20
41.383968
 30
0.0
 10
213.586037
 20
41.120576
 30
0.0
 10
212.922996
 20
41.120576
 30
0.0
  0
SPLINE
  5
1cd
100
AcDbEntity
  8
Ebene_1
 62
7
100
AcDbSpline
 70
8
 71
3
 72
8
 73
4
 74
0
 40
0
 40
0
 40
0
 40
0
 40
1
 40
1
 40
1
 40
1
 10
212.922996
 20
41.120576
 30
0.0
 10
212.259955
 20
41.120576
 30
0.0
 10
211.624070
 20
41.383968
 30
0.0
 10
211.155229
 20
41.852809
 30
0.0
  0
SPLINE
  5
1ce
100
AcDbEntity
  8
Ebene_1
 62
7
100
AcDbSpline
 70
8
 71
3
 72
8
 73
4
 74
0
 40
0
 40
0
 40
0
 40
0
 40
1
 40
1
 40
1
 40
1
 10
211.155229
 20
41.852809
 30
0.0
 10
210.686388
 20
42.321650
 30
0.0
 10
210.422996
 20
42.957535
 30
0.0
 10
210.422996
 20
43.620576
 30
0.0
  0
SPLINE
  5
1cf
100
AcDbEntity
  8
Ebene_1
 62
7
100
AcDbSpline
 70
8
 71
3
 72
8
 73
4
 74
0
 40
0
 40
0
 40
0
 40
0
 40
1
 40
1
 40
1
 40
1
 10
210.422996
 20
43.620576
 30
0.0
 10
210.422996
 20
44.283617
 30
0.0
 10
210.686388
 20
44.919502
 30
0.0
 10
211.155229
 20
45.388343
 30
0.0
  0
SPLINE
  5
1d0
100
AcDbEntity
  8
Ebene_1
 62
7
100
AcDbSpline
 70
8
 71
3
 72
8
 73
4
 74
0
 40
0
 40
0
 40
0
 40
0
 40
1
 40
1
 40
1
 40
1
 10
211.155229
 20
45.388343
 30
0.0
 10
211.624070
 20
45.857184
 30
0.0
 10
212.259955
 20
46.120576
 30
0.0
 10
212.922996
 20
46.120576
 30
0.0
  0
SPLINE
  5
1d1
100
AcDbEntity
  8
Ebene_1
 62
7
100
AcDbSpline
 70
8
 71
3
 72
8
 73
4
 74
0
 40
0
 40
0
 40
0
 40
0
 40
1
 40
1
 40
1
 40
1
 10
212.922996
 20
46.120576
 30
0.0
 10
213.586037
 20
46.120576
 30
0.0
 10
214.221922
 20
45.857184
 30
0.0
 10
214.690763
 20
45.388343
 30
0.0
  0
SPLINE
  5
1d2
100
AcDbEntity
  8
Ebene_1
 62
7
100
AcDbSpline
 70
8
 71
3
 72
8
 73
4
 74
0
 40
0
 40
0
 40
0
 40
0
 40
1
 40
1
 40
1
 40
1
 10
214.690763
 20
45.388343
 30
0.0
 10
215.159604
 20
44.919502
 30
0.0
 10
215.422996
 20
44.283617
 30
0.0
 10
215.422996
 20
43.620576
 30
0.0
  0
SPLINE
  5
1d3
100
AcDbEntity
  8
Ebene_1
 62
7
100
AcDbSpline
 70
8
 71
3
 72
8
 73
4
 74
0
 40
0
 40
0
 40
0
 40
0
 40
1
 40
1
 40
1
 40
1
 10
38.921000
 20
277.468066
 30
0.0
 10
24.558750
 20
277.468066
 30
0.0
 10
12.838150
 20
265.824717
 30
0.0
 10
12.838150
 20
251.557135
 30
0.0
  0
LWPOLYLINE
  5
1d4
100
AcDbEntity
  8
Ebene_1
 62
7
100
AcDbPolyline
 90
1
 70
1
 10
219.423000
 20
266.120576
 30
0.0
  0
SPLINE
  5
1d5
100
AcDbEntity
  8
Ebene_1
 62
7
100
AcDbSpline
 70
8
 71
3
 72
8
 73
4
 74
0
 40
0
 40
0
 40
0
 40
0
 40
1
 40
1
 40
1
 40
1
 10
12.838150
 20
48.334146
 30
0.0
 10
12.838150
 20
34.066586
 30
0.0
 10
24.558750
 20
22.423226
 30
0.0
 10
38.921000
 20
22.423226
 30
0.0
  0
LWPOLYLINE
  5
1d6
100
AcDbEntity
  8
Ebene_1
 62
7
100
AcDbPolyline
 90
2
 70
0
 10
12.838150
 20
251.557135
 30
0.0
 10
12.838150
 20
48.334146
 30
0.0
  0
SPLINE
  5
1d7
100
AcDbEntity
  8
Ebene_1
 62
7
100
AcDbSpline
 70
8
 71
3
 72
8
 73
4
 74
0
 40
0
 40
0
 40
0
 40
0
 40
1
 40
1
 40
1
 40
1
 10
161.663860
 20
22.423226
 30
0.0
 10
176.026100
 20
22.423226
 30
0.0
 10
187.746720
 20
34.066586
 30
0.0
 10
187.746720
 20
48.334146
 30
0.0
  0
LWPOLYLINE
  5
1d8
100
AcDbEntity
  8
Ebene_1
 62
7
100
AcDbPolyline
 90
2
 70
0
 10
38.921000
 20
22.423226
 30
0.0
 10
161.663860
 20
22.423226
 30
0.0
  0
SPLINE
  5
1d9
100
AcDbEntity
  8
Ebene_1
 62
7
100
AcDbSpline
 70
8
 71
3
 72
8
 73
4
 74
0
 40
0
 40
0
 40
0
 40
0
 40
1
 40
1
 40
1
 40
1
 10
187.746720
 20
251.557135
 30
0.0
 10
187.746720
 20
265.824717
 30
0.0
 10
176.026100
 20
277.468066
 30
0.0
 10
161.663860
 20
277.468066
 30
0.0
  0
LWPOLYLINE
  5
1da
100
AcDbEntity
  8
Ebene_1
 62
7
100
AcDbPolyline
 90
2
 70
0
 10
187.746720
 20
48.334146
 30
0.0
 10
187.746720
 20
251.557135
 30
0.0
  0
LWPOLYLINE
  5
1db
100
AcDbEntity
  8
Ebene_1
 62
7
100
AcDbPolyline
 90
2
 70
0
 10
161.663860
 20
277.468066
 30
0.0
 10
38.921000
 20
277.468066
 30
0.0
  0
SPLINE
  5
1dc
100
AcDbEntity
  8
Ebene_1
 62
7
100
AcDbSpline
 70
8
 71
3
 72
8
 73
4
 74
0
 40
0
 40
0
 40
0
 40
0
 40
1
 40
1
 40
1
 40
1
 10
151.754552
 20
76.572966
 30
0.0
 10
151.754552
 20
75.465907
 30
0.0
 10
152.129540
 20
74.469042
 30
0.0
 10
152.844919
 20
73.675461
 30
0.0
  0
LWPOLYLINE
  5
1dd
100
AcDbEntity
  8
Ebene_1
 62
7
100
AcDbPolyline
 90
2
 70
0
 10
151.754552
 20
84.276842
 30
0.0
 10
151.754552
 20
76.572966
 30
0.0
  0
SPLINE
  5
1de
100
AcDbEntity
  8
Ebene_1
 62
7
100
AcDbSpline
 70
8
 71
3
 72
8
 73
4
 74
0
 40
0
 40
0
 40
0
 40
0
 40
1
 40
1
 40
1
 40
1
 10
152.848290
 20
73.671912
 30
0.0
 10
153.567890
 20
72.894654
 30
0.0
 10
154.493628
 20
72.488779
 30
0.0
 10
155.534194
 20
72.488779
 30
0.0
  0
LWPOLYLINE
  5
1df
100
AcDbEntity
  8
Ebene_1
 62
7
100
AcDbPolyline
 90
3
 70
0
 10
152.844919
 20
73.675461
 30
0.0
 10
152.846605
 20
73.673686
 30
0.0
 10
152.848290
 20
73.671912
 30
0.0
  0
SPLINE
  5
1e0
100
AcDbEntity
  8
Ebene_1
 62
7
100
AcDbSpline
 70
8
 71
3
 72
8
 73
4
 74
0
 40
0
 40
0
 40
0
 40
0
 40
1
 40
1
 40
1
 40
1
 10
158.460179
 20
83.815883
 30
0.0
 10
158.460179
 20
82.708815
 30
0.0
 10
158.835168
 20
81.713760
 30
0.0
 10
159.550545
 20
80.920179
 30
0.0
  0
LWPOLYLINE
  5
1e1
100
AcDbEntity
  8
Ebene_1
 62
7
100
AcDbPolyline
 90
5
 70
0
 10
155.534194
 20
72.488779
 30
0.0
 10
172.726645
 20
72.488779
 30
0.0
 10
172.726645
 20
84.276887
 30
0.0
 10
158.460179
 20
84.276887
 30
0.0
 10
158.460179
 20
83.815883
 30
0.0
  0
SPLINE
  5
1e2
100
AcDbEntity
  8
Ebene_1
 62
7
100
AcDbSpline
 70
8
 71
3
 72
8
 73
4
 74
0
 40
0
 40
0
 40
0
 40
0
 40
1
 40
1
 40
1
 40
1
 10
159.555602
 20
80.914856
 30
0.0
 10
160.275201
 20
80.137607
 30
0.0
 10
161.200939
 20
79.733524
 30
0.0
 10
162.241506
 20
79.733524
 30
0.0
  0
LWPOLYLINE
  5
1e3
100
AcDbEntity
  8
Ebene_1
 62
7
100
AcDbPolyline
 90
3
 70
0
 10
159.550545
 20
80.920179
 30
0.0
 10
159.553916
 20
80.916630
 30
0.0
 10
159.555602
 20
80.914856
 30
0.0
  0
SPLINE
  5
1e4
100
AcDbEntity
  8
Ebene_1
 62
7
100
AcDbSpline
 70
8
 71
3
 72
8
 73
4
 74
0
 40
0
 40
0
 40
0
 40
0
 40
1
 40
1
 40
1
 40
1
 10
157.211480
 20
77.034103
 30
0.0
 10
156.840269
 20
77.034103
 30
0.0
 10
156.568153
 20
77.153940
 30
0.0
 10
156.312845
 20
77.410462
 30
0.0
  0
SPLINE
  5
1e5
100
AcDbEntity
  8
Ebene_1
 62
7
100
AcDbSpline
 70
8
 71
3
 72
8
 73
4
 74
0
 40
0
 40
0
 40
0
 40
0
 40
1
 40
1
 40
1
 40
1
 10
156.312845
 20
77.410462
 30
0.0
 10
156.073423
 20
77.687140
 30
0.0
 10
155.961060
 20
77.980409
 30
0.0
 10
155.961060
 20
78.382904
 30
0.0
  0
LWPOLYLINE
  5
1e6
100
AcDbEntity
  8
Ebene_1
 62
7
100
AcDbPolyline
 90
4
 70
0
 10
162.241506
 20
79.733524
 30
0.0
 10
168.520285
 20
79.733524
 30
0.0
 10
168.520285
 20
77.034103
 30
0.0
 10
157.211480
 20
77.034103
 30
0.0
  0
LWPOLYLINE
  5
1e7
100
AcDbEntity
  8
Ebene_1
 62
7
100
AcDbPolyline
 90
3
 70
0
 10
155.961060
 20
78.382904
 30
0.0
 10
155.961060
 20
84.276966
 30
0.0
 10
151.754552
 20
84.276842
 30
0.0
  0
SPLINE
  5
1e8
100
AcDbEntity
  8
Ebene_1
 62
7
100
AcDbSpline
 70
8
 71
3
 72
8
 73
4
 74
0
 40
0
 40
0
 40
0
 40
0
 40
1
 40
1
 40
1
 40
1
 10
44.451782
 20
85.627444
 30
0.0
 10
44.451782
 20
85.229039
 30
0.0
 10
44.338155
 20
84.938033
 30
0.0
 10
44.081668
 20
84.658604
 30
0.0
  0
SPLINE
  5
1e9
100
AcDbEntity
  8
Ebene_1
 62
7
100
AcDbSpline
 70
8
 71
3
 72
8
 73
4
 74
0
 40
0
 40
0
 40
0
 40
0
 40
1
 40
1
 40
1
 40
1
 10
44.081668
 20
84.658604
 30
0.0
 10
43.822156
 20
84.395322
 30
0.0
 10
43.556089
 20
84.276842
 30
0.0
 10
43.203035
 20
84.276842
 30
0.0
  0
LWPOLYLINE
  5
1ea
100
AcDbEntity
  8
Ebene_1
 62
7
100
AcDbPolyline
 90
4
 70
0
 10
27.686145
 20
91.521498
 30
0.0
 10
27.686145
 20
86.976245
 30
0.0
 10
44.451782
 20
86.976245
 30
0.0
 10
44.451782
 20
85.627444
 30
0.0
  0
SPLINE
  5
1eb
100
AcDbEntity
  8
Ebene_1
 62
7
100
AcDbSpline
 70
8
 71
3
 72
8
 73
4
 74
0
 40
0
 40
0
 40
0
 40
0
 40
1
 40
1
 40
1
 40
1
 10
44.878594
 20
79.733399
 30
0.0
 10
45.887986
 20
79.733399
 30
0.0
 10
46.801121
 20
80.139851
 30
0.0
 10
47.534491
 20
80.911121
 30
0.0
  0
SPLINE
  5
1ec
100
AcDbEntity
  8
Ebene_1
 62
7
100
AcDbSpline
 70
8
 71
3
 72
8
 73
4
 74
0
 40
0
 40
0
 40
0
 40
0
 40
1
 40
1
 40
1
 40
1
 10
47.534491
 20
80.911121
 30
0.0
 10
48.272492
 20
81.687287
 30
0.0
 10
48.659870
 20
82.689040
 30
0.0
 10
48.659870
 20
83.815830
 30
0.0
  0
LWPOLYLINE
  5
1ed
100
AcDbEntity
  8
Ebene_1
 62
7
100
AcDbPolyline
 90
7
 70
0
 10
43.203035
 20
84.276842
 30
0.0
 10
27.686145
 20
84.276842
 30
0.0
 10
27.686145
 20
72.488726
 30
0.0
 10
28.112957
 20
72.488726
 30
0.0
 10
31.892565
 20
72.488726
 30
0.0
 10
31.892565
 20
79.733399
 30
0.0
 10
44.878594
 20
79.733399
 30
0.0
  0
LWPOLYLINE
  5
1ee
100
AcDbEntity
  8
Ebene_1
 62
7
100
AcDbPolyline
 90
3
 70
0
 10
48.659870
 20
83.815830
 30
0.0
 10
48.659870
 20
91.521498
 30
0.0
 10
27.686145
 20
91.521498
 30
0.0
  0
LWPOLYLINE
  5
1ef
100
AcDbEntity
  8
Ebene_1
 62
7
100
AcDbPolyline
 90
9
 70
1
 10
51.159041
 20
84.276842
 30
0.0
 10
51.159041
 20
72.488726
 30
0.0
 10
51.585853
 20
72.488726
 30
0.0
 10
55.365461
 20
72.488726
 30
0.0
 10
55.365461
 20
79.733399
 30
0.0
 10
67.924687
 20
79.733399
 30
0.0
 10
67.924687
 20
72.488726
 30
0.0
 10
72.131098
 20
72.488726
 30
0.0
 10
72.131098
 20
84.276842
 30
0.0
  0
SPLINE
  5
1f0
100
AcDbEntity
  8
Ebene_1
 62
7
100
AcDbSpline
 70
8
 71
3
 72
8
 73
4
 74
0
 40
0
 40
0
 40
0
 40
0
 40
1
 40
1
 40
1
 40
1
 10
51.159041
 20
91.060495
 30
0.0
 10
51.159041
 20
89.953427
 30
0.0
 10
51.534026
 20
88.956570
 30
0.0
 10
52.249413
 20
88.162980
 30
0.0
  0
LWPOLYLINE
  5
1f1
100
AcDbEntity
  8
Ebene_1
 62
7
100
AcDbPolyline
 90
2
 70
0
 10
51.159041
 20
91.521498
 30
0.0
 10
51.159041
 20
91.060495
 30
0.0
  0
SPLINE
  5
1f2
100
AcDbEntity
  8
Ebene_1
 62
7
100
AcDbSpline
 70
8
 71
3
 72
8
 73
4
 74
0
 40
0
 40
0
 40
0
 40
0
 40
1
 40
1
 40
1
 40
1
 10
52.252961
 20
88.159431
 30
0.0
 10
52.972563
 20
87.382183
 30
0.0
 10
53.898304
 20
86.976290
 30
0.0
 10
54.938871
 20
86.976290
 30
0.0
  0
LWPOLYLINE
  5
1f3
100
AcDbEntity
  8
Ebene_1
 62
7
100
AcDbPolyline
 90
3
 70
0
 10
52.249413
 20
88.162980
 30
0.0
 10
52.251187
 20
88.161206
 30
0.0
 10
52.252961
 20
88.159431
 30
0.0
  0
SPLINE
  5
1f4
100
AcDbEntity
  8
Ebene_1
 62
7
100
AcDbSpline
 70
8
 71
3
 72
8
 73
4
 74
0
 40
0
 40
0
 40
0
 40
0
 40
1
 40
1
 40
1
 40
1
 10
68.351712
 20
86.976290
 30
0.0
 10
69.361104
 20
86.976290
 30
0.0
 10
70.274239
 20
87.382741
 30
0.0
 10
71.007609
 20
88.154029
 30
0.0
  0
SPLINE
  5
1f5
100
AcDbEntity
  8
Ebene_1
 62
7
100
AcDbSpline
 70
8
 71
3
 72
8
 73
4
 74
0
 40
0
 40
0
 40
0
 40
0
 40
1
 40
1
 40
1
 40
1
 10
71.007609
 20
88.154029
 30
0.0
 10
71.745619
 20
88.930186
 30
0.0
 10
72.131311
 20
89.933749
 30
0.0
 10
72.131311
 20
91.060530
 30
0.0
  0
LWPOLYLINE
  5
1f6
100
AcDbEntity
  8
Ebene_1
 62
7
100
AcDbPolyline
 90
2
 70
0
 10
54.938871
 20
86.976290
 30
0.0
 10
68.351712
 20
86.976290
 30
0.0
  0
LWPOLYLINE
  5
1f7
100
AcDbEntity
  8
Ebene_1
 62
7
100
AcDbPolyline
 90
3
 70
0
 10
72.131311
 20
91.060530
 30
0.0
 10
72.131311
 20
91.521542
 30
0.0
 10
51.159041
 20
91.521498
 30
0.0
  0
SPLINE
  5
1f8
100
AcDbEntity
  8
Ebene_1
 62
7
100
AcDbSpline
 70
8
 71
3
 72
8
 73
4
 74
0
 40
0
 40
0
 40
0
 40
0
 40
1
 40
1
 40
1
 40
1
 10
74.630279
 20
91.060495
 30
0.0
 10
74.630279
 20
89.953427
 30
0.0
 10
75.005263
 20
88.956570
 30
0.0
 10
75.720641
 20
88.162980
 30
0.0
  0
LWPOLYLINE
  5
1f9
100
AcDbEntity
  8
Ebene_1
 62
7
100
AcDbPolyline
 90
2
 70
0
 10
74.630279
 20
91.521498
 30
0.0
 10
74.630279
 20
91.060495
 30
0.0
  0
SPLINE
  5
1fa
100
AcDbEntity
  8
Ebene_1
 62
7
100
AcDbSpline
 70
8
 71
3
 72
8
 73
4
 74
0
 40
0
 40
0
 40
0
 40
0
 40
1
 40
1
 40
1
 40
1
 10
75.725964
 20
88.159431
 30
0.0
 10
76.445557
 20
87.382183
 30
0.0
 10
77.371298
 20
86.976298
 30
0.0
 10
78.411865
 20
86.976290
 30
0.0
  0
LWPOLYLINE
  5
1fb
100
AcDbEntity
  8
Ebene_1
 62
7
100
AcDbPolyline
 90
3
 70
0
 10
75.720641
 20
88.162980
 30
0.0
 10
75.724190
 20
88.161206
 30
0.0
 10
75.725964
 20
88.159431
 30
0.0
  0
SPLINE
  5
1fc
100
AcDbEntity
  8
Ebene_1
 62
7
100
AcDbSpline
 70
8
 71
3
 72
8
 73
4
 74
0
 40
0
 40
0
 40
0
 40
0
 40
1
 40
1
 40
1
 40
1
 10
91.397912
 20
85.627480
 30
0.0
 10
91.397912
 20
85.229083
 30
0.0
 10
91.282608
 20
84.938077
 30
0.0
 10
91.026112
 20
84.658649
 30
0.0
  0
SPLINE
  5
1fd
100
AcDbEntity
  8
Ebene_1
 62
7
100
AcDbSpline
 70
8
 71
3
 72
8
 73
4
 74
0
 40
0
 40
0
 40
0
 40
0
 40
1
 40
1
 40
1
 40
1
 10
91.026112
 20
84.658649
 30
0.0
 10
90.766601
 20
84.395367
 30
0.0
 10
90.500542
 20
84.276878
 30
0.0
 10
90.147479
 20
84.276878
 30
0.0
  0
LWPOLYLINE
  5
1fe
100
AcDbEntity
  8
Ebene_1
 62
7
100
AcDbPolyline
 90
3
 70
0
 10
78.411865
 20
86.976290
 30
0.0
 10
91.397912
 20
86.976290
 30
0.0
 10
91.397912
 20
85.627480
 30
0.0
  0
SPLINE
  5
1ff
100
AcDbEntity
  8
Ebene_1
 62
7
100
AcDbSpline
 70
8
 71
3
 72
8
 73
4
 74
0
 40
0
 40
0
 40
0
 40
0
 40
1
 40
1
 40
1
 40
1
 10
91.769623
 20
79.736983
 30
0.0
 10
92.836467
 20
79.587621
 30
0.0
 10
93.762537
 20
80.157754
 30
0.0
 10
94.478873
 20
80.911112
 30
0.0
  0
SPLINE
  5
200
100
AcDbEntity
  8
Ebene_1
 62
7
100
AcDbSpline
 70
8
 71
3
 72
8
 73
4
 74
0
 40
0
 40
0
 40
0
 40
0
 40
1
 40
1
 40
1
 40
1
 10
94.478873
 20
80.911112
 30
0.0
 10
95.216883
 20
81.687278
 30
0.0
 10
95.604252
 20
82.689032
 30
0.0
 10
95.604252
 20
83.815821
 30
0.0
  0
LWPOLYLINE
  5
201
100
AcDbEntity
  8
Ebene_1
 62
7
100
AcDbPolyline
 90
12
 70
0
 10
90.147479
 20
84.276878
 30
0.0
 10
74.630598
 20
84.276878
 30
0.0
 10
74.630598
 20
72.488770
 30
0.0
 10
75.057410
 20
72.488770
 30
0.0
 10
78.838677
 20
72.488770
 30
0.0
 10
78.838677
 20
79.733435
 30
0.0
 10
83.263498
 20
79.733435
 30
0.0
 10
89.970757
 20
72.488770
 30
0.0
 10
96.207857
 20
72.488770
 30
0.0
 10
89.500598
 20
79.733435
 30
0.0
 10
91.824715
 20
79.733435
 30
0.0
 10
91.769623
 20
79.736983
 30
0.0
  0
LWPOLYLINE
  5
202
100
AcDbEntity
  8
Ebene_1
 62
7
100
AcDbPolyline
 90
3
 70
0
 10
95.604252
 20
83.815821
 30
0.0
 10
95.604252
 20
91.521489
 30
0.0
 10
74.630279
 20
91.521498
 30
0.0
  0
LWPOLYLINE
  5
203
100
AcDbEntity
  8
Ebene_1
 62
7
100
AcDbPolyline
 90
9
 70
1
 10
113.443334
 20
91.521498
 30
0.0
 10
104.633694
 20
82.006017
 30
0.0
 10
113.443334
 20
72.488726
 30
0.0
 10
113.620056
 20
72.488726
 30
0.0
 10
119.680434
 20
72.488726
 30
0.0
 10
110.867468
 20
82.007818
 30
0.0
 10
112.096210
 20
83.354827
 30
0.0
 10
112.119542
 20
83.354827
 30
0.0
 10
119.680417
 20
91.521498
 30
0.0
  0
LWPOLYLINE
  5
204
100
AcDbEntity
  8
Ebene_1
 62
7
100
AcDbPolyline
 90
5
 70
1
 10
98.103166
 20
91.521498
 30
0.0
 10
98.103166
 20
72.488726
 30
0.0
 10
98.529978
 20
72.488726
 30
0.0
 10
102.309586
 20
72.488726
 30
0.0
 10
102.309586
 20
91.521498
 30
0.0
  0
LWPOLYLINE
  5
205
100
AcDbEntity
  8
Ebene_1
 62
7
100
AcDbPolyline
 90
5
 70
1
 10
121.576063
 20
91.521498
 30
0.0
 10
121.576063
 20
72.488726
 30
0.0
 10
122.002875
 20
72.488726
 30
0.0
 10
125.782474
 20
72.488726
 30
0.0
 10
125.782474
 20
91.521498
 30
0.0
  0
LWPOLYLINE
  5
206
100
AcDbEntity
  8
Ebene_1
 62
7
100
AcDbPolyline
 90
12
 70
1
 10
127.678120
 20
91.521498
 30
0.0
 10
131.634450
 20
87.246376
 30
0.0
 10
131.634450
 20
72.488726
 30
0.0
 10
132.061261
 20
72.488726
 30
0.0
 10
135.842532
 20
72.488726
 30
0.0
 10
135.842532
 20
82.702933
 30
0.0
 10
145.297380
 20
72.488726
 30
0.0
 10
149.255378
 20
72.488726
 30
0.0
 10
149.255378
 20
91.521498
 30
0.0
 10
145.047295
 20
91.521498
 30
0.0
 10
145.047295
 20
79.495685
 30
0.0
 10
133.915217
 20
91.521498
 30
0.0
  0
SPLINE
  5
207
100
AcDbEntity
  8
Ebene_1
 62
7
100
AcDbSpline
 70
8
 71
3
 72
8
 73
4
 74
0
 40
0
 40
0
 40
0
 40
0
 40
1
 40
1
 40
1
 40
1
 10
168.947003
 20
86.976245
 30
0.0
 10
169.956391
 20
86.976245
 30
0.0
 10
170.869526
 20
87.382715
 30
0.0
 10
171.602896
 20
88.153984
 30
0.0
  0
SPLINE
  5
208
100
AcDbEntity
  8
Ebene_1
 62
7
100
AcDbSpline
 70
8
 71
3
 72
8
 73
4
 74
0
 40
0
 40
0
 40
0
 40
0
 40
1
 40
1
 40
1
 40
1
 10
171.602896
 20
88.153984
 30
0.0
 10
172.340905
 20
88.930151
 30
0.0
 10
172.726608
 20
89.933705
 30
0.0
 10
172.726608
 20
91.060495
 30
0.0
  0
LWPOLYLINE
  5
209
100
AcDbEntity
  8
Ebene_1
 62
7
100
AcDbPolyline
 90
4
 70
0
 10
151.754552
 20
91.521498
 30
0.0
 10
151.754552
 20
86.976245
 30
0.0
 10
152.181362
 20
86.976245
 30
0.0
 10
168.947003
 20
86.976245
 30
0.0
  0
LWPOLYLINE
  5
20a
100
AcDbEntity
  8
Ebene_1
 62
7
100
AcDbPolyline
 90
3
 70
0
 10
172.726608
 20
91.060495
 30
0.0
 10
172.726608
 20
91.521498
 30
0.0
 10
151.754552
 20
91.521498
 30
0.0
  0
LWPOLYLINE
  5
20b
100
AcDbEntity
  8
Ebene_1
 62
7
100
AcDbPolyline
 90
9
 70
1
 10
54.511837
 20
58.084049
 30
0.0
 10
54.511837
 20
46.295933
 30
0.0
 10
54.938649
 20
46.295933
 30
0.0
 10
75.483894
 20
46.295933
 30
0.0
 10
75.483894
 20
58.084049
 30
0.0
 10
71.277474
 20
58.084049
 30
0.0
 10
71.277474
 20
50.841186
 30
0.0
 10
58.718248
 20
50.841186
 30
0.0
 10
58.718248
 20
58.084049
 30
0.0
  0
SPLINE
  5
20c
100
AcDbEntity
  8
Ebene_1
 62
7
100
AcDbSpline
 70
8
 71
3
 72
8
 73
4
 74
0
 40
0
 40
0
 40
0
 40
0
 40
1
 40
1
 40
1
 40
1
 10
54.511837
 20
64.865901
 30
0.0
 10
54.511837
 20
63.758833
 30
0.0
 10
54.886830
 20
62.763769
 30
0.0
 10
55.602200
 20
61.970196
 30
0.0
  0
LWPOLYLINE
  5
20d
100
AcDbEntity
  8
Ebene_1
 62
7
100
AcDbPolyline
 90
2
 70
0
 10
54.511837
 20
65.326904
 30
0.0
 10
54.511837
 20
64.865901
 30
0.0
  0
SPLINE
  5
20e
100
AcDbEntity
  8
Ebene_1
 62
7
100
AcDbSpline
 70
8
 71
3
 72
8
 73
4
 74
0
 40
0
 40
0
 40
0
 40
0
 40
1
 40
1
 40
1
 40
1
 10
55.605748
 20
61.966647
 30
0.0
 10
56.325350
 20
61.189399
 30
0.0
 10
57.251091
 20
60.783515
 30
0.0
 10
58.291649
 20
60.783515
 30
0.0
  0
LWPOLYLINE
  5
20f
100
AcDbEntity
  8
Ebene_1
 62
7
100
AcDbPolyline
 90
3
 70
0
 10
55.602200
 20
61.970196
 30
0.0
 10
55.603974
 20
61.968422
 30
0.0
 10
55.605748
 20
61.966647
 30
0.0
  0
SPLINE
  5
210
100
AcDbEntity
  8
Ebene_1
 62
7
100
AcDbSpline
 70
8
 71
3
 72
8
 73
4
 74
0
 40
0
 40
0
 40
0
 40
0
 40
1
 40
1
 40
1
 40
1
 10
71.704499
 20
60.783515
 30
0.0
 10
72.713882
 20
60.783515
 30
0.0
 10
73.627017
 20
61.189958
 30
0.0
 10
74.360387
 20
61.961254
 30
0.0
  0
SPLINE
  5
211
100
AcDbEntity
  8
Ebene_1
 62
7
100
AcDbSpline
 70
8
 71
3
 72
8
 73
4
 74
0
 40
0
 40
0
 40
0
 40
0
 40
1
 40
1
 40
1
 40
1
 10
74.360387
 20
61.961254
 30
0.0
 10
75.098397
 20
62.737402
 30
0.0
 10
75.484107
 20
63.739173
 30
0.0
 10
75.484107
 20
64.865963
 30
0.0
  0
LWPOLYLINE
  5
212
100
AcDbEntity
  8
Ebene_1
 62
7
100
AcDbPolyline
 90
2
 70
0
 10
58.291649
 20
60.783515
 30
0.0
 10
71.704499
 20
60.783515
 30
0.0
  0
LWPOLYLINE
  5
213
100
AcDbEntity
  8
Ebene_1
 62
7
100
AcDbPolyline
 90
3
 70
0
 10
75.484107
 20
64.865963
 30
0.0
 10
75.484107
 20
65.326966
 30
0.0
 10
54.511837
 20
65.326904
 30
0.0
  0
LWPOLYLINE
  5
214
100
AcDbEntity
  8
Ebene_1
 62
7
100
AcDbPolyline
 90
12
 70
1
 10
77.381199
 20
65.326904
 30
0.0
 10
81.337529
 20
61.053583
 30
0.0
 10
81.337529
 20
46.295933
 30
0.0
 10
81.764341
 20
46.295933
 30
0.0
 10
85.543940
 20
46.295933
 30
0.0
 10
85.543940
 20
56.510141
 30
0.0
 10
95.000461
 20
46.295933
 30
0.0
 10
98.956790
 20
46.295933
 30
0.0
 10
98.956790
 20
65.326904
 30
0.0
 10
94.750379
 20
65.326904
 30
0.0
 10
94.750379
 20
53.302892
 30
0.0
 10
83.618290
 20
65.326904
 30
0.0
  0
SPLINE
  5
215
100
AcDbEntity
  8
Ebene_1
 62
7
100
AcDbSpline
 70
8
 71
3
 72
8
 73
4
 74
0
 40
0
 40
0
 40
0
 40
0
 40
1
 40
1
 40
1
 40
1
 10
118.650088
 20
46.295933
 30
0.0
 10
119.659462
 20
46.295933
 30
0.0
 10
120.570938
 20
46.702385
 30
0.0
 10
121.304308
 20
47.473672
 30
0.0
  0
SPLINE
  5
216
100
AcDbEntity
  8
Ebene_1
 62
7
100
AcDbSpline
 70
8
 71
3
 72
8
 73
4
 74
0
 40
0
 40
0
 40
0
 40
0
 40
1
 40
1
 40
1
 40
1
 10
121.304308
 20
47.473672
 30
0.0
 10
122.042309
 20
48.249830
 30
0.0
 10
122.429687
 20
49.253393
 30
0.0
 10
122.429687
 20
50.380174
 30
0.0
  0
LWPOLYLINE
  5
217
100
AcDbEntity
  8
Ebene_1
 62
7
100
AcDbPolyline
 90
4
 70
0
 10
101.455962
 20
65.326904
 30
0.0
 10
101.455962
 20
46.295933
 30
0.0
 10
101.882774
 20
46.295933
 30
0.0
 10
118.650088
 20
46.295933
 30
0.0
  0
LWPOLYLINE
  5
218
100
AcDbEntity
  8
Ebene_1
 62
7
100
AcDbPolyline
 90
5
 70
0
 10
122.429687
 20
50.380174
 30
0.0
 10
122.429687
 20
50.841186
 30
0.0
 10
105.664050
 20
50.841186
 30
0.0
 10
105.664050
 20
65.326904
 30
0.0
 10
101.455962
 20
65.326904
 30
0.0
  0
SPLINE
  5
219
100
AcDbEntity
  8
Ebene_1
 62
7
100
AcDbSpline
 70
8
 71
3
 72
8
 73
4
 74
0
 40
0
 40
0
 40
0
 40
0
 40
1
 40
1
 40
1
 40
1
 10
100.128047
 20
100.195076
 30
0.0
 10
99.936029
 20
101.207786
 30
0.0
 10
83.413155
 20
193.454266
 30
0.0
 10
83.413155
 20
193.513596
 30
0.0
  0
SPLINE
  5
21a
100
AcDbEntity
  8
Ebene_1
 62
7
100
AcDbSpline
 70
8
 71
3
 72
8
 73
4
 74
0
 40
0
 40
0
 40
0
 40
0
 40
1
 40
1
 40
1
 40
1
 10
83.413155
 20
193.513596
 30
0.0
 10
83.413155
 20
193.597796
 30
0.0
 10
78.533007
 20
193.474496
 30
0.0
 10
76.080003
 20
193.328166
 30
0.0
  0
SPLINE
  5
21b
100
AcDbEntity
  8
Ebene_1
 62
7
100
AcDbSpline
 70
8
 71
3
 72
8
 73
4
 74
0
 40
0
 40
0
 40
0
 40
0
 40
1
 40
1
 40
1
 40
1
 10
76.080003
 20
193.328166
 30
0.0
 10
68.780003
 20
192.892826
 30
0.0
 10
65.025411
 20
191.614466
 30
0.0
 10
63.210718
 20
188.946436
 30
0.0
  0
SPLINE
  5
21c
100
AcDbEntity
  8
Ebene_1
 62
7
100
AcDbSpline
 70
8
 71
3
 72
8
 73
4
 74
0
 40
0
 40
0
 40
0
 40
0
 40
1
 40
1
 40
1
 40
1
 10
63.210718
 20
188.946436
 30
0.0
 10
62.541649
 20
187.962756
 30
0.0
 10
62.262336
 20
187.261356
 30
0.0
 10
61.970319
 20
185.832046
 30
0.0
  0
SPLINE
  5
21d
100
AcDbEntity
  8
Ebene_1
 62
7
100
AcDbSpline
 70
8
 71
3
 72
8
 73
4
 74
0
 40
0
 40
0
 40
0
 40
0
 40
1
 40
1
 40
1
 40
1
 10
61.970319
 20
185.832046
 30
0.0
 10
61.851688
 20
185.251286
 30
0.0
 10
61.732977
 20
184.754496
 30
0.0
 10
61.706539
 20
184.728056
 30
0.0
  0
SPLINE
  5
21e
100
AcDbEntity
  8
Ebene_1
 62
7
100
AcDbSpline
 70
8
 71
3
 72
8
 73
4
 74
0
 40
0
 40
0
 40
0
 40
0
 40
1
 40
1
 40
1
 40
1
 10
61.706539
 20
184.728056
 30
0.0
 10
61.617679
 20
184.639156
 30
0.0
 10
58.583943
 20
186.080676
 30
0.0
 10
57.063955
 20
186.934026
 30
0.0
  0
SPLINE
  5
21f
100
AcDbEntity
  8
Ebene_1
 62
7
100
AcDbSpline
 70
8
 71
3
 72
8
 73
4
 74
0
 40
0
 40
0
 40
0
 40
0
 40
1
 40
1
 40
1
 40
1
 10
57.063955
 20
186.934026
 30
0.0
 10
52.517627
 20
189.486416
 30
0.0
 10
48.948399
 20
192.441676
 30
0.0
 10
46.520333
 20
195.663966
 30
0.0
  0
SPLINE
  5
220
100
AcDbEntity
  8
Ebene_1
 62
7
100
AcDbSpline
 70
8
 71
3
 72
8
 73
4
 74
0
 40
0
 40
0
 40
0
 40
0
 40
1
 40
1
 40
1
 40
1
 10
46.520333
 20
195.663966
 30
0.0
 10
46.163615
 20
196.137366
 30
0.0
 10
45.871766
 20
196.563446
 30
0.0
 10
45.871766
 20
196.610796
 30
0.0
  0
SPLINE
  5
221
100
AcDbEntity
  8
Ebene_1
 62
7
100
AcDbSpline
 70
8
 71
3
 72
8
 73
4
 74
0
 40
0
 40
0
 40
0
 40
0
 40
1
 40
1
 40
1
 40
1
 10
45.871766
 20
196.610796
 30
0.0
 10
45.871766
 20
196.658196
 30
0.0
 10
46.056463
 20
196.773356
 30
0.0
 10
46.282193
 20
196.866776
 30
0.0
  0
SPLINE
  5
222
100
AcDbEntity
  8
Ebene_1
 62
7
100
AcDbSpline
 70
8
 71
3
 72
8
 73
4
 74
0
 40
0
 40
0
 40
0
 40
0
 40
1
 40
1
 40
1
 40
1
 10
46.282193
 20
196.866776
 30
0.0
 10
46.507930
 20
196.960176
 30
0.0
 10
47.480682
 20
197.379456
 30
0.0
 10
48.443836
 20
197.798476
 30
0.0
  0
SPLINE
  5
223
100
AcDbEntity
  8
Ebene_1
 62
7
100
AcDbSpline
 70
8
 71
3
 72
8
 73
4
 74
0
 40
0
 40
0
 40
0
 40
0
 40
1
 40
1
 40
1
 40
1
 10
48.443836
 20
197.798476
 30
0.0
 10
59.479228
 20
202.599346
 30
0.0
 10
73.823593
 20
205.955066
 30
0.0
 10
86.696656
 20
206.747334
 30
0.0
  0
LWPOLYLINE
  5
224
100
AcDbEntity
  8
Ebene_1
 62
7
100
AcDbPolyline
 90
14
 70
1
 10
124.928858
 20
65.326904
 30
0.0
 10
124.928858
 20
61.053583
 30
0.0
 10
133.311681
 20
51.999106
 30
0.0
 10
133.311681
 20
46.295933
 30
0.0
 10
133.738492
 20
46.295933
 30
0.0
 10
137.518096
 20
46.295933
 30
0.0
 10
137.518096
 20
51.999106
 30
0.0
 10
145.900916
 20
61.053583
 30
0.0
 10
145.900916
 20
65.326904
 30
0.0
 10
141.694502
 20
65.326904
 30
0.0
 10
141.694502
 20
63.246969
 30
0.0
 10
135.415722
 20
56.463316
 30
0.0
 10
129.135276
 20
63.246969
 30
0.0
 10
129.135276
 20
65.326904
 30
0.0
  0
SPLINE
  5
225
100
AcDbEntity
  8
Ebene_1
 62
7
100
AcDbSpline
 70
8
 71
3
 72
8
 73
4
 74
0
 40
0
 40
0
 40
0
 40
0
 40
1
 40
1
 40
1
 40
1
 10
94.014387
 20
199.301506
 30
0.0
 10
97.407060
 20
195.167396
 30
0.0
 10
100.220440
 20
191.826356
 30
0.0
 10
100.266300
 20
191.876976
 30
0.0
  0
SPLINE
  5
226
100
AcDbEntity
  8
Ebene_1
 62
7
100
AcDbSpline
 70
8
 71
3
 72
8
 73
4
 74
0
 40
0
 40
0
 40
0
 40
0
 40
1
 40
1
 40
1
 40
1
 10
100.266300
 20
191.876976
 30
0.0
 10
100.312100
 20
191.927476
 30
0.0
 10
103.065750
 20
195.278846
 30
0.0
 10
106.385330
 20
199.324186
 30
0.0
  0
SPLINE
  5
227
100
AcDbEntity
  8
Ebene_1
 62
7
100
AcDbSpline
 70
8
 71
3
 72
8
 73
4
 74
0
 40
0
 40
0
 40
0
 40
0
 40
1
 40
1
 40
1
 40
1
 10
106.385330
 20
199.324186
 30
0.0
 10
109.704930
 20
203.369516
 30
0.0
 10
112.471670
 20
206.710676
 30
0.0
 10
112.533620
 20
206.748980
 30
0.0
  0
SPLINE
  5
228
100
AcDbEntity
  8
Ebene_1
 62
7
100
AcDbSpline
 70
8
 71
3
 72
8
 73
4
 74
0
 40
0
 40
0
 40
0
 40
0
 40
1
 40
1
 40
1
 40
1
 10
112.533620
 20
206.748980
 30
0.0
 10
112.662900
 20
206.828870
 30
0.0
 10
115.423680
 20
206.650810
 30
0.0
 10
117.835210
 20
206.407047
 30
0.0
  0
SPLINE
  5
229
100
AcDbEntity
  8
Ebene_1
 62
7
100
AcDbSpline
 70
8
 71
3
 72
8
 73
4
 74
0
 40
0
 40
0
 40
0
 40
0
 40
1
 40
1
 40
1
 40
1
 10
117.835210
 20
206.407047
 30
0.0
 10
128.005010
 20
205.379054
 30
0.0
 10
138.219000
 20
203.025766
 30
0.0
 10
147.496190
 20
199.573176
 30
0.0
  0
SPLINE
  5
22a
100
AcDbEntity
  8
Ebene_1
 62
7
100
AcDbSpline
 70
8
 71
3
 72
8
 73
4
 74
0
 40
0
 40
0
 40
0
 40
0
 40
1
 40
1
 40
1
 40
1
 10
147.496190
 20
199.573176
 30
0.0
 10
149.685650
 20
198.758346
 30
0.0
 10
153.207510
 20
197.304016
 30
0.0
 10
154.126030
 20
196.835426
 30
0.0
  0
LWPOLYLINE
  5
22b
100
AcDbEntity
  8
Ebene_1
 62
7
100
AcDbPolyline
 90
3
 70
0
 10
86.696656
 20
206.747334
 30
0.0
 10
87.845873
 20
206.818064
 30
0.0
 10
94.014387
 20
199.301506
 30
0.0
  0
SPLINE
  5
22c
100
AcDbEntity
  8
Ebene_1
 62
7
100
AcDbSpline
 70
8
 71
3
 72
8
 73
4
 74
0
 40
0
 40
0
 40
0
 40
0
 40
1
 40
1
 40
1
 40
1
 10
154.001630
 20
195.855486
 30
0.0
 10
151.850530
 20
192.897996
 30
0.0
 10
148.478270
 20
189.991616
 30
0.0
 10
144.302070
 20
187.495916
 30
0.0
  0
SPLINE
  5
22d
100
AcDbEntity
  8
Ebene_1
 62
7
100
AcDbSpline
 70
8
 71
3
 72
8
 73
4
 74
0
 40
0
 40
0
 40
0
 40
0
 40
1
 40
1
 40
1
 40
1
 10
144.302070
 20
187.495916
 30
0.0
 10
143.153530
 20
186.809546
 30
0.0
 10
139.351480
 20
184.901246
 30
0.0
 10
138.833080
 20
184.750936
 30
0.0
  0
SPLINE
  5
22e
100
AcDbEntity
  8
Ebene_1
 62
7
100
AcDbSpline
 70
8
 71
3
 72
8
 73
4
 74
0
 40
0
 40
0
 40
0
 40
0
 40
1
 40
1
 40
1
 40
1
 10
138.833080
 20
184.750936
 30
0.0
 10
138.619150
 20
184.688836
 30
0.0
 10
138.590470
 20
184.735436
 30
0.0
 10
138.519300
 20
185.261236
 30
0.0
  0
SPLINE
  5
22f
100
AcDbEntity
  8
Ebene_1
 62
7
100
AcDbSpline
 70
8
 71
3
 72
8
 73
4
 74
0
 40
0
 40
0
 40
0
 40
0
 40
1
 40
1
 40
1
 40
1
 10
138.519300
 20
185.261236
 30
0.0
 10
138.476200
 20
185.579446
 30
0.0
 10
138.320620
 20
186.257126
 30
0.0
 10
138.173530
 20
186.767186
 30
0.0
  0
SPLINE
  5
230
100
AcDbEntity
  8
Ebene_1
 62
7
100
AcDbSpline
 70
8
 71
3
 72
8
 73
4
 74
0
 40
0
 40
0
 40
0
 40
0
 40
1
 40
1
 40
1
 40
1
 10
138.173530
 20
186.767186
 30
0.0
 10
137.015260
 20
190.783826
 30
0.0
 10
133.592980
 20
192.567396
 30
0.0
 10
125.770350
 20
193.231236
 30
0.0
  0
SPLINE
  5
231
100
AcDbEntity
  8
Ebene_1
 62
7
100
AcDbSpline
 70
8
 71
3
 72
8
 73
4
 74
0
 40
0
 40
0
 40
0
 40
0
 40
1
 40
1
 40
1
 40
1
 10
125.770350
 20
193.231236
 30
0.0
 10
124.067050
 20
193.375776
 30
0.0
 10
116.983150
 20
193.561276
 30
0.0
 10
116.894150
 20
193.463666
 30
0.0
  0
SPLINE
  5
232
100
AcDbEntity
  8
Ebene_1
 62
7
100
AcDbSpline
 70
8
 71
3
 72
8
 73
4
 74
0
 40
0
 40
0
 40
0
 40
0
 40
1
 40
1
 40
1
 40
1
 10
116.894150
 20
193.463666
 30
0.0
 10
116.848650
 20
193.413766
 30
0.0
 10
103.173460
 20
116.700196
 30
0.0
 10
100.287390
 20
100.304516
 30
0.0
  0
LWPOLYLINE
  5
233
100
AcDbEntity
  8
Ebene_1
 62
7
100
AcDbPolyline
 90
3
 70
0
 10
154.126030
 20
196.835426
 30
0.0
 10
154.555140
 20
196.616506
 30
0.0
 10
154.001630
 20
195.855486
 30
0.0
  0
SPLINE
  5
234
100
AcDbEntity
  8
Ebene_1
 62
7
100
AcDbSpline
 70
8
 71
3
 72
8
 73
4
 74
0
 40
0
 40
0
 40
0
 40
0
 40
1
 40
1
 40
1
 40
1
 10
154.555730
 20
200.749236
 30
0.0
 10
141.483690
 20
206.262296
 30
0.0
 10
126.632310
 20
209.770449
 30
0.0
 10
111.815460
 20
210.845209
 30
0.0
  0
SPLINE
  5
235
100
AcDbEntity
  8
Ebene_1
 62
7
100
AcDbSpline
 70
8
 71
3
 72
8
 73
4
 74
0
 40
0
 40
0
 40
0
 40
0
 40
1
 40
1
 40
1
 40
1
 10
111.815460
 20
210.845209
 30
0.0
 10
107.055130
 20
211.190504
 30
0.0
 10
97.165557
 20
211.303581
 30
0.0
 10
92.376737
 20
211.067467
 30
0.0
  0
SPLINE
  5
236
100
AcDbEntity
  8
Ebene_1
 62
7
100
AcDbSpline
 70
8
 71
3
 72
8
 73
4
 74
0
 40
0
 40
0
 40
0
 40
0
 40
1
 40
1
 40
1
 40
1
 10
92.376737
 20
211.067467
 30
0.0
 10
75.781296
 20
210.249223
 30
0.0
 10
60.513177
 20
206.867173
 30
0.0
 10
45.839624
 20
200.759016
 30
0.0
  0
SPLINE
  5
237
100
AcDbEntity
  8
Ebene_1
 62
7
100
AcDbSpline
 70
8
 71
3
 72
8
 73
4
 74
0
 40
0
 40
0
 40
0
 40
0
 40
1
 40
1
 40
1
 40
1
 10
45.839624
 20
200.759016
 30
0.0
 10
44.828671
 20
200.338186
 30
0.0
 10
43.938602
 20
200.018036
 30
0.0
 10
43.861675
 20
200.047546
 30
0.0
  0
SPLINE
  5
238
100
AcDbEntity
  8
Ebene_1
 62
7
100
AcDbSpline
 70
8
 71
3
 72
8
 73
4
 74
0
 40
0
 40
0
 40
0
 40
0
 40
1
 40
1
 40
1
 40
1
 10
43.861675
 20
200.047546
 30
0.0
 10
43.784765
 20
200.077146
 30
0.0
 10
43.151816
 20
201.251256
 30
0.0
 10
42.455182
 20
202.656866
 30
0.0
  0
SPLINE
  5
239
100
AcDbEntity
  8
Ebene_1
 62
7
100
AcDbSpline
 70
8
 71
3
 72
8
 73
4
 74
0
 40
0
 40
0
 40
0
 40
0
 40
1
 40
1
 40
1
 40
1
 10
42.455182
 20
202.656866
 30
0.0
 10
41.151803
 20
205.286691
 30
0.0
 10
40.544401
 20
206.652822
 30
0.0
 10
40.637251
 20
206.745667
 30
0.0
  0
SPLINE
  5
23a
100
AcDbEntity
  8
Ebene_1
 62
7
100
AcDbSpline
 70
8
 71
3
 72
8
 73
4
 74
0
 40
0
 40
0
 40
0
 40
0
 40
1
 40
1
 40
1
 40
1
 10
40.637251
 20
206.745667
 30
0.0
 10
40.732261
 20
206.840627
 30
0.0
 10
44.559027
 20
208.286346
 30
0.0
 10
46.802085
 20
209.074657
 30
0.0
  0
SPLINE
  5
23b
100
AcDbEntity
  8
Ebene_1
 62
7
100
AcDbSpline
 70
8
 71
3
 72
8
 73
4
 74
0
 40
0
 40
0
 40
0
 40
0
 40
1
 40
1
 40
1
 40
1
 10
46.802085
 20
209.074657
 30
0.0
 10
67.829971
 20
216.464814
 30
0.0
 10
90.287185
 20
219.527301
 30
0.0
 10
111.541840
 20
217.903203
 30
0.0
  0
SPLINE
  5
23c
100
AcDbEntity
  8
Ebene_1
 62
7
100
AcDbSpline
 70
8
 71
3
 72
8
 73
4
 74
0
 40
0
 40
0
 40
0
 40
0
 40
1
 40
1
 40
1
 40
1
 10
111.541840
 20
217.903203
 30
0.0
 10
127.439030
 20
216.688472
 30
0.0
 10
142.421380
 20
213.335132
 30
0.0
 10
157.672400
 20
207.578280
 30
0.0
  0
SPLINE
  5
23d
100
AcDbEntity
  8
Ebene_1
 62
7
100
AcDbSpline
 70
8
 71
3
 72
8
 73
4
 74
0
 40
0
 40
0
 40
0
 40
0
 40
1
 40
1
 40
1
 40
1
 10
157.672400
 20
207.578280
 30
0.0
 10
158.807880
 20
207.149667
 30
0.0
 10
159.756430
 20
206.779471
 30
0.0
 10
159.780270
 20
206.755621
 30
0.0
  0
SPLINE
  5
23e
100
AcDbEntity
  8
Ebene_1
 62
7
100
AcDbSpline
 70
8
 71
3
 72
8
 73
4
 74
0
 40
0
 40
0
 40
0
 40
0
 40
1
 40
1
 40
1
 40
1
 10
159.780270
 20
206.755621
 30
0.0
 10
159.904940
 20
206.630958
 30
0.0
 10
156.855460
 20
200.265016
 30
0.0
 10
156.546480
 20
200.004896
 30
0.0
  0
SPLINE
  5
23f
100
AcDbEntity
  8
Ebene_1
 62
7
100
AcDbSpline
 70
8
 71
3
 72
8
 73
4
 74
0
 40
0
 40
0
 40
0
 40
0
 40
1
 40
1
 40
1
 40
1
 10
156.546480
 20
200.004896
 30
0.0
 10
156.505080
 20
199.969996
 30
0.0
 10
155.609170
 20
200.304946
 30
0.0
 10
154.555730
 20
200.749236
 30
0.0
  0
LWPOLYLINE
  5
240
100
AcDbEntity
  8
Ebene_1
 62
7
100
AcDbPolyline
 90
3
 70
0
 10
100.287390
 20
100.304516
 30
0.0
 10
100.200690
 20
99.811986
 30
0.0
 10
100.128047
 20
100.195076
 30
0.0
  0
LWPOLYLINE
  5
241
100
AcDbEntity
  8
Ebene_1
 62
7
100
AcDbPolyline
 90
1
 70
1
 10
154.555730
 20
200.749236
 30
0.0
  0
LWPOLYLINE
  5
242
100
AcDbEntity
  8
Ebene_1
 62
7
100
AcDbPolyline
 90
9
 70
1
 10
147.438082
 20
240.073733
 30
0.0
 10
147.438082
 20
227.781729
 30
0.0
 10
147.881662
 20
227.781729
 30
0.0
 10
152.126851
 20
227.781729
 30
0.0
 10
152.126851
 20
235.384959
 30
0.0
 10
166.446156
 20
235.384959
 30
0.0
 10
166.446156
 20
227.781729
 30
0.0
 10
171.134933
 20
227.781729
 30
0.0
 10
171.134933
 20
240.073733
 30
0.0
  0
SPLINE
  5
243
100
AcDbEntity
  8
Ebene_1
 62
7
100
AcDbSpline
 70
8
 71
3
 72
8
 73
4
 74
0
 40
0
 40
0
 40
0
 40
0
 40
1
 40
1
 40
1
 40
1
 10
147.438082
 20
247.233383
 30
0.0
 10
147.438082
 20
246.080743
 30
0.0
 10
147.856875
 20
245.048158
 30
0.0
 10
148.661395
 20
244.221894
 30
0.0
  0
LWPOLYLINE
  5
244
100
AcDbEntity
  8
Ebene_1
 62
7
100
AcDbPolyline
 90
2
 70
0
 10
147.438082
 20
247.676963
 30
0.0
 10
147.438082
 20
247.233383
 30
0.0
  0
SPLINE
  5
245
100
AcDbEntity
  8
Ebene_1
 62
7
100
AcDbSpline
 70
8
 71
3
 72
8
 73
4
 74
0
 40
0
 40
0
 40
0
 40
0
 40
1
 40
1
 40
1
 40
1
 10
148.666718
 20
244.218346
 30
0.0
 10
149.475629
 20
243.409439
 30
0.0
 10
150.512878
 20
242.988106
 30
0.0
 10
151.683404
 20
242.988106
 30
0.0
  0
LWPOLYLINE
  5
246
100
AcDbEntity
  8
Ebene_1
 62
7
100
AcDbPolyline
 90
3
 70
0
 10
148.661395
 20
244.221894
 30
0.0
 10
148.664944
 20
244.220120
 30
0.0
 10
148.666718
 20
244.218346
 30
0.0
  0
SPLINE
  5
247
100
AcDbEntity
  8
Ebene_1
 62
7
100
AcDbSpline
 70
8
 71
3
 72
8
 73
4
 74
0
 40
0
 40
0
 40
0
 40
0
 40
1
 40
1
 40
1
 40
1
 10
166.889869
 20
242.988106
 30
0.0
 10
168.024696
 20
242.988106
 30
0.0
 10
169.047031
 20
243.409984
 30
0.0
 10
169.871903
 20
244.213147
 30
0.0
  0
SPLINE
  5
248
100
AcDbEntity
  8
Ebene_1
 62
7
100
AcDbSpline
 70
8
 71
3
 72
8
 73
4
 74
0
 40
0
 40
0
 40
0
 40
0
 40
1
 40
1
 40
1
 40
1
 10
169.871903
 20
244.213147
 30
0.0
 10
170.701592
 20
245.021005
 30
0.0
 10
171.135066
 20
246.060033
 30
0.0
 10
171.135066
 20
247.233300
 30
0.0
  0
LWPOLYLINE
  5
249
100
AcDbEntity
  8
Ebene_1
 62
7
100
AcDbPolyline
 90
2
 70
0
 10
151.683404
 20
242.988106
 30
0.0
 10
166.889869
 20
242.988106
 30
0.0
  0
LWPOLYLINE
  5
24a
100
AcDbEntity
  8
Ebene_1
 62
7
100
AcDbPolyline
 90
3
 70
0
 10
171.135066
 20
247.233300
 30
0.0
 10
171.135066
 20
247.676879
 30
0.0
 10
147.438082
 20
247.676963
 30
0.0
  0
SPLINE
  5
24b
100
AcDbEntity
  8
Ebene_1
 62
7
100
AcDbSpline
 70
8
 71
3
 72
8
 73
4
 74
0
 40
0
 40
0
 40
0
 40
0
 40
1
 40
1
 40
1
 40
1
 10
29.276124
 20
247.233383
 30
0.0
 10
29.276124
 20
246.080743
 30
0.0
 10
29.696647
 20
245.048158
 30
0.0
 10
30.501167
 20
244.221894
 30
0.0
  0
LWPOLYLINE
  5
24c
100
AcDbEntity
  8
Ebene_1
 62
7
100
AcDbPolyline
 90
2
 70
0
 10
29.276124
 20
247.676963
 30
0.0
 10
29.276124
 20
247.233383
 30
0.0
  0
SPLINE
  5
24d
100
AcDbEntity
  8
Ebene_1
 62
7
100
AcDbSpline
 70
8
 71
3
 72
8
 73
4
 74
0
 40
0
 40
0
 40
0
 40
0
 40
1
 40
1
 40
1
 40
1
 10
30.504715
 20
244.218346
 30
0.0
 10
31.313627
 20
243.409438
 30
0.0
 10
32.350876
 20
242.988106
 30
0.0
 10
33.521402
 20
242.988106
 30
0.0
  0
LWPOLYLINE
  5
24e
100
AcDbEntity
  8
Ebene_1
 62
7
100
AcDbPolyline
 90
3
 70
0
 10
30.501167
 20
244.221894
 30
0.0
 10
30.502941
 20
244.220120
 30
0.0
 10
30.504715
 20
244.218346
 30
0.0
  0
SPLINE
  5
24f
100
AcDbEntity
  8
Ebene_1
 62
7
100
AcDbSpline
 70
8
 71
3
 72
8
 73
4
 74
0
 40
0
 40
0
 40
0
 40
0
 40
1
 40
1
 40
1
 40
1
 10
48.727866
 20
242.988189
 30
0.0
 10
49.862693
 20
242.988189
 30
0.0
 10
50.885029
 20
243.410068
 30
0.0
 10
51.709900
 20
244.213230
 30
0.0
  0
SPLINE
  5
250
100
AcDbEntity
  8
Ebene_1
 62
7
100
AcDbSpline
 70
8
 71
3
 72
8
 73
4
 74
0
 40
0
 40
0
 40
0
 40
0
 40
1
 40
1
 40
1
 40
1
 10
51.709900
 20
244.213230
 30
0.0
 10
52.539589
 20
245.021087
 30
0.0
 10
52.973055
 20
246.060115
 30
0.0
 10
52.973055
 20
247.233383
 30
0.0
  0
LWPOLYLINE
  5
251
100
AcDbEntity
  8
Ebene_1
 62
7
100
AcDbPolyline
 90
7
 70
0
 10
33.521402
 20
242.988106
 30
0.0
 10
38.780250
 20
242.988106
 30
0.0
 10
38.780250
 20
227.781729
 30
0.0
 10
39.223829
 20
227.781729
 30
0.0
 10
43.469018
 20
227.781729
 30
0.0
 10
43.469018
 20
242.988189
 30
0.0
 10
48.727866
 20
242.988189
 30
0.0
  0
LWPOLYLINE
  5
252
100
AcDbEntity
  8
Ebene_1
 62
7
100
AcDbPolyline
 90
3
 70
0
 10
52.973055
 20
247.233383
 30
0.0
 10
52.973055
 20
247.676963
 30
0.0
 10
29.276124
 20
247.676963
 30
0.0
  0
SPLINE
  5
253
100
AcDbEntity
  8
Ebene_1
 62
7
100
AcDbSpline
 70
8
 71
3
 72
8
 73
4
 74
0
 40
0
 40
0
 40
0
 40
0
 40
1
 40
1
 40
1
 40
1
 10
58.815751
 20
232.026923
 30
0.0
 10
58.815751
 20
230.874283
 30
0.0
 10
59.236273
 20
229.841698
 30
0.0
 10
60.040794
 20
229.015435
 30
0.0
  0
LWPOLYLINE
  5
254
100
AcDbEntity
  8
Ebene_1
 62
7
100
AcDbPolyline
 90
2
 70
0
 10
58.815751
 20
232.470503
 30
0.0
 10
58.815751
 20
232.026923
 30
0.0
  0
SPLINE
  5
255
100
AcDbEntity
  8
Ebene_1
 62
7
100
AcDbSpline
 70
8
 71
3
 72
8
 73
4
 74
0
 40
0
 40
0
 40
0
 40
0
 40
1
 40
1
 40
1
 40
1
 10
60.044342
 20
229.010200
 30
0.0
 10
60.853245
 20
228.201292
 30
0.0
 10
61.890493
 20
227.781693
 30
0.0
 10
63.061029
 20
227.781693
 30
0.0
  0
LWPOLYLINE
  5
256
100
AcDbEntity
  8
Ebene_1
 62
7
100
AcDbPolyline
 90
3
 70
0
 10
60.040794
 20
229.015435
 30
0.0
 10
60.042568
 20
229.013660
 30
0.0
 10
60.044342
 20
229.010200
 30
0.0
  0
SPLINE
  5
257
100
AcDbEntity
  8
Ebene_1
 62
7
100
AcDbSpline
 70
8
 71
3
 72
8
 73
4
 74
0
 40
0
 40
0
 40
0
 40
0
 40
1
 40
1
 40
1
 40
1
 10
78.267484
 20
227.781693
 30
0.0
 10
79.402311
 20
227.781693
 30
0.0
 10
80.426385
 20
228.203572
 30
0.0
 10
81.251248
 20
229.006734
 30
0.0
  0
SPLINE
  5
258
100
AcDbEntity
  8
Ebene_1
 62
7
100
AcDbSpline
 70
8
 71
3
 72
8
 73
4
 74
0
 40
0
 40
0
 40
0
 40
0
 40
1
 40
1
 40
1
 40
1
 10
81.251248
 20
229.006734
 30
0.0
 10
82.080946
 20
229.814591
 30
0.0
 10
82.512682
 20
230.853619
 30
0.0
 10
82.512682
 20
232.026887
 30
0.0
  0
LWPOLYLINE
  5
259
100
AcDbEntity
  8
Ebene_1
 62
7
100
AcDbPolyline
 90
2
 70
0
 10
63.061029
 20
227.781693
 30
0.0
 10
78.267484
 20
227.781693
 30
0.0
  0
LWPOLYLINE
  5
25a
100
AcDbEntity
  8
Ebene_1
 62
7
100
AcDbPolyline
 90
3
 70
0
 10
82.512682
 20
232.026887
 30
0.0
 10
82.512682
 20
232.470467
 30
0.0
 10
58.815751
 20
232.470503
 30
0.0
  0
SPLINE
  5
25b
100
AcDbEntity
  8
Ebene_1
 62
7
100
AcDbSpline
 70
8
 71
3
 72
8
 73
4
 74
0
 40
0
 40
0
 40
0
 40
0
 40
1
 40
1
 40
1
 40
1
 10
58.815751
 20
239.630154
 30
0.0
 10
58.815751
 20
238.477512
 30
0.0
 10
59.236273
 20
237.444928
 30
0.0
 10
60.040794
 20
236.618665
 30
0.0
  0
LWPOLYLINE
  5
25c
100
AcDbEntity
  8
Ebene_1
 62
7
100
AcDbPolyline
 90
2
 70
0
 10
58.815751
 20
240.073733
 30
0.0
 10
58.815751
 20
239.630154
 30
0.0
  0
SPLINE
  5
25d
100
AcDbEntity
  8
Ebene_1
 62
7
100
AcDbSpline
 70
8
 71
3
 72
8
 73
4
 74
0
 40
0
 40
0
 40
0
 40
0
 40
1
 40
1
 40
1
 40
1
 10
60.044342
 20
236.613431
 30
0.0
 10
60.853245
 20
235.804524
 30
0.0
 10
61.890493
 20
235.384923
 30
0.0
 10
63.061029
 20
235.384923
 30
0.0
  0
LWPOLYLINE
  5
25e
100
AcDbEntity
  8
Ebene_1
 62
7
100
AcDbPolyline
 90
3
 70
0
 10
60.040794
 20
236.618665
 30
0.0
 10
60.042568
 20
236.616891
 30
0.0
 10
60.044342
 20
236.613431
 30
0.0
  0
SPLINE
  5
25f
100
AcDbEntity
  8
Ebene_1
 62
7
100
AcDbSpline
 70
8
 71
3
 72
8
 73
4
 74
0
 40
0
 40
0
 40
0
 40
0
 40
1
 40
1
 40
1
 40
1
 10
78.267484
 20
235.384923
 30
0.0
 10
79.402311
 20
235.384923
 30
0.0
 10
80.426385
 20
235.806802
 30
0.0
 10
81.251248
 20
236.609965
 30
0.0
  0
SPLINE
  5
260
100
AcDbEntity
  8
Ebene_1
 62
7
100
AcDbSpline
 70
8
 71
3
 72
8
 73
4
 74
0
 40
0
 40
0
 40
0
 40
0
 40
1
 40
1
 40
1
 40
1
 10
81.251248
 20
236.609965
 30
0.0
 10
82.080946
 20
237.417822
 30
0.0
 10
82.512682
 20
238.456850
 30
0.0
 10
82.512682
 20
239.630118
 30
0.0
  0
LWPOLYLINE
  5
261
100
AcDbEntity
  8
Ebene_1
 62
7
100
AcDbPolyline
 90
2
 70
0
 10
63.061029
 20
235.384923
 30
0.0
 10
78.267484
 20
235.384923
 30
0.0
  0
LWPOLYLINE
  5
262
100
AcDbEntity
  8
Ebene_1
 62
7
100
AcDbPolyline
 90
3
 70
0
 10
82.512682
 20
239.630118
 30
0.0
 10
82.512682
 20
240.073698
 30
0.0
 10
58.815751
 20
240.073733
 30
0.0
  0
SPLINE
  5
263
100
AcDbEntity
  8
Ebene_1
 62
7
100
AcDbSpline
 70
8
 71
3
 72
8
 73
4
 74
0
 40
0
 40
0
 40
0
 40
0
 40
1
 40
1
 40
1
 40
1
 10
58.815751
 20
247.233383
 30
0.0
 10
58.815751
 20
246.080743
 30
0.0
 10
59.236273
 20
245.048158
 30
0.0
 10
60.040794
 20
244.221894
 30
0.0
  0
LWPOLYLINE
  5
264
100
AcDbEntity
  8
Ebene_1
 62
7
100
AcDbPolyline
 90
2
 70
0
 10
58.815751
 20
247.676963
 30
0.0
 10
58.815751
 20
247.233383
 30
0.0
  0
SPLINE
  5
265
100
AcDbEntity
  8
Ebene_1
 62
7
100
AcDbSpline
 70
8
 71
3
 72
8
 73
4
 74
0
 40
0
 40
0
 40
0
 40
0
 40
1
 40
1
 40
1
 40
1
 10
60.044342
 20
244.218346
 30
0.0
 10
60.853245
 20
243.409438
 30
0.0
 10
61.890493
 20
242.988106
 30
0.0
 10
63.061029
 20
242.988106
 30
0.0
  0
LWPOLYLINE
  5
266
100
AcDbEntity
  8
Ebene_1
 62
7
100
AcDbPolyline
 90
3
 70
0
 10
60.040794
 20
244.221894
 30
0.0
 10
60.042568
 20
244.220120
 30
0.0
 10
60.044342
 20
244.218346
 30
0.0
  0
SPLINE
  5
267
100
AcDbEntity
  8
Ebene_1
 62
7
100
AcDbSpline
 70
8
 71
3
 72
8
 73
4
 74
0
 40
0
 40
0
 40
0
 40
0
 40
1
 40
1
 40
1
 40
1
 10
78.267484
 20
242.988106
 30
0.0
 10
79.402311
 20
242.988106
 30
0.0
 10
80.426385
 20
243.409984
 30
0.0
 10
81.251248
 20
244.213147
 30
0.0
  0
SPLINE
  5
268
100
AcDbEntity
  8
Ebene_1
 62
7
100
AcDbSpline
 70
8
 71
3
 72
8
 73
4
 74
0
 40
0
 40
0
 40
0
 40
0
 40
1
 40
1
 40
1
 40
1
 10
81.251248
 20
244.213147
 30
0.0
 10
82.080946
 20
245.021004
 30
0.0
 10
82.512682
 20
246.060032
 30
0.0
 10
82.512682
 20
247.233300
 30
0.0
  0
LWPOLYLINE
  5
269
100
AcDbEntity
  8
Ebene_1
 62
7
100
AcDbPolyline
 90
2
 70
0
 10
63.061029
 20
242.988106
 30
0.0
 10
78.267484
 20
242.988106
 30
0.0
  0
LWPOLYLINE
  5
26a
100
AcDbEntity
  8
Ebene_1
 62
7
100
AcDbPolyline
 90
3
 70
0
 10
82.512682
 20
247.233300
 30
0.0
 10
82.512682
 20
247.676879
 30
0.0
 10
58.815751
 20
247.676963
 30
0.0
  0
SPLINE
  5
26b
100
AcDbEntity
  8
Ebene_1
 62
7
100
AcDbSpline
 70
8
 71
3
 72
8
 73
4
 74
0
 40
0
 40
0
 40
0
 40
0
 40
1
 40
1
 40
1
 40
1
 10
92.602297
 20
232.470503
 30
0.0
 10
91.446870
 20
232.470503
 30
0.0
 10
90.410934
 20
232.037864
 30
0.0
 10
89.585610
 20
231.212540
 30
0.0
  0
SPLINE
  5
26c
100
AcDbEntity
  8
Ebene_1
 62
7
100
AcDbSpline
 70
8
 71
3
 72
8
 73
4
 74
0
 40
0
 40
0
 40
0
 40
0
 40
1
 40
1
 40
1
 40
1
 10
89.585610
 20
231.212540
 30
0.0
 10
88.778118
 20
230.405044
 30
0.0
 10
88.357108
 20
229.377949
 30
0.0
 10
88.357108
 20
228.225309
 30
0.0
  0
LWPOLYLINE
  5
26d
100
AcDbEntity
  8
Ebene_1
 62
7
100
AcDbPolyline
 90
5
 70
0
 10
88.357108
 20
247.676963
 30
0.0
 10
88.357108
 20
235.384959
 30
0.0
 10
107.365181
 20
235.384959
 30
0.0
 10
107.365181
 20
232.470503
 30
0.0
 10
92.602297
 20
232.470503
 30
0.0
  0
SPLINE
  5
26e
100
AcDbEntity
  8
Ebene_1
 62
7
100
AcDbSpline
 70
8
 71
3
 72
8
 73
4
 74
0
 40
0
 40
0
 40
0
 40
0
 40
1
 40
1
 40
1
 40
1
 10
107.808761
 20
242.988189
 30
0.0
 10
108.943588
 20
242.988189
 30
0.0
 10
109.965924
 20
243.410068
 30
0.0
 10
110.790795
 20
244.213230
 30
0.0
  0
SPLINE
  5
26f
100
AcDbEntity
  8
Ebene_1
 62
7
100
AcDbSpline
 70
8
 71
3
 72
8
 73
4
 74
0
 40
0
 40
0
 40
0
 40
0
 40
1
 40
1
 40
1
 40
1
 10
110.790795
 20
244.213230
 30
0.0
 10
111.620484
 20
245.021088
 30
0.0
 10
112.053950
 20
246.060116
 30
0.0
 10
112.053950
 20
247.233383
 30
0.0
  0
LWPOLYLINE
  5
270
100
AcDbEntity
  8
Ebene_1
 62
7
100
AcDbPolyline
 90
8
 70
0
 10
88.357108
 20
228.225309
 30
0.0
 10
88.357108
 20
227.781729
 30
0.0
 10
88.800687
 20
227.781729
 30
0.0
 10
112.053950
 20
227.781729
 30
0.0
 10
112.053950
 20
240.073733
 30
0.0
 10
93.045876
 20
240.073733
 30
0.0
 10
93.045876
 20
242.988189
 30
0.0
 10
107.808761
 20
242.988189
 30
0.0
  0
LWPOLYLINE
  5
271
100
AcDbEntity
  8
Ebene_1
 62
7
100
AcDbPolyline
 90
3
 70
0
 10
112.053950
 20
247.233383
 30
0.0
 10
112.053950
 20
247.676963
 30
0.0
 10
88.357108
 20
247.676963
 30
0.0
  0
SPLINE
  5
272
100
AcDbEntity
  8
Ebene_1
 62
7
100
AcDbSpline
 70
8
 71
3
 72
8
 73
4
 74
0
 40
0
 40
0
 40
0
 40
0
 40
1
 40
1
 40
1
 40
1
 10
137.348379
 20
227.781729
 30
0.0
 10
138.483206
 20
227.781729
 30
0.0
 10
139.507280
 20
228.203608
 30
0.0
 10
140.332143
 20
229.006771
 30
0.0
  0
SPLINE
  5
273
100
AcDbEntity
  8
Ebene_1
 62
7
100
AcDbSpline
 70
8
 71
3
 72
8
 73
4
 74
0
 40
0
 40
0
 40
0
 40
0
 40
1
 40
1
 40
1
 40
1
 10
140.332143
 20
229.006771
 30
0.0
 10
141.161832
 20
229.814628
 30
0.0
 10
141.593577
 20
230.853657
 30
0.0
 10
141.593577
 20
232.026923
 30
0.0
  0
LWPOLYLINE
  5
274
100
AcDbEntity
  8
Ebene_1
 62
7
100
AcDbPolyline
 90
4
 70
0
 10
117.896726
 20
247.676963
 30
0.0
 10
117.896726
 20
227.781729
 30
0.0
 10
118.340305
 20
227.781729
 30
0.0
 10
137.348379
 20
227.781729
 30
0.0
  0
SPLINE
  5
275
100
AcDbEntity
  8
Ebene_1
 62
7
100
AcDbSpline
 70
8
 71
3
 72
8
 73
4
 74
0
 40
0
 40
0
 40
0
 40
0
 40
1
 40
1
 40
1
 40
1
 10
40.206000
 20
274.120576
 30
0.0
 10
26.979189
 20
274.120576
 30
0.0
 10
16.206000
 20
263.347387
 30
0.0
 10
16.206000
 20
250.120576
 30
0.0
  0
LWPOLYLINE
  5
276
100
AcDbEntity
  8
Ebene_1
 62
7
100
AcDbPolyline
 90
5
 70
0
 10
141.593577
 20
232.026923
 30
0.0
 10
141.593577
 20
232.470503
 30
0.0
 10
122.585503
 20
232.470503
 30
0.0
 10
122.585503
 20
247.676963
 30
0.0
 10
117.896726
 20
247.676963
 30
0.0
  0
SPLINE
  5
277
100
AcDbEntity
  8
Ebene_1
 62
7
100
AcDbSpline
 70
8
 71
3
 72
8
 73
4
 74
0
 40
0
 40
0
 40
0
 40
0
 40
1
 40
1
 40
1
 40
1
 10
16.206000
 20
50.120576
 30
0.0
 10
16.206000
 20
36.893766
 30
0.0
 10
26.979189
 20
26.120576
 30
0.0
 10
40.206000
 20
26.120576
 30
0.0
  0
LWPOLYLINE
  5
278
100
AcDbEntity
  8
Ebene_1
 62
7
100
AcDbPolyline
 90
2
 70
0
 10
16.206000
 20
250.120576
 30
0.0
 10
16.206000
 20
50.120576
 30
0.0
  0
SPLINE
  5
279
100
AcDbEntity
  8
Ebene_1
 62
7
100
AcDbSpline
 70
8
 71
3
 72
8
 73
4
 74
0
 40
0
 40
0
 40
0
 40
0
 40
1
 40
1
 40
1
 40
1
 10
160.206000
 20
26.120576
 30
0.0
 10
173.432810
 20
26.120576
 30
0.0
 10
184.206000
 20
36.893766
 30
0.0
 10
184.206000
 20
50.120576
 30
0.0
  0
LWPOLYLINE
  5
27a
100
AcDbEntity
  8
Ebene_1
 62
7
100
AcDbPolyline
 90
2
 70
0
 10
40.206000
 20
26.120576
 30
0.0
 10
160.206000
 20
26.120576
 30
0.0
  0
SPLINE
  5
27b
100
AcDbEntity
  8
Ebene_1
 62
7
100
AcDbSpline
 70
8
 71
3
 72
8
 73
4
 74
0
 40
0
 40
0
 40
0
 40
0
 40
1
 40
1
 40
1
 40
1
 10
184.206000
 20
250.120576
 30
0.0
 10
184.206000
 20
263.347387
 30
0.0
 10
173.432810
 20
274.120576
 30
0.0
 10
160.206000
 20
274.120576
 30
0.0
  0
LWPOLYLINE
  5
27c
100
AcDbEntity
  8
Ebene_1
 62
7
100
AcDbPolyline
 90
2
 70
0
 10
184.206000
 20
50.120576
 30
0.0
 10
184.206000
 20
250.120576
 30
0.0
  0
LWPOLYLINE
  5
27d
100
AcDbEntity
  8
Ebene_1
 62
7
100
AcDbPolyline
 90
2
 70
0
 10
160.206000
 20
274.120576
 30
0.0
 10
40.206000
 20
274.120576
 30
0.0
  0
SPLINE
  5
27e
100
AcDbEntity
  8
Ebene_1
 62
7
100
AcDbSpline
 70
8
 71
3
 72
8
 73
4
 74
0
 40
0
 40
0
 40
0
 40
0
 40
1
 40
1
 40
1
 40
1
 10
160.206000
 20
266.120576
 30
0.0
 10
169.139190
 20
266.120576
 30
0.0
 10
176.206000
 20
259.053765
 30
0.0
 10
176.206000
 20
250.120576
 30
0.0
  0
LWPOLYLINE
  5
27f
100
AcDbEntity
  8
Ebene_1
 62
7
100
AcDbPolyline
 90
2
 70
0
 10
40.206000
 20
266.120576
 30
0.0
 10
160.206000
 20
266.120576
 30
0.0
  0
SPLINE
  5
280
100
AcDbEntity
  8
Ebene_1
 62
7
100
AcDbSpline
 70
8
 71
3
 72
8
 73
4
 74
0
 40
0
 40
0
 40
0
 40
0
 40
1
 40
1
 40
1
 40
1
 10
176.206000
 20
50.120576
 30
0.0
 10
176.206000
 20
41.187386
 30
0.0
 10
169.139190
 20
34.120576
 30
0.0
 10
160.206000
 20
34.120576
 30
0.0
  0
LWPOLYLINE
  5
281
100
AcDbEntity
  8
Ebene_1
 62
7
100
AcDbPolyline
 90
2
 70
0
 10
176.206000
 20
250.120576
 30
0.0
 10
176.206000
 20
50.120576
 30
0.0
  0
SPLINE
  5
282
100
AcDbEntity
  8
Ebene_1
 62
7
100
AcDbSpline
 70
8
 71
3
 72
8
 73
4
 74
0
 40
0
 40
0
 40
0
 40
0
 40
1
 40
1
 40
1
 40
1
 10
40.206000
 20
34.120576
 30
0.0
 10
31.272811
 20
34.120576
 30
0.0
 10
24.206000
 20
41.187386
 30
0.0
 10
24.206000
 20
50.120576
 30
0.0
  0
LWPOLYLINE
  5
283
100
AcDbEntity
  8
Ebene_1
 62
7
100
AcDbPolyline
 90
2
 70
0
 10
160.206000
 20
34.120576
 30
0.0
 10
40.206000
 20
34.120576
 30
0.0
  0
SPLINE
  5
284
100
AcDbEntity
  8
Ebene_1
 62
7
100
AcDbSpline
 70
8
 71
3
 72
8
 73
4
 74
0
 40
0
 40
0
 40
0
 40
0
 40
1
 40
1
 40
1
 40
1
 10
24.206000
 20
250.120576
 30
0.0
 10
24.206000
 20
259.053765
 30
0.0
 10
31.272811
 20
266.120576
 30
0.0
 10
40.206000
 20
266.120576
 30
0.0
  0
LWPOLYLINE
  5
285
100
AcDbEntity
  8
Ebene_1
 62
7
100
AcDbPolyline
 90
2
 70
0
 10
24.206000
 20
50.120576
 30
0.0
 10
24.206000
 20
250.120576
 30
0.0
  0
SPLINE
  5
286
100
AcDbEntity
  8
Ebene_1
 62
7
100
AcDbSpline
 70
8
 71
3
 72
8
 73
4
 74
0
 40
0
 40
0
 40
0
 40
0
 40
1
 40
1
 40
1
 40
1
 10
36.205996
 20
256.620576
 30
0.0
 10
36.205996
 20
255.957535
 30
0.0
 10
35.942604
 20
255.321650
 30
0.0
 10
35.473763
 20
254.852809
 30
0.0
  0
SPLINE
  5
287
100
AcDbEntity
  8
Ebene_1
 62
7
100
AcDbSpline
 70
8
 71
3
 72
8
 73
4
 74
0
 40
0
 40
0
 40
0
 40
0
 40
1
 40
1
 40
1
 40
1
 10
35.473763
 20
254.852809
 30
0.0
 10
35.004922
 20
254.383968
 30
0.0
 10
34.369037
 20
254.120576
 30
0.0
 10
33.705996
 20
254.120576
 30
0.0
  0
SPLINE
  5
288
100
AcDbEntity
  8
Ebene_1
 62
7
100
AcDbSpline
 70
8
 71
3
 72
8
 73
4
 74
0
 40
0
 40
0
 40
0
 40
0
 40
1
 40
1
 40
1
 40
1
 10
33.705996
 20
254.120576
 30
0.0
 10
33.042955
 20
254.120576
 30
0.0
 10
32.407070
 20
254.383968
 30
0.0
 10
31.938229
 20
254.852809
 30
0.0
  0
SPLINE
  5
289
100
AcDbEntity
  8
Ebene_1
 62
7
100
AcDbSpline
 70
8
 71
3
 72
8
 73
4
 74
0
 40
0
 40
0
 40
0
 40
0
 40
1
 40
1
 40
1
 40
1
 10
31.938229
 20
254.852809
 30
0.0
 10
31.469388
 20
255.321650
 30
0.0
 10
31.205996
 20
255.957535
 30
0.0
 10
31.205996
 20
256.620576
 30
0.0
  0
SPLINE
  5
28a
100
AcDbEntity
  8
Ebene_1
 62
7
100
AcDbSpline
 70
8
 71
3
 72
8
 73
4
 74
0
 40
0
 40
0
 40
0
 40
0
 40
1
 40
1
 40
1
 40
1
 10
31.205996
 20
256.620576
 30
0.0
 10
31.205996
 20
257.283617
 30
0.0
 10
31.469388
 20
257.919502
 30
0.0
 10
31.938229
 20
258.388343
 30
0.0
  0
SPLINE
  5
28b
100
AcDbEntity
  8
Ebene_1
 62
7
100
AcDbSpline
 70
8
 71
3
 72
8
 73
4
 74
0
 40
0
 40
0
 40
0
 40
0
 40
1
 40
1
 40
1
 40
1
 10
31.938229
 20
258.388343
 30
0.0
 10
32.407070
 20
258.857184
 30
0.0
 10
33.042955
 20
259.120576
 30
0.0
 10
33.705996
 20
259.120576
 30
0.0
  0
SPLINE
  5
28c
100
AcDbEntity
  8
Ebene_1
 62
7
100
AcDbSpline
 70
8
 71
3
 72
8
 73
4
 74
0
 40
0
 40
0
 40
0
 40
0
 40
1
 40
1
 40
1
 40
1
 10
33.705996
 20
259.120576
 30
0.0
 10
34.369037
 20
259.120576
 30
0.0
 10
35.004922
 20
258.857184
 30
0.0
 10
35.473763
 20
258.388343
 30
0.0
  0
SPLINE
  5
28d
100
AcDbEntity
  8
Ebene_1
 62
7
100
AcDbSpline
 70
8
 71
3
 72
8
 73
4
 74
0
 40
0
 40
0
 40
0
 40
0
 40
1
 40
1
 40
1
 40
1
 10
35.473763
 20
258.388343
 30
0.0
 10
35.942604
 20
257.919502
 30
0.0
 10
36.205996
 20
257.283617
 30
0.0
 10
36.205996
 20
256.620576
 30
0.0
  0
SPLINE
  5
28e
100
AcDbEntity
  8
Ebene_1
 62
7
100
AcDbSpline
 70
8
 71
3
 72
8
 73
4
 74
0
 40
0
 40
0
 40
0
 40
0
 40
1
 40
1
 40
1
 40
1
 10
169.206000
 20
256.620576
 30
0.0
 10
169.206000
 20
255.957535
 30
0.0
 10
168.942608
 20
255.321650
 30
0.0
 10
168.473767
 20
254.852809
 30
0.0
  0
SPLINE
  5
28f
100
AcDbEntity
  8
Ebene_1
 62
7
100
AcDbSpline
 70
8
 71
3
 72
8
 73
4
 74
0
 40
0
 40
0
 40
0
 40
0
 40
1
 40
1
 40
1
 40
1
 10
168.473767
 20
254.852809
 30
0.0
 10
168.004926
 20
254.383968
 30
0.0
 10
167.369041
 20
254.120576
 30
0.0
 10
166.706000
 20
254.120576
 30
0.0
  0
SPLINE
  5
290
100
AcDbEntity
  8
Ebene_1
 62
7
100
AcDbSpline
 70
8
 71
3
 72
8
 73
4
 74
0
 40
0
 40
0
 40
0
 40
0
 40
1
 40
1
 40
1
 40
1
 10
166.706000
 20
254.120576
 30
0.0
 10
166.042959
 20
254.120576
 30
0.0
 10
165.407074
 20
254.383968
 30
0.0
 10
164.938233
 20
254.852809
 30
0.0
  0
SPLINE
  5
291
100
AcDbEntity
  8
Ebene_1
 62
7
100
AcDbSpline
 70
8
 71
3
 72
8
 73
4
 74
0
 40
0
 40
0
 40
0
 40
0
 40
1
 40
1
 40
1
 40
1
 10
164.938233
 20
254.852809
 30
0.0
 10
164.469392
 20
255.321650
 30
0.0
 10
164.206000
 20
255.957535
 30
0.0
 10
164.206000
 20
256.620576
 30
0.0
  0
SPLINE
  5
292
100
AcDbEntity
  8
Ebene_1
 62
7
100
AcDbSpline
 70
8
 71
3
 72
8
 73
4
 74
0
 40
0
 40
0
 40
0
 40
0
 40
1
 40
1
 40
1
 40
1
 10
164.206000
 20
256.620576
 30
0.0
 10
164.206000
 20
257.283617
 30
0.0
 10
164.469392
 20
257.919502
 30
0.0
 10
164.938233
 20
258.388343
 30
0.0
  0
SPLINE
  5
293
100
AcDbEntity
  8
Ebene_1
 62
7
100
AcDbSpline
 70
8
 71
3
 72
8
 73
4
 74
0
 40
0
 40
0
 40
0
 40
0
 40
1
 40
1
 40
1
 40
1
 10
164.938233
 20
258.388343
 30
0.0
 10
165.407074
 20
258.857184
 30
0.0
 10
166.042959
 20
259.120576
 30
0.0
 10
166.706000
 20
259.120576
 30
0.0
  0
SPLINE
  5
294
100
AcDbEntity
  8
Ebene_1
 62
7
100
AcDbSpline
 70
8
 71
3
 72
8
 73
4
 74
0
 40
0
 40
0
 40
0
 40
0
 40
1
 40
1
 40
1
 40
1
 10
166.706000
 20
259.120576
 30
0.0
 10
167.369041
 20
259.120576
 30
0.0
 10
168.004926
 20
258.857184
 30
0.0
 10
168.473767
 20
258.388343
 30
0.0
  0
SPLINE
  5
295
100
AcDbEntity
  8
Ebene_1
 62
7
100
AcDbSpline
 70
8
 71
3
 72
8
 73
4
 74
0
 40
0
 40
0
 40
0
 40
0
 40
1
 40
1
 40
1
 40
1
 10
168.473767
 20
258.388343
 30
0.0
 10
168.942608
 20
257.919502
 30
0.0
 10
169.206000
 20
257.283617
 30
0.0
 10
169.206000
 20
256.620576
 30
0.0
  0
SPLINE
  5
296
100
AcDbEntity
  8
Ebene_1
 62
7
100
AcDbSpline
 70
8
 71
3
 72
8
 73
4
 74
0
 40
0
 40
0
 40
0
 40
0
 40
1
 40
1
 40
1
 40
1
 10
169.206000
 20
43.620576
 30
0.0
 10
169.206000
 20
42.957535
 30
0.0
 10
168.942608
 20
42.321650
 30
0.0
 10
168.473767
 20
41.852809
 30
0.0
  0
SPLINE
  5
297
100
AcDbEntity
  8
Ebene_1
 62
7
100
AcDbSpline
 70
8
 71
3
 72
8
 73
4
 74
0
 40
0
 40
0
 40
0
 40
0
 40
1
 40
1
 40
1
 40
1
 10
168.473767
 20
41.852809
 30
0.0
 10
168.004926
 20
41.383968
 30
0.0
 10
167.369041
 20
41.120576
 30
0.0
 10
166.706000
 20
41.120576
 30
0.0
  0
SPLINE
  5
298
100
AcDbEntity
  8
Ebene_1
 62
7
100
AcDbSpline
 70
8
 71
3
 72
8
 73
4
 74
0
 40
0
 40
0
 40
0
 40
0
 40
1
 40
1
 40
1
 40
1
 10
166.706000
 20
41.120576
 30
0.0
 10
166.042959
 20
41.120576
 30
0.0
 10
165.407074
 20
41.383968
 30
0.0
 10
164.938233
 20
41.852809
 30
0.0
  0
SPLINE
  5
299
100
AcDbEntity
  8
Ebene_1
 62
7
100
AcDbSpline
 70
8
 71
3
 72
8
 73
4
 74
0
 40
0
 40
0
 40
0
 40
0
 40
1
 40
1
 40
1
 40
1
 10
164.938233
 20
41.852809
 30
0.0
 10
164.469392
 20
42.321650
 30
0.0
 10
164.206000
 20
42.957535
 30
0.0
 10
164.206000
 20
43.620576
 30
0.0
  0
SPLINE
  5
29a
100
AcDbEntity
  8
Ebene_1
 62
7
100
AcDbSpline
 70
8
 71
3
 72
8
 73
4
 74
0
 40
0
 40
0
 40
0
 40
0
 40
1
 40
1
 40
1
 40
1
 10
164.206000
 20
43.620576
 30
0.0
 10
164.206000
 20
44.283617
 30
0.0
 10
164.469392
 20
44.919502
 30
0.0
 10
164.938233
 20
45.388343
 30
0.0
  0
SPLINE
  5
29b
100
AcDbEntity
  8
Ebene_1
 62
7
100
AcDbSpline
 70
8
 71
3
 72
8
 73
4
 74
0
 40
0
 40
0
 40
0
 40
0
 40
1
 40
1
 40
1
 40
1
 10
164.938233
 20
45.388343
 30
0.0
 10
165.407074
 20
45.857184
 30
0.0
 10
166.042959
 20
46.120576
 30
0.0
 10
166.706000
 20
46.120576
 30
0.0
  0
SPLINE
  5
29c
100
AcDbEntity
  8
Ebene_1
 62
7
100
AcDbSpline
 70
8
 71
3
 72
8
 73
4
 74
0
 40
0
 40
0
 40
0
 40
0
 40
1
 40
1
 40
1
 40
1
 10
166.706000
 20
46.120576
 30
0.0
 10
167.369041
 20
46.120576
 30
0.0
 10
168.004926
 20
45.857184
 30
0.0
 10
168.473767
 20
45.388343
 30
0.0
  0
SPLINE
  5
29d
100
AcDbEntity
  8
Ebene_1
 62
7
100
AcDbSpline
 70
8
 71
3
 72
8
 73
4
 74
0
 40
0
 40
0
 40
0
 40
0
 40
1
 40
1
 40
1
 40
1
 10
168.473767
 20
45.388343
 30
0.0
 10
168.942608
 20
44.919502
 30
0.0
 10
169.206000
 20
44.283617
 30
0.0
 10
169.206000
 20
43.620576
 30
0.0
  0
SPLINE
  5
29e
100
AcDbEntity
  8
Ebene_1
 62
7
100
AcDbSpline
 70
8
 71
3
 72
8
 73
4
 74
0
 40
0
 40
0
 40
0
 40
0
 40
1
 40
1
 40
1
 40
1
 10
36.205996
 20
43.620576
 30
0.0
 10
36.205996
 20
42.957535
 30
0.0
 10
35.942604
 20
42.321650
 30
0.0
 10
35.473763
 20
41.852809
 30
0.0
  0
SPLINE
  5
29f
100
AcDbEntity
  8
Ebene_1
 62
7
100
AcDbSpline
 70
8
 71
3
 72
8
 73
4
 74
0
 40
0
 40
0
 40
0
 40
0
 40
1
 40
1
 40
1
 40
1
 10
35.473763
 20
41.852809
 30
0.0
 10
35.004922
 20
41.383968
 30
0.0
 10
34.369037
 20
41.120576
 30
0.0
 10
33.705996
 20
41.120576
 30
0.0
  0
SPLINE
  5
2a0
100
AcDbEntity
  8
Ebene_1
 62
7
100
AcDbSpline
 70
8
 71
3
 72
8
 73
4
 74
0
 40
0
 40
0
 40
0
 40
0
 40
1
 40
1
 40
1
 40
1
 10
33.705996
 20
41.120576
 30
0.0
 10
33.042955
 20
41.120576
 30
0.0
 10
32.407070
 20
41.383968
 30
0.0
 10
31.938229
 20
41.852809
 30
0.0
  0
SPLINE
  5
2a1
100
AcDbEntity
  8
Ebene_1
 62
7
100
AcDbSpline
 70
8
 71
3
 72
8
 73
4
 74
0
 40
0
 40
0
 40
0
 40
0
 40
1
 40
1
 40
1
 40
1
 10
31.938229
 20
41.852809
 30
0.0
 10
31.469388
 20
42.321650
 30
0.0
 10
31.205996
 20
42.957535
 30
0.0
 10
31.205996
 20
43.620576
 30
0.0
  0
SPLINE
  5
2a2
100
AcDbEntity
  8
Ebene_1
 62
7
100
AcDbSpline
 70
8
 71
3
 72
8
 73
4
 74
0
 40
0
 40
0
 40
0
 40
0
 40
1
 40
1
 40
1
 40
1
 10
31.205996
 20
43.620576
 30
0.0
 10
31.205996
 20
44.283617
 30
0.0
 10
31.469388
 20
44.919502
 30
0.0
 10
31.938229
 20
45.388343
 30
0.0
  0
SPLINE
  5
2a3
100
AcDbEntity
  8
Ebene_1
 62
7
100
AcDbSpline
 70
8
 71
3
 72
8
 73
4
 74
0
 40
0
 40
0
 40
0
 40
0
 40
1
 40
1
 40
1
 40
1
 10
31.938229
 20
45.388343
 30
0.0
 10
32.407070
 20
45.857184
 30
0.0
 10
33.042955
 20
46.120576
 30
0.0
 10
33.705996
 20
46.120576
 30
0.0
  0
SPLINE
  5
2a4
100
AcDbEntity
  8
Ebene_1
 62
7
100
AcDbSpline
 70
8
 71
3
 72
8
 73
4
 74
0
 40
0
 40
0
 40
0
 40
0
 40
1
 40
1
 40
1
 40
1
 10
33.705996
 20
46.120576
 30
0.0
 10
34.369037
 20
46.120576
 30
0.0
 10
35.004922
 20
45.857184
 30
0.0
 10
35.473763
 20
45.388343
 30
0.0
  0
SPLINE
  5
2a5
100
AcDbEntity
  8
Ebene_1
 62
7
100
AcDbSpline
 70
8
 71
3
 72
8
 73
4
 74
0
 40
0
 40
0
 40
0
 40
0
 40
1
 40
1
 40
1
 40
1
 10
35.473763
 20
45.388343
 30
0.0
 10
35.942604
 20
44.919502
 30
0.0
 10
36.205996
 20
44.283617
 30
0.0
 10
36.205996
 20
43.620576
 30
0.0
  0
LWPOLYLINE
  5
2a6
100
AcDbEntity
  8
Ebene_1
 62
7
100
AcDbPolyline
 90
1
 70
1
 10
40.206000
 20
266.120576
 30
0.0
  0
ENDSEC
  0
SECTION
  2
OBJECTS
  0
DICTIONARY
  5
C
330
0
100
AcDbDictionary
  3
ACAD_GROUP
350
D
  3
ACAD_MLINESTYLE
350
17
  0
DICTIONARY
  5
D
330
C
100
AcDbDictionary
  0
DICTIONARY
  5
1A
330
C
100
AcDbDictionary
  0
DICTIONARY
  5
17
330
C
100
AcDbDictionary
  3
STANDARD
350
18
  0
DICTIONARY
  5
19
330
C
100
AcDbDictionary
  0
ENDSEC
  0
EOF
