  0
SECTION
  2
HEADER
  9
$ACADVER
  1
AC1014
  9
$HANDSEED
  5
FFFF
  9
$MEASUREMENT
 70
     1
  0
ENDSEC
  0
SECTION
  2
TABLES
  0
TABLE
  2
VPORT
  5
8
330
0
100
AcDbSymbolTable
 70
     4
  0
VPORT
  5
2E
330
8
100
AcDbSymbolTableRecord
100
AcDbViewportTableRecord
  2
*ACTIVE
 70
     0
 10
0.0
 20
0.0
 11
1.0
 21
1.0
 12
210.0
 22
148.5
 13
0.0
 23
0.0
 14
10.0
 24
10.0
 15
10.0
 25
10.0
 16
0.0
 26
0.0
 36
1.0
 17
0.0
 27
0.0
 37
0.0
 40
341.0
 41
1.24
 42
50.0
 43
0.0
 44
0.0
 50
0.0
 51
0.0
 71
     0
 72
   100
 73
     1
 74
     3
 75
     0
 76
     0
 77
     0
 78
     0
  0
ENDTAB
  0
TABLE
  2
LTYPE
  5
5
330
0
100
AcDbSymbolTable
 70
     1
  0
LTYPE
  5
14
330
5
100
AcDbSymbolTableRecord
100
AcDbLinetypeTableRecord
  2
BYBLOCK
 70
     0
  3

 72
    65
 73
     0
 40
0.0
  0
LTYPE
  5
15
330
5
100
AcDbSymbolTableRecord
100
AcDbLinetypeTableRecord
  2
BYLAYER
 70
     0
  3

 72
    65
 73
     0
 40
0.0
  0
LTYPE
  5
16
330
5
100
AcDbSymbolTableRecord
100
AcDbLinetypeTableRecord
  2
CONTINUOUS
 70
     0
  3
Solid line
 72
    65
 73
     0
 40
0.0
  0
ENDTAB
  0
TABLE
  2
LAYER
  5
2
100
AcDbSymbolTable
 70
2
  0
LAYER
  5
50
100
AcDbSymbolTableRecord
100
AcDbLayerTableRecord
  2
0
 70
0
  6
CONTINUOUS
  0
LAYER
  5
51
100
AcDbSymbolTableRecord
100
AcDbLayerTableRecord
  2
Ebene_1
 70
0
  6
CONTINUOUS
  0
ENDTAB
  0
TABLE
  2
STYLE
  5
3
330
0
100
AcDbSymbolTable
 70
     1
  0
STYLE
  5
11
330
3
100
AcDbSymbolTableRecord
100
AcDbTextStyleTableRecord
  2
STANDARD
 70
     0
 40
0.0
 41
1.0
 50
0.0
 71
     0
 42
2.5
  3
txt
  4

  0
ENDTAB
  0
TABLE
  2
VIEW
  5
6
330
0
100
AcDbSymbolTable
 70
     0
  0
ENDTAB
  0
TABLE
  2
UCS
  5
7
330
0
100
AcDbSymbolTable
 70
     0
  0
ENDTAB
  0
TABLE
  2
APPID
  5
9
330
0
100
AcDbSymbolTable
 70
     2
  0
APPID
  5
12
330
9
100
AcDbSymbolTableRecord
100
AcDbRegAppTableRecord
  2
ACAD
 70
     0
  0
ENDTAB
  0
TABLE
  2
DIMSTYLE
  5
A
330
0
100
AcDbSymbolTable
 70
     1
  0
DIMSTYLE
105
27
330
A
100
AcDbSymbolTableRecord
100
AcDbDimStyleTableRecord
  2
ISO-25
 70
     0
  3

  4

  5

  6

  7

 40
1.0
 41
2.5
 42
0.625
 43
3.75
 44
1.25
 45
0.0
 46
0.0
 47
0.0
 48
0.0
140
2.5
141
2.5
142
0.0
143
0.03937007874016
144
1.0
145
0.0
146
1.0
147
0.625
 71
     0
 72
     0
 73
     0
 74
     0
 75
     0
 76
     0
 77
     1
 78
     8
170
     0
171
     3
172
     1
173
     0
174
     0
175
     0
176
     0
177
     0
178
     0
270
     2
271
     2
272
     2
273
     2
274
     3
340
11
275
     0
280
     0
281
     0
282
     0
283
     0
284
     8
285
     0
286
     0
287
     3
288
     0
  0
ENDTAB
  0
TABLE
  2
BLOCK_RECORD
  5
1
330
0
100
AcDbSymbolTable
 70
     1
  0
BLOCK_RECORD
  5
1F
330
1
100
AcDbSymbolTableRecord
100
AcDbBlockTableRecord
  2
*MODEL_SPACE
  0
BLOCK_RECORD
  5
1B
330
1
100
AcDbSymbolTableRecord
100
AcDbBlockTableRecord
  2
*PAPER_SPACE
  0
ENDTAB
  0
ENDSEC
  0
SECTION
  2
BLOCKS
  0
BLOCK
  5
20
330
1F
100
AcDbEntity
  8
0
100
AcDbBlockBegin
  2
*MODEL_SPACE
 70
     0
 10
0.0
 20
0.0
 30
0.0
  3
*MODEL_SPACE
  1

  0
ENDBLK
  5
21
330
1F
100
AcDbEntity
  8
0
100
AcDbBlockEnd
  0
BLOCK
  5
1C
330
1B
100
AcDbEntity
 67
     1
  8
0
100
AcDbBlockBegin
  2
*PAPER_SPACE
  1

  0
ENDBLK
  5
1D
330
1B
100
AcDbEntity
 67
     1
  8
0
100
AcDbBlockEnd
  0
ENDSEC
  0
SECTION
  2
ENTITIES
  0
SPLINE
  5
100
100
AcDbEntity
  8
Ebene_1
 62
7
100
AcDbSpline
 70
8
 71
3
 72
8
 73
4
 74
0
 40
0
 40
0
 40
0
 40
0
 40
1
 40
1
 40
1
 40
1
 10
201.000000
 20
268.000000
 30
0.0
 10
198.835890
 20
268.000000
 30
0.0
 10
197.000000
 20
266.164111
 30
0.0
 10
197.000000
 20
264.000000
 30
0.0
  0
SPLINE
  5
101
100
AcDbEntity
  8
Ebene_1
 62
7
100
AcDbSpline
 70
8
 71
3
 72
8
 73
4
 74
0
 40
0
 40
0
 40
0
 40
0
 40
1
 40
1
 40
1
 40
1
 10
197.000000
 20
31.000000
 30
0.0
 10
197.000000
 20
28.835890
 30
0.0
 10
198.835890
 20
27.000000
 30
0.0
 10
201.000000
 20
27.000000
 30
0.0
  0
LWPOLYLINE
  5
102
100
AcDbEntity
  8
Ebene_1
 62
7
100
AcDbPolyline
 90
2
 70
0
 10
197.000000
 20
264.000000
 30
0.0
 10
197.000000
 20
31.000000
 30
0.0
  0
SPLINE
  5
103
100
AcDbEntity
  8
Ebene_1
 62
7
100
AcDbSpline
 70
8
 71
3
 72
8
 73
4
 74
0
 40
0
 40
0
 40
0
 40
0
 40
1
 40
1
 40
1
 40
1
 10
359.000000
 20
27.000000
 30
0.0
 10
361.164110
 20
27.000000
 30
0.0
 10
363.000000
 20
28.835890
 30
0.0
 10
363.000000
 20
31.000000
 30
0.0
  0
LWPOLYLINE
  5
104
100
AcDbEntity
  8
Ebene_1
 62
7
100
AcDbPolyline
 90
2
 70
0
 10
201.000000
 20
27.000000
 30
0.0
 10
359.000000
 20
27.000000
 30
0.0
  0
SPLINE
  5
105
100
AcDbEntity
  8
Ebene_1
 62
7
100
AcDbSpline
 70
8
 71
3
 72
8
 73
4
 74
0
 40
0
 40
0
 40
0
 40
0
 40
1
 40
1
 40
1
 40
1
 10
363.000000
 20
264.000000
 30
0.0
 10
363.000000
 20
266.164111
 30
0.0
 10
361.164110
 20
268.000000
 30
0.0
 10
359.000000
 20
268.000000
 30
0.0
  0
LWPOLYLINE
  5
106
100
AcDbEntity
  8
Ebene_1
 62
7
100
AcDbPolyline
 90
2
 70
0
 10
363.000000
 20
31.000000
 30
0.0
 10
363.000000
 20
264.000000
 30
0.0
  0
LWPOLYLINE
  5
107
100
AcDbEntity
  8
Ebene_1
 62
7
100
AcDbPolyline
 90
3
 70
0
 10
359.000000
 20
268.000000
 30
0.0
 10
201.000000
 20
268.000000
 30
0.0
 10
201.000000
 20
268.000000
 30
0.0
  0
LWPOLYLINE
  5
108
100
AcDbEntity
  8
Ebene_1
 62
7
100
AcDbPolyline
 90
5
 70
1
 10
203.000000
 20
262.000000
 30
0.0
 10
357.000000
 20
262.000000
 30
0.0
 10
357.000000
 20
33.000000
 30
0.0
 10
203.000000
 20
33.000000
 30
0.0
 10
203.000000
 20
262.000000
 30
0.0
  0
LWPOLYLINE
  5
109
100
AcDbEntity
  8
Ebene_1
 62
7
100
AcDbPolyline
 90
4
 70
1
 10
0.000000
 20
299.599980
 30
0.0
 10
380.000000
 20
299.599980
 30
0.0
 10
380.000000
 20
0.000000
 30
0.0
 10
0.000000
 20
0.000000
 30
0.0
  0
SPLINE
  5
10a
100
AcDbEntity
  8
Ebene_1
 62
7
100
AcDbSpline
 70
8
 71
3
 72
8
 73
4
 74
0
 40
0
 40
0
 40
0
 40
0
 40
1
 40
1
 40
1
 40
1
 10
151.548260
 20
73.471890
 30
0.0
 10
151.548260
 20
72.364831
 30
0.0
 10
151.923248
 20
71.367966
 30
0.0
 10
152.638627
 20
70.574385
 30
0.0
  0
LWPOLYLINE
  5
10b
100
AcDbEntity
  8
Ebene_1
 62
7
100
AcDbPolyline
 90
2
 70
0
 10
151.548260
 20
81.175766
 30
0.0
 10
151.548260
 20
73.471890
 30
0.0
  0
SPLINE
  5
10c
100
AcDbEntity
  8
Ebene_1
 62
7
100
AcDbSpline
 70
8
 71
3
 72
8
 73
4
 74
0
 40
0
 40
0
 40
0
 40
0
 40
1
 40
1
 40
1
 40
1
 10
152.641998
 20
70.570836
 30
0.0
 10
153.361598
 20
69.793578
 30
0.0
 10
154.287336
 20
69.387703
 30
0.0
 10
155.327902
 20
69.387703
 30
0.0
  0
LWPOLYLINE
  5
10d
100
AcDbEntity
  8
Ebene_1
 62
7
100
AcDbPolyline
 90
3
 70
0
 10
152.638627
 20
70.574385
 30
0.0
 10
152.640313
 20
70.572610
 30
0.0
 10
152.641998
 20
70.570836
 30
0.0
  0
SPLINE
  5
10e
100
AcDbEntity
  8
Ebene_1
 62
7
100
AcDbSpline
 70
8
 71
3
 72
8
 73
4
 74
0
 40
0
 40
0
 40
0
 40
0
 40
1
 40
1
 40
1
 40
1
 10
158.253887
 20
80.714807
 30
0.0
 10
158.253887
 20
79.607739
 30
0.0
 10
158.628876
 20
78.612684
 30
0.0
 10
159.344253
 20
77.819103
 30
0.0
  0
LWPOLYLINE
  5
10f
100
AcDbEntity
  8
Ebene_1
 62
7
100
AcDbPolyline
 90
5
 70
0
 10
155.327902
 20
69.387703
 30
0.0
 10
172.520353
 20
69.387703
 30
0.0
 10
172.520353
 20
81.175811
 30
0.0
 10
158.253887
 20
81.175811
 30
0.0
 10
158.253887
 20
80.714807
 30
0.0
  0
SPLINE
  5
110
100
AcDbEntity
  8
Ebene_1
 62
7
100
AcDbSpline
 70
8
 71
3
 72
8
 73
4
 74
0
 40
0
 40
0
 40
0
 40
0
 40
1
 40
1
 40
1
 40
1
 10
159.349310
 20
77.813780
 30
0.0
 10
160.068909
 20
77.036531
 30
0.0
 10
160.994647
 20
76.632448
 30
0.0
 10
162.035214
 20
76.632448
 30
0.0
  0
LWPOLYLINE
  5
111
100
AcDbEntity
  8
Ebene_1
 62
7
100
AcDbPolyline
 90
3
 70
0
 10
159.344253
 20
77.819103
 30
0.0
 10
159.347624
 20
77.815554
 30
0.0
 10
159.349310
 20
77.813780
 30
0.0
  0
SPLINE
  5
112
100
AcDbEntity
  8
Ebene_1
 62
7
100
AcDbSpline
 70
8
 71
3
 72
8
 73
4
 74
0
 40
0
 40
0
 40
0
 40
0
 40
1
 40
1
 40
1
 40
1
 10
157.005188
 20
73.933027
 30
0.0
 10
156.633977
 20
73.933027
 30
0.0
 10
156.361861
 20
74.052864
 30
0.0
 10
156.106553
 20
74.309386
 30
0.0
  0
SPLINE
  5
113
100
AcDbEntity
  8
Ebene_1
 62
7
100
AcDbSpline
 70
8
 71
3
 72
8
 73
4
 74
0
 40
0
 40
0
 40
0
 40
0
 40
1
 40
1
 40
1
 40
1
 10
156.106553
 20
74.309386
 30
0.0
 10
155.867131
 20
74.586064
 30
0.0
 10
155.754768
 20
74.879333
 30
0.0
 10
155.754768
 20
75.281828
 30
0.0
  0
LWPOLYLINE
  5
114
100
AcDbEntity
  8
Ebene_1
 62
7
100
AcDbPolyline
 90
4
 70
0
 10
162.035214
 20
76.632448
 30
0.0
 10
168.313993
 20
76.632448
 30
0.0
 10
168.313993
 20
73.933027
 30
0.0
 10
157.005188
 20
73.933027
 30
0.0
  0
LWPOLYLINE
  5
115
100
AcDbEntity
  8
Ebene_1
 62
7
100
AcDbPolyline
 90
3
 70
0
 10
155.754768
 20
75.281828
 30
0.0
 10
155.754768
 20
81.175890
 30
0.0
 10
151.548260
 20
81.175766
 30
0.0
  0
SPLINE
  5
116
100
AcDbEntity
  8
Ebene_1
 62
7
100
AcDbSpline
 70
8
 71
3
 72
8
 73
4
 74
0
 40
0
 40
0
 40
0
 40
0
 40
1
 40
1
 40
1
 40
1
 10
44.245490
 20
82.526368
 30
0.0
 10
44.245490
 20
82.127963
 30
0.0
 10
44.131863
 20
81.836957
 30
0.0
 10
43.875376
 20
81.557528
 30
0.0
  0
SPLINE
  5
117
100
AcDbEntity
  8
Ebene_1
 62
7
100
AcDbSpline
 70
8
 71
3
 72
8
 73
4
 74
0
 40
0
 40
0
 40
0
 40
0
 40
1
 40
1
 40
1
 40
1
 10
43.875376
 20
81.557528
 30
0.0
 10
43.615864
 20
81.294246
 30
0.0
 10
43.349797
 20
81.175766
 30
0.0
 10
42.996743
 20
81.175766
 30
0.0
  0
LWPOLYLINE
  5
118
100
AcDbEntity
  8
Ebene_1
 62
7
100
AcDbPolyline
 90
4
 70
0
 10
27.479853
 20
88.420422
 30
0.0
 10
27.479853
 20
83.875169
 30
0.0
 10
44.245490
 20
83.875169
 30
0.0
 10
44.245490
 20
82.526368
 30
0.0
  0
SPLINE
  5
119
100
AcDbEntity
  8
Ebene_1
 62
7
100
AcDbSpline
 70
8
 71
3
 72
8
 73
4
 74
0
 40
0
 40
0
 40
0
 40
0
 40
1
 40
1
 40
1
 40
1
 10
44.672302
 20
76.632323
 30
0.0
 10
45.681694
 20
76.632323
 30
0.0
 10
46.594829
 20
77.038775
 30
0.0
 10
47.328199
 20
77.810045
 30
0.0
  0
SPLINE
  5
11a
100
AcDbEntity
  8
Ebene_1
 62
7
100
AcDbSpline
 70
8
 71
3
 72
8
 73
4
 74
0
 40
0
 40
0
 40
0
 40
0
 40
1
 40
1
 40
1
 40
1
 10
47.328199
 20
77.810045
 30
0.0
 10
48.066200
 20
78.586211
 30
0.0
 10
48.453578
 20
79.587964
 30
0.0
 10
48.453578
 20
80.714754
 30
0.0
  0
LWPOLYLINE
  5
11b
100
AcDbEntity
  8
Ebene_1
 62
7
100
AcDbPolyline
 90
7
 70
0
 10
42.996743
 20
81.175766
 30
0.0
 10
27.479853
 20
81.175766
 30
0.0
 10
27.479853
 20
69.387650
 30
0.0
 10
27.906665
 20
69.387650
 30
0.0
 10
31.686273
 20
69.387650
 30
0.0
 10
31.686273
 20
76.632323
 30
0.0
 10
44.672302
 20
76.632323
 30
0.0
  0
LWPOLYLINE
  5
11c
100
AcDbEntity
  8
Ebene_1
 62
7
100
AcDbPolyline
 90
3
 70
0
 10
48.453578
 20
80.714754
 30
0.0
 10
48.453578
 20
88.420422
 30
0.0
 10
27.479853
 20
88.420422
 30
0.0
  0
LWPOLYLINE
  5
11d
100
AcDbEntity
  8
Ebene_1
 62
7
100
AcDbPolyline
 90
9
 70
1
 10
50.952749
 20
81.175766
 30
0.0
 10
50.952749
 20
69.387650
 30
0.0
 10
51.379561
 20
69.387650
 30
0.0
 10
55.159169
 20
69.387650
 30
0.0
 10
55.159169
 20
76.632323
 30
0.0
 10
67.718395
 20
76.632323
 30
0.0
 10
67.718395
 20
69.387650
 30
0.0
 10
71.924806
 20
69.387650
 30
0.0
 10
71.924806
 20
81.175766
 30
0.0
  0
SPLINE
  5
11e
100
AcDbEntity
  8
Ebene_1
 62
7
100
AcDbSpline
 70
8
 71
3
 72
8
 73
4
 74
0
 40
0
 40
0
 40
0
 40
0
 40
1
 40
1
 40
1
 40
1
 10
50.952749
 20
87.959419
 30
0.0
 10
50.952749
 20
86.852351
 30
0.0
 10
51.327734
 20
85.855494
 30
0.0
 10
52.043121
 20
85.061904
 30
0.0
  0
LWPOLYLINE
  5
11f
100
AcDbEntity
  8
Ebene_1
 62
7
100
AcDbPolyline
 90
2
 70
0
 10
50.952749
 20
88.420422
 30
0.0
 10
50.952749
 20
87.959419
 30
0.0
  0
SPLINE
  5
120
100
AcDbEntity
  8
Ebene_1
 62
7
100
AcDbSpline
 70
8
 71
3
 72
8
 73
4
 74
0
 40
0
 40
0
 40
0
 40
0
 40
1
 40
1
 40
1
 40
1
 10
52.046669
 20
85.058355
 30
0.0
 10
52.766271
 20
84.281107
 30
0.0
 10
53.692012
 20
83.875214
 30
0.0
 10
54.732579
 20
83.875214
 30
0.0
  0
LWPOLYLINE
  5
121
100
AcDbEntity
  8
Ebene_1
 62
7
100
AcDbPolyline
 90
3
 70
0
 10
52.043121
 20
85.061904
 30
0.0
 10
52.044895
 20
85.060130
 30
0.0
 10
52.046669
 20
85.058355
 30
0.0
  0
SPLINE
  5
122
100
AcDbEntity
  8
Ebene_1
 62
7
100
AcDbSpline
 70
8
 71
3
 72
8
 73
4
 74
0
 40
0
 40
0
 40
0
 40
0
 40
1
 40
1
 40
1
 40
1
 10
68.145420
 20
83.875214
 30
0.0
 10
69.154812
 20
83.875214
 30
0.0
 10
70.067947
 20
84.281665
 30
0.0
 10
70.801317
 20
85.052953
 30
0.0
  0
SPLINE
  5
123
100
AcDbEntity
  8
Ebene_1
 62
7
100
AcDbSpline
 70
8
 71
3
 72
8
 73
4
 74
0
 40
0
 40
0
 40
0
 40
0
 40
1
 40
1
 40
1
 40
1
 10
70.801317
 20
85.052953
 30
0.0
 10
71.539327
 20
85.829110
 30
0.0
 10
71.925019
 20
86.832673
 30
0.0
 10
71.925019
 20
87.959454
 30
0.0
  0
LWPOLYLINE
  5
124
100
AcDbEntity
  8
Ebene_1
 62
7
100
AcDbPolyline
 90
2
 70
0
 10
54.732579
 20
83.875214
 30
0.0
 10
68.145420
 20
83.875214
 30
0.0
  0
LWPOLYLINE
  5
125
100
AcDbEntity
  8
Ebene_1
 62
7
100
AcDbPolyline
 90
3
 70
0
 10
71.925019
 20
87.959454
 30
0.0
 10
71.925019
 20
88.420466
 30
0.0
 10
50.952749
 20
88.420422
 30
0.0
  0
SPLINE
  5
126
100
AcDbEntity
  8
Ebene_1
 62
7
100
AcDbSpline
 70
8
 71
3
 72
8
 73
4
 74
0
 40
0
 40
0
 40
0
 40
0
 40
1
 40
1
 40
1
 40
1
 10
74.423987
 20
87.959419
 30
0.0
 10
74.423987
 20
86.852351
 30
0.0
 10
74.798971
 20
85.855494
 30
0.0
 10
75.514349
 20
85.061904
 30
0.0
  0
LWPOLYLINE
  5
127
100
AcDbEntity
  8
Ebene_1
 62
7
100
AcDbPolyline
 90
2
 70
0
 10
74.423987
 20
88.420422
 30
0.0
 10
74.423987
 20
87.959419
 30
0.0
  0
SPLINE
  5
128
100
AcDbEntity
  8
Ebene_1
 62
7
100
AcDbSpline
 70
8
 71
3
 72
8
 73
4
 74
0
 40
0
 40
0
 40
0
 40
0
 40
1
 40
1
 40
1
 40
1
 10
75.519672
 20
85.058355
 30
0.0
 10
76.239265
 20
84.281107
 30
0.0
 10
77.165006
 20
83.875222
 30
0.0
 10
78.205573
 20
83.875214
 30
0.0
  0
LWPOLYLINE
  5
129
100
AcDbEntity
  8
Ebene_1
 62
7
100
AcDbPolyline
 90
3
 70
0
 10
75.514349
 20
85.061904
 30
0.0
 10
75.517898
 20
85.060130
 30
0.0
 10
75.519672
 20
85.058355
 30
0.0
  0
SPLINE
  5
12a
100
AcDbEntity
  8
Ebene_1
 62
7
100
AcDbSpline
 70
8
 71
3
 72
8
 73
4
 74
0
 40
0
 40
0
 40
0
 40
0
 40
1
 40
1
 40
1
 40
1
 10
91.191620
 20
82.526404
 30
0.0
 10
91.191620
 20
82.128007
 30
0.0
 10
91.076316
 20
81.837001
 30
0.0
 10
90.819820
 20
81.557573
 30
0.0
  0
SPLINE
  5
12b
100
AcDbEntity
  8
Ebene_1
 62
7
100
AcDbSpline
 70
8
 71
3
 72
8
 73
4
 74
0
 40
0
 40
0
 40
0
 40
0
 40
1
 40
1
 40
1
 40
1
 10
90.819820
 20
81.557573
 30
0.0
 10
90.560309
 20
81.294291
 30
0.0
 10
90.294250
 20
81.175802
 30
0.0
 10
89.941187
 20
81.175802
 30
0.0
  0
LWPOLYLINE
  5
12c
100
AcDbEntity
  8
Ebene_1
 62
7
100
AcDbPolyline
 90
3
 70
0
 10
78.205573
 20
83.875214
 30
0.0
 10
91.191620
 20
83.875214
 30
0.0
 10
91.191620
 20
82.526404
 30
0.0
  0
SPLINE
  5
12d
100
AcDbEntity
  8
Ebene_1
 62
7
100
AcDbSpline
 70
8
 71
3
 72
8
 73
4
 74
0
 40
0
 40
0
 40
0
 40
0
 40
1
 40
1
 40
1
 40
1
 10
91.563331
 20
76.635907
 30
0.0
 10
92.630175
 20
76.486545
 30
0.0
 10
93.556245
 20
77.056678
 30
0.0
 10
94.272581
 20
77.810036
 30
0.0
  0
SPLINE
  5
12e
100
AcDbEntity
  8
Ebene_1
 62
7
100
AcDbSpline
 70
8
 71
3
 72
8
 73
4
 74
0
 40
0
 40
0
 40
0
 40
0
 40
1
 40
1
 40
1
 40
1
 10
94.272581
 20
77.810036
 30
0.0
 10
95.010591
 20
78.586202
 30
0.0
 10
95.397960
 20
79.587956
 30
0.0
 10
95.397960
 20
80.714745
 30
0.0
  0
LWPOLYLINE
  5
12f
100
AcDbEntity
  8
Ebene_1
 62
7
100
AcDbPolyline
 90
12
 70
0
 10
89.941187
 20
81.175802
 30
0.0
 10
74.424306
 20
81.175802
 30
0.0
 10
74.424306
 20
69.387694
 30
0.0
 10
74.851118
 20
69.387694
 30
0.0
 10
78.632385
 20
69.387694
 30
0.0
 10
78.632385
 20
76.632359
 30
0.0
 10
83.057206
 20
76.632359
 30
0.0
 10
89.764465
 20
69.387694
 30
0.0
 10
96.001565
 20
69.387694
 30
0.0
 10
89.294306
 20
76.632359
 30
0.0
 10
91.618423
 20
76.632359
 30
0.0
 10
91.563331
 20
76.635907
 30
0.0
  0
LWPOLYLINE
  5
130
100
AcDbEntity
  8
Ebene_1
 62
7
100
AcDbPolyline
 90
3
 70
0
 10
95.397960
 20
80.714745
 30
0.0
 10
95.397960
 20
88.420413
 30
0.0
 10
74.423987
 20
88.420422
 30
0.0
  0
LWPOLYLINE
  5
131
100
AcDbEntity
  8
Ebene_1
 62
7
100
AcDbPolyline
 90
9
 70
1
 10
113.237042
 20
88.420422
 30
0.0
 10
104.427402
 20
78.904941
 30
0.0
 10
113.237042
 20
69.387650
 30
0.0
 10
113.413764
 20
69.387650
 30
0.0
 10
119.474142
 20
69.387650
 30
0.0
 10
110.661176
 20
78.906742
 30
0.0
 10
111.889918
 20
80.253751
 30
0.0
 10
111.913250
 20
80.253751
 30
0.0
 10
119.474125
 20
88.420422
 30
0.0
  0
LWPOLYLINE
  5
132
100
AcDbEntity
  8
Ebene_1
 62
7
100
AcDbPolyline
 90
5
 70
1
 10
97.896874
 20
88.420422
 30
0.0
 10
97.896874
 20
69.387650
 30
0.0
 10
98.323686
 20
69.387650
 30
0.0
 10
102.103294
 20
69.387650
 30
0.0
 10
102.103294
 20
88.420422
 30
0.0
  0
LWPOLYLINE
  5
133
100
AcDbEntity
  8
Ebene_1
 62
7
100
AcDbPolyline
 90
5
 70
1
 10
121.369771
 20
88.420422
 30
0.0
 10
121.369771
 20
69.387650
 30
0.0
 10
121.796583
 20
69.387650
 30
0.0
 10
125.576182
 20
69.387650
 30
0.0
 10
125.576182
 20
88.420422
 30
0.0
  0
LWPOLYLINE
  5
134
100
AcDbEntity
  8
Ebene_1
 62
7
100
AcDbPolyline
 90
12
 70
1
 10
127.471828
 20
88.420422
 30
0.0
 10
131.428158
 20
84.145300
 30
0.0
 10
131.428158
 20
69.387650
 30
0.0
 10
131.854969
 20
69.387650
 30
0.0
 10
135.636240
 20
69.387650
 30
0.0
 10
135.636240
 20
79.601857
 30
0.0
 10
145.091088
 20
69.387650
 30
0.0
 10
149.049086
 20
69.387650
 30
0.0
 10
149.049086
 20
88.420422
 30
0.0
 10
144.841003
 20
88.420422
 30
0.0
 10
144.841003
 20
76.394609
 30
0.0
 10
133.708925
 20
88.420422
 30
0.0
  0
SPLINE
  5
135
100
AcDbEntity
  8
Ebene_1
 62
7
100
AcDbSpline
 70
8
 71
3
 72
8
 73
4
 74
0
 40
0
 40
0
 40
0
 40
0
 40
1
 40
1
 40
1
 40
1
 10
168.740711
 20
83.875169
 30
0.0
 10
169.750099
 20
83.875169
 30
0.0
 10
170.663234
 20
84.281639
 30
0.0
 10
171.396604
 20
85.052908
 30
0.0
  0
SPLINE
  5
136
100
AcDbEntity
  8
Ebene_1
 62
7
100
AcDbSpline
 70
8
 71
3
 72
8
 73
4
 74
0
 40
0
 40
0
 40
0
 40
0
 40
1
 40
1
 40
1
 40
1
 10
171.396604
 20
85.052908
 30
0.0
 10
172.134613
 20
85.829075
 30
0.0
 10
172.520316
 20
86.832629
 30
0.0
 10
172.520316
 20
87.959419
 30
0.0
  0
LWPOLYLINE
  5
137
100
AcDbEntity
  8
Ebene_1
 62
7
100
AcDbPolyline
 90
4
 70
0
 10
151.548260
 20
88.420422
 30
0.0
 10
151.548260
 20
83.875169
 30
0.0
 10
151.975070
 20
83.875169
 30
0.0
 10
168.740711
 20
83.875169
 30
0.0
  0
LWPOLYLINE
  5
138
100
AcDbEntity
  8
Ebene_1
 62
7
100
AcDbPolyline
 90
3
 70
0
 10
172.520316
 20
87.959419
 30
0.0
 10
172.520316
 20
88.420422
 30
0.0
 10
151.548260
 20
88.420422
 30
0.0
  0
LWPOLYLINE
  5
139
100
AcDbEntity
  8
Ebene_1
 62
7
100
AcDbPolyline
 90
9
 70
1
 10
54.305545
 20
54.982973
 30
0.0
 10
54.305545
 20
43.194857
 30
0.0
 10
54.732357
 20
43.194857
 30
0.0
 10
75.277602
 20
43.194857
 30
0.0
 10
75.277602
 20
54.982973
 30
0.0
 10
71.071182
 20
54.982973
 30
0.0
 10
71.071182
 20
47.740110
 30
0.0
 10
58.511956
 20
47.740110
 30
0.0
 10
58.511956
 20
54.982973
 30
0.0
  0
SPLINE
  5
13a
100
AcDbEntity
  8
Ebene_1
 62
7
100
AcDbSpline
 70
8
 71
3
 72
8
 73
4
 74
0
 40
0
 40
0
 40
0
 40
0
 40
1
 40
1
 40
1
 40
1
 10
54.305545
 20
61.764825
 30
0.0
 10
54.305545
 20
60.657757
 30
0.0
 10
54.680538
 20
59.662693
 30
0.0
 10
55.395908
 20
58.869120
 30
0.0
  0
LWPOLYLINE
  5
13b
100
AcDbEntity
  8
Ebene_1
 62
7
100
AcDbPolyline
 90
2
 70
0
 10
54.305545
 20
62.225828
 30
0.0
 10
54.305545
 20
61.764825
 30
0.0
  0
SPLINE
  5
13c
100
AcDbEntity
  8
Ebene_1
 62
7
100
AcDbSpline
 70
8
 71
3
 72
8
 73
4
 74
0
 40
0
 40
0
 40
0
 40
0
 40
1
 40
1
 40
1
 40
1
 10
55.399456
 20
58.865571
 30
0.0
 10
56.119058
 20
58.088323
 30
0.0
 10
57.044799
 20
57.682439
 30
0.0
 10
58.085357
 20
57.682439
 30
0.0
  0
LWPOLYLINE
  5
13d
100
AcDbEntity
  8
Ebene_1
 62
7
100
AcDbPolyline
 90
3
 70
0
 10
55.395908
 20
58.869120
 30
0.0
 10
55.397682
 20
58.867346
 30
0.0
 10
55.399456
 20
58.865571
 30
0.0
  0
SPLINE
  5
13e
100
AcDbEntity
  8
Ebene_1
 62
7
100
AcDbSpline
 70
8
 71
3
 72
8
 73
4
 74
0
 40
0
 40
0
 40
0
 40
0
 40
1
 40
1
 40
1
 40
1
 10
71.498207
 20
57.682439
 30
0.0
 10
72.507590
 20
57.682439
 30
0.0
 10
73.420725
 20
58.088882
 30
0.0
 10
74.154095
 20
58.860178
 30
0.0
  0
SPLINE
  5
13f
100
AcDbEntity
  8
Ebene_1
 62
7
100
AcDbSpline
 70
8
 71
3
 72
8
 73
4
 74
0
 40
0
 40
0
 40
0
 40
0
 40
1
 40
1
 40
1
 40
1
 10
74.154095
 20
58.860178
 30
0.0
 10
74.892105
 20
59.636326
 30
0.0
 10
75.277815
 20
60.638097
 30
0.0
 10
75.277815
 20
61.764887
 30
0.0
  0
LWPOLYLINE
  5
140
100
AcDbEntity
  8
Ebene_1
 62
7
100
AcDbPolyline
 90
2
 70
0
 10
58.085357
 20
57.682439
 30
0.0
 10
71.498207
 20
57.682439
 30
0.0
  0
LWPOLYLINE
  5
141
100
AcDbEntity
  8
Ebene_1
 62
7
100
AcDbPolyline
 90
3
 70
0
 10
75.277815
 20
61.764887
 30
0.0
 10
75.277815
 20
62.225890
 30
0.0
 10
54.305545
 20
62.225828
 30
0.0
  0
LWPOLYLINE
  5
142
100
AcDbEntity
  8
Ebene_1
 62
7
100
AcDbPolyline
 90
12
 70
1
 10
77.174907
 20
62.225828
 30
0.0
 10
81.131237
 20
57.952507
 30
0.0
 10
81.131237
 20
43.194857
 30
0.0
 10
81.558049
 20
43.194857
 30
0.0
 10
85.337648
 20
43.194857
 30
0.0
 10
85.337648
 20
53.409065
 30
0.0
 10
94.794169
 20
43.194857
 30
0.0
 10
98.750498
 20
43.194857
 30
0.0
 10
98.750498
 20
62.225828
 30
0.0
 10
94.544087
 20
62.225828
 30
0.0
 10
94.544087
 20
50.201816
 30
0.0
 10
83.411998
 20
62.225828
 30
0.0
  0
SPLINE
  5
143
100
AcDbEntity
  8
Ebene_1
 62
7
100
AcDbSpline
 70
8
 71
3
 72
8
 73
4
 74
0
 40
0
 40
0
 40
0
 40
0
 40
1
 40
1
 40
1
 40
1
 10
118.443796
 20
43.194857
 30
0.0
 10
119.453170
 20
43.194857
 30
0.0
 10
120.364646
 20
43.601309
 30
0.0
 10
121.098016
 20
44.372596
 30
0.0
  0
SPLINE
  5
144
100
AcDbEntity
  8
Ebene_1
 62
7
100
AcDbSpline
 70
8
 71
3
 72
8
 73
4
 74
0
 40
0
 40
0
 40
0
 40
0
 40
1
 40
1
 40
1
 40
1
 10
121.098016
 20
44.372596
 30
0.0
 10
121.836017
 20
45.148754
 30
0.0
 10
122.223395
 20
46.152317
 30
0.0
 10
122.223395
 20
47.279098
 30
0.0
  0
LWPOLYLINE
  5
145
100
AcDbEntity
  8
Ebene_1
 62
7
100
AcDbPolyline
 90
4
 70
0
 10
101.249670
 20
62.225828
 30
0.0
 10
101.249670
 20
43.194857
 30
0.0
 10
101.676482
 20
43.194857
 30
0.0
 10
118.443796
 20
43.194857
 30
0.0
  0
LWPOLYLINE
  5
146
100
AcDbEntity
  8
Ebene_1
 62
7
100
AcDbPolyline
 90
5
 70
0
 10
122.223395
 20
47.279098
 30
0.0
 10
122.223395
 20
47.740110
 30
0.0
 10
105.457758
 20
47.740110
 30
0.0
 10
105.457758
 20
62.225828
 30
0.0
 10
101.249670
 20
62.225828
 30
0.0
  0
SPLINE
  5
147
100
AcDbEntity
  8
Ebene_1
 62
7
100
AcDbSpline
 70
8
 71
3
 72
8
 73
4
 74
0
 40
0
 40
0
 40
0
 40
0
 40
1
 40
1
 40
1
 40
1
 10
99.922046
 20
97.094030
 30
0.0
 10
99.730025
 20
98.106740
 30
0.0
 10
83.207151
 20
190.353220
 30
0.0
 10
83.207151
 20
190.412550
 30
0.0
  0
SPLINE
  5
148
100
AcDbEntity
  8
Ebene_1
 62
7
100
AcDbSpline
 70
8
 71
3
 72
8
 73
4
 74
0
 40
0
 40
0
 40
0
 40
0
 40
1
 40
1
 40
1
 40
1
 10
83.207151
 20
190.412550
 30
0.0
 10
83.207151
 20
190.496750
 30
0.0
 10
78.327003
 20
190.373450
 30
0.0
 10
75.873999
 20
190.227120
 30
0.0
  0
SPLINE
  5
149
100
AcDbEntity
  8
Ebene_1
 62
7
100
AcDbSpline
 70
8
 71
3
 72
8
 73
4
 74
0
 40
0
 40
0
 40
0
 40
0
 40
1
 40
1
 40
1
 40
1
 10
75.873999
 20
190.227120
 30
0.0
 10
68.573999
 20
189.791780
 30
0.0
 10
64.819407
 20
188.513420
 30
0.0
 10
63.004714
 20
185.845390
 30
0.0
  0
SPLINE
  5
14a
100
AcDbEntity
  8
Ebene_1
 62
7
100
AcDbSpline
 70
8
 71
3
 72
8
 73
4
 74
0
 40
0
 40
0
 40
0
 40
0
 40
1
 40
1
 40
1
 40
1
 10
63.004714
 20
185.845390
 30
0.0
 10
62.335645
 20
184.861710
 30
0.0
 10
62.056332
 20
184.160310
 30
0.0
 10
61.764315
 20
182.731000
 30
0.0
  0
SPLINE
  5
14b
100
AcDbEntity
  8
Ebene_1
 62
7
100
AcDbSpline
 70
8
 71
3
 72
8
 73
4
 74
0
 40
0
 40
0
 40
0
 40
0
 40
1
 40
1
 40
1
 40
1
 10
61.764315
 20
182.731000
 30
0.0
 10
61.645684
 20
182.150240
 30
0.0
 10
61.526973
 20
181.653450
 30
0.0
 10
61.500535
 20
181.627010
 30
0.0
  0
SPLINE
  5
14c
100
AcDbEntity
  8
Ebene_1
 62
7
100
AcDbSpline
 70
8
 71
3
 72
8
 73
4
 74
0
 40
0
 40
0
 40
0
 40
0
 40
1
 40
1
 40
1
 40
1
 10
61.500535
 20
181.627010
 30
0.0
 10
61.411675
 20
181.538110
 30
0.0
 10
58.377939
 20
182.979630
 30
0.0
 10
56.857951
 20
183.832980
 30
0.0
  0
SPLINE
  5
14d
100
AcDbEntity
  8
Ebene_1
 62
7
100
AcDbSpline
 70
8
 71
3
 72
8
 73
4
 74
0
 40
0
 40
0
 40
0
 40
0
 40
1
 40
1
 40
1
 40
1
 10
56.857951
 20
183.832980
 30
0.0
 10
52.311623
 20
186.385370
 30
0.0
 10
48.742395
 20
189.340630
 30
0.0
 10
46.314329
 20
192.562920
 30
0.0
  0
SPLINE
  5
14e
100
AcDbEntity
  8
Ebene_1
 62
7
100
AcDbSpline
 70
8
 71
3
 72
8
 73
4
 74
0
 40
0
 40
0
 40
0
 40
0
 40
1
 40
1
 40
1
 40
1
 10
46.314329
 20
192.562920
 30
0.0
 10
45.957611
 20
193.036320
 30
0.0
 10
45.665762
 20
193.462400
 30
0.0
 10
45.665762
 20
193.509750
 30
0.0
  0
SPLINE
  5
14f
100
AcDbEntity
  8
Ebene_1
 62
7
100
AcDbSpline
 70
8
 71
3
 72
8
 73
4
 74
0
 40
0
 40
0
 40
0
 40
0
 40
1
 40
1
 40
1
 40
1
 10
45.665762
 20
193.509750
 30
0.0
 10
45.665762
 20
193.557150
 30
0.0
 10
45.850459
 20
193.672310
 30
0.0
 10
46.076189
 20
193.765730
 30
0.0
  0
SPLINE
  5
150
100
AcDbEntity
  8
Ebene_1
 62
7
100
AcDbSpline
 70
8
 71
3
 72
8
 73
4
 74
0
 40
0
 40
0
 40
0
 40
0
 40
1
 40
1
 40
1
 40
1
 10
46.076189
 20
193.765730
 30
0.0
 10
46.301926
 20
193.859130
 30
0.0
 10
47.274678
 20
194.278410
 30
0.0
 10
48.237832
 20
194.697430
 30
0.0
  0
SPLINE
  5
151
100
AcDbEntity
  8
Ebene_1
 62
7
100
AcDbSpline
 70
8
 71
3
 72
8
 73
4
 74
0
 40
0
 40
0
 40
0
 40
0
 40
1
 40
1
 40
1
 40
1
 10
48.237832
 20
194.697430
 30
0.0
 10
59.273224
 20
199.498300
 30
0.0
 10
73.617589
 20
202.854020
 30
0.0
 10
86.490652
 20
203.646288
 30
0.0
  0
LWPOLYLINE
  5
152
100
AcDbEntity
  8
Ebene_1
 62
7
100
AcDbPolyline
 90
14
 70
1
 10
124.722566
 20
62.225828
 30
0.0
 10
124.722566
 20
57.952507
 30
0.0
 10
133.105389
 20
48.898030
 30
0.0
 10
133.105389
 20
43.194857
 30
0.0
 10
133.532200
 20
43.194857
 30
0.0
 10
137.311804
 20
43.194857
 30
0.0
 10
137.311804
 20
48.898030
 30
0.0
 10
145.694624
 20
57.952507
 30
0.0
 10
145.694624
 20
62.225828
 30
0.0
 10
141.488210
 20
62.225828
 30
0.0
 10
141.488210
 20
60.145893
 30
0.0
 10
135.209430
 20
53.362240
 30
0.0
 10
128.928984
 20
60.145893
 30
0.0
 10
128.928984
 20
62.225828
 30
0.0
  0
SPLINE
  5
153
100
AcDbEntity
  8
Ebene_1
 62
7
100
AcDbSpline
 70
8
 71
3
 72
8
 73
4
 74
0
 40
0
 40
0
 40
0
 40
0
 40
1
 40
1
 40
1
 40
1
 10
93.808383
 20
196.200460
 30
0.0
 10
97.201056
 20
192.066350
 30
0.0
 10
100.014436
 20
188.725310
 30
0.0
 10
100.060296
 20
188.775930
 30
0.0
  0
SPLINE
  5
154
100
AcDbEntity
  8
Ebene_1
 62
7
100
AcDbSpline
 70
8
 71
3
 72
8
 73
4
 74
0
 40
0
 40
0
 40
0
 40
0
 40
1
 40
1
 40
1
 40
1
 10
100.060296
 20
188.775930
 30
0.0
 10
100.106096
 20
188.826430
 30
0.0
 10
102.859748
 20
192.177800
 30
0.0
 10
106.179328
 20
196.223140
 30
0.0
  0
SPLINE
  5
155
100
AcDbEntity
  8
Ebene_1
 62
7
100
AcDbSpline
 70
8
 71
3
 72
8
 73
4
 74
0
 40
0
 40
0
 40
0
 40
0
 40
1
 40
1
 40
1
 40
1
 10
106.179328
 20
196.223140
 30
0.0
 10
109.498928
 20
200.268470
 30
0.0
 10
112.265668
 20
203.609630
 30
0.0
 10
112.327618
 20
203.647934
 30
0.0
  0
SPLINE
  5
156
100
AcDbEntity
  8
Ebene_1
 62
7
100
AcDbSpline
 70
8
 71
3
 72
8
 73
4
 74
0
 40
0
 40
0
 40
0
 40
0
 40
1
 40
1
 40
1
 40
1
 10
112.327618
 20
203.647934
 30
0.0
 10
112.456898
 20
203.727824
 30
0.0
 10
115.217678
 20
203.549764
 30
0.0
 10
117.629208
 20
203.306001
 30
0.0
  0
SPLINE
  5
157
100
AcDbEntity
  8
Ebene_1
 62
7
100
AcDbSpline
 70
8
 71
3
 72
8
 73
4
 74
0
 40
0
 40
0
 40
0
 40
0
 40
1
 40
1
 40
1
 40
1
 10
117.629208
 20
203.306001
 30
0.0
 10
127.799008
 20
202.278008
 30
0.0
 10
138.012998
 20
199.924720
 30
0.0
 10
147.290188
 20
196.472130
 30
0.0
  0
SPLINE
  5
158
100
AcDbEntity
  8
Ebene_1
 62
7
100
AcDbSpline
 70
8
 71
3
 72
8
 73
4
 74
0
 40
0
 40
0
 40
0
 40
0
 40
1
 40
1
 40
1
 40
1
 10
147.290188
 20
196.472130
 30
0.0
 10
149.479648
 20
195.657300
 30
0.0
 10
153.001508
 20
194.202970
 30
0.0
 10
153.920028
 20
193.734380
 30
0.0
  0
LWPOLYLINE
  5
159
100
AcDbEntity
  8
Ebene_1
 62
7
100
AcDbPolyline
 90
3
 70
0
 10
86.490652
 20
203.646288
 30
0.0
 10
87.639869
 20
203.717018
 30
0.0
 10
93.808383
 20
196.200460
 30
0.0
  0
SPLINE
  5
15a
100
AcDbEntity
  8
Ebene_1
 62
7
100
AcDbSpline
 70
8
 71
3
 72
8
 73
4
 74
0
 40
0
 40
0
 40
0
 40
0
 40
1
 40
1
 40
1
 40
1
 10
153.795628
 20
192.754440
 30
0.0
 10
151.644528
 20
189.796950
 30
0.0
 10
148.272268
 20
186.890570
 30
0.0
 10
144.096068
 20
184.394870
 30
0.0
  0
SPLINE
  5
15b
100
AcDbEntity
  8
Ebene_1
 62
7
100
AcDbSpline
 70
8
 71
3
 72
8
 73
4
 74
0
 40
0
 40
0
 40
0
 40
0
 40
1
 40
1
 40
1
 40
1
 10
144.096068
 20
184.394870
 30
0.0
 10
142.947528
 20
183.708500
 30
0.0
 10
139.145478
 20
181.800200
 30
0.0
 10
138.627078
 20
181.649890
 30
0.0
  0
SPLINE
  5
15c
100
AcDbEntity
  8
Ebene_1
 62
7
100
AcDbSpline
 70
8
 71
3
 72
8
 73
4
 74
0
 40
0
 40
0
 40
0
 40
0
 40
1
 40
1
 40
1
 40
1
 10
138.627078
 20
181.649890
 30
0.0
 10
138.413148
 20
181.587790
 30
0.0
 10
138.384468
 20
181.634390
 30
0.0
 10
138.313298
 20
182.160190
 30
0.0
  0
SPLINE
  5
15d
100
AcDbEntity
  8
Ebene_1
 62
7
100
AcDbSpline
 70
8
 71
3
 72
8
 73
4
 74
0
 40
0
 40
0
 40
0
 40
0
 40
1
 40
1
 40
1
 40
1
 10
138.313298
 20
182.160190
 30
0.0
 10
138.270198
 20
182.478400
 30
0.0
 10
138.114618
 20
183.156080
 30
0.0
 10
137.967528
 20
183.666140
 30
0.0
  0
SPLINE
  5
15e
100
AcDbEntity
  8
Ebene_1
 62
7
100
AcDbSpline
 70
8
 71
3
 72
8
 73
4
 74
0
 40
0
 40
0
 40
0
 40
0
 40
1
 40
1
 40
1
 40
1
 10
137.967528
 20
183.666140
 30
0.0
 10
136.809258
 20
187.682780
 30
0.0
 10
133.386978
 20
189.466350
 30
0.0
 10
125.564348
 20
190.130190
 30
0.0
  0
SPLINE
  5
15f
100
AcDbEntity
  8
Ebene_1
 62
7
100
AcDbSpline
 70
8
 71
3
 72
8
 73
4
 74
0
 40
0
 40
0
 40
0
 40
0
 40
1
 40
1
 40
1
 40
1
 10
125.564348
 20
190.130190
 30
0.0
 10
123.861048
 20
190.274730
 30
0.0
 10
116.777148
 20
190.460230
 30
0.0
 10
116.688148
 20
190.362620
 30
0.0
  0
SPLINE
  5
160
100
AcDbEntity
  8
Ebene_1
 62
7
100
AcDbSpline
 70
8
 71
3
 72
8
 73
4
 74
0
 40
0
 40
0
 40
0
 40
0
 40
1
 40
1
 40
1
 40
1
 10
116.688148
 20
190.362620
 30
0.0
 10
116.642648
 20
190.312720
 30
0.0
 10
102.967458
 20
113.599150
 30
0.0
 10
100.081386
 20
97.203470
 30
0.0
  0
LWPOLYLINE
  5
161
100
AcDbEntity
  8
Ebene_1
 62
7
100
AcDbPolyline
 90
3
 70
0
 10
153.920028
 20
193.734380
 30
0.0
 10
154.349138
 20
193.515460
 30
0.0
 10
153.795628
 20
192.754440
 30
0.0
  0
SPLINE
  5
162
100
AcDbEntity
  8
Ebene_1
 62
7
100
AcDbSpline
 70
8
 71
3
 72
8
 73
4
 74
0
 40
0
 40
0
 40
0
 40
0
 40
1
 40
1
 40
1
 40
1
 10
154.349728
 20
197.648190
 30
0.0
 10
141.277688
 20
203.161250
 30
0.0
 10
126.426308
 20
206.669403
 30
0.0
 10
111.609458
 20
207.744163
 30
0.0
  0
SPLINE
  5
163
100
AcDbEntity
  8
Ebene_1
 62
7
100
AcDbSpline
 70
8
 71
3
 72
8
 73
4
 74
0
 40
0
 40
0
 40
0
 40
0
 40
1
 40
1
 40
1
 40
1
 10
111.609458
 20
207.744163
 30
0.0
 10
106.849128
 20
208.089458
 30
0.0
 10
96.959553
 20
208.202535
 30
0.0
 10
92.170733
 20
207.966421
 30
0.0
  0
SPLINE
  5
164
100
AcDbEntity
  8
Ebene_1
 62
7
100
AcDbSpline
 70
8
 71
3
 72
8
 73
4
 74
0
 40
0
 40
0
 40
0
 40
0
 40
1
 40
1
 40
1
 40
1
 10
92.170733
 20
207.966421
 30
0.0
 10
75.575292
 20
207.148177
 30
0.0
 10
60.307173
 20
203.766127
 30
0.0
 10
45.633620
 20
197.657970
 30
0.0
  0
SPLINE
  5
165
100
AcDbEntity
  8
Ebene_1
 62
7
100
AcDbSpline
 70
8
 71
3
 72
8
 73
4
 74
0
 40
0
 40
0
 40
0
 40
0
 40
1
 40
1
 40
1
 40
1
 10
45.633620
 20
197.657970
 30
0.0
 10
44.622667
 20
197.237140
 30
0.0
 10
43.732598
 20
196.916990
 30
0.0
 10
43.655671
 20
196.946500
 30
0.0
  0
SPLINE
  5
166
100
AcDbEntity
  8
Ebene_1
 62
7
100
AcDbSpline
 70
8
 71
3
 72
8
 73
4
 74
0
 40
0
 40
0
 40
0
 40
0
 40
1
 40
1
 40
1
 40
1
 10
43.655671
 20
196.946500
 30
0.0
 10
43.578761
 20
196.976100
 30
0.0
 10
42.945812
 20
198.150210
 30
0.0
 10
42.249178
 20
199.555820
 30
0.0
  0
SPLINE
  5
167
100
AcDbEntity
  8
Ebene_1
 62
7
100
AcDbSpline
 70
8
 71
3
 72
8
 73
4
 74
0
 40
0
 40
0
 40
0
 40
0
 40
1
 40
1
 40
1
 40
1
 10
42.249178
 20
199.555820
 30
0.0
 10
40.945799
 20
202.185645
 30
0.0
 10
40.338397
 20
203.551776
 30
0.0
 10
40.431247
 20
203.644621
 30
0.0
  0
SPLINE
  5
168
100
AcDbEntity
  8
Ebene_1
 62
7
100
AcDbSpline
 70
8
 71
3
 72
8
 73
4
 74
0
 40
0
 40
0
 40
0
 40
0
 40
1
 40
1
 40
1
 40
1
 10
40.431247
 20
203.644621
 30
0.0
 10
40.526257
 20
203.739581
 30
0.0
 10
44.353023
 20
205.185300
 30
0.0
 10
46.596081
 20
205.973611
 30
0.0
  0
SPLINE
  5
169
100
AcDbEntity
  8
Ebene_1
 62
7
100
AcDbSpline
 70
8
 71
3
 72
8
 73
4
 74
0
 40
0
 40
0
 40
0
 40
0
 40
1
 40
1
 40
1
 40
1
 10
46.596081
 20
205.973611
 30
0.0
 10
67.623967
 20
213.363768
 30
0.0
 10
90.081181
 20
216.426255
 30
0.0
 10
111.335838
 20
214.802157
 30
0.0
  0
SPLINE
  5
16a
100
AcDbEntity
  8
Ebene_1
 62
7
100
AcDbSpline
 70
8
 71
3
 72
8
 73
4
 74
0
 40
0
 40
0
 40
0
 40
0
 40
1
 40
1
 40
1
 40
1
 10
111.335838
 20
214.802157
 30
0.0
 10
127.233028
 20
213.587426
 30
0.0
 10
142.215378
 20
210.234086
 30
0.0
 10
157.466398
 20
204.477234
 30
0.0
  0
SPLINE
  5
16b
100
AcDbEntity
  8
Ebene_1
 62
7
100
AcDbSpline
 70
8
 71
3
 72
8
 73
4
 74
0
 40
0
 40
0
 40
0
 40
0
 40
1
 40
1
 40
1
 40
1
 10
157.466398
 20
204.477234
 30
0.0
 10
158.601878
 20
204.048621
 30
0.0
 10
159.550428
 20
203.678425
 30
0.0
 10
159.574268
 20
203.654575
 30
0.0
  0
SPLINE
  5
16c
100
AcDbEntity
  8
Ebene_1
 62
7
100
AcDbSpline
 70
8
 71
3
 72
8
 73
4
 74
0
 40
0
 40
0
 40
0
 40
0
 40
1
 40
1
 40
1
 40
1
 10
159.574268
 20
203.654575
 30
0.0
 10
159.698938
 20
203.529912
 30
0.0
 10
156.649458
 20
197.163970
 30
0.0
 10
156.340478
 20
196.903850
 30
0.0
  0
SPLINE
  5
16d
100
AcDbEntity
  8
Ebene_1
 62
7
100
AcDbSpline
 70
8
 71
3
 72
8
 73
4
 74
0
 40
0
 40
0
 40
0
 40
0
 40
1
 40
1
 40
1
 40
1
 10
156.340478
 20
196.903850
 30
0.0
 10
156.299078
 20
196.868950
 30
0.0
 10
155.403168
 20
197.203900
 30
0.0
 10
154.349728
 20
197.648190
 30
0.0
  0
LWPOLYLINE
  5
16e
100
AcDbEntity
  8
Ebene_1
 62
7
100
AcDbPolyline
 90
3
 70
0
 10
100.081386
 20
97.203470
 30
0.0
 10
99.994686
 20
96.710940
 30
0.0
 10
99.922046
 20
97.094030
 30
0.0
  0
LWPOLYLINE
  5
16f
100
AcDbEntity
  8
Ebene_1
 62
7
100
AcDbPolyline
 90
1
 70
1
 10
154.349728
 20
197.648190
 30
0.0
  0
LWPOLYLINE
  5
170
100
AcDbEntity
  8
Ebene_1
 62
7
100
AcDbPolyline
 90
9
 70
1
 10
147.232790
 20
236.972657
 30
0.0
 10
147.232790
 20
224.680653
 30
0.0
 10
147.676370
 20
224.680653
 30
0.0
 10
151.921559
 20
224.680653
 30
0.0
 10
151.921559
 20
232.283883
 30
0.0
 10
166.240864
 20
232.283883
 30
0.0
 10
166.240864
 20
224.680653
 30
0.0
 10
170.929641
 20
224.680653
 30
0.0
 10
170.929641
 20
236.972657
 30
0.0
  0
SPLINE
  5
171
100
AcDbEntity
  8
Ebene_1
 62
7
100
AcDbSpline
 70
8
 71
3
 72
8
 73
4
 74
0
 40
0
 40
0
 40
0
 40
0
 40
1
 40
1
 40
1
 40
1
 10
147.232790
 20
244.132307
 30
0.0
 10
147.232790
 20
242.979667
 30
0.0
 10
147.651583
 20
241.947082
 30
0.0
 10
148.456103
 20
241.120818
 30
0.0
  0
LWPOLYLINE
  5
172
100
AcDbEntity
  8
Ebene_1
 62
7
100
AcDbPolyline
 90
2
 70
0
 10
147.232790
 20
244.575887
 30
0.0
 10
147.232790
 20
244.132307
 30
0.0
  0
SPLINE
  5
173
100
AcDbEntity
  8
Ebene_1
 62
7
100
AcDbSpline
 70
8
 71
3
 72
8
 73
4
 74
0
 40
0
 40
0
 40
0
 40
0
 40
1
 40
1
 40
1
 40
1
 10
148.461426
 20
241.117270
 30
0.0
 10
149.270337
 20
240.308363
 30
0.0
 10
150.307586
 20
239.887030
 30
0.0
 10
151.478112
 20
239.887030
 30
0.0
  0
LWPOLYLINE
  5
174
100
AcDbEntity
  8
Ebene_1
 62
7
100
AcDbPolyline
 90
3
 70
0
 10
148.456103
 20
241.120818
 30
0.0
 10
148.459652
 20
241.119044
 30
0.0
 10
148.461426
 20
241.117270
 30
0.0
  0
SPLINE
  5
175
100
AcDbEntity
  8
Ebene_1
 62
7
100
AcDbSpline
 70
8
 71
3
 72
8
 73
4
 74
0
 40
0
 40
0
 40
0
 40
0
 40
1
 40
1
 40
1
 40
1
 10
166.684577
 20
239.887030
 30
0.0
 10
167.819404
 20
239.887030
 30
0.0
 10
168.841739
 20
240.308908
 30
0.0
 10
169.666611
 20
241.112071
 30
0.0
  0
SPLINE
  5
176
100
AcDbEntity
  8
Ebene_1
 62
7
100
AcDbSpline
 70
8
 71
3
 72
8
 73
4
 74
0
 40
0
 40
0
 40
0
 40
0
 40
1
 40
1
 40
1
 40
1
 10
169.666611
 20
241.112071
 30
0.0
 10
170.496300
 20
241.919929
 30
0.0
 10
170.929774
 20
242.958957
 30
0.0
 10
170.929774
 20
244.132224
 30
0.0
  0
LWPOLYLINE
  5
177
100
AcDbEntity
  8
Ebene_1
 62
7
100
AcDbPolyline
 90
2
 70
0
 10
151.478112
 20
239.887030
 30
0.0
 10
166.684577
 20
239.887030
 30
0.0
  0
LWPOLYLINE
  5
178
100
AcDbEntity
  8
Ebene_1
 62
7
100
AcDbPolyline
 90
3
 70
0
 10
170.929774
 20
244.132224
 30
0.0
 10
170.929774
 20
244.575803
 30
0.0
 10
147.232790
 20
244.575887
 30
0.0
  0
SPLINE
  5
179
100
AcDbEntity
  8
Ebene_1
 62
7
100
AcDbSpline
 70
8
 71
3
 72
8
 73
4
 74
0
 40
0
 40
0
 40
0
 40
0
 40
1
 40
1
 40
1
 40
1
 10
29.070832
 20
244.132307
 30
0.0
 10
29.070832
 20
242.979667
 30
0.0
 10
29.491355
 20
241.947082
 30
0.0
 10
30.295875
 20
241.120818
 30
0.0
  0
LWPOLYLINE
  5
17a
100
AcDbEntity
  8
Ebene_1
 62
7
100
AcDbPolyline
 90
2
 70
0
 10
29.070832
 20
244.575887
 30
0.0
 10
29.070832
 20
244.132307
 30
0.0
  0
SPLINE
  5
17b
100
AcDbEntity
  8
Ebene_1
 62
7
100
AcDbSpline
 70
8
 71
3
 72
8
 73
4
 74
0
 40
0
 40
0
 40
0
 40
0
 40
1
 40
1
 40
1
 40
1
 10
30.299423
 20
241.117270
 30
0.0
 10
31.108335
 20
240.308362
 30
0.0
 10
32.145584
 20
239.887030
 30
0.0
 10
33.316110
 20
239.887030
 30
0.0
  0
LWPOLYLINE
  5
17c
100
AcDbEntity
  8
Ebene_1
 62
7
100
AcDbPolyline
 90
3
 70
0
 10
30.295875
 20
241.120818
 30
0.0
 10
30.297649
 20
241.119044
 30
0.0
 10
30.299423
 20
241.117270
 30
0.0
  0
SPLINE
  5
17d
100
AcDbEntity
  8
Ebene_1
 62
7
100
AcDbSpline
 70
8
 71
3
 72
8
 73
4
 74
0
 40
0
 40
0
 40
0
 40
0
 40
1
 40
1
 40
1
 40
1
 10
48.522574
 20
239.887113
 30
0.0
 10
49.657401
 20
239.887113
 30
0.0
 10
50.679737
 20
240.308992
 30
0.0
 10
51.504608
 20
241.112154
 30
0.0
  0
SPLINE
  5
17e
100
AcDbEntity
  8
Ebene_1
 62
7
100
AcDbSpline
 70
8
 71
3
 72
8
 73
4
 74
0
 40
0
 40
0
 40
0
 40
0
 40
1
 40
1
 40
1
 40
1
 10
51.504608
 20
241.112154
 30
0.0
 10
52.334297
 20
241.920011
 30
0.0
 10
52.767763
 20
242.959039
 30
0.0
 10
52.767763
 20
244.132307
 30
0.0
  0
LWPOLYLINE
  5
17f
100
AcDbEntity
  8
Ebene_1
 62
7
100
AcDbPolyline
 90
7
 70
0
 10
33.316110
 20
239.887030
 30
0.0
 10
38.574958
 20
239.887030
 30
0.0
 10
38.574958
 20
224.680653
 30
0.0
 10
39.018537
 20
224.680653
 30
0.0
 10
43.263726
 20
224.680653
 30
0.0
 10
43.263726
 20
239.887113
 30
0.0
 10
48.522574
 20
239.887113
 30
0.0
  0
LWPOLYLINE
  5
180
100
AcDbEntity
  8
Ebene_1
 62
7
100
AcDbPolyline
 90
3
 70
0
 10
52.767763
 20
244.132307
 30
0.0
 10
52.767763
 20
244.575887
 30
0.0
 10
29.070832
 20
244.575887
 30
0.0
  0
SPLINE
  5
181
100
AcDbEntity
  8
Ebene_1
 62
7
100
AcDbSpline
 70
8
 71
3
 72
8
 73
4
 74
0
 40
0
 40
0
 40
0
 40
0
 40
1
 40
1
 40
1
 40
1
 10
58.610459
 20
228.925847
 30
0.0
 10
58.610459
 20
227.773207
 30
0.0
 10
59.030981
 20
226.740622
 30
0.0
 10
59.835502
 20
225.914359
 30
0.0
  0
LWPOLYLINE
  5
182
100
AcDbEntity
  8
Ebene_1
 62
7
100
AcDbPolyline
 90
2
 70
0
 10
58.610459
 20
229.369427
 30
0.0
 10
58.610459
 20
228.925847
 30
0.0
  0
SPLINE
  5
183
100
AcDbEntity
  8
Ebene_1
 62
7
100
AcDbSpline
 70
8
 71
3
 72
8
 73
4
 74
0
 40
0
 40
0
 40
0
 40
0
 40
1
 40
1
 40
1
 40
1
 10
59.839050
 20
225.909124
 30
0.0
 10
60.647953
 20
225.100216
 30
0.0
 10
61.685201
 20
224.680617
 30
0.0
 10
62.855737
 20
224.680617
 30
0.0
  0
LWPOLYLINE
  5
184
100
AcDbEntity
  8
Ebene_1
 62
7
100
AcDbPolyline
 90
3
 70
0
 10
59.835502
 20
225.914359
 30
0.0
 10
59.837276
 20
225.912584
 30
0.0
 10
59.839050
 20
225.909124
 30
0.0
  0
SPLINE
  5
185
100
AcDbEntity
  8
Ebene_1
 62
7
100
AcDbSpline
 70
8
 71
3
 72
8
 73
4
 74
0
 40
0
 40
0
 40
0
 40
0
 40
1
 40
1
 40
1
 40
1
 10
78.062192
 20
224.680617
 30
0.0
 10
79.197019
 20
224.680617
 30
0.0
 10
80.221093
 20
225.102496
 30
0.0
 10
81.045956
 20
225.905658
 30
0.0
  0
SPLINE
  5
186
100
AcDbEntity
  8
Ebene_1
 62
7
100
AcDbSpline
 70
8
 71
3
 72
8
 73
4
 74
0
 40
0
 40
0
 40
0
 40
0
 40
1
 40
1
 40
1
 40
1
 10
81.045956
 20
225.905658
 30
0.0
 10
81.875654
 20
226.713515
 30
0.0
 10
82.307390
 20
227.752543
 30
0.0
 10
82.307390
 20
228.925811
 30
0.0
  0
LWPOLYLINE
  5
187
100
AcDbEntity
  8
Ebene_1
 62
7
100
AcDbPolyline
 90
2
 70
0
 10
62.855737
 20
224.680617
 30
0.0
 10
78.062192
 20
224.680617
 30
0.0
  0
LWPOLYLINE
  5
188
100
AcDbEntity
  8
Ebene_1
 62
7
100
AcDbPolyline
 90
3
 70
0
 10
82.307390
 20
228.925811
 30
0.0
 10
82.307390
 20
229.369391
 30
0.0
 10
58.610459
 20
229.369427
 30
0.0
  0
SPLINE
  5
189
100
AcDbEntity
  8
Ebene_1
 62
7
100
AcDbSpline
 70
8
 71
3
 72
8
 73
4
 74
0
 40
0
 40
0
 40
0
 40
0
 40
1
 40
1
 40
1
 40
1
 10
58.610459
 20
236.529078
 30
0.0
 10
58.610459
 20
235.376436
 30
0.0
 10
59.030981
 20
234.343852
 30
0.0
 10
59.835502
 20
233.517589
 30
0.0
  0
LWPOLYLINE
  5
18a
100
AcDbEntity
  8
Ebene_1
 62
7
100
AcDbPolyline
 90
2
 70
0
 10
58.610459
 20
236.972657
 30
0.0
 10
58.610459
 20
236.529078
 30
0.0
  0
SPLINE
  5
18b
100
AcDbEntity
  8
Ebene_1
 62
7
100
AcDbSpline
 70
8
 71
3
 72
8
 73
4
 74
0
 40
0
 40
0
 40
0
 40
0
 40
1
 40
1
 40
1
 40
1
 10
59.839050
 20
233.512355
 30
0.0
 10
60.647953
 20
232.703448
 30
0.0
 10
61.685201
 20
232.283847
 30
0.0
 10
62.855737
 20
232.283847
 30
0.0
  0
LWPOLYLINE
  5
18c
100
AcDbEntity
  8
Ebene_1
 62
7
100
AcDbPolyline
 90
3
 70
0
 10
59.835502
 20
233.517589
 30
0.0
 10
59.837276
 20
233.515815
 30
0.0
 10
59.839050
 20
233.512355
 30
0.0
  0
SPLINE
  5
18d
100
AcDbEntity
  8
Ebene_1
 62
7
100
AcDbSpline
 70
8
 71
3
 72
8
 73
4
 74
0
 40
0
 40
0
 40
0
 40
0
 40
1
 40
1
 40
1
 40
1
 10
78.062192
 20
232.283847
 30
0.0
 10
79.197019
 20
232.283847
 30
0.0
 10
80.221093
 20
232.705726
 30
0.0
 10
81.045956
 20
233.508889
 30
0.0
  0
SPLINE
  5
18e
100
AcDbEntity
  8
Ebene_1
 62
7
100
AcDbSpline
 70
8
 71
3
 72
8
 73
4
 74
0
 40
0
 40
0
 40
0
 40
0
 40
1
 40
1
 40
1
 40
1
 10
81.045956
 20
233.508889
 30
0.0
 10
81.875654
 20
234.316746
 30
0.0
 10
82.307390
 20
235.355774
 30
0.0
 10
82.307390
 20
236.529042
 30
0.0
  0
LWPOLYLINE
  5
18f
100
AcDbEntity
  8
Ebene_1
 62
7
100
AcDbPolyline
 90
2
 70
0
 10
62.855737
 20
232.283847
 30
0.0
 10
78.062192
 20
232.283847
 30
0.0
  0
LWPOLYLINE
  5
190
100
AcDbEntity
  8
Ebene_1
 62
7
100
AcDbPolyline
 90
3
 70
0
 10
82.307390
 20
236.529042
 30
0.0
 10
82.307390
 20
236.972622
 30
0.0
 10
58.610459
 20
236.972657
 30
0.0
  0
SPLINE
  5
191
100
AcDbEntity
  8
Ebene_1
 62
7
100
AcDbSpline
 70
8
 71
3
 72
8
 73
4
 74
0
 40
0
 40
0
 40
0
 40
0
 40
1
 40
1
 40
1
 40
1
 10
58.610459
 20
244.132307
 30
0.0
 10
58.610459
 20
242.979667
 30
0.0
 10
59.030981
 20
241.947082
 30
0.0
 10
59.835502
 20
241.120818
 30
0.0
  0
LWPOLYLINE
  5
192
100
AcDbEntity
  8
Ebene_1
 62
7
100
AcDbPolyline
 90
2
 70
0
 10
58.610459
 20
244.575887
 30
0.0
 10
58.610459
 20
244.132307
 30
0.0
  0
SPLINE
  5
193
100
AcDbEntity
  8
Ebene_1
 62
7
100
AcDbSpline
 70
8
 71
3
 72
8
 73
4
 74
0
 40
0
 40
0
 40
0
 40
0
 40
1
 40
1
 40
1
 40
1
 10
59.839050
 20
241.117270
 30
0.0
 10
60.647953
 20
240.308362
 30
0.0
 10
61.685201
 20
239.887030
 30
0.0
 10
62.855737
 20
239.887030
 30
0.0
  0
LWPOLYLINE
  5
194
100
AcDbEntity
  8
Ebene_1
 62
7
100
AcDbPolyline
 90
3
 70
0
 10
59.835502
 20
241.120818
 30
0.0
 10
59.837276
 20
241.119044
 30
0.0
 10
59.839050
 20
241.117270
 30
0.0
  0
SPLINE
  5
195
100
AcDbEntity
  8
Ebene_1
 62
7
100
AcDbSpline
 70
8
 71
3
 72
8
 73
4
 74
0
 40
0
 40
0
 40
0
 40
0
 40
1
 40
1
 40
1
 40
1
 10
78.062192
 20
239.887030
 30
0.0
 10
79.197019
 20
239.887030
 30
0.0
 10
80.221093
 20
240.308908
 30
0.0
 10
81.045956
 20
241.112071
 30
0.0
  0
SPLINE
  5
196
100
AcDbEntity
  8
Ebene_1
 62
7
100
AcDbSpline
 70
8
 71
3
 72
8
 73
4
 74
0
 40
0
 40
0
 40
0
 40
0
 40
1
 40
1
 40
1
 40
1
 10
81.045956
 20
241.112071
 30
0.0
 10
81.875654
 20
241.919928
 30
0.0
 10
82.307390
 20
242.958956
 30
0.0
 10
82.307390
 20
244.132224
 30
0.0
  0
LWPOLYLINE
  5
197
100
AcDbEntity
  8
Ebene_1
 62
7
100
AcDbPolyline
 90
2
 70
0
 10
62.855737
 20
239.887030
 30
0.0
 10
78.062192
 20
239.887030
 30
0.0
  0
LWPOLYLINE
  5
198
100
AcDbEntity
  8
Ebene_1
 62
7
100
AcDbPolyline
 90
3
 70
0
 10
82.307390
 20
244.132224
 30
0.0
 10
82.307390
 20
244.575803
 30
0.0
 10
58.610459
 20
244.575887
 30
0.0
  0
SPLINE
  5
199
100
AcDbEntity
  8
Ebene_1
 62
7
100
AcDbSpline
 70
8
 71
3
 72
8
 73
4
 74
0
 40
0
 40
0
 40
0
 40
0
 40
1
 40
1
 40
1
 40
1
 10
92.397005
 20
229.369427
 30
0.0
 10
91.241578
 20
229.369427
 30
0.0
 10
90.205642
 20
228.936788
 30
0.0
 10
89.380318
 20
228.111464
 30
0.0
  0
SPLINE
  5
19a
100
AcDbEntity
  8
Ebene_1
 62
7
100
AcDbSpline
 70
8
 71
3
 72
8
 73
4
 74
0
 40
0
 40
0
 40
0
 40
0
 40
1
 40
1
 40
1
 40
1
 10
89.380318
 20
228.111464
 30
0.0
 10
88.572826
 20
227.303968
 30
0.0
 10
88.151816
 20
226.276873
 30
0.0
 10
88.151816
 20
225.124233
 30
0.0
  0
LWPOLYLINE
  5
19b
100
AcDbEntity
  8
Ebene_1
 62
7
100
AcDbPolyline
 90
5
 70
0
 10
88.151816
 20
244.575887
 30
0.0
 10
88.151816
 20
232.283883
 30
0.0
 10
107.159889
 20
232.283883
 30
0.0
 10
107.159889
 20
229.369427
 30
0.0
 10
92.397005
 20
229.369427
 30
0.0
  0
SPLINE
  5
19c
100
AcDbEntity
  8
Ebene_1
 62
7
100
AcDbSpline
 70
8
 71
3
 72
8
 73
4
 74
0
 40
0
 40
0
 40
0
 40
0
 40
1
 40
1
 40
1
 40
1
 10
107.603469
 20
239.887113
 30
0.0
 10
108.738296
 20
239.887113
 30
0.0
 10
109.760632
 20
240.308992
 30
0.0
 10
110.585503
 20
241.112154
 30
0.0
  0
SPLINE
  5
19d
100
AcDbEntity
  8
Ebene_1
 62
7
100
AcDbSpline
 70
8
 71
3
 72
8
 73
4
 74
0
 40
0
 40
0
 40
0
 40
0
 40
1
 40
1
 40
1
 40
1
 10
110.585503
 20
241.112154
 30
0.0
 10
111.415192
 20
241.920012
 30
0.0
 10
111.848658
 20
242.959040
 30
0.0
 10
111.848658
 20
244.132307
 30
0.0
  0
LWPOLYLINE
  5
19e
100
AcDbEntity
  8
Ebene_1
 62
7
100
AcDbPolyline
 90
8
 70
0
 10
88.151816
 20
225.124233
 30
0.0
 10
88.151816
 20
224.680653
 30
0.0
 10
88.595395
 20
224.680653
 30
0.0
 10
111.848658
 20
224.680653
 30
0.0
 10
111.848658
 20
236.972657
 30
0.0
 10
92.840584
 20
236.972657
 30
0.0
 10
92.840584
 20
239.887113
 30
0.0
 10
107.603469
 20
239.887113
 30
0.0
  0
LWPOLYLINE
  5
19f
100
AcDbEntity
  8
Ebene_1
 62
7
100
AcDbPolyline
 90
3
 70
0
 10
111.848658
 20
244.132307
 30
0.0
 10
111.848658
 20
244.575887
 30
0.0
 10
88.151816
 20
244.575887
 30
0.0
  0
SPLINE
  5
1a0
100
AcDbEntity
  8
Ebene_1
 62
7
100
AcDbSpline
 70
8
 71
3
 72
8
 73
4
 74
0
 40
0
 40
0
 40
0
 40
0
 40
1
 40
1
 40
1
 40
1
 10
137.143087
 20
224.680653
 30
0.0
 10
138.277914
 20
224.680653
 30
0.0
 10
139.301988
 20
225.102532
 30
0.0
 10
140.126851
 20
225.905695
 30
0.0
  0
SPLINE
  5
1a1
100
AcDbEntity
  8
Ebene_1
 62
7
100
AcDbSpline
 70
8
 71
3
 72
8
 73
4
 74
0
 40
0
 40
0
 40
0
 40
0
 40
1
 40
1
 40
1
 40
1
 10
140.126851
 20
225.905695
 30
0.0
 10
140.956540
 20
226.713552
 30
0.0
 10
141.388285
 20
227.752581
 30
0.0
 10
141.388285
 20
228.925847
 30
0.0
  0
LWPOLYLINE
  5
1a2
100
AcDbEntity
  8
Ebene_1
 62
7
100
AcDbPolyline
 90
4
 70
0
 10
117.691434
 20
244.575887
 30
0.0
 10
117.691434
 20
224.680653
 30
0.0
 10
118.135013
 20
224.680653
 30
0.0
 10
137.143087
 20
224.680653
 30
0.0
  0
SPLINE
  5
1a3
100
AcDbEntity
  8
Ebene_1
 62
7
100
AcDbSpline
 70
8
 71
3
 72
8
 73
4
 74
0
 40
0
 40
0
 40
0
 40
0
 40
1
 40
1
 40
1
 40
1
 10
25.145835
 20
262.354165
 30
0.0
 10
25.145835
 20
261.691124
 30
0.0
 10
24.882443
 20
261.055239
 30
0.0
 10
24.413602
 20
260.586398
 30
0.0
  0
SPLINE
  5
1a4
100
AcDbEntity
  8
Ebene_1
 62
7
100
AcDbSpline
 70
8
 71
3
 72
8
 73
4
 74
0
 40
0
 40
0
 40
0
 40
0
 40
1
 40
1
 40
1
 40
1
 10
24.413602
 20
260.586398
 30
0.0
 10
23.944761
 20
260.117557
 30
0.0
 10
23.308876
 20
259.854165
 30
0.0
 10
22.645835
 20
259.854165
 30
0.0
  0
SPLINE
  5
1a5
100
AcDbEntity
  8
Ebene_1
 62
7
100
AcDbSpline
 70
8
 71
3
 72
8
 73
4
 74
0
 40
0
 40
0
 40
0
 40
0
 40
1
 40
1
 40
1
 40
1
 10
22.645835
 20
259.854165
 30
0.0
 10
21.982794
 20
259.854165
 30
0.0
 10
21.346909
 20
260.117557
 30
0.0
 10
20.878068
 20
260.586398
 30
0.0
  0
SPLINE
  5
1a6
100
AcDbEntity
  8
Ebene_1
 62
7
100
AcDbSpline
 70
8
 71
3
 72
8
 73
4
 74
0
 40
0
 40
0
 40
0
 40
0
 40
1
 40
1
 40
1
 40
1
 10
20.878068
 20
260.586398
 30
0.0
 10
20.409227
 20
261.055239
 30
0.0
 10
20.145835
 20
261.691124
 30
0.0
 10
20.145835
 20
262.354165
 30
0.0
  0
SPLINE
  5
1a7
100
AcDbEntity
  8
Ebene_1
 62
7
100
AcDbSpline
 70
8
 71
3
 72
8
 73
4
 74
0
 40
0
 40
0
 40
0
 40
0
 40
1
 40
1
 40
1
 40
1
 10
20.145835
 20
262.354165
 30
0.0
 10
20.145835
 20
263.017206
 30
0.0
 10
20.409227
 20
263.653091
 30
0.0
 10
20.878068
 20
264.121932
 30
0.0
  0
SPLINE
  5
1a8
100
AcDbEntity
  8
Ebene_1
 62
7
100
AcDbSpline
 70
8
 71
3
 72
8
 73
4
 74
0
 40
0
 40
0
 40
0
 40
0
 40
1
 40
1
 40
1
 40
1
 10
20.878068
 20
264.121932
 30
0.0
 10
21.346909
 20
264.590773
 30
0.0
 10
21.982794
 20
264.854165
 30
0.0
 10
22.645835
 20
264.854165
 30
0.0
  0
SPLINE
  5
1a9
100
AcDbEntity
  8
Ebene_1
 62
7
100
AcDbSpline
 70
8
 71
3
 72
8
 73
4
 74
0
 40
0
 40
0
 40
0
 40
0
 40
1
 40
1
 40
1
 40
1
 10
22.645835
 20
264.854165
 30
0.0
 10
23.308876
 20
264.854165
 30
0.0
 10
23.944761
 20
264.590773
 30
0.0
 10
24.413602
 20
264.121932
 30
0.0
  0
SPLINE
  5
1aa
100
AcDbEntity
  8
Ebene_1
 62
7
100
AcDbSpline
 70
8
 71
3
 72
8
 73
4
 74
0
 40
0
 40
0
 40
0
 40
0
 40
1
 40
1
 40
1
 40
1
 10
24.413602
 20
264.121932
 30
0.0
 10
24.882443
 20
263.653091
 30
0.0
 10
25.145835
 20
263.017206
 30
0.0
 10
25.145835
 20
262.354165
 30
0.0
  0
SPLINE
  5
1ab
100
AcDbEntity
  8
Ebene_1
 62
7
100
AcDbSpline
 70
8
 71
3
 72
8
 73
4
 74
0
 40
0
 40
0
 40
0
 40
0
 40
1
 40
1
 40
1
 40
1
 10
179.854150
 20
262.354165
 30
0.0
 10
179.854150
 20
261.691124
 30
0.0
 10
179.590758
 20
261.055239
 30
0.0
 10
179.121917
 20
260.586398
 30
0.0
  0
SPLINE
  5
1ac
100
AcDbEntity
  8
Ebene_1
 62
7
100
AcDbSpline
 70
8
 71
3
 72
8
 73
4
 74
0
 40
0
 40
0
 40
0
 40
0
 40
1
 40
1
 40
1
 40
1
 10
179.121917
 20
260.586398
 30
0.0
 10
178.653076
 20
260.117557
 30
0.0
 10
178.017191
 20
259.854165
 30
0.0
 10
177.354150
 20
259.854165
 30
0.0
  0
SPLINE
  5
1ad
100
AcDbEntity
  8
Ebene_1
 62
7
100
AcDbSpline
 70
8
 71
3
 72
8
 73
4
 74
0
 40
0
 40
0
 40
0
 40
0
 40
1
 40
1
 40
1
 40
1
 10
177.354150
 20
259.854165
 30
0.0
 10
176.691109
 20
259.854165
 30
0.0
 10
176.055224
 20
260.117557
 30
0.0
 10
175.586383
 20
260.586398
 30
0.0
  0
SPLINE
  5
1ae
100
AcDbEntity
  8
Ebene_1
 62
7
100
AcDbSpline
 70
8
 71
3
 72
8
 73
4
 74
0
 40
0
 40
0
 40
0
 40
0
 40
1
 40
1
 40
1
 40
1
 10
175.586383
 20
260.586398
 30
0.0
 10
175.117542
 20
261.055239
 30
0.0
 10
174.854150
 20
261.691124
 30
0.0
 10
174.854150
 20
262.354165
 30
0.0
  0
SPLINE
  5
1af
100
AcDbEntity
  8
Ebene_1
 62
7
100
AcDbSpline
 70
8
 71
3
 72
8
 73
4
 74
0
 40
0
 40
0
 40
0
 40
0
 40
1
 40
1
 40
1
 40
1
 10
174.854150
 20
262.354165
 30
0.0
 10
174.854150
 20
263.017206
 30
0.0
 10
175.117542
 20
263.653091
 30
0.0
 10
175.586383
 20
264.121932
 30
0.0
  0
SPLINE
  5
1b0
100
AcDbEntity
  8
Ebene_1
 62
7
100
AcDbSpline
 70
8
 71
3
 72
8
 73
4
 74
0
 40
0
 40
0
 40
0
 40
0
 40
1
 40
1
 40
1
 40
1
 10
175.586383
 20
264.121932
 30
0.0
 10
176.055224
 20
264.590773
 30
0.0
 10
176.691109
 20
264.854165
 30
0.0
 10
177.354150
 20
264.854165
 30
0.0
  0
SPLINE
  5
1b1
100
AcDbEntity
  8
Ebene_1
 62
7
100
AcDbSpline
 70
8
 71
3
 72
8
 73
4
 74
0
 40
0
 40
0
 40
0
 40
0
 40
1
 40
1
 40
1
 40
1
 10
177.354150
 20
264.854165
 30
0.0
 10
178.017191
 20
264.854165
 30
0.0
 10
178.653076
 20
264.590773
 30
0.0
 10
179.121917
 20
264.121932
 30
0.0
  0
SPLINE
  5
1b2
100
AcDbEntity
  8
Ebene_1
 62
7
100
AcDbSpline
 70
8
 71
3
 72
8
 73
4
 74
0
 40
0
 40
0
 40
0
 40
0
 40
1
 40
1
 40
1
 40
1
 10
179.121917
 20
264.121932
 30
0.0
 10
179.590758
 20
263.653091
 30
0.0
 10
179.854150
 20
263.017206
 30
0.0
 10
179.854150
 20
262.354165
 30
0.0
  0
SPLINE
  5
1b3
100
AcDbEntity
  8
Ebene_1
 62
7
100
AcDbSpline
 70
8
 71
3
 72
8
 73
4
 74
0
 40
0
 40
0
 40
0
 40
0
 40
1
 40
1
 40
1
 40
1
 10
25.145835
 20
32.645850
 30
0.0
 10
25.145835
 20
31.982809
 30
0.0
 10
24.882443
 20
31.346924
 30
0.0
 10
24.413602
 20
30.878083
 30
0.0
  0
SPLINE
  5
1b4
100
AcDbEntity
  8
Ebene_1
 62
7
100
AcDbSpline
 70
8
 71
3
 72
8
 73
4
 74
0
 40
0
 40
0
 40
0
 40
0
 40
1
 40
1
 40
1
 40
1
 10
24.413602
 20
30.878083
 30
0.0
 10
23.944761
 20
30.409242
 30
0.0
 10
23.308876
 20
30.145850
 30
0.0
 10
22.645835
 20
30.145850
 30
0.0
  0
SPLINE
  5
1b5
100
AcDbEntity
  8
Ebene_1
 62
7
100
AcDbSpline
 70
8
 71
3
 72
8
 73
4
 74
0
 40
0
 40
0
 40
0
 40
0
 40
1
 40
1
 40
1
 40
1
 10
22.645835
 20
30.145850
 30
0.0
 10
21.982794
 20
30.145850
 30
0.0
 10
21.346909
 20
30.409242
 30
0.0
 10
20.878068
 20
30.878083
 30
0.0
  0
SPLINE
  5
1b6
100
AcDbEntity
  8
Ebene_1
 62
7
100
AcDbSpline
 70
8
 71
3
 72
8
 73
4
 74
0
 40
0
 40
0
 40
0
 40
0
 40
1
 40
1
 40
1
 40
1
 10
20.878068
 20
30.878083
 30
0.0
 10
20.409227
 20
31.346924
 30
0.0
 10
20.145835
 20
31.982809
 30
0.0
 10
20.145835
 20
32.645850
 30
0.0
  0
SPLINE
  5
1b7
100
AcDbEntity
  8
Ebene_1
 62
7
100
AcDbSpline
 70
8
 71
3
 72
8
 73
4
 74
0
 40
0
 40
0
 40
0
 40
0
 40
1
 40
1
 40
1
 40
1
 10
20.145835
 20
32.645850
 30
0.0
 10
20.145835
 20
33.308891
 30
0.0
 10
20.409227
 20
33.944776
 30
0.0
 10
20.878068
 20
34.413617
 30
0.0
  0
SPLINE
  5
1b8
100
AcDbEntity
  8
Ebene_1
 62
7
100
AcDbSpline
 70
8
 71
3
 72
8
 73
4
 74
0
 40
0
 40
0
 40
0
 40
0
 40
1
 40
1
 40
1
 40
1
 10
20.878068
 20
34.413617
 30
0.0
 10
21.346909
 20
34.882458
 30
0.0
 10
21.982794
 20
35.145850
 30
0.0
 10
22.645835
 20
35.145850
 30
0.0
  0
SPLINE
  5
1b9
100
AcDbEntity
  8
Ebene_1
 62
7
100
AcDbSpline
 70
8
 71
3
 72
8
 73
4
 74
0
 40
0
 40
0
 40
0
 40
0
 40
1
 40
1
 40
1
 40
1
 10
22.645835
 20
35.145850
 30
0.0
 10
23.308876
 20
35.145850
 30
0.0
 10
23.944761
 20
34.882458
 30
0.0
 10
24.413602
 20
34.413617
 30
0.0
  0
SPLINE
  5
1ba
100
AcDbEntity
  8
Ebene_1
 62
7
100
AcDbSpline
 70
8
 71
3
 72
8
 73
4
 74
0
 40
0
 40
0
 40
0
 40
0
 40
1
 40
1
 40
1
 40
1
 10
24.413602
 20
34.413617
 30
0.0
 10
24.882443
 20
33.944776
 30
0.0
 10
25.145835
 20
33.308891
 30
0.0
 10
25.145835
 20
32.645850
 30
0.0
  0
SPLINE
  5
1bb
100
AcDbEntity
  8
Ebene_1
 62
7
100
AcDbSpline
 70
8
 71
3
 72
8
 73
4
 74
0
 40
0
 40
0
 40
0
 40
0
 40
1
 40
1
 40
1
 40
1
 10
179.854150
 20
32.645850
 30
0.0
 10
179.854150
 20
31.982809
 30
0.0
 10
179.590758
 20
31.346924
 30
0.0
 10
179.121917
 20
30.878083
 30
0.0
  0
SPLINE
  5
1bc
100
AcDbEntity
  8
Ebene_1
 62
7
100
AcDbSpline
 70
8
 71
3
 72
8
 73
4
 74
0
 40
0
 40
0
 40
0
 40
0
 40
1
 40
1
 40
1
 40
1
 10
179.121917
 20
30.878083
 30
0.0
 10
178.653076
 20
30.409242
 30
0.0
 10
178.017191
 20
30.145850
 30
0.0
 10
177.354150
 20
30.145850
 30
0.0
  0
SPLINE
  5
1bd
100
AcDbEntity
  8
Ebene_1
 62
7
100
AcDbSpline
 70
8
 71
3
 72
8
 73
4
 74
0
 40
0
 40
0
 40
0
 40
0
 40
1
 40
1
 40
1
 40
1
 10
177.354150
 20
30.145850
 30
0.0
 10
176.691109
 20
30.145850
 30
0.0
 10
176.055224
 20
30.409242
 30
0.0
 10
175.586383
 20
30.878083
 30
0.0
  0
SPLINE
  5
1be
100
AcDbEntity
  8
Ebene_1
 62
7
100
AcDbSpline
 70
8
 71
3
 72
8
 73
4
 74
0
 40
0
 40
0
 40
0
 40
0
 40
1
 40
1
 40
1
 40
1
 10
175.586383
 20
30.878083
 30
0.0
 10
175.117542
 20
31.346924
 30
0.0
 10
174.854150
 20
31.982809
 30
0.0
 10
174.854150
 20
32.645850
 30
0.0
  0
SPLINE
  5
1bf
100
AcDbEntity
  8
Ebene_1
 62
7
100
AcDbSpline
 70
8
 71
3
 72
8
 73
4
 74
0
 40
0
 40
0
 40
0
 40
0
 40
1
 40
1
 40
1
 40
1
 10
174.854150
 20
32.645850
 30
0.0
 10
174.854150
 20
33.308891
 30
0.0
 10
175.117542
 20
33.944776
 30
0.0
 10
175.586383
 20
34.413617
 30
0.0
  0
SPLINE
  5
1c0
100
AcDbEntity
  8
Ebene_1
 62
7
100
AcDbSpline
 70
8
 71
3
 72
8
 73
4
 74
0
 40
0
 40
0
 40
0
 40
0
 40
1
 40
1
 40
1
 40
1
 10
175.586383
 20
34.413617
 30
0.0
 10
176.055224
 20
34.882458
 30
0.0
 10
176.691109
 20
35.145850
 30
0.0
 10
177.354150
 20
35.145850
 30
0.0
  0
SPLINE
  5
1c1
100
AcDbEntity
  8
Ebene_1
 62
7
100
AcDbSpline
 70
8
 71
3
 72
8
 73
4
 74
0
 40
0
 40
0
 40
0
 40
0
 40
1
 40
1
 40
1
 40
1
 10
177.354150
 20
35.145850
 30
0.0
 10
178.017191
 20
35.145850
 30
0.0
 10
178.653076
 20
34.882458
 30
0.0
 10
179.121917
 20
34.413617
 30
0.0
  0
SPLINE
  5
1c2
100
AcDbEntity
  8
Ebene_1
 62
7
100
AcDbSpline
 70
8
 71
3
 72
8
 73
4
 74
0
 40
0
 40
0
 40
0
 40
0
 40
1
 40
1
 40
1
 40
1
 10
179.121917
 20
34.413617
 30
0.0
 10
179.590758
 20
33.944776
 30
0.0
 10
179.854150
 20
33.308891
 30
0.0
 10
179.854150
 20
32.645850
 30
0.0
  0
LWPOLYLINE
  5
1c3
100
AcDbEntity
  8
Ebene_1
 62
7
100
AcDbPolyline
 90
5
 70
0
 10
141.388285
 20
228.925847
 30
0.0
 10
141.388285
 20
229.369427
 30
0.0
 10
122.380211
 20
229.369427
 30
0.0
 10
122.380211
 20
244.575887
 30
0.0
 10
117.691434
 20
244.575887
 30
0.0
  0
SPLINE
  5
1c4
100
AcDbEntity
  8
Ebene_1
 62
7
100
AcDbSpline
 70
8
 71
3
 72
8
 73
4
 74
0
 40
0
 40
0
 40
0
 40
0
 40
1
 40
1
 40
1
 40
1
 10
32.000113
 20
265.000070
 30
0.0
 10
32.000166
 20
258.337045
 30
0.0
 10
26.662837
 20
252.999716
 30
0.0
 10
19.999813
 20
252.999769
 30
0.0
  0
LWPOLYLINE
  5
1c5
100
AcDbEntity
  8
Ebene_1
 62
7
100
AcDbPolyline
 90
2
 70
0
 10
32.000113
 20
267.999887
 30
0.0
 10
32.000113
 20
265.000070
 30
0.0
  0
SPLINE
  5
1c6
100
AcDbEntity
  8
Ebene_1
 62
7
100
AcDbSpline
 70
8
 71
3
 72
8
 73
4
 74
0
 40
0
 40
0
 40
0
 40
0
 40
1
 40
1
 40
1
 40
1
 10
19.999813
 20
42.000247
 30
0.0
 10
26.662843
 20
42.000300
 30
0.0
 10
32.000171
 20
36.662977
 30
0.0
 10
32.000113
 20
29.999935
 30
0.0
  0
LWPOLYLINE
  5
1c7
100
AcDbEntity
  8
Ebene_1
 62
7
100
AcDbPolyline
 90
4
 70
0
 10
19.999813
 20
252.999769
 30
0.0
 10
16.999996
 20
252.999769
 30
0.0
 10
16.999996
 20
42.000247
 30
0.0
 10
19.999813
 20
42.000247
 30
0.0
  0
SPLINE
  5
1c8
100
AcDbEntity
  8
Ebene_1
 62
7
100
AcDbSpline
 70
8
 71
3
 72
8
 73
4
 74
0
 40
0
 40
0
 40
0
 40
0
 40
1
 40
1
 40
1
 40
1
 10
167.999561
 20
29.999935
 30
0.0
 10
167.999506
 20
36.662977
 30
0.0
 10
173.336834
 20
42.000300
 30
0.0
 10
179.999863
 20
42.000247
 30
0.0
  0
LWPOLYLINE
  5
1c9
100
AcDbEntity
  8
Ebene_1
 62
7
100
AcDbPolyline
 90
4
 70
0
 10
32.000113
 20
29.999935
 30
0.0
 10
32.000113
 20
27.000142
 30
0.0
 10
167.999561
 20
27.000142
 30
0.0
 10
167.999561
 20
29.999935
 30
0.0
  0
SPLINE
  5
1ca
100
AcDbEntity
  8
Ebene_1
 62
7
100
AcDbSpline
 70
8
 71
3
 72
8
 73
4
 74
0
 40
0
 40
0
 40
0
 40
0
 40
1
 40
1
 40
1
 40
1
 10
179.999863
 20
252.999769
 30
0.0
 10
173.336837
 20
252.999716
 30
0.0
 10
167.999508
 20
258.337042
 30
0.0
 10
167.999561
 20
265.000070
 30
0.0
  0
LWPOLYLINE
  5
1cb
100
AcDbEntity
  8
Ebene_1
 62
7
100
AcDbPolyline
 90
4
 70
0
 10
179.999863
 20
42.000247
 30
0.0
 10
182.999679
 20
42.000247
 30
0.0
 10
182.999679
 20
252.999769
 30
0.0
 10
179.999863
 20
252.999769
 30
0.0
  0
LWPOLYLINE
  5
1cc
100
AcDbEntity
  8
Ebene_1
 62
7
100
AcDbPolyline
 90
4
 70
0
 10
167.999561
 20
265.000070
 30
0.0
 10
167.999561
 20
267.999887
 30
0.0
 10
32.000113
 20
267.999887
 30
0.0
 10
32.000113
 20
267.999887
 30
0.0
  0
SPLINE
  5
1cd
100
AcDbEntity
  8
Ebene_1
 62
7
100
AcDbSpline
 70
8
 71
3
 72
8
 73
4
 74
0
 40
0
 40
0
 40
0
 40
0
 40
1
 40
1
 40
1
 40
1
 10
162.271748
 20
262.000254
 30
0.0
 10
163.545759
 20
254.492297
 30
0.0
 10
169.492092
 20
248.545964
 30
0.0
 10
177.000046
 20
247.271953
 30
0.0
  0
LWPOLYLINE
  5
1ce
100
AcDbEntity
  8
Ebene_1
 62
7
100
AcDbPolyline
 90
2
 70
0
 10
37.727929
 20
262.000254
 30
0.0
 10
162.271748
 20
262.000254
 30
0.0
  0
SPLINE
  5
1cf
100
AcDbEntity
  8
Ebene_1
 62
7
100
AcDbSpline
 70
8
 71
3
 72
8
 73
4
 74
0
 40
0
 40
0
 40
0
 40
0
 40
1
 40
1
 40
1
 40
1
 10
177.000046
 20
47.728063
 30
0.0
 10
169.492089
 20
46.454052
 30
0.0
 10
163.545753
 20
40.507722
 30
0.0
 10
162.271748
 20
32.999754
 30
0.0
  0
LWPOLYLINE
  5
1d0
100
AcDbEntity
  8
Ebene_1
 62
7
100
AcDbPolyline
 90
2
 70
0
 10
177.000046
 20
247.271953
 30
0.0
 10
177.000046
 20
47.728063
 30
0.0
  0
SPLINE
  5
1d1
100
AcDbEntity
  8
Ebene_1
 62
7
100
AcDbSpline
 70
8
 71
3
 72
8
 73
4
 74
0
 40
0
 40
0
 40
0
 40
0
 40
1
 40
1
 40
1
 40
1
 10
37.727929
 20
32.999754
 30
0.0
 10
36.453923
 20
40.507722
 30
0.0
 10
30.507588
 20
46.454049
 30
0.0
 10
22.999629
 20
47.728063
 30
0.0
  0
LWPOLYLINE
  5
1d2
100
AcDbEntity
  8
Ebene_1
 62
7
100
AcDbPolyline
 90
2
 70
0
 10
162.271748
 20
32.999754
 30
0.0
 10
37.727929
 20
32.999754
 30
0.0
  0
SPLINE
  5
1d3
100
AcDbEntity
  8
Ebene_1
 62
7
100
AcDbSpline
 70
8
 71
3
 72
8
 73
4
 74
0
 40
0
 40
0
 40
0
 40
0
 40
1
 40
1
 40
1
 40
1
 10
22.999629
 20
247.271953
 30
0.0
 10
30.507585
 20
248.545964
 30
0.0
 10
36.453918
 20
254.492297
 30
0.0
 10
37.727929
 20
262.000254
 30
0.0
  0
LWPOLYLINE
  5
1d4
100
AcDbEntity
  8
Ebene_1
 62
7
100
AcDbPolyline
 90
2
 70
0
 10
22.999629
 20
47.728063
 30
0.0
 10
22.999629
 20
247.271953
 30
0.0
  0
LWPOLYLINE
  5
1d5
100
AcDbEntity
  8
Ebene_1
 62
7
100
AcDbPolyline
 90
1
 70
1
 10
37.727929
 20
262.000254
 30
0.0
  0
SPLINE
  5
1d6
100
AcDbEntity
  8
Ebene_1
 62
7
100
AcDbSpline
 70
8
 71
3
 72
8
 73
4
 74
0
 40
0
 40
0
 40
0
 40
0
 40
1
 40
1
 40
1
 40
1
 10
181.000000
 20
271.000000
 30
0.0
 10
183.770000
 20
271.000000
 30
0.0
 10
186.000000
 20
268.770000
 30
0.0
 10
186.000000
 20
266.000000
 30
0.0
  0
LWPOLYLINE
  5
1d7
100
AcDbEntity
  8
Ebene_1
 62
7
100
AcDbPolyline
 90
2
 70
0
 10
19.000000
 20
271.000000
 30
0.0
 10
181.000000
 20
271.000000
 30
0.0
  0
SPLINE
  5
1d8
100
AcDbEntity
  8
Ebene_1
 62
7
100
AcDbSpline
 70
8
 71
3
 72
8
 73
4
 74
0
 40
0
 40
0
 40
0
 40
0
 40
1
 40
1
 40
1
 40
1
 10
186.000000
 20
29.000000
 30
0.0
 10
186.000000
 20
26.230000
 30
0.0
 10
183.770000
 20
24.000000
 30
0.0
 10
181.000000
 20
24.000000
 30
0.0
  0
LWPOLYLINE
  5
1d9
100
AcDbEntity
  8
Ebene_1
 62
7
100
AcDbPolyline
 90
2
 70
0
 10
186.000000
 20
266.000000
 30
0.0
 10
186.000000
 20
29.000000
 30
0.0
  0
SPLINE
  5
1da
100
AcDbEntity
  8
Ebene_1
 62
7
100
AcDbSpline
 70
8
 71
3
 72
8
 73
4
 74
0
 40
0
 40
0
 40
0
 40
0
 40
1
 40
1
 40
1
 40
1
 10
19.000000
 20
24.000000
 30
0.0
 10
16.230000
 20
24.000000
 30
0.0
 10
14.000000
 20
26.230000
 30
0.0
 10
14.000000
 20
29.000000
 30
0.0
  0
LWPOLYLINE
  5
1db
100
AcDbEntity
  8
Ebene_1
 62
7
100
AcDbPolyline
 90
2
 70
0
 10
181.000000
 20
24.000000
 30
0.0
 10
19.000000
 20
24.000000
 30
0.0
  0
SPLINE
  5
1dc
100
AcDbEntity
  8
Ebene_1
 62
7
100
AcDbSpline
 70
8
 71
3
 72
8
 73
4
 74
0
 40
0
 40
0
 40
0
 40
0
 40
1
 40
1
 40
1
 40
1
 10
14.000000
 20
266.000000
 30
0.0
 10
14.000000
 20
268.770000
 30
0.0
 10
16.230000
 20
271.000000
 30
0.0
 10
19.000000
 20
271.000000
 30
0.0
  0
LWPOLYLINE
  5
1dd
100
AcDbEntity
  8
Ebene_1
 62
7
100
AcDbPolyline
 90
2
 70
0
 10
14.000000
 20
29.000000
 30
0.0
 10
14.000000
 20
266.000000
 30
0.0
  0
LWPOLYLINE
  5
1de
100
AcDbEntity
  8
Ebene_1
 62
7
100
AcDbPolyline
 90
1
 70
1
 10
19.000000
 20
271.000000
 30
0.0
  0
SPLINE
  5
1df
100
AcDbEntity
  8
Ebene_1
 62
7
100
AcDbSpline
 70
8
 71
3
 72
8
 73
4
 74
0
 40
0
 40
0
 40
0
 40
0
 40
1
 40
1
 40
1
 40
1
 10
331.548279
 20
73.471890
 30
0.0
 10
331.548279
 20
72.364831
 30
0.0
 10
331.923267
 20
71.367966
 30
0.0
 10
332.638646
 20
70.574385
 30
0.0
  0
LWPOLYLINE
  5
1e0
100
AcDbEntity
  8
Ebene_1
 62
7
100
AcDbPolyline
 90
2
 70
0
 10
331.548279
 20
81.175766
 30
0.0
 10
331.548279
 20
73.471890
 30
0.0
  0
SPLINE
  5
1e1
100
AcDbEntity
  8
Ebene_1
 62
7
100
AcDbSpline
 70
8
 71
3
 72
8
 73
4
 74
0
 40
0
 40
0
 40
0
 40
0
 40
1
 40
1
 40
1
 40
1
 10
332.642017
 20
70.570836
 30
0.0
 10
333.361617
 20
69.793578
 30
0.0
 10
334.287355
 20
69.387703
 30
0.0
 10
335.327921
 20
69.387703
 30
0.0
  0
LWPOLYLINE
  5
1e2
100
AcDbEntity
  8
Ebene_1
 62
7
100
AcDbPolyline
 90
3
 70
0
 10
332.638646
 20
70.574385
 30
0.0
 10
332.640332
 20
70.572610
 30
0.0
 10
332.642017
 20
70.570836
 30
0.0
  0
SPLINE
  5
1e3
100
AcDbEntity
  8
Ebene_1
 62
7
100
AcDbSpline
 70
8
 71
3
 72
8
 73
4
 74
0
 40
0
 40
0
 40
0
 40
0
 40
1
 40
1
 40
1
 40
1
 10
338.253906
 20
80.714807
 30
0.0
 10
338.253906
 20
79.607739
 30
0.0
 10
338.628895
 20
78.612684
 30
0.0
 10
339.344272
 20
77.819103
 30
0.0
  0
LWPOLYLINE
  5
1e4
100
AcDbEntity
  8
Ebene_1
 62
7
100
AcDbPolyline
 90
5
 70
0
 10
335.327921
 20
69.387703
 30
0.0
 10
352.520372
 20
69.387703
 30
0.0
 10
352.520372
 20
81.175811
 30
0.0
 10
338.253906
 20
81.175811
 30
0.0
 10
338.253906
 20
80.714807
 30
0.0
  0
SPLINE
  5
1e5
100
AcDbEntity
  8
Ebene_1
 62
7
100
AcDbSpline
 70
8
 71
3
 72
8
 73
4
 74
0
 40
0
 40
0
 40
0
 40
0
 40
1
 40
1
 40
1
 40
1
 10
339.349329
 20
77.813780
 30
0.0
 10
340.068928
 20
77.036531
 30
0.0
 10
340.994666
 20
76.632448
 30
0.0
 10
342.035233
 20
76.632448
 30
0.0
  0
LWPOLYLINE
  5
1e6
100
AcDbEntity
  8
Ebene_1
 62
7
100
AcDbPolyline
 90
3
 70
0
 10
339.344272
 20
77.819103
 30
0.0
 10
339.347643
 20
77.815554
 30
0.0
 10
339.349329
 20
77.813780
 30
0.0
  0
SPLINE
  5
1e7
100
AcDbEntity
  8
Ebene_1
 62
7
100
AcDbSpline
 70
8
 71
3
 72
8
 73
4
 74
0
 40
0
 40
0
 40
0
 40
0
 40
1
 40
1
 40
1
 40
1
 10
337.005207
 20
73.933027
 30
0.0
 10
336.633996
 20
73.933027
 30
0.0
 10
336.361880
 20
74.052864
 30
0.0
 10
336.106572
 20
74.309386
 30
0.0
  0
SPLINE
  5
1e8
100
AcDbEntity
  8
Ebene_1
 62
7
100
AcDbSpline
 70
8
 71
3
 72
8
 73
4
 74
0
 40
0
 40
0
 40
0
 40
0
 40
1
 40
1
 40
1
 40
1
 10
336.106572
 20
74.309386
 30
0.0
 10
335.867150
 20
74.586064
 30
0.0
 10
335.754787
 20
74.879333
 30
0.0
 10
335.754787
 20
75.281828
 30
0.0
  0
LWPOLYLINE
  5
1e9
100
AcDbEntity
  8
Ebene_1
 62
7
100
AcDbPolyline
 90
4
 70
0
 10
342.035233
 20
76.632448
 30
0.0
 10
348.314012
 20
76.632448
 30
0.0
 10
348.314012
 20
73.933027
 30
0.0
 10
337.005207
 20
73.933027
 30
0.0
  0
LWPOLYLINE
  5
1ea
100
AcDbEntity
  8
Ebene_1
 62
7
100
AcDbPolyline
 90
3
 70
0
 10
335.754787
 20
75.281828
 30
0.0
 10
335.754787
 20
81.175890
 30
0.0
 10
331.548279
 20
81.175766
 30
0.0
  0
SPLINE
  5
1eb
100
AcDbEntity
  8
Ebene_1
 62
7
100
AcDbSpline
 70
8
 71
3
 72
8
 73
4
 74
0
 40
0
 40
0
 40
0
 40
0
 40
1
 40
1
 40
1
 40
1
 10
224.245509
 20
82.526368
 30
0.0
 10
224.245509
 20
82.127963
 30
0.0
 10
224.131882
 20
81.836957
 30
0.0
 10
223.875395
 20
81.557528
 30
0.0
  0
SPLINE
  5
1ec
100
AcDbEntity
  8
Ebene_1
 62
7
100
AcDbSpline
 70
8
 71
3
 72
8
 73
4
 74
0
 40
0
 40
0
 40
0
 40
0
 40
1
 40
1
 40
1
 40
1
 10
223.875395
 20
81.557528
 30
0.0
 10
223.615883
 20
81.294246
 30
0.0
 10
223.349816
 20
81.175766
 30
0.0
 10
222.996762
 20
81.175766
 30
0.0
  0
LWPOLYLINE
  5
1ed
100
AcDbEntity
  8
Ebene_1
 62
7
100
AcDbPolyline
 90
4
 70
0
 10
207.479872
 20
88.420422
 30
0.0
 10
207.479872
 20
83.875169
 30
0.0
 10
224.245509
 20
83.875169
 30
0.0
 10
224.245509
 20
82.526368
 30
0.0
  0
SPLINE
  5
1ee
100
AcDbEntity
  8
Ebene_1
 62
7
100
AcDbSpline
 70
8
 71
3
 72
8
 73
4
 74
0
 40
0
 40
0
 40
0
 40
0
 40
1
 40
1
 40
1
 40
1
 10
224.672321
 20
76.632323
 30
0.0
 10
225.681713
 20
76.632323
 30
0.0
 10
226.594848
 20
77.038775
 30
0.0
 10
227.328218
 20
77.810045
 30
0.0
  0
SPLINE
  5
1ef
100
AcDbEntity
  8
Ebene_1
 62
7
100
AcDbSpline
 70
8
 71
3
 72
8
 73
4
 74
0
 40
0
 40
0
 40
0
 40
0
 40
1
 40
1
 40
1
 40
1
 10
227.328218
 20
77.810045
 30
0.0
 10
228.066219
 20
78.586211
 30
0.0
 10
228.453597
 20
79.587964
 30
0.0
 10
228.453597
 20
80.714754
 30
0.0
  0
LWPOLYLINE
  5
1f0
100
AcDbEntity
  8
Ebene_1
 62
7
100
AcDbPolyline
 90
7
 70
0
 10
222.996762
 20
81.175766
 30
0.0
 10
207.479872
 20
81.175766
 30
0.0
 10
207.479872
 20
69.387650
 30
0.0
 10
207.906684
 20
69.387650
 30
0.0
 10
211.686292
 20
69.387650
 30
0.0
 10
211.686292
 20
76.632323
 30
0.0
 10
224.672321
 20
76.632323
 30
0.0
  0
LWPOLYLINE
  5
1f1
100
AcDbEntity
  8
Ebene_1
 62
7
100
AcDbPolyline
 90
3
 70
0
 10
228.453597
 20
80.714754
 30
0.0
 10
228.453597
 20
88.420422
 30
0.0
 10
207.479872
 20
88.420422
 30
0.0
  0
LWPOLYLINE
  5
1f2
100
AcDbEntity
  8
Ebene_1
 62
7
100
AcDbPolyline
 90
9
 70
1
 10
230.952768
 20
81.175766
 30
0.0
 10
230.952768
 20
69.387650
 30
0.0
 10
231.379580
 20
69.387650
 30
0.0
 10
235.159188
 20
69.387650
 30
0.0
 10
235.159188
 20
76.632323
 30
0.0
 10
247.718414
 20
76.632323
 30
0.0
 10
247.718414
 20
69.387650
 30
0.0
 10
251.924825
 20
69.387650
 30
0.0
 10
251.924825
 20
81.175766
 30
0.0
  0
SPLINE
  5
1f3
100
AcDbEntity
  8
Ebene_1
 62
7
100
AcDbSpline
 70
8
 71
3
 72
8
 73
4
 74
0
 40
0
 40
0
 40
0
 40
0
 40
1
 40
1
 40
1
 40
1
 10
230.952768
 20
87.959419
 30
0.0
 10
230.952768
 20
86.852351
 30
0.0
 10
231.327753
 20
85.855494
 30
0.0
 10
232.043140
 20
85.061904
 30
0.0
  0
LWPOLYLINE
  5
1f4
100
AcDbEntity
  8
Ebene_1
 62
7
100
AcDbPolyline
 90
2
 70
0
 10
230.952768
 20
88.420422
 30
0.0
 10
230.952768
 20
87.959419
 30
0.0
  0
SPLINE
  5
1f5
100
AcDbEntity
  8
Ebene_1
 62
7
100
AcDbSpline
 70
8
 71
3
 72
8
 73
4
 74
0
 40
0
 40
0
 40
0
 40
0
 40
1
 40
1
 40
1
 40
1
 10
232.046688
 20
85.058355
 30
0.0
 10
232.766290
 20
84.281107
 30
0.0
 10
233.692031
 20
83.875214
 30
0.0
 10
234.732598
 20
83.875214
 30
0.0
  0
LWPOLYLINE
  5
1f6
100
AcDbEntity
  8
Ebene_1
 62
7
100
AcDbPolyline
 90
3
 70
0
 10
232.043140
 20
85.061904
 30
0.0
 10
232.044914
 20
85.060130
 30
0.0
 10
232.046688
 20
85.058355
 30
0.0
  0
SPLINE
  5
1f7
100
AcDbEntity
  8
Ebene_1
 62
7
100
AcDbSpline
 70
8
 71
3
 72
8
 73
4
 74
0
 40
0
 40
0
 40
0
 40
0
 40
1
 40
1
 40
1
 40
1
 10
248.145439
 20
83.875214
 30
0.0
 10
249.154831
 20
83.875214
 30
0.0
 10
250.067966
 20
84.281665
 30
0.0
 10
250.801336
 20
85.052953
 30
0.0
  0
SPLINE
  5
1f8
100
AcDbEntity
  8
Ebene_1
 62
7
100
AcDbSpline
 70
8
 71
3
 72
8
 73
4
 74
0
 40
0
 40
0
 40
0
 40
0
 40
1
 40
1
 40
1
 40
1
 10
250.801336
 20
85.052953
 30
0.0
 10
251.539346
 20
85.829110
 30
0.0
 10
251.925038
 20
86.832673
 30
0.0
 10
251.925038
 20
87.959454
 30
0.0
  0
LWPOLYLINE
  5
1f9
100
AcDbEntity
  8
Ebene_1
 62
7
100
AcDbPolyline
 90
2
 70
0
 10
234.732598
 20
83.875214
 30
0.0
 10
248.145439
 20
83.875214
 30
0.0
  0
LWPOLYLINE
  5
1fa
100
AcDbEntity
  8
Ebene_1
 62
7
100
AcDbPolyline
 90
3
 70
0
 10
251.925038
 20
87.959454
 30
0.0
 10
251.925038
 20
88.420466
 30
0.0
 10
230.952768
 20
88.420422
 30
0.0
  0
SPLINE
  5
1fb
100
AcDbEntity
  8
Ebene_1
 62
7
100
AcDbSpline
 70
8
 71
3
 72
8
 73
4
 74
0
 40
0
 40
0
 40
0
 40
0
 40
1
 40
1
 40
1
 40
1
 10
254.424006
 20
87.959419
 30
0.0
 10
254.424006
 20
86.852351
 30
0.0
 10
254.798990
 20
85.855494
 30
0.0
 10
255.514368
 20
85.061904
 30
0.0
  0
LWPOLYLINE
  5
1fc
100
AcDbEntity
  8
Ebene_1
 62
7
100
AcDbPolyline
 90
2
 70
0
 10
254.424006
 20
88.420422
 30
0.0
 10
254.424006
 20
87.959419
 30
0.0
  0
SPLINE
  5
1fd
100
AcDbEntity
  8
Ebene_1
 62
7
100
AcDbSpline
 70
8
 71
3
 72
8
 73
4
 74
0
 40
0
 40
0
 40
0
 40
0
 40
1
 40
1
 40
1
 40
1
 10
255.519691
 20
85.058355
 30
0.0
 10
256.239284
 20
84.281107
 30
0.0
 10
257.165025
 20
83.875222
 30
0.0
 10
258.205592
 20
83.875214
 30
0.0
  0
LWPOLYLINE
  5
1fe
100
AcDbEntity
  8
Ebene_1
 62
7
100
AcDbPolyline
 90
3
 70
0
 10
255.514368
 20
85.061904
 30
0.0
 10
255.517917
 20
85.060130
 30
0.0
 10
255.519691
 20
85.058355
 30
0.0
  0
SPLINE
  5
1ff
100
AcDbEntity
  8
Ebene_1
 62
7
100
AcDbSpline
 70
8
 71
3
 72
8
 73
4
 74
0
 40
0
 40
0
 40
0
 40
0
 40
1
 40
1
 40
1
 40
1
 10
271.191639
 20
82.526404
 30
0.0
 10
271.191639
 20
82.128007
 30
0.0
 10
271.076335
 20
81.837001
 30
0.0
 10
270.819839
 20
81.557573
 30
0.0
  0
SPLINE
  5
200
100
AcDbEntity
  8
Ebene_1
 62
7
100
AcDbSpline
 70
8
 71
3
 72
8
 73
4
 74
0
 40
0
 40
0
 40
0
 40
0
 40
1
 40
1
 40
1
 40
1
 10
270.819839
 20
81.557573
 30
0.0
 10
270.560328
 20
81.294291
 30
0.0
 10
270.294269
 20
81.175802
 30
0.0
 10
269.941206
 20
81.175802
 30
0.0
  0
LWPOLYLINE
  5
201
100
AcDbEntity
  8
Ebene_1
 62
7
100
AcDbPolyline
 90
3
 70
0
 10
258.205592
 20
83.875214
 30
0.0
 10
271.191639
 20
83.875214
 30
0.0
 10
271.191639
 20
82.526404
 30
0.0
  0
SPLINE
  5
202
100
AcDbEntity
  8
Ebene_1
 62
7
100
AcDbSpline
 70
8
 71
3
 72
8
 73
4
 74
0
 40
0
 40
0
 40
0
 40
0
 40
1
 40
1
 40
1
 40
1
 10
271.563350
 20
76.635907
 30
0.0
 10
272.630194
 20
76.486545
 30
0.0
 10
273.556264
 20
77.056678
 30
0.0
 10
274.272600
 20
77.810036
 30
0.0
  0
SPLINE
  5
203
100
AcDbEntity
  8
Ebene_1
 62
7
100
AcDbSpline
 70
8
 71
3
 72
8
 73
4
 74
0
 40
0
 40
0
 40
0
 40
0
 40
1
 40
1
 40
1
 40
1
 10
274.272600
 20
77.810036
 30
0.0
 10
275.010610
 20
78.586202
 30
0.0
 10
275.397979
 20
79.587956
 30
0.0
 10
275.397979
 20
80.714745
 30
0.0
  0
LWPOLYLINE
  5
204
100
AcDbEntity
  8
Ebene_1
 62
7
100
AcDbPolyline
 90
12
 70
0
 10
269.941206
 20
81.175802
 30
0.0
 10
254.424325
 20
81.175802
 30
0.0
 10
254.424325
 20
69.387694
 30
0.0
 10
254.851137
 20
69.387694
 30
0.0
 10
258.632404
 20
69.387694
 30
0.0
 10
258.632404
 20
76.632359
 30
0.0
 10
263.057225
 20
76.632359
 30
0.0
 10
269.764484
 20
69.387694
 30
0.0
 10
276.001584
 20
69.387694
 30
0.0
 10
269.294325
 20
76.632359
 30
0.0
 10
271.618442
 20
76.632359
 30
0.0
 10
271.563350
 20
76.635907
 30
0.0
  0
LWPOLYLINE
  5
205
100
AcDbEntity
  8
Ebene_1
 62
7
100
AcDbPolyline
 90
3
 70
0
 10
275.397979
 20
80.714745
 30
0.0
 10
275.397979
 20
88.420413
 30
0.0
 10
254.424006
 20
88.420422
 30
0.0
  0
LWPOLYLINE
  5
206
100
AcDbEntity
  8
Ebene_1
 62
7
100
AcDbPolyline
 90
9
 70
1
 10
293.237061
 20
88.420422
 30
0.0
 10
284.427421
 20
78.904941
 30
0.0
 10
293.237061
 20
69.387650
 30
0.0
 10
293.413783
 20
69.387650
 30
0.0
 10
299.474161
 20
69.387650
 30
0.0
 10
290.661195
 20
78.906742
 30
0.0
 10
291.889937
 20
80.253751
 30
0.0
 10
291.913269
 20
80.253751
 30
0.0
 10
299.474144
 20
88.420422
 30
0.0
  0
LWPOLYLINE
  5
207
100
AcDbEntity
  8
Ebene_1
 62
7
100
AcDbPolyline
 90
5
 70
1
 10
277.896893
 20
88.420422
 30
0.0
 10
277.896893
 20
69.387650
 30
0.0
 10
278.323705
 20
69.387650
 30
0.0
 10
282.103313
 20
69.387650
 30
0.0
 10
282.103313
 20
88.420422
 30
0.0
  0
LWPOLYLINE
  5
208
100
AcDbEntity
  8
Ebene_1
 62
7
100
AcDbPolyline
 90
5
 70
1
 10
301.369790
 20
88.420422
 30
0.0
 10
301.369790
 20
69.387650
 30
0.0
 10
301.796602
 20
69.387650
 30
0.0
 10
305.576201
 20
69.387650
 30
0.0
 10
305.576201
 20
88.420422
 30
0.0
  0
LWPOLYLINE
  5
209
100
AcDbEntity
  8
Ebene_1
 62
7
100
AcDbPolyline
 90
12
 70
1
 10
307.471847
 20
88.420422
 30
0.0
 10
311.428177
 20
84.145300
 30
0.0
 10
311.428177
 20
69.387650
 30
0.0
 10
311.854988
 20
69.387650
 30
0.0
 10
315.636259
 20
69.387650
 30
0.0
 10
315.636259
 20
79.601857
 30
0.0
 10
325.091107
 20
69.387650
 30
0.0
 10
329.049105
 20
69.387650
 30
0.0
 10
329.049105
 20
88.420422
 30
0.0
 10
324.841022
 20
88.420422
 30
0.0
 10
324.841022
 20
76.394609
 30
0.0
 10
313.708944
 20
88.420422
 30
0.0
  0
SPLINE
  5
20a
100
AcDbEntity
  8
Ebene_1
 62
7
100
AcDbSpline
 70
8
 71
3
 72
8
 73
4
 74
0
 40
0
 40
0
 40
0
 40
0
 40
1
 40
1
 40
1
 40
1
 10
348.740730
 20
83.875169
 30
0.0
 10
349.750118
 20
83.875169
 30
0.0
 10
350.663253
 20
84.281639
 30
0.0
 10
351.396623
 20
85.052908
 30
0.0
  0
SPLINE
  5
20b
100
AcDbEntity
  8
Ebene_1
 62
7
100
AcDbSpline
 70
8
 71
3
 72
8
 73
4
 74
0
 40
0
 40
0
 40
0
 40
0
 40
1
 40
1
 40
1
 40
1
 10
351.396623
 20
85.052908
 30
0.0
 10
352.134632
 20
85.829075
 30
0.0
 10
352.520335
 20
86.832629
 30
0.0
 10
352.520335
 20
87.959419
 30
0.0
  0
LWPOLYLINE
  5
20c
100
AcDbEntity
  8
Ebene_1
 62
7
100
AcDbPolyline
 90
4
 70
0
 10
331.548279
 20
88.420422
 30
0.0
 10
331.548279
 20
83.875169
 30
0.0
 10
331.975089
 20
83.875169
 30
0.0
 10
348.740730
 20
83.875169
 30
0.0
  0
LWPOLYLINE
  5
20d
100
AcDbEntity
  8
Ebene_1
 62
7
100
AcDbPolyline
 90
3
 70
0
 10
352.520335
 20
87.959419
 30
0.0
 10
352.520335
 20
88.420422
 30
0.0
 10
331.548279
 20
88.420422
 30
0.0
  0
LWPOLYLINE
  5
20e
100
AcDbEntity
  8
Ebene_1
 62
7
100
AcDbPolyline
 90
9
 70
1
 10
234.305564
 20
54.982973
 30
0.0
 10
234.305564
 20
43.194857
 30
0.0
 10
234.732376
 20
43.194857
 30
0.0
 10
255.277621
 20
43.194857
 30
0.0
 10
255.277621
 20
54.982973
 30
0.0
 10
251.071201
 20
54.982973
 30
0.0
 10
251.071201
 20
47.740110
 30
0.0
 10
238.511975
 20
47.740110
 30
0.0
 10
238.511975
 20
54.982973
 30
0.0
  0
SPLINE
  5
20f
100
AcDbEntity
  8
Ebene_1
 62
7
100
AcDbSpline
 70
8
 71
3
 72
8
 73
4
 74
0
 40
0
 40
0
 40
0
 40
0
 40
1
 40
1
 40
1
 40
1
 10
234.305564
 20
61.764825
 30
0.0
 10
234.305564
 20
60.657757
 30
0.0
 10
234.680557
 20
59.662693
 30
0.0
 10
235.395927
 20
58.869120
 30
0.0
  0
LWPOLYLINE
  5
210
100
AcDbEntity
  8
Ebene_1
 62
7
100
AcDbPolyline
 90
2
 70
0
 10
234.305564
 20
62.225828
 30
0.0
 10
234.305564
 20
61.764825
 30
0.0
  0
SPLINE
  5
211
100
AcDbEntity
  8
Ebene_1
 62
7
100
AcDbSpline
 70
8
 71
3
 72
8
 73
4
 74
0
 40
0
 40
0
 40
0
 40
0
 40
1
 40
1
 40
1
 40
1
 10
235.399475
 20
58.865571
 30
0.0
 10
236.119077
 20
58.088323
 30
0.0
 10
237.044818
 20
57.682439
 30
0.0
 10
238.085376
 20
57.682439
 30
0.0
  0
LWPOLYLINE
  5
212
100
AcDbEntity
  8
Ebene_1
 62
7
100
AcDbPolyline
 90
3
 70
0
 10
235.395927
 20
58.869120
 30
0.0
 10
235.397701
 20
58.867346
 30
0.0
 10
235.399475
 20
58.865571
 30
0.0
  0
SPLINE
  5
213
100
AcDbEntity
  8
Ebene_1
 62
7
100
AcDbSpline
 70
8
 71
3
 72
8
 73
4
 74
0
 40
0
 40
0
 40
0
 40
0
 40
1
 40
1
 40
1
 40
1
 10
251.498226
 20
57.682439
 30
0.0
 10
252.507609
 20
57.682439
 30
0.0
 10
253.420744
 20
58.088882
 30
0.0
 10
254.154114
 20
58.860178
 30
0.0
  0
SPLINE
  5
214
100
AcDbEntity
  8
Ebene_1
 62
7
100
AcDbSpline
 70
8
 71
3
 72
8
 73
4
 74
0
 40
0
 40
0
 40
0
 40
0
 40
1
 40
1
 40
1
 40
1
 10
254.154114
 20
58.860178
 30
0.0
 10
254.892124
 20
59.636326
 30
0.0
 10
255.277834
 20
60.638097
 30
0.0
 10
255.277834
 20
61.764887
 30
0.0
  0
LWPOLYLINE
  5
215
100
AcDbEntity
  8
Ebene_1
 62
7
100
AcDbPolyline
 90
2
 70
0
 10
238.085376
 20
57.682439
 30
0.0
 10
251.498226
 20
57.682439
 30
0.0
  0
LWPOLYLINE
  5
216
100
AcDbEntity
  8
Ebene_1
 62
7
100
AcDbPolyline
 90
3
 70
0
 10
255.277834
 20
61.764887
 30
0.0
 10
255.277834
 20
62.225890
 30
0.0
 10
234.305564
 20
62.225828
 30
0.0
  0
LWPOLYLINE
  5
217
100
AcDbEntity
  8
Ebene_1
 62
7
100
AcDbPolyline
 90
12
 70
1
 10
257.174926
 20
62.225828
 30
0.0
 10
261.131256
 20
57.952507
 30
0.0
 10
261.131256
 20
43.194857
 30
0.0
 10
261.558068
 20
43.194857
 30
0.0
 10
265.337667
 20
43.194857
 30
0.0
 10
265.337667
 20
53.409065
 30
0.0
 10
274.794188
 20
43.194857
 30
0.0
 10
278.750517
 20
43.194857
 30
0.0
 10
278.750517
 20
62.225828
 30
0.0
 10
274.544106
 20
62.225828
 30
0.0
 10
274.544106
 20
50.201816
 30
0.0
 10
263.412017
 20
62.225828
 30
0.0
  0
SPLINE
  5
218
100
AcDbEntity
  8
Ebene_1
 62
7
100
AcDbSpline
 70
8
 71
3
 72
8
 73
4
 74
0
 40
0
 40
0
 40
0
 40
0
 40
1
 40
1
 40
1
 40
1
 10
298.443815
 20
43.194857
 30
0.0
 10
299.453189
 20
43.194857
 30
0.0
 10
300.364665
 20
43.601309
 30
0.0
 10
301.098035
 20
44.372596
 30
0.0
  0
SPLINE
  5
219
100
AcDbEntity
  8
Ebene_1
 62
7
100
AcDbSpline
 70
8
 71
3
 72
8
 73
4
 74
0
 40
0
 40
0
 40
0
 40
0
 40
1
 40
1
 40
1
 40
1
 10
301.098035
 20
44.372596
 30
0.0
 10
301.836036
 20
45.148754
 30
0.0
 10
302.223414
 20
46.152317
 30
0.0
 10
302.223414
 20
47.279098
 30
0.0
  0
LWPOLYLINE
  5
21a
100
AcDbEntity
  8
Ebene_1
 62
7
100
AcDbPolyline
 90
4
 70
0
 10
281.249689
 20
62.225828
 30
0.0
 10
281.249689
 20
43.194857
 30
0.0
 10
281.676501
 20
43.194857
 30
0.0
 10
298.443815
 20
43.194857
 30
0.0
  0
LWPOLYLINE
  5
21b
100
AcDbEntity
  8
Ebene_1
 62
7
100
AcDbPolyline
 90
5
 70
0
 10
302.223414
 20
47.279098
 30
0.0
 10
302.223414
 20
47.740110
 30
0.0
 10
285.457777
 20
47.740110
 30
0.0
 10
285.457777
 20
62.225828
 30
0.0
 10
281.249689
 20
62.225828
 30
0.0
  0
SPLINE
  5
21c
100
AcDbEntity
  8
Ebene_1
 62
7
100
AcDbSpline
 70
8
 71
3
 72
8
 73
4
 74
0
 40
0
 40
0
 40
0
 40
0
 40
1
 40
1
 40
1
 40
1
 10
279.922047
 20
97.094040
 30
0.0
 10
279.730027
 20
98.106750
 30
0.0
 10
263.207147
 20
190.353230
 30
0.0
 10
263.207147
 20
190.412560
 30
0.0
  0
SPLINE
  5
21d
100
AcDbEntity
  8
Ebene_1
 62
7
100
AcDbSpline
 70
8
 71
3
 72
8
 73
4
 74
0
 40
0
 40
0
 40
0
 40
0
 40
1
 40
1
 40
1
 40
1
 10
263.207147
 20
190.412560
 30
0.0
 10
263.207147
 20
190.496760
 30
0.0
 10
258.326997
 20
190.373460
 30
0.0
 10
255.873997
 20
190.227130
 30
0.0
  0
SPLINE
  5
21e
100
AcDbEntity
  8
Ebene_1
 62
7
100
AcDbSpline
 70
8
 71
3
 72
8
 73
4
 74
0
 40
0
 40
0
 40
0
 40
0
 40
1
 40
1
 40
1
 40
1
 10
255.873997
 20
190.227130
 30
0.0
 10
248.573997
 20
189.791790
 30
0.0
 10
244.819407
 20
188.513430
 30
0.0
 10
243.004707
 20
185.845400
 30
0.0
  0
SPLINE
  5
21f
100
AcDbEntity
  8
Ebene_1
 62
7
100
AcDbSpline
 70
8
 71
3
 72
8
 73
4
 74
0
 40
0
 40
0
 40
0
 40
0
 40
1
 40
1
 40
1
 40
1
 10
243.004707
 20
185.845400
 30
0.0
 10
242.335637
 20
184.861720
 30
0.0
 10
242.056327
 20
184.160320
 30
0.0
 10
241.764317
 20
182.731010
 30
0.0
  0
SPLINE
  5
220
100
AcDbEntity
  8
Ebene_1
 62
7
100
AcDbSpline
 70
8
 71
3
 72
8
 73
4
 74
0
 40
0
 40
0
 40
0
 40
0
 40
1
 40
1
 40
1
 40
1
 10
241.764317
 20
182.731010
 30
0.0
 10
241.645677
 20
182.150250
 30
0.0
 10
241.526967
 20
181.653460
 30
0.0
 10
241.500527
 20
181.627020
 30
0.0
  0
SPLINE
  5
221
100
AcDbEntity
  8
Ebene_1
 62
7
100
AcDbSpline
 70
8
 71
3
 72
8
 73
4
 74
0
 40
0
 40
0
 40
0
 40
0
 40
1
 40
1
 40
1
 40
1
 10
241.500527
 20
181.627020
 30
0.0
 10
241.411627
 20
181.538120
 30
0.0
 10
238.377937
 20
182.979640
 30
0.0
 10
236.857947
 20
183.832990
 30
0.0
  0
SPLINE
  5
222
100
AcDbEntity
  8
Ebene_1
 62
7
100
AcDbSpline
 70
8
 71
3
 72
8
 73
4
 74
0
 40
0
 40
0
 40
0
 40
0
 40
1
 40
1
 40
1
 40
1
 10
236.857947
 20
183.832990
 30
0.0
 10
232.311617
 20
186.385380
 30
0.0
 10
228.742387
 20
189.340640
 30
0.0
 10
226.314327
 20
192.562930
 30
0.0
  0
SPLINE
  5
223
100
AcDbEntity
  8
Ebene_1
 62
7
100
AcDbSpline
 70
8
 71
3
 72
8
 73
4
 74
0
 40
0
 40
0
 40
0
 40
0
 40
1
 40
1
 40
1
 40
1
 10
226.314327
 20
192.562930
 30
0.0
 10
225.957607
 20
193.036330
 30
0.0
 10
225.665757
 20
193.462410
 30
0.0
 10
225.665757
 20
193.509760
 30
0.0
  0
SPLINE
  5
224
100
AcDbEntity
  8
Ebene_1
 62
7
100
AcDbSpline
 70
8
 71
3
 72
8
 73
4
 74
0
 40
0
 40
0
 40
0
 40
0
 40
1
 40
1
 40
1
 40
1
 10
225.665757
 20
193.509760
 30
0.0
 10
225.665757
 20
193.557160
 30
0.0
 10
225.850457
 20
193.672320
 30
0.0
 10
226.076187
 20
193.765740
 30
0.0
  0
SPLINE
  5
225
100
AcDbEntity
  8
Ebene_1
 62
7
100
AcDbSpline
 70
8
 71
3
 72
8
 73
4
 74
0
 40
0
 40
0
 40
0
 40
0
 40
1
 40
1
 40
1
 40
1
 10
226.076187
 20
193.765740
 30
0.0
 10
226.301927
 20
193.859140
 30
0.0
 10
227.274677
 20
194.278420
 30
0.0
 10
228.237827
 20
194.697440
 30
0.0
  0
SPLINE
  5
226
100
AcDbEntity
  8
Ebene_1
 62
7
100
AcDbSpline
 70
8
 71
3
 72
8
 73
4
 74
0
 40
0
 40
0
 40
0
 40
0
 40
1
 40
1
 40
1
 40
1
 10
228.237827
 20
194.697440
 30
0.0
 10
239.273217
 20
199.498310
 30
0.0
 10
253.617587
 20
202.854017
 30
0.0
 10
266.490647
 20
203.646285
 30
0.0
  0
LWPOLYLINE
  5
227
100
AcDbEntity
  8
Ebene_1
 62
7
100
AcDbPolyline
 90
14
 70
1
 10
304.722585
 20
62.225828
 30
0.0
 10
304.722585
 20
57.952507
 30
0.0
 10
313.105408
 20
48.898030
 30
0.0
 10
313.105408
 20
43.194857
 30
0.0
 10
313.532219
 20
43.194857
 30
0.0
 10
317.311823
 20
43.194857
 30
0.0
 10
317.311823
 20
48.898030
 30
0.0
 10
325.694643
 20
57.952507
 30
0.0
 10
325.694643
 20
62.225828
 30
0.0
 10
321.488229
 20
62.225828
 30
0.0
 10
321.488229
 20
60.145893
 30
0.0
 10
315.209449
 20
53.362240
 30
0.0
 10
308.929003
 20
60.145893
 30
0.0
 10
308.929003
 20
62.225828
 30
0.0
  0
SPLINE
  5
228
100
AcDbEntity
  8
Ebene_1
 62
7
100
AcDbSpline
 70
8
 71
3
 72
8
 73
4
 74
0
 40
0
 40
0
 40
0
 40
0
 40
1
 40
1
 40
1
 40
1
 10
273.808377
 20
196.200470
 30
0.0
 10
277.201057
 20
192.066360
 30
0.0
 10
280.014437
 20
188.725320
 30
0.0
 10
280.060297
 20
188.775940
 30
0.0
  0
SPLINE
  5
229
100
AcDbEntity
  8
Ebene_1
 62
7
100
AcDbSpline
 70
8
 71
3
 72
8
 73
4
 74
0
 40
0
 40
0
 40
0
 40
0
 40
1
 40
1
 40
1
 40
1
 10
280.060297
 20
188.775940
 30
0.0
 10
280.106097
 20
188.826440
 30
0.0
 10
282.859747
 20
192.177810
 30
0.0
 10
286.179327
 20
196.223150
 30
0.0
  0
SPLINE
  5
22a
100
AcDbEntity
  8
Ebene_1
 62
7
100
AcDbSpline
 70
8
 71
3
 72
8
 73
4
 74
0
 40
0
 40
0
 40
0
 40
0
 40
1
 40
1
 40
1
 40
1
 10
286.179327
 20
196.223150
 30
0.0
 10
289.498927
 20
200.268473
 30
0.0
 10
292.265667
 20
203.609628
 30
0.0
 10
292.327617
 20
203.647932
 30
0.0
  0
SPLINE
  5
22b
100
AcDbEntity
  8
Ebene_1
 62
7
100
AcDbSpline
 70
8
 71
3
 72
8
 73
4
 74
0
 40
0
 40
0
 40
0
 40
0
 40
1
 40
1
 40
1
 40
1
 10
292.327617
 20
203.647932
 30
0.0
 10
292.456897
 20
203.727822
 30
0.0
 10
295.217677
 20
203.549762
 30
0.0
 10
297.629207
 20
203.305998
 30
0.0
  0
SPLINE
  5
22c
100
AcDbEntity
  8
Ebene_1
 62
7
100
AcDbSpline
 70
8
 71
3
 72
8
 73
4
 74
0
 40
0
 40
0
 40
0
 40
0
 40
1
 40
1
 40
1
 40
1
 10
297.629207
 20
203.305998
 30
0.0
 10
307.799007
 20
202.278004
 30
0.0
 10
318.012997
 20
199.924730
 30
0.0
 10
327.290187
 20
196.472140
 30
0.0
  0
SPLINE
  5
22d
100
AcDbEntity
  8
Ebene_1
 62
7
100
AcDbSpline
 70
8
 71
3
 72
8
 73
4
 74
0
 40
0
 40
0
 40
0
 40
0
 40
1
 40
1
 40
1
 40
1
 10
327.290187
 20
196.472140
 30
0.0
 10
329.479647
 20
195.657310
 30
0.0
 10
333.001507
 20
194.202980
 30
0.0
 10
333.920027
 20
193.734390
 30
0.0
  0
LWPOLYLINE
  5
22e
100
AcDbEntity
  8
Ebene_1
 62
7
100
AcDbPolyline
 90
3
 70
0
 10
266.490647
 20
203.646285
 30
0.0
 10
267.639867
 20
203.717015
 30
0.0
 10
273.808377
 20
196.200470
 30
0.0
  0
SPLINE
  5
22f
100
AcDbEntity
  8
Ebene_1
 62
7
100
AcDbSpline
 70
8
 71
3
 72
8
 73
4
 74
0
 40
0
 40
0
 40
0
 40
0
 40
1
 40
1
 40
1
 40
1
 10
333.795627
 20
192.754450
 30
0.0
 10
331.644527
 20
189.796960
 30
0.0
 10
328.272267
 20
186.890580
 30
0.0
 10
324.096067
 20
184.394880
 30
0.0
  0
SPLINE
  5
230
100
AcDbEntity
  8
Ebene_1
 62
7
100
AcDbSpline
 70
8
 71
3
 72
8
 73
4
 74
0
 40
0
 40
0
 40
0
 40
0
 40
1
 40
1
 40
1
 40
1
 10
324.096067
 20
184.394880
 30
0.0
 10
322.947527
 20
183.708510
 30
0.0
 10
319.145477
 20
181.800210
 30
0.0
 10
318.627077
 20
181.649900
 30
0.0
  0
SPLINE
  5
231
100
AcDbEntity
  8
Ebene_1
 62
7
100
AcDbSpline
 70
8
 71
3
 72
8
 73
4
 74
0
 40
0
 40
0
 40
0
 40
0
 40
1
 40
1
 40
1
 40
1
 10
318.627077
 20
181.649900
 30
0.0
 10
318.413147
 20
181.587800
 30
0.0
 10
318.384467
 20
181.634400
 30
0.0
 10
318.313297
 20
182.160200
 30
0.0
  0
SPLINE
  5
232
100
AcDbEntity
  8
Ebene_1
 62
7
100
AcDbSpline
 70
8
 71
3
 72
8
 73
4
 74
0
 40
0
 40
0
 40
0
 40
0
 40
1
 40
1
 40
1
 40
1
 10
318.313297
 20
182.160200
 30
0.0
 10
318.270197
 20
182.478410
 30
0.0
 10
318.114617
 20
183.156090
 30
0.0
 10
317.967527
 20
183.666150
 30
0.0
  0
SPLINE
  5
233
100
AcDbEntity
  8
Ebene_1
 62
7
100
AcDbSpline
 70
8
 71
3
 72
8
 73
4
 74
0
 40
0
 40
0
 40
0
 40
0
 40
1
 40
1
 40
1
 40
1
 10
317.967527
 20
183.666150
 30
0.0
 10
316.809257
 20
187.682790
 30
0.0
 10
313.386977
 20
189.466360
 30
0.0
 10
305.564347
 20
190.130200
 30
0.0
  0
SPLINE
  5
234
100
AcDbEntity
  8
Ebene_1
 62
7
100
AcDbSpline
 70
8
 71
3
 72
8
 73
4
 74
0
 40
0
 40
0
 40
0
 40
0
 40
1
 40
1
 40
1
 40
1
 10
305.564347
 20
190.130200
 30
0.0
 10
303.861047
 20
190.274740
 30
0.0
 10
296.777147
 20
190.460240
 30
0.0
 10
296.688147
 20
190.362630
 30
0.0
  0
SPLINE
  5
235
100
AcDbEntity
  8
Ebene_1
 62
7
100
AcDbSpline
 70
8
 71
3
 72
8
 73
4
 74
0
 40
0
 40
0
 40
0
 40
0
 40
1
 40
1
 40
1
 40
1
 10
296.688147
 20
190.362630
 30
0.0
 10
296.642647
 20
190.312730
 30
0.0
 10
282.967457
 20
113.599160
 30
0.0
 10
280.081387
 20
97.203480
 30
0.0
  0
LWPOLYLINE
  5
236
100
AcDbEntity
  8
Ebene_1
 62
7
100
AcDbPolyline
 90
3
 70
0
 10
333.920027
 20
193.734390
 30
0.0
 10
334.349137
 20
193.515470
 30
0.0
 10
333.795627
 20
192.754450
 30
0.0
  0
SPLINE
  5
237
100
AcDbEntity
  8
Ebene_1
 62
7
100
AcDbSpline
 70
8
 71
3
 72
8
 73
4
 74
0
 40
0
 40
0
 40
0
 40
0
 40
1
 40
1
 40
1
 40
1
 10
334.349727
 20
197.648200
 30
0.0
 10
321.277687
 20
203.161246
 30
0.0
 10
306.426307
 20
206.669399
 30
0.0
 10
291.609457
 20
207.744160
 30
0.0
  0
SPLINE
  5
238
100
AcDbEntity
  8
Ebene_1
 62
7
100
AcDbSpline
 70
8
 71
3
 72
8
 73
4
 74
0
 40
0
 40
0
 40
0
 40
0
 40
1
 40
1
 40
1
 40
1
 10
291.609457
 20
207.744160
 30
0.0
 10
286.849127
 20
208.089454
 30
0.0
 10
276.959547
 20
208.202532
 30
0.0
 10
272.170727
 20
207.966418
 30
0.0
  0
SPLINE
  5
239
100
AcDbEntity
  8
Ebene_1
 62
7
100
AcDbSpline
 70
8
 71
3
 72
8
 73
4
 74
0
 40
0
 40
0
 40
0
 40
0
 40
1
 40
1
 40
1
 40
1
 10
272.170727
 20
207.966418
 30
0.0
 10
255.575287
 20
207.148173
 30
0.0
 10
240.307167
 20
203.766123
 30
0.0
 10
225.633617
 20
197.657980
 30
0.0
  0
SPLINE
  5
23a
100
AcDbEntity
  8
Ebene_1
 62
7
100
AcDbSpline
 70
8
 71
3
 72
8
 73
4
 74
0
 40
0
 40
0
 40
0
 40
0
 40
1
 40
1
 40
1
 40
1
 10
225.633617
 20
197.657980
 30
0.0
 10
224.622667
 20
197.237150
 30
0.0
 10
223.732597
 20
196.917000
 30
0.0
 10
223.655667
 20
196.946510
 30
0.0
  0
SPLINE
  5
23b
100
AcDbEntity
  8
Ebene_1
 62
7
100
AcDbSpline
 70
8
 71
3
 72
8
 73
4
 74
0
 40
0
 40
0
 40
0
 40
0
 40
1
 40
1
 40
1
 40
1
 10
223.655667
 20
196.946510
 30
0.0
 10
223.578767
 20
196.976110
 30
0.0
 10
222.945807
 20
198.150220
 30
0.0
 10
222.249177
 20
199.555830
 30
0.0
  0
SPLINE
  5
23c
100
AcDbEntity
  8
Ebene_1
 62
7
100
AcDbSpline
 70
8
 71
3
 72
8
 73
4
 74
0
 40
0
 40
0
 40
0
 40
0
 40
1
 40
1
 40
1
 40
1
 10
222.249177
 20
199.555830
 30
0.0
 10
220.945797
 20
202.185642
 30
0.0
 10
220.338397
 20
203.551774
 30
0.0
 10
220.431247
 20
203.644618
 30
0.0
  0
SPLINE
  5
23d
100
AcDbEntity
  8
Ebene_1
 62
7
100
AcDbSpline
 70
8
 71
3
 72
8
 73
4
 74
0
 40
0
 40
0
 40
0
 40
0
 40
1
 40
1
 40
1
 40
1
 10
220.431247
 20
203.644618
 30
0.0
 10
220.526247
 20
203.739578
 30
0.0
 10
224.353017
 20
205.185295
 30
0.0
 10
226.596077
 20
205.973608
 30
0.0
  0
SPLINE
  5
23e
100
AcDbEntity
  8
Ebene_1
 62
7
100
AcDbSpline
 70
8
 71
3
 72
8
 73
4
 74
0
 40
0
 40
0
 40
0
 40
0
 40
1
 40
1
 40
1
 40
1
 10
226.596077
 20
205.973608
 30
0.0
 10
247.623967
 20
213.363764
 30
0.0
 10
270.081177
 20
216.426250
 30
0.0
 10
291.335837
 20
214.802153
 30
0.0
  0
SPLINE
  5
23f
100
AcDbEntity
  8
Ebene_1
 62
7
100
AcDbSpline
 70
8
 71
3
 72
8
 73
4
 74
0
 40
0
 40
0
 40
0
 40
0
 40
1
 40
1
 40
1
 40
1
 10
291.335837
 20
214.802153
 30
0.0
 10
307.233027
 20
213.587422
 30
0.0
 10
322.215377
 20
210.234082
 30
0.0
 10
337.466397
 20
204.477230
 30
0.0
  0
SPLINE
  5
240
100
AcDbEntity
  8
Ebene_1
 62
7
100
AcDbSpline
 70
8
 71
3
 72
8
 73
4
 74
0
 40
0
 40
0
 40
0
 40
0
 40
1
 40
1
 40
1
 40
1
 10
337.466397
 20
204.477230
 30
0.0
 10
338.601877
 20
204.048616
 30
0.0
 10
339.550427
 20
203.678422
 30
0.0
 10
339.574267
 20
203.654572
 30
0.0
  0
SPLINE
  5
241
100
AcDbEntity
  8
Ebene_1
 62
7
100
AcDbSpline
 70
8
 71
3
 72
8
 73
4
 74
0
 40
0
 40
0
 40
0
 40
0
 40
1
 40
1
 40
1
 40
1
 10
339.574267
 20
203.654572
 30
0.0
 10
339.698937
 20
203.529908
 30
0.0
 10
336.649457
 20
197.163980
 30
0.0
 10
336.340477
 20
196.903860
 30
0.0
  0
SPLINE
  5
242
100
AcDbEntity
  8
Ebene_1
 62
7
100
AcDbSpline
 70
8
 71
3
 72
8
 73
4
 74
0
 40
0
 40
0
 40
0
 40
0
 40
1
 40
1
 40
1
 40
1
 10
336.340477
 20
196.903860
 30
0.0
 10
336.299077
 20
196.868960
 30
0.0
 10
335.403167
 20
197.203910
 30
0.0
 10
334.349727
 20
197.648200
 30
0.0
  0
LWPOLYLINE
  5
243
100
AcDbEntity
  8
Ebene_1
 62
7
100
AcDbPolyline
 90
3
 70
0
 10
280.081387
 20
97.203480
 30
0.0
 10
279.994687
 20
96.710950
 30
0.0
 10
279.922047
 20
97.094040
 30
0.0
  0
LWPOLYLINE
  5
244
100
AcDbEntity
  8
Ebene_1
 62
7
100
AcDbPolyline
 90
1
 70
1
 10
334.349727
 20
197.648200
 30
0.0
  0
LWPOLYLINE
  5
245
100
AcDbEntity
  8
Ebene_1
 62
7
100
AcDbPolyline
 90
9
 70
1
 10
327.232809
 20
236.972657
 30
0.0
 10
327.232809
 20
224.680653
 30
0.0
 10
327.676389
 20
224.680653
 30
0.0
 10
331.921578
 20
224.680653
 30
0.0
 10
331.921578
 20
232.283883
 30
0.0
 10
346.240883
 20
232.283883
 30
0.0
 10
346.240883
 20
224.680653
 30
0.0
 10
350.929660
 20
224.680653
 30
0.0
 10
350.929660
 20
236.972657
 30
0.0
  0
SPLINE
  5
246
100
AcDbEntity
  8
Ebene_1
 62
7
100
AcDbSpline
 70
8
 71
3
 72
8
 73
4
 74
0
 40
0
 40
0
 40
0
 40
0
 40
1
 40
1
 40
1
 40
1
 10
327.232809
 20
244.132307
 30
0.0
 10
327.232809
 20
242.979667
 30
0.0
 10
327.651602
 20
241.947082
 30
0.0
 10
328.456122
 20
241.120818
 30
0.0
  0
LWPOLYLINE
  5
247
100
AcDbEntity
  8
Ebene_1
 62
7
100
AcDbPolyline
 90
2
 70
0
 10
327.232809
 20
244.575887
 30
0.0
 10
327.232809
 20
244.132307
 30
0.0
  0
SPLINE
  5
248
100
AcDbEntity
  8
Ebene_1
 62
7
100
AcDbSpline
 70
8
 71
3
 72
8
 73
4
 74
0
 40
0
 40
0
 40
0
 40
0
 40
1
 40
1
 40
1
 40
1
 10
328.461445
 20
241.117270
 30
0.0
 10
329.270356
 20
240.308363
 30
0.0
 10
330.307605
 20
239.887030
 30
0.0
 10
331.478131
 20
239.887030
 30
0.0
  0
LWPOLYLINE
  5
249
100
AcDbEntity
  8
Ebene_1
 62
7
100
AcDbPolyline
 90
3
 70
0
 10
328.456122
 20
241.120818
 30
0.0
 10
328.459671
 20
241.119044
 30
0.0
 10
328.461445
 20
241.117270
 30
0.0
  0
SPLINE
  5
24a
100
AcDbEntity
  8
Ebene_1
 62
7
100
AcDbSpline
 70
8
 71
3
 72
8
 73
4
 74
0
 40
0
 40
0
 40
0
 40
0
 40
1
 40
1
 40
1
 40
1
 10
346.684596
 20
239.887030
 30
0.0
 10
347.819423
 20
239.887030
 30
0.0
 10
348.841758
 20
240.308908
 30
0.0
 10
349.666630
 20
241.112071
 30
0.0
  0
SPLINE
  5
24b
100
AcDbEntity
  8
Ebene_1
 62
7
100
AcDbSpline
 70
8
 71
3
 72
8
 73
4
 74
0
 40
0
 40
0
 40
0
 40
0
 40
1
 40
1
 40
1
 40
1
 10
349.666630
 20
241.112071
 30
0.0
 10
350.496319
 20
241.919929
 30
0.0
 10
350.929793
 20
242.958957
 30
0.0
 10
350.929793
 20
244.132224
 30
0.0
  0
LWPOLYLINE
  5
24c
100
AcDbEntity
  8
Ebene_1
 62
7
100
AcDbPolyline
 90
2
 70
0
 10
331.478131
 20
239.887030
 30
0.0
 10
346.684596
 20
239.887030
 30
0.0
  0
LWPOLYLINE
  5
24d
100
AcDbEntity
  8
Ebene_1
 62
7
100
AcDbPolyline
 90
3
 70
0
 10
350.929793
 20
244.132224
 30
0.0
 10
350.929793
 20
244.575803
 30
0.0
 10
327.232809
 20
244.575887
 30
0.0
  0
SPLINE
  5
24e
100
AcDbEntity
  8
Ebene_1
 62
7
100
AcDbSpline
 70
8
 71
3
 72
8
 73
4
 74
0
 40
0
 40
0
 40
0
 40
0
 40
1
 40
1
 40
1
 40
1
 10
209.070851
 20
244.132307
 30
0.0
 10
209.070851
 20
242.979667
 30
0.0
 10
209.491374
 20
241.947082
 30
0.0
 10
210.295894
 20
241.120818
 30
0.0
  0
LWPOLYLINE
  5
24f
100
AcDbEntity
  8
Ebene_1
 62
7
100
AcDbPolyline
 90
2
 70
0
 10
209.070851
 20
244.575887
 30
0.0
 10
209.070851
 20
244.132307
 30
0.0
  0
SPLINE
  5
250
100
AcDbEntity
  8
Ebene_1
 62
7
100
AcDbSpline
 70
8
 71
3
 72
8
 73
4
 74
0
 40
0
 40
0
 40
0
 40
0
 40
1
 40
1
 40
1
 40
1
 10
210.299442
 20
241.117270
 30
0.0
 10
211.108354
 20
240.308362
 30
0.0
 10
212.145603
 20
239.887030
 30
0.0
 10
213.316129
 20
239.887030
 30
0.0
  0
LWPOLYLINE
  5
251
100
AcDbEntity
  8
Ebene_1
 62
7
100
AcDbPolyline
 90
3
 70
0
 10
210.295894
 20
241.120818
 30
0.0
 10
210.297668
 20
241.119044
 30
0.0
 10
210.299442
 20
241.117270
 30
0.0
  0
SPLINE
  5
252
100
AcDbEntity
  8
Ebene_1
 62
7
100
AcDbSpline
 70
8
 71
3
 72
8
 73
4
 74
0
 40
0
 40
0
 40
0
 40
0
 40
1
 40
1
 40
1
 40
1
 10
228.522593
 20
239.887113
 30
0.0
 10
229.657420
 20
239.887113
 30
0.0
 10
230.679756
 20
240.308992
 30
0.0
 10
231.504627
 20
241.112154
 30
0.0
  0
SPLINE
  5
253
100
AcDbEntity
  8
Ebene_1
 62
7
100
AcDbSpline
 70
8
 71
3
 72
8
 73
4
 74
0
 40
0
 40
0
 40
0
 40
0
 40
1
 40
1
 40
1
 40
1
 10
231.504627
 20
241.112154
 30
0.0
 10
232.334316
 20
241.920011
 30
0.0
 10
232.767782
 20
242.959039
 30
0.0
 10
232.767782
 20
244.132307
 30
0.0
  0
LWPOLYLINE
  5
254
100
AcDbEntity
  8
Ebene_1
 62
7
100
AcDbPolyline
 90
7
 70
0
 10
213.316129
 20
239.887030
 30
0.0
 10
218.574977
 20
239.887030
 30
0.0
 10
218.574977
 20
224.680653
 30
0.0
 10
219.018556
 20
224.680653
 30
0.0
 10
223.263745
 20
224.680653
 30
0.0
 10
223.263745
 20
239.887113
 30
0.0
 10
228.522593
 20
239.887113
 30
0.0
  0
LWPOLYLINE
  5
255
100
AcDbEntity
  8
Ebene_1
 62
7
100
AcDbPolyline
 90
3
 70
0
 10
232.767782
 20
244.132307
 30
0.0
 10
232.767782
 20
244.575887
 30
0.0
 10
209.070851
 20
244.575887
 30
0.0
  0
SPLINE
  5
256
100
AcDbEntity
  8
Ebene_1
 62
7
100
AcDbSpline
 70
8
 71
3
 72
8
 73
4
 74
0
 40
0
 40
0
 40
0
 40
0
 40
1
 40
1
 40
1
 40
1
 10
238.610478
 20
228.925847
 30
0.0
 10
238.610478
 20
227.773207
 30
0.0
 10
239.031000
 20
226.740622
 30
0.0
 10
239.835521
 20
225.914359
 30
0.0
  0
LWPOLYLINE
  5
257
100
AcDbEntity
  8
Ebene_1
 62
7
100
AcDbPolyline
 90
2
 70
0
 10
238.610478
 20
229.369427
 30
0.0
 10
238.610478
 20
228.925847
 30
0.0
  0
SPLINE
  5
258
100
AcDbEntity
  8
Ebene_1
 62
7
100
AcDbSpline
 70
8
 71
3
 72
8
 73
4
 74
0
 40
0
 40
0
 40
0
 40
0
 40
1
 40
1
 40
1
 40
1
 10
239.839069
 20
225.909124
 30
0.0
 10
240.647972
 20
225.100216
 30
0.0
 10
241.685220
 20
224.680617
 30
0.0
 10
242.855756
 20
224.680617
 30
0.0
  0
LWPOLYLINE
  5
259
100
AcDbEntity
  8
Ebene_1
 62
7
100
AcDbPolyline
 90
3
 70
0
 10
239.835521
 20
225.914359
 30
0.0
 10
239.837295
 20
225.912584
 30
0.0
 10
239.839069
 20
225.909124
 30
0.0
  0
SPLINE
  5
25a
100
AcDbEntity
  8
Ebene_1
 62
7
100
AcDbSpline
 70
8
 71
3
 72
8
 73
4
 74
0
 40
0
 40
0
 40
0
 40
0
 40
1
 40
1
 40
1
 40
1
 10
258.062211
 20
224.680617
 30
0.0
 10
259.197038
 20
224.680617
 30
0.0
 10
260.221112
 20
225.102496
 30
0.0
 10
261.045975
 20
225.905658
 30
0.0
  0
SPLINE
  5
25b
100
AcDbEntity
  8
Ebene_1
 62
7
100
AcDbSpline
 70
8
 71
3
 72
8
 73
4
 74
0
 40
0
 40
0
 40
0
 40
0
 40
1
 40
1
 40
1
 40
1
 10
261.045975
 20
225.905658
 30
0.0
 10
261.875673
 20
226.713515
 30
0.0
 10
262.307409
 20
227.752543
 30
0.0
 10
262.307409
 20
228.925811
 30
0.0
  0
LWPOLYLINE
  5
25c
100
AcDbEntity
  8
Ebene_1
 62
7
100
AcDbPolyline
 90
2
 70
0
 10
242.855756
 20
224.680617
 30
0.0
 10
258.062211
 20
224.680617
 30
0.0
  0
LWPOLYLINE
  5
25d
100
AcDbEntity
  8
Ebene_1
 62
7
100
AcDbPolyline
 90
3
 70
0
 10
262.307409
 20
228.925811
 30
0.0
 10
262.307409
 20
229.369391
 30
0.0
 10
238.610478
 20
229.369427
 30
0.0
  0
SPLINE
  5
25e
100
AcDbEntity
  8
Ebene_1
 62
7
100
AcDbSpline
 70
8
 71
3
 72
8
 73
4
 74
0
 40
0
 40
0
 40
0
 40
0
 40
1
 40
1
 40
1
 40
1
 10
238.610478
 20
236.529078
 30
0.0
 10
238.610478
 20
235.376436
 30
0.0
 10
239.031000
 20
234.343852
 30
0.0
 10
239.835521
 20
233.517589
 30
0.0
  0
LWPOLYLINE
  5
25f
100
AcDbEntity
  8
Ebene_1
 62
7
100
AcDbPolyline
 90
2
 70
0
 10
238.610478
 20
236.972657
 30
0.0
 10
238.610478
 20
236.529078
 30
0.0
  0
SPLINE
  5
260
100
AcDbEntity
  8
Ebene_1
 62
7
100
AcDbSpline
 70
8
 71
3
 72
8
 73
4
 74
0
 40
0
 40
0
 40
0
 40
0
 40
1
 40
1
 40
1
 40
1
 10
239.839069
 20
233.512355
 30
0.0
 10
240.647972
 20
232.703448
 30
0.0
 10
241.685220
 20
232.283847
 30
0.0
 10
242.855756
 20
232.283847
 30
0.0
  0
LWPOLYLINE
  5
261
100
AcDbEntity
  8
Ebene_1
 62
7
100
AcDbPolyline
 90
3
 70
0
 10
239.835521
 20
233.517589
 30
0.0
 10
239.837295
 20
233.515815
 30
0.0
 10
239.839069
 20
233.512355
 30
0.0
  0
SPLINE
  5
262
100
AcDbEntity
  8
Ebene_1
 62
7
100
AcDbSpline
 70
8
 71
3
 72
8
 73
4
 74
0
 40
0
 40
0
 40
0
 40
0
 40
1
 40
1
 40
1
 40
1
 10
258.062211
 20
232.283847
 30
0.0
 10
259.197038
 20
232.283847
 30
0.0
 10
260.221112
 20
232.705726
 30
0.0
 10
261.045975
 20
233.508889
 30
0.0
  0
SPLINE
  5
263
100
AcDbEntity
  8
Ebene_1
 62
7
100
AcDbSpline
 70
8
 71
3
 72
8
 73
4
 74
0
 40
0
 40
0
 40
0
 40
0
 40
1
 40
1
 40
1
 40
1
 10
261.045975
 20
233.508889
 30
0.0
 10
261.875673
 20
234.316746
 30
0.0
 10
262.307409
 20
235.355774
 30
0.0
 10
262.307409
 20
236.529042
 30
0.0
  0
LWPOLYLINE
  5
264
100
AcDbEntity
  8
Ebene_1
 62
7
100
AcDbPolyline
 90
2
 70
0
 10
242.855756
 20
232.283847
 30
0.0
 10
258.062211
 20
232.283847
 30
0.0
  0
LWPOLYLINE
  5
265
100
AcDbEntity
  8
Ebene_1
 62
7
100
AcDbPolyline
 90
3
 70
0
 10
262.307409
 20
236.529042
 30
0.0
 10
262.307409
 20
236.972622
 30
0.0
 10
238.610478
 20
236.972657
 30
0.0
  0
SPLINE
  5
266
100
AcDbEntity
  8
Ebene_1
 62
7
100
AcDbSpline
 70
8
 71
3
 72
8
 73
4
 74
0
 40
0
 40
0
 40
0
 40
0
 40
1
 40
1
 40
1
 40
1
 10
238.610478
 20
244.132307
 30
0.0
 10
238.610478
 20
242.979667
 30
0.0
 10
239.031000
 20
241.947082
 30
0.0
 10
239.835521
 20
241.120818
 30
0.0
  0
LWPOLYLINE
  5
267
100
AcDbEntity
  8
Ebene_1
 62
7
100
AcDbPolyline
 90
2
 70
0
 10
238.610478
 20
244.575887
 30
0.0
 10
238.610478
 20
244.132307
 30
0.0
  0
SPLINE
  5
268
100
AcDbEntity
  8
Ebene_1
 62
7
100
AcDbSpline
 70
8
 71
3
 72
8
 73
4
 74
0
 40
0
 40
0
 40
0
 40
0
 40
1
 40
1
 40
1
 40
1
 10
239.839069
 20
241.117270
 30
0.0
 10
240.647972
 20
240.308362
 30
0.0
 10
241.685220
 20
239.887030
 30
0.0
 10
242.855756
 20
239.887030
 30
0.0
  0
LWPOLYLINE
  5
269
100
AcDbEntity
  8
Ebene_1
 62
7
100
AcDbPolyline
 90
3
 70
0
 10
239.835521
 20
241.120818
 30
0.0
 10
239.837295
 20
241.119044
 30
0.0
 10
239.839069
 20
241.117270
 30
0.0
  0
SPLINE
  5
26a
100
AcDbEntity
  8
Ebene_1
 62
7
100
AcDbSpline
 70
8
 71
3
 72
8
 73
4
 74
0
 40
0
 40
0
 40
0
 40
0
 40
1
 40
1
 40
1
 40
1
 10
258.062211
 20
239.887030
 30
0.0
 10
259.197038
 20
239.887030
 30
0.0
 10
260.221112
 20
240.308908
 30
0.0
 10
261.045975
 20
241.112071
 30
0.0
  0
SPLINE
  5
26b
100
AcDbEntity
  8
Ebene_1
 62
7
100
AcDbSpline
 70
8
 71
3
 72
8
 73
4
 74
0
 40
0
 40
0
 40
0
 40
0
 40
1
 40
1
 40
1
 40
1
 10
261.045975
 20
241.112071
 30
0.0
 10
261.875673
 20
241.919928
 30
0.0
 10
262.307409
 20
242.958956
 30
0.0
 10
262.307409
 20
244.132224
 30
0.0
  0
LWPOLYLINE
  5
26c
100
AcDbEntity
  8
Ebene_1
 62
7
100
AcDbPolyline
 90
2
 70
0
 10
242.855756
 20
239.887030
 30
0.0
 10
258.062211
 20
239.887030
 30
0.0
  0
LWPOLYLINE
  5
26d
100
AcDbEntity
  8
Ebene_1
 62
7
100
AcDbPolyline
 90
3
 70
0
 10
262.307409
 20
244.132224
 30
0.0
 10
262.307409
 20
244.575803
 30
0.0
 10
238.610478
 20
244.575887
 30
0.0
  0
SPLINE
  5
26e
100
AcDbEntity
  8
Ebene_1
 62
7
100
AcDbSpline
 70
8
 71
3
 72
8
 73
4
 74
0
 40
0
 40
0
 40
0
 40
0
 40
1
 40
1
 40
1
 40
1
 10
272.397024
 20
229.369427
 30
0.0
 10
271.241597
 20
229.369427
 30
0.0
 10
270.205661
 20
228.936788
 30
0.0
 10
269.380337
 20
228.111464
 30
0.0
  0
SPLINE
  5
26f
100
AcDbEntity
  8
Ebene_1
 62
7
100
AcDbSpline
 70
8
 71
3
 72
8
 73
4
 74
0
 40
0
 40
0
 40
0
 40
0
 40
1
 40
1
 40
1
 40
1
 10
269.380337
 20
228.111464
 30
0.0
 10
268.572845
 20
227.303968
 30
0.0
 10
268.151835
 20
226.276873
 30
0.0
 10
268.151835
 20
225.124233
 30
0.0
  0
LWPOLYLINE
  5
270
100
AcDbEntity
  8
Ebene_1
 62
7
100
AcDbPolyline
 90
5
 70
0
 10
268.151835
 20
244.575887
 30
0.0
 10
268.151835
 20
232.283883
 30
0.0
 10
287.159908
 20
232.283883
 30
0.0
 10
287.159908
 20
229.369427
 30
0.0
 10
272.397024
 20
229.369427
 30
0.0
  0
SPLINE
  5
271
100
AcDbEntity
  8
Ebene_1
 62
7
100
AcDbSpline
 70
8
 71
3
 72
8
 73
4
 74
0
 40
0
 40
0
 40
0
 40
0
 40
1
 40
1
 40
1
 40
1
 10
287.603488
 20
239.887113
 30
0.0
 10
288.738315
 20
239.887113
 30
0.0
 10
289.760651
 20
240.308992
 30
0.0
 10
290.585522
 20
241.112154
 30
0.0
  0
SPLINE
  5
272
100
AcDbEntity
  8
Ebene_1
 62
7
100
AcDbSpline
 70
8
 71
3
 72
8
 73
4
 74
0
 40
0
 40
0
 40
0
 40
0
 40
1
 40
1
 40
1
 40
1
 10
290.585522
 20
241.112154
 30
0.0
 10
291.415211
 20
241.920012
 30
0.0
 10
291.848677
 20
242.959040
 30
0.0
 10
291.848677
 20
244.132307
 30
0.0
  0
LWPOLYLINE
  5
273
100
AcDbEntity
  8
Ebene_1
 62
7
100
AcDbPolyline
 90
8
 70
0
 10
268.151835
 20
225.124233
 30
0.0
 10
268.151835
 20
224.680653
 30
0.0
 10
268.595414
 20
224.680653
 30
0.0
 10
291.848677
 20
224.680653
 30
0.0
 10
291.848677
 20
236.972657
 30
0.0
 10
272.840603
 20
236.972657
 30
0.0
 10
272.840603
 20
239.887113
 30
0.0
 10
287.603488
 20
239.887113
 30
0.0
  0
LWPOLYLINE
  5
274
100
AcDbEntity
  8
Ebene_1
 62
7
100
AcDbPolyline
 90
3
 70
0
 10
291.848677
 20
244.132307
 30
0.0
 10
291.848677
 20
244.575887
 30
0.0
 10
268.151835
 20
244.575887
 30
0.0
  0
SPLINE
  5
275
100
AcDbEntity
  8
Ebene_1
 62
7
100
AcDbSpline
 70
8
 71
3
 72
8
 73
4
 74
0
 40
0
 40
0
 40
0
 40
0
 40
1
 40
1
 40
1
 40
1
 10
317.143106
 20
224.680653
 30
0.0
 10
318.277933
 20
224.680653
 30
0.0
 10
319.302007
 20
225.102532
 30
0.0
 10
320.126870
 20
225.905695
 30
0.0
  0
SPLINE
  5
276
100
AcDbEntity
  8
Ebene_1
 62
7
100
AcDbSpline
 70
8
 71
3
 72
8
 73
4
 74
0
 40
0
 40
0
 40
0
 40
0
 40
1
 40
1
 40
1
 40
1
 10
320.126870
 20
225.905695
 30
0.0
 10
320.956559
 20
226.713552
 30
0.0
 10
321.388304
 20
227.752581
 30
0.0
 10
321.388304
 20
228.925847
 30
0.0
  0
LWPOLYLINE
  5
277
100
AcDbEntity
  8
Ebene_1
 62
7
100
AcDbPolyline
 90
4
 70
0
 10
297.691453
 20
244.575887
 30
0.0
 10
297.691453
 20
224.680653
 30
0.0
 10
298.135032
 20
224.680653
 30
0.0
 10
317.143106
 20
224.680653
 30
0.0
  0
LWPOLYLINE
  5
278
100
AcDbEntity
  8
Ebene_1
 62
7
100
AcDbPolyline
 90
5
 70
0
 10
321.388304
 20
228.925847
 30
0.0
 10
321.388304
 20
229.369427
 30
0.0
 10
302.380230
 20
229.369427
 30
0.0
 10
302.380230
 20
244.575887
 30
0.0
 10
297.691453
 20
244.575887
 30
0.0
  0
SPLINE
  5
279
100
AcDbEntity
  8
Ebene_1
 62
7
100
AcDbSpline
 70
8
 71
3
 72
8
 73
4
 74
0
 40
0
 40
0
 40
0
 40
0
 40
1
 40
1
 40
1
 40
1
 10
361.000000
 20
271.000000
 30
0.0
 10
363.770000
 20
271.000000
 30
0.0
 10
366.000000
 20
268.770000
 30
0.0
 10
366.000000
 20
266.000000
 30
0.0
  0
LWPOLYLINE
  5
27a
100
AcDbEntity
  8
Ebene_1
 62
7
100
AcDbPolyline
 90
2
 70
0
 10
199.000000
 20
271.000000
 30
0.0
 10
361.000000
 20
271.000000
 30
0.0
  0
SPLINE
  5
27b
100
AcDbEntity
  8
Ebene_1
 62
7
100
AcDbSpline
 70
8
 71
3
 72
8
 73
4
 74
0
 40
0
 40
0
 40
0
 40
0
 40
1
 40
1
 40
1
 40
1
 10
366.000000
 20
29.000000
 30
0.0
 10
366.000000
 20
26.230000
 30
0.0
 10
363.770000
 20
24.000000
 30
0.0
 10
361.000000
 20
24.000000
 30
0.0
  0
LWPOLYLINE
  5
27c
100
AcDbEntity
  8
Ebene_1
 62
7
100
AcDbPolyline
 90
2
 70
0
 10
366.000000
 20
266.000000
 30
0.0
 10
366.000000
 20
29.000000
 30
0.0
  0
SPLINE
  5
27d
100
AcDbEntity
  8
Ebene_1
 62
7
100
AcDbSpline
 70
8
 71
3
 72
8
 73
4
 74
0
 40
0
 40
0
 40
0
 40
0
 40
1
 40
1
 40
1
 40
1
 10
199.000000
 20
24.000000
 30
0.0
 10
196.230000
 20
24.000000
 30
0.0
 10
194.000000
 20
26.230000
 30
0.0
 10
194.000000
 20
29.000000
 30
0.0
  0
LWPOLYLINE
  5
27e
100
AcDbEntity
  8
Ebene_1
 62
7
100
AcDbPolyline
 90
2
 70
0
 10
361.000000
 20
24.000000
 30
0.0
 10
199.000000
 20
24.000000
 30
0.0
  0
SPLINE
  5
27f
100
AcDbEntity
  8
Ebene_1
 62
7
100
AcDbSpline
 70
8
 71
3
 72
8
 73
4
 74
0
 40
0
 40
0
 40
0
 40
0
 40
1
 40
1
 40
1
 40
1
 10
194.000000
 20
266.000000
 30
0.0
 10
194.000000
 20
268.770000
 30
0.0
 10
196.230000
 20
271.000000
 30
0.0
 10
199.000000
 20
271.000000
 30
0.0
  0
LWPOLYLINE
  5
280
100
AcDbEntity
  8
Ebene_1
 62
7
100
AcDbPolyline
 90
2
 70
0
 10
194.000000
 20
29.000000
 30
0.0
 10
194.000000
 20
266.000000
 30
0.0
  0
SPLINE
  5
281
100
AcDbEntity
  8
Ebene_1
 62
7
100
AcDbSpline
 70
8
 71
3
 72
8
 73
4
 74
0
 40
0
 40
0
 40
0
 40
0
 40
1
 40
1
 40
1
 40
1
 10
212.883360
 20
254.616669
 30
0.0
 10
212.883360
 20
253.953628
 30
0.0
 10
212.619968
 20
253.317743
 30
0.0
 10
212.151127
 20
252.848902
 30
0.0
  0
SPLINE
  5
282
100
AcDbEntity
  8
Ebene_1
 62
7
100
AcDbSpline
 70
8
 71
3
 72
8
 73
4
 74
0
 40
0
 40
0
 40
0
 40
0
 40
1
 40
1
 40
1
 40
1
 10
212.151127
 20
252.848902
 30
0.0
 10
211.682286
 20
252.380061
 30
0.0
 10
211.046401
 20
252.116669
 30
0.0
 10
210.383360
 20
252.116669
 30
0.0
  0
SPLINE
  5
283
100
AcDbEntity
  8
Ebene_1
 62
7
100
AcDbSpline
 70
8
 71
3
 72
8
 73
4
 74
0
 40
0
 40
0
 40
0
 40
0
 40
1
 40
1
 40
1
 40
1
 10
210.383360
 20
252.116669
 30
0.0
 10
209.720319
 20
252.116669
 30
0.0
 10
209.084434
 20
252.380061
 30
0.0
 10
208.615593
 20
252.848902
 30
0.0
  0
SPLINE
  5
284
100
AcDbEntity
  8
Ebene_1
 62
7
100
AcDbSpline
 70
8
 71
3
 72
8
 73
4
 74
0
 40
0
 40
0
 40
0
 40
0
 40
1
 40
1
 40
1
 40
1
 10
208.615593
 20
252.848902
 30
0.0
 10
208.146752
 20
253.317743
 30
0.0
 10
207.883360
 20
253.953628
 30
0.0
 10
207.883360
 20
254.616669
 30
0.0
  0
SPLINE
  5
285
100
AcDbEntity
  8
Ebene_1
 62
7
100
AcDbSpline
 70
8
 71
3
 72
8
 73
4
 74
0
 40
0
 40
0
 40
0
 40
0
 40
1
 40
1
 40
1
 40
1
 10
207.883360
 20
254.616669
 30
0.0
 10
207.883360
 20
255.279710
 30
0.0
 10
208.146752
 20
255.915595
 30
0.0
 10
208.615593
 20
256.384436
 30
0.0
  0
SPLINE
  5
286
100
AcDbEntity
  8
Ebene_1
 62
7
100
AcDbSpline
 70
8
 71
3
 72
8
 73
4
 74
0
 40
0
 40
0
 40
0
 40
0
 40
1
 40
1
 40
1
 40
1
 10
208.615593
 20
256.384436
 30
0.0
 10
209.084434
 20
256.853277
 30
0.0
 10
209.720319
 20
257.116669
 30
0.0
 10
210.383360
 20
257.116669
 30
0.0
  0
SPLINE
  5
287
100
AcDbEntity
  8
Ebene_1
 62
7
100
AcDbSpline
 70
8
 71
3
 72
8
 73
4
 74
0
 40
0
 40
0
 40
0
 40
0
 40
1
 40
1
 40
1
 40
1
 10
210.383360
 20
257.116669
 30
0.0
 10
211.046401
 20
257.116669
 30
0.0
 10
211.682286
 20
256.853277
 30
0.0
 10
212.151127
 20
256.384436
 30
0.0
  0
SPLINE
  5
288
100
AcDbEntity
  8
Ebene_1
 62
7
100
AcDbSpline
 70
8
 71
3
 72
8
 73
4
 74
0
 40
0
 40
0
 40
0
 40
0
 40
1
 40
1
 40
1
 40
1
 10
212.151127
 20
256.384436
 30
0.0
 10
212.619968
 20
255.915595
 30
0.0
 10
212.883360
 20
255.279710
 30
0.0
 10
212.883360
 20
254.616669
 30
0.0
  0
SPLINE
  5
289
100
AcDbEntity
  8
Ebene_1
 62
7
100
AcDbSpline
 70
8
 71
3
 72
8
 73
4
 74
0
 40
0
 40
0
 40
0
 40
0
 40
1
 40
1
 40
1
 40
1
 10
352.116700
 20
254.616669
 30
0.0
 10
352.116700
 20
253.953628
 30
0.0
 10
351.853308
 20
253.317743
 30
0.0
 10
351.384467
 20
252.848902
 30
0.0
  0
SPLINE
  5
28a
100
AcDbEntity
  8
Ebene_1
 62
7
100
AcDbSpline
 70
8
 71
3
 72
8
 73
4
 74
0
 40
0
 40
0
 40
0
 40
0
 40
1
 40
1
 40
1
 40
1
 10
351.384467
 20
252.848902
 30
0.0
 10
350.915626
 20
252.380061
 30
0.0
 10
350.279741
 20
252.116669
 30
0.0
 10
349.616700
 20
252.116669
 30
0.0
  0
SPLINE
  5
28b
100
AcDbEntity
  8
Ebene_1
 62
7
100
AcDbSpline
 70
8
 71
3
 72
8
 73
4
 74
0
 40
0
 40
0
 40
0
 40
0
 40
1
 40
1
 40
1
 40
1
 10
349.616700
 20
252.116669
 30
0.0
 10
348.953659
 20
252.116669
 30
0.0
 10
348.317774
 20
252.380061
 30
0.0
 10
347.848933
 20
252.848902
 30
0.0
  0
SPLINE
  5
28c
100
AcDbEntity
  8
Ebene_1
 62
7
100
AcDbSpline
 70
8
 71
3
 72
8
 73
4
 74
0
 40
0
 40
0
 40
0
 40
0
 40
1
 40
1
 40
1
 40
1
 10
347.848933
 20
252.848902
 30
0.0
 10
347.380092
 20
253.317743
 30
0.0
 10
347.116700
 20
253.953628
 30
0.0
 10
347.116700
 20
254.616669
 30
0.0
  0
SPLINE
  5
28d
100
AcDbEntity
  8
Ebene_1
 62
7
100
AcDbSpline
 70
8
 71
3
 72
8
 73
4
 74
0
 40
0
 40
0
 40
0
 40
0
 40
1
 40
1
 40
1
 40
1
 10
347.116700
 20
254.616669
 30
0.0
 10
347.116700
 20
255.279710
 30
0.0
 10
347.380092
 20
255.915595
 30
0.0
 10
347.848933
 20
256.384436
 30
0.0
  0
SPLINE
  5
28e
100
AcDbEntity
  8
Ebene_1
 62
7
100
AcDbSpline
 70
8
 71
3
 72
8
 73
4
 74
0
 40
0
 40
0
 40
0
 40
0
 40
1
 40
1
 40
1
 40
1
 10
347.848933
 20
256.384436
 30
0.0
 10
348.317774
 20
256.853277
 30
0.0
 10
348.953659
 20
257.116669
 30
0.0
 10
349.616700
 20
257.116669
 30
0.0
  0
SPLINE
  5
28f
100
AcDbEntity
  8
Ebene_1
 62
7
100
AcDbSpline
 70
8
 71
3
 72
8
 73
4
 74
0
 40
0
 40
0
 40
0
 40
0
 40
1
 40
1
 40
1
 40
1
 10
349.616700
 20
257.116669
 30
0.0
 10
350.279741
 20
257.116669
 30
0.0
 10
350.915626
 20
256.853277
 30
0.0
 10
351.384467
 20
256.384436
 30
0.0
  0
SPLINE
  5
290
100
AcDbEntity
  8
Ebene_1
 62
7
100
AcDbSpline
 70
8
 71
3
 72
8
 73
4
 74
0
 40
0
 40
0
 40
0
 40
0
 40
1
 40
1
 40
1
 40
1
 10
351.384467
 20
256.384436
 30
0.0
 10
351.853308
 20
255.915595
 30
0.0
 10
352.116700
 20
255.279710
 30
0.0
 10
352.116700
 20
254.616669
 30
0.0
  0
SPLINE
  5
291
100
AcDbEntity
  8
Ebene_1
 62
7
100
AcDbSpline
 70
8
 71
3
 72
8
 73
4
 74
0
 40
0
 40
0
 40
0
 40
0
 40
1
 40
1
 40
1
 40
1
 10
352.116700
 20
40.383300
 30
0.0
 10
352.116700
 20
39.720259
 30
0.0
 10
351.853308
 20
39.084374
 30
0.0
 10
351.384467
 20
38.615533
 30
0.0
  0
SPLINE
  5
292
100
AcDbEntity
  8
Ebene_1
 62
7
100
AcDbSpline
 70
8
 71
3
 72
8
 73
4
 74
0
 40
0
 40
0
 40
0
 40
0
 40
1
 40
1
 40
1
 40
1
 10
351.384467
 20
38.615533
 30
0.0
 10
350.915626
 20
38.146692
 30
0.0
 10
350.279741
 20
37.883300
 30
0.0
 10
349.616700
 20
37.883300
 30
0.0
  0
SPLINE
  5
293
100
AcDbEntity
  8
Ebene_1
 62
7
100
AcDbSpline
 70
8
 71
3
 72
8
 73
4
 74
0
 40
0
 40
0
 40
0
 40
0
 40
1
 40
1
 40
1
 40
1
 10
349.616700
 20
37.883300
 30
0.0
 10
348.953659
 20
37.883300
 30
0.0
 10
348.317774
 20
38.146692
 30
0.0
 10
347.848933
 20
38.615533
 30
0.0
  0
SPLINE
  5
294
100
AcDbEntity
  8
Ebene_1
 62
7
100
AcDbSpline
 70
8
 71
3
 72
8
 73
4
 74
0
 40
0
 40
0
 40
0
 40
0
 40
1
 40
1
 40
1
 40
1
 10
347.848933
 20
38.615533
 30
0.0
 10
347.380092
 20
39.084374
 30
0.0
 10
347.116700
 20
39.720259
 30
0.0
 10
347.116700
 20
40.383300
 30
0.0
  0
SPLINE
  5
295
100
AcDbEntity
  8
Ebene_1
 62
7
100
AcDbSpline
 70
8
 71
3
 72
8
 73
4
 74
0
 40
0
 40
0
 40
0
 40
0
 40
1
 40
1
 40
1
 40
1
 10
347.116700
 20
40.383300
 30
0.0
 10
347.116700
 20
41.046341
 30
0.0
 10
347.380092
 20
41.682226
 30
0.0
 10
347.848933
 20
42.151067
 30
0.0
  0
SPLINE
  5
296
100
AcDbEntity
  8
Ebene_1
 62
7
100
AcDbSpline
 70
8
 71
3
 72
8
 73
4
 74
0
 40
0
 40
0
 40
0
 40
0
 40
1
 40
1
 40
1
 40
1
 10
347.848933
 20
42.151067
 30
0.0
 10
348.317774
 20
42.619908
 30
0.0
 10
348.953659
 20
42.883300
 30
0.0
 10
349.616700
 20
42.883300
 30
0.0
  0
SPLINE
  5
297
100
AcDbEntity
  8
Ebene_1
 62
7
100
AcDbSpline
 70
8
 71
3
 72
8
 73
4
 74
0
 40
0
 40
0
 40
0
 40
0
 40
1
 40
1
 40
1
 40
1
 10
349.616700
 20
42.883300
 30
0.0
 10
350.279741
 20
42.883300
 30
0.0
 10
350.915626
 20
42.619908
 30
0.0
 10
351.384467
 20
42.151067
 30
0.0
  0
SPLINE
  5
298
100
AcDbEntity
  8
Ebene_1
 62
7
100
AcDbSpline
 70
8
 71
3
 72
8
 73
4
 74
0
 40
0
 40
0
 40
0
 40
0
 40
1
 40
1
 40
1
 40
1
 10
351.384467
 20
42.151067
 30
0.0
 10
351.853308
 20
41.682226
 30
0.0
 10
352.116700
 20
41.046341
 30
0.0
 10
352.116700
 20
40.383300
 30
0.0
  0
SPLINE
  5
299
100
AcDbEntity
  8
Ebene_1
 62
7
100
AcDbSpline
 70
8
 71
3
 72
8
 73
4
 74
0
 40
0
 40
0
 40
0
 40
0
 40
1
 40
1
 40
1
 40
1
 10
212.883360
 20
40.383300
 30
0.0
 10
212.883360
 20
39.720259
 30
0.0
 10
212.619968
 20
39.084374
 30
0.0
 10
212.151127
 20
38.615533
 30
0.0
  0
SPLINE
  5
29a
100
AcDbEntity
  8
Ebene_1
 62
7
100
AcDbSpline
 70
8
 71
3
 72
8
 73
4
 74
0
 40
0
 40
0
 40
0
 40
0
 40
1
 40
1
 40
1
 40
1
 10
212.151127
 20
38.615533
 30
0.0
 10
211.682286
 20
38.146692
 30
0.0
 10
211.046401
 20
37.883300
 30
0.0
 10
210.383360
 20
37.883300
 30
0.0
  0
SPLINE
  5
29b
100
AcDbEntity
  8
Ebene_1
 62
7
100
AcDbSpline
 70
8
 71
3
 72
8
 73
4
 74
0
 40
0
 40
0
 40
0
 40
0
 40
1
 40
1
 40
1
 40
1
 10
210.383360
 20
37.883300
 30
0.0
 10
209.720319
 20
37.883300
 30
0.0
 10
209.084434
 20
38.146692
 30
0.0
 10
208.615593
 20
38.615533
 30
0.0
  0
SPLINE
  5
29c
100
AcDbEntity
  8
Ebene_1
 62
7
100
AcDbSpline
 70
8
 71
3
 72
8
 73
4
 74
0
 40
0
 40
0
 40
0
 40
0
 40
1
 40
1
 40
1
 40
1
 10
208.615593
 20
38.615533
 30
0.0
 10
208.146752
 20
39.084374
 30
0.0
 10
207.883360
 20
39.720259
 30
0.0
 10
207.883360
 20
40.383300
 30
0.0
  0
SPLINE
  5
29d
100
AcDbEntity
  8
Ebene_1
 62
7
100
AcDbSpline
 70
8
 71
3
 72
8
 73
4
 74
0
 40
0
 40
0
 40
0
 40
0
 40
1
 40
1
 40
1
 40
1
 10
207.883360
 20
40.383300
 30
0.0
 10
207.883360
 20
41.046341
 30
0.0
 10
208.146752
 20
41.682226
 30
0.0
 10
208.615593
 20
42.151067
 30
0.0
  0
SPLINE
  5
29e
100
AcDbEntity
  8
Ebene_1
 62
7
100
AcDbSpline
 70
8
 71
3
 72
8
 73
4
 74
0
 40
0
 40
0
 40
0
 40
0
 40
1
 40
1
 40
1
 40
1
 10
208.615593
 20
42.151067
 30
0.0
 10
209.084434
 20
42.619908
 30
0.0
 10
209.720319
 20
42.883300
 30
0.0
 10
210.383360
 20
42.883300
 30
0.0
  0
SPLINE
  5
29f
100
AcDbEntity
  8
Ebene_1
 62
7
100
AcDbSpline
 70
8
 71
3
 72
8
 73
4
 74
0
 40
0
 40
0
 40
0
 40
0
 40
1
 40
1
 40
1
 40
1
 10
210.383360
 20
42.883300
 30
0.0
 10
211.046401
 20
42.883300
 30
0.0
 10
211.682286
 20
42.619908
 30
0.0
 10
212.151127
 20
42.151067
 30
0.0
  0
SPLINE
  5
2a0
100
AcDbEntity
  8
Ebene_1
 62
7
100
AcDbSpline
 70
8
 71
3
 72
8
 73
4
 74
0
 40
0
 40
0
 40
0
 40
0
 40
1
 40
1
 40
1
 40
1
 10
212.151127
 20
42.151067
 30
0.0
 10
212.619968
 20
41.682226
 30
0.0
 10
212.883360
 20
41.046341
 30
0.0
 10
212.883360
 20
40.383300
 30
0.0
  0
LWPOLYLINE
  5
2a1
100
AcDbEntity
  8
Ebene_1
 62
7
100
AcDbPolyline
 90
1
 70
1
 10
199.000000
 20
271.000000
 30
0.0
  0
ENDSEC
  0
SECTION
  2
OBJECTS
  0
DICTIONARY
  5
C
330
0
100
AcDbDictionary
  3
ACAD_GROUP
350
D
  3
ACAD_MLINESTYLE
350
17
  0
DICTIONARY
  5
D
330
C
100
AcDbDictionary
  0
DICTIONARY
  5
1A
330
C
100
AcDbDictionary
  0
DICTIONARY
  5
17
330
C
100
AcDbDictionary
  3
STANDARD
350
18
  0
DICTIONARY
  5
19
330
C
100
AcDbDictionary
  0
ENDSEC
  0
EOF
