  0
SECTION
  2
HEADER
  9
$ACADVER
  1
AC1014
  9
$HANDSEED
  5
FFFF
  9
$MEASUREMENT
 70
     1
  0
ENDSEC
  0
SECTION
  2
TABLES
  0
TABLE
  2
VPORT
  5
8
330
0
100
AcDbSymbolTable
 70
     4
  0
VPORT
  5
2E
330
8
100
AcDbSymbolTableRecord
100
AcDbViewportTableRecord
  2
*ACTIVE
 70
     0
 10
0.0
 20
0.0
 11
1.0
 21
1.0
 12
210.0
 22
148.5
 13
0.0
 23
0.0
 14
10.0
 24
10.0
 15
10.0
 25
10.0
 16
0.0
 26
0.0
 36
1.0
 17
0.0
 27
0.0
 37
0.0
 40
341.0
 41
1.24
 42
50.0
 43
0.0
 44
0.0
 50
0.0
 51
0.0
 71
     0
 72
   100
 73
     1
 74
     3
 75
     0
 76
     0
 77
     0
 78
     0
  0
ENDTAB
  0
TABLE
  2
LTYPE
  5
5
330
0
100
AcDbSymbolTable
 70
     1
  0
LTYPE
  5
14
330
5
100
AcDbSymbolTableRecord
100
AcDbLinetypeTableRecord
  2
BYBLOCK
 70
     0
  3

 72
    65
 73
     0
 40
0.0
  0
LTYPE
  5
15
330
5
100
AcDbSymbolTableRecord
100
AcDbLinetypeTableRecord
  2
BYLAYER
 70
     0
  3

 72
    65
 73
     0
 40
0.0
  0
LTYPE
  5
16
330
5
100
AcDbSymbolTableRecord
100
AcDbLinetypeTableRecord
  2
CONTINUOUS
 70
     0
  3
Solid line
 72
    65
 73
     0
 40
0.0
  0
ENDTAB
  0
TABLE
  2
LAYER
  5
2
100
AcDbSymbolTable
 70
2
  0
LAYER
  5
50
100
AcDbSymbolTableRecord
100
AcDbLayerTableRecord
  2
0
 70
0
  6
CONTINUOUS
  0
LAYER
  5
51
100
AcDbSymbolTableRecord
100
AcDbLayerTableRecord
  2
Ebene_1
 70
0
  6
CONTINUOUS
  0
ENDTAB
  0
TABLE
  2
STYLE
  5
3
330
0
100
AcDbSymbolTable
 70
     1
  0
STYLE
  5
11
330
3
100
AcDbSymbolTableRecord
100
AcDbTextStyleTableRecord
  2
STANDARD
 70
     0
 40
0.0
 41
1.0
 50
0.0
 71
     0
 42
2.5
  3
txt
  4

  0
ENDTAB
  0
TABLE
  2
VIEW
  5
6
330
0
100
AcDbSymbolTable
 70
     0
  0
ENDTAB
  0
TABLE
  2
UCS
  5
7
330
0
100
AcDbSymbolTable
 70
     0
  0
ENDTAB
  0
TABLE
  2
APPID
  5
9
330
0
100
AcDbSymbolTable
 70
     2
  0
APPID
  5
12
330
9
100
AcDbSymbolTableRecord
100
AcDbRegAppTableRecord
  2
ACAD
 70
     0
  0
ENDTAB
  0
TABLE
  2
DIMSTYLE
  5
A
330
0
100
AcDbSymbolTable
 70
     1
  0
DIMSTYLE
105
27
330
A
100
AcDbSymbolTableRecord
100
AcDbDimStyleTableRecord
  2
ISO-25
 70
     0
  3

  4

  5

  6

  7

 40
1.0
 41
2.5
 42
0.625
 43
3.75
 44
1.25
 45
0.0
 46
0.0
 47
0.0
 48
0.0
140
2.5
141
2.5
142
0.0
143
0.03937007874016
144
1.0
145
0.0
146
1.0
147
0.625
 71
     0
 72
     0
 73
     0
 74
     0
 75
     0
 76
     0
 77
     1
 78
     8
170
     0
171
     3
172
     1
173
     0
174
     0
175
     0
176
     0
177
     0
178
     0
270
     2
271
     2
272
     2
273
     2
274
     3
340
11
275
     0
280
     0
281
     0
282
     0
283
     0
284
     8
285
     0
286
     0
287
     3
288
     0
  0
ENDTAB
  0
TABLE
  2
BLOCK_RECORD
  5
1
330
0
100
AcDbSymbolTable
 70
     1
  0
BLOCK_RECORD
  5
1F
330
1
100
AcDbSymbolTableRecord
100
AcDbBlockTableRecord
  2
*MODEL_SPACE
  0
BLOCK_RECORD
  5
1B
330
1
100
AcDbSymbolTableRecord
100
AcDbBlockTableRecord
  2
*PAPER_SPACE
  0
ENDTAB
  0
ENDSEC
  0
SECTION
  2
BLOCKS
  0
BLOCK
  5
20
330
1F
100
AcDbEntity
  8
0
100
AcDbBlockBegin
  2
*MODEL_SPACE
 70
     0
 10
0.0
 20
0.0
 30
0.0
  3
*MODEL_SPACE
  1

  0
ENDBLK
  5
21
330
1F
100
AcDbEntity
  8
0
100
AcDbBlockEnd
  0
BLOCK
  5
1C
330
1B
100
AcDbEntity
 67
     1
  8
0
100
AcDbBlockBegin
  2
*PAPER_SPACE
  1

  0
ENDBLK
  5
1D
330
1B
100
AcDbEntity
 67
     1
  8
0
100
AcDbBlockEnd
  0
ENDSEC
  0
SECTION
  2
ENTITIES
  0
SPLINE
  5
100
100
AcDbEntity
  8
Ebene_1
 62
7
100
AcDbSpline
 70
8
 71
3
 72
8
 73
4
 74
0
 40
0
 40
0
 40
0
 40
0
 40
1
 40
1
 40
1
 40
1
 10
42.817704
 20
273.804662
 30
0.0
 10
25.801186
 20
273.804662
 30
0.0
 10
12.007181
 20
260.029274
 30
0.0
 10
12.007181
 20
243.035730
 30
0.0
  0
LWPOLYLINE
  5
101
100
AcDbEntity
  8
Ebene_1
 62
7
100
AcDbPolyline
 90
4
 70
1
 10
0.000000
 20
299.599980
 30
0.0
 10
380.000000
 20
299.599980
 30
0.0
 10
380.000000
 20
0.000000
 30
0.0
 10
0.000000
 20
0.000000
 30
0.0
  0
SPLINE
  5
102
100
AcDbEntity
  8
Ebene_1
 62
7
100
AcDbSpline
 70
8
 71
3
 72
8
 73
4
 74
0
 40
0
 40
0
 40
0
 40
0
 40
1
 40
1
 40
1
 40
1
 10
12.007181
 20
57.965694
 30
0.0
 10
12.007181
 20
40.972142
 30
0.0
 10
25.801186
 20
27.196754
 30
0.0
 10
42.817704
 20
27.196754
 30
0.0
  0
LWPOLYLINE
  5
103
100
AcDbEntity
  8
Ebene_1
 62
7
100
AcDbPolyline
 90
2
 70
0
 10
12.007181
 20
243.035730
 30
0.0
 10
12.007181
 20
57.965694
 30
0.0
  0
SPLINE
  5
104
100
AcDbEntity
  8
Ebene_1
 62
7
100
AcDbSpline
 70
8
 71
3
 72
8
 73
4
 74
0
 40
0
 40
0
 40
0
 40
0
 40
1
 40
1
 40
1
 40
1
 10
154.010494
 20
27.196754
 30
0.0
 10
171.027012
 20
27.196754
 30
0.0
 10
184.821017
 20
40.972142
 30
0.0
 10
184.821017
 20
57.965694
 30
0.0
  0
LWPOLYLINE
  5
105
100
AcDbEntity
  8
Ebene_1
 62
7
100
AcDbPolyline
 90
2
 70
0
 10
42.817704
 20
27.196754
 30
0.0
 10
154.010494
 20
27.196754
 30
0.0
  0
SPLINE
  5
106
100
AcDbEntity
  8
Ebene_1
 62
7
100
AcDbSpline
 70
8
 71
3
 72
8
 73
4
 74
0
 40
0
 40
0
 40
0
 40
0
 40
1
 40
1
 40
1
 40
1
 10
184.821017
 20
243.035730
 30
0.0
 10
184.821017
 20
260.029274
 30
0.0
 10
171.027012
 20
273.804662
 30
0.0
 10
154.010494
 20
273.804662
 30
0.0
  0
LWPOLYLINE
  5
107
100
AcDbEntity
  8
Ebene_1
 62
7
100
AcDbPolyline
 90
2
 70
0
 10
184.821017
 20
57.965694
 30
0.0
 10
184.821017
 20
243.035730
 30
0.0
  0
LWPOLYLINE
  5
108
100
AcDbEntity
  8
Ebene_1
 62
7
100
AcDbPolyline
 90
2
 70
0
 10
154.010494
 20
273.804662
 30
0.0
 10
42.817704
 20
273.804662
 30
0.0
  0
SPLINE
  5
109
100
AcDbEntity
  8
Ebene_1
 62
7
100
AcDbSpline
 70
8
 71
3
 72
8
 73
4
 74
0
 40
0
 40
0
 40
0
 40
0
 40
1
 40
1
 40
1
 40
1
 10
154.010494
 20
267.789834
 30
0.0
 10
167.794472
 20
267.789834
 30
0.0
 10
178.798059
 20
256.801090
 30
0.0
 10
178.798059
 20
243.035730
 30
0.0
  0
LWPOLYLINE
  5
10a
100
AcDbEntity
  8
Ebene_1
 62
7
100
AcDbPolyline
 90
2
 70
0
 10
42.817704
 20
267.789834
 30
0.0
 10
154.010494
 20
267.789834
 30
0.0
  0
SPLINE
  5
10b
100
AcDbEntity
  8
Ebene_1
 62
7
100
AcDbSpline
 70
8
 71
3
 72
8
 73
4
 74
0
 40
0
 40
0
 40
0
 40
0
 40
1
 40
1
 40
1
 40
1
 10
178.798059
 20
57.965694
 30
0.0
 10
178.798059
 20
44.200325
 30
0.0
 10
167.794472
 20
33.211590
 30
0.0
 10
154.010494
 20
33.211590
 30
0.0
  0
LWPOLYLINE
  5
10c
100
AcDbEntity
  8
Ebene_1
 62
7
100
AcDbPolyline
 90
2
 70
0
 10
178.798059
 20
243.035730
 30
0.0
 10
178.798059
 20
57.965694
 30
0.0
  0
SPLINE
  5
10d
100
AcDbEntity
  8
Ebene_1
 62
7
100
AcDbSpline
 70
8
 71
3
 72
8
 73
4
 74
0
 40
0
 40
0
 40
0
 40
0
 40
1
 40
1
 40
1
 40
1
 10
42.817704
 20
33.211590
 30
0.0
 10
29.033717
 20
33.211590
 30
0.0
 10
18.030139
 20
44.200325
 30
0.0
 10
18.030139
 20
57.965694
 30
0.0
  0
LWPOLYLINE
  5
10e
100
AcDbEntity
  8
Ebene_1
 62
7
100
AcDbPolyline
 90
2
 70
0
 10
154.010494
 20
33.211590
 30
0.0
 10
42.817704
 20
33.211590
 30
0.0
  0
SPLINE
  5
10f
100
AcDbEntity
  8
Ebene_1
 62
7
100
AcDbSpline
 70
8
 71
3
 72
8
 73
4
 74
0
 40
0
 40
0
 40
0
 40
0
 40
1
 40
1
 40
1
 40
1
 10
18.030139
 20
243.035730
 30
0.0
 10
18.030139
 20
256.801090
 30
0.0
 10
29.033717
 20
267.789834
 30
0.0
 10
42.817704
 20
267.789834
 30
0.0
  0
LWPOLYLINE
  5
110
100
AcDbEntity
  8
Ebene_1
 62
7
100
AcDbPolyline
 90
2
 70
0
 10
18.030139
 20
57.965694
 30
0.0
 10
18.030139
 20
243.035730
 30
0.0
  0
SPLINE
  5
111
100
AcDbEntity
  8
Ebene_1
 62
7
100
AcDbSpline
 70
8
 71
3
 72
8
 73
4
 74
0
 40
0
 40
0
 40
0
 40
0
 40
1
 40
1
 40
1
 40
1
 10
32.345252
 20
46.449678
 30
0.0
 10
32.345248
 20
45.231986
 30
0.0
 10
31.358112
 20
44.244854
 30
0.0
 10
30.140420
 20
44.244854
 30
0.0
  0
SPLINE
  5
112
100
AcDbEntity
  8
Ebene_1
 62
7
100
AcDbSpline
 70
8
 71
3
 72
8
 73
4
 74
0
 40
0
 40
0
 40
0
 40
0
 40
1
 40
1
 40
1
 40
1
 10
30.140420
 20
44.244854
 30
0.0
 10
28.922728
 20
44.244854
 30
0.0
 10
27.935592
 20
45.231986
 30
0.0
 10
27.935587
 20
46.449678
 30
0.0
  0
SPLINE
  5
113
100
AcDbEntity
  8
Ebene_1
 62
7
100
AcDbSpline
 70
8
 71
3
 72
8
 73
4
 74
0
 40
0
 40
0
 40
0
 40
0
 40
1
 40
1
 40
1
 40
1
 10
27.935587
 20
46.449678
 30
0.0
 10
27.935587
 20
47.034436
 30
0.0
 10
28.167882
 20
47.595243
 30
0.0
 10
28.581368
 20
48.008730
 30
0.0
  0
SPLINE
  5
114
100
AcDbEntity
  8
Ebene_1
 62
7
100
AcDbSpline
 70
8
 71
3
 72
8
 73
4
 74
0
 40
0
 40
0
 40
0
 40
0
 40
1
 40
1
 40
1
 40
1
 10
28.581368
 20
48.008730
 30
0.0
 10
28.994854
 20
48.422216
 30
0.0
 10
29.555662
 20
48.654510
 30
0.0
 10
30.140420
 20
48.654510
 30
0.0
  0
SPLINE
  5
115
100
AcDbEntity
  8
Ebene_1
 62
7
100
AcDbSpline
 70
8
 71
3
 72
8
 73
4
 74
0
 40
0
 40
0
 40
0
 40
0
 40
1
 40
1
 40
1
 40
1
 10
30.140420
 20
48.654510
 30
0.0
 10
30.725178
 20
48.654510
 30
0.0
 10
31.285986
 20
48.422216
 30
0.0
 10
31.699472
 20
48.008730
 30
0.0
  0
SPLINE
  5
116
100
AcDbEntity
  8
Ebene_1
 62
7
100
AcDbSpline
 70
8
 71
3
 72
8
 73
4
 74
0
 40
0
 40
0
 40
0
 40
0
 40
1
 40
1
 40
1
 40
1
 10
31.699472
 20
48.008730
 30
0.0
 10
32.112958
 20
47.595243
 30
0.0
 10
32.345252
 20
47.034436
 30
0.0
 10
32.345252
 20
46.449678
 30
0.0
  0
LWPOLYLINE
  5
117
100
AcDbEntity
  8
Ebene_1
 62
7
100
AcDbPolyline
 90
1
 70
1
 10
42.817704
 20
267.789834
 30
0.0
  0
SPLINE
  5
118
100
AcDbEntity
  8
Ebene_1
 62
7
100
AcDbSpline
 70
8
 71
3
 72
8
 73
4
 74
0
 40
0
 40
0
 40
0
 40
0
 40
1
 40
1
 40
1
 40
1
 10
168.968739
 20
46.706920
 30
0.0
 10
168.968744
 20
46.122159
 30
0.0
 10
168.736452
 20
45.561347
 30
0.0
 10
168.322965
 20
45.147857
 30
0.0
  0
SPLINE
  5
119
100
AcDbEntity
  8
Ebene_1
 62
7
100
AcDbSpline
 70
8
 71
3
 72
8
 73
4
 74
0
 40
0
 40
0
 40
0
 40
0
 40
1
 40
1
 40
1
 40
1
 10
168.322965
 20
45.147857
 30
0.0
 10
167.909478
 20
44.734366
 30
0.0
 10
167.348667
 20
44.502070
 30
0.0
 10
166.763906
 20
44.502070
 30
0.0
  0
SPLINE
  5
11a
100
AcDbEntity
  8
Ebene_1
 62
7
100
AcDbSpline
 70
8
 71
3
 72
8
 73
4
 74
0
 40
0
 40
0
 40
0
 40
0
 40
1
 40
1
 40
1
 40
1
 10
166.763906
 20
44.502070
 30
0.0
 10
166.179145
 20
44.502070
 30
0.0
 10
165.618335
 20
44.734366
 30
0.0
 10
165.204848
 20
45.147857
 30
0.0
  0
SPLINE
  5
11b
100
AcDbEntity
  8
Ebene_1
 62
7
100
AcDbSpline
 70
8
 71
3
 72
8
 73
4
 74
0
 40
0
 40
0
 40
0
 40
0
 40
1
 40
1
 40
1
 40
1
 10
165.204848
 20
45.147857
 30
0.0
 10
164.791361
 20
45.561347
 30
0.0
 10
164.559069
 20
46.122159
 30
0.0
 10
164.559074
 20
46.706920
 30
0.0
  0
SPLINE
  5
11c
100
AcDbEntity
  8
Ebene_1
 62
7
100
AcDbSpline
 70
8
 71
3
 72
8
 73
4
 74
0
 40
0
 40
0
 40
0
 40
0
 40
1
 40
1
 40
1
 40
1
 10
164.559074
 20
46.706920
 30
0.0
 10
164.559079
 20
47.924612
 30
0.0
 10
165.546215
 20
48.911744
 30
0.0
 10
166.763906
 20
48.911744
 30
0.0
  0
SPLINE
  5
11d
100
AcDbEntity
  8
Ebene_1
 62
7
100
AcDbSpline
 70
8
 71
3
 72
8
 73
4
 74
0
 40
0
 40
0
 40
0
 40
0
 40
1
 40
1
 40
1
 40
1
 10
166.763906
 20
48.911744
 30
0.0
 10
167.981598
 20
48.911744
 30
0.0
 10
168.968734
 20
47.924612
 30
0.0
 10
168.968739
 20
46.706920
 30
0.0
  0
LWPOLYLINE
  5
11e
100
AcDbEntity
  8
Ebene_1
 62
7
100
AcDbPolyline
 90
1
 70
1
 10
32.345252
 20
46.449678
 30
0.0
  0
SPLINE
  5
11f
100
AcDbEntity
  8
Ebene_1
 62
7
100
AcDbSpline
 70
8
 71
3
 72
8
 73
4
 74
0
 40
0
 40
0
 40
0
 40
0
 40
1
 40
1
 40
1
 40
1
 10
169.302092
 20
254.037280
 30
0.0
 10
169.302087
 20
252.819588
 30
0.0
 10
168.314951
 20
251.832456
 30
0.0
 10
167.097259
 20
251.832456
 30
0.0
  0
SPLINE
  5
120
100
AcDbEntity
  8
Ebene_1
 62
7
100
AcDbSpline
 70
8
 71
3
 72
8
 73
4
 74
0
 40
0
 40
0
 40
0
 40
0
 40
1
 40
1
 40
1
 40
1
 10
167.097259
 20
251.832456
 30
0.0
 10
165.879568
 20
251.832456
 30
0.0
 10
164.892432
 20
252.819588
 30
0.0
 10
164.892427
 20
254.037280
 30
0.0
  0
SPLINE
  5
121
100
AcDbEntity
  8
Ebene_1
 62
7
100
AcDbSpline
 70
8
 71
3
 72
8
 73
4
 74
0
 40
0
 40
0
 40
0
 40
0
 40
1
 40
1
 40
1
 40
1
 10
164.892427
 20
254.037280
 30
0.0
 10
164.892425
 20
254.622039
 30
0.0
 10
165.124718
 20
255.182849
 30
0.0
 10
165.538204
 20
255.596337
 30
0.0
  0
SPLINE
  5
122
100
AcDbEntity
  8
Ebene_1
 62
7
100
AcDbSpline
 70
8
 71
3
 72
8
 73
4
 74
0
 40
0
 40
0
 40
0
 40
0
 40
1
 40
1
 40
1
 40
1
 10
165.538204
 20
255.596337
 30
0.0
 10
165.951691
 20
256.009826
 30
0.0
 10
166.512500
 20
256.242121
 30
0.0
 10
167.097259
 20
256.242121
 30
0.0
  0
SPLINE
  5
123
100
AcDbEntity
  8
Ebene_1
 62
7
100
AcDbSpline
 70
8
 71
3
 72
8
 73
4
 74
0
 40
0
 40
0
 40
0
 40
0
 40
1
 40
1
 40
1
 40
1
 10
167.097259
 20
256.242121
 30
0.0
 10
167.682019
 20
256.242121
 30
0.0
 10
168.242828
 20
256.009826
 30
0.0
 10
168.656315
 20
255.596337
 30
0.0
  0
SPLINE
  5
124
100
AcDbEntity
  8
Ebene_1
 62
7
100
AcDbSpline
 70
8
 71
3
 72
8
 73
4
 74
0
 40
0
 40
0
 40
0
 40
0
 40
1
 40
1
 40
1
 40
1
 10
168.656315
 20
255.596337
 30
0.0
 10
169.069801
 20
255.182849
 30
0.0
 10
169.302094
 20
254.622039
 30
0.0
 10
169.302092
 20
254.037280
 30
0.0
  0
LWPOLYLINE
  5
125
100
AcDbEntity
  8
Ebene_1
 62
7
100
AcDbPolyline
 90
1
 70
1
 10
168.968739
 20
46.706920
 30
0.0
  0
SPLINE
  5
126
100
AcDbEntity
  8
Ebene_1
 62
7
100
AcDbSpline
 70
8
 71
3
 72
8
 73
4
 74
0
 40
0
 40
0
 40
0
 40
0
 40
1
 40
1
 40
1
 40
1
 10
32.602477
 20
254.037280
 30
0.0
 10
32.602472
 20
252.819588
 30
0.0
 10
31.615336
 20
251.832456
 30
0.0
 10
30.397644
 20
251.832456
 30
0.0
  0
SPLINE
  5
127
100
AcDbEntity
  8
Ebene_1
 62
7
100
AcDbSpline
 70
8
 71
3
 72
8
 73
4
 74
0
 40
0
 40
0
 40
0
 40
0
 40
1
 40
1
 40
1
 40
1
 10
30.397644
 20
251.832456
 30
0.0
 10
29.179953
 20
251.832456
 30
0.0
 10
28.192817
 20
252.819588
 30
0.0
 10
28.192812
 20
254.037280
 30
0.0
  0
SPLINE
  5
128
100
AcDbEntity
  8
Ebene_1
 62
7
100
AcDbSpline
 70
8
 71
3
 72
8
 73
4
 74
0
 40
0
 40
0
 40
0
 40
0
 40
1
 40
1
 40
1
 40
1
 10
28.192812
 20
254.037280
 30
0.0
 10
28.192810
 20
254.622039
 30
0.0
 10
28.425103
 20
255.182849
 30
0.0
 10
28.838589
 20
255.596337
 30
0.0
  0
SPLINE
  5
129
100
AcDbEntity
  8
Ebene_1
 62
7
100
AcDbSpline
 70
8
 71
3
 72
8
 73
4
 74
0
 40
0
 40
0
 40
0
 40
0
 40
1
 40
1
 40
1
 40
1
 10
28.838589
 20
255.596337
 30
0.0
 10
29.252076
 20
256.009826
 30
0.0
 10
29.812885
 20
256.242121
 30
0.0
 10
30.397644
 20
256.242121
 30
0.0
  0
SPLINE
  5
12a
100
AcDbEntity
  8
Ebene_1
 62
7
100
AcDbSpline
 70
8
 71
3
 72
8
 73
4
 74
0
 40
0
 40
0
 40
0
 40
0
 40
1
 40
1
 40
1
 40
1
 10
30.397644
 20
256.242121
 30
0.0
 10
30.982404
 20
256.242121
 30
0.0
 10
31.543213
 20
256.009826
 30
0.0
 10
31.956700
 20
255.596337
 30
0.0
  0
SPLINE
  5
12b
100
AcDbEntity
  8
Ebene_1
 62
7
100
AcDbSpline
 70
8
 71
3
 72
8
 73
4
 74
0
 40
0
 40
0
 40
0
 40
0
 40
1
 40
1
 40
1
 40
1
 10
31.956700
 20
255.596337
 30
0.0
 10
32.370186
 20
255.182849
 30
0.0
 10
32.602479
 20
254.622039
 30
0.0
 10
32.602477
 20
254.037280
 30
0.0
  0
LWPOLYLINE
  5
12c
100
AcDbEntity
  8
Ebene_1
 62
7
100
AcDbPolyline
 90
1
 70
1
 10
169.302092
 20
254.037280
 30
0.0
  0
SPLINE
  5
12d
100
AcDbEntity
  8
Ebene_1
 62
7
100
AcDbSpline
 70
8
 71
3
 72
8
 73
4
 74
0
 40
0
 40
0
 40
0
 40
0
 40
1
 40
1
 40
1
 40
1
 10
98.340682
 20
84.998020
 30
0.0
 10
98.159322
 20
85.954450
 30
0.0
 10
82.555064
 20
173.073090
 30
0.0
 10
82.555064
 20
173.129170
 30
0.0
  0
SPLINE
  5
12e
100
AcDbEntity
  8
Ebene_1
 62
7
100
AcDbSpline
 70
8
 71
3
 72
8
 73
4
 74
0
 40
0
 40
0
 40
0
 40
0
 40
1
 40
1
 40
1
 40
1
 10
82.555064
 20
173.129170
 30
0.0
 10
82.555064
 20
173.208670
 30
0.0
 10
77.946217
 20
173.092270
 30
0.0
 10
75.629584
 20
172.954040
 30
0.0
  0
SPLINE
  5
12f
100
AcDbEntity
  8
Ebene_1
 62
7
100
AcDbSpline
 70
8
 71
3
 72
8
 73
4
 74
0
 40
0
 40
0
 40
0
 40
0
 40
1
 40
1
 40
1
 40
1
 10
75.629584
 20
172.954040
 30
0.0
 10
68.735381
 20
172.542910
 30
0.0
 10
65.189498
 20
171.335610
 30
0.0
 10
63.475703
 20
168.815900
 30
0.0
  0
SPLINE
  5
130
100
AcDbEntity
  8
Ebene_1
 62
7
100
AcDbSpline
 70
8
 71
3
 72
8
 73
4
 74
0
 40
0
 40
0
 40
0
 40
0
 40
1
 40
1
 40
1
 40
1
 10
63.475703
 20
168.815900
 30
0.0
 10
62.843792
 20
167.886860
 30
0.0
 10
62.579996
 20
167.224500
 30
0.0
 10
62.304240
 20
165.874610
 30
0.0
  0
SPLINE
  5
131
100
AcDbEntity
  8
Ebene_1
 62
7
100
AcDbSpline
 70
8
 71
3
 72
8
 73
4
 74
0
 40
0
 40
0
 40
0
 40
0
 40
1
 40
1
 40
1
 40
1
 10
62.304240
 20
165.874610
 30
0.0
 10
62.192290
 20
165.326130
 30
0.0
 10
62.080089
 20
164.856940
 30
0.0
 10
62.055106
 20
164.831990
 30
0.0
  0
SPLINE
  5
132
100
AcDbEntity
  8
Ebene_1
 62
7
100
AcDbSpline
 70
8
 71
3
 72
8
 73
4
 74
0
 40
0
 40
0
 40
0
 40
0
 40
1
 40
1
 40
1
 40
1
 10
62.055106
 20
164.831990
 30
0.0
 10
61.971096
 20
164.747890
 30
0.0
 10
59.106119
 20
166.109400
 30
0.0
 10
57.670638
 20
166.915320
 30
0.0
  0
SPLINE
  5
133
100
AcDbEntity
  8
Ebene_1
 62
7
100
AcDbSpline
 70
8
 71
3
 72
8
 73
4
 74
0
 40
0
 40
0
 40
0
 40
0
 40
1
 40
1
 40
1
 40
1
 10
57.670638
 20
166.915320
 30
0.0
 10
53.377005
 20
169.325830
 30
0.0
 10
50.006194
 20
172.116830
 30
0.0
 10
47.713096
 20
175.160030
 30
0.0
  0
SPLINE
  5
134
100
AcDbEntity
  8
Ebene_1
 62
7
100
AcDbSpline
 70
8
 71
3
 72
8
 73
4
 74
0
 40
0
 40
0
 40
0
 40
0
 40
1
 40
1
 40
1
 40
1
 10
47.713096
 20
175.160030
 30
0.0
 10
47.376223
 20
175.607100
 30
0.0
 10
47.100582
 20
176.009500
 30
0.0
 10
47.100582
 20
176.054220
 30
0.0
  0
SPLINE
  5
135
100
AcDbEntity
  8
Ebene_1
 62
7
100
AcDbSpline
 70
8
 71
3
 72
8
 73
4
 74
0
 40
0
 40
0
 40
0
 40
0
 40
1
 40
1
 40
1
 40
1
 10
47.100582
 20
176.054220
 30
0.0
 10
47.100582
 20
176.098920
 30
0.0
 10
47.275009
 20
176.207750
 30
0.0
 10
47.488184
 20
176.295980
 30
0.0
  0
SPLINE
  5
136
100
AcDbEntity
  8
Ebene_1
 62
7
100
AcDbSpline
 70
8
 71
3
 72
8
 73
4
 74
0
 40
0
 40
0
 40
0
 40
0
 40
1
 40
1
 40
1
 40
1
 10
47.488184
 20
176.295980
 30
0.0
 10
47.701396
 20
176.384380
 30
0.0
 10
48.620080
 20
176.780170
 30
0.0
 10
49.529676
 20
177.175910
 30
0.0
  0
SPLINE
  5
137
100
AcDbEntity
  8
Ebene_1
 62
7
100
AcDbSpline
 70
8
 71
3
 72
8
 73
4
 74
0
 40
0
 40
0
 40
0
 40
0
 40
1
 40
1
 40
1
 40
1
 10
49.529676
 20
177.175910
 30
0.0
 10
59.951628
 20
181.709890
 30
0.0
 10
73.498586
 20
184.879080
 30
0.0
 10
85.656042
 20
185.627310
 30
0.0
  0
LWPOLYLINE
  5
138
100
AcDbEntity
  8
Ebene_1
 62
7
100
AcDbPolyline
 90
1
 70
1
 10
32.602477
 20
254.037280
 30
0.0
  0
SPLINE
  5
139
100
AcDbEntity
  8
Ebene_1
 62
7
100
AcDbSpline
 70
8
 71
3
 72
8
 73
4
 74
0
 40
0
 40
0
 40
0
 40
0
 40
1
 40
1
 40
1
 40
1
 10
92.566923
 20
178.595310
 30
0.0
 10
95.770984
 20
174.691000
 30
0.0
 10
98.427939
 20
171.535660
 30
0.0
 10
98.471239
 20
171.583470
 30
0.0
  0
SPLINE
  5
13a
100
AcDbEntity
  8
Ebene_1
 62
7
100
AcDbSpline
 70
8
 71
3
 72
8
 73
4
 74
0
 40
0
 40
0
 40
0
 40
0
 40
1
 40
1
 40
1
 40
1
 10
98.471239
 20
171.583470
 30
0.0
 10
98.514639
 20
171.631070
 30
0.0
 10
101.115050
 20
174.796200
 30
0.0
 10
104.250060
 20
178.616710
 30
0.0
  0
SPLINE
  5
13b
100
AcDbEntity
  8
Ebene_1
 62
7
100
AcDbSpline
 70
8
 71
3
 72
8
 73
4
 74
0
 40
0
 40
0
 40
0
 40
0
 40
1
 40
1
 40
1
 40
1
 10
104.250060
 20
178.616710
 30
0.0
 10
107.385160
 20
182.437180
 30
0.0
 10
109.998090
 20
185.592610
 30
0.0
 10
110.056600
 20
185.628780
 30
0.0
  0
SPLINE
  5
13c
100
AcDbEntity
  8
Ebene_1
 62
7
100
AcDbSpline
 70
8
 71
3
 72
8
 73
4
 74
0
 40
0
 40
0
 40
0
 40
0
 40
1
 40
1
 40
1
 40
1
 10
110.056600
 20
185.628780
 30
0.0
 10
110.178610
 20
185.704180
 30
0.0
 10
112.786010
 20
185.536080
 30
0.0
 10
115.063470
 20
185.305870
 30
0.0
  0
SPLINE
  5
13d
100
AcDbEntity
  8
Ebene_1
 62
7
100
AcDbSpline
 70
8
 71
3
 72
8
 73
4
 74
0
 40
0
 40
0
 40
0
 40
0
 40
1
 40
1
 40
1
 40
1
 10
115.063470
 20
185.305870
 30
0.0
 10
124.667950
 20
184.334990
 30
0.0
 10
134.314140
 20
182.112540
 30
0.0
 10
143.075620
 20
178.851900
 30
0.0
  0
SPLINE
  5
13e
100
AcDbEntity
  8
Ebene_1
 62
7
100
AcDbSpline
 70
8
 71
3
 72
8
 73
4
 74
0
 40
0
 40
0
 40
0
 40
0
 40
1
 40
1
 40
1
 40
1
 10
143.075620
 20
178.851900
 30
0.0
 10
145.143370
 20
178.082340
 30
0.0
 10
148.469460
 20
176.708860
 30
0.0
 10
149.336920
 20
176.266320
 30
0.0
  0
LWPOLYLINE
  5
13f
100
AcDbEntity
  8
Ebene_1
 62
7
100
AcDbPolyline
 90
3
 70
0
 10
85.656042
 20
185.627310
 30
0.0
 10
86.741351
 20
185.694010
 30
0.0
 10
92.566923
 20
178.595310
 30
0.0
  0
SPLINE
  5
140
100
AcDbEntity
  8
Ebene_1
 62
7
100
AcDbSpline
 70
8
 71
3
 72
8
 73
4
 74
0
 40
0
 40
0
 40
0
 40
0
 40
1
 40
1
 40
1
 40
1
 10
149.219420
 20
175.340830
 30
0.0
 10
147.187920
 20
172.547710
 30
0.0
 10
144.003120
 20
169.802930
 30
0.0
 10
140.059070
 20
167.445910
 30
0.0
  0
SPLINE
  5
141
100
AcDbEntity
  8
Ebene_1
 62
7
100
AcDbSpline
 70
8
 71
3
 72
8
 73
4
 74
0
 40
0
 40
0
 40
0
 40
0
 40
1
 40
1
 40
1
 40
1
 10
140.059070
 20
167.445910
 30
0.0
 10
138.974380
 20
166.797680
 30
0.0
 10
135.383680
 20
164.995460
 30
0.0
 10
134.894100
 20
164.853520
 30
0.0
  0
SPLINE
  5
142
100
AcDbEntity
  8
Ebene_1
 62
7
100
AcDbSpline
 70
8
 71
3
 72
8
 73
4
 74
0
 40
0
 40
0
 40
0
 40
0
 40
1
 40
1
 40
1
 40
1
 10
134.894100
 20
164.853520
 30
0.0
 10
134.692060
 20
164.794920
 30
0.0
 10
134.664970
 20
164.838920
 30
0.0
 10
134.597750
 20
165.335440
 30
0.0
  0
SPLINE
  5
143
100
AcDbEntity
  8
Ebene_1
 62
7
100
AcDbSpline
 70
8
 71
3
 72
8
 73
4
 74
0
 40
0
 40
0
 40
0
 40
0
 40
1
 40
1
 40
1
 40
1
 10
134.597750
 20
165.335440
 30
0.0
 10
134.557050
 20
165.635970
 30
0.0
 10
134.410120
 20
166.275970
 30
0.0
 10
134.271200
 20
166.757700
 30
0.0
  0
SPLINE
  5
144
100
AcDbEntity
  8
Ebene_1
 62
7
100
AcDbSpline
 70
8
 71
3
 72
8
 73
4
 74
0
 40
0
 40
0
 40
0
 40
0
 40
1
 40
1
 40
1
 40
1
 10
134.271200
 20
166.757700
 30
0.0
 10
133.177330
 20
170.551080
 30
0.0
 10
129.945280
 20
172.235510
 30
0.0
 10
122.557490
 20
172.862460
 30
0.0
  0
SPLINE
  5
145
100
AcDbEntity
  8
Ebene_1
 62
7
100
AcDbSpline
 70
8
 71
3
 72
8
 73
4
 74
0
 40
0
 40
0
 40
0
 40
0
 40
1
 40
1
 40
1
 40
1
 10
122.557490
 20
172.862460
 30
0.0
 10
120.948880
 20
172.999030
 30
0.0
 10
114.258810
 20
173.174100
 30
0.0
 10
114.174730
 20
173.081930
 30
0.0
  0
SPLINE
  5
146
100
AcDbEntity
  8
Ebene_1
 62
7
100
AcDbSpline
 70
8
 71
3
 72
8
 73
4
 74
0
 40
0
 40
0
 40
0
 40
0
 40
1
 40
1
 40
1
 40
1
 10
114.174730
 20
173.081930
 30
0.0
 10
114.131830
 20
173.034830
 30
0.0
 10
101.216770
 20
100.585560
 30
0.0
 10
98.491139
 20
85.101300
 30
0.0
  0
LWPOLYLINE
  5
147
100
AcDbEntity
  8
Ebene_1
 62
7
100
AcDbPolyline
 90
3
 70
0
 10
149.336920
 20
176.266320
 30
0.0
 10
149.742180
 20
176.059540
 30
0.0
 10
149.219420
 20
175.340830
 30
0.0
  0
SPLINE
  5
148
100
AcDbEntity
  8
Ebene_1
 62
7
100
AcDbSpline
 70
8
 71
3
 72
8
 73
4
 74
0
 40
0
 40
0
 40
0
 40
0
 40
1
 40
1
 40
1
 40
1
 10
149.742730
 20
179.962620
 30
0.0
 10
137.397350
 20
185.169220
 30
0.0
 10
123.371550
 20
188.482370
 30
0.0
 10
109.378350
 20
189.497370
 30
0.0
  0
SPLINE
  5
149
100
AcDbEntity
  8
Ebene_1
 62
7
100
AcDbSpline
 70
8
 71
3
 72
8
 73
4
 74
0
 40
0
 40
0
 40
0
 40
0
 40
1
 40
1
 40
1
 40
1
 10
109.378350
 20
189.497370
 30
0.0
 10
104.882640
 20
189.823470
 30
0.0
 10
95.542898
 20
189.930260
 30
0.0
 10
91.020313
 20
189.707280
 30
0.0
  0
SPLINE
  5
14a
100
AcDbEntity
  8
Ebene_1
 62
7
100
AcDbSpline
 70
8
 71
3
 72
8
 73
4
 74
0
 40
0
 40
0
 40
0
 40
0
 40
1
 40
1
 40
1
 40
1
 10
91.020313
 20
189.707280
 30
0.0
 10
75.347460
 20
188.934520
 30
0.0
 10
60.928091
 20
185.740480
 30
0.0
 10
47.070218
 20
179.971880
 30
0.0
  0
SPLINE
  5
14b
100
AcDbEntity
  8
Ebene_1
 62
7
100
AcDbSpline
 70
8
 71
3
 72
8
 73
4
 74
0
 40
0
 40
0
 40
0
 40
0
 40
1
 40
1
 40
1
 40
1
 10
47.070218
 20
179.971880
 30
0.0
 10
46.115496
 20
179.574430
 30
0.0
 10
45.274878
 20
179.272070
 30
0.0
 10
45.202234
 20
179.299950
 30
0.0
  0
SPLINE
  5
14c
100
AcDbEntity
  8
Ebene_1
 62
7
100
AcDbSpline
 70
8
 71
3
 72
8
 73
4
 74
0
 40
0
 40
0
 40
0
 40
0
 40
1
 40
1
 40
1
 40
1
 10
45.202234
 20
179.299950
 30
0.0
 10
45.129404
 20
179.327850
 30
0.0
 10
44.531855
 20
180.436730
 30
0.0
 10
43.873920
 20
181.764230
 30
0.0
  0
SPLINE
  5
14d
100
AcDbEntity
  8
Ebene_1
 62
7
100
AcDbSpline
 70
8
 71
3
 72
8
 73
4
 74
0
 40
0
 40
0
 40
0
 40
0
 40
1
 40
1
 40
1
 40
1
 10
43.873920
 20
181.764230
 30
0.0
 10
42.643008
 20
184.247860
 30
0.0
 10
42.069347
 20
185.538040
 30
0.0
 10
42.157049
 20
185.625700
 30
0.0
  0
SPLINE
  5
14e
100
AcDbEntity
  8
Ebene_1
 62
7
100
AcDbSpline
 70
8
 71
3
 72
8
 73
4
 74
0
 40
0
 40
0
 40
0
 40
0
 40
1
 40
1
 40
1
 40
1
 10
42.157049
 20
185.625700
 30
0.0
 10
42.246659
 20
185.715200
 30
0.0
 10
45.860817
 20
187.080760
 30
0.0
 10
47.979197
 20
187.825250
 30
0.0
  0
SPLINE
  5
14f
100
AcDbEntity
  8
Ebene_1
 62
7
100
AcDbSpline
 70
8
 71
3
 72
8
 73
4
 74
0
 40
0
 40
0
 40
0
 40
0
 40
1
 40
1
 40
1
 40
1
 10
47.979197
 20
187.825250
 30
0.0
 10
67.838141
 20
194.804610
 30
0.0
 10
89.046941
 20
197.696860
 30
0.0
 10
109.119950
 20
196.163020
 30
0.0
  0
SPLINE
  5
150
100
AcDbEntity
  8
Ebene_1
 62
7
100
AcDbSpline
 70
8
 71
3
 72
8
 73
4
 74
0
 40
0
 40
0
 40
0
 40
0
 40
1
 40
1
 40
1
 40
1
 10
109.119950
 20
196.163020
 30
0.0
 10
124.133420
 20
195.015830
 30
0.0
 10
138.282900
 20
191.848880
 30
0.0
 10
152.686160
 20
186.412050
 30
0.0
  0
SPLINE
  5
151
100
AcDbEntity
  8
Ebene_1
 62
7
100
AcDbSpline
 70
8
 71
3
 72
8
 73
4
 74
0
 40
0
 40
0
 40
0
 40
0
 40
1
 40
1
 40
1
 40
1
 10
152.686160
 20
186.412050
 30
0.0
 10
153.758510
 20
186.007270
 30
0.0
 10
154.654320
 20
185.657660
 30
0.0
 10
154.676840
 20
185.635120
 30
0.0
  0
SPLINE
  5
152
100
AcDbEntity
  8
Ebene_1
 62
7
100
AcDbSpline
 70
8
 71
3
 72
8
 73
4
 74
0
 40
0
 40
0
 40
0
 40
0
 40
1
 40
1
 40
1
 40
1
 10
154.676840
 20
185.635120
 30
0.0
 10
154.794550
 20
185.517350
 30
0.0
 10
151.914630
 20
179.505320
 30
0.0
 10
151.622820
 20
179.259670
 30
0.0
  0
SPLINE
  5
153
100
AcDbEntity
  8
Ebene_1
 62
7
100
AcDbSpline
 70
8
 71
3
 72
8
 73
4
 74
0
 40
0
 40
0
 40
0
 40
0
 40
1
 40
1
 40
1
 40
1
 10
151.622820
 20
179.259670
 30
0.0
 10
151.583620
 20
179.226770
 30
0.0
 10
150.737630
 20
179.543040
 30
0.0
 10
149.742730
 20
179.962620
 30
0.0
  0
LWPOLYLINE
  5
154
100
AcDbEntity
  8
Ebene_1
 62
7
100
AcDbPolyline
 90
3
 70
0
 10
98.491139
 20
85.101300
 30
0.0
 10
98.409339
 20
84.636200
 30
0.0
 10
98.340682
 20
84.998020
 30
0.0
  0
LWPOLYLINE
  5
155
100
AcDbEntity
  8
Ebene_1
 62
7
100
AcDbPolyline
 90
1
 70
1
 10
149.742730
 20
179.962620
 30
0.0
  0
SPLINE
  5
156
100
AcDbEntity
  8
Ebene_1
 62
7
100
AcDbSpline
 70
8
 71
3
 72
8
 73
4
 74
0
 40
0
 40
0
 40
0
 40
0
 40
1
 40
1
 40
1
 40
1
 10
34.685348
 20
228.473295
 30
0.0
 10
33.261256
 20
228.473295
 30
0.0
 10
32.000303
 20
227.946574
 30
0.0
 10
30.981919
 20
226.928190
 30
0.0
  0
SPLINE
  5
157
100
AcDbEntity
  8
Ebene_1
 62
7
100
AcDbSpline
 70
8
 71
3
 72
8
 73
4
 74
0
 40
0
 40
0
 40
0
 40
0
 40
1
 40
1
 40
1
 40
1
 10
30.981919
 20
226.928190
 30
0.0
 10
29.986990
 20
225.933262
 30
0.0
 10
29.474708
 20
224.684350
 30
0.0
 10
29.474708
 20
223.262656
 30
0.0
  0
LWPOLYLINE
  5
158
100
AcDbEntity
  8
Ebene_1
 62
7
100
AcDbPolyline
 90
5
 70
0
 10
29.474708
 20
247.787973
 30
0.0
 10
29.474708
 20
232.538455
 30
0.0
 10
53.617624
 20
232.538455
 30
0.0
 10
53.617624
 20
228.473295
 30
0.0
 10
34.685348
 20
228.473295
 30
0.0
  0
SPLINE
  5
159
100
AcDbEntity
  8
Ebene_1
 62
7
100
AcDbSpline
 70
8
 71
3
 72
8
 73
4
 74
0
 40
0
 40
0
 40
0
 40
0
 40
1
 40
1
 40
1
 40
1
 10
54.000025
 20
242.196655
 30
0.0
 10
55.398276
 20
242.196655
 30
0.0
 10
56.642399
 20
242.709216
 30
0.0
 10
57.660392
 20
243.700420
 30
0.0
  0
SPLINE
  5
15a
100
AcDbEntity
  8
Ebene_1
 62
7
100
AcDbSpline
 70
8
 71
3
 72
8
 73
4
 74
0
 40
0
 40
0
 40
0
 40
0
 40
1
 40
1
 40
1
 40
1
 10
57.660392
 20
243.700420
 30
0.0
 10
58.682530
 20
244.695660
 30
0.0
 10
59.210664
 20
245.959741
 30
0.0
 10
59.210664
 20
247.407294
 30
0.0
  0
LWPOLYLINE
  5
15b
100
AcDbEntity
  8
Ebene_1
 62
7
100
AcDbPolyline
 90
8
 70
0
 10
29.474708
 20
223.262656
 30
0.0
 10
29.474708
 20
222.881979
 30
0.0
 10
29.855387
 20
222.881979
 30
0.0
 10
59.210664
 20
222.881979
 30
0.0
 10
59.210664
 20
238.131495
 30
0.0
 10
35.066026
 20
238.131495
 30
0.0
 10
35.066026
 20
242.196655
 30
0.0
 10
54.000025
 20
242.196655
 30
0.0
  0
LWPOLYLINE
  5
15c
100
AcDbEntity
  8
Ebene_1
 62
7
100
AcDbPolyline
 90
3
 70
0
 10
59.210664
 20
247.407294
 30
0.0
 10
59.210664
 20
247.787973
 30
0.0
 10
29.474708
 20
247.787973
 30
0.0
  0
SPLINE
  5
15d
100
AcDbEntity
  8
Ebene_1
 62
7
100
AcDbSpline
 70
8
 71
3
 72
8
 73
4
 74
0
 40
0
 40
0
 40
0
 40
0
 40
1
 40
1
 40
1
 40
1
 10
65.523720
 20
228.092618
 30
0.0
 10
65.523720
 20
226.670924
 30
0.0
 10
66.035114
 20
225.411825
 30
0.0
 10
67.027485
 20
224.392633
 30
0.0
  0
LWPOLYLINE
  5
15e
100
AcDbEntity
  8
Ebene_1
 62
7
100
AcDbPolyline
 90
2
 70
0
 10
65.523720
 20
228.473295
 30
0.0
 10
65.523720
 20
228.092618
 30
0.0
  0
SPLINE
  5
15f
100
AcDbEntity
  8
Ebene_1
 62
7
100
AcDbSpline
 70
8
 71
3
 72
8
 73
4
 74
0
 40
0
 40
0
 40
0
 40
0
 40
1
 40
1
 40
1
 40
1
 10
67.031013
 20
224.389105
 30
0.0
 10
68.027156
 20
223.392962
 30
0.0
 10
69.287521
 20
222.881896
 30
0.0
 10
70.732719
 20
222.881896
 30
0.0
  0
LWPOLYLINE
  5
160
100
AcDbEntity
  8
Ebene_1
 62
7
100
AcDbPolyline
 90
3
 70
0
 10
67.027485
 20
224.392633
 30
0.0
 10
67.029249
 20
224.390869
 30
0.0
 10
67.031013
 20
224.389105
 30
0.0
  0
SPLINE
  5
161
100
AcDbEntity
  8
Ebene_1
 62
7
100
AcDbSpline
 70
8
 71
3
 72
8
 73
4
 74
0
 40
0
 40
0
 40
0
 40
0
 40
1
 40
1
 40
1
 40
1
 10
90.047314
 20
222.881896
 30
0.0
 10
91.445566
 20
222.881896
 30
0.0
 10
92.691411
 20
223.394456
 30
0.0
 10
93.709400
 20
224.385660
 30
0.0
  0
SPLINE
  5
162
100
AcDbEntity
  8
Ebene_1
 62
7
100
AcDbSpline
 70
8
 71
3
 72
8
 73
4
 74
0
 40
0
 40
0
 40
0
 40
0
 40
1
 40
1
 40
1
 40
1
 10
93.709400
 20
224.385660
 30
0.0
 10
94.731542
 20
225.380900
 30
0.0
 10
95.257951
 20
226.644981
 30
0.0
 10
95.257951
 20
228.092535
 30
0.0
  0
LWPOLYLINE
  5
163
100
AcDbEntity
  8
Ebene_1
 62
7
100
AcDbPolyline
 90
2
 70
0
 10
70.732719
 20
222.881896
 30
0.0
 10
90.047314
 20
222.881896
 30
0.0
  0
LWPOLYLINE
  5
164
100
AcDbEntity
  8
Ebene_1
 62
7
100
AcDbPolyline
 90
3
 70
0
 10
95.257951
 20
228.092535
 30
0.0
 10
95.257951
 20
228.473212
 30
0.0
 10
65.523720
 20
228.473295
 30
0.0
  0
SPLINE
  5
165
100
AcDbEntity
  8
Ebene_1
 62
7
100
AcDbSpline
 70
8
 71
3
 72
8
 73
4
 74
0
 40
0
 40
0
 40
0
 40
0
 40
1
 40
1
 40
1
 40
1
 10
65.523720
 20
237.749094
 30
0.0
 10
65.523720
 20
236.327402
 30
0.0
 10
66.035114
 20
235.070025
 30
0.0
 10
67.027485
 20
234.050833
 30
0.0
  0
LWPOLYLINE
  5
166
100
AcDbEntity
  8
Ebene_1
 62
7
100
AcDbPolyline
 90
2
 70
0
 10
65.523720
 20
238.131495
 30
0.0
 10
65.523720
 20
237.749094
 30
0.0
  0
SPLINE
  5
167
100
AcDbEntity
  8
Ebene_1
 62
7
100
AcDbSpline
 70
8
 71
3
 72
8
 73
4
 74
0
 40
0
 40
0
 40
0
 40
0
 40
1
 40
1
 40
1
 40
1
 10
67.031013
 20
234.047305
 30
0.0
 10
68.027156
 20
233.051162
 30
0.0
 10
69.287521
 20
232.538372
 30
0.0
 10
70.732719
 20
232.538372
 30
0.0
  0
LWPOLYLINE
  5
168
100
AcDbEntity
  8
Ebene_1
 62
7
100
AcDbPolyline
 90
3
 70
0
 10
67.027485
 20
234.050833
 30
0.0
 10
67.029249
 20
234.049069
 30
0.0
 10
67.031013
 20
234.047305
 30
0.0
  0
SPLINE
  5
169
100
AcDbEntity
  8
Ebene_1
 62
7
100
AcDbSpline
 70
8
 71
3
 72
8
 73
4
 74
0
 40
0
 40
0
 40
0
 40
0
 40
1
 40
1
 40
1
 40
1
 10
90.047314
 20
232.538372
 30
0.0
 10
91.445566
 20
232.538372
 30
0.0
 10
92.691411
 20
233.050933
 30
0.0
 10
93.709400
 20
234.042138
 30
0.0
  0
SPLINE
  5
16a
100
AcDbEntity
  8
Ebene_1
 62
7
100
AcDbSpline
 70
8
 71
3
 72
8
 73
4
 74
0
 40
0
 40
0
 40
0
 40
0
 40
1
 40
1
 40
1
 40
1
 10
93.709400
 20
234.042138
 30
0.0
 10
94.731542
 20
235.037378
 30
0.0
 10
95.257951
 20
236.301459
 30
0.0
 10
95.257951
 20
237.749012
 30
0.0
  0
LWPOLYLINE
  5
16b
100
AcDbEntity
  8
Ebene_1
 62
7
100
AcDbPolyline
 90
2
 70
0
 10
70.732719
 20
232.538372
 30
0.0
 10
90.047314
 20
232.538372
 30
0.0
  0
LWPOLYLINE
  5
16c
100
AcDbEntity
  8
Ebene_1
 62
7
100
AcDbPolyline
 90
3
 70
0
 10
95.257951
 20
237.749012
 30
0.0
 10
95.257951
 20
238.131412
 30
0.0
 10
65.523720
 20
238.131495
 30
0.0
  0
SPLINE
  5
16d
100
AcDbEntity
  8
Ebene_1
 62
7
100
AcDbSpline
 70
8
 71
3
 72
8
 73
4
 74
0
 40
0
 40
0
 40
0
 40
0
 40
1
 40
1
 40
1
 40
1
 10
65.523720
 20
247.407294
 30
0.0
 10
65.523720
 20
245.985602
 30
0.0
 10
66.035114
 20
244.726502
 30
0.0
 10
67.027485
 20
243.707310
 30
0.0
  0
LWPOLYLINE
  5
16e
100
AcDbEntity
  8
Ebene_1
 62
7
100
AcDbPolyline
 90
2
 70
0
 10
65.523720
 20
247.787973
 30
0.0
 10
65.523720
 20
247.407294
 30
0.0
  0
SPLINE
  5
16f
100
AcDbEntity
  8
Ebene_1
 62
7
100
AcDbSpline
 70
8
 71
3
 72
8
 73
4
 74
0
 40
0
 40
0
 40
0
 40
0
 40
1
 40
1
 40
1
 40
1
 10
67.031013
 20
243.703783
 30
0.0
 10
68.027156
 20
242.707638
 30
0.0
 10
69.287521
 20
242.196572
 30
0.0
 10
70.732719
 20
242.196572
 30
0.0
  0
LWPOLYLINE
  5
170
100
AcDbEntity
  8
Ebene_1
 62
7
100
AcDbPolyline
 90
3
 70
0
 10
67.027485
 20
243.707310
 30
0.0
 10
67.029249
 20
243.705546
 30
0.0
 10
67.031013
 20
243.703783
 30
0.0
  0
SPLINE
  5
171
100
AcDbEntity
  8
Ebene_1
 62
7
100
AcDbSpline
 70
8
 71
3
 72
8
 73
4
 74
0
 40
0
 40
0
 40
0
 40
0
 40
1
 40
1
 40
1
 40
1
 10
90.047314
 20
242.196572
 30
0.0
 10
91.445566
 20
242.196572
 30
0.0
 10
92.691411
 20
242.709133
 30
0.0
 10
93.709400
 20
243.700337
 30
0.0
  0
SPLINE
  5
172
100
AcDbEntity
  8
Ebene_1
 62
7
100
AcDbSpline
 70
8
 71
3
 72
8
 73
4
 74
0
 40
0
 40
0
 40
0
 40
0
 40
1
 40
1
 40
1
 40
1
 10
93.709400
 20
243.700337
 30
0.0
 10
94.731542
 20
244.695577
 30
0.0
 10
95.257951
 20
245.959658
 30
0.0
 10
95.257951
 20
247.407212
 30
0.0
  0
LWPOLYLINE
  5
173
100
AcDbEntity
  8
Ebene_1
 62
7
100
AcDbPolyline
 90
2
 70
0
 10
70.732719
 20
242.196572
 30
0.0
 10
90.047314
 20
242.196572
 30
0.0
  0
LWPOLYLINE
  5
174
100
AcDbEntity
  8
Ebene_1
 62
7
100
AcDbPolyline
 90
3
 70
0
 10
95.257951
 20
247.407212
 30
0.0
 10
95.257951
 20
247.787890
 30
0.0
 10
65.523720
 20
247.787973
 30
0.0
  0
LWPOLYLINE
  5
175
100
AcDbEntity
  8
Ebene_1
 62
7
100
AcDbPolyline
 90
25
 70
1
 10
101.571012
 20
247.787973
 30
0.0
 10
101.571012
 20
242.420584
 30
0.0
 10
106.511213
 20
237.480381
 30
0.0
 10
108.657476
 20
235.334114
 30
0.0
 10
101.571012
 20
228.249367
 30
0.0
 10
101.571012
 20
222.881979
 30
0.0
 10
101.953410
 20
222.881979
 30
0.0
 10
107.162326
 20
222.881979
 30
0.0
 10
107.162326
 20
225.519165
 30
0.0
 10
116.439847
 20
234.794964
 30
0.0
 10
125.715648
 20
225.519165
 30
0.0
 10
125.715648
 20
222.881979
 30
0.0
 10
126.096325
 20
222.881979
 30
0.0
 10
131.306962
 20
222.881979
 30
0.0
 10
131.306962
 20
228.249367
 30
0.0
 10
124.218769
 20
235.337560
 30
0.0
 10
126.218623
 20
237.368417
 30
0.0
 10
126.254782
 20
237.368417
 30
0.0
 10
131.306944
 20
242.420584
 30
0.0
 10
131.306944
 20
247.787973
 30
0.0
 10
125.715630
 20
247.787973
 30
0.0
 10
125.715630
 20
245.150787
 30
0.0
 10
116.439847
 20
235.874987
 30
0.0
 10
107.162326
 20
245.150787
 30
0.0
 10
107.162326
 20
247.787973
 30
0.0
  0
LWPOLYLINE
  5
176
100
AcDbEntity
  8
Ebene_1
 62
7
100
AcDbPolyline
 90
14
 70
1
 10
137.620024
 20
247.787973
 30
0.0
 10
137.620024
 20
242.420584
 30
0.0
 10
149.691482
 20
230.347403
 30
0.0
 10
149.691482
 20
222.881979
 30
0.0
 10
150.072159
 20
222.881979
 30
0.0
 10
155.282796
 20
222.881979
 30
0.0
 10
155.282796
 20
230.347403
 30
0.0
 10
167.354254
 20
242.420584
 30
0.0
 10
167.354254
 20
247.787973
 30
0.0
 10
161.762939
 20
247.787973
 30
0.0
 10
161.762939
 20
245.150787
 30
0.0
 10
152.487139
 20
235.874987
 30
0.0
 10
143.211338
 20
245.150787
 30
0.0
 10
143.211338
 20
247.787973
 30
0.0
  0
SPLINE
  5
177
100
AcDbEntity
  8
Ebene_1
 62
7
100
AcDbSpline
 70
8
 71
3
 72
8
 73
4
 74
0
 40
0
 40
0
 40
0
 40
0
 40
1
 40
1
 40
1
 40
1
 10
43.379943
 20
75.793148
 30
0.0
 10
43.379943
 20
75.428927
 30
0.0
 10
43.267656
 20
75.162723
 30
0.0
 10
43.014171
 20
74.907297
 30
0.0
  0
SPLINE
  5
178
100
AcDbEntity
  8
Ebene_1
 62
7
100
AcDbSpline
 70
8
 71
3
 72
8
 73
4
 74
0
 40
0
 40
0
 40
0
 40
0
 40
1
 40
1
 40
1
 40
1
 10
43.014171
 20
74.907297
 30
0.0
 10
42.757927
 20
74.666385
 30
0.0
 10
42.494086
 20
74.560575
 30
0.0
 10
42.145462
 20
74.560575
 30
0.0
  0
LWPOLYLINE
  5
179
100
AcDbEntity
  8
Ebene_1
 62
7
100
AcDbPolyline
 90
4
 70
0
 10
26.828760
 20
81.180668
 30
0.0
 10
26.828760
 20
77.025722
 30
0.0
 10
43.379943
 20
77.025722
 30
0.0
 10
43.379943
 20
75.793148
 30
0.0
  0
SPLINE
  5
17a
100
AcDbEntity
  8
Ebene_1
 62
7
100
AcDbSpline
 70
8
 71
3
 72
8
 73
4
 74
0
 40
0
 40
0
 40
0
 40
0
 40
1
 40
1
 40
1
 40
1
 10
43.800962
 20
70.405629
 30
0.0
 10
44.797451
 20
70.405629
 30
0.0
 10
45.698333
 20
70.777049
 30
0.0
 10
46.422328
 20
71.481994
 30
0.0
  0
SPLINE
  5
17b
100
AcDbEntity
  8
Ebene_1
 62
7
100
AcDbSpline
 70
8
 71
3
 72
8
 73
4
 74
0
 40
0
 40
0
 40
0
 40
0
 40
1
 40
1
 40
1
 40
1
 10
46.422328
 20
71.481994
 30
0.0
 10
47.150907
 20
72.191396
 30
0.0
 10
47.532980
 20
73.107787
 30
0.0
 10
47.532980
 20
74.137655
 30
0.0
  0
LWPOLYLINE
  5
17c
100
AcDbEntity
  8
Ebene_1
 62
7
100
AcDbPolyline
 90
7
 70
0
 10
42.145462
 20
74.560575
 30
0.0
 10
26.828760
 20
74.560575
 30
0.0
 10
26.828760
 20
63.787448
 30
0.0
 10
27.251684
 20
63.787448
 30
0.0
 10
30.983702
 20
63.787448
 30
0.0
 10
30.983702
 20
70.405629
 30
0.0
 10
43.800962
 20
70.405629
 30
0.0
  0
LWPOLYLINE
  5
17d
100
AcDbEntity
  8
Ebene_1
 62
7
100
AcDbPolyline
 90
3
 70
0
 10
47.532980
 20
74.137655
 30
0.0
 10
47.532980
 20
81.180668
 30
0.0
 10
26.828760
 20
81.180668
 30
0.0
  0
LWPOLYLINE
  5
17e
100
AcDbEntity
  8
Ebene_1
 62
7
100
AcDbPolyline
 90
9
 70
1
 10
49.998130
 20
74.560575
 30
0.0
 10
49.998130
 20
63.787448
 30
0.0
 10
50.421054
 20
63.787448
 30
0.0
 10
54.153072
 20
63.787448
 30
0.0
 10
54.153072
 20
70.405629
 30
0.0
 10
66.549313
 20
70.405629
 30
0.0
 10
66.549313
 20
63.787448
 30
0.0
 10
70.702350
 20
63.787448
 30
0.0
 10
70.702350
 20
74.560575
 30
0.0
  0
SPLINE
  5
17f
100
AcDbEntity
  8
Ebene_1
 62
7
100
AcDbSpline
 70
8
 71
3
 72
8
 73
4
 74
0
 40
0
 40
0
 40
0
 40
0
 40
1
 40
1
 40
1
 40
1
 10
49.998130
 20
80.757738
 30
0.0
 10
49.998130
 20
79.745905
 30
0.0
 10
50.368258
 20
78.835025
 30
0.0
 10
51.074491
 20
78.109704
 30
0.0
  0
LWPOLYLINE
  5
180
100
AcDbEntity
  8
Ebene_1
 62
7
100
AcDbPolyline
 90
2
 70
0
 10
49.998130
 20
81.180668
 30
0.0
 10
49.998130
 20
80.757738
 30
0.0
  0
SPLINE
  5
181
100
AcDbEntity
  8
Ebene_1
 62
7
100
AcDbSpline
 70
8
 71
3
 72
8
 73
4
 74
0
 40
0
 40
0
 40
0
 40
0
 40
1
 40
1
 40
1
 40
1
 10
51.080245
 20
78.105803
 30
0.0
 10
51.790651
 20
77.395396
 30
0.0
 10
52.702926
 20
77.025624
 30
0.0
 10
53.730187
 20
77.025624
 30
0.0
  0
LWPOLYLINE
  5
182
100
AcDbEntity
  8
Ebene_1
 62
7
100
AcDbPolyline
 90
3
 70
0
 10
51.074491
 20
78.109704
 30
0.0
 10
51.078295
 20
78.107754
 30
0.0
 10
51.080245
 20
78.105803
 30
0.0
  0
SPLINE
  5
183
100
AcDbEntity
  8
Ebene_1
 62
7
100
AcDbSpline
 70
8
 71
3
 72
8
 73
4
 74
0
 40
0
 40
0
 40
0
 40
0
 40
1
 40
1
 40
1
 40
1
 10
66.970332
 20
77.025624
 30
0.0
 10
67.966821
 20
77.025624
 30
0.0
 10
68.867704
 20
77.397044
 30
0.0
 10
69.591698
 20
78.101989
 30
0.0
  0
SPLINE
  5
184
100
AcDbEntity
  8
Ebene_1
 62
7
100
AcDbSpline
 70
8
 71
3
 72
8
 73
4
 74
0
 40
0
 40
0
 40
0
 40
0
 40
1
 40
1
 40
1
 40
1
 10
69.591698
 20
78.101989
 30
0.0
 10
70.320277
 20
78.811392
 30
0.0
 10
70.702350
 20
79.727782
 30
0.0
 10
70.702350
 20
80.757640
 30
0.0
  0
LWPOLYLINE
  5
185
100
AcDbEntity
  8
Ebene_1
 62
7
100
AcDbPolyline
 90
2
 70
0
 10
53.730187
 20
77.025624
 30
0.0
 10
66.970332
 20
77.025624
 30
0.0
  0
LWPOLYLINE
  5
186
100
AcDbEntity
  8
Ebene_1
 62
7
100
AcDbPolyline
 90
3
 70
0
 10
70.702350
 20
80.757640
 30
0.0
 10
70.702350
 20
81.180570
 30
0.0
 10
49.998130
 20
81.180668
 30
0.0
  0
SPLINE
  5
187
100
AcDbEntity
  8
Ebene_1
 62
7
100
AcDbSpline
 70
8
 71
3
 72
8
 73
4
 74
0
 40
0
 40
0
 40
0
 40
0
 40
1
 40
1
 40
1
 40
1
 10
73.167501
 20
80.757738
 30
0.0
 10
73.167501
 20
79.745905
 30
0.0
 10
73.537629
 20
78.835025
 30
0.0
 10
74.243860
 20
78.109704
 30
0.0
  0
LWPOLYLINE
  5
188
100
AcDbEntity
  8
Ebene_1
 62
7
100
AcDbPolyline
 90
2
 70
0
 10
73.167501
 20
81.180668
 30
0.0
 10
73.167501
 20
80.757738
 30
0.0
  0
SPLINE
  5
189
100
AcDbEntity
  8
Ebene_1
 62
7
100
AcDbSpline
 70
8
 71
3
 72
8
 73
4
 74
0
 40
0
 40
0
 40
0
 40
0
 40
1
 40
1
 40
1
 40
1
 10
74.249615
 20
78.105803
 30
0.0
 10
74.960020
 20
77.395396
 30
0.0
 10
75.872295
 20
77.025624
 30
0.0
 10
76.899557
 20
77.025624
 30
0.0
  0
LWPOLYLINE
  5
18a
100
AcDbEntity
  8
Ebene_1
 62
7
100
AcDbPolyline
 90
3
 70
0
 10
74.243860
 20
78.109704
 30
0.0
 10
74.247664
 20
78.107754
 30
0.0
 10
74.249615
 20
78.105803
 30
0.0
  0
SPLINE
  5
18b
100
AcDbEntity
  8
Ebene_1
 62
7
100
AcDbSpline
 70
8
 71
3
 72
8
 73
4
 74
0
 40
0
 40
0
 40
0
 40
0
 40
1
 40
1
 40
1
 40
1
 10
89.718727
 20
75.793051
 30
0.0
 10
89.718727
 20
75.428830
 30
0.0
 10
89.606439
 20
75.162626
 30
0.0
 10
89.352955
 20
74.907200
 30
0.0
  0
SPLINE
  5
18c
100
AcDbEntity
  8
Ebene_1
 62
7
100
AcDbSpline
 70
8
 71
3
 72
8
 73
4
 74
0
 40
0
 40
0
 40
0
 40
0
 40
1
 40
1
 40
1
 40
1
 10
89.352955
 20
74.907200
 30
0.0
 10
89.096709
 20
74.666288
 30
0.0
 10
88.832866
 20
74.560477
 30
0.0
 10
88.484242
 20
74.560477
 30
0.0
  0
LWPOLYLINE
  5
18d
100
AcDbEntity
  8
Ebene_1
 62
7
100
AcDbPolyline
 90
3
 70
0
 10
76.899557
 20
77.025624
 30
0.0
 10
89.718727
 20
77.025624
 30
0.0
 10
89.718727
 20
75.793051
 30
0.0
  0
SPLINE
  5
18e
100
AcDbEntity
  8
Ebene_1
 62
7
100
AcDbSpline
 70
8
 71
3
 72
8
 73
4
 74
0
 40
0
 40
0
 40
0
 40
0
 40
1
 40
1
 40
1
 40
1
 10
90.139706
 20
70.405532
 30
0.0
 10
91.136186
 20
70.405532
 30
0.0
 10
92.037077
 20
70.776951
 30
0.0
 10
92.761072
 20
71.481896
 30
0.0
  0
SPLINE
  5
18f
100
AcDbEntity
  8
Ebene_1
 62
7
100
AcDbSpline
 70
8
 71
3
 72
8
 73
4
 74
0
 40
0
 40
0
 40
0
 40
0
 40
1
 40
1
 40
1
 40
1
 10
92.761072
 20
71.481896
 30
0.0
 10
93.489651
 20
72.191299
 30
0.0
 10
93.871721
 20
73.107689
 30
0.0
 10
93.871721
 20
74.137557
 30
0.0
  0
LWPOLYLINE
  5
190
100
AcDbEntity
  8
Ebene_1
 62
7
100
AcDbPolyline
 90
11
 70
0
 10
88.484242
 20
74.560477
 30
0.0
 10
73.167501
 20
74.560477
 30
0.0
 10
73.167501
 20
63.787351
 30
0.0
 10
73.590424
 20
63.787351
 30
0.0
 10
77.322441
 20
63.787351
 30
0.0
 10
77.322441
 20
70.405532
 30
0.0
 10
81.690750
 20
70.405532
 30
0.0
 10
88.310842
 20
63.787351
 30
0.0
 10
94.468008
 20
63.787351
 30
0.0
 10
87.847912
 20
70.405532
 30
0.0
 10
90.139706
 20
70.405532
 30
0.0
  0
LWPOLYLINE
  5
191
100
AcDbEntity
  8
Ebene_1
 62
7
100
AcDbPolyline
 90
3
 70
0
 10
93.871721
 20
74.137557
 30
0.0
 10
93.871721
 20
81.180570
 30
0.0
 10
73.167501
 20
81.180668
 30
0.0
  0
LWPOLYLINE
  5
192
100
AcDbEntity
  8
Ebene_1
 62
7
100
AcDbPolyline
 90
9
 70
1
 10
111.480210
 20
81.180668
 30
0.0
 10
102.783605
 20
72.484053
 30
0.0
 10
111.480210
 20
63.787448
 30
0.0
 10
111.653576
 20
63.787448
 30
0.0
 10
117.637372
 20
63.787448
 30
0.0
 10
108.938855
 20
72.485965
 30
0.0
 10
110.150477
 20
73.716636
 30
0.0
 10
110.173302
 20
73.716636
 30
0.0
 10
117.637333
 20
81.180668
 30
0.0
  0
LWPOLYLINE
  5
193
100
AcDbEntity
  8
Ebene_1
 62
7
100
AcDbPolyline
 90
5
 70
1
 10
96.336869
 20
81.180668
 30
0.0
 10
96.336869
 20
63.787448
 30
0.0
 10
96.759799
 20
63.787448
 30
0.0
 10
100.491814
 20
63.787448
 30
0.0
 10
100.491814
 20
81.180668
 30
0.0
  0
LWPOLYLINE
  5
194
100
AcDbEntity
  8
Ebene_1
 62
7
100
AcDbPolyline
 90
5
 70
1
 10
119.506242
 20
81.180668
 30
0.0
 10
119.506242
 20
63.787448
 30
0.0
 10
119.929163
 20
63.787448
 30
0.0
 10
123.661178
 20
63.787448
 30
0.0
 10
123.661178
 20
81.180668
 30
0.0
  0
LWPOLYLINE
  5
195
100
AcDbEntity
  8
Ebene_1
 62
7
100
AcDbPolyline
 90
12
 70
1
 10
125.530049
 20
81.180668
 30
0.0
 10
129.437333
 20
77.273384
 30
0.0
 10
129.437333
 20
63.787448
 30
0.0
 10
129.858351
 20
63.787448
 30
0.0
 10
133.590366
 20
63.787448
 30
0.0
 10
133.590366
 20
73.120350
 30
0.0
 10
142.923268
 20
63.787448
 30
0.0
 10
146.830552
 20
63.787448
 30
0.0
 10
146.830552
 20
81.180668
 30
0.0
 10
142.675606
 20
81.180668
 30
0.0
 10
142.675606
 20
70.192262
 30
0.0
 10
131.689113
 20
81.180668
 30
0.0
  0
SPLINE
  5
196
100
AcDbEntity
  8
Ebene_1
 62
7
100
AcDbSpline
 70
8
 71
3
 72
8
 73
4
 74
0
 40
0
 40
0
 40
0
 40
0
 40
1
 40
1
 40
1
 40
1
 10
149.295699
 20
67.517562
 30
0.0
 10
149.295699
 20
66.505719
 30
0.0
 10
149.665831
 20
65.596742
 30
0.0
 10
150.372064
 20
64.871431
 30
0.0
  0
LWPOLYLINE
  5
197
100
AcDbEntity
  8
Ebene_1
 62
7
100
AcDbPolyline
 90
2
 70
0
 10
149.295699
 20
74.560575
 30
0.0
 10
149.295699
 20
67.517562
 30
0.0
  0
SPLINE
  5
198
100
AcDbEntity
  8
Ebene_1
 62
7
100
AcDbSpline
 70
8
 71
3
 72
8
 73
4
 74
0
 40
0
 40
0
 40
0
 40
0
 40
1
 40
1
 40
1
 40
1
 10
150.375965
 20
64.867529
 30
0.0
 10
151.086363
 20
64.157122
 30
0.0
 10
152.000549
 20
63.787360
 30
0.0
 10
153.027812
 20
63.787360
 30
0.0
  0
LWPOLYLINE
  5
199
100
AcDbEntity
  8
Ebene_1
 62
7
100
AcDbPolyline
 90
3
 70
0
 10
150.372064
 20
64.871431
 30
0.0
 10
150.374015
 20
64.869480
 30
0.0
 10
150.375965
 20
64.867529
 30
0.0
  0
SPLINE
  5
19a
100
AcDbEntity
  8
Ebene_1
 62
7
100
AcDbSpline
 70
8
 71
3
 72
8
 73
4
 74
0
 40
0
 40
0
 40
0
 40
0
 40
1
 40
1
 40
1
 40
1
 10
155.915880
 20
74.137567
 30
0.0
 10
155.915880
 20
73.125724
 30
0.0
 10
156.286012
 20
72.216747
 30
0.0
 10
156.992244
 20
71.491426
 30
0.0
  0
LWPOLYLINE
  5
19b
100
AcDbEntity
  8
Ebene_1
 62
7
100
AcDbPolyline
 90
5
 70
0
 10
153.027812
 20
63.787360
 30
0.0
 10
170.000014
 20
63.787360
 30
0.0
 10
170.000014
 20
74.560487
 30
0.0
 10
155.915880
 20
74.560487
 30
0.0
 10
155.915880
 20
74.137567
 30
0.0
  0
SPLINE
  5
19c
100
AcDbEntity
  8
Ebene_1
 62
7
100
AcDbSpline
 70
8
 71
3
 72
8
 73
4
 74
0
 40
0
 40
0
 40
0
 40
0
 40
1
 40
1
 40
1
 40
1
 10
156.996146
 20
71.485573
 30
0.0
 10
157.706543
 20
70.775166
 30
0.0
 10
158.620730
 20
70.405395
 30
0.0
 10
159.647983
 20
70.405395
 30
0.0
  0
LWPOLYLINE
  5
19d
100
AcDbEntity
  8
Ebene_1
 62
7
100
AcDbPolyline
 90
3
 70
0
 10
156.992244
 20
71.491426
 30
0.0
 10
156.994195
 20
71.489475
 30
0.0
 10
156.996146
 20
71.485573
 30
0.0
  0
SPLINE
  5
19e
100
AcDbEntity
  8
Ebene_1
 62
7
100
AcDbSpline
 70
8
 71
3
 72
8
 73
4
 74
0
 40
0
 40
0
 40
0
 40
0
 40
1
 40
1
 40
1
 40
1
 10
154.683394
 20
67.940248
 30
0.0
 10
154.315632
 20
67.940248
 30
0.0
 10
154.046512
 20
68.050653
 30
0.0
 10
153.793729
 20
68.286971
 30
0.0
  0
SPLINE
  5
19f
100
AcDbEntity
  8
Ebene_1
 62
7
100
AcDbSpline
 70
8
 71
3
 72
8
 73
4
 74
0
 40
0
 40
0
 40
0
 40
0
 40
1
 40
1
 40
1
 40
1
 10
153.793729
 20
68.286971
 30
0.0
 10
153.559625
 20
68.538787
 30
0.0
 10
153.450820
 20
68.806708
 30
0.0
 10
153.450820
 20
69.172822
 30
0.0
  0
LWPOLYLINE
  5
1a0
100
AcDbEntity
  8
Ebene_1
 62
7
100
AcDbPolyline
 90
4
 70
0
 10
159.647983
 20
70.405395
 30
0.0
 10
165.845156
 20
70.405395
 30
0.0
 10
165.845156
 20
67.940248
 30
0.0
 10
154.683394
 20
67.940248
 30
0.0
  0
LWPOLYLINE
  5
1a1
100
AcDbEntity
  8
Ebene_1
 62
7
100
AcDbPolyline
 90
3
 70
0
 10
153.450820
 20
69.172822
 30
0.0
 10
153.450820
 20
74.560341
 30
0.0
 10
149.295699
 20
74.560575
 30
0.0
  0
SPLINE
  5
1a2
100
AcDbEntity
  8
Ebene_1
 62
7
100
AcDbSpline
 70
8
 71
3
 72
8
 73
4
 74
0
 40
0
 40
0
 40
0
 40
0
 40
1
 40
1
 40
1
 40
1
 10
166.267900
 20
77.025722
 30
0.0
 10
167.264390
 20
77.025722
 30
0.0
 10
168.165272
 20
77.397142
 30
0.0
 10
168.889266
 20
78.102087
 30
0.0
  0
SPLINE
  5
1a3
100
AcDbEntity
  8
Ebene_1
 62
7
100
AcDbSpline
 70
8
 71
3
 72
8
 73
4
 74
0
 40
0
 40
0
 40
0
 40
0
 40
1
 40
1
 40
1
 40
1
 10
168.889266
 20
78.102087
 30
0.0
 10
169.617855
 20
78.811489
 30
0.0
 10
169.999926
 20
79.727880
 30
0.0
 10
169.999926
 20
80.757738
 30
0.0
  0
LWPOLYLINE
  5
1a4
100
AcDbEntity
  8
Ebene_1
 62
7
100
AcDbPolyline
 90
4
 70
0
 10
149.295699
 20
81.180668
 30
0.0
 10
149.295699
 20
77.025722
 30
0.0
 10
149.718629
 20
77.025722
 30
0.0
 10
166.267900
 20
77.025722
 30
0.0
  0
LWPOLYLINE
  5
1a5
100
AcDbEntity
  8
Ebene_1
 62
7
100
AcDbPolyline
 90
3
 70
0
 10
169.999926
 20
80.757738
 30
0.0
 10
169.999926
 20
81.180668
 30
0.0
 10
149.295699
 20
81.180668
 30
0.0
  0
LWPOLYLINE
  5
1a6
100
AcDbEntity
  8
Ebene_1
 62
7
100
AcDbPolyline
 90
9
 70
1
 10
53.309129
 20
50.381524
 30
0.0
 10
53.309129
 20
39.608388
 30
0.0
 10
53.730147
 20
39.608388
 30
0.0
 10
74.011443
 20
39.608388
 30
0.0
 10
74.011443
 20
50.381524
 30
0.0
 10
69.858407
 20
50.381524
 30
0.0
 10
69.858407
 20
43.761431
 30
0.0
 10
57.462165
 20
43.761431
 30
0.0
 10
57.462165
 20
50.381524
 30
0.0
  0
SPLINE
  5
1a7
100
AcDbEntity
  8
Ebene_1
 62
7
100
AcDbSpline
 70
8
 71
3
 72
8
 73
4
 74
0
 40
0
 40
0
 40
0
 40
0
 40
1
 40
1
 40
1
 40
1
 10
53.309129
 20
56.578687
 30
0.0
 10
53.309129
 20
55.566854
 30
0.0
 10
53.679256
 20
54.657877
 30
0.0
 10
54.385489
 20
53.932556
 30
0.0
  0
LWPOLYLINE
  5
1a8
100
AcDbEntity
  8
Ebene_1
 62
7
100
AcDbPolyline
 90
2
 70
0
 10
53.309129
 20
57.001617
 30
0.0
 10
53.309129
 20
56.578687
 30
0.0
  0
SPLINE
  5
1a9
100
AcDbEntity
  8
Ebene_1
 62
7
100
AcDbSpline
 70
8
 71
3
 72
8
 73
4
 74
0
 40
0
 40
0
 40
0
 40
0
 40
1
 40
1
 40
1
 40
1
 10
54.389390
 20
53.928654
 30
0.0
 10
55.099797
 20
53.218247
 30
0.0
 10
56.013976
 20
52.848476
 30
0.0
 10
57.041237
 20
52.848476
 30
0.0
  0
LWPOLYLINE
  5
1aa
100
AcDbEntity
  8
Ebene_1
 62
7
100
AcDbPolyline
 90
3
 70
0
 10
54.385489
 20
53.932556
 30
0.0
 10
54.387440
 20
53.930605
 30
0.0
 10
54.389390
 20
53.928654
 30
0.0
  0
SPLINE
  5
1ab
100
AcDbEntity
  8
Ebene_1
 62
7
100
AcDbSpline
 70
8
 71
3
 72
8
 73
4
 74
0
 40
0
 40
0
 40
0
 40
0
 40
1
 40
1
 40
1
 40
1
 10
70.279517
 20
52.848476
 30
0.0
 10
71.276007
 20
52.848476
 30
0.0
 10
72.178794
 20
53.219895
 30
0.0
 10
72.902788
 20
53.924840
 30
0.0
  0
SPLINE
  5
1ac
100
AcDbEntity
  8
Ebene_1
 62
7
100
AcDbSpline
 70
8
 71
3
 72
8
 73
4
 74
0
 40
0
 40
0
 40
0
 40
0
 40
1
 40
1
 40
1
 40
1
 10
72.902788
 20
53.924840
 30
0.0
 10
73.631367
 20
54.634243
 30
0.0
 10
74.011535
 20
55.548731
 30
0.0
 10
74.011535
 20
56.578589
 30
0.0
  0
LWPOLYLINE
  5
1ad
100
AcDbEntity
  8
Ebene_1
 62
7
100
AcDbPolyline
 90
2
 70
0
 10
57.041237
 20
52.848476
 30
0.0
 10
70.279517
 20
52.848476
 30
0.0
  0
LWPOLYLINE
  5
1ae
100
AcDbEntity
  8
Ebene_1
 62
7
100
AcDbPolyline
 90
3
 70
0
 10
74.011535
 20
56.578589
 30
0.0
 10
74.011535
 20
57.001519
 30
0.0
 10
53.309129
 20
57.001617
 30
0.0
  0
LWPOLYLINE
  5
1af
100
AcDbEntity
  8
Ebene_1
 62
7
100
AcDbPolyline
 90
12
 70
1
 10
75.882215
 20
57.001617
 30
0.0
 10
79.787593
 20
53.094333
 30
0.0
 10
79.787593
 20
39.608388
 30
0.0
 10
80.210517
 20
39.608388
 30
0.0
 10
83.942534
 20
39.608388
 30
0.0
 10
83.942534
 20
48.941289
 30
0.0
 10
93.275435
 20
39.608388
 30
0.0
 10
97.180817
 20
39.608388
 30
0.0
 10
97.180817
 20
57.001617
 30
0.0
 10
93.027773
 20
57.001617
 30
0.0
 10
93.027773
 20
46.013211
 30
0.0
 10
82.039377
 20
57.001617
 30
0.0
  0
SPLINE
  5
1b0
100
AcDbEntity
  8
Ebene_1
 62
7
100
AcDbSpline
 70
8
 71
3
 72
8
 73
4
 74
0
 40
0
 40
0
 40
0
 40
0
 40
1
 40
1
 40
1
 40
1
 10
116.618165
 20
39.608388
 30
0.0
 10
117.614655
 20
39.608388
 30
0.0
 10
118.517439
 20
39.979817
 30
0.0
 10
119.241433
 20
40.684752
 30
0.0
  0
SPLINE
  5
1b1
100
AcDbEntity
  8
Ebene_1
 62
7
100
AcDbSpline
 70
8
 71
3
 72
8
 73
4
 74
0
 40
0
 40
0
 40
0
 40
0
 40
1
 40
1
 40
1
 40
1
 10
119.241433
 20
40.684752
 30
0.0
 10
119.970022
 20
41.394165
 30
0.0
 10
120.350181
 20
42.310545
 30
0.0
 10
120.350181
 20
43.340413
 30
0.0
  0
LWPOLYLINE
  5
1b2
100
AcDbEntity
  8
Ebene_1
 62
7
100
AcDbPolyline
 90
4
 70
0
 10
99.647866
 20
57.001617
 30
0.0
 10
99.647866
 20
39.608388
 30
0.0
 10
100.068884
 20
39.608388
 30
0.0
 10
116.618165
 20
39.608388
 30
0.0
  0
LWPOLYLINE
  5
1b3
100
AcDbEntity
  8
Ebene_1
 62
7
100
AcDbPolyline
 90
5
 70
0
 10
120.350181
 20
43.340413
 30
0.0
 10
120.350181
 20
43.761431
 30
0.0
 10
103.800910
 20
43.761431
 30
0.0
 10
103.800910
 20
57.001617
 30
0.0
 10
99.647866
 20
57.001617
 30
0.0
  0
LWPOLYLINE
  5
1b4
100
AcDbEntity
  8
Ebene_1
 62
7
100
AcDbPolyline
 90
14
 70
1
 10
122.817240
 20
57.001617
 30
0.0
 10
122.817240
 20
53.094333
 30
0.0
 10
131.090924
 20
44.820648
 30
0.0
 10
131.090924
 20
39.608388
 30
0.0
 10
131.513854
 20
39.608388
 30
0.0
 10
135.245870
 20
39.608388
 30
0.0
 10
135.245870
 20
44.820648
 30
0.0
 10
143.519555
 20
53.094333
 30
0.0
 10
143.519555
 20
57.001617
 30
0.0
 10
139.366521
 20
57.001617
 30
0.0
 10
139.366521
 20
55.098451
 30
0.0
 10
133.167446
 20
48.901289
 30
0.0
 10
126.970274
 20
55.098451
 30
0.0
 10
126.970274
 20
57.001617
 30
0.0
  0
SPLINE
  5
1b5
100
AcDbEntity
  8
Ebene_1
 62
7
100
AcDbSpline
 70
8
 71
3
 72
8
 73
4
 74
0
 40
0
 40
0
 40
0
 40
0
 40
1
 40
1
 40
1
 40
1
 10
57.705152
 20
205.071994
 30
0.0
 10
57.705152
 20
204.158628
 30
0.0
 10
58.039155
 20
203.335861
 30
0.0
 10
58.676656
 20
202.681131
 30
0.0
  0
LWPOLYLINE
  5
1b6
100
AcDbEntity
  8
Ebene_1
 62
7
100
AcDbPolyline
 90
2
 70
0
 10
57.705152
 20
211.428109
 30
0.0
 10
57.705152
 20
205.071994
 30
0.0
  0
SPLINE
  5
1b7
100
AcDbEntity
  8
Ebene_1
 62
7
100
AcDbSpline
 70
8
 71
3
 72
8
 73
4
 74
0
 40
0
 40
0
 40
0
 40
0
 40
1
 40
1
 40
1
 40
1
 10
58.680256
 20
202.677531
 30
0.0
 10
59.321529
 20
202.036258
 30
0.0
 10
60.147284
 20
201.702582
 30
0.0
 10
61.074565
 20
201.702582
 30
0.0
  0
LWPOLYLINE
  5
1b8
100
AcDbEntity
  8
Ebene_1
 62
7
100
AcDbPolyline
 90
3
 70
0
 10
58.676656
 20
202.681131
 30
0.0
 10
58.678456
 20
202.679331
 30
0.0
 10
58.680256
 20
202.677531
 30
0.0
  0
SPLINE
  5
1b9
100
AcDbEntity
  8
Ebene_1
 62
7
100
AcDbSpline
 70
8
 71
3
 72
8
 73
4
 74
0
 40
0
 40
0
 40
0
 40
0
 40
1
 40
1
 40
1
 40
1
 10
73.023717
 20
201.702582
 30
0.0
 10
73.923231
 20
201.702582
 30
0.0
 10
74.736933
 20
202.037752
 30
0.0
 10
75.390465
 20
202.674085
 30
0.0
  0
SPLINE
  5
1ba
100
AcDbEntity
  8
Ebene_1
 62
7
100
AcDbSpline
 70
8
 71
3
 72
8
 73
4
 74
0
 40
0
 40
0
 40
0
 40
0
 40
1
 40
1
 40
1
 40
1
 10
75.390465
 20
202.674085
 30
0.0
 10
76.048142
 20
203.314456
 30
0.0
 10
76.391252
 20
204.142204
 30
0.0
 10
76.391252
 20
205.071839
 30
0.0
  0
LWPOLYLINE
  5
1bb
100
AcDbEntity
  8
Ebene_1
 62
7
100
AcDbPolyline
 90
2
 70
0
 10
61.074565
 20
201.702582
 30
0.0
 10
73.023717
 20
201.702582
 30
0.0
  0
SPLINE
  5
1bc
100
AcDbEntity
  8
Ebene_1
 62
7
100
AcDbSpline
 70
8
 71
3
 72
8
 73
4
 74
0
 40
0
 40
0
 40
0
 40
0
 40
1
 40
1
 40
1
 40
1
 10
62.567838
 20
205.452673
 30
0.0
 10
62.236712
 20
205.452673
 30
0.0
 10
61.994511
 20
205.552133
 30
0.0
 10
61.766865
 20
205.764450
 30
0.0
  0
SPLINE
  5
1bd
100
AcDbEntity
  8
Ebene_1
 62
7
100
AcDbSpline
 70
8
 71
3
 72
8
 73
4
 74
0
 40
0
 40
0
 40
0
 40
0
 40
1
 40
1
 40
1
 40
1
 10
61.766865
 20
205.764450
 30
0.0
 10
61.554547
 20
205.992096
 30
0.0
 10
61.455087
 20
206.234298
 30
0.0
 10
61.455087
 20
206.565424
 30
0.0
  0
LWPOLYLINE
  5
1be
100
AcDbEntity
  8
Ebene_1
 62
7
100
AcDbPolyline
 90
3
 70
0
 10
76.391252
 20
205.071839
 30
0.0
 10
76.391252
 20
205.452673
 30
0.0
 10
62.567838
 20
205.452673
 30
0.0
  0
LWPOLYLINE
  5
1bf
100
AcDbEntity
  8
Ebene_1
 62
7
100
AcDbPolyline
 90
3
 70
0
 10
61.455087
 20
206.565424
 30
0.0
 10
61.455087
 20
211.428109
 30
0.0
 10
57.705152
 20
211.428109
 30
0.0
  0
SPLINE
  5
1c0
100
AcDbEntity
  8
Ebene_1
 62
7
100
AcDbSpline
 70
8
 71
3
 72
8
 73
4
 74
0
 40
0
 40
0
 40
0
 40
0
 40
1
 40
1
 40
1
 40
1
 10
73.023562
 20
213.651889
 30
0.0
 10
73.923076
 20
213.651889
 30
0.0
 10
74.736778
 20
213.987059
 30
0.0
 10
75.390310
 20
214.623392
 30
0.0
  0
SPLINE
  5
1c1
100
AcDbEntity
  8
Ebene_1
 62
7
100
AcDbSpline
 70
8
 71
3
 72
8
 73
4
 74
0
 40
0
 40
0
 40
0
 40
0
 40
1
 40
1
 40
1
 40
1
 10
75.390310
 20
214.623392
 30
0.0
 10
76.047987
 20
215.263763
 30
0.0
 10
76.391097
 20
216.091512
 30
0.0
 10
76.391097
 20
217.021146
 30
0.0
  0
LWPOLYLINE
  5
1c2
100
AcDbEntity
  8
Ebene_1
 62
7
100
AcDbPolyline
 90
4
 70
0
 10
57.705152
 20
217.401825
 30
0.0
 10
57.705152
 20
213.651889
 30
0.0
 10
58.087552
 20
213.651889
 30
0.0
 10
73.023562
 20
213.651889
 30
0.0
  0
LWPOLYLINE
  5
1c3
100
AcDbEntity
  8
Ebene_1
 62
7
100
AcDbPolyline
 90
3
 70
0
 10
76.391097
 20
217.021146
 30
0.0
 10
76.391097
 20
217.401825
 30
0.0
 10
57.705152
 20
217.401825
 30
0.0
  0
LWPOLYLINE
  5
1c4
100
AcDbEntity
  8
Ebene_1
 62
7
100
AcDbPolyline
 90
9
 70
1
 10
78.616598
 20
211.428109
 30
0.0
 10
78.616598
 20
201.702737
 30
0.0
 10
78.997276
 20
201.702737
 30
0.0
 10
82.366535
 20
201.702737
 30
0.0
 10
82.366535
 20
207.678174
 30
0.0
 10
93.552609
 20
207.678174
 30
0.0
 10
93.552609
 20
201.702737
 30
0.0
 10
97.302542
 20
201.702737
 30
0.0
 10
97.302542
 20
211.428109
 30
0.0
  0
SPLINE
  5
1c5
100
AcDbEntity
  8
Ebene_1
 62
7
100
AcDbSpline
 70
8
 71
3
 72
8
 73
4
 74
0
 40
0
 40
0
 40
0
 40
0
 40
1
 40
1
 40
1
 40
1
 10
78.616598
 20
217.021146
 30
0.0
 10
78.616598
 20
216.107781
 30
0.0
 10
78.950602
 20
215.285013
 30
0.0
 10
79.588102
 20
214.630283
 30
0.0
  0
LWPOLYLINE
  5
1c6
100
AcDbEntity
  8
Ebene_1
 62
7
100
AcDbPolyline
 90
2
 70
0
 10
78.616598
 20
217.401825
 30
0.0
 10
78.616598
 20
217.021146
 30
0.0
  0
SPLINE
  5
1c7
100
AcDbEntity
  8
Ebene_1
 62
7
100
AcDbSpline
 70
8
 71
3
 72
8
 73
4
 74
0
 40
0
 40
0
 40
0
 40
0
 40
1
 40
1
 40
1
 40
1
 10
79.591702
 20
214.626683
 30
0.0
 10
80.232975
 20
213.985409
 30
0.0
 10
81.057007
 20
213.651734
 30
0.0
 10
81.984289
 20
213.651734
 30
0.0
  0
LWPOLYLINE
  5
1c8
100
AcDbEntity
  8
Ebene_1
 62
7
100
AcDbPolyline
 90
3
 70
0
 10
79.588102
 20
214.630283
 30
0.0
 10
79.589902
 20
214.628483
 30
0.0
 10
79.591702
 20
214.626683
 30
0.0
  0
SPLINE
  5
1c9
100
AcDbEntity
  8
Ebene_1
 62
7
100
AcDbSpline
 70
8
 71
3
 72
8
 73
4
 74
0
 40
0
 40
0
 40
0
 40
0
 40
1
 40
1
 40
1
 40
1
 10
93.933437
 20
213.651734
 30
0.0
 10
94.832947
 20
213.651734
 30
0.0
 10
95.646653
 20
213.986904
 30
0.0
 10
96.300183
 20
214.623237
 30
0.0
  0
SPLINE
  5
1ca
100
AcDbEntity
  8
Ebene_1
 62
7
100
AcDbSpline
 70
8
 71
3
 72
8
 73
4
 74
0
 40
0
 40
0
 40
0
 40
0
 40
1
 40
1
 40
1
 40
1
 10
96.300183
 20
214.623237
 30
0.0
 10
96.957866
 20
215.263607
 30
0.0
 10
97.302693
 20
216.091356
 30
0.0
 10
97.302693
 20
217.020991
 30
0.0
  0
LWPOLYLINE
  5
1cb
100
AcDbEntity
  8
Ebene_1
 62
7
100
AcDbPolyline
 90
2
 70
0
 10
81.984289
 20
213.651734
 30
0.0
 10
93.933437
 20
213.651734
 30
0.0
  0
LWPOLYLINE
  5
1cc
100
AcDbEntity
  8
Ebene_1
 62
7
100
AcDbPolyline
 90
3
 70
0
 10
97.302693
 20
217.020991
 30
0.0
 10
97.302693
 20
217.401753
 30
0.0
 10
78.616598
 20
217.401825
 30
0.0
  0
SPLINE
  5
1cd
100
AcDbEntity
  8
Ebene_1
 62
7
100
AcDbSpline
 70
8
 71
3
 72
8
 73
4
 74
0
 40
0
 40
0
 40
0
 40
0
 40
1
 40
1
 40
1
 40
1
 10
99.526326
 20
217.021146
 30
0.0
 10
99.526326
 20
216.107781
 30
0.0
 10
99.860322
 20
215.285013
 30
0.0
 10
100.497830
 20
214.630283
 30
0.0
  0
LWPOLYLINE
  5
1ce
100
AcDbEntity
  8
Ebene_1
 62
7
100
AcDbPolyline
 90
2
 70
0
 10
99.526326
 20
217.401825
 30
0.0
 10
99.526326
 20
217.021146
 30
0.0
  0
SPLINE
  5
1cf
100
AcDbEntity
  8
Ebene_1
 62
7
100
AcDbSpline
 70
8
 71
3
 72
8
 73
4
 74
0
 40
0
 40
0
 40
0
 40
0
 40
1
 40
1
 40
1
 40
1
 10
100.501830
 20
214.626683
 30
0.0
 10
101.143110
 20
213.985409
 30
0.0
 10
101.968860
 20
213.651734
 30
0.0
 10
102.896140
 20
213.651734
 30
0.0
  0
LWPOLYLINE
  5
1d0
100
AcDbEntity
  8
Ebene_1
 62
7
100
AcDbPolyline
 90
3
 70
0
 10
100.497830
 20
214.630283
 30
0.0
 10
100.499830
 20
214.628483
 30
0.0
 10
100.501830
 20
214.626683
 30
0.0
  0
SPLINE
  5
1d1
100
AcDbEntity
  8
Ebene_1
 62
7
100
AcDbSpline
 70
8
 71
3
 72
8
 73
4
 74
0
 40
0
 40
0
 40
0
 40
0
 40
1
 40
1
 40
1
 40
1
 10
114.462890
 20
212.538983
 30
0.0
 10
114.462890
 20
212.210444
 30
0.0
 10
114.362530
 20
211.971862
 30
0.0
 10
114.133890
 20
211.741454
 30
0.0
  0
SPLINE
  5
1d2
100
AcDbEntity
  8
Ebene_1
 62
7
100
AcDbSpline
 70
8
 71
3
 72
8
 73
4
 74
0
 40
0
 40
0
 40
0
 40
0
 40
1
 40
1
 40
1
 40
1
 10
114.133890
 20
211.741454
 30
0.0
 10
113.902750
 20
211.524149
 30
0.0
 10
113.666340
 20
211.427954
 30
0.0
 10
113.351870
 20
211.427954
 30
0.0
  0
LWPOLYLINE
  5
1d3
100
AcDbEntity
  8
Ebene_1
 62
7
100
AcDbPolyline
 90
3
 70
0
 10
102.896140
 20
213.651734
 30
0.0
 10
114.462890
 20
213.651734
 30
0.0
 10
114.462890
 20
212.538983
 30
0.0
  0
SPLINE
  5
1d4
100
AcDbEntity
  8
Ebene_1
 62
7
100
AcDbSpline
 70
8
 71
3
 72
8
 73
4
 74
0
 40
0
 40
0
 40
0
 40
0
 40
1
 40
1
 40
1
 40
1
 10
114.844810
 20
207.678019
 30
0.0
 10
115.744330
 20
207.678019
 30
0.0
 10
116.558030
 20
208.013188
 30
0.0
 10
117.211560
 20
208.649523
 30
0.0
  0
SPLINE
  5
1d5
100
AcDbEntity
  8
Ebene_1
 62
7
100
AcDbSpline
 70
8
 71
3
 72
8
 73
4
 74
0
 40
0
 40
0
 40
0
 40
0
 40
1
 40
1
 40
1
 40
1
 10
117.211560
 20
208.649523
 30
0.0
 10
117.869160
 20
209.289975
 30
0.0
 10
118.213990
 20
210.116002
 30
0.0
 10
118.213990
 20
211.045638
 30
0.0
  0
LWPOLYLINE
  5
1d6
100
AcDbEntity
  8
Ebene_1
 62
7
100
AcDbPolyline
 90
11
 70
0
 10
113.351870
 20
211.427954
 30
0.0
 10
99.526405
 20
211.427954
 30
0.0
 10
99.526405
 20
201.702582
 30
0.0
 10
99.908802
 20
201.702582
 30
0.0
 10
103.276340
 20
201.702582
 30
0.0
 10
103.276340
 20
207.678019
 30
0.0
 10
107.219190
 20
207.678019
 30
0.0
 10
113.192910
 20
201.702582
 30
0.0
 10
118.753220
 20
201.702582
 30
0.0
 10
112.777790
 20
207.678019
 30
0.0
 10
114.844810
 20
207.678019
 30
0.0
  0
LWPOLYLINE
  5
1d7
100
AcDbEntity
  8
Ebene_1
 62
7
100
AcDbPolyline
 90
3
 70
0
 10
118.213990
 20
211.045638
 30
0.0
 10
118.213990
 20
217.401753
 30
0.0
 10
99.526326
 20
217.401825
 30
0.0
  0
SPLINE
  5
1d8
100
AcDbEntity
  8
Ebene_1
 62
7
100
AcDbSpline
 70
8
 71
3
 72
8
 73
4
 74
0
 40
0
 40
0
 40
0
 40
0
 40
1
 40
1
 40
1
 40
1
 10
123.807030
 20
205.452673
 30
0.0
 10
122.891260
 20
205.452673
 30
0.0
 10
122.066640
 20
205.109254
 30
0.0
 10
121.412720
 20
204.455330
 30
0.0
  0
SPLINE
  5
1d9
100
AcDbEntity
  8
Ebene_1
 62
7
100
AcDbSpline
 70
8
 71
3
 72
8
 73
4
 74
0
 40
0
 40
0
 40
0
 40
0
 40
1
 40
1
 40
1
 40
1
 10
121.412720
 20
204.455330
 30
0.0
 10
120.772660
 20
203.815272
 30
0.0
 10
120.437770
 20
202.998503
 30
0.0
 10
120.437770
 20
202.085137
 30
0.0
  0
LWPOLYLINE
  5
1da
100
AcDbEntity
  8
Ebene_1
 62
7
100
AcDbPolyline
 90
5
 70
0
 10
120.437770
 20
217.401825
 30
0.0
 10
120.437770
 20
207.678174
 30
0.0
 10
135.373780
 20
207.678174
 30
0.0
 10
135.373780
 20
205.452673
 30
0.0
 10
123.807030
 20
205.452673
 30
0.0
  0
SPLINE
  5
1db
100
AcDbEntity
  8
Ebene_1
 62
7
100
AcDbSpline
 70
8
 71
3
 72
8
 73
4
 74
0
 40
0
 40
0
 40
0
 40
0
 40
1
 40
1
 40
1
 40
1
 10
135.754460
 20
213.651889
 30
0.0
 10
136.653970
 20
213.651889
 30
0.0
 10
137.467670
 20
213.987059
 30
0.0
 10
138.121210
 20
214.623392
 30
0.0
  0
SPLINE
  5
1dc
100
AcDbEntity
  8
Ebene_1
 62
7
100
AcDbSpline
 70
8
 71
3
 72
8
 73
4
 74
0
 40
0
 40
0
 40
0
 40
0
 40
1
 40
1
 40
1
 40
1
 10
138.121210
 20
214.623392
 30
0.0
 10
138.778880
 20
215.263762
 30
0.0
 10
139.123710
 20
216.091511
 30
0.0
 10
139.123710
 20
217.021146
 30
0.0
  0
LWPOLYLINE
  5
1dd
100
AcDbEntity
  8
Ebene_1
 62
7
100
AcDbPolyline
 90
8
 70
0
 10
120.437770
 20
202.085137
 30
0.0
 10
120.437770
 20
201.702737
 30
0.0
 10
120.818440
 20
201.702737
 30
0.0
 10
139.123710
 20
201.702737
 30
0.0
 10
139.123710
 20
211.428109
 30
0.0
 10
124.187710
 20
211.428109
 30
0.0
 10
124.187710
 20
213.651889
 30
0.0
 10
135.754460
 20
213.651889
 30
0.0
  0
LWPOLYLINE
  5
1de
100
AcDbEntity
  8
Ebene_1
 62
7
100
AcDbPolyline
 90
3
 70
0
 10
139.123710
 20
217.021146
 30
0.0
 10
139.123710
 20
217.401825
 30
0.0
 10
120.437770
 20
217.401825
 30
0.0
  0
LWPOLYLINE
  5
1df
100
AcDbEntity
  8
Ebene_1
 62
7
100
AcDbPolyline
 90
18
 70
1
 10
456.775032
 20
217.082086
 30
0.0
 10
460.080552
 20
213.776559
 30
0.0
 10
460.080552
 20
202.805795
 30
0.0
 10
460.524967
 20
202.805795
 30
0.0
 10
463.646181
 20
202.805795
 30
0.0
 10
463.646181
 20
210.210932
 30
0.0
 10
466.774292
 20
207.082826
 30
0.0
 10
466.774292
 20
202.805795
 30
0.0
 10
470.341640
 20
202.805795
 30
0.0
 10
470.341640
 20
207.082826
 30
0.0
 10
473.469742
 20
210.210932
 30
0.0
 10
473.469742
 20
202.805795
 30
0.0
 10
477.035370
 20
202.805795
 30
0.0
 10
477.035370
 20
213.776559
 30
0.0
 10
480.340899
 20
217.082086
 30
0.0
 10
475.068245
 20
217.082086
 30
0.0
 10
468.557102
 20
210.570940
 30
0.0
 10
462.047678
 20
217.082086
 30
0.0
  0
LWPOLYLINE
  5
1e0
100
AcDbEntity
  8
Ebene_1
 62
7
100
AcDbPolyline
 90
9
 70
1
 10
481.503605
 20
211.726755
 30
0.0
 10
481.503605
 20
202.805795
 30
0.0
 10
481.946291
 20
202.805795
 30
0.0
 10
498.458423
 20
202.805795
 30
0.0
 10
498.458423
 20
211.726755
 30
0.0
 10
494.892794
 20
211.726755
 30
0.0
 10
494.892794
 20
206.371423
 30
0.0
 10
485.069233
 20
206.371423
 30
0.0
 10
485.069233
 20
211.726755
 30
0.0
  0
SPLINE
  5
1e1
100
AcDbEntity
  8
Ebene_1
 62
7
100
AcDbSpline
 70
8
 71
3
 72
8
 73
4
 74
0
 40
0
 40
0
 40
0
 40
0
 40
1
 40
1
 40
1
 40
1
 10
481.503605
 20
216.637674
 30
0.0
 10
481.503605
 20
215.795150
 30
0.0
 10
481.814733
 20
215.028146
 30
0.0
 10
482.402762
 20
214.424229
 30
0.0
  0
LWPOLYLINE
  5
1e2
100
AcDbEntity
  8
Ebene_1
 62
7
100
AcDbPolyline
 90
2
 70
0
 10
481.503605
 20
217.082086
 30
0.0
 10
481.503605
 20
216.637674
 30
0.0
  0
SPLINE
  5
1e3
100
AcDbEntity
  8
Ebene_1
 62
7
100
AcDbSpline
 70
8
 71
3
 72
8
 73
4
 74
0
 40
0
 40
0
 40
0
 40
0
 40
1
 40
1
 40
1
 40
1
 10
482.406289
 20
214.420701
 30
0.0
 10
482.998701
 20
213.828285
 30
0.0
 10
483.770340
 20
213.516376
 30
0.0
 10
484.624898
 20
213.516375
 30
0.0
  0
LWPOLYLINE
  5
1e4
100
AcDbEntity
  8
Ebene_1
 62
7
100
AcDbPolyline
 90
3
 70
0
 10
482.402762
 20
214.424229
 30
0.0
 10
482.404526
 20
214.422465
 30
0.0
 10
482.406289
 20
214.420701
 30
0.0
  0
SPLINE
  5
1e5
100
AcDbEntity
  8
Ebene_1
 62
7
100
AcDbSpline
 70
8
 71
3
 72
8
 73
4
 74
0
 40
0
 40
0
 40
0
 40
0
 40
1
 40
1
 40
1
 40
1
 10
495.335560
 20
213.516375
 30
0.0
 10
496.166120
 20
213.516376
 30
0.0
 10
496.925817
 20
213.830590
 30
0.0
 10
497.528336
 20
214.417256
 30
0.0
  0
SPLINE
  5
1e6
100
AcDbEntity
  8
Ebene_1
 62
7
100
AcDbSpline
 70
8
 71
3
 72
8
 73
4
 74
0
 40
0
 40
0
 40
0
 40
0
 40
1
 40
1
 40
1
 40
1
 10
497.528336
 20
214.417256
 30
0.0
 10
498.135688
 20
215.008620
 30
0.0
 10
498.458502
 20
215.780292
 30
0.0
 10
498.458502
 20
216.637591
 30
0.0
  0
LWPOLYLINE
  5
1e7
100
AcDbEntity
  8
Ebene_1
 62
7
100
AcDbPolyline
 90
2
 70
0
 10
484.624898
 20
213.516375
 30
0.0
 10
495.335560
 20
213.516375
 30
0.0
  0
LWPOLYLINE
  5
1e8
100
AcDbEntity
  8
Ebene_1
 62
7
100
AcDbPolyline
 90
3
 70
0
 10
498.458502
 20
216.637591
 30
0.0
 10
498.458502
 20
217.082003
 30
0.0
 10
481.503605
 20
217.082086
 30
0.0
  0
SPLINE
  5
1e9
100
AcDbEntity
  8
Ebene_1
 62
7
100
AcDbSpline
 70
8
 71
3
 72
8
 73
4
 74
0
 40
0
 40
0
 40
0
 40
0
 40
1
 40
1
 40
1
 40
1
 10
500.248120
 20
216.637674
 30
0.0
 10
500.248120
 20
215.795150
 30
0.0
 10
500.559258
 20
215.028146
 30
0.0
 10
501.147286
 20
214.424229
 30
0.0
  0
LWPOLYLINE
  5
1ea
100
AcDbEntity
  8
Ebene_1
 62
7
100
AcDbPolyline
 90
2
 70
0
 10
500.248120
 20
217.082086
 30
0.0
 10
500.248120
 20
216.637674
 30
0.0
  0
SPLINE
  5
1eb
100
AcDbEntity
  8
Ebene_1
 62
7
100
AcDbSpline
 70
8
 71
3
 72
8
 73
4
 74
0
 40
0
 40
0
 40
0
 40
0
 40
1
 40
1
 40
1
 40
1
 10
501.152578
 20
214.420701
 30
0.0
 10
501.744999
 20
213.828286
 30
0.0
 10
502.514917
 20
213.516376
 30
0.0
 10
503.369475
 20
213.516375
 30
0.0
  0
LWPOLYLINE
  5
1ec
100
AcDbEntity
  8
Ebene_1
 62
7
100
AcDbPolyline
 90
3
 70
0
 10
501.147286
 20
214.424229
 30
0.0
 10
501.149050
 20
214.422465
 30
0.0
 10
501.152578
 20
214.420701
 30
0.0
  0
SPLINE
  5
1ed
100
AcDbEntity
  8
Ebene_1
 62
7
100
AcDbSpline
 70
8
 71
3
 72
8
 73
4
 74
0
 40
0
 40
0
 40
0
 40
0
 40
1
 40
1
 40
1
 40
1
 10
513.637442
 20
207.265331
 30
0.0
 10
513.637442
 20
206.995653
 30
0.0
 10
513.556921
 20
206.813172
 30
0.0
 10
513.370454
 20
206.624551
 30
0.0
  0
SPLINE
  5
1ee
100
AcDbEntity
  8
Ebene_1
 62
7
100
AcDbSpline
 70
8
 71
3
 72
8
 73
4
 74
0
 40
0
 40
0
 40
0
 40
0
 40
1
 40
1
 40
1
 40
1
 10
513.370454
 20
206.624551
 30
0.0
 10
513.180989
 20
206.447115
 30
0.0
 10
512.999205
 20
206.371340
 30
0.0
 10
512.741733
 20
206.371340
 30
0.0
  0
LWPOLYLINE
  5
1ef
100
AcDbEntity
  8
Ebene_1
 62
7
100
AcDbPolyline
 90
3
 70
0
 10
503.369475
 20
213.516375
 30
0.0
 10
513.637442
 20
213.516375
 30
0.0
 10
513.637442
 20
207.265331
 30
0.0
  0
SPLINE
  5
1f0
100
AcDbEntity
  8
Ebene_1
 62
7
100
AcDbSpline
 70
8
 71
3
 72
8
 73
4
 74
0
 40
0
 40
0
 40
0
 40
0
 40
1
 40
1
 40
1
 40
1
 10
514.080137
 20
202.805712
 30
0.0
 10
514.910697
 20
202.805712
 30
0.0
 10
515.670395
 20
203.118205
 30
0.0
 10
516.272914
 20
203.704870
 30
0.0
  0
SPLINE
  5
1f1
100
AcDbEntity
  8
Ebene_1
 62
7
100
AcDbSpline
 70
8
 71
3
 72
8
 73
4
 74
0
 40
0
 40
0
 40
0
 40
0
 40
1
 40
1
 40
1
 40
1
 10
516.272914
 20
203.704870
 30
0.0
 10
516.880257
 20
204.296235
 30
0.0
 10
517.203071
 20
205.069629
 30
0.0
 10
517.203071
 20
205.926929
 30
0.0
  0
LWPOLYLINE
  5
1f2
100
AcDbEntity
  8
Ebene_1
 62
7
100
AcDbPolyline
 90
7
 70
0
 10
512.741733
 20
206.371340
 30
0.0
 10
503.813881
 20
206.371340
 30
0.0
 10
503.813881
 20
211.726672
 30
0.0
 10
500.248253
 20
211.726672
 30
0.0
 10
500.248253
 20
202.805712
 30
0.0
 10
500.692668
 20
202.805712
 30
0.0
 10
514.080137
 20
202.805712
 30
0.0
  0
LWPOLYLINE
  5
1f3
100
AcDbEntity
  8
Ebene_1
 62
7
100
AcDbPolyline
 90
3
 70
0
 10
517.203071
 20
205.926929
 30
0.0
 10
517.203071
 20
217.082086
 30
0.0
 10
500.248120
 20
217.082086
 30
0.0
  0
SPLINE
  5
1f4
100
AcDbEntity
  8
Ebene_1
 62
7
100
AcDbSpline
 70
8
 71
3
 72
8
 73
4
 74
0
 40
0
 40
0
 40
0
 40
0
 40
1
 40
1
 40
1
 40
1
 10
518.992645
 20
205.927012
 30
0.0
 10
518.992645
 20
205.084488
 30
0.0
 10
519.303782
 20
204.317482
 30
0.0
 10
519.891802
 20
203.713566
 30
0.0
  0
LWPOLYLINE
  5
1f5
100
AcDbEntity
  8
Ebene_1
 62
7
100
AcDbPolyline
 90
2
 70
0
 10
518.992645
 20
206.371423
 30
0.0
 10
518.992645
 20
205.927012
 30
0.0
  0
SPLINE
  5
1f6
100
AcDbEntity
  8
Ebene_1
 62
7
100
AcDbSpline
 70
8
 71
3
 72
8
 73
4
 74
0
 40
0
 40
0
 40
0
 40
0
 40
1
 40
1
 40
1
 40
1
 10
519.897094
 20
203.710039
 30
0.0
 10
520.489515
 20
203.117624
 30
0.0
 10
521.259433
 20
202.805712
 30
0.0
 10
522.113982
 20
202.805712
 30
0.0
  0
LWPOLYLINE
  5
1f7
100
AcDbEntity
  8
Ebene_1
 62
7
100
AcDbPolyline
 90
3
 70
0
 10
519.891802
 20
203.713566
 30
0.0
 10
519.895330
 20
203.711802
 30
0.0
 10
519.897094
 20
203.710039
 30
0.0
  0
SPLINE
  5
1f8
100
AcDbEntity
  8
Ebene_1
 62
7
100
AcDbSpline
 70
8
 71
3
 72
8
 73
4
 74
0
 40
0
 40
0
 40
0
 40
0
 40
1
 40
1
 40
1
 40
1
 10
532.826373
 20
202.805712
 30
0.0
 10
533.656942
 20
202.805712
 30
0.0
 10
534.416630
 20
203.118204
 30
0.0
 10
535.019140
 20
203.704870
 30
0.0
  0
SPLINE
  5
1f9
100
AcDbEntity
  8
Ebene_1
 62
7
100
AcDbSpline
 70
8
 71
3
 72
8
 73
4
 74
0
 40
0
 40
0
 40
0
 40
0
 40
1
 40
1
 40
1
 40
1
 10
535.019140
 20
203.704870
 30
0.0
 10
535.626492
 20
204.296235
 30
0.0
 10
535.947586
 20
205.069629
 30
0.0
 10
535.947586
 20
205.926929
 30
0.0
  0
LWPOLYLINE
  5
1fa
100
AcDbEntity
  8
Ebene_1
 62
7
100
AcDbPolyline
 90
2
 70
0
 10
522.113982
 20
202.805712
 30
0.0
 10
532.826373
 20
202.805712
 30
0.0
  0
LWPOLYLINE
  5
1fb
100
AcDbEntity
  8
Ebene_1
 62
7
100
AcDbPolyline
 90
3
 70
0
 10
535.947586
 20
205.926929
 30
0.0
 10
535.947586
 20
206.371423
 30
0.0
 10
518.992645
 20
206.371423
 30
0.0
  0
SPLINE
  5
1fc
100
AcDbEntity
  8
Ebene_1
 62
7
100
AcDbSpline
 70
8
 71
3
 72
8
 73
4
 74
0
 40
0
 40
0
 40
0
 40
0
 40
1
 40
1
 40
1
 40
1
 10
518.992645
 20
211.282343
 30
0.0
 10
518.992645
 20
210.439819
 30
0.0
 10
519.303782
 20
209.672814
 30
0.0
 10
519.891802
 20
209.068898
 30
0.0
  0
LWPOLYLINE
  5
1fd
100
AcDbEntity
  8
Ebene_1
 62
7
100
AcDbPolyline
 90
2
 70
0
 10
518.992645
 20
211.726755
 30
0.0
 10
518.992645
 20
211.282343
 30
0.0
  0
SPLINE
  5
1fe
100
AcDbEntity
  8
Ebene_1
 62
7
100
AcDbSpline
 70
8
 71
3
 72
8
 73
4
 74
0
 40
0
 40
0
 40
0
 40
0
 40
1
 40
1
 40
1
 40
1
 10
519.897094
 20
209.065370
 30
0.0
 10
520.489515
 20
208.472956
 30
0.0
 10
521.259433
 20
208.161044
 30
0.0
 10
522.113982
 20
208.161044
 30
0.0
  0
LWPOLYLINE
  5
1ff
100
AcDbEntity
  8
Ebene_1
 62
7
100
AcDbPolyline
 90
3
 70
0
 10
519.891802
 20
209.068898
 30
0.0
 10
519.895330
 20
209.067134
 30
0.0
 10
519.897094
 20
209.065370
 30
0.0
  0
SPLINE
  5
200
100
AcDbEntity
  8
Ebene_1
 62
7
100
AcDbSpline
 70
8
 71
3
 72
8
 73
4
 74
0
 40
0
 40
0
 40
0
 40
0
 40
1
 40
1
 40
1
 40
1
 10
532.826373
 20
208.161044
 30
0.0
 10
533.656942
 20
208.161044
 30
0.0
 10
534.416630
 20
208.473536
 30
0.0
 10
535.019140
 20
209.060202
 30
0.0
  0
SPLINE
  5
201
100
AcDbEntity
  8
Ebene_1
 62
7
100
AcDbSpline
 70
8
 71
3
 72
8
 73
4
 74
0
 40
0
 40
0
 40
0
 40
0
 40
1
 40
1
 40
1
 40
1
 10
535.019140
 20
209.060202
 30
0.0
 10
535.626492
 20
209.651566
 30
0.0
 10
535.947586
 20
210.424961
 30
0.0
 10
535.947586
 20
211.282260
 30
0.0
  0
LWPOLYLINE
  5
202
100
AcDbEntity
  8
Ebene_1
 62
7
100
AcDbPolyline
 90
2
 70
0
 10
522.113982
 20
208.161044
 30
0.0
 10
532.826373
 20
208.161044
 30
0.0
  0
LWPOLYLINE
  5
203
100
AcDbEntity
  8
Ebene_1
 62
7
100
AcDbPolyline
 90
3
 70
0
 10
535.947586
 20
211.282260
 30
0.0
 10
535.947586
 20
211.726672
 30
0.0
 10
518.992645
 20
211.726755
 30
0.0
  0
SPLINE
  5
204
100
AcDbEntity
  8
Ebene_1
 62
7
100
AcDbSpline
 70
8
 71
3
 72
8
 73
4
 74
0
 40
0
 40
0
 40
0
 40
0
 40
1
 40
1
 40
1
 40
1
 10
518.992645
 20
216.637674
 30
0.0
 10
518.992645
 20
215.795151
 30
0.0
 10
519.303782
 20
215.028146
 30
0.0
 10
519.891802
 20
214.424229
 30
0.0
  0
LWPOLYLINE
  5
205
100
AcDbEntity
  8
Ebene_1
 62
7
100
AcDbPolyline
 90
2
 70
0
 10
518.992645
 20
217.082086
 30
0.0
 10
518.992645
 20
216.637674
 30
0.0
  0
SPLINE
  5
206
100
AcDbEntity
  8
Ebene_1
 62
7
100
AcDbSpline
 70
8
 71
3
 72
8
 73
4
 74
0
 40
0
 40
0
 40
0
 40
0
 40
1
 40
1
 40
1
 40
1
 10
519.897094
 20
214.420701
 30
0.0
 10
520.489515
 20
213.828287
 30
0.0
 10
521.259433
 20
213.516375
 30
0.0
 10
522.113982
 20
213.516375
 30
0.0
  0
LWPOLYLINE
  5
207
100
AcDbEntity
  8
Ebene_1
 62
7
100
AcDbPolyline
 90
3
 70
0
 10
519.891802
 20
214.424229
 30
0.0
 10
519.895330
 20
214.422465
 30
0.0
 10
519.897094
 20
214.420701
 30
0.0
  0
SPLINE
  5
208
100
AcDbEntity
  8
Ebene_1
 62
7
100
AcDbSpline
 70
8
 71
3
 72
8
 73
4
 74
0
 40
0
 40
0
 40
0
 40
0
 40
1
 40
1
 40
1
 40
1
 10
532.826373
 20
213.516375
 30
0.0
 10
533.656942
 20
213.516376
 30
0.0
 10
534.416630
 20
213.830590
 30
0.0
 10
535.019140
 20
214.417256
 30
0.0
  0
SPLINE
  5
209
100
AcDbEntity
  8
Ebene_1
 62
7
100
AcDbSpline
 70
8
 71
3
 72
8
 73
4
 74
0
 40
0
 40
0
 40
0
 40
0
 40
1
 40
1
 40
1
 40
1
 10
535.019140
 20
214.417256
 30
0.0
 10
535.626492
 20
215.008620
 30
0.0
 10
535.947586
 20
215.780292
 30
0.0
 10
535.947586
 20
216.637591
 30
0.0
  0
LWPOLYLINE
  5
20a
100
AcDbEntity
  8
Ebene_1
 62
7
100
AcDbPolyline
 90
2
 70
0
 10
522.113982
 20
213.516375
 30
0.0
 10
532.826373
 20
213.516375
 30
0.0
  0
LWPOLYLINE
  5
20b
100
AcDbEntity
  8
Ebene_1
 62
7
100
AcDbPolyline
 90
3
 70
0
 10
535.947586
 20
216.637591
 30
0.0
 10
535.947586
 20
217.082003
 30
0.0
 10
518.992645
 20
217.082086
 30
0.0
  0
SPLINE
  5
20c
100
AcDbEntity
  8
Ebene_1
 62
7
100
AcDbSpline
 70
8
 71
3
 72
8
 73
4
 74
0
 40
0
 40
0
 40
0
 40
0
 40
1
 40
1
 40
1
 40
1
 10
551.570765
 20
202.805795
 30
0.0
 10
552.401334
 20
202.805795
 30
0.0
 10
553.161022
 20
203.118289
 30
0.0
 10
553.763541
 20
203.704953
 30
0.0
  0
SPLINE
  5
20d
100
AcDbEntity
  8
Ebene_1
 62
7
100
AcDbSpline
 70
8
 71
3
 72
8
 73
4
 74
0
 40
0
 40
0
 40
0
 40
0
 40
1
 40
1
 40
1
 40
1
 10
553.763541
 20
203.704953
 30
0.0
 10
554.370885
 20
204.296318
 30
0.0
 10
554.691988
 20
205.069714
 30
0.0
 10
554.691988
 20
205.927012
 30
0.0
  0
LWPOLYLINE
  5
20e
100
AcDbEntity
  8
Ebene_1
 62
7
100
AcDbPolyline
 90
4
 70
0
 10
537.737170
 20
217.082086
 30
0.0
 10
537.737170
 20
202.805795
 30
0.0
 10
538.181576
 20
202.805795
 30
0.0
 10
551.570765
 20
202.805795
 30
0.0
  0
LWPOLYLINE
  5
20f
100
AcDbEntity
  8
Ebene_1
 62
7
100
AcDbPolyline
 90
5
 70
0
 10
554.691988
 20
205.927012
 30
0.0
 10
554.691988
 20
206.371423
 30
0.0
 10
541.302789
 20
206.371423
 30
0.0
 10
541.302789
 20
217.082086
 30
0.0
 10
537.737170
 20
217.082086
 30
0.0
  0
SPLINE
  5
210
100
AcDbEntity
  8
Ebene_1
 62
7
100
AcDbSpline
 70
8
 71
3
 72
8
 73
4
 74
0
 40
0
 40
0
 40
0
 40
0
 40
1
 40
1
 40
1
 40
1
 10
559.604628
 20
206.371423
 30
0.0
 10
558.759313
 20
206.371423
 30
0.0
 10
557.988988
 20
206.049402
 30
0.0
 10
557.386011
 20
205.446427
 30
0.0
  0
SPLINE
  5
211
100
AcDbEntity
  8
Ebene_1
 62
7
100
AcDbSpline
 70
8
 71
3
 72
8
 73
4
 74
0
 40
0
 40
0
 40
0
 40
0
 40
1
 40
1
 40
1
 40
1
 10
557.386011
 20
205.446427
 30
0.0
 10
556.795019
 20
204.855425
 30
0.0
 10
556.481685
 20
204.091008
 30
0.0
 10
556.481685
 20
203.248484
 30
0.0
  0
LWPOLYLINE
  5
212
100
AcDbEntity
  8
Ebene_1
 62
7
100
AcDbPolyline
 90
5
 70
0
 10
556.481685
 20
217.082086
 30
0.0
 10
556.481685
 20
208.161127
 30
0.0
 10
569.870875
 20
208.161127
 30
0.0
 10
569.870875
 20
206.371423
 30
0.0
 10
559.604628
 20
206.371423
 30
0.0
  0
SPLINE
  5
213
100
AcDbEntity
  8
Ebene_1
 62
7
100
AcDbSpline
 70
8
 71
3
 72
8
 73
4
 74
0
 40
0
 40
0
 40
0
 40
0
 40
1
 40
1
 40
1
 40
1
 10
570.315290
 20
213.516458
 30
0.0
 10
571.145850
 20
213.516458
 30
0.0
 10
571.905538
 20
213.830675
 30
0.0
 10
572.508066
 20
214.417339
 30
0.0
  0
SPLINE
  5
214
100
AcDbEntity
  8
Ebene_1
 62
7
100
AcDbSpline
 70
8
 71
3
 72
8
 73
4
 74
0
 40
0
 40
0
 40
0
 40
0
 40
1
 40
1
 40
1
 40
1
 10
572.508066
 20
214.417339
 30
0.0
 10
573.115409
 20
215.008704
 30
0.0
 10
573.436503
 20
215.780376
 30
0.0
 10
573.436503
 20
216.637674
 30
0.0
  0
LWPOLYLINE
  5
215
100
AcDbEntity
  8
Ebene_1
 62
7
100
AcDbPolyline
 90
8
 70
0
 10
556.481685
 20
203.248484
 30
0.0
 10
556.481685
 20
202.805795
 30
0.0
 10
556.926100
 20
202.805795
 30
0.0
 10
573.436503
 20
202.805795
 30
0.0
 10
573.436503
 20
211.726755
 30
0.0
 10
560.047314
 20
211.726755
 30
0.0
 10
560.047314
 20
213.516458
 30
0.0
 10
570.315290
 20
213.516458
 30
0.0
  0
SPLINE
  5
216
100
AcDbEntity
  8
Ebene_1
 62
7
100
AcDbSpline
 70
8
 71
3
 72
8
 73
4
 74
0
 40
0
 40
0
 40
0
 40
0
 40
1
 40
1
 40
1
 40
1
 10
459.508704
 20
274.549184
 30
0.0
 10
442.492186
 20
274.549184
 30
0.0
 10
428.698181
 20
260.773796
 30
0.0
 10
428.698181
 20
243.780252
 30
0.0
  0
LWPOLYLINE
  5
217
100
AcDbEntity
  8
Ebene_1
 62
7
100
AcDbPolyline
 90
3
 70
0
 10
573.436503
 20
216.637674
 30
0.0
 10
573.436503
 20
217.082086
 30
0.0
 10
556.481685
 20
217.082086
 30
0.0
  0
SPLINE
  5
218
100
AcDbEntity
  8
Ebene_1
 62
7
100
AcDbSpline
 70
8
 71
3
 72
8
 73
4
 74
0
 40
0
 40
0
 40
0
 40
0
 40
1
 40
1
 40
1
 40
1
 10
428.698181
 20
58.710216
 30
0.0
 10
428.698181
 20
41.716664
 30
0.0
 10
442.492186
 20
27.941276
 30
0.0
 10
459.508704
 20
27.941276
 30
0.0
  0
LWPOLYLINE
  5
219
100
AcDbEntity
  8
Ebene_1
 62
7
100
AcDbPolyline
 90
2
 70
0
 10
428.698181
 20
243.780252
 30
0.0
 10
428.698181
 20
58.710216
 30
0.0
  0
SPLINE
  5
21a
100
AcDbEntity
  8
Ebene_1
 62
7
100
AcDbSpline
 70
8
 71
3
 72
8
 73
4
 74
0
 40
0
 40
0
 40
0
 40
0
 40
1
 40
1
 40
1
 40
1
 10
570.701494
 20
27.941276
 30
0.0
 10
587.718012
 20
27.941276
 30
0.0
 10
601.512017
 20
41.716664
 30
0.0
 10
601.512017
 20
58.710216
 30
0.0
  0
LWPOLYLINE
  5
21b
100
AcDbEntity
  8
Ebene_1
 62
7
100
AcDbPolyline
 90
2
 70
0
 10
459.508704
 20
27.941276
 30
0.0
 10
570.701494
 20
27.941276
 30
0.0
  0
SPLINE
  5
21c
100
AcDbEntity
  8
Ebene_1
 62
7
100
AcDbSpline
 70
8
 71
3
 72
8
 73
4
 74
0
 40
0
 40
0
 40
0
 40
0
 40
1
 40
1
 40
1
 40
1
 10
601.512017
 20
243.780252
 30
0.0
 10
601.512017
 20
260.773796
 30
0.0
 10
587.718012
 20
274.549184
 30
0.0
 10
570.701494
 20
274.549184
 30
0.0
  0
LWPOLYLINE
  5
21d
100
AcDbEntity
  8
Ebene_1
 62
7
100
AcDbPolyline
 90
2
 70
0
 10
601.512017
 20
58.710216
 30
0.0
 10
601.512017
 20
243.780252
 30
0.0
  0
LWPOLYLINE
  5
21e
100
AcDbEntity
  8
Ebene_1
 62
7
100
AcDbPolyline
 90
2
 70
0
 10
570.701494
 20
274.549184
 30
0.0
 10
459.508704
 20
274.549184
 30
0.0
  0
SPLINE
  5
21f
100
AcDbEntity
  8
Ebene_1
 62
7
100
AcDbSpline
 70
8
 71
3
 72
8
 73
4
 74
0
 40
0
 40
0
 40
0
 40
0
 40
1
 40
1
 40
1
 40
1
 10
570.701494
 20
268.534356
 30
0.0
 10
584.485472
 20
268.534356
 30
0.0
 10
595.489059
 20
257.545612
 30
0.0
 10
595.489059
 20
243.780252
 30
0.0
  0
LWPOLYLINE
  5
220
100
AcDbEntity
  8
Ebene_1
 62
7
100
AcDbPolyline
 90
2
 70
0
 10
459.508704
 20
268.534356
 30
0.0
 10
570.701494
 20
268.534356
 30
0.0
  0
SPLINE
  5
221
100
AcDbEntity
  8
Ebene_1
 62
7
100
AcDbSpline
 70
8
 71
3
 72
8
 73
4
 74
0
 40
0
 40
0
 40
0
 40
0
 40
1
 40
1
 40
1
 40
1
 10
595.489059
 20
58.710216
 30
0.0
 10
595.489059
 20
44.944847
 30
0.0
 10
584.485472
 20
33.956112
 30
0.0
 10
570.701494
 20
33.956112
 30
0.0
  0
LWPOLYLINE
  5
222
100
AcDbEntity
  8
Ebene_1
 62
7
100
AcDbPolyline
 90
2
 70
0
 10
595.489059
 20
243.780252
 30
0.0
 10
595.489059
 20
58.710216
 30
0.0
  0
SPLINE
  5
223
100
AcDbEntity
  8
Ebene_1
 62
7
100
AcDbSpline
 70
8
 71
3
 72
8
 73
4
 74
0
 40
0
 40
0
 40
0
 40
0
 40
1
 40
1
 40
1
 40
1
 10
459.508704
 20
33.956112
 30
0.0
 10
445.724717
 20
33.956112
 30
0.0
 10
434.721139
 20
44.944847
 30
0.0
 10
434.721139
 20
58.710216
 30
0.0
  0
LWPOLYLINE
  5
224
100
AcDbEntity
  8
Ebene_1
 62
7
100
AcDbPolyline
 90
2
 70
0
 10
570.701494
 20
33.956112
 30
0.0
 10
459.508704
 20
33.956112
 30
0.0
  0
SPLINE
  5
225
100
AcDbEntity
  8
Ebene_1
 62
7
100
AcDbSpline
 70
8
 71
3
 72
8
 73
4
 74
0
 40
0
 40
0
 40
0
 40
0
 40
1
 40
1
 40
1
 40
1
 10
434.721139
 20
243.780252
 30
0.0
 10
434.721139
 20
257.545612
 30
0.0
 10
445.724717
 20
268.534356
 30
0.0
 10
459.508704
 20
268.534356
 30
0.0
  0
LWPOLYLINE
  5
226
100
AcDbEntity
  8
Ebene_1
 62
7
100
AcDbPolyline
 90
2
 70
0
 10
434.721139
 20
58.710216
 30
0.0
 10
434.721139
 20
243.780252
 30
0.0
  0
SPLINE
  5
227
100
AcDbEntity
  8
Ebene_1
 62
7
100
AcDbSpline
 70
8
 71
3
 72
8
 73
4
 74
0
 40
0
 40
0
 40
0
 40
0
 40
1
 40
1
 40
1
 40
1
 10
449.036252
 20
47.194200
 30
0.0
 10
449.036248
 20
45.976508
 30
0.0
 10
448.049112
 20
44.989376
 30
0.0
 10
446.831420
 20
44.989376
 30
0.0
  0
SPLINE
  5
228
100
AcDbEntity
  8
Ebene_1
 62
7
100
AcDbSpline
 70
8
 71
3
 72
8
 73
4
 74
0
 40
0
 40
0
 40
0
 40
0
 40
1
 40
1
 40
1
 40
1
 10
446.831420
 20
44.989376
 30
0.0
 10
445.613728
 20
44.989376
 30
0.0
 10
444.626592
 20
45.976508
 30
0.0
 10
444.626587
 20
47.194200
 30
0.0
  0
SPLINE
  5
229
100
AcDbEntity
  8
Ebene_1
 62
7
100
AcDbSpline
 70
8
 71
3
 72
8
 73
4
 74
0
 40
0
 40
0
 40
0
 40
0
 40
1
 40
1
 40
1
 40
1
 10
444.626587
 20
47.194200
 30
0.0
 10
444.626587
 20
47.778958
 30
0.0
 10
444.858882
 20
48.339765
 30
0.0
 10
445.272368
 20
48.753252
 30
0.0
  0
SPLINE
  5
22a
100
AcDbEntity
  8
Ebene_1
 62
7
100
AcDbSpline
 70
8
 71
3
 72
8
 73
4
 74
0
 40
0
 40
0
 40
0
 40
0
 40
1
 40
1
 40
1
 40
1
 10
445.272368
 20
48.753252
 30
0.0
 10
445.685854
 20
49.166738
 30
0.0
 10
446.246662
 20
49.399032
 30
0.0
 10
446.831420
 20
49.399032
 30
0.0
  0
SPLINE
  5
22b
100
AcDbEntity
  8
Ebene_1
 62
7
100
AcDbSpline
 70
8
 71
3
 72
8
 73
4
 74
0
 40
0
 40
0
 40
0
 40
0
 40
1
 40
1
 40
1
 40
1
 10
446.831420
 20
49.399032
 30
0.0
 10
447.416178
 20
49.399032
 30
0.0
 10
447.976986
 20
49.166738
 30
0.0
 10
448.390472
 20
48.753252
 30
0.0
  0
SPLINE
  5
22c
100
AcDbEntity
  8
Ebene_1
 62
7
100
AcDbSpline
 70
8
 71
3
 72
8
 73
4
 74
0
 40
0
 40
0
 40
0
 40
0
 40
1
 40
1
 40
1
 40
1
 10
448.390472
 20
48.753252
 30
0.0
 10
448.803958
 20
48.339765
 30
0.0
 10
449.036252
 20
47.778958
 30
0.0
 10
449.036252
 20
47.194200
 30
0.0
  0
LWPOLYLINE
  5
22d
100
AcDbEntity
  8
Ebene_1
 62
7
100
AcDbPolyline
 90
1
 70
1
 10
459.508704
 20
268.534356
 30
0.0
  0
SPLINE
  5
22e
100
AcDbEntity
  8
Ebene_1
 62
7
100
AcDbSpline
 70
8
 71
3
 72
8
 73
4
 74
0
 40
0
 40
0
 40
0
 40
0
 40
1
 40
1
 40
1
 40
1
 10
585.659739
 20
47.451442
 30
0.0
 10
585.659744
 20
46.866681
 30
0.0
 10
585.427452
 20
46.305869
 30
0.0
 10
585.013965
 20
45.892379
 30
0.0
  0
SPLINE
  5
22f
100
AcDbEntity
  8
Ebene_1
 62
7
100
AcDbSpline
 70
8
 71
3
 72
8
 73
4
 74
0
 40
0
 40
0
 40
0
 40
0
 40
1
 40
1
 40
1
 40
1
 10
585.013965
 20
45.892379
 30
0.0
 10
584.600478
 20
45.478888
 30
0.0
 10
584.039667
 20
45.246592
 30
0.0
 10
583.454906
 20
45.246592
 30
0.0
  0
SPLINE
  5
230
100
AcDbEntity
  8
Ebene_1
 62
7
100
AcDbSpline
 70
8
 71
3
 72
8
 73
4
 74
0
 40
0
 40
0
 40
0
 40
0
 40
1
 40
1
 40
1
 40
1
 10
583.454906
 20
45.246592
 30
0.0
 10
582.870145
 20
45.246592
 30
0.0
 10
582.309335
 20
45.478888
 30
0.0
 10
581.895848
 20
45.892379
 30
0.0
  0
SPLINE
  5
231
100
AcDbEntity
  8
Ebene_1
 62
7
100
AcDbSpline
 70
8
 71
3
 72
8
 73
4
 74
0
 40
0
 40
0
 40
0
 40
0
 40
1
 40
1
 40
1
 40
1
 10
581.895848
 20
45.892379
 30
0.0
 10
581.482361
 20
46.305869
 30
0.0
 10
581.250069
 20
46.866681
 30
0.0
 10
581.250074
 20
47.451442
 30
0.0
  0
SPLINE
  5
232
100
AcDbEntity
  8
Ebene_1
 62
7
100
AcDbSpline
 70
8
 71
3
 72
8
 73
4
 74
0
 40
0
 40
0
 40
0
 40
0
 40
1
 40
1
 40
1
 40
1
 10
581.250074
 20
47.451442
 30
0.0
 10
581.250079
 20
48.669134
 30
0.0
 10
582.237215
 20
49.656266
 30
0.0
 10
583.454906
 20
49.656266
 30
0.0
  0
SPLINE
  5
233
100
AcDbEntity
  8
Ebene_1
 62
7
100
AcDbSpline
 70
8
 71
3
 72
8
 73
4
 74
0
 40
0
 40
0
 40
0
 40
0
 40
1
 40
1
 40
1
 40
1
 10
583.454906
 20
49.656266
 30
0.0
 10
584.672598
 20
49.656266
 30
0.0
 10
585.659734
 20
48.669134
 30
0.0
 10
585.659739
 20
47.451442
 30
0.0
  0
LWPOLYLINE
  5
234
100
AcDbEntity
  8
Ebene_1
 62
7
100
AcDbPolyline
 90
1
 70
1
 10
449.036252
 20
47.194200
 30
0.0
  0
SPLINE
  5
235
100
AcDbEntity
  8
Ebene_1
 62
7
100
AcDbSpline
 70
8
 71
3
 72
8
 73
4
 74
0
 40
0
 40
0
 40
0
 40
0
 40
1
 40
1
 40
1
 40
1
 10
585.993092
 20
254.781802
 30
0.0
 10
585.993087
 20
253.564110
 30
0.0
 10
585.005951
 20
252.576978
 30
0.0
 10
583.788259
 20
252.576978
 30
0.0
  0
SPLINE
  5
236
100
AcDbEntity
  8
Ebene_1
 62
7
100
AcDbSpline
 70
8
 71
3
 72
8
 73
4
 74
0
 40
0
 40
0
 40
0
 40
0
 40
1
 40
1
 40
1
 40
1
 10
583.788259
 20
252.576978
 30
0.0
 10
582.570568
 20
252.576978
 30
0.0
 10
581.583432
 20
253.564110
 30
0.0
 10
581.583427
 20
254.781802
 30
0.0
  0
SPLINE
  5
237
100
AcDbEntity
  8
Ebene_1
 62
7
100
AcDbSpline
 70
8
 71
3
 72
8
 73
4
 74
0
 40
0
 40
0
 40
0
 40
0
 40
1
 40
1
 40
1
 40
1
 10
581.583427
 20
254.781802
 30
0.0
 10
581.583425
 20
255.366561
 30
0.0
 10
581.815718
 20
255.927371
 30
0.0
 10
582.229204
 20
256.340859
 30
0.0
  0
SPLINE
  5
238
100
AcDbEntity
  8
Ebene_1
 62
7
100
AcDbSpline
 70
8
 71
3
 72
8
 73
4
 74
0
 40
0
 40
0
 40
0
 40
0
 40
1
 40
1
 40
1
 40
1
 10
582.229204
 20
256.340859
 30
0.0
 10
582.642691
 20
256.754348
 30
0.0
 10
583.203500
 20
256.986643
 30
0.0
 10
583.788259
 20
256.986643
 30
0.0
  0
SPLINE
  5
239
100
AcDbEntity
  8
Ebene_1
 62
7
100
AcDbSpline
 70
8
 71
3
 72
8
 73
4
 74
0
 40
0
 40
0
 40
0
 40
0
 40
1
 40
1
 40
1
 40
1
 10
583.788259
 20
256.986643
 30
0.0
 10
584.373019
 20
256.986643
 30
0.0
 10
584.933828
 20
256.754348
 30
0.0
 10
585.347315
 20
256.340859
 30
0.0
  0
SPLINE
  5
23a
100
AcDbEntity
  8
Ebene_1
 62
7
100
AcDbSpline
 70
8
 71
3
 72
8
 73
4
 74
0
 40
0
 40
0
 40
0
 40
0
 40
1
 40
1
 40
1
 40
1
 10
585.347315
 20
256.340859
 30
0.0
 10
585.760801
 20
255.927371
 30
0.0
 10
585.993094
 20
255.366561
 30
0.0
 10
585.993092
 20
254.781802
 30
0.0
  0
LWPOLYLINE
  5
23b
100
AcDbEntity
  8
Ebene_1
 62
7
100
AcDbPolyline
 90
1
 70
1
 10
585.659739
 20
47.451442
 30
0.0
  0
SPLINE
  5
23c
100
AcDbEntity
  8
Ebene_1
 62
7
100
AcDbSpline
 70
8
 71
3
 72
8
 73
4
 74
0
 40
0
 40
0
 40
0
 40
0
 40
1
 40
1
 40
1
 40
1
 10
449.293477
 20
254.781802
 30
0.0
 10
449.293472
 20
253.564110
 30
0.0
 10
448.306336
 20
252.576978
 30
0.0
 10
447.088644
 20
252.576978
 30
0.0
  0
SPLINE
  5
23d
100
AcDbEntity
  8
Ebene_1
 62
7
100
AcDbSpline
 70
8
 71
3
 72
8
 73
4
 74
0
 40
0
 40
0
 40
0
 40
0
 40
1
 40
1
 40
1
 40
1
 10
447.088644
 20
252.576978
 30
0.0
 10
445.870953
 20
252.576978
 30
0.0
 10
444.883817
 20
253.564110
 30
0.0
 10
444.883812
 20
254.781802
 30
0.0
  0
SPLINE
  5
23e
100
AcDbEntity
  8
Ebene_1
 62
7
100
AcDbSpline
 70
8
 71
3
 72
8
 73
4
 74
0
 40
0
 40
0
 40
0
 40
0
 40
1
 40
1
 40
1
 40
1
 10
444.883812
 20
254.781802
 30
0.0
 10
444.883810
 20
255.366561
 30
0.0
 10
445.116103
 20
255.927371
 30
0.0
 10
445.529589
 20
256.340859
 30
0.0
  0
SPLINE
  5
23f
100
AcDbEntity
  8
Ebene_1
 62
7
100
AcDbSpline
 70
8
 71
3
 72
8
 73
4
 74
0
 40
0
 40
0
 40
0
 40
0
 40
1
 40
1
 40
1
 40
1
 10
445.529589
 20
256.340859
 30
0.0
 10
445.943076
 20
256.754348
 30
0.0
 10
446.503885
 20
256.986643
 30
0.0
 10
447.088644
 20
256.986643
 30
0.0
  0
SPLINE
  5
240
100
AcDbEntity
  8
Ebene_1
 62
7
100
AcDbSpline
 70
8
 71
3
 72
8
 73
4
 74
0
 40
0
 40
0
 40
0
 40
0
 40
1
 40
1
 40
1
 40
1
 10
447.088644
 20
256.986643
 30
0.0
 10
447.673404
 20
256.986643
 30
0.0
 10
448.234213
 20
256.754348
 30
0.0
 10
448.647700
 20
256.340859
 30
0.0
  0
SPLINE
  5
241
100
AcDbEntity
  8
Ebene_1
 62
7
100
AcDbSpline
 70
8
 71
3
 72
8
 73
4
 74
0
 40
0
 40
0
 40
0
 40
0
 40
1
 40
1
 40
1
 40
1
 10
448.647700
 20
256.340859
 30
0.0
 10
449.061186
 20
255.927371
 30
0.0
 10
449.293479
 20
255.366561
 30
0.0
 10
449.293477
 20
254.781802
 30
0.0
  0
LWPOLYLINE
  5
242
100
AcDbEntity
  8
Ebene_1
 62
7
100
AcDbPolyline
 90
1
 70
1
 10
585.993092
 20
254.781802
 30
0.0
  0
SPLINE
  5
243
100
AcDbEntity
  8
Ebene_1
 62
7
100
AcDbSpline
 70
8
 71
3
 72
8
 73
4
 74
0
 40
0
 40
0
 40
0
 40
0
 40
1
 40
1
 40
1
 40
1
 10
515.031960
 20
85.742542
 30
0.0
 10
514.850610
 20
86.698952
 30
0.0
 10
499.246250
 20
173.817612
 30
0.0
 10
499.246250
 20
173.873692
 30
0.0
  0
SPLINE
  5
244
100
AcDbEntity
  8
Ebene_1
 62
7
100
AcDbSpline
 70
8
 71
3
 72
8
 73
4
 74
0
 40
0
 40
0
 40
0
 40
0
 40
1
 40
1
 40
1
 40
1
 10
499.246250
 20
173.873692
 30
0.0
 10
499.246250
 20
173.953192
 30
0.0
 10
494.637370
 20
173.836692
 30
0.0
 10
492.320740
 20
173.698552
 30
0.0
  0
SPLINE
  5
245
100
AcDbEntity
  8
Ebene_1
 62
7
100
AcDbSpline
 70
8
 71
3
 72
8
 73
4
 74
0
 40
0
 40
0
 40
0
 40
0
 40
1
 40
1
 40
1
 40
1
 10
492.320740
 20
173.698552
 30
0.0
 10
485.426530
 20
173.287412
 30
0.0
 10
481.880660
 20
172.080122
 30
0.0
 10
480.166860
 20
169.560412
 30
0.0
  0
SPLINE
  5
246
100
AcDbEntity
  8
Ebene_1
 62
7
100
AcDbSpline
 70
8
 71
3
 72
8
 73
4
 74
0
 40
0
 40
0
 40
0
 40
0
 40
1
 40
1
 40
1
 40
1
 10
480.166860
 20
169.560412
 30
0.0
 10
479.534940
 20
168.631382
 30
0.0
 10
479.271160
 20
167.969012
 30
0.0
 10
478.995390
 20
166.619112
 30
0.0
  0
SPLINE
  5
247
100
AcDbEntity
  8
Ebene_1
 62
7
100
AcDbSpline
 70
8
 71
3
 72
8
 73
4
 74
0
 40
0
 40
0
 40
0
 40
0
 40
1
 40
1
 40
1
 40
1
 10
478.995390
 20
166.619112
 30
0.0
 10
478.883440
 20
166.070642
 30
0.0
 10
478.771240
 20
165.601462
 30
0.0
 10
478.746260
 20
165.576502
 30
0.0
  0
SPLINE
  5
248
100
AcDbEntity
  8
Ebene_1
 62
7
100
AcDbSpline
 70
8
 71
3
 72
8
 73
4
 74
0
 40
0
 40
0
 40
0
 40
0
 40
1
 40
1
 40
1
 40
1
 10
478.746260
 20
165.576502
 30
0.0
 10
478.662160
 20
165.492402
 30
0.0
 10
475.797280
 20
166.853912
 30
0.0
 10
474.361780
 20
167.659832
 30
0.0
  0
SPLINE
  5
249
100
AcDbEntity
  8
Ebene_1
 62
7
100
AcDbSpline
 70
8
 71
3
 72
8
 73
4
 74
0
 40
0
 40
0
 40
0
 40
0
 40
1
 40
1
 40
1
 40
1
 10
474.361780
 20
167.659832
 30
0.0
 10
470.068150
 20
170.070342
 30
0.0
 10
466.697350
 20
172.861352
 30
0.0
 10
464.404250
 20
175.904552
 30
0.0
  0
SPLINE
  5
24a
100
AcDbEntity
  8
Ebene_1
 62
7
100
AcDbSpline
 70
8
 71
3
 72
8
 73
4
 74
0
 40
0
 40
0
 40
0
 40
0
 40
1
 40
1
 40
1
 40
1
 10
464.404250
 20
175.904552
 30
0.0
 10
464.067380
 20
176.351612
 30
0.0
 10
463.791730
 20
176.754012
 30
0.0
 10
463.791730
 20
176.798732
 30
0.0
  0
SPLINE
  5
24b
100
AcDbEntity
  8
Ebene_1
 62
7
100
AcDbSpline
 70
8
 71
3
 72
8
 73
4
 74
0
 40
0
 40
0
 40
0
 40
0
 40
1
 40
1
 40
1
 40
1
 10
463.791730
 20
176.798732
 30
0.0
 10
463.791730
 20
176.843432
 30
0.0
 10
463.966160
 20
176.952252
 30
0.0
 10
464.179350
 20
177.040492
 30
0.0
  0
SPLINE
  5
24c
100
AcDbEntity
  8
Ebene_1
 62
7
100
AcDbSpline
 70
8
 71
3
 72
8
 73
4
 74
0
 40
0
 40
0
 40
0
 40
0
 40
1
 40
1
 40
1
 40
1
 10
464.179350
 20
177.040492
 30
0.0
 10
464.392560
 20
177.128892
 30
0.0
 10
465.311230
 20
177.524682
 30
0.0
 10
466.220840
 20
177.920422
 30
0.0
  0
SPLINE
  5
24d
100
AcDbEntity
  8
Ebene_1
 62
7
100
AcDbSpline
 70
8
 71
3
 72
8
 73
4
 74
0
 40
0
 40
0
 40
0
 40
0
 40
1
 40
1
 40
1
 40
1
 10
466.220840
 20
177.920422
 30
0.0
 10
476.642790
 20
182.454402
 30
0.0
 10
490.189740
 20
185.623592
 30
0.0
 10
502.347220
 20
186.371822
 30
0.0
  0
LWPOLYLINE
  5
24e
100
AcDbEntity
  8
Ebene_1
 62
7
100
AcDbPolyline
 90
1
 70
1
 10
449.293477
 20
254.781802
 30
0.0
  0
SPLINE
  5
24f
100
AcDbEntity
  8
Ebene_1
 62
7
100
AcDbSpline
 70
8
 71
3
 72
8
 73
4
 74
0
 40
0
 40
0
 40
0
 40
0
 40
1
 40
1
 40
1
 40
1
 10
509.258150
 20
179.339822
 30
0.0
 10
512.462230
 20
175.435502
 30
0.0
 10
515.119220
 20
172.280172
 30
0.0
 10
515.162510
 20
172.327982
 30
0.0
  0
SPLINE
  5
250
100
AcDbEntity
  8
Ebene_1
 62
7
100
AcDbSpline
 70
8
 71
3
 72
8
 73
4
 74
0
 40
0
 40
0
 40
0
 40
0
 40
1
 40
1
 40
1
 40
1
 10
515.162510
 20
172.327982
 30
0.0
 10
515.206010
 20
172.375682
 30
0.0
 10
517.806360
 20
175.540722
 30
0.0
 10
520.941380
 20
179.361232
 30
0.0
  0
SPLINE
  5
251
100
AcDbEntity
  8
Ebene_1
 62
7
100
AcDbSpline
 70
8
 71
3
 72
8
 73
4
 74
0
 40
0
 40
0
 40
0
 40
0
 40
1
 40
1
 40
1
 40
1
 10
520.941380
 20
179.361232
 30
0.0
 10
524.076470
 20
183.181692
 30
0.0
 10
526.689410
 20
186.337122
 30
0.0
 10
526.747920
 20
186.373292
 30
0.0
  0
SPLINE
  5
252
100
AcDbEntity
  8
Ebene_1
 62
7
100
AcDbSpline
 70
8
 71
3
 72
8
 73
4
 74
0
 40
0
 40
0
 40
0
 40
0
 40
1
 40
1
 40
1
 40
1
 10
526.747920
 20
186.373292
 30
0.0
 10
526.869940
 20
186.448692
 30
0.0
 10
529.477330
 20
186.280592
 30
0.0
 10
531.754790
 20
186.050382
 30
0.0
  0
SPLINE
  5
253
100
AcDbEntity
  8
Ebene_1
 62
7
100
AcDbSpline
 70
8
 71
3
 72
8
 73
4
 74
0
 40
0
 40
0
 40
0
 40
0
 40
1
 40
1
 40
1
 40
1
 10
531.754790
 20
186.050382
 30
0.0
 10
541.359250
 20
185.079502
 30
0.0
 10
551.005470
 20
182.857042
 30
0.0
 10
559.766940
 20
179.596402
 30
0.0
  0
SPLINE
  5
254
100
AcDbEntity
  8
Ebene_1
 62
7
100
AcDbSpline
 70
8
 71
3
 72
8
 73
4
 74
0
 40
0
 40
0
 40
0
 40
0
 40
1
 40
1
 40
1
 40
1
 10
559.766940
 20
179.596402
 30
0.0
 10
561.834700
 20
178.826862
 30
0.0
 10
565.160770
 20
177.453372
 30
0.0
 10
566.028240
 20
177.010832
 30
0.0
  0
LWPOLYLINE
  5
255
100
AcDbEntity
  8
Ebene_1
 62
7
100
AcDbPolyline
 90
3
 70
0
 10
502.347220
 20
186.371822
 30
0.0
 10
503.432540
 20
186.438522
 30
0.0
 10
509.258150
 20
179.339822
 30
0.0
  0
SPLINE
  5
256
100
AcDbEntity
  8
Ebene_1
 62
7
100
AcDbSpline
 70
8
 71
3
 72
8
 73
4
 74
0
 40
0
 40
0
 40
0
 40
0
 40
1
 40
1
 40
1
 40
1
 10
565.910750
 20
176.085342
 30
0.0
 10
563.879240
 20
173.292232
 30
0.0
 10
560.694430
 20
170.547442
 30
0.0
 10
556.750390
 20
168.190422
 30
0.0
  0
SPLINE
  5
257
100
AcDbEntity
  8
Ebene_1
 62
7
100
AcDbSpline
 70
8
 71
3
 72
8
 73
4
 74
0
 40
0
 40
0
 40
0
 40
0
 40
1
 40
1
 40
1
 40
1
 10
556.750390
 20
168.190422
 30
0.0
 10
555.665700
 20
167.542182
 30
0.0
 10
552.075010
 20
165.739982
 30
0.0
 10
551.585430
 20
165.598032
 30
0.0
  0
SPLINE
  5
258
100
AcDbEntity
  8
Ebene_1
 62
7
100
AcDbSpline
 70
8
 71
3
 72
8
 73
4
 74
0
 40
0
 40
0
 40
0
 40
0
 40
1
 40
1
 40
1
 40
1
 10
551.585430
 20
165.598032
 30
0.0
 10
551.383370
 20
165.539432
 30
0.0
 10
551.356290
 20
165.583432
 30
0.0
 10
551.289070
 20
166.079952
 30
0.0
  0
SPLINE
  5
259
100
AcDbEntity
  8
Ebene_1
 62
7
100
AcDbSpline
 70
8
 71
3
 72
8
 73
4
 74
0
 40
0
 40
0
 40
0
 40
0
 40
1
 40
1
 40
1
 40
1
 10
551.289070
 20
166.079952
 30
0.0
 10
551.248270
 20
166.380482
 30
0.0
 10
551.101440
 20
167.020482
 30
0.0
 10
550.962510
 20
167.502222
 30
0.0
  0
SPLINE
  5
25a
100
AcDbEntity
  8
Ebene_1
 62
7
100
AcDbSpline
 70
8
 71
3
 72
8
 73
4
 74
0
 40
0
 40
0
 40
0
 40
0
 40
1
 40
1
 40
1
 40
1
 10
550.962510
 20
167.502222
 30
0.0
 10
549.868650
 20
171.295602
 30
0.0
 10
546.636600
 20
172.980022
 30
0.0
 10
539.248810
 20
173.606982
 30
0.0
  0
SPLINE
  5
25b
100
AcDbEntity
  8
Ebene_1
 62
7
100
AcDbSpline
 70
8
 71
3
 72
8
 73
4
 74
0
 40
0
 40
0
 40
0
 40
0
 40
1
 40
1
 40
1
 40
1
 10
539.248810
 20
173.606982
 30
0.0
 10
537.640210
 20
173.743532
 30
0.0
 10
530.950130
 20
173.918612
 30
0.0
 10
530.866040
 20
173.826442
 30
0.0
  0
SPLINE
  5
25c
100
AcDbEntity
  8
Ebene_1
 62
7
100
AcDbSpline
 70
8
 71
3
 72
8
 73
4
 74
0
 40
0
 40
0
 40
0
 40
0
 40
1
 40
1
 40
1
 40
1
 10
530.866040
 20
173.826442
 30
0.0
 10
530.823140
 20
173.779342
 30
0.0
 10
517.908090
 20
101.330082
 30
0.0
 10
515.182430
 20
85.845822
 30
0.0
  0
LWPOLYLINE
  5
25d
100
AcDbEntity
  8
Ebene_1
 62
7
100
AcDbPolyline
 90
3
 70
0
 10
566.028240
 20
177.010832
 30
0.0
 10
566.433510
 20
176.804052
 30
0.0
 10
565.910750
 20
176.085342
 30
0.0
  0
SPLINE
  5
25e
100
AcDbEntity
  8
Ebene_1
 62
7
100
AcDbSpline
 70
8
 71
3
 72
8
 73
4
 74
0
 40
0
 40
0
 40
0
 40
0
 40
1
 40
1
 40
1
 40
1
 10
566.434040
 20
180.707132
 30
0.0
 10
554.088670
 20
185.913742
 30
0.0
 10
540.062860
 20
189.226882
 30
0.0
 10
526.069670
 20
190.241882
 30
0.0
  0
SPLINE
  5
25f
100
AcDbEntity
  8
Ebene_1
 62
7
100
AcDbSpline
 70
8
 71
3
 72
8
 73
4
 74
0
 40
0
 40
0
 40
0
 40
0
 40
1
 40
1
 40
1
 40
1
 10
526.069670
 20
190.241882
 30
0.0
 10
521.573940
 20
190.567992
 30
0.0
 10
512.234140
 20
190.674772
 30
0.0
 10
507.711530
 20
190.451802
 30
0.0
  0
SPLINE
  5
260
100
AcDbEntity
  8
Ebene_1
 62
7
100
AcDbSpline
 70
8
 71
3
 72
8
 73
4
 74
0
 40
0
 40
0
 40
0
 40
0
 40
1
 40
1
 40
1
 40
1
 10
507.711530
 20
190.451802
 30
0.0
 10
492.038620
 20
189.679032
 30
0.0
 10
477.619250
 20
186.484992
 30
0.0
 10
463.761360
 20
180.716402
 30
0.0
  0
SPLINE
  5
261
100
AcDbEntity
  8
Ebene_1
 62
7
100
AcDbSpline
 70
8
 71
3
 72
8
 73
4
 74
0
 40
0
 40
0
 40
0
 40
0
 40
1
 40
1
 40
1
 40
1
 10
463.761360
 20
180.716402
 30
0.0
 10
462.806650
 20
180.318952
 30
0.0
 10
461.966030
 20
180.016582
 30
0.0
 10
461.893390
 20
180.044462
 30
0.0
  0
SPLINE
  5
262
100
AcDbEntity
  8
Ebene_1
 62
7
100
AcDbSpline
 70
8
 71
3
 72
8
 73
4
 74
0
 40
0
 40
0
 40
0
 40
0
 40
1
 40
1
 40
1
 40
1
 10
461.893390
 20
180.044462
 30
0.0
 10
461.820590
 20
180.072362
 30
0.0
 10
461.223010
 20
181.181252
 30
0.0
 10
460.565080
 20
182.508742
 30
0.0
  0
SPLINE
  5
263
100
AcDbEntity
  8
Ebene_1
 62
7
100
AcDbSpline
 70
8
 71
3
 72
8
 73
4
 74
0
 40
0
 40
0
 40
0
 40
0
 40
1
 40
1
 40
1
 40
1
 10
460.565080
 20
182.508742
 30
0.0
 10
459.334170
 20
184.992372
 30
0.0
 10
458.760500
 20
186.282562
 30
0.0
 10
458.848210
 20
186.370222
 30
0.0
  0
SPLINE
  5
264
100
AcDbEntity
  8
Ebene_1
 62
7
100
AcDbSpline
 70
8
 71
3
 72
8
 73
4
 74
0
 40
0
 40
0
 40
0
 40
0
 40
1
 40
1
 40
1
 40
1
 10
458.848210
 20
186.370222
 30
0.0
 10
458.937810
 20
186.459722
 30
0.0
 10
462.551970
 20
187.825272
 30
0.0
 10
464.670350
 20
188.569752
 30
0.0
  0
SPLINE
  5
265
100
AcDbEntity
  8
Ebene_1
 62
7
100
AcDbSpline
 70
8
 71
3
 72
8
 73
4
 74
0
 40
0
 40
0
 40
0
 40
0
 40
1
 40
1
 40
1
 40
1
 10
464.670350
 20
188.569752
 30
0.0
 10
484.529290
 20
195.549122
 30
0.0
 10
505.738150
 20
198.441382
 30
0.0
 10
525.811270
 20
196.907542
 30
0.0
  0
SPLINE
  5
266
100
AcDbEntity
  8
Ebene_1
 62
7
100
AcDbSpline
 70
8
 71
3
 72
8
 73
4
 74
0
 40
0
 40
0
 40
0
 40
0
 40
1
 40
1
 40
1
 40
1
 10
525.811270
 20
196.907542
 30
0.0
 10
540.824750
 20
195.760352
 30
0.0
 10
554.974220
 20
192.593402
 30
0.0
 10
569.377470
 20
187.156552
 30
0.0
  0
SPLINE
  5
267
100
AcDbEntity
  8
Ebene_1
 62
7
100
AcDbSpline
 70
8
 71
3
 72
8
 73
4
 74
0
 40
0
 40
0
 40
0
 40
0
 40
1
 40
1
 40
1
 40
1
 10
569.377470
 20
187.156552
 30
0.0
 10
570.449810
 20
186.751782
 30
0.0
 10
571.345630
 20
186.402172
 30
0.0
 10
571.368160
 20
186.379632
 30
0.0
  0
SPLINE
  5
268
100
AcDbEntity
  8
Ebene_1
 62
7
100
AcDbSpline
 70
8
 71
3
 72
8
 73
4
 74
0
 40
0
 40
0
 40
0
 40
0
 40
1
 40
1
 40
1
 40
1
 10
571.368160
 20
186.379632
 30
0.0
 10
571.485870
 20
186.261862
 30
0.0
 10
568.605950
 20
180.249832
 30
0.0
 10
568.314130
 20
180.004182
 30
0.0
  0
SPLINE
  5
269
100
AcDbEntity
  8
Ebene_1
 62
7
100
AcDbSpline
 70
8
 71
3
 72
8
 73
4
 74
0
 40
0
 40
0
 40
0
 40
0
 40
1
 40
1
 40
1
 40
1
 10
568.314130
 20
180.004182
 30
0.0
 10
568.274930
 20
179.971282
 30
0.0
 10
567.428960
 20
180.287552
 30
0.0
 10
566.434040
 20
180.707132
 30
0.0
  0
LWPOLYLINE
  5
26a
100
AcDbEntity
  8
Ebene_1
 62
7
100
AcDbPolyline
 90
3
 70
0
 10
515.182430
 20
85.845822
 30
0.0
 10
515.100630
 20
85.380722
 30
0.0
 10
515.031960
 20
85.742542
 30
0.0
  0
LWPOLYLINE
  5
26b
100
AcDbEntity
  8
Ebene_1
 62
7
100
AcDbPolyline
 90
1
 70
1
 10
566.434040
 20
180.707132
 30
0.0
  0
SPLINE
  5
26c
100
AcDbEntity
  8
Ebene_1
 62
7
100
AcDbSpline
 70
8
 71
3
 72
8
 73
4
 74
0
 40
0
 40
0
 40
0
 40
0
 40
1
 40
1
 40
1
 40
1
 10
451.376938
 20
229.217817
 30
0.0
 10
449.952846
 20
229.217817
 30
0.0
 10
448.691893
 20
228.691096
 30
0.0
 10
447.673509
 20
227.672712
 30
0.0
  0
SPLINE
  5
26d
100
AcDbEntity
  8
Ebene_1
 62
7
100
AcDbSpline
 70
8
 71
3
 72
8
 73
4
 74
0
 40
0
 40
0
 40
0
 40
0
 40
1
 40
1
 40
1
 40
1
 10
447.673509
 20
227.672712
 30
0.0
 10
446.678580
 20
226.677784
 30
0.0
 10
446.166298
 20
225.428872
 30
0.0
 10
446.166298
 20
224.007178
 30
0.0
  0
LWPOLYLINE
  5
26e
100
AcDbEntity
  8
Ebene_1
 62
7
100
AcDbPolyline
 90
5
 70
0
 10
446.166298
 20
248.532495
 30
0.0
 10
446.166298
 20
233.282977
 30
0.0
 10
470.309214
 20
233.282977
 30
0.0
 10
470.309214
 20
229.217817
 30
0.0
 10
451.376938
 20
229.217817
 30
0.0
  0
SPLINE
  5
26f
100
AcDbEntity
  8
Ebene_1
 62
7
100
AcDbSpline
 70
8
 71
3
 72
8
 73
4
 74
0
 40
0
 40
0
 40
0
 40
0
 40
1
 40
1
 40
1
 40
1
 10
470.691615
 20
242.941177
 30
0.0
 10
472.089866
 20
242.941177
 30
0.0
 10
473.333989
 20
243.453738
 30
0.0
 10
474.351982
 20
244.444942
 30
0.0
  0
SPLINE
  5
270
100
AcDbEntity
  8
Ebene_1
 62
7
100
AcDbSpline
 70
8
 71
3
 72
8
 73
4
 74
0
 40
0
 40
0
 40
0
 40
0
 40
1
 40
1
 40
1
 40
1
 10
474.351982
 20
244.444942
 30
0.0
 10
475.374120
 20
245.440182
 30
0.0
 10
475.902254
 20
246.704263
 30
0.0
 10
475.902254
 20
248.151816
 30
0.0
  0
LWPOLYLINE
  5
271
100
AcDbEntity
  8
Ebene_1
 62
7
100
AcDbPolyline
 90
8
 70
0
 10
446.166298
 20
224.007178
 30
0.0
 10
446.166298
 20
223.626501
 30
0.0
 10
446.546977
 20
223.626501
 30
0.0
 10
475.902254
 20
223.626501
 30
0.0
 10
475.902254
 20
238.876017
 30
0.0
 10
451.757616
 20
238.876017
 30
0.0
 10
451.757616
 20
242.941177
 30
0.0
 10
470.691615
 20
242.941177
 30
0.0
  0
LWPOLYLINE
  5
272
100
AcDbEntity
  8
Ebene_1
 62
7
100
AcDbPolyline
 90
3
 70
0
 10
475.902254
 20
248.151816
 30
0.0
 10
475.902254
 20
248.532495
 30
0.0
 10
446.166298
 20
248.532495
 30
0.0
  0
SPLINE
  5
273
100
AcDbEntity
  8
Ebene_1
 62
7
100
AcDbSpline
 70
8
 71
3
 72
8
 73
4
 74
0
 40
0
 40
0
 40
0
 40
0
 40
1
 40
1
 40
1
 40
1
 10
482.215310
 20
228.837140
 30
0.0
 10
482.215310
 20
227.415446
 30
0.0
 10
482.726704
 20
226.156347
 30
0.0
 10
483.719075
 20
225.137155
 30
0.0
  0
LWPOLYLINE
  5
274
100
AcDbEntity
  8
Ebene_1
 62
7
100
AcDbPolyline
 90
2
 70
0
 10
482.215310
 20
229.217817
 30
0.0
 10
482.215310
 20
228.837140
 30
0.0
  0
SPLINE
  5
275
100
AcDbEntity
  8
Ebene_1
 62
7
100
AcDbSpline
 70
8
 71
3
 72
8
 73
4
 74
0
 40
0
 40
0
 40
0
 40
0
 40
1
 40
1
 40
1
 40
1
 10
483.722603
 20
225.133627
 30
0.0
 10
484.718746
 20
224.137484
 30
0.0
 10
485.979111
 20
223.626418
 30
0.0
 10
487.424309
 20
223.626418
 30
0.0
  0
LWPOLYLINE
  5
276
100
AcDbEntity
  8
Ebene_1
 62
7
100
AcDbPolyline
 90
3
 70
0
 10
483.719075
 20
225.137155
 30
0.0
 10
483.720839
 20
225.135391
 30
0.0
 10
483.722603
 20
225.133627
 30
0.0
  0
SPLINE
  5
277
100
AcDbEntity
  8
Ebene_1
 62
7
100
AcDbSpline
 70
8
 71
3
 72
8
 73
4
 74
0
 40
0
 40
0
 40
0
 40
0
 40
1
 40
1
 40
1
 40
1
 10
506.738904
 20
223.626418
 30
0.0
 10
508.137156
 20
223.626418
 30
0.0
 10
509.383001
 20
224.138978
 30
0.0
 10
510.400990
 20
225.130182
 30
0.0
  0
SPLINE
  5
278
100
AcDbEntity
  8
Ebene_1
 62
7
100
AcDbSpline
 70
8
 71
3
 72
8
 73
4
 74
0
 40
0
 40
0
 40
0
 40
0
 40
1
 40
1
 40
1
 40
1
 10
510.400990
 20
225.130182
 30
0.0
 10
511.423132
 20
226.125422
 30
0.0
 10
511.949541
 20
227.389503
 30
0.0
 10
511.949541
 20
228.837057
 30
0.0
  0
LWPOLYLINE
  5
279
100
AcDbEntity
  8
Ebene_1
 62
7
100
AcDbPolyline
 90
2
 70
0
 10
487.424309
 20
223.626418
 30
0.0
 10
506.738904
 20
223.626418
 30
0.0
  0
LWPOLYLINE
  5
27a
100
AcDbEntity
  8
Ebene_1
 62
7
100
AcDbPolyline
 90
3
 70
0
 10
511.949541
 20
228.837057
 30
0.0
 10
511.949541
 20
229.217734
 30
0.0
 10
482.215310
 20
229.217817
 30
0.0
  0
SPLINE
  5
27b
100
AcDbEntity
  8
Ebene_1
 62
7
100
AcDbSpline
 70
8
 71
3
 72
8
 73
4
 74
0
 40
0
 40
0
 40
0
 40
0
 40
1
 40
1
 40
1
 40
1
 10
482.215310
 20
238.493616
 30
0.0
 10
482.215310
 20
237.071924
 30
0.0
 10
482.726704
 20
235.814547
 30
0.0
 10
483.719075
 20
234.795355
 30
0.0
  0
LWPOLYLINE
  5
27c
100
AcDbEntity
  8
Ebene_1
 62
7
100
AcDbPolyline
 90
2
 70
0
 10
482.215310
 20
238.876017
 30
0.0
 10
482.215310
 20
238.493616
 30
0.0
  0
SPLINE
  5
27d
100
AcDbEntity
  8
Ebene_1
 62
7
100
AcDbSpline
 70
8
 71
3
 72
8
 73
4
 74
0
 40
0
 40
0
 40
0
 40
0
 40
1
 40
1
 40
1
 40
1
 10
483.722603
 20
234.791827
 30
0.0
 10
484.718746
 20
233.795684
 30
0.0
 10
485.979111
 20
233.282894
 30
0.0
 10
487.424309
 20
233.282894
 30
0.0
  0
LWPOLYLINE
  5
27e
100
AcDbEntity
  8
Ebene_1
 62
7
100
AcDbPolyline
 90
3
 70
0
 10
483.719075
 20
234.795355
 30
0.0
 10
483.720839
 20
234.793591
 30
0.0
 10
483.722603
 20
234.791827
 30
0.0
  0
SPLINE
  5
27f
100
AcDbEntity
  8
Ebene_1
 62
7
100
AcDbSpline
 70
8
 71
3
 72
8
 73
4
 74
0
 40
0
 40
0
 40
0
 40
0
 40
1
 40
1
 40
1
 40
1
 10
506.738904
 20
233.282894
 30
0.0
 10
508.137156
 20
233.282894
 30
0.0
 10
509.383001
 20
233.795455
 30
0.0
 10
510.400990
 20
234.786660
 30
0.0
  0
SPLINE
  5
280
100
AcDbEntity
  8
Ebene_1
 62
7
100
AcDbSpline
 70
8
 71
3
 72
8
 73
4
 74
0
 40
0
 40
0
 40
0
 40
0
 40
1
 40
1
 40
1
 40
1
 10
510.400990
 20
234.786660
 30
0.0
 10
511.423132
 20
235.781900
 30
0.0
 10
511.949541
 20
237.045981
 30
0.0
 10
511.949541
 20
238.493534
 30
0.0
  0
LWPOLYLINE
  5
281
100
AcDbEntity
  8
Ebene_1
 62
7
100
AcDbPolyline
 90
2
 70
0
 10
487.424309
 20
233.282894
 30
0.0
 10
506.738904
 20
233.282894
 30
0.0
  0
LWPOLYLINE
  5
282
100
AcDbEntity
  8
Ebene_1
 62
7
100
AcDbPolyline
 90
3
 70
0
 10
511.949541
 20
238.493534
 30
0.0
 10
511.949541
 20
238.875934
 30
0.0
 10
482.215310
 20
238.876017
 30
0.0
  0
SPLINE
  5
283
100
AcDbEntity
  8
Ebene_1
 62
7
100
AcDbSpline
 70
8
 71
3
 72
8
 73
4
 74
0
 40
0
 40
0
 40
0
 40
0
 40
1
 40
1
 40
1
 40
1
 10
482.215310
 20
248.151816
 30
0.0
 10
482.215310
 20
246.730124
 30
0.0
 10
482.726704
 20
245.471024
 30
0.0
 10
483.719075
 20
244.451832
 30
0.0
  0
LWPOLYLINE
  5
284
100
AcDbEntity
  8
Ebene_1
 62
7
100
AcDbPolyline
 90
2
 70
0
 10
482.215310
 20
248.532495
 30
0.0
 10
482.215310
 20
248.151816
 30
0.0
  0
SPLINE
  5
285
100
AcDbEntity
  8
Ebene_1
 62
7
100
AcDbSpline
 70
8
 71
3
 72
8
 73
4
 74
0
 40
0
 40
0
 40
0
 40
0
 40
1
 40
1
 40
1
 40
1
 10
483.722603
 20
244.448305
 30
0.0
 10
484.718746
 20
243.452160
 30
0.0
 10
485.979111
 20
242.941094
 30
0.0
 10
487.424309
 20
242.941094
 30
0.0
  0
LWPOLYLINE
  5
286
100
AcDbEntity
  8
Ebene_1
 62
7
100
AcDbPolyline
 90
3
 70
0
 10
483.719075
 20
244.451832
 30
0.0
 10
483.720839
 20
244.450068
 30
0.0
 10
483.722603
 20
244.448305
 30
0.0
  0
SPLINE
  5
287
100
AcDbEntity
  8
Ebene_1
 62
7
100
AcDbSpline
 70
8
 71
3
 72
8
 73
4
 74
0
 40
0
 40
0
 40
0
 40
0
 40
1
 40
1
 40
1
 40
1
 10
506.738904
 20
242.941094
 30
0.0
 10
508.137156
 20
242.941094
 30
0.0
 10
509.383001
 20
243.453655
 30
0.0
 10
510.400990
 20
244.444859
 30
0.0
  0
SPLINE
  5
288
100
AcDbEntity
  8
Ebene_1
 62
7
100
AcDbSpline
 70
8
 71
3
 72
8
 73
4
 74
0
 40
0
 40
0
 40
0
 40
0
 40
1
 40
1
 40
1
 40
1
 10
510.400990
 20
244.444859
 30
0.0
 10
511.423132
 20
245.440099
 30
0.0
 10
511.949541
 20
246.704180
 30
0.0
 10
511.949541
 20
248.151734
 30
0.0
  0
LWPOLYLINE
  5
289
100
AcDbEntity
  8
Ebene_1
 62
7
100
AcDbPolyline
 90
2
 70
0
 10
487.424309
 20
242.941094
 30
0.0
 10
506.738904
 20
242.941094
 30
0.0
  0
LWPOLYLINE
  5
28a
100
AcDbEntity
  8
Ebene_1
 62
7
100
AcDbPolyline
 90
3
 70
0
 10
511.949541
 20
248.151734
 30
0.0
 10
511.949541
 20
248.532412
 30
0.0
 10
482.215310
 20
248.532495
 30
0.0
  0
LWPOLYLINE
  5
28b
100
AcDbEntity
  8
Ebene_1
 62
7
100
AcDbPolyline
 90
25
 70
1
 10
518.262602
 20
248.532495
 30
0.0
 10
518.262602
 20
243.165106
 30
0.0
 10
523.202803
 20
238.224903
 30
0.0
 10
525.349066
 20
236.078636
 30
0.0
 10
518.262602
 20
228.993889
 30
0.0
 10
518.262602
 20
223.626501
 30
0.0
 10
518.645000
 20
223.626501
 30
0.0
 10
523.853916
 20
223.626501
 30
0.0
 10
523.853916
 20
226.263687
 30
0.0
 10
533.131437
 20
235.539486
 30
0.0
 10
542.407238
 20
226.263687
 30
0.0
 10
542.407238
 20
223.626501
 30
0.0
 10
542.787915
 20
223.626501
 30
0.0
 10
547.998552
 20
223.626501
 30
0.0
 10
547.998552
 20
228.993889
 30
0.0
 10
540.910359
 20
236.082082
 30
0.0
 10
542.910213
 20
238.112939
 30
0.0
 10
542.946372
 20
238.112939
 30
0.0
 10
547.998534
 20
243.165106
 30
0.0
 10
547.998534
 20
248.532495
 30
0.0
 10
542.407220
 20
248.532495
 30
0.0
 10
542.407220
 20
245.895309
 30
0.0
 10
533.131437
 20
236.619509
 30
0.0
 10
523.853916
 20
245.895309
 30
0.0
 10
523.853916
 20
248.532495
 30
0.0
  0
LWPOLYLINE
  5
28c
100
AcDbEntity
  8
Ebene_1
 62
7
100
AcDbPolyline
 90
14
 70
1
 10
554.311614
 20
248.532495
 30
0.0
 10
554.311614
 20
243.165106
 30
0.0
 10
566.383072
 20
231.091925
 30
0.0
 10
566.383072
 20
223.626501
 30
0.0
 10
566.763749
 20
223.626501
 30
0.0
 10
571.974386
 20
223.626501
 30
0.0
 10
571.974386
 20
231.091925
 30
0.0
 10
584.045844
 20
243.165106
 30
0.0
 10
584.045844
 20
248.532495
 30
0.0
 10
578.454529
 20
248.532495
 30
0.0
 10
578.454529
 20
245.895309
 30
0.0
 10
569.178729
 20
236.619509
 30
0.0
 10
559.902928
 20
245.895309
 30
0.0
 10
559.902928
 20
248.532495
 30
0.0
  0
SPLINE
  5
28d
100
AcDbEntity
  8
Ebene_1
 62
7
100
AcDbSpline
 70
8
 71
3
 72
8
 73
4
 74
0
 40
0
 40
0
 40
0
 40
0
 40
1
 40
1
 40
1
 40
1
 10
460.071453
 20
76.184870
 30
0.0
 10
460.071453
 20
75.820649
 30
0.0
 10
459.959166
 20
75.554445
 30
0.0
 10
459.705681
 20
75.299019
 30
0.0
  0
SPLINE
  5
28e
100
AcDbEntity
  8
Ebene_1
 62
7
100
AcDbSpline
 70
8
 71
3
 72
8
 73
4
 74
0
 40
0
 40
0
 40
0
 40
0
 40
1
 40
1
 40
1
 40
1
 10
459.705681
 20
75.299019
 30
0.0
 10
459.449437
 20
75.058107
 30
0.0
 10
459.185596
 20
74.952297
 30
0.0
 10
458.836972
 20
74.952297
 30
0.0
  0
LWPOLYLINE
  5
28f
100
AcDbEntity
  8
Ebene_1
 62
7
100
AcDbPolyline
 90
4
 70
0
 10
443.520270
 20
81.572390
 30
0.0
 10
443.520270
 20
77.417444
 30
0.0
 10
460.071453
 20
77.417444
 30
0.0
 10
460.071453
 20
76.184870
 30
0.0
  0
SPLINE
  5
290
100
AcDbEntity
  8
Ebene_1
 62
7
100
AcDbSpline
 70
8
 71
3
 72
8
 73
4
 74
0
 40
0
 40
0
 40
0
 40
0
 40
1
 40
1
 40
1
 40
1
 10
460.492472
 20
70.797351
 30
0.0
 10
461.488961
 20
70.797351
 30
0.0
 10
462.389843
 20
71.168771
 30
0.0
 10
463.113838
 20
71.873716
 30
0.0
  0
SPLINE
  5
291
100
AcDbEntity
  8
Ebene_1
 62
7
100
AcDbSpline
 70
8
 71
3
 72
8
 73
4
 74
0
 40
0
 40
0
 40
0
 40
0
 40
1
 40
1
 40
1
 40
1
 10
463.113838
 20
71.873716
 30
0.0
 10
463.842417
 20
72.583118
 30
0.0
 10
464.224490
 20
73.499509
 30
0.0
 10
464.224490
 20
74.529377
 30
0.0
  0
LWPOLYLINE
  5
292
100
AcDbEntity
  8
Ebene_1
 62
7
100
AcDbPolyline
 90
7
 70
0
 10
458.836972
 20
74.952297
 30
0.0
 10
443.520270
 20
74.952297
 30
0.0
 10
443.520270
 20
64.179170
 30
0.0
 10
443.943194
 20
64.179170
 30
0.0
 10
447.675212
 20
64.179170
 30
0.0
 10
447.675212
 20
70.797351
 30
0.0
 10
460.492472
 20
70.797351
 30
0.0
  0
LWPOLYLINE
  5
293
100
AcDbEntity
  8
Ebene_1
 62
7
100
AcDbPolyline
 90
3
 70
0
 10
464.224490
 20
74.529377
 30
0.0
 10
464.224490
 20
81.572390
 30
0.0
 10
443.520270
 20
81.572390
 30
0.0
  0
LWPOLYLINE
  5
294
100
AcDbEntity
  8
Ebene_1
 62
7
100
AcDbPolyline
 90
9
 70
1
 10
466.689640
 20
74.952297
 30
0.0
 10
466.689640
 20
64.179170
 30
0.0
 10
467.112564
 20
64.179170
 30
0.0
 10
470.844582
 20
64.179170
 30
0.0
 10
470.844582
 20
70.797351
 30
0.0
 10
483.240823
 20
70.797351
 30
0.0
 10
483.240823
 20
64.179170
 30
0.0
 10
487.393860
 20
64.179170
 30
0.0
 10
487.393860
 20
74.952297
 30
0.0
  0
SPLINE
  5
295
100
AcDbEntity
  8
Ebene_1
 62
7
100
AcDbSpline
 70
8
 71
3
 72
8
 73
4
 74
0
 40
0
 40
0
 40
0
 40
0
 40
1
 40
1
 40
1
 40
1
 10
466.689640
 20
81.149460
 30
0.0
 10
466.689640
 20
80.137627
 30
0.0
 10
467.059768
 20
79.226747
 30
0.0
 10
467.766001
 20
78.501426
 30
0.0
  0
LWPOLYLINE
  5
296
100
AcDbEntity
  8
Ebene_1
 62
7
100
AcDbPolyline
 90
2
 70
0
 10
466.689640
 20
81.572390
 30
0.0
 10
466.689640
 20
81.149460
 30
0.0
  0
SPLINE
  5
297
100
AcDbEntity
  8
Ebene_1
 62
7
100
AcDbSpline
 70
8
 71
3
 72
8
 73
4
 74
0
 40
0
 40
0
 40
0
 40
0
 40
1
 40
1
 40
1
 40
1
 10
467.771755
 20
78.497525
 30
0.0
 10
468.482161
 20
77.787118
 30
0.0
 10
469.394436
 20
77.417346
 30
0.0
 10
470.421697
 20
77.417346
 30
0.0
  0
LWPOLYLINE
  5
298
100
AcDbEntity
  8
Ebene_1
 62
7
100
AcDbPolyline
 90
3
 70
0
 10
467.766001
 20
78.501426
 30
0.0
 10
467.769805
 20
78.499476
 30
0.0
 10
467.771755
 20
78.497525
 30
0.0
  0
SPLINE
  5
299
100
AcDbEntity
  8
Ebene_1
 62
7
100
AcDbSpline
 70
8
 71
3
 72
8
 73
4
 74
0
 40
0
 40
0
 40
0
 40
0
 40
1
 40
1
 40
1
 40
1
 10
483.661842
 20
77.417346
 30
0.0
 10
484.658331
 20
77.417346
 30
0.0
 10
485.559214
 20
77.788766
 30
0.0
 10
486.283208
 20
78.493711
 30
0.0
  0
SPLINE
  5
29a
100
AcDbEntity
  8
Ebene_1
 62
7
100
AcDbSpline
 70
8
 71
3
 72
8
 73
4
 74
0
 40
0
 40
0
 40
0
 40
0
 40
1
 40
1
 40
1
 40
1
 10
486.283208
 20
78.493711
 30
0.0
 10
487.011787
 20
79.203114
 30
0.0
 10
487.393860
 20
80.119504
 30
0.0
 10
487.393860
 20
81.149362
 30
0.0
  0
LWPOLYLINE
  5
29b
100
AcDbEntity
  8
Ebene_1
 62
7
100
AcDbPolyline
 90
2
 70
0
 10
470.421697
 20
77.417346
 30
0.0
 10
483.661842
 20
77.417346
 30
0.0
  0
LWPOLYLINE
  5
29c
100
AcDbEntity
  8
Ebene_1
 62
7
100
AcDbPolyline
 90
3
 70
0
 10
487.393860
 20
81.149362
 30
0.0
 10
487.393860
 20
81.572292
 30
0.0
 10
466.689640
 20
81.572390
 30
0.0
  0
SPLINE
  5
29d
100
AcDbEntity
  8
Ebene_1
 62
7
100
AcDbSpline
 70
8
 71
3
 72
8
 73
4
 74
0
 40
0
 40
0
 40
0
 40
0
 40
1
 40
1
 40
1
 40
1
 10
489.859011
 20
81.149460
 30
0.0
 10
489.859011
 20
80.137627
 30
0.0
 10
490.229139
 20
79.226747
 30
0.0
 10
490.935370
 20
78.501426
 30
0.0
  0
LWPOLYLINE
  5
29e
100
AcDbEntity
  8
Ebene_1
 62
7
100
AcDbPolyline
 90
2
 70
0
 10
489.859011
 20
81.572390
 30
0.0
 10
489.859011
 20
81.149460
 30
0.0
  0
SPLINE
  5
29f
100
AcDbEntity
  8
Ebene_1
 62
7
100
AcDbSpline
 70
8
 71
3
 72
8
 73
4
 74
0
 40
0
 40
0
 40
0
 40
0
 40
1
 40
1
 40
1
 40
1
 10
490.941125
 20
78.497525
 30
0.0
 10
491.651530
 20
77.787118
 30
0.0
 10
492.563805
 20
77.417346
 30
0.0
 10
493.591067
 20
77.417346
 30
0.0
  0
LWPOLYLINE
  5
2a0
100
AcDbEntity
  8
Ebene_1
 62
7
100
AcDbPolyline
 90
3
 70
0
 10
490.935370
 20
78.501426
 30
0.0
 10
490.939174
 20
78.499476
 30
0.0
 10
490.941125
 20
78.497525
 30
0.0
  0
SPLINE
  5
2a1
100
AcDbEntity
  8
Ebene_1
 62
7
100
AcDbSpline
 70
8
 71
3
 72
8
 73
4
 74
0
 40
0
 40
0
 40
0
 40
0
 40
1
 40
1
 40
1
 40
1
 10
506.410237
 20
76.184773
 30
0.0
 10
506.410237
 20
75.820552
 30
0.0
 10
506.297949
 20
75.554348
 30
0.0
 10
506.044465
 20
75.298922
 30
0.0
  0
SPLINE
  5
2a2
100
AcDbEntity
  8
Ebene_1
 62
7
100
AcDbSpline
 70
8
 71
3
 72
8
 73
4
 74
0
 40
0
 40
0
 40
0
 40
0
 40
1
 40
1
 40
1
 40
1
 10
506.044465
 20
75.298922
 30
0.0
 10
505.788219
 20
75.058010
 30
0.0
 10
505.524376
 20
74.952199
 30
0.0
 10
505.175752
 20
74.952199
 30
0.0
  0
LWPOLYLINE
  5
2a3
100
AcDbEntity
  8
Ebene_1
 62
7
100
AcDbPolyline
 90
3
 70
0
 10
493.591067
 20
77.417346
 30
0.0
 10
506.410237
 20
77.417346
 30
0.0
 10
506.410237
 20
76.184773
 30
0.0
  0
SPLINE
  5
2a4
100
AcDbEntity
  8
Ebene_1
 62
7
100
AcDbSpline
 70
8
 71
3
 72
8
 73
4
 74
0
 40
0
 40
0
 40
0
 40
0
 40
1
 40
1
 40
1
 40
1
 10
506.831216
 20
70.797254
 30
0.0
 10
507.827696
 20
70.797254
 30
0.0
 10
508.728587
 20
71.168673
 30
0.0
 10
509.452582
 20
71.873618
 30
0.0
  0
SPLINE
  5
2a5
100
AcDbEntity
  8
Ebene_1
 62
7
100
AcDbSpline
 70
8
 71
3
 72
8
 73
4
 74
0
 40
0
 40
0
 40
0
 40
0
 40
1
 40
1
 40
1
 40
1
 10
509.452582
 20
71.873618
 30
0.0
 10
510.181161
 20
72.583021
 30
0.0
 10
510.563231
 20
73.499411
 30
0.0
 10
510.563231
 20
74.529279
 30
0.0
  0
LWPOLYLINE
  5
2a6
100
AcDbEntity
  8
Ebene_1
 62
7
100
AcDbPolyline
 90
11
 70
0
 10
505.175752
 20
74.952199
 30
0.0
 10
489.859011
 20
74.952199
 30
0.0
 10
489.859011
 20
64.179073
 30
0.0
 10
490.281934
 20
64.179073
 30
0.0
 10
494.013951
 20
64.179073
 30
0.0
 10
494.013951
 20
70.797254
 30
0.0
 10
498.382260
 20
70.797254
 30
0.0
 10
505.002352
 20
64.179073
 30
0.0
 10
511.159518
 20
64.179073
 30
0.0
 10
504.539422
 20
70.797254
 30
0.0
 10
506.831216
 20
70.797254
 30
0.0
  0
LWPOLYLINE
  5
2a7
100
AcDbEntity
  8
Ebene_1
 62
7
100
AcDbPolyline
 90
3
 70
0
 10
510.563231
 20
74.529279
 30
0.0
 10
510.563231
 20
81.572292
 30
0.0
 10
489.859011
 20
81.572390
 30
0.0
  0
LWPOLYLINE
  5
2a8
100
AcDbEntity
  8
Ebene_1
 62
7
100
AcDbPolyline
 90
9
 70
1
 10
528.171720
 20
81.572390
 30
0.0
 10
519.475115
 20
72.875775
 30
0.0
 10
528.171720
 20
64.179170
 30
0.0
 10
528.345086
 20
64.179170
 30
0.0
 10
534.328882
 20
64.179170
 30
0.0
 10
525.630365
 20
72.877687
 30
0.0
 10
526.841987
 20
74.108358
 30
0.0
 10
526.864812
 20
74.108358
 30
0.0
 10
534.328843
 20
81.572390
 30
0.0
  0
LWPOLYLINE
  5
2a9
100
AcDbEntity
  8
Ebene_1
 62
7
100
AcDbPolyline
 90
5
 70
1
 10
513.028379
 20
81.572390
 30
0.0
 10
513.028379
 20
64.179170
 30
0.0
 10
513.451309
 20
64.179170
 30
0.0
 10
517.183324
 20
64.179170
 30
0.0
 10
517.183324
 20
81.572390
 30
0.0
  0
LWPOLYLINE
  5
2aa
100
AcDbEntity
  8
Ebene_1
 62
7
100
AcDbPolyline
 90
5
 70
1
 10
536.197752
 20
81.572390
 30
0.0
 10
536.197752
 20
64.179170
 30
0.0
 10
536.620673
 20
64.179170
 30
0.0
 10
540.352688
 20
64.179170
 30
0.0
 10
540.352688
 20
81.572390
 30
0.0
  0
LWPOLYLINE
  5
2ab
100
AcDbEntity
  8
Ebene_1
 62
7
100
AcDbPolyline
 90
12
 70
1
 10
542.221559
 20
81.572390
 30
0.0
 10
546.128843
 20
77.665106
 30
0.0
 10
546.128843
 20
64.179170
 30
0.0
 10
546.549861
 20
64.179170
 30
0.0
 10
550.281876
 20
64.179170
 30
0.0
 10
550.281876
 20
73.512072
 30
0.0
 10
559.614778
 20
64.179170
 30
0.0
 10
563.522062
 20
64.179170
 30
0.0
 10
563.522062
 20
81.572390
 30
0.0
 10
559.367116
 20
81.572390
 30
0.0
 10
559.367116
 20
70.583984
 30
0.0
 10
548.380623
 20
81.572390
 30
0.0
  0
SPLINE
  5
2ac
100
AcDbEntity
  8
Ebene_1
 62
7
100
AcDbSpline
 70
8
 71
3
 72
8
 73
4
 74
0
 40
0
 40
0
 40
0
 40
0
 40
1
 40
1
 40
1
 40
1
 10
565.987209
 20
67.909284
 30
0.0
 10
565.987209
 20
66.897441
 30
0.0
 10
566.357341
 20
65.988464
 30
0.0
 10
567.063574
 20
65.263153
 30
0.0
  0
LWPOLYLINE
  5
2ad
100
AcDbEntity
  8
Ebene_1
 62
7
100
AcDbPolyline
 90
2
 70
0
 10
565.987209
 20
74.952297
 30
0.0
 10
565.987209
 20
67.909284
 30
0.0
  0
SPLINE
  5
2ae
100
AcDbEntity
  8
Ebene_1
 62
7
100
AcDbSpline
 70
8
 71
3
 72
8
 73
4
 74
0
 40
0
 40
0
 40
0
 40
0
 40
1
 40
1
 40
1
 40
1
 10
567.067475
 20
65.259251
 30
0.0
 10
567.777873
 20
64.548844
 30
0.0
 10
568.692059
 20
64.179082
 30
0.0
 10
569.719322
 20
64.179082
 30
0.0
  0
LWPOLYLINE
  5
2af
100
AcDbEntity
  8
Ebene_1
 62
7
100
AcDbPolyline
 90
3
 70
0
 10
567.063574
 20
65.263153
 30
0.0
 10
567.065525
 20
65.261202
 30
0.0
 10
567.067475
 20
65.259251
 30
0.0
  0
SPLINE
  5
2b0
100
AcDbEntity
  8
Ebene_1
 62
7
100
AcDbSpline
 70
8
 71
3
 72
8
 73
4
 74
0
 40
0
 40
0
 40
0
 40
0
 40
1
 40
1
 40
1
 40
1
 10
572.607390
 20
74.529289
 30
0.0
 10
572.607390
 20
73.517446
 30
0.0
 10
572.977522
 20
72.608469
 30
0.0
 10
573.683754
 20
71.883148
 30
0.0
  0
LWPOLYLINE
  5
2b1
100
AcDbEntity
  8
Ebene_1
 62
7
100
AcDbPolyline
 90
5
 70
0
 10
569.719322
 20
64.179082
 30
0.0
 10
586.691524
 20
64.179082
 30
0.0
 10
586.691524
 20
74.952209
 30
0.0
 10
572.607390
 20
74.952209
 30
0.0
 10
572.607390
 20
74.529289
 30
0.0
  0
SPLINE
  5
2b2
100
AcDbEntity
  8
Ebene_1
 62
7
100
AcDbSpline
 70
8
 71
3
 72
8
 73
4
 74
0
 40
0
 40
0
 40
0
 40
0
 40
1
 40
1
 40
1
 40
1
 10
573.687656
 20
71.877295
 30
0.0
 10
574.398053
 20
71.166888
 30
0.0
 10
575.312240
 20
70.797117
 30
0.0
 10
576.339493
 20
70.797117
 30
0.0
  0
LWPOLYLINE
  5
2b3
100
AcDbEntity
  8
Ebene_1
 62
7
100
AcDbPolyline
 90
3
 70
0
 10
573.683754
 20
71.883148
 30
0.0
 10
573.685705
 20
71.881197
 30
0.0
 10
573.687656
 20
71.877295
 30
0.0
  0
SPLINE
  5
2b4
100
AcDbEntity
  8
Ebene_1
 62
7
100
AcDbSpline
 70
8
 71
3
 72
8
 73
4
 74
0
 40
0
 40
0
 40
0
 40
0
 40
1
 40
1
 40
1
 40
1
 10
571.374904
 20
68.331970
 30
0.0
 10
571.007142
 20
68.331970
 30
0.0
 10
570.738022
 20
68.442375
 30
0.0
 10
570.485239
 20
68.678693
 30
0.0
  0
SPLINE
  5
2b5
100
AcDbEntity
  8
Ebene_1
 62
7
100
AcDbSpline
 70
8
 71
3
 72
8
 73
4
 74
0
 40
0
 40
0
 40
0
 40
0
 40
1
 40
1
 40
1
 40
1
 10
570.485239
 20
68.678693
 30
0.0
 10
570.251135
 20
68.930509
 30
0.0
 10
570.142330
 20
69.198430
 30
0.0
 10
570.142330
 20
69.564544
 30
0.0
  0
LWPOLYLINE
  5
2b6
100
AcDbEntity
  8
Ebene_1
 62
7
100
AcDbPolyline
 90
4
 70
0
 10
576.339493
 20
70.797117
 30
0.0
 10
582.536666
 20
70.797117
 30
0.0
 10
582.536666
 20
68.331970
 30
0.0
 10
571.374904
 20
68.331970
 30
0.0
  0
LWPOLYLINE
  5
2b7
100
AcDbEntity
  8
Ebene_1
 62
7
100
AcDbPolyline
 90
3
 70
0
 10
570.142330
 20
69.564544
 30
0.0
 10
570.142330
 20
74.952063
 30
0.0
 10
565.987209
 20
74.952297
 30
0.0
  0
SPLINE
  5
2b8
100
AcDbEntity
  8
Ebene_1
 62
7
100
AcDbSpline
 70
8
 71
3
 72
8
 73
4
 74
0
 40
0
 40
0
 40
0
 40
0
 40
1
 40
1
 40
1
 40
1
 10
582.959410
 20
77.417444
 30
0.0
 10
583.955900
 20
77.417444
 30
0.0
 10
584.856782
 20
77.788864
 30
0.0
 10
585.580776
 20
78.493809
 30
0.0
  0
SPLINE
  5
2b9
100
AcDbEntity
  8
Ebene_1
 62
7
100
AcDbSpline
 70
8
 71
3
 72
8
 73
4
 74
0
 40
0
 40
0
 40
0
 40
0
 40
1
 40
1
 40
1
 40
1
 10
585.580776
 20
78.493809
 30
0.0
 10
586.309365
 20
79.203211
 30
0.0
 10
586.691436
 20
80.119602
 30
0.0
 10
586.691436
 20
81.149460
 30
0.0
  0
LWPOLYLINE
  5
2ba
100
AcDbEntity
  8
Ebene_1
 62
7
100
AcDbPolyline
 90
4
 70
0
 10
565.987209
 20
81.572390
 30
0.0
 10
565.987209
 20
77.417444
 30
0.0
 10
566.410139
 20
77.417444
 30
0.0
 10
582.959410
 20
77.417444
 30
0.0
  0
LWPOLYLINE
  5
2bb
100
AcDbEntity
  8
Ebene_1
 62
7
100
AcDbPolyline
 90
3
 70
0
 10
586.691436
 20
81.149460
 30
0.0
 10
586.691436
 20
81.572390
 30
0.0
 10
565.987209
 20
81.572390
 30
0.0
  0
LWPOLYLINE
  5
2bc
100
AcDbEntity
  8
Ebene_1
 62
7
100
AcDbPolyline
 90
9
 70
1
 10
470.000639
 20
50.773246
 30
0.0
 10
470.000639
 20
40.000110
 30
0.0
 10
470.421657
 20
40.000110
 30
0.0
 10
490.702953
 20
40.000110
 30
0.0
 10
490.702953
 20
50.773246
 30
0.0
 10
486.549917
 20
50.773246
 30
0.0
 10
486.549917
 20
44.153153
 30
0.0
 10
474.153675
 20
44.153153
 30
0.0
 10
474.153675
 20
50.773246
 30
0.0
  0
SPLINE
  5
2bd
100
AcDbEntity
  8
Ebene_1
 62
7
100
AcDbSpline
 70
8
 71
3
 72
8
 73
4
 74
0
 40
0
 40
0
 40
0
 40
0
 40
1
 40
1
 40
1
 40
1
 10
470.000639
 20
56.970409
 30
0.0
 10
470.000639
 20
55.958576
 30
0.0
 10
470.370766
 20
55.049599
 30
0.0
 10
471.076999
 20
54.324278
 30
0.0
  0
LWPOLYLINE
  5
2be
100
AcDbEntity
  8
Ebene_1
 62
7
100
AcDbPolyline
 90
2
 70
0
 10
470.000639
 20
57.393339
 30
0.0
 10
470.000639
 20
56.970409
 30
0.0
  0
SPLINE
  5
2bf
100
AcDbEntity
  8
Ebene_1
 62
7
100
AcDbSpline
 70
8
 71
3
 72
8
 73
4
 74
0
 40
0
 40
0
 40
0
 40
0
 40
1
 40
1
 40
1
 40
1
 10
471.080900
 20
54.320376
 30
0.0
 10
471.791307
 20
53.609969
 30
0.0
 10
472.705486
 20
53.240198
 30
0.0
 10
473.732747
 20
53.240198
 30
0.0
  0
LWPOLYLINE
  5
2c0
100
AcDbEntity
  8
Ebene_1
 62
7
100
AcDbPolyline
 90
3
 70
0
 10
471.076999
 20
54.324278
 30
0.0
 10
471.078950
 20
54.322327
 30
0.0
 10
471.080900
 20
54.320376
 30
0.0
  0
SPLINE
  5
2c1
100
AcDbEntity
  8
Ebene_1
 62
7
100
AcDbSpline
 70
8
 71
3
 72
8
 73
4
 74
0
 40
0
 40
0
 40
0
 40
0
 40
1
 40
1
 40
1
 40
1
 10
486.971027
 20
53.240198
 30
0.0
 10
487.967517
 20
53.240198
 30
0.0
 10
488.870304
 20
53.611617
 30
0.0
 10
489.594298
 20
54.316562
 30
0.0
  0
SPLINE
  5
2c2
100
AcDbEntity
  8
Ebene_1
 62
7
100
AcDbSpline
 70
8
 71
3
 72
8
 73
4
 74
0
 40
0
 40
0
 40
0
 40
0
 40
1
 40
1
 40
1
 40
1
 10
489.594298
 20
54.316562
 30
0.0
 10
490.322877
 20
55.025965
 30
0.0
 10
490.703045
 20
55.940453
 30
0.0
 10
490.703045
 20
56.970311
 30
0.0
  0
LWPOLYLINE
  5
2c3
100
AcDbEntity
  8
Ebene_1
 62
7
100
AcDbPolyline
 90
2
 70
0
 10
473.732747
 20
53.240198
 30
0.0
 10
486.971027
 20
53.240198
 30
0.0
  0
LWPOLYLINE
  5
2c4
100
AcDbEntity
  8
Ebene_1
 62
7
100
AcDbPolyline
 90
3
 70
0
 10
490.703045
 20
56.970311
 30
0.0
 10
490.703045
 20
57.393241
 30
0.0
 10
470.000639
 20
57.393339
 30
0.0
  0
LWPOLYLINE
  5
2c5
100
AcDbEntity
  8
Ebene_1
 62
7
100
AcDbPolyline
 90
12
 70
1
 10
492.573725
 20
57.393339
 30
0.0
 10
496.479103
 20
53.486055
 30
0.0
 10
496.479103
 20
40.000110
 30
0.0
 10
496.902027
 20
40.000110
 30
0.0
 10
500.634044
 20
40.000110
 30
0.0
 10
500.634044
 20
49.333011
 30
0.0
 10
509.966945
 20
40.000110
 30
0.0
 10
513.872327
 20
40.000110
 30
0.0
 10
513.872327
 20
57.393339
 30
0.0
 10
509.719283
 20
57.393339
 30
0.0
 10
509.719283
 20
46.404933
 30
0.0
 10
498.730887
 20
57.393339
 30
0.0
  0
SPLINE
  5
2c6
100
AcDbEntity
  8
Ebene_1
 62
7
100
AcDbSpline
 70
8
 71
3
 72
8
 73
4
 74
0
 40
0
 40
0
 40
0
 40
0
 40
1
 40
1
 40
1
 40
1
 10
533.309675
 20
40.000110
 30
0.0
 10
534.306165
 20
40.000110
 30
0.0
 10
535.208949
 20
40.371539
 30
0.0
 10
535.932943
 20
41.076474
 30
0.0
  0
SPLINE
  5
2c7
100
AcDbEntity
  8
Ebene_1
 62
7
100
AcDbSpline
 70
8
 71
3
 72
8
 73
4
 74
0
 40
0
 40
0
 40
0
 40
0
 40
1
 40
1
 40
1
 40
1
 10
535.932943
 20
41.076474
 30
0.0
 10
536.661532
 20
41.785887
 30
0.0
 10
537.041691
 20
42.702267
 30
0.0
 10
537.041691
 20
43.732135
 30
0.0
  0
LWPOLYLINE
  5
2c8
100
AcDbEntity
  8
Ebene_1
 62
7
100
AcDbPolyline
 90
4
 70
0
 10
516.339376
 20
57.393339
 30
0.0
 10
516.339376
 20
40.000110
 30
0.0
 10
516.760394
 20
40.000110
 30
0.0
 10
533.309675
 20
40.000110
 30
0.0
  0
LWPOLYLINE
  5
2c9
100
AcDbEntity
  8
Ebene_1
 62
7
100
AcDbPolyline
 90
5
 70
0
 10
537.041691
 20
43.732135
 30
0.0
 10
537.041691
 20
44.153153
 30
0.0
 10
520.492420
 20
44.153153
 30
0.0
 10
520.492420
 20
57.393339
 30
0.0
 10
516.339376
 20
57.393339
 30
0.0
  0
SPLINE
  5
2ca
100
AcDbEntity
  8
Ebene_1
 62
7
100
AcDbSpline
 70
8
 71
3
 72
8
 73
4
 74
0
 40
0
 40
0
 40
0
 40
0
 40
1
 40
1
 40
1
 40
1
 10
225.905704
 20
273.804662
 30
0.0
 10
208.889186
 20
273.804662
 30
0.0
 10
195.095181
 20
260.029274
 30
0.0
 10
195.095181
 20
243.035730
 30
0.0
  0
LWPOLYLINE
  5
2cb
100
AcDbEntity
  8
Ebene_1
 62
7
100
AcDbPolyline
 90
14
 70
1
 10
539.508750
 20
57.393339
 30
0.0
 10
539.508750
 20
53.486055
 30
0.0
 10
547.782434
 20
45.212370
 30
0.0
 10
547.782434
 20
40.000110
 30
0.0
 10
548.205364
 20
40.000110
 30
0.0
 10
551.937380
 20
40.000110
 30
0.0
 10
551.937380
 20
45.212370
 30
0.0
 10
560.211065
 20
53.486055
 30
0.0
 10
560.211065
 20
57.393339
 30
0.0
 10
556.058031
 20
57.393339
 30
0.0
 10
556.058031
 20
55.490173
 30
0.0
 10
549.858956
 20
49.293011
 30
0.0
 10
543.661784
 20
55.490173
 30
0.0
 10
543.661784
 20
57.393339
 30
0.0
  0
SPLINE
  5
2cc
100
AcDbEntity
  8
Ebene_1
 62
7
100
AcDbSpline
 70
8
 71
3
 72
8
 73
4
 74
0
 40
0
 40
0
 40
0
 40
0
 40
1
 40
1
 40
1
 40
1
 10
195.095181
 20
57.965694
 30
0.0
 10
195.095181
 20
40.972142
 30
0.0
 10
208.889186
 20
27.196754
 30
0.0
 10
225.905704
 20
27.196754
 30
0.0
  0
LWPOLYLINE
  5
2cd
100
AcDbEntity
  8
Ebene_1
 62
7
100
AcDbPolyline
 90
2
 70
0
 10
195.095181
 20
243.035730
 30
0.0
 10
195.095181
 20
57.965694
 30
0.0
  0
SPLINE
  5
2ce
100
AcDbEntity
  8
Ebene_1
 62
7
100
AcDbSpline
 70
8
 71
3
 72
8
 73
4
 74
0
 40
0
 40
0
 40
0
 40
0
 40
1
 40
1
 40
1
 40
1
 10
337.098494
 20
27.196754
 30
0.0
 10
354.115012
 20
27.196754
 30
0.0
 10
367.909017
 20
40.972142
 30
0.0
 10
367.909017
 20
57.965694
 30
0.0
  0
LWPOLYLINE
  5
2cf
100
AcDbEntity
  8
Ebene_1
 62
7
100
AcDbPolyline
 90
2
 70
0
 10
225.905704
 20
27.196754
 30
0.0
 10
337.098494
 20
27.196754
 30
0.0
  0
SPLINE
  5
2d0
100
AcDbEntity
  8
Ebene_1
 62
7
100
AcDbSpline
 70
8
 71
3
 72
8
 73
4
 74
0
 40
0
 40
0
 40
0
 40
0
 40
1
 40
1
 40
1
 40
1
 10
367.909017
 20
243.035730
 30
0.0
 10
367.909017
 20
260.029274
 30
0.0
 10
354.115012
 20
273.804662
 30
0.0
 10
337.098494
 20
273.804662
 30
0.0
  0
LWPOLYLINE
  5
2d1
100
AcDbEntity
  8
Ebene_1
 62
7
100
AcDbPolyline
 90
2
 70
0
 10
367.909017
 20
57.965694
 30
0.0
 10
367.909017
 20
243.035730
 30
0.0
  0
LWPOLYLINE
  5
2d2
100
AcDbEntity
  8
Ebene_1
 62
7
100
AcDbPolyline
 90
2
 70
0
 10
337.098494
 20
273.804662
 30
0.0
 10
225.905704
 20
273.804662
 30
0.0
  0
SPLINE
  5
2d3
100
AcDbEntity
  8
Ebene_1
 62
7
100
AcDbSpline
 70
8
 71
3
 72
8
 73
4
 74
0
 40
0
 40
0
 40
0
 40
0
 40
1
 40
1
 40
1
 40
1
 10
337.098494
 20
267.789834
 30
0.0
 10
350.882472
 20
267.789834
 30
0.0
 10
361.886059
 20
256.801090
 30
0.0
 10
361.886059
 20
243.035730
 30
0.0
  0
LWPOLYLINE
  5
2d4
100
AcDbEntity
  8
Ebene_1
 62
7
100
AcDbPolyline
 90
2
 70
0
 10
225.905704
 20
267.789834
 30
0.0
 10
337.098494
 20
267.789834
 30
0.0
  0
SPLINE
  5
2d5
100
AcDbEntity
  8
Ebene_1
 62
7
100
AcDbSpline
 70
8
 71
3
 72
8
 73
4
 74
0
 40
0
 40
0
 40
0
 40
0
 40
1
 40
1
 40
1
 40
1
 10
361.886059
 20
57.965694
 30
0.0
 10
361.886059
 20
44.200325
 30
0.0
 10
350.882472
 20
33.211590
 30
0.0
 10
337.098494
 20
33.211590
 30
0.0
  0
LWPOLYLINE
  5
2d6
100
AcDbEntity
  8
Ebene_1
 62
7
100
AcDbPolyline
 90
2
 70
0
 10
361.886059
 20
243.035730
 30
0.0
 10
361.886059
 20
57.965694
 30
0.0
  0
SPLINE
  5
2d7
100
AcDbEntity
  8
Ebene_1
 62
7
100
AcDbSpline
 70
8
 71
3
 72
8
 73
4
 74
0
 40
0
 40
0
 40
0
 40
0
 40
1
 40
1
 40
1
 40
1
 10
225.905704
 20
33.211590
 30
0.0
 10
212.121717
 20
33.211590
 30
0.0
 10
201.118139
 20
44.200325
 30
0.0
 10
201.118139
 20
57.965694
 30
0.0
  0
LWPOLYLINE
  5
2d8
100
AcDbEntity
  8
Ebene_1
 62
7
100
AcDbPolyline
 90
2
 70
0
 10
337.098494
 20
33.211590
 30
0.0
 10
225.905704
 20
33.211590
 30
0.0
  0
SPLINE
  5
2d9
100
AcDbEntity
  8
Ebene_1
 62
7
100
AcDbSpline
 70
8
 71
3
 72
8
 73
4
 74
0
 40
0
 40
0
 40
0
 40
0
 40
1
 40
1
 40
1
 40
1
 10
201.118139
 20
243.035730
 30
0.0
 10
201.118139
 20
256.801090
 30
0.0
 10
212.121717
 20
267.789834
 30
0.0
 10
225.905704
 20
267.789834
 30
0.0
  0
LWPOLYLINE
  5
2da
100
AcDbEntity
  8
Ebene_1
 62
7
100
AcDbPolyline
 90
2
 70
0
 10
201.118139
 20
57.965694
 30
0.0
 10
201.118139
 20
243.035730
 30
0.0
  0
SPLINE
  5
2db
100
AcDbEntity
  8
Ebene_1
 62
7
100
AcDbSpline
 70
8
 71
3
 72
8
 73
4
 74
0
 40
0
 40
0
 40
0
 40
0
 40
1
 40
1
 40
1
 40
1
 10
215.433252
 20
46.449678
 30
0.0
 10
215.433248
 20
45.231986
 30
0.0
 10
214.446112
 20
44.244854
 30
0.0
 10
213.228420
 20
44.244854
 30
0.0
  0
SPLINE
  5
2dc
100
AcDbEntity
  8
Ebene_1
 62
7
100
AcDbSpline
 70
8
 71
3
 72
8
 73
4
 74
0
 40
0
 40
0
 40
0
 40
0
 40
1
 40
1
 40
1
 40
1
 10
213.228420
 20
44.244854
 30
0.0
 10
212.010728
 20
44.244854
 30
0.0
 10
211.023592
 20
45.231986
 30
0.0
 10
211.023587
 20
46.449678
 30
0.0
  0
SPLINE
  5
2dd
100
AcDbEntity
  8
Ebene_1
 62
7
100
AcDbSpline
 70
8
 71
3
 72
8
 73
4
 74
0
 40
0
 40
0
 40
0
 40
0
 40
1
 40
1
 40
1
 40
1
 10
211.023587
 20
46.449678
 30
0.0
 10
211.023587
 20
47.034436
 30
0.0
 10
211.255882
 20
47.595243
 30
0.0
 10
211.669368
 20
48.008730
 30
0.0
  0
SPLINE
  5
2de
100
AcDbEntity
  8
Ebene_1
 62
7
100
AcDbSpline
 70
8
 71
3
 72
8
 73
4
 74
0
 40
0
 40
0
 40
0
 40
0
 40
1
 40
1
 40
1
 40
1
 10
211.669368
 20
48.008730
 30
0.0
 10
212.082854
 20
48.422216
 30
0.0
 10
212.643662
 20
48.654510
 30
0.0
 10
213.228420
 20
48.654510
 30
0.0
  0
SPLINE
  5
2df
100
AcDbEntity
  8
Ebene_1
 62
7
100
AcDbSpline
 70
8
 71
3
 72
8
 73
4
 74
0
 40
0
 40
0
 40
0
 40
0
 40
1
 40
1
 40
1
 40
1
 10
213.228420
 20
48.654510
 30
0.0
 10
213.813178
 20
48.654510
 30
0.0
 10
214.373986
 20
48.422216
 30
0.0
 10
214.787472
 20
48.008730
 30
0.0
  0
SPLINE
  5
2e0
100
AcDbEntity
  8
Ebene_1
 62
7
100
AcDbSpline
 70
8
 71
3
 72
8
 73
4
 74
0
 40
0
 40
0
 40
0
 40
0
 40
1
 40
1
 40
1
 40
1
 10
214.787472
 20
48.008730
 30
0.0
 10
215.200958
 20
47.595243
 30
0.0
 10
215.433252
 20
47.034436
 30
0.0
 10
215.433252
 20
46.449678
 30
0.0
  0
LWPOLYLINE
  5
2e1
100
AcDbEntity
  8
Ebene_1
 62
7
100
AcDbPolyline
 90
1
 70
1
 10
225.905704
 20
267.789834
 30
0.0
  0
SPLINE
  5
2e2
100
AcDbEntity
  8
Ebene_1
 62
7
100
AcDbSpline
 70
8
 71
3
 72
8
 73
4
 74
0
 40
0
 40
0
 40
0
 40
0
 40
1
 40
1
 40
1
 40
1
 10
352.056739
 20
46.706920
 30
0.0
 10
352.056744
 20
46.122159
 30
0.0
 10
351.824452
 20
45.561347
 30
0.0
 10
351.410965
 20
45.147857
 30
0.0
  0
SPLINE
  5
2e3
100
AcDbEntity
  8
Ebene_1
 62
7
100
AcDbSpline
 70
8
 71
3
 72
8
 73
4
 74
0
 40
0
 40
0
 40
0
 40
0
 40
1
 40
1
 40
1
 40
1
 10
351.410965
 20
45.147857
 30
0.0
 10
350.997478
 20
44.734366
 30
0.0
 10
350.436667
 20
44.502070
 30
0.0
 10
349.851906
 20
44.502070
 30
0.0
  0
SPLINE
  5
2e4
100
AcDbEntity
  8
Ebene_1
 62
7
100
AcDbSpline
 70
8
 71
3
 72
8
 73
4
 74
0
 40
0
 40
0
 40
0
 40
0
 40
1
 40
1
 40
1
 40
1
 10
349.851906
 20
44.502070
 30
0.0
 10
349.267145
 20
44.502070
 30
0.0
 10
348.706335
 20
44.734366
 30
0.0
 10
348.292848
 20
45.147857
 30
0.0
  0
SPLINE
  5
2e5
100
AcDbEntity
  8
Ebene_1
 62
7
100
AcDbSpline
 70
8
 71
3
 72
8
 73
4
 74
0
 40
0
 40
0
 40
0
 40
0
 40
1
 40
1
 40
1
 40
1
 10
348.292848
 20
45.147857
 30
0.0
 10
347.879361
 20
45.561347
 30
0.0
 10
347.647069
 20
46.122159
 30
0.0
 10
347.647074
 20
46.706920
 30
0.0
  0
SPLINE
  5
2e6
100
AcDbEntity
  8
Ebene_1
 62
7
100
AcDbSpline
 70
8
 71
3
 72
8
 73
4
 74
0
 40
0
 40
0
 40
0
 40
0
 40
1
 40
1
 40
1
 40
1
 10
347.647074
 20
46.706920
 30
0.0
 10
347.647079
 20
47.924612
 30
0.0
 10
348.634215
 20
48.911744
 30
0.0
 10
349.851906
 20
48.911744
 30
0.0
  0
SPLINE
  5
2e7
100
AcDbEntity
  8
Ebene_1
 62
7
100
AcDbSpline
 70
8
 71
3
 72
8
 73
4
 74
0
 40
0
 40
0
 40
0
 40
0
 40
1
 40
1
 40
1
 40
1
 10
349.851906
 20
48.911744
 30
0.0
 10
351.069598
 20
48.911744
 30
0.0
 10
352.056734
 20
47.924612
 30
0.0
 10
352.056739
 20
46.706920
 30
0.0
  0
LWPOLYLINE
  5
2e8
100
AcDbEntity
  8
Ebene_1
 62
7
100
AcDbPolyline
 90
1
 70
1
 10
215.433252
 20
46.449678
 30
0.0
  0
SPLINE
  5
2e9
100
AcDbEntity
  8
Ebene_1
 62
7
100
AcDbSpline
 70
8
 71
3
 72
8
 73
4
 74
0
 40
0
 40
0
 40
0
 40
0
 40
1
 40
1
 40
1
 40
1
 10
352.390092
 20
254.037280
 30
0.0
 10
352.390087
 20
252.819588
 30
0.0
 10
351.402951
 20
251.832456
 30
0.0
 10
350.185259
 20
251.832456
 30
0.0
  0
SPLINE
  5
2ea
100
AcDbEntity
  8
Ebene_1
 62
7
100
AcDbSpline
 70
8
 71
3
 72
8
 73
4
 74
0
 40
0
 40
0
 40
0
 40
0
 40
1
 40
1
 40
1
 40
1
 10
350.185259
 20
251.832456
 30
0.0
 10
348.967568
 20
251.832456
 30
0.0
 10
347.980432
 20
252.819588
 30
0.0
 10
347.980427
 20
254.037280
 30
0.0
  0
SPLINE
  5
2eb
100
AcDbEntity
  8
Ebene_1
 62
7
100
AcDbSpline
 70
8
 71
3
 72
8
 73
4
 74
0
 40
0
 40
0
 40
0
 40
0
 40
1
 40
1
 40
1
 40
1
 10
347.980427
 20
254.037280
 30
0.0
 10
347.980425
 20
254.622039
 30
0.0
 10
348.212718
 20
255.182849
 30
0.0
 10
348.626204
 20
255.596337
 30
0.0
  0
SPLINE
  5
2ec
100
AcDbEntity
  8
Ebene_1
 62
7
100
AcDbSpline
 70
8
 71
3
 72
8
 73
4
 74
0
 40
0
 40
0
 40
0
 40
0
 40
1
 40
1
 40
1
 40
1
 10
348.626204
 20
255.596337
 30
0.0
 10
349.039691
 20
256.009826
 30
0.0
 10
349.600500
 20
256.242121
 30
0.0
 10
350.185259
 20
256.242121
 30
0.0
  0
SPLINE
  5
2ed
100
AcDbEntity
  8
Ebene_1
 62
7
100
AcDbSpline
 70
8
 71
3
 72
8
 73
4
 74
0
 40
0
 40
0
 40
0
 40
0
 40
1
 40
1
 40
1
 40
1
 10
350.185259
 20
256.242121
 30
0.0
 10
350.770019
 20
256.242121
 30
0.0
 10
351.330828
 20
256.009826
 30
0.0
 10
351.744315
 20
255.596337
 30
0.0
  0
SPLINE
  5
2ee
100
AcDbEntity
  8
Ebene_1
 62
7
100
AcDbSpline
 70
8
 71
3
 72
8
 73
4
 74
0
 40
0
 40
0
 40
0
 40
0
 40
1
 40
1
 40
1
 40
1
 10
351.744315
 20
255.596337
 30
0.0
 10
352.157801
 20
255.182849
 30
0.0
 10
352.390094
 20
254.622039
 30
0.0
 10
352.390092
 20
254.037280
 30
0.0
  0
LWPOLYLINE
  5
2ef
100
AcDbEntity
  8
Ebene_1
 62
7
100
AcDbPolyline
 90
1
 70
1
 10
352.056739
 20
46.706920
 30
0.0
  0
SPLINE
  5
2f0
100
AcDbEntity
  8
Ebene_1
 62
7
100
AcDbSpline
 70
8
 71
3
 72
8
 73
4
 74
0
 40
0
 40
0
 40
0
 40
0
 40
1
 40
1
 40
1
 40
1
 10
215.690477
 20
254.037280
 30
0.0
 10
215.690472
 20
252.819588
 30
0.0
 10
214.703336
 20
251.832456
 30
0.0
 10
213.485644
 20
251.832456
 30
0.0
  0
SPLINE
  5
2f1
100
AcDbEntity
  8
Ebene_1
 62
7
100
AcDbSpline
 70
8
 71
3
 72
8
 73
4
 74
0
 40
0
 40
0
 40
0
 40
0
 40
1
 40
1
 40
1
 40
1
 10
213.485644
 20
251.832456
 30
0.0
 10
212.267953
 20
251.832456
 30
0.0
 10
211.280817
 20
252.819588
 30
0.0
 10
211.280812
 20
254.037280
 30
0.0
  0
SPLINE
  5
2f2
100
AcDbEntity
  8
Ebene_1
 62
7
100
AcDbSpline
 70
8
 71
3
 72
8
 73
4
 74
0
 40
0
 40
0
 40
0
 40
0
 40
1
 40
1
 40
1
 40
1
 10
211.280812
 20
254.037280
 30
0.0
 10
211.280810
 20
254.622039
 30
0.0
 10
211.513103
 20
255.182849
 30
0.0
 10
211.926589
 20
255.596337
 30
0.0
  0
SPLINE
  5
2f3
100
AcDbEntity
  8
Ebene_1
 62
7
100
AcDbSpline
 70
8
 71
3
 72
8
 73
4
 74
0
 40
0
 40
0
 40
0
 40
0
 40
1
 40
1
 40
1
 40
1
 10
211.926589
 20
255.596337
 30
0.0
 10
212.340076
 20
256.009826
 30
0.0
 10
212.900885
 20
256.242121
 30
0.0
 10
213.485644
 20
256.242121
 30
0.0
  0
SPLINE
  5
2f4
100
AcDbEntity
  8
Ebene_1
 62
7
100
AcDbSpline
 70
8
 71
3
 72
8
 73
4
 74
0
 40
0
 40
0
 40
0
 40
0
 40
1
 40
1
 40
1
 40
1
 10
213.485644
 20
256.242121
 30
0.0
 10
214.070404
 20
256.242121
 30
0.0
 10
214.631213
 20
256.009826
 30
0.0
 10
215.044700
 20
255.596337
 30
0.0
  0
SPLINE
  5
2f5
100
AcDbEntity
  8
Ebene_1
 62
7
100
AcDbSpline
 70
8
 71
3
 72
8
 73
4
 74
0
 40
0
 40
0
 40
0
 40
0
 40
1
 40
1
 40
1
 40
1
 10
215.044700
 20
255.596337
 30
0.0
 10
215.458186
 20
255.182849
 30
0.0
 10
215.690479
 20
254.622039
 30
0.0
 10
215.690477
 20
254.037280
 30
0.0
  0
LWPOLYLINE
  5
2f6
100
AcDbEntity
  8
Ebene_1
 62
7
100
AcDbPolyline
 90
1
 70
1
 10
352.390092
 20
254.037280
 30
0.0
  0
SPLINE
  5
2f7
100
AcDbEntity
  8
Ebene_1
 62
7
100
AcDbSpline
 70
8
 71
3
 72
8
 73
4
 74
0
 40
0
 40
0
 40
0
 40
0
 40
1
 40
1
 40
1
 40
1
 10
281.428682
 20
84.998020
 30
0.0
 10
281.247322
 20
85.954450
 30
0.0
 10
265.643064
 20
173.073090
 30
0.0
 10
265.643064
 20
173.129170
 30
0.0
  0
SPLINE
  5
2f8
100
AcDbEntity
  8
Ebene_1
 62
7
100
AcDbSpline
 70
8
 71
3
 72
8
 73
4
 74
0
 40
0
 40
0
 40
0
 40
0
 40
1
 40
1
 40
1
 40
1
 10
265.643064
 20
173.129170
 30
0.0
 10
265.643064
 20
173.208670
 30
0.0
 10
261.034217
 20
173.092270
 30
0.0
 10
258.717584
 20
172.954040
 30
0.0
  0
SPLINE
  5
2f9
100
AcDbEntity
  8
Ebene_1
 62
7
100
AcDbSpline
 70
8
 71
3
 72
8
 73
4
 74
0
 40
0
 40
0
 40
0
 40
0
 40
1
 40
1
 40
1
 40
1
 10
258.717584
 20
172.954040
 30
0.0
 10
251.823381
 20
172.542910
 30
0.0
 10
248.277498
 20
171.335610
 30
0.0
 10
246.563703
 20
168.815900
 30
0.0
  0
SPLINE
  5
2fa
100
AcDbEntity
  8
Ebene_1
 62
7
100
AcDbSpline
 70
8
 71
3
 72
8
 73
4
 74
0
 40
0
 40
0
 40
0
 40
0
 40
1
 40
1
 40
1
 40
1
 10
246.563703
 20
168.815900
 30
0.0
 10
245.931792
 20
167.886860
 30
0.0
 10
245.667996
 20
167.224500
 30
0.0
 10
245.392240
 20
165.874610
 30
0.0
  0
SPLINE
  5
2fb
100
AcDbEntity
  8
Ebene_1
 62
7
100
AcDbSpline
 70
8
 71
3
 72
8
 73
4
 74
0
 40
0
 40
0
 40
0
 40
0
 40
1
 40
1
 40
1
 40
1
 10
245.392240
 20
165.874610
 30
0.0
 10
245.280290
 20
165.326130
 30
0.0
 10
245.168089
 20
164.856940
 30
0.0
 10
245.143106
 20
164.831990
 30
0.0
  0
SPLINE
  5
2fc
100
AcDbEntity
  8
Ebene_1
 62
7
100
AcDbSpline
 70
8
 71
3
 72
8
 73
4
 74
0
 40
0
 40
0
 40
0
 40
0
 40
1
 40
1
 40
1
 40
1
 10
245.143106
 20
164.831990
 30
0.0
 10
245.059096
 20
164.747890
 30
0.0
 10
242.194119
 20
166.109400
 30
0.0
 10
240.758638
 20
166.915320
 30
0.0
  0
SPLINE
  5
2fd
100
AcDbEntity
  8
Ebene_1
 62
7
100
AcDbSpline
 70
8
 71
3
 72
8
 73
4
 74
0
 40
0
 40
0
 40
0
 40
0
 40
1
 40
1
 40
1
 40
1
 10
240.758638
 20
166.915320
 30
0.0
 10
236.465005
 20
169.325830
 30
0.0
 10
233.094194
 20
172.116830
 30
0.0
 10
230.801096
 20
175.160030
 30
0.0
  0
SPLINE
  5
2fe
100
AcDbEntity
  8
Ebene_1
 62
7
100
AcDbSpline
 70
8
 71
3
 72
8
 73
4
 74
0
 40
0
 40
0
 40
0
 40
0
 40
1
 40
1
 40
1
 40
1
 10
230.801096
 20
175.160030
 30
0.0
 10
230.464223
 20
175.607100
 30
0.0
 10
230.188582
 20
176.009500
 30
0.0
 10
230.188582
 20
176.054220
 30
0.0
  0
SPLINE
  5
2ff
100
AcDbEntity
  8
Ebene_1
 62
7
100
AcDbSpline
 70
8
 71
3
 72
8
 73
4
 74
0
 40
0
 40
0
 40
0
 40
0
 40
1
 40
1
 40
1
 40
1
 10
230.188582
 20
176.054220
 30
0.0
 10
230.188582
 20
176.098920
 30
0.0
 10
230.363009
 20
176.207750
 30
0.0
 10
230.576184
 20
176.295980
 30
0.0
  0
SPLINE
  5
300
100
AcDbEntity
  8
Ebene_1
 62
7
100
AcDbSpline
 70
8
 71
3
 72
8
 73
4
 74
0
 40
0
 40
0
 40
0
 40
0
 40
1
 40
1
 40
1
 40
1
 10
230.576184
 20
176.295980
 30
0.0
 10
230.789396
 20
176.384380
 30
0.0
 10
231.708080
 20
176.780170
 30
0.0
 10
232.617676
 20
177.175910
 30
0.0
  0
SPLINE
  5
301
100
AcDbEntity
  8
Ebene_1
 62
7
100
AcDbSpline
 70
8
 71
3
 72
8
 73
4
 74
0
 40
0
 40
0
 40
0
 40
0
 40
1
 40
1
 40
1
 40
1
 10
232.617676
 20
177.175910
 30
0.0
 10
243.039628
 20
181.709890
 30
0.0
 10
256.586586
 20
184.879080
 30
0.0
 10
268.744042
 20
185.627310
 30
0.0
  0
LWPOLYLINE
  5
302
100
AcDbEntity
  8
Ebene_1
 62
7
100
AcDbPolyline
 90
1
 70
1
 10
215.690477
 20
254.037280
 30
0.0
  0
SPLINE
  5
303
100
AcDbEntity
  8
Ebene_1
 62
7
100
AcDbSpline
 70
8
 71
3
 72
8
 73
4
 74
0
 40
0
 40
0
 40
0
 40
0
 40
1
 40
1
 40
1
 40
1
 10
275.654923
 20
178.595310
 30
0.0
 10
278.858984
 20
174.691000
 30
0.0
 10
281.515939
 20
171.535660
 30
0.0
 10
281.559239
 20
171.583470
 30
0.0
  0
SPLINE
  5
304
100
AcDbEntity
  8
Ebene_1
 62
7
100
AcDbSpline
 70
8
 71
3
 72
8
 73
4
 74
0
 40
0
 40
0
 40
0
 40
0
 40
1
 40
1
 40
1
 40
1
 10
281.559239
 20
171.583470
 30
0.0
 10
281.602639
 20
171.631070
 30
0.0
 10
284.203050
 20
174.796200
 30
0.0
 10
287.338060
 20
178.616710
 30
0.0
  0
SPLINE
  5
305
100
AcDbEntity
  8
Ebene_1
 62
7
100
AcDbSpline
 70
8
 71
3
 72
8
 73
4
 74
0
 40
0
 40
0
 40
0
 40
0
 40
1
 40
1
 40
1
 40
1
 10
287.338060
 20
178.616710
 30
0.0
 10
290.473160
 20
182.437180
 30
0.0
 10
293.086090
 20
185.592610
 30
0.0
 10
293.144600
 20
185.628780
 30
0.0
  0
SPLINE
  5
306
100
AcDbEntity
  8
Ebene_1
 62
7
100
AcDbSpline
 70
8
 71
3
 72
8
 73
4
 74
0
 40
0
 40
0
 40
0
 40
0
 40
1
 40
1
 40
1
 40
1
 10
293.144600
 20
185.628780
 30
0.0
 10
293.266610
 20
185.704180
 30
0.0
 10
295.874010
 20
185.536080
 30
0.0
 10
298.151470
 20
185.305870
 30
0.0
  0
SPLINE
  5
307
100
AcDbEntity
  8
Ebene_1
 62
7
100
AcDbSpline
 70
8
 71
3
 72
8
 73
4
 74
0
 40
0
 40
0
 40
0
 40
0
 40
1
 40
1
 40
1
 40
1
 10
298.151470
 20
185.305870
 30
0.0
 10
307.755950
 20
184.334990
 30
0.0
 10
317.402140
 20
182.112540
 30
0.0
 10
326.163620
 20
178.851900
 30
0.0
  0
SPLINE
  5
308
100
AcDbEntity
  8
Ebene_1
 62
7
100
AcDbSpline
 70
8
 71
3
 72
8
 73
4
 74
0
 40
0
 40
0
 40
0
 40
0
 40
1
 40
1
 40
1
 40
1
 10
326.163620
 20
178.851900
 30
0.0
 10
328.231370
 20
178.082340
 30
0.0
 10
331.557460
 20
176.708860
 30
0.0
 10
332.424920
 20
176.266320
 30
0.0
  0
LWPOLYLINE
  5
309
100
AcDbEntity
  8
Ebene_1
 62
7
100
AcDbPolyline
 90
3
 70
0
 10
268.744042
 20
185.627310
 30
0.0
 10
269.829351
 20
185.694010
 30
0.0
 10
275.654923
 20
178.595310
 30
0.0
  0
SPLINE
  5
30a
100
AcDbEntity
  8
Ebene_1
 62
7
100
AcDbSpline
 70
8
 71
3
 72
8
 73
4
 74
0
 40
0
 40
0
 40
0
 40
0
 40
1
 40
1
 40
1
 40
1
 10
332.307420
 20
175.340830
 30
0.0
 10
330.275920
 20
172.547710
 30
0.0
 10
327.091120
 20
169.802930
 30
0.0
 10
323.147070
 20
167.445910
 30
0.0
  0
SPLINE
  5
30b
100
AcDbEntity
  8
Ebene_1
 62
7
100
AcDbSpline
 70
8
 71
3
 72
8
 73
4
 74
0
 40
0
 40
0
 40
0
 40
0
 40
1
 40
1
 40
1
 40
1
 10
323.147070
 20
167.445910
 30
0.0
 10
322.062380
 20
166.797680
 30
0.0
 10
318.471680
 20
164.995460
 30
0.0
 10
317.982100
 20
164.853520
 30
0.0
  0
SPLINE
  5
30c
100
AcDbEntity
  8
Ebene_1
 62
7
100
AcDbSpline
 70
8
 71
3
 72
8
 73
4
 74
0
 40
0
 40
0
 40
0
 40
0
 40
1
 40
1
 40
1
 40
1
 10
317.982100
 20
164.853520
 30
0.0
 10
317.780060
 20
164.794920
 30
0.0
 10
317.752970
 20
164.838920
 30
0.0
 10
317.685750
 20
165.335440
 30
0.0
  0
SPLINE
  5
30d
100
AcDbEntity
  8
Ebene_1
 62
7
100
AcDbSpline
 70
8
 71
3
 72
8
 73
4
 74
0
 40
0
 40
0
 40
0
 40
0
 40
1
 40
1
 40
1
 40
1
 10
317.685750
 20
165.335440
 30
0.0
 10
317.645050
 20
165.635970
 30
0.0
 10
317.498120
 20
166.275970
 30
0.0
 10
317.359200
 20
166.757700
 30
0.0
  0
SPLINE
  5
30e
100
AcDbEntity
  8
Ebene_1
 62
7
100
AcDbSpline
 70
8
 71
3
 72
8
 73
4
 74
0
 40
0
 40
0
 40
0
 40
0
 40
1
 40
1
 40
1
 40
1
 10
317.359200
 20
166.757700
 30
0.0
 10
316.265330
 20
170.551080
 30
0.0
 10
313.033280
 20
172.235510
 30
0.0
 10
305.645490
 20
172.862460
 30
0.0
  0
SPLINE
  5
30f
100
AcDbEntity
  8
Ebene_1
 62
7
100
AcDbSpline
 70
8
 71
3
 72
8
 73
4
 74
0
 40
0
 40
0
 40
0
 40
0
 40
1
 40
1
 40
1
 40
1
 10
305.645490
 20
172.862460
 30
0.0
 10
304.036880
 20
172.999030
 30
0.0
 10
297.346810
 20
173.174100
 30
0.0
 10
297.262730
 20
173.081930
 30
0.0
  0
SPLINE
  5
310
100
AcDbEntity
  8
Ebene_1
 62
7
100
AcDbSpline
 70
8
 71
3
 72
8
 73
4
 74
0
 40
0
 40
0
 40
0
 40
0
 40
1
 40
1
 40
1
 40
1
 10
297.262730
 20
173.081930
 30
0.0
 10
297.219830
 20
173.034830
 30
0.0
 10
284.304770
 20
100.585560
 30
0.0
 10
281.579139
 20
85.101300
 30
0.0
  0
LWPOLYLINE
  5
311
100
AcDbEntity
  8
Ebene_1
 62
7
100
AcDbPolyline
 90
3
 70
0
 10
332.424920
 20
176.266320
 30
0.0
 10
332.830180
 20
176.059540
 30
0.0
 10
332.307420
 20
175.340830
 30
0.0
  0
SPLINE
  5
312
100
AcDbEntity
  8
Ebene_1
 62
7
100
AcDbSpline
 70
8
 71
3
 72
8
 73
4
 74
0
 40
0
 40
0
 40
0
 40
0
 40
1
 40
1
 40
1
 40
1
 10
332.830730
 20
179.962620
 30
0.0
 10
320.485350
 20
185.169220
 30
0.0
 10
306.459550
 20
188.482370
 30
0.0
 10
292.466350
 20
189.497370
 30
0.0
  0
SPLINE
  5
313
100
AcDbEntity
  8
Ebene_1
 62
7
100
AcDbSpline
 70
8
 71
3
 72
8
 73
4
 74
0
 40
0
 40
0
 40
0
 40
0
 40
1
 40
1
 40
1
 40
1
 10
292.466350
 20
189.497370
 30
0.0
 10
287.970640
 20
189.823470
 30
0.0
 10
278.630898
 20
189.930260
 30
0.0
 10
274.108313
 20
189.707280
 30
0.0
  0
SPLINE
  5
314
100
AcDbEntity
  8
Ebene_1
 62
7
100
AcDbSpline
 70
8
 71
3
 72
8
 73
4
 74
0
 40
0
 40
0
 40
0
 40
0
 40
1
 40
1
 40
1
 40
1
 10
274.108313
 20
189.707280
 30
0.0
 10
258.435460
 20
188.934520
 30
0.0
 10
244.016091
 20
185.740480
 30
0.0
 10
230.158218
 20
179.971880
 30
0.0
  0
SPLINE
  5
315
100
AcDbEntity
  8
Ebene_1
 62
7
100
AcDbSpline
 70
8
 71
3
 72
8
 73
4
 74
0
 40
0
 40
0
 40
0
 40
0
 40
1
 40
1
 40
1
 40
1
 10
230.158218
 20
179.971880
 30
0.0
 10
229.203496
 20
179.574430
 30
0.0
 10
228.362878
 20
179.272070
 30
0.0
 10
228.290234
 20
179.299950
 30
0.0
  0
SPLINE
  5
316
100
AcDbEntity
  8
Ebene_1
 62
7
100
AcDbSpline
 70
8
 71
3
 72
8
 73
4
 74
0
 40
0
 40
0
 40
0
 40
0
 40
1
 40
1
 40
1
 40
1
 10
228.290234
 20
179.299950
 30
0.0
 10
228.217404
 20
179.327850
 30
0.0
 10
227.619855
 20
180.436730
 30
0.0
 10
226.961920
 20
181.764230
 30
0.0
  0
SPLINE
  5
317
100
AcDbEntity
  8
Ebene_1
 62
7
100
AcDbSpline
 70
8
 71
3
 72
8
 73
4
 74
0
 40
0
 40
0
 40
0
 40
0
 40
1
 40
1
 40
1
 40
1
 10
226.961920
 20
181.764230
 30
0.0
 10
225.731008
 20
184.247860
 30
0.0
 10
225.157347
 20
185.538040
 30
0.0
 10
225.245049
 20
185.625700
 30
0.0
  0
SPLINE
  5
318
100
AcDbEntity
  8
Ebene_1
 62
7
100
AcDbSpline
 70
8
 71
3
 72
8
 73
4
 74
0
 40
0
 40
0
 40
0
 40
0
 40
1
 40
1
 40
1
 40
1
 10
225.245049
 20
185.625700
 30
0.0
 10
225.334659
 20
185.715200
 30
0.0
 10
228.948817
 20
187.080760
 30
0.0
 10
231.067197
 20
187.825250
 30
0.0
  0
SPLINE
  5
319
100
AcDbEntity
  8
Ebene_1
 62
7
100
AcDbSpline
 70
8
 71
3
 72
8
 73
4
 74
0
 40
0
 40
0
 40
0
 40
0
 40
1
 40
1
 40
1
 40
1
 10
231.067197
 20
187.825250
 30
0.0
 10
250.926141
 20
194.804610
 30
0.0
 10
272.134941
 20
197.696860
 30
0.0
 10
292.207950
 20
196.163020
 30
0.0
  0
SPLINE
  5
31a
100
AcDbEntity
  8
Ebene_1
 62
7
100
AcDbSpline
 70
8
 71
3
 72
8
 73
4
 74
0
 40
0
 40
0
 40
0
 40
0
 40
1
 40
1
 40
1
 40
1
 10
292.207950
 20
196.163020
 30
0.0
 10
307.221420
 20
195.015830
 30
0.0
 10
321.370900
 20
191.848880
 30
0.0
 10
335.774160
 20
186.412050
 30
0.0
  0
SPLINE
  5
31b
100
AcDbEntity
  8
Ebene_1
 62
7
100
AcDbSpline
 70
8
 71
3
 72
8
 73
4
 74
0
 40
0
 40
0
 40
0
 40
0
 40
1
 40
1
 40
1
 40
1
 10
335.774160
 20
186.412050
 30
0.0
 10
336.846510
 20
186.007270
 30
0.0
 10
337.742320
 20
185.657660
 30
0.0
 10
337.764840
 20
185.635120
 30
0.0
  0
SPLINE
  5
31c
100
AcDbEntity
  8
Ebene_1
 62
7
100
AcDbSpline
 70
8
 71
3
 72
8
 73
4
 74
0
 40
0
 40
0
 40
0
 40
0
 40
1
 40
1
 40
1
 40
1
 10
337.764840
 20
185.635120
 30
0.0
 10
337.882550
 20
185.517350
 30
0.0
 10
335.002630
 20
179.505320
 30
0.0
 10
334.710820
 20
179.259670
 30
0.0
  0
SPLINE
  5
31d
100
AcDbEntity
  8
Ebene_1
 62
7
100
AcDbSpline
 70
8
 71
3
 72
8
 73
4
 74
0
 40
0
 40
0
 40
0
 40
0
 40
1
 40
1
 40
1
 40
1
 10
334.710820
 20
179.259670
 30
0.0
 10
334.671620
 20
179.226770
 30
0.0
 10
333.825630
 20
179.543040
 30
0.0
 10
332.830730
 20
179.962620
 30
0.0
  0
LWPOLYLINE
  5
31e
100
AcDbEntity
  8
Ebene_1
 62
7
100
AcDbPolyline
 90
3
 70
0
 10
281.579139
 20
85.101300
 30
0.0
 10
281.497339
 20
84.636200
 30
0.0
 10
281.428682
 20
84.998020
 30
0.0
  0
LWPOLYLINE
  5
31f
100
AcDbEntity
  8
Ebene_1
 62
7
100
AcDbPolyline
 90
1
 70
1
 10
332.830730
 20
179.962620
 30
0.0
  0
SPLINE
  5
320
100
AcDbEntity
  8
Ebene_1
 62
7
100
AcDbSpline
 70
8
 71
3
 72
8
 73
4
 74
0
 40
0
 40
0
 40
0
 40
0
 40
1
 40
1
 40
1
 40
1
 10
217.773348
 20
228.473295
 30
0.0
 10
216.349256
 20
228.473295
 30
0.0
 10
215.088303
 20
227.946574
 30
0.0
 10
214.069919
 20
226.928190
 30
0.0
  0
SPLINE
  5
321
100
AcDbEntity
  8
Ebene_1
 62
7
100
AcDbSpline
 70
8
 71
3
 72
8
 73
4
 74
0
 40
0
 40
0
 40
0
 40
0
 40
1
 40
1
 40
1
 40
1
 10
214.069919
 20
226.928190
 30
0.0
 10
213.074990
 20
225.933262
 30
0.0
 10
212.562708
 20
224.684350
 30
0.0
 10
212.562708
 20
223.262656
 30
0.0
  0
LWPOLYLINE
  5
322
100
AcDbEntity
  8
Ebene_1
 62
7
100
AcDbPolyline
 90
5
 70
0
 10
212.562708
 20
247.787973
 30
0.0
 10
212.562708
 20
232.538455
 30
0.0
 10
236.705624
 20
232.538455
 30
0.0
 10
236.705624
 20
228.473295
 30
0.0
 10
217.773348
 20
228.473295
 30
0.0
  0
SPLINE
  5
323
100
AcDbEntity
  8
Ebene_1
 62
7
100
AcDbSpline
 70
8
 71
3
 72
8
 73
4
 74
0
 40
0
 40
0
 40
0
 40
0
 40
1
 40
1
 40
1
 40
1
 10
237.088025
 20
242.196655
 30
0.0
 10
238.486276
 20
242.196655
 30
0.0
 10
239.730399
 20
242.709216
 30
0.0
 10
240.748392
 20
243.700420
 30
0.0
  0
SPLINE
  5
324
100
AcDbEntity
  8
Ebene_1
 62
7
100
AcDbSpline
 70
8
 71
3
 72
8
 73
4
 74
0
 40
0
 40
0
 40
0
 40
0
 40
1
 40
1
 40
1
 40
1
 10
240.748392
 20
243.700420
 30
0.0
 10
241.770530
 20
244.695660
 30
0.0
 10
242.298664
 20
245.959741
 30
0.0
 10
242.298664
 20
247.407294
 30
0.0
  0
LWPOLYLINE
  5
325
100
AcDbEntity
  8
Ebene_1
 62
7
100
AcDbPolyline
 90
8
 70
0
 10
212.562708
 20
223.262656
 30
0.0
 10
212.562708
 20
222.881979
 30
0.0
 10
212.943387
 20
222.881979
 30
0.0
 10
242.298664
 20
222.881979
 30
0.0
 10
242.298664
 20
238.131495
 30
0.0
 10
218.154026
 20
238.131495
 30
0.0
 10
218.154026
 20
242.196655
 30
0.0
 10
237.088025
 20
242.196655
 30
0.0
  0
LWPOLYLINE
  5
326
100
AcDbEntity
  8
Ebene_1
 62
7
100
AcDbPolyline
 90
3
 70
0
 10
242.298664
 20
247.407294
 30
0.0
 10
242.298664
 20
247.787973
 30
0.0
 10
212.562708
 20
247.787973
 30
0.0
  0
SPLINE
  5
327
100
AcDbEntity
  8
Ebene_1
 62
7
100
AcDbSpline
 70
8
 71
3
 72
8
 73
4
 74
0
 40
0
 40
0
 40
0
 40
0
 40
1
 40
1
 40
1
 40
1
 10
248.611720
 20
228.092618
 30
0.0
 10
248.611720
 20
226.670924
 30
0.0
 10
249.123114
 20
225.411825
 30
0.0
 10
250.115485
 20
224.392633
 30
0.0
  0
LWPOLYLINE
  5
328
100
AcDbEntity
  8
Ebene_1
 62
7
100
AcDbPolyline
 90
2
 70
0
 10
248.611720
 20
228.473295
 30
0.0
 10
248.611720
 20
228.092618
 30
0.0
  0
SPLINE
  5
329
100
AcDbEntity
  8
Ebene_1
 62
7
100
AcDbSpline
 70
8
 71
3
 72
8
 73
4
 74
0
 40
0
 40
0
 40
0
 40
0
 40
1
 40
1
 40
1
 40
1
 10
250.119013
 20
224.389105
 30
0.0
 10
251.115156
 20
223.392962
 30
0.0
 10
252.375521
 20
222.881896
 30
0.0
 10
253.820719
 20
222.881896
 30
0.0
  0
LWPOLYLINE
  5
32a
100
AcDbEntity
  8
Ebene_1
 62
7
100
AcDbPolyline
 90
3
 70
0
 10
250.115485
 20
224.392633
 30
0.0
 10
250.117249
 20
224.390869
 30
0.0
 10
250.119013
 20
224.389105
 30
0.0
  0
SPLINE
  5
32b
100
AcDbEntity
  8
Ebene_1
 62
7
100
AcDbSpline
 70
8
 71
3
 72
8
 73
4
 74
0
 40
0
 40
0
 40
0
 40
0
 40
1
 40
1
 40
1
 40
1
 10
273.135314
 20
222.881896
 30
0.0
 10
274.533566
 20
222.881896
 30
0.0
 10
275.779411
 20
223.394456
 30
0.0
 10
276.797400
 20
224.385660
 30
0.0
  0
SPLINE
  5
32c
100
AcDbEntity
  8
Ebene_1
 62
7
100
AcDbSpline
 70
8
 71
3
 72
8
 73
4
 74
0
 40
0
 40
0
 40
0
 40
0
 40
1
 40
1
 40
1
 40
1
 10
276.797400
 20
224.385660
 30
0.0
 10
277.819542
 20
225.380900
 30
0.0
 10
278.345951
 20
226.644981
 30
0.0
 10
278.345951
 20
228.092535
 30
0.0
  0
LWPOLYLINE
  5
32d
100
AcDbEntity
  8
Ebene_1
 62
7
100
AcDbPolyline
 90
2
 70
0
 10
253.820719
 20
222.881896
 30
0.0
 10
273.135314
 20
222.881896
 30
0.0
  0
LWPOLYLINE
  5
32e
100
AcDbEntity
  8
Ebene_1
 62
7
100
AcDbPolyline
 90
3
 70
0
 10
278.345951
 20
228.092535
 30
0.0
 10
278.345951
 20
228.473212
 30
0.0
 10
248.611720
 20
228.473295
 30
0.0
  0
SPLINE
  5
32f
100
AcDbEntity
  8
Ebene_1
 62
7
100
AcDbSpline
 70
8
 71
3
 72
8
 73
4
 74
0
 40
0
 40
0
 40
0
 40
0
 40
1
 40
1
 40
1
 40
1
 10
248.611720
 20
237.749094
 30
0.0
 10
248.611720
 20
236.327402
 30
0.0
 10
249.123114
 20
235.070025
 30
0.0
 10
250.115485
 20
234.050833
 30
0.0
  0
LWPOLYLINE
  5
330
100
AcDbEntity
  8
Ebene_1
 62
7
100
AcDbPolyline
 90
2
 70
0
 10
248.611720
 20
238.131495
 30
0.0
 10
248.611720
 20
237.749094
 30
0.0
  0
SPLINE
  5
331
100
AcDbEntity
  8
Ebene_1
 62
7
100
AcDbSpline
 70
8
 71
3
 72
8
 73
4
 74
0
 40
0
 40
0
 40
0
 40
0
 40
1
 40
1
 40
1
 40
1
 10
250.119013
 20
234.047305
 30
0.0
 10
251.115156
 20
233.051162
 30
0.0
 10
252.375521
 20
232.538372
 30
0.0
 10
253.820719
 20
232.538372
 30
0.0
  0
LWPOLYLINE
  5
332
100
AcDbEntity
  8
Ebene_1
 62
7
100
AcDbPolyline
 90
3
 70
0
 10
250.115485
 20
234.050833
 30
0.0
 10
250.117249
 20
234.049069
 30
0.0
 10
250.119013
 20
234.047305
 30
0.0
  0
SPLINE
  5
333
100
AcDbEntity
  8
Ebene_1
 62
7
100
AcDbSpline
 70
8
 71
3
 72
8
 73
4
 74
0
 40
0
 40
0
 40
0
 40
0
 40
1
 40
1
 40
1
 40
1
 10
273.135314
 20
232.538372
 30
0.0
 10
274.533566
 20
232.538372
 30
0.0
 10
275.779411
 20
233.050933
 30
0.0
 10
276.797400
 20
234.042138
 30
0.0
  0
SPLINE
  5
334
100
AcDbEntity
  8
Ebene_1
 62
7
100
AcDbSpline
 70
8
 71
3
 72
8
 73
4
 74
0
 40
0
 40
0
 40
0
 40
0
 40
1
 40
1
 40
1
 40
1
 10
276.797400
 20
234.042138
 30
0.0
 10
277.819542
 20
235.037378
 30
0.0
 10
278.345951
 20
236.301459
 30
0.0
 10
278.345951
 20
237.749012
 30
0.0
  0
LWPOLYLINE
  5
335
100
AcDbEntity
  8
Ebene_1
 62
7
100
AcDbPolyline
 90
2
 70
0
 10
253.820719
 20
232.538372
 30
0.0
 10
273.135314
 20
232.538372
 30
0.0
  0
LWPOLYLINE
  5
336
100
AcDbEntity
  8
Ebene_1
 62
7
100
AcDbPolyline
 90
3
 70
0
 10
278.345951
 20
237.749012
 30
0.0
 10
278.345951
 20
238.131412
 30
0.0
 10
248.611720
 20
238.131495
 30
0.0
  0
SPLINE
  5
337
100
AcDbEntity
  8
Ebene_1
 62
7
100
AcDbSpline
 70
8
 71
3
 72
8
 73
4
 74
0
 40
0
 40
0
 40
0
 40
0
 40
1
 40
1
 40
1
 40
1
 10
248.611720
 20
247.407294
 30
0.0
 10
248.611720
 20
245.985602
 30
0.0
 10
249.123114
 20
244.726502
 30
0.0
 10
250.115485
 20
243.707310
 30
0.0
  0
LWPOLYLINE
  5
338
100
AcDbEntity
  8
Ebene_1
 62
7
100
AcDbPolyline
 90
2
 70
0
 10
248.611720
 20
247.787973
 30
0.0
 10
248.611720
 20
247.407294
 30
0.0
  0
SPLINE
  5
339
100
AcDbEntity
  8
Ebene_1
 62
7
100
AcDbSpline
 70
8
 71
3
 72
8
 73
4
 74
0
 40
0
 40
0
 40
0
 40
0
 40
1
 40
1
 40
1
 40
1
 10
250.119013
 20
243.703783
 30
0.0
 10
251.115156
 20
242.707638
 30
0.0
 10
252.375521
 20
242.196572
 30
0.0
 10
253.820719
 20
242.196572
 30
0.0
  0
LWPOLYLINE
  5
33a
100
AcDbEntity
  8
Ebene_1
 62
7
100
AcDbPolyline
 90
3
 70
0
 10
250.115485
 20
243.707310
 30
0.0
 10
250.117249
 20
243.705546
 30
0.0
 10
250.119013
 20
243.703783
 30
0.0
  0
SPLINE
  5
33b
100
AcDbEntity
  8
Ebene_1
 62
7
100
AcDbSpline
 70
8
 71
3
 72
8
 73
4
 74
0
 40
0
 40
0
 40
0
 40
0
 40
1
 40
1
 40
1
 40
1
 10
273.135314
 20
242.196572
 30
0.0
 10
274.533566
 20
242.196572
 30
0.0
 10
275.779411
 20
242.709133
 30
0.0
 10
276.797400
 20
243.700337
 30
0.0
  0
SPLINE
  5
33c
100
AcDbEntity
  8
Ebene_1
 62
7
100
AcDbSpline
 70
8
 71
3
 72
8
 73
4
 74
0
 40
0
 40
0
 40
0
 40
0
 40
1
 40
1
 40
1
 40
1
 10
276.797400
 20
243.700337
 30
0.0
 10
277.819542
 20
244.695577
 30
0.0
 10
278.345951
 20
245.959658
 30
0.0
 10
278.345951
 20
247.407212
 30
0.0
  0
LWPOLYLINE
  5
33d
100
AcDbEntity
  8
Ebene_1
 62
7
100
AcDbPolyline
 90
2
 70
0
 10
253.820719
 20
242.196572
 30
0.0
 10
273.135314
 20
242.196572
 30
0.0
  0
LWPOLYLINE
  5
33e
100
AcDbEntity
  8
Ebene_1
 62
7
100
AcDbPolyline
 90
3
 70
0
 10
278.345951
 20
247.407212
 30
0.0
 10
278.345951
 20
247.787890
 30
0.0
 10
248.611720
 20
247.787973
 30
0.0
  0
LWPOLYLINE
  5
33f
100
AcDbEntity
  8
Ebene_1
 62
7
100
AcDbPolyline
 90
25
 70
1
 10
284.659012
 20
247.787973
 30
0.0
 10
284.659012
 20
242.420584
 30
0.0
 10
289.599213
 20
237.480381
 30
0.0
 10
291.745476
 20
235.334114
 30
0.0
 10
284.659012
 20
228.249367
 30
0.0
 10
284.659012
 20
222.881979
 30
0.0
 10
285.041410
 20
222.881979
 30
0.0
 10
290.250326
 20
222.881979
 30
0.0
 10
290.250326
 20
225.519165
 30
0.0
 10
299.527847
 20
234.794964
 30
0.0
 10
308.803648
 20
225.519165
 30
0.0
 10
308.803648
 20
222.881979
 30
0.0
 10
309.184325
 20
222.881979
 30
0.0
 10
314.394962
 20
222.881979
 30
0.0
 10
314.394962
 20
228.249367
 30
0.0
 10
307.306769
 20
235.337560
 30
0.0
 10
309.306623
 20
237.368417
 30
0.0
 10
309.342782
 20
237.368417
 30
0.0
 10
314.394944
 20
242.420584
 30
0.0
 10
314.394944
 20
247.787973
 30
0.0
 10
308.803630
 20
247.787973
 30
0.0
 10
308.803630
 20
245.150787
 30
0.0
 10
299.527847
 20
235.874987
 30
0.0
 10
290.250326
 20
245.150787
 30
0.0
 10
290.250326
 20
247.787973
 30
0.0
  0
LWPOLYLINE
  5
340
100
AcDbEntity
  8
Ebene_1
 62
7
100
AcDbPolyline
 90
14
 70
1
 10
320.708024
 20
247.787973
 30
0.0
 10
320.708024
 20
242.420584
 30
0.0
 10
332.779482
 20
230.347403
 30
0.0
 10
332.779482
 20
222.881979
 30
0.0
 10
333.160159
 20
222.881979
 30
0.0
 10
338.370796
 20
222.881979
 30
0.0
 10
338.370796
 20
230.347403
 30
0.0
 10
350.442254
 20
242.420584
 30
0.0
 10
350.442254
 20
247.787973
 30
0.0
 10
344.850939
 20
247.787973
 30
0.0
 10
344.850939
 20
245.150787
 30
0.0
 10
335.575139
 20
235.874987
 30
0.0
 10
326.299338
 20
245.150787
 30
0.0
 10
326.299338
 20
247.787973
 30
0.0
  0
SPLINE
  5
341
100
AcDbEntity
  8
Ebene_1
 62
7
100
AcDbSpline
 70
8
 71
3
 72
8
 73
4
 74
0
 40
0
 40
0
 40
0
 40
0
 40
1
 40
1
 40
1
 40
1
 10
226.467943
 20
75.793148
 30
0.0
 10
226.467943
 20
75.428927
 30
0.0
 10
226.355656
 20
75.162723
 30
0.0
 10
226.102171
 20
74.907297
 30
0.0
  0
SPLINE
  5
342
100
AcDbEntity
  8
Ebene_1
 62
7
100
AcDbSpline
 70
8
 71
3
 72
8
 73
4
 74
0
 40
0
 40
0
 40
0
 40
0
 40
1
 40
1
 40
1
 40
1
 10
226.102171
 20
74.907297
 30
0.0
 10
225.845927
 20
74.666385
 30
0.0
 10
225.582086
 20
74.560575
 30
0.0
 10
225.233462
 20
74.560575
 30
0.0
  0
LWPOLYLINE
  5
343
100
AcDbEntity
  8
Ebene_1
 62
7
100
AcDbPolyline
 90
4
 70
0
 10
209.916760
 20
81.180668
 30
0.0
 10
209.916760
 20
77.025722
 30
0.0
 10
226.467943
 20
77.025722
 30
0.0
 10
226.467943
 20
75.793148
 30
0.0
  0
SPLINE
  5
344
100
AcDbEntity
  8
Ebene_1
 62
7
100
AcDbSpline
 70
8
 71
3
 72
8
 73
4
 74
0
 40
0
 40
0
 40
0
 40
0
 40
1
 40
1
 40
1
 40
1
 10
226.888962
 20
70.405629
 30
0.0
 10
227.885451
 20
70.405629
 30
0.0
 10
228.786333
 20
70.777049
 30
0.0
 10
229.510328
 20
71.481994
 30
0.0
  0
SPLINE
  5
345
100
AcDbEntity
  8
Ebene_1
 62
7
100
AcDbSpline
 70
8
 71
3
 72
8
 73
4
 74
0
 40
0
 40
0
 40
0
 40
0
 40
1
 40
1
 40
1
 40
1
 10
229.510328
 20
71.481994
 30
0.0
 10
230.238907
 20
72.191396
 30
0.0
 10
230.620980
 20
73.107787
 30
0.0
 10
230.620980
 20
74.137655
 30
0.0
  0
LWPOLYLINE
  5
346
100
AcDbEntity
  8
Ebene_1
 62
7
100
AcDbPolyline
 90
7
 70
0
 10
225.233462
 20
74.560575
 30
0.0
 10
209.916760
 20
74.560575
 30
0.0
 10
209.916760
 20
63.787448
 30
0.0
 10
210.339684
 20
63.787448
 30
0.0
 10
214.071702
 20
63.787448
 30
0.0
 10
214.071702
 20
70.405629
 30
0.0
 10
226.888962
 20
70.405629
 30
0.0
  0
LWPOLYLINE
  5
347
100
AcDbEntity
  8
Ebene_1
 62
7
100
AcDbPolyline
 90
3
 70
0
 10
230.620980
 20
74.137655
 30
0.0
 10
230.620980
 20
81.180668
 30
0.0
 10
209.916760
 20
81.180668
 30
0.0
  0
LWPOLYLINE
  5
348
100
AcDbEntity
  8
Ebene_1
 62
7
100
AcDbPolyline
 90
9
 70
1
 10
233.086130
 20
74.560575
 30
0.0
 10
233.086130
 20
63.787448
 30
0.0
 10
233.509054
 20
63.787448
 30
0.0
 10
237.241071
 20
63.787448
 30
0.0
 10
237.241071
 20
70.405629
 30
0.0
 10
249.637313
 20
70.405629
 30
0.0
 10
249.637313
 20
63.787448
 30
0.0
 10
253.790350
 20
63.787448
 30
0.0
 10
253.790350
 20
74.560575
 30
0.0
  0
SPLINE
  5
349
100
AcDbEntity
  8
Ebene_1
 62
7
100
AcDbSpline
 70
8
 71
3
 72
8
 73
4
 74
0
 40
0
 40
0
 40
0
 40
0
 40
1
 40
1
 40
1
 40
1
 10
233.086130
 20
80.757738
 30
0.0
 10
233.086130
 20
79.745905
 30
0.0
 10
233.456258
 20
78.835025
 30
0.0
 10
234.162490
 20
78.109704
 30
0.0
  0
LWPOLYLINE
  5
34a
100
AcDbEntity
  8
Ebene_1
 62
7
100
AcDbPolyline
 90
2
 70
0
 10
233.086130
 20
81.180668
 30
0.0
 10
233.086130
 20
80.757738
 30
0.0
  0
SPLINE
  5
34b
100
AcDbEntity
  8
Ebene_1
 62
7
100
AcDbSpline
 70
8
 71
3
 72
8
 73
4
 74
0
 40
0
 40
0
 40
0
 40
0
 40
1
 40
1
 40
1
 40
1
 10
234.168245
 20
78.105803
 30
0.0
 10
234.878651
 20
77.395396
 30
0.0
 10
235.790926
 20
77.025624
 30
0.0
 10
236.818187
 20
77.025624
 30
0.0
  0
LWPOLYLINE
  5
34c
100
AcDbEntity
  8
Ebene_1
 62
7
100
AcDbPolyline
 90
3
 70
0
 10
234.162490
 20
78.109704
 30
0.0
 10
234.166295
 20
78.107754
 30
0.0
 10
234.168245
 20
78.105803
 30
0.0
  0
SPLINE
  5
34d
100
AcDbEntity
  8
Ebene_1
 62
7
100
AcDbSpline
 70
8
 71
3
 72
8
 73
4
 74
0
 40
0
 40
0
 40
0
 40
0
 40
1
 40
1
 40
1
 40
1
 10
250.058332
 20
77.025624
 30
0.0
 10
251.054821
 20
77.025624
 30
0.0
 10
251.955704
 20
77.397044
 30
0.0
 10
252.679698
 20
78.101989
 30
0.0
  0
SPLINE
  5
34e
100
AcDbEntity
  8
Ebene_1
 62
7
100
AcDbSpline
 70
8
 71
3
 72
8
 73
4
 74
0
 40
0
 40
0
 40
0
 40
0
 40
1
 40
1
 40
1
 40
1
 10
252.679698
 20
78.101989
 30
0.0
 10
253.408277
 20
78.811392
 30
0.0
 10
253.790350
 20
79.727782
 30
0.0
 10
253.790350
 20
80.757640
 30
0.0
  0
LWPOLYLINE
  5
34f
100
AcDbEntity
  8
Ebene_1
 62
7
100
AcDbPolyline
 90
2
 70
0
 10
236.818187
 20
77.025624
 30
0.0
 10
250.058332
 20
77.025624
 30
0.0
  0
LWPOLYLINE
  5
350
100
AcDbEntity
  8
Ebene_1
 62
7
100
AcDbPolyline
 90
3
 70
0
 10
253.790350
 20
80.757640
 30
0.0
 10
253.790350
 20
81.180570
 30
0.0
 10
233.086130
 20
81.180668
 30
0.0
  0
SPLINE
  5
351
100
AcDbEntity
  8
Ebene_1
 62
7
100
AcDbSpline
 70
8
 71
3
 72
8
 73
4
 74
0
 40
0
 40
0
 40
0
 40
0
 40
1
 40
1
 40
1
 40
1
 10
256.255501
 20
80.757738
 30
0.0
 10
256.255501
 20
79.745905
 30
0.0
 10
256.625629
 20
78.835025
 30
0.0
 10
257.331860
 20
78.109704
 30
0.0
  0
LWPOLYLINE
  5
352
100
AcDbEntity
  8
Ebene_1
 62
7
100
AcDbPolyline
 90
2
 70
0
 10
256.255501
 20
81.180668
 30
0.0
 10
256.255501
 20
80.757738
 30
0.0
  0
SPLINE
  5
353
100
AcDbEntity
  8
Ebene_1
 62
7
100
AcDbSpline
 70
8
 71
3
 72
8
 73
4
 74
0
 40
0
 40
0
 40
0
 40
0
 40
1
 40
1
 40
1
 40
1
 10
257.337615
 20
78.105803
 30
0.0
 10
258.048020
 20
77.395396
 30
0.0
 10
258.960295
 20
77.025624
 30
0.0
 10
259.987557
 20
77.025624
 30
0.0
  0
LWPOLYLINE
  5
354
100
AcDbEntity
  8
Ebene_1
 62
7
100
AcDbPolyline
 90
3
 70
0
 10
257.331860
 20
78.109704
 30
0.0
 10
257.335664
 20
78.107754
 30
0.0
 10
257.337615
 20
78.105803
 30
0.0
  0
SPLINE
  5
355
100
AcDbEntity
  8
Ebene_1
 62
7
100
AcDbSpline
 70
8
 71
3
 72
8
 73
4
 74
0
 40
0
 40
0
 40
0
 40
0
 40
1
 40
1
 40
1
 40
1
 10
272.806727
 20
75.793051
 30
0.0
 10
272.806727
 20
75.428830
 30
0.0
 10
272.694439
 20
75.162626
 30
0.0
 10
272.440955
 20
74.907200
 30
0.0
  0
SPLINE
  5
356
100
AcDbEntity
  8
Ebene_1
 62
7
100
AcDbSpline
 70
8
 71
3
 72
8
 73
4
 74
0
 40
0
 40
0
 40
0
 40
0
 40
1
 40
1
 40
1
 40
1
 10
272.440955
 20
74.907200
 30
0.0
 10
272.184709
 20
74.666288
 30
0.0
 10
271.920866
 20
74.560477
 30
0.0
 10
271.572242
 20
74.560477
 30
0.0
  0
LWPOLYLINE
  5
357
100
AcDbEntity
  8
Ebene_1
 62
7
100
AcDbPolyline
 90
3
 70
0
 10
259.987557
 20
77.025624
 30
0.0
 10
272.806727
 20
77.025624
 30
0.0
 10
272.806727
 20
75.793051
 30
0.0
  0
SPLINE
  5
358
100
AcDbEntity
  8
Ebene_1
 62
7
100
AcDbSpline
 70
8
 71
3
 72
8
 73
4
 74
0
 40
0
 40
0
 40
0
 40
0
 40
1
 40
1
 40
1
 40
1
 10
273.227706
 20
70.405532
 30
0.0
 10
274.224186
 20
70.405532
 30
0.0
 10
275.125077
 20
70.776951
 30
0.0
 10
275.849072
 20
71.481896
 30
0.0
  0
SPLINE
  5
359
100
AcDbEntity
  8
Ebene_1
 62
7
100
AcDbSpline
 70
8
 71
3
 72
8
 73
4
 74
0
 40
0
 40
0
 40
0
 40
0
 40
1
 40
1
 40
1
 40
1
 10
275.849072
 20
71.481896
 30
0.0
 10
276.577651
 20
72.191299
 30
0.0
 10
276.959721
 20
73.107689
 30
0.0
 10
276.959721
 20
74.137557
 30
0.0
  0
LWPOLYLINE
  5
35a
100
AcDbEntity
  8
Ebene_1
 62
7
100
AcDbPolyline
 90
11
 70
0
 10
271.572242
 20
74.560477
 30
0.0
 10
256.255501
 20
74.560477
 30
0.0
 10
256.255501
 20
63.787351
 30
0.0
 10
256.678424
 20
63.787351
 30
0.0
 10
260.410441
 20
63.787351
 30
0.0
 10
260.410441
 20
70.405532
 30
0.0
 10
264.778750
 20
70.405532
 30
0.0
 10
271.398842
 20
63.787351
 30
0.0
 10
277.556008
 20
63.787351
 30
0.0
 10
270.935912
 20
70.405532
 30
0.0
 10
273.227706
 20
70.405532
 30
0.0
  0
LWPOLYLINE
  5
35b
100
AcDbEntity
  8
Ebene_1
 62
7
100
AcDbPolyline
 90
3
 70
0
 10
276.959721
 20
74.137557
 30
0.0
 10
276.959721
 20
81.180570
 30
0.0
 10
256.255501
 20
81.180668
 30
0.0
  0
LWPOLYLINE
  5
35c
100
AcDbEntity
  8
Ebene_1
 62
7
100
AcDbPolyline
 90
9
 70
1
 10
294.568210
 20
81.180668
 30
0.0
 10
285.871605
 20
72.484053
 30
0.0
 10
294.568210
 20
63.787448
 30
0.0
 10
294.741576
 20
63.787448
 30
0.0
 10
300.725372
 20
63.787448
 30
0.0
 10
292.026855
 20
72.485965
 30
0.0
 10
293.238477
 20
73.716636
 30
0.0
 10
293.261302
 20
73.716636
 30
0.0
 10
300.725333
 20
81.180668
 30
0.0
  0
LWPOLYLINE
  5
35d
100
AcDbEntity
  8
Ebene_1
 62
7
100
AcDbPolyline
 90
5
 70
1
 10
279.424869
 20
81.180668
 30
0.0
 10
279.424869
 20
63.787448
 30
0.0
 10
279.847799
 20
63.787448
 30
0.0
 10
283.579814
 20
63.787448
 30
0.0
 10
283.579814
 20
81.180668
 30
0.0
  0
LWPOLYLINE
  5
35e
100
AcDbEntity
  8
Ebene_1
 62
7
100
AcDbPolyline
 90
5
 70
1
 10
302.594242
 20
81.180668
 30
0.0
 10
302.594242
 20
63.787448
 30
0.0
 10
303.017163
 20
63.787448
 30
0.0
 10
306.749178
 20
63.787448
 30
0.0
 10
306.749178
 20
81.180668
 30
0.0
  0
LWPOLYLINE
  5
35f
100
AcDbEntity
  8
Ebene_1
 62
7
100
AcDbPolyline
 90
12
 70
1
 10
308.618049
 20
81.180668
 30
0.0
 10
312.525333
 20
77.273384
 30
0.0
 10
312.525333
 20
63.787448
 30
0.0
 10
312.946351
 20
63.787448
 30
0.0
 10
316.678366
 20
63.787448
 30
0.0
 10
316.678366
 20
73.120350
 30
0.0
 10
326.011268
 20
63.787448
 30
0.0
 10
329.918552
 20
63.787448
 30
0.0
 10
329.918552
 20
81.180668
 30
0.0
 10
325.763606
 20
81.180668
 30
0.0
 10
325.763606
 20
70.192262
 30
0.0
 10
314.777113
 20
81.180668
 30
0.0
  0
SPLINE
  5
360
100
AcDbEntity
  8
Ebene_1
 62
7
100
AcDbSpline
 70
8
 71
3
 72
8
 73
4
 74
0
 40
0
 40
0
 40
0
 40
0
 40
1
 40
1
 40
1
 40
1
 10
332.383699
 20
67.517562
 30
0.0
 10
332.383699
 20
66.505719
 30
0.0
 10
332.753831
 20
65.596742
 30
0.0
 10
333.460064
 20
64.871431
 30
0.0
  0
LWPOLYLINE
  5
361
100
AcDbEntity
  8
Ebene_1
 62
7
100
AcDbPolyline
 90
2
 70
0
 10
332.383699
 20
74.560575
 30
0.0
 10
332.383699
 20
67.517562
 30
0.0
  0
SPLINE
  5
362
100
AcDbEntity
  8
Ebene_1
 62
7
100
AcDbSpline
 70
8
 71
3
 72
8
 73
4
 74
0
 40
0
 40
0
 40
0
 40
0
 40
1
 40
1
 40
1
 40
1
 10
333.463965
 20
64.867529
 30
0.0
 10
334.174363
 20
64.157122
 30
0.0
 10
335.088549
 20
63.787360
 30
0.0
 10
336.115812
 20
63.787360
 30
0.0
  0
LWPOLYLINE
  5
363
100
AcDbEntity
  8
Ebene_1
 62
7
100
AcDbPolyline
 90
3
 70
0
 10
333.460064
 20
64.871431
 30
0.0
 10
333.462015
 20
64.869480
 30
0.0
 10
333.463965
 20
64.867529
 30
0.0
  0
SPLINE
  5
364
100
AcDbEntity
  8
Ebene_1
 62
7
100
AcDbSpline
 70
8
 71
3
 72
8
 73
4
 74
0
 40
0
 40
0
 40
0
 40
0
 40
1
 40
1
 40
1
 40
1
 10
339.003880
 20
74.137567
 30
0.0
 10
339.003880
 20
73.125724
 30
0.0
 10
339.374012
 20
72.216747
 30
0.0
 10
340.080244
 20
71.491426
 30
0.0
  0
LWPOLYLINE
  5
365
100
AcDbEntity
  8
Ebene_1
 62
7
100
AcDbPolyline
 90
5
 70
0
 10
336.115812
 20
63.787360
 30
0.0
 10
353.088014
 20
63.787360
 30
0.0
 10
353.088014
 20
74.560487
 30
0.0
 10
339.003880
 20
74.560487
 30
0.0
 10
339.003880
 20
74.137567
 30
0.0
  0
SPLINE
  5
366
100
AcDbEntity
  8
Ebene_1
 62
7
100
AcDbSpline
 70
8
 71
3
 72
8
 73
4
 74
0
 40
0
 40
0
 40
0
 40
0
 40
1
 40
1
 40
1
 40
1
 10
340.084146
 20
71.485573
 30
0.0
 10
340.794543
 20
70.775166
 30
0.0
 10
341.708730
 20
70.405395
 30
0.0
 10
342.735983
 20
70.405395
 30
0.0
  0
LWPOLYLINE
  5
367
100
AcDbEntity
  8
Ebene_1
 62
7
100
AcDbPolyline
 90
3
 70
0
 10
340.080244
 20
71.491426
 30
0.0
 10
340.082195
 20
71.489475
 30
0.0
 10
340.084146
 20
71.485573
 30
0.0
  0
SPLINE
  5
368
100
AcDbEntity
  8
Ebene_1
 62
7
100
AcDbSpline
 70
8
 71
3
 72
8
 73
4
 74
0
 40
0
 40
0
 40
0
 40
0
 40
1
 40
1
 40
1
 40
1
 10
337.771394
 20
67.940248
 30
0.0
 10
337.403632
 20
67.940248
 30
0.0
 10
337.134512
 20
68.050653
 30
0.0
 10
336.881729
 20
68.286971
 30
0.0
  0
SPLINE
  5
369
100
AcDbEntity
  8
Ebene_1
 62
7
100
AcDbSpline
 70
8
 71
3
 72
8
 73
4
 74
0
 40
0
 40
0
 40
0
 40
0
 40
1
 40
1
 40
1
 40
1
 10
336.881729
 20
68.286971
 30
0.0
 10
336.647625
 20
68.538787
 30
0.0
 10
336.538820
 20
68.806708
 30
0.0
 10
336.538820
 20
69.172822
 30
0.0
  0
LWPOLYLINE
  5
36a
100
AcDbEntity
  8
Ebene_1
 62
7
100
AcDbPolyline
 90
4
 70
0
 10
342.735983
 20
70.405395
 30
0.0
 10
348.933156
 20
70.405395
 30
0.0
 10
348.933156
 20
67.940248
 30
0.0
 10
337.771394
 20
67.940248
 30
0.0
  0
LWPOLYLINE
  5
36b
100
AcDbEntity
  8
Ebene_1
 62
7
100
AcDbPolyline
 90
3
 70
0
 10
336.538820
 20
69.172822
 30
0.0
 10
336.538820
 20
74.560341
 30
0.0
 10
332.383699
 20
74.560575
 30
0.0
  0
SPLINE
  5
36c
100
AcDbEntity
  8
Ebene_1
 62
7
100
AcDbSpline
 70
8
 71
3
 72
8
 73
4
 74
0
 40
0
 40
0
 40
0
 40
0
 40
1
 40
1
 40
1
 40
1
 10
349.355900
 20
77.025722
 30
0.0
 10
350.352390
 20
77.025722
 30
0.0
 10
351.253272
 20
77.397142
 30
0.0
 10
351.977266
 20
78.102087
 30
0.0
  0
SPLINE
  5
36d
100
AcDbEntity
  8
Ebene_1
 62
7
100
AcDbSpline
 70
8
 71
3
 72
8
 73
4
 74
0
 40
0
 40
0
 40
0
 40
0
 40
1
 40
1
 40
1
 40
1
 10
351.977266
 20
78.102087
 30
0.0
 10
352.705855
 20
78.811489
 30
0.0
 10
353.087926
 20
79.727880
 30
0.0
 10
353.087926
 20
80.757738
 30
0.0
  0
LWPOLYLINE
  5
36e
100
AcDbEntity
  8
Ebene_1
 62
7
100
AcDbPolyline
 90
4
 70
0
 10
332.383699
 20
81.180668
 30
0.0
 10
332.383699
 20
77.025722
 30
0.0
 10
332.806629
 20
77.025722
 30
0.0
 10
349.355900
 20
77.025722
 30
0.0
  0
LWPOLYLINE
  5
36f
100
AcDbEntity
  8
Ebene_1
 62
7
100
AcDbPolyline
 90
3
 70
0
 10
353.087926
 20
80.757738
 30
0.0
 10
353.087926
 20
81.180668
 30
0.0
 10
332.383699
 20
81.180668
 30
0.0
  0
LWPOLYLINE
  5
370
100
AcDbEntity
  8
Ebene_1
 62
7
100
AcDbPolyline
 90
9
 70
1
 10
236.397129
 20
50.381524
 30
0.0
 10
236.397129
 20
39.608388
 30
0.0
 10
236.818147
 20
39.608388
 30
0.0
 10
257.099443
 20
39.608388
 30
0.0
 10
257.099443
 20
50.381524
 30
0.0
 10
252.946407
 20
50.381524
 30
0.0
 10
252.946407
 20
43.761431
 30
0.0
 10
240.550165
 20
43.761431
 30
0.0
 10
240.550165
 20
50.381524
 30
0.0
  0
SPLINE
  5
371
100
AcDbEntity
  8
Ebene_1
 62
7
100
AcDbSpline
 70
8
 71
3
 72
8
 73
4
 74
0
 40
0
 40
0
 40
0
 40
0
 40
1
 40
1
 40
1
 40
1
 10
236.397129
 20
56.578687
 30
0.0
 10
236.397129
 20
55.566854
 30
0.0
 10
236.767256
 20
54.657877
 30
0.0
 10
237.473489
 20
53.932556
 30
0.0
  0
LWPOLYLINE
  5
372
100
AcDbEntity
  8
Ebene_1
 62
7
100
AcDbPolyline
 90
2
 70
0
 10
236.397129
 20
57.001617
 30
0.0
 10
236.397129
 20
56.578687
 30
0.0
  0
SPLINE
  5
373
100
AcDbEntity
  8
Ebene_1
 62
7
100
AcDbSpline
 70
8
 71
3
 72
8
 73
4
 74
0
 40
0
 40
0
 40
0
 40
0
 40
1
 40
1
 40
1
 40
1
 10
237.477390
 20
53.928654
 30
0.0
 10
238.187797
 20
53.218247
 30
0.0
 10
239.101976
 20
52.848476
 30
0.0
 10
240.129237
 20
52.848476
 30
0.0
  0
LWPOLYLINE
  5
374
100
AcDbEntity
  8
Ebene_1
 62
7
100
AcDbPolyline
 90
3
 70
0
 10
237.473489
 20
53.932556
 30
0.0
 10
237.475440
 20
53.930605
 30
0.0
 10
237.477390
 20
53.928654
 30
0.0
  0
SPLINE
  5
375
100
AcDbEntity
  8
Ebene_1
 62
7
100
AcDbSpline
 70
8
 71
3
 72
8
 73
4
 74
0
 40
0
 40
0
 40
0
 40
0
 40
1
 40
1
 40
1
 40
1
 10
253.367517
 20
52.848476
 30
0.0
 10
254.364007
 20
52.848476
 30
0.0
 10
255.266794
 20
53.219895
 30
0.0
 10
255.990788
 20
53.924840
 30
0.0
  0
SPLINE
  5
376
100
AcDbEntity
  8
Ebene_1
 62
7
100
AcDbSpline
 70
8
 71
3
 72
8
 73
4
 74
0
 40
0
 40
0
 40
0
 40
0
 40
1
 40
1
 40
1
 40
1
 10
255.990788
 20
53.924840
 30
0.0
 10
256.719367
 20
54.634243
 30
0.0
 10
257.099535
 20
55.548731
 30
0.0
 10
257.099535
 20
56.578589
 30
0.0
  0
LWPOLYLINE
  5
377
100
AcDbEntity
  8
Ebene_1
 62
7
100
AcDbPolyline
 90
2
 70
0
 10
240.129237
 20
52.848476
 30
0.0
 10
253.367517
 20
52.848476
 30
0.0
  0
LWPOLYLINE
  5
378
100
AcDbEntity
  8
Ebene_1
 62
7
100
AcDbPolyline
 90
3
 70
0
 10
257.099535
 20
56.578589
 30
0.0
 10
257.099535
 20
57.001519
 30
0.0
 10
236.397129
 20
57.001617
 30
0.0
  0
LWPOLYLINE
  5
379
100
AcDbEntity
  8
Ebene_1
 62
7
100
AcDbPolyline
 90
12
 70
1
 10
258.970215
 20
57.001617
 30
0.0
 10
262.875592
 20
53.094333
 30
0.0
 10
262.875592
 20
39.608388
 30
0.0
 10
263.298517
 20
39.608388
 30
0.0
 10
267.030534
 20
39.608388
 30
0.0
 10
267.030534
 20
48.941289
 30
0.0
 10
276.363435
 20
39.608388
 30
0.0
 10
280.268817
 20
39.608388
 30
0.0
 10
280.268817
 20
57.001617
 30
0.0
 10
276.115773
 20
57.001617
 30
0.0
 10
276.115773
 20
46.013211
 30
0.0
 10
265.127377
 20
57.001617
 30
0.0
  0
SPLINE
  5
37a
100
AcDbEntity
  8
Ebene_1
 62
7
100
AcDbSpline
 70
8
 71
3
 72
8
 73
4
 74
0
 40
0
 40
0
 40
0
 40
0
 40
1
 40
1
 40
1
 40
1
 10
299.706165
 20
39.608388
 30
0.0
 10
300.702655
 20
39.608388
 30
0.0
 10
301.605439
 20
39.979817
 30
0.0
 10
302.329433
 20
40.684752
 30
0.0
  0
SPLINE
  5
37b
100
AcDbEntity
  8
Ebene_1
 62
7
100
AcDbSpline
 70
8
 71
3
 72
8
 73
4
 74
0
 40
0
 40
0
 40
0
 40
0
 40
1
 40
1
 40
1
 40
1
 10
302.329433
 20
40.684752
 30
0.0
 10
303.058022
 20
41.394165
 30
0.0
 10
303.438181
 20
42.310545
 30
0.0
 10
303.438181
 20
43.340413
 30
0.0
  0
LWPOLYLINE
  5
37c
100
AcDbEntity
  8
Ebene_1
 62
7
100
AcDbPolyline
 90
4
 70
0
 10
282.735866
 20
57.001617
 30
0.0
 10
282.735866
 20
39.608388
 30
0.0
 10
283.156884
 20
39.608388
 30
0.0
 10
299.706165
 20
39.608388
 30
0.0
  0
LWPOLYLINE
  5
37d
100
AcDbEntity
  8
Ebene_1
 62
7
100
AcDbPolyline
 90
5
 70
0
 10
303.438181
 20
43.340413
 30
0.0
 10
303.438181
 20
43.761431
 30
0.0
 10
286.888910
 20
43.761431
 30
0.0
 10
286.888910
 20
57.001617
 30
0.0
 10
282.735866
 20
57.001617
 30
0.0
  0
LWPOLYLINE
  5
37e
100
AcDbEntity
  8
Ebene_1
 62
7
100
AcDbPolyline
 90
14
 70
1
 10
305.905240
 20
57.001617
 30
0.0
 10
305.905240
 20
53.094333
 30
0.0
 10
314.178924
 20
44.820648
 30
0.0
 10
314.178924
 20
39.608388
 30
0.0
 10
314.601854
 20
39.608388
 30
0.0
 10
318.333870
 20
39.608388
 30
0.0
 10
318.333870
 20
44.820648
 30
0.0
 10
326.607555
 20
53.094333
 30
0.0
 10
326.607555
 20
57.001617
 30
0.0
 10
322.454521
 20
57.001617
 30
0.0
 10
322.454521
 20
55.098451
 30
0.0
 10
316.255446
 20
48.901289
 30
0.0
 10
310.058274
 20
55.098451
 30
0.0
 10
310.058274
 20
57.001617
 30
0.0
  0
SPLINE
  5
37f
100
AcDbEntity
  8
Ebene_1
 62
7
100
AcDbSpline
 70
8
 71
3
 72
8
 73
4
 74
0
 40
0
 40
0
 40
0
 40
0
 40
1
 40
1
 40
1
 40
1
 10
240.793152
 20
205.071994
 30
0.0
 10
240.793152
 20
204.158628
 30
0.0
 10
241.127155
 20
203.335861
 30
0.0
 10
241.764656
 20
202.681131
 30
0.0
  0
LWPOLYLINE
  5
380
100
AcDbEntity
  8
Ebene_1
 62
7
100
AcDbPolyline
 90
2
 70
0
 10
240.793152
 20
211.428109
 30
0.0
 10
240.793152
 20
205.071994
 30
0.0
  0
SPLINE
  5
381
100
AcDbEntity
  8
Ebene_1
 62
7
100
AcDbSpline
 70
8
 71
3
 72
8
 73
4
 74
0
 40
0
 40
0
 40
0
 40
0
 40
1
 40
1
 40
1
 40
1
 10
241.768256
 20
202.677531
 30
0.0
 10
242.409529
 20
202.036258
 30
0.0
 10
243.235284
 20
201.702582
 30
0.0
 10
244.162565
 20
201.702582
 30
0.0
  0
LWPOLYLINE
  5
382
100
AcDbEntity
  8
Ebene_1
 62
7
100
AcDbPolyline
 90
3
 70
0
 10
241.764656
 20
202.681131
 30
0.0
 10
241.766456
 20
202.679331
 30
0.0
 10
241.768256
 20
202.677531
 30
0.0
  0
SPLINE
  5
383
100
AcDbEntity
  8
Ebene_1
 62
7
100
AcDbSpline
 70
8
 71
3
 72
8
 73
4
 74
0
 40
0
 40
0
 40
0
 40
0
 40
1
 40
1
 40
1
 40
1
 10
256.111717
 20
201.702582
 30
0.0
 10
257.011231
 20
201.702582
 30
0.0
 10
257.824933
 20
202.037752
 30
0.0
 10
258.478465
 20
202.674085
 30
0.0
  0
SPLINE
  5
384
100
AcDbEntity
  8
Ebene_1
 62
7
100
AcDbSpline
 70
8
 71
3
 72
8
 73
4
 74
0
 40
0
 40
0
 40
0
 40
0
 40
1
 40
1
 40
1
 40
1
 10
258.478465
 20
202.674085
 30
0.0
 10
259.136142
 20
203.314456
 30
0.0
 10
259.479252
 20
204.142204
 30
0.0
 10
259.479252
 20
205.071839
 30
0.0
  0
LWPOLYLINE
  5
385
100
AcDbEntity
  8
Ebene_1
 62
7
100
AcDbPolyline
 90
2
 70
0
 10
244.162565
 20
201.702582
 30
0.0
 10
256.111717
 20
201.702582
 30
0.0
  0
SPLINE
  5
386
100
AcDbEntity
  8
Ebene_1
 62
7
100
AcDbSpline
 70
8
 71
3
 72
8
 73
4
 74
0
 40
0
 40
0
 40
0
 40
0
 40
1
 40
1
 40
1
 40
1
 10
245.655838
 20
205.452673
 30
0.0
 10
245.324712
 20
205.452673
 30
0.0
 10
245.082511
 20
205.552133
 30
0.0
 10
244.854865
 20
205.764450
 30
0.0
  0
SPLINE
  5
387
100
AcDbEntity
  8
Ebene_1
 62
7
100
AcDbSpline
 70
8
 71
3
 72
8
 73
4
 74
0
 40
0
 40
0
 40
0
 40
0
 40
1
 40
1
 40
1
 40
1
 10
244.854865
 20
205.764450
 30
0.0
 10
244.642547
 20
205.992096
 30
0.0
 10
244.543087
 20
206.234298
 30
0.0
 10
244.543087
 20
206.565424
 30
0.0
  0
LWPOLYLINE
  5
388
100
AcDbEntity
  8
Ebene_1
 62
7
100
AcDbPolyline
 90
3
 70
0
 10
259.479252
 20
205.071839
 30
0.0
 10
259.479252
 20
205.452673
 30
0.0
 10
245.655838
 20
205.452673
 30
0.0
  0
LWPOLYLINE
  5
389
100
AcDbEntity
  8
Ebene_1
 62
7
100
AcDbPolyline
 90
3
 70
0
 10
244.543087
 20
206.565424
 30
0.0
 10
244.543087
 20
211.428109
 30
0.0
 10
240.793152
 20
211.428109
 30
0.0
  0
SPLINE
  5
38a
100
AcDbEntity
  8
Ebene_1
 62
7
100
AcDbSpline
 70
8
 71
3
 72
8
 73
4
 74
0
 40
0
 40
0
 40
0
 40
0
 40
1
 40
1
 40
1
 40
1
 10
256.111562
 20
213.651889
 30
0.0
 10
257.011076
 20
213.651889
 30
0.0
 10
257.824778
 20
213.987059
 30
0.0
 10
258.478310
 20
214.623392
 30
0.0
  0
SPLINE
  5
38b
100
AcDbEntity
  8
Ebene_1
 62
7
100
AcDbSpline
 70
8
 71
3
 72
8
 73
4
 74
0
 40
0
 40
0
 40
0
 40
0
 40
1
 40
1
 40
1
 40
1
 10
258.478310
 20
214.623392
 30
0.0
 10
259.135987
 20
215.263763
 30
0.0
 10
259.479097
 20
216.091512
 30
0.0
 10
259.479097
 20
217.021146
 30
0.0
  0
LWPOLYLINE
  5
38c
100
AcDbEntity
  8
Ebene_1
 62
7
100
AcDbPolyline
 90
4
 70
0
 10
240.793152
 20
217.401825
 30
0.0
 10
240.793152
 20
213.651889
 30
0.0
 10
241.175552
 20
213.651889
 30
0.0
 10
256.111562
 20
213.651889
 30
0.0
  0
LWPOLYLINE
  5
38d
100
AcDbEntity
  8
Ebene_1
 62
7
100
AcDbPolyline
 90
3
 70
0
 10
259.479097
 20
217.021146
 30
0.0
 10
259.479097
 20
217.401825
 30
0.0
 10
240.793152
 20
217.401825
 30
0.0
  0
LWPOLYLINE
  5
38e
100
AcDbEntity
  8
Ebene_1
 62
7
100
AcDbPolyline
 90
9
 70
1
 10
261.704598
 20
211.428109
 30
0.0
 10
261.704598
 20
201.702737
 30
0.0
 10
262.085276
 20
201.702737
 30
0.0
 10
265.454535
 20
201.702737
 30
0.0
 10
265.454535
 20
207.678174
 30
0.0
 10
276.640609
 20
207.678174
 30
0.0
 10
276.640609
 20
201.702737
 30
0.0
 10
280.390542
 20
201.702737
 30
0.0
 10
280.390542
 20
211.428109
 30
0.0
  0
SPLINE
  5
38f
100
AcDbEntity
  8
Ebene_1
 62
7
100
AcDbSpline
 70
8
 71
3
 72
8
 73
4
 74
0
 40
0
 40
0
 40
0
 40
0
 40
1
 40
1
 40
1
 40
1
 10
261.704598
 20
217.021146
 30
0.0
 10
261.704598
 20
216.107781
 30
0.0
 10
262.038602
 20
215.285013
 30
0.0
 10
262.676102
 20
214.630283
 30
0.0
  0
LWPOLYLINE
  5
390
100
AcDbEntity
  8
Ebene_1
 62
7
100
AcDbPolyline
 90
2
 70
0
 10
261.704598
 20
217.401825
 30
0.0
 10
261.704598
 20
217.021146
 30
0.0
  0
SPLINE
  5
391
100
AcDbEntity
  8
Ebene_1
 62
7
100
AcDbSpline
 70
8
 71
3
 72
8
 73
4
 74
0
 40
0
 40
0
 40
0
 40
0
 40
1
 40
1
 40
1
 40
1
 10
262.679702
 20
214.626683
 30
0.0
 10
263.320975
 20
213.985409
 30
0.0
 10
264.145007
 20
213.651734
 30
0.0
 10
265.072289
 20
213.651734
 30
0.0
  0
LWPOLYLINE
  5
392
100
AcDbEntity
  8
Ebene_1
 62
7
100
AcDbPolyline
 90
3
 70
0
 10
262.676102
 20
214.630283
 30
0.0
 10
262.677902
 20
214.628483
 30
0.0
 10
262.679702
 20
214.626683
 30
0.0
  0
SPLINE
  5
393
100
AcDbEntity
  8
Ebene_1
 62
7
100
AcDbSpline
 70
8
 71
3
 72
8
 73
4
 74
0
 40
0
 40
0
 40
0
 40
0
 40
1
 40
1
 40
1
 40
1
 10
277.021437
 20
213.651734
 30
0.0
 10
277.920947
 20
213.651734
 30
0.0
 10
278.734653
 20
213.986904
 30
0.0
 10
279.388183
 20
214.623237
 30
0.0
  0
SPLINE
  5
394
100
AcDbEntity
  8
Ebene_1
 62
7
100
AcDbSpline
 70
8
 71
3
 72
8
 73
4
 74
0
 40
0
 40
0
 40
0
 40
0
 40
1
 40
1
 40
1
 40
1
 10
279.388183
 20
214.623237
 30
0.0
 10
280.045866
 20
215.263607
 30
0.0
 10
280.390693
 20
216.091356
 30
0.0
 10
280.390693
 20
217.020991
 30
0.0
  0
LWPOLYLINE
  5
395
100
AcDbEntity
  8
Ebene_1
 62
7
100
AcDbPolyline
 90
2
 70
0
 10
265.072289
 20
213.651734
 30
0.0
 10
277.021437
 20
213.651734
 30
0.0
  0
LWPOLYLINE
  5
396
100
AcDbEntity
  8
Ebene_1
 62
7
100
AcDbPolyline
 90
3
 70
0
 10
280.390693
 20
217.020991
 30
0.0
 10
280.390693
 20
217.401753
 30
0.0
 10
261.704598
 20
217.401825
 30
0.0
  0
SPLINE
  5
397
100
AcDbEntity
  8
Ebene_1
 62
7
100
AcDbSpline
 70
8
 71
3
 72
8
 73
4
 74
0
 40
0
 40
0
 40
0
 40
0
 40
1
 40
1
 40
1
 40
1
 10
282.614326
 20
217.021146
 30
0.0
 10
282.614326
 20
216.107781
 30
0.0
 10
282.948322
 20
215.285013
 30
0.0
 10
283.585830
 20
214.630283
 30
0.0
  0
LWPOLYLINE
  5
398
100
AcDbEntity
  8
Ebene_1
 62
7
100
AcDbPolyline
 90
2
 70
0
 10
282.614326
 20
217.401825
 30
0.0
 10
282.614326
 20
217.021146
 30
0.0
  0
SPLINE
  5
399
100
AcDbEntity
  8
Ebene_1
 62
7
100
AcDbSpline
 70
8
 71
3
 72
8
 73
4
 74
0
 40
0
 40
0
 40
0
 40
0
 40
1
 40
1
 40
1
 40
1
 10
283.589830
 20
214.626683
 30
0.0
 10
284.231110
 20
213.985409
 30
0.0
 10
285.056860
 20
213.651734
 30
0.0
 10
285.984140
 20
213.651734
 30
0.0
  0
LWPOLYLINE
  5
39a
100
AcDbEntity
  8
Ebene_1
 62
7
100
AcDbPolyline
 90
3
 70
0
 10
283.585830
 20
214.630283
 30
0.0
 10
283.587830
 20
214.628483
 30
0.0
 10
283.589830
 20
214.626683
 30
0.0
  0
SPLINE
  5
39b
100
AcDbEntity
  8
Ebene_1
 62
7
100
AcDbSpline
 70
8
 71
3
 72
8
 73
4
 74
0
 40
0
 40
0
 40
0
 40
0
 40
1
 40
1
 40
1
 40
1
 10
297.550890
 20
212.538983
 30
0.0
 10
297.550890
 20
212.210444
 30
0.0
 10
297.450530
 20
211.971862
 30
0.0
 10
297.221890
 20
211.741454
 30
0.0
  0
SPLINE
  5
39c
100
AcDbEntity
  8
Ebene_1
 62
7
100
AcDbSpline
 70
8
 71
3
 72
8
 73
4
 74
0
 40
0
 40
0
 40
0
 40
0
 40
1
 40
1
 40
1
 40
1
 10
297.221890
 20
211.741454
 30
0.0
 10
296.990750
 20
211.524149
 30
0.0
 10
296.754340
 20
211.427954
 30
0.0
 10
296.439870
 20
211.427954
 30
0.0
  0
LWPOLYLINE
  5
39d
100
AcDbEntity
  8
Ebene_1
 62
7
100
AcDbPolyline
 90
3
 70
0
 10
285.984140
 20
213.651734
 30
0.0
 10
297.550890
 20
213.651734
 30
0.0
 10
297.550890
 20
212.538983
 30
0.0
  0
SPLINE
  5
39e
100
AcDbEntity
  8
Ebene_1
 62
7
100
AcDbSpline
 70
8
 71
3
 72
8
 73
4
 74
0
 40
0
 40
0
 40
0
 40
0
 40
1
 40
1
 40
1
 40
1
 10
297.932810
 20
207.678019
 30
0.0
 10
298.832330
 20
207.678019
 30
0.0
 10
299.646030
 20
208.013188
 30
0.0
 10
300.299560
 20
208.649523
 30
0.0
  0
SPLINE
  5
39f
100
AcDbEntity
  8
Ebene_1
 62
7
100
AcDbSpline
 70
8
 71
3
 72
8
 73
4
 74
0
 40
0
 40
0
 40
0
 40
0
 40
1
 40
1
 40
1
 40
1
 10
300.299560
 20
208.649523
 30
0.0
 10
300.957160
 20
209.289975
 30
0.0
 10
301.301990
 20
210.116002
 30
0.0
 10
301.301990
 20
211.045638
 30
0.0
  0
LWPOLYLINE
  5
3a0
100
AcDbEntity
  8
Ebene_1
 62
7
100
AcDbPolyline
 90
11
 70
0
 10
296.439870
 20
211.427954
 30
0.0
 10
282.614405
 20
211.427954
 30
0.0
 10
282.614405
 20
201.702582
 30
0.0
 10
282.996802
 20
201.702582
 30
0.0
 10
286.364340
 20
201.702582
 30
0.0
 10
286.364340
 20
207.678019
 30
0.0
 10
290.307190
 20
207.678019
 30
0.0
 10
296.280910
 20
201.702582
 30
0.0
 10
301.841220
 20
201.702582
 30
0.0
 10
295.865790
 20
207.678019
 30
0.0
 10
297.932810
 20
207.678019
 30
0.0
  0
LWPOLYLINE
  5
3a1
100
AcDbEntity
  8
Ebene_1
 62
7
100
AcDbPolyline
 90
3
 70
0
 10
301.301990
 20
211.045638
 30
0.0
 10
301.301990
 20
217.401753
 30
0.0
 10
282.614326
 20
217.401825
 30
0.0
  0
SPLINE
  5
3a2
100
AcDbEntity
  8
Ebene_1
 62
7
100
AcDbSpline
 70
8
 71
3
 72
8
 73
4
 74
0
 40
0
 40
0
 40
0
 40
0
 40
1
 40
1
 40
1
 40
1
 10
306.895030
 20
205.452673
 30
0.0
 10
305.979260
 20
205.452673
 30
0.0
 10
305.154640
 20
205.109254
 30
0.0
 10
304.500720
 20
204.455330
 30
0.0
  0
SPLINE
  5
3a3
100
AcDbEntity
  8
Ebene_1
 62
7
100
AcDbSpline
 70
8
 71
3
 72
8
 73
4
 74
0
 40
0
 40
0
 40
0
 40
0
 40
1
 40
1
 40
1
 40
1
 10
304.500720
 20
204.455330
 30
0.0
 10
303.860660
 20
203.815272
 30
0.0
 10
303.525770
 20
202.998503
 30
0.0
 10
303.525770
 20
202.085137
 30
0.0
  0
LWPOLYLINE
  5
3a4
100
AcDbEntity
  8
Ebene_1
 62
7
100
AcDbPolyline
 90
5
 70
0
 10
303.525770
 20
217.401825
 30
0.0
 10
303.525770
 20
207.678174
 30
0.0
 10
318.461780
 20
207.678174
 30
0.0
 10
318.461780
 20
205.452673
 30
0.0
 10
306.895030
 20
205.452673
 30
0.0
  0
SPLINE
  5
3a5
100
AcDbEntity
  8
Ebene_1
 62
7
100
AcDbSpline
 70
8
 71
3
 72
8
 73
4
 74
0
 40
0
 40
0
 40
0
 40
0
 40
1
 40
1
 40
1
 40
1
 10
318.842460
 20
213.651889
 30
0.0
 10
319.741970
 20
213.651889
 30
0.0
 10
320.555670
 20
213.987059
 30
0.0
 10
321.209210
 20
214.623392
 30
0.0
  0
SPLINE
  5
3a6
100
AcDbEntity
  8
Ebene_1
 62
7
100
AcDbSpline
 70
8
 71
3
 72
8
 73
4
 74
0
 40
0
 40
0
 40
0
 40
0
 40
1
 40
1
 40
1
 40
1
 10
321.209210
 20
214.623392
 30
0.0
 10
321.866880
 20
215.263762
 30
0.0
 10
322.211710
 20
216.091511
 30
0.0
 10
322.211710
 20
217.021146
 30
0.0
  0
LWPOLYLINE
  5
3a7
100
AcDbEntity
  8
Ebene_1
 62
7
100
AcDbPolyline
 90
8
 70
0
 10
303.525770
 20
202.085137
 30
0.0
 10
303.525770
 20
201.702737
 30
0.0
 10
303.906440
 20
201.702737
 30
0.0
 10
322.211710
 20
201.702737
 30
0.0
 10
322.211710
 20
211.428109
 30
0.0
 10
307.275710
 20
211.428109
 30
0.0
 10
307.275710
 20
213.651889
 30
0.0
 10
318.842460
 20
213.651889
 30
0.0
  0
LWPOLYLINE
  5
3a8
100
AcDbEntity
  8
Ebene_1
 62
7
100
AcDbPolyline
 90
3
 70
0
 10
322.211710
 20
217.021146
 30
0.0
 10
322.211710
 20
217.401825
 30
0.0
 10
303.525770
 20
217.401825
 30
0.0
  0
ENDSEC
  0
SECTION
  2
OBJECTS
  0
DICTIONARY
  5
C
330
0
100
AcDbDictionary
  3
ACAD_GROUP
350
D
  3
ACAD_MLINESTYLE
350
17
  0
DICTIONARY
  5
D
330
C
100
AcDbDictionary
  0
DICTIONARY
  5
1A
330
C
100
AcDbDictionary
  0
DICTIONARY
  5
17
330
C
100
AcDbDictionary
  3
STANDARD
350
18
  0
DICTIONARY
  5
19
330
C
100
AcDbDictionary
  0
ENDSEC
  0
EOF
