  0
SECTION
  2
HEADER
  9
$ACADVER
  1
AC1014
  9
$HANDSEED
  5
FFFF
  9
$MEASUREMENT
 70
     1
  0
ENDSEC
  0
SECTION
  2
TABLES
  0
TABLE
  2
VPORT
  5
8
330
0
100
AcDbSymbolTable
 70
     4
  0
VPORT
  5
2E
330
8
100
AcDbSymbolTableRecord
100
AcDbViewportTableRecord
  2
*ACTIVE
 70
     0
 10
0.0
 20
0.0
 11
1.0
 21
1.0
 12
210.0
 22
148.5
 13
0.0
 23
0.0
 14
10.0
 24
10.0
 15
10.0
 25
10.0
 16
0.0
 26
0.0
 36
1.0
 17
0.0
 27
0.0
 37
0.0
 40
341.0
 41
1.24
 42
50.0
 43
0.0
 44
0.0
 50
0.0
 51
0.0
 71
     0
 72
   100
 73
     1
 74
     3
 75
     0
 76
     0
 77
     0
 78
     0
  0
ENDTAB
  0
TABLE
  2
LTYPE
  5
5
330
0
100
AcDbSymbolTable
 70
     1
  0
LTYPE
  5
14
330
5
100
AcDbSymbolTableRecord
100
AcDbLinetypeTableRecord
  2
BYBLOCK
 70
     0
  3

 72
    65
 73
     0
 40
0.0
  0
LTYPE
  5
15
330
5
100
AcDbSymbolTableRecord
100
AcDbLinetypeTableRecord
  2
BYLAYER
 70
     0
  3

 72
    65
 73
     0
 40
0.0
  0
LTYPE
  5
16
330
5
100
AcDbSymbolTableRecord
100
AcDbLinetypeTableRecord
  2
CONTINUOUS
 70
     0
  3
Solid line
 72
    65
 73
     0
 40
0.0
  0
ENDTAB
  0
TABLE
  2
LAYER
  5
2
100
AcDbSymbolTable
 70
2
  0
LAYER
  5
50
100
AcDbSymbolTableRecord
100
AcDbLayerTableRecord
  2
0
 70
0
  6
CONTINUOUS
  0
LAYER
  5
51
100
AcDbSymbolTableRecord
100
AcDbLayerTableRecord
  2
Ebene_1
 70
0
  6
CONTINUOUS
  0
ENDTAB
  0
TABLE
  2
STYLE
  5
3
330
0
100
AcDbSymbolTable
 70
     1
  0
STYLE
  5
11
330
3
100
AcDbSymbolTableRecord
100
AcDbTextStyleTableRecord
  2
STANDARD
 70
     0
 40
0.0
 41
1.0
 50
0.0
 71
     0
 42
2.5
  3
txt
  4

  0
ENDTAB
  0
TABLE
  2
VIEW
  5
6
330
0
100
AcDbSymbolTable
 70
     0
  0
ENDTAB
  0
TABLE
  2
UCS
  5
7
330
0
100
AcDbSymbolTable
 70
     0
  0
ENDTAB
  0
TABLE
  2
APPID
  5
9
330
0
100
AcDbSymbolTable
 70
     2
  0
APPID
  5
12
330
9
100
AcDbSymbolTableRecord
100
AcDbRegAppTableRecord
  2
ACAD
 70
     0
  0
ENDTAB
  0
TABLE
  2
DIMSTYLE
  5
A
330
0
100
AcDbSymbolTable
 70
     1
  0
DIMSTYLE
105
27
330
A
100
AcDbSymbolTableRecord
100
AcDbDimStyleTableRecord
  2
ISO-25
 70
     0
  3

  4

  5

  6

  7

 40
1.0
 41
2.5
 42
0.625
 43
3.75
 44
1.25
 45
0.0
 46
0.0
 47
0.0
 48
0.0
140
2.5
141
2.5
142
0.0
143
0.03937007874016
144
1.0
145
0.0
146
1.0
147
0.625
 71
     0
 72
     0
 73
     0
 74
     0
 75
     0
 76
     0
 77
     1
 78
     8
170
     0
171
     3
172
     1
173
     0
174
     0
175
     0
176
     0
177
     0
178
     0
270
     2
271
     2
272
     2
273
     2
274
     3
340
11
275
     0
280
     0
281
     0
282
     0
283
     0
284
     8
285
     0
286
     0
287
     3
288
     0
  0
ENDTAB
  0
TABLE
  2
BLOCK_RECORD
  5
1
330
0
100
AcDbSymbolTable
 70
     1
  0
BLOCK_RECORD
  5
1F
330
1
100
AcDbSymbolTableRecord
100
AcDbBlockTableRecord
  2
*MODEL_SPACE
  0
BLOCK_RECORD
  5
1B
330
1
100
AcDbSymbolTableRecord
100
AcDbBlockTableRecord
  2
*PAPER_SPACE
  0
ENDTAB
  0
ENDSEC
  0
SECTION
  2
BLOCKS
  0
BLOCK
  5
20
330
1F
100
AcDbEntity
  8
0
100
AcDbBlockBegin
  2
*MODEL_SPACE
 70
     0
 10
0.0
 20
0.0
 30
0.0
  3
*MODEL_SPACE
  1

  0
ENDBLK
  5
21
330
1F
100
AcDbEntity
  8
0
100
AcDbBlockEnd
  0
BLOCK
  5
1C
330
1B
100
AcDbEntity
 67
     1
  8
0
100
AcDbBlockBegin
  2
*PAPER_SPACE
  1

  0
ENDBLK
  5
1D
330
1B
100
AcDbEntity
 67
     1
  8
0
100
AcDbBlockEnd
  0
ENDSEC
  0
SECTION
  2
ENTITIES
  0
SPLINE
  5
100
100
AcDbEntity
  8
Ebene_1
 62
7
100
AcDbSpline
 70
8
 71
3
 72
8
 73
4
 74
0
 40
0
 40
0
 40
0
 40
0
 40
1
 40
1
 40
1
 40
1
 10
-186.061900
 20
84.875140
 30
0.0
 10
-186.061900
 20
86.055747
 30
0.0
 10
-186.269600
 20
87.127040
 30
0.0
 10
-186.685000
 20
88.089020
 30
0.0
  0
SPLINE
  5
101
100
AcDbEntity
  8
Ebene_1
 62
7
100
AcDbSpline
 70
8
 71
3
 72
8
 73
4
 74
0
 40
0
 40
0
 40
0
 40
0
 40
1
 40
1
 40
1
 40
1
 10
-186.685000
 20
88.089020
 30
0.0
 10
-187.078540
 20
89.072860
 30
0.0
 10
-187.657913
 20
89.914590
 30
0.0
 10
-188.423120
 20
90.614210
 30
0.0
  0
SPLINE
  5
102
100
AcDbEntity
  8
Ebene_1
 62
7
100
AcDbSpline
 70
8
 71
3
 72
8
 73
4
 74
0
 40
0
 40
0
 40
0
 40
0
 40
1
 40
1
 40
1
 40
1
 10
-188.423120
 20
90.614210
 30
0.0
 10
-189.166467
 20
91.313830
 30
0.0
 10
-190.084720
 20
91.849477
 30
0.0
 10
-191.177880
 20
92.221150
 30
0.0
  0
SPLINE
  5
103
100
AcDbEntity
  8
Ebene_1
 62
7
100
AcDbSpline
 70
8
 71
3
 72
8
 73
4
 74
0
 40
0
 40
0
 40
0
 40
0
 40
1
 40
1
 40
1
 40
1
 10
-191.177880
 20
92.221150
 30
0.0
 10
-192.249173
 20
92.614683
 30
0.0
 10
-193.473507
 20
92.811450
 30
0.0
 10
-194.850880
 20
92.811450
 30
0.0
  0
LWPOLYLINE
  5
104
100
AcDbEntity
  8
Ebene_1
 62
7
100
AcDbPolyline
 90
2
 70
0
 10
-186.061900
 20
84.809540
 30
0.0
 10
-186.061900
 20
84.875140
 30
0.0
  0
SPLINE
  5
105
100
AcDbEntity
  8
Ebene_1
 62
7
100
AcDbSpline
 70
8
 71
3
 72
8
 73
4
 74
0
 40
0
 40
0
 40
0
 40
0
 40
1
 40
1
 40
1
 40
1
 10
-195.342800
 20
76.742050
 30
0.0
 10
-194.052880
 20
76.742050
 30
0.0
 10
-192.850410
 20
76.906023
 30
0.0
 10
-191.735390
 20
77.233970
 30
0.0
  0
SPLINE
  5
106
100
AcDbEntity
  8
Ebene_1
 62
7
100
AcDbSpline
 70
8
 71
3
 72
8
 73
4
 74
0
 40
0
 40
0
 40
0
 40
0
 40
1
 40
1
 40
1
 40
1
 10
-191.735390
 20
77.233970
 30
0.0
 10
-190.598503
 20
77.583783
 30
0.0
 10
-189.614660
 20
78.097567
 30
0.0
 10
-188.783860
 20
78.775320
 30
0.0
  0
SPLINE
  5
107
100
AcDbEntity
  8
Ebene_1
 62
7
100
AcDbSpline
 70
8
 71
3
 72
8
 73
4
 74
0
 40
0
 40
0
 40
0
 40
0
 40
1
 40
1
 40
1
 40
1
 10
-188.783860
 20
78.775320
 30
0.0
 10
-187.931200
 20
79.453080
 30
0.0
 10
-187.264377
 20
80.294810
 30
0.0
 10
-186.783390
 20
81.300510
 30
0.0
  0
SPLINE
  5
108
100
AcDbEntity
  8
Ebene_1
 62
7
100
AcDbSpline
 70
8
 71
3
 72
8
 73
4
 74
0
 40
0
 40
0
 40
0
 40
0
 40
1
 40
1
 40
1
 40
1
 10
-186.783390
 20
81.300510
 30
0.0
 10
-186.302397
 20
82.306217
 30
0.0
 10
-186.061900
 20
83.475897
 30
0.0
 10
-186.061900
 20
84.809550
 30
0.0
  0
LWPOLYLINE
  5
109
100
AcDbEntity
  8
Ebene_1
 62
7
100
AcDbPolyline
 90
6
 70
0
 10
-194.850880
 20
92.811450
 30
0.0
 10
-204.230170
 20
92.811450
 30
0.0
 10
-204.230170
 20
69.855160
 30
0.0
 10
-199.179780
 20
69.855160
 30
0.0
 10
-199.179780
 20
76.742050
 30
0.0
 10
-195.342800
 20
76.742050
 30
0.0
  0
SPLINE
  5
10a
100
AcDbEntity
  8
Ebene_1
 62
7
100
AcDbSpline
 70
8
 71
3
 72
8
 73
4
 74
0
 40
0
 40
0
 40
0
 40
0
 40
1
 40
1
 40
1
 40
1
 10
-191.177880
 20
84.711140
 30
0.0
 10
-191.177880
 20
83.727300
 30
0.0
 10
-191.527690
 20
82.896500
 30
0.0
 10
-192.227310
 20
82.218740
 30
0.0
  0
SPLINE
  5
10b
100
AcDbEntity
  8
Ebene_1
 62
7
100
AcDbSpline
 70
8
 71
3
 72
8
 73
4
 74
0
 40
0
 40
0
 40
0
 40
0
 40
1
 40
1
 40
1
 40
1
 10
-192.227310
 20
82.218740
 30
0.0
 10
-192.926930
 20
81.562847
 30
0.0
 10
-193.910770
 20
81.234900
 30
0.0
 10
-195.178830
 20
81.234900
 30
0.0
  0
LWPOLYLINE
  5
10c
100
AcDbEntity
  8
Ebene_1
 62
7
100
AcDbPolyline
 90
1
 70
1
 10
-186.061900
 20
84.809550
 30
0.0
  0
SPLINE
  5
10d
100
AcDbEntity
  8
Ebene_1
 62
7
100
AcDbSpline
 70
8
 71
3
 72
8
 73
4
 74
0
 40
0
 40
0
 40
0
 40
0
 40
1
 40
1
 40
1
 40
1
 10
-195.277210
 20
88.252970
 30
0.0
 10
-194.009150
 20
88.252970
 30
0.0
 10
-193.014380
 20
87.957817
 30
0.0
 10
-192.292900
 20
87.367510
 30
0.0
  0
SPLINE
  5
10e
100
AcDbEntity
  8
Ebene_1
 62
7
100
AcDbSpline
 70
8
 71
3
 72
8
 73
4
 74
0
 40
0
 40
0
 40
0
 40
0
 40
1
 40
1
 40
1
 40
1
 10
-192.292900
 20
87.367510
 30
0.0
 10
-191.549553
 20
86.777210
 30
0.0
 10
-191.177880
 20
85.913617
 30
0.0
 10
-191.177880
 20
84.776730
 30
0.0
  0
LWPOLYLINE
  5
10f
100
AcDbEntity
  8
Ebene_1
 62
7
100
AcDbPolyline
 90
4
 70
0
 10
-195.178830
 20
81.234900
 30
0.0
 10
-199.179780
 20
81.234900
 30
0.0
 10
-199.179780
 20
88.252970
 30
0.0
 10
-195.277210
 20
88.252970
 30
0.0
  0
LWPOLYLINE
  5
110
100
AcDbEntity
  8
Ebene_1
 62
7
100
AcDbPolyline
 90
2
 70
0
 10
-191.177880
 20
84.776730
 30
0.0
 10
-191.177880
 20
84.711140
 30
0.0
  0
LWPOLYLINE
  5
111
100
AcDbEntity
  8
Ebene_1
 62
7
100
AcDbPolyline
 90
8
 70
1
 10
-159.958340
 20
69.855150
 30
0.0
 10
-169.796750
 20
92.975420
 30
0.0
 10
-174.453600
 20
92.975420
 30
0.0
 10
-184.292010
 20
69.855150
 30
0.0
 10
-179.143240
 20
69.855150
 30
0.0
 10
-177.044380
 20
75.003920
 30
0.0
 10
-167.337150
 20
75.003920
 30
0.0
 10
-165.238290
 20
69.855150
 30
0.0
  0
LWPOLYLINE
  5
112
100
AcDbEntity
  8
Ebene_1
 62
7
100
AcDbPolyline
 90
3
 70
1
 10
-169.140860
 20
79.464000
 30
0.0
 10
-175.240670
 20
79.464000
 30
0.0
 10
-172.190770
 20
86.908400
 30
0.0
  0
SPLINE
  5
113
100
AcDbEntity
  8
Ebene_1
 62
7
100
AcDbSpline
 70
8
 71
3
 72
8
 73
4
 74
0
 40
0
 40
0
 40
0
 40
0
 40
1
 40
1
 40
1
 40
1
 10
-142.214360
 20
78.053830
 30
0.0
 10
-140.749533
 20
78.600403
 30
0.0
 10
-139.568923
 20
79.453063
 30
0.0
 10
-138.672530
 20
80.611810
 30
0.0
  0
SPLINE
  5
114
100
AcDbEntity
  8
Ebene_1
 62
7
100
AcDbSpline
 70
8
 71
3
 72
8
 73
4
 74
0
 40
0
 40
0
 40
0
 40
0
 40
1
 40
1
 40
1
 40
1
 10
-138.672530
 20
80.611810
 30
0.0
 10
-137.754283
 20
81.792423
 30
0.0
 10
-137.295160
 20
83.311913
 30
0.0
 10
-137.295160
 20
85.170280
 30
0.0
  0
LWPOLYLINE
  5
115
100
AcDbEntity
  8
Ebene_1
 62
7
100
AcDbPolyline
 90
2
 70
0
 10
-136.606470
 20
69.855150
 30
0.0
 10
-142.214360
 20
78.053830
 30
0.0
  0
SPLINE
  5
116
100
AcDbEntity
  8
Ebene_1
 62
7
100
AcDbSpline
 70
8
 71
3
 72
8
 73
4
 74
0
 40
0
 40
0
 40
0
 40
0
 40
1
 40
1
 40
1
 40
1
 10
-137.295160
 20
85.235880
 30
0.0
 10
-137.295160
 20
87.618960
 30
0.0
 10
-138.060367
 20
89.477327
 30
0.0
 10
-139.590780
 20
90.810980
 30
0.0
  0
SPLINE
  5
117
100
AcDbEntity
  8
Ebene_1
 62
7
100
AcDbSpline
 70
8
 71
3
 72
8
 73
4
 74
0
 40
0
 40
0
 40
0
 40
0
 40
1
 40
1
 40
1
 40
1
 10
-139.590780
 20
90.810980
 30
0.0
 10
-141.099340
 20
92.144627
 30
0.0
 10
-143.220067
 20
92.811450
 30
0.0
 10
-145.952960
 20
92.811450
 30
0.0
  0
LWPOLYLINE
  5
118
100
AcDbEntity
  8
Ebene_1
 62
7
100
AcDbPolyline
 90
2
 70
0
 10
-137.295160
 20
85.170280
 30
0.0
 10
-137.295160
 20
85.235880
 30
0.0
  0
SPLINE
  5
119
100
AcDbEntity
  8
Ebene_1
 62
7
100
AcDbSpline
 70
8
 71
3
 72
8
 73
4
 74
0
 40
0
 40
0
 40
0
 40
0
 40
1
 40
1
 40
1
 40
1
 10
-142.411130
 20
84.907920
 30
0.0
 10
-142.411130
 20
83.924080
 30
0.0
 10
-142.750007
 20
83.137007
 30
0.0
 10
-143.427760
 20
82.546700
 30
0.0
  0
SPLINE
  5
11a
100
AcDbEntity
  8
Ebene_1
 62
7
100
AcDbSpline
 70
8
 71
3
 72
8
 73
4
 74
0
 40
0
 40
0
 40
0
 40
0
 40
1
 40
1
 40
1
 40
1
 10
-143.427760
 20
82.546700
 30
0.0
 10
-144.083660
 20
81.956393
 30
0.0
 10
-145.034707
 20
81.661240
 30
0.0
 10
-146.280900
 20
81.661240
 30
0.0
  0
LWPOLYLINE
  5
11b
100
AcDbEntity
  8
Ebene_1
 62
7
100
AcDbPolyline
 90
8
 70
0
 10
-145.952960
 20
92.811450
 30
0.0
 10
-156.447260
 20
92.811450
 30
0.0
 10
-156.447260
 20
69.855160
 30
0.0
 10
-151.396880
 20
69.855160
 30
0.0
 10
-151.396880
 20
77.201180
 30
0.0
 10
-147.428720
 20
77.201180
 30
0.0
 10
-142.509510
 20
69.855160
 30
0.0
 10
-136.606470
 20
69.855150
 30
0.0
  0
SPLINE
  5
11c
100
AcDbEntity
  8
Ebene_1
 62
7
100
AcDbSpline
 70
8
 71
3
 72
8
 73
4
 74
0
 40
0
 40
0
 40
0
 40
0
 40
1
 40
1
 40
1
 40
1
 10
-146.379290
 20
88.252980
 30
0.0
 10
-145.133090
 20
88.252980
 30
0.0
 10
-144.160180
 20
87.979690
 30
0.0
 10
-143.460560
 20
87.433110
 30
0.0
  0
SPLINE
  5
11d
100
AcDbEntity
  8
Ebene_1
 62
7
100
AcDbSpline
 70
8
 71
3
 72
8
 73
4
 74
0
 40
0
 40
0
 40
0
 40
0
 40
1
 40
1
 40
1
 40
1
 10
-143.460560
 20
87.433110
 30
0.0
 10
-142.760940
 20
86.886530
 30
0.0
 10
-142.411130
 20
86.066663
 30
0.0
 10
-142.411130
 20
84.973510
 30
0.0
  0
LWPOLYLINE
  5
11e
100
AcDbEntity
  8
Ebene_1
 62
7
100
AcDbPolyline
 90
4
 70
0
 10
-146.280900
 20
81.661240
 30
0.0
 10
-151.396880
 20
81.661240
 30
0.0
 10
-151.396880
 20
88.252980
 30
0.0
 10
-146.379290
 20
88.252980
 30
0.0
  0
LWPOLYLINE
  5
11f
100
AcDbEntity
  8
Ebene_1
 62
7
100
AcDbPolyline
 90
2
 70
0
 10
-142.411130
 20
84.973510
 30
0.0
 10
-142.411130
 20
84.907920
 30
0.0
  0
LWPOLYLINE
  5
120
100
AcDbEntity
  8
Ebene_1
 62
7
100
AcDbPolyline
 90
12
 70
1
 10
-111.857740
 20
69.855150
 30
0.0
 10
-121.630560
 20
83.071420
 30
0.0
 10
-112.284070
 20
92.811440
 30
0.0
 10
-118.383890
 20
92.811440
 30
0.0
 10
-127.697580
 20
82.776260
 30
0.0
 10
-127.697580
 20
92.811440
 30
0.0
 10
-132.747970
 20
92.811440
 30
0.0
 10
-132.747970
 20
69.855150
 30
0.0
 10
-127.697580
 20
69.855150
 30
0.0
 10
-127.697580
 20
76.873220
 30
0.0
 10
-125.041210
 20
79.627970
 30
0.0
 10
-117.924760
 20
69.855150
 30
0.0
  0
LWPOLYLINE
  5
121
100
AcDbEntity
  8
Ebene_1
 62
7
100
AcDbPolyline
 90
4
 70
1
 10
-103.512520
 20
69.855150
 30
0.0
 10
-103.512520
 20
92.811440
 30
0.0
 10
-108.562910
 20
92.811440
 30
0.0
 10
-108.562910
 20
69.855150
 30
0.0
  0
LWPOLYLINE
  5
122
100
AcDbEntity
  8
Ebene_1
 62
7
100
AcDbPolyline
 90
10
 70
1
 10
-77.377189
 20
69.855150
 30
0.0
 10
-77.377189
 20
92.811440
 30
0.0
 10
-82.361983
 20
92.811440
 30
0.0
 10
-82.361983
 20
78.676930
 30
0.0
 10
-93.118645
 20
92.811440
 30
0.0
 10
-97.775490
 20
92.811440
 30
0.0
 10
-97.775490
 20
69.855150
 30
0.0
 10
-92.790698
 20
69.855150
 30
0.0
 10
-92.790698
 20
84.448790
 30
0.0
 10
-81.673295
 20
69.855150
 30
0.0
  0
SPLINE
  5
123
100
AcDbEntity
  8
Ebene_1
 62
7
100
AcDbSpline
 70
8
 71
3
 72
8
 73
4
 74
0
 40
0
 40
0
 40
0
 40
0
 40
1
 40
1
 40
1
 40
1
 10
-55.927406
 20
75.430250
 30
0.0
 10
-57.217331
 20
74.511997
 30
0.0
 10
-58.802408
 20
74.052870
 30
0.0
 10
-60.682637
 20
74.052870
 30
0.0
  0
SPLINE
  5
124
100
AcDbEntity
  8
Ebene_1
 62
7
100
AcDbSpline
 70
8
 71
3
 72
8
 73
4
 74
0
 40
0
 40
0
 40
0
 40
0
 40
1
 40
1
 40
1
 40
1
 10
-60.682637
 20
74.052870
 30
0.0
 10
-61.710204
 20
74.052870
 30
0.0
 10
-62.650319
 20
74.227777
 30
0.0
 10
-63.502982
 20
74.577590
 30
0.0
  0
SPLINE
  5
125
100
AcDbEntity
  8
Ebene_1
 62
7
100
AcDbSpline
 70
8
 71
3
 72
8
 73
4
 74
0
 40
0
 40
0
 40
0
 40
0
 40
1
 40
1
 40
1
 40
1
 10
-63.502982
 20
74.577590
 30
0.0
 10
-64.333781
 20
74.949263
 30
0.0
 10
-65.066196
 20
75.463047
 30
0.0
 10
-65.700227
 20
76.118940
 30
0.0
  0
SPLINE
  5
126
100
AcDbEntity
  8
Ebene_1
 62
7
100
AcDbSpline
 70
8
 71
3
 72
8
 73
4
 74
0
 40
0
 40
0
 40
0
 40
0
 40
1
 40
1
 40
1
 40
1
 10
-65.700227
 20
76.118940
 30
0.0
 10
-66.312394
 20
76.774833
 30
0.0
 10
-66.793383
 20
77.540043
 30
0.0
 10
-67.143194
 20
78.414570
 30
0.0
  0
SPLINE
  5
127
100
AcDbEntity
  8
Ebene_1
 62
7
100
AcDbSpline
 70
8
 71
3
 72
8
 73
4
 74
0
 40
0
 40
0
 40
0
 40
0
 40
1
 40
1
 40
1
 40
1
 10
-67.143194
 20
78.414570
 30
0.0
 10
-67.471141
 20
79.310957
 30
0.0
 10
-67.635114
 20
80.283867
 30
0.0
 10
-67.635114
 20
81.333300
 30
0.0
  0
LWPOLYLINE
  5
128
100
AcDbEntity
  8
Ebene_1
 62
7
100
AcDbPolyline
 90
6
 70
0
 10
-51.040996
 20
73.101830
 30
0.0
 10
-51.040996
 20
83.071420
 30
0.0
 10
-61.010584
 20
83.071420
 30
0.0
 10
-61.010584
 20
78.709720
 30
0.0
 10
-55.927406
 20
78.709720
 30
0.0
 10
-55.927406
 20
75.430250
 30
0.0
  0
SPLINE
  5
129
100
AcDbEntity
  8
Ebene_1
 62
7
100
AcDbSpline
 70
8
 71
3
 72
8
 73
4
 74
0
 40
0
 40
0
 40
0
 40
0
 40
1
 40
1
 40
1
 40
1
 10
-67.635114
 20
81.398900
 30
0.0
 10
-67.635114
 20
82.382740
 30
0.0
 10
-67.471141
 20
83.300990
 30
0.0
 10
-67.143194
 20
84.153650
 30
0.0
  0
SPLINE
  5
12a
100
AcDbEntity
  8
Ebene_1
 62
7
100
AcDbSpline
 70
8
 71
3
 72
8
 73
4
 74
0
 40
0
 40
0
 40
0
 40
0
 40
1
 40
1
 40
1
 40
1
 10
-67.143194
 20
84.153650
 30
0.0
 10
-66.793383
 20
85.028177
 30
0.0
 10
-66.323326
 20
85.782457
 30
0.0
 10
-65.733021
 20
86.416490
 30
0.0
  0
SPLINE
  5
12b
100
AcDbEntity
  8
Ebene_1
 62
7
100
AcDbSpline
 70
8
 71
3
 72
8
 73
4
 74
0
 40
0
 40
0
 40
0
 40
0
 40
1
 40
1
 40
1
 40
1
 10
-65.733021
 20
86.416490
 30
0.0
 10
-65.120854
 20
87.072383
 30
0.0
 10
-64.421234
 20
87.586167
 30
0.0
 10
-63.634161
 20
87.957840
 30
0.0
  0
SPLINE
  5
12c
100
AcDbEntity
  8
Ebene_1
 62
7
100
AcDbSpline
 70
8
 71
3
 72
8
 73
4
 74
0
 40
0
 40
0
 40
0
 40
0
 40
1
 40
1
 40
1
 40
1
 10
-63.634161
 20
87.957840
 30
0.0
 10
-62.825225
 20
88.351373
 30
0.0
 10
-61.961631
 20
88.548140
 30
0.0
 10
-61.043379
 20
88.548140
 30
0.0
  0
SPLINE
  5
12d
100
AcDbEntity
  8
Ebene_1
 62
7
100
AcDbSpline
 70
8
 71
3
 72
8
 73
4
 74
0
 40
0
 40
0
 40
0
 40
0
 40
1
 40
1
 40
1
 40
1
 10
-61.043379
 20
88.548140
 30
0.0
 10
-60.387485
 20
88.548140
 30
0.0
 10
-59.786249
 20
88.493483
 30
0.0
 10
-59.239671
 20
88.384170
 30
0.0
  0
SPLINE
  5
12e
100
AcDbEntity
  8
Ebene_1
 62
7
100
AcDbSpline
 70
8
 71
3
 72
8
 73
4
 74
0
 40
0
 40
0
 40
0
 40
0
 40
1
 40
1
 40
1
 40
1
 10
-59.239671
 20
88.384170
 30
0.0
 10
-58.693092
 20
88.274850
 30
0.0
 10
-58.190240
 20
88.121807
 30
0.0
 10
-57.731114
 20
87.925040
 30
0.0
  0
SPLINE
  5
12f
100
AcDbEntity
  8
Ebene_1
 62
7
100
AcDbSpline
 70
8
 71
3
 72
8
 73
4
 74
0
 40
0
 40
0
 40
0
 40
0
 40
1
 40
1
 40
1
 40
1
 10
-57.731114
 20
87.925040
 30
0.0
 10
-57.250125
 20
87.728273
 30
0.0
 10
-56.791000
 20
87.487780
 30
0.0
 10
-56.353737
 20
87.203560
 30
0.0
  0
SPLINE
  5
130
100
AcDbEntity
  8
Ebene_1
 62
7
100
AcDbSpline
 70
8
 71
3
 72
8
 73
4
 74
0
 40
0
 40
0
 40
0
 40
0
 40
1
 40
1
 40
1
 40
1
 10
-56.353737
 20
87.203560
 30
0.0
 10
-55.916474
 20
86.919340
 30
0.0
 10
-55.479212
 20
86.591393
 30
0.0
 10
-55.041949
 20
86.219720
 30
0.0
  0
LWPOLYLINE
  5
131
100
AcDbEntity
  8
Ebene_1
 62
7
100
AcDbPolyline
 90
2
 70
0
 10
-67.635114
 20
81.333300
 30
0.0
 10
-67.635114
 20
81.398900
 30
0.0
  0
SPLINE
  5
132
100
AcDbEntity
  8
Ebene_1
 62
7
100
AcDbSpline
 70
8
 71
3
 72
8
 73
4
 74
0
 40
0
 40
0
 40
0
 40
0
 40
1
 40
1
 40
1
 40
1
 10
-51.860863
 20
90.056700
 30
0.0
 10
-52.451168
 20
90.559553
 30
0.0
 10
-53.063335
 20
91.007747
 30
0.0
 10
-53.697366
 20
91.401280
 30
0.0
  0
SPLINE
  5
133
100
AcDbEntity
  8
Ebene_1
 62
7
100
AcDbSpline
 70
8
 71
3
 72
8
 73
4
 74
0
 40
0
 40
0
 40
0
 40
0
 40
1
 40
1
 40
1
 40
1
 10
-53.697366
 20
91.401280
 30
0.0
 10
-54.331397
 20
91.794820
 30
0.0
 10
-55.009155
 20
92.122767
 30
0.0
 10
-55.730638
 20
92.385120
 30
0.0
  0
SPLINE
  5
134
100
AcDbEntity
  8
Ebene_1
 62
7
100
AcDbSpline
 70
8
 71
3
 72
8
 73
4
 74
0
 40
0
 40
0
 40
0
 40
0
 40
1
 40
1
 40
1
 40
1
 10
-55.730638
 20
92.385120
 30
0.0
 10
-56.452121
 20
92.647480
 30
0.0
 10
-57.239194
 20
92.844250
 30
0.0
 10
-58.091856
 20
92.975430
 30
0.0
  0
SPLINE
  5
135
100
AcDbEntity
  8
Ebene_1
 62
7
100
AcDbSpline
 70
8
 71
3
 72
8
 73
4
 74
0
 40
0
 40
0
 40
0
 40
0
 40
1
 40
1
 40
1
 40
1
 10
-58.091856
 20
92.975430
 30
0.0
 10
-58.922655
 20
93.128470
 30
0.0
 10
-59.851839
 20
93.204990
 30
0.0
 10
-60.879406
 20
93.204990
 30
0.0
  0
SPLINE
  5
136
100
AcDbEntity
  8
Ebene_1
 62
7
100
AcDbSpline
 70
8
 71
3
 72
8
 73
4
 74
0
 40
0
 40
0
 40
0
 40
0
 40
1
 40
1
 40
1
 40
1
 10
-60.879406
 20
93.204990
 30
0.0
 10
-62.628457
 20
93.204990
 30
0.0
 10
-64.235397
 20
92.887973
 30
0.0
 10
-65.700227
 20
92.253940
 30
0.0
  0
SPLINE
  5
137
100
AcDbEntity
  8
Ebene_1
 62
7
100
AcDbSpline
 70
8
 71
3
 72
8
 73
4
 74
0
 40
0
 40
0
 40
0
 40
0
 40
1
 40
1
 40
1
 40
1
 10
-65.700227
 20
92.253940
 30
0.0
 10
-67.165057
 20
91.641773
 30
0.0
 10
-68.433119
 20
90.789113
 30
0.0
 10
-69.504412
 20
89.695960
 30
0.0
  0
SPLINE
  5
138
100
AcDbEntity
  8
Ebene_1
 62
7
100
AcDbSpline
 70
8
 71
3
 72
8
 73
4
 74
0
 40
0
 40
0
 40
0
 40
0
 40
1
 40
1
 40
1
 40
1
 10
-69.504412
 20
89.695960
 30
0.0
 10
-70.575705
 20
88.624667
 30
0.0
 10
-71.417436
 20
87.367537
 30
0.0
 10
-72.029604
 20
85.924570
 30
0.0
  0
SPLINE
  5
139
100
AcDbEntity
  8
Ebene_1
 62
7
100
AcDbSpline
 70
8
 71
3
 72
8
 73
4
 74
0
 40
0
 40
0
 40
0
 40
0
 40
1
 40
1
 40
1
 40
1
 10
-72.029604
 20
85.924570
 30
0.0
 10
-72.619909
 20
84.503463
 30
0.0
 10
-72.915061
 20
82.973043
 30
0.0
 10
-72.915061
 20
81.333310
 30
0.0
  0
LWPOLYLINE
  5
13a
100
AcDbEntity
  8
Ebene_1
 62
7
100
AcDbPolyline
 90
2
 70
0
 10
-55.041949
 20
86.219720
 30
0.0
 10
-51.860863
 20
90.056700
 30
0.0
  0
SPLINE
  5
13b
100
AcDbEntity
  8
Ebene_1
 62
7
100
AcDbSpline
 70
8
 71
3
 72
8
 73
4
 74
0
 40
0
 40
0
 40
0
 40
0
 40
1
 40
1
 40
1
 40
1
 10
-72.915061
 20
81.267710
 30
0.0
 10
-72.915061
 20
79.562383
 30
0.0
 10
-72.619909
 20
77.988237
 30
0.0
 10
-72.029604
 20
76.545270
 30
0.0
  0
SPLINE
  5
13c
100
AcDbEntity
  8
Ebene_1
 62
7
100
AcDbSpline
 70
8
 71
3
 72
8
 73
4
 74
0
 40
0
 40
0
 40
0
 40
0
 40
1
 40
1
 40
1
 40
1
 10
-72.029604
 20
76.545270
 30
0.0
 10
-71.439299
 20
75.102303
 30
0.0
 10
-70.619432
 20
73.856107
 30
0.0
 10
-69.570001
 20
72.806680
 30
0.0
  0
SPLINE
  5
13d
100
AcDbEntity
  8
Ebene_1
 62
7
100
AcDbSpline
 70
8
 71
3
 72
8
 73
4
 74
0
 40
0
 40
0
 40
0
 40
0
 40
1
 40
1
 40
1
 40
1
 10
-69.570001
 20
72.806680
 30
0.0
 10
-68.498708
 20
71.757247
 30
0.0
 10
-67.230646
 20
70.937377
 30
0.0
 10
-65.765816
 20
70.347070
 30
0.0
  0
SPLINE
  5
13e
100
AcDbEntity
  8
Ebene_1
 62
7
100
AcDbSpline
 70
8
 71
3
 72
8
 73
4
 74
0
 40
0
 40
0
 40
0
 40
0
 40
1
 40
1
 40
1
 40
1
 10
-65.765816
 20
70.347070
 30
0.0
 10
-64.279123
 20
69.756770
 30
0.0
 10
-62.639388
 20
69.461620
 30
0.0
 10
-60.846611
 20
69.461620
 30
0.0
  0
SPLINE
  5
13f
100
AcDbEntity
  8
Ebene_1
 62
7
100
AcDbSpline
 70
8
 71
3
 72
8
 73
4
 74
0
 40
0
 40
0
 40
0
 40
0
 40
1
 40
1
 40
1
 40
1
 10
-60.846611
 20
69.461620
 30
0.0
 10
-58.747750
 20
69.461620
 30
0.0
 10
-56.889384
 20
69.811430
 30
0.0
 10
-55.271512
 20
70.511050
 30
0.0
  0
SPLINE
  5
140
100
AcDbEntity
  8
Ebene_1
 62
7
100
AcDbSpline
 70
8
 71
3
 72
8
 73
4
 74
0
 40
0
 40
0
 40
0
 40
0
 40
1
 40
1
 40
1
 40
1
 10
-55.271512
 20
70.511050
 30
0.0
 10
-53.631777
 20
71.232530
 30
0.0
 10
-52.221605
 20
72.096123
 30
0.0
 10
-51.040996
 20
73.101830
 30
0.0
  0
LWPOLYLINE
  5
141
100
AcDbEntity
  8
Ebene_1
 62
7
100
AcDbPolyline
 90
2
 70
0
 10
-72.915061
 20
81.333310
 30
0.0
 10
-72.915061
 20
81.267710
 30
0.0
  0
LWPOLYLINE
  5
142
100
AcDbEntity
  8
Ebene_1
 62
7
100
AcDbPolyline
 90
1
 70
1
 10
-51.040996
 20
73.101830
 30
0.0
  0
SPLINE
  5
143
100
AcDbEntity
  8
Ebene_1
 62
7
100
AcDbSpline
 70
8
 71
3
 72
8
 73
4
 74
0
 40
0
 40
0
 40
0
 40
0
 40
1
 40
1
 40
1
 40
1
 10
-150.614930
 20
48.604200
 30
0.0
 10
-150.614930
 20
50.243933
 30
0.0
 10
-150.921013
 20
51.774350
 30
0.0
 10
-151.533180
 20
53.195450
 30
0.0
  0
SPLINE
  5
144
100
AcDbEntity
  8
Ebene_1
 62
7
100
AcDbSpline
 70
8
 71
3
 72
8
 73
4
 74
0
 40
0
 40
0
 40
0
 40
0
 40
1
 40
1
 40
1
 40
1
 10
-151.533180
 20
53.195450
 30
0.0
 10
-152.123487
 20
54.638417
 30
0.0
 10
-152.965217
 20
55.884617
 30
0.0
 10
-154.058370
 20
56.934050
 30
0.0
  0
SPLINE
  5
145
100
AcDbEntity
  8
Ebene_1
 62
7
100
AcDbSpline
 70
8
 71
3
 72
8
 73
4
 74
0
 40
0
 40
0
 40
0
 40
0
 40
1
 40
1
 40
1
 40
1
 10
-154.058370
 20
56.934050
 30
0.0
 10
-155.129663
 20
58.005343
 30
0.0
 10
-156.408657
 20
58.847073
 30
0.0
 10
-157.895350
 20
59.459240
 30
0.0
  0
SPLINE
  5
146
100
AcDbEntity
  8
Ebene_1
 62
7
100
AcDbSpline
 70
8
 71
3
 72
8
 73
4
 74
0
 40
0
 40
0
 40
0
 40
0
 40
1
 40
1
 40
1
 40
1
 10
-157.895350
 20
59.459240
 30
0.0
 10
-159.382043
 20
60.093273
 30
0.0
 10
-161.010847
 20
60.410290
 30
0.0
 10
-162.781760
 20
60.410290
 30
0.0
  0
SPLINE
  5
147
100
AcDbEntity
  8
Ebene_1
 62
7
100
AcDbSpline
 70
8
 71
3
 72
8
 73
4
 74
0
 40
0
 40
0
 40
0
 40
0
 40
1
 40
1
 40
1
 40
1
 10
-162.781760
 20
60.410290
 30
0.0
 10
-164.552673
 20
60.410290
 30
0.0
 10
-166.192410
 20
60.093273
 30
0.0
 10
-167.700970
 20
59.459240
 30
0.0
  0
SPLINE
  5
148
100
AcDbEntity
  8
Ebene_1
 62
7
100
AcDbSpline
 70
8
 71
3
 72
8
 73
4
 74
0
 40
0
 40
0
 40
0
 40
0
 40
1
 40
1
 40
1
 40
1
 10
-167.700970
 20
59.459240
 30
0.0
 10
-169.187663
 20
58.847073
 30
0.0
 10
-170.477587
 20
57.994413
 30
0.0
 10
-171.570740
 20
56.901260
 30
0.0
  0
SPLINE
  5
149
100
AcDbEntity
  8
Ebene_1
 62
7
100
AcDbSpline
 70
8
 71
3
 72
8
 73
4
 74
0
 40
0
 40
0
 40
0
 40
0
 40
1
 40
1
 40
1
 40
1
 10
-171.570740
 20
56.901260
 30
0.0
 10
-172.642033
 20
55.829967
 30
0.0
 10
-173.483767
 20
54.572833
 30
0.0
 10
-174.095940
 20
53.129860
 30
0.0
  0
SPLINE
  5
14a
100
AcDbEntity
  8
Ebene_1
 62
7
100
AcDbSpline
 70
8
 71
3
 72
8
 73
4
 74
0
 40
0
 40
0
 40
0
 40
0
 40
1
 40
1
 40
1
 40
1
 10
-174.095940
 20
53.129860
 30
0.0
 10
-174.708107
 20
51.708760
 30
0.0
 10
-175.014190
 20
50.178343
 30
0.0
 10
-175.014190
 20
48.538610
 30
0.0
  0
LWPOLYLINE
  5
14b
100
AcDbEntity
  8
Ebene_1
 62
7
100
AcDbPolyline
 90
2
 70
0
 10
-150.614930
 20
48.538600
 30
0.0
 10
-150.614930
 20
48.604200
 30
0.0
  0
SPLINE
  5
14c
100
AcDbEntity
  8
Ebene_1
 62
7
100
AcDbSpline
 70
8
 71
3
 72
8
 73
4
 74
0
 40
0
 40
0
 40
0
 40
0
 40
1
 40
1
 40
1
 40
1
 10
-175.014190
 20
48.473010
 30
0.0
 10
-175.014190
 20
46.833270
 30
0.0
 10
-174.719037
 20
45.291917
 30
0.0
 10
-174.128730
 20
43.848950
 30
0.0
  0
SPLINE
  5
14d
100
AcDbEntity
  8
Ebene_1
 62
7
100
AcDbSpline
 70
8
 71
3
 72
8
 73
4
 74
0
 40
0
 40
0
 40
0
 40
0
 40
1
 40
1
 40
1
 40
1
 10
-174.128730
 20
43.848950
 30
0.0
 10
-173.516563
 20
42.427850
 30
0.0
 10
-172.674833
 20
41.181653
 30
0.0
 10
-171.603540
 20
40.110360
 30
0.0
  0
SPLINE
  5
14e
100
AcDbEntity
  8
Ebene_1
 62
7
100
AcDbSpline
 70
8
 71
3
 72
8
 73
4
 74
0
 40
0
 40
0
 40
0
 40
0
 40
1
 40
1
 40
1
 40
1
 10
-171.603540
 20
40.110360
 30
0.0
 10
-170.510380
 20
39.060927
 30
0.0
 10
-169.220453
 20
38.219197
 30
0.0
 10
-167.733760
 20
37.585170
 30
0.0
  0
SPLINE
  5
14f
100
AcDbEntity
  8
Ebene_1
 62
7
100
AcDbSpline
 70
8
 71
3
 72
8
 73
4
 74
0
 40
0
 40
0
 40
0
 40
0
 40
1
 40
1
 40
1
 40
1
 10
-167.733760
 20
37.585170
 30
0.0
 10
-166.247067
 20
36.973003
 30
0.0
 10
-164.618263
 20
36.666920
 30
0.0
 10
-162.847350
 20
36.666920
 30
0.0
  0
SPLINE
  5
150
100
AcDbEntity
  8
Ebene_1
 62
7
100
AcDbSpline
 70
8
 71
3
 72
8
 73
4
 74
0
 40
0
 40
0
 40
0
 40
0
 40
1
 40
1
 40
1
 40
1
 10
-162.847350
 20
36.666920
 30
0.0
 10
-161.076437
 20
36.666920
 30
0.0
 10
-159.447633
 20
36.973003
 30
0.0
 10
-157.960940
 20
37.585170
 30
0.0
  0
SPLINE
  5
151
100
AcDbEntity
  8
Ebene_1
 62
7
100
AcDbSpline
 70
8
 71
3
 72
8
 73
4
 74
0
 40
0
 40
0
 40
0
 40
0
 40
1
 40
1
 40
1
 40
1
 10
-157.960940
 20
37.585170
 30
0.0
 10
-156.452387
 20
38.219197
 30
0.0
 10
-155.162463
 20
39.071857
 30
0.0
 10
-154.091170
 20
40.143150
 30
0.0
  0
SPLINE
  5
152
100
AcDbEntity
  8
Ebene_1
 62
7
100
AcDbSpline
 70
8
 71
3
 72
8
 73
4
 74
0
 40
0
 40
0
 40
0
 40
0
 40
1
 40
1
 40
1
 40
1
 10
-154.091170
 20
40.143150
 30
0.0
 10
-152.998010
 20
41.236310
 30
0.0
 10
-152.145347
 20
42.493440
 30
0.0
 10
-151.533180
 20
43.914540
 30
0.0
  0
SPLINE
  5
153
100
AcDbEntity
  8
Ebene_1
 62
7
100
AcDbSpline
 70
8
 71
3
 72
8
 73
4
 74
0
 40
0
 40
0
 40
0
 40
0
 40
1
 40
1
 40
1
 40
1
 10
-151.533180
 20
43.914540
 30
0.0
 10
-150.921013
 20
45.357507
 30
0.0
 10
-150.614930
 20
46.898860
 30
0.0
 10
-150.614930
 20
48.538600
 30
0.0
  0
LWPOLYLINE
  5
154
100
AcDbEntity
  8
Ebene_1
 62
7
100
AcDbPolyline
 90
2
 70
0
 10
-175.014190
 20
48.538610
 30
0.0
 10
-175.014190
 20
48.473010
 30
0.0
  0
SPLINE
  5
155
100
AcDbEntity
  8
Ebene_1
 62
7
100
AcDbSpline
 70
8
 71
3
 72
8
 73
4
 74
0
 40
0
 40
0
 40
0
 40
0
 40
1
 40
1
 40
1
 40
1
 10
-155.894880
 20
48.473000
 30
0.0
 10
-155.894880
 20
47.489160
 30
0.0
 10
-156.069783
 20
46.559977
 30
0.0
 10
-156.419590
 20
45.685450
 30
0.0
  0
SPLINE
  5
156
100
AcDbEntity
  8
Ebene_1
 62
7
100
AcDbSpline
 70
8
 71
3
 72
8
 73
4
 74
0
 40
0
 40
0
 40
0
 40
0
 40
1
 40
1
 40
1
 40
1
 10
-156.419590
 20
45.685450
 30
0.0
 10
-156.747537
 20
44.832783
 30
0.0
 10
-157.217593
 20
44.078503
 30
0.0
 10
-157.829760
 20
43.422610
 30
0.0
  0
SPLINE
  5
157
100
AcDbEntity
  8
Ebene_1
 62
7
100
AcDbSpline
 70
8
 71
3
 72
8
 73
4
 74
0
 40
0
 40
0
 40
0
 40
0
 40
1
 40
1
 40
1
 40
1
 10
-157.829760
 20
43.422610
 30
0.0
 10
-158.420067
 20
42.766717
 30
0.0
 10
-159.141550
 20
42.252933
 30
0.0
 10
-159.994210
 20
41.881260
 30
0.0
  0
SPLINE
  5
158
100
AcDbEntity
  8
Ebene_1
 62
7
100
AcDbSpline
 70
8
 71
3
 72
8
 73
4
 74
0
 40
0
 40
0
 40
0
 40
0
 40
1
 40
1
 40
1
 40
1
 10
-159.994210
 20
41.881260
 30
0.0
 10
-160.846877
 20
41.509587
 30
0.0
 10
-161.776060
 20
41.323750
 30
0.0
 10
-162.781760
 20
41.323750
 30
0.0
  0
SPLINE
  5
159
100
AcDbEntity
  8
Ebene_1
 62
7
100
AcDbSpline
 70
8
 71
3
 72
8
 73
4
 74
0
 40
0
 40
0
 40
0
 40
0
 40
1
 40
1
 40
1
 40
1
 10
-162.781760
 20
41.323750
 30
0.0
 10
-163.809333
 20
41.323750
 30
0.0
 10
-164.749450
 20
41.509587
 30
0.0
 10
-165.602110
 20
41.881260
 30
0.0
  0
SPLINE
  5
15a
100
AcDbEntity
  8
Ebene_1
 62
7
100
AcDbSpline
 70
8
 71
3
 72
8
 73
4
 74
0
 40
0
 40
0
 40
0
 40
0
 40
1
 40
1
 40
1
 40
1
 10
-165.602110
 20
41.881260
 30
0.0
 10
-166.432910
 20
42.274800
 30
0.0
 10
-167.165323
 20
42.799517
 30
0.0
 10
-167.799350
 20
43.455410
 30
0.0
  0
SPLINE
  5
15b
100
AcDbEntity
  8
Ebene_1
 62
7
100
AcDbSpline
 70
8
 71
3
 72
8
 73
4
 74
0
 40
0
 40
0
 40
0
 40
0
 40
1
 40
1
 40
1
 40
1
 10
-167.799350
 20
43.455410
 30
0.0
 10
-168.411517
 20
44.111303
 30
0.0
 10
-168.892507
 20
44.876513
 30
0.0
 10
-169.242320
 20
45.751040
 30
0.0
  0
SPLINE
  5
15c
100
AcDbEntity
  8
Ebene_1
 62
7
100
AcDbSpline
 70
8
 71
3
 72
8
 73
4
 74
0
 40
0
 40
0
 40
0
 40
0
 40
1
 40
1
 40
1
 40
1
 10
-169.242320
 20
45.751040
 30
0.0
 10
-169.570267
 20
46.625567
 30
0.0
 10
-169.734240
 20
47.554750
 30
0.0
 10
-169.734240
 20
48.538590
 30
0.0
  0
LWPOLYLINE
  5
15d
100
AcDbEntity
  8
Ebene_1
 62
7
100
AcDbPolyline
 90
1
 70
1
 10
-150.614930
 20
48.538600
 30
0.0
  0
SPLINE
  5
15e
100
AcDbEntity
  8
Ebene_1
 62
7
100
AcDbSpline
 70
8
 71
3
 72
8
 73
4
 74
0
 40
0
 40
0
 40
0
 40
0
 40
1
 40
1
 40
1
 40
1
 10
-169.734240
 20
48.604190
 30
0.0
 10
-169.734240
 20
49.588030
 30
0.0
 10
-169.570267
 20
50.506280
 30
0.0
 10
-169.242320
 20
51.358940
 30
0.0
  0
SPLINE
  5
15f
100
AcDbEntity
  8
Ebene_1
 62
7
100
AcDbSpline
 70
8
 71
3
 72
8
 73
4
 74
0
 40
0
 40
0
 40
0
 40
0
 40
1
 40
1
 40
1
 40
1
 10
-169.242320
 20
51.358940
 30
0.0
 10
-168.892507
 20
52.233467
 30
0.0
 10
-168.422450
 20
52.998677
 30
0.0
 10
-167.832150
 20
53.654570
 30
0.0
  0
SPLINE
  5
160
100
AcDbEntity
  8
Ebene_1
 62
7
100
AcDbSpline
 70
8
 71
3
 72
8
 73
4
 74
0
 40
0
 40
0
 40
0
 40
0
 40
1
 40
1
 40
1
 40
1
 10
-167.832150
 20
53.654570
 30
0.0
 10
-167.219983
 20
54.310463
 30
0.0
 10
-166.498500
 20
54.824247
 30
0.0
 10
-165.667700
 20
55.195920
 30
0.0
  0
SPLINE
  5
161
100
AcDbEntity
  8
Ebene_1
 62
7
100
AcDbSpline
 70
8
 71
3
 72
8
 73
4
 74
0
 40
0
 40
0
 40
0
 40
0
 40
1
 40
1
 40
1
 40
1
 10
-165.667700
 20
55.195920
 30
0.0
 10
-164.815033
 20
55.567593
 30
0.0
 10
-163.874917
 20
55.753430
 30
0.0
 10
-162.847350
 20
55.753430
 30
0.0
  0
SPLINE
  5
162
100
AcDbEntity
  8
Ebene_1
 62
7
100
AcDbSpline
 70
8
 71
3
 72
8
 73
4
 74
0
 40
0
 40
0
 40
0
 40
0
 40
1
 40
1
 40
1
 40
1
 10
-162.847350
 20
55.753430
 30
0.0
 10
-161.841650
 20
55.753430
 30
0.0
 10
-160.912467
 20
55.556663
 30
0.0
 10
-160.059800
 20
55.163130
 30
0.0
  0
SPLINE
  5
163
100
AcDbEntity
  8
Ebene_1
 62
7
100
AcDbSpline
 70
8
 71
3
 72
8
 73
4
 74
0
 40
0
 40
0
 40
0
 40
0
 40
1
 40
1
 40
1
 40
1
 10
-160.059800
 20
55.163130
 30
0.0
 10
-159.207140
 20
54.791457
 30
0.0
 10
-158.474727
 20
54.277673
 30
0.0
 10
-157.862560
 20
53.621780
 30
0.0
  0
SPLINE
  5
164
100
AcDbEntity
  8
Ebene_1
 62
7
100
AcDbSpline
 70
8
 71
3
 72
8
 73
4
 74
0
 40
0
 40
0
 40
0
 40
0
 40
1
 40
1
 40
1
 40
1
 10
-157.862560
 20
53.621780
 30
0.0
 10
-157.228527
 20
52.965880
 30
0.0
 10
-156.747537
 20
52.200670
 30
0.0
 10
-156.419590
 20
51.326150
 30
0.0
  0
SPLINE
  5
165
100
AcDbEntity
  8
Ebene_1
 62
7
100
AcDbSpline
 70
8
 71
3
 72
8
 73
4
 74
0
 40
0
 40
0
 40
0
 40
0
 40
1
 40
1
 40
1
 40
1
 10
-156.419590
 20
51.326150
 30
0.0
 10
-156.069783
 20
50.451623
 30
0.0
 10
-155.894880
 20
49.522440
 30
0.0
 10
-155.894880
 20
48.538600
 30
0.0
  0
LWPOLYLINE
  5
166
100
AcDbEntity
  8
Ebene_1
 62
7
100
AcDbPolyline
 90
2
 70
0
 10
-169.734240
 20
48.538590
 30
0.0
 10
-169.734240
 20
48.604190
 30
0.0
  0
LWPOLYLINE
  5
167
100
AcDbEntity
  8
Ebene_1
 62
7
100
AcDbPolyline
 90
2
 70
0
 10
-155.894880
 20
48.538600
 30
0.0
 10
-155.894880
 20
48.473000
 30
0.0
  0
LWPOLYLINE
  5
168
100
AcDbEntity
  8
Ebene_1
 62
7
100
AcDbPolyline
 90
10
 70
1
 10
-125.736560
 20
37.060450
 30
0.0
 10
-125.736560
 20
60.016740
 30
0.0
 10
-130.721360
 20
60.016740
 30
0.0
 10
-130.721360
 20
45.882230
 30
0.0
 10
-141.478020
 20
60.016740
 30
0.0
 10
-146.134870
 20
60.016740
 30
0.0
 10
-146.134870
 20
37.060450
 30
0.0
 10
-141.150070
 20
37.060450
 30
0.0
 10
-141.150070
 20
51.654090
 30
0.0
 10
-130.032670
 20
37.060450
 30
0.0
  0
LWPOLYLINE
  5
169
100
AcDbEntity
  8
Ebene_1
 62
7
100
AcDbPolyline
 90
6
 70
1
 10
-103.762060
 20
37.060450
 30
0.0
 10
-103.762060
 20
41.651710
 30
0.0
 10
-115.207410
 20
41.651710
 30
0.0
 10
-115.207410
 20
60.016740
 30
0.0
 10
-120.257800
 20
60.016740
 30
0.0
 10
-120.257800
 20
37.060450
 30
0.0
  0
SPLINE
  5
16a
100
AcDbEntity
  8
Ebene_1
 62
7
100
AcDbSpline
 70
8
 71
3
 72
8
 73
4
 74
0
 40
0
 40
0
 40
0
 40
0
 40
1
 40
1
 40
1
 40
1
 10
-72.575450
 20
252.282413
 30
0.0
 10
-73.583130
 20
252.961013
 30
0.0
 10
-74.838490
 20
254.548493
 30
0.0
 10
-74.838490
 20
255.144133
 30
0.0
  0
SPLINE
  5
16b
100
AcDbEntity
  8
Ebene_1
 62
7
100
AcDbSpline
 70
8
 71
3
 72
8
 73
4
 74
0
 40
0
 40
0
 40
0
 40
0
 40
1
 40
1
 40
1
 40
1
 10
-74.838490
 20
255.144133
 30
0.0
 10
-74.838490
 20
255.358153
 30
0.0
 10
-72.757700
 20
255.408393
 30
0.0
 10
-63.896910
 20
255.408393
 30
0.0
  0
SPLINE
  5
16c
100
AcDbEntity
  8
Ebene_1
 62
7
100
AcDbSpline
 70
8
 71
3
 72
8
 73
4
 74
0
 40
0
 40
0
 40
0
 40
0
 40
1
 40
1
 40
1
 40
1
 10
-63.896910
 20
255.408393
 30
0.0
 10
-56.458150
 20
255.408393
 30
0.0
 10
-52.955350
 20
255.340893
 30
0.0
 10
-52.955350
 20
255.197713
 30
0.0
  0
SPLINE
  5
16d
100
AcDbEntity
  8
Ebene_1
 62
7
100
AcDbSpline
 70
8
 71
3
 72
8
 73
4
 74
0
 40
0
 40
0
 40
0
 40
0
 40
1
 40
1
 40
1
 40
1
 10
-52.955350
 20
255.197713
 30
0.0
 10
-52.955350
 20
254.781863
 30
0.0
 10
-53.739800
 20
253.473193
 30
0.0
 10
-54.304500
 20
252.946953
 30
0.0
  0
SPLINE
  5
16e
100
AcDbEntity
  8
Ebene_1
 62
7
100
AcDbSpline
 70
8
 71
3
 72
8
 73
4
 74
0
 40
0
 40
0
 40
0
 40
0
 40
1
 40
1
 40
1
 40
1
 10
-54.304500
 20
252.946953
 30
0.0
 10
-54.621170
 20
252.651833
 30
0.0
 10
-55.199390
 20
252.219073
 30
0.0
 10
-55.589430
 20
251.985253
 30
0.0
  0
SPLINE
  5
16f
100
AcDbEntity
  8
Ebene_1
 62
7
100
AcDbSpline
 70
8
 71
3
 72
8
 73
4
 74
0
 40
0
 40
0
 40
0
 40
0
 40
1
 40
1
 40
1
 40
1
 10
-55.589430
 20
251.985253
 30
0.0
 10
-56.275980
 20
251.573643
 30
0.0
 10
-56.541130
 20
251.560093
 30
0.0
 10
-63.899610
 20
251.559343
 30
0.0
  0
LWPOLYLINE
  5
170
100
AcDbEntity
  8
Ebene_1
 62
7
100
AcDbPolyline
 90
9
 70
1
 10
-79.620556
 20
60.016740
 30
0.0
 10
-85.359629
 20
60.016740
 30
0.0
 10
-90.934728
 20
50.801430
 30
0.0
 10
-96.411443
 20
60.016740
 30
0.0
 10
-102.314490
 20
60.016740
 30
0.0
 10
-93.492715
 20
46.111790
 30
0.0
 10
-93.492715
 20
37.060450
 30
0.0
 10
-88.442331
 20
37.060450
 30
0.0
 10
-88.442331
 20
46.210170
 30
0.0
  0
SPLINE
  5
171
100
AcDbEntity
  8
Ebene_1
 62
7
100
AcDbSpline
 70
8
 71
3
 72
8
 73
4
 74
0
 40
0
 40
0
 40
0
 40
0
 40
1
 40
1
 40
1
 40
1
 10
-167.236310
 20
252.269413
 30
0.0
 10
-168.541630
 20
253.147833
 30
0.0
 10
-169.638320
 20
254.454563
 30
0.0
 10
-169.658170
 20
255.155133
 30
0.0
  0
SPLINE
  5
172
100
AcDbEntity
  8
Ebene_1
 62
7
100
AcDbSpline
 70
8
 71
3
 72
8
 73
4
 74
0
 40
0
 40
0
 40
0
 40
0
 40
1
 40
1
 40
1
 40
1
 10
-169.658170
 20
255.155133
 30
0.0
 10
-169.663170
 20
255.354723
 30
0.0
 10
-167.343070
 20
255.408413
 30
0.0
 10
-158.710140
 20
255.408413
 30
0.0
  0
LWPOLYLINE
  5
173
100
AcDbEntity
  8
Ebene_1
 62
7
100
AcDbPolyline
 90
4
 70
0
 10
-63.899610
 20
251.559343
 30
0.0
 10
-71.500650
 20
251.559343
 30
0.0
 10
-72.575450
 20
252.283163
 30
0.0
 10
-72.575450
 20
252.282413
 30
0.0
  0
SPLINE
  5
174
100
AcDbEntity
  8
Ebene_1
 62
7
100
AcDbSpline
 70
8
 71
3
 72
8
 73
4
 74
0
 40
0
 40
0
 40
0
 40
0
 40
1
 40
1
 40
1
 40
1
 10
-147.890160
 20
254.952533
 30
0.0
 10
-148.149100
 20
254.079623
 30
0.0
 10
-149.093950
 20
252.923073
 30
0.0
 10
-150.103700
 20
252.243073
 30
0.0
  0
LWPOLYLINE
  5
175
100
AcDbEntity
  8
Ebene_1
 62
7
100
AcDbPolyline
 90
3
 70
0
 10
-158.710140
 20
255.408413
 30
0.0
 10
-147.754920
 20
255.408413
 30
0.0
 10
-147.890160
 20
254.952533
 30
0.0
  0
SPLINE
  5
176
100
AcDbEntity
  8
Ebene_1
 62
7
100
AcDbSpline
 70
8
 71
3
 72
8
 73
4
 74
0
 40
0
 40
0
 40
0
 40
0
 40
1
 40
1
 40
1
 40
1
 10
-166.524730
 20
243.796713
 30
0.0
 10
-167.628390
 20
244.389973
 30
0.0
 10
-168.428620
 20
245.100653
 30
0.0
 10
-169.051100
 20
246.040433
 30
0.0
  0
SPLINE
  5
177
100
AcDbEntity
  8
Ebene_1
 62
7
100
AcDbSpline
 70
8
 71
3
 72
8
 73
4
 74
0
 40
0
 40
0
 40
0
 40
0
 40
1
 40
1
 40
1
 40
1
 10
-169.051100
 20
246.040433
 30
0.0
 10
-170.250180
 20
247.850673
 30
0.0
 10
-171.128440
 20
247.708793
 30
0.0
 10
-158.723800
 20
247.708793
 30
0.0
  0
SPLINE
  5
178
100
AcDbEntity
  8
Ebene_1
 62
7
100
AcDbSpline
 70
8
 71
3
 72
8
 73
4
 74
0
 40
0
 40
0
 40
0
 40
0
 40
1
 40
1
 40
1
 40
1
 10
-158.723800
 20
247.708793
 30
0.0
 10
-151.219400
 20
247.708793
 30
0.0
 10
-147.782240
 20
247.642193
 30
0.0
 10
-147.782240
 20
247.496103
 30
0.0
  0
SPLINE
  5
179
100
AcDbEntity
  8
Ebene_1
 62
7
100
AcDbSpline
 70
8
 71
3
 72
8
 73
4
 74
0
 40
0
 40
0
 40
0
 40
0
 40
1
 40
1
 40
1
 40
1
 10
-147.782240
 20
247.496103
 30
0.0
 10
-147.782240
 20
246.687993
 30
0.0
 10
-149.219300
 20
244.777203
 30
0.0
 10
-150.381240
 20
244.040293
 30
0.0
  0
LWPOLYLINE
  5
17a
100
AcDbEntity
  8
Ebene_1
 62
7
100
AcDbPolyline
 90
5
 70
0
 10
-150.103700
 20
252.243073
 30
0.0
 10
-151.120070
 20
251.558603
 30
0.0
 10
-158.650080
 20
251.558603
 30
0.0
 10
-166.180080
 20
251.558603
 30
0.0
 10
-167.236310
 20
252.269413
 30
0.0
  0
SPLINE
  5
17b
100
AcDbEntity
  8
Ebene_1
 62
7
100
AcDbSpline
 70
8
 71
3
 72
8
 73
4
 74
0
 40
0
 40
0
 40
0
 40
0
 40
1
 40
1
 40
1
 40
1
 10
-158.611500
 20
243.461753
 30
0.0
 10
-164.935010
 20
243.469753
 30
0.0
 10
-165.998560
 20
243.513853
 30
0.0
 10
-166.524730
 20
243.796603
 30
0.0
  0
LWPOLYLINE
  5
17c
100
AcDbEntity
  8
Ebene_1
 62
7
100
AcDbPolyline
 90
3
 70
0
 10
-150.381240
 20
244.040293
 30
0.0
 10
-151.306140
 20
243.453753
 30
0.0
 10
-158.611500
 20
243.461753
 30
0.0
  0
LWPOLYLINE
  5
17d
100
AcDbEntity
  8
Ebene_1
 62
7
100
AcDbPolyline
 90
2
 70
0
 10
-166.524730
 20
243.796603
 30
0.0
 10
-166.524730
 20
243.796713
 30
0.0
  0
LWPOLYLINE
  5
17e
100
AcDbEntity
  8
Ebene_1
 62
7
100
AcDbPolyline
 90
16
 70
1
 10
-74.230630
 20
241.429373
 30
0.0
 10
-74.230630
 20
247.712513
 30
0.0
 10
-63.846250
 20
247.660013
 30
0.0
 10
-53.461920
 20
247.607513
 30
0.0
 10
-53.408220
 20
241.376903
 30
0.0
 10
-53.354520
 20
235.146303
 30
0.0
 10
-55.181040
 20
235.146303
 30
0.0
 10
-57.007580
 20
235.146303
 30
0.0
 10
-57.007580
 20
239.300043
 30
0.0
 10
-57.007580
 20
243.453773
 30
0.0
 10
-63.795380
 20
243.453773
 30
0.0
 10
-70.583210
 20
243.453773
 30
0.0
 10
-70.583210
 20
239.300043
 30
0.0
 10
-70.583210
 20
235.146303
 30
0.0
 10
-72.406800
 20
235.146303
 30
0.0
 10
-74.230380
 20
235.146303
 30
0.0
  0
SPLINE
  5
17f
100
AcDbEntity
  8
Ebene_1
 62
7
100
AcDbSpline
 70
8
 71
3
 72
8
 73
4
 74
0
 40
0
 40
0
 40
0
 40
0
 40
1
 40
1
 40
1
 40
1
 10
-85.384580
 20
238.556733
 30
0.0
 10
-85.676200
 20
237.539993
 30
0.0
 10
-86.501320
 20
236.442833
 30
0.0
 10
-87.481620
 20
235.768363
 30
0.0
  0
LWPOLYLINE
  5
180
100
AcDbEntity
  8
Ebene_1
 62
7
100
AcDbPolyline
 90
9
 70
0
 10
-105.231720
 20
245.378643
 30
0.0
 10
-105.231720
 20
255.611043
 30
0.0
 10
-103.408120
 20
255.611043
 30
0.0
 10
-101.584530
 20
255.611043
 30
0.0
 10
-101.584530
 20
247.404843
 30
0.0
 10
-101.584530
 20
239.198693
 30
0.0
 10
-93.392500
 20
239.198693
 30
0.0
 10
-85.200460
 20
239.198693
 30
0.0
 10
-85.384580
 20
238.556733
 30
0.0
  0
SPLINE
  5
181
100
AcDbEntity
  8
Ebene_1
 62
7
100
AcDbSpline
 70
8
 71
3
 72
8
 73
4
 74
0
 40
0
 40
0
 40
0
 40
0
 40
1
 40
1
 40
1
 40
1
 10
-166.524730
 20
235.547853
 30
0.0
 10
-167.732130
 20
236.145653
 30
0.0
 10
-168.816580
 20
237.113523
 30
0.0
 10
-169.265990
 20
237.994483
 30
0.0
  0
SPLINE
  5
182
100
AcDbEntity
  8
Ebene_1
 62
7
100
AcDbSpline
 70
8
 71
3
 72
8
 73
4
 74
0
 40
0
 40
0
 40
0
 40
0
 40
1
 40
1
 40
1
 40
1
 10
-169.265990
 20
237.994483
 30
0.0
 10
-169.485640
 20
238.425023
 30
0.0
 10
-169.665350
 20
238.872133
 30
0.0
 10
-169.665350
 20
238.987993
 30
0.0
  0
SPLINE
  5
183
100
AcDbEntity
  8
Ebene_1
 62
7
100
AcDbSpline
 70
8
 71
3
 72
8
 73
4
 74
0
 40
0
 40
0
 40
0
 40
0
 40
1
 40
1
 40
1
 40
1
 10
-169.665350
 20
238.987993
 30
0.0
 10
-169.665350
 20
239.131183
 30
0.0
 10
-166.162550
 20
239.198693
 30
0.0
 10
-158.723800
 20
239.198693
 30
0.0
  0
SPLINE
  5
184
100
AcDbEntity
  8
Ebene_1
 62
7
100
AcDbSpline
 70
8
 71
3
 72
8
 73
4
 74
0
 40
0
 40
0
 40
0
 40
0
 40
1
 40
1
 40
1
 40
1
 10
-158.723800
 20
239.198693
 30
0.0
 10
-149.863040
 20
239.198693
 30
0.0
 10
-147.782240
 20
239.148593
 30
0.0
 10
-147.782240
 20
238.934433
 30
0.0
  0
SPLINE
  5
185
100
AcDbEntity
  8
Ebene_1
 62
7
100
AcDbSpline
 70
8
 71
3
 72
8
 73
4
 74
0
 40
0
 40
0
 40
0
 40
0
 40
1
 40
1
 40
1
 40
1
 10
-147.782240
 20
238.934433
 30
0.0
 10
-147.782240
 20
238.467063
 30
0.0
 10
-148.934180
 20
236.836193
 30
0.0
 10
-149.635180
 20
236.311163
 30
0.0
  0
SPLINE
  5
186
100
AcDbEntity
  8
Ebene_1
 62
7
100
AcDbSpline
 70
8
 71
3
 72
8
 73
4
 74
0
 40
0
 40
0
 40
0
 40
0
 40
1
 40
1
 40
1
 40
1
 10
-149.635180
 20
236.311163
 30
0.0
 10
-151.225300
 20
235.120133
 30
0.0
 10
-151.022990
 20
235.146243
 30
0.0
 10
-158.663080
 20
235.146413
 30
0.0
  0
SPLINE
  5
187
100
AcDbEntity
  8
Ebene_1
 62
7
100
AcDbSpline
 70
8
 71
3
 72
8
 73
4
 74
0
 40
0
 40
0
 40
0
 40
0
 40
1
 40
1
 40
1
 40
1
 10
-158.663080
 20
235.146413
 30
0.0
 10
-165.282920
 20
235.146563
 30
0.0
 10
-165.763830
 20
235.171113
 30
0.0
 10
-166.524730
 20
235.547853
 30
0.0
  0
LWPOLYLINE
  5
188
100
AcDbEntity
  8
Ebene_1
 62
7
100
AcDbPolyline
 90
5
 70
0
 10
-87.481620
 20
235.768363
 30
0.0
 10
-88.385830
 20
235.146243
 30
0.0
 10
-96.808770
 20
235.146243
 30
0.0
 10
-105.231720
 20
235.146243
 30
0.0
 10
-105.231720
 20
245.378643
 30
0.0
  0
SPLINE
  5
189
100
AcDbEntity
  8
Ebene_1
 62
7
100
AcDbSpline
 70
8
 71
3
 72
8
 73
4
 74
0
 40
0
 40
0
 40
0
 40
0
 40
1
 40
1
 40
1
 40
1
 10
-136.840670
 20
235.148463
 30
0.0
 10
-136.840670
 20
235.663583
 30
0.0
 10
-135.921260
 20
237.226103
 30
0.0
 10
-135.294170
 20
237.776703
 30
0.0
  0
SPLINE
  5
18a
100
AcDbEntity
  8
Ebene_1
 62
7
100
AcDbSpline
 70
8
 71
3
 72
8
 73
4
 74
0
 40
0
 40
0
 40
0
 40
0
 40
1
 40
1
 40
1
 40
1
 10
-135.294170
 20
237.776703
 30
0.0
 10
-133.665360
 20
239.206833
 30
0.0
 10
-133.716250
 20
239.198693
 30
0.0
 10
-126.413740
 20
239.198693
 30
0.0
  0
LWPOLYLINE
  5
18b
100
AcDbEntity
  8
Ebene_1
 62
7
100
AcDbPolyline
 90
1
 70
1
 10
-166.524730
 20
235.547853
 30
0.0
  0
SPLINE
  5
18c
100
AcDbEntity
  8
Ebene_1
 62
7
100
AcDbSpline
 70
8
 71
3
 72
8
 73
4
 74
0
 40
0
 40
0
 40
0
 40
0
 40
1
 40
1
 40
1
 40
1
 10
-126.506980
 20
255.611033
 30
0.0
 10
-120.823430
 20
255.611033
 30
0.0
 10
-116.173260
 20
255.576533
 30
0.0
 10
-116.173260
 20
255.534533
 30
0.0
  0
SPLINE
  5
18d
100
AcDbEntity
  8
Ebene_1
 62
7
100
AcDbSpline
 70
8
 71
3
 72
8
 73
4
 74
0
 40
0
 40
0
 40
0
 40
0
 40
1
 40
1
 40
1
 40
1
 10
-116.173260
 20
255.534533
 30
0.0
 10
-116.173260
 20
255.492333
 30
0.0
 10
-116.306720
 20
255.138713
 30
0.0
 10
-116.469700
 20
254.748523
 30
0.0
  0
SPLINE
  5
18e
100
AcDbEntity
  8
Ebene_1
 62
7
100
AcDbSpline
 70
8
 71
3
 72
8
 73
4
 74
0
 40
0
 40
0
 40
0
 40
0
 40
1
 40
1
 40
1
 40
1
 10
-116.469700
 20
254.748523
 30
0.0
 10
-116.850730
 20
253.836593
 30
0.0
 10
-117.671700
 20
252.865723
 30
0.0
 10
-118.678520
 20
252.136363
 30
0.0
  0
LWPOLYLINE
  5
18f
100
AcDbEntity
  8
Ebene_1
 62
7
100
AcDbPolyline
 90
9
 70
0
 10
-126.413740
 20
239.198693
 30
0.0
 10
-119.820470
 20
239.198693
 30
0.0
 10
-119.820470
 20
241.326203
 30
0.0
 10
-119.820470
 20
243.453753
 30
0.0
 10
-128.330590
 20
243.453753
 30
0.0
 10
-136.840670
 20
243.453753
 30
0.0
 10
-136.840670
 20
249.532373
 30
0.0
 10
-136.840670
 20
255.611033
 30
0.0
 10
-126.506980
 20
255.611033
 30
0.0
  0
SPLINE
  5
190
100
AcDbEntity
  8
Ebene_1
 62
7
100
AcDbSpline
 70
8
 71
3
 72
8
 73
4
 74
0
 40
0
 40
0
 40
0
 40
0
 40
1
 40
1
 40
1
 40
1
 10
-126.405660
 20
234.943693
 30
0.0
 10
-133.302240
 20
234.943693
 30
0.0
 10
-136.840670
 20
235.013093
 30
0.0
 10
-136.840670
 20
235.148513
 30
0.0
  0
LWPOLYLINE
  5
191
100
AcDbEntity
  8
Ebene_1
 62
7
100
AcDbPolyline
 90
11
 70
0
 10
-118.678520
 20
252.136363
 30
0.0
 10
-119.476040
 20
251.558673
 30
0.0
 10
-126.334770
 20
251.558673
 30
0.0
 10
-133.193480
 20
251.558673
 30
0.0
 10
-133.193480
 20
249.532463
 30
0.0
 10
-133.193480
 20
247.506253
 30
0.0
 10
-124.582080
 20
247.506253
 30
0.0
 10
-115.970660
 20
247.506253
 30
0.0
 10
-115.970660
 20
241.224943
 30
0.0
 10
-115.970660
 20
234.943693
 30
0.0
 10
-126.405660
 20
234.943693
 30
0.0
  0
LWPOLYLINE
  5
192
100
AcDbEntity
  8
Ebene_1
 62
7
100
AcDbPolyline
 90
1
 70
1
 10
-136.840670
 20
235.148513
 30
0.0
  0
SPLINE
  5
193
100
AcDbEntity
  8
Ebene_1
 62
7
100
AcDbSpline
 70
8
 71
3
 72
8
 73
4
 74
0
 40
0
 40
0
 40
0
 40
0
 40
1
 40
1
 40
1
 40
1
 10
-200.690000
 20
252.333403
 30
0.0
 10
-201.204450
 20
252.703783
 30
0.0
 10
-201.805780
 20
253.250853
 30
0.0
 10
-202.026300
 20
253.549133
 30
0.0
  0
SPLINE
  5
194
100
AcDbEntity
  8
Ebene_1
 62
7
100
AcDbSpline
 70
8
 71
3
 72
8
 73
4
 74
0
 40
0
 40
0
 40
0
 40
0
 40
1
 40
1
 40
1
 40
1
 10
-202.026300
 20
253.549133
 30
0.0
 10
-202.442270
 20
254.111783
 30
0.0
 10
-203.097890
 20
255.305203
 30
0.0
 10
-203.097890
 20
255.499733
 30
0.0
  0
SPLINE
  5
195
100
AcDbEntity
  8
Ebene_1
 62
7
100
AcDbSpline
 70
8
 71
3
 72
8
 73
4
 74
0
 40
0
 40
0
 40
0
 40
0
 40
1
 40
1
 40
1
 40
1
 10
-203.097890
 20
255.499733
 30
0.0
 10
-203.097890
 20
255.561033
 30
0.0
 10
-197.672720
 20
255.611143
 30
0.0
 10
-191.041920
 20
255.611143
 30
0.0
  0
SPLINE
  5
196
100
AcDbEntity
  8
Ebene_1
 62
7
100
AcDbSpline
 70
8
 71
3
 72
8
 73
4
 74
0
 40
0
 40
0
 40
0
 40
0
 40
1
 40
1
 40
1
 40
1
 10
-191.041920
 20
255.611143
 30
0.0
 10
-182.831760
 20
255.611143
 30
0.0
 10
-178.985950
 20
255.544043
 30
0.0
 10
-178.985950
 20
255.400443
 30
0.0
  0
SPLINE
  5
197
100
AcDbEntity
  8
Ebene_1
 62
7
100
AcDbSpline
 70
8
 71
3
 72
8
 73
4
 74
0
 40
0
 40
0
 40
0
 40
0
 40
1
 40
1
 40
1
 40
1
 10
-178.985950
 20
255.400443
 30
0.0
 10
-178.985950
 20
254.932133
 30
0.0
 10
-179.808000
 20
253.643673
 30
0.0
 10
-180.539100
 20
252.966113
 30
0.0
  0
SPLINE
  5
198
100
AcDbEntity
  8
Ebene_1
 62
7
100
AcDbSpline
 70
8
 71
3
 72
8
 73
4
 74
0
 40
0
 40
0
 40
0
 40
0
 40
1
 40
1
 40
1
 40
1
 10
-180.539100
 20
252.966113
 30
0.0
 10
-181.990050
 20
251.621393
 30
0.0
 10
-181.825380
 20
251.667623
 30
0.0
 10
-185.550810
 20
251.558703
 30
0.0
  0
LWPOLYLINE
  5
199
100
AcDbEntity
  8
Ebene_1
 62
7
100
AcDbPolyline
 90
5
 70
0
 10
-193.015230
 20
243.200453
 30
0.0
 10
-193.068130
 20
251.457303
 30
0.0
 10
-196.411400
 20
251.558653
 30
0.0
 10
-199.754650
 20
251.660003
 30
0.0
 10
-200.690000
 20
252.333403
 30
0.0
  0
LWPOLYLINE
  5
19a
100
AcDbEntity
  8
Ebene_1
 62
7
100
AcDbPolyline
 90
7
 70
0
 10
-185.550810
 20
251.558703
 30
0.0
 10
-189.015700
 20
251.457353
 30
0.0
 10
-189.068700
 20
243.200503
 30
0.0
 10
-189.121600
 20
234.943683
 30
0.0
 10
-191.041960
 20
234.943683
 30
0.0
 10
-192.962330
 20
234.943683
 30
0.0
 10
-193.015230
 20
243.200453
 30
0.0
  0
SPLINE
  5
19b
100
AcDbEntity
  8
Ebene_1
 62
7
100
AcDbSpline
 70
8
 71
3
 72
8
 73
4
 74
0
 40
0
 40
0
 40
0
 40
0
 40
1
 40
1
 40
1
 40
1
 10
-191.065870
 20
288.777903
 30
0.0
 10
-210.360440
 20
288.777903
 30
0.0
 10
-226.001090
 20
273.158363
 30
0.0
 10
-226.001090
 20
253.889843
 30
0.0
  0
LWPOLYLINE
  5
19c
100
AcDbEntity
  8
Ebene_1
 62
7
100
AcDbPolyline
 90
4
 70
1
 10
-237.826620
 20
298.777903
 30
0.0
 10
-18.226610
 20
298.777903
 30
0.0
 10
-18.226610
 20
-0.822080
 30
0.0
 10
-237.826620
 20
-0.822080
 30
0.0
  0
SPLINE
  5
19d
100
AcDbEntity
  8
Ebene_1
 62
7
100
AcDbSpline
 70
8
 71
3
 72
8
 73
4
 74
0
 40
0
 40
0
 40
0
 40
0
 40
1
 40
1
 40
1
 40
1
 10
-226.001090
 20
44.043930
 30
0.0
 10
-226.001090
 20
24.775400
 30
0.0
 10
-210.360440
 20
9.155860
 30
0.0
 10
-191.065870
 20
9.155860
 30
0.0
  0
LWPOLYLINE
  5
19e
100
AcDbEntity
  8
Ebene_1
 62
7
100
AcDbPolyline
 90
2
 70
0
 10
-226.001090
 20
253.889843
 30
0.0
 10
-226.001090
 20
44.043930
 30
0.0
  0
SPLINE
  5
19f
100
AcDbEntity
  8
Ebene_1
 62
7
100
AcDbSpline
 70
8
 71
3
 72
8
 73
4
 74
0
 40
0
 40
0
 40
0
 40
0
 40
1
 40
1
 40
1
 40
1
 10
-64.987370
 20
9.155860
 30
0.0
 10
-45.692800
 20
9.155860
 30
0.0
 10
-30.052150
 20
24.775400
 30
0.0
 10
-30.052150
 20
44.043930
 30
0.0
  0
LWPOLYLINE
  5
1a0
100
AcDbEntity
  8
Ebene_1
 62
7
100
AcDbPolyline
 90
2
 70
0
 10
-191.065870
 20
9.155860
 30
0.0
 10
-64.987370
 20
9.155860
 30
0.0
  0
SPLINE
  5
1a1
100
AcDbEntity
  8
Ebene_1
 62
7
100
AcDbSpline
 70
8
 71
3
 72
8
 73
4
 74
0
 40
0
 40
0
 40
0
 40
0
 40
1
 40
1
 40
1
 40
1
 10
-30.052150
 20
253.889843
 30
0.0
 10
-30.052150
 20
273.158363
 30
0.0
 10
-45.692800
 20
288.777903
 30
0.0
 10
-64.987370
 20
288.777903
 30
0.0
  0
LWPOLYLINE
  5
1a2
100
AcDbEntity
  8
Ebene_1
 62
7
100
AcDbPolyline
 90
2
 70
0
 10
-30.052150
 20
44.043930
 30
0.0
 10
-30.052150
 20
253.889843
 30
0.0
  0
LWPOLYLINE
  5
1a3
100
AcDbEntity
  8
Ebene_1
 62
7
100
AcDbPolyline
 90
2
 70
0
 10
-64.987370
 20
288.777903
 30
0.0
 10
-191.065870
 20
288.777903
 30
0.0
  0
SPLINE
  5
1a4
100
AcDbEntity
  8
Ebene_1
 62
7
100
AcDbSpline
 70
8
 71
3
 72
8
 73
4
 74
0
 40
0
 40
0
 40
0
 40
0
 40
1
 40
1
 40
1
 40
1
 10
-64.987370
 20
281.957853
 30
0.0
 10
-49.358090
 20
281.957853
 30
0.0
 10
-36.881420
 20
269.498013
 30
0.0
 10
-36.881420
 20
253.889843
 30
0.0
  0
LWPOLYLINE
  5
1a5
100
AcDbEntity
  8
Ebene_1
 62
7
100
AcDbPolyline
 90
2
 70
0
 10
-191.065870
 20
281.957853
 30
0.0
 10
-64.987370
 20
281.957853
 30
0.0
  0
SPLINE
  5
1a6
100
AcDbEntity
  8
Ebene_1
 62
7
100
AcDbSpline
 70
8
 71
3
 72
8
 73
4
 74
0
 40
0
 40
0
 40
0
 40
0
 40
1
 40
1
 40
1
 40
1
 10
-36.881420
 20
44.043930
 30
0.0
 10
-36.881420
 20
28.435750
 30
0.0
 10
-49.358090
 20
15.975920
 30
0.0
 10
-64.987370
 20
15.975920
 30
0.0
  0
LWPOLYLINE
  5
1a7
100
AcDbEntity
  8
Ebene_1
 62
7
100
AcDbPolyline
 90
2
 70
0
 10
-36.881420
 20
253.889843
 30
0.0
 10
-36.881420
 20
44.043930
 30
0.0
  0
SPLINE
  5
1a8
100
AcDbEntity
  8
Ebene_1
 62
7
100
AcDbSpline
 70
8
 71
3
 72
8
 73
4
 74
0
 40
0
 40
0
 40
0
 40
0
 40
1
 40
1
 40
1
 40
1
 10
-191.065870
 20
15.975920
 30
0.0
 10
-206.695160
 20
15.975920
 30
0.0
 10
-219.171820
 20
28.435750
 30
0.0
 10
-219.171820
 20
44.043930
 30
0.0
  0
LWPOLYLINE
  5
1a9
100
AcDbEntity
  8
Ebene_1
 62
7
100
AcDbPolyline
 90
2
 70
0
 10
-64.987370
 20
15.975920
 30
0.0
 10
-191.065870
 20
15.975920
 30
0.0
  0
SPLINE
  5
1aa
100
AcDbEntity
  8
Ebene_1
 62
7
100
AcDbSpline
 70
8
 71
3
 72
8
 73
4
 74
0
 40
0
 40
0
 40
0
 40
0
 40
1
 40
1
 40
1
 40
1
 10
-219.171820
 20
253.889843
 30
0.0
 10
-219.171820
 20
269.498013
 30
0.0
 10
-206.695160
 20
281.957853
 30
0.0
 10
-191.065870
 20
281.957853
 30
0.0
  0
LWPOLYLINE
  5
1ab
100
AcDbEntity
  8
Ebene_1
 62
7
100
AcDbPolyline
 90
2
 70
0
 10
-219.171820
 20
44.043930
 30
0.0
 10
-219.171820
 20
253.889843
 30
0.0
  0
SPLINE
  5
1ac
100
AcDbEntity
  8
Ebene_1
 62
7
100
AcDbSpline
 70
8
 71
3
 72
8
 73
4
 74
0
 40
0
 40
0
 40
0
 40
0
 40
1
 40
1
 40
1
 40
1
 10
-202.940300
 20
30.986230
 30
0.0
 10
-202.940306
 20
29.605522
 30
0.0
 10
-204.059592
 20
28.486240
 30
0.0
 10
-205.440300
 20
28.486240
 30
0.0
  0
SPLINE
  5
1ad
100
AcDbEntity
  8
Ebene_1
 62
7
100
AcDbSpline
 70
8
 71
3
 72
8
 73
4
 74
0
 40
0
 40
0
 40
0
 40
0
 40
1
 40
1
 40
1
 40
1
 10
-205.440300
 20
28.486240
 30
0.0
 10
-206.821008
 20
28.486240
 30
0.0
 10
-207.940294
 20
29.605522
 30
0.0
 10
-207.940300
 20
30.986230
 30
0.0
  0
SPLINE
  5
1ae
100
AcDbEntity
  8
Ebene_1
 62
7
100
AcDbSpline
 70
8
 71
3
 72
8
 73
4
 74
0
 40
0
 40
0
 40
0
 40
0
 40
1
 40
1
 40
1
 40
1
 10
-207.940300
 20
30.986230
 30
0.0
 10
-207.940300
 20
31.649271
 30
0.0
 10
-207.676908
 20
32.285156
 30
0.0
 10
-207.208067
 20
32.753997
 30
0.0
  0
SPLINE
  5
1af
100
AcDbEntity
  8
Ebene_1
 62
7
100
AcDbSpline
 70
8
 71
3
 72
8
 73
4
 74
0
 40
0
 40
0
 40
0
 40
0
 40
1
 40
1
 40
1
 40
1
 10
-207.208067
 20
32.753997
 30
0.0
 10
-206.739226
 20
33.222838
 30
0.0
 10
-206.103341
 20
33.486230
 30
0.0
 10
-205.440300
 20
33.486230
 30
0.0
  0
SPLINE
  5
1b0
100
AcDbEntity
  8
Ebene_1
 62
7
100
AcDbSpline
 70
8
 71
3
 72
8
 73
4
 74
0
 40
0
 40
0
 40
0
 40
0
 40
1
 40
1
 40
1
 40
1
 10
-205.440300
 20
33.486230
 30
0.0
 10
-204.777259
 20
33.486230
 30
0.0
 10
-204.141374
 20
33.222838
 30
0.0
 10
-203.672533
 20
32.753997
 30
0.0
  0
SPLINE
  5
1b1
100
AcDbEntity
  8
Ebene_1
 62
7
100
AcDbSpline
 70
8
 71
3
 72
8
 73
4
 74
0
 40
0
 40
0
 40
0
 40
0
 40
1
 40
1
 40
1
 40
1
 10
-203.672533
 20
32.753997
 30
0.0
 10
-203.203692
 20
32.285156
 30
0.0
 10
-202.940300
 20
31.649271
 30
0.0
 10
-202.940300
 20
30.986230
 30
0.0
  0
LWPOLYLINE
  5
1b2
100
AcDbEntity
  8
Ebene_1
 62
7
100
AcDbPolyline
 90
1
 70
1
 10
-191.065870
 20
281.957853
 30
0.0
  0
SPLINE
  5
1b3
100
AcDbEntity
  8
Ebene_1
 62
7
100
AcDbSpline
 70
8
 71
3
 72
8
 73
4
 74
0
 40
0
 40
0
 40
0
 40
0
 40
1
 40
1
 40
1
 40
1
 10
-48.026620
 20
31.277910
 30
0.0
 10
-48.026615
 20
30.614865
 30
0.0
 10
-48.290004
 20
29.978975
 30
0.0
 10
-48.758846
 20
29.510130
 30
0.0
  0
SPLINE
  5
1b4
100
AcDbEntity
  8
Ebene_1
 62
7
100
AcDbSpline
 70
8
 71
3
 72
8
 73
4
 74
0
 40
0
 40
0
 40
0
 40
0
 40
1
 40
1
 40
1
 40
1
 10
-48.758846
 20
29.510130
 30
0.0
 10
-49.227687
 20
29.041285
 30
0.0
 10
-49.863575
 20
28.777890
 30
0.0
 10
-50.526620
 20
28.777890
 30
0.0
  0
SPLINE
  5
1b5
100
AcDbEntity
  8
Ebene_1
 62
7
100
AcDbSpline
 70
8
 71
3
 72
8
 73
4
 74
0
 40
0
 40
0
 40
0
 40
0
 40
1
 40
1
 40
1
 40
1
 10
-50.526620
 20
28.777890
 30
0.0
 10
-51.189665
 20
28.777890
 30
0.0
 10
-51.825553
 20
29.041285
 30
0.0
 10
-52.294394
 20
29.510130
 30
0.0
  0
SPLINE
  5
1b6
100
AcDbEntity
  8
Ebene_1
 62
7
100
AcDbSpline
 70
8
 71
3
 72
8
 73
4
 74
0
 40
0
 40
0
 40
0
 40
0
 40
1
 40
1
 40
1
 40
1
 10
-52.294394
 20
29.510130
 30
0.0
 10
-52.763236
 20
29.978975
 30
0.0
 10
-53.026625
 20
30.614865
 30
0.0
 10
-53.026620
 20
31.277910
 30
0.0
  0
SPLINE
  5
1b7
100
AcDbEntity
  8
Ebene_1
 62
7
100
AcDbSpline
 70
8
 71
3
 72
8
 73
4
 74
0
 40
0
 40
0
 40
0
 40
0
 40
1
 40
1
 40
1
 40
1
 10
-53.026620
 20
31.277910
 30
0.0
 10
-53.026614
 20
32.658618
 30
0.0
 10
-51.907328
 20
33.777900
 30
0.0
 10
-50.526620
 20
33.777900
 30
0.0
  0
SPLINE
  5
1b8
100
AcDbEntity
  8
Ebene_1
 62
7
100
AcDbSpline
 70
8
 71
3
 72
8
 73
4
 74
0
 40
0
 40
0
 40
0
 40
0
 40
1
 40
1
 40
1
 40
1
 10
-50.526620
 20
33.777900
 30
0.0
 10
-49.145912
 20
33.777900
 30
0.0
 10
-48.026626
 20
32.658618
 30
0.0
 10
-48.026620
 20
31.277910
 30
0.0
  0
LWPOLYLINE
  5
1b9
100
AcDbEntity
  8
Ebene_1
 62
7
100
AcDbPolyline
 90
1
 70
1
 10
-202.940300
 20
30.986230
 30
0.0
  0
SPLINE
  5
1ba
100
AcDbEntity
  8
Ebene_1
 62
7
100
AcDbSpline
 70
8
 71
3
 72
8
 73
4
 74
0
 40
0
 40
0
 40
0
 40
0
 40
1
 40
1
 40
1
 40
1
 10
-47.648640
 20
266.364203
 30
0.0
 10
-47.648646
 20
264.983495
 30
0.0
 10
-48.767932
 20
263.864213
 30
0.0
 10
-50.148640
 20
263.864213
 30
0.0
  0
SPLINE
  5
1bb
100
AcDbEntity
  8
Ebene_1
 62
7
100
AcDbSpline
 70
8
 71
3
 72
8
 73
4
 74
0
 40
0
 40
0
 40
0
 40
0
 40
1
 40
1
 40
1
 40
1
 10
-50.148640
 20
263.864213
 30
0.0
 10
-51.529348
 20
263.864213
 30
0.0
 10
-52.648634
 20
264.983495
 30
0.0
 10
-52.648640
 20
266.364203
 30
0.0
  0
SPLINE
  5
1bc
100
AcDbEntity
  8
Ebene_1
 62
7
100
AcDbSpline
 70
8
 71
3
 72
8
 73
4
 74
0
 40
0
 40
0
 40
0
 40
0
 40
1
 40
1
 40
1
 40
1
 10
-52.648640
 20
266.364203
 30
0.0
 10
-52.648643
 20
267.027246
 30
0.0
 10
-52.385252
 20
267.663133
 30
0.0
 10
-51.916410
 20
268.131976
 30
0.0
  0
SPLINE
  5
1bd
100
AcDbEntity
  8
Ebene_1
 62
7
100
AcDbSpline
 70
8
 71
3
 72
8
 73
4
 74
0
 40
0
 40
0
 40
0
 40
0
 40
1
 40
1
 40
1
 40
1
 10
-51.916410
 20
268.131976
 30
0.0
 10
-51.447569
 20
268.600820
 30
0.0
 10
-50.811683
 20
268.864213
 30
0.0
 10
-50.148640
 20
268.864213
 30
0.0
  0
SPLINE
  5
1be
100
AcDbEntity
  8
Ebene_1
 62
7
100
AcDbSpline
 70
8
 71
3
 72
8
 73
4
 74
0
 40
0
 40
0
 40
0
 40
0
 40
1
 40
1
 40
1
 40
1
 10
-50.148640
 20
268.864213
 30
0.0
 10
-49.485597
 20
268.864213
 30
0.0
 10
-48.849711
 20
268.600820
 30
0.0
 10
-48.380870
 20
268.131976
 30
0.0
  0
SPLINE
  5
1bf
100
AcDbEntity
  8
Ebene_1
 62
7
100
AcDbSpline
 70
8
 71
3
 72
8
 73
4
 74
0
 40
0
 40
0
 40
0
 40
0
 40
1
 40
1
 40
1
 40
1
 10
-48.380870
 20
268.131976
 30
0.0
 10
-47.912028
 20
267.663133
 30
0.0
 10
-47.648637
 20
267.027246
 30
0.0
 10
-47.648640
 20
266.364203
 30
0.0
  0
LWPOLYLINE
  5
1c0
100
AcDbEntity
  8
Ebene_1
 62
7
100
AcDbPolyline
 90
1
 70
1
 10
-48.026620
 20
31.277910
 30
0.0
  0
SPLINE
  5
1c1
100
AcDbEntity
  8
Ebene_1
 62
7
100
AcDbSpline
 70
8
 71
3
 72
8
 73
4
 74
0
 40
0
 40
0
 40
0
 40
0
 40
1
 40
1
 40
1
 40
1
 10
-202.648640
 20
266.364203
 30
0.0
 10
-202.648646
 20
264.983495
 30
0.0
 10
-203.767932
 20
263.864213
 30
0.0
 10
-205.148640
 20
263.864213
 30
0.0
  0
SPLINE
  5
1c2
100
AcDbEntity
  8
Ebene_1
 62
7
100
AcDbSpline
 70
8
 71
3
 72
8
 73
4
 74
0
 40
0
 40
0
 40
0
 40
0
 40
1
 40
1
 40
1
 40
1
 10
-205.148640
 20
263.864213
 30
0.0
 10
-206.529348
 20
263.864213
 30
0.0
 10
-207.648634
 20
264.983495
 30
0.0
 10
-207.648640
 20
266.364203
 30
0.0
  0
SPLINE
  5
1c3
100
AcDbEntity
  8
Ebene_1
 62
7
100
AcDbSpline
 70
8
 71
3
 72
8
 73
4
 74
0
 40
0
 40
0
 40
0
 40
0
 40
1
 40
1
 40
1
 40
1
 10
-207.648640
 20
266.364203
 30
0.0
 10
-207.648643
 20
267.027246
 30
0.0
 10
-207.385252
 20
267.663133
 30
0.0
 10
-206.916410
 20
268.131976
 30
0.0
  0
SPLINE
  5
1c4
100
AcDbEntity
  8
Ebene_1
 62
7
100
AcDbSpline
 70
8
 71
3
 72
8
 73
4
 74
0
 40
0
 40
0
 40
0
 40
0
 40
1
 40
1
 40
1
 40
1
 10
-206.916410
 20
268.131976
 30
0.0
 10
-206.447569
 20
268.600820
 30
0.0
 10
-205.811683
 20
268.864213
 30
0.0
 10
-205.148640
 20
268.864213
 30
0.0
  0
SPLINE
  5
1c5
100
AcDbEntity
  8
Ebene_1
 62
7
100
AcDbSpline
 70
8
 71
3
 72
8
 73
4
 74
0
 40
0
 40
0
 40
0
 40
0
 40
1
 40
1
 40
1
 40
1
 10
-205.148640
 20
268.864213
 30
0.0
 10
-204.485597
 20
268.864213
 30
0.0
 10
-203.849711
 20
268.600820
 30
0.0
 10
-203.380870
 20
268.131976
 30
0.0
  0
SPLINE
  5
1c6
100
AcDbEntity
  8
Ebene_1
 62
7
100
AcDbSpline
 70
8
 71
3
 72
8
 73
4
 74
0
 40
0
 40
0
 40
0
 40
0
 40
1
 40
1
 40
1
 40
1
 10
-203.380870
 20
268.131976
 30
0.0
 10
-202.912028
 20
267.663133
 30
0.0
 10
-202.648637
 20
267.027246
 30
0.0
 10
-202.648640
 20
266.364203
 30
0.0
  0
LWPOLYLINE
  5
1c7
100
AcDbEntity
  8
Ebene_1
 62
7
100
AcDbPolyline
 90
1
 70
1
 10
-47.648640
 20
266.364203
 30
0.0
  0
SPLINE
  5
1c8
100
AcDbEntity
  8
Ebene_1
 62
7
100
AcDbSpline
 70
8
 71
3
 72
8
 73
4
 74
0
 40
0
 40
0
 40
0
 40
0
 40
1
 40
1
 40
1
 40
1
 10
-127.590520
 20
102.271870
 30
0.0
 10
-127.784530
 20
103.295070
 30
0.0
 10
-144.478670
 20
196.497670
 30
0.0
 10
-144.478670
 20
196.557620
 30
0.0
  0
SPLINE
  5
1c9
100
AcDbEntity
  8
Ebene_1
 62
7
100
AcDbSpline
 70
8
 71
3
 72
8
 73
4
 74
0
 40
0
 40
0
 40
0
 40
0
 40
1
 40
1
 40
1
 40
1
 10
-144.478670
 20
196.557620
 30
0.0
 10
-144.478670
 20
196.642820
 30
0.0
 10
-149.409400
 20
196.518120
 30
0.0
 10
-151.887830
 20
196.370280
 30
0.0
  0
SPLINE
  5
1ca
100
AcDbEntity
  8
Ebene_1
 62
7
100
AcDbSpline
 70
8
 71
3
 72
8
 73
4
 74
0
 40
0
 40
0
 40
0
 40
0
 40
1
 40
1
 40
1
 40
1
 10
-151.887830
 20
196.370280
 30
0.0
 10
-159.263490
 20
195.930430
 30
0.0
 10
-163.057000
 20
194.638820
 30
0.0
 10
-164.890500
 20
191.943150
 30
0.0
  0
SPLINE
  5
1cb
100
AcDbEntity
  8
Ebene_1
 62
7
100
AcDbSpline
 70
8
 71
3
 72
8
 73
4
 74
0
 40
0
 40
0
 40
0
 40
0
 40
1
 40
1
 40
1
 40
1
 10
-164.890500
 20
191.943150
 30
0.0
 10
-165.566500
 20
190.949270
 30
0.0
 10
-165.848720
 20
190.240610
 30
0.0
 10
-166.143750
 20
188.796470
 30
0.0
  0
SPLINE
  5
1cc
100
AcDbEntity
  8
Ebene_1
 62
7
100
AcDbSpline
 70
8
 71
3
 72
8
 73
4
 74
0
 40
0
 40
0
 40
0
 40
0
 40
1
 40
1
 40
1
 40
1
 10
-166.143750
 20
188.796470
 30
0.0
 10
-166.263620
 20
188.209700
 30
0.0
 10
-166.383560
 20
187.707750
 30
0.0
 10
-166.410270
 20
187.681040
 30
0.0
  0
SPLINE
  5
1cd
100
AcDbEntity
  8
Ebene_1
 62
7
100
AcDbSpline
 70
8
 71
3
 72
8
 73
4
 74
0
 40
0
 40
0
 40
0
 40
0
 40
1
 40
1
 40
1
 40
1
 10
-166.410270
 20
187.681040
 30
0.0
 10
-166.500070
 20
187.591240
 30
0.0
 10
-169.565230
 20
189.047670
 30
0.0
 10
-171.100980
 20
189.909870
 30
0.0
  0
SPLINE
  5
1ce
100
AcDbEntity
  8
Ebene_1
 62
7
100
AcDbSpline
 70
8
 71
3
 72
8
 73
4
 74
0
 40
0
 40
0
 40
0
 40
0
 40
1
 40
1
 40
1
 40
1
 10
-171.100980
 20
189.909870
 30
0.0
 10
-175.694430
 20
192.488720
 30
0.0
 10
-179.300650
 20
195.474600
 30
0.0
 10
-181.753880
 20
198.730285
 30
0.0
  0
SPLINE
  5
1cf
100
AcDbEntity
  8
Ebene_1
 62
7
100
AcDbSpline
 70
8
 71
3
 72
8
 73
4
 74
0
 40
0
 40
0
 40
0
 40
0
 40
1
 40
1
 40
1
 40
1
 10
-181.753880
 20
198.730285
 30
0.0
 10
-182.114300
 20
199.208587
 30
0.0
 10
-182.409180
 20
199.639082
 30
0.0
 10
-182.409180
 20
199.686933
 30
0.0
  0
SPLINE
  5
1d0
100
AcDbEntity
  8
Ebene_1
 62
7
100
AcDbSpline
 70
8
 71
3
 72
8
 73
4
 74
0
 40
0
 40
0
 40
0
 40
0
 40
1
 40
1
 40
1
 40
1
 10
-182.409180
 20
199.686933
 30
0.0
 10
-182.409180
 20
199.734803
 30
0.0
 10
-182.222560
 20
199.851165
 30
0.0
 10
-181.994490
 20
199.945553
 30
0.0
  0
SPLINE
  5
1d1
100
AcDbEntity
  8
Ebene_1
 62
7
100
AcDbSpline
 70
8
 71
3
 72
8
 73
4
 74
0
 40
0
 40
0
 40
0
 40
0
 40
1
 40
1
 40
1
 40
1
 10
-181.994490
 20
199.945553
 30
0.0
 10
-181.766410
 20
200.039943
 30
0.0
 10
-180.783580
 20
200.463551
 30
0.0
 10
-179.810440
 20
200.886912
 30
0.0
  0
SPLINE
  5
1d2
100
AcDbEntity
  8
Ebene_1
 62
7
100
AcDbSpline
 70
8
 71
3
 72
8
 73
4
 74
0
 40
0
 40
0
 40
0
 40
0
 40
1
 40
1
 40
1
 40
1
 10
-179.810440
 20
200.886912
 30
0.0
 10
-168.660660
 20
205.737549
 30
0.0
 10
-154.167630
 20
209.128050
 30
0.0
 10
-141.161130
 20
209.928530
 30
0.0
  0
LWPOLYLINE
  5
1d3
100
AcDbEntity
  8
Ebene_1
 62
7
100
AcDbPolyline
 90
1
 70
1
 10
-202.648640
 20
266.364203
 30
0.0
  0
SPLINE
  5
1d4
100
AcDbEntity
  8
Ebene_1
 62
7
100
AcDbSpline
 70
8
 71
3
 72
8
 73
4
 74
0
 40
0
 40
0
 40
0
 40
0
 40
1
 40
1
 40
1
 40
1
 10
-133.767550
 20
202.405531
 30
0.0
 10
-130.339710
 20
198.228580
 30
0.0
 10
-127.497180
 20
194.852920
 30
0.0
 10
-127.450840
 20
194.904060
 30
0.0
  0
SPLINE
  5
1d5
100
AcDbEntity
  8
Ebene_1
 62
7
100
AcDbSpline
 70
8
 71
3
 72
8
 73
4
 74
0
 40
0
 40
0
 40
0
 40
0
 40
1
 40
1
 40
1
 40
1
 10
-127.450840
 20
194.904060
 30
0.0
 10
-127.404440
 20
194.955160
 30
0.0
 10
-124.622370
 20
198.341186
 30
0.0
 10
-121.268390
 20
202.428445
 30
0.0
  0
SPLINE
  5
1d6
100
AcDbEntity
  8
Ebene_1
 62
7
100
AcDbSpline
 70
8
 71
3
 72
8
 73
4
 74
0
 40
0
 40
0
 40
0
 40
0
 40
1
 40
1
 40
1
 40
1
 10
-121.268390
 20
202.428445
 30
0.0
 10
-117.914380
 20
206.515707
 30
0.0
 10
-115.118960
 20
209.891499
 30
0.0
 10
-115.056360
 20
209.930200
 30
0.0
  0
SPLINE
  5
1d7
100
AcDbEntity
  8
Ebene_1
 62
7
100
AcDbSpline
 70
8
 71
3
 72
8
 73
4
 74
0
 40
0
 40
0
 40
0
 40
0
 40
1
 40
1
 40
1
 40
1
 10
-115.056360
 20
209.930200
 30
0.0
 10
-114.925740
 20
210.010920
 30
0.0
 10
-112.136350
 20
209.831010
 30
0.0
 10
-109.699820
 20
209.584723
 30
0.0
  0
SPLINE
  5
1d8
100
AcDbEntity
  8
Ebene_1
 62
7
100
AcDbSpline
 70
8
 71
3
 72
8
 73
4
 74
0
 40
0
 40
0
 40
0
 40
0
 40
1
 40
1
 40
1
 40
1
 10
-109.699820
 20
209.584723
 30
0.0
 10
-99.424616
 20
208.546074
 30
0.0
 10
-89.104759
 20
206.168391
 30
0.0
 10
-79.731411
 20
202.680023
 30
0.0
  0
SPLINE
  5
1d9
100
AcDbEntity
  8
Ebene_1
 62
7
100
AcDbSpline
 70
8
 71
3
 72
8
 73
4
 74
0
 40
0
 40
0
 40
0
 40
0
 40
1
 40
1
 40
1
 40
1
 10
-79.731411
 20
202.680023
 30
0.0
 10
-77.519251
 20
201.856746
 30
0.0
 10
-73.960881
 20
200.387342
 30
0.0
 10
-73.032841
 20
199.913896
 30
0.0
  0
LWPOLYLINE
  5
1da
100
AcDbEntity
  8
Ebene_1
 62
7
100
AcDbPolyline
 90
3
 70
0
 10
-141.161130
 20
209.928530
 30
0.0
 10
-140.000000
 20
210.000000
 30
0.0
 10
-133.767550
 20
202.405531
 30
0.0
  0
SPLINE
  5
1db
100
AcDbEntity
  8
Ebene_1
 62
7
100
AcDbSpline
 70
8
 71
3
 72
8
 73
4
 74
0
 40
0
 40
0
 40
0
 40
0
 40
1
 40
1
 40
1
 40
1
 10
-73.158551
 20
198.923804
 30
0.0
 10
-75.331931
 20
195.935660
 30
0.0
 10
-78.739141
 20
192.999170
 30
0.0
 10
-82.958631
 20
190.477600
 30
0.0
  0
SPLINE
  5
1dc
100
AcDbEntity
  8
Ebene_1
 62
7
100
AcDbSpline
 70
8
 71
3
 72
8
 73
4
 74
0
 40
0
 40
0
 40
0
 40
0
 40
1
 40
1
 40
1
 40
1
 10
-82.958631
 20
190.477600
 30
0.0
 10
-84.119071
 20
189.784110
 30
0.0
 10
-87.960534
 20
187.856030
 30
0.0
 10
-88.484311
 20
187.704170
 30
0.0
  0
SPLINE
  5
1dd
100
AcDbEntity
  8
Ebene_1
 62
7
100
AcDbSpline
 70
8
 71
3
 72
8
 73
4
 74
0
 40
0
 40
0
 40
0
 40
0
 40
1
 40
1
 40
1
 40
1
 10
-88.484311
 20
187.704170
 30
0.0
 10
-88.700452
 20
187.641470
 30
0.0
 10
-88.729434
 20
187.688570
 30
0.0
 10
-88.801343
 20
188.219760
 30
0.0
  0
SPLINE
  5
1de
100
AcDbEntity
  8
Ebene_1
 62
7
100
AcDbSpline
 70
8
 71
3
 72
8
 73
4
 74
0
 40
0
 40
0
 40
0
 40
0
 40
1
 40
1
 40
1
 40
1
 10
-88.801343
 20
188.219760
 30
0.0
 10
-88.844873
 20
188.541260
 30
0.0
 10
-89.002079
 20
189.225960
 30
0.0
 10
-89.150690
 20
189.741310
 30
0.0
  0
SPLINE
  5
1df
100
AcDbEntity
  8
Ebene_1
 62
7
100
AcDbSpline
 70
8
 71
3
 72
8
 73
4
 74
0
 40
0
 40
0
 40
0
 40
0
 40
1
 40
1
 40
1
 40
1
 10
-89.150690
 20
189.741310
 30
0.0
 10
-90.320966
 20
193.799590
 30
0.0
 10
-93.778729
 20
195.601640
 30
0.0
 10
-101.682440
 20
196.272360
 30
0.0
  0
SPLINE
  5
1e0
100
AcDbEntity
  8
Ebene_1
 62
7
100
AcDbSpline
 70
8
 71
3
 72
8
 73
4
 74
0
 40
0
 40
0
 40
0
 40
0
 40
1
 40
1
 40
1
 40
1
 10
-101.682440
 20
196.272360
 30
0.0
 10
-103.403390
 20
196.418400
 30
0.0
 10
-110.560710
 20
196.605820
 30
0.0
 10
-110.650640
 20
196.507190
 30
0.0
  0
SPLINE
  5
1e1
100
AcDbEntity
  8
Ebene_1
 62
7
100
AcDbSpline
 70
8
 71
3
 72
8
 73
4
 74
0
 40
0
 40
0
 40
0
 40
0
 40
1
 40
1
 40
1
 40
1
 10
-110.650640
 20
196.507190
 30
0.0
 10
-110.696640
 20
196.456790
 30
0.0
 10
-124.513540
 20
118.948070
 30
0.0
 10
-127.429530
 20
102.382450
 30
0.0
  0
LWPOLYLINE
  5
1e2
100
AcDbEntity
  8
Ebene_1
 62
7
100
AcDbPolyline
 90
3
 70
0
 10
-73.032841
 20
199.913896
 30
0.0
 10
-72.599291
 20
199.692711
 30
0.0
 10
-73.158551
 20
198.923804
 30
0.0
  0
SPLINE
  5
1e3
100
AcDbEntity
  8
Ebene_1
 62
7
100
AcDbSpline
 70
8
 71
3
 72
8
 73
4
 74
0
 40
0
 40
0
 40
0
 40
0
 40
1
 40
1
 40
1
 40
1
 10
-72.598701
 20
203.868260
 30
0.0
 10
-85.806231
 20
209.438465
 30
0.0
 10
-100.811550
 20
212.982980
 30
0.0
 10
-115.781970
 20
214.068880
 30
0.0
  0
SPLINE
  5
1e4
100
AcDbEntity
  8
Ebene_1
 62
7
100
AcDbSpline
 70
8
 71
3
 72
8
 73
4
 74
0
 40
0
 40
0
 40
0
 40
0
 40
1
 40
1
 40
1
 40
1
 10
-115.781970
 20
214.068880
 30
0.0
 10
-120.591650
 20
214.417754
 30
0.0
 10
-130.583720
 20
214.532003
 30
0.0
 10
-135.422170
 20
214.293443
 30
0.0
  0
SPLINE
  5
1e5
100
AcDbEntity
  8
Ebene_1
 62
7
100
AcDbSpline
 70
8
 71
3
 72
8
 73
4
 74
0
 40
0
 40
0
 40
0
 40
0
 40
1
 40
1
 40
1
 40
1
 10
-135.422170
 20
214.293443
 30
0.0
 10
-152.189630
 20
213.466717
 30
0.0
 10
-167.616010
 20
210.049611
 30
0.0
 10
-182.441650
 20
203.878138
 30
0.0
  0
SPLINE
  5
1e6
100
AcDbEntity
  8
Ebene_1
 62
7
100
AcDbSpline
 70
8
 71
3
 72
8
 73
4
 74
0
 40
0
 40
0
 40
0
 40
0
 40
1
 40
1
 40
1
 40
1
 10
-182.441650
 20
203.878138
 30
0.0
 10
-183.463080
 20
203.452953
 30
0.0
 10
-184.362380
 20
203.129479
 30
0.0
 10
-184.440100
 20
203.159300
 30
0.0
  0
SPLINE
  5
1e7
100
AcDbEntity
  8
Ebene_1
 62
7
100
AcDbSpline
 70
8
 71
3
 72
8
 73
4
 74
0
 40
0
 40
0
 40
0
 40
0
 40
1
 40
1
 40
1
 40
1
 10
-184.440100
 20
203.159300
 30
0.0
 10
-184.517800
 20
203.189170
 30
0.0
 10
-185.157310
 20
204.375486
 30
0.0
 10
-185.861170
 20
205.795664
 30
0.0
  0
SPLINE
  5
1e8
100
AcDbEntity
  8
Ebene_1
 62
7
100
AcDbSpline
 70
8
 71
3
 72
8
 73
4
 74
0
 40
0
 40
0
 40
0
 40
0
 40
1
 40
1
 40
1
 40
1
 10
-185.861170
 20
205.795664
 30
0.0
 10
-187.178060
 20
208.452747
 30
0.0
 10
-187.791760
 20
209.833038
 30
0.0
 10
-187.697950
 20
209.926846
 30
0.0
  0
SPLINE
  5
1e9
100
AcDbEntity
  8
Ebene_1
 62
7
100
AcDbSpline
 70
8
 71
3
 72
8
 73
4
 74
0
 40
0
 40
0
 40
0
 40
0
 40
1
 40
1
 40
1
 40
1
 10
-187.697950
 20
209.926846
 30
0.0
 10
-187.601950
 20
210.022786
 30
0.0
 10
-183.735520
 20
211.483493
 30
0.0
 10
-181.469210
 20
212.279976
 30
0.0
  0
SPLINE
  5
1ea
100
AcDbEntity
  8
Ebene_1
 62
7
100
AcDbSpline
 70
8
 71
3
 72
8
 73
4
 74
0
 40
0
 40
0
 40
0
 40
0
 40
1
 40
1
 40
1
 40
1
 10
-181.469210
 20
212.279976
 30
0.0
 10
-160.223370
 20
219.746733
 30
0.0
 10
-137.533380
 20
222.840964
 30
0.0
 10
-116.058430
 20
221.200031
 30
0.0
  0
SPLINE
  5
1eb
100
AcDbEntity
  8
Ebene_1
 62
7
100
AcDbSpline
 70
8
 71
3
 72
8
 73
4
 74
0
 40
0
 40
0
 40
0
 40
0
 40
1
 40
1
 40
1
 40
1
 10
-116.058430
 20
221.200031
 30
0.0
 10
-99.996463
 20
219.972710
 30
0.0
 10
-84.858831
 20
216.584612
 30
0.0
 10
-69.449721
 20
210.768089
 30
0.0
  0
SPLINE
  5
1ec
100
AcDbEntity
  8
Ebene_1
 62
7
100
AcDbSpline
 70
8
 71
3
 72
8
 73
4
 74
0
 40
0
 40
0
 40
0
 40
0
 40
1
 40
1
 40
1
 40
1
 10
-69.449721
 20
210.768089
 30
0.0
 10
-68.302471
 20
210.335033
 30
0.0
 10
-67.344101
 20
209.961000
 30
0.0
 10
-67.320001
 20
209.936903
 30
0.0
  0
SPLINE
  5
1ed
100
AcDbEntity
  8
Ebene_1
 62
7
100
AcDbSpline
 70
8
 71
3
 72
8
 73
4
 74
0
 40
0
 40
0
 40
0
 40
0
 40
1
 40
1
 40
1
 40
1
 10
-67.320001
 20
209.936903
 30
0.0
 10
-67.194051
 20
209.810947
 30
0.0
 10
-70.275121
 20
203.379019
 30
0.0
 10
-70.587311
 20
203.116205
 30
0.0
  0
SPLINE
  5
1ee
100
AcDbEntity
  8
Ebene_1
 62
7
100
AcDbSpline
 70
8
 71
3
 72
8
 73
4
 74
0
 40
0
 40
0
 40
0
 40
0
 40
1
 40
1
 40
1
 40
1
 10
-70.587311
 20
203.116205
 30
0.0
 10
-70.629211
 20
203.080945
 30
0.0
 10
-71.534321
 20
203.419363
 30
0.0
 10
-72.598701
 20
203.868260
 30
0.0
  0
LWPOLYLINE
  5
1ef
100
AcDbEntity
  8
Ebene_1
 62
7
100
AcDbPolyline
 90
3
 70
0
 10
-127.429530
 20
102.382450
 30
0.0
 10
-127.517130
 20
101.884820
 30
0.0
 10
-127.590520
 20
102.271870
 30
0.0
  0
LWPOLYLINE
  5
1f0
100
AcDbEntity
  8
Ebene_1
 62
7
100
AcDbPolyline
 90
1
 70
1
 10
-72.598701
 20
203.868260
 30
0.0
  0
ENDSEC
  0
SECTION
  2
OBJECTS
  0
DICTIONARY
  5
C
330
0
100
AcDbDictionary
  3
ACAD_GROUP
350
D
  3
ACAD_MLINESTYLE
350
17
  0
DICTIONARY
  5
D
330
C
100
AcDbDictionary
  0
DICTIONARY
  5
1A
330
C
100
AcDbDictionary
  0
DICTIONARY
  5
17
330
C
100
AcDbDictionary
  3
STANDARD
350
18
  0
DICTIONARY
  5
19
330
C
100
AcDbDictionary
  0
ENDSEC
  0
EOF
