  0
SECTION
  2
HEADER
  9
$ACADVER
  1
AC1014
  9
$HANDSEED
  5
FFFF
  9
$MEASUREMENT
 70
     1
  0
ENDSEC
  0
SECTION
  2
TABLES
  0
TABLE
  2
VPORT
  5
8
330
0
100
AcDbSymbolTable
 70
     4
  0
VPORT
  5
2E
330
8
100
AcDbSymbolTableRecord
100
AcDbViewportTableRecord
  2
*ACTIVE
 70
     0
 10
0.0
 20
0.0
 11
1.0
 21
1.0
 12
210.0
 22
148.5
 13
0.0
 23
0.0
 14
10.0
 24
10.0
 15
10.0
 25
10.0
 16
0.0
 26
0.0
 36
1.0
 17
0.0
 27
0.0
 37
0.0
 40
341.0
 41
1.24
 42
50.0
 43
0.0
 44
0.0
 50
0.0
 51
0.0
 71
     0
 72
   100
 73
     1
 74
     3
 75
     0
 76
     0
 77
     0
 78
     0
  0
ENDTAB
  0
TABLE
  2
LTYPE
  5
5
330
0
100
AcDbSymbolTable
 70
     1
  0
LTYPE
  5
14
330
5
100
AcDbSymbolTableRecord
100
AcDbLinetypeTableRecord
  2
BYBLOCK
 70
     0
  3

 72
    65
 73
     0
 40
0.0
  0
LTYPE
  5
15
330
5
100
AcDbSymbolTableRecord
100
AcDbLinetypeTableRecord
  2
BYLAYER
 70
     0
  3

 72
    65
 73
     0
 40
0.0
  0
LTYPE
  5
16
330
5
100
AcDbSymbolTableRecord
100
AcDbLinetypeTableRecord
  2
CONTINUOUS
 70
     0
  3
Solid line
 72
    65
 73
     0
 40
0.0
  0
ENDTAB
  0
TABLE
  2
LAYER
  5
2
100
AcDbSymbolTable
 70
2
  0
LAYER
  5
50
100
AcDbSymbolTableRecord
100
AcDbLayerTableRecord
  2
0
 70
0
  6
CONTINUOUS
  0
LAYER
  5
51
100
AcDbSymbolTableRecord
100
AcDbLayerTableRecord
  2
Ebene_1
 70
0
  6
CONTINUOUS
  0
ENDTAB
  0
TABLE
  2
STYLE
  5
3
330
0
100
AcDbSymbolTable
 70
     1
  0
STYLE
  5
11
330
3
100
AcDbSymbolTableRecord
100
AcDbTextStyleTableRecord
  2
STANDARD
 70
     0
 40
0.0
 41
1.0
 50
0.0
 71
     0
 42
2.5
  3
txt
  4

  0
ENDTAB
  0
TABLE
  2
VIEW
  5
6
330
0
100
AcDbSymbolTable
 70
     0
  0
ENDTAB
  0
TABLE
  2
UCS
  5
7
330
0
100
AcDbSymbolTable
 70
     0
  0
ENDTAB
  0
TABLE
  2
APPID
  5
9
330
0
100
AcDbSymbolTable
 70
     2
  0
APPID
  5
12
330
9
100
AcDbSymbolTableRecord
100
AcDbRegAppTableRecord
  2
ACAD
 70
     0
  0
ENDTAB
  0
TABLE
  2
DIMSTYLE
  5
A
330
0
100
AcDbSymbolTable
 70
     1
  0
DIMSTYLE
105
27
330
A
100
AcDbSymbolTableRecord
100
AcDbDimStyleTableRecord
  2
ISO-25
 70
     0
  3

  4

  5

  6

  7

 40
1.0
 41
2.5
 42
0.625
 43
3.75
 44
1.25
 45
0.0
 46
0.0
 47
0.0
 48
0.0
140
2.5
141
2.5
142
0.0
143
0.03937007874016
144
1.0
145
0.0
146
1.0
147
0.625
 71
     0
 72
     0
 73
     0
 74
     0
 75
     0
 76
     0
 77
     1
 78
     8
170
     0
171
     3
172
     1
173
     0
174
     0
175
     0
176
     0
177
     0
178
     0
270
     2
271
     2
272
     2
273
     2
274
     3
340
11
275
     0
280
     0
281
     0
282
     0
283
     0
284
     8
285
     0
286
     0
287
     3
288
     0
  0
ENDTAB
  0
TABLE
  2
BLOCK_RECORD
  5
1
330
0
100
AcDbSymbolTable
 70
     1
  0
BLOCK_RECORD
  5
1F
330
1
100
AcDbSymbolTableRecord
100
AcDbBlockTableRecord
  2
*MODEL_SPACE
  0
BLOCK_RECORD
  5
1B
330
1
100
AcDbSymbolTableRecord
100
AcDbBlockTableRecord
  2
*PAPER_SPACE
  0
ENDTAB
  0
ENDSEC
  0
SECTION
  2
BLOCKS
  0
BLOCK
  5
20
330
1F
100
AcDbEntity
  8
0
100
AcDbBlockBegin
  2
*MODEL_SPACE
 70
     0
 10
0.0
 20
0.0
 30
0.0
  3
*MODEL_SPACE
  1

  0
ENDBLK
  5
21
330
1F
100
AcDbEntity
  8
0
100
AcDbBlockEnd
  0
BLOCK
  5
1C
330
1B
100
AcDbEntity
 67
     1
  8
0
100
AcDbBlockBegin
  2
*PAPER_SPACE
  1

  0
ENDBLK
  5
1D
330
1B
100
AcDbEntity
 67
     1
  8
0
100
AcDbBlockEnd
  0
ENDSEC
  0
SECTION
  2
ENTITIES
  0
SPLINE
  5
100
100
AcDbEntity
  8
Ebene_1
 62
7
100
AcDbSpline
 70
8
 71
3
 72
8
 73
4
 74
0
 40
0
 40
0
 40
0
 40
0
 40
1
 40
1
 40
1
 40
1
 10
46.761130
 20
289.599983
 30
0.0
 10
27.466560
 20
289.599983
 30
0.0
 10
11.825910
 20
273.980443
 30
0.0
 10
11.825910
 20
254.711923
 30
0.0
  0
LWPOLYLINE
  5
101
100
AcDbEntity
  8
Ebene_1
 62
7
100
AcDbPolyline
 90
4
 70
1
 10
0.000000
 20
299.599980
 30
0.0
 10
219.600020
 20
299.599980
 30
0.0
 10
219.600020
 20
0.000000
 30
0.0
 10
0.000000
 20
0.000000
 30
0.0
  0
SPLINE
  5
102
100
AcDbEntity
  8
Ebene_1
 62
7
100
AcDbSpline
 70
8
 71
3
 72
8
 73
4
 74
0
 40
0
 40
0
 40
0
 40
0
 40
1
 40
1
 40
1
 40
1
 10
11.825910
 20
44.866010
 30
0.0
 10
11.825910
 20
25.597480
 30
0.0
 10
27.466560
 20
9.977940
 30
0.0
 10
46.761130
 20
9.977940
 30
0.0
  0
LWPOLYLINE
  5
103
100
AcDbEntity
  8
Ebene_1
 62
7
100
AcDbPolyline
 90
2
 70
0
 10
11.825910
 20
254.711923
 30
0.0
 10
11.825910
 20
44.866010
 30
0.0
  0
SPLINE
  5
104
100
AcDbEntity
  8
Ebene_1
 62
7
100
AcDbSpline
 70
8
 71
3
 72
8
 73
4
 74
0
 40
0
 40
0
 40
0
 40
0
 40
1
 40
1
 40
1
 40
1
 10
172.839630
 20
9.977940
 30
0.0
 10
192.134200
 20
9.977940
 30
0.0
 10
207.774850
 20
25.597480
 30
0.0
 10
207.774850
 20
44.866010
 30
0.0
  0
LWPOLYLINE
  5
105
100
AcDbEntity
  8
Ebene_1
 62
7
100
AcDbPolyline
 90
2
 70
0
 10
46.761130
 20
9.977940
 30
0.0
 10
172.839630
 20
9.977940
 30
0.0
  0
SPLINE
  5
106
100
AcDbEntity
  8
Ebene_1
 62
7
100
AcDbSpline
 70
8
 71
3
 72
8
 73
4
 74
0
 40
0
 40
0
 40
0
 40
0
 40
1
 40
1
 40
1
 40
1
 10
207.774850
 20
254.711923
 30
0.0
 10
207.774850
 20
273.980443
 30
0.0
 10
192.134200
 20
289.599983
 30
0.0
 10
172.839630
 20
289.599983
 30
0.0
  0
LWPOLYLINE
  5
107
100
AcDbEntity
  8
Ebene_1
 62
7
100
AcDbPolyline
 90
2
 70
0
 10
207.774850
 20
44.866010
 30
0.0
 10
207.774850
 20
254.711923
 30
0.0
  0
LWPOLYLINE
  5
108
100
AcDbEntity
  8
Ebene_1
 62
7
100
AcDbPolyline
 90
2
 70
0
 10
172.839630
 20
289.599983
 30
0.0
 10
46.761130
 20
289.599983
 30
0.0
  0
SPLINE
  5
109
100
AcDbEntity
  8
Ebene_1
 62
7
100
AcDbSpline
 70
8
 71
3
 72
8
 73
4
 74
0
 40
0
 40
0
 40
0
 40
0
 40
1
 40
1
 40
1
 40
1
 10
172.839630
 20
282.779933
 30
0.0
 10
188.468910
 20
282.779933
 30
0.0
 10
200.945580
 20
270.320093
 30
0.0
 10
200.945580
 20
254.711923
 30
0.0
  0
LWPOLYLINE
  5
10a
100
AcDbEntity
  8
Ebene_1
 62
7
100
AcDbPolyline
 90
2
 70
0
 10
46.761130
 20
282.779933
 30
0.0
 10
172.839630
 20
282.779933
 30
0.0
  0
SPLINE
  5
10b
100
AcDbEntity
  8
Ebene_1
 62
7
100
AcDbSpline
 70
8
 71
3
 72
8
 73
4
 74
0
 40
0
 40
0
 40
0
 40
0
 40
1
 40
1
 40
1
 40
1
 10
200.945580
 20
44.866010
 30
0.0
 10
200.945580
 20
29.257830
 30
0.0
 10
188.468910
 20
16.798000
 30
0.0
 10
172.839630
 20
16.798000
 30
0.0
  0
LWPOLYLINE
  5
10c
100
AcDbEntity
  8
Ebene_1
 62
7
100
AcDbPolyline
 90
2
 70
0
 10
200.945580
 20
254.711923
 30
0.0
 10
200.945580
 20
44.866010
 30
0.0
  0
SPLINE
  5
10d
100
AcDbEntity
  8
Ebene_1
 62
7
100
AcDbSpline
 70
8
 71
3
 72
8
 73
4
 74
0
 40
0
 40
0
 40
0
 40
0
 40
1
 40
1
 40
1
 40
1
 10
46.761130
 20
16.798000
 30
0.0
 10
31.131840
 20
16.798000
 30
0.0
 10
18.655180
 20
29.257830
 30
0.0
 10
18.655180
 20
44.866010
 30
0.0
  0
LWPOLYLINE
  5
10e
100
AcDbEntity
  8
Ebene_1
 62
7
100
AcDbPolyline
 90
2
 70
0
 10
172.839630
 20
16.798000
 30
0.0
 10
46.761130
 20
16.798000
 30
0.0
  0
SPLINE
  5
10f
100
AcDbEntity
  8
Ebene_1
 62
7
100
AcDbSpline
 70
8
 71
3
 72
8
 73
4
 74
0
 40
0
 40
0
 40
0
 40
0
 40
1
 40
1
 40
1
 40
1
 10
18.655180
 20
254.711923
 30
0.0
 10
18.655180
 20
270.320093
 30
0.0
 10
31.131840
 20
282.779933
 30
0.0
 10
46.761130
 20
282.779933
 30
0.0
  0
LWPOLYLINE
  5
110
100
AcDbEntity
  8
Ebene_1
 62
7
100
AcDbPolyline
 90
2
 70
0
 10
18.655180
 20
44.866010
 30
0.0
 10
18.655180
 20
254.711923
 30
0.0
  0
SPLINE
  5
111
100
AcDbEntity
  8
Ebene_1
 62
7
100
AcDbSpline
 70
8
 71
3
 72
8
 73
4
 74
0
 40
0
 40
0
 40
0
 40
0
 40
1
 40
1
 40
1
 40
1
 10
34.886700
 20
31.808310
 30
0.0
 10
34.886694
 20
30.427602
 30
0.0
 10
33.767408
 20
29.308320
 30
0.0
 10
32.386700
 20
29.308320
 30
0.0
  0
SPLINE
  5
112
100
AcDbEntity
  8
Ebene_1
 62
7
100
AcDbSpline
 70
8
 71
3
 72
8
 73
4
 74
0
 40
0
 40
0
 40
0
 40
0
 40
1
 40
1
 40
1
 40
1
 10
32.386700
 20
29.308320
 30
0.0
 10
31.005992
 20
29.308320
 30
0.0
 10
29.886706
 20
30.427602
 30
0.0
 10
29.886700
 20
31.808310
 30
0.0
  0
SPLINE
  5
113
100
AcDbEntity
  8
Ebene_1
 62
7
100
AcDbSpline
 70
8
 71
3
 72
8
 73
4
 74
0
 40
0
 40
0
 40
0
 40
0
 40
1
 40
1
 40
1
 40
1
 10
29.886700
 20
31.808310
 30
0.0
 10
29.886700
 20
32.471351
 30
0.0
 10
30.150092
 20
33.107236
 30
0.0
 10
30.618933
 20
33.576077
 30
0.0
  0
SPLINE
  5
114
100
AcDbEntity
  8
Ebene_1
 62
7
100
AcDbSpline
 70
8
 71
3
 72
8
 73
4
 74
0
 40
0
 40
0
 40
0
 40
0
 40
1
 40
1
 40
1
 40
1
 10
30.618933
 20
33.576077
 30
0.0
 10
31.087774
 20
34.044918
 30
0.0
 10
31.723659
 20
34.308310
 30
0.0
 10
32.386700
 20
34.308310
 30
0.0
  0
SPLINE
  5
115
100
AcDbEntity
  8
Ebene_1
 62
7
100
AcDbSpline
 70
8
 71
3
 72
8
 73
4
 74
0
 40
0
 40
0
 40
0
 40
0
 40
1
 40
1
 40
1
 40
1
 10
32.386700
 20
34.308310
 30
0.0
 10
33.049741
 20
34.308310
 30
0.0
 10
33.685626
 20
34.044918
 30
0.0
 10
34.154467
 20
33.576077
 30
0.0
  0
SPLINE
  5
116
100
AcDbEntity
  8
Ebene_1
 62
7
100
AcDbSpline
 70
8
 71
3
 72
8
 73
4
 74
0
 40
0
 40
0
 40
0
 40
0
 40
1
 40
1
 40
1
 40
1
 10
34.154467
 20
33.576077
 30
0.0
 10
34.623308
 20
33.107236
 30
0.0
 10
34.886700
 20
32.471351
 30
0.0
 10
34.886700
 20
31.808310
 30
0.0
  0
LWPOLYLINE
  5
117
100
AcDbEntity
  8
Ebene_1
 62
7
100
AcDbPolyline
 90
1
 70
1
 10
46.761130
 20
282.779933
 30
0.0
  0
SPLINE
  5
118
100
AcDbEntity
  8
Ebene_1
 62
7
100
AcDbSpline
 70
8
 71
3
 72
8
 73
4
 74
0
 40
0
 40
0
 40
0
 40
0
 40
1
 40
1
 40
1
 40
1
 10
189.800380
 20
32.099990
 30
0.0
 10
189.800385
 20
31.436945
 30
0.0
 10
189.536996
 20
30.801055
 30
0.0
 10
189.068154
 20
30.332210
 30
0.0
  0
SPLINE
  5
119
100
AcDbEntity
  8
Ebene_1
 62
7
100
AcDbSpline
 70
8
 71
3
 72
8
 73
4
 74
0
 40
0
 40
0
 40
0
 40
0
 40
1
 40
1
 40
1
 40
1
 10
189.068154
 20
30.332210
 30
0.0
 10
188.599313
 20
29.863365
 30
0.0
 10
187.963425
 20
29.599970
 30
0.0
 10
187.300380
 20
29.599970
 30
0.0
  0
SPLINE
  5
11a
100
AcDbEntity
  8
Ebene_1
 62
7
100
AcDbSpline
 70
8
 71
3
 72
8
 73
4
 74
0
 40
0
 40
0
 40
0
 40
0
 40
1
 40
1
 40
1
 40
1
 10
187.300380
 20
29.599970
 30
0.0
 10
186.637335
 20
29.599970
 30
0.0
 10
186.001447
 20
29.863365
 30
0.0
 10
185.532606
 20
30.332210
 30
0.0
  0
SPLINE
  5
11b
100
AcDbEntity
  8
Ebene_1
 62
7
100
AcDbSpline
 70
8
 71
3
 72
8
 73
4
 74
0
 40
0
 40
0
 40
0
 40
0
 40
1
 40
1
 40
1
 40
1
 10
185.532606
 20
30.332210
 30
0.0
 10
185.063764
 20
30.801055
 30
0.0
 10
184.800375
 20
31.436945
 30
0.0
 10
184.800380
 20
32.099990
 30
0.0
  0
SPLINE
  5
11c
100
AcDbEntity
  8
Ebene_1
 62
7
100
AcDbSpline
 70
8
 71
3
 72
8
 73
4
 74
0
 40
0
 40
0
 40
0
 40
0
 40
1
 40
1
 40
1
 40
1
 10
184.800380
 20
32.099990
 30
0.0
 10
184.800386
 20
33.480698
 30
0.0
 10
185.919672
 20
34.599980
 30
0.0
 10
187.300380
 20
34.599980
 30
0.0
  0
SPLINE
  5
11d
100
AcDbEntity
  8
Ebene_1
 62
7
100
AcDbSpline
 70
8
 71
3
 72
8
 73
4
 74
0
 40
0
 40
0
 40
0
 40
0
 40
1
 40
1
 40
1
 40
1
 10
187.300380
 20
34.599980
 30
0.0
 10
188.681088
 20
34.599980
 30
0.0
 10
189.800374
 20
33.480698
 30
0.0
 10
189.800380
 20
32.099990
 30
0.0
  0
LWPOLYLINE
  5
11e
100
AcDbEntity
  8
Ebene_1
 62
7
100
AcDbPolyline
 90
1
 70
1
 10
34.886700
 20
31.808310
 30
0.0
  0
SPLINE
  5
11f
100
AcDbEntity
  8
Ebene_1
 62
7
100
AcDbSpline
 70
8
 71
3
 72
8
 73
4
 74
0
 40
0
 40
0
 40
0
 40
0
 40
1
 40
1
 40
1
 40
1
 10
190.178360
 20
267.186283
 30
0.0
 10
190.178354
 20
265.805575
 30
0.0
 10
189.059068
 20
264.686293
 30
0.0
 10
187.678360
 20
264.686293
 30
0.0
  0
SPLINE
  5
120
100
AcDbEntity
  8
Ebene_1
 62
7
100
AcDbSpline
 70
8
 71
3
 72
8
 73
4
 74
0
 40
0
 40
0
 40
0
 40
0
 40
1
 40
1
 40
1
 40
1
 10
187.678360
 20
264.686293
 30
0.0
 10
186.297652
 20
264.686293
 30
0.0
 10
185.178366
 20
265.805575
 30
0.0
 10
185.178360
 20
267.186283
 30
0.0
  0
SPLINE
  5
121
100
AcDbEntity
  8
Ebene_1
 62
7
100
AcDbSpline
 70
8
 71
3
 72
8
 73
4
 74
0
 40
0
 40
0
 40
0
 40
0
 40
1
 40
1
 40
1
 40
1
 10
185.178360
 20
267.186283
 30
0.0
 10
185.178357
 20
267.849326
 30
0.0
 10
185.441748
 20
268.485213
 30
0.0
 10
185.910590
 20
268.954056
 30
0.0
  0
SPLINE
  5
122
100
AcDbEntity
  8
Ebene_1
 62
7
100
AcDbSpline
 70
8
 71
3
 72
8
 73
4
 74
0
 40
0
 40
0
 40
0
 40
0
 40
1
 40
1
 40
1
 40
1
 10
185.910590
 20
268.954056
 30
0.0
 10
186.379431
 20
269.422900
 30
0.0
 10
187.015317
 20
269.686293
 30
0.0
 10
187.678360
 20
269.686293
 30
0.0
  0
SPLINE
  5
123
100
AcDbEntity
  8
Ebene_1
 62
7
100
AcDbSpline
 70
8
 71
3
 72
8
 73
4
 74
0
 40
0
 40
0
 40
0
 40
0
 40
1
 40
1
 40
1
 40
1
 10
187.678360
 20
269.686293
 30
0.0
 10
188.341403
 20
269.686293
 30
0.0
 10
188.977289
 20
269.422900
 30
0.0
 10
189.446130
 20
268.954056
 30
0.0
  0
SPLINE
  5
124
100
AcDbEntity
  8
Ebene_1
 62
7
100
AcDbSpline
 70
8
 71
3
 72
8
 73
4
 74
0
 40
0
 40
0
 40
0
 40
0
 40
1
 40
1
 40
1
 40
1
 10
189.446130
 20
268.954056
 30
0.0
 10
189.914972
 20
268.485213
 30
0.0
 10
190.178363
 20
267.849326
 30
0.0
 10
190.178360
 20
267.186283
 30
0.0
  0
LWPOLYLINE
  5
125
100
AcDbEntity
  8
Ebene_1
 62
7
100
AcDbPolyline
 90
1
 70
1
 10
189.800380
 20
32.099990
 30
0.0
  0
SPLINE
  5
126
100
AcDbEntity
  8
Ebene_1
 62
7
100
AcDbSpline
 70
8
 71
3
 72
8
 73
4
 74
0
 40
0
 40
0
 40
0
 40
0
 40
1
 40
1
 40
1
 40
1
 10
35.178360
 20
267.186283
 30
0.0
 10
35.178354
 20
265.805575
 30
0.0
 10
34.059068
 20
264.686293
 30
0.0
 10
32.678360
 20
264.686293
 30
0.0
  0
SPLINE
  5
127
100
AcDbEntity
  8
Ebene_1
 62
7
100
AcDbSpline
 70
8
 71
3
 72
8
 73
4
 74
0
 40
0
 40
0
 40
0
 40
0
 40
1
 40
1
 40
1
 40
1
 10
32.678360
 20
264.686293
 30
0.0
 10
31.297652
 20
264.686293
 30
0.0
 10
30.178366
 20
265.805575
 30
0.0
 10
30.178360
 20
267.186283
 30
0.0
  0
SPLINE
  5
128
100
AcDbEntity
  8
Ebene_1
 62
7
100
AcDbSpline
 70
8
 71
3
 72
8
 73
4
 74
0
 40
0
 40
0
 40
0
 40
0
 40
1
 40
1
 40
1
 40
1
 10
30.178360
 20
267.186283
 30
0.0
 10
30.178357
 20
267.849326
 30
0.0
 10
30.441748
 20
268.485213
 30
0.0
 10
30.910590
 20
268.954056
 30
0.0
  0
SPLINE
  5
129
100
AcDbEntity
  8
Ebene_1
 62
7
100
AcDbSpline
 70
8
 71
3
 72
8
 73
4
 74
0
 40
0
 40
0
 40
0
 40
0
 40
1
 40
1
 40
1
 40
1
 10
30.910590
 20
268.954056
 30
0.0
 10
31.379431
 20
269.422900
 30
0.0
 10
32.015317
 20
269.686293
 30
0.0
 10
32.678360
 20
269.686293
 30
0.0
  0
SPLINE
  5
12a
100
AcDbEntity
  8
Ebene_1
 62
7
100
AcDbSpline
 70
8
 71
3
 72
8
 73
4
 74
0
 40
0
 40
0
 40
0
 40
0
 40
1
 40
1
 40
1
 40
1
 10
32.678360
 20
269.686293
 30
0.0
 10
33.341403
 20
269.686293
 30
0.0
 10
33.977289
 20
269.422900
 30
0.0
 10
34.446130
 20
268.954056
 30
0.0
  0
SPLINE
  5
12b
100
AcDbEntity
  8
Ebene_1
 62
7
100
AcDbSpline
 70
8
 71
3
 72
8
 73
4
 74
0
 40
0
 40
0
 40
0
 40
0
 40
1
 40
1
 40
1
 40
1
 10
34.446130
 20
268.954056
 30
0.0
 10
34.914972
 20
268.485213
 30
0.0
 10
35.178363
 20
267.849326
 30
0.0
 10
35.178360
 20
267.186283
 30
0.0
  0
LWPOLYLINE
  5
12c
100
AcDbEntity
  8
Ebene_1
 62
7
100
AcDbPolyline
 90
1
 70
1
 10
190.178360
 20
267.186283
 30
0.0
  0
SPLINE
  5
12d
100
AcDbEntity
  8
Ebene_1
 62
7
100
AcDbSpline
 70
8
 71
3
 72
8
 73
4
 74
0
 40
0
 40
0
 40
0
 40
0
 40
1
 40
1
 40
1
 40
1
 10
109.716540
 20
73.929650
 30
0.0
 10
109.510910
 20
75.014100
 30
0.0
 10
91.817540
 20
173.795650
 30
0.0
 10
91.817540
 20
173.859230
 30
0.0
  0
SPLINE
  5
12e
100
AcDbEntity
  8
Ebene_1
 62
7
100
AcDbSpline
 70
8
 71
3
 72
8
 73
4
 74
0
 40
0
 40
0
 40
0
 40
0
 40
1
 40
1
 40
1
 40
1
 10
91.817540
 20
173.859230
 30
0.0
 10
91.817540
 20
173.949430
 30
0.0
 10
86.591653
 20
173.817330
 30
0.0
 10
83.964885
 20
173.660650
 30
0.0
  0
SPLINE
  5
12f
100
AcDbEntity
  8
Ebene_1
 62
7
100
AcDbSpline
 70
8
 71
3
 72
8
 73
4
 74
0
 40
0
 40
0
 40
0
 40
0
 40
1
 40
1
 40
1
 40
1
 10
83.964885
 20
173.660650
 30
0.0
 10
76.147730
 20
173.194480
 30
0.0
 10
72.127146
 20
171.825550
 30
0.0
 10
70.183921
 20
168.968520
 30
0.0
  0
SPLINE
  5
130
100
AcDbEntity
  8
Ebene_1
 62
7
100
AcDbSpline
 70
8
 71
3
 72
8
 73
4
 74
0
 40
0
 40
0
 40
0
 40
0
 40
1
 40
1
 40
1
 40
1
 10
70.183921
 20
168.968520
 30
0.0
 10
69.467413
 20
167.915120
 30
0.0
 10
69.168302
 20
167.164080
 30
0.0
 10
68.855629
 20
165.633470
 30
0.0
  0
SPLINE
  5
131
100
AcDbEntity
  8
Ebene_1
 62
7
100
AcDbSpline
 70
8
 71
3
 72
8
 73
4
 74
0
 40
0
 40
0
 40
0
 40
0
 40
1
 40
1
 40
1
 40
1
 10
68.855629
 20
165.633470
 30
0.0
 10
68.728692
 20
165.011570
 30
0.0
 10
68.601470
 20
164.479570
 30
0.0
 10
68.573143
 20
164.451280
 30
0.0
  0
SPLINE
  5
132
100
AcDbEntity
  8
Ebene_1
 62
7
100
AcDbSpline
 70
8
 71
3
 72
8
 73
4
 74
0
 40
0
 40
0
 40
0
 40
0
 40
1
 40
1
 40
1
 40
1
 10
68.573143
 20
164.451280
 30
0.0
 10
68.477883
 20
164.355980
 30
0.0
 10
65.229364
 20
165.899700
 30
0.0
 10
63.601710
 20
166.813510
 30
0.0
  0
SPLINE
  5
133
100
AcDbEntity
  8
Ebene_1
 62
7
100
AcDbSpline
 70
8
 71
3
 72
8
 73
4
 74
0
 40
0
 40
0
 40
0
 40
0
 40
1
 40
1
 40
1
 40
1
 10
63.601710
 20
166.813510
 30
0.0
 10
58.733273
 20
169.546710
 30
0.0
 10
54.911199
 20
172.711360
 30
0.0
 10
52.311117
 20
176.161970
 30
0.0
  0
SPLINE
  5
134
100
AcDbEntity
  8
Ebene_1
 62
7
100
AcDbSpline
 70
8
 71
3
 72
8
 73
4
 74
0
 40
0
 40
0
 40
0
 40
0
 40
1
 40
1
 40
1
 40
1
 10
52.311117
 20
176.161970
 30
0.0
 10
51.929145
 20
176.668890
 30
0.0
 10
51.616603
 20
177.125160
 30
0.0
 10
51.616603
 20
177.175870
 30
0.0
  0
SPLINE
  5
135
100
AcDbEntity
  8
Ebene_1
 62
7
100
AcDbSpline
 70
8
 71
3
 72
8
 73
4
 74
0
 40
0
 40
0
 40
0
 40
0
 40
1
 40
1
 40
1
 40
1
 10
51.616603
 20
177.175870
 30
0.0
 10
51.616603
 20
177.226570
 30
0.0
 10
51.814381
 20
177.349940
 30
0.0
 10
52.056094
 20
177.449990
 30
0.0
  0
SPLINE
  5
136
100
AcDbEntity
  8
Ebene_1
 62
7
100
AcDbSpline
 70
8
 71
3
 72
8
 73
4
 74
0
 40
0
 40
0
 40
0
 40
0
 40
1
 40
1
 40
1
 40
1
 10
52.056094
 20
177.449990
 30
0.0
 10
52.297850
 20
177.550150
 30
0.0
 10
53.339521
 20
177.999000
 30
0.0
 10
54.370889
 20
178.447730
 30
0.0
  0
SPLINE
  5
137
100
AcDbEntity
  8
Ebene_1
 62
7
100
AcDbSpline
 70
8
 71
3
 72
8
 73
4
 74
0
 40
0
 40
0
 40
0
 40
0
 40
1
 40
1
 40
1
 40
1
 10
54.370889
 20
178.447730
 30
0.0
 10
66.188065
 20
183.588680
 30
0.0
 10
81.548602
 20
187.182130
 30
0.0
 10
95.333656
 20
188.030540
 30
0.0
  0
LWPOLYLINE
  5
138
100
AcDbEntity
  8
Ebene_1
 62
7
100
AcDbPolyline
 90
1
 70
1
 10
35.178360
 20
267.186283
 30
0.0
  0
SPLINE
  5
139
100
AcDbEntity
  8
Ebene_1
 62
7
100
AcDbSpline
 70
8
 71
3
 72
8
 73
4
 74
0
 40
0
 40
0
 40
0
 40
0
 40
1
 40
1
 40
1
 40
1
 10
103.169770
 20
180.057110
 30
0.0
 10
106.802790
 20
175.630110
 30
0.0
 10
109.815480
 20
172.052360
 30
0.0
 10
109.864570
 20
172.106570
 30
0.0
  0
SPLINE
  5
13a
100
AcDbEntity
  8
Ebene_1
 62
7
100
AcDbSpline
 70
8
 71
3
 72
8
 73
4
 74
0
 40
0
 40
0
 40
0
 40
0
 40
1
 40
1
 40
1
 40
1
 10
109.864570
 20
172.106570
 30
0.0
 10
109.913870
 20
172.160570
 30
0.0
 10
112.862360
 20
175.749410
 30
0.0
 10
116.417080
 20
180.081380
 30
0.0
  0
SPLINE
  5
13b
100
AcDbEntity
  8
Ebene_1
 62
7
100
AcDbSpline
 70
8
 71
3
 72
8
 73
4
 74
0
 40
0
 40
0
 40
0
 40
0
 40
1
 40
1
 40
1
 40
1
 10
116.417080
 20
180.081380
 30
0.0
 10
119.971880
 20
184.413300
 30
0.0
 10
122.934610
 20
187.991150
 30
0.0
 10
123.000960
 20
188.032170
 30
0.0
  0
SPLINE
  5
13c
100
AcDbEntity
  8
Ebene_1
 62
7
100
AcDbSpline
 70
8
 71
3
 72
8
 73
4
 74
0
 40
0
 40
0
 40
0
 40
0
 40
1
 40
1
 40
1
 40
1
 10
123.000960
 20
188.032170
 30
0.0
 10
123.139310
 20
188.117670
 30
0.0
 10
126.095760
 20
187.927070
 30
0.0
 10
128.678120
 20
187.666030
 30
0.0
  0
SPLINE
  5
13d
100
AcDbEntity
  8
Ebene_1
 62
7
100
AcDbSpline
 70
8
 71
3
 72
8
 73
4
 74
0
 40
0
 40
0
 40
0
 40
0
 40
1
 40
1
 40
1
 40
1
 10
128.678120
 20
187.666030
 30
0.0
 10
139.568370
 20
186.565180
 30
0.0
 10
150.505950
 20
184.045200
 30
0.0
 10
160.440350
 20
180.348040
 30
0.0
  0
SPLINE
  5
13e
100
AcDbEntity
  8
Ebene_1
 62
7
100
AcDbSpline
 70
8
 71
3
 72
8
 73
4
 74
0
 40
0
 40
0
 40
0
 40
0
 40
1
 40
1
 40
1
 40
1
 10
160.440350
 20
180.348040
 30
0.0
 10
162.784930
 20
179.475470
 30
0.0
 10
166.556280
 20
177.918110
 30
0.0
 10
167.539880
 20
177.416320
 30
0.0
  0
LWPOLYLINE
  5
13f
100
AcDbEntity
  8
Ebene_1
 62
7
100
AcDbPolyline
 90
3
 70
0
 10
95.333656
 20
188.030540
 30
0.0
 10
96.564267
 20
188.106140
 30
0.0
 10
103.169770
 20
180.057110
 30
0.0
  0
SPLINE
  5
140
100
AcDbEntity
  8
Ebene_1
 62
7
100
AcDbSpline
 70
8
 71
3
 72
8
 73
4
 74
0
 40
0
 40
0
 40
0
 40
0
 40
1
 40
1
 40
1
 40
1
 10
167.406650
 20
176.366930
 30
0.0
 10
165.103180
 20
173.199900
 30
0.0
 10
161.492020
 20
170.087660
 30
0.0
 10
157.019960
 20
167.415100
 30
0.0
  0
SPLINE
  5
141
100
AcDbEntity
  8
Ebene_1
 62
7
100
AcDbSpline
 70
8
 71
3
 72
8
 73
4
 74
0
 40
0
 40
0
 40
0
 40
0
 40
1
 40
1
 40
1
 40
1
 10
157.019960
 20
167.415100
 30
0.0
 10
155.790070
 20
166.680080
 30
0.0
 10
151.718670
 20
164.636600
 30
0.0
 10
151.163550
 20
164.475650
 30
0.0
  0
SPLINE
  5
142
100
AcDbEntity
  8
Ebene_1
 62
7
100
AcDbSpline
 70
8
 71
3
 72
8
 73
4
 74
0
 40
0
 40
0
 40
0
 40
0
 40
1
 40
1
 40
1
 40
1
 10
151.163550
 20
164.475650
 30
0.0
 10
150.934450
 20
164.409150
 30
0.0
 10
150.903740
 20
164.459050
 30
0.0
 10
150.827520
 20
165.022090
 30
0.0
  0
SPLINE
  5
143
100
AcDbEntity
  8
Ebene_1
 62
7
100
AcDbSpline
 70
8
 71
3
 72
8
 73
4
 74
0
 40
0
 40
0
 40
0
 40
0
 40
1
 40
1
 40
1
 40
1
 10
150.827520
 20
165.022090
 30
0.0
 10
150.781320
 20
165.362850
 30
0.0
 10
150.614770
 20
166.088530
 30
0.0
 10
150.457250
 20
166.634760
 30
0.0
  0
SPLINE
  5
144
100
AcDbEntity
  8
Ebene_1
 62
7
100
AcDbSpline
 70
8
 71
3
 72
8
 73
4
 74
0
 40
0
 40
0
 40
0
 40
0
 40
1
 40
1
 40
1
 40
1
 10
150.457250
 20
166.634760
 30
0.0
 10
149.216940
 20
170.935970
 30
0.0
 10
145.552200
 20
172.845890
 30
0.0
 10
137.175390
 20
173.556780
 30
0.0
  0
SPLINE
  5
145
100
AcDbEntity
  8
Ebene_1
 62
7
100
AcDbSpline
 70
8
 71
3
 72
8
 73
4
 74
0
 40
0
 40
0
 40
0
 40
0
 40
1
 40
1
 40
1
 40
1
 10
137.175390
 20
173.556780
 30
0.0
 10
135.351440
 20
173.711630
 30
0.0
 10
127.765730
 20
173.910140
 30
0.0
 10
127.670390
 20
173.805640
 30
0.0
  0
SPLINE
  5
146
100
AcDbEntity
  8
Ebene_1
 62
7
100
AcDbSpline
 70
8
 71
3
 72
8
 73
4
 74
0
 40
0
 40
0
 40
0
 40
0
 40
1
 40
1
 40
1
 40
1
 10
127.670390
 20
173.805640
 30
0.0
 10
127.621690
 20
173.752240
 30
0.0
 10
112.977710
 20
91.603920
 30
0.0
 10
109.887150
 20
74.046720
 30
0.0
  0
LWPOLYLINE
  5
147
100
AcDbEntity
  8
Ebene_1
 62
7
100
AcDbPolyline
 90
3
 70
0
 10
167.539880
 20
177.416320
 30
0.0
 10
167.999390
 20
177.181870
 30
0.0
 10
167.406650
 20
176.366930
 30
0.0
  0
SPLINE
  5
148
100
AcDbEntity
  8
Ebene_1
 62
7
100
AcDbSpline
 70
8
 71
3
 72
8
 73
4
 74
0
 40
0
 40
0
 40
0
 40
0
 40
1
 40
1
 40
1
 40
1
 10
168.000000
 20
181.607500
 30
0.0
 10
154.001910
 20
187.511120
 30
0.0
 10
138.098420
 20
191.267810
 30
0.0
 10
122.231910
 20
192.418710
 30
0.0
  0
SPLINE
  5
149
100
AcDbEntity
  8
Ebene_1
 62
7
100
AcDbSpline
 70
8
 71
3
 72
8
 73
4
 74
0
 40
0
 40
0
 40
0
 40
0
 40
1
 40
1
 40
1
 40
1
 10
122.231910
 20
192.418710
 30
0.0
 10
117.134330
 20
192.788460
 30
0.0
 10
106.544170
 20
192.909540
 30
0.0
 10
101.416100
 20
192.656710
 30
0.0
  0
SPLINE
  5
14a
100
AcDbEntity
  8
Ebene_1
 62
7
100
AcDbSpline
 70
8
 71
3
 72
8
 73
4
 74
0
 40
0
 40
0
 40
0
 40
0
 40
1
 40
1
 40
1
 40
1
 10
101.416100
 20
192.656710
 30
0.0
 10
83.644993
 20
191.780500
 30
0.0
 10
67.295250
 20
188.158850
 30
0.0
 10
51.582173
 20
181.618000
 30
0.0
  0
SPLINE
  5
14b
100
AcDbEntity
  8
Ebene_1
 62
7
100
AcDbSpline
 70
8
 71
3
 72
8
 73
4
 74
0
 40
0
 40
0
 40
0
 40
0
 40
1
 40
1
 40
1
 40
1
 10
51.582173
 20
181.618000
 30
0.0
 10
50.499641
 20
181.167350
 30
0.0
 10
49.546485
 20
180.824500
 30
0.0
 10
49.464116
 20
180.856110
 30
0.0
  0
SPLINE
  5
14c
100
AcDbEntity
  8
Ebene_1
 62
7
100
AcDbSpline
 70
8
 71
3
 72
8
 73
4
 74
0
 40
0
 40
0
 40
0
 40
0
 40
1
 40
1
 40
1
 40
1
 10
49.464116
 20
180.856110
 30
0.0
 10
49.381536
 20
180.887810
 30
0.0
 10
48.703991
 20
182.145080
 30
0.0
 10
47.957976
 20
183.650290
 30
0.0
  0
SPLINE
  5
14d
100
AcDbEntity
  8
Ebene_1
 62
7
100
AcDbSpline
 70
8
 71
3
 72
8
 73
4
 74
0
 40
0
 40
0
 40
0
 40
0
 40
1
 40
1
 40
1
 40
1
 10
47.957976
 20
183.650290
 30
0.0
 10
46.562278
 20
186.466410
 30
0.0
 10
45.911819
 20
187.929320
 30
0.0
 10
46.011261
 20
188.028720
 30
0.0
  0
SPLINE
  5
14e
100
AcDbEntity
  8
Ebene_1
 62
7
100
AcDbSpline
 70
8
 71
3
 72
8
 73
4
 74
0
 40
0
 40
0
 40
0
 40
0
 40
1
 40
1
 40
1
 40
1
 10
46.011261
 20
188.028720
 30
0.0
 10
46.112864
 20
188.130230
 30
0.0
 10
50.210866
 20
189.678570
 30
0.0
 10
52.612841
 20
190.522720
 30
0.0
  0
SPLINE
  5
14f
100
AcDbEntity
  8
Ebene_1
 62
7
100
AcDbSpline
 70
8
 71
3
 72
8
 73
4
 74
0
 40
0
 40
0
 40
0
 40
0
 40
1
 40
1
 40
1
 40
1
 10
52.612841
 20
190.522720
 30
0.0
 10
75.130373
 20
198.436440
 30
0.0
 10
99.178535
 20
201.715890
 30
0.0
 10
121.938920
 20
199.976720
 30
0.0
  0
SPLINE
  5
150
100
AcDbEntity
  8
Ebene_1
 62
7
100
AcDbSpline
 70
8
 71
3
 72
8
 73
4
 74
0
 40
0
 40
0
 40
0
 40
0
 40
1
 40
1
 40
1
 40
1
 10
121.938920
 20
199.976720
 30
0.0
 10
138.962300
 20
198.675940
 30
0.0
 10
155.006010
 20
195.085020
 30
0.0
 10
171.337480
 20
188.920330
 30
0.0
  0
SPLINE
  5
151
100
AcDbEntity
  8
Ebene_1
 62
7
100
AcDbSpline
 70
8
 71
3
 72
8
 73
4
 74
0
 40
0
 40
0
 40
0
 40
0
 40
1
 40
1
 40
1
 40
1
 10
171.337480
 20
188.920330
 30
0.0
 10
172.553390
 20
188.461360
 30
0.0
 10
173.569130
 20
188.064950
 30
0.0
 10
173.594670
 20
188.039390
 30
0.0
  0
SPLINE
  5
152
100
AcDbEntity
  8
Ebene_1
 62
7
100
AcDbSpline
 70
8
 71
3
 72
8
 73
4
 74
0
 40
0
 40
0
 40
0
 40
0
 40
1
 40
1
 40
1
 40
1
 10
173.594670
 20
188.039390
 30
0.0
 10
173.728140
 20
187.905860
 30
0.0
 10
170.462670
 20
181.088980
 30
0.0
 10
170.131790
 20
180.810430
 30
0.0
  0
SPLINE
  5
153
100
AcDbEntity
  8
Ebene_1
 62
7
100
AcDbSpline
 70
8
 71
3
 72
8
 73
4
 74
0
 40
0
 40
0
 40
0
 40
0
 40
1
 40
1
 40
1
 40
1
 10
170.131790
 20
180.810430
 30
0.0
 10
170.087390
 20
180.773130
 30
0.0
 10
169.128110
 20
181.131740
 30
0.0
 10
168.000000
 20
181.607500
 30
0.0
  0
LWPOLYLINE
  5
154
100
AcDbEntity
  8
Ebene_1
 62
7
100
AcDbPolyline
 90
3
 70
0
 10
109.887150
 20
74.046720
 30
0.0
 10
109.794350
 20
73.519360
 30
0.0
 10
109.716540
 20
73.929650
 30
0.0
  0
LWPOLYLINE
  5
155
100
AcDbEntity
  8
Ebene_1
 62
7
100
AcDbPolyline
 90
1
 70
1
 10
168.000000
 20
181.607500
 30
0.0
  0
SPLINE
  5
156
100
AcDbEntity
  8
Ebene_1
 62
7
100
AcDbSpline
 70
8
 71
3
 72
8
 73
4
 74
0
 40
0
 40
0
 40
0
 40
0
 40
1
 40
1
 40
1
 40
1
 10
37.539268
 20
237.354167
 30
0.0
 10
35.924529
 20
237.354167
 30
0.0
 10
34.494768
 20
236.756932
 30
0.0
 10
33.340049
 20
235.602214
 30
0.0
  0
SPLINE
  5
157
100
AcDbEntity
  8
Ebene_1
 62
7
100
AcDbSpline
 70
8
 71
3
 72
8
 73
4
 74
0
 40
0
 40
0
 40
0
 40
0
 40
1
 40
1
 40
1
 40
1
 10
33.340049
 20
235.602214
 30
0.0
 10
32.211926
 20
234.474092
 30
0.0
 10
31.631065
 20
233.057984
 30
0.0
 10
31.631065
 20
231.445964
 30
0.0
  0
LWPOLYLINE
  5
158
100
AcDbEntity
  8
Ebene_1
 62
7
100
AcDbPolyline
 90
5
 70
0
 10
31.631065
 20
259.254558
 30
0.0
 10
31.631065
 20
241.963542
 30
0.0
 10
59.006065
 20
241.963542
 30
0.0
 10
59.006065
 20
237.354167
 30
0.0
 10
37.539268
 20
237.354167
 30
0.0
  0
SPLINE
  5
159
100
AcDbEntity
  8
Ebene_1
 62
7
100
AcDbSpline
 70
8
 71
3
 72
8
 73
4
 74
0
 40
0
 40
0
 40
0
 40
0
 40
1
 40
1
 40
1
 40
1
 10
59.439659
 20
252.914714
 30
0.0
 10
61.025098
 20
252.914714
 30
0.0
 10
62.435775
 20
253.495893
 30
0.0
 10
63.590049
 20
254.619792
 30
0.0
  0
SPLINE
  5
15a
100
AcDbEntity
  8
Ebene_1
 62
7
100
AcDbSpline
 70
8
 71
3
 72
8
 73
4
 74
0
 40
0
 40
0
 40
0
 40
0
 40
1
 40
1
 40
1
 40
1
 10
63.590049
 20
254.619792
 30
0.0
 10
64.749025
 20
255.748268
 30
0.0
 10
65.347862
 20
257.181575
 30
0.0
 10
65.347862
 20
258.822917
 30
0.0
  0
LWPOLYLINE
  5
15b
100
AcDbEntity
  8
Ebene_1
 62
7
100
AcDbPolyline
 90
8
 70
0
 10
31.631065
 20
231.445964
 30
0.0
 10
31.631065
 20
231.014324
 30
0.0
 10
32.062705
 20
231.014324
 30
0.0
 10
65.347862
 20
231.014324
 30
0.0
 10
65.347862
 20
248.305339
 30
0.0
 10
37.970909
 20
248.305339
 30
0.0
 10
37.970909
 20
252.914714
 30
0.0
 10
59.439659
 20
252.914714
 30
0.0
  0
LWPOLYLINE
  5
15c
100
AcDbEntity
  8
Ebene_1
 62
7
100
AcDbPolyline
 90
3
 70
0
 10
65.347862
 20
258.822917
 30
0.0
 10
65.347862
 20
259.254558
 30
0.0
 10
31.631065
 20
259.254558
 30
0.0
  0
SPLINE
  5
15d
100
AcDbEntity
  8
Ebene_1
 62
7
100
AcDbSpline
 70
8
 71
3
 72
8
 73
4
 74
0
 40
0
 40
0
 40
0
 40
0
 40
1
 40
1
 40
1
 40
1
 10
72.506065
 20
236.922527
 30
0.0
 10
72.506065
 20
235.310507
 30
0.0
 10
73.085921
 20
233.882848
 30
0.0
 10
74.211144
 20
232.727214
 30
0.0
  0
LWPOLYLINE
  5
15e
100
AcDbEntity
  8
Ebene_1
 62
7
100
AcDbPolyline
 90
2
 70
0
 10
72.506065
 20
237.354167
 30
0.0
 10
72.506065
 20
236.922527
 30
0.0
  0
SPLINE
  5
15f
100
AcDbEntity
  8
Ebene_1
 62
7
100
AcDbSpline
 70
8
 71
3
 72
8
 73
4
 74
0
 40
0
 40
0
 40
0
 40
0
 40
1
 40
1
 40
1
 40
1
 10
74.215143
 20
232.723214
 30
0.0
 10
75.344643
 20
231.593714
 30
0.0
 10
76.773736
 20
231.014230
 30
0.0
 10
78.412408
 20
231.014230
 30
0.0
  0
LWPOLYLINE
  5
160
100
AcDbEntity
  8
Ebene_1
 62
7
100
AcDbPolyline
 90
3
 70
0
 10
74.211144
 20
232.727214
 30
0.0
 10
74.213144
 20
232.725214
 30
0.0
 10
74.215143
 20
232.723214
 30
0.0
  0
SPLINE
  5
161
100
AcDbEntity
  8
Ebene_1
 62
7
100
AcDbSpline
 70
8
 71
3
 72
8
 73
4
 74
0
 40
0
 40
0
 40
0
 40
0
 40
1
 40
1
 40
1
 40
1
 10
100.312706
 20
231.014230
 30
0.0
 10
101.898146
 20
231.014230
 30
0.0
 10
103.310776
 20
231.595408
 30
0.0
 10
104.465046
 20
232.719308
 30
0.0
  0
SPLINE
  5
162
100
AcDbEntity
  8
Ebene_1
 62
7
100
AcDbSpline
 70
8
 71
3
 72
8
 73
4
 74
0
 40
0
 40
0
 40
0
 40
0
 40
1
 40
1
 40
1
 40
1
 10
104.465046
 20
232.719308
 30
0.0
 10
105.624026
 20
233.847784
 30
0.0
 10
106.220906
 20
235.281091
 30
0.0
 10
106.220906
 20
236.922433
 30
0.0
  0
LWPOLYLINE
  5
163
100
AcDbEntity
  8
Ebene_1
 62
7
100
AcDbPolyline
 90
2
 70
0
 10
78.412408
 20
231.014230
 30
0.0
 10
100.312706
 20
231.014230
 30
0.0
  0
LWPOLYLINE
  5
164
100
AcDbEntity
  8
Ebene_1
 62
7
100
AcDbPolyline
 90
3
 70
0
 10
106.220906
 20
236.922433
 30
0.0
 10
106.220906
 20
237.354073
 30
0.0
 10
72.506065
 20
237.354167
 30
0.0
  0
SPLINE
  5
165
100
AcDbEntity
  8
Ebene_1
 62
7
100
AcDbSpline
 70
8
 71
3
 72
8
 73
4
 74
0
 40
0
 40
0
 40
0
 40
0
 40
1
 40
1
 40
1
 40
1
 10
72.506065
 20
247.871745
 30
0.0
 10
72.506065
 20
246.259726
 30
0.0
 10
73.085921
 20
244.834020
 30
0.0
 10
74.211144
 20
243.678386
 30
0.0
  0
LWPOLYLINE
  5
166
100
AcDbEntity
  8
Ebene_1
 62
7
100
AcDbPolyline
 90
2
 70
0
 10
72.506065
 20
248.305339
 30
0.0
 10
72.506065
 20
247.871745
 30
0.0
  0
SPLINE
  5
167
100
AcDbEntity
  8
Ebene_1
 62
7
100
AcDbSpline
 70
8
 71
3
 72
8
 73
4
 74
0
 40
0
 40
0
 40
0
 40
0
 40
1
 40
1
 40
1
 40
1
 10
74.215143
 20
243.674386
 30
0.0
 10
75.344643
 20
242.544886
 30
0.0
 10
76.773736
 20
241.963448
 30
0.0
 10
78.412408
 20
241.963448
 30
0.0
  0
LWPOLYLINE
  5
168
100
AcDbEntity
  8
Ebene_1
 62
7
100
AcDbPolyline
 90
3
 70
0
 10
74.211144
 20
243.678386
 30
0.0
 10
74.213144
 20
243.676386
 30
0.0
 10
74.215143
 20
243.674386
 30
0.0
  0
SPLINE
  5
169
100
AcDbEntity
  8
Ebene_1
 62
7
100
AcDbSpline
 70
8
 71
3
 72
8
 73
4
 74
0
 40
0
 40
0
 40
0
 40
0
 40
1
 40
1
 40
1
 40
1
 10
100.312706
 20
241.963448
 30
0.0
 10
101.898146
 20
241.963448
 30
0.0
 10
103.310776
 20
242.544627
 30
0.0
 10
104.465046
 20
243.668527
 30
0.0
  0
SPLINE
  5
16a
100
AcDbEntity
  8
Ebene_1
 62
7
100
AcDbSpline
 70
8
 71
3
 72
8
 73
4
 74
0
 40
0
 40
0
 40
0
 40
0
 40
1
 40
1
 40
1
 40
1
 10
104.465046
 20
243.668527
 30
0.0
 10
105.624026
 20
244.797003
 30
0.0
 10
106.220906
 20
246.230310
 30
0.0
 10
106.220906
 20
247.871651
 30
0.0
  0
LWPOLYLINE
  5
16b
100
AcDbEntity
  8
Ebene_1
 62
7
100
AcDbPolyline
 90
2
 70
0
 10
78.412408
 20
241.963448
 30
0.0
 10
100.312706
 20
241.963448
 30
0.0
  0
LWPOLYLINE
  5
16c
100
AcDbEntity
  8
Ebene_1
 62
7
100
AcDbPolyline
 90
3
 70
0
 10
106.220906
 20
247.871651
 30
0.0
 10
106.220906
 20
248.305245
 30
0.0
 10
72.506065
 20
248.305339
 30
0.0
  0
SPLINE
  5
16d
100
AcDbEntity
  8
Ebene_1
 62
7
100
AcDbSpline
 70
8
 71
3
 72
8
 73
4
 74
0
 40
0
 40
0
 40
0
 40
0
 40
1
 40
1
 40
1
 40
1
 10
72.506065
 20
258.822917
 30
0.0
 10
72.506065
 20
257.210898
 30
0.0
 10
73.085921
 20
255.783239
 30
0.0
 10
74.211144
 20
254.627605
 30
0.0
  0
LWPOLYLINE
  5
16e
100
AcDbEntity
  8
Ebene_1
 62
7
100
AcDbPolyline
 90
2
 70
0
 10
72.506065
 20
259.254558
 30
0.0
 10
72.506065
 20
258.822917
 30
0.0
  0
SPLINE
  5
16f
100
AcDbEntity
  8
Ebene_1
 62
7
100
AcDbSpline
 70
8
 71
3
 72
8
 73
4
 74
0
 40
0
 40
0
 40
0
 40
0
 40
1
 40
1
 40
1
 40
1
 10
74.215143
 20
254.623605
 30
0.0
 10
75.344643
 20
253.494104
 30
0.0
 10
76.773736
 20
252.914620
 30
0.0
 10
78.412408
 20
252.914620
 30
0.0
  0
LWPOLYLINE
  5
170
100
AcDbEntity
  8
Ebene_1
 62
7
100
AcDbPolyline
 90
3
 70
0
 10
74.211144
 20
254.627605
 30
0.0
 10
74.213144
 20
254.625605
 30
0.0
 10
74.215143
 20
254.623605
 30
0.0
  0
SPLINE
  5
171
100
AcDbEntity
  8
Ebene_1
 62
7
100
AcDbSpline
 70
8
 71
3
 72
8
 73
4
 74
0
 40
0
 40
0
 40
0
 40
0
 40
1
 40
1
 40
1
 40
1
 10
100.312706
 20
252.914620
 30
0.0
 10
101.898146
 20
252.914620
 30
0.0
 10
103.310776
 20
253.495799
 30
0.0
 10
104.465046
 20
254.619698
 30
0.0
  0
SPLINE
  5
172
100
AcDbEntity
  8
Ebene_1
 62
7
100
AcDbSpline
 70
8
 71
3
 72
8
 73
4
 74
0
 40
0
 40
0
 40
0
 40
0
 40
1
 40
1
 40
1
 40
1
 10
104.465046
 20
254.619698
 30
0.0
 10
105.624026
 20
255.748174
 30
0.0
 10
106.220906
 20
257.181481
 30
0.0
 10
106.220906
 20
258.822823
 30
0.0
  0
LWPOLYLINE
  5
173
100
AcDbEntity
  8
Ebene_1
 62
7
100
AcDbPolyline
 90
2
 70
0
 10
78.412408
 20
252.914620
 30
0.0
 10
100.312706
 20
252.914620
 30
0.0
  0
LWPOLYLINE
  5
174
100
AcDbEntity
  8
Ebene_1
 62
7
100
AcDbPolyline
 90
3
 70
0
 10
106.220906
 20
258.822823
 30
0.0
 10
106.220906
 20
259.254464
 30
0.0
 10
72.506065
 20
259.254558
 30
0.0
  0
LWPOLYLINE
  5
175
100
AcDbEntity
  8
Ebene_1
 62
7
100
AcDbPolyline
 90
25
 70
1
 10
113.379116
 20
259.254558
 30
0.0
 10
113.379116
 20
253.168621
 30
0.0
 10
118.980676
 20
247.567058
 30
0.0
 10
121.414266
 20
245.133464
 30
0.0
 10
113.379116
 20
237.100261
 30
0.0
 10
113.379116
 20
231.014324
 30
0.0
 10
113.812706
 20
231.014324
 30
0.0
 10
119.718956
 20
231.014324
 30
0.0
 10
119.718956
 20
234.004558
 30
0.0
 10
130.238485
 20
244.522136
 30
0.0
 10
140.756066
 20
234.004558
 30
0.0
 10
140.756066
 20
231.014324
 30
0.0
 10
141.187705
 20
231.014324
 30
0.0
 10
147.095905
 20
231.014324
 30
0.0
 10
147.095905
 20
237.100261
 30
0.0
 10
139.058795
 20
245.137371
 30
0.0
 10
141.326375
 20
247.440105
 30
0.0
 10
141.367375
 20
247.440105
 30
0.0
 10
147.095885
 20
253.168621
 30
0.0
 10
147.095885
 20
259.254558
 30
0.0
 10
140.756045
 20
259.254558
 30
0.0
 10
140.756045
 20
256.264324
 30
0.0
 10
130.238485
 20
245.746745
 30
0.0
 10
119.718956
 20
256.264324
 30
0.0
 10
119.718956
 20
259.254558
 30
0.0
  0
LWPOLYLINE
  5
176
100
AcDbEntity
  8
Ebene_1
 62
7
100
AcDbPolyline
 90
14
 70
1
 10
154.254115
 20
259.254558
 30
0.0
 10
154.254115
 20
253.168621
 30
0.0
 10
167.941615
 20
239.479167
 30
0.0
 10
167.941615
 20
231.014324
 30
0.0
 10
168.373255
 20
231.014324
 30
0.0
 10
174.281455
 20
231.014324
 30
0.0
 10
174.281455
 20
239.479167
 30
0.0
 10
187.968955
 20
253.168621
 30
0.0
 10
187.968955
 20
259.254558
 30
0.0
 10
181.629115
 20
259.254558
 30
0.0
 10
181.629115
 20
256.264324
 30
0.0
 10
171.111536
 20
245.746745
 30
0.0
 10
160.593955
 20
256.264324
 30
0.0
 10
160.593955
 20
259.254558
 30
0.0
  0
SPLINE
  5
177
100
AcDbEntity
  8
Ebene_1
 62
7
100
AcDbSpline
 70
8
 71
3
 72
8
 73
4
 74
0
 40
0
 40
0
 40
0
 40
0
 40
1
 40
1
 40
1
 40
1
 10
53.377111
 20
63.406870
 30
0.0
 10
53.377111
 20
63.033460
 30
0.0
 10
53.261992
 20
62.760540
 30
0.0
 10
53.002111
 20
62.498670
 30
0.0
  0
SPLINE
  5
178
100
AcDbEntity
  8
Ebene_1
 62
7
100
AcDbSpline
 70
8
 71
3
 72
8
 73
4
 74
0
 40
0
 40
0
 40
0
 40
0
 40
1
 40
1
 40
1
 40
1
 10
53.002111
 20
62.498670
 30
0.0
 10
52.739402
 20
62.251680
 30
0.0
 10
52.468905
 20
62.143200
 30
0.0
 10
52.111486
 20
62.143200
 30
0.0
  0
LWPOLYLINE
  5
179
100
AcDbEntity
  8
Ebene_1
 62
7
100
AcDbPolyline
 90
4
 70
0
 10
36.408361
 20
68.930310
 30
0.0
 10
36.408361
 20
64.670540
 30
0.0
 10
53.377111
 20
64.670540
 30
0.0
 10
53.377111
 20
63.406870
 30
0.0
  0
SPLINE
  5
17a
100
AcDbEntity
  8
Ebene_1
 62
7
100
AcDbSpline
 70
8
 71
3
 72
8
 73
4
 74
0
 40
0
 40
0
 40
0
 40
0
 40
1
 40
1
 40
1
 40
1
 10
53.808752
 20
57.883430
 30
0.0
 10
54.830381
 20
57.883430
 30
0.0
 10
55.753991
 20
58.264220
 30
0.0
 10
56.496252
 20
58.986950
 30
0.0
  0
SPLINE
  5
17b
100
AcDbEntity
  8
Ebene_1
 62
7
100
AcDbSpline
 70
8
 71
3
 72
8
 73
4
 74
0
 40
0
 40
0
 40
0
 40
0
 40
1
 40
1
 40
1
 40
1
 10
56.496252
 20
58.986950
 30
0.0
 10
57.243212
 20
59.714250
 30
0.0
 10
57.634924
 20
60.653760
 30
0.0
 10
57.634924
 20
61.709610
 30
0.0
  0
LWPOLYLINE
  5
17c
100
AcDbEntity
  8
Ebene_1
 62
7
100
AcDbPolyline
 90
7
 70
0
 10
52.111486
 20
62.143200
 30
0.0
 10
36.408361
 20
62.143200
 30
0.0
 10
36.408361
 20
51.098280
 30
0.0
 10
36.841955
 20
51.098280
 30
0.0
 10
40.668127
 20
51.098280
 30
0.0
 10
40.668127
 20
57.883430
 30
0.0
 10
53.808752
 20
57.883430
 30
0.0
  0
LWPOLYLINE
  5
17d
100
AcDbEntity
  8
Ebene_1
 62
7
100
AcDbPolyline
 90
3
 70
0
 10
57.634924
 20
61.709610
 30
0.0
 10
57.634924
 20
68.930310
 30
0.0
 10
36.408361
 20
68.930310
 30
0.0
  0
LWPOLYLINE
  5
17e
100
AcDbEntity
  8
Ebene_1
 62
7
100
AcDbPolyline
 90
9
 70
1
 10
60.162267
 20
62.143200
 30
0.0
 10
60.162267
 20
51.098280
 30
0.0
 10
60.595861
 20
51.098280
 30
0.0
 10
64.422033
 20
51.098280
 30
0.0
 10
64.422033
 20
57.883430
 30
0.0
 10
77.131017
 20
57.883430
 30
0.0
 10
77.131017
 20
51.098280
 30
0.0
 10
81.388830
 20
51.098280
 30
0.0
 10
81.388830
 20
62.143200
 30
0.0
  0
SPLINE
  5
17f
100
AcDbEntity
  8
Ebene_1
 62
7
100
AcDbSpline
 70
8
 71
3
 72
8
 73
4
 74
0
 40
0
 40
0
 40
0
 40
0
 40
1
 40
1
 40
1
 40
1
 10
60.162267
 20
68.496710
 30
0.0
 10
60.162267
 20
67.459350
 30
0.0
 10
60.541733
 20
66.525490
 30
0.0
 10
61.265783
 20
65.781870
 30
0.0
  0
LWPOLYLINE
  5
180
100
AcDbEntity
  8
Ebene_1
 62
7
100
AcDbPolyline
 90
2
 70
0
 10
60.162267
 20
68.930310
 30
0.0
 10
60.162267
 20
68.496710
 30
0.0
  0
SPLINE
  5
181
100
AcDbEntity
  8
Ebene_1
 62
7
100
AcDbSpline
 70
8
 71
3
 72
8
 73
4
 74
0
 40
0
 40
0
 40
0
 40
0
 40
1
 40
1
 40
1
 40
1
 10
61.271684
 20
65.777870
 30
0.0
 10
62.000011
 20
65.049540
 30
0.0
 10
62.935302
 20
64.670440
 30
0.0
 10
63.988481
 20
64.670440
 30
0.0
  0
LWPOLYLINE
  5
182
100
AcDbEntity
  8
Ebene_1
 62
7
100
AcDbPolyline
 90
3
 70
0
 10
61.265783
 20
65.781870
 30
0.0
 10
61.269683
 20
65.779870
 30
0.0
 10
61.271684
 20
65.777870
 30
0.0
  0
SPLINE
  5
183
100
AcDbEntity
  8
Ebene_1
 62
7
100
AcDbSpline
 70
8
 71
3
 72
8
 73
4
 74
0
 40
0
 40
0
 40
0
 40
0
 40
1
 40
1
 40
1
 40
1
 10
77.562658
 20
64.670440
 30
0.0
 10
78.584288
 20
64.670440
 30
0.0
 10
79.507898
 20
65.051230
 30
0.0
 10
80.250158
 20
65.773960
 30
0.0
  0
SPLINE
  5
184
100
AcDbEntity
  8
Ebene_1
 62
7
100
AcDbSpline
 70
8
 71
3
 72
8
 73
4
 74
0
 40
0
 40
0
 40
0
 40
0
 40
1
 40
1
 40
1
 40
1
 10
80.250158
 20
65.773960
 30
0.0
 10
80.997118
 20
66.501260
 30
0.0
 10
81.388830
 20
67.440770
 30
0.0
 10
81.388830
 20
68.496610
 30
0.0
  0
LWPOLYLINE
  5
185
100
AcDbEntity
  8
Ebene_1
 62
7
100
AcDbPolyline
 90
2
 70
0
 10
63.988481
 20
64.670440
 30
0.0
 10
77.562658
 20
64.670440
 30
0.0
  0
LWPOLYLINE
  5
186
100
AcDbEntity
  8
Ebene_1
 62
7
100
AcDbPolyline
 90
3
 70
0
 10
81.388830
 20
68.496610
 30
0.0
 10
81.388830
 20
68.930210
 30
0.0
 10
60.162267
 20
68.930310
 30
0.0
  0
SPLINE
  5
187
100
AcDbEntity
  8
Ebene_1
 62
7
100
AcDbSpline
 70
8
 71
3
 72
8
 73
4
 74
0
 40
0
 40
0
 40
0
 40
0
 40
1
 40
1
 40
1
 40
1
 10
83.916174
 20
68.496710
 30
0.0
 10
83.916174
 20
67.459350
 30
0.0
 10
84.295640
 20
66.525490
 30
0.0
 10
85.019689
 20
65.781870
 30
0.0
  0
LWPOLYLINE
  5
188
100
AcDbEntity
  8
Ebene_1
 62
7
100
AcDbPolyline
 90
2
 70
0
 10
83.916174
 20
68.930310
 30
0.0
 10
83.916174
 20
68.496710
 30
0.0
  0
SPLINE
  5
189
100
AcDbEntity
  8
Ebene_1
 62
7
100
AcDbSpline
 70
8
 71
3
 72
8
 73
4
 74
0
 40
0
 40
0
 40
0
 40
0
 40
1
 40
1
 40
1
 40
1
 10
85.025589
 20
65.777870
 30
0.0
 10
85.753918
 20
65.049540
 30
0.0
 10
86.689207
 20
64.670440
 30
0.0
 10
87.742386
 20
64.670440
 30
0.0
  0
LWPOLYLINE
  5
18a
100
AcDbEntity
  8
Ebene_1
 62
7
100
AcDbPolyline
 90
3
 70
0
 10
85.019689
 20
65.781870
 30
0.0
 10
85.023589
 20
65.779870
 30
0.0
 10
85.025589
 20
65.777870
 30
0.0
  0
SPLINE
  5
18b
100
AcDbEntity
  8
Ebene_1
 62
7
100
AcDbSpline
 70
8
 71
3
 72
8
 73
4
 74
0
 40
0
 40
0
 40
0
 40
0
 40
1
 40
1
 40
1
 40
1
 10
100.884968
 20
63.406770
 30
0.0
 10
100.884968
 20
63.033360
 30
0.0
 10
100.769848
 20
62.760440
 30
0.0
 10
100.509968
 20
62.498570
 30
0.0
  0
SPLINE
  5
18c
100
AcDbEntity
  8
Ebene_1
 62
7
100
AcDbSpline
 70
8
 71
3
 72
8
 73
4
 74
0
 40
0
 40
0
 40
0
 40
0
 40
1
 40
1
 40
1
 40
1
 10
100.509968
 20
62.498570
 30
0.0
 10
100.247259
 20
62.251580
 30
0.0
 10
99.976759
 20
62.143100
 30
0.0
 10
99.619339
 20
62.143100
 30
0.0
  0
LWPOLYLINE
  5
18d
100
AcDbEntity
  8
Ebene_1
 62
7
100
AcDbPolyline
 90
3
 70
0
 10
87.742386
 20
64.670440
 30
0.0
 10
100.884968
 20
64.670440
 30
0.0
 10
100.884968
 20
63.406770
 30
0.0
  0
SPLINE
  5
18e
100
AcDbEntity
  8
Ebene_1
 62
7
100
AcDbSpline
 70
8
 71
3
 72
8
 73
4
 74
0
 40
0
 40
0
 40
0
 40
0
 40
1
 40
1
 40
1
 40
1
 10
101.316569
 20
57.883330
 30
0.0
 10
102.338189
 20
57.883330
 30
0.0
 10
103.261809
 20
58.264120
 30
0.0
 10
104.004069
 20
58.986850
 30
0.0
  0
SPLINE
  5
18f
100
AcDbEntity
  8
Ebene_1
 62
7
100
AcDbSpline
 70
8
 71
3
 72
8
 73
4
 74
0
 40
0
 40
0
 40
0
 40
0
 40
1
 40
1
 40
1
 40
1
 10
104.004069
 20
58.986850
 30
0.0
 10
104.751029
 20
59.714150
 30
0.0
 10
105.142739
 20
60.653660
 30
0.0
 10
105.142739
 20
61.709510
 30
0.0
  0
LWPOLYLINE
  5
190
100
AcDbEntity
  8
Ebene_1
 62
7
100
AcDbPolyline
 90
11
 70
0
 10
99.619339
 20
62.143100
 30
0.0
 10
83.916174
 20
62.143100
 30
0.0
 10
83.916174
 20
51.098180
 30
0.0
 10
84.349767
 20
51.098180
 30
0.0
 10
88.175939
 20
51.098180
 30
0.0
 10
88.175939
 20
57.883330
 30
0.0
 10
92.654455
 20
57.883330
 30
0.0
 10
99.441564
 20
51.098180
 30
0.0
 10
105.754069
 20
51.098180
 30
0.0
 10
98.966955
 20
57.883330
 30
0.0
 10
101.316569
 20
57.883330
 30
0.0
  0
LWPOLYLINE
  5
191
100
AcDbEntity
  8
Ebene_1
 62
7
100
AcDbPolyline
 90
3
 70
0
 10
105.142739
 20
61.709510
 30
0.0
 10
105.142739
 20
68.930210
 30
0.0
 10
83.916174
 20
68.930310
 30
0.0
  0
LWPOLYLINE
  5
192
100
AcDbEntity
  8
Ebene_1
 62
7
100
AcDbPolyline
 90
9
 70
1
 10
123.195469
 20
68.930310
 30
0.0
 10
114.279459
 20
60.014290
 30
0.0
 10
123.195469
 20
51.098280
 30
0.0
 10
123.373209
 20
51.098280
 30
0.0
 10
129.507969
 20
51.098280
 30
0.0
 10
120.589999
 20
60.016250
 30
0.0
 10
121.832189
 20
61.277970
 30
0.0
 10
121.855588
 20
61.277970
 30
0.0
 10
129.507928
 20
68.930310
 30
0.0
  0
LWPOLYLINE
  5
193
100
AcDbEntity
  8
Ebene_1
 62
7
100
AcDbPolyline
 90
5
 70
1
 10
107.670079
 20
68.930310
 30
0.0
 10
107.670079
 20
51.098280
 30
0.0
 10
108.103679
 20
51.098280
 30
0.0
 10
111.929849
 20
51.098280
 30
0.0
 10
111.929849
 20
68.930310
 30
0.0
  0
LWPOLYLINE
  5
194
100
AcDbEntity
  8
Ebene_1
 62
7
100
AcDbPolyline
 90
5
 70
1
 10
131.423989
 20
68.930310
 30
0.0
 10
131.423989
 20
51.098280
 30
0.0
 10
131.857579
 20
51.098280
 30
0.0
 10
135.683749
 20
51.098280
 30
0.0
 10
135.683749
 20
68.930310
 30
0.0
  0
LWPOLYLINE
  5
195
100
AcDbEntity
  8
Ebene_1
 62
7
100
AcDbPolyline
 90
12
 70
1
 10
137.599769
 20
68.930310
 30
0.0
 10
141.605629
 20
64.924450
 30
0.0
 10
141.605629
 20
51.098280
 30
0.0
 10
142.037269
 20
51.098280
 30
0.0
 10
145.863439
 20
51.098280
 30
0.0
 10
145.863439
 20
60.666640
 30
0.0
 10
155.431799
 20
51.098280
 30
0.0
 10
159.437659
 20
51.098280
 30
0.0
 10
159.437659
 20
68.930310
 30
0.0
 10
155.177889
 20
68.930310
 30
0.0
 10
155.177889
 20
57.664680
 30
0.0
 10
143.914219
 20
68.930310
 30
0.0
  0
SPLINE
  5
196
100
AcDbEntity
  8
Ebene_1
 62
7
100
AcDbSpline
 70
8
 71
3
 72
8
 73
4
 74
0
 40
0
 40
0
 40
0
 40
0
 40
1
 40
1
 40
1
 40
1
 10
161.964999
 20
54.922500
 30
0.0
 10
161.964999
 20
53.885130
 30
0.0
 10
162.344469
 20
52.953220
 30
0.0
 10
163.068519
 20
52.209610
 30
0.0
  0
LWPOLYLINE
  5
197
100
AcDbEntity
  8
Ebene_1
 62
7
100
AcDbPolyline
 90
2
 70
0
 10
161.964999
 20
62.143200
 30
0.0
 10
161.964999
 20
54.922500
 30
0.0
  0
SPLINE
  5
198
100
AcDbEntity
  8
Ebene_1
 62
7
100
AcDbSpline
 70
8
 71
3
 72
8
 73
4
 74
0
 40
0
 40
0
 40
0
 40
0
 40
1
 40
1
 40
1
 40
1
 10
163.072519
 20
52.205610
 30
0.0
 10
163.800839
 20
51.477280
 30
0.0
 10
164.738089
 20
51.098190
 30
0.0
 10
165.791269
 20
51.098190
 30
0.0
  0
LWPOLYLINE
  5
199
100
AcDbEntity
  8
Ebene_1
 62
7
100
AcDbPolyline
 90
3
 70
0
 10
163.068519
 20
52.209610
 30
0.0
 10
163.070519
 20
52.207610
 30
0.0
 10
163.072519
 20
52.205610
 30
0.0
  0
SPLINE
  5
19a
100
AcDbEntity
  8
Ebene_1
 62
7
100
AcDbSpline
 70
8
 71
3
 72
8
 73
4
 74
0
 40
0
 40
0
 40
0
 40
0
 40
1
 40
1
 40
1
 40
1
 10
168.752199
 20
61.709520
 30
0.0
 10
168.752199
 20
60.672150
 30
0.0
 10
169.131669
 20
59.740240
 30
0.0
 10
169.855719
 20
58.996620
 30
0.0
  0
LWPOLYLINE
  5
19b
100
AcDbEntity
  8
Ebene_1
 62
7
100
AcDbPolyline
 90
5
 70
0
 10
165.791269
 20
51.098190
 30
0.0
 10
183.191659
 20
51.098190
 30
0.0
 10
183.191659
 20
62.143110
 30
0.0
 10
168.752199
 20
62.143110
 30
0.0
 10
168.752199
 20
61.709520
 30
0.0
  0
SPLINE
  5
19c
100
AcDbEntity
  8
Ebene_1
 62
7
100
AcDbSpline
 70
8
 71
3
 72
8
 73
4
 74
0
 40
0
 40
0
 40
0
 40
0
 40
1
 40
1
 40
1
 40
1
 10
169.859719
 20
58.990620
 30
0.0
 10
170.588039
 20
58.262290
 30
0.0
 10
171.525289
 20
57.883190
 30
0.0
 10
172.578459
 20
57.883190
 30
0.0
  0
LWPOLYLINE
  5
19d
100
AcDbEntity
  8
Ebene_1
 62
7
100
AcDbPolyline
 90
3
 70
0
 10
169.855719
 20
58.996620
 30
0.0
 10
169.857719
 20
58.994620
 30
0.0
 10
169.859719
 20
58.990620
 30
0.0
  0
SPLINE
  5
19e
100
AcDbEntity
  8
Ebene_1
 62
7
100
AcDbSpline
 70
8
 71
3
 72
8
 73
4
 74
0
 40
0
 40
0
 40
0
 40
0
 40
1
 40
1
 40
1
 40
1
 10
167.488619
 20
55.355850
 30
0.0
 10
167.111579
 20
55.355850
 30
0.0
 10
166.835669
 20
55.469040
 30
0.0
 10
166.576509
 20
55.711320
 30
0.0
  0
SPLINE
  5
19f
100
AcDbEntity
  8
Ebene_1
 62
7
100
AcDbSpline
 70
8
 71
3
 72
8
 73
4
 74
0
 40
0
 40
0
 40
0
 40
0
 40
1
 40
1
 40
1
 40
1
 10
166.576509
 20
55.711320
 30
0.0
 10
166.336499
 20
55.969490
 30
0.0
 10
166.224949
 20
56.244170
 30
0.0
 10
166.224949
 20
56.619520
 30
0.0
  0
LWPOLYLINE
  5
1a0
100
AcDbEntity
  8
Ebene_1
 62
7
100
AcDbPolyline
 90
4
 70
0
 10
172.578459
 20
57.883190
 30
0.0
 10
178.931979
 20
57.883190
 30
0.0
 10
178.931979
 20
55.355850
 30
0.0
 10
167.488619
 20
55.355850
 30
0.0
  0
LWPOLYLINE
  5
1a1
100
AcDbEntity
  8
Ebene_1
 62
7
100
AcDbPolyline
 90
3
 70
0
 10
166.224949
 20
56.619520
 30
0.0
 10
166.224949
 20
62.142960
 30
0.0
 10
161.964999
 20
62.143200
 30
0.0
  0
SPLINE
  5
1a2
100
AcDbEntity
  8
Ebene_1
 62
7
100
AcDbSpline
 70
8
 71
3
 72
8
 73
4
 74
0
 40
0
 40
0
 40
0
 40
0
 40
1
 40
1
 40
1
 40
1
 10
179.365389
 20
64.670540
 30
0.0
 10
180.387019
 20
64.670540
 30
0.0
 10
181.310629
 20
65.051330
 30
0.0
 10
182.052889
 20
65.774060
 30
0.0
  0
SPLINE
  5
1a3
100
AcDbEntity
  8
Ebene_1
 62
7
100
AcDbSpline
 70
8
 71
3
 72
8
 73
4
 74
0
 40
0
 40
0
 40
0
 40
0
 40
1
 40
1
 40
1
 40
1
 10
182.052889
 20
65.774060
 30
0.0
 10
182.799859
 20
66.501360
 30
0.0
 10
183.191569
 20
67.440870
 30
0.0
 10
183.191569
 20
68.496710
 30
0.0
  0
LWPOLYLINE
  5
1a4
100
AcDbEntity
  8
Ebene_1
 62
7
100
AcDbPolyline
 90
4
 70
0
 10
161.964999
 20
68.930310
 30
0.0
 10
161.964999
 20
64.670540
 30
0.0
 10
162.398599
 20
64.670540
 30
0.0
 10
179.365389
 20
64.670540
 30
0.0
  0
LWPOLYLINE
  5
1a5
100
AcDbEntity
  8
Ebene_1
 62
7
100
AcDbPolyline
 90
3
 70
0
 10
183.191569
 20
68.496710
 30
0.0
 10
183.191569
 20
68.930310
 30
0.0
 10
161.964999
 20
68.930310
 30
0.0
  0
LWPOLYLINE
  5
1a6
100
AcDbEntity
  8
Ebene_1
 62
7
100
AcDbPolyline
 90
9
 70
1
 10
63.556799
 20
37.354140
 30
0.0
 10
63.556799
 20
26.309210
 30
0.0
 10
63.988439
 20
26.309210
 30
0.0
 10
84.781408
 20
26.309210
 30
0.0
 10
84.781408
 20
37.354140
 30
0.0
 10
80.523596
 20
37.354140
 30
0.0
 10
80.523596
 20
30.567030
 30
0.0
 10
67.814611
 20
30.567030
 30
0.0
 10
67.814611
 20
37.354140
 30
0.0
  0
SPLINE
  5
1a7
100
AcDbEntity
  8
Ebene_1
 62
7
100
AcDbSpline
 70
8
 71
3
 72
8
 73
4
 74
0
 40
0
 40
0
 40
0
 40
0
 40
1
 40
1
 40
1
 40
1
 10
63.556799
 20
43.707650
 30
0.0
 10
63.556799
 20
42.670290
 30
0.0
 10
63.936265
 20
41.738380
 30
0.0
 10
64.660314
 20
40.994760
 30
0.0
  0
LWPOLYLINE
  5
1a8
100
AcDbEntity
  8
Ebene_1
 62
7
100
AcDbPolyline
 90
2
 70
0
 10
63.556799
 20
44.141250
 30
0.0
 10
63.556799
 20
43.707650
 30
0.0
  0
SPLINE
  5
1a9
100
AcDbEntity
  8
Ebene_1
 62
7
100
AcDbSpline
 70
8
 71
3
 72
8
 73
4
 74
0
 40
0
 40
0
 40
0
 40
0
 40
1
 40
1
 40
1
 40
1
 10
64.664314
 20
40.990760
 30
0.0
 10
65.392643
 20
40.262430
 30
0.0
 10
66.329886
 20
39.883330
 30
0.0
 10
67.383064
 20
39.883330
 30
0.0
  0
LWPOLYLINE
  5
1aa
100
AcDbEntity
  8
Ebene_1
 62
7
100
AcDbPolyline
 90
3
 70
0
 10
64.660314
 20
40.994760
 30
0.0
 10
64.662314
 20
40.992760
 30
0.0
 10
64.664314
 20
40.990760
 30
0.0
  0
SPLINE
  5
1ab
100
AcDbEntity
  8
Ebene_1
 62
7
100
AcDbSpline
 70
8
 71
3
 72
8
 73
4
 74
0
 40
0
 40
0
 40
0
 40
0
 40
1
 40
1
 40
1
 40
1
 10
80.955330
 20
39.883330
 30
0.0
 10
81.976960
 20
39.883330
 30
0.0
 10
82.902523
 20
40.264120
 30
0.0
 10
83.644783
 20
40.986850
 30
0.0
  0
SPLINE
  5
1ac
100
AcDbEntity
  8
Ebene_1
 62
7
100
AcDbSpline
 70
8
 71
3
 72
8
 73
4
 74
0
 40
0
 40
0
 40
0
 40
0
 40
1
 40
1
 40
1
 40
1
 10
83.644783
 20
40.986850
 30
0.0
 10
84.391743
 20
41.714150
 30
0.0
 10
84.781502
 20
42.651710
 30
0.0
 10
84.781502
 20
43.707550
 30
0.0
  0
LWPOLYLINE
  5
1ad
100
AcDbEntity
  8
Ebene_1
 62
7
100
AcDbPolyline
 90
2
 70
0
 10
67.383064
 20
39.883330
 30
0.0
 10
80.955330
 20
39.883330
 30
0.0
  0
LWPOLYLINE
  5
1ae
100
AcDbEntity
  8
Ebene_1
 62
7
100
AcDbPolyline
 90
3
 70
0
 10
84.781502
 20
43.707550
 30
0.0
 10
84.781502
 20
44.141150
 30
0.0
 10
63.556799
 20
44.141250
 30
0.0
  0
LWPOLYLINE
  5
1af
100
AcDbEntity
  8
Ebene_1
 62
7
100
AcDbPolyline
 90
12
 70
1
 10
86.699377
 20
44.141250
 30
0.0
 10
90.703283
 20
40.135390
 30
0.0
 10
90.703283
 20
26.309210
 30
0.0
 10
91.136877
 20
26.309210
 30
0.0
 10
94.963049
 20
26.309210
 30
0.0
 10
94.963049
 20
35.877570
 30
0.0
 10
104.531408
 20
26.309210
 30
0.0
 10
108.535319
 20
26.309210
 30
0.0
 10
108.535319
 20
44.141250
 30
0.0
 10
104.277499
 20
44.141250
 30
0.0
 10
104.277499
 20
32.875620
 30
0.0
 10
93.011877
 20
44.141250
 30
0.0
  0
SPLINE
  5
1b0
100
AcDbEntity
  8
Ebene_1
 62
7
100
AcDbSpline
 70
8
 71
3
 72
8
 73
4
 74
0
 40
0
 40
0
 40
0
 40
0
 40
1
 40
1
 40
1
 40
1
 10
128.463048
 20
26.309210
 30
0.0
 10
129.484678
 20
26.309210
 30
0.0
 10
130.410238
 20
26.690010
 30
0.0
 10
131.152498
 20
27.412730
 30
0.0
  0
SPLINE
  5
1b1
100
AcDbEntity
  8
Ebene_1
 62
7
100
AcDbSpline
 70
8
 71
3
 72
8
 73
4
 74
0
 40
0
 40
0
 40
0
 40
0
 40
1
 40
1
 40
1
 40
1
 10
131.152498
 20
27.412730
 30
0.0
 10
131.899468
 20
28.140040
 30
0.0
 10
132.289218
 20
29.079540
 30
0.0
 10
132.289218
 20
30.135390
 30
0.0
  0
LWPOLYLINE
  5
1b2
100
AcDbEntity
  8
Ebene_1
 62
7
100
AcDbPolyline
 90
4
 70
0
 10
111.064608
 20
44.141250
 30
0.0
 10
111.064608
 20
26.309210
 30
0.0
 10
111.496248
 20
26.309210
 30
0.0
 10
128.463048
 20
26.309210
 30
0.0
  0
LWPOLYLINE
  5
1b3
100
AcDbEntity
  8
Ebene_1
 62
7
100
AcDbPolyline
 90
5
 70
0
 10
132.289218
 20
30.135390
 30
0.0
 10
132.289218
 20
30.567030
 30
0.0
 10
115.322428
 20
30.567030
 30
0.0
 10
115.322428
 20
44.141250
 30
0.0
 10
111.064608
 20
44.141250
 30
0.0
  0
LWPOLYLINE
  5
1b4
100
AcDbEntity
  8
Ebene_1
 62
7
100
AcDbPolyline
 90
14
 70
1
 10
134.818519
 20
44.141250
 30
0.0
 10
134.818519
 20
40.135390
 30
0.0
 10
143.300939
 20
31.652970
 30
0.0
 10
143.300939
 20
26.309210
 30
0.0
 10
143.734539
 20
26.309210
 30
0.0
 10
147.560709
 20
26.309210
 30
0.0
 10
147.560709
 20
31.652970
 30
0.0
 10
156.043128
 20
40.135390
 30
0.0
 10
156.043128
 20
44.141250
 30
0.0
 10
151.785318
 20
44.141250
 30
0.0
 10
151.785318
 20
42.190070
 30
0.0
 10
145.429848
 20
35.836560
 30
0.0
 10
139.076328
 20
42.190070
 30
0.0
 10
139.076328
 20
44.141250
 30
0.0
  0
SPLINE
  5
1b5
100
AcDbEntity
  8
Ebene_1
 62
7
100
AcDbSpline
 70
8
 71
3
 72
8
 73
4
 74
0
 40
0
 40
0
 40
0
 40
0
 40
1
 40
1
 40
1
 40
1
 10
63.640833
 20
210.220021
 30
0.0
 10
63.640833
 20
209.184379
 30
0.0
 10
64.019551
 20
208.251465
 30
0.0
 10
64.742396
 20
207.509084
 30
0.0
  0
LWPOLYLINE
  5
1b6
100
AcDbEntity
  8
Ebene_1
 62
7
100
AcDbPolyline
 90
2
 70
0
 10
63.640833
 20
217.427052
 30
0.0
 10
63.640833
 20
210.220021
 30
0.0
  0
SPLINE
  5
1b7
100
AcDbEntity
  8
Ebene_1
 62
7
100
AcDbSpline
 70
8
 71
3
 72
8
 73
4
 74
0
 40
0
 40
0
 40
0
 40
0
 40
1
 40
1
 40
1
 40
1
 10
64.746395
 20
207.505084
 30
0.0
 10
65.473518
 20
206.777961
 30
0.0
 10
66.409820
 20
206.399615
 30
0.0
 10
67.461239
 20
206.399615
 30
0.0
  0
LWPOLYLINE
  5
1b8
100
AcDbEntity
  8
Ebene_1
 62
7
100
AcDbPolyline
 90
3
 70
0
 10
64.742396
 20
207.509084
 30
0.0
 10
64.744395
 20
207.507084
 30
0.0
 10
64.746395
 20
207.505084
 30
0.0
  0
SPLINE
  5
1b9
100
AcDbEntity
  8
Ebene_1
 62
7
100
AcDbSpline
 70
8
 71
3
 72
8
 73
4
 74
0
 40
0
 40
0
 40
0
 40
0
 40
1
 40
1
 40
1
 40
1
 10
81.010068
 20
206.399615
 30
0.0
 10
82.030003
 20
206.399615
 30
0.0
 10
82.952638
 20
206.779655
 30
0.0
 10
83.693661
 20
207.501177
 30
0.0
  0
SPLINE
  5
1ba
100
AcDbEntity
  8
Ebene_1
 62
7
100
AcDbSpline
 70
8
 71
3
 72
8
 73
4
 74
0
 40
0
 40
0
 40
0
 40
0
 40
1
 40
1
 40
1
 40
1
 10
83.693661
 20
207.501177
 30
0.0
 10
84.439384
 20
208.227276
 30
0.0
 10
84.828427
 20
209.165838
 30
0.0
 10
84.828427
 20
210.219927
 30
0.0
  0
LWPOLYLINE
  5
1bb
100
AcDbEntity
  8
Ebene_1
 62
7
100
AcDbPolyline
 90
2
 70
0
 10
67.461239
 20
206.399615
 30
0.0
 10
81.010068
 20
206.399615
 30
0.0
  0
SPLINE
  5
1bc
100
AcDbEntity
  8
Ebene_1
 62
7
100
AcDbSpline
 70
8
 71
3
 72
8
 73
4
 74
0
 40
0
 40
0
 40
0
 40
0
 40
1
 40
1
 40
1
 40
1
 10
69.154505
 20
210.651662
 30
0.0
 10
68.779049
 20
210.651662
 30
0.0
 10
68.504424
 20
210.764437
 30
0.0
 10
68.246302
 20
211.005178
 30
0.0
  0
SPLINE
  5
1bd
100
AcDbEntity
  8
Ebene_1
 62
7
100
AcDbSpline
 70
8
 71
3
 72
8
 73
4
 74
0
 40
0
 40
0
 40
0
 40
0
 40
1
 40
1
 40
1
 40
1
 10
68.246302
 20
211.005178
 30
0.0
 10
68.005561
 20
211.263300
 30
0.0
 10
67.892786
 20
211.537926
 30
0.0
 10
67.892786
 20
211.913381
 30
0.0
  0
LWPOLYLINE
  5
1be
100
AcDbEntity
  8
Ebene_1
 62
7
100
AcDbPolyline
 90
3
 70
0
 10
84.828427
 20
210.219927
 30
0.0
 10
84.828427
 20
210.651662
 30
0.0
 10
69.154505
 20
210.651662
 30
0.0
  0
LWPOLYLINE
  5
1bf
100
AcDbEntity
  8
Ebene_1
 62
7
100
AcDbPolyline
 90
3
 70
0
 10
67.892786
 20
211.913381
 30
0.0
 10
67.892786
 20
217.427052
 30
0.0
 10
63.640833
 20
217.427052
 30
0.0
  0
SPLINE
  5
1c0
100
AcDbEntity
  8
Ebene_1
 62
7
100
AcDbSpline
 70
8
 71
3
 72
8
 73
4
 74
0
 40
0
 40
0
 40
0
 40
0
 40
1
 40
1
 40
1
 40
1
 10
81.009974
 20
219.948537
 30
0.0
 10
82.029909
 20
219.948537
 30
0.0
 10
82.952544
 20
220.328577
 30
0.0
 10
83.693567
 20
221.050099
 30
0.0
  0
SPLINE
  5
1c1
100
AcDbEntity
  8
Ebene_1
 62
7
100
AcDbSpline
 70
8
 71
3
 72
8
 73
4
 74
0
 40
0
 40
0
 40
0
 40
0
 40
1
 40
1
 40
1
 40
1
 10
83.693567
 20
221.050099
 30
0.0
 10
84.439290
 20
221.776198
 30
0.0
 10
84.828333
 20
222.714761
 30
0.0
 10
84.828333
 20
223.768849
 30
0.0
  0
LWPOLYLINE
  5
1c2
100
AcDbEntity
  8
Ebene_1
 62
7
100
AcDbPolyline
 90
4
 70
0
 10
63.640833
 20
224.200490
 30
0.0
 10
63.640833
 20
219.948537
 30
0.0
 10
64.074427
 20
219.948537
 30
0.0
 10
81.009974
 20
219.948537
 30
0.0
  0
LWPOLYLINE
  5
1c3
100
AcDbEntity
  8
Ebene_1
 62
7
100
AcDbPolyline
 90
3
 70
0
 10
84.828333
 20
223.768849
 30
0.0
 10
84.828333
 20
224.200490
 30
0.0
 10
63.640833
 20
224.200490
 30
0.0
  0
LWPOLYLINE
  5
1c4
100
AcDbEntity
  8
Ebene_1
 62
7
100
AcDbPolyline
 90
9
 70
1
 10
87.351770
 20
217.427052
 30
0.0
 10
87.351770
 20
206.399709
 30
0.0
 10
87.783411
 20
206.399709
 30
0.0
 10
91.603724
 20
206.399709
 30
0.0
 10
91.603724
 20
213.175099
 30
0.0
 10
104.287318
 20
213.175099
 30
0.0
 10
104.287318
 20
206.399709
 30
0.0
 10
108.539267
 20
206.399709
 30
0.0
 10
108.539267
 20
217.427052
 30
0.0
  0
SPLINE
  5
1c5
100
AcDbEntity
  8
Ebene_1
 62
7
100
AcDbSpline
 70
8
 71
3
 72
8
 73
4
 74
0
 40
0
 40
0
 40
0
 40
0
 40
1
 40
1
 40
1
 40
1
 10
87.351770
 20
223.768849
 30
0.0
 10
87.351770
 20
222.733208
 30
0.0
 10
87.730488
 20
221.800293
 30
0.0
 10
88.453333
 20
221.057912
 30
0.0
  0
LWPOLYLINE
  5
1c6
100
AcDbEntity
  8
Ebene_1
 62
7
100
AcDbPolyline
 90
2
 70
0
 10
87.351770
 20
224.200490
 30
0.0
 10
87.351770
 20
223.768849
 30
0.0
  0
SPLINE
  5
1c7
100
AcDbEntity
  8
Ebene_1
 62
7
100
AcDbSpline
 70
8
 71
3
 72
8
 73
4
 74
0
 40
0
 40
0
 40
0
 40
0
 40
1
 40
1
 40
1
 40
1
 10
88.457332
 20
221.053912
 30
0.0
 10
89.184455
 20
220.326788
 30
0.0
 10
90.118803
 20
219.948443
 30
0.0
 10
91.170223
 20
219.948443
 30
0.0
  0
LWPOLYLINE
  5
1c8
100
AcDbEntity
  8
Ebene_1
 62
7
100
AcDbPolyline
 90
3
 70
0
 10
88.453333
 20
221.057912
 30
0.0
 10
88.455332
 20
221.055912
 30
0.0
 10
88.457332
 20
221.053912
 30
0.0
  0
SPLINE
  5
1c9
100
AcDbEntity
  8
Ebene_1
 62
7
100
AcDbSpline
 70
8
 71
3
 72
8
 73
4
 74
0
 40
0
 40
0
 40
0
 40
0
 40
1
 40
1
 40
1
 40
1
 10
104.719047
 20
219.948443
 30
0.0
 10
105.738977
 20
219.948443
 30
0.0
 10
106.661617
 20
220.328483
 30
0.0
 10
107.402637
 20
221.050005
 30
0.0
  0
SPLINE
  5
1ca
100
AcDbEntity
  8
Ebene_1
 62
7
100
AcDbSpline
 70
8
 71
3
 72
8
 73
4
 74
0
 40
0
 40
0
 40
0
 40
0
 40
1
 40
1
 40
1
 40
1
 10
107.402637
 20
221.050005
 30
0.0
 10
108.148367
 20
221.776103
 30
0.0
 10
108.539357
 20
222.714666
 30
0.0
 10
108.539357
 20
223.768755
 30
0.0
  0
LWPOLYLINE
  5
1cb
100
AcDbEntity
  8
Ebene_1
 62
7
100
AcDbPolyline
 90
2
 70
0
 10
91.170223
 20
219.948443
 30
0.0
 10
104.719047
 20
219.948443
 30
0.0
  0
LWPOLYLINE
  5
1cc
100
AcDbEntity
  8
Ebene_1
 62
7
100
AcDbPolyline
 90
3
 70
0
 10
108.539357
 20
223.768755
 30
0.0
 10
108.539357
 20
224.200490
 30
0.0
 10
87.351770
 20
224.200490
 30
0.0
  0
SPLINE
  5
1cd
100
AcDbEntity
  8
Ebene_1
 62
7
100
AcDbSpline
 70
8
 71
3
 72
8
 73
4
 74
0
 40
0
 40
0
 40
0
 40
0
 40
1
 40
1
 40
1
 40
1
 10
111.060758
 20
223.768849
 30
0.0
 10
111.060758
 20
222.733208
 30
0.0
 10
111.439468
 20
221.800293
 30
0.0
 10
112.162318
 20
221.057912
 30
0.0
  0
LWPOLYLINE
  5
1ce
100
AcDbEntity
  8
Ebene_1
 62
7
100
AcDbPolyline
 90
2
 70
0
 10
111.060758
 20
224.200490
 30
0.0
 10
111.060758
 20
223.768849
 30
0.0
  0
SPLINE
  5
1cf
100
AcDbEntity
  8
Ebene_1
 62
7
100
AcDbSpline
 70
8
 71
3
 72
8
 73
4
 74
0
 40
0
 40
0
 40
0
 40
0
 40
1
 40
1
 40
1
 40
1
 10
112.166318
 20
221.053912
 30
0.0
 10
112.893438
 20
220.326788
 30
0.0
 10
113.829738
 20
219.948443
 30
0.0
 10
114.881158
 20
219.948443
 30
0.0
  0
LWPOLYLINE
  5
1d0
100
AcDbEntity
  8
Ebene_1
 62
7
100
AcDbPolyline
 90
3
 70
0
 10
112.162318
 20
221.057912
 30
0.0
 10
112.164318
 20
221.055912
 30
0.0
 10
112.166318
 20
221.053912
 30
0.0
  0
SPLINE
  5
1d1
100
AcDbEntity
  8
Ebene_1
 62
7
100
AcDbSpline
 70
8
 71
3
 72
8
 73
4
 74
0
 40
0
 40
0
 40
0
 40
0
 40
1
 40
1
 40
1
 40
1
 10
127.996387
 20
218.686724
 30
0.0
 10
127.996387
 20
218.314202
 30
0.0
 10
127.882598
 20
218.043680
 30
0.0
 10
127.623347
 20
217.782427
 30
0.0
  0
SPLINE
  5
1d2
100
AcDbEntity
  8
Ebene_1
 62
7
100
AcDbSpline
 70
8
 71
3
 72
8
 73
4
 74
0
 40
0
 40
0
 40
0
 40
0
 40
1
 40
1
 40
1
 40
1
 10
127.623347
 20
217.782427
 30
0.0
 10
127.361257
 20
217.536030
 30
0.0
 10
127.093197
 20
217.426958
 30
0.0
 10
126.736627
 20
217.426958
 30
0.0
  0
LWPOLYLINE
  5
1d3
100
AcDbEntity
  8
Ebene_1
 62
7
100
AcDbPolyline
 90
3
 70
0
 10
114.881158
 20
219.948443
 30
0.0
 10
127.996387
 20
219.948443
 30
0.0
 10
127.996387
 20
218.686724
 30
0.0
  0
SPLINE
  5
1d4
100
AcDbEntity
  8
Ebene_1
 62
7
100
AcDbSpline
 70
8
 71
3
 72
8
 73
4
 74
0
 40
0
 40
0
 40
0
 40
0
 40
1
 40
1
 40
1
 40
1
 10
128.429987
 20
213.175005
 30
0.0
 10
129.449927
 20
213.175005
 30
0.0
 10
130.372557
 20
213.555045
 30
0.0
 10
131.113577
 20
214.276568
 30
0.0
  0
SPLINE
  5
1d5
100
AcDbEntity
  8
Ebene_1
 62
7
100
AcDbSpline
 70
8
 71
3
 72
8
 73
4
 74
0
 40
0
 40
0
 40
0
 40
0
 40
1
 40
1
 40
1
 40
1
 10
131.113577
 20
214.276568
 30
0.0
 10
131.859207
 20
215.002760
 30
0.0
 10
132.250207
 20
215.939370
 30
0.0
 10
132.250207
 20
216.993459
 30
0.0
  0
LWPOLYLINE
  5
1d6
100
AcDbEntity
  8
Ebene_1
 62
7
100
AcDbPolyline
 90
11
 70
0
 10
126.736627
 20
217.426958
 30
0.0
 10
111.060847
 20
217.426958
 30
0.0
 10
111.060847
 20
206.399615
 30
0.0
 10
111.494437
 20
206.399615
 30
0.0
 10
115.312797
 20
206.399615
 30
0.0
 10
115.312797
 20
213.175005
 30
0.0
 10
119.783497
 20
213.175005
 30
0.0
 10
126.556937
 20
206.399615
 30
0.0
 10
132.861627
 20
206.399615
 30
0.0
 10
126.086237
 20
213.175005
 30
0.0
 10
128.429987
 20
213.175005
 30
0.0
  0
LWPOLYLINE
  5
1d7
100
AcDbEntity
  8
Ebene_1
 62
7
100
AcDbPolyline
 90
3
 70
0
 10
132.250207
 20
216.993459
 30
0.0
 10
132.250207
 20
224.200490
 30
0.0
 10
111.060758
 20
224.200490
 30
0.0
  0
SPLINE
  5
1d8
100
AcDbEntity
  8
Ebene_1
 62
7
100
AcDbSpline
 70
8
 71
3
 72
8
 73
4
 74
0
 40
0
 40
0
 40
0
 40
0
 40
1
 40
1
 40
1
 40
1
 10
138.592007
 20
210.651662
 30
0.0
 10
137.553638
 20
210.651662
 30
0.0
 10
136.618628
 20
210.262269
 30
0.0
 10
135.877157
 20
209.520802
 30
0.0
  0
SPLINE
  5
1d9
100
AcDbEntity
  8
Ebene_1
 62
7
100
AcDbSpline
 70
8
 71
3
 72
8
 73
4
 74
0
 40
0
 40
0
 40
0
 40
0
 40
1
 40
1
 40
1
 40
1
 10
135.877157
 20
209.520802
 30
0.0
 10
135.151417
 20
208.795057
 30
0.0
 10
134.771687
 20
207.868944
 30
0.0
 10
134.771687
 20
206.833302
 30
0.0
  0
LWPOLYLINE
  5
1da
100
AcDbEntity
  8
Ebene_1
 62
7
100
AcDbPolyline
 90
5
 70
0
 10
134.771687
 20
224.200490
 30
0.0
 10
134.771687
 20
213.175099
 30
0.0
 10
151.707237
 20
213.175099
 30
0.0
 10
151.707237
 20
210.651662
 30
0.0
 10
138.592007
 20
210.651662
 30
0.0
  0
SPLINE
  5
1db
100
AcDbEntity
  8
Ebene_1
 62
7
100
AcDbSpline
 70
8
 71
3
 72
8
 73
4
 74
0
 40
0
 40
0
 40
0
 40
0
 40
1
 40
1
 40
1
 40
1
 10
152.138877
 20
219.948537
 30
0.0
 10
153.158817
 20
219.948537
 30
0.0
 10
154.081447
 20
220.328577
 30
0.0
 10
154.822477
 20
221.050099
 30
0.0
  0
SPLINE
  5
1dc
100
AcDbEntity
  8
Ebene_1
 62
7
100
AcDbSpline
 70
8
 71
3
 72
8
 73
4
 74
0
 40
0
 40
0
 40
0
 40
0
 40
1
 40
1
 40
1
 40
1
 10
154.822477
 20
221.050099
 30
0.0
 10
155.568197
 20
221.776197
 30
0.0
 10
155.959187
 20
222.714760
 30
0.0
 10
155.959187
 20
223.768849
 30
0.0
  0
LWPOLYLINE
  5
1dd
100
AcDbEntity
  8
Ebene_1
 62
7
100
AcDbPolyline
 90
8
 70
0
 10
134.771687
 20
206.833302
 30
0.0
 10
134.771687
 20
206.399709
 30
0.0
 10
135.203327
 20
206.399709
 30
0.0
 10
155.959187
 20
206.399709
 30
0.0
 10
155.959187
 20
217.427052
 30
0.0
 10
139.023647
 20
217.427052
 30
0.0
 10
139.023647
 20
219.948537
 30
0.0
 10
152.138877
 20
219.948537
 30
0.0
  0
LWPOLYLINE
  5
1de
100
AcDbEntity
  8
Ebene_1
 62
7
100
AcDbPolyline
 90
3
 70
0
 10
155.959187
 20
223.768849
 30
0.0
 10
155.959187
 20
224.200490
 30
0.0
 10
134.771687
 20
224.200490
 30
0.0
  0
ENDSEC
  0
SECTION
  2
OBJECTS
  0
DICTIONARY
  5
C
330
0
100
AcDbDictionary
  3
ACAD_GROUP
350
D
  3
ACAD_MLINESTYLE
350
17
  0
DICTIONARY
  5
D
330
C
100
AcDbDictionary
  0
DICTIONARY
  5
1A
330
C
100
AcDbDictionary
  0
DICTIONARY
  5
17
330
C
100
AcDbDictionary
  3
STANDARD
350
18
  0
DICTIONARY
  5
19
330
C
100
AcDbDictionary
  0
ENDSEC
  0
EOF
