<?xml version="1.0" encoding="UTF-8" standalone="no"?>
<svg
   xmlns:dc="http://purl.org/dc/elements/1.1/"
   xmlns:cc="http://creativecommons.org/ns#"
   xmlns:rdf="http://www.w3.org/1999/02/22-rdf-syntax-ns#"
   xmlns:svg="http://www.w3.org/2000/svg"
   xmlns="http://www.w3.org/2000/svg"
   xmlns:sodipodi="http://sodipodi.sourceforge.net/DTD/sodipodi-0.dtd"
   xmlns:inkscape="http://www.inkscape.org/namespaces/inkscape"
   sodipodi:docname="TeslaParkingFanboys_2x.svg"
   inkscape:version="1.0 (4035a4fb49, 2020-05-01)"
   id="svg8"
   version="1.1"
   viewBox="0 0 380 300"
   height="300mm"
   width="380mm">
  <defs
     id="defs2" />
  <sodipodi:namedview
     inkscape:document-rotation="0"
     inkscape:window-maximized="1"
     inkscape:window-y="-8"
     inkscape:window-x="1912"
     inkscape:window-height="1377"
     inkscape:window-width="3440"
     showgrid="true"
     inkscape:current-layer="layer1"
     inkscape:document-units="mm"
     inkscape:cy="712.97766"
     inkscape:cx="623.35424"
     inkscape:zoom="0.74648386"
     inkscape:pageshadow="2"
     inkscape:pageopacity="0.0"
     borderopacity="1.0"
     bordercolor="#666666"
     pagecolor="#ffffff"
     id="base">
    <inkscape:grid
       empspacing="5"
       id="grid21485"
       type="xygrid" />
  </sodipodi:namedview>
  <metadata
     id="metadata5">
    <rdf:RDF>
      <cc:Work
         rdf:about="">
        <dc:format>image/svg+xml</dc:format>
        <dc:type
           rdf:resource="http://purl.org/dc/dcmitype/StillImage" />
        <dc:title></dc:title>
      </cc:Work>
    </rdf:RDF>
  </metadata>
  <g
     id="layer1"
     inkscape:groupmode="layer"
     inkscape:label="Ebene 1">
    <path
       id="rect867"
       d="M 0,0.40002 H 380 V 300 H 0 Z"
       style="opacity:1;fill:none;fill-opacity:1;stroke:#000000;stroke-width:0.526182;stroke-linejoin:round;stroke-miterlimit:4;stroke-dasharray:none;stroke-opacity:1;paint-order:markers fill stroke" />
    <path
       sodipodi:nodetypes="csscccccscsscscssssccsscccsccccsssccscsssccs"
       inkscape:connector-curvature="0"
       id="path2190"
       d="m 100.98038,200.27299 c -0.19202,-1.01271 -16.714892,-93.25919 -16.714892,-93.31852 0,-0.0842 -4.880148,0.0391 -7.333152,0.18543 -7.3,0.43534 -11.054592,1.7137 -12.869285,4.38173 -0.669069,0.98368 -0.948382,1.68508 -1.240399,3.11439 -0.118631,0.58076 -0.237342,1.07755 -0.26378,1.10399 -0.08886,0.0889 -3.122596,-1.35262 -4.642584,-2.20597 -4.546328,-2.55239 -8.115556,-5.50765 -10.543622,-8.72994 -0.356718,-0.4734 -0.648567,-0.89948 -0.648567,-0.94683 0,-0.0474 0.184697,-0.16256 0.410427,-0.25598 0.225737,-0.0934 1.198489,-0.51268 2.161643,-0.9317 11.035392,-4.800872 25.379757,-8.156592 38.25282,-8.94886 l 1.149217,-0.07073 6.168514,7.51656 c 3.392673,4.13411 6.20605,7.47515 6.25191,7.42453 0.0458,-0.0505 2.79945,-3.40187 6.11903,-7.44721 3.3196,-4.045332 6.08634,-7.386492 6.14829,-7.424796 0.12928,-0.07989 2.89006,0.09817 5.30159,0.341933 10.1698,1.027993 20.38379,3.381281 29.66098,6.833873 2.18946,0.81483 5.71132,2.26916 6.62984,2.73775 l 0.42911,0.21892 -0.55351,0.76102 c -2.1511,2.95749 -5.52336,5.86387 -9.69956,8.35957 -1.14854,0.68637 -4.95059,2.59467 -5.46899,2.74498 -0.21393,0.0621 -0.24261,0.0155 -0.31378,-0.5103 -0.0431,-0.31821 -0.19868,-0.99589 -0.34577,-1.50595 -1.15827,-4.01664 -4.58055,-5.80021 -12.40318,-6.46405 -1.7033,-0.14454 -8.7872,-0.33004 -8.8762,-0.23243 -0.0455,0.0499 -13.72069,76.76347 -16.60676,93.15915 l -0.0867,0.49253 z M 155.40806,99.718828 c -13.07204,-5.51306 -27.92342,-9.021213 -42.74027,-10.095973 -4.76033,-0.345295 -14.6499,-0.458372 -19.43872,-0.222258 -16.595441,0.818244 -31.86356,4.200294 -46.537113,10.308451 -1.010953,0.420832 -1.901022,0.740982 -1.977949,0.711472 -0.07691,-0.0296 -0.709859,-1.203712 -1.406493,-2.609322 -1.303379,-2.629825 -1.910781,-3.995956 -1.817931,-4.088801 0.09501,-0.09496 3.921776,-1.540679 6.164834,-2.32899 21.027886,-7.390157 43.4851,-10.452644 64.739752,-8.828546 15.89719,1.214731 30.87954,4.568071 46.13056,10.324923 1.13548,0.428613 2.08403,0.798809 2.10787,0.822659 0.12467,0.124663 -2.92481,6.490607 -3.23379,6.750727 -0.0414,0.0349 -0.93731,-0.30005 -1.99075,-0.744342 z"
       style="fill:#000000;stroke-width:0.989738" />
    <g
       transform="matrix(0.88715933,0,0,0.88715933,216.14678,18.238577)"
       id="g2199">
      <path
         style="color:#000000;font-style:normal;font-variant:normal;font-weight:normal;font-stretch:normal;font-size:medium;line-height:1.55;font-family:TESLA;-inkscape-font-specification:TESLA;font-variant-ligatures:normal;font-variant-position:normal;font-variant-caps:normal;font-variant-numeric:normal;font-variant-alternates:normal;font-variant-east-asian:normal;font-feature-settings:normal;font-variation-settings:normal;text-indent:0;text-align:start;text-decoration:none;text-decoration-line:none;text-decoration-style:solid;text-decoration-color:#000000;letter-spacing:3.30133px;word-spacing:normal;text-transform:none;writing-mode:lr-tb;direction:ltr;text-orientation:mixed;dominant-baseline:auto;baseline-shift:baseline;text-anchor:start;white-space:normal;shape-padding:0;shape-margin:0;inline-size:0;clip-rule:nonzero;display:inline;overflow:visible;visibility:visible;isolation:auto;mix-blend-mode:normal;color-interpolation:sRGB;color-interpolation-filters:linearRGB;solid-color:#000000;solid-opacity:1;vector-effect:none;fill:#000000;fill-opacity:1;fill-rule:nonzero;stroke:none;stroke-width:1;stroke-linecap:butt;stroke-linejoin:miter;stroke-miterlimit:4;stroke-dasharray:none;stroke-dashoffset:0;stroke-opacity:1;color-rendering:auto;image-rendering:auto;shape-rendering:auto;text-rendering:auto;enable-background:accumulate;stop-color:#000000"
         d="m -76.48676,47.517686 v 13.855469 h 0.5 4.78515 v -8.570312 h 16.14063 v 8.570312 h 5.28516 V 47.517686 Z"
         id="path2187" />
      <path
         style="color:#000000;font-style:normal;font-variant:normal;font-weight:normal;font-stretch:normal;font-size:medium;line-height:1.55;font-family:TESLA;-inkscape-font-specification:TESLA;font-variant-ligatures:normal;font-variant-position:normal;font-variant-caps:normal;font-variant-numeric:normal;font-variant-alternates:normal;font-variant-east-asian:normal;font-feature-settings:normal;font-variation-settings:normal;text-indent:0;text-align:start;text-decoration:none;text-decoration-line:none;text-decoration-style:solid;text-decoration-color:#000000;letter-spacing:3.30133px;word-spacing:normal;text-transform:none;writing-mode:lr-tb;direction:ltr;text-orientation:mixed;dominant-baseline:auto;baseline-shift:baseline;text-anchor:start;white-space:normal;shape-padding:0;shape-margin:0;inline-size:0;clip-rule:nonzero;display:inline;overflow:visible;visibility:visible;isolation:auto;mix-blend-mode:normal;color-interpolation:sRGB;color-interpolation-filters:linearRGB;solid-color:#000000;solid-opacity:1;vector-effect:none;fill:#000000;fill-opacity:1;fill-rule:nonzero;stroke:none;stroke-width:1;stroke-linecap:butt;stroke-linejoin:miter;stroke-miterlimit:4;stroke-dasharray:none;stroke-dashoffset:0;stroke-opacity:1;color-rendering:auto;image-rendering:auto;shape-rendering:auto;text-rendering:auto;enable-background:accumulate;stop-color:#000000"
         d="m -76.48676,38.947374 v 0.5 c 0,1.299249 0.47206,2.463172 1.37891,3.394531 l 0.004,0.002 0.002,0.002 c 0.9118,0.911795 2.08098,1.386719 3.40039,1.386719 h 17.14063 c 1.27917,0 2.43154,-0.475539 3.36133,-1.380859 0.93522,-0.910612 1.42383,-2.081798 1.42383,-3.404297 v -0.5 z"
         id="path2152" />
      <path
         style="color:#000000;font-style:normal;font-variant:normal;font-weight:normal;font-stretch:normal;font-size:medium;line-height:1.55;font-family:TESLA;-inkscape-font-specification:TESLA;font-variant-ligatures:normal;font-variant-position:normal;font-variant-caps:normal;font-variant-numeric:normal;font-variant-alternates:normal;font-variant-east-asian:normal;font-feature-settings:normal;font-variation-settings:normal;text-indent:0;text-align:start;text-decoration:none;text-decoration-line:none;text-decoration-style:solid;text-decoration-color:#000000;letter-spacing:3.30133px;word-spacing:normal;text-transform:none;writing-mode:lr-tb;direction:ltr;text-orientation:mixed;dominant-baseline:auto;baseline-shift:baseline;text-anchor:start;white-space:normal;shape-padding:0;shape-margin:0;inline-size:0;clip-rule:nonzero;display:inline;overflow:visible;visibility:visible;isolation:auto;mix-blend-mode:normal;color-interpolation:sRGB;color-interpolation-filters:linearRGB;solid-color:#000000;solid-opacity:1;vector-effect:none;fill:#000000;fill-opacity:1;fill-rule:nonzero;stroke:none;stroke-width:1;stroke-linecap:butt;stroke-linejoin:miter;stroke-miterlimit:4;stroke-dasharray:none;stroke-dashoffset:0;stroke-opacity:1;color-rendering:auto;image-rendering:auto;shape-rendering:auto;text-rendering:auto;enable-background:accumulate;stop-color:#000000"
         d="m -209.67817,38.947374 v 0.5 c 0,1.299249 0.47401,2.463172 1.38086,3.394531 l 0.002,0.002 0.002,0.002 c 0.9118,0.911796 2.08098,1.386719 3.40039,1.386719 h 5.92774 v 17.140531 h 0.5 4.78515 V 44.23253 h 5.92774 c 1.27917,0 2.43154,-0.475539 3.36133,-1.380859 0.93522,-0.910611 1.42382,-2.081797 1.42382,-3.404297 v -0.5 z"
         id="path2136" />
      <path
         style="color:#000000;font-style:normal;font-variant:normal;font-weight:normal;font-stretch:normal;font-size:medium;line-height:1.55;font-family:TESLA;-inkscape-font-specification:TESLA;font-variant-ligatures:normal;font-variant-position:normal;font-variant-caps:normal;font-variant-numeric:normal;font-variant-alternates:normal;font-variant-east-asian:normal;font-feature-settings:normal;font-variation-settings:normal;text-indent:0;text-align:start;text-decoration:none;text-decoration-line:none;text-decoration-style:solid;text-decoration-color:#000000;letter-spacing:3.30133px;word-spacing:normal;text-transform:none;writing-mode:lr-tb;direction:ltr;text-orientation:mixed;dominant-baseline:auto;baseline-shift:baseline;text-anchor:start;white-space:normal;shape-padding:0;shape-margin:0;inline-size:0;clip-rule:nonzero;display:inline;overflow:visible;visibility:visible;isolation:auto;mix-blend-mode:normal;color-interpolation:sRGB;color-interpolation-filters:linearRGB;solid-color:#000000;solid-opacity:1;vector-effect:none;fill:#000000;fill-opacity:1;fill-rule:nonzero;stroke:none;stroke-width:1;stroke-linecap:butt;stroke-linejoin:miter;stroke-miterlimit:4;stroke-dasharray:none;stroke-dashoffset:0;stroke-opacity:1;color-rendering:auto;image-rendering:auto;shape-rendering:auto;text-rendering:auto;enable-background:accumulate;stop-color:#000000"
         d="m -176.38129,56.087999 v 0.5 c 0,1.299249 0.47401,2.463172 1.38086,3.394531 l 0.002,0.002 0.002,0.0039 c 0.91179,0.911796 2.08097,1.384766 3.40039,1.384766 h 17.14062 c 1.27917,0 2.4335,-0.475539 3.36328,-1.380859 0.93523,-0.910611 1.42188,-2.081797 1.42188,-3.404297 v -0.5 z"
         id="path2171" />
      <path
         style="color:#000000;font-style:normal;font-variant:normal;font-weight:normal;font-stretch:normal;font-size:medium;line-height:1.55;font-family:TESLA;-inkscape-font-specification:TESLA;font-variant-ligatures:normal;font-variant-position:normal;font-variant-caps:normal;font-variant-numeric:normal;font-variant-alternates:normal;font-variant-east-asian:normal;font-feature-settings:normal;font-variation-settings:normal;text-indent:0;text-align:start;text-decoration:none;text-decoration-line:none;text-decoration-style:solid;text-decoration-color:#000000;letter-spacing:3.30133px;word-spacing:normal;text-transform:none;writing-mode:lr-tb;direction:ltr;text-orientation:mixed;dominant-baseline:auto;baseline-shift:baseline;text-anchor:start;white-space:normal;shape-padding:0;shape-margin:0;inline-size:0;clip-rule:nonzero;display:inline;overflow:visible;visibility:visible;isolation:auto;mix-blend-mode:normal;color-interpolation:sRGB;color-interpolation-filters:linearRGB;solid-color:#000000;solid-opacity:1;vector-effect:none;fill:#000000;fill-opacity:1;fill-rule:nonzero;stroke:none;stroke-width:1;stroke-linecap:butt;stroke-linejoin:miter;stroke-miterlimit:4;stroke-dasharray:none;stroke-dashoffset:0;stroke-opacity:1;color-rendering:auto;image-rendering:auto;shape-rendering:auto;text-rendering:auto;enable-background:accumulate;stop-color:#000000"
         d="m -176.38129,47.517686 v 0.5 c 0,1.29925 0.47401,2.463172 1.38086,3.394531 l 0.002,0.002 0.002,0.0039 c 0.91179,0.911795 2.08097,1.384766 3.40039,1.384766 h 17.14062 c 1.27917,0 2.4335,-0.475539 3.36328,-1.38086 0.93523,-0.910611 1.42188,-2.081797 1.42188,-3.404297 v -0.5 z"
         id="path2167" />
      <path
         style="color:#000000;font-style:normal;font-variant:normal;font-weight:normal;font-stretch:normal;font-size:medium;line-height:1.55;font-family:TESLA;-inkscape-font-specification:TESLA;font-variant-ligatures:normal;font-variant-position:normal;font-variant-caps:normal;font-variant-numeric:normal;font-variant-alternates:normal;font-variant-east-asian:normal;font-feature-settings:normal;font-variation-settings:normal;text-indent:0;text-align:start;text-decoration:none;text-decoration-line:none;text-decoration-style:solid;text-decoration-color:#000000;letter-spacing:3.30133px;word-spacing:normal;text-transform:none;writing-mode:lr-tb;direction:ltr;text-orientation:mixed;dominant-baseline:auto;baseline-shift:baseline;text-anchor:start;white-space:normal;shape-padding:0;shape-margin:0;inline-size:0;clip-rule:nonzero;display:inline;overflow:visible;visibility:visible;isolation:auto;mix-blend-mode:normal;color-interpolation:sRGB;color-interpolation-filters:linearRGB;solid-color:#000000;solid-opacity:1;vector-effect:none;fill:#000000;fill-opacity:1;fill-rule:nonzero;stroke:none;stroke-width:1;stroke-linecap:butt;stroke-linejoin:miter;stroke-miterlimit:4;stroke-dasharray:none;stroke-dashoffset:0;stroke-opacity:1;color-rendering:auto;image-rendering:auto;shape-rendering:auto;text-rendering:auto;enable-background:accumulate;stop-color:#000000"
         d="m -176.38129,38.947374 v 0.5 c 0,1.299249 0.47401,2.463172 1.38086,3.394531 l 0.002,0.002 0.002,0.002 c 0.91179,0.911796 2.08097,1.386719 3.40039,1.386719 h 17.14062 c 1.27917,0 2.4335,-0.475539 3.36328,-1.380859 0.93523,-0.910611 1.42188,-2.081797 1.42188,-3.404297 v -0.5 z"
         id="path2140" />
      <path
         style="color:#000000;font-style:normal;font-variant:normal;font-weight:normal;font-stretch:normal;font-size:medium;line-height:1.55;font-family:TESLA;-inkscape-font-specification:TESLA;font-variant-ligatures:normal;font-variant-position:normal;font-variant-caps:normal;font-variant-numeric:normal;font-variant-alternates:normal;font-variant-east-asian:normal;font-feature-settings:normal;font-variation-settings:normal;text-indent:0;text-align:start;text-decoration:none;text-decoration-line:none;text-decoration-style:solid;text-decoration-color:#000000;letter-spacing:3.30133px;word-spacing:normal;text-transform:none;writing-mode:lr-tb;direction:ltr;text-orientation:mixed;dominant-baseline:auto;baseline-shift:baseline;text-anchor:start;white-space:normal;shape-padding:0;shape-margin:0;inline-size:0;clip-rule:nonzero;display:inline;overflow:visible;visibility:visible;isolation:auto;mix-blend-mode:normal;color-interpolation:sRGB;color-interpolation-filters:linearRGB;solid-color:#000000;solid-opacity:1;vector-effect:none;fill:#000000;fill-opacity:1;fill-rule:nonzero;stroke:none;stroke-width:1;stroke-linecap:butt;stroke-linejoin:miter;stroke-miterlimit:4;stroke-dasharray:none;stroke-dashoffset:0;stroke-opacity:1;color-rendering:auto;image-rendering:auto;shape-rendering:auto;text-rendering:auto;enable-background:accumulate;stop-color:#000000"
         d="m -143.08246,38.947374 v 13.855469 h 21.42578 v 3.285156 h -16.64063 c -1.30239,0 -2.47009,0.487668 -3.40039,1.417968 -0.9102,0.910204 -1.38476,2.067939 -1.38476,3.367188 v 0.5 h 0.5 26.21093 V 47.517686 h -21.42578 V 44.23253 h 16.64063 c 1.27917,0 2.43154,-0.475539 3.36133,-1.380859 0.93522,-0.910612 1.42382,-2.081798 1.42382,-3.404297 v -0.5 z"
         id="path2144" />
      <path
         style="color:#000000;font-style:normal;font-variant:normal;font-weight:normal;font-stretch:normal;font-size:medium;line-height:1.55;font-family:TESLA;-inkscape-font-specification:TESLA;font-variant-ligatures:normal;font-variant-position:normal;font-variant-caps:normal;font-variant-numeric:normal;font-variant-alternates:normal;font-variant-east-asian:normal;font-feature-settings:normal;font-variation-settings:normal;text-indent:0;text-align:start;text-decoration:none;text-decoration-line:none;text-decoration-style:solid;text-decoration-color:#000000;letter-spacing:3.30133px;word-spacing:normal;text-transform:none;writing-mode:lr-tb;direction:ltr;text-orientation:mixed;dominant-baseline:auto;baseline-shift:baseline;text-anchor:start;white-space:normal;shape-padding:0;shape-margin:0;inline-size:0;clip-rule:nonzero;display:inline;overflow:visible;visibility:visible;isolation:auto;mix-blend-mode:normal;color-interpolation:sRGB;color-interpolation-filters:linearRGB;solid-color:#000000;solid-opacity:1;vector-effect:none;fill:#000000;fill-opacity:1;fill-rule:nonzero;stroke:none;stroke-width:1;stroke-linecap:butt;stroke-linejoin:miter;stroke-miterlimit:4;stroke-dasharray:none;stroke-dashoffset:0;stroke-opacity:1;color-rendering:auto;image-rendering:auto;shape-rendering:auto;text-rendering:auto;enable-background:accumulate;stop-color:#000000"
         d="m -109.78559,38.947374 v 22.425781 h 0.5 21.42578 c 1.27917,0 2.4335,-0.475539 3.36328,-1.380859 0.93522,-0.910612 1.42188,-2.081798 1.42188,-3.404297 v -0.5 h -21.42578 V 38.947374 Z"
         id="path2148" />
    </g>
    <path
       style="color:#000000;font-style:normal;font-variant:normal;font-weight:normal;font-stretch:normal;font-size:medium;line-height:normal;font-family:sans-serif;font-variant-ligatures:normal;font-variant-position:normal;font-variant-caps:normal;font-variant-numeric:normal;font-variant-alternates:normal;font-variant-east-asian:normal;font-feature-settings:normal;font-variation-settings:normal;text-indent:0;text-align:start;text-decoration:none;text-decoration-line:none;text-decoration-style:solid;text-decoration-color:#000000;letter-spacing:normal;word-spacing:normal;text-transform:none;writing-mode:lr-tb;direction:ltr;text-orientation:mixed;dominant-baseline:auto;baseline-shift:baseline;text-anchor:start;white-space:normal;shape-padding:0;shape-margin:0;inline-size:0;clip-rule:nonzero;display:inline;overflow:visible;visibility:visible;isolation:auto;mix-blend-mode:normal;color-interpolation:sRGB;color-interpolation-filters:linearRGB;solid-color:#000000;solid-opacity:1;vector-effect:none;fill:#000000;fill-opacity:1;fill-rule:nonzero;stroke:none;stroke-width:8;stroke-linecap:butt;stroke-linejoin:miter;stroke-miterlimit:4;stroke-dasharray:none;stroke-dashoffset:0;stroke-opacity:1;color-rendering:auto;image-rendering:auto;shape-rendering:auto;text-rendering:auto;enable-background:accumulate;stop-color:#000000"
       d="m 41.058333,26.347488 c -13.226811,0 -24,10.773189 -24,24 V 250.34749 c 0,13.22681 10.773189,24 24,24 H 161.05833 c 13.22681,0 24,-10.77319 24,-24 V 50.347488 c 0,-13.226811 -10.77319,-24 -24,-24 z m 0,8 H 161.05833 c 8.93319,0 16,7.066811 16,16 V 250.34749 c 0,8.93319 -7.06681,16 -16,16 H 41.058333 c -8.933189,0 -16,-7.06681 -16,-16 V 50.347488 c 0,-8.933189 7.066811,-16 16,-16 z"
       id="path978" />
    <g
       transform="translate(1.0583333,-4.6525122)"
       id="g968">
      <path
         d="m 35.999996,48.5 a 2.5,2.5 0 0 1 -2.5,2.5 2.5,2.5 0 0 1 -2.5,-2.5 2.5,2.5 0 0 1 2.5,-2.5 2.5,2.5 0 0 1 2.5,2.5"
         style="fill:#000000;fill-opacity:1;stroke:none;stroke-width:2.5;stroke-miterlimit:4;stroke-dasharray:none"
         id="path956" />
      <path
         d="M 169,48.5 A 2.5,2.5 0 0 1 166.5,51 2.5,2.5 0 0 1 164,48.5 2.5,2.5 0 0 1 166.5,46 2.5,2.5 0 0 1 169,48.5"
         style="fill:#000000;fill-opacity:1;stroke:none;stroke-width:2.5;stroke-miterlimit:4;stroke-dasharray:none"
         id="path958" />
      <path
         d="m 169,261.5 a 2.5,2.5 0 0 1 -2.5,2.5 2.5,2.5 0 0 1 -2.5,-2.5 2.5,2.5 0 0 1 2.5,-2.5 2.5,2.5 0 0 1 2.5,2.5"
         style="fill:#000000;fill-opacity:1;stroke:none;stroke-width:2.5;stroke-miterlimit:4;stroke-dasharray:none"
         id="path960" />
      <path
         d="m 35.999996,261.5 a 2.5,2.5 0 0 1 -2.5,2.5 2.5,2.5 0 0 1 -2.5,-2.5 2.5,2.5 0 0 1 2.5,-2.5 2.5,2.5 0 0 1 2.5,2.5"
         style="fill:#000000;fill-opacity:1;stroke:none;stroke-width:2.5;stroke-miterlimit:4;stroke-dasharray:none"
         id="path962" />
    </g>
    <rect
       rx="26"
       ry="26"
       y="23.496056"
       x="14.206899"
       height="253.70287"
       width="173.70287"
       id="rect943"
       style="fill:none;stroke:#000000;stroke-width:0.29713;stroke-miterlimit:4;stroke-dasharray:none" />
    <text
       id="text1133"
       y="230.6553"
       x="101.42792"
       style="font-style:normal;font-variant:normal;font-weight:500;font-stretch:normal;font-size:24.7073px;line-height:0.95;font-family:Gotham;-inkscape-font-specification:'Gotham Medium';text-align:center;text-anchor:middle;stroke-width:0.617684"
       xml:space="preserve"><tspan
         id="tspan1179"
         style="font-style:normal;font-variant:normal;font-weight:500;font-stretch:normal;font-family:Gotham;-inkscape-font-specification:'Gotham Medium';text-align:center;text-anchor:middle;stroke-width:0.617684"
         y="230.6553"
         x="101.42792"
         sodipodi:role="line">Fanboys</tspan><tspan
         id="tspan1209"
         style="font-style:normal;font-variant:normal;font-weight:500;font-stretch:normal;font-family:Gotham;-inkscape-font-specification:'Gotham Medium';text-align:center;text-anchor:middle;stroke-width:0.617684"
         y="254.12724"
         x="101.42792"
         sodipodi:role="line">ONLY</tspan></text>
    <path
       id="path1197"
       d="m -95,300 c -1.45808,-0.2589 -3.02386,-0.70156 -3.4795,-0.98369 -0.88811,-0.54989 -1.08952,-4.26582 -0.41423,-7.64226 0.36253,-1.81266 0.68453,-2.07114 2.58014,-2.07114 2.21062,0 2.97049,-0.86155 2.97049,-3.36801 0,-0.69922 0.29825,-1.27132 0.66276,-1.27132 0.36452,0 0.66277,0.47031 0.66277,1.04512 0,1.44816 3.60653,4.91974 5.11098,4.91974 0.68,0 2.35509,-0.57035 3.7224,-1.26745 l 2.48604,-1.26746 -0.50642,1.43315 c -0.27853,0.78823 -0.43289,2.80864 -0.34301,4.48981 0.25015,4.67924 -1.23981,6.10808 -6.57055,6.30107 -2.32695,0.0842 -5.4238,-0.0587 -6.88187,-0.31756 z m -33.4695,-5.58619 c 0,-1.03642 9.8954,-10.96932 13.58663,-13.63811 4.05487,-2.93172 9.49862,-5.57537 10.60579,-5.15051 1.57262,0.60347 1.16434,1.716 -1.07844,2.93866 -5.78333,3.15282 -12.48332,7.96205 -16.84904,12.09422 -4.80874,4.55149 -6.26494,5.42446 -6.26494,3.75574 z m 73.91278,-7.99626 c -3.526373,-3.09498 -7.450237,-6.1201 -8.719711,-6.72251 -2.488851,-1.18103 -2.664245,-2.52521 -0.373546,-2.86273 3.457484,-0.50943 17.769729,12.94756 15.831666,14.88562 -0.179761,0.17976 -3.212044,-2.20542 -6.738409,-5.30038 z m -79.62107,0.11326 c -0.74844,-1.211 4.95844,-5.96874 10.81295,-9.01459 10.0514,-5.22931 19.42264,-7.44411 19.93934,-4.71247 0.15974,0.84451 -0.79915,1.22543 -4.64755,1.84624 -7.49097,1.20843 -20.2013,7.44246 -23.65242,11.60081 -1.04901,1.26398 -1.79178,1.34878 -2.45232,0.28001 z m 89.216336,-1.82937 c 0,-1.14605 -9.225299,-7.86154 -12.422305,-9.04274 -3.716466,-1.37313 -4.929606,-2.19434 -4.431719,-2.99994 0.758664,-1.22754 4.572085,-0.50727 8.148841,1.53914 6.695131,3.83057 13.055812,11.12844 9.699326,11.12844 -0.546779,0 -0.994143,-0.28121 -0.994143,-0.6249 z m -33.800876,-1.59569 c 0,-0.15342 0.44553,-1.1332 0.99006,-2.17729 0.54453,-1.0441 0.9919,-2.86765 0.99415,-4.05234 0.004,-2.18339 0.38284,-2.47568 2.26954,-1.75168 1.401058,0.53764 1.318213,2.12942 -0.24419,4.69182 -1.08612,1.78128 -4.00956,4.17971 -4.00956,3.28949 z m -10.79858,-1.09322 c -1.47961,-4.15903 -1.04093,-5.86043 1.77083,-6.86803 1.08227,-0.38782 1.1946,-0.19386 0.85912,1.48352 -0.65398,3.26991 -2.23249,6.50172 -2.62995,5.38451 z m 46.594847,-4.83003 c -3.509352,-3.84691 -8.120984,-6.36143 -12.650746,-6.89791 -1.793905,-0.21246 -3.742306,-0.73776 -4.329792,-1.16734 -0.980159,-0.71672 -0.980597,-0.8686 -0.0053,-1.84392 1.300326,-1.30033 3.933818,-0.71559 10.259314,2.27796 6.292218,2.9778 12.522468,9.47979 10.19889,10.64372 -0.273389,0.13695 -1.835964,-1.21869 -3.472397,-3.01251 z m -92.000337,-1.20672 c 1.28999,-3.91718 26.50029,-10.8521 28.42108,-7.81815 1.24783,1.97098 0.55519,2.39568 -4.54893,2.78928 -3.03014,0.23367 -8.43106,1.40477 -13.08956,2.83824 -10.32653,3.1776 -11.16362,3.34767 -10.78259,2.19063 z M -99.63746,273.2 c -1.58172,-0.8958 -3.2708,-2.62724 -4.19192,-4.29705 -1.53244,-2.77802 -1.56788,-2.79669 -5.30397,-2.79405 -2.06868,10e-4 -6.56042,0.45663 -9.98166,1.01148 -5.75786,0.93379 -6.34806,0.92519 -7.93679,-0.11579 -3.30291,-2.16415 -8.04532,-7.0557 -8.04532,-8.29833 0,-3.41316 9.40509,-17.30386 13.55882,-20.02549 1.63439,-1.07089 1.7597,-1.015 7.84409,3.49846 5.6677,4.20434 6.33241,4.93707 7.97319,8.78908 2.28051,5.3539 4.7358,7.18478 9.63511,7.18478 4.69698,0 6.96284,-1.29703 8.34973,-4.77956 0.62254,-1.56321 1.57832,-3.33966 2.12395,-3.94767 0.91178,-1.016 0.67935,-1.13721 -2.87233,-1.49793 -5.16969,-0.52504 -19.99501,-5.26389 -25.6326,-8.19335 -10.54265,-5.47829 -15.66378,-14.93839 -16.69449,-30.83922 l -0.3943,-6.08292 2.18795,3.97658 c 3.04152,5.52793 7.99426,10.19945 13.91512,13.125 2.72702,1.34745 5.42599,2.44991 5.99771,2.44991 0.57171,0 1.21019,0.44484 1.41883,0.98854 0.31392,0.81808 1.38998,0.91681 6.23983,0.57256 7.18439,-0.50996 12.558,0.32328 22.9104,3.55252 l 7.847989,2.44804 1.099304,-1.40946 c 0.604618,-0.7752 4.172247,-2.78114 7.928061,-4.45765 8.202412,-3.66136 11.180865,-5.45847 16.20223,-9.7759 2.095986,-1.80215 3.810883,-2.92362 3.810883,-2.49214 0,0.43147 -1.463591,3.81882 -3.252426,7.52745 -2.721759,5.64277 -4.235667,7.78188 -9.278672,13.11051 -3.314434,3.50216 -6.026245,6.80924 -6.026245,7.34907 0,0.53982 0.447365,1.35278 0.994144,1.80656 3.725578,3.09196 -4.898211,9.13686 -12.03738,8.43767 -1.763385,-0.1727 -3.815558,-0.52015 -4.560398,-0.77212 -1.27999,-0.43301 -1.36413,-0.16798 -1.53465,4.83436 -0.12948,3.79827 0.11252,5.85897 0.85717,7.29896 1.37647,2.6618 1.32788,2.81261 -0.66247,2.05588 -2.57749,-0.97996 -4.71008,-0.78425 -7.61767,0.69909 -2.25292,1.14936 -2.53948,1.52825 -1.96608,2.59965 0.36918,0.68981 1.48179,1.8918 2.47249,2.67108 1.50037,1.18019 1.63946,1.52856 0.83264,2.08548 -5.10712,3.52533 -11.76126,4.22559 -16.21027,1.70592 z m 24.33238,-0.43339 c -3.09814,-1.94448 -3.24625,-2.98843 -0.81659,-5.75565 2.027872,-2.30962 2.132589,-2.82513 1.26082,-6.20682 -0.2065,-0.80102 0.36339,-0.95466 2.933675,-0.79086 6.172199,0.39332 10.57848,-2.57296 11.406628,-7.67887 1.112281,-6.85769 2.96661,-7.24648 2.96661,-0.622 0,4.32699 0.915447,9.33624 2.297399,12.57123 0.438126,1.02561 0.06542,1.15983 -3.220633,1.15983 h -3.716101 v 2.28272 c 0,1.44028 -0.574575,2.95069 -1.556922,4.09273 -2.150716,2.50037 -8.280054,3.00306 -11.554886,0.94769 z"
       style="fill:#000000;stroke-width:0.662762" />
    <text
       id="text1201"
       y="155"
       x="315"
       style="font-size:10.5833px;line-height:1.25;font-family:'Times New Roman';-inkscape-font-specification:'Times New Roman, ';stroke-width:0.264583"
       xml:space="preserve"><tspan
         style="stroke-width:0.264583"
         y="155"
         x="315"
         id="tspan1199"
         sodipodi:role="line">Schilder</tspan></text>
    <text
       id="text1205"
       y="200"
       x="290"
       style="font-size:10.5833px;line-height:1.25;font-family:'Times New Roman';-inkscape-font-specification:'Times New Roman, ';stroke-width:0.264583"
       xml:space="preserve"><tspan
         style="stroke-width:0.264583"
         y="200"
         x="290"
         id="tspan1203"
         sodipodi:role="line">Manufaktur</tspan></text>
  </g>
</svg>
