<?xml version="1.0" encoding="UTF-8" standalone="no"?>
<svg
   xmlns:dc="http://purl.org/dc/elements/1.1/"
   xmlns:cc="http://creativecommons.org/ns#"
   xmlns:rdf="http://www.w3.org/1999/02/22-rdf-syntax-ns#"
   xmlns:svg="http://www.w3.org/2000/svg"
   xmlns="http://www.w3.org/2000/svg"
   xmlns:sodipodi="http://sodipodi.sourceforge.net/DTD/sodipodi-0.dtd"
   xmlns:inkscape="http://www.inkscape.org/namespaces/inkscape"
   width="220mm"
   height="300mm"
   viewBox="0 0 220 300"
   version="1.1"
   id="svg1659"
   inkscape:version="1.0 (4035a4fb49, 2020-05-01)"
   sodipodi:docname="Tesla100ProzentElectricGothham.svg">
  <defs
     id="defs1653" />
  <sodipodi:namedview
     id="base"
     pagecolor="#ffffff"
     bordercolor="#666666"
     borderopacity="1.0"
     inkscape:pageopacity="0.0"
     inkscape:pageshadow="2"
     inkscape:zoom="0.7"
     inkscape:cx="405.9324"
     inkscape:cy="546.3623"
     inkscape:document-units="mm"
     inkscape:current-layer="text1606"
     inkscape:document-rotation="0"
     showgrid="true"
     inkscape:window-width="2200"
     inkscape:window-height="1203"
     inkscape:window-x="2672"
     inkscape:window-y="80"
     inkscape:window-maximized="0">
    <inkscape:grid
       type="xygrid"
       id="grid2270" />
  </sodipodi:namedview>
  <metadata
     id="metadata1656">
    <rdf:RDF>
      <cc:Work
         rdf:about="">
        <dc:format>image/svg+xml</dc:format>
        <dc:type
           rdf:resource="http://purl.org/dc/dcmitype/StillImage" />
        <dc:title />
      </cc:Work>
    </rdf:RDF>
  </metadata>
  <g
     inkscape:label="Ebene 1"
     inkscape:groupmode="layer"
     id="layer1">
    <path
       id="rect867-6-4"
       d="M -0.3500715,0.40002 H 219.24993 V 300 H -0.3500715 Z"
       style="fill:none;fill-opacity:1;stroke:#000000;stroke-width:0.4;stroke-linejoin:round;stroke-miterlimit:4;stroke-dasharray:none;stroke-opacity:1;paint-order:markers fill stroke"
       inkscape:connector-curvature="0" />
    <path
       inkscape:connector-curvature="0"
       id="rect875-2-1"
       d="m 46.410698,10.38899 c -19.29458,0 -34.93524,15.61954 -34.93524,34.88806 v 209.84591 c 0,19.26853 15.64066,34.88807 34.93524,34.88807 H 172.48918 c 19.29458,0 34.93522,-15.61954 34.93522,-34.88807 V 45.27705 c 0,-19.26852 -15.64064,-34.88806 -34.93522,-34.88806 z m 0,6.82005 H 172.48918 c 15.62928,0 28.10597,12.45984 28.10597,28.06801 v 209.84591 c 0,15.60818 -12.47669,28.06801 -28.10597,28.06801 H 46.410698 c -15.62931,0 -28.10594,-12.45983 -28.10594,-28.06801 V 45.27705 c 0,-15.60817 12.47663,-28.06801 28.10594,-28.06801 z"
       style="color:#000000;font-style:normal;font-variant:normal;font-weight:normal;font-stretch:normal;font-size:medium;line-height:normal;font-family:sans-serif;font-variant-ligatures:normal;font-variant-position:normal;font-variant-caps:normal;font-variant-numeric:normal;font-variant-alternates:normal;font-feature-settings:normal;text-indent:0;text-align:start;text-decoration:none;text-decoration-line:none;text-decoration-style:solid;text-decoration-color:#000000;letter-spacing:normal;word-spacing:normal;text-transform:none;writing-mode:lr-tb;direction:ltr;text-orientation:mixed;dominant-baseline:auto;baseline-shift:baseline;text-anchor:start;white-space:normal;shape-padding:0;clip-rule:nonzero;display:inline;overflow:visible;visibility:visible;isolation:auto;mix-blend-mode:normal;color-interpolation:sRGB;color-interpolation-filters:linearRGB;solid-color:#000000;solid-opacity:1;vector-effect:none;fill:#000000;fill-opacity:1;fill-rule:nonzero;stroke:none;stroke-width:7;stroke-linecap:butt;stroke-linejoin:round;stroke-miterlimit:4;stroke-dasharray:none;stroke-dashoffset:0;stroke-opacity:1;paint-order:markers fill stroke;color-rendering:auto;image-rendering:auto;shape-rendering:auto;text-rendering:auto;enable-background:accumulate" />
    <path
       sodipodi:nodetypes="csscccccscsscscssssccsscccsccccsssccscsssccs"
       inkscape:connector-curvature="0"
       id="path2190-3-3"
       d="M 109.35423,224.01384 C 109.1186,222.77109 88.841889,109.5673 88.841889,109.49452 c 0,-0.10353 -5.988839,0.0479 -8.999102,0.22752 -8.958502,0.53423 -13.566094,2.103 -15.793096,5.37717 -0.821028,1.20718 -1.163846,2.06787 -1.522177,3.82193 -0.145495,0.71267 -0.291248,1.32234 -0.3237,1.35479 -0.108919,0.10893 -3.831999,-1.65989 -5.697331,-2.70712 -5.579174,-3.13226 -9.959319,-6.75889 -12.938975,-10.71326 -0.437799,-0.58095 -0.79596,-1.10379 -0.79596,-1.16193 0,-0.0584 0.226683,-0.19948 0.503679,-0.31412 0.277063,-0.1148 1.470764,-0.62916 2.652786,-1.14336 13.54249,-5.891567 31.145685,-10.009686 46.943389,-10.981964 l 1.410268,-0.08678 7.56998,9.224264 c 4.16346,5.0733 7.61595,9.17338 7.67225,9.11129 0.0562,-0.062 3.43545,-4.17475 7.50921,-9.13913 4.07377,-4.964359 7.46906,-9.064631 7.54512,-9.111637 0.15862,-0.09802 3.54663,0.120372 6.50606,0.419612 12.48029,1.261559 25.01478,4.149516 36.39965,8.386475 2.68689,0.99991 7.00886,2.78468 8.13607,3.35972 l 0.52657,0.26864 -0.67927,0.93391 c -2.63978,3.62941 -6.77816,7.19605 -11.90315,10.25873 -1.40947,0.8423 -6.07532,3.18416 -6.71149,3.36858 -0.26252,0.0762 -0.29775,0.0189 -0.38509,-0.6262 -0.0528,-0.39049 -0.2438,-1.22215 -0.42431,-1.84809 -1.42141,-4.92912 -5.62121,-7.11793 -15.2211,-7.93256 -2.09027,-0.17738 -10.78353,-0.40504 -10.89275,-0.28521 -0.056,0.0614 -16.83789,94.20319 -20.37963,114.32379 l -0.10646,0.6044 z M 176.14729,100.615 c -16.04184,-6.765582 -34.26731,-11.070765 -52.45042,-12.389706 -5.8418,-0.423749 -17.97814,-0.562511 -23.854929,-0.272757 -20.365724,1.004134 -39.102607,5.154581 -57.109825,12.650453 -1.24064,0.51643 -2.332899,0.90933 -2.427328,0.87312 -0.09464,-0.0364 -0.871137,-1.477183 -1.725986,-3.202137 -1.59951,-3.227301 -2.344914,-4.903808 -2.230982,-5.017741 0.116697,-0.116652 4.812774,-1.890715 7.565419,-2.858114 25.805177,-9.069183 53.364453,-12.827436 79.447871,-10.834354 19.50888,1.490703 37.89503,5.605901 56.61095,12.670699 1.39345,0.525981 2.55746,0.98027 2.58674,1.009551 0.15301,0.152981 -3.58929,7.965216 -3.96845,8.284456 -0.0509,0.0428 -1.15026,-0.36825 -2.44306,-0.91347 z"
       style="fill:#ea0000;fill-opacity:1;stroke-width:1.12403" />
    <g
       id="g2199"
       transform="translate(239.17685,3.8643447)">
      <path
         id="path2187"
         d="m -76.48676,47.517686 v 13.855469 h 0.5 4.78515 v -8.570312 h 16.14063 v 8.570312 h 5.28516 V 47.517686 Z"
         style="color:#000000;font-style:normal;font-variant:normal;font-weight:normal;font-stretch:normal;font-size:medium;line-height:1.55;font-family:TESLA;-inkscape-font-specification:TESLA;font-variant-ligatures:normal;font-variant-position:normal;font-variant-caps:normal;font-variant-numeric:normal;font-variant-alternates:normal;font-variant-east-asian:normal;font-feature-settings:normal;font-variation-settings:normal;text-indent:0;text-align:start;text-decoration:none;text-decoration-line:none;text-decoration-style:solid;text-decoration-color:#000000;letter-spacing:3.30133px;word-spacing:normal;text-transform:none;writing-mode:lr-tb;direction:ltr;text-orientation:mixed;dominant-baseline:auto;baseline-shift:baseline;text-anchor:start;white-space:normal;shape-padding:0;shape-margin:0;inline-size:0;clip-rule:nonzero;display:inline;overflow:visible;visibility:visible;isolation:auto;mix-blend-mode:normal;color-interpolation:sRGB;color-interpolation-filters:linearRGB;solid-color:#000000;solid-opacity:1;vector-effect:none;fill:#000000;fill-opacity:1;fill-rule:nonzero;stroke:none;stroke-width:1;stroke-linecap:butt;stroke-linejoin:miter;stroke-miterlimit:4;stroke-dasharray:none;stroke-dashoffset:0;stroke-opacity:1;color-rendering:auto;image-rendering:auto;shape-rendering:auto;text-rendering:auto;enable-background:accumulate;stop-color:#000000" />
      <path
         id="path2152"
         d="m -76.48676,38.947374 v 0.5 c 0,1.299249 0.47206,2.463172 1.37891,3.394531 l 0.004,0.002 0.002,0.002 c 0.9118,0.911795 2.08098,1.386719 3.40039,1.386719 h 17.14063 c 1.27917,0 2.43154,-0.475539 3.36133,-1.380859 0.93522,-0.910612 1.42383,-2.081798 1.42383,-3.404297 v -0.5 z"
         style="color:#000000;font-style:normal;font-variant:normal;font-weight:normal;font-stretch:normal;font-size:medium;line-height:1.55;font-family:TESLA;-inkscape-font-specification:TESLA;font-variant-ligatures:normal;font-variant-position:normal;font-variant-caps:normal;font-variant-numeric:normal;font-variant-alternates:normal;font-variant-east-asian:normal;font-feature-settings:normal;font-variation-settings:normal;text-indent:0;text-align:start;text-decoration:none;text-decoration-line:none;text-decoration-style:solid;text-decoration-color:#000000;letter-spacing:3.30133px;word-spacing:normal;text-transform:none;writing-mode:lr-tb;direction:ltr;text-orientation:mixed;dominant-baseline:auto;baseline-shift:baseline;text-anchor:start;white-space:normal;shape-padding:0;shape-margin:0;inline-size:0;clip-rule:nonzero;display:inline;overflow:visible;visibility:visible;isolation:auto;mix-blend-mode:normal;color-interpolation:sRGB;color-interpolation-filters:linearRGB;solid-color:#000000;solid-opacity:1;vector-effect:none;fill:#000000;fill-opacity:1;fill-rule:nonzero;stroke:none;stroke-width:1;stroke-linecap:butt;stroke-linejoin:miter;stroke-miterlimit:4;stroke-dasharray:none;stroke-dashoffset:0;stroke-opacity:1;color-rendering:auto;image-rendering:auto;shape-rendering:auto;text-rendering:auto;enable-background:accumulate;stop-color:#000000" />
      <path
         id="path2136"
         d="m -209.67817,38.947374 v 0.5 c 0,1.299249 0.47401,2.463172 1.38086,3.394531 l 0.002,0.002 0.002,0.002 c 0.9118,0.911796 2.08098,1.386719 3.40039,1.386719 h 5.92774 v 17.140531 h 0.5 4.78515 V 44.23253 h 5.92774 c 1.27917,0 2.43154,-0.475539 3.36133,-1.380859 0.93522,-0.910611 1.42382,-2.081797 1.42382,-3.404297 v -0.5 z"
         style="color:#000000;font-style:normal;font-variant:normal;font-weight:normal;font-stretch:normal;font-size:medium;line-height:1.55;font-family:TESLA;-inkscape-font-specification:TESLA;font-variant-ligatures:normal;font-variant-position:normal;font-variant-caps:normal;font-variant-numeric:normal;font-variant-alternates:normal;font-variant-east-asian:normal;font-feature-settings:normal;font-variation-settings:normal;text-indent:0;text-align:start;text-decoration:none;text-decoration-line:none;text-decoration-style:solid;text-decoration-color:#000000;letter-spacing:3.30133px;word-spacing:normal;text-transform:none;writing-mode:lr-tb;direction:ltr;text-orientation:mixed;dominant-baseline:auto;baseline-shift:baseline;text-anchor:start;white-space:normal;shape-padding:0;shape-margin:0;inline-size:0;clip-rule:nonzero;display:inline;overflow:visible;visibility:visible;isolation:auto;mix-blend-mode:normal;color-interpolation:sRGB;color-interpolation-filters:linearRGB;solid-color:#000000;solid-opacity:1;vector-effect:none;fill:#000000;fill-opacity:1;fill-rule:nonzero;stroke:none;stroke-width:1;stroke-linecap:butt;stroke-linejoin:miter;stroke-miterlimit:4;stroke-dasharray:none;stroke-dashoffset:0;stroke-opacity:1;color-rendering:auto;image-rendering:auto;shape-rendering:auto;text-rendering:auto;enable-background:accumulate;stop-color:#000000" />
      <path
         id="path2171"
         d="m -176.38129,56.087999 v 0.5 c 0,1.299249 0.47401,2.463172 1.38086,3.394531 l 0.002,0.002 0.002,0.0039 c 0.91179,0.911796 2.08097,1.384766 3.40039,1.384766 h 17.14062 c 1.27917,0 2.4335,-0.475539 3.36328,-1.380859 0.93523,-0.910611 1.42188,-2.081797 1.42188,-3.404297 v -0.5 z"
         style="color:#000000;font-style:normal;font-variant:normal;font-weight:normal;font-stretch:normal;font-size:medium;line-height:1.55;font-family:TESLA;-inkscape-font-specification:TESLA;font-variant-ligatures:normal;font-variant-position:normal;font-variant-caps:normal;font-variant-numeric:normal;font-variant-alternates:normal;font-variant-east-asian:normal;font-feature-settings:normal;font-variation-settings:normal;text-indent:0;text-align:start;text-decoration:none;text-decoration-line:none;text-decoration-style:solid;text-decoration-color:#000000;letter-spacing:3.30133px;word-spacing:normal;text-transform:none;writing-mode:lr-tb;direction:ltr;text-orientation:mixed;dominant-baseline:auto;baseline-shift:baseline;text-anchor:start;white-space:normal;shape-padding:0;shape-margin:0;inline-size:0;clip-rule:nonzero;display:inline;overflow:visible;visibility:visible;isolation:auto;mix-blend-mode:normal;color-interpolation:sRGB;color-interpolation-filters:linearRGB;solid-color:#000000;solid-opacity:1;vector-effect:none;fill:#000000;fill-opacity:1;fill-rule:nonzero;stroke:none;stroke-width:1;stroke-linecap:butt;stroke-linejoin:miter;stroke-miterlimit:4;stroke-dasharray:none;stroke-dashoffset:0;stroke-opacity:1;color-rendering:auto;image-rendering:auto;shape-rendering:auto;text-rendering:auto;enable-background:accumulate;stop-color:#000000" />
      <path
         id="path2167"
         d="m -176.38129,47.517686 v 0.5 c 0,1.29925 0.47401,2.463172 1.38086,3.394531 l 0.002,0.002 0.002,0.0039 c 0.91179,0.911795 2.08097,1.384766 3.40039,1.384766 h 17.14062 c 1.27917,0 2.4335,-0.475539 3.36328,-1.38086 0.93523,-0.910611 1.42188,-2.081797 1.42188,-3.404297 v -0.5 z"
         style="color:#000000;font-style:normal;font-variant:normal;font-weight:normal;font-stretch:normal;font-size:medium;line-height:1.55;font-family:TESLA;-inkscape-font-specification:TESLA;font-variant-ligatures:normal;font-variant-position:normal;font-variant-caps:normal;font-variant-numeric:normal;font-variant-alternates:normal;font-variant-east-asian:normal;font-feature-settings:normal;font-variation-settings:normal;text-indent:0;text-align:start;text-decoration:none;text-decoration-line:none;text-decoration-style:solid;text-decoration-color:#000000;letter-spacing:3.30133px;word-spacing:normal;text-transform:none;writing-mode:lr-tb;direction:ltr;text-orientation:mixed;dominant-baseline:auto;baseline-shift:baseline;text-anchor:start;white-space:normal;shape-padding:0;shape-margin:0;inline-size:0;clip-rule:nonzero;display:inline;overflow:visible;visibility:visible;isolation:auto;mix-blend-mode:normal;color-interpolation:sRGB;color-interpolation-filters:linearRGB;solid-color:#000000;solid-opacity:1;vector-effect:none;fill:#000000;fill-opacity:1;fill-rule:nonzero;stroke:none;stroke-width:1;stroke-linecap:butt;stroke-linejoin:miter;stroke-miterlimit:4;stroke-dasharray:none;stroke-dashoffset:0;stroke-opacity:1;color-rendering:auto;image-rendering:auto;shape-rendering:auto;text-rendering:auto;enable-background:accumulate;stop-color:#000000" />
      <path
         id="path2140"
         d="m -176.38129,38.947374 v 0.5 c 0,1.299249 0.47401,2.463172 1.38086,3.394531 l 0.002,0.002 0.002,0.002 c 0.91179,0.911796 2.08097,1.386719 3.40039,1.386719 h 17.14062 c 1.27917,0 2.4335,-0.475539 3.36328,-1.380859 0.93523,-0.910611 1.42188,-2.081797 1.42188,-3.404297 v -0.5 z"
         style="color:#000000;font-style:normal;font-variant:normal;font-weight:normal;font-stretch:normal;font-size:medium;line-height:1.55;font-family:TESLA;-inkscape-font-specification:TESLA;font-variant-ligatures:normal;font-variant-position:normal;font-variant-caps:normal;font-variant-numeric:normal;font-variant-alternates:normal;font-variant-east-asian:normal;font-feature-settings:normal;font-variation-settings:normal;text-indent:0;text-align:start;text-decoration:none;text-decoration-line:none;text-decoration-style:solid;text-decoration-color:#000000;letter-spacing:3.30133px;word-spacing:normal;text-transform:none;writing-mode:lr-tb;direction:ltr;text-orientation:mixed;dominant-baseline:auto;baseline-shift:baseline;text-anchor:start;white-space:normal;shape-padding:0;shape-margin:0;inline-size:0;clip-rule:nonzero;display:inline;overflow:visible;visibility:visible;isolation:auto;mix-blend-mode:normal;color-interpolation:sRGB;color-interpolation-filters:linearRGB;solid-color:#000000;solid-opacity:1;vector-effect:none;fill:#000000;fill-opacity:1;fill-rule:nonzero;stroke:none;stroke-width:1;stroke-linecap:butt;stroke-linejoin:miter;stroke-miterlimit:4;stroke-dasharray:none;stroke-dashoffset:0;stroke-opacity:1;color-rendering:auto;image-rendering:auto;shape-rendering:auto;text-rendering:auto;enable-background:accumulate;stop-color:#000000" />
      <path
         id="path2144"
         d="m -143.08246,38.947374 v 13.855469 h 21.42578 v 3.285156 h -16.64063 c -1.30239,0 -2.47009,0.487668 -3.40039,1.417968 -0.9102,0.910204 -1.38476,2.067939 -1.38476,3.367188 v 0.5 h 0.5 26.21093 V 47.517686 h -21.42578 V 44.23253 h 16.64063 c 1.27917,0 2.43154,-0.475539 3.36133,-1.380859 0.93522,-0.910612 1.42382,-2.081798 1.42382,-3.404297 v -0.5 z"
         style="color:#000000;font-style:normal;font-variant:normal;font-weight:normal;font-stretch:normal;font-size:medium;line-height:1.55;font-family:TESLA;-inkscape-font-specification:TESLA;font-variant-ligatures:normal;font-variant-position:normal;font-variant-caps:normal;font-variant-numeric:normal;font-variant-alternates:normal;font-variant-east-asian:normal;font-feature-settings:normal;font-variation-settings:normal;text-indent:0;text-align:start;text-decoration:none;text-decoration-line:none;text-decoration-style:solid;text-decoration-color:#000000;letter-spacing:3.30133px;word-spacing:normal;text-transform:none;writing-mode:lr-tb;direction:ltr;text-orientation:mixed;dominant-baseline:auto;baseline-shift:baseline;text-anchor:start;white-space:normal;shape-padding:0;shape-margin:0;inline-size:0;clip-rule:nonzero;display:inline;overflow:visible;visibility:visible;isolation:auto;mix-blend-mode:normal;color-interpolation:sRGB;color-interpolation-filters:linearRGB;solid-color:#000000;solid-opacity:1;vector-effect:none;fill:#000000;fill-opacity:1;fill-rule:nonzero;stroke:none;stroke-width:1;stroke-linecap:butt;stroke-linejoin:miter;stroke-miterlimit:4;stroke-dasharray:none;stroke-dashoffset:0;stroke-opacity:1;color-rendering:auto;image-rendering:auto;shape-rendering:auto;text-rendering:auto;enable-background:accumulate;stop-color:#000000" />
      <path
         id="path2148"
         d="m -109.78559,38.947374 v 22.425781 h 0.5 21.42578 c 1.27917,0 2.4335,-0.475539 3.36328,-1.380859 0.93522,-0.910612 1.42188,-2.081798 1.42188,-3.404297 v -0.5 h -21.42578 V 38.947374 Z"
         style="color:#000000;font-style:normal;font-variant:normal;font-weight:normal;font-stretch:normal;font-size:medium;line-height:1.55;font-family:TESLA;-inkscape-font-specification:TESLA;font-variant-ligatures:normal;font-variant-position:normal;font-variant-caps:normal;font-variant-numeric:normal;font-variant-alternates:normal;font-variant-east-asian:normal;font-feature-settings:normal;font-variation-settings:normal;text-indent:0;text-align:start;text-decoration:none;text-decoration-line:none;text-decoration-style:solid;text-decoration-color:#000000;letter-spacing:3.30133px;word-spacing:normal;text-transform:none;writing-mode:lr-tb;direction:ltr;text-orientation:mixed;dominant-baseline:auto;baseline-shift:baseline;text-anchor:start;white-space:normal;shape-padding:0;shape-margin:0;inline-size:0;clip-rule:nonzero;display:inline;overflow:visible;visibility:visible;isolation:auto;mix-blend-mode:normal;color-interpolation:sRGB;color-interpolation-filters:linearRGB;solid-color:#000000;solid-opacity:1;vector-effect:none;fill:#000000;fill-opacity:1;fill-rule:nonzero;stroke:none;stroke-width:1;stroke-linecap:butt;stroke-linejoin:miter;stroke-miterlimit:4;stroke-dasharray:none;stroke-dashoffset:0;stroke-opacity:1;color-rendering:auto;image-rendering:auto;shape-rendering:auto;text-rendering:auto;enable-background:accumulate;stop-color:#000000" />
    </g>
    <g
       transform="translate(239.21778,3.0973345)"
       id="g1575">
      <path
         id="path879"
         d="m -204.91368,264.79166 a 2.5,2.5 0 0 1 -2.5,2.5 2.5,2.5 0 0 1 -2.5,-2.5 2.5,2.5 0 0 1 2.5,-2.5 2.5,2.5 0 0 1 2.5,2.5 z"
         style="opacity:1;fill:none;fill-opacity:1;stroke:#000000;stroke-width:0.2;stroke-linejoin:round;stroke-miterlimit:4;stroke-dasharray:none;stroke-opacity:1;paint-order:markers fill stroke" />
      <path
         id="path881"
         d="m -50,264.5 a 2.5,2.5 0 0 1 -2.5,2.5 2.5,2.5 0 0 1 -2.5,-2.5 2.5,2.5 0 0 1 2.5,-2.5 2.5,2.5 0 0 1 2.5,2.5 z"
         style="opacity:1;fill:none;fill-opacity:1;stroke:#000000;stroke-width:0.2;stroke-linejoin:round;stroke-miterlimit:4;stroke-dasharray:none;stroke-opacity:1;paint-order:markers fill stroke" />
      <path
         id="path883"
         d="m -49.622025,29.413691 a 2.5,2.5 0 0 1 -2.5,2.5 2.5,2.5 0 0 1 -2.5,-2.5 2.5,2.5 0 0 1 2.5,-2.5 2.5,2.5 0 0 1 2.5,2.5 z"
         style="opacity:1;fill:none;fill-opacity:1;stroke:#000000;stroke-width:0.2;stroke-linejoin:round;stroke-miterlimit:4;stroke-dasharray:none;stroke-opacity:1;paint-order:markers fill stroke" />
      <path
         id="path885"
         d="m -204.62202,29.413691 a 2.5,2.5 0 0 1 -2.5,2.5 2.5,2.5 0 0 1 -2.5,-2.5 2.5,2.5 0 0 1 2.5,-2.5 2.5,2.5 0 0 1 2.5,2.5 z"
         style="opacity:1;fill:none;fill-opacity:1;stroke:#000000;stroke-width:0.2;stroke-linejoin:round;stroke-miterlimit:4;stroke-dasharray:none;stroke-opacity:1;paint-order:markers fill stroke" />
    </g>
    <g
       transform="translate(0,-1.5875)"
       style="font-style:normal;font-variant:normal;font-weight:500;font-stretch:normal;font-size:20.4341px;line-height:1;font-family:Gotham;-inkscape-font-specification:'Gotham Medium';text-align:center;text-anchor:middle;stroke-width:0.510852"
       id="text1606"
       aria-label="100% ELEKTRISCH">
      <path
         id="path861"
         style="font-style:normal;font-variant:normal;font-weight:500;font-stretch:normal;font-family:Gotham;-inkscape-font-specification:'Gotham Medium';text-align:center;text-anchor:middle;stroke-width:0.80374"
         d="m 90.496713,230.97179 c -6.397768,0 -10.448396,5.3373 -10.448396,11.70293 v 0.0642 c 0,6.36562 3.954246,11.63787 10.384169,11.63787 6.429925,0 10.448394,-5.33648 10.448394,-11.7021 v -0.0642 c 0,-6.36563 -3.986394,-11.6387 -10.384167,-11.6387 z m 23.484687,0 c -6.39776,0 -10.4492,5.3373 -10.4492,11.70293 v 0.0642 c 0,6.36562 3.95424,11.63787 10.38417,11.63787 6.42992,0 10.44921,-5.33648 10.44921,-11.7021 v -0.0642 c 0,-6.36563 -3.9864,-11.6387 -10.38418,-11.6387 z m 18.66176,0.12847 c -3.53647,0 -5.81894,2.73275 -5.81894,6.04415 v 0.065 c 0,3.31141 2.31426,6.01163 5.7864,6.01163 3.47216,0 5.81896,-2.73275 5.81896,-6.04415 v -0.0642 c 0,-3.27926 -2.28212,-6.01244 -5.78642,-6.01244 z m -60.628502,0.16098 -6.590517,1.86512 1.189482,4.82214 3.793651,-0.86833 v 16.84704 h 6.140901 v -22.66597 z m 74.645332,0.16098 -17.36088,22.50499 h 4.34084 L 151,231.42222 Z m -14.04937,3.21478 c 1.0931,0 1.89684,1.09282 1.89684,2.50741 v 0.065 c 0,1.41457 -0.77121,2.4749 -1.8643,2.4749 -1.06093,0 -1.89683,-1.06069 -1.89683,-2.50742 v -0.0642 c 0,-1.41458 0.73904,-2.4757 1.86429,-2.4757 z m -42.178134,1.86511 c 2.475517,0 4.179843,2.60399 4.179843,6.17261 v 0.0642 c 0,3.56859 -1.607945,6.10837 -4.115616,6.10837 -2.507666,0 -4.179032,-2.57185 -4.179032,-6.1726 v -0.0642 c 0,-3.60076 1.639283,-6.10838 4.114805,-6.10838 z m 23.484694,0 c 2.47552,0 4.17904,2.60399 4.17904,6.17261 v 0.0642 c 0,3.56859 -1.60713,6.10837 -4.11482,6.10837 -2.50766,0 -4.17985,-2.57185 -4.17985,-6.1726 v -0.0642 c 0,-3.60076 1.6401,-6.10838 4.11563,-6.10838 z m 33.77211,5.62542 c -3.53645,0 -5.81974,2.73275 -5.81974,6.04416 v 0.065 c 0,3.27927 2.31506,6.01164 5.78723,6.01164 3.47216,0 5.81893,-2.76489 5.81893,-6.04415 v -0.0642 c 0,-3.31142 -2.2821,-6.01245 -5.78642,-6.01245 z m -0.0325,3.53674 c 1.09309,0 1.89682,1.06069 1.89682,2.50742 v 0.065 c 0,1.41459 -0.77122,2.47491 -1.86431,2.47491 -1.06093,0 -1.89681,-1.09283 -1.89681,-2.50742 v -0.0642 c 0,-1.44673 0.70691,-2.47571 1.8643,-2.47571 z" />
      <g
         transform="matrix(1.21623,0,0,1.21623,-23.666358,-58.011211)"
         style="font-style:normal;font-variant:normal;font-weight:normal;font-stretch:normal;font-size:25.3361px;line-height:1.25;font-family:'Gotham Black';-inkscape-font-specification:'Gotham Black, ';stroke-width:0.323576"
         id="text1501"
         aria-label="electric">
        <path
           id="path1503"
           style="font-style:normal;font-variant:normal;font-weight:normal;font-stretch:normal;font-family:'Gotham Black';-inkscape-font-specification:'Gotham Black, ';stroke-width:0.323576"
           d="m 69.111891,277.69711 c 2.736298,0 4.636506,-1.11479 5.953983,-2.78697 l -2.66029,-2.20425 c -0.988108,0.96278 -1.900208,1.39349 -3.040332,1.39349 -1.49483,0 -2.584283,-0.76008 -2.964324,-2.25491 h 9.171668 c 0.02534,-0.32937 0.02534,-0.68408 0.02534,-0.98811 0,-4.02844 -2.178904,-7.49949 -6.916755,-7.49949 -4.053776,0 -6.916755,3.16702 -6.916755,7.17012 v 0.0507 c 0,4.25647 3.040332,7.11945 7.347469,7.11945 z m -2.786971,-8.31024 c 0.253361,-1.49483 1.114788,-2.48294 2.381593,-2.48294 1.317477,0 2.204241,0.96277 2.381593,2.48294 z" />
        <path
           id="path1505"
           style="font-style:normal;font-variant:normal;font-weight:normal;font-stretch:normal;font-family:'Gotham Black';-inkscape-font-specification:'Gotham Black, ';stroke-width:0.323576"
           d="m 77.763377,277.36774 h 4.813859 v -18.49536 h -4.813859 z" />
        <path
           id="path1507"
           style="font-style:normal;font-variant:normal;font-weight:normal;font-stretch:normal;font-family:'Gotham Black';-inkscape-font-specification:'Gotham Black, ';stroke-width:0.323576"
           d="m 92.072731,277.69711 c 2.736299,0 4.636506,-1.11479 5.953983,-2.78697 l -2.66029,-2.20425 c -0.988108,0.96278 -1.900208,1.39349 -3.040332,1.39349 -1.49483,0 -2.584282,-0.76008 -2.964324,-2.25491 h 9.171668 c 0.02534,-0.32937 0.02534,-0.68408 0.02534,-0.98811 0,-4.02844 -2.178904,-7.49949 -6.916755,-7.49949 -4.053776,0 -6.916755,3.16702 -6.916755,7.17012 v 0.0507 c 0,4.25647 3.040332,7.11945 7.347469,7.11945 z m -2.786971,-8.31024 c 0.253361,-1.49483 1.114788,-2.48294 2.381593,-2.48294 1.317477,0 2.204241,0.96277 2.381594,2.48294 z" />
        <path
           id="path1509"
           style="font-style:normal;font-variant:normal;font-weight:normal;font-stretch:normal;font-family:'Gotham Black';-inkscape-font-specification:'Gotham Black, ';stroke-width:0.323576"
           d="m 107.23559,277.69711 c 3.015,0 4.8392,-1.26681 6.106,-3.14168 l -3.21768,-2.33092 c -0.76008,0.88676 -1.49483,1.41882 -2.63496,1.41882 -1.62151,0 -2.73629,-1.34281 -2.73629,-3.11634 v -0.0507 c 0,-1.67218 1.14012,-3.04033 2.68562,-3.04033 1.16546,0 1.90021,0.53205 2.55895,1.44415 l 3.26836,-2.43226 c -1.16547,-1.84954 -3.04034,-3.06567 -5.85264,-3.06567 -4.33248,0 -7.34747,3.26836 -7.34747,7.14478 v 0.0507 c 0,3.87643 3.04033,7.11945 7.17011,7.11945 z" />
        <path
           id="path1511"
           style="font-style:normal;font-variant:normal;font-weight:normal;font-stretch:normal;font-family:'Gotham Black';-inkscape-font-specification:'Gotham Black, ';stroke-width:0.323576"
           d="m 120.47014,277.64643 c 1.34282,0 2.48294,-0.30403 3.34437,-0.78542 v -3.77507 c -0.58273,0.27869 -1.1908,0.45605 -1.8242,0.45605 -0.88677,0 -1.31748,-0.40538 -1.31748,-1.36815 v -4.63651 h 3.19235 v -3.87642 h -3.19235 v -3.47105 h -4.81386 v 3.47105 h -1.62151 v 3.87642 h 1.62151 v 5.57394 c 0,3.26836 1.72286,4.53516 4.61117,4.53516 z" />
        <path
           id="path1513"
           style="font-style:normal;font-variant:normal;font-weight:normal;font-stretch:normal;font-family:'Gotham Black';-inkscape-font-specification:'Gotham Black, ';stroke-width:0.323576"
           d="m 125.95897,277.36774 h 4.81386 v -4.25647 c 0,-3.16701 1.41882,-4.61117 3.9271,-4.61117 h 0.40538 v -5.06722 c -2.28025,-0.10134 -3.54706,1.11479 -4.33248,2.98966 v -2.76163 h -4.81386 z" />
        <path
           id="path1515"
           style="font-style:normal;font-variant:normal;font-weight:normal;font-stretch:normal;font-family:'Gotham Black';-inkscape-font-specification:'Gotham Black, ';stroke-width:0.323576"
           d="m 136.79609,262.41944 h 5.01655 v -3.54706 h -5.01655 z m 0.10134,14.9483 h 4.81386 v -13.70683 h -4.81386 z" />
        <path
           id="path1517"
           style="font-style:normal;font-variant:normal;font-weight:normal;font-stretch:normal;font-family:'Gotham Black';-inkscape-font-specification:'Gotham Black, ';stroke-width:0.323576"
           d="m 151.02944,277.69711 c 3.015,0 4.83919,-1.26681 6.106,-3.14168 l -3.21768,-2.33092 c -0.76009,0.88676 -1.49483,1.41882 -2.63496,1.41882 -1.62151,0 -2.7363,-1.34281 -2.7363,-3.11634 v -0.0507 c 0,-1.67218 1.14013,-3.04033 2.68563,-3.04033 1.16546,0 1.90021,0.53205 2.55894,1.44415 l 3.26836,-2.43226 c -1.16546,-1.84954 -3.04033,-3.06567 -5.85264,-3.06567 -4.33247,0 -7.34747,3.26836 -7.34747,7.14478 v 0.0507 c 0,3.87643 3.04034,7.11945 7.17012,7.11945 z" />
      </g>
    </g>
  </g>
</svg>
