<?xml version="1.0" encoding="UTF-8" standalone="no"?>
<svg
   xmlns:dc="http://purl.org/dc/elements/1.1/"
   xmlns:cc="http://creativecommons.org/ns#"
   xmlns:rdf="http://www.w3.org/1999/02/22-rdf-syntax-ns#"
   xmlns:svg="http://www.w3.org/2000/svg"
   xmlns="http://www.w3.org/2000/svg"
   xmlns:sodipodi="http://sodipodi.sourceforge.net/DTD/sodipodi-0.dtd"
   xmlns:inkscape="http://www.inkscape.org/namespaces/inkscape"
   width="220mm"
   height="300mm"
   viewBox="0 0 220 300"
   version="1.1"
   id="svg1659"
   inkscape:version="1.0 (4035a4fb49, 2020-05-01)"
   sodipodi:docname="Tesla100ProzentElektrischGothham.svg">
  <defs
     id="defs1653" />
  <sodipodi:namedview
     id="base"
     pagecolor="#ffffff"
     bordercolor="#666666"
     borderopacity="1.0"
     inkscape:pageopacity="0.0"
     inkscape:pageshadow="2"
     inkscape:zoom="0.7"
     inkscape:cx="442.30103"
     inkscape:cy="618.72816"
     inkscape:document-units="mm"
     inkscape:current-layer="text1606"
     inkscape:document-rotation="0"
     showgrid="true"
     inkscape:window-width="1898"
     inkscape:window-height="1170"
     inkscape:window-x="2409"
     inkscape:window-y="81"
     inkscape:window-maximized="0">
    <inkscape:grid
       type="xygrid"
       id="grid2270" />
  </sodipodi:namedview>
  <metadata
     id="metadata1656">
    <rdf:RDF>
      <cc:Work
         rdf:about="">
        <dc:format>image/svg+xml</dc:format>
        <dc:type
           rdf:resource="http://purl.org/dc/dcmitype/StillImage" />
        <dc:title></dc:title>
      </cc:Work>
    </rdf:RDF>
  </metadata>
  <g
     inkscape:label="Ebene 1"
     inkscape:groupmode="layer"
     id="layer1">
    <path
       id="rect867-6-4"
       d="M -0.3500715,0.40002 H 219.24993 V 300 H -0.3500715 Z"
       style="fill:none;fill-opacity:1;stroke:#000000;stroke-width:0.4;stroke-linejoin:round;stroke-miterlimit:4;stroke-dasharray:none;stroke-opacity:1;paint-order:markers fill stroke"
       inkscape:connector-curvature="0" />
    <path
       inkscape:connector-curvature="0"
       id="rect875-2-1"
       d="m 46.410698,10.38899 c -19.29458,0 -34.93524,15.61954 -34.93524,34.88806 v 209.84591 c 0,19.26853 15.64066,34.88807 34.93524,34.88807 H 172.48918 c 19.29458,0 34.93522,-15.61954 34.93522,-34.88807 V 45.27705 c 0,-19.26852 -15.64064,-34.88806 -34.93522,-34.88806 z m 0,6.82005 H 172.48918 c 15.62928,0 28.10597,12.45984 28.10597,28.06801 v 209.84591 c 0,15.60818 -12.47669,28.06801 -28.10597,28.06801 H 46.410698 c -15.62931,0 -28.10594,-12.45983 -28.10594,-28.06801 V 45.27705 c 0,-15.60817 12.47663,-28.06801 28.10594,-28.06801 z"
       style="color:#000000;font-style:normal;font-variant:normal;font-weight:normal;font-stretch:normal;font-size:medium;line-height:normal;font-family:sans-serif;font-variant-ligatures:normal;font-variant-position:normal;font-variant-caps:normal;font-variant-numeric:normal;font-variant-alternates:normal;font-feature-settings:normal;text-indent:0;text-align:start;text-decoration:none;text-decoration-line:none;text-decoration-style:solid;text-decoration-color:#000000;letter-spacing:normal;word-spacing:normal;text-transform:none;writing-mode:lr-tb;direction:ltr;text-orientation:mixed;dominant-baseline:auto;baseline-shift:baseline;text-anchor:start;white-space:normal;shape-padding:0;clip-rule:nonzero;display:inline;overflow:visible;visibility:visible;isolation:auto;mix-blend-mode:normal;color-interpolation:sRGB;color-interpolation-filters:linearRGB;solid-color:#000000;solid-opacity:1;vector-effect:none;fill:#000000;fill-opacity:1;fill-rule:nonzero;stroke:none;stroke-width:7;stroke-linecap:butt;stroke-linejoin:round;stroke-miterlimit:4;stroke-dasharray:none;stroke-dashoffset:0;stroke-opacity:1;paint-order:markers fill stroke;color-rendering:auto;image-rendering:auto;shape-rendering:auto;text-rendering:auto;enable-background:accumulate" />
    <path
       sodipodi:nodetypes="csscccccscsscscssssccsscccsccccsssccscsssccs"
       inkscape:connector-curvature="0"
       id="path2190-3-3"
       d="m 109.3487,228.18729 c -0.24924,-1.31454 -21.697214,-121.05742 -21.697214,-121.13441 0,-0.10951 -6.334778,0.0506 -9.518925,0.24067 -9.47598,0.56508 -14.349725,2.22448 -16.705368,5.68777 -0.868454,1.27691 -1.231075,2.18733 -1.610104,4.04271 -0.153899,0.75383 -0.308072,1.39872 -0.342398,1.43304 -0.11521,0.11522 -4.05335,-1.75577 -6.026432,-2.86349 -5.901449,-3.31319 -10.534608,-7.14931 -13.68638,-11.3321 -0.463088,-0.61451 -0.841939,-1.16756 -0.841939,-1.22905 0,-0.0617 0.239778,-0.21101 0.532774,-0.33226 0.293067,-0.12144 1.555721,-0.6655 2.806021,-1.20941 C 56.583493,95.258873 75.203518,90.902875 91.91376,89.874434 l 1.491731,-0.09179 8.007249,9.757087 c 4.40396,5.366359 8.05588,9.703279 8.11543,9.637599 0.0595,-0.0656 3.6339,-4.4159 7.94297,-9.667038 4.30909,-5.251122 7.90051,-9.588242 7.98096,-9.637964 0.16778,-0.103678 3.7515,0.127326 6.88187,0.443851 13.2012,1.334432 26.45974,4.389208 38.50224,8.870905 2.8421,1.057676 7.41372,2.945536 8.60604,3.553796 l 0.55699,0.28416 -0.7185,0.98785 c -2.79227,3.83906 -7.1697,7.61172 -12.59073,10.85132 -1.49089,0.89096 -6.42626,3.36808 -7.09917,3.56316 -0.27768,0.0806 -0.31494,0.02 -0.40733,-0.66237 -0.0559,-0.41305 -0.25788,-1.29275 -0.44883,-1.95484 -1.50351,-5.21385 -5.94591,-7.52909 -16.10032,-8.39079 -2.21102,-0.18762 -11.40643,-0.42843 -11.52197,-0.30168 -0.0592,0.0649 -17.8105,99.64475 -21.55684,120.92759 l -0.1126,0.63931 z M 180,97.660446 C 163.03151,90.50406 143.75326,85.950193 124.51983,84.555065 118.34058,84.106838 105.5032,83.960061 99.286944,84.266552 c -21.542128,1.062136 -41.361327,5.45233 -60.408713,13.381196 -1.312305,0.546257 -2.467656,0.961858 -2.56754,0.923551 -0.10011,-0.03852 -0.921458,-1.56251 -1.825687,-3.387104 -1.691904,-3.413723 -2.480364,-5.187072 -2.359851,-5.307586 0.123437,-0.12339 5.090778,-1.99993 8.002427,-3.02321 27.295786,-9.593055 56.446994,-13.568399 84.0371,-11.460189 20.63579,1.576812 40.08399,5.92972 59.88101,13.402609 1.47395,0.556363 2.70519,1.036894 2.73617,1.067866 0.16184,0.161818 -3.79662,8.425318 -4.19769,8.762995 -0.0539,0.04529 -1.2167,-0.389515 -2.58417,-0.966234 z"
       style="fill:#ea0000;fill-opacity:1;stroke-width:1.18896" />
    <g
       id="g2199"
       transform="translate(239.17685,3.8643447)">
      <path
         id="path2187"
         d="m -76.48676,47.517686 v 13.855469 h 0.5 4.78515 v -8.570312 h 16.14063 v 8.570312 h 5.28516 V 47.517686 Z"
         style="color:#000000;font-style:normal;font-variant:normal;font-weight:normal;font-stretch:normal;font-size:medium;line-height:1.55;font-family:TESLA;-inkscape-font-specification:TESLA;font-variant-ligatures:normal;font-variant-position:normal;font-variant-caps:normal;font-variant-numeric:normal;font-variant-alternates:normal;font-variant-east-asian:normal;font-feature-settings:normal;font-variation-settings:normal;text-indent:0;text-align:start;text-decoration:none;text-decoration-line:none;text-decoration-style:solid;text-decoration-color:#000000;letter-spacing:3.30133px;word-spacing:normal;text-transform:none;writing-mode:lr-tb;direction:ltr;text-orientation:mixed;dominant-baseline:auto;baseline-shift:baseline;text-anchor:start;white-space:normal;shape-padding:0;shape-margin:0;inline-size:0;clip-rule:nonzero;display:inline;overflow:visible;visibility:visible;isolation:auto;mix-blend-mode:normal;color-interpolation:sRGB;color-interpolation-filters:linearRGB;solid-color:#000000;solid-opacity:1;vector-effect:none;fill:#000000;fill-opacity:1;fill-rule:nonzero;stroke:none;stroke-width:1;stroke-linecap:butt;stroke-linejoin:miter;stroke-miterlimit:4;stroke-dasharray:none;stroke-dashoffset:0;stroke-opacity:1;color-rendering:auto;image-rendering:auto;shape-rendering:auto;text-rendering:auto;enable-background:accumulate;stop-color:#000000" />
      <path
         id="path2152"
         d="m -76.48676,38.947374 v 0.5 c 0,1.299249 0.47206,2.463172 1.37891,3.394531 l 0.004,0.002 0.002,0.002 c 0.9118,0.911795 2.08098,1.386719 3.40039,1.386719 h 17.14063 c 1.27917,0 2.43154,-0.475539 3.36133,-1.380859 0.93522,-0.910612 1.42383,-2.081798 1.42383,-3.404297 v -0.5 z"
         style="color:#000000;font-style:normal;font-variant:normal;font-weight:normal;font-stretch:normal;font-size:medium;line-height:1.55;font-family:TESLA;-inkscape-font-specification:TESLA;font-variant-ligatures:normal;font-variant-position:normal;font-variant-caps:normal;font-variant-numeric:normal;font-variant-alternates:normal;font-variant-east-asian:normal;font-feature-settings:normal;font-variation-settings:normal;text-indent:0;text-align:start;text-decoration:none;text-decoration-line:none;text-decoration-style:solid;text-decoration-color:#000000;letter-spacing:3.30133px;word-spacing:normal;text-transform:none;writing-mode:lr-tb;direction:ltr;text-orientation:mixed;dominant-baseline:auto;baseline-shift:baseline;text-anchor:start;white-space:normal;shape-padding:0;shape-margin:0;inline-size:0;clip-rule:nonzero;display:inline;overflow:visible;visibility:visible;isolation:auto;mix-blend-mode:normal;color-interpolation:sRGB;color-interpolation-filters:linearRGB;solid-color:#000000;solid-opacity:1;vector-effect:none;fill:#000000;fill-opacity:1;fill-rule:nonzero;stroke:none;stroke-width:1;stroke-linecap:butt;stroke-linejoin:miter;stroke-miterlimit:4;stroke-dasharray:none;stroke-dashoffset:0;stroke-opacity:1;color-rendering:auto;image-rendering:auto;shape-rendering:auto;text-rendering:auto;enable-background:accumulate;stop-color:#000000" />
      <path
         id="path2136"
         d="m -209.67817,38.947374 v 0.5 c 0,1.299249 0.47401,2.463172 1.38086,3.394531 l 0.002,0.002 0.002,0.002 c 0.9118,0.911796 2.08098,1.386719 3.40039,1.386719 h 5.92774 v 17.140531 h 0.5 4.78515 V 44.23253 h 5.92774 c 1.27917,0 2.43154,-0.475539 3.36133,-1.380859 0.93522,-0.910611 1.42382,-2.081797 1.42382,-3.404297 v -0.5 z"
         style="color:#000000;font-style:normal;font-variant:normal;font-weight:normal;font-stretch:normal;font-size:medium;line-height:1.55;font-family:TESLA;-inkscape-font-specification:TESLA;font-variant-ligatures:normal;font-variant-position:normal;font-variant-caps:normal;font-variant-numeric:normal;font-variant-alternates:normal;font-variant-east-asian:normal;font-feature-settings:normal;font-variation-settings:normal;text-indent:0;text-align:start;text-decoration:none;text-decoration-line:none;text-decoration-style:solid;text-decoration-color:#000000;letter-spacing:3.30133px;word-spacing:normal;text-transform:none;writing-mode:lr-tb;direction:ltr;text-orientation:mixed;dominant-baseline:auto;baseline-shift:baseline;text-anchor:start;white-space:normal;shape-padding:0;shape-margin:0;inline-size:0;clip-rule:nonzero;display:inline;overflow:visible;visibility:visible;isolation:auto;mix-blend-mode:normal;color-interpolation:sRGB;color-interpolation-filters:linearRGB;solid-color:#000000;solid-opacity:1;vector-effect:none;fill:#000000;fill-opacity:1;fill-rule:nonzero;stroke:none;stroke-width:1;stroke-linecap:butt;stroke-linejoin:miter;stroke-miterlimit:4;stroke-dasharray:none;stroke-dashoffset:0;stroke-opacity:1;color-rendering:auto;image-rendering:auto;shape-rendering:auto;text-rendering:auto;enable-background:accumulate;stop-color:#000000" />
      <path
         id="path2171"
         d="m -176.38129,56.087999 v 0.5 c 0,1.299249 0.47401,2.463172 1.38086,3.394531 l 0.002,0.002 0.002,0.0039 c 0.91179,0.911796 2.08097,1.384766 3.40039,1.384766 h 17.14062 c 1.27917,0 2.4335,-0.475539 3.36328,-1.380859 0.93523,-0.910611 1.42188,-2.081797 1.42188,-3.404297 v -0.5 z"
         style="color:#000000;font-style:normal;font-variant:normal;font-weight:normal;font-stretch:normal;font-size:medium;line-height:1.55;font-family:TESLA;-inkscape-font-specification:TESLA;font-variant-ligatures:normal;font-variant-position:normal;font-variant-caps:normal;font-variant-numeric:normal;font-variant-alternates:normal;font-variant-east-asian:normal;font-feature-settings:normal;font-variation-settings:normal;text-indent:0;text-align:start;text-decoration:none;text-decoration-line:none;text-decoration-style:solid;text-decoration-color:#000000;letter-spacing:3.30133px;word-spacing:normal;text-transform:none;writing-mode:lr-tb;direction:ltr;text-orientation:mixed;dominant-baseline:auto;baseline-shift:baseline;text-anchor:start;white-space:normal;shape-padding:0;shape-margin:0;inline-size:0;clip-rule:nonzero;display:inline;overflow:visible;visibility:visible;isolation:auto;mix-blend-mode:normal;color-interpolation:sRGB;color-interpolation-filters:linearRGB;solid-color:#000000;solid-opacity:1;vector-effect:none;fill:#000000;fill-opacity:1;fill-rule:nonzero;stroke:none;stroke-width:1;stroke-linecap:butt;stroke-linejoin:miter;stroke-miterlimit:4;stroke-dasharray:none;stroke-dashoffset:0;stroke-opacity:1;color-rendering:auto;image-rendering:auto;shape-rendering:auto;text-rendering:auto;enable-background:accumulate;stop-color:#000000" />
      <path
         id="path2167"
         d="m -176.38129,47.517686 v 0.5 c 0,1.29925 0.47401,2.463172 1.38086,3.394531 l 0.002,0.002 0.002,0.0039 c 0.91179,0.911795 2.08097,1.384766 3.40039,1.384766 h 17.14062 c 1.27917,0 2.4335,-0.475539 3.36328,-1.38086 0.93523,-0.910611 1.42188,-2.081797 1.42188,-3.404297 v -0.5 z"
         style="color:#000000;font-style:normal;font-variant:normal;font-weight:normal;font-stretch:normal;font-size:medium;line-height:1.55;font-family:TESLA;-inkscape-font-specification:TESLA;font-variant-ligatures:normal;font-variant-position:normal;font-variant-caps:normal;font-variant-numeric:normal;font-variant-alternates:normal;font-variant-east-asian:normal;font-feature-settings:normal;font-variation-settings:normal;text-indent:0;text-align:start;text-decoration:none;text-decoration-line:none;text-decoration-style:solid;text-decoration-color:#000000;letter-spacing:3.30133px;word-spacing:normal;text-transform:none;writing-mode:lr-tb;direction:ltr;text-orientation:mixed;dominant-baseline:auto;baseline-shift:baseline;text-anchor:start;white-space:normal;shape-padding:0;shape-margin:0;inline-size:0;clip-rule:nonzero;display:inline;overflow:visible;visibility:visible;isolation:auto;mix-blend-mode:normal;color-interpolation:sRGB;color-interpolation-filters:linearRGB;solid-color:#000000;solid-opacity:1;vector-effect:none;fill:#000000;fill-opacity:1;fill-rule:nonzero;stroke:none;stroke-width:1;stroke-linecap:butt;stroke-linejoin:miter;stroke-miterlimit:4;stroke-dasharray:none;stroke-dashoffset:0;stroke-opacity:1;color-rendering:auto;image-rendering:auto;shape-rendering:auto;text-rendering:auto;enable-background:accumulate;stop-color:#000000" />
      <path
         id="path2140"
         d="m -176.38129,38.947374 v 0.5 c 0,1.299249 0.47401,2.463172 1.38086,3.394531 l 0.002,0.002 0.002,0.002 c 0.91179,0.911796 2.08097,1.386719 3.40039,1.386719 h 17.14062 c 1.27917,0 2.4335,-0.475539 3.36328,-1.380859 0.93523,-0.910611 1.42188,-2.081797 1.42188,-3.404297 v -0.5 z"
         style="color:#000000;font-style:normal;font-variant:normal;font-weight:normal;font-stretch:normal;font-size:medium;line-height:1.55;font-family:TESLA;-inkscape-font-specification:TESLA;font-variant-ligatures:normal;font-variant-position:normal;font-variant-caps:normal;font-variant-numeric:normal;font-variant-alternates:normal;font-variant-east-asian:normal;font-feature-settings:normal;font-variation-settings:normal;text-indent:0;text-align:start;text-decoration:none;text-decoration-line:none;text-decoration-style:solid;text-decoration-color:#000000;letter-spacing:3.30133px;word-spacing:normal;text-transform:none;writing-mode:lr-tb;direction:ltr;text-orientation:mixed;dominant-baseline:auto;baseline-shift:baseline;text-anchor:start;white-space:normal;shape-padding:0;shape-margin:0;inline-size:0;clip-rule:nonzero;display:inline;overflow:visible;visibility:visible;isolation:auto;mix-blend-mode:normal;color-interpolation:sRGB;color-interpolation-filters:linearRGB;solid-color:#000000;solid-opacity:1;vector-effect:none;fill:#000000;fill-opacity:1;fill-rule:nonzero;stroke:none;stroke-width:1;stroke-linecap:butt;stroke-linejoin:miter;stroke-miterlimit:4;stroke-dasharray:none;stroke-dashoffset:0;stroke-opacity:1;color-rendering:auto;image-rendering:auto;shape-rendering:auto;text-rendering:auto;enable-background:accumulate;stop-color:#000000" />
      <path
         id="path2144"
         d="m -143.08246,38.947374 v 13.855469 h 21.42578 v 3.285156 h -16.64063 c -1.30239,0 -2.47009,0.487668 -3.40039,1.417968 -0.9102,0.910204 -1.38476,2.067939 -1.38476,3.367188 v 0.5 h 0.5 26.21093 V 47.517686 h -21.42578 V 44.23253 h 16.64063 c 1.27917,0 2.43154,-0.475539 3.36133,-1.380859 0.93522,-0.910612 1.42382,-2.081798 1.42382,-3.404297 v -0.5 z"
         style="color:#000000;font-style:normal;font-variant:normal;font-weight:normal;font-stretch:normal;font-size:medium;line-height:1.55;font-family:TESLA;-inkscape-font-specification:TESLA;font-variant-ligatures:normal;font-variant-position:normal;font-variant-caps:normal;font-variant-numeric:normal;font-variant-alternates:normal;font-variant-east-asian:normal;font-feature-settings:normal;font-variation-settings:normal;text-indent:0;text-align:start;text-decoration:none;text-decoration-line:none;text-decoration-style:solid;text-decoration-color:#000000;letter-spacing:3.30133px;word-spacing:normal;text-transform:none;writing-mode:lr-tb;direction:ltr;text-orientation:mixed;dominant-baseline:auto;baseline-shift:baseline;text-anchor:start;white-space:normal;shape-padding:0;shape-margin:0;inline-size:0;clip-rule:nonzero;display:inline;overflow:visible;visibility:visible;isolation:auto;mix-blend-mode:normal;color-interpolation:sRGB;color-interpolation-filters:linearRGB;solid-color:#000000;solid-opacity:1;vector-effect:none;fill:#000000;fill-opacity:1;fill-rule:nonzero;stroke:none;stroke-width:1;stroke-linecap:butt;stroke-linejoin:miter;stroke-miterlimit:4;stroke-dasharray:none;stroke-dashoffset:0;stroke-opacity:1;color-rendering:auto;image-rendering:auto;shape-rendering:auto;text-rendering:auto;enable-background:accumulate;stop-color:#000000" />
      <path
         id="path2148"
         d="m -109.78559,38.947374 v 22.425781 h 0.5 21.42578 c 1.27917,0 2.4335,-0.475539 3.36328,-1.380859 0.93522,-0.910612 1.42188,-2.081798 1.42188,-3.404297 v -0.5 h -21.42578 V 38.947374 Z"
         style="color:#000000;font-style:normal;font-variant:normal;font-weight:normal;font-stretch:normal;font-size:medium;line-height:1.55;font-family:TESLA;-inkscape-font-specification:TESLA;font-variant-ligatures:normal;font-variant-position:normal;font-variant-caps:normal;font-variant-numeric:normal;font-variant-alternates:normal;font-variant-east-asian:normal;font-feature-settings:normal;font-variation-settings:normal;text-indent:0;text-align:start;text-decoration:none;text-decoration-line:none;text-decoration-style:solid;text-decoration-color:#000000;letter-spacing:3.30133px;word-spacing:normal;text-transform:none;writing-mode:lr-tb;direction:ltr;text-orientation:mixed;dominant-baseline:auto;baseline-shift:baseline;text-anchor:start;white-space:normal;shape-padding:0;shape-margin:0;inline-size:0;clip-rule:nonzero;display:inline;overflow:visible;visibility:visible;isolation:auto;mix-blend-mode:normal;color-interpolation:sRGB;color-interpolation-filters:linearRGB;solid-color:#000000;solid-opacity:1;vector-effect:none;fill:#000000;fill-opacity:1;fill-rule:nonzero;stroke:none;stroke-width:1;stroke-linecap:butt;stroke-linejoin:miter;stroke-miterlimit:4;stroke-dasharray:none;stroke-dashoffset:0;stroke-opacity:1;color-rendering:auto;image-rendering:auto;shape-rendering:auto;text-rendering:auto;enable-background:accumulate;stop-color:#000000" />
    </g>
    <g
       transform="translate(239.21778,3.0973345)"
       id="g1575">
      <path
         id="path879"
         d="m -204.91368,264.79166 a 2.5,2.5 0 0 1 -2.5,2.5 2.5,2.5 0 0 1 -2.5,-2.5 2.5,2.5 0 0 1 2.5,-2.5 2.5,2.5 0 0 1 2.5,2.5 z"
         style="opacity:1;fill:none;fill-opacity:1;stroke:#000000;stroke-width:0.2;stroke-linejoin:round;stroke-miterlimit:4;stroke-dasharray:none;stroke-opacity:1;paint-order:markers fill stroke" />
      <path
         id="path881"
         d="m -50,264.5 a 2.5,2.5 0 0 1 -2.5,2.5 2.5,2.5 0 0 1 -2.5,-2.5 2.5,2.5 0 0 1 2.5,-2.5 2.5,2.5 0 0 1 2.5,2.5 z"
         style="opacity:1;fill:none;fill-opacity:1;stroke:#000000;stroke-width:0.2;stroke-linejoin:round;stroke-miterlimit:4;stroke-dasharray:none;stroke-opacity:1;paint-order:markers fill stroke" />
      <path
         id="path883"
         d="m -49.622025,29.413691 a 2.5,2.5 0 0 1 -2.5,2.5 2.5,2.5 0 0 1 -2.5,-2.5 2.5,2.5 0 0 1 2.5,-2.5 2.5,2.5 0 0 1 2.5,2.5 z"
         style="opacity:1;fill:none;fill-opacity:1;stroke:#000000;stroke-width:0.2;stroke-linejoin:round;stroke-miterlimit:4;stroke-dasharray:none;stroke-opacity:1;paint-order:markers fill stroke" />
      <path
         id="path885"
         d="m -204.62202,29.413691 a 2.5,2.5 0 0 1 -2.5,2.5 2.5,2.5 0 0 1 -2.5,-2.5 2.5,2.5 0 0 1 2.5,-2.5 2.5,2.5 0 0 1 2.5,2.5 z"
         style="opacity:1;fill:none;fill-opacity:1;stroke:#000000;stroke-width:0.2;stroke-linejoin:round;stroke-miterlimit:4;stroke-dasharray:none;stroke-opacity:1;paint-order:markers fill stroke" />
    </g>
    <g
       style="font-style:normal;font-variant:normal;font-weight:500;font-stretch:normal;font-size:20.4341px;line-height:1;font-family:Gotham;-inkscape-font-specification:'Gotham Medium';text-align:center;text-anchor:middle;stroke-width:0.510852"
       id="text1606"
       aria-label="100% ELEKTRISCH">
      <path
         id="path861"
         style="font-style:normal;font-variant:normal;font-weight:500;font-stretch:normal;font-family:Gotham;-inkscape-font-specification:'Gotham Medium';text-align:center;text-anchor:middle;stroke-width:0.792483"
         d="m 90.344073,232.19403 c -6.308166,0 -10.302064,5.26255 -10.302064,11.53902 v 0.0633 c 0,6.27647 3.898866,11.47488 10.238736,11.47488 6.339873,0 10.302065,-5.26174 10.302065,-11.53821 v -0.0633 c 0,-6.27647 -3.930567,-11.47569 -10.238737,-11.47569 z m 23.155787,0 c -6.30816,0 -10.30286,5.26255 -10.30286,11.53902 v 0.0633 c 0,6.27647 3.89886,11.47488 10.23874,11.47488 6.33986,0 10.30286,-5.26174 10.30286,-11.53821 v -0.0633 c 0,-6.27647 -3.93057,-11.47569 -10.23874,-11.47569 z m 18.40039,0.12667 c -3.48694,0 -5.73744,2.69447 -5.73744,5.9595 v 0.0641 c 0,3.26503 2.28185,5.92743 5.70536,5.92743 3.42353,0 5.73746,-2.69447 5.73746,-5.9595 v -0.0633 c 0,-3.23333 -2.25016,-5.92823 -5.70538,-5.92823 z m -59.779386,0.15872 -6.498215,1.839 1.172823,4.75461 3.74052,-0.85617 v 16.61109 h 6.054896 v -22.34853 z m 73.599906,0.15873 -17.11773,22.1898 h 4.28004 L 150,232.63815 Z m -13.8526,3.16975 c 1.07779,0 1.87027,1.07752 1.87027,2.4723 v 0.0641 c 0,1.39476 -0.76041,2.44024 -1.83819,2.44024 -1.04607,0 -1.87026,-1.04584 -1.87026,-2.47231 v -0.0633 c 0,-1.39477 0.72869,-2.44103 1.83818,-2.44103 z m -41.587425,1.83899 c 2.440847,0 4.121304,2.56752 4.121304,6.08616 v 0.0633 c 0,3.51862 -1.585426,6.02283 -4.057976,6.02283 -2.472546,0 -4.120504,-2.53584 -4.120504,-6.08616 v -0.0633 c 0,-3.55033 1.616325,-6.02283 4.057176,-6.02283 z m 23.155785,0 c 2.44085,0 4.12052,2.56752 4.12052,6.08616 v 0.0633 c 0,3.51862 -1.58463,6.02283 -4.05719,6.02283 -2.47254,0 -4.12131,-2.53584 -4.12131,-6.08616 v -0.0633 c 0,-3.55033 1.61713,-6.02283 4.05798,-6.02283 z m 33.29913,5.54664 c -3.48692,0 -5.73824,2.69447 -5.73824,5.95951 v 0.0641 c 0,3.23334 2.28264,5.92744 5.70618,5.92744 3.42353,0 5.73744,-2.72616 5.73744,-5.9595 v -0.0633 c 0,-3.26504 -2.25014,-5.92824 -5.70538,-5.92824 z m -0.0321,3.4872 c 1.07778,0 1.87026,1.04584 1.87026,2.47231 v 0.0641 c 0,1.39478 -0.76042,2.44025 -1.8382,2.44025 -1.04607,0 -1.87025,-1.07753 -1.87025,-2.47231 v -0.0633 c 0,-1.42647 0.69701,-2.44104 1.83819,-2.44104 z" />
      <path
         id="path869"
         style="font-style:normal;font-variant:normal;font-weight:500;font-stretch:normal;font-family:Gotham;-inkscape-font-specification:'Gotham Medium';text-align:center;text-anchor:middle;stroke-width:0.510852"
         d="M 43.938572,273.96466 H 55.54514 v -3.37162 h -7.683221 v -2.26819 h 6.865857 v -3.12642 h -6.865857 v -2.16601 h 7.58105 v -3.37163 H 43.938572 Z" />
      <path
         id="path871"
         style="font-style:normal;font-variant:normal;font-weight:500;font-stretch:normal;font-family:Gotham;-inkscape-font-specification:'Gotham Medium';text-align:center;text-anchor:middle;stroke-width:0.510852"
         d="m 57.587911,273.96466 h 10.891375 v -3.47379 h -6.92716 v -10.83008 h -3.964215 z" />
      <path
         id="path873"
         style="font-style:normal;font-variant:normal;font-weight:500;font-stretch:normal;font-family:Gotham;-inkscape-font-specification:'Gotham Medium';text-align:center;text-anchor:middle;stroke-width:0.510852"
         d="M 70.159671,273.96466 H 81.76624 v -3.37162 h -7.683222 v -2.26819 h 6.865858 v -3.12642 h -6.865858 v -2.16601 h 7.581051 v -3.37163 H 70.159671 Z" />
      <path
         id="path875"
         style="font-style:normal;font-variant:normal;font-weight:500;font-stretch:normal;font-family:Gotham;-inkscape-font-specification:'Gotham Medium';text-align:center;text-anchor:middle;stroke-width:0.510852"
         d="m 83.809009,273.96466 h 3.964215 v -3.69857 l 1.450821,-1.61429 3.596402,5.31286 h 4.761145 l -5.598943,-8.1532 5.415036,-6.15067 h -4.699843 l -4.924618,5.80329 v -5.80329 h -3.964215 z" />
      <path
         id="path877"
         style="font-style:normal;font-variant:normal;font-weight:500;font-stretch:normal;font-family:Gotham;-inkscape-font-specification:'Gotham Medium';text-align:center;text-anchor:middle;stroke-width:0.510852"
         d="m 102.03016,273.96466 h 3.96422 v -10.83007 h 4.29116 v -3.4738 H 97.739 v 3.4738 h 4.29116 z" />
      <path
         id="path880"
         style="font-style:normal;font-variant:normal;font-weight:500;font-stretch:normal;font-family:Gotham;-inkscape-font-specification:'Gotham Medium';text-align:center;text-anchor:middle;stroke-width:0.510852"
         d="m 112.02563,273.96466 h 3.96422 v -4.33203 h 1.69603 0.0409 l 2.88121,4.33203 h 4.57724 l -3.41249,-4.98592 c 1.77776,-0.75606 2.94251,-2.20688 2.94251,-4.39333 v -0.0409 c 0,-1.40995 -0.42912,-2.51339 -1.26692,-3.33076 -0.9604,-0.98083 -2.47252,-1.55299 -4.65897,-1.55299 h -6.76369 z m 3.96422,-7.43801 v -3.43293 h 2.59513 c 1.32821,0 2.14558,0.57216 2.14558,1.69603 v 0.0409 c 0,1.04214 -0.7765,1.69603 -2.12515,1.69603 z" />
      <path
         id="path882"
         style="font-style:normal;font-variant:normal;font-weight:500;font-stretch:normal;font-family:Gotham;-inkscape-font-specification:'Gotham Medium';text-align:center;text-anchor:middle;stroke-width:0.510852"
         d="m 126.79437,273.96466 h 3.98465 v -14.30387 h -3.98465 z" />
      <path
         id="path884"
         style="font-style:normal;font-variant:normal;font-weight:500;font-stretch:normal;font-family:Gotham;-inkscape-font-specification:'Gotham Medium';text-align:center;text-anchor:middle;stroke-width:0.510852"
         d="m 138.99704,274.20987 c 3.4738,0 5.78285,-1.7369 5.78285,-4.65897 v -0.0409 c 0,-2.67687 -2.04341,-3.73944 -5.3333,-4.45463 -1.9821,-0.44955 -2.47252,-0.73563 -2.47252,-1.38952 v -0.0409 c 0,-0.51085 0.46998,-0.91954 1.43038,-0.91954 1.26692,0 2.69731,0.49042 4.00509,1.40996 l 1.98211,-2.79947 c -1.553,-1.24648 -3.45337,-1.90038 -5.88503,-1.90038 -3.43292,0 -5.53764,1.92081 -5.53764,4.57724 v 0.0409 c 0,2.94251 2.34993,3.80074 5.39461,4.4955 1.94124,0.44955 2.41122,0.7765 2.41122,1.36909 v 0.0409 c 0,0.61302 -0.57215,0.98083 -1.63473,0.98083 -1.65516,0 -3.22859,-0.59259 -4.63854,-1.71646 l -2.20688,2.636 c 1.75733,1.57342 4.16856,2.37035 6.70238,2.37035 z" />
      <path
         id="path886"
         style="font-style:normal;font-variant:normal;font-weight:500;font-stretch:normal;font-family:Gotham;-inkscape-font-specification:'Gotham Medium';text-align:center;text-anchor:middle;stroke-width:0.510852"
         d="m 153.59401,274.25074 c 3.16729,0 4.98592,-1.36908 6.33457,-3.22859 l -2.98337,-2.12514 c -0.85824,1.04214 -1.7369,1.73689 -3.22859,1.73689 -2.00254,0 -3.4125,-1.67559 -3.4125,-3.82117 v -0.0409 c 0,-2.08428 1.40996,-3.78031 3.4125,-3.78031 1.36908,0 2.30905,0.65389 3.12641,1.6756 l 2.98338,-2.30906 c -1.26691,-1.75733 -3.14685,-2.98337 -6.06892,-2.98337 -4.33203,0 -7.54019,3.26945 -7.54019,7.43801 v 0.0409 c 0,4.27072 3.28989,7.39714 7.37671,7.39714 z" />
      <path
         id="path888"
         style="font-style:normal;font-variant:normal;font-weight:500;font-stretch:normal;font-family:Gotham;-inkscape-font-specification:'Gotham Medium';text-align:center;text-anchor:middle;stroke-width:0.510852"
         d="m 161.6342,273.96466 h 3.96421 v -5.43547 h 5.08809 v 5.43547 h 3.96422 v -14.30387 h -3.96422 v 5.35374 h -5.08809 v -5.35374 h -3.96421 z" />
    </g>
  </g>
</svg>
