  0
SECTION
  2
HEADER
  9
$ACADVER
  1
AC1014
  9
$HANDSEED
  5
FFFF
  9
$MEASUREMENT
 70
     1
  0
ENDSEC
  0
SECTION
  2
TABLES
  0
TABLE
  2
VPORT
  5
8
330
0
100
AcDbSymbolTable
 70
     4
  0
VPORT
  5
2E
330
8
100
AcDbSymbolTableRecord
100
AcDbViewportTableRecord
  2
*ACTIVE
 70
     0
 10
0.0
 20
0.0
 11
1.0
 21
1.0
 12
210.0
 22
148.5
 13
0.0
 23
0.0
 14
10.0
 24
10.0
 15
10.0
 25
10.0
 16
0.0
 26
0.0
 36
1.0
 17
0.0
 27
0.0
 37
0.0
 40
341.0
 41
1.24
 42
50.0
 43
0.0
 44
0.0
 50
0.0
 51
0.0
 71
     0
 72
   100
 73
     1
 74
     3
 75
     0
 76
     0
 77
     0
 78
     0
  0
ENDTAB
  0
TABLE
  2
LTYPE
  5
5
330
0
100
AcDbSymbolTable
 70
     1
  0
LTYPE
  5
14
330
5
100
AcDbSymbolTableRecord
100
AcDbLinetypeTableRecord
  2
BYBLOCK
 70
     0
  3

 72
    65
 73
     0
 40
0.0
  0
LTYPE
  5
15
330
5
100
AcDbSymbolTableRecord
100
AcDbLinetypeTableRecord
  2
BYLAYER
 70
     0
  3

 72
    65
 73
     0
 40
0.0
  0
LTYPE
  5
16
330
5
100
AcDbSymbolTableRecord
100
AcDbLinetypeTableRecord
  2
CONTINUOUS
 70
     0
  3
Solid line
 72
    65
 73
     0
 40
0.0
  0
ENDTAB
  0
TABLE
  2
LAYER
  5
2
100
AcDbSymbolTable
 70
2
  0
LAYER
  5
50
100
AcDbSymbolTableRecord
100
AcDbLayerTableRecord
  2
0
 70
0
  6
CONTINUOUS
  0
LAYER
  5
51
100
AcDbSymbolTableRecord
100
AcDbLayerTableRecord
  2
Ebene_1
 70
0
  6
CONTINUOUS
  0
ENDTAB
  0
TABLE
  2
STYLE
  5
3
330
0
100
AcDbSymbolTable
 70
     1
  0
STYLE
  5
11
330
3
100
AcDbSymbolTableRecord
100
AcDbTextStyleTableRecord
  2
STANDARD
 70
     0
 40
0.0
 41
1.0
 50
0.0
 71
     0
 42
2.5
  3
txt
  4

  0
ENDTAB
  0
TABLE
  2
VIEW
  5
6
330
0
100
AcDbSymbolTable
 70
     0
  0
ENDTAB
  0
TABLE
  2
UCS
  5
7
330
0
100
AcDbSymbolTable
 70
     0
  0
ENDTAB
  0
TABLE
  2
APPID
  5
9
330
0
100
AcDbSymbolTable
 70
     2
  0
APPID
  5
12
330
9
100
AcDbSymbolTableRecord
100
AcDbRegAppTableRecord
  2
ACAD
 70
     0
  0
ENDTAB
  0
TABLE
  2
DIMSTYLE
  5
A
330
0
100
AcDbSymbolTable
 70
     1
  0
DIMSTYLE
105
27
330
A
100
AcDbSymbolTableRecord
100
AcDbDimStyleTableRecord
  2
ISO-25
 70
     0
  3

  4

  5

  6

  7

 40
1.0
 41
2.5
 42
0.625
 43
3.75
 44
1.25
 45
0.0
 46
0.0
 47
0.0
 48
0.0
140
2.5
141
2.5
142
0.0
143
0.03937007874016
144
1.0
145
0.0
146
1.0
147
0.625
 71
     0
 72
     0
 73
     0
 74
     0
 75
     0
 76
     0
 77
     1
 78
     8
170
     0
171
     3
172
     1
173
     0
174
     0
175
     0
176
     0
177
     0
178
     0
270
     2
271
     2
272
     2
273
     2
274
     3
340
11
275
     0
280
     0
281
     0
282
     0
283
     0
284
     8
285
     0
286
     0
287
     3
288
     0
  0
ENDTAB
  0
TABLE
  2
BLOCK_RECORD
  5
1
330
0
100
AcDbSymbolTable
 70
     1
  0
BLOCK_RECORD
  5
1F
330
1
100
AcDbSymbolTableRecord
100
AcDbBlockTableRecord
  2
*MODEL_SPACE
  0
BLOCK_RECORD
  5
1B
330
1
100
AcDbSymbolTableRecord
100
AcDbBlockTableRecord
  2
*PAPER_SPACE
  0
ENDTAB
  0
ENDSEC
  0
SECTION
  2
BLOCKS
  0
BLOCK
  5
20
330
1F
100
AcDbEntity
  8
0
100
AcDbBlockBegin
  2
*MODEL_SPACE
 70
     0
 10
0.0
 20
0.0
 30
0.0
  3
*MODEL_SPACE
  1

  0
ENDBLK
  5
21
330
1F
100
AcDbEntity
  8
0
100
AcDbBlockEnd
  0
BLOCK
  5
1C
330
1B
100
AcDbEntity
 67
     1
  8
0
100
AcDbBlockBegin
  2
*PAPER_SPACE
  1

  0
ENDBLK
  5
1D
330
1B
100
AcDbEntity
 67
     1
  8
0
100
AcDbBlockEnd
  0
ENDSEC
  0
SECTION
  2
ENTITIES
  0
SPLINE
  5
100
100
AcDbEntity
  8
Ebene_1
 62
7
100
AcDbSpline
 70
8
 71
3
 72
8
 73
4
 74
0
 40
0
 40
0
 40
0
 40
0
 40
1
 40
1
 40
1
 40
1
 10
35.562731
 20
145.266284
 30
0.0
 10
21.463107
 20
145.266284
 30
0.0
 10
10.024742
 20
133.825685
 30
0.0
 10
10.024742
 20
119.726046
 30
0.0
  0
LWPOLYLINE
  5
101
100
AcDbEntity
  8
Ebene_1
 62
7
100
AcDbPolyline
 90
4
 70
1
 10
5.290988
 20
149.998935
 30
0.0
 10
145.291268
 20
149.998935
 30
0.0
 10
145.291268
 20
9.998627
 30
0.0
 10
5.290988
 20
9.998627
 30
0.0
  0
SPLINE
  5
102
100
AcDbEntity
  8
Ebene_1
 62
7
100
AcDbSpline
 70
8
 71
3
 72
8
 73
4
 74
0
 40
0
 40
0
 40
0
 40
0
 40
1
 40
1
 40
1
 40
1
 10
10.024742
 20
40.271530
 30
0.0
 10
10.024742
 20
26.171891
 30
0.0
 10
21.463107
 20
14.731277
 30
0.0
 10
35.562731
 20
14.731277
 30
0.0
  0
LWPOLYLINE
  5
103
100
AcDbEntity
  8
Ebene_1
 62
7
100
AcDbPolyline
 90
2
 70
0
 10
10.024742
 20
119.726046
 30
0.0
 10
10.024742
 20
40.271530
 30
0.0
  0
SPLINE
  5
104
100
AcDbEntity
  8
Ebene_1
 62
7
100
AcDbSpline
 70
8
 71
3
 72
8
 73
4
 74
0
 40
0
 40
0
 40
0
 40
0
 40
1
 40
1
 40
1
 40
1
 10
115.019525
 20
14.731277
 30
0.0
 10
129.119164
 20
14.731277
 30
0.0
 10
140.557514
 20
26.171891
 30
0.0
 10
140.557514
 20
40.271530
 30
0.0
  0
LWPOLYLINE
  5
105
100
AcDbEntity
  8
Ebene_1
 62
7
100
AcDbPolyline
 90
2
 70
0
 10
35.562731
 20
14.731277
 30
0.0
 10
115.019525
 20
14.731277
 30
0.0
  0
SPLINE
  5
106
100
AcDbEntity
  8
Ebene_1
 62
7
100
AcDbSpline
 70
8
 71
3
 72
8
 73
4
 74
0
 40
0
 40
0
 40
0
 40
0
 40
1
 40
1
 40
1
 40
1
 10
140.557514
 20
119.726046
 30
0.0
 10
140.557514
 20
133.825685
 30
0.0
 10
129.119164
 20
145.266284
 30
0.0
 10
115.019525
 20
145.266284
 30
0.0
  0
LWPOLYLINE
  5
107
100
AcDbEntity
  8
Ebene_1
 62
7
100
AcDbPolyline
 90
2
 70
0
 10
140.557514
 20
40.271530
 30
0.0
 10
140.557514
 20
119.726046
 30
0.0
  0
LWPOLYLINE
  5
108
100
AcDbEntity
  8
Ebene_1
 62
7
100
AcDbPolyline
 90
2
 70
0
 10
115.019525
 20
145.266284
 30
0.0
 10
35.562731
 20
145.266284
 30
0.0
  0
SPLINE
  5
109
100
AcDbEntity
  8
Ebene_1
 62
7
100
AcDbSpline
 70
8
 71
3
 72
8
 73
4
 74
0
 40
0
 40
0
 40
0
 40
0
 40
1
 40
1
 40
1
 40
1
 10
115.019525
 20
139.589686
 30
0.0
 10
126.073152
 20
139.589686
 30
0.0
 10
134.883150
 20
130.779702
 30
0.0
 10
134.883150
 20
119.726046
 30
0.0
  0
LWPOLYLINE
  5
10a
100
AcDbEntity
  8
Ebene_1
 62
7
100
AcDbPolyline
 90
2
 70
0
 10
35.562731
 20
139.589686
 30
0.0
 10
115.019525
 20
139.589686
 30
0.0
  0
SPLINE
  5
10b
100
AcDbEntity
  8
Ebene_1
 62
7
100
AcDbSpline
 70
8
 71
3
 72
8
 73
4
 74
0
 40
0
 40
0
 40
0
 40
0
 40
1
 40
1
 40
1
 40
1
 10
134.883150
 20
40.271530
 30
0.0
 10
134.883150
 20
29.217859
 30
0.0
 10
126.073152
 20
20.407890
 30
0.0
 10
115.019525
 20
20.407890
 30
0.0
  0
LWPOLYLINE
  5
10c
100
AcDbEntity
  8
Ebene_1
 62
7
100
AcDbPolyline
 90
2
 70
0
 10
134.883150
 20
119.726046
 30
0.0
 10
134.883150
 20
40.271530
 30
0.0
  0
SPLINE
  5
10d
100
AcDbEntity
  8
Ebene_1
 62
7
100
AcDbSpline
 70
8
 71
3
 72
8
 73
4
 74
0
 40
0
 40
0
 40
0
 40
0
 40
1
 40
1
 40
1
 40
1
 10
35.562731
 20
20.407890
 30
0.0
 10
24.509089
 20
20.407890
 30
0.0
 10
15.699091
 20
29.217859
 30
0.0
 10
15.699091
 20
40.271530
 30
0.0
  0
LWPOLYLINE
  5
10e
100
AcDbEntity
  8
Ebene_1
 62
7
100
AcDbPolyline
 90
2
 70
0
 10
115.019525
 20
20.407890
 30
0.0
 10
35.562731
 20
20.407890
 30
0.0
  0
SPLINE
  5
10f
100
AcDbEntity
  8
Ebene_1
 62
7
100
AcDbSpline
 70
8
 71
3
 72
8
 73
4
 74
0
 40
0
 40
0
 40
0
 40
0
 40
1
 40
1
 40
1
 40
1
 10
15.699091
 20
119.726046
 30
0.0
 10
15.699091
 20
130.779702
 30
0.0
 10
24.509089
 20
139.589686
 30
0.0
 10
35.562731
 20
139.589686
 30
0.0
  0
LWPOLYLINE
  5
110
100
AcDbEntity
  8
Ebene_1
 62
7
100
AcDbPolyline
 90
2
 70
0
 10
15.699091
 20
40.271530
 30
0.0
 10
15.699091
 20
119.726046
 30
0.0
  0
SPLINE
  5
111
100
AcDbEntity
  8
Ebene_1
 62
7
100
AcDbSpline
 70
8
 71
3
 72
8
 73
4
 74
0
 40
0
 40
0
 40
0
 40
0
 40
1
 40
1
 40
1
 40
1
 10
74.636013
 20
131.341582
 30
0.0
 10
58.860965
 20
131.253511
 30
0.0
 10
42.665139
 20
128.426210
 30
0.0
 10
27.317239
 20
123.032234
 30
0.0
  0
SPLINE
  5
112
100
AcDbEntity
  8
Ebene_1
 62
7
100
AcDbSpline
 70
8
 71
3
 72
8
 73
4
 74
0
 40
0
 40
0
 40
0
 40
0
 40
1
 40
1
 40
1
 40
1
 10
27.317239
 20
123.032234
 30
0.0
 10
25.302244
 20
122.324089
 30
0.0
 10
21.864893
 20
121.025263
 30
0.0
 10
21.779492
 20
120.939950
 30
0.0
  0
SPLINE
  5
113
100
AcDbEntity
  8
Ebene_1
 62
7
100
AcDbSpline
 70
8
 71
3
 72
8
 73
4
 74
0
 40
0
 40
0
 40
0
 40
0
 40
1
 40
1
 40
1
 40
1
 10
21.779492
 20
120.939950
 30
0.0
 10
21.696210
 20
120.856667
 30
0.0
 10
22.241375
 20
119.629256
 30
0.0
 10
23.412245
 20
117.266840
 30
0.0
  0
SPLINE
  5
114
100
AcDbEntity
  8
Ebene_1
 62
7
100
AcDbSpline
 70
8
 71
3
 72
8
 73
4
 74
0
 40
0
 40
0
 40
0
 40
0
 40
1
 40
1
 40
1
 40
1
 10
23.412245
 20
117.266840
 30
0.0
 10
24.038052
 20
116.004157
 30
0.0
 10
24.606997
 20
114.949403
 30
0.0
 10
24.676060
 20
114.922779
 30
0.0
  0
SPLINE
  5
115
100
AcDbEntity
  8
Ebene_1
 62
7
100
AcDbSpline
 70
8
 71
3
 72
8
 73
4
 74
0
 40
0
 40
0
 40
0
 40
0
 40
1
 40
1
 40
1
 40
1
 10
24.676060
 20
114.922779
 30
0.0
 10
24.745123
 20
114.896228
 30
0.0
 10
25.544372
 20
115.184204
 30
0.0
 10
26.452540
 20
115.562224
 30
0.0
  0
SPLINE
  5
116
100
AcDbEntity
  8
Ebene_1
 62
7
100
AcDbSpline
 70
8
 71
3
 72
8
 73
4
 74
0
 40
0
 40
0
 40
0
 40
0
 40
1
 40
1
 40
1
 40
1
 10
26.452540
 20
115.562224
 30
0.0
 10
39.634086
 20
121.049305
 30
0.0
 10
53.349727
 20
124.087554
 30
0.0
 10
68.257726
 20
124.822599
 30
0.0
  0
SPLINE
  5
117
100
AcDbEntity
  8
Ebene_1
 62
7
100
AcDbSpline
 70
8
 71
3
 72
8
 73
4
 74
0
 40
0
 40
0
 40
0
 40
0
 40
1
 40
1
 40
1
 40
1
 10
68.257726
 20
124.822599
 30
0.0
 10
72.559601
 20
125.034722
 30
0.0
 10
81.443668
 20
124.933014
 30
0.0
 10
85.719964
 20
124.622722
 30
0.0
  0
SPLINE
  5
118
100
AcDbEntity
  8
Ebene_1
 62
7
100
AcDbSpline
 70
8
 71
3
 72
8
 73
4
 74
0
 40
0
 40
0
 40
0
 40
0
 40
1
 40
1
 40
1
 40
1
 10
85.719964
 20
124.622722
 30
0.0
 10
99.030221
 20
123.657257
 30
0.0
 10
112.371846
 20
120.505649
 30
0.0
 10
124.114699
 20
115.553156
 30
0.0
  0
SPLINE
  5
119
100
AcDbEntity
  8
Ebene_1
 62
7
100
AcDbSpline
 70
8
 71
3
 72
8
 73
4
 74
0
 40
0
 40
0
 40
0
 40
0
 40
1
 40
1
 40
1
 40
1
 10
124.114699
 20
115.553156
 30
0.0
 10
125.061041
 20
115.154054
 30
0.0
 10
125.865382
 20
114.853411
 30
0.0
 10
125.902641
 20
114.884722
 30
0.0
  0
SPLINE
  5
11a
100
AcDbEntity
  8
Ebene_1
 62
7
100
AcDbSpline
 70
8
 71
3
 72
8
 73
4
 74
0
 40
0
 40
0
 40
0
 40
0
 40
1
 40
1
 40
1
 40
1
 10
125.902641
 20
114.884722
 30
0.0
 10
126.180215
 20
115.118376
 30
0.0
 10
128.919736
 20
120.836950
 30
0.0
 10
128.807697
 20
120.949018
 30
0.0
  0
SPLINE
  5
11b
100
AcDbEntity
  8
Ebene_1
 62
7
100
AcDbSpline
 70
8
 71
3
 72
8
 73
4
 74
0
 40
0
 40
0
 40
0
 40
0
 40
1
 40
1
 40
1
 40
1
 10
128.807697
 20
120.949018
 30
0.0
 10
128.786368
 20
120.970346
 30
0.0
 10
127.934089
 20
121.303098
 30
0.0
 10
126.914056
 20
121.688097
 30
0.0
  0
SPLINE
  5
11c
100
AcDbEntity
  8
Ebene_1
 62
7
100
AcDbSpline
 70
8
 71
3
 72
8
 73
4
 74
0
 40
0
 40
0
 40
0
 40
0
 40
1
 40
1
 40
1
 40
1
 10
126.914056
 20
121.688097
 30
0.0
 10
113.213766
 20
126.859604
 30
0.0
 10
99.754965
 20
129.871766
 30
0.0
 10
85.474195
 20
130.962981
 30
0.0
  0
SPLINE
  5
11d
100
AcDbEntity
  8
Ebene_1
 62
7
100
AcDbSpline
 70
8
 71
3
 72
8
 73
4
 74
0
 40
0
 40
0
 40
0
 40
0
 40
1
 40
1
 40
1
 40
1
 10
85.474195
 20
130.962981
 30
0.0
 10
81.894190
 20
131.236550
 30
0.0
 10
78.276404
 20
131.361923
 30
0.0
 10
74.636013
 20
131.341582
 30
0.0
  0
LWPOLYLINE
  5
11e
100
AcDbEntity
  8
Ebene_1
 62
7
100
AcDbPolyline
 90
1
 70
1
 10
35.562731
 20
139.589686
 30
0.0
  0
LWPOLYLINE
  5
11f
100
AcDbEntity
  8
Ebene_1
 62
7
100
AcDbPolyline
 90
1
 70
1
 10
74.636013
 20
131.341582
 30
0.0
  0
SPLINE
  5
120
100
AcDbEntity
  8
Ebene_1
 62
7
100
AcDbSpline
 70
8
 71
3
 72
8
 73
4
 74
0
 40
0
 40
0
 40
0
 40
0
 40
1
 40
1
 40
1
 40
1
 10
63.155325
 20
120.941633
 30
0.0
 10
51.591195
 20
120.229903
 30
0.0
 10
38.705692
 20
117.214883
 30
0.0
 10
28.792393
 20
112.902198
 30
0.0
  0
SPLINE
  5
121
100
AcDbEntity
  8
Ebene_1
 62
7
100
AcDbSpline
 70
8
 71
3
 72
8
 73
4
 74
0
 40
0
 40
0
 40
0
 40
0
 40
1
 40
1
 40
1
 40
1
 10
28.792393
 20
112.902198
 30
0.0
 10
27.927158
 20
112.525789
 30
0.0
 10
27.053246
 20
112.149176
 30
0.0
 10
26.850466
 20
112.065270
 30
0.0
  0
SPLINE
  5
122
100
AcDbEntity
  8
Ebene_1
 62
7
100
AcDbSpline
 70
8
 71
3
 72
8
 73
4
 74
0
 40
0
 40
0
 40
0
 40
0
 40
1
 40
1
 40
1
 40
1
 10
26.850466
 20
112.065270
 30
0.0
 10
26.647702
 20
111.981407
 30
0.0
 10
26.481515
 20
111.877754
 30
0.0
 10
26.481515
 20
111.835228
 30
0.0
  0
SPLINE
  5
123
100
AcDbEntity
  8
Ebene_1
 62
7
100
AcDbSpline
 70
8
 71
3
 72
8
 73
4
 74
0
 40
0
 40
0
 40
0
 40
0
 40
1
 40
1
 40
1
 40
1
 10
26.481515
 20
111.835228
 30
0.0
 10
26.481515
 20
111.792717
 30
0.0
 10
26.743767
 20
111.410286
 30
0.0
 10
27.064215
 20
110.985024
 30
0.0
  0
SPLINE
  5
124
100
AcDbEntity
  8
Ebene_1
 62
7
100
AcDbSpline
 70
8
 71
3
 72
8
 73
4
 74
0
 40
0
 40
0
 40
0
 40
0
 40
1
 40
1
 40
1
 40
1
 10
27.064215
 20
110.985024
 30
0.0
 10
29.245411
 20
108.090372
 30
0.0
 10
32.451893
 20
105.435279
 30
0.0
 10
36.535958
 20
103.142435
 30
0.0
  0
SPLINE
  5
125
100
AcDbEntity
  8
Ebene_1
 62
7
100
AcDbSpline
 70
8
 71
3
 72
8
 73
4
 74
0
 40
0
 40
0
 40
0
 40
0
 40
1
 40
1
 40
1
 40
1
 10
36.535958
 20
103.142435
 30
0.0
 10
37.901380
 20
102.375846
 30
0.0
 10
40.626813
 20
101.081330
 30
0.0
 10
40.706628
 20
101.161261
 30
0.0
  0
SPLINE
  5
126
100
AcDbEntity
  8
Ebene_1
 62
7
100
AcDbSpline
 70
8
 71
3
 72
8
 73
4
 74
0
 40
0
 40
0
 40
0
 40
0
 40
1
 40
1
 40
1
 40
1
 10
40.706628
 20
101.161261
 30
0.0
 10
40.730423
 20
101.185056
 30
0.0
 10
40.836775
 20
101.631051
 30
0.0
 10
40.943329
 20
102.152755
 30
0.0
  0
SPLINE
  5
127
100
AcDbEntity
  8
Ebene_1
 62
7
100
AcDbSpline
 70
8
 71
3
 72
8
 73
4
 74
0
 40
0
 40
0
 40
0
 40
0
 40
1
 40
1
 40
1
 40
1
 10
40.943329
 20
102.152755
 30
0.0
 10
41.205625
 20
103.436737
 30
0.0
 10
41.456371
 20
104.066664
 30
0.0
 10
42.057396
 20
104.950312
 30
0.0
  0
SPLINE
  5
128
100
AcDbEntity
  8
Ebene_1
 62
7
100
AcDbSpline
 70
8
 71
3
 72
8
 73
4
 74
0
 40
0
 40
0
 40
0
 40
0
 40
1
 40
1
 40
1
 40
1
 10
42.057396
 20
104.950312
 30
0.0
 10
43.687566
 20
107.347027
 30
0.0
 10
47.060671
 20
108.495640
 30
0.0
 10
53.618392
 20
108.886703
 30
0.0
  0
SPLINE
  5
129
100
AcDbEntity
  8
Ebene_1
 62
7
100
AcDbSpline
 70
8
 71
3
 72
8
 73
4
 74
0
 40
0
 40
0
 40
0
 40
0
 40
1
 40
1
 40
1
 40
1
 10
53.618392
 20
108.886703
 30
0.0
 10
55.821976
 20
109.018156
 30
0.0
 10
60.205596
 20
109.129078
 30
0.0
 10
60.205596
 20
109.053341
 30
0.0
  0
SPLINE
  5
12a
100
AcDbEntity
  8
Ebene_1
 62
7
100
AcDbSpline
 70
8
 71
3
 72
8
 73
4
 74
0
 40
0
 40
0
 40
0
 40
0
 40
1
 40
1
 40
1
 40
1
 10
60.205596
 20
109.053341
 30
0.0
 10
60.205596
 20
109.037235
 30
0.0
 10
62.853072
 20
94.277795
 30
0.0
 10
64.762121
 20
83.613273
 30
0.0
  0
LWPOLYLINE
  5
12b
100
AcDbEntity
  8
Ebene_1
 62
7
100
AcDbPolyline
 90
2
 70
0
 10
64.187880
 20
121.005183
 30
0.0
 10
63.155325
 20
120.941633
 30
0.0
  0
SPLINE
  5
12c
100
AcDbEntity
  8
Ebene_1
 62
7
100
AcDbSpline
 70
8
 71
3
 72
8
 73
4
 74
0
 40
0
 40
0
 40
0
 40
0
 40
1
 40
1
 40
1
 40
1
 10
85.733864
 20
83.613273
 30
0.0
 10
88.190806
 20
97.380349
 30
0.0
 10
90.266493
 20
108.991096
 30
0.0
 10
90.282525
 20
109.008667
 30
0.0
  0
SPLINE
  5
12d
100
AcDbEntity
  8
Ebene_1
 62
7
100
AcDbSpline
 70
8
 71
3
 72
8
 73
4
 74
0
 40
0
 40
0
 40
0
 40
0
 40
1
 40
1
 40
1
 40
1
 10
90.282525
 20
109.008667
 30
0.0
 10
90.362470
 20
109.096157
 30
0.0
 10
96.726031
 20
108.929592
 30
0.0
 10
98.256146
 20
108.799750
 30
0.0
  0
SPLINE
  5
12e
100
AcDbEntity
  8
Ebene_1
 62
7
100
AcDbSpline
 70
8
 71
3
 72
8
 73
4
 74
0
 40
0
 40
0
 40
0
 40
0
 40
1
 40
1
 40
1
 40
1
 10
98.256146
 20
108.799750
 30
0.0
 10
105.283338
 20
108.203383
 30
0.0
 10
108.357585
 20
106.600896
 30
0.0
 10
109.398076
 20
102.992672
 30
0.0
  0
SPLINE
  5
12f
100
AcDbEntity
  8
Ebene_1
 62
7
100
AcDbSpline
 70
8
 71
3
 72
8
 73
4
 74
0
 40
0
 40
0
 40
0
 40
0
 40
1
 40
1
 40
1
 40
1
 10
109.398076
 20
102.992672
 30
0.0
 10
109.530254
 20
102.534489
 30
0.0
 10
109.669773
 20
101.925948
 30
0.0
 10
109.708440
 20
101.640090
 30
0.0
  0
SPLINE
  5
130
100
AcDbEntity
  8
Ebene_1
 62
7
100
AcDbSpline
 70
8
 71
3
 72
8
 73
4
 74
0
 40
0
 40
0
 40
0
 40
0
 40
1
 40
1
 40
1
 40
1
 10
109.708440
 20
101.640090
 30
0.0
 10
109.772425
 20
101.167804
 30
0.0
 10
109.798251
 20
101.126047
 30
0.0
 10
109.990439
 20
101.181791
 30
0.0
  0
SPLINE
  5
131
100
AcDbEntity
  8
Ebene_1
 62
7
100
AcDbSpline
 70
8
 71
3
 72
8
 73
4
 74
0
 40
0
 40
0
 40
0
 40
0
 40
1
 40
1
 40
1
 40
1
 10
109.990439
 20
101.181791
 30
0.0
 10
110.456123
 20
101.316871
 30
0.0
 10
113.871449
 20
103.030657
 30
0.0
 10
114.903234
 20
103.647235
 30
0.0
  0
SPLINE
  5
132
100
AcDbEntity
  8
Ebene_1
 62
7
100
AcDbSpline
 70
8
 71
3
 72
8
 73
4
 74
0
 40
0
 40
0
 40
0
 40
0
 40
1
 40
1
 40
1
 40
1
 10
114.903234
 20
103.647235
 30
0.0
 10
118.654780
 20
105.889167
 30
0.0
 10
121.684164
 20
108.500355
 30
0.0
 10
123.616529
 20
111.157116
 30
0.0
  0
LWPOLYLINE
  5
133
100
AcDbEntity
  8
Ebene_1
 62
7
100
AcDbPolyline
 90
2
 70
0
 10
64.762121
 20
83.613273
 30
0.0
 10
85.733864
 20
83.613273
 30
0.0
  0
SPLINE
  5
134
100
AcDbEntity
  8
Ebene_1
 62
7
100
AcDbSpline
 70
8
 71
3
 72
8
 73
4
 74
0
 40
0
 40
0
 40
0
 40
0
 40
1
 40
1
 40
1
 40
1
 10
123.728249
 20
112.037500
 30
0.0
 10
122.903117
 20
112.458438
 30
0.0
 10
119.739466
 20
113.764939
 30
0.0
 10
117.772627
 20
114.496923
 30
0.0
  0
SPLINE
  5
135
100
AcDbEntity
  8
Ebene_1
 62
7
100
AcDbSpline
 70
8
 71
3
 72
8
 73
4
 74
0
 40
0
 40
0
 40
0
 40
0
 40
1
 40
1
 40
1
 40
1
 10
117.772627
 20
114.496923
 30
0.0
 10
109.438759
 20
117.598431
 30
0.0
 10
100.263611
 20
119.712001
 30
0.0
 10
91.127912
 20
120.635491
 30
0.0
  0
SPLINE
  5
136
100
AcDbEntity
  8
Ebene_1
 62
7
100
AcDbSpline
 70
8
 71
3
 72
8
 73
4
 74
0
 40
0
 40
0
 40
0
 40
0
 40
1
 40
1
 40
1
 40
1
 10
91.127912
 20
120.635491
 30
0.0
 10
88.961573
 20
120.854404
 30
0.0
 10
86.481620
 20
121.014570
 30
0.0
 10
86.365460
 20
120.942822
 30
0.0
  0
SPLINE
  5
137
100
AcDbEntity
  8
Ebene_1
 62
7
100
AcDbSpline
 70
8
 71
3
 72
8
 73
4
 74
0
 40
0
 40
0
 40
0
 40
0
 40
1
 40
1
 40
1
 40
1
 10
86.365460
 20
120.942822
 30
0.0
 10
86.309745
 20
120.908291
 30
0.0
 10
83.824278
 20
117.906866
 30
0.0
 10
80.842208
 20
114.272888
 30
0.0
  0
SPLINE
  5
138
100
AcDbEntity
  8
Ebene_1
 62
7
100
AcDbSpline
 70
8
 71
3
 72
8
 73
4
 74
0
 40
0
 40
0
 40
0
 40
0
 40
1
 40
1
 40
1
 40
1
 10
80.842208
 20
114.272888
 30
0.0
 10
77.860182
 20
110.638895
 30
0.0
 10
75.386758
 20
107.628358
 30
0.0
 10
75.345523
 20
107.583017
 30
0.0
  0
SPLINE
  5
139
100
AcDbEntity
  8
Ebene_1
 62
7
100
AcDbSpline
 70
8
 71
3
 72
8
 73
4
 74
0
 40
0
 40
0
 40
0
 40
0
 40
1
 40
1
 40
1
 40
1
 10
75.345523
 20
107.583017
 30
0.0
 10
75.304317
 20
107.537604
 30
0.0
 10
72.776977
 20
110.538608
 30
0.0
 10
69.729253
 20
114.252357
 30
0.0
  0
LWPOLYLINE
  5
13a
100
AcDbEntity
  8
Ebene_1
 62
7
100
AcDbPolyline
 90
3
 70
0
 10
123.616529
 20
111.157116
 30
0.0
 10
124.114104
 20
111.840640
 30
0.0
 10
123.728249
 20
112.037500
 30
0.0
  0
SPLINE
  5
13b
100
AcDbEntity
  8
Ebene_1
 62
7
100
AcDbSpline
 70
8
 71
3
 72
8
 73
4
 74
0
 40
0
 40
0
 40
0
 40
0
 40
1
 40
1
 40
1
 40
1
 10
68.738978
 20
61.412275
 30
0.0
 10
71.906997
 20
43.728454
 30
0.0
 10
75.146661
 20
25.616077
 30
0.0
 10
75.221122
 20
25.223344
 30
0.0
  0
LWPOLYLINE
  5
13c
100
AcDbEntity
  8
Ebene_1
 62
7
100
AcDbPolyline
 90
2
 70
0
 10
69.729253
 20
114.252357
 30
0.0
 10
64.187880
 20
121.005183
 30
0.0
  0
SPLINE
  5
13d
100
AcDbEntity
  8
Ebene_1
 62
7
100
AcDbSpline
 70
8
 71
3
 72
8
 73
4
 74
0
 40
0
 40
0
 40
0
 40
0
 40
1
 40
1
 40
1
 40
1
 10
75.364181
 20
25.321789
 30
0.0
 10
76.400465
 20
31.208914
 30
0.0
 10
79.043268
 20
46.069453
 30
0.0
 10
81.775666
 20
61.412275
 30
0.0
  0
LWPOLYLINE
  5
13e
100
AcDbEntity
  8
Ebene_1
 62
7
100
AcDbPolyline
 90
3
 70
0
 10
75.221122
 20
25.223344
 30
0.0
 10
75.286268
 20
24.879145
 30
0.0
 10
75.364181
 20
25.321789
 30
0.0
  0
LWPOLYLINE
  5
13f
100
AcDbEntity
  8
Ebene_1
 62
7
100
AcDbPolyline
 90
2
 70
0
 10
81.775666
 20
61.412275
 30
0.0
 10
68.738978
 20
61.412275
 30
0.0
  0
SPLINE
  5
140
100
AcDbEntity
  8
Ebene_1
 62
7
100
AcDbSpline
 70
8
 71
3
 72
8
 73
4
 74
0
 40
0
 40
0
 40
0
 40
0
 40
1
 40
1
 40
1
 40
1
 10
17.455860
 20
81.226570
 30
0.0
 10
17.455860
 20
80.150038
 30
0.0
 10
17.849333
 20
79.175767
 30
0.0
 10
18.600716
 20
78.404100
 30
0.0
  0
LWPOLYLINE
  5
141
100
AcDbEntity
  8
Ebene_1
 62
7
100
AcDbPolyline
 90
2
 70
0
 10
17.455860
 20
81.719662
 30
0.0
 10
17.455860
 20
81.226570
 30
0.0
  0
SPLINE
  5
142
100
AcDbEntity
  8
Ebene_1
 62
7
100
AcDbSpline
 70
8
 71
3
 72
8
 73
4
 74
0
 40
0
 40
0
 40
0
 40
0
 40
1
 40
1
 40
1
 40
1
 10
18.606519
 20
78.398296
 30
0.0
 10
19.362762
 20
77.642053
 30
0.0
 10
20.339268
 20
77.247768
 30
0.0
 10
21.431818
 20
77.247768
 30
0.0
  0
LWPOLYLINE
  5
143
100
AcDbEntity
  8
Ebene_1
 62
7
100
AcDbPolyline
 90
3
 70
0
 10
18.600716
 20
78.404100
 30
0.0
 10
18.603617
 20
78.401198
 30
0.0
 10
18.606519
 20
78.398296
 30
0.0
  0
SPLINE
  5
144
100
AcDbEntity
  8
Ebene_1
 62
7
100
AcDbSpline
 70
8
 71
3
 72
8
 73
4
 74
0
 40
0
 40
0
 40
0
 40
0
 40
1
 40
1
 40
1
 40
1
 10
35.368491
 20
77.247768
 30
0.0
 10
36.429077
 20
77.247768
 30
0.0
 10
37.392510
 20
77.645608
 30
0.0
 10
38.162624
 20
78.395467
 30
0.0
  0
SPLINE
  5
145
100
AcDbEntity
  8
Ebene_1
 62
7
100
AcDbSpline
 70
8
 71
3
 72
8
 73
4
 74
0
 40
0
 40
0
 40
0
 40
0
 40
1
 40
1
 40
1
 40
1
 10
38.162624
 20
78.395467
 30
0.0
 10
38.938121
 20
79.150550
 30
0.0
 10
39.347162
 20
80.130843
 30
0.0
 10
39.347162
 20
81.226439
 30
0.0
  0
LWPOLYLINE
  5
146
100
AcDbEntity
  8
Ebene_1
 62
7
100
AcDbPolyline
 90
7
 70
0
 10
21.431818
 20
77.247768
 30
0.0
 10
26.164280
 20
77.247768
 30
0.0
 10
26.164280
 20
63.311110
 30
0.0
 10
26.657358
 20
63.311110
 30
0.0
 10
30.636028
 20
63.311110
 30
0.0
 10
30.636028
 20
77.247768
 30
0.0
 10
35.368491
 20
77.247768
 30
0.0
  0
LWPOLYLINE
  5
147
100
AcDbEntity
  8
Ebene_1
 62
7
100
AcDbPolyline
 90
3
 70
0
 10
39.347162
 20
81.226439
 30
0.0
 10
39.347162
 20
81.719531
 30
0.0
 10
17.455860
 20
81.719662
 30
0.0
  0
SPLINE
  5
148
100
AcDbEntity
  8
Ebene_1
 62
7
100
AcDbSpline
 70
8
 71
3
 72
8
 73
4
 74
0
 40
0
 40
0
 40
0
 40
0
 40
1
 40
1
 40
1
 40
1
 10
40.899954
 20
67.289897
 30
0.0
 10
40.899954
 20
66.213380
 30
0.0
 10
41.296270
 20
65.239094
 30
0.0
 10
42.047653
 20
64.467428
 30
0.0
  0
LWPOLYLINE
  5
149
100
AcDbEntity
  8
Ebene_1
 62
7
100
AcDbPolyline
 90
2
 70
0
 10
40.899954
 20
67.782989
 30
0.0
 10
40.899954
 20
67.289897
 30
0.0
  0
SPLINE
  5
14a
100
AcDbEntity
  8
Ebene_1
 62
7
100
AcDbSpline
 70
8
 71
3
 72
8
 73
4
 74
0
 40
0
 40
0
 40
0
 40
0
 40
1
 40
1
 40
1
 40
1
 10
42.053457
 20
64.464526
 30
0.0
 10
42.809700
 20
63.708268
 30
0.0
 10
43.786206
 20
63.311168
 30
0.0
 10
44.878770
 20
63.311168
 30
0.0
  0
LWPOLYLINE
  5
14b
100
AcDbEntity
  8
Ebene_1
 62
7
100
AcDbPolyline
 90
3
 70
0
 10
42.047653
 20
64.467428
 30
0.0
 10
42.050555
 20
64.464526
 30
0.0
 10
42.053457
 20
64.464526
 30
0.0
  0
SPLINE
  5
14c
100
AcDbEntity
  8
Ebene_1
 62
7
100
AcDbSpline
 70
8
 71
3
 72
8
 73
4
 74
0
 40
0
 40
0
 40
0
 40
0
 40
1
 40
1
 40
1
 40
1
 10
58.815443
 20
63.311168
 30
0.0
 10
59.876029
 20
63.311168
 30
0.0
 10
60.836619
 20
63.708993
 30
0.0
 10
61.606733
 20
64.458853
 30
0.0
  0
SPLINE
  5
14d
100
AcDbEntity
  8
Ebene_1
 62
7
100
AcDbSpline
 70
8
 71
3
 72
8
 73
4
 74
0
 40
0
 40
0
 40
0
 40
0
 40
1
 40
1
 40
1
 40
1
 10
61.606733
 20
64.458853
 30
0.0
 10
62.382229
 20
65.213935
 30
0.0
 10
62.791270
 20
66.194243
 30
0.0
 10
62.791270
 20
67.289825
 30
0.0
  0
LWPOLYLINE
  5
14e
100
AcDbEntity
  8
Ebene_1
 62
7
100
AcDbPolyline
 90
2
 70
0
 10
44.878770
 20
63.311168
 30
0.0
 10
58.815443
 20
63.311168
 30
0.0
  0
LWPOLYLINE
  5
14f
100
AcDbEntity
  8
Ebene_1
 62
7
100
AcDbPolyline
 90
3
 70
0
 10
62.791270
 20
67.289825
 30
0.0
 10
62.791270
 20
67.782916
 30
0.0
 10
40.899954
 20
67.782989
 30
0.0
  0
SPLINE
  5
150
100
AcDbEntity
  8
Ebene_1
 62
7
100
AcDbSpline
 70
8
 71
3
 72
8
 73
4
 74
0
 40
0
 40
0
 40
0
 40
0
 40
1
 40
1
 40
1
 40
1
 10
40.899954
 20
74.258241
 30
0.0
 10
40.899954
 20
73.181709
 30
0.0
 10
41.296270
 20
72.207438
 30
0.0
 10
42.047653
 20
71.435771
 30
0.0
  0
LWPOLYLINE
  5
151
100
AcDbEntity
  8
Ebene_1
 62
7
100
AcDbPolyline
 90
2
 70
0
 10
40.899954
 20
74.751318
 30
0.0
 10
40.899954
 20
74.258241
 30
0.0
  0
SPLINE
  5
152
100
AcDbEntity
  8
Ebene_1
 62
7
100
AcDbSpline
 70
8
 71
3
 72
8
 73
4
 74
0
 40
0
 40
0
 40
0
 40
0
 40
1
 40
1
 40
1
 40
1
 10
42.053457
 20
71.432869
 30
0.0
 10
42.809700
 20
70.676626
 30
0.0
 10
43.786206
 20
70.279512
 30
0.0
 10
44.878770
 20
70.279512
 30
0.0
  0
LWPOLYLINE
  5
153
100
AcDbEntity
  8
Ebene_1
 62
7
100
AcDbPolyline
 90
3
 70
0
 10
42.047653
 20
71.435771
 30
0.0
 10
42.050555
 20
71.432869
 30
0.0
 10
42.053457
 20
71.432869
 30
0.0
  0
SPLINE
  5
154
100
AcDbEntity
  8
Ebene_1
 62
7
100
AcDbSpline
 70
8
 71
3
 72
8
 73
4
 74
0
 40
0
 40
0
 40
0
 40
0
 40
1
 40
1
 40
1
 40
1
 10
58.815443
 20
70.279512
 30
0.0
 10
59.876029
 20
70.279512
 30
0.0
 10
60.836619
 20
70.677351
 30
0.0
 10
61.606733
 20
71.427211
 30
0.0
  0
SPLINE
  5
155
100
AcDbEntity
  8
Ebene_1
 62
7
100
AcDbSpline
 70
8
 71
3
 72
8
 73
4
 74
0
 40
0
 40
0
 40
0
 40
0
 40
1
 40
1
 40
1
 40
1
 10
61.606733
 20
71.427211
 30
0.0
 10
62.382229
 20
72.182293
 30
0.0
 10
62.791270
 20
73.162586
 30
0.0
 10
62.791270
 20
74.258183
 30
0.0
  0
LWPOLYLINE
  5
156
100
AcDbEntity
  8
Ebene_1
 62
7
100
AcDbPolyline
 90
2
 70
0
 10
44.878770
 20
70.279512
 30
0.0
 10
58.815443
 20
70.279512
 30
0.0
  0
LWPOLYLINE
  5
157
100
AcDbEntity
  8
Ebene_1
 62
7
100
AcDbPolyline
 90
3
 70
0
 10
62.791270
 20
74.258183
 30
0.0
 10
62.791270
 20
74.751260
 30
0.0
 10
40.899954
 20
74.751318
 30
0.0
  0
SPLINE
  5
158
100
AcDbEntity
  8
Ebene_1
 62
7
100
AcDbSpline
 70
8
 71
3
 72
8
 73
4
 74
0
 40
0
 40
0
 40
0
 40
0
 40
1
 40
1
 40
1
 40
1
 10
40.899954
 20
81.226570
 30
0.0
 10
40.899954
 20
80.150038
 30
0.0
 10
41.296270
 20
79.175767
 30
0.0
 10
42.047653
 20
78.404100
 30
0.0
  0
LWPOLYLINE
  5
159
100
AcDbEntity
  8
Ebene_1
 62
7
100
AcDbPolyline
 90
2
 70
0
 10
40.899954
 20
81.719662
 30
0.0
 10
40.899954
 20
81.226570
 30
0.0
  0
SPLINE
  5
15a
100
AcDbEntity
  8
Ebene_1
 62
7
100
AcDbSpline
 70
8
 71
3
 72
8
 73
4
 74
0
 40
0
 40
0
 40
0
 40
0
 40
1
 40
1
 40
1
 40
1
 10
42.053457
 20
78.398296
 30
0.0
 10
42.809700
 20
77.642053
 30
0.0
 10
43.786206
 20
77.247768
 30
0.0
 10
44.878770
 20
77.247768
 30
0.0
  0
LWPOLYLINE
  5
15b
100
AcDbEntity
  8
Ebene_1
 62
7
100
AcDbPolyline
 90
3
 70
0
 10
42.047653
 20
78.404100
 30
0.0
 10
42.050555
 20
78.401198
 30
0.0
 10
42.053457
 20
78.398296
 30
0.0
  0
SPLINE
  5
15c
100
AcDbEntity
  8
Ebene_1
 62
7
100
AcDbSpline
 70
8
 71
3
 72
8
 73
4
 74
0
 40
0
 40
0
 40
0
 40
0
 40
1
 40
1
 40
1
 40
1
 10
58.815443
 20
77.247768
 30
0.0
 10
59.876029
 20
77.247768
 30
0.0
 10
60.836619
 20
77.645608
 30
0.0
 10
61.606733
 20
78.395467
 30
0.0
  0
SPLINE
  5
15d
100
AcDbEntity
  8
Ebene_1
 62
7
100
AcDbSpline
 70
8
 71
3
 72
8
 73
4
 74
0
 40
0
 40
0
 40
0
 40
0
 40
1
 40
1
 40
1
 40
1
 10
61.606733
 20
78.395467
 30
0.0
 10
62.382229
 20
79.150550
 30
0.0
 10
62.791270
 20
80.130843
 30
0.0
 10
62.791270
 20
81.226439
 30
0.0
  0
LWPOLYLINE
  5
15e
100
AcDbEntity
  8
Ebene_1
 62
7
100
AcDbPolyline
 90
2
 70
0
 10
44.878770
 20
77.247768
 30
0.0
 10
58.815443
 20
77.247768
 30
0.0
  0
LWPOLYLINE
  5
15f
100
AcDbEntity
  8
Ebene_1
 62
7
100
AcDbPolyline
 90
3
 70
0
 10
62.791270
 20
81.226439
 30
0.0
 10
62.791270
 20
81.719531
 30
0.0
 10
40.899954
 20
81.719662
 30
0.0
  0
SPLINE
  5
160
100
AcDbEntity
  8
Ebene_1
 62
7
100
AcDbSpline
 70
8
 71
3
 72
8
 73
4
 74
0
 40
0
 40
0
 40
0
 40
0
 40
1
 40
1
 40
1
 40
1
 10
68.322719
 20
67.782989
 30
0.0
 10
67.243083
 20
67.782989
 30
0.0
 10
66.268042
 20
67.374746
 30
0.0
 10
65.497406
 20
66.604125
 30
0.0
  0
SPLINE
  5
161
100
AcDbEntity
  8
Ebene_1
 62
7
100
AcDbSpline
 70
8
 71
3
 72
8
 73
4
 74
0
 40
0
 40
0
 40
0
 40
0
 40
1
 40
1
 40
1
 40
1
 10
65.497406
 20
66.604125
 30
0.0
 10
64.742729
 20
65.849448
 30
0.0
 10
64.346892
 20
64.880850
 30
0.0
 10
64.346892
 20
63.804318
 30
0.0
  0
LWPOLYLINE
  5
162
100
AcDbEntity
  8
Ebene_1
 62
7
100
AcDbPolyline
 90
5
 70
0
 10
64.346892
 20
81.719662
 30
0.0
 10
64.346892
 20
70.279570
 30
0.0
 10
81.766315
 20
70.279570
 30
0.0
 10
81.766315
 20
67.782989
 30
0.0
 10
68.322719
 20
67.782989
 30
0.0
  0
SPLINE
  5
163
100
AcDbEntity
  8
Ebene_1
 62
7
100
AcDbSpline
 70
8
 71
3
 72
8
 73
4
 74
0
 40
0
 40
0
 40
0
 40
0
 40
1
 40
1
 40
1
 40
1
 10
82.259392
 20
77.247899
 30
0.0
 10
83.319978
 20
77.247899
 30
0.0
 10
84.283411
 20
77.645738
 30
0.0
 10
85.053525
 20
78.395598
 30
0.0
  0
SPLINE
  5
164
100
AcDbEntity
  8
Ebene_1
 62
7
100
AcDbSpline
 70
8
 71
3
 72
8
 73
4
 74
0
 40
0
 40
0
 40
0
 40
0
 40
1
 40
1
 40
1
 40
1
 10
85.053525
 20
78.395598
 30
0.0
 10
85.829022
 20
79.150680
 30
0.0
 10
86.235219
 20
80.130973
 30
0.0
 10
86.235219
 20
81.226570
 30
0.0
  0
LWPOLYLINE
  5
165
100
AcDbEntity
  8
Ebene_1
 62
7
100
AcDbPolyline
 90
8
 70
0
 10
64.346892
 20
63.804318
 30
0.0
 10
64.346892
 20
63.311241
 30
0.0
 10
64.839969
 20
63.311241
 30
0.0
 10
86.235219
 20
63.311241
 30
0.0
 10
86.235219
 20
74.751318
 30
0.0
 10
68.815797
 20
74.751318
 30
0.0
 10
68.815797
 20
77.247899
 30
0.0
 10
82.259392
 20
77.247899
 30
0.0
  0
LWPOLYLINE
  5
166
100
AcDbEntity
  8
Ebene_1
 62
7
100
AcDbPolyline
 90
3
 70
0
 10
86.235219
 20
81.226570
 30
0.0
 10
86.235219
 20
81.719662
 30
0.0
 10
64.346892
 20
81.719662
 30
0.0
  0
SPLINE
  5
167
100
AcDbEntity
  8
Ebene_1
 62
7
100
AcDbSpline
 70
8
 71
3
 72
8
 73
4
 74
0
 40
0
 40
0
 40
0
 40
0
 40
1
 40
1
 40
1
 40
1
 10
105.703486
 20
63.311241
 30
0.0
 10
106.764086
 20
63.311241
 30
0.0
 10
107.727505
 20
63.709066
 30
0.0
 10
108.497619
 20
64.458925
 30
0.0
  0
SPLINE
  5
168
100
AcDbEntity
  8
Ebene_1
 62
7
100
AcDbSpline
 70
8
 71
3
 72
8
 73
4
 74
0
 40
0
 40
0
 40
0
 40
0
 40
1
 40
1
 40
1
 40
1
 10
108.497619
 20
64.458925
 30
0.0
 10
109.273102
 20
65.214008
 30
0.0
 10
109.682157
 20
66.194315
 30
0.0
 10
109.682157
 20
67.289897
 30
0.0
  0
LWPOLYLINE
  5
169
100
AcDbEntity
  8
Ebene_1
 62
7
100
AcDbPolyline
 90
4
 70
0
 10
87.790986
 20
81.719662
 30
0.0
 10
87.790986
 20
63.311241
 30
0.0
 10
88.284063
 20
63.311241
 30
0.0
 10
105.703486
 20
63.311241
 30
0.0
  0
LWPOLYLINE
  5
16a
100
AcDbEntity
  8
Ebene_1
 62
7
100
AcDbPolyline
 90
5
 70
0
 10
109.682157
 20
67.289897
 30
0.0
 10
109.682157
 20
67.782989
 30
0.0
 10
92.262734
 20
67.782989
 30
0.0
 10
92.262734
 20
81.719662
 30
0.0
 10
87.790986
 20
81.719662
 30
0.0
  0
LWPOLYLINE
  5
16b
100
AcDbEntity
  8
Ebene_1
 62
7
100
AcDbPolyline
 90
9
 70
1
 10
111.237924
 20
74.751318
 30
0.0
 10
111.237924
 20
63.311241
 30
0.0
 10
111.731001
 20
63.311241
 30
0.0
 10
115.706828
 20
63.311241
 30
0.0
 10
115.706828
 20
70.279570
 30
0.0
 10
128.657346
 20
70.279570
 30
0.0
 10
128.657346
 20
63.311241
 30
0.0
 10
133.126251
 20
63.311241
 30
0.0
 10
133.126251
 20
74.751318
 30
0.0
  0
SPLINE
  5
16c
100
AcDbEntity
  8
Ebene_1
 62
7
100
AcDbSpline
 70
8
 71
3
 72
8
 73
4
 74
0
 40
0
 40
0
 40
0
 40
0
 40
1
 40
1
 40
1
 40
1
 10
111.237924
 20
81.226570
 30
0.0
 10
111.237924
 20
80.150038
 30
0.0
 10
111.631396
 20
79.175767
 30
0.0
 10
112.382779
 20
78.404100
 30
0.0
  0
LWPOLYLINE
  5
16d
100
AcDbEntity
  8
Ebene_1
 62
7
100
AcDbPolyline
 90
2
 70
0
 10
111.237924
 20
81.719662
 30
0.0
 10
111.237924
 20
81.226570
 30
0.0
  0
SPLINE
  5
16e
100
AcDbEntity
  8
Ebene_1
 62
7
100
AcDbSpline
 70
8
 71
3
 72
8
 73
4
 74
0
 40
0
 40
0
 40
0
 40
0
 40
1
 40
1
 40
1
 40
1
 10
112.388583
 20
78.398296
 30
0.0
 10
113.144826
 20
77.642053
 30
0.0
 10
114.121346
 20
77.247768
 30
0.0
 10
115.213896
 20
77.247768
 30
0.0
  0
LWPOLYLINE
  5
16f
100
AcDbEntity
  8
Ebene_1
 62
7
100
AcDbPolyline
 90
3
 70
0
 10
112.382779
 20
78.404100
 30
0.0
 10
112.385681
 20
78.401198
 30
0.0
 10
112.388583
 20
78.398296
 30
0.0
  0
SPLINE
  5
170
100
AcDbEntity
  8
Ebene_1
 62
7
100
AcDbSpline
 70
8
 71
3
 72
8
 73
4
 74
0
 40
0
 40
0
 40
0
 40
0
 40
1
 40
1
 40
1
 40
1
 10
129.150569
 20
77.247768
 30
0.0
 10
130.211169
 20
77.247768
 30
0.0
 10
131.174573
 20
77.645608
 30
0.0
 10
131.944702
 20
78.395467
 30
0.0
  0
SPLINE
  5
171
100
AcDbEntity
  8
Ebene_1
 62
7
100
AcDbSpline
 70
8
 71
3
 72
8
 73
4
 74
0
 40
0
 40
0
 40
0
 40
0
 40
1
 40
1
 40
1
 40
1
 10
131.944702
 20
78.395467
 30
0.0
 10
132.720199
 20
79.150550
 30
0.0
 10
133.126396
 20
80.130843
 30
0.0
 10
133.126396
 20
81.226439
 30
0.0
  0
LWPOLYLINE
  5
172
100
AcDbEntity
  8
Ebene_1
 62
7
100
AcDbPolyline
 90
2
 70
0
 10
115.213896
 20
77.247768
 30
0.0
 10
129.150569
 20
77.247768
 30
0.0
  0
LWPOLYLINE
  5
173
100
AcDbEntity
  8
Ebene_1
 62
7
100
AcDbPolyline
 90
3
 70
0
 10
133.126396
 20
81.226439
 30
0.0
 10
133.126396
 20
81.719531
 30
0.0
 10
111.237924
 20
81.719662
 30
0.0
  0
SPLINE
  5
174
100
AcDbEntity
  8
Ebene_1
 62
7
100
AcDbSpline
 70
8
 71
3
 72
8
 73
4
 74
0
 40
0
 40
0
 40
0
 40
0
 40
1
 40
1
 40
1
 40
1
 10
35.562731
 20
285.265284
 30
0.0
 10
21.463107
 20
285.265284
 30
0.0
 10
10.024742
 20
273.824685
 30
0.0
 10
10.024742
 20
259.725046
 30
0.0
  0
LWPOLYLINE
  5
175
100
AcDbEntity
  8
Ebene_1
 62
7
100
AcDbPolyline
 90
4
 70
1
 10
5.290988
 20
289.997935
 30
0.0
 10
145.291268
 20
289.997935
 30
0.0
 10
145.291268
 20
149.997627
 30
0.0
 10
5.290988
 20
149.997627
 30
0.0
  0
SPLINE
  5
176
100
AcDbEntity
  8
Ebene_1
 62
7
100
AcDbSpline
 70
8
 71
3
 72
8
 73
4
 74
0
 40
0
 40
0
 40
0
 40
0
 40
1
 40
1
 40
1
 40
1
 10
10.024742
 20
180.270530
 30
0.0
 10
10.024742
 20
166.170891
 30
0.0
 10
21.463107
 20
154.730277
 30
0.0
 10
35.562731
 20
154.730277
 30
0.0
  0
LWPOLYLINE
  5
177
100
AcDbEntity
  8
Ebene_1
 62
7
100
AcDbPolyline
 90
2
 70
0
 10
10.024742
 20
259.725046
 30
0.0
 10
10.024742
 20
180.270530
 30
0.0
  0
SPLINE
  5
178
100
AcDbEntity
  8
Ebene_1
 62
7
100
AcDbSpline
 70
8
 71
3
 72
8
 73
4
 74
0
 40
0
 40
0
 40
0
 40
0
 40
1
 40
1
 40
1
 40
1
 10
115.019525
 20
154.730277
 30
0.0
 10
129.119164
 20
154.730277
 30
0.0
 10
140.557514
 20
166.170891
 30
0.0
 10
140.557514
 20
180.270530
 30
0.0
  0
LWPOLYLINE
  5
179
100
AcDbEntity
  8
Ebene_1
 62
7
100
AcDbPolyline
 90
2
 70
0
 10
35.562731
 20
154.730277
 30
0.0
 10
115.019525
 20
154.730277
 30
0.0
  0
SPLINE
  5
17a
100
AcDbEntity
  8
Ebene_1
 62
7
100
AcDbSpline
 70
8
 71
3
 72
8
 73
4
 74
0
 40
0
 40
0
 40
0
 40
0
 40
1
 40
1
 40
1
 40
1
 10
140.557514
 20
259.725046
 30
0.0
 10
140.557514
 20
273.824685
 30
0.0
 10
129.119164
 20
285.265284
 30
0.0
 10
115.019525
 20
285.265284
 30
0.0
  0
LWPOLYLINE
  5
17b
100
AcDbEntity
  8
Ebene_1
 62
7
100
AcDbPolyline
 90
2
 70
0
 10
140.557514
 20
180.270530
 30
0.0
 10
140.557514
 20
259.725046
 30
0.0
  0
LWPOLYLINE
  5
17c
100
AcDbEntity
  8
Ebene_1
 62
7
100
AcDbPolyline
 90
2
 70
0
 10
115.019525
 20
285.265284
 30
0.0
 10
35.562731
 20
285.265284
 30
0.0
  0
SPLINE
  5
17d
100
AcDbEntity
  8
Ebene_1
 62
7
100
AcDbSpline
 70
8
 71
3
 72
8
 73
4
 74
0
 40
0
 40
0
 40
0
 40
0
 40
1
 40
1
 40
1
 40
1
 10
115.019525
 20
279.588686
 30
0.0
 10
126.073152
 20
279.588686
 30
0.0
 10
134.883150
 20
270.778702
 30
0.0
 10
134.883150
 20
259.725046
 30
0.0
  0
LWPOLYLINE
  5
17e
100
AcDbEntity
  8
Ebene_1
 62
7
100
AcDbPolyline
 90
2
 70
0
 10
35.562731
 20
279.588686
 30
0.0
 10
115.019525
 20
279.588686
 30
0.0
  0
SPLINE
  5
17f
100
AcDbEntity
  8
Ebene_1
 62
7
100
AcDbSpline
 70
8
 71
3
 72
8
 73
4
 74
0
 40
0
 40
0
 40
0
 40
0
 40
1
 40
1
 40
1
 40
1
 10
134.883150
 20
180.270530
 30
0.0
 10
134.883150
 20
169.216859
 30
0.0
 10
126.073152
 20
160.406890
 30
0.0
 10
115.019525
 20
160.406890
 30
0.0
  0
LWPOLYLINE
  5
180
100
AcDbEntity
  8
Ebene_1
 62
7
100
AcDbPolyline
 90
2
 70
0
 10
134.883150
 20
259.725046
 30
0.0
 10
134.883150
 20
180.270530
 30
0.0
  0
SPLINE
  5
181
100
AcDbEntity
  8
Ebene_1
 62
7
100
AcDbSpline
 70
8
 71
3
 72
8
 73
4
 74
0
 40
0
 40
0
 40
0
 40
0
 40
1
 40
1
 40
1
 40
1
 10
35.562731
 20
160.406890
 30
0.0
 10
24.509089
 20
160.406890
 30
0.0
 10
15.699091
 20
169.216859
 30
0.0
 10
15.699091
 20
180.270530
 30
0.0
  0
LWPOLYLINE
  5
182
100
AcDbEntity
  8
Ebene_1
 62
7
100
AcDbPolyline
 90
2
 70
0
 10
115.019525
 20
160.406890
 30
0.0
 10
35.562731
 20
160.406890
 30
0.0
  0
SPLINE
  5
183
100
AcDbEntity
  8
Ebene_1
 62
7
100
AcDbSpline
 70
8
 71
3
 72
8
 73
4
 74
0
 40
0
 40
0
 40
0
 40
0
 40
1
 40
1
 40
1
 40
1
 10
15.699091
 20
259.725046
 30
0.0
 10
15.699091
 20
270.778702
 30
0.0
 10
24.509089
 20
279.588686
 30
0.0
 10
35.562731
 20
279.588686
 30
0.0
  0
LWPOLYLINE
  5
184
100
AcDbEntity
  8
Ebene_1
 62
7
100
AcDbPolyline
 90
2
 70
0
 10
15.699091
 20
180.270530
 30
0.0
 10
15.699091
 20
259.725046
 30
0.0
  0
SPLINE
  5
185
100
AcDbEntity
  8
Ebene_1
 62
7
100
AcDbSpline
 70
8
 71
3
 72
8
 73
4
 74
0
 40
0
 40
0
 40
0
 40
0
 40
1
 40
1
 40
1
 40
1
 10
74.636013
 20
271.340582
 30
0.0
 10
58.860965
 20
271.252511
 30
0.0
 10
42.665139
 20
268.425210
 30
0.0
 10
27.317239
 20
263.031234
 30
0.0
  0
SPLINE
  5
186
100
AcDbEntity
  8
Ebene_1
 62
7
100
AcDbSpline
 70
8
 71
3
 72
8
 73
4
 74
0
 40
0
 40
0
 40
0
 40
0
 40
1
 40
1
 40
1
 40
1
 10
27.317239
 20
263.031234
 30
0.0
 10
25.302244
 20
262.323089
 30
0.0
 10
21.864893
 20
261.024263
 30
0.0
 10
21.779492
 20
260.938950
 30
0.0
  0
SPLINE
  5
187
100
AcDbEntity
  8
Ebene_1
 62
7
100
AcDbSpline
 70
8
 71
3
 72
8
 73
4
 74
0
 40
0
 40
0
 40
0
 40
0
 40
1
 40
1
 40
1
 40
1
 10
21.779492
 20
260.938950
 30
0.0
 10
21.696210
 20
260.855667
 30
0.0
 10
22.241375
 20
259.628256
 30
0.0
 10
23.412245
 20
257.265840
 30
0.0
  0
SPLINE
  5
188
100
AcDbEntity
  8
Ebene_1
 62
7
100
AcDbSpline
 70
8
 71
3
 72
8
 73
4
 74
0
 40
0
 40
0
 40
0
 40
0
 40
1
 40
1
 40
1
 40
1
 10
23.412245
 20
257.265840
 30
0.0
 10
24.038052
 20
256.003157
 30
0.0
 10
24.606997
 20
254.948403
 30
0.0
 10
24.676060
 20
254.921779
 30
0.0
  0
SPLINE
  5
189
100
AcDbEntity
  8
Ebene_1
 62
7
100
AcDbSpline
 70
8
 71
3
 72
8
 73
4
 74
0
 40
0
 40
0
 40
0
 40
0
 40
1
 40
1
 40
1
 40
1
 10
24.676060
 20
254.921779
 30
0.0
 10
24.745123
 20
254.895228
 30
0.0
 10
25.544372
 20
255.183204
 30
0.0
 10
26.452540
 20
255.561224
 30
0.0
  0
SPLINE
  5
18a
100
AcDbEntity
  8
Ebene_1
 62
7
100
AcDbSpline
 70
8
 71
3
 72
8
 73
4
 74
0
 40
0
 40
0
 40
0
 40
0
 40
1
 40
1
 40
1
 40
1
 10
26.452540
 20
255.561224
 30
0.0
 10
39.634086
 20
261.048305
 30
0.0
 10
53.349727
 20
264.086554
 30
0.0
 10
68.257726
 20
264.821599
 30
0.0
  0
SPLINE
  5
18b
100
AcDbEntity
  8
Ebene_1
 62
7
100
AcDbSpline
 70
8
 71
3
 72
8
 73
4
 74
0
 40
0
 40
0
 40
0
 40
0
 40
1
 40
1
 40
1
 40
1
 10
68.257726
 20
264.821599
 30
0.0
 10
72.559601
 20
265.033722
 30
0.0
 10
81.443668
 20
264.932014
 30
0.0
 10
85.719964
 20
264.621722
 30
0.0
  0
SPLINE
  5
18c
100
AcDbEntity
  8
Ebene_1
 62
7
100
AcDbSpline
 70
8
 71
3
 72
8
 73
4
 74
0
 40
0
 40
0
 40
0
 40
0
 40
1
 40
1
 40
1
 40
1
 10
85.719964
 20
264.621722
 30
0.0
 10
99.030221
 20
263.656257
 30
0.0
 10
112.371846
 20
260.504649
 30
0.0
 10
124.114699
 20
255.552156
 30
0.0
  0
SPLINE
  5
18d
100
AcDbEntity
  8
Ebene_1
 62
7
100
AcDbSpline
 70
8
 71
3
 72
8
 73
4
 74
0
 40
0
 40
0
 40
0
 40
0
 40
1
 40
1
 40
1
 40
1
 10
124.114699
 20
255.552156
 30
0.0
 10
125.061041
 20
255.153054
 30
0.0
 10
125.865382
 20
254.852411
 30
0.0
 10
125.902641
 20
254.883722
 30
0.0
  0
SPLINE
  5
18e
100
AcDbEntity
  8
Ebene_1
 62
7
100
AcDbSpline
 70
8
 71
3
 72
8
 73
4
 74
0
 40
0
 40
0
 40
0
 40
0
 40
1
 40
1
 40
1
 40
1
 10
125.902641
 20
254.883722
 30
0.0
 10
126.180215
 20
255.117376
 30
0.0
 10
128.919736
 20
260.835950
 30
0.0
 10
128.807697
 20
260.948018
 30
0.0
  0
SPLINE
  5
18f
100
AcDbEntity
  8
Ebene_1
 62
7
100
AcDbSpline
 70
8
 71
3
 72
8
 73
4
 74
0
 40
0
 40
0
 40
0
 40
0
 40
1
 40
1
 40
1
 40
1
 10
128.807697
 20
260.948018
 30
0.0
 10
128.786368
 20
260.969346
 30
0.0
 10
127.934089
 20
261.302098
 30
0.0
 10
126.914056
 20
261.687097
 30
0.0
  0
SPLINE
  5
190
100
AcDbEntity
  8
Ebene_1
 62
7
100
AcDbSpline
 70
8
 71
3
 72
8
 73
4
 74
0
 40
0
 40
0
 40
0
 40
0
 40
1
 40
1
 40
1
 40
1
 10
126.914056
 20
261.687097
 30
0.0
 10
113.213766
 20
266.858604
 30
0.0
 10
99.754965
 20
269.870766
 30
0.0
 10
85.474195
 20
270.961981
 30
0.0
  0
SPLINE
  5
191
100
AcDbEntity
  8
Ebene_1
 62
7
100
AcDbSpline
 70
8
 71
3
 72
8
 73
4
 74
0
 40
0
 40
0
 40
0
 40
0
 40
1
 40
1
 40
1
 40
1
 10
85.474195
 20
270.961981
 30
0.0
 10
81.894190
 20
271.235550
 30
0.0
 10
78.276404
 20
271.360923
 30
0.0
 10
74.636013
 20
271.340582
 30
0.0
  0
LWPOLYLINE
  5
192
100
AcDbEntity
  8
Ebene_1
 62
7
100
AcDbPolyline
 90
1
 70
1
 10
35.562731
 20
279.588686
 30
0.0
  0
LWPOLYLINE
  5
193
100
AcDbEntity
  8
Ebene_1
 62
7
100
AcDbPolyline
 90
1
 70
1
 10
74.636013
 20
271.340582
 30
0.0
  0
SPLINE
  5
194
100
AcDbEntity
  8
Ebene_1
 62
7
100
AcDbSpline
 70
8
 71
3
 72
8
 73
4
 74
0
 40
0
 40
0
 40
0
 40
0
 40
1
 40
1
 40
1
 40
1
 10
63.155325
 20
260.940633
 30
0.0
 10
51.591195
 20
260.228903
 30
0.0
 10
38.705692
 20
257.213883
 30
0.0
 10
28.792393
 20
252.901198
 30
0.0
  0
SPLINE
  5
195
100
AcDbEntity
  8
Ebene_1
 62
7
100
AcDbSpline
 70
8
 71
3
 72
8
 73
4
 74
0
 40
0
 40
0
 40
0
 40
0
 40
1
 40
1
 40
1
 40
1
 10
28.792393
 20
252.901198
 30
0.0
 10
27.927158
 20
252.524789
 30
0.0
 10
27.053246
 20
252.148176
 30
0.0
 10
26.850466
 20
252.064270
 30
0.0
  0
SPLINE
  5
196
100
AcDbEntity
  8
Ebene_1
 62
7
100
AcDbSpline
 70
8
 71
3
 72
8
 73
4
 74
0
 40
0
 40
0
 40
0
 40
0
 40
1
 40
1
 40
1
 40
1
 10
26.850466
 20
252.064270
 30
0.0
 10
26.647702
 20
251.980407
 30
0.0
 10
26.481515
 20
251.876754
 30
0.0
 10
26.481515
 20
251.834228
 30
0.0
  0
SPLINE
  5
197
100
AcDbEntity
  8
Ebene_1
 62
7
100
AcDbSpline
 70
8
 71
3
 72
8
 73
4
 74
0
 40
0
 40
0
 40
0
 40
0
 40
1
 40
1
 40
1
 40
1
 10
26.481515
 20
251.834228
 30
0.0
 10
26.481515
 20
251.791717
 30
0.0
 10
26.743767
 20
251.409286
 30
0.0
 10
27.064215
 20
250.984024
 30
0.0
  0
SPLINE
  5
198
100
AcDbEntity
  8
Ebene_1
 62
7
100
AcDbSpline
 70
8
 71
3
 72
8
 73
4
 74
0
 40
0
 40
0
 40
0
 40
0
 40
1
 40
1
 40
1
 40
1
 10
27.064215
 20
250.984024
 30
0.0
 10
29.245411
 20
248.089372
 30
0.0
 10
32.451893
 20
245.434279
 30
0.0
 10
36.535958
 20
243.141435
 30
0.0
  0
SPLINE
  5
199
100
AcDbEntity
  8
Ebene_1
 62
7
100
AcDbSpline
 70
8
 71
3
 72
8
 73
4
 74
0
 40
0
 40
0
 40
0
 40
0
 40
1
 40
1
 40
1
 40
1
 10
36.535958
 20
243.141435
 30
0.0
 10
37.901380
 20
242.374846
 30
0.0
 10
40.626813
 20
241.080330
 30
0.0
 10
40.706628
 20
241.160261
 30
0.0
  0
SPLINE
  5
19a
100
AcDbEntity
  8
Ebene_1
 62
7
100
AcDbSpline
 70
8
 71
3
 72
8
 73
4
 74
0
 40
0
 40
0
 40
0
 40
0
 40
1
 40
1
 40
1
 40
1
 10
40.706628
 20
241.160261
 30
0.0
 10
40.730423
 20
241.184056
 30
0.0
 10
40.836775
 20
241.630051
 30
0.0
 10
40.943329
 20
242.151755
 30
0.0
  0
SPLINE
  5
19b
100
AcDbEntity
  8
Ebene_1
 62
7
100
AcDbSpline
 70
8
 71
3
 72
8
 73
4
 74
0
 40
0
 40
0
 40
0
 40
0
 40
1
 40
1
 40
1
 40
1
 10
40.943329
 20
242.151755
 30
0.0
 10
41.205625
 20
243.435737
 30
0.0
 10
41.456371
 20
244.065664
 30
0.0
 10
42.057396
 20
244.949312
 30
0.0
  0
SPLINE
  5
19c
100
AcDbEntity
  8
Ebene_1
 62
7
100
AcDbSpline
 70
8
 71
3
 72
8
 73
4
 74
0
 40
0
 40
0
 40
0
 40
0
 40
1
 40
1
 40
1
 40
1
 10
42.057396
 20
244.949312
 30
0.0
 10
43.687566
 20
247.346027
 30
0.0
 10
47.060671
 20
248.494640
 30
0.0
 10
53.618392
 20
248.885703
 30
0.0
  0
SPLINE
  5
19d
100
AcDbEntity
  8
Ebene_1
 62
7
100
AcDbSpline
 70
8
 71
3
 72
8
 73
4
 74
0
 40
0
 40
0
 40
0
 40
0
 40
1
 40
1
 40
1
 40
1
 10
53.618392
 20
248.885703
 30
0.0
 10
55.821976
 20
249.017156
 30
0.0
 10
60.205596
 20
249.128078
 30
0.0
 10
60.205596
 20
249.052341
 30
0.0
  0
SPLINE
  5
19e
100
AcDbEntity
  8
Ebene_1
 62
7
100
AcDbSpline
 70
8
 71
3
 72
8
 73
4
 74
0
 40
0
 40
0
 40
0
 40
0
 40
1
 40
1
 40
1
 40
1
 10
60.205596
 20
249.052341
 30
0.0
 10
60.205596
 20
249.036235
 30
0.0
 10
62.853072
 20
234.276795
 30
0.0
 10
64.762121
 20
223.612273
 30
0.0
  0
LWPOLYLINE
  5
19f
100
AcDbEntity
  8
Ebene_1
 62
7
100
AcDbPolyline
 90
2
 70
0
 10
64.187880
 20
261.004183
 30
0.0
 10
63.155325
 20
260.940633
 30
0.0
  0
SPLINE
  5
1a0
100
AcDbEntity
  8
Ebene_1
 62
7
100
AcDbSpline
 70
8
 71
3
 72
8
 73
4
 74
0
 40
0
 40
0
 40
0
 40
0
 40
1
 40
1
 40
1
 40
1
 10
85.733864
 20
223.612273
 30
0.0
 10
88.190806
 20
237.379349
 30
0.0
 10
90.266493
 20
248.990096
 30
0.0
 10
90.282525
 20
249.007667
 30
0.0
  0
SPLINE
  5
1a1
100
AcDbEntity
  8
Ebene_1
 62
7
100
AcDbSpline
 70
8
 71
3
 72
8
 73
4
 74
0
 40
0
 40
0
 40
0
 40
0
 40
1
 40
1
 40
1
 40
1
 10
90.282525
 20
249.007667
 30
0.0
 10
90.362470
 20
249.095157
 30
0.0
 10
96.726031
 20
248.928592
 30
0.0
 10
98.256146
 20
248.798750
 30
0.0
  0
SPLINE
  5
1a2
100
AcDbEntity
  8
Ebene_1
 62
7
100
AcDbSpline
 70
8
 71
3
 72
8
 73
4
 74
0
 40
0
 40
0
 40
0
 40
0
 40
1
 40
1
 40
1
 40
1
 10
98.256146
 20
248.798750
 30
0.0
 10
105.283338
 20
248.202383
 30
0.0
 10
108.357585
 20
246.599896
 30
0.0
 10
109.398076
 20
242.991672
 30
0.0
  0
SPLINE
  5
1a3
100
AcDbEntity
  8
Ebene_1
 62
7
100
AcDbSpline
 70
8
 71
3
 72
8
 73
4
 74
0
 40
0
 40
0
 40
0
 40
0
 40
1
 40
1
 40
1
 40
1
 10
109.398076
 20
242.991672
 30
0.0
 10
109.530254
 20
242.533489
 30
0.0
 10
109.669773
 20
241.924948
 30
0.0
 10
109.708440
 20
241.639090
 30
0.0
  0
SPLINE
  5
1a4
100
AcDbEntity
  8
Ebene_1
 62
7
100
AcDbSpline
 70
8
 71
3
 72
8
 73
4
 74
0
 40
0
 40
0
 40
0
 40
0
 40
1
 40
1
 40
1
 40
1
 10
109.708440
 20
241.639090
 30
0.0
 10
109.772425
 20
241.166804
 30
0.0
 10
109.798251
 20
241.125047
 30
0.0
 10
109.990439
 20
241.180791
 30
0.0
  0
SPLINE
  5
1a5
100
AcDbEntity
  8
Ebene_1
 62
7
100
AcDbSpline
 70
8
 71
3
 72
8
 73
4
 74
0
 40
0
 40
0
 40
0
 40
0
 40
1
 40
1
 40
1
 40
1
 10
109.990439
 20
241.180791
 30
0.0
 10
110.456123
 20
241.315871
 30
0.0
 10
113.871449
 20
243.029657
 30
0.0
 10
114.903234
 20
243.646235
 30
0.0
  0
SPLINE
  5
1a6
100
AcDbEntity
  8
Ebene_1
 62
7
100
AcDbSpline
 70
8
 71
3
 72
8
 73
4
 74
0
 40
0
 40
0
 40
0
 40
0
 40
1
 40
1
 40
1
 40
1
 10
114.903234
 20
243.646235
 30
0.0
 10
118.654780
 20
245.888167
 30
0.0
 10
121.684164
 20
248.499355
 30
0.0
 10
123.616529
 20
251.156116
 30
0.0
  0
LWPOLYLINE
  5
1a7
100
AcDbEntity
  8
Ebene_1
 62
7
100
AcDbPolyline
 90
2
 70
0
 10
64.762121
 20
223.612273
 30
0.0
 10
85.733864
 20
223.612273
 30
0.0
  0
SPLINE
  5
1a8
100
AcDbEntity
  8
Ebene_1
 62
7
100
AcDbSpline
 70
8
 71
3
 72
8
 73
4
 74
0
 40
0
 40
0
 40
0
 40
0
 40
1
 40
1
 40
1
 40
1
 10
123.728249
 20
252.036500
 30
0.0
 10
122.903117
 20
252.457438
 30
0.0
 10
119.739466
 20
253.763939
 30
0.0
 10
117.772627
 20
254.495923
 30
0.0
  0
SPLINE
  5
1a9
100
AcDbEntity
  8
Ebene_1
 62
7
100
AcDbSpline
 70
8
 71
3
 72
8
 73
4
 74
0
 40
0
 40
0
 40
0
 40
0
 40
1
 40
1
 40
1
 40
1
 10
117.772627
 20
254.495923
 30
0.0
 10
109.438759
 20
257.597431
 30
0.0
 10
100.263611
 20
259.711001
 30
0.0
 10
91.127912
 20
260.634491
 30
0.0
  0
SPLINE
  5
1aa
100
AcDbEntity
  8
Ebene_1
 62
7
100
AcDbSpline
 70
8
 71
3
 72
8
 73
4
 74
0
 40
0
 40
0
 40
0
 40
0
 40
1
 40
1
 40
1
 40
1
 10
91.127912
 20
260.634491
 30
0.0
 10
88.961573
 20
260.853404
 30
0.0
 10
86.481620
 20
261.013570
 30
0.0
 10
86.365460
 20
260.941822
 30
0.0
  0
SPLINE
  5
1ab
100
AcDbEntity
  8
Ebene_1
 62
7
100
AcDbSpline
 70
8
 71
3
 72
8
 73
4
 74
0
 40
0
 40
0
 40
0
 40
0
 40
1
 40
1
 40
1
 40
1
 10
86.365460
 20
260.941822
 30
0.0
 10
86.309745
 20
260.907291
 30
0.0
 10
83.824278
 20
257.905866
 30
0.0
 10
80.842208
 20
254.271888
 30
0.0
  0
SPLINE
  5
1ac
100
AcDbEntity
  8
Ebene_1
 62
7
100
AcDbSpline
 70
8
 71
3
 72
8
 73
4
 74
0
 40
0
 40
0
 40
0
 40
0
 40
1
 40
1
 40
1
 40
1
 10
80.842208
 20
254.271888
 30
0.0
 10
77.860182
 20
250.637895
 30
0.0
 10
75.386758
 20
247.627358
 30
0.0
 10
75.345523
 20
247.582017
 30
0.0
  0
SPLINE
  5
1ad
100
AcDbEntity
  8
Ebene_1
 62
7
100
AcDbSpline
 70
8
 71
3
 72
8
 73
4
 74
0
 40
0
 40
0
 40
0
 40
0
 40
1
 40
1
 40
1
 40
1
 10
75.345523
 20
247.582017
 30
0.0
 10
75.304317
 20
247.536604
 30
0.0
 10
72.776977
 20
250.537608
 30
0.0
 10
69.729253
 20
254.251357
 30
0.0
  0
LWPOLYLINE
  5
1ae
100
AcDbEntity
  8
Ebene_1
 62
7
100
AcDbPolyline
 90
3
 70
0
 10
123.616529
 20
251.156116
 30
0.0
 10
124.114104
 20
251.839640
 30
0.0
 10
123.728249
 20
252.036500
 30
0.0
  0
SPLINE
  5
1af
100
AcDbEntity
  8
Ebene_1
 62
7
100
AcDbSpline
 70
8
 71
3
 72
8
 73
4
 74
0
 40
0
 40
0
 40
0
 40
0
 40
1
 40
1
 40
1
 40
1
 10
68.738978
 20
201.411275
 30
0.0
 10
71.906997
 20
183.727454
 30
0.0
 10
75.146661
 20
165.615077
 30
0.0
 10
75.221122
 20
165.222344
 30
0.0
  0
LWPOLYLINE
  5
1b0
100
AcDbEntity
  8
Ebene_1
 62
7
100
AcDbPolyline
 90
2
 70
0
 10
69.729253
 20
254.251357
 30
0.0
 10
64.187880
 20
261.004183
 30
0.0
  0
SPLINE
  5
1b1
100
AcDbEntity
  8
Ebene_1
 62
7
100
AcDbSpline
 70
8
 71
3
 72
8
 73
4
 74
0
 40
0
 40
0
 40
0
 40
0
 40
1
 40
1
 40
1
 40
1
 10
75.364181
 20
165.320789
 30
0.0
 10
76.400465
 20
171.207914
 30
0.0
 10
79.043268
 20
186.068453
 30
0.0
 10
81.775666
 20
201.411275
 30
0.0
  0
LWPOLYLINE
  5
1b2
100
AcDbEntity
  8
Ebene_1
 62
7
100
AcDbPolyline
 90
3
 70
0
 10
75.221122
 20
165.222344
 30
0.0
 10
75.286268
 20
164.878145
 30
0.0
 10
75.364181
 20
165.320789
 30
0.0
  0
LWPOLYLINE
  5
1b3
100
AcDbEntity
  8
Ebene_1
 62
7
100
AcDbPolyline
 90
2
 70
0
 10
81.775666
 20
201.411275
 30
0.0
 10
68.738978
 20
201.411275
 30
0.0
  0
SPLINE
  5
1b4
100
AcDbEntity
  8
Ebene_1
 62
7
100
AcDbSpline
 70
8
 71
3
 72
8
 73
4
 74
0
 40
0
 40
0
 40
0
 40
0
 40
1
 40
1
 40
1
 40
1
 10
17.455860
 20
221.225570
 30
0.0
 10
17.455860
 20
220.149038
 30
0.0
 10
17.849333
 20
219.174767
 30
0.0
 10
18.600716
 20
218.403100
 30
0.0
  0
LWPOLYLINE
  5
1b5
100
AcDbEntity
  8
Ebene_1
 62
7
100
AcDbPolyline
 90
2
 70
0
 10
17.455860
 20
221.718662
 30
0.0
 10
17.455860
 20
221.225570
 30
0.0
  0
SPLINE
  5
1b6
100
AcDbEntity
  8
Ebene_1
 62
7
100
AcDbSpline
 70
8
 71
3
 72
8
 73
4
 74
0
 40
0
 40
0
 40
0
 40
0
 40
1
 40
1
 40
1
 40
1
 10
18.606519
 20
218.397296
 30
0.0
 10
19.362762
 20
217.641053
 30
0.0
 10
20.339268
 20
217.246768
 30
0.0
 10
21.431818
 20
217.246768
 30
0.0
  0
LWPOLYLINE
  5
1b7
100
AcDbEntity
  8
Ebene_1
 62
7
100
AcDbPolyline
 90
3
 70
0
 10
18.600716
 20
218.403100
 30
0.0
 10
18.603617
 20
218.400198
 30
0.0
 10
18.606519
 20
218.397296
 30
0.0
  0
SPLINE
  5
1b8
100
AcDbEntity
  8
Ebene_1
 62
7
100
AcDbSpline
 70
8
 71
3
 72
8
 73
4
 74
0
 40
0
 40
0
 40
0
 40
0
 40
1
 40
1
 40
1
 40
1
 10
35.368491
 20
217.246768
 30
0.0
 10
36.429077
 20
217.246768
 30
0.0
 10
37.392510
 20
217.644608
 30
0.0
 10
38.162624
 20
218.394467
 30
0.0
  0
SPLINE
  5
1b9
100
AcDbEntity
  8
Ebene_1
 62
7
100
AcDbSpline
 70
8
 71
3
 72
8
 73
4
 74
0
 40
0
 40
0
 40
0
 40
0
 40
1
 40
1
 40
1
 40
1
 10
38.162624
 20
218.394467
 30
0.0
 10
38.938121
 20
219.149550
 30
0.0
 10
39.347162
 20
220.129843
 30
0.0
 10
39.347162
 20
221.225439
 30
0.0
  0
LWPOLYLINE
  5
1ba
100
AcDbEntity
  8
Ebene_1
 62
7
100
AcDbPolyline
 90
7
 70
0
 10
21.431818
 20
217.246768
 30
0.0
 10
26.164280
 20
217.246768
 30
0.0
 10
26.164280
 20
203.310110
 30
0.0
 10
26.657358
 20
203.310110
 30
0.0
 10
30.636028
 20
203.310110
 30
0.0
 10
30.636028
 20
217.246768
 30
0.0
 10
35.368491
 20
217.246768
 30
0.0
  0
LWPOLYLINE
  5
1bb
100
AcDbEntity
  8
Ebene_1
 62
7
100
AcDbPolyline
 90
3
 70
0
 10
39.347162
 20
221.225439
 30
0.0
 10
39.347162
 20
221.718531
 30
0.0
 10
17.455860
 20
221.718662
 30
0.0
  0
SPLINE
  5
1bc
100
AcDbEntity
  8
Ebene_1
 62
7
100
AcDbSpline
 70
8
 71
3
 72
8
 73
4
 74
0
 40
0
 40
0
 40
0
 40
0
 40
1
 40
1
 40
1
 40
1
 10
40.899954
 20
207.288897
 30
0.0
 10
40.899954
 20
206.212380
 30
0.0
 10
41.296270
 20
205.238094
 30
0.0
 10
42.047653
 20
204.466428
 30
0.0
  0
LWPOLYLINE
  5
1bd
100
AcDbEntity
  8
Ebene_1
 62
7
100
AcDbPolyline
 90
2
 70
0
 10
40.899954
 20
207.781989
 30
0.0
 10
40.899954
 20
207.288897
 30
0.0
  0
SPLINE
  5
1be
100
AcDbEntity
  8
Ebene_1
 62
7
100
AcDbSpline
 70
8
 71
3
 72
8
 73
4
 74
0
 40
0
 40
0
 40
0
 40
0
 40
1
 40
1
 40
1
 40
1
 10
42.053457
 20
204.463526
 30
0.0
 10
42.809700
 20
203.707268
 30
0.0
 10
43.786206
 20
203.310168
 30
0.0
 10
44.878770
 20
203.310168
 30
0.0
  0
LWPOLYLINE
  5
1bf
100
AcDbEntity
  8
Ebene_1
 62
7
100
AcDbPolyline
 90
3
 70
0
 10
42.047653
 20
204.466428
 30
0.0
 10
42.050555
 20
204.463526
 30
0.0
 10
42.053457
 20
204.463526
 30
0.0
  0
SPLINE
  5
1c0
100
AcDbEntity
  8
Ebene_1
 62
7
100
AcDbSpline
 70
8
 71
3
 72
8
 73
4
 74
0
 40
0
 40
0
 40
0
 40
0
 40
1
 40
1
 40
1
 40
1
 10
58.815443
 20
203.310168
 30
0.0
 10
59.876029
 20
203.310168
 30
0.0
 10
60.836619
 20
203.707993
 30
0.0
 10
61.606733
 20
204.457853
 30
0.0
  0
SPLINE
  5
1c1
100
AcDbEntity
  8
Ebene_1
 62
7
100
AcDbSpline
 70
8
 71
3
 72
8
 73
4
 74
0
 40
0
 40
0
 40
0
 40
0
 40
1
 40
1
 40
1
 40
1
 10
61.606733
 20
204.457853
 30
0.0
 10
62.382229
 20
205.212935
 30
0.0
 10
62.791270
 20
206.193243
 30
0.0
 10
62.791270
 20
207.288825
 30
0.0
  0
LWPOLYLINE
  5
1c2
100
AcDbEntity
  8
Ebene_1
 62
7
100
AcDbPolyline
 90
2
 70
0
 10
44.878770
 20
203.310168
 30
0.0
 10
58.815443
 20
203.310168
 30
0.0
  0
LWPOLYLINE
  5
1c3
100
AcDbEntity
  8
Ebene_1
 62
7
100
AcDbPolyline
 90
3
 70
0
 10
62.791270
 20
207.288825
 30
0.0
 10
62.791270
 20
207.781916
 30
0.0
 10
40.899954
 20
207.781989
 30
0.0
  0
SPLINE
  5
1c4
100
AcDbEntity
  8
Ebene_1
 62
7
100
AcDbSpline
 70
8
 71
3
 72
8
 73
4
 74
0
 40
0
 40
0
 40
0
 40
0
 40
1
 40
1
 40
1
 40
1
 10
40.899954
 20
214.257241
 30
0.0
 10
40.899954
 20
213.180709
 30
0.0
 10
41.296270
 20
212.206438
 30
0.0
 10
42.047653
 20
211.434771
 30
0.0
  0
LWPOLYLINE
  5
1c5
100
AcDbEntity
  8
Ebene_1
 62
7
100
AcDbPolyline
 90
2
 70
0
 10
40.899954
 20
214.750318
 30
0.0
 10
40.899954
 20
214.257241
 30
0.0
  0
SPLINE
  5
1c6
100
AcDbEntity
  8
Ebene_1
 62
7
100
AcDbSpline
 70
8
 71
3
 72
8
 73
4
 74
0
 40
0
 40
0
 40
0
 40
0
 40
1
 40
1
 40
1
 40
1
 10
42.053457
 20
211.431869
 30
0.0
 10
42.809700
 20
210.675626
 30
0.0
 10
43.786206
 20
210.278512
 30
0.0
 10
44.878770
 20
210.278512
 30
0.0
  0
LWPOLYLINE
  5
1c7
100
AcDbEntity
  8
Ebene_1
 62
7
100
AcDbPolyline
 90
3
 70
0
 10
42.047653
 20
211.434771
 30
0.0
 10
42.050555
 20
211.431869
 30
0.0
 10
42.053457
 20
211.431869
 30
0.0
  0
SPLINE
  5
1c8
100
AcDbEntity
  8
Ebene_1
 62
7
100
AcDbSpline
 70
8
 71
3
 72
8
 73
4
 74
0
 40
0
 40
0
 40
0
 40
0
 40
1
 40
1
 40
1
 40
1
 10
58.815443
 20
210.278512
 30
0.0
 10
59.876029
 20
210.278512
 30
0.0
 10
60.836619
 20
210.676351
 30
0.0
 10
61.606733
 20
211.426211
 30
0.0
  0
SPLINE
  5
1c9
100
AcDbEntity
  8
Ebene_1
 62
7
100
AcDbSpline
 70
8
 71
3
 72
8
 73
4
 74
0
 40
0
 40
0
 40
0
 40
0
 40
1
 40
1
 40
1
 40
1
 10
61.606733
 20
211.426211
 30
0.0
 10
62.382229
 20
212.181293
 30
0.0
 10
62.791270
 20
213.161586
 30
0.0
 10
62.791270
 20
214.257183
 30
0.0
  0
LWPOLYLINE
  5
1ca
100
AcDbEntity
  8
Ebene_1
 62
7
100
AcDbPolyline
 90
2
 70
0
 10
44.878770
 20
210.278512
 30
0.0
 10
58.815443
 20
210.278512
 30
0.0
  0
LWPOLYLINE
  5
1cb
100
AcDbEntity
  8
Ebene_1
 62
7
100
AcDbPolyline
 90
3
 70
0
 10
62.791270
 20
214.257183
 30
0.0
 10
62.791270
 20
214.750260
 30
0.0
 10
40.899954
 20
214.750318
 30
0.0
  0
SPLINE
  5
1cc
100
AcDbEntity
  8
Ebene_1
 62
7
100
AcDbSpline
 70
8
 71
3
 72
8
 73
4
 74
0
 40
0
 40
0
 40
0
 40
0
 40
1
 40
1
 40
1
 40
1
 10
40.899954
 20
221.225570
 30
0.0
 10
40.899954
 20
220.149038
 30
0.0
 10
41.296270
 20
219.174767
 30
0.0
 10
42.047653
 20
218.403100
 30
0.0
  0
LWPOLYLINE
  5
1cd
100
AcDbEntity
  8
Ebene_1
 62
7
100
AcDbPolyline
 90
2
 70
0
 10
40.899954
 20
221.718662
 30
0.0
 10
40.899954
 20
221.225570
 30
0.0
  0
SPLINE
  5
1ce
100
AcDbEntity
  8
Ebene_1
 62
7
100
AcDbSpline
 70
8
 71
3
 72
8
 73
4
 74
0
 40
0
 40
0
 40
0
 40
0
 40
1
 40
1
 40
1
 40
1
 10
42.053457
 20
218.397296
 30
0.0
 10
42.809700
 20
217.641053
 30
0.0
 10
43.786206
 20
217.246768
 30
0.0
 10
44.878770
 20
217.246768
 30
0.0
  0
LWPOLYLINE
  5
1cf
100
AcDbEntity
  8
Ebene_1
 62
7
100
AcDbPolyline
 90
3
 70
0
 10
42.047653
 20
218.403100
 30
0.0
 10
42.050555
 20
218.400198
 30
0.0
 10
42.053457
 20
218.397296
 30
0.0
  0
SPLINE
  5
1d0
100
AcDbEntity
  8
Ebene_1
 62
7
100
AcDbSpline
 70
8
 71
3
 72
8
 73
4
 74
0
 40
0
 40
0
 40
0
 40
0
 40
1
 40
1
 40
1
 40
1
 10
58.815443
 20
217.246768
 30
0.0
 10
59.876029
 20
217.246768
 30
0.0
 10
60.836619
 20
217.644608
 30
0.0
 10
61.606733
 20
218.394467
 30
0.0
  0
SPLINE
  5
1d1
100
AcDbEntity
  8
Ebene_1
 62
7
100
AcDbSpline
 70
8
 71
3
 72
8
 73
4
 74
0
 40
0
 40
0
 40
0
 40
0
 40
1
 40
1
 40
1
 40
1
 10
61.606733
 20
218.394467
 30
0.0
 10
62.382229
 20
219.149550
 30
0.0
 10
62.791270
 20
220.129843
 30
0.0
 10
62.791270
 20
221.225439
 30
0.0
  0
LWPOLYLINE
  5
1d2
100
AcDbEntity
  8
Ebene_1
 62
7
100
AcDbPolyline
 90
2
 70
0
 10
44.878770
 20
217.246768
 30
0.0
 10
58.815443
 20
217.246768
 30
0.0
  0
LWPOLYLINE
  5
1d3
100
AcDbEntity
  8
Ebene_1
 62
7
100
AcDbPolyline
 90
3
 70
0
 10
62.791270
 20
221.225439
 30
0.0
 10
62.791270
 20
221.718531
 30
0.0
 10
40.899954
 20
221.718662
 30
0.0
  0
SPLINE
  5
1d4
100
AcDbEntity
  8
Ebene_1
 62
7
100
AcDbSpline
 70
8
 71
3
 72
8
 73
4
 74
0
 40
0
 40
0
 40
0
 40
0
 40
1
 40
1
 40
1
 40
1
 10
68.322719
 20
207.781989
 30
0.0
 10
67.243083
 20
207.781989
 30
0.0
 10
66.268042
 20
207.373746
 30
0.0
 10
65.497406
 20
206.603125
 30
0.0
  0
SPLINE
  5
1d5
100
AcDbEntity
  8
Ebene_1
 62
7
100
AcDbSpline
 70
8
 71
3
 72
8
 73
4
 74
0
 40
0
 40
0
 40
0
 40
0
 40
1
 40
1
 40
1
 40
1
 10
65.497406
 20
206.603125
 30
0.0
 10
64.742729
 20
205.848448
 30
0.0
 10
64.346892
 20
204.879850
 30
0.0
 10
64.346892
 20
203.803318
 30
0.0
  0
LWPOLYLINE
  5
1d6
100
AcDbEntity
  8
Ebene_1
 62
7
100
AcDbPolyline
 90
5
 70
0
 10
64.346892
 20
221.718662
 30
0.0
 10
64.346892
 20
210.278570
 30
0.0
 10
81.766315
 20
210.278570
 30
0.0
 10
81.766315
 20
207.781989
 30
0.0
 10
68.322719
 20
207.781989
 30
0.0
  0
SPLINE
  5
1d7
100
AcDbEntity
  8
Ebene_1
 62
7
100
AcDbSpline
 70
8
 71
3
 72
8
 73
4
 74
0
 40
0
 40
0
 40
0
 40
0
 40
1
 40
1
 40
1
 40
1
 10
82.259392
 20
217.246899
 30
0.0
 10
83.319978
 20
217.246899
 30
0.0
 10
84.283411
 20
217.644738
 30
0.0
 10
85.053525
 20
218.394598
 30
0.0
  0
SPLINE
  5
1d8
100
AcDbEntity
  8
Ebene_1
 62
7
100
AcDbSpline
 70
8
 71
3
 72
8
 73
4
 74
0
 40
0
 40
0
 40
0
 40
0
 40
1
 40
1
 40
1
 40
1
 10
85.053525
 20
218.394598
 30
0.0
 10
85.829022
 20
219.149680
 30
0.0
 10
86.235219
 20
220.129973
 30
0.0
 10
86.235219
 20
221.225570
 30
0.0
  0
LWPOLYLINE
  5
1d9
100
AcDbEntity
  8
Ebene_1
 62
7
100
AcDbPolyline
 90
8
 70
0
 10
64.346892
 20
203.803318
 30
0.0
 10
64.346892
 20
203.310241
 30
0.0
 10
64.839969
 20
203.310241
 30
0.0
 10
86.235219
 20
203.310241
 30
0.0
 10
86.235219
 20
214.750318
 30
0.0
 10
68.815797
 20
214.750318
 30
0.0
 10
68.815797
 20
217.246899
 30
0.0
 10
82.259392
 20
217.246899
 30
0.0
  0
LWPOLYLINE
  5
1da
100
AcDbEntity
  8
Ebene_1
 62
7
100
AcDbPolyline
 90
3
 70
0
 10
86.235219
 20
221.225570
 30
0.0
 10
86.235219
 20
221.718662
 30
0.0
 10
64.346892
 20
221.718662
 30
0.0
  0
SPLINE
  5
1db
100
AcDbEntity
  8
Ebene_1
 62
7
100
AcDbSpline
 70
8
 71
3
 72
8
 73
4
 74
0
 40
0
 40
0
 40
0
 40
0
 40
1
 40
1
 40
1
 40
1
 10
105.703486
 20
203.310241
 30
0.0
 10
106.764086
 20
203.310241
 30
0.0
 10
107.727505
 20
203.708066
 30
0.0
 10
108.497619
 20
204.457925
 30
0.0
  0
SPLINE
  5
1dc
100
AcDbEntity
  8
Ebene_1
 62
7
100
AcDbSpline
 70
8
 71
3
 72
8
 73
4
 74
0
 40
0
 40
0
 40
0
 40
0
 40
1
 40
1
 40
1
 40
1
 10
108.497619
 20
204.457925
 30
0.0
 10
109.273102
 20
205.213008
 30
0.0
 10
109.682157
 20
206.193315
 30
0.0
 10
109.682157
 20
207.288897
 30
0.0
  0
LWPOLYLINE
  5
1dd
100
AcDbEntity
  8
Ebene_1
 62
7
100
AcDbPolyline
 90
4
 70
0
 10
87.790986
 20
221.718662
 30
0.0
 10
87.790986
 20
203.310241
 30
0.0
 10
88.284063
 20
203.310241
 30
0.0
 10
105.703486
 20
203.310241
 30
0.0
  0
LWPOLYLINE
  5
1de
100
AcDbEntity
  8
Ebene_1
 62
7
100
AcDbPolyline
 90
5
 70
0
 10
109.682157
 20
207.288897
 30
0.0
 10
109.682157
 20
207.781989
 30
0.0
 10
92.262734
 20
207.781989
 30
0.0
 10
92.262734
 20
221.718662
 30
0.0
 10
87.790986
 20
221.718662
 30
0.0
  0
LWPOLYLINE
  5
1df
100
AcDbEntity
  8
Ebene_1
 62
7
100
AcDbPolyline
 90
9
 70
1
 10
111.237924
 20
214.750318
 30
0.0
 10
111.237924
 20
203.310241
 30
0.0
 10
111.731001
 20
203.310241
 30
0.0
 10
115.706828
 20
203.310241
 30
0.0
 10
115.706828
 20
210.278570
 30
0.0
 10
128.657346
 20
210.278570
 30
0.0
 10
128.657346
 20
203.310241
 30
0.0
 10
133.126251
 20
203.310241
 30
0.0
 10
133.126251
 20
214.750318
 30
0.0
  0
SPLINE
  5
1e0
100
AcDbEntity
  8
Ebene_1
 62
7
100
AcDbSpline
 70
8
 71
3
 72
8
 73
4
 74
0
 40
0
 40
0
 40
0
 40
0
 40
1
 40
1
 40
1
 40
1
 10
111.237924
 20
221.225570
 30
0.0
 10
111.237924
 20
220.149038
 30
0.0
 10
111.631396
 20
219.174767
 30
0.0
 10
112.382779
 20
218.403100
 30
0.0
  0
LWPOLYLINE
  5
1e1
100
AcDbEntity
  8
Ebene_1
 62
7
100
AcDbPolyline
 90
2
 70
0
 10
111.237924
 20
221.718662
 30
0.0
 10
111.237924
 20
221.225570
 30
0.0
  0
SPLINE
  5
1e2
100
AcDbEntity
  8
Ebene_1
 62
7
100
AcDbSpline
 70
8
 71
3
 72
8
 73
4
 74
0
 40
0
 40
0
 40
0
 40
0
 40
1
 40
1
 40
1
 40
1
 10
112.388583
 20
218.397296
 30
0.0
 10
113.144826
 20
217.641053
 30
0.0
 10
114.121346
 20
217.246768
 30
0.0
 10
115.213896
 20
217.246768
 30
0.0
  0
LWPOLYLINE
  5
1e3
100
AcDbEntity
  8
Ebene_1
 62
7
100
AcDbPolyline
 90
3
 70
0
 10
112.382779
 20
218.403100
 30
0.0
 10
112.385681
 20
218.400198
 30
0.0
 10
112.388583
 20
218.397296
 30
0.0
  0
SPLINE
  5
1e4
100
AcDbEntity
  8
Ebene_1
 62
7
100
AcDbSpline
 70
8
 71
3
 72
8
 73
4
 74
0
 40
0
 40
0
 40
0
 40
0
 40
1
 40
1
 40
1
 40
1
 10
129.150569
 20
217.246768
 30
0.0
 10
130.211169
 20
217.246768
 30
0.0
 10
131.174573
 20
217.644608
 30
0.0
 10
131.944702
 20
218.394467
 30
0.0
  0
SPLINE
  5
1e5
100
AcDbEntity
  8
Ebene_1
 62
7
100
AcDbSpline
 70
8
 71
3
 72
8
 73
4
 74
0
 40
0
 40
0
 40
0
 40
0
 40
1
 40
1
 40
1
 40
1
 10
131.944702
 20
218.394467
 30
0.0
 10
132.720199
 20
219.149550
 30
0.0
 10
133.126396
 20
220.129843
 30
0.0
 10
133.126396
 20
221.225439
 30
0.0
  0
LWPOLYLINE
  5
1e6
100
AcDbEntity
  8
Ebene_1
 62
7
100
AcDbPolyline
 90
2
 70
0
 10
115.213896
 20
217.246768
 30
0.0
 10
129.150569
 20
217.246768
 30
0.0
  0
LWPOLYLINE
  5
1e7
100
AcDbEntity
  8
Ebene_1
 62
7
100
AcDbPolyline
 90
3
 70
0
 10
133.126396
 20
221.225439
 30
0.0
 10
133.126396
 20
221.718531
 30
0.0
 10
111.237924
 20
221.718662
 30
0.0
  0
ENDSEC
  0
SECTION
  2
OBJECTS
  0
DICTIONARY
  5
C
330
0
100
AcDbDictionary
  3
ACAD_GROUP
350
D
  3
ACAD_MLINESTYLE
350
17
  0
DICTIONARY
  5
D
330
C
100
AcDbDictionary
  0
DICTIONARY
  5
1A
330
C
100
AcDbDictionary
  0
DICTIONARY
  5
17
330
C
100
AcDbDictionary
  3
STANDARD
350
18
  0
DICTIONARY
  5
19
330
C
100
AcDbDictionary
  0
ENDSEC
  0
EOF
