  0
SECTION
  2
HEADER
  9
$ACADVER
  1
AC1014
  9
$HANDSEED
  5
FFFF
  9
$MEASUREMENT
 70
     1
  0
ENDSEC
  0
SECTION
  2
TABLES
  0
TABLE
  2
VPORT
  5
8
330
0
100
AcDbSymbolTable
 70
     4
  0
VPORT
  5
2E
330
8
100
AcDbSymbolTableRecord
100
AcDbViewportTableRecord
  2
*ACTIVE
 70
     0
 10
0.0
 20
0.0
 11
1.0
 21
1.0
 12
210.0
 22
148.5
 13
0.0
 23
0.0
 14
10.0
 24
10.0
 15
10.0
 25
10.0
 16
0.0
 26
0.0
 36
1.0
 17
0.0
 27
0.0
 37
0.0
 40
341.0
 41
1.24
 42
50.0
 43
0.0
 44
0.0
 50
0.0
 51
0.0
 71
     0
 72
   100
 73
     1
 74
     3
 75
     0
 76
     0
 77
     0
 78
     0
  0
ENDTAB
  0
TABLE
  2
LTYPE
  5
5
330
0
100
AcDbSymbolTable
 70
     1
  0
LTYPE
  5
14
330
5
100
AcDbSymbolTableRecord
100
AcDbLinetypeTableRecord
  2
BYBLOCK
 70
     0
  3

 72
    65
 73
     0
 40
0.0
  0
LTYPE
  5
15
330
5
100
AcDbSymbolTableRecord
100
AcDbLinetypeTableRecord
  2
BYLAYER
 70
     0
  3

 72
    65
 73
     0
 40
0.0
  0
LTYPE
  5
16
330
5
100
AcDbSymbolTableRecord
100
AcDbLinetypeTableRecord
  2
CONTINUOUS
 70
     0
  3
Solid line
 72
    65
 73
     0
 40
0.0
  0
ENDTAB
  0
TABLE
  2
LAYER
  5
2
100
AcDbSymbolTable
 70
2
  0
LAYER
  5
50
100
AcDbSymbolTableRecord
100
AcDbLayerTableRecord
  2
0
 70
0
  6
CONTINUOUS
  0
LAYER
  5
51
100
AcDbSymbolTableRecord
100
AcDbLayerTableRecord
  2
Ebene_1
 70
0
  6
CONTINUOUS
  0
ENDTAB
  0
TABLE
  2
STYLE
  5
3
330
0
100
AcDbSymbolTable
 70
     1
  0
STYLE
  5
11
330
3
100
AcDbSymbolTableRecord
100
AcDbTextStyleTableRecord
  2
STANDARD
 70
     0
 40
0.0
 41
1.0
 50
0.0
 71
     0
 42
2.5
  3
txt
  4

  0
ENDTAB
  0
TABLE
  2
VIEW
  5
6
330
0
100
AcDbSymbolTable
 70
     0
  0
ENDTAB
  0
TABLE
  2
UCS
  5
7
330
0
100
AcDbSymbolTable
 70
     0
  0
ENDTAB
  0
TABLE
  2
APPID
  5
9
330
0
100
AcDbSymbolTable
 70
     2
  0
APPID
  5
12
330
9
100
AcDbSymbolTableRecord
100
AcDbRegAppTableRecord
  2
ACAD
 70
     0
  0
ENDTAB
  0
TABLE
  2
DIMSTYLE
  5
A
330
0
100
AcDbSymbolTable
 70
     1
  0
DIMSTYLE
105
27
330
A
100
AcDbSymbolTableRecord
100
AcDbDimStyleTableRecord
  2
ISO-25
 70
     0
  3

  4

  5

  6

  7

 40
1.0
 41
2.5
 42
0.625
 43
3.75
 44
1.25
 45
0.0
 46
0.0
 47
0.0
 48
0.0
140
2.5
141
2.5
142
0.0
143
0.03937007874016
144
1.0
145
0.0
146
1.0
147
0.625
 71
     0
 72
     0
 73
     0
 74
     0
 75
     0
 76
     0
 77
     1
 78
     8
170
     0
171
     3
172
     1
173
     0
174
     0
175
     0
176
     0
177
     0
178
     0
270
     2
271
     2
272
     2
273
     2
274
     3
340
11
275
     0
280
     0
281
     0
282
     0
283
     0
284
     8
285
     0
286
     0
287
     3
288
     0
  0
ENDTAB
  0
TABLE
  2
BLOCK_RECORD
  5
1
330
0
100
AcDbSymbolTable
 70
     1
  0
BLOCK_RECORD
  5
1F
330
1
100
AcDbSymbolTableRecord
100
AcDbBlockTableRecord
  2
*MODEL_SPACE
  0
BLOCK_RECORD
  5
1B
330
1
100
AcDbSymbolTableRecord
100
AcDbBlockTableRecord
  2
*PAPER_SPACE
  0
ENDTAB
  0
ENDSEC
  0
SECTION
  2
BLOCKS
  0
BLOCK
  5
20
330
1F
100
AcDbEntity
  8
0
100
AcDbBlockBegin
  2
*MODEL_SPACE
 70
     0
 10
0.0
 20
0.0
 30
0.0
  3
*MODEL_SPACE
  1

  0
ENDBLK
  5
21
330
1F
100
AcDbEntity
  8
0
100
AcDbBlockEnd
  0
BLOCK
  5
1C
330
1B
100
AcDbEntity
 67
     1
  8
0
100
AcDbBlockBegin
  2
*PAPER_SPACE
  1

  0
ENDBLK
  5
1D
330
1B
100
AcDbEntity
 67
     1
  8
0
100
AcDbBlockEnd
  0
ENDSEC
  0
SECTION
  2
ENTITIES
  0
SPLINE
  5
100
100
AcDbEntity
  8
Ebene_1
 62
7
100
AcDbSpline
 70
8
 71
3
 72
8
 73
4
 74
0
 40
0
 40
0
 40
0
 40
0
 40
1
 40
1
 40
1
 40
1
 10
72.863388
 20
66.776500
 30
0.0
 10
73.978265
 20
66.776500
 30
0.0
 10
74.924858
 20
66.376830
 30
0.0
 10
75.703168
 20
65.577490
 30
0.0
  0
SPLINE
  5
101
100
AcDbEntity
  8
Ebene_1
 62
7
100
AcDbSpline
 70
8
 71
3
 72
8
 73
4
 74
0
 40
0
 40
0
 40
0
 40
0
 40
1
 40
1
 40
1
 40
1
 10
75.703168
 20
65.577490
 30
0.0
 10
76.502513
 20
64.778140
 30
0.0
 10
76.902186
 20
63.831550
 30
0.0
 10
76.902186
 20
62.737710
 30
0.0
  0
LWPOLYLINE
  5
102
100
AcDbEntity
  8
Ebene_1
 62
7
100
AcDbPolyline
 90
6
 70
0
 10
64.785793
 20
62.737710
 30
0.0
 10
64.785793
 20
66.776500
 30
0.0
 10
68.824591
 20
66.776500
 30
0.0
 10
68.824591
 20
74.854100
 30
0.0
 10
72.863388
 20
74.854100
 30
0.0
 10
72.863388
 20
66.776500
 30
0.0
  0
SPLINE
  5
103
100
AcDbEntity
  8
Ebene_1
 62
7
100
AcDbSpline
 70
8
 71
3
 72
8
 73
4
 74
0
 40
0
 40
0
 40
0
 40
0
 40
1
 40
1
 40
1
 40
1
 10
68.824591
 20
78.892900
 30
0.0
 10
67.688679
 20
78.892900
 30
0.0
 10
66.731568
 20
79.282050
 30
0.0
 10
65.953258
 20
80.060360
 30
0.0
  0
SPLINE
  5
104
100
AcDbEntity
  8
Ebene_1
 62
7
100
AcDbSpline
 70
8
 71
3
 72
8
 73
4
 74
0
 40
0
 40
0
 40
0
 40
0
 40
1
 40
1
 40
1
 40
1
 10
65.953258
 20
80.060360
 30
0.0
 10
65.174948
 20
80.859710
 30
0.0
 10
64.785793
 20
81.816820
 30
0.0
 10
64.785793
 20
82.931690
 30
0.0
  0
LWPOLYLINE
  5
105
100
AcDbEntity
  8
Ebene_1
 62
7
100
AcDbPolyline
 90
2
 70
0
 10
76.902186
 20
62.737710
 30
0.0
 10
64.785793
 20
62.737710
 30
0.0
  0
SPLINE
  5
106
100
AcDbEntity
  8
Ebene_1
 62
7
100
AcDbSpline
 70
8
 71
3
 72
8
 73
4
 74
0
 40
0
 40
0
 40
0
 40
0
 40
1
 40
1
 40
1
 40
1
 10
85.454506
 20
62.737710
 30
0.0
 10
84.318594
 20
62.737710
 30
0.0
 10
83.361483
 20
63.126860
 30
0.0
 10
82.583174
 20
63.905170
 30
0.0
  0
SPLINE
  5
107
100
AcDbEntity
  8
Ebene_1
 62
7
100
AcDbSpline
 70
8
 71
3
 72
8
 73
4
 74
0
 40
0
 40
0
 40
0
 40
0
 40
1
 40
1
 40
1
 40
1
 10
82.583174
 20
63.905170
 30
0.0
 10
81.804864
 20
64.704520
 30
0.0
 10
81.342829
 20
65.664010
 30
0.0
 10
81.415709
 20
66.776500
 30
0.0
  0
LWPOLYLINE
  5
108
100
AcDbEntity
  8
Ebene_1
 62
7
100
AcDbPolyline
 90
4
 70
0
 10
64.785793
 20
82.931690
 30
0.0
 10
72.863388
 20
82.931690
 30
0.0
 10
72.863388
 20
78.892900
 30
0.0
 10
68.824591
 20
78.892900
 30
0.0
  0
SPLINE
  5
109
100
AcDbEntity
  8
Ebene_1
 62
7
100
AcDbSpline
 70
8
 71
3
 72
8
 73
4
 74
0
 40
0
 40
0
 40
0
 40
0
 40
1
 40
1
 40
1
 40
1
 10
85.454506
 20
68.795900
 30
0.0
 10
85.454506
 20
68.227950
 30
0.0
 10
85.643824
 20
67.744130
 30
0.0
 10
86.022462
 20
67.344460
 30
0.0
  0
SPLINE
  5
10a
100
AcDbEntity
  8
Ebene_1
 62
7
100
AcDbSpline
 70
8
 71
3
 72
8
 73
4
 74
0
 40
0
 40
0
 40
0
 40
0
 40
1
 40
1
 40
1
 40
1
 10
86.022462
 20
67.344460
 30
0.0
 10
86.422134
 20
66.965820
 30
0.0
 10
86.905949
 20
66.776500
 30
0.0
 10
87.473905
 20
66.776500
 30
0.0
  0
LWPOLYLINE
  5
10b
100
AcDbEntity
  8
Ebene_1
 62
7
100
AcDbPolyline
 90
4
 70
0
 10
81.415709
 20
66.776500
 30
0.0
 10
81.415709
 20
74.854100
 30
0.0
 10
85.454506
 20
74.854100
 30
0.0
 10
85.454506
 20
68.795900
 30
0.0
  0
SPLINE
  5
10c
100
AcDbEntity
  8
Ebene_1
 62
7
100
AcDbSpline
 70
8
 71
3
 72
8
 73
4
 74
0
 40
0
 40
0
 40
0
 40
0
 40
1
 40
1
 40
1
 40
1
 10
99.590297
 20
66.776500
 30
0.0
 10
100.137217
 20
66.776500
 30
0.0
 10
100.610514
 20
66.965820
 30
0.0
 10
101.010187
 20
67.344460
 30
0.0
  0
SPLINE
  5
10d
100
AcDbEntity
  8
Ebene_1
 62
7
100
AcDbSpline
 70
8
 71
3
 72
8
 73
4
 74
0
 40
0
 40
0
 40
0
 40
0
 40
1
 40
1
 40
1
 40
1
 10
101.010187
 20
67.344460
 30
0.0
 10
101.409859
 20
67.744130
 30
0.0
 10
101.609696
 20
68.227950
 30
0.0
 10
101.609696
 20
68.795900
 30
0.0
  0
LWPOLYLINE
  5
10e
100
AcDbEntity
  8
Ebene_1
 62
7
100
AcDbPolyline
 90
2
 70
0
 10
87.473905
 20
66.776500
 30
0.0
 10
99.590297
 20
66.776500
 30
0.0
  0
SPLINE
  5
10f
100
AcDbEntity
  8
Ebene_1
 62
7
100
AcDbSpline
 70
8
 71
3
 72
8
 73
4
 74
0
 40
0
 40
0
 40
0
 40
0
 40
1
 40
1
 40
1
 40
1
 10
105.648493
 20
66.776500
 30
0.0
 10
105.648493
 20
65.640590
 30
0.0
 10
105.248820
 20
64.683480
 30
0.0
 10
104.449475
 20
63.905170
 30
0.0
  0
SPLINE
  5
110
100
AcDbEntity
  8
Ebene_1
 62
7
100
AcDbSpline
 70
8
 71
3
 72
8
 73
4
 74
0
 40
0
 40
0
 40
0
 40
0
 40
1
 40
1
 40
1
 40
1
 10
104.449475
 20
63.905170
 30
0.0
 10
103.650129
 20
63.126860
 30
0.0
 10
102.703536
 20
62.737710
 30
0.0
 10
101.609696
 20
62.737710
 30
0.0
  0
LWPOLYLINE
  5
111
100
AcDbEntity
  8
Ebene_1
 62
7
100
AcDbPolyline
 90
4
 70
0
 10
101.609696
 20
68.795900
 30
0.0
 10
101.609696
 20
74.854100
 30
0.0
 10
105.648493
 20
74.854100
 30
0.0
 10
105.648493
 20
66.776500
 30
0.0
  0
SPLINE
  5
112
100
AcDbEntity
  8
Ebene_1
 62
7
100
AcDbSpline
 70
8
 71
3
 72
8
 73
4
 74
0
 40
0
 40
0
 40
0
 40
0
 40
1
 40
1
 40
1
 40
1
 10
81.415709
 20
78.892900
 30
0.0
 10
81.415709
 20
80.007770
 30
0.0
 10
81.804864
 20
80.954370
 30
0.0
 10
82.583174
 20
81.732680
 30
0.0
  0
SPLINE
  5
113
100
AcDbEntity
  8
Ebene_1
 62
7
100
AcDbSpline
 70
8
 71
3
 72
8
 73
4
 74
0
 40
0
 40
0
 40
0
 40
0
 40
1
 40
1
 40
1
 40
1
 10
82.583174
 20
81.732680
 30
0.0
 10
83.382519
 20
82.532020
 30
0.0
 10
84.339630
 20
82.931690
 30
0.0
 10
85.454506
 20
82.931690
 30
0.0
  0
LWPOLYLINE
  5
114
100
AcDbEntity
  8
Ebene_1
 62
7
100
AcDbPolyline
 90
2
 70
0
 10
101.609696
 20
62.737710
 30
0.0
 10
85.454506
 20
62.737710
 30
0.0
  0
SPLINE
  5
115
100
AcDbEntity
  8
Ebene_1
 62
7
100
AcDbSpline
 70
8
 71
3
 72
8
 73
4
 74
0
 40
0
 40
0
 40
0
 40
0
 40
1
 40
1
 40
1
 40
1
 10
101.609696
 20
82.931690
 30
0.0
 10
102.724572
 20
82.931690
 30
0.0
 10
103.671165
 20
82.532020
 30
0.0
 10
104.449475
 20
81.732680
 30
0.0
  0
SPLINE
  5
116
100
AcDbEntity
  8
Ebene_1
 62
7
100
AcDbSpline
 70
8
 71
3
 72
8
 73
4
 74
0
 40
0
 40
0
 40
0
 40
0
 40
1
 40
1
 40
1
 40
1
 10
104.449475
 20
81.732680
 30
0.0
 10
105.248820
 20
80.933330
 30
0.0
 10
105.648493
 20
79.986740
 30
0.0
 10
105.648493
 20
78.892900
 30
0.0
  0
LWPOLYLINE
  5
117
100
AcDbEntity
  8
Ebene_1
 62
7
100
AcDbPolyline
 90
2
 70
0
 10
85.454506
 20
82.931690
 30
0.0
 10
101.609696
 20
82.931690
 30
0.0
  0
SPLINE
  5
118
100
AcDbEntity
  8
Ebene_1
 62
7
100
AcDbSpline
 70
8
 71
3
 72
8
 73
4
 74
0
 40
0
 40
0
 40
0
 40
0
 40
1
 40
1
 40
1
 40
1
 10
113.726088
 20
62.737710
 30
0.0
 10
112.590176
 20
62.737710
 30
0.0
 10
111.633065
 20
63.126860
 30
0.0
 10
110.854755
 20
63.905170
 30
0.0
  0
SPLINE
  5
119
100
AcDbEntity
  8
Ebene_1
 62
7
100
AcDbSpline
 70
8
 71
3
 72
8
 73
4
 74
0
 40
0
 40
0
 40
0
 40
0
 40
1
 40
1
 40
1
 40
1
 10
110.854755
 20
63.905170
 30
0.0
 10
110.076445
 20
64.704520
 30
0.0
 10
109.687290
 20
65.661630
 30
0.0
 10
109.687290
 20
66.776500
 30
0.0
  0
LWPOLYLINE
  5
11a
100
AcDbEntity
  8
Ebene_1
 62
7
100
AcDbPolyline
 90
2
 70
0
 10
105.648493
 20
78.892900
 30
0.0
 10
81.415709
 20
78.892900
 30
0.0
  0
SPLINE
  5
11b
100
AcDbEntity
  8
Ebene_1
 62
7
100
AcDbSpline
 70
8
 71
3
 72
8
 73
4
 74
0
 40
0
 40
0
 40
0
 40
0
 40
1
 40
1
 40
1
 40
1
 10
113.726088
 20
68.795900
 30
0.0
 10
113.726088
 20
68.227950
 30
0.0
 10
113.915406
 20
67.744130
 30
0.0
 10
114.294044
 20
67.344460
 30
0.0
  0
SPLINE
  5
11c
100
AcDbEntity
  8
Ebene_1
 62
7
100
AcDbSpline
 70
8
 71
3
 72
8
 73
4
 74
0
 40
0
 40
0
 40
0
 40
0
 40
1
 40
1
 40
1
 40
1
 10
114.294044
 20
67.344460
 30
0.0
 10
114.693716
 20
66.965820
 30
0.0
 10
115.177530
 20
66.776500
 30
0.0
 10
115.745486
 20
66.776500
 30
0.0
  0
LWPOLYLINE
  5
11d
100
AcDbEntity
  8
Ebene_1
 62
7
100
AcDbPolyline
 90
4
 70
0
 10
109.687290
 20
66.776500
 30
0.0
 10
109.687290
 20
74.854100
 30
0.0
 10
113.726088
 20
74.854100
 30
0.0
 10
113.726088
 20
68.795900
 30
0.0
  0
SPLINE
  5
11e
100
AcDbEntity
  8
Ebene_1
 62
7
100
AcDbSpline
 70
8
 71
3
 72
8
 73
4
 74
0
 40
0
 40
0
 40
0
 40
0
 40
1
 40
1
 40
1
 40
1
 10
127.861879
 20
66.776500
 30
0.0
 10
128.408799
 20
66.776500
 30
0.0
 10
128.882095
 20
66.965820
 30
0.0
 10
129.281768
 20
67.344460
 30
0.0
  0
SPLINE
  5
11f
100
AcDbEntity
  8
Ebene_1
 62
7
100
AcDbSpline
 70
8
 71
3
 72
8
 73
4
 74
0
 40
0
 40
0
 40
0
 40
0
 40
1
 40
1
 40
1
 40
1
 10
129.281768
 20
67.344460
 30
0.0
 10
129.681440
 20
67.744130
 30
0.0
 10
129.831856
 20
68.230100
 30
0.0
 10
129.881277
 20
68.795900
 30
0.0
  0
LWPOLYLINE
  5
120
100
AcDbEntity
  8
Ebene_1
 62
7
100
AcDbPolyline
 90
2
 70
0
 10
115.745486
 20
66.776500
 30
0.0
 10
127.861879
 20
66.776500
 30
0.0
  0
SPLINE
  5
121
100
AcDbEntity
  8
Ebene_1
 62
7
100
AcDbSpline
 70
8
 71
3
 72
8
 73
4
 74
0
 40
0
 40
0
 40
0
 40
0
 40
1
 40
1
 40
1
 40
1
 10
133.920075
 20
66.776500
 30
0.0
 10
133.920075
 20
65.640590
 30
0.0
 10
133.520402
 20
64.683480
 30
0.0
 10
132.721057
 20
63.905170
 30
0.0
  0
SPLINE
  5
122
100
AcDbEntity
  8
Ebene_1
 62
7
100
AcDbSpline
 70
8
 71
3
 72
8
 73
4
 74
0
 40
0
 40
0
 40
0
 40
0
 40
1
 40
1
 40
1
 40
1
 10
132.721057
 20
63.905170
 30
0.0
 10
131.921711
 20
63.126860
 30
0.0
 10
130.975118
 20
62.737710
 30
0.0
 10
129.881277
 20
62.737710
 30
0.0
  0
LWPOLYLINE
  5
123
100
AcDbEntity
  8
Ebene_1
 62
7
100
AcDbPolyline
 90
4
 70
0
 10
129.881277
 20
68.795900
 30
0.0
 10
129.881277
 20
74.854100
 30
0.0
 10
133.920075
 20
74.854100
 30
0.0
 10
133.920075
 20
66.776500
 30
0.0
  0
SPLINE
  5
124
100
AcDbEntity
  8
Ebene_1
 62
7
100
AcDbSpline
 70
8
 71
3
 72
8
 73
4
 74
0
 40
0
 40
0
 40
0
 40
0
 40
1
 40
1
 40
1
 40
1
 10
109.687290
 20
78.892900
 30
0.0
 10
109.687290
 20
80.007770
 30
0.0
 10
110.076445
 20
80.954370
 30
0.0
 10
110.854755
 20
81.732680
 30
0.0
  0
SPLINE
  5
125
100
AcDbEntity
  8
Ebene_1
 62
7
100
AcDbSpline
 70
8
 71
3
 72
8
 73
4
 74
0
 40
0
 40
0
 40
0
 40
0
 40
1
 40
1
 40
1
 40
1
 10
110.854755
 20
81.732680
 30
0.0
 10
111.654100
 20
82.532020
 30
0.0
 10
112.611211
 20
82.931690
 30
0.0
 10
113.726088
 20
82.931690
 30
0.0
  0
LWPOLYLINE
  5
126
100
AcDbEntity
  8
Ebene_1
 62
7
100
AcDbPolyline
 90
2
 70
0
 10
129.881277
 20
62.737710
 30
0.0
 10
113.726088
 20
62.737710
 30
0.0
  0
SPLINE
  5
127
100
AcDbEntity
  8
Ebene_1
 62
7
100
AcDbSpline
 70
8
 71
3
 72
8
 73
4
 74
0
 40
0
 40
0
 40
0
 40
0
 40
1
 40
1
 40
1
 40
1
 10
129.881277
 20
82.931690
 30
0.0
 10
130.996153
 20
82.931690
 30
0.0
 10
131.942747
 20
82.532020
 30
0.0
 10
132.721057
 20
81.732680
 30
0.0
  0
SPLINE
  5
128
100
AcDbEntity
  8
Ebene_1
 62
7
100
AcDbSpline
 70
8
 71
3
 72
8
 73
4
 74
0
 40
0
 40
0
 40
0
 40
0
 40
1
 40
1
 40
1
 40
1
 10
132.721057
 20
81.732680
 30
0.0
 10
133.520402
 20
80.933330
 30
0.0
 10
133.920075
 20
79.986740
 30
0.0
 10
133.920075
 20
78.892900
 30
0.0
  0
LWPOLYLINE
  5
129
100
AcDbEntity
  8
Ebene_1
 62
7
100
AcDbPolyline
 90
2
 70
0
 10
113.726088
 20
82.931690
 30
0.0
 10
129.881277
 20
82.931690
 30
0.0
  0
SPLINE
  5
12a
100
AcDbEntity
  8
Ebene_1
 62
7
100
AcDbSpline
 70
8
 71
3
 72
8
 73
4
 74
0
 40
0
 40
0
 40
0
 40
0
 40
1
 40
1
 40
1
 40
1
 10
155.425790
 20
65.296040
 30
0.0
 10
156.118683
 20
65.296040
 30
0.0
 10
156.718303
 20
65.535890
 30
0.0
 10
157.224649
 20
66.015570
 30
0.0
  0
SPLINE
  5
12b
100
AcDbEntity
  8
Ebene_1
 62
7
100
AcDbSpline
 70
8
 71
3
 72
8
 73
4
 74
0
 40
0
 40
0
 40
0
 40
0
 40
1
 40
1
 40
1
 40
1
 10
157.224649
 20
66.015570
 30
0.0
 10
157.730993
 20
66.521920
 30
0.0
 10
157.984166
 20
67.134870
 30
0.0
 10
157.984166
 20
67.854400
 30
0.0
  0
SPLINE
  5
12c
100
AcDbEntity
  8
Ebene_1
 62
7
100
AcDbSpline
 70
8
 71
3
 72
8
 73
4
 74
0
 40
0
 40
0
 40
0
 40
0
 40
1
 40
1
 40
1
 40
1
 10
157.984166
 20
67.854400
 30
0.0
 10
157.984166
 20
68.547310
 30
0.0
 10
157.730993
 20
69.146920
 30
0.0
 10
157.224649
 20
69.653270
 30
0.0
  0
SPLINE
  5
12d
100
AcDbEntity
  8
Ebene_1
 62
7
100
AcDbSpline
 70
8
 71
3
 72
8
 73
4
 74
0
 40
0
 40
0
 40
0
 40
0
 40
1
 40
1
 40
1
 40
1
 10
157.224649
 20
69.653270
 30
0.0
 10
156.718303
 20
70.159600
 30
0.0
 10
156.118683
 20
70.412780
 30
0.0
 10
155.425790
 20
70.412780
 30
0.0
  0
SPLINE
  5
12e
100
AcDbEntity
  8
Ebene_1
 62
7
100
AcDbSpline
 70
8
 71
3
 72
8
 73
4
 74
0
 40
0
 40
0
 40
0
 40
0
 40
1
 40
1
 40
1
 40
1
 10
155.425790
 20
70.412780
 30
0.0
 10
154.706248
 20
70.412780
 30
0.0
 10
154.093303
 20
70.159600
 30
0.0
 10
153.586958
 20
69.653270
 30
0.0
  0
SPLINE
  5
12f
100
AcDbEntity
  8
Ebene_1
 62
7
100
AcDbSpline
 70
8
 71
3
 72
8
 73
4
 74
0
 40
0
 40
0
 40
0
 40
0
 40
1
 40
1
 40
1
 40
1
 10
153.586958
 20
69.653270
 30
0.0
 10
153.107263
 20
69.146920
 30
0.0
 10
152.867416
 20
68.547310
 30
0.0
 10
152.867416
 20
67.854400
 30
0.0
  0
SPLINE
  5
130
100
AcDbEntity
  8
Ebene_1
 62
7
100
AcDbSpline
 70
8
 71
3
 72
8
 73
4
 74
0
 40
0
 40
0
 40
0
 40
0
 40
1
 40
1
 40
1
 40
1
 10
152.867416
 20
67.854400
 30
0.0
 10
152.867416
 20
67.134870
 30
0.0
 10
153.107263
 20
66.521920
 30
0.0
 10
153.586958
 20
66.015570
 30
0.0
  0
SPLINE
  5
131
100
AcDbEntity
  8
Ebene_1
 62
7
100
AcDbSpline
 70
8
 71
3
 72
8
 73
4
 74
0
 40
0
 40
0
 40
0
 40
0
 40
1
 40
1
 40
1
 40
1
 10
153.586958
 20
66.015570
 30
0.0
 10
154.093303
 20
65.535890
 30
0.0
 10
154.706248
 20
65.296040
 30
0.0
 10
155.425790
 20
65.296040
 30
0.0
  0
LWPOLYLINE
  5
132
100
AcDbEntity
  8
Ebene_1
 62
7
100
AcDbPolyline
 90
2
 70
0
 10
133.920075
 20
78.892900
 30
0.0
 10
109.687290
 20
78.892900
 30
0.0
  0
SPLINE
  5
133
100
AcDbEntity
  8
Ebene_1
 62
7
100
AcDbSpline
 70
8
 71
3
 72
8
 73
4
 74
0
 40
0
 40
0
 40
0
 40
0
 40
1
 40
1
 40
1
 40
1
 10
145.192292
 20
75.529530
 30
0.0
 10
145.885185
 20
75.529530
 30
0.0
 10
146.484803
 20
75.769390
 30
0.0
 10
146.991148
 20
76.249080
 30
0.0
  0
SPLINE
  5
134
100
AcDbEntity
  8
Ebene_1
 62
7
100
AcDbSpline
 70
8
 71
3
 72
8
 73
4
 74
0
 40
0
 40
0
 40
0
 40
0
 40
1
 40
1
 40
1
 40
1
 10
146.991148
 20
76.249080
 30
0.0
 10
147.497492
 20
76.755420
 30
0.0
 10
147.750666
 20
77.368380
 30
0.0
 10
147.750666
 20
78.087910
 30
0.0
  0
SPLINE
  5
135
100
AcDbEntity
  8
Ebene_1
 62
7
100
AcDbSpline
 70
8
 71
3
 72
8
 73
4
 74
0
 40
0
 40
0
 40
0
 40
0
 40
1
 40
1
 40
1
 40
1
 10
147.750666
 20
78.087910
 30
0.0
 10
147.750666
 20
78.780810
 30
0.0
 10
147.497492
 20
79.380430
 30
0.0
 10
146.991148
 20
79.886770
 30
0.0
  0
SPLINE
  5
136
100
AcDbEntity
  8
Ebene_1
 62
7
100
AcDbSpline
 70
8
 71
3
 72
8
 73
4
 74
0
 40
0
 40
0
 40
0
 40
0
 40
1
 40
1
 40
1
 40
1
 10
146.991148
 20
79.886770
 30
0.0
 10
146.484803
 20
80.393110
 30
0.0
 10
145.885185
 20
80.646290
 30
0.0
 10
145.192292
 20
80.646290
 30
0.0
  0
SPLINE
  5
137
100
AcDbEntity
  8
Ebene_1
 62
7
100
AcDbSpline
 70
8
 71
3
 72
8
 73
4
 74
0
 40
0
 40
0
 40
0
 40
0
 40
1
 40
1
 40
1
 40
1
 10
145.192292
 20
80.646290
 30
0.0
 10
144.472749
 20
80.646290
 30
0.0
 10
143.859803
 20
80.393110
 30
0.0
 10
143.353459
 20
79.886770
 30
0.0
  0
SPLINE
  5
138
100
AcDbEntity
  8
Ebene_1
 62
7
100
AcDbSpline
 70
8
 71
3
 72
8
 73
4
 74
0
 40
0
 40
0
 40
0
 40
0
 40
1
 40
1
 40
1
 40
1
 10
143.353459
 20
79.886770
 30
0.0
 10
142.873763
 20
79.380430
 30
0.0
 10
142.633916
 20
78.780810
 30
0.0
 10
142.633916
 20
78.087910
 30
0.0
  0
SPLINE
  5
139
100
AcDbEntity
  8
Ebene_1
 62
7
100
AcDbSpline
 70
8
 71
3
 72
8
 73
4
 74
0
 40
0
 40
0
 40
0
 40
0
 40
1
 40
1
 40
1
 40
1
 10
142.633916
 20
78.087910
 30
0.0
 10
142.633916
 20
77.368380
 30
0.0
 10
142.873763
 20
76.755420
 30
0.0
 10
143.353459
 20
76.249080
 30
0.0
  0
SPLINE
  5
13a
100
AcDbEntity
  8
Ebene_1
 62
7
100
AcDbSpline
 70
8
 71
3
 72
8
 73
4
 74
0
 40
0
 40
0
 40
0
 40
0
 40
1
 40
1
 40
1
 40
1
 10
143.353459
 20
76.249080
 30
0.0
 10
143.859803
 20
75.769390
 30
0.0
 10
144.472749
 20
75.529530
 30
0.0
 10
145.192292
 20
75.529530
 30
0.0
  0
LWPOLYLINE
  5
13b
100
AcDbEntity
  8
Ebene_1
 62
7
100
AcDbPolyline
 90
1
 70
1
 10
155.425790
 20
65.296040
 30
0.0
  0
LWPOLYLINE
  5
13c
100
AcDbEntity
  8
Ebene_1
 62
7
100
AcDbPolyline
 90
1
 70
1
 10
145.192292
 20
75.529530
 30
0.0
  0
SPLINE
  5
13d
100
AcDbEntity
  8
Ebene_1
 62
7
100
AcDbSpline
 70
8
 71
3
 72
8
 73
4
 74
0
 40
0
 40
0
 40
0
 40
0
 40
1
 40
1
 40
1
 40
1
 10
148.230361
 20
73.970530
 30
0.0
 10
147.350920
 20
73.304270
 30
0.0
 10
146.338231
 20
72.971160
 30
0.0
 10
145.192292
 20
72.971160
 30
0.0
  0
SPLINE
  5
13e
100
AcDbEntity
  8
Ebene_1
 62
7
100
AcDbSpline
 70
8
 71
3
 72
8
 73
4
 74
0
 40
0
 40
0
 40
0
 40
0
 40
1
 40
1
 40
1
 40
1
 10
145.192292
 20
72.971160
 30
0.0
 10
143.779855
 20
72.971160
 30
0.0
 10
142.567291
 20
73.464180
 30
0.0
 10
141.554602
 20
74.450230
 30
0.0
  0
SPLINE
  5
13f
100
AcDbEntity
  8
Ebene_1
 62
7
100
AcDbSpline
 70
8
 71
3
 72
8
 73
4
 74
0
 40
0
 40
0
 40
0
 40
0
 40
1
 40
1
 40
1
 40
1
 10
141.554602
 20
74.450230
 30
0.0
 10
140.568561
 20
75.462910
 30
0.0
 10
140.075541
 20
76.675470
 30
0.0
 10
140.075541
 20
78.087910
 30
0.0
  0
SPLINE
  5
140
100
AcDbEntity
  8
Ebene_1
 62
7
100
AcDbSpline
 70
8
 71
3
 72
8
 73
4
 74
0
 40
0
 40
0
 40
0
 40
0
 40
1
 40
1
 40
1
 40
1
 10
140.075541
 20
78.087910
 30
0.0
 10
140.075541
 20
79.473700
 30
0.0
 10
140.568561
 20
80.672930
 30
0.0
 10
141.554602
 20
81.685620
 30
0.0
  0
SPLINE
  5
141
100
AcDbEntity
  8
Ebene_1
 62
7
100
AcDbSpline
 70
8
 71
3
 72
8
 73
4
 74
0
 40
0
 40
0
 40
0
 40
0
 40
1
 40
1
 40
1
 40
1
 10
141.554602
 20
81.685620
 30
0.0
 10
142.567291
 20
82.698330
 30
0.0
 10
143.779855
 20
83.204660
 30
0.0
 10
145.192292
 20
83.204660
 30
0.0
  0
SPLINE
  5
142
100
AcDbEntity
  8
Ebene_1
 62
7
100
AcDbSpline
 70
8
 71
3
 72
8
 73
4
 74
0
 40
0
 40
0
 40
0
 40
0
 40
1
 40
1
 40
1
 40
1
 10
145.192292
 20
83.204660
 30
0.0
 10
146.578077
 20
83.204660
 30
0.0
 10
147.777315
 20
82.698330
 30
0.0
 10
148.790006
 20
81.685620
 30
0.0
  0
SPLINE
  5
143
100
AcDbEntity
  8
Ebene_1
 62
7
100
AcDbSpline
 70
8
 71
3
 72
8
 73
4
 74
0
 40
0
 40
0
 40
0
 40
0
 40
1
 40
1
 40
1
 40
1
 10
148.790006
 20
81.685620
 30
0.0
 10
149.802696
 20
80.672930
 30
0.0
 10
150.309042
 20
79.473700
 30
0.0
 10
150.309042
 20
78.087910
 30
0.0
  0
LWPOLYLINE
  5
144
100
AcDbEntity
  8
Ebene_1
 62
7
100
AcDbPolyline
 90
2
 70
0
 10
142.633916
 20
62.737660
 30
0.0
 10
148.230361
 20
73.970530
 30
0.0
  0
SPLINE
  5
145
100
AcDbEntity
  8
Ebene_1
 62
7
100
AcDbSpline
 70
8
 71
3
 72
8
 73
4
 74
0
 40
0
 40
0
 40
0
 40
0
 40
1
 40
1
 40
1
 40
1
 10
152.347746
 20
71.931820
 30
0.0
 10
153.227187
 20
72.624710
 30
0.0
 10
154.253202
 20
72.971160
 30
0.0
 10
155.425790
 20
72.971160
 30
0.0
  0
SPLINE
  5
146
100
AcDbEntity
  8
Ebene_1
 62
7
100
AcDbSpline
 70
8
 71
3
 72
8
 73
4
 74
0
 40
0
 40
0
 40
0
 40
0
 40
1
 40
1
 40
1
 40
1
 10
155.425790
 20
72.971160
 30
0.0
 10
156.811577
 20
72.971160
 30
0.0
 10
158.010815
 20
72.464820
 30
0.0
 10
159.023506
 20
71.452120
 30
0.0
  0
SPLINE
  5
147
100
AcDbEntity
  8
Ebene_1
 62
7
100
AcDbSpline
 70
8
 71
3
 72
8
 73
4
 74
0
 40
0
 40
0
 40
0
 40
0
 40
1
 40
1
 40
1
 40
1
 10
159.023506
 20
71.452120
 30
0.0
 10
160.036196
 20
70.439440
 30
0.0
 10
160.542541
 20
69.240200
 30
0.0
 10
160.542541
 20
67.854400
 30
0.0
  0
SPLINE
  5
148
100
AcDbEntity
  8
Ebene_1
 62
7
100
AcDbSpline
 70
8
 71
3
 72
8
 73
4
 74
0
 40
0
 40
0
 40
0
 40
0
 40
1
 40
1
 40
1
 40
1
 10
160.542541
 20
67.854400
 30
0.0
 10
160.542541
 20
66.441980
 30
0.0
 10
160.036196
 20
65.229410
 30
0.0
 10
159.023506
 20
64.216720
 30
0.0
  0
SPLINE
  5
149
100
AcDbEntity
  8
Ebene_1
 62
7
100
AcDbSpline
 70
8
 71
3
 72
8
 73
4
 74
0
 40
0
 40
0
 40
0
 40
0
 40
1
 40
1
 40
1
 40
1
 10
159.023506
 20
64.216720
 30
0.0
 10
158.010815
 20
63.230670
 30
0.0
 10
156.811577
 20
62.737660
 30
0.0
 10
155.425790
 20
62.737660
 30
0.0
  0
SPLINE
  5
14a
100
AcDbEntity
  8
Ebene_1
 62
7
100
AcDbSpline
 70
8
 71
3
 72
8
 73
4
 74
0
 40
0
 40
0
 40
0
 40
0
 40
1
 40
1
 40
1
 40
1
 10
155.425790
 20
62.737660
 30
0.0
 10
154.013355
 20
62.737660
 30
0.0
 10
152.800792
 20
63.230670
 30
0.0
 10
151.788102
 20
64.216720
 30
0.0
  0
SPLINE
  5
14b
100
AcDbEntity
  8
Ebene_1
 62
7
100
AcDbSpline
 70
8
 71
3
 72
8
 73
4
 74
0
 40
0
 40
0
 40
0
 40
0
 40
1
 40
1
 40
1
 40
1
 10
151.788102
 20
64.216720
 30
0.0
 10
150.802062
 20
65.229410
 30
0.0
 10
150.309042
 20
66.441980
 30
0.0
 10
150.309042
 20
67.854400
 30
0.0
  0
LWPOLYLINE
  5
14c
100
AcDbEntity
  8
Ebene_1
 62
7
100
AcDbPolyline
 90
5
 70
0
 10
150.309042
 20
78.087910
 30
0.0
 10
152.867416
 20
83.204660
 30
0.0
 10
157.984166
 20
83.204660
 30
0.0
 10
152.347746
 20
71.931820
 30
0.0
 10
152.347746
 20
71.931820
 30
0.0
  0
SPLINE
  5
14d
100
AcDbEntity
  8
Ebene_1
 62
7
100
AcDbSpline
 70
8
 71
3
 72
8
 73
4
 74
0
 40
0
 40
0
 40
0
 40
0
 40
1
 40
1
 40
1
 40
1
 10
34.732176
 20
36.032690
 30
0.0
 10
33.596264
 20
36.032690
 30
0.0
 10
32.639153
 20
36.421843
 30
0.0
 10
31.860843
 20
37.200150
 30
0.0
  0
SPLINE
  5
14e
100
AcDbEntity
  8
Ebene_1
 62
7
100
AcDbSpline
 70
8
 71
3
 72
8
 73
4
 74
0
 40
0
 40
0
 40
0
 40
0
 40
1
 40
1
 40
1
 40
1
 10
31.860843
 20
37.200150
 30
0.0
 10
31.082533
 20
37.999497
 30
0.0
 10
30.693378
 20
38.956610
 30
0.0
 10
30.693378
 20
40.071490
 30
0.0
  0
LWPOLYLINE
  5
14f
100
AcDbEntity
  8
Ebene_1
 62
7
100
AcDbPolyline
 90
3
 70
0
 10
150.309042
 20
67.854400
 30
0.0
 10
147.750666
 20
62.737660
 30
0.0
 10
142.633916
 20
62.737660
 30
0.0
  0
SPLINE
  5
150
100
AcDbEntity
  8
Ebene_1
 62
7
100
AcDbSpline
 70
8
 71
3
 72
8
 73
4
 74
0
 40
0
 40
0
 40
0
 40
0
 40
1
 40
1
 40
1
 40
1
 10
30.693378
 20
48.149080
 30
0.0
 10
30.693378
 20
49.263960
 30
0.0
 10
31.082533
 20
50.210553
 30
0.0
 10
31.860843
 20
50.988860
 30
0.0
  0
SPLINE
  5
151
100
AcDbEntity
  8
Ebene_1
 62
7
100
AcDbSpline
 70
8
 71
3
 72
8
 73
4
 74
0
 40
0
 40
0
 40
0
 40
0
 40
1
 40
1
 40
1
 40
1
 10
31.860843
 20
50.988860
 30
0.0
 10
32.660188
 20
51.788207
 30
0.0
 10
33.617299
 20
52.187880
 30
0.0
 10
34.732176
 20
52.187880
 30
0.0
  0
LWPOLYLINE
  5
152
100
AcDbEntity
  8
Ebene_1
 62
7
100
AcDbPolyline
 90
2
 70
0
 10
30.693378
 20
40.071490
 30
0.0
 10
30.693378
 20
48.149080
 30
0.0
  0
SPLINE
  5
153
100
AcDbEntity
  8
Ebene_1
 62
7
100
AcDbSpline
 70
8
 71
3
 72
8
 73
4
 74
0
 40
0
 40
0
 40
0
 40
0
 40
1
 40
1
 40
1
 40
1
 10
36.751575
 20
48.149080
 30
0.0
 10
36.183619
 20
48.149080
 30
0.0
 10
35.699805
 20
47.949243
 30
0.0
 10
35.300132
 20
47.549570
 30
0.0
  0
SPLINE
  5
154
100
AcDbEntity
  8
Ebene_1
 62
7
100
AcDbSpline
 70
8
 71
3
 72
8
 73
4
 74
0
 40
0
 40
0
 40
0
 40
0
 40
1
 40
1
 40
1
 40
1
 10
35.300132
 20
47.549570
 30
0.0
 10
34.921495
 20
47.149897
 30
0.0
 10
34.732176
 20
46.676600
 30
0.0
 10
34.732176
 20
46.129680
 30
0.0
  0
LWPOLYLINE
  5
155
100
AcDbEntity
  8
Ebene_1
 62
7
100
AcDbPolyline
 90
8
 70
0
 10
34.732176
 20
52.187880
 30
0.0
 10
50.887365
 20
52.187880
 30
0.0
 10
44.829169
 20
46.129680
 30
0.0
 10
50.887365
 20
46.129680
 30
0.0
 10
46.848568
 20
42.090890
 30
0.0
 10
36.751575
 20
42.090890
 30
0.0
 10
42.809771
 20
48.149080
 30
0.0
 10
36.751575
 20
48.149080
 30
0.0
  0
SPLINE
  5
156
100
AcDbEntity
  8
Ebene_1
 62
7
100
AcDbSpline
 70
8
 71
3
 72
8
 73
4
 74
0
 40
0
 40
0
 40
0
 40
0
 40
1
 40
1
 40
1
 40
1
 10
34.732176
 20
42.090890
 30
0.0
 10
34.732176
 20
41.522930
 30
0.0
 10
34.921495
 20
41.039113
 30
0.0
 10
35.300132
 20
40.639440
 30
0.0
  0
SPLINE
  5
157
100
AcDbEntity
  8
Ebene_1
 62
7
100
AcDbSpline
 70
8
 71
3
 72
8
 73
4
 74
0
 40
0
 40
0
 40
0
 40
0
 40
1
 40
1
 40
1
 40
1
 10
35.300132
 20
40.639440
 30
0.0
 10
35.699805
 20
40.260807
 30
0.0
 10
36.183619
 20
40.071490
 30
0.0
 10
36.751575
 20
40.071490
 30
0.0
  0
LWPOLYLINE
  5
158
100
AcDbEntity
  8
Ebene_1
 62
7
100
AcDbPolyline
 90
2
 70
0
 10
34.732176
 20
46.129680
 30
0.0
 10
34.732176
 20
42.090890
 30
0.0
  0
SPLINE
  5
159
100
AcDbEntity
  8
Ebene_1
 62
7
100
AcDbSpline
 70
8
 71
3
 72
8
 73
4
 74
0
 40
0
 40
0
 40
0
 40
0
 40
1
 40
1
 40
1
 40
1
 10
50.887365
 20
40.071490
 30
0.0
 10
50.887365
 20
38.935577
 30
0.0
 10
50.487692
 20
37.978463
 30
0.0
 10
49.688347
 20
37.200150
 30
0.0
  0
SPLINE
  5
15a
100
AcDbEntity
  8
Ebene_1
 62
7
100
AcDbSpline
 70
8
 71
3
 72
8
 73
4
 74
0
 40
0
 40
0
 40
0
 40
0
 40
1
 40
1
 40
1
 40
1
 10
49.688347
 20
37.200150
 30
0.0
 10
48.889002
 20
36.421843
 30
0.0
 10
47.942409
 20
36.032690
 30
0.0
 10
46.848568
 20
36.032690
 30
0.0
  0
LWPOLYLINE
  5
15b
100
AcDbEntity
  8
Ebene_1
 62
7
100
AcDbPolyline
 90
2
 70
0
 10
36.751575
 20
40.071490
 30
0.0
 10
50.887365
 20
40.071490
 30
0.0
  0
LWPOLYLINE
  5
15c
100
AcDbEntity
  8
Ebene_1
 62
7
100
AcDbPolyline
 90
2
 70
0
 10
46.848568
 20
36.032690
 30
0.0
 10
34.732176
 20
36.032690
 30
0.0
  0
SPLINE
  5
15d
100
AcDbEntity
  8
Ebene_1
 62
7
100
AcDbSpline
 70
8
 71
3
 72
8
 73
4
 74
0
 40
0
 40
0
 40
0
 40
0
 40
1
 40
1
 40
1
 40
1
 10
67.042555
 20
36.032690
 30
0.0
 10
65.906643
 20
36.032690
 30
0.0
 10
64.949532
 20
36.421843
 30
0.0
 10
64.171222
 20
37.200150
 30
0.0
  0
SPLINE
  5
15e
100
AcDbEntity
  8
Ebene_1
 62
7
100
AcDbSpline
 70
8
 71
3
 72
8
 73
4
 74
0
 40
0
 40
0
 40
0
 40
0
 40
1
 40
1
 40
1
 40
1
 10
64.171222
 20
37.200150
 30
0.0
 10
63.392912
 20
37.999497
 30
0.0
 10
63.003757
 20
38.956610
 30
0.0
 10
63.003757
 20
40.071490
 30
0.0
  0
LWPOLYLINE
  5
15f
100
AcDbEntity
  8
Ebene_1
 62
7
100
AcDbPolyline
 90
4
 70
1
 10
54.926163
 20
36.032690
 30
0.0
 10
54.926163
 20
56.226680
 30
0.0
 10
58.964960
 20
56.226680
 30
0.0
 10
58.964960
 20
36.032690
 30
0.0
  0
SPLINE
  5
160
100
AcDbEntity
  8
Ebene_1
 62
7
100
AcDbSpline
 70
8
 71
3
 72
8
 73
4
 74
0
 40
0
 40
0
 40
0
 40
0
 40
1
 40
1
 40
1
 40
1
 10
63.003757
 20
48.149080
 30
0.0
 10
63.003757
 20
49.263960
 30
0.0
 10
63.392912
 20
50.210553
 30
0.0
 10
64.171222
 20
50.988860
 30
0.0
  0
SPLINE
  5
161
100
AcDbEntity
  8
Ebene_1
 62
7
100
AcDbSpline
 70
8
 71
3
 72
8
 73
4
 74
0
 40
0
 40
0
 40
0
 40
0
 40
1
 40
1
 40
1
 40
1
 10
64.171222
 20
50.988860
 30
0.0
 10
64.970568
 20
51.788207
 30
0.0
 10
65.927678
 20
52.187880
 30
0.0
 10
67.042555
 20
52.187880
 30
0.0
  0
LWPOLYLINE
  5
162
100
AcDbEntity
  8
Ebene_1
 62
7
100
AcDbPolyline
 90
2
 70
0
 10
63.003757
 20
40.071490
 30
0.0
 10
63.003757
 20
48.149080
 30
0.0
  0
SPLINE
  5
163
100
AcDbEntity
  8
Ebene_1
 62
7
100
AcDbSpline
 70
8
 71
3
 72
8
 73
4
 74
0
 40
0
 40
0
 40
0
 40
0
 40
1
 40
1
 40
1
 40
1
 10
69.061954
 20
48.149080
 30
0.0
 10
68.493998
 20
48.149080
 30
0.0
 10
68.010183
 20
47.949243
 30
0.0
 10
67.610511
 20
47.549570
 30
0.0
  0
SPLINE
  5
164
100
AcDbEntity
  8
Ebene_1
 62
7
100
AcDbSpline
 70
8
 71
3
 72
8
 73
4
 74
0
 40
0
 40
0
 40
0
 40
0
 40
1
 40
1
 40
1
 40
1
 10
67.610511
 20
47.549570
 30
0.0
 10
67.231874
 20
47.149897
 30
0.0
 10
67.042555
 20
46.676600
 30
0.0
 10
67.042555
 20
46.129680
 30
0.0
  0
LWPOLYLINE
  5
165
100
AcDbEntity
  8
Ebene_1
 62
7
100
AcDbPolyline
 90
8
 70
0
 10
67.042555
 20
52.187880
 30
0.0
 10
83.197744
 20
52.187880
 30
0.0
 10
77.139548
 20
46.129680
 30
0.0
 10
83.197744
 20
46.129680
 30
0.0
 10
79.158947
 20
42.090890
 30
0.0
 10
69.061954
 20
42.090890
 30
0.0
 10
75.120150
 20
48.149080
 30
0.0
 10
69.061954
 20
48.149080
 30
0.0
  0
SPLINE
  5
166
100
AcDbEntity
  8
Ebene_1
 62
7
100
AcDbSpline
 70
8
 71
3
 72
8
 73
4
 74
0
 40
0
 40
0
 40
0
 40
0
 40
1
 40
1
 40
1
 40
1
 10
67.042555
 20
42.090890
 30
0.0
 10
67.042555
 20
41.522930
 30
0.0
 10
67.231874
 20
41.039113
 30
0.0
 10
67.610511
 20
40.639440
 30
0.0
  0
SPLINE
  5
167
100
AcDbEntity
  8
Ebene_1
 62
7
100
AcDbSpline
 70
8
 71
3
 72
8
 73
4
 74
0
 40
0
 40
0
 40
0
 40
0
 40
1
 40
1
 40
1
 40
1
 10
67.610511
 20
40.639440
 30
0.0
 10
68.010183
 20
40.260807
 30
0.0
 10
68.493998
 20
40.071490
 30
0.0
 10
69.061954
 20
40.071490
 30
0.0
  0
LWPOLYLINE
  5
168
100
AcDbEntity
  8
Ebene_1
 62
7
100
AcDbPolyline
 90
2
 70
0
 10
67.042555
 20
46.129680
 30
0.0
 10
67.042555
 20
42.090890
 30
0.0
  0
SPLINE
  5
169
100
AcDbEntity
  8
Ebene_1
 62
7
100
AcDbSpline
 70
8
 71
3
 72
8
 73
4
 74
0
 40
0
 40
0
 40
0
 40
0
 40
1
 40
1
 40
1
 40
1
 10
83.197744
 20
40.071490
 30
0.0
 10
83.197744
 20
38.935577
 30
0.0
 10
82.798071
 20
37.978463
 30
0.0
 10
81.998726
 20
37.200150
 30
0.0
  0
SPLINE
  5
16a
100
AcDbEntity
  8
Ebene_1
 62
7
100
AcDbSpline
 70
8
 71
3
 72
8
 73
4
 74
0
 40
0
 40
0
 40
0
 40
0
 40
1
 40
1
 40
1
 40
1
 10
81.998726
 20
37.200150
 30
0.0
 10
81.199381
 20
36.421843
 30
0.0
 10
80.252788
 20
36.032690
 30
0.0
 10
79.158947
 20
36.032690
 30
0.0
  0
LWPOLYLINE
  5
16b
100
AcDbEntity
  8
Ebene_1
 62
7
100
AcDbPolyline
 90
2
 70
0
 10
69.061954
 20
40.071490
 30
0.0
 10
83.197744
 20
40.071490
 30
0.0
  0
SPLINE
  5
16c
100
AcDbEntity
  8
Ebene_1
 62
7
100
AcDbSpline
 70
8
 71
3
 72
8
 73
4
 74
0
 40
0
 40
0
 40
0
 40
0
 40
1
 40
1
 40
1
 40
1
 10
91.275339
 20
36.032690
 30
0.0
 10
90.139427
 20
36.032690
 30
0.0
 10
89.182316
 20
36.421843
 30
0.0
 10
88.404007
 20
37.200150
 30
0.0
  0
SPLINE
  5
16d
100
AcDbEntity
  8
Ebene_1
 62
7
100
AcDbSpline
 70
8
 71
3
 72
8
 73
4
 74
0
 40
0
 40
0
 40
0
 40
0
 40
1
 40
1
 40
1
 40
1
 10
88.404007
 20
37.200150
 30
0.0
 10
87.625697
 20
37.999497
 30
0.0
 10
87.236542
 20
38.956610
 30
0.0
 10
87.236542
 20
40.071490
 30
0.0
  0
LWPOLYLINE
  5
16e
100
AcDbEntity
  8
Ebene_1
 62
7
100
AcDbPolyline
 90
2
 70
0
 10
79.158947
 20
36.032690
 30
0.0
 10
67.042555
 20
36.032690
 30
0.0
  0
SPLINE
  5
16f
100
AcDbEntity
  8
Ebene_1
 62
7
100
AcDbSpline
 70
8
 71
3
 72
8
 73
4
 74
0
 40
0
 40
0
 40
0
 40
0
 40
1
 40
1
 40
1
 40
1
 10
107.430529
 20
52.187880
 30
0.0
 10
107.430529
 20
51.051967
 30
0.0
 10
107.030856
 20
50.094857
 30
0.0
 10
106.231511
 20
49.316550
 30
0.0
  0
SPLINE
  5
170
100
AcDbEntity
  8
Ebene_1
 62
7
100
AcDbSpline
 70
8
 71
3
 72
8
 73
4
 74
0
 40
0
 40
0
 40
0
 40
0
 40
1
 40
1
 40
1
 40
1
 10
106.231511
 20
49.316550
 30
0.0
 10
105.432166
 20
48.538237
 30
0.0
 10
104.485572
 20
48.149080
 30
0.0
 10
103.391731
 20
48.149080
 30
0.0
  0
LWPOLYLINE
  5
171
100
AcDbEntity
  8
Ebene_1
 62
7
100
AcDbPolyline
 90
3
 70
0
 10
87.236542
 20
40.071490
 30
0.0
 10
87.236542
 20
52.187880
 30
0.0
 10
107.430529
 20
52.187880
 30
0.0
  0
SPLINE
  5
172
100
AcDbEntity
  8
Ebene_1
 62
7
100
AcDbSpline
 70
8
 71
3
 72
8
 73
4
 74
0
 40
0
 40
0
 40
0
 40
0
 40
1
 40
1
 40
1
 40
1
 10
91.275339
 20
42.090890
 30
0.0
 10
91.275339
 20
41.522930
 30
0.0
 10
91.464658
 20
41.039113
 30
0.0
 10
91.843295
 20
40.639440
 30
0.0
  0
SPLINE
  5
173
100
AcDbEntity
  8
Ebene_1
 62
7
100
AcDbSpline
 70
8
 71
3
 72
8
 73
4
 74
0
 40
0
 40
0
 40
0
 40
0
 40
1
 40
1
 40
1
 40
1
 10
91.843295
 20
40.639440
 30
0.0
 10
92.242968
 20
40.260807
 30
0.0
 10
92.726782
 20
40.071490
 30
0.0
 10
93.294738
 20
40.071490
 30
0.0
  0
LWPOLYLINE
  5
174
100
AcDbEntity
  8
Ebene_1
 62
7
100
AcDbPolyline
 90
3
 70
0
 10
103.391731
 20
48.149080
 30
0.0
 10
91.275339
 20
48.149080
 30
0.0
 10
91.275339
 20
42.090890
 30
0.0
  0
SPLINE
  5
175
100
AcDbEntity
  8
Ebene_1
 62
7
100
AcDbSpline
 70
8
 71
3
 72
8
 73
4
 74
0
 40
0
 40
0
 40
0
 40
0
 40
1
 40
1
 40
1
 40
1
 10
107.430529
 20
40.071490
 30
0.0
 10
107.430529
 20
38.935577
 30
0.0
 10
107.030856
 20
37.978463
 30
0.0
 10
106.231511
 20
37.200150
 30
0.0
  0
SPLINE
  5
176
100
AcDbEntity
  8
Ebene_1
 62
7
100
AcDbSpline
 70
8
 71
3
 72
8
 73
4
 74
0
 40
0
 40
0
 40
0
 40
0
 40
1
 40
1
 40
1
 40
1
 10
106.231511
 20
37.200150
 30
0.0
 10
105.432166
 20
36.421843
 30
0.0
 10
104.485572
 20
36.032690
 30
0.0
 10
103.391731
 20
36.032690
 30
0.0
  0
LWPOLYLINE
  5
177
100
AcDbEntity
  8
Ebene_1
 62
7
100
AcDbPolyline
 90
2
 70
0
 10
93.294738
 20
40.071490
 30
0.0
 10
107.430529
 20
40.071490
 30
0.0
  0
SPLINE
  5
178
100
AcDbEntity
  8
Ebene_1
 62
7
100
AcDbSpline
 70
8
 71
3
 72
8
 73
4
 74
0
 40
0
 40
0
 40
0
 40
0
 40
1
 40
1
 40
1
 40
1
 10
119.546921
 20
36.032690
 30
0.0
 10
118.411009
 20
36.032690
 30
0.0
 10
117.453898
 20
36.421843
 30
0.0
 10
116.675588
 20
37.200150
 30
0.0
  0
SPLINE
  5
179
100
AcDbEntity
  8
Ebene_1
 62
7
100
AcDbSpline
 70
8
 71
3
 72
8
 73
4
 74
0
 40
0
 40
0
 40
0
 40
0
 40
1
 40
1
 40
1
 40
1
 10
116.675588
 20
37.200150
 30
0.0
 10
115.897278
 20
37.999497
 30
0.0
 10
115.508123
 20
38.956610
 30
0.0
 10
115.508123
 20
40.071490
 30
0.0
  0
LWPOLYLINE
  5
17a
100
AcDbEntity
  8
Ebene_1
 62
7
100
AcDbPolyline
 90
2
 70
0
 10
103.391731
 20
36.032690
 30
0.0
 10
91.275339
 20
36.032690
 30
0.0
  0
SPLINE
  5
17b
100
AcDbEntity
  8
Ebene_1
 62
7
100
AcDbSpline
 70
8
 71
3
 72
8
 73
4
 74
0
 40
0
 40
0
 40
0
 40
0
 40
1
 40
1
 40
1
 40
1
 10
111.469326
 20
48.149080
 30
0.0
 10
111.469326
 20
49.263960
 30
0.0
 10
111.858481
 20
50.210553
 30
0.0
 10
112.636791
 20
50.988860
 30
0.0
  0
SPLINE
  5
17c
100
AcDbEntity
  8
Ebene_1
 62
7
100
AcDbSpline
 70
8
 71
3
 72
8
 73
4
 74
0
 40
0
 40
0
 40
0
 40
0
 40
1
 40
1
 40
1
 40
1
 10
112.636791
 20
50.988860
 30
0.0
 10
113.436136
 20
51.788207
 30
0.0
 10
114.393247
 20
52.187880
 30
0.0
 10
115.508123
 20
52.187880
 30
0.0
  0
LWPOLYLINE
  5
17d
100
AcDbEntity
  8
Ebene_1
 62
7
100
AcDbPolyline
 90
3
 70
0
 10
115.508123
 20
40.071490
 30
0.0
 10
115.508123
 20
48.149080
 30
0.0
 10
111.469326
 20
48.149080
 30
0.0
  0
SPLINE
  5
17e
100
AcDbEntity
  8
Ebene_1
 62
7
100
AcDbSpline
 70
8
 71
3
 72
8
 73
4
 74
0
 40
0
 40
0
 40
0
 40
0
 40
1
 40
1
 40
1
 40
1
 10
131.663313
 20
52.187880
 30
0.0
 10
131.663313
 20
51.051967
 30
0.0
 10
131.263640
 20
50.094857
 30
0.0
 10
130.464295
 20
49.316550
 30
0.0
  0
SPLINE
  5
17f
100
AcDbEntity
  8
Ebene_1
 62
7
100
AcDbSpline
 70
8
 71
3
 72
8
 73
4
 74
0
 40
0
 40
0
 40
0
 40
0
 40
1
 40
1
 40
1
 40
1
 10
130.464295
 20
49.316550
 30
0.0
 10
129.664950
 20
48.538237
 30
0.0
 10
128.718357
 20
48.149080
 30
0.0
 10
127.624516
 20
48.149080
 30
0.0
  0
LWPOLYLINE
  5
180
100
AcDbEntity
  8
Ebene_1
 62
7
100
AcDbPolyline
 90
5
 70
0
 10
115.508123
 20
52.187880
 30
0.0
 10
115.508123
 20
56.226680
 30
0.0
 10
119.546921
 20
56.226680
 30
0.0
 10
119.546921
 20
52.187880
 30
0.0
 10
131.663313
 20
52.187880
 30
0.0
  0
SPLINE
  5
181
100
AcDbEntity
  8
Ebene_1
 62
7
100
AcDbSpline
 70
8
 71
3
 72
8
 73
4
 74
0
 40
0
 40
0
 40
0
 40
0
 40
1
 40
1
 40
1
 40
1
 10
119.546921
 20
42.090890
 30
0.0
 10
119.546921
 20
41.522930
 30
0.0
 10
119.736240
 20
41.039113
 30
0.0
 10
120.114877
 20
40.639440
 30
0.0
  0
SPLINE
  5
182
100
AcDbEntity
  8
Ebene_1
 62
7
100
AcDbSpline
 70
8
 71
3
 72
8
 73
4
 74
0
 40
0
 40
0
 40
0
 40
0
 40
1
 40
1
 40
1
 40
1
 10
120.114877
 20
40.639440
 30
0.0
 10
120.514550
 20
40.260807
 30
0.0
 10
120.998364
 20
40.071490
 30
0.0
 10
121.566319
 20
40.071490
 30
0.0
  0
LWPOLYLINE
  5
183
100
AcDbEntity
  8
Ebene_1
 62
7
100
AcDbPolyline
 90
3
 70
0
 10
127.624516
 20
48.149080
 30
0.0
 10
119.546921
 20
48.149080
 30
0.0
 10
119.546921
 20
42.090890
 30
0.0
  0
SPLINE
  5
184
100
AcDbEntity
  8
Ebene_1
 62
7
100
AcDbSpline
 70
8
 71
3
 72
8
 73
4
 74
0
 40
0
 40
0
 40
0
 40
0
 40
1
 40
1
 40
1
 40
1
 10
131.663313
 20
40.071490
 30
0.0
 10
131.663313
 20
38.935577
 30
0.0
 10
131.263640
 20
37.978463
 30
0.0
 10
130.464295
 20
37.200150
 30
0.0
  0
SPLINE
  5
185
100
AcDbEntity
  8
Ebene_1
 62
7
100
AcDbSpline
 70
8
 71
3
 72
8
 73
4
 74
0
 40
0
 40
0
 40
0
 40
0
 40
1
 40
1
 40
1
 40
1
 10
130.464295
 20
37.200150
 30
0.0
 10
129.664950
 20
36.421843
 30
0.0
 10
128.718357
 20
36.032690
 30
0.0
 10
127.624516
 20
36.032690
 30
0.0
  0
LWPOLYLINE
  5
186
100
AcDbEntity
  8
Ebene_1
 62
7
100
AcDbPolyline
 90
2
 70
0
 10
121.566319
 20
40.071490
 30
0.0
 10
131.663313
 20
40.071490
 30
0.0
  0
LWPOLYLINE
  5
187
100
AcDbEntity
  8
Ebene_1
 62
7
100
AcDbPolyline
 90
2
 70
0
 10
127.624516
 20
36.032690
 30
0.0
 10
119.546921
 20
36.032690
 30
0.0
  0
SPLINE
  5
188
100
AcDbEntity
  8
Ebene_1
 62
7
100
AcDbSpline
 70
8
 71
3
 72
8
 73
4
 74
0
 40
0
 40
0
 40
0
 40
0
 40
1
 40
1
 40
1
 40
1
 10
135.702106
 20
48.149080
 30
0.0
 10
135.702106
 20
49.263960
 30
0.0
 10
136.091261
 20
50.210553
 30
0.0
 10
136.869571
 20
50.988860
 30
0.0
  0
SPLINE
  5
189
100
AcDbEntity
  8
Ebene_1
 62
7
100
AcDbSpline
 70
8
 71
3
 72
8
 73
4
 74
0
 40
0
 40
0
 40
0
 40
0
 40
1
 40
1
 40
1
 40
1
 10
136.869571
 20
50.988860
 30
0.0
 10
137.668916
 20
51.788207
 30
0.0
 10
138.626027
 20
52.187880
 30
0.0
 10
139.740904
 20
52.187880
 30
0.0
  0
LWPOLYLINE
  5
18a
100
AcDbEntity
  8
Ebene_1
 62
7
100
AcDbPolyline
 90
2
 70
0
 10
135.702106
 20
36.032690
 30
0.0
 10
135.702106
 20
48.149080
 30
0.0
  0
SPLINE
  5
18b
100
AcDbEntity
  8
Ebene_1
 62
7
100
AcDbSpline
 70
8
 71
3
 72
8
 73
4
 74
0
 40
0
 40
0
 40
0
 40
0
 40
1
 40
1
 40
1
 40
1
 10
155.896093
 20
52.187880
 30
0.0
 10
155.896093
 20
51.051967
 30
0.0
 10
155.496420
 20
50.094857
 30
0.0
 10
154.697075
 20
49.316550
 30
0.0
  0
SPLINE
  5
18c
100
AcDbEntity
  8
Ebene_1
 62
7
100
AcDbSpline
 70
8
 71
3
 72
8
 73
4
 74
0
 40
0
 40
0
 40
0
 40
0
 40
1
 40
1
 40
1
 40
1
 10
154.697075
 20
49.316550
 30
0.0
 10
153.897730
 20
48.538237
 30
0.0
 10
152.951137
 20
48.149080
 30
0.0
 10
151.857296
 20
48.149080
 30
0.0
  0
LWPOLYLINE
  5
18d
100
AcDbEntity
  8
Ebene_1
 62
7
100
AcDbPolyline
 90
2
 70
0
 10
139.740904
 20
52.187880
 30
0.0
 10
155.896093
 20
52.187880
 30
0.0
  0
SPLINE
  5
18e
100
AcDbEntity
  8
Ebene_1
 62
7
100
AcDbSpline
 70
8
 71
3
 72
8
 73
4
 74
0
 40
0
 40
0
 40
0
 40
0
 40
1
 40
1
 40
1
 40
1
 10
141.760303
 20
48.149080
 30
0.0
 10
141.192347
 20
48.149080
 30
0.0
 10
140.708533
 20
47.949243
 30
0.0
 10
140.308860
 20
47.549570
 30
0.0
  0
SPLINE
  5
18f
100
AcDbEntity
  8
Ebene_1
 62
7
100
AcDbSpline
 70
8
 71
3
 72
8
 73
4
 74
0
 40
0
 40
0
 40
0
 40
0
 40
1
 40
1
 40
1
 40
1
 10
140.308860
 20
47.549570
 30
0.0
 10
139.930223
 20
47.149897
 30
0.0
 10
139.740904
 20
46.676600
 30
0.0
 10
139.740904
 20
46.129680
 30
0.0
  0
LWPOLYLINE
  5
190
100
AcDbEntity
  8
Ebene_1
 62
7
100
AcDbPolyline
 90
2
 70
0
 10
151.857296
 20
48.149080
 30
0.0
 10
141.760303
 20
48.149080
 30
0.0
  0
LWPOLYLINE
  5
191
100
AcDbEntity
  8
Ebene_1
 62
7
100
AcDbPolyline
 90
3
 70
0
 10
139.740904
 20
46.129680
 30
0.0
 10
139.740904
 20
36.032690
 30
0.0
 10
135.702106
 20
36.032690
 30
0.0
  0
SPLINE
  5
192
100
AcDbEntity
  8
Ebene_1
 62
7
100
AcDbSpline
 70
8
 71
3
 72
8
 73
4
 74
0
 40
0
 40
0
 40
0
 40
0
 40
1
 40
1
 40
1
 40
1
 10
172.051280
 20
36.032690
 30
0.0
 10
170.915373
 20
36.032690
 30
0.0
 10
169.958263
 20
36.421843
 30
0.0
 10
169.179950
 20
37.200150
 30
0.0
  0
SPLINE
  5
193
100
AcDbEntity
  8
Ebene_1
 62
7
100
AcDbSpline
 70
8
 71
3
 72
8
 73
4
 74
0
 40
0
 40
0
 40
0
 40
0
 40
1
 40
1
 40
1
 40
1
 10
169.179950
 20
37.200150
 30
0.0
 10
168.401641
 20
37.999497
 30
0.0
 10
168.012486
 20
38.956610
 30
0.0
 10
168.012486
 20
40.071490
 30
0.0
  0
LWPOLYLINE
  5
194
100
AcDbEntity
  8
Ebene_1
 62
7
100
AcDbPolyline
 90
4
 70
1
 10
159.934895
 20
36.032690
 30
0.0
 10
159.934895
 20
52.187880
 30
0.0
 10
163.973692
 20
52.187880
 30
0.0
 10
163.973692
 20
36.032690
 30
0.0
  0
SPLINE
  5
195
100
AcDbEntity
  8
Ebene_1
 62
7
100
AcDbSpline
 70
8
 71
3
 72
8
 73
4
 74
0
 40
0
 40
0
 40
0
 40
0
 40
1
 40
1
 40
1
 40
1
 10
188.206470
 20
52.187880
 30
0.0
 10
188.206470
 20
51.051967
 30
0.0
 10
187.806797
 20
50.094857
 30
0.0
 10
187.007450
 20
49.316550
 30
0.0
  0
SPLINE
  5
196
100
AcDbEntity
  8
Ebene_1
 62
7
100
AcDbSpline
 70
8
 71
3
 72
8
 73
4
 74
0
 40
0
 40
0
 40
0
 40
0
 40
1
 40
1
 40
1
 40
1
 10
187.007450
 20
49.316550
 30
0.0
 10
186.208110
 20
48.538237
 30
0.0
 10
185.261520
 20
48.149080
 30
0.0
 10
184.167680
 20
48.149080
 30
0.0
  0
LWPOLYLINE
  5
197
100
AcDbEntity
  8
Ebene_1
 62
7
100
AcDbPolyline
 90
3
 70
0
 10
168.012486
 20
40.071490
 30
0.0
 10
168.012486
 20
52.187880
 30
0.0
 10
188.206470
 20
52.187880
 30
0.0
  0
SPLINE
  5
198
100
AcDbEntity
  8
Ebene_1
 62
7
100
AcDbSpline
 70
8
 71
3
 72
8
 73
4
 74
0
 40
0
 40
0
 40
0
 40
0
 40
1
 40
1
 40
1
 40
1
 10
172.051280
 20
42.090890
 30
0.0
 10
172.051280
 20
41.522930
 30
0.0
 10
172.240600
 20
41.039113
 30
0.0
 10
172.619240
 20
40.639440
 30
0.0
  0
SPLINE
  5
199
100
AcDbEntity
  8
Ebene_1
 62
7
100
AcDbSpline
 70
8
 71
3
 72
8
 73
4
 74
0
 40
0
 40
0
 40
0
 40
0
 40
1
 40
1
 40
1
 40
1
 10
172.619240
 20
40.639440
 30
0.0
 10
173.018913
 20
40.260807
 30
0.0
 10
173.502727
 20
40.071490
 30
0.0
 10
174.070680
 20
40.071490
 30
0.0
  0
LWPOLYLINE
  5
19a
100
AcDbEntity
  8
Ebene_1
 62
7
100
AcDbPolyline
 90
3
 70
0
 10
184.167680
 20
48.149080
 30
0.0
 10
172.051280
 20
48.149080
 30
0.0
 10
172.051280
 20
42.090890
 30
0.0
  0
SPLINE
  5
19b
100
AcDbEntity
  8
Ebene_1
 62
7
100
AcDbSpline
 70
8
 71
3
 72
8
 73
4
 74
0
 40
0
 40
0
 40
0
 40
0
 40
1
 40
1
 40
1
 40
1
 10
188.206470
 20
40.071490
 30
0.0
 10
188.206470
 20
38.935577
 30
0.0
 10
187.806797
 20
37.978463
 30
0.0
 10
187.007450
 20
37.200150
 30
0.0
  0
SPLINE
  5
19c
100
AcDbEntity
  8
Ebene_1
 62
7
100
AcDbSpline
 70
8
 71
3
 72
8
 73
4
 74
0
 40
0
 40
0
 40
0
 40
0
 40
1
 40
1
 40
1
 40
1
 10
187.007450
 20
37.200150
 30
0.0
 10
186.208110
 20
36.421843
 30
0.0
 10
185.261520
 20
36.032690
 30
0.0
 10
184.167680
 20
36.032690
 30
0.0
  0
LWPOLYLINE
  5
19d
100
AcDbEntity
  8
Ebene_1
 62
7
100
AcDbPolyline
 90
2
 70
0
 10
174.070680
 20
40.071490
 30
0.0
 10
188.206470
 20
40.071490
 30
0.0
  0
SPLINE
  5
19e
100
AcDbEntity
  8
Ebene_1
 62
7
100
AcDbSpline
 70
8
 71
3
 72
8
 73
4
 74
0
 40
0
 40
0
 40
0
 40
0
 40
1
 40
1
 40
1
 40
1
 10
370.964850
 20
264.421890
 30
0.0
 10
369.952340
 20
265.103750
 30
0.0
 10
368.690940
 20
266.698850
 30
0.0
 10
368.690940
 20
267.297350
 30
0.0
  0
SPLINE
  5
19f
100
AcDbEntity
  8
Ebene_1
 62
7
100
AcDbSpline
 70
8
 71
3
 72
8
 73
4
 74
0
 40
0
 40
0
 40
0
 40
0
 40
1
 40
1
 40
1
 40
1
 10
368.690940
 20
267.297350
 30
0.0
 10
368.690940
 20
267.512400
 30
0.0
 10
370.781730
 20
267.562880
 30
0.0
 10
379.685060
 20
267.562880
 30
0.0
  0
SPLINE
  5
1a0
100
AcDbEntity
  8
Ebene_1
 62
7
100
AcDbSpline
 70
8
 71
3
 72
8
 73
4
 74
0
 40
0
 40
0
 40
0
 40
0
 40
1
 40
1
 40
1
 40
1
 10
379.685060
 20
267.562880
 30
0.0
 10
387.159520
 20
267.562880
 30
0.0
 10
390.679130
 20
267.495080
 30
0.0
 10
390.679130
 20
267.351190
 30
0.0
  0
SPLINE
  5
1a1
100
AcDbEntity
  8
Ebene_1
 62
7
100
AcDbSpline
 70
8
 71
3
 72
8
 73
4
 74
0
 40
0
 40
0
 40
0
 40
0
 40
1
 40
1
 40
1
 40
1
 10
390.679130
 20
267.351190
 30
0.0
 10
390.679130
 20
266.933340
 30
0.0
 10
389.890910
 20
265.618380
 30
0.0
 10
389.323520
 20
265.089620
 30
0.0
  0
SPLINE
  5
1a2
100
AcDbEntity
  8
Ebene_1
 62
7
100
AcDbSpline
 70
8
 71
3
 72
8
 73
4
 74
0
 40
0
 40
0
 40
0
 40
0
 40
1
 40
1
 40
1
 40
1
 10
389.323520
 20
265.089620
 30
0.0
 10
389.005330
 20
264.793090
 30
0.0
 10
388.424330
 20
264.358250
 30
0.0
 10
388.032430
 20
264.123300
 30
0.0
  0
SPLINE
  5
1a3
100
AcDbEntity
  8
Ebene_1
 62
7
100
AcDbSpline
 70
8
 71
3
 72
8
 73
4
 74
0
 40
0
 40
0
 40
0
 40
0
 40
1
 40
1
 40
1
 40
1
 10
388.032430
 20
264.123300
 30
0.0
 10
387.342580
 20
263.709720
 30
0.0
 10
387.076140
 20
263.696100
 30
0.0
 10
379.682340
 20
263.695350
 30
0.0
  0
LWPOLYLINE
  5
1a4
100
AcDbEntity
  8
Ebene_1
 62
7
100
AcDbPolyline
 90
2
 70
0
 10
184.167680
 20
36.032690
 30
0.0
 10
172.051280
 20
36.032690
 30
0.0
  0
SPLINE
  5
1a5
100
AcDbEntity
  8
Ebene_1
 62
7
100
AcDbSpline
 70
8
 71
3
 72
8
 73
4
 74
0
 40
0
 40
0
 40
0
 40
0
 40
1
 40
1
 40
1
 40
1
 10
275.849600
 20
264.408890
 30
0.0
 10
274.538030
 20
265.291520
 30
0.0
 10
273.436070
 20
266.604520
 30
0.0
 10
273.416120
 20
267.308460
 30
0.0
  0
SPLINE
  5
1a6
100
AcDbEntity
  8
Ebene_1
 62
7
100
AcDbSpline
 70
8
 71
3
 72
8
 73
4
 74
0
 40
0
 40
0
 40
0
 40
0
 40
1
 40
1
 40
1
 40
1
 10
273.416120
 20
267.308460
 30
0.0
 10
273.411120
 20
267.509010
 30
0.0
 10
275.742340
 20
267.562960
 30
0.0
 10
284.416730
 20
267.562960
 30
0.0
  0
LWPOLYLINE
  5
1a7
100
AcDbEntity
  8
Ebene_1
 62
7
100
AcDbPolyline
 90
4
 70
0
 10
379.682340
 20
263.695350
 30
0.0
 10
372.044820
 20
263.695350
 30
0.0
 10
370.964850
 20
264.422640
 30
0.0
 10
370.964850
 20
264.421890
 30
0.0
  0
SPLINE
  5
1a8
100
AcDbEntity
  8
Ebene_1
 62
7
100
AcDbSpline
 70
8
 71
3
 72
8
 73
4
 74
0
 40
0
 40
0
 40
0
 40
0
 40
1
 40
1
 40
1
 40
1
 10
295.288640
 20
267.104880
 30
0.0
 10
295.028450
 20
266.227790
 30
0.0
 10
294.079070
 20
265.065690
 30
0.0
 10
293.064470
 20
264.382430
 30
0.0
  0
LWPOLYLINE
  5
1a9
100
AcDbEntity
  8
Ebene_1
 62
7
100
AcDbPolyline
 90
3
 70
0
 10
284.416730
 20
267.562960
 30
0.0
 10
295.424500
 20
267.562960
 30
0.0
 10
295.288640
 20
267.104880
 30
0.0
  0
SPLINE
  5
1aa
100
AcDbEntity
  8
Ebene_1
 62
7
100
AcDbSpline
 70
8
 71
3
 72
8
 73
4
 74
0
 40
0
 40
0
 40
0
 40
0
 40
1
 40
1
 40
1
 40
1
 10
276.564610
 20
255.895510
 30
0.0
 10
275.455660
 20
256.491620
 30
0.0
 10
274.651560
 20
257.205710
 30
0.0
 10
274.026120
 20
258.150000
 30
0.0
  0
SPLINE
  5
1ab
100
AcDbEntity
  8
Ebene_1
 62
7
100
AcDbSpline
 70
8
 71
3
 72
8
 73
4
 74
0
 40
0
 40
0
 40
0
 40
0
 40
1
 40
1
 40
1
 40
1
 10
274.026120
 20
258.150000
 30
0.0
 10
272.821280
 20
259.968930
 30
0.0
 10
271.938820
 20
259.826380
 30
0.0
 10
284.402990
 20
259.826380
 30
0.0
  0
SPLINE
  5
1ac
100
AcDbEntity
  8
Ebene_1
 62
7
100
AcDbSpline
 70
8
 71
3
 72
8
 73
4
 74
0
 40
0
 40
0
 40
0
 40
0
 40
1
 40
1
 40
1
 40
1
 10
284.402990
 20
259.826380
 30
0.0
 10
291.943410
 20
259.826380
 30
0.0
 10
295.397070
 20
259.759380
 30
0.0
 10
295.397070
 20
259.612660
 30
0.0
  0
SPLINE
  5
1ad
100
AcDbEntity
  8
Ebene_1
 62
7
100
AcDbSpline
 70
8
 71
3
 72
8
 73
4
 74
0
 40
0
 40
0
 40
0
 40
0
 40
1
 40
1
 40
1
 40
1
 10
295.397070
 20
259.612660
 30
0.0
 10
295.397070
 20
258.800680
 30
0.0
 10
293.953100
 20
256.880710
 30
0.0
 10
292.785580
 20
256.140270
 30
0.0
  0
LWPOLYLINE
  5
1ae
100
AcDbEntity
  8
Ebene_1
 62
7
100
AcDbPolyline
 90
5
 70
0
 10
293.064470
 20
264.382430
 30
0.0
 10
292.043210
 20
263.694670
 30
0.0
 10
284.477050
 20
263.694670
 30
0.0
 10
276.910890
 20
263.694670
 30
0.0
 10
275.849600
 20
264.408890
 30
0.0
  0
SPLINE
  5
1af
100
AcDbEntity
  8
Ebene_1
 62
7
100
AcDbSpline
 70
8
 71
3
 72
8
 73
4
 74
0
 40
0
 40
0
 40
0
 40
0
 40
1
 40
1
 40
1
 40
1
 10
284.515840
 20
255.558910
 30
0.0
 10
278.161980
 20
255.566910
 30
0.0
 10
277.093300
 20
255.611210
 30
0.0
 10
276.564610
 20
255.895370
 30
0.0
  0
LWPOLYLINE
  5
1b0
100
AcDbEntity
  8
Ebene_1
 62
7
100
AcDbPolyline
 90
3
 70
0
 10
292.785580
 20
256.140270
 30
0.0
 10
291.856250
 20
255.550910
 30
0.0
 10
284.515840
 20
255.558910
 30
0.0
  0
LWPOLYLINE
  5
1b1
100
AcDbEntity
  8
Ebene_1
 62
7
100
AcDbPolyline
 90
2
 70
0
 10
276.564610
 20
255.895370
 30
0.0
 10
276.564610
 20
255.895510
 30
0.0
  0
LWPOLYLINE
  5
1b2
100
AcDbEntity
  8
Ebene_1
 62
7
100
AcDbPolyline
 90
16
 70
1
 10
369.301730
 20
253.516810
 30
0.0
 10
369.301730
 20
259.830090
 30
0.0
 10
379.735980
 20
259.777290
 30
0.0
 10
390.170140
 20
259.724490
 30
0.0
 10
390.224140
 20
253.463970
 30
0.0
 10
390.278140
 20
247.203450
 30
0.0
 10
388.442860
 20
247.203450
 30
0.0
 10
386.607550
 20
247.203450
 30
0.0
 10
386.607550
 20
251.377140
 30
0.0
 10
386.607550
 20
255.550820
 30
0.0
 10
379.787180
 20
255.550820
 30
0.0
 10
372.966750
 20
255.550820
 30
0.0
 10
372.966750
 20
251.377140
 30
0.0
 10
372.966750
 20
247.203470
 30
0.0
 10
371.134430
 20
247.203470
 30
0.0
 10
369.302060
 20
247.203470
 30
0.0
  0
SPLINE
  5
1b3
100
AcDbEntity
  8
Ebene_1
 62
7
100
AcDbSpline
 70
8
 71
3
 72
8
 73
4
 74
0
 40
0
 40
0
 40
0
 40
0
 40
1
 40
1
 40
1
 40
1
 10
358.094240
 20
250.630400
 30
0.0
 10
357.801220
 20
249.608770
 30
0.0
 10
356.972140
 20
248.506350
 30
0.0
 10
355.987130
 20
247.828640
 30
0.0
  0
LWPOLYLINE
  5
1b4
100
AcDbEntity
  8
Ebene_1
 62
7
100
AcDbPolyline
 90
9
 70
0
 10
338.151860
 20
257.485050
 30
0.0
 10
338.151860
 20
267.766570
 30
0.0
 10
339.984170
 20
267.766570
 30
0.0
 10
341.816550
 20
267.766570
 30
0.0
 10
341.816550
 20
259.520990
 30
0.0
 10
341.816550
 20
251.275440
 30
0.0
 10
350.047870
 20
251.275440
 30
0.0
 10
358.279240
 20
251.275440
 30
0.0
 10
358.094240
 20
250.630400
 30
0.0
  0
SPLINE
  5
1b5
100
AcDbEntity
  8
Ebene_1
 62
7
100
AcDbSpline
 70
8
 71
3
 72
8
 73
4
 74
0
 40
0
 40
0
 40
0
 40
0
 40
1
 40
1
 40
1
 40
1
 10
276.564610
 20
247.607070
 30
0.0
 10
275.351410
 20
248.207740
 30
0.0
 10
274.261750
 20
249.180260
 30
0.0
 10
273.810190
 20
250.065450
 30
0.0
  0
SPLINE
  5
1b6
100
AcDbEntity
  8
Ebene_1
 62
7
100
AcDbSpline
 70
8
 71
3
 72
8
 73
4
 74
0
 40
0
 40
0
 40
0
 40
0
 40
1
 40
1
 40
1
 40
1
 10
273.810190
 20
250.065450
 30
0.0
 10
273.589470
 20
250.498060
 30
0.0
 10
273.408920
 20
250.947300
 30
0.0
 10
273.408920
 20
251.063730
 30
0.0
  0
SPLINE
  5
1b7
100
AcDbEntity
  8
Ebene_1
 62
7
100
AcDbSpline
 70
8
 71
3
 72
8
 73
4
 74
0
 40
0
 40
0
 40
0
 40
0
 40
1
 40
1
 40
1
 40
1
 10
273.408920
 20
251.063730
 30
0.0
 10
273.408920
 20
251.207610
 30
0.0
 10
276.928540
 20
251.275440
 30
0.0
 10
284.402990
 20
251.275440
 30
0.0
  0
SPLINE
  5
1b8
100
AcDbEntity
  8
Ebene_1
 62
7
100
AcDbSpline
 70
8
 71
3
 72
8
 73
4
 74
0
 40
0
 40
0
 40
0
 40
0
 40
1
 40
1
 40
1
 40
1
 10
284.402990
 20
251.275440
 30
0.0
 10
293.306280
 20
251.275440
 30
0.0
 10
295.397070
 20
251.225140
 30
0.0
 10
295.397070
 20
251.009910
 30
0.0
  0
SPLINE
  5
1b9
100
AcDbEntity
  8
Ebene_1
 62
7
100
AcDbSpline
 70
8
 71
3
 72
8
 73
4
 74
0
 40
0
 40
0
 40
0
 40
0
 40
1
 40
1
 40
1
 40
1
 10
295.397070
 20
251.009910
 30
0.0
 10
295.397070
 20
250.540300
 30
0.0
 10
294.239590
 20
248.901590
 30
0.0
 10
293.535250
 20
248.374050
 30
0.0
  0
SPLINE
  5
1ba
100
AcDbEntity
  8
Ebene_1
 62
7
100
AcDbSpline
 70
8
 71
3
 72
8
 73
4
 74
0
 40
0
 40
0
 40
0
 40
0
 40
1
 40
1
 40
1
 40
1
 10
293.535250
 20
248.374050
 30
0.0
 10
291.937480
 20
247.177300
 30
0.0
 10
292.140760
 20
247.203530
 30
0.0
 10
284.464010
 20
247.203710
 30
0.0
  0
SPLINE
  5
1bb
100
AcDbEntity
  8
Ebene_1
 62
7
100
AcDbSpline
 70
8
 71
3
 72
8
 73
4
 74
0
 40
0
 40
0
 40
0
 40
0
 40
1
 40
1
 40
1
 40
1
 10
284.464010
 20
247.203710
 30
0.0
 10
277.812380
 20
247.203860
 30
0.0
 10
277.329170
 20
247.228510
 30
0.0
 10
276.564610
 20
247.607070
 30
0.0
  0
LWPOLYLINE
  5
1bc
100
AcDbEntity
  8
Ebene_1
 62
7
100
AcDbPolyline
 90
5
 70
0
 10
355.987130
 20
247.828640
 30
0.0
 10
355.078570
 20
247.203530
 30
0.0
 10
346.615210
 20
247.203530
 30
0.0
 10
338.151860
 20
247.203530
 30
0.0
 10
338.151860
 20
257.485050
 30
0.0
  0
SPLINE
  5
1bd
100
AcDbEntity
  8
Ebene_1
 62
7
100
AcDbSpline
 70
8
 71
3
 72
8
 73
4
 74
0
 40
0
 40
0
 40
0
 40
0
 40
1
 40
1
 40
1
 40
1
 10
306.391170
 20
247.205770
 30
0.0
 10
306.391170
 20
247.723360
 30
0.0
 10
307.314990
 20
249.293390
 30
0.0
 10
307.945090
 20
249.846620
 30
0.0
  0
SPLINE
  5
1be
100
AcDbEntity
  8
Ebene_1
 62
7
100
AcDbSpline
 70
8
 71
3
 72
8
 73
4
 74
0
 40
0
 40
0
 40
0
 40
0
 40
1
 40
1
 40
1
 40
1
 10
307.945090
 20
249.846620
 30
0.0
 10
309.581720
 20
251.283620
 30
0.0
 10
309.530580
 20
251.275440
 30
0.0
 10
316.868140
 20
251.275440
 30
0.0
  0
LWPOLYLINE
  5
1bf
100
AcDbEntity
  8
Ebene_1
 62
7
100
AcDbPolyline
 90
1
 70
1
 10
276.564610
 20
247.607070
 30
0.0
  0
SPLINE
  5
1c0
100
AcDbEntity
  8
Ebene_1
 62
7
100
AcDbSpline
 70
8
 71
3
 72
8
 73
4
 74
0
 40
0
 40
0
 40
0
 40
0
 40
1
 40
1
 40
1
 40
1
 10
316.774450
 20
267.766560
 30
0.0
 10
322.485290
 20
267.766560
 30
0.0
 10
327.157780
 20
267.731860
 30
0.0
 10
327.157780
 20
267.689660
 30
0.0
  0
SPLINE
  5
1c1
100
AcDbEntity
  8
Ebene_1
 62
7
100
AcDbSpline
 70
8
 71
3
 72
8
 73
4
 74
0
 40
0
 40
0
 40
0
 40
0
 40
1
 40
1
 40
1
 40
1
 10
327.157780
 20
267.689660
 30
0.0
 10
327.157780
 20
267.647260
 30
0.0
 10
327.023690
 20
267.291940
 30
0.0
 10
326.859920
 20
266.899870
 30
0.0
  0
SPLINE
  5
1c2
100
AcDbEntity
  8
Ebene_1
 62
7
100
AcDbSpline
 70
8
 71
3
 72
8
 73
4
 74
0
 40
0
 40
0
 40
0
 40
0
 40
1
 40
1
 40
1
 40
1
 10
326.859920
 20
266.899870
 30
0.0
 10
326.477060
 20
265.983570
 30
0.0
 10
325.652150
 20
265.008040
 30
0.0
 10
324.640480
 20
264.275170
 30
0.0
  0
LWPOLYLINE
  5
1c3
100
AcDbEntity
  8
Ebene_1
 62
7
100
AcDbPolyline
 90
9
 70
0
 10
316.868140
 20
251.275440
 30
0.0
 10
323.493070
 20
251.275440
 30
0.0
 10
323.493070
 20
253.413160
 30
0.0
 10
323.493070
 20
255.550920
 30
0.0
 10
314.942080
 20
255.550920
 30
0.0
 10
306.391170
 20
255.550920
 30
0.0
 10
306.391170
 20
261.658720
 30
0.0
 10
306.391170
 20
267.766560
 30
0.0
 10
316.774450
 20
267.766560
 30
0.0
  0
SPLINE
  5
1c4
100
AcDbEntity
  8
Ebene_1
 62
7
100
AcDbSpline
 70
8
 71
3
 72
8
 73
4
 74
0
 40
0
 40
0
 40
0
 40
0
 40
1
 40
1
 40
1
 40
1
 10
316.876260
 20
246.999970
 30
0.0
 10
309.946580
 20
246.999970
 30
0.0
 10
306.391170
 20
247.069670
 30
0.0
 10
306.391170
 20
247.205780
 30
0.0
  0
LWPOLYLINE
  5
1c5
100
AcDbEntity
  8
Ebene_1
 62
7
100
AcDbPolyline
 90
11
 70
0
 10
324.640480
 20
264.275170
 30
0.0
 10
323.839140
 20
263.694710
 30
0.0
 10
316.947490
 20
263.694710
 30
0.0
 10
310.055860
 20
263.694710
 30
0.0
 10
310.055860
 20
261.658780
 30
0.0
 10
310.055860
 20
259.622840
 30
0.0
 10
318.708610
 20
259.622840
 30
0.0
 10
327.361350
 20
259.622840
 30
0.0
 10
327.361350
 20
253.311370
 30
0.0
 10
327.361350
 20
246.999970
 30
0.0
 10
316.876260
 20
246.999970
 30
0.0
  0
LWPOLYLINE
  5
1c6
100
AcDbEntity
  8
Ebene_1
 62
7
100
AcDbPolyline
 90
1
 70
1
 10
306.391170
 20
247.205780
 30
0.0
  0
SPLINE
  5
1c7
100
AcDbEntity
  8
Ebene_1
 62
7
100
AcDbSpline
 70
8
 71
3
 72
8
 73
4
 74
0
 40
0
 40
0
 40
0
 40
0
 40
1
 40
1
 40
1
 40
1
 10
242.235300
 20
264.473200
 30
0.0
 10
241.718380
 20
264.845350
 30
0.0
 10
241.114160
 20
265.395050
 30
0.0
 10
240.892590
 20
265.694770
 30
0.0
  0
SPLINE
  5
1c8
100
AcDbEntity
  8
Ebene_1
 62
7
100
AcDbSpline
 70
8
 71
3
 72
8
 73
4
 74
0
 40
0
 40
0
 40
0
 40
0
 40
1
 40
1
 40
1
 40
1
 10
240.892590
 20
265.694770
 30
0.0
 10
240.474600
 20
266.260110
 30
0.0
 10
239.815870
 20
267.459260
 30
0.0
 10
239.815870
 20
267.654720
 30
0.0
  0
SPLINE
  5
1c9
100
AcDbEntity
  8
Ebene_1
 62
7
100
AcDbSpline
 70
8
 71
3
 72
8
 73
4
 74
0
 40
0
 40
0
 40
0
 40
0
 40
1
 40
1
 40
1
 40
1
 10
239.815870
 20
267.654720
 30
0.0
 10
239.815870
 20
267.716320
 30
0.0
 10
245.267060
 20
267.766660
 30
0.0
 10
251.929710
 20
267.766660
 30
0.0
  0
SPLINE
  5
1ca
100
AcDbEntity
  8
Ebene_1
 62
7
100
AcDbSpline
 70
8
 71
3
 72
8
 73
4
 74
0
 40
0
 40
0
 40
0
 40
0
 40
1
 40
1
 40
1
 40
1
 10
251.929710
 20
267.766660
 30
0.0
 10
260.179260
 20
267.766660
 30
0.0
 10
264.043560
 20
267.699160
 30
0.0
 10
264.043560
 20
267.554950
 30
0.0
  0
SPLINE
  5
1cb
100
AcDbEntity
  8
Ebene_1
 62
7
100
AcDbSpline
 70
8
 71
3
 72
8
 73
4
 74
0
 40
0
 40
0
 40
0
 40
0
 40
1
 40
1
 40
1
 40
1
 10
264.043560
 20
267.554950
 30
0.0
 10
264.043560
 20
267.084390
 30
0.0
 10
263.217550
 20
265.789760
 30
0.0
 10
262.482940
 20
265.108940
 30
0.0
  0
SPLINE
  5
1cc
100
AcDbEntity
  8
Ebene_1
 62
7
100
AcDbSpline
 70
8
 71
3
 72
8
 73
4
 74
0
 40
0
 40
0
 40
0
 40
0
 40
1
 40
1
 40
1
 40
1
 10
262.482940
 20
265.108940
 30
0.0
 10
261.025030
 20
263.757770
 30
0.0
 10
261.190470
 20
263.804220
 30
0.0
 10
257.447180
 20
263.694770
 30
0.0
  0
LWPOLYLINE
  5
1cd
100
AcDbEntity
  8
Ebene_1
 62
7
100
AcDbPolyline
 90
5
 70
0
 10
249.946970
 20
255.296410
 30
0.0
 10
249.893770
 20
263.592890
 30
0.0
 10
246.534440
 20
263.694730
 30
0.0
 10
243.175150
 20
263.796570
 30
0.0
 10
242.235300
 20
264.473200
 30
0.0
  0
LWPOLYLINE
  5
1ce
100
AcDbEntity
  8
Ebene_1
 62
7
100
AcDbPolyline
 90
7
 70
0
 10
257.447180
 20
263.694770
 30
0.0
 10
253.965660
 20
263.592940
 30
0.0
 10
253.912360
 20
255.296450
 30
0.0
 10
253.859160
 20
247.000000
 30
0.0
 10
251.929580
 20
247.000000
 30
0.0
 10
250.000000
 20
247.000000
 30
0.0
 10
249.946970
 20
255.296410
 30
0.0
  0
SPLINE
  5
1cf
100
AcDbEntity
  8
Ebene_1
 62
7
100
AcDbSpline
 70
8
 71
3
 72
8
 73
4
 74
0
 40
0
 40
0
 40
0
 40
0
 40
1
 40
1
 40
1
 40
1
 10
46.760760
 20
286.599980
 30
0.0
 10
27.466180
 20
286.599980
 30
0.0
 10
11.825520
 20
270.980440
 30
0.0
 10
11.825520
 20
251.711920
 30
0.0
  0
LWPOLYLINE
  5
1d0
100
AcDbEntity
  8
Ebene_1
 62
7
100
AcDbPolyline
 90
4
 70
1
 10
0.000000
 20
296.599980
 30
0.0
 10
219.600000
 20
296.599980
 30
0.0
 10
219.600000
 20
-3.000000
 30
0.0
 10
0.000000
 20
-3.000000
 30
0.0
  0
SPLINE
  5
1d1
100
AcDbEntity
  8
Ebene_1
 62
7
100
AcDbSpline
 70
8
 71
3
 72
8
 73
4
 74
0
 40
0
 40
0
 40
0
 40
0
 40
1
 40
1
 40
1
 40
1
 10
11.825520
 20
41.866010
 30
0.0
 10
11.825520
 20
22.597480
 30
0.0
 10
27.466180
 20
6.977940
 30
0.0
 10
46.760760
 20
6.977940
 30
0.0
  0
LWPOLYLINE
  5
1d2
100
AcDbEntity
  8
Ebene_1
 62
7
100
AcDbPolyline
 90
2
 70
0
 10
11.825520
 20
251.711920
 30
0.0
 10
11.825520
 20
41.866010
 30
0.0
  0
SPLINE
  5
1d3
100
AcDbEntity
  8
Ebene_1
 62
7
100
AcDbSpline
 70
8
 71
3
 72
8
 73
4
 74
0
 40
0
 40
0
 40
0
 40
0
 40
1
 40
1
 40
1
 40
1
 10
172.839250
 20
6.977940
 30
0.0
 10
192.133830
 20
6.977940
 30
0.0
 10
207.774470
 20
22.597480
 30
0.0
 10
207.774470
 20
41.866010
 30
0.0
  0
LWPOLYLINE
  5
1d4
100
AcDbEntity
  8
Ebene_1
 62
7
100
AcDbPolyline
 90
2
 70
0
 10
46.760760
 20
6.977940
 30
0.0
 10
172.839250
 20
6.977940
 30
0.0
  0
SPLINE
  5
1d5
100
AcDbEntity
  8
Ebene_1
 62
7
100
AcDbSpline
 70
8
 71
3
 72
8
 73
4
 74
0
 40
0
 40
0
 40
0
 40
0
 40
1
 40
1
 40
1
 40
1
 10
207.774470
 20
251.711920
 30
0.0
 10
207.774470
 20
270.980440
 30
0.0
 10
192.133830
 20
286.599980
 30
0.0
 10
172.839250
 20
286.599980
 30
0.0
  0
LWPOLYLINE
  5
1d6
100
AcDbEntity
  8
Ebene_1
 62
7
100
AcDbPolyline
 90
2
 70
0
 10
207.774470
 20
41.866010
 30
0.0
 10
207.774470
 20
251.711920
 30
0.0
  0
LWPOLYLINE
  5
1d7
100
AcDbEntity
  8
Ebene_1
 62
7
100
AcDbPolyline
 90
2
 70
0
 10
172.839250
 20
286.599980
 30
0.0
 10
46.760760
 20
286.599980
 30
0.0
  0
SPLINE
  5
1d8
100
AcDbEntity
  8
Ebene_1
 62
7
100
AcDbSpline
 70
8
 71
3
 72
8
 73
4
 74
0
 40
0
 40
0
 40
0
 40
0
 40
1
 40
1
 40
1
 40
1
 10
172.839250
 20
279.779930
 30
0.0
 10
188.468530
 20
279.779930
 30
0.0
 10
200.945220
 20
267.320090
 30
0.0
 10
200.945220
 20
251.711920
 30
0.0
  0
LWPOLYLINE
  5
1d9
100
AcDbEntity
  8
Ebene_1
 62
7
100
AcDbPolyline
 90
2
 70
0
 10
46.760760
 20
279.779930
 30
0.0
 10
172.839250
 20
279.779930
 30
0.0
  0
SPLINE
  5
1da
100
AcDbEntity
  8
Ebene_1
 62
7
100
AcDbSpline
 70
8
 71
3
 72
8
 73
4
 74
0
 40
0
 40
0
 40
0
 40
0
 40
1
 40
1
 40
1
 40
1
 10
200.945220
 20
41.866010
 30
0.0
 10
200.945220
 20
26.257830
 30
0.0
 10
188.468530
 20
13.798000
 30
0.0
 10
172.839250
 20
13.798000
 30
0.0
  0
LWPOLYLINE
  5
1db
100
AcDbEntity
  8
Ebene_1
 62
7
100
AcDbPolyline
 90
2
 70
0
 10
200.945220
 20
251.711920
 30
0.0
 10
200.945220
 20
41.866010
 30
0.0
  0
SPLINE
  5
1dc
100
AcDbEntity
  8
Ebene_1
 62
7
100
AcDbSpline
 70
8
 71
3
 72
8
 73
4
 74
0
 40
0
 40
0
 40
0
 40
0
 40
1
 40
1
 40
1
 40
1
 10
46.760760
 20
13.798000
 30
0.0
 10
31.131450
 20
13.798000
 30
0.0
 10
18.654820
 20
26.257830
 30
0.0
 10
18.654820
 20
41.866010
 30
0.0
  0
LWPOLYLINE
  5
1dd
100
AcDbEntity
  8
Ebene_1
 62
7
100
AcDbPolyline
 90
2
 70
0
 10
172.839250
 20
13.798000
 30
0.0
 10
46.760760
 20
13.798000
 30
0.0
  0
SPLINE
  5
1de
100
AcDbEntity
  8
Ebene_1
 62
7
100
AcDbSpline
 70
8
 71
3
 72
8
 73
4
 74
0
 40
0
 40
0
 40
0
 40
0
 40
1
 40
1
 40
1
 40
1
 10
18.654820
 20
251.711920
 30
0.0
 10
18.654820
 20
267.320090
 30
0.0
 10
31.131450
 20
279.779930
 30
0.0
 10
46.760760
 20
279.779930
 30
0.0
  0
LWPOLYLINE
  5
1df
100
AcDbEntity
  8
Ebene_1
 62
7
100
AcDbPolyline
 90
2
 70
0
 10
18.654820
 20
41.866010
 30
0.0
 10
18.654820
 20
251.711920
 30
0.0
  0
SPLINE
  5
1e0
100
AcDbEntity
  8
Ebene_1
 62
7
100
AcDbSpline
 70
8
 71
3
 72
8
 73
4
 74
0
 40
0
 40
0
 40
0
 40
0
 40
1
 40
1
 40
1
 40
1
 10
34.886320
 20
28.808310
 30
0.0
 10
34.886314
 20
27.427602
 30
0.0
 10
33.767028
 20
26.308320
 30
0.0
 10
32.386320
 20
26.308320
 30
0.0
  0
SPLINE
  5
1e1
100
AcDbEntity
  8
Ebene_1
 62
7
100
AcDbSpline
 70
8
 71
3
 72
8
 73
4
 74
0
 40
0
 40
0
 40
0
 40
0
 40
1
 40
1
 40
1
 40
1
 10
32.386320
 20
26.308320
 30
0.0
 10
31.005616
 20
26.308326
 30
0.0
 10
29.886336
 20
27.427606
 30
0.0
 10
29.886330
 20
28.808310
 30
0.0
  0
SPLINE
  5
1e2
100
AcDbEntity
  8
Ebene_1
 62
7
100
AcDbSpline
 70
8
 71
3
 72
8
 73
4
 74
0
 40
0
 40
0
 40
0
 40
0
 40
1
 40
1
 40
1
 40
1
 10
29.886330
 20
28.808310
 30
0.0
 10
29.886330
 20
30.189018
 30
0.0
 10
31.005612
 20
31.308304
 30
0.0
 10
32.386320
 20
31.308310
 30
0.0
  0
SPLINE
  5
1e3
100
AcDbEntity
  8
Ebene_1
 62
7
100
AcDbSpline
 70
8
 71
3
 72
8
 73
4
 74
0
 40
0
 40
0
 40
0
 40
0
 40
1
 40
1
 40
1
 40
1
 10
32.386320
 20
31.308310
 30
0.0
 10
33.049361
 20
31.308310
 30
0.0
 10
33.685246
 20
31.044918
 30
0.0
 10
34.154087
 20
30.576077
 30
0.0
  0
SPLINE
  5
1e4
100
AcDbEntity
  8
Ebene_1
 62
7
100
AcDbSpline
 70
8
 71
3
 72
8
 73
4
 74
0
 40
0
 40
0
 40
0
 40
0
 40
1
 40
1
 40
1
 40
1
 10
34.154087
 20
30.576077
 30
0.0
 10
34.622928
 20
30.107236
 30
0.0
 10
34.886320
 20
29.471351
 30
0.0
 10
34.886320
 20
28.808310
 30
0.0
  0
LWPOLYLINE
  5
1e5
100
AcDbEntity
  8
Ebene_1
 62
7
100
AcDbPolyline
 90
1
 70
1
 10
46.760760
 20
279.779930
 30
0.0
  0
SPLINE
  5
1e6
100
AcDbEntity
  8
Ebene_1
 62
7
100
AcDbSpline
 70
8
 71
3
 72
8
 73
4
 74
0
 40
0
 40
0
 40
0
 40
0
 40
1
 40
1
 40
1
 40
1
 10
189.800010
 20
29.099990
 30
0.0
 10
189.800015
 20
28.436940
 30
0.0
 10
189.536621
 20
27.801046
 30
0.0
 10
189.067773
 20
27.332200
 30
0.0
  0
SPLINE
  5
1e7
100
AcDbEntity
  8
Ebene_1
 62
7
100
AcDbSpline
 70
8
 71
3
 72
8
 73
4
 74
0
 40
0
 40
0
 40
0
 40
0
 40
1
 40
1
 40
1
 40
1
 10
189.067773
 20
27.332200
 30
0.0
 10
188.598925
 20
26.863353
 30
0.0
 10
187.963030
 20
26.599962
 30
0.0
 10
187.299980
 20
26.599970
 30
0.0
  0
SPLINE
  5
1e8
100
AcDbEntity
  8
Ebene_1
 62
7
100
AcDbSpline
 70
8
 71
3
 72
8
 73
4
 74
0
 40
0
 40
0
 40
0
 40
0
 40
1
 40
1
 40
1
 40
1
 10
187.299980
 20
26.599970
 30
0.0
 10
186.636939
 20
26.599975
 30
0.0
 10
186.001056
 20
26.863372
 30
0.0
 10
185.532219
 20
27.332217
 30
0.0
  0
SPLINE
  5
1e9
100
AcDbEntity
  8
Ebene_1
 62
7
100
AcDbSpline
 70
8
 71
3
 72
8
 73
4
 74
0
 40
0
 40
0
 40
0
 40
0
 40
1
 40
1
 40
1
 40
1
 10
185.532219
 20
27.332217
 30
0.0
 10
185.063382
 20
27.801062
 30
0.0
 10
184.799995
 20
28.436949
 30
0.0
 10
184.800000
 20
29.099990
 30
0.0
  0
SPLINE
  5
1ea
100
AcDbEntity
  8
Ebene_1
 62
7
100
AcDbSpline
 70
8
 71
3
 72
8
 73
4
 74
0
 40
0
 40
0
 40
0
 40
0
 40
1
 40
1
 40
1
 40
1
 10
184.800000
 20
29.099990
 30
0.0
 10
184.800006
 20
30.480690
 30
0.0
 10
185.919280
 20
31.599969
 30
0.0
 10
187.299980
 20
31.599980
 30
0.0
  0
SPLINE
  5
1eb
100
AcDbEntity
  8
Ebene_1
 62
7
100
AcDbSpline
 70
8
 71
3
 72
8
 73
4
 74
0
 40
0
 40
0
 40
0
 40
0
 40
1
 40
1
 40
1
 40
1
 10
187.299980
 20
31.599980
 30
0.0
 10
187.963025
 20
31.599988
 30
0.0
 10
188.598916
 20
31.336601
 30
0.0
 10
189.067763
 20
30.867761
 30
0.0
  0
SPLINE
  5
1ec
100
AcDbEntity
  8
Ebene_1
 62
7
100
AcDbSpline
 70
8
 71
3
 72
8
 73
4
 74
0
 40
0
 40
0
 40
0
 40
0
 40
1
 40
1
 40
1
 40
1
 10
189.067763
 20
30.867761
 30
0.0
 10
189.536610
 20
30.398921
 30
0.0
 10
189.800007
 20
29.763035
 30
0.0
 10
189.800010
 20
29.099990
 30
0.0
  0
LWPOLYLINE
  5
1ed
100
AcDbEntity
  8
Ebene_1
 62
7
100
AcDbPolyline
 90
1
 70
1
 10
34.886320
 20
28.808310
 30
0.0
  0
SPLINE
  5
1ee
100
AcDbEntity
  8
Ebene_1
 62
7
100
AcDbSpline
 70
8
 71
3
 72
8
 73
4
 74
0
 40
0
 40
0
 40
0
 40
0
 40
1
 40
1
 40
1
 40
1
 10
190.178000
 20
264.186280
 30
0.0
 10
190.177997
 20
263.523237
 30
0.0
 10
189.914601
 20
262.887352
 30
0.0
 10
189.445756
 20
262.418512
 30
0.0
  0
SPLINE
  5
1ef
100
AcDbEntity
  8
Ebene_1
 62
7
100
AcDbSpline
 70
8
 71
3
 72
8
 73
4
 74
0
 40
0
 40
0
 40
0
 40
0
 40
1
 40
1
 40
1
 40
1
 10
189.445756
 20
262.418512
 30
0.0
 10
188.976911
 20
261.949673
 30
0.0
 10
188.341023
 20
261.686285
 30
0.0
 10
187.677980
 20
261.686290
 30
0.0
  0
SPLINE
  5
1f0
100
AcDbEntity
  8
Ebene_1
 62
7
100
AcDbSpline
 70
8
 71
3
 72
8
 73
4
 74
0
 40
0
 40
0
 40
0
 40
0
 40
1
 40
1
 40
1
 40
1
 10
187.677980
 20
261.686290
 30
0.0
 10
186.297272
 20
261.686290
 30
0.0
 10
185.177986
 20
262.805572
 30
0.0
 10
185.177980
 20
264.186280
 30
0.0
  0
SPLINE
  5
1f1
100
AcDbEntity
  8
Ebene_1
 62
7
100
AcDbSpline
 70
8
 71
3
 72
8
 73
4
 74
0
 40
0
 40
0
 40
0
 40
0
 40
1
 40
1
 40
1
 40
1
 10
185.177980
 20
264.186280
 30
0.0
 10
185.177977
 20
264.849323
 30
0.0
 10
185.441368
 20
265.485210
 30
0.0
 10
185.910210
 20
265.954053
 30
0.0
  0
SPLINE
  5
1f2
100
AcDbEntity
  8
Ebene_1
 62
7
100
AcDbSpline
 70
8
 71
3
 72
8
 73
4
 74
0
 40
0
 40
0
 40
0
 40
0
 40
1
 40
1
 40
1
 40
1
 10
185.910210
 20
265.954053
 30
0.0
 10
186.379051
 20
266.422897
 30
0.0
 10
187.014937
 20
266.686290
 30
0.0
 10
187.677980
 20
266.686290
 30
0.0
  0
SPLINE
  5
1f3
100
AcDbEntity
  8
Ebene_1
 62
7
100
AcDbSpline
 70
8
 71
3
 72
8
 73
4
 74
0
 40
0
 40
0
 40
0
 40
0
 40
1
 40
1
 40
1
 40
1
 10
187.677980
 20
266.686290
 30
0.0
 10
188.341026
 20
266.686295
 30
0.0
 10
188.976918
 20
266.422904
 30
0.0
 10
189.445763
 20
265.954060
 30
0.0
  0
SPLINE
  5
1f4
100
AcDbEntity
  8
Ebene_1
 62
7
100
AcDbSpline
 70
8
 71
3
 72
8
 73
4
 74
0
 40
0
 40
0
 40
0
 40
0
 40
1
 40
1
 40
1
 40
1
 10
189.445763
 20
265.954060
 30
0.0
 10
189.914609
 20
265.485217
 30
0.0
 10
190.178003
 20
264.849326
 30
0.0
 10
190.178000
 20
264.186280
 30
0.0
  0
LWPOLYLINE
  5
1f5
100
AcDbEntity
  8
Ebene_1
 62
7
100
AcDbPolyline
 90
1
 70
1
 10
189.800010
 20
29.099990
 30
0.0
  0
SPLINE
  5
1f6
100
AcDbEntity
  8
Ebene_1
 62
7
100
AcDbSpline
 70
8
 71
3
 72
8
 73
4
 74
0
 40
0
 40
0
 40
0
 40
0
 40
1
 40
1
 40
1
 40
1
 10
35.177990
 20
264.186280
 30
0.0
 10
35.177984
 20
262.805576
 30
0.0
 10
34.058704
 20
261.686296
 30
0.0
 10
32.678000
 20
261.686290
 30
0.0
  0
SPLINE
  5
1f7
100
AcDbEntity
  8
Ebene_1
 62
7
100
AcDbSpline
 70
8
 71
3
 72
8
 73
4
 74
0
 40
0
 40
0
 40
0
 40
0
 40
1
 40
1
 40
1
 40
1
 10
32.678000
 20
261.686290
 30
0.0
 10
32.014957
 20
261.686285
 30
0.0
 10
31.379069
 20
261.949673
 30
0.0
 10
30.910224
 20
262.418512
 30
0.0
  0
SPLINE
  5
1f8
100
AcDbEntity
  8
Ebene_1
 62
7
100
AcDbSpline
 70
8
 71
3
 72
8
 73
4
 74
0
 40
0
 40
0
 40
0
 40
0
 40
1
 40
1
 40
1
 40
1
 10
30.910224
 20
262.418512
 30
0.0
 10
30.441379
 20
262.887352
 30
0.0
 10
30.177983
 20
263.523237
 30
0.0
 10
30.177980
 20
264.186280
 30
0.0
  0
SPLINE
  5
1f9
100
AcDbEntity
  8
Ebene_1
 62
7
100
AcDbSpline
 70
8
 71
3
 72
8
 73
4
 74
0
 40
0
 40
0
 40
0
 40
0
 40
1
 40
1
 40
1
 40
1
 10
30.177980
 20
264.186280
 30
0.0
 10
30.177977
 20
264.849326
 30
0.0
 10
30.441371
 20
265.485217
 30
0.0
 10
30.910217
 20
265.954060
 30
0.0
  0
SPLINE
  5
1fa
100
AcDbEntity
  8
Ebene_1
 62
7
100
AcDbSpline
 70
8
 71
3
 72
8
 73
4
 74
0
 40
0
 40
0
 40
0
 40
0
 40
1
 40
1
 40
1
 40
1
 10
30.910217
 20
265.954060
 30
0.0
 10
31.379062
 20
266.422904
 30
0.0
 10
32.014954
 20
266.686295
 30
0.0
 10
32.678000
 20
266.686290
 30
0.0
  0
SPLINE
  5
1fb
100
AcDbEntity
  8
Ebene_1
 62
7
100
AcDbSpline
 70
8
 71
3
 72
8
 73
4
 74
0
 40
0
 40
0
 40
0
 40
0
 40
1
 40
1
 40
1
 40
1
 10
32.678000
 20
266.686290
 30
0.0
 10
33.341041
 20
266.686287
 30
0.0
 10
33.976925
 20
266.422893
 30
0.0
 10
34.445764
 20
265.954050
 30
0.0
  0
SPLINE
  5
1fc
100
AcDbEntity
  8
Ebene_1
 62
7
100
AcDbSpline
 70
8
 71
3
 72
8
 73
4
 74
0
 40
0
 40
0
 40
0
 40
0
 40
1
 40
1
 40
1
 40
1
 10
34.445764
 20
265.954050
 30
0.0
 10
34.914603
 20
265.485207
 30
0.0
 10
35.177993
 20
264.849321
 30
0.0
 10
35.177990
 20
264.186280
 30
0.0
  0
LWPOLYLINE
  5
1fd
100
AcDbEntity
  8
Ebene_1
 62
7
100
AcDbPolyline
 90
1
 70
1
 10
190.178000
 20
264.186280
 30
0.0
  0
SPLINE
  5
1fe
100
AcDbEntity
  8
Ebene_1
 62
7
100
AcDbSpline
 70
8
 71
3
 72
8
 73
4
 74
0
 40
0
 40
0
 40
0
 40
0
 40
1
 40
1
 40
1
 40
1
 10
108.209340
 20
90.483780
 30
0.0
 10
107.999710
 20
91.589410
 30
0.0
 10
89.960470
 20
192.301500
 30
0.0
 10
89.960470
 20
192.366260
 30
0.0
  0
SPLINE
  5
1ff
100
AcDbEntity
  8
Ebene_1
 62
7
100
AcDbSpline
 70
8
 71
3
 72
8
 73
4
 74
0
 40
0
 40
0
 40
0
 40
0
 40
1
 40
1
 40
1
 40
1
 10
89.960470
 20
192.366260
 30
0.0
 10
89.960470
 20
192.458360
 30
0.0
 10
84.632480
 20
192.323660
 30
0.0
 10
81.954390
 20
192.163840
 30
0.0
  0
SPLINE
  5
200
100
AcDbEntity
  8
Ebene_1
 62
7
100
AcDbSpline
 70
8
 71
3
 72
8
 73
4
 74
0
 40
0
 40
0
 40
0
 40
0
 40
1
 40
1
 40
1
 40
1
 10
81.954390
 20
192.163840
 30
0.0
 10
73.984430
 20
191.688560
 30
0.0
 10
69.885270
 20
190.292900
 30
0.0
 10
67.904010
 20
187.380040
 30
0.0
  0
SPLINE
  5
201
100
AcDbEntity
  8
Ebene_1
 62
7
100
AcDbSpline
 70
8
 71
3
 72
8
 73
4
 74
0
 40
0
 40
0
 40
0
 40
0
 40
1
 40
1
 40
1
 40
1
 10
67.904010
 20
187.380040
 30
0.0
 10
67.173580
 20
186.306080
 30
0.0
 10
66.868590
 20
185.540340
 30
0.0
 10
66.549800
 20
183.979840
 30
0.0
  0
SPLINE
  5
202
100
AcDbEntity
  8
Ebene_1
 62
7
100
AcDbSpline
 70
8
 71
3
 72
8
 73
4
 74
0
 40
0
 40
0
 40
0
 40
0
 40
1
 40
1
 40
1
 40
1
 10
66.549800
 20
183.979840
 30
0.0
 10
66.420360
 20
183.345810
 30
0.0
 10
66.290690
 20
182.803420
 30
0.0
 10
66.261820
 20
182.774550
 30
0.0
  0
SPLINE
  5
203
100
AcDbEntity
  8
Ebene_1
 62
7
100
AcDbSpline
 70
8
 71
3
 72
8
 73
4
 74
0
 40
0
 40
0
 40
0
 40
0
 40
1
 40
1
 40
1
 40
1
 10
66.261820
 20
182.774550
 30
0.0
 10
66.164920
 20
182.677650
 30
0.0
 10
62.852670
 20
184.251280
 30
0.0
 10
61.193170
 20
185.182950
 30
0.0
  0
SPLINE
  5
204
100
AcDbEntity
  8
Ebene_1
 62
7
100
AcDbSpline
 70
8
 71
3
 72
8
 73
4
 74
0
 40
0
 40
0
 40
0
 40
0
 40
1
 40
1
 40
1
 40
1
 10
61.193170
 20
185.182950
 30
0.0
 10
56.229640
 20
187.969570
 30
0.0
 10
52.332830
 20
191.196000
 30
0.0
 10
49.681970
 20
194.714010
 30
0.0
  0
SPLINE
  5
205
100
AcDbEntity
  8
Ebene_1
 62
7
100
AcDbSpline
 70
8
 71
3
 72
8
 73
4
 74
0
 40
0
 40
0
 40
0
 40
0
 40
1
 40
1
 40
1
 40
1
 10
49.681970
 20
194.714010
 30
0.0
 10
49.292480
 20
195.230850
 30
0.0
 10
48.973840
 20
195.696000
 30
0.0
 10
48.973840
 20
195.747720
 30
0.0
  0
SPLINE
  5
206
100
AcDbEntity
  8
Ebene_1
 62
7
100
AcDbSpline
 70
8
 71
3
 72
8
 73
4
 74
0
 40
0
 40
0
 40
0
 40
0
 40
1
 40
1
 40
1
 40
1
 10
48.973840
 20
195.747720
 30
0.0
 10
48.973840
 20
195.799620
 30
0.0
 10
49.175510
 20
195.925190
 30
0.0
 10
49.421940
 20
196.027170
 30
0.0
  0
SPLINE
  5
207
100
AcDbEntity
  8
Ebene_1
 62
7
100
AcDbSpline
 70
8
 71
3
 72
8
 73
4
 74
0
 40
0
 40
0
 40
0
 40
0
 40
1
 40
1
 40
1
 40
1
 10
49.421940
 20
196.027170
 30
0.0
 10
49.668430
 20
196.129300
 30
0.0
 10
50.730410
 20
196.586900
 30
0.0
 10
51.782000
 20
197.044360
 30
0.0
  0
SPLINE
  5
208
100
AcDbEntity
  8
Ebene_1
 62
7
100
AcDbSpline
 70
8
 71
3
 72
8
 73
4
 74
0
 40
0
 40
0
 40
0
 40
0
 40
1
 40
1
 40
1
 40
1
 10
51.782000
 20
197.044360
 30
0.0
 10
63.830120
 20
202.285810
 30
0.0
 10
79.490860
 20
205.949510
 30
0.0
 10
93.545340
 20
206.814500
 30
0.0
  0
LWPOLYLINE
  5
209
100
AcDbEntity
  8
Ebene_1
 62
7
100
AcDbPolyline
 90
1
 70
1
 10
35.177990
 20
264.186280
 30
0.0
  0
SPLINE
  5
20a
100
AcDbEntity
  8
Ebene_1
 62
7
100
AcDbSpline
 70
8
 71
3
 72
8
 73
4
 74
0
 40
0
 40
0
 40
0
 40
0
 40
1
 40
1
 40
1
 40
1
 10
101.534650
 20
198.685310
 30
0.0
 10
105.238680
 20
194.171850
 30
0.0
 10
108.310200
 20
190.524220
 30
0.0
 10
108.360290
 20
190.579460
 30
0.0
  0
SPLINE
  5
20b
100
AcDbEntity
  8
Ebene_1
 62
7
100
AcDbSpline
 70
8
 71
3
 72
8
 73
4
 74
0
 40
0
 40
0
 40
0
 40
0
 40
1
 40
1
 40
1
 40
1
 10
108.360290
 20
190.579460
 30
0.0
 10
108.410290
 20
190.634660
 30
0.0
 10
111.416650
 20
194.293520
 30
0.0
 10
115.040880
 20
198.710070
 30
0.0
  0
SPLINE
  5
20c
100
AcDbEntity
  8
Ebene_1
 62
7
100
AcDbSpline
 70
8
 71
3
 72
8
 73
4
 74
0
 40
0
 40
0
 40
0
 40
0
 40
1
 40
1
 40
1
 40
1
 10
115.040880
 20
198.710070
 30
0.0
 10
118.665120
 20
203.126630
 30
0.0
 10
121.685760
 20
206.774450
 30
0.0
 10
121.753420
 20
206.816270
 30
0.0
  0
SPLINE
  5
20d
100
AcDbEntity
  8
Ebene_1
 62
7
100
AcDbSpline
 70
8
 71
3
 72
8
 73
4
 74
0
 40
0
 40
0
 40
0
 40
0
 40
1
 40
1
 40
1
 40
1
 10
121.753420
 20
206.816270
 30
0.0
 10
121.894540
 20
206.903470
 30
0.0
 10
124.908700
 20
206.709180
 30
0.0
 10
127.541550
 20
206.442960
 30
0.0
  0
SPLINE
  5
20e
100
AcDbEntity
  8
Ebene_1
 62
7
100
AcDbSpline
 70
8
 71
3
 72
8
 73
4
 74
0
 40
0
 40
0
 40
0
 40
0
 40
1
 40
1
 40
1
 40
1
 10
127.541550
 20
206.442960
 30
0.0
 10
138.644680
 20
205.320610
 30
0.0
 10
149.796050
 20
202.751330
 30
0.0
 10
159.924620
 20
198.981910
 30
0.0
  0
SPLINE
  5
20f
100
AcDbEntity
  8
Ebene_1
 62
7
100
AcDbSpline
 70
8
 71
3
 72
8
 73
4
 74
0
 40
0
 40
0
 40
0
 40
0
 40
1
 40
1
 40
1
 40
1
 10
159.924620
 20
198.981910
 30
0.0
 10
162.315020
 20
198.092330
 30
0.0
 10
166.160080
 20
196.504520
 30
0.0
 10
167.162900
 20
195.992940
 30
0.0
  0
LWPOLYLINE
  5
210
100
AcDbEntity
  8
Ebene_1
 62
7
100
AcDbPolyline
 90
3
 70
0
 10
93.545340
 20
206.814500
 30
0.0
 10
94.799990
 20
206.891700
 30
0.0
 10
101.534650
 20
198.685310
 30
0.0
  0
SPLINE
  5
211
100
AcDbEntity
  8
Ebene_1
 62
7
100
AcDbSpline
 70
8
 71
3
 72
8
 73
4
 74
0
 40
0
 40
0
 40
0
 40
0
 40
1
 40
1
 40
1
 40
1
 10
167.027060
 20
194.923090
 30
0.0
 10
164.678570
 20
191.694190
 30
0.0
 10
160.996840
 20
188.521120
 30
0.0
 10
156.437380
 20
185.796400
 30
0.0
  0
SPLINE
  5
212
100
AcDbEntity
  8
Ebene_1
 62
7
100
AcDbSpline
 70
8
 71
3
 72
8
 73
4
 74
0
 40
0
 40
0
 40
0
 40
0
 40
1
 40
1
 40
1
 40
1
 10
156.437380
 20
185.796400
 30
0.0
 10
155.183440
 20
185.047040
 30
0.0
 10
151.032450
 20
182.963610
 30
0.0
 10
150.466480
 20
182.799540
 30
0.0
  0
SPLINE
  5
213
100
AcDbEntity
  8
Ebene_1
 62
7
100
AcDbSpline
 70
8
 71
3
 72
8
 73
4
 74
0
 40
0
 40
0
 40
0
 40
0
 40
1
 40
1
 40
1
 40
1
 10
150.466480
 20
182.799540
 30
0.0
 10
150.232930
 20
182.731740
 30
0.0
 10
150.201600
 20
182.782640
 30
0.0
 10
150.123890
 20
183.356640
 30
0.0
  0
SPLINE
  5
214
100
AcDbEntity
  8
Ebene_1
 62
7
100
AcDbSpline
 70
8
 71
3
 72
8
 73
4
 74
0
 40
0
 40
0
 40
0
 40
0
 40
1
 40
1
 40
1
 40
1
 10
150.123890
 20
183.356640
 30
0.0
 10
150.076890
 20
183.704040
 30
0.0
 10
149.906990
 20
184.443930
 30
0.0
 10
149.746390
 20
185.000790
 30
0.0
  0
SPLINE
  5
215
100
AcDbEntity
  8
Ebene_1
 62
7
100
AcDbSpline
 70
8
 71
3
 72
8
 73
4
 74
0
 40
0
 40
0
 40
0
 40
0
 40
1
 40
1
 40
1
 40
1
 10
149.746390
 20
185.000790
 30
0.0
 10
148.481840
 20
189.386000
 30
0.0
 10
144.745470
 20
191.333270
 30
0.0
 10
136.204900
 20
192.058010
 30
0.0
  0
SPLINE
  5
216
100
AcDbEntity
  8
Ebene_1
 62
7
100
AcDbSpline
 70
8
 71
3
 72
8
 73
4
 74
0
 40
0
 40
0
 40
0
 40
0
 40
1
 40
1
 40
1
 40
1
 10
136.204900
 20
192.058010
 30
0.0
 10
134.345280
 20
192.215810
 30
0.0
 10
126.611300
 20
192.418350
 30
0.0
 10
126.514120
 20
192.311750
 30
0.0
  0
SPLINE
  5
217
100
AcDbEntity
  8
Ebene_1
 62
7
100
AcDbSpline
 70
8
 71
3
 72
8
 73
4
 74
0
 40
0
 40
0
 40
0
 40
0
 40
1
 40
1
 40
1
 40
1
 10
126.514120
 20
192.311750
 30
0.0
 10
126.464320
 20
192.257150
 30
0.0
 10
111.534250
 20
108.503580
 30
0.0
 10
108.383310
 20
90.603230
 30
0.0
  0
LWPOLYLINE
  5
218
100
AcDbEntity
  8
Ebene_1
 62
7
100
AcDbPolyline
 90
3
 70
0
 10
167.162900
 20
195.992940
 30
0.0
 10
167.631370
 20
195.753930
 30
0.0
 10
167.027060
 20
194.923090
 30
0.0
  0
SPLINE
  5
219
100
AcDbEntity
  8
Ebene_1
 62
7
100
AcDbSpline
 70
8
 71
3
 72
8
 73
4
 74
0
 40
0
 40
0
 40
0
 40
0
 40
1
 40
1
 40
1
 40
1
 10
167.632010
 20
200.265920
 30
0.0
 10
153.360330
 20
206.284940
 30
0.0
 10
137.145970
 20
210.115060
 30
0.0
 10
120.969320
 20
211.288460
 30
0.0
  0
SPLINE
  5
21a
100
AcDbEntity
  8
Ebene_1
 62
7
100
AcDbSpline
 70
8
 71
3
 72
8
 73
4
 74
0
 40
0
 40
0
 40
0
 40
0
 40
1
 40
1
 40
1
 40
1
 10
120.969320
 20
211.288460
 30
0.0
 10
115.772140
 20
211.665450
 30
0.0
 10
104.975000
 20
211.788900
 30
0.0
 10
99.746700
 20
211.531120
 30
0.0
  0
SPLINE
  5
21b
100
AcDbEntity
  8
Ebene_1
 62
7
100
AcDbSpline
 70
8
 71
3
 72
8
 73
4
 74
0
 40
0
 40
0
 40
0
 40
0
 40
1
 40
1
 40
1
 40
1
 10
99.746700
 20
211.531120
 30
0.0
 10
81.628270
 20
210.637790
 30
0.0
 10
64.958940
 20
206.945330
 30
0.0
 10
48.938760
 20
200.276600
 30
0.0
  0
SPLINE
  5
21c
100
AcDbEntity
  8
Ebene_1
 62
7
100
AcDbSpline
 70
8
 71
3
 72
8
 73
4
 74
0
 40
0
 40
0
 40
0
 40
0
 40
1
 40
1
 40
1
 40
1
 10
48.938760
 20
200.276600
 30
0.0
 10
47.835020
 20
199.817160
 30
0.0
 10
46.863290
 20
199.467610
 30
0.0
 10
46.779280
 20
199.499830
 30
0.0
  0
SPLINE
  5
21d
100
AcDbEntity
  8
Ebene_1
 62
7
100
AcDbSpline
 70
8
 71
3
 72
8
 73
4
 74
0
 40
0
 40
0
 40
0
 40
0
 40
1
 40
1
 40
1
 40
1
 10
46.779280
 20
199.499830
 30
0.0
 10
46.695080
 20
199.532230
 30
0.0
 10
46.004270
 20
200.814010
 30
0.0
 10
45.243750
 20
202.348620
 30
0.0
  0
SPLINE
  5
21e
100
AcDbEntity
  8
Ebene_1
 62
7
100
AcDbSpline
 70
8
 71
3
 72
8
 73
4
 74
0
 40
0
 40
0
 40
0
 40
0
 40
1
 40
1
 40
1
 40
1
 10
45.243750
 20
202.348620
 30
0.0
 10
43.820740
 20
205.219800
 30
0.0
 10
43.157590
 20
206.711310
 30
0.0
 10
43.258950
 20
206.812670
 30
0.0
  0
SPLINE
  5
21f
100
AcDbEntity
  8
Ebene_1
 62
7
100
AcDbSpline
 70
8
 71
3
 72
8
 73
4
 74
0
 40
0
 40
0
 40
0
 40
0
 40
1
 40
1
 40
1
 40
1
 10
43.258950
 20
206.812670
 30
0.0
 10
43.362770
 20
206.916450
 30
0.0
 10
47.540650
 20
208.494750
 30
0.0
 10
49.989550
 20
209.355400
 30
0.0
  0
SPLINE
  5
220
100
AcDbEntity
  8
Ebene_1
 62
7
100
AcDbSpline
 70
8
 71
3
 72
8
 73
4
 74
0
 40
0
 40
0
 40
0
 40
0
 40
1
 40
1
 40
1
 40
1
 10
49.989550
 20
209.355400
 30
0.0
 10
72.947210
 20
217.423830
 30
0.0
 10
97.465410
 20
220.767370
 30
0.0
 10
120.670610
 20
218.994220
 30
0.0
  0
SPLINE
  5
221
100
AcDbEntity
  8
Ebene_1
 62
7
100
AcDbSpline
 70
8
 71
3
 72
8
 73
4
 74
0
 40
0
 40
0
 40
0
 40
0
 40
1
 40
1
 40
1
 40
1
 10
120.670610
 20
218.994220
 30
0.0
 10
138.026750
 20
217.668010
 30
0.0
 10
154.384050
 20
214.006910
 30
0.0
 10
171.034720
 20
207.721690
 30
0.0
  0
SPLINE
  5
222
100
AcDbEntity
  8
Ebene_1
 62
7
100
AcDbSpline
 70
8
 71
3
 72
8
 73
4
 74
0
 40
0
 40
0
 40
0
 40
0
 40
1
 40
1
 40
1
 40
1
 10
171.034720
 20
207.721690
 30
0.0
 10
172.274410
 20
207.253750
 30
0.0
 10
173.309980
 20
206.849590
 30
0.0
 10
173.336030
 20
206.823540
 30
0.0
  0
SPLINE
  5
223
100
AcDbEntity
  8
Ebene_1
 62
7
100
AcDbSpline
 70
8
 71
3
 72
8
 73
4
 74
0
 40
0
 40
0
 40
0
 40
0
 40
1
 40
1
 40
1
 40
1
 10
173.336030
 20
206.823540
 30
0.0
 10
173.472150
 20
206.687440
 30
0.0
 10
170.142810
 20
199.737260
 30
0.0
 10
169.805480
 20
199.453250
 30
0.0
  0
SPLINE
  5
224
100
AcDbEntity
  8
Ebene_1
 62
7
100
AcDbSpline
 70
8
 71
3
 72
8
 73
4
 74
0
 40
0
 40
0
 40
0
 40
0
 40
1
 40
1
 40
1
 40
1
 10
169.805480
 20
199.453250
 30
0.0
 10
169.760180
 20
199.415150
 30
0.0
 10
168.782150
 20
199.780860
 30
0.0
 10
167.632010
 20
200.265920
 30
0.0
  0
LWPOLYLINE
  5
225
100
AcDbEntity
  8
Ebene_1
 62
7
100
AcDbPolyline
 90
3
 70
0
 10
108.383310
 20
90.603230
 30
0.0
 10
108.288610
 20
90.065520
 30
0.0
 10
108.209340
 20
90.483780
 30
0.0
  0
LWPOLYLINE
  5
226
100
AcDbEntity
  8
Ebene_1
 62
7
100
AcDbPolyline
 90
1
 70
1
 10
167.632010
 20
200.265920
 30
0.0
  0
SPLINE
  5
227
100
AcDbEntity
  8
Ebene_1
 62
7
100
AcDbSpline
 70
8
 71
3
 72
8
 73
4
 74
0
 40
0
 40
0
 40
0
 40
0
 40
1
 40
1
 40
1
 40
1
 10
34.511283
 20
245.953793
 30
0.0
 10
33.306067
 20
245.953793
 30
0.0
 10
32.290561
 20
246.366691
 30
0.0
 10
31.464765
 20
247.192487
 30
0.0
  0
SPLINE
  5
228
100
AcDbEntity
  8
Ebene_1
 62
7
100
AcDbSpline
 70
8
 71
3
 72
8
 73
4
 74
0
 40
0
 40
0
 40
0
 40
0
 40
1
 40
1
 40
1
 40
1
 10
31.464765
 20
247.192487
 30
0.0
 10
30.638968
 20
248.040602
 30
0.0
 10
30.226070
 20
249.056108
 30
0.0
 10
30.226070
 20
250.239005
 30
0.0
  0
LWPOLYLINE
  5
229
100
AcDbEntity
  8
Ebene_1
 62
7
100
AcDbPolyline
 90
3
 70
0
 10
40.939102
 20
228.812943
 30
0.0
 10
40.939102
 20
245.953793
 30
0.0
 10
34.511283
 20
245.953793
 30
0.0
  0
SPLINE
  5
22a
100
AcDbEntity
  8
Ebene_1
 62
7
100
AcDbSpline
 70
8
 71
3
 72
8
 73
4
 74
0
 40
0
 40
0
 40
0
 40
0
 40
1
 40
1
 40
1
 40
1
 10
55.937346
 20
250.239005
 30
0.0
 10
55.937346
 20
249.033789
 30
0.0
 10
55.513288
 20
248.018283
 30
0.0
 10
54.665173
 20
247.192487
 30
0.0
  0
SPLINE
  5
22b
100
AcDbEntity
  8
Ebene_1
 62
7
100
AcDbSpline
 70
8
 71
3
 72
8
 73
4
 74
0
 40
0
 40
0
 40
0
 40
0
 40
1
 40
1
 40
1
 40
1
 10
54.665173
 20
247.192487
 30
0.0
 10
53.817058
 20
246.366691
 30
0.0
 10
52.812712
 20
245.953793
 30
0.0
 10
51.652133
 20
245.953793
 30
0.0
  0
LWPOLYLINE
  5
22c
100
AcDbEntity
  8
Ebene_1
 62
7
100
AcDbPolyline
 90
2
 70
0
 10
30.226070
 20
250.239005
 30
0.0
 10
55.937346
 20
250.239005
 30
0.0
  0
SPLINE
  5
22d
100
AcDbEntity
  8
Ebene_1
 62
7
100
AcDbSpline
 70
8
 71
3
 72
8
 73
4
 74
0
 40
0
 40
0
 40
0
 40
0
 40
1
 40
1
 40
1
 40
1
 10
67.809100
 20
228.812943
 30
0.0
 10
66.603884
 20
228.812943
 30
0.0
 10
65.588378
 20
229.225841
 30
0.0
 10
64.762582
 20
230.051637
 30
0.0
  0
SPLINE
  5
22e
100
AcDbEntity
  8
Ebene_1
 62
7
100
AcDbSpline
 70
8
 71
3
 72
8
 73
4
 74
0
 40
0
 40
0
 40
0
 40
0
 40
1
 40
1
 40
1
 40
1
 10
64.762582
 20
230.051637
 30
0.0
 10
63.936786
 20
230.899752
 30
0.0
 10
63.523888
 20
231.915258
 30
0.0
 10
63.523888
 20
233.098155
 30
0.0
  0
LWPOLYLINE
  5
22f
100
AcDbEntity
  8
Ebene_1
 62
7
100
AcDbPolyline
 90
4
 70
0
 10
51.652133
 20
245.953793
 30
0.0
 10
45.224314
 20
245.953793
 30
0.0
 10
45.224314
 20
228.812943
 30
0.0
 10
40.939102
 20
228.812943
 30
0.0
  0
SPLINE
  5
230
100
AcDbEntity
  8
Ebene_1
 62
7
100
AcDbSpline
 70
8
 71
3
 72
8
 73
4
 74
0
 40
0
 40
0
 40
0
 40
0
 40
1
 40
1
 40
1
 40
1
 10
89.235163
 20
233.098155
 30
0.0
 10
89.235163
 20
231.892939
 30
0.0
 10
88.811105
 20
230.877433
 30
0.0
 10
87.962990
 20
230.051637
 30
0.0
  0
SPLINE
  5
231
100
AcDbEntity
  8
Ebene_1
 62
7
100
AcDbSpline
 70
8
 71
3
 72
8
 73
4
 74
0
 40
0
 40
0
 40
0
 40
0
 40
1
 40
1
 40
1
 40
1
 10
87.962990
 20
230.051637
 30
0.0
 10
87.114875
 20
229.225841
 30
0.0
 10
86.110529
 20
228.812943
 30
0.0
 10
84.949950
 20
228.812943
 30
0.0
  0
LWPOLYLINE
  5
232
100
AcDbEntity
  8
Ebene_1
 62
7
100
AcDbPolyline
 90
2
 70
0
 10
63.523888
 20
233.098155
 30
0.0
 10
89.235163
 20
233.098155
 30
0.0
  0
SPLINE
  5
233
100
AcDbEntity
  8
Ebene_1
 62
7
100
AcDbSpline
 70
8
 71
3
 72
8
 73
4
 74
0
 40
0
 40
0
 40
0
 40
0
 40
1
 40
1
 40
1
 40
1
 10
67.809100
 20
237.383368
 30
0.0
 10
66.603884
 20
237.383368
 30
0.0
 10
65.588378
 20
237.796266
 30
0.0
 10
64.762582
 20
238.622062
 30
0.0
  0
SPLINE
  5
234
100
AcDbEntity
  8
Ebene_1
 62
7
100
AcDbSpline
 70
8
 71
3
 72
8
 73
4
 74
0
 40
0
 40
0
 40
0
 40
0
 40
1
 40
1
 40
1
 40
1
 10
64.762582
 20
238.622062
 30
0.0
 10
63.936786
 20
239.470177
 30
0.0
 10
63.523888
 20
240.485683
 30
0.0
 10
63.523888
 20
241.668580
 30
0.0
  0
LWPOLYLINE
  5
235
100
AcDbEntity
  8
Ebene_1
 62
7
100
AcDbPolyline
 90
2
 70
0
 10
84.949950
 20
228.812943
 30
0.0
 10
67.809100
 20
228.812943
 30
0.0
  0
SPLINE
  5
236
100
AcDbEntity
  8
Ebene_1
 62
7
100
AcDbSpline
 70
8
 71
3
 72
8
 73
4
 74
0
 40
0
 40
0
 40
0
 40
0
 40
1
 40
1
 40
1
 40
1
 10
89.235163
 20
241.668580
 30
0.0
 10
89.235163
 20
240.463364
 30
0.0
 10
88.811105
 20
239.447858
 30
0.0
 10
87.962990
 20
238.622062
 30
0.0
  0
SPLINE
  5
237
100
AcDbEntity
  8
Ebene_1
 62
7
100
AcDbSpline
 70
8
 71
3
 72
8
 73
4
 74
0
 40
0
 40
0
 40
0
 40
0
 40
1
 40
1
 40
1
 40
1
 10
87.962990
 20
238.622062
 30
0.0
 10
87.114875
 20
237.796266
 30
0.0
 10
86.110529
 20
237.383368
 30
0.0
 10
84.949950
 20
237.383368
 30
0.0
  0
LWPOLYLINE
  5
238
100
AcDbEntity
  8
Ebene_1
 62
7
100
AcDbPolyline
 90
2
 70
0
 10
63.523888
 20
241.668580
 30
0.0
 10
89.235163
 20
241.668580
 30
0.0
  0
SPLINE
  5
239
100
AcDbEntity
  8
Ebene_1
 62
7
100
AcDbSpline
 70
8
 71
3
 72
8
 73
4
 74
0
 40
0
 40
0
 40
0
 40
0
 40
1
 40
1
 40
1
 40
1
 10
67.809100
 20
245.953793
 30
0.0
 10
66.603884
 20
245.953793
 30
0.0
 10
65.588378
 20
246.366691
 30
0.0
 10
64.762582
 20
247.192487
 30
0.0
  0
SPLINE
  5
23a
100
AcDbEntity
  8
Ebene_1
 62
7
100
AcDbSpline
 70
8
 71
3
 72
8
 73
4
 74
0
 40
0
 40
0
 40
0
 40
0
 40
1
 40
1
 40
1
 40
1
 10
64.762582
 20
247.192487
 30
0.0
 10
63.936786
 20
248.040602
 30
0.0
 10
63.523888
 20
249.056108
 30
0.0
 10
63.523888
 20
250.239005
 30
0.0
  0
LWPOLYLINE
  5
23b
100
AcDbEntity
  8
Ebene_1
 62
7
100
AcDbPolyline
 90
2
 70
0
 10
84.949950
 20
237.383368
 30
0.0
 10
67.809100
 20
237.383368
 30
0.0
  0
SPLINE
  5
23c
100
AcDbEntity
  8
Ebene_1
 62
7
100
AcDbSpline
 70
8
 71
3
 72
8
 73
4
 74
0
 40
0
 40
0
 40
0
 40
0
 40
1
 40
1
 40
1
 40
1
 10
89.235163
 20
250.239005
 30
0.0
 10
89.235163
 20
249.033789
 30
0.0
 10
88.811105
 20
248.018283
 30
0.0
 10
87.962990
 20
247.192487
 30
0.0
  0
SPLINE
  5
23d
100
AcDbEntity
  8
Ebene_1
 62
7
100
AcDbSpline
 70
8
 71
3
 72
8
 73
4
 74
0
 40
0
 40
0
 40
0
 40
0
 40
1
 40
1
 40
1
 40
1
 10
87.962990
 20
247.192487
 30
0.0
 10
87.114875
 20
246.366691
 30
0.0
 10
86.110529
 20
245.953793
 30
0.0
 10
84.949950
 20
245.953793
 30
0.0
  0
LWPOLYLINE
  5
23e
100
AcDbEntity
  8
Ebene_1
 62
7
100
AcDbPolyline
 90
2
 70
0
 10
63.523888
 20
250.239005
 30
0.0
 10
89.235163
 20
250.239005
 30
0.0
  0
SPLINE
  5
23f
100
AcDbEntity
  8
Ebene_1
 62
7
100
AcDbSpline
 70
8
 71
3
 72
8
 73
4
 74
0
 40
0
 40
0
 40
0
 40
0
 40
1
 40
1
 40
1
 40
1
 10
96.821705
 20
228.812943
 30
0.0
 10
96.821705
 20
229.995840
 30
0.0
 10
97.234603
 20
231.000186
 30
0.0
 10
98.060399
 20
231.825983
 30
0.0
  0
SPLINE
  5
240
100
AcDbEntity
  8
Ebene_1
 62
7
100
AcDbSpline
 70
8
 71
3
 72
8
 73
4
 74
0
 40
0
 40
0
 40
0
 40
0
 40
1
 40
1
 40
1
 40
1
 10
98.060399
 20
231.825983
 30
0.0
 10
98.908514
 20
232.674098
 30
0.0
 10
99.924021
 20
233.098155
 30
0.0
 10
101.106920
 20
233.098155
 30
0.0
  0
LWPOLYLINE
  5
241
100
AcDbEntity
  8
Ebene_1
 62
7
100
AcDbPolyline
 90
2
 70
0
 10
84.949950
 20
245.953793
 30
0.0
 10
67.809100
 20
245.953793
 30
0.0
  0
SPLINE
  5
242
100
AcDbEntity
  8
Ebene_1
 62
7
100
AcDbSpline
 70
8
 71
3
 72
8
 73
4
 74
0
 40
0
 40
0
 40
0
 40
0
 40
1
 40
1
 40
1
 40
1
 10
122.532980
 20
250.239005
 30
0.0
 10
122.532980
 20
249.033789
 30
0.0
 10
122.108923
 20
248.018283
 30
0.0
 10
121.260810
 20
247.192487
 30
0.0
  0
SPLINE
  5
243
100
AcDbEntity
  8
Ebene_1
 62
7
100
AcDbSpline
 70
8
 71
3
 72
8
 73
4
 74
0
 40
0
 40
0
 40
0
 40
0
 40
1
 40
1
 40
1
 40
1
 10
121.260810
 20
247.192487
 30
0.0
 10
120.412697
 20
246.366691
 30
0.0
 10
119.408350
 20
245.953793
 30
0.0
 10
118.247770
 20
245.953793
 30
0.0
  0
LWPOLYLINE
  5
244
100
AcDbEntity
  8
Ebene_1
 62
7
100
AcDbPolyline
 90
6
 70
0
 10
101.106920
 20
233.098155
 30
0.0
 10
118.247770
 20
233.098155
 30
0.0
 10
118.247770
 20
237.383368
 30
0.0
 10
96.821705
 20
237.383368
 30
0.0
 10
96.821705
 20
250.239005
 30
0.0
 10
122.532980
 20
250.239005
 30
0.0
  0
LWPOLYLINE
  5
245
100
AcDbEntity
  8
Ebene_1
 62
7
100
AcDbPolyline
 90
6
 70
0
 10
118.247770
 20
245.953793
 30
0.0
 10
101.106920
 20
245.953793
 30
0.0
 10
101.106920
 20
241.668580
 30
0.0
 10
122.532980
 20
241.668580
 30
0.0
 10
122.532980
 20
228.812943
 30
0.0
 10
96.821705
 20
228.812943
 30
0.0
  0
SPLINE
  5
246
100
AcDbEntity
  8
Ebene_1
 62
7
100
AcDbSpline
 70
8
 71
3
 72
8
 73
4
 74
0
 40
0
 40
0
 40
0
 40
0
 40
1
 40
1
 40
1
 40
1
 10
155.830790
 20
233.098155
 30
0.0
 10
155.830790
 20
231.892939
 30
0.0
 10
155.406733
 20
230.877433
 30
0.0
 10
154.558620
 20
230.051637
 30
0.0
  0
SPLINE
  5
247
100
AcDbEntity
  8
Ebene_1
 62
7
100
AcDbSpline
 70
8
 71
3
 72
8
 73
4
 74
0
 40
0
 40
0
 40
0
 40
0
 40
1
 40
1
 40
1
 40
1
 10
154.558620
 20
230.051637
 30
0.0
 10
153.710507
 20
229.225841
 30
0.0
 10
152.706160
 20
228.812943
 30
0.0
 10
151.545580
 20
228.812943
 30
0.0
  0
LWPOLYLINE
  5
248
100
AcDbEntity
  8
Ebene_1
 62
7
100
AcDbPolyline
 90
5
 70
0
 10
130.119520
 20
228.812943
 30
0.0
 10
130.119520
 20
250.239005
 30
0.0
 10
134.404730
 20
250.239005
 30
0.0
 10
134.404730
 20
233.098155
 30
0.0
 10
155.830790
 20
233.098155
 30
0.0
  0
LWPOLYLINE
  5
249
100
AcDbEntity
  8
Ebene_1
 62
7
100
AcDbPolyline
 90
2
 70
0
 10
151.545580
 20
228.812943
 30
0.0
 10
130.119520
 20
228.812943
 30
0.0
  0
SPLINE
  5
24a
100
AcDbEntity
  8
Ebene_1
 62
7
100
AcDbSpline
 70
8
 71
3
 72
8
 73
4
 74
0
 40
0
 40
0
 40
0
 40
0
 40
1
 40
1
 40
1
 40
1
 10
167.702550
 20
245.953793
 30
0.0
 10
166.497337
 20
245.953793
 30
0.0
 10
165.481830
 20
246.366691
 30
0.0
 10
164.656030
 20
247.192487
 30
0.0
  0
SPLINE
  5
24b
100
AcDbEntity
  8
Ebene_1
 62
7
100
AcDbSpline
 70
8
 71
3
 72
8
 73
4
 74
0
 40
0
 40
0
 40
0
 40
0
 40
1
 40
1
 40
1
 40
1
 10
164.656030
 20
247.192487
 30
0.0
 10
163.830237
 20
248.040602
 30
0.0
 10
163.417340
 20
249.056108
 30
0.0
 10
163.417340
 20
250.239005
 30
0.0
  0
LWPOLYLINE
  5
24c
100
AcDbEntity
  8
Ebene_1
 62
7
100
AcDbPolyline
 90
8
 70
1
 10
163.417340
 20
228.812943
 30
0.0
 10
163.417340
 20
241.668580
 30
0.0
 10
189.128610
 20
241.668580
 30
0.0
 10
189.128610
 20
228.812943
 30
0.0
 10
184.843400
 20
228.812943
 30
0.0
 10
184.843400
 20
237.383368
 30
0.0
 10
167.702550
 20
237.383368
 30
0.0
 10
167.702550
 20
228.812943
 30
0.0
  0
SPLINE
  5
24d
100
AcDbEntity
  8
Ebene_1
 62
7
100
AcDbSpline
 70
8
 71
3
 72
8
 73
4
 74
0
 40
0
 40
0
 40
0
 40
0
 40
1
 40
1
 40
1
 40
1
 10
189.128610
 20
250.239005
 30
0.0
 10
189.128610
 20
249.033789
 30
0.0
 10
188.704553
 20
248.018283
 30
0.0
 10
187.856440
 20
247.192487
 30
0.0
  0
SPLINE
  5
24e
100
AcDbEntity
  8
Ebene_1
 62
7
100
AcDbSpline
 70
8
 71
3
 72
8
 73
4
 74
0
 40
0
 40
0
 40
0
 40
0
 40
1
 40
1
 40
1
 40
1
 10
187.856440
 20
247.192487
 30
0.0
 10
187.008327
 20
246.366691
 30
0.0
 10
186.003980
 20
245.953793
 30
0.0
 10
184.843400
 20
245.953793
 30
0.0
  0
LWPOLYLINE
  5
24f
100
AcDbEntity
  8
Ebene_1
 62
7
100
AcDbPolyline
 90
2
 70
0
 10
163.417340
 20
250.239005
 30
0.0
 10
189.128610
 20
250.239005
 30
0.0
  0
LWPOLYLINE
  5
250
100
AcDbEntity
  8
Ebene_1
 62
7
100
AcDbPolyline
 90
2
 70
0
 10
184.843400
 20
245.953793
 30
0.0
 10
167.702550
 20
245.953793
 30
0.0
  0
ENDSEC
  0
SECTION
  2
OBJECTS
  0
DICTIONARY
  5
C
330
0
100
AcDbDictionary
  3
ACAD_GROUP
350
D
  3
ACAD_MLINESTYLE
350
17
  0
DICTIONARY
  5
D
330
C
100
AcDbDictionary
  0
DICTIONARY
  5
1A
330
C
100
AcDbDictionary
  0
DICTIONARY
  5
17
330
C
100
AcDbDictionary
  3
STANDARD
350
18
  0
DICTIONARY
  5
19
330
C
100
AcDbDictionary
  0
ENDSEC
  0
EOF
