  0
SECTION
  2
HEADER
  9
$ACADVER
  1
AC1014
  9
$HANDSEED
  5
FFFF
  9
$MEASUREMENT
 70
     1
  0
ENDSEC
  0
SECTION
  2
TABLES
  0
TABLE
  2
VPORT
  5
8
330
0
100
AcDbSymbolTable
 70
     4
  0
VPORT
  5
2E
330
8
100
AcDbSymbolTableRecord
100
AcDbViewportTableRecord
  2
*ACTIVE
 70
     0
 10
0.0
 20
0.0
 11
1.0
 21
1.0
 12
210.0
 22
148.5
 13
0.0
 23
0.0
 14
10.0
 24
10.0
 15
10.0
 25
10.0
 16
0.0
 26
0.0
 36
1.0
 17
0.0
 27
0.0
 37
0.0
 40
341.0
 41
1.24
 42
50.0
 43
0.0
 44
0.0
 50
0.0
 51
0.0
 71
     0
 72
   100
 73
     1
 74
     3
 75
     0
 76
     0
 77
     0
 78
     0
  0
ENDTAB
  0
TABLE
  2
LTYPE
  5
5
330
0
100
AcDbSymbolTable
 70
     1
  0
LTYPE
  5
14
330
5
100
AcDbSymbolTableRecord
100
AcDbLinetypeTableRecord
  2
BYBLOCK
 70
     0
  3

 72
    65
 73
     0
 40
0.0
  0
LTYPE
  5
15
330
5
100
AcDbSymbolTableRecord
100
AcDbLinetypeTableRecord
  2
BYLAYER
 70
     0
  3

 72
    65
 73
     0
 40
0.0
  0
LTYPE
  5
16
330
5
100
AcDbSymbolTableRecord
100
AcDbLinetypeTableRecord
  2
CONTINUOUS
 70
     0
  3
Solid line
 72
    65
 73
     0
 40
0.0
  0
ENDTAB
  0
TABLE
  2
LAYER
  5
2
100
AcDbSymbolTable
 70
2
  0
LAYER
  5
50
100
AcDbSymbolTableRecord
100
AcDbLayerTableRecord
  2
0
 70
0
  6
CONTINUOUS
  0
LAYER
  5
51
100
AcDbSymbolTableRecord
100
AcDbLayerTableRecord
  2
Ebene_1
 70
0
  6
CONTINUOUS
  0
ENDTAB
  0
TABLE
  2
STYLE
  5
3
330
0
100
AcDbSymbolTable
 70
     1
  0
STYLE
  5
11
330
3
100
AcDbSymbolTableRecord
100
AcDbTextStyleTableRecord
  2
STANDARD
 70
     0
 40
0.0
 41
1.0
 50
0.0
 71
     0
 42
2.5
  3
txt
  4

  0
ENDTAB
  0
TABLE
  2
VIEW
  5
6
330
0
100
AcDbSymbolTable
 70
     0
  0
ENDTAB
  0
TABLE
  2
UCS
  5
7
330
0
100
AcDbSymbolTable
 70
     0
  0
ENDTAB
  0
TABLE
  2
APPID
  5
9
330
0
100
AcDbSymbolTable
 70
     2
  0
APPID
  5
12
330
9
100
AcDbSymbolTableRecord
100
AcDbRegAppTableRecord
  2
ACAD
 70
     0
  0
ENDTAB
  0
TABLE
  2
DIMSTYLE
  5
A
330
0
100
AcDbSymbolTable
 70
     1
  0
DIMSTYLE
105
27
330
A
100
AcDbSymbolTableRecord
100
AcDbDimStyleTableRecord
  2
ISO-25
 70
     0
  3

  4

  5

  6

  7

 40
1.0
 41
2.5
 42
0.625
 43
3.75
 44
1.25
 45
0.0
 46
0.0
 47
0.0
 48
0.0
140
2.5
141
2.5
142
0.0
143
0.03937007874016
144
1.0
145
0.0
146
1.0
147
0.625
 71
     0
 72
     0
 73
     0
 74
     0
 75
     0
 76
     0
 77
     1
 78
     8
170
     0
171
     3
172
     1
173
     0
174
     0
175
     0
176
     0
177
     0
178
     0
270
     2
271
     2
272
     2
273
     2
274
     3
340
11
275
     0
280
     0
281
     0
282
     0
283
     0
284
     8
285
     0
286
     0
287
     3
288
     0
  0
ENDTAB
  0
TABLE
  2
BLOCK_RECORD
  5
1
330
0
100
AcDbSymbolTable
 70
     1
  0
BLOCK_RECORD
  5
1F
330
1
100
AcDbSymbolTableRecord
100
AcDbBlockTableRecord
  2
*MODEL_SPACE
  0
BLOCK_RECORD
  5
1B
330
1
100
AcDbSymbolTableRecord
100
AcDbBlockTableRecord
  2
*PAPER_SPACE
  0
ENDTAB
  0
ENDSEC
  0
SECTION
  2
BLOCKS
  0
BLOCK
  5
20
330
1F
100
AcDbEntity
  8
0
100
AcDbBlockBegin
  2
*MODEL_SPACE
 70
     0
 10
0.0
 20
0.0
 30
0.0
  3
*MODEL_SPACE
  1

  0
ENDBLK
  5
21
330
1F
100
AcDbEntity
  8
0
100
AcDbBlockEnd
  0
BLOCK
  5
1C
330
1B
100
AcDbEntity
 67
     1
  8
0
100
AcDbBlockBegin
  2
*PAPER_SPACE
  1

  0
ENDBLK
  5
1D
330
1B
100
AcDbEntity
 67
     1
  8
0
100
AcDbBlockEnd
  0
ENDSEC
  0
SECTION
  2
ENTITIES
  0
SPLINE
  5
100
100
AcDbEntity
  8
Ebene_1
 62
7
100
AcDbSpline
 70
8
 71
3
 72
8
 73
4
 74
0
 40
0
 40
0
 40
0
 40
0
 40
1
 40
1
 40
1
 40
1
 10
108.306550
 20
92.023210
 30
0.0
 10
108.096720
 20
93.130360
 30
0.0
 10
90.041293
 20
193.981560
 30
0.0
 10
90.041293
 20
194.046410
 30
0.0
  0
SPLINE
  5
101
100
AcDbEntity
  8
Ebene_1
 62
7
100
AcDbSpline
 70
8
 71
3
 72
8
 73
4
 74
0
 40
0
 40
0
 40
0
 40
0
 40
1
 40
1
 40
1
 40
1
 10
90.041293
 20
194.046410
 30
0.0
 10
90.041293
 20
194.138610
 30
0.0
 10
84.708513
 20
194.003710
 30
0.0
 10
82.028003
 20
193.843710
 30
0.0
  0
SPLINE
  5
102
100
AcDbEntity
  8
Ebene_1
 62
7
100
AcDbSpline
 70
8
 71
3
 72
8
 73
4
 74
0
 40
0
 40
0
 40
0
 40
0
 40
1
 40
1
 40
1
 40
1
 10
82.028003
 20
193.843710
 30
0.0
 10
74.050883
 20
193.367770
 30
0.0
 10
69.948043
 20
191.970190
 30
0.0
 10
67.965023
 20
189.053300
 30
0.0
  0
SPLINE
  5
103
100
AcDbEntity
  8
Ebene_1
 62
7
100
AcDbSpline
 70
8
 71
3
 72
8
 73
4
 74
0
 40
0
 40
0
 40
0
 40
0
 40
1
 40
1
 40
1
 40
1
 10
67.965023
 20
189.053300
 30
0.0
 10
67.233923
 20
187.977870
 30
0.0
 10
66.928673
 20
187.211060
 30
0.0
 10
66.609563
 20
185.648410
 30
0.0
  0
SPLINE
  5
104
100
AcDbEntity
  8
Ebene_1
 62
7
100
AcDbSpline
 70
8
 71
3
 72
8
 73
4
 74
0
 40
0
 40
0
 40
0
 40
0
 40
1
 40
1
 40
1
 40
1
 10
66.609563
 20
185.648410
 30
0.0
 10
66.480033
 20
185.013500
 30
0.0
 10
66.350243
 20
184.470360
 30
0.0
 10
66.321333
 20
184.441450
 30
0.0
  0
SPLINE
  5
105
100
AcDbEntity
  8
Ebene_1
 62
7
100
AcDbSpline
 70
8
 71
3
 72
8
 73
4
 74
0
 40
0
 40
0
 40
0
 40
0
 40
1
 40
1
 40
1
 40
1
 10
66.321333
 20
184.441450
 30
0.0
 10
66.224333
 20
184.344450
 30
0.0
 10
62.909113
 20
185.920220
 30
0.0
 10
61.248143
 20
186.853180
 30
0.0
  0
SPLINE
  5
106
100
AcDbEntity
  8
Ebene_1
 62
7
100
AcDbSpline
 70
8
 71
3
 72
8
 73
4
 74
0
 40
0
 40
0
 40
0
 40
0
 40
1
 40
1
 40
1
 40
1
 10
61.248143
 20
186.853180
 30
0.0
 10
56.280143
 20
189.643650
 30
0.0
 10
52.379843
 20
192.874540
 30
0.0
 10
49.726593
 20
196.397400
 30
0.0
  0
SPLINE
  5
107
100
AcDbEntity
  8
Ebene_1
 62
7
100
AcDbSpline
 70
8
 71
3
 72
8
 73
4
 74
0
 40
0
 40
0
 40
0
 40
0
 40
1
 40
1
 40
1
 40
1
 10
49.726593
 20
196.397400
 30
0.0
 10
49.336753
 20
196.914960
 30
0.0
 10
49.017833
 20
197.380750
 30
0.0
 10
49.017833
 20
197.432540
 30
0.0
  0
SPLINE
  5
108
100
AcDbEntity
  8
Ebene_1
 62
7
100
AcDbSpline
 70
8
 71
3
 72
8
 73
4
 74
0
 40
0
 40
0
 40
0
 40
0
 40
1
 40
1
 40
1
 40
1
 10
49.017833
 20
197.432540
 30
0.0
 10
49.017833
 20
197.484540
 30
0.0
 10
49.219673
 20
197.610250
 30
0.0
 10
49.466343
 20
197.712380
 30
0.0
  0
SPLINE
  5
109
100
AcDbEntity
  8
Ebene_1
 62
7
100
AcDbSpline
 70
8
 71
3
 72
8
 73
4
 74
0
 40
0
 40
0
 40
0
 40
0
 40
1
 40
1
 40
1
 40
1
 10
49.466343
 20
197.712380
 30
0.0
 10
49.713033
 20
197.814650
 30
0.0
 10
50.775983
 20
198.272890
 30
0.0
 10
51.828493
 20
198.730980
 30
0.0
  0
SPLINE
  5
10a
100
AcDbEntity
  8
Ebene_1
 62
7
100
AcDbSpline
 70
8
 71
3
 72
8
 73
4
 74
0
 40
0
 40
0
 40
0
 40
0
 40
1
 40
1
 40
1
 40
1
 10
51.828493
 20
198.730980
 30
0.0
 10
63.887453
 20
203.979660
 30
0.0
 10
79.562263
 20
207.648420
 30
0.0
 10
93.629363
 20
208.514610
 30
0.0
  0
SPLINE
  5
10b
100
AcDbEntity
  8
Ebene_1
 62
7
100
AcDbSpline
 70
8
 71
3
 72
8
 73
4
 74
0
 40
0
 40
0
 40
0
 40
0
 40
1
 40
1
 40
1
 40
1
 10
101.625840
 20
200.374190
 30
0.0
 10
105.333200
 20
195.854490
 30
0.0
 10
108.407490
 20
192.201820
 30
0.0
 10
108.457620
 20
192.257130
 30
0.0
  0
SPLINE
  5
10c
100
AcDbEntity
  8
Ebene_1
 62
7
100
AcDbSpline
 70
8
 71
3
 72
8
 73
4
 74
0
 40
0
 40
0
 40
0
 40
0
 40
1
 40
1
 40
1
 40
1
 10
108.457620
 20
192.257130
 30
0.0
 10
108.507620
 20
192.312330
 30
0.0
 10
111.516730
 20
195.976320
 30
0.0
 10
115.144210
 20
200.398980
 30
0.0
  0
SPLINE
  5
10d
100
AcDbEntity
  8
Ebene_1
 62
7
100
AcDbSpline
 70
8
 71
3
 72
8
 73
4
 74
0
 40
0
 40
0
 40
0
 40
0
 40
1
 40
1
 40
1
 40
1
 10
115.144210
 20
200.398980
 30
0.0
 10
118.771710
 20
204.821640
 30
0.0
 10
121.795070
 20
208.474490
 30
0.0
 10
121.862780
 20
208.516370
 30
0.0
  0
SPLINE
  5
10e
100
AcDbEntity
  8
Ebene_1
 62
7
100
AcDbSpline
 70
8
 71
3
 72
8
 73
4
 74
0
 40
0
 40
0
 40
0
 40
0
 40
1
 40
1
 40
1
 40
1
 10
121.862780
 20
208.516370
 30
0.0
 10
122.004050
 20
208.603670
 30
0.0
 10
125.020900
 20
208.409140
 30
0.0
 10
127.656110
 20
208.142550
 30
0.0
  0
SPLINE
  5
10f
100
AcDbEntity
  8
Ebene_1
 62
7
100
AcDbSpline
 70
8
 71
3
 72
8
 73
4
 74
0
 40
0
 40
0
 40
0
 40
0
 40
1
 40
1
 40
1
 40
1
 10
127.656110
 20
208.142550
 30
0.0
 10
138.769210
 20
207.018650
 30
0.0
 10
149.930590
 20
204.445820
 30
0.0
 10
160.068280
 20
200.671190
 30
0.0
  0
SPLINE
  5
110
100
AcDbEntity
  8
Ebene_1
 62
7
100
AcDbSpline
 70
8
 71
3
 72
8
 73
4
 74
0
 40
0
 40
0
 40
0
 40
0
 40
1
 40
1
 40
1
 40
1
 10
160.068280
 20
200.671190
 30
0.0
 10
162.460810
 20
199.780390
 30
0.0
 10
166.309340
 20
198.190380
 30
0.0
 10
167.313060
 20
197.678100
 30
0.0
  0
LWPOLYLINE
  5
111
100
AcDbEntity
  8
Ebene_1
 62
7
100
AcDbPolyline
 90
3
 70
0
 10
93.629363
 20
208.514610
 30
0.0
 10
94.885163
 20
208.591910
 30
0.0
 10
101.625840
 20
200.374190
 30
0.0
  0
SPLINE
  5
112
100
AcDbEntity
  8
Ebene_1
 62
7
100
AcDbSpline
 70
8
 71
3
 72
8
 73
4
 74
0
 40
0
 40
0
 40
0
 40
0
 40
1
 40
1
 40
1
 40
1
 10
167.177110
 20
196.606770
 30
0.0
 10
164.826490
 20
193.373410
 30
0.0
 10
161.141450
 20
190.195960
 30
0.0
 10
156.577890
 20
187.467470
 30
0.0
  0
SPLINE
  5
113
100
AcDbEntity
  8
Ebene_1
 62
7
100
AcDbSpline
 70
8
 71
3
 72
8
 73
4
 74
0
 40
0
 40
0
 40
0
 40
0
 40
1
 40
1
 40
1
 40
1
 10
156.577890
 20
187.467470
 30
0.0
 10
155.322830
 20
186.717070
 30
0.0
 10
151.168130
 20
184.630770
 30
0.0
 10
150.601640
 20
184.466470
 30
0.0
  0
SPLINE
  5
114
100
AcDbEntity
  8
Ebene_1
 62
7
100
AcDbSpline
 70
8
 71
3
 72
8
 73
4
 74
0
 40
0
 40
0
 40
0
 40
0
 40
1
 40
1
 40
1
 40
1
 10
150.601640
 20
184.466470
 30
0.0
 10
150.367870
 20
184.398570
 30
0.0
 10
150.336520
 20
184.449570
 30
0.0
 10
150.258750
 20
185.024340
 30
0.0
  0
SPLINE
  5
115
100
AcDbEntity
  8
Ebene_1
 62
7
100
AcDbSpline
 70
8
 71
3
 72
8
 73
4
 74
0
 40
0
 40
0
 40
0
 40
0
 40
1
 40
1
 40
1
 40
1
 10
150.258750
 20
185.024340
 30
0.0
 10
150.211750
 20
185.372220
 30
0.0
 10
150.041650
 20
186.113140
 30
0.0
 10
149.880910
 20
186.670760
 30
0.0
  0
SPLINE
  5
116
100
AcDbEntity
  8
Ebene_1
 62
7
100
AcDbSpline
 70
8
 71
3
 72
8
 73
4
 74
0
 40
0
 40
0
 40
0
 40
0
 40
1
 40
1
 40
1
 40
1
 10
149.880910
 20
186.670760
 30
0.0
 10
148.615220
 20
191.062030
 30
0.0
 10
144.875500
 20
193.011990
 30
0.0
 10
136.327270
 20
193.737730
 30
0.0
  0
SPLINE
  5
117
100
AcDbEntity
  8
Ebene_1
 62
7
100
AcDbSpline
 70
8
 71
3
 72
8
 73
4
 74
0
 40
0
 40
0
 40
0
 40
0
 40
1
 40
1
 40
1
 40
1
 10
136.327270
 20
193.737730
 30
0.0
 10
134.465970
 20
193.895750
 30
0.0
 10
126.725020
 20
194.098570
 30
0.0
 10
126.627750
 20
193.991820
 30
0.0
  0
SPLINE
  5
118
100
AcDbEntity
  8
Ebene_1
 62
7
100
AcDbSpline
 70
8
 71
3
 72
8
 73
4
 74
0
 40
0
 40
0
 40
0
 40
0
 40
1
 40
1
 40
1
 40
1
 10
126.627750
 20
193.991820
 30
0.0
 10
126.577950
 20
193.937120
 30
0.0
 10
111.634440
 20
110.067880
 30
0.0
 10
108.480670
 20
92.142810
 30
0.0
  0
LWPOLYLINE
  5
119
100
AcDbEntity
  8
Ebene_1
 62
7
100
AcDbPolyline
 90
3
 70
0
 10
167.313060
 20
197.678100
 30
0.0
 10
167.781960
 20
197.438750
 30
0.0
 10
167.177110
 20
196.606770
 30
0.0
  0
SPLINE
  5
11a
100
AcDbEntity
  8
Ebene_1
 62
7
100
AcDbSpline
 70
8
 71
3
 72
8
 73
4
 74
0
 40
0
 40
0
 40
0
 40
0
 40
1
 40
1
 40
1
 40
1
 10
167.782600
 20
201.956980
 30
0.0
 10
153.498090
 20
207.984320
 30
0.0
 10
137.269160
 20
211.819720
 30
0.0
 10
121.077990
 20
212.994750
 30
0.0
  0
SPLINE
  5
11b
100
AcDbEntity
  8
Ebene_1
 62
7
100
AcDbSpline
 70
8
 71
3
 72
8
 73
4
 74
0
 40
0
 40
0
 40
0
 40
0
 40
1
 40
1
 40
1
 40
1
 10
121.077990
 20
212.994750
 30
0.0
 10
115.876130
 20
213.372260
 30
0.0
 10
105.069280
 20
213.495880
 30
0.0
 10
99.836303
 20
213.237740
 30
0.0
  0
SPLINE
  5
11c
100
AcDbEntity
  8
Ebene_1
 62
7
100
AcDbSpline
 70
8
 71
3
 72
8
 73
4
 74
0
 40
0
 40
0
 40
0
 40
0
 40
1
 40
1
 40
1
 40
1
 10
99.836303
 20
213.237740
 30
0.0
 10
81.701583
 20
212.343180
 30
0.0
 10
65.017283
 20
208.645620
 30
0.0
 10
48.982723
 20
201.967670
 30
0.0
  0
SPLINE
  5
11d
100
AcDbEntity
  8
Ebene_1
 62
7
100
AcDbSpline
 70
8
 71
3
 72
8
 73
4
 74
0
 40
0
 40
0
 40
0
 40
0
 40
1
 40
1
 40
1
 40
1
 10
48.982723
 20
201.967670
 30
0.0
 10
47.877993
 20
201.507600
 30
0.0
 10
46.905383
 20
201.157570
 30
0.0
 10
46.821293
 20
201.189830
 30
0.0
  0
SPLINE
  5
11e
100
AcDbEntity
  8
Ebene_1
 62
7
100
AcDbSpline
 70
8
 71
3
 72
8
 73
4
 74
0
 40
0
 40
0
 40
0
 40
0
 40
1
 40
1
 40
1
 40
1
 10
46.821293
 20
201.189830
 30
0.0
 10
46.736993
 20
201.222330
 30
0.0
 10
46.045593
 20
202.505830
 30
0.0
 10
45.284383
 20
204.042560
 30
0.0
  0
SPLINE
  5
11f
100
AcDbEntity
  8
Ebene_1
 62
7
100
AcDbSpline
 70
8
 71
3
 72
8
 73
4
 74
0
 40
0
 40
0
 40
0
 40
0
 40
1
 40
1
 40
1
 40
1
 10
45.284383
 20
204.042560
 30
0.0
 10
43.860103
 20
206.917700
 30
0.0
 10
43.196353
 20
208.411270
 30
0.0
 10
43.297793
 20
208.512770
 30
0.0
  0
SPLINE
  5
120
100
AcDbEntity
  8
Ebene_1
 62
7
100
AcDbSpline
 70
8
 71
3
 72
8
 73
4
 74
0
 40
0
 40
0
 40
0
 40
0
 40
1
 40
1
 40
1
 40
1
 10
43.297793
 20
208.512770
 30
0.0
 10
43.401713
 20
208.616700
 30
0.0
 10
47.583333
 20
210.197180
 30
0.0
 10
50.034463
 20
211.059010
 30
0.0
  0
SPLINE
  5
121
100
AcDbEntity
  8
Ebene_1
 62
7
100
AcDbSpline
 70
8
 71
3
 72
8
 73
4
 74
0
 40
0
 40
0
 40
0
 40
0
 40
1
 40
1
 40
1
 40
1
 10
50.034463
 20
211.059010
 30
0.0
 10
73.012733
 20
219.138590
 30
0.0
 10
97.552973
 20
222.486750
 30
0.0
 10
120.778990
 20
220.711150
 30
0.0
  0
SPLINE
  5
122
100
AcDbEntity
  8
Ebene_1
 62
7
100
AcDbSpline
 70
8
 71
3
 72
8
 73
4
 74
0
 40
0
 40
0
 40
0
 40
0
 40
1
 40
1
 40
1
 40
1
 10
120.778990
 20
220.711150
 30
0.0
 10
138.150720
 20
219.383110
 30
0.0
 10
154.522750
 20
215.716950
 30
0.0
 10
171.188360
 20
209.423050
 30
0.0
  0
SPLINE
  5
123
100
AcDbEntity
  8
Ebene_1
 62
7
100
AcDbSpline
 70
8
 71
3
 72
8
 73
4
 74
0
 40
0
 40
0
 40
0
 40
0
 40
1
 40
1
 40
1
 40
1
 10
171.188360
 20
209.423050
 30
0.0
 10
172.429160
 20
208.954460
 30
0.0
 10
173.465680
 20
208.549750
 30
0.0
 10
173.491740
 20
208.523660
 30
0.0
  0
SPLINE
  5
124
100
AcDbEntity
  8
Ebene_1
 62
7
100
AcDbSpline
 70
8
 71
3
 72
8
 73
4
 74
0
 40
0
 40
0
 40
0
 40
0
 40
1
 40
1
 40
1
 40
1
 10
173.491740
 20
208.523660
 30
0.0
 10
173.628030
 20
208.387370
 30
0.0
 10
170.295650
 20
201.427590
 30
0.0
 10
169.957990
 20
201.143180
 30
0.0
  0
SPLINE
  5
125
100
AcDbEntity
  8
Ebene_1
 62
7
100
AcDbSpline
 70
8
 71
3
 72
8
 73
4
 74
0
 40
0
 40
0
 40
0
 40
0
 40
1
 40
1
 40
1
 40
1
 10
169.957990
 20
201.143180
 30
0.0
 10
169.912690
 20
201.104980
 30
0.0
 10
168.933780
 20
201.471250
 30
0.0
 10
167.782600
 20
201.956980
 30
0.0
  0
LWPOLYLINE
  5
126
100
AcDbEntity
  8
Ebene_1
 62
7
100
AcDbPolyline
 90
3
 70
0
 10
108.480670
 20
92.142810
 30
0.0
 10
108.385870
 20
91.604350
 30
0.0
 10
108.306550
 20
92.023210
 30
0.0
  0
LWPOLYLINE
  5
127
100
AcDbEntity
  8
Ebene_1
 62
7
100
AcDbPolyline
 90
1
 70
1
 10
167.782600
 20
201.956980
 30
0.0
  0
SPLINE
  5
128
100
AcDbEntity
  8
Ebene_1
 62
7
100
AcDbSpline
 70
8
 71
3
 72
8
 73
4
 74
0
 40
0
 40
0
 40
0
 40
0
 40
1
 40
1
 40
1
 40
1
 10
27.342205
 20
66.975520
 30
0.0
 10
27.342205
 20
65.949310
 30
0.0
 10
27.721673
 20
65.019700
 30
0.0
 10
28.437908
 20
64.284110
 30
0.0
  0
LWPOLYLINE
  5
129
100
AcDbEntity
  8
Ebene_1
 62
7
100
AcDbPolyline
 90
2
 70
0
 10
27.342205
 20
74.067310
 30
0.0
 10
27.342205
 20
66.975520
 30
0.0
  0
SPLINE
  5
12a
100
AcDbEntity
  8
Ebene_1
 62
7
100
AcDbSpline
 70
8
 71
3
 72
8
 73
4
 74
0
 40
0
 40
0
 40
0
 40
0
 40
1
 40
1
 40
1
 40
1
 10
28.441908
 20
64.278110
 30
0.0
 10
29.163088
 20
63.556930
 30
0.0
 10
30.097954
 20
63.178500
 30
0.0
 10
31.139174
 20
63.178500
 30
0.0
  0
LWPOLYLINE
  5
12b
100
AcDbEntity
  8
Ebene_1
 62
7
100
AcDbPolyline
 90
3
 70
0
 10
28.437908
 20
64.284110
 30
0.0
 10
28.439908
 20
64.282110
 30
0.0
 10
28.441908
 20
64.278110
 30
0.0
  0
SPLINE
  5
12c
100
AcDbEntity
  8
Ebene_1
 62
7
100
AcDbSpline
 70
8
 71
3
 72
8
 73
4
 74
0
 40
0
 40
0
 40
0
 40
0
 40
1
 40
1
 40
1
 40
1
 10
44.322768
 20
63.178500
 30
0.0
 10
45.334045
 20
63.178500
 30
0.0
 10
46.254762
 20
63.559490
 30
0.0
 10
46.988783
 20
64.274210
 30
0.0
  0
SPLINE
  5
12d
100
AcDbEntity
  8
Ebene_1
 62
7
100
AcDbSpline
 70
8
 71
3
 72
8
 73
4
 74
0
 40
0
 40
0
 40
0
 40
0
 40
1
 40
1
 40
1
 40
1
 10
46.988783
 20
64.274210
 30
0.0
 10
47.728239
 20
64.994200
 30
0.0
 10
48.119643
 20
65.931070
 30
0.0
 10
48.119643
 20
66.975380
 30
0.0
  0
LWPOLYLINE
  5
12e
100
AcDbEntity
  8
Ebene_1
 62
7
100
AcDbPolyline
 90
2
 70
0
 10
31.139174
 20
63.178500
 30
0.0
 10
44.322768
 20
63.178500
 30
0.0
  0
SPLINE
  5
12f
100
AcDbEntity
  8
Ebene_1
 62
7
100
AcDbSpline
 70
8
 71
3
 72
8
 73
4
 74
0
 40
0
 40
0
 40
0
 40
0
 40
1
 40
1
 40
1
 40
1
 10
32.787517
 20
67.475380
 30
0.0
 10
32.440920
 20
67.475380
 30
0.0
 10
32.196038
 20
67.575920
 30
0.0
 10
31.959392
 20
67.795690
 30
0.0
  0
SPLINE
  5
130
100
AcDbEntity
  8
Ebene_1
 62
7
100
AcDbSpline
 70
8
 71
3
 72
8
 73
4
 74
0
 40
0
 40
0
 40
0
 40
0
 40
1
 40
1
 40
1
 40
1
 10
31.959392
 20
67.795690
 30
0.0
 10
31.739626
 20
68.032330
 30
0.0
 10
31.639080
 20
68.277210
 30
0.0
 10
31.639080
 20
68.623810
 30
0.0
  0
LWPOLYLINE
  5
131
100
AcDbEntity
  8
Ebene_1
 62
7
100
AcDbPolyline
 90
3
 70
0
 10
48.119643
 20
66.975380
 30
0.0
 10
48.119643
 20
67.475380
 30
0.0
 10
32.787517
 20
67.475380
 30
0.0
  0
LWPOLYLINE
  5
132
100
AcDbEntity
  8
Ebene_1
 62
7
100
AcDbPolyline
 90
3
 70
0
 10
31.639080
 20
68.623810
 30
0.0
 10
31.639080
 20
74.067170
 30
0.0
 10
27.342205
 20
74.067310
 30
0.0
  0
SPLINE
  5
133
100
AcDbEntity
  8
Ebene_1
 62
7
100
AcDbSpline
 70
8
 71
3
 72
8
 73
4
 74
0
 40
0
 40
0
 40
0
 40
0
 40
1
 40
1
 40
1
 40
1
 10
44.322674
 20
76.364190
 30
0.0
 10
45.333951
 20
76.364190
 30
0.0
 10
46.254668
 20
76.743230
 30
0.0
 10
46.988689
 20
77.457940
 30
0.0
  0
SPLINE
  5
134
100
AcDbEntity
  8
Ebene_1
 62
7
100
AcDbSpline
 70
8
 71
3
 72
8
 73
4
 74
0
 40
0
 40
0
 40
0
 40
0
 40
1
 40
1
 40
1
 40
1
 10
46.988689
 20
77.457940
 30
0.0
 10
47.728145
 20
78.177930
 30
0.0
 10
48.119549
 20
79.114810
 30
0.0
 10
48.119549
 20
80.159110
 30
0.0
  0
LWPOLYLINE
  5
135
100
AcDbEntity
  8
Ebene_1
 62
7
100
AcDbPolyline
 90
4
 70
0
 10
27.342205
 20
80.659110
 30
0.0
 10
27.342205
 20
76.364190
 30
0.0
 10
27.842205
 20
76.364190
 30
0.0
 10
44.322674
 20
76.364190
 30
0.0
  0
LWPOLYLINE
  5
136
100
AcDbEntity
  8
Ebene_1
 62
7
100
AcDbPolyline
 90
3
 70
0
 10
48.119549
 20
80.159110
 30
0.0
 10
48.119549
 20
80.659110
 30
0.0
 10
27.342205
 20
80.659110
 30
0.0
  0
SPLINE
  5
137
100
AcDbEntity
  8
Ebene_1
 62
7
100
AcDbSpline
 70
8
 71
3
 72
8
 73
4
 74
0
 40
0
 40
0
 40
0
 40
0
 40
1
 40
1
 40
1
 40
1
 10
64.100017
 20
69.772390
 30
0.0
 10
65.111295
 20
69.772390
 30
0.0
 10
66.032011
 20
70.151430
 30
0.0
 10
66.766033
 20
70.866140
 30
0.0
  0
SPLINE
  5
138
100
AcDbEntity
  8
Ebene_1
 62
7
100
AcDbSpline
 70
8
 71
3
 72
8
 73
4
 74
0
 40
0
 40
0
 40
0
 40
0
 40
1
 40
1
 40
1
 40
1
 10
66.766033
 20
70.866140
 30
0.0
 10
66.822523
 20
70.921140
 30
0.0
 10
66.842543
 20
70.996150
 30
0.0
 10
66.894939
 20
71.053640
 30
0.0
  0
LWPOLYLINE
  5
139
100
AcDbEntity
  8
Ebene_1
 62
7
100
AcDbPolyline
 90
6
 70
0
 10
50.414471
 20
80.659110
 30
0.0
 10
50.414471
 20
63.178640
 30
0.0
 10
50.914471
 20
63.178640
 30
0.0
 10
54.711345
 20
63.178640
 30
0.0
 10
54.711345
 20
69.772390
 30
0.0
 10
64.100017
 20
69.772390
 30
0.0
  0
LWPOLYLINE
  5
13a
100
AcDbEntity
  8
Ebene_1
 62
7
100
AcDbPolyline
 90
10
 70
0
 10
66.894939
 20
71.053640
 30
0.0
 10
66.894939
 20
63.178640
 30
0.0
 10
67.394939
 20
63.178640
 30
0.0
 10
71.191814
 20
63.178640
 30
0.0
 10
71.191814
 20
80.659110
 30
0.0
 10
66.894939
 20
80.659110
 30
0.0
 10
66.894939
 20
74.067310
 30
0.0
 10
54.711345
 20
74.067310
 30
0.0
 10
54.711345
 20
80.659110
 30
0.0
 10
50.414471
 20
80.659110
 30
0.0
  0
LWPOLYLINE
  5
13b
100
AcDbEntity
  8
Ebene_1
 62
7
100
AcDbPolyline
 90
9
 70
1
 10
73.486736
 20
74.067310
 30
0.0
 10
73.486736
 20
63.178640
 30
0.0
 10
73.986736
 20
63.178640
 30
0.0
 10
77.783611
 20
63.178640
 30
0.0
 10
77.783611
 20
69.772390
 30
0.0
 10
89.967205
 20
69.772390
 30
0.0
 10
89.967205
 20
63.178640
 30
0.0
 10
94.264080
 20
63.178640
 30
0.0
 10
94.264080
 20
74.067310
 30
0.0
  0
SPLINE
  5
13c
100
AcDbEntity
  8
Ebene_1
 62
7
100
AcDbSpline
 70
8
 71
3
 72
8
 73
4
 74
0
 40
0
 40
0
 40
0
 40
0
 40
1
 40
1
 40
1
 40
1
 10
73.486736
 20
80.159110
 30
0.0
 10
73.486736
 20
79.132910
 30
0.0
 10
73.866204
 20
78.203300
 30
0.0
 10
74.582439
 20
77.467710
 30
0.0
  0
LWPOLYLINE
  5
13d
100
AcDbEntity
  8
Ebene_1
 62
7
100
AcDbPolyline
 90
2
 70
0
 10
73.486736
 20
80.659110
 30
0.0
 10
73.486736
 20
80.159110
 30
0.0
  0
SPLINE
  5
13e
100
AcDbEntity
  8
Ebene_1
 62
7
100
AcDbSpline
 70
8
 71
3
 72
8
 73
4
 74
0
 40
0
 40
0
 40
0
 40
0
 40
1
 40
1
 40
1
 40
1
 10
74.586439
 20
77.463710
 30
0.0
 10
75.307619
 20
76.742520
 30
0.0
 10
76.242485
 20
76.364100
 30
0.0
 10
77.283705
 20
76.364100
 30
0.0
  0
LWPOLYLINE
  5
13f
100
AcDbEntity
  8
Ebene_1
 62
7
100
AcDbPolyline
 90
3
 70
0
 10
74.582439
 20
77.467710
 30
0.0
 10
74.584439
 20
77.465710
 30
0.0
 10
74.586439
 20
77.463710
 30
0.0
  0
SPLINE
  5
140
100
AcDbEntity
  8
Ebene_1
 62
7
100
AcDbSpline
 70
8
 71
3
 72
8
 73
4
 74
0
 40
0
 40
0
 40
0
 40
0
 40
1
 40
1
 40
1
 40
1
 10
90.467299
 20
76.364100
 30
0.0
 10
91.478576
 20
76.364100
 30
0.0
 10
92.401246
 20
76.743140
 30
0.0
 10
93.135268
 20
77.457850
 30
0.0
  0
SPLINE
  5
141
100
AcDbEntity
  8
Ebene_1
 62
7
100
AcDbSpline
 70
8
 71
3
 72
8
 73
4
 74
0
 40
0
 40
0
 40
0
 40
0
 40
1
 40
1
 40
1
 40
1
 10
93.135268
 20
77.457850
 30
0.0
 10
93.874724
 20
78.177840
 30
0.0
 10
94.264174
 20
79.114720
 30
0.0
 10
94.264174
 20
80.159020
 30
0.0
  0
LWPOLYLINE
  5
142
100
AcDbEntity
  8
Ebene_1
 62
7
100
AcDbPolyline
 90
2
 70
0
 10
77.283705
 20
76.364100
 30
0.0
 10
90.467299
 20
76.364100
 30
0.0
  0
LWPOLYLINE
  5
143
100
AcDbEntity
  8
Ebene_1
 62
7
100
AcDbPolyline
 90
3
 70
0
 10
94.264174
 20
80.159020
 30
0.0
 10
94.264174
 20
80.659020
 30
0.0
 10
73.486736
 20
80.659110
 30
0.0
  0
SPLINE
  5
144
100
AcDbEntity
  8
Ebene_1
 62
7
100
AcDbSpline
 70
8
 71
3
 72
8
 73
4
 74
0
 40
0
 40
0
 40
0
 40
0
 40
1
 40
1
 40
1
 40
1
 10
96.560955
 20
80.159110
 30
0.0
 10
96.560955
 20
79.132910
 30
0.0
 10
96.938469
 20
78.203300
 30
0.0
 10
97.654705
 20
77.467710
 30
0.0
  0
LWPOLYLINE
  5
145
100
AcDbEntity
  8
Ebene_1
 62
7
100
AcDbPolyline
 90
2
 70
0
 10
96.560955
 20
80.659110
 30
0.0
 10
96.560955
 20
80.159110
 30
0.0
  0
SPLINE
  5
146
100
AcDbEntity
  8
Ebene_1
 62
7
100
AcDbSpline
 70
8
 71
3
 72
8
 73
4
 74
0
 40
0
 40
0
 40
0
 40
0
 40
1
 40
1
 40
1
 40
1
 10
97.658705
 20
77.463710
 30
0.0
 10
98.379885
 20
76.742520
 30
0.0
 10
99.314753
 20
76.364100
 30
0.0
 10
100.355963
 20
76.364100
 30
0.0
  0
LWPOLYLINE
  5
147
100
AcDbEntity
  8
Ebene_1
 62
7
100
AcDbPolyline
 90
3
 70
0
 10
97.654705
 20
77.467710
 30
0.0
 10
97.656705
 20
77.465710
 30
0.0
 10
97.658705
 20
77.463710
 30
0.0
  0
SPLINE
  5
148
100
AcDbEntity
  8
Ebene_1
 62
7
100
AcDbSpline
 70
8
 71
3
 72
8
 73
4
 74
0
 40
0
 40
0
 40
0
 40
0
 40
1
 40
1
 40
1
 40
1
 10
113.041513
 20
75.215660
 30
0.0
 10
113.041513
 20
74.871110
 30
0.0
 10
112.939603
 20
74.630750
 30
0.0
 10
112.699713
 20
74.389490
 30
0.0
  0
SPLINE
  5
149
100
AcDbEntity
  8
Ebene_1
 62
7
100
AcDbSpline
 70
8
 71
3
 72
8
 73
4
 74
0
 40
0
 40
0
 40
0
 40
0
 40
1
 40
1
 40
1
 40
1
 10
112.699713
 20
74.389490
 30
0.0
 10
112.458673
 20
74.163730
 30
0.0
 10
112.220743
 20
74.067220
 30
0.0
 10
111.893073
 20
74.067220
 30
0.0
  0
LWPOLYLINE
  5
14a
100
AcDbEntity
  8
Ebene_1
 62
7
100
AcDbPolyline
 90
3
 70
0
 10
100.355963
 20
76.364100
 30
0.0
 10
113.041513
 20
76.364100
 30
0.0
 10
113.041513
 20
75.215660
 30
0.0
  0
SPLINE
  5
14b
100
AcDbEntity
  8
Ebene_1
 62
7
100
AcDbSpline
 70
8
 71
3
 72
8
 73
4
 74
0
 40
0
 40
0
 40
0
 40
0
 40
1
 40
1
 40
1
 40
1
 10
113.541423
 20
69.772300
 30
0.0
 10
114.552703
 20
69.772300
 30
0.0
 10
115.473413
 20
70.151340
 30
0.0
 10
116.207443
 20
70.866050
 30
0.0
  0
SPLINE
  5
14c
100
AcDbEntity
  8
Ebene_1
 62
7
100
AcDbSpline
 70
8
 71
3
 72
8
 73
4
 74
0
 40
0
 40
0
 40
0
 40
0
 40
1
 40
1
 40
1
 40
1
 10
116.207443
 20
70.866050
 30
0.0
 10
116.946893
 20
71.586050
 30
0.0
 10
117.336343
 20
72.522920
 30
0.0
 10
117.336343
 20
73.567220
 30
0.0
  0
LWPOLYLINE
  5
14d
100
AcDbEntity
  8
Ebene_1
 62
7
100
AcDbPolyline
 90
11
 70
0
 10
111.893073
 20
74.067220
 30
0.0
 10
96.560955
 20
74.067220
 30
0.0
 10
96.560955
 20
63.178550
 30
0.0
 10
97.060955
 20
63.178550
 30
0.0
 10
100.855873
 20
63.178550
 30
0.0
 10
100.855873
 20
69.772300
 30
0.0
 10
105.094163
 20
69.772300
 30
0.0
 10
111.685953
 20
63.178550
 30
0.0
 10
118.043373
 20
63.178550
 30
0.0
 10
111.451583
 20
69.772300
 30
0.0
 10
113.541423
 20
69.772300
 30
0.0
  0
LWPOLYLINE
  5
14e
100
AcDbEntity
  8
Ebene_1
 62
7
100
AcDbPolyline
 90
3
 70
0
 10
117.336343
 20
73.567220
 30
0.0
 10
117.336343
 20
80.659020
 30
0.0
 10
96.560955
 20
80.659110
 30
0.0
  0
SPLINE
  5
14f
100
AcDbEntity
  8
Ebene_1
 62
7
100
AcDbSpline
 70
8
 71
3
 72
8
 73
4
 74
0
 40
0
 40
0
 40
0
 40
0
 40
1
 40
1
 40
1
 40
1
 10
119.633223
 20
66.975520
 30
0.0
 10
119.633223
 20
65.949310
 30
0.0
 10
120.010733
 20
65.019700
 30
0.0
 10
120.726973
 20
64.284110
 30
0.0
  0
LWPOLYLINE
  5
150
100
AcDbEntity
  8
Ebene_1
 62
7
100
AcDbPolyline
 90
2
 70
0
 10
119.633223
 20
74.067310
 30
0.0
 10
119.633223
 20
66.975520
 30
0.0
  0
SPLINE
  5
151
100
AcDbEntity
  8
Ebene_1
 62
7
100
AcDbSpline
 70
8
 71
3
 72
8
 73
4
 74
0
 40
0
 40
0
 40
0
 40
0
 40
1
 40
1
 40
1
 40
1
 10
120.732973
 20
64.278110
 30
0.0
 10
121.454153
 20
63.556930
 30
0.0
 10
122.387063
 20
63.178500
 30
0.0
 10
123.428283
 20
63.178500
 30
0.0
  0
LWPOLYLINE
  5
152
100
AcDbEntity
  8
Ebene_1
 62
7
100
AcDbPolyline
 90
3
 70
0
 10
120.726973
 20
64.284110
 30
0.0
 10
120.728973
 20
64.282110
 30
0.0
 10
120.732973
 20
64.278110
 30
0.0
  0
SPLINE
  5
153
100
AcDbEntity
  8
Ebene_1
 62
7
100
AcDbSpline
 70
8
 71
3
 72
8
 73
4
 74
0
 40
0
 40
0
 40
0
 40
0
 40
1
 40
1
 40
1
 40
1
 10
126.225153
 20
73.567170
 30
0.0
 10
126.225153
 20
72.540970
 30
0.0
 10
126.602673
 20
71.611360
 30
0.0
 10
127.318903
 20
70.875770
 30
0.0
  0
LWPOLYLINE
  5
154
100
AcDbEntity
  8
Ebene_1
 62
7
100
AcDbPolyline
 90
5
 70
0
 10
123.428283
 20
63.178500
 30
0.0
 10
140.408753
 20
63.178500
 30
0.0
 10
140.408753
 20
74.067170
 30
0.0
 10
126.225153
 20
74.067170
 30
0.0
 10
126.225153
 20
73.567170
 30
0.0
  0
SPLINE
  5
155
100
AcDbEntity
  8
Ebene_1
 62
7
100
AcDbSpline
 70
8
 71
3
 72
8
 73
4
 74
0
 40
0
 40
0
 40
0
 40
0
 40
1
 40
1
 40
1
 40
1
 10
127.324903
 20
70.869770
 30
0.0
 10
128.046093
 20
70.148580
 30
0.0
 10
128.979003
 20
69.772110
 30
0.0
 10
130.020223
 20
69.772110
 30
0.0
  0
LWPOLYLINE
  5
156
100
AcDbEntity
  8
Ebene_1
 62
7
100
AcDbPolyline
 90
3
 70
0
 10
127.318903
 20
70.875770
 30
0.0
 10
127.320903
 20
70.873770
 30
0.0
 10
127.324903
 20
70.869770
 30
0.0
  0
SPLINE
  5
157
100
AcDbEntity
  8
Ebene_1
 62
7
100
AcDbSpline
 70
8
 71
3
 72
8
 73
4
 74
0
 40
0
 40
0
 40
0
 40
0
 40
1
 40
1
 40
1
 40
1
 10
125.076583
 20
67.475240
 30
0.0
 10
124.729013
 20
67.475240
 30
0.0
 10
124.485713
 20
67.576410
 30
0.0
 10
124.248453
 20
67.797500
 30
0.0
  0
SPLINE
  5
158
100
AcDbEntity
  8
Ebene_1
 62
7
100
AcDbSpline
 70
8
 71
3
 72
8
 73
4
 74
0
 40
0
 40
0
 40
0
 40
0
 40
1
 40
1
 40
1
 40
1
 10
124.248453
 20
67.797500
 30
0.0
 10
124.029643
 20
68.033700
 30
0.0
 10
123.928143
 20
68.277790
 30
0.0
 10
123.928143
 20
68.623670
 30
0.0
  0
LWPOLYLINE
  5
159
100
AcDbEntity
  8
Ebene_1
 62
7
100
AcDbPolyline
 90
4
 70
0
 10
130.020223
 20
69.772110
 30
0.0
 10
136.113973
 20
69.772110
 30
0.0
 10
136.113973
 20
67.475240
 30
0.0
 10
125.076583
 20
67.475240
 30
0.0
  0
LWPOLYLINE
  5
15a
100
AcDbEntity
  8
Ebene_1
 62
7
100
AcDbPolyline
 90
3
 70
0
 10
123.928143
 20
68.623670
 30
0.0
 10
123.928143
 20
74.067030
 30
0.0
 10
119.633223
 20
74.067310
 30
0.0
  0
SPLINE
  5
15b
100
AcDbEntity
  8
Ebene_1
 62
7
100
AcDbSpline
 70
8
 71
3
 72
8
 73
4
 74
0
 40
0
 40
0
 40
0
 40
0
 40
1
 40
1
 40
1
 40
1
 10
136.613693
 20
76.364190
 30
0.0
 10
137.624963
 20
76.364190
 30
0.0
 10
138.545683
 20
76.743230
 30
0.0
 10
139.279703
 20
77.457940
 30
0.0
  0
SPLINE
  5
15c
100
AcDbEntity
  8
Ebene_1
 62
7
100
AcDbSpline
 70
8
 71
3
 72
8
 73
4
 74
0
 40
0
 40
0
 40
0
 40
0
 40
1
 40
1
 40
1
 40
1
 10
139.279703
 20
77.457940
 30
0.0
 10
140.019163
 20
78.177930
 30
0.0
 10
140.408613
 20
79.114810
 30
0.0
 10
140.408613
 20
80.159110
 30
0.0
  0
LWPOLYLINE
  5
15d
100
AcDbEntity
  8
Ebene_1
 62
7
100
AcDbPolyline
 90
4
 70
0
 10
119.633223
 20
80.659110
 30
0.0
 10
119.633223
 20
76.364190
 30
0.0
 10
120.133223
 20
76.364190
 30
0.0
 10
136.613693
 20
76.364190
 30
0.0
  0
LWPOLYLINE
  5
15e
100
AcDbEntity
  8
Ebene_1
 62
7
100
AcDbPolyline
 90
3
 70
0
 10
140.408613
 20
80.159110
 30
0.0
 10
140.408613
 20
80.659110
 30
0.0
 10
119.633223
 20
80.659110
 30
0.0
  0
LWPOLYLINE
  5
15f
100
AcDbEntity
  8
Ebene_1
 62
7
100
AcDbPolyline
 90
5
 70
1
 10
142.705483
 20
80.659110
 30
0.0
 10
142.705483
 20
63.178640
 30
0.0
 10
143.205483
 20
63.178640
 30
0.0
 10
147.000403
 20
63.178640
 30
0.0
 10
147.000403
 20
80.659110
 30
0.0
  0
LWPOLYLINE
  5
160
100
AcDbEntity
  8
Ebene_1
 62
7
100
AcDbPolyline
 90
12
 70
1
 10
148.590253
 20
80.659110
 30
0.0
 10
152.594163
 20
76.657160
 30
0.0
 10
152.594163
 20
63.178640
 30
0.0
 10
153.094163
 20
63.178640
 30
0.0
 10
156.889083
 20
63.178640
 30
0.0
 10
156.889083
 20
72.360280
 30
0.0
 10
166.070723
 20
63.178640
 30
0.0
 10
170.074623
 20
63.178640
 30
0.0
 10
170.074623
 20
80.659110
 30
0.0
 10
165.777753
 20
80.659110
 30
0.0
 10
165.777753
 20
69.830990
 30
0.0
 10
154.947673
 20
80.659110
 30
0.0
  0
SPLINE
  5
161
100
AcDbEntity
  8
Ebene_1
 62
7
100
AcDbSpline
 70
8
 71
3
 72
8
 73
4
 74
0
 40
0
 40
0
 40
0
 40
0
 40
1
 40
1
 40
1
 40
1
 10
172.369553
 20
66.975520
 30
0.0
 10
172.369553
 20
65.949310
 30
0.0
 10
172.749013
 20
65.019700
 30
0.0
 10
173.465253
 20
64.284110
 30
0.0
  0
LWPOLYLINE
  5
162
100
AcDbEntity
  8
Ebene_1
 62
7
100
AcDbPolyline
 90
2
 70
0
 10
172.369553
 20
74.067310
 30
0.0
 10
172.369553
 20
66.975520
 30
0.0
  0
SPLINE
  5
163
100
AcDbEntity
  8
Ebene_1
 62
7
100
AcDbSpline
 70
8
 71
3
 72
8
 73
4
 74
0
 40
0
 40
0
 40
0
 40
0
 40
1
 40
1
 40
1
 40
1
 10
173.469253
 20
64.278110
 30
0.0
 10
174.190423
 20
63.556920
 30
0.0
 10
175.125293
 20
63.178500
 30
0.0
 10
176.166513
 20
63.178500
 30
0.0
  0
LWPOLYLINE
  5
164
100
AcDbEntity
  8
Ebene_1
 62
7
100
AcDbPolyline
 90
3
 70
0
 10
173.465253
 20
64.284110
 30
0.0
 10
173.467253
 20
64.282110
 30
0.0
 10
173.469253
 20
64.278110
 30
0.0
  0
SPLINE
  5
165
100
AcDbEntity
  8
Ebene_1
 62
7
100
AcDbSpline
 70
8
 71
3
 72
8
 73
4
 74
0
 40
0
 40
0
 40
0
 40
0
 40
1
 40
1
 40
1
 40
1
 10
178.961433
 20
73.567170
 30
0.0
 10
178.961433
 20
72.540970
 30
0.0
 10
179.340903
 20
71.611360
 30
0.0
 10
180.057143
 20
70.875770
 30
0.0
  0
LWPOLYLINE
  5
166
100
AcDbEntity
  8
Ebene_1
 62
7
100
AcDbPolyline
 90
5
 70
0
 10
176.166513
 20
63.178500
 30
0.0
 10
193.146983
 20
63.178500
 30
0.0
 10
193.146983
 20
74.067170
 30
0.0
 10
178.961433
 20
74.067170
 30
0.0
 10
178.961433
 20
73.567170
 30
0.0
  0
SPLINE
  5
167
100
AcDbEntity
  8
Ebene_1
 62
7
100
AcDbSpline
 70
8
 71
3
 72
8
 73
4
 74
0
 40
0
 40
0
 40
0
 40
0
 40
1
 40
1
 40
1
 40
1
 10
180.061143
 20
70.869770
 30
0.0
 10
180.782323
 20
70.148580
 30
0.0
 10
181.717183
 20
69.772110
 30
0.0
 10
182.758413
 20
69.772110
 30
0.0
  0
LWPOLYLINE
  5
168
100
AcDbEntity
  8
Ebene_1
 62
7
100
AcDbPolyline
 90
3
 70
0
 10
180.057143
 20
70.875770
 30
0.0
 10
180.059143
 20
70.873770
 30
0.0
 10
180.061143
 20
70.869770
 30
0.0
  0
SPLINE
  5
169
100
AcDbEntity
  8
Ebene_1
 62
7
100
AcDbSpline
 70
8
 71
3
 72
8
 73
4
 74
0
 40
0
 40
0
 40
0
 40
0
 40
1
 40
1
 40
1
 40
1
 10
177.815053
 20
67.475240
 30
0.0
 10
177.468463
 20
67.475240
 30
0.0
 10
177.223573
 20
67.575780
 30
0.0
 10
176.986923
 20
67.795550
 30
0.0
  0
SPLINE
  5
16a
100
AcDbEntity
  8
Ebene_1
 62
7
100
AcDbSpline
 70
8
 71
3
 72
8
 73
4
 74
0
 40
0
 40
0
 40
0
 40
0
 40
1
 40
1
 40
1
 40
1
 10
176.986923
 20
67.795550
 30
0.0
 10
176.767163
 20
68.032190
 30
0.0
 10
176.666613
 20
68.277070
 30
0.0
 10
176.666613
 20
68.623670
 30
0.0
  0
LWPOLYLINE
  5
16b
100
AcDbEntity
  8
Ebene_1
 62
7
100
AcDbPolyline
 90
4
 70
0
 10
182.758413
 20
69.772110
 30
0.0
 10
188.850203
 20
69.772110
 30
0.0
 10
188.850203
 20
67.475240
 30
0.0
 10
177.815053
 20
67.475240
 30
0.0
  0
LWPOLYLINE
  5
16c
100
AcDbEntity
  8
Ebene_1
 62
7
100
AcDbPolyline
 90
3
 70
0
 10
176.666613
 20
68.623670
 30
0.0
 10
176.666613
 20
74.067030
 30
0.0
 10
172.369553
 20
74.067310
 30
0.0
  0
SPLINE
  5
16d
100
AcDbEntity
  8
Ebene_1
 62
7
100
AcDbSpline
 70
8
 71
3
 72
8
 73
4
 74
0
 40
0
 40
0
 40
0
 40
0
 40
1
 40
1
 40
1
 40
1
 10
189.350013
 20
76.364190
 30
0.0
 10
190.361293
 20
76.364190
 30
0.0
 10
191.282013
 20
76.743230
 30
0.0
 10
192.016033
 20
77.457940
 30
0.0
  0
SPLINE
  5
16e
100
AcDbEntity
  8
Ebene_1
 62
7
100
AcDbSpline
 70
8
 71
3
 72
8
 73
4
 74
0
 40
0
 40
0
 40
0
 40
0
 40
1
 40
1
 40
1
 40
1
 10
192.016033
 20
77.457940
 30
0.0
 10
192.755483
 20
78.177930
 30
0.0
 10
193.146893
 20
79.114810
 30
0.0
 10
193.146893
 20
80.159110
 30
0.0
  0
LWPOLYLINE
  5
16f
100
AcDbEntity
  8
Ebene_1
 62
7
100
AcDbPolyline
 90
4
 70
0
 10
172.369553
 20
80.659110
 30
0.0
 10
172.369553
 20
76.364190
 30
0.0
 10
172.869553
 20
76.364190
 30
0.0
 10
189.350013
 20
76.364190
 30
0.0
  0
LWPOLYLINE
  5
170
100
AcDbEntity
  8
Ebene_1
 62
7
100
AcDbPolyline
 90
3
 70
0
 10
193.146893
 20
80.159110
 30
0.0
 10
193.146893
 20
80.659110
 30
0.0
 10
172.369553
 20
80.659110
 30
0.0
  0
SPLINE
  5
171
100
AcDbEntity
  8
Ebene_1
 62
7
100
AcDbSpline
 70
8
 71
3
 72
8
 73
4
 74
0
 40
0
 40
0
 40
0
 40
0
 40
1
 40
1
 40
1
 40
1
 10
78.932049
 20
36.811450
 30
0.0
 10
79.943325
 20
36.811450
 30
0.0
 10
80.864042
 20
37.190500
 30
0.0
 10
81.598064
 20
37.905210
 30
0.0
  0
SPLINE
  5
172
100
AcDbEntity
  8
Ebene_1
 62
7
100
AcDbSpline
 70
8
 71
3
 72
8
 73
4
 74
0
 40
0
 40
0
 40
0
 40
0
 40
1
 40
1
 40
1
 40
1
 10
81.598064
 20
37.905210
 30
0.0
 10
81.654554
 20
37.960210
 30
0.0
 10
81.674574
 20
38.035220
 30
0.0
 10
81.726971
 20
38.092710
 30
0.0
  0
LWPOLYLINE
  5
173
100
AcDbEntity
  8
Ebene_1
 62
7
100
AcDbPolyline
 90
6
 70
0
 10
65.246502
 20
47.700130
 30
0.0
 10
65.246502
 20
30.219660
 30
0.0
 10
65.746502
 20
30.219660
 30
0.0
 10
69.543377
 20
30.219660
 30
0.0
 10
69.543377
 20
36.811450
 30
0.0
 10
78.932049
 20
36.811450
 30
0.0
  0
LWPOLYLINE
  5
174
100
AcDbEntity
  8
Ebene_1
 62
7
100
AcDbPolyline
 90
10
 70
0
 10
81.726971
 20
38.092710
 30
0.0
 10
81.726971
 20
30.219660
 30
0.0
 10
82.226971
 20
30.219660
 30
0.0
 10
86.023845
 20
30.219660
 30
0.0
 10
86.023845
 20
47.700130
 30
0.0
 10
81.726971
 20
47.700130
 30
0.0
 10
81.726971
 20
41.106380
 30
0.0
 10
69.543377
 20
41.106380
 30
0.0
 10
69.543377
 20
47.700130
 30
0.0
 10
65.246502
 20
47.700130
 30
0.0
  0
SPLINE
  5
175
100
AcDbEntity
  8
Ebene_1
 62
7
100
AcDbSpline
 70
8
 71
3
 72
8
 73
4
 74
0
 40
0
 40
0
 40
0
 40
0
 40
1
 40
1
 40
1
 40
1
 10
88.320721
 20
34.014580
 30
0.0
 10
88.320721
 20
32.988370
 30
0.0
 10
88.698237
 20
32.058770
 30
0.0
 10
89.414471
 20
31.323170
 30
0.0
  0
LWPOLYLINE
  5
176
100
AcDbEntity
  8
Ebene_1
 62
7
100
AcDbPolyline
 90
2
 70
0
 10
88.320721
 20
34.514580
 30
0.0
 10
88.320721
 20
34.014580
 30
0.0
  0
SPLINE
  5
177
100
AcDbEntity
  8
Ebene_1
 62
7
100
AcDbSpline
 70
8
 71
3
 72
8
 73
4
 74
0
 40
0
 40
0
 40
0
 40
0
 40
1
 40
1
 40
1
 40
1
 10
89.418471
 20
31.317170
 30
0.0
 10
90.139652
 20
30.595990
 30
0.0
 10
91.074518
 20
30.219520
 30
0.0
 10
92.115736
 20
30.219520
 30
0.0
  0
LWPOLYLINE
  5
178
100
AcDbEntity
  8
Ebene_1
 62
7
100
AcDbPolyline
 90
3
 70
0
 10
89.414471
 20
31.323170
 30
0.0
 10
89.416471
 20
31.321170
 30
0.0
 10
89.418471
 20
31.317170
 30
0.0
  0
SPLINE
  5
179
100
AcDbEntity
  8
Ebene_1
 62
7
100
AcDbSpline
 70
8
 71
3
 72
8
 73
4
 74
0
 40
0
 40
0
 40
0
 40
0
 40
1
 40
1
 40
1
 40
1
 10
105.301283
 20
30.219520
 30
0.0
 10
106.312553
 20
30.219520
 30
0.0
 10
107.233273
 20
30.598560
 30
0.0
 10
107.967293
 20
31.313270
 30
0.0
  0
SPLINE
  5
17a
100
AcDbEntity
  8
Ebene_1
 62
7
100
AcDbSpline
 70
8
 71
3
 72
8
 73
4
 74
0
 40
0
 40
0
 40
0
 40
0
 40
1
 40
1
 40
1
 40
1
 10
107.967293
 20
31.313270
 30
0.0
 10
108.706743
 20
32.033270
 30
0.0
 10
109.096203
 20
32.970140
 30
0.0
 10
109.096203
 20
34.014440
 30
0.0
  0
LWPOLYLINE
  5
17b
100
AcDbEntity
  8
Ebene_1
 62
7
100
AcDbPolyline
 90
2
 70
0
 10
92.115736
 20
30.219520
 30
0.0
 10
105.301283
 20
30.219520
 30
0.0
  0
LWPOLYLINE
  5
17c
100
AcDbEntity
  8
Ebene_1
 62
7
100
AcDbPolyline
 90
3
 70
0
 10
109.096203
 20
34.014440
 30
0.0
 10
109.096203
 20
34.514440
 30
0.0
 10
88.320721
 20
34.514580
 30
0.0
  0
SPLINE
  5
17d
100
AcDbEntity
  8
Ebene_1
 62
7
100
AcDbSpline
 70
8
 71
3
 72
8
 73
4
 74
0
 40
0
 40
0
 40
0
 40
0
 40
1
 40
1
 40
1
 40
1
 10
88.320721
 20
40.606380
 30
0.0
 10
88.320721
 20
39.580170
 30
0.0
 10
88.698237
 20
38.650570
 30
0.0
 10
89.414471
 20
37.914970
 30
0.0
  0
LWPOLYLINE
  5
17e
100
AcDbEntity
  8
Ebene_1
 62
7
100
AcDbPolyline
 90
2
 70
0
 10
88.320721
 20
41.106380
 30
0.0
 10
88.320721
 20
40.606380
 30
0.0
  0
SPLINE
  5
17f
100
AcDbEntity
  8
Ebene_1
 62
7
100
AcDbSpline
 70
8
 71
3
 72
8
 73
4
 74
0
 40
0
 40
0
 40
0
 40
0
 40
1
 40
1
 40
1
 40
1
 10
89.418471
 20
37.910970
 30
0.0
 10
90.139652
 20
37.189790
 30
0.0
 10
91.074518
 20
36.811360
 30
0.0
 10
92.115736
 20
36.811360
 30
0.0
  0
LWPOLYLINE
  5
180
100
AcDbEntity
  8
Ebene_1
 62
7
100
AcDbPolyline
 90
3
 70
0
 10
89.414471
 20
37.914970
 30
0.0
 10
89.416471
 20
37.912970
 30
0.0
 10
89.418471
 20
37.910970
 30
0.0
  0
SPLINE
  5
181
100
AcDbEntity
  8
Ebene_1
 62
7
100
AcDbSpline
 70
8
 71
3
 72
8
 73
4
 74
0
 40
0
 40
0
 40
0
 40
0
 40
1
 40
1
 40
1
 40
1
 10
105.301283
 20
36.811360
 30
0.0
 10
106.312553
 20
36.811360
 30
0.0
 10
107.233273
 20
37.190410
 30
0.0
 10
107.967293
 20
37.905120
 30
0.0
  0
SPLINE
  5
182
100
AcDbEntity
  8
Ebene_1
 62
7
100
AcDbSpline
 70
8
 71
3
 72
8
 73
4
 74
0
 40
0
 40
0
 40
0
 40
0
 40
1
 40
1
 40
1
 40
1
 10
107.967293
 20
37.905120
 30
0.0
 10
108.706743
 20
38.625120
 30
0.0
 10
109.096203
 20
39.561980
 30
0.0
 10
109.096203
 20
40.606290
 30
0.0
  0
LWPOLYLINE
  5
183
100
AcDbEntity
  8
Ebene_1
 62
7
100
AcDbPolyline
 90
2
 70
0
 10
92.115736
 20
36.811360
 30
0.0
 10
105.301283
 20
36.811360
 30
0.0
  0
LWPOLYLINE
  5
184
100
AcDbEntity
  8
Ebene_1
 62
7
100
AcDbPolyline
 90
3
 70
0
 10
109.096203
 20
40.606290
 30
0.0
 10
109.096203
 20
41.106290
 30
0.0
 10
88.320721
 20
41.106380
 30
0.0
  0
SPLINE
  5
185
100
AcDbEntity
  8
Ebene_1
 62
7
100
AcDbSpline
 70
8
 71
3
 72
8
 73
4
 74
0
 40
0
 40
0
 40
0
 40
0
 40
1
 40
1
 40
1
 40
1
 10
88.320721
 20
47.200130
 30
0.0
 10
88.320721
 20
46.173920
 30
0.0
 10
88.698237
 20
45.242360
 30
0.0
 10
89.414471
 20
44.506770
 30
0.0
  0
LWPOLYLINE
  5
186
100
AcDbEntity
  8
Ebene_1
 62
7
100
AcDbPolyline
 90
2
 70
0
 10
88.320721
 20
47.700130
 30
0.0
 10
88.320721
 20
47.200130
 30
0.0
  0
SPLINE
  5
187
100
AcDbEntity
  8
Ebene_1
 62
7
100
AcDbSpline
 70
8
 71
3
 72
8
 73
4
 74
0
 40
0
 40
0
 40
0
 40
0
 40
1
 40
1
 40
1
 40
1
 10
89.418471
 20
44.502770
 30
0.0
 10
90.139652
 20
43.781590
 30
0.0
 10
91.074518
 20
43.403160
 30
0.0
 10
92.115736
 20
43.403160
 30
0.0
  0
LWPOLYLINE
  5
188
100
AcDbEntity
  8
Ebene_1
 62
7
100
AcDbPolyline
 90
3
 70
0
 10
89.414471
 20
44.506770
 30
0.0
 10
89.416471
 20
44.504770
 30
0.0
 10
89.418471
 20
44.502770
 30
0.0
  0
SPLINE
  5
189
100
AcDbEntity
  8
Ebene_1
 62
7
100
AcDbSpline
 70
8
 71
3
 72
8
 73
4
 74
0
 40
0
 40
0
 40
0
 40
0
 40
1
 40
1
 40
1
 40
1
 10
105.301283
 20
43.403160
 30
0.0
 10
106.312553
 20
43.403160
 30
0.0
 10
107.233273
 20
43.782210
 30
0.0
 10
107.967293
 20
44.496910
 30
0.0
  0
SPLINE
  5
18a
100
AcDbEntity
  8
Ebene_1
 62
7
100
AcDbSpline
 70
8
 71
3
 72
8
 73
4
 74
0
 40
0
 40
0
 40
0
 40
0
 40
1
 40
1
 40
1
 40
1
 10
107.967293
 20
44.496910
 30
0.0
 10
108.706743
 20
45.216910
 30
0.0
 10
109.096203
 20
46.155730
 30
0.0
 10
109.096203
 20
47.200040
 30
0.0
  0
LWPOLYLINE
  5
18b
100
AcDbEntity
  8
Ebene_1
 62
7
100
AcDbPolyline
 90
2
 70
0
 10
92.115736
 20
43.403160
 30
0.0
 10
105.301283
 20
43.403160
 30
0.0
  0
LWPOLYLINE
  5
18c
100
AcDbEntity
  8
Ebene_1
 62
7
100
AcDbPolyline
 90
3
 70
0
 10
109.096203
 20
47.200040
 30
0.0
 10
109.096203
 20
47.700040
 30
0.0
 10
88.320721
 20
47.700130
 30
0.0
  0
SPLINE
  5
18d
100
AcDbEntity
  8
Ebene_1
 62
7
100
AcDbSpline
 70
8
 71
3
 72
8
 73
4
 74
0
 40
0
 40
0
 40
0
 40
0
 40
1
 40
1
 40
1
 40
1
 10
111.392983
 20
47.200130
 30
0.0
 10
111.392983
 20
46.173920
 30
0.0
 10
111.770503
 20
45.242360
 30
0.0
 10
112.486733
 20
44.506770
 30
0.0
  0
LWPOLYLINE
  5
18e
100
AcDbEntity
  8
Ebene_1
 62
7
100
AcDbPolyline
 90
2
 70
0
 10
111.392983
 20
47.700130
 30
0.0
 10
111.392983
 20
47.200130
 30
0.0
  0
SPLINE
  5
18f
100
AcDbEntity
  8
Ebene_1
 62
7
100
AcDbSpline
 70
8
 71
3
 72
8
 73
4
 74
0
 40
0
 40
0
 40
0
 40
0
 40
1
 40
1
 40
1
 40
1
 10
112.492733
 20
44.502770
 30
0.0
 10
113.213913
 20
43.781590
 30
0.0
 10
114.146833
 20
43.403160
 30
0.0
 10
115.188043
 20
43.403160
 30
0.0
  0
LWPOLYLINE
  5
190
100
AcDbEntity
  8
Ebene_1
 62
7
100
AcDbPolyline
 90
3
 70
0
 10
112.486733
 20
44.506770
 30
0.0
 10
112.488733
 20
44.504770
 30
0.0
 10
112.492733
 20
44.502770
 30
0.0
  0
SPLINE
  5
191
100
AcDbEntity
  8
Ebene_1
 62
7
100
AcDbSpline
 70
8
 71
3
 72
8
 73
4
 74
0
 40
0
 40
0
 40
0
 40
0
 40
1
 40
1
 40
1
 40
1
 10
127.873593
 20
42.254720
 30
0.0
 10
127.873593
 20
41.911560
 30
0.0
 10
127.769593
 20
41.672750
 30
0.0
 10
127.531803
 20
41.432460
 30
0.0
  0
SPLINE
  5
192
100
AcDbEntity
  8
Ebene_1
 62
7
100
AcDbSpline
 70
8
 71
3
 72
8
 73
4
 74
0
 40
0
 40
0
 40
0
 40
0
 40
1
 40
1
 40
1
 40
1
 10
127.531803
 20
41.432460
 30
0.0
 10
127.290553
 20
41.206290
 30
0.0
 10
127.053113
 20
41.106290
 30
0.0
 10
126.725153
 20
41.106290
 30
0.0
  0
LWPOLYLINE
  5
193
100
AcDbEntity
  8
Ebene_1
 62
7
100
AcDbPolyline
 90
3
 70
0
 10
115.188043
 20
43.403160
 30
0.0
 10
127.873593
 20
43.403160
 30
0.0
 10
127.873593
 20
42.254720
 30
0.0
  0
SPLINE
  5
194
100
AcDbEntity
  8
Ebene_1
 62
7
100
AcDbSpline
 70
8
 71
3
 72
8
 73
4
 74
0
 40
0
 40
0
 40
0
 40
0
 40
1
 40
1
 40
1
 40
1
 10
128.373453
 20
36.811360
 30
0.0
 10
129.384733
 20
36.811360
 30
0.0
 10
130.305453
 20
37.190410
 30
0.0
 10
131.039473
 20
37.905120
 30
0.0
  0
SPLINE
  5
195
100
AcDbEntity
  8
Ebene_1
 62
7
100
AcDbSpline
 70
8
 71
3
 72
8
 73
4
 74
0
 40
0
 40
0
 40
0
 40
0
 40
1
 40
1
 40
1
 40
1
 10
131.039473
 20
37.905120
 30
0.0
 10
131.778933
 20
38.625120
 30
0.0
 10
132.168373
 20
39.561980
 30
0.0
 10
132.168373
 20
40.606290
 30
0.0
  0
LWPOLYLINE
  5
196
100
AcDbEntity
  8
Ebene_1
 62
7
100
AcDbPolyline
 90
11
 70
0
 10
126.725153
 20
41.106290
 30
0.0
 10
111.392983
 20
41.106290
 30
0.0
 10
111.392983
 20
30.219570
 30
0.0
 10
111.892983
 20
30.219570
 30
0.0
 10
115.687903
 20
30.219570
 30
0.0
 10
115.687903
 20
36.811360
 30
0.0
 10
119.926193
 20
36.811360
 30
0.0
 10
126.517983
 20
30.219570
 30
0.0
 10
132.875403
 20
30.219570
 30
0.0
 10
126.283613
 20
36.811360
 30
0.0
 10
128.373453
 20
36.811360
 30
0.0
  0
LWPOLYLINE
  5
197
100
AcDbEntity
  8
Ebene_1
 62
7
100
AcDbPolyline
 90
3
 70
0
 10
132.168373
 20
40.606290
 30
0.0
 10
132.168373
 20
47.700040
 30
0.0
 10
111.392983
 20
47.700130
 30
0.0
  0
SPLINE
  5
198
100
AcDbEntity
  8
Ebene_1
 62
7
100
AcDbSpline
 70
8
 71
3
 72
8
 73
4
 74
0
 40
0
 40
0
 40
0
 40
0
 40
1
 40
1
 40
1
 40
1
 10
134.465253
 20
34.014580
 30
0.0
 10
134.465253
 20
32.988370
 30
0.0
 10
134.842773
 20
32.058770
 30
0.0
 10
135.559003
 20
31.323170
 30
0.0
  0
LWPOLYLINE
  5
199
100
AcDbEntity
  8
Ebene_1
 62
7
100
AcDbPolyline
 90
2
 70
0
 10
134.465253
 20
34.514580
 30
0.0
 10
134.465253
 20
34.014580
 30
0.0
  0
SPLINE
  5
19a
100
AcDbEntity
  8
Ebene_1
 62
7
100
AcDbSpline
 70
8
 71
3
 72
8
 73
4
 74
0
 40
0
 40
0
 40
0
 40
0
 40
1
 40
1
 40
1
 40
1
 10
135.565003
 20
31.317170
 30
0.0
 10
136.286183
 20
30.595990
 30
0.0
 10
137.219093
 20
30.219520
 30
0.0
 10
138.260313
 20
30.219520
 30
0.0
  0
LWPOLYLINE
  5
19b
100
AcDbEntity
  8
Ebene_1
 62
7
100
AcDbPolyline
 90
3
 70
0
 10
135.559003
 20
31.323170
 30
0.0
 10
135.561003
 20
31.321170
 30
0.0
 10
135.565003
 20
31.317170
 30
0.0
  0
SPLINE
  5
19c
100
AcDbEntity
  8
Ebene_1
 62
7
100
AcDbSpline
 70
8
 71
3
 72
8
 73
4
 74
0
 40
0
 40
0
 40
0
 40
0
 40
1
 40
1
 40
1
 40
1
 10
151.445863
 20
30.219520
 30
0.0
 10
152.457133
 20
30.219520
 30
0.0
 10
153.377853
 20
30.598560
 30
0.0
 10
154.111873
 20
31.313270
 30
0.0
  0
SPLINE
  5
19d
100
AcDbEntity
  8
Ebene_1
 62
7
100
AcDbSpline
 70
8
 71
3
 72
8
 73
4
 74
0
 40
0
 40
0
 40
0
 40
0
 40
1
 40
1
 40
1
 40
1
 10
154.111873
 20
31.313270
 30
0.0
 10
154.851333
 20
32.033270
 30
0.0
 10
155.240783
 20
32.970140
 30
0.0
 10
155.240783
 20
34.014440
 30
0.0
  0
LWPOLYLINE
  5
19e
100
AcDbEntity
  8
Ebene_1
 62
7
100
AcDbPolyline
 90
2
 70
0
 10
138.260313
 20
30.219520
 30
0.0
 10
151.445863
 20
30.219520
 30
0.0
  0
LWPOLYLINE
  5
19f
100
AcDbEntity
  8
Ebene_1
 62
7
100
AcDbPolyline
 90
3
 70
0
 10
155.240783
 20
34.014440
 30
0.0
 10
155.240783
 20
34.514440
 30
0.0
 10
134.465253
 20
34.514580
 30
0.0
  0
SPLINE
  5
1a0
100
AcDbEntity
  8
Ebene_1
 62
7
100
AcDbSpline
 70
8
 71
3
 72
8
 73
4
 74
0
 40
0
 40
0
 40
0
 40
0
 40
1
 40
1
 40
1
 40
1
 10
134.465253
 20
40.606380
 30
0.0
 10
134.465253
 20
39.580170
 30
0.0
 10
134.842773
 20
38.650570
 30
0.0
 10
135.559003
 20
37.914970
 30
0.0
  0
LWPOLYLINE
  5
1a1
100
AcDbEntity
  8
Ebene_1
 62
7
100
AcDbPolyline
 90
2
 70
0
 10
134.465253
 20
41.106380
 30
0.0
 10
134.465253
 20
40.606380
 30
0.0
  0
SPLINE
  5
1a2
100
AcDbEntity
  8
Ebene_1
 62
7
100
AcDbSpline
 70
8
 71
3
 72
8
 73
4
 74
0
 40
0
 40
0
 40
0
 40
0
 40
1
 40
1
 40
1
 40
1
 10
135.565003
 20
37.910970
 30
0.0
 10
136.286183
 20
37.189790
 30
0.0
 10
137.219093
 20
36.811370
 30
0.0
 10
138.260313
 20
36.811360
 30
0.0
  0
LWPOLYLINE
  5
1a3
100
AcDbEntity
  8
Ebene_1
 62
7
100
AcDbPolyline
 90
3
 70
0
 10
135.559003
 20
37.914970
 30
0.0
 10
135.561003
 20
37.912970
 30
0.0
 10
135.565003
 20
37.910970
 30
0.0
  0
SPLINE
  5
1a4
100
AcDbEntity
  8
Ebene_1
 62
7
100
AcDbSpline
 70
8
 71
3
 72
8
 73
4
 74
0
 40
0
 40
0
 40
0
 40
0
 40
1
 40
1
 40
1
 40
1
 10
151.445863
 20
36.811360
 30
0.0
 10
152.457133
 20
36.811360
 30
0.0
 10
153.377853
 20
37.190410
 30
0.0
 10
154.111873
 20
37.905120
 30
0.0
  0
SPLINE
  5
1a5
100
AcDbEntity
  8
Ebene_1
 62
7
100
AcDbSpline
 70
8
 71
3
 72
8
 73
4
 74
0
 40
0
 40
0
 40
0
 40
0
 40
1
 40
1
 40
1
 40
1
 10
154.111873
 20
37.905120
 30
0.0
 10
154.851333
 20
38.625120
 30
0.0
 10
155.240783
 20
39.561980
 30
0.0
 10
155.240783
 20
40.606290
 30
0.0
  0
LWPOLYLINE
  5
1a6
100
AcDbEntity
  8
Ebene_1
 62
7
100
AcDbPolyline
 90
2
 70
0
 10
138.260313
 20
36.811360
 30
0.0
 10
151.445863
 20
36.811360
 30
0.0
  0
LWPOLYLINE
  5
1a7
100
AcDbEntity
  8
Ebene_1
 62
7
100
AcDbPolyline
 90
3
 70
0
 10
155.240783
 20
40.606290
 30
0.0
 10
155.240783
 20
41.106290
 30
0.0
 10
134.465253
 20
41.106380
 30
0.0
  0
SPLINE
  5
1a8
100
AcDbEntity
  8
Ebene_1
 62
7
100
AcDbSpline
 70
8
 71
3
 72
8
 73
4
 74
0
 40
0
 40
0
 40
0
 40
0
 40
1
 40
1
 40
1
 40
1
 10
134.465253
 20
47.200130
 30
0.0
 10
134.465253
 20
46.173920
 30
0.0
 10
134.842773
 20
45.242360
 30
0.0
 10
135.559003
 20
44.506770
 30
0.0
  0
LWPOLYLINE
  5
1a9
100
AcDbEntity
  8
Ebene_1
 62
7
100
AcDbPolyline
 90
2
 70
0
 10
134.465253
 20
47.700130
 30
0.0
 10
134.465253
 20
47.200130
 30
0.0
  0
SPLINE
  5
1aa
100
AcDbEntity
  8
Ebene_1
 62
7
100
AcDbSpline
 70
8
 71
3
 72
8
 73
4
 74
0
 40
0
 40
0
 40
0
 40
0
 40
1
 40
1
 40
1
 40
1
 10
135.565003
 20
44.502770
 30
0.0
 10
136.286183
 20
43.781590
 30
0.0
 10
137.219093
 20
43.403160
 30
0.0
 10
138.260313
 20
43.403160
 30
0.0
  0
LWPOLYLINE
  5
1ab
100
AcDbEntity
  8
Ebene_1
 62
7
100
AcDbPolyline
 90
3
 70
0
 10
135.559003
 20
44.506770
 30
0.0
 10
135.561003
 20
44.504770
 30
0.0
 10
135.565003
 20
44.502770
 30
0.0
  0
SPLINE
  5
1ac
100
AcDbEntity
  8
Ebene_1
 62
7
100
AcDbSpline
 70
8
 71
3
 72
8
 73
4
 74
0
 40
0
 40
0
 40
0
 40
0
 40
1
 40
1
 40
1
 40
1
 10
151.445863
 20
43.403160
 30
0.0
 10
152.457133
 20
43.403160
 30
0.0
 10
153.377853
 20
43.782210
 30
0.0
 10
154.111873
 20
44.496910
 30
0.0
  0
SPLINE
  5
1ad
100
AcDbEntity
  8
Ebene_1
 62
7
100
AcDbSpline
 70
8
 71
3
 72
8
 73
4
 74
0
 40
0
 40
0
 40
0
 40
0
 40
1
 40
1
 40
1
 40
1
 10
154.111873
 20
44.496910
 30
0.0
 10
154.851333
 20
45.216910
 30
0.0
 10
155.240783
 20
46.155730
 30
0.0
 10
155.240783
 20
47.200040
 30
0.0
  0
LWPOLYLINE
  5
1ae
100
AcDbEntity
  8
Ebene_1
 62
7
100
AcDbPolyline
 90
2
 70
0
 10
138.260313
 20
43.403160
 30
0.0
 10
151.445863
 20
43.403160
 30
0.0
  0
LWPOLYLINE
  5
1af
100
AcDbEntity
  8
Ebene_1
 62
7
100
AcDbPolyline
 90
3
 70
0
 10
155.240783
 20
47.200040
 30
0.0
 10
155.240783
 20
47.700040
 30
0.0
 10
134.465253
 20
47.700130
 30
0.0
  0
LWPOLYLINE
  5
1b0
100
AcDbEntity
  8
Ebene_1
 62
7
100
AcDbPolyline
 90
9
 70
1
 10
162.850240
 20
248.570314
 30
0.0
 10
162.850240
 20
234.714845
 30
0.0
 10
163.350240
 20
234.714845
 30
0.0
 10
168.135390
 20
234.714845
 30
0.0
 10
168.135390
 20
243.285157
 30
0.0
 10
184.276020
 20
243.285157
 30
0.0
 10
184.276020
 20
234.714845
 30
0.0
 10
189.561180
 20
234.714845
 30
0.0
 10
189.561180
 20
248.570314
 30
0.0
  0
SPLINE
  5
1b1
100
AcDbEntity
  8
Ebene_1
 62
7
100
AcDbSpline
 70
8
 71
3
 72
8
 73
4
 74
0
 40
0
 40
0
 40
0
 40
0
 40
1
 40
1
 40
1
 40
1
 10
162.850240
 20
256.640626
 30
0.0
 10
162.850240
 20
255.341377
 30
0.0
 10
163.322300
 20
254.177454
 30
0.0
 10
164.229150
 20
253.246095
 30
0.0
  0
LWPOLYLINE
  5
1b2
100
AcDbEntity
  8
Ebene_1
 62
7
100
AcDbPolyline
 90
2
 70
0
 10
162.850240
 20
257.140626
 30
0.0
 10
162.850240
 20
256.640626
 30
0.0
  0
SPLINE
  5
1b3
100
AcDbEntity
  8
Ebene_1
 62
7
100
AcDbSpline
 70
8
 71
3
 72
8
 73
4
 74
0
 40
0
 40
0
 40
0
 40
0
 40
1
 40
1
 40
1
 40
1
 10
164.235150
 20
253.242095
 30
0.0
 10
165.146950
 20
252.330300
 30
0.0
 10
166.316130
 20
251.855376
 30
0.0
 10
167.635540
 20
251.855376
 30
0.0
  0
LWPOLYLINE
  5
1b4
100
AcDbEntity
  8
Ebene_1
 62
7
100
AcDbPolyline
 90
3
 70
0
 10
164.229150
 20
253.246095
 30
0.0
 10
164.233150
 20
253.244095
 30
0.0
 10
164.235150
 20
253.242095
 30
0.0
  0
SPLINE
  5
1b5
100
AcDbEntity
  8
Ebene_1
 62
7
100
AcDbSpline
 70
8
 71
3
 72
8
 73
4
 74
0
 40
0
 40
0
 40
0
 40
0
 40
1
 40
1
 40
1
 40
1
 10
184.776170
 20
251.855376
 30
0.0
 10
186.055340
 20
251.855376
 30
0.0
 10
187.207710
 20
252.330915
 30
0.0
 10
188.137500
 20
253.236235
 30
0.0
  0
SPLINE
  5
1b6
100
AcDbEntity
  8
Ebene_1
 62
7
100
AcDbSpline
 70
8
 71
3
 72
8
 73
4
 74
0
 40
0
 40
0
 40
0
 40
0
 40
1
 40
1
 40
1
 40
1
 10
188.137500
 20
253.236235
 30
0.0
 10
189.072720
 20
254.146847
 30
0.0
 10
189.561330
 20
255.318033
 30
0.0
 10
189.561330
 20
256.640532
 30
0.0
  0
LWPOLYLINE
  5
1b7
100
AcDbEntity
  8
Ebene_1
 62
7
100
AcDbPolyline
 90
2
 70
0
 10
167.635540
 20
251.855376
 30
0.0
 10
184.776170
 20
251.855376
 30
0.0
  0
LWPOLYLINE
  5
1b8
100
AcDbEntity
  8
Ebene_1
 62
7
100
AcDbPolyline
 90
3
 70
0
 10
189.561330
 20
256.640532
 30
0.0
 10
189.561330
 20
257.140532
 30
0.0
 10
162.850240
 20
257.140626
 30
0.0
  0
SPLINE
  5
1b9
100
AcDbEntity
  8
Ebene_1
 62
7
100
AcDbSpline
 70
8
 71
3
 72
8
 73
4
 74
0
 40
0
 40
0
 40
0
 40
0
 40
1
 40
1
 40
1
 40
1
 10
29.658830
 20
256.640626
 30
0.0
 10
29.658830
 20
255.341377
 30
0.0
 10
30.132840
 20
254.177454
 30
0.0
 10
31.039690
 20
253.246095
 30
0.0
  0
LWPOLYLINE
  5
1ba
100
AcDbEntity
  8
Ebene_1
 62
7
100
AcDbPolyline
 90
2
 70
0
 10
29.658830
 20
257.140626
 30
0.0
 10
29.658830
 20
256.640626
 30
0.0
  0
SPLINE
  5
1bb
100
AcDbEntity
  8
Ebene_1
 62
7
100
AcDbSpline
 70
8
 71
3
 72
8
 73
4
 74
0
 40
0
 40
0
 40
0
 40
0
 40
1
 40
1
 40
1
 40
1
 10
31.043690
 20
253.242095
 30
0.0
 10
31.955490
 20
252.330299
 30
0.0
 10
33.124670
 20
251.855376
 30
0.0
 10
34.444080
 20
251.855376
 30
0.0
  0
LWPOLYLINE
  5
1bc
100
AcDbEntity
  8
Ebene_1
 62
7
100
AcDbPolyline
 90
3
 70
0
 10
31.039690
 20
253.246095
 30
0.0
 10
31.041690
 20
253.244095
 30
0.0
 10
31.043690
 20
253.242095
 30
0.0
  0
SPLINE
  5
1bd
100
AcDbEntity
  8
Ebene_1
 62
7
100
AcDbSpline
 70
8
 71
3
 72
8
 73
4
 74
0
 40
0
 40
0
 40
0
 40
0
 40
1
 40
1
 40
1
 40
1
 10
51.584710
 20
251.855470
 30
0.0
 10
52.863880
 20
251.855470
 30
0.0
 10
54.016250
 20
252.331009
 30
0.0
 10
54.946040
 20
253.236329
 30
0.0
  0
SPLINE
  5
1be
100
AcDbEntity
  8
Ebene_1
 62
7
100
AcDbSpline
 70
8
 71
3
 72
8
 73
4
 74
0
 40
0
 40
0
 40
0
 40
0
 40
1
 40
1
 40
1
 40
1
 10
54.946040
 20
253.236329
 30
0.0
 10
55.881260
 20
254.146940
 30
0.0
 10
56.369860
 20
255.318126
 30
0.0
 10
56.369860
 20
256.640626
 30
0.0
  0
LWPOLYLINE
  5
1bf
100
AcDbEntity
  8
Ebene_1
 62
7
100
AcDbPolyline
 90
7
 70
0
 10
34.444080
 20
251.855376
 30
0.0
 10
40.371820
 20
251.855376
 30
0.0
 10
40.371820
 20
234.714845
 30
0.0
 10
40.871820
 20
234.714845
 30
0.0
 10
45.656970
 20
234.714845
 30
0.0
 10
45.656970
 20
251.855470
 30
0.0
 10
51.584710
 20
251.855470
 30
0.0
  0
LWPOLYLINE
  5
1c0
100
AcDbEntity
  8
Ebene_1
 62
7
100
AcDbPolyline
 90
3
 70
0
 10
56.369860
 20
256.640626
 30
0.0
 10
56.369860
 20
257.140626
 30
0.0
 10
29.658830
 20
257.140626
 30
0.0
  0
SPLINE
  5
1c1
100
AcDbEntity
  8
Ebene_1
 62
7
100
AcDbSpline
 70
8
 71
3
 72
8
 73
4
 74
0
 40
0
 40
0
 40
0
 40
0
 40
1
 40
1
 40
1
 40
1
 10
62.955710
 20
239.500001
 30
0.0
 10
62.955710
 20
238.200752
 30
0.0
 10
63.429720
 20
237.036829
 30
0.0
 10
64.336570
 20
236.105470
 30
0.0
  0
LWPOLYLINE
  5
1c2
100
AcDbEntity
  8
Ebene_1
 62
7
100
AcDbPolyline
 90
2
 70
0
 10
62.955710
 20
240.000001
 30
0.0
 10
62.955710
 20
239.500001
 30
0.0
  0
SPLINE
  5
1c3
100
AcDbEntity
  8
Ebene_1
 62
7
100
AcDbSpline
 70
8
 71
3
 72
8
 73
4
 74
0
 40
0
 40
0
 40
0
 40
0
 40
1
 40
1
 40
1
 40
1
 10
64.340570
 20
236.099570
 30
0.0
 10
65.252360
 20
235.187774
 30
0.0
 10
66.421540
 20
234.714804
 30
0.0
 10
67.740960
 20
234.714804
 30
0.0
  0
LWPOLYLINE
  5
1c4
100
AcDbEntity
  8
Ebene_1
 62
7
100
AcDbPolyline
 90
3
 70
0
 10
64.336570
 20
236.105470
 30
0.0
 10
64.338570
 20
236.103470
 30
0.0
 10
64.340570
 20
236.099570
 30
0.0
  0
SPLINE
  5
1c5
100
AcDbEntity
  8
Ebene_1
 62
7
100
AcDbSpline
 70
8
 71
3
 72
8
 73
4
 74
0
 40
0
 40
0
 40
0
 40
0
 40
1
 40
1
 40
1
 40
1
 10
84.881580
 20
234.714804
 30
0.0
 10
86.160750
 20
234.714804
 30
0.0
 10
87.315080
 20
235.190343
 30
0.0
 10
88.244860
 20
236.095663
 30
0.0
  0
SPLINE
  5
1c6
100
AcDbEntity
  8
Ebene_1
 62
7
100
AcDbSpline
 70
8
 71
3
 72
8
 73
4
 74
0
 40
0
 40
0
 40
0
 40
0
 40
1
 40
1
 40
1
 40
1
 10
88.244860
 20
236.095663
 30
0.0
 10
89.180090
 20
237.006274
 30
0.0
 10
89.666740
 20
238.177460
 30
0.0
 10
89.666740
 20
239.499960
 30
0.0
  0
LWPOLYLINE
  5
1c7
100
AcDbEntity
  8
Ebene_1
 62
7
100
AcDbPolyline
 90
2
 70
0
 10
67.740960
 20
234.714804
 30
0.0
 10
84.881580
 20
234.714804
 30
0.0
  0
LWPOLYLINE
  5
1c8
100
AcDbEntity
  8
Ebene_1
 62
7
100
AcDbPolyline
 90
3
 70
0
 10
89.666740
 20
239.499960
 30
0.0
 10
89.666740
 20
239.999960
 30
0.0
 10
62.955710
 20
240.000001
 30
0.0
  0
SPLINE
  5
1c9
100
AcDbEntity
  8
Ebene_1
 62
7
100
AcDbSpline
 70
8
 71
3
 72
8
 73
4
 74
0
 40
0
 40
0
 40
0
 40
0
 40
1
 40
1
 40
1
 40
1
 10
62.955710
 20
248.070314
 30
0.0
 10
62.955710
 20
246.771064
 30
0.0
 10
63.429720
 20
245.607142
 30
0.0
 10
64.336570
 20
244.675783
 30
0.0
  0
LWPOLYLINE
  5
1ca
100
AcDbEntity
  8
Ebene_1
 62
7
100
AcDbPolyline
 90
2
 70
0
 10
62.955710
 20
248.570314
 30
0.0
 10
62.955710
 20
248.070314
 30
0.0
  0
SPLINE
  5
1cb
100
AcDbEntity
  8
Ebene_1
 62
7
100
AcDbSpline
 70
8
 71
3
 72
8
 73
4
 74
0
 40
0
 40
0
 40
0
 40
0
 40
1
 40
1
 40
1
 40
1
 10
64.340570
 20
244.669883
 30
0.0
 10
65.252360
 20
243.758088
 30
0.0
 10
66.421540
 20
243.285117
 30
0.0
 10
67.740960
 20
243.285117
 30
0.0
  0
LWPOLYLINE
  5
1cc
100
AcDbEntity
  8
Ebene_1
 62
7
100
AcDbPolyline
 90
3
 70
0
 10
64.336570
 20
244.675783
 30
0.0
 10
64.338570
 20
244.673783
 30
0.0
 10
64.340570
 20
244.669883
 30
0.0
  0
SPLINE
  5
1cd
100
AcDbEntity
  8
Ebene_1
 62
7
100
AcDbSpline
 70
8
 71
3
 72
8
 73
4
 74
0
 40
0
 40
0
 40
0
 40
0
 40
1
 40
1
 40
1
 40
1
 10
84.881580
 20
243.285117
 30
0.0
 10
86.160750
 20
243.285117
 30
0.0
 10
87.315080
 20
243.760656
 30
0.0
 10
88.244860
 20
244.665977
 30
0.0
  0
SPLINE
  5
1ce
100
AcDbEntity
  8
Ebene_1
 62
7
100
AcDbSpline
 70
8
 71
3
 72
8
 73
4
 74
0
 40
0
 40
0
 40
0
 40
0
 40
1
 40
1
 40
1
 40
1
 10
88.244860
 20
244.665977
 30
0.0
 10
89.180090
 20
245.576588
 30
0.0
 10
89.666740
 20
246.747774
 30
0.0
 10
89.666740
 20
248.070274
 30
0.0
  0
LWPOLYLINE
  5
1cf
100
AcDbEntity
  8
Ebene_1
 62
7
100
AcDbPolyline
 90
2
 70
0
 10
67.740960
 20
243.285117
 30
0.0
 10
84.881580
 20
243.285117
 30
0.0
  0
LWPOLYLINE
  5
1d0
100
AcDbEntity
  8
Ebene_1
 62
7
100
AcDbPolyline
 90
3
 70
0
 10
89.666740
 20
248.070274
 30
0.0
 10
89.666740
 20
248.570274
 30
0.0
 10
62.955710
 20
248.570314
 30
0.0
  0
SPLINE
  5
1d1
100
AcDbEntity
  8
Ebene_1
 62
7
100
AcDbSpline
 70
8
 71
3
 72
8
 73
4
 74
0
 40
0
 40
0
 40
0
 40
0
 40
1
 40
1
 40
1
 40
1
 10
62.955710
 20
256.640626
 30
0.0
 10
62.955710
 20
255.341377
 30
0.0
 10
63.429720
 20
254.177454
 30
0.0
 10
64.336570
 20
253.246095
 30
0.0
  0
LWPOLYLINE
  5
1d2
100
AcDbEntity
  8
Ebene_1
 62
7
100
AcDbPolyline
 90
2
 70
0
 10
62.955710
 20
257.140626
 30
0.0
 10
62.955710
 20
256.640626
 30
0.0
  0
SPLINE
  5
1d3
100
AcDbEntity
  8
Ebene_1
 62
7
100
AcDbSpline
 70
8
 71
3
 72
8
 73
4
 74
0
 40
0
 40
0
 40
0
 40
0
 40
1
 40
1
 40
1
 40
1
 10
64.340570
 20
253.242095
 30
0.0
 10
65.252360
 20
252.330299
 30
0.0
 10
66.421540
 20
251.855376
 30
0.0
 10
67.740960
 20
251.855376
 30
0.0
  0
LWPOLYLINE
  5
1d4
100
AcDbEntity
  8
Ebene_1
 62
7
100
AcDbPolyline
 90
3
 70
0
 10
64.336570
 20
253.246095
 30
0.0
 10
64.338570
 20
253.244095
 30
0.0
 10
64.340570
 20
253.242095
 30
0.0
  0
SPLINE
  5
1d5
100
AcDbEntity
  8
Ebene_1
 62
7
100
AcDbSpline
 70
8
 71
3
 72
8
 73
4
 74
0
 40
0
 40
0
 40
0
 40
0
 40
1
 40
1
 40
1
 40
1
 10
84.881580
 20
251.855376
 30
0.0
 10
86.160750
 20
251.855376
 30
0.0
 10
87.315080
 20
252.330915
 30
0.0
 10
88.244860
 20
253.236235
 30
0.0
  0
SPLINE
  5
1d6
100
AcDbEntity
  8
Ebene_1
 62
7
100
AcDbSpline
 70
8
 71
3
 72
8
 73
4
 74
0
 40
0
 40
0
 40
0
 40
0
 40
1
 40
1
 40
1
 40
1
 10
88.244860
 20
253.236235
 30
0.0
 10
89.180090
 20
254.146846
 30
0.0
 10
89.666740
 20
255.318032
 30
0.0
 10
89.666740
 20
256.640532
 30
0.0
  0
LWPOLYLINE
  5
1d7
100
AcDbEntity
  8
Ebene_1
 62
7
100
AcDbPolyline
 90
2
 70
0
 10
67.740960
 20
251.855376
 30
0.0
 10
84.881580
 20
251.855376
 30
0.0
  0
LWPOLYLINE
  5
1d8
100
AcDbEntity
  8
Ebene_1
 62
7
100
AcDbPolyline
 90
3
 70
0
 10
89.666740
 20
256.640532
 30
0.0
 10
89.666740
 20
257.140532
 30
0.0
 10
62.955710
 20
257.140626
 30
0.0
  0
SPLINE
  5
1d9
100
AcDbEntity
  8
Ebene_1
 62
7
100
AcDbSpline
 70
8
 71
3
 72
8
 73
4
 74
0
 40
0
 40
0
 40
0
 40
0
 40
1
 40
1
 40
1
 40
1
 10
101.039690
 20
240.000001
 30
0.0
 10
99.737300
 20
240.000001
 30
0.0
 10
98.569600
 20
239.512333
 30
0.0
 10
97.639300
 20
238.582033
 30
0.0
  0
SPLINE
  5
1da
100
AcDbEntity
  8
Ebene_1
 62
7
100
AcDbSpline
 70
8
 71
3
 72
8
 73
4
 74
0
 40
0
 40
0
 40
0
 40
0
 40
1
 40
1
 40
1
 40
1
 10
97.639300
 20
238.582033
 30
0.0
 10
96.729100
 20
237.671829
 30
0.0
 10
96.254540
 20
236.514094
 30
0.0
 10
96.254540
 20
235.214845
 30
0.0
  0
LWPOLYLINE
  5
1db
100
AcDbEntity
  8
Ebene_1
 62
7
100
AcDbPolyline
 90
5
 70
0
 10
96.254540
 20
257.140626
 30
0.0
 10
96.254540
 20
243.285157
 30
0.0
 10
117.680320
 20
243.285157
 30
0.0
 10
117.680320
 20
240.000001
 30
0.0
 10
101.039690
 20
240.000001
 30
0.0
  0
SPLINE
  5
1dc
100
AcDbEntity
  8
Ebene_1
 62
7
100
AcDbSpline
 70
8
 71
3
 72
8
 73
4
 74
0
 40
0
 40
0
 40
0
 40
0
 40
1
 40
1
 40
1
 40
1
 10
118.180320
 20
251.855470
 30
0.0
 10
119.459490
 20
251.855470
 30
0.0
 10
120.611860
 20
252.331009
 30
0.0
 10
121.541650
 20
253.236329
 30
0.0
  0
SPLINE
  5
1dd
100
AcDbEntity
  8
Ebene_1
 62
7
100
AcDbSpline
 70
8
 71
3
 72
8
 73
4
 74
0
 40
0
 40
0
 40
0
 40
0
 40
1
 40
1
 40
1
 40
1
 10
121.541650
 20
253.236329
 30
0.0
 10
122.476870
 20
254.146941
 30
0.0
 10
122.965470
 20
255.318127
 30
0.0
 10
122.965470
 20
256.640626
 30
0.0
  0
LWPOLYLINE
  5
1de
100
AcDbEntity
  8
Ebene_1
 62
7
100
AcDbPolyline
 90
8
 70
0
 10
96.254540
 20
235.214845
 30
0.0
 10
96.254540
 20
234.714845
 30
0.0
 10
96.754540
 20
234.714845
 30
0.0
 10
122.965470
 20
234.714845
 30
0.0
 10
122.965470
 20
248.570314
 30
0.0
 10
101.539690
 20
248.570314
 30
0.0
 10
101.539690
 20
251.855470
 30
0.0
 10
118.180320
 20
251.855470
 30
0.0
  0
LWPOLYLINE
  5
1df
100
AcDbEntity
  8
Ebene_1
 62
7
100
AcDbPolyline
 90
3
 70
0
 10
122.965470
 20
256.640626
 30
0.0
 10
122.965470
 20
257.140626
 30
0.0
 10
96.254540
 20
257.140626
 30
0.0
  0
SPLINE
  5
1e0
100
AcDbEntity
  8
Ebene_1
 62
7
100
AcDbSpline
 70
8
 71
3
 72
8
 73
4
 74
0
 40
0
 40
0
 40
0
 40
0
 40
1
 40
1
 40
1
 40
1
 10
151.477190
 20
234.714845
 30
0.0
 10
152.756360
 20
234.714845
 30
0.0
 10
153.910690
 20
235.190384
 30
0.0
 10
154.840470
 20
236.095704
 30
0.0
  0
SPLINE
  5
1e1
100
AcDbEntity
  8
Ebene_1
 62
7
100
AcDbSpline
 70
8
 71
3
 72
8
 73
4
 74
0
 40
0
 40
0
 40
0
 40
0
 40
1
 40
1
 40
1
 40
1
 10
154.840470
 20
236.095704
 30
0.0
 10
155.775690
 20
237.006316
 30
0.0
 10
156.262350
 20
238.177502
 30
0.0
 10
156.262350
 20
239.500001
 30
0.0
  0
LWPOLYLINE
  5
1e2
100
AcDbEntity
  8
Ebene_1
 62
7
100
AcDbPolyline
 90
4
 70
0
 10
129.551410
 20
257.140626
 30
0.0
 10
129.551410
 20
234.714845
 30
0.0
 10
130.051410
 20
234.714845
 30
0.0
 10
151.477190
 20
234.714845
 30
0.0
  0
LWPOLYLINE
  5
1e3
100
AcDbEntity
  8
Ebene_1
 62
7
100
AcDbPolyline
 90
5
 70
0
 10
156.262350
 20
239.500001
 30
0.0
 10
156.262350
 20
240.000001
 30
0.0
 10
134.836570
 20
240.000001
 30
0.0
 10
134.836570
 20
257.140626
 30
0.0
 10
129.551410
 20
257.140626
 30
0.0
  0
SPLINE
  5
1e4
100
AcDbEntity
  8
Ebene_1
 62
7
100
AcDbSpline
 70
8
 71
3
 72
8
 73
4
 74
0
 40
0
 40
0
 40
0
 40
0
 40
1
 40
1
 40
1
 40
1
 10
46.802760
 20
290.000000
 30
0.0
 10
27.490857
 20
290.000000
 30
0.0
 10
11.836156
 20
274.358884
 30
0.0
 10
11.836156
 20
255.063748
 30
0.0
  0
LWPOLYLINE
  5
1e5
100
AcDbEntity
  8
Ebene_1
 62
7
100
AcDbPolyline
 90
4
 70
1
 10
-0.000000
 20
300.013813
 30
0.0
 10
219.797283
 20
300.013813
 30
0.0
 10
219.797283
 20
0.000000
 30
0.0
 10
-0.000000
 20
0.000000
 30
0.0
  0
SPLINE
  5
1e6
100
AcDbEntity
  8
Ebene_1
 62
7
100
AcDbSpline
 70
8
 71
3
 72
8
 73
4
 74
0
 40
0
 40
0
 40
0
 40
0
 40
1
 40
1
 40
1
 40
1
 10
11.836156
 20
44.927980
 30
0.0
 10
11.836156
 20
25.632830
 30
0.0
 10
27.490857
 20
9.991730
 30
0.0
 10
46.802760
 20
9.991730
 30
0.0
  0
LWPOLYLINE
  5
1e7
100
AcDbEntity
  8
Ebene_1
 62
7
100
AcDbPolyline
 90
2
 70
0
 10
11.836156
 20
255.063748
 30
0.0
 10
11.836156
 20
44.927980
 30
0.0
  0
SPLINE
  5
1e8
100
AcDbEntity
  8
Ebene_1
 62
7
100
AcDbSpline
 70
8
 71
3
 72
8
 73
4
 74
0
 40
0
 40
0
 40
0
 40
0
 40
1
 40
1
 40
1
 40
1
 10
172.994523
 20
9.991730
 30
0.0
 10
192.306423
 20
9.991730
 30
0.0
 10
207.961123
 20
25.632830
 30
0.0
 10
207.961123
 20
44.927980
 30
0.0
  0
LWPOLYLINE
  5
1e9
100
AcDbEntity
  8
Ebene_1
 62
7
100
AcDbPolyline
 90
2
 70
0
 10
46.802760
 20
9.991730
 30
0.0
 10
172.994523
 20
9.991730
 30
0.0
  0
SPLINE
  5
1ea
100
AcDbEntity
  8
Ebene_1
 62
7
100
AcDbSpline
 70
8
 71
3
 72
8
 73
4
 74
0
 40
0
 40
0
 40
0
 40
0
 40
1
 40
1
 40
1
 40
1
 10
207.961123
 20
255.063748
 30
0.0
 10
207.961123
 20
274.358884
 30
0.0
 10
192.306423
 20
290.000000
 30
0.0
 10
172.994523
 20
290.000000
 30
0.0
  0
LWPOLYLINE
  5
1eb
100
AcDbEntity
  8
Ebene_1
 62
7
100
AcDbPolyline
 90
2
 70
0
 10
207.961123
 20
44.927980
 30
0.0
 10
207.961123
 20
255.063748
 30
0.0
  0
LWPOLYLINE
  5
1ec
100
AcDbEntity
  8
Ebene_1
 62
7
100
AcDbPolyline
 90
2
 70
0
 10
172.994523
 20
290.000000
 30
0.0
 10
46.802760
 20
290.000000
 30
0.0
  0
SPLINE
  5
1ed
100
AcDbEntity
  8
Ebene_1
 62
7
100
AcDbSpline
 70
8
 71
3
 72
8
 73
4
 74
0
 40
0
 40
0
 40
0
 40
0
 40
1
 40
1
 40
1
 40
1
 10
172.994523
 20
283.170529
 30
0.0
 10
188.637843
 20
283.170529
 30
0.0
 10
201.125723
 20
270.693479
 30
0.0
 10
201.125723
 20
255.063748
 30
0.0
  0
LWPOLYLINE
  5
1ee
100
AcDbEntity
  8
Ebene_1
 62
7
100
AcDbPolyline
 90
2
 70
0
 10
46.802760
 20
283.170529
 30
0.0
 10
172.994523
 20
283.170529
 30
0.0
  0
SPLINE
  5
1ef
100
AcDbEntity
  8
Ebene_1
 62
7
100
AcDbSpline
 70
8
 71
3
 72
8
 73
4
 74
0
 40
0
 40
0
 40
0
 40
0
 40
1
 40
1
 40
1
 40
1
 10
201.125723
 20
44.927980
 30
0.0
 10
201.125723
 20
29.298240
 30
0.0
 10
188.637843
 20
16.821200
 30
0.0
 10
172.994523
 20
16.821200
 30
0.0
  0
LWPOLYLINE
  5
1f0
100
AcDbEntity
  8
Ebene_1
 62
7
100
AcDbPolyline
 90
2
 70
0
 10
201.125723
 20
255.063748
 30
0.0
 10
201.125723
 20
44.927980
 30
0.0
  0
SPLINE
  5
1f1
100
AcDbEntity
  8
Ebene_1
 62
7
100
AcDbSpline
 70
8
 71
3
 72
8
 73
4
 74
0
 40
0
 40
0
 40
0
 40
0
 40
1
 40
1
 40
1
 40
1
 10
46.802760
 20
16.821200
 30
0.0
 10
31.159429
 20
16.821200
 30
0.0
 10
18.671561
 20
29.298240
 30
0.0
 10
18.671561
 20
44.927980
 30
0.0
  0
LWPOLYLINE
  5
1f2
100
AcDbEntity
  8
Ebene_1
 62
7
100
AcDbPolyline
 90
2
 70
0
 10
172.994523
 20
16.821200
 30
0.0
 10
46.802760
 20
16.821200
 30
0.0
  0
SPLINE
  5
1f3
100
AcDbEntity
  8
Ebene_1
 62
7
100
AcDbSpline
 70
8
 71
3
 72
8
 73
4
 74
0
 40
0
 40
0
 40
0
 40
0
 40
1
 40
1
 40
1
 40
1
 10
18.671561
 20
255.063748
 30
0.0
 10
18.671561
 20
270.693479
 30
0.0
 10
31.159429
 20
283.170529
 30
0.0
 10
46.802760
 20
283.170529
 30
0.0
  0
LWPOLYLINE
  5
1f4
100
AcDbEntity
  8
Ebene_1
 62
7
100
AcDbPolyline
 90
2
 70
0
 10
18.671561
 20
44.927980
 30
0.0
 10
18.671561
 20
255.063748
 30
0.0
  0
SPLINE
  5
1f5
100
AcDbEntity
  8
Ebene_1
 62
7
100
AcDbSpline
 70
8
 71
3
 72
8
 73
4
 74
0
 40
0
 40
0
 40
0
 40
0
 40
1
 40
1
 40
1
 40
1
 10
189.970508
 20
268.773529
 30
0.0
 10
189.970502
 20
267.390917
 30
0.0
 10
188.850214
 20
266.270090
 30
0.0
 10
187.468268
 20
266.270087
 30
0.0
  0
SPLINE
  5
1f6
100
AcDbEntity
  8
Ebene_1
 62
7
100
AcDbSpline
 70
8
 71
3
 72
8
 73
4
 74
0
 40
0
 40
0
 40
0
 40
0
 40
1
 40
1
 40
1
 40
1
 10
187.468268
 20
266.270087
 30
0.0
 10
186.086322
 20
266.270090
 30
0.0
 10
184.966034
 20
267.390917
 30
0.0
 10
184.966028
 20
268.773529
 30
0.0
  0
SPLINE
  5
1f7
100
AcDbEntity
  8
Ebene_1
 62
7
100
AcDbSpline
 70
8
 71
3
 72
8
 73
4
 74
0
 40
0
 40
0
 40
0
 40
0
 40
1
 40
1
 40
1
 40
1
 10
184.966028
 20
268.773529
 30
0.0
 10
184.966025
 20
269.437487
 30
0.0
 10
185.229652
 20
270.074252
 30
0.0
 10
185.698913
 20
270.543742
 30
0.0
  0
SPLINE
  5
1f8
100
AcDbEntity
  8
Ebene_1
 62
7
100
AcDbSpline
 70
8
 71
3
 72
8
 73
4
 74
0
 40
0
 40
0
 40
0
 40
0
 40
1
 40
1
 40
1
 40
1
 10
185.698913
 20
270.543742
 30
0.0
 10
186.168174
 20
271.013233
 30
0.0
 10
186.804630
 20
271.276990
 30
0.0
 10
187.468268
 20
271.276992
 30
0.0
  0
SPLINE
  5
1f9
100
AcDbEntity
  8
Ebene_1
 62
7
100
AcDbSpline
 70
8
 71
3
 72
8
 73
4
 74
0
 40
0
 40
0
 40
0
 40
0
 40
1
 40
1
 40
1
 40
1
 10
187.468268
 20
271.276992
 30
0.0
 10
188.131906
 20
271.276990
 30
0.0
 10
188.768362
 20
271.013233
 30
0.0
 10
189.237623
 20
270.543742
 30
0.0
  0
SPLINE
  5
1fa
100
AcDbEntity
  8
Ebene_1
 62
7
100
AcDbSpline
 70
8
 71
3
 72
8
 73
4
 74
0
 40
0
 40
0
 40
0
 40
0
 40
1
 40
1
 40
1
 40
1
 10
189.237623
 20
270.543742
 30
0.0
 10
189.706884
 20
270.074252
 30
0.0
 10
189.970511
 20
269.437487
 30
0.0
 10
189.970508
 20
268.773529
 30
0.0
  0
LWPOLYLINE
  5
1fb
100
AcDbEntity
  8
Ebene_1
 62
7
100
AcDbPolyline
 90
1
 70
1
 10
46.802760
 20
283.170529
 30
0.0
  0
SPLINE
  5
1fc
100
AcDbEntity
  8
Ebene_1
 62
7
100
AcDbSpline
 70
8
 71
3
 72
8
 73
4
 74
0
 40
0
 40
0
 40
0
 40
0
 40
1
 40
1
 40
1
 40
1
 10
34.831267
 20
268.773529
 30
0.0
 10
34.831261
 20
267.390914
 30
0.0
 10
33.710969
 20
266.270087
 30
0.0
 10
32.329021
 20
266.270087
 30
0.0
  0
SPLINE
  5
1fd
100
AcDbEntity
  8
Ebene_1
 62
7
100
AcDbSpline
 70
8
 71
3
 72
8
 73
4
 74
0
 40
0
 40
0
 40
0
 40
0
 40
1
 40
1
 40
1
 40
1
 10
32.329021
 20
266.270087
 30
0.0
 10
30.947073
 20
266.270087
 30
0.0
 10
29.826781
 20
267.390914
 30
0.0
 10
29.826775
 20
268.773529
 30
0.0
  0
SPLINE
  5
1fe
100
AcDbEntity
  8
Ebene_1
 62
7
100
AcDbSpline
 70
8
 71
3
 72
8
 73
4
 74
0
 40
0
 40
0
 40
0
 40
0
 40
1
 40
1
 40
1
 40
1
 10
29.826775
 20
268.773529
 30
0.0
 10
29.826772
 20
269.437488
 30
0.0
 10
30.090400
 20
270.074253
 30
0.0
 10
30.559662
 20
270.543744
 30
0.0
  0
SPLINE
  5
1ff
100
AcDbEntity
  8
Ebene_1
 62
7
100
AcDbSpline
 70
8
 71
3
 72
8
 73
4
 74
0
 40
0
 40
0
 40
0
 40
0
 40
1
 40
1
 40
1
 40
1
 10
30.559662
 20
270.543744
 30
0.0
 10
31.028925
 20
271.013235
 30
0.0
 10
31.665382
 20
271.276992
 30
0.0
 10
32.329021
 20
271.276992
 30
0.0
  0
SPLINE
  5
200
100
AcDbEntity
  8
Ebene_1
 62
7
100
AcDbSpline
 70
8
 71
3
 72
8
 73
4
 74
0
 40
0
 40
0
 40
0
 40
0
 40
1
 40
1
 40
1
 40
1
 10
32.329021
 20
271.276992
 30
0.0
 10
32.992660
 20
271.276992
 30
0.0
 10
33.629117
 20
271.013235
 30
0.0
 10
34.098380
 20
270.543744
 30
0.0
  0
SPLINE
  5
201
100
AcDbEntity
  8
Ebene_1
 62
7
100
AcDbSpline
 70
8
 71
3
 72
8
 73
4
 74
0
 40
0
 40
0
 40
0
 40
0
 40
1
 40
1
 40
1
 40
1
 10
34.098380
 20
270.543744
 30
0.0
 10
34.567642
 20
270.074253
 30
0.0
 10
34.831270
 20
269.437488
 30
0.0
 10
34.831267
 20
268.773529
 30
0.0
  0
LWPOLYLINE
  5
202
100
AcDbEntity
  8
Ebene_1
 62
7
100
AcDbPolyline
 90
1
 70
1
 10
189.970508
 20
268.773529
 30
0.0
  0
SPLINE
  5
203
100
AcDbEntity
  8
Ebene_1
 62
7
100
AcDbSpline
 70
8
 71
3
 72
8
 73
4
 74
0
 40
0
 40
0
 40
0
 40
0
 40
1
 40
1
 40
1
 40
1
 10
189.970508
 20
31.218529
 30
0.0
 10
189.970502
 20
29.835917
 30
0.0
 10
188.850214
 20
28.715090
 30
0.0
 10
187.468268
 20
28.715087
 30
0.0
  0
SPLINE
  5
204
100
AcDbEntity
  8
Ebene_1
 62
7
100
AcDbSpline
 70
8
 71
3
 72
8
 73
4
 74
0
 40
0
 40
0
 40
0
 40
0
 40
1
 40
1
 40
1
 40
1
 10
187.468268
 20
28.715087
 30
0.0
 10
186.086322
 20
28.715090
 30
0.0
 10
184.966034
 20
29.835917
 30
0.0
 10
184.966028
 20
31.218529
 30
0.0
  0
SPLINE
  5
205
100
AcDbEntity
  8
Ebene_1
 62
7
100
AcDbSpline
 70
8
 71
3
 72
8
 73
4
 74
0
 40
0
 40
0
 40
0
 40
0
 40
1
 40
1
 40
1
 40
1
 10
184.966028
 20
31.218529
 30
0.0
 10
184.966025
 20
31.882487
 30
0.0
 10
185.229652
 20
32.519252
 30
0.0
 10
185.698913
 20
32.988742
 30
0.0
  0
SPLINE
  5
206
100
AcDbEntity
  8
Ebene_1
 62
7
100
AcDbSpline
 70
8
 71
3
 72
8
 73
4
 74
0
 40
0
 40
0
 40
0
 40
0
 40
1
 40
1
 40
1
 40
1
 10
185.698913
 20
32.988742
 30
0.0
 10
186.168174
 20
33.458233
 30
0.0
 10
186.804630
 20
33.721990
 30
0.0
 10
187.468268
 20
33.721992
 30
0.0
  0
SPLINE
  5
207
100
AcDbEntity
  8
Ebene_1
 62
7
100
AcDbSpline
 70
8
 71
3
 72
8
 73
4
 74
0
 40
0
 40
0
 40
0
 40
0
 40
1
 40
1
 40
1
 40
1
 10
187.468268
 20
33.721992
 30
0.0
 10
188.131906
 20
33.721990
 30
0.0
 10
188.768362
 20
33.458233
 30
0.0
 10
189.237623
 20
32.988742
 30
0.0
  0
SPLINE
  5
208
100
AcDbEntity
  8
Ebene_1
 62
7
100
AcDbSpline
 70
8
 71
3
 72
8
 73
4
 74
0
 40
0
 40
0
 40
0
 40
0
 40
1
 40
1
 40
1
 40
1
 10
189.237623
 20
32.988742
 30
0.0
 10
189.706884
 20
32.519252
 30
0.0
 10
189.970511
 20
31.882487
 30
0.0
 10
189.970508
 20
31.218529
 30
0.0
  0
LWPOLYLINE
  5
209
100
AcDbEntity
  8
Ebene_1
 62
7
100
AcDbPolyline
 90
1
 70
1
 10
34.831267
 20
268.773529
 30
0.0
  0
SPLINE
  5
20a
100
AcDbEntity
  8
Ebene_1
 62
7
100
AcDbSpline
 70
8
 71
3
 72
8
 73
4
 74
0
 40
0
 40
0
 40
0
 40
0
 40
1
 40
1
 40
1
 40
1
 10
34.831267
 20
31.218529
 30
0.0
 10
34.831261
 20
29.835914
 30
0.0
 10
33.710969
 20
28.715087
 30
0.0
 10
32.329021
 20
28.715087
 30
0.0
  0
SPLINE
  5
20b
100
AcDbEntity
  8
Ebene_1
 62
7
100
AcDbSpline
 70
8
 71
3
 72
8
 73
4
 74
0
 40
0
 40
0
 40
0
 40
0
 40
1
 40
1
 40
1
 40
1
 10
32.329021
 20
28.715087
 30
0.0
 10
30.947073
 20
28.715087
 30
0.0
 10
29.826781
 20
29.835914
 30
0.0
 10
29.826775
 20
31.218529
 30
0.0
  0
SPLINE
  5
20c
100
AcDbEntity
  8
Ebene_1
 62
7
100
AcDbSpline
 70
8
 71
3
 72
8
 73
4
 74
0
 40
0
 40
0
 40
0
 40
0
 40
1
 40
1
 40
1
 40
1
 10
29.826775
 20
31.218529
 30
0.0
 10
29.826772
 20
31.882488
 30
0.0
 10
30.090400
 20
32.519253
 30
0.0
 10
30.559662
 20
32.988744
 30
0.0
  0
SPLINE
  5
20d
100
AcDbEntity
  8
Ebene_1
 62
7
100
AcDbSpline
 70
8
 71
3
 72
8
 73
4
 74
0
 40
0
 40
0
 40
0
 40
0
 40
1
 40
1
 40
1
 40
1
 10
30.559662
 20
32.988744
 30
0.0
 10
31.028925
 20
33.458235
 30
0.0
 10
31.665382
 20
33.721992
 30
0.0
 10
32.329021
 20
33.721992
 30
0.0
  0
SPLINE
  5
20e
100
AcDbEntity
  8
Ebene_1
 62
7
100
AcDbSpline
 70
8
 71
3
 72
8
 73
4
 74
0
 40
0
 40
0
 40
0
 40
0
 40
1
 40
1
 40
1
 40
1
 10
32.329021
 20
33.721992
 30
0.0
 10
32.992660
 20
33.721992
 30
0.0
 10
33.629117
 20
33.458235
 30
0.0
 10
34.098380
 20
32.988744
 30
0.0
  0
SPLINE
  5
20f
100
AcDbEntity
  8
Ebene_1
 62
7
100
AcDbSpline
 70
8
 71
3
 72
8
 73
4
 74
0
 40
0
 40
0
 40
0
 40
0
 40
1
 40
1
 40
1
 40
1
 10
34.098380
 20
32.988744
 30
0.0
 10
34.567642
 20
32.519253
 30
0.0
 10
34.831270
 20
31.882488
 30
0.0
 10
34.831267
 20
31.218529
 30
0.0
  0
LWPOLYLINE
  5
210
100
AcDbEntity
  8
Ebene_1
 62
7
100
AcDbPolyline
 90
1
 70
1
 10
189.970508
 20
31.218529
 30
0.0
  0
LWPOLYLINE
  5
211
100
AcDbEntity
  8
Ebene_1
 62
7
100
AcDbPolyline
 90
1
 70
1
 10
34.831267
 20
31.218529
 30
0.0
  0
ENDSEC
  0
SECTION
  2
OBJECTS
  0
DICTIONARY
  5
C
330
0
100
AcDbDictionary
  3
ACAD_GROUP
350
D
  3
ACAD_MLINESTYLE
350
17
  0
DICTIONARY
  5
D
330
C
100
AcDbDictionary
  0
DICTIONARY
  5
1A
330
C
100
AcDbDictionary
  0
DICTIONARY
  5
17
330
C
100
AcDbDictionary
  3
STANDARD
350
18
  0
DICTIONARY
  5
19
330
C
100
AcDbDictionary
  0
ENDSEC
  0
EOF
