  0
SECTION
  2
HEADER
  9
$ACADVER
  1
AC1014
  9
$HANDSEED
  5
FFFF
  9
$MEASUREMENT
 70
     1
  0
ENDSEC
  0
SECTION
  2
TABLES
  0
TABLE
  2
VPORT
  5
8
330
0
100
AcDbSymbolTable
 70
     4
  0
VPORT
  5
2E
330
8
100
AcDbSymbolTableRecord
100
AcDbViewportTableRecord
  2
*ACTIVE
 70
     0
 10
0.0
 20
0.0
 11
1.0
 21
1.0
 12
210.0
 22
148.5
 13
0.0
 23
0.0
 14
10.0
 24
10.0
 15
10.0
 25
10.0
 16
0.0
 26
0.0
 36
1.0
 17
0.0
 27
0.0
 37
0.0
 40
341.0
 41
1.24
 42
50.0
 43
0.0
 44
0.0
 50
0.0
 51
0.0
 71
     0
 72
   100
 73
     1
 74
     3
 75
     0
 76
     0
 77
     0
 78
     0
  0
ENDTAB
  0
TABLE
  2
LTYPE
  5
5
330
0
100
AcDbSymbolTable
 70
     1
  0
LTYPE
  5
14
330
5
100
AcDbSymbolTableRecord
100
AcDbLinetypeTableRecord
  2
BYBLOCK
 70
     0
  3

 72
    65
 73
     0
 40
0.0
  0
LTYPE
  5
15
330
5
100
AcDbSymbolTableRecord
100
AcDbLinetypeTableRecord
  2
BYLAYER
 70
     0
  3

 72
    65
 73
     0
 40
0.0
  0
LTYPE
  5
16
330
5
100
AcDbSymbolTableRecord
100
AcDbLinetypeTableRecord
  2
CONTINUOUS
 70
     0
  3
Solid line
 72
    65
 73
     0
 40
0.0
  0
ENDTAB
  0
TABLE
  2
LAYER
  5
2
100
AcDbSymbolTable
 70
2
  0
LAYER
  5
50
100
AcDbSymbolTableRecord
100
AcDbLayerTableRecord
  2
0
 70
0
  6
CONTINUOUS
  0
LAYER
  5
51
100
AcDbSymbolTableRecord
100
AcDbLayerTableRecord
  2
Ebene_1
 70
0
  6
CONTINUOUS
  0
ENDTAB
  0
TABLE
  2
STYLE
  5
3
330
0
100
AcDbSymbolTable
 70
     1
  0
STYLE
  5
11
330
3
100
AcDbSymbolTableRecord
100
AcDbTextStyleTableRecord
  2
STANDARD
 70
     0
 40
0.0
 41
1.0
 50
0.0
 71
     0
 42
2.5
  3
txt
  4

  0
ENDTAB
  0
TABLE
  2
VIEW
  5
6
330
0
100
AcDbSymbolTable
 70
     0
  0
ENDTAB
  0
TABLE
  2
UCS
  5
7
330
0
100
AcDbSymbolTable
 70
     0
  0
ENDTAB
  0
TABLE
  2
APPID
  5
9
330
0
100
AcDbSymbolTable
 70
     2
  0
APPID
  5
12
330
9
100
AcDbSymbolTableRecord
100
AcDbRegAppTableRecord
  2
ACAD
 70
     0
  0
ENDTAB
  0
TABLE
  2
DIMSTYLE
  5
A
330
0
100
AcDbSymbolTable
 70
     1
  0
DIMSTYLE
105
27
330
A
100
AcDbSymbolTableRecord
100
AcDbDimStyleTableRecord
  2
ISO-25
 70
     0
  3

  4

  5

  6

  7

 40
1.0
 41
2.5
 42
0.625
 43
3.75
 44
1.25
 45
0.0
 46
0.0
 47
0.0
 48
0.0
140
2.5
141
2.5
142
0.0
143
0.03937007874016
144
1.0
145
0.0
146
1.0
147
0.625
 71
     0
 72
     0
 73
     0
 74
     0
 75
     0
 76
     0
 77
     1
 78
     8
170
     0
171
     3
172
     1
173
     0
174
     0
175
     0
176
     0
177
     0
178
     0
270
     2
271
     2
272
     2
273
     2
274
     3
340
11
275
     0
280
     0
281
     0
282
     0
283
     0
284
     8
285
     0
286
     0
287
     3
288
     0
  0
ENDTAB
  0
TABLE
  2
BLOCK_RECORD
  5
1
330
0
100
AcDbSymbolTable
 70
     1
  0
BLOCK_RECORD
  5
1F
330
1
100
AcDbSymbolTableRecord
100
AcDbBlockTableRecord
  2
*MODEL_SPACE
  0
BLOCK_RECORD
  5
1B
330
1
100
AcDbSymbolTableRecord
100
AcDbBlockTableRecord
  2
*PAPER_SPACE
  0
ENDTAB
  0
ENDSEC
  0
SECTION
  2
BLOCKS
  0
BLOCK
  5
20
330
1F
100
AcDbEntity
  8
0
100
AcDbBlockBegin
  2
*MODEL_SPACE
 70
     0
 10
0.0
 20
0.0
 30
0.0
  3
*MODEL_SPACE
  1

  0
ENDBLK
  5
21
330
1F
100
AcDbEntity
  8
0
100
AcDbBlockEnd
  0
BLOCK
  5
1C
330
1B
100
AcDbEntity
 67
     1
  8
0
100
AcDbBlockBegin
  2
*PAPER_SPACE
  1

  0
ENDBLK
  5
1D
330
1B
100
AcDbEntity
 67
     1
  8
0
100
AcDbBlockEnd
  0
ENDSEC
  0
SECTION
  2
ENTITIES
  0
SPLINE
  5
100
100
AcDbEntity
  8
Ebene_1
 62
7
100
AcDbSpline
 70
8
 71
3
 72
8
 73
4
 74
0
 40
0
 40
0
 40
0
 40
0
 40
1
 40
1
 40
1
 40
1
 10
109.852000
 20
84.833350
 30
0.0
 10
109.619050
 20
86.061950
 30
0.0
 10
89.573591
 20
197.974800
 30
0.0
 10
89.573591
 20
198.046770
 30
0.0
  0
SPLINE
  5
101
100
AcDbEntity
  8
Ebene_1
 62
7
100
AcDbSpline
 70
8
 71
3
 72
8
 73
4
 74
0
 40
0
 40
0
 40
0
 40
0
 40
1
 40
1
 40
1
 40
1
 10
89.573591
 20
198.046770
 30
0.0
 10
89.573591
 20
198.149220
 30
0.0
 10
83.653034
 20
197.999470
 30
0.0
 10
80.677086
 20
197.821830
 30
0.0
  0
SPLINE
  5
102
100
AcDbEntity
  8
Ebene_1
 62
7
100
AcDbSpline
 70
8
 71
3
 72
8
 73
4
 74
0
 40
0
 40
0
 40
0
 40
0
 40
1
 40
1
 40
1
 40
1
 10
80.677086
 20
197.821830
 30
0.0
 10
71.820742
 20
197.293680
 30
0.0
 10
67.265690
 20
195.742810
 30
0.0
 10
65.064107
 20
192.505990
 30
0.0
  0
SPLINE
  5
103
100
AcDbEntity
  8
Ebene_1
 62
7
100
AcDbSpline
 70
8
 71
3
 72
8
 73
4
 74
0
 40
0
 40
0
 40
0
 40
0
 40
1
 40
1
 40
1
 40
1
 10
65.064107
 20
192.505990
 30
0.0
 10
64.252430
 20
191.312590
 30
0.0
 10
63.913530
 20
190.461680
 30
0.0
 10
63.559254
 20
188.727630
 30
0.0
  0
SPLINE
  5
104
100
AcDbEntity
  8
Ebene_1
 62
7
100
AcDbSpline
 70
8
 71
3
 72
8
 73
4
 74
0
 40
0
 40
0
 40
0
 40
0
 40
1
 40
1
 40
1
 40
1
 10
63.559254
 20
188.727630
 30
0.0
 10
63.415440
 20
188.023100
 30
0.0
 10
63.271349
 20
187.420380
 30
0.0
 10
63.239256
 20
187.388300
 30
0.0
  0
SPLINE
  5
105
100
AcDbEntity
  8
Ebene_1
 62
7
100
AcDbSpline
 70
8
 71
3
 72
8
 73
4
 74
0
 40
0
 40
0
 40
0
 40
0
 40
1
 40
1
 40
1
 40
1
 10
63.239256
 20
187.388300
 30
0.0
 10
63.131578
 20
187.280650
 30
0.0
 10
59.450945
 20
189.029260
 30
0.0
 10
57.606904
 20
190.064550
 30
0.0
  0
SPLINE
  5
106
100
AcDbEntity
  8
Ebene_1
 62
7
100
AcDbSpline
 70
8
 71
3
 72
8
 73
4
 74
0
 40
0
 40
0
 40
0
 40
0
 40
1
 40
1
 40
1
 40
1
 10
57.606904
 20
190.064550
 30
0.0
 10
52.091340
 20
193.161070
 30
0.0
 10
47.761155
 20
196.746340
 30
0.0
 10
44.815468
 20
200.655621
 30
0.0
  0
SPLINE
  5
107
100
AcDbEntity
  8
Ebene_1
 62
7
100
AcDbSpline
 70
8
 71
3
 72
8
 73
4
 74
0
 40
0
 40
0
 40
0
 40
0
 40
1
 40
1
 40
1
 40
1
 10
44.815468
 20
200.655621
 30
0.0
 10
44.382660
 20
201.229945
 30
0.0
 10
44.028594
 20
201.746830
 30
0.0
 10
44.028594
 20
201.804300
 30
0.0
  0
SPLINE
  5
108
100
AcDbEntity
  8
Ebene_1
 62
7
100
AcDbSpline
 70
8
 71
3
 72
8
 73
4
 74
0
 40
0
 40
0
 40
0
 40
0
 40
1
 40
1
 40
1
 40
1
 10
44.028594
 20
201.804300
 30
0.0
 10
44.028594
 20
201.861900
 30
0.0
 10
44.252670
 20
202.001500
 30
0.0
 10
44.526529
 20
202.114837
 30
0.0
  0
SPLINE
  5
109
100
AcDbEntity
  8
Ebene_1
 62
7
100
AcDbSpline
 70
8
 71
3
 72
8
 73
4
 74
0
 40
0
 40
0
 40
0
 40
0
 40
1
 40
1
 40
1
 40
1
 10
44.526529
 20
202.114837
 30
0.0
 10
44.800411
 20
202.228319
 30
0.0
 10
45.980521
 20
202.736809
 30
0.0
 10
47.149043
 20
203.245146
 30
0.0
  0
SPLINE
  5
10a
100
AcDbEntity
  8
Ebene_1
 62
7
100
AcDbSpline
 70
8
 71
3
 72
8
 73
4
 74
0
 40
0
 40
0
 40
0
 40
0
 40
1
 40
1
 40
1
 40
1
 10
47.149043
 20
203.245146
 30
0.0
 10
60.537114
 20
209.069531
 30
0.0
 10
77.939573
 20
213.140687
 30
0.0
 10
93.557131
 20
214.101878
 30
0.0
  0
SPLINE
  5
10b
100
AcDbEntity
  8
Ebene_1
 62
7
100
AcDbSpline
 70
8
 71
3
 72
8
 73
4
 74
0
 40
0
 40
0
 40
0
 40
0
 40
1
 40
1
 40
1
 40
1
 10
102.434960
 20
205.068608
 30
0.0
 10
106.550930
 20
200.053171
 30
0.0
 10
109.964080
 20
195.999870
 30
0.0
 10
110.019740
 20
196.061240
 30
0.0
  0
SPLINE
  5
10c
100
AcDbEntity
  8
Ebene_1
 62
7
100
AcDbSpline
 70
8
 71
3
 72
8
 73
4
 74
0
 40
0
 40
0
 40
0
 40
0
 40
1
 40
1
 40
1
 40
1
 10
110.019740
 20
196.061240
 30
0.0
 10
110.075340
 20
196.122540
 30
0.0
 10
113.416010
 20
200.188382
 30
0.0
 10
117.443310
 20
205.096117
 30
0.0
  0
SPLINE
  5
10d
100
AcDbEntity
  8
Ebene_1
 62
7
100
AcDbSpline
 70
8
 71
3
 72
8
 73
4
 74
0
 40
0
 40
0
 40
0
 40
0
 40
1
 40
1
 40
1
 40
1
 10
117.443310
 20
205.096117
 30
0.0
 10
121.470620
 20
210.003865
 30
0.0
 10
124.827220
 20
214.057388
 30
0.0
 10
124.902380
 20
214.103859
 30
0.0
  0
SPLINE
  5
10e
100
AcDbEntity
  8
Ebene_1
 62
7
100
AcDbSpline
 70
8
 71
3
 72
8
 73
4
 74
0
 40
0
 40
0
 40
0
 40
0
 40
1
 40
1
 40
1
 40
1
 10
124.902380
 20
214.103859
 30
0.0
 10
125.059230
 20
214.200729
 30
0.0
 10
128.408590
 20
213.984831
 30
0.0
 10
131.334250
 20
213.689020
 30
0.0
  0
SPLINE
  5
10f
100
AcDbEntity
  8
Ebene_1
 62
7
100
AcDbSpline
 70
8
 71
3
 72
8
 73
4
 74
0
 40
0
 40
0
 40
0
 40
0
 40
1
 40
1
 40
1
 40
1
 10
131.334250
 20
213.689020
 30
0.0
 10
143.672220
 20
212.441847
 30
0.0
 10
156.063780
 20
209.586827
 30
0.0
 10
167.318820
 20
205.398195
 30
0.0
  0
SPLINE
  5
110
100
AcDbEntity
  8
Ebene_1
 62
7
100
AcDbSpline
 70
8
 71
3
 72
8
 73
4
 74
0
 40
0
 40
0
 40
0
 40
0
 40
1
 40
1
 40
1
 40
1
 10
167.318820
 20
205.398195
 30
0.0
 10
169.975070
 20
204.409675
 30
0.0
 10
174.247770
 20
202.645275
 30
0.0
 10
175.362110
 20
202.076792
 30
0.0
  0
LWPOLYLINE
  5
111
100
AcDbEntity
  8
Ebene_1
 62
7
100
AcDbPolyline
 90
3
 70
0
 10
93.557131
 20
214.101878
 30
0.0
 10
94.951341
 20
214.187668
 30
0.0
 10
102.434960
 20
205.068608
 30
0.0
  0
SPLINE
  5
112
100
AcDbEntity
  8
Ebene_1
 62
7
100
AcDbSpline
 70
8
 71
3
 72
8
 73
4
 74
0
 40
0
 40
0
 40
0
 40
0
 40
1
 40
1
 40
1
 40
1
 10
175.211170
 20
200.887964
 30
0.0
 10
172.601480
 20
197.299960
 30
0.0
 10
168.510280
 20
193.773980
 30
0.0
 10
163.443740
 20
190.746210
 30
0.0
  0
SPLINE
  5
113
100
AcDbEntity
  8
Ebene_1
 62
7
100
AcDbSpline
 70
8
 71
3
 72
8
 73
4
 74
0
 40
0
 40
0
 40
0
 40
0
 40
1
 40
1
 40
1
 40
1
 10
163.443740
 20
190.746210
 30
0.0
 10
162.050340
 20
189.913520
 30
0.0
 10
157.437720
 20
187.598390
 30
0.0
 10
156.808790
 20
187.416070
 30
0.0
  0
SPLINE
  5
114
100
AcDbEntity
  8
Ebene_1
 62
7
100
AcDbSpline
 70
8
 71
3
 72
8
 73
4
 74
0
 40
0
 40
0
 40
0
 40
0
 40
1
 40
1
 40
1
 40
1
 10
156.808790
 20
187.416070
 30
0.0
 10
156.549260
 20
187.340670
 30
0.0
 10
156.514450
 20
187.397170
 30
0.0
 10
156.428110
 20
188.035120
 30
0.0
  0
SPLINE
  5
115
100
AcDbEntity
  8
Ebene_1
 62
7
100
AcDbSpline
 70
8
 71
3
 72
8
 73
4
 74
0
 40
0
 40
0
 40
0
 40
0
 40
1
 40
1
 40
1
 40
1
 10
156.428110
 20
188.035120
 30
0.0
 10
156.375910
 20
188.421170
 30
0.0
 10
156.187080
 20
189.243350
 30
0.0
 10
156.008620
 20
189.862130
 30
0.0
  0
SPLINE
  5
116
100
AcDbEntity
  8
Ebene_1
 62
7
100
AcDbSpline
 70
8
 71
3
 72
8
 73
4
 74
0
 40
0
 40
0
 40
0
 40
0
 40
1
 40
1
 40
1
 40
1
 10
156.008620
 20
189.862130
 30
0.0
 10
154.603440
 20
194.735060
 30
0.0
 10
150.451520
 20
196.898890
 30
0.0
 10
140.961120
 20
197.704230
 30
0.0
  0
SPLINE
  5
117
100
AcDbEntity
  8
Ebene_1
 62
7
100
AcDbSpline
 70
8
 71
3
 72
8
 73
4
 74
0
 40
0
 40
0
 40
0
 40
0
 40
1
 40
1
 40
1
 40
1
 10
140.961120
 20
197.704230
 30
0.0
 10
138.894680
 20
197.879570
 30
0.0
 10
130.300530
 20
198.104650
 30
0.0
 10
130.192540
 20
197.986200
 30
0.0
  0
SPLINE
  5
118
100
AcDbEntity
  8
Ebene_1
 62
7
100
AcDbSpline
 70
8
 71
3
 72
8
 73
4
 74
0
 40
0
 40
0
 40
0
 40
0
 40
1
 40
1
 40
1
 40
1
 10
130.192540
 20
197.986200
 30
0.0
 10
130.137240
 20
197.925600
 30
0.0
 10
113.546700
 20
104.857250
 30
0.0
 10
110.045320
 20
84.966090
 30
0.0
  0
LWPOLYLINE
  5
119
100
AcDbEntity
  8
Ebene_1
 62
7
100
AcDbPolyline
 90
3
 70
0
 10
175.362110
 20
202.076792
 30
0.0
 10
175.882690
 20
201.811212
 30
0.0
 10
175.211170
 20
200.887964
 30
0.0
  0
SPLINE
  5
11a
100
AcDbEntity
  8
Ebene_1
 62
7
100
AcDbSpline
 70
8
 71
3
 72
8
 73
4
 74
0
 40
0
 40
0
 40
0
 40
0
 40
1
 40
1
 40
1
 40
1
 10
175.883400
 20
206.824998
 30
0.0
 10
160.024490
 20
213.513422
 30
0.0
 10
142.006840
 20
217.769512
 30
0.0
 10
124.031100
 20
219.073414
 30
0.0
  0
SPLINE
  5
11b
100
AcDbEntity
  8
Ebene_1
 62
7
100
AcDbSpline
 70
8
 71
3
 72
8
 73
4
 74
0
 40
0
 40
0
 40
0
 40
0
 40
1
 40
1
 40
1
 40
1
 10
124.031100
 20
219.073414
 30
0.0
 10
118.255900
 20
219.492335
 30
0.0
 10
106.257930
 20
219.629517
 30
0.0
 10
100.448190
 20
219.343060
 30
0.0
  0
SPLINE
  5
11c
100
AcDbEntity
  8
Ebene_1
 62
7
100
AcDbSpline
 70
8
 71
3
 72
8
 73
4
 74
0
 40
0
 40
0
 40
0
 40
0
 40
1
 40
1
 40
1
 40
1
 10
100.448190
 20
219.343060
 30
0.0
 10
80.314684
 20
218.350387
 30
0.0
 10
61.791476
 20
214.247259
 30
0.0
 10
43.989612
 20
206.836869
 30
0.0
  0
SPLINE
  5
11d
100
AcDbEntity
  8
Ebene_1
 62
7
100
AcDbSpline
 70
8
 71
3
 72
8
 73
4
 74
0
 40
0
 40
0
 40
0
 40
0
 40
1
 40
1
 40
1
 40
1
 10
43.989612
 20
206.836869
 30
0.0
 10
42.763118
 20
206.326335
 30
0.0
 10
41.683306
 20
205.937898
 30
0.0
 10
41.589953
 20
205.973702
 30
0.0
  0
SPLINE
  5
11e
100
AcDbEntity
  8
Ebene_1
 62
7
100
AcDbSpline
 70
8
 71
3
 72
8
 73
4
 74
0
 40
0
 40
0
 40
0
 40
0
 40
1
 40
1
 40
1
 40
1
 10
41.589953
 20
205.973702
 30
0.0
 10
41.496393
 20
206.009792
 30
0.0
 10
40.728761
 20
207.434047
 30
0.0
 10
39.883649
 20
209.139333
 30
0.0
  0
SPLINE
  5
11f
100
AcDbEntity
  8
Ebene_1
 62
7
100
AcDbSpline
 70
8
 71
3
 72
8
 73
4
 74
0
 40
0
 40
0
 40
0
 40
0
 40
1
 40
1
 40
1
 40
1
 10
39.883649
 20
209.139333
 30
0.0
 10
38.302389
 20
212.329829
 30
0.0
 10
37.565474
 20
213.987220
 30
0.0
 10
37.678095
 20
214.099852
 30
0.0
  0
SPLINE
  5
120
100
AcDbEntity
  8
Ebene_1
 62
7
100
AcDbSpline
 70
8
 71
3
 72
8
 73
4
 74
0
 40
0
 40
0
 40
0
 40
0
 40
1
 40
1
 40
1
 40
1
 10
37.678095
 20
214.099852
 30
0.0
 10
37.793467
 20
214.215239
 30
0.0
 10
42.435986
 20
215.969006
 30
0.0
 10
45.157266
 20
216.925369
 30
0.0
  0
SPLINE
  5
121
100
AcDbEntity
  8
Ebene_1
 62
7
100
AcDbSpline
 70
8
 71
3
 72
8
 73
4
 74
0
 40
0
 40
0
 40
0
 40
0
 40
1
 40
1
 40
1
 40
1
 10
45.157266
 20
216.925369
 30
0.0
 10
70.668167
 20
225.891135
 30
0.0
 10
97.913189
 20
229.606523
 30
0.0
 10
123.699150
 20
227.636181
 30
0.0
  0
SPLINE
  5
122
100
AcDbEntity
  8
Ebene_1
 62
7
100
AcDbSpline
 70
8
 71
3
 72
8
 73
4
 74
0
 40
0
 40
0
 40
0
 40
0
 40
1
 40
1
 40
1
 40
1
 10
123.699150
 20
227.636181
 30
0.0
 10
142.985550
 20
226.162477
 30
0.0
 10
161.162080
 20
222.094202
 30
0.0
 10
179.664550
 20
215.109968
 30
0.0
  0
SPLINE
  5
123
100
AcDbEntity
  8
Ebene_1
 62
7
100
AcDbSpline
 70
8
 71
3
 72
8
 73
4
 74
0
 40
0
 40
0
 40
0
 40
0
 40
1
 40
1
 40
1
 40
1
 10
179.664550
 20
215.109968
 30
0.0
 10
181.042090
 20
214.589984
 30
0.0
 10
182.192860
 20
214.140878
 30
0.0
 10
182.221800
 20
214.111928
 30
0.0
  0
SPLINE
  5
124
100
AcDbEntity
  8
Ebene_1
 62
7
100
AcDbSpline
 70
8
 71
3
 72
8
 73
4
 74
0
 40
0
 40
0
 40
0
 40
0
 40
1
 40
1
 40
1
 40
1
 10
182.221800
 20
214.111928
 30
0.0
 10
182.373110
 20
213.960771
 30
0.0
 10
178.673450
 20
206.237540
 30
0.0
 10
178.298560
 20
205.921943
 30
0.0
  0
SPLINE
  5
125
100
AcDbEntity
  8
Ebene_1
 62
7
100
AcDbSpline
 70
8
 71
3
 72
8
 73
4
 74
0
 40
0
 40
0
 40
0
 40
0
 40
1
 40
1
 40
1
 40
1
 10
178.298560
 20
205.921943
 30
0.0
 10
178.248260
 20
205.879533
 30
0.0
 10
177.161470
 20
206.285990
 30
0.0
 10
175.883400
 20
206.824998
 30
0.0
  0
LWPOLYLINE
  5
126
100
AcDbEntity
  8
Ebene_1
 62
7
100
AcDbPolyline
 90
3
 70
0
 10
110.045320
 20
84.966090
 30
0.0
 10
109.940120
 20
84.368560
 30
0.0
 10
109.852000
 20
84.833350
 30
0.0
  0
LWPOLYLINE
  5
127
100
AcDbEntity
  8
Ebene_1
 62
7
100
AcDbPolyline
 90
1
 70
1
 10
175.883400
 20
206.824998
 30
0.0
  0
SPLINE
  5
128
100
AcDbEntity
  8
Ebene_1
 62
7
100
AcDbSpline
 70
8
 71
3
 72
8
 73
4
 74
0
 40
0
 40
0
 40
0
 40
0
 40
1
 40
1
 40
1
 40
1
 10
49.949464
 20
60.348440
 30
0.0
 10
51.052838
 20
60.348440
 30
0.0
 10
52.054391
 20
60.761560
 30
0.0
 10
52.855714
 20
61.541800
 30
0.0
  0
SPLINE
  5
129
100
AcDbEntity
  8
Ebene_1
 62
7
100
AcDbSpline
 70
8
 71
3
 72
8
 73
4
 74
0
 40
0
 40
0
 40
0
 40
0
 40
1
 40
1
 40
1
 40
1
 10
52.855714
 20
61.541800
 30
0.0
 10
53.662471
 20
62.327330
 30
0.0
 10
54.086183
 20
63.345210
 30
0.0
 10
54.086183
 20
64.485160
 30
0.0
  0
LWPOLYLINE
  5
12a
100
AcDbEntity
  8
Ebene_1
 62
7
100
AcDbPolyline
 90
4
 70
0
 10
31.269777
 20
79.530080
 30
0.0
 10
31.269777
 20
60.348440
 30
0.0
 10
31.769777
 20
60.348440
 30
0.0
 10
49.949464
 20
60.348440
 30
0.0
  0
LWPOLYLINE
  5
12b
100
AcDbEntity
  8
Ebene_1
 62
7
100
AcDbPolyline
 90
5
 70
0
 10
54.086183
 20
64.485160
 30
0.0
 10
54.086183
 20
64.985160
 30
0.0
 10
35.904542
 20
64.985160
 30
0.0
 10
35.904542
 20
79.530080
 30
0.0
 10
31.269777
 20
79.530080
 30
0.0
  0
LWPOLYLINE
  5
12c
100
AcDbEntity
  8
Ebene_1
 62
7
100
AcDbPolyline
 90
9
 70
1
 10
56.722902
 20
72.258590
 30
0.0
 10
56.722902
 20
60.348440
 30
0.0
 10
57.222902
 20
60.348440
 30
0.0
 10
79.539308
 20
60.348440
 30
0.0
 10
79.539308
 20
72.258590
 30
0.0
 10
74.902589
 20
72.258590
 30
0.0
 10
74.902589
 20
64.985160
 30
0.0
 10
61.357667
 20
64.985160
 30
0.0
 10
61.357667
 20
72.258590
 30
0.0
  0
SPLINE
  5
12d
100
AcDbEntity
  8
Ebene_1
 62
7
100
AcDbSpline
 70
8
 71
3
 72
8
 73
4
 74
0
 40
0
 40
0
 40
0
 40
0
 40
1
 40
1
 40
1
 40
1
 10
56.722902
 20
79.030080
 30
0.0
 10
56.722902
 20
77.910010
 30
0.0
 10
57.132543
 20
76.899380
 30
0.0
 10
57.914308
 20
76.096480
 30
0.0
  0
LWPOLYLINE
  5
12e
100
AcDbEntity
  8
Ebene_1
 62
7
100
AcDbPolyline
 90
2
 70
0
 10
56.722902
 20
79.530080
 30
0.0
 10
56.722902
 20
79.030080
 30
0.0
  0
SPLINE
  5
12f
100
AcDbEntity
  8
Ebene_1
 62
7
100
AcDbSpline
 70
8
 71
3
 72
8
 73
4
 74
0
 40
0
 40
0
 40
0
 40
0
 40
1
 40
1
 40
1
 40
1
 10
57.920208
 20
76.090480
 30
0.0
 10
58.706919
 20
75.303770
 30
0.0
 10
59.720851
 20
74.893220
 30
0.0
 10
60.857708
 20
74.893220
 30
0.0
  0
LWPOLYLINE
  5
130
100
AcDbEntity
  8
Ebene_1
 62
7
100
AcDbPolyline
 90
3
 70
0
 10
57.914308
 20
76.096480
 30
0.0
 10
57.918208
 20
76.094480
 30
0.0
 10
57.920208
 20
76.090480
 30
0.0
  0
SPLINE
  5
131
100
AcDbEntity
  8
Ebene_1
 62
7
100
AcDbSpline
 70
8
 71
3
 72
8
 73
4
 74
0
 40
0
 40
0
 40
0
 40
0
 40
1
 40
1
 40
1
 40
1
 10
75.402630
 20
74.893220
 30
0.0
 10
76.506004
 20
74.893220
 30
0.0
 10
77.507557
 20
75.306340
 30
0.0
 10
78.308880
 20
76.086580
 30
0.0
  0
SPLINE
  5
132
100
AcDbEntity
  8
Ebene_1
 62
7
100
AcDbSpline
 70
8
 71
3
 72
8
 73
4
 74
0
 40
0
 40
0
 40
0
 40
0
 40
1
 40
1
 40
1
 40
1
 10
78.308880
 20
76.086580
 30
0.0
 10
79.115637
 20
76.872110
 30
0.0
 10
79.539349
 20
77.889990
 30
0.0
 10
79.539349
 20
79.029940
 30
0.0
  0
LWPOLYLINE
  5
133
100
AcDbEntity
  8
Ebene_1
 62
7
100
AcDbPolyline
 90
2
 70
0
 10
60.857708
 20
74.893220
 30
0.0
 10
75.402630
 20
74.893220
 30
0.0
  0
LWPOLYLINE
  5
134
100
AcDbEntity
  8
Ebene_1
 62
7
100
AcDbPolyline
 90
3
 70
0
 10
79.539349
 20
79.029940
 30
0.0
 10
79.539349
 20
79.529940
 30
0.0
 10
56.722902
 20
79.530080
 30
0.0
  0
LWPOLYLINE
  5
135
100
AcDbEntity
  8
Ebene_1
 62
7
100
AcDbPolyline
 90
9
 70
1
 10
82.174074
 20
72.258590
 30
0.0
 10
82.174074
 20
60.348440
 30
0.0
 10
82.674074
 20
60.348440
 30
0.0
 10
86.810792
 20
60.348440
 30
0.0
 10
86.810792
 20
67.621880
 30
0.0
 10
100.355714
 20
67.621880
 30
0.0
 10
100.355714
 20
60.348440
 30
0.0
 10
104.992433
 20
60.348440
 30
0.0
 10
104.992433
 20
72.258590
 30
0.0
  0
SPLINE
  5
136
100
AcDbEntity
  8
Ebene_1
 62
7
100
AcDbSpline
 70
8
 71
3
 72
8
 73
4
 74
0
 40
0
 40
0
 40
0
 40
0
 40
1
 40
1
 40
1
 40
1
 10
82.174074
 20
79.030080
 30
0.0
 10
82.174074
 20
77.910010
 30
0.0
 10
82.585668
 20
76.899380
 30
0.0
 10
83.367433
 20
76.096480
 30
0.0
  0
LWPOLYLINE
  5
137
100
AcDbEntity
  8
Ebene_1
 62
7
100
AcDbPolyline
 90
2
 70
0
 10
82.174074
 20
79.530080
 30
0.0
 10
82.174074
 20
79.030080
 30
0.0
  0
SPLINE
  5
138
100
AcDbEntity
  8
Ebene_1
 62
7
100
AcDbSpline
 70
8
 71
3
 72
8
 73
4
 74
0
 40
0
 40
0
 40
0
 40
0
 40
1
 40
1
 40
1
 40
1
 10
83.373333
 20
76.090480
 30
0.0
 10
84.160044
 20
75.303770
 30
0.0
 10
85.173975
 20
74.893220
 30
0.0
 10
86.310833
 20
74.893220
 30
0.0
  0
LWPOLYLINE
  5
139
100
AcDbEntity
  8
Ebene_1
 62
7
100
AcDbPolyline
 90
3
 70
0
 10
83.367433
 20
76.096480
 30
0.0
 10
83.369433
 20
76.094480
 30
0.0
 10
83.373333
 20
76.090480
 30
0.0
  0
SPLINE
  5
13a
100
AcDbEntity
  8
Ebene_1
 62
7
100
AcDbSpline
 70
8
 71
3
 72
8
 73
4
 74
0
 40
0
 40
0
 40
0
 40
0
 40
1
 40
1
 40
1
 40
1
 10
100.855753
 20
74.893220
 30
0.0
 10
101.959133
 20
74.893220
 30
0.0
 10
102.960683
 20
75.306340
 30
0.0
 10
103.762003
 20
76.086580
 30
0.0
  0
SPLINE
  5
13b
100
AcDbEntity
  8
Ebene_1
 62
7
100
AcDbSpline
 70
8
 71
3
 72
8
 73
4
 74
0
 40
0
 40
0
 40
0
 40
0
 40
1
 40
1
 40
1
 40
1
 10
103.762003
 20
76.086580
 30
0.0
 10
104.568763
 20
76.872110
 30
0.0
 10
104.992473
 20
77.889990
 30
0.0
 10
104.992473
 20
79.029940
 30
0.0
  0
LWPOLYLINE
  5
13c
100
AcDbEntity
  8
Ebene_1
 62
7
100
AcDbPolyline
 90
2
 70
0
 10
86.310833
 20
74.893220
 30
0.0
 10
100.855753
 20
74.893220
 30
0.0
  0
LWPOLYLINE
  5
13d
100
AcDbEntity
  8
Ebene_1
 62
7
100
AcDbPolyline
 90
3
 70
0
 10
104.992473
 20
79.029940
 30
0.0
 10
104.992473
 20
79.529940
 30
0.0
 10
82.174074
 20
79.530080
 30
0.0
  0
SPLINE
  5
13e
100
AcDbEntity
  8
Ebene_1
 62
7
100
AcDbSpline
 70
8
 71
3
 72
8
 73
4
 74
0
 40
0
 40
0
 40
0
 40
0
 40
1
 40
1
 40
1
 40
1
 10
107.627203
 20
79.030080
 30
0.0
 10
107.627203
 20
77.910010
 30
0.0
 10
108.038803
 20
76.899380
 30
0.0
 10
108.820563
 20
76.096480
 30
0.0
  0
LWPOLYLINE
  5
13f
100
AcDbEntity
  8
Ebene_1
 62
7
100
AcDbPolyline
 90
2
 70
0
 10
107.627203
 20
79.530080
 30
0.0
 10
107.627203
 20
79.030080
 30
0.0
  0
SPLINE
  5
140
100
AcDbEntity
  8
Ebene_1
 62
7
100
AcDbSpline
 70
8
 71
3
 72
8
 73
4
 74
0
 40
0
 40
0
 40
0
 40
0
 40
1
 40
1
 40
1
 40
1
 10
108.824563
 20
76.090480
 30
0.0
 10
109.611273
 20
75.303770
 30
0.0
 10
110.627163
 20
74.893220
 30
0.0
 10
111.764013
 20
74.893220
 30
0.0
  0
LWPOLYLINE
  5
141
100
AcDbEntity
  8
Ebene_1
 62
7
100
AcDbPolyline
 90
3
 70
0
 10
108.820563
 20
76.096480
 30
0.0
 10
108.822563
 20
76.094480
 30
0.0
 10
108.824563
 20
76.090480
 30
0.0
  0
SPLINE
  5
142
100
AcDbEntity
  8
Ebene_1
 62
7
100
AcDbSpline
 70
8
 71
3
 72
8
 73
4
 74
0
 40
0
 40
0
 40
0
 40
0
 40
1
 40
1
 40
1
 40
1
 10
125.808943
 20
66.303380
 30
0.0
 10
125.808943
 20
65.912380
 30
0.0
 10
125.687893
 20
65.632140
 30
0.0
 10
125.416363
 20
65.358060
 30
0.0
  0
SPLINE
  5
143
100
AcDbEntity
  8
Ebene_1
 62
7
100
AcDbSpline
 70
8
 71
3
 72
8
 73
4
 74
0
 40
0
 40
0
 40
0
 40
0
 40
1
 40
1
 40
1
 40
1
 10
125.416363
 20
65.358060
 30
0.0
 10
125.141343
 20
65.099940
 30
0.0
 10
124.864603
 20
64.985020
 30
0.0
 10
124.490583
 20
64.985020
 30
0.0
  0
LWPOLYLINE
  5
144
100
AcDbEntity
  8
Ebene_1
 62
7
100
AcDbPolyline
 90
3
 70
0
 10
111.764013
 20
74.893220
 30
0.0
 10
125.808943
 20
74.893220
 30
0.0
 10
125.808943
 20
66.303380
 30
0.0
  0
SPLINE
  5
145
100
AcDbEntity
  8
Ebene_1
 62
7
100
AcDbSpline
 70
8
 71
3
 72
8
 73
4
 74
0
 40
0
 40
0
 40
0
 40
0
 40
1
 40
1
 40
1
 40
1
 10
126.308943
 20
60.348300
 30
0.0
 10
127.412313
 20
60.348300
 30
0.0
 10
128.411913
 20
60.761420
 30
0.0
 10
129.213233
 20
61.541660
 30
0.0
  0
SPLINE
  5
146
100
AcDbEntity
  8
Ebene_1
 62
7
100
AcDbSpline
 70
8
 71
3
 72
8
 73
4
 74
0
 40
0
 40
0
 40
0
 40
0
 40
1
 40
1
 40
1
 40
1
 10
129.213233
 20
61.541660
 30
0.0
 10
130.019993
 20
62.327180
 30
0.0
 10
130.445653
 20
63.345070
 30
0.0
 10
130.445663
 20
64.485020
 30
0.0
  0
LWPOLYLINE
  5
147
100
AcDbEntity
  8
Ebene_1
 62
7
100
AcDbPolyline
 90
7
 70
0
 10
124.490583
 20
64.985020
 30
0.0
 10
112.264013
 20
64.985020
 30
0.0
 10
112.264013
 20
72.258450
 30
0.0
 10
107.627303
 20
72.258450
 30
0.0
 10
107.627303
 20
60.348300
 30
0.0
 10
108.127303
 20
60.348300
 30
0.0
 10
126.308943
 20
60.348300
 30
0.0
  0
LWPOLYLINE
  5
148
100
AcDbEntity
  8
Ebene_1
 62
7
100
AcDbPolyline
 90
3
 70
0
 10
130.445663
 20
64.485020
 30
0.0
 10
130.445663
 20
79.529940
 30
0.0
 10
107.627203
 20
79.530080
 30
0.0
  0
LWPOLYLINE
  5
149
100
AcDbEntity
  8
Ebene_1
 62
7
100
AcDbPolyline
 90
5
 70
1
 10
133.080323
 20
79.530080
 30
0.0
 10
133.080323
 20
60.348440
 30
0.0
 10
133.580323
 20
60.348440
 30
0.0
 10
137.717043
 20
60.348440
 30
0.0
 10
137.717043
 20
79.530080
 30
0.0
  0
LWPOLYLINE
  5
14a
100
AcDbEntity
  8
Ebene_1
 62
7
100
AcDbPolyline
 90
12
 70
1
 10
139.646733
 20
79.530080
 30
0.0
 10
143.988523
 20
75.186330
 30
0.0
 10
143.988523
 20
60.348440
 30
0.0
 10
144.488523
 20
60.348440
 30
0.0
 10
148.625243
 20
60.348440
 30
0.0
 10
148.625243
 20
70.551560
 30
0.0
 10
158.826413
 20
60.348440
 30
0.0
 10
163.170163
 20
60.348440
 30
0.0
 10
163.170163
 20
79.530080
 30
0.0
 10
158.533453
 20
79.530080
 30
0.0
 10
158.533453
 20
67.510550
 30
0.0
 10
146.513913
 20
79.530080
 30
0.0
  0
SPLINE
  5
14b
100
AcDbEntity
  8
Ebene_1
 62
7
100
AcDbSpline
 70
8
 71
3
 72
8
 73
4
 74
0
 40
0
 40
0
 40
0
 40
0
 40
1
 40
1
 40
1
 40
1
 10
165.804933
 20
64.485160
 30
0.0
 10
165.804933
 20
63.365080
 30
0.0
 10
166.216523
 20
62.354460
 30
0.0
 10
166.998293
 20
61.551560
 30
0.0
  0
LWPOLYLINE
  5
14c
100
AcDbEntity
  8
Ebene_1
 62
7
100
AcDbPolyline
 90
2
 70
0
 10
165.804933
 20
72.258590
 30
0.0
 10
165.804933
 20
64.485160
 30
0.0
  0
SPLINE
  5
14d
100
AcDbEntity
  8
Ebene_1
 62
7
100
AcDbSpline
 70
8
 71
3
 72
8
 73
4
 74
0
 40
0
 40
0
 40
0
 40
0
 40
1
 40
1
 40
1
 40
1
 10
167.004293
 20
61.547560
 30
0.0
 10
167.791003
 20
60.760840
 30
0.0
 10
168.804933
 20
60.348340
 30
0.0
 10
169.941793
 20
60.348340
 30
0.0
  0
LWPOLYLINE
  5
14e
100
AcDbEntity
  8
Ebene_1
 62
7
100
AcDbPolyline
 90
3
 70
0
 10
166.998293
 20
61.551560
 30
0.0
 10
167.000293
 20
61.549560
 30
0.0
 10
167.004293
 20
61.547560
 30
0.0
  0
SPLINE
  5
14f
100
AcDbEntity
  8
Ebene_1
 62
7
100
AcDbSpline
 70
8
 71
3
 72
8
 73
4
 74
0
 40
0
 40
0
 40
0
 40
0
 40
1
 40
1
 40
1
 40
1
 10
173.078513
 20
71.758490
 30
0.0
 10
173.078513
 20
70.638420
 30
0.0
 10
173.490103
 20
69.625840
 30
0.0
 10
174.271873
 20
68.822950
 30
0.0
  0
LWPOLYLINE
  5
150
100
AcDbEntity
  8
Ebene_1
 62
7
100
AcDbPolyline
 90
5
 70
0
 10
169.941793
 20
60.348340
 30
0.0
 10
188.623433
 20
60.348340
 30
0.0
 10
188.623433
 20
72.258490
 30
0.0
 10
173.078513
 20
72.258490
 30
0.0
 10
173.078513
 20
71.758490
 30
0.0
  0
SPLINE
  5
151
100
AcDbEntity
  8
Ebene_1
 62
7
100
AcDbSpline
 70
8
 71
3
 72
8
 73
4
 74
0
 40
0
 40
0
 40
0
 40
0
 40
1
 40
1
 40
1
 40
1
 10
174.275873
 20
68.818950
 30
0.0
 10
175.062583
 20
68.032240
 30
0.0
 10
176.078473
 20
67.621690
 30
0.0
 10
177.215333
 20
67.621690
 30
0.0
  0
LWPOLYLINE
  5
152
100
AcDbEntity
  8
Ebene_1
 62
7
100
AcDbPolyline
 90
3
 70
0
 10
174.271873
 20
68.822950
 30
0.0
 10
174.273873
 20
68.820950
 30
0.0
 10
174.275873
 20
68.818950
 30
0.0
  0
SPLINE
  5
153
100
AcDbEntity
  8
Ebene_1
 62
7
100
AcDbSpline
 70
8
 71
3
 72
8
 73
4
 74
0
 40
0
 40
0
 40
0
 40
0
 40
1
 40
1
 40
1
 40
1
 10
171.760253
 20
64.984970
 30
0.0
 10
171.365783
 20
64.984970
 30
0.0
 10
171.081513
 20
65.102380
 30
0.0
 10
170.811033
 20
65.354110
 30
0.0
  0
SPLINE
  5
154
100
AcDbEntity
  8
Ebene_1
 62
7
100
AcDbSpline
 70
8
 71
3
 72
8
 73
4
 74
0
 40
0
 40
0
 40
0
 40
0
 40
1
 40
1
 40
1
 40
1
 10
170.811033
 20
65.354110
 30
0.0
 10
170.559303
 20
65.624590
 30
0.0
 10
170.441893
 20
65.908870
 30
0.0
 10
170.441893
 20
66.303330
 30
0.0
  0
LWPOLYLINE
  5
155
100
AcDbEntity
  8
Ebene_1
 62
7
100
AcDbPolyline
 90
4
 70
0
 10
177.215333
 20
67.621690
 30
0.0
 10
183.986813
 20
67.621690
 30
0.0
 10
183.986813
 20
64.984970
 30
0.0
 10
171.760253
 20
64.984970
 30
0.0
  0
LWPOLYLINE
  5
156
100
AcDbEntity
  8
Ebene_1
 62
7
100
AcDbPolyline
 90
3
 70
0
 10
170.441893
 20
66.303330
 30
0.0
 10
170.441893
 20
72.258400
 30
0.0
 10
165.804933
 20
72.258590
 30
0.0
  0
SPLINE
  5
157
100
AcDbEntity
  8
Ebene_1
 62
7
100
AcDbSpline
 70
8
 71
3
 72
8
 73
4
 74
0
 40
0
 40
0
 40
0
 40
0
 40
1
 40
1
 40
1
 40
1
 10
184.486573
 20
74.893360
 30
0.0
 10
185.589953
 20
74.893360
 30
0.0
 10
186.591493
 20
75.306480
 30
0.0
 10
187.392823
 20
76.086720
 30
0.0
  0
SPLINE
  5
158
100
AcDbEntity
  8
Ebene_1
 62
7
100
AcDbSpline
 70
8
 71
3
 72
8
 73
4
 74
0
 40
0
 40
0
 40
0
 40
0
 40
1
 40
1
 40
1
 40
1
 10
187.392823
 20
76.086720
 30
0.0
 10
188.199573
 20
76.872250
 30
0.0
 10
188.623293
 20
77.890130
 30
0.0
 10
188.623293
 20
79.030080
 30
0.0
  0
LWPOLYLINE
  5
159
100
AcDbEntity
  8
Ebene_1
 62
7
100
AcDbPolyline
 90
4
 70
0
 10
165.804933
 20
79.530080
 30
0.0
 10
165.804933
 20
74.893360
 30
0.0
 10
166.304933
 20
74.893360
 30
0.0
 10
184.486573
 20
74.893360
 30
0.0
  0
LWPOLYLINE
  5
15a
100
AcDbEntity
  8
Ebene_1
 62
7
100
AcDbPolyline
 90
3
 70
0
 10
188.623293
 20
79.030080
 30
0.0
 10
188.623293
 20
79.530080
 30
0.0
 10
165.804933
 20
79.530080
 30
0.0
  0
SPLINE
  5
15b
100
AcDbEntity
  8
Ebene_1
 62
7
100
AcDbSpline
 70
8
 71
3
 72
8
 73
4
 74
0
 40
0
 40
0
 40
0
 40
0
 40
1
 40
1
 40
1
 40
1
 10
75.402589
 20
38.532030
 30
0.0
 10
76.505963
 20
38.532030
 30
0.0
 10
77.507516
 20
38.945150
 30
0.0
 10
78.308839
 20
39.725390
 30
0.0
  0
SPLINE
  5
15c
100
AcDbEntity
  8
Ebene_1
 62
7
100
AcDbSpline
 70
8
 71
3
 72
8
 73
4
 74
0
 40
0
 40
0
 40
0
 40
0
 40
1
 40
1
 40
1
 40
1
 10
78.308839
 20
39.725390
 30
0.0
 10
78.410121
 20
39.823990
 30
0.0
 10
78.450175
 20
39.955610
 30
0.0
 10
78.539308
 20
40.061330
 30
0.0
  0
LWPOLYLINE
  5
15d
100
AcDbEntity
  8
Ebene_1
 62
7
100
AcDbPolyline
 90
6
 70
0
 10
60.357667
 20
50.440230
 30
0.0
 10
60.357667
 20
31.260550
 30
0.0
 10
60.857667
 20
31.260550
 30
0.0
 10
64.994386
 20
31.260550
 30
0.0
 10
64.994386
 20
38.532030
 30
0.0
 10
75.402589
 20
38.532030
 30
0.0
  0
LWPOLYLINE
  5
15e
100
AcDbEntity
  8
Ebene_1
 62
7
100
AcDbPolyline
 90
10
 70
0
 10
78.539308
 20
40.061330
 30
0.0
 10
78.539308
 20
31.260550
 30
0.0
 10
79.039308
 20
31.260550
 30
0.0
 10
83.174074
 20
31.260550
 30
0.0
 10
83.174074
 20
50.440230
 30
0.0
 10
78.539308
 20
50.440230
 30
0.0
 10
78.539308
 20
43.168750
 30
0.0
 10
64.994386
 20
43.168750
 30
0.0
 10
64.994386
 20
50.440230
 30
0.0
 10
60.357667
 20
50.440230
 30
0.0
  0
SPLINE
  5
15f
100
AcDbEntity
  8
Ebene_1
 62
7
100
AcDbSpline
 70
8
 71
3
 72
8
 73
4
 74
0
 40
0
 40
0
 40
0
 40
0
 40
1
 40
1
 40
1
 40
1
 10
85.810792
 20
35.397270
 30
0.0
 10
85.810792
 20
34.277190
 30
0.0
 10
86.222386
 20
33.264610
 30
0.0
 10
87.004152
 20
32.461720
 30
0.0
  0
LWPOLYLINE
  5
160
100
AcDbEntity
  8
Ebene_1
 62
7
100
AcDbPolyline
 90
2
 70
0
 10
85.810792
 20
35.897270
 30
0.0
 10
85.810792
 20
35.397270
 30
0.0
  0
SPLINE
  5
161
100
AcDbEntity
  8
Ebene_1
 62
7
100
AcDbSpline
 70
8
 71
3
 72
8
 73
4
 74
0
 40
0
 40
0
 40
0
 40
0
 40
1
 40
1
 40
1
 40
1
 10
87.008152
 20
32.457720
 30
0.0
 10
87.794863
 20
31.671010
 30
0.0
 10
88.810747
 20
31.260460
 30
0.0
 10
89.947605
 20
31.260460
 30
0.0
  0
LWPOLYLINE
  5
162
100
AcDbEntity
  8
Ebene_1
 62
7
100
AcDbPolyline
 90
3
 70
0
 10
87.004152
 20
32.461720
 30
0.0
 10
87.006152
 20
32.459720
 30
0.0
 10
87.008152
 20
32.457720
 30
0.0
  0
SPLINE
  5
163
100
AcDbEntity
  8
Ebene_1
 62
7
100
AcDbSpline
 70
8
 71
3
 72
8
 73
4
 74
0
 40
0
 40
0
 40
0
 40
0
 40
1
 40
1
 40
1
 40
1
 10
104.492523
 20
31.260460
 30
0.0
 10
105.595903
 20
31.260460
 30
0.0
 10
106.595503
 20
31.673580
 30
0.0
 10
107.396823
 20
32.453820
 30
0.0
  0
SPLINE
  5
164
100
AcDbEntity
  8
Ebene_1
 62
7
100
AcDbSpline
 70
8
 71
3
 72
8
 73
4
 74
0
 40
0
 40
0
 40
0
 40
0
 40
1
 40
1
 40
1
 40
1
 10
107.396823
 20
32.453820
 30
0.0
 10
108.203573
 20
33.239340
 30
0.0
 10
108.627293
 20
34.257230
 30
0.0
 10
108.627293
 20
35.397180
 30
0.0
  0
LWPOLYLINE
  5
165
100
AcDbEntity
  8
Ebene_1
 62
7
100
AcDbPolyline
 90
2
 70
0
 10
89.947605
 20
31.260460
 30
0.0
 10
104.492523
 20
31.260460
 30
0.0
  0
LWPOLYLINE
  5
166
100
AcDbEntity
  8
Ebene_1
 62
7
100
AcDbPolyline
 90
3
 70
0
 10
108.627293
 20
35.397180
 30
0.0
 10
108.627293
 20
35.897180
 30
0.0
 10
85.810792
 20
35.897270
 30
0.0
  0
SPLINE
  5
167
100
AcDbEntity
  8
Ebene_1
 62
7
100
AcDbSpline
 70
8
 71
3
 72
8
 73
4
 74
0
 40
0
 40
0
 40
0
 40
0
 40
1
 40
1
 40
1
 40
1
 10
85.810792
 20
42.668750
 30
0.0
 10
85.810792
 20
41.548670
 30
0.0
 10
86.222386
 20
40.538050
 30
0.0
 10
87.004152
 20
39.735160
 30
0.0
  0
LWPOLYLINE
  5
168
100
AcDbEntity
  8
Ebene_1
 62
7
100
AcDbPolyline
 90
2
 70
0
 10
85.810792
 20
43.168750
 30
0.0
 10
85.810792
 20
42.668750
 30
0.0
  0
SPLINE
  5
169
100
AcDbEntity
  8
Ebene_1
 62
7
100
AcDbSpline
 70
8
 71
3
 72
8
 73
4
 74
0
 40
0
 40
0
 40
0
 40
0
 40
1
 40
1
 40
1
 40
1
 10
87.008152
 20
39.729160
 30
0.0
 10
87.794863
 20
38.942440
 30
0.0
 10
88.810747
 20
38.531890
 30
0.0
 10
89.947605
 20
38.531890
 30
0.0
  0
LWPOLYLINE
  5
16a
100
AcDbEntity
  8
Ebene_1
 62
7
100
AcDbPolyline
 90
3
 70
0
 10
87.004152
 20
39.735160
 30
0.0
 10
87.006152
 20
39.733160
 30
0.0
 10
87.008152
 20
39.729160
 30
0.0
  0
SPLINE
  5
16b
100
AcDbEntity
  8
Ebene_1
 62
7
100
AcDbSpline
 70
8
 71
3
 72
8
 73
4
 74
0
 40
0
 40
0
 40
0
 40
0
 40
1
 40
1
 40
1
 40
1
 10
104.492523
 20
38.531890
 30
0.0
 10
105.595903
 20
38.531890
 30
0.0
 10
106.595503
 20
38.945010
 30
0.0
 10
107.396823
 20
39.725250
 30
0.0
  0
SPLINE
  5
16c
100
AcDbEntity
  8
Ebene_1
 62
7
100
AcDbSpline
 70
8
 71
3
 72
8
 73
4
 74
0
 40
0
 40
0
 40
0
 40
0
 40
1
 40
1
 40
1
 40
1
 10
107.396823
 20
39.725250
 30
0.0
 10
108.203573
 20
40.510780
 30
0.0
 10
108.627293
 20
41.528670
 30
0.0
 10
108.627293
 20
42.668610
 30
0.0
  0
LWPOLYLINE
  5
16d
100
AcDbEntity
  8
Ebene_1
 62
7
100
AcDbPolyline
 90
2
 70
0
 10
89.947605
 20
38.531890
 30
0.0
 10
104.492523
 20
38.531890
 30
0.0
  0
LWPOLYLINE
  5
16e
100
AcDbEntity
  8
Ebene_1
 62
7
100
AcDbPolyline
 90
3
 70
0
 10
108.627293
 20
42.668610
 30
0.0
 10
108.627293
 20
43.168610
 30
0.0
 10
85.810792
 20
43.168750
 30
0.0
  0
SPLINE
  5
16f
100
AcDbEntity
  8
Ebene_1
 62
7
100
AcDbSpline
 70
8
 71
3
 72
8
 73
4
 74
0
 40
0
 40
0
 40
0
 40
0
 40
1
 40
1
 40
1
 40
1
 10
85.810792
 20
49.940230
 30
0.0
 10
85.810792
 20
48.820160
 30
0.0
 10
86.222386
 20
47.809530
 30
0.0
 10
87.004152
 20
47.006640
 30
0.0
  0
LWPOLYLINE
  5
170
100
AcDbEntity
  8
Ebene_1
 62
7
100
AcDbPolyline
 90
2
 70
0
 10
85.810792
 20
50.440230
 30
0.0
 10
85.810792
 20
49.940230
 30
0.0
  0
SPLINE
  5
171
100
AcDbEntity
  8
Ebene_1
 62
7
100
AcDbSpline
 70
8
 71
3
 72
8
 73
4
 74
0
 40
0
 40
0
 40
0
 40
0
 40
1
 40
1
 40
1
 40
1
 10
87.008152
 20
47.002640
 30
0.0
 10
87.794863
 20
46.215930
 30
0.0
 10
88.810747
 20
45.805380
 30
0.0
 10
89.947605
 20
45.805380
 30
0.0
  0
LWPOLYLINE
  5
172
100
AcDbEntity
  8
Ebene_1
 62
7
100
AcDbPolyline
 90
3
 70
0
 10
87.004152
 20
47.006640
 30
0.0
 10
87.006152
 20
47.004640
 30
0.0
 10
87.008152
 20
47.002640
 30
0.0
  0
SPLINE
  5
173
100
AcDbEntity
  8
Ebene_1
 62
7
100
AcDbSpline
 70
8
 71
3
 72
8
 73
4
 74
0
 40
0
 40
0
 40
0
 40
0
 40
1
 40
1
 40
1
 40
1
 10
104.492523
 20
45.805380
 30
0.0
 10
105.595903
 20
45.805380
 30
0.0
 10
106.595503
 20
46.216550
 30
0.0
 10
107.396823
 20
46.996790
 30
0.0
  0
SPLINE
  5
174
100
AcDbEntity
  8
Ebene_1
 62
7
100
AcDbSpline
 70
8
 71
3
 72
8
 73
4
 74
0
 40
0
 40
0
 40
0
 40
0
 40
1
 40
1
 40
1
 40
1
 10
107.396823
 20
46.996790
 30
0.0
 10
108.203573
 20
47.782310
 30
0.0
 10
108.627293
 20
48.800200
 30
0.0
 10
108.627293
 20
49.940140
 30
0.0
  0
LWPOLYLINE
  5
175
100
AcDbEntity
  8
Ebene_1
 62
7
100
AcDbPolyline
 90
2
 70
0
 10
89.947605
 20
45.805380
 30
0.0
 10
104.492523
 20
45.805380
 30
0.0
  0
LWPOLYLINE
  5
176
100
AcDbEntity
  8
Ebene_1
 62
7
100
AcDbPolyline
 90
3
 70
0
 10
108.627293
 20
49.940140
 30
0.0
 10
108.627293
 20
50.440140
 30
0.0
 10
85.810792
 20
50.440230
 30
0.0
  0
SPLINE
  5
177
100
AcDbEntity
  8
Ebene_1
 62
7
100
AcDbSpline
 70
8
 71
3
 72
8
 73
4
 74
0
 40
0
 40
0
 40
0
 40
0
 40
1
 40
1
 40
1
 40
1
 10
111.263913
 20
49.940230
 30
0.0
 10
111.263913
 20
48.820160
 30
0.0
 10
111.675513
 20
47.809530
 30
0.0
 10
112.457273
 20
47.006640
 30
0.0
  0
LWPOLYLINE
  5
178
100
AcDbEntity
  8
Ebene_1
 62
7
100
AcDbPolyline
 90
2
 70
0
 10
111.263913
 20
50.440230
 30
0.0
 10
111.263913
 20
49.940230
 30
0.0
  0
SPLINE
  5
179
100
AcDbEntity
  8
Ebene_1
 62
7
100
AcDbSpline
 70
8
 71
3
 72
8
 73
4
 74
0
 40
0
 40
0
 40
0
 40
0
 40
1
 40
1
 40
1
 40
1
 10
112.461273
 20
47.002640
 30
0.0
 10
113.247983
 20
46.215930
 30
0.0
 10
114.263873
 20
45.805380
 30
0.0
 10
115.400723
 20
45.805380
 30
0.0
  0
LWPOLYLINE
  5
17a
100
AcDbEntity
  8
Ebene_1
 62
7
100
AcDbPolyline
 90
3
 70
0
 10
112.457273
 20
47.006640
 30
0.0
 10
112.459273
 20
47.004640
 30
0.0
 10
112.461273
 20
47.002640
 30
0.0
  0
SPLINE
  5
17b
100
AcDbEntity
  8
Ebene_1
 62
7
100
AcDbSpline
 70
8
 71
3
 72
8
 73
4
 74
0
 40
0
 40
0
 40
0
 40
0
 40
1
 40
1
 40
1
 40
1
 10
129.445653
 20
44.487020
 30
0.0
 10
129.445653
 20
44.096010
 30
0.0
 10
129.324583
 20
43.815770
 30
0.0
 10
129.053073
 20
43.541710
 30
0.0
  0
SPLINE
  5
17c
100
AcDbEntity
  8
Ebene_1
 62
7
100
AcDbSpline
 70
8
 71
3
 72
8
 73
4
 74
0
 40
0
 40
0
 40
0
 40
0
 40
1
 40
1
 40
1
 40
1
 10
129.053073
 20
43.541710
 30
0.0
 10
128.778053
 20
43.283590
 30
0.0
 10
128.501313
 20
43.168660
 30
0.0
 10
128.127293
 20
43.168660
 30
0.0
  0
LWPOLYLINE
  5
17d
100
AcDbEntity
  8
Ebene_1
 62
7
100
AcDbPolyline
 90
3
 70
0
 10
115.400723
 20
45.805380
 30
0.0
 10
129.445653
 20
45.805380
 30
0.0
 10
129.445653
 20
44.487020
 30
0.0
  0
SPLINE
  5
17e
100
AcDbEntity
  8
Ebene_1
 62
7
100
AcDbSpline
 70
8
 71
3
 72
8
 73
4
 74
0
 40
0
 40
0
 40
0
 40
0
 40
1
 40
1
 40
1
 40
1
 10
129.945653
 20
38.531940
 30
0.0
 10
131.049023
 20
38.531940
 30
0.0
 10
132.048613
 20
38.945060
 30
0.0
 10
132.849943
 20
39.725300
 30
0.0
  0
SPLINE
  5
17f
100
AcDbEntity
  8
Ebene_1
 62
7
100
AcDbSpline
 70
8
 71
3
 72
8
 73
4
 74
0
 40
0
 40
0
 40
0
 40
0
 40
1
 40
1
 40
1
 40
1
 10
132.849943
 20
39.725300
 30
0.0
 10
133.656703
 20
40.510830
 30
0.0
 10
134.080413
 20
41.528720
 30
0.0
 10
134.080413
 20
42.668660
 30
0.0
  0
LWPOLYLINE
  5
180
100
AcDbEntity
  8
Ebene_1
 62
7
100
AcDbPolyline
 90
11
 70
0
 10
128.127293
 20
43.168660
 30
0.0
 10
111.264003
 20
43.168660
 30
0.0
 10
111.264003
 20
31.260460
 30
0.0
 10
111.764003
 20
31.260460
 30
0.0
 10
115.900723
 20
31.260460
 30
0.0
 10
115.900723
 20
38.531940
 30
0.0
 10
120.646823
 20
38.531940
 30
0.0
 10
127.920253
 20
31.260460
 30
0.0
 10
134.787443
 20
31.260460
 30
0.0
 10
127.515963
 20
38.531940
 30
0.0
 10
129.945653
 20
38.531940
 30
0.0
  0
LWPOLYLINE
  5
181
100
AcDbEntity
  8
Ebene_1
 62
7
100
AcDbPolyline
 90
3
 70
0
 10
134.080413
 20
42.668660
 30
0.0
 10
134.080413
 20
50.440140
 30
0.0
 10
111.263913
 20
50.440230
 30
0.0
  0
SPLINE
  5
182
100
AcDbEntity
  8
Ebene_1
 62
7
100
AcDbSpline
 70
8
 71
3
 72
8
 73
4
 74
0
 40
0
 40
0
 40
0
 40
0
 40
1
 40
1
 40
1
 40
1
 10
136.717043
 20
35.397270
 30
0.0
 10
136.717043
 20
34.277190
 30
0.0
 10
137.128643
 20
33.264610
 30
0.0
 10
137.910403
 20
32.461720
 30
0.0
  0
LWPOLYLINE
  5
183
100
AcDbEntity
  8
Ebene_1
 62
7
100
AcDbPolyline
 90
2
 70
0
 10
136.717043
 20
35.897270
 30
0.0
 10
136.717043
 20
35.397270
 30
0.0
  0
SPLINE
  5
184
100
AcDbEntity
  8
Ebene_1
 62
7
100
AcDbSpline
 70
8
 71
3
 72
8
 73
4
 74
0
 40
0
 40
0
 40
0
 40
0
 40
1
 40
1
 40
1
 40
1
 10
137.914403
 20
32.457720
 30
0.0
 10
138.701123
 20
31.671010
 30
0.0
 10
139.717003
 20
31.260460
 30
0.0
 10
140.853863
 20
31.260460
 30
0.0
  0
LWPOLYLINE
  5
185
100
AcDbEntity
  8
Ebene_1
 62
7
100
AcDbPolyline
 90
3
 70
0
 10
137.910403
 20
32.461720
 30
0.0
 10
137.912403
 20
32.459720
 30
0.0
 10
137.914403
 20
32.457720
 30
0.0
  0
SPLINE
  5
186
100
AcDbEntity
  8
Ebene_1
 62
7
100
AcDbSpline
 70
8
 71
3
 72
8
 73
4
 74
0
 40
0
 40
0
 40
0
 40
0
 40
1
 40
1
 40
1
 40
1
 10
155.396833
 20
31.260460
 30
0.0
 10
156.500203
 20
31.260460
 30
0.0
 10
157.501763
 20
31.673580
 30
0.0
 10
158.303083
 20
32.453820
 30
0.0
  0
SPLINE
  5
187
100
AcDbEntity
  8
Ebene_1
 62
7
100
AcDbSpline
 70
8
 71
3
 72
8
 73
4
 74
0
 40
0
 40
0
 40
0
 40
0
 40
1
 40
1
 40
1
 40
1
 10
158.303083
 20
32.453820
 30
0.0
 10
159.109843
 20
33.239340
 30
0.0
 10
159.533553
 20
34.257230
 30
0.0
 10
159.533553
 20
35.397180
 30
0.0
  0
LWPOLYLINE
  5
188
100
AcDbEntity
  8
Ebene_1
 62
7
100
AcDbPolyline
 90
2
 70
0
 10
140.853863
 20
31.260460
 30
0.0
 10
155.396833
 20
31.260460
 30
0.0
  0
LWPOLYLINE
  5
189
100
AcDbEntity
  8
Ebene_1
 62
7
100
AcDbPolyline
 90
3
 70
0
 10
159.533553
 20
35.397180
 30
0.0
 10
159.533553
 20
35.897180
 30
0.0
 10
136.717043
 20
35.897270
 30
0.0
  0
SPLINE
  5
18a
100
AcDbEntity
  8
Ebene_1
 62
7
100
AcDbSpline
 70
8
 71
3
 72
8
 73
4
 74
0
 40
0
 40
0
 40
0
 40
0
 40
1
 40
1
 40
1
 40
1
 10
136.717043
 20
42.668750
 30
0.0
 10
136.717043
 20
41.548670
 30
0.0
 10
137.128643
 20
40.538050
 30
0.0
 10
137.910403
 20
39.735160
 30
0.0
  0
LWPOLYLINE
  5
18b
100
AcDbEntity
  8
Ebene_1
 62
7
100
AcDbPolyline
 90
2
 70
0
 10
136.717043
 20
43.168750
 30
0.0
 10
136.717043
 20
42.668750
 30
0.0
  0
SPLINE
  5
18c
100
AcDbEntity
  8
Ebene_1
 62
7
100
AcDbSpline
 70
8
 71
3
 72
8
 73
4
 74
0
 40
0
 40
0
 40
0
 40
0
 40
1
 40
1
 40
1
 40
1
 10
137.914403
 20
39.729160
 30
0.0
 10
138.701123
 20
38.942440
 30
0.0
 10
139.717003
 20
38.531890
 30
0.0
 10
140.853863
 20
38.531890
 30
0.0
  0
LWPOLYLINE
  5
18d
100
AcDbEntity
  8
Ebene_1
 62
7
100
AcDbPolyline
 90
3
 70
0
 10
137.910403
 20
39.735160
 30
0.0
 10
137.912403
 20
39.733160
 30
0.0
 10
137.914403
 20
39.729160
 30
0.0
  0
SPLINE
  5
18e
100
AcDbEntity
  8
Ebene_1
 62
7
100
AcDbSpline
 70
8
 71
3
 72
8
 73
4
 74
0
 40
0
 40
0
 40
0
 40
0
 40
1
 40
1
 40
1
 40
1
 10
155.396833
 20
38.531890
 30
0.0
 10
156.500203
 20
38.531890
 30
0.0
 10
157.501763
 20
38.945010
 30
0.0
 10
158.303083
 20
39.725250
 30
0.0
  0
SPLINE
  5
18f
100
AcDbEntity
  8
Ebene_1
 62
7
100
AcDbSpline
 70
8
 71
3
 72
8
 73
4
 74
0
 40
0
 40
0
 40
0
 40
0
 40
1
 40
1
 40
1
 40
1
 10
158.303083
 20
39.725250
 30
0.0
 10
159.109843
 20
40.510780
 30
0.0
 10
159.533553
 20
41.528670
 30
0.0
 10
159.533553
 20
42.668610
 30
0.0
  0
LWPOLYLINE
  5
190
100
AcDbEntity
  8
Ebene_1
 62
7
100
AcDbPolyline
 90
2
 70
0
 10
140.853863
 20
38.531890
 30
0.0
 10
155.396833
 20
38.531890
 30
0.0
  0
LWPOLYLINE
  5
191
100
AcDbEntity
  8
Ebene_1
 62
7
100
AcDbPolyline
 90
3
 70
0
 10
159.533553
 20
42.668610
 30
0.0
 10
159.533553
 20
43.168610
 30
0.0
 10
136.717043
 20
43.168750
 30
0.0
  0
SPLINE
  5
192
100
AcDbEntity
  8
Ebene_1
 62
7
100
AcDbSpline
 70
8
 71
3
 72
8
 73
4
 74
0
 40
0
 40
0
 40
0
 40
0
 40
1
 40
1
 40
1
 40
1
 10
136.717043
 20
49.940230
 30
0.0
 10
136.717043
 20
48.820160
 30
0.0
 10
137.128643
 20
47.809530
 30
0.0
 10
137.910403
 20
47.006640
 30
0.0
  0
LWPOLYLINE
  5
193
100
AcDbEntity
  8
Ebene_1
 62
7
100
AcDbPolyline
 90
2
 70
0
 10
136.717043
 20
50.440230
 30
0.0
 10
136.717043
 20
49.940230
 30
0.0
  0
SPLINE
  5
194
100
AcDbEntity
  8
Ebene_1
 62
7
100
AcDbSpline
 70
8
 71
3
 72
8
 73
4
 74
0
 40
0
 40
0
 40
0
 40
0
 40
1
 40
1
 40
1
 40
1
 10
137.914403
 20
47.002640
 30
0.0
 10
138.701123
 20
46.215930
 30
0.0
 10
139.717003
 20
45.805380
 30
0.0
 10
140.853863
 20
45.805380
 30
0.0
  0
LWPOLYLINE
  5
195
100
AcDbEntity
  8
Ebene_1
 62
7
100
AcDbPolyline
 90
3
 70
0
 10
137.910403
 20
47.006640
 30
0.0
 10
137.912403
 20
47.004640
 30
0.0
 10
137.914403
 20
47.002640
 30
0.0
  0
SPLINE
  5
196
100
AcDbEntity
  8
Ebene_1
 62
7
100
AcDbSpline
 70
8
 71
3
 72
8
 73
4
 74
0
 40
0
 40
0
 40
0
 40
0
 40
1
 40
1
 40
1
 40
1
 10
155.396833
 20
45.805380
 30
0.0
 10
156.500203
 20
45.805380
 30
0.0
 10
157.501763
 20
46.216550
 30
0.0
 10
158.303083
 20
46.996790
 30
0.0
  0
SPLINE
  5
197
100
AcDbEntity
  8
Ebene_1
 62
7
100
AcDbSpline
 70
8
 71
3
 72
8
 73
4
 74
0
 40
0
 40
0
 40
0
 40
0
 40
1
 40
1
 40
1
 40
1
 10
158.303083
 20
46.996790
 30
0.0
 10
159.109843
 20
47.782310
 30
0.0
 10
159.533553
 20
48.800200
 30
0.0
 10
159.533553
 20
49.940140
 30
0.0
  0
LWPOLYLINE
  5
198
100
AcDbEntity
  8
Ebene_1
 62
7
100
AcDbPolyline
 90
2
 70
0
 10
140.853863
 20
45.805380
 30
0.0
 10
155.396833
 20
45.805380
 30
0.0
  0
LWPOLYLINE
  5
199
100
AcDbEntity
  8
Ebene_1
 62
7
100
AcDbPolyline
 90
3
 70
0
 10
159.533553
 20
49.940140
 30
0.0
 10
159.533553
 20
50.440140
 30
0.0
 10
136.717043
 20
50.440230
 30
0.0
  0
SPLINE
  5
19a
100
AcDbEntity
  8
Ebene_1
 62
7
100
AcDbSpline
 70
8
 71
3
 72
8
 73
4
 74
0
 40
0
 40
0
 40
0
 40
0
 40
1
 40
1
 40
1
 40
1
 10
46.823185
 20
289.997689
 30
0.0
 10
27.502853
 20
289.997689
 30
0.0
 10
11.841320
 20
274.357290
 30
0.0
 10
11.841320
 20
255.063046
 30
0.0
  0
LWPOLYLINE
  5
19b
100
AcDbEntity
  8
Ebene_1
 62
7
100
AcDbPolyline
 90
4
 70
1
 10
0.000000
 20
300.000000
 30
0.0
 10
219.893210
 20
300.000000
 30
0.0
 10
219.893210
 20
0.000000
 30
0.0
 10
0.000000
 20
0.000000
 30
0.0
  0
SPLINE
  5
19c
100
AcDbEntity
  8
Ebene_1
 62
7
100
AcDbSpline
 70
8
 71
3
 72
8
 73
4
 74
0
 40
0
 40
0
 40
0
 40
0
 40
1
 40
1
 40
1
 40
1
 10
11.841320
 20
44.936960
 30
0.0
 10
11.841320
 20
25.642700
 30
0.0
 10
27.502854
 20
10.002310
 30
0.0
 10
46.823185
 20
10.002310
 30
0.0
  0
LWPOLYLINE
  5
19d
100
AcDbEntity
  8
Ebene_1
 62
7
100
AcDbPolyline
 90
2
 70
0
 10
11.841320
 20
255.063046
 30
0.0
 10
11.841320
 20
44.936960
 30
0.0
  0
SPLINE
  5
19e
100
AcDbEntity
  8
Ebene_1
 62
7
100
AcDbSpline
 70
8
 71
3
 72
8
 73
4
 74
0
 40
0
 40
0
 40
0
 40
0
 40
1
 40
1
 40
1
 40
1
 10
173.070020
 20
10.002310
 30
0.0
 10
192.390360
 20
10.002310
 30
0.0
 10
208.051890
 20
25.642700
 30
0.0
 10
208.051890
 20
44.936960
 30
0.0
  0
LWPOLYLINE
  5
19f
100
AcDbEntity
  8
Ebene_1
 62
7
100
AcDbPolyline
 90
2
 70
0
 10
46.823185
 20
10.002310
 30
0.0
 10
173.070020
 20
10.002310
 30
0.0
  0
SPLINE
  5
1a0
100
AcDbEntity
  8
Ebene_1
 62
7
100
AcDbSpline
 70
8
 71
3
 72
8
 73
4
 74
0
 40
0
 40
0
 40
0
 40
0
 40
1
 40
1
 40
1
 40
1
 10
208.051890
 20
255.063046
 30
0.0
 10
208.051890
 20
274.357290
 30
0.0
 10
192.390360
 20
289.997689
 30
0.0
 10
173.070020
 20
289.997689
 30
0.0
  0
LWPOLYLINE
  5
1a1
100
AcDbEntity
  8
Ebene_1
 62
7
100
AcDbPolyline
 90
2
 70
0
 10
208.051890
 20
44.936960
 30
0.0
 10
208.051890
 20
255.063046
 30
0.0
  0
LWPOLYLINE
  5
1a2
100
AcDbEntity
  8
Ebene_1
 62
7
100
AcDbPolyline
 90
2
 70
0
 10
173.070020
 20
289.997689
 30
0.0
 10
46.823185
 20
289.997689
 30
0.0
  0
SPLINE
  5
1a3
100
AcDbEntity
  8
Ebene_1
 62
7
100
AcDbSpline
 70
8
 71
3
 72
8
 73
4
 74
0
 40
0
 40
0
 40
0
 40
0
 40
1
 40
1
 40
1
 40
1
 10
173.070020
 20
283.168526
 30
0.0
 10
188.720170
 20
283.168526
 30
0.0
 10
201.213500
 20
270.692055
 30
0.0
 10
201.213500
 20
255.063046
 30
0.0
  0
LWPOLYLINE
  5
1a4
100
AcDbEntity
  8
Ebene_1
 62
7
100
AcDbPolyline
 90
2
 70
0
 10
46.823185
 20
283.168526
 30
0.0
 10
173.070020
 20
283.168526
 30
0.0
  0
SPLINE
  5
1a5
100
AcDbEntity
  8
Ebene_1
 62
7
100
AcDbSpline
 70
8
 71
3
 72
8
 73
4
 74
0
 40
0
 40
0
 40
0
 40
0
 40
1
 40
1
 40
1
 40
1
 10
201.213500
 20
44.936960
 30
0.0
 10
201.213500
 20
29.307930
 30
0.0
 10
188.720170
 20
16.831460
 30
0.0
 10
173.070020
 20
16.831460
 30
0.0
  0
LWPOLYLINE
  5
1a6
100
AcDbEntity
  8
Ebene_1
 62
7
100
AcDbPolyline
 90
2
 70
0
 10
201.213500
 20
255.063046
 30
0.0
 10
201.213500
 20
44.936960
 30
0.0
  0
SPLINE
  5
1a7
100
AcDbEntity
  8
Ebene_1
 62
7
100
AcDbSpline
 70
8
 71
3
 72
8
 73
4
 74
0
 40
0
 40
0
 40
0
 40
0
 40
1
 40
1
 40
1
 40
1
 10
46.823185
 20
16.831460
 30
0.0
 10
31.173026
 20
16.831460
 30
0.0
 10
18.679707
 20
29.307930
 30
0.0
 10
18.679707
 20
44.936960
 30
0.0
  0
LWPOLYLINE
  5
1a8
100
AcDbEntity
  8
Ebene_1
 62
7
100
AcDbPolyline
 90
2
 70
0
 10
173.070020
 20
16.831460
 30
0.0
 10
46.823185
 20
16.831460
 30
0.0
  0
SPLINE
  5
1a9
100
AcDbEntity
  8
Ebene_1
 62
7
100
AcDbSpline
 70
8
 71
3
 72
8
 73
4
 74
0
 40
0
 40
0
 40
0
 40
0
 40
1
 40
1
 40
1
 40
1
 10
18.679707
 20
255.063046
 30
0.0
 10
18.679707
 20
270.692055
 30
0.0
 10
31.173026
 20
283.168526
 30
0.0
 10
46.823185
 20
283.168526
 30
0.0
  0
LWPOLYLINE
  5
1aa
100
AcDbEntity
  8
Ebene_1
 62
7
100
AcDbPolyline
 90
2
 70
0
 10
18.679707
 20
44.936960
 30
0.0
 10
18.679707
 20
255.063046
 30
0.0
  0
SPLINE
  5
1ab
100
AcDbEntity
  8
Ebene_1
 62
7
100
AcDbSpline
 70
8
 71
3
 72
8
 73
4
 74
0
 40
0
 40
0
 40
0
 40
0
 40
1
 40
1
 40
1
 40
1
 10
34.889683
 20
31.983725
 30
0.0
 10
34.889674
 20
30.601177
 30
0.0
 10
33.768894
 20
29.480405
 30
0.0
 10
32.386345
 20
29.480405
 30
0.0
  0
SPLINE
  5
1ac
100
AcDbEntity
  8
Ebene_1
 62
7
100
AcDbSpline
 70
8
 71
3
 72
8
 73
4
 74
0
 40
0
 40
0
 40
0
 40
0
 40
1
 40
1
 40
1
 40
1
 10
32.386345
 20
29.480405
 30
0.0
 10
31.003797
 20
29.480404
 30
0.0
 10
29.883016
 20
30.601176
 30
0.0
 10
29.883006
 20
31.983725
 30
0.0
  0
SPLINE
  5
1ad
100
AcDbEntity
  8
Ebene_1
 62
7
100
AcDbSpline
 70
8
 71
3
 72
8
 73
4
 74
0
 40
0
 40
0
 40
0
 40
0
 40
1
 40
1
 40
1
 40
1
 10
29.883006
 20
31.983725
 30
0.0
 10
29.883003
 20
32.647654
 30
0.0
 10
30.146746
 20
33.284391
 30
0.0
 10
30.616213
 20
33.753860
 30
0.0
  0
SPLINE
  5
1ae
100
AcDbEntity
  8
Ebene_1
 62
7
100
AcDbSpline
 70
8
 71
3
 72
8
 73
4
 74
0
 40
0
 40
0
 40
0
 40
0
 40
1
 40
1
 40
1
 40
1
 10
30.616213
 20
33.753860
 30
0.0
 10
31.085681
 20
34.223330
 30
0.0
 10
31.722417
 20
34.487075
 30
0.0
 10
32.386345
 20
34.487075
 30
0.0
  0
SPLINE
  5
1af
100
AcDbEntity
  8
Ebene_1
 62
7
100
AcDbSpline
 70
8
 71
3
 72
8
 73
4
 74
0
 40
0
 40
0
 40
0
 40
0
 40
1
 40
1
 40
1
 40
1
 10
32.386345
 20
34.487075
 30
0.0
 10
33.050274
 20
34.487075
 30
0.0
 10
33.687010
 20
34.223330
 30
0.0
 10
34.156477
 20
33.753860
 30
0.0
  0
SPLINE
  5
1b0
100
AcDbEntity
  8
Ebene_1
 62
7
100
AcDbSpline
 70
8
 71
3
 72
8
 73
4
 74
0
 40
0
 40
0
 40
0
 40
0
 40
1
 40
1
 40
1
 40
1
 10
34.156477
 20
33.753860
 30
0.0
 10
34.625944
 20
33.284391
 30
0.0
 10
34.889687
 20
32.647654
 30
0.0
 10
34.889683
 20
31.983725
 30
0.0
  0
LWPOLYLINE
  5
1b1
100
AcDbEntity
  8
Ebene_1
 62
7
100
AcDbPolyline
 90
1
 70
1
 10
46.823185
 20
283.168526
 30
0.0
  0
SPLINE
  5
1b2
100
AcDbEntity
  8
Ebene_1
 62
7
100
AcDbSpline
 70
8
 71
3
 72
8
 73
4
 74
0
 40
0
 40
0
 40
0
 40
0
 40
1
 40
1
 40
1
 40
1
 10
190.010203
 20
32.275805
 30
0.0
 10
190.010209
 20
31.611874
 30
0.0
 10
189.746468
 20
30.975135
 30
0.0
 10
189.277000
 20
30.505663
 30
0.0
  0
SPLINE
  5
1b3
100
AcDbEntity
  8
Ebene_1
 62
7
100
AcDbSpline
 70
8
 71
3
 72
8
 73
4
 74
0
 40
0
 40
0
 40
0
 40
0
 40
1
 40
1
 40
1
 40
1
 10
189.277000
 20
30.505663
 30
0.0
 10
188.807532
 20
30.036191
 30
0.0
 10
188.170794
 20
29.772444
 30
0.0
 10
187.506863
 20
29.772445
 30
0.0
  0
SPLINE
  5
1b4
100
AcDbEntity
  8
Ebene_1
 62
7
100
AcDbSpline
 70
8
 71
3
 72
8
 73
4
 74
0
 40
0
 40
0
 40
0
 40
0
 40
1
 40
1
 40
1
 40
1
 10
187.506863
 20
29.772445
 30
0.0
 10
186.842933
 20
29.772444
 30
0.0
 10
186.206195
 20
30.036191
 30
0.0
 10
185.736727
 20
30.505663
 30
0.0
  0
SPLINE
  5
1b5
100
AcDbEntity
  8
Ebene_1
 62
7
100
AcDbSpline
 70
8
 71
3
 72
8
 73
4
 74
0
 40
0
 40
0
 40
0
 40
0
 40
1
 40
1
 40
1
 40
1
 10
185.736727
 20
30.505663
 30
0.0
 10
185.267259
 20
30.975135
 30
0.0
 10
185.003518
 20
31.611874
 30
0.0
 10
185.003523
 20
32.275805
 30
0.0
  0
SPLINE
  5
1b6
100
AcDbEntity
  8
Ebene_1
 62
7
100
AcDbSpline
 70
8
 71
3
 72
8
 73
4
 74
0
 40
0
 40
0
 40
0
 40
0
 40
1
 40
1
 40
1
 40
1
 10
185.003523
 20
32.275805
 30
0.0
 10
185.003533
 20
33.658354
 30
0.0
 10
186.124314
 20
34.779126
 30
0.0
 10
187.506863
 20
34.779125
 30
0.0
  0
SPLINE
  5
1b7
100
AcDbEntity
  8
Ebene_1
 62
7
100
AcDbSpline
 70
8
 71
3
 72
8
 73
4
 74
0
 40
0
 40
0
 40
0
 40
0
 40
1
 40
1
 40
1
 40
1
 10
187.506863
 20
34.779125
 30
0.0
 10
188.889413
 20
34.779126
 30
0.0
 10
190.010194
 20
33.658354
 30
0.0
 10
190.010203
 20
32.275805
 30
0.0
  0
LWPOLYLINE
  5
1b8
100
AcDbEntity
  8
Ebene_1
 62
7
100
AcDbPolyline
 90
1
 70
1
 10
34.889683
 20
31.983725
 30
0.0
  0
SPLINE
  5
1b9
100
AcDbEntity
  8
Ebene_1
 62
7
100
AcDbSpline
 70
8
 71
3
 72
8
 73
4
 74
0
 40
0
 40
0
 40
0
 40
0
 40
1
 40
1
 40
1
 40
1
 10
34.889683
 20
267.723725
 30
0.0
 10
34.889674
 20
266.341177
 30
0.0
 10
33.768894
 20
265.220405
 30
0.0
 10
32.386345
 20
265.220405
 30
0.0
  0
SPLINE
  5
1ba
100
AcDbEntity
  8
Ebene_1
 62
7
100
AcDbSpline
 70
8
 71
3
 72
8
 73
4
 74
0
 40
0
 40
0
 40
0
 40
0
 40
1
 40
1
 40
1
 40
1
 10
32.386345
 20
265.220405
 30
0.0
 10
31.003797
 20
265.220404
 30
0.0
 10
29.883016
 20
266.341176
 30
0.0
 10
29.883006
 20
267.723725
 30
0.0
  0
SPLINE
  5
1bb
100
AcDbEntity
  8
Ebene_1
 62
7
100
AcDbSpline
 70
8
 71
3
 72
8
 73
4
 74
0
 40
0
 40
0
 40
0
 40
0
 40
1
 40
1
 40
1
 40
1
 10
29.883006
 20
267.723725
 30
0.0
 10
29.883003
 20
268.387654
 30
0.0
 10
30.146746
 20
269.024391
 30
0.0
 10
30.616213
 20
269.493860
 30
0.0
  0
SPLINE
  5
1bc
100
AcDbEntity
  8
Ebene_1
 62
7
100
AcDbSpline
 70
8
 71
3
 72
8
 73
4
 74
0
 40
0
 40
0
 40
0
 40
0
 40
1
 40
1
 40
1
 40
1
 10
30.616213
 20
269.493860
 30
0.0
 10
31.085681
 20
269.963330
 30
0.0
 10
31.722417
 20
270.227075
 30
0.0
 10
32.386345
 20
270.227075
 30
0.0
  0
SPLINE
  5
1bd
100
AcDbEntity
  8
Ebene_1
 62
7
100
AcDbSpline
 70
8
 71
3
 72
8
 73
4
 74
0
 40
0
 40
0
 40
0
 40
0
 40
1
 40
1
 40
1
 40
1
 10
32.386345
 20
270.227075
 30
0.0
 10
33.050274
 20
270.227075
 30
0.0
 10
33.687010
 20
269.963330
 30
0.0
 10
34.156477
 20
269.493860
 30
0.0
  0
SPLINE
  5
1be
100
AcDbEntity
  8
Ebene_1
 62
7
100
AcDbSpline
 70
8
 71
3
 72
8
 73
4
 74
0
 40
0
 40
0
 40
0
 40
0
 40
1
 40
1
 40
1
 40
1
 10
34.156477
 20
269.493860
 30
0.0
 10
34.625944
 20
269.024391
 30
0.0
 10
34.889687
 20
268.387654
 30
0.0
 10
34.889683
 20
267.723725
 30
0.0
  0
LWPOLYLINE
  5
1bf
100
AcDbEntity
  8
Ebene_1
 62
7
100
AcDbPolyline
 90
1
 70
1
 10
190.010203
 20
32.275805
 30
0.0
  0
SPLINE
  5
1c0
100
AcDbEntity
  8
Ebene_1
 62
7
100
AcDbSpline
 70
8
 71
3
 72
8
 73
4
 74
0
 40
0
 40
0
 40
0
 40
0
 40
1
 40
1
 40
1
 40
1
 10
190.010203
 20
268.015805
 30
0.0
 10
190.010209
 20
267.351874
 30
0.0
 10
189.746468
 20
266.715135
 30
0.0
 10
189.277000
 20
266.245663
 30
0.0
  0
SPLINE
  5
1c1
100
AcDbEntity
  8
Ebene_1
 62
7
100
AcDbSpline
 70
8
 71
3
 72
8
 73
4
 74
0
 40
0
 40
0
 40
0
 40
0
 40
1
 40
1
 40
1
 40
1
 10
189.277000
 20
266.245663
 30
0.0
 10
188.807532
 20
265.776191
 30
0.0
 10
188.170794
 20
265.512444
 30
0.0
 10
187.506863
 20
265.512445
 30
0.0
  0
SPLINE
  5
1c2
100
AcDbEntity
  8
Ebene_1
 62
7
100
AcDbSpline
 70
8
 71
3
 72
8
 73
4
 74
0
 40
0
 40
0
 40
0
 40
0
 40
1
 40
1
 40
1
 40
1
 10
187.506863
 20
265.512445
 30
0.0
 10
186.842933
 20
265.512444
 30
0.0
 10
186.206195
 20
265.776191
 30
0.0
 10
185.736727
 20
266.245663
 30
0.0
  0
SPLINE
  5
1c3
100
AcDbEntity
  8
Ebene_1
 62
7
100
AcDbSpline
 70
8
 71
3
 72
8
 73
4
 74
0
 40
0
 40
0
 40
0
 40
0
 40
1
 40
1
 40
1
 40
1
 10
185.736727
 20
266.245663
 30
0.0
 10
185.267259
 20
266.715135
 30
0.0
 10
185.003518
 20
267.351874
 30
0.0
 10
185.003523
 20
268.015805
 30
0.0
  0
SPLINE
  5
1c4
100
AcDbEntity
  8
Ebene_1
 62
7
100
AcDbSpline
 70
8
 71
3
 72
8
 73
4
 74
0
 40
0
 40
0
 40
0
 40
0
 40
1
 40
1
 40
1
 40
1
 10
185.003523
 20
268.015805
 30
0.0
 10
185.003533
 20
269.398354
 30
0.0
 10
186.124314
 20
270.519126
 30
0.0
 10
187.506863
 20
270.519125
 30
0.0
  0
SPLINE
  5
1c5
100
AcDbEntity
  8
Ebene_1
 62
7
100
AcDbSpline
 70
8
 71
3
 72
8
 73
4
 74
0
 40
0
 40
0
 40
0
 40
0
 40
1
 40
1
 40
1
 40
1
 10
187.506863
 20
270.519125
 30
0.0
 10
188.889413
 20
270.519126
 30
0.0
 10
190.010194
 20
269.398354
 30
0.0
 10
190.010203
 20
268.015805
 30
0.0
  0
LWPOLYLINE
  5
1c6
100
AcDbEntity
  8
Ebene_1
 62
7
100
AcDbPolyline
 90
1
 70
1
 10
34.889683
 20
267.723725
 30
0.0
  0
LWPOLYLINE
  5
1c7
100
AcDbEntity
  8
Ebene_1
 62
7
100
AcDbPolyline
 90
1
 70
1
 10
190.010203
 20
268.015805
 30
0.0
  0
LWPOLYLINE
  5
1c8
100
AcDbEntity
  8
Ebene_1
 62
7
100
AcDbPolyline
 90
9
 70
1
 10
163.187240
 20
251.745313
 30
0.0
 10
163.187240
 20
237.889844
 30
0.0
 10
163.687240
 20
237.889844
 30
0.0
 10
168.472390
 20
237.889844
 30
0.0
 10
168.472390
 20
246.460156
 30
0.0
 10
184.613020
 20
246.460156
 30
0.0
 10
184.613020
 20
237.889844
 30
0.0
 10
189.898180
 20
237.889844
 30
0.0
 10
189.898180
 20
251.745313
 30
0.0
  0
SPLINE
  5
1c9
100
AcDbEntity
  8
Ebene_1
 62
7
100
AcDbSpline
 70
8
 71
3
 72
8
 73
4
 74
0
 40
0
 40
0
 40
0
 40
0
 40
1
 40
1
 40
1
 40
1
 10
163.187240
 20
259.815625
 30
0.0
 10
163.187240
 20
258.516376
 30
0.0
 10
163.659300
 20
257.352453
 30
0.0
 10
164.566150
 20
256.421094
 30
0.0
  0
LWPOLYLINE
  5
1ca
100
AcDbEntity
  8
Ebene_1
 62
7
100
AcDbPolyline
 90
2
 70
0
 10
163.187240
 20
260.315625
 30
0.0
 10
163.187240
 20
259.815625
 30
0.0
  0
SPLINE
  5
1cb
100
AcDbEntity
  8
Ebene_1
 62
7
100
AcDbSpline
 70
8
 71
3
 72
8
 73
4
 74
0
 40
0
 40
0
 40
0
 40
0
 40
1
 40
1
 40
1
 40
1
 10
164.572150
 20
256.417094
 30
0.0
 10
165.483950
 20
255.505299
 30
0.0
 10
166.653130
 20
255.030375
 30
0.0
 10
167.972540
 20
255.030375
 30
0.0
  0
LWPOLYLINE
  5
1cc
100
AcDbEntity
  8
Ebene_1
 62
7
100
AcDbPolyline
 90
3
 70
0
 10
164.566150
 20
256.421094
 30
0.0
 10
164.570150
 20
256.419094
 30
0.0
 10
164.572150
 20
256.417094
 30
0.0
  0
SPLINE
  5
1cd
100
AcDbEntity
  8
Ebene_1
 62
7
100
AcDbSpline
 70
8
 71
3
 72
8
 73
4
 74
0
 40
0
 40
0
 40
0
 40
0
 40
1
 40
1
 40
1
 40
1
 10
185.113170
 20
255.030375
 30
0.0
 10
186.392340
 20
255.030375
 30
0.0
 10
187.544710
 20
255.505914
 30
0.0
 10
188.474500
 20
256.411234
 30
0.0
  0
SPLINE
  5
1ce
100
AcDbEntity
  8
Ebene_1
 62
7
100
AcDbSpline
 70
8
 71
3
 72
8
 73
4
 74
0
 40
0
 40
0
 40
0
 40
0
 40
1
 40
1
 40
1
 40
1
 10
188.474500
 20
256.411234
 30
0.0
 10
189.409720
 20
257.321846
 30
0.0
 10
189.898330
 20
258.493032
 30
0.0
 10
189.898330
 20
259.815531
 30
0.0
  0
LWPOLYLINE
  5
1cf
100
AcDbEntity
  8
Ebene_1
 62
7
100
AcDbPolyline
 90
2
 70
0
 10
167.972540
 20
255.030375
 30
0.0
 10
185.113170
 20
255.030375
 30
0.0
  0
LWPOLYLINE
  5
1d0
100
AcDbEntity
  8
Ebene_1
 62
7
100
AcDbPolyline
 90
3
 70
0
 10
189.898330
 20
259.815531
 30
0.0
 10
189.898330
 20
260.315531
 30
0.0
 10
163.187240
 20
260.315625
 30
0.0
  0
SPLINE
  5
1d1
100
AcDbEntity
  8
Ebene_1
 62
7
100
AcDbSpline
 70
8
 71
3
 72
8
 73
4
 74
0
 40
0
 40
0
 40
0
 40
0
 40
1
 40
1
 40
1
 40
1
 10
29.995830
 20
259.815625
 30
0.0
 10
29.995830
 20
258.516376
 30
0.0
 10
30.469840
 20
257.352453
 30
0.0
 10
31.376690
 20
256.421094
 30
0.0
  0
LWPOLYLINE
  5
1d2
100
AcDbEntity
  8
Ebene_1
 62
7
100
AcDbPolyline
 90
2
 70
0
 10
29.995830
 20
260.315625
 30
0.0
 10
29.995830
 20
259.815625
 30
0.0
  0
SPLINE
  5
1d3
100
AcDbEntity
  8
Ebene_1
 62
7
100
AcDbSpline
 70
8
 71
3
 72
8
 73
4
 74
0
 40
0
 40
0
 40
0
 40
0
 40
1
 40
1
 40
1
 40
1
 10
31.380690
 20
256.417094
 30
0.0
 10
32.292490
 20
255.505298
 30
0.0
 10
33.461670
 20
255.030375
 30
0.0
 10
34.781080
 20
255.030375
 30
0.0
  0
LWPOLYLINE
  5
1d4
100
AcDbEntity
  8
Ebene_1
 62
7
100
AcDbPolyline
 90
3
 70
0
 10
31.376690
 20
256.421094
 30
0.0
 10
31.378690
 20
256.419094
 30
0.0
 10
31.380690
 20
256.417094
 30
0.0
  0
SPLINE
  5
1d5
100
AcDbEntity
  8
Ebene_1
 62
7
100
AcDbSpline
 70
8
 71
3
 72
8
 73
4
 74
0
 40
0
 40
0
 40
0
 40
0
 40
1
 40
1
 40
1
 40
1
 10
51.921710
 20
255.030469
 30
0.0
 10
53.200880
 20
255.030469
 30
0.0
 10
54.353250
 20
255.506008
 30
0.0
 10
55.283040
 20
256.411328
 30
0.0
  0
SPLINE
  5
1d6
100
AcDbEntity
  8
Ebene_1
 62
7
100
AcDbSpline
 70
8
 71
3
 72
8
 73
4
 74
0
 40
0
 40
0
 40
0
 40
0
 40
1
 40
1
 40
1
 40
1
 10
55.283040
 20
256.411328
 30
0.0
 10
56.218260
 20
257.321939
 30
0.0
 10
56.706860
 20
258.493125
 30
0.0
 10
56.706860
 20
259.815625
 30
0.0
  0
LWPOLYLINE
  5
1d7
100
AcDbEntity
  8
Ebene_1
 62
7
100
AcDbPolyline
 90
7
 70
0
 10
34.781080
 20
255.030375
 30
0.0
 10
40.708820
 20
255.030375
 30
0.0
 10
40.708820
 20
237.889844
 30
0.0
 10
41.208820
 20
237.889844
 30
0.0
 10
45.993970
 20
237.889844
 30
0.0
 10
45.993970
 20
255.030469
 30
0.0
 10
51.921710
 20
255.030469
 30
0.0
  0
LWPOLYLINE
  5
1d8
100
AcDbEntity
  8
Ebene_1
 62
7
100
AcDbPolyline
 90
3
 70
0
 10
56.706860
 20
259.815625
 30
0.0
 10
56.706860
 20
260.315625
 30
0.0
 10
29.995830
 20
260.315625
 30
0.0
  0
SPLINE
  5
1d9
100
AcDbEntity
  8
Ebene_1
 62
7
100
AcDbSpline
 70
8
 71
3
 72
8
 73
4
 74
0
 40
0
 40
0
 40
0
 40
0
 40
1
 40
1
 40
1
 40
1
 10
63.292710
 20
242.675000
 30
0.0
 10
63.292710
 20
241.375751
 30
0.0
 10
63.766720
 20
240.211828
 30
0.0
 10
64.673570
 20
239.280469
 30
0.0
  0
LWPOLYLINE
  5
1da
100
AcDbEntity
  8
Ebene_1
 62
7
100
AcDbPolyline
 90
2
 70
0
 10
63.292710
 20
243.175000
 30
0.0
 10
63.292710
 20
242.675000
 30
0.0
  0
SPLINE
  5
1db
100
AcDbEntity
  8
Ebene_1
 62
7
100
AcDbSpline
 70
8
 71
3
 72
8
 73
4
 74
0
 40
0
 40
0
 40
0
 40
0
 40
1
 40
1
 40
1
 40
1
 10
64.677570
 20
239.274569
 30
0.0
 10
65.589360
 20
238.362773
 30
0.0
 10
66.758540
 20
237.889803
 30
0.0
 10
68.077960
 20
237.889803
 30
0.0
  0
LWPOLYLINE
  5
1dc
100
AcDbEntity
  8
Ebene_1
 62
7
100
AcDbPolyline
 90
3
 70
0
 10
64.673570
 20
239.280469
 30
0.0
 10
64.675570
 20
239.278469
 30
0.0
 10
64.677570
 20
239.274569
 30
0.0
  0
SPLINE
  5
1dd
100
AcDbEntity
  8
Ebene_1
 62
7
100
AcDbSpline
 70
8
 71
3
 72
8
 73
4
 74
0
 40
0
 40
0
 40
0
 40
0
 40
1
 40
1
 40
1
 40
1
 10
85.218580
 20
237.889803
 30
0.0
 10
86.497750
 20
237.889803
 30
0.0
 10
87.652080
 20
238.365342
 30
0.0
 10
88.581860
 20
239.270662
 30
0.0
  0
SPLINE
  5
1de
100
AcDbEntity
  8
Ebene_1
 62
7
100
AcDbSpline
 70
8
 71
3
 72
8
 73
4
 74
0
 40
0
 40
0
 40
0
 40
0
 40
1
 40
1
 40
1
 40
1
 10
88.581860
 20
239.270662
 30
0.0
 10
89.517090
 20
240.181273
 30
0.0
 10
90.003740
 20
241.352459
 30
0.0
 10
90.003740
 20
242.674959
 30
0.0
  0
LWPOLYLINE
  5
1df
100
AcDbEntity
  8
Ebene_1
 62
7
100
AcDbPolyline
 90
2
 70
0
 10
68.077960
 20
237.889803
 30
0.0
 10
85.218580
 20
237.889803
 30
0.0
  0
LWPOLYLINE
  5
1e0
100
AcDbEntity
  8
Ebene_1
 62
7
100
AcDbPolyline
 90
3
 70
0
 10
90.003740
 20
242.674959
 30
0.0
 10
90.003740
 20
243.174959
 30
0.0
 10
63.292710
 20
243.175000
 30
0.0
  0
SPLINE
  5
1e1
100
AcDbEntity
  8
Ebene_1
 62
7
100
AcDbSpline
 70
8
 71
3
 72
8
 73
4
 74
0
 40
0
 40
0
 40
0
 40
0
 40
1
 40
1
 40
1
 40
1
 10
63.292710
 20
251.245313
 30
0.0
 10
63.292710
 20
249.946063
 30
0.0
 10
63.766720
 20
248.782141
 30
0.0
 10
64.673570
 20
247.850782
 30
0.0
  0
LWPOLYLINE
  5
1e2
100
AcDbEntity
  8
Ebene_1
 62
7
100
AcDbPolyline
 90
2
 70
0
 10
63.292710
 20
251.745313
 30
0.0
 10
63.292710
 20
251.245313
 30
0.0
  0
SPLINE
  5
1e3
100
AcDbEntity
  8
Ebene_1
 62
7
100
AcDbSpline
 70
8
 71
3
 72
8
 73
4
 74
0
 40
0
 40
0
 40
0
 40
0
 40
1
 40
1
 40
1
 40
1
 10
64.677570
 20
247.844882
 30
0.0
 10
65.589360
 20
246.933087
 30
0.0
 10
66.758540
 20
246.460116
 30
0.0
 10
68.077960
 20
246.460116
 30
0.0
  0
LWPOLYLINE
  5
1e4
100
AcDbEntity
  8
Ebene_1
 62
7
100
AcDbPolyline
 90
3
 70
0
 10
64.673570
 20
247.850782
 30
0.0
 10
64.675570
 20
247.848782
 30
0.0
 10
64.677570
 20
247.844882
 30
0.0
  0
SPLINE
  5
1e5
100
AcDbEntity
  8
Ebene_1
 62
7
100
AcDbSpline
 70
8
 71
3
 72
8
 73
4
 74
0
 40
0
 40
0
 40
0
 40
0
 40
1
 40
1
 40
1
 40
1
 10
85.218580
 20
246.460116
 30
0.0
 10
86.497750
 20
246.460116
 30
0.0
 10
87.652080
 20
246.935655
 30
0.0
 10
88.581860
 20
247.840976
 30
0.0
  0
SPLINE
  5
1e6
100
AcDbEntity
  8
Ebene_1
 62
7
100
AcDbSpline
 70
8
 71
3
 72
8
 73
4
 74
0
 40
0
 40
0
 40
0
 40
0
 40
1
 40
1
 40
1
 40
1
 10
88.581860
 20
247.840976
 30
0.0
 10
89.517090
 20
248.751587
 30
0.0
 10
90.003740
 20
249.922773
 30
0.0
 10
90.003740
 20
251.245273
 30
0.0
  0
LWPOLYLINE
  5
1e7
100
AcDbEntity
  8
Ebene_1
 62
7
100
AcDbPolyline
 90
2
 70
0
 10
68.077960
 20
246.460116
 30
0.0
 10
85.218580
 20
246.460116
 30
0.0
  0
LWPOLYLINE
  5
1e8
100
AcDbEntity
  8
Ebene_1
 62
7
100
AcDbPolyline
 90
3
 70
0
 10
90.003740
 20
251.245273
 30
0.0
 10
90.003740
 20
251.745273
 30
0.0
 10
63.292710
 20
251.745313
 30
0.0
  0
SPLINE
  5
1e9
100
AcDbEntity
  8
Ebene_1
 62
7
100
AcDbSpline
 70
8
 71
3
 72
8
 73
4
 74
0
 40
0
 40
0
 40
0
 40
0
 40
1
 40
1
 40
1
 40
1
 10
63.292710
 20
259.815625
 30
0.0
 10
63.292710
 20
258.516376
 30
0.0
 10
63.766720
 20
257.352453
 30
0.0
 10
64.673570
 20
256.421094
 30
0.0
  0
LWPOLYLINE
  5
1ea
100
AcDbEntity
  8
Ebene_1
 62
7
100
AcDbPolyline
 90
2
 70
0
 10
63.292710
 20
260.315625
 30
0.0
 10
63.292710
 20
259.815625
 30
0.0
  0
SPLINE
  5
1eb
100
AcDbEntity
  8
Ebene_1
 62
7
100
AcDbSpline
 70
8
 71
3
 72
8
 73
4
 74
0
 40
0
 40
0
 40
0
 40
0
 40
1
 40
1
 40
1
 40
1
 10
64.677570
 20
256.417094
 30
0.0
 10
65.589360
 20
255.505298
 30
0.0
 10
66.758540
 20
255.030375
 30
0.0
 10
68.077960
 20
255.030375
 30
0.0
  0
LWPOLYLINE
  5
1ec
100
AcDbEntity
  8
Ebene_1
 62
7
100
AcDbPolyline
 90
3
 70
0
 10
64.673570
 20
256.421094
 30
0.0
 10
64.675570
 20
256.419094
 30
0.0
 10
64.677570
 20
256.417094
 30
0.0
  0
SPLINE
  5
1ed
100
AcDbEntity
  8
Ebene_1
 62
7
100
AcDbSpline
 70
8
 71
3
 72
8
 73
4
 74
0
 40
0
 40
0
 40
0
 40
0
 40
1
 40
1
 40
1
 40
1
 10
85.218580
 20
255.030375
 30
0.0
 10
86.497750
 20
255.030375
 30
0.0
 10
87.652080
 20
255.505914
 30
0.0
 10
88.581860
 20
256.411234
 30
0.0
  0
SPLINE
  5
1ee
100
AcDbEntity
  8
Ebene_1
 62
7
100
AcDbSpline
 70
8
 71
3
 72
8
 73
4
 74
0
 40
0
 40
0
 40
0
 40
0
 40
1
 40
1
 40
1
 40
1
 10
88.581860
 20
256.411234
 30
0.0
 10
89.517090
 20
257.321845
 30
0.0
 10
90.003740
 20
258.493031
 30
0.0
 10
90.003740
 20
259.815531
 30
0.0
  0
LWPOLYLINE
  5
1ef
100
AcDbEntity
  8
Ebene_1
 62
7
100
AcDbPolyline
 90
2
 70
0
 10
68.077960
 20
255.030375
 30
0.0
 10
85.218580
 20
255.030375
 30
0.0
  0
LWPOLYLINE
  5
1f0
100
AcDbEntity
  8
Ebene_1
 62
7
100
AcDbPolyline
 90
3
 70
0
 10
90.003740
 20
259.815531
 30
0.0
 10
90.003740
 20
260.315531
 30
0.0
 10
63.292710
 20
260.315625
 30
0.0
  0
SPLINE
  5
1f1
100
AcDbEntity
  8
Ebene_1
 62
7
100
AcDbSpline
 70
8
 71
3
 72
8
 73
4
 74
0
 40
0
 40
0
 40
0
 40
0
 40
1
 40
1
 40
1
 40
1
 10
101.376690
 20
243.175000
 30
0.0
 10
100.074300
 20
243.175000
 30
0.0
 10
98.906600
 20
242.687332
 30
0.0
 10
97.976300
 20
241.757032
 30
0.0
  0
SPLINE
  5
1f2
100
AcDbEntity
  8
Ebene_1
 62
7
100
AcDbSpline
 70
8
 71
3
 72
8
 73
4
 74
0
 40
0
 40
0
 40
0
 40
0
 40
1
 40
1
 40
1
 40
1
 10
97.976300
 20
241.757032
 30
0.0
 10
97.066100
 20
240.846828
 30
0.0
 10
96.591540
 20
239.689093
 30
0.0
 10
96.591540
 20
238.389844
 30
0.0
  0
LWPOLYLINE
  5
1f3
100
AcDbEntity
  8
Ebene_1
 62
7
100
AcDbPolyline
 90
5
 70
0
 10
96.591540
 20
260.315625
 30
0.0
 10
96.591540
 20
246.460156
 30
0.0
 10
118.017320
 20
246.460156
 30
0.0
 10
118.017320
 20
243.175000
 30
0.0
 10
101.376690
 20
243.175000
 30
0.0
  0
SPLINE
  5
1f4
100
AcDbEntity
  8
Ebene_1
 62
7
100
AcDbSpline
 70
8
 71
3
 72
8
 73
4
 74
0
 40
0
 40
0
 40
0
 40
0
 40
1
 40
1
 40
1
 40
1
 10
118.517320
 20
255.030469
 30
0.0
 10
119.796490
 20
255.030469
 30
0.0
 10
120.948860
 20
255.506008
 30
0.0
 10
121.878650
 20
256.411328
 30
0.0
  0
SPLINE
  5
1f5
100
AcDbEntity
  8
Ebene_1
 62
7
100
AcDbSpline
 70
8
 71
3
 72
8
 73
4
 74
0
 40
0
 40
0
 40
0
 40
0
 40
1
 40
1
 40
1
 40
1
 10
121.878650
 20
256.411328
 30
0.0
 10
122.813870
 20
257.321940
 30
0.0
 10
123.302470
 20
258.493126
 30
0.0
 10
123.302470
 20
259.815625
 30
0.0
  0
LWPOLYLINE
  5
1f6
100
AcDbEntity
  8
Ebene_1
 62
7
100
AcDbPolyline
 90
8
 70
0
 10
96.591540
 20
238.389844
 30
0.0
 10
96.591540
 20
237.889844
 30
0.0
 10
97.091540
 20
237.889844
 30
0.0
 10
123.302470
 20
237.889844
 30
0.0
 10
123.302470
 20
251.745313
 30
0.0
 10
101.876690
 20
251.745313
 30
0.0
 10
101.876690
 20
255.030469
 30
0.0
 10
118.517320
 20
255.030469
 30
0.0
  0
LWPOLYLINE
  5
1f7
100
AcDbEntity
  8
Ebene_1
 62
7
100
AcDbPolyline
 90
3
 70
0
 10
123.302470
 20
259.815625
 30
0.0
 10
123.302470
 20
260.315625
 30
0.0
 10
96.591540
 20
260.315625
 30
0.0
  0
SPLINE
  5
1f8
100
AcDbEntity
  8
Ebene_1
 62
7
100
AcDbSpline
 70
8
 71
3
 72
8
 73
4
 74
0
 40
0
 40
0
 40
0
 40
0
 40
1
 40
1
 40
1
 40
1
 10
151.814190
 20
237.889844
 30
0.0
 10
153.093360
 20
237.889844
 30
0.0
 10
154.247690
 20
238.365383
 30
0.0
 10
155.177470
 20
239.270703
 30
0.0
  0
SPLINE
  5
1f9
100
AcDbEntity
  8
Ebene_1
 62
7
100
AcDbSpline
 70
8
 71
3
 72
8
 73
4
 74
0
 40
0
 40
0
 40
0
 40
0
 40
1
 40
1
 40
1
 40
1
 10
155.177470
 20
239.270703
 30
0.0
 10
156.112690
 20
240.181315
 30
0.0
 10
156.599350
 20
241.352501
 30
0.0
 10
156.599350
 20
242.675000
 30
0.0
  0
LWPOLYLINE
  5
1fa
100
AcDbEntity
  8
Ebene_1
 62
7
100
AcDbPolyline
 90
4
 70
0
 10
129.888410
 20
260.315625
 30
0.0
 10
129.888410
 20
237.889844
 30
0.0
 10
130.388410
 20
237.889844
 30
0.0
 10
151.814190
 20
237.889844
 30
0.0
  0
LWPOLYLINE
  5
1fb
100
AcDbEntity
  8
Ebene_1
 62
7
100
AcDbPolyline
 90
5
 70
0
 10
156.599350
 20
242.675000
 30
0.0
 10
156.599350
 20
243.175000
 30
0.0
 10
135.173570
 20
243.175000
 30
0.0
 10
135.173570
 20
260.315625
 30
0.0
 10
129.888410
 20
260.315625
 30
0.0
  0
ENDSEC
  0
SECTION
  2
OBJECTS
  0
DICTIONARY
  5
C
330
0
100
AcDbDictionary
  3
ACAD_GROUP
350
D
  3
ACAD_MLINESTYLE
350
17
  0
DICTIONARY
  5
D
330
C
100
AcDbDictionary
  0
DICTIONARY
  5
1A
330
C
100
AcDbDictionary
  0
DICTIONARY
  5
17
330
C
100
AcDbDictionary
  3
STANDARD
350
18
  0
DICTIONARY
  5
19
330
C
100
AcDbDictionary
  0
ENDSEC
  0
EOF
