  0
SECTION
  2
HEADER
  9
$ACADVER
  1
AC1014
  9
$HANDSEED
  5
FFFF
  9
$MEASUREMENT
 70
     1
  0
ENDSEC
  0
SECTION
  2
TABLES
  0
TABLE
  2
VPORT
  5
8
330
0
100
AcDbSymbolTable
 70
     4
  0
VPORT
  5
2E
330
8
100
AcDbSymbolTableRecord
100
AcDbViewportTableRecord
  2
*ACTIVE
 70
     0
 10
0.0
 20
0.0
 11
1.0
 21
1.0
 12
210.0
 22
148.5
 13
0.0
 23
0.0
 14
10.0
 24
10.0
 15
10.0
 25
10.0
 16
0.0
 26
0.0
 36
1.0
 17
0.0
 27
0.0
 37
0.0
 40
341.0
 41
1.24
 42
50.0
 43
0.0
 44
0.0
 50
0.0
 51
0.0
 71
     0
 72
   100
 73
     1
 74
     3
 75
     0
 76
     0
 77
     0
 78
     0
  0
ENDTAB
  0
TABLE
  2
LTYPE
  5
5
330
0
100
AcDbSymbolTable
 70
     1
  0
LTYPE
  5
14
330
5
100
AcDbSymbolTableRecord
100
AcDbLinetypeTableRecord
  2
BYBLOCK
 70
     0
  3

 72
    65
 73
     0
 40
0.0
  0
LTYPE
  5
15
330
5
100
AcDbSymbolTableRecord
100
AcDbLinetypeTableRecord
  2
BYLAYER
 70
     0
  3

 72
    65
 73
     0
 40
0.0
  0
LTYPE
  5
16
330
5
100
AcDbSymbolTableRecord
100
AcDbLinetypeTableRecord
  2
CONTINUOUS
 70
     0
  3
Solid line
 72
    65
 73
     0
 40
0.0
  0
ENDTAB
  0
TABLE
  2
LAYER
  5
2
100
AcDbSymbolTable
 70
2
  0
LAYER
  5
50
100
AcDbSymbolTableRecord
100
AcDbLayerTableRecord
  2
0
 70
0
  6
CONTINUOUS
  0
LAYER
  5
51
100
AcDbSymbolTableRecord
100
AcDbLayerTableRecord
  2
Ebene_1
 70
0
  6
CONTINUOUS
  0
ENDTAB
  0
TABLE
  2
STYLE
  5
3
330
0
100
AcDbSymbolTable
 70
     1
  0
STYLE
  5
11
330
3
100
AcDbSymbolTableRecord
100
AcDbTextStyleTableRecord
  2
STANDARD
 70
     0
 40
0.0
 41
1.0
 50
0.0
 71
     0
 42
2.5
  3
txt
  4

  0
ENDTAB
  0
TABLE
  2
VIEW
  5
6
330
0
100
AcDbSymbolTable
 70
     0
  0
ENDTAB
  0
TABLE
  2
UCS
  5
7
330
0
100
AcDbSymbolTable
 70
     0
  0
ENDTAB
  0
TABLE
  2
APPID
  5
9
330
0
100
AcDbSymbolTable
 70
     2
  0
APPID
  5
12
330
9
100
AcDbSymbolTableRecord
100
AcDbRegAppTableRecord
  2
ACAD
 70
     0
  0
ENDTAB
  0
TABLE
  2
DIMSTYLE
  5
A
330
0
100
AcDbSymbolTable
 70
     1
  0
DIMSTYLE
105
27
330
A
100
AcDbSymbolTableRecord
100
AcDbDimStyleTableRecord
  2
ISO-25
 70
     0
  3

  4

  5

  6

  7

 40
1.0
 41
2.5
 42
0.625
 43
3.75
 44
1.25
 45
0.0
 46
0.0
 47
0.0
 48
0.0
140
2.5
141
2.5
142
0.0
143
0.03937007874016
144
1.0
145
0.0
146
1.0
147
0.625
 71
     0
 72
     0
 73
     0
 74
     0
 75
     0
 76
     0
 77
     1
 78
     8
170
     0
171
     3
172
     1
173
     0
174
     0
175
     0
176
     0
177
     0
178
     0
270
     2
271
     2
272
     2
273
     2
274
     3
340
11
275
     0
280
     0
281
     0
282
     0
283
     0
284
     8
285
     0
286
     0
287
     3
288
     0
  0
ENDTAB
  0
TABLE
  2
BLOCK_RECORD
  5
1
330
0
100
AcDbSymbolTable
 70
     1
  0
BLOCK_RECORD
  5
1F
330
1
100
AcDbSymbolTableRecord
100
AcDbBlockTableRecord
  2
*MODEL_SPACE
  0
BLOCK_RECORD
  5
1B
330
1
100
AcDbSymbolTableRecord
100
AcDbBlockTableRecord
  2
*PAPER_SPACE
  0
ENDTAB
  0
ENDSEC
  0
SECTION
  2
BLOCKS
  0
BLOCK
  5
20
330
1F
100
AcDbEntity
  8
0
100
AcDbBlockBegin
  2
*MODEL_SPACE
 70
     0
 10
0.0
 20
0.0
 30
0.0
  3
*MODEL_SPACE
  1

  0
ENDBLK
  5
21
330
1F
100
AcDbEntity
  8
0
100
AcDbBlockEnd
  0
BLOCK
  5
1C
330
1B
100
AcDbEntity
 67
     1
  8
0
100
AcDbBlockBegin
  2
*PAPER_SPACE
  1

  0
ENDBLK
  5
1D
330
1B
100
AcDbEntity
 67
     1
  8
0
100
AcDbBlockEnd
  0
ENDSEC
  0
SECTION
  2
ENTITIES
  0
SPLINE
  5
100
100
AcDbEntity
  8
Ebene_1
 62
7
100
AcDbSpline
 70
8
 71
3
 72
8
 73
4
 74
0
 40
0
 40
0
 40
0
 40
0
 40
1
 40
1
 40
1
 40
1
 10
-0.327284
 20
299.758227
 30
0.0
 10
-0.603414
 20
299.758199
 30
0.0
 10
-0.827256
 20
299.534358
 30
0.0
 10
-0.827283
 20
299.258227
 30
0.0
  0
SPLINE
  5
101
100
AcDbEntity
  8
Ebene_1
 62
7
100
AcDbSpline
 70
8
 71
3
 72
8
 73
4
 74
0
 40
0
 40
0
 40
0
 40
0
 40
1
 40
1
 40
1
 40
1
 10
-0.827283
 20
-0.341380
 30
0.0
 10
-0.827256
 20
-0.617511
 30
0.0
 10
-0.603414
 20
-0.841352
 30
0.0
 10
-0.327284
 20
-0.841380
 30
0.0
  0
LWPOLYLINE
  5
102
100
AcDbEntity
  8
Ebene_1
 62
7
100
AcDbPolyline
 90
2
 70
0
 10
-0.827283
 20
299.258227
 30
0.0
 10
-0.827283
 20
-0.341380
 30
0.0
  0
SPLINE
  5
103
100
AcDbEntity
  8
Ebene_1
 62
7
100
AcDbSpline
 70
8
 71
3
 72
8
 73
4
 74
0
 40
0
 40
0
 40
0
 40
0
 40
1
 40
1
 40
1
 40
1
 10
219.274280
 20
-0.841380
 30
0.0
 10
219.550411
 20
-0.841352
 30
0.0
 10
219.774252
 20
-0.617511
 30
0.0
 10
219.774280
 20
-0.341380
 30
0.0
  0
LWPOLYLINE
  5
104
100
AcDbEntity
  8
Ebene_1
 62
7
100
AcDbPolyline
 90
2
 70
0
 10
-0.327284
 20
-0.841380
 30
0.0
 10
219.274280
 20
-0.841380
 30
0.0
  0
SPLINE
  5
105
100
AcDbEntity
  8
Ebene_1
 62
7
100
AcDbSpline
 70
8
 71
3
 72
8
 73
4
 74
0
 40
0
 40
0
 40
0
 40
0
 40
1
 40
1
 40
1
 40
1
 10
219.774280
 20
299.258227
 30
0.0
 10
219.774252
 20
299.534358
 30
0.0
 10
219.550411
 20
299.758199
 30
0.0
 10
219.274280
 20
299.758227
 30
0.0
  0
LWPOLYLINE
  5
106
100
AcDbEntity
  8
Ebene_1
 62
7
100
AcDbPolyline
 90
2
 70
0
 10
219.774280
 20
-0.341380
 30
0.0
 10
219.774280
 20
299.258227
 30
0.0
  0
LWPOLYLINE
  5
107
100
AcDbEntity
  8
Ebene_1
 62
7
100
AcDbPolyline
 90
2
 70
0
 10
219.274280
 20
299.758227
 30
0.0
 10
-0.327284
 20
299.758227
 30
0.0
  0
SPLINE
  5
108
100
AcDbEntity
  8
Ebene_1
 62
7
100
AcDbSpline
 70
8
 71
3
 72
8
 73
4
 74
0
 40
0
 40
0
 40
0
 40
0
 40
1
 40
1
 40
1
 40
1
 10
46.433450
 20
292.207953
 30
0.0
 10
25.546800
 20
292.207953
 30
0.0
 10
8.548690
 20
275.234960
 30
0.0
 10
8.548690
 20
254.370063
 30
0.0
  0
LWPOLYLINE
  5
109
100
AcDbEntity
  8
Ebene_1
 62
7
100
AcDbPolyline
 90
4
 70
1
 10
0.172716
 20
298.758227
 30
0.0
 10
218.774280
 20
298.758227
 30
0.0
 10
218.774280
 20
0.158620
 30
0.0
 10
0.172716
 20
0.158620
 30
0.0
  0
SPLINE
  5
10a
100
AcDbEntity
  8
Ebene_1
 62
7
100
AcDbSpline
 70
8
 71
3
 72
8
 73
4
 74
0
 40
0
 40
0
 40
0
 40
0
 40
1
 40
1
 40
1
 40
1
 10
8.548690
 20
44.524360
 30
0.0
 10
8.548690
 20
23.659460
 30
0.0
 10
25.546800
 20
6.686470
 30
0.0
 10
46.433450
 20
6.686470
 30
0.0
  0
LWPOLYLINE
  5
10b
100
AcDbEntity
  8
Ebene_1
 62
7
100
AcDbPolyline
 90
2
 70
0
 10
8.548690
 20
254.370063
 30
0.0
 10
8.548690
 20
44.524360
 30
0.0
  0
SPLINE
  5
10c
100
AcDbEntity
  8
Ebene_1
 62
7
100
AcDbSpline
 70
8
 71
3
 72
8
 73
4
 74
0
 40
0
 40
0
 40
0
 40
0
 40
1
 40
1
 40
1
 40
1
 10
172.511590
 20
6.686470
 30
0.0
 10
193.398230
 20
6.686470
 30
0.0
 10
210.398310
 20
23.659460
 30
0.0
 10
210.398310
 20
44.524360
 30
0.0
  0
LWPOLYLINE
  5
10d
100
AcDbEntity
  8
Ebene_1
 62
7
100
AcDbPolyline
 90
2
 70
0
 10
46.433450
 20
6.686470
 30
0.0
 10
172.511590
 20
6.686470
 30
0.0
  0
SPLINE
  5
10e
100
AcDbEntity
  8
Ebene_1
 62
7
100
AcDbSpline
 70
8
 71
3
 72
8
 73
4
 74
0
 40
0
 40
0
 40
0
 40
0
 40
1
 40
1
 40
1
 40
1
 10
210.398310
 20
254.370063
 30
0.0
 10
210.398310
 20
275.234959
 30
0.0
 10
193.398230
 20
292.207953
 30
0.0
 10
172.511590
 20
292.207953
 30
0.0
  0
LWPOLYLINE
  5
10f
100
AcDbEntity
  8
Ebene_1
 62
7
100
AcDbPolyline
 90
2
 70
0
 10
210.398310
 20
44.524360
 30
0.0
 10
210.398310
 20
254.370063
 30
0.0
  0
SPLINE
  5
110
100
AcDbEntity
  8
Ebene_1
 62
7
100
AcDbSpline
 70
8
 71
3
 72
8
 73
4
 74
0
 40
0
 40
0
 40
0
 40
0
 40
1
 40
1
 40
1
 40
1
 10
46.434250
 20
289.258226
 30
0.0
 10
27.139680
 20
289.258226
 30
0.0
 10
11.499030
 20
273.638685
 30
0.0
 10
11.499030
 20
254.370172
 30
0.0
  0
LWPOLYLINE
  5
111
100
AcDbEntity
  8
Ebene_1
 62
7
100
AcDbPolyline
 90
2
 70
0
 10
172.511590
 20
292.207953
 30
0.0
 10
46.433450
 20
292.207953
 30
0.0
  0
SPLINE
  5
112
100
AcDbEntity
  8
Ebene_1
 62
7
100
AcDbSpline
 70
8
 71
3
 72
8
 73
4
 74
0
 40
0
 40
0
 40
0
 40
0
 40
1
 40
1
 40
1
 40
1
 10
11.499030
 20
44.524260
 30
0.0
 10
11.499030
 20
25.255740
 30
0.0
 10
27.139680
 20
9.636200
 30
0.0
 10
46.434250
 20
9.636200
 30
0.0
  0
LWPOLYLINE
  5
113
100
AcDbEntity
  8
Ebene_1
 62
7
100
AcDbPolyline
 90
2
 70
0
 10
11.499030
 20
254.370172
 30
0.0
 10
11.499030
 20
44.524260
 30
0.0
  0
SPLINE
  5
114
100
AcDbEntity
  8
Ebene_1
 62
7
100
AcDbSpline
 70
8
 71
3
 72
8
 73
4
 74
0
 40
0
 40
0
 40
0
 40
0
 40
1
 40
1
 40
1
 40
1
 10
172.512750
 20
9.636200
 30
0.0
 10
191.807320
 20
9.636200
 30
0.0
 10
207.447970
 20
25.255740
 30
0.0
 10
207.447970
 20
44.524260
 30
0.0
  0
LWPOLYLINE
  5
115
100
AcDbEntity
  8
Ebene_1
 62
7
100
AcDbPolyline
 90
2
 70
0
 10
46.434250
 20
9.636200
 30
0.0
 10
172.512750
 20
9.636200
 30
0.0
  0
SPLINE
  5
116
100
AcDbEntity
  8
Ebene_1
 62
7
100
AcDbSpline
 70
8
 71
3
 72
8
 73
4
 74
0
 40
0
 40
0
 40
0
 40
0
 40
1
 40
1
 40
1
 40
1
 10
207.447970
 20
254.370172
 30
0.0
 10
207.447970
 20
273.638685
 30
0.0
 10
191.807320
 20
289.258226
 30
0.0
 10
172.512750
 20
289.258226
 30
0.0
  0
LWPOLYLINE
  5
117
100
AcDbEntity
  8
Ebene_1
 62
7
100
AcDbPolyline
 90
2
 70
0
 10
207.447970
 20
44.524260
 30
0.0
 10
207.447970
 20
254.370172
 30
0.0
  0
LWPOLYLINE
  5
118
100
AcDbEntity
  8
Ebene_1
 62
7
100
AcDbPolyline
 90
2
 70
0
 10
172.512750
 20
289.258226
 30
0.0
 10
46.434250
 20
289.258226
 30
0.0
  0
SPLINE
  5
119
100
AcDbEntity
  8
Ebene_1
 62
7
100
AcDbSpline
 70
8
 71
3
 72
8
 73
4
 74
0
 40
0
 40
0
 40
0
 40
0
 40
1
 40
1
 40
1
 40
1
 10
172.512750
 20
282.438178
 30
0.0
 10
188.142030
 20
282.438178
 30
0.0
 10
200.618700
 20
269.978344
 30
0.0
 10
200.618700
 20
254.370172
 30
0.0
  0
LWPOLYLINE
  5
11a
100
AcDbEntity
  8
Ebene_1
 62
7
100
AcDbPolyline
 90
2
 70
0
 10
46.434250
 20
282.438178
 30
0.0
 10
172.512750
 20
282.438178
 30
0.0
  0
SPLINE
  5
11b
100
AcDbEntity
  8
Ebene_1
 62
7
100
AcDbSpline
 70
8
 71
3
 72
8
 73
4
 74
0
 40
0
 40
0
 40
0
 40
0
 40
1
 40
1
 40
1
 40
1
 10
200.618700
 20
44.524260
 30
0.0
 10
200.618700
 20
28.916080
 30
0.0
 10
188.142030
 20
16.456260
 30
0.0
 10
172.512750
 20
16.456260
 30
0.0
  0
LWPOLYLINE
  5
11c
100
AcDbEntity
  8
Ebene_1
 62
7
100
AcDbPolyline
 90
2
 70
0
 10
200.618700
 20
254.370172
 30
0.0
 10
200.618700
 20
44.524260
 30
0.0
  0
SPLINE
  5
11d
100
AcDbEntity
  8
Ebene_1
 62
7
100
AcDbSpline
 70
8
 71
3
 72
8
 73
4
 74
0
 40
0
 40
0
 40
0
 40
0
 40
1
 40
1
 40
1
 40
1
 10
46.434250
 20
16.456260
 30
0.0
 10
30.804960
 20
16.456260
 30
0.0
 10
18.328300
 20
28.916080
 30
0.0
 10
18.328300
 20
44.524260
 30
0.0
  0
LWPOLYLINE
  5
11e
100
AcDbEntity
  8
Ebene_1
 62
7
100
AcDbPolyline
 90
2
 70
0
 10
172.512750
 20
16.456260
 30
0.0
 10
46.434250
 20
16.456260
 30
0.0
  0
SPLINE
  5
11f
100
AcDbEntity
  8
Ebene_1
 62
7
100
AcDbSpline
 70
8
 71
3
 72
8
 73
4
 74
0
 40
0
 40
0
 40
0
 40
0
 40
1
 40
1
 40
1
 40
1
 10
18.328300
 20
254.370172
 30
0.0
 10
18.328300
 20
269.978344
 30
0.0
 10
30.804960
 20
282.438178
 30
0.0
 10
46.434250
 20
282.438178
 30
0.0
  0
LWPOLYLINE
  5
120
100
AcDbEntity
  8
Ebene_1
 62
7
100
AcDbPolyline
 90
2
 70
0
 10
18.328300
 20
44.524260
 30
0.0
 10
18.328300
 20
254.370172
 30
0.0
  0
SPLINE
  5
121
100
AcDbEntity
  8
Ebene_1
 62
7
100
AcDbSpline
 70
8
 71
3
 72
8
 73
4
 74
0
 40
0
 40
0
 40
0
 40
0
 40
1
 40
1
 40
1
 40
1
 10
284.708320
 20
24.622040
 30
0.0
 10
284.708320
 20
23.958999
 30
0.0
 10
284.444928
 20
23.323114
 30
0.0
 10
283.976087
 20
22.854273
 30
0.0
  0
SPLINE
  5
122
100
AcDbEntity
  8
Ebene_1
 62
7
100
AcDbSpline
 70
8
 71
3
 72
8
 73
4
 74
0
 40
0
 40
0
 40
0
 40
0
 40
1
 40
1
 40
1
 40
1
 10
283.976087
 20
22.854273
 30
0.0
 10
283.507246
 20
22.385432
 30
0.0
 10
282.871361
 20
22.122040
 30
0.0
 10
282.208320
 20
22.122040
 30
0.0
  0
SPLINE
  5
123
100
AcDbEntity
  8
Ebene_1
 62
7
100
AcDbSpline
 70
8
 71
3
 72
8
 73
4
 74
0
 40
0
 40
0
 40
0
 40
0
 40
1
 40
1
 40
1
 40
1
 10
282.208320
 20
22.122040
 30
0.0
 10
281.545279
 20
22.122040
 30
0.0
 10
280.909394
 20
22.385432
 30
0.0
 10
280.440553
 20
22.854273
 30
0.0
  0
SPLINE
  5
124
100
AcDbEntity
  8
Ebene_1
 62
7
100
AcDbSpline
 70
8
 71
3
 72
8
 73
4
 74
0
 40
0
 40
0
 40
0
 40
0
 40
1
 40
1
 40
1
 40
1
 10
280.440553
 20
22.854273
 30
0.0
 10
279.971712
 20
23.323114
 30
0.0
 10
279.708320
 20
23.958999
 30
0.0
 10
279.708320
 20
24.622040
 30
0.0
  0
SPLINE
  5
125
100
AcDbEntity
  8
Ebene_1
 62
7
100
AcDbSpline
 70
8
 71
3
 72
8
 73
4
 74
0
 40
0
 40
0
 40
0
 40
0
 40
1
 40
1
 40
1
 40
1
 10
279.708320
 20
24.622040
 30
0.0
 10
279.708320
 20
25.285081
 30
0.0
 10
279.971712
 20
25.920966
 30
0.0
 10
280.440553
 20
26.389807
 30
0.0
  0
SPLINE
  5
126
100
AcDbEntity
  8
Ebene_1
 62
7
100
AcDbSpline
 70
8
 71
3
 72
8
 73
4
 74
0
 40
0
 40
0
 40
0
 40
0
 40
1
 40
1
 40
1
 40
1
 10
280.440553
 20
26.389807
 30
0.0
 10
280.909394
 20
26.858648
 30
0.0
 10
281.545279
 20
27.122040
 30
0.0
 10
282.208320
 20
27.122040
 30
0.0
  0
SPLINE
  5
127
100
AcDbEntity
  8
Ebene_1
 62
7
100
AcDbSpline
 70
8
 71
3
 72
8
 73
4
 74
0
 40
0
 40
0
 40
0
 40
0
 40
1
 40
1
 40
1
 40
1
 10
282.208320
 20
27.122040
 30
0.0
 10
282.871361
 20
27.122040
 30
0.0
 10
283.507246
 20
26.858648
 30
0.0
 10
283.976087
 20
26.389807
 30
0.0
  0
SPLINE
  5
128
100
AcDbEntity
  8
Ebene_1
 62
7
100
AcDbSpline
 70
8
 71
3
 72
8
 73
4
 74
0
 40
0
 40
0
 40
0
 40
0
 40
1
 40
1
 40
1
 40
1
 10
283.976087
 20
26.389807
 30
0.0
 10
284.444928
 20
25.920966
 30
0.0
 10
284.708320
 20
25.285081
 30
0.0
 10
284.708320
 20
24.622040
 30
0.0
  0
LWPOLYLINE
  5
129
100
AcDbEntity
  8
Ebene_1
 62
7
100
AcDbPolyline
 90
1
 70
1
 10
46.434250
 20
282.438178
 30
0.0
  0
SPLINE
  5
12a
100
AcDbEntity
  8
Ebene_1
 62
7
100
AcDbSpline
 70
8
 71
3
 72
8
 73
4
 74
0
 40
0
 40
0
 40
0
 40
0
 40
1
 40
1
 40
1
 40
1
 10
439.622000
 20
24.913700
 30
0.0
 10
439.622000
 20
24.250659
 30
0.0
 10
439.358608
 20
23.614774
 30
0.0
 10
438.889767
 20
23.145933
 30
0.0
  0
SPLINE
  5
12b
100
AcDbEntity
  8
Ebene_1
 62
7
100
AcDbSpline
 70
8
 71
3
 72
8
 73
4
 74
0
 40
0
 40
0
 40
0
 40
0
 40
1
 40
1
 40
1
 40
1
 10
438.889767
 20
23.145933
 30
0.0
 10
438.420926
 20
22.677092
 30
0.0
 10
437.785041
 20
22.413700
 30
0.0
 10
437.122000
 20
22.413700
 30
0.0
  0
SPLINE
  5
12c
100
AcDbEntity
  8
Ebene_1
 62
7
100
AcDbSpline
 70
8
 71
3
 72
8
 73
4
 74
0
 40
0
 40
0
 40
0
 40
0
 40
1
 40
1
 40
1
 40
1
 10
437.122000
 20
22.413700
 30
0.0
 10
436.458959
 20
22.413700
 30
0.0
 10
435.823074
 20
22.677092
 30
0.0
 10
435.354233
 20
23.145933
 30
0.0
  0
SPLINE
  5
12d
100
AcDbEntity
  8
Ebene_1
 62
7
100
AcDbSpline
 70
8
 71
3
 72
8
 73
4
 74
0
 40
0
 40
0
 40
0
 40
0
 40
1
 40
1
 40
1
 40
1
 10
435.354233
 20
23.145933
 30
0.0
 10
434.885392
 20
23.614774
 30
0.0
 10
434.622000
 20
24.250659
 30
0.0
 10
434.622000
 20
24.913700
 30
0.0
  0
SPLINE
  5
12e
100
AcDbEntity
  8
Ebene_1
 62
7
100
AcDbSpline
 70
8
 71
3
 72
8
 73
4
 74
0
 40
0
 40
0
 40
0
 40
0
 40
1
 40
1
 40
1
 40
1
 10
434.622000
 20
24.913700
 30
0.0
 10
434.622000
 20
25.576741
 30
0.0
 10
434.885392
 20
26.212626
 30
0.0
 10
435.354233
 20
26.681467
 30
0.0
  0
SPLINE
  5
12f
100
AcDbEntity
  8
Ebene_1
 62
7
100
AcDbSpline
 70
8
 71
3
 72
8
 73
4
 74
0
 40
0
 40
0
 40
0
 40
0
 40
1
 40
1
 40
1
 40
1
 10
435.354233
 20
26.681467
 30
0.0
 10
435.823074
 20
27.150308
 30
0.0
 10
436.458959
 20
27.413700
 30
0.0
 10
437.122000
 20
27.413700
 30
0.0
  0
SPLINE
  5
130
100
AcDbEntity
  8
Ebene_1
 62
7
100
AcDbSpline
 70
8
 71
3
 72
8
 73
4
 74
0
 40
0
 40
0
 40
0
 40
0
 40
1
 40
1
 40
1
 40
1
 10
437.122000
 20
27.413700
 30
0.0
 10
437.785041
 20
27.413700
 30
0.0
 10
438.420926
 20
27.150308
 30
0.0
 10
438.889767
 20
26.681467
 30
0.0
  0
SPLINE
  5
131
100
AcDbEntity
  8
Ebene_1
 62
7
100
AcDbSpline
 70
8
 71
3
 72
8
 73
4
 74
0
 40
0
 40
0
 40
0
 40
0
 40
1
 40
1
 40
1
 40
1
 10
438.889767
 20
26.681467
 30
0.0
 10
439.358608
 20
26.212626
 30
0.0
 10
439.622000
 20
25.576741
 30
0.0
 10
439.622000
 20
24.913700
 30
0.0
  0
LWPOLYLINE
  5
132
100
AcDbEntity
  8
Ebene_1
 62
7
100
AcDbPolyline
 90
1
 70
1
 10
284.708320
 20
24.622040
 30
0.0
  0
SPLINE
  5
133
100
AcDbEntity
  8
Ebene_1
 62
7
100
AcDbSpline
 70
8
 71
3
 72
8
 73
4
 74
0
 40
0
 40
0
 40
0
 40
0
 40
1
 40
1
 40
1
 40
1
 10
439.999975
 20
260.000009
 30
0.0
 10
439.999975
 20
259.336968
 30
0.0
 10
439.736583
 20
258.701083
 30
0.0
 10
439.267742
 20
258.232242
 30
0.0
  0
SPLINE
  5
134
100
AcDbEntity
  8
Ebene_1
 62
7
100
AcDbSpline
 70
8
 71
3
 72
8
 73
4
 74
0
 40
0
 40
0
 40
0
 40
0
 40
1
 40
1
 40
1
 40
1
 10
439.267742
 20
258.232242
 30
0.0
 10
438.798901
 20
257.763401
 30
0.0
 10
438.163016
 20
257.500009
 30
0.0
 10
437.499975
 20
257.500009
 30
0.0
  0
SPLINE
  5
135
100
AcDbEntity
  8
Ebene_1
 62
7
100
AcDbSpline
 70
8
 71
3
 72
8
 73
4
 74
0
 40
0
 40
0
 40
0
 40
0
 40
1
 40
1
 40
1
 40
1
 10
437.499975
 20
257.500009
 30
0.0
 10
436.836934
 20
257.500009
 30
0.0
 10
436.201049
 20
257.763401
 30
0.0
 10
435.732208
 20
258.232242
 30
0.0
  0
SPLINE
  5
136
100
AcDbEntity
  8
Ebene_1
 62
7
100
AcDbSpline
 70
8
 71
3
 72
8
 73
4
 74
0
 40
0
 40
0
 40
0
 40
0
 40
1
 40
1
 40
1
 40
1
 10
435.732208
 20
258.232242
 30
0.0
 10
435.263367
 20
258.701083
 30
0.0
 10
434.999975
 20
259.336968
 30
0.0
 10
434.999975
 20
260.000009
 30
0.0
  0
SPLINE
  5
137
100
AcDbEntity
  8
Ebene_1
 62
7
100
AcDbSpline
 70
8
 71
3
 72
8
 73
4
 74
0
 40
0
 40
0
 40
0
 40
0
 40
1
 40
1
 40
1
 40
1
 10
434.999975
 20
260.000009
 30
0.0
 10
434.999975
 20
260.663050
 30
0.0
 10
435.263367
 20
261.298935
 30
0.0
 10
435.732208
 20
261.767776
 30
0.0
  0
SPLINE
  5
138
100
AcDbEntity
  8
Ebene_1
 62
7
100
AcDbSpline
 70
8
 71
3
 72
8
 73
4
 74
0
 40
0
 40
0
 40
0
 40
0
 40
1
 40
1
 40
1
 40
1
 10
435.732208
 20
261.767776
 30
0.0
 10
436.201049
 20
262.236617
 30
0.0
 10
436.836934
 20
262.500009
 30
0.0
 10
437.499975
 20
262.500009
 30
0.0
  0
SPLINE
  5
139
100
AcDbEntity
  8
Ebene_1
 62
7
100
AcDbSpline
 70
8
 71
3
 72
8
 73
4
 74
0
 40
0
 40
0
 40
0
 40
0
 40
1
 40
1
 40
1
 40
1
 10
437.499975
 20
262.500009
 30
0.0
 10
438.163016
 20
262.500009
 30
0.0
 10
438.798901
 20
262.236617
 30
0.0
 10
439.267742
 20
261.767776
 30
0.0
  0
SPLINE
  5
13a
100
AcDbEntity
  8
Ebene_1
 62
7
100
AcDbSpline
 70
8
 71
3
 72
8
 73
4
 74
0
 40
0
 40
0
 40
0
 40
0
 40
1
 40
1
 40
1
 40
1
 10
439.267742
 20
261.767776
 30
0.0
 10
439.736583
 20
261.298935
 30
0.0
 10
439.999975
 20
260.663050
 30
0.0
 10
439.999975
 20
260.000009
 30
0.0
  0
LWPOLYLINE
  5
13b
100
AcDbEntity
  8
Ebene_1
 62
7
100
AcDbPolyline
 90
1
 70
1
 10
439.622000
 20
24.913700
 30
0.0
  0
SPLINE
  5
13c
100
AcDbEntity
  8
Ebene_1
 62
7
100
AcDbSpline
 70
8
 71
3
 72
8
 73
4
 74
0
 40
0
 40
0
 40
0
 40
0
 40
1
 40
1
 40
1
 40
1
 10
284.999980
 20
260.000009
 30
0.0
 10
284.999980
 20
259.336968
 30
0.0
 10
284.736588
 20
258.701083
 30
0.0
 10
284.267747
 20
258.232242
 30
0.0
  0
SPLINE
  5
13d
100
AcDbEntity
  8
Ebene_1
 62
7
100
AcDbSpline
 70
8
 71
3
 72
8
 73
4
 74
0
 40
0
 40
0
 40
0
 40
0
 40
1
 40
1
 40
1
 40
1
 10
284.267747
 20
258.232242
 30
0.0
 10
283.798906
 20
257.763401
 30
0.0
 10
283.163021
 20
257.500009
 30
0.0
 10
282.499980
 20
257.500009
 30
0.0
  0
SPLINE
  5
13e
100
AcDbEntity
  8
Ebene_1
 62
7
100
AcDbSpline
 70
8
 71
3
 72
8
 73
4
 74
0
 40
0
 40
0
 40
0
 40
0
 40
1
 40
1
 40
1
 40
1
 10
282.499980
 20
257.500009
 30
0.0
 10
281.836939
 20
257.500009
 30
0.0
 10
281.201054
 20
257.763401
 30
0.0
 10
280.732213
 20
258.232242
 30
0.0
  0
SPLINE
  5
13f
100
AcDbEntity
  8
Ebene_1
 62
7
100
AcDbSpline
 70
8
 71
3
 72
8
 73
4
 74
0
 40
0
 40
0
 40
0
 40
0
 40
1
 40
1
 40
1
 40
1
 10
280.732213
 20
258.232242
 30
0.0
 10
280.263372
 20
258.701083
 30
0.0
 10
279.999980
 20
259.336968
 30
0.0
 10
279.999980
 20
260.000009
 30
0.0
  0
SPLINE
  5
140
100
AcDbEntity
  8
Ebene_1
 62
7
100
AcDbSpline
 70
8
 71
3
 72
8
 73
4
 74
0
 40
0
 40
0
 40
0
 40
0
 40
1
 40
1
 40
1
 40
1
 10
279.999980
 20
260.000009
 30
0.0
 10
279.999980
 20
260.663050
 30
0.0
 10
280.263372
 20
261.298935
 30
0.0
 10
280.732213
 20
261.767776
 30
0.0
  0
SPLINE
  5
141
100
AcDbEntity
  8
Ebene_1
 62
7
100
AcDbSpline
 70
8
 71
3
 72
8
 73
4
 74
0
 40
0
 40
0
 40
0
 40
0
 40
1
 40
1
 40
1
 40
1
 10
280.732213
 20
261.767776
 30
0.0
 10
281.201054
 20
262.236617
 30
0.0
 10
281.836939
 20
262.500009
 30
0.0
 10
282.499980
 20
262.500009
 30
0.0
  0
SPLINE
  5
142
100
AcDbEntity
  8
Ebene_1
 62
7
100
AcDbSpline
 70
8
 71
3
 72
8
 73
4
 74
0
 40
0
 40
0
 40
0
 40
0
 40
1
 40
1
 40
1
 40
1
 10
282.499980
 20
262.500009
 30
0.0
 10
283.163021
 20
262.500009
 30
0.0
 10
283.798906
 20
262.236617
 30
0.0
 10
284.267747
 20
261.767776
 30
0.0
  0
SPLINE
  5
143
100
AcDbEntity
  8
Ebene_1
 62
7
100
AcDbSpline
 70
8
 71
3
 72
8
 73
4
 74
0
 40
0
 40
0
 40
0
 40
0
 40
1
 40
1
 40
1
 40
1
 10
284.267747
 20
261.767776
 30
0.0
 10
284.736588
 20
261.298935
 30
0.0
 10
284.999980
 20
260.663050
 30
0.0
 10
284.999980
 20
260.000009
 30
0.0
  0
LWPOLYLINE
  5
144
100
AcDbEntity
  8
Ebene_1
 62
7
100
AcDbPolyline
 90
1
 70
1
 10
439.999975
 20
260.000009
 30
0.0
  0
SPLINE
  5
145
100
AcDbEntity
  8
Ebene_1
 62
7
100
AcDbSpline
 70
8
 71
3
 72
8
 73
4
 74
0
 40
0
 40
0
 40
0
 40
0
 40
1
 40
1
 40
1
 40
1
 10
109.394750
 20
91.913260
 30
0.0
 10
109.200740
 20
92.936460
 30
0.0
 10
92.506593
 20
186.139060
 30
0.0
 10
92.506593
 20
186.199010
 30
0.0
  0
SPLINE
  5
146
100
AcDbEntity
  8
Ebene_1
 62
7
100
AcDbSpline
 70
8
 71
3
 72
8
 73
4
 74
0
 40
0
 40
0
 40
0
 40
0
 40
1
 40
1
 40
1
 40
1
 10
92.506593
 20
186.199010
 30
0.0
 10
92.506593
 20
186.284210
 30
0.0
 10
87.575863
 20
186.159510
 30
0.0
 10
85.097433
 20
186.011670
 30
0.0
  0
SPLINE
  5
147
100
AcDbEntity
  8
Ebene_1
 62
7
100
AcDbSpline
 70
8
 71
3
 72
8
 73
4
 74
0
 40
0
 40
0
 40
0
 40
0
 40
1
 40
1
 40
1
 40
1
 10
85.097433
 20
186.011670
 30
0.0
 10
77.721773
 20
185.571820
 30
0.0
 10
73.928263
 20
184.280210
 30
0.0
 10
72.094763
 20
181.584540
 30
0.0
  0
SPLINE
  5
148
100
AcDbEntity
  8
Ebene_1
 62
7
100
AcDbSpline
 70
8
 71
3
 72
8
 73
4
 74
0
 40
0
 40
0
 40
0
 40
0
 40
1
 40
1
 40
1
 40
1
 10
72.094763
 20
181.584540
 30
0.0
 10
71.418763
 20
180.590660
 30
0.0
 10
71.136543
 20
179.882000
 30
0.0
 10
70.841513
 20
178.437860
 30
0.0
  0
SPLINE
  5
149
100
AcDbEntity
  8
Ebene_1
 62
7
100
AcDbSpline
 70
8
 71
3
 72
8
 73
4
 74
0
 40
0
 40
0
 40
0
 40
0
 40
1
 40
1
 40
1
 40
1
 10
70.841513
 20
178.437860
 30
0.0
 10
70.721643
 20
177.851090
 30
0.0
 10
70.601703
 20
177.349140
 30
0.0
 10
70.574993
 20
177.322430
 30
0.0
  0
SPLINE
  5
14a
100
AcDbEntity
  8
Ebene_1
 62
7
100
AcDbSpline
 70
8
 71
3
 72
8
 73
4
 74
0
 40
0
 40
0
 40
0
 40
0
 40
1
 40
1
 40
1
 40
1
 10
70.574993
 20
177.322430
 30
0.0
 10
70.485193
 20
177.232630
 30
0.0
 10
67.420033
 20
178.689060
 30
0.0
 10
65.884283
 20
179.551260
 30
0.0
  0
SPLINE
  5
14b
100
AcDbEntity
  8
Ebene_1
 62
7
100
AcDbSpline
 70
8
 71
3
 72
8
 73
4
 74
0
 40
0
 40
0
 40
0
 40
0
 40
1
 40
1
 40
1
 40
1
 10
65.884283
 20
179.551260
 30
0.0
 10
61.290833
 20
182.130110
 30
0.0
 10
57.684613
 20
185.115990
 30
0.0
 10
55.231383
 20
188.371690
 30
0.0
  0
SPLINE
  5
14c
100
AcDbEntity
  8
Ebene_1
 62
7
100
AcDbSpline
 70
8
 71
3
 72
8
 73
4
 74
0
 40
0
 40
0
 40
0
 40
0
 40
1
 40
1
 40
1
 40
1
 10
55.231383
 20
188.371690
 30
0.0
 10
54.870963
 20
188.849990
 30
0.0
 10
54.576083
 20
189.280490
 30
0.0
 10
54.576083
 20
189.328340
 30
0.0
  0
SPLINE
  5
14d
100
AcDbEntity
  8
Ebene_1
 62
7
100
AcDbSpline
 70
8
 71
3
 72
8
 73
4
 74
0
 40
0
 40
0
 40
0
 40
0
 40
1
 40
1
 40
1
 40
1
 10
54.576083
 20
189.328340
 30
0.0
 10
54.576083
 20
189.376240
 30
0.0
 10
54.762703
 20
189.492580
 30
0.0
 10
54.990773
 20
189.586960
 30
0.0
  0
SPLINE
  5
14e
100
AcDbEntity
  8
Ebene_1
 62
7
100
AcDbSpline
 70
8
 71
3
 72
8
 73
4
 74
0
 40
0
 40
0
 40
0
 40
0
 40
1
 40
1
 40
1
 40
1
 10
54.990773
 20
189.586960
 30
0.0
 10
55.218853
 20
189.681360
 30
0.0
 10
56.201683
 20
190.104960
 30
0.0
 10
57.174823
 20
190.528330
 30
0.0
  0
SPLINE
  5
14f
100
AcDbEntity
  8
Ebene_1
 62
7
100
AcDbSpline
 70
8
 71
3
 72
8
 73
4
 74
0
 40
0
 40
0
 40
0
 40
0
 40
1
 40
1
 40
1
 40
1
 10
57.174823
 20
190.528330
 30
0.0
 10
68.324603
 20
195.378990
 30
0.0
 10
82.817633
 20
198.769500
 30
0.0
 10
95.824133
 20
199.569980
 30
0.0
  0
LWPOLYLINE
  5
150
100
AcDbEntity
  8
Ebene_1
 62
7
100
AcDbPolyline
 90
1
 70
1
 10
284.999980
 20
260.000009
 30
0.0
  0
SPLINE
  5
151
100
AcDbEntity
  8
Ebene_1
 62
7
100
AcDbSpline
 70
8
 71
3
 72
8
 73
4
 74
0
 40
0
 40
0
 40
0
 40
0
 40
1
 40
1
 40
1
 40
1
 10
103.217720
 20
192.046990
 30
0.0
 10
106.645560
 20
187.870010
 30
0.0
 10
109.488090
 20
184.494340
 30
0.0
 10
109.534430
 20
184.545480
 30
0.0
  0
SPLINE
  5
152
100
AcDbEntity
  8
Ebene_1
 62
7
100
AcDbSpline
 70
8
 71
3
 72
8
 73
4
 74
0
 40
0
 40
0
 40
0
 40
0
 40
1
 40
1
 40
1
 40
1
 10
109.534430
 20
184.545480
 30
0.0
 10
109.580830
 20
184.596580
 30
0.0
 10
112.362900
 20
187.982620
 30
0.0
 10
115.716880
 20
192.069900
 30
0.0
  0
SPLINE
  5
153
100
AcDbEntity
  8
Ebene_1
 62
7
100
AcDbSpline
 70
8
 71
3
 72
8
 73
4
 74
0
 40
0
 40
0
 40
0
 40
0
 40
1
 40
1
 40
1
 40
1
 10
115.716880
 20
192.069900
 30
0.0
 10
119.070890
 20
196.157180
 30
0.0
 10
121.866310
 20
199.532970
 30
0.0
 10
121.928910
 20
199.571680
 30
0.0
  0
SPLINE
  5
154
100
AcDbEntity
  8
Ebene_1
 62
7
100
AcDbSpline
 70
8
 71
3
 72
8
 73
4
 74
0
 40
0
 40
0
 40
0
 40
0
 40
1
 40
1
 40
1
 40
1
 10
121.928910
 20
199.571680
 30
0.0
 10
122.059530
 20
199.652380
 30
0.0
 10
124.848920
 20
199.472480
 30
0.0
 10
127.285450
 20
199.226200
 30
0.0
  0
SPLINE
  5
155
100
AcDbEntity
  8
Ebene_1
 62
7
100
AcDbSpline
 70
8
 71
3
 72
8
 73
4
 74
0
 40
0
 40
0
 40
0
 40
0
 40
1
 40
1
 40
1
 40
1
 10
127.285450
 20
199.226200
 30
0.0
 10
137.560650
 20
198.187550
 30
0.0
 10
147.880510
 20
195.809870
 30
0.0
 10
157.253860
 20
192.321480
 30
0.0
  0
SPLINE
  5
156
100
AcDbEntity
  8
Ebene_1
 62
7
100
AcDbSpline
 70
8
 71
3
 72
8
 73
4
 74
0
 40
0
 40
0
 40
0
 40
0
 40
1
 40
1
 40
1
 40
1
 10
157.253860
 20
192.321480
 30
0.0
 10
159.466010
 20
191.498200
 30
0.0
 10
163.024380
 20
190.028790
 30
0.0
 10
163.952420
 20
189.555340
 30
0.0
  0
LWPOLYLINE
  5
157
100
AcDbEntity
  8
Ebene_1
 62
7
100
AcDbPolyline
 90
3
 70
0
 10
95.824133
 20
199.569980
 30
0.0
 10
96.985263
 20
199.641480
 30
0.0
 10
103.217720
 20
192.046990
 30
0.0
  0
SPLINE
  5
158
100
AcDbEntity
  8
Ebene_1
 62
7
100
AcDbSpline
 70
8
 71
3
 72
8
 73
4
 74
0
 40
0
 40
0
 40
0
 40
0
 40
1
 40
1
 40
1
 40
1
 10
163.826720
 20
188.565240
 30
0.0
 10
161.653330
 20
185.577080
 30
0.0
 10
158.246120
 20
182.640590
 30
0.0
 10
154.026640
 20
180.119020
 30
0.0
  0
SPLINE
  5
159
100
AcDbEntity
  8
Ebene_1
 62
7
100
AcDbSpline
 70
8
 71
3
 72
8
 73
4
 74
0
 40
0
 40
0
 40
0
 40
0
 40
1
 40
1
 40
1
 40
1
 10
154.026640
 20
180.119020
 30
0.0
 10
152.866190
 20
179.425530
 30
0.0
 10
149.024730
 20
177.497450
 30
0.0
 10
148.500960
 20
177.345590
 30
0.0
  0
SPLINE
  5
15a
100
AcDbEntity
  8
Ebene_1
 62
7
100
AcDbSpline
 70
8
 71
3
 72
8
 73
4
 74
0
 40
0
 40
0
 40
0
 40
0
 40
1
 40
1
 40
1
 40
1
 10
148.500960
 20
177.345590
 30
0.0
 10
148.284810
 20
177.282890
 30
0.0
 10
148.255830
 20
177.329990
 30
0.0
 10
148.183920
 20
177.861180
 30
0.0
  0
SPLINE
  5
15b
100
AcDbEntity
  8
Ebene_1
 62
7
100
AcDbSpline
 70
8
 71
3
 72
8
 73
4
 74
0
 40
0
 40
0
 40
0
 40
0
 40
1
 40
1
 40
1
 40
1
 10
148.183920
 20
177.861180
 30
0.0
 10
148.140420
 20
178.182680
 30
0.0
 10
147.983190
 20
178.867380
 30
0.0
 10
147.834580
 20
179.382730
 30
0.0
  0
SPLINE
  5
15c
100
AcDbEntity
  8
Ebene_1
 62
7
100
AcDbSpline
 70
8
 71
3
 72
8
 73
4
 74
0
 40
0
 40
0
 40
0
 40
0
 40
1
 40
1
 40
1
 40
1
 10
147.834580
 20
179.382730
 30
0.0
 10
146.664300
 20
183.441010
 30
0.0
 10
143.206540
 20
185.243060
 30
0.0
 10
135.302830
 20
185.913780
 30
0.0
  0
SPLINE
  5
15d
100
AcDbEntity
  8
Ebene_1
 62
7
100
AcDbSpline
 70
8
 71
3
 72
8
 73
4
 74
0
 40
0
 40
0
 40
0
 40
0
 40
1
 40
1
 40
1
 40
1
 10
135.302830
 20
185.913780
 30
0.0
 10
133.581880
 20
186.059820
 30
0.0
 10
126.424560
 20
186.247240
 30
0.0
 10
126.334630
 20
186.148610
 30
0.0
  0
SPLINE
  5
15e
100
AcDbEntity
  8
Ebene_1
 62
7
100
AcDbSpline
 70
8
 71
3
 72
8
 73
4
 74
0
 40
0
 40
0
 40
0
 40
0
 40
1
 40
1
 40
1
 40
1
 10
126.334630
 20
186.148610
 30
0.0
 10
126.288630
 20
186.098210
 30
0.0
 10
112.471730
 20
108.589490
 30
0.0
 10
109.555740
 20
92.023870
 30
0.0
  0
LWPOLYLINE
  5
15f
100
AcDbEntity
  8
Ebene_1
 62
7
100
AcDbPolyline
 90
3
 70
0
 10
163.952420
 20
189.555340
 30
0.0
 10
164.385980
 20
189.334150
 30
0.0
 10
163.826720
 20
188.565240
 30
0.0
  0
SPLINE
  5
160
100
AcDbEntity
  8
Ebene_1
 62
7
100
AcDbSpline
 70
8
 71
3
 72
8
 73
4
 74
0
 40
0
 40
0
 40
0
 40
0
 40
1
 40
1
 40
1
 40
1
 10
164.386570
 20
193.509690
 30
0.0
 10
151.179040
 20
199.079910
 30
0.0
 10
136.173720
 20
202.624422
 30
0.0
 10
121.203300
 20
203.710322
 30
0.0
  0
SPLINE
  5
161
100
AcDbEntity
  8
Ebene_1
 62
7
100
AcDbSpline
 70
8
 71
3
 72
8
 73
4
 74
0
 40
0
 40
0
 40
0
 40
0
 40
1
 40
1
 40
1
 40
1
 10
121.203300
 20
203.710322
 30
0.0
 10
116.393620
 20
204.059197
 30
0.0
 10
106.401550
 20
204.173445
 30
0.0
 10
101.563100
 20
203.934885
 30
0.0
  0
SPLINE
  5
162
100
AcDbEntity
  8
Ebene_1
 62
7
100
AcDbSpline
 70
8
 71
3
 72
8
 73
4
 74
0
 40
0
 40
0
 40
0
 40
0
 40
1
 40
1
 40
1
 40
1
 10
101.563100
 20
203.934885
 30
0.0
 10
84.795633
 20
203.108159
 30
0.0
 10
69.369253
 20
199.691060
 30
0.0
 10
54.543613
 20
193.519570
 30
0.0
  0
SPLINE
  5
163
100
AcDbEntity
  8
Ebene_1
 62
7
100
AcDbSpline
 70
8
 71
3
 72
8
 73
4
 74
0
 40
0
 40
0
 40
0
 40
0
 40
1
 40
1
 40
1
 40
1
 10
54.543613
 20
193.519570
 30
0.0
 10
53.522183
 20
193.094380
 30
0.0
 10
52.622883
 20
192.770910
 30
0.0
 10
52.545163
 20
192.800730
 30
0.0
  0
SPLINE
  5
164
100
AcDbEntity
  8
Ebene_1
 62
7
100
AcDbSpline
 70
8
 71
3
 72
8
 73
4
 74
0
 40
0
 40
0
 40
0
 40
0
 40
1
 40
1
 40
1
 40
1
 10
52.545163
 20
192.800730
 30
0.0
 10
52.467463
 20
192.830630
 30
0.0
 10
51.827953
 20
194.016920
 30
0.0
 10
51.124093
 20
195.437110
 30
0.0
  0
SPLINE
  5
165
100
AcDbEntity
  8
Ebene_1
 62
7
100
AcDbSpline
 70
8
 71
3
 72
8
 73
4
 74
0
 40
0
 40
0
 40
0
 40
0
 40
1
 40
1
 40
1
 40
1
 10
51.124093
 20
195.437110
 30
0.0
 10
49.807203
 20
198.094190
 30
0.0
 10
49.193503
 20
199.474480
 30
0.0
 10
49.287313
 20
199.568290
 30
0.0
  0
SPLINE
  5
166
100
AcDbEntity
  8
Ebene_1
 62
7
100
AcDbSpline
 70
8
 71
3
 72
8
 73
4
 74
0
 40
0
 40
0
 40
0
 40
0
 40
1
 40
1
 40
1
 40
1
 10
49.287313
 20
199.568290
 30
0.0
 10
49.383313
 20
199.664190
 30
0.0
 10
53.249743
 20
201.124936
 30
0.0
 10
55.516053
 20
201.921418
 30
0.0
  0
SPLINE
  5
167
100
AcDbEntity
  8
Ebene_1
 62
7
100
AcDbSpline
 70
8
 71
3
 72
8
 73
4
 74
0
 40
0
 40
0
 40
0
 40
0
 40
1
 40
1
 40
1
 40
1
 10
55.516053
 20
201.921418
 30
0.0
 10
76.761893
 20
209.388175
 30
0.0
 10
99.451883
 20
212.482406
 30
0.0
 10
120.926840
 20
210.841473
 30
0.0
  0
SPLINE
  5
168
100
AcDbEntity
  8
Ebene_1
 62
7
100
AcDbSpline
 70
8
 71
3
 72
8
 73
4
 74
0
 40
0
 40
0
 40
0
 40
0
 40
1
 40
1
 40
1
 40
1
 10
120.926840
 20
210.841473
 30
0.0
 10
136.988810
 20
209.614152
 30
0.0
 10
152.126440
 20
206.226054
 30
0.0
 10
167.535550
 20
200.409527
 30
0.0
  0
SPLINE
  5
169
100
AcDbEntity
  8
Ebene_1
 62
7
100
AcDbSpline
 70
8
 71
3
 72
8
 73
4
 74
0
 40
0
 40
0
 40
0
 40
0
 40
1
 40
1
 40
1
 40
1
 10
167.535550
 20
200.409527
 30
0.0
 10
168.682800
 20
199.976480
 30
0.0
 10
169.641170
 20
199.602450
 30
0.0
 10
169.665260
 20
199.578350
 30
0.0
  0
SPLINE
  5
16a
100
AcDbEntity
  8
Ebene_1
 62
7
100
AcDbSpline
 70
8
 71
3
 72
8
 73
4
 74
0
 40
0
 40
0
 40
0
 40
0
 40
1
 40
1
 40
1
 40
1
 10
169.665260
 20
199.578350
 30
0.0
 10
169.791220
 20
199.452390
 30
0.0
 10
166.710150
 20
193.020450
 30
0.0
 10
166.397950
 20
192.757630
 30
0.0
  0
SPLINE
  5
16b
100
AcDbEntity
  8
Ebene_1
 62
7
100
AcDbSpline
 70
8
 71
3
 72
8
 73
4
 74
0
 40
0
 40
0
 40
0
 40
0
 40
1
 40
1
 40
1
 40
1
 10
166.397950
 20
192.757630
 30
0.0
 10
166.356050
 20
192.722330
 30
0.0
 10
165.450940
 20
193.060790
 30
0.0
 10
164.386570
 20
193.509690
 30
0.0
  0
LWPOLYLINE
  5
16c
100
AcDbEntity
  8
Ebene_1
 62
7
100
AcDbPolyline
 90
3
 70
0
 10
109.555740
 20
92.023870
 30
0.0
 10
109.468140
 20
91.526240
 30
0.0
 10
109.394750
 20
91.913260
 30
0.0
  0
LWPOLYLINE
  5
16d
100
AcDbEntity
  8
Ebene_1
 62
7
100
AcDbPolyline
 90
1
 70
1
 10
164.386570
 20
193.509690
 30
0.0
  0
LWPOLYLINE
  5
16e
100
AcDbEntity
  8
Ebene_1
 62
7
100
AcDbPolyline
 90
9
 70
1
 10
162.713240
 20
234.767814
 30
0.0
 10
162.713240
 20
220.912345
 30
0.0
 10
163.213240
 20
220.912345
 30
0.0
 10
167.998390
 20
220.912345
 30
0.0
 10
167.998390
 20
229.482657
 30
0.0
 10
184.139020
 20
229.482657
 30
0.0
 10
184.139020
 20
220.912345
 30
0.0
 10
189.424180
 20
220.912345
 30
0.0
 10
189.424180
 20
234.767814
 30
0.0
  0
SPLINE
  5
16f
100
AcDbEntity
  8
Ebene_1
 62
7
100
AcDbSpline
 70
8
 71
3
 72
8
 73
4
 74
0
 40
0
 40
0
 40
0
 40
0
 40
1
 40
1
 40
1
 40
1
 10
162.713240
 20
242.838126
 30
0.0
 10
162.713240
 20
241.538877
 30
0.0
 10
163.185300
 20
240.374954
 30
0.0
 10
164.092150
 20
239.443595
 30
0.0
  0
LWPOLYLINE
  5
170
100
AcDbEntity
  8
Ebene_1
 62
7
100
AcDbPolyline
 90
2
 70
0
 10
162.713240
 20
243.338126
 30
0.0
 10
162.713240
 20
242.838126
 30
0.0
  0
SPLINE
  5
171
100
AcDbEntity
  8
Ebene_1
 62
7
100
AcDbSpline
 70
8
 71
3
 72
8
 73
4
 74
0
 40
0
 40
0
 40
0
 40
0
 40
1
 40
1
 40
1
 40
1
 10
164.098150
 20
239.439595
 30
0.0
 10
165.009950
 20
238.527800
 30
0.0
 10
166.179130
 20
238.052876
 30
0.0
 10
167.498540
 20
238.052876
 30
0.0
  0
LWPOLYLINE
  5
172
100
AcDbEntity
  8
Ebene_1
 62
7
100
AcDbPolyline
 90
3
 70
0
 10
164.092150
 20
239.443595
 30
0.0
 10
164.096150
 20
239.441595
 30
0.0
 10
164.098150
 20
239.439595
 30
0.0
  0
SPLINE
  5
173
100
AcDbEntity
  8
Ebene_1
 62
7
100
AcDbSpline
 70
8
 71
3
 72
8
 73
4
 74
0
 40
0
 40
0
 40
0
 40
0
 40
1
 40
1
 40
1
 40
1
 10
184.639170
 20
238.052876
 30
0.0
 10
185.918340
 20
238.052876
 30
0.0
 10
187.070710
 20
238.528415
 30
0.0
 10
188.000500
 20
239.433735
 30
0.0
  0
SPLINE
  5
174
100
AcDbEntity
  8
Ebene_1
 62
7
100
AcDbSpline
 70
8
 71
3
 72
8
 73
4
 74
0
 40
0
 40
0
 40
0
 40
0
 40
1
 40
1
 40
1
 40
1
 10
188.000500
 20
239.433735
 30
0.0
 10
188.935720
 20
240.344347
 30
0.0
 10
189.424330
 20
241.515533
 30
0.0
 10
189.424330
 20
242.838032
 30
0.0
  0
LWPOLYLINE
  5
175
100
AcDbEntity
  8
Ebene_1
 62
7
100
AcDbPolyline
 90
2
 70
0
 10
167.498540
 20
238.052876
 30
0.0
 10
184.639170
 20
238.052876
 30
0.0
  0
LWPOLYLINE
  5
176
100
AcDbEntity
  8
Ebene_1
 62
7
100
AcDbPolyline
 90
3
 70
0
 10
189.424330
 20
242.838032
 30
0.0
 10
189.424330
 20
243.338032
 30
0.0
 10
162.713240
 20
243.338126
 30
0.0
  0
SPLINE
  5
177
100
AcDbEntity
  8
Ebene_1
 62
7
100
AcDbSpline
 70
8
 71
3
 72
8
 73
4
 74
0
 40
0
 40
0
 40
0
 40
0
 40
1
 40
1
 40
1
 40
1
 10
29.521830
 20
242.838126
 30
0.0
 10
29.521830
 20
241.538877
 30
0.0
 10
29.995840
 20
240.374954
 30
0.0
 10
30.902690
 20
239.443595
 30
0.0
  0
LWPOLYLINE
  5
178
100
AcDbEntity
  8
Ebene_1
 62
7
100
AcDbPolyline
 90
2
 70
0
 10
29.521830
 20
243.338126
 30
0.0
 10
29.521830
 20
242.838126
 30
0.0
  0
SPLINE
  5
179
100
AcDbEntity
  8
Ebene_1
 62
7
100
AcDbSpline
 70
8
 71
3
 72
8
 73
4
 74
0
 40
0
 40
0
 40
0
 40
0
 40
1
 40
1
 40
1
 40
1
 10
30.906690
 20
239.439595
 30
0.0
 10
31.818490
 20
238.527799
 30
0.0
 10
32.987670
 20
238.052876
 30
0.0
 10
34.307080
 20
238.052876
 30
0.0
  0
LWPOLYLINE
  5
17a
100
AcDbEntity
  8
Ebene_1
 62
7
100
AcDbPolyline
 90
3
 70
0
 10
30.902690
 20
239.443595
 30
0.0
 10
30.904690
 20
239.441595
 30
0.0
 10
30.906690
 20
239.439595
 30
0.0
  0
SPLINE
  5
17b
100
AcDbEntity
  8
Ebene_1
 62
7
100
AcDbSpline
 70
8
 71
3
 72
8
 73
4
 74
0
 40
0
 40
0
 40
0
 40
0
 40
1
 40
1
 40
1
 40
1
 10
51.447710
 20
238.052970
 30
0.0
 10
52.726880
 20
238.052970
 30
0.0
 10
53.879250
 20
238.528509
 30
0.0
 10
54.809040
 20
239.433829
 30
0.0
  0
SPLINE
  5
17c
100
AcDbEntity
  8
Ebene_1
 62
7
100
AcDbSpline
 70
8
 71
3
 72
8
 73
4
 74
0
 40
0
 40
0
 40
0
 40
0
 40
1
 40
1
 40
1
 40
1
 10
54.809040
 20
239.433829
 30
0.0
 10
55.744260
 20
240.344440
 30
0.0
 10
56.232860
 20
241.515626
 30
0.0
 10
56.232860
 20
242.838126
 30
0.0
  0
LWPOLYLINE
  5
17d
100
AcDbEntity
  8
Ebene_1
 62
7
100
AcDbPolyline
 90
7
 70
0
 10
34.307080
 20
238.052876
 30
0.0
 10
40.234820
 20
238.052876
 30
0.0
 10
40.234820
 20
220.912345
 30
0.0
 10
40.734820
 20
220.912345
 30
0.0
 10
45.519970
 20
220.912345
 30
0.0
 10
45.519970
 20
238.052970
 30
0.0
 10
51.447710
 20
238.052970
 30
0.0
  0
LWPOLYLINE
  5
17e
100
AcDbEntity
  8
Ebene_1
 62
7
100
AcDbPolyline
 90
3
 70
0
 10
56.232860
 20
242.838126
 30
0.0
 10
56.232860
 20
243.338126
 30
0.0
 10
29.521830
 20
243.338126
 30
0.0
  0
SPLINE
  5
17f
100
AcDbEntity
  8
Ebene_1
 62
7
100
AcDbSpline
 70
8
 71
3
 72
8
 73
4
 74
0
 40
0
 40
0
 40
0
 40
0
 40
1
 40
1
 40
1
 40
1
 10
62.818710
 20
225.697501
 30
0.0
 10
62.818710
 20
224.398252
 30
0.0
 10
63.292720
 20
223.234329
 30
0.0
 10
64.199570
 20
222.302970
 30
0.0
  0
LWPOLYLINE
  5
180
100
AcDbEntity
  8
Ebene_1
 62
7
100
AcDbPolyline
 90
2
 70
0
 10
62.818710
 20
226.197501
 30
0.0
 10
62.818710
 20
225.697501
 30
0.0
  0
SPLINE
  5
181
100
AcDbEntity
  8
Ebene_1
 62
7
100
AcDbSpline
 70
8
 71
3
 72
8
 73
4
 74
0
 40
0
 40
0
 40
0
 40
0
 40
1
 40
1
 40
1
 40
1
 10
64.203570
 20
222.297070
 30
0.0
 10
65.115360
 20
221.385274
 30
0.0
 10
66.284540
 20
220.912304
 30
0.0
 10
67.603960
 20
220.912304
 30
0.0
  0
LWPOLYLINE
  5
182
100
AcDbEntity
  8
Ebene_1
 62
7
100
AcDbPolyline
 90
3
 70
0
 10
64.199570
 20
222.302970
 30
0.0
 10
64.201570
 20
222.300970
 30
0.0
 10
64.203570
 20
222.297070
 30
0.0
  0
SPLINE
  5
183
100
AcDbEntity
  8
Ebene_1
 62
7
100
AcDbSpline
 70
8
 71
3
 72
8
 73
4
 74
0
 40
0
 40
0
 40
0
 40
0
 40
1
 40
1
 40
1
 40
1
 10
84.744580
 20
220.912304
 30
0.0
 10
86.023750
 20
220.912304
 30
0.0
 10
87.178080
 20
221.387843
 30
0.0
 10
88.107860
 20
222.293163
 30
0.0
  0
SPLINE
  5
184
100
AcDbEntity
  8
Ebene_1
 62
7
100
AcDbSpline
 70
8
 71
3
 72
8
 73
4
 74
0
 40
0
 40
0
 40
0
 40
0
 40
1
 40
1
 40
1
 40
1
 10
88.107860
 20
222.293163
 30
0.0
 10
89.043090
 20
223.203774
 30
0.0
 10
89.529740
 20
224.374960
 30
0.0
 10
89.529740
 20
225.697460
 30
0.0
  0
LWPOLYLINE
  5
185
100
AcDbEntity
  8
Ebene_1
 62
7
100
AcDbPolyline
 90
2
 70
0
 10
67.603960
 20
220.912304
 30
0.0
 10
84.744580
 20
220.912304
 30
0.0
  0
LWPOLYLINE
  5
186
100
AcDbEntity
  8
Ebene_1
 62
7
100
AcDbPolyline
 90
3
 70
0
 10
89.529740
 20
225.697460
 30
0.0
 10
89.529740
 20
226.197460
 30
0.0
 10
62.818710
 20
226.197501
 30
0.0
  0
SPLINE
  5
187
100
AcDbEntity
  8
Ebene_1
 62
7
100
AcDbSpline
 70
8
 71
3
 72
8
 73
4
 74
0
 40
0
 40
0
 40
0
 40
0
 40
1
 40
1
 40
1
 40
1
 10
62.818710
 20
234.267814
 30
0.0
 10
62.818710
 20
232.968564
 30
0.0
 10
63.292720
 20
231.804642
 30
0.0
 10
64.199570
 20
230.873283
 30
0.0
  0
LWPOLYLINE
  5
188
100
AcDbEntity
  8
Ebene_1
 62
7
100
AcDbPolyline
 90
2
 70
0
 10
62.818710
 20
234.767814
 30
0.0
 10
62.818710
 20
234.267814
 30
0.0
  0
SPLINE
  5
189
100
AcDbEntity
  8
Ebene_1
 62
7
100
AcDbSpline
 70
8
 71
3
 72
8
 73
4
 74
0
 40
0
 40
0
 40
0
 40
0
 40
1
 40
1
 40
1
 40
1
 10
64.203570
 20
230.867383
 30
0.0
 10
65.115360
 20
229.955588
 30
0.0
 10
66.284540
 20
229.482617
 30
0.0
 10
67.603960
 20
229.482617
 30
0.0
  0
LWPOLYLINE
  5
18a
100
AcDbEntity
  8
Ebene_1
 62
7
100
AcDbPolyline
 90
3
 70
0
 10
64.199570
 20
230.873283
 30
0.0
 10
64.201570
 20
230.871283
 30
0.0
 10
64.203570
 20
230.867383
 30
0.0
  0
SPLINE
  5
18b
100
AcDbEntity
  8
Ebene_1
 62
7
100
AcDbSpline
 70
8
 71
3
 72
8
 73
4
 74
0
 40
0
 40
0
 40
0
 40
0
 40
1
 40
1
 40
1
 40
1
 10
84.744580
 20
229.482617
 30
0.0
 10
86.023750
 20
229.482617
 30
0.0
 10
87.178080
 20
229.958156
 30
0.0
 10
88.107860
 20
230.863477
 30
0.0
  0
SPLINE
  5
18c
100
AcDbEntity
  8
Ebene_1
 62
7
100
AcDbSpline
 70
8
 71
3
 72
8
 73
4
 74
0
 40
0
 40
0
 40
0
 40
0
 40
1
 40
1
 40
1
 40
1
 10
88.107860
 20
230.863477
 30
0.0
 10
89.043090
 20
231.774088
 30
0.0
 10
89.529740
 20
232.945274
 30
0.0
 10
89.529740
 20
234.267774
 30
0.0
  0
LWPOLYLINE
  5
18d
100
AcDbEntity
  8
Ebene_1
 62
7
100
AcDbPolyline
 90
2
 70
0
 10
67.603960
 20
229.482617
 30
0.0
 10
84.744580
 20
229.482617
 30
0.0
  0
LWPOLYLINE
  5
18e
100
AcDbEntity
  8
Ebene_1
 62
7
100
AcDbPolyline
 90
3
 70
0
 10
89.529740
 20
234.267774
 30
0.0
 10
89.529740
 20
234.767774
 30
0.0
 10
62.818710
 20
234.767814
 30
0.0
  0
SPLINE
  5
18f
100
AcDbEntity
  8
Ebene_1
 62
7
100
AcDbSpline
 70
8
 71
3
 72
8
 73
4
 74
0
 40
0
 40
0
 40
0
 40
0
 40
1
 40
1
 40
1
 40
1
 10
62.818710
 20
242.838126
 30
0.0
 10
62.818710
 20
241.538877
 30
0.0
 10
63.292720
 20
240.374954
 30
0.0
 10
64.199570
 20
239.443595
 30
0.0
  0
LWPOLYLINE
  5
190
100
AcDbEntity
  8
Ebene_1
 62
7
100
AcDbPolyline
 90
2
 70
0
 10
62.818710
 20
243.338126
 30
0.0
 10
62.818710
 20
242.838126
 30
0.0
  0
SPLINE
  5
191
100
AcDbEntity
  8
Ebene_1
 62
7
100
AcDbSpline
 70
8
 71
3
 72
8
 73
4
 74
0
 40
0
 40
0
 40
0
 40
0
 40
1
 40
1
 40
1
 40
1
 10
64.203570
 20
239.439595
 30
0.0
 10
65.115360
 20
238.527799
 30
0.0
 10
66.284540
 20
238.052876
 30
0.0
 10
67.603960
 20
238.052876
 30
0.0
  0
LWPOLYLINE
  5
192
100
AcDbEntity
  8
Ebene_1
 62
7
100
AcDbPolyline
 90
3
 70
0
 10
64.199570
 20
239.443595
 30
0.0
 10
64.201570
 20
239.441595
 30
0.0
 10
64.203570
 20
239.439595
 30
0.0
  0
SPLINE
  5
193
100
AcDbEntity
  8
Ebene_1
 62
7
100
AcDbSpline
 70
8
 71
3
 72
8
 73
4
 74
0
 40
0
 40
0
 40
0
 40
0
 40
1
 40
1
 40
1
 40
1
 10
84.744580
 20
238.052876
 30
0.0
 10
86.023750
 20
238.052876
 30
0.0
 10
87.178080
 20
238.528415
 30
0.0
 10
88.107860
 20
239.433735
 30
0.0
  0
SPLINE
  5
194
100
AcDbEntity
  8
Ebene_1
 62
7
100
AcDbSpline
 70
8
 71
3
 72
8
 73
4
 74
0
 40
0
 40
0
 40
0
 40
0
 40
1
 40
1
 40
1
 40
1
 10
88.107860
 20
239.433735
 30
0.0
 10
89.043090
 20
240.344346
 30
0.0
 10
89.529740
 20
241.515532
 30
0.0
 10
89.529740
 20
242.838032
 30
0.0
  0
LWPOLYLINE
  5
195
100
AcDbEntity
  8
Ebene_1
 62
7
100
AcDbPolyline
 90
2
 70
0
 10
67.603960
 20
238.052876
 30
0.0
 10
84.744580
 20
238.052876
 30
0.0
  0
LWPOLYLINE
  5
196
100
AcDbEntity
  8
Ebene_1
 62
7
100
AcDbPolyline
 90
3
 70
0
 10
89.529740
 20
242.838032
 30
0.0
 10
89.529740
 20
243.338032
 30
0.0
 10
62.818710
 20
243.338126
 30
0.0
  0
SPLINE
  5
197
100
AcDbEntity
  8
Ebene_1
 62
7
100
AcDbSpline
 70
8
 71
3
 72
8
 73
4
 74
0
 40
0
 40
0
 40
0
 40
0
 40
1
 40
1
 40
1
 40
1
 10
100.902690
 20
226.197501
 30
0.0
 10
99.600300
 20
226.197501
 30
0.0
 10
98.432600
 20
225.709833
 30
0.0
 10
97.502300
 20
224.779533
 30
0.0
  0
SPLINE
  5
198
100
AcDbEntity
  8
Ebene_1
 62
7
100
AcDbSpline
 70
8
 71
3
 72
8
 73
4
 74
0
 40
0
 40
0
 40
0
 40
0
 40
1
 40
1
 40
1
 40
1
 10
97.502300
 20
224.779533
 30
0.0
 10
96.592100
 20
223.869329
 30
0.0
 10
96.117540
 20
222.711594
 30
0.0
 10
96.117540
 20
221.412345
 30
0.0
  0
LWPOLYLINE
  5
199
100
AcDbEntity
  8
Ebene_1
 62
7
100
AcDbPolyline
 90
5
 70
0
 10
96.117540
 20
243.338126
 30
0.0
 10
96.117540
 20
229.482657
 30
0.0
 10
117.543320
 20
229.482657
 30
0.0
 10
117.543320
 20
226.197501
 30
0.0
 10
100.902690
 20
226.197501
 30
0.0
  0
SPLINE
  5
19a
100
AcDbEntity
  8
Ebene_1
 62
7
100
AcDbSpline
 70
8
 71
3
 72
8
 73
4
 74
0
 40
0
 40
0
 40
0
 40
0
 40
1
 40
1
 40
1
 40
1
 10
118.043320
 20
238.052970
 30
0.0
 10
119.322490
 20
238.052970
 30
0.0
 10
120.474860
 20
238.528509
 30
0.0
 10
121.404650
 20
239.433829
 30
0.0
  0
SPLINE
  5
19b
100
AcDbEntity
  8
Ebene_1
 62
7
100
AcDbSpline
 70
8
 71
3
 72
8
 73
4
 74
0
 40
0
 40
0
 40
0
 40
0
 40
1
 40
1
 40
1
 40
1
 10
121.404650
 20
239.433829
 30
0.0
 10
122.339870
 20
240.344441
 30
0.0
 10
122.828470
 20
241.515627
 30
0.0
 10
122.828470
 20
242.838126
 30
0.0
  0
LWPOLYLINE
  5
19c
100
AcDbEntity
  8
Ebene_1
 62
7
100
AcDbPolyline
 90
8
 70
0
 10
96.117540
 20
221.412345
 30
0.0
 10
96.117540
 20
220.912345
 30
0.0
 10
96.617540
 20
220.912345
 30
0.0
 10
122.828470
 20
220.912345
 30
0.0
 10
122.828470
 20
234.767814
 30
0.0
 10
101.402690
 20
234.767814
 30
0.0
 10
101.402690
 20
238.052970
 30
0.0
 10
118.043320
 20
238.052970
 30
0.0
  0
LWPOLYLINE
  5
19d
100
AcDbEntity
  8
Ebene_1
 62
7
100
AcDbPolyline
 90
3
 70
0
 10
122.828470
 20
242.838126
 30
0.0
 10
122.828470
 20
243.338126
 30
0.0
 10
96.117540
 20
243.338126
 30
0.0
  0
SPLINE
  5
19e
100
AcDbEntity
  8
Ebene_1
 62
7
100
AcDbSpline
 70
8
 71
3
 72
8
 73
4
 74
0
 40
0
 40
0
 40
0
 40
0
 40
1
 40
1
 40
1
 40
1
 10
151.340190
 20
220.912345
 30
0.0
 10
152.619360
 20
220.912345
 30
0.0
 10
153.773690
 20
221.387884
 30
0.0
 10
154.703470
 20
222.293204
 30
0.0
  0
SPLINE
  5
19f
100
AcDbEntity
  8
Ebene_1
 62
7
100
AcDbSpline
 70
8
 71
3
 72
8
 73
4
 74
0
 40
0
 40
0
 40
0
 40
0
 40
1
 40
1
 40
1
 40
1
 10
154.703470
 20
222.293204
 30
0.0
 10
155.638690
 20
223.203816
 30
0.0
 10
156.125350
 20
224.375002
 30
0.0
 10
156.125350
 20
225.697501
 30
0.0
  0
LWPOLYLINE
  5
1a0
100
AcDbEntity
  8
Ebene_1
 62
7
100
AcDbPolyline
 90
4
 70
0
 10
129.414410
 20
243.338126
 30
0.0
 10
129.414410
 20
220.912345
 30
0.0
 10
129.914410
 20
220.912345
 30
0.0
 10
151.340190
 20
220.912345
 30
0.0
  0
LWPOLYLINE
  5
1a1
100
AcDbEntity
  8
Ebene_1
 62
7
100
AcDbPolyline
 90
5
 70
0
 10
156.125350
 20
225.697501
 30
0.0
 10
156.125350
 20
226.197501
 30
0.0
 10
134.699570
 20
226.197501
 30
0.0
 10
134.699570
 20
243.338126
 30
0.0
 10
129.414410
 20
243.338126
 30
0.0
  0
LWPOLYLINE
  5
1a2
100
AcDbEntity
  8
Ebene_1
 62
7
100
AcDbPolyline
 90
9
 70
1
 10
62.434422
 20
265.745976
 30
0.0
 10
62.434422
 20
257.014215
 30
0.0
 10
62.921522
 20
257.014215
 30
0.0
 10
65.994479
 20
257.014215
 30
0.0
 10
65.994479
 20
262.185919
 30
0.0
 10
75.366688
 20
262.185919
 30
0.0
 10
75.366688
 20
257.014215
 30
0.0
 10
78.925244
 20
257.014215
 30
0.0
 10
78.925244
 20
265.745976
 30
0.0
  0
SPLINE
  5
1a3
100
AcDbEntity
  8
Ebene_1
 62
7
100
AcDbSpline
 70
8
 71
3
 72
8
 73
4
 74
0
 40
0
 40
0
 40
0
 40
0
 40
1
 40
1
 40
1
 40
1
 10
62.434422
 20
270.430578
 30
0.0
 10
62.434422
 20
269.603437
 30
0.0
 10
62.744166
 20
268.846522
 30
0.0
 10
63.321434
 20
268.253651
 30
0.0
  0
LWPOLYLINE
  5
1a4
100
AcDbEntity
  8
Ebene_1
 62
7
100
AcDbPolyline
 90
2
 70
0
 10
62.434422
 20
270.917680
 30
0.0
 10
62.434422
 20
270.430578
 30
0.0
  0
SPLINE
  5
1a5
100
AcDbEntity
  8
Ebene_1
 62
7
100
AcDbSpline
 70
8
 71
3
 72
8
 73
4
 74
0
 40
0
 40
0
 40
0
 40
0
 40
1
 40
1
 40
1
 40
1
 10
63.326052
 20
268.249110
 30
0.0
 10
63.908131
 20
267.667029
 30
0.0
 10
64.668967
 20
267.359096
 30
0.0
 10
65.507486
 20
267.359096
 30
0.0
  0
LWPOLYLINE
  5
1a6
100
AcDbEntity
  8
Ebene_1
 62
7
100
AcDbPolyline
 90
3
 70
0
 10
63.321434
 20
268.253651
 30
0.0
 10
63.322973
 20
268.250649
 30
0.0
 10
63.326052
 20
268.249110
 30
0.0
  0
SPLINE
  5
1a7
100
AcDbEntity
  8
Ebene_1
 62
7
100
AcDbSpline
 70
8
 71
3
 72
8
 73
4
 74
0
 40
0
 40
0
 40
0
 40
0
 40
1
 40
1
 40
1
 40
1
 10
75.852395
 20
267.359096
 30
0.0
 10
76.668245
 20
267.359096
 30
0.0
 10
77.419936
 20
267.668820
 30
0.0
 10
78.011283
 20
268.244600
 30
0.0
  0
SPLINE
  5
1a8
100
AcDbEntity
  8
Ebene_1
 62
7
100
AcDbSpline
 70
8
 71
3
 72
8
 73
4
 74
0
 40
0
 40
0
 40
0
 40
0
 40
1
 40
1
 40
1
 40
1
 10
78.011283
 20
268.244600
 30
0.0
 10
78.607910
 20
268.825529
 30
0.0
 10
78.925351
 20
269.589030
 30
0.0
 10
78.925351
 20
270.430547
 30
0.0
  0
LWPOLYLINE
  5
1a9
100
AcDbEntity
  8
Ebene_1
 62
7
100
AcDbPolyline
 90
2
 70
0
 10
65.507486
 20
267.359096
 30
0.0
 10
75.852395
 20
267.359096
 30
0.0
  0
LWPOLYLINE
  5
1aa
100
AcDbEntity
  8
Ebene_1
 62
7
100
AcDbPolyline
 90
3
 70
0
 10
78.925351
 20
270.430547
 30
0.0
 10
78.925351
 20
270.917649
 30
0.0
 10
62.434422
 20
270.917680
 30
0.0
  0
SPLINE
  5
1ab
100
AcDbEntity
  8
Ebene_1
 62
7
100
AcDbSpline
 70
8
 71
3
 72
8
 73
4
 74
0
 40
0
 40
0
 40
0
 40
0
 40
1
 40
1
 40
1
 40
1
 10
93.956257
 20
257.014215
 30
0.0
 10
94.772107
 20
257.014215
 30
0.0
 10
95.523806
 20
257.323938
 30
0.0
 10
96.115145
 20
257.899719
 30
0.0
  0
SPLINE
  5
1ac
100
AcDbEntity
  8
Ebene_1
 62
7
100
AcDbSpline
 70
8
 71
3
 72
8
 73
4
 74
0
 40
0
 40
0
 40
0
 40
0
 40
1
 40
1
 40
1
 40
1
 10
96.115145
 20
257.899719
 30
0.0
 10
96.711772
 20
258.480649
 30
0.0
 10
97.029214
 20
259.244149
 30
0.0
 10
97.029214
 20
260.085667
 30
0.0
  0
LWPOLYLINE
  5
1ad
100
AcDbEntity
  8
Ebene_1
 62
7
100
AcDbPolyline
 90
4
 70
0
 10
80.538392
 20
270.917680
 30
0.0
 10
80.538392
 20
257.014215
 30
0.0
 10
81.025500
 20
257.014215
 30
0.0
 10
93.956257
 20
257.014215
 30
0.0
  0
LWPOLYLINE
  5
1ae
100
AcDbEntity
  8
Ebene_1
 62
7
100
AcDbPolyline
 90
5
 70
0
 10
97.029214
 20
260.085667
 30
0.0
 10
97.029214
 20
260.572769
 30
0.0
 10
84.098449
 20
260.572769
 30
0.0
 10
84.098449
 20
270.917680
 30
0.0
 10
80.538392
 20
270.917680
 30
0.0
  0
SPLINE
  5
1af
100
AcDbEntity
  8
Ebene_1
 62
7
100
AcDbSpline
 70
8
 71
3
 72
8
 73
4
 74
0
 40
0
 40
0
 40
0
 40
0
 40
1
 40
1
 40
1
 40
1
 10
98.642370
 20
260.085667
 30
0.0
 10
98.642370
 20
259.258527
 30
0.0
 10
98.950605
 20
258.501611
 30
0.0
 10
99.527873
 20
257.908739
 30
0.0
  0
LWPOLYLINE
  5
1b0
100
AcDbEntity
  8
Ebene_1
 62
7
100
AcDbPolyline
 90
2
 70
0
 10
98.642370
 20
260.572769
 30
0.0
 10
98.642370
 20
260.085667
 30
0.0
  0
SPLINE
  5
1b1
100
AcDbEntity
  8
Ebene_1
 62
7
100
AcDbSpline
 70
8
 71
3
 72
8
 73
4
 74
0
 40
0
 40
0
 40
0
 40
0
 40
1
 40
1
 40
1
 40
1
 10
99.532492
 20
257.904198
 30
0.0
 10
100.114578
 20
257.322117
 30
0.0
 10
100.876923
 20
257.014184
 30
0.0
 10
101.715434
 20
257.014184
 30
0.0
  0
LWPOLYLINE
  5
1b2
100
AcDbEntity
  8
Ebene_1
 62
7
100
AcDbPolyline
 90
3
 70
0
 10
99.527873
 20
257.908739
 30
0.0
 10
99.530952
 20
257.905737
 30
0.0
 10
99.532492
 20
257.904198
 30
0.0
  0
SPLINE
  5
1b3
100
AcDbEntity
  8
Ebene_1
 62
7
100
AcDbSpline
 70
8
 71
3
 72
8
 73
4
 74
0
 40
0
 40
0
 40
0
 40
0
 40
1
 40
1
 40
1
 40
1
 10
112.060351
 20
257.014184
 30
0.0
 10
112.876192
 20
257.014184
 30
0.0
 10
113.626383
 20
257.323908
 30
0.0
 10
114.217730
 20
257.899688
 30
0.0
  0
SPLINE
  5
1b4
100
AcDbEntity
  8
Ebene_1
 62
7
100
AcDbSpline
 70
8
 71
3
 72
8
 73
4
 74
0
 40
0
 40
0
 40
0
 40
0
 40
1
 40
1
 40
1
 40
1
 10
114.217730
 20
257.899688
 30
0.0
 10
114.814357
 20
258.480618
 30
0.0
 10
115.133299
 20
259.244118
 30
0.0
 10
115.133299
 20
260.085635
 30
0.0
  0
LWPOLYLINE
  5
1b5
100
AcDbEntity
  8
Ebene_1
 62
7
100
AcDbPolyline
 90
2
 70
0
 10
101.715434
 20
257.014184
 30
0.0
 10
112.060351
 20
257.014184
 30
0.0
  0
LWPOLYLINE
  5
1b6
100
AcDbEntity
  8
Ebene_1
 62
7
100
AcDbPolyline
 90
3
 70
0
 10
115.133299
 20
260.085635
 30
0.0
 10
115.133299
 20
260.572769
 30
0.0
 10
98.642370
 20
260.572769
 30
0.0
  0
SPLINE
  5
1b7
100
AcDbEntity
  8
Ebene_1
 62
7
100
AcDbSpline
 70
8
 71
3
 72
8
 73
4
 74
0
 40
0
 40
0
 40
0
 40
0
 40
1
 40
1
 40
1
 40
1
 10
98.642370
 20
265.258874
 30
0.0
 10
98.642370
 20
264.431734
 30
0.0
 10
98.950605
 20
263.673315
 30
0.0
 10
99.527873
 20
263.080443
 30
0.0
  0
LWPOLYLINE
  5
1b8
100
AcDbEntity
  8
Ebene_1
 62
7
100
AcDbPolyline
 90
2
 70
0
 10
98.642370
 20
265.745976
 30
0.0
 10
98.642370
 20
265.258874
 30
0.0
  0
SPLINE
  5
1b9
100
AcDbEntity
  8
Ebene_1
 62
7
100
AcDbSpline
 70
8
 71
3
 72
8
 73
4
 74
0
 40
0
 40
0
 40
0
 40
0
 40
1
 40
1
 40
1
 40
1
 10
99.532492
 20
263.075902
 30
0.0
 10
100.114578
 20
262.493821
 30
0.0
 10
100.876923
 20
262.185888
 30
0.0
 10
101.715434
 20
262.185888
 30
0.0
  0
LWPOLYLINE
  5
1ba
100
AcDbEntity
  8
Ebene_1
 62
7
100
AcDbPolyline
 90
3
 70
0
 10
99.527873
 20
263.080443
 30
0.0
 10
99.530952
 20
263.078904
 30
0.0
 10
99.532492
 20
263.075902
 30
0.0
  0
SPLINE
  5
1bb
100
AcDbEntity
  8
Ebene_1
 62
7
100
AcDbSpline
 70
8
 71
3
 72
8
 73
4
 74
0
 40
0
 40
0
 40
0
 40
0
 40
1
 40
1
 40
1
 40
1
 10
112.060351
 20
262.185888
 30
0.0
 10
112.876192
 20
262.185888
 30
0.0
 10
113.626383
 20
262.495612
 30
0.0
 10
114.217730
 20
263.071392
 30
0.0
  0
SPLINE
  5
1bc
100
AcDbEntity
  8
Ebene_1
 62
7
100
AcDbSpline
 70
8
 71
3
 72
8
 73
4
 74
0
 40
0
 40
0
 40
0
 40
0
 40
1
 40
1
 40
1
 40
1
 10
114.217730
 20
263.071392
 30
0.0
 10
114.814357
 20
263.652321
 30
0.0
 10
115.133299
 20
264.417325
 30
0.0
 10
115.133299
 20
265.258842
 30
0.0
  0
LWPOLYLINE
  5
1bd
100
AcDbEntity
  8
Ebene_1
 62
7
100
AcDbPolyline
 90
2
 70
0
 10
101.715434
 20
262.185888
 30
0.0
 10
112.060351
 20
262.185888
 30
0.0
  0
LWPOLYLINE
  5
1be
100
AcDbEntity
  8
Ebene_1
 62
7
100
AcDbPolyline
 90
3
 70
0
 10
115.133299
 20
265.258842
 30
0.0
 10
115.133299
 20
265.745944
 30
0.0
 10
98.642370
 20
265.745976
 30
0.0
  0
SPLINE
  5
1bf
100
AcDbEntity
  8
Ebene_1
 62
7
100
AcDbSpline
 70
8
 71
3
 72
8
 73
4
 74
0
 40
0
 40
0
 40
0
 40
0
 40
1
 40
1
 40
1
 40
1
 10
98.642370
 20
270.430578
 30
0.0
 10
98.642370
 20
269.603437
 30
0.0
 10
98.950605
 20
268.846522
 30
0.0
 10
99.527873
 20
268.253651
 30
0.0
  0
LWPOLYLINE
  5
1c0
100
AcDbEntity
  8
Ebene_1
 62
7
100
AcDbPolyline
 90
2
 70
0
 10
98.642370
 20
270.917680
 30
0.0
 10
98.642370
 20
270.430578
 30
0.0
  0
SPLINE
  5
1c1
100
AcDbEntity
  8
Ebene_1
 62
7
100
AcDbSpline
 70
8
 71
3
 72
8
 73
4
 74
0
 40
0
 40
0
 40
0
 40
0
 40
1
 40
1
 40
1
 40
1
 10
99.532492
 20
268.249110
 30
0.0
 10
100.114578
 20
267.667029
 30
0.0
 10
100.876923
 20
267.359096
 30
0.0
 10
101.715434
 20
267.359096
 30
0.0
  0
LWPOLYLINE
  5
1c2
100
AcDbEntity
  8
Ebene_1
 62
7
100
AcDbPolyline
 90
3
 70
0
 10
99.527873
 20
268.253651
 30
0.0
 10
99.530952
 20
268.250649
 30
0.0
 10
99.532492
 20
268.249110
 30
0.0
  0
SPLINE
  5
1c3
100
AcDbEntity
  8
Ebene_1
 62
7
100
AcDbSpline
 70
8
 71
3
 72
8
 73
4
 74
0
 40
0
 40
0
 40
0
 40
0
 40
1
 40
1
 40
1
 40
1
 10
112.060351
 20
267.359096
 30
0.0
 10
112.876192
 20
267.359096
 30
0.0
 10
113.626383
 20
267.668820
 30
0.0
 10
114.217730
 20
268.244600
 30
0.0
  0
SPLINE
  5
1c4
100
AcDbEntity
  8
Ebene_1
 62
7
100
AcDbSpline
 70
8
 71
3
 72
8
 73
4
 74
0
 40
0
 40
0
 40
0
 40
0
 40
1
 40
1
 40
1
 40
1
 10
114.217730
 20
268.244600
 30
0.0
 10
114.814357
 20
268.825529
 30
0.0
 10
115.133299
 20
269.589030
 30
0.0
 10
115.133299
 20
270.430547
 30
0.0
  0
LWPOLYLINE
  5
1c5
100
AcDbEntity
  8
Ebene_1
 62
7
100
AcDbPolyline
 90
2
 70
0
 10
101.715434
 20
267.359096
 30
0.0
 10
112.060351
 20
267.359096
 30
0.0
  0
LWPOLYLINE
  5
1c6
100
AcDbEntity
  8
Ebene_1
 62
7
100
AcDbPolyline
 90
3
 70
0
 10
115.133299
 20
270.430547
 30
0.0
 10
115.133299
 20
270.917649
 30
0.0
 10
98.642370
 20
270.917680
 30
0.0
  0
LWPOLYLINE
  5
1c7
100
AcDbEntity
  8
Ebene_1
 62
7
100
AcDbPolyline
 90
25
 70
1
 10
116.746340
 20
270.917680
 30
0.0
 10
116.746340
 20
267.643270
 30
0.0
 10
119.475013
 20
264.914595
 30
0.0
 10
120.423659
 20
263.965948
 30
0.0
 10
116.746340
 20
260.288625
 30
0.0
 10
116.746340
 20
257.014215
 30
0.0
 10
117.233440
 20
257.014215
 30
0.0
 10
120.304888
 20
257.014215
 30
0.0
 10
120.304888
 20
258.591284
 30
0.0
 10
124.990992
 20
263.277390
 30
0.0
 10
129.677097
 20
258.591284
 30
0.0
 10
129.677097
 20
257.014215
 30
0.0
 10
130.164203
 20
257.014215
 30
0.0
 10
133.237157
 20
257.014215
 30
0.0
 10
133.237157
 20
260.288625
 30
0.0
 10
129.556825
 20
263.968954
 30
0.0
 10
130.347618
 20
264.771771
 30
0.0
 10
130.365660
 20
264.771771
 30
0.0
 10
133.237158
 20
267.643270
 30
0.0
 10
133.237158
 20
270.917680
 30
0.0
 10
129.677097
 20
270.917680
 30
0.0
 10
129.677097
 20
269.339108
 30
0.0
 10
124.990992
 20
264.653002
 30
0.0
 10
120.304888
 20
269.339108
 30
0.0
 10
120.304888
 20
270.917680
 30
0.0
  0
SPLINE
  5
1c8
100
AcDbEntity
  8
Ebene_1
 62
7
100
AcDbSpline
 70
8
 71
3
 72
8
 73
4
 74
0
 40
0
 40
0
 40
0
 40
0
 40
1
 40
1
 40
1
 40
1
 10
135.335907
 20
264.771771
 30
0.0
 10
136.151755
 20
264.771771
 30
0.0
 10
136.903450
 20
265.081495
 30
0.0
 10
137.494792
 20
265.657276
 30
0.0
  0
SPLINE
  5
1c9
100
AcDbEntity
  8
Ebene_1
 62
7
100
AcDbSpline
 70
8
 71
3
 72
8
 73
4
 74
0
 40
0
 40
0
 40
0
 40
0
 40
1
 40
1
 40
1
 40
1
 10
137.494792
 20
265.657276
 30
0.0
 10
138.091423
 20
266.238204
 30
0.0
 10
138.408861
 20
267.003208
 30
0.0
 10
138.408861
 20
267.844726
 30
0.0
  0
LWPOLYLINE
  5
1ca
100
AcDbEntity
  8
Ebene_1
 62
7
100
AcDbPolyline
 90
3
 70
0
 10
134.850308
 20
270.917680
 30
0.0
 10
134.850308
 20
264.771771
 30
0.0
 10
135.335907
 20
264.771771
 30
0.0
  0
LWPOLYLINE
  5
1cb
100
AcDbEntity
  8
Ebene_1
 62
7
100
AcDbPolyline
 90
3
 70
0
 10
138.408861
 20
267.844726
 30
0.0
 10
138.408861
 20
270.917680
 30
0.0
 10
134.850308
 20
270.917680
 30
0.0
  0
SPLINE
  5
1cc
100
AcDbEntity
  8
Ebene_1
 62
7
100
AcDbSpline
 70
8
 71
3
 72
8
 73
4
 74
0
 40
0
 40
0
 40
0
 40
0
 40
1
 40
1
 40
1
 40
1
 10
143.094966
 20
260.572769
 30
0.0
 10
142.264765
 20
260.572769
 30
0.0
 10
141.503866
 20
260.255051
 30
0.0
 10
140.912026
 20
259.663210
 30
0.0
  0
SPLINE
  5
1cd
100
AcDbEntity
  8
Ebene_1
 62
7
100
AcDbSpline
 70
8
 71
3
 72
8
 73
4
 74
0
 40
0
 40
0
 40
0
 40
0
 40
1
 40
1
 40
1
 40
1
 10
140.912026
 20
259.663210
 30
0.0
 10
140.331494
 20
259.082678
 30
0.0
 10
140.022012
 20
258.326955
 30
0.0
 10
140.022012
 20
257.499814
 30
0.0
  0
LWPOLYLINE
  5
1ce
100
AcDbEntity
  8
Ebene_1
 62
7
100
AcDbPolyline
 90
5
 70
0
 10
140.022012
 20
270.917680
 30
0.0
 10
140.022012
 20
262.185919
 30
0.0
 10
152.952776
 20
262.185919
 30
0.0
 10
152.952776
 20
260.572769
 30
0.0
 10
143.094966
 20
260.572769
 30
0.0
  0
SPLINE
  5
1cf
100
AcDbEntity
  8
Ebene_1
 62
7
100
AcDbSpline
 70
8
 71
3
 72
8
 73
4
 74
0
 40
0
 40
0
 40
0
 40
0
 40
1
 40
1
 40
1
 40
1
 10
153.439878
 20
267.359127
 30
0.0
 10
154.255726
 20
267.359127
 30
0.0
 10
155.005918
 20
267.668850
 30
0.0
 10
155.597260
 20
268.244631
 30
0.0
  0
SPLINE
  5
1d0
100
AcDbEntity
  8
Ebene_1
 62
7
100
AcDbSpline
 70
8
 71
3
 72
8
 73
4
 74
0
 40
0
 40
0
 40
0
 40
0
 40
1
 40
1
 40
1
 40
1
 10
155.597260
 20
268.244631
 30
0.0
 10
156.193891
 20
268.825560
 30
0.0
 10
156.512832
 20
269.589060
 30
0.0
 10
156.512832
 20
270.430578
 30
0.0
  0
LWPOLYLINE
  5
1d1
100
AcDbEntity
  8
Ebene_1
 62
7
100
AcDbPolyline
 90
8
 70
0
 10
140.022012
 20
257.499814
 30
0.0
 10
140.022012
 20
257.014215
 30
0.0
 10
140.509114
 20
257.014215
 30
0.0
 10
156.512832
 20
257.014215
 30
0.0
 10
156.512832
 20
265.745976
 30
0.0
 10
143.582069
 20
265.745976
 30
0.0
 10
143.582069
 20
267.359127
 30
0.0
 10
153.439878
 20
267.359127
 30
0.0
  0
LWPOLYLINE
  5
1d2
100
AcDbEntity
  8
Ebene_1
 62
7
100
AcDbPolyline
 90
3
 70
0
 10
156.512832
 20
270.430578
 30
0.0
 10
156.512832
 20
270.917680
 30
0.0
 10
140.022012
 20
270.917680
 30
0.0
  0
SPLINE
  5
1d3
100
AcDbEntity
  8
Ebene_1
 62
7
100
AcDbSpline
 70
8
 71
3
 72
8
 73
4
 74
0
 40
0
 40
0
 40
0
 40
0
 40
1
 40
1
 40
1
 40
1
 10
31.574168
 20
65.311582
 30
0.0
 10
31.742266
 20
65.371612
 30
0.0
 10
31.882347
 20
65.451649
 30
0.0
 10
31.994412
 20
65.551691
 30
0.0
  0
SPLINE
  5
1d4
100
AcDbEntity
  8
Ebene_1
 62
7
100
AcDbSpline
 70
8
 71
3
 72
8
 73
4
 74
0
 40
0
 40
0
 40
0
 40
0
 40
1
 40
1
 40
1
 40
1
 10
31.994412
 20
65.551691
 30
0.0
 10
32.106477
 20
65.651740
 30
0.0
 10
32.162509
 20
65.811820
 30
0.0
 10
32.162509
 20
66.031930
 30
0.0
  0
LWPOLYLINE
  5
1d5
100
AcDbEntity
  8
Ebene_1
 62
7
100
AcDbPolyline
 90
2
 70
0
 10
28.850994
 20
64.321097
 30
0.0
 10
31.574168
 20
65.311582
 30
0.0
  0
SPLINE
  5
1d6
100
AcDbEntity
  8
Ebene_1
 62
7
100
AcDbSpline
 70
8
 71
3
 72
8
 73
4
 74
0
 40
0
 40
0
 40
0
 40
0
 40
1
 40
1
 40
1
 40
1
 10
32.162509
 20
81.654512
 30
0.0
 10
32.162509
 20
81.854603
 30
0.0
 10
32.100873
 20
81.999672
 30
0.0
 10
31.977602
 20
82.089717
 30
0.0
  0
SPLINE
  5
1d7
100
AcDbEntity
  8
Ebene_1
 62
7
100
AcDbSpline
 70
8
 71
3
 72
8
 73
4
 74
0
 40
0
 40
0
 40
0
 40
0
 40
1
 40
1
 40
1
 40
1
 10
31.977602
 20
82.089717
 30
0.0
 10
31.865537
 20
82.179763
 30
0.0
 10
31.731060
 20
82.254801
 30
0.0
 10
31.574168
 20
82.314832
 30
0.0
  0
LWPOLYLINE
  5
1d8
100
AcDbEntity
  8
Ebene_1
 62
7
100
AcDbPolyline
 90
2
 70
0
 10
32.162509
 20
66.031930
 30
0.0
 10
32.162509
 20
81.654512
 30
0.0
  0
SPLINE
  5
1d9
100
AcDbEntity
  8
Ebene_1
 62
7
100
AcDbSpline
 70
8
 71
3
 72
8
 73
4
 74
0
 40
0
 40
0
 40
0
 40
0
 40
1
 40
1
 40
1
 40
1
 10
38.583824
 20
82.314832
 30
0.0
 10
38.404520
 20
82.244792
 30
0.0
 10
38.253233
 20
82.164752
 30
0.0
 10
38.129962
 20
82.074713
 30
0.0
  0
SPLINE
  5
1da
100
AcDbEntity
  8
Ebene_1
 62
7
100
AcDbSpline
 70
8
 71
3
 72
8
 73
4
 74
0
 40
0
 40
0
 40
0
 40
0
 40
1
 40
1
 40
1
 40
1
 10
38.129962
 20
82.074713
 30
0.0
 10
38.017897
 20
81.994670
 30
0.0
 10
37.961864
 20
81.854603
 30
0.0
 10
37.961864
 20
81.654512
 30
0.0
  0
LWPOLYLINE
  5
1db
100
AcDbEntity
  8
Ebene_1
 62
7
100
AcDbPolyline
 90
6
 70
0
 10
31.574168
 20
82.314832
 30
0.0
 10
28.850994
 20
83.305308
 30
0.0
 10
28.850994
 20
84.700990
 30
0.0
 10
41.290190
 20
84.700990
 30
0.0
 10
41.290190
 20
83.305308
 30
0.0
 10
38.583824
 20
82.314832
 30
0.0
  0
SPLINE
  5
1dc
100
AcDbEntity
  8
Ebene_1
 62
7
100
AcDbSpline
 70
8
 71
3
 72
8
 73
4
 74
0
 40
0
 40
0
 40
0
 40
0
 40
1
 40
1
 40
1
 40
1
 10
47.997270
 20
81.654512
 30
0.0
 10
47.997270
 20
81.854603
 30
0.0
 10
47.930031
 20
81.999672
 30
0.0
 10
47.795554
 20
82.089717
 30
0.0
  0
SPLINE
  5
1dd
100
AcDbEntity
  8
Ebene_1
 62
7
100
AcDbSpline
 70
8
 71
3
 72
8
 73
4
 74
0
 40
0
 40
0
 40
0
 40
0
 40
1
 40
1
 40
1
 40
1
 10
47.795554
 20
82.089717
 30
0.0
 10
47.672282
 20
82.179763
 30
0.0
 10
47.526598
 20
82.254801
 30
0.0
 10
47.358501
 20
82.314832
 30
0.0
  0
LWPOLYLINE
  5
1de
100
AcDbEntity
  8
Ebene_1
 62
7
100
AcDbPolyline
 90
4
 70
0
 10
37.961864
 20
81.654512
 30
0.0
 10
37.961864
 20
75.561556
 30
0.0
 10
47.997270
 20
75.561556
 30
0.0
 10
47.997270
 20
81.654512
 30
0.0
  0
SPLINE
  5
1df
100
AcDbEntity
  8
Ebene_1
 62
7
100
AcDbSpline
 70
8
 71
3
 72
8
 73
4
 74
0
 40
0
 40
0
 40
0
 40
0
 40
1
 40
1
 40
1
 40
1
 10
54.435395
 20
82.314832
 30
0.0
 10
54.267298
 20
82.254801
 30
0.0
 10
54.116010
 20
82.179763
 30
0.0
 10
53.981532
 20
82.089717
 30
0.0
  0
SPLINE
  5
1e0
100
AcDbEntity
  8
Ebene_1
 62
7
100
AcDbSpline
 70
8
 71
3
 72
8
 73
4
 74
0
 40
0
 40
0
 40
0
 40
0
 40
1
 40
1
 40
1
 40
1
 10
53.981532
 20
82.089717
 30
0.0
 10
53.858261
 20
81.999672
 30
0.0
 10
53.796626
 20
81.854603
 30
0.0
 10
53.796626
 20
81.654512
 30
0.0
  0
LWPOLYLINE
  5
1e1
100
AcDbEntity
  8
Ebene_1
 62
7
100
AcDbPolyline
 90
6
 70
0
 10
47.358501
 20
82.314832
 30
0.0
 10
44.668944
 20
83.305308
 30
0.0
 10
44.668944
 20
84.700990
 30
0.0
 10
57.124951
 20
84.700990
 30
0.0
 10
57.124951
 20
83.305308
 30
0.0
 10
54.435395
 20
82.314832
 30
0.0
  0
SPLINE
  5
1e2
100
AcDbEntity
  8
Ebene_1
 62
7
100
AcDbSpline
 70
8
 71
3
 72
8
 73
4
 74
0
 40
0
 40
0
 40
0
 40
0
 40
1
 40
1
 40
1
 40
1
 10
53.796626
 20
66.031930
 30
0.0
 10
53.796626
 20
65.811820
 30
0.0
 10
53.858261
 20
65.651740
 30
0.0
 10
53.981532
 20
65.551691
 30
0.0
  0
SPLINE
  5
1e3
100
AcDbEntity
  8
Ebene_1
 62
7
100
AcDbSpline
 70
8
 71
3
 72
8
 73
4
 74
0
 40
0
 40
0
 40
0
 40
0
 40
1
 40
1
 40
1
 40
1
 10
53.981532
 20
65.551691
 30
0.0
 10
54.104804
 20
65.461652
 30
0.0
 10
54.256092
 20
65.381615
 30
0.0
 10
54.435395
 20
65.311582
 30
0.0
  0
LWPOLYLINE
  5
1e4
100
AcDbEntity
  8
Ebene_1
 62
7
100
AcDbPolyline
 90
2
 70
0
 10
53.796626
 20
81.654512
 30
0.0
 10
53.796626
 20
66.031930
 30
0.0
  0
SPLINE
  5
1e5
100
AcDbEntity
  8
Ebene_1
 62
7
100
AcDbSpline
 70
8
 71
3
 72
8
 73
4
 74
0
 40
0
 40
0
 40
0
 40
0
 40
1
 40
1
 40
1
 40
1
 10
47.358501
 20
65.311582
 30
0.0
 10
47.549011
 20
65.391618
 30
0.0
 10
47.700298
 20
65.476660
 30
0.0
 10
47.812364
 20
65.566705
 30
0.0
  0
SPLINE
  5
1e6
100
AcDbEntity
  8
Ebene_1
 62
7
100
AcDbSpline
 70
8
 71
3
 72
8
 73
4
 74
0
 40
0
 40
0
 40
0
 40
0
 40
1
 40
1
 40
1
 40
1
 10
47.812364
 20
65.566705
 30
0.0
 10
47.935635
 20
65.656745
 30
0.0
 10
47.997270
 20
65.811820
 30
0.0
 10
47.997270
 20
66.031930
 30
0.0
  0
LWPOLYLINE
  5
1e7
100
AcDbEntity
  8
Ebene_1
 62
7
100
AcDbPolyline
 90
6
 70
0
 10
54.435395
 20
65.311582
 30
0.0
 10
57.124951
 20
64.321097
 30
0.0
 10
57.124951
 20
62.925424
 30
0.0
 10
44.668944
 20
62.925424
 30
0.0
 10
44.668944
 20
64.321097
 30
0.0
 10
47.358501
 20
65.311582
 30
0.0
  0
SPLINE
  5
1e8
100
AcDbEntity
  8
Ebene_1
 62
7
100
AcDbSpline
 70
8
 71
3
 72
8
 73
4
 74
0
 40
0
 40
0
 40
0
 40
0
 40
1
 40
1
 40
1
 40
1
 10
37.961864
 20
66.031930
 30
0.0
 10
37.961864
 20
65.811820
 30
0.0
 10
38.017897
 20
65.651740
 30
0.0
 10
38.129962
 20
65.551691
 30
0.0
  0
SPLINE
  5
1e9
100
AcDbEntity
  8
Ebene_1
 62
7
100
AcDbSpline
 70
8
 71
3
 72
8
 73
4
 74
0
 40
0
 40
0
 40
0
 40
0
 40
1
 40
1
 40
1
 40
1
 10
38.129962
 20
65.551691
 30
0.0
 10
38.242026
 20
65.461652
 30
0.0
 10
38.393314
 20
65.381615
 30
0.0
 10
38.583824
 20
65.311582
 30
0.0
  0
LWPOLYLINE
  5
1ea
100
AcDbEntity
  8
Ebene_1
 62
7
100
AcDbPolyline
 90
4
 70
0
 10
47.997270
 20
66.031930
 30
0.0
 10
47.997270
 20
72.920275
 30
0.0
 10
37.961864
 20
72.920275
 30
0.0
 10
37.961864
 20
66.031930
 30
0.0
  0
LWPOLYLINE
  5
1eb
100
AcDbEntity
  8
Ebene_1
 62
7
100
AcDbPolyline
 90
5
 70
0
 10
38.583824
 20
65.311582
 30
0.0
 10
41.290190
 20
64.321097
 30
0.0
 10
41.290190
 20
62.925424
 30
0.0
 10
28.850994
 20
62.925424
 30
0.0
 10
28.850994
 20
64.321097
 30
0.0
  0
SPLINE
  5
1ec
100
AcDbEntity
  8
Ebene_1
 62
7
100
AcDbSpline
 70
8
 71
3
 72
8
 73
4
 74
0
 40
0
 40
0
 40
0
 40
0
 40
1
 40
1
 40
1
 40
1
 10
63.427284
 20
65.311582
 30
0.0
 10
63.595382
 20
65.371612
 30
0.0
 10
63.735463
 20
65.451649
 30
0.0
 10
63.847527
 20
65.551691
 30
0.0
  0
SPLINE
  5
1ed
100
AcDbEntity
  8
Ebene_1
 62
7
100
AcDbSpline
 70
8
 71
3
 72
8
 73
4
 74
0
 40
0
 40
0
 40
0
 40
0
 40
1
 40
1
 40
1
 40
1
 10
63.847527
 20
65.551691
 30
0.0
 10
63.959592
 20
65.651740
 30
0.0
 10
64.015625
 20
65.811820
 30
0.0
 10
64.015625
 20
66.031930
 30
0.0
  0
LWPOLYLINE
  5
1ee
100
AcDbEntity
  8
Ebene_1
 62
7
100
AcDbPolyline
 90
2
 70
0
 10
60.704109
 20
64.321097
 30
0.0
 10
63.427284
 20
65.311582
 30
0.0
  0
SPLINE
  5
1ef
100
AcDbEntity
  8
Ebene_1
 62
7
100
AcDbSpline
 70
8
 71
3
 72
8
 73
4
 74
0
 40
0
 40
0
 40
0
 40
0
 40
1
 40
1
 40
1
 40
1
 10
64.015625
 20
81.654512
 30
0.0
 10
64.015625
 20
81.854603
 30
0.0
 10
63.953989
 20
81.999672
 30
0.0
 10
63.830717
 20
82.089717
 30
0.0
  0
SPLINE
  5
1f0
100
AcDbEntity
  8
Ebene_1
 62
7
100
AcDbSpline
 70
8
 71
3
 72
8
 73
4
 74
0
 40
0
 40
0
 40
0
 40
0
 40
1
 40
1
 40
1
 40
1
 10
63.830717
 20
82.089717
 30
0.0
 10
63.718653
 20
82.189766
 30
0.0
 10
63.584175
 20
82.264804
 30
0.0
 10
63.427284
 20
82.314832
 30
0.0
  0
LWPOLYLINE
  5
1f1
100
AcDbEntity
  8
Ebene_1
 62
7
100
AcDbPolyline
 90
2
 70
0
 10
64.015625
 20
66.031930
 30
0.0
 10
64.015625
 20
81.654512
 30
0.0
  0
SPLINE
  5
1f2
100
AcDbEntity
  8
Ebene_1
 62
7
100
AcDbSpline
 70
8
 71
3
 72
8
 73
4
 74
0
 40
0
 40
0
 40
0
 40
0
 40
1
 40
1
 40
1
 40
1
 10
78.942661
 20
81.339351
 30
0.0
 10
78.886632
 20
81.529446
 30
0.0
 10
78.796980
 20
81.669516
 30
0.0
 10
78.673706
 20
81.759562
 30
0.0
  0
SPLINE
  5
1f3
100
AcDbEntity
  8
Ebene_1
 62
7
100
AcDbSpline
 70
8
 71
3
 72
8
 73
4
 74
0
 40
0
 40
0
 40
0
 40
0
 40
1
 40
1
 40
1
 40
1
 10
78.673706
 20
81.759562
 30
0.0
 10
78.561640
 20
81.859611
 30
0.0
 10
78.410353
 20
81.909635
 30
0.0
 10
78.219843
 20
81.909635
 30
0.0
  0
LWPOLYLINE
  5
1f4
100
AcDbEntity
  8
Ebene_1
 62
7
100
AcDbPolyline
 90
7
 70
0
 10
63.427284
 20
82.314832
 30
0.0
 10
60.704109
 20
83.305308
 30
0.0
 10
60.704109
 20
84.700990
 30
0.0
 10
82.355035
 20
84.700990
 30
0.0
 10
82.355035
 20
78.457960
 30
0.0
 10
79.783147
 20
78.457960
 30
0.0
 10
78.942661
 20
81.339351
 30
0.0
  0
SPLINE
  5
1f5
100
AcDbEntity
  8
Ebene_1
 62
7
100
AcDbSpline
 70
8
 71
3
 72
8
 73
4
 74
0
 40
0
 40
0
 40
0
 40
0
 40
1
 40
1
 40
1
 40
1
 10
74.252747
 20
75.561556
 30
0.0
 10
74.488084
 20
75.561556
 30
0.0
 10
74.644975
 20
75.601574
 30
0.0
 10
74.723420
 20
75.681611
 30
0.0
  0
SPLINE
  5
1f6
100
AcDbEntity
  8
Ebene_1
 62
7
100
AcDbSpline
 70
8
 71
3
 72
8
 73
4
 74
0
 40
0
 40
0
 40
0
 40
0
 40
1
 40
1
 40
1
 40
1
 10
74.723420
 20
75.681611
 30
0.0
 10
74.813072
 20
75.771656
 30
0.0
 10
74.897121
 20
75.921730
 30
0.0
 10
74.975566
 20
76.131830
 30
0.0
  0
LWPOLYLINE
  5
1f7
100
AcDbEntity
  8
Ebene_1
 62
7
100
AcDbPolyline
 90
4
 70
0
 10
78.219843
 20
81.909635
 30
0.0
 10
69.814980
 20
81.909635
 30
0.0
 10
69.814980
 20
75.561556
 30
0.0
 10
74.252747
 20
75.561556
 30
0.0
  0
SPLINE
  5
1f8
100
AcDbEntity
  8
Ebene_1
 62
7
100
AcDbSpline
 70
8
 71
3
 72
8
 73
4
 74
0
 40
0
 40
0
 40
0
 40
0
 40
1
 40
1
 40
1
 40
1
 10
74.975566
 20
72.334986
 30
0.0
 10
74.919537
 20
72.505068
 30
0.0
 10
74.841091
 20
72.645136
 30
0.0
 10
74.740229
 20
72.755187
 30
0.0
  0
SPLINE
  5
1f9
100
AcDbEntity
  8
Ebene_1
 62
7
100
AcDbSpline
 70
8
 71
3
 72
8
 73
4
 74
0
 40
0
 40
0
 40
0
 40
0
 40
1
 40
1
 40
1
 40
1
 10
74.740229
 20
72.755187
 30
0.0
 10
74.650578
 20
72.865245
 30
0.0
 10
74.488084
 20
72.920275
 30
0.0
 10
74.252747
 20
72.920275
 30
0.0
  0
LWPOLYLINE
  5
1fa
100
AcDbEntity
  8
Ebene_1
 62
7
100
AcDbPolyline
 90
6
 70
0
 10
74.975566
 20
76.131830
 30
0.0
 10
75.816052
 20
78.472965
 30
0.0
 10
77.934078
 20
78.472965
 30
0.0
 10
77.934078
 20
70.008856
 30
0.0
 10
75.816052
 20
70.008856
 30
0.0
 10
74.975566
 20
72.334986
 30
0.0
  0
SPLINE
  5
1fb
100
AcDbEntity
  8
Ebene_1
 62
7
100
AcDbSpline
 70
8
 71
3
 72
8
 73
4
 74
0
 40
0
 40
0
 40
0
 40
0
 40
1
 40
1
 40
1
 40
1
 10
79.480572
 20
65.716779
 30
0.0
 10
79.637463
 20
65.716779
 30
0.0
 10
79.783147
 20
65.771804
 30
0.0
 10
79.917625
 20
65.881856
 30
0.0
  0
SPLINE
  5
1fc
100
AcDbEntity
  8
Ebene_1
 62
7
100
AcDbSpline
 70
8
 71
3
 72
8
 73
4
 74
0
 40
0
 40
0
 40
0
 40
0
 40
1
 40
1
 40
1
 40
1
 10
79.917625
 20
65.881856
 30
0.0
 10
80.052103
 20
65.991908
 30
0.0
 10
80.141755
 20
66.131975
 30
0.0
 10
80.186581
 20
66.302058
 30
0.0
  0
LWPOLYLINE
  5
1fd
100
AcDbEntity
  8
Ebene_1
 62
7
100
AcDbPolyline
 90
4
 70
0
 10
74.252747
 20
72.920275
 30
0.0
 10
69.814980
 20
72.920275
 30
0.0
 10
69.814980
 20
65.716779
 30
0.0
 10
79.480572
 20
65.716779
 30
0.0
  0
LWPOLYLINE
  5
1fe
100
AcDbEntity
  8
Ebene_1
 62
7
100
AcDbPolyline
 90
6
 70
0
 10
80.186581
 20
66.302058
 30
0.0
 10
81.043876
 20
69.513613
 30
0.0
 10
83.598954
 20
69.513613
 30
0.0
 10
83.598954
 20
62.925424
 30
0.0
 10
60.704109
 20
62.925424
 30
0.0
 10
60.704109
 20
64.321097
 30
0.0
  0
SPLINE
  5
1ff
100
AcDbEntity
  8
Ebene_1
 62
7
100
AcDbSpline
 70
8
 71
3
 72
8
 73
4
 74
0
 40
0
 40
0
 40
0
 40
0
 40
1
 40
1
 40
1
 40
1
 10
90.320217
 20
65.311582
 30
0.0
 10
90.510727
 20
65.381615
 30
0.0
 10
90.656411
 20
65.461652
 30
0.0
 10
90.757270
 20
65.551691
 30
0.0
  0
SPLINE
  5
200
100
AcDbEntity
  8
Ebene_1
 62
7
100
AcDbSpline
 70
8
 71
3
 72
8
 73
4
 74
0
 40
0
 40
0
 40
0
 40
0
 40
1
 40
1
 40
1
 40
1
 10
90.757270
 20
65.551691
 30
0.0
 10
90.858128
 20
65.651740
 30
0.0
 10
90.908558
 20
65.811820
 30
0.0
 10
90.908558
 20
66.031930
 30
0.0
  0
LWPOLYLINE
  5
201
100
AcDbEntity
  8
Ebene_1
 62
7
100
AcDbPolyline
 90
2
 70
0
 10
87.428944
 20
64.321097
 30
0.0
 10
90.320217
 20
65.311582
 30
0.0
  0
SPLINE
  5
202
100
AcDbEntity
  8
Ebene_1
 62
7
100
AcDbSpline
 70
8
 71
3
 72
8
 73
4
 74
0
 40
0
 40
0
 40
0
 40
0
 40
1
 40
1
 40
1
 40
1
 10
90.908558
 20
81.654512
 30
0.0
 10
90.908558
 20
81.854603
 30
0.0
 10
90.846922
 20
81.999672
 30
0.0
 10
90.723650
 20
82.089717
 30
0.0
  0
SPLINE
  5
203
100
AcDbEntity
  8
Ebene_1
 62
7
100
AcDbSpline
 70
8
 71
3
 72
8
 73
4
 74
0
 40
0
 40
0
 40
0
 40
0
 40
1
 40
1
 40
1
 40
1
 10
90.723650
 20
82.089717
 30
0.0
 10
90.611586
 20
82.189766
 30
0.0
 10
90.477108
 20
82.264804
 30
0.0
 10
90.320217
 20
82.314832
 30
0.0
  0
LWPOLYLINE
  5
204
100
AcDbEntity
  8
Ebene_1
 62
7
100
AcDbPolyline
 90
2
 70
0
 10
90.908558
 20
66.031930
 30
0.0
 10
90.908558
 20
81.654512
 30
0.0
  0
SPLINE
  5
205
100
AcDbEntity
  8
Ebene_1
 62
7
100
AcDbSpline
 70
8
 71
3
 72
8
 73
4
 74
0
 40
0
 40
0
 40
0
 40
0
 40
1
 40
1
 40
1
 40
1
 10
97.329872
 20
82.314832
 30
0.0
 10
97.150568
 20
82.254801
 30
0.0
 10
96.999281
 20
82.179763
 30
0.0
 10
96.876010
 20
82.089717
 30
0.0
  0
SPLINE
  5
206
100
AcDbEntity
  8
Ebene_1
 62
7
100
AcDbSpline
 70
8
 71
3
 72
8
 73
4
 74
0
 40
0
 40
0
 40
0
 40
0
 40
1
 40
1
 40
1
 40
1
 10
96.876010
 20
82.089717
 30
0.0
 10
96.763945
 20
81.999672
 30
0.0
 10
96.707912
 20
81.854603
 30
0.0
 10
96.707912
 20
81.654512
 30
0.0
  0
LWPOLYLINE
  5
207
100
AcDbEntity
  8
Ebene_1
 62
7
100
AcDbPolyline
 90
6
 70
0
 10
90.320217
 20
82.314832
 30
0.0
 10
87.428944
 20
83.305308
 30
0.0
 10
87.428944
 20
84.700990
 30
0.0
 10
100.204336
 20
84.700990
 30
0.0
 10
100.204336
 20
83.305308
 30
0.0
 10
97.329872
 20
82.314832
 30
0.0
  0
SPLINE
  5
208
100
AcDbEntity
  8
Ebene_1
 62
7
100
AcDbSpline
 70
8
 71
3
 72
8
 73
4
 74
0
 40
0
 40
0
 40
0
 40
0
 40
1
 40
1
 40
1
 40
1
 10
96.707912
 20
66.031930
 30
0.0
 10
96.707912
 20
65.811820
 30
0.0
 10
96.763945
 20
65.651740
 30
0.0
 10
96.876010
 20
65.551691
 30
0.0
  0
SPLINE
  5
209
100
AcDbEntity
  8
Ebene_1
 62
7
100
AcDbSpline
 70
8
 71
3
 72
8
 73
4
 74
0
 40
0
 40
0
 40
0
 40
0
 40
1
 40
1
 40
1
 40
1
 10
96.876010
 20
65.551691
 30
0.0
 10
96.999281
 20
65.451643
 30
0.0
 10
97.150568
 20
65.371606
 30
0.0
 10
97.329872
 20
65.311582
 30
0.0
  0
LWPOLYLINE
  5
20a
100
AcDbEntity
  8
Ebene_1
 62
7
100
AcDbPolyline
 90
2
 70
0
 10
96.707912
 20
81.654512
 30
0.0
 10
96.707912
 20
66.031930
 30
0.0
  0
LWPOLYLINE
  5
20b
100
AcDbEntity
  8
Ebene_1
 62
7
100
AcDbPolyline
 90
5
 70
0
 10
97.329872
 20
65.311582
 30
0.0
 10
100.204336
 20
64.321097
 30
0.0
 10
100.204336
 20
62.925424
 30
0.0
 10
87.428944
 20
62.925424
 30
0.0
 10
87.428944
 20
64.321097
 30
0.0
  0
SPLINE
  5
20c
100
AcDbEntity
  8
Ebene_1
 62
7
100
AcDbSpline
 70
8
 71
3
 72
8
 73
4
 74
0
 40
0
 40
0
 40
0
 40
0
 40
1
 40
1
 40
1
 40
1
 10
106.620402
 20
65.431637
 30
0.0
 10
106.777291
 20
65.501670
 30
0.0
 10
106.911769
 20
65.576708
 30
0.0
 10
107.023834
 20
65.656751
 30
0.0
  0
SPLINE
  5
20d
100
AcDbEntity
  8
Ebene_1
 62
7
100
AcDbSpline
 70
8
 71
3
 72
8
 73
4
 74
0
 40
0
 40
0
 40
0
 40
0
 40
1
 40
1
 40
1
 40
1
 10
107.023834
 20
65.656751
 30
0.0
 10
107.147104
 20
65.746791
 30
0.0
 10
107.208738
 20
65.901865
 30
0.0
 10
107.208738
 20
66.121975
 30
0.0
  0
LWPOLYLINE
  5
20e
100
AcDbEntity
  8
Ebene_1
 62
7
100
AcDbPolyline
 90
2
 70
0
 10
103.897223
 20
64.321097
 30
0.0
 10
106.620402
 20
65.431637
 30
0.0
  0
SPLINE
  5
20f
100
AcDbEntity
  8
Ebene_1
 62
7
100
AcDbSpline
 70
8
 71
3
 72
8
 73
4
 74
0
 40
0
 40
0
 40
0
 40
0
 40
1
 40
1
 40
1
 40
1
 10
107.208738
 20
81.654512
 30
0.0
 10
107.208738
 20
81.854603
 30
0.0
 10
107.152706
 20
81.999672
 30
0.0
 10
107.040641
 20
82.089717
 30
0.0
  0
SPLINE
  5
210
100
AcDbEntity
  8
Ebene_1
 62
7
100
AcDbSpline
 70
8
 71
3
 72
8
 73
4
 74
0
 40
0
 40
0
 40
0
 40
0
 40
1
 40
1
 40
1
 40
1
 10
107.040641
 20
82.089717
 30
0.0
 10
106.928575
 20
82.179763
 30
0.0
 10
106.788496
 20
82.254801
 30
0.0
 10
106.620402
 20
82.314832
 30
0.0
  0
LWPOLYLINE
  5
211
100
AcDbEntity
  8
Ebene_1
 62
7
100
AcDbPolyline
 90
2
 70
0
 10
107.208738
 20
66.121975
 30
0.0
 10
107.208738
 20
81.654512
 30
0.0
  0
SPLINE
  5
212
100
AcDbEntity
  8
Ebene_1
 62
7
100
AcDbSpline
 70
8
 71
3
 72
8
 73
4
 74
0
 40
0
 40
0
 40
0
 40
0
 40
1
 40
1
 40
1
 40
1
 10
135.180124
 20
82.314832
 30
0.0
 10
135.023235
 20
82.254801
 30
0.0
 10
134.877549
 20
82.179763
 30
0.0
 10
134.743068
 20
82.089717
 30
0.0
  0
SPLINE
  5
213
100
AcDbEntity
  8
Ebene_1
 62
7
100
AcDbSpline
 70
8
 71
3
 72
8
 73
4
 74
0
 40
0
 40
0
 40
0
 40
0
 40
1
 40
1
 40
1
 40
1
 10
134.743068
 20
82.089717
 30
0.0
 10
134.608594
 20
81.999672
 30
0.0
 10
134.541357
 20
81.854603
 30
0.0
 10
134.541357
 20
81.654512
 30
0.0
  0
LWPOLYLINE
  5
214
100
AcDbEntity
  8
Ebene_1
 62
7
100
AcDbPolyline
 90
11
 70
0
 10
106.620402
 20
82.314832
 30
0.0
 10
103.897223
 20
83.305308
 30
0.0
 10
103.897223
 20
84.700990
 30
0.0
 10
115.277408
 20
84.700990
 30
0.0
 10
120.051371
 20
72.274959
 30
0.0
 10
120.774192
 20
69.798755
 30
0.0
 10
121.127194
 20
69.798755
 30
0.0
 10
126.674398
 20
84.700990
 30
0.0
 10
137.869678
 20
84.700990
 30
0.0
 10
137.869678
 20
83.305308
 30
0.0
 10
135.180124
 20
82.314832
 30
0.0
  0
SPLINE
  5
215
100
AcDbEntity
  8
Ebene_1
 62
7
100
AcDbSpline
 70
8
 71
3
 72
8
 73
4
 74
0
 40
0
 40
0
 40
0
 40
0
 40
1
 40
1
 40
1
 40
1
 10
134.541357
 20
66.031930
 30
0.0
 10
134.541357
 20
65.811820
 30
0.0
 10
134.602992
 20
65.651740
 30
0.0
 10
134.726262
 20
65.551691
 30
0.0
  0
SPLINE
  5
216
100
AcDbEntity
  8
Ebene_1
 62
7
100
AcDbSpline
 70
8
 71
3
 72
8
 73
4
 74
0
 40
0
 40
0
 40
0
 40
0
 40
1
 40
1
 40
1
 40
1
 10
134.726262
 20
65.551691
 30
0.0
 10
134.860736
 20
65.451643
 30
0.0
 10
135.012023
 20
65.371606
 30
0.0
 10
135.180124
 20
65.311582
 30
0.0
  0
LWPOLYLINE
  5
217
100
AcDbEntity
  8
Ebene_1
 62
7
100
AcDbPolyline
 90
2
 70
0
 10
134.541357
 20
81.654512
 30
0.0
 10
134.541357
 20
66.031930
 30
0.0
  0
SPLINE
  5
218
100
AcDbEntity
  8
Ebene_1
 62
7
100
AcDbSpline
 70
8
 71
3
 72
8
 73
4
 74
0
 40
0
 40
0
 40
0
 40
0
 40
1
 40
1
 40
1
 40
1
 10
128.187278
 20
65.311582
 30
0.0
 10
128.366584
 20
65.381615
 30
0.0
 10
128.517871
 20
65.461652
 30
0.0
 10
128.641141
 20
65.551691
 30
0.0
  0
SPLINE
  5
219
100
AcDbEntity
  8
Ebene_1
 62
7
100
AcDbSpline
 70
8
 71
3
 72
8
 73
4
 74
0
 40
0
 40
0
 40
0
 40
0
 40
1
 40
1
 40
1
 40
1
 10
128.641141
 20
65.551691
 30
0.0
 10
128.764410
 20
65.651740
 30
0.0
 10
128.826045
 20
65.811820
 30
0.0
 10
128.826045
 20
66.031930
 30
0.0
  0
LWPOLYLINE
  5
21a
100
AcDbEntity
  8
Ebene_1
 62
7
100
AcDbPolyline
 90
6
 70
0
 10
135.180124
 20
65.311582
 30
0.0
 10
137.869678
 20
64.321097
 30
0.0
 10
137.869678
 20
62.925424
 30
0.0
 10
125.514531
 20
62.925424
 30
0.0
 10
125.514531
 20
64.321097
 30
0.0
 10
128.187278
 20
65.311582
 30
0.0
  0
SPLINE
  5
21b
100
AcDbEntity
  8
Ebene_1
 62
7
100
AcDbSpline
 70
8
 71
3
 72
8
 73
4
 74
0
 40
0
 40
0
 40
0
 40
0
 40
1
 40
1
 40
1
 40
1
 10
110.621113
 20
66.121975
 30
0.0
 10
110.621113
 20
65.901865
 30
0.0
 10
110.677145
 20
65.746791
 30
0.0
 10
110.789210
 20
65.656751
 30
0.0
  0
SPLINE
  5
21c
100
AcDbEntity
  8
Ebene_1
 62
7
100
AcDbSpline
 70
8
 71
3
 72
8
 73
4
 74
0
 40
0
 40
0
 40
0
 40
0
 40
1
 40
1
 40
1
 40
1
 10
110.789210
 20
65.656751
 30
0.0
 10
110.912480
 20
65.566705
 30
0.0
 10
111.052560
 20
65.491667
 30
0.0
 10
111.209449
 20
65.431637
 30
0.0
  0
LWPOLYLINE
  5
21d
100
AcDbEntity
  8
Ebene_1
 62
7
100
AcDbPolyline
 90
11
 70
0
 10
128.826045
 20
66.031930
 30
0.0
 10
128.826045
 20
80.919150
 30
0.0
 10
128.422613
 20
80.919150
 30
0.0
 10
127.649361
 20
78.713084
 30
0.0
 10
122.808161
 20
66.227026
 30
0.0
 10
121.261668
 20
62.925424
 30
0.0
 10
117.798864
 20
62.925424
 30
0.0
 10
111.730560
 20
78.713084
 30
0.0
 10
111.007739
 20
80.919150
 30
0.0
 10
110.621113
 20
80.919150
 30
0.0
 10
110.621113
 20
66.121975
 30
0.0
  0
LWPOLYLINE
  5
21e
100
AcDbEntity
  8
Ebene_1
 62
7
100
AcDbPolyline
 90
5
 70
0
 10
111.209449
 20
65.431637
 30
0.0
 10
113.882196
 20
64.321097
 30
0.0
 10
113.882196
 20
62.925424
 30
0.0
 10
103.897223
 20
62.925424
 30
0.0
 10
103.897223
 20
64.321097
 30
0.0
  0
SPLINE
  5
21f
100
AcDbEntity
  8
Ebene_1
 62
7
100
AcDbSpline
 70
8
 71
3
 72
8
 73
4
 74
0
 40
0
 40
0
 40
0
 40
0
 40
1
 40
1
 40
1
 40
1
 10
141.466438
 20
65.101481
 30
0.0
 10
141.847458
 20
65.261554
 30
0.0
 10
142.122018
 20
65.531685
 30
0.0
 10
142.290120
 20
65.911875
 30
0.0
  0
LWPOLYLINE
  5
220
100
AcDbEntity
  8
Ebene_1
 62
7
100
AcDbPolyline
 90
2
 70
0
 10
139.667804
 20
64.321097
 30
0.0
 10
141.466438
 20
65.101481
 30
0.0
  0
SPLINE
  5
221
100
AcDbEntity
  8
Ebene_1
 62
7
100
AcDbSpline
 70
8
 71
3
 72
8
 73
4
 74
0
 40
0
 40
0
 40
0
 40
0
 40
1
 40
1
 40
1
 40
1
 10
163.974663
 20
65.836833
 30
0.0
 10
164.053108
 20
65.666751
 30
0.0
 10
164.153966
 20
65.506675
 30
0.0
 10
164.277235
 20
65.356605
 30
0.0
  0
SPLINE
  5
222
100
AcDbEntity
  8
Ebene_1
 62
7
100
AcDbSpline
 70
8
 71
3
 72
8
 73
4
 74
0
 40
0
 40
0
 40
0
 40
0
 40
1
 40
1
 40
1
 40
1
 10
164.277235
 20
65.356605
 30
0.0
 10
164.400505
 20
65.206528
 30
0.0
 10
164.546190
 20
65.101475
 30
0.0
 10
164.714291
 20
65.041444
 30
0.0
  0
LWPOLYLINE
  5
223
100
AcDbEntity
  8
Ebene_1
 62
7
100
AcDbPolyline
 90
5
 70
0
 10
142.290120
 20
65.911875
 30
0.0
 10
149.182106
 20
81.399379
 30
0.0
 10
151.216085
 20
85.031145
 30
0.0
 10
155.737896
 20
85.031145
 30
0.0
 10
163.974663
 20
65.836833
 30
0.0
  0
LWPOLYLINE
  5
224
100
AcDbEntity
  8
Ebene_1
 62
7
100
AcDbPolyline
 90
13
 70
0
 10
164.714291
 20
65.041444
 30
0.0
 10
166.596980
 20
64.321097
 30
0.0
 10
166.596980
 20
62.925424
 30
0.0
 10
155.418507
 20
62.925424
 30
0.0
 10
155.418507
 20
64.321097
 30
0.0
 10
158.225738
 20
65.311582
 30
0.0
 10
156.225382
 20
69.678700
 30
0.0
 10
147.450698
 20
69.678700
 30
0.0
 10
145.601633
 20
65.401618
 30
0.0
 10
148.459284
 20
64.321097
 30
0.0
 10
148.459284
 20
62.925424
 30
0.0
 10
139.667804
 20
62.925424
 30
0.0
 10
139.667804
 20
64.321097
 30
0.0
  0
LWPOLYLINE
  5
225
100
AcDbEntity
  8
Ebene_1
 62
7
100
AcDbPolyline
 90
5
 70
1
 10
155.065505
 20
72.334986
 30
0.0
 10
152.745760
 20
77.677576
 30
0.0
 10
152.140617
 20
79.703560
 30
0.0
 10
151.770798
 20
79.703560
 30
0.0
 10
148.644189
 20
72.334986
 30
0.0
  0
SPLINE
  5
226
100
AcDbEntity
  8
Ebene_1
 62
7
100
AcDbSpline
 70
8
 71
3
 72
8
 73
4
 74
0
 40
0
 40
0
 40
0
 40
0
 40
1
 40
1
 40
1
 40
1
 10
174.284273
 20
65.311582
 30
0.0
 10
174.474783
 20
65.381615
 30
0.0
 10
174.620469
 20
65.461652
 30
0.0
 10
174.721329
 20
65.551691
 30
0.0
  0
SPLINE
  5
227
100
AcDbEntity
  8
Ebene_1
 62
7
100
AcDbSpline
 70
8
 71
3
 72
8
 73
4
 74
0
 40
0
 40
0
 40
0
 40
0
 40
1
 40
1
 40
1
 40
1
 10
174.721329
 20
65.551691
 30
0.0
 10
174.833394
 20
65.651740
 30
0.0
 10
174.889427
 20
65.811820
 30
0.0
 10
174.889427
 20
66.031930
 30
0.0
  0
LWPOLYLINE
  5
228
100
AcDbEntity
  8
Ebene_1
 62
7
100
AcDbPolyline
 90
2
 70
0
 10
171.426622
 20
64.321097
 30
0.0
 10
174.284273
 20
65.311582
 30
0.0
  0
SPLINE
  5
229
100
AcDbEntity
  8
Ebene_1
 62
7
100
AcDbSpline
 70
8
 71
3
 72
8
 73
4
 74
0
 40
0
 40
0
 40
0
 40
0
 40
1
 40
1
 40
1
 40
1
 10
169.980980
 20
81.969663
 30
0.0
 10
169.790470
 20
81.969663
 30
0.0
 10
169.633580
 20
81.919638
 30
0.0
 10
169.510310
 20
81.819589
 30
0.0
  0
SPLINE
  5
22a
100
AcDbEntity
  8
Ebene_1
 62
7
100
AcDbSpline
 70
8
 71
3
 72
8
 73
4
 74
0
 40
0
 40
0
 40
0
 40
0
 40
1
 40
1
 40
1
 40
1
 10
169.510310
 20
81.819589
 30
0.0
 10
169.398245
 20
81.729544
 30
0.0
 10
169.314198
 20
81.589473
 30
0.0
 10
169.258169
 20
81.399379
 30
0.0
  0
LWPOLYLINE
  5
22b
100
AcDbEntity
  8
Ebene_1
 62
7
100
AcDbPolyline
 90
3
 70
0
 10
174.889427
 20
66.031930
 30
0.0
 10
174.889427
 20
81.969663
 30
0.0
 10
169.980980
 20
81.969663
 30
0.0
  0
SPLINE
  5
22c
100
AcDbEntity
  8
Ebene_1
 62
7
100
AcDbSpline
 70
8
 71
3
 72
8
 73
4
 74
0
 40
0
 40
0
 40
0
 40
0
 40
1
 40
1
 40
1
 40
1
 10
186.320041
 20
81.399379
 30
0.0
 10
186.264019
 20
81.579470
 30
0.0
 10
186.168760
 20
81.719541
 30
0.0
 10
186.034265
 20
81.819589
 30
0.0
  0
SPLINE
  5
22d
100
AcDbEntity
  8
Ebene_1
 62
7
100
AcDbSpline
 70
8
 71
3
 72
8
 73
4
 74
0
 40
0
 40
0
 40
0
 40
0
 40
1
 40
1
 40
1
 40
1
 10
186.034265
 20
81.819589
 30
0.0
 10
185.910996
 20
81.919638
 30
0.0
 10
185.770916
 20
81.969663
 30
0.0
 10
185.614026
 20
81.969663
 30
0.0
  0
LWPOLYLINE
  5
22e
100
AcDbEntity
  8
Ebene_1
 62
7
100
AcDbPolyline
 90
8
 70
0
 10
169.258169
 20
81.399379
 30
0.0
 10
168.417680
 20
78.157814
 30
0.0
 10
165.879408
 20
78.157814
 30
0.0
 10
165.879408
 20
84.700990
 30
0.0
 10
189.715598
 20
84.700990
 30
0.0
 10
189.715598
 20
78.157814
 30
0.0
 10
187.160519
 20
78.157814
 30
0.0
 10
186.320041
 20
81.399379
 30
0.0
  0
SPLINE
  5
22f
100
AcDbEntity
  8
Ebene_1
 62
7
100
AcDbSpline
 70
8
 71
3
 72
8
 73
4
 74
0
 40
0
 40
0
 40
0
 40
0
 40
1
 40
1
 40
1
 40
1
 10
180.705589
 20
66.031930
 30
0.0
 10
180.705589
 20
65.811820
 30
0.0
 10
180.767224
 20
65.646739
 30
0.0
 10
180.890494
 20
65.536687
 30
0.0
  0
SPLINE
  5
230
100
AcDbEntity
  8
Ebene_1
 62
7
100
AcDbSpline
 70
8
 71
3
 72
8
 73
4
 74
0
 40
0
 40
0
 40
0
 40
0
 40
1
 40
1
 40
1
 40
1
 10
180.890494
 20
65.536687
 30
0.0
 10
181.013763
 20
65.436638
 30
0.0
 10
181.153843
 20
65.361603
 30
0.0
 10
181.310733
 20
65.311582
 30
0.0
  0
LWPOLYLINE
  5
231
100
AcDbEntity
  8
Ebene_1
 62
7
100
AcDbPolyline
 90
3
 70
0
 10
185.614026
 20
81.969663
 30
0.0
 10
180.705589
 20
81.969663
 30
0.0
 10
180.705589
 20
66.031930
 30
0.0
  0
LWPOLYLINE
  5
232
100
AcDbEntity
  8
Ebene_1
 62
7
100
AcDbPolyline
 90
5
 70
0
 10
181.310733
 20
65.311582
 30
0.0
 10
184.168394
 20
64.321097
 30
0.0
 10
184.168394
 20
62.925424
 30
0.0
 10
171.426622
 20
62.925424
 30
0.0
 10
171.426622
 20
64.321097
 30
0.0
  0
SPLINE
  5
233
100
AcDbEntity
  8
Ebene_1
 62
7
100
AcDbSpline
 70
8
 71
3
 72
8
 73
4
 74
0
 40
0
 40
0
 40
0
 40
0
 40
1
 40
1
 40
1
 40
1
 10
43.130855
 20
31.852934
 30
0.0
 10
43.298952
 20
31.912965
 30
0.0
 10
43.439033
 20
31.993005
 30
0.0
 10
43.551098
 20
32.093053
 30
0.0
  0
SPLINE
  5
234
100
AcDbEntity
  8
Ebene_1
 62
7
100
AcDbSpline
 70
8
 71
3
 72
8
 73
4
 74
0
 40
0
 40
0
 40
0
 40
0
 40
1
 40
1
 40
1
 40
1
 10
43.551098
 20
32.093053
 30
0.0
 10
43.663163
 20
32.193102
 30
0.0
 10
43.719195
 20
32.353178
 30
0.0
 10
43.719195
 20
32.573282
 30
0.0
  0
LWPOLYLINE
  5
235
100
AcDbEntity
  8
Ebene_1
 62
7
100
AcDbPolyline
 90
2
 70
0
 10
40.407679
 20
30.862449
 30
0.0
 10
43.130855
 20
31.852934
 30
0.0
  0
SPLINE
  5
236
100
AcDbEntity
  8
Ebene_1
 62
7
100
AcDbSpline
 70
8
 71
3
 72
8
 73
4
 74
0
 40
0
 40
0
 40
0
 40
0
 40
1
 40
1
 40
1
 40
1
 10
43.719195
 20
48.195864
 30
0.0
 10
43.719195
 20
48.395962
 30
0.0
 10
43.657559
 20
48.541030
 30
0.0
 10
43.534288
 20
48.631070
 30
0.0
  0
SPLINE
  5
237
100
AcDbEntity
  8
Ebene_1
 62
7
100
AcDbSpline
 70
8
 71
3
 72
8
 73
4
 74
0
 40
0
 40
0
 40
0
 40
0
 40
1
 40
1
 40
1
 40
1
 10
43.534288
 20
48.631070
 30
0.0
 10
43.422223
 20
48.721116
 30
0.0
 10
43.287746
 20
48.796154
 30
0.0
 10
43.130855
 20
48.856184
 30
0.0
  0
LWPOLYLINE
  5
238
100
AcDbEntity
  8
Ebene_1
 62
7
100
AcDbPolyline
 90
2
 70
0
 10
43.719195
 20
32.573282
 30
0.0
 10
43.719195
 20
48.195864
 30
0.0
  0
SPLINE
  5
239
100
AcDbEntity
  8
Ebene_1
 62
7
100
AcDbSpline
 70
8
 71
3
 72
8
 73
4
 74
0
 40
0
 40
0
 40
0
 40
0
 40
1
 40
1
 40
1
 40
1
 10
50.140510
 20
48.856184
 30
0.0
 10
49.961207
 20
48.786151
 30
0.0
 10
49.809919
 20
48.706111
 30
0.0
 10
49.686647
 20
48.616065
 30
0.0
  0
SPLINE
  5
23a
100
AcDbEntity
  8
Ebene_1
 62
7
100
AcDbSpline
 70
8
 71
3
 72
8
 73
4
 74
0
 40
0
 40
0
 40
0
 40
0
 40
1
 40
1
 40
1
 40
1
 10
49.686647
 20
48.616065
 30
0.0
 10
49.574583
 20
48.536029
 30
0.0
 10
49.518551
 20
48.395962
 30
0.0
 10
49.518551
 20
48.195864
 30
0.0
  0
LWPOLYLINE
  5
23b
100
AcDbEntity
  8
Ebene_1
 62
7
100
AcDbPolyline
 90
6
 70
0
 10
43.130855
 20
48.856184
 30
0.0
 10
40.407679
 20
49.846660
 30
0.0
 10
40.407679
 20
51.242342
 30
0.0
 10
52.846876
 20
51.242342
 30
0.0
 10
52.846876
 20
49.846660
 30
0.0
 10
50.140510
 20
48.856184
 30
0.0
  0
SPLINE
  5
23c
100
AcDbEntity
  8
Ebene_1
 62
7
100
AcDbSpline
 70
8
 71
3
 72
8
 73
4
 74
0
 40
0
 40
0
 40
0
 40
0
 40
1
 40
1
 40
1
 40
1
 10
59.553957
 20
48.195864
 30
0.0
 10
59.553957
 20
48.395962
 30
0.0
 10
59.486718
 20
48.541030
 30
0.0
 10
59.352239
 20
48.631070
 30
0.0
  0
SPLINE
  5
23d
100
AcDbEntity
  8
Ebene_1
 62
7
100
AcDbSpline
 70
8
 71
3
 72
8
 73
4
 74
0
 40
0
 40
0
 40
0
 40
0
 40
1
 40
1
 40
1
 40
1
 10
59.352239
 20
48.631070
 30
0.0
 10
59.228968
 20
48.721116
 30
0.0
 10
59.083284
 20
48.796154
 30
0.0
 10
58.915187
 20
48.856184
 30
0.0
  0
LWPOLYLINE
  5
23e
100
AcDbEntity
  8
Ebene_1
 62
7
100
AcDbPolyline
 90
4
 70
0
 10
49.518551
 20
48.195864
 30
0.0
 10
49.518551
 20
42.102908
 30
0.0
 10
59.553957
 20
42.102908
 30
0.0
 10
59.553957
 20
48.195864
 30
0.0
  0
SPLINE
  5
23f
100
AcDbEntity
  8
Ebene_1
 62
7
100
AcDbSpline
 70
8
 71
3
 72
8
 73
4
 74
0
 40
0
 40
0
 40
0
 40
0
 40
1
 40
1
 40
1
 40
1
 10
65.992082
 20
48.856184
 30
0.0
 10
65.823984
 20
48.796154
 30
0.0
 10
65.672696
 20
48.721116
 30
0.0
 10
65.538219
 20
48.631070
 30
0.0
  0
SPLINE
  5
240
100
AcDbEntity
  8
Ebene_1
 62
7
100
AcDbSpline
 70
8
 71
3
 72
8
 73
4
 74
0
 40
0
 40
0
 40
0
 40
0
 40
1
 40
1
 40
1
 40
1
 10
65.538219
 20
48.631070
 30
0.0
 10
65.414947
 20
48.541030
 30
0.0
 10
65.353311
 20
48.395962
 30
0.0
 10
65.353311
 20
48.195864
 30
0.0
  0
LWPOLYLINE
  5
241
100
AcDbEntity
  8
Ebene_1
 62
7
100
AcDbPolyline
 90
6
 70
0
 10
58.915187
 20
48.856184
 30
0.0
 10
56.225631
 20
49.846660
 30
0.0
 10
56.225631
 20
51.242342
 30
0.0
 10
68.681637
 20
51.242342
 30
0.0
 10
68.681637
 20
49.846660
 30
0.0
 10
65.992082
 20
48.856184
 30
0.0
  0
SPLINE
  5
242
100
AcDbEntity
  8
Ebene_1
 62
7
100
AcDbSpline
 70
8
 71
3
 72
8
 73
4
 74
0
 40
0
 40
0
 40
0
 40
0
 40
1
 40
1
 40
1
 40
1
 10
65.353311
 20
32.573282
 30
0.0
 10
65.353311
 20
32.353178
 30
0.0
 10
65.414947
 20
32.193102
 30
0.0
 10
65.538219
 20
32.093053
 30
0.0
  0
SPLINE
  5
243
100
AcDbEntity
  8
Ebene_1
 62
7
100
AcDbSpline
 70
8
 71
3
 72
8
 73
4
 74
0
 40
0
 40
0
 40
0
 40
0
 40
1
 40
1
 40
1
 40
1
 10
65.538219
 20
32.093053
 30
0.0
 10
65.661490
 20
32.003008
 30
0.0
 10
65.812778
 20
31.922968
 30
0.0
 10
65.992082
 20
31.852934
 30
0.0
  0
LWPOLYLINE
  5
244
100
AcDbEntity
  8
Ebene_1
 62
7
100
AcDbPolyline
 90
2
 70
0
 10
65.353311
 20
48.195864
 30
0.0
 10
65.353311
 20
32.573282
 30
0.0
  0
SPLINE
  5
245
100
AcDbEntity
  8
Ebene_1
 62
7
100
AcDbSpline
 70
8
 71
3
 72
8
 73
4
 74
0
 40
0
 40
0
 40
0
 40
0
 40
1
 40
1
 40
1
 40
1
 10
58.915187
 20
31.852934
 30
0.0
 10
59.105697
 20
31.932971
 30
0.0
 10
59.256985
 20
32.018012
 30
0.0
 10
59.369049
 20
32.108058
 30
0.0
  0
SPLINE
  5
246
100
AcDbEntity
  8
Ebene_1
 62
7
100
AcDbSpline
 70
8
 71
3
 72
8
 73
4
 74
0
 40
0
 40
0
 40
0
 40
0
 40
1
 40
1
 40
1
 40
1
 10
59.369049
 20
32.108058
 30
0.0
 10
59.492321
 20
32.198104
 30
0.0
 10
59.553957
 20
32.353178
 30
0.0
 10
59.553957
 20
32.573282
 30
0.0
  0
LWPOLYLINE
  5
247
100
AcDbEntity
  8
Ebene_1
 62
7
100
AcDbPolyline
 90
6
 70
0
 10
65.992082
 20
31.852934
 30
0.0
 10
68.681637
 20
30.862449
 30
0.0
 10
68.681637
 20
29.466777
 30
0.0
 10
56.225631
 20
29.466777
 30
0.0
 10
56.225631
 20
30.862449
 30
0.0
 10
58.915187
 20
31.852934
 30
0.0
  0
SPLINE
  5
248
100
AcDbEntity
  8
Ebene_1
 62
7
100
AcDbSpline
 70
8
 71
3
 72
8
 73
4
 74
0
 40
0
 40
0
 40
0
 40
0
 40
1
 40
1
 40
1
 40
1
 10
49.518551
 20
32.573282
 30
0.0
 10
49.518551
 20
32.353178
 30
0.0
 10
49.574583
 20
32.193102
 30
0.0
 10
49.686647
 20
32.093053
 30
0.0
  0
SPLINE
  5
249
100
AcDbEntity
  8
Ebene_1
 62
7
100
AcDbSpline
 70
8
 71
3
 72
8
 73
4
 74
0
 40
0
 40
0
 40
0
 40
0
 40
1
 40
1
 40
1
 40
1
 10
49.686647
 20
32.093053
 30
0.0
 10
49.798713
 20
32.003008
 30
0.0
 10
49.950000
 20
31.922968
 30
0.0
 10
50.140510
 20
31.852934
 30
0.0
  0
LWPOLYLINE
  5
24a
100
AcDbEntity
  8
Ebene_1
 62
7
100
AcDbPolyline
 90
4
 70
0
 10
59.553957
 20
32.573282
 30
0.0
 10
59.553957
 20
39.461627
 30
0.0
 10
49.518551
 20
39.461627
 30
0.0
 10
49.518551
 20
32.573282
 30
0.0
  0
LWPOLYLINE
  5
24b
100
AcDbEntity
  8
Ebene_1
 62
7
100
AcDbPolyline
 90
5
 70
0
 10
50.140510
 20
31.852934
 30
0.0
 10
52.846876
 20
30.862449
 30
0.0
 10
52.846876
 20
29.466777
 30
0.0
 10
40.407679
 20
29.466777
 30
0.0
 10
40.407679
 20
30.862449
 30
0.0
  0
SPLINE
  5
24c
100
AcDbEntity
  8
Ebene_1
 62
7
100
AcDbSpline
 70
8
 71
3
 72
8
 73
4
 74
0
 40
0
 40
0
 40
0
 40
0
 40
1
 40
1
 40
1
 40
1
 10
72.126318
 20
31.642834
 30
0.0
 10
72.507338
 20
31.802907
 30
0.0
 10
72.781896
 20
32.073038
 30
0.0
 10
72.949993
 20
32.453227
 30
0.0
  0
LWPOLYLINE
  5
24d
100
AcDbEntity
  8
Ebene_1
 62
7
100
AcDbPolyline
 90
2
 70
0
 10
70.327676
 20
30.862449
 30
0.0
 10
72.126318
 20
31.642834
 30
0.0
  0
SPLINE
  5
24e
100
AcDbEntity
  8
Ebene_1
 62
7
100
AcDbSpline
 70
8
 71
3
 72
8
 73
4
 74
0
 40
0
 40
0
 40
0
 40
0
 40
1
 40
1
 40
1
 40
1
 10
94.634539
 20
32.378186
 30
0.0
 10
94.712985
 20
32.208103
 30
0.0
 10
94.813843
 20
32.048027
 30
0.0
 10
94.937115
 20
31.897957
 30
0.0
  0
SPLINE
  5
24f
100
AcDbEntity
  8
Ebene_1
 62
7
100
AcDbSpline
 70
8
 71
3
 72
8
 73
4
 74
0
 40
0
 40
0
 40
0
 40
0
 40
1
 40
1
 40
1
 40
1
 10
94.937115
 20
31.897957
 30
0.0
 10
95.060386
 20
31.747881
 30
0.0
 10
95.206070
 20
31.642831
 30
0.0
 10
95.374167
 20
31.582806
 30
0.0
  0
LWPOLYLINE
  5
250
100
AcDbEntity
  8
Ebene_1
 62
7
100
AcDbPolyline
 90
5
 70
0
 10
72.949993
 20
32.453227
 30
0.0
 10
79.841981
 20
47.940741
 30
0.0
 10
81.875958
 20
51.572498
 30
0.0
 10
86.397774
 20
51.572498
 30
0.0
 10
94.634539
 20
32.378186
 30
0.0
  0
LWPOLYLINE
  5
251
100
AcDbEntity
  8
Ebene_1
 62
7
100
AcDbPolyline
 90
13
 70
0
 10
95.374167
 20
31.582806
 30
0.0
 10
97.256856
 20
30.862449
 30
0.0
 10
97.256856
 20
29.466777
 30
0.0
 10
86.078389
 20
29.466777
 30
0.0
 10
86.078389
 20
30.862449
 30
0.0
 10
88.885614
 20
31.852934
 30
0.0
 10
86.885256
 20
36.220053
 30
0.0
 10
78.110580
 20
36.220053
 30
0.0
 10
76.261510
 20
31.942980
 30
0.0
 10
79.119163
 20
30.862449
 30
0.0
 10
79.119163
 20
29.466777
 30
0.0
 10
70.327676
 20
29.466777
 30
0.0
 10
70.327676
 20
30.862449
 30
0.0
  0
LWPOLYLINE
  5
252
100
AcDbEntity
  8
Ebene_1
 62
7
100
AcDbPolyline
 90
5
 70
1
 10
85.725385
 20
38.876339
 30
0.0
 10
83.405642
 20
44.218928
 30
0.0
 10
82.800493
 20
46.244912
 30
0.0
 10
82.430679
 20
46.244912
 30
0.0
 10
79.304069
 20
38.876339
 30
0.0
  0
SPLINE
  5
253
100
AcDbEntity
  8
Ebene_1
 62
7
100
AcDbSpline
 70
8
 71
3
 72
8
 73
4
 74
0
 40
0
 40
0
 40
0
 40
0
 40
1
 40
1
 40
1
 40
1
 10
101.781037
 20
31.852934
 30
0.0
 10
101.960340
 20
31.922968
 30
0.0
 10
102.100422
 20
32.003008
 30
0.0
 10
102.201280
 20
32.093053
 30
0.0
  0
SPLINE
  5
254
100
AcDbEntity
  8
Ebene_1
 62
7
100
AcDbSpline
 70
8
 71
3
 72
8
 73
4
 74
0
 40
0
 40
0
 40
0
 40
0
 40
1
 40
1
 40
1
 40
1
 10
102.201280
 20
32.093053
 30
0.0
 10
102.313345
 20
32.193102
 30
0.0
 10
102.369377
 20
32.353178
 30
0.0
 10
102.369377
 20
32.573282
 30
0.0
  0
LWPOLYLINE
  5
255
100
AcDbEntity
  8
Ebene_1
 62
7
100
AcDbPolyline
 90
2
 70
0
 10
99.057861
 20
30.862449
 30
0.0
 10
101.781037
 20
31.852934
 30
0.0
  0
SPLINE
  5
256
100
AcDbEntity
  8
Ebene_1
 62
7
100
AcDbSpline
 70
8
 71
3
 72
8
 73
4
 74
0
 40
0
 40
0
 40
0
 40
0
 40
1
 40
1
 40
1
 40
1
 10
102.369377
 20
48.195864
 30
0.0
 10
102.369377
 20
48.395962
 30
0.0
 10
102.307741
 20
48.541030
 30
0.0
 10
102.184470
 20
48.631070
 30
0.0
  0
SPLINE
  5
257
100
AcDbEntity
  8
Ebene_1
 62
7
100
AcDbSpline
 70
8
 71
3
 72
8
 73
4
 74
0
 40
0
 40
0
 40
0
 40
0
 40
1
 40
1
 40
1
 40
1
 10
102.184470
 20
48.631070
 30
0.0
 10
102.072405
 20
48.721116
 30
0.0
 10
101.937927
 20
48.796154
 30
0.0
 10
101.781037
 20
48.856184
 30
0.0
  0
LWPOLYLINE
  5
258
100
AcDbEntity
  8
Ebene_1
 62
7
100
AcDbPolyline
 90
2
 70
0
 10
102.369377
 20
32.573282
 30
0.0
 10
102.369377
 20
48.195864
 30
0.0
  0
SPLINE
  5
259
100
AcDbEntity
  8
Ebene_1
 62
7
100
AcDbSpline
 70
8
 71
3
 72
8
 73
4
 74
0
 40
0
 40
0
 40
0
 40
0
 40
1
 40
1
 40
1
 40
1
 10
117.111508
 20
47.880704
 30
0.0
 10
117.055486
 20
48.070798
 30
0.0
 10
116.965833
 20
48.210869
 30
0.0
 10
116.842549
 20
48.300914
 30
0.0
  0
SPLINE
  5
25a
100
AcDbEntity
  8
Ebene_1
 62
7
100
AcDbSpline
 70
8
 71
3
 72
8
 73
4
 74
0
 40
0
 40
0
 40
0
 40
0
 40
1
 40
1
 40
1
 40
1
 10
116.842549
 20
48.300914
 30
0.0
 10
116.719280
 20
48.400963
 30
0.0
 10
116.567992
 20
48.450988
 30
0.0
 10
116.388686
 20
48.450988
 30
0.0
  0
LWPOLYLINE
  5
25b
100
AcDbEntity
  8
Ebene_1
 62
7
100
AcDbPolyline
 90
7
 70
0
 10
101.781037
 20
48.856184
 30
0.0
 10
99.057861
 20
49.846660
 30
0.0
 10
99.057861
 20
51.242342
 30
0.0
 10
120.507075
 20
51.242342
 30
0.0
 10
120.507075
 20
44.999313
 30
0.0
 10
117.951996
 20
44.999313
 30
0.0
 10
117.111508
 20
47.880704
 30
0.0
  0
SPLINE
  5
25c
100
AcDbEntity
  8
Ebene_1
 62
7
100
AcDbSpline
 70
8
 71
3
 72
8
 73
4
 74
0
 40
0
 40
0
 40
0
 40
0
 40
1
 40
1
 40
1
 40
1
 10
112.757784
 20
41.832771
 30
0.0
 10
112.993126
 20
41.832771
 30
0.0
 10
113.155621
 20
41.882795
 30
0.0
 10
113.245270
 20
41.982844
 30
0.0
  0
SPLINE
  5
25d
100
AcDbEntity
  8
Ebene_1
 62
7
100
AcDbSpline
 70
8
 71
3
 72
8
 73
4
 74
0
 40
0
 40
0
 40
0
 40
0
 40
1
 40
1
 40
1
 40
1
 10
113.245270
 20
41.982844
 30
0.0
 10
113.346131
 20
42.092902
 30
0.0
 10
113.424576
 20
42.227968
 30
0.0
 10
113.480605
 20
42.388041
 30
0.0
  0
LWPOLYLINE
  5
25e
100
AcDbEntity
  8
Ebene_1
 62
7
100
AcDbPolyline
 90
4
 70
0
 10
116.388686
 20
48.450988
 30
0.0
 10
108.168736
 20
48.450988
 30
0.0
 10
108.168736
 20
41.832771
 30
0.0
 10
112.757784
 20
41.832771
 30
0.0
  0
SPLINE
  5
25f
100
AcDbEntity
  8
Ebene_1
 62
7
100
AcDbSpline
 70
8
 71
3
 72
8
 73
4
 74
0
 40
0
 40
0
 40
0
 40
0
 40
1
 40
1
 40
1
 40
1
 10
113.480605
 20
38.606211
 30
0.0
 10
113.413365
 20
38.806308
 30
0.0
 10
113.334920
 20
38.951377
 30
0.0
 10
113.245270
 20
39.041416
 30
0.0
  0
SPLINE
  5
260
100
AcDbEntity
  8
Ebene_1
 62
7
100
AcDbSpline
 70
8
 71
3
 72
8
 73
4
 74
0
 40
0
 40
0
 40
0
 40
0
 40
1
 40
1
 40
1
 40
1
 10
113.245270
 20
39.041416
 30
0.0
 10
113.155621
 20
39.131462
 30
0.0
 10
112.993126
 20
39.176485
 30
0.0
 10
112.757784
 20
39.176485
 30
0.0
  0
LWPOLYLINE
  5
261
100
AcDbEntity
  8
Ebene_1
 62
7
100
AcDbPolyline
 90
6
 70
0
 10
113.480605
 20
42.388041
 30
0.0
 10
114.321094
 20
44.729175
 30
0.0
 10
116.405493
 20
44.729175
 30
0.0
 10
116.405493
 20
36.280080
 30
0.0
 10
114.321094
 20
36.280080
 30
0.0
 10
113.480605
 20
38.606211
 30
0.0
  0
SPLINE
  5
262
100
AcDbEntity
  8
Ebene_1
 62
7
100
AcDbSpline
 70
8
 71
3
 72
8
 73
4
 74
0
 40
0
 40
0
 40
0
 40
0
 40
1
 40
1
 40
1
 40
1
 10
108.168736
 20
32.573282
 30
0.0
 10
108.168736
 20
32.353178
 30
0.0
 10
108.224768
 20
32.193102
 30
0.0
 10
108.336834
 20
32.093053
 30
0.0
  0
SPLINE
  5
263
100
AcDbEntity
  8
Ebene_1
 62
7
100
AcDbSpline
 70
8
 71
3
 72
8
 73
4
 74
0
 40
0
 40
0
 40
0
 40
0
 40
1
 40
1
 40
1
 40
1
 10
108.336834
 20
32.093053
 30
0.0
 10
108.460103
 20
31.993005
 30
0.0
 10
108.611391
 20
31.912965
 30
0.0
 10
108.790696
 20
31.852934
 30
0.0
  0
LWPOLYLINE
  5
264
100
AcDbEntity
  8
Ebene_1
 62
7
100
AcDbPolyline
 90
3
 70
0
 10
112.757784
 20
39.176485
 30
0.0
 10
108.168736
 20
39.176485
 30
0.0
 10
108.168736
 20
32.573282
 30
0.0
  0
LWPOLYLINE
  5
265
100
AcDbEntity
  8
Ebene_1
 62
7
100
AcDbPolyline
 90
5
 70
0
 10
108.790696
 20
31.852934
 30
0.0
 10
111.631541
 20
30.862449
 30
0.0
 10
111.631541
 20
29.466777
 30
0.0
 10
99.057861
 20
29.466777
 30
0.0
 10
99.057861
 20
30.862449
 30
0.0
  0
SPLINE
  5
266
100
AcDbEntity
  8
Ebene_1
 62
7
100
AcDbSpline
 70
8
 71
3
 72
8
 73
4
 74
0
 40
0
 40
0
 40
0
 40
0
 40
1
 40
1
 40
1
 40
1
 10
126.266775
 20
31.852934
 30
0.0
 10
126.434869
 20
31.912965
 30
0.0
 10
126.574949
 20
31.993005
 30
0.0
 10
126.687014
 20
32.093053
 30
0.0
  0
SPLINE
  5
267
100
AcDbEntity
  8
Ebene_1
 62
7
100
AcDbSpline
 70
8
 71
3
 72
8
 73
4
 74
0
 40
0
 40
0
 40
0
 40
0
 40
1
 40
1
 40
1
 40
1
 10
126.687014
 20
32.093053
 30
0.0
 10
126.799079
 20
32.193102
 30
0.0
 10
126.855112
 20
32.353178
 30
0.0
 10
126.855112
 20
32.573282
 30
0.0
  0
LWPOLYLINE
  5
268
100
AcDbEntity
  8
Ebene_1
 62
7
100
AcDbPolyline
 90
2
 70
0
 10
123.543598
 20
30.862449
 30
0.0
 10
126.266775
 20
31.852934
 30
0.0
  0
SPLINE
  5
269
100
AcDbEntity
  8
Ebene_1
 62
7
100
AcDbSpline
 70
8
 71
3
 72
8
 73
4
 74
0
 40
0
 40
0
 40
0
 40
0
 40
1
 40
1
 40
1
 40
1
 10
126.855112
 20
48.195864
 30
0.0
 10
126.855112
 20
48.395962
 30
0.0
 10
126.793477
 20
48.541030
 30
0.0
 10
126.670207
 20
48.631070
 30
0.0
  0
SPLINE
  5
26a
100
AcDbEntity
  8
Ebene_1
 62
7
100
AcDbSpline
 70
8
 71
3
 72
8
 73
4
 74
0
 40
0
 40
0
 40
0
 40
0
 40
1
 40
1
 40
1
 40
1
 10
126.670207
 20
48.631070
 30
0.0
 10
126.558142
 20
48.731119
 30
0.0
 10
126.423665
 20
48.806157
 30
0.0
 10
126.266775
 20
48.856184
 30
0.0
  0
LWPOLYLINE
  5
26b
100
AcDbEntity
  8
Ebene_1
 62
7
100
AcDbPolyline
 90
2
 70
0
 10
126.855112
 20
32.573282
 30
0.0
 10
126.855112
 20
48.195864
 30
0.0
  0
SPLINE
  5
26c
100
AcDbEntity
  8
Ebene_1
 62
7
100
AcDbSpline
 70
8
 71
3
 72
8
 73
4
 74
0
 40
0
 40
0
 40
0
 40
0
 40
1
 40
1
 40
1
 40
1
 10
141.782144
 20
47.880704
 30
0.0
 10
141.726122
 20
48.070798
 30
0.0
 10
141.636472
 20
48.210869
 30
0.0
 10
141.513196
 20
48.300914
 30
0.0
  0
SPLINE
  5
26d
100
AcDbEntity
  8
Ebene_1
 62
7
100
AcDbSpline
 70
8
 71
3
 72
8
 73
4
 74
0
 40
0
 40
0
 40
0
 40
0
 40
1
 40
1
 40
1
 40
1
 10
141.513196
 20
48.300914
 30
0.0
 10
141.401130
 20
48.400963
 30
0.0
 10
141.249843
 20
48.450988
 30
0.0
 10
141.059333
 20
48.450988
 30
0.0
  0
LWPOLYLINE
  5
26e
100
AcDbEntity
  8
Ebene_1
 62
7
100
AcDbPolyline
 90
7
 70
0
 10
126.266775
 20
48.856184
 30
0.0
 10
123.543598
 20
49.846660
 30
0.0
 10
123.543598
 20
51.242342
 30
0.0
 10
145.194518
 20
51.242342
 30
0.0
 10
145.194518
 20
44.999313
 30
0.0
 10
142.622632
 20
44.999313
 30
0.0
 10
141.782144
 20
47.880704
 30
0.0
  0
SPLINE
  5
26f
100
AcDbEntity
  8
Ebene_1
 62
7
100
AcDbSpline
 70
8
 71
3
 72
8
 73
4
 74
0
 40
0
 40
0
 40
0
 40
0
 40
1
 40
1
 40
1
 40
1
 10
137.092235
 20
42.102908
 30
0.0
 10
137.327570
 20
42.102908
 30
0.0
 10
137.484459
 20
42.142926
 30
0.0
 10
137.562904
 20
42.222963
 30
0.0
  0
SPLINE
  5
270
100
AcDbEntity
  8
Ebene_1
 62
7
100
AcDbSpline
 70
8
 71
3
 72
8
 73
4
 74
0
 40
0
 40
0
 40
0
 40
0
 40
1
 40
1
 40
1
 40
1
 10
137.562904
 20
42.222963
 30
0.0
 10
137.652554
 20
42.313009
 30
0.0
 10
137.736604
 20
42.463082
 30
0.0
 10
137.815056
 20
42.673183
 30
0.0
  0
LWPOLYLINE
  5
271
100
AcDbEntity
  8
Ebene_1
 62
7
100
AcDbPolyline
 90
4
 70
0
 10
141.059333
 20
48.450988
 30
0.0
 10
132.654467
 20
48.450988
 30
0.0
 10
132.654467
 20
42.102908
 30
0.0
 10
137.092235
 20
42.102908
 30
0.0
  0
SPLINE
  5
272
100
AcDbEntity
  8
Ebene_1
 62
7
100
AcDbSpline
 70
8
 71
3
 72
8
 73
4
 74
0
 40
0
 40
0
 40
0
 40
0
 40
1
 40
1
 40
1
 40
1
 10
137.815056
 20
38.876339
 30
0.0
 10
137.759034
 20
39.046421
 30
0.0
 10
137.680586
 20
39.186488
 30
0.0
 10
137.579711
 20
39.296540
 30
0.0
  0
SPLINE
  5
273
100
AcDbEntity
  8
Ebene_1
 62
7
100
AcDbSpline
 70
8
 71
3
 72
8
 73
4
 74
0
 40
0
 40
0
 40
0
 40
0
 40
1
 40
1
 40
1
 40
1
 10
137.579711
 20
39.296540
 30
0.0
 10
137.490062
 20
39.406598
 30
0.0
 10
137.327570
 20
39.461627
 30
0.0
 10
137.092235
 20
39.461627
 30
0.0
  0
LWPOLYLINE
  5
274
100
AcDbEntity
  8
Ebene_1
 62
7
100
AcDbPolyline
 90
6
 70
0
 10
137.815056
 20
42.673183
 30
0.0
 10
138.655534
 20
45.014317
 30
0.0
 10
140.773568
 20
45.014317
 30
0.0
 10
140.773568
 20
36.550208
 30
0.0
 10
138.655534
 20
36.550208
 30
0.0
 10
137.815056
 20
38.876339
 30
0.0
  0
SPLINE
  5
275
100
AcDbEntity
  8
Ebene_1
 62
7
100
AcDbSpline
 70
8
 71
3
 72
8
 73
4
 74
0
 40
0
 40
0
 40
0
 40
0
 40
1
 40
1
 40
1
 40
1
 10
142.320060
 20
32.258131
 30
0.0
 10
142.476950
 20
32.258131
 30
0.0
 10
142.622632
 20
32.313157
 30
0.0
 10
142.757106
 20
32.423209
 30
0.0
  0
SPLINE
  5
276
100
AcDbEntity
  8
Ebene_1
 62
7
100
AcDbSpline
 70
8
 71
3
 72
8
 73
4
 74
0
 40
0
 40
0
 40
0
 40
0
 40
1
 40
1
 40
1
 40
1
 10
142.757106
 20
32.423209
 30
0.0
 10
142.891587
 20
32.533261
 30
0.0
 10
142.981240
 20
32.673328
 30
0.0
 10
143.026065
 20
32.843410
 30
0.0
  0
LWPOLYLINE
  5
277
100
AcDbEntity
  8
Ebene_1
 62
7
100
AcDbPolyline
 90
4
 70
0
 10
137.092235
 20
39.461627
 30
0.0
 10
132.654467
 20
39.461627
 30
0.0
 10
132.654467
 20
32.258131
 30
0.0
 10
142.320060
 20
32.258131
 30
0.0
  0
LWPOLYLINE
  5
278
100
AcDbEntity
  8
Ebene_1
 62
7
100
AcDbPolyline
 90
6
 70
0
 10
143.026065
 20
32.843410
 30
0.0
 10
143.883360
 20
36.054975
 30
0.0
 10
146.438439
 20
36.054975
 30
0.0
 10
146.438439
 20
29.466777
 30
0.0
 10
123.543598
 20
29.466777
 30
0.0
 10
123.543598
 20
30.862449
 30
0.0
  0
SPLINE
  5
279
100
AcDbEntity
  8
Ebene_1
 62
7
100
AcDbSpline
 70
8
 71
3
 72
8
 73
4
 74
0
 40
0
 40
0
 40
0
 40
0
 40
1
 40
1
 40
1
 40
1
 10
157.025940
 20
32.663328
 30
0.0
 10
157.025940
 20
32.443218
 30
0.0
 10
157.087574
 20
32.288143
 30
0.0
 10
157.210844
 20
32.198104
 30
0.0
  0
SPLINE
  5
27a
100
AcDbEntity
  8
Ebene_1
 62
7
100
AcDbSpline
 70
8
 71
3
 72
8
 73
4
 74
0
 40
0
 40
0
 40
0
 40
0
 40
1
 40
1
 40
1
 40
1
 10
157.210844
 20
32.198104
 30
0.0
 10
157.345318
 20
32.108058
 30
0.0
 10
157.479795
 20
32.033020
 30
0.0
 10
157.614276
 20
31.972989
 30
0.0
  0
LWPOLYLINE
  5
27b
100
AcDbEntity
  8
Ebene_1
 62
7
100
AcDbPolyline
 90
4
 70
0
 10
158.538809
 20
43.783723
 30
0.0
 10
157.378942
 20
45.659633
 30
0.0
 10
157.025940
 20
45.659633
 30
0.0
 10
157.025940
 20
32.663328
 30
0.0
  0
SPLINE
  5
27c
100
AcDbEntity
  8
Ebene_1
 62
7
100
AcDbSpline
 70
8
 71
3
 72
8
 73
4
 74
0
 40
0
 40
0
 40
0
 40
0
 40
1
 40
1
 40
1
 40
1
 10
152.991605
 20
31.972989
 30
0.0
 10
153.159699
 20
32.043023
 30
0.0
 10
153.299778
 20
32.118061
 30
0.0
 10
153.411844
 20
32.198104
 30
0.0
  0
SPLINE
  5
27d
100
AcDbEntity
  8
Ebene_1
 62
7
100
AcDbSpline
 70
8
 71
3
 72
8
 73
4
 74
0
 40
0
 40
0
 40
0
 40
0
 40
1
 40
1
 40
1
 40
1
 10
153.411844
 20
32.198104
 30
0.0
 10
153.523909
 20
32.288143
 30
0.0
 10
153.579941
 20
32.443218
 30
0.0
 10
153.579941
 20
32.663328
 30
0.0
  0
LWPOLYLINE
  5
27e
100
AcDbEntity
  8
Ebene_1
 62
7
100
AcDbPolyline
 90
6
 70
0
 10
157.614276
 20
31.972989
 30
0.0
 10
160.287023
 20
30.862449
 30
0.0
 10
160.287023
 20
29.466777
 30
0.0
 10
150.268428
 20
29.466777
 30
0.0
 10
150.268428
 20
30.862449
 30
0.0
 10
152.991605
 20
31.972989
 30
0.0
  0
SPLINE
  5
27f
100
AcDbEntity
  8
Ebene_1
 62
7
100
AcDbSpline
 70
8
 71
3
 72
8
 73
4
 74
0
 40
0
 40
0
 40
0
 40
0
 40
1
 40
1
 40
1
 40
1
 10
153.579941
 20
48.195864
 30
0.0
 10
153.579941
 20
48.395962
 30
0.0
 10
153.518307
 20
48.541030
 30
0.0
 10
153.395037
 20
48.631070
 30
0.0
  0
SPLINE
  5
280
100
AcDbEntity
  8
Ebene_1
 62
7
100
AcDbSpline
 70
8
 71
3
 72
8
 73
4
 74
0
 40
0
 40
0
 40
0
 40
0
 40
1
 40
1
 40
1
 40
1
 10
153.395037
 20
48.631070
 30
0.0
 10
153.282972
 20
48.731119
 30
0.0
 10
153.148494
 20
48.806157
 30
0.0
 10
152.991605
 20
48.856184
 30
0.0
  0
LWPOLYLINE
  5
281
100
AcDbEntity
  8
Ebene_1
 62
7
100
AcDbPolyline
 90
2
 70
0
 10
153.579941
 20
32.663328
 30
0.0
 10
153.579941
 20
48.195864
 30
0.0
  0
SPLINE
  5
282
100
AcDbEntity
  8
Ebene_1
 62
7
100
AcDbSpline
 70
8
 71
3
 72
8
 73
4
 74
0
 40
0
 40
0
 40
0
 40
0
 40
1
 40
1
 40
1
 40
1
 10
170.994815
 20
48.105818
 30
0.0
 10
170.994815
 20
48.305916
 30
0.0
 10
170.938783
 20
48.440982
 30
0.0
 10
170.826718
 20
48.511015
 30
0.0
  0
SPLINE
  5
283
100
AcDbEntity
  8
Ebene_1
 62
7
100
AcDbSpline
 70
8
 71
3
 72
8
 73
4
 74
0
 40
0
 40
0
 40
0
 40
0
 40
1
 40
1
 40
1
 40
1
 10
170.826718
 20
48.511015
 30
0.0
 10
170.714653
 20
48.591052
 30
0.0
 10
170.563365
 20
48.671091
 30
0.0
 10
170.372855
 20
48.751134
 30
0.0
  0
LWPOLYLINE
  5
284
100
AcDbEntity
  8
Ebene_1
 62
7
100
AcDbPolyline
 90
8
 70
0
 10
152.991605
 20
48.856184
 30
0.0
 10
150.184374
 20
49.846660
 30
0.0
 10
150.184374
 20
51.242342
 30
0.0
 10
159.295243
 20
51.242342
 30
0.0
 10
169.431516
 20
38.246037
 30
0.0
 10
170.641813
 20
36.355122
 30
0.0
 10
170.994815
 20
36.355122
 30
0.0
 10
170.994815
 20
48.105818
 30
0.0
  0
SPLINE
  5
285
100
AcDbEntity
  8
Ebene_1
 62
7
100
AcDbSpline
 70
8
 71
3
 72
8
 73
4
 74
0
 40
0
 40
0
 40
0
 40
0
 40
1
 40
1
 40
1
 40
1
 10
174.995527
 20
48.751134
 30
0.0
 10
174.849848
 20
48.691104
 30
0.0
 10
174.709769
 20
48.616065
 30
0.0
 10
174.575288
 20
48.526020
 30
0.0
  0
SPLINE
  5
286
100
AcDbEntity
  8
Ebene_1
 62
7
100
AcDbSpline
 70
8
 71
3
 72
8
 73
4
 74
0
 40
0
 40
0
 40
0
 40
0
 40
1
 40
1
 40
1
 40
1
 10
174.575288
 20
48.526020
 30
0.0
 10
174.452018
 20
48.445983
 30
0.0
 10
174.390383
 20
48.305916
 30
0.0
 10
174.390383
 20
48.105818
 30
0.0
  0
LWPOLYLINE
  5
287
100
AcDbEntity
  8
Ebene_1
 62
7
100
AcDbPolyline
 90
6
 70
0
 10
170.372855
 20
48.751134
 30
0.0
 10
167.683302
 20
49.846660
 30
0.0
 10
167.683302
 20
51.242342
 30
0.0
 10
177.701897
 20
51.242342
 30
0.0
 10
177.701897
 20
49.846660
 30
0.0
 10
174.995527
 20
48.751134
 30
0.0
  0
LWPOLYLINE
  5
288
100
AcDbEntity
  8
Ebene_1
 62
7
100
AcDbPolyline
 90
5
 70
0
 10
174.390383
 20
48.105818
 30
0.0
 10
174.390383
 20
32.768378
 30
0.0
 10
173.869283
 20
29.316703
 30
0.0
 10
169.885379
 20
29.316703
 30
0.0
 10
158.538809
 20
43.783723
 30
0.0
  0
ENDSEC
  0
SECTION
  2
OBJECTS
  0
DICTIONARY
  5
C
330
0
100
AcDbDictionary
  3
ACAD_GROUP
350
D
  3
ACAD_MLINESTYLE
350
17
  0
DICTIONARY
  5
D
330
C
100
AcDbDictionary
  0
DICTIONARY
  5
1A
330
C
100
AcDbDictionary
  0
DICTIONARY
  5
17
330
C
100
AcDbDictionary
  3
STANDARD
350
18
  0
DICTIONARY
  5
19
330
C
100
AcDbDictionary
  0
ENDSEC
  0
EOF
