  0
SECTION
  2
HEADER
  9
$ACADVER
  1
AC1014
  9
$HANDSEED
  5
FFFF
  9
$MEASUREMENT
 70
     1
  0
ENDSEC
  0
SECTION
  2
TABLES
  0
TABLE
  2
VPORT
  5
8
330
0
100
AcDbSymbolTable
 70
     4
  0
VPORT
  5
2E
330
8
100
AcDbSymbolTableRecord
100
AcDbViewportTableRecord
  2
*ACTIVE
 70
     0
 10
0.0
 20
0.0
 11
1.0
 21
1.0
 12
210.0
 22
148.5
 13
0.0
 23
0.0
 14
10.0
 24
10.0
 15
10.0
 25
10.0
 16
0.0
 26
0.0
 36
1.0
 17
0.0
 27
0.0
 37
0.0
 40
341.0
 41
1.24
 42
50.0
 43
0.0
 44
0.0
 50
0.0
 51
0.0
 71
     0
 72
   100
 73
     1
 74
     3
 75
     0
 76
     0
 77
     0
 78
     0
  0
ENDTAB
  0
TABLE
  2
LTYPE
  5
5
330
0
100
AcDbSymbolTable
 70
     1
  0
LTYPE
  5
14
330
5
100
AcDbSymbolTableRecord
100
AcDbLinetypeTableRecord
  2
BYBLOCK
 70
     0
  3

 72
    65
 73
     0
 40
0.0
  0
LTYPE
  5
15
330
5
100
AcDbSymbolTableRecord
100
AcDbLinetypeTableRecord
  2
BYLAYER
 70
     0
  3

 72
    65
 73
     0
 40
0.0
  0
LTYPE
  5
16
330
5
100
AcDbSymbolTableRecord
100
AcDbLinetypeTableRecord
  2
CONTINUOUS
 70
     0
  3
Solid line
 72
    65
 73
     0
 40
0.0
  0
ENDTAB
  0
TABLE
  2
LAYER
  5
2
100
AcDbSymbolTable
 70
2
  0
LAYER
  5
50
100
AcDbSymbolTableRecord
100
AcDbLayerTableRecord
  2
0
 70
0
  6
CONTINUOUS
  0
LAYER
  5
51
100
AcDbSymbolTableRecord
100
AcDbLayerTableRecord
  2
Ebene_1
 70
0
  6
CONTINUOUS
  0
ENDTAB
  0
TABLE
  2
STYLE
  5
3
330
0
100
AcDbSymbolTable
 70
     1
  0
STYLE
  5
11
330
3
100
AcDbSymbolTableRecord
100
AcDbTextStyleTableRecord
  2
STANDARD
 70
     0
 40
0.0
 41
1.0
 50
0.0
 71
     0
 42
2.5
  3
txt
  4

  0
ENDTAB
  0
TABLE
  2
VIEW
  5
6
330
0
100
AcDbSymbolTable
 70
     0
  0
ENDTAB
  0
TABLE
  2
UCS
  5
7
330
0
100
AcDbSymbolTable
 70
     0
  0
ENDTAB
  0
TABLE
  2
APPID
  5
9
330
0
100
AcDbSymbolTable
 70
     2
  0
APPID
  5
12
330
9
100
AcDbSymbolTableRecord
100
AcDbRegAppTableRecord
  2
ACAD
 70
     0
  0
ENDTAB
  0
TABLE
  2
DIMSTYLE
  5
A
330
0
100
AcDbSymbolTable
 70
     1
  0
DIMSTYLE
105
27
330
A
100
AcDbSymbolTableRecord
100
AcDbDimStyleTableRecord
  2
ISO-25
 70
     0
  3

  4

  5

  6

  7

 40
1.0
 41
2.5
 42
0.625
 43
3.75
 44
1.25
 45
0.0
 46
0.0
 47
0.0
 48
0.0
140
2.5
141
2.5
142
0.0
143
0.03937007874016
144
1.0
145
0.0
146
1.0
147
0.625
 71
     0
 72
     0
 73
     0
 74
     0
 75
     0
 76
     0
 77
     1
 78
     8
170
     0
171
     3
172
     1
173
     0
174
     0
175
     0
176
     0
177
     0
178
     0
270
     2
271
     2
272
     2
273
     2
274
     3
340
11
275
     0
280
     0
281
     0
282
     0
283
     0
284
     8
285
     0
286
     0
287
     3
288
     0
  0
ENDTAB
  0
TABLE
  2
BLOCK_RECORD
  5
1
330
0
100
AcDbSymbolTable
 70
     1
  0
BLOCK_RECORD
  5
1F
330
1
100
AcDbSymbolTableRecord
100
AcDbBlockTableRecord
  2
*MODEL_SPACE
  0
BLOCK_RECORD
  5
1B
330
1
100
AcDbSymbolTableRecord
100
AcDbBlockTableRecord
  2
*PAPER_SPACE
  0
ENDTAB
  0
ENDSEC
  0
SECTION
  2
BLOCKS
  0
BLOCK
  5
20
330
1F
100
AcDbEntity
  8
0
100
AcDbBlockBegin
  2
*MODEL_SPACE
 70
     0
 10
0.0
 20
0.0
 30
0.0
  3
*MODEL_SPACE
  1

  0
ENDBLK
  5
21
330
1F
100
AcDbEntity
  8
0
100
AcDbBlockEnd
  0
BLOCK
  5
1C
330
1B
100
AcDbEntity
 67
     1
  8
0
100
AcDbBlockBegin
  2
*PAPER_SPACE
  1

  0
ENDBLK
  5
1D
330
1B
100
AcDbEntity
 67
     1
  8
0
100
AcDbBlockEnd
  0
ENDSEC
  0
SECTION
  2
ENTITIES
  0
SPLINE
  5
100
100
AcDbEntity
  8
Ebene_1
 62
7
100
AcDbSpline
 70
8
 71
3
 72
8
 73
4
 74
0
 40
0
 40
0
 40
0
 40
0
 40
1
 40
1
 40
1
 40
1
 10
-239.800780
 20
300.500000
 30
0.0
 10
-240.076911
 20
300.499972
 30
0.0
 10
-240.300752
 20
300.276131
 30
0.0
 10
-240.300780
 20
300.000000
 30
0.0
  0
SPLINE
  5
101
100
AcDbEntity
  8
Ebene_1
 62
7
100
AcDbSpline
 70
8
 71
3
 72
8
 73
4
 74
0
 40
0
 40
0
 40
0
 40
0
 40
1
 40
1
 40
1
 40
1
 10
-240.300780
 20
0.400390
 30
0.0
 10
-240.300752
 20
0.124259
 30
0.0
 10
-240.076911
 20
-0.099582
 30
0.0
 10
-239.800780
 20
-0.099610
 30
0.0
  0
LWPOLYLINE
  5
102
100
AcDbEntity
  8
Ebene_1
 62
7
100
AcDbPolyline
 90
2
 70
0
 10
-240.300780
 20
300.000000
 30
0.0
 10
-240.300780
 20
0.400390
 30
0.0
  0
SPLINE
  5
103
100
AcDbEntity
  8
Ebene_1
 62
7
100
AcDbSpline
 70
8
 71
3
 72
8
 73
4
 74
0
 40
0
 40
0
 40
0
 40
0
 40
1
 40
1
 40
1
 40
1
 10
-20.199219
 20
-0.099610
 30
0.0
 10
-19.923088
 20
-0.099582
 30
0.0
 10
-19.699247
 20
0.124259
 30
0.0
 10
-19.699219
 20
0.400390
 30
0.0
  0
LWPOLYLINE
  5
104
100
AcDbEntity
  8
Ebene_1
 62
7
100
AcDbPolyline
 90
2
 70
0
 10
-239.800780
 20
-0.099610
 30
0.0
 10
-20.199219
 20
-0.099610
 30
0.0
  0
SPLINE
  5
105
100
AcDbEntity
  8
Ebene_1
 62
7
100
AcDbSpline
 70
8
 71
3
 72
8
 73
4
 74
0
 40
0
 40
0
 40
0
 40
0
 40
1
 40
1
 40
1
 40
1
 10
-19.699219
 20
300.000000
 30
0.0
 10
-19.699247
 20
300.276131
 30
0.0
 10
-19.923088
 20
300.499972
 30
0.0
 10
-20.199219
 20
300.500000
 30
0.0
  0
LWPOLYLINE
  5
106
100
AcDbEntity
  8
Ebene_1
 62
7
100
AcDbPolyline
 90
2
 70
0
 10
-19.699219
 20
0.400390
 30
0.0
 10
-19.699219
 20
300.000000
 30
0.0
  0
LWPOLYLINE
  5
107
100
AcDbEntity
  8
Ebene_1
 62
7
100
AcDbPolyline
 90
3
 70
0
 10
-20.199219
 20
300.500000
 30
0.0
 10
-239.800780
 20
300.500000
 30
0.0
 10
-239.800780
 20
300.500000
 30
0.0
  0
SPLINE
  5
108
100
AcDbEntity
  8
Ebene_1
 62
7
100
AcDbSpline
 70
8
 71
3
 72
8
 73
4
 74
0
 40
0
 40
0
 40
0
 40
0
 40
1
 40
1
 40
1
 40
1
 10
-193.039250
 20
290.000000
 30
0.0
 10
-212.333820
 20
290.000000
 30
0.0
 10
-227.974470
 20
274.380458
 30
0.0
 10
-227.974470
 20
255.111945
 30
0.0
  0
LWPOLYLINE
  5
109
100
AcDbEntity
  8
Ebene_1
 62
7
100
AcDbPolyline
 90
5
 70
1
 10
-239.300780
 20
299.500000
 30
0.0
 10
-20.699219
 20
299.500000
 30
0.0
 10
-20.699219
 20
0.900390
 30
0.0
 10
-239.300780
 20
0.900390
 30
0.0
 10
-239.300780
 20
299.500000
 30
0.0
  0
SPLINE
  5
10a
100
AcDbEntity
  8
Ebene_1
 62
7
100
AcDbSpline
 70
8
 71
3
 72
8
 73
4
 74
0
 40
0
 40
0
 40
0
 40
0
 40
1
 40
1
 40
1
 40
1
 10
-227.974470
 20
45.266030
 30
0.0
 10
-227.974470
 20
25.997510
 30
0.0
 10
-212.333820
 20
10.377970
 30
0.0
 10
-193.039250
 20
10.377970
 30
0.0
  0
LWPOLYLINE
  5
10b
100
AcDbEntity
  8
Ebene_1
 62
7
100
AcDbPolyline
 90
2
 70
0
 10
-227.974470
 20
255.111945
 30
0.0
 10
-227.974470
 20
45.266030
 30
0.0
  0
SPLINE
  5
10c
100
AcDbEntity
  8
Ebene_1
 62
7
100
AcDbSpline
 70
8
 71
3
 72
8
 73
4
 74
0
 40
0
 40
0
 40
0
 40
0
 40
1
 40
1
 40
1
 40
1
 10
-66.960748
 20
10.377970
 30
0.0
 10
-47.666182
 20
10.377970
 30
0.0
 10
-32.025534
 20
25.997510
 30
0.0
 10
-32.025534
 20
45.266030
 30
0.0
  0
LWPOLYLINE
  5
10d
100
AcDbEntity
  8
Ebene_1
 62
7
100
AcDbPolyline
 90
2
 70
0
 10
-193.039250
 20
10.377970
 30
0.0
 10
-66.960748
 20
10.377970
 30
0.0
  0
SPLINE
  5
10e
100
AcDbEntity
  8
Ebene_1
 62
7
100
AcDbSpline
 70
8
 71
3
 72
8
 73
4
 74
0
 40
0
 40
0
 40
0
 40
0
 40
1
 40
1
 40
1
 40
1
 10
-32.025534
 20
255.111945
 30
0.0
 10
-32.025534
 20
274.380458
 30
0.0
 10
-47.666182
 20
290.000000
 30
0.0
 10
-66.960748
 20
290.000000
 30
0.0
  0
LWPOLYLINE
  5
10f
100
AcDbEntity
  8
Ebene_1
 62
7
100
AcDbPolyline
 90
2
 70
0
 10
-32.025534
 20
45.266030
 30
0.0
 10
-32.025534
 20
255.111945
 30
0.0
  0
LWPOLYLINE
  5
110
100
AcDbEntity
  8
Ebene_1
 62
7
100
AcDbPolyline
 90
2
 70
0
 10
-66.960748
 20
290.000000
 30
0.0
 10
-193.039250
 20
290.000000
 30
0.0
  0
SPLINE
  5
111
100
AcDbEntity
  8
Ebene_1
 62
7
100
AcDbSpline
 70
8
 71
3
 72
8
 73
4
 74
0
 40
0
 40
0
 40
0
 40
0
 40
1
 40
1
 40
1
 40
1
 10
-66.960748
 20
283.179951
 30
0.0
 10
-51.331468
 20
283.179951
 30
0.0
 10
-38.854802
 20
270.720117
 30
0.0
 10
-38.854802
 20
255.111945
 30
0.0
  0
LWPOLYLINE
  5
112
100
AcDbEntity
  8
Ebene_1
 62
7
100
AcDbPolyline
 90
2
 70
0
 10
-193.039250
 20
283.179951
 30
0.0
 10
-66.960748
 20
283.179951
 30
0.0
  0
SPLINE
  5
113
100
AcDbEntity
  8
Ebene_1
 62
7
100
AcDbSpline
 70
8
 71
3
 72
8
 73
4
 74
0
 40
0
 40
0
 40
0
 40
0
 40
1
 40
1
 40
1
 40
1
 10
-38.854802
 20
45.266030
 30
0.0
 10
-38.854802
 20
29.657850
 30
0.0
 10
-51.331468
 20
17.198030
 30
0.0
 10
-66.960748
 20
17.198030
 30
0.0
  0
LWPOLYLINE
  5
114
100
AcDbEntity
  8
Ebene_1
 62
7
100
AcDbPolyline
 90
2
 70
0
 10
-38.854802
 20
255.111945
 30
0.0
 10
-38.854802
 20
45.266030
 30
0.0
  0
SPLINE
  5
115
100
AcDbEntity
  8
Ebene_1
 62
7
100
AcDbSpline
 70
8
 71
3
 72
8
 73
4
 74
0
 40
0
 40
0
 40
0
 40
0
 40
1
 40
1
 40
1
 40
1
 10
-193.039250
 20
17.198030
 30
0.0
 10
-208.668540
 20
17.198030
 30
0.0
 10
-221.145200
 20
29.657850
 30
0.0
 10
-221.145200
 20
45.266030
 30
0.0
  0
LWPOLYLINE
  5
116
100
AcDbEntity
  8
Ebene_1
 62
7
100
AcDbPolyline
 90
2
 70
0
 10
-66.960748
 20
17.198030
 30
0.0
 10
-193.039250
 20
17.198030
 30
0.0
  0
SPLINE
  5
117
100
AcDbEntity
  8
Ebene_1
 62
7
100
AcDbSpline
 70
8
 71
3
 72
8
 73
4
 74
0
 40
0
 40
0
 40
0
 40
0
 40
1
 40
1
 40
1
 40
1
 10
-221.145200
 20
255.111945
 30
0.0
 10
-221.145200
 20
270.720117
 30
0.0
 10
-208.668540
 20
283.179951
 30
0.0
 10
-193.039250
 20
283.179951
 30
0.0
  0
LWPOLYLINE
  5
118
100
AcDbEntity
  8
Ebene_1
 62
7
100
AcDbPolyline
 90
2
 70
0
 10
-221.145200
 20
45.266030
 30
0.0
 10
-221.145200
 20
255.111945
 30
0.0
  0
SPLINE
  5
119
100
AcDbEntity
  8
Ebene_1
 62
7
100
AcDbSpline
 70
8
 71
3
 72
8
 73
4
 74
0
 40
0
 40
0
 40
0
 40
0
 40
1
 40
1
 40
1
 40
1
 10
-204.913680
 20
32.208340
 30
0.0
 10
-204.913680
 20
31.545299
 30
0.0
 10
-205.177072
 20
30.909414
 30
0.0
 10
-205.645913
 20
30.440573
 30
0.0
  0
SPLINE
  5
11a
100
AcDbEntity
  8
Ebene_1
 62
7
100
AcDbSpline
 70
8
 71
3
 72
8
 73
4
 74
0
 40
0
 40
0
 40
0
 40
0
 40
1
 40
1
 40
1
 40
1
 10
-205.645913
 20
30.440573
 30
0.0
 10
-206.114754
 20
29.971732
 30
0.0
 10
-206.750639
 20
29.708340
 30
0.0
 10
-207.413680
 20
29.708340
 30
0.0
  0
SPLINE
  5
11b
100
AcDbEntity
  8
Ebene_1
 62
7
100
AcDbSpline
 70
8
 71
3
 72
8
 73
4
 74
0
 40
0
 40
0
 40
0
 40
0
 40
1
 40
1
 40
1
 40
1
 10
-207.413680
 20
29.708340
 30
0.0
 10
-208.076721
 20
29.708340
 30
0.0
 10
-208.712606
 20
29.971732
 30
0.0
 10
-209.181447
 20
30.440573
 30
0.0
  0
SPLINE
  5
11c
100
AcDbEntity
  8
Ebene_1
 62
7
100
AcDbSpline
 70
8
 71
3
 72
8
 73
4
 74
0
 40
0
 40
0
 40
0
 40
0
 40
1
 40
1
 40
1
 40
1
 10
-209.181447
 20
30.440573
 30
0.0
 10
-209.650288
 20
30.909414
 30
0.0
 10
-209.913680
 20
31.545299
 30
0.0
 10
-209.913680
 20
32.208340
 30
0.0
  0
SPLINE
  5
11d
100
AcDbEntity
  8
Ebene_1
 62
7
100
AcDbSpline
 70
8
 71
3
 72
8
 73
4
 74
0
 40
0
 40
0
 40
0
 40
0
 40
1
 40
1
 40
1
 40
1
 10
-209.913680
 20
32.208340
 30
0.0
 10
-209.913680
 20
32.871381
 30
0.0
 10
-209.650288
 20
33.507266
 30
0.0
 10
-209.181447
 20
33.976107
 30
0.0
  0
SPLINE
  5
11e
100
AcDbEntity
  8
Ebene_1
 62
7
100
AcDbSpline
 70
8
 71
3
 72
8
 73
4
 74
0
 40
0
 40
0
 40
0
 40
0
 40
1
 40
1
 40
1
 40
1
 10
-209.181447
 20
33.976107
 30
0.0
 10
-208.712606
 20
34.444948
 30
0.0
 10
-208.076721
 20
34.708340
 30
0.0
 10
-207.413680
 20
34.708340
 30
0.0
  0
SPLINE
  5
11f
100
AcDbEntity
  8
Ebene_1
 62
7
100
AcDbSpline
 70
8
 71
3
 72
8
 73
4
 74
0
 40
0
 40
0
 40
0
 40
0
 40
1
 40
1
 40
1
 40
1
 10
-207.413680
 20
34.708340
 30
0.0
 10
-206.750639
 20
34.708340
 30
0.0
 10
-206.114754
 20
34.444948
 30
0.0
 10
-205.645913
 20
33.976107
 30
0.0
  0
SPLINE
  5
120
100
AcDbEntity
  8
Ebene_1
 62
7
100
AcDbSpline
 70
8
 71
3
 72
8
 73
4
 74
0
 40
0
 40
0
 40
0
 40
0
 40
1
 40
1
 40
1
 40
1
 10
-205.645913
 20
33.976107
 30
0.0
 10
-205.177072
 20
33.507266
 30
0.0
 10
-204.913680
 20
32.871381
 30
0.0
 10
-204.913680
 20
32.208340
 30
0.0
  0
LWPOLYLINE
  5
121
100
AcDbEntity
  8
Ebene_1
 62
7
100
AcDbPolyline
 90
1
 70
1
 10
-193.039250
 20
283.179951
 30
0.0
  0
SPLINE
  5
122
100
AcDbEntity
  8
Ebene_1
 62
7
100
AcDbSpline
 70
8
 71
3
 72
8
 73
4
 74
0
 40
0
 40
0
 40
0
 40
0
 40
1
 40
1
 40
1
 40
1
 10
-50.000000
 20
32.500000
 30
0.0
 10
-50.000000
 20
31.836959
 30
0.0
 10
-50.263392
 20
31.201074
 30
0.0
 10
-50.732233
 20
30.732233
 30
0.0
  0
SPLINE
  5
123
100
AcDbEntity
  8
Ebene_1
 62
7
100
AcDbSpline
 70
8
 71
3
 72
8
 73
4
 74
0
 40
0
 40
0
 40
0
 40
0
 40
1
 40
1
 40
1
 40
1
 10
-50.732233
 20
30.732233
 30
0.0
 10
-51.201074
 20
30.263392
 30
0.0
 10
-51.836959
 20
30.000000
 30
0.0
 10
-52.500000
 20
30.000000
 30
0.0
  0
SPLINE
  5
124
100
AcDbEntity
  8
Ebene_1
 62
7
100
AcDbSpline
 70
8
 71
3
 72
8
 73
4
 74
0
 40
0
 40
0
 40
0
 40
0
 40
1
 40
1
 40
1
 40
1
 10
-52.500000
 20
30.000000
 30
0.0
 10
-53.163041
 20
30.000000
 30
0.0
 10
-53.798926
 20
30.263392
 30
0.0
 10
-54.267767
 20
30.732233
 30
0.0
  0
SPLINE
  5
125
100
AcDbEntity
  8
Ebene_1
 62
7
100
AcDbSpline
 70
8
 71
3
 72
8
 73
4
 74
0
 40
0
 40
0
 40
0
 40
0
 40
1
 40
1
 40
1
 40
1
 10
-54.267767
 20
30.732233
 30
0.0
 10
-54.736608
 20
31.201074
 30
0.0
 10
-55.000000
 20
31.836959
 30
0.0
 10
-55.000000
 20
32.500000
 30
0.0
  0
SPLINE
  5
126
100
AcDbEntity
  8
Ebene_1
 62
7
100
AcDbSpline
 70
8
 71
3
 72
8
 73
4
 74
0
 40
0
 40
0
 40
0
 40
0
 40
1
 40
1
 40
1
 40
1
 10
-55.000000
 20
32.500000
 30
0.0
 10
-55.000000
 20
33.163041
 30
0.0
 10
-54.736608
 20
33.798926
 30
0.0
 10
-54.267767
 20
34.267767
 30
0.0
  0
SPLINE
  5
127
100
AcDbEntity
  8
Ebene_1
 62
7
100
AcDbSpline
 70
8
 71
3
 72
8
 73
4
 74
0
 40
0
 40
0
 40
0
 40
0
 40
1
 40
1
 40
1
 40
1
 10
-54.267767
 20
34.267767
 30
0.0
 10
-53.798926
 20
34.736608
 30
0.0
 10
-53.163041
 20
35.000000
 30
0.0
 10
-52.500000
 20
35.000000
 30
0.0
  0
SPLINE
  5
128
100
AcDbEntity
  8
Ebene_1
 62
7
100
AcDbSpline
 70
8
 71
3
 72
8
 73
4
 74
0
 40
0
 40
0
 40
0
 40
0
 40
1
 40
1
 40
1
 40
1
 10
-52.500000
 20
35.000000
 30
0.0
 10
-51.836959
 20
35.000000
 30
0.0
 10
-51.201074
 20
34.736608
 30
0.0
 10
-50.732233
 20
34.267767
 30
0.0
  0
SPLINE
  5
129
100
AcDbEntity
  8
Ebene_1
 62
7
100
AcDbSpline
 70
8
 71
3
 72
8
 73
4
 74
0
 40
0
 40
0
 40
0
 40
0
 40
1
 40
1
 40
1
 40
1
 10
-50.732233
 20
34.267767
 30
0.0
 10
-50.263392
 20
33.798926
 30
0.0
 10
-50.000000
 20
33.163041
 30
0.0
 10
-50.000000
 20
32.500000
 30
0.0
  0
LWPOLYLINE
  5
12a
100
AcDbEntity
  8
Ebene_1
 62
7
100
AcDbPolyline
 90
1
 70
1
 10
-204.913680
 20
32.208340
 30
0.0
  0
SPLINE
  5
12b
100
AcDbEntity
  8
Ebene_1
 62
7
100
AcDbSpline
 70
8
 71
3
 72
8
 73
4
 74
0
 40
0
 40
0
 40
0
 40
0
 40
1
 40
1
 40
1
 40
1
 10
-49.622025
 20
267.586309
 30
0.0
 10
-49.622025
 20
266.923268
 30
0.0
 10
-49.885417
 20
266.287383
 30
0.0
 10
-50.354258
 20
265.818542
 30
0.0
  0
SPLINE
  5
12c
100
AcDbEntity
  8
Ebene_1
 62
7
100
AcDbSpline
 70
8
 71
3
 72
8
 73
4
 74
0
 40
0
 40
0
 40
0
 40
0
 40
1
 40
1
 40
1
 40
1
 10
-50.354258
 20
265.818542
 30
0.0
 10
-50.823099
 20
265.349701
 30
0.0
 10
-51.458984
 20
265.086309
 30
0.0
 10
-52.122025
 20
265.086309
 30
0.0
  0
SPLINE
  5
12d
100
AcDbEntity
  8
Ebene_1
 62
7
100
AcDbSpline
 70
8
 71
3
 72
8
 73
4
 74
0
 40
0
 40
0
 40
0
 40
0
 40
1
 40
1
 40
1
 40
1
 10
-52.122025
 20
265.086309
 30
0.0
 10
-52.785066
 20
265.086309
 30
0.0
 10
-53.420951
 20
265.349701
 30
0.0
 10
-53.889792
 20
265.818542
 30
0.0
  0
SPLINE
  5
12e
100
AcDbEntity
  8
Ebene_1
 62
7
100
AcDbSpline
 70
8
 71
3
 72
8
 73
4
 74
0
 40
0
 40
0
 40
0
 40
0
 40
1
 40
1
 40
1
 40
1
 10
-53.889792
 20
265.818542
 30
0.0
 10
-54.358633
 20
266.287383
 30
0.0
 10
-54.622025
 20
266.923268
 30
0.0
 10
-54.622025
 20
267.586309
 30
0.0
  0
SPLINE
  5
12f
100
AcDbEntity
  8
Ebene_1
 62
7
100
AcDbSpline
 70
8
 71
3
 72
8
 73
4
 74
0
 40
0
 40
0
 40
0
 40
0
 40
1
 40
1
 40
1
 40
1
 10
-54.622025
 20
267.586309
 30
0.0
 10
-54.622025
 20
268.249350
 30
0.0
 10
-54.358633
 20
268.885235
 30
0.0
 10
-53.889792
 20
269.354076
 30
0.0
  0
SPLINE
  5
130
100
AcDbEntity
  8
Ebene_1
 62
7
100
AcDbSpline
 70
8
 71
3
 72
8
 73
4
 74
0
 40
0
 40
0
 40
0
 40
0
 40
1
 40
1
 40
1
 40
1
 10
-53.889792
 20
269.354076
 30
0.0
 10
-53.420951
 20
269.822917
 30
0.0
 10
-52.785066
 20
270.086309
 30
0.0
 10
-52.122025
 20
270.086309
 30
0.0
  0
SPLINE
  5
131
100
AcDbEntity
  8
Ebene_1
 62
7
100
AcDbSpline
 70
8
 71
3
 72
8
 73
4
 74
0
 40
0
 40
0
 40
0
 40
0
 40
1
 40
1
 40
1
 40
1
 10
-52.122025
 20
270.086309
 30
0.0
 10
-51.458984
 20
270.086309
 30
0.0
 10
-50.823099
 20
269.822917
 30
0.0
 10
-50.354258
 20
269.354076
 30
0.0
  0
SPLINE
  5
132
100
AcDbEntity
  8
Ebene_1
 62
7
100
AcDbSpline
 70
8
 71
3
 72
8
 73
4
 74
0
 40
0
 40
0
 40
0
 40
0
 40
1
 40
1
 40
1
 40
1
 10
-50.354258
 20
269.354076
 30
0.0
 10
-49.885417
 20
268.885235
 30
0.0
 10
-49.622025
 20
268.249350
 30
0.0
 10
-49.622025
 20
267.586309
 30
0.0
  0
LWPOLYLINE
  5
133
100
AcDbEntity
  8
Ebene_1
 62
7
100
AcDbPolyline
 90
1
 70
1
 10
-50.000000
 20
32.500000
 30
0.0
  0
SPLINE
  5
134
100
AcDbEntity
  8
Ebene_1
 62
7
100
AcDbSpline
 70
8
 71
3
 72
8
 73
4
 74
0
 40
0
 40
0
 40
0
 40
0
 40
1
 40
1
 40
1
 40
1
 10
-204.622020
 20
267.586309
 30
0.0
 10
-204.622020
 20
266.923268
 30
0.0
 10
-204.885412
 20
266.287383
 30
0.0
 10
-205.354253
 20
265.818542
 30
0.0
  0
SPLINE
  5
135
100
AcDbEntity
  8
Ebene_1
 62
7
100
AcDbSpline
 70
8
 71
3
 72
8
 73
4
 74
0
 40
0
 40
0
 40
0
 40
0
 40
1
 40
1
 40
1
 40
1
 10
-205.354253
 20
265.818542
 30
0.0
 10
-205.823094
 20
265.349701
 30
0.0
 10
-206.458979
 20
265.086309
 30
0.0
 10
-207.122020
 20
265.086309
 30
0.0
  0
SPLINE
  5
136
100
AcDbEntity
  8
Ebene_1
 62
7
100
AcDbSpline
 70
8
 71
3
 72
8
 73
4
 74
0
 40
0
 40
0
 40
0
 40
0
 40
1
 40
1
 40
1
 40
1
 10
-207.122020
 20
265.086309
 30
0.0
 10
-207.785061
 20
265.086309
 30
0.0
 10
-208.420946
 20
265.349701
 30
0.0
 10
-208.889787
 20
265.818542
 30
0.0
  0
SPLINE
  5
137
100
AcDbEntity
  8
Ebene_1
 62
7
100
AcDbSpline
 70
8
 71
3
 72
8
 73
4
 74
0
 40
0
 40
0
 40
0
 40
0
 40
1
 40
1
 40
1
 40
1
 10
-208.889787
 20
265.818542
 30
0.0
 10
-209.358628
 20
266.287383
 30
0.0
 10
-209.622020
 20
266.923268
 30
0.0
 10
-209.622020
 20
267.586309
 30
0.0
  0
SPLINE
  5
138
100
AcDbEntity
  8
Ebene_1
 62
7
100
AcDbSpline
 70
8
 71
3
 72
8
 73
4
 74
0
 40
0
 40
0
 40
0
 40
0
 40
1
 40
1
 40
1
 40
1
 10
-209.622020
 20
267.586309
 30
0.0
 10
-209.622020
 20
268.249350
 30
0.0
 10
-209.358628
 20
268.885235
 30
0.0
 10
-208.889787
 20
269.354076
 30
0.0
  0
SPLINE
  5
139
100
AcDbEntity
  8
Ebene_1
 62
7
100
AcDbSpline
 70
8
 71
3
 72
8
 73
4
 74
0
 40
0
 40
0
 40
0
 40
0
 40
1
 40
1
 40
1
 40
1
 10
-208.889787
 20
269.354076
 30
0.0
 10
-208.420946
 20
269.822917
 30
0.0
 10
-207.785061
 20
270.086309
 30
0.0
 10
-207.122020
 20
270.086309
 30
0.0
  0
SPLINE
  5
13a
100
AcDbEntity
  8
Ebene_1
 62
7
100
AcDbSpline
 70
8
 71
3
 72
8
 73
4
 74
0
 40
0
 40
0
 40
0
 40
0
 40
1
 40
1
 40
1
 40
1
 10
-207.122020
 20
270.086309
 30
0.0
 10
-206.458979
 20
270.086309
 30
0.0
 10
-205.823094
 20
269.822917
 30
0.0
 10
-205.354253
 20
269.354076
 30
0.0
  0
SPLINE
  5
13b
100
AcDbEntity
  8
Ebene_1
 62
7
100
AcDbSpline
 70
8
 71
3
 72
8
 73
4
 74
0
 40
0
 40
0
 40
0
 40
0
 40
1
 40
1
 40
1
 40
1
 10
-205.354253
 20
269.354076
 30
0.0
 10
-204.885412
 20
268.885235
 30
0.0
 10
-204.622020
 20
268.249350
 30
0.0
 10
-204.622020
 20
267.586309
 30
0.0
  0
LWPOLYLINE
  5
13c
100
AcDbEntity
  8
Ebene_1
 62
7
100
AcDbPolyline
 90
1
 70
1
 10
-49.622025
 20
267.586309
 30
0.0
  0
LWPOLYLINE
  5
13d
100
AcDbEntity
  8
Ebene_1
 62
7
100
AcDbPolyline
 90
1
 70
1
 10
-204.622020
 20
267.586309
 30
0.0
  0
SPLINE
  5
13e
100
AcDbEntity
  8
Ebene_1
 62
7
100
AcDbSpline
 70
8
 71
3
 72
8
 73
4
 74
0
 40
0
 40
0
 40
0
 40
0
 40
1
 40
1
 40
1
 40
1
 10
-71.879995
 20
64.970940
 30
0.0
 10
-71.879995
 20
63.723070
 30
0.0
 10
-71.457311
 20
62.599410
 30
0.0
 10
-70.650940
 20
61.704890
 30
0.0
  0
LWPOLYLINE
  5
13f
100
AcDbEntity
  8
Ebene_1
 62
7
100
AcDbPolyline
 90
2
 70
0
 10
-71.879995
 20
73.654700
 30
0.0
 10
-71.879995
 20
64.970940
 30
0.0
  0
SPLINE
  5
140
100
AcDbEntity
  8
Ebene_1
 62
7
100
AcDbSpline
 70
8
 71
3
 72
8
 73
4
 74
0
 40
0
 40
0
 40
0
 40
0
 40
1
 40
1
 40
1
 40
1
 10
-70.647140
 20
61.700890
 30
0.0
 10
-69.836012
 20
60.824770
 30
0.0
 10
-68.792526
 20
60.367270
 30
0.0
 10
-67.619606
 20
60.367270
 30
0.0
  0
LWPOLYLINE
  5
141
100
AcDbEntity
  8
Ebene_1
 62
7
100
AcDbPolyline
 90
3
 70
0
 10
-70.650940
 20
61.704890
 30
0.0
 10
-70.649040
 20
61.702890
 30
0.0
 10
-70.647140
 20
61.700890
 30
0.0
  0
SPLINE
  5
142
100
AcDbEntity
  8
Ebene_1
 62
7
100
AcDbSpline
 70
8
 71
3
 72
8
 73
4
 74
0
 40
0
 40
0
 40
0
 40
0
 40
1
 40
1
 40
1
 40
1
 10
-64.321455
 20
73.135110
 30
0.0
 10
-64.321455
 20
71.887230
 30
0.0
 10
-63.898769
 20
70.765610
 30
0.0
 10
-63.092401
 20
69.871090
 30
0.0
  0
LWPOLYLINE
  5
143
100
AcDbEntity
  8
Ebene_1
 62
7
100
AcDbPolyline
 90
5
 70
0
 10
-67.619606
 20
60.367270
 30
0.0
 10
-48.240385
 20
60.367270
 30
0.0
 10
-48.240385
 20
73.654750
 30
0.0
 10
-64.321455
 20
73.654750
 30
0.0
 10
-64.321455
 20
73.135110
 30
0.0
  0
SPLINE
  5
144
100
AcDbEntity
  8
Ebene_1
 62
7
100
AcDbSpline
 70
8
 71
3
 72
8
 73
4
 74
0
 40
0
 40
0
 40
0
 40
0
 40
1
 40
1
 40
1
 40
1
 10
-63.086701
 20
69.865090
 30
0.0
 10
-62.275574
 20
68.988980
 30
0.0
 10
-61.232088
 20
68.533500
 30
0.0
 10
-60.059167
 20
68.533500
 30
0.0
  0
LWPOLYLINE
  5
145
100
AcDbEntity
  8
Ebene_1
 62
7
100
AcDbPolyline
 90
3
 70
0
 10
-63.092401
 20
69.871090
 30
0.0
 10
-63.088601
 20
69.867090
 30
0.0
 10
-63.086701
 20
69.865090
 30
0.0
  0
SPLINE
  5
146
100
AcDbEntity
  8
Ebene_1
 62
7
100
AcDbSpline
 70
8
 71
3
 72
8
 73
4
 74
0
 40
0
 40
0
 40
0
 40
0
 40
1
 40
1
 40
1
 40
1
 10
-65.728980
 20
65.490730
 30
0.0
 10
-66.147407
 20
65.490730
 30
0.0
 10
-66.454134
 20
65.625810
 30
0.0
 10
-66.741916
 20
65.914960
 30
0.0
  0
SPLINE
  5
147
100
AcDbEntity
  8
Ebene_1
 62
7
100
AcDbSpline
 70
8
 71
3
 72
8
 73
4
 74
0
 40
0
 40
0
 40
0
 40
0
 40
1
 40
1
 40
1
 40
1
 10
-66.741916
 20
65.914960
 30
0.0
 10
-67.011791
 20
66.226830
 30
0.0
 10
-67.138446
 20
66.557400
 30
0.0
 10
-67.138446
 20
67.011090
 30
0.0
  0
LWPOLYLINE
  5
148
100
AcDbEntity
  8
Ebene_1
 62
7
100
AcDbPolyline
 90
4
 70
0
 10
-60.059167
 20
68.533500
 30
0.0
 10
-52.981767
 20
68.533500
 30
0.0
 10
-52.981767
 20
65.490730
 30
0.0
 10
-65.728980
 20
65.490730
 30
0.0
  0
LWPOLYLINE
  5
149
100
AcDbEntity
  8
Ebene_1
 62
7
100
AcDbPolyline
 90
3
 70
0
 10
-67.138446
 20
67.011090
 30
0.0
 10
-67.138446
 20
73.654840
 30
0.0
 10
-71.879995
 20
73.654700
 30
0.0
  0
SPLINE
  5
14a
100
AcDbEntity
  8
Ebene_1
 62
7
100
AcDbSpline
 70
8
 71
3
 72
8
 73
4
 74
0
 40
0
 40
0
 40
0
 40
0
 40
1
 40
1
 40
1
 40
1
 10
-192.830997
 20
75.177090
 30
0.0
 10
-192.830997
 20
74.728010
 30
0.0
 10
-192.959077
 20
74.399990
 30
0.0
 10
-193.248187
 20
74.085020
 30
0.0
  0
SPLINE
  5
14b
100
AcDbEntity
  8
Ebene_1
 62
7
100
AcDbSpline
 70
8
 71
3
 72
8
 73
4
 74
0
 40
0
 40
0
 40
0
 40
0
 40
1
 40
1
 40
1
 40
1
 10
-193.248187
 20
74.085020
 30
0.0
 10
-193.540707
 20
73.788250
 30
0.0
 10
-193.840617
 20
73.654700
 30
0.0
 10
-194.238577
 20
73.654700
 30
0.0
  0
LWPOLYLINE
  5
14c
100
AcDbEntity
  8
Ebene_1
 62
7
100
AcDbPolyline
 90
4
 70
0
 10
-211.729117
 20
81.820830
 30
0.0
 10
-211.729117
 20
76.697450
 30
0.0
 10
-192.830997
 20
76.697450
 30
0.0
 10
-192.830997
 20
75.177090
 30
0.0
  0
SPLINE
  5
14d
100
AcDbEntity
  8
Ebene_1
 62
7
100
AcDbSpline
 70
8
 71
3
 72
8
 73
4
 74
0
 40
0
 40
0
 40
0
 40
0
 40
1
 40
1
 40
1
 40
1
 10
-192.349897
 20
68.533360
 30
0.0
 10
-191.212117
 20
68.533360
 30
0.0
 10
-190.182837
 20
68.991510
 30
0.0
 10
-189.356187
 20
69.860880
 30
0.0
  0
SPLINE
  5
14e
100
AcDbEntity
  8
Ebene_1
 62
7
100
AcDbSpline
 70
8
 71
3
 72
8
 73
4
 74
0
 40
0
 40
0
 40
0
 40
0
 40
1
 40
1
 40
1
 40
1
 10
-189.356187
 20
69.860880
 30
0.0
 10
-188.524317
 20
70.735770
 30
0.0
 10
-188.087667
 20
71.864940
 30
0.0
 10
-188.087667
 20
73.135050
 30
0.0
  0
LWPOLYLINE
  5
14f
100
AcDbEntity
  8
Ebene_1
 62
7
100
AcDbPolyline
 90
7
 70
0
 10
-194.238577
 20
73.654700
 30
0.0
 10
-211.729117
 20
73.654700
 30
0.0
 10
-211.729117
 20
60.367210
 30
0.0
 10
-211.248017
 20
60.367210
 30
0.0
 10
-206.987667
 20
60.367210
 30
0.0
 10
-206.987667
 20
68.533360
 30
0.0
 10
-192.349897
 20
68.533360
 30
0.0
  0
LWPOLYLINE
  5
150
100
AcDbEntity
  8
Ebene_1
 62
7
100
AcDbPolyline
 90
3
 70
0
 10
-188.087667
 20
73.135050
 30
0.0
 10
-188.087667
 20
81.820830
 30
0.0
 10
-211.729117
 20
81.820830
 30
0.0
  0
LWPOLYLINE
  5
151
100
AcDbEntity
  8
Ebene_1
 62
7
100
AcDbPolyline
 90
9
 70
1
 10
-185.270617
 20
73.654700
 30
0.0
 10
-185.270617
 20
60.367210
 30
0.0
 10
-184.789517
 20
60.367210
 30
0.0
 10
-180.529167
 20
60.367210
 30
0.0
 10
-180.529167
 20
68.533360
 30
0.0
 10
-166.372487
 20
68.533360
 30
0.0
 10
-166.372487
 20
60.367210
 30
0.0
 10
-161.631047
 20
60.367210
 30
0.0
 10
-161.631047
 20
73.654700
 30
0.0
  0
SPLINE
  5
152
100
AcDbEntity
  8
Ebene_1
 62
7
100
AcDbSpline
 70
8
 71
3
 72
8
 73
4
 74
0
 40
0
 40
0
 40
0
 40
0
 40
1
 40
1
 40
1
 40
1
 10
-185.270617
 20
81.301190
 30
0.0
 10
-185.270617
 20
80.053310
 30
0.0
 10
-184.847937
 20
78.929660
 30
0.0
 10
-184.041557
 20
78.035130
 30
0.0
  0
LWPOLYLINE
  5
153
100
AcDbEntity
  8
Ebene_1
 62
7
100
AcDbPolyline
 90
2
 70
0
 10
-185.270617
 20
81.820830
 30
0.0
 10
-185.270617
 20
81.301190
 30
0.0
  0
SPLINE
  5
154
100
AcDbEntity
  8
Ebene_1
 62
7
100
AcDbSpline
 70
8
 71
3
 72
8
 73
4
 74
0
 40
0
 40
0
 40
0
 40
0
 40
1
 40
1
 40
1
 40
1
 10
-184.037557
 20
78.031130
 30
0.0
 10
-183.226427
 20
77.155020
 30
0.0
 10
-182.182937
 20
76.697500
 30
0.0
 10
-181.010017
 20
76.697500
 30
0.0
  0
LWPOLYLINE
  5
155
100
AcDbEntity
  8
Ebene_1
 62
7
100
AcDbPolyline
 90
3
 70
0
 10
-184.041557
 20
78.035130
 30
0.0
 10
-184.039557
 20
78.033130
 30
0.0
 10
-184.037557
 20
78.031130
 30
0.0
  0
SPLINE
  5
156
100
AcDbEntity
  8
Ebene_1
 62
7
100
AcDbSpline
 70
8
 71
3
 72
8
 73
4
 74
0
 40
0
 40
0
 40
0
 40
0
 40
1
 40
1
 40
1
 40
1
 10
-165.891147
 20
76.697500
 30
0.0
 10
-164.753367
 20
76.697500
 30
0.0
 10
-163.724087
 20
77.155650
 30
0.0
 10
-162.897437
 20
78.025040
 30
0.0
  0
SPLINE
  5
157
100
AcDbEntity
  8
Ebene_1
 62
7
100
AcDbSpline
 70
8
 71
3
 72
8
 73
4
 74
0
 40
0
 40
0
 40
0
 40
0
 40
1
 40
1
 40
1
 40
1
 10
-162.897437
 20
78.025040
 30
0.0
 10
-162.065557
 20
78.899920
 30
0.0
 10
-161.630807
 20
80.031130
 30
0.0
 10
-161.630807
 20
81.301230
 30
0.0
  0
LWPOLYLINE
  5
158
100
AcDbEntity
  8
Ebene_1
 62
7
100
AcDbPolyline
 90
2
 70
0
 10
-181.010017
 20
76.697500
 30
0.0
 10
-165.891147
 20
76.697500
 30
0.0
  0
LWPOLYLINE
  5
159
100
AcDbEntity
  8
Ebene_1
 62
7
100
AcDbPolyline
 90
3
 70
0
 10
-161.630807
 20
81.301230
 30
0.0
 10
-161.630807
 20
81.820880
 30
0.0
 10
-185.270617
 20
81.820830
 30
0.0
  0
SPLINE
  5
15a
100
AcDbEntity
  8
Ebene_1
 62
7
100
AcDbSpline
 70
8
 71
3
 72
8
 73
4
 74
0
 40
0
 40
0
 40
0
 40
0
 40
1
 40
1
 40
1
 40
1
 10
-158.813987
 20
81.301190
 30
0.0
 10
-158.813987
 20
80.053310
 30
0.0
 10
-158.391307
 20
78.929660
 30
0.0
 10
-157.584937
 20
78.035130
 30
0.0
  0
LWPOLYLINE
  5
15b
100
AcDbEntity
  8
Ebene_1
 62
7
100
AcDbPolyline
 90
2
 70
0
 10
-158.813987
 20
81.820830
 30
0.0
 10
-158.813987
 20
81.301190
 30
0.0
  0
SPLINE
  5
15c
100
AcDbEntity
  8
Ebene_1
 62
7
100
AcDbSpline
 70
8
 71
3
 72
8
 73
4
 74
0
 40
0
 40
0
 40
0
 40
0
 40
1
 40
1
 40
1
 40
1
 10
-157.578937
 20
78.031130
 30
0.0
 10
-156.767817
 20
77.155020
 30
0.0
 10
-155.724327
 20
76.697510
 30
0.0
 10
-154.551407
 20
76.697500
 30
0.0
  0
LWPOLYLINE
  5
15d
100
AcDbEntity
  8
Ebene_1
 62
7
100
AcDbPolyline
 90
3
 70
0
 10
-157.584937
 20
78.035130
 30
0.0
 10
-157.580937
 20
78.033130
 30
0.0
 10
-157.578937
 20
78.031130
 30
0.0
  0
SPLINE
  5
15e
100
AcDbEntity
  8
Ebene_1
 62
7
100
AcDbSpline
 70
8
 71
3
 72
8
 73
4
 74
0
 40
0
 40
0
 40
0
 40
0
 40
1
 40
1
 40
1
 40
1
 10
-139.913617
 20
75.177130
 30
0.0
 10
-139.913617
 20
74.728060
 30
0.0
 10
-140.043587
 20
74.400040
 30
0.0
 10
-140.332707
 20
74.085070
 30
0.0
  0
SPLINE
  5
15f
100
AcDbEntity
  8
Ebene_1
 62
7
100
AcDbSpline
 70
8
 71
3
 72
8
 73
4
 74
0
 40
0
 40
0
 40
0
 40
0
 40
1
 40
1
 40
1
 40
1
 10
-140.332707
 20
74.085070
 30
0.0
 10
-140.625227
 20
73.788300
 30
0.0
 10
-140.925127
 20
73.654740
 30
0.0
 10
-141.323097
 20
73.654740
 30
0.0
  0
LWPOLYLINE
  5
160
100
AcDbEntity
  8
Ebene_1
 62
7
100
AcDbPolyline
 90
3
 70
0
 10
-154.551407
 20
76.697500
 30
0.0
 10
-139.913617
 20
76.697500
 30
0.0
 10
-139.913617
 20
75.177130
 30
0.0
  0
SPLINE
  5
161
100
AcDbEntity
  8
Ebene_1
 62
7
100
AcDbSpline
 70
8
 71
3
 72
8
 73
4
 74
0
 40
0
 40
0
 40
0
 40
0
 40
1
 40
1
 40
1
 40
1
 10
-139.494627
 20
68.537400
 30
0.0
 10
-138.292087
 20
68.369040
 30
0.0
 10
-137.248227
 20
69.011690
 30
0.0
 10
-136.440777
 20
69.860870
 30
0.0
  0
SPLINE
  5
162
100
AcDbEntity
  8
Ebene_1
 62
7
100
AcDbSpline
 70
8
 71
3
 72
8
 73
4
 74
0
 40
0
 40
0
 40
0
 40
0
 40
1
 40
1
 40
1
 40
1
 10
-136.440777
 20
69.860870
 30
0.0
 10
-135.608897
 20
70.735760
 30
0.0
 10
-135.172257
 20
71.864930
 30
0.0
 10
-135.172257
 20
73.135040
 30
0.0
  0
LWPOLYLINE
  5
163
100
AcDbEntity
  8
Ebene_1
 62
7
100
AcDbPolyline
 90
12
 70
0
 10
-141.323097
 20
73.654740
 30
0.0
 10
-158.813627
 20
73.654740
 30
0.0
 10
-158.813627
 20
60.367260
 30
0.0
 10
-158.332527
 20
60.367260
 30
0.0
 10
-154.070307
 20
60.367260
 30
0.0
 10
-154.070307
 20
68.533400
 30
0.0
 10
-149.082677
 20
68.533400
 30
0.0
 10
-141.522297
 20
60.367260
 30
0.0
 10
-134.491877
 20
60.367260
 30
0.0
 10
-142.052257
 20
68.533400
 30
0.0
 10
-139.432527
 20
68.533400
 30
0.0
 10
-139.494627
 20
68.537400
 30
0.0
  0
LWPOLYLINE
  5
164
100
AcDbEntity
  8
Ebene_1
 62
7
100
AcDbPolyline
 90
3
 70
0
 10
-135.172257
 20
73.135040
 30
0.0
 10
-135.172257
 20
81.820820
 30
0.0
 10
-158.813987
 20
81.820830
 30
0.0
  0
LWPOLYLINE
  5
165
100
AcDbEntity
  8
Ebene_1
 62
7
100
AcDbPolyline
 90
9
 70
1
 10
-115.064157
 20
81.820830
 30
0.0
 10
-124.994327
 20
71.095040
 30
0.0
 10
-115.064157
 20
60.367210
 30
0.0
 10
-114.864957
 20
60.367210
 30
0.0
 10
-108.033737
 20
60.367210
 30
0.0
 10
-117.967657
 20
71.097070
 30
0.0
 10
-116.582627
 20
72.615410
 30
0.0
 10
-116.556327
 20
72.615410
 30
0.0
 10
-108.033757
 20
81.820830
 30
0.0
  0
LWPOLYLINE
  5
166
100
AcDbEntity
  8
Ebene_1
 62
7
100
AcDbPolyline
 90
5
 70
1
 10
-132.355497
 20
81.820830
 30
0.0
 10
-132.355497
 20
60.367210
 30
0.0
 10
-131.874397
 20
60.367210
 30
0.0
 10
-127.614047
 20
60.367210
 30
0.0
 10
-127.614047
 20
81.820830
 30
0.0
  0
LWPOLYLINE
  5
167
100
AcDbEntity
  8
Ebene_1
 62
7
100
AcDbPolyline
 90
5
 70
1
 10
-105.896997
 20
81.820830
 30
0.0
 10
-105.896997
 20
60.367210
 30
0.0
 10
-105.415897
 20
60.367210
 30
0.0
 10
-101.155557
 20
60.367210
 30
0.0
 10
-101.155557
 20
81.820830
 30
0.0
  0
LWPOLYLINE
  5
168
100
AcDbEntity
  8
Ebene_1
 62
7
100
AcDbPolyline
 90
12
 70
1
 10
-99.018796
 20
81.820830
 30
0.0
 10
-94.559246
 20
77.001940
 30
0.0
 10
-94.559246
 20
60.367210
 30
0.0
 10
-94.078148
 20
60.367210
 30
0.0
 10
-89.815923
 20
60.367210
 30
0.0
 10
-89.815923
 20
71.880600
 30
0.0
 10
-79.158478
 20
60.367210
 30
0.0
 10
-74.697048
 20
60.367210
 30
0.0
 10
-74.697048
 20
81.820830
 30
0.0
 10
-79.440372
 20
81.820830
 30
0.0
 10
-79.440372
 20
68.265410
 30
0.0
 10
-91.988380
 20
81.820830
 30
0.0
  0
SPLINE
  5
169
100
AcDbEntity
  8
Ebene_1
 62
7
100
AcDbSpline
 70
8
 71
3
 72
8
 73
4
 74
0
 40
0
 40
0
 40
0
 40
0
 40
1
 40
1
 40
1
 40
1
 10
-52.500773
 20
76.697450
 30
0.0
 10
-51.362998
 20
76.697450
 30
0.0
 10
-50.333718
 20
77.155620
 30
0.0
 10
-49.507067
 20
78.024990
 30
0.0
  0
SPLINE
  5
16a
100
AcDbEntity
  8
Ebene_1
 62
7
100
AcDbSpline
 70
8
 71
3
 72
8
 73
4
 74
0
 40
0
 40
0
 40
0
 40
0
 40
1
 40
1
 40
1
 40
1
 10
-49.507067
 20
78.024990
 30
0.0
 10
-48.675188
 20
78.899880
 30
0.0
 10
-48.240426
 20
80.031080
 30
0.0
 10
-48.240426
 20
81.301190
 30
0.0
  0
LWPOLYLINE
  5
16b
100
AcDbEntity
  8
Ebene_1
 62
7
100
AcDbPolyline
 90
4
 70
0
 10
-71.879995
 20
81.820830
 30
0.0
 10
-71.879995
 20
76.697450
 30
0.0
 10
-71.398897
 20
76.697450
 30
0.0
 10
-52.500773
 20
76.697450
 30
0.0
  0
LWPOLYLINE
  5
16c
100
AcDbEntity
  8
Ebene_1
 62
7
100
AcDbPolyline
 90
3
 70
0
 10
-48.240426
 20
81.301190
 30
0.0
 10
-48.240426
 20
81.820830
 30
0.0
 10
-71.879995
 20
81.820830
 30
0.0
  0
LWPOLYLINE
  5
16d
100
AcDbEntity
  8
Ebene_1
 62
7
100
AcDbPolyline
 90
9
 70
1
 10
-181.491367
 20
44.130350
 30
0.0
 10
-181.491367
 20
30.842860
 30
0.0
 10
-181.010267
 20
30.842860
 30
0.0
 10
-157.851797
 20
30.842860
 30
0.0
 10
-157.851797
 20
44.130350
 30
0.0
 10
-162.593247
 20
44.130350
 30
0.0
 10
-162.593247
 20
35.966240
 30
0.0
 10
-176.749927
 20
35.966240
 30
0.0
 10
-176.749927
 20
44.130350
 30
0.0
  0
SPLINE
  5
16e
100
AcDbEntity
  8
Ebene_1
 62
7
100
AcDbSpline
 70
8
 71
3
 72
8
 73
4
 74
0
 40
0
 40
0
 40
0
 40
0
 40
1
 40
1
 40
1
 40
1
 10
-181.491367
 20
51.774810
 30
0.0
 10
-181.491367
 20
50.526930
 30
0.0
 10
-181.068677
 20
49.405300
 30
0.0
 10
-180.262317
 20
48.510790
 30
0.0
  0
LWPOLYLINE
  5
16f
100
AcDbEntity
  8
Ebene_1
 62
7
100
AcDbPolyline
 90
2
 70
0
 10
-181.491367
 20
52.294450
 30
0.0
 10
-181.491367
 20
51.774810
 30
0.0
  0
SPLINE
  5
170
100
AcDbEntity
  8
Ebene_1
 62
7
100
AcDbSpline
 70
8
 71
3
 72
8
 73
4
 74
0
 40
0
 40
0
 40
0
 40
0
 40
1
 40
1
 40
1
 40
1
 10
-180.258317
 20
48.506790
 30
0.0
 10
-179.447187
 20
47.630680
 30
0.0
 10
-178.403697
 20
47.173170
 30
0.0
 10
-177.230787
 20
47.173170
 30
0.0
  0
LWPOLYLINE
  5
171
100
AcDbEntity
  8
Ebene_1
 62
7
100
AcDbPolyline
 90
3
 70
0
 10
-180.262317
 20
48.510790
 30
0.0
 10
-180.260317
 20
48.508790
 30
0.0
 10
-180.258317
 20
48.506790
 30
0.0
  0
SPLINE
  5
172
100
AcDbEntity
  8
Ebene_1
 62
7
100
AcDbSpline
 70
8
 71
3
 72
8
 73
4
 74
0
 40
0
 40
0
 40
0
 40
0
 40
1
 40
1
 40
1
 40
1
 10
-162.111907
 20
47.173170
 30
0.0
 10
-160.974137
 20
47.173170
 30
0.0
 10
-159.944857
 20
47.631310
 30
0.0
 10
-159.118207
 20
48.500710
 30
0.0
  0
SPLINE
  5
173
100
AcDbEntity
  8
Ebene_1
 62
7
100
AcDbSpline
 70
8
 71
3
 72
8
 73
4
 74
0
 40
0
 40
0
 40
0
 40
0
 40
1
 40
1
 40
1
 40
1
 10
-159.118207
 20
48.500710
 30
0.0
 10
-158.286327
 20
49.375580
 30
0.0
 10
-157.851557
 20
50.504770
 30
0.0
 10
-157.851557
 20
51.774880
 30
0.0
  0
LWPOLYLINE
  5
174
100
AcDbEntity
  8
Ebene_1
 62
7
100
AcDbPolyline
 90
2
 70
0
 10
-177.230787
 20
47.173170
 30
0.0
 10
-162.111907
 20
47.173170
 30
0.0
  0
LWPOLYLINE
  5
175
100
AcDbEntity
  8
Ebene_1
 62
7
100
AcDbPolyline
 90
3
 70
0
 10
-157.851557
 20
51.774880
 30
0.0
 10
-157.851557
 20
52.294520
 30
0.0
 10
-181.491367
 20
52.294450
 30
0.0
  0
LWPOLYLINE
  5
176
100
AcDbEntity
  8
Ebene_1
 62
7
100
AcDbPolyline
 90
12
 70
1
 10
-155.713167
 20
52.294450
 30
0.0
 10
-151.253617
 20
47.477590
 30
0.0
 10
-151.253617
 20
30.842860
 30
0.0
 10
-150.772517
 20
30.842860
 30
0.0
 10
-146.512177
 20
30.842860
 30
0.0
 10
-146.512177
 20
42.356250
 30
0.0
 10
-135.852847
 20
30.842860
 30
0.0
 10
-131.393297
 20
30.842860
 30
0.0
 10
-131.393297
 20
52.294450
 30
0.0
 10
-136.134737
 20
52.294450
 30
0.0
 10
-136.134737
 20
38.741060
 30
0.0
 10
-148.682757
 20
52.294450
 30
0.0
  0
SPLINE
  5
177
100
AcDbEntity
  8
Ebene_1
 62
7
100
AcDbSpline
 70
8
 71
3
 72
8
 73
4
 74
0
 40
0
 40
0
 40
0
 40
0
 40
1
 40
1
 40
1
 40
1
 10
-109.195137
 20
30.842860
 30
0.0
 10
-108.057377
 20
30.842860
 30
0.0
 10
-107.029967
 20
31.301010
 30
0.0
 10
-106.203317
 20
32.170400
 30
0.0
  0
SPLINE
  5
178
100
AcDbEntity
  8
Ebene_1
 62
7
100
AcDbSpline
 70
8
 71
3
 72
8
 73
4
 74
0
 40
0
 40
0
 40
0
 40
0
 40
1
 40
1
 40
1
 40
1
 10
-106.203317
 20
32.170400
 30
0.0
 10
-105.371447
 20
33.045280
 30
0.0
 10
-104.934797
 20
34.176490
 30
0.0
 10
-104.934797
 20
35.446590
 30
0.0
  0
LWPOLYLINE
  5
179
100
AcDbEntity
  8
Ebene_1
 62
7
100
AcDbPolyline
 90
4
 70
0
 10
-128.576247
 20
52.294450
 30
0.0
 10
-128.576247
 20
30.842860
 30
0.0
 10
-128.095147
 20
30.842860
 30
0.0
 10
-109.195137
 20
30.842860
 30
0.0
  0
LWPOLYLINE
  5
17a
100
AcDbEntity
  8
Ebene_1
 62
7
100
AcDbPolyline
 90
5
 70
0
 10
-104.934797
 20
35.446590
 30
0.0
 10
-104.934797
 20
35.966240
 30
0.0
 10
-123.832917
 20
35.966240
 30
0.0
 10
-123.832917
 20
52.294450
 30
0.0
 10
-128.576247
 20
52.294450
 30
0.0
  0
SPLINE
  5
17b
100
AcDbEntity
  8
Ebene_1
 62
7
100
AcDbSpline
 70
8
 71
3
 72
8
 73
4
 74
0
 40
0
 40
0
 40
0
 40
0
 40
1
 40
1
 40
1
 40
1
 10
-129.991820
 20
95.830050
 30
0.0
 10
-130.185830
 20
96.853250
 30
0.0
 10
-146.879970
 20
190.055850
 30
0.0
 10
-146.879970
 20
190.115800
 30
0.0
  0
SPLINE
  5
17c
100
AcDbEntity
  8
Ebene_1
 62
7
100
AcDbSpline
 70
8
 71
3
 72
8
 73
4
 74
0
 40
0
 40
0
 40
0
 40
0
 40
1
 40
1
 40
1
 40
1
 10
-146.879970
 20
190.115800
 30
0.0
 10
-146.879970
 20
190.201000
 30
0.0
 10
-151.810700
 20
190.076300
 30
0.0
 10
-154.289130
 20
189.928460
 30
0.0
  0
SPLINE
  5
17d
100
AcDbEntity
  8
Ebene_1
 62
7
100
AcDbSpline
 70
8
 71
3
 72
8
 73
4
 74
0
 40
0
 40
0
 40
0
 40
0
 40
1
 40
1
 40
1
 40
1
 10
-154.289130
 20
189.928460
 30
0.0
 10
-161.664790
 20
189.488610
 30
0.0
 10
-165.458300
 20
188.197000
 30
0.0
 10
-167.291800
 20
185.501330
 30
0.0
  0
SPLINE
  5
17e
100
AcDbEntity
  8
Ebene_1
 62
7
100
AcDbSpline
 70
8
 71
3
 72
8
 73
4
 74
0
 40
0
 40
0
 40
0
 40
0
 40
1
 40
1
 40
1
 40
1
 10
-167.291800
 20
185.501330
 30
0.0
 10
-167.967800
 20
184.507450
 30
0.0
 10
-168.250020
 20
183.798790
 30
0.0
 10
-168.545050
 20
182.354650
 30
0.0
  0
SPLINE
  5
17f
100
AcDbEntity
  8
Ebene_1
 62
7
100
AcDbSpline
 70
8
 71
3
 72
8
 73
4
 74
0
 40
0
 40
0
 40
0
 40
0
 40
1
 40
1
 40
1
 40
1
 10
-168.545050
 20
182.354650
 30
0.0
 10
-168.664920
 20
181.767880
 30
0.0
 10
-168.784860
 20
181.265930
 30
0.0
 10
-168.811570
 20
181.239220
 30
0.0
  0
SPLINE
  5
180
100
AcDbEntity
  8
Ebene_1
 62
7
100
AcDbSpline
 70
8
 71
3
 72
8
 73
4
 74
0
 40
0
 40
0
 40
0
 40
0
 40
1
 40
1
 40
1
 40
1
 10
-168.811570
 20
181.239220
 30
0.0
 10
-168.901370
 20
181.149420
 30
0.0
 10
-171.966530
 20
182.605850
 30
0.0
 10
-173.502280
 20
183.468050
 30
0.0
  0
SPLINE
  5
181
100
AcDbEntity
  8
Ebene_1
 62
7
100
AcDbSpline
 70
8
 71
3
 72
8
 73
4
 74
0
 40
0
 40
0
 40
0
 40
0
 40
1
 40
1
 40
1
 40
1
 10
-173.502280
 20
183.468050
 30
0.0
 10
-178.095730
 20
186.046900
 30
0.0
 10
-181.701950
 20
189.032780
 30
0.0
 10
-184.155180
 20
192.288480
 30
0.0
  0
SPLINE
  5
182
100
AcDbEntity
  8
Ebene_1
 62
7
100
AcDbSpline
 70
8
 71
3
 72
8
 73
4
 74
0
 40
0
 40
0
 40
0
 40
0
 40
1
 40
1
 40
1
 40
1
 10
-184.155180
 20
192.288480
 30
0.0
 10
-184.515600
 20
192.766780
 30
0.0
 10
-184.810480
 20
193.197280
 30
0.0
 10
-184.810480
 20
193.245130
 30
0.0
  0
SPLINE
  5
183
100
AcDbEntity
  8
Ebene_1
 62
7
100
AcDbSpline
 70
8
 71
3
 72
8
 73
4
 74
0
 40
0
 40
0
 40
0
 40
0
 40
1
 40
1
 40
1
 40
1
 10
-184.810480
 20
193.245130
 30
0.0
 10
-184.810480
 20
193.293030
 30
0.0
 10
-184.623860
 20
193.409370
 30
0.0
 10
-184.395790
 20
193.503750
 30
0.0
  0
SPLINE
  5
184
100
AcDbEntity
  8
Ebene_1
 62
7
100
AcDbSpline
 70
8
 71
3
 72
8
 73
4
 74
0
 40
0
 40
0
 40
0
 40
0
 40
1
 40
1
 40
1
 40
1
 10
-184.395790
 20
193.503750
 30
0.0
 10
-184.167710
 20
193.598150
 30
0.0
 10
-183.184880
 20
194.021750
 30
0.0
 10
-182.211740
 20
194.445120
 30
0.0
  0
SPLINE
  5
185
100
AcDbEntity
  8
Ebene_1
 62
7
100
AcDbSpline
 70
8
 71
3
 72
8
 73
4
 74
0
 40
0
 40
0
 40
0
 40
0
 40
1
 40
1
 40
1
 40
1
 10
-182.211740
 20
194.445120
 30
0.0
 10
-171.061960
 20
199.295767
 30
0.0
 10
-156.568930
 20
202.686268
 30
0.0
 10
-143.562430
 20
203.486748
 30
0.0
  0
LWPOLYLINE
  5
186
100
AcDbEntity
  8
Ebene_1
 62
7
100
AcDbPolyline
 90
14
 70
1
 10
-102.117747
 20
52.294450
 30
0.0
 10
-102.117747
 20
47.477590
 30
0.0
 10
-92.668682
 20
37.271440
 30
0.0
 10
-92.668682
 20
30.842860
 30
0.0
 10
-92.187584
 20
30.842860
 30
0.0
 10
-87.927238
 20
30.842860
 30
0.0
 10
-87.927238
 20
37.271440
 30
0.0
 10
-78.478176
 20
47.477590
 30
0.0
 10
-78.478176
 20
52.294450
 30
0.0
 10
-83.219620
 20
52.294450
 30
0.0
 10
-83.219620
 20
49.949960
 30
0.0
 10
-90.297021
 20
42.303470
 30
0.0
 10
-97.376299
 20
49.949960
 30
0.0
 10
-97.376299
 20
52.294450
 30
0.0
  0
SPLINE
  5
187
100
AcDbEntity
  8
Ebene_1
 62
7
100
AcDbSpline
 70
8
 71
3
 72
8
 73
4
 74
0
 40
0
 40
0
 40
0
 40
0
 40
1
 40
1
 40
1
 40
1
 10
-136.168850
 20
195.963750
 30
0.0
 10
-132.741010
 20
191.786770
 30
0.0
 10
-129.898480
 20
188.411100
 30
0.0
 10
-129.852140
 20
188.462240
 30
0.0
  0
SPLINE
  5
188
100
AcDbEntity
  8
Ebene_1
 62
7
100
AcDbSpline
 70
8
 71
3
 72
8
 73
4
 74
0
 40
0
 40
0
 40
0
 40
0
 40
1
 40
1
 40
1
 40
1
 10
-129.852140
 20
188.462240
 30
0.0
 10
-129.805740
 20
188.513340
 30
0.0
 10
-127.023670
 20
191.899380
 30
0.0
 10
-123.669690
 20
195.986660
 30
0.0
  0
SPLINE
  5
189
100
AcDbEntity
  8
Ebene_1
 62
7
100
AcDbSpline
 70
8
 71
3
 72
8
 73
4
 74
0
 40
0
 40
0
 40
0
 40
0
 40
1
 40
1
 40
1
 40
1
 10
-123.669690
 20
195.986660
 30
0.0
 10
-120.315680
 20
200.073925
 30
0.0
 10
-117.520260
 20
203.449717
 30
0.0
 10
-117.457660
 20
203.488418
 30
0.0
  0
SPLINE
  5
18a
100
AcDbEntity
  8
Ebene_1
 62
7
100
AcDbSpline
 70
8
 71
3
 72
8
 73
4
 74
0
 40
0
 40
0
 40
0
 40
0
 40
1
 40
1
 40
1
 40
1
 10
-117.457660
 20
203.488418
 30
0.0
 10
-117.327040
 20
203.569138
 30
0.0
 10
-114.537650
 20
203.389228
 30
0.0
 10
-112.101120
 20
203.142941
 30
0.0
  0
SPLINE
  5
18b
100
AcDbEntity
  8
Ebene_1
 62
7
100
AcDbSpline
 70
8
 71
3
 72
8
 73
4
 74
0
 40
0
 40
0
 40
0
 40
0
 40
1
 40
1
 40
1
 40
1
 10
-112.101120
 20
203.142941
 30
0.0
 10
-101.825920
 20
202.104292
 30
0.0
 10
-91.506060
 20
199.726609
 30
0.0
 10
-82.132708
 20
196.238240
 30
0.0
  0
SPLINE
  5
18c
100
AcDbEntity
  8
Ebene_1
 62
7
100
AcDbSpline
 70
8
 71
3
 72
8
 73
4
 74
0
 40
0
 40
0
 40
0
 40
0
 40
1
 40
1
 40
1
 40
1
 10
-82.132708
 20
196.238240
 30
0.0
 10
-79.920552
 20
195.414960
 30
0.0
 10
-76.362183
 20
193.945550
 30
0.0
 10
-75.434145
 20
193.472100
 30
0.0
  0
LWPOLYLINE
  5
18d
100
AcDbEntity
  8
Ebene_1
 62
7
100
AcDbPolyline
 90
3
 70
0
 10
-143.562430
 20
203.486748
 30
0.0
 10
-142.401300
 20
203.558218
 30
0.0
 10
-136.168850
 20
195.963750
 30
0.0
  0
SPLINE
  5
18e
100
AcDbEntity
  8
Ebene_1
 62
7
100
AcDbSpline
 70
8
 71
3
 72
8
 73
4
 74
0
 40
0
 40
0
 40
0
 40
0
 40
1
 40
1
 40
1
 40
1
 10
-75.559846
 20
192.482000
 30
0.0
 10
-77.733233
 20
189.493840
 30
0.0
 10
-81.140444
 20
186.557350
 30
0.0
 10
-85.359929
 20
184.035780
 30
0.0
  0
SPLINE
  5
18f
100
AcDbEntity
  8
Ebene_1
 62
7
100
AcDbSpline
 70
8
 71
3
 72
8
 73
4
 74
0
 40
0
 40
0
 40
0
 40
0
 40
1
 40
1
 40
1
 40
1
 10
-85.359929
 20
184.035780
 30
0.0
 10
-86.520376
 20
183.342290
 30
0.0
 10
-90.361834
 20
181.414210
 30
0.0
 10
-90.885610
 20
181.262350
 30
0.0
  0
SPLINE
  5
190
100
AcDbEntity
  8
Ebene_1
 62
7
100
AcDbSpline
 70
8
 71
3
 72
8
 73
4
 74
0
 40
0
 40
0
 40
0
 40
0
 40
1
 40
1
 40
1
 40
1
 10
-90.885610
 20
181.262350
 30
0.0
 10
-91.101753
 20
181.199650
 30
0.0
 10
-91.130734
 20
181.246750
 30
0.0
 10
-91.202644
 20
181.777940
 30
0.0
  0
SPLINE
  5
191
100
AcDbEntity
  8
Ebene_1
 62
7
100
AcDbSpline
 70
8
 71
3
 72
8
 73
4
 74
0
 40
0
 40
0
 40
0
 40
0
 40
1
 40
1
 40
1
 40
1
 10
-91.202644
 20
181.777940
 30
0.0
 10
-91.246174
 20
182.099440
 30
0.0
 10
-91.403380
 20
182.784140
 30
0.0
 10
-91.551991
 20
183.299490
 30
0.0
  0
SPLINE
  5
192
100
AcDbEntity
  8
Ebene_1
 62
7
100
AcDbSpline
 70
8
 71
3
 72
8
 73
4
 74
0
 40
0
 40
0
 40
0
 40
0
 40
1
 40
1
 40
1
 40
1
 10
-91.551991
 20
183.299490
 30
0.0
 10
-92.722266
 20
187.357770
 30
0.0
 10
-96.180029
 20
189.159820
 30
0.0
 10
-104.083740
 20
189.830540
 30
0.0
  0
SPLINE
  5
193
100
AcDbEntity
  8
Ebene_1
 62
7
100
AcDbSpline
 70
8
 71
3
 72
8
 73
4
 74
0
 40
0
 40
0
 40
0
 40
0
 40
1
 40
1
 40
1
 40
1
 10
-104.083740
 20
189.830540
 30
0.0
 10
-105.804690
 20
189.976580
 30
0.0
 10
-112.962010
 20
190.164000
 30
0.0
 10
-113.051940
 20
190.065370
 30
0.0
  0
SPLINE
  5
194
100
AcDbEntity
  8
Ebene_1
 62
7
100
AcDbSpline
 70
8
 71
3
 72
8
 73
4
 74
0
 40
0
 40
0
 40
0
 40
0
 40
1
 40
1
 40
1
 40
1
 10
-113.051940
 20
190.065370
 30
0.0
 10
-113.097940
 20
190.014970
 30
0.0
 10
-126.914840
 20
112.506250
 30
0.0
 10
-129.830830
 20
95.940630
 30
0.0
  0
LWPOLYLINE
  5
195
100
AcDbEntity
  8
Ebene_1
 62
7
100
AcDbPolyline
 90
3
 70
0
 10
-75.434145
 20
193.472100
 30
0.0
 10
-75.000590
 20
193.250910
 30
0.0
 10
-75.559846
 20
192.482000
 30
0.0
  0
SPLINE
  5
196
100
AcDbEntity
  8
Ebene_1
 62
7
100
AcDbSpline
 70
8
 71
3
 72
8
 73
4
 74
0
 40
0
 40
0
 40
0
 40
0
 40
1
 40
1
 40
1
 40
1
 10
-75.000000
 20
197.426477
 30
0.0
 10
-88.207527
 20
202.996683
 30
0.0
 10
-103.212850
 20
206.541197
 30
0.0
 10
-118.183270
 20
207.627097
 30
0.0
  0
SPLINE
  5
197
100
AcDbEntity
  8
Ebene_1
 62
7
100
AcDbSpline
 70
8
 71
3
 72
8
 73
4
 74
0
 40
0
 40
0
 40
0
 40
0
 40
1
 40
1
 40
1
 40
1
 10
-118.183270
 20
207.627097
 30
0.0
 10
-122.992950
 20
207.975972
 30
0.0
 10
-132.985020
 20
208.090220
 30
0.0
 10
-137.823470
 20
207.851660
 30
0.0
  0
SPLINE
  5
198
100
AcDbEntity
  8
Ebene_1
 62
7
100
AcDbSpline
 70
8
 71
3
 72
8
 73
4
 74
0
 40
0
 40
0
 40
0
 40
0
 40
1
 40
1
 40
1
 40
1
 10
-137.823470
 20
207.851660
 30
0.0
 10
-154.590930
 20
207.024934
 30
0.0
 10
-170.017310
 20
203.607829
 30
0.0
 10
-184.842950
 20
197.436357
 30
0.0
  0
SPLINE
  5
199
100
AcDbEntity
  8
Ebene_1
 62
7
100
AcDbSpline
 70
8
 71
3
 72
8
 73
4
 74
0
 40
0
 40
0
 40
0
 40
0
 40
1
 40
1
 40
1
 40
1
 10
-184.842950
 20
197.436357
 30
0.0
 10
-185.864380
 20
197.011167
 30
0.0
 10
-186.763680
 20
196.687700
 30
0.0
 10
-186.841400
 20
196.717520
 30
0.0
  0
SPLINE
  5
19a
100
AcDbEntity
  8
Ebene_1
 62
7
100
AcDbSpline
 70
8
 71
3
 72
8
 73
4
 74
0
 40
0
 40
0
 40
0
 40
0
 40
1
 40
1
 40
1
 40
1
 10
-186.841400
 20
196.717520
 30
0.0
 10
-186.919100
 20
196.747420
 30
0.0
 10
-187.558610
 20
197.933704
 30
0.0
 10
-188.262470
 20
199.353882
 30
0.0
  0
SPLINE
  5
19b
100
AcDbEntity
  8
Ebene_1
 62
7
100
AcDbSpline
 70
8
 71
3
 72
8
 73
4
 74
0
 40
0
 40
0
 40
0
 40
0
 40
1
 40
1
 40
1
 40
1
 10
-188.262470
 20
199.353882
 30
0.0
 10
-189.579360
 20
202.010965
 30
0.0
 10
-190.193060
 20
203.391256
 30
0.0
 10
-190.099250
 20
203.485064
 30
0.0
  0
SPLINE
  5
19c
100
AcDbEntity
  8
Ebene_1
 62
7
100
AcDbSpline
 70
8
 71
3
 72
8
 73
4
 74
0
 40
0
 40
0
 40
0
 40
0
 40
1
 40
1
 40
1
 40
1
 10
-190.099250
 20
203.485064
 30
0.0
 10
-190.003250
 20
203.581004
 30
0.0
 10
-186.136820
 20
205.041711
 30
0.0
 10
-183.870510
 20
205.838193
 30
0.0
  0
SPLINE
  5
19d
100
AcDbEntity
  8
Ebene_1
 62
7
100
AcDbSpline
 70
8
 71
3
 72
8
 73
4
 74
0
 40
0
 40
0
 40
0
 40
0
 40
1
 40
1
 40
1
 40
1
 10
-183.870510
 20
205.838193
 30
0.0
 10
-162.624670
 20
213.304950
 30
0.0
 10
-139.934680
 20
216.399181
 30
0.0
 10
-118.459730
 20
214.758248
 30
0.0
  0
SPLINE
  5
19e
100
AcDbEntity
  8
Ebene_1
 62
7
100
AcDbSpline
 70
8
 71
3
 72
8
 73
4
 74
0
 40
0
 40
0
 40
0
 40
0
 40
1
 40
1
 40
1
 40
1
 10
-118.459730
 20
214.758248
 30
0.0
 10
-102.397760
 20
213.530927
 30
0.0
 10
-87.260126
 20
210.142829
 30
0.0
 10
-71.851017
 20
204.326307
 30
0.0
  0
SPLINE
  5
19f
100
AcDbEntity
  8
Ebene_1
 62
7
100
AcDbSpline
 70
8
 71
3
 72
8
 73
4
 74
0
 40
0
 40
0
 40
0
 40
0
 40
1
 40
1
 40
1
 40
1
 10
-71.851017
 20
204.326307
 30
0.0
 10
-70.703769
 20
203.893251
 30
0.0
 10
-69.745398
 20
203.519218
 30
0.0
 10
-69.721302
 20
203.495121
 30
0.0
  0
SPLINE
  5
1a0
100
AcDbEntity
  8
Ebene_1
 62
7
100
AcDbSpline
 70
8
 71
3
 72
8
 73
4
 74
0
 40
0
 40
0
 40
0
 40
0
 40
1
 40
1
 40
1
 40
1
 10
-69.721302
 20
203.495121
 30
0.0
 10
-69.595346
 20
203.369165
 30
0.0
 10
-72.676420
 20
196.937240
 30
0.0
 10
-72.988613
 20
196.674420
 30
0.0
  0
SPLINE
  5
1a1
100
AcDbEntity
  8
Ebene_1
 62
7
100
AcDbSpline
 70
8
 71
3
 72
8
 73
4
 74
0
 40
0
 40
0
 40
0
 40
0
 40
1
 40
1
 40
1
 40
1
 10
-72.988613
 20
196.674420
 30
0.0
 10
-73.030503
 20
196.639120
 30
0.0
 10
-73.935626
 20
196.977580
 30
0.0
 10
-75.000000
 20
197.426477
 30
0.0
  0
LWPOLYLINE
  5
1a2
100
AcDbEntity
  8
Ebene_1
 62
7
100
AcDbPolyline
 90
3
 70
0
 10
-129.830830
 20
95.940630
 30
0.0
 10
-129.918430
 20
95.443000
 30
0.0
 10
-129.991820
 20
95.830050
 30
0.0
  0
LWPOLYLINE
  5
1a3
100
AcDbEntity
  8
Ebene_1
 62
7
100
AcDbPolyline
 90
1
 70
1
 10
-75.000000
 20
197.426477
 30
0.0
  0
LWPOLYLINE
  5
1a4
100
AcDbEntity
  8
Ebene_1
 62
7
100
AcDbPolyline
 90
9
 70
1
 10
-76.463247
 20
238.684614
 30
0.0
 10
-76.463247
 20
224.829145
 30
0.0
 10
-75.963247
 20
224.829145
 30
0.0
 10
-71.178097
 20
224.829145
 30
0.0
 10
-71.178097
 20
233.399457
 30
0.0
 10
-55.037467
 20
233.399457
 30
0.0
 10
-55.037467
 20
224.829145
 30
0.0
 10
-49.752307
 20
224.829145
 30
0.0
 10
-49.752307
 20
238.684614
 30
0.0
  0
SPLINE
  5
1a5
100
AcDbEntity
  8
Ebene_1
 62
7
100
AcDbSpline
 70
8
 71
3
 72
8
 73
4
 74
0
 40
0
 40
0
 40
0
 40
0
 40
1
 40
1
 40
1
 40
1
 10
-76.463247
 20
246.754926
 30
0.0
 10
-76.463247
 20
245.455677
 30
0.0
 10
-75.991187
 20
244.291754
 30
0.0
 10
-75.084337
 20
243.360395
 30
0.0
  0
LWPOLYLINE
  5
1a6
100
AcDbEntity
  8
Ebene_1
 62
7
100
AcDbPolyline
 90
2
 70
0
 10
-76.463247
 20
247.254926
 30
0.0
 10
-76.463247
 20
246.754926
 30
0.0
  0
SPLINE
  5
1a7
100
AcDbEntity
  8
Ebene_1
 62
7
100
AcDbSpline
 70
8
 71
3
 72
8
 73
4
 74
0
 40
0
 40
0
 40
0
 40
0
 40
1
 40
1
 40
1
 40
1
 10
-75.078337
 20
243.356395
 30
0.0
 10
-74.166537
 20
242.444600
 30
0.0
 10
-72.997357
 20
241.969676
 30
0.0
 10
-71.677947
 20
241.969676
 30
0.0
  0
LWPOLYLINE
  5
1a8
100
AcDbEntity
  8
Ebene_1
 62
7
100
AcDbPolyline
 90
3
 70
0
 10
-75.084337
 20
243.360395
 30
0.0
 10
-75.080337
 20
243.358395
 30
0.0
 10
-75.078337
 20
243.356395
 30
0.0
  0
SPLINE
  5
1a9
100
AcDbEntity
  8
Ebene_1
 62
7
100
AcDbSpline
 70
8
 71
3
 72
8
 73
4
 74
0
 40
0
 40
0
 40
0
 40
0
 40
1
 40
1
 40
1
 40
1
 10
-54.537317
 20
241.969676
 30
0.0
 10
-53.258147
 20
241.969676
 30
0.0
 10
-52.105777
 20
242.445215
 30
0.0
 10
-51.175987
 20
243.350535
 30
0.0
  0
SPLINE
  5
1aa
100
AcDbEntity
  8
Ebene_1
 62
7
100
AcDbSpline
 70
8
 71
3
 72
8
 73
4
 74
0
 40
0
 40
0
 40
0
 40
0
 40
1
 40
1
 40
1
 40
1
 10
-51.175987
 20
243.350535
 30
0.0
 10
-50.240767
 20
244.261147
 30
0.0
 10
-49.752157
 20
245.432333
 30
0.0
 10
-49.752157
 20
246.754832
 30
0.0
  0
LWPOLYLINE
  5
1ab
100
AcDbEntity
  8
Ebene_1
 62
7
100
AcDbPolyline
 90
2
 70
0
 10
-71.677947
 20
241.969676
 30
0.0
 10
-54.537317
 20
241.969676
 30
0.0
  0
LWPOLYLINE
  5
1ac
100
AcDbEntity
  8
Ebene_1
 62
7
100
AcDbPolyline
 90
3
 70
0
 10
-49.752157
 20
246.754832
 30
0.0
 10
-49.752157
 20
247.254832
 30
0.0
 10
-76.463247
 20
247.254926
 30
0.0
  0
SPLINE
  5
1ad
100
AcDbEntity
  8
Ebene_1
 62
7
100
AcDbSpline
 70
8
 71
3
 72
8
 73
4
 74
0
 40
0
 40
0
 40
0
 40
0
 40
1
 40
1
 40
1
 40
1
 10
-209.654657
 20
246.754926
 30
0.0
 10
-209.654657
 20
245.455677
 30
0.0
 10
-209.180647
 20
244.291754
 30
0.0
 10
-208.273797
 20
243.360395
 30
0.0
  0
LWPOLYLINE
  5
1ae
100
AcDbEntity
  8
Ebene_1
 62
7
100
AcDbPolyline
 90
2
 70
0
 10
-209.654657
 20
247.254926
 30
0.0
 10
-209.654657
 20
246.754926
 30
0.0
  0
SPLINE
  5
1af
100
AcDbEntity
  8
Ebene_1
 62
7
100
AcDbSpline
 70
8
 71
3
 72
8
 73
4
 74
0
 40
0
 40
0
 40
0
 40
0
 40
1
 40
1
 40
1
 40
1
 10
-208.269797
 20
243.356395
 30
0.0
 10
-207.357997
 20
242.444599
 30
0.0
 10
-206.188817
 20
241.969676
 30
0.0
 10
-204.869407
 20
241.969676
 30
0.0
  0
LWPOLYLINE
  5
1b0
100
AcDbEntity
  8
Ebene_1
 62
7
100
AcDbPolyline
 90
3
 70
0
 10
-208.273797
 20
243.360395
 30
0.0
 10
-208.271797
 20
243.358395
 30
0.0
 10
-208.269797
 20
243.356395
 30
0.0
  0
SPLINE
  5
1b1
100
AcDbEntity
  8
Ebene_1
 62
7
100
AcDbSpline
 70
8
 71
3
 72
8
 73
4
 74
0
 40
0
 40
0
 40
0
 40
0
 40
1
 40
1
 40
1
 40
1
 10
-187.728777
 20
241.969770
 30
0.0
 10
-186.449607
 20
241.969770
 30
0.0
 10
-185.297237
 20
242.445309
 30
0.0
 10
-184.367447
 20
243.350629
 30
0.0
  0
SPLINE
  5
1b2
100
AcDbEntity
  8
Ebene_1
 62
7
100
AcDbSpline
 70
8
 71
3
 72
8
 73
4
 74
0
 40
0
 40
0
 40
0
 40
0
 40
1
 40
1
 40
1
 40
1
 10
-184.367447
 20
243.350629
 30
0.0
 10
-183.432227
 20
244.261240
 30
0.0
 10
-182.943627
 20
245.432426
 30
0.0
 10
-182.943627
 20
246.754926
 30
0.0
  0
LWPOLYLINE
  5
1b3
100
AcDbEntity
  8
Ebene_1
 62
7
100
AcDbPolyline
 90
7
 70
0
 10
-204.869407
 20
241.969676
 30
0.0
 10
-198.941667
 20
241.969676
 30
0.0
 10
-198.941667
 20
224.829145
 30
0.0
 10
-198.441667
 20
224.829145
 30
0.0
 10
-193.656517
 20
224.829145
 30
0.0
 10
-193.656517
 20
241.969770
 30
0.0
 10
-187.728777
 20
241.969770
 30
0.0
  0
LWPOLYLINE
  5
1b4
100
AcDbEntity
  8
Ebene_1
 62
7
100
AcDbPolyline
 90
3
 70
0
 10
-182.943627
 20
246.754926
 30
0.0
 10
-182.943627
 20
247.254926
 30
0.0
 10
-209.654657
 20
247.254926
 30
0.0
  0
SPLINE
  5
1b5
100
AcDbEntity
  8
Ebene_1
 62
7
100
AcDbSpline
 70
8
 71
3
 72
8
 73
4
 74
0
 40
0
 40
0
 40
0
 40
0
 40
1
 40
1
 40
1
 40
1
 10
-176.357777
 20
229.614301
 30
0.0
 10
-176.357777
 20
228.315052
 30
0.0
 10
-175.883767
 20
227.151129
 30
0.0
 10
-174.976917
 20
226.219770
 30
0.0
  0
LWPOLYLINE
  5
1b6
100
AcDbEntity
  8
Ebene_1
 62
7
100
AcDbPolyline
 90
2
 70
0
 10
-176.357777
 20
230.114301
 30
0.0
 10
-176.357777
 20
229.614301
 30
0.0
  0
SPLINE
  5
1b7
100
AcDbEntity
  8
Ebene_1
 62
7
100
AcDbSpline
 70
8
 71
3
 72
8
 73
4
 74
0
 40
0
 40
0
 40
0
 40
0
 40
1
 40
1
 40
1
 40
1
 10
-174.972917
 20
226.213870
 30
0.0
 10
-174.061127
 20
225.302074
 30
0.0
 10
-172.891947
 20
224.829104
 30
0.0
 10
-171.572527
 20
224.829104
 30
0.0
  0
LWPOLYLINE
  5
1b8
100
AcDbEntity
  8
Ebene_1
 62
7
100
AcDbPolyline
 90
3
 70
0
 10
-174.976917
 20
226.219770
 30
0.0
 10
-174.974917
 20
226.217770
 30
0.0
 10
-174.972917
 20
226.213870
 30
0.0
  0
SPLINE
  5
1b9
100
AcDbEntity
  8
Ebene_1
 62
7
100
AcDbSpline
 70
8
 71
3
 72
8
 73
4
 74
0
 40
0
 40
0
 40
0
 40
0
 40
1
 40
1
 40
1
 40
1
 10
-154.431907
 20
224.829104
 30
0.0
 10
-153.152737
 20
224.829104
 30
0.0
 10
-151.998407
 20
225.304643
 30
0.0
 10
-151.068627
 20
226.209963
 30
0.0
  0
SPLINE
  5
1ba
100
AcDbEntity
  8
Ebene_1
 62
7
100
AcDbSpline
 70
8
 71
3
 72
8
 73
4
 74
0
 40
0
 40
0
 40
0
 40
0
 40
1
 40
1
 40
1
 40
1
 10
-151.068627
 20
226.209963
 30
0.0
 10
-150.133397
 20
227.120574
 30
0.0
 10
-149.646747
 20
228.291760
 30
0.0
 10
-149.646747
 20
229.614260
 30
0.0
  0
LWPOLYLINE
  5
1bb
100
AcDbEntity
  8
Ebene_1
 62
7
100
AcDbPolyline
 90
2
 70
0
 10
-171.572527
 20
224.829104
 30
0.0
 10
-154.431907
 20
224.829104
 30
0.0
  0
LWPOLYLINE
  5
1bc
100
AcDbEntity
  8
Ebene_1
 62
7
100
AcDbPolyline
 90
3
 70
0
 10
-149.646747
 20
229.614260
 30
0.0
 10
-149.646747
 20
230.114260
 30
0.0
 10
-176.357777
 20
230.114301
 30
0.0
  0
SPLINE
  5
1bd
100
AcDbEntity
  8
Ebene_1
 62
7
100
AcDbSpline
 70
8
 71
3
 72
8
 73
4
 74
0
 40
0
 40
0
 40
0
 40
0
 40
1
 40
1
 40
1
 40
1
 10
-176.357777
 20
238.184614
 30
0.0
 10
-176.357777
 20
236.885364
 30
0.0
 10
-175.883767
 20
235.721442
 30
0.0
 10
-174.976917
 20
234.790083
 30
0.0
  0
LWPOLYLINE
  5
1be
100
AcDbEntity
  8
Ebene_1
 62
7
100
AcDbPolyline
 90
2
 70
0
 10
-176.357777
 20
238.684614
 30
0.0
 10
-176.357777
 20
238.184614
 30
0.0
  0
SPLINE
  5
1bf
100
AcDbEntity
  8
Ebene_1
 62
7
100
AcDbSpline
 70
8
 71
3
 72
8
 73
4
 74
0
 40
0
 40
0
 40
0
 40
0
 40
1
 40
1
 40
1
 40
1
 10
-174.972917
 20
234.784183
 30
0.0
 10
-174.061127
 20
233.872388
 30
0.0
 10
-172.891947
 20
233.399417
 30
0.0
 10
-171.572527
 20
233.399417
 30
0.0
  0
LWPOLYLINE
  5
1c0
100
AcDbEntity
  8
Ebene_1
 62
7
100
AcDbPolyline
 90
3
 70
0
 10
-174.976917
 20
234.790083
 30
0.0
 10
-174.974917
 20
234.788083
 30
0.0
 10
-174.972917
 20
234.784183
 30
0.0
  0
SPLINE
  5
1c1
100
AcDbEntity
  8
Ebene_1
 62
7
100
AcDbSpline
 70
8
 71
3
 72
8
 73
4
 74
0
 40
0
 40
0
 40
0
 40
0
 40
1
 40
1
 40
1
 40
1
 10
-154.431907
 20
233.399417
 30
0.0
 10
-153.152737
 20
233.399417
 30
0.0
 10
-151.998407
 20
233.874956
 30
0.0
 10
-151.068627
 20
234.780277
 30
0.0
  0
SPLINE
  5
1c2
100
AcDbEntity
  8
Ebene_1
 62
7
100
AcDbSpline
 70
8
 71
3
 72
8
 73
4
 74
0
 40
0
 40
0
 40
0
 40
0
 40
1
 40
1
 40
1
 40
1
 10
-151.068627
 20
234.780277
 30
0.0
 10
-150.133397
 20
235.690888
 30
0.0
 10
-149.646747
 20
236.862074
 30
0.0
 10
-149.646747
 20
238.184574
 30
0.0
  0
LWPOLYLINE
  5
1c3
100
AcDbEntity
  8
Ebene_1
 62
7
100
AcDbPolyline
 90
2
 70
0
 10
-171.572527
 20
233.399417
 30
0.0
 10
-154.431907
 20
233.399417
 30
0.0
  0
LWPOLYLINE
  5
1c4
100
AcDbEntity
  8
Ebene_1
 62
7
100
AcDbPolyline
 90
3
 70
0
 10
-149.646747
 20
238.184574
 30
0.0
 10
-149.646747
 20
238.684574
 30
0.0
 10
-176.357777
 20
238.684614
 30
0.0
  0
SPLINE
  5
1c5
100
AcDbEntity
  8
Ebene_1
 62
7
100
AcDbSpline
 70
8
 71
3
 72
8
 73
4
 74
0
 40
0
 40
0
 40
0
 40
0
 40
1
 40
1
 40
1
 40
1
 10
-176.357777
 20
246.754926
 30
0.0
 10
-176.357777
 20
245.455677
 30
0.0
 10
-175.883767
 20
244.291754
 30
0.0
 10
-174.976917
 20
243.360395
 30
0.0
  0
LWPOLYLINE
  5
1c6
100
AcDbEntity
  8
Ebene_1
 62
7
100
AcDbPolyline
 90
2
 70
0
 10
-176.357777
 20
247.254926
 30
0.0
 10
-176.357777
 20
246.754926
 30
0.0
  0
SPLINE
  5
1c7
100
AcDbEntity
  8
Ebene_1
 62
7
100
AcDbSpline
 70
8
 71
3
 72
8
 73
4
 74
0
 40
0
 40
0
 40
0
 40
0
 40
1
 40
1
 40
1
 40
1
 10
-174.972917
 20
243.356395
 30
0.0
 10
-174.061127
 20
242.444599
 30
0.0
 10
-172.891947
 20
241.969676
 30
0.0
 10
-171.572527
 20
241.969676
 30
0.0
  0
LWPOLYLINE
  5
1c8
100
AcDbEntity
  8
Ebene_1
 62
7
100
AcDbPolyline
 90
3
 70
0
 10
-174.976917
 20
243.360395
 30
0.0
 10
-174.974917
 20
243.358395
 30
0.0
 10
-174.972917
 20
243.356395
 30
0.0
  0
SPLINE
  5
1c9
100
AcDbEntity
  8
Ebene_1
 62
7
100
AcDbSpline
 70
8
 71
3
 72
8
 73
4
 74
0
 40
0
 40
0
 40
0
 40
0
 40
1
 40
1
 40
1
 40
1
 10
-154.431907
 20
241.969676
 30
0.0
 10
-153.152737
 20
241.969676
 30
0.0
 10
-151.998407
 20
242.445215
 30
0.0
 10
-151.068627
 20
243.350535
 30
0.0
  0
SPLINE
  5
1ca
100
AcDbEntity
  8
Ebene_1
 62
7
100
AcDbSpline
 70
8
 71
3
 72
8
 73
4
 74
0
 40
0
 40
0
 40
0
 40
0
 40
1
 40
1
 40
1
 40
1
 10
-151.068627
 20
243.350535
 30
0.0
 10
-150.133397
 20
244.261146
 30
0.0
 10
-149.646747
 20
245.432332
 30
0.0
 10
-149.646747
 20
246.754832
 30
0.0
  0
LWPOLYLINE
  5
1cb
100
AcDbEntity
  8
Ebene_1
 62
7
100
AcDbPolyline
 90
2
 70
0
 10
-171.572527
 20
241.969676
 30
0.0
 10
-154.431907
 20
241.969676
 30
0.0
  0
LWPOLYLINE
  5
1cc
100
AcDbEntity
  8
Ebene_1
 62
7
100
AcDbPolyline
 90
3
 70
0
 10
-149.646747
 20
246.754832
 30
0.0
 10
-149.646747
 20
247.254832
 30
0.0
 10
-176.357777
 20
247.254926
 30
0.0
  0
SPLINE
  5
1cd
100
AcDbEntity
  8
Ebene_1
 62
7
100
AcDbSpline
 70
8
 71
3
 72
8
 73
4
 74
0
 40
0
 40
0
 40
0
 40
0
 40
1
 40
1
 40
1
 40
1
 10
-138.273797
 20
230.114301
 30
0.0
 10
-139.576187
 20
230.114301
 30
0.0
 10
-140.743887
 20
229.626633
 30
0.0
 10
-141.674187
 20
228.696333
 30
0.0
  0
SPLINE
  5
1ce
100
AcDbEntity
  8
Ebene_1
 62
7
100
AcDbSpline
 70
8
 71
3
 72
8
 73
4
 74
0
 40
0
 40
0
 40
0
 40
0
 40
1
 40
1
 40
1
 40
1
 10
-141.674187
 20
228.696333
 30
0.0
 10
-142.584387
 20
227.786129
 30
0.0
 10
-143.058947
 20
226.628394
 30
0.0
 10
-143.058947
 20
225.329145
 30
0.0
  0
LWPOLYLINE
  5
1cf
100
AcDbEntity
  8
Ebene_1
 62
7
100
AcDbPolyline
 90
5
 70
0
 10
-143.058947
 20
247.254926
 30
0.0
 10
-143.058947
 20
233.399457
 30
0.0
 10
-121.633167
 20
233.399457
 30
0.0
 10
-121.633167
 20
230.114301
 30
0.0
 10
-138.273797
 20
230.114301
 30
0.0
  0
SPLINE
  5
1d0
100
AcDbEntity
  8
Ebene_1
 62
7
100
AcDbSpline
 70
8
 71
3
 72
8
 73
4
 74
0
 40
0
 40
0
 40
0
 40
0
 40
1
 40
1
 40
1
 40
1
 10
-121.133167
 20
241.969770
 30
0.0
 10
-119.853997
 20
241.969770
 30
0.0
 10
-118.701627
 20
242.445309
 30
0.0
 10
-117.771837
 20
243.350629
 30
0.0
  0
SPLINE
  5
1d1
100
AcDbEntity
  8
Ebene_1
 62
7
100
AcDbSpline
 70
8
 71
3
 72
8
 73
4
 74
0
 40
0
 40
0
 40
0
 40
0
 40
1
 40
1
 40
1
 40
1
 10
-117.771837
 20
243.350629
 30
0.0
 10
-116.836617
 20
244.261241
 30
0.0
 10
-116.348017
 20
245.432427
 30
0.0
 10
-116.348017
 20
246.754926
 30
0.0
  0
LWPOLYLINE
  5
1d2
100
AcDbEntity
  8
Ebene_1
 62
7
100
AcDbPolyline
 90
8
 70
0
 10
-143.058947
 20
225.329145
 30
0.0
 10
-143.058947
 20
224.829145
 30
0.0
 10
-142.558947
 20
224.829145
 30
0.0
 10
-116.348017
 20
224.829145
 30
0.0
 10
-116.348017
 20
238.684614
 30
0.0
 10
-137.773797
 20
238.684614
 30
0.0
 10
-137.773797
 20
241.969770
 30
0.0
 10
-121.133167
 20
241.969770
 30
0.0
  0
LWPOLYLINE
  5
1d3
100
AcDbEntity
  8
Ebene_1
 62
7
100
AcDbPolyline
 90
3
 70
0
 10
-116.348017
 20
246.754926
 30
0.0
 10
-116.348017
 20
247.254926
 30
0.0
 10
-143.058947
 20
247.254926
 30
0.0
  0
SPLINE
  5
1d4
100
AcDbEntity
  8
Ebene_1
 62
7
100
AcDbSpline
 70
8
 71
3
 72
8
 73
4
 74
0
 40
0
 40
0
 40
0
 40
0
 40
1
 40
1
 40
1
 40
1
 10
-87.836297
 20
224.829145
 30
0.0
 10
-86.557127
 20
224.829145
 30
0.0
 10
-85.402797
 20
225.304684
 30
0.0
 10
-84.473017
 20
226.210004
 30
0.0
  0
SPLINE
  5
1d5
100
AcDbEntity
  8
Ebene_1
 62
7
100
AcDbSpline
 70
8
 71
3
 72
8
 73
4
 74
0
 40
0
 40
0
 40
0
 40
0
 40
1
 40
1
 40
1
 40
1
 10
-84.473017
 20
226.210004
 30
0.0
 10
-83.537797
 20
227.120616
 30
0.0
 10
-83.051137
 20
228.291802
 30
0.0
 10
-83.051137
 20
229.614301
 30
0.0
  0
LWPOLYLINE
  5
1d6
100
AcDbEntity
  8
Ebene_1
 62
7
100
AcDbPolyline
 90
4
 70
0
 10
-109.762077
 20
247.254926
 30
0.0
 10
-109.762077
 20
224.829145
 30
0.0
 10
-109.262077
 20
224.829145
 30
0.0
 10
-87.836297
 20
224.829145
 30
0.0
  0
LWPOLYLINE
  5
1d7
100
AcDbEntity
  8
Ebene_1
 62
7
100
AcDbPolyline
 90
5
 70
0
 10
-83.051137
 20
229.614301
 30
0.0
 10
-83.051137
 20
230.114301
 30
0.0
 10
-104.476917
 20
230.114301
 30
0.0
 10
-104.476917
 20
247.254926
 30
0.0
 10
-109.762077
 20
247.254926
 30
0.0
  0
LWPOLYLINE
  5
1d8
100
AcDbEntity
  8
Ebene_1
 62
7
100
AcDbPolyline
 90
9
 70
1
 10
-168.000096
 20
266.125116
 30
0.0
 10
-168.000096
 20
257.999042
 30
0.0
 10
-167.573373
 20
257.999042
 30
0.0
 10
-164.721327
 20
257.999042
 30
0.0
 10
-164.721327
 20
262.848016
 30
0.0
 10
-155.880164
 20
262.848016
 30
0.0
 10
-155.880164
 20
257.999042
 30
0.0
 10
-152.601395
 20
257.999042
 30
0.0
 10
-152.601395
 20
266.125116
 30
0.0
  0
SPLINE
  5
1d9
100
AcDbEntity
  8
Ebene_1
 62
7
100
AcDbSpline
 70
8
 71
3
 72
8
 73
4
 74
0
 40
0
 40
0
 40
0
 40
0
 40
1
 40
1
 40
1
 40
1
 10
-168.000096
 20
270.545699
 30
0.0
 10
-168.000096
 20
269.777259
 30
0.0
 10
-167.714635
 20
269.076237
 30
0.0
 10
-167.178321
 20
268.525433
 30
0.0
  0
LWPOLYLINE
  5
1da
100
AcDbEntity
  8
Ebene_1
 62
7
100
AcDbPolyline
 90
2
 70
0
 10
-168.000096
 20
270.972422
 30
0.0
 10
-168.000096
 20
270.545699
 30
0.0
  0
SPLINE
  5
1db
100
AcDbEntity
  8
Ebene_1
 62
7
100
AcDbSpline
 70
8
 71
3
 72
8
 73
4
 74
0
 40
0
 40
0
 40
0
 40
0
 40
1
 40
1
 40
1
 40
1
 10
-167.173201
 20
268.522019
 30
0.0
 10
-166.632671
 20
267.981486
 30
0.0
 10
-165.927161
 20
267.695243
 30
0.0
 10
-165.147931
 20
267.695243
 30
0.0
  0
LWPOLYLINE
  5
1dc
100
AcDbEntity
  8
Ebene_1
 62
7
100
AcDbPolyline
 90
3
 70
0
 10
-167.178321
 20
268.525433
 30
0.0
 10
-167.176614
 20
268.523726
 30
0.0
 10
-167.173201
 20
268.522019
 30
0.0
  0
SPLINE
  5
1dd
100
AcDbEntity
  8
Ebene_1
 62
7
100
AcDbSpline
 70
8
 71
3
 72
8
 73
4
 74
0
 40
0
 40
0
 40
0
 40
0
 40
1
 40
1
 40
1
 40
1
 10
-155.453322
 20
267.695243
 30
0.0
 10
-154.695598
 20
267.695243
 30
0.0
 10
-153.999186
 20
267.982014
 30
0.0
 10
-153.449721
 20
268.517018
 30
0.0
  0
SPLINE
  5
1de
100
AcDbEntity
  8
Ebene_1
 62
7
100
AcDbSpline
 70
8
 71
3
 72
8
 73
4
 74
0
 40
0
 40
0
 40
0
 40
0
 40
1
 40
1
 40
1
 40
1
 10
-153.449721
 20
268.517018
 30
0.0
 10
-152.895629
 20
269.056539
 30
0.0
 10
-152.601276
 20
269.763760
 30
0.0
 10
-152.601276
 20
270.545619
 30
0.0
  0
LWPOLYLINE
  5
1df
100
AcDbEntity
  8
Ebene_1
 62
7
100
AcDbPolyline
 90
2
 70
0
 10
-165.147931
 20
267.695243
 30
0.0
 10
-155.453322
 20
267.695243
 30
0.0
  0
LWPOLYLINE
  5
1e0
100
AcDbEntity
  8
Ebene_1
 62
7
100
AcDbPolyline
 90
3
 70
0
 10
-152.601276
 20
270.545619
 30
0.0
 10
-152.601276
 20
270.972342
 30
0.0
 10
-168.000096
 20
270.972422
 30
0.0
  0
LWPOLYLINE
  5
1e1
100
AcDbEntity
  8
Ebene_1
 62
7
100
AcDbPolyline
 90
12
 70
1
 10
-151.634603
 20
270.972422
 30
0.0
 10
-148.607533
 20
267.945356
 30
0.0
 10
-148.607533
 20
257.999042
 30
0.0
 10
-148.180810
 20
257.999042
 30
0.0
 10
-145.330437
 20
257.999042
 30
0.0
 10
-145.330437
 20
264.668256
 30
0.0
 10
-138.661226
 20
257.999042
 30
0.0
 10
-135.634155
 20
257.999042
 30
0.0
 10
-135.634155
 20
270.972422
 30
0.0
 10
-138.911260
 20
270.972422
 30
0.0
 10
-138.911260
 20
263.093048
 30
0.0
 10
-146.792296
 20
270.972422
 30
0.0
  0
LWPOLYLINE
  5
1e2
100
AcDbEntity
  8
Ebene_1
 62
7
100
AcDbPolyline
 90
12
 70
1
 10
-134.665699
 20
270.972422
 30
0.0
 10
-131.638628
 20
267.945356
 30
0.0
 10
-131.638628
 20
257.999042
 30
0.0
 10
-131.211905
 20
257.999042
 30
0.0
 10
-128.361532
 20
257.999042
 30
0.0
 10
-128.361532
 20
264.668256
 30
0.0
 10
-121.692312
 20
257.999042
 30
0.0
 10
-118.665250
 20
257.999042
 30
0.0
 10
-118.665250
 20
270.972422
 30
0.0
 10
-121.942346
 20
270.972422
 30
0.0
 10
-121.942346
 20
263.093048
 30
0.0
 10
-129.823391
 20
270.972422
 30
0.0
  0
LWPOLYLINE
  5
1e3
100
AcDbEntity
  8
Ebene_1
 62
7
100
AcDbPolyline
 90
5
 70
1
 10
-117.095046
 20
270.972422
 30
0.0
 10
-117.095046
 20
257.999042
 30
0.0
 10
-116.668323
 20
257.999042
 30
0.0
 10
-113.816277
 20
257.999042
 30
0.0
 10
-113.816277
 20
270.972422
 30
0.0
  0
SPLINE
  5
1e4
100
AcDbEntity
  8
Ebene_1
 62
7
100
AcDbSpline
 70
8
 71
3
 72
8
 73
4
 74
0
 40
0
 40
0
 40
0
 40
0
 40
1
 40
1
 40
1
 40
1
 10
-111.819350
 20
265.271670
 30
0.0
 10
-111.061627
 20
265.271670
 30
0.0
 10
-110.366879
 20
265.558440
 30
0.0
 10
-109.817413
 20
266.093444
 30
0.0
  0
SPLINE
  5
1e5
100
AcDbEntity
  8
Ebene_1
 62
7
100
AcDbSpline
 70
8
 71
3
 72
8
 73
4
 74
0
 40
0
 40
0
 40
0
 40
0
 40
1
 40
1
 40
1
 40
1
 10
-109.817413
 20
266.093444
 30
0.0
 10
-109.263314
 20
266.632965
 30
0.0
 10
-108.968969
 20
267.340185
 30
0.0
 10
-108.968969
 20
268.122045
 30
0.0
  0
LWPOLYLINE
  5
1e6
100
AcDbEntity
  8
Ebene_1
 62
7
100
AcDbPolyline
 90
3
 70
0
 10
-112.246073
 20
270.972422
 30
0.0
 10
-112.246073
 20
265.271670
 30
0.0
 10
-111.819350
 20
265.271670
 30
0.0
  0
LWPOLYLINE
  5
1e7
100
AcDbEntity
  8
Ebene_1
 62
7
100
AcDbPolyline
 90
3
 70
0
 10
-108.968969
 20
268.122045
 30
0.0
 10
-108.968969
 20
270.972422
 30
0.0
 10
-112.246073
 20
270.972422
 30
0.0
  0
SPLINE
  5
1e8
100
AcDbEntity
  8
Ebene_1
 62
7
100
AcDbSpline
 70
8
 71
3
 72
8
 73
4
 74
0
 40
0
 40
0
 40
0
 40
0
 40
1
 40
1
 40
1
 40
1
 10
-104.546719
 20
261.276142
 30
0.0
 10
-105.317841
 20
261.276142
 30
0.0
 10
-106.022088
 20
260.982597
 30
0.0
 10
-106.571989
 20
260.432697
 30
0.0
  0
SPLINE
  5
1e9
100
AcDbEntity
  8
Ebene_1
 62
7
100
AcDbSpline
 70
8
 71
3
 72
8
 73
4
 74
0
 40
0
 40
0
 40
0
 40
0
 40
1
 40
1
 40
1
 40
1
 10
-106.571989
 20
260.432697
 30
0.0
 10
-107.111162
 20
259.893525
 30
0.0
 10
-107.398765
 20
259.194206
 30
0.0
 10
-107.398765
 20
258.425765
 30
0.0
  0
LWPOLYLINE
  5
1ea
100
AcDbEntity
  8
Ebene_1
 62
7
100
AcDbPolyline
 90
5
 70
0
 10
-107.398765
 20
270.972422
 30
0.0
 10
-107.398765
 20
262.848016
 30
0.0
 10
-95.278829
 20
262.848016
 30
0.0
 10
-95.278829
 20
261.276142
 30
0.0
 10
-104.546719
 20
261.276142
 30
0.0
  0
SPLINE
  5
1eb
100
AcDbEntity
  8
Ebene_1
 62
7
100
AcDbSpline
 70
8
 71
3
 72
8
 73
4
 74
0
 40
0
 40
0
 40
0
 40
0
 40
1
 40
1
 40
1
 40
1
 10
-94.852106
 20
267.695322
 30
0.0
 10
-94.094382
 20
267.695322
 30
0.0
 10
-93.397974
 20
267.982092
 30
0.0
 10
-92.848509
 20
268.517098
 30
0.0
  0
SPLINE
  5
1ec
100
AcDbEntity
  8
Ebene_1
 62
7
100
AcDbSpline
 70
8
 71
3
 72
8
 73
4
 74
0
 40
0
 40
0
 40
0
 40
0
 40
1
 40
1
 40
1
 40
1
 10
-92.848509
 20
268.517098
 30
0.0
 10
-92.294406
 20
269.056618
 30
0.0
 10
-92.000063
 20
269.763839
 30
0.0
 10
-92.000063
 20
270.545699
 30
0.0
  0
LWPOLYLINE
  5
1ed
100
AcDbEntity
  8
Ebene_1
 62
7
100
AcDbPolyline
 90
8
 70
0
 10
-107.398765
 20
258.425765
 30
0.0
 10
-107.398765
 20
257.999042
 30
0.0
 10
-106.972042
 20
257.999042
 30
0.0
 10
-92.000063
 20
257.999042
 30
0.0
 10
-92.000063
 20
266.125116
 30
0.0
 10
-104.119997
 20
266.125116
 30
0.0
 10
-104.119997
 20
267.695322
 30
0.0
 10
-94.852106
 20
267.695322
 30
0.0
  0
LWPOLYLINE
  5
1ee
100
AcDbEntity
  8
Ebene_1
 62
7
100
AcDbPolyline
 90
3
 70
0
 10
-92.000063
 20
270.545699
 30
0.0
 10
-92.000063
 20
270.972422
 30
0.0
 10
-107.398765
 20
270.972422
 30
0.0
  0
ENDSEC
  0
SECTION
  2
OBJECTS
  0
DICTIONARY
  5
C
330
0
100
AcDbDictionary
  3
ACAD_GROUP
350
D
  3
ACAD_MLINESTYLE
350
17
  0
DICTIONARY
  5
D
330
C
100
AcDbDictionary
  0
DICTIONARY
  5
1A
330
C
100
AcDbDictionary
  0
DICTIONARY
  5
17
330
C
100
AcDbDictionary
  3
STANDARD
350
18
  0
DICTIONARY
  5
19
330
C
100
AcDbDictionary
  0
ENDSEC
  0
EOF
