<?xml version="1.0" encoding="UTF-8" standalone="no"?>
<svg
   xmlns:dc="http://purl.org/dc/elements/1.1/"
   xmlns:cc="http://creativecommons.org/ns#"
   xmlns:rdf="http://www.w3.org/1999/02/22-rdf-syntax-ns#"
   xmlns:svg="http://www.w3.org/2000/svg"
   xmlns="http://www.w3.org/2000/svg"
   xmlns:sodipodi="http://sodipodi.sourceforge.net/DTD/sodipodi-0.dtd"
   xmlns:inkscape="http://www.inkscape.org/namespaces/inkscape"
   sodipodi:docname="Baumwollnatter.svg"
   inkscape:version="1.0 (4035a4fb49, 2020-05-01)"
   id="svg1659"
   version="1.1"
   viewBox="0 0 220 300"
   height="300mm"
   width="220mm">
  <defs
     id="defs1653" />
  <sodipodi:namedview
     inkscape:window-maximized="0"
     inkscape:window-y="56"
     inkscape:window-x="2344"
     inkscape:window-height="1159"
     inkscape:window-width="2685"
     showgrid="true"
     inkscape:document-rotation="0"
     inkscape:current-layer="text1606"
     inkscape:document-units="mm"
     inkscape:cy="501.80986"
     inkscape:cx="414.70873"
     inkscape:zoom="0.7"
     inkscape:pageshadow="2"
     inkscape:pageopacity="0.0"
     borderopacity="1.0"
     bordercolor="#666666"
     pagecolor="#ffffff"
     id="base">
    <inkscape:grid
       id="grid2270"
       type="xygrid" />
  </sodipodi:namedview>
  <metadata
     id="metadata1656">
    <rdf:RDF>
      <cc:Work
         rdf:about="">
        <dc:format>image/svg+xml</dc:format>
        <dc:type
           rdf:resource="http://purl.org/dc/dcmitype/StillImage" />
        <dc:title></dc:title>
      </cc:Work>
    </rdf:RDF>
  </metadata>
  <g
     id="layer1"
     inkscape:groupmode="layer"
     inkscape:label="Ebene 1">
    <path
       inkscape:connector-curvature="0"
       style="fill:none;fill-opacity:1;stroke:#000000;stroke-width:0.4;stroke-linejoin:round;stroke-miterlimit:4;stroke-dasharray:none;stroke-opacity:1;paint-order:markers fill stroke"
       d="M -0.3500715,0.40002 H 219.24993 V 300 H -0.3500715 Z"
       id="rect867-6-4" />
    <path
       style="color:#000000;font-style:normal;font-variant:normal;font-weight:normal;font-stretch:normal;font-size:medium;line-height:normal;font-family:sans-serif;font-variant-ligatures:normal;font-variant-position:normal;font-variant-caps:normal;font-variant-numeric:normal;font-variant-alternates:normal;font-feature-settings:normal;text-indent:0;text-align:start;text-decoration:none;text-decoration-line:none;text-decoration-style:solid;text-decoration-color:#000000;letter-spacing:normal;word-spacing:normal;text-transform:none;writing-mode:lr-tb;direction:ltr;text-orientation:mixed;dominant-baseline:auto;baseline-shift:baseline;text-anchor:start;white-space:normal;shape-padding:0;clip-rule:nonzero;display:inline;overflow:visible;visibility:visible;isolation:auto;mix-blend-mode:normal;color-interpolation:sRGB;color-interpolation-filters:linearRGB;solid-color:#000000;solid-opacity:1;vector-effect:none;fill:#000000;fill-opacity:1;fill-rule:nonzero;stroke:none;stroke-width:7;stroke-linecap:butt;stroke-linejoin:round;stroke-miterlimit:4;stroke-dasharray:none;stroke-dashoffset:0;stroke-opacity:1;paint-order:markers fill stroke;color-rendering:auto;image-rendering:auto;shape-rendering:auto;text-rendering:auto;enable-background:accumulate"
       d="m 46.410698,10.38899 c -19.29458,0 -34.93524,15.61954 -34.93524,34.88806 v 209.84591 c 0,19.26853 15.64066,34.88807 34.93524,34.88807 H 172.48918 c 19.29458,0 34.93522,-15.61954 34.93522,-34.88807 V 45.27705 c 0,-19.26852 -15.64064,-34.88806 -34.93522,-34.88806 z m 0,6.82005 H 172.48918 c 15.62928,0 28.10597,12.45984 28.10597,28.06801 v 209.84591 c 0,15.60818 -12.47669,28.06801 -28.10597,28.06801 H 46.410698 c -15.62931,0 -28.10594,-12.45983 -28.10594,-28.06801 V 45.27705 c 0,-15.60817 12.47663,-28.06801 28.10594,-28.06801 z"
       id="rect875-2-1"
       inkscape:connector-curvature="0" />
    <path
       style="fill:#ea0000;fill-opacity:1;stroke-width:1.18896"
       d="m 109.3487,228.18729 c -0.24924,-1.31454 -21.697212,-121.05742 -21.697212,-121.13441 0,-0.10951 -6.334778,0.0506 -9.518925,0.24067 -9.47598,0.56508 -14.349725,2.22448 -16.705368,5.68777 -0.868454,1.27691 -1.231075,2.18733 -1.610104,4.04271 -0.153899,0.75383 -0.308072,1.39872 -0.342398,1.43304 -0.11521,0.11522 -4.05335,-1.75577 -6.026432,-2.86349 -5.901449,-3.31319 -10.534608,-7.14931 -13.68638,-11.3321 -0.463088,-0.61451 -0.841939,-1.16756 -0.841939,-1.22905 0,-0.0617 0.239778,-0.21101 0.532774,-0.33226 0.293067,-0.12144 1.555721,-0.6655 2.806021,-1.20941 C 56.583495,95.258873 75.20352,90.902875 91.913762,89.874434 l 1.491731,-0.09179 8.007247,9.757087 c 4.40396,5.366359 8.05588,9.703279 8.11543,9.637599 0.0595,-0.0656 3.6339,-4.4159 7.94297,-9.667038 4.30909,-5.251122 7.90051,-9.588242 7.98096,-9.637964 0.16778,-0.103678 3.7515,0.127326 6.88187,0.443851 13.2012,1.334432 26.45974,4.389208 38.50224,8.870905 2.8421,1.057676 7.41372,2.945536 8.60604,3.553796 l 0.55699,0.28416 -0.7185,0.98785 c -2.79227,3.83906 -7.1697,7.61172 -12.59073,10.85132 -1.49089,0.89096 -6.42626,3.36808 -7.09917,3.56316 -0.27768,0.0806 -0.31494,0.02 -0.40733,-0.66237 -0.0559,-0.41305 -0.25788,-1.29275 -0.44883,-1.95484 -1.50351,-5.21385 -5.94591,-7.52909 -16.10032,-8.39079 -2.21102,-0.18762 -11.40643,-0.42843 -11.52197,-0.30168 -0.0592,0.0649 -17.8105,99.64475 -21.55684,120.92759 l -0.1126,0.63931 z M 180,97.660446 C 163.03151,90.50406 143.75326,85.950193 124.51983,84.555065 118.34058,84.106838 105.5032,83.960061 99.286946,84.266552 c -21.542128,1.062136 -41.361327,5.45233 -60.408713,13.381196 -1.312305,0.546257 -2.467656,0.961858 -2.56754,0.923551 -0.10011,-0.03852 -0.921458,-1.56251 -1.825687,-3.387104 -1.691904,-3.413723 -2.480364,-5.187072 -2.359851,-5.307586 0.123437,-0.12339 5.090778,-1.99993 8.002427,-3.02321 C 67.423368,77.260344 96.574576,73.285 124.16468,75.39321 c 20.63579,1.576812 40.08399,5.92972 59.88101,13.402609 1.47395,0.556363 2.70519,1.036894 2.73617,1.067866 0.16184,0.161818 -3.79662,8.425318 -4.19769,8.762995 -0.0539,0.04529 -1.2167,-0.389515 -2.58417,-0.966234 z"
       id="path2190-3-3"
       inkscape:connector-curvature="0"
       sodipodi:nodetypes="csscccccscsscscssssccsscccsccccsssccscsssccs" />
    <g
       transform="translate(239.17685,3.8643447)"
       id="g2199">
      <path
         style="color:#000000;font-style:normal;font-variant:normal;font-weight:normal;font-stretch:normal;font-size:medium;line-height:1.55;font-family:TESLA;-inkscape-font-specification:TESLA;font-variant-ligatures:normal;font-variant-position:normal;font-variant-caps:normal;font-variant-numeric:normal;font-variant-alternates:normal;font-variant-east-asian:normal;font-feature-settings:normal;font-variation-settings:normal;text-indent:0;text-align:start;text-decoration:none;text-decoration-line:none;text-decoration-style:solid;text-decoration-color:#000000;letter-spacing:3.30133px;word-spacing:normal;text-transform:none;writing-mode:lr-tb;direction:ltr;text-orientation:mixed;dominant-baseline:auto;baseline-shift:baseline;text-anchor:start;white-space:normal;shape-padding:0;shape-margin:0;inline-size:0;clip-rule:nonzero;display:inline;overflow:visible;visibility:visible;isolation:auto;mix-blend-mode:normal;color-interpolation:sRGB;color-interpolation-filters:linearRGB;solid-color:#000000;solid-opacity:1;vector-effect:none;fill:#000000;fill-opacity:1;fill-rule:nonzero;stroke:none;stroke-width:1;stroke-linecap:butt;stroke-linejoin:miter;stroke-miterlimit:4;stroke-dasharray:none;stroke-dashoffset:0;stroke-opacity:1;color-rendering:auto;image-rendering:auto;shape-rendering:auto;text-rendering:auto;enable-background:accumulate;stop-color:#000000"
         d="m -76.48676,47.517686 v 13.855469 h 0.5 4.78515 v -8.570312 h 16.14063 v 8.570312 h 5.28516 V 47.517686 Z"
         id="path2187" />
      <path
         style="color:#000000;font-style:normal;font-variant:normal;font-weight:normal;font-stretch:normal;font-size:medium;line-height:1.55;font-family:TESLA;-inkscape-font-specification:TESLA;font-variant-ligatures:normal;font-variant-position:normal;font-variant-caps:normal;font-variant-numeric:normal;font-variant-alternates:normal;font-variant-east-asian:normal;font-feature-settings:normal;font-variation-settings:normal;text-indent:0;text-align:start;text-decoration:none;text-decoration-line:none;text-decoration-style:solid;text-decoration-color:#000000;letter-spacing:3.30133px;word-spacing:normal;text-transform:none;writing-mode:lr-tb;direction:ltr;text-orientation:mixed;dominant-baseline:auto;baseline-shift:baseline;text-anchor:start;white-space:normal;shape-padding:0;shape-margin:0;inline-size:0;clip-rule:nonzero;display:inline;overflow:visible;visibility:visible;isolation:auto;mix-blend-mode:normal;color-interpolation:sRGB;color-interpolation-filters:linearRGB;solid-color:#000000;solid-opacity:1;vector-effect:none;fill:#000000;fill-opacity:1;fill-rule:nonzero;stroke:none;stroke-width:1;stroke-linecap:butt;stroke-linejoin:miter;stroke-miterlimit:4;stroke-dasharray:none;stroke-dashoffset:0;stroke-opacity:1;color-rendering:auto;image-rendering:auto;shape-rendering:auto;text-rendering:auto;enable-background:accumulate;stop-color:#000000"
         d="m -76.48676,38.947374 v 0.5 c 0,1.299249 0.47206,2.463172 1.37891,3.394531 l 0.004,0.002 0.002,0.002 c 0.9118,0.911795 2.08098,1.386719 3.40039,1.386719 h 17.14063 c 1.27917,0 2.43154,-0.475539 3.36133,-1.380859 0.93522,-0.910612 1.42383,-2.081798 1.42383,-3.404297 v -0.5 z"
         id="path2152" />
      <path
         style="color:#000000;font-style:normal;font-variant:normal;font-weight:normal;font-stretch:normal;font-size:medium;line-height:1.55;font-family:TESLA;-inkscape-font-specification:TESLA;font-variant-ligatures:normal;font-variant-position:normal;font-variant-caps:normal;font-variant-numeric:normal;font-variant-alternates:normal;font-variant-east-asian:normal;font-feature-settings:normal;font-variation-settings:normal;text-indent:0;text-align:start;text-decoration:none;text-decoration-line:none;text-decoration-style:solid;text-decoration-color:#000000;letter-spacing:3.30133px;word-spacing:normal;text-transform:none;writing-mode:lr-tb;direction:ltr;text-orientation:mixed;dominant-baseline:auto;baseline-shift:baseline;text-anchor:start;white-space:normal;shape-padding:0;shape-margin:0;inline-size:0;clip-rule:nonzero;display:inline;overflow:visible;visibility:visible;isolation:auto;mix-blend-mode:normal;color-interpolation:sRGB;color-interpolation-filters:linearRGB;solid-color:#000000;solid-opacity:1;vector-effect:none;fill:#000000;fill-opacity:1;fill-rule:nonzero;stroke:none;stroke-width:1;stroke-linecap:butt;stroke-linejoin:miter;stroke-miterlimit:4;stroke-dasharray:none;stroke-dashoffset:0;stroke-opacity:1;color-rendering:auto;image-rendering:auto;shape-rendering:auto;text-rendering:auto;enable-background:accumulate;stop-color:#000000"
         d="m -209.67817,38.947374 v 0.5 c 0,1.299249 0.47401,2.463172 1.38086,3.394531 l 0.002,0.002 0.002,0.002 c 0.9118,0.911796 2.08098,1.386719 3.40039,1.386719 h 5.92774 v 17.140531 h 0.5 4.78515 V 44.23253 h 5.92774 c 1.27917,0 2.43154,-0.475539 3.36133,-1.380859 0.93522,-0.910611 1.42382,-2.081797 1.42382,-3.404297 v -0.5 z"
         id="path2136" />
      <path
         style="color:#000000;font-style:normal;font-variant:normal;font-weight:normal;font-stretch:normal;font-size:medium;line-height:1.55;font-family:TESLA;-inkscape-font-specification:TESLA;font-variant-ligatures:normal;font-variant-position:normal;font-variant-caps:normal;font-variant-numeric:normal;font-variant-alternates:normal;font-variant-east-asian:normal;font-feature-settings:normal;font-variation-settings:normal;text-indent:0;text-align:start;text-decoration:none;text-decoration-line:none;text-decoration-style:solid;text-decoration-color:#000000;letter-spacing:3.30133px;word-spacing:normal;text-transform:none;writing-mode:lr-tb;direction:ltr;text-orientation:mixed;dominant-baseline:auto;baseline-shift:baseline;text-anchor:start;white-space:normal;shape-padding:0;shape-margin:0;inline-size:0;clip-rule:nonzero;display:inline;overflow:visible;visibility:visible;isolation:auto;mix-blend-mode:normal;color-interpolation:sRGB;color-interpolation-filters:linearRGB;solid-color:#000000;solid-opacity:1;vector-effect:none;fill:#000000;fill-opacity:1;fill-rule:nonzero;stroke:none;stroke-width:1;stroke-linecap:butt;stroke-linejoin:miter;stroke-miterlimit:4;stroke-dasharray:none;stroke-dashoffset:0;stroke-opacity:1;color-rendering:auto;image-rendering:auto;shape-rendering:auto;text-rendering:auto;enable-background:accumulate;stop-color:#000000"
         d="m -176.38129,56.087999 v 0.5 c 0,1.299249 0.47401,2.463172 1.38086,3.394531 l 0.002,0.002 0.002,0.0039 c 0.91179,0.911796 2.08097,1.384766 3.40039,1.384766 h 17.14062 c 1.27917,0 2.4335,-0.475539 3.36328,-1.380859 0.93523,-0.910611 1.42188,-2.081797 1.42188,-3.404297 v -0.5 z"
         id="path2171" />
      <path
         style="color:#000000;font-style:normal;font-variant:normal;font-weight:normal;font-stretch:normal;font-size:medium;line-height:1.55;font-family:TESLA;-inkscape-font-specification:TESLA;font-variant-ligatures:normal;font-variant-position:normal;font-variant-caps:normal;font-variant-numeric:normal;font-variant-alternates:normal;font-variant-east-asian:normal;font-feature-settings:normal;font-variation-settings:normal;text-indent:0;text-align:start;text-decoration:none;text-decoration-line:none;text-decoration-style:solid;text-decoration-color:#000000;letter-spacing:3.30133px;word-spacing:normal;text-transform:none;writing-mode:lr-tb;direction:ltr;text-orientation:mixed;dominant-baseline:auto;baseline-shift:baseline;text-anchor:start;white-space:normal;shape-padding:0;shape-margin:0;inline-size:0;clip-rule:nonzero;display:inline;overflow:visible;visibility:visible;isolation:auto;mix-blend-mode:normal;color-interpolation:sRGB;color-interpolation-filters:linearRGB;solid-color:#000000;solid-opacity:1;vector-effect:none;fill:#000000;fill-opacity:1;fill-rule:nonzero;stroke:none;stroke-width:1;stroke-linecap:butt;stroke-linejoin:miter;stroke-miterlimit:4;stroke-dasharray:none;stroke-dashoffset:0;stroke-opacity:1;color-rendering:auto;image-rendering:auto;shape-rendering:auto;text-rendering:auto;enable-background:accumulate;stop-color:#000000"
         d="m -176.38129,47.517686 v 0.5 c 0,1.29925 0.47401,2.463172 1.38086,3.394531 l 0.002,0.002 0.002,0.0039 c 0.91179,0.911795 2.08097,1.384766 3.40039,1.384766 h 17.14062 c 1.27917,0 2.4335,-0.475539 3.36328,-1.38086 0.93523,-0.910611 1.42188,-2.081797 1.42188,-3.404297 v -0.5 z"
         id="path2167" />
      <path
         style="color:#000000;font-style:normal;font-variant:normal;font-weight:normal;font-stretch:normal;font-size:medium;line-height:1.55;font-family:TESLA;-inkscape-font-specification:TESLA;font-variant-ligatures:normal;font-variant-position:normal;font-variant-caps:normal;font-variant-numeric:normal;font-variant-alternates:normal;font-variant-east-asian:normal;font-feature-settings:normal;font-variation-settings:normal;text-indent:0;text-align:start;text-decoration:none;text-decoration-line:none;text-decoration-style:solid;text-decoration-color:#000000;letter-spacing:3.30133px;word-spacing:normal;text-transform:none;writing-mode:lr-tb;direction:ltr;text-orientation:mixed;dominant-baseline:auto;baseline-shift:baseline;text-anchor:start;white-space:normal;shape-padding:0;shape-margin:0;inline-size:0;clip-rule:nonzero;display:inline;overflow:visible;visibility:visible;isolation:auto;mix-blend-mode:normal;color-interpolation:sRGB;color-interpolation-filters:linearRGB;solid-color:#000000;solid-opacity:1;vector-effect:none;fill:#000000;fill-opacity:1;fill-rule:nonzero;stroke:none;stroke-width:1;stroke-linecap:butt;stroke-linejoin:miter;stroke-miterlimit:4;stroke-dasharray:none;stroke-dashoffset:0;stroke-opacity:1;color-rendering:auto;image-rendering:auto;shape-rendering:auto;text-rendering:auto;enable-background:accumulate;stop-color:#000000"
         d="m -176.38129,38.947374 v 0.5 c 0,1.299249 0.47401,2.463172 1.38086,3.394531 l 0.002,0.002 0.002,0.002 c 0.91179,0.911796 2.08097,1.386719 3.40039,1.386719 h 17.14062 c 1.27917,0 2.4335,-0.475539 3.36328,-1.380859 0.93523,-0.910611 1.42188,-2.081797 1.42188,-3.404297 v -0.5 z"
         id="path2140" />
      <path
         style="color:#000000;font-style:normal;font-variant:normal;font-weight:normal;font-stretch:normal;font-size:medium;line-height:1.55;font-family:TESLA;-inkscape-font-specification:TESLA;font-variant-ligatures:normal;font-variant-position:normal;font-variant-caps:normal;font-variant-numeric:normal;font-variant-alternates:normal;font-variant-east-asian:normal;font-feature-settings:normal;font-variation-settings:normal;text-indent:0;text-align:start;text-decoration:none;text-decoration-line:none;text-decoration-style:solid;text-decoration-color:#000000;letter-spacing:3.30133px;word-spacing:normal;text-transform:none;writing-mode:lr-tb;direction:ltr;text-orientation:mixed;dominant-baseline:auto;baseline-shift:baseline;text-anchor:start;white-space:normal;shape-padding:0;shape-margin:0;inline-size:0;clip-rule:nonzero;display:inline;overflow:visible;visibility:visible;isolation:auto;mix-blend-mode:normal;color-interpolation:sRGB;color-interpolation-filters:linearRGB;solid-color:#000000;solid-opacity:1;vector-effect:none;fill:#000000;fill-opacity:1;fill-rule:nonzero;stroke:none;stroke-width:1;stroke-linecap:butt;stroke-linejoin:miter;stroke-miterlimit:4;stroke-dasharray:none;stroke-dashoffset:0;stroke-opacity:1;color-rendering:auto;image-rendering:auto;shape-rendering:auto;text-rendering:auto;enable-background:accumulate;stop-color:#000000"
         d="m -143.08246,38.947374 v 13.855469 h 21.42578 v 3.285156 h -16.64063 c -1.30239,0 -2.47009,0.487668 -3.40039,1.417968 -0.9102,0.910204 -1.38476,2.067939 -1.38476,3.367188 v 0.5 h 0.5 26.21093 V 47.517686 h -21.42578 V 44.23253 h 16.64063 c 1.27917,0 2.43154,-0.475539 3.36133,-1.380859 0.93522,-0.910612 1.42382,-2.081798 1.42382,-3.404297 v -0.5 z"
         id="path2144" />
      <path
         style="color:#000000;font-style:normal;font-variant:normal;font-weight:normal;font-stretch:normal;font-size:medium;line-height:1.55;font-family:TESLA;-inkscape-font-specification:TESLA;font-variant-ligatures:normal;font-variant-position:normal;font-variant-caps:normal;font-variant-numeric:normal;font-variant-alternates:normal;font-variant-east-asian:normal;font-feature-settings:normal;font-variation-settings:normal;text-indent:0;text-align:start;text-decoration:none;text-decoration-line:none;text-decoration-style:solid;text-decoration-color:#000000;letter-spacing:3.30133px;word-spacing:normal;text-transform:none;writing-mode:lr-tb;direction:ltr;text-orientation:mixed;dominant-baseline:auto;baseline-shift:baseline;text-anchor:start;white-space:normal;shape-padding:0;shape-margin:0;inline-size:0;clip-rule:nonzero;display:inline;overflow:visible;visibility:visible;isolation:auto;mix-blend-mode:normal;color-interpolation:sRGB;color-interpolation-filters:linearRGB;solid-color:#000000;solid-opacity:1;vector-effect:none;fill:#000000;fill-opacity:1;fill-rule:nonzero;stroke:none;stroke-width:1;stroke-linecap:butt;stroke-linejoin:miter;stroke-miterlimit:4;stroke-dasharray:none;stroke-dashoffset:0;stroke-opacity:1;color-rendering:auto;image-rendering:auto;shape-rendering:auto;text-rendering:auto;enable-background:accumulate;stop-color:#000000"
         d="m -109.78559,38.947374 v 22.425781 h 0.5 21.42578 c 1.27917,0 2.4335,-0.475539 3.36328,-1.380859 0.93522,-0.910612 1.42188,-2.081798 1.42188,-3.404297 v -0.5 h -21.42578 V 38.947374 Z"
         id="path2148" />
    </g>
    <g
       id="g1575"
       transform="translate(239.21778,3.0973345)">
      <path
         style="opacity:1;fill:none;fill-opacity:1;stroke:#000000;stroke-width:0.2;stroke-linejoin:round;stroke-miterlimit:4;stroke-dasharray:none;stroke-opacity:1;paint-order:markers fill stroke"
         d="m -204.91368,264.79166 a 2.5,2.5 0 0 1 -2.5,2.5 2.5,2.5 0 0 1 -2.5,-2.5 2.5,2.5 0 0 1 2.5,-2.5 2.5,2.5 0 0 1 2.5,2.5 z"
         id="path879" />
      <path
         style="opacity:1;fill:none;fill-opacity:1;stroke:#000000;stroke-width:0.2;stroke-linejoin:round;stroke-miterlimit:4;stroke-dasharray:none;stroke-opacity:1;paint-order:markers fill stroke"
         d="m -50,264.5 a 2.5,2.5 0 0 1 -2.5,2.5 2.5,2.5 0 0 1 -2.5,-2.5 2.5,2.5 0 0 1 2.5,-2.5 2.5,2.5 0 0 1 2.5,2.5 z"
         id="path881" />
      <path
         style="opacity:1;fill:none;fill-opacity:1;stroke:#000000;stroke-width:0.2;stroke-linejoin:round;stroke-miterlimit:4;stroke-dasharray:none;stroke-opacity:1;paint-order:markers fill stroke"
         d="m -49.622025,29.413691 a 2.5,2.5 0 0 1 -2.5,2.5 2.5,2.5 0 0 1 -2.5,-2.5 2.5,2.5 0 0 1 2.5,-2.5 2.5,2.5 0 0 1 2.5,2.5 z"
         id="path883" />
      <path
         style="opacity:1;fill:none;fill-opacity:1;stroke:#000000;stroke-width:0.2;stroke-linejoin:round;stroke-miterlimit:4;stroke-dasharray:none;stroke-opacity:1;paint-order:markers fill stroke"
         d="m -204.62202,29.413691 a 2.5,2.5 0 0 1 -2.5,2.5 2.5,2.5 0 0 1 -2.5,-2.5 2.5,2.5 0 0 1 2.5,-2.5 2.5,2.5 0 0 1 2.5,2.5 z"
         id="path885" />
    </g>
    <g
       aria-label="100% ELEKTRISCH"
       id="text1606"
       style="font-style:normal;font-variant:normal;font-weight:500;font-stretch:normal;font-size:20.4341px;line-height:1;font-family:Gotham;-inkscape-font-specification:'Gotham Medium';text-align:center;text-anchor:middle;stroke-width:0.510852">
      <g
         style="font-style:normal;font-variant:normal;font-weight:normal;font-stretch:normal;font-size:23.1272px;line-height:1.05;font-family:'Gotham Black';-inkscape-font-specification:'Gotham Black, ';stroke-width:0.223152"
         id="text870"
         aria-label="PARKPLATZ">
        <path
           id="path901"
           style="font-style:normal;font-variant:normal;font-weight:bold;font-stretch:normal;font-size:23.1272px;font-family:Gotham;-inkscape-font-specification:'Gotham Bold';stroke-width:0.223152"
           d="m 52.570394,263.97798 v -0.0462 c 0,-3.30719 -2.335848,-5.59678 -6.19809,-5.59678 h -6.614379 v 16.18904 h 3.561589 v -4.85672 h 2.705882 c 3.63097,0 6.544998,-1.94268 6.544998,-5.68929 z m -3.607844,0.0694 c 0,1.38763 -1.040724,2.45148 -2.821518,2.45148 h -2.821518 v -4.94922 h 2.752137 c 1.780794,0 2.890899,0.8557 2.890899,2.45148 z" />
        <path
           id="path903"
           style="font-style:normal;font-variant:normal;font-weight:bold;font-stretch:normal;font-size:23.1272px;font-family:Gotham;-inkscape-font-specification:'Gotham Bold';stroke-width:0.223152"
           d="m 69.35279,274.52399 -6.93816,-16.30468 h -3.284062 l -6.93816,16.30468 h 3.63097 l 1.480141,-3.63097 h 6.845651 l 1.480141,3.63097 z m -6.475616,-6.77627 h -4.301659 l 2.15083,-5.24988 z" />
        <path
           id="path905"
           style="font-style:normal;font-variant:normal;font-weight:bold;font-stretch:normal;font-size:23.1272px;font-family:Gotham;-inkscape-font-specification:'Gotham Bold';stroke-width:0.223152"
           d="m 85.820804,274.52399 -3.954752,-5.7818 c 2.058321,-0.7632 3.46908,-2.40523 3.46908,-5.01861 v -0.0463 c 0,-3.33032 -2.289592,-5.34238 -6.10558,-5.34238 h -7.400704 v 16.18904 h 3.561589 v -5.1805 h 2.798391 l 3.46908,5.1805 z M 81.727289,263.9086 c 0,1.36451 -0.994469,2.2896 -2.729009,2.2896 h -3.607843 v -4.64857 h 3.538461 c 1.73454,0 2.798391,0.78632 2.798391,2.31272 z" />
        <path
           id="path907"
           style="font-style:normal;font-variant:normal;font-weight:bold;font-stretch:normal;font-size:23.1272px;font-family:Gotham;-inkscape-font-specification:'Gotham Bold';stroke-width:0.223152"
           d="m 103.27389,274.52399 -6.891909,-9.32026 6.591249,-6.86878 h -4.301656 l -6.568125,7.07692 v -7.07692 h -3.561588 v 16.18904 h 3.561588 v -4.94922 l 1.873304,-1.94269 5.018602,6.89191 z" />
        <path
           id="path909"
           style="font-style:normal;font-variant:normal;font-weight:bold;font-stretch:normal;font-size:23.1272px;font-family:Gotham;-inkscape-font-specification:'Gotham Bold';stroke-width:0.223152"
           d="m 118.24802,263.97798 v -0.0462 c 0,-3.30719 -2.33585,-5.59678 -6.19809,-5.59678 h -6.61438 v 16.18904 h 3.56159 v -4.85672 h 2.70588 c 3.63097,0 6.545,-1.94268 6.545,-5.68929 z m -3.60784,0.0694 c 0,1.38763 -1.04073,2.45148 -2.82152,2.45148 h -2.82152 v -4.94922 h 2.75214 c 1.78079,0 2.8909,0.8557 2.8909,2.45148 z" />
        <path
           id="path911"
           style="font-style:normal;font-variant:normal;font-weight:bold;font-stretch:normal;font-size:23.1272px;font-family:Gotham;-inkscape-font-specification:'Gotham Bold';stroke-width:0.223152"
           d="m 132.51678,274.52399 v -3.23781 h -8.07139 v -12.95123 h -3.56159 v 16.18904 z" />
        <path
           id="path913"
           style="font-style:normal;font-variant:normal;font-weight:bold;font-stretch:normal;font-size:23.1272px;font-family:Gotham;-inkscape-font-specification:'Gotham Bold';stroke-width:0.223152"
           d="m 150.97555,274.52399 -6.93816,-16.30468 h -3.28407 l -6.93816,16.30468 h 3.63097 l 1.48014,-3.63097 h 6.84566 l 1.48014,3.63097 z m -6.47562,-6.77627 h -4.30166 l 2.15083,-5.24988 z" />
        <path
           id="path915"
           style="font-style:normal;font-variant:normal;font-weight:bold;font-stretch:normal;font-size:23.1272px;font-family:Gotham;-inkscape-font-specification:'Gotham Bold';stroke-width:0.223152"
           d="m 163.63118,261.61901 v -3.28406 H 150.2174 v 3.28406 h 4.9261 v 12.90498 h 3.56158 v -12.90498 z" />
        <path
           id="path917"
           style="font-style:normal;font-variant:normal;font-weight:bold;font-stretch:normal;font-size:23.1272px;font-family:Gotham;-inkscape-font-specification:'Gotham Bold';stroke-width:0.223152"
           d="m 179.14194,274.52399 v -3.12218 h -8.90397 l 8.90397,-10.36098 v -2.70588 h -13.20563 v 3.12217 h 8.62644 l -8.90397,10.36098 v 2.70589 z" />
      </g>
      <g
         style="font-style:normal;font-variant:normal;font-weight:normal;font-stretch:normal;font-size:23.3015px;line-height:1.05;font-family:'Gotham Black';-inkscape-font-specification:'Gotham Black, ';text-align:center;text-anchor:middle;stroke-width:0.297592"
         id="text870-2"
         aria-label="EE-ER 1E">
        <path
           id="path920"
           style="font-style:normal;font-variant:normal;font-weight:bold;font-stretch:normal;font-size:23.1272px;font-family:Gotham;-inkscape-font-specification:'Gotham Bold';stroke-width:0.297592"
           d="m 70.939889,251.41788 v -3.16843 h -8.788335 v -3.3997 h 7.631975 v -3.16842 h -7.631975 v -3.28407 h 8.672699 v -3.16842 H 58.613092 v 16.18904 z" />
        <path
           id="path922"
           style="font-style:normal;font-variant:normal;font-weight:bold;font-stretch:normal;font-size:23.1272px;font-family:Gotham;-inkscape-font-specification:'Gotham Bold';stroke-width:0.297592"
           d="m 86.433306,251.41788 v -3.16843 H 77.64497 v -3.3997 h 7.631976 v -3.16842 H 77.64497 v -3.28407 h 8.6727 v -3.16842 H 74.106509 v 16.18904 z" />
        <path
           id="path924"
           style="font-style:normal;font-variant:normal;font-weight:bold;font-stretch:normal;font-size:23.1272px;font-family:Gotham;-inkscape-font-specification:'Gotham Bold';stroke-width:0.297592"
           d="m 95.936778,245.93673 v -3.37657 h -7.123177 v 3.37657 z" />
        <path
           id="path926"
           style="font-style:normal;font-variant:normal;font-weight:bold;font-stretch:normal;font-size:23.1272px;font-family:Gotham;-inkscape-font-specification:'Gotham Bold';stroke-width:0.297592"
           d="m 111.36732,251.41788 v -3.16843 h -8.78834 v -3.3997 h 7.63198 v -3.16842 h -7.63198 v -3.28407 h 8.6727 v -3.16842 H 99.040521 v 16.18904 z" />
        <path
           id="path928"
           style="font-style:normal;font-variant:normal;font-weight:bold;font-stretch:normal;font-size:23.1272px;font-family:Gotham;-inkscape-font-specification:'Gotham Bold';stroke-width:0.297592"
           d="m 128.52589,251.41788 -3.95475,-5.7818 c 2.05832,-0.7632 3.46908,-2.40523 3.46908,-5.0186 v -0.0463 c 0,-3.33032 -2.28959,-5.34238 -6.10558,-5.34238 h -7.4007 v 16.18904 h 3.56159 v -5.1805 h 2.79839 l 3.46908,5.1805 z m -4.09351,-10.61539 c 0,1.36451 -0.99447,2.2896 -2.72901,2.2896 h -3.60784 v -4.64857 h 3.53846 c 1.73454,0 2.79839,0.78632 2.79839,2.31272 z" />
        <path
           id="path930"
           style="font-style:normal;font-variant:normal;font-weight:bold;font-stretch:normal;font-size:23.1272px;font-family:Gotham;-inkscape-font-specification:'Gotham Bold';stroke-width:0.297592"
           d="m 136.81555,236.50083 0.74007,2.91403 2.82152,-0.69382 v 12.69684 h 3.51533 V 235.1132 h -2.42835 z" />
        <path
           id="path932"
           style="font-style:normal;font-variant:normal;font-weight:bold;font-stretch:normal;font-size:23.1272px;font-family:Gotham;-inkscape-font-specification:'Gotham Bold';stroke-width:0.297592"
           d="m 160.28677,251.41788 v -3.16843 h -8.78834 v -3.3997 h 7.63198 v -3.16842 h -7.63198 v -3.28407 h 8.6727 v -3.16842 h -12.21116 v 16.18904 z" />
      </g>
    </g>
  </g>
</svg>
