<?xml version="1.0" encoding="UTF-8" standalone="no"?>
<!-- Created with Inkscape (http://www.inkscape.org/) -->

<svg
   width="300mm"
   height="220mm"
   viewBox="0 0 300 220"
   version="1.1"
   id="svg1"
   inkscape:version="1.3.2 (091e20e, 2023-11-25, custom)"
   sodipodi:docname="Celina97.svg"
   xmlns:inkscape="http://www.inkscape.org/namespaces/inkscape"
   xmlns:sodipodi="http://sodipodi.sourceforge.net/DTD/sodipodi-0.dtd"
   xmlns="http://www.w3.org/2000/svg"
   xmlns:svg="http://www.w3.org/2000/svg">
  <sodipodi:namedview
     id="namedview1"
     pagecolor="#ffffff"
     bordercolor="#666666"
     borderopacity="1.0"
     inkscape:showpageshadow="2"
     inkscape:pageopacity="0.0"
     inkscape:pagecheckerboard="0"
     inkscape:deskcolor="#d1d1d1"
     inkscape:document-units="mm"
     showgrid="true"
     inkscape:zoom="0.50377736"
     inkscape:cx="1171.1523"
     inkscape:cy="1082.8196"
     inkscape:window-width="3440"
     inkscape:window-height="1369"
     inkscape:window-x="2552"
     inkscape:window-y="-8"
     inkscape:window-maximized="1"
     inkscape:current-layer="layer1">
    <inkscape:grid
       id="grid1"
       units="mm"
       originx="0"
       originy="0"
       spacingx="0.99999999"
       spacingy="1"
       empcolor="#0099e5"
       empopacity="0.30196078"
       color="#0099e5"
       opacity="0.14901961"
       empspacing="10"
       dotted="false"
       gridanglex="30"
       gridanglez="30"
       visible="true" />
  </sodipodi:namedview>
  <defs
     id="defs1" />
  <g
     inkscape:label="Ebene 1"
     inkscape:groupmode="layer"
     id="layer1">
    <path
       id="rect2020-3-1-6"
       style="fill:#d8dcdd;fill-opacity:1;stroke:#000000;stroke-width:0.537001;stroke-miterlimit:4;stroke-dasharray:none;stroke-opacity:1"
       d="m 28.52384,35.19348 h 239 c 11.08,0 20,8.92 20,20 v 134 c 0,11.08 -8.92,20 -20,20 h -239 c -11.08,0 -20,-8.92 -20,-20 v -134 c 0,-11.08 8.92,-20 20,-20 z" />
    <path
       style="font-size:38.6008px;line-height:1;font-family:'Gotham Black';-inkscape-font-specification:'Gotham Black, ';text-align:center;text-anchor:middle;stroke-width:1.29606"
       d="m 50.381925,88.95291 c 8.337773,0 14.591102,-6.291931 14.591102,-14.050691 v -0.0772 c 0,-7.758761 -6.176128,-13.973489 -14.513901,-13.973489 -8.337772,0 -14.591102,6.29193 -14.591102,14.050691 v 0.0772 c 0,7.758761 6.176128,13.97349 14.513901,13.97349 z m 0.0772,-6.75514 c -4.091684,0 -6.909543,-3.396871 -6.909543,-7.295551 v -0.0772 c 0,-3.898681 2.740657,-7.218349 6.832342,-7.218349 4.130285,0 6.948144,3.39687 6.948144,7.295551 v 0.0772 c 0,3.898681 -2.740657,7.21835 -6.870943,7.21835 z m 28.834805,6.677938 c 6.562136,0 10.924026,-3.281068 10.924026,-8.800982 v -0.0772 c 0,-5.056705 -3.86008,-7.063946 -10.074808,-8.414974 -3.744278,-0.849218 -4.670697,-1.389629 -4.670697,-2.624855 v -0.0772 c 0,-0.96502 0.887818,-1.737036 2.702056,-1.737036 2.393249,0 5.095305,0.926419 7.565757,2.663455 l 3.744277,-5.288309 c -2.933661,-2.354649 -6.523535,-3.589875 -11.11703,-3.589875 -6.484934,0 -10.460817,3.628475 -10.460817,8.646579 v 0.0772 c 0,5.558515 4.439092,7.179749 10.190611,8.492176 3.667076,0.849217 4.554895,1.46683 4.554895,2.586253 v 0.0772 c 0,1.158024 -1.080823,1.852838 -3.088064,1.852838 -3.126665,0 -6.098927,-1.119423 -8.762382,-3.242467 l -4.168886,4.979503 c 3.319669,2.972262 7.874563,4.477693 12.661062,4.477693 z M 92.997232,79.572915 H 105.65829 V 73.126582 H 92.997232 Z m 29.606848,9.379995 c 5.98313,0 9.4186,-2.586254 11.96625,-6.098927 L 128.93461,78.8395 c -1.62123,1.968641 -3.28106,3.281068 -6.09892,3.281068 -3.78288,0 -6.44634,-3.165265 -6.44634,-7.218349 v -0.0772 c 0,-3.937282 2.66346,-7.141148 6.44634,-7.141148 2.58625,0 4.36189,1.235226 5.90592,3.165266 l 5.63572,-4.361891 c -2.39325,-3.319668 -5.94453,-5.635716 -11.46444,-5.635716 -8.18337,0 -14.2437,6.176128 -14.2437,14.050691 v 0.0772 c 0,8.067567 6.21473,13.97349 13.93489,13.97349 z m 15.1701,-0.540412 h 20.57423 V 81.850363 H 145.26273 V 61.391939 h -7.48855 z m 38.36919,0 h 7.37275 V 61.198935 h -5.44271 l -7.91317,2.238846 1.42823,5.79012 4.5549,-1.042221 z m 21.46207,0.540412 c 8.10617,0 12.50666,-6.021725 12.50666,-14.861308 v -0.0772 c 0,-4.979503 -1.27383,-8.067567 -3.24247,-9.997607 -2.04584,-2.045842 -4.36189,-3.165265 -8.29917,-3.165265 -6.17613,0 -10.76962,3.86008 -10.76962,9.843203 v 0.0772 c 0,5.28831 3.82147,8.530777 9.07118,8.530777 2.39325,0 4.32329,-0.887819 5.71292,-2.200246 -0.34741,3.474072 -2.00724,5.635717 -5.0953,5.635717 -2.16165,0 -3.93729,-0.694814 -5.79012,-2.161645 l -3.51268,5.172507 c 2.47045,1.93004 5.40412,3.203867 9.4186,3.203867 z m 1.31243,-15.015711 c -2.35465,0 -3.86008,-1.505432 -3.86008,-3.551274 v -0.0772 c 0,-2.084443 1.42823,-3.628475 3.78287,-3.628475 2.35465,0 3.86008,1.582633 3.86008,3.667076 v 0.0772 c 0,1.968641 -1.42823,3.512673 -3.78287,3.512673 z m 24.31852,15.015711 c 6.02173,0 10.42222,-3.512673 10.42222,-8.993987 v -0.0772 c 0,-4.593495 -3.12667,-6.75514 -6.98675,-7.604358 l 6.44634,-5.519914 v -5.365511 h -19.53201 v 6.060325 h 10.34502 l -6.21473,5.597116 1.08082,3.898681 h 3.16526 c 2.81786,0 4.4005,1.042222 4.4005,2.779258 v 0.0772 c 0,1.659835 -1.35103,2.740657 -3.47408,2.740657 -2.47045,0 -4.51629,-1.119423 -6.44633,-3.088064 l -4.7093,4.709298 c 2.62486,2.895059 6.29193,4.786499 11.50304,4.786499 z m 14.1665,-0.540412 h 21.92525 v -6.369131 h -14.5139 v -4.284689 h 12.96987 v -5.905923 h -12.96987 v -4.091684 h 14.3209 v -6.369132 h -21.73225 z"
       id="text38386-4-63-7"
       aria-label="OS-CL 193E" />
    <g
       id="text38386-4-63-7-7"
       style="font-size:42.9998px;line-height:0.7;font-family:TESLA;-inkscape-font-specification:TESLA;text-align:center;text-anchor:middle;stroke-width:1.29606"
       aria-label="PARKING&#10;ONLY">
      <path
         style="font-size:30.6633px;font-family:'Gotham Black';-inkscape-font-specification:'Gotham Black, '"
         d="m 124.04833,146.58746 h 5.94868 v -6.13266 h 2.94367 c 5.33542,0 9.22966,-2.6677 9.22966,-7.72715 v -0.0613 c 0,-4.75282 -3.49562,-7.54318 -8.92302,-7.54318 h -9.19899 z m 5.94868,-10.79348 v -5.67271 h 2.79036 c 2.14643,0 3.43429,0.98123 3.43429,2.82103 v 0.0613 c 0,1.68648 -1.28786,2.79036 -3.40363,2.79036 z m 10.82416,10.79348 h 6.25532 l 1.53316,-3.83291 h 8.27909 l 1.56383,3.83291 h 6.37797 l -9.13767,-21.61762 h -5.73403 z m 9.53629,-8.46307 2.4224,-6.10199 2.39174,6.10199 z m 16.55818,8.46307 h 5.94868 v -6.50062 h 2.54506 0.0613 l 4.32353,6.50062 h 6.86858 l -5.12077,-7.48184 c 2.66771,-1.13454 4.41551,-3.31164 4.41551,-6.59261 v -0.0613 c 0,-2.11577 -0.64393,-3.77158 -1.90112,-4.99812 -1.44118,-1.47183 -3.71026,-2.33041 -6.99123,-2.33041 h -10.14956 z m 5.94868,-11.16144 v -5.15143 h 3.89424 c 1.99312,0 3.21965,0.85857 3.21965,2.54505 v 0.0613 c 0,1.56383 -1.16521,2.54505 -3.18898,2.54505 z m 16.09823,11.16144 h 5.94868 v -5.55005 l 2.17709,-2.4224 5.39675,7.97245 h 7.14454 l -8.40174,-12.23465 8.12577,-9.22966 h -7.05255 l -7.38986,8.70838 v -8.70838 h -5.94868 z m 22.50685,0 h 5.97934 v -21.46431 h -5.97934 z m 9.90424,0 h 5.88735 v -11.7747 l 9.16833,11.7747 h 5.21276 v -21.46431 h -5.88736 v 11.34542 l -8.83103,-11.34542 h -5.55005 z m 35.01748,0.42929 c 3.89424,0 7.05256,-1.44118 9.32164,-3.31164 v -9.65894 h -9.87358 v 4.35419 h 4.23154 v 2.60638 c -0.88924,0.58261 -1.99312,0.88924 -3.43429,0.88924 -3.40363,0 -5.82603,-2.48373 -5.82603,-5.94868 v -0.0613 c 0,-3.28097 2.39174,-5.88735 5.48873,-5.88735 2.11577,0 3.64893,0.73592 5.1821,2.02378 l 3.49562,-4.20088 c -2.26909,-1.96245 -4.9368,-3.12765 -8.70838,-3.12765 -6.65394,0 -11.56007,4.90613 -11.56007,11.16144 v 0.0613 c 0,6.50061 4.99812,11.10011 11.68272,11.10011 z"
         id="path13" />
      <path
         style="font-size:30.6633px;font-family:'Gotham Black';-inkscape-font-specification:'Gotham Black, '"
         d="m 164.01794,177.31296 c 6.62327,0 11.59072,-4.99812 11.59072,-11.16145 v -0.0613 c 0,-6.16333 -4.90612,-11.10012 -11.5294,-11.10012 -6.62327,0 -11.59072,4.99812 -11.59072,11.16144 v 0.0613 c 0,6.16332 4.90612,11.10012 11.5294,11.10012 z m 0.0613,-5.36608 c -3.25031,0 -5.48873,-2.69837 -5.48873,-5.79537 v -0.0613 c 0,-3.097 2.1771,-5.73404 5.42741,-5.73404 3.28097,0 5.51939,2.69837 5.51939,5.79536 v 0.0613 c 0,3.09699 -2.17709,5.73404 -5.45807,5.73404 z m 14.62638,4.93679 h 5.88735 v -11.77471 l 9.16833,11.77471 h 5.21276 v -21.46431 h -5.88736 v 11.34542 l -8.83103,-11.34542 h -5.55005 z m 24.07068,0 h 16.34354 v -5.21276 H 208.725 v -16.25155 h -5.94868 z m 21.09635,0 h 5.97935 v -8.12578 l 8.15643,-13.33853 h -6.65393 l -4.44618,7.81914 -4.41552,-7.81914 h -6.77659 l 8.15644,13.43052 z"
         id="path14" />
    </g>
    <g
       transform="translate(-1.97616,219.69348)"
       id="g40775-6-4-1-4">
      <path
         id="path38845-5-6-1-0"
         style="stroke-width:1.5"
         d="m 29.999996,-167.5 a 2.5,2.5 0 0 1 -2.5,2.5 2.5,2.5 0 0 1 -2.5,-2.5 2.5,2.5 0 0 1 2.5,-2.5 2.5,2.5 0 0 1 2.5,2.5 z" />
      <path
         id="path38847-0-5-73-7"
         style="stroke-width:1.5"
         d="m 29.999996,-27.499996 a 2.5,2.5 0 0 1 -2.5,2.5 2.5,2.5 0 0 1 -2.5,-2.5 2.5,2.5 0 0 1 2.5,-2.5 2.5,2.5 0 0 1 2.5,2.5 z" />
      <path
         id="path38849-7-1-4-6"
         style="stroke-width:1.5"
         d="m 275,-27.499996 a 2.5,2.5 0 0 1 -2.5,2.5 2.5,2.5 0 0 1 -2.5,-2.5 2.5,2.5 0 0 1 2.5,-2.5 2.5,2.5 0 0 1 2.5,2.5 z" />
      <path
         id="path38851-7-3-3-4"
         style="stroke-width:1.5"
         d="m 275,-167.5 a 2.5,2.5 0 0 1 -2.5,2.5 2.5,2.5 0 0 1 -2.5,-2.5 2.5,2.5 0 0 1 2.5,-2.5 2.5,2.5 0 0 1 2.5,2.5 z" />
    </g>
    <path
       id="rect5886"
       d="M 23.023861,94.773933 H 273.02386 v 5 H 23.023861 Z" />
    <path
       sodipodi:nodetypes="csscccccscsscscssssccsscccsccccsssccscsssccs"
       inkscape:connector-curvature="0"
       id="path2190-1-9-2-5"
       d="m 69.911682,194.95396 c -0.141569,-0.74665 -12.323997,-68.76057 -12.323997,-68.80431 0,-0.0622 -3.598162,0.0288 -5.406759,0.13671 -5.382355,0.32096 -8.150647,1.2635 -9.488631,3.23064 -0.493293,0.72527 -0.699252,1.24241 -0.914561,2.29624 -0.08741,0.42819 -0.174965,0.79449 -0.194466,0.81398 -0.06547,0.0654 -2.302314,-0.99728 -3.423008,-1.62647 -3.352031,-1.88189 -5.983658,-4.06079 -7.773868,-6.43661 -0.263031,-0.34904 -0.478211,-0.66316 -0.478211,-0.69808 0,-0.0351 0.136184,-0.11985 0.302603,-0.18873 0.166454,-0.069 0.883657,-0.378 1.593816,-0.68694 8.136466,-3.5397 18.712631,-6.01391 28.204041,-6.59808 l 0.847308,-0.0521 4.548108,5.54201 c 2.501431,3.04808 4.575737,5.51143 4.60957,5.47412 0.03375,-0.0373 2.064048,-2.50822 4.511591,-5.49084 2.447554,-2.98263 4.487504,-5.44612 4.533186,-5.47436 0.09532,-0.0589 2.130854,0.0722 3.908898,0.2521 7.498265,0.75796 15.02913,2.49307 21.869238,5.03868 1.6143,0.60075 4.211,1.67307 4.88823,2.01853 l 0.31638,0.16141 -0.40811,0.56109 c -1.58602,2.18058 -4.07239,4.32345 -7.15154,6.16353 -0.84682,0.50607 -3.650101,1.91308 -4.032301,2.02388 -0.157737,0.0458 -0.178887,0.0114 -0.231367,-0.37624 -0.0317,-0.23462 -0.14648,-0.73428 -0.25494,-1.11033 -0.853995,-2.96147 -3.377271,-4.27652 -9.144953,-4.76595 -1.255875,-0.10658 -6.478872,-0.24336 -6.544504,-0.17137 -0.03364,0.0369 -10.11634,56.59818 -12.244262,68.68678 l -0.0639,0.36314 z m 40.129908,-74.13917 c -9.63811,-4.06484 -20.588134,-6.65143 -31.512709,-7.44386 -3.509815,-0.2546 -10.801454,-0.33797 -14.332273,-0.16389 -12.23593,0.60331 -23.493218,3.09694 -34.312114,7.60053 -0.745395,0.31026 -1.40163,0.54633 -1.45838,0.52457 -0.05683,-0.0218 -0.523381,-0.8875 -1.036975,-1.92387 -0.961002,-1.93899 -1.408857,-2.94625 -1.340404,-3.01471 0.0701,-0.0701 2.891569,-1.13595 4.545387,-1.71718 15.50398,-5.44885 32.06186,-7.70684 47.733022,-6.50938 11.721114,0.89562 22.767686,3.36808 34.012396,7.61266 0.83718,0.31603 1.53656,0.58897 1.55413,0.60656 0.0919,0.092 -2.15647,4.78557 -2.38429,4.97737 -0.0306,0.0258 -0.69107,-0.22124 -1.46779,-0.5488 z"
       style="fill:#cd0000;fill-opacity:1;stroke-width:0.999997" />
  </g>
</svg>
