  0
SECTION
  2
HEADER
  9
$ACADVER
  1
AC1014
  9
$HANDSEED
  5
FFFF
  9
$INSUNITS
 70
     4
  9
$MEASUREMENT
 70
     1
  0
ENDSEC
  0
SECTION
  2
TABLES
  0
TABLE
  2
VPORT
  5
8
330
0
100
AcDbSymbolTable
 70
     4
  0
VPORT
  5
2E
330
8
100
AcDbSymbolTableRecord
100
AcDbViewportTableRecord
  2
*ACTIVE
 70
     0
 10
0.0
 20
0.0
 11
1.0
 21
1.0
 12
210.0
 22
148.5
 13
0.0
 23
0.0
 14
10.0
 24
10.0
 15
10.0
 25
10.0
 16
0.0
 26
0.0
 36
1.0
 17
0.0
 27
0.0
 37
0.0
 40
341.0
 41
1.24
 42
50.0
 43
0.0
 44
0.0
 50
0.0
 51
0.0
 71
     0
 72
   100
 73
     1
 74
     3
 75
     0
 76
     0
 77
     0
 78
     0
  0
ENDTAB
  0
TABLE
  2
LTYPE
  5
5
330
0
100
AcDbSymbolTable
 70
     1
  0
LTYPE
  5
14
330
5
100
AcDbSymbolTableRecord
100
AcDbLinetypeTableRecord
  2
BYBLOCK
 70
     0
  3

 72
    65
 73
     0
 40
0.0
  0
LTYPE
  5
15
330
5
100
AcDbSymbolTableRecord
100
AcDbLinetypeTableRecord
  2
BYLAYER
 70
     0
  3

 72
    65
 73
     0
 40
0.0
  0
LTYPE
  5
16
330
5
100
AcDbSymbolTableRecord
100
AcDbLinetypeTableRecord
  2
CONTINUOUS
 70
     0
  3
Solid line
 72
    65
 73
     0
 40
0.0
  0
ENDTAB
  0
TABLE
  2
LAYER
  5
2
100
AcDbSymbolTable
 70
2
  0
LAYER
  5
50
100
AcDbSymbolTableRecord
100
AcDbLayerTableRecord
  2
0
 70
0
  6
CONTINUOUS
  0
LAYER
  5
51
100
AcDbSymbolTableRecord
100
AcDbLayerTableRecord
  2
Ebene_1
 70
0
  6
CONTINUOUS
  0
ENDTAB
  0
TABLE
  2
STYLE
  5
3
330
0
100
AcDbSymbolTable
 70
     1
  0
STYLE
  5
11
330
3
100
AcDbSymbolTableRecord
100
AcDbTextStyleTableRecord
  2
STANDARD
 70
     0
 40
0.0
 41
1.0
 50
0.0
 71
     0
 42
2.5
  3
txt
  4

  0
ENDTAB
  0
TABLE
  2
VIEW
  5
6
330
0
100
AcDbSymbolTable
 70
     0
  0
ENDTAB
  0
TABLE
  2
UCS
  5
7
330
0
100
AcDbSymbolTable
 70
     0
  0
ENDTAB
  0
TABLE
  2
APPID
  5
9
330
0
100
AcDbSymbolTable
 70
     2
  0
APPID
  5
12
330
9
100
AcDbSymbolTableRecord
100
AcDbRegAppTableRecord
  2
ACAD
 70
     0
  0
ENDTAB
  0
TABLE
  2
DIMSTYLE
  5
A
330
0
100
AcDbSymbolTable
 70
     1
  0
DIMSTYLE
105
27
330
A
100
AcDbSymbolTableRecord
100
AcDbDimStyleTableRecord
  2
ISO-25
 70
     0
  3

  4

  5

  6

  7

 40
1.0
 41
2.5
 42
0.625
 43
3.75
 44
1.25
 45
0.0
 46
0.0
 47
0.0
 48
0.0
140
2.5
141
2.5
142
0.0
143
0.03937007874016
144
1.0
145
0.0
146
1.0
147
0.625
 71
     0
 72
     0
 73
     0
 74
     0
 75
     0
 76
     0
 77
     1
 78
     8
170
     0
171
     3
172
     1
173
     0
174
     0
175
     0
176
     0
177
     0
178
     0
270
     2
271
     2
272
     2
273
     2
274
     3
340
11
275
     0
280
     0
281
     0
282
     0
283
     0
284
     8
285
     0
286
     0
287
     3
288
     0
  0
ENDTAB
  0
TABLE
  2
BLOCK_RECORD
  5
1
330
0
100
AcDbSymbolTable
 70
     1
  0
BLOCK_RECORD
  5
1F
330
1
100
AcDbSymbolTableRecord
100
AcDbBlockTableRecord
  2
*MODEL_SPACE
  0
BLOCK_RECORD
  5
1B
330
1
100
AcDbSymbolTableRecord
100
AcDbBlockTableRecord
  2
*PAPER_SPACE
  0
ENDTAB
  0
ENDSEC
  0
SECTION
  2
BLOCKS
  0
BLOCK
  5
20
330
1F
100
AcDbEntity
  8
0
100
AcDbBlockBegin
  2
*MODEL_SPACE
 70
     0
 10
0.0
 20
0.0
 30
0.0
  3
*MODEL_SPACE
  1

  0
ENDBLK
  5
21
330
1F
100
AcDbEntity
  8
0
100
AcDbBlockEnd
  0
BLOCK
  5
1C
330
1B
100
AcDbEntity
 67
     1
  8
0
100
AcDbBlockBegin
  2
*PAPER_SPACE
  1

  0
ENDBLK
  5
1D
330
1B
100
AcDbEntity
 67
     1
  8
0
100
AcDbBlockEnd
  0
ENDSEC
  0
SECTION
  2
ENTITIES
  0
SPLINE
  5
100
100
AcDbEntity
  8
Ebene_1
 62
7
100
AcDbSpline
 70
8
 71
3
 72
8
 73
4
 74
0
 40
0
 40
0
 40
0
 40
0
 40
1
 40
1
 40
1
 40
1
 10
267.523840
 20
184.806520
 30
0.0
 10
278.603840
 20
184.806520
 30
0.0
 10
287.523840
 20
175.886520
 30
0.0
 10
287.523840
 20
164.806520
 30
0.0
  0
LWPOLYLINE
  5
101
100
AcDbEntity
  8
Ebene_1
 62
7
100
AcDbPolyline
 90
2
 70
0
 10
28.523840
 20
184.806520
 30
0.0
 10
267.523840
 20
184.806520
 30
0.0
  0
SPLINE
  5
102
100
AcDbEntity
  8
Ebene_1
 62
7
100
AcDbSpline
 70
8
 71
3
 72
8
 73
4
 74
0
 40
0
 40
0
 40
0
 40
0
 40
1
 40
1
 40
1
 40
1
 10
287.523840
 20
30.806520
 30
0.0
 10
287.523840
 20
19.726520
 30
0.0
 10
278.603840
 20
10.806520
 30
0.0
 10
267.523840
 20
10.806520
 30
0.0
  0
LWPOLYLINE
  5
103
100
AcDbEntity
  8
Ebene_1
 62
7
100
AcDbPolyline
 90
2
 70
0
 10
287.523840
 20
164.806520
 30
0.0
 10
287.523840
 20
30.806520
 30
0.0
  0
SPLINE
  5
104
100
AcDbEntity
  8
Ebene_1
 62
7
100
AcDbSpline
 70
8
 71
3
 72
8
 73
4
 74
0
 40
0
 40
0
 40
0
 40
0
 40
1
 40
1
 40
1
 40
1
 10
28.523840
 20
10.806520
 30
0.0
 10
17.443840
 20
10.806520
 30
0.0
 10
8.523840
 20
19.726520
 30
0.0
 10
8.523840
 20
30.806520
 30
0.0
  0
LWPOLYLINE
  5
105
100
AcDbEntity
  8
Ebene_1
 62
7
100
AcDbPolyline
 90
2
 70
0
 10
267.523840
 20
10.806520
 30
0.0
 10
28.523840
 20
10.806520
 30
0.0
  0
SPLINE
  5
106
100
AcDbEntity
  8
Ebene_1
 62
7
100
AcDbSpline
 70
8
 71
3
 72
8
 73
4
 74
0
 40
0
 40
0
 40
0
 40
0
 40
1
 40
1
 40
1
 40
1
 10
8.523840
 20
164.806520
 30
0.0
 10
8.523840
 20
175.886520
 30
0.0
 10
17.443840
 20
184.806520
 30
0.0
 10
28.523840
 20
184.806520
 30
0.0
  0
LWPOLYLINE
  5
107
100
AcDbEntity
  8
Ebene_1
 62
7
100
AcDbPolyline
 90
2
 70
0
 10
8.523840
 20
30.806520
 30
0.0
 10
8.523840
 20
164.806520
 30
0.0
  0
SPLINE
  5
108
100
AcDbEntity
  8
Ebene_1
 62
7
100
AcDbSpline
 70
8
 71
3
 72
8
 73
4
 74
0
 40
0
 40
0
 40
0
 40
0
 40
1
 40
1
 40
1
 40
1
 10
50.381925
 20
131.047090
 30
0.0
 10
58.719698
 20
131.047090
 30
0.0
 10
64.973027
 20
137.339021
 30
0.0
 10
64.973027
 20
145.097781
 30
0.0
  0
LWPOLYLINE
  5
109
100
AcDbEntity
  8
Ebene_1
 62
7
100
AcDbPolyline
 90
1
 70
1
 10
28.523840
 20
184.806520
 30
0.0
  0
SPLINE
  5
10a
100
AcDbEntity
  8
Ebene_1
 62
7
100
AcDbSpline
 70
8
 71
3
 72
8
 73
4
 74
0
 40
0
 40
0
 40
0
 40
0
 40
1
 40
1
 40
1
 40
1
 10
64.973027
 20
145.174981
 30
0.0
 10
64.973027
 20
152.933742
 30
0.0
 10
58.796899
 20
159.148470
 30
0.0
 10
50.459126
 20
159.148470
 30
0.0
  0
SPLINE
  5
10b
100
AcDbEntity
  8
Ebene_1
 62
7
100
AcDbSpline
 70
8
 71
3
 72
8
 73
4
 74
0
 40
0
 40
0
 40
0
 40
0
 40
1
 40
1
 40
1
 40
1
 10
50.459126
 20
159.148470
 30
0.0
 10
42.121354
 20
159.148470
 30
0.0
 10
35.868024
 20
152.856540
 30
0.0
 10
35.868024
 20
145.097779
 30
0.0
  0
LWPOLYLINE
  5
10c
100
AcDbEntity
  8
Ebene_1
 62
7
100
AcDbPolyline
 90
2
 70
0
 10
64.973027
 20
145.097781
 30
0.0
 10
64.973027
 20
145.174981
 30
0.0
  0
SPLINE
  5
10d
100
AcDbEntity
  8
Ebene_1
 62
7
100
AcDbSpline
 70
8
 71
3
 72
8
 73
4
 74
0
 40
0
 40
0
 40
0
 40
0
 40
1
 40
1
 40
1
 40
1
 10
35.868024
 20
145.020579
 30
0.0
 10
35.868024
 20
137.261818
 30
0.0
 10
42.044152
 20
131.047089
 30
0.0
 10
50.381925
 20
131.047089
 30
0.0
  0
LWPOLYLINE
  5
10e
100
AcDbEntity
  8
Ebene_1
 62
7
100
AcDbPolyline
 90
2
 70
0
 10
35.868024
 20
145.097779
 30
0.0
 10
35.868024
 20
145.020579
 30
0.0
  0
SPLINE
  5
10f
100
AcDbEntity
  8
Ebene_1
 62
7
100
AcDbSpline
 70
8
 71
3
 72
8
 73
4
 74
0
 40
0
 40
0
 40
0
 40
0
 40
1
 40
1
 40
1
 40
1
 10
50.459125
 20
137.802230
 30
0.0
 10
46.367441
 20
137.802230
 30
0.0
 10
43.549582
 20
141.199101
 30
0.0
 10
43.549582
 20
145.097781
 30
0.0
  0
LWPOLYLINE
  5
110
100
AcDbEntity
  8
Ebene_1
 62
7
100
AcDbPolyline
 90
1
 70
1
 10
50.381925
 20
131.047089
 30
0.0
  0
SPLINE
  5
111
100
AcDbEntity
  8
Ebene_1
 62
7
100
AcDbSpline
 70
8
 71
3
 72
8
 73
4
 74
0
 40
0
 40
0
 40
0
 40
0
 40
1
 40
1
 40
1
 40
1
 10
43.549582
 20
145.174981
 30
0.0
 10
43.549582
 20
149.073662
 30
0.0
 10
46.290239
 20
152.393330
 30
0.0
 10
50.381924
 20
152.393330
 30
0.0
  0
SPLINE
  5
112
100
AcDbEntity
  8
Ebene_1
 62
7
100
AcDbSpline
 70
8
 71
3
 72
8
 73
4
 74
0
 40
0
 40
0
 40
0
 40
0
 40
1
 40
1
 40
1
 40
1
 10
50.381924
 20
152.393330
 30
0.0
 10
54.512209
 20
152.393330
 30
0.0
 10
57.330068
 20
148.996460
 30
0.0
 10
57.330068
 20
145.097779
 30
0.0
  0
LWPOLYLINE
  5
113
100
AcDbEntity
  8
Ebene_1
 62
7
100
AcDbPolyline
 90
2
 70
0
 10
43.549582
 20
145.097781
 30
0.0
 10
43.549582
 20
145.174981
 30
0.0
  0
SPLINE
  5
114
100
AcDbEntity
  8
Ebene_1
 62
7
100
AcDbSpline
 70
8
 71
3
 72
8
 73
4
 74
0
 40
0
 40
0
 40
0
 40
0
 40
1
 40
1
 40
1
 40
1
 10
57.330068
 20
145.020579
 30
0.0
 10
57.330068
 20
141.121898
 30
0.0
 10
54.589411
 20
137.802229
 30
0.0
 10
50.459125
 20
137.802229
 30
0.0
  0
LWPOLYLINE
  5
115
100
AcDbEntity
  8
Ebene_1
 62
7
100
AcDbPolyline
 90
2
 70
0
 10
57.330068
 20
145.097779
 30
0.0
 10
57.330068
 20
145.020579
 30
0.0
  0
SPLINE
  5
116
100
AcDbEntity
  8
Ebene_1
 62
7
100
AcDbSpline
 70
8
 71
3
 72
8
 73
4
 74
0
 40
0
 40
0
 40
0
 40
0
 40
1
 40
1
 40
1
 40
1
 10
79.293930
 20
131.124292
 30
0.0
 10
85.856066
 20
131.124292
 30
0.0
 10
90.217956
 20
134.405360
 30
0.0
 10
90.217956
 20
139.925274
 30
0.0
  0
LWPOLYLINE
  5
117
100
AcDbEntity
  8
Ebene_1
 62
7
100
AcDbPolyline
 90
1
 70
1
 10
50.459125
 20
137.802229
 30
0.0
  0
SPLINE
  5
118
100
AcDbEntity
  8
Ebene_1
 62
7
100
AcDbSpline
 70
8
 71
3
 72
8
 73
4
 74
0
 40
0
 40
0
 40
0
 40
0
 40
1
 40
1
 40
1
 40
1
 10
90.217956
 20
140.002474
 30
0.0
 10
90.217956
 20
145.059179
 30
0.0
 10
86.357876
 20
147.066420
 30
0.0
 10
80.143148
 20
148.417448
 30
0.0
  0
SPLINE
  5
119
100
AcDbEntity
  8
Ebene_1
 62
7
100
AcDbSpline
 70
8
 71
3
 72
8
 73
4
 74
0
 40
0
 40
0
 40
0
 40
0
 40
1
 40
1
 40
1
 40
1
 10
80.143148
 20
148.417448
 30
0.0
 10
76.398870
 20
149.266666
 30
0.0
 10
75.472451
 20
149.807077
 30
0.0
 10
75.472451
 20
151.042303
 30
0.0
  0
LWPOLYLINE
  5
11a
100
AcDbEntity
  8
Ebene_1
 62
7
100
AcDbPolyline
 90
2
 70
0
 10
90.217956
 20
139.925274
 30
0.0
 10
90.217956
 20
140.002474
 30
0.0
  0
SPLINE
  5
11b
100
AcDbEntity
  8
Ebene_1
 62
7
100
AcDbSpline
 70
8
 71
3
 72
8
 73
4
 74
0
 40
0
 40
0
 40
0
 40
0
 40
1
 40
1
 40
1
 40
1
 10
75.472451
 20
151.119503
 30
0.0
 10
75.472451
 20
152.084523
 30
0.0
 10
76.360269
 20
152.856539
 30
0.0
 10
78.174507
 20
152.856539
 30
0.0
  0
SPLINE
  5
11c
100
AcDbEntity
  8
Ebene_1
 62
7
100
AcDbSpline
 70
8
 71
3
 72
8
 73
4
 74
0
 40
0
 40
0
 40
0
 40
0
 40
1
 40
1
 40
1
 40
1
 10
78.174507
 20
152.856539
 30
0.0
 10
80.567756
 20
152.856539
 30
0.0
 10
83.269812
 20
151.930120
 30
0.0
 10
85.740264
 20
150.193084
 30
0.0
  0
LWPOLYLINE
  5
11d
100
AcDbEntity
  8
Ebene_1
 62
7
100
AcDbPolyline
 90
2
 70
0
 10
75.472451
 20
151.042303
 30
0.0
 10
75.472451
 20
151.119503
 30
0.0
  0
SPLINE
  5
11e
100
AcDbEntity
  8
Ebene_1
 62
7
100
AcDbSpline
 70
8
 71
3
 72
8
 73
4
 74
0
 40
0
 40
0
 40
0
 40
0
 40
1
 40
1
 40
1
 40
1
 10
89.484541
 20
155.481393
 30
0.0
 10
86.550880
 20
157.836042
 30
0.0
 10
82.961006
 20
159.071268
 30
0.0
 10
78.367511
 20
159.071268
 30
0.0
  0
SPLINE
  5
11f
100
AcDbEntity
  8
Ebene_1
 62
7
100
AcDbSpline
 70
8
 71
3
 72
8
 73
4
 74
0
 40
0
 40
0
 40
0
 40
0
 40
1
 40
1
 40
1
 40
1
 10
78.367511
 20
159.071268
 30
0.0
 10
71.882577
 20
159.071268
 30
0.0
 10
67.906694
 20
155.442793
 30
0.0
 10
67.906694
 20
150.424689
 30
0.0
  0
LWPOLYLINE
  5
120
100
AcDbEntity
  8
Ebene_1
 62
7
100
AcDbPolyline
 90
2
 70
0
 10
85.740264
 20
150.193084
 30
0.0
 10
89.484541
 20
155.481393
 30
0.0
  0
SPLINE
  5
121
100
AcDbEntity
  8
Ebene_1
 62
7
100
AcDbSpline
 70
8
 71
3
 72
8
 73
4
 74
0
 40
0
 40
0
 40
0
 40
0
 40
1
 40
1
 40
1
 40
1
 10
67.906694
 20
150.347489
 30
0.0
 10
67.906694
 20
144.788974
 30
0.0
 10
72.345786
 20
143.167740
 30
0.0
 10
78.097305
 20
141.855313
 30
0.0
  0
SPLINE
  5
122
100
AcDbEntity
  8
Ebene_1
 62
7
100
AcDbSpline
 70
8
 71
3
 72
8
 73
4
 74
0
 40
0
 40
0
 40
0
 40
0
 40
1
 40
1
 40
1
 40
1
 10
78.097305
 20
141.855313
 30
0.0
 10
81.764381
 20
141.006096
 30
0.0
 10
82.652200
 20
140.388483
 30
0.0
 10
82.652200
 20
139.269060
 30
0.0
  0
LWPOLYLINE
  5
123
100
AcDbEntity
  8
Ebene_1
 62
7
100
AcDbPolyline
 90
2
 70
0
 10
67.906694
 20
150.424689
 30
0.0
 10
67.906694
 20
150.347489
 30
0.0
  0
SPLINE
  5
124
100
AcDbEntity
  8
Ebene_1
 62
7
100
AcDbSpline
 70
8
 71
3
 72
8
 73
4
 74
0
 40
0
 40
0
 40
0
 40
0
 40
1
 40
1
 40
1
 40
1
 10
82.652200
 20
139.191860
 30
0.0
 10
82.652200
 20
138.033836
 30
0.0
 10
81.571377
 20
137.339022
 30
0.0
 10
79.564136
 20
137.339022
 30
0.0
  0
SPLINE
  5
125
100
AcDbEntity
  8
Ebene_1
 62
7
100
AcDbSpline
 70
8
 71
3
 72
8
 73
4
 74
0
 40
0
 40
0
 40
0
 40
0
 40
1
 40
1
 40
1
 40
1
 10
79.564136
 20
137.339022
 30
0.0
 10
76.437471
 20
137.339022
 30
0.0
 10
73.465209
 20
138.458445
 30
0.0
 10
70.801754
 20
140.581489
 30
0.0
  0
LWPOLYLINE
  5
126
100
AcDbEntity
  8
Ebene_1
 62
7
100
AcDbPolyline
 90
2
 70
0
 10
82.652200
 20
139.269060
 30
0.0
 10
82.652200
 20
139.191860
 30
0.0
  0
SPLINE
  5
127
100
AcDbEntity
  8
Ebene_1
 62
7
100
AcDbSpline
 70
8
 71
3
 72
8
 73
4
 74
0
 40
0
 40
0
 40
0
 40
0
 40
1
 40
1
 40
1
 40
1
 10
66.632868
 20
135.601986
 30
0.0
 10
69.952537
 20
132.629724
 30
0.0
 10
74.507431
 20
131.124293
 30
0.0
 10
79.293930
 20
131.124293
 30
0.0
  0
LWPOLYLINE
  5
128
100
AcDbEntity
  8
Ebene_1
 62
7
100
AcDbPolyline
 90
2
 70
0
 10
70.801754
 20
140.581489
 30
0.0
 10
66.632868
 20
135.601986
 30
0.0
  0
LWPOLYLINE
  5
129
100
AcDbEntity
  8
Ebene_1
 62
7
100
AcDbPolyline
 90
1
 70
1
 10
79.293930
 20
131.124293
 30
0.0
  0
SPLINE
  5
12a
100
AcDbEntity
  8
Ebene_1
 62
7
100
AcDbSpline
 70
8
 71
3
 72
8
 73
4
 74
0
 40
0
 40
0
 40
0
 40
0
 40
1
 40
1
 40
1
 40
1
 10
122.604080
 20
131.047090
 30
0.0
 10
128.587210
 20
131.047090
 30
0.0
 10
132.022680
 20
133.633344
 30
0.0
 10
134.570330
 20
137.146017
 30
0.0
  0
LWPOLYLINE
  5
12b
100
AcDbEntity
  8
Ebene_1
 62
7
100
AcDbPolyline
 90
4
 70
1
 10
92.997232
 20
140.427085
 30
0.0
 10
105.658290
 20
140.427085
 30
0.0
 10
105.658290
 20
146.873418
 30
0.0
 10
92.997232
 20
146.873418
 30
0.0
  0
SPLINE
  5
12c
100
AcDbEntity
  8
Ebene_1
 62
7
100
AcDbSpline
 70
8
 71
3
 72
8
 73
4
 74
0
 40
0
 40
0
 40
0
 40
0
 40
1
 40
1
 40
1
 40
1
 10
128.934610
 20
141.160500
 30
0.0
 10
127.313380
 20
139.191859
 30
0.0
 10
125.653550
 20
137.879432
 30
0.0
 10
122.835690
 20
137.879432
 30
0.0
  0
SPLINE
  5
12d
100
AcDbEntity
  8
Ebene_1
 62
7
100
AcDbSpline
 70
8
 71
3
 72
8
 73
4
 74
0
 40
0
 40
0
 40
0
 40
0
 40
1
 40
1
 40
1
 40
1
 10
122.835690
 20
137.879432
 30
0.0
 10
119.052810
 20
137.879432
 30
0.0
 10
116.389350
 20
141.044697
 30
0.0
 10
116.389350
 20
145.097781
 30
0.0
  0
LWPOLYLINE
  5
12e
100
AcDbEntity
  8
Ebene_1
 62
7
100
AcDbPolyline
 90
2
 70
0
 10
134.570330
 20
137.146017
 30
0.0
 10
128.934610
 20
141.160500
 30
0.0
  0
SPLINE
  5
12f
100
AcDbEntity
  8
Ebene_1
 62
7
100
AcDbSpline
 70
8
 71
3
 72
8
 73
4
 74
0
 40
0
 40
0
 40
0
 40
0
 40
1
 40
1
 40
1
 40
1
 10
116.389350
 20
145.174981
 30
0.0
 10
116.389350
 20
149.112263
 30
0.0
 10
119.052810
 20
152.316129
 30
0.0
 10
122.835690
 20
152.316129
 30
0.0
  0
SPLINE
  5
130
100
AcDbEntity
  8
Ebene_1
 62
7
100
AcDbSpline
 70
8
 71
3
 72
8
 73
4
 74
0
 40
0
 40
0
 40
0
 40
0
 40
1
 40
1
 40
1
 40
1
 10
122.835690
 20
152.316129
 30
0.0
 10
125.421940
 20
152.316129
 30
0.0
 10
127.197580
 20
151.080903
 30
0.0
 10
128.741610
 20
149.150863
 30
0.0
  0
LWPOLYLINE
  5
131
100
AcDbEntity
  8
Ebene_1
 62
7
100
AcDbPolyline
 90
2
 70
0
 10
116.389350
 20
145.097781
 30
0.0
 10
116.389350
 20
145.174981
 30
0.0
  0
SPLINE
  5
132
100
AcDbEntity
  8
Ebene_1
 62
7
100
AcDbSpline
 70
8
 71
3
 72
8
 73
4
 74
0
 40
0
 40
0
 40
0
 40
0
 40
1
 40
1
 40
1
 40
1
 10
134.377330
 20
153.512754
 30
0.0
 10
131.984080
 20
156.832422
 30
0.0
 10
128.432800
 20
159.148470
 30
0.0
 10
122.912890
 20
159.148470
 30
0.0
  0
SPLINE
  5
133
100
AcDbEntity
  8
Ebene_1
 62
7
100
AcDbSpline
 70
8
 71
3
 72
8
 73
4
 74
0
 40
0
 40
0
 40
0
 40
0
 40
1
 40
1
 40
1
 40
1
 10
122.912890
 20
159.148470
 30
0.0
 10
114.729520
 20
159.148470
 30
0.0
 10
108.669190
 20
152.972342
 30
0.0
 10
108.669190
 20
145.097779
 30
0.0
  0
LWPOLYLINE
  5
134
100
AcDbEntity
  8
Ebene_1
 62
7
100
AcDbPolyline
 90
2
 70
0
 10
128.741610
 20
149.150863
 30
0.0
 10
134.377330
 20
153.512754
 30
0.0
  0
SPLINE
  5
135
100
AcDbEntity
  8
Ebene_1
 62
7
100
AcDbSpline
 70
8
 71
3
 72
8
 73
4
 74
0
 40
0
 40
0
 40
0
 40
0
 40
1
 40
1
 40
1
 40
1
 10
108.669190
 20
145.020579
 30
0.0
 10
108.669190
 20
136.953012
 30
0.0
 10
114.883920
 20
131.047089
 30
0.0
 10
122.604080
 20
131.047089
 30
0.0
  0
LWPOLYLINE
  5
136
100
AcDbEntity
  8
Ebene_1
 62
7
100
AcDbPolyline
 90
2
 70
0
 10
108.669190
 20
145.097779
 30
0.0
 10
108.669190
 20
145.020579
 30
0.0
  0
LWPOLYLINE
  5
137
100
AcDbEntity
  8
Ebene_1
 62
7
100
AcDbPolyline
 90
1
 70
1
 10
122.604080
 20
131.047089
 30
0.0
  0
LWPOLYLINE
  5
138
100
AcDbEntity
  8
Ebene_1
 62
7
100
AcDbPolyline
 90
6
 70
1
 10
137.774180
 20
131.587502
 30
0.0
 10
158.348410
 20
131.587502
 30
0.0
 10
158.348410
 20
138.149637
 30
0.0
 10
145.262730
 20
138.149637
 30
0.0
 10
145.262730
 20
158.608061
 30
0.0
 10
137.774180
 20
158.608061
 30
0.0
  0
SPLINE
  5
139
100
AcDbEntity
  8
Ebene_1
 62
7
100
AcDbSpline
 70
8
 71
3
 72
8
 73
4
 74
0
 40
0
 40
0
 40
0
 40
0
 40
1
 40
1
 40
1
 40
1
 10
197.605440
 20
131.047090
 30
0.0
 10
205.711610
 20
131.047090
 30
0.0
 10
210.112100
 20
137.068815
 30
0.0
 10
210.112100
 20
145.908398
 30
0.0
  0
LWPOLYLINE
  5
13a
100
AcDbEntity
  8
Ebene_1
 62
7
100
AcDbPolyline
 90
7
 70
1
 10
176.143370
 20
131.587502
 30
0.0
 10
183.516120
 20
131.587502
 30
0.0
 10
183.516120
 20
158.801065
 30
0.0
 10
178.073410
 20
158.801065
 30
0.0
 10
170.160240
 20
156.562219
 30
0.0
 10
171.588470
 20
150.772099
 30
0.0
 10
176.143370
 20
151.814320
 30
0.0
  0
SPLINE
  5
13b
100
AcDbEntity
  8
Ebene_1
 62
7
100
AcDbSpline
 70
8
 71
3
 72
8
 73
4
 74
0
 40
0
 40
0
 40
0
 40
0
 40
1
 40
1
 40
1
 40
1
 10
210.112100
 20
145.985598
 30
0.0
 10
210.112100
 20
150.965101
 30
0.0
 10
208.838270
 20
154.053165
 30
0.0
 10
206.869630
 20
155.983205
 30
0.0
  0
SPLINE
  5
13c
100
AcDbEntity
  8
Ebene_1
 62
7
100
AcDbSpline
 70
8
 71
3
 72
8
 73
4
 74
0
 40
0
 40
0
 40
0
 40
0
 40
1
 40
1
 40
1
 40
1
 10
206.869630
 20
155.983205
 30
0.0
 10
204.823790
 20
158.029047
 30
0.0
 10
202.507740
 20
159.148470
 30
0.0
 10
198.570460
 20
159.148470
 30
0.0
  0
SPLINE
  5
13d
100
AcDbEntity
  8
Ebene_1
 62
7
100
AcDbSpline
 70
8
 71
3
 72
8
 73
4
 74
0
 40
0
 40
0
 40
0
 40
0
 40
1
 40
1
 40
1
 40
1
 10
198.570460
 20
159.148470
 30
0.0
 10
192.394330
 20
159.148470
 30
0.0
 10
187.800840
 20
155.288390
 30
0.0
 10
187.800840
 20
149.305267
 30
0.0
  0
LWPOLYLINE
  5
13e
100
AcDbEntity
  8
Ebene_1
 62
7
100
AcDbPolyline
 90
2
 70
0
 10
210.112100
 20
145.908398
 30
0.0
 10
210.112100
 20
145.985598
 30
0.0
  0
SPLINE
  5
13f
100
AcDbEntity
  8
Ebene_1
 62
7
100
AcDbSpline
 70
8
 71
3
 72
8
 73
4
 74
0
 40
0
 40
0
 40
0
 40
0
 40
1
 40
1
 40
1
 40
1
 10
187.800840
 20
149.228067
 30
0.0
 10
187.800840
 20
143.939757
 30
0.0
 10
191.622310
 20
140.697290
 30
0.0
 10
196.872020
 20
140.697290
 30
0.0
  0
SPLINE
  5
140
100
AcDbEntity
  8
Ebene_1
 62
7
100
AcDbSpline
 70
8
 71
3
 72
8
 73
4
 74
0
 40
0
 40
0
 40
0
 40
0
 40
1
 40
1
 40
1
 40
1
 10
196.872020
 20
140.697290
 30
0.0
 10
199.265270
 20
140.697290
 30
0.0
 10
201.195310
 20
141.585109
 30
0.0
 10
202.584940
 20
142.897536
 30
0.0
  0
SPLINE
  5
141
100
AcDbEntity
  8
Ebene_1
 62
7
100
AcDbSpline
 70
8
 71
3
 72
8
 73
4
 74
0
 40
0
 40
0
 40
0
 40
0
 40
1
 40
1
 40
1
 40
1
 10
202.584940
 20
142.897536
 30
0.0
 10
202.237530
 20
139.423464
 30
0.0
 10
200.577700
 20
137.261819
 30
0.0
 10
197.489640
 20
137.261819
 30
0.0
  0
SPLINE
  5
142
100
AcDbEntity
  8
Ebene_1
 62
7
100
AcDbSpline
 70
8
 71
3
 72
8
 73
4
 74
0
 40
0
 40
0
 40
0
 40
0
 40
1
 40
1
 40
1
 40
1
 10
197.489640
 20
137.261819
 30
0.0
 10
195.327990
 20
137.261819
 30
0.0
 10
193.552350
 20
137.956633
 30
0.0
 10
191.699520
 20
139.423464
 30
0.0
  0
LWPOLYLINE
  5
143
100
AcDbEntity
  8
Ebene_1
 62
7
100
AcDbPolyline
 90
2
 70
0
 10
187.800840
 20
149.305267
 30
0.0
 10
187.800840
 20
149.228067
 30
0.0
  0
SPLINE
  5
144
100
AcDbEntity
  8
Ebene_1
 62
7
100
AcDbSpline
 70
8
 71
3
 72
8
 73
4
 74
0
 40
0
 40
0
 40
0
 40
0
 40
1
 40
1
 40
1
 40
1
 10
188.186840
 20
134.250957
 30
0.0
 10
190.657290
 20
132.320917
 30
0.0
 10
193.590960
 20
131.047090
 30
0.0
 10
197.605440
 20
131.047090
 30
0.0
  0
LWPOLYLINE
  5
145
100
AcDbEntity
  8
Ebene_1
 62
7
100
AcDbPolyline
 90
2
 70
0
 10
191.699520
 20
139.423464
 30
0.0
 10
188.186840
 20
134.250957
 30
0.0
  0
SPLINE
  5
146
100
AcDbEntity
  8
Ebene_1
 62
7
100
AcDbSpline
 70
8
 71
3
 72
8
 73
4
 74
0
 40
0
 40
0
 40
0
 40
0
 40
1
 40
1
 40
1
 40
1
 10
198.917870
 20
146.062801
 30
0.0
 10
196.563220
 20
146.062801
 30
0.0
 10
195.057790
 20
147.568233
 30
0.0
 10
195.057790
 20
149.614075
 30
0.0
  0
LWPOLYLINE
  5
147
100
AcDbEntity
  8
Ebene_1
 62
7
100
AcDbPolyline
 90
1
 70
1
 10
197.605440
 20
131.047090
 30
0.0
  0
SPLINE
  5
148
100
AcDbEntity
  8
Ebene_1
 62
7
100
AcDbSpline
 70
8
 71
3
 72
8
 73
4
 74
0
 40
0
 40
0
 40
0
 40
0
 40
1
 40
1
 40
1
 40
1
 10
195.057790
 20
149.691275
 30
0.0
 10
195.057790
 20
151.775718
 30
0.0
 10
196.486020
 20
153.319750
 30
0.0
 10
198.840660
 20
153.319750
 30
0.0
  0
SPLINE
  5
149
100
AcDbEntity
  8
Ebene_1
 62
7
100
AcDbSpline
 70
8
 71
3
 72
8
 73
4
 74
0
 40
0
 40
0
 40
0
 40
0
 40
1
 40
1
 40
1
 40
1
 10
198.840660
 20
153.319750
 30
0.0
 10
201.195310
 20
153.319750
 30
0.0
 10
202.700740
 20
151.737117
 30
0.0
 10
202.700740
 20
149.652674
 30
0.0
  0
LWPOLYLINE
  5
14a
100
AcDbEntity
  8
Ebene_1
 62
7
100
AcDbPolyline
 90
2
 70
0
 10
195.057790
 20
149.614075
 30
0.0
 10
195.057790
 20
149.691275
 30
0.0
  0
SPLINE
  5
14b
100
AcDbEntity
  8
Ebene_1
 62
7
100
AcDbSpline
 70
8
 71
3
 72
8
 73
4
 74
0
 40
0
 40
0
 40
0
 40
0
 40
1
 40
1
 40
1
 40
1
 10
202.700740
 20
149.575474
 30
0.0
 10
202.700740
 20
147.606833
 30
0.0
 10
201.272510
 20
146.062801
 30
0.0
 10
198.917870
 20
146.062801
 30
0.0
  0
LWPOLYLINE
  5
14c
100
AcDbEntity
  8
Ebene_1
 62
7
100
AcDbPolyline
 90
2
 70
0
 10
202.700740
 20
149.652674
 30
0.0
 10
202.700740
 20
149.575474
 30
0.0
  0
SPLINE
  5
14d
100
AcDbEntity
  8
Ebene_1
 62
7
100
AcDbSpline
 70
8
 71
3
 72
8
 73
4
 74
0
 40
0
 40
0
 40
0
 40
0
 40
1
 40
1
 40
1
 40
1
 10
223.236390
 20
131.047090
 30
0.0
 10
229.258120
 20
131.047090
 30
0.0
 10
233.658610
 20
134.559763
 30
0.0
 10
233.658610
 20
140.041077
 30
0.0
  0
LWPOLYLINE
  5
14e
100
AcDbEntity
  8
Ebene_1
 62
7
100
AcDbPolyline
 90
1
 70
1
 10
198.917870
 20
146.062801
 30
0.0
  0
SPLINE
  5
14f
100
AcDbEntity
  8
Ebene_1
 62
7
100
AcDbSpline
 70
8
 71
3
 72
8
 73
4
 74
0
 40
0
 40
0
 40
0
 40
0
 40
1
 40
1
 40
1
 40
1
 10
233.658610
 20
140.118277
 30
0.0
 10
233.658610
 20
144.711772
 30
0.0
 10
230.531940
 20
146.873417
 30
0.0
 10
226.671860
 20
147.722635
 30
0.0
  0
LWPOLYLINE
  5
150
100
AcDbEntity
  8
Ebene_1
 62
7
100
AcDbPolyline
 90
2
 70
0
 10
233.658610
 20
140.041077
 30
0.0
 10
233.658610
 20
140.118277
 30
0.0
  0
SPLINE
  5
151
100
AcDbEntity
  8
Ebene_1
 62
7
100
AcDbSpline
 70
8
 71
3
 72
8
 73
4
 74
0
 40
0
 40
0
 40
0
 40
0
 40
1
 40
1
 40
1
 40
1
 10
221.962560
 20
143.051938
 30
0.0
 10
224.780420
 20
143.051938
 30
0.0
 10
226.363060
 20
142.009716
 30
0.0
 10
226.363060
 20
140.272680
 30
0.0
  0
LWPOLYLINE
  5
152
100
AcDbEntity
  8
Ebene_1
 62
7
100
AcDbPolyline
 90
9
 70
0
 10
226.671860
 20
147.722635
 30
0.0
 10
233.118200
 20
153.242549
 30
0.0
 10
233.118200
 20
158.608060
 30
0.0
 10
213.586190
 20
158.608060
 30
0.0
 10
213.586190
 20
152.547735
 30
0.0
 10
223.931210
 20
152.547735
 30
0.0
 10
217.716480
 20
146.950619
 30
0.0
 10
218.797300
 20
143.051938
 30
0.0
 10
221.962560
 20
143.051938
 30
0.0
  0
SPLINE
  5
153
100
AcDbEntity
  8
Ebene_1
 62
7
100
AcDbSpline
 70
8
 71
3
 72
8
 73
4
 74
0
 40
0
 40
0
 40
0
 40
0
 40
1
 40
1
 40
1
 40
1
 10
226.363060
 20
140.195480
 30
0.0
 10
226.363060
 20
138.535645
 30
0.0
 10
225.012030
 20
137.454823
 30
0.0
 10
222.888980
 20
137.454823
 30
0.0
  0
SPLINE
  5
154
100
AcDbEntity
  8
Ebene_1
 62
7
100
AcDbSpline
 70
8
 71
3
 72
8
 73
4
 74
0
 40
0
 40
0
 40
0
 40
0
 40
1
 40
1
 40
1
 40
1
 10
222.888980
 20
137.454823
 30
0.0
 10
220.418530
 20
137.454823
 30
0.0
 10
218.372690
 20
138.574246
 30
0.0
 10
216.442650
 20
140.542887
 30
0.0
  0
LWPOLYLINE
  5
155
100
AcDbEntity
  8
Ebene_1
 62
7
100
AcDbPolyline
 90
2
 70
0
 10
226.363060
 20
140.272680
 30
0.0
 10
226.363060
 20
140.195480
 30
0.0
  0
SPLINE
  5
156
100
AcDbEntity
  8
Ebene_1
 62
7
100
AcDbSpline
 70
8
 71
3
 72
8
 73
4
 74
0
 40
0
 40
0
 40
0
 40
0
 40
1
 40
1
 40
1
 40
1
 10
211.733350
 20
135.833589
 30
0.0
 10
214.358210
 20
132.938530
 30
0.0
 10
218.025280
 20
131.047090
 30
0.0
 10
223.236390
 20
131.047090
 30
0.0
  0
LWPOLYLINE
  5
157
100
AcDbEntity
  8
Ebene_1
 62
7
100
AcDbPolyline
 90
2
 70
0
 10
216.442650
 20
140.542887
 30
0.0
 10
211.733350
 20
135.833589
 30
0.0
  0
LWPOLYLINE
  5
158
100
AcDbEntity
  8
Ebene_1
 62
7
100
AcDbPolyline
 90
1
 70
1
 10
223.236390
 20
131.047090
 30
0.0
  0
LWPOLYLINE
  5
159
100
AcDbEntity
  8
Ebene_1
 62
7
100
AcDbPolyline
 90
12
 70
1
 10
237.402890
 20
131.587502
 30
0.0
 10
259.328140
 20
131.587502
 30
0.0
 10
259.328140
 20
137.956633
 30
0.0
 10
244.814240
 20
137.956633
 30
0.0
 10
244.814240
 20
142.241322
 30
0.0
 10
257.784110
 20
142.241322
 30
0.0
 10
257.784110
 20
148.147245
 30
0.0
 10
244.814240
 20
148.147245
 30
0.0
 10
244.814240
 20
152.238929
 30
0.0
 10
259.135140
 20
152.238929
 30
0.0
 10
259.135140
 20
158.608061
 30
0.0
 10
237.402890
 20
158.608061
 30
0.0
  0
SPLINE
  5
15a
100
AcDbEntity
  8
Ebene_1
 62
7
100
AcDbSpline
 70
8
 71
3
 72
8
 73
4
 74
0
 40
0
 40
0
 40
0
 40
0
 40
1
 40
1
 40
1
 40
1
 10
132.940680
 20
79.545200
 30
0.0
 10
138.276100
 20
79.545200
 30
0.0
 10
142.170340
 20
82.212900
 30
0.0
 10
142.170340
 20
87.272350
 30
0.0
  0
LWPOLYLINE
  5
15b
100
AcDbEntity
  8
Ebene_1
 62
7
100
AcDbPolyline
 90
4
 70
0
 10
124.048330
 20
73.412540
 30
0.0
 10
129.997010
 20
73.412540
 30
0.0
 10
129.997010
 20
79.545200
 30
0.0
 10
132.940680
 20
79.545200
 30
0.0
  0
SPLINE
  5
15c
100
AcDbEntity
  8
Ebene_1
 62
7
100
AcDbSpline
 70
8
 71
3
 72
8
 73
4
 74
0
 40
0
 40
0
 40
0
 40
0
 40
1
 40
1
 40
1
 40
1
 10
142.170340
 20
87.333650
 30
0.0
 10
142.170340
 20
92.086470
 30
0.0
 10
138.674720
 20
94.876830
 30
0.0
 10
133.247320
 20
94.876830
 30
0.0
  0
LWPOLYLINE
  5
15d
100
AcDbEntity
  8
Ebene_1
 62
7
100
AcDbPolyline
 90
2
 70
0
 10
142.170340
 20
87.272350
 30
0.0
 10
142.170340
 20
87.333650
 30
0.0
  0
LWPOLYLINE
  5
15e
100
AcDbEntity
  8
Ebene_1
 62
7
100
AcDbPolyline
 90
3
 70
0
 10
133.247320
 20
94.876830
 30
0.0
 10
124.048330
 20
94.876830
 30
0.0
 10
124.048330
 20
73.412540
 30
0.0
  0
SPLINE
  5
15f
100
AcDbEntity
  8
Ebene_1
 62
7
100
AcDbSpline
 70
8
 71
3
 72
8
 73
4
 74
0
 40
0
 40
0
 40
0
 40
0
 40
1
 40
1
 40
1
 40
1
 10
132.787370
 20
89.878730
 30
0.0
 10
134.933800
 20
89.878730
 30
0.0
 10
136.221660
 20
88.897500
 30
0.0
 10
136.221660
 20
87.057700
 30
0.0
  0
LWPOLYLINE
  5
160
100
AcDbEntity
  8
Ebene_1
 62
7
100
AcDbPolyline
 90
3
 70
0
 10
129.997010
 20
84.206020
 30
0.0
 10
129.997010
 20
89.878730
 30
0.0
 10
132.787370
 20
89.878730
 30
0.0
  0
SPLINE
  5
161
100
AcDbEntity
  8
Ebene_1
 62
7
100
AcDbSpline
 70
8
 71
3
 72
8
 73
4
 74
0
 40
0
 40
0
 40
0
 40
0
 40
1
 40
1
 40
1
 40
1
 10
136.221660
 20
86.996400
 30
0.0
 10
136.221660
 20
85.309920
 30
0.0
 10
134.933800
 20
84.206040
 30
0.0
 10
132.818030
 20
84.206040
 30
0.0
  0
LWPOLYLINE
  5
162
100
AcDbEntity
  8
Ebene_1
 62
7
100
AcDbPolyline
 90
2
 70
0
 10
136.221660
 20
87.057700
 30
0.0
 10
136.221660
 20
86.996400
 30
0.0
  0
LWPOLYLINE
  5
163
100
AcDbEntity
  8
Ebene_1
 62
7
100
AcDbPolyline
 90
2
 70
0
 10
132.818030
 20
84.206040
 30
0.0
 10
129.997010
 20
84.206020
 30
0.0
  0
LWPOLYLINE
  5
164
100
AcDbEntity
  8
Ebene_1
 62
7
100
AcDbPolyline
 90
8
 70
1
 10
140.821170
 20
73.412540
 30
0.0
 10
147.076490
 20
73.412540
 30
0.0
 10
148.609650
 20
77.245450
 30
0.0
 10
156.888740
 20
77.245450
 30
0.0
 10
158.452570
 20
73.412540
 30
0.0
 10
164.830540
 20
73.412540
 30
0.0
 10
155.692870
 20
95.030160
 30
0.0
 10
149.958840
 20
95.030160
 30
0.0
  0
LWPOLYLINE
  5
165
100
AcDbEntity
  8
Ebene_1
 62
7
100
AcDbPolyline
 90
3
 70
1
 10
150.357460
 20
81.875610
 30
0.0
 10
152.779860
 20
87.977600
 30
0.0
 10
155.171600
 20
81.875610
 30
0.0
  0
SPLINE
  5
166
100
AcDbEntity
  8
Ebene_1
 62
7
100
AcDbSpline
 70
8
 71
3
 72
8
 73
4
 74
0
 40
0
 40
0
 40
0
 40
0
 40
1
 40
1
 40
1
 40
1
 10
181.542020
 20
80.894380
 30
0.0
 10
184.209730
 20
82.028920
 30
0.0
 10
185.957530
 20
84.206020
 30
0.0
 10
185.957530
 20
87.486990
 30
0.0
  0
LWPOLYLINE
  5
167
100
AcDbEntity
  8
Ebene_1
 62
7
100
AcDbPolyline
 90
8
 70
0
 10
166.915640
 20
73.412540
 30
0.0
 10
172.864320
 20
73.412540
 30
0.0
 10
172.864320
 20
79.913160
 30
0.0
 10
175.409380
 20
79.913160
 30
0.0
 10
175.470680
 20
79.913160
 30
0.0
 10
179.794210
 20
73.412540
 30
0.0
 10
186.662790
 20
73.412540
 30
0.0
 10
181.542020
 20
80.894380
 30
0.0
  0
SPLINE
  5
168
100
AcDbEntity
  8
Ebene_1
 62
7
100
AcDbSpline
 70
8
 71
3
 72
8
 73
4
 74
0
 40
0
 40
0
 40
0
 40
0
 40
1
 40
1
 40
1
 40
1
 10
185.957530
 20
87.548290
 30
0.0
 10
185.957530
 20
89.664060
 30
0.0
 10
185.313600
 20
91.319870
 30
0.0
 10
184.056410
 20
92.546410
 30
0.0
  0
SPLINE
  5
169
100
AcDbEntity
  8
Ebene_1
 62
7
100
AcDbSpline
 70
8
 71
3
 72
8
 73
4
 74
0
 40
0
 40
0
 40
0
 40
0
 40
1
 40
1
 40
1
 40
1
 10
184.056410
 20
92.546410
 30
0.0
 10
182.615230
 20
94.018240
 30
0.0
 10
180.346150
 20
94.876820
 30
0.0
 10
177.065180
 20
94.876820
 30
0.0
  0
LWPOLYLINE
  5
16a
100
AcDbEntity
  8
Ebene_1
 62
7
100
AcDbPolyline
 90
2
 70
0
 10
185.957530
 20
87.486990
 30
0.0
 10
185.957530
 20
87.548290
 30
0.0
  0
LWPOLYLINE
  5
16b
100
AcDbEntity
  8
Ebene_1
 62
7
100
AcDbPolyline
 90
3
 70
0
 10
177.065180
 20
94.876820
 30
0.0
 10
166.915620
 20
94.876820
 30
0.0
 10
166.915640
 20
73.412540
 30
0.0
  0
SPLINE
  5
16c
100
AcDbEntity
  8
Ebene_1
 62
7
100
AcDbSpline
 70
8
 71
3
 72
8
 73
4
 74
0
 40
0
 40
0
 40
0
 40
0
 40
1
 40
1
 40
1
 40
1
 10
176.758560
 20
89.725410
 30
0.0
 10
178.751680
 20
89.725410
 30
0.0
 10
179.978210
 20
88.866840
 30
0.0
 10
179.978210
 20
87.180360
 30
0.0
  0
LWPOLYLINE
  5
16d
100
AcDbEntity
  8
Ebene_1
 62
7
100
AcDbPolyline
 90
3
 70
0
 10
172.864320
 20
84.573980
 30
0.0
 10
172.864320
 20
89.725410
 30
0.0
 10
176.758560
 20
89.725410
 30
0.0
  0
SPLINE
  5
16e
100
AcDbEntity
  8
Ebene_1
 62
7
100
AcDbSpline
 70
8
 71
3
 72
8
 73
4
 74
0
 40
0
 40
0
 40
0
 40
0
 40
1
 40
1
 40
1
 40
1
 10
179.978210
 20
87.119060
 30
0.0
 10
179.978210
 20
85.555230
 30
0.0
 10
178.813000
 20
84.574010
 30
0.0
 10
176.789230
 20
84.574010
 30
0.0
  0
LWPOLYLINE
  5
16f
100
AcDbEntity
  8
Ebene_1
 62
7
100
AcDbPolyline
 90
2
 70
0
 10
179.978210
 20
87.180360
 30
0.0
 10
179.978210
 20
87.119060
 30
0.0
  0
LWPOLYLINE
  5
170
100
AcDbEntity
  8
Ebene_1
 62
7
100
AcDbPolyline
 90
2
 70
0
 10
176.789230
 20
84.574010
 30
0.0
 10
172.864320
 20
84.573980
 30
0.0
  0
LWPOLYLINE
  5
171
100
AcDbEntity
  8
Ebene_1
 62
7
100
AcDbPolyline
 90
12
 70
1
 10
188.962550
 20
73.412540
 30
0.0
 10
194.911230
 20
73.412540
 30
0.0
 10
194.911230
 20
78.962590
 30
0.0
 10
197.088320
 20
81.384990
 30
0.0
 10
202.485070
 20
73.412540
 30
0.0
 10
209.629610
 20
73.412540
 30
0.0
 10
201.227870
 20
85.647190
 30
0.0
 10
209.353640
 20
94.876850
 30
0.0
 10
202.301090
 20
94.876850
 30
0.0
 10
194.911230
 20
86.168470
 30
0.0
 10
194.911230
 20
94.876850
 30
0.0
 10
188.962550
 20
94.876850
 30
0.0
  0
LWPOLYLINE
  5
172
100
AcDbEntity
  8
Ebene_1
 62
7
100
AcDbPolyline
 90
4
 70
1
 10
211.469400
 20
73.412540
 30
0.0
 10
217.448740
 20
73.412540
 30
0.0
 10
217.448740
 20
94.876850
 30
0.0
 10
211.469400
 20
94.876850
 30
0.0
  0
SPLINE
  5
173
100
AcDbEntity
  8
Ebene_1
 62
7
100
AcDbSpline
 70
8
 71
3
 72
8
 73
4
 74
0
 40
0
 40
0
 40
0
 40
0
 40
1
 40
1
 40
1
 40
1
 10
256.391120
 20
72.983250
 30
0.0
 10
260.285360
 20
72.983250
 30
0.0
 10
263.443680
 20
74.424430
 30
0.0
 10
265.712760
 20
76.294890
 30
0.0
  0
LWPOLYLINE
  5
174
100
AcDbEntity
  8
Ebene_1
 62
7
100
AcDbPolyline
 90
10
 70
1
 10
221.373640
 20
73.412540
 30
0.0
 10
227.260990
 20
73.412540
 30
0.0
 10
227.260990
 20
85.187240
 30
0.0
 10
236.429320
 20
73.412540
 30
0.0
 10
241.642080
 20
73.412540
 30
0.0
 10
241.642080
 20
94.876850
 30
0.0
 10
235.754720
 20
94.876850
 30
0.0
 10
235.754720
 20
83.531430
 30
0.0
 10
226.923690
 20
94.876850
 30
0.0
 10
221.373640
 20
94.876850
 30
0.0
  0
SPLINE
  5
175
100
AcDbEntity
  8
Ebene_1
 62
7
100
AcDbSpline
 70
8
 71
3
 72
8
 73
4
 74
0
 40
0
 40
0
 40
0
 40
0
 40
1
 40
1
 40
1
 40
1
 10
260.070720
 20
78.993260
 30
0.0
 10
259.181480
 20
78.410650
 30
0.0
 10
258.077600
 20
78.104020
 30
0.0
 10
256.636430
 20
78.104020
 30
0.0
  0
SPLINE
  5
176
100
AcDbEntity
  8
Ebene_1
 62
7
100
AcDbSpline
 70
8
 71
3
 72
8
 73
4
 74
0
 40
0
 40
0
 40
0
 40
0
 40
1
 40
1
 40
1
 40
1
 10
256.636430
 20
78.104020
 30
0.0
 10
253.232800
 20
78.104020
 30
0.0
 10
250.810400
 20
80.587750
 30
0.0
 10
250.810400
 20
84.052700
 30
0.0
  0
LWPOLYLINE
  5
177
100
AcDbEntity
  8
Ebene_1
 62
7
100
AcDbPolyline
 90
6
 70
0
 10
265.712760
 20
76.294890
 30
0.0
 10
265.712760
 20
85.953830
 30
0.0
 10
255.839180
 20
85.953830
 30
0.0
 10
255.839180
 20
81.599640
 30
0.0
 10
260.070720
 20
81.599640
 30
0.0
 10
260.070720
 20
78.993260
 30
0.0
  0
SPLINE
  5
178
100
AcDbEntity
  8
Ebene_1
 62
7
100
AcDbSpline
 70
8
 71
3
 72
8
 73
4
 74
0
 40
0
 40
0
 40
0
 40
0
 40
1
 40
1
 40
1
 40
1
 10
250.810400
 20
84.114000
 30
0.0
 10
250.810400
 20
87.394970
 30
0.0
 10
253.202140
 20
90.001350
 30
0.0
 10
256.299130
 20
90.001350
 30
0.0
  0
SPLINE
  5
179
100
AcDbEntity
  8
Ebene_1
 62
7
100
AcDbSpline
 70
8
 71
3
 72
8
 73
4
 74
0
 40
0
 40
0
 40
0
 40
0
 40
1
 40
1
 40
1
 40
1
 10
256.299130
 20
90.001350
 30
0.0
 10
258.414900
 20
90.001350
 30
0.0
 10
259.948060
 20
89.265430
 30
0.0
 10
261.481230
 20
87.977570
 30
0.0
  0
LWPOLYLINE
  5
17a
100
AcDbEntity
  8
Ebene_1
 62
7
100
AcDbPolyline
 90
2
 70
0
 10
250.810400
 20
84.052700
 30
0.0
 10
250.810400
 20
84.114000
 30
0.0
  0
SPLINE
  5
17b
100
AcDbEntity
  8
Ebene_1
 62
7
100
AcDbSpline
 70
8
 71
3
 72
8
 73
4
 74
0
 40
0
 40
0
 40
0
 40
0
 40
1
 40
1
 40
1
 40
1
 10
264.976850
 20
92.178450
 30
0.0
 10
262.707760
 20
94.140900
 30
0.0
 10
260.040050
 20
95.306100
 30
0.0
 10
256.268470
 20
95.306100
 30
0.0
  0
SPLINE
  5
17c
100
AcDbEntity
  8
Ebene_1
 62
7
100
AcDbSpline
 70
8
 71
3
 72
8
 73
4
 74
0
 40
0
 40
0
 40
0
 40
0
 40
1
 40
1
 40
1
 40
1
 10
256.268470
 20
95.306100
 30
0.0
 10
249.614530
 20
95.306100
 30
0.0
 10
244.708400
 20
90.399970
 30
0.0
 10
244.708400
 20
84.144660
 30
0.0
  0
LWPOLYLINE
  5
17d
100
AcDbEntity
  8
Ebene_1
 62
7
100
AcDbPolyline
 90
2
 70
0
 10
261.481230
 20
87.977570
 30
0.0
 10
264.976850
 20
92.178450
 30
0.0
  0
SPLINE
  5
17e
100
AcDbEntity
  8
Ebene_1
 62
7
100
AcDbSpline
 70
8
 71
3
 72
8
 73
4
 74
0
 40
0
 40
0
 40
0
 40
0
 40
1
 40
1
 40
1
 40
1
 10
244.708400
 20
84.083360
 30
0.0
 10
244.708400
 20
77.582750
 30
0.0
 10
249.706520
 20
72.983250
 30
0.0
 10
256.391120
 20
72.983250
 30
0.0
  0
LWPOLYLINE
  5
17f
100
AcDbEntity
  8
Ebene_1
 62
7
100
AcDbPolyline
 90
2
 70
0
 10
244.708400
 20
84.144660
 30
0.0
 10
244.708400
 20
84.083360
 30
0.0
  0
SPLINE
  5
180
100
AcDbEntity
  8
Ebene_1
 62
7
100
AcDbSpline
 70
8
 71
3
 72
8
 73
4
 74
0
 40
0
 40
0
 40
0
 40
0
 40
1
 40
1
 40
1
 40
1
 10
164.017940
 20
42.687040
 30
0.0
 10
170.641210
 20
42.687040
 30
0.0
 10
175.608660
 20
47.685160
 30
0.0
 10
175.608660
 20
53.848490
 30
0.0
  0
LWPOLYLINE
  5
181
100
AcDbEntity
  8
Ebene_1
 62
7
100
AcDbPolyline
 90
1
 70
1
 10
256.391120
 20
72.983250
 30
0.0
  0
SPLINE
  5
182
100
AcDbEntity
  8
Ebene_1
 62
7
100
AcDbSpline
 70
8
 71
3
 72
8
 73
4
 74
0
 40
0
 40
0
 40
0
 40
0
 40
1
 40
1
 40
1
 40
1
 10
175.608660
 20
53.909790
 30
0.0
 10
175.608660
 20
60.073120
 30
0.0
 10
170.702540
 20
65.009910
 30
0.0
 10
164.079260
 20
65.009910
 30
0.0
  0
SPLINE
  5
183
100
AcDbEntity
  8
Ebene_1
 62
7
100
AcDbSpline
 70
8
 71
3
 72
8
 73
4
 74
0
 40
0
 40
0
 40
0
 40
0
 40
1
 40
1
 40
1
 40
1
 10
164.079260
 20
65.009910
 30
0.0
 10
157.455990
 20
65.009910
 30
0.0
 10
152.488540
 20
60.011790
 30
0.0
 10
152.488540
 20
53.848470
 30
0.0
  0
LWPOLYLINE
  5
184
100
AcDbEntity
  8
Ebene_1
 62
7
100
AcDbPolyline
 90
2
 70
0
 10
175.608660
 20
53.848490
 30
0.0
 10
175.608660
 20
53.909790
 30
0.0
  0
SPLINE
  5
185
100
AcDbEntity
  8
Ebene_1
 62
7
100
AcDbSpline
 70
8
 71
3
 72
8
 73
4
 74
0
 40
0
 40
0
 40
0
 40
0
 40
1
 40
1
 40
1
 40
1
 10
152.488540
 20
53.787170
 30
0.0
 10
152.488540
 20
47.623850
 30
0.0
 10
157.394660
 20
42.687050
 30
0.0
 10
164.017940
 20
42.687050
 30
0.0
  0
LWPOLYLINE
  5
186
100
AcDbEntity
  8
Ebene_1
 62
7
100
AcDbPolyline
 90
2
 70
0
 10
152.488540
 20
53.848470
 30
0.0
 10
152.488540
 20
53.787170
 30
0.0
  0
SPLINE
  5
187
100
AcDbEntity
  8
Ebene_1
 62
7
100
AcDbSpline
 70
8
 71
3
 72
8
 73
4
 74
0
 40
0
 40
0
 40
0
 40
0
 40
1
 40
1
 40
1
 40
1
 10
164.079240
 20
48.053120
 30
0.0
 10
160.828930
 20
48.053120
 30
0.0
 10
158.590510
 20
50.751490
 30
0.0
 10
158.590510
 20
53.848490
 30
0.0
  0
LWPOLYLINE
  5
188
100
AcDbEntity
  8
Ebene_1
 62
7
100
AcDbPolyline
 90
1
 70
1
 10
164.017940
 20
42.687050
 30
0.0
  0
SPLINE
  5
189
100
AcDbEntity
  8
Ebene_1
 62
7
100
AcDbSpline
 70
8
 71
3
 72
8
 73
4
 74
0
 40
0
 40
0
 40
0
 40
0
 40
1
 40
1
 40
1
 40
1
 10
158.590510
 20
53.909790
 30
0.0
 10
158.590510
 20
57.006790
 30
0.0
 10
160.767610
 20
59.643830
 30
0.0
 10
164.017920
 20
59.643830
 30
0.0
  0
SPLINE
  5
18a
100
AcDbEntity
  8
Ebene_1
 62
7
100
AcDbSpline
 70
8
 71
3
 72
8
 73
4
 74
0
 40
0
 40
0
 40
0
 40
0
 40
1
 40
1
 40
1
 40
1
 10
164.017920
 20
59.643830
 30
0.0
 10
167.298890
 20
59.643830
 30
0.0
 10
169.537310
 20
56.945460
 30
0.0
 10
169.537310
 20
53.848470
 30
0.0
  0
LWPOLYLINE
  5
18b
100
AcDbEntity
  8
Ebene_1
 62
7
100
AcDbPolyline
 90
2
 70
0
 10
158.590510
 20
53.848490
 30
0.0
 10
158.590510
 20
53.909790
 30
0.0
  0
SPLINE
  5
18c
100
AcDbEntity
  8
Ebene_1
 62
7
100
AcDbSpline
 70
8
 71
3
 72
8
 73
4
 74
0
 40
0
 40
0
 40
0
 40
0
 40
1
 40
1
 40
1
 40
1
 10
169.537310
 20
53.787170
 30
0.0
 10
169.537310
 20
50.690180
 30
0.0
 10
167.360220
 20
48.053130
 30
0.0
 10
164.079240
 20
48.053130
 30
0.0
  0
LWPOLYLINE
  5
18d
100
AcDbEntity
  8
Ebene_1
 62
7
100
AcDbPolyline
 90
2
 70
0
 10
169.537310
 20
53.848470
 30
0.0
 10
169.537310
 20
53.787170
 30
0.0
  0
LWPOLYLINE
  5
18e
100
AcDbEntity
  8
Ebene_1
 62
7
100
AcDbPolyline
 90
1
 70
1
 10
164.079240
 20
48.053130
 30
0.0
  0
LWPOLYLINE
  5
18f
100
AcDbEntity
  8
Ebene_1
 62
7
100
AcDbPolyline
 90
10
 70
1
 10
178.705620
 20
43.116330
 30
0.0
 10
184.592970
 20
43.116330
 30
0.0
 10
184.592970
 20
54.891040
 30
0.0
 10
193.761300
 20
43.116330
 30
0.0
 10
198.974060
 20
43.116330
 30
0.0
 10
198.974060
 20
64.580640
 30
0.0
 10
193.086700
 20
64.580640
 30
0.0
 10
193.086700
 20
53.235220
 30
0.0
 10
184.255670
 20
64.580640
 30
0.0
 10
178.705620
 20
64.580640
 30
0.0
  0
LWPOLYLINE
  5
190
100
AcDbEntity
  8
Ebene_1
 62
7
100
AcDbPolyline
 90
6
 70
1
 10
202.776300
 20
43.116330
 30
0.0
 10
219.119840
 20
43.116330
 30
0.0
 10
219.119840
 20
48.329090
 30
0.0
 10
208.725000
 20
48.329090
 30
0.0
 10
208.725000
 20
64.580640
 30
0.0
 10
202.776320
 20
64.580640
 30
0.0
  0
SPLINE
  5
191
100
AcDbEntity
  8
Ebene_1
 62
7
100
AcDbSpline
 70
8
 71
3
 72
8
 73
4
 74
0
 40
0
 40
0
 40
0
 40
0
 40
1
 40
1
 40
1
 40
1
 10
28.023836
 20
167.807000
 30
0.0
 10
28.023836
 20
167.143959
 30
0.0
 10
27.760444
 20
166.508074
 30
0.0
 10
27.291603
 20
166.039233
 30
0.0
  0
SPLINE
  5
192
100
AcDbEntity
  8
Ebene_1
 62
7
100
AcDbSpline
 70
8
 71
3
 72
8
 73
4
 74
0
 40
0
 40
0
 40
0
 40
0
 40
1
 40
1
 40
1
 40
1
 10
27.291603
 20
166.039233
 30
0.0
 10
26.822762
 20
165.570392
 30
0.0
 10
26.186877
 20
165.307000
 30
0.0
 10
25.523836
 20
165.307000
 30
0.0
  0
SPLINE
  5
193
100
AcDbEntity
  8
Ebene_1
 62
7
100
AcDbSpline
 70
8
 71
3
 72
8
 73
4
 74
0
 40
0
 40
0
 40
0
 40
0
 40
1
 40
1
 40
1
 40
1
 10
25.523836
 20
165.307000
 30
0.0
 10
24.860795
 20
165.307000
 30
0.0
 10
24.224910
 20
165.570392
 30
0.0
 10
23.756069
 20
166.039233
 30
0.0
  0
SPLINE
  5
194
100
AcDbEntity
  8
Ebene_1
 62
7
100
AcDbSpline
 70
8
 71
3
 72
8
 73
4
 74
0
 40
0
 40
0
 40
0
 40
0
 40
1
 40
1
 40
1
 40
1
 10
23.756069
 20
166.039233
 30
0.0
 10
23.287228
 20
166.508074
 30
0.0
 10
23.023836
 20
167.143959
 30
0.0
 10
23.023836
 20
167.807000
 30
0.0
  0
SPLINE
  5
195
100
AcDbEntity
  8
Ebene_1
 62
7
100
AcDbSpline
 70
8
 71
3
 72
8
 73
4
 74
0
 40
0
 40
0
 40
0
 40
0
 40
1
 40
1
 40
1
 40
1
 10
23.023836
 20
167.807000
 30
0.0
 10
23.023836
 20
169.187712
 30
0.0
 10
24.143124
 20
170.307000
 30
0.0
 10
25.523836
 20
170.307000
 30
0.0
  0
SPLINE
  5
196
100
AcDbEntity
  8
Ebene_1
 62
7
100
AcDbSpline
 70
8
 71
3
 72
8
 73
4
 74
0
 40
0
 40
0
 40
0
 40
0
 40
1
 40
1
 40
1
 40
1
 10
25.523836
 20
170.307000
 30
0.0
 10
26.186877
 20
170.307000
 30
0.0
 10
26.822762
 20
170.043608
 30
0.0
 10
27.291603
 20
169.574767
 30
0.0
  0
SPLINE
  5
197
100
AcDbEntity
  8
Ebene_1
 62
7
100
AcDbSpline
 70
8
 71
3
 72
8
 73
4
 74
0
 40
0
 40
0
 40
0
 40
0
 40
1
 40
1
 40
1
 40
1
 10
27.291603
 20
169.574767
 30
0.0
 10
27.760444
 20
169.105926
 30
0.0
 10
28.023836
 20
168.470041
 30
0.0
 10
28.023836
 20
167.807000
 30
0.0
  0
LWPOLYLINE
  5
198
100
AcDbEntity
  8
Ebene_1
 62
7
100
AcDbPolyline
 90
9
 70
1
 10
223.872650
 20
43.116330
 30
0.0
 10
229.852000
 20
43.116330
 30
0.0
 10
229.852000
 20
51.242110
 30
0.0
 10
238.008430
 20
64.580640
 30
0.0
 10
231.354500
 20
64.580640
 30
0.0
 10
226.908320
 20
56.761500
 30
0.0
 10
222.492800
 20
64.580640
 30
0.0
 10
215.716210
 20
64.580640
 30
0.0
 10
223.872650
 20
51.150120
 30
0.0
  0
SPLINE
  5
199
100
AcDbEntity
  8
Ebene_1
 62
7
100
AcDbSpline
 70
8
 71
3
 72
8
 73
4
 74
0
 40
0
 40
0
 40
0
 40
0
 40
1
 40
1
 40
1
 40
1
 10
28.023836
 20
27.806996
 30
0.0
 10
28.023836
 20
27.143955
 30
0.0
 10
27.760444
 20
26.508070
 30
0.0
 10
27.291603
 20
26.039229
 30
0.0
  0
SPLINE
  5
19a
100
AcDbEntity
  8
Ebene_1
 62
7
100
AcDbSpline
 70
8
 71
3
 72
8
 73
4
 74
0
 40
0
 40
0
 40
0
 40
0
 40
1
 40
1
 40
1
 40
1
 10
27.291603
 20
26.039229
 30
0.0
 10
26.822762
 20
25.570388
 30
0.0
 10
26.186877
 20
25.306996
 30
0.0
 10
25.523836
 20
25.306996
 30
0.0
  0
SPLINE
  5
19b
100
AcDbEntity
  8
Ebene_1
 62
7
100
AcDbSpline
 70
8
 71
3
 72
8
 73
4
 74
0
 40
0
 40
0
 40
0
 40
0
 40
1
 40
1
 40
1
 40
1
 10
25.523836
 20
25.306996
 30
0.0
 10
24.860795
 20
25.306996
 30
0.0
 10
24.224910
 20
25.570388
 30
0.0
 10
23.756069
 20
26.039229
 30
0.0
  0
SPLINE
  5
19c
100
AcDbEntity
  8
Ebene_1
 62
7
100
AcDbSpline
 70
8
 71
3
 72
8
 73
4
 74
0
 40
0
 40
0
 40
0
 40
0
 40
1
 40
1
 40
1
 40
1
 10
23.756069
 20
26.039229
 30
0.0
 10
23.287228
 20
26.508070
 30
0.0
 10
23.023836
 20
27.143955
 30
0.0
 10
23.023836
 20
27.806996
 30
0.0
  0
SPLINE
  5
19d
100
AcDbEntity
  8
Ebene_1
 62
7
100
AcDbSpline
 70
8
 71
3
 72
8
 73
4
 74
0
 40
0
 40
0
 40
0
 40
0
 40
1
 40
1
 40
1
 40
1
 10
23.023836
 20
27.806996
 30
0.0
 10
23.023836
 20
29.187708
 30
0.0
 10
24.143124
 20
30.306996
 30
0.0
 10
25.523836
 20
30.306996
 30
0.0
  0
SPLINE
  5
19e
100
AcDbEntity
  8
Ebene_1
 62
7
100
AcDbSpline
 70
8
 71
3
 72
8
 73
4
 74
0
 40
0
 40
0
 40
0
 40
0
 40
1
 40
1
 40
1
 40
1
 10
25.523836
 20
30.306996
 30
0.0
 10
26.186877
 20
30.306996
 30
0.0
 10
26.822762
 20
30.043604
 30
0.0
 10
27.291603
 20
29.574763
 30
0.0
  0
SPLINE
  5
19f
100
AcDbEntity
  8
Ebene_1
 62
7
100
AcDbSpline
 70
8
 71
3
 72
8
 73
4
 74
0
 40
0
 40
0
 40
0
 40
0
 40
1
 40
1
 40
1
 40
1
 10
27.291603
 20
29.574763
 30
0.0
 10
27.760444
 20
29.105922
 30
0.0
 10
28.023836
 20
28.470037
 30
0.0
 10
28.023836
 20
27.806996
 30
0.0
  0
LWPOLYLINE
  5
1a0
100
AcDbEntity
  8
Ebene_1
 62
7
100
AcDbPolyline
 90
1
 70
1
 10
28.023836
 20
167.807000
 30
0.0
  0
SPLINE
  5
1a1
100
AcDbEntity
  8
Ebene_1
 62
7
100
AcDbSpline
 70
8
 71
3
 72
8
 73
4
 74
0
 40
0
 40
0
 40
0
 40
0
 40
1
 40
1
 40
1
 40
1
 10
273.023840
 20
27.806996
 30
0.0
 10
273.023840
 20
27.143955
 30
0.0
 10
272.760448
 20
26.508070
 30
0.0
 10
272.291607
 20
26.039229
 30
0.0
  0
SPLINE
  5
1a2
100
AcDbEntity
  8
Ebene_1
 62
7
100
AcDbSpline
 70
8
 71
3
 72
8
 73
4
 74
0
 40
0
 40
0
 40
0
 40
0
 40
1
 40
1
 40
1
 40
1
 10
272.291607
 20
26.039229
 30
0.0
 10
271.822766
 20
25.570388
 30
0.0
 10
271.186881
 20
25.306996
 30
0.0
 10
270.523840
 20
25.306996
 30
0.0
  0
SPLINE
  5
1a3
100
AcDbEntity
  8
Ebene_1
 62
7
100
AcDbSpline
 70
8
 71
3
 72
8
 73
4
 74
0
 40
0
 40
0
 40
0
 40
0
 40
1
 40
1
 40
1
 40
1
 10
270.523840
 20
25.306996
 30
0.0
 10
269.860799
 20
25.306996
 30
0.0
 10
269.224914
 20
25.570388
 30
0.0
 10
268.756073
 20
26.039229
 30
0.0
  0
SPLINE
  5
1a4
100
AcDbEntity
  8
Ebene_1
 62
7
100
AcDbSpline
 70
8
 71
3
 72
8
 73
4
 74
0
 40
0
 40
0
 40
0
 40
0
 40
1
 40
1
 40
1
 40
1
 10
268.756073
 20
26.039229
 30
0.0
 10
268.287232
 20
26.508070
 30
0.0
 10
268.023840
 20
27.143955
 30
0.0
 10
268.023840
 20
27.806996
 30
0.0
  0
SPLINE
  5
1a5
100
AcDbEntity
  8
Ebene_1
 62
7
100
AcDbSpline
 70
8
 71
3
 72
8
 73
4
 74
0
 40
0
 40
0
 40
0
 40
0
 40
1
 40
1
 40
1
 40
1
 10
268.023840
 20
27.806996
 30
0.0
 10
268.023840
 20
28.470037
 30
0.0
 10
268.287232
 20
29.105922
 30
0.0
 10
268.756073
 20
29.574763
 30
0.0
  0
SPLINE
  5
1a6
100
AcDbEntity
  8
Ebene_1
 62
7
100
AcDbSpline
 70
8
 71
3
 72
8
 73
4
 74
0
 40
0
 40
0
 40
0
 40
0
 40
1
 40
1
 40
1
 40
1
 10
268.756073
 20
29.574763
 30
0.0
 10
269.224914
 20
30.043604
 30
0.0
 10
269.860799
 20
30.306996
 30
0.0
 10
270.523840
 20
30.306996
 30
0.0
  0
SPLINE
  5
1a7
100
AcDbEntity
  8
Ebene_1
 62
7
100
AcDbSpline
 70
8
 71
3
 72
8
 73
4
 74
0
 40
0
 40
0
 40
0
 40
0
 40
1
 40
1
 40
1
 40
1
 10
270.523840
 20
30.306996
 30
0.0
 10
271.186881
 20
30.306996
 30
0.0
 10
271.822766
 20
30.043604
 30
0.0
 10
272.291607
 20
29.574763
 30
0.0
  0
SPLINE
  5
1a8
100
AcDbEntity
  8
Ebene_1
 62
7
100
AcDbSpline
 70
8
 71
3
 72
8
 73
4
 74
0
 40
0
 40
0
 40
0
 40
0
 40
1
 40
1
 40
1
 40
1
 10
272.291607
 20
29.574763
 30
0.0
 10
272.760448
 20
29.105922
 30
0.0
 10
273.023840
 20
28.470037
 30
0.0
 10
273.023840
 20
27.806996
 30
0.0
  0
LWPOLYLINE
  5
1a9
100
AcDbEntity
  8
Ebene_1
 62
7
100
AcDbPolyline
 90
1
 70
1
 10
28.023836
 20
27.806996
 30
0.0
  0
SPLINE
  5
1aa
100
AcDbEntity
  8
Ebene_1
 62
7
100
AcDbSpline
 70
8
 71
3
 72
8
 73
4
 74
0
 40
0
 40
0
 40
0
 40
0
 40
1
 40
1
 40
1
 40
1
 10
273.023840
 20
167.807000
 30
0.0
 10
273.023840
 20
167.143959
 30
0.0
 10
272.760448
 20
166.508074
 30
0.0
 10
272.291607
 20
166.039233
 30
0.0
  0
SPLINE
  5
1ab
100
AcDbEntity
  8
Ebene_1
 62
7
100
AcDbSpline
 70
8
 71
3
 72
8
 73
4
 74
0
 40
0
 40
0
 40
0
 40
0
 40
1
 40
1
 40
1
 40
1
 10
272.291607
 20
166.039233
 30
0.0
 10
271.822766
 20
165.570392
 30
0.0
 10
271.186881
 20
165.307000
 30
0.0
 10
270.523840
 20
165.307000
 30
0.0
  0
SPLINE
  5
1ac
100
AcDbEntity
  8
Ebene_1
 62
7
100
AcDbSpline
 70
8
 71
3
 72
8
 73
4
 74
0
 40
0
 40
0
 40
0
 40
0
 40
1
 40
1
 40
1
 40
1
 10
270.523840
 20
165.307000
 30
0.0
 10
269.860799
 20
165.307000
 30
0.0
 10
269.224914
 20
165.570392
 30
0.0
 10
268.756073
 20
166.039233
 30
0.0
  0
SPLINE
  5
1ad
100
AcDbEntity
  8
Ebene_1
 62
7
100
AcDbSpline
 70
8
 71
3
 72
8
 73
4
 74
0
 40
0
 40
0
 40
0
 40
0
 40
1
 40
1
 40
1
 40
1
 10
268.756073
 20
166.039233
 30
0.0
 10
268.287232
 20
166.508074
 30
0.0
 10
268.023840
 20
167.143959
 30
0.0
 10
268.023840
 20
167.807000
 30
0.0
  0
SPLINE
  5
1ae
100
AcDbEntity
  8
Ebene_1
 62
7
100
AcDbSpline
 70
8
 71
3
 72
8
 73
4
 74
0
 40
0
 40
0
 40
0
 40
0
 40
1
 40
1
 40
1
 40
1
 10
268.023840
 20
167.807000
 30
0.0
 10
268.023840
 20
168.470041
 30
0.0
 10
268.287232
 20
169.105926
 30
0.0
 10
268.756073
 20
169.574767
 30
0.0
  0
SPLINE
  5
1af
100
AcDbEntity
  8
Ebene_1
 62
7
100
AcDbSpline
 70
8
 71
3
 72
8
 73
4
 74
0
 40
0
 40
0
 40
0
 40
0
 40
1
 40
1
 40
1
 40
1
 10
268.756073
 20
169.574767
 30
0.0
 10
269.224914
 20
170.043608
 30
0.0
 10
269.860799
 20
170.307000
 30
0.0
 10
270.523840
 20
170.307000
 30
0.0
  0
SPLINE
  5
1b0
100
AcDbEntity
  8
Ebene_1
 62
7
100
AcDbSpline
 70
8
 71
3
 72
8
 73
4
 74
0
 40
0
 40
0
 40
0
 40
0
 40
1
 40
1
 40
1
 40
1
 10
270.523840
 20
170.307000
 30
0.0
 10
271.186881
 20
170.307000
 30
0.0
 10
271.822766
 20
170.043608
 30
0.0
 10
272.291607
 20
169.574767
 30
0.0
  0
SPLINE
  5
1b1
100
AcDbEntity
  8
Ebene_1
 62
7
100
AcDbSpline
 70
8
 71
3
 72
8
 73
4
 74
0
 40
0
 40
0
 40
0
 40
0
 40
1
 40
1
 40
1
 40
1
 10
272.291607
 20
169.574767
 30
0.0
 10
272.760448
 20
169.105926
 30
0.0
 10
273.023840
 20
168.470041
 30
0.0
 10
273.023840
 20
167.807000
 30
0.0
  0
LWPOLYLINE
  5
1b2
100
AcDbEntity
  8
Ebene_1
 62
7
100
AcDbPolyline
 90
1
 70
1
 10
273.023840
 20
27.806996
 30
0.0
  0
LWPOLYLINE
  5
1b3
100
AcDbEntity
  8
Ebene_1
 62
7
100
AcDbPolyline
 90
1
 70
1
 10
273.023840
 20
167.807000
 30
0.0
  0
SPLINE
  5
1b4
100
AcDbEntity
  8
Ebene_1
 62
7
100
AcDbSpline
 70
8
 71
3
 72
8
 73
4
 74
0
 40
0
 40
0
 40
0
 40
0
 40
1
 40
1
 40
1
 40
1
 10
69.911682
 20
25.046040
 30
0.0
 10
69.770113
 20
25.792690
 30
0.0
 10
57.587685
 20
93.806610
 30
0.0
 10
57.587685
 20
93.850350
 30
0.0
  0
SPLINE
  5
1b5
100
AcDbEntity
  8
Ebene_1
 62
7
100
AcDbSpline
 70
8
 71
3
 72
8
 73
4
 74
0
 40
0
 40
0
 40
0
 40
0
 40
1
 40
1
 40
1
 40
1
 10
57.587685
 20
93.850350
 30
0.0
 10
57.587685
 20
93.912550
 30
0.0
 10
53.989523
 20
93.821550
 30
0.0
 10
52.180926
 20
93.713640
 30
0.0
  0
SPLINE
  5
1b6
100
AcDbEntity
  8
Ebene_1
 62
7
100
AcDbSpline
 70
8
 71
3
 72
8
 73
4
 74
0
 40
0
 40
0
 40
0
 40
0
 40
1
 40
1
 40
1
 40
1
 10
52.180926
 20
93.713640
 30
0.0
 10
46.798571
 20
93.392680
 30
0.0
 10
44.030279
 20
92.450140
 30
0.0
 10
42.692295
 20
90.483000
 30
0.0
  0
SPLINE
  5
1b7
100
AcDbEntity
  8
Ebene_1
 62
7
100
AcDbSpline
 70
8
 71
3
 72
8
 73
4
 74
0
 40
0
 40
0
 40
0
 40
0
 40
1
 40
1
 40
1
 40
1
 10
42.692295
 20
90.483000
 30
0.0
 10
42.199002
 20
89.757730
 30
0.0
 10
41.993043
 20
89.240590
 30
0.0
 10
41.777734
 20
88.186760
 30
0.0
  0
SPLINE
  5
1b8
100
AcDbEntity
  8
Ebene_1
 62
7
100
AcDbSpline
 70
8
 71
3
 72
8
 73
4
 74
0
 40
0
 40
0
 40
0
 40
0
 40
1
 40
1
 40
1
 40
1
 10
41.777734
 20
88.186760
 30
0.0
 10
41.690324
 20
87.758570
 30
0.0
 10
41.602769
 20
87.392270
 30
0.0
 10
41.583268
 20
87.372780
 30
0.0
  0
SPLINE
  5
1b9
100
AcDbEntity
  8
Ebene_1
 62
7
100
AcDbSpline
 70
8
 71
3
 72
8
 73
4
 74
0
 40
0
 40
0
 40
0
 40
0
 40
1
 40
1
 40
1
 40
1
 10
41.583268
 20
87.372780
 30
0.0
 10
41.517798
 20
87.307380
 30
0.0
 10
39.280954
 20
88.370060
 30
0.0
 10
38.160260
 20
88.999250
 30
0.0
  0
SPLINE
  5
1ba
100
AcDbEntity
  8
Ebene_1
 62
7
100
AcDbSpline
 70
8
 71
3
 72
8
 73
4
 74
0
 40
0
 40
0
 40
0
 40
0
 40
1
 40
1
 40
1
 40
1
 10
38.160260
 20
88.999250
 30
0.0
 10
34.808229
 20
90.881140
 30
0.0
 10
32.176602
 20
93.060040
 30
0.0
 10
30.386392
 20
95.435860
 30
0.0
  0
SPLINE
  5
1bb
100
AcDbEntity
  8
Ebene_1
 62
7
100
AcDbSpline
 70
8
 71
3
 72
8
 73
4
 74
0
 40
0
 40
0
 40
0
 40
0
 40
1
 40
1
 40
1
 40
1
 10
30.386392
 20
95.435860
 30
0.0
 10
30.123361
 20
95.784900
 30
0.0
 10
29.908181
 20
96.099020
 30
0.0
 10
29.908181
 20
96.133940
 30
0.0
  0
SPLINE
  5
1bc
100
AcDbEntity
  8
Ebene_1
 62
7
100
AcDbSpline
 70
8
 71
3
 72
8
 73
4
 74
0
 40
0
 40
0
 40
0
 40
0
 40
1
 40
1
 40
1
 40
1
 10
29.908181
 20
96.133940
 30
0.0
 10
29.908181
 20
96.169040
 30
0.0
 10
30.044365
 20
96.253790
 30
0.0
 10
30.210784
 20
96.322670
 30
0.0
  0
SPLINE
  5
1bd
100
AcDbEntity
  8
Ebene_1
 62
7
100
AcDbSpline
 70
8
 71
3
 72
8
 73
4
 74
0
 40
0
 40
0
 40
0
 40
0
 40
1
 40
1
 40
1
 40
1
 10
30.210784
 20
96.322670
 30
0.0
 10
30.377238
 20
96.391670
 30
0.0
 10
31.094441
 20
96.700670
 30
0.0
 10
31.804600
 20
97.009610
 30
0.0
  0
SPLINE
  5
1be
100
AcDbEntity
  8
Ebene_1
 62
7
100
AcDbSpline
 70
8
 71
3
 72
8
 73
4
 74
0
 40
0
 40
0
 40
0
 40
0
 40
1
 40
1
 40
1
 40
1
 10
31.804600
 20
97.009610
 30
0.0
 10
39.941066
 20
100.549310
 30
0.0
 10
50.517231
 20
103.023520
 30
0.0
 10
60.008641
 20
103.607690
 30
0.0
  0
LWPOLYLINE
  5
1bf
100
AcDbEntity
  8
Ebene_1
 62
7
100
AcDbPolyline
 90
4
 70
1
 10
23.023861
 20
125.226067
 30
0.0
 10
273.023860
 20
125.226067
 30
0.0
 10
273.023860
 20
120.226067
 30
0.0
 10
23.023861
 20
120.226067
 30
0.0
  0
SPLINE
  5
1c0
100
AcDbEntity
  8
Ebene_1
 62
7
100
AcDbSpline
 70
8
 71
3
 72
8
 73
4
 74
0
 40
0
 40
0
 40
0
 40
0
 40
1
 40
1
 40
1
 40
1
 10
65.404057
 20
98.117780
 30
0.0
 10
67.905488
 20
95.069700
 30
0.0
 10
69.979794
 20
92.606350
 30
0.0
 10
70.013627
 20
92.643660
 30
0.0
  0
SPLINE
  5
1c1
100
AcDbEntity
  8
Ebene_1
 62
7
100
AcDbSpline
 70
8
 71
3
 72
8
 73
4
 74
0
 40
0
 40
0
 40
0
 40
0
 40
1
 40
1
 40
1
 40
1
 10
70.013627
 20
92.643660
 30
0.0
 10
70.047377
 20
92.680960
 30
0.0
 10
72.077675
 20
95.151880
 30
0.0
 10
74.525218
 20
98.134500
 30
0.0
  0
SPLINE
  5
1c2
100
AcDbEntity
  8
Ebene_1
 62
7
100
AcDbSpline
 70
8
 71
3
 72
8
 73
4
 74
0
 40
0
 40
0
 40
0
 40
0
 40
1
 40
1
 40
1
 40
1
 10
74.525218
 20
98.134500
 30
0.0
 10
76.972772
 20
101.117130
 30
0.0
 10
79.012722
 20
103.580620
 30
0.0
 10
79.058404
 20
103.608860
 30
0.0
  0
SPLINE
  5
1c3
100
AcDbEntity
  8
Ebene_1
 62
7
100
AcDbSpline
 70
8
 71
3
 72
8
 73
4
 74
0
 40
0
 40
0
 40
0
 40
0
 40
1
 40
1
 40
1
 40
1
 10
79.058404
 20
103.608860
 30
0.0
 10
79.153724
 20
103.667760
 30
0.0
 10
81.189258
 20
103.536660
 30
0.0
 10
82.967302
 20
103.356760
 30
0.0
  0
SPLINE
  5
1c4
100
AcDbEntity
  8
Ebene_1
 62
7
100
AcDbSpline
 70
8
 71
3
 72
8
 73
4
 74
0
 40
0
 40
0
 40
0
 40
0
 40
1
 40
1
 40
1
 40
1
 10
82.967302
 20
103.356760
 30
0.0
 10
90.465567
 20
102.598800
 30
0.0
 10
97.996432
 20
100.863690
 30
0.0
 10
104.836540
 20
98.318080
 30
0.0
  0
SPLINE
  5
1c5
100
AcDbEntity
  8
Ebene_1
 62
7
100
AcDbSpline
 70
8
 71
3
 72
8
 73
4
 74
0
 40
0
 40
0
 40
0
 40
0
 40
1
 40
1
 40
1
 40
1
 10
104.836540
 20
98.318080
 30
0.0
 10
106.450840
 20
97.717330
 30
0.0
 10
109.047540
 20
96.645010
 30
0.0
 10
109.724770
 20
96.299550
 30
0.0
  0
LWPOLYLINE
  5
1c6
100
AcDbEntity
  8
Ebene_1
 62
7
100
AcDbPolyline
 90
3
 70
0
 10
60.008641
 20
103.607690
 30
0.0
 10
60.855949
 20
103.659790
 30
0.0
 10
65.404057
 20
98.117780
 30
0.0
  0
SPLINE
  5
1c7
100
AcDbEntity
  8
Ebene_1
 62
7
100
AcDbSpline
 70
8
 71
3
 72
8
 73
4
 74
0
 40
0
 40
0
 40
0
 40
0
 40
1
 40
1
 40
1
 40
1
 10
109.633040
 20
95.577050
 30
0.0
 10
108.047020
 20
93.396470
 30
0.0
 10
105.560650
 20
91.253600
 30
0.0
 10
102.481500
 20
89.413520
 30
0.0
  0
SPLINE
  5
1c8
100
AcDbEntity
  8
Ebene_1
 62
7
100
AcDbSpline
 70
8
 71
3
 72
8
 73
4
 74
0
 40
0
 40
0
 40
0
 40
0
 40
1
 40
1
 40
1
 40
1
 10
102.481500
 20
89.413520
 30
0.0
 10
101.634680
 20
88.907450
 30
0.0
 10
98.831399
 20
87.500440
 30
0.0
 10
98.449199
 20
87.389640
 30
0.0
  0
SPLINE
  5
1c9
100
AcDbEntity
  8
Ebene_1
 62
7
100
AcDbSpline
 70
8
 71
3
 72
8
 73
4
 74
0
 40
0
 40
0
 40
0
 40
0
 40
1
 40
1
 40
1
 40
1
 10
98.449199
 20
87.389640
 30
0.0
 10
98.291462
 20
87.343840
 30
0.0
 10
98.270312
 20
87.378240
 30
0.0
 10
98.217832
 20
87.765880
 30
0.0
  0
SPLINE
  5
1ca
100
AcDbEntity
  8
Ebene_1
 62
7
100
AcDbSpline
 70
8
 71
3
 72
8
 73
4
 74
0
 40
0
 40
0
 40
0
 40
0
 40
1
 40
1
 40
1
 40
1
 10
98.217832
 20
87.765880
 30
0.0
 10
98.186132
 20
88.000500
 30
0.0
 10
98.071352
 20
88.500160
 30
0.0
 10
97.962892
 20
88.876210
 30
0.0
  0
SPLINE
  5
1cb
100
AcDbEntity
  8
Ebene_1
 62
7
100
AcDbSpline
 70
8
 71
3
 72
8
 73
4
 74
0
 40
0
 40
0
 40
0
 40
0
 40
1
 40
1
 40
1
 40
1
 10
97.962892
 20
88.876210
 30
0.0
 10
97.108897
 20
91.837680
 30
0.0
 10
94.585621
 20
93.152730
 30
0.0
 10
88.817939
 20
93.642160
 30
0.0
  0
SPLINE
  5
1cc
100
AcDbEntity
  8
Ebene_1
 62
7
100
AcDbSpline
 70
8
 71
3
 72
8
 73
4
 74
0
 40
0
 40
0
 40
0
 40
0
 40
1
 40
1
 40
1
 40
1
 10
88.817939
 20
93.642160
 30
0.0
 10
87.562064
 20
93.748740
 30
0.0
 10
82.339067
 20
93.885520
 30
0.0
 10
82.273435
 20
93.813530
 30
0.0
  0
SPLINE
  5
1cd
100
AcDbEntity
  8
Ebene_1
 62
7
100
AcDbSpline
 70
8
 71
3
 72
8
 73
4
 74
0
 40
0
 40
0
 40
0
 40
0
 40
1
 40
1
 40
1
 40
1
 10
82.273435
 20
93.813530
 30
0.0
 10
82.239795
 20
93.776630
 30
0.0
 10
72.157095
 20
37.215350
 30
0.0
 10
70.029173
 20
25.126750
 30
0.0
  0
LWPOLYLINE
  5
1ce
100
AcDbEntity
  8
Ebene_1
 62
7
100
AcDbPolyline
 90
3
 70
0
 10
109.724770
 20
96.299550
 30
0.0
 10
110.041150
 20
96.138140
 30
0.0
 10
109.633040
 20
95.577050
 30
0.0
  0
SPLINE
  5
1cf
100
AcDbEntity
  8
Ebene_1
 62
7
100
AcDbSpline
 70
8
 71
3
 72
8
 73
4
 74
0
 40
0
 40
0
 40
0
 40
0
 40
1
 40
1
 40
1
 40
1
 10
110.041590
 20
99.185210
 30
0.0
 10
100.403480
 20
103.250050
 30
0.0
 10
89.453456
 20
105.836640
 30
0.0
 10
78.528881
 20
106.629070
 30
0.0
  0
SPLINE
  5
1d0
100
AcDbEntity
  8
Ebene_1
 62
7
100
AcDbSpline
 70
8
 71
3
 72
8
 73
4
 74
0
 40
0
 40
0
 40
0
 40
0
 40
1
 40
1
 40
1
 40
1
 10
78.528881
 20
106.629070
 30
0.0
 10
75.019066
 20
106.883670
 30
0.0
 10
67.727427
 20
106.967040
 30
0.0
 10
64.196608
 20
106.792960
 30
0.0
  0
SPLINE
  5
1d1
100
AcDbEntity
  8
Ebene_1
 62
7
100
AcDbSpline
 70
8
 71
3
 72
8
 73
4
 74
0
 40
0
 40
0
 40
0
 40
0
 40
1
 40
1
 40
1
 40
1
 10
64.196608
 20
106.792960
 30
0.0
 10
51.960678
 20
106.189650
 30
0.0
 10
40.703390
 20
103.696020
 30
0.0
 10
29.884494
 20
99.192430
 30
0.0
  0
SPLINE
  5
1d2
100
AcDbEntity
  8
Ebene_1
 62
7
100
AcDbSpline
 70
8
 71
3
 72
8
 73
4
 74
0
 40
0
 40
0
 40
0
 40
0
 40
1
 40
1
 40
1
 40
1
 10
29.884494
 20
99.192430
 30
0.0
 10
29.139099
 20
98.882170
 30
0.0
 10
28.482864
 20
98.646100
 30
0.0
 10
28.426114
 20
98.667860
 30
0.0
  0
SPLINE
  5
1d3
100
AcDbEntity
  8
Ebene_1
 62
7
100
AcDbSpline
 70
8
 71
3
 72
8
 73
4
 74
0
 40
0
 40
0
 40
0
 40
0
 40
1
 40
1
 40
1
 40
1
 10
28.426114
 20
98.667860
 30
0.0
 10
28.369284
 20
98.689660
 30
0.0
 10
27.902733
 20
99.555360
 30
0.0
 10
27.389139
 20
100.591730
 30
0.0
  0
SPLINE
  5
1d4
100
AcDbEntity
  8
Ebene_1
 62
7
100
AcDbSpline
 70
8
 71
3
 72
8
 73
4
 74
0
 40
0
 40
0
 40
0
 40
0
 40
1
 40
1
 40
1
 40
1
 10
27.389139
 20
100.591730
 30
0.0
 10
26.428137
 20
102.530720
 30
0.0
 10
25.980282
 20
103.537980
 30
0.0
 10
26.048735
 20
103.606440
 30
0.0
  0
SPLINE
  5
1d5
100
AcDbEntity
  8
Ebene_1
 62
7
100
AcDbSpline
 70
8
 71
3
 72
8
 73
4
 74
0
 40
0
 40
0
 40
0
 40
0
 40
1
 40
1
 40
1
 40
1
 10
26.048735
 20
103.606440
 30
0.0
 10
26.118835
 20
103.676540
 30
0.0
 10
28.940304
 20
104.742390
 30
0.0
 10
30.594122
 20
105.323620
 30
0.0
  0
SPLINE
  5
1d6
100
AcDbEntity
  8
Ebene_1
 62
7
100
AcDbSpline
 70
8
 71
3
 72
8
 73
4
 74
0
 40
0
 40
0
 40
0
 40
0
 40
1
 40
1
 40
1
 40
1
 10
30.594122
 20
105.323620
 30
0.0
 10
46.098102
 20
110.772470
 30
0.0
 10
62.655982
 20
113.030460
 30
0.0
 10
78.327144
 20
111.833000
 30
0.0
  0
SPLINE
  5
1d7
100
AcDbEntity
  8
Ebene_1
 62
7
100
AcDbSpline
 70
8
 71
3
 72
8
 73
4
 74
0
 40
0
 40
0
 40
0
 40
0
 40
1
 40
1
 40
1
 40
1
 10
78.327144
 20
111.833000
 30
0.0
 10
90.048258
 20
110.937380
 30
0.0
 10
101.094830
 20
108.464920
 30
0.0
 10
112.339540
 20
104.220340
 30
0.0
  0
SPLINE
  5
1d8
100
AcDbEntity
  8
Ebene_1
 62
7
100
AcDbSpline
 70
8
 71
3
 72
8
 73
4
 74
0
 40
0
 40
0
 40
0
 40
0
 40
1
 40
1
 40
1
 40
1
 10
112.339540
 20
104.220340
 30
0.0
 10
113.176720
 20
103.904310
 30
0.0
 10
113.876100
 20
103.631370
 30
0.0
 10
113.893670
 20
103.613780
 30
0.0
  0
SPLINE
  5
1d9
100
AcDbEntity
  8
Ebene_1
 62
7
100
AcDbSpline
 70
8
 71
3
 72
8
 73
4
 74
0
 40
0
 40
0
 40
0
 40
0
 40
1
 40
1
 40
1
 40
1
 10
113.893670
 20
103.613780
 30
0.0
 10
113.985570
 20
103.521780
 30
0.0
 10
111.737200
 20
98.828210
 30
0.0
 10
111.509380
 20
98.636410
 30
0.0
  0
SPLINE
  5
1da
100
AcDbEntity
  8
Ebene_1
 62
7
100
AcDbSpline
 70
8
 71
3
 72
8
 73
4
 74
0
 40
0
 40
0
 40
0
 40
0
 40
1
 40
1
 40
1
 40
1
 10
111.509380
 20
98.636410
 30
0.0
 10
111.478780
 20
98.610610
 30
0.0
 10
110.818310
 20
98.857650
 30
0.0
 10
110.041590
 20
99.185210
 30
0.0
  0
LWPOLYLINE
  5
1db
100
AcDbEntity
  8
Ebene_1
 62
7
100
AcDbPolyline
 90
3
 70
0
 10
70.029173
 20
25.126750
 30
0.0
 10
69.965273
 20
24.763610
 30
0.0
 10
69.911682
 20
25.046040
 30
0.0
  0
LWPOLYLINE
  5
1dc
100
AcDbEntity
  8
Ebene_1
 62
7
100
AcDbPolyline
 90
1
 70
1
 10
110.041590
 20
99.185210
 30
0.0
  0
ENDSEC
  0
SECTION
  2
OBJECTS
  0
DICTIONARY
  5
C
330
0
100
AcDbDictionary
  3
ACAD_GROUP
350
D
  3
ACAD_MLINESTYLE
350
17
  0
DICTIONARY
  5
D
330
C
100
AcDbDictionary
  0
DICTIONARY
  5
1A
330
C
100
AcDbDictionary
  0
DICTIONARY
  5
17
330
C
100
AcDbDictionary
  3
STANDARD
350
18
  0
DICTIONARY
  5
19
330
C
100
AcDbDictionary
  0
ENDSEC
  0
EOF
