  0
SECTION
  2
HEADER
  9
$ACADVER
  1
AC1014
  9
$HANDSEED
  5
FFFF
  9
$MEASUREMENT
 70
     1
  0
ENDSEC
  0
SECTION
  2
TABLES
  0
TABLE
  2
VPORT
  5
8
330
0
100
AcDbSymbolTable
 70
     4
  0
VPORT
  5
2E
330
8
100
AcDbSymbolTableRecord
100
AcDbViewportTableRecord
  2
*ACTIVE
 70
     0
 10
0.0
 20
0.0
 11
1.0
 21
1.0
 12
210.0
 22
148.5
 13
0.0
 23
0.0
 14
10.0
 24
10.0
 15
10.0
 25
10.0
 16
0.0
 26
0.0
 36
1.0
 17
0.0
 27
0.0
 37
0.0
 40
341.0
 41
1.24
 42
50.0
 43
0.0
 44
0.0
 50
0.0
 51
0.0
 71
     0
 72
   100
 73
     1
 74
     3
 75
     0
 76
     0
 77
     0
 78
     0
  0
ENDTAB
  0
TABLE
  2
LTYPE
  5
5
330
0
100
AcDbSymbolTable
 70
     1
  0
LTYPE
  5
14
330
5
100
AcDbSymbolTableRecord
100
AcDbLinetypeTableRecord
  2
BYBLOCK
 70
     0
  3

 72
    65
 73
     0
 40
0.0
  0
LTYPE
  5
15
330
5
100
AcDbSymbolTableRecord
100
AcDbLinetypeTableRecord
  2
BYLAYER
 70
     0
  3

 72
    65
 73
     0
 40
0.0
  0
LTYPE
  5
16
330
5
100
AcDbSymbolTableRecord
100
AcDbLinetypeTableRecord
  2
CONTINUOUS
 70
     0
  3
Solid line
 72
    65
 73
     0
 40
0.0
  0
ENDTAB
  0
TABLE
  2
LAYER
  5
2
100
AcDbSymbolTable
 70
2
  0
LAYER
  5
50
100
AcDbSymbolTableRecord
100
AcDbLayerTableRecord
  2
0
 70
0
  6
CONTINUOUS
  0
LAYER
  5
51
100
AcDbSymbolTableRecord
100
AcDbLayerTableRecord
  2
Ebene_1
 70
0
  6
CONTINUOUS
  0
ENDTAB
  0
TABLE
  2
STYLE
  5
3
330
0
100
AcDbSymbolTable
 70
     1
  0
STYLE
  5
11
330
3
100
AcDbSymbolTableRecord
100
AcDbTextStyleTableRecord
  2
STANDARD
 70
     0
 40
0.0
 41
1.0
 50
0.0
 71
     0
 42
2.5
  3
txt
  4

  0
ENDTAB
  0
TABLE
  2
VIEW
  5
6
330
0
100
AcDbSymbolTable
 70
     0
  0
ENDTAB
  0
TABLE
  2
UCS
  5
7
330
0
100
AcDbSymbolTable
 70
     0
  0
ENDTAB
  0
TABLE
  2
APPID
  5
9
330
0
100
AcDbSymbolTable
 70
     2
  0
APPID
  5
12
330
9
100
AcDbSymbolTableRecord
100
AcDbRegAppTableRecord
  2
ACAD
 70
     0
  0
ENDTAB
  0
TABLE
  2
DIMSTYLE
  5
A
330
0
100
AcDbSymbolTable
 70
     1
  0
DIMSTYLE
105
27
330
A
100
AcDbSymbolTableRecord
100
AcDbDimStyleTableRecord
  2
ISO-25
 70
     0
  3

  4

  5

  6

  7

 40
1.0
 41
2.5
 42
0.625
 43
3.75
 44
1.25
 45
0.0
 46
0.0
 47
0.0
 48
0.0
140
2.5
141
2.5
142
0.0
143
0.03937007874016
144
1.0
145
0.0
146
1.0
147
0.625
 71
     0
 72
     0
 73
     0
 74
     0
 75
     0
 76
     0
 77
     1
 78
     8
170
     0
171
     3
172
     1
173
     0
174
     0
175
     0
176
     0
177
     0
178
     0
270
     2
271
     2
272
     2
273
     2
274
     3
340
11
275
     0
280
     0
281
     0
282
     0
283
     0
284
     8
285
     0
286
     0
287
     3
288
     0
  0
ENDTAB
  0
TABLE
  2
BLOCK_RECORD
  5
1
330
0
100
AcDbSymbolTable
 70
     1
  0
BLOCK_RECORD
  5
1F
330
1
100
AcDbSymbolTableRecord
100
AcDbBlockTableRecord
  2
*MODEL_SPACE
  0
BLOCK_RECORD
  5
1B
330
1
100
AcDbSymbolTableRecord
100
AcDbBlockTableRecord
  2
*PAPER_SPACE
  0
ENDTAB
  0
ENDSEC
  0
SECTION
  2
BLOCKS
  0
BLOCK
  5
20
330
1F
100
AcDbEntity
  8
0
100
AcDbBlockBegin
  2
*MODEL_SPACE
 70
     0
 10
0.0
 20
0.0
 30
0.0
  3
*MODEL_SPACE
  1

  0
ENDBLK
  5
21
330
1F
100
AcDbEntity
  8
0
100
AcDbBlockEnd
  0
BLOCK
  5
1C
330
1B
100
AcDbEntity
 67
     1
  8
0
100
AcDbBlockBegin
  2
*PAPER_SPACE
  1

  0
ENDBLK
  5
1D
330
1B
100
AcDbEntity
 67
     1
  8
0
100
AcDbBlockEnd
  0
ENDSEC
  0
SECTION
  2
ENTITIES
  0
SPLINE
  5
100
100
AcDbEntity
  8
Ebene_1
 62
7
100
AcDbSpline
 70
8
 71
3
 72
8
 73
4
 74
0
 40
0
 40
0
 40
0
 40
0
 40
1
 40
1
 40
1
 40
1
 10
251.879080
 20
279.992516
 30
0.0
 10
272.237510
 20
279.999916
 30
0.0
 10
284.000020
 20
263.999950
 30
0.0
 10
279.154890
 20
239.295556
 30
0.0
  0
LWPOLYLINE
  5
101
100
AcDbEntity
  8
Ebene_1
 62
7
100
AcDbPolyline
 90
2
 70
0
 10
53.388034
 20
279.992516
 30
0.0
 10
251.879080
 20
279.992516
 30
0.0
  0
SPLINE
  5
102
100
AcDbEntity
  8
Ebene_1
 62
7
100
AcDbSpline
 70
8
 71
3
 72
8
 73
4
 74
0
 40
0
 40
0
 40
0
 40
0
 40
1
 40
1
 40
1
 40
1
 10
239.486210
 20
16.325790
 30
0.0
 10
239.182830
 20
14.423790
 30
0.0
 10
238.149660
 20
14.423790
 30
0.0
 10
237.162610
 20
14.423790
 30
0.0
  0
LWPOLYLINE
  5
103
100
AcDbEntity
  8
Ebene_1
 62
7
100
AcDbPolyline
 90
2
 70
0
 10
279.154890
 20
239.295556
 30
0.0
 10
239.486210
 20
16.325790
 30
0.0
  0
SPLINE
  5
104
100
AcDbEntity
  8
Ebene_1
 62
7
100
AcDbSpline
 70
8
 71
3
 72
8
 73
4
 74
0
 40
0
 40
0
 40
0
 40
0
 40
1
 40
1
 40
1
 40
1
 10
68.926373
 20
14.423790
 30
0.0
 10
67.827281
 20
14.423790
 30
0.0
 10
66.794110
 20
14.423790
 30
0.0
 10
66.477276
 20
16.410130
 30
0.0
  0
LWPOLYLINE
  5
105
100
AcDbEntity
  8
Ebene_1
 62
7
100
AcDbPolyline
 90
2
 70
0
 10
237.162610
 20
14.423790
 30
0.0
 10
68.926373
 20
14.423790
 30
0.0
  0
SPLINE
  5
106
100
AcDbEntity
  8
Ebene_1
 62
7
100
AcDbSpline
 70
8
 71
3
 72
8
 73
4
 74
0
 40
0
 40
0
 40
0
 40
0
 40
1
 40
1
 40
1
 40
1
 10
26.836647
 20
239.204001
 30
0.0
 10
22.000020
 20
262.999950
 30
0.0
 10
37.233354
 20
279.999950
 30
0.0
 10
53.388034
 20
279.992516
 30
0.0
  0
LWPOLYLINE
  5
107
100
AcDbEntity
  8
Ebene_1
 62
7
100
AcDbPolyline
 90
2
 70
0
 10
66.477276
 20
16.410130
 30
0.0
 10
26.836647
 20
239.204001
 30
0.0
  0
SPLINE
  5
108
100
AcDbEntity
  8
Ebene_1
 62
7
100
AcDbSpline
 70
8
 71
3
 72
8
 73
4
 74
0
 40
0
 40
0
 40
0
 40
0
 40
1
 40
1
 40
1
 40
1
 10
53.950853
 20
258.964350
 30
0.0
 10
124.026753
 20
269.839949
 30
0.0
 10
182.682420
 20
269.516276
 30
0.0
 10
252.091240
 20
258.964350
 30
0.0
  0
SPLINE
  5
109
100
AcDbEntity
  8
Ebene_1
 62
7
100
AcDbSpline
 70
8
 71
3
 72
8
 73
4
 74
0
 40
0
 40
0
 40
0
 40
0
 40
1
 40
1
 40
1
 40
1
 10
252.091240
 20
258.964350
 30
0.0
 10
254.952680
 20
258.529337
 30
0.0
 10
257.478930
 20
255.675172
 30
0.0
 10
257.222680
 20
252.908548
 30
0.0
  0
SPLINE
  5
10a
100
AcDbEntity
  8
Ebene_1
 62
7
100
AcDbSpline
 70
8
 71
3
 72
8
 73
4
 74
0
 40
0
 40
0
 40
0
 40
0
 40
1
 40
1
 40
1
 40
1
 10
257.222680
 20
252.908548
 30
0.0
 10
251.011550
 20
185.852090
 30
0.0
 10
234.233270
 20
120.064310
 30
0.0
 10
218.671340
 20
53.410220
 30
0.0
  0
SPLINE
  5
10b
100
AcDbEntity
  8
Ebene_1
 62
7
100
AcDbSpline
 70
8
 71
3
 72
8
 73
4
 74
0
 40
0
 40
0
 40
0
 40
0
 40
1
 40
1
 40
1
 40
1
 10
218.671340
 20
53.410220
 30
0.0
 10
218.038510
 20
50.699780
 30
0.0
 10
216.338640
 20
48.396680
 30
0.0
 10
213.441060
 20
48.396680
 30
0.0
  0
LWPOLYLINE
  5
10c
100
AcDbEntity
  8
Ebene_1
 62
7
100
AcDbPolyline
 90
1
 70
1
 10
53.388034
 20
279.992516
 30
0.0
  0
SPLINE
  5
10d
100
AcDbEntity
  8
Ebene_1
 62
7
100
AcDbSpline
 70
8
 71
3
 72
8
 73
4
 74
0
 40
0
 40
0
 40
0
 40
0
 40
1
 40
1
 40
1
 40
1
 10
93.154563
 20
48.396680
 30
0.0
 10
90.256988
 20
48.396680
 30
0.0
 10
88.520096
 20
50.692090
 30
0.0
 10
87.924283
 20
53.410220
 30
0.0
  0
SPLINE
  5
10e
100
AcDbEntity
  8
Ebene_1
 62
7
100
AcDbSpline
 70
8
 71
3
 72
8
 73
4
 74
0
 40
0
 40
0
 40
0
 40
0
 40
1
 40
1
 40
1
 40
1
 10
87.924283
 20
53.410220
 30
0.0
 10
73.246995
 20
120.369190
 30
0.0
 10
55.520295
 20
186.322230
 30
0.0
 10
48.671152
 20
253.050675
 30
0.0
  0
SPLINE
  5
10f
100
AcDbEntity
  8
Ebene_1
 62
7
100
AcDbSpline
 70
8
 71
3
 72
8
 73
4
 74
0
 40
0
 40
0
 40
0
 40
0
 40
1
 40
1
 40
1
 40
1
 10
48.671152
 20
253.050675
 30
0.0
 10
48.387432
 20
255.814833
 30
0.0
 10
51.090913
 20
258.520494
 30
0.0
 10
53.950853
 20
258.964350
 30
0.0
  0
LWPOLYLINE
  5
110
100
AcDbEntity
  8
Ebene_1
 62
7
100
AcDbPolyline
 90
2
 70
0
 10
213.441060
 20
48.396680
 30
0.0
 10
93.154563
 20
48.396680
 30
0.0
  0
SPLINE
  5
111
100
AcDbEntity
  8
Ebene_1
 62
7
100
AcDbSpline
 70
8
 71
3
 72
8
 73
4
 74
0
 40
0
 40
0
 40
0
 40
0
 40
1
 40
1
 40
1
 40
1
 10
152.864080
 20
98.325590
 30
0.0
 10
152.662980
 20
99.386260
 30
0.0
 10
135.357270
 20
196.003130
 30
0.0
 10
135.357270
 20
196.065270
 30
0.0
  0
SPLINE
  5
112
100
AcDbEntity
  8
Ebene_1
 62
7
100
AcDbSpline
 70
8
 71
3
 72
8
 73
4
 74
0
 40
0
 40
0
 40
0
 40
0
 40
1
 40
1
 40
1
 40
1
 10
135.357270
 20
196.065270
 30
0.0
 10
135.357270
 20
196.153670
 30
0.0
 10
130.245920
 20
196.024370
 30
0.0
 10
127.676720
 20
195.871070
 30
0.0
  0
SPLINE
  5
113
100
AcDbEntity
  8
Ebene_1
 62
7
100
AcDbSpline
 70
8
 71
3
 72
8
 73
4
 74
0
 40
0
 40
0
 40
0
 40
0
 40
1
 40
1
 40
1
 40
1
 10
127.676720
 20
195.871070
 30
0.0
 10
120.030850
 20
195.415100
 30
0.0
 10
116.098380
 20
194.076200
 30
0.0
 10
114.197700
 20
191.281790
 30
0.0
  0
SPLINE
  5
114
100
AcDbEntity
  8
Ebene_1
 62
7
100
AcDbSpline
 70
8
 71
3
 72
8
 73
4
 74
0
 40
0
 40
0
 40
0
 40
0
 40
1
 40
1
 40
1
 40
1
 10
114.197700
 20
191.281790
 30
0.0
 10
113.496960
 20
190.251490
 30
0.0
 10
113.204380
 20
189.516880
 30
0.0
 10
112.898530
 20
188.019840
 30
0.0
  0
SPLINE
  5
115
100
AcDbEntity
  8
Ebene_1
 62
7
100
AcDbSpline
 70
8
 71
3
 72
8
 73
4
 74
0
 40
0
 40
0
 40
0
 40
0
 40
1
 40
1
 40
1
 40
1
 10
112.898530
 20
188.019840
 30
0.0
 10
112.774370
 20
187.411610
 30
0.0
 10
112.649970
 20
186.891260
 30
0.0
 10
112.622270
 20
186.863570
 30
0.0
  0
SPLINE
  5
116
100
AcDbEntity
  8
Ebene_1
 62
7
100
AcDbSpline
 70
8
 71
3
 72
8
 73
4
 74
0
 40
0
 40
0
 40
0
 40
0
 40
1
 40
1
 40
1
 40
1
 10
112.622270
 20
186.863570
 30
0.0
 10
112.529270
 20
186.770670
 30
0.0
 10
109.351730
 20
188.280250
 30
0.0
 10
107.759730
 20
189.174030
 30
0.0
  0
SPLINE
  5
117
100
AcDbEntity
  8
Ebene_1
 62
7
100
AcDbSpline
 70
8
 71
3
 72
8
 73
4
 74
0
 40
0
 40
0
 40
0
 40
0
 40
1
 40
1
 40
1
 40
1
 10
107.759730
 20
189.174030
 30
0.0
 10
102.998020
 20
191.847330
 30
0.0
 10
99.259677
 20
194.942580
 30
0.0
 10
96.716601
 20
198.317540
 30
0.0
  0
SPLINE
  5
118
100
AcDbEntity
  8
Ebene_1
 62
7
100
AcDbSpline
 70
8
 71
3
 72
8
 73
4
 74
0
 40
0
 40
0
 40
0
 40
0
 40
1
 40
1
 40
1
 40
1
 10
96.716601
 20
198.317540
 30
0.0
 10
96.342948
 20
198.813370
 30
0.0
 10
96.037275
 20
199.259610
 30
0.0
 10
96.037275
 20
199.309210
 30
0.0
  0
SPLINE
  5
119
100
AcDbEntity
  8
Ebene_1
 62
7
100
AcDbSpline
 70
8
 71
3
 72
8
 73
4
 74
0
 40
0
 40
0
 40
0
 40
0
 40
1
 40
1
 40
1
 40
1
 10
96.037275
 20
199.309210
 30
0.0
 10
96.037275
 20
199.358910
 30
0.0
 10
96.230725
 20
199.479470
 30
0.0
 10
96.467153
 20
199.577320
 30
0.0
  0
SPLINE
  5
11a
100
AcDbEntity
  8
Ebene_1
 62
7
100
AcDbSpline
 70
8
 71
3
 72
8
 73
4
 74
0
 40
0
 40
0
 40
0
 40
0
 40
1
 40
1
 40
1
 40
1
 10
96.467153
 20
199.577320
 30
0.0
 10
96.703602
 20
199.675220
 30
0.0
 10
97.722416
 20
200.114280
 30
0.0
 10
98.731228
 20
200.553130
 30
0.0
  0
SPLINE
  5
11b
100
AcDbEntity
  8
Ebene_1
 62
7
100
AcDbSpline
 70
8
 71
3
 72
8
 73
4
 74
0
 40
0
 40
0
 40
0
 40
0
 40
1
 40
1
 40
1
 40
1
 10
98.731228
 20
200.553130
 30
0.0
 10
110.289450
 20
205.581470
 30
0.0
 10
125.313370
 20
209.096180
 30
0.0
 10
138.796350
 20
209.926000
 30
0.0
  0
LWPOLYLINE
  5
11c
100
AcDbEntity
  8
Ebene_1
 62
7
100
AcDbPolyline
 90
1
 70
1
 10
53.950853
 20
258.964350
 30
0.0
  0
SPLINE
  5
11d
100
AcDbEntity
  8
Ebene_1
 62
7
100
AcDbSpline
 70
8
 71
3
 72
8
 73
4
 74
0
 40
0
 40
0
 40
0
 40
0
 40
1
 40
1
 40
1
 40
1
 10
146.460790
 20
202.127330
 30
0.0
 10
150.014180
 20
197.797380
 30
0.0
 10
152.960840
 20
194.298080
 30
0.0
 10
153.008900
 20
194.351050
 30
0.0
  0
SPLINE
  5
11e
100
AcDbEntity
  8
Ebene_1
 62
7
100
AcDbSpline
 70
8
 71
3
 72
8
 73
4
 74
0
 40
0
 40
0
 40
0
 40
0
 40
1
 40
1
 40
1
 40
1
 10
153.008900
 20
194.351050
 30
0.0
 10
153.056900
 20
194.403950
 30
0.0
 10
155.940970
 20
197.914110
 30
0.0
 10
159.417830
 20
202.151060
 30
0.0
  0
SPLINE
  5
11f
100
AcDbEntity
  8
Ebene_1
 62
7
100
AcDbSpline
 70
8
 71
3
 72
8
 73
4
 74
0
 40
0
 40
0
 40
0
 40
0
 40
1
 40
1
 40
1
 40
1
 10
159.417830
 20
202.151060
 30
0.0
 10
162.894690
 20
206.388030
 30
0.0
 10
165.792520
 20
209.887530
 30
0.0
 10
165.857410
 20
209.927650
 30
0.0
  0
SPLINE
  5
120
100
AcDbEntity
  8
Ebene_1
 62
7
100
AcDbSpline
 70
8
 71
3
 72
8
 73
4
 74
0
 40
0
 40
0
 40
0
 40
0
 40
1
 40
1
 40
1
 40
1
 10
165.857410
 20
209.927650
 30
0.0
 10
165.992810
 20
210.011250
 30
0.0
 10
168.884390
 20
209.824830
 30
0.0
 10
171.410180
 20
209.569510
 30
0.0
  0
SPLINE
  5
121
100
AcDbEntity
  8
Ebene_1
 62
7
100
AcDbSpline
 70
8
 71
3
 72
8
 73
4
 74
0
 40
0
 40
0
 40
0
 40
0
 40
1
 40
1
 40
1
 40
1
 10
171.410180
 20
209.569510
 30
0.0
 10
182.061820
 20
208.492800
 30
0.0
 10
192.759740
 20
206.028000
 30
0.0
 10
202.476470
 20
202.411860
 30
0.0
  0
SPLINE
  5
122
100
AcDbEntity
  8
Ebene_1
 62
7
100
AcDbSpline
 70
8
 71
3
 72
8
 73
4
 74
0
 40
0
 40
0
 40
0
 40
0
 40
1
 40
1
 40
1
 40
1
 10
202.476470
 20
202.411860
 30
0.0
 10
204.769680
 20
201.558450
 30
0.0
 10
208.458390
 20
200.035210
 30
0.0
 10
209.420420
 20
199.544410
 30
0.0
  0
LWPOLYLINE
  5
123
100
AcDbEntity
  8
Ebene_1
 62
7
100
AcDbPolyline
 90
3
 70
0
 10
138.796350
 20
209.926000
 30
0.0
 10
140.000000
 20
210.000000
 30
0.0
 10
146.460790
 20
202.127330
 30
0.0
  0
SPLINE
  5
124
100
AcDbEntity
  8
Ebene_1
 62
7
100
AcDbSpline
 70
8
 71
3
 72
8
 73
4
 74
0
 40
0
 40
0
 40
0
 40
0
 40
1
 40
1
 40
1
 40
1
 10
209.290110
 20
198.518070
 30
0.0
 10
207.037110
 20
195.420470
 30
0.0
 10
203.505080
 20
192.376420
 30
0.0
 10
199.131030
 20
189.762470
 30
0.0
  0
SPLINE
  5
125
100
AcDbEntity
  8
Ebene_1
 62
7
100
AcDbSpline
 70
8
 71
3
 72
8
 73
4
 74
0
 40
0
 40
0
 40
0
 40
0
 40
1
 40
1
 40
1
 40
1
 10
199.131030
 20
189.762470
 30
0.0
 10
197.928060
 20
189.043600
 30
0.0
 10
193.945900
 20
187.044890
 30
0.0
 10
193.402910
 20
186.887490
 30
0.0
  0
SPLINE
  5
126
100
AcDbEntity
  8
Ebene_1
 62
7
100
AcDbSpline
 70
8
 71
3
 72
8
 73
4
 74
0
 40
0
 40
0
 40
0
 40
0
 40
1
 40
1
 40
1
 40
1
 10
193.402910
 20
186.887490
 30
0.0
 10
193.178880
 20
186.822390
 30
0.0
 10
193.148810
 20
186.871190
 30
0.0
 10
193.074280
 20
187.421930
 30
0.0
  0
SPLINE
  5
127
100
AcDbEntity
  8
Ebene_1
 62
7
100
AcDbSpline
 70
8
 71
3
 72
8
 73
4
 74
0
 40
0
 40
0
 40
0
 40
0
 40
1
 40
1
 40
1
 40
1
 10
193.074280
 20
187.421930
 30
0.0
 10
193.029180
 20
187.755210
 30
0.0
 10
192.866190
 20
188.465020
 30
0.0
 10
192.712120
 20
188.999220
 30
0.0
  0
SPLINE
  5
128
100
AcDbEntity
  8
Ebene_1
 62
7
100
AcDbSpline
 70
8
 71
3
 72
8
 73
4
 74
0
 40
0
 40
0
 40
0
 40
0
 40
1
 40
1
 40
1
 40
1
 10
192.712120
 20
188.999220
 30
0.0
 10
191.499000
 20
193.206140
 30
0.0
 10
187.914550
 20
195.074220
 30
0.0
 10
179.721270
 20
195.769480
 30
0.0
  0
SPLINE
  5
129
100
AcDbEntity
  8
Ebene_1
 62
7
100
AcDbSpline
 70
8
 71
3
 72
8
 73
4
 74
0
 40
0
 40
0
 40
0
 40
0
 40
1
 40
1
 40
1
 40
1
 10
179.721270
 20
195.769480
 30
0.0
 10
177.937270
 20
195.920860
 30
0.0
 10
170.517750
 20
196.115180
 30
0.0
 10
170.424520
 20
196.012910
 30
0.0
  0
SPLINE
  5
12a
100
AcDbEntity
  8
Ebene_1
 62
7
100
AcDbSpline
 70
8
 71
3
 72
8
 73
4
 74
0
 40
0
 40
0
 40
0
 40
0
 40
1
 40
1
 40
1
 40
1
 10
170.424520
 20
196.012910
 30
0.0
 10
170.376720
 20
195.960510
 30
0.0
 10
156.053800
 20
115.612600
 30
0.0
 10
153.030980
 20
98.440130
 30
0.0
  0
LWPOLYLINE
  5
12b
100
AcDbEntity
  8
Ebene_1
 62
7
100
AcDbPolyline
 90
3
 70
0
 10
209.420420
 20
199.544410
 30
0.0
 10
209.869850
 20
199.315140
 30
0.0
 10
209.290110
 20
198.518070
 30
0.0
  0
SPLINE
  5
12c
100
AcDbEntity
  8
Ebene_1
 62
7
100
AcDbSpline
 70
8
 71
3
 72
8
 73
4
 74
0
 40
0
 40
0
 40
0
 40
0
 40
1
 40
1
 40
1
 40
1
 10
209.870460
 20
203.643700
 30
0.0
 10
196.179110
 20
209.417970
 30
0.0
 10
180.624070
 20
213.092350
 30
0.0
 10
165.105230
 20
214.218030
 30
0.0
  0
SPLINE
  5
12d
100
AcDbEntity
  8
Ebene_1
 62
7
100
AcDbSpline
 70
8
 71
3
 72
8
 73
4
 74
0
 40
0
 40
0
 40
0
 40
0
 40
1
 40
1
 40
1
 40
1
 10
165.105230
 20
214.218030
 30
0.0
 10
160.119360
 20
214.579697
 30
0.0
 10
149.761240
 20
214.698127
 30
0.0
 10
144.745560
 20
214.450817
 30
0.0
  0
SPLINE
  5
12e
100
AcDbEntity
  8
Ebene_1
 62
7
100
AcDbSpline
 70
8
 71
3
 72
8
 73
4
 74
0
 40
0
 40
0
 40
0
 40
0
 40
1
 40
1
 40
1
 40
1
 10
144.745560
 20
214.450817
 30
0.0
 10
127.363850
 20
213.593830
 30
0.0
 10
111.372370
 20
210.051510
 30
0.0
 10
96.003621
 20
203.653950
 30
0.0
  0
SPLINE
  5
12f
100
AcDbEntity
  8
Ebene_1
 62
7
100
AcDbSpline
 70
8
 71
3
 72
8
 73
4
 74
0
 40
0
 40
0
 40
0
 40
0
 40
1
 40
1
 40
1
 40
1
 10
96.003621
 20
203.653950
 30
0.0
 10
94.944761
 20
203.213200
 30
0.0
 10
94.012535
 20
202.877850
 30
0.0
 10
93.931942
 20
202.908760
 30
0.0
  0
SPLINE
  5
130
100
AcDbEntity
  8
Ebene_1
 62
7
100
AcDbSpline
 70
8
 71
3
 72
8
 73
4
 74
0
 40
0
 40
0
 40
0
 40
0
 40
1
 40
1
 40
1
 40
1
 10
93.931942
 20
202.908760
 30
0.0
 10
93.851172
 20
202.939860
 30
0.0
 10
93.188455
 20
204.169510
 30
0.0
 10
92.458851
 20
205.641720
 30
0.0
  0
SPLINE
  5
131
100
AcDbEntity
  8
Ebene_1
 62
7
100
AcDbSpline
 70
8
 71
3
 72
8
 73
4
 74
0
 40
0
 40
0
 40
0
 40
0
 40
1
 40
1
 40
1
 40
1
 10
92.458851
 20
205.641720
 30
0.0
 10
91.093714
 20
208.396150
 30
0.0
 10
90.457520
 20
209.827000
 30
0.0
 10
90.554748
 20
209.924240
 30
0.0
  0
SPLINE
  5
132
100
AcDbEntity
  8
Ebene_1
 62
7
100
AcDbSpline
 70
8
 71
3
 72
8
 73
4
 74
0
 40
0
 40
0
 40
0
 40
0
 40
1
 40
1
 40
1
 40
1
 10
90.554748
 20
209.924240
 30
0.0
 10
90.654348
 20
210.023840
 30
0.0
 10
94.662341
 20
211.537930
 30
0.0
 10
97.011682
 20
212.363570
 30
0.0
  0
SPLINE
  5
133
100
AcDbEntity
  8
Ebene_1
 62
7
100
AcDbSpline
 70
8
 71
3
 72
8
 73
4
 74
0
 40
0
 40
0
 40
0
 40
0
 40
1
 40
1
 40
1
 40
1
 10
97.011682
 20
212.363570
 30
0.0
 10
119.035820
 20
220.103906
 30
0.0
 10
142.557040
 20
223.311485
 30
0.0
 10
164.818640
 20
221.610445
 30
0.0
  0
SPLINE
  5
134
100
AcDbEntity
  8
Ebene_1
 62
7
100
AcDbSpline
 70
8
 71
3
 72
8
 73
4
 74
0
 40
0
 40
0
 40
0
 40
0
 40
1
 40
1
 40
1
 40
1
 10
164.818640
 20
221.610445
 30
0.0
 10
181.469010
 20
220.338162
 30
0.0
 10
197.161230
 20
216.825935
 30
0.0
 10
213.134820
 20
210.796290
 30
0.0
  0
SPLINE
  5
135
100
AcDbEntity
  8
Ebene_1
 62
7
100
AcDbSpline
 70
8
 71
3
 72
8
 73
4
 74
0
 40
0
 40
0
 40
0
 40
0
 40
1
 40
1
 40
1
 40
1
 10
213.134820
 20
210.796290
 30
0.0
 10
214.324080
 20
210.347390
 30
0.0
 10
215.317550
 20
209.959670
 30
0.0
 10
215.342540
 20
209.934670
 30
0.0
  0
SPLINE
  5
136
100
AcDbEntity
  8
Ebene_1
 62
7
100
AcDbSpline
 70
8
 71
3
 72
8
 73
4
 74
0
 40
0
 40
0
 40
0
 40
0
 40
1
 40
1
 40
1
 40
1
 10
215.342540
 20
209.934670
 30
0.0
 10
215.473160
 20
209.804170
 30
0.0
 10
212.279190
 20
203.136540
 30
0.0
 10
211.955530
 20
202.864080
 30
0.0
  0
SPLINE
  5
137
100
AcDbEntity
  8
Ebene_1
 62
7
100
AcDbSpline
 70
8
 71
3
 72
8
 73
4
 74
0
 40
0
 40
0
 40
0
 40
0
 40
1
 40
1
 40
1
 40
1
 10
211.955530
 20
202.864080
 30
0.0
 10
211.912030
 20
202.827380
 30
0.0
 10
210.973850
 20
203.178360
 30
0.0
 10
209.870460
 20
203.643700
 30
0.0
  0
LWPOLYLINE
  5
138
100
AcDbEntity
  8
Ebene_1
 62
7
100
AcDbPolyline
 90
3
 70
0
 10
153.030980
 20
98.440130
 30
0.0
 10
152.940280
 20
97.924270
 30
0.0
 10
152.864080
 20
98.325590
 30
0.0
  0
LWPOLYLINE
  5
139
100
AcDbEntity
  8
Ebene_1
 62
7
100
AcDbPolyline
 90
1
 70
1
 10
209.870460
 20
203.643700
 30
0.0
  0
SPLINE
  5
13a
100
AcDbEntity
  8
Ebene_1
 62
7
100
AcDbSpline
 70
8
 71
3
 72
8
 73
4
 74
0
 40
0
 40
0
 40
0
 40
0
 40
1
 40
1
 40
1
 40
1
 10
104.164846
 20
79.362551
 30
0.0
 10
105.061950
 20
79.362551
 30
0.0
 10
105.876268
 20
79.698440
 30
0.0
 10
106.527788
 20
80.332818
 30
0.0
  0
SPLINE
  5
13b
100
AcDbEntity
  8
Ebene_1
 62
7
100
AcDbSpline
 70
8
 71
3
 72
8
 73
4
 74
0
 40
0
 40
0
 40
0
 40
0
 40
1
 40
1
 40
1
 40
1
 10
106.527788
 20
80.332818
 30
0.0
 10
107.183725
 20
80.971497
 30
0.0
 10
107.528227
 20
81.799089
 30
0.0
 10
107.528227
 20
82.725931
 30
0.0
  0
LWPOLYLINE
  5
13c
100
AcDbEntity
  8
Ebene_1
 62
7
100
AcDbPolyline
 90
4
 70
0
 10
88.977234
 20
94.958279
 30
0.0
 10
88.977234
 20
79.362551
 30
0.0
 10
89.383761
 20
79.362551
 30
0.0
 10
104.164846
 20
79.362551
 30
0.0
  0
LWPOLYLINE
  5
13d
100
AcDbEntity
  8
Ebene_1
 62
7
100
AcDbPolyline
 90
5
 70
0
 10
107.528227
 20
82.725931
 30
0.0
 10
107.528227
 20
83.132459
 30
0.0
 10
92.745552
 20
83.132459
 30
0.0
 10
92.745552
 20
94.958279
 30
0.0
 10
88.977234
 20
94.958279
 30
0.0
  0
LWPOLYLINE
  5
13e
100
AcDbEntity
  8
Ebene_1
 62
7
100
AcDbPolyline
 90
9
 70
1
 10
109.672024
 20
89.046158
 30
0.0
 10
109.672024
 20
79.362551
 30
0.0
 10
110.078552
 20
79.362551
 30
0.0
 10
128.223017
 20
79.362551
 30
0.0
 10
128.223017
 20
89.046158
 30
0.0
 10
124.453110
 20
89.046158
 30
0.0
 10
124.453110
 20
83.132459
 30
0.0
 10
113.440343
 20
83.132459
 30
0.0
 10
113.440343
 20
89.046158
 30
0.0
  0
SPLINE
  5
13f
100
AcDbEntity
  8
Ebene_1
 62
7
100
AcDbSpline
 70
8
 71
3
 72
8
 73
4
 74
0
 40
0
 40
0
 40
0
 40
0
 40
1
 40
1
 40
1
 40
1
 10
109.672024
 20
94.551751
 30
0.0
 10
109.672024
 20
93.641073
 30
0.0
 10
110.005085
 20
92.819375
 30
0.0
 10
110.640703
 20
92.166573
 30
0.0
  0
LWPOLYLINE
  5
140
100
AcDbEntity
  8
Ebene_1
 62
7
100
AcDbPolyline
 90
2
 70
0
 10
109.672024
 20
94.958279
 30
0.0
 10
109.672024
 20
94.551751
 30
0.0
  0
SPLINE
  5
141
100
AcDbEntity
  8
Ebene_1
 62
7
100
AcDbSpline
 70
8
 71
3
 72
8
 73
4
 74
0
 40
0
 40
0
 40
0
 40
0
 40
1
 40
1
 40
1
 40
1
 10
110.645500
 20
92.161695
 30
0.0
 10
111.285139
 20
91.522056
 30
0.0
 10
112.109522
 20
91.188257
 30
0.0
 10
113.033849
 20
91.188257
 30
0.0
  0
LWPOLYLINE
  5
142
100
AcDbEntity
  8
Ebene_1
 62
7
100
AcDbPolyline
 90
3
 70
0
 10
110.640703
 20
92.166573
 30
0.0
 10
110.643874
 20
92.164947
 30
0.0
 10
110.645500
 20
92.161695
 30
0.0
  0
SPLINE
  5
143
100
AcDbEntity
  8
Ebene_1
 62
7
100
AcDbSpline
 70
8
 71
3
 72
8
 73
4
 74
0
 40
0
 40
0
 40
0
 40
0
 40
1
 40
1
 40
1
 40
1
 10
124.859670
 20
91.188257
 30
0.0
 10
125.756774
 20
91.188257
 30
0.0
 10
126.571092
 20
91.524146
 30
0.0
 10
127.222611
 20
92.158524
 30
0.0
  0
SPLINE
  5
144
100
AcDbEntity
  8
Ebene_1
 62
7
100
AcDbSpline
 70
8
 71
3
 72
8
 73
4
 74
0
 40
0
 40
0
 40
0
 40
0
 40
1
 40
1
 40
1
 40
1
 10
127.222611
 20
92.158524
 30
0.0
 10
127.878549
 20
92.797203
 30
0.0
 10
128.223050
 20
93.624795
 30
0.0
 10
128.223050
 20
94.551637
 30
0.0
  0
LWPOLYLINE
  5
145
100
AcDbEntity
  8
Ebene_1
 62
7
100
AcDbPolyline
 90
2
 70
0
 10
113.033849
 20
91.188257
 30
0.0
 10
124.859670
 20
91.188257
 30
0.0
  0
LWPOLYLINE
  5
146
100
AcDbEntity
  8
Ebene_1
 62
7
100
AcDbPolyline
 90
3
 70
0
 10
128.223050
 20
94.551637
 30
0.0
 10
128.223050
 20
94.958165
 30
0.0
 10
109.672024
 20
94.958279
 30
0.0
  0
LWPOLYLINE
  5
147
100
AcDbEntity
  8
Ebene_1
 62
7
100
AcDbPolyline
 90
9
 70
1
 10
130.365227
 20
89.046158
 30
0.0
 10
130.365227
 20
79.362551
 30
0.0
 10
130.771754
 20
79.362551
 30
0.0
 10
134.135134
 20
79.362551
 30
0.0
 10
134.135134
 20
85.276257
 30
0.0
 10
145.147900
 20
85.276257
 30
0.0
 10
145.147900
 20
79.362551
 30
0.0
 10
148.917808
 20
79.362551
 30
0.0
 10
148.917808
 20
89.046158
 30
0.0
  0
SPLINE
  5
148
100
AcDbEntity
  8
Ebene_1
 62
7
100
AcDbSpline
 70
8
 71
3
 72
8
 73
4
 74
0
 40
0
 40
0
 40
0
 40
0
 40
1
 40
1
 40
1
 40
1
 10
130.365227
 20
94.551751
 30
0.0
 10
130.365227
 20
93.641073
 30
0.0
 10
130.699875
 20
92.819375
 30
0.0
 10
131.335493
 20
92.166573
 30
0.0
  0
LWPOLYLINE
  5
149
100
AcDbEntity
  8
Ebene_1
 62
7
100
AcDbPolyline
 90
2
 70
0
 10
130.365227
 20
94.958279
 30
0.0
 10
130.365227
 20
94.551751
 30
0.0
  0
SPLINE
  5
14a
100
AcDbEntity
  8
Ebene_1
 62
7
100
AcDbSpline
 70
8
 71
3
 72
8
 73
4
 74
0
 40
0
 40
0
 40
0
 40
0
 40
1
 40
1
 40
1
 40
1
 10
131.340290
 20
92.161695
 30
0.0
 10
131.979930
 20
91.522056
 30
0.0
 10
132.804311
 20
91.188257
 30
0.0
 10
133.728639
 20
91.188257
 30
0.0
  0
LWPOLYLINE
  5
14b
100
AcDbEntity
  8
Ebene_1
 62
7
100
AcDbPolyline
 90
3
 70
0
 10
131.335493
 20
92.166573
 30
0.0
 10
131.337119
 20
92.164947
 30
0.0
 10
131.340290
 20
92.161695
 30
0.0
  0
SPLINE
  5
14c
100
AcDbEntity
  8
Ebene_1
 62
7
100
AcDbSpline
 70
8
 71
3
 72
8
 73
4
 74
0
 40
0
 40
0
 40
0
 40
0
 40
1
 40
1
 40
1
 40
1
 10
145.554459
 20
91.188257
 30
0.0
 10
146.451568
 20
91.188257
 30
0.0
 10
147.265883
 20
91.524146
 30
0.0
 10
147.917400
 20
92.158524
 30
0.0
  0
SPLINE
  5
14d
100
AcDbEntity
  8
Ebene_1
 62
7
100
AcDbSpline
 70
8
 71
3
 72
8
 73
4
 74
0
 40
0
 40
0
 40
0
 40
0
 40
1
 40
1
 40
1
 40
1
 10
147.917400
 20
92.158524
 30
0.0
 10
148.573341
 20
92.797203
 30
0.0
 10
148.917840
 20
93.624795
 30
0.0
 10
148.917840
 20
94.551637
 30
0.0
  0
LWPOLYLINE
  5
14e
100
AcDbEntity
  8
Ebene_1
 62
7
100
AcDbPolyline
 90
2
 70
0
 10
133.728639
 20
91.188257
 30
0.0
 10
145.554459
 20
91.188257
 30
0.0
  0
LWPOLYLINE
  5
14f
100
AcDbEntity
  8
Ebene_1
 62
7
100
AcDbPolyline
 90
3
 70
0
 10
148.917840
 20
94.551637
 30
0.0
 10
148.917840
 20
94.958165
 30
0.0
 10
130.365227
 20
94.958279
 30
0.0
  0
SPLINE
  5
150
100
AcDbEntity
  8
Ebene_1
 62
7
100
AcDbSpline
 70
8
 71
3
 72
8
 73
4
 74
0
 40
0
 40
0
 40
0
 40
0
 40
1
 40
1
 40
1
 40
1
 10
151.060021
 20
94.551751
 30
0.0
 10
151.060021
 20
93.641073
 30
0.0
 10
151.394674
 20
92.819375
 30
0.0
 10
152.030288
 20
92.166573
 30
0.0
  0
LWPOLYLINE
  5
151
100
AcDbEntity
  8
Ebene_1
 62
7
100
AcDbPolyline
 90
2
 70
0
 10
151.060021
 20
94.958279
 30
0.0
 10
151.060021
 20
94.551751
 30
0.0
  0
SPLINE
  5
152
100
AcDbEntity
  8
Ebene_1
 62
7
100
AcDbSpline
 70
8
 71
3
 72
8
 73
4
 74
0
 40
0
 40
0
 40
0
 40
0
 40
1
 40
1
 40
1
 40
1
 10
152.033540
 20
92.161695
 30
0.0
 10
152.673179
 20
91.522056
 30
0.0
 10
153.499153
 20
91.188257
 30
0.0
 10
154.423475
 20
91.188257
 30
0.0
  0
LWPOLYLINE
  5
153
100
AcDbEntity
  8
Ebene_1
 62
7
100
AcDbPolyline
 90
3
 70
0
 10
152.030288
 20
92.166573
 30
0.0
 10
152.031914
 20
92.164947
 30
0.0
 10
152.033540
 20
92.161695
 30
0.0
  0
SPLINE
  5
154
100
AcDbEntity
  8
Ebene_1
 62
7
100
AcDbSpline
 70
8
 71
3
 72
8
 73
4
 74
0
 40
0
 40
0
 40
0
 40
0
 40
1
 40
1
 40
1
 40
1
 10
165.842775
 20
84.204244
 30
0.0
 10
165.842775
 20
83.886340
 30
0.0
 10
165.744355
 20
83.658489
 30
0.0
 10
165.523586
 20
83.435647
 30
0.0
  0
SPLINE
  5
155
100
AcDbEntity
  8
Ebene_1
 62
7
100
AcDbSpline
 70
8
 71
3
 72
8
 73
4
 74
0
 40
0
 40
0
 40
0
 40
0
 40
1
 40
1
 40
1
 40
1
 10
165.523586
 20
83.435647
 30
0.0
 10
165.299980
 20
83.225781
 30
0.0
 10
165.074975
 20
83.132345
 30
0.0
 10
164.770876
 20
83.132345
 30
0.0
  0
LWPOLYLINE
  5
156
100
AcDbEntity
  8
Ebene_1
 62
7
100
AcDbPolyline
 90
3
 70
0
 10
154.423475
 20
91.188257
 30
0.0
 10
165.842775
 20
91.188257
 30
0.0
 10
165.842775
 20
84.204244
 30
0.0
  0
SPLINE
  5
157
100
AcDbEntity
  8
Ebene_1
 62
7
100
AcDbSpline
 70
8
 71
3
 72
8
 73
4
 74
0
 40
0
 40
0
 40
0
 40
0
 40
1
 40
1
 40
1
 40
1
 10
166.249303
 20
79.362437
 30
0.0
 10
167.146403
 20
79.362437
 30
0.0
 10
167.959133
 20
79.698326
 30
0.0
 10
168.610650
 20
80.332704
 30
0.0
  0
SPLINE
  5
158
100
AcDbEntity
  8
Ebene_1
 62
7
100
AcDbSpline
 70
8
 71
3
 72
8
 73
4
 74
0
 40
0
 40
0
 40
0
 40
0
 40
1
 40
1
 40
1
 40
1
 10
168.610650
 20
80.332704
 30
0.0
 10
169.266590
 20
80.971375
 30
0.0
 10
169.612675
 20
81.798976
 30
0.0
 10
169.612684
 20
82.725818
 30
0.0
  0
LWPOLYLINE
  5
159
100
AcDbEntity
  8
Ebene_1
 62
7
100
AcDbPolyline
 90
7
 70
0
 10
164.770876
 20
83.132345
 30
0.0
 10
154.830002
 20
83.132345
 30
0.0
 10
154.830002
 20
89.046044
 30
0.0
 10
151.060102
 20
89.046044
 30
0.0
 10
151.060102
 20
79.362437
 30
0.0
 10
151.466629
 20
79.362437
 30
0.0
 10
166.249303
 20
79.362437
 30
0.0
  0
LWPOLYLINE
  5
15a
100
AcDbEntity
  8
Ebene_1
 62
7
100
AcDbPolyline
 90
3
 70
0
 10
169.612684
 20
82.725818
 30
0.0
 10
169.612684
 20
94.958165
 30
0.0
 10
151.060021
 20
94.958279
 30
0.0
  0
LWPOLYLINE
  5
15b
100
AcDbEntity
  8
Ebene_1
 62
7
100
AcDbPolyline
 90
5
 70
1
 10
171.754807
 20
94.958279
 30
0.0
 10
171.754807
 20
79.362551
 30
0.0
 10
172.161335
 20
79.362551
 30
0.0
 10
175.524715
 20
79.362551
 30
0.0
 10
175.524715
 20
94.958279
 30
0.0
  0
LWPOLYLINE
  5
15c
100
AcDbEntity
  8
Ebene_1
 62
7
100
AcDbPolyline
 90
12
 70
1
 10
177.093660
 20
94.958279
 30
0.0
 10
180.623774
 20
91.426571
 30
0.0
 10
180.623774
 20
79.362551
 30
0.0
 10
181.030301
 20
79.362551
 30
0.0
 10
184.393682
 20
79.362551
 30
0.0
 10
184.393682
 20
87.658248
 30
0.0
 10
192.687794
 20
79.362551
 30
0.0
 10
196.219502
 20
79.362551
 30
0.0
 10
196.219502
 20
94.958279
 30
0.0
 10
192.449602
 20
94.958279
 30
0.0
 10
192.449602
 20
85.185740
 30
0.0
 10
182.677055
 20
94.958279
 30
0.0
  0
SPLINE
  5
15d
100
AcDbEntity
  8
Ebene_1
 62
7
100
AcDbSpline
 70
8
 71
3
 72
8
 73
4
 74
0
 40
0
 40
0
 40
0
 40
0
 40
1
 40
1
 40
1
 40
1
 10
198.361715
 20
82.725931
 30
0.0
 10
198.361715
 20
81.815245
 30
0.0
 10
198.696360
 20
80.993555
 30
0.0
 10
199.331982
 20
80.340753
 30
0.0
  0
LWPOLYLINE
  5
15e
100
AcDbEntity
  8
Ebene_1
 62
7
100
AcDbPolyline
 90
2
 70
0
 10
198.361715
 20
89.046158
 30
0.0
 10
198.361715
 20
82.725931
 30
0.0
  0
SPLINE
  5
15f
100
AcDbEntity
  8
Ebene_1
 62
7
100
AcDbSpline
 70
8
 71
3
 72
8
 73
4
 74
0
 40
0
 40
0
 40
0
 40
0
 40
1
 40
1
 40
1
 40
1
 10
199.336860
 20
80.337501
 30
0.0
 10
199.976499
 20
79.697854
 30
0.0
 10
200.800880
 20
79.362469
 30
0.0
 10
201.725210
 20
79.362469
 30
0.0
  0
LWPOLYLINE
  5
160
100
AcDbEntity
  8
Ebene_1
 62
7
100
AcDbPolyline
 90
3
 70
0
 10
199.331982
 20
80.340753
 30
0.0
 10
199.333608
 20
80.339127
 30
0.0
 10
199.336860
 20
80.337501
 30
0.0
  0
SPLINE
  5
161
100
AcDbEntity
  8
Ebene_1
 62
7
100
AcDbSpline
 70
8
 71
3
 72
8
 73
4
 74
0
 40
0
 40
0
 40
0
 40
0
 40
1
 40
1
 40
1
 40
1
 10
204.275535
 20
88.639549
 30
0.0
 10
204.275535
 20
87.728870
 30
0.0
 10
204.610181
 20
86.905587
 30
0.0
 10
205.245803
 20
86.252793
 30
0.0
  0
LWPOLYLINE
  5
162
100
AcDbEntity
  8
Ebene_1
 62
7
100
AcDbPolyline
 90
5
 70
0
 10
201.725210
 20
79.362469
 30
0.0
 10
216.914410
 20
79.362469
 30
0.0
 10
216.914410
 20
89.046076
 30
0.0
 10
204.275535
 20
89.046076
 30
0.0
 10
204.275535
 20
88.639549
 30
0.0
  0
SPLINE
  5
163
100
AcDbEntity
  8
Ebene_1
 62
7
100
AcDbSpline
 70
8
 71
3
 72
8
 73
4
 74
0
 40
0
 40
0
 40
0
 40
0
 40
1
 40
1
 40
1
 40
1
 10
205.249055
 20
86.249541
 30
0.0
 10
205.888693
 20
85.609903
 30
0.0
 10
206.714668
 20
85.276103
 30
0.0
 10
207.638998
 20
85.276103
 30
0.0
  0
LWPOLYLINE
  5
164
100
AcDbEntity
  8
Ebene_1
 62
7
100
AcDbPolyline
 90
3
 70
0
 10
205.245803
 20
86.252793
 30
0.0
 10
205.247429
 20
86.251167
 30
0.0
 10
205.249055
 20
86.249541
 30
0.0
  0
SPLINE
  5
165
100
AcDbEntity
  8
Ebene_1
 62
7
100
AcDbSpline
 70
8
 71
3
 72
8
 73
4
 74
0
 40
0
 40
0
 40
0
 40
0
 40
1
 40
1
 40
1
 40
1
 10
203.203718
 20
83.132304
 30
0.0
 10
202.882992
 20
83.132304
 30
0.0
 10
202.651865
 20
83.227765
 30
0.0
 10
202.431949
 20
83.432436
 30
0.0
  0
SPLINE
  5
166
100
AcDbEntity
  8
Ebene_1
 62
7
100
AcDbSpline
 70
8
 71
3
 72
8
 73
4
 74
0
 40
0
 40
0
 40
0
 40
0
 40
1
 40
1
 40
1
 40
1
 10
202.431949
 20
83.432436
 30
0.0
 10
202.227279
 20
83.652351
 30
0.0
 10
202.131818
 20
83.883486
 30
0.0
 10
202.131818
 20
84.204204
 30
0.0
  0
LWPOLYLINE
  5
167
100
AcDbEntity
  8
Ebene_1
 62
7
100
AcDbPolyline
 90
4
 70
0
 10
207.638998
 20
85.276103
 30
0.0
 10
213.144583
 20
85.276103
 30
0.0
 10
213.144583
 20
83.132304
 30
0.0
 10
203.203718
 20
83.132304
 30
0.0
  0
LWPOLYLINE
  5
168
100
AcDbEntity
  8
Ebene_1
 62
7
100
AcDbPolyline
 90
3
 70
0
 10
202.131818
 20
84.204204
 30
0.0
 10
202.131818
 20
89.046003
 30
0.0
 10
198.361715
 20
89.046158
 30
0.0
  0
SPLINE
  5
169
100
AcDbEntity
  8
Ebene_1
 62
7
100
AcDbSpline
 70
8
 71
3
 72
8
 73
4
 74
0
 40
0
 40
0
 40
0
 40
0
 40
1
 40
1
 40
1
 40
1
 10
213.550916
 20
91.188370
 30
0.0
 10
214.448024
 20
91.188370
 30
0.0
 10
215.262331
 20
91.524260
 30
0.0
 10
215.913857
 20
92.158638
 30
0.0
  0
SPLINE
  5
16a
100
AcDbEntity
  8
Ebene_1
 62
7
100
AcDbSpline
 70
8
 71
3
 72
8
 73
4
 74
0
 40
0
 40
0
 40
0
 40
0
 40
1
 40
1
 40
1
 40
1
 10
215.913857
 20
92.158638
 30
0.0
 10
216.569789
 20
92.797317
 30
0.0
 10
216.914297
 20
93.624909
 30
0.0
 10
216.914297
 20
94.551751
 30
0.0
  0
LWPOLYLINE
  5
16b
100
AcDbEntity
  8
Ebene_1
 62
7
100
AcDbPolyline
 90
4
 70
0
 10
198.361715
 20
94.958279
 30
0.0
 10
198.361715
 20
91.188370
 30
0.0
 10
198.768242
 20
91.188370
 30
0.0
 10
213.550916
 20
91.188370
 30
0.0
  0
LWPOLYLINE
  5
16c
100
AcDbEntity
  8
Ebene_1
 62
7
100
AcDbPolyline
 90
3
 70
0
 10
216.914297
 20
94.551751
 30
0.0
 10
216.914297
 20
94.958279
 30
0.0
 10
198.361715
 20
94.958279
 30
0.0
  0
SPLINE
  5
16d
100
AcDbEntity
  8
Ebene_1
 62
7
100
AcDbSpline
 70
8
 71
3
 72
8
 73
4
 74
0
 40
0
 40
0
 40
0
 40
0
 40
1
 40
1
 40
1
 40
1
 10
124.859637
 20
61.624609
 30
0.0
 10
125.756741
 20
61.624609
 30
0.0
 10
126.571058
 20
61.960499
 30
0.0
 10
127.222578
 20
62.594877
 30
0.0
  0
SPLINE
  5
16e
100
AcDbEntity
  8
Ebene_1
 62
7
100
AcDbSpline
 70
8
 71
3
 72
8
 73
4
 74
0
 40
0
 40
0
 40
0
 40
0
 40
1
 40
1
 40
1
 40
1
 10
127.222578
 20
62.594877
 30
0.0
 10
127.304926
 20
62.675044
 30
0.0
 10
127.337492
 20
62.782058
 30
0.0
 10
127.409962
 20
62.868014
 30
0.0
  0
LWPOLYLINE
  5
16f
100
AcDbEntity
  8
Ebene_1
 62
7
100
AcDbPolyline
 90
6
 70
0
 10
112.627288
 20
71.306631
 30
0.0
 10
112.627288
 20
55.712496
 30
0.0
 10
113.033815
 20
55.712496
 30
0.0
 10
116.397196
 20
55.712496
 30
0.0
 10
116.397196
 20
61.624609
 30
0.0
 10
124.859637
 20
61.624609
 30
0.0
  0
LWPOLYLINE
  5
170
100
AcDbEntity
  8
Ebene_1
 62
7
100
AcDbPolyline
 90
10
 70
0
 10
127.409962
 20
62.868014
 30
0.0
 10
127.409962
 20
55.712496
 30
0.0
 10
127.816490
 20
55.712496
 30
0.0
 10
131.178282
 20
55.712496
 30
0.0
 10
131.178282
 20
71.306631
 30
0.0
 10
127.409962
 20
71.306631
 30
0.0
 10
127.409962
 20
65.394518
 30
0.0
 10
116.397196
 20
65.394518
 30
0.0
 10
116.397196
 20
71.306631
 30
0.0
 10
112.627288
 20
71.306631
 30
0.0
  0
SPLINE
  5
171
100
AcDbEntity
  8
Ebene_1
 62
7
100
AcDbSpline
 70
8
 71
3
 72
8
 73
4
 74
0
 40
0
 40
0
 40
0
 40
0
 40
1
 40
1
 40
1
 40
1
 10
133.322079
 20
59.075877
 30
0.0
 10
133.322079
 20
58.165190
 30
0.0
 10
133.656727
 20
57.341907
 30
0.0
 10
134.292346
 20
56.689113
 30
0.0
  0
LWPOLYLINE
  5
172
100
AcDbEntity
  8
Ebene_1
 62
7
100
AcDbPolyline
 90
2
 70
0
 10
133.322079
 20
59.482404
 30
0.0
 10
133.322079
 20
59.075877
 30
0.0
  0
SPLINE
  5
173
100
AcDbEntity
  8
Ebene_1
 62
7
100
AcDbSpline
 70
8
 71
3
 72
8
 73
4
 74
0
 40
0
 40
0
 40
0
 40
0
 40
1
 40
1
 40
1
 40
1
 10
134.295598
 20
56.685861
 30
0.0
 10
134.935237
 20
56.046223
 30
0.0
 10
135.761207
 20
55.712423
 30
0.0
 10
136.685535
 20
55.712423
 30
0.0
  0
LWPOLYLINE
  5
174
100
AcDbEntity
  8
Ebene_1
 62
7
100
AcDbPolyline
 90
3
 70
0
 10
134.292346
 20
56.689113
 30
0.0
 10
134.293972
 20
56.687487
 30
0.0
 10
134.295598
 20
56.685861
 30
0.0
  0
SPLINE
  5
175
100
AcDbEntity
  8
Ebene_1
 62
7
100
AcDbSpline
 70
8
 71
3
 72
8
 73
4
 74
0
 40
0
 40
0
 40
0
 40
0
 40
1
 40
1
 40
1
 40
1
 10
148.511353
 20
55.712423
 30
0.0
 10
149.408462
 20
55.712423
 30
0.0
 10
150.221192
 20
56.048312
 30
0.0
 10
150.872709
 20
56.682690
 30
0.0
  0
SPLINE
  5
176
100
AcDbEntity
  8
Ebene_1
 62
7
100
AcDbSpline
 70
8
 71
3
 72
8
 73
4
 74
0
 40
0
 40
0
 40
0
 40
0
 40
1
 40
1
 40
1
 40
1
 10
150.872709
 20
56.682690
 30
0.0
 10
151.528641
 20
57.321361
 30
0.0
 10
151.873149
 20
58.148962
 30
0.0
 10
151.873149
 20
59.075804
 30
0.0
  0
LWPOLYLINE
  5
177
100
AcDbEntity
  8
Ebene_1
 62
7
100
AcDbPolyline
 90
2
 70
0
 10
136.685535
 20
55.712423
 30
0.0
 10
148.511353
 20
55.712423
 30
0.0
  0
LWPOLYLINE
  5
178
100
AcDbEntity
  8
Ebene_1
 62
7
100
AcDbPolyline
 90
3
 70
0
 10
151.873149
 20
59.075804
 30
0.0
 10
151.873149
 20
59.482331
 30
0.0
 10
133.322079
 20
59.482404
 30
0.0
  0
SPLINE
  5
179
100
AcDbEntity
  8
Ebene_1
 62
7
100
AcDbSpline
 70
8
 71
3
 72
8
 73
4
 74
0
 40
0
 40
0
 40
0
 40
0
 40
1
 40
1
 40
1
 40
1
 10
133.322079
 20
64.987990
 30
0.0
 10
133.322079
 20
64.077304
 30
0.0
 10
133.656727
 20
63.255614
 30
0.0
 10
134.292346
 20
62.602820
 30
0.0
  0
LWPOLYLINE
  5
17a
100
AcDbEntity
  8
Ebene_1
 62
7
100
AcDbPolyline
 90
2
 70
0
 10
133.322079
 20
65.394518
 30
0.0
 10
133.322079
 20
64.987990
 30
0.0
  0
SPLINE
  5
17b
100
AcDbEntity
  8
Ebene_1
 62
7
100
AcDbSpline
 70
8
 71
3
 72
8
 73
4
 74
0
 40
0
 40
0
 40
0
 40
0
 40
1
 40
1
 40
1
 40
1
 10
134.295598
 20
62.597942
 30
0.0
 10
134.935237
 20
61.958295
 30
0.0
 10
135.761207
 20
61.624495
 30
0.0
 10
136.685535
 20
61.624495
 30
0.0
  0
LWPOLYLINE
  5
17c
100
AcDbEntity
  8
Ebene_1
 62
7
100
AcDbPolyline
 90
3
 70
0
 10
134.292346
 20
62.602820
 30
0.0
 10
134.293972
 20
62.601194
 30
0.0
 10
134.295598
 20
62.597942
 30
0.0
  0
SPLINE
  5
17d
100
AcDbEntity
  8
Ebene_1
 62
7
100
AcDbSpline
 70
8
 71
3
 72
8
 73
4
 74
0
 40
0
 40
0
 40
0
 40
0
 40
1
 40
1
 40
1
 40
1
 10
148.511353
 20
61.624495
 30
0.0
 10
149.408462
 20
61.624495
 30
0.0
 10
150.221192
 20
61.960385
 30
0.0
 10
150.872709
 20
62.594763
 30
0.0
  0
SPLINE
  5
17e
100
AcDbEntity
  8
Ebene_1
 62
7
100
AcDbSpline
 70
8
 71
3
 72
8
 73
4
 74
0
 40
0
 40
0
 40
0
 40
0
 40
1
 40
1
 40
1
 40
1
 10
150.872709
 20
62.594763
 30
0.0
 10
151.528641
 20
63.233442
 30
0.0
 10
151.873149
 20
64.061042
 30
0.0
 10
151.873149
 20
64.987876
 30
0.0
  0
LWPOLYLINE
  5
17f
100
AcDbEntity
  8
Ebene_1
 62
7
100
AcDbPolyline
 90
2
 70
0
 10
136.685535
 20
61.624495
 30
0.0
 10
148.511353
 20
61.624495
 30
0.0
  0
LWPOLYLINE
  5
180
100
AcDbEntity
  8
Ebene_1
 62
7
100
AcDbPolyline
 90
3
 70
0
 10
151.873149
 20
64.987876
 30
0.0
 10
151.873149
 20
65.394404
 30
0.0
 10
133.322079
 20
65.394518
 30
0.0
  0
SPLINE
  5
181
100
AcDbEntity
  8
Ebene_1
 62
7
100
AcDbSpline
 70
8
 71
3
 72
8
 73
4
 74
0
 40
0
 40
0
 40
0
 40
0
 40
1
 40
1
 40
1
 40
1
 10
133.322079
 20
70.900103
 30
0.0
 10
133.322079
 20
69.989425
 30
0.0
 10
133.656727
 20
69.167727
 30
0.0
 10
134.292346
 20
68.514933
 30
0.0
  0
LWPOLYLINE
  5
182
100
AcDbEntity
  8
Ebene_1
 62
7
100
AcDbPolyline
 90
2
 70
0
 10
133.322079
 20
71.306631
 30
0.0
 10
133.322079
 20
70.900103
 30
0.0
  0
SPLINE
  5
183
100
AcDbEntity
  8
Ebene_1
 62
7
100
AcDbSpline
 70
8
 71
3
 72
8
 73
4
 74
0
 40
0
 40
0
 40
0
 40
0
 40
1
 40
1
 40
1
 40
1
 10
134.295598
 20
68.511681
 30
0.0
 10
134.935237
 20
67.872043
 30
0.0
 10
135.761207
 20
67.538243
 30
0.0
 10
136.685535
 20
67.538243
 30
0.0
  0
LWPOLYLINE
  5
184
100
AcDbEntity
  8
Ebene_1
 62
7
100
AcDbPolyline
 90
3
 70
0
 10
134.292346
 20
68.514933
 30
0.0
 10
134.293972
 20
68.513307
 30
0.0
 10
134.295598
 20
68.511681
 30
0.0
  0
SPLINE
  5
185
100
AcDbEntity
  8
Ebene_1
 62
7
100
AcDbSpline
 70
8
 71
3
 72
8
 73
4
 74
0
 40
0
 40
0
 40
0
 40
0
 40
1
 40
1
 40
1
 40
1
 10
148.511353
 20
67.538243
 30
0.0
 10
149.408462
 20
67.538243
 30
0.0
 10
150.221192
 20
67.872547
 30
0.0
 10
150.872709
 20
68.506925
 30
0.0
  0
SPLINE
  5
186
100
AcDbEntity
  8
Ebene_1
 62
7
100
AcDbSpline
 70
8
 71
3
 72
8
 73
4
 74
0
 40
0
 40
0
 40
0
 40
0
 40
1
 40
1
 40
1
 40
1
 10
150.872709
 20
68.506925
 30
0.0
 10
151.528641
 20
69.145596
 30
0.0
 10
151.873149
 20
69.973196
 30
0.0
 10
151.873149
 20
70.900030
 30
0.0
  0
LWPOLYLINE
  5
187
100
AcDbEntity
  8
Ebene_1
 62
7
100
AcDbPolyline
 90
2
 70
0
 10
136.685535
 20
67.538243
 30
0.0
 10
148.511353
 20
67.538243
 30
0.0
  0
LWPOLYLINE
  5
188
100
AcDbEntity
  8
Ebene_1
 62
7
100
AcDbPolyline
 90
3
 70
0
 10
151.873149
 20
70.900030
 30
0.0
 10
151.873149
 20
71.306558
 30
0.0
 10
133.322079
 20
71.306631
 30
0.0
  0
SPLINE
  5
189
100
AcDbEntity
  8
Ebene_1
 62
7
100
AcDbSpline
 70
8
 71
3
 72
8
 73
4
 74
0
 40
0
 40
0
 40
0
 40
0
 40
1
 40
1
 40
1
 40
1
 10
154.016866
 20
70.900103
 30
0.0
 10
154.016866
 20
69.989425
 30
0.0
 10
154.351519
 20
69.167727
 30
0.0
 10
154.987133
 20
68.514933
 30
0.0
  0
LWPOLYLINE
  5
18a
100
AcDbEntity
  8
Ebene_1
 62
7
100
AcDbPolyline
 90
2
 70
0
 10
154.016866
 20
71.306631
 30
0.0
 10
154.016866
 20
70.900103
 30
0.0
  0
SPLINE
  5
18b
100
AcDbEntity
  8
Ebene_1
 62
7
100
AcDbSpline
 70
8
 71
3
 72
8
 73
4
 74
0
 40
0
 40
0
 40
0
 40
0
 40
1
 40
1
 40
1
 40
1
 10
154.990385
 20
68.511681
 30
0.0
 10
155.630024
 20
67.872043
 30
0.0
 10
156.455998
 20
67.538243
 30
0.0
 10
157.380320
 20
67.538243
 30
0.0
  0
LWPOLYLINE
  5
18c
100
AcDbEntity
  8
Ebene_1
 62
7
100
AcDbPolyline
 90
3
 70
0
 10
154.987133
 20
68.514933
 30
0.0
 10
154.988759
 20
68.513307
 30
0.0
 10
154.990385
 20
68.511681
 30
0.0
  0
SPLINE
  5
18d
100
AcDbEntity
  8
Ebene_1
 62
7
100
AcDbSpline
 70
8
 71
3
 72
8
 73
4
 74
0
 40
0
 40
0
 40
0
 40
0
 40
1
 40
1
 40
1
 40
1
 10
168.799620
 20
66.466344
 30
0.0
 10
168.799620
 20
66.148431
 30
0.0
 10
168.701184
 20
65.920581
 30
0.0
 10
168.480431
 20
65.697755
 30
0.0
  0
SPLINE
  5
18e
100
AcDbEntity
  8
Ebene_1
 62
7
100
AcDbSpline
 70
8
 71
3
 72
8
 73
4
 74
0
 40
0
 40
0
 40
0
 40
0
 40
1
 40
1
 40
1
 40
1
 10
168.480431
 20
65.697755
 30
0.0
 10
168.256825
 20
65.487889
 30
0.0
 10
168.031820
 20
65.394444
 30
0.0
 10
167.727721
 20
65.394444
 30
0.0
  0
LWPOLYLINE
  5
18f
100
AcDbEntity
  8
Ebene_1
 62
7
100
AcDbPolyline
 90
3
 70
0
 10
157.380320
 20
67.538243
 30
0.0
 10
168.799620
 20
67.538243
 30
0.0
 10
168.799620
 20
66.466344
 30
0.0
  0
SPLINE
  5
190
100
AcDbEntity
  8
Ebene_1
 62
7
100
AcDbSpline
 70
8
 71
3
 72
8
 73
4
 74
0
 40
0
 40
0
 40
0
 40
0
 40
1
 40
1
 40
1
 40
1
 10
169.206148
 20
61.624536
 30
0.0
 10
170.103248
 20
61.624536
 30
0.0
 10
170.915970
 20
61.960425
 30
0.0
 10
171.567495
 20
62.594803
 30
0.0
  0
SPLINE
  5
191
100
AcDbEntity
  8
Ebene_1
 62
7
100
AcDbSpline
 70
8
 71
3
 72
8
 73
4
 74
0
 40
0
 40
0
 40
0
 40
0
 40
1
 40
1
 40
1
 40
1
 10
171.567495
 20
62.594803
 30
0.0
 10
172.223436
 20
63.233483
 30
0.0
 10
172.567935
 20
64.061083
 30
0.0
 10
172.567935
 20
64.987917
 30
0.0
  0
LWPOLYLINE
  5
192
100
AcDbEntity
  8
Ebene_1
 62
7
100
AcDbPolyline
 90
11
 70
0
 10
167.727721
 20
65.394444
 30
0.0
 10
154.016939
 20
65.394444
 30
0.0
 10
154.016939
 20
55.712423
 30
0.0
 10
154.423467
 20
55.712423
 30
0.0
 10
157.786847
 20
55.712423
 30
0.0
 10
157.786847
 20
61.624536
 30
0.0
 10
161.645688
 20
61.624536
 30
0.0
 10
167.559386
 20
55.712423
 30
0.0
 10
173.142790
 20
55.712423
 30
0.0
 10
167.230676
 20
61.624536
 30
0.0
 10
169.206148
 20
61.624536
 30
0.0
  0
LWPOLYLINE
  5
193
100
AcDbEntity
  8
Ebene_1
 62
7
100
AcDbPolyline
 90
3
 70
0
 10
172.567935
 20
64.987917
 30
0.0
 10
172.567935
 20
71.306558
 30
0.0
 10
154.016866
 20
71.306631
 30
0.0
  0
SPLINE
  5
194
100
AcDbEntity
  8
Ebene_1
 62
7
100
AcDbSpline
 70
8
 71
3
 72
8
 73
4
 74
0
 40
0
 40
0
 40
0
 40
0
 40
1
 40
1
 40
1
 40
1
 10
174.711660
 20
59.075877
 30
0.0
 10
174.711660
 20
58.165190
 30
0.0
 10
175.046314
 20
57.341907
 30
0.0
 10
175.681928
 20
56.689113
 30
0.0
  0
LWPOLYLINE
  5
195
100
AcDbEntity
  8
Ebene_1
 62
7
100
AcDbPolyline
 90
2
 70
0
 10
174.711660
 20
59.482404
 30
0.0
 10
174.711660
 20
59.075877
 30
0.0
  0
SPLINE
  5
196
100
AcDbEntity
  8
Ebene_1
 62
7
100
AcDbSpline
 70
8
 71
3
 72
8
 73
4
 74
0
 40
0
 40
0
 40
0
 40
0
 40
1
 40
1
 40
1
 40
1
 10
175.685180
 20
56.685861
 30
0.0
 10
176.324827
 20
56.046223
 30
0.0
 10
177.150793
 20
55.712423
 30
0.0
 10
178.075123
 20
55.712423
 30
0.0
  0
LWPOLYLINE
  5
197
100
AcDbEntity
  8
Ebene_1
 62
7
100
AcDbPolyline
 90
3
 70
0
 10
175.681928
 20
56.689113
 30
0.0
 10
175.683554
 20
56.687487
 30
0.0
 10
175.685180
 20
56.685861
 30
0.0
  0
SPLINE
  5
198
100
AcDbEntity
  8
Ebene_1
 62
7
100
AcDbSpline
 70
8
 71
3
 72
8
 73
4
 74
0
 40
0
 40
0
 40
0
 40
0
 40
1
 40
1
 40
1
 40
1
 10
189.899357
 20
55.712423
 30
0.0
 10
190.796458
 20
55.712423
 30
0.0
 10
191.610781
 20
56.048312
 30
0.0
 10
192.262298
 20
56.682690
 30
0.0
  0
SPLINE
  5
199
100
AcDbEntity
  8
Ebene_1
 62
7
100
AcDbSpline
 70
8
 71
3
 72
8
 73
4
 74
0
 40
0
 40
0
 40
0
 40
0
 40
1
 40
1
 40
1
 40
1
 10
192.262298
 20
56.682690
 30
0.0
 10
192.918238
 20
57.321361
 30
0.0
 10
193.262738
 20
58.148962
 30
0.0
 10
193.262738
 20
59.075804
 30
0.0
  0
LWPOLYLINE
  5
19a
100
AcDbEntity
  8
Ebene_1
 62
7
100
AcDbPolyline
 90
2
 70
0
 10
178.075123
 20
55.712423
 30
0.0
 10
189.899357
 20
55.712423
 30
0.0
  0
LWPOLYLINE
  5
19b
100
AcDbEntity
  8
Ebene_1
 62
7
100
AcDbPolyline
 90
3
 70
0
 10
193.262738
 20
59.075804
 30
0.0
 10
193.262738
 20
59.482331
 30
0.0
 10
174.711660
 20
59.482404
 30
0.0
  0
SPLINE
  5
19c
100
AcDbEntity
  8
Ebene_1
 62
7
100
AcDbSpline
 70
8
 71
3
 72
8
 73
4
 74
0
 40
0
 40
0
 40
0
 40
0
 40
1
 40
1
 40
1
 40
1
 10
174.711660
 20
64.987990
 30
0.0
 10
174.711660
 20
64.077304
 30
0.0
 10
175.046314
 20
63.255614
 30
0.0
 10
175.681928
 20
62.602820
 30
0.0
  0
LWPOLYLINE
  5
19d
100
AcDbEntity
  8
Ebene_1
 62
7
100
AcDbPolyline
 90
2
 70
0
 10
174.711660
 20
65.394518
 30
0.0
 10
174.711660
 20
64.987990
 30
0.0
  0
SPLINE
  5
19e
100
AcDbEntity
  8
Ebene_1
 62
7
100
AcDbSpline
 70
8
 71
3
 72
8
 73
4
 74
0
 40
0
 40
0
 40
0
 40
0
 40
1
 40
1
 40
1
 40
1
 10
175.685180
 20
62.597942
 30
0.0
 10
176.324827
 20
61.958295
 30
0.0
 10
177.150793
 20
61.624495
 30
0.0
 10
178.075123
 20
61.624495
 30
0.0
  0
LWPOLYLINE
  5
19f
100
AcDbEntity
  8
Ebene_1
 62
7
100
AcDbPolyline
 90
3
 70
0
 10
175.681928
 20
62.602820
 30
0.0
 10
175.683554
 20
62.601194
 30
0.0
 10
175.685180
 20
62.597942
 30
0.0
  0
SPLINE
  5
1a0
100
AcDbEntity
  8
Ebene_1
 62
7
100
AcDbSpline
 70
8
 71
3
 72
8
 73
4
 74
0
 40
0
 40
0
 40
0
 40
0
 40
1
 40
1
 40
1
 40
1
 10
189.899357
 20
61.624495
 30
0.0
 10
190.796458
 20
61.624495
 30
0.0
 10
191.610781
 20
61.960385
 30
0.0
 10
192.262298
 20
62.594763
 30
0.0
  0
SPLINE
  5
1a1
100
AcDbEntity
  8
Ebene_1
 62
7
100
AcDbSpline
 70
8
 71
3
 72
8
 73
4
 74
0
 40
0
 40
0
 40
0
 40
0
 40
1
 40
1
 40
1
 40
1
 10
192.262298
 20
62.594763
 30
0.0
 10
192.918238
 20
63.233442
 30
0.0
 10
193.262738
 20
64.061042
 30
0.0
 10
193.262738
 20
64.987876
 30
0.0
  0
LWPOLYLINE
  5
1a2
100
AcDbEntity
  8
Ebene_1
 62
7
100
AcDbPolyline
 90
2
 70
0
 10
178.075123
 20
61.624495
 30
0.0
 10
189.899357
 20
61.624495
 30
0.0
  0
LWPOLYLINE
  5
1a3
100
AcDbEntity
  8
Ebene_1
 62
7
100
AcDbPolyline
 90
3
 70
0
 10
193.262738
 20
64.987876
 30
0.0
 10
193.262738
 20
65.394404
 30
0.0
 10
174.711660
 20
65.394518
 30
0.0
  0
SPLINE
  5
1a4
100
AcDbEntity
  8
Ebene_1
 62
7
100
AcDbSpline
 70
8
 71
3
 72
8
 73
4
 74
0
 40
0
 40
0
 40
0
 40
0
 40
1
 40
1
 40
1
 40
1
 10
174.711660
 20
70.900103
 30
0.0
 10
174.711660
 20
69.989425
 30
0.0
 10
175.046314
 20
69.167727
 30
0.0
 10
175.681928
 20
68.514933
 30
0.0
  0
LWPOLYLINE
  5
1a5
100
AcDbEntity
  8
Ebene_1
 62
7
100
AcDbPolyline
 90
2
 70
0
 10
174.711660
 20
71.306631
 30
0.0
 10
174.711660
 20
70.900103
 30
0.0
  0
SPLINE
  5
1a6
100
AcDbEntity
  8
Ebene_1
 62
7
100
AcDbSpline
 70
8
 71
3
 72
8
 73
4
 74
0
 40
0
 40
0
 40
0
 40
0
 40
1
 40
1
 40
1
 40
1
 10
175.685180
 20
68.511681
 30
0.0
 10
176.324827
 20
67.872043
 30
0.0
 10
177.150793
 20
67.538243
 30
0.0
 10
178.075123
 20
67.538243
 30
0.0
  0
LWPOLYLINE
  5
1a7
100
AcDbEntity
  8
Ebene_1
 62
7
100
AcDbPolyline
 90
3
 70
0
 10
175.681928
 20
68.514933
 30
0.0
 10
175.683554
 20
68.513307
 30
0.0
 10
175.685180
 20
68.511681
 30
0.0
  0
SPLINE
  5
1a8
100
AcDbEntity
  8
Ebene_1
 62
7
100
AcDbSpline
 70
8
 71
3
 72
8
 73
4
 74
0
 40
0
 40
0
 40
0
 40
0
 40
1
 40
1
 40
1
 40
1
 10
189.899357
 20
67.538243
 30
0.0
 10
190.796458
 20
67.538243
 30
0.0
 10
191.610781
 20
67.872547
 30
0.0
 10
192.262298
 20
68.506925
 30
0.0
  0
SPLINE
  5
1a9
100
AcDbEntity
  8
Ebene_1
 62
7
100
AcDbSpline
 70
8
 71
3
 72
8
 73
4
 74
0
 40
0
 40
0
 40
0
 40
0
 40
1
 40
1
 40
1
 40
1
 10
192.262298
 20
68.506925
 30
0.0
 10
192.918238
 20
69.145596
 30
0.0
 10
193.262738
 20
69.973196
 30
0.0
 10
193.262738
 20
70.900030
 30
0.0
  0
LWPOLYLINE
  5
1aa
100
AcDbEntity
  8
Ebene_1
 62
7
100
AcDbPolyline
 90
2
 70
0
 10
178.075123
 20
67.538243
 30
0.0
 10
189.899357
 20
67.538243
 30
0.0
  0
LWPOLYLINE
  5
1ab
100
AcDbEntity
  8
Ebene_1
 62
7
100
AcDbPolyline
 90
3
 70
0
 10
193.262738
 20
70.900030
 30
0.0
 10
193.262738
 20
71.306558
 30
0.0
 10
174.711660
 20
71.306631
 30
0.0
  0
LWPOLYLINE
  5
1ac
100
AcDbEntity
  8
Ebene_1
 62
7
100
AcDbPolyline
 90
9
 70
1
 10
206.168634
 20
241.821890
 30
0.0
 10
206.168634
 20
227.971021
 30
0.0
 10
206.668468
 20
227.971021
 30
0.0
 10
211.452029
 20
227.971021
 30
0.0
 10
211.452029
 20
236.538488
 30
0.0
 10
227.587300
 20
236.538488
 30
0.0
 10
227.587300
 20
227.971021
 30
0.0
 10
232.870706
 20
227.971021
 30
0.0
 10
232.870706
 20
241.821890
 30
0.0
  0
SPLINE
  5
1ad
100
AcDbEntity
  8
Ebene_1
 62
7
100
AcDbSpline
 70
8
 71
3
 72
8
 73
4
 74
0
 40
0
 40
0
 40
0
 40
0
 40
1
 40
1
 40
1
 40
1
 10
206.168634
 20
249.889523
 30
0.0
 10
206.168634
 20
248.590705
 30
0.0
 10
206.640537
 20
247.427168
 30
0.0
 10
207.547086
 20
246.496119
 30
0.0
  0
LWPOLYLINE
  5
1ae
100
AcDbEntity
  8
Ebene_1
 62
7
100
AcDbPolyline
 90
2
 70
0
 10
206.168634
 20
250.389357
 30
0.0
 10
206.168634
 20
249.889523
 30
0.0
  0
SPLINE
  5
1af
100
AcDbEntity
  8
Ebene_1
 62
7
100
AcDbSpline
 70
8
 71
3
 72
8
 73
4
 74
0
 40
0
 40
0
 40
0
 40
0
 40
1
 40
1
 40
1
 40
1
 10
207.553084
 20
246.492120
 30
0.0
 10
208.464581
 20
245.580628
 30
0.0
 10
209.633373
 20
245.105861
 30
0.0
 10
210.952345
 20
245.105861
 30
0.0
  0
LWPOLYLINE
  5
1b0
100
AcDbEntity
  8
Ebene_1
 62
7
100
AcDbPolyline
 90
3
 70
0
 10
207.547086
 20
246.496119
 30
0.0
 10
207.551084
 20
246.494119
 30
0.0
 10
207.553084
 20
246.492120
 30
0.0
  0
SPLINE
  5
1b1
100
AcDbEntity
  8
Ebene_1
 62
7
100
AcDbSpline
 70
8
 71
3
 72
8
 73
4
 74
0
 40
0
 40
0
 40
0
 40
0
 40
1
 40
1
 40
1
 40
1
 10
228.087284
 20
245.105861
 30
0.0
 10
229.366030
 20
245.105861
 30
0.0
 10
230.518017
 20
245.581242
 30
0.0
 10
231.447498
 20
246.486262
 30
0.0
  0
SPLINE
  5
1b2
100
AcDbEntity
  8
Ebene_1
 62
7
100
AcDbSpline
 70
8
 71
3
 72
8
 73
4
 74
0
 40
0
 40
0
 40
0
 40
0
 40
1
 40
1
 40
1
 40
1
 10
231.447498
 20
246.486262
 30
0.0
 10
232.382408
 20
247.396571
 30
0.0
 10
232.870856
 20
248.567369
 30
0.0
 10
232.870856
 20
249.889429
 30
0.0
  0
LWPOLYLINE
  5
1b3
100
AcDbEntity
  8
Ebene_1
 62
7
100
AcDbPolyline
 90
2
 70
0
 10
210.952345
 20
245.105861
 30
0.0
 10
228.087284
 20
245.105861
 30
0.0
  0
LWPOLYLINE
  5
1b4
100
AcDbEntity
  8
Ebene_1
 62
7
100
AcDbPolyline
 90
3
 70
0
 10
232.870856
 20
249.889429
 30
0.0
 10
232.870856
 20
250.389263
 30
0.0
 10
206.168634
 20
250.389357
 30
0.0
  0
SPLINE
  5
1b5
100
AcDbEntity
  8
Ebene_1
 62
7
100
AcDbSpline
 70
8
 71
3
 72
8
 73
4
 74
0
 40
0
 40
0
 40
0
 40
0
 40
1
 40
1
 40
1
 40
1
 10
73.021443
 20
249.889523
 30
0.0
 10
73.021443
 20
248.590705
 30
0.0
 10
73.495296
 20
247.427168
 30
0.0
 10
74.401845
 20
246.496119
 30
0.0
  0
LWPOLYLINE
  5
1b6
100
AcDbEntity
  8
Ebene_1
 62
7
100
AcDbPolyline
 90
2
 70
0
 10
73.021443
 20
250.389357
 30
0.0
 10
73.021443
 20
249.889523
 30
0.0
  0
SPLINE
  5
1b7
100
AcDbEntity
  8
Ebene_1
 62
7
100
AcDbSpline
 70
8
 71
3
 72
8
 73
4
 74
0
 40
0
 40
0
 40
0
 40
0
 40
1
 40
1
 40
1
 40
1
 10
74.405843
 20
246.492120
 30
0.0
 10
75.317341
 20
245.580627
 30
0.0
 10
76.486132
 20
245.105861
 30
0.0
 10
77.805104
 20
245.105861
 30
0.0
  0
LWPOLYLINE
  5
1b8
100
AcDbEntity
  8
Ebene_1
 62
7
100
AcDbPolyline
 90
3
 70
0
 10
74.401845
 20
246.496119
 30
0.0
 10
74.403844
 20
246.494119
 30
0.0
 10
74.405843
 20
246.492120
 30
0.0
  0
SPLINE
  5
1b9
100
AcDbEntity
  8
Ebene_1
 62
7
100
AcDbSpline
 70
8
 71
3
 72
8
 73
4
 74
0
 40
0
 40
0
 40
0
 40
0
 40
1
 40
1
 40
1
 40
1
 10
94.940044
 20
245.105955
 30
0.0
 10
96.218789
 20
245.105955
 30
0.0
 10
97.370776
 20
245.581336
 30
0.0
 10
98.300258
 20
246.486356
 30
0.0
  0
SPLINE
  5
1ba
100
AcDbEntity
  8
Ebene_1
 62
7
100
AcDbSpline
 70
8
 71
3
 72
8
 73
4
 74
0
 40
0
 40
0
 40
0
 40
0
 40
1
 40
1
 40
1
 40
1
 10
98.300258
 20
246.486356
 30
0.0
 10
99.235167
 20
247.396664
 30
0.0
 10
99.723605
 20
248.567462
 30
0.0
 10
99.723605
 20
249.889523
 30
0.0
  0
LWPOLYLINE
  5
1bb
100
AcDbEntity
  8
Ebene_1
 62
7
100
AcDbPolyline
 90
7
 70
0
 10
77.805104
 20
245.105861
 30
0.0
 10
83.730876
 20
245.105861
 30
0.0
 10
83.730876
 20
227.971021
 30
0.0
 10
84.230710
 20
227.971021
 30
0.0
 10
89.014272
 20
227.971021
 30
0.0
 10
89.014272
 20
245.105955
 30
0.0
 10
94.940044
 20
245.105955
 30
0.0
  0
LWPOLYLINE
  5
1bc
100
AcDbEntity
  8
Ebene_1
 62
7
100
AcDbPolyline
 90
3
 70
0
 10
99.723605
 20
249.889523
 30
0.0
 10
99.723605
 20
250.389357
 30
0.0
 10
73.021443
 20
250.389357
 30
0.0
  0
SPLINE
  5
1bd
100
AcDbEntity
  8
Ebene_1
 62
7
100
AcDbSpline
 70
8
 71
3
 72
8
 73
4
 74
0
 40
0
 40
0
 40
0
 40
0
 40
1
 40
1
 40
1
 40
1
 10
106.307269
 20
232.754588
 30
0.0
 10
106.307269
 20
231.455771
 30
0.0
 10
106.781121
 20
230.292234
 30
0.0
 10
107.687670
 20
229.361184
 30
0.0
  0
LWPOLYLINE
  5
1be
100
AcDbEntity
  8
Ebene_1
 62
7
100
AcDbPolyline
 90
2
 70
0
 10
106.307269
 20
233.254422
 30
0.0
 10
106.307269
 20
232.754588
 30
0.0
  0
SPLINE
  5
1bf
100
AcDbEntity
  8
Ebene_1
 62
7
100
AcDbSpline
 70
8
 71
3
 72
8
 73
4
 74
0
 40
0
 40
0
 40
0
 40
0
 40
1
 40
1
 40
1
 40
1
 10
107.691669
 20
229.355286
 30
0.0
 10
108.603156
 20
228.443793
 30
0.0
 10
109.771948
 20
227.970980
 30
0.0
 10
111.090930
 20
227.970980
 30
0.0
  0
LWPOLYLINE
  5
1c0
100
AcDbEntity
  8
Ebene_1
 62
7
100
AcDbPolyline
 90
3
 70
0
 10
107.687670
 20
229.361184
 30
0.0
 10
107.689669
 20
229.359185
 30
0.0
 10
107.691669
 20
229.355286
 30
0.0
  0
SPLINE
  5
1c1
100
AcDbEntity
  8
Ebene_1
 62
7
100
AcDbSpline
 70
8
 71
3
 72
8
 73
4
 74
0
 40
0
 40
0
 40
0
 40
0
 40
1
 40
1
 40
1
 40
1
 10
128.225859
 20
227.970980
 30
0.0
 10
129.504605
 20
227.970980
 30
0.0
 10
130.658551
 20
228.446361
 30
0.0
 10
131.588023
 20
229.351380
 30
0.0
  0
SPLINE
  5
1c2
100
AcDbEntity
  8
Ebene_1
 62
7
100
AcDbSpline
 70
8
 71
3
 72
8
 73
4
 74
0
 40
0
 40
0
 40
0
 40
0
 40
1
 40
1
 40
1
 40
1
 10
131.588023
 20
229.351380
 30
0.0
 10
132.522942
 20
230.261689
 30
0.0
 10
133.009431
 20
231.432486
 30
0.0
 10
133.009431
 20
232.754547
 30
0.0
  0
LWPOLYLINE
  5
1c3
100
AcDbEntity
  8
Ebene_1
 62
7
100
AcDbPolyline
 90
2
 70
0
 10
111.090930
 20
227.970980
 30
0.0
 10
128.225859
 20
227.970980
 30
0.0
  0
LWPOLYLINE
  5
1c4
100
AcDbEntity
  8
Ebene_1
 62
7
100
AcDbPolyline
 90
3
 70
0
 10
133.009431
 20
232.754547
 30
0.0
 10
133.009431
 20
233.254381
 30
0.0
 10
106.307269
 20
233.254422
 30
0.0
  0
SPLINE
  5
1c5
100
AcDbEntity
  8
Ebene_1
 62
7
100
AcDbSpline
 70
8
 71
3
 72
8
 73
4
 74
0
 40
0
 40
0
 40
0
 40
0
 40
1
 40
1
 40
1
 40
1
 10
106.307269
 20
241.322056
 30
0.0
 10
106.307269
 20
240.023237
 30
0.0
 10
106.781121
 20
238.859702
 30
0.0
 10
107.687670
 20
237.928652
 30
0.0
  0
LWPOLYLINE
  5
1c6
100
AcDbEntity
  8
Ebene_1
 62
7
100
AcDbPolyline
 90
2
 70
0
 10
106.307269
 20
241.821890
 30
0.0
 10
106.307269
 20
241.322056
 30
0.0
  0
SPLINE
  5
1c7
100
AcDbEntity
  8
Ebene_1
 62
7
100
AcDbSpline
 70
8
 71
3
 72
8
 73
4
 74
0
 40
0
 40
0
 40
0
 40
0
 40
1
 40
1
 40
1
 40
1
 10
107.691669
 20
237.922754
 30
0.0
 10
108.603156
 20
237.011262
 30
0.0
 10
109.771948
 20
236.538448
 30
0.0
 10
111.090930
 20
236.538448
 30
0.0
  0
LWPOLYLINE
  5
1c8
100
AcDbEntity
  8
Ebene_1
 62
7
100
AcDbPolyline
 90
3
 70
0
 10
107.687670
 20
237.928652
 30
0.0
 10
107.689669
 20
237.926653
 30
0.0
 10
107.691669
 20
237.922754
 30
0.0
  0
SPLINE
  5
1c9
100
AcDbEntity
  8
Ebene_1
 62
7
100
AcDbSpline
 70
8
 71
3
 72
8
 73
4
 74
0
 40
0
 40
0
 40
0
 40
0
 40
1
 40
1
 40
1
 40
1
 10
128.225859
 20
236.538448
 30
0.0
 10
129.504605
 20
236.538448
 30
0.0
 10
130.658551
 20
237.013829
 30
0.0
 10
131.588023
 20
237.918849
 30
0.0
  0
SPLINE
  5
1ca
100
AcDbEntity
  8
Ebene_1
 62
7
100
AcDbSpline
 70
8
 71
3
 72
8
 73
4
 74
0
 40
0
 40
0
 40
0
 40
0
 40
1
 40
1
 40
1
 40
1
 10
131.588023
 20
237.918849
 30
0.0
 10
132.522942
 20
238.829158
 30
0.0
 10
133.009431
 20
239.999955
 30
0.0
 10
133.009431
 20
241.322016
 30
0.0
  0
LWPOLYLINE
  5
1cb
100
AcDbEntity
  8
Ebene_1
 62
7
100
AcDbPolyline
 90
2
 70
0
 10
111.090930
 20
236.538448
 30
0.0
 10
128.225859
 20
236.538448
 30
0.0
  0
LWPOLYLINE
  5
1cc
100
AcDbEntity
  8
Ebene_1
 62
7
100
AcDbPolyline
 90
3
 70
0
 10
133.009431
 20
241.322016
 30
0.0
 10
133.009431
 20
241.821850
 30
0.0
 10
106.307269
 20
241.821890
 30
0.0
  0
SPLINE
  5
1cd
100
AcDbEntity
  8
Ebene_1
 62
7
100
AcDbSpline
 70
8
 71
3
 72
8
 73
4
 74
0
 40
0
 40
0
 40
0
 40
0
 40
1
 40
1
 40
1
 40
1
 10
106.307269
 20
249.889523
 30
0.0
 10
106.307269
 20
248.590705
 30
0.0
 10
106.781121
 20
247.427168
 30
0.0
 10
107.687670
 20
246.496119
 30
0.0
  0
LWPOLYLINE
  5
1ce
100
AcDbEntity
  8
Ebene_1
 62
7
100
AcDbPolyline
 90
2
 70
0
 10
106.307269
 20
250.389357
 30
0.0
 10
106.307269
 20
249.889523
 30
0.0
  0
SPLINE
  5
1cf
100
AcDbEntity
  8
Ebene_1
 62
7
100
AcDbSpline
 70
8
 71
3
 72
8
 73
4
 74
0
 40
0
 40
0
 40
0
 40
0
 40
1
 40
1
 40
1
 40
1
 10
107.691669
 20
246.492120
 30
0.0
 10
108.603156
 20
245.580627
 30
0.0
 10
109.771948
 20
245.105861
 30
0.0
 10
111.090930
 20
245.105861
 30
0.0
  0
LWPOLYLINE
  5
1d0
100
AcDbEntity
  8
Ebene_1
 62
7
100
AcDbPolyline
 90
3
 70
0
 10
107.687670
 20
246.496119
 30
0.0
 10
107.689669
 20
246.494119
 30
0.0
 10
107.691669
 20
246.492120
 30
0.0
  0
SPLINE
  5
1d1
100
AcDbEntity
  8
Ebene_1
 62
7
100
AcDbSpline
 70
8
 71
3
 72
8
 73
4
 74
0
 40
0
 40
0
 40
0
 40
0
 40
1
 40
1
 40
1
 40
1
 10
128.225859
 20
245.105861
 30
0.0
 10
129.504605
 20
245.105861
 30
0.0
 10
130.658551
 20
245.581242
 30
0.0
 10
131.588023
 20
246.486262
 30
0.0
  0
SPLINE
  5
1d2
100
AcDbEntity
  8
Ebene_1
 62
7
100
AcDbSpline
 70
8
 71
3
 72
8
 73
4
 74
0
 40
0
 40
0
 40
0
 40
0
 40
1
 40
1
 40
1
 40
1
 10
131.588023
 20
246.486262
 30
0.0
 10
132.522942
 20
247.396570
 30
0.0
 10
133.009431
 20
248.567368
 30
0.0
 10
133.009431
 20
249.889429
 30
0.0
  0
LWPOLYLINE
  5
1d3
100
AcDbEntity
  8
Ebene_1
 62
7
100
AcDbPolyline
 90
2
 70
0
 10
111.090930
 20
245.105861
 30
0.0
 10
128.225859
 20
245.105861
 30
0.0
  0
LWPOLYLINE
  5
1d4
100
AcDbEntity
  8
Ebene_1
 62
7
100
AcDbPolyline
 90
3
 70
0
 10
133.009431
 20
249.889429
 30
0.0
 10
133.009431
 20
250.389263
 30
0.0
 10
106.307269
 20
250.389357
 30
0.0
  0
SPLINE
  5
1d5
100
AcDbEntity
  8
Ebene_1
 62
7
100
AcDbSpline
 70
8
 71
3
 72
8
 73
4
 74
0
 40
0
 40
0
 40
0
 40
0
 40
1
 40
1
 40
1
 40
1
 10
144.378605
 20
233.254422
 30
0.0
 10
143.076647
 20
233.254422
 30
0.0
 10
141.909335
 20
232.766916
 30
0.0
 10
140.979344
 20
231.836925
 30
0.0
  0
SPLINE
  5
1d6
100
AcDbEntity
  8
Ebene_1
 62
7
100
AcDbSpline
 70
8
 71
3
 72
8
 73
4
 74
0
 40
0
 40
0
 40
0
 40
0
 40
1
 40
1
 40
1
 40
1
 10
140.979344
 20
231.836925
 30
0.0
 10
140.069446
 20
230.927023
 30
0.0
 10
139.595043
 20
229.769673
 30
0.0
 10
139.595043
 20
228.470855
 30
0.0
  0
LWPOLYLINE
  5
1d7
100
AcDbEntity
  8
Ebene_1
 62
7
100
AcDbPolyline
 90
5
 70
0
 10
139.595043
 20
250.389357
 30
0.0
 10
139.595043
 20
236.538488
 30
0.0
 10
161.013710
 20
236.538488
 30
0.0
 10
161.013710
 20
233.254422
 30
0.0
 10
144.378605
 20
233.254422
 30
0.0
  0
SPLINE
  5
1d8
100
AcDbEntity
  8
Ebene_1
 62
7
100
AcDbSpline
 70
8
 71
3
 72
8
 73
4
 74
0
 40
0
 40
0
 40
0
 40
0
 40
1
 40
1
 40
1
 40
1
 10
161.513544
 20
245.105955
 30
0.0
 10
162.792289
 20
245.105955
 30
0.0
 10
163.944277
 20
245.581336
 30
0.0
 10
164.873758
 20
246.486356
 30
0.0
  0
SPLINE
  5
1d9
100
AcDbEntity
  8
Ebene_1
 62
7
100
AcDbSpline
 70
8
 71
3
 72
8
 73
4
 74
0
 40
0
 40
0
 40
0
 40
0
 40
1
 40
1
 40
1
 40
1
 10
164.873758
 20
246.486356
 30
0.0
 10
165.808668
 20
247.396665
 30
0.0
 10
166.297105
 20
248.567463
 30
0.0
 10
166.297105
 20
249.889523
 30
0.0
  0
LWPOLYLINE
  5
1da
100
AcDbEntity
  8
Ebene_1
 62
7
100
AcDbPolyline
 90
8
 70
0
 10
139.595043
 20
228.470855
 30
0.0
 10
139.595043
 20
227.971021
 30
0.0
 10
140.094877
 20
227.971021
 30
0.0
 10
166.297105
 20
227.971021
 30
0.0
 10
166.297105
 20
241.821890
 30
0.0
 10
144.878439
 20
241.821890
 30
0.0
 10
144.878439
 20
245.105955
 30
0.0
 10
161.513544
 20
245.105955
 30
0.0
  0
LWPOLYLINE
  5
1db
100
AcDbEntity
  8
Ebene_1
 62
7
100
AcDbPolyline
 90
3
 70
0
 10
166.297105
 20
249.889523
 30
0.0
 10
166.297105
 20
250.389357
 30
0.0
 10
139.595043
 20
250.389357
 30
0.0
  0
SPLINE
  5
1dc
100
AcDbEntity
  8
Ebene_1
 62
7
100
AcDbSpline
 70
8
 71
3
 72
8
 73
4
 74
0
 40
0
 40
0
 40
0
 40
0
 40
1
 40
1
 40
1
 40
1
 10
194.799359
 20
227.971021
 30
0.0
 10
196.078105
 20
227.971021
 30
0.0
 10
197.232052
 20
228.446402
 30
0.0
 10
198.161523
 20
229.351421
 30
0.0
  0
SPLINE
  5
1dd
100
AcDbEntity
  8
Ebene_1
 62
7
100
AcDbSpline
 70
8
 71
3
 72
8
 73
4
 74
0
 40
0
 40
0
 40
0
 40
0
 40
1
 40
1
 40
1
 40
1
 10
198.161523
 20
229.351421
 30
0.0
 10
199.096432
 20
230.261731
 30
0.0
 10
199.582931
 20
231.432528
 30
0.0
 10
199.582931
 20
232.754588
 30
0.0
  0
LWPOLYLINE
  5
1de
100
AcDbEntity
  8
Ebene_1
 62
7
100
AcDbPolyline
 90
4
 70
0
 10
172.880859
 20
250.389357
 30
0.0
 10
172.880859
 20
227.971021
 30
0.0
 10
173.380693
 20
227.971021
 30
0.0
 10
194.799359
 20
227.971021
 30
0.0
  0
LWPOLYLINE
  5
1df
100
AcDbEntity
  8
Ebene_1
 62
7
100
AcDbPolyline
 90
5
 70
0
 10
199.582931
 20
232.754588
 30
0.0
 10
199.582931
 20
233.254422
 30
0.0
 10
178.164264
 20
233.254422
 30
0.0
 10
178.164264
 20
250.389357
 30
0.0
 10
172.880859
 20
250.389357
 30
0.0
  0
ENDSEC
  0
SECTION
  2
OBJECTS
  0
DICTIONARY
  5
C
330
0
100
AcDbDictionary
  3
ACAD_GROUP
350
D
  3
ACAD_MLINESTYLE
350
17
  0
DICTIONARY
  5
D
330
C
100
AcDbDictionary
  0
DICTIONARY
  5
1A
330
C
100
AcDbDictionary
  0
DICTIONARY
  5
17
330
C
100
AcDbDictionary
  3
STANDARD
350
18
  0
DICTIONARY
  5
19
330
C
100
AcDbDictionary
  0
ENDSEC
  0
EOF
