  0
SECTION
  2
HEADER
  9
$ACADVER
  1
AC1014
  9
$HANDSEED
  5
FFFF
  9
$MEASUREMENT
 70
     1
  0
ENDSEC
  0
SECTION
  2
TABLES
  0
TABLE
  2
VPORT
  5
8
330
0
100
AcDbSymbolTable
 70
     4
  0
VPORT
  5
2E
330
8
100
AcDbSymbolTableRecord
100
AcDbViewportTableRecord
  2
*ACTIVE
 70
     0
 10
0.0
 20
0.0
 11
1.0
 21
1.0
 12
210.0
 22
148.5
 13
0.0
 23
0.0
 14
10.0
 24
10.0
 15
10.0
 25
10.0
 16
0.0
 26
0.0
 36
1.0
 17
0.0
 27
0.0
 37
0.0
 40
341.0
 41
1.24
 42
50.0
 43
0.0
 44
0.0
 50
0.0
 51
0.0
 71
     0
 72
   100
 73
     1
 74
     3
 75
     0
 76
     0
 77
     0
 78
     0
  0
ENDTAB
  0
TABLE
  2
LTYPE
  5
5
330
0
100
AcDbSymbolTable
 70
     1
  0
LTYPE
  5
14
330
5
100
AcDbSymbolTableRecord
100
AcDbLinetypeTableRecord
  2
BYBLOCK
 70
     0
  3

 72
    65
 73
     0
 40
0.0
  0
LTYPE
  5
15
330
5
100
AcDbSymbolTableRecord
100
AcDbLinetypeTableRecord
  2
BYLAYER
 70
     0
  3

 72
    65
 73
     0
 40
0.0
  0
LTYPE
  5
16
330
5
100
AcDbSymbolTableRecord
100
AcDbLinetypeTableRecord
  2
CONTINUOUS
 70
     0
  3
Solid line
 72
    65
 73
     0
 40
0.0
  0
ENDTAB
  0
TABLE
  2
LAYER
  5
2
100
AcDbSymbolTable
 70
2
  0
LAYER
  5
50
100
AcDbSymbolTableRecord
100
AcDbLayerTableRecord
  2
0
 70
0
  6
CONTINUOUS
  0
LAYER
  5
51
100
AcDbSymbolTableRecord
100
AcDbLayerTableRecord
  2
Ebene_1
 70
0
  6
CONTINUOUS
  0
ENDTAB
  0
TABLE
  2
STYLE
  5
3
330
0
100
AcDbSymbolTable
 70
     1
  0
STYLE
  5
11
330
3
100
AcDbSymbolTableRecord
100
AcDbTextStyleTableRecord
  2
STANDARD
 70
     0
 40
0.0
 41
1.0
 50
0.0
 71
     0
 42
2.5
  3
txt
  4

  0
ENDTAB
  0
TABLE
  2
VIEW
  5
6
330
0
100
AcDbSymbolTable
 70
     0
  0
ENDTAB
  0
TABLE
  2
UCS
  5
7
330
0
100
AcDbSymbolTable
 70
     0
  0
ENDTAB
  0
TABLE
  2
APPID
  5
9
330
0
100
AcDbSymbolTable
 70
     2
  0
APPID
  5
12
330
9
100
AcDbSymbolTableRecord
100
AcDbRegAppTableRecord
  2
ACAD
 70
     0
  0
ENDTAB
  0
TABLE
  2
DIMSTYLE
  5
A
330
0
100
AcDbSymbolTable
 70
     1
  0
DIMSTYLE
105
27
330
A
100
AcDbSymbolTableRecord
100
AcDbDimStyleTableRecord
  2
ISO-25
 70
     0
  3

  4

  5

  6

  7

 40
1.0
 41
2.5
 42
0.625
 43
3.75
 44
1.25
 45
0.0
 46
0.0
 47
0.0
 48
0.0
140
2.5
141
2.5
142
0.0
143
0.03937007874016
144
1.0
145
0.0
146
1.0
147
0.625
 71
     0
 72
     0
 73
     0
 74
     0
 75
     0
 76
     0
 77
     1
 78
     8
170
     0
171
     3
172
     1
173
     0
174
     0
175
     0
176
     0
177
     0
178
     0
270
     2
271
     2
272
     2
273
     2
274
     3
340
11
275
     0
280
     0
281
     0
282
     0
283
     0
284
     8
285
     0
286
     0
287
     3
288
     0
  0
ENDTAB
  0
TABLE
  2
BLOCK_RECORD
  5
1
330
0
100
AcDbSymbolTable
 70
     1
  0
BLOCK_RECORD
  5
1F
330
1
100
AcDbSymbolTableRecord
100
AcDbBlockTableRecord
  2
*MODEL_SPACE
  0
BLOCK_RECORD
  5
1B
330
1
100
AcDbSymbolTableRecord
100
AcDbBlockTableRecord
  2
*PAPER_SPACE
  0
ENDTAB
  0
ENDSEC
  0
SECTION
  2
BLOCKS
  0
BLOCK
  5
20
330
1F
100
AcDbEntity
  8
0
100
AcDbBlockBegin
  2
*MODEL_SPACE
 70
     0
 10
0.0
 20
0.0
 30
0.0
  3
*MODEL_SPACE
  1

  0
ENDBLK
  5
21
330
1F
100
AcDbEntity
  8
0
100
AcDbBlockEnd
  0
BLOCK
  5
1C
330
1B
100
AcDbEntity
 67
     1
  8
0
100
AcDbBlockBegin
  2
*PAPER_SPACE
  1

  0
ENDBLK
  5
1D
330
1B
100
AcDbEntity
 67
     1
  8
0
100
AcDbBlockEnd
  0
ENDSEC
  0
SECTION
  2
ENTITIES
  0
SPLINE
  5
100
100
AcDbEntity
  8
Ebene_1
 62
7
100
AcDbSpline
 70
8
 71
3
 72
8
 73
4
 74
0
 40
0
 40
0
 40
0
 40
0
 40
1
 40
1
 40
1
 40
1
 10
-193.039250
 20
290.011025
 30
0.0
 10
-212.333820
 20
290.011025
 30
0.0
 10
-227.974470
 20
274.391483
 30
0.0
 10
-227.974470
 20
255.122970
 30
0.0
  0
LWPOLYLINE
  5
101
100
AcDbEntity
  8
Ebene_1
 62
7
100
AcDbPolyline
 90
4
 70
1
 10
-239.800000
 20
300.000000
 30
0.0
 10
-20.199997
 20
300.000000
 30
0.0
 10
-20.199997
 20
0.400020
 30
0.0
 10
-239.800000
 20
0.400020
 30
0.0
  0
SPLINE
  5
102
100
AcDbEntity
  8
Ebene_1
 62
7
100
AcDbSpline
 70
8
 71
3
 72
8
 73
4
 74
0
 40
0
 40
0
 40
0
 40
0
 40
1
 40
1
 40
1
 40
1
 10
-227.974470
 20
45.277060
 30
0.0
 10
-227.974470
 20
26.008540
 30
0.0
 10
-212.333820
 20
10.389000
 30
0.0
 10
-193.039250
 20
10.389000
 30
0.0
  0
LWPOLYLINE
  5
103
100
AcDbEntity
  8
Ebene_1
 62
7
100
AcDbPolyline
 90
2
 70
0
 10
-227.974470
 20
255.122970
 30
0.0
 10
-227.974470
 20
45.277060
 30
0.0
  0
SPLINE
  5
104
100
AcDbEntity
  8
Ebene_1
 62
7
100
AcDbSpline
 70
8
 71
3
 72
8
 73
4
 74
0
 40
0
 40
0
 40
0
 40
0
 40
1
 40
1
 40
1
 40
1
 10
-66.960744
 20
10.389000
 30
0.0
 10
-47.666178
 20
10.389000
 30
0.0
 10
-32.025530
 20
26.008540
 30
0.0
 10
-32.025530
 20
45.277060
 30
0.0
  0
LWPOLYLINE
  5
105
100
AcDbEntity
  8
Ebene_1
 62
7
100
AcDbPolyline
 90
2
 70
0
 10
-193.039250
 20
10.389000
 30
0.0
 10
-66.960744
 20
10.389000
 30
0.0
  0
SPLINE
  5
106
100
AcDbEntity
  8
Ebene_1
 62
7
100
AcDbSpline
 70
8
 71
3
 72
8
 73
4
 74
0
 40
0
 40
0
 40
0
 40
0
 40
1
 40
1
 40
1
 40
1
 10
-32.025530
 20
255.122970
 30
0.0
 10
-32.025530
 20
274.391483
 30
0.0
 10
-47.666178
 20
290.011025
 30
0.0
 10
-66.960744
 20
290.011025
 30
0.0
  0
LWPOLYLINE
  5
107
100
AcDbEntity
  8
Ebene_1
 62
7
100
AcDbPolyline
 90
2
 70
0
 10
-32.025530
 20
45.277060
 30
0.0
 10
-32.025530
 20
255.122970
 30
0.0
  0
LWPOLYLINE
  5
108
100
AcDbEntity
  8
Ebene_1
 62
7
100
AcDbPolyline
 90
2
 70
0
 10
-66.960744
 20
290.011025
 30
0.0
 10
-193.039250
 20
290.011025
 30
0.0
  0
SPLINE
  5
109
100
AcDbEntity
  8
Ebene_1
 62
7
100
AcDbSpline
 70
8
 71
3
 72
8
 73
4
 74
0
 40
0
 40
0
 40
0
 40
0
 40
1
 40
1
 40
1
 40
1
 10
-66.960745
 20
283.190976
 30
0.0
 10
-51.331465
 20
283.190976
 30
0.0
 10
-38.854799
 20
270.731142
 30
0.0
 10
-38.854799
 20
255.122970
 30
0.0
  0
LWPOLYLINE
  5
10a
100
AcDbEntity
  8
Ebene_1
 62
7
100
AcDbPolyline
 90
2
 70
0
 10
-193.039250
 20
283.190976
 30
0.0
 10
-66.960745
 20
283.190976
 30
0.0
  0
SPLINE
  5
10b
100
AcDbEntity
  8
Ebene_1
 62
7
100
AcDbSpline
 70
8
 71
3
 72
8
 73
4
 74
0
 40
0
 40
0
 40
0
 40
0
 40
1
 40
1
 40
1
 40
1
 10
-38.854799
 20
45.277060
 30
0.0
 10
-38.854799
 20
29.668880
 30
0.0
 10
-51.331465
 20
17.209060
 30
0.0
 10
-66.960745
 20
17.209060
 30
0.0
  0
LWPOLYLINE
  5
10c
100
AcDbEntity
  8
Ebene_1
 62
7
100
AcDbPolyline
 90
2
 70
0
 10
-38.854799
 20
255.122970
 30
0.0
 10
-38.854799
 20
45.277060
 30
0.0
  0
SPLINE
  5
10d
100
AcDbEntity
  8
Ebene_1
 62
7
100
AcDbSpline
 70
8
 71
3
 72
8
 73
4
 74
0
 40
0
 40
0
 40
0
 40
0
 40
1
 40
1
 40
1
 40
1
 10
-193.039250
 20
17.209060
 30
0.0
 10
-208.668540
 20
17.209060
 30
0.0
 10
-221.145200
 20
29.668880
 30
0.0
 10
-221.145200
 20
45.277060
 30
0.0
  0
LWPOLYLINE
  5
10e
100
AcDbEntity
  8
Ebene_1
 62
7
100
AcDbPolyline
 90
2
 70
0
 10
-66.960745
 20
17.209060
 30
0.0
 10
-193.039250
 20
17.209060
 30
0.0
  0
SPLINE
  5
10f
100
AcDbEntity
  8
Ebene_1
 62
7
100
AcDbSpline
 70
8
 71
3
 72
8
 73
4
 74
0
 40
0
 40
0
 40
0
 40
0
 40
1
 40
1
 40
1
 40
1
 10
-221.145200
 20
255.122970
 30
0.0
 10
-221.145200
 20
270.731142
 30
0.0
 10
-208.668540
 20
283.190976
 30
0.0
 10
-193.039250
 20
283.190976
 30
0.0
  0
LWPOLYLINE
  5
110
100
AcDbEntity
  8
Ebene_1
 62
7
100
AcDbPolyline
 90
2
 70
0
 10
-221.145200
 20
45.277060
 30
0.0
 10
-221.145200
 20
255.122970
 30
0.0
  0
SPLINE
  5
111
100
AcDbEntity
  8
Ebene_1
 62
7
100
AcDbSpline
 70
8
 71
3
 72
8
 73
4
 74
0
 40
0
 40
0
 40
0
 40
0
 40
1
 40
1
 40
1
 40
1
 10
-205.145826
 20
32.511025
 30
0.0
 10
-205.145826
 20
31.847984
 30
0.0
 10
-205.409218
 20
31.212099
 30
0.0
 10
-205.878059
 20
30.743258
 30
0.0
  0
SPLINE
  5
112
100
AcDbEntity
  8
Ebene_1
 62
7
100
AcDbSpline
 70
8
 71
3
 72
8
 73
4
 74
0
 40
0
 40
0
 40
0
 40
0
 40
1
 40
1
 40
1
 40
1
 10
-205.878059
 20
30.743258
 30
0.0
 10
-206.346900
 20
30.274417
 30
0.0
 10
-206.982785
 20
30.011025
 30
0.0
 10
-207.645826
 20
30.011025
 30
0.0
  0
SPLINE
  5
113
100
AcDbEntity
  8
Ebene_1
 62
7
100
AcDbSpline
 70
8
 71
3
 72
8
 73
4
 74
0
 40
0
 40
0
 40
0
 40
0
 40
1
 40
1
 40
1
 40
1
 10
-207.645826
 20
30.011025
 30
0.0
 10
-208.308867
 20
30.011025
 30
0.0
 10
-208.944752
 20
30.274417
 30
0.0
 10
-209.413593
 20
30.743258
 30
0.0
  0
SPLINE
  5
114
100
AcDbEntity
  8
Ebene_1
 62
7
100
AcDbSpline
 70
8
 71
3
 72
8
 73
4
 74
0
 40
0
 40
0
 40
0
 40
0
 40
1
 40
1
 40
1
 40
1
 10
-209.413593
 20
30.743258
 30
0.0
 10
-209.882434
 20
31.212099
 30
0.0
 10
-210.145826
 20
31.847984
 30
0.0
 10
-210.145826
 20
32.511025
 30
0.0
  0
SPLINE
  5
115
100
AcDbEntity
  8
Ebene_1
 62
7
100
AcDbSpline
 70
8
 71
3
 72
8
 73
4
 74
0
 40
0
 40
0
 40
0
 40
0
 40
1
 40
1
 40
1
 40
1
 10
-210.145826
 20
32.511025
 30
0.0
 10
-210.145826
 20
33.174066
 30
0.0
 10
-209.882434
 20
33.809951
 30
0.0
 10
-209.413593
 20
34.278792
 30
0.0
  0
SPLINE
  5
116
100
AcDbEntity
  8
Ebene_1
 62
7
100
AcDbSpline
 70
8
 71
3
 72
8
 73
4
 74
0
 40
0
 40
0
 40
0
 40
0
 40
1
 40
1
 40
1
 40
1
 10
-209.413593
 20
34.278792
 30
0.0
 10
-208.944752
 20
34.747633
 30
0.0
 10
-208.308867
 20
35.011025
 30
0.0
 10
-207.645826
 20
35.011025
 30
0.0
  0
SPLINE
  5
117
100
AcDbEntity
  8
Ebene_1
 62
7
100
AcDbSpline
 70
8
 71
3
 72
8
 73
4
 74
0
 40
0
 40
0
 40
0
 40
0
 40
1
 40
1
 40
1
 40
1
 10
-207.645826
 20
35.011025
 30
0.0
 10
-206.982785
 20
35.011025
 30
0.0
 10
-206.346900
 20
34.747633
 30
0.0
 10
-205.878059
 20
34.278792
 30
0.0
  0
SPLINE
  5
118
100
AcDbEntity
  8
Ebene_1
 62
7
100
AcDbSpline
 70
8
 71
3
 72
8
 73
4
 74
0
 40
0
 40
0
 40
0
 40
0
 40
1
 40
1
 40
1
 40
1
 10
-205.878059
 20
34.278792
 30
0.0
 10
-205.409218
 20
33.809951
 30
0.0
 10
-205.145826
 20
33.174066
 30
0.0
 10
-205.145826
 20
32.511025
 30
0.0
  0
LWPOLYLINE
  5
119
100
AcDbEntity
  8
Ebene_1
 62
7
100
AcDbPolyline
 90
1
 70
1
 10
-193.039250
 20
283.190976
 30
0.0
  0
SPLINE
  5
11a
100
AcDbEntity
  8
Ebene_1
 62
7
100
AcDbSpline
 70
8
 71
3
 72
8
 73
4
 74
0
 40
0
 40
0
 40
0
 40
0
 40
1
 40
1
 40
1
 40
1
 10
-50.232146
 20
32.802685
 30
0.0
 10
-50.232146
 20
32.139644
 30
0.0
 10
-50.495538
 20
31.503759
 30
0.0
 10
-50.964379
 20
31.034918
 30
0.0
  0
SPLINE
  5
11b
100
AcDbEntity
  8
Ebene_1
 62
7
100
AcDbSpline
 70
8
 71
3
 72
8
 73
4
 74
0
 40
0
 40
0
 40
0
 40
0
 40
1
 40
1
 40
1
 40
1
 10
-50.964379
 20
31.034918
 30
0.0
 10
-51.433220
 20
30.566077
 30
0.0
 10
-52.069105
 20
30.302685
 30
0.0
 10
-52.732146
 20
30.302685
 30
0.0
  0
SPLINE
  5
11c
100
AcDbEntity
  8
Ebene_1
 62
7
100
AcDbSpline
 70
8
 71
3
 72
8
 73
4
 74
0
 40
0
 40
0
 40
0
 40
0
 40
1
 40
1
 40
1
 40
1
 10
-52.732146
 20
30.302685
 30
0.0
 10
-53.395187
 20
30.302685
 30
0.0
 10
-54.031072
 20
30.566077
 30
0.0
 10
-54.499913
 20
31.034918
 30
0.0
  0
SPLINE
  5
11d
100
AcDbEntity
  8
Ebene_1
 62
7
100
AcDbSpline
 70
8
 71
3
 72
8
 73
4
 74
0
 40
0
 40
0
 40
0
 40
0
 40
1
 40
1
 40
1
 40
1
 10
-54.499913
 20
31.034918
 30
0.0
 10
-54.968754
 20
31.503759
 30
0.0
 10
-55.232146
 20
32.139644
 30
0.0
 10
-55.232146
 20
32.802685
 30
0.0
  0
SPLINE
  5
11e
100
AcDbEntity
  8
Ebene_1
 62
7
100
AcDbSpline
 70
8
 71
3
 72
8
 73
4
 74
0
 40
0
 40
0
 40
0
 40
0
 40
1
 40
1
 40
1
 40
1
 10
-55.232146
 20
32.802685
 30
0.0
 10
-55.232146
 20
33.465726
 30
0.0
 10
-54.968754
 20
34.101611
 30
0.0
 10
-54.499913
 20
34.570452
 30
0.0
  0
SPLINE
  5
11f
100
AcDbEntity
  8
Ebene_1
 62
7
100
AcDbSpline
 70
8
 71
3
 72
8
 73
4
 74
0
 40
0
 40
0
 40
0
 40
0
 40
1
 40
1
 40
1
 40
1
 10
-54.499913
 20
34.570452
 30
0.0
 10
-54.031072
 20
35.039293
 30
0.0
 10
-53.395187
 20
35.302685
 30
0.0
 10
-52.732146
 20
35.302685
 30
0.0
  0
SPLINE
  5
120
100
AcDbEntity
  8
Ebene_1
 62
7
100
AcDbSpline
 70
8
 71
3
 72
8
 73
4
 74
0
 40
0
 40
0
 40
0
 40
0
 40
1
 40
1
 40
1
 40
1
 10
-52.732146
 20
35.302685
 30
0.0
 10
-52.069105
 20
35.302685
 30
0.0
 10
-51.433220
 20
35.039293
 30
0.0
 10
-50.964379
 20
34.570452
 30
0.0
  0
SPLINE
  5
121
100
AcDbEntity
  8
Ebene_1
 62
7
100
AcDbSpline
 70
8
 71
3
 72
8
 73
4
 74
0
 40
0
 40
0
 40
0
 40
0
 40
1
 40
1
 40
1
 40
1
 10
-50.964379
 20
34.570452
 30
0.0
 10
-50.495538
 20
34.101611
 30
0.0
 10
-50.232146
 20
33.465726
 30
0.0
 10
-50.232146
 20
32.802685
 30
0.0
  0
LWPOLYLINE
  5
122
100
AcDbEntity
  8
Ebene_1
 62
7
100
AcDbPolyline
 90
1
 70
1
 10
-205.145826
 20
32.511025
 30
0.0
  0
SPLINE
  5
123
100
AcDbEntity
  8
Ebene_1
 62
7
100
AcDbSpline
 70
8
 71
3
 72
8
 73
4
 74
0
 40
0
 40
0
 40
0
 40
0
 40
1
 40
1
 40
1
 40
1
 10
-49.854171
 20
267.888994
 30
0.0
 10
-49.854171
 20
267.225953
 30
0.0
 10
-50.117563
 20
266.590068
 30
0.0
 10
-50.586404
 20
266.121227
 30
0.0
  0
SPLINE
  5
124
100
AcDbEntity
  8
Ebene_1
 62
7
100
AcDbSpline
 70
8
 71
3
 72
8
 73
4
 74
0
 40
0
 40
0
 40
0
 40
0
 40
1
 40
1
 40
1
 40
1
 10
-50.586404
 20
266.121227
 30
0.0
 10
-51.055245
 20
265.652386
 30
0.0
 10
-51.691130
 20
265.388994
 30
0.0
 10
-52.354171
 20
265.388994
 30
0.0
  0
SPLINE
  5
125
100
AcDbEntity
  8
Ebene_1
 62
7
100
AcDbSpline
 70
8
 71
3
 72
8
 73
4
 74
0
 40
0
 40
0
 40
0
 40
0
 40
1
 40
1
 40
1
 40
1
 10
-52.354171
 20
265.388994
 30
0.0
 10
-53.017212
 20
265.388994
 30
0.0
 10
-53.653097
 20
265.652386
 30
0.0
 10
-54.121938
 20
266.121227
 30
0.0
  0
SPLINE
  5
126
100
AcDbEntity
  8
Ebene_1
 62
7
100
AcDbSpline
 70
8
 71
3
 72
8
 73
4
 74
0
 40
0
 40
0
 40
0
 40
0
 40
1
 40
1
 40
1
 40
1
 10
-54.121938
 20
266.121227
 30
0.0
 10
-54.590779
 20
266.590068
 30
0.0
 10
-54.854171
 20
267.225953
 30
0.0
 10
-54.854171
 20
267.888994
 30
0.0
  0
SPLINE
  5
127
100
AcDbEntity
  8
Ebene_1
 62
7
100
AcDbSpline
 70
8
 71
3
 72
8
 73
4
 74
0
 40
0
 40
0
 40
0
 40
0
 40
1
 40
1
 40
1
 40
1
 10
-54.854171
 20
267.888994
 30
0.0
 10
-54.854171
 20
268.552035
 30
0.0
 10
-54.590779
 20
269.187920
 30
0.0
 10
-54.121938
 20
269.656761
 30
0.0
  0
SPLINE
  5
128
100
AcDbEntity
  8
Ebene_1
 62
7
100
AcDbSpline
 70
8
 71
3
 72
8
 73
4
 74
0
 40
0
 40
0
 40
0
 40
0
 40
1
 40
1
 40
1
 40
1
 10
-54.121938
 20
269.656761
 30
0.0
 10
-53.653097
 20
270.125602
 30
0.0
 10
-53.017212
 20
270.388994
 30
0.0
 10
-52.354171
 20
270.388994
 30
0.0
  0
SPLINE
  5
129
100
AcDbEntity
  8
Ebene_1
 62
7
100
AcDbSpline
 70
8
 71
3
 72
8
 73
4
 74
0
 40
0
 40
0
 40
0
 40
0
 40
1
 40
1
 40
1
 40
1
 10
-52.354171
 20
270.388994
 30
0.0
 10
-51.691130
 20
270.388994
 30
0.0
 10
-51.055245
 20
270.125602
 30
0.0
 10
-50.586404
 20
269.656761
 30
0.0
  0
SPLINE
  5
12a
100
AcDbEntity
  8
Ebene_1
 62
7
100
AcDbSpline
 70
8
 71
3
 72
8
 73
4
 74
0
 40
0
 40
0
 40
0
 40
0
 40
1
 40
1
 40
1
 40
1
 10
-50.586404
 20
269.656761
 30
0.0
 10
-50.117563
 20
269.187920
 30
0.0
 10
-49.854171
 20
268.552035
 30
0.0
 10
-49.854171
 20
267.888994
 30
0.0
  0
LWPOLYLINE
  5
12b
100
AcDbEntity
  8
Ebene_1
 62
7
100
AcDbPolyline
 90
1
 70
1
 10
-50.232146
 20
32.802685
 30
0.0
  0
SPLINE
  5
12c
100
AcDbEntity
  8
Ebene_1
 62
7
100
AcDbSpline
 70
8
 71
3
 72
8
 73
4
 74
0
 40
0
 40
0
 40
0
 40
0
 40
1
 40
1
 40
1
 40
1
 10
-204.854166
 20
267.888994
 30
0.0
 10
-204.854166
 20
267.225953
 30
0.0
 10
-205.117558
 20
266.590068
 30
0.0
 10
-205.586399
 20
266.121227
 30
0.0
  0
SPLINE
  5
12d
100
AcDbEntity
  8
Ebene_1
 62
7
100
AcDbSpline
 70
8
 71
3
 72
8
 73
4
 74
0
 40
0
 40
0
 40
0
 40
0
 40
1
 40
1
 40
1
 40
1
 10
-205.586399
 20
266.121227
 30
0.0
 10
-206.055240
 20
265.652386
 30
0.0
 10
-206.691125
 20
265.388994
 30
0.0
 10
-207.354166
 20
265.388994
 30
0.0
  0
SPLINE
  5
12e
100
AcDbEntity
  8
Ebene_1
 62
7
100
AcDbSpline
 70
8
 71
3
 72
8
 73
4
 74
0
 40
0
 40
0
 40
0
 40
0
 40
1
 40
1
 40
1
 40
1
 10
-207.354166
 20
265.388994
 30
0.0
 10
-208.017207
 20
265.388994
 30
0.0
 10
-208.653092
 20
265.652386
 30
0.0
 10
-209.121933
 20
266.121227
 30
0.0
  0
SPLINE
  5
12f
100
AcDbEntity
  8
Ebene_1
 62
7
100
AcDbSpline
 70
8
 71
3
 72
8
 73
4
 74
0
 40
0
 40
0
 40
0
 40
0
 40
1
 40
1
 40
1
 40
1
 10
-209.121933
 20
266.121227
 30
0.0
 10
-209.590774
 20
266.590068
 30
0.0
 10
-209.854166
 20
267.225953
 30
0.0
 10
-209.854166
 20
267.888994
 30
0.0
  0
SPLINE
  5
130
100
AcDbEntity
  8
Ebene_1
 62
7
100
AcDbSpline
 70
8
 71
3
 72
8
 73
4
 74
0
 40
0
 40
0
 40
0
 40
0
 40
1
 40
1
 40
1
 40
1
 10
-209.854166
 20
267.888994
 30
0.0
 10
-209.854166
 20
268.552035
 30
0.0
 10
-209.590774
 20
269.187920
 30
0.0
 10
-209.121933
 20
269.656761
 30
0.0
  0
SPLINE
  5
131
100
AcDbEntity
  8
Ebene_1
 62
7
100
AcDbSpline
 70
8
 71
3
 72
8
 73
4
 74
0
 40
0
 40
0
 40
0
 40
0
 40
1
 40
1
 40
1
 40
1
 10
-209.121933
 20
269.656761
 30
0.0
 10
-208.653092
 20
270.125602
 30
0.0
 10
-208.017207
 20
270.388994
 30
0.0
 10
-207.354166
 20
270.388994
 30
0.0
  0
SPLINE
  5
132
100
AcDbEntity
  8
Ebene_1
 62
7
100
AcDbSpline
 70
8
 71
3
 72
8
 73
4
 74
0
 40
0
 40
0
 40
0
 40
0
 40
1
 40
1
 40
1
 40
1
 10
-207.354166
 20
270.388994
 30
0.0
 10
-206.691125
 20
270.388994
 30
0.0
 10
-206.055240
 20
270.125602
 30
0.0
 10
-205.586399
 20
269.656761
 30
0.0
  0
SPLINE
  5
133
100
AcDbEntity
  8
Ebene_1
 62
7
100
AcDbSpline
 70
8
 71
3
 72
8
 73
4
 74
0
 40
0
 40
0
 40
0
 40
0
 40
1
 40
1
 40
1
 40
1
 10
-205.586399
 20
269.656761
 30
0.0
 10
-205.117558
 20
269.187920
 30
0.0
 10
-204.854166
 20
268.552035
 30
0.0
 10
-204.854166
 20
267.888994
 30
0.0
  0
LWPOLYLINE
  5
134
100
AcDbEntity
  8
Ebene_1
 62
7
100
AcDbPolyline
 90
1
 70
1
 10
-49.854171
 20
267.888994
 30
0.0
  0
LWPOLYLINE
  5
135
100
AcDbEntity
  8
Ebene_1
 62
7
100
AcDbPolyline
 90
1
 70
1
 10
-204.854166
 20
267.888994
 30
0.0
  0
SPLINE
  5
136
100
AcDbEntity
  8
Ebene_1
 62
7
100
AcDbSpline
 70
8
 71
3
 72
8
 73
4
 74
0
 40
0
 40
0
 40
0
 40
0
 40
1
 40
1
 40
1
 40
1
 10
-71.895243
 20
66.029250
 30
0.0
 10
-71.895243
 20
64.781380
 30
0.0
 10
-71.472559
 20
63.657720
 30
0.0
 10
-70.666188
 20
62.763200
 30
0.0
  0
LWPOLYLINE
  5
137
100
AcDbEntity
  8
Ebene_1
 62
7
100
AcDbPolyline
 90
2
 70
0
 10
-71.895243
 20
74.713010
 30
0.0
 10
-71.895243
 20
66.029250
 30
0.0
  0
SPLINE
  5
138
100
AcDbEntity
  8
Ebene_1
 62
7
100
AcDbSpline
 70
8
 71
3
 72
8
 73
4
 74
0
 40
0
 40
0
 40
0
 40
0
 40
1
 40
1
 40
1
 40
1
 10
-70.662387
 20
62.759200
 30
0.0
 10
-69.851259
 20
61.883080
 30
0.0
 10
-68.807773
 20
61.425580
 30
0.0
 10
-67.634853
 20
61.425580
 30
0.0
  0
LWPOLYLINE
  5
139
100
AcDbEntity
  8
Ebene_1
 62
7
100
AcDbPolyline
 90
3
 70
0
 10
-70.666188
 20
62.763200
 30
0.0
 10
-70.664288
 20
62.761200
 30
0.0
 10
-70.662387
 20
62.759200
 30
0.0
  0
SPLINE
  5
13a
100
AcDbEntity
  8
Ebene_1
 62
7
100
AcDbSpline
 70
8
 71
3
 72
8
 73
4
 74
0
 40
0
 40
0
 40
0
 40
0
 40
1
 40
1
 40
1
 40
1
 10
-64.336702
 20
74.193420
 30
0.0
 10
-64.336702
 20
72.945540
 30
0.0
 10
-63.914016
 20
71.823920
 30
0.0
 10
-63.107648
 20
70.929400
 30
0.0
  0
LWPOLYLINE
  5
13b
100
AcDbEntity
  8
Ebene_1
 62
7
100
AcDbPolyline
 90
5
 70
0
 10
-67.634853
 20
61.425580
 30
0.0
 10
-48.255632
 20
61.425580
 30
0.0
 10
-48.255632
 20
74.713060
 30
0.0
 10
-64.336702
 20
74.713060
 30
0.0
 10
-64.336702
 20
74.193420
 30
0.0
  0
SPLINE
  5
13c
100
AcDbEntity
  8
Ebene_1
 62
7
100
AcDbSpline
 70
8
 71
3
 72
8
 73
4
 74
0
 40
0
 40
0
 40
0
 40
0
 40
1
 40
1
 40
1
 40
1
 10
-63.101948
 20
70.923400
 30
0.0
 10
-62.290821
 20
70.047290
 30
0.0
 10
-61.247335
 20
69.591810
 30
0.0
 10
-60.074414
 20
69.591810
 30
0.0
  0
LWPOLYLINE
  5
13d
100
AcDbEntity
  8
Ebene_1
 62
7
100
AcDbPolyline
 90
3
 70
0
 10
-63.107648
 20
70.929400
 30
0.0
 10
-63.103848
 20
70.925400
 30
0.0
 10
-63.101948
 20
70.923400
 30
0.0
  0
SPLINE
  5
13e
100
AcDbEntity
  8
Ebene_1
 62
7
100
AcDbSpline
 70
8
 71
3
 72
8
 73
4
 74
0
 40
0
 40
0
 40
0
 40
0
 40
1
 40
1
 40
1
 40
1
 10
-65.744227
 20
66.549040
 30
0.0
 10
-66.162654
 20
66.549040
 30
0.0
 10
-66.469381
 20
66.684120
 30
0.0
 10
-66.757163
 20
66.973270
 30
0.0
  0
SPLINE
  5
13f
100
AcDbEntity
  8
Ebene_1
 62
7
100
AcDbSpline
 70
8
 71
3
 72
8
 73
4
 74
0
 40
0
 40
0
 40
0
 40
0
 40
1
 40
1
 40
1
 40
1
 10
-66.757163
 20
66.973270
 30
0.0
 10
-67.027038
 20
67.285140
 30
0.0
 10
-67.153693
 20
67.615710
 30
0.0
 10
-67.153693
 20
68.069400
 30
0.0
  0
LWPOLYLINE
  5
140
100
AcDbEntity
  8
Ebene_1
 62
7
100
AcDbPolyline
 90
4
 70
0
 10
-60.074414
 20
69.591810
 30
0.0
 10
-52.997014
 20
69.591810
 30
0.0
 10
-52.997014
 20
66.549040
 30
0.0
 10
-65.744227
 20
66.549040
 30
0.0
  0
LWPOLYLINE
  5
141
100
AcDbEntity
  8
Ebene_1
 62
7
100
AcDbPolyline
 90
3
 70
0
 10
-67.153693
 20
68.069400
 30
0.0
 10
-67.153693
 20
74.713150
 30
0.0
 10
-71.895243
 20
74.713010
 30
0.0
  0
SPLINE
  5
142
100
AcDbEntity
  8
Ebene_1
 62
7
100
AcDbSpline
 70
8
 71
3
 72
8
 73
4
 74
0
 40
0
 40
0
 40
0
 40
0
 40
1
 40
1
 40
1
 40
1
 10
-192.846244
 20
76.235400
 30
0.0
 10
-192.846244
 20
75.786320
 30
0.0
 10
-192.974324
 20
75.458300
 30
0.0
 10
-193.263434
 20
75.143330
 30
0.0
  0
SPLINE
  5
143
100
AcDbEntity
  8
Ebene_1
 62
7
100
AcDbSpline
 70
8
 71
3
 72
8
 73
4
 74
0
 40
0
 40
0
 40
0
 40
0
 40
1
 40
1
 40
1
 40
1
 10
-193.263434
 20
75.143330
 30
0.0
 10
-193.555954
 20
74.846560
 30
0.0
 10
-193.855864
 20
74.713010
 30
0.0
 10
-194.253824
 20
74.713010
 30
0.0
  0
LWPOLYLINE
  5
144
100
AcDbEntity
  8
Ebene_1
 62
7
100
AcDbPolyline
 90
4
 70
0
 10
-211.744364
 20
82.879140
 30
0.0
 10
-211.744364
 20
77.755760
 30
0.0
 10
-192.846244
 20
77.755760
 30
0.0
 10
-192.846244
 20
76.235400
 30
0.0
  0
SPLINE
  5
145
100
AcDbEntity
  8
Ebene_1
 62
7
100
AcDbSpline
 70
8
 71
3
 72
8
 73
4
 74
0
 40
0
 40
0
 40
0
 40
0
 40
1
 40
1
 40
1
 40
1
 10
-192.365145
 20
69.591670
 30
0.0
 10
-191.227365
 20
69.591670
 30
0.0
 10
-190.198085
 20
70.049820
 30
0.0
 10
-189.371435
 20
70.919190
 30
0.0
  0
SPLINE
  5
146
100
AcDbEntity
  8
Ebene_1
 62
7
100
AcDbSpline
 70
8
 71
3
 72
8
 73
4
 74
0
 40
0
 40
0
 40
0
 40
0
 40
1
 40
1
 40
1
 40
1
 10
-189.371435
 20
70.919190
 30
0.0
 10
-188.539565
 20
71.794080
 30
0.0
 10
-188.102915
 20
72.923250
 30
0.0
 10
-188.102915
 20
74.193360
 30
0.0
  0
LWPOLYLINE
  5
147
100
AcDbEntity
  8
Ebene_1
 62
7
100
AcDbPolyline
 90
7
 70
0
 10
-194.253824
 20
74.713010
 30
0.0
 10
-211.744364
 20
74.713010
 30
0.0
 10
-211.744364
 20
61.425520
 30
0.0
 10
-211.263264
 20
61.425520
 30
0.0
 10
-207.002915
 20
61.425520
 30
0.0
 10
-207.002915
 20
69.591670
 30
0.0
 10
-192.365145
 20
69.591670
 30
0.0
  0
LWPOLYLINE
  5
148
100
AcDbEntity
  8
Ebene_1
 62
7
100
AcDbPolyline
 90
3
 70
0
 10
-188.102915
 20
74.193360
 30
0.0
 10
-188.102915
 20
82.879140
 30
0.0
 10
-211.744364
 20
82.879140
 30
0.0
  0
LWPOLYLINE
  5
149
100
AcDbEntity
  8
Ebene_1
 62
7
100
AcDbPolyline
 90
9
 70
1
 10
-185.285865
 20
74.713010
 30
0.0
 10
-185.285865
 20
61.425520
 30
0.0
 10
-184.804765
 20
61.425520
 30
0.0
 10
-180.544415
 20
61.425520
 30
0.0
 10
-180.544415
 20
69.591670
 30
0.0
 10
-166.387735
 20
69.591670
 30
0.0
 10
-166.387735
 20
61.425520
 30
0.0
 10
-161.646295
 20
61.425520
 30
0.0
 10
-161.646295
 20
74.713010
 30
0.0
  0
SPLINE
  5
14a
100
AcDbEntity
  8
Ebene_1
 62
7
100
AcDbSpline
 70
8
 71
3
 72
8
 73
4
 74
0
 40
0
 40
0
 40
0
 40
0
 40
1
 40
1
 40
1
 40
1
 10
-185.285865
 20
82.359500
 30
0.0
 10
-185.285865
 20
81.111620
 30
0.0
 10
-184.863184
 20
79.987970
 30
0.0
 10
-184.056804
 20
79.093440
 30
0.0
  0
LWPOLYLINE
  5
14b
100
AcDbEntity
  8
Ebene_1
 62
7
100
AcDbPolyline
 90
2
 70
0
 10
-185.285865
 20
82.879140
 30
0.0
 10
-185.285865
 20
82.359500
 30
0.0
  0
SPLINE
  5
14c
100
AcDbEntity
  8
Ebene_1
 62
7
100
AcDbSpline
 70
8
 71
3
 72
8
 73
4
 74
0
 40
0
 40
0
 40
0
 40
0
 40
1
 40
1
 40
1
 40
1
 10
-184.052804
 20
79.089440
 30
0.0
 10
-183.241674
 20
78.213330
 30
0.0
 10
-182.198184
 20
77.755810
 30
0.0
 10
-181.025264
 20
77.755810
 30
0.0
  0
LWPOLYLINE
  5
14d
100
AcDbEntity
  8
Ebene_1
 62
7
100
AcDbPolyline
 90
3
 70
0
 10
-184.056804
 20
79.093440
 30
0.0
 10
-184.054804
 20
79.091440
 30
0.0
 10
-184.052804
 20
79.089440
 30
0.0
  0
SPLINE
  5
14e
100
AcDbEntity
  8
Ebene_1
 62
7
100
AcDbSpline
 70
8
 71
3
 72
8
 73
4
 74
0
 40
0
 40
0
 40
0
 40
0
 40
1
 40
1
 40
1
 40
1
 10
-165.906395
 20
77.755810
 30
0.0
 10
-164.768615
 20
77.755810
 30
0.0
 10
-163.739335
 20
78.213960
 30
0.0
 10
-162.912685
 20
79.083350
 30
0.0
  0
SPLINE
  5
14f
100
AcDbEntity
  8
Ebene_1
 62
7
100
AcDbSpline
 70
8
 71
3
 72
8
 73
4
 74
0
 40
0
 40
0
 40
0
 40
0
 40
1
 40
1
 40
1
 40
1
 10
-162.912685
 20
79.083350
 30
0.0
 10
-162.080804
 20
79.958230
 30
0.0
 10
-161.646055
 20
81.089440
 30
0.0
 10
-161.646055
 20
82.359540
 30
0.0
  0
LWPOLYLINE
  5
150
100
AcDbEntity
  8
Ebene_1
 62
7
100
AcDbPolyline
 90
2
 70
0
 10
-181.025264
 20
77.755810
 30
0.0
 10
-165.906395
 20
77.755810
 30
0.0
  0
LWPOLYLINE
  5
151
100
AcDbEntity
  8
Ebene_1
 62
7
100
AcDbPolyline
 90
3
 70
0
 10
-161.646055
 20
82.359540
 30
0.0
 10
-161.646055
 20
82.879190
 30
0.0
 10
-185.285865
 20
82.879140
 30
0.0
  0
SPLINE
  5
152
100
AcDbEntity
  8
Ebene_1
 62
7
100
AcDbSpline
 70
8
 71
3
 72
8
 73
4
 74
0
 40
0
 40
0
 40
0
 40
0
 40
1
 40
1
 40
1
 40
1
 10
-158.829234
 20
82.359500
 30
0.0
 10
-158.829234
 20
81.111620
 30
0.0
 10
-158.406554
 20
79.987970
 30
0.0
 10
-157.600184
 20
79.093440
 30
0.0
  0
LWPOLYLINE
  5
153
100
AcDbEntity
  8
Ebene_1
 62
7
100
AcDbPolyline
 90
2
 70
0
 10
-158.829234
 20
82.879140
 30
0.0
 10
-158.829234
 20
82.359500
 30
0.0
  0
SPLINE
  5
154
100
AcDbEntity
  8
Ebene_1
 62
7
100
AcDbSpline
 70
8
 71
3
 72
8
 73
4
 74
0
 40
0
 40
0
 40
0
 40
0
 40
1
 40
1
 40
1
 40
1
 10
-157.594184
 20
79.089440
 30
0.0
 10
-156.783064
 20
78.213330
 30
0.0
 10
-155.739574
 20
77.755820
 30
0.0
 10
-154.566654
 20
77.755810
 30
0.0
  0
LWPOLYLINE
  5
155
100
AcDbEntity
  8
Ebene_1
 62
7
100
AcDbPolyline
 90
3
 70
0
 10
-157.600184
 20
79.093440
 30
0.0
 10
-157.596184
 20
79.091440
 30
0.0
 10
-157.594184
 20
79.089440
 30
0.0
  0
SPLINE
  5
156
100
AcDbEntity
  8
Ebene_1
 62
7
100
AcDbSpline
 70
8
 71
3
 72
8
 73
4
 74
0
 40
0
 40
0
 40
0
 40
0
 40
1
 40
1
 40
1
 40
1
 10
-139.928864
 20
76.235440
 30
0.0
 10
-139.928864
 20
75.786370
 30
0.0
 10
-140.058834
 20
75.458350
 30
0.0
 10
-140.347954
 20
75.143380
 30
0.0
  0
SPLINE
  5
157
100
AcDbEntity
  8
Ebene_1
 62
7
100
AcDbSpline
 70
8
 71
3
 72
8
 73
4
 74
0
 40
0
 40
0
 40
0
 40
0
 40
1
 40
1
 40
1
 40
1
 10
-140.347954
 20
75.143380
 30
0.0
 10
-140.640474
 20
74.846610
 30
0.0
 10
-140.940374
 20
74.713050
 30
0.0
 10
-141.338344
 20
74.713050
 30
0.0
  0
LWPOLYLINE
  5
158
100
AcDbEntity
  8
Ebene_1
 62
7
100
AcDbPolyline
 90
3
 70
0
 10
-154.566654
 20
77.755810
 30
0.0
 10
-139.928864
 20
77.755810
 30
0.0
 10
-139.928864
 20
76.235440
 30
0.0
  0
SPLINE
  5
159
100
AcDbEntity
  8
Ebene_1
 62
7
100
AcDbSpline
 70
8
 71
3
 72
8
 73
4
 74
0
 40
0
 40
0
 40
0
 40
0
 40
1
 40
1
 40
1
 40
1
 10
-139.509874
 20
69.595710
 30
0.0
 10
-138.307334
 20
69.427350
 30
0.0
 10
-137.263474
 20
70.070000
 30
0.0
 10
-136.456024
 20
70.919180
 30
0.0
  0
SPLINE
  5
15a
100
AcDbEntity
  8
Ebene_1
 62
7
100
AcDbSpline
 70
8
 71
3
 72
8
 73
4
 74
0
 40
0
 40
0
 40
0
 40
0
 40
1
 40
1
 40
1
 40
1
 10
-136.456024
 20
70.919180
 30
0.0
 10
-135.624144
 20
71.794070
 30
0.0
 10
-135.187504
 20
72.923240
 30
0.0
 10
-135.187504
 20
74.193350
 30
0.0
  0
LWPOLYLINE
  5
15b
100
AcDbEntity
  8
Ebene_1
 62
7
100
AcDbPolyline
 90
12
 70
0
 10
-141.338344
 20
74.713050
 30
0.0
 10
-158.828874
 20
74.713050
 30
0.0
 10
-158.828874
 20
61.425570
 30
0.0
 10
-158.347774
 20
61.425570
 30
0.0
 10
-154.085554
 20
61.425570
 30
0.0
 10
-154.085554
 20
69.591710
 30
0.0
 10
-149.097924
 20
69.591710
 30
0.0
 10
-141.537544
 20
61.425570
 30
0.0
 10
-134.507124
 20
61.425570
 30
0.0
 10
-142.067504
 20
69.591710
 30
0.0
 10
-139.447774
 20
69.591710
 30
0.0
 10
-139.509874
 20
69.595710
 30
0.0
  0
LWPOLYLINE
  5
15c
100
AcDbEntity
  8
Ebene_1
 62
7
100
AcDbPolyline
 90
3
 70
0
 10
-135.187504
 20
74.193350
 30
0.0
 10
-135.187504
 20
82.879130
 30
0.0
 10
-158.829234
 20
82.879140
 30
0.0
  0
LWPOLYLINE
  5
15d
100
AcDbEntity
  8
Ebene_1
 62
7
100
AcDbPolyline
 90
9
 70
1
 10
-115.079405
 20
82.879140
 30
0.0
 10
-125.009575
 20
72.153350
 30
0.0
 10
-115.079405
 20
61.425520
 30
0.0
 10
-114.880205
 20
61.425520
 30
0.0
 10
-108.048985
 20
61.425520
 30
0.0
 10
-117.982905
 20
72.155380
 30
0.0
 10
-116.597875
 20
73.673720
 30
0.0
 10
-116.571574
 20
73.673720
 30
0.0
 10
-108.049004
 20
82.879140
 30
0.0
  0
LWPOLYLINE
  5
15e
100
AcDbEntity
  8
Ebene_1
 62
7
100
AcDbPolyline
 90
5
 70
1
 10
-132.370745
 20
82.879140
 30
0.0
 10
-132.370745
 20
61.425520
 30
0.0
 10
-131.889645
 20
61.425520
 30
0.0
 10
-127.629295
 20
61.425520
 30
0.0
 10
-127.629295
 20
82.879140
 30
0.0
  0
LWPOLYLINE
  5
15f
100
AcDbEntity
  8
Ebene_1
 62
7
100
AcDbPolyline
 90
5
 70
1
 10
-105.912244
 20
82.879140
 30
0.0
 10
-105.912244
 20
61.425520
 30
0.0
 10
-105.431145
 20
61.425520
 30
0.0
 10
-101.170805
 20
61.425520
 30
0.0
 10
-101.170805
 20
82.879140
 30
0.0
  0
LWPOLYLINE
  5
160
100
AcDbEntity
  8
Ebene_1
 62
7
100
AcDbPolyline
 90
12
 70
1
 10
-99.034043
 20
82.879140
 30
0.0
 10
-94.574494
 20
78.060250
 30
0.0
 10
-94.574494
 20
61.425520
 30
0.0
 10
-94.093395
 20
61.425520
 30
0.0
 10
-89.831170
 20
61.425520
 30
0.0
 10
-89.831170
 20
72.938910
 30
0.0
 10
-79.173726
 20
61.425520
 30
0.0
 10
-74.712295
 20
61.425520
 30
0.0
 10
-74.712295
 20
82.879140
 30
0.0
 10
-79.455619
 20
82.879140
 30
0.0
 10
-79.455619
 20
69.323720
 30
0.0
 10
-92.003627
 20
82.879140
 30
0.0
  0
SPLINE
  5
161
100
AcDbEntity
  8
Ebene_1
 62
7
100
AcDbSpline
 70
8
 71
3
 72
8
 73
4
 74
0
 40
0
 40
0
 40
0
 40
0
 40
1
 40
1
 40
1
 40
1
 10
-52.516021
 20
77.755760
 30
0.0
 10
-51.378246
 20
77.755760
 30
0.0
 10
-50.348966
 20
78.213930
 30
0.0
 10
-49.522315
 20
79.083300
 30
0.0
  0
SPLINE
  5
162
100
AcDbEntity
  8
Ebene_1
 62
7
100
AcDbSpline
 70
8
 71
3
 72
8
 73
4
 74
0
 40
0
 40
0
 40
0
 40
0
 40
1
 40
1
 40
1
 40
1
 10
-49.522315
 20
79.083300
 30
0.0
 10
-48.690436
 20
79.958190
 30
0.0
 10
-48.255674
 20
81.089390
 30
0.0
 10
-48.255674
 20
82.359500
 30
0.0
  0
LWPOLYLINE
  5
163
100
AcDbEntity
  8
Ebene_1
 62
7
100
AcDbPolyline
 90
4
 70
0
 10
-71.895243
 20
82.879140
 30
0.0
 10
-71.895243
 20
77.755760
 30
0.0
 10
-71.414145
 20
77.755760
 30
0.0
 10
-52.516021
 20
77.755760
 30
0.0
  0
LWPOLYLINE
  5
164
100
AcDbEntity
  8
Ebene_1
 62
7
100
AcDbPolyline
 90
3
 70
0
 10
-48.255674
 20
82.359500
 30
0.0
 10
-48.255674
 20
82.879140
 30
0.0
 10
-71.895243
 20
82.879140
 30
0.0
  0
LWPOLYLINE
  5
165
100
AcDbEntity
  8
Ebene_1
 62
7
100
AcDbPolyline
 90
9
 70
1
 10
-181.506614
 20
45.188660
 30
0.0
 10
-181.506614
 20
31.901170
 30
0.0
 10
-181.025514
 20
31.901170
 30
0.0
 10
-157.867044
 20
31.901170
 30
0.0
 10
-157.867044
 20
45.188660
 30
0.0
 10
-162.608495
 20
45.188660
 30
0.0
 10
-162.608495
 20
37.024550
 30
0.0
 10
-176.765175
 20
37.024550
 30
0.0
 10
-176.765175
 20
45.188660
 30
0.0
  0
SPLINE
  5
166
100
AcDbEntity
  8
Ebene_1
 62
7
100
AcDbSpline
 70
8
 71
3
 72
8
 73
4
 74
0
 40
0
 40
0
 40
0
 40
0
 40
1
 40
1
 40
1
 40
1
 10
-181.506614
 20
52.833120
 30
0.0
 10
-181.506614
 20
51.585240
 30
0.0
 10
-181.083924
 20
50.463610
 30
0.0
 10
-180.277564
 20
49.569100
 30
0.0
  0
LWPOLYLINE
  5
167
100
AcDbEntity
  8
Ebene_1
 62
7
100
AcDbPolyline
 90
2
 70
0
 10
-181.506614
 20
53.352760
 30
0.0
 10
-181.506614
 20
52.833120
 30
0.0
  0
SPLINE
  5
168
100
AcDbEntity
  8
Ebene_1
 62
7
100
AcDbSpline
 70
8
 71
3
 72
8
 73
4
 74
0
 40
0
 40
0
 40
0
 40
0
 40
1
 40
1
 40
1
 40
1
 10
-180.273564
 20
49.565100
 30
0.0
 10
-179.462434
 20
48.688990
 30
0.0
 10
-178.418944
 20
48.231480
 30
0.0
 10
-177.246034
 20
48.231480
 30
0.0
  0
LWPOLYLINE
  5
169
100
AcDbEntity
  8
Ebene_1
 62
7
100
AcDbPolyline
 90
3
 70
0
 10
-180.277564
 20
49.569100
 30
0.0
 10
-180.275564
 20
49.567100
 30
0.0
 10
-180.273564
 20
49.565100
 30
0.0
  0
SPLINE
  5
16a
100
AcDbEntity
  8
Ebene_1
 62
7
100
AcDbSpline
 70
8
 71
3
 72
8
 73
4
 74
0
 40
0
 40
0
 40
0
 40
0
 40
1
 40
1
 40
1
 40
1
 10
-162.127154
 20
48.231480
 30
0.0
 10
-160.989384
 20
48.231480
 30
0.0
 10
-159.960104
 20
48.689620
 30
0.0
 10
-159.133454
 20
49.559020
 30
0.0
  0
SPLINE
  5
16b
100
AcDbEntity
  8
Ebene_1
 62
7
100
AcDbSpline
 70
8
 71
3
 72
8
 73
4
 74
0
 40
0
 40
0
 40
0
 40
0
 40
1
 40
1
 40
1
 40
1
 10
-159.133454
 20
49.559020
 30
0.0
 10
-158.301574
 20
50.433890
 30
0.0
 10
-157.866804
 20
51.563080
 30
0.0
 10
-157.866804
 20
52.833190
 30
0.0
  0
LWPOLYLINE
  5
16c
100
AcDbEntity
  8
Ebene_1
 62
7
100
AcDbPolyline
 90
2
 70
0
 10
-177.246034
 20
48.231480
 30
0.0
 10
-162.127154
 20
48.231480
 30
0.0
  0
LWPOLYLINE
  5
16d
100
AcDbEntity
  8
Ebene_1
 62
7
100
AcDbPolyline
 90
3
 70
0
 10
-157.866804
 20
52.833190
 30
0.0
 10
-157.866804
 20
53.352830
 30
0.0
 10
-181.506614
 20
53.352760
 30
0.0
  0
LWPOLYLINE
  5
16e
100
AcDbEntity
  8
Ebene_1
 62
7
100
AcDbPolyline
 90
12
 70
1
 10
-155.728414
 20
53.352760
 30
0.0
 10
-151.268864
 20
48.535900
 30
0.0
 10
-151.268864
 20
31.901170
 30
0.0
 10
-150.787764
 20
31.901170
 30
0.0
 10
-146.527424
 20
31.901170
 30
0.0
 10
-146.527424
 20
43.414560
 30
0.0
 10
-135.868094
 20
31.901170
 30
0.0
 10
-131.408544
 20
31.901170
 30
0.0
 10
-131.408544
 20
53.352760
 30
0.0
 10
-136.149984
 20
53.352760
 30
0.0
 10
-136.149984
 20
39.799370
 30
0.0
 10
-148.698004
 20
53.352760
 30
0.0
  0
SPLINE
  5
16f
100
AcDbEntity
  8
Ebene_1
 62
7
100
AcDbSpline
 70
8
 71
3
 72
8
 73
4
 74
0
 40
0
 40
0
 40
0
 40
0
 40
1
 40
1
 40
1
 40
1
 10
-109.210384
 20
31.901170
 30
0.0
 10
-108.072624
 20
31.901170
 30
0.0
 10
-107.045214
 20
32.359320
 30
0.0
 10
-106.218564
 20
33.228710
 30
0.0
  0
SPLINE
  5
170
100
AcDbEntity
  8
Ebene_1
 62
7
100
AcDbSpline
 70
8
 71
3
 72
8
 73
4
 74
0
 40
0
 40
0
 40
0
 40
0
 40
1
 40
1
 40
1
 40
1
 10
-106.218564
 20
33.228710
 30
0.0
 10
-105.386694
 20
34.103590
 30
0.0
 10
-104.950044
 20
35.234800
 30
0.0
 10
-104.950044
 20
36.504900
 30
0.0
  0
LWPOLYLINE
  5
171
100
AcDbEntity
  8
Ebene_1
 62
7
100
AcDbPolyline
 90
4
 70
0
 10
-128.591494
 20
53.352760
 30
0.0
 10
-128.591494
 20
31.901170
 30
0.0
 10
-128.110394
 20
31.901170
 30
0.0
 10
-109.210384
 20
31.901170
 30
0.0
  0
LWPOLYLINE
  5
172
100
AcDbEntity
  8
Ebene_1
 62
7
100
AcDbPolyline
 90
5
 70
0
 10
-104.950044
 20
36.504900
 30
0.0
 10
-104.950044
 20
37.024550
 30
0.0
 10
-123.848164
 20
37.024550
 30
0.0
 10
-123.848164
 20
53.352760
 30
0.0
 10
-128.591494
 20
53.352760
 30
0.0
  0
SPLINE
  5
173
100
AcDbEntity
  8
Ebene_1
 62
7
100
AcDbSpline
 70
8
 71
3
 72
8
 73
4
 74
0
 40
0
 40
0
 40
0
 40
0
 40
1
 40
1
 40
1
 40
1
 10
-130.078760
 20
91.596690
 30
0.0
 10
-130.272770
 20
92.619890
 30
0.0
 10
-146.966910
 20
185.822490
 30
0.0
 10
-146.966910
 20
185.882440
 30
0.0
  0
SPLINE
  5
174
100
AcDbEntity
  8
Ebene_1
 62
7
100
AcDbSpline
 70
8
 71
3
 72
8
 73
4
 74
0
 40
0
 40
0
 40
0
 40
0
 40
1
 40
1
 40
1
 40
1
 10
-146.966910
 20
185.882440
 30
0.0
 10
-146.966910
 20
185.967640
 30
0.0
 10
-151.897640
 20
185.842940
 30
0.0
 10
-154.376070
 20
185.695100
 30
0.0
  0
SPLINE
  5
175
100
AcDbEntity
  8
Ebene_1
 62
7
100
AcDbSpline
 70
8
 71
3
 72
8
 73
4
 74
0
 40
0
 40
0
 40
0
 40
0
 40
1
 40
1
 40
1
 40
1
 10
-154.376070
 20
185.695100
 30
0.0
 10
-161.751730
 20
185.255250
 30
0.0
 10
-165.545240
 20
183.963640
 30
0.0
 10
-167.378740
 20
181.267970
 30
0.0
  0
SPLINE
  5
176
100
AcDbEntity
  8
Ebene_1
 62
7
100
AcDbSpline
 70
8
 71
3
 72
8
 73
4
 74
0
 40
0
 40
0
 40
0
 40
0
 40
1
 40
1
 40
1
 40
1
 10
-167.378740
 20
181.267970
 30
0.0
 10
-168.054740
 20
180.274090
 30
0.0
 10
-168.336960
 20
179.565430
 30
0.0
 10
-168.631990
 20
178.121290
 30
0.0
  0
SPLINE
  5
177
100
AcDbEntity
  8
Ebene_1
 62
7
100
AcDbSpline
 70
8
 71
3
 72
8
 73
4
 74
0
 40
0
 40
0
 40
0
 40
0
 40
1
 40
1
 40
1
 40
1
 10
-168.631990
 20
178.121290
 30
0.0
 10
-168.751860
 20
177.534520
 30
0.0
 10
-168.871800
 20
177.032570
 30
0.0
 10
-168.898510
 20
177.005860
 30
0.0
  0
SPLINE
  5
178
100
AcDbEntity
  8
Ebene_1
 62
7
100
AcDbSpline
 70
8
 71
3
 72
8
 73
4
 74
0
 40
0
 40
0
 40
0
 40
0
 40
1
 40
1
 40
1
 40
1
 10
-168.898510
 20
177.005860
 30
0.0
 10
-168.988310
 20
176.916060
 30
0.0
 10
-172.053470
 20
178.372490
 30
0.0
 10
-173.589220
 20
179.234690
 30
0.0
  0
SPLINE
  5
179
100
AcDbEntity
  8
Ebene_1
 62
7
100
AcDbSpline
 70
8
 71
3
 72
8
 73
4
 74
0
 40
0
 40
0
 40
0
 40
0
 40
1
 40
1
 40
1
 40
1
 10
-173.589220
 20
179.234690
 30
0.0
 10
-178.182670
 20
181.813540
 30
0.0
 10
-181.788890
 20
184.799420
 30
0.0
 10
-184.242120
 20
188.055120
 30
0.0
  0
SPLINE
  5
17a
100
AcDbEntity
  8
Ebene_1
 62
7
100
AcDbSpline
 70
8
 71
3
 72
8
 73
4
 74
0
 40
0
 40
0
 40
0
 40
0
 40
1
 40
1
 40
1
 40
1
 10
-184.242120
 20
188.055120
 30
0.0
 10
-184.602540
 20
188.533420
 30
0.0
 10
-184.897420
 20
188.963920
 30
0.0
 10
-184.897420
 20
189.011770
 30
0.0
  0
SPLINE
  5
17b
100
AcDbEntity
  8
Ebene_1
 62
7
100
AcDbSpline
 70
8
 71
3
 72
8
 73
4
 74
0
 40
0
 40
0
 40
0
 40
0
 40
1
 40
1
 40
1
 40
1
 10
-184.897420
 20
189.011770
 30
0.0
 10
-184.897420
 20
189.059670
 30
0.0
 10
-184.710800
 20
189.176010
 30
0.0
 10
-184.482730
 20
189.270390
 30
0.0
  0
SPLINE
  5
17c
100
AcDbEntity
  8
Ebene_1
 62
7
100
AcDbSpline
 70
8
 71
3
 72
8
 73
4
 74
0
 40
0
 40
0
 40
0
 40
0
 40
1
 40
1
 40
1
 40
1
 10
-184.482730
 20
189.270390
 30
0.0
 10
-184.254650
 20
189.364790
 30
0.0
 10
-183.271820
 20
189.788390
 30
0.0
 10
-182.298680
 20
190.211760
 30
0.0
  0
SPLINE
  5
17d
100
AcDbEntity
  8
Ebene_1
 62
7
100
AcDbSpline
 70
8
 71
3
 72
8
 73
4
 74
0
 40
0
 40
0
 40
0
 40
0
 40
1
 40
1
 40
1
 40
1
 10
-182.298680
 20
190.211760
 30
0.0
 10
-171.148900
 20
195.062420
 30
0.0
 10
-156.655870
 20
198.452931
 30
0.0
 10
-143.649370
 20
199.253415
 30
0.0
  0
LWPOLYLINE
  5
17e
100
AcDbEntity
  8
Ebene_1
 62
7
100
AcDbPolyline
 90
14
 70
1
 10
-102.132995
 20
53.352760
 30
0.0
 10
-102.132995
 20
48.535900
 30
0.0
 10
-92.683930
 20
38.329750
 30
0.0
 10
-92.683930
 20
31.901170
 30
0.0
 10
-92.202832
 20
31.901170
 30
0.0
 10
-87.942486
 20
31.901170
 30
0.0
 10
-87.942486
 20
38.329750
 30
0.0
 10
-78.493424
 20
48.535900
 30
0.0
 10
-78.493424
 20
53.352760
 30
0.0
 10
-83.234868
 20
53.352760
 30
0.0
 10
-83.234868
 20
51.008270
 30
0.0
 10
-90.312269
 20
43.361780
 30
0.0
 10
-97.391547
 20
51.008270
 30
0.0
 10
-97.391547
 20
53.352760
 30
0.0
  0
SPLINE
  5
17f
100
AcDbEntity
  8
Ebene_1
 62
7
100
AcDbSpline
 70
8
 71
3
 72
8
 73
4
 74
0
 40
0
 40
0
 40
0
 40
0
 40
1
 40
1
 40
1
 40
1
 10
-136.255790
 20
191.730420
 30
0.0
 10
-132.827950
 20
187.553440
 30
0.0
 10
-129.985420
 20
184.177770
 30
0.0
 10
-129.939080
 20
184.228910
 30
0.0
  0
SPLINE
  5
180
100
AcDbEntity
  8
Ebene_1
 62
7
100
AcDbSpline
 70
8
 71
3
 72
8
 73
4
 74
0
 40
0
 40
0
 40
0
 40
0
 40
1
 40
1
 40
1
 40
1
 10
-129.939080
 20
184.228910
 30
0.0
 10
-129.892680
 20
184.280010
 30
0.0
 10
-127.110610
 20
187.666050
 30
0.0
 10
-123.756630
 20
191.753330
 30
0.0
  0
SPLINE
  5
181
100
AcDbEntity
  8
Ebene_1
 62
7
100
AcDbSpline
 70
8
 71
3
 72
8
 73
4
 74
0
 40
0
 40
0
 40
0
 40
0
 40
1
 40
1
 40
1
 40
1
 10
-123.756630
 20
191.753330
 30
0.0
 10
-120.402620
 20
195.840610
 30
0.0
 10
-117.607200
 20
199.216415
 30
0.0
 10
-117.544600
 20
199.255115
 30
0.0
  0
SPLINE
  5
182
100
AcDbEntity
  8
Ebene_1
 62
7
100
AcDbSpline
 70
8
 71
3
 72
8
 73
4
 74
0
 40
0
 40
0
 40
0
 40
0
 40
1
 40
1
 40
1
 40
1
 10
-117.544600
 20
199.255115
 30
0.0
 10
-117.413980
 20
199.335815
 30
0.0
 10
-114.624590
 20
199.155915
 30
0.0
 10
-112.188060
 20
198.909638
 30
0.0
  0
SPLINE
  5
183
100
AcDbEntity
  8
Ebene_1
 62
7
100
AcDbSpline
 70
8
 71
3
 72
8
 73
4
 74
0
 40
0
 40
0
 40
0
 40
0
 40
1
 40
1
 40
1
 40
1
 10
-112.188060
 20
198.909638
 30
0.0
 10
-101.912860
 20
197.870984
 30
0.0
 10
-91.592994
 20
195.493300
 30
0.0
 10
-82.219642
 20
192.004910
 30
0.0
  0
SPLINE
  5
184
100
AcDbEntity
  8
Ebene_1
 62
7
100
AcDbSpline
 70
8
 71
3
 72
8
 73
4
 74
0
 40
0
 40
0
 40
0
 40
0
 40
1
 40
1
 40
1
 40
1
 10
-82.219642
 20
192.004910
 30
0.0
 10
-80.007486
 20
191.181630
 30
0.0
 10
-76.449117
 20
189.712220
 30
0.0
 10
-75.521079
 20
189.238770
 30
0.0
  0
LWPOLYLINE
  5
185
100
AcDbEntity
  8
Ebene_1
 62
7
100
AcDbPolyline
 90
3
 70
0
 10
-143.649370
 20
199.253415
 30
0.0
 10
-142.488240
 20
199.324915
 30
0.0
 10
-136.255790
 20
191.730420
 30
0.0
  0
SPLINE
  5
186
100
AcDbEntity
  8
Ebene_1
 62
7
100
AcDbSpline
 70
8
 71
3
 72
8
 73
4
 74
0
 40
0
 40
0
 40
0
 40
0
 40
1
 40
1
 40
1
 40
1
 10
-75.646780
 20
188.248670
 30
0.0
 10
-77.820167
 20
185.260510
 30
0.0
 10
-81.227378
 20
182.324020
 30
0.0
 10
-85.446863
 20
179.802450
 30
0.0
  0
SPLINE
  5
187
100
AcDbEntity
  8
Ebene_1
 62
7
100
AcDbSpline
 70
8
 71
3
 72
8
 73
4
 74
0
 40
0
 40
0
 40
0
 40
0
 40
1
 40
1
 40
1
 40
1
 10
-85.446863
 20
179.802450
 30
0.0
 10
-86.607310
 20
179.108960
 30
0.0
 10
-90.448768
 20
177.180880
 30
0.0
 10
-90.972544
 20
177.029020
 30
0.0
  0
SPLINE
  5
188
100
AcDbEntity
  8
Ebene_1
 62
7
100
AcDbSpline
 70
8
 71
3
 72
8
 73
4
 74
0
 40
0
 40
0
 40
0
 40
0
 40
1
 40
1
 40
1
 40
1
 10
-90.972544
 20
177.029020
 30
0.0
 10
-91.188687
 20
176.966320
 30
0.0
 10
-91.217668
 20
177.013420
 30
0.0
 10
-91.289578
 20
177.544610
 30
0.0
  0
SPLINE
  5
189
100
AcDbEntity
  8
Ebene_1
 62
7
100
AcDbSpline
 70
8
 71
3
 72
8
 73
4
 74
0
 40
0
 40
0
 40
0
 40
0
 40
1
 40
1
 40
1
 40
1
 10
-91.289578
 20
177.544610
 30
0.0
 10
-91.333108
 20
177.866110
 30
0.0
 10
-91.490314
 20
178.550810
 30
0.0
 10
-91.638925
 20
179.066160
 30
0.0
  0
SPLINE
  5
18a
100
AcDbEntity
  8
Ebene_1
 62
7
100
AcDbSpline
 70
8
 71
3
 72
8
 73
4
 74
0
 40
0
 40
0
 40
0
 40
0
 40
1
 40
1
 40
1
 40
1
 10
-91.638925
 20
179.066160
 30
0.0
 10
-92.809200
 20
183.124440
 30
0.0
 10
-96.266963
 20
184.926490
 30
0.0
 10
-104.170680
 20
185.597210
 30
0.0
  0
SPLINE
  5
18b
100
AcDbEntity
  8
Ebene_1
 62
7
100
AcDbSpline
 70
8
 71
3
 72
8
 73
4
 74
0
 40
0
 40
0
 40
0
 40
0
 40
1
 40
1
 40
1
 40
1
 10
-104.170680
 20
185.597210
 30
0.0
 10
-105.891630
 20
185.743250
 30
0.0
 10
-113.048950
 20
185.930670
 30
0.0
 10
-113.138880
 20
185.832040
 30
0.0
  0
SPLINE
  5
18c
100
AcDbEntity
  8
Ebene_1
 62
7
100
AcDbSpline
 70
8
 71
3
 72
8
 73
4
 74
0
 40
0
 40
0
 40
0
 40
0
 40
1
 40
1
 40
1
 40
1
 10
-113.138880
 20
185.832040
 30
0.0
 10
-113.184880
 20
185.781640
 30
0.0
 10
-127.001780
 20
108.272920
 30
0.0
 10
-129.917770
 20
91.707300
 30
0.0
  0
LWPOLYLINE
  5
18d
100
AcDbEntity
  8
Ebene_1
 62
7
100
AcDbPolyline
 90
3
 70
0
 10
-75.521079
 20
189.238770
 30
0.0
 10
-75.087524
 20
189.017580
 30
0.0
 10
-75.646780
 20
188.248670
 30
0.0
  0
SPLINE
  5
18e
100
AcDbEntity
  8
Ebene_1
 62
7
100
AcDbSpline
 70
8
 71
3
 72
8
 73
4
 74
0
 40
0
 40
0
 40
0
 40
0
 40
1
 40
1
 40
1
 40
1
 10
-75.086934
 20
193.193120
 30
0.0
 10
-88.294461
 20
198.763348
 30
0.0
 10
-103.299790
 20
202.307861
 30
0.0
 10
-118.270210
 20
203.393761
 30
0.0
  0
SPLINE
  5
18f
100
AcDbEntity
  8
Ebene_1
 62
7
100
AcDbSpline
 70
8
 71
3
 72
8
 73
4
 74
0
 40
0
 40
0
 40
0
 40
0
 40
1
 40
1
 40
1
 40
1
 10
-118.270210
 20
203.393761
 30
0.0
 10
-123.079890
 20
203.742636
 30
0.0
 10
-133.071960
 20
203.856884
 30
0.0
 10
-137.910410
 20
203.618324
 30
0.0
  0
SPLINE
  5
190
100
AcDbEntity
  8
Ebene_1
 62
7
100
AcDbSpline
 70
8
 71
3
 72
8
 73
4
 74
0
 40
0
 40
0
 40
0
 40
0
 40
1
 40
1
 40
1
 40
1
 10
-137.910410
 20
203.618324
 30
0.0
 10
-154.677870
 20
202.791598
 30
0.0
 10
-170.104250
 20
199.374495
 30
0.0
 10
-184.929890
 20
193.203000
 30
0.0
  0
SPLINE
  5
191
100
AcDbEntity
  8
Ebene_1
 62
7
100
AcDbSpline
 70
8
 71
3
 72
8
 73
4
 74
0
 40
0
 40
0
 40
0
 40
0
 40
1
 40
1
 40
1
 40
1
 10
-184.929890
 20
193.203000
 30
0.0
 10
-185.951320
 20
192.777810
 30
0.0
 10
-186.850620
 20
192.454340
 30
0.0
 10
-186.928340
 20
192.484160
 30
0.0
  0
SPLINE
  5
192
100
AcDbEntity
  8
Ebene_1
 62
7
100
AcDbSpline
 70
8
 71
3
 72
8
 73
4
 74
0
 40
0
 40
0
 40
0
 40
0
 40
1
 40
1
 40
1
 40
1
 10
-186.928340
 20
192.484160
 30
0.0
 10
-187.006040
 20
192.514060
 30
0.0
 10
-187.645550
 20
193.700350
 30
0.0
 10
-188.349410
 20
195.120540
 30
0.0
  0
SPLINE
  5
193
100
AcDbEntity
  8
Ebene_1
 62
7
100
AcDbSpline
 70
8
 71
3
 72
8
 73
4
 74
0
 40
0
 40
0
 40
0
 40
0
 40
1
 40
1
 40
1
 40
1
 10
-188.349410
 20
195.120540
 30
0.0
 10
-189.666300
 20
197.777634
 30
0.0
 10
-190.280000
 20
199.157925
 30
0.0
 10
-190.186190
 20
199.251725
 30
0.0
  0
SPLINE
  5
194
100
AcDbEntity
  8
Ebene_1
 62
7
100
AcDbSpline
 70
8
 71
3
 72
8
 73
4
 74
0
 40
0
 40
0
 40
0
 40
0
 40
1
 40
1
 40
1
 40
1
 10
-190.186190
 20
199.251725
 30
0.0
 10
-190.090190
 20
199.347625
 30
0.0
 10
-186.223760
 20
200.808375
 30
0.0
 10
-183.957450
 20
201.604857
 30
0.0
  0
SPLINE
  5
195
100
AcDbEntity
  8
Ebene_1
 62
7
100
AcDbSpline
 70
8
 71
3
 72
8
 73
4
 74
0
 40
0
 40
0
 40
0
 40
0
 40
1
 40
1
 40
1
 40
1
 10
-183.957450
 20
201.604857
 30
0.0
 10
-162.711610
 20
209.071614
 30
0.0
 10
-140.021620
 20
212.165845
 30
0.0
 10
-118.546670
 20
210.524912
 30
0.0
  0
SPLINE
  5
196
100
AcDbEntity
  8
Ebene_1
 62
7
100
AcDbSpline
 70
8
 71
3
 72
8
 73
4
 74
0
 40
0
 40
0
 40
0
 40
0
 40
1
 40
1
 40
1
 40
1
 10
-118.546670
 20
210.524912
 30
0.0
 10
-102.484700
 20
209.297591
 30
0.0
 10
-87.347060
 20
205.909493
 30
0.0
 10
-71.937951
 20
200.092972
 30
0.0
  0
SPLINE
  5
197
100
AcDbEntity
  8
Ebene_1
 62
7
100
AcDbSpline
 70
8
 71
3
 72
8
 73
4
 74
0
 40
0
 40
0
 40
0
 40
0
 40
1
 40
1
 40
1
 40
1
 10
-71.937951
 20
200.092972
 30
0.0
 10
-70.790703
 20
199.659912
 30
0.0
 10
-69.832332
 20
199.285885
 30
0.0
 10
-69.808236
 20
199.261785
 30
0.0
  0
SPLINE
  5
198
100
AcDbEntity
  8
Ebene_1
 62
7
100
AcDbSpline
 70
8
 71
3
 72
8
 73
4
 74
0
 40
0
 40
0
 40
0
 40
0
 40
1
 40
1
 40
1
 40
1
 10
-69.808236
 20
199.261785
 30
0.0
 10
-69.682280
 20
199.135825
 30
0.0
 10
-72.763354
 20
192.703880
 30
0.0
 10
-73.075547
 20
192.441060
 30
0.0
  0
SPLINE
  5
199
100
AcDbEntity
  8
Ebene_1
 62
7
100
AcDbSpline
 70
8
 71
3
 72
8
 73
4
 74
0
 40
0
 40
0
 40
0
 40
0
 40
1
 40
1
 40
1
 40
1
 10
-73.075547
 20
192.441060
 30
0.0
 10
-73.117437
 20
192.405760
 30
0.0
 10
-74.022560
 20
192.744220
 30
0.0
 10
-75.086934
 20
193.193120
 30
0.0
  0
LWPOLYLINE
  5
19a
100
AcDbEntity
  8
Ebene_1
 62
7
100
AcDbPolyline
 90
3
 70
0
 10
-129.917770
 20
91.707300
 30
0.0
 10
-130.005370
 20
91.209670
 30
0.0
 10
-130.078760
 20
91.596690
 30
0.0
  0
LWPOLYLINE
  5
19b
100
AcDbEntity
  8
Ebene_1
 62
7
100
AcDbPolyline
 90
1
 70
1
 10
-75.086934
 20
193.193120
 30
0.0
  0
LWPOLYLINE
  5
19c
100
AcDbEntity
  8
Ebene_1
 62
7
100
AcDbPolyline
 90
9
 70
1
 10
-76.759839
 20
236.568014
 30
0.0
 10
-76.759839
 20
222.712545
 30
0.0
 10
-76.259839
 20
222.712545
 30
0.0
 10
-71.474689
 20
222.712545
 30
0.0
 10
-71.474689
 20
231.282857
 30
0.0
 10
-55.334059
 20
231.282857
 30
0.0
 10
-55.334059
 20
222.712545
 30
0.0
 10
-50.048899
 20
222.712545
 30
0.0
 10
-50.048899
 20
236.568014
 30
0.0
  0
SPLINE
  5
19d
100
AcDbEntity
  8
Ebene_1
 62
7
100
AcDbSpline
 70
8
 71
3
 72
8
 73
4
 74
0
 40
0
 40
0
 40
0
 40
0
 40
1
 40
1
 40
1
 40
1
 10
-76.759839
 20
244.638326
 30
0.0
 10
-76.759839
 20
243.339077
 30
0.0
 10
-76.287779
 20
242.175154
 30
0.0
 10
-75.380929
 20
241.243795
 30
0.0
  0
LWPOLYLINE
  5
19e
100
AcDbEntity
  8
Ebene_1
 62
7
100
AcDbPolyline
 90
2
 70
0
 10
-76.759839
 20
245.138326
 30
0.0
 10
-76.759839
 20
244.638326
 30
0.0
  0
SPLINE
  5
19f
100
AcDbEntity
  8
Ebene_1
 62
7
100
AcDbSpline
 70
8
 71
3
 72
8
 73
4
 74
0
 40
0
 40
0
 40
0
 40
0
 40
1
 40
1
 40
1
 40
1
 10
-75.374929
 20
241.239795
 30
0.0
 10
-74.463129
 20
240.328000
 30
0.0
 10
-73.293949
 20
239.853076
 30
0.0
 10
-71.974539
 20
239.853076
 30
0.0
  0
LWPOLYLINE
  5
1a0
100
AcDbEntity
  8
Ebene_1
 62
7
100
AcDbPolyline
 90
3
 70
0
 10
-75.380929
 20
241.243795
 30
0.0
 10
-75.376929
 20
241.241795
 30
0.0
 10
-75.374929
 20
241.239795
 30
0.0
  0
SPLINE
  5
1a1
100
AcDbEntity
  8
Ebene_1
 62
7
100
AcDbSpline
 70
8
 71
3
 72
8
 73
4
 74
0
 40
0
 40
0
 40
0
 40
0
 40
1
 40
1
 40
1
 40
1
 10
-54.833909
 20
239.853076
 30
0.0
 10
-53.554739
 20
239.853076
 30
0.0
 10
-52.402369
 20
240.328615
 30
0.0
 10
-51.472579
 20
241.233935
 30
0.0
  0
SPLINE
  5
1a2
100
AcDbEntity
  8
Ebene_1
 62
7
100
AcDbSpline
 70
8
 71
3
 72
8
 73
4
 74
0
 40
0
 40
0
 40
0
 40
0
 40
1
 40
1
 40
1
 40
1
 10
-51.472579
 20
241.233935
 30
0.0
 10
-50.537359
 20
242.144547
 30
0.0
 10
-50.048749
 20
243.315733
 30
0.0
 10
-50.048749
 20
244.638232
 30
0.0
  0
LWPOLYLINE
  5
1a3
100
AcDbEntity
  8
Ebene_1
 62
7
100
AcDbPolyline
 90
2
 70
0
 10
-71.974539
 20
239.853076
 30
0.0
 10
-54.833909
 20
239.853076
 30
0.0
  0
LWPOLYLINE
  5
1a4
100
AcDbEntity
  8
Ebene_1
 62
7
100
AcDbPolyline
 90
3
 70
0
 10
-50.048749
 20
244.638232
 30
0.0
 10
-50.048749
 20
245.138232
 30
0.0
 10
-76.759839
 20
245.138326
 30
0.0
  0
SPLINE
  5
1a5
100
AcDbEntity
  8
Ebene_1
 62
7
100
AcDbSpline
 70
8
 71
3
 72
8
 73
4
 74
0
 40
0
 40
0
 40
0
 40
0
 40
1
 40
1
 40
1
 40
1
 10
-209.951249
 20
244.638326
 30
0.0
 10
-209.951249
 20
243.339077
 30
0.0
 10
-209.477239
 20
242.175154
 30
0.0
 10
-208.570389
 20
241.243795
 30
0.0
  0
LWPOLYLINE
  5
1a6
100
AcDbEntity
  8
Ebene_1
 62
7
100
AcDbPolyline
 90
2
 70
0
 10
-209.951249
 20
245.138326
 30
0.0
 10
-209.951249
 20
244.638326
 30
0.0
  0
SPLINE
  5
1a7
100
AcDbEntity
  8
Ebene_1
 62
7
100
AcDbSpline
 70
8
 71
3
 72
8
 73
4
 74
0
 40
0
 40
0
 40
0
 40
0
 40
1
 40
1
 40
1
 40
1
 10
-208.566389
 20
241.239795
 30
0.0
 10
-207.654589
 20
240.327999
 30
0.0
 10
-206.485409
 20
239.853076
 30
0.0
 10
-205.165999
 20
239.853076
 30
0.0
  0
LWPOLYLINE
  5
1a8
100
AcDbEntity
  8
Ebene_1
 62
7
100
AcDbPolyline
 90
3
 70
0
 10
-208.570389
 20
241.243795
 30
0.0
 10
-208.568389
 20
241.241795
 30
0.0
 10
-208.566389
 20
241.239795
 30
0.0
  0
SPLINE
  5
1a9
100
AcDbEntity
  8
Ebene_1
 62
7
100
AcDbSpline
 70
8
 71
3
 72
8
 73
4
 74
0
 40
0
 40
0
 40
0
 40
0
 40
1
 40
1
 40
1
 40
1
 10
-188.025369
 20
239.853170
 30
0.0
 10
-186.746199
 20
239.853170
 30
0.0
 10
-185.593829
 20
240.328709
 30
0.0
 10
-184.664039
 20
241.234029
 30
0.0
  0
SPLINE
  5
1aa
100
AcDbEntity
  8
Ebene_1
 62
7
100
AcDbSpline
 70
8
 71
3
 72
8
 73
4
 74
0
 40
0
 40
0
 40
0
 40
0
 40
1
 40
1
 40
1
 40
1
 10
-184.664039
 20
241.234029
 30
0.0
 10
-183.728819
 20
242.144640
 30
0.0
 10
-183.240219
 20
243.315826
 30
0.0
 10
-183.240219
 20
244.638326
 30
0.0
  0
LWPOLYLINE
  5
1ab
100
AcDbEntity
  8
Ebene_1
 62
7
100
AcDbPolyline
 90
7
 70
0
 10
-205.165999
 20
239.853076
 30
0.0
 10
-199.238259
 20
239.853076
 30
0.0
 10
-199.238259
 20
222.712545
 30
0.0
 10
-198.738259
 20
222.712545
 30
0.0
 10
-193.953109
 20
222.712545
 30
0.0
 10
-193.953109
 20
239.853170
 30
0.0
 10
-188.025369
 20
239.853170
 30
0.0
  0
LWPOLYLINE
  5
1ac
100
AcDbEntity
  8
Ebene_1
 62
7
100
AcDbPolyline
 90
3
 70
0
 10
-183.240219
 20
244.638326
 30
0.0
 10
-183.240219
 20
245.138326
 30
0.0
 10
-209.951249
 20
245.138326
 30
0.0
  0
SPLINE
  5
1ad
100
AcDbEntity
  8
Ebene_1
 62
7
100
AcDbSpline
 70
8
 71
3
 72
8
 73
4
 74
0
 40
0
 40
0
 40
0
 40
0
 40
1
 40
1
 40
1
 40
1
 10
-176.654369
 20
227.497701
 30
0.0
 10
-176.654369
 20
226.198452
 30
0.0
 10
-176.180359
 20
225.034529
 30
0.0
 10
-175.273509
 20
224.103170
 30
0.0
  0
LWPOLYLINE
  5
1ae
100
AcDbEntity
  8
Ebene_1
 62
7
100
AcDbPolyline
 90
2
 70
0
 10
-176.654369
 20
227.997701
 30
0.0
 10
-176.654369
 20
227.497701
 30
0.0
  0
SPLINE
  5
1af
100
AcDbEntity
  8
Ebene_1
 62
7
100
AcDbSpline
 70
8
 71
3
 72
8
 73
4
 74
0
 40
0
 40
0
 40
0
 40
0
 40
1
 40
1
 40
1
 40
1
 10
-175.269509
 20
224.097270
 30
0.0
 10
-174.357719
 20
223.185474
 30
0.0
 10
-173.188539
 20
222.712504
 30
0.0
 10
-171.869119
 20
222.712504
 30
0.0
  0
LWPOLYLINE
  5
1b0
100
AcDbEntity
  8
Ebene_1
 62
7
100
AcDbPolyline
 90
3
 70
0
 10
-175.273509
 20
224.103170
 30
0.0
 10
-175.271509
 20
224.101170
 30
0.0
 10
-175.269509
 20
224.097270
 30
0.0
  0
SPLINE
  5
1b1
100
AcDbEntity
  8
Ebene_1
 62
7
100
AcDbSpline
 70
8
 71
3
 72
8
 73
4
 74
0
 40
0
 40
0
 40
0
 40
0
 40
1
 40
1
 40
1
 40
1
 10
-154.728499
 20
222.712504
 30
0.0
 10
-153.449329
 20
222.712504
 30
0.0
 10
-152.294999
 20
223.188043
 30
0.0
 10
-151.365219
 20
224.093363
 30
0.0
  0
SPLINE
  5
1b2
100
AcDbEntity
  8
Ebene_1
 62
7
100
AcDbSpline
 70
8
 71
3
 72
8
 73
4
 74
0
 40
0
 40
0
 40
0
 40
0
 40
1
 40
1
 40
1
 40
1
 10
-151.365219
 20
224.093363
 30
0.0
 10
-150.429989
 20
225.003974
 30
0.0
 10
-149.943339
 20
226.175160
 30
0.0
 10
-149.943339
 20
227.497660
 30
0.0
  0
LWPOLYLINE
  5
1b3
100
AcDbEntity
  8
Ebene_1
 62
7
100
AcDbPolyline
 90
2
 70
0
 10
-171.869119
 20
222.712504
 30
0.0
 10
-154.728499
 20
222.712504
 30
0.0
  0
LWPOLYLINE
  5
1b4
100
AcDbEntity
  8
Ebene_1
 62
7
100
AcDbPolyline
 90
3
 70
0
 10
-149.943339
 20
227.497660
 30
0.0
 10
-149.943339
 20
227.997660
 30
0.0
 10
-176.654369
 20
227.997701
 30
0.0
  0
SPLINE
  5
1b5
100
AcDbEntity
  8
Ebene_1
 62
7
100
AcDbSpline
 70
8
 71
3
 72
8
 73
4
 74
0
 40
0
 40
0
 40
0
 40
0
 40
1
 40
1
 40
1
 40
1
 10
-176.654369
 20
236.068014
 30
0.0
 10
-176.654369
 20
234.768764
 30
0.0
 10
-176.180359
 20
233.604842
 30
0.0
 10
-175.273509
 20
232.673483
 30
0.0
  0
LWPOLYLINE
  5
1b6
100
AcDbEntity
  8
Ebene_1
 62
7
100
AcDbPolyline
 90
2
 70
0
 10
-176.654369
 20
236.568014
 30
0.0
 10
-176.654369
 20
236.068014
 30
0.0
  0
SPLINE
  5
1b7
100
AcDbEntity
  8
Ebene_1
 62
7
100
AcDbSpline
 70
8
 71
3
 72
8
 73
4
 74
0
 40
0
 40
0
 40
0
 40
0
 40
1
 40
1
 40
1
 40
1
 10
-175.269509
 20
232.667583
 30
0.0
 10
-174.357719
 20
231.755788
 30
0.0
 10
-173.188539
 20
231.282817
 30
0.0
 10
-171.869119
 20
231.282817
 30
0.0
  0
LWPOLYLINE
  5
1b8
100
AcDbEntity
  8
Ebene_1
 62
7
100
AcDbPolyline
 90
3
 70
0
 10
-175.273509
 20
232.673483
 30
0.0
 10
-175.271509
 20
232.671483
 30
0.0
 10
-175.269509
 20
232.667583
 30
0.0
  0
SPLINE
  5
1b9
100
AcDbEntity
  8
Ebene_1
 62
7
100
AcDbSpline
 70
8
 71
3
 72
8
 73
4
 74
0
 40
0
 40
0
 40
0
 40
0
 40
1
 40
1
 40
1
 40
1
 10
-154.728499
 20
231.282817
 30
0.0
 10
-153.449329
 20
231.282817
 30
0.0
 10
-152.294999
 20
231.758356
 30
0.0
 10
-151.365219
 20
232.663677
 30
0.0
  0
SPLINE
  5
1ba
100
AcDbEntity
  8
Ebene_1
 62
7
100
AcDbSpline
 70
8
 71
3
 72
8
 73
4
 74
0
 40
0
 40
0
 40
0
 40
0
 40
1
 40
1
 40
1
 40
1
 10
-151.365219
 20
232.663677
 30
0.0
 10
-150.429989
 20
233.574288
 30
0.0
 10
-149.943339
 20
234.745474
 30
0.0
 10
-149.943339
 20
236.067974
 30
0.0
  0
LWPOLYLINE
  5
1bb
100
AcDbEntity
  8
Ebene_1
 62
7
100
AcDbPolyline
 90
2
 70
0
 10
-171.869119
 20
231.282817
 30
0.0
 10
-154.728499
 20
231.282817
 30
0.0
  0
LWPOLYLINE
  5
1bc
100
AcDbEntity
  8
Ebene_1
 62
7
100
AcDbPolyline
 90
3
 70
0
 10
-149.943339
 20
236.067974
 30
0.0
 10
-149.943339
 20
236.567974
 30
0.0
 10
-176.654369
 20
236.568014
 30
0.0
  0
SPLINE
  5
1bd
100
AcDbEntity
  8
Ebene_1
 62
7
100
AcDbSpline
 70
8
 71
3
 72
8
 73
4
 74
0
 40
0
 40
0
 40
0
 40
0
 40
1
 40
1
 40
1
 40
1
 10
-176.654369
 20
244.638326
 30
0.0
 10
-176.654369
 20
243.339077
 30
0.0
 10
-176.180359
 20
242.175154
 30
0.0
 10
-175.273509
 20
241.243795
 30
0.0
  0
LWPOLYLINE
  5
1be
100
AcDbEntity
  8
Ebene_1
 62
7
100
AcDbPolyline
 90
2
 70
0
 10
-176.654369
 20
245.138326
 30
0.0
 10
-176.654369
 20
244.638326
 30
0.0
  0
SPLINE
  5
1bf
100
AcDbEntity
  8
Ebene_1
 62
7
100
AcDbSpline
 70
8
 71
3
 72
8
 73
4
 74
0
 40
0
 40
0
 40
0
 40
0
 40
1
 40
1
 40
1
 40
1
 10
-175.269509
 20
241.239795
 30
0.0
 10
-174.357719
 20
240.327999
 30
0.0
 10
-173.188539
 20
239.853076
 30
0.0
 10
-171.869119
 20
239.853076
 30
0.0
  0
LWPOLYLINE
  5
1c0
100
AcDbEntity
  8
Ebene_1
 62
7
100
AcDbPolyline
 90
3
 70
0
 10
-175.273509
 20
241.243795
 30
0.0
 10
-175.271509
 20
241.241795
 30
0.0
 10
-175.269509
 20
241.239795
 30
0.0
  0
SPLINE
  5
1c1
100
AcDbEntity
  8
Ebene_1
 62
7
100
AcDbSpline
 70
8
 71
3
 72
8
 73
4
 74
0
 40
0
 40
0
 40
0
 40
0
 40
1
 40
1
 40
1
 40
1
 10
-154.728499
 20
239.853076
 30
0.0
 10
-153.449329
 20
239.853076
 30
0.0
 10
-152.294999
 20
240.328615
 30
0.0
 10
-151.365219
 20
241.233935
 30
0.0
  0
SPLINE
  5
1c2
100
AcDbEntity
  8
Ebene_1
 62
7
100
AcDbSpline
 70
8
 71
3
 72
8
 73
4
 74
0
 40
0
 40
0
 40
0
 40
0
 40
1
 40
1
 40
1
 40
1
 10
-151.365219
 20
241.233935
 30
0.0
 10
-150.429989
 20
242.144546
 30
0.0
 10
-149.943339
 20
243.315732
 30
0.0
 10
-149.943339
 20
244.638232
 30
0.0
  0
LWPOLYLINE
  5
1c3
100
AcDbEntity
  8
Ebene_1
 62
7
100
AcDbPolyline
 90
2
 70
0
 10
-171.869119
 20
239.853076
 30
0.0
 10
-154.728499
 20
239.853076
 30
0.0
  0
LWPOLYLINE
  5
1c4
100
AcDbEntity
  8
Ebene_1
 62
7
100
AcDbPolyline
 90
3
 70
0
 10
-149.943339
 20
244.638232
 30
0.0
 10
-149.943339
 20
245.138232
 30
0.0
 10
-176.654369
 20
245.138326
 30
0.0
  0
SPLINE
  5
1c5
100
AcDbEntity
  8
Ebene_1
 62
7
100
AcDbSpline
 70
8
 71
3
 72
8
 73
4
 74
0
 40
0
 40
0
 40
0
 40
0
 40
1
 40
1
 40
1
 40
1
 10
-138.570389
 20
227.997701
 30
0.0
 10
-139.872779
 20
227.997701
 30
0.0
 10
-141.040479
 20
227.510033
 30
0.0
 10
-141.970779
 20
226.579733
 30
0.0
  0
SPLINE
  5
1c6
100
AcDbEntity
  8
Ebene_1
 62
7
100
AcDbSpline
 70
8
 71
3
 72
8
 73
4
 74
0
 40
0
 40
0
 40
0
 40
0
 40
1
 40
1
 40
1
 40
1
 10
-141.970779
 20
226.579733
 30
0.0
 10
-142.880979
 20
225.669529
 30
0.0
 10
-143.355539
 20
224.511794
 30
0.0
 10
-143.355539
 20
223.212545
 30
0.0
  0
LWPOLYLINE
  5
1c7
100
AcDbEntity
  8
Ebene_1
 62
7
100
AcDbPolyline
 90
5
 70
0
 10
-143.355539
 20
245.138326
 30
0.0
 10
-143.355539
 20
231.282857
 30
0.0
 10
-121.929759
 20
231.282857
 30
0.0
 10
-121.929759
 20
227.997701
 30
0.0
 10
-138.570389
 20
227.997701
 30
0.0
  0
SPLINE
  5
1c8
100
AcDbEntity
  8
Ebene_1
 62
7
100
AcDbSpline
 70
8
 71
3
 72
8
 73
4
 74
0
 40
0
 40
0
 40
0
 40
0
 40
1
 40
1
 40
1
 40
1
 10
-121.429759
 20
239.853170
 30
0.0
 10
-120.150589
 20
239.853170
 30
0.0
 10
-118.998219
 20
240.328709
 30
0.0
 10
-118.068429
 20
241.234029
 30
0.0
  0
SPLINE
  5
1c9
100
AcDbEntity
  8
Ebene_1
 62
7
100
AcDbSpline
 70
8
 71
3
 72
8
 73
4
 74
0
 40
0
 40
0
 40
0
 40
0
 40
1
 40
1
 40
1
 40
1
 10
-118.068429
 20
241.234029
 30
0.0
 10
-117.133209
 20
242.144641
 30
0.0
 10
-116.644609
 20
243.315827
 30
0.0
 10
-116.644609
 20
244.638326
 30
0.0
  0
LWPOLYLINE
  5
1ca
100
AcDbEntity
  8
Ebene_1
 62
7
100
AcDbPolyline
 90
8
 70
0
 10
-143.355539
 20
223.212545
 30
0.0
 10
-143.355539
 20
222.712545
 30
0.0
 10
-142.855539
 20
222.712545
 30
0.0
 10
-116.644609
 20
222.712545
 30
0.0
 10
-116.644609
 20
236.568014
 30
0.0
 10
-138.070389
 20
236.568014
 30
0.0
 10
-138.070389
 20
239.853170
 30
0.0
 10
-121.429759
 20
239.853170
 30
0.0
  0
LWPOLYLINE
  5
1cb
100
AcDbEntity
  8
Ebene_1
 62
7
100
AcDbPolyline
 90
3
 70
0
 10
-116.644609
 20
244.638326
 30
0.0
 10
-116.644609
 20
245.138326
 30
0.0
 10
-143.355539
 20
245.138326
 30
0.0
  0
SPLINE
  5
1cc
100
AcDbEntity
  8
Ebene_1
 62
7
100
AcDbSpline
 70
8
 71
3
 72
8
 73
4
 74
0
 40
0
 40
0
 40
0
 40
0
 40
1
 40
1
 40
1
 40
1
 10
-88.132889
 20
222.712545
 30
0.0
 10
-86.853719
 20
222.712545
 30
0.0
 10
-85.699389
 20
223.188084
 30
0.0
 10
-84.769609
 20
224.093404
 30
0.0
  0
SPLINE
  5
1cd
100
AcDbEntity
  8
Ebene_1
 62
7
100
AcDbSpline
 70
8
 71
3
 72
8
 73
4
 74
0
 40
0
 40
0
 40
0
 40
0
 40
1
 40
1
 40
1
 40
1
 10
-84.769609
 20
224.093404
 30
0.0
 10
-83.834389
 20
225.004016
 30
0.0
 10
-83.347729
 20
226.175202
 30
0.0
 10
-83.347729
 20
227.497701
 30
0.0
  0
LWPOLYLINE
  5
1ce
100
AcDbEntity
  8
Ebene_1
 62
7
100
AcDbPolyline
 90
4
 70
0
 10
-110.058669
 20
245.138326
 30
0.0
 10
-110.058669
 20
222.712545
 30
0.0
 10
-109.558669
 20
222.712545
 30
0.0
 10
-88.132889
 20
222.712545
 30
0.0
  0
LWPOLYLINE
  5
1cf
100
AcDbEntity
  8
Ebene_1
 62
7
100
AcDbPolyline
 90
5
 70
0
 10
-83.347729
 20
227.497701
 30
0.0
 10
-83.347729
 20
227.997701
 30
0.0
 10
-104.773509
 20
227.997701
 30
0.0
 10
-104.773509
 20
245.138326
 30
0.0
 10
-110.058669
 20
245.138326
 30
0.0
  0
LWPOLYLINE
  5
1d0
100
AcDbEntity
  8
Ebene_1
 62
7
100
AcDbPolyline
 90
18
 70
1
 10
-183.878910
 20
273.677734
 30
0.0
 10
-179.972660
 20
269.769531
 30
0.0
 10
-179.972660
 20
255.878906
 30
0.0
 10
-179.630860
 20
255.878906
 30
0.0
 10
-175.865230
 20
255.878906
 30
0.0
 10
-175.865230
 20
265.664062
 30
0.0
 10
-171.416020
 20
261.212891
 30
0.0
 10
-171.416020
 20
255.878906
 30
0.0
 10
-167.308590
 20
255.878906
 30
0.0
 10
-167.308590
 20
261.212891
 30
0.0
 10
-162.859380
 20
265.662109
 30
0.0
 10
-162.859380
 20
255.878906
 30
0.0
 10
-158.751950
 20
255.878906
 30
0.0
 10
-158.751950
 20
269.769531
 30
0.0
 10
-154.843750
 20
273.677734
 30
0.0
 10
-160.947270
 20
273.677734
 30
0.0
 10
-169.361330
 20
265.261719
 30
0.0
 10
-177.777340
 20
273.677734
 30
0.0
  0
LWPOLYLINE
  5
1d1
100
AcDbEntity
  8
Ebene_1
 62
7
100
AcDbPolyline
 90
9
 70
1
 10
-152.589840
 20
266.832031
 30
0.0
 10
-152.589840
 20
255.878906
 30
0.0
 10
-152.248050
 20
255.878906
 30
0.0
 10
-148.482420
 20
255.878906
 30
0.0
 10
-148.482420
 20
262.724609
 30
0.0
 10
-135.476560
 20
262.724609
 30
0.0
 10
-135.476560
 20
255.878906
 30
0.0
 10
-131.369140
 20
255.878906
 30
0.0
 10
-131.369140
 20
266.832031
 30
0.0
  0
SPLINE
  5
1d2
100
AcDbEntity
  8
Ebene_1
 62
7
100
AcDbSpline
 70
8
 71
3
 72
8
 73
4
 74
0
 40
0
 40
0
 40
0
 40
0
 40
1
 40
1
 40
1
 40
1
 10
-152.589840
 20
273.335938
 30
0.0
 10
-152.589840
 20
272.311408
 30
0.0
 10
-152.219020
 20
271.396556
 30
0.0
 10
-151.503910
 20
270.662109
 30
0.0
  0
LWPOLYLINE
  5
1d3
100
AcDbEntity
  8
Ebene_1
 62
7
100
AcDbPolyline
 90
2
 70
0
 10
-152.589840
 20
273.677734
 30
0.0
 10
-152.589840
 20
273.335938
 30
0.0
  0
SPLINE
  5
1d4
100
AcDbEntity
  8
Ebene_1
 62
7
100
AcDbSpline
 70
8
 71
3
 72
8
 73
4
 74
0
 40
0
 40
0
 40
0
 40
0
 40
1
 40
1
 40
1
 40
1
 10
-151.499910
 20
270.660109
 30
0.0
 10
-150.781400
 20
269.941603
 30
0.0
 10
-149.866960
 20
269.570265
 30
0.0
 10
-148.826080
 20
269.570265
 30
0.0
  0
LWPOLYLINE
  5
1d5
100
AcDbEntity
  8
Ebene_1
 62
7
100
AcDbPolyline
 90
3
 70
0
 10
-151.503910
 20
270.662109
 30
0.0
 10
-151.501910
 20
270.660109
 30
0.0
 10
-151.499910
 20
270.660109
 30
0.0
  0
SPLINE
  5
1d6
100
AcDbEntity
  8
Ebene_1
 62
7
100
AcDbSpline
 70
8
 71
3
 72
8
 73
4
 74
0
 40
0
 40
0
 40
0
 40
0
 40
1
 40
1
 40
1
 40
1
 10
-135.134680
 20
269.570265
 30
0.0
 10
-134.126440
 20
269.570266
 30
0.0
 10
-133.221560
 20
269.942132
 30
0.0
 10
-132.488190
 20
270.656203
 30
0.0
  0
SPLINE
  5
1d7
100
AcDbEntity
  8
Ebene_1
 62
7
100
AcDbSpline
 70
8
 71
3
 72
8
 73
4
 74
0
 40
0
 40
0
 40
0
 40
0
 40
1
 40
1
 40
1
 40
1
 10
-132.488190
 20
270.656203
 30
0.0
 10
-131.751100
 20
271.373899
 30
0.0
 10
-131.369050
 20
272.292895
 30
0.0
 10
-131.369050
 20
273.335891
 30
0.0
  0
LWPOLYLINE
  5
1d8
100
AcDbEntity
  8
Ebene_1
 62
7
100
AcDbPolyline
 90
2
 70
0
 10
-148.826080
 20
269.570265
 30
0.0
 10
-135.134680
 20
269.570265
 30
0.0
  0
LWPOLYLINE
  5
1d9
100
AcDbEntity
  8
Ebene_1
 62
7
100
AcDbPolyline
 90
3
 70
0
 10
-131.369050
 20
273.335891
 30
0.0
 10
-131.369050
 20
273.677687
 30
0.0
 10
-152.589840
 20
273.677734
 30
0.0
  0
LWPOLYLINE
  5
1da
100
AcDbEntity
  8
Ebene_1
 62
7
100
AcDbPolyline
 90
14
 70
1
 10
-128.630906
 20
273.677910
 30
0.0
 10
-128.630906
 20
269.769621
 30
0.0
 10
-125.107608
 20
266.247871
 30
0.0
 10
-123.638446
 20
264.777161
 30
0.0
 10
-128.630906
 20
259.785217
 30
0.0
 10
-128.630906
 20
255.878996
 30
0.0
 10
-128.288808
 20
255.878996
 30
0.0
 10
-124.523662
 20
255.878996
 30
0.0
 10
-124.523662
 20
257.791023
 30
0.0
 10
-118.517830
 20
263.794792
 30
0.0
 10
-118.517830
 20
265.760046
 30
0.0
 10
-124.523662
 20
271.765882
 30
0.0
 10
-124.523662
 20
273.677910
 30
0.0
 10
-128.630906
 20
273.677910
 30
0.0
  0
LWPOLYLINE
  5
1db
100
AcDbEntity
  8
Ebene_1
 62
7
100
AcDbPolyline
 90
15
 70
1
 10
-111.517741
 20
273.677910
 30
0.0
 10
-111.517741
 20
271.765882
 30
0.0
 10
-117.517890
 20
265.763665
 30
0.0
 10
-117.517890
 20
263.791175
 30
0.0
 10
-111.517741
 20
257.791023
 30
0.0
 10
-111.517741
 20
255.878996
 30
0.0
 10
-111.173573
 20
255.878996
 30
0.0
 10
-107.409979
 20
255.878996
 30
0.0
 10
-107.409979
 20
259.785217
 30
0.0
 10
-112.404508
 20
264.779227
 30
0.0
 10
-111.058337
 20
266.146586
 30
0.0
 10
-111.033014
 20
266.146586
 30
0.0
 10
-107.409979
 20
269.769621
 30
0.0
 10
-107.409979
 20
273.677910
 30
0.0
 10
-111.517741
 20
273.677910
 30
0.0
  0
SPLINE
  5
1dc
100
AcDbEntity
  8
Ebene_1
 62
7
100
AcDbSpline
 70
8
 71
3
 72
8
 73
4
 74
0
 40
0
 40
0
 40
0
 40
0
 40
1
 40
1
 40
1
 40
1
 10
-104.330080
 20
266.146484
 30
0.0
 10
-103.321840
 20
266.146484
 30
0.0
 10
-102.416960
 20
266.520303
 30
0.0
 10
-101.683590
 20
267.234375
 30
0.0
  0
SPLINE
  5
1dd
100
AcDbEntity
  8
Ebene_1
 62
7
100
AcDbSpline
 70
8
 71
3
 72
8
 73
4
 74
0
 40
0
 40
0
 40
0
 40
0
 40
1
 40
1
 40
1
 40
1
 10
-101.683590
 20
267.234375
 30
0.0
 10
-100.946500
 20
267.952071
 30
0.0
 10
-100.564450
 20
268.869114
 30
0.0
 10
-100.564450
 20
269.912109
 30
0.0
  0
LWPOLYLINE
  5
1de
100
AcDbEntity
  8
Ebene_1
 62
7
100
AcDbPolyline
 90
3
 70
0
 10
-104.671880
 20
273.677734
 30
0.0
 10
-104.671880
 20
266.146484
 30
0.0
 10
-104.330080
 20
266.146484
 30
0.0
  0
LWPOLYLINE
  5
1df
100
AcDbEntity
  8
Ebene_1
 62
7
100
AcDbPolyline
 90
3
 70
0
 10
-100.564450
 20
269.912109
 30
0.0
 10
-100.564450
 20
273.677734
 30
0.0
 10
-104.671880
 20
273.677734
 30
0.0
  0
SPLINE
  5
1e0
100
AcDbEntity
  8
Ebene_1
 62
7
100
AcDbSpline
 70
8
 71
3
 72
8
 73
4
 74
0
 40
0
 40
0
 40
0
 40
0
 40
1
 40
1
 40
1
 40
1
 10
-94.060547
 20
259.986328
 30
0.0
 10
-95.087231
 20
259.986328
 30
0.0
 10
-96.002607
 20
259.602863
 30
0.0
 10
-96.736328
 20
258.869141
 30
0.0
  0
SPLINE
  5
1e1
100
AcDbEntity
  8
Ebene_1
 62
7
100
AcDbSpline
 70
8
 71
3
 72
8
 73
4
 74
0
 40
0
 40
0
 40
0
 40
0
 40
1
 40
1
 40
1
 40
1
 10
-96.736328
 20
258.869141
 30
0.0
 10
-97.453744
 20
258.151725
 30
0.0
 10
-97.826172
 20
257.245232
 30
0.0
 10
-97.826172
 20
256.220703
 30
0.0
  0
LWPOLYLINE
  5
1e2
100
AcDbEntity
  8
Ebene_1
 62
7
100
AcDbPolyline
 90
5
 70
0
 10
-97.826172
 20
273.677734
 30
0.0
 10
-97.826172
 20
262.724609
 30
0.0
 10
-80.712891
 20
262.724609
 30
0.0
 10
-80.712891
 20
259.986328
 30
0.0
 10
-94.060547
 20
259.986328
 30
0.0
  0
SPLINE
  5
1e3
100
AcDbEntity
  8
Ebene_1
 62
7
100
AcDbSpline
 70
8
 71
3
 72
8
 73
4
 74
0
 40
0
 40
0
 40
0
 40
0
 40
1
 40
1
 40
1
 40
1
 10
-80.369141
 20
269.570312
 30
0.0
 10
-79.360905
 20
269.570312
 30
0.0
 10
-78.457980
 20
269.942178
 30
0.0
 10
-77.724609
 20
270.656250
 30
0.0
  0
SPLINE
  5
1e4
100
AcDbEntity
  8
Ebene_1
 62
7
100
AcDbSpline
 70
8
 71
3
 72
8
 73
4
 74
0
 40
0
 40
0
 40
0
 40
0
 40
1
 40
1
 40
1
 40
1
 10
-77.724609
 20
270.656250
 30
0.0
 10
-76.987517
 20
271.373946
 30
0.0
 10
-76.603516
 20
272.292943
 30
0.0
 10
-76.603516
 20
273.335938
 30
0.0
  0
LWPOLYLINE
  5
1e5
100
AcDbEntity
  8
Ebene_1
 62
7
100
AcDbPolyline
 90
8
 70
0
 10
-97.826172
 20
256.220703
 30
0.0
 10
-97.826172
 20
255.878906
 30
0.0
 10
-97.484375
 20
255.878906
 30
0.0
 10
-76.603516
 20
255.878906
 30
0.0
 10
-76.603516
 20
266.832031
 30
0.0
 10
-93.718750
 20
266.832031
 30
0.0
 10
-93.718750
 20
269.570312
 30
0.0
 10
-80.369141
 20
269.570312
 30
0.0
  0
LWPOLYLINE
  5
1e6
100
AcDbEntity
  8
Ebene_1
 62
7
100
AcDbPolyline
 90
3
 70
0
 10
-76.603516
 20
273.335938
 30
0.0
 10
-76.603516
 20
273.677734
 30
0.0
 10
-97.826172
 20
273.677734
 30
0.0
  0
ENDSEC
  0
SECTION
  2
OBJECTS
  0
DICTIONARY
  5
C
330
0
100
AcDbDictionary
  3
ACAD_GROUP
350
D
  3
ACAD_MLINESTYLE
350
17
  0
DICTIONARY
  5
D
330
C
100
AcDbDictionary
  0
DICTIONARY
  5
1A
330
C
100
AcDbDictionary
  0
DICTIONARY
  5
17
330
C
100
AcDbDictionary
  3
STANDARD
350
18
  0
DICTIONARY
  5
19
330
C
100
AcDbDictionary
  0
ENDSEC
  0
EOF
