  0
SECTION
  2
HEADER
  9
$ACADVER
  1
AC1014
  9
$HANDSEED
  5
FFFF
  9
$MEASUREMENT
 70
     1
  0
ENDSEC
  0
SECTION
  2
TABLES
  0
TABLE
  2
VPORT
  5
8
330
0
100
AcDbSymbolTable
 70
     4
  0
VPORT
  5
2E
330
8
100
AcDbSymbolTableRecord
100
AcDbViewportTableRecord
  2
*ACTIVE
 70
     0
 10
0.0
 20
0.0
 11
1.0
 21
1.0
 12
210.0
 22
148.5
 13
0.0
 23
0.0
 14
10.0
 24
10.0
 15
10.0
 25
10.0
 16
0.0
 26
0.0
 36
1.0
 17
0.0
 27
0.0
 37
0.0
 40
341.0
 41
1.24
 42
50.0
 43
0.0
 44
0.0
 50
0.0
 51
0.0
 71
     0
 72
   100
 73
     1
 74
     3
 75
     0
 76
     0
 77
     0
 78
     0
  0
ENDTAB
  0
TABLE
  2
LTYPE
  5
5
330
0
100
AcDbSymbolTable
 70
     1
  0
LTYPE
  5
14
330
5
100
AcDbSymbolTableRecord
100
AcDbLinetypeTableRecord
  2
BYBLOCK
 70
     0
  3

 72
    65
 73
     0
 40
0.0
  0
LTYPE
  5
15
330
5
100
AcDbSymbolTableRecord
100
AcDbLinetypeTableRecord
  2
BYLAYER
 70
     0
  3

 72
    65
 73
     0
 40
0.0
  0
LTYPE
  5
16
330
5
100
AcDbSymbolTableRecord
100
AcDbLinetypeTableRecord
  2
CONTINUOUS
 70
     0
  3
Solid line
 72
    65
 73
     0
 40
0.0
  0
ENDTAB
  0
TABLE
  2
LAYER
  5
2
100
AcDbSymbolTable
 70
2
  0
LAYER
  5
50
100
AcDbSymbolTableRecord
100
AcDbLayerTableRecord
  2
0
 70
0
  6
CONTINUOUS
  0
LAYER
  5
51
100
AcDbSymbolTableRecord
100
AcDbLayerTableRecord
  2
Ebene_1
 70
0
  6
CONTINUOUS
  0
ENDTAB
  0
TABLE
  2
STYLE
  5
3
330
0
100
AcDbSymbolTable
 70
     1
  0
STYLE
  5
11
330
3
100
AcDbSymbolTableRecord
100
AcDbTextStyleTableRecord
  2
STANDARD
 70
     0
 40
0.0
 41
1.0
 50
0.0
 71
     0
 42
2.5
  3
txt
  4

  0
ENDTAB
  0
TABLE
  2
VIEW
  5
6
330
0
100
AcDbSymbolTable
 70
     0
  0
ENDTAB
  0
TABLE
  2
UCS
  5
7
330
0
100
AcDbSymbolTable
 70
     0
  0
ENDTAB
  0
TABLE
  2
APPID
  5
9
330
0
100
AcDbSymbolTable
 70
     2
  0
APPID
  5
12
330
9
100
AcDbSymbolTableRecord
100
AcDbRegAppTableRecord
  2
ACAD
 70
     0
  0
ENDTAB
  0
TABLE
  2
DIMSTYLE
  5
A
330
0
100
AcDbSymbolTable
 70
     1
  0
DIMSTYLE
105
27
330
A
100
AcDbSymbolTableRecord
100
AcDbDimStyleTableRecord
  2
ISO-25
 70
     0
  3

  4

  5

  6

  7

 40
1.0
 41
2.5
 42
0.625
 43
3.75
 44
1.25
 45
0.0
 46
0.0
 47
0.0
 48
0.0
140
2.5
141
2.5
142
0.0
143
0.03937007874016
144
1.0
145
0.0
146
1.0
147
0.625
 71
     0
 72
     0
 73
     0
 74
     0
 75
     0
 76
     0
 77
     1
 78
     8
170
     0
171
     3
172
     1
173
     0
174
     0
175
     0
176
     0
177
     0
178
     0
270
     2
271
     2
272
     2
273
     2
274
     3
340
11
275
     0
280
     0
281
     0
282
     0
283
     0
284
     8
285
     0
286
     0
287
     3
288
     0
  0
ENDTAB
  0
TABLE
  2
BLOCK_RECORD
  5
1
330
0
100
AcDbSymbolTable
 70
     1
  0
BLOCK_RECORD
  5
1F
330
1
100
AcDbSymbolTableRecord
100
AcDbBlockTableRecord
  2
*MODEL_SPACE
  0
BLOCK_RECORD
  5
1B
330
1
100
AcDbSymbolTableRecord
100
AcDbBlockTableRecord
  2
*PAPER_SPACE
  0
ENDTAB
  0
ENDSEC
  0
SECTION
  2
BLOCKS
  0
BLOCK
  5
20
330
1F
100
AcDbEntity
  8
0
100
AcDbBlockBegin
  2
*MODEL_SPACE
 70
     0
 10
0.0
 20
0.0
 30
0.0
  3
*MODEL_SPACE
  1

  0
ENDBLK
  5
21
330
1F
100
AcDbEntity
  8
0
100
AcDbBlockEnd
  0
BLOCK
  5
1C
330
1B
100
AcDbEntity
 67
     1
  8
0
100
AcDbBlockBegin
  2
*PAPER_SPACE
  1

  0
ENDBLK
  5
1D
330
1B
100
AcDbEntity
 67
     1
  8
0
100
AcDbBlockEnd
  0
ENDSEC
  0
SECTION
  2
ENTITIES
  0
SPLINE
  5
100
100
AcDbEntity
  8
Ebene_1
 62
7
100
AcDbSpline
 70
8
 71
3
 72
8
 73
4
 74
0
 40
0
 40
0
 40
0
 40
0
 40
1
 40
1
 40
1
 40
1
 10
47.934729
 20
286.996281
 30
0.0
 10
28.999482
 20
286.996281
 30
0.0
 10
13.650107
 20
271.667622
 30
0.0
 10
13.650107
 20
252.757946
 30
0.0
  0
LWPOLYLINE
  5
101
100
AcDbEntity
  8
Ebene_1
 62
7
100
AcDbPolyline
 90
4
 70
1
 10
0.000000
 20
299.599980
 30
0.0
 10
219.600000
 20
299.599980
 30
0.0
 10
219.600000
 20
0.000000
 30
0.0
 10
0.000000
 20
0.000000
 30
0.0
  0
SPLINE
  5
102
100
AcDbEntity
  8
Ebene_1
 62
7
100
AcDbSpline
 70
8
 71
3
 72
8
 73
4
 74
0
 40
0
 40
0
 40
0
 40
0
 40
1
 40
1
 40
1
 40
1
 10
13.650107
 20
46.819990
 30
0.0
 10
13.650107
 20
27.910310
 30
0.0
 10
28.999482
 20
12.581650
 30
0.0
 10
47.934729
 20
12.581650
 30
0.0
  0
LWPOLYLINE
  5
103
100
AcDbEntity
  8
Ebene_1
 62
7
100
AcDbPolyline
 90
2
 70
0
 10
13.650107
 20
252.757946
 30
0.0
 10
13.650107
 20
46.819990
 30
0.0
  0
SPLINE
  5
104
100
AcDbEntity
  8
Ebene_1
 62
7
100
AcDbSpline
 70
8
 71
3
 72
8
 73
4
 74
0
 40
0
 40
0
 40
0
 40
0
 40
1
 40
1
 40
1
 40
1
 10
171.665270
 20
12.581650
 30
0.0
 10
190.600520
 20
12.581650
 30
0.0
 10
205.949890
 20
27.910310
 30
0.0
 10
205.949890
 20
46.819990
 30
0.0
  0
LWPOLYLINE
  5
105
100
AcDbEntity
  8
Ebene_1
 62
7
100
AcDbPolyline
 90
2
 70
0
 10
47.934729
 20
12.581650
 30
0.0
 10
171.665270
 20
12.581650
 30
0.0
  0
SPLINE
  5
106
100
AcDbEntity
  8
Ebene_1
 62
7
100
AcDbSpline
 70
8
 71
3
 72
8
 73
4
 74
0
 40
0
 40
0
 40
0
 40
0
 40
1
 40
1
 40
1
 40
1
 10
205.949890
 20
252.757946
 30
0.0
 10
205.949890
 20
271.667622
 30
0.0
 10
190.600520
 20
286.996281
 30
0.0
 10
171.665270
 20
286.996281
 30
0.0
  0
LWPOLYLINE
  5
107
100
AcDbEntity
  8
Ebene_1
 62
7
100
AcDbPolyline
 90
2
 70
0
 10
205.949890
 20
46.819990
 30
0.0
 10
205.949890
 20
252.757946
 30
0.0
  0
LWPOLYLINE
  5
108
100
AcDbEntity
  8
Ebene_1
 62
7
100
AcDbPolyline
 90
2
 70
0
 10
171.665270
 20
286.996281
 30
0.0
 10
47.934729
 20
286.996281
 30
0.0
  0
SPLINE
  5
109
100
AcDbEntity
  8
Ebene_1
 62
7
100
AcDbSpline
 70
8
 71
3
 72
8
 73
4
 74
0
 40
0
 40
0
 40
0
 40
0
 40
1
 40
1
 40
1
 40
1
 10
171.665270
 20
280.303242
 30
0.0
 10
187.003490
 20
280.303242
 30
0.0
 10
199.247800
 20
268.075447
 30
0.0
 10
199.247800
 20
252.757946
 30
0.0
  0
LWPOLYLINE
  5
10a
100
AcDbEntity
  8
Ebene_1
 62
7
100
AcDbPolyline
 90
2
 70
0
 10
47.934729
 20
280.303242
 30
0.0
 10
171.665270
 20
280.303242
 30
0.0
  0
SPLINE
  5
10b
100
AcDbEntity
  8
Ebene_1
 62
7
100
AcDbSpline
 70
8
 71
3
 72
8
 73
4
 74
0
 40
0
 40
0
 40
0
 40
0
 40
1
 40
1
 40
1
 40
1
 10
199.247800
 20
46.819990
 30
0.0
 10
199.247800
 20
31.502480
 30
0.0
 10
187.003490
 20
19.274700
 30
0.0
 10
171.665270
 20
19.274700
 30
0.0
  0
LWPOLYLINE
  5
10c
100
AcDbEntity
  8
Ebene_1
 62
7
100
AcDbPolyline
 90
2
 70
0
 10
199.247800
 20
252.757946
 30
0.0
 10
199.247800
 20
46.819990
 30
0.0
  0
SPLINE
  5
10d
100
AcDbEntity
  8
Ebene_1
 62
7
100
AcDbSpline
 70
8
 71
3
 72
8
 73
4
 74
0
 40
0
 40
0
 40
0
 40
0
 40
1
 40
1
 40
1
 40
1
 10
47.934729
 20
19.274700
 30
0.0
 10
32.596503
 20
19.274700
 30
0.0
 10
20.352196
 20
31.502480
 30
0.0
 10
20.352196
 20
46.819990
 30
0.0
  0
LWPOLYLINE
  5
10e
100
AcDbEntity
  8
Ebene_1
 62
7
100
AcDbPolyline
 90
2
 70
0
 10
171.665270
 20
19.274700
 30
0.0
 10
47.934729
 20
19.274700
 30
0.0
  0
SPLINE
  5
10f
100
AcDbEntity
  8
Ebene_1
 62
7
100
AcDbSpline
 70
8
 71
3
 72
8
 73
4
 74
0
 40
0
 40
0
 40
0
 40
0
 40
1
 40
1
 40
1
 40
1
 10
20.352196
 20
252.757946
 30
0.0
 10
20.352196
 20
268.075447
 30
0.0
 10
32.596503
 20
280.303242
 30
0.0
 10
47.934729
 20
280.303242
 30
0.0
  0
LWPOLYLINE
  5
110
100
AcDbEntity
  8
Ebene_1
 62
7
100
AcDbPolyline
 90
2
 70
0
 10
20.352196
 20
46.819990
 30
0.0
 10
20.352196
 20
252.757946
 30
0.0
  0
SPLINE
  5
111
100
AcDbEntity
  8
Ebene_1
 62
7
100
AcDbSpline
 70
8
 71
3
 72
8
 73
4
 74
0
 40
0
 40
0
 40
0
 40
0
 40
1
 40
1
 40
1
 40
1
 10
36.281437
 20
34.005470
 30
0.0
 10
36.281436
 20
32.650472
 30
0.0
 10
35.182992
 20
31.552030
 30
0.0
 10
33.827994
 20
31.552030
 30
0.0
  0
SPLINE
  5
112
100
AcDbEntity
  8
Ebene_1
 62
7
100
AcDbSpline
 70
8
 71
3
 72
8
 73
4
 74
0
 40
0
 40
0
 40
0
 40
0
 40
1
 40
1
 40
1
 40
1
 10
33.827994
 20
31.552030
 30
0.0
 10
32.472996
 20
31.552030
 30
0.0
 10
31.374553
 20
32.650472
 30
0.0
 10
31.374552
 20
34.005470
 30
0.0
  0
SPLINE
  5
113
100
AcDbEntity
  8
Ebene_1
 62
7
100
AcDbSpline
 70
8
 71
3
 72
8
 73
4
 74
0
 40
0
 40
0
 40
0
 40
0
 40
1
 40
1
 40
1
 40
1
 10
31.374552
 20
34.005470
 30
0.0
 10
31.374553
 20
35.360468
 30
0.0
 10
32.472996
 20
36.458910
 30
0.0
 10
33.827994
 20
36.458910
 30
0.0
  0
SPLINE
  5
114
100
AcDbEntity
  8
Ebene_1
 62
7
100
AcDbSpline
 70
8
 71
3
 72
8
 73
4
 74
0
 40
0
 40
0
 40
0
 40
0
 40
1
 40
1
 40
1
 40
1
 10
33.827994
 20
36.458910
 30
0.0
 10
35.182992
 20
36.458910
 30
0.0
 10
36.281436
 20
35.360468
 30
0.0
 10
36.281437
 20
34.005470
 30
0.0
  0
LWPOLYLINE
  5
115
100
AcDbEntity
  8
Ebene_1
 62
7
100
AcDbPolyline
 90
1
 70
1
 10
47.934729
 20
280.303242
 30
0.0
  0
SPLINE
  5
116
100
AcDbEntity
  8
Ebene_1
 62
7
100
AcDbSpline
 70
8
 71
3
 72
8
 73
4
 74
0
 40
0
 40
0
 40
0
 40
0
 40
1
 40
1
 40
1
 40
1
 10
188.310160
 20
34.291700
 30
0.0
 10
188.310159
 20
32.936703
 30
0.0
 10
187.211717
 20
31.838261
 30
0.0
 10
185.856720
 20
31.838260
 30
0.0
  0
SPLINE
  5
117
100
AcDbEntity
  8
Ebene_1
 62
7
100
AcDbSpline
 70
8
 71
3
 72
8
 73
4
 74
0
 40
0
 40
0
 40
0
 40
0
 40
1
 40
1
 40
1
 40
1
 10
185.856720
 20
31.838260
 30
0.0
 10
184.501723
 20
31.838261
 30
0.0
 10
183.403281
 20
32.936703
 30
0.0
 10
183.403280
 20
34.291700
 30
0.0
  0
SPLINE
  5
118
100
AcDbEntity
  8
Ebene_1
 62
7
100
AcDbSpline
 70
8
 71
3
 72
8
 73
4
 74
0
 40
0
 40
0
 40
0
 40
0
 40
1
 40
1
 40
1
 40
1
 10
183.403280
 20
34.291700
 30
0.0
 10
183.403281
 20
35.646697
 30
0.0
 10
184.501723
 20
36.745139
 30
0.0
 10
185.856720
 20
36.745140
 30
0.0
  0
SPLINE
  5
119
100
AcDbEntity
  8
Ebene_1
 62
7
100
AcDbSpline
 70
8
 71
3
 72
8
 73
4
 74
0
 40
0
 40
0
 40
0
 40
0
 40
1
 40
1
 40
1
 40
1
 10
185.856720
 20
36.745140
 30
0.0
 10
187.211717
 20
36.745139
 30
0.0
 10
188.310159
 20
35.646697
 30
0.0
 10
188.310160
 20
34.291700
 30
0.0
  0
LWPOLYLINE
  5
11a
100
AcDbEntity
  8
Ebene_1
 62
7
100
AcDbPolyline
 90
1
 70
1
 10
36.281437
 20
34.005470
 30
0.0
  0
SPLINE
  5
11b
100
AcDbEntity
  8
Ebene_1
 62
7
100
AcDbSpline
 70
8
 71
3
 72
8
 73
4
 74
0
 40
0
 40
0
 40
0
 40
0
 40
1
 40
1
 40
1
 40
1
 10
188.681090
 20
265.000000
 30
0.0
 10
188.681090
 20
263.645002
 30
0.0
 10
187.582648
 20
262.546558
 30
0.0
 10
186.227650
 20
262.546557
 30
0.0
  0
SPLINE
  5
11c
100
AcDbEntity
  8
Ebene_1
 62
7
100
AcDbSpline
 70
8
 71
3
 72
8
 73
4
 74
0
 40
0
 40
0
 40
0
 40
0
 40
1
 40
1
 40
1
 40
1
 10
186.227650
 20
262.546557
 30
0.0
 10
184.872652
 20
262.546558
 30
0.0
 10
183.774210
 20
263.645002
 30
0.0
 10
183.774210
 20
265.000000
 30
0.0
  0
SPLINE
  5
11d
100
AcDbEntity
  8
Ebene_1
 62
7
100
AcDbSpline
 70
8
 71
3
 72
8
 73
4
 74
0
 40
0
 40
0
 40
0
 40
0
 40
1
 40
1
 40
1
 40
1
 10
183.774210
 20
265.000000
 30
0.0
 10
183.774210
 20
266.354998
 30
0.0
 10
184.872652
 20
267.453442
 30
0.0
 10
186.227650
 20
267.453443
 30
0.0
  0
SPLINE
  5
11e
100
AcDbEntity
  8
Ebene_1
 62
7
100
AcDbSpline
 70
8
 71
3
 72
8
 73
4
 74
0
 40
0
 40
0
 40
0
 40
0
 40
1
 40
1
 40
1
 40
1
 10
186.227650
 20
267.453443
 30
0.0
 10
187.582648
 20
267.453442
 30
0.0
 10
188.681090
 20
266.354998
 30
0.0
 10
188.681090
 20
265.000000
 30
0.0
  0
LWPOLYLINE
  5
11f
100
AcDbEntity
  8
Ebene_1
 62
7
100
AcDbPolyline
 90
1
 70
1
 10
188.310160
 20
34.291700
 30
0.0
  0
SPLINE
  5
120
100
AcDbEntity
  8
Ebene_1
 62
7
100
AcDbSpline
 70
8
 71
3
 72
8
 73
4
 74
0
 40
0
 40
0
 40
0
 40
0
 40
1
 40
1
 40
1
 40
1
 10
36.567665
 20
265.000000
 30
0.0
 10
36.567665
 20
264.349306
 30
0.0
 10
36.309178
 20
263.725264
 30
0.0
 10
35.849068
 20
263.265154
 30
0.0
  0
SPLINE
  5
121
100
AcDbEntity
  8
Ebene_1
 62
7
100
AcDbSpline
 70
8
 71
3
 72
8
 73
4
 74
0
 40
0
 40
0
 40
0
 40
0
 40
1
 40
1
 40
1
 40
1
 10
35.849068
 20
263.265154
 30
0.0
 10
35.388958
 20
262.805044
 30
0.0
 10
34.764916
 20
262.546557
 30
0.0
 10
34.114222
 20
262.546557
 30
0.0
  0
SPLINE
  5
122
100
AcDbEntity
  8
Ebene_1
 62
7
100
AcDbSpline
 70
8
 71
3
 72
8
 73
4
 74
0
 40
0
 40
0
 40
0
 40
0
 40
1
 40
1
 40
1
 40
1
 10
34.114222
 20
262.546557
 30
0.0
 10
32.759223
 20
262.546557
 30
0.0
 10
31.660780
 20
263.645001
 30
0.0
 10
31.660780
 20
265.000000
 30
0.0
  0
SPLINE
  5
123
100
AcDbEntity
  8
Ebene_1
 62
7
100
AcDbSpline
 70
8
 71
3
 72
8
 73
4
 74
0
 40
0
 40
0
 40
0
 40
0
 40
1
 40
1
 40
1
 40
1
 10
31.660780
 20
265.000000
 30
0.0
 10
31.660780
 20
266.354999
 30
0.0
 10
32.759223
 20
267.453443
 30
0.0
 10
34.114222
 20
267.453443
 30
0.0
  0
SPLINE
  5
124
100
AcDbEntity
  8
Ebene_1
 62
7
100
AcDbSpline
 70
8
 71
3
 72
8
 73
4
 74
0
 40
0
 40
0
 40
0
 40
0
 40
1
 40
1
 40
1
 40
1
 10
34.114222
 20
267.453443
 30
0.0
 10
34.764916
 20
267.453443
 30
0.0
 10
35.388958
 20
267.194956
 30
0.0
 10
35.849068
 20
266.734846
 30
0.0
  0
SPLINE
  5
125
100
AcDbEntity
  8
Ebene_1
 62
7
100
AcDbSpline
 70
8
 71
3
 72
8
 73
4
 74
0
 40
0
 40
0
 40
0
 40
0
 40
1
 40
1
 40
1
 40
1
 10
35.849068
 20
266.734846
 30
0.0
 10
36.309178
 20
266.274736
 30
0.0
 10
36.567665
 20
265.650694
 30
0.0
 10
36.567665
 20
265.000000
 30
0.0
  0
LWPOLYLINE
  5
126
100
AcDbEntity
  8
Ebene_1
 62
7
100
AcDbPolyline
 90
1
 70
1
 10
188.681090
 20
265.000000
 30
0.0
  0
LWPOLYLINE
  5
127
100
AcDbEntity
  8
Ebene_1
 62
7
100
AcDbPolyline
 90
1
 70
1
 10
36.567665
 20
265.000000
 30
0.0
  0
SPLINE
  5
128
100
AcDbEntity
  8
Ebene_1
 62
7
100
AcDbSpline
 70
8
 71
3
 72
8
 73
4
 74
0
 40
0
 40
0
 40
0
 40
0
 40
1
 40
1
 40
1
 40
1
 10
155.950829
 20
53.955920
 30
0.0
 10
155.950829
 20
52.965091
 30
0.0
 10
156.286447
 20
52.072887
 30
0.0
 10
156.926719
 20
51.362624
 30
0.0
  0
LWPOLYLINE
  5
129
100
AcDbEntity
  8
Ebene_1
 62
7
100
AcDbPolyline
 90
2
 70
0
 10
155.950829
 20
60.850965
 30
0.0
 10
155.950829
 20
53.955920
 30
0.0
  0
SPLINE
  5
12a
100
AcDbEntity
  8
Ebene_1
 62
7
100
AcDbSpline
 70
8
 71
3
 72
8
 73
4
 74
0
 40
0
 40
0
 40
0
 40
0
 40
1
 40
1
 40
1
 40
1
 10
156.929736
 20
51.359448
 30
0.0
 10
157.573784
 20
50.663795
 30
0.0
 10
158.402329
 20
50.300532
 30
0.0
 10
159.333646
 20
50.300532
 30
0.0
  0
LWPOLYLINE
  5
12b
100
AcDbEntity
  8
Ebene_1
 62
7
100
AcDbPolyline
 90
3
 70
0
 10
156.926719
 20
51.362624
 30
0.0
 10
156.928227
 20
51.361036
 30
0.0
 10
156.929736
 20
51.359448
 30
0.0
  0
SPLINE
  5
12c
100
AcDbEntity
  8
Ebene_1
 62
7
100
AcDbSpline
 70
8
 71
3
 72
8
 73
4
 74
0
 40
0
 40
0
 40
0
 40
0
 40
1
 40
1
 40
1
 40
1
 10
161.952431
 20
60.438402
 30
0.0
 10
161.952431
 20
59.447565
 30
0.0
 10
162.288050
 20
58.556981
 30
0.0
 10
162.928319
 20
57.846718
 30
0.0
  0
LWPOLYLINE
  5
12d
100
AcDbEntity
  8
Ebene_1
 62
7
100
AcDbPolyline
 90
5
 70
0
 10
159.333646
 20
50.300532
 30
0.0
 10
174.721058
 20
50.300532
 30
0.0
 10
174.721058
 20
60.851004
 30
0.0
 10
161.952431
 20
60.851004
 30
0.0
 10
161.952431
 20
60.438402
 30
0.0
  0
SPLINE
  5
12e
100
AcDbEntity
  8
Ebene_1
 62
7
100
AcDbSpline
 70
8
 71
3
 72
8
 73
4
 74
0
 40
0
 40
0
 40
0
 40
0
 40
1
 40
1
 40
1
 40
1
 10
162.932845
 20
57.841954
 30
0.0
 10
163.576893
 20
57.146308
 30
0.0
 10
164.405438
 20
56.784650
 30
0.0
 10
165.336756
 20
56.784650
 30
0.0
  0
LWPOLYLINE
  5
12f
100
AcDbEntity
  8
Ebene_1
 62
7
100
AcDbPolyline
 90
3
 70
0
 10
162.928319
 20
57.846718
 30
0.0
 10
162.931337
 20
57.843542
 30
0.0
 10
162.932845
 20
57.841954
 30
0.0
  0
SPLINE
  5
130
100
AcDbEntity
  8
Ebene_1
 62
7
100
AcDbSpline
 70
8
 71
3
 72
8
 73
4
 74
0
 40
0
 40
0
 40
0
 40
0
 40
1
 40
1
 40
1
 40
1
 10
160.834834
 20
54.368642
 30
0.0
 10
160.502596
 20
54.368642
 30
0.0
 10
160.259050
 20
54.475897
 30
0.0
 10
160.030546
 20
54.705487
 30
0.0
  0
SPLINE
  5
131
100
AcDbEntity
  8
Ebene_1
 62
7
100
AcDbSpline
 70
8
 71
3
 72
8
 73
4
 74
0
 40
0
 40
0
 40
0
 40
0
 40
1
 40
1
 40
1
 40
1
 10
160.030546
 20
54.705487
 30
0.0
 10
159.816261
 20
54.953117
 30
0.0
 10
159.715695
 20
55.215595
 30
0.0
 10
159.715695
 20
55.575832
 30
0.0
  0
LWPOLYLINE
  5
132
100
AcDbEntity
  8
Ebene_1
 62
7
100
AcDbPolyline
 90
4
 70
0
 10
165.336756
 20
56.784650
 30
0.0
 10
170.956325
 20
56.784650
 30
0.0
 10
170.956325
 20
54.368642
 30
0.0
 10
160.834834
 20
54.368642
 30
0.0
  0
LWPOLYLINE
  5
133
100
AcDbEntity
  8
Ebene_1
 62
7
100
AcDbPolyline
 90
3
 70
0
 10
159.715695
 20
55.575832
 30
0.0
 10
159.715695
 20
60.851076
 30
0.0
 10
155.950829
 20
60.850965
 30
0.0
  0
SPLINE
  5
134
100
AcDbEntity
  8
Ebene_1
 62
7
100
AcDbSpline
 70
8
 71
3
 72
8
 73
4
 74
0
 40
0
 40
0
 40
0
 40
0
 40
1
 40
1
 40
1
 40
1
 10
59.913798
 20
62.059767
 30
0.0
 10
59.913798
 20
61.703190
 30
0.0
 10
59.812101
 20
61.442737
 30
0.0
 10
59.582543
 20
61.192645
 30
0.0
  0
SPLINE
  5
135
100
AcDbEntity
  8
Ebene_1
 62
7
100
AcDbSpline
 70
8
 71
3
 72
8
 73
4
 74
0
 40
0
 40
0
 40
0
 40
0
 40
1
 40
1
 40
1
 40
1
 10
59.582543
 20
61.192645
 30
0.0
 10
59.350277
 20
60.957005
 30
0.0
 10
59.112144
 20
60.850965
 30
0.0
 10
58.796157
 20
60.850965
 30
0.0
  0
LWPOLYLINE
  5
136
100
AcDbEntity
  8
Ebene_1
 62
7
100
AcDbPolyline
 90
4
 70
0
 10
44.908389
 20
67.335002
 30
0.0
 10
44.908389
 20
63.266957
 30
0.0
 10
59.913798
 20
63.266957
 30
0.0
 10
59.913798
 20
62.059767
 30
0.0
  0
SPLINE
  5
137
100
AcDbEntity
  8
Ebene_1
 62
7
100
AcDbSpline
 70
8
 71
3
 72
8
 73
4
 74
0
 40
0
 40
0
 40
0
 40
0
 40
1
 40
1
 40
1
 40
1
 10
60.295799
 20
56.784539
 30
0.0
 10
61.199215
 20
56.784539
 30
0.0
 10
62.016480
 20
57.148317
 30
0.0
 10
62.672853
 20
57.838611
 30
0.0
  0
SPLINE
  5
138
100
AcDbEntity
  8
Ebene_1
 62
7
100
AcDbSpline
 70
8
 71
3
 72
8
 73
4
 74
0
 40
0
 40
0
 40
0
 40
0
 40
1
 40
1
 40
1
 40
1
 10
62.672853
 20
57.838611
 30
0.0
 10
63.333371
 20
58.533287
 30
0.0
 10
63.680078
 20
59.429866
 30
0.0
 10
63.680078
 20
60.438354
 30
0.0
  0
LWPOLYLINE
  5
139
100
AcDbEntity
  8
Ebene_1
 62
7
100
AcDbPolyline
 90
7
 70
0
 10
58.796157
 20
60.850965
 30
0.0
 10
44.908389
 20
60.850965
 30
0.0
 10
44.908389
 20
50.300485
 30
0.0
 10
45.290390
 20
50.300485
 30
0.0
 10
48.673176
 20
50.300485
 30
0.0
 10
48.673176
 20
56.784539
 30
0.0
 10
60.295799
 20
56.784539
 30
0.0
  0
LWPOLYLINE
  5
13a
100
AcDbEntity
  8
Ebene_1
 62
7
100
AcDbPolyline
 90
3
 70
0
 10
63.680078
 20
60.438354
 30
0.0
 10
63.680078
 20
67.335002
 30
0.0
 10
44.908389
 20
67.335002
 30
0.0
  0
LWPOLYLINE
  5
13b
100
AcDbEntity
  8
Ebene_1
 62
7
100
AcDbPolyline
 90
9
 70
1
 10
65.916861
 20
60.850965
 30
0.0
 10
65.916861
 20
50.300485
 30
0.0
 10
66.298862
 20
50.300485
 30
0.0
 10
69.681648
 20
50.300485
 30
0.0
 10
69.681648
 20
56.784539
 30
0.0
 10
80.922279
 20
56.784539
 30
0.0
 10
80.922279
 20
50.300485
 30
0.0
 10
84.687058
 20
50.300485
 30
0.0
 10
84.687058
 20
60.850965
 30
0.0
  0
SPLINE
  5
13c
100
AcDbEntity
  8
Ebene_1
 62
7
100
AcDbSpline
 70
8
 71
3
 72
8
 73
4
 74
0
 40
0
 40
0
 40
0
 40
0
 40
1
 40
1
 40
1
 40
1
 10
65.916861
 20
66.922400
 30
0.0
 10
65.916861
 20
65.931563
 30
0.0
 10
66.252476
 20
65.039367
 30
0.0
 10
66.892754
 20
64.329096
 30
0.0
  0
LWPOLYLINE
  5
13d
100
AcDbEntity
  8
Ebene_1
 62
7
100
AcDbPolyline
 90
2
 70
0
 10
65.916861
 20
67.335002
 30
0.0
 10
65.916861
 20
66.922400
 30
0.0
  0
SPLINE
  5
13e
100
AcDbEntity
  8
Ebene_1
 62
7
100
AcDbSpline
 70
8
 71
3
 72
8
 73
4
 74
0
 40
0
 40
0
 40
0
 40
0
 40
1
 40
1
 40
1
 40
1
 10
66.895930
 20
64.325920
 30
0.0
 10
67.539981
 20
63.630275
 30
0.0
 10
68.368528
 20
63.266996
 30
0.0
 10
69.299846
 20
63.266996
 30
0.0
  0
LWPOLYLINE
  5
13f
100
AcDbEntity
  8
Ebene_1
 62
7
100
AcDbPolyline
 90
3
 70
0
 10
66.892754
 20
64.329096
 30
0.0
 10
66.894342
 20
64.327508
 30
0.0
 10
66.895930
 20
64.325920
 30
0.0
  0
SPLINE
  5
140
100
AcDbEntity
  8
Ebene_1
 62
7
100
AcDbSpline
 70
8
 71
3
 72
8
 73
4
 74
0
 40
0
 40
0
 40
0
 40
0
 40
1
 40
1
 40
1
 40
1
 10
81.304470
 20
63.266996
 30
0.0
 10
82.207886
 20
63.266996
 30
0.0
 10
83.025151
 20
63.630775
 30
0.0
 10
83.681524
 20
64.321084
 30
0.0
  0
SPLINE
  5
141
100
AcDbEntity
  8
Ebene_1
 62
7
100
AcDbSpline
 70
8
 71
3
 72
8
 73
4
 74
0
 40
0
 40
0
 40
0
 40
0
 40
1
 40
1
 40
1
 40
1
 10
83.681524
 20
64.321084
 30
0.0
 10
84.342050
 20
65.015753
 30
0.0
 10
84.687248
 20
65.913952
 30
0.0
 10
84.687248
 20
66.922432
 30
0.0
  0
LWPOLYLINE
  5
142
100
AcDbEntity
  8
Ebene_1
 62
7
100
AcDbPolyline
 90
2
 70
0
 10
69.299846
 20
63.266996
 30
0.0
 10
81.304470
 20
63.266996
 30
0.0
  0
LWPOLYLINE
  5
143
100
AcDbEntity
  8
Ebene_1
 62
7
100
AcDbPolyline
 90
3
 70
0
 10
84.687248
 20
66.922432
 30
0.0
 10
84.687248
 20
67.335042
 30
0.0
 10
65.916861
 20
67.335002
 30
0.0
  0
SPLINE
  5
144
100
AcDbEntity
  8
Ebene_1
 62
7
100
AcDbSpline
 70
8
 71
3
 72
8
 73
4
 74
0
 40
0
 40
0
 40
0
 40
0
 40
1
 40
1
 40
1
 40
1
 10
86.923849
 20
66.922400
 30
0.0
 10
86.923849
 20
65.931563
 30
0.0
 10
87.259463
 20
65.039367
 30
0.0
 10
87.899734
 20
64.329096
 30
0.0
  0
LWPOLYLINE
  5
145
100
AcDbEntity
  8
Ebene_1
 62
7
100
AcDbPolyline
 90
2
 70
0
 10
86.923849
 20
67.335002
 30
0.0
 10
86.923849
 20
66.922400
 30
0.0
  0
SPLINE
  5
146
100
AcDbEntity
  8
Ebene_1
 62
7
100
AcDbSpline
 70
8
 71
3
 72
8
 73
4
 74
0
 40
0
 40
0
 40
0
 40
0
 40
1
 40
1
 40
1
 40
1
 10
87.904498
 20
64.325920
 30
0.0
 10
88.548540
 20
63.630275
 30
0.0
 10
89.377088
 20
63.267004
 30
0.0
 10
90.308405
 20
63.266996
 30
0.0
  0
LWPOLYLINE
  5
147
100
AcDbEntity
  8
Ebene_1
 62
7
100
AcDbPolyline
 90
3
 70
0
 10
87.899734
 20
64.329096
 30
0.0
 10
87.902910
 20
64.327508
 30
0.0
 10
87.904498
 20
64.325920
 30
0.0
  0
SPLINE
  5
148
100
AcDbEntity
  8
Ebene_1
 62
7
100
AcDbSpline
 70
8
 71
3
 72
8
 73
4
 74
0
 40
0
 40
0
 40
0
 40
0
 40
1
 40
1
 40
1
 40
1
 10
101.931045
 20
62.059798
 30
0.0
 10
101.931045
 20
61.703230
 30
0.0
 10
101.827847
 20
61.442776
 30
0.0
 10
101.598281
 20
61.192685
 30
0.0
  0
SPLINE
  5
149
100
AcDbEntity
  8
Ebene_1
 62
7
100
AcDbSpline
 70
8
 71
3
 72
8
 73
4
 74
0
 40
0
 40
0
 40
0
 40
0
 40
1
 40
1
 40
1
 40
1
 10
101.598281
 20
61.192685
 30
0.0
 10
101.366015
 20
60.957045
 30
0.0
 10
101.127890
 20
60.850996
 30
0.0
 10
100.811895
 20
60.850996
 30
0.0
  0
LWPOLYLINE
  5
14a
100
AcDbEntity
  8
Ebene_1
 62
7
100
AcDbPolyline
 90
3
 70
0
 10
90.308405
 20
63.266996
 30
0.0
 10
101.931045
 20
63.266996
 30
0.0
 10
101.931045
 20
62.059798
 30
0.0
  0
SPLINE
  5
14b
100
AcDbEntity
  8
Ebene_1
 62
7
100
AcDbSpline
 70
8
 71
3
 72
8
 73
4
 74
0
 40
0
 40
0
 40
0
 40
0
 40
1
 40
1
 40
1
 40
1
 10
102.263730
 20
56.787746
 30
0.0
 10
103.218566
 20
56.654066
 30
0.0
 10
104.047407
 20
57.164340
 30
0.0
 10
104.688535
 20
57.838603
 30
0.0
  0
SPLINE
  5
14c
100
AcDbEntity
  8
Ebene_1
 62
7
100
AcDbSpline
 70
8
 71
3
 72
8
 73
4
 74
0
 40
0
 40
0
 40
0
 40
0
 40
1
 40
1
 40
1
 40
1
 10
104.688535
 20
57.838603
 30
0.0
 10
105.349061
 20
58.533279
 30
0.0
 10
105.695761
 20
59.429859
 30
0.0
 10
105.695761
 20
60.438346
 30
0.0
  0
LWPOLYLINE
  5
14d
100
AcDbEntity
  8
Ebene_1
 62
7
100
AcDbPolyline
 90
12
 70
0
 10
100.811895
 20
60.850996
 30
0.0
 10
86.924134
 20
60.850996
 30
0.0
 10
86.924134
 20
50.300525
 30
0.0
 10
87.306136
 20
50.300525
 30
0.0
 10
90.690406
 20
50.300525
 30
0.0
 10
90.690406
 20
56.784570
 30
0.0
 10
94.650664
 20
56.784570
 30
0.0
 10
100.653727
 20
50.300525
 30
0.0
 10
106.235993
 20
50.300525
 30
0.0
 10
100.232930
 20
56.784570
 30
0.0
 10
102.313038
 20
56.784570
 30
0.0
 10
102.263730
 20
56.787746
 30
0.0
  0
LWPOLYLINE
  5
14e
100
AcDbEntity
  8
Ebene_1
 62
7
100
AcDbPolyline
 90
3
 70
0
 10
105.695761
 20
60.438346
 30
0.0
 10
105.695761
 20
67.334994
 30
0.0
 10
86.923849
 20
67.335002
 30
0.0
  0
LWPOLYLINE
  5
14f
100
AcDbEntity
  8
Ebene_1
 62
7
100
AcDbPolyline
 90
9
 70
1
 10
121.661914
 20
67.335002
 30
0.0
 10
113.777200
 20
58.818554
 30
0.0
 10
121.661914
 20
50.300485
 30
0.0
 10
121.820082
 20
50.300485
 30
0.0
 10
127.244180
 20
50.300485
 30
0.0
 10
119.356488
 20
58.820165
 30
0.0
 10
120.456224
 20
60.025752
 30
0.0
 10
120.477107
 20
60.025752
 30
0.0
 10
127.244164
 20
67.335002
 30
0.0
  0
LWPOLYLINE
  5
150
100
AcDbEntity
  8
Ebene_1
 62
7
100
AcDbPolyline
 90
5
 70
1
 10
107.932313
 20
67.335002
 30
0.0
 10
107.932313
 20
50.300485
 30
0.0
 10
108.314314
 20
50.300485
 30
0.0
 10
111.697100
 20
50.300485
 30
0.0
 10
111.697100
 20
67.335002
 30
0.0
  0
LWPOLYLINE
  5
151
100
AcDbEntity
  8
Ebene_1
 62
7
100
AcDbPolyline
 90
5
 70
1
 10
128.940785
 20
67.335002
 30
0.0
 10
128.940785
 20
50.300485
 30
0.0
 10
129.322786
 20
50.300485
 30
0.0
 10
132.705565
 20
50.300485
 30
0.0
 10
132.705565
 20
67.335002
 30
0.0
  0
LWPOLYLINE
  5
152
100
AcDbEntity
  8
Ebene_1
 62
7
100
AcDbPolyline
 90
12
 70
1
 10
134.402187
 20
67.335002
 30
0.0
 10
137.943141
 20
63.508727
 30
0.0
 10
137.943141
 20
50.300485
 30
0.0
 10
138.325141
 20
50.300485
 30
0.0
 10
141.709415
 20
50.300485
 30
0.0
 10
141.709415
 20
59.442301
 30
0.0
 10
150.171597
 20
50.300485
 30
0.0
 10
153.714044
 20
50.300485
 30
0.0
 10
153.714044
 20
67.335002
 30
0.0
 10
149.947769
 20
67.335002
 30
0.0
 10
149.947769
 20
56.571782
 30
0.0
 10
139.984450
 20
67.335002
 30
0.0
  0
SPLINE
  5
153
100
AcDbEntity
  8
Ebene_1
 62
7
100
AcDbSpline
 70
8
 71
3
 72
8
 73
4
 74
0
 40
0
 40
0
 40
0
 40
0
 40
1
 40
1
 40
1
 40
1
 10
171.338242
 20
63.266957
 30
0.0
 10
172.241653
 20
63.266957
 30
0.0
 10
173.058918
 20
63.630751
 30
0.0
 10
173.715292
 20
64.321045
 30
0.0
  0
SPLINE
  5
154
100
AcDbEntity
  8
Ebene_1
 62
7
100
AcDbSpline
 70
8
 71
3
 72
8
 73
4
 74
0
 40
0
 40
0
 40
0
 40
0
 40
1
 40
1
 40
1
 40
1
 10
173.715292
 20
64.321045
 30
0.0
 10
174.375817
 20
65.015721
 30
0.0
 10
174.721025
 20
65.913912
 30
0.0
 10
174.721025
 20
66.922400
 30
0.0
  0
LWPOLYLINE
  5
155
100
AcDbEntity
  8
Ebene_1
 62
7
100
AcDbPolyline
 90
4
 70
0
 10
155.950829
 20
67.335002
 30
0.0
 10
155.950829
 20
63.266957
 30
0.0
 10
156.332829
 20
63.266957
 30
0.0
 10
171.338242
 20
63.266957
 30
0.0
  0
LWPOLYLINE
  5
156
100
AcDbEntity
  8
Ebene_1
 62
7
100
AcDbPolyline
 90
3
 70
0
 10
174.721025
 20
66.922400
 30
0.0
 10
174.721025
 20
67.335002
 30
0.0
 10
155.950829
 20
67.335002
 30
0.0
  0
LWPOLYLINE
  5
157
100
AcDbEntity
  8
Ebene_1
 62
7
100
AcDbPolyline
 90
9
 70
1
 10
68.917646
 20
37.408158
 30
0.0
 10
68.917646
 20
26.857679
 30
0.0
 10
69.299647
 20
26.857679
 30
0.0
 10
87.687843
 20
26.857679
 30
0.0
 10
87.687843
 20
37.408158
 30
0.0
 10
83.923056
 20
37.408158
 30
0.0
 10
83.923056
 20
30.925724
 30
0.0
 10
72.682425
 20
30.925724
 30
0.0
 10
72.682425
 20
37.408158
 30
0.0
  0
SPLINE
  5
158
100
AcDbEntity
  8
Ebene_1
 62
7
100
AcDbSpline
 70
8
 71
3
 72
8
 73
4
 74
0
 40
0
 40
0
 40
0
 40
0
 40
1
 40
1
 40
1
 40
1
 10
68.917646
 20
43.477982
 30
0.0
 10
68.917646
 20
42.487145
 30
0.0
 10
69.253269
 20
41.596553
 30
0.0
 10
69.893531
 20
40.886298
 30
0.0
  0
LWPOLYLINE
  5
159
100
AcDbEntity
  8
Ebene_1
 62
7
100
AcDbPolyline
 90
2
 70
0
 10
68.917646
 20
43.890584
 30
0.0
 10
68.917646
 20
43.477982
 30
0.0
  0
SPLINE
  5
15a
100
AcDbEntity
  8
Ebene_1
 62
7
100
AcDbSpline
 70
8
 71
3
 72
8
 73
4
 74
0
 40
0
 40
0
 40
0
 40
0
 40
1
 40
1
 40
1
 40
1
 10
69.896707
 20
40.883122
 30
0.0
 10
70.540758
 20
40.187476
 30
0.0
 10
71.369305
 20
39.824206
 30
0.0
 10
72.300615
 20
39.824206
 30
0.0
  0
LWPOLYLINE
  5
15b
100
AcDbEntity
  8
Ebene_1
 62
7
100
AcDbPolyline
 90
3
 70
0
 10
69.893531
 20
40.886298
 30
0.0
 10
69.895119
 20
40.884710
 30
0.0
 10
69.896707
 20
40.883122
 30
0.0
  0
SPLINE
  5
15c
100
AcDbEntity
  8
Ebene_1
 62
7
100
AcDbSpline
 70
8
 71
3
 72
8
 73
4
 74
0
 40
0
 40
0
 40
0
 40
0
 40
1
 40
1
 40
1
 40
1
 10
84.305247
 20
39.824206
 30
0.0
 10
85.208655
 20
39.824206
 30
0.0
 10
86.025920
 20
40.187976
 30
0.0
 10
86.682293
 20
40.878294
 30
0.0
  0
SPLINE
  5
15d
100
AcDbEntity
  8
Ebene_1
 62
7
100
AcDbSpline
 70
8
 71
3
 72
8
 73
4
 74
0
 40
0
 40
0
 40
0
 40
0
 40
1
 40
1
 40
1
 40
1
 10
86.682293
 20
40.878294
 30
0.0
 10
87.342819
 20
41.572955
 30
0.0
 10
87.688033
 20
42.469550
 30
0.0
 10
87.688033
 20
43.478037
 30
0.0
  0
LWPOLYLINE
  5
15e
100
AcDbEntity
  8
Ebene_1
 62
7
100
AcDbPolyline
 90
2
 70
0
 10
72.300615
 20
39.824206
 30
0.0
 10
84.305247
 20
39.824206
 30
0.0
  0
LWPOLYLINE
  5
15f
100
AcDbEntity
  8
Ebene_1
 62
7
100
AcDbPolyline
 90
3
 70
0
 10
87.688033
 20
43.478037
 30
0.0
 10
87.688033
 20
43.890640
 30
0.0
 10
68.917646
 20
43.890584
 30
0.0
  0
LWPOLYLINE
  5
160
100
AcDbEntity
  8
Ebene_1
 62
7
100
AcDbPolyline
 90
12
 70
1
 10
89.385949
 20
43.890584
 30
0.0
 10
92.926903
 20
40.065920
 30
0.0
 10
92.926903
 20
26.857679
 30
0.0
 10
93.308904
 20
26.857679
 30
0.0
 10
96.691683
 20
26.857679
 30
0.0
 10
96.691683
 20
35.999494
 30
0.0
 10
105.155361
 20
26.857679
 30
0.0
 10
108.696315
 20
26.857679
 30
0.0
 10
108.696315
 20
43.890584
 30
0.0
 10
104.931536
 20
43.890584
 30
0.0
 10
104.931536
 20
33.128976
 30
0.0
 10
94.968207
 20
43.890584
 30
0.0
  0
SPLINE
  5
161
100
AcDbEntity
  8
Ebene_1
 62
7
100
AcDbSpline
 70
8
 71
3
 72
8
 73
4
 74
0
 40
0
 40
0
 40
0
 40
0
 40
1
 40
1
 40
1
 40
1
 10
126.322009
 20
26.857679
 30
0.0
 10
127.225409
 20
26.857679
 30
0.0
 10
128.041189
 20
27.221457
 30
0.0
 10
128.697562
 20
27.911767
 30
0.0
  0
SPLINE
  5
162
100
AcDbEntity
  8
Ebene_1
 62
7
100
AcDbSpline
 70
8
 71
3
 72
8
 73
4
 74
0
 40
0
 40
0
 40
0
 40
0
 40
1
 40
1
 40
1
 40
1
 10
128.697562
 20
27.911767
 30
0.0
 10
129.358080
 20
28.606435
 30
0.0
 10
129.704788
 20
29.504634
 30
0.0
 10
129.704788
 20
30.513114
 30
0.0
  0
LWPOLYLINE
  5
163
100
AcDbEntity
  8
Ebene_1
 62
7
100
AcDbPolyline
 90
4
 70
0
 10
110.933098
 20
43.890584
 30
0.0
 10
110.933098
 20
26.857679
 30
0.0
 10
111.315099
 20
26.857679
 30
0.0
 10
126.322009
 20
26.857679
 30
0.0
  0
LWPOLYLINE
  5
164
100
AcDbEntity
  8
Ebene_1
 62
7
100
AcDbPolyline
 90
5
 70
0
 10
129.704788
 20
30.513114
 30
0.0
 10
129.704788
 20
30.925724
 30
0.0
 10
114.699378
 20
30.925724
 30
0.0
 10
114.699378
 20
43.890584
 30
0.0
 10
110.933098
 20
43.890584
 30
0.0
  0
SPLINE
  5
165
100
AcDbEntity
  8
Ebene_1
 62
7
100
AcDbSpline
 70
8
 71
3
 72
8
 73
4
 74
0
 40
0
 40
0
 40
0
 40
0
 40
1
 40
1
 40
1
 40
1
 10
109.809300
 20
110.583400
 30
0.0
 10
109.622040
 20
111.571020
 30
0.0
 10
93.508520
 20
201.532091
 30
0.0
 10
93.508520
 20
201.589938
 30
0.0
  0
SPLINE
  5
166
100
AcDbEntity
  8
Ebene_1
 62
7
100
AcDbSpline
 70
8
 71
3
 72
8
 73
4
 74
0
 40
0
 40
0
 40
0
 40
0
 40
1
 40
1
 40
1
 40
1
 10
93.508520
 20
201.589938
 30
0.0
 10
93.508520
 20
201.672138
 30
0.0
 10
88.749277
 20
201.551838
 30
0.0
 10
86.357046
 20
201.409111
 30
0.0
  0
SPLINE
  5
167
100
AcDbEntity
  8
Ebene_1
 62
7
100
AcDbSpline
 70
8
 71
3
 72
8
 73
4
 74
0
 40
0
 40
0
 40
0
 40
0
 40
1
 40
1
 40
1
 40
1
 10
86.357046
 20
201.409111
 30
0.0
 10
79.237904
 20
200.984564
 30
0.0
 10
75.576332
 20
199.737880
 30
0.0
 10
73.806598
 20
197.135950
 30
0.0
  0
SPLINE
  5
168
100
AcDbEntity
  8
Ebene_1
 62
7
100
AcDbSpline
 70
8
 71
3
 72
8
 73
4
 74
0
 40
0
 40
0
 40
0
 40
0
 40
1
 40
1
 40
1
 40
1
 10
73.806598
 20
197.135950
 30
0.0
 10
73.154106
 20
196.176630
 30
0.0
 10
72.881712
 20
195.492620
 30
0.0
 10
72.596930
 20
194.098720
 30
0.0
  0
SPLINE
  5
169
100
AcDbEntity
  8
Ebene_1
 62
7
100
AcDbSpline
 70
8
 71
3
 72
8
 73
4
 74
0
 40
0
 40
0
 40
0
 40
0
 40
1
 40
1
 40
1
 40
1
 10
72.596930
 20
194.098720
 30
0.0
 10
72.481238
 20
193.532340
 30
0.0
 10
72.365468
 20
193.047860
 30
0.0
 10
72.339686
 20
193.022070
 30
0.0
  0
SPLINE
  5
16a
100
AcDbEntity
  8
Ebene_1
 62
7
100
AcDbSpline
 70
8
 71
3
 72
8
 73
4
 74
0
 40
0
 40
0
 40
0
 40
0
 40
1
 40
1
 40
1
 40
1
 10
72.339686
 20
193.022070
 30
0.0
 10
72.253026
 20
192.935370
 30
0.0
 10
69.294451
 20
194.341180
 30
0.0
 10
67.812121
 20
195.173390
 30
0.0
  0
SPLINE
  5
16b
100
AcDbEntity
  8
Ebene_1
 62
7
100
AcDbSpline
 70
8
 71
3
 72
8
 73
4
 74
0
 40
0
 40
0
 40
0
 40
0
 40
1
 40
1
 40
1
 40
1
 10
67.812121
 20
195.173390
 30
0.0
 10
63.378428
 20
197.662550
 30
0.0
 10
59.897628
 20
200.544584
 30
0.0
 10
57.529717
 20
203.687039
 30
0.0
  0
SPLINE
  5
16c
100
AcDbEntity
  8
Ebene_1
 62
7
100
AcDbSpline
 70
8
 71
3
 72
8
 73
4
 74
0
 40
0
 40
0
 40
0
 40
0
 40
1
 40
1
 40
1
 40
1
 10
57.529717
 20
203.687039
 30
0.0
 10
57.181837
 20
204.148696
 30
0.0
 10
56.897218
 20
204.564223
 30
0.0
 10
56.897218
 20
204.610393
 30
0.0
  0
SPLINE
  5
16d
100
AcDbEntity
  8
Ebene_1
 62
7
100
AcDbSpline
 70
8
 71
3
 72
8
 73
4
 74
0
 40
0
 40
0
 40
0
 40
0
 40
1
 40
1
 40
1
 40
1
 10
56.897218
 20
204.610393
 30
0.0
 10
56.897218
 20
204.656593
 30
0.0
 10
57.077340
 20
204.768920
 30
0.0
 10
57.297477
 20
204.860030
 30
0.0
  0
SPLINE
  5
16e
100
AcDbEntity
  8
Ebene_1
 62
7
100
AcDbSpline
 70
8
 71
3
 72
8
 73
4
 74
0
 40
0
 40
0
 40
0
 40
0
 40
1
 40
1
 40
1
 40
1
 10
57.297477
 20
204.860030
 30
0.0
 10
57.517622
 20
204.951130
 30
0.0
 10
58.466274
 20
205.360007
 30
0.0
 10
59.405565
 20
205.768647
 30
0.0
  0
SPLINE
  5
16f
100
AcDbEntity
  8
Ebene_1
 62
7
100
AcDbSpline
 70
8
 71
3
 72
8
 73
4
 74
0
 40
0
 40
0
 40
0
 40
0
 40
1
 40
1
 40
1
 40
1
 10
59.405565
 20
205.768647
 30
0.0
 10
70.167556
 20
210.450550
 30
0.0
 10
84.156539
 20
213.723130
 30
0.0
 10
96.710672
 20
214.495770
 30
0.0
  0
LWPOLYLINE
  5
170
100
AcDbEntity
  8
Ebene_1
 62
7
100
AcDbPolyline
 90
14
 70
1
 10
131.941570
 20
43.890584
 30
0.0
 10
131.941570
 20
40.065920
 30
0.0
 10
139.444279
 20
31.962074
 30
0.0
 10
139.444279
 20
26.857679
 30
0.0
 10
139.826279
 20
26.857679
 30
0.0
 10
143.209062
 20
26.857679
 30
0.0
 10
143.209062
 20
31.962074
 30
0.0
 10
150.711768
 20
40.065920
 30
0.0
 10
150.711768
 20
43.890584
 30
0.0
 10
146.946986
 20
43.890584
 30
0.0
 10
146.946986
 20
42.029022
 30
0.0
 10
141.327416
 20
35.957586
 30
0.0
 10
135.706356
 20
42.029022
 30
0.0
 10
135.706356
 20
43.890584
 30
0.0
  0
SPLINE
  5
171
100
AcDbEntity
  8
Ebene_1
 62
7
100
AcDbSpline
 70
8
 71
3
 72
8
 73
4
 74
0
 40
0
 40
0
 40
0
 40
0
 40
1
 40
1
 40
1
 40
1
 10
103.847110
 20
207.234428
 30
0.0
 10
107.155730
 20
203.202769
 30
0.0
 10
109.899400
 20
199.944520
 30
0.0
 10
109.944130
 20
199.993880
 30
0.0
  0
SPLINE
  5
172
100
AcDbEntity
  8
Ebene_1
 62
7
100
AcDbSpline
 70
8
 71
3
 72
8
 73
4
 74
0
 40
0
 40
0
 40
0
 40
0
 40
1
 40
1
 40
1
 40
1
 10
109.944130
 20
199.993880
 30
0.0
 10
109.988830
 20
200.043180
 30
0.0
 10
112.674220
 20
203.311449
 30
0.0
 10
115.911550
 20
207.256548
 30
0.0
  0
SPLINE
  5
173
100
AcDbEntity
  8
Ebene_1
 62
7
100
AcDbSpline
 70
8
 71
3
 72
8
 73
4
 74
0
 40
0
 40
0
 40
0
 40
0
 40
1
 40
1
 40
1
 40
1
 10
115.911550
 20
207.256548
 30
0.0
 10
119.148910
 20
211.201640
 30
0.0
 10
121.847110
 20
214.460023
 30
0.0
 10
121.907520
 20
214.497377
 30
0.0
  0
SPLINE
  5
174
100
AcDbEntity
  8
Ebene_1
 62
7
100
AcDbSpline
 70
8
 71
3
 72
8
 73
4
 74
0
 40
0
 40
0
 40
0
 40
0
 40
1
 40
1
 40
1
 40
1
 10
121.907520
 20
214.497377
 30
0.0
 10
122.033600
 20
214.575287
 30
0.0
 10
124.725980
 20
214.401637
 30
0.0
 10
127.077770
 20
214.163916
 30
0.0
  0
SPLINE
  5
175
100
AcDbEntity
  8
Ebene_1
 62
7
100
AcDbSpline
 70
8
 71
3
 72
8
 73
4
 74
0
 40
0
 40
0
 40
0
 40
0
 40
1
 40
1
 40
1
 40
1
 10
127.077770
 20
214.163916
 30
0.0
 10
136.995600
 20
213.161391
 30
0.0
 10
146.956540
 20
210.866403
 30
0.0
 10
156.003900
 20
207.499365
 30
0.0
  0
SPLINE
  5
176
100
AcDbEntity
  8
Ebene_1
 62
7
100
AcDbSpline
 70
8
 71
3
 72
8
 73
4
 74
0
 40
0
 40
0
 40
0
 40
0
 40
1
 40
1
 40
1
 40
1
 10
156.003900
 20
207.499365
 30
0.0
 10
158.139110
 20
206.704731
 30
0.0
 10
161.573720
 20
205.286440
 30
0.0
 10
162.469480
 20
204.829460
 30
0.0
  0
LWPOLYLINE
  5
177
100
AcDbEntity
  8
Ebene_1
 62
7
100
AcDbPolyline
 90
3
 70
0
 10
96.710672
 20
214.495770
 30
0.0
 10
97.831418
 20
214.564750
 30
0.0
 10
103.847110
 20
207.234428
 30
0.0
  0
SPLINE
  5
178
100
AcDbEntity
  8
Ebene_1
 62
7
100
AcDbSpline
 70
8
 71
3
 72
8
 73
4
 74
0
 40
0
 40
0
 40
0
 40
0
 40
1
 40
1
 40
1
 40
1
 10
162.348160
 20
203.873806
 30
0.0
 10
160.250350
 20
200.989594
 30
0.0
 10
156.961650
 20
198.155230
 30
0.0
 10
152.888910
 20
195.721370
 30
0.0
  0
SPLINE
  5
179
100
AcDbEntity
  8
Ebene_1
 62
7
100
AcDbSpline
 70
8
 71
3
 72
8
 73
4
 74
0
 40
0
 40
0
 40
0
 40
0
 40
1
 40
1
 40
1
 40
1
 10
152.888910
 20
195.721370
 30
0.0
 10
151.768820
 20
195.052000
 30
0.0
 10
148.060970
 20
193.190980
 30
0.0
 10
147.555410
 20
193.044390
 30
0.0
  0
SPLINE
  5
17a
100
AcDbEntity
  8
Ebene_1
 62
7
100
AcDbSpline
 70
8
 71
3
 72
8
 73
4
 74
0
 40
0
 40
0
 40
0
 40
0
 40
1
 40
1
 40
1
 40
1
 10
147.555410
 20
193.044390
 30
0.0
 10
147.346780
 20
192.983790
 30
0.0
 10
147.318820
 20
193.029290
 30
0.0
 10
147.249410
 20
193.542050
 30
0.0
  0
SPLINE
  5
17b
100
AcDbEntity
  8
Ebene_1
 62
7
100
AcDbSpline
 70
8
 71
3
 72
8
 73
4
 74
0
 40
0
 40
0
 40
0
 40
0
 40
1
 40
1
 40
1
 40
1
 10
147.249410
 20
193.542050
 30
0.0
 10
147.207310
 20
193.852370
 30
0.0
 10
147.055650
 20
194.513260
 30
0.0
 10
146.912210
 20
195.010690
 30
0.0
  0
SPLINE
  5
17c
100
AcDbEntity
  8
Ebene_1
 62
7
100
AcDbSpline
 70
8
 71
3
 72
8
 73
4
 74
0
 40
0
 40
0
 40
0
 40
0
 40
1
 40
1
 40
1
 40
1
 10
146.912210
 20
195.010690
 30
0.0
 10
145.782630
 20
198.927820
 30
0.0
 10
142.445130
 20
200.667194
 30
0.0
 10
134.816310
 20
201.314591
 30
0.0
  0
SPLINE
  5
17d
100
AcDbEntity
  8
Ebene_1
 62
7
100
AcDbSpline
 70
8
 71
3
 72
8
 73
4
 74
0
 40
0
 40
0
 40
0
 40
0
 40
1
 40
1
 40
1
 40
1
 10
134.816310
 20
201.314591
 30
0.0
 10
133.155210
 20
201.455551
 30
0.0
 10
126.246820
 20
201.636448
 30
0.0
 10
126.160020
 20
201.541251
 30
0.0
  0
SPLINE
  5
17e
100
AcDbEntity
  8
Ebene_1
 62
7
100
AcDbSpline
 70
8
 71
3
 72
8
 73
4
 74
0
 40
0
 40
0
 40
0
 40
0
 40
1
 40
1
 40
1
 40
1
 10
126.160020
 20
201.541251
 30
0.0
 10
126.115620
 20
201.492551
 30
0.0
 10
112.779260
 20
126.679610
 30
0.0
 10
109.964690
 20
110.690140
 30
0.0
  0
LWPOLYLINE
  5
17f
100
AcDbEntity
  8
Ebene_1
 62
7
100
AcDbPolyline
 90
3
 70
0
 10
162.469480
 20
204.829460
 30
0.0
 10
162.887960
 20
204.615973
 30
0.0
 10
162.348160
 20
203.873806
 30
0.0
  0
SPLINE
  5
180
100
AcDbEntity
  8
Ebene_1
 62
7
100
AcDbSpline
 70
8
 71
3
 72
8
 73
4
 74
0
 40
0
 40
0
 40
0
 40
0
 40
1
 40
1
 40
1
 40
1
 10
162.888530
 20
208.646279
 30
0.0
 10
150.140350
 20
214.022748
 30
0.0
 10
135.656910
 20
217.443987
 30
0.0
 10
121.207150
 20
218.492119
 30
0.0
  0
SPLINE
  5
181
100
AcDbEntity
  8
Ebene_1
 62
7
100
AcDbSpline
 70
8
 71
3
 72
8
 73
4
 74
0
 40
0
 40
0
 40
0
 40
0
 40
1
 40
1
 40
1
 40
1
 10
121.207150
 20
218.492119
 30
0.0
 10
116.564760
 20
218.828860
 30
0.0
 10
106.920210
 20
218.939135
 30
0.0
 10
102.250030
 20
218.708872
 30
0.0
  0
SPLINE
  5
182
100
AcDbEntity
  8
Ebene_1
 62
7
100
AcDbSpline
 70
8
 71
3
 72
8
 73
4
 74
0
 40
0
 40
0
 40
0
 40
0
 40
1
 40
1
 40
1
 40
1
 10
102.250030
 20
218.708872
 30
0.0
 10
86.065740
 20
217.910899
 30
0.0
 10
71.175889
 20
214.612640
 30
0.0
 10
56.865873
 20
208.655819
 30
0.0
  0
SPLINE
  5
183
100
AcDbEntity
  8
Ebene_1
 62
7
100
AcDbSpline
 70
8
 71
3
 72
8
 73
4
 74
0
 40
0
 40
0
 40
0
 40
0
 40
1
 40
1
 40
1
 40
1
 10
56.865873
 20
208.655819
 30
0.0
 10
55.879966
 20
208.245422
 30
0.0
 10
55.011948
 20
207.933205
 30
0.0
 10
54.936928
 20
207.961982
 30
0.0
  0
SPLINE
  5
184
100
AcDbEntity
  8
Ebene_1
 62
7
100
AcDbSpline
 70
8
 71
3
 72
8
 73
4
 74
0
 40
0
 40
0
 40
0
 40
0
 40
1
 40
1
 40
1
 40
1
 10
54.936928
 20
207.961982
 30
0.0
 10
54.861918
 20
207.990782
 30
0.0
 10
54.244655
 20
209.135866
 30
0.0
 10
53.565280
 20
210.506640
 30
0.0
  0
SPLINE
  5
185
100
AcDbEntity
  8
Ebene_1
 62
7
100
AcDbSpline
 70
8
 71
3
 72
8
 73
4
 74
0
 40
0
 40
0
 40
0
 40
0
 40
1
 40
1
 40
1
 40
1
 10
53.565280
 20
210.506640
 30
0.0
 10
52.294192
 20
213.071314
 30
0.0
 10
51.701839
 20
214.403599
 30
0.0
 10
51.792389
 20
214.494144
 30
0.0
  0
SPLINE
  5
186
100
AcDbEntity
  8
Ebene_1
 62
7
100
AcDbSpline
 70
8
 71
3
 72
8
 73
4
 74
0
 40
0
 40
0
 40
0
 40
0
 40
1
 40
1
 40
1
 40
1
 10
51.792389
 20
214.494144
 30
0.0
 10
51.885049
 20
214.586744
 30
0.0
 10
55.617003
 20
215.996652
 30
0.0
 10
57.804489
 20
216.765433
 30
0.0
  0
SPLINE
  5
187
100
AcDbEntity
  8
Ebene_1
 62
7
100
AcDbSpline
 70
8
 71
3
 72
8
 73
4
 74
0
 40
0
 40
0
 40
0
 40
0
 40
1
 40
1
 40
1
 40
1
 10
57.804489
 20
216.765433
 30
0.0
 10
78.311409
 20
223.972499
 30
0.0
 10
100.212250
 20
226.959113
 30
0.0
 10
120.940310
 20
225.375252
 30
0.0
  0
SPLINE
  5
188
100
AcDbEntity
  8
Ebene_1
 62
7
100
AcDbSpline
 70
8
 71
3
 72
8
 73
4
 74
0
 40
0
 40
0
 40
0
 40
0
 40
1
 40
1
 40
1
 40
1
 10
120.940310
 20
225.375252
 30
0.0
 10
136.443650
 20
224.190616
 30
0.0
 10
151.054810
 20
220.920355
 30
0.0
 10
165.927990
 20
215.306129
 30
0.0
  0
SPLINE
  5
189
100
AcDbEntity
  8
Ebene_1
 62
7
100
AcDbSpline
 70
8
 71
3
 72
8
 73
4
 74
0
 40
0
 40
0
 40
0
 40
0
 40
1
 40
1
 40
1
 40
1
 10
165.927990
 20
215.306129
 30
0.0
 10
167.035340
 20
214.888134
 30
0.0
 10
167.960380
 20
214.527110
 30
0.0
 10
167.983640
 20
214.503851
 30
0.0
  0
SPLINE
  5
18a
100
AcDbEntity
  8
Ebene_1
 62
7
100
AcDbSpline
 70
8
 71
3
 72
8
 73
4
 74
0
 40
0
 40
0
 40
0
 40
0
 40
1
 40
1
 40
1
 40
1
 10
167.983640
 20
214.503851
 30
0.0
 10
168.105210
 20
214.382276
 30
0.0
 10
165.131290
 20
208.174062
 30
0.0
 10
164.829960
 20
207.920385
 30
0.0
  0
SPLINE
  5
18b
100
AcDbEntity
  8
Ebene_1
 62
7
100
AcDbSpline
 70
8
 71
3
 72
8
 73
4
 74
0
 40
0
 40
0
 40
0
 40
0
 40
1
 40
1
 40
1
 40
1
 10
164.829960
 20
207.920385
 30
0.0
 10
164.789560
 20
207.886385
 30
0.0
 10
163.915880
 20
208.213002
 30
0.0
 10
162.888530
 20
208.646279
 30
0.0
  0
LWPOLYLINE
  5
18c
100
AcDbEntity
  8
Ebene_1
 62
7
100
AcDbPolyline
 90
3
 70
0
 10
109.964690
 20
110.690140
 30
0.0
 10
109.880190
 20
110.209810
 30
0.0
 10
109.809300
 20
110.583400
 30
0.0
  0
LWPOLYLINE
  5
18d
100
AcDbEntity
  8
Ebene_1
 62
7
100
AcDbPolyline
 90
1
 70
1
 10
162.888530
 20
208.646279
 30
0.0
  0
LWPOLYLINE
  5
18e
100
AcDbEntity
  8
Ebene_1
 62
7
100
AcDbPolyline
 90
9
 70
1
 10
162.339653
 20
247.022806
 30
0.0
 10
162.339653
 20
233.425367
 30
0.0
 10
162.830341
 20
233.425367
 30
0.0
 10
167.526378
 20
233.425367
 30
0.0
 10
167.526378
 20
241.836074
 30
0.0
 10
183.366421
 20
241.836074
 30
0.0
 10
183.366421
 20
233.425367
 30
0.0
 10
188.553155
 20
233.425367
 30
0.0
 10
188.553155
 20
247.022806
 30
0.0
  0
SPLINE
  5
18f
100
AcDbEntity
  8
Ebene_1
 62
7
100
AcDbSpline
 70
8
 71
3
 72
8
 73
4
 74
0
 40
0
 40
0
 40
0
 40
0
 40
1
 40
1
 40
1
 40
1
 10
162.339653
 20
254.942824
 30
0.0
 10
162.339653
 20
253.667771
 30
0.0
 10
162.802922
 20
252.525524
 30
0.0
 10
163.692883
 20
251.611510
 30
0.0
  0
LWPOLYLINE
  5
190
100
AcDbEntity
  8
Ebene_1
 62
7
100
AcDbPolyline
 90
2
 70
0
 10
162.339653
 20
255.433513
 30
0.0
 10
162.339653
 20
254.942824
 30
0.0
  0
SPLINE
  5
191
100
AcDbEntity
  8
Ebene_1
 62
7
100
AcDbSpline
 70
8
 71
3
 72
8
 73
4
 74
0
 40
0
 40
0
 40
0
 40
0
 40
1
 40
1
 40
1
 40
1
 10
163.698772
 20
251.607584
 30
0.0
 10
164.593591
 20
250.712770
 30
0.0
 10
165.740998
 20
250.246690
 30
0.0
 10
167.035836
 20
250.246690
 30
0.0
  0
LWPOLYLINE
  5
192
100
AcDbEntity
  8
Ebene_1
 62
7
100
AcDbPolyline
 90
3
 70
0
 10
163.692883
 20
251.611510
 30
0.0
 10
163.696809
 20
251.609547
 30
0.0
 10
163.698772
 20
251.607584
 30
0.0
  0
SPLINE
  5
193
100
AcDbEntity
  8
Ebene_1
 62
7
100
AcDbSpline
 70
8
 71
3
 72
8
 73
4
 74
0
 40
0
 40
0
 40
0
 40
0
 40
1
 40
1
 40
1
 40
1
 10
183.857256
 20
250.246690
 30
0.0
 10
185.112604
 20
250.246690
 30
0.0
 10
186.243514
 20
250.713373
 30
0.0
 10
187.155988
 20
251.601833
 30
0.0
  0
SPLINE
  5
194
100
AcDbEntity
  8
Ebene_1
 62
7
100
AcDbSpline
 70
8
 71
3
 72
8
 73
4
 74
0
 40
0
 40
0
 40
0
 40
0
 40
1
 40
1
 40
1
 40
1
 10
187.155988
 20
251.601833
 30
0.0
 10
188.073792
 20
252.495487
 30
0.0
 10
188.553302
 20
253.644862
 30
0.0
 10
188.553302
 20
254.942732
 30
0.0
  0
LWPOLYLINE
  5
195
100
AcDbEntity
  8
Ebene_1
 62
7
100
AcDbPolyline
 90
2
 70
0
 10
167.035836
 20
250.246690
 30
0.0
 10
183.857256
 20
250.246690
 30
0.0
  0
LWPOLYLINE
  5
196
100
AcDbEntity
  8
Ebene_1
 62
7
100
AcDbPolyline
 90
3
 70
0
 10
188.553302
 20
254.942732
 30
0.0
 10
188.553302
 20
255.433421
 30
0.0
 10
162.339653
 20
255.433513
 30
0.0
  0
SPLINE
  5
197
100
AcDbEntity
  8
Ebene_1
 62
7
100
AcDbSpline
 70
8
 71
3
 72
8
 73
4
 74
0
 40
0
 40
0
 40
0
 40
0
 40
1
 40
1
 40
1
 40
1
 10
31.628667
 20
254.942824
 30
0.0
 10
31.628667
 20
253.667771
 30
0.0
 10
32.093849
 20
252.525524
 30
0.0
 10
32.983811
 20
251.611510
 30
0.0
  0
LWPOLYLINE
  5
198
100
AcDbEntity
  8
Ebene_1
 62
7
100
AcDbPolyline
 90
2
 70
0
 10
31.628667
 20
255.433513
 30
0.0
 10
31.628667
 20
254.942824
 30
0.0
  0
SPLINE
  5
199
100
AcDbEntity
  8
Ebene_1
 62
7
100
AcDbSpline
 70
8
 71
3
 72
8
 73
4
 74
0
 40
0
 40
0
 40
0
 40
0
 40
1
 40
1
 40
1
 40
1
 10
32.987736
 20
251.607584
 30
0.0
 10
33.882556
 20
250.712769
 30
0.0
 10
35.029962
 20
250.246690
 30
0.0
 10
36.324801
 20
250.246690
 30
0.0
  0
LWPOLYLINE
  5
19a
100
AcDbEntity
  8
Ebene_1
 62
7
100
AcDbPolyline
 90
3
 70
0
 10
32.983811
 20
251.611510
 30
0.0
 10
32.985774
 20
251.609547
 30
0.0
 10
32.987736
 20
251.607584
 30
0.0
  0
SPLINE
  5
19b
100
AcDbEntity
  8
Ebene_1
 62
7
100
AcDbSpline
 70
8
 71
3
 72
8
 73
4
 74
0
 40
0
 40
0
 40
0
 40
0
 40
1
 40
1
 40
1
 40
1
 10
53.146221
 20
250.246782
 30
0.0
 10
54.401569
 20
250.246782
 30
0.0
 10
55.532478
 20
250.713465
 30
0.0
 10
56.444953
 20
251.601926
 30
0.0
  0
SPLINE
  5
19c
100
AcDbEntity
  8
Ebene_1
 62
7
100
AcDbSpline
 70
8
 71
3
 72
8
 73
4
 74
0
 40
0
 40
0
 40
0
 40
0
 40
1
 40
1
 40
1
 40
1
 10
56.444953
 20
251.601926
 30
0.0
 10
57.362756
 20
252.495578
 30
0.0
 10
57.842257
 20
253.644953
 30
0.0
 10
57.842257
 20
254.942824
 30
0.0
  0
LWPOLYLINE
  5
19d
100
AcDbEntity
  8
Ebene_1
 62
7
100
AcDbPolyline
 90
7
 70
0
 10
36.324801
 20
250.246690
 30
0.0
 10
42.142149
 20
250.246690
 30
0.0
 10
42.142149
 20
233.425367
 30
0.0
 10
42.632837
 20
233.425367
 30
0.0
 10
47.328873
 20
233.425367
 30
0.0
 10
47.328873
 20
250.246782
 30
0.0
 10
53.146221
 20
250.246782
 30
0.0
  0
LWPOLYLINE
  5
19e
100
AcDbEntity
  8
Ebene_1
 62
7
100
AcDbPolyline
 90
3
 70
0
 10
57.842257
 20
254.942824
 30
0.0
 10
57.842257
 20
255.433513
 30
0.0
 10
31.628667
 20
255.433513
 30
0.0
  0
SPLINE
  5
19f
100
AcDbEntity
  8
Ebene_1
 62
7
100
AcDbSpline
 70
8
 71
3
 72
8
 73
4
 74
0
 40
0
 40
0
 40
0
 40
0
 40
1
 40
1
 40
1
 40
1
 10
64.305459
 20
238.121409
 30
0.0
 10
64.305459
 20
236.846356
 30
0.0
 10
64.770641
 20
235.704109
 30
0.0
 10
65.660603
 20
234.790095
 30
0.0
  0
LWPOLYLINE
  5
1a0
100
AcDbEntity
  8
Ebene_1
 62
7
100
AcDbPolyline
 90
2
 70
0
 10
64.305459
 20
238.612098
 30
0.0
 10
64.305459
 20
238.121409
 30
0.0
  0
SPLINE
  5
1a1
100
AcDbEntity
  8
Ebene_1
 62
7
100
AcDbSpline
 70
8
 71
3
 72
8
 73
4
 74
0
 40
0
 40
0
 40
0
 40
0
 40
1
 40
1
 40
1
 40
1
 10
65.664529
 20
234.784305
 30
0.0
 10
66.559338
 20
233.889489
 30
0.0
 10
67.706745
 20
233.425327
 30
0.0
 10
69.001593
 20
233.425327
 30
0.0
  0
LWPOLYLINE
  5
1a2
100
AcDbEntity
  8
Ebene_1
 62
7
100
AcDbPolyline
 90
3
 70
0
 10
65.660603
 20
234.790095
 30
0.0
 10
65.662566
 20
234.788132
 30
0.0
 10
65.664529
 20
234.784305
 30
0.0
  0
SPLINE
  5
1a3
100
AcDbEntity
  8
Ebene_1
 62
7
100
AcDbSpline
 70
8
 71
3
 72
8
 73
4
 74
0
 40
0
 40
0
 40
0
 40
0
 40
1
 40
1
 40
1
 40
1
 10
85.823003
 20
233.425327
 30
0.0
 10
87.078351
 20
233.425327
 30
0.0
 10
88.211184
 20
233.892010
 30
0.0
 10
89.123649
 20
234.780470
 30
0.0
  0
SPLINE
  5
1a4
100
AcDbEntity
  8
Ebene_1
 62
7
100
AcDbSpline
 70
8
 71
3
 72
8
 73
4
 74
0
 40
0
 40
0
 40
0
 40
0
 40
1
 40
1
 40
1
 40
1
 10
89.123649
 20
234.780470
 30
0.0
 10
90.041462
 20
235.674123
 30
0.0
 10
90.519049
 20
236.823498
 30
0.0
 10
90.519049
 20
238.121369
 30
0.0
  0
LWPOLYLINE
  5
1a5
100
AcDbEntity
  8
Ebene_1
 62
7
100
AcDbPolyline
 90
2
 70
0
 10
69.001593
 20
233.425327
 30
0.0
 10
85.823003
 20
233.425327
 30
0.0
  0
LWPOLYLINE
  5
1a6
100
AcDbEntity
  8
Ebene_1
 62
7
100
AcDbPolyline
 90
3
 70
0
 10
90.519049
 20
238.121369
 30
0.0
 10
90.519049
 20
238.612058
 30
0.0
 10
64.305459
 20
238.612098
 30
0.0
  0
SPLINE
  5
1a7
100
AcDbEntity
  8
Ebene_1
 62
7
100
AcDbSpline
 70
8
 71
3
 72
8
 73
4
 74
0
 40
0
 40
0
 40
0
 40
0
 40
1
 40
1
 40
1
 40
1
 10
64.305459
 20
246.532117
 30
0.0
 10
64.305459
 20
245.257063
 30
0.0
 10
64.770641
 20
244.114817
 30
0.0
 10
65.660603
 20
243.200803
 30
0.0
  0
LWPOLYLINE
  5
1a8
100
AcDbEntity
  8
Ebene_1
 62
7
100
AcDbPolyline
 90
2
 70
0
 10
64.305459
 20
247.022806
 30
0.0
 10
64.305459
 20
246.532117
 30
0.0
  0
SPLINE
  5
1a9
100
AcDbEntity
  8
Ebene_1
 62
7
100
AcDbSpline
 70
8
 71
3
 72
8
 73
4
 74
0
 40
0
 40
0
 40
0
 40
0
 40
1
 40
1
 40
1
 40
1
 10
65.664529
 20
243.195013
 30
0.0
 10
66.559338
 20
242.300198
 30
0.0
 10
67.706745
 20
241.836035
 30
0.0
 10
69.001593
 20
241.836035
 30
0.0
  0
LWPOLYLINE
  5
1aa
100
AcDbEntity
  8
Ebene_1
 62
7
100
AcDbPolyline
 90
3
 70
0
 10
65.660603
 20
243.200803
 30
0.0
 10
65.662566
 20
243.198840
 30
0.0
 10
65.664529
 20
243.195013
 30
0.0
  0
SPLINE
  5
1ab
100
AcDbEntity
  8
Ebene_1
 62
7
100
AcDbSpline
 70
8
 71
3
 72
8
 73
4
 74
0
 40
0
 40
0
 40
0
 40
0
 40
1
 40
1
 40
1
 40
1
 10
85.823003
 20
241.836035
 30
0.0
 10
87.078351
 20
241.836035
 30
0.0
 10
88.211184
 20
242.302718
 30
0.0
 10
89.123649
 20
243.191179
 30
0.0
  0
SPLINE
  5
1ac
100
AcDbEntity
  8
Ebene_1
 62
7
100
AcDbSpline
 70
8
 71
3
 72
8
 73
4
 74
0
 40
0
 40
0
 40
0
 40
0
 40
1
 40
1
 40
1
 40
1
 10
89.123649
 20
243.191179
 30
0.0
 10
90.041462
 20
244.084832
 30
0.0
 10
90.519049
 20
245.234207
 30
0.0
 10
90.519049
 20
246.532078
 30
0.0
  0
LWPOLYLINE
  5
1ad
100
AcDbEntity
  8
Ebene_1
 62
7
100
AcDbPolyline
 90
2
 70
0
 10
69.001593
 20
241.836035
 30
0.0
 10
85.823003
 20
241.836035
 30
0.0
  0
LWPOLYLINE
  5
1ae
100
AcDbEntity
  8
Ebene_1
 62
7
100
AcDbPolyline
 90
3
 70
0
 10
90.519049
 20
246.532078
 30
0.0
 10
90.519049
 20
247.022767
 30
0.0
 10
64.305459
 20
247.022806
 30
0.0
  0
SPLINE
  5
1af
100
AcDbEntity
  8
Ebene_1
 62
7
100
AcDbSpline
 70
8
 71
3
 72
8
 73
4
 74
0
 40
0
 40
0
 40
0
 40
0
 40
1
 40
1
 40
1
 40
1
 10
64.305459
 20
254.942824
 30
0.0
 10
64.305459
 20
253.667771
 30
0.0
 10
64.770641
 20
252.525524
 30
0.0
 10
65.660603
 20
251.611510
 30
0.0
  0
LWPOLYLINE
  5
1b0
100
AcDbEntity
  8
Ebene_1
 62
7
100
AcDbPolyline
 90
2
 70
0
 10
64.305459
 20
255.433513
 30
0.0
 10
64.305459
 20
254.942824
 30
0.0
  0
SPLINE
  5
1b1
100
AcDbEntity
  8
Ebene_1
 62
7
100
AcDbSpline
 70
8
 71
3
 72
8
 73
4
 74
0
 40
0
 40
0
 40
0
 40
0
 40
1
 40
1
 40
1
 40
1
 10
65.664529
 20
251.607584
 30
0.0
 10
66.559338
 20
250.712769
 30
0.0
 10
67.706745
 20
250.246690
 30
0.0
 10
69.001593
 20
250.246690
 30
0.0
  0
LWPOLYLINE
  5
1b2
100
AcDbEntity
  8
Ebene_1
 62
7
100
AcDbPolyline
 90
3
 70
0
 10
65.660603
 20
251.611510
 30
0.0
 10
65.662566
 20
251.609547
 30
0.0
 10
65.664529
 20
251.607584
 30
0.0
  0
SPLINE
  5
1b3
100
AcDbEntity
  8
Ebene_1
 62
7
100
AcDbSpline
 70
8
 71
3
 72
8
 73
4
 74
0
 40
0
 40
0
 40
0
 40
0
 40
1
 40
1
 40
1
 40
1
 10
85.823003
 20
250.246690
 30
0.0
 10
87.078351
 20
250.246690
 30
0.0
 10
88.211184
 20
250.713373
 30
0.0
 10
89.123649
 20
251.601833
 30
0.0
  0
SPLINE
  5
1b4
100
AcDbEntity
  8
Ebene_1
 62
7
100
AcDbSpline
 70
8
 71
3
 72
8
 73
4
 74
0
 40
0
 40
0
 40
0
 40
0
 40
1
 40
1
 40
1
 40
1
 10
89.123649
 20
251.601833
 30
0.0
 10
90.041462
 20
252.495486
 30
0.0
 10
90.519049
 20
253.644861
 30
0.0
 10
90.519049
 20
254.942732
 30
0.0
  0
LWPOLYLINE
  5
1b5
100
AcDbEntity
  8
Ebene_1
 62
7
100
AcDbPolyline
 90
2
 70
0
 10
69.001593
 20
250.246690
 30
0.0
 10
85.823003
 20
250.246690
 30
0.0
  0
LWPOLYLINE
  5
1b6
100
AcDbEntity
  8
Ebene_1
 62
7
100
AcDbPolyline
 90
3
 70
0
 10
90.519049
 20
254.942732
 30
0.0
 10
90.519049
 20
255.433421
 30
0.0
 10
64.305459
 20
255.433513
 30
0.0
  0
SPLINE
  5
1b7
100
AcDbEntity
  8
Ebene_1
 62
7
100
AcDbSpline
 70
8
 71
3
 72
8
 73
4
 74
0
 40
0
 40
0
 40
0
 40
0
 40
1
 40
1
 40
1
 40
1
 10
101.680201
 20
238.612098
 30
0.0
 10
100.402065
 20
238.612098
 30
0.0
 10
99.256111
 20
238.133512
 30
0.0
 10
98.343136
 20
237.220537
 30
0.0
  0
SPLINE
  5
1b8
100
AcDbEntity
  8
Ebene_1
 62
7
100
AcDbSpline
 70
8
 71
3
 72
8
 73
4
 74
0
 40
0
 40
0
 40
0
 40
0
 40
1
 40
1
 40
1
 40
1
 10
98.343136
 20
237.220537
 30
0.0
 10
97.449887
 20
236.327283
 30
0.0
 10
96.984165
 20
235.191109
 30
0.0
 10
96.984165
 20
233.916056
 30
0.0
  0
LWPOLYLINE
  5
1b9
100
AcDbEntity
  8
Ebene_1
 62
7
100
AcDbPolyline
 90
5
 70
0
 10
96.984165
 20
255.433513
 30
0.0
 10
96.984165
 20
241.836074
 30
0.0
 10
118.010932
 20
241.836074
 30
0.0
 10
118.010932
 20
238.612098
 30
0.0
 10
101.680201
 20
238.612098
 30
0.0
  0
SPLINE
  5
1ba
100
AcDbEntity
  8
Ebene_1
 62
7
100
AcDbSpline
 70
8
 71
3
 72
8
 73
4
 74
0
 40
0
 40
0
 40
0
 40
0
 40
1
 40
1
 40
1
 40
1
 10
118.501621
 20
250.246782
 30
0.0
 10
119.756969
 20
250.246782
 30
0.0
 10
120.887878
 20
250.713465
 30
0.0
 10
121.800353
 20
251.601926
 30
0.0
  0
SPLINE
  5
1bb
100
AcDbEntity
  8
Ebene_1
 62
7
100
AcDbSpline
 70
8
 71
3
 72
8
 73
4
 74
0
 40
0
 40
0
 40
0
 40
0
 40
1
 40
1
 40
1
 40
1
 10
121.800353
 20
251.601926
 30
0.0
 10
122.718156
 20
252.495579
 30
0.0
 10
123.197657
 20
253.644954
 30
0.0
 10
123.197657
 20
254.942824
 30
0.0
  0
LWPOLYLINE
  5
1bc
100
AcDbEntity
  8
Ebene_1
 62
7
100
AcDbPolyline
 90
8
 70
0
 10
96.984165
 20
233.916056
 30
0.0
 10
96.984165
 20
233.425367
 30
0.0
 10
97.474853
 20
233.425367
 30
0.0
 10
123.197657
 20
233.425367
 30
0.0
 10
123.197657
 20
247.022806
 30
0.0
 10
102.170889
 20
247.022806
 30
0.0
 10
102.170889
 20
250.246782
 30
0.0
 10
118.501621
 20
250.246782
 30
0.0
  0
LWPOLYLINE
  5
1bd
100
AcDbEntity
  8
Ebene_1
 62
7
100
AcDbPolyline
 90
3
 70
0
 10
123.197657
 20
254.942824
 30
0.0
 10
123.197657
 20
255.433513
 30
0.0
 10
96.984165
 20
255.433513
 30
0.0
  0
SPLINE
  5
1be
100
AcDbEntity
  8
Ebene_1
 62
7
100
AcDbSpline
 70
8
 71
3
 72
8
 73
4
 74
0
 40
0
 40
0
 40
0
 40
0
 40
1
 40
1
 40
1
 40
1
 10
151.178403
 20
233.425367
 30
0.0
 10
152.433751
 20
233.425367
 30
0.0
 10
153.566584
 20
233.892050
 30
0.0
 10
154.479049
 20
234.780511
 30
0.0
  0
SPLINE
  5
1bf
100
AcDbEntity
  8
Ebene_1
 62
7
100
AcDbSpline
 70
8
 71
3
 72
8
 73
4
 74
0
 40
0
 40
0
 40
0
 40
0
 40
1
 40
1
 40
1
 40
1
 10
154.479049
 20
234.780511
 30
0.0
 10
155.396852
 20
235.674164
 30
0.0
 10
155.874449
 20
236.823539
 30
0.0
 10
155.874449
 20
238.121409
 30
0.0
  0
LWPOLYLINE
  5
1c0
100
AcDbEntity
  8
Ebene_1
 62
7
100
AcDbPolyline
 90
4
 70
0
 10
129.660947
 20
255.433513
 30
0.0
 10
129.660947
 20
233.425367
 30
0.0
 10
130.151636
 20
233.425367
 30
0.0
 10
151.178403
 20
233.425367
 30
0.0
  0
SPLINE
  5
1c1
100
AcDbEntity
  8
Ebene_1
 62
7
100
AcDbSpline
 70
8
 71
3
 72
8
 73
4
 74
0
 40
0
 40
0
 40
0
 40
0
 40
1
 40
1
 40
1
 40
1
 10
47.934768
 20
290.495995
 30
0.0
 10
27.110608
 20
290.495995
 30
0.0
 10
10.149608
 20
273.561404
 30
0.0
 10
10.149608
 20
252.757714
 30
0.0
  0
LWPOLYLINE
  5
1c2
100
AcDbEntity
  8
Ebene_1
 62
7
100
AcDbPolyline
 90
5
 70
0
 10
155.874449
 20
238.121409
 30
0.0
 10
155.874449
 20
238.612098
 30
0.0
 10
134.847682
 20
238.612098
 30
0.0
 10
134.847682
 20
255.433513
 30
0.0
 10
129.660947
 20
255.433513
 30
0.0
  0
SPLINE
  5
1c3
100
AcDbEntity
  8
Ebene_1
 62
7
100
AcDbSpline
 70
8
 71
3
 72
8
 73
4
 74
0
 40
0
 40
0
 40
0
 40
0
 40
1
 40
1
 40
1
 40
1
 10
10.149608
 20
46.820220
 30
0.0
 10
10.149608
 20
26.016530
 30
0.0
 10
27.110608
 20
9.081940
 30
0.0
 10
47.934768
 20
9.081940
 30
0.0
  0
LWPOLYLINE
  5
1c4
100
AcDbEntity
  8
Ebene_1
 62
7
100
AcDbPolyline
 90
2
 70
0
 10
10.149608
 20
252.757714
 30
0.0
 10
10.149608
 20
46.820220
 30
0.0
  0
SPLINE
  5
1c5
100
AcDbEntity
  8
Ebene_1
 62
7
100
AcDbSpline
 70
8
 71
3
 72
8
 73
4
 74
0
 40
0
 40
0
 40
0
 40
0
 40
1
 40
1
 40
1
 40
1
 10
171.665230
 20
9.081940
 30
0.0
 10
192.489390
 20
9.081940
 30
0.0
 10
209.450390
 20
26.016530
 30
0.0
 10
209.450390
 20
46.820220
 30
0.0
  0
LWPOLYLINE
  5
1c6
100
AcDbEntity
  8
Ebene_1
 62
7
100
AcDbPolyline
 90
2
 70
0
 10
47.934768
 20
9.081940
 30
0.0
 10
171.665230
 20
9.081940
 30
0.0
  0
SPLINE
  5
1c7
100
AcDbEntity
  8
Ebene_1
 62
7
100
AcDbSpline
 70
8
 71
3
 72
8
 73
4
 74
0
 40
0
 40
0
 40
0
 40
0
 40
1
 40
1
 40
1
 40
1
 10
209.450390
 20
252.757714
 30
0.0
 10
209.450390
 20
273.561404
 30
0.0
 10
192.489390
 20
290.495995
 30
0.0
 10
171.665230
 20
290.495995
 30
0.0
  0
LWPOLYLINE
  5
1c8
100
AcDbEntity
  8
Ebene_1
 62
7
100
AcDbPolyline
 90
2
 70
0
 10
209.450390
 20
46.820220
 30
0.0
 10
209.450390
 20
252.757714
 30
0.0
  0
LWPOLYLINE
  5
1c9
100
AcDbEntity
  8
Ebene_1
 62
7
100
AcDbPolyline
 90
2
 70
0
 10
171.665230
 20
290.495995
 30
0.0
 10
47.934768
 20
290.495995
 30
0.0
  0
LWPOLYLINE
  5
1ca
100
AcDbEntity
  8
Ebene_1
 62
7
100
AcDbPolyline
 90
12
 70
1
 10
26.798380
 20
81.633730
 30
0.0
 10
32.039872
 20
81.633730
 30
0.0
 10
32.039872
 20
88.820520
 30
0.0
 10
38.767354
 20
88.820520
 30
0.0
 10
38.767354
 20
81.633730
 30
0.0
 10
44.008846
 20
81.633730
 30
0.0
 10
44.008846
 20
100.546330
 30
0.0
 10
38.767354
 20
100.546330
 30
0.0
 10
38.767354
 20
93.467610
 30
0.0
 10
32.039872
 20
93.467610
 30
0.0
 10
32.039872
 20
100.546330
 30
0.0
 10
26.798380
 20
100.546330
 30
0.0
  0
LWPOLYLINE
  5
1cb
100
AcDbEntity
  8
Ebene_1
 62
7
100
AcDbPolyline
 90
4
 70
1
 10
46.784101
 20
87.820850
 30
0.0
 10
55.646004
 20
87.820850
 30
0.0
 10
55.646004
 20
92.332860
 30
0.0
 10
46.784101
 20
92.332860
 30
0.0
  0
LWPOLYLINE
  5
1cc
100
AcDbEntity
  8
Ebene_1
 62
7
100
AcDbPolyline
 90
8
 70
1
 10
60.811086
 20
81.633730
 30
0.0
 10
66.052578
 20
81.633730
 30
0.0
 10
66.052578
 20
95.953270
 30
0.0
 10
71.726358
 20
95.953270
 30
0.0
 10
71.726358
 20
100.546330
 30
0.0
 10
55.137306
 20
100.546330
 30
0.0
 10
55.137306
 20
95.953270
 30
0.0
 10
60.811086
 20
95.953270
 30
0.0
  0
SPLINE
  5
1cd
100
AcDbEntity
  8
Ebene_1
 62
7
100
AcDbSpline
 70
8
 71
3
 72
8
 73
4
 74
0
 40
0
 40
0
 40
0
 40
0
 40
1
 40
1
 40
1
 40
1
 10
111.812620
 20
81.255480
 30
0.0
 10
116.027430
 20
81.255480
 30
0.0
 10
119.107480
 20
83.714110
 30
0.0
 10
119.107480
 20
87.550670
 30
0.0
  0
LWPOLYLINE
  5
1ce
100
AcDbEntity
  8
Ebene_1
 62
7
100
AcDbPolyline
 90
13
 70
1
 10
74.027110
 20
81.633730
 30
0.0
 10
79.160529
 20
81.633730
 30
0.0
 10
79.160529
 20
92.440930
 30
0.0
 10
83.969733
 20
85.092030
 30
0.0
 10
84.077805
 20
85.092030
 30
0.0
 10
88.914027
 20
92.494960
 30
0.0
 10
88.914027
 20
81.633730
 30
0.0
 10
94.128501
 20
81.633730
 30
0.0
 10
94.128501
 20
100.546330
 30
0.0
 10
88.589811
 20
100.546330
 30
0.0
 10
84.077805
 20
93.224450
 30
0.0
 10
79.565799
 20
100.546330
 30
0.0
 10
74.027110
 20
100.546330
 30
0.0
  0
SPLINE
  5
1cf
100
AcDbEntity
  8
Ebene_1
 62
7
100
AcDbSpline
 70
8
 71
3
 72
8
 73
4
 74
0
 40
0
 40
0
 40
0
 40
0
 40
1
 40
1
 40
1
 40
1
 10
119.107480
 20
87.604670
 30
0.0
 10
119.107480
 20
90.819810
 30
0.0
 10
116.919030
 20
92.332820
 30
0.0
 10
114.217230
 20
92.927210
 30
0.0
  0
LWPOLYLINE
  5
1d0
100
AcDbEntity
  8
Ebene_1
 62
7
100
AcDbPolyline
 90
2
 70
0
 10
119.107480
 20
87.550670
 30
0.0
 10
119.107480
 20
87.604670
 30
0.0
  0
SPLINE
  5
1d1
100
AcDbEntity
  8
Ebene_1
 62
7
100
AcDbSpline
 70
8
 71
3
 72
8
 73
4
 74
0
 40
0
 40
0
 40
0
 40
0
 40
1
 40
1
 40
1
 40
1
 10
110.921030
 20
89.658030
 30
0.0
 10
112.893340
 20
89.658030
 30
0.0
 10
114.001080
 20
88.928550
 30
0.0
 10
114.001080
 20
87.712740
 30
0.0
  0
LWPOLYLINE
  5
1d2
100
AcDbEntity
  8
Ebene_1
 62
7
100
AcDbPolyline
 90
9
 70
0
 10
114.217230
 20
92.927210
 30
0.0
 10
118.729230
 20
96.790790
 30
0.0
 10
118.729230
 20
100.546290
 30
0.0
 10
105.058120
 20
100.546290
 30
0.0
 10
105.058120
 20
96.304460
 30
0.0
 10
112.298950
 20
96.304460
 30
0.0
 10
107.949050
 20
92.386850
 30
0.0
 10
108.705550
 20
89.658030
 30
0.0
 10
110.921030
 20
89.658030
 30
0.0
  0
SPLINE
  5
1d3
100
AcDbEntity
  8
Ebene_1
 62
7
100
AcDbSpline
 70
8
 71
3
 72
8
 73
4
 74
0
 40
0
 40
0
 40
0
 40
0
 40
1
 40
1
 40
1
 40
1
 10
114.001080
 20
87.658740
 30
0.0
 10
114.001080
 20
86.496970
 30
0.0
 10
113.055450
 20
85.740460
 30
0.0
 10
111.569460
 20
85.740460
 30
0.0
  0
SPLINE
  5
1d4
100
AcDbEntity
  8
Ebene_1
 62
7
100
AcDbSpline
 70
8
 71
3
 72
8
 73
4
 74
0
 40
0
 40
0
 40
0
 40
0
 40
1
 40
1
 40
1
 40
1
 10
111.569460
 20
85.740460
 30
0.0
 10
109.840310
 20
85.740460
 30
0.0
 10
108.408360
 20
86.523990
 30
0.0
 10
107.057460
 20
87.901900
 30
0.0
  0
LWPOLYLINE
  5
1d5
100
AcDbEntity
  8
Ebene_1
 62
7
100
AcDbPolyline
 90
2
 70
0
 10
114.001080
 20
87.712740
 30
0.0
 10
114.001080
 20
87.658740
 30
0.0
  0
SPLINE
  5
1d6
100
AcDbEntity
  8
Ebene_1
 62
7
100
AcDbSpline
 70
8
 71
3
 72
8
 73
4
 74
0
 40
0
 40
0
 40
0
 40
0
 40
1
 40
1
 40
1
 40
1
 10
103.761260
 20
84.605710
 30
0.0
 10
105.598480
 20
82.579360
 30
0.0
 10
108.165190
 20
81.255480
 30
0.0
 10
111.812620
 20
81.255480
 30
0.0
  0
LWPOLYLINE
  5
1d7
100
AcDbEntity
  8
Ebene_1
 62
7
100
AcDbPolyline
 90
2
 70
0
 10
107.057460
 20
87.901900
 30
0.0
 10
103.761260
 20
84.605710
 30
0.0
  0
SPLINE
  5
1d8
100
AcDbEntity
  8
Ebene_1
 62
7
100
AcDbSpline
 70
8
 71
3
 72
8
 73
4
 74
0
 40
0
 40
0
 40
0
 40
0
 40
1
 40
1
 40
1
 40
1
 10
129.890200
 20
81.255480
 30
0.0
 10
135.293800
 20
81.255480
 30
0.0
 10
138.671050
 20
85.740460
 30
0.0
 10
138.671050
 20
91.090030
 30
0.0
  0
LWPOLYLINE
  5
1d9
100
AcDbEntity
  8
Ebene_1
 62
7
100
AcDbPolyline
 90
1
 70
1
 10
111.812620
 20
81.255480
 30
0.0
  0
SPLINE
  5
1da
100
AcDbEntity
  8
Ebene_1
 62
7
100
AcDbSpline
 70
8
 71
3
 72
8
 73
4
 74
0
 40
0
 40
0
 40
0
 40
0
 40
1
 40
1
 40
1
 40
1
 10
138.671050
 20
91.144030
 30
0.0
 10
138.671050
 20
96.493600
 30
0.0
 10
135.320820
 20
100.924550
 30
0.0
 10
129.944240
 20
100.924550
 30
0.0
  0
SPLINE
  5
1db
100
AcDbEntity
  8
Ebene_1
 62
7
100
AcDbSpline
 70
8
 71
3
 72
8
 73
4
 74
0
 40
0
 40
0
 40
0
 40
0
 40
1
 40
1
 40
1
 40
1
 10
129.944240
 20
100.924550
 30
0.0
 10
124.567660
 20
100.924550
 30
0.0
 10
121.163390
 20
96.439560
 30
0.0
 10
121.163390
 20
91.090000
 30
0.0
  0
LWPOLYLINE
  5
1dc
100
AcDbEntity
  8
Ebene_1
 62
7
100
AcDbPolyline
 90
2
 70
0
 10
138.671050
 20
91.090030
 30
0.0
 10
138.671050
 20
91.144030
 30
0.0
  0
SPLINE
  5
1dd
100
AcDbEntity
  8
Ebene_1
 62
7
100
AcDbSpline
 70
8
 71
3
 72
8
 73
4
 74
0
 40
0
 40
0
 40
0
 40
0
 40
1
 40
1
 40
1
 40
1
 10
121.163390
 20
91.036000
 30
0.0
 10
121.163390
 20
85.686440
 30
0.0
 10
124.486600
 20
81.255490
 30
0.0
 10
129.890200
 20
81.255490
 30
0.0
  0
LWPOLYLINE
  5
1de
100
AcDbEntity
  8
Ebene_1
 62
7
100
AcDbPolyline
 90
2
 70
0
 10
121.163390
 20
91.090000
 30
0.0
 10
121.163390
 20
91.036000
 30
0.0
  0
SPLINE
  5
1df
100
AcDbEntity
  8
Ebene_1
 62
7
100
AcDbSpline
 70
8
 71
3
 72
8
 73
4
 74
0
 40
0
 40
0
 40
0
 40
0
 40
1
 40
1
 40
1
 40
1
 10
129.944200
 20
85.902570
 30
0.0
 10
127.836800
 20
85.902570
 30
0.0
 10
126.431860
 20
88.064010
 30
0.0
 10
126.431860
 20
91.090030
 30
0.0
  0
LWPOLYLINE
  5
1e0
100
AcDbEntity
  8
Ebene_1
 62
7
100
AcDbPolyline
 90
1
 70
1
 10
129.890200
 20
81.255490
 30
0.0
  0
SPLINE
  5
1e1
100
AcDbEntity
  8
Ebene_1
 62
7
100
AcDbSpline
 70
8
 71
3
 72
8
 73
4
 74
0
 40
0
 40
0
 40
0
 40
0
 40
1
 40
1
 40
1
 40
1
 10
126.431860
 20
91.144030
 30
0.0
 10
126.431860
 20
94.170050
 30
0.0
 10
127.809780
 20
96.277450
 30
0.0
 10
129.890160
 20
96.277450
 30
0.0
  0
SPLINE
  5
1e2
100
AcDbEntity
  8
Ebene_1
 62
7
100
AcDbSpline
 70
8
 71
3
 72
8
 73
4
 74
0
 40
0
 40
0
 40
0
 40
0
 40
1
 40
1
 40
1
 40
1
 10
129.890160
 20
96.277450
 30
0.0
 10
131.970550
 20
96.277450
 30
0.0
 10
133.402500
 20
94.089000
 30
0.0
 10
133.402500
 20
91.090000
 30
0.0
  0
LWPOLYLINE
  5
1e3
100
AcDbEntity
  8
Ebene_1
 62
7
100
AcDbPolyline
 90
2
 70
0
 10
126.431860
 20
91.090030
 30
0.0
 10
126.431860
 20
91.144030
 30
0.0
  0
SPLINE
  5
1e4
100
AcDbEntity
  8
Ebene_1
 62
7
100
AcDbSpline
 70
8
 71
3
 72
8
 73
4
 74
0
 40
0
 40
0
 40
0
 40
0
 40
1
 40
1
 40
1
 40
1
 10
133.402500
 20
91.036000
 30
0.0
 10
133.402500
 20
88.037000
 30
0.0
 10
132.051600
 20
85.902580
 30
0.0
 10
129.944200
 20
85.902580
 30
0.0
  0
LWPOLYLINE
  5
1e5
100
AcDbEntity
  8
Ebene_1
 62
7
100
AcDbPolyline
 90
2
 70
0
 10
133.402500
 20
91.090000
 30
0.0
 10
133.402500
 20
91.036000
 30
0.0
  0
SPLINE
  5
1e6
100
AcDbEntity
  8
Ebene_1
 62
7
100
AcDbSpline
 70
8
 71
3
 72
8
 73
4
 74
0
 40
0
 40
0
 40
0
 40
0
 40
1
 40
1
 40
1
 40
1
 10
149.626010
 20
81.255480
 30
0.0
 10
155.029610
 20
81.255480
 30
0.0
 10
158.406860
 20
85.740460
 30
0.0
 10
158.406860
 20
91.090030
 30
0.0
  0
LWPOLYLINE
  5
1e7
100
AcDbEntity
  8
Ebene_1
 62
7
100
AcDbPolyline
 90
1
 70
1
 10
129.944200
 20
85.902580
 30
0.0
  0
SPLINE
  5
1e8
100
AcDbEntity
  8
Ebene_1
 62
7
100
AcDbSpline
 70
8
 71
3
 72
8
 73
4
 74
0
 40
0
 40
0
 40
0
 40
0
 40
1
 40
1
 40
1
 40
1
 10
158.406860
 20
91.144030
 30
0.0
 10
158.406860
 20
96.493600
 30
0.0
 10
155.056620
 20
100.924550
 30
0.0
 10
149.680040
 20
100.924550
 30
0.0
  0
SPLINE
  5
1e9
100
AcDbEntity
  8
Ebene_1
 62
7
100
AcDbSpline
 70
8
 71
3
 72
8
 73
4
 74
0
 40
0
 40
0
 40
0
 40
0
 40
1
 40
1
 40
1
 40
1
 10
149.680040
 20
100.924550
 30
0.0
 10
144.303460
 20
100.924550
 30
0.0
 10
140.899190
 20
96.439560
 30
0.0
 10
140.899190
 20
91.090000
 30
0.0
  0
LWPOLYLINE
  5
1ea
100
AcDbEntity
  8
Ebene_1
 62
7
100
AcDbPolyline
 90
2
 70
0
 10
158.406860
 20
91.090030
 30
0.0
 10
158.406860
 20
91.144030
 30
0.0
  0
SPLINE
  5
1eb
100
AcDbEntity
  8
Ebene_1
 62
7
100
AcDbSpline
 70
8
 71
3
 72
8
 73
4
 74
0
 40
0
 40
0
 40
0
 40
0
 40
1
 40
1
 40
1
 40
1
 10
140.899190
 20
91.036000
 30
0.0
 10
140.899190
 20
85.686440
 30
0.0
 10
144.222410
 20
81.255490
 30
0.0
 10
149.626010
 20
81.255490
 30
0.0
  0
LWPOLYLINE
  5
1ec
100
AcDbEntity
  8
Ebene_1
 62
7
100
AcDbPolyline
 90
2
 70
0
 10
140.899190
 20
91.090000
 30
0.0
 10
140.899190
 20
91.036000
 30
0.0
  0
SPLINE
  5
1ed
100
AcDbEntity
  8
Ebene_1
 62
7
100
AcDbSpline
 70
8
 71
3
 72
8
 73
4
 74
0
 40
0
 40
0
 40
0
 40
0
 40
1
 40
1
 40
1
 40
1
 10
149.680010
 20
85.902570
 30
0.0
 10
147.572610
 20
85.902570
 30
0.0
 10
146.167670
 20
88.064010
 30
0.0
 10
146.167670
 20
91.090030
 30
0.0
  0
LWPOLYLINE
  5
1ee
100
AcDbEntity
  8
Ebene_1
 62
7
100
AcDbPolyline
 90
1
 70
1
 10
149.626010
 20
81.255490
 30
0.0
  0
SPLINE
  5
1ef
100
AcDbEntity
  8
Ebene_1
 62
7
100
AcDbSpline
 70
8
 71
3
 72
8
 73
4
 74
0
 40
0
 40
0
 40
0
 40
0
 40
1
 40
1
 40
1
 40
1
 10
146.167670
 20
91.144030
 30
0.0
 10
146.167670
 20
94.170050
 30
0.0
 10
147.545590
 20
96.277450
 30
0.0
 10
149.625980
 20
96.277450
 30
0.0
  0
SPLINE
  5
1f0
100
AcDbEntity
  8
Ebene_1
 62
7
100
AcDbSpline
 70
8
 71
3
 72
8
 73
4
 74
0
 40
0
 40
0
 40
0
 40
0
 40
1
 40
1
 40
1
 40
1
 10
149.625980
 20
96.277450
 30
0.0
 10
151.706360
 20
96.277450
 30
0.0
 10
153.138320
 20
94.089000
 30
0.0
 10
153.138320
 20
91.090000
 30
0.0
  0
LWPOLYLINE
  5
1f1
100
AcDbEntity
  8
Ebene_1
 62
7
100
AcDbPolyline
 90
2
 70
0
 10
146.167670
 20
91.090030
 30
0.0
 10
146.167670
 20
91.144030
 30
0.0
  0
SPLINE
  5
1f2
100
AcDbEntity
  8
Ebene_1
 62
7
100
AcDbSpline
 70
8
 71
3
 72
8
 73
4
 74
0
 40
0
 40
0
 40
0
 40
0
 40
1
 40
1
 40
1
 40
1
 10
153.138320
 20
91.036000
 30
0.0
 10
153.138320
 20
88.037000
 30
0.0
 10
151.787420
 20
85.902580
 30
0.0
 10
149.680010
 20
85.902580
 30
0.0
  0
LWPOLYLINE
  5
1f3
100
AcDbEntity
  8
Ebene_1
 62
7
100
AcDbPolyline
 90
2
 70
0
 10
153.138320
 20
91.090000
 30
0.0
 10
153.138320
 20
91.036000
 30
0.0
  0
SPLINE
  5
1f4
100
AcDbEntity
  8
Ebene_1
 62
7
100
AcDbSpline
 70
8
 71
3
 72
8
 73
4
 74
0
 40
0
 40
0
 40
0
 40
0
 40
1
 40
1
 40
1
 40
1
 10
167.537250
 20
81.255480
 30
0.0
 10
171.752060
 20
81.255480
 30
0.0
 10
174.832110
 20
83.714110
 30
0.0
 10
174.832110
 20
87.550670
 30
0.0
  0
LWPOLYLINE
  5
1f5
100
AcDbEntity
  8
Ebene_1
 62
7
100
AcDbPolyline
 90
1
 70
1
 10
149.680010
 20
85.902580
 30
0.0
  0
SPLINE
  5
1f6
100
AcDbEntity
  8
Ebene_1
 62
7
100
AcDbSpline
 70
8
 71
3
 72
8
 73
4
 74
0
 40
0
 40
0
 40
0
 40
0
 40
1
 40
1
 40
1
 40
1
 10
174.832110
 20
87.604670
 30
0.0
 10
174.832110
 20
90.819810
 30
0.0
 10
172.643650
 20
92.332820
 30
0.0
 10
169.941850
 20
92.927210
 30
0.0
  0
LWPOLYLINE
  5
1f7
100
AcDbEntity
  8
Ebene_1
 62
7
100
AcDbPolyline
 90
2
 70
0
 10
174.832110
 20
87.550670
 30
0.0
 10
174.832110
 20
87.604670
 30
0.0
  0
SPLINE
  5
1f8
100
AcDbEntity
  8
Ebene_1
 62
7
100
AcDbSpline
 70
8
 71
3
 72
8
 73
4
 74
0
 40
0
 40
0
 40
0
 40
0
 40
1
 40
1
 40
1
 40
1
 10
166.645660
 20
89.658030
 30
0.0
 10
168.617970
 20
89.658030
 30
0.0
 10
169.725710
 20
88.928550
 30
0.0
 10
169.725710
 20
87.712740
 30
0.0
  0
LWPOLYLINE
  5
1f9
100
AcDbEntity
  8
Ebene_1
 62
7
100
AcDbPolyline
 90
9
 70
0
 10
169.941850
 20
92.927210
 30
0.0
 10
174.453860
 20
96.790790
 30
0.0
 10
174.453860
 20
100.546290
 30
0.0
 10
160.782750
 20
100.546290
 30
0.0
 10
160.782750
 20
96.304460
 30
0.0
 10
168.023570
 20
96.304460
 30
0.0
 10
163.673680
 20
92.386850
 30
0.0
 10
164.430180
 20
89.658030
 30
0.0
 10
166.645660
 20
89.658030
 30
0.0
  0
SPLINE
  5
1fa
100
AcDbEntity
  8
Ebene_1
 62
7
100
AcDbSpline
 70
8
 71
3
 72
8
 73
4
 74
0
 40
0
 40
0
 40
0
 40
0
 40
1
 40
1
 40
1
 40
1
 10
169.725710
 20
87.658740
 30
0.0
 10
169.725710
 20
86.496970
 30
0.0
 10
168.780080
 20
85.740460
 30
0.0
 10
167.294090
 20
85.740460
 30
0.0
  0
SPLINE
  5
1fb
100
AcDbEntity
  8
Ebene_1
 62
7
100
AcDbSpline
 70
8
 71
3
 72
8
 73
4
 74
0
 40
0
 40
0
 40
0
 40
0
 40
1
 40
1
 40
1
 40
1
 10
167.294090
 20
85.740460
 30
0.0
 10
165.564940
 20
85.740460
 30
0.0
 10
164.132980
 20
86.523990
 30
0.0
 10
162.782080
 20
87.901900
 30
0.0
  0
LWPOLYLINE
  5
1fc
100
AcDbEntity
  8
Ebene_1
 62
7
100
AcDbPolyline
 90
2
 70
0
 10
169.725710
 20
87.712740
 30
0.0
 10
169.725710
 20
87.658740
 30
0.0
  0
SPLINE
  5
1fd
100
AcDbEntity
  8
Ebene_1
 62
7
100
AcDbSpline
 70
8
 71
3
 72
8
 73
4
 74
0
 40
0
 40
0
 40
0
 40
0
 40
1
 40
1
 40
1
 40
1
 10
159.485890
 20
84.605710
 30
0.0
 10
161.323110
 20
82.579360
 30
0.0
 10
163.889820
 20
81.255480
 30
0.0
 10
167.537250
 20
81.255480
 30
0.0
  0
LWPOLYLINE
  5
1fe
100
AcDbEntity
  8
Ebene_1
 62
7
100
AcDbPolyline
 90
2
 70
0
 10
162.782080
 20
87.901900
 30
0.0
 10
159.485890
 20
84.605710
 30
0.0
  0
LWPOLYLINE
  5
1ff
100
AcDbEntity
  8
Ebene_1
 62
7
100
AcDbPolyline
 90
1
 70
1
 10
167.537250
 20
81.255480
 30
0.0
  0
LWPOLYLINE
  5
200
100
AcDbEntity
  8
Ebene_1
 62
7
100
AcDbPolyline
 90
12
 70
1
 10
177.455390
 20
81.633730
 30
0.0
 10
192.801620
 20
81.633730
 30
0.0
 10
192.801620
 20
86.091700
 30
0.0
 10
182.642850
 20
86.091700
 30
0.0
 10
182.642850
 20
89.090700
 30
0.0
 10
191.720900
 20
89.090700
 30
0.0
 10
191.720900
 20
93.224450
 30
0.0
 10
182.642850
 20
93.224450
 30
0.0
 10
182.642850
 20
96.088360
 30
0.0
 10
192.666530
 20
96.088360
 30
0.0
 10
192.666530
 20
100.546330
 30
0.0
 10
177.455390
 20
100.546330
 30
0.0
  0
ENDSEC
  0
SECTION
  2
OBJECTS
  0
DICTIONARY
  5
C
330
0
100
AcDbDictionary
  3
ACAD_GROUP
350
D
  3
ACAD_MLINESTYLE
350
17
  0
DICTIONARY
  5
D
330
C
100
AcDbDictionary
  0
DICTIONARY
  5
1A
330
C
100
AcDbDictionary
  0
DICTIONARY
  5
17
330
C
100
AcDbDictionary
  3
STANDARD
350
18
  0
DICTIONARY
  5
19
330
C
100
AcDbDictionary
  0
ENDSEC
  0
EOF
