<?xml version="1.0" encoding="UTF-8" standalone="no"?>
<!-- Created with Inkscape (http://www.inkscape.org/) -->

<svg
   width="250mm"
   height="250mm"
   viewBox="0 0 250 250"
   version="1.1"
   id="svg1"
   inkscape:version="1.4.2 (f4327f4, 2025-05-13)"
   sodipodi:docname="Neon Stern.svg"
   inkscape:export-filename="Neon Stern_text.svg"
   inkscape:export-xdpi="96"
   inkscape:export-ydpi="96"
   xmlns:inkscape="http://www.inkscape.org/namespaces/inkscape"
   xmlns:sodipodi="http://sodipodi.sourceforge.net/DTD/sodipodi-0.dtd"
   xmlns="http://www.w3.org/2000/svg"
   xmlns:svg="http://www.w3.org/2000/svg">
  <sodipodi:namedview
     id="namedview1"
     pagecolor="#ffffff"
     bordercolor="#666666"
     borderopacity="1.0"
     inkscape:showpageshadow="2"
     inkscape:pageopacity="0.0"
     inkscape:pagecheckerboard="0"
     inkscape:deskcolor="#d1d1d1"
     inkscape:document-units="mm"
     showgrid="true"
     inkscape:zoom="2.8346768"
     inkscape:cx="622.82233"
     inkscape:cy="545.91762"
     inkscape:window-width="3440"
     inkscape:window-height="1369"
     inkscape:window-x="2552"
     inkscape:window-y="-8"
     inkscape:window-maximized="1"
     inkscape:current-layer="layer1">
    <inkscape:grid
       id="grid1"
       units="mm"
       originx="0"
       originy="0"
       spacingx="0.99999999"
       spacingy="0.99999999"
       empcolor="#0099e5"
       empopacity="0.30196078"
       color="#0099e5"
       opacity="0.14901961"
       empspacing="10"
       enabled="true"
       visible="true" />
    <inkscape:page
       x="0"
       y="0"
       width="250"
       height="250"
       id="page2"
       margin="0"
       bleed="0" />
  </sodipodi:namedview>
  <defs
     id="defs1" />
  <g
     inkscape:label="Ebene 1"
     inkscape:groupmode="layer"
     id="layer1">
    <path
       id="text34"
       style="font-weight:100;font-size:51.2px;line-height:1.25;font-family:'Victorian LET';-inkscape-font-specification:'Victorian LET Thin';stroke-width:0.264581"
       sodipodi:type="inkscape:offset"
       inkscape:radius="-0.41624895"
       inkscape:original="M 79.927734 101.57422 C 77.894401 101.57422 75.927344 101.91628 74.027344 102.59961 C 72.177344 103.29961 70.503906 104.29089 69.003906 105.57422 C 67.853906 106.59089 67.277344 107.52305 67.277344 108.37305 C 67.277344 108.75639 67.476953 108.99961 67.876953 109.09961 L 68.402344 109.24805 C 69.06901 109.41472 69.551563 109.81588 69.851562 110.44922 C 70.134896 111.09922 70.277344 112.05755 70.277344 113.32422 L 70.277344 127.92383 C 70.277344 129.40716 70.228907 130.47305 70.128906 131.12305 C 69.995572 131.80638 69.752344 132.29961 69.402344 132.59961 C 69.002344 132.94961 68.377344 133.31589 67.527344 133.69922 C 67.077344 133.89922 66.853516 134.21511 66.853516 134.64844 C 66.853516 135.31511 67.386458 135.64844 68.453125 135.64844 L 79.103516 135.64844 C 79.803516 135.64844 80.286068 135.57384 80.552734 135.42383 C 80.819401 135.30716 80.953125 135.03972 80.953125 134.62305 C 80.953125 134.15638 80.694401 133.84922 80.177734 133.69922 L 79.652344 133.52344 C 78.902344 133.27344 78.336458 132.97499 77.953125 132.625 C 77.603125 132.29167 77.361849 131.75677 77.228516 131.02344 C 77.095182 130.25677 77.027344 129.22383 77.027344 127.92383 L 77.027344 120.34961 C 78.394011 120.43291 79.503516 120.74883 80.353516 121.29883 C 81.236849 121.8655 82.136067 122.88972 83.052734 124.37305 C 83.319401 124.78972 83.602344 125 83.902344 125 C 84.185678 125 84.435678 124.90794 84.652344 124.72461 C 84.835678 124.54128 84.927734 124.3155 84.927734 124.04883 C 84.927734 123.74884 84.868619 123.49009 84.751953 123.27344 L 83.927734 121.32422 C 83.394401 120.09088 83.010677 118.86511 82.777344 117.64844 C 82.527344 116.38176 82.39362 114.91472 82.376953 113.24805 C 82.360283 112.54805 82.044401 112.19922 81.427734 112.19922 C 80.927734 112.19922 80.611849 112.49089 80.478516 113.07422 L 80.277344 114.02344 C 80.04401 115.14011 79.677734 115.94922 79.177734 116.44922 C 78.644401 116.98256 77.927344 117.29844 77.027344 117.39844 L 77.027344 113.625 L 77.027344 113.27344 C 77.027344 107.74011 78.902344 104.97461 82.652344 104.97461 C 83.835677 104.97461 84.811458 105.25755 85.578125 105.82422 C 86.344791 106.39088 86.726562 107.11665 86.726562 108 C 86.726562 108.51666 86.586067 108.94009 86.302734 109.27344 C 86.002734 109.60677 85.645183 109.77344 85.228516 109.77344 C 84.96185 109.77344 84.71862 109.74043 84.501953 109.67383 C 84.351953 109.62383 84.226953 109.59961 84.126953 109.59961 C 83.69362 109.59961 83.478516 109.85637 83.478516 110.37305 C 83.478516 111.27305 83.93685 112.05795 84.853516 112.72461 C 85.770183 113.40795 86.809896 113.74805 87.976562 113.74805 C 89.809895 113.74805 91.377734 113.09883 92.677734 111.79883 C 93.977734 110.49883 94.626953 108.92422 94.626953 107.07422 C 94.626953 106.52422 94.561072 105.96511 94.427734 105.39844 C 94.277734 104.84844 94.095573 104.425 93.878906 104.125 C 93.66224 103.825 93.410287 103.67383 93.126953 103.67383 C 92.960287 103.67383 92.694792 103.80754 92.328125 104.07422 C 91.944792 104.34088 91.469011 104.47461 90.902344 104.47461 C 90.602344 104.47461 90.361067 104.44844 90.177734 104.39844 C 89.9944 104.38174 89.685287 104.28294 89.251953 104.09961 C 88.81862 103.94961 88.252734 103.71511 87.552734 103.39844 C 86.052734 102.71511 84.73685 102.23255 83.603516 101.94922 C 82.503516 101.69922 81.277734 101.57422 79.927734 101.57422 z M 133.87695 101.74805 C 133.69362 101.74805 133.41067 101.89051 133.02734 102.17383 C 132.294 102.75718 131.51979 103.22421 130.70312 103.57422 C 129.93646 103.89088 128.89479 104.19127 127.57812 104.47461 C 127.04479 104.57461 126.77734 104.85755 126.77734 105.32422 C 126.77734 105.62422 126.944 105.84805 127.27734 105.99805 C 127.72734 106.21472 128.0694 106.44049 128.30273 106.67383 C 128.5194 106.87383 128.65989 107.16549 128.72656 107.54883 C 128.79326 107.88216 128.82813 108.44805 128.82812 109.24805 L 128.82812 129.44922 L 128.82812 130.17383 C 128.82812 131.32383 128.75351 132.14167 128.60352 132.625 C 128.42019 133.125 128.0849 133.54167 127.60156 133.875 L 127.25195 134.12305 C 126.96861 134.30638 126.82812 134.5496 126.82812 134.84961 C 126.82812 135.13295 126.92692 135.34127 127.12695 135.47461 C 127.29361 135.59127 127.65313 135.64844 128.20312 135.64844 L 135.47656 135.64844 C 136.32656 135.64844 136.75195 135.38295 136.75195 134.84961 C 136.75195 134.56628 136.48646 134.24844 135.95312 133.89844 C 135.6198 133.68177 135.36107 133.43178 135.17773 133.14844 C 134.9944 132.86511 134.8694 132.53177 134.80273 132.14844 C 134.73603 131.8151 134.70312 131.28217 134.70312 130.54883 L 134.70312 129.99805 L 134.70312 121.94922 C 134.70312 120.53256 134.97734 119.4405 135.52734 118.67383 C 136.07734 117.89049 136.86028 117.49805 137.87695 117.49805 C 138.79361 117.49805 139.46901 117.81588 139.90234 118.44922 C 140.33567 119.11588 140.55273 120.13333 140.55273 121.5 L 140.55273 129.67383 C 140.55273 131.10716 140.47812 132.07422 140.32812 132.57422 C 140.17812 133.09088 139.84478 133.52499 139.32812 133.875 L 138.97852 134.12305 C 138.71185 134.28972 138.57812 134.53294 138.57812 134.84961 C 138.57812 135.13295 138.67019 135.34127 138.85352 135.47461 C 139.02019 135.59127 139.35352 135.64844 139.85352 135.64844 L 147.15234 135.64844 C 147.98568 135.64844 148.40234 135.38295 148.40234 134.84961 C 148.40234 134.56628 148.13686 134.24844 147.60352 133.89844 C 147.28686 133.66511 147.0349 133.41511 146.85156 133.14844 C 146.6849 132.89844 146.56185 132.55639 146.47852 132.12305 C 146.39522 131.65639 146.35352 131.075 146.35352 130.375 L 146.35352 129.82422 L 146.35352 120.42383 L 146.35352 119.84961 C 146.35352 118.08294 146.07734 116.72344 145.52734 115.77344 C 145.07734 114.9401 144.36901 114.26471 143.40234 113.74805 C 142.43568 113.23138 141.37852 112.97461 140.22852 112.97461 C 138.22852 112.97461 136.38646 113.89128 134.70312 115.72461 L 134.70312 102.84961 C 134.70312 102.11627 134.42695 101.74805 133.87695 101.74805 z M 116.45312 112.92383 C 115.20312 112.92383 114.15273 113.35794 113.30273 114.22461 C 112.45273 115.09128 112.02734 116.13294 112.02734 117.34961 C 112.02734 118.14962 112.21146 118.88216 112.57812 119.54883 C 112.97813 120.2655 113.4694 120.82461 114.05273 121.22461 C 114.68607 121.67461 115.31106 121.89844 115.92773 121.89844 C 116.42773 121.89844 116.67773 121.70755 116.67773 121.32422 L 116.67773 121.22461 C 116.66103 121.20791 116.65234 121.19053 116.65234 121.17383 L 116.55273 120.82422 C 116.51943 120.65755 116.50391 120.54128 116.50391 120.47461 C 116.50391 120.12461 116.65313 119.8155 116.95312 119.54883 C 117.2198 119.28216 117.56185 119.14844 117.97852 119.14844 C 118.59519 119.14844 119.17852 119.39844 119.72852 119.89844 C 120.29519 120.43177 120.73606 121.10716 121.05273 121.92383 C 121.38606 122.77383 121.55273 123.61589 121.55273 124.44922 C 121.55273 125.96589 121.12734 127.24011 120.27734 128.27344 C 119.42734 129.30677 118.36146 129.82422 117.07812 129.82422 C 115.97813 129.82422 114.919 129.40755 113.90234 128.57422 C 112.90234 127.74089 112.11067 126.63138 111.52734 125.24805 C 110.92734 123.86472 110.62695 122.36471 110.62695 120.74805 C 110.62695 119.73138 110.78685 118.64128 111.10352 117.47461 C 111.30352 116.74128 111.40234 116.29844 111.40234 116.14844 C 111.40234 115.76511 111.22019 115.57422 110.85352 115.57422 C 110.68686 115.57422 110.51146 115.66629 110.32812 115.84961 C 110.12812 116.04961 109.83646 116.47305 109.45312 117.12305 C 107.91979 119.73971 107.15234 122.45678 107.15234 125.27344 C 107.15234 127.39011 107.53606 129.24961 108.30273 130.84961 C 109.05273 132.48294 110.11185 133.75716 111.47852 134.67383 C 112.81185 135.59049 114.34479 136.04883 116.07812 136.04883 C 117.74478 136.04883 119.26028 135.55756 120.62695 134.57422 C 121.97695 133.60756 123.02734 132.24127 123.77734 130.47461 C 124.52734 128.72461 124.90234 126.75755 124.90234 124.57422 C 124.90234 122.42422 124.53606 120.44844 123.80273 118.64844 C 123.05273 116.88178 122.03529 115.48256 120.75195 114.44922 C 119.48529 113.43256 118.05313 112.92383 116.45312 112.92383 z M 177.97852 112.92383 C 175.89519 112.92383 174.18686 113.58177 172.85352 114.89844 C 171.48686 116.2151 170.80273 117.86628 170.80273 119.84961 C 170.80273 120.73294 170.96068 121.52461 171.27734 122.22461 C 171.61068 122.99128 172.07773 123.6405 172.67773 124.17383 C 173.16106 124.5405 173.78606 124.91549 174.55273 125.29883 C 175.2194 125.61549 176.41028 126.09805 178.12695 126.74805 C 179.22695 127.11471 180.01862 127.5401 180.50195 128.02344 C 180.96862 128.4901 181.20313 129.09961 181.20312 129.84961 C 181.20312 130.71627 180.86979 131.43138 180.20312 131.99805 C 179.53645 132.56471 178.6944 132.84961 177.67773 132.84961 C 176.7944 132.84961 176.03567 132.63256 175.40234 132.19922 C 174.75234 131.76588 174.42773 131.24167 174.42773 130.625 C 174.42773 130.29167 174.55273 129.99805 174.80273 129.74805 C 175.05273 129.49805 175.34439 129.375 175.67773 129.375 C 175.96106 129.375 176.25273 129.43216 176.55273 129.54883 C 176.73606 129.59883 176.8698 129.62305 176.95312 129.62305 C 177.28645 129.62305 177.45312 129.40795 177.45312 128.97461 C 177.45312 128.49127 177.26901 128.0155 176.90234 127.54883 C 176.53568 127.1155 176.05313 126.7405 175.45312 126.42383 C 174.83647 126.1405 174.22695 126 173.62695 126 C 172.46029 126 171.50195 126.38178 170.75195 127.14844 C 170.00195 127.91511 169.62695 128.89962 169.62695 130.09961 C 169.62695 131.24961 169.98645 132.26511 170.70312 133.14844 C 171.40312 134.04844 172.38568 134.75677 173.65234 135.27344 C 174.88568 135.79011 176.29362 136.04883 177.87695 136.04883 C 179.64362 136.04883 181.19401 135.74165 182.52734 135.125 C 183.87734 134.525 184.93646 133.66549 185.70312 132.54883 C 186.4698 131.43216 186.85352 130.1647 186.85352 128.74805 C 186.85352 127.86471 186.69362 127.04883 186.37695 126.29883 C 186.04362 125.48216 185.60273 124.83972 185.05273 124.37305 C 184.53607 123.90638 183.89361 123.49844 183.12695 123.14844 C 182.39361 122.8151 181.21146 122.38972 179.57812 121.87305 C 178.26146 121.43972 177.41939 121.07344 177.05273 120.77344 C 176.63606 120.47344 176.42773 120.04805 176.42773 119.49805 C 176.42773 118.94805 176.60312 118.49844 176.95312 118.14844 C 177.28645 117.8151 177.73606 117.64844 178.30273 117.64844 C 179.58606 117.64844 180.61028 118.47305 181.37695 120.12305 C 181.59361 120.60638 181.77773 120.92422 181.92773 121.07422 C 182.07773 121.25756 182.26862 121.34961 182.50195 121.34961 C 182.88529 121.34961 183.14401 121.08216 183.27734 120.54883 L 183.47852 119.32422 C 183.54522 118.87422 183.76028 118.32383 184.12695 117.67383 C 184.49361 117.05716 184.90352 116.50677 185.35352 116.02344 C 185.70352 115.64011 185.87695 115.30678 185.87695 115.02344 C 185.87695 114.79011 185.81102 114.58177 185.67773 114.39844 C 185.52773 114.24844 185.34361 114.17383 185.12695 114.17383 C 185.02695 114.17383 184.90195 114.19805 184.75195 114.24805 C 184.33529 114.34805 183.98646 114.39844 183.70312 114.39844 C 183.23646 114.39844 182.56106 114.19883 181.67773 113.79883 C 180.42773 113.2155 179.19519 112.92383 177.97852 112.92383 z M 102.20312 112.99805 C 101.31979 112.99805 100.49518 113.33139 99.728516 113.99805 C 98.945185 114.68139 98.302734 115.62422 97.802734 116.82422 L 97.802734 114.19922 C 97.802734 113.91589 97.728127 113.6901 97.578125 113.52344 C 97.428125 113.35677 97.235286 113.27344 97.001953 113.27344 C 96.76862 113.27344 96.44401 113.43138 96.027344 113.74805 C 94.410677 114.91471 92.860287 115.5901 91.376953 115.77344 C 90.826953 115.84014 90.451953 115.94088 90.251953 116.07422 C 90.035287 116.19088 89.927734 116.41472 89.927734 116.74805 C 89.927734 117.03139 90.153516 117.2901 90.603516 117.52344 C 91.120183 117.75678 91.46224 118.05715 91.628906 118.42383 C 91.81224 118.82383 91.902344 119.39844 91.902344 120.14844 L 91.902344 130.54883 C 91.902344 131.58216 91.819008 132.32344 91.652344 132.77344 C 91.469011 133.27344 91.120183 133.68334 90.603516 134 C 90.120183 134.33333 89.876953 134.63177 89.876953 134.89844 C 89.876953 135.16511 89.96029 135.35794 90.126953 135.47461 C 90.29362 135.59127 90.585287 135.64844 91.001953 135.64844 L 99.078125 135.64844 C 99.494794 135.64844 99.786465 135.59129 99.953125 135.47461 C 100.10312 135.37461 100.17773 135.18178 100.17773 134.89844 C 100.17773 134.66511 100.1273 134.48971 100.02734 134.37305 C 99.910675 134.25638 99.67812 134.12461 99.328125 133.97461 C 98.711458 133.70794 98.301562 133.33295 98.101562 132.84961 C 97.901562 132.39961 97.802734 131.68256 97.802734 130.69922 L 97.802734 130.22461 L 97.802734 122.29883 C 97.802734 121.09883 97.927734 120.21511 98.177734 119.64844 C 98.427734 119.09844 98.820183 118.82422 99.353516 118.82422 C 99.853517 118.82422 100.21106 119.00638 100.42773 119.37305 C 100.64439 119.75638 100.76067 120.43177 100.77734 121.39844 C 100.79404 123.5151 101.35312 124.57422 102.45312 124.57422 C 102.66979 124.57422 102.87812 124.49961 103.07812 124.34961 C 103.27813 124.1996 103.37695 124 103.37695 123.75 C 103.37695 123.7 103.32848 123.48971 103.22852 123.12305 C 103.04518 122.52305 102.95312 122.07344 102.95312 121.77344 C 102.95312 121.20677 103.10234 120.71549 103.40234 120.29883 C 103.70234 119.86549 104.22656 119.41588 104.97656 118.94922 C 105.50989 118.63255 105.90234 118.32344 106.15234 118.02344 C 106.36901 117.75677 106.47852 117.42344 106.47852 117.02344 C 106.47852 116.42345 106.27018 115.80717 105.85352 115.17383 C 105.42018 114.5405 104.88528 114.01627 104.25195 113.59961 C 103.58528 113.19961 102.90313 112.99805 102.20312 112.99805 z M 159.52734 112.99805 C 157.81067 112.99805 156.22734 113.52422 154.77734 114.57422 C 153.34401 115.60756 152.21028 117.04844 151.37695 118.89844 C 150.54361 120.74844 150.12695 122.76588 150.12695 124.94922 C 150.12695 127.06588 150.52813 128.97383 151.32812 130.67383 C 152.11146 132.37382 153.20352 133.68972 154.60352 134.62305 C 156.02019 135.55638 157.60156 136.02344 159.35156 136.02344 C 160.86823 136.02344 162.26939 135.68333 163.55273 135 C 164.80273 134.31666 165.82018 133.34961 166.60352 132.09961 C 167.48685 130.66627 167.92773 129.41628 167.92773 128.34961 C 167.92773 128.06628 167.86191 127.83178 167.72852 127.64844 C 167.59519 127.46511 167.41979 127.37305 167.20312 127.37305 C 167.01979 127.37305 166.80273 127.51551 166.55273 127.79883 C 164.8694 129.83218 163.06901 130.84961 161.15234 130.84961 C 160.21901 130.84961 159.31978 130.5909 158.45312 130.07422 C 157.55312 129.55755 156.84479 128.89088 156.32812 128.07422 C 155.86147 127.30756 155.48646 126.26588 155.20312 124.94922 C 156.43645 126.38255 157.92773 127.09961 159.67773 127.09961 C 161.07773 127.09961 162.41107 126.68296 163.67773 125.84961 C 164.91107 125.01628 165.91106 123.93295 166.67773 122.59961 C 167.42773 121.26628 167.80273 119.84961 167.80273 118.34961 C 167.80273 117.04961 167.61861 116.00794 167.25195 115.22461 C 166.86861 114.44128 166.38606 114.04883 165.80273 114.04883 C 165.53606 114.04883 165.36068 114.05742 165.27734 114.07422 C 164.97734 114.12422 164.71186 114.14844 164.47852 114.14844 C 163.96186 114.14844 163.52773 114.06513 163.17773 113.89844 L 162.02734 113.44922 C 161.27734 113.14922 160.444 112.99805 159.52734 112.99805 z M 159.22852 115.97461 C 160.17852 115.97461 160.96146 116.30795 161.57812 116.97461 C 162.19479 117.64128 162.50195 118.49883 162.50195 119.54883 C 162.50195 120.84883 162.16185 121.94089 161.47852 122.82422 C 160.77852 123.72422 159.92773 124.17383 158.92773 124.17383 C 158.32773 124.17383 157.82773 123.99844 157.42773 123.64844 C 157.02773 123.29844 156.82813 122.86628 156.82812 122.34961 C 156.82812 122.01628 156.9444 121.70717 157.17773 121.42383 C 157.3944 121.15717 157.67734 121.02344 158.02734 121.02344 C 158.26067 121.02344 158.49518 121.10673 158.72852 121.27344 C 159.01185 121.42344 159.18528 121.5 159.25195 121.5 C 159.43528 121.5 159.60195 121.41476 159.75195 121.24805 C 159.88528 121.08138 159.95312 120.89049 159.95312 120.67383 C 159.95312 120.44049 159.83685 120.18177 159.60352 119.89844 C 159.38685 119.66511 159.08646 119.45678 158.70312 119.27344 C 158.33647 119.12344 157.97019 119.04883 157.60352 119.04883 C 156.65352 119.04883 155.83567 119.49844 155.15234 120.39844 C 155.40234 119.0151 155.89361 117.93177 156.62695 117.14844 C 157.36028 116.3651 158.22852 115.97462 159.22852 115.97461 z M 95.75 140.56445 C 93.201423 140.56445 90.734973 140.99312 88.353516 141.84961 C 86.034728 142.72699 83.934784 143.9696 82.054688 145.57812 C 80.613279 146.85242 79.892578 148.0225 79.892578 149.08789 C 79.892578 149.56835 80.145125 149.87075 80.646484 149.99609 L 81.302734 150.18555 C 82.138333 150.39445 82.745075 150.89563 83.121094 151.68945 C 83.476224 152.50416 83.654297 153.70338 83.654297 155.29102 L 83.654297 173.5918 C 83.654297 175.451 83.590186 176.78881 83.464844 177.60352 C 83.297724 178.46001 82.995331 179.07515 82.556641 179.45117 C 82.055282 179.88985 81.27242 180.34961 80.207031 180.83008 C 79.643002 181.08075 79.361328 181.47835 79.361328 182.02148 C 79.361328 182.85707 80.028276 183.27344 81.365234 183.27344 L 94.714844 183.27344 C 95.592223 183.27344 96.19701 183.18024 96.53125 182.99219 C 96.86549 182.84594 97.033203 182.51249 97.033203 181.99023 C 97.033203 181.40531 96.710089 181.01808 96.0625 180.83008 L 95.404297 180.61133 C 94.464248 180.29797 93.753906 179.9211 93.273438 179.48242 C 92.834749 179.06462 92.532354 178.39571 92.365234 177.47656 C 92.198115 176.51562 92.113281 175.22122 92.113281 173.5918 L 92.113281 164.09766 C 93.826259 164.2021 95.215861 164.59968 96.28125 165.28906 C 97.388419 165.99931 98.517068 167.28336 99.666016 169.14258 C 100.00026 169.66482 100.35445 169.92578 100.73047 169.92578 C 101.08561 169.92578 101.40031 169.80987 101.67188 169.58008 C 101.90166 169.35028 102.01563 169.06863 102.01562 168.73438 C 102.01562 168.35835 101.9431 168.03524 101.79688 167.76367 L 100.76172 165.31836 C 100.09324 163.7725 99.612775 162.23786 99.320312 160.71289 C 99.006959 159.12526 98.8412 157.28822 98.820312 155.19922 C 98.799423 154.32184 98.401836 153.88281 97.628906 153.88281 C 97.002207 153.88281 96.606573 154.24737 96.439453 154.97852 L 96.1875 156.16992 C 95.89504 157.56955 95.435293 158.58228 94.808594 159.20898 C 94.140115 159.87746 93.241339 160.27505 92.113281 160.40039 L 92.113281 155.66797 L 92.113281 155.22852 C 92.113281 148.29305 94.463818 144.82617 99.164062 144.82617 C 100.64725 144.82617 101.86915 145.18036 102.83008 145.89062 C 103.79102 146.60089 104.27148 147.51002 104.27148 148.61719 C 104.27148 149.26478 104.09536 149.79704 103.74023 150.21484 C 103.36421 150.63264 102.91483 150.8418 102.39258 150.8418 C 102.05834 150.8418 101.75399 150.80038 101.48242 150.7168 C 101.29441 150.6541 101.13902 150.62305 101.01367 150.62305 C 100.47053 150.62305 100.19922 150.94616 100.19922 151.59375 C 100.19922 152.7218 100.77291 153.70346 101.92188 154.53906 C 103.07082 155.39555 104.37754 155.82422 105.83984 155.82422 C 108.13774 155.82422 110.10106 155.01028 111.73047 153.38086 C 113.35989 151.75144 114.17383 149.77777 114.17383 147.45898 C 114.17383 146.76961 114.09096 146.06963 113.92383 145.35938 C 113.73582 144.67001 113.50596 144.13773 113.23438 143.76172 C 112.96282 143.3857 112.6481 143.19727 112.29297 143.19727 C 112.08407 143.19727 111.7506 143.36498 111.29102 143.69922 C 110.81055 144.03346 110.21612 144.19922 109.50586 144.19922 C 109.12984 144.19922 108.82549 144.16817 108.5957 144.10547 C 108.36591 144.08457 107.98064 143.95831 107.4375 143.72852 C 106.89436 143.54051 106.18401 143.24847 105.30664 142.85156 C 103.42654 141.99507 101.776 141.39029 100.35547 141.03516 C 98.976735 140.7218 97.442088 140.56445 95.75 140.56445 z M 163.77734 145.67188 C 163.27598 145.67188 162.90948 145.79815 162.67969 146.04883 C 162.47079 146.27861 162.27395 146.86268 162.08594 147.80273 C 161.5428 150.33042 160.74762 152.2005 159.70312 153.41211 C 158.63773 154.66551 156.97682 155.66788 154.7207 156.41992 L 154.18945 156.57617 L 154.18945 159.36523 L 157.85547 159.36523 L 157.85547 176.94531 C 157.85547 178.61651 158.06462 179.8902 158.48242 180.76758 C 159.44336 182.7939 161.18716 183.80664 163.71484 183.80664 C 165.82473 183.80664 167.60997 183.18113 169.07227 181.92773 C 169.67808 181.40548 170.17926 180.82983 170.57617 180.20312 C 170.95219 179.53465 171.14062 178.98166 171.14062 178.54297 C 171.14062 178.2923 171.06809 178.08313 170.92188 177.91602 C 170.75475 177.7489 170.55596 177.66602 170.32617 177.66602 C 170.17994 177.66602 169.83416 177.85445 169.29102 178.23047 C 168.7061 178.64827 168.16347 178.85547 167.66211 178.85547 C 167.22343 178.85547 166.79475 178.71043 166.37695 178.41797 C 165.98004 178.14641 165.68801 177.7799 165.5 177.32031 C 165.27021 176.69361 165.15625 175.69125 165.15625 174.3125 L 165.15625 159.36523 L 169.66797 159.36523 L 169.66797 155.66797 L 165.15625 155.66797 L 165.15625 147.58398 C 165.15625 146.87372 165.0507 146.3829 164.8418 146.11133 C 164.61201 145.81887 164.25781 145.67188 163.77734 145.67188 z M 142.21875 154.79102 C 139.6075 154.79102 137.46612 155.61533 135.79492 157.26562 C 134.08195 158.91593 133.22461 160.98478 133.22461 163.4707 C 133.22461 164.57786 133.4234 165.56988 133.82031 166.44727 C 134.23811 167.40821 134.82413 168.22215 135.57617 168.89062 C 136.18198 169.3502 136.96484 169.82225 137.92578 170.30273 C 138.76138 170.69962 140.25458 171.30441 142.40625 172.11914 C 143.78499 172.57872 144.777 173.11099 145.38281 173.7168 C 145.96773 174.30172 146.26172 175.06386 146.26172 176.00391 C 146.26172 177.09019 145.84341 177.98896 145.00781 178.69922 C 144.17221 179.40948 143.11609 179.76562 141.8418 179.76562 C 140.73464 179.76562 139.78405 179.49236 138.99023 178.94922 C 138.17552 178.40608 137.76953 177.74948 137.76953 176.97656 C 137.76953 176.55876 137.92494 176.19227 138.23828 175.87891 C 138.55163 175.56557 138.91814 175.4082 139.33594 175.4082 C 139.69107 175.4082 140.05757 175.48269 140.43359 175.62891 C 140.66338 175.69161 140.82914 175.72266 140.93359 175.72266 C 141.35139 175.72266 141.56055 175.45134 141.56055 174.9082 C 141.56055 174.30238 141.33067 173.706 140.87109 173.12109 C 140.41151 172.57795 139.80673 172.10785 139.05469 171.71094 C 138.28177 171.35581 137.51767 171.17969 136.76562 171.17969 C 135.30333 171.17969 134.10216 171.66015 133.16211 172.62109 C 132.22206 173.58201 131.75195 174.81427 131.75195 176.31836 C 131.75195 177.75975 132.20134 179.03345 133.09961 180.14062 C 133.97698 181.26869 135.20924 182.1571 136.79688 182.80469 C 138.34274 183.45228 140.10921 183.77539 142.09375 183.77539 C 144.30809 183.77539 146.25068 183.39012 147.92188 182.61719 C 149.61397 181.86515 150.93946 180.7883 151.90039 179.38867 C 152.86133 177.98904 153.3418 176.40066 153.3418 174.625 C 153.3418 173.51784 153.14496 172.49474 152.74805 171.55469 C 152.33025 170.53108 151.77532 169.72749 151.08594 169.14258 C 150.43836 168.55766 149.63477 168.04611 148.67383 167.60742 C 147.75467 167.18962 146.27182 166.65539 144.22461 166.00781 C 142.5743 165.46467 141.51817 165.00492 141.05859 164.62891 C 140.53633 164.25289 140.27539 163.72062 140.27539 163.03125 C 140.27539 162.34188 140.4949 161.77853 140.93359 161.33984 C 141.35139 160.92204 141.91474 160.71289 142.625 160.71289 C 144.23353 160.71289 145.51953 161.74634 146.48047 163.81445 C 146.75204 164.42026 146.98191 164.81786 147.16992 165.00586 C 147.35793 165.23565 147.59816 165.35156 147.89062 165.35156 C 148.37108 165.35156 148.69421 165.01614 148.86133 164.34766 L 149.11133 162.8125 C 149.19493 162.24847 149.46815 161.55885 149.92773 160.74414 C 150.38731 159.97121 150.89886 159.28159 151.46289 158.67578 C 151.90158 158.19531 152.12109 157.77896 152.12109 157.42383 C 152.12109 157.13136 152.03627 156.86847 151.86914 156.63867 C 151.68112 156.45067 151.45126 156.35742 151.17969 156.35742 C 151.05435 156.35742 150.89895 156.38847 150.71094 156.45117 C 150.18869 156.57651 149.74965 156.63867 149.39453 156.63867 C 148.80961 156.63867 147.96264 156.39003 146.85547 155.88867 C 145.28872 155.15751 143.74371 154.79101 142.21875 154.79102 z M 119.09375 154.88477 C 116.94209 154.88477 114.95805 155.54331 113.14062 156.85938 C 111.34409 158.15455 109.92341 159.96052 108.87891 162.2793 C 107.83441 164.5981 107.3125 167.1267 107.3125 169.86328 C 107.3125 172.51631 107.81369 174.90828 108.81641 177.03906 C 109.79823 179.16983 111.16516 180.82039 112.91992 181.99023 C 114.69557 183.16007 116.68155 183.74414 118.875 183.74414 C 120.77599 183.74414 122.53015 183.31547 124.13867 182.45898 C 125.70542 181.60249 126.97911 180.39097 127.96094 178.82422 C 129.06811 177.02768 129.62109 175.46196 129.62109 174.125 C 129.62109 173.76987 129.53822 173.47587 129.37109 173.24609 C 129.20397 173.01629 128.98446 172.90234 128.71289 172.90234 C 128.4831 172.90234 128.21179 173.08041 127.89844 173.43555 C 125.78855 175.98412 123.53321 177.25781 121.13086 177.25781 C 119.96102 177.25781 118.83236 176.9347 117.74609 176.28711 C 116.61803 175.63952 115.72962 174.80291 115.08203 173.7793 C 114.49712 172.81837 114.027 171.51356 113.67188 169.86328 C 115.21773 171.65981 117.0878 172.55664 119.28125 172.55664 C 121.03601 172.55664 122.70729 172.03669 124.29492 170.99219 C 125.84078 169.94769 127.09375 168.58917 128.05469 166.91797 C 128.99474 165.24677 129.46484 163.46994 129.46484 161.58984 C 129.46484 159.96041 129.23497 158.65565 128.77539 157.67383 C 128.29492 156.692 127.69012 156.20117 126.95898 156.20117 C 126.62474 156.20117 126.40523 156.21152 126.30078 156.23242 C 125.92476 156.29512 125.58934 156.32617 125.29688 156.32617 C 124.64929 156.32617 124.10666 156.22257 123.66797 156.01367 L 122.22656 155.44922 C 121.28651 155.0732 120.2427 154.88477 119.09375 154.88477 z M 118.7168 158.61328 C 119.90753 158.61328 120.88917 159.03159 121.66211 159.86719 C 122.43503 160.70279 122.82227 161.77768 122.82227 163.09375 C 122.82227 164.72317 122.3936 166.09206 121.53711 167.19922 C 120.65973 168.32729 119.5952 168.89258 118.3418 168.89258 C 117.58976 168.89258 116.9623 168.67307 116.46094 168.23438 C 115.95958 167.79568 115.70898 167.25112 115.70898 166.60352 C 115.70898 166.18572 115.85598 165.80043 116.14844 165.44531 C 116.42001 165.11108 116.77421 164.94336 117.21289 164.94336 C 117.50535 164.94336 117.79934 165.04696 118.0918 165.25586 C 118.44693 165.44385 118.66449 165.53906 118.74805 165.53906 C 118.97784 165.53906 119.18699 165.43351 119.375 165.22461 C 119.54212 165.01571 119.62695 164.77549 119.62695 164.50391 C 119.62695 164.21144 119.47996 163.88832 119.1875 163.5332 C 118.91594 163.24073 118.53905 162.9798 118.05859 162.75 C 117.59901 162.562 117.14122 162.4668 116.68164 162.4668 C 115.49091 162.4668 114.46585 163.0321 113.60938 164.16016 C 113.92272 162.42629 114.53983 161.06776 115.45898 160.08594 C 116.37814 159.10411 117.4634 158.61328 118.7168 158.61328 z "
       d="m 79.927734,101.99023 c -1.98665,0 -3.90423,0.33462 -5.759765,1.00196 -1.801701,0.68257 -3.427286,1.64505 -4.888672,2.89453 -1.107132,0.97877 -1.585938,1.82456 -1.585938,2.48633 0,0.11942 0.02344,0.16716 0.05469,0.20508 0.03124,0.0379 0.0917,0.0825 0.230469,0.11718 a 0.41629057,0.41629057 0 0 1 0.01172,0.004 l 0.515625,0.14648 c 0.772013,0.19382 1.378239,0.69867 1.722657,1.42578 a 0.41629057,0.41629057 0 0 1 0.0039,0.0117 c 0.322797,0.74054 0.460937,1.74314 0.460937,3.04102 v 14.59961 c 0,1.49239 -0.04502,2.56409 -0.152343,3.26172 a 0.41629057,0.41629057 0 0 1 -0.0039,0.0176 c -0.144004,0.73802 -0.414416,1.32424 -0.861328,1.70899 -0.453402,0.39673 -1.105685,0.77327 -1.976562,1.16601 a 0.41629057,0.41629057 0 0 1 -0.002,0.002 c -0.348165,0.15474 -0.427735,0.27836 -0.427735,0.56836 0,0.22241 0.0443,0.29596 0.205078,0.39648 0.160782,0.10053 0.488541,0.1875 0.978516,0.1875 h 10.650391 c 0.670426,0 1.11505,-0.0982 1.246093,-0.17187 a 0.41629057,0.41629057 0 0 1 0.03711,-0.0176 c 0.04974,-0.0218 0.06571,-0.0377 0.09375,-0.0937 0.02804,-0.0561 0.05664,-0.16237 0.05664,-0.32617 0,-0.15641 -0.03297,-0.23783 -0.0957,-0.3125 -0.06273,-0.0747 -0.175765,-0.15196 -0.378906,-0.21094 a 0.41629057,0.41629057 0 0 1 -0.01758,-0.006 l -0.523438,-0.17578 h -0.002 c -0.783806,-0.26145 -1.401054,-0.57857 -1.847656,-0.98633 a 0.41629057,0.41629057 0 0 1 -0.0059,-0.006 c -0.441861,-0.42081 -0.704886,-1.04289 -0.847657,-1.82812 a 0.41629057,0.41629057 0 0 1 0,-0.002 c -0.140064,-0.80537 -0.207031,-1.85739 -0.207031,-3.17187 v -7.57422 a 0.41629057,0.41629057 0 0 1 0.441406,-0.41602 c 1.416071,0.0863 2.597941,0.41596 3.525391,1.01563 0.967135,0.62043 1.892508,1.69108 2.828125,3.20508 l -0.002,-0.006 c 0.22888,0.35763 0.392555,0.43554 0.498047,0.43554 0.18524,0 0.31907,-0.0552 0.460937,-0.16992 0.101818,-0.10635 0.148438,-0.20129 0.148438,-0.36523 0,-0.24531 -0.04805,-0.43161 -0.126953,-0.57813 a 0.41629057,0.41629057 0 0 1 -0.01563,-0.0351 l -0.824219,-1.94922 v 0.004 c -0.544077,-1.25818 -0.936256,-2.51353 -1.175781,-3.76171 v -0.002 c -0.255814,-1.29683 -0.391061,-2.78568 -0.408204,-4.46875 -0.0069,-0.28908 -0.07478,-0.44268 -0.142578,-0.51758 -0.06779,-0.0749 -0.160778,-0.125 -0.390625,-0.125 -0.169061,0 -0.252238,0.0376 -0.330078,0.10938 -0.07784,0.0718 -0.158777,0.20466 -0.21289,0.44141 v -0.006 l -0.201172,0.94922 h 0.002 c -0.242939,1.16263 -0.625997,2.04787 -1.212891,2.63476 -0.607133,0.60714 -1.426935,0.96042 -2.398437,1.06836 a 0.41629057,0.41629057 0 0 1 -0.462891,-0.41406 v -3.77344 -0.35156 c 0,-2.81368 0.468692,-4.9673 1.478516,-6.45703 1.009823,-1.48974 2.585177,-2.25782 4.5625,-2.25782 1.249684,0 2.324658,0.30399 3.173828,0.93164 0.850169,0.62838 1.316406,1.50649 1.316406,2.50977 0,0.59212 -0.171431,1.12882 -0.523437,1.54297 a 0.41629057,0.41629057 0 0 1 -0.0078,0.01 c -0.363859,0.40429 -0.855144,0.63672 -1.382812,0.63672 -0.301017,0 -0.586238,-0.0362 -0.84961,-0.11718 a 0.41629057,0.41629057 0 0 1 -0.0078,-0.004 c -0.122442,-0.0408 -0.211351,-0.0527 -0.244141,-0.0527 -0.134454,0 -0.148081,0.0212 -0.167969,0.0449 -0.01989,0.0237 -0.06445,0.11192 -0.06445,0.3125 0,0.75868 0.358769,1.40155 1.203125,2.01562 a 0.41629057,0.41629057 0 0 1 0.0039,0.002 c 0.848808,0.63275 1.78923,0.9414 2.875,0.9414 1.735065,0 3.175579,-0.59745 4.40625,-1.82812 1.230161,-1.23016 1.828125,-2.67707 1.828125,-4.42969 10e-7,-0.51228 -0.0614,-1.03424 -0.185546,-1.56641 v -0.002 c -0.141638,-0.51863 -0.311972,-0.89801 -0.484375,-1.13672 -0.165849,-0.22964 -0.278786,-0.2793 -0.414063,-0.2793 0.05596,0 -0.211793,0.0709 -0.554687,0.32032 a 0.41629057,0.41629057 0 0 1 -0.0059,0.006 c -0.462322,0.3216 -1.031907,0.4746 -1.664062,0.47461 -0.3037,0 -0.554783,-0.0279 -0.78125,-0.084 -0.282353,-0.0288 -0.587654,-0.13816 -1.023438,-0.32226 -0.0033,-0.001 -0.0045,-5.7e-4 -0.0078,-0.002 -0.451042,-0.15726 -1.01278,-0.39012 -1.708985,-0.70508 -1.482144,-0.67519 -2.776747,-1.147 -3.875,-1.42187 -1.062775,-0.24106 -2.255962,-0.36524 -3.578125,-0.36524 z m 53.949216,0.17383 c 0.0323,0 -0.24333,0.079 -0.60156,0.34375 -0.75701,0.60065 -1.5601,1.08574 -2.4082,1.44922 a 0.41629057,0.41629057 0 0 1 -0.006,0.002 c -0.80377,0.33199 -1.86363,0.63531 -3.19531,0.92188 a 0.41629057,0.41629057 0 0 1 -0.0117,0.002 c -0.20916,0.0392 -0.31774,0.10543 -0.37305,0.16407 -0.0553,0.0586 -0.0879,0.12352 -0.0879,0.27734 0,0.14584 0.0145,0.1872 0.25391,0.29492 a 0.41629057,0.41629057 0 0 1 0.01,0.004 c 0.47509,0.22875 0.85299,0.47155 1.13477,0.75195 0.29319,0.27422 0.46556,0.65647 0.54297,1.0957 0.0786,0.39476 0.10938,0.96702 0.10937,1.77735 v 20.20117 0.72461 c 0,1.168 -0.0644,2.00126 -0.24219,2.57422 a 0.41629057,0.41629057 0 0 1 -0.008,0.0195 c -0.21407,0.58383 -0.61351,1.07492 -1.15625,1.44922 l -0.3457,0.24609 a 0.41629057,0.41629057 0 0 1 -0.0137,0.01 c -0.19506,0.1262 -0.23438,0.20689 -0.23438,0.37695 0,0.18658 0.0271,0.22185 0.11328,0.2793 a 0.41629057,0.41629057 0 0 1 0.008,0.004 c -0.0114,-0.008 0.31675,0.0996 0.83789,0.0996 h 7.27344 c 0.38167,0 0.62961,-0.0699 0.73633,-0.13672 0.10672,-0.0668 0.12305,-0.0901 0.12305,-0.24609 0,-0.0117 -0.008,-0.0719 -0.10157,-0.18359 -0.0933,-0.11121 -0.26461,-0.25808 -0.50781,-0.41797 l -0.002,-0.002 c -0.37234,-0.24243 -0.67726,-0.5323 -0.89649,-0.87109 -0.21657,-0.33471 -0.35863,-0.72246 -0.43359,-1.15039 -0.0777,-0.39091 -0.10742,-0.93258 -0.10742,-1.67578 v -0.55078 -8.04883 c 0,-1.46846 0.28115,-2.64843 0.90039,-3.51367 0.61918,-0.88188 1.56567,-1.35352 2.68945,-1.35352 1.01288,0 1.85864,0.38668 2.36914,1.13281 a 0.41629057,0.41629057 0 0 1 0.006,0.008 c 0.50419,0.77566 0.7168,1.8666 0.7168,3.27734 v 8.17383 c 0,1.44777 -0.0607,2.41443 -0.24219,3.01953 -0.17926,0.61344 -0.58524,1.13327 -1.16406,1.52539 l -0.34375,0.24414 a 0.41629057,0.41629057 0 0 1 -0.0195,0.0137 c -0.16537,0.10336 -0.20508,0.17357 -0.20508,0.37305 0,0.18928 0.0342,0.23341 0.10156,0.2832 0.008,0.005 0.29191,0.0996 0.75782,0.0996 h 7.29882 c 0.37247,0 0.61077,-0.0695 0.71289,-0.13476 0.10213,-0.0652 0.1211,-0.0898 0.1211,-0.24805 0,-0.0117 -0.008,-0.0719 -0.10156,-0.18359 -0.0937,-0.11167 -0.26493,-0.25925 -0.50977,-0.41993 a 0.41629057,0.41629057 0 0 1 -0.0176,-0.0117 c -0.34608,-0.255 -0.63421,-0.53631 -0.84961,-0.8496 a 0.41629057,0.41629057 0 0 1 -0.002,-0.006 c -0.21141,-0.31713 -0.34554,-0.70967 -0.43555,-1.17774 a 0.41629057,0.41629057 0 0 1 -0.002,-0.006 c -0.0896,-0.50188 -0.13086,-1.10378 -0.13086,-1.82031 v -0.55078 -9.40039 -0.57422 c 0,-1.72329 -0.27553,-3.01392 -0.76953,-3.86719 a 0.41629057,0.41629057 0 0 1 -0.008,-0.0117 c -0.40791,-0.75538 -1.04491,-1.37004 -1.95313,-1.85547 -0.90595,-0.48422 -1.89047,-0.72461 -2.97851,-0.7246 -1.87282,0 -3.59098,0.84242 -5.21875,2.61523 a 0.41629057,0.41629057 0 0 1 -0.72266,-0.28125 v -12.875 c 0,-0.31442 -0.065,-0.49878 -0.12305,-0.57617 -0.058,-0.0774 -0.105,-0.10938 -0.28711,-0.10938 z m -17.42382,11.17578 c -1.15363,0 -2.0749,0.3819 -2.85352,1.17579 -0.78186,0.79719 -1.15625,1.71433 -1.15625,2.83398 0,0.73614 0.16703,1.39264 0.5,1.99805 0.37394,0.66921 0.82234,1.17432 1.3457,1.5332 a 0.41629057,0.41629057 0 0 1 0.004,0.004 c 0.58107,0.41285 1.11882,0.59765 1.63476,0.59765 0.19703,0 0.29007,-0.0444 0.3086,-0.0586 0.0185,-0.0142 0.0254,0.002 0.0254,-0.0996 v -0.0898 c -0.004,-0.0254 -0.0254,-0.0324 -0.0254,-0.0606 l 0.0156,0.11328 -0.0996,-0.34961 a 0.41629057,0.41629057 0 0 1 -0.008,-0.0312 c -0.0357,-0.17878 -0.0566,-0.30037 -0.0566,-0.43164 0,-0.46509 0.21844,-0.90196 0.58203,-1.22852 0.34242,-0.33672 0.80785,-0.51367 1.3086,-0.51367 0.72916,0 1.422,0.30534 2.02929,0.85742 a 0.41629057,0.41629057 0 0 1 0.006,0.006 c 0.61532,0.57912 1.09006,1.31093 1.42578,2.17578 0.35023,0.89309 0.5293,1.78891 0.5293,2.67774 0,1.5945 -0.45577,2.97753 -1.36914,4.08789 -0.91515,1.11252 -2.12626,1.70312 -3.52148,1.70312 -1.20511,0 -2.36579,-0.46369 -3.43946,-1.34375 a 0.41629057,0.41629057 0 0 1 -0.002,-0.002 c -1.05659,-0.88049 -1.88743,-2.05023 -2.49219,-3.48437 -0.62254,-1.43664 -0.93359,-2.99521 -0.93359,-4.66211 0,-1.06032 0.16567,-2.18707 0.49023,-3.38282 0.099,-0.36293 0.17326,-0.65219 0.22071,-0.86328 0.0474,-0.21109 0.0644,-0.36992 0.0644,-0.35351 0,-0.12574 -0.0261,-0.14742 -0.0215,-0.14258 0.005,0.005 -2.2e-4,-0.0156 -0.11132,-0.0156 -0.0134,0 -0.0917,0.0156 -0.23047,0.1543 -0.13536,0.13536 -0.43396,0.5509 -0.81055,1.18945 -1.50041,2.56049 -2.24414,5.19841 -2.24414,7.93946 0,2.06636 0.37362,3.86101 1.10937,5.39648 a 0.41629057,0.41629057 0 0 1 0.004,0.006 c 0.72225,1.57289 1.7282,2.77966 3.0293,3.65234 a 0.41629057,0.41629057 0 0 1 0.004,0.002 c 1.26398,0.86898 2.70333,1.30273 4.36329,1.30273 1.58486,0 3.00503,-0.45996 4.30664,-1.39648 1.28214,-0.91808 2.28422,-2.21479 3.00976,-3.92383 a 0.41629057,0.41629057 0 0 1 0,-0.002 c 0.7253,-1.69237 1.0918,-3.60066 1.0918,-5.73633 0,-2.10046 -0.35649,-4.01889 -1.06641,-5.76367 -0.72798,-1.71479 -1.70561,-3.05149 -2.92969,-4.03711 -1.1997,-0.96246 -2.52591,-1.4336 -4.0371,-1.4336 z m 61.52539,0 c -1.9957,0 -3.57585,0.61499 -4.83204,1.85547 a 0.41629057,0.41629057 0 0 1 -0.004,0.002 c -1.29143,1.24417 -1.92383,2.76473 -1.92383,4.65234 0,0.83371 0.14799,1.56314 0.4375,2.20312 a 0.41629057,0.41629057 0 0 1 0.002,0.006 c 0.30838,0.70927 0.7369,1.30022 1.28516,1.79102 0.45148,0.34112 1.04652,0.70146 1.78711,1.07227 7.3e-4,3.4e-4 0.003,0.002 0.004,0.002 0.002,7.7e-4 0.002,0.001 0.004,0.002 0.64221,0.30467 1.82657,0.78666 3.53516,1.4336 1.12593,0.37693 1.96864,0.81433 2.52343,1.36914 0.54552,0.5455 0.82228,1.28432 0.82227,2.12109 0,0.97339 -0.40031,1.8306 -1.14648,2.46484 -0.746,0.63409 -1.70049,0.95117 -2.79493,0.95117 -0.9499,0 -1.79883,-0.2381 -2.50586,-0.7207 -0.72569,-0.4838 -1.16015,-1.15718 -1.16015,-1.91992 0,-0.43739 0.17992,-0.8557 0.49609,-1.17188 0.31617,-0.31616 0.73415,-0.49414 1.16992,-0.49414 0.33932,0 0.68326,0.0681 1.02539,0.20118 l -0.041,-0.0137 c 0.16667,0.0455 0.28836,0.0606 0.29101,0.0606 0.0771,0 0.0438,0.001 0.0449,0 0.001,-0.001 0.0391,-0.0691 0.0391,-0.23242 0,-0.37526 -0.13976,-0.75133 -0.45899,-1.16016 -0.32309,-0.38041 -0.75359,-0.7206 -1.30468,-1.01367 -0.56731,-0.25974 -1.11341,-0.38476 -1.64649,-0.38476 -1.07585,0 -1.90377,0.3341 -2.57812,1.02343 -0.67394,0.68892 -1.00586,1.54689 -1.00586,2.66016 0,1.06325 0.32118,1.9721 0.98242,2.78711 a 0.41629057,0.41629057 0 0 1 0.006,0.006 c 0.64909,0.83454 1.56417,1.50124 2.77734,1.99609 a 0.41629057,0.41629057 0 0 1 0.004,0 c 1.17489,0.49219 2.52647,0.74414 4.06445,0.74414 1.71842,0 3.20702,-0.29761 4.47657,-0.88476 a 0.41629057,0.41629057 0 0 1 0.004,-0.004 c 1.28902,-0.5729 2.28013,-1.38028 3.00195,-2.43164 0.72018,-1.04893 1.07813,-2.22297 1.07813,-3.56445 0,-0.83311 -0.14924,-1.59051 -0.44336,-2.28711 a 0.41629057,0.41629057 0 0 1 -0.002,-0.004 c -0.31367,-0.76849 -0.71901,-1.34988 -1.20899,-1.76562 a 0.41629057,0.41629057 0 0 1 -0.01,-0.01 c -0.47846,-0.43217 -1.0837,-0.81874 -1.81836,-1.1543 h -0.002 c -0.70149,-0.31875 -1.87503,-0.74379 -3.5,-1.25781 a 0.41629057,0.41629057 0 0 1 -0.006,-0.002 c -1.32524,-0.43615 -2.1652,-0.77616 -2.64649,-1.16602 -0.50805,-0.37098 -0.78906,-0.95287 -0.78906,-1.60351 0,-0.6385 0.21961,-1.21767 0.64648,-1.64453 0.41662,-0.41663 0.99625,-0.6211 1.64453,-0.6211 1.46164,0 2.64714,0.98443 3.45118,2.71485 a 0.41629057,0.41629057 0 0 1 0.002,0.006 c 0.20852,0.46516 0.40426,0.76363 0.4668,0.82617 a 0.41629057,0.41629057 0 0 1 0.0273,0.0312 c 0.0836,0.10223 0.1281,0.12304 0.25195,0.12304 0.0949,0 0.12386,-0.0145 0.18164,-0.0742 0.0576,-0.0595 0.13424,-0.19064 0.18946,-0.41016 l 0.19336,-1.18555 0.002,-0.004 v -0.004 c 0.0795,-0.52795 0.31504,-1.113 0.69531,-1.78711 a 0.41629057,0.41629057 0 0 1 0.006,-0.008 c 0.38022,-0.63948 0.80657,-1.21282 1.27734,-1.71875 l 0.002,-0.002 c 0.31275,-0.3435 0.41211,-0.60367 0.41211,-0.71679 0,-0.13909 -0.041,-0.23905 -0.10742,-0.3418 -0.0661,-0.0588 -0.11931,-0.0918 -0.22657,-0.0918 -0.0328,0 -0.1217,0.0119 -0.24414,0.0527 a 0.41629057,0.41629057 0 0 1 -0.0332,0.01 c -0.43707,0.1049 -0.81379,0.16211 -1.14649,0.16211 -0.58535,0 -1.2887,-0.22529 -2.19726,-0.63672 a 0.41629057,0.41629057 0 0 1 -0.004,-0.002 c -1.20316,-0.56147 -2.37329,-0.83594 -3.52343,-0.83594 z m -75.77539,0.0742 c -0.77862,0 -1.49419,0.28367 -2.20118,0.89844 -0.725361,0.63277 -1.333366,1.51727 -1.81445,2.67188 a 0.41629057,0.41629057 0 0 1 -0.800781,-0.16016 v -2.625 c 0,-0.21026 -0.04633,-0.31776 -0.117188,-0.39649 -0.07748,-0.0861 -0.133348,-0.11328 -0.267578,-0.11328 -0.0455,0 -0.335825,0.0966 -0.722656,0.39063 a 0.41629057,0.41629057 0 0 1 -0.0078,0.006 c -1.657253,1.19595 -3.271949,1.90729 -4.84375,2.10156 -0.522721,0.0634 -0.864612,0.17862 -0.945312,0.23242 a 0.41629057,0.41629057 0 0 1 -0.0332,0.0215 c -0.0716,0.0386 -0.105469,0.0628 -0.105469,0.30664 0,0.0311 0.0032,0.0603 0.06641,0.13281 0.06324,0.0725 0.190319,0.17261 0.384766,0.27344 l -0.01953,-0.01 c 0.57598,0.26013 1.012414,0.62339 1.232421,1.10742 0.224184,0.49006 0.310547,1.11399 0.310547,1.89649 v 10.40039 c 0,1.05571 -0.07271,1.82191 -0.27539,2.36914 -0.216946,0.59048 -0.641231,1.08115 -1.222657,1.4375 l 0.01953,-0.0137 c -0.441471,0.30446 -0.546875,0.54307 -0.546875,0.55664 0,0.17995 0.02872,0.20389 0.07227,0.23437 0.0321,0.0225 0.258128,0.0996 0.636719,0.0996 h 8.076172 c 0.378607,0 0.604661,-0.0772 0.636719,-0.0996 a 0.41629057,0.41629057 0 0 1 0.0078,-0.004 c -0.0025,0.002 0.03906,-0.0202 0.03906,-0.23047 0,-0.16412 -0.03587,-0.2225 -0.04883,-0.24024 -0.04216,-0.0375 -0.229724,-0.16402 -0.548829,-0.30078 a 0.41629057,0.41629057 0 0 1 -0.002,0 c -0.684506,-0.296 -1.19522,-0.75019 -1.443359,-1.34765 -3.5e-4,-8.5e-4 -0.0016,-0.001 -0.002,-0.002 -0.242615,-0.55253 -0.330078,-1.30346 -0.330078,-2.30859 v -0.47461 -7.92578 c 0,-1.22891 0.11633,-2.15235 0.410156,-2.81836 a 0.41629057,0.41629057 0 0 1 0.002,-0.004 c 0.296339,-0.65194 0.878675,-1.06836 1.554688,-1.06836 0.601099,0 1.143654,0.26655 1.431644,0.75391 a 0.41629057,0.41629057 0 0 1 0.006,0.006 c 0.28832,0.51012 0.38515,1.22596 0.40234,2.22266 a 0.41629057,0.41629057 0 0 1 0,0.004 c 0.008,1.02223 0.15609,1.76178 0.38281,2.19141 0.22673,0.42962 0.46055,0.57226 0.87696,0.57226 0.12111,0 0.23299,-0.0341 0.375,-0.14062 0.11087,-0.0832 0.13281,-0.12727 0.13281,-0.26758 0,0.1095 -0.003,-0.003 -0.0254,-0.0996 -0.0221,-0.0941 -0.0584,-0.23327 -0.10547,-0.40625 -0.18894,-0.61834 -0.29297,-1.08555 -0.29297,-1.4707 0,-0.63663 0.17446,-1.22291 0.52344,-1.71094 0.35247,-0.50914 0.91736,-0.98274 1.69531,-1.4668 a 0.41629057,0.41629057 0 0 1 0.008,-0.004 c 0.50816,-0.30173 0.86549,-0.59054 1.06836,-0.83399 0.15125,-0.18755 0.23047,-0.41215 0.23047,-0.73437 0,-0.50176 -0.17219,-1.03478 -0.55273,-1.61524 l -0.002,-0.002 c -0.40174,-0.58652 -0.89309,-1.06672 -1.47851,-1.45312 -0.60941,-0.36403 -1.20877,-0.53907 -1.82617,-0.53907 z m 57.32421,0 c -1.63161,0 -3.11894,0.49373 -4.50586,1.49805 -1.36889,0.98689 -2.45711,2.36331 -3.26562,4.1582 -0.80814,1.79405 -1.21289,3.74853 -1.21289,5.87891 0,2.06406 0.39038,3.90693 1.16211,5.54687 a 0.41629057,0.41629057 0 0 1 0.002,0.004 c 0.75597,1.64059 1.79408,2.88876 3.12695,3.77734 1.35052,0.88916 2.84257,1.33008 4.51758,1.33008 1.4529,0 2.78006,-0.32285 4.00196,-0.97265 1.18794,-0.64942 2.14809,-1.56014 2.89648,-2.75391 v -0.002 c 0.85836,-1.39325 1.26172,-2.57771 1.26172,-3.5293 0,-0.21887 -0.0468,-0.35756 -0.11914,-0.45703 -0.0702,-0.0965 -0.0907,-0.10352 -0.18946,-0.10352 0.0323,0 -0.12117,0.0396 -0.33789,0.28516 -1.73061,2.08653 -3.65225,3.1914 -5.71289,3.1914 -1.00799,0 -1.98511,-0.28225 -2.90625,-0.83007 l -0.006,-0.004 c -0.94936,-0.54623 -1.71104,-1.26127 -2.26367,-2.13477 a 0.41629057,0.41629057 0 0 1 -0.004,-0.006 c -0.50222,-0.8251 -0.88605,-1.90755 -1.17579,-3.25391 a 0.41629057,0.41629057 0 0 1 0.72266,-0.35938 c 1.1699,1.35961 2.52191,2.00586 4.1582,2.00586 1.31601,0 2.56096,-0.38675 3.76758,-1.17968 1.17998,-0.79728 2.13218,-1.827 2.86914,-3.10743 l 0.002,-0.002 c 0.71643,-1.27451 1.07031,-2.61515 1.07031,-4.04492 0,-1.25865 -0.18151,-2.24208 -0.50977,-2.94531 -0.34594,-0.7048 -0.67853,-0.93946 -1.07422,-0.93946 -0.25773,0 -0.44396,0.0177 -0.44336,0.0176 a 0.41629057,0.41629057 0 0 1 -0.0137,0.002 c -0.31778,0.053 -0.60504,0.0801 -0.86718,0.0801 -0.56141,0 -1.05844,-0.09 -1.48047,-0.29101 l 0.0273,0.0137 -1.15039,-0.44922 a 0.41629057,0.41629057 0 0 1 -0.002,-0.002 c -0.69605,-0.27842 -1.47481,-0.42188 -2.34571,-0.42188 z m -0.29882,2.14453 c 1.04737,0 1.96534,0.388 2.65429,1.13282 0.69071,0.74671 1.03516,1.72624 1.03516,2.85742 0,1.3726 -0.36535,2.56751 -1.10938,3.5293 a 0.41629057,0.41629057 0 0 1 -0.002,0.002 c -0.7591,0.97599 -1.75414,1.50976 -2.87891,1.50976 -0.68111,0 -1.29593,-0.21108 -1.77343,-0.6289 -0.47615,-0.41663 -0.74218,-0.98746 -0.74219,-1.61133 0,-0.42958 0.15942,-0.84214 0.44336,-1.1875 0.28556,-0.35144 0.71585,-0.55469 1.17187,-0.55469 0.33239,0 0.65605,0.12285 0.94336,0.32813 l -0.0469,-0.0293 c 0.13651,0.0723 0.24446,0.12385 0.31445,0.1543 0.07,0.0304 0.13967,0.0234 0.0137,0.0234 0.0511,0 0.0962,-0.0207 0.17969,-0.10937 0.0722,-0.0941 0.10547,-0.17655 0.10547,-0.30078 0,-0.0929 -0.0633,-0.26863 -0.25,-0.5 -0.16759,-0.17778 -0.41613,-0.35522 -0.75195,-0.51758 -0.31795,-0.12874 -0.62465,-0.19141 -0.93164,-0.19141 -0.81867,0 -1.49217,0.35977 -2.11915,1.18555 a 0.41629057,0.41629057 0 0 1 -0.74218,-0.32617 c 0.26021,-1.43983 0.77926,-2.60554 1.58008,-3.46094 0.79819,-0.85262 1.79789,-1.30468 2.90625,-1.30469 z M 95.75,140.98047 c -2.501902,0 -4.918908,0.42123 -7.255859,1.26172 -2.270575,0.85998 -4.322701,2.07387 -6.164063,3.64843 -1.398263,1.23616 -2.021484,2.3196 -2.021484,3.19727 0,0.1673 0.03697,0.25201 0.09375,0.32031 0.05678,0.0683 0.155483,0.13604 0.345703,0.1836 a 0.41629057,0.41629057 0 0 1 0.01367,0.004 l 0.642578,0.18555 c 0.941576,0.23539 1.672589,0.84135 2.09375,1.73047 a 0.41629057,0.41629057 0 0 1 0.0039,0.0117 c 0.39455,0.90514 0.568359,2.14881 0.568359,3.76758 v 18.30078 c 0,1.86877 -0.06085,3.2129 -0.193359,4.07422 a 0.41629057,0.41629057 0 0 1 -0.0039,0.0176 c -0.177671,0.91056 -0.507597,1.61951 -1.042969,2.08008 -0.554497,0.48518 -1.364729,0.95535 -2.451172,1.44531 a 0.41629057,0.41629057 0 0 1 -0.002,0.002 c -0.461753,0.20521 -0.599609,0.41133 -0.599609,0.81054 0,0.30705 0.07673,0.44355 0.304687,0.58594 0.227954,0.14239 0.657935,0.25 1.283203,0.25 h 13.34961 c 0.847901,0 1.412876,-0.11686 1.611328,-0.22851 a 0.41629057,0.41629057 0 0 1 0.03906,-0.0176 c 0.08411,-0.0368 0.125127,-0.0767 0.169922,-0.16602 0.0448,-0.0893 0.08203,-0.2385 0.08203,-0.45508 0,-0.21581 -0.05107,-0.34877 -0.146484,-0.46289 -0.09542,-0.11411 -0.255326,-0.21904 -0.523437,-0.29687 a 0.41629057,0.41629057 0 0 1 -0.01563,-0.006 l -0.658204,-0.21875 c -0.975355,-0.32513 -1.737583,-0.72042 -2.28125,-1.2168 a 0.41629057,0.41629057 0 0 1 -0.0059,-0.006 c -0.530183,-0.50493 -0.854679,-1.26129 -1.03125,-2.23242 a 0.41629057,0.41629057 0 0 1 0,-0.002 c -0.173856,-0.99968 -0.257812,-2.31317 -0.257812,-3.95703 v -9.49414 a 0.41629057,0.41629057 0 0 1 0.441406,-0.41602 c 1.762641,0.10747 3.224693,0.51899 4.367187,1.25781 1.190868,0.76395 2.345695,2.09437 3.513671,3.98438 l -0.002,-0.006 c 0.29621,0.46281 0.52945,0.5918 0.71289,0.5918 0.2568,0 0.45496,-0.0788 0.65234,-0.24024 0.14862,-0.15358 0.21681,-0.30226 0.2168,-0.53516 0,-0.32251 -0.0618,-0.57262 -0.16992,-0.77343 a 0.41629057,0.41629057 0 0 1 -0.0156,-0.0352 l -1.03515,-2.44531 v 0.004 c -0.679212,-1.57066 -1.168151,-3.13495 -1.466801,-4.6914 v -0.002 c -0.319221,-1.61811 -0.486471,-3.47679 -0.507812,-5.58204 -0.009,-0.37752 -0.09857,-0.59697 -0.207031,-0.71679 -0.108465,-0.11983 -0.260706,-0.19336 -0.56836,-0.19336 -0.232637,0 -0.36665,0.0556 -0.484375,0.16406 -0.116661,0.10748 -0.225813,0.29587 -0.296875,0.60156 v 0.004 c -2.75e-4,0.001 -0.0017,7.5e-4 -0.002,0.002 l -0.25,1.18555 c -0.302101,1.44577 -0.778918,2.53478 -1.492187,3.24805 -0.742037,0.74203 -1.743398,1.17721 -2.94336,1.31054 a 0.41629057,0.41629057 0 0 1 -0.46289,-0.41406 v -4.73242 -0.43945 c 0,-3.51476 0.586502,-6.19482 1.833984,-8.03516 1.247482,-1.84034 3.180349,-2.7832 5.632812,-2.7832 1.549458,0 2.870688,0.37528 3.914068,1.14648 1.04414,0.77177 1.60937,1.83296 1.60937,3.06055 0,0.72306 -0.20673,1.36821 -0.63086,1.86718 a 0.41629057,0.41629057 0 0 1 -0.008,0.01 c -0.44013,0.48903 -1.02286,0.76367 -1.65625,0.76367 -0.36863,0 -0.71502,-0.0447 -1.0332,-0.14258 a 0.41629057,0.41629057 0 0 1 -0.008,-0.004 c -0.16183,-0.054 -0.28128,-0.0723 -0.33789,-0.0723 -0.18903,0 -0.24515,0.0368 -0.29297,0.0937 -0.0478,0.057 -0.10547,0.19527 -0.10547,0.46094 0,0.98692 0.47393,1.82622 1.55079,2.60937 a 0.41629057,0.41629057 0 0 1 0.004,0.002 c 1.08105,0.80588 2.28897,1.20312 3.66992,1.20312 2.19961,0 4.0355,-0.76205 5.59571,-2.32226 1.55959,-1.55959 2.32226,-3.40557 2.32226,-5.62696 0,-0.65152 -0.0783,-1.31431 -0.23633,-1.99023 v -0.002 c -0.17954,-0.65763 -0.39757,-1.14607 -0.625,-1.46094 -0.22083,-0.30578 -0.39562,-0.39258 -0.60351,-0.39258 0.0139,0 -0.32213,0.10501 -0.75781,0.42188 a 0.41629057,0.41629057 0 0 1 -0.006,0.006 c -0.55963,0.3893 -1.24842,0.57421 -2.02344,0.57421 -0.37829,0 -0.69064,-0.0322 -0.9668,-0.10156 -0.33289,-0.0334 -0.71183,-0.17048 -1.25586,-0.40039 -0.003,-0.001 -0.004,-5.4e-4 -0.008,-0.002 -0.56008,-0.19496 -1.26651,-0.48543 -2.14062,-0.88086 -1.85984,-0.84726 -3.48672,-1.44219 -4.8711,-1.78906 l -0.01,-0.002 C 98.913249,141.1356 97.412452,140.98047 95.75,140.98047 Z m 68.02734,5.10742 c -0.43049,0 -0.66101,0.10318 -0.78906,0.24219 -0.0606,0.0674 -0.31079,0.63796 -0.49414,1.55469 a 0.41629057,0.41629057 0 0 1 -0.002,0.006 c -0.55181,2.56805 -1.36002,4.50006 -2.47461,5.79297 -1.13276,1.33163 -2.86395,2.36351 -5.16602,3.13086 a 0.41629057,0.41629057 0 0 1 -0.0137,0.004 l -0.23242,0.0684 v 2.0625 h 3.25 a 0.41629057,0.41629057 0 0 1 0.41601,0.41601 v 17.58008 c 0,1.63647 0.21219,2.8577 0.58594,3.64258 a 0.41629057,0.41629057 0 0 1 0.002,0.002 c 0.90041,1.89868 2.43898,2.80079 4.85547,2.80078 2.02762,0 3.69879,-0.5903 5.08594,-1.77929 0.57337,-0.49447 1.04348,-1.03519 1.41602,-1.6211 0.35188,-0.62864 0.50781,-1.12994 0.50781,-1.44726 0,-0.16274 -0.0385,-0.25243 -0.10938,-0.33789 -0.0932,-0.0898 -0.16454,-0.12305 -0.28906,-0.12305 0.10568,0 -0.019,0.008 -0.16992,0.0898 -0.15091,0.0823 -0.36457,0.21739 -0.62891,0.4004 -0.62893,0.44797 -1.2512,0.69921 -1.86523,0.69921 -0.52904,0 -1.04613,-0.17933 -1.51953,-0.50976 l -0.004,-0.002 c -0.46069,-0.31621 -0.80814,-0.75497 -1.02344,-1.28125 a 0.41629057,0.41629057 0 0 1 -0.006,-0.0156 c -0.26386,-0.71962 -0.36914,-1.7487 -0.36914,-3.15039 v -14.94727 a 0.41629057,0.41629057 0 0 1 0.41602,-0.41601 h 4.0957 v -2.86524 h -4.0957 a 0.41629057,0.41629057 0 0 1 -0.41602,-0.41601 v -8.08399 c 0,-0.66798 -0.12616,-1.08296 -0.22851,-1.21679 -0.14314,-0.18095 -0.34037,-0.2793 -0.73438,-0.2793 z m -21.55859,9.11914 c -2.52365,0 -4.53684,0.7814 -6.13086,2.35547 a 0.41629057,0.41629057 0 0 1 -0.004,0.002 c -1.63777,1.57786 -2.44335,3.51604 -2.44336,5.90625 0,1.05734 0.18874,1.9871 0.5586,2.80469 a 0.41629057,0.41629057 0 0 1 0.002,0.006 c 0.3928,0.90342 0.94027,1.65915 1.64063,2.28516 0.57445,0.43441 1.32728,0.89163 2.26172,1.35937 7.3e-4,3.5e-4 0.003,0.002 0.004,0.002 0.002,7.8e-4 0.002,0.001 0.004,0.002 0.81103,0.38485 2.29778,0.9891 4.4414,1.80078 1.40444,0.46979 2.44758,1.01398 3.125,1.6914 0.66345,0.66345 1,1.5552 1,2.58204 0,1.19314 -0.48499,2.23363 -1.40039,3.01171 -0.91515,0.77789 -2.0837,1.16602 -3.43554,1.16602 -1.17565,0 -2.21801,-0.29482 -3.08594,-0.88867 -0.88812,-0.59339 -1.40234,-1.39902 -1.40234,-2.31641 0,-0.52102 0.21042,-1.01313 0.58984,-1.39258 0.37883,-0.37882 0.87025,-0.59179 1.39258,-0.59179 0.41333,0 0.83138,0.086 1.24804,0.24804 l -0.041,-0.0137 c 0.21441,0.0585 0.36867,0.0801 0.39062,0.0801 0.1188,0 0.11795,-0.0116 0.14063,-0.041 0.0227,-0.0294 0.0703,-0.13928 0.0703,-0.35742 0,-0.49856 -0.18477,-0.99589 -0.59766,-1.52343 -0.41496,-0.48863 -0.9656,-0.92244 -1.66601,-1.29493 -5.9e-4,-2.7e-4 -0.001,2.7e-4 -0.002,0 -0.72517,-0.33292 -1.42678,-0.49414 -2.11329,-0.49414 -1.37111,0 -2.44203,0.43259 -3.30664,1.31641 -0.86416,0.88335 -1.29101,1.98889 -1.29101,3.40625 0,1.35487 0.4132,2.52192 1.25586,3.56055 a 0.41629057,0.41629057 0 0 1 0.004,0.006 c 0.82644,1.06258 1.99128,1.9094 3.52539,2.53515 a 0.41629057,0.41629057 0 0 1 0.004,0 c 1.48714,0.62299 3.19736,0.93946 5.13672,0.93945 2.16606,0 4.04681,-0.37567 5.6543,-1.11914 a 0.41629057,0.41629057 0 0 1 0.004,-0.004 c 1.63106,-0.72491 2.88847,-1.74947 3.80469,-3.08399 0.91441,-1.33186 1.36914,-2.82677 1.36914,-4.52734 0,-1.05782 -0.18655,-2.02242 -0.56055,-2.9082 a 0.41629057,0.41629057 0 0 1 -0.002,-0.004 c -0.39787,-0.97478 -0.91688,-1.71743 -1.54687,-2.25195 a 0.41629057,0.41629057 0 0 1 -0.01,-0.01 c -0.60969,-0.55069 -1.37595,-1.04069 -2.30469,-1.46484 H 148.5 c -0.88743,-0.40327 -2.36164,-0.93713 -4.40039,-1.58203 a 0.41629057,0.41629057 0 0 1 -0.006,-0.002 c -1.6588,-0.54593 -2.71251,-0.97915 -3.28711,-1.44531 -0.61332,-0.4467 -0.94727,-1.1359 -0.94727,-1.92578 0,-0.77773 0.26371,-1.47074 0.7793,-1.98633 0.50098,-0.50097 1.19435,-0.74805 1.98633,-0.74805 1.78682,0 3.23401,1.19305 4.23242,3.3418 a 0.41629057,0.41629057 0 0 1 0.002,0.006 c 0.26352,0.58784 0.50501,0.96594 0.60547,1.06641 a 0.41629057,0.41629057 0 0 1 0.0273,0.0312 c 0.12141,0.14839 0.21596,0.19336 0.39843,0.19336 0.14337,0 0.21243,-0.0315 0.30274,-0.125 0.0903,-0.0935 0.19145,-0.27556 0.26367,-0.56446 l 0.24219,-1.49414 0.002,-0.006 c 0.0965,-0.64407 0.39037,-1.36867 0.86328,-2.20703 a 0.41629057,0.41629057 0 0 1 0.006,-0.008 c 0.47286,-0.79526 1.00081,-1.50794 1.58594,-2.13672 l 0.002,-0.002 c 0.40238,-0.44158 0.54688,-0.78559 0.54688,-0.96875 0,-0.19677 -0.0593,-0.35091 -0.16016,-0.50196 -0.10653,-0.0981 -0.20201,-0.14843 -0.36523,-0.14843 -0.0566,0 -0.17606,0.0183 -0.33789,0.0723 a 0.41629057,0.41629057 0 0 1 -0.0332,0.01 c -0.54336,0.13041 -1.01037,0.19922 -1.41406,0.19922 -0.70288,0 -1.57821,-0.27418 -2.71094,-0.78711 a 0.41629057,0.41629057 0 0 1 -0.004,-0.002 c -1.52003,-0.70935 -3.00267,-1.0586 -4.46094,-1.05859 z m -23.125,0.0937 c -2.06673,0 -3.95469,0.62613 -5.70898,1.89649 -1.73208,1.2487 -3.10727,2.9902 -4.12696,5.2539 -1.01928,2.26283 -1.52929,4.72845 -1.52929,7.41211 0,2.60061 0.49047,4.92751 1.46484,6.99805 a 0.41629057,0.41629057 0 0 1 0.002,0.004 c 0.95456,2.07161 2.26766,3.65436 3.95508,4.7793 1.70915,1.12542 3.60598,1.68359 5.72461,1.68359 1.83688,0 3.51696,-0.41119 5.06445,-1.23437 1.50466,-0.82255 2.721,-1.97763 3.66797,-3.48828 v -0.002 c 1.08226,-1.75656 1.59766,-3.25673 1.59766,-4.47852 0,-0.29038 -0.0636,-0.48864 -0.16992,-0.63477 -0.10365,-0.14251 -0.16714,-0.17187 -0.32227,-0.17187 -0.0147,0 -0.2218,0.0751 -0.50195,0.39258 -2.15713,2.6017 -4.53392,3.96289 -7.08008,3.96289 -1.24424,0 -2.45073,-0.34648 -3.5918,-1.02539 l -0.006,-0.004 c -1.17752,-0.67721 -2.11919,-1.56214 -2.80273,-2.64258 a 0.41629057,0.41629057 0 0 1 -0.004,-0.006 c -0.62042,-1.01926 -1.09941,-2.36489 -1.46093,-4.04492 a 0.41629057,0.41629057 0 0 1 0.72265,-0.35937 c 1.48227,1.72263 3.21298,2.54882 5.29297,2.54882 1.67113,0 3.25388,-0.49021 4.78125,-1.49414 1.4924,-1.00837 2.69762,-2.31325 3.62891,-3.93164 l 0.002,-0.002 c 0.90645,-1.61232 1.35547,-3.31319 1.35547,-5.12305 0,-1.58824 -0.22733,-2.83475 -0.64844,-3.73632 -0.44315,-0.9034 -0.89755,-1.23633 -1.44141,-1.23633 -0.32564,0 -0.55581,0.0194 -0.57617,0.0234 a 0.41629057,0.41629057 0 0 1 -0.0137,0.002 c -0.39364,0.0656 -0.75034,0.0996 -1.07226,0.0996 -0.69199,0 -1.29784,-0.1103 -1.8086,-0.35352 l -1.41406,-0.55273 a 0.41629057,0.41629057 0 0 1 -0.002,0 c -0.88592,-0.35437 -1.87508,-0.53516 -2.97852,-0.53516 z m -0.37695,2.89649 c 1.28821,0 2.40479,0.47298 3.25,1.38671 0.84669,0.91536 1.27148,2.11205 1.27148,3.50977 0,1.70242 -0.45413,3.17404 -1.37109,4.35937 a 0.41629057,0.41629057 0 0 1 -0.002,0.002 c -0.93618,1.20367 -2.14488,1.85351 -3.52343,1.85351 -0.83304,0 -1.5752,-0.255 -2.1543,-0.76172 -0.5781,-0.50584 -0.89453,-1.18837 -0.89453,-1.94335 0,-0.51488 0.19103,-1.00388 0.5332,-1.41993 0.3403,-0.41881 0.84194,-0.65625 1.38672,-0.65625 0.39076,0 0.77424,0.14288 1.12109,0.39063 l -0.0469,-0.0293 c 0.17218,0.0911 0.30844,0.15745 0.40039,0.19727 0.0919,0.0398 0.17686,0.0371 0.0606,0.0371 0.0986,0 0.1827,-0.0385 0.30664,-0.17188 0.10587,-0.13659 0.15625,-0.26774 0.15625,-0.44726 0,-0.15046 -0.0925,-0.39055 -0.33985,-0.69532 -0.22212,-0.23645 -0.54709,-0.46678 -0.98046,-0.67578 -0.41197,-0.16721 -0.81011,-0.25 -1.20899,-0.25 -1.05899,0 -1.93999,0.47529 -2.74023,1.5293 a 0.41629057,0.41629057 0 0 1 -0.74219,-0.32617 c 0.32358,-1.79055 0.96853,-3.23135 1.95508,-4.28516 0.98357,-1.05064 2.20043,-1.60351 3.5625,-1.60351 z" />
  </g>
</svg>
