<?xml version="1.0" encoding="UTF-8" standalone="no"?>
<!-- Created with Inkscape (http://www.inkscape.org/) -->

<svg
   xmlns:dc="http://purl.org/dc/elements/1.1/"
   xmlns:cc="http://creativecommons.org/ns#"
   xmlns:rdf="http://www.w3.org/1999/02/22-rdf-syntax-ns#"
   xmlns:svg="http://www.w3.org/2000/svg"
   xmlns="http://www.w3.org/2000/svg"
   xmlns:sodipodi="http://sodipodi.sourceforge.net/DTD/sodipodi-0.dtd"
   xmlns:inkscape="http://www.inkscape.org/namespaces/inkscape"
   width="210mm"
   height="297mm"
   viewBox="0 0 210 297"
   version="1.1"
   id="svg950"
   inkscape:version="0.92.4 (5da689c313, 2019-01-14)"
   sodipodi:docname="TinTinPortrait.svg">
  <defs
     id="defs944" />
  <sodipodi:namedview
     id="base"
     pagecolor="#ffffff"
     bordercolor="#666666"
     borderopacity="1.0"
     inkscape:pageopacity="0.0"
     inkscape:pageshadow="2"
     inkscape:zoom="0.7"
     inkscape:cx="274.23647"
     inkscape:cy="340.06432"
     inkscape:document-units="mm"
     inkscape:current-layer="layer1"
     showgrid="true"
     inkscape:window-width="1920"
     inkscape:window-height="1137"
     inkscape:window-x="-8"
     inkscape:window-y="-8"
     inkscape:window-maximized="1">
    <inkscape:grid
       type="xygrid"
       id="grid1501"
       empspacing="5" />
  </sodipodi:namedview>
  <metadata
     id="metadata947">
    <rdf:RDF>
      <cc:Work
         rdf:about="">
        <dc:format>image/svg+xml</dc:format>
        <dc:type
           rdf:resource="http://purl.org/dc/dcmitype/StillImage" />
        <dc:title></dc:title>
      </cc:Work>
    </rdf:RDF>
  </metadata>
  <g
     inkscape:label="Ebene 1"
     inkscape:groupmode="layer"
     id="layer1">
    <rect
       style="opacity:1;fill:#000110;fill-opacity:1;stroke:none;stroke-width:0.56499994;stroke-linejoin:round;stroke-miterlimit:4;stroke-dasharray:none;stroke-opacity:1;paint-order:markers fill stroke"
       id="rect1505"
       width="174.99998"
       height="255"
       x="10"
       y="26.999998"
       ry="1.5258785e-05" />
    <path
       style="opacity:1;fill:#ffffff;fill-opacity:1;stroke:none;stroke-width:2.13543272;stroke-linejoin:round;stroke-miterlimit:4;stroke-dasharray:none;stroke-opacity:1;paint-order:markers fill stroke"
       d="M 134.13281 120.94531 A 75.590548 75.590548 0 0 1 134.16211 121.7832 A 75.590548 75.590548 0 0 1 58.572266 197.37305 A 75.590548 75.590548 0 0 1 56.693359 197.2793 L 56.693359 972.40625 A 75.59055 75.59055 0 0 1 131.26953 1046.9297 L 606.29102 1046.9297 A 75.590551 75.590551 0 0 1 680.31445 972.67383 L 680.31445 195.93945 A 75.590549 75.590549 0 0 1 605.77734 120.94531 L 134.13281 120.94531 z "
       transform="scale(0.26458333)"
       id="rect1503" />
    <path
       style="fill:#000000;stroke-width:0.99999994"
       d="m 118.14366,257.49148 c -1.55783,-0.32431 -3.26944,-0.98118 -6.0523,-2.32265 -1.12542,-0.54249 -4.53583,-2.54805 -4.70599,-2.76746 -0.054,-0.0695 -0.98044,-0.73159 -2.05888,-1.47128 -2.2389,-1.53559 -4.71759,-3.36266 -5.29427,-3.90249 -0.215614,-0.20195 -0.877493,-0.7323 -1.470627,-1.17866 -0.593161,-0.44638 -1.182271,-0.89981 -1.309143,-1.00764 -0.28771,-0.24459 -7.14546,-7.0439 -8.168183,-8.09855 l -0.751576,-0.77508 0.4467,-0.85746 c 0.348096,-0.66813 0.451383,-1.2038 0.46778,-2.42613 0.01619,-1.198 0.128765,-1.80032 0.476943,-2.54906 0.340936,-0.73325 0.465119,-1.3759 0.492564,-2.54909 0.02707,-1.15957 0.151455,-1.81311 0.476962,-2.50596 0.242184,-0.51549 0.572703,-1.57433 0.734474,-2.353 0.348608,-1.67786 0.489051,-1.86742 1.093833,-1.47634 0.248175,0.16049 0.742201,0.34868 1.097778,0.41825 0.355604,0.0695 1.035508,0.39408 1.510925,0.72119 0.858062,0.59038 2.277388,0.98006 3.569576,0.98006 0.49378,0 0.91812,0.20288 1.590934,0.76086 1.3652,1.13204 1.6708,1.23633 3.93722,1.3436 1.266,0.06 2.52213,0.24449 3.21339,0.47218 1.31391,0.43274 2.51999,0.36884 4.35548,-0.23067 0.64706,-0.21145 1.9572,-0.43725 2.91142,-0.50196 1.4084,-0.0954 1.81325,-0.19593 2.15104,-0.53373 0.5394,-0.53942 1.60122,-1.0769 2.2604,-1.14418 0.62681,-0.0639 2.05699,-1.46479 2.53763,-2.48559 0.21723,-0.46122 0.59275,-0.8377 1.05095,-1.05345 1.18799,-0.5594 1.84279,-1.55315 2.30514,-3.49861 0.51275,-2.15745 0.51662,-3.24979 0.0186,-5.38369 -0.21561,-0.92503 -0.39215,-1.92941 -0.39215,-2.2319 0,-0.30936 -0.33316,-1.05677 -0.7614,-1.70816 -0.41875,-0.63696 -1.24343,-1.90812 -1.83263,-2.82482 -0.58923,-0.9167 -1.76869,-2.72557 -2.62108,-4.01973 -0.85238,-1.29415 -1.5792,-2.41916 -1.61517,-2.50006 -0.0359,-0.0808 0.20682,-0.14708 0.53925,-0.14708 0.33252,0 0.60458,-0.0933 0.60458,-0.20772 -0.45221,-0.1795 -1.25932,-0.32053 -1.81267,-0.34786 -0.78092,-0.0359 -2.17053,-0.23271 -3.08804,-0.43746 -5.75335,-1.2839 -6.85866,-1.63944 -10.01757,-3.22218 -2.90897,-1.45754 -3.97829,-2.38831 -4.492201,-3.91011 -0.21677,-0.6418 -0.401541,-1.70127 -0.41064,-2.35437 -0.03173,-2.27262 -0.256141,-3.37894 -0.776442,-3.8263 -0.845095,-0.72667 -1.240471,-0.79369 -3.000796,-0.50874 -0.909615,0.1473 -1.830762,0.36242 -2.047001,0.47815 -0.411711,0.22024 -0.658194,-0.0186 -2.268633,-2.19188 -0.652661,-0.88109 -1.859825,-4.92106 -2.561459,-8.57233 -0.259249,-1.34915 -0.621347,-2.82782 -0.804654,-3.28594 -0.518216,-1.29518 -1.957579,-2.4509 -4.071606,-3.26922 -0.993449,-0.38456 -1.879643,-0.69893 -1.969339,-0.6986 -0.394572,9.1e-4 -2.470866,-1.85214 -3.314168,-2.95865 -0.708355,-0.92943 -0.549301,-0.14313 0.258106,1.27599 0.599856,1.05432 1.289033,1.88495 2.401252,2.89411 1.154589,1.04762 1.682188,1.69189 2.030549,2.47965 0.258884,0.58533 0.42862,1.10629 0.377205,1.15771 -0.0514,0.0514 -0.42519,-0.15818 -0.830645,-0.46555 -0.411308,-0.31191 -0.682968,-0.42904 -0.614534,-0.26493 0.0674,0.16189 0.383826,0.9118 0.703078,1.66673 0.957179,2.26338 0.977189,2.48418 0.137563,1.51729 -0.399154,-0.45965 -0.913199,-0.93605 -1.142316,-1.05866 -0.415716,-0.22256 -0.415825,-0.22188 -0.05533,0.34551 0.198708,0.31263 0.55926,0.78905 0.801298,1.05864 0.246391,0.27445 0.485906,0.85685 0.544179,1.32322 0.05716,0.45817 0.377178,1.24538 0.711017,1.74935 0.33382,0.504 0.607802,1.09976 0.608863,1.32392 9.15e-4,0.22419 0.223492,0.88365 0.494393,1.4655 0.270873,0.58187 0.452068,1.09837 0.402666,1.14776 -0.07481,0.0748 -3.297817,-0.50188 -3.37364,-0.60379 -0.215846,-0.28991 -1.767668,-4.96719 -2.051263,-6.18218 -0.626413,-2.68369 -1.42324,-4.3674 -2.492558,-5.26679 -1.189816,-1.00072 -1.467338,-1.13833 -2.883728,-1.43011 -0.647073,-0.13317 -1.264743,-0.26195 -1.372593,-0.28595 -0.107923,-0.0241 -0.444478,-0.14544 -0.748073,-0.26981 -0.303604,-0.12436 -0.670704,-0.22627 -0.815775,-0.22627 -0.144971,0 -0.712846,-0.355 -1.261771,-0.78891 -1.112978,-0.87975 -1.181184,-0.78527 -0.616903,0.85485 0.419347,1.21886 1.120276,2.28815 2.051354,3.12952 l 0.606825,0.54834 -1.274538,-0.11255 c -0.701012,-0.0618 -1.759868,-0.15702 -2.353002,-0.21168 l -1.078472,-0.0994 0.541893,0.48963 c 0.298035,0.26927 0.981633,0.64576 1.519118,0.83668 0.887081,0.31505 1.004753,0.42995 1.275654,1.24554 0.168364,0.50712 0.625417,1.21777 1.049171,1.63155 0.699091,0.68264 0.744872,0.79649 0.665373,1.65382 -0.07874,0.84781 -0.03036,0.97347 0.608488,1.58717 0.68455,0.65749 0.690056,0.67564 0.409342,1.34751 -0.38347,0.91775 -0.384448,0.91365 0.432296,1.81767 l 0.716861,0.7935 -0.807325,0.77574 c -0.513324,0.49326 -0.990971,0.77577 -1.311632,0.77577 -0.277357,0 -0.949058,0.22534 -1.492652,0.50082 -1.27366,0.6454 -1.54713,1.27402 -1.549444,3.56159 l -0.0018,1.72205 -0.970403,1.13366 c -0.575402,0.67218 -1.144822,1.612 -1.398905,2.30889 -0.343294,0.94152 -0.655184,1.37163 -1.568338,2.16268 -1.363466,1.18118 -1.876479,1.95918 -2.063609,3.12947 -0.103753,0.64932 -0.339536,1.07439 -0.919126,1.65764 -0.428702,0.43144 -1.025229,1.31387 -1.325605,1.96094 -0.309713,0.6672 -0.785641,1.33513 -1.099452,1.543 -0.304317,0.20149 -0.896729,0.88798 -1.316478,1.52529 -0.419739,0.63731 -0.835867,1.20371 -0.924759,1.25864 -0.08889,0.0549 -0.416548,-0.25207 -0.728154,-0.68223 -1.133473,-1.56472 -2.514544,-3.02693 -4.343494,-4.59864 -2.37934,-2.04473 -3.441205,-2.86969 -3.69376,-2.86969 -0.110237,0 -0.229976,-0.0785 -0.265899,-0.17462 -0.03594,-0.0961 -0.947732,-0.68046 -2.026195,-1.29866 -1.078473,-0.61819 -1.99341,-1.15308 -2.03322,-1.18862 -0.102134,-0.0913 0.973275,-4.46421 2.455831,-9.98545 3.519369,-13.10684 4.614258,-16.1109 7.182319,-19.70641 1.858856,-2.60261 3.255995,-4.13008 10.337433,-11.30169 l 6.609505,-6.69372 0.442576,0.90923 c 0.24341,0.50008 0.70498,1.65927 1.025732,2.57595 0.320742,0.91672 0.69493,1.84321 0.831523,2.05889 0.13664,0.21561 0.307994,0.78924 0.380882,1.27456 0.230433,1.53388 0.06466,1.51648 4.065487,0.42649 1.982655,-0.54018 4.134269,-1.07654 4.781342,-1.19193 1.008228,-0.17972 5.969109,-0.60714 7.047902,-0.60714 0.276635,0 0.16049,0.21352 -0.506968,0.93138 -1.256604,1.35172 -3.109478,3.68731 -3.109478,3.91957 0,0.28529 0.791769,0.574 3.106817,1.13297 2.46697,0.59563 5.689453,1.83341 7.518285,2.88779 0.745786,0.42998 1.400568,0.73718 1.455092,0.68267 0.05441,-0.0547 -0.677928,-0.68337 -1.627672,-1.39738 -1.623412,-1.22053 -3.570665,-2.28138 -6.530835,-3.55793 -0.701021,-0.3023 -1.345386,-0.60949 -1.431928,-0.68267 -0.08661,-0.0732 0.258665,-0.47692 0.767159,-0.89724 2.336531,-1.93131 3.409925,-2.88049 3.409925,-3.01537 0,-0.15378 -3.765748,-0.69174 -6.274667,-0.89649 -1.284287,-0.10467 -8.604654,0.43386 -11.021974,0.81102 -0.646057,0.10075 -0.738918,0.0623 -0.828761,-0.34359 -0.968455,-4.3752 -1.777253,-7.23972 -2.513501,-8.90192 -0.94101,-2.12454 -2.235284,-6.44904 -2.900958,-9.69294 -0.374297,-1.82404 -0.410265,-2.47263 -0.315173,-5.68642 0.0824,-2.78808 0.218856,-4.15523 0.589339,-5.90782 0.820705,-3.88227 2.327669,-7.86309 4.018636,-10.61569 0.448346,-0.72987 0.81519,-1.46134 0.81519,-1.62549 0,-0.16421 -0.166288,-0.62587 -0.369697,-1.02599 -0.408509,-0.80394 -1.683322,-4.48261 -2.089654,-6.03008 -0.863459,-3.288397 -1.540199,-9.36922 -1.373892,-12.344959 0.436045,-7.801975 1.605605,-12.449787 4.273532,-16.983 0.93941,-1.596195 1.501588,-2.255248 3.679549,-4.313589 3.053976,-2.886252 4.407767,-3.819882 8.37251,-5.77394 3.28033,-1.616767 5.958534,-2.51019 10.422782,-3.476937 2.684206,-0.581257 3.091886,-0.618613 6.301356,-0.57739 2.95869,0.03798 3.83669,0.12761 6.3727,0.649764 3.39768,0.699624 4.34629,0.996576 7.48175,2.341957 L 120,62 l 0.89847,-0.469371 c 0.60736,-0.317286 1.20131,-0.88458 1.83307,-1.750814 0.81911,-1.123143 0.95635,-1.454926 1.11085,-2.685413 0.15469,-1.231645 0.12528,-1.528572 -0.23897,-2.419518 -0.46844,-1.145654 -1.28623,-2.274378 -2.28999,-3.160692 -0.37377,-0.330045 -0.94732,-0.839369 -1.27453,-1.131827 l -0.59491,-0.531702 1.80779,0.666646 c 1.81447,0.669147 3.71244,1.682675 5.76522,3.078707 0.97891,0.665719 1.74095,0.947501 1.74095,0.643741 0,-0.235138 -0.88612,-1.825709 -1.62239,-2.912144 -0.43057,-0.635358 -0.6621,-1.080553 -0.51449,-0.989327 2.85698,1.765702 4.19446,2.86066 5.21371,4.268317 0.40364,0.55745 0.82081,1.073906 0.92706,1.147669 0.30952,0.21492 0.51478,-0.02455 0.41943,-0.489291 -0.0484,-0.236041 -0.13571,-0.870356 -0.19384,-1.409579 -0.0917,-0.848981 -0.0753,-0.914708 0.12159,-0.490217 0.12506,0.269622 0.75067,1.583183 1.39017,2.919045 1.73175,3.617351 2.00923,5.780238 1.20428,9.386963 -0.32662,1.463442 -1.01603,2.879411 -2.1027,4.31871 -0.78639,1.041526 -0.79428,1.068413 -0.56552,1.923815 0.12761,0.477126 0.70459,1.991709 1.28216,3.36572 0.57758,1.373983 1.23316,3.027592 1.45683,3.674666 0.59717,1.727491 1.95546,6.705046 2.16834,7.946094 0.10144,0.590564 0.45684,2.662047 0.79006,4.603275 0.71266,4.15168 1.00209,6.56372 1.00431,8.36938 0.002,1.491397 -0.0748,1.427637 1.96245,1.633287 1.57947,0.15934 2.6389,0.67237 3.5295,1.70885 0.65106,0.75769 0.68529,0.87022 0.66676,2.19087 -0.0208,1.52658 -0.42231,2.56484 -1.34763,3.49017 -0.54448,0.54447 -0.64927,0.57763 -2.99853,0.94873 -1.07723,0.17023 -1.47542,0.32026 -1.63355,0.61574 -0.1151,0.21493 -0.5945,1.6847 -1.06555,3.26621 -1.27196,4.27071 -1.64821,5.19199 -3.40957,8.34882 -1.97149,3.53349 -2.8763,4.86613 -4.47983,6.59809 -2.19344,2.3691 -4.52006,3.87178 -7.41971,4.79207 -0.78581,0.2494 -1.51619,0.50749 -1.62303,0.57354 -0.11232,0.0692 0.34817,1.21555 1.09029,2.71436 1.8533,3.74297 3.55051,8.09218 4.95306,12.69259 0.67403,2.21086 1.40712,4.32856 1.62907,4.70603 0.22187,0.37747 0.87541,1.44587 1.4521,2.37424 0.57667,0.92837 1.04852,1.73334 1.04852,1.7888 0,0.0553 -0.72797,-0.0796 -1.61769,-0.30031 -1.59992,-0.39676 -5.44151,-0.59449 -5.7405,-0.29551 -0.17647,0.17649 0.3101,0.84718 3.01073,4.15047 l 2.23041,2.72812 -0.41412,1.98317 c -0.45854,2.19597 -0.79442,5.74924 -0.79912,8.45393 -0.003,1.90859 0.31001,4.0515 1.67411,11.44951 0.96244,5.21969 1.77165,11.14445 2.56051,18.74738 0.45152,4.35158 0.5113,5.79393 0.53225,12.84349 0.0208,7.0838 -0.0243,8.35431 -0.41953,11.76503 -0.80866,6.97798 -2.59961,14.37483 -5.22237,21.5692 -0.36425,0.99919 -1.79588,3.88481 -2.1238,4.28082 -0.37359,0.45114 -3.33887,1.7723 -4.26038,1.89817 -0.48476,0.0662 -1.05788,0.15054 -1.27358,0.1876 -0.21561,0.037 -1.15402,-0.0913 -2.08517,-0.28522 z m 8.10964,-50.15118 c 4.87074,-5.42709 -2.27367,-12.20107 -7.08658,-9.77999 5.12814,0.3556 9.91793,3.58192 6.54817,9.81719 -0.70032,0.91817 -0.36386,0.89494 0.53841,-0.0373 z m -18.86419,-58.72708 c 0.002,-0.13479 0.30098,-2.23048 0.66429,-4.65701 0.36327,-2.42653 0.63809,-4.43684 0.61066,-4.46739 -0.0273,-0.0306 -0.6131,-0.19616 -1.30154,-0.36798 -2.22527,-0.55553 -10.05197,-4.68987 -13.208182,-6.97705 -0.110465,-0.0799 -0.906615,-0.65776 -1.769387,-1.28391 -1.936724,-1.40558 -2.058868,-1.48027 -2.058868,-1.25896 0,0.33681 3.63038,5.05838 5.686407,7.39562 4.49089,5.10508 10.87711,11.86178 11.21142,11.86178 0.0887,0 0.16305,-0.11025 0.16512,-0.2451 z m 11.55471,-3.25503 c 0.35198,-2.94199 0.12692,-4.43987 -1.0633,-7.07663 -0.55692,-1.23375 -1.10422,-2.27374 -1.21627,-2.31108 -0.11208,-0.0373 -0.58193,0.51259 -1.04418,1.22208 -0.91164,1.39923 -1.09785,1.54672 -2.20513,1.74662 -0.40444,0.073 -0.73532,0.18527 -0.73532,0.24978 0,0.0644 0.38637,0.56928 0.85861,1.12205 0.47224,0.55274 1.45582,1.92994 2.18575,3.06043 2.45762,3.80626 2.6958,4.13902 2.84839,3.97933 0.0836,-0.0875 0.25081,-0.9842 0.37145,-1.99258 z"
       id="path841"
       inkscape:connector-curvature="0"
       sodipodi:nodetypes="ccccccccccccccccccscccccccccccsccscsccccccccccccccccccscccccccccccscccccsscscccccccccccccccsccccccccccccccscscccccccccccscscccccccsccccccccsccccccccccccccccccccscccccccccccccccccccccccccccccccscsscccsccccccccccccccccccccssscccccccscccc" />
    <rect
       style="opacity:1;fill:none;fill-opacity:1;stroke:#bf0000;stroke-width:0.56499994;stroke-linejoin:round;stroke-miterlimit:4;stroke-dasharray:none;stroke-opacity:1;paint-order:markers fill stroke"
       id="rect1507"
       width="185"
       height="265"
       x="5"
       y="22"
       ry="1.5258785e-05" />
  </g>
</svg>
