  0
SECTION
  2
HEADER
  9
$ACADVER
  1
AC1014
  9
$HANDSEED
  5
FFFF
  9
$MEASUREMENT
 70
     1
  0
ENDSEC
  0
SECTION
  2
TABLES
  0
TABLE
  2
VPORT
  5
8
330
0
100
AcDbSymbolTable
 70
     4
  0
VPORT
  5
2E
330
8
100
AcDbSymbolTableRecord
100
AcDbViewportTableRecord
  2
*ACTIVE
 70
     0
 10
0.0
 20
0.0
 11
1.0
 21
1.0
 12
210.0
 22
148.5
 13
0.0
 23
0.0
 14
10.0
 24
10.0
 15
10.0
 25
10.0
 16
0.0
 26
0.0
 36
1.0
 17
0.0
 27
0.0
 37
0.0
 40
341.0
 41
1.24
 42
50.0
 43
0.0
 44
0.0
 50
0.0
 51
0.0
 71
     0
 72
   100
 73
     1
 74
     3
 75
     0
 76
     0
 77
     0
 78
     0
  0
ENDTAB
  0
TABLE
  2
LTYPE
  5
5
330
0
100
AcDbSymbolTable
 70
     1
  0
LTYPE
  5
14
330
5
100
AcDbSymbolTableRecord
100
AcDbLinetypeTableRecord
  2
BYBLOCK
 70
     0
  3

 72
    65
 73
     0
 40
0.0
  0
LTYPE
  5
15
330
5
100
AcDbSymbolTableRecord
100
AcDbLinetypeTableRecord
  2
BYLAYER
 70
     0
  3

 72
    65
 73
     0
 40
0.0
  0
LTYPE
  5
16
330
5
100
AcDbSymbolTableRecord
100
AcDbLinetypeTableRecord
  2
CONTINUOUS
 70
     0
  3
Solid line
 72
    65
 73
     0
 40
0.0
  0
ENDTAB
  0
TABLE
  2
LAYER
  5
2
100
AcDbSymbolTable
 70
2
  0
LAYER
  5
50
100
AcDbSymbolTableRecord
100
AcDbLayerTableRecord
  2
0
 70
0
  6
CONTINUOUS
  0
LAYER
  5
51
100
AcDbSymbolTableRecord
100
AcDbLayerTableRecord
  2
Ebene_1
 70
0
  6
CONTINUOUS
  0
ENDTAB
  0
TABLE
  2
STYLE
  5
3
330
0
100
AcDbSymbolTable
 70
     1
  0
STYLE
  5
11
330
3
100
AcDbSymbolTableRecord
100
AcDbTextStyleTableRecord
  2
STANDARD
 70
     0
 40
0.0
 41
1.0
 50
0.0
 71
     0
 42
2.5
  3
txt
  4

  0
ENDTAB
  0
TABLE
  2
VIEW
  5
6
330
0
100
AcDbSymbolTable
 70
     0
  0
ENDTAB
  0
TABLE
  2
UCS
  5
7
330
0
100
AcDbSymbolTable
 70
     0
  0
ENDTAB
  0
TABLE
  2
APPID
  5
9
330
0
100
AcDbSymbolTable
 70
     2
  0
APPID
  5
12
330
9
100
AcDbSymbolTableRecord
100
AcDbRegAppTableRecord
  2
ACAD
 70
     0
  0
ENDTAB
  0
TABLE
  2
DIMSTYLE
  5
A
330
0
100
AcDbSymbolTable
 70
     1
  0
DIMSTYLE
105
27
330
A
100
AcDbSymbolTableRecord
100
AcDbDimStyleTableRecord
  2
ISO-25
 70
     0
  3

  4

  5

  6

  7

 40
1.0
 41
2.5
 42
0.625
 43
3.75
 44
1.25
 45
0.0
 46
0.0
 47
0.0
 48
0.0
140
2.5
141
2.5
142
0.0
143
0.03937007874016
144
1.0
145
0.0
146
1.0
147
0.625
 71
     0
 72
     0
 73
     0
 74
     0
 75
     0
 76
     0
 77
     1
 78
     8
170
     0
171
     3
172
     1
173
     0
174
     0
175
     0
176
     0
177
     0
178
     0
270
     2
271
     2
272
     2
273
     2
274
     3
340
11
275
     0
280
     0
281
     0
282
     0
283
     0
284
     8
285
     0
286
     0
287
     3
288
     0
  0
ENDTAB
  0
TABLE
  2
BLOCK_RECORD
  5
1
330
0
100
AcDbSymbolTable
 70
     1
  0
BLOCK_RECORD
  5
1F
330
1
100
AcDbSymbolTableRecord
100
AcDbBlockTableRecord
  2
*MODEL_SPACE
  0
BLOCK_RECORD
  5
1B
330
1
100
AcDbSymbolTableRecord
100
AcDbBlockTableRecord
  2
*PAPER_SPACE
  0
ENDTAB
  0
ENDSEC
  0
SECTION
  2
BLOCKS
  0
BLOCK
  5
20
330
1F
100
AcDbEntity
  8
0
100
AcDbBlockBegin
  2
*MODEL_SPACE
 70
     0
 10
0.0
 20
0.0
 30
0.0
  3
*MODEL_SPACE
  1

  0
ENDBLK
  5
21
330
1F
100
AcDbEntity
  8
0
100
AcDbBlockEnd
  0
BLOCK
  5
1C
330
1B
100
AcDbEntity
 67
     1
  8
0
100
AcDbBlockBegin
  2
*PAPER_SPACE
  1

  0
ENDBLK
  5
1D
330
1B
100
AcDbEntity
 67
     1
  8
0
100
AcDbBlockEnd
  0
ENDSEC
  0
SECTION
  2
ENTITIES
  0
SPLINE
  5
100
100
AcDbEntity
  8
Ebene_1
 62
7
100
AcDbSpline
 70
8
 71
3
 72
8
 73
4
 74
0
 40
0
 40
0
 40
0
 40
0
 40
1
 40
1
 40
1
 40
1
 10
35.489306
 20
264.999887
 30
0.0
 10
35.492299
 20
264.926005
 30
0.0
 10
35.494884
 20
264.852106
 30
0.0
 10
35.497058
 20
264.778195
 30
0.0
  0
SPLINE
  5
101
100
AcDbEntity
  8
Ebene_1
 62
7
100
AcDbSpline
 70
8
 71
3
 72
8
 73
4
 74
0
 40
0
 40
0
 40
0
 40
0
 40
1
 40
1
 40
1
 40
1
 10
35.497058
 20
264.778195
 30
0.0
 10
35.496956
 20
253.732646
 30
0.0
 10
26.542795
 20
244.778484
 30
0.0
 10
15.497245
 20
244.778381
 30
0.0
  0
SPLINE
  5
102
100
AcDbEntity
  8
Ebene_1
 62
7
100
AcDbSpline
 70
8
 71
3
 72
8
 73
4
 74
0
 40
0
 40
0
 40
0
 40
0
 40
1
 40
1
 40
1
 40
1
 10
15.497245
 20
244.778381
 30
0.0
 10
15.331440
 20
244.784587
 30
0.0
 10
15.165718
 20
244.792856
 30
0.0
 10
15.000118
 20
244.803186
 30
0.0
  0
SPLINE
  5
103
100
AcDbEntity
  8
Ebene_1
 62
7
100
AcDbSpline
 70
8
 71
3
 72
8
 73
4
 74
0
 40
0
 40
0
 40
0
 40
0
 40
1
 40
1
 40
1
 40
1
 10
15.000118
 20
244.803186
 30
0.0
 10
15.000118
 20
244.803186
 30
0.0
 10
15.000118
 20
39.717516
 30
0.0
 10
15.000118
 20
39.717516
 30
0.0
  0
SPLINE
  5
104
100
AcDbEntity
  8
Ebene_1
 62
7
100
AcDbSpline
 70
8
 71
3
 72
8
 73
4
 74
0
 40
0
 40
0
 40
0
 40
0
 40
1
 40
1
 40
1
 40
1
 10
15.000118
 20
39.717516
 30
0.0
 10
25.831835
 20
39.573214
 30
0.0
 10
34.579767
 20
30.831466
 30
0.0
 10
34.731729
 20
19.999854
 30
0.0
  0
SPLINE
  5
105
100
AcDbEntity
  8
Ebene_1
 62
7
100
AcDbSpline
 70
8
 71
3
 72
8
 73
4
 74
0
 40
0
 40
0
 40
0
 40
0
 40
1
 40
1
 40
1
 40
1
 10
34.731729
 20
19.999854
 30
0.0
 10
34.731729
 20
19.999854
 30
0.0
 10
160.414497
 20
19.999854
 30
0.0
 10
160.414497
 20
19.999854
 30
0.0
  0
SPLINE
  5
106
100
AcDbEntity
  8
Ebene_1
 62
7
100
AcDbSpline
 70
8
 71
3
 72
8
 73
4
 74
0
 40
0
 40
0
 40
0
 40
0
 40
1
 40
1
 40
1
 40
1
 10
160.414497
 20
19.999854
 30
0.0
 10
160.602027
 20
30.748061
 30
0.0
 10
169.252296
 20
39.425492
 30
0.0
 10
179.999863
 20
39.646719
 30
0.0
  0
LWPOLYLINE
  5
107
100
AcDbEntity
  8
Ebene_1
 62
7
100
AcDbPolyline
 90
4
 70
1
 10
10.000000
 20
270.000002
 30
0.0
 10
184.999980
 20
270.000002
 30
0.0
 10
184.999980
 20
15.000002
 30
0.0
 10
10.000000
 20
15.000002
 30
0.0
  0
SPLINE
  5
108
100
AcDbEntity
  8
Ebene_1
 62
7
100
AcDbSpline
 70
8
 71
3
 72
8
 73
4
 74
0
 40
0
 40
0
 40
0
 40
0
 40
1
 40
1
 40
1
 40
1
 10
179.999863
 20
245.157688
 30
0.0
 10
169.124326
 20
245.308935
 30
0.0
 10
160.363350
 20
254.123629
 30
0.0
 10
160.278586
 20
264.999887
 30
0.0
  0
LWPOLYLINE
  5
109
100
AcDbEntity
  8
Ebene_1
 62
7
100
AcDbPolyline
 90
2
 70
0
 10
179.999863
 20
39.646719
 30
0.0
 10
179.999863
 20
245.157688
 30
0.0
  0
SPLINE
  5
10a
100
AcDbEntity
  8
Ebene_1
 62
7
100
AcDbSpline
 70
8
 71
3
 72
8
 73
4
 74
0
 40
0
 40
0
 40
0
 40
0
 40
1
 40
1
 40
1
 40
1
 10
120.411520
 20
39.130540
 30
0.0
 10
118.853690
 20
39.454850
 30
0.0
 10
117.142080
 20
40.111720
 30
0.0
 10
114.359220
 20
41.453190
 30
0.0
  0
SPLINE
  5
10b
100
AcDbEntity
  8
Ebene_1
 62
7
100
AcDbSpline
 70
8
 71
3
 72
8
 73
4
 74
0
 40
0
 40
0
 40
0
 40
0
 40
1
 40
1
 40
1
 40
1
 10
114.359220
 20
41.453190
 30
0.0
 10
113.233800
 20
41.995680
 30
0.0
 10
109.823390
 20
44.001240
 30
0.0
 10
109.653230
 20
44.220650
 30
0.0
  0
SPLINE
  5
10c
100
AcDbEntity
  8
Ebene_1
 62
7
100
AcDbSpline
 70
8
 71
3
 72
8
 73
4
 74
0
 40
0
 40
0
 40
0
 40
0
 40
1
 40
1
 40
1
 40
1
 10
109.653230
 20
44.220650
 30
0.0
 10
109.599230
 20
44.290150
 30
0.0
 10
108.672790
 20
44.952240
 30
0.0
 10
107.594350
 20
45.691930
 30
0.0
  0
SPLINE
  5
10d
100
AcDbEntity
  8
Ebene_1
 62
7
100
AcDbSpline
 70
8
 71
3
 72
8
 73
4
 74
0
 40
0
 40
0
 40
0
 40
0
 40
1
 40
1
 40
1
 40
1
 10
107.594350
 20
45.691930
 30
0.0
 10
105.355450
 20
47.227520
 30
0.0
 10
102.876760
 20
49.054590
 30
0.0
 10
102.300080
 20
49.594420
 30
0.0
  0
SPLINE
  5
10e
100
AcDbEntity
  8
Ebene_1
 62
7
100
AcDbSpline
 70
8
 71
3
 72
8
 73
4
 74
0
 40
0
 40
0
 40
0
 40
0
 40
1
 40
1
 40
1
 40
1
 10
102.300080
 20
49.594420
 30
0.0
 10
102.084460
 20
49.796370
 30
0.0
 10
101.422580
 20
50.326720
 30
0.0
 10
100.829450
 20
50.773080
 30
0.0
  0
SPLINE
  5
10f
100
AcDbEntity
  8
Ebene_1
 62
7
100
AcDbSpline
 70
8
 71
3
 72
8
 73
4
 74
0
 40
0
 40
0
 40
0
 40
0
 40
1
 40
1
 40
1
 40
1
 10
100.829450
 20
50.773080
 30
0.0
 10
100.236290
 20
51.219460
 30
0.0
 10
99.647179
 20
51.672890
 30
0.0
 10
99.520307
 20
51.780720
 30
0.0
  0
SPLINE
  5
110
100
AcDbEntity
  8
Ebene_1
 62
7
100
AcDbSpline
 70
8
 71
3
 72
8
 73
4
 74
0
 40
0
 40
0
 40
0
 40
0
 40
1
 40
1
 40
1
 40
1
 10
99.520307
 20
51.780720
 30
0.0
 10
99.232597
 20
52.025310
 30
0.0
 10
92.374847
 20
58.824620
 30
0.0
 10
91.352124
 20
59.879270
 30
0.0
  0
LWPOLYLINE
  5
111
100
AcDbEntity
  8
Ebene_1
 62
7
100
AcDbPolyline
 90
3
 70
0
 10
160.278586
 20
264.999887
 30
0.0
 10
35.489306
 20
264.999887
 30
0.0
 10
35.489306
 20
264.999887
 30
0.0
  0
SPLINE
  5
112
100
AcDbEntity
  8
Ebene_1
 62
7
100
AcDbSpline
 70
8
 71
3
 72
8
 73
4
 74
0
 40
0
 40
0
 40
0
 40
0
 40
1
 40
1
 40
1
 40
1
 10
91.047248
 20
61.511810
 30
0.0
 10
91.395344
 20
62.179940
 30
0.0
 10
91.498631
 20
62.715610
 30
0.0
 10
91.515028
 20
63.937940
 30
0.0
  0
SPLINE
  5
113
100
AcDbEntity
  8
Ebene_1
 62
7
100
AcDbSpline
 70
8
 71
3
 72
8
 73
4
 74
0
 40
0
 40
0
 40
0
 40
0
 40
1
 40
1
 40
1
 40
1
 10
91.515028
 20
63.937940
 30
0.0
 10
91.531218
 20
65.135940
 30
0.0
 10
91.643793
 20
65.738260
 30
0.0
 10
91.991971
 20
66.487000
 30
0.0
  0
SPLINE
  5
114
100
AcDbEntity
  8
Ebene_1
 62
7
100
AcDbSpline
 70
8
 71
3
 72
8
 73
4
 74
0
 40
0
 40
0
 40
0
 40
0
 40
1
 40
1
 40
1
 40
1
 10
91.991971
 20
66.487000
 30
0.0
 10
92.332907
 20
67.220250
 30
0.0
 10
92.457090
 20
67.862900
 30
0.0
 10
92.484535
 20
69.036090
 30
0.0
  0
SPLINE
  5
115
100
AcDbEntity
  8
Ebene_1
 62
7
100
AcDbSpline
 70
8
 71
3
 72
8
 73
4
 74
0
 40
0
 40
0
 40
0
 40
0
 40
1
 40
1
 40
1
 40
1
 10
92.484535
 20
69.036090
 30
0.0
 10
92.511605
 20
70.195660
 30
0.0
 10
92.635990
 20
70.849200
 30
0.0
 10
92.961497
 20
71.542050
 30
0.0
  0
SPLINE
  5
116
100
AcDbEntity
  8
Ebene_1
 62
7
100
AcDbSpline
 70
8
 71
3
 72
8
 73
4
 74
0
 40
0
 40
0
 40
0
 40
0
 40
1
 40
1
 40
1
 40
1
 10
92.961497
 20
71.542050
 30
0.0
 10
93.203681
 20
72.057540
 30
0.0
 10
93.534200
 20
73.116380
 30
0.0
 10
93.695971
 20
73.895050
 30
0.0
  0
SPLINE
  5
117
100
AcDbEntity
  8
Ebene_1
 62
7
100
AcDbSpline
 70
8
 71
3
 72
8
 73
4
 74
0
 40
0
 40
0
 40
0
 40
0
 40
1
 40
1
 40
1
 40
1
 10
93.695971
 20
73.895050
 30
0.0
 10
94.044579
 20
75.572910
 30
0.0
 10
94.185022
 20
75.762470
 30
0.0
 10
94.789804
 20
75.371390
 30
0.0
  0
SPLINE
  5
118
100
AcDbEntity
  8
Ebene_1
 62
7
100
AcDbSpline
 70
8
 71
3
 72
8
 73
4
 74
0
 40
0
 40
0
 40
0
 40
0
 40
1
 40
1
 40
1
 40
1
 10
94.789804
 20
75.371390
 30
0.0
 10
95.037979
 20
75.210900
 30
0.0
 10
95.532005
 20
75.022710
 30
0.0
 10
95.887582
 20
74.953140
 30
0.0
  0
SPLINE
  5
119
100
AcDbEntity
  8
Ebene_1
 62
7
100
AcDbSpline
 70
8
 71
3
 72
8
 73
4
 74
0
 40
0
 40
0
 40
0
 40
0
 40
1
 40
1
 40
1
 40
1
 10
95.887582
 20
74.953140
 30
0.0
 10
96.243186
 20
74.883640
 30
0.0
 10
96.923090
 20
74.559060
 30
0.0
 10
97.398507
 20
74.231950
 30
0.0
  0
SPLINE
  5
11a
100
AcDbEntity
  8
Ebene_1
 62
7
100
AcDbSpline
 70
8
 71
3
 72
8
 73
4
 74
0
 40
0
 40
0
 40
0
 40
0
 40
1
 40
1
 40
1
 40
1
 10
97.398507
 20
74.231950
 30
0.0
 10
98.256569
 20
73.641570
 30
0.0
 10
99.675895
 20
73.251890
 30
0.0
 10
100.968080
 20
73.251890
 30
0.0
  0
SPLINE
  5
11b
100
AcDbEntity
  8
Ebene_1
 62
7
100
AcDbSpline
 70
8
 71
3
 72
8
 73
4
 74
0
 40
0
 40
0
 40
0
 40
0
 40
1
 40
1
 40
1
 40
1
 10
100.968080
 20
73.251890
 30
0.0
 10
101.461860
 20
73.251890
 30
0.0
 10
101.886200
 20
73.049010
 30
0.0
 10
102.559020
 20
72.491030
 30
0.0
  0
SPLINE
  5
11c
100
AcDbEntity
  8
Ebene_1
 62
7
100
AcDbSpline
 70
8
 71
3
 72
8
 73
4
 74
0
 40
0
 40
0
 40
0
 40
0
 40
1
 40
1
 40
1
 40
1
 10
102.559020
 20
72.491030
 30
0.0
 10
103.924220
 20
71.358990
 30
0.0
 10
104.229820
 20
71.254700
 30
0.0
 10
106.496240
 20
71.147430
 30
0.0
  0
SPLINE
  5
11d
100
AcDbEntity
  8
Ebene_1
 62
7
100
AcDbSpline
 70
8
 71
3
 72
8
 73
4
 74
0
 40
0
 40
0
 40
0
 40
0
 40
1
 40
1
 40
1
 40
1
 10
106.496240
 20
71.147430
 30
0.0
 10
107.762240
 20
71.087430
 30
0.0
 10
109.018370
 20
70.902940
 30
0.0
 10
109.709630
 20
70.675250
 30
0.0
  0
SPLINE
  5
11e
100
AcDbEntity
  8
Ebene_1
 62
7
100
AcDbSpline
 70
8
 71
3
 72
8
 73
4
 74
0
 40
0
 40
0
 40
0
 40
0
 40
1
 40
1
 40
1
 40
1
 10
109.709630
 20
70.675250
 30
0.0
 10
111.023540
 20
70.242510
 30
0.0
 10
112.229620
 20
70.306410
 30
0.0
 10
114.065110
 20
70.905920
 30
0.0
  0
SPLINE
  5
11f
100
AcDbEntity
  8
Ebene_1
 62
7
100
AcDbSpline
 70
8
 71
3
 72
8
 73
4
 74
0
 40
0
 40
0
 40
0
 40
0
 40
1
 40
1
 40
1
 40
1
 10
114.065110
 20
70.905920
 30
0.0
 10
114.712170
 20
71.117370
 30
0.0
 10
116.022310
 20
71.343170
 30
0.0
 10
116.976530
 20
71.407880
 30
0.0
  0
SPLINE
  5
120
100
AcDbEntity
  8
Ebene_1
 62
7
100
AcDbSpline
 70
8
 71
3
 72
8
 73
4
 74
0
 40
0
 40
0
 40
0
 40
0
 40
1
 40
1
 40
1
 40
1
 10
116.976530
 20
71.407880
 30
0.0
 10
118.384930
 20
71.503280
 30
0.0
 10
118.789780
 20
71.603810
 30
0.0
 10
119.127570
 20
71.941610
 30
0.0
  0
SPLINE
  5
121
100
AcDbEntity
  8
Ebene_1
 62
7
100
AcDbSpline
 70
8
 71
3
 72
8
 73
4
 74
0
 40
0
 40
0
 40
0
 40
0
 40
1
 40
1
 40
1
 40
1
 10
119.127570
 20
71.941610
 30
0.0
 10
119.666970
 20
72.481030
 30
0.0
 10
120.728790
 20
73.018510
 30
0.0
 10
121.387970
 20
73.085790
 30
0.0
  0
SPLINE
  5
122
100
AcDbEntity
  8
Ebene_1
 62
7
100
AcDbSpline
 70
8
 71
3
 72
8
 73
4
 74
0
 40
0
 40
0
 40
0
 40
0
 40
1
 40
1
 40
1
 40
1
 10
121.387970
 20
73.085790
 30
0.0
 10
122.014780
 20
73.149690
 30
0.0
 10
123.444960
 20
74.550580
 30
0.0
 10
123.925600
 20
75.571380
 30
0.0
  0
SPLINE
  5
123
100
AcDbEntity
  8
Ebene_1
 62
7
100
AcDbSpline
 70
8
 71
3
 72
8
 73
4
 74
0
 40
0
 40
0
 40
0
 40
0
 40
1
 40
1
 40
1
 40
1
 10
123.925600
 20
75.571380
 30
0.0
 10
124.142830
 20
76.032600
 30
0.0
 10
124.518350
 20
76.409080
 30
0.0
 10
124.976550
 20
76.624830
 30
0.0
  0
SPLINE
  5
124
100
AcDbEntity
  8
Ebene_1
 62
7
100
AcDbSpline
 70
8
 71
3
 72
8
 73
4
 74
0
 40
0
 40
0
 40
0
 40
0
 40
1
 40
1
 40
1
 40
1
 10
124.976550
 20
76.624830
 30
0.0
 10
126.164540
 20
77.184230
 30
0.0
 10
126.819340
 20
78.177980
 30
0.0
 10
127.281690
 20
80.123440
 30
0.0
  0
SPLINE
  5
125
100
AcDbEntity
  8
Ebene_1
 62
7
100
AcDbSpline
 70
8
 71
3
 72
8
 73
4
 74
0
 40
0
 40
0
 40
0
 40
0
 40
1
 40
1
 40
1
 40
1
 10
127.281690
 20
80.123440
 30
0.0
 10
127.794440
 20
82.280890
 30
0.0
 10
127.798310
 20
83.373230
 30
0.0
 10
127.300290
 20
85.507130
 30
0.0
  0
SPLINE
  5
126
100
AcDbEntity
  8
Ebene_1
 62
7
100
AcDbSpline
 70
8
 71
3
 72
8
 73
4
 74
0
 40
0
 40
0
 40
0
 40
0
 40
1
 40
1
 40
1
 40
1
 10
127.300290
 20
85.507130
 30
0.0
 10
127.084680
 20
86.432160
 30
0.0
 10
126.908140
 20
87.436540
 30
0.0
 10
126.908140
 20
87.739030
 30
0.0
  0
SPLINE
  5
127
100
AcDbEntity
  8
Ebene_1
 62
7
100
AcDbSpline
 70
8
 71
3
 72
8
 73
4
 74
0
 40
0
 40
0
 40
0
 40
0
 40
1
 40
1
 40
1
 40
1
 10
126.908140
 20
87.739030
 30
0.0
 10
126.908140
 20
88.048390
 30
0.0
 10
126.574980
 20
88.795800
 30
0.0
 10
126.146740
 20
89.447190
 30
0.0
  0
SPLINE
  5
128
100
AcDbEntity
  8
Ebene_1
 62
7
100
AcDbSpline
 70
8
 71
3
 72
8
 73
4
 74
0
 40
0
 40
0
 40
0
 40
0
 40
1
 40
1
 40
1
 40
1
 10
126.146740
 20
89.447190
 30
0.0
 10
125.727990
 20
90.084150
 30
0.0
 10
124.903310
 20
91.355310
 30
0.0
 10
124.314110
 20
92.272010
 30
0.0
  0
SPLINE
  5
129
100
AcDbEntity
  8
Ebene_1
 62
7
100
AcDbSpline
 70
8
 71
3
 72
8
 73
4
 74
0
 40
0
 40
0
 40
0
 40
0
 40
1
 40
1
 40
1
 40
1
 10
124.314110
 20
92.272010
 30
0.0
 10
123.724880
 20
93.188710
 30
0.0
 10
122.545420
 20
94.997580
 30
0.0
 10
121.693030
 20
96.291740
 30
0.0
  0
SPLINE
  5
12a
100
AcDbEntity
  8
Ebene_1
 62
7
100
AcDbSpline
 70
8
 71
3
 72
8
 73
4
 74
0
 40
0
 40
0
 40
0
 40
0
 40
1
 40
1
 40
1
 40
1
 10
121.693030
 20
96.291740
 30
0.0
 10
120.840650
 20
97.585890
 30
0.0
 10
120.775290
 20
97.671470
 30
0.0
 10
120.432210
 20
98.248460
 30
0.0
  0
SPLINE
  5
12b
100
AcDbEntity
  8
Ebene_1
 62
7
100
AcDbSpline
 70
8
 71
3
 72
8
 73
4
 74
0
 40
0
 40
0
 40
0
 40
0
 40
1
 40
1
 40
1
 40
1
 10
120.432210
 20
98.248460
 30
0.0
 10
119.893760
 20
99.004850
 30
0.0
 10
119.876960
 20
98.892370
 30
0.0
 10
119.408980
 20
99.494460
 30
0.0
  0
SPLINE
  5
12c
100
AcDbEntity
  8
Ebene_1
 62
7
100
AcDbSpline
 70
8
 71
3
 72
8
 73
4
 74
0
 40
0
 40
0
 40
0
 40
0
 40
1
 40
1
 40
1
 40
1
 10
119.408980
 20
99.494460
 30
0.0
 10
118.628060
 20
99.530360
 30
0.0
 10
117.238450
 20
99.727170
 30
0.0
 10
116.320940
 20
99.931920
 30
0.0
  0
SPLINE
  5
12d
100
AcDbEntity
  8
Ebene_1
 62
7
100
AcDbSpline
 70
8
 71
3
 72
8
 73
4
 74
0
 40
0
 40
0
 40
0
 40
0
 40
1
 40
1
 40
1
 40
1
 10
116.320940
 20
99.931920
 30
0.0
 10
110.567590
 20
101.215820
 30
0.0
 10
109.462280
 20
101.571360
 30
0.0
 10
106.303370
 20
103.154100
 30
0.0
  0
SPLINE
  5
12e
100
AcDbEntity
  8
Ebene_1
 62
7
100
AcDbSpline
 70
8
 71
3
 72
8
 73
4
 74
0
 40
0
 40
0
 40
0
 40
0
 40
1
 40
1
 40
1
 40
1
 10
106.303370
 20
103.154100
 30
0.0
 10
103.394400
 20
104.611640
 30
0.0
 10
102.325080
 20
105.542410
 30
0.0
 10
101.811170
 20
107.064210
 30
0.0
  0
SPLINE
  5
12f
100
AcDbEntity
  8
Ebene_1
 62
7
100
AcDbSpline
 70
8
 71
3
 72
8
 73
4
 74
0
 40
0
 40
0
 40
0
 40
0
 40
1
 40
1
 40
1
 40
1
 10
101.811170
 20
107.064210
 30
0.0
 10
101.594400
 20
107.706010
 30
0.0
 10
101.409630
 20
108.765480
 30
0.0
 10
101.400530
 20
109.418580
 30
0.0
  0
SPLINE
  5
130
100
AcDbEntity
  8
Ebene_1
 62
7
100
AcDbSpline
 70
8
 71
3
 72
8
 73
4
 74
0
 40
0
 40
0
 40
0
 40
0
 40
1
 40
1
 40
1
 40
1
 10
101.400530
 20
109.418580
 30
0.0
 10
101.368830
 20
111.691200
 30
0.0
 10
101.144390
 20
112.797520
 30
0.0
 10
100.624080
 20
113.244880
 30
0.0
  0
SPLINE
  5
131
100
AcDbEntity
  8
Ebene_1
 62
7
100
AcDbSpline
 70
8
 71
3
 72
8
 73
4
 74
0
 40
0
 40
0
 40
0
 40
0
 40
1
 40
1
 40
1
 40
1
 10
100.624080
 20
113.244880
 30
0.0
 10
99.778989
 20
113.971550
 30
0.0
 10
99.383613
 20
114.038570
 30
0.0
 10
97.623288
 20
113.753620
 30
0.0
  0
SPLINE
  5
132
100
AcDbEntity
  8
Ebene_1
 62
7
100
AcDbSpline
 70
8
 71
3
 72
8
 73
4
 74
0
 40
0
 40
0
 40
0
 40
0
 40
1
 40
1
 40
1
 40
1
 10
97.623288
 20
113.753620
 30
0.0
 10
96.713673
 20
113.606320
 30
0.0
 10
95.792526
 20
113.391200
 30
0.0
 10
95.576287
 20
113.275470
 30
0.0
  0
SPLINE
  5
133
100
AcDbEntity
  8
Ebene_1
 62
7
100
AcDbSpline
 70
8
 71
3
 72
8
 73
4
 74
0
 40
0
 40
0
 40
0
 40
0
 40
1
 40
1
 40
1
 40
1
 10
95.576287
 20
113.275470
 30
0.0
 10
95.164576
 20
113.055230
 30
0.0
 10
94.918093
 20
113.294070
 30
0.0
 10
93.307654
 20
115.467350
 30
0.0
  0
SPLINE
  5
134
100
AcDbEntity
  8
Ebene_1
 62
7
100
AcDbSpline
 70
8
 71
3
 72
8
 73
4
 74
0
 40
0
 40
0
 40
0
 40
0
 40
1
 40
1
 40
1
 40
1
 10
93.307654
 20
115.467350
 30
0.0
 10
92.654993
 20
116.348440
 30
0.0
 10
91.447829
 20
120.388410
 30
0.0
 10
90.746195
 20
124.039680
 30
0.0
  0
SPLINE
  5
135
100
AcDbEntity
  8
Ebene_1
 62
7
100
AcDbSpline
 70
8
 71
3
 72
8
 73
4
 74
0
 40
0
 40
0
 40
0
 40
0
 40
1
 40
1
 40
1
 40
1
 10
90.746195
 20
124.039680
 30
0.0
 10
90.486946
 20
125.388830
 30
0.0
 10
90.124848
 20
126.867500
 30
0.0
 10
89.941541
 20
127.325620
 30
0.0
  0
SPLINE
  5
136
100
AcDbEntity
  8
Ebene_1
 62
7
100
AcDbSpline
 70
8
 71
3
 72
8
 73
4
 74
0
 40
0
 40
0
 40
0
 40
0
 40
1
 40
1
 40
1
 40
1
 10
89.941541
 20
127.325620
 30
0.0
 10
89.423325
 20
128.620800
 30
0.0
 10
87.983962
 20
129.776520
 30
0.0
 10
85.869935
 20
130.594840
 30
0.0
  0
SPLINE
  5
137
100
AcDbEntity
  8
Ebene_1
 62
7
100
AcDbSpline
 70
8
 71
3
 72
8
 73
4
 74
0
 40
0
 40
0
 40
0
 40
0
 40
1
 40
1
 40
1
 40
1
 10
85.869935
 20
130.594840
 30
0.0
 10
84.876486
 20
130.979400
 30
0.0
 10
83.990292
 20
131.293770
 30
0.0
 10
83.900596
 20
131.293440
 30
0.0
  0
SPLINE
  5
138
100
AcDbEntity
  8
Ebene_1
 62
7
100
AcDbSpline
 70
8
 71
3
 72
8
 73
4
 74
0
 40
0
 40
0
 40
0
 40
0
 40
1
 40
1
 40
1
 40
1
 10
83.900596
 20
131.293440
 30
0.0
 10
83.506024
 20
131.292530
 30
0.0
 10
81.429730
 20
133.145580
 30
0.0
 10
80.586428
 20
134.252090
 30
0.0
  0
SPLINE
  5
139
100
AcDbEntity
  8
Ebene_1
 62
7
100
AcDbSpline
 70
8
 71
3
 72
8
 73
4
 74
0
 40
0
 40
0
 40
0
 40
0
 40
1
 40
1
 40
1
 40
1
 10
80.586428
 20
134.252090
 30
0.0
 10
79.878073
 20
135.181520
 30
0.0
 10
80.037127
 20
134.395220
 30
0.0
 10
80.844534
 20
132.976100
 30
0.0
  0
SPLINE
  5
13a
100
AcDbEntity
  8
Ebene_1
 62
7
100
AcDbSpline
 70
8
 71
3
 72
8
 73
4
 74
0
 40
0
 40
0
 40
0
 40
0
 40
1
 40
1
 40
1
 40
1
 10
80.844534
 20
132.976100
 30
0.0
 10
81.444390
 20
131.921780
 30
0.0
 10
82.133567
 20
131.091150
 30
0.0
 10
83.245786
 20
130.081990
 30
0.0
  0
SPLINE
  5
13b
100
AcDbEntity
  8
Ebene_1
 62
7
100
AcDbSpline
 70
8
 71
3
 72
8
 73
4
 74
0
 40
0
 40
0
 40
0
 40
0
 40
1
 40
1
 40
1
 40
1
 10
83.245786
 20
130.081990
 30
0.0
 10
84.400375
 20
129.034370
 30
0.0
 10
84.927974
 20
128.390100
 30
0.0
 10
85.276335
 20
127.602340
 30
0.0
  0
SPLINE
  5
13c
100
AcDbEntity
  8
Ebene_1
 62
7
100
AcDbSpline
 70
8
 71
3
 72
8
 73
4
 74
0
 40
0
 40
0
 40
0
 40
0
 40
1
 40
1
 40
1
 40
1
 10
85.276335
 20
127.602340
 30
0.0
 10
85.535219
 20
127.017010
 30
0.0
 10
85.704955
 20
126.496050
 30
0.0
 10
85.653540
 20
126.444630
 30
0.0
  0
SPLINE
  5
13d
100
AcDbEntity
  8
Ebene_1
 62
7
100
AcDbSpline
 70
8
 71
3
 72
8
 73
4
 74
0
 40
0
 40
0
 40
0
 40
0
 40
1
 40
1
 40
1
 40
1
 10
85.653540
 20
126.444630
 30
0.0
 10
85.602140
 20
126.393230
 30
0.0
 10
85.228350
 20
126.602810
 30
0.0
 10
84.822895
 20
126.910180
 30
0.0
  0
SPLINE
  5
13e
100
AcDbEntity
  8
Ebene_1
 62
7
100
AcDbSpline
 70
8
 71
3
 72
8
 73
4
 74
0
 40
0
 40
0
 40
0
 40
0
 40
1
 40
1
 40
1
 40
1
 10
84.822895
 20
126.910180
 30
0.0
 10
84.411587
 20
127.222090
 30
0.0
 10
84.139927
 20
127.339220
 30
0.0
 10
84.208361
 20
127.175110
 30
0.0
  0
SPLINE
  5
13f
100
AcDbEntity
  8
Ebene_1
 62
7
100
AcDbSpline
 70
8
 71
3
 72
8
 73
4
 74
0
 40
0
 40
0
 40
0
 40
0
 40
1
 40
1
 40
1
 40
1
 10
84.208361
 20
127.175110
 30
0.0
 10
84.275761
 20
127.013220
 30
0.0
 10
84.592187
 20
126.263310
 30
0.0
 10
84.911439
 20
125.508380
 30
0.0
  0
SPLINE
  5
140
100
AcDbEntity
  8
Ebene_1
 62
7
100
AcDbSpline
 70
8
 71
3
 72
8
 73
4
 74
0
 40
0
 40
0
 40
0
 40
0
 40
1
 40
1
 40
1
 40
1
 10
84.911439
 20
125.508380
 30
0.0
 10
85.868618
 20
123.245000
 30
0.0
 10
85.888628
 20
123.024200
 30
0.0
 10
85.049002
 20
123.991090
 30
0.0
  0
SPLINE
  5
141
100
AcDbEntity
  8
Ebene_1
 62
7
100
AcDbSpline
 70
8
 71
3
 72
8
 73
4
 74
0
 40
0
 40
0
 40
0
 40
0
 40
1
 40
1
 40
1
 40
1
 10
85.049002
 20
123.991090
 30
0.0
 10
84.649848
 20
124.450740
 30
0.0
 10
84.135803
 20
124.927140
 30
0.0
 10
83.906686
 20
125.049750
 30
0.0
  0
SPLINE
  5
142
100
AcDbEntity
  8
Ebene_1
 62
7
100
AcDbSpline
 70
8
 71
3
 72
8
 73
4
 74
0
 40
0
 40
0
 40
0
 40
0
 40
1
 40
1
 40
1
 40
1
 10
83.906686
 20
125.049750
 30
0.0
 10
83.490970
 20
125.272310
 30
0.0
 10
83.490861
 20
125.271630
 30
0.0
 10
83.851356
 20
124.704240
 30
0.0
  0
SPLINE
  5
143
100
AcDbEntity
  8
Ebene_1
 62
7
100
AcDbSpline
 70
8
 71
3
 72
8
 73
4
 74
0
 40
0
 40
0
 40
0
 40
0
 40
1
 40
1
 40
1
 40
1
 10
83.851356
 20
124.704240
 30
0.0
 10
84.050064
 20
124.391610
 30
0.0
 10
84.410616
 20
123.915190
 30
0.0
 10
84.652654
 20
123.645600
 30
0.0
  0
SPLINE
  5
144
100
AcDbEntity
  8
Ebene_1
 62
7
100
AcDbSpline
 70
8
 71
3
 72
8
 73
4
 74
0
 40
0
 40
0
 40
0
 40
0
 40
1
 40
1
 40
1
 40
1
 10
84.652654
 20
123.645600
 30
0.0
 10
84.899045
 20
123.371150
 30
0.0
 10
85.138560
 20
122.788750
 30
0.0
 10
85.196833
 20
122.322380
 30
0.0
  0
SPLINE
  5
145
100
AcDbEntity
  8
Ebene_1
 62
7
100
AcDbSpline
 70
8
 71
3
 72
8
 73
4
 74
0
 40
0
 40
0
 40
0
 40
0
 40
1
 40
1
 40
1
 40
1
 10
85.196833
 20
122.322380
 30
0.0
 10
85.253993
 20
121.864210
 30
0.0
 10
85.574011
 20
121.077000
 30
0.0
 10
85.907850
 20
120.573030
 30
0.0
  0
SPLINE
  5
146
100
AcDbEntity
  8
Ebene_1
 62
7
100
AcDbSpline
 70
8
 71
3
 72
8
 73
4
 74
0
 40
0
 40
0
 40
0
 40
0
 40
1
 40
1
 40
1
 40
1
 10
85.907850
 20
120.573030
 30
0.0
 10
86.241670
 20
120.069030
 30
0.0
 10
86.515652
 20
119.473270
 30
0.0
 10
86.516713
 20
119.249110
 30
0.0
  0
SPLINE
  5
147
100
AcDbEntity
  8
Ebene_1
 62
7
100
AcDbSpline
 70
8
 71
3
 72
8
 73
4
 74
0
 40
0
 40
0
 40
0
 40
0
 40
1
 40
1
 40
1
 40
1
 10
86.516713
 20
119.249110
 30
0.0
 10
86.517628
 20
119.024920
 30
0.0
 10
86.740205
 20
118.365460
 30
0.0
 10
87.011106
 20
117.783610
 30
0.0
  0
SPLINE
  5
148
100
AcDbEntity
  8
Ebene_1
 62
7
100
AcDbSpline
 70
8
 71
3
 72
8
 73
4
 74
0
 40
0
 40
0
 40
0
 40
0
 40
1
 40
1
 40
1
 40
1
 10
87.011106
 20
117.783610
 30
0.0
 10
87.281979
 20
117.201740
 30
0.0
 10
87.463174
 20
116.685240
 30
0.0
 10
87.413772
 20
116.635850
 30
0.0
  0
SPLINE
  5
149
100
AcDbEntity
  8
Ebene_1
 62
7
100
AcDbSpline
 70
8
 71
3
 72
8
 73
4
 74
0
 40
0
 40
0
 40
0
 40
0
 40
1
 40
1
 40
1
 40
1
 10
87.413772
 20
116.635850
 30
0.0
 10
87.338962
 20
116.561050
 30
0.0
 10
84.115955
 20
117.137730
 30
0.0
 10
84.040132
 20
117.239640
 30
0.0
  0
SPLINE
  5
14a
100
AcDbEntity
  8
Ebene_1
 62
7
100
AcDbSpline
 70
8
 71
3
 72
8
 73
4
 74
0
 40
0
 40
0
 40
0
 40
0
 40
1
 40
1
 40
1
 40
1
 10
84.040132
 20
117.239640
 30
0.0
 10
83.824286
 20
117.529550
 30
0.0
 10
82.272464
 20
122.206830
 30
0.0
 10
81.988869
 20
123.421820
 30
0.0
  0
SPLINE
  5
14b
100
AcDbEntity
  8
Ebene_1
 62
7
100
AcDbSpline
 70
8
 71
3
 72
8
 73
4
 74
0
 40
0
 40
0
 40
0
 40
0
 40
1
 40
1
 40
1
 40
1
 10
81.988869
 20
123.421820
 30
0.0
 10
81.362456
 20
126.105510
 30
0.0
 10
80.565629
 20
127.789220
 30
0.0
 10
79.496311
 20
128.688610
 30
0.0
  0
SPLINE
  5
14c
100
AcDbEntity
  8
Ebene_1
 62
7
100
AcDbSpline
 70
8
 71
3
 72
8
 73
4
 74
0
 40
0
 40
0
 40
0
 40
0
 40
1
 40
1
 40
1
 40
1
 10
79.496311
 20
128.688610
 30
0.0
 10
78.306495
 20
129.689330
 30
0.0
 10
78.028973
 20
129.826940
 30
0.0
 10
76.612583
 20
130.118720
 30
0.0
  0
SPLINE
  5
14d
100
AcDbEntity
  8
Ebene_1
 62
7
100
AcDbSpline
 70
8
 71
3
 72
8
 73
4
 74
0
 40
0
 40
0
 40
0
 40
0
 40
1
 40
1
 40
1
 40
1
 10
76.612583
 20
130.118720
 30
0.0
 10
75.965510
 20
130.251890
 30
0.0
 10
75.347840
 20
130.380670
 30
0.0
 10
75.239990
 20
130.404670
 30
0.0
  0
SPLINE
  5
14e
100
AcDbEntity
  8
Ebene_1
 62
7
100
AcDbSpline
 70
8
 71
3
 72
8
 73
4
 74
0
 40
0
 40
0
 40
0
 40
0
 40
1
 40
1
 40
1
 40
1
 10
75.239990
 20
130.404670
 30
0.0
 10
75.132067
 20
130.428770
 30
0.0
 10
74.795512
 20
130.550110
 30
0.0
 10
74.491917
 20
130.674480
 30
0.0
  0
SPLINE
  5
14f
100
AcDbEntity
  8
Ebene_1
 62
7
100
AcDbSpline
 70
8
 71
3
 72
8
 73
4
 74
0
 40
0
 40
0
 40
0
 40
0
 40
1
 40
1
 40
1
 40
1
 10
74.491917
 20
130.674480
 30
0.0
 10
74.188313
 20
130.798840
 30
0.0
 10
73.821213
 20
130.900750
 30
0.0
 10
73.676142
 20
130.900750
 30
0.0
  0
SPLINE
  5
150
100
AcDbEntity
  8
Ebene_1
 62
7
100
AcDbSpline
 70
8
 71
3
 72
8
 73
4
 74
0
 40
0
 40
0
 40
0
 40
0
 40
1
 40
1
 40
1
 40
1
 10
73.676142
 20
130.900750
 30
0.0
 10
73.531171
 20
130.900750
 30
0.0
 10
72.963296
 20
131.255750
 30
0.0
 10
72.414371
 20
131.689660
 30
0.0
  0
SPLINE
  5
151
100
AcDbEntity
  8
Ebene_1
 62
7
100
AcDbSpline
 70
8
 71
3
 72
8
 73
4
 74
0
 40
0
 40
0
 40
0
 40
0
 40
1
 40
1
 40
1
 40
1
 10
72.414371
 20
131.689660
 30
0.0
 10
71.301393
 20
132.569410
 30
0.0
 10
71.233187
 20
132.474930
 30
0.0
 10
71.797468
 20
130.834810
 30
0.0
  0
SPLINE
  5
152
100
AcDbEntity
  8
Ebene_1
 62
7
100
AcDbSpline
 70
8
 71
3
 72
8
 73
4
 74
0
 40
0
 40
0
 40
0
 40
0
 40
1
 40
1
 40
1
 40
1
 10
71.797468
 20
130.834810
 30
0.0
 10
72.216815
 20
129.615950
 30
0.0
 10
72.917744
 20
128.546660
 30
0.0
 10
73.848822
 20
127.705290
 30
0.0
  0
LWPOLYLINE
  5
153
100
AcDbEntity
  8
Ebene_1
 62
7
100
AcDbPolyline
 90
3
 70
0
 10
91.352124
 20
59.879270
 30
0.0
 10
90.600548
 20
60.654350
 30
0.0
 10
91.047248
 20
61.511810
 30
0.0
  0
SPLINE
  5
154
100
AcDbEntity
  8
Ebene_1
 62
7
100
AcDbSpline
 70
8
 71
3
 72
8
 73
4
 74
0
 40
0
 40
0
 40
0
 40
0
 40
1
 40
1
 40
1
 40
1
 10
73.181109
 20
127.269500
 30
0.0
 10
72.480097
 20
127.331300
 30
0.0
 10
71.421241
 20
127.426520
 30
0.0
 10
70.828107
 20
127.481180
 30
0.0
  0
LWPOLYLINE
  5
155
100
AcDbEntity
  8
Ebene_1
 62
7
100
AcDbPolyline
 90
3
 70
0
 10
73.848822
 20
127.705290
 30
0.0
 10
74.455647
 20
127.156950
 30
0.0
 10
73.181109
 20
127.269500
 30
0.0
  0
SPLINE
  5
156
100
AcDbEntity
  8
Ebene_1
 62
7
100
AcDbSpline
 70
8
 71
3
 72
8
 73
4
 74
0
 40
0
 40
0
 40
0
 40
0
 40
1
 40
1
 40
1
 40
1
 10
70.291528
 20
127.090950
 30
0.0
 10
70.589563
 20
126.821680
 30
0.0
 10
71.273161
 20
126.445190
 30
0.0
 10
71.810646
 20
126.254270
 30
0.0
  0
SPLINE
  5
157
100
AcDbEntity
  8
Ebene_1
 62
7
100
AcDbSpline
 70
8
 71
3
 72
8
 73
4
 74
0
 40
0
 40
0
 40
0
 40
0
 40
1
 40
1
 40
1
 40
1
 10
71.810646
 20
126.254270
 30
0.0
 10
72.697727
 20
125.939220
 30
0.0
 10
72.815399
 20
125.824320
 30
0.0
 10
73.086300
 20
125.008730
 30
0.0
  0
SPLINE
  5
158
100
AcDbEntity
  8
Ebene_1
 62
7
100
AcDbSpline
 70
8
 71
3
 72
8
 73
4
 74
0
 40
0
 40
0
 40
0
 40
0
 40
1
 40
1
 40
1
 40
1
 10
73.086300
 20
125.008730
 30
0.0
 10
73.254664
 20
124.501610
 30
0.0
 10
73.711717
 20
123.790960
 30
0.0
 10
74.135471
 20
123.377180
 30
0.0
  0
SPLINE
  5
159
100
AcDbEntity
  8
Ebene_1
 62
7
100
AcDbSpline
 70
8
 71
3
 72
8
 73
4
 74
0
 40
0
 40
0
 40
0
 40
0
 40
1
 40
1
 40
1
 40
1
 10
74.135471
 20
123.377180
 30
0.0
 10
74.834562
 20
122.694540
 30
0.0
 10
74.880343
 20
122.580690
 30
0.0
 10
74.800844
 20
121.723360
 30
0.0
  0
SPLINE
  5
15a
100
AcDbEntity
  8
Ebene_1
 62
7
100
AcDbSpline
 70
8
 71
3
 72
8
 73
4
 74
0
 40
0
 40
0
 40
0
 40
0
 40
1
 40
1
 40
1
 40
1
 10
74.800844
 20
121.723360
 30
0.0
 10
74.722104
 20
120.875550
 30
0.0
 10
74.770484
 20
120.749890
 30
0.0
 10
75.409332
 20
120.136190
 30
0.0
  0
SPLINE
  5
15b
100
AcDbEntity
  8
Ebene_1
 62
7
100
AcDbSpline
 70
8
 71
3
 72
8
 73
4
 74
0
 40
0
 40
0
 40
0
 40
0
 40
1
 40
1
 40
1
 40
1
 10
75.409332
 20
120.136190
 30
0.0
 10
76.093882
 20
119.478700
 30
0.0
 10
76.099388
 20
119.460550
 30
0.0
 10
75.818674
 20
118.788680
 30
0.0
  0
SPLINE
  5
15c
100
AcDbEntity
  8
Ebene_1
 62
7
100
AcDbSpline
 70
8
 71
3
 72
8
 73
4
 74
0
 40
0
 40
0
 40
0
 40
0
 40
1
 40
1
 40
1
 40
1
 10
75.818674
 20
118.788680
 30
0.0
 10
75.435204
 20
117.870930
 30
0.0
 10
75.434226
 20
117.875030
 30
0.0
 10
76.250970
 20
116.971010
 30
0.0
  0
LWPOLYLINE
  5
15d
100
AcDbEntity
  8
Ebene_1
 62
7
100
AcDbPolyline
 90
3
 70
0
 10
70.828107
 20
127.481180
 30
0.0
 10
69.749635
 20
127.580580
 30
0.0
 10
70.291528
 20
127.090950
 30
0.0
  0
SPLINE
  5
15e
100
AcDbEntity
  8
Ebene_1
 62
7
100
AcDbSpline
 70
8
 71
3
 72
8
 73
4
 74
0
 40
0
 40
0
 40
0
 40
0
 40
1
 40
1
 40
1
 40
1
 10
76.160506
 20
115.401770
 30
0.0
 10
75.647182
 20
114.908510
 30
0.0
 10
75.169535
 20
114.626000
 30
0.0
 10
74.848874
 20
114.626000
 30
0.0
  0
SPLINE
  5
15f
100
AcDbEntity
  8
Ebene_1
 62
7
100
AcDbSpline
 70
8
 71
3
 72
8
 73
4
 74
0
 40
0
 40
0
 40
0
 40
0
 40
1
 40
1
 40
1
 40
1
 10
74.848874
 20
114.626000
 30
0.0
 10
74.571517
 20
114.626000
 30
0.0
 10
73.899816
 20
114.400660
 30
0.0
 10
73.356222
 20
114.125180
 30
0.0
  0
SPLINE
  5
160
100
AcDbEntity
  8
Ebene_1
 62
7
100
AcDbSpline
 70
8
 71
3
 72
8
 73
4
 74
0
 40
0
 40
0
 40
0
 40
0
 40
1
 40
1
 40
1
 40
1
 10
73.356222
 20
114.125180
 30
0.0
 10
72.082562
 20
113.479780
 30
0.0
 10
71.809092
 20
112.851160
 30
0.0
 10
71.806778
 20
110.563590
 30
0.0
  0
LWPOLYLINE
  5
161
100
AcDbEntity
  8
Ebene_1
 62
7
100
AcDbPolyline
 90
3
 70
0
 10
76.250970
 20
116.971010
 30
0.0
 10
76.967831
 20
116.177510
 30
0.0
 10
76.160506
 20
115.401770
 30
0.0
  0
SPLINE
  5
162
100
AcDbEntity
  8
Ebene_1
 62
7
100
AcDbSpline
 70
8
 71
3
 72
8
 73
4
 74
0
 40
0
 40
0
 40
0
 40
0
 40
1
 40
1
 40
1
 40
1
 10
70.834575
 20
107.707880
 30
0.0
 10
70.259173
 20
107.035700
 30
0.0
 10
69.689753
 20
106.095880
 30
0.0
 10
69.435670
 20
105.398990
 30
0.0
  0
SPLINE
  5
163
100
AcDbEntity
  8
Ebene_1
 62
7
100
AcDbSpline
 70
8
 71
3
 72
8
 73
4
 74
0
 40
0
 40
0
 40
0
 40
0
 40
1
 40
1
 40
1
 40
1
 10
69.435670
 20
105.398990
 30
0.0
 10
69.092376
 20
104.457470
 30
0.0
 10
68.780486
 20
104.027360
 30
0.0
 10
67.867332
 20
103.236310
 30
0.0
  0
SPLINE
  5
164
100
AcDbEntity
  8
Ebene_1
 62
7
100
AcDbSpline
 70
8
 71
3
 72
8
 73
4
 74
0
 40
0
 40
0
 40
0
 40
0
 40
1
 40
1
 40
1
 40
1
 10
67.867332
 20
103.236310
 30
0.0
 10
66.503866
 20
102.055130
 30
0.0
 10
65.990853
 20
101.277130
 30
0.0
 10
65.803723
 20
100.106840
 30
0.0
  0
SPLINE
  5
165
100
AcDbEntity
  8
Ebene_1
 62
7
100
AcDbSpline
 70
8
 71
3
 72
8
 73
4
 74
0
 40
0
 40
0
 40
0
 40
0
 40
1
 40
1
 40
1
 40
1
 10
65.803723
 20
100.106840
 30
0.0
 10
65.699970
 20
99.457520
 30
0.0
 10
65.464187
 20
99.032450
 30
0.0
 10
64.884597
 20
98.449200
 30
0.0
  0
SPLINE
  5
166
100
AcDbEntity
  8
Ebene_1
 62
7
100
AcDbSpline
 70
8
 71
3
 72
8
 73
4
 74
0
 40
0
 40
0
 40
0
 40
0
 40
1
 40
1
 40
1
 40
1
 10
64.884597
 20
98.449200
 30
0.0
 10
64.455895
 20
98.017760
 30
0.0
 10
63.859368
 20
97.135330
 30
0.0
 10
63.558992
 20
96.488260
 30
0.0
  0
SPLINE
  5
167
100
AcDbEntity
  8
Ebene_1
 62
7
100
AcDbSpline
 70
8
 71
3
 72
8
 73
4
 74
0
 40
0
 40
0
 40
0
 40
0
 40
1
 40
1
 40
1
 40
1
 10
63.558992
 20
96.488260
 30
0.0
 10
63.249279
 20
95.821060
 30
0.0
 10
62.773351
 20
95.153130
 30
0.0
 10
62.459540
 20
94.945260
 30
0.0
  0
SPLINE
  5
168
100
AcDbEntity
  8
Ebene_1
 62
7
100
AcDbSpline
 70
8
 71
3
 72
8
 73
4
 74
0
 40
0
 40
0
 40
0
 40
0
 40
1
 40
1
 40
1
 40
1
 10
62.459540
 20
94.945260
 30
0.0
 10
62.155223
 20
94.743770
 30
0.0
 10
61.562811
 20
94.057280
 30
0.0
 10
61.143062
 20
93.419970
 30
0.0
  0
SPLINE
  5
169
100
AcDbEntity
  8
Ebene_1
 62
7
100
AcDbSpline
 70
8
 71
3
 72
8
 73
4
 74
0
 40
0
 40
0
 40
0
 40
0
 40
1
 40
1
 40
1
 40
1
 10
61.143062
 20
93.419970
 30
0.0
 10
60.723323
 20
92.782660
 30
0.0
 10
60.307195
 20
92.216260
 30
0.0
 10
60.218303
 20
92.161330
 30
0.0
  0
SPLINE
  5
16a
100
AcDbEntity
  8
Ebene_1
 62
7
100
AcDbSpline
 70
8
 71
3
 72
8
 73
4
 74
0
 40
0
 40
0
 40
0
 40
0
 40
1
 40
1
 40
1
 40
1
 10
60.218303
 20
92.161330
 30
0.0
 10
60.129413
 20
92.106430
 30
0.0
 10
59.801755
 20
92.413400
 30
0.0
 10
59.490149
 20
92.843560
 30
0.0
  0
SPLINE
  5
16b
100
AcDbEntity
  8
Ebene_1
 62
7
100
AcDbSpline
 70
8
 71
3
 72
8
 73
4
 74
0
 40
0
 40
0
 40
0
 40
0
 40
1
 40
1
 40
1
 40
1
 10
59.490149
 20
92.843560
 30
0.0
 10
58.356676
 20
94.408280
 30
0.0
 10
56.975605
 20
95.870490
 30
0.0
 10
55.146655
 20
97.442200
 30
0.0
  0
SPLINE
  5
16c
100
AcDbEntity
  8
Ebene_1
 62
7
100
AcDbSpline
 70
8
 71
3
 72
8
 73
4
 74
0
 40
0
 40
0
 40
0
 40
0
 40
1
 40
1
 40
1
 40
1
 10
55.146655
 20
97.442200
 30
0.0
 10
52.767315
 20
99.486930
 30
0.0
 10
51.705450
 20
100.311890
 30
0.0
 10
51.452895
 20
100.311890
 30
0.0
  0
SPLINE
  5
16d
100
AcDbEntity
  8
Ebene_1
 62
7
100
AcDbSpline
 70
8
 71
3
 72
8
 73
4
 74
0
 40
0
 40
0
 40
0
 40
0
 40
1
 40
1
 40
1
 40
1
 10
51.452895
 20
100.311890
 30
0.0
 10
51.342658
 20
100.311890
 30
0.0
 10
51.222919
 20
100.390390
 30
0.0
 10
51.186996
 20
100.486510
 30
0.0
  0
SPLINE
  5
16e
100
AcDbEntity
  8
Ebene_1
 62
7
100
AcDbSpline
 70
8
 71
3
 72
8
 73
4
 74
0
 40
0
 40
0
 40
0
 40
0
 40
1
 40
1
 40
1
 40
1
 10
51.186996
 20
100.486510
 30
0.0
 10
51.151056
 20
100.582610
 30
0.0
 10
50.239264
 20
101.166970
 30
0.0
 10
49.160801
 20
101.785170
 30
0.0
  0
SPLINE
  5
16f
100
AcDbEntity
  8
Ebene_1
 62
7
100
AcDbSpline
 70
8
 71
3
 72
8
 73
4
 74
0
 40
0
 40
0
 40
0
 40
0
 40
1
 40
1
 40
1
 40
1
 10
49.160801
 20
101.785170
 30
0.0
 10
48.082328
 20
102.403360
 30
0.0
 10
47.167391
 20
102.938250
 30
0.0
 10
47.127581
 20
102.973790
 30
0.0
  0
SPLINE
  5
170
100
AcDbEntity
  8
Ebene_1
 62
7
100
AcDbSpline
 70
8
 71
3
 72
8
 73
4
 74
0
 40
0
 40
0
 40
0
 40
0
 40
1
 40
1
 40
1
 40
1
 10
47.127581
 20
102.973790
 30
0.0
 10
47.025447
 20
103.065090
 30
0.0
 10
48.100856
 20
107.438000
 30
0.0
 10
49.583412
 20
112.959240
 30
0.0
  0
SPLINE
  5
171
100
AcDbEntity
  8
Ebene_1
 62
7
100
AcDbSpline
 70
8
 71
3
 72
8
 73
4
 74
0
 40
0
 40
0
 40
0
 40
0
 40
1
 40
1
 40
1
 40
1
 10
49.583412
 20
112.959240
 30
0.0
 10
53.102781
 20
126.066080
 30
0.0
 10
54.197670
 20
129.070140
 30
0.0
 10
56.765731
 20
132.665650
 30
0.0
  0
SPLINE
  5
172
100
AcDbEntity
  8
Ebene_1
 62
7
100
AcDbSpline
 70
8
 71
3
 72
8
 73
4
 74
0
 40
0
 40
0
 40
0
 40
0
 40
1
 40
1
 40
1
 40
1
 10
56.765731
 20
132.665650
 30
0.0
 10
58.624587
 20
135.268260
 30
0.0
 10
60.021726
 20
136.795730
 30
0.0
 10
67.103164
 20
143.967340
 30
0.0
  0
LWPOLYLINE
  5
173
100
AcDbEntity
  8
Ebene_1
 62
7
100
AcDbPolyline
 90
3
 70
0
 10
71.806778
 20
110.563590
 30
0.0
 10
71.804978
 20
108.841540
 30
0.0
 10
70.834575
 20
107.707880
 30
0.0
  0
SPLINE
  5
174
100
AcDbEntity
  8
Ebene_1
 62
7
100
AcDbSpline
 70
8
 71
3
 72
8
 73
4
 74
0
 40
0
 40
0
 40
0
 40
0
 40
1
 40
1
 40
1
 40
1
 10
74.155245
 20
149.751830
 30
0.0
 10
74.398655
 20
149.251750
 30
0.0
 10
74.860225
 20
148.092560
 30
0.0
 10
75.180977
 20
147.175880
 30
0.0
  0
SPLINE
  5
175
100
AcDbEntity
  8
Ebene_1
 62
7
100
AcDbSpline
 70
8
 71
3
 72
8
 73
4
 74
0
 40
0
 40
0
 40
0
 40
0
 40
1
 40
1
 40
1
 40
1
 10
75.180977
 20
147.175880
 30
0.0
 10
75.501719
 20
146.259160
 30
0.0
 10
75.875907
 20
145.332670
 30
0.0
 10
76.012500
 20
145.116990
 30
0.0
  0
SPLINE
  5
176
100
AcDbEntity
  8
Ebene_1
 62
7
100
AcDbSpline
 70
8
 71
3
 72
8
 73
4
 74
0
 40
0
 40
0
 40
0
 40
0
 40
1
 40
1
 40
1
 40
1
 10
76.012500
 20
145.116990
 30
0.0
 10
76.149140
 20
144.901380
 30
0.0
 10
76.320494
 20
144.327750
 30
0.0
 10
76.393382
 20
143.842430
 30
0.0
  0
SPLINE
  5
177
100
AcDbEntity
  8
Ebene_1
 62
7
100
AcDbSpline
 70
8
 71
3
 72
8
 73
4
 74
0
 40
0
 40
0
 40
0
 40
0
 40
1
 40
1
 40
1
 40
1
 10
76.393382
 20
143.842430
 30
0.0
 10
76.623815
 20
142.308550
 30
0.0
 10
76.458042
 20
142.325950
 30
0.0
 10
80.458869
 20
143.415940
 30
0.0
  0
SPLINE
  5
178
100
AcDbEntity
  8
Ebene_1
 62
7
100
AcDbSpline
 70
8
 71
3
 72
8
 73
4
 74
0
 40
0
 40
0
 40
0
 40
0
 40
1
 40
1
 40
1
 40
1
 10
80.458869
 20
143.415940
 30
0.0
 10
84.141502
 20
144.275370
 30
0.0
 10
87.808492
 20
144.964240
 30
0.0
 10
91.910137
 20
145.073270
 30
0.0
  0
SPLINE
  5
179
100
AcDbEntity
  8
Ebene_1
 62
7
100
AcDbSpline
 70
8
 71
3
 72
8
 73
4
 74
0
 40
0
 40
0
 40
0
 40
0
 40
1
 40
1
 40
1
 40
1
 10
91.910137
 20
145.073270
 30
0.0
 10
90.768518
 20
143.490380
 30
0.0
 10
89.429823
 20
142.146820
 30
0.0
 10
88.671667
 20
140.364060
 30
0.0
  0
SPLINE
  5
17a
100
AcDbEntity
  8
Ebene_1
 62
7
100
AcDbSpline
 70
8
 71
3
 72
8
 73
4
 74
0
 40
0
 40
0
 40
0
 40
0
 40
1
 40
1
 40
1
 40
1
 10
88.671667
 20
140.364060
 30
0.0
 10
88.671667
 20
140.078770
 30
0.0
 10
89.463436
 20
139.790060
 30
0.0
 10
91.778484
 20
139.231090
 30
0.0
  0
SPLINE
  5
17b
100
AcDbEntity
  8
Ebene_1
 62
7
100
AcDbSpline
 70
8
 71
3
 72
8
 73
4
 74
0
 40
0
 40
0
 40
0
 40
0
 40
1
 40
1
 40
1
 40
1
 10
91.778484
 20
139.231090
 30
0.0
 10
94.245454
 20
138.635460
 30
0.0
 10
97.467937
 20
137.397680
 30
0.0
 10
99.296769
 20
136.343300
 30
0.0
  0
SPLINE
  5
17c
100
AcDbEntity
  8
Ebene_1
 62
7
100
AcDbSpline
 70
8
 71
3
 72
8
 73
4
 74
0
 40
0
 40
0
 40
0
 40
0
 40
1
 40
1
 40
1
 40
1
 10
99.296769
 20
136.343300
 30
0.0
 10
100.042560
 20
135.913320
 30
0.0
 10
100.697340
 20
135.606120
 30
0.0
 10
100.751860
 20
135.660630
 30
0.0
  0
SPLINE
  5
17d
100
AcDbEntity
  8
Ebene_1
 62
7
100
AcDbSpline
 70
8
 71
3
 72
8
 73
4
 74
0
 40
0
 40
0
 40
0
 40
0
 40
1
 40
1
 40
1
 40
1
 10
100.751860
 20
135.660630
 30
0.0
 10
100.806260
 20
135.715330
 30
0.0
 10
100.073930
 20
136.344000
 30
0.0
 10
99.124189
 20
137.058010
 30
0.0
  0
SPLINE
  5
17e
100
AcDbEntity
  8
Ebene_1
 62
7
100
AcDbSpline
 70
8
 71
3
 72
8
 73
4
 74
0
 40
0
 40
0
 40
0
 40
0
 40
1
 40
1
 40
1
 40
1
 10
99.124189
 20
137.058010
 30
0.0
 10
96.230398
 20
139.225430
 30
0.0
 10
94.711459
 20
139.736770
 30
0.0
 10
91.917378
 20
141.298610
 30
0.0
  0
SPLINE
  5
17f
100
AcDbEntity
  8
Ebene_1
 62
7
100
AcDbSpline
 70
8
 71
3
 72
8
 73
4
 74
0
 40
0
 40
0
 40
0
 40
0
 40
1
 40
1
 40
1
 40
1
 10
91.917378
 20
141.298610
 30
0.0
 10
92.894088
 20
142.826080
 30
0.0
 10
94.832459
 20
144.908900
 30
0.0
 10
96.094462
 20
146.392400
 30
0.0
  0
SPLINE
  5
180
100
AcDbEntity
  8
Ebene_1
 62
7
100
AcDbSpline
 70
8
 71
3
 72
8
 73
4
 74
0
 40
0
 40
0
 40
0
 40
0
 40
1
 40
1
 40
1
 40
1
 10
96.094462
 20
146.392400
 30
0.0
 10
93.122579
 20
146.678920
 30
0.0
 10
92.838656
 20
146.765530
 30
0.0
 10
89.111090
 20
146.627430
 30
0.0
  0
SPLINE
  5
181
100
AcDbEntity
  8
Ebene_1
 62
7
100
AcDbSpline
 70
8
 71
3
 72
8
 73
4
 74
0
 40
0
 40
0
 40
0
 40
0
 40
1
 40
1
 40
1
 40
1
 10
89.111090
 20
146.627430
 30
0.0
 10
85.747934
 20
146.354120
 30
0.0
 10
80.459189
 20
145.673850
 30
0.0
 10
78.041869
 20
145.296690
 30
0.0
  0
SPLINE
  5
182
100
AcDbEntity
  8
Ebene_1
 62
7
100
AcDbSpline
 70
8
 71
3
 72
8
 73
4
 74
0
 40
0
 40
0
 40
0
 40
0
 40
1
 40
1
 40
1
 40
1
 10
78.041869
 20
145.296690
 30
0.0
 10
77.395812
 20
145.195940
 30
0.0
 10
77.302951
 20
145.234390
 30
0.0
 10
77.213108
 20
145.640280
 30
0.0
  0
SPLINE
  5
183
100
AcDbEntity
  8
Ebene_1
 62
7
100
AcDbSpline
 70
8
 71
3
 72
8
 73
4
 74
0
 40
0
 40
0
 40
0
 40
0
 40
1
 40
1
 40
1
 40
1
 10
77.213108
 20
145.640280
 30
0.0
 10
76.244653
 20
150.015480
 30
0.0
 10
75.435855
 20
152.880000
 30
0.0
 10
74.699607
 20
154.542200
 30
0.0
  0
SPLINE
  5
184
100
AcDbEntity
  8
Ebene_1
 62
7
100
AcDbSpline
 70
8
 71
3
 72
8
 73
4
 74
0
 40
0
 40
0
 40
0
 40
0
 40
1
 40
1
 40
1
 40
1
 10
74.699607
 20
154.542200
 30
0.0
 10
73.758597
 20
156.666740
 30
0.0
 10
72.464323
 20
160.991240
 30
0.0
 10
71.798649
 20
164.235140
 30
0.0
  0
SPLINE
  5
185
100
AcDbEntity
  8
Ebene_1
 62
7
100
AcDbSpline
 70
8
 71
3
 72
8
 73
4
 74
0
 40
0
 40
0
 40
0
 40
0
 40
1
 40
1
 40
1
 40
1
 10
71.798649
 20
164.235140
 30
0.0
 10
71.424352
 20
166.059180
 30
0.0
 10
71.388384
 20
166.707770
 30
0.0
 10
71.483476
 20
169.921560
 30
0.0
  0
SPLINE
  5
186
100
AcDbEntity
  8
Ebene_1
 62
7
100
AcDbSpline
 70
8
 71
3
 72
8
 73
4
 74
0
 40
0
 40
0
 40
0
 40
0
 40
1
 40
1
 40
1
 40
1
 10
71.483476
 20
169.921560
 30
0.0
 10
71.565876
 20
172.709640
 30
0.0
 10
71.702332
 20
174.076790
 30
0.0
 10
72.072815
 20
175.829380
 30
0.0
  0
SPLINE
  5
187
100
AcDbEntity
  8
Ebene_1
 62
7
100
AcDbSpline
 70
8
 71
3
 72
8
 73
4
 74
0
 40
0
 40
0
 40
0
 40
0
 40
1
 40
1
 40
1
 40
1
 10
72.072815
 20
175.829380
 30
0.0
 10
72.893520
 20
179.711650
 30
0.0
 10
74.400484
 20
183.692470
 30
0.0
 10
76.091451
 20
186.445070
 30
0.0
  0
SPLINE
  5
188
100
AcDbEntity
  8
Ebene_1
 62
7
100
AcDbSpline
 70
8
 71
3
 72
8
 73
4
 74
0
 40
0
 40
0
 40
0
 40
0
 40
1
 40
1
 40
1
 40
1
 10
76.091451
 20
186.445070
 30
0.0
 10
76.539797
 20
187.174940
 30
0.0
 10
76.906641
 20
187.906410
 30
0.0
 10
76.906641
 20
188.070560
 30
0.0
  0
SPLINE
  5
189
100
AcDbEntity
  8
Ebene_1
 62
7
100
AcDbSpline
 70
8
 71
3
 72
8
 73
4
 74
0
 40
0
 40
0
 40
0
 40
0
 40
1
 40
1
 40
1
 40
1
 10
76.906641
 20
188.070560
 30
0.0
 10
76.906641
 20
188.234770
 30
0.0
 10
76.740353
 20
188.696430
 30
0.0
 10
76.536944
 20
189.096550
 30
0.0
  0
SPLINE
  5
18a
100
AcDbEntity
  8
Ebene_1
 62
7
100
AcDbSpline
 70
8
 71
3
 72
8
 73
4
 74
0
 40
0
 40
0
 40
0
 40
0
 40
1
 40
1
 40
1
 40
1
 10
76.536944
 20
189.096550
 30
0.0
 10
76.128435
 20
189.900490
 30
0.0
 10
74.853622
 20
193.579160
 30
0.0
 10
74.447290
 20
195.126630
 30
0.0
  0
SPLINE
  5
18b
100
AcDbEntity
  8
Ebene_1
 62
7
100
AcDbSpline
 70
8
 71
3
 72
8
 73
4
 74
0
 40
0
 40
0
 40
0
 40
0
 40
1
 40
1
 40
1
 40
1
 10
74.447290
 20
195.126630
 30
0.0
 10
73.583831
 20
198.415031
 30
0.0
 10
72.907091
 20
204.495854
 30
0.0
 10
73.073398
 20
207.471593
 30
0.0
  0
SPLINE
  5
18c
100
AcDbEntity
  8
Ebene_1
 62
7
100
AcDbSpline
 70
8
 71
3
 72
8
 73
4
 74
0
 40
0
 40
0
 40
0
 40
0
 40
1
 40
1
 40
1
 40
1
 10
73.073398
 20
207.471593
 30
0.0
 10
73.509443
 20
215.273568
 30
0.0
 10
74.679003
 20
219.921380
 30
0.0
 10
77.346930
 20
224.454593
 30
0.0
  0
SPLINE
  5
18d
100
AcDbEntity
  8
Ebene_1
 62
7
100
AcDbSpline
 70
8
 71
3
 72
8
 73
4
 74
0
 40
0
 40
0
 40
0
 40
0
 40
1
 40
1
 40
1
 40
1
 10
77.346930
 20
224.454593
 30
0.0
 10
78.286340
 20
226.050788
 30
0.0
 10
78.848518
 20
226.709841
 30
0.0
 10
81.026479
 20
228.768182
 30
0.0
  0
SPLINE
  5
18e
100
AcDbEntity
  8
Ebene_1
 62
7
100
AcDbSpline
 70
8
 71
3
 72
8
 73
4
 74
0
 40
0
 40
0
 40
0
 40
0
 40
1
 40
1
 40
1
 40
1
 10
81.026479
 20
228.768182
 30
0.0
 10
84.080455
 20
231.654434
 30
0.0
 10
85.434246
 20
232.588064
 30
0.0
 10
89.398989
 20
234.542122
 30
0.0
  0
SPLINE
  5
18f
100
AcDbEntity
  8
Ebene_1
 62
7
100
AcDbSpline
 70
8
 71
3
 72
8
 73
4
 74
0
 40
0
 40
0
 40
0
 40
0
 40
1
 40
1
 40
1
 40
1
 10
89.398989
 20
234.542122
 30
0.0
 10
92.679319
 20
236.158889
 30
0.0
 10
95.357523
 20
237.052312
 30
0.0
 10
99.821771
 20
238.019059
 30
0.0
  0
SPLINE
  5
190
100
AcDbEntity
  8
Ebene_1
 62
7
100
AcDbSpline
 70
8
 71
3
 72
8
 73
4
 74
0
 40
0
 40
0
 40
0
 40
0
 40
1
 40
1
 40
1
 40
1
 10
99.821771
 20
238.019059
 30
0.0
 10
102.505980
 20
238.600316
 30
0.0
 10
102.913660
 20
238.637672
 30
0.0
 10
106.123130
 20
238.596449
 30
0.0
  0
SPLINE
  5
191
100
AcDbEntity
  8
Ebene_1
 62
7
100
AcDbSpline
 70
8
 71
3
 72
8
 73
4
 74
0
 40
0
 40
0
 40
0
 40
0
 40
1
 40
1
 40
1
 40
1
 10
106.123130
 20
238.596449
 30
0.0
 10
109.081820
 20
238.558469
 30
0.0
 10
109.959820
 20
238.468839
 30
0.0
 10
112.495830
 20
237.946685
 30
0.0
  0
SPLINE
  5
192
100
AcDbEntity
  8
Ebene_1
 62
7
100
AcDbSpline
 70
8
 71
3
 72
8
 73
4
 74
0
 40
0
 40
0
 40
0
 40
0
 40
1
 40
1
 40
1
 40
1
 10
112.495830
 20
237.946685
 30
0.0
 10
115.893510
 20
237.247061
 30
0.0
 10
116.842120
 20
236.950109
 30
0.0
 10
119.977580
 20
235.604728
 30
0.0
  0
LWPOLYLINE
  5
193
100
AcDbEntity
  8
Ebene_1
 62
7
100
AcDbPolyline
 90
3
 70
0
 10
67.103164
 20
143.967340
 30
0.0
 10
73.712669
 20
150.661060
 30
0.0
 10
74.155245
 20
149.751830
 30
0.0
  0
SPLINE
  5
194
100
AcDbEntity
  8
Ebene_1
 62
7
100
AcDbSpline
 70
8
 71
3
 72
8
 73
4
 74
0
 40
0
 40
0
 40
0
 40
0
 40
1
 40
1
 40
1
 40
1
 10
123.166330
 20
235.091395
 30
0.0
 10
123.773690
 20
235.408681
 30
0.0
 10
124.367640
 20
235.975975
 30
0.0
 10
124.999400
 20
236.842209
 30
0.0
  0
SPLINE
  5
195
100
AcDbEntity
  8
Ebene_1
 62
7
100
AcDbSpline
 70
8
 71
3
 72
8
 73
4
 74
0
 40
0
 40
0
 40
0
 40
0
 40
1
 40
1
 40
1
 40
1
 10
124.999400
 20
236.842209
 30
0.0
 10
125.818510
 20
237.965352
 30
0.0
 10
125.955750
 20
238.297135
 30
0.0
 10
126.110250
 20
239.527622
 30
0.0
  0
SPLINE
  5
196
100
AcDbEntity
  8
Ebene_1
 62
7
100
AcDbSpline
 70
8
 71
3
 72
8
 73
4
 74
0
 40
0
 40
0
 40
0
 40
0
 40
1
 40
1
 40
1
 40
1
 10
126.110250
 20
239.527622
 30
0.0
 10
126.264940
 20
240.759267
 30
0.0
 10
126.235530
 20
241.056194
 30
0.0
 10
125.871280
 20
241.947140
 30
0.0
  0
SPLINE
  5
197
100
AcDbEntity
  8
Ebene_1
 62
7
100
AcDbSpline
 70
8
 71
3
 72
8
 73
4
 74
0
 40
0
 40
0
 40
0
 40
0
 40
1
 40
1
 40
1
 40
1
 10
125.871280
 20
241.947140
 30
0.0
 10
125.402840
 20
243.092794
 30
0.0
 10
124.585050
 20
244.221518
 30
0.0
 10
123.581290
 20
245.107832
 30
0.0
  0
SPLINE
  5
198
100
AcDbEntity
  8
Ebene_1
 62
7
100
AcDbSpline
 70
8
 71
3
 72
8
 73
4
 74
0
 40
0
 40
0
 40
0
 40
0
 40
1
 40
1
 40
1
 40
1
 10
123.581290
 20
245.107832
 30
0.0
 10
123.207520
 20
245.437877
 30
0.0
 10
122.633970
 20
245.947201
 30
0.0
 10
122.306760
 20
246.239659
 30
0.0
  0
LWPOLYLINE
  5
199
100
AcDbEntity
  8
Ebene_1
 62
7
100
AcDbPolyline
 90
3
 70
0
 10
119.977580
 20
235.604728
 30
0.0
 10
122.267860
 20
234.622024
 30
0.0
 10
123.166330
 20
235.091395
 30
0.0
  0
SPLINE
  5
19a
100
AcDbEntity
  8
Ebene_1
 62
7
100
AcDbSpline
 70
8
 71
3
 72
8
 73
4
 74
0
 40
0
 40
0
 40
0
 40
0
 40
1
 40
1
 40
1
 40
1
 10
121.711850
 20
246.771361
 30
0.0
 10
125.817420
 20
246.327969
 30
0.0
 10
128.072030
 20
244.878202
 30
0.0
 10
131.025810
 20
242.382267
 30
0.0
  0
SPLINE
  5
19b
100
AcDbEntity
  8
Ebene_1
 62
7
100
AcDbSpline
 70
8
 71
3
 72
8
 73
4
 74
0
 40
0
 40
0
 40
0
 40
0
 40
1
 40
1
 40
1
 40
1
 10
131.025810
 20
242.382267
 30
0.0
 10
131.025810
 20
242.617405
 30
0.0
 10
130.139690
 20
244.207976
 30
0.0
 10
129.403420
 20
245.294411
 30
0.0
  0
SPLINE
  5
19c
100
AcDbEntity
  8
Ebene_1
 62
7
100
AcDbSpline
 70
8
 71
3
 72
8
 73
4
 74
0
 40
0
 40
0
 40
0
 40
0
 40
1
 40
1
 40
1
 40
1
 10
129.403420
 20
245.294411
 30
0.0
 10
128.972850
 20
245.929769
 30
0.0
 10
128.741320
 20
246.374964
 30
0.0
 10
128.888930
 20
246.283738
 30
0.0
  0
SPLINE
  5
19d
100
AcDbEntity
  8
Ebene_1
 62
7
100
AcDbSpline
 70
8
 71
3
 72
8
 73
4
 74
0
 40
0
 40
0
 40
0
 40
0
 40
1
 40
1
 40
1
 40
1
 10
128.888930
 20
246.283738
 30
0.0
 10
132.985990
 20
245.063291
 30
0.0
 10
133.613370
 20
243.546068
 30
0.0
 10
135.029700
 20
240.867752
 30
0.0
  0
SPLINE
  5
19e
100
AcDbEntity
  8
Ebene_1
 62
7
100
AcDbSpline
 70
8
 71
3
 72
8
 73
4
 74
0
 40
0
 40
0
 40
0
 40
0
 40
1
 40
1
 40
1
 40
1
 10
135.029700
 20
240.867752
 30
0.0
 10
135.339220
 20
240.652832
 30
0.0
 10
135.544480
 20
240.892302
 30
0.0
 10
135.449130
 20
241.357043
 30
0.0
  0
SPLINE
  5
19f
100
AcDbEntity
  8
Ebene_1
 62
7
100
AcDbSpline
 70
8
 71
3
 72
8
 73
4
 74
0
 40
0
 40
0
 40
0
 40
0
 40
1
 40
1
 40
1
 40
1
 10
135.449130
 20
241.357043
 30
0.0
 10
135.400730
 20
241.593084
 30
0.0
 10
135.313420
 20
242.227399
 30
0.0
 10
135.255290
 20
242.766622
 30
0.0
  0
SPLINE
  5
1a0
100
AcDbEntity
  8
Ebene_1
 62
7
100
AcDbSpline
 70
8
 71
3
 72
8
 73
4
 74
0
 40
0
 40
0
 40
0
 40
0
 40
1
 40
1
 40
1
 40
1
 10
135.255290
 20
242.766622
 30
0.0
 10
135.163590
 20
243.615603
 30
0.0
 10
135.179990
 20
243.681330
 30
0.0
 10
135.376880
 20
243.256839
 30
0.0
  0
SPLINE
  5
1a1
100
AcDbEntity
  8
Ebene_1
 62
7
100
AcDbSpline
 70
8
 71
3
 72
8
 73
4
 74
0
 40
0
 40
0
 40
0
 40
0
 40
1
 40
1
 40
1
 40
1
 10
135.376880
 20
243.256839
 30
0.0
 10
139.812060
 20
238.874950
 30
0.0
 10
138.973130
 20
230.612937
 30
0.0
 10
135.868630
 20
226.632121
 30
0.0
  0
SPLINE
  5
1a2
100
AcDbEntity
  8
Ebene_1
 62
7
100
AcDbSpline
 70
8
 71
3
 72
8
 73
4
 74
0
 40
0
 40
0
 40
0
 40
0
 40
1
 40
1
 40
1
 40
1
 10
135.868630
 20
226.632121
 30
0.0
 10
135.082240
 20
225.590595
 30
0.0
 10
135.074350
 20
225.563708
 30
0.0
 10
135.303110
 20
224.708306
 30
0.0
  0
SPLINE
  5
1a3
100
AcDbEntity
  8
Ebene_1
 62
7
100
AcDbSpline
 70
8
 71
3
 72
8
 73
4
 74
0
 40
0
 40
0
 40
0
 40
0
 40
1
 40
1
 40
1
 40
1
 10
135.303110
 20
224.708306
 30
0.0
 10
135.430720
 20
224.231180
 30
0.0
 10
136.007700
 20
222.716597
 30
0.0
 10
136.585270
 20
221.342586
 30
0.0
  0
SPLINE
  5
1a4
100
AcDbEntity
  8
Ebene_1
 62
7
100
AcDbSpline
 70
8
 71
3
 72
8
 73
4
 74
0
 40
0
 40
0
 40
0
 40
0
 40
1
 40
1
 40
1
 40
1
 10
136.585270
 20
221.342586
 30
0.0
 10
137.162850
 20
219.968603
 30
0.0
 10
137.818430
 20
218.314994
 30
0.0
 10
138.042100
 20
217.667920
 30
0.0
  0
SPLINE
  5
1a5
100
AcDbEntity
  8
Ebene_1
 62
7
100
AcDbSpline
 70
8
 71
3
 72
8
 73
4
 74
0
 40
0
 40
0
 40
0
 40
0
 40
1
 40
1
 40
1
 40
1
 10
138.042100
 20
217.667920
 30
0.0
 10
138.639270
 20
215.940429
 30
0.0
 10
139.997560
 20
210.962874
 30
0.0
 10
140.210440
 20
209.721826
 30
0.0
  0
SPLINE
  5
1a6
100
AcDbEntity
  8
Ebene_1
 62
7
100
AcDbSpline
 70
8
 71
3
 72
8
 73
4
 74
0
 40
0
 40
0
 40
0
 40
0
 40
1
 40
1
 40
1
 40
1
 10
140.210440
 20
209.721826
 30
0.0
 10
140.311880
 20
209.131262
 30
0.0
 10
140.667280
 20
207.059779
 30
0.0
 10
141.000500
 20
205.118551
 30
0.0
  0
SPLINE
  5
1a7
100
AcDbEntity
  8
Ebene_1
 62
7
100
AcDbSpline
 70
8
 71
3
 72
8
 73
4
 74
0
 40
0
 40
0
 40
0
 40
0
 40
1
 40
1
 40
1
 40
1
 10
141.000500
 20
205.118551
 30
0.0
 10
141.713160
 20
200.966871
 30
0.0
 10
142.002590
 20
198.554831
 30
0.0
 10
142.004810
 20
196.749170
 30
0.0
  0
SPLINE
  5
1a8
100
AcDbEntity
  8
Ebene_1
 62
7
100
AcDbSpline
 70
8
 71
3
 72
8
 73
4
 74
0
 40
0
 40
0
 40
0
 40
0
 40
1
 40
1
 40
1
 40
1
 10
142.004810
 20
196.749170
 30
0.0
 10
142.006810
 20
195.257770
 30
0.0
 10
141.930010
 20
195.321530
 30
0.0
 10
143.967260
 20
195.115880
 30
0.0
  0
SPLINE
  5
1a9
100
AcDbEntity
  8
Ebene_1
 62
7
100
AcDbSpline
 70
8
 71
3
 72
8
 73
4
 74
0
 40
0
 40
0
 40
0
 40
0
 40
1
 40
1
 40
1
 40
1
 10
143.967260
 20
195.115880
 30
0.0
 10
145.546730
 20
194.956540
 30
0.0
 10
146.606160
 20
194.443510
 30
0.0
 10
147.496760
 20
193.407030
 30
0.0
  0
SPLINE
  5
1aa
100
AcDbEntity
  8
Ebene_1
 62
7
100
AcDbSpline
 70
8
 71
3
 72
8
 73
4
 74
0
 40
0
 40
0
 40
0
 40
0
 40
1
 40
1
 40
1
 40
1
 10
147.496760
 20
193.407030
 30
0.0
 10
148.147820
 20
192.649340
 30
0.0
 10
148.182050
 20
192.536810
 30
0.0
 10
148.163520
 20
191.216160
 30
0.0
  0
SPLINE
  5
1ab
100
AcDbEntity
  8
Ebene_1
 62
7
100
AcDbSpline
 70
8
 71
3
 72
8
 73
4
 74
0
 40
0
 40
0
 40
0
 40
0
 40
1
 40
1
 40
1
 40
1
 10
148.163520
 20
191.216160
 30
0.0
 10
148.142720
 20
189.689580
 30
0.0
 10
147.741210
 20
188.651320
 30
0.0
 10
146.815890
 20
187.725990
 30
0.0
  0
SPLINE
  5
1ac
100
AcDbEntity
  8
Ebene_1
 62
7
100
AcDbSpline
 70
8
 71
3
 72
8
 73
4
 74
0
 40
0
 40
0
 40
0
 40
0
 40
1
 40
1
 40
1
 40
1
 10
146.815890
 20
187.725990
 30
0.0
 10
146.271410
 20
187.181520
 30
0.0
 10
146.166620
 20
187.148360
 30
0.0
 10
143.817360
 20
186.777260
 30
0.0
  0
SPLINE
  5
1ad
100
AcDbEntity
  8
Ebene_1
 62
7
100
AcDbSpline
 70
8
 71
3
 72
8
 73
4
 74
0
 40
0
 40
0
 40
0
 40
0
 40
1
 40
1
 40
1
 40
1
 10
143.817360
 20
186.777260
 30
0.0
 10
142.740130
 20
186.607030
 30
0.0
 10
142.341940
 20
186.457000
 30
0.0
 10
142.183810
 20
186.161520
 30
0.0
  0
SPLINE
  5
1ae
100
AcDbEntity
  8
Ebene_1
 62
7
100
AcDbSpline
 70
8
 71
3
 72
8
 73
4
 74
0
 40
0
 40
0
 40
0
 40
0
 40
1
 40
1
 40
1
 40
1
 10
142.183810
 20
186.161520
 30
0.0
 10
142.068710
 20
185.946590
 30
0.0
 10
141.589310
 20
184.476820
 30
0.0
 10
141.118260
 20
182.895310
 30
0.0
  0
SPLINE
  5
1af
100
AcDbEntity
  8
Ebene_1
 62
7
100
AcDbSpline
 70
8
 71
3
 72
8
 73
4
 74
0
 40
0
 40
0
 40
0
 40
0
 40
1
 40
1
 40
1
 40
1
 10
141.118260
 20
182.895310
 30
0.0
 10
139.846300
 20
178.624600
 30
0.0
 10
139.470050
 20
177.703320
 30
0.0
 10
137.708690
 20
174.546490
 30
0.0
  0
SPLINE
  5
1b0
100
AcDbEntity
  8
Ebene_1
 62
7
100
AcDbSpline
 70
8
 71
3
 72
8
 73
4
 74
0
 40
0
 40
0
 40
0
 40
0
 40
1
 40
1
 40
1
 40
1
 10
137.708690
 20
174.546490
 30
0.0
 10
135.737200
 20
171.013000
 30
0.0
 10
134.832390
 20
169.680360
 30
0.0
 10
133.228860
 20
167.948400
 30
0.0
  0
SPLINE
  5
1b1
100
AcDbEntity
  8
Ebene_1
 62
7
100
AcDbSpline
 70
8
 71
3
 72
8
 73
4
 74
0
 40
0
 40
0
 40
0
 40
0
 40
1
 40
1
 40
1
 40
1
 10
133.228860
 20
167.948400
 30
0.0
 10
131.035420
 20
165.579300
 30
0.0
 10
128.708800
 20
164.076620
 30
0.0
 10
125.809150
 20
163.156330
 30
0.0
  0
SPLINE
  5
1b2
100
AcDbEntity
  8
Ebene_1
 62
7
100
AcDbSpline
 70
8
 71
3
 72
8
 73
4
 74
0
 40
0
 40
0
 40
0
 40
0
 40
1
 40
1
 40
1
 40
1
 10
125.809150
 20
163.156330
 30
0.0
 10
125.023340
 20
162.906930
 30
0.0
 10
124.292960
 20
162.648840
 30
0.0
 10
124.186120
 20
162.582790
 30
0.0
  0
SPLINE
  5
1b3
100
AcDbEntity
  8
Ebene_1
 62
7
100
AcDbSpline
 70
8
 71
3
 72
8
 73
4
 74
0
 40
0
 40
0
 40
0
 40
0
 40
1
 40
1
 40
1
 40
1
 10
124.186120
 20
162.582790
 30
0.0
 10
124.073800
 20
162.513590
 30
0.0
 10
124.534290
 20
161.367240
 30
0.0
 10
125.276410
 20
159.868430
 30
0.0
  0
SPLINE
  5
1b4
100
AcDbEntity
  8
Ebene_1
 62
7
100
AcDbSpline
 70
8
 71
3
 72
8
 73
4
 74
0
 40
0
 40
0
 40
0
 40
0
 40
1
 40
1
 40
1
 40
1
 10
125.276410
 20
159.868430
 30
0.0
 10
127.129710
 20
156.125460
 30
0.0
 10
128.826920
 20
151.776250
 30
0.0
 10
130.229470
 20
147.175840
 30
0.0
  0
SPLINE
  5
1b5
100
AcDbEntity
  8
Ebene_1
 62
7
100
AcDbSpline
 70
8
 71
3
 72
8
 73
4
 74
0
 40
0
 40
0
 40
0
 40
0
 40
1
 40
1
 40
1
 40
1
 10
130.229470
 20
147.175840
 30
0.0
 10
130.903500
 20
144.964980
 30
0.0
 10
131.636590
 20
142.847280
 30
0.0
 10
131.858540
 20
142.469810
 30
0.0
  0
SPLINE
  5
1b6
100
AcDbEntity
  8
Ebene_1
 62
7
100
AcDbSpline
 70
8
 71
3
 72
8
 73
4
 74
0
 40
0
 40
0
 40
0
 40
0
 40
1
 40
1
 40
1
 40
1
 10
131.858540
 20
142.469810
 30
0.0
 10
132.080410
 20
142.092340
 30
0.0
 10
132.733950
 20
141.023940
 30
0.0
 10
133.310640
 20
140.095570
 30
0.0
  0
SPLINE
  5
1b7
100
AcDbEntity
  8
Ebene_1
 62
7
100
AcDbSpline
 70
8
 71
3
 72
8
 73
4
 74
0
 40
0
 40
0
 40
0
 40
0
 40
1
 40
1
 40
1
 40
1
 10
133.310640
 20
140.095570
 30
0.0
 10
133.887310
 20
139.167200
 30
0.0
 10
134.359160
 20
138.362230
 30
0.0
 10
134.359160
 20
138.306770
 30
0.0
  0
SPLINE
  5
1b8
100
AcDbEntity
  8
Ebene_1
 62
7
100
AcDbSpline
 70
8
 71
3
 72
8
 73
4
 74
0
 40
0
 40
0
 40
0
 40
0
 40
1
 40
1
 40
1
 40
1
 10
134.359160
 20
138.306770
 30
0.0
 10
134.359160
 20
138.251470
 30
0.0
 10
133.631190
 20
138.386370
 30
0.0
 10
132.741470
 20
138.607080
 30
0.0
  0
SPLINE
  5
1b9
100
AcDbEntity
  8
Ebene_1
 62
7
100
AcDbSpline
 70
8
 71
3
 72
8
 73
4
 74
0
 40
0
 40
0
 40
0
 40
0
 40
1
 40
1
 40
1
 40
1
 10
132.741470
 20
138.607080
 30
0.0
 10
131.141550
 20
139.003840
 30
0.0
 10
127.299960
 20
139.201570
 30
0.0
 10
127.000970
 20
138.902590
 30
0.0
  0
SPLINE
  5
1ba
100
AcDbEntity
  8
Ebene_1
 62
7
100
AcDbSpline
 70
8
 71
3
 72
8
 73
4
 74
0
 40
0
 40
0
 40
0
 40
0
 40
1
 40
1
 40
1
 40
1
 10
127.000970
 20
138.902590
 30
0.0
 10
126.824500
 20
138.726100
 30
0.0
 10
127.311070
 20
138.055410
 30
0.0
 10
130.011700
 20
134.752120
 30
0.0
  0
LWPOLYLINE
  5
1bb
100
AcDbEntity
  8
Ebene_1
 62
7
100
AcDbPolyline
 90
2
 70
0
 10
122.306760
 20
246.239659
 30
0.0
 10
121.711850
 20
246.771361
 30
0.0
  0
SPLINE
  5
1bc
100
AcDbEntity
  8
Ebene_1
 62
7
100
AcDbSpline
 70
8
 71
3
 72
8
 73
4
 74
0
 40
0
 40
0
 40
0
 40
0
 40
1
 40
1
 40
1
 40
1
 10
131.827990
 20
130.040830
 30
0.0
 10
131.369450
 20
127.844860
 30
0.0
 10
131.033570
 20
124.291590
 30
0.0
 10
131.028870
 20
121.586900
 30
0.0
  0
SPLINE
  5
1bd
100
AcDbEntity
  8
Ebene_1
 62
7
100
AcDbSpline
 70
8
 71
3
 72
8
 73
4
 74
0
 40
0
 40
0
 40
0
 40
0
 40
1
 40
1
 40
1
 40
1
 10
131.028870
 20
121.586900
 30
0.0
 10
131.025870
 20
119.678310
 30
0.0
 10
131.338880
 20
117.535400
 30
0.0
 10
132.702980
 20
110.137390
 30
0.0
  0
SPLINE
  5
1be
100
AcDbEntity
  8
Ebene_1
 62
7
100
AcDbSpline
 70
8
 71
3
 72
8
 73
4
 74
0
 40
0
 40
0
 40
0
 40
0
 40
1
 40
1
 40
1
 40
1
 10
132.702980
 20
110.137390
 30
0.0
 10
133.665420
 20
104.917700
 30
0.0
 10
134.474630
 20
98.992940
 30
0.0
 10
135.263490
 20
91.390010
 30
0.0
  0
SPLINE
  5
1bf
100
AcDbEntity
  8
Ebene_1
 62
7
100
AcDbSpline
 70
8
 71
3
 72
8
 73
4
 74
0
 40
0
 40
0
 40
0
 40
0
 40
1
 40
1
 40
1
 40
1
 10
135.263490
 20
91.390010
 30
0.0
 10
135.715010
 20
87.038430
 30
0.0
 10
135.774790
 20
85.596080
 30
0.0
 10
135.795740
 20
78.546520
 30
0.0
  0
SPLINE
  5
1c0
100
AcDbEntity
  8
Ebene_1
 62
7
100
AcDbSpline
 70
8
 71
3
 72
8
 73
4
 74
0
 40
0
 40
0
 40
0
 40
0
 40
1
 40
1
 40
1
 40
1
 10
135.795740
 20
78.546520
 30
0.0
 10
135.816540
 20
71.462720
 30
0.0
 10
135.771440
 20
70.192210
 30
0.0
 10
135.376210
 20
66.781490
 30
0.0
  0
SPLINE
  5
1c1
100
AcDbEntity
  8
Ebene_1
 62
7
100
AcDbSpline
 70
8
 71
3
 72
8
 73
4
 74
0
 40
0
 40
0
 40
0
 40
0
 40
1
 40
1
 40
1
 40
1
 10
135.376210
 20
66.781490
 30
0.0
 10
134.567550
 20
59.803510
 30
0.0
 10
132.776600
 20
52.406660
 30
0.0
 10
130.153840
 20
45.212290
 30
0.0
  0
SPLINE
  5
1c2
100
AcDbEntity
  8
Ebene_1
 62
7
100
AcDbSpline
 70
8
 71
3
 72
8
 73
4
 74
0
 40
0
 40
0
 40
0
 40
0
 40
1
 40
1
 40
1
 40
1
 10
130.153840
 20
45.212290
 30
0.0
 10
129.789590
 20
44.213100
 30
0.0
 10
128.357960
 20
41.327480
 30
0.0
 10
128.030040
 20
40.931470
 30
0.0
  0
SPLINE
  5
1c3
100
AcDbEntity
  8
Ebene_1
 62
7
100
AcDbSpline
 70
8
 71
3
 72
8
 73
4
 74
0
 40
0
 40
0
 40
0
 40
0
 40
1
 40
1
 40
1
 40
1
 10
128.030040
 20
40.931470
 30
0.0
 10
127.656450
 20
40.480330
 30
0.0
 10
124.691170
 20
39.159170
 30
0.0
 10
123.769660
 20
39.033300
 30
0.0
  0
SPLINE
  5
1c4
100
AcDbEntity
  8
Ebene_1
 62
7
100
AcDbSpline
 70
8
 71
3
 72
8
 73
4
 74
0
 40
0
 40
0
 40
0
 40
0
 40
1
 40
1
 40
1
 40
1
 10
123.769660
 20
39.033300
 30
0.0
 10
123.284900
 20
38.967100
 30
0.0
 10
122.711780
 20
38.882760
 30
0.0
 10
122.496080
 20
38.845700
 30
0.0
  0
SPLINE
  5
1c5
100
AcDbEntity
  8
Ebene_1
 62
7
100
AcDbSpline
 70
8
 71
3
 72
8
 73
4
 74
0
 40
0
 40
0
 40
0
 40
0
 40
1
 40
1
 40
1
 40
1
 10
122.496080
 20
38.845700
 30
0.0
 10
122.280470
 20
38.808700
 30
0.0
 10
121.342060
 20
38.937000
 30
0.0
 10
120.410910
 20
39.130920
 30
0.0
  0
LWPOLYLINE
  5
1c6
100
AcDbEntity
  8
Ebene_1
 62
7
100
AcDbPolyline
 90
3
 70
0
 10
130.011700
 20
134.752120
 30
0.0
 10
132.242110
 20
132.024000
 30
0.0
 10
131.827990
 20
130.040830
 30
0.0
  0
SPLINE
  5
1c7
100
AcDbEntity
  8
Ebene_1
 62
7
100
AcDbSpline
 70
8
 71
3
 72
8
 73
4
 74
0
 40
0
 40
0
 40
0
 40
0
 40
1
 40
1
 40
1
 40
1
 10
129.052850
 20
89.292200
 30
0.0
 10
133.513210
 20
96.067690
 30
0.0
 10
126.630490
 20
102.082840
 30
0.0
 10
121.820670
 20
99.651600
 30
0.0
  0
SPLINE
  5
1c8
100
AcDbEntity
  8
Ebene_1
 62
7
100
AcDbSpline
 70
8
 71
3
 72
8
 73
4
 74
0
 40
0
 40
0
 40
0
 40
0
 40
1
 40
1
 40
1
 40
1
 10
121.820670
 20
99.651600
 30
0.0
 10
121.941370
 20
99.624500
 30
0.0
 10
122.151550
 20
98.672560
 30
0.0
 10
122.725510
 20
98.641360
 30
0.0
  0
SPLINE
  5
1c9
100
AcDbEntity
  8
Ebene_1
 62
7
100
AcDbSpline
 70
8
 71
3
 72
8
 73
4
 74
0
 40
0
 40
0
 40
0
 40
0
 40
1
 40
1
 40
1
 40
1
 10
122.725510
 20
98.641360
 30
0.0
 10
127.311950
 20
98.392090
 30
0.0
 10
130.722800
 20
96.399710
 30
0.0
 10
128.000000
 20
91.000000
 30
0.0
  0
SPLINE
  5
1ca
100
AcDbEntity
  8
Ebene_1
 62
7
100
AcDbSpline
 70
8
 71
3
 72
8
 73
4
 74
0
 40
0
 40
0
 40
0
 40
0
 40
1
 40
1
 40
1
 40
1
 10
128.000000
 20
91.000000
 30
0.0
 10
127.995000
 20
90.688640
 30
0.0
 10
128.498270
 20
89.168570
 30
0.0
 10
129.052850
 20
89.292200
 30
0.0
  0
LWPOLYLINE
  5
1cb
100
AcDbEntity
  8
Ebene_1
 62
7
100
AcDbPolyline
 90
2
 70
0
 10
120.410910
 20
39.130920
 30
0.0
 10
120.411520
 20
39.130540
 30
0.0
  0
SPLINE
  5
1cc
100
AcDbEntity
  8
Ebene_1
 62
7
100
AcDbSpline
 70
8
 71
3
 72
8
 73
4
 74
0
 40
0
 40
0
 40
0
 40
0
 40
1
 40
1
 40
1
 40
1
 10
109.656970
 20
148.008800
 30
0.0
 10
109.658970
 20
148.143590
 30
0.0
 10
109.957950
 20
150.239280
 30
0.0
 10
110.321260
 20
152.665810
 30
0.0
  0
SPLINE
  5
1cd
100
AcDbEntity
  8
Ebene_1
 62
7
100
AcDbSpline
 70
8
 71
3
 72
8
 73
4
 74
0
 40
0
 40
0
 40
0
 40
0
 40
1
 40
1
 40
1
 40
1
 10
110.321260
 20
152.665810
 30
0.0
 10
110.684530
 20
155.092340
 30
0.0
 10
110.959350
 20
157.102650
 30
0.0
 10
110.931920
 20
157.133200
 30
0.0
  0
SPLINE
  5
1ce
100
AcDbEntity
  8
Ebene_1
 62
7
100
AcDbSpline
 70
8
 71
3
 72
8
 73
4
 74
0
 40
0
 40
0
 40
0
 40
0
 40
1
 40
1
 40
1
 40
1
 10
110.931920
 20
157.133200
 30
0.0
 10
110.904620
 20
157.163800
 30
0.0
 10
110.318820
 20
157.329360
 30
0.0
 10
109.630380
 20
157.501180
 30
0.0
  0
SPLINE
  5
1cf
100
AcDbEntity
  8
Ebene_1
 62
7
100
AcDbSpline
 70
8
 71
3
 72
8
 73
4
 74
0
 40
0
 40
0
 40
0
 40
0
 40
1
 40
1
 40
1
 40
1
 10
109.630380
 20
157.501180
 30
0.0
 10
107.405110
 20
158.056710
 30
0.0
 10
99.578407
 20
162.191050
 30
0.0
 10
96.422195
 20
164.478230
 30
0.0
  0
SPLINE
  5
1d0
100
AcDbEntity
  8
Ebene_1
 62
7
100
AcDbSpline
 70
8
 71
3
 72
8
 73
4
 74
0
 40
0
 40
0
 40
0
 40
0
 40
1
 40
1
 40
1
 40
1
 10
96.422195
 20
164.478230
 30
0.0
 10
96.311730
 20
164.558130
 30
0.0
 10
95.515580
 20
165.135990
 30
0.0
 10
94.652808
 20
165.762140
 30
0.0
  0
SPLINE
  5
1d1
100
AcDbEntity
  8
Ebene_1
 62
7
100
AcDbSpline
 70
8
 71
3
 72
8
 73
4
 74
0
 40
0
 40
0
 40
0
 40
0
 40
1
 40
1
 40
1
 40
1
 10
94.652808
 20
165.762140
 30
0.0
 10
92.716084
 20
167.167720
 30
0.0
 10
92.593940
 20
167.242410
 30
0.0
 10
92.593940
 20
167.021100
 30
0.0
  0
SPLINE
  5
1d2
100
AcDbEntity
  8
Ebene_1
 62
7
100
AcDbSpline
 70
8
 71
3
 72
8
 73
4
 74
0
 40
0
 40
0
 40
0
 40
0
 40
1
 40
1
 40
1
 40
1
 10
92.593940
 20
167.021100
 30
0.0
 10
92.593940
 20
166.684290
 30
0.0
 10
96.224320
 20
161.962720
 30
0.0
 10
98.280347
 20
159.625480
 30
0.0
  0
SPLINE
  5
1d3
100
AcDbEntity
  8
Ebene_1
 62
7
100
AcDbSpline
 70
8
 71
3
 72
8
 73
4
 74
0
 40
0
 40
0
 40
0
 40
0
 40
1
 40
1
 40
1
 40
1
 10
98.280347
 20
159.625480
 30
0.0
 10
102.771240
 20
154.520400
 30
0.0
 10
109.157460
 20
147.763700
 30
0.0
 10
109.491770
 20
147.763700
 30
0.0
  0
SPLINE
  5
1d4
100
AcDbEntity
  8
Ebene_1
 62
7
100
AcDbSpline
 70
8
 71
3
 72
8
 73
4
 74
0
 40
0
 40
0
 40
0
 40
0
 40
1
 40
1
 40
1
 40
1
 10
109.491770
 20
147.763700
 30
0.0
 10
109.580470
 20
147.763700
 30
0.0
 10
109.654820
 20
147.873950
 30
0.0
 10
109.656890
 20
148.008800
 30
0.0
  0
LWPOLYLINE
  5
1d5
100
AcDbEntity
  8
Ebene_1
 62
7
100
AcDbPolyline
 90
1
 70
1
 10
129.052850
 20
89.292200
 30
0.0
  0
SPLINE
  5
1d6
100
AcDbEntity
  8
Ebene_1
 62
7
100
AcDbSpline
 70
8
 71
3
 72
8
 73
4
 74
0
 40
0
 40
0
 40
0
 40
0
 40
1
 40
1
 40
1
 40
1
 10
121.211680
 20
151.263830
 30
0.0
 10
121.563660
 20
154.205820
 30
0.0
 10
121.338600
 20
155.703700
 30
0.0
 10
120.148380
 20
158.340460
 30
0.0
  0
SPLINE
  5
1d7
100
AcDbEntity
  8
Ebene_1
 62
7
100
AcDbSpline
 70
8
 71
3
 72
8
 73
4
 74
0
 40
0
 40
0
 40
0
 40
0
 40
1
 40
1
 40
1
 40
1
 10
120.148380
 20
158.340460
 30
0.0
 10
119.591460
 20
159.574210
 30
0.0
 10
119.044160
 20
160.614200
 30
0.0
 10
118.932110
 20
160.651540
 30
0.0
  0
SPLINE
  5
1d8
100
AcDbEntity
  8
Ebene_1
 62
7
100
AcDbSpline
 70
8
 71
3
 72
8
 73
4
 74
0
 40
0
 40
0
 40
0
 40
0
 40
1
 40
1
 40
1
 40
1
 10
118.932110
 20
160.651540
 30
0.0
 10
118.820030
 20
160.688840
 30
0.0
 10
118.350180
 20
160.138950
 30
0.0
 10
117.887930
 20
159.429460
 30
0.0
  0
SPLINE
  5
1d9
100
AcDbEntity
  8
Ebene_1
 62
7
100
AcDbSpline
 70
8
 71
3
 72
8
 73
4
 74
0
 40
0
 40
0
 40
0
 40
0
 40
1
 40
1
 40
1
 40
1
 10
117.887930
 20
159.429460
 30
0.0
 10
116.976290
 20
158.030230
 30
0.0
 10
116.790080
 20
157.882740
 30
0.0
 10
115.682800
 20
157.682840
 30
0.0
  0
SPLINE
  5
1da
100
AcDbEntity
  8
Ebene_1
 62
7
100
AcDbSpline
 70
8
 71
3
 72
8
 73
4
 74
0
 40
0
 40
0
 40
0
 40
0
 40
1
 40
1
 40
1
 40
1
 10
115.682800
 20
157.682840
 30
0.0
 10
115.278360
 20
157.609840
 30
0.0
 10
114.947480
 20
157.497570
 30
0.0
 10
114.947480
 20
157.433060
 30
0.0
  0
SPLINE
  5
1db
100
AcDbEntity
  8
Ebene_1
 62
7
100
AcDbSpline
 70
8
 71
3
 72
8
 73
4
 74
0
 40
0
 40
0
 40
0
 40
0
 40
1
 40
1
 40
1
 40
1
 10
114.947480
 20
157.433060
 30
0.0
 10
114.947480
 20
157.368660
 30
0.0
 10
115.333850
 20
156.863780
 30
0.0
 10
115.806090
 20
156.311010
 30
0.0
  0
SPLINE
  5
1dc
100
AcDbEntity
  8
Ebene_1
 62
7
100
AcDbSpline
 70
8
 71
3
 72
8
 73
4
 74
0
 40
0
 40
0
 40
0
 40
0
 40
1
 40
1
 40
1
 40
1
 10
115.806090
 20
156.311010
 30
0.0
 10
116.278330
 20
155.758270
 30
0.0
 10
117.261910
 20
154.381070
 30
0.0
 10
117.991840
 20
153.250580
 30
0.0
  0
SPLINE
  5
1dd
100
AcDbEntity
  8
Ebene_1
 62
7
100
AcDbSpline
 70
8
 71
3
 72
8
 73
4
 74
0
 40
0
 40
0
 40
0
 40
0
 40
1
 40
1
 40
1
 40
1
 10
117.991840
 20
153.250580
 30
0.0
 10
120.449460
 20
149.444320
 30
0.0
 10
120.687640
 20
149.111560
 30
0.0
 10
120.840230
 20
149.271250
 30
0.0
  0
SPLINE
  5
1de
100
AcDbEntity
  8
Ebene_1
 62
7
100
AcDbSpline
 70
8
 71
3
 72
8
 73
4
 74
0
 40
0
 40
0
 40
0
 40
0
 40
1
 40
1
 40
1
 40
1
 10
120.840230
 20
149.271250
 30
0.0
 10
120.923830
 20
149.358750
 30
0.0
 10
121.091040
 20
150.255450
 30
0.0
 10
121.211680
 20
151.263830
 30
0.0
  0
LWPOLYLINE
  5
1df
100
AcDbEntity
  8
Ebene_1
 62
7
100
AcDbPolyline
 90
1
 70
1
 10
109.656890
 20
148.008800
 30
0.0
  0
LWPOLYLINE
  5
1e0
100
AcDbEntity
  8
Ebene_1
 62
7
100
AcDbPolyline
 90
1
 70
1
 10
121.211680
 20
151.263830
 30
0.0
  0
LWPOLYLINE
  5
1e1
100
AcDbEntity
  8
Ebene_1
 62
1
100
AcDbPolyline
 90
4
 70
1
 10
5.000000
 20
275.000000
 30
0.0
 10
190.000000
 20
275.000000
 30
0.0
 10
190.000000
 20
10.000000
 30
0.0
 10
5.000000
 20
10.000000
 30
0.0
  0
ENDSEC
  0
SECTION
  2
OBJECTS
  0
DICTIONARY
  5
C
330
0
100
AcDbDictionary
  3
ACAD_GROUP
350
D
  3
ACAD_MLINESTYLE
350
17
  0
DICTIONARY
  5
D
330
C
100
AcDbDictionary
  0
DICTIONARY
  5
1A
330
C
100
AcDbDictionary
  0
DICTIONARY
  5
17
330
C
100
AcDbDictionary
  3
STANDARD
350
18
  0
DICTIONARY
  5
19
330
C
100
AcDbDictionary
  0
ENDSEC
  0
EOF
