<?xml version="1.0" encoding="UTF-8" standalone="no"?>
<!-- Created with Inkscape (http://www.inkscape.org/) -->

<svg
   xmlns:dc="http://purl.org/dc/elements/1.1/"
   xmlns:cc="http://creativecommons.org/ns#"
   xmlns:rdf="http://www.w3.org/1999/02/22-rdf-syntax-ns#"
   xmlns:svg="http://www.w3.org/2000/svg"
   xmlns="http://www.w3.org/2000/svg"
   xmlns:sodipodi="http://sodipodi.sourceforge.net/DTD/sodipodi-0.dtd"
   xmlns:inkscape="http://www.inkscape.org/namespaces/inkscape"
   width="210mm"
   height="297mm"
   viewBox="0 0 210 297"
   version="1.1"
   id="svg8"
   inkscape:version="0.92.4 (5da689c313, 2019-01-14)"
   sodipodi:docname="FamilieGeithWohntHier.svg">
  <defs
     id="defs2" />
  <sodipodi:namedview
     id="base"
     pagecolor="#ffffff"
     bordercolor="#666666"
     borderopacity="1.0"
     inkscape:pageopacity="0.0"
     inkscape:pageshadow="2"
     inkscape:zoom="0.49497475"
     inkscape:cx="629.15763"
     inkscape:cy="41.3935"
     inkscape:document-units="mm"
     inkscape:current-layer="layer1"
     showgrid="true"
     inkscape:window-width="1920"
     inkscape:window-height="1137"
     inkscape:window-x="-8"
     inkscape:window-y="-8"
     inkscape:window-maximized="1">
    <inkscape:grid
       type="xygrid"
       id="grid815" />
  </sodipodi:namedview>
  <metadata
     id="metadata5">
    <rdf:RDF>
      <cc:Work
         rdf:about="">
        <dc:format>image/svg+xml</dc:format>
        <dc:type
           rdf:resource="http://purl.org/dc/dcmitype/StillImage" />
        <dc:title></dc:title>
      </cc:Work>
    </rdf:RDF>
  </metadata>
  <g
     inkscape:label="Ebene 1"
     inkscape:groupmode="layer"
     id="layer1">
    <path
       style="opacity:1;fill:#ffffff;fill-opacity:1;stroke:#bf0000;stroke-width:0.56499994;stroke-linejoin:round;stroke-miterlimit:4;stroke-dasharray:none;stroke-opacity:1;paint-order:markers fill stroke"
       d="M 1.5258785e-5,106.99999 H 299.99998 c 1e-5,0 2e-5,1e-5 2e-5,2e-5 v 189.99997 c 0,1e-5 -10e-6,1e-5 -2e-5,1e-5 H 1.5258785e-5 C 6.8054183e-6,296.99999 0,296.99999 0,296.99998 V 107.00001 c 0,-1e-5 6.8054183e-6,-2e-5 1.5258785e-5,-2e-5 z"
       id="rect817" />
    <g
       aria-label="Familie"
       transform="matrix(1.026327,0,0,1.0168958,-72.812773,-99.745633)"
       style="font-style:normal;font-variant:normal;font-weight:bold;font-stretch:normal;font-size:99.82400513px;line-height:1.25;font-family:'Victorian LET';-inkscape-font-specification:'Victorian LET Bold';letter-spacing:-14.59925938px;word-spacing:0px;fill:#000003;fill-opacity:1;stroke:#110000;stroke-width:0.4894281;stroke-miterlimit:4;stroke-dasharray:none;stroke-opacity:1"
       id="text825-6-7">
      <path
         style="letter-spacing:0px;fill:#000003;fill-opacity:1;stroke:#110000;stroke-width:0.48942807;stroke-miterlimit:4;stroke-dasharray:none;stroke-opacity:1"
         d="m 111.30132,207.64635 c -11.480693,0.26082 -25.286087,5.15097 -29.306657,16.89063 -0.42207,3.3714 2.41444,6.13205 5.34375,7.23437 1.16063,12.07181 0.39121,24.45148 0.37695,36.63477 -1.05588,2.70333 -4.29479,3.36497 -6.38867,5.17188 -6.5566,0.33525 -4.93254,8.65873 -4.46289,13.05273 -0.58086,22.76308 -0.0772,45.63921 -0.2461,68.44531 15.652,-3.09457 31.525777,13.51102 29.317727,29.2787 l 24.93034,0.0709 h 198.51758 c -3.05403,-15.54734 12.9856,-31.92188 28.86326,-29.72377 0,0 0.21877,-53.0933 0.21877,-81.05748 -2.00869,-0.6289 -5.30886,0.0546 -6.51562,-0.39648 3.16652,-4.39966 4.51951,-13.3856 -2.20313,-15.06446 5.44242,-6.92575 7.12261,-18.79314 -0.0684,-25.04687 -3.70566,-1.89365 -8.15756,-0.53577 -11.77734,-2.74414 -11.47215,-2.69914 -22.93906,6.52893 -25.60547,17.44531 0.20544,-5.16355 -0.10766,-11.47861 -1.16016,-15.72656 6.00807,-7.80924 -3.6626,-19.88076 -12.61328,-15.71875 -7.86526,2.53829 -8.55616,14.62407 -2.45898,18.51172 -2.42788,0.62304 -5.20464,1.04985 -6.95703,3.0332 -0.30627,-9.10881 0.85704,-18.72714 -1.25196,-27.49805 -3.41429,-4.75409 -9.53802,-1.21919 -12.88476,1.60547 -4.17267,0.95331 -10.7861,2.07373 -10.38086,7.77539 -4.97033,-7.54252 -17.8733,-3.98268 -18.58594,4.92774 -0.69651,3.8101 0.90973,8.05781 4.29883,10.07422 -3.18246,0.45128 -7.46913,2.07326 -8.36523,5.01953 -3.42661,-10.73225 -18.37786,-12.52985 -26.21485,-6.37891 -5.14652,-4.31038 -12.68926,-3.76904 -18.48242,-1.93359 -5.3781,-3.75215 -9.84411,3.65424 -15.13672,3.77734 -7.80341,2.15498 -7.80341,2.15498 -15.45508,-2.92969 -5.87366,-3.88278 -12.97925,-1.7309 -19.33594,-1.31054 -2.54445,-0.35082 -5.40946,-0.7269 -3.5039,-3.61719 1.81453,-5.71174 0.0646,-14.98009 -7,-15.62891 -2.55134,0.10806 -4.91965,2.95382 -7.23633,0.48633 -5.73186,-2.62644 -11.87981,-4.80343 -18.26953,-4.66016 z"
         id="path850-9"
         inkscape:connector-curvature="0"
         sodipodi:nodetypes="ccccccccccccccccccccccccccccccccccccc" />
    </g>
    <g
       aria-label="Familie"
       transform="matrix(1.026327,0,0,1.0168958,9.3529729e-5,0.23666342)"
       style="font-style:normal;font-variant:normal;font-weight:bold;font-stretch:normal;font-size:99.82400513px;line-height:1.25;font-family:'Victorian LET';-inkscape-font-specification:'Victorian LET Bold';letter-spacing:-14.59925938px;word-spacing:0px;fill:#ffffe4;fill-opacity:1;stroke:#110000;stroke-width:0.4894281;stroke-miterlimit:4;stroke-dasharray:none;stroke-opacity:1"
       id="text825-6">
      <path
         style="letter-spacing:0px;fill:#ffffe4;fill-opacity:1;stroke:#110000;stroke-width:1.88976371;stroke-miterlimit:4;stroke-dasharray:none;stroke-opacity:1"
         d="m 154.48828,440.21484 c -15.37789,0 -30.25158,2.56115 -44.62109,7.68164 -13.991371,5.24537 -26.659561,12.67449 -38.003909,22.29102 -8.697333,7.61831 -13.044922,14.61303 -13.044922,20.98242 0,2.87247 1.511949,4.68426 4.53711,5.4336 l 3.970703,1.12304 c 5.041931,1.24893 8.697926,4.24637 10.966797,8.99219 2.142821,4.87072 3.21289,12.05134 3.21289,21.54297 v 109.4043 c 0,11.11521 -0.376523,19.10976 -1.132812,23.98046 -1.008388,5.1205 -2.83736,8.80472 -5.484375,11.05274 -3.025158,2.6227 -7.751223,5.36972 -14.179688,8.24219 -3.403304,1.49866 -5.105468,3.87199 -5.105468,7.11914 0,1.98328 0.646495,3.56581 1.917968,4.76172 H 37.794922 v 278.51562 c 62.621958,-4.9e-4 113.387208,50.76471 113.386718,113.38671 h 831.49609 c -4.9e-4,-62.6212 50.76357,-113.38612 113.38477,-113.38671 V 692.82227 h -52.4824 c 1.5074,-0.657 2.9977,-1.36662 4.4648,-2.14063 9.4537,-5.12049 17.1422,-12.36373 23.0664,-21.73047 6.6806,-10.74055 10.0215,-20.1086 10.0215,-28.10156 0,-2.12314 -0.5033,-3.87036 -1.5117,-5.24414 -1.0084,-1.37381 -2.3321,-2.06055 -3.9707,-2.06055 -1.3865,0 -3.0253,1.06242 -4.916,3.18555 -12.7309,15.23659 -26.3443,22.85547 -40.8399,22.85547 -7.0587,0 -13.8654,-1.93701 -20.4199,-5.8086 -6.8066,-3.8716 -12.16475,-8.86866 -16.07226,-14.98828 -3.52935,-5.74494 -6.36498,-13.54776 -8.50781,-23.41406 9.32757,10.74055 20.60867,16.10937 33.84377,16.10938 10.5881,0 20.6723,-3.12269 30.2519,-9.36719 9.3276,-6.24451 16.8913,-14.3623 22.6895,-24.35352 5.6722,-9.99118 8.5078,-20.60559 8.5078,-31.8457 0,-9.74142 -1.3871,-17.54814 -4.1602,-23.41797 -2.8991,-5.86982 -6.5531,-8.80469 -10.9648,-8.80469 -2.0168,0 -3.3405,0.0627 -3.9707,0.1875 -2.2689,0.37466 -4.2861,0.5625 -6.0508,0.5625 -3.9075,0 -7.185,-0.62415 -9.832,-1.87304 l -8.6973,-3.3711 c -5.6722,-2.24802 -11.9736,-3.375 -18.9062,-3.375 -12.983,0 -24.95766,3.93466 -35.92386,11.80274 -10.84016,7.7432 -19.41243,18.54541 -25.71484,32.4082 -6.30242,13.86279 -9.45313,28.97729 -9.45313,45.33789 0,15.86103 3.02391,30.15966 9.07422,42.89844 5.92429,12.73876 14.18148,22.60574 24.76953,29.59961 2.93368,1.915 5.96521,3.55856 9.08789,4.94922 h -58.30859 c 0.66752,-0.87735 1.00781,-1.96304 1.00781,-3.26368 0,-2.12313 -2.01723,-4.49644 -6.05078,-7.11914 -2.39494,-1.49866 -4.34876,-3.43372 -5.86133,-5.80664 -1.38654,-2.12313 -2.33174,-4.62167 -2.83594,-7.49414 -0.50417,-2.6227 -0.75586,-6.68259 -0.75586,-12.17773 V 535.56836 c 3e-5,-5.49517 -2.01723,-8.24219 -6.05078,-8.24219 -1.63863,0 -3.90753,0.9998 -6.80664,2.99805 -7.31081,5.12049 -13.42394,8.74017 -18.33984,10.86328 -5.54611,2.3729 -13.17318,4.49772 -22.87891,6.37109 -3.78146,0.74934 -5.67187,2.68438 -5.67187,5.80664 0,2.248 1.38709,3.99717 4.16015,5.2461 3.52935,1.87334 6.04991,3.62252 7.5625,5.24609 1.26048,1.62358 2.2057,3.99494 2.83594,7.11719 0.5042,2.62269 0.75586,7.05628 0.75586,13.30078 v 66.12891 4.12109 c 0,8.86718 -0.56674,15.1145 -1.70117,18.73633 -1.38652,3.6218 -3.90708,6.61733 -7.5625,8.99023 l -2.64648,1.87305 c -2.01679,1.12401 -3.0254,2.93577 -3.0254,5.43359 0,1.29902 0.28729,2.38543 0.85352,3.26368 h -16.79883 c 0.66753,-0.87735 1.00781,-1.96304 1.00781,-3.26368 0,-2.24801 -2.01723,-4.62133 -6.05078,-7.11914 -2.39491,-1.49866 -4.34874,-3.43372 -5.86132,-5.80664 -1.38655,-2.12313 -2.33175,-4.62167 -2.83594,-7.49414 -0.5042,-2.6227 -0.75586,-6.68259 -0.75586,-12.17773 V 449.76953 c 0,-5.62002 -2.01724,-8.43164 -6.05078,-8.43164 -1.63864,0 -3.78074,1.127 -6.42774,3.375 -6.05033,4.62095 -11.97519,8.11538 -17.77344,10.48828 -6.30241,2.62268 -14.11774,4.87272 -23.44531,6.7461 -4.28565,0.74933 -6.42773,2.80766 -6.42773,6.17968 0,2.12315 1.32368,3.87427 3.9707,5.24805 5.29403,2.49779 8.63494,5.11961 10.02149,7.86719 1.13443,2.6227 1.70117,8.36719 1.70117,17.23437 V 650.4043 c 0,11.36499 -0.56674,19.04648 -1.70117,23.04297 -1.38655,3.99648 -4.16073,7.24244 -8.32032,9.74023 -3.15122,1.62358 -4.72656,3.74839 -4.72656,6.37109 0,1.29896 0.28732,2.38545 0.85352,3.26368 h -15.85157 c 0.66753,-0.87735 1.00782,-1.96304 1.00782,-3.26368 0,-2.12313 -2.01724,-4.49644 -6.05078,-7.11914 -2.39496,-1.49866 -4.34877,-3.43372 -5.86133,-5.80664 -1.38655,-2.12313 -2.33177,-4.62167 -2.83594,-7.49414 -0.5042,-2.6227 -0.75586,-6.68259 -0.75586,-12.17773 V 535.56836 c 0,-5.49517 -2.01724,-8.24219 -6.05078,-8.24219 -1.63863,0 -3.90753,0.9998 -6.80664,2.99805 -7.31081,5.12049 -13.42398,8.74017 -18.33985,10.86328 -5.54613,2.3729 -13.17318,4.49772 -22.8789,6.37109 -3.78146,0.74934 -5.67188,2.68438 -5.67188,5.80664 0,2.248 1.38709,3.99717 4.16016,5.2461 3.52935,1.87334 6.04991,3.62252 7.5625,5.24609 1.26048,1.62358 2.2057,3.99494 2.83594,7.11719 0.50419,2.62269 0.75586,7.05628 0.75586,13.30078 v 66.12891 4.12109 c 0,8.86718 -0.56674,15.1145 -1.70118,18.73633 -1.38652,3.6218 -3.90708,6.61733 -7.5625,8.99023 l -2.64648,1.87305 c -2.01676,1.12401 -3.02539,2.93577 -3.02539,5.43359 0,1.29902 0.28728,2.38543 0.85351,3.26368 h -15.8789 c 0.68338,-0.91961 1.0332,-2.06606 1.0332,-3.45118 0,-2.3729 -1.89044,-4.74623 -5.67187,-7.11914 -3.65542,-2.49779 -6.23939,-5.68113 -7.75196,-9.55273 -1.63863,-3.74671 -2.45703,-8.99425 -2.45703,-15.73828 v -75.4961 -4.30664 c 0,-12.48899 -1.95382,-22.54382 -5.86133,-30.16211 -3.65539,-6.61918 -9.01354,-11.8628 -16.07226,-15.73437 -7.18474,-3.74672 -15.31514,-5.62305 -24.39063,-5.62305 -9.45361,0 -17.5206,1.937 -24.20117,5.8086 -6.80661,3.99647 -12.91978,10.11664 -18.33984,18.35937 -2.39492,-5.12048 -5.60903,-9.42887 -9.64258,-12.92578 -4.03355,-3.37204 -8.69621,-6.05841 -13.99023,-8.05664 -5.54614,-1.74847 -11.28277,-2.62305 -17.20704,-2.62305 -15.88209,0 -28.73854,6.68365 -38.57031,20.04688 v -10.49219 c 0,-2.3729 -0.50332,-4.37057 -1.51172,-5.99414 -0.88232,-1.49869 -2.39623,-2.25 -4.53906,-2.25 -1.63863,0 -3.65587,1.00175 -6.05078,3 -5.16798,4.24625 -10.90266,7.68003 -17.20508,10.30273 -6.17637,2.62268 -14.05316,4.87077 -23.63281,6.74414 -4.28566,0.74934 -6.42969,2.87223 -6.42969,6.36914 0,0.87424 0.37849,1.8095 1.13477,2.8086 0.63026,0.87424 1.95394,1.81336 3.9707,2.8125 4.66379,2.24802 7.56283,4.68201 8.69727,7.30469 1.00839,2.99737 1.51171,8.86708 1.51171,17.60937 v 66.50391 3.55859 c 0,8.74229 -0.56673,14.92702 -1.70117,18.54883 -1.26048,3.49694 -3.78104,6.55506 -7.5625,9.17773 -2.26887,1.49869 -3.90762,2.74893 -4.91601,3.74805 -0.50417,0.62445 -0.75586,1.81014 -0.75586,3.55859 0,1.29902 0.28728,2.38543 0.85351,3.26368 h -11.69922 c 0.48589,-0.83452 0.73047,-1.85899 0.73047,-3.07618 0,-2.49779 -2.14405,-5.05893 -6.42968,-7.68164 -1.89072,-1.24889 -3.46606,-2.62239 -4.72657,-4.12109 -1.38652,-1.62357 -2.45661,-3.68385 -3.21289,-6.18164 -0.75631,-1.87335 -1.44984,-4.80821 -2.08008,-8.80469 L 381.0918,573.97266 c -2.52097,-16.36061 -7.37384,-28.41306 -14.5586,-36.15625 -7.3108,-7.86806 -17.39502,-11.80274 -30.25195,-11.80274 -2.77306,0 -6.49051,0.31304 -11.1543,0.9375 l -13.23633,2.0625 c -4.78983,0.87425 -9.76756,1.31055 -14.93554,1.31055 -6.55451,0 -13.73969,-1.50067 -21.55469,-4.49805 -3.02516,-1.24889 -5.35747,-1.87304 -6.99609,-1.87305 -2.77307,0 -5.23023,2.37529 -7.37305,7.1211 -2.14282,4.99561 -3.21484,10.30182 -3.21484,15.92187 0,9.49166 3.27751,17.48425 9.83203,23.97852 6.55451,6.49426 14.6849,9.74219 24.39062,9.74219 5.29403,0 9.89524,-0.99982 13.80274,-2.99805 4.03354,-1.87334 6.04883,-3.99624 6.04882,-6.36914 0,-1.3738 -1.19687,-2.8099 -3.59179,-4.30859 -3.02516,-1.87335 -4.53711,-4.12148 -4.53711,-6.74414 0,-2.37293 1.07202,-4.43319 3.21484,-6.18165 2.01678,-1.62355 4.47394,-2.43554 7.37305,-2.43554 6.17637,0 11.02924,2.49856 14.55859,7.49414 3.40331,4.87072 6.36576,13.48744 8.88672,25.85156 4.28564,21.60595 6.42774,37.77898 6.42774,48.51953 0,9.86632 -2.33231,17.92349 -6.9961,24.16797 -4.66379,6.36941 -10.65011,9.55273 -17.96094,9.55273 -6.30241,0 -11.53376,-2.31071 -15.69335,-6.93164 -4.1596,-4.74583 -6.24024,-10.74077 -6.24024,-17.98437 0,-6.11962 1.5139,-11.11668 4.53906,-14.98828 2.89911,-3.74672 2.67997,-5.61914 7.34375,-5.61914 5.42008,0 9.70622,3.24789 12.85743,9.74219 1.13443,1.99821 2.26791,2.99804 3.40234,2.99804 2.26887,10e-6 4.2227,-1.56135 5.86133,-4.68359 1.51258,-2.99735 2.26953,-6.68157 2.26953,-11.05274 0,-6.2445 -1.38709,-11.67789 -4.16016,-16.29882 -2.77306,-4.62093 -6.80558,-8.17992 -12.09961,-10.67774 -16.9851,-8.25579 -39.78746,0.38657 -51.20898,11.80274 -9.95782,10.24097 -14.9375,23.22868 -14.9375,38.96484 0,16.1108 5.29475,29.5368 15.88281,40.27734 4.04205,4.15142 8.56221,7.47988 13.54883,10.00782 H 160.69727 c 1.02241,-1.08343 1.54296,-2.72617 1.54296,-4.94922 0,-3.49693 -1.95383,-5.80763 -5.86132,-6.93164 l -3.97071,-1.3125 c -5.67217,-1.87335 -9.95636,-4.11949 -12.85547,-6.74219 -2.64701,-2.49779 -4.47599,-6.49506 -5.48437,-11.99024 -1.00839,-5.74494 -1.51172,-13.48905 -1.51172,-23.23046 V 580.9043 c 10.33596,0.62444 18.71802,2.99778 25.14648,7.11914 6.68059,4.24624 13.48727,11.9258 20.41993,23.04101 2.01677,3.12225 4.15886,4.6836 6.42773,4.6836 2.14282,0 4.03325,-0.68677 5.67188,-2.06055 1.38653,-1.37378 2.08007,-3.06034 2.08007,-5.05859 0,-2.24802 -0.43992,-4.18307 -1.32226,-5.80664 l -6.24024,-14.61133 c -4.03354,-9.24186 -6.93259,-18.42211 -8.69726,-27.53906 -1.89073,-9.49166 -2.89935,-20.48365 -3.02539,-32.97266 -0.12605,-5.24537 -2.52176,-7.86719 -7.18555,-7.86719 -3.78145,0 -6.1752,2.18548 -7.18359,6.55664 l -1.51367,7.11914 c -1.76468,8.36765 -4.53691,14.42517 -8.31836,18.17188 -4.03355,3.99648 -9.45316,6.36981 -16.25977,7.11914 v -28.28711 -2.625 c 0,-41.4635 14.18014,-62.19336 42.54102,-62.19336 8.94943,0 16.32287,2.12094 22.12109,6.36719 5.79822,4.24627 8.69727,9.6816 8.69727,16.30078 0,3.87157 -1.07203,7.05491 -3.21485,9.55273 -2.26887,2.49779 -4.9777,3.74805 -8.1289,3.74805 -2.01678,0 -3.8438,-0.25044 -5.48243,-0.75 -1.13443,-0.37465 -2.0816,-0.5625 -2.83789,-0.5625 -3.27725,0 -4.91406,1.93701 -4.91406,5.80859 0,6.74407 3.46578,12.61183 10.39844,17.60742 6.93265,5.1205 14.80943,7.68165 23.63281,7.68165 13.86532,0 25.71511,-4.86992 35.54688,-14.61133 9.83176,-9.74143 14.74804,-21.54539 14.74804,-35.40821 0,-4.12136 -0.50528,-8.30452 -1.51367,-12.55078 -1.13443,-4.12136 -2.52153,-7.30471 -4.16016,-9.55273 -1.63862,-2.24803 -3.52905,-3.37305 -5.67187,-3.37305 -1.26048,0 -3.27576,0.99982 -6.04883,2.99805 -2.89911,1.99826 -6.4917,2.99805 -10.77734,2.99805 -2.26887,0 -4.09785,-0.18783 -5.48438,-0.5625 -1.38653,-0.12489 -3.71883,-0.87425 -6.99609,-2.24805 -3.27726,-1.12401 -7.56144,-2.87319 -12.85547,-5.2461 -11.34435,-5.12048 -21.30176,-8.74212 -29.87305,-10.86523 -8.31919,-1.87336 -17.58501,-2.81055 -27.79492,-2.81055 z m 563.0586,30.91016 c -6.1764,0 -11.6594,2.24809 -16.44922,6.74414 -4.66379,4.49605 -6.9961,9.92944 -6.9961,16.29883 0,6.36938 2.33231,11.80083 6.9961,16.29687 4.78982,4.49605 10.27282,6.7461 16.44922,6.7461 6.42845,0 11.91147,-2.25005 16.44921,-6.7461 4.53775,-4.49604 6.80664,-9.92749 6.80664,-16.29687 0,-6.36939 -2.26889,-11.80278 -6.80664,-16.29883 -4.53774,-4.49605 -10.02076,-6.74414 -16.44921,-6.74414 z m 178.48437,0 c -6.17637,0 -11.65939,2.24809 -16.44922,6.74414 -4.66378,4.49605 -6.99609,9.92944 -6.99609,16.29883 0,6.36938 2.33231,11.80083 6.99609,16.29687 4.78983,4.49605 10.27285,6.7461 16.44922,6.7461 6.42846,0 11.91148,-2.25005 16.44922,-6.7461 4.53774,-4.49604 6.80664,-9.92749 6.80664,-16.29687 0,-6.36939 -2.2689,-11.80278 -6.80664,-16.29883 -4.53774,-4.49605 -10.02076,-6.74414 -16.44922,-6.74414 z m 119.30465,76.99609 c 7.1848,0 13.1077,2.49658 17.7715,7.49219 4.6638,4.9956 6.9961,11.42879 6.9961,19.29688 0,9.74141 -2.584,17.9199 -7.7519,24.53906 -5.2941,6.74406 -11.7223,10.11719 -19.2852,10.11719 -4.5377,0 -8.3186,-1.31092 -11.3437,-3.9336 -3.0253,-2.6227 -4.53715,-5.87059 -4.53715,-9.74219 0,-2.49777 0.88178,-4.80849 2.64648,-6.93164 1.63857,-1.99822 3.78067,-2.99804 6.42777,-2.99804 1.7646,0 3.5302,0.6261 5.2949,1.875 2.1428,1.12401 3.4665,1.68554 3.9707,1.68554 1.3865,0 2.6468,-0.62414 3.7812,-1.87304 1.0084,-1.24892 1.5118,-2.687 1.5118,-4.31055 0,-1.74849 -0.8819,-3.68353 -2.6465,-5.80664 -1.6387,-1.74847 -3.9076,-3.30784 -6.8067,-4.68164 -2.773,-1.12401 -5.5472,-1.6875 -8.3203,-1.6875 -7.18468,0 -13.35934,3.37117 -18.52732,10.11523 1.89072,-10.36586 5.60814,-18.48369 11.1543,-24.35351 5.54612,-5.86985 12.10112,-8.80274 19.66402,-8.80274 z m -429.95113,11.42774 c 4.03354,0 7.62612,0.99786 10.77734,2.99609 3.1512,2.12313 5.35671,4.80754 6.61719,8.05469 1.76467,3.74668 2.64648,10.05467 2.64648,18.92187 v 61.44532 3.55859 c 0,8.74229 -0.56676,14.92702 -1.70117,18.54883 -1.13444,3.49694 -3.59159,6.55506 -7.37305,9.17773 l -2.83594,1.87305 c -2.01678,1.24893 -3.02539,3.06069 -3.02539,5.43359 0,1.29902 0.28728,2.38543 0.85352,3.26368 h -11.69336 c 0.66753,-0.87735 1.00781,-1.96304 1.00781,-3.26368 0,-2.12313 -2.01723,-4.49644 -6.05078,-7.11914 -2.39491,-1.49866 -4.34874,-3.43372 -5.86133,-5.80664 -1.38652,-2.12313 -2.33174,-4.62167 -2.83593,-7.49414 -0.5042,-2.6227 -0.75586,-6.68259 -0.75586,-12.17773 v -63.31836 c 0,-10.99034 1.76362,-19.42119 5.29297,-25.29102 3.4033,-5.86981 8.38299,-8.80273 14.9375,-8.80273 z m -84.13672,0.375 c 6.93265,0 11.9738,2.43396 15.125,7.30469 3.27726,4.99558 4.91601,12.11554 4.91601,21.35742 v 61.81836 4.12109 c 0,8.74229 -0.56673,14.92702 -1.70117,18.54883 -1.26048,3.49694 -3.78104,6.55506 -7.5625,9.17773 -2.52096,1.49869 -4.15973,2.74893 -4.91601,3.74805 -0.63026,0.87422 -0.94532,2.05991 -0.94532,3.55859 0,1.29896 0.28538,2.38545 0.85156,3.26368 h -11.42968 c 0.62274,-0.83445 0.93554,-1.85918 0.93554,-3.07618 0,-2.24802 -2.08064,-4.68394 -6.24023,-7.30664 -3.65539,-2.62267 -6.11257,-5.68082 -7.37305,-9.17773 -1.38654,-3.74672 -2.08007,-9.18206 -2.08008,-16.30078 v -64.81641 c 3e-5,-10.1161 1.82701,-18.04803 5.48243,-23.79297 3.65539,-5.62004 8.63508,-8.42773 14.9375,-8.42773 z M 351.97461,672.32422 c 0.37815,1.99823 0.94488,5.74311 1.70117,11.23828 0.63024,4.49605 1.82908,7.55614 3.59375,9.17969 0.0266,0.0282 0.0589,0.0522 0.0859,0.0801 h -24.75781 c 0.15604,-0.0898 0.31628,-0.17578 0.4707,-0.26758 6.93266,-4.12136 13.23407,-10.86373 18.90625,-20.23047 z"
         transform="matrix(0.25779633,0,0,0.26018726,-9.1130535e-5,-0.23273124)"
         id="path850"
         inkscape:connector-curvature="0"
         sodipodi:nodetypes="sccscccsscccsccccccccccscscscccsccscscsccscssccccscccscscccscccscscccsccscccssscccsccssccsccscccssscccscccscscccsccsccscsccsccccscscscccscccscscccsccsccccccsccscccssscccscsccscscscscccscccscccsccccscccscsccccscccccsscscscsscscsccscsccccsscscscscsscscscsssssscscscscscsccsccssccscscccsccscccsscsscscscccsccscccccscccccccc" />
    </g>
    <g
       aria-label="...wohnt hier..."
       transform="scale(1.0160115,0.98424083)"
       style="font-style:normal;font-variant:normal;font-weight:bold;font-stretch:normal;font-size:44.64101028px;line-height:0.75;font-family:'Victorian LET';-inkscape-font-specification:'Victorian LET Bold';text-align:center;letter-spacing:0px;word-spacing:0px;text-anchor:middle;fill:#000000;fill-opacity:1;stroke:none;stroke-width:0.26458332"
       id="text821">
      <path
         d="m 48.316312,281.34492 q 0,1.22065 -0.850097,2.04895 -0.871895,0.8501 -2.114345,0.8501 -1.198855,0 -2.048952,-0.8719 -0.871895,-0.8501 -0.871895,-2.07075 0,-1.24245 0.871895,-2.11434 0.850097,-0.8719 2.048952,-0.8719 1.24245,0 2.114345,0.8719 0.850097,0.87189 0.850097,2.15794 z"
         style="font-style:normal;font-variant:normal;font-weight:bold;font-stretch:normal;line-height:0.75;font-family:'Victorian LET';-inkscape-font-specification:'Victorian LET Bold';text-align:center;letter-spacing:0px;text-anchor:middle;stroke-width:0.26458332"
         id="path1755" />
      <path
         d="m 56.599312,281.34492 q 0,1.22065 -0.850097,2.04895 -0.871895,0.8501 -2.114345,0.8501 -1.198855,0 -2.048952,-0.8719 -0.871895,-0.8501 -0.871895,-2.07075 0,-1.24245 0.871895,-2.11434 0.850097,-0.8719 2.048952,-0.8719 1.24245,0 2.114345,0.8719 0.850097,0.87189 0.850097,2.15794 z"
         style="font-style:normal;font-variant:normal;font-weight:bold;font-stretch:normal;line-height:0.75;font-family:'Victorian LET';-inkscape-font-specification:'Victorian LET Bold';text-align:center;letter-spacing:0px;text-anchor:middle;stroke-width:0.26458332"
         id="path1757" />
      <path
         d="m 64.882312,281.34492 q 0,1.22065 -0.850097,2.04895 -0.871895,0.8501 -2.114345,0.8501 -1.198855,0 -2.048952,-0.8719 -0.871895,-0.8501 -0.871895,-2.07075 0,-1.24245 0.871895,-2.11434 0.850097,-0.8719 2.048952,-0.8719 1.24245,0 2.114345,0.8719 0.850097,0.87189 0.850097,2.15794 z"
         style="font-style:normal;font-variant:normal;font-weight:bold;font-stretch:normal;line-height:0.75;font-family:'Victorian LET';-inkscape-font-specification:'Victorian LET Bold';text-align:center;letter-spacing:0px;text-anchor:middle;stroke-width:0.26458332"
         id="path1759" />
      <path
         d="m 71.988254,265.30205 3.879931,10.35375 2.245129,-8.84973 q 0.326961,-1.24245 0.675718,-1.59121 0.326961,-0.34875 1.24245,-0.34875 0.937287,0 1.307843,0.30516 0.32696,0.32696 0.784705,1.54761 l 3.661958,9.80882 q 2.310521,-3.74915 2.310521,-5.71091 0,-0.56673 -0.261569,-0.8501 -0.261568,-0.30516 -0.697516,-0.30516 -0.653921,0 -0.719313,0.71931 -0.06539,0.52314 -0.457744,0.52314 -0.719314,0 -1.351437,-0.95909 -0.653921,-0.95908 -0.653921,-2.00535 0,-1.56942 1.089868,-2.61569 1.089869,-1.02448 2.790063,-1.02448 1.177058,0 2.179737,0.56674 0.959084,0.56673 1.525816,1.52581 0.566731,1.00268 0.566731,2.22333 0,1.06807 -0.435947,2.26693 -0.457745,1.17706 -1.438626,2.68108 l -1.874574,2.89905 q -1.613005,2.50669 -1.613005,3.92352 0,1.15526 0.980881,2.13614 0.50134,0.45775 0.50134,0.76291 0,0.76291 -1.111666,0.76291 h -5.29676 q -1.068071,0 -1.068071,-0.74111 0,-0.30516 0.305163,-0.61033 0.501339,-0.50134 0.653921,-0.74111 0.130784,-0.26157 0.130784,-0.63212 0,-0.45775 -0.130784,-0.8501 l -0.196177,-0.58853 q -0.04359,-0.15258 -0.130784,-0.41415 l -2.288723,-6.19045 -1.700195,6.77898 q -0.196176,0.8719 -0.196176,1.26425 0,0.52314 0.392352,0.95908 l 0.479542,0.47955 q 0.217974,0.21797 0.217974,0.54493 0,0.74111 -1.089868,0.74111 h -5.035193 q -1.24245,0 -1.24245,-0.76291 0,-0.30516 0.632124,-0.87189 0.632124,-0.58853 0.632124,-1.22065 0,-0.67572 -0.523137,-2.13615 l -2.811861,-7.58548 q -0.8283,-2.17974 -2.441305,-2.59389 -0.479542,-0.13078 -0.610326,-0.26157 -0.152582,-0.13078 -0.152582,-0.39235 0,-0.43595 0.239771,-0.61033 0.261569,-0.17437 1.111666,-0.43594 1.525816,-0.41415 3.422187,-2.37592 0.348758,-0.34875 0.675718,-0.34875 0.326961,0 0.544935,0.17438 0.196176,0.17437 0.348758,0.67571 z"
         style="font-style:normal;font-variant:normal;font-weight:bold;font-stretch:normal;line-height:0.75;font-family:'Victorian LET';-inkscape-font-specification:'Victorian LET Bold';text-align:center;letter-spacing:0px;text-anchor:middle;stroke-width:0.26458332"
         id="path1761" />
      <path
         d="m 108.95659,274.39156 q 0,2.85545 -0.98088,5.14418 -0.98088,2.31052 -2.74647,3.57476 -1.78738,1.28605 -3.96712,1.28605 -2.266927,0 -4.010717,-1.19886 -1.787384,-1.19885 -2.768265,-3.33499 -1.002679,-2.09255 -1.002679,-4.86082 0,-3.68375 2.005358,-7.10594 0.501339,-0.8501 0.762908,-1.11167 0.239771,-0.23977 0.457744,-0.23977 0.479542,0 0.479542,0.50134 0,0.19618 -0.261568,1.15526 -0.41415,1.52582 -0.41415,2.85546 0,2.11434 0.784705,3.92353 0.762908,1.80918 2.07075,2.89905 1.329642,1.08986 2.768262,1.08986 1.6784,0 2.79007,-1.35143 1.11166,-1.35144 1.11166,-3.335 0,-1.08987 -0.43594,-2.20153 -0.41415,-1.06808 -1.15526,-1.76559 -0.71932,-0.65392 -1.52582,-0.65392 -0.54493,0 -0.89369,0.34876 -0.39236,0.34875 -0.39236,0.8065 0,0.0872 0.0436,0.30516 l 0.0872,0.30516 q 0,0.0218 0.0218,0.0436 v 0.0872 q 0,0.50134 -0.65392,0.50134 -0.80651,0 -1.634808,-0.58853 -0.762907,-0.52314 -1.286044,-1.46042 -0.479542,-0.8719 -0.479542,-1.91817 0,-1.59121 1.111665,-2.72467 1.111666,-1.13347 2.746469,-1.13347 2.09255,0 3.74915,1.32964 1.67839,1.35144 2.65928,3.66196 0.95908,2.35412 0.95908,5.16598 z"
         style="font-style:normal;font-variant:normal;font-weight:bold;font-stretch:normal;line-height:0.75;font-family:'Victorian LET';-inkscape-font-specification:'Victorian LET Bold';text-align:center;letter-spacing:0px;text-anchor:middle;stroke-width:0.26458332"
         id="path1763" />
      <path
         d="m 117.50116,255.44964 v 11.22565 q 2.20154,-2.39771 4.81722,-2.39771 1.50402,0 2.76827,0.67572 1.26424,0.67571 1.85277,1.76558 0.71932,1.24245 0.71932,3.55297 v 0.50134 8.19581 0.47955 q 0,0.91549 0.10898,1.52581 0.10899,0.56673 0.32696,0.89369 0.23977,0.34876 0.65392,0.65392 0.69752,0.45775 0.69752,0.8283 0,0.69752 -1.08987,0.69752 h -6.36483 q -0.65392,0 -0.87189,-0.15258 -0.23978,-0.17438 -0.23978,-0.54494 0,-0.41415 0.34876,-0.63212 l 0.30517,-0.21797 q 0.67571,-0.45775 0.87189,-1.13347 0.19618,-0.65392 0.19618,-2.52849 v -7.12774 q 0,-1.78738 -0.56674,-2.65928 -0.56673,-0.8283 -1.76558,-0.8283 -1.32964,0 -2.04895,1.02448 -0.71932,1.00268 -0.71932,2.85545 v 7.01876 0.47954 q 0,0.95908 0.0872,1.39503 0.0872,0.50134 0.32696,0.87189 0.23977,0.37056 0.67572,0.65392 0.69752,0.45775 0.69752,0.8283 0,0.69752 -1.11167,0.69752 h -6.34303 q -0.71932,0 -0.93729,-0.15258 -0.26157,-0.17438 -0.26157,-0.54494 0,-0.39235 0.37056,-0.63212 l 0.30516,-0.21797 q 0.63212,-0.43595 0.87189,-1.08987 0.19618,-0.63212 0.19618,-2.13614 v -0.63213 -17.61227 q 0,-1.04627 -0.0872,-1.48222 -0.0872,-0.50134 -0.37055,-0.76291 -0.30517,-0.30516 -0.8937,-0.58853 -0.43594,-0.19617 -0.43594,-0.58853 0,-0.61032 0.69751,-0.74111 1.72199,-0.37055 2.72467,-0.7847 1.06807,-0.45775 2.02716,-1.22066 0.50134,-0.37055 0.74111,-0.37055 0.71931,0 0.71931,0.95908 z"
         style="font-style:normal;font-variant:normal;font-weight:bold;font-stretch:normal;line-height:0.75;font-family:'Victorian LET';-inkscape-font-specification:'Victorian LET Bold';text-align:center;letter-spacing:0px;text-anchor:middle;stroke-width:0.26458332"
         id="path1765" />
      <path
         d="m 137.9035,265.49823 v 1.17706 q 1.15526,-1.22065 2.28872,-1.80918 1.15526,-0.58853 2.5067,-0.58853 1.72199,0 3.05163,0.85009 1.35144,0.8937 1.87458,2.28873 0.37055,1.06807 0.37055,3.35679 v 8.41379 q 0,1.48222 0.21798,2.13614 0.23977,0.69752 0.7847,1.08987 l 0.43595,0.28336 q 0.37055,0.23977 0.37055,0.63213 0,0.71931 -1.11166,0.71931 h -6.29944 q -0.69752,0 -0.91549,-0.15258 -0.26157,-0.17438 -0.26157,-0.54494 0,-0.41415 0.34876,-0.63212 l 0.32696,-0.21797 q 0.65392,-0.45775 0.8501,-1.06807 0.19617,-0.63213 0.19617,-2.15794 v -0.41415 -7.14954 q 0,-1.37323 -0.23977,-2.02716 -0.21797,-0.67571 -0.7847,-1.06807 -0.54494,-0.39235 -1.28605,-0.39235 -0.76291,0 -1.39503,0.45775 -0.65392,0.52313 -1.00268,1.30784 -0.32696,0.74111 -0.32696,2.22333 v 7.34571 q 0,1.06807 0.0872,1.52582 0.10899,0.54493 0.37055,0.8501 0.23978,0.32696 0.8719,0.7629 0.45774,0.28337 0.45774,0.67572 0,0.67572 -1.08986,0.67572 h -6.34304 q -0.71931,0 -0.93729,-0.15258 -0.26156,-0.17438 -0.26156,-0.54494 0,-0.26156 0.10898,-0.41415 0.17438,-0.17437 0.56673,-0.43594 0.65393,-0.45775 0.8719,-1.06807 0.19618,-0.58853 0.19618,-2.15794 v -0.41415 -7.67268 q 0,-1.50402 -0.21798,-2.00535 -0.21797,-0.52314 -0.98088,-0.91549 -0.58853,-0.32696 -0.58853,-0.67572 0,-0.54494 0.67572,-0.69752 l 1.22065,-0.28336 q 1.74379,-0.34876 3.50938,-1.722 0.43595,-0.34875 0.74111,-0.34875 0.74111,0 0.74111,0.95908 z"
         style="font-style:normal;font-variant:normal;font-weight:bold;font-stretch:normal;line-height:0.75;font-family:'Victorian LET';-inkscape-font-specification:'Victorian LET Bold';text-align:center;letter-spacing:0px;text-anchor:middle;stroke-width:0.26458332"
         id="path1767" />
      <path
         d="m 161.00871,267.4164 h -3.13882 v 10.39734 q 0,1.43863 0.23977,2.09255 0.19618,0.47954 0.61033,0.76291 0.43594,0.30516 0.89369,0.30516 0.52314,0 1.13346,-0.43595 0.56673,-0.39235 0.71932,-0.39235 0.23977,0 0.41415,0.17438 0.15258,0.17438 0.15258,0.43595 0,0.45774 -0.39236,1.15526 -0.41415,0.65392 -1.04627,1.19885 -1.52582,1.30785 -3.72735,1.30785 -2.63748,0 -3.64016,-2.11435 -0.43595,-0.91549 -0.43595,-2.65928 V 267.4164 h -2.55029 v -1.93997 l 0.37056,-0.10898 q 2.35411,-0.78471 3.46578,-2.09255 1.08987,-1.26425 1.6566,-3.90173 0.19617,-0.98088 0.41415,-1.22065 0.23977,-0.26157 0.76291,-0.26157 0.50133,0 0.74111,0.30516 0.21797,0.28337 0.21797,1.02448 v 5.62372 h 3.13882 z"
         style="font-style:normal;font-variant:normal;font-weight:bold;font-stretch:normal;line-height:0.75;font-family:'Victorian LET';-inkscape-font-specification:'Victorian LET Bold';text-align:center;letter-spacing:0px;text-anchor:middle;stroke-width:0.26458332"
         id="path1769" />
      <path
         d="m 178.53379,255.44964 v 11.22565 q 2.20153,-2.39771 4.81721,-2.39771 1.50402,0 2.76827,0.67572 1.26425,0.67571 1.85278,1.76558 0.71931,1.24245 0.71931,3.55297 v 0.50134 8.19581 0.47955 q 0,0.91549 0.10899,1.52581 0.10898,0.56673 0.32696,0.89369 0.23977,0.34876 0.65392,0.65392 0.69751,0.45775 0.69751,0.8283 0,0.69752 -1.08987,0.69752 h -6.36483 q -0.65392,0 -0.87189,-0.15258 -0.23977,-0.17438 -0.23977,-0.54494 0,-0.41415 0.34876,-0.63212 l 0.30516,-0.21797 q 0.67572,-0.45775 0.87189,-1.13347 0.19618,-0.65392 0.19618,-2.52849 v -7.12774 q 0,-1.78738 -0.56673,-2.65928 -0.56673,-0.8283 -1.76559,-0.8283 -1.32964,0 -2.04895,1.02448 -0.71931,1.00268 -0.71931,2.85545 v 7.01876 0.47954 q 0,0.95908 0.0872,1.39503 0.0872,0.50134 0.32696,0.87189 0.23977,0.37056 0.67571,0.65392 0.69752,0.45775 0.69752,0.8283 0,0.69752 -1.11167,0.69752 h -6.34303 q -0.71931,0 -0.93729,-0.15258 -0.26157,-0.17438 -0.26157,-0.54494 0,-0.39235 0.37056,-0.63212 l 0.30516,-0.21797 q 0.63213,-0.43595 0.8719,-1.08987 0.19617,-0.63212 0.19617,-2.13614 v -0.63213 -17.61227 q 0,-1.04627 -0.0872,-1.48222 -0.0872,-0.50134 -0.37055,-0.76291 -0.30516,-0.30516 -0.89369,-0.58853 -0.43595,-0.19617 -0.43595,-0.58853 0,-0.61032 0.69752,-0.74111 1.72199,-0.37055 2.72467,-0.7847 1.06807,-0.45775 2.02715,-1.22066 0.50134,-0.37055 0.74111,-0.37055 0.71932,0 0.71932,0.95908 z"
         style="font-style:normal;font-variant:normal;font-weight:bold;font-stretch:normal;line-height:0.75;font-family:'Victorian LET';-inkscape-font-specification:'Victorian LET Bold';text-align:center;letter-spacing:0px;text-anchor:middle;stroke-width:0.26458332"
         id="path1771" />
      <path
         d="m 199.63365,284.04779 h -6.36483 q -0.69752,0 -0.91549,-0.15258 -0.26157,-0.17438 -0.26157,-0.54494 0,-0.43594 0.34876,-0.63212 l 0.30516,-0.21797 q 0.63212,-0.41415 0.87189,-1.04628 0.19618,-0.63212 0.19618,-2.17973 v -0.47955 -7.69447 q 0,-1.08986 -0.0872,-1.54761 -0.10899,-0.54493 -0.32696,-0.8283 -0.26157,-0.28337 -0.8719,-0.61033 -0.47954,-0.21797 -0.47954,-0.61032 0,-0.54494 0.65392,-0.67572 1.6784,-0.32696 2.63749,-0.74111 0.85009,-0.37056 2.11434,-1.26425 0.50134,-0.34876 0.7847,-0.34876 0.69752,0 0.69752,0.95909 v 14.12469 q 0,0.95909 0.0872,1.41683 0.0872,0.50134 0.32696,0.8719 0.26157,0.41415 0.67572,0.67571 0.69751,0.45775 0.69751,0.8283 0,0.69752 -1.08986,0.69752 z m -0.39236,-23.43217 q 0,1.11167 -0.7847,1.89637 -0.78471,0.78471 -1.89637,0.78471 -1.06807,0 -1.89637,-0.78471 -0.80651,-0.7847 -0.80651,-1.89637 0,-1.11167 0.80651,-1.89637 0.8283,-0.78471 1.89637,-0.78471 1.11166,0 1.89637,0.78471 0.7847,0.7847 0.7847,1.89637 z"
         style="font-style:normal;font-variant:normal;font-weight:bold;font-stretch:normal;line-height:0.75;font-family:'Victorian LET';-inkscape-font-specification:'Victorian LET Bold';text-align:center;letter-spacing:0px;text-anchor:middle;stroke-width:0.26458332"
         id="path1773" />
      <path
         d="m 206.76139,270.7514 q 0.89369,-1.17706 2.13614,-1.17706 0.47954,0 0.95908,0.19617 0.50134,0.23978 0.78471,0.54494 0.30516,0.37055 0.30516,0.67572 0,0.28336 -0.17438,0.50134 -0.19617,0.21797 -0.43594,0.21797 -0.0872,0 -0.45775,-0.19618 -0.30516,-0.21797 -0.61032,-0.21797 -0.45775,0 -0.74112,0.34876 -0.30516,0.37055 -0.30516,0.8065 0,0.67572 0.52314,1.13346 0.52314,0.45775 1.30784,0.45775 1.30784,0 2.22333,-1.17706 0.89369,-1.15526 0.89369,-2.85545 0,-1.37324 -0.8065,-2.24513 -0.8065,-0.8719 -2.04895,-0.8719 -1.30784,0 -2.26693,1.02448 -0.95908,1.02447 -1.28604,2.83366 z m 0.0436,3.96712 q 0.37056,1.72199 0.98088,2.72467 0.67572,1.06807 1.85278,1.74379 1.13346,0.67572 2.35412,0.67572 2.50669,0 4.70823,-2.65928 0.32696,-0.37056 0.56673,-0.37056 0.28337,0 0.45774,0.23977 0.17438,0.23977 0.17438,0.61033 0,1.39503 -1.15526,3.2696 -1.02447,1.63481 -2.65928,2.5285 -1.67839,0.89369 -3.66195,0.89369 -2.28873,0 -4.1415,-1.22065 -1.83098,-1.22065 -2.85546,-3.44399 -1.04627,-2.22333 -1.04627,-4.99159 0,-2.85546 1.08987,-5.27497 1.08986,-2.4195 2.96444,-3.77094 1.89637,-1.37324 4.1415,-1.37324 1.19885,0 2.17973,0.39236 l 1.00268,0.39235 q 0.45775,0.21797 1.13347,0.21797 0.30516,0 0.69751,-0.0654 0.10899,-0.0218 0.45775,-0.0218 0.7629,0 1.26424,1.02448 0.47955,1.02448 0.47955,2.72467 0,1.96176 -0.98089,3.70555 -1.00267,1.74379 -2.61568,2.83366 -1.6566,1.08987 -3.48758,1.08987 -2.28872,0 -3.90173,-1.87457 z"
         style="font-style:normal;font-variant:normal;font-weight:bold;font-stretch:normal;line-height:0.75;font-family:'Victorian LET';-inkscape-font-specification:'Victorian LET Bold';text-align:center;letter-spacing:0px;text-anchor:middle;stroke-width:0.26458332"
         id="path1775" />
      <path
         d="m 226.50979,265.34565 v 2.28872 q 0.65392,-1.56941 1.6784,-2.4631 1.00268,-0.8719 2.15794,-0.8719 0.91549,0 1.78738,0.52314 0.8283,0.54494 1.39504,1.37324 0.54493,0.8283 0.54493,1.613 0,0.52314 -0.28337,0.8719 -0.32696,0.39235 -1.02447,0.8065 -0.98088,0.61032 -1.37324,1.17706 -0.39235,0.54493 -0.39235,1.28604 0,0.39235 0.23977,1.17706 0.13079,0.47954 0.13079,0.54493 0,0.32696 -0.26157,0.52314 -0.26157,0.19618 -0.54494,0.19618 -1.43862,0 -1.46042,-2.76827 -0.0218,-1.26425 -0.30516,-1.76559 -0.28337,-0.47954 -0.93729,-0.47954 -0.69752,0 -1.02448,0.71931 -0.32696,0.74112 -0.32696,2.31053 v 6.90976 0.41415 q 0,1.28605 0.26157,1.87458 0.26157,0.63212 1.06807,0.98088 0.45775,0.19617 0.61033,0.34875 0.13078,0.15259 0.13078,0.45775 0,0.37055 -0.19617,0.50134 -0.21798,0.15258 -0.76291,0.15258 h -7.04055 q -0.54494,0 -0.76291,-0.15258 -0.21797,-0.15258 -0.21797,-0.50134 0,-0.34876 0.63212,-0.78471 0.67572,-0.41415 0.91549,-1.06807 0.21797,-0.58853 0.21797,-1.93996 v -9.06771 q 0,-0.98088 -0.23977,-1.50402 -0.21797,-0.47954 -0.89369,-0.7847 -0.58853,-0.30516 -0.58853,-0.67572 0,-0.43595 0.28337,-0.58853 0.26157,-0.17438 0.98088,-0.26157 1.93996,-0.23977 4.05431,-1.76558 0.54493,-0.41415 0.8501,-0.41415 0.30516,0 0.50134,0.21797 0.19617,0.21797 0.19617,0.58853 z"
         style="font-style:normal;font-variant:normal;font-weight:bold;font-stretch:normal;line-height:0.75;font-family:'Victorian LET';-inkscape-font-specification:'Victorian LET Bold';text-align:center;letter-spacing:0px;text-anchor:middle;stroke-width:0.26458332"
         id="path1777" />
      <path
         d="m 237.90982,281.34492 q 0,1.22065 -0.8501,2.04895 -0.87189,0.8501 -2.11434,0.8501 -1.19886,0 -2.04896,-0.8719 -0.87189,-0.8501 -0.87189,-2.07075 0,-1.24245 0.87189,-2.11434 0.8501,-0.8719 2.04896,-0.8719 1.24245,0 2.11434,0.8719 0.8501,0.87189 0.8501,2.15794 z"
         style="font-style:normal;font-variant:normal;font-weight:bold;font-stretch:normal;line-height:0.75;font-family:'Victorian LET';-inkscape-font-specification:'Victorian LET Bold';text-align:center;letter-spacing:0px;text-anchor:middle;stroke-width:0.26458332"
         id="path1779" />
      <path
         d="m 246.23642,281.34492 q 0,1.22065 -0.8501,2.04895 -0.87189,0.8501 -2.11434,0.8501 -1.19886,0 -2.04896,-0.8719 -0.87189,-0.8501 -0.87189,-2.07075 0,-1.24245 0.87189,-2.11434 0.8501,-0.8719 2.04896,-0.8719 1.24245,0 2.11434,0.8719 0.8501,0.87189 0.8501,2.15794 z"
         style="font-style:normal;font-variant:normal;font-weight:bold;font-stretch:normal;line-height:0.75;font-family:'Victorian LET';-inkscape-font-specification:'Victorian LET Bold';text-align:center;letter-spacing:0px;text-anchor:middle;stroke-width:0.26458332"
         id="path1781" />
      <path
         d="m 254.51942,281.34492 q 0,1.22065 -0.8501,2.04895 -0.87189,0.8501 -2.11434,0.8501 -1.19886,0 -2.04895,-0.8719 -0.8719,-0.8501 -0.8719,-2.07075 0,-1.24245 0.8719,-2.11434 0.85009,-0.8719 2.04895,-0.8719 1.24245,0 2.11434,0.8719 0.8501,0.87189 0.8501,2.15794 z"
         style="font-style:normal;font-variant:normal;font-weight:bold;font-stretch:normal;line-height:0.75;font-family:'Victorian LET';-inkscape-font-specification:'Victorian LET Bold';text-align:center;letter-spacing:0px;text-anchor:middle;stroke-width:0.26458332"
         id="path1783" />
    </g>
    <g
       aria-label="GEITH"
       transform="scale(1.0417479,0.95992517)"
       style="font-style:normal;font-variant:normal;font-weight:bold;font-stretch:normal;font-size:86.87206268px;line-height:1.25;font-family:'Victorian LET';-inkscape-font-specification:'Victorian LET Bold';letter-spacing:-12.70503807px;word-spacing:0px;fill:#000000;fill-opacity:1;stroke:none;stroke-width:0.26458335"
       id="text825">
      <path
         d="m 74.911013,235.08644 -0.04242,5.34467 q 0,2.33299 0.466598,3.35102 0.466598,1.06045 1.951228,1.73914 1.102868,0.50902 1.102868,1.3998 0,1.86639 -2.96926,4.45389 -3.266186,2.88442 -8.05942,4.45389 -4.835652,1.6543 -10.349992,1.6543 -11.961876,0 -19.30019,-8.35635 -3.60553,-4.15696 -5.429504,-9.6713 -1.90881,-5.55676 -1.90881,-11.5377 0,-6.19303 1.951228,-11.66495 1.993646,-5.51434 5.51434,-9.54405 3.563112,-4.02971 8.313928,-6.23544 4.793234,-2.16332 10.18032,-2.16332 4.538726,0 9.501632,1.82397 3.39344,1.27254 4.114546,1.27254 1.102868,0 2.290572,-0.76352 1.102868,-0.80594 1.823974,-0.80594 0.721106,0 1.442212,0.7211 0.678688,0.67869 1.27254,1.95123 0.593852,1.27254 0.890778,2.84201 0.339344,1.69672 0.339344,3.18135 0,3.86003 -1.866392,7.12622 -1.866392,3.18135 -5.132578,5.04774 -3.266186,1.86639 -7.21106,1.86639 -4.2418,0 -6.99897,-2.16331 -2.75717,-2.16332 -2.75717,-5.51434 0,-2.20574 1.314958,-3.77521 1.27254,-1.61188 3.096514,-1.61188 0.933196,0 1.611884,0.50902 0.63627,0.55143 0.63627,1.31495 0,0.63627 -1.102868,1.35738 -1.314958,0.80594 -1.314958,2.03606 0,1.01804 0.84836,1.73914 0.84836,0.76353 2.036064,0.76353 1.823974,0 3.096514,-1.52705 1.230122,-1.48463 1.230122,-3.64795 0,-2.07848 -1.187704,-3.90246 -1.187704,-1.78155 -3.18135,-2.79958 -2.036064,-1.01804 -4.411472,-1.01804 -4.581144,0 -8.101838,2.71476 -3.520694,2.71475 -5.599176,7.67765 -2.036064,4.87807 -2.036064,11.0711 0,9.24713 4.411472,14.88872 2.078482,2.5875 4.708398,3.98729 2.629916,1.3998 5.259832,1.3998 2.205736,0 4.114546,-0.9332 1.951228,-0.89078 2.842006,-2.29057 1.187704,-1.95123 1.187704,-6.06578 0,-2.92684 -0.721106,-4.15696 -0.678688,-1.23012 -3.18135,-2.29057 -0.975614,-0.50902 -1.399794,-0.97562 -0.42418,-0.42418 -0.42418,-1.14528 0,-0.84836 0.551434,-1.3998 0.593852,-0.59385 1.399794,-0.59385 0.890778,0 3.308604,0.76353 2.375408,0.76352 5.09016,0.76352 3.138932,0 7.21106,-1.23012 1.145286,-0.38176 2.036064,-0.38176 0.593852,0 1.018032,0.2545 0.42418,0.33935 0.63627,0.72111 0.254508,0.42418 0.254508,0.9332 0,1.01803 -0.84836,1.61188 l -1.357376,0.97561 q -1.187704,0.80595 -1.654302,1.78156 -0.509016,1.01803 -0.509016,2.67233 z"
         style="letter-spacing:0px;stroke-width:0.26458335"
         id="path1744" />
      <path
         d="m 100.23456,230.42046 v 6.48996 q 0,2.1209 0.21209,4.15696 0.38176,3.94488 2.84201,6.02336 2.3754,2.07848 6.57479,2.07848 4.53872,0 7.38073,-2.33299 2.842,-2.29057 3.86003,-6.74446 0.38177,-1.56947 0.84836,-2.24816 0.4666,-0.63627 1.23013,-0.63627 1.48463,0 1.73913,2.07849 0.25451,2.58749 0.97562,5.25983 0.67869,2.41782 1.86639,4.62356 1.14529,2.07848 2.54508,3.56311 1.61188,1.73914 1.61188,2.54508 0,0.72111 -0.50901,1.31496 -0.59385,0.59385 -1.23012,0.59385 -0.33935,0 -0.97562,-0.21209 -1.99364,-0.59385 -4.87807,-0.59385 h -1.10287 -37.752014 q -2.417826,0 -2.417826,-1.69672 0,-0.80594 0.42418,-1.23012 0.42418,-0.42418 1.739138,-0.97562 1.781556,-0.7211 2.417825,-1.61188 0.721106,-0.9332 0.975614,-2.84201 0.21209,-2.20573 0.21209,-6.23544 v -23.3299 q 0,-3.56311 -0.721106,-5.00533 -0.678688,-1.39979 -3.011677,-2.16331 -0.678688,-0.25451 -0.975614,-0.55144 -0.296926,-0.29692 -0.296926,-0.89078 0,-2.41782 4.326635,-5.64159 7.465568,-5.72643 17.433801,-5.72643 3.3086,0 5.98094,0.63627 2.71475,0.72111 6.70204,2.41783 0.50902,0.21209 1.44221,0.59385 0.9332,0.38176 1.1877,0.50901 1.35738,0.55144 1.78156,0.63627 0.4666,0.12726 1.06045,0.12726 1.52705,0 2.46024,-0.67869 l 0.89078,-0.50902 q 0.21209,-0.12725 0.50902,-0.12725 0.7211,0 1.27254,0.76352 0.55143,0.76353 0.93319,2.16332 0.33935,1.48463 0.33935,2.92684 0,3.01168 -1.48463,5.59918 -1.52705,2.62992 -4.11455,4.07213 -2.5875,1.52705 -5.76884,1.52705 -2.92685,0 -5.175,-1.73914 -2.29057,-1.73914 -2.29057,-3.98729 0,-1.31496 1.06045,-1.31496 0.12725,0 0.4666,0.0848 l 0.80594,0.21209 q 0.25451,0.0848 0.59385,0.0848 1.14529,0 1.82397,-0.89078 0.67869,-0.80594 0.67869,-2.20573 0,-2.33299 -1.95123,-3.77521 -1.95122,-1.44221 -4.9629,-1.44221 -5.6416,0 -8.017,5.04774 -0.80595,1.82398 -1.14529,4.07213 -0.33934,2.29057 -0.38176,7.04139 l -0.0424,5.00532 q 2.46024,-0.2545 3.64795,-1.6543 1.14528,-1.27254 1.99364,-4.87807 0.59386,-2.24815 1.99365,-2.24815 1.44221,0 1.44221,1.61188 v 1.31496 q 0,1.86639 0.38176,4.2418 0.33935,2.41783 1.01804,4.7084 0.63627,2.24815 1.52704,4.36905 l 1.14529,2.62992 q 0.29693,0.59385 0.29693,1.23012 0,0.72111 -0.4666,1.1877 -0.4666,0.4666 -1.23012,0.4666 -0.59386,0 -0.89078,-0.29692 -0.4666,-0.4666 -1.73914,-2.20574 -1.99365,-2.96926 -3.86004,-4.07213 -1.95123,-1.10287 -5.25983,-1.31496 z"
         style="letter-spacing:0px;stroke-width:0.26458335"
         id="path1746" />
      <path
         d="m 140.61649,243.27312 v -30.20162 -0.84836 q 0,-3.69036 -0.84836,-5.51434 -0.89078,-1.82397 -3.3086,-3.13893 -1.56947,-0.9332 -1.56947,-1.82397 0,-0.76353 0.4666,-1.31496 0.4666,-0.50902 1.06045,-0.50902 0.50901,0 1.27254,0.25451 l 2.67233,0.89078 q 3.5207,1.10287 5.98094,1.10287 2.46024,0 5.98094,-1.10287 l 2.62991,-0.89078 q 0.84836,-0.25451 1.31496,-0.25451 0.59385,0 1.01803,0.50902 0.4666,0.59385 0.4666,1.27254 0,0.93319 -1.56946,1.86639 -2.41783,1.44221 -3.26619,3.18135 -0.84836,1.78156 -0.84836,5.47192 v 0.84836 30.20162 q 0,2.62991 0.12725,4.2418 0.12726,1.56946 0.59386,2.5875 0.42418,0.93319 1.1877,1.44221 0.63627,0.50901 2.71475,1.52705 1.14529,0.50901 1.14529,1.61188 0,1.69672 -2.71475,1.69672 h -17.60347 q -2.71476,0 -2.71476,-1.69672 0,-1.10287 1.14529,-1.61188 2.16332,-0.97562 3.18135,-1.8664 0.89078,-0.76352 1.23012,-2.50266 0.25451,-1.6543 0.25451,-5.4295 z"
         style="letter-spacing:0px;stroke-width:0.26458335"
         id="path1748" />
      <path
         d="m 180.9136,212.81699 q -3.47828,-0.59385 -6.27786,-0.59385 -5.04775,0 -9.8834,4.07213 l -2.07848,1.78156 q -0.84836,0.67868 -1.44221,0.67868 -0.55144,0 -1.14529,-0.50901 -0.55143,-0.50902 -0.55143,-1.14529 0,-0.80594 1.95123,-4.87807 1.61188,-3.43586 2.79958,-7.63524 0.76353,-2.75717 2.54508,-3.69036 1.78156,-0.89078 6.06578,-0.89078 2.92684,0 6.15061,0.63627 0.89078,0.16967 6.3627,1.52705 2.88442,0.7211 4.2418,0.89077 1.48463,0.21209 2.67233,0.21209 4.87807,0 8.44118,-3.3086 0.72111,-0.72111 1.31496,-1.06045 0.4666,-0.25451 0.97561,-0.25451 0.9332,0 1.48463,0.55144 0.59386,0.59385 0.59386,1.44221 0,1.23012 -0.89078,2.96926 -0.9332,1.82397 -2.29057,3.35102 -1.69672,1.99365 -3.81762,3.26619 -2.16332,1.35737 -5.00533,2.16331 -4.02971,1.18771 -4.41147,1.35738 -0.67869,0.29693 -1.35738,1.06045 -1.23012,1.56947 -1.35737,5.64159 v 4.36906 1.1877 1.01803 16.2461 1.14528 q 0,3.0541 0.29692,4.49631 0.33935,1.52705 1.23013,2.33299 1.06045,0.9332 3.05409,1.82398 1.14529,0.50901 1.14529,1.61188 0,1.69672 -2.71475,1.69672 h -17.56105 q -2.71476,0 -2.71476,-1.69672 0,-1.10287 1.18771,-1.61188 2.24815,-1.01804 3.18135,-1.8664 0.84836,-0.80594 1.1877,-2.50266 0.25451,-1.6543 0.25451,-5.4295 v -16.41577 q 0,-1.61188 -0.50902,-2.41782 -0.50901,-0.80595 -1.69672,-1.18771 -1.23012,-0.38176 -1.23012,-1.48463 0,-2.03606 2.75717,-4.53872 2.75717,-2.50267 7.04139,-4.41148 z"
         style="letter-spacing:0px;stroke-width:0.26458335"
         id="path1750" />
      <path
         d="m 224.17995,213.0715 v 13.53134 l 16.28851,-5.4295 v -8.10184 -0.84836 q 0,-3.56311 -0.84836,-5.47192 -0.80594,-1.78156 -3.30861,-3.18135 -1.56946,-0.9332 -1.56946,-1.82397 0,-0.76353 0.4666,-1.31496 0.46659,-0.50902 1.06045,-0.50902 0.50901,0 1.27254,0.25451 l 2.67233,0.89078 q 3.52069,1.10287 5.98094,1.10287 1.35737,0 2.62991,-0.25451 0.89078,-0.16967 3.35102,-0.84836 l 2.62992,-0.89078 q 0.76352,-0.25451 1.31496,-0.25451 0.59385,0 1.01803,0.50902 0.4666,0.59385 0.4666,1.27254 0,0.93319 -1.56947,1.86639 -1.86639,1.14529 -2.62991,2.07848 -0.84836,1.10287 -1.14529,2.75717 -0.33934,1.82398 -0.33934,4.66598 v 30.20162 q 0,2.62991 0.12725,4.2418 0.12725,1.56946 0.59385,2.5875 0.42418,0.93319 1.18771,1.44221 0.63627,0.50901 2.71475,1.52705 1.14528,0.50901 1.14528,1.61188 0,1.69672 -2.71475,1.69672 h -17.60347 q -2.71475,0 -2.71475,-1.69672 0,-1.10287 1.14529,-1.61188 l 1.39979,-0.63627 q 1.86639,-0.89078 2.5875,-2.54508 0.67869,-1.52705 0.67869,-5.47193 v -1.14528 -17.05204 l -0.16968,0.0848 q -1.82397,0.7211 -2.79958,1.23012 -0.84836,0.4666 -1.31496,1.1877 -0.50902,0.89078 -0.80594,2.1209 l -0.4666,1.8664 q -0.55143,2.46024 -2.5875,2.46024 -1.06045,0 -1.6543,-1.14529 l -0.67869,-1.31495 q -0.93319,-1.90881 -2.46024,-1.90881 -1.01803,0 -2.88443,0.59385 l -0.2545,0.0848 q -0.0424,0.0424 -0.0848,0.0424 -0.0848,0 -0.12725,0.0424 v 11.70737 q 0,2.62991 0.12725,4.2418 0.12725,1.56946 0.59385,2.5875 0.42418,0.93319 1.18771,1.44221 0.63627,0.50901 2.71475,1.52705 1.14528,0.50901 1.14528,1.61188 0,1.69672 -2.71475,1.69672 h -17.60347 q -2.71475,0 -2.71475,-1.69672 0,-1.10287 1.14529,-1.61188 2.16331,-0.97562 3.18135,-1.8664 0.89077,-0.76352 1.23012,-2.50266 0.25451,-1.6543 0.25451,-5.4295 v -30.20162 -0.84836 q 0,-3.69036 -0.84836,-5.51434 -0.89078,-1.82397 -3.30861,-3.13893 -1.56946,-0.9332 -1.56946,-1.82397 0,-0.76353 0.46659,-1.31496 0.4666,-0.50902 1.06045,-0.50902 0.50902,0 1.27254,0.25451 l 2.67234,0.89078 q 3.52069,1.10287 5.98094,1.10287 2.46024,0 5.98093,-1.10287 l 2.62992,-0.89078 q 0.84836,-0.25451 1.31496,-0.25451 0.59385,0 1.01803,0.50902 0.4666,0.59385 0.4666,1.27254 0,0.93319 -1.56947,1.86639 -2.41782,1.44221 -3.26618,3.18135 -0.84836,1.78156 -0.84836,5.47192 z"
         style="letter-spacing:0px;stroke-width:0.26458335"
         id="path1752" />
    </g>
    <g
       aria-label="Familie"
       transform="matrix(1.026327,0,0,1.0168958,-209.99987,110.23666)"
       style="font-style:normal;font-variant:normal;font-weight:bold;font-stretch:normal;font-size:99.82400513px;line-height:1.25;font-family:'Victorian LET';-inkscape-font-specification:'Victorian LET Bold';letter-spacing:-14.59925938px;word-spacing:0px;fill:#ffffe4;fill-opacity:1;stroke:#110000;stroke-width:0.4894281;stroke-miterlimit:4;stroke-dasharray:none;stroke-opacity:1"
       id="text825-6-1" />
    <path
       style="opacity:1;fill:#000003;fill-opacity:1;stroke:#110000;stroke-width:0.5;stroke-linejoin:round;stroke-miterlimit:4;stroke-dasharray:none;stroke-opacity:1;paint-order:markers fill stroke"
       d="m 22,217 a 2,2 0 0 1 -2,2 2,2 0 0 1 -2,-2 2,2 0 0 1 2,-2 2,2 0 0 1 2,2 z"
       id="path1738" />
    <path
       style="opacity:1;fill:#000003;fill-opacity:1;stroke:#110000;stroke-width:0.5;stroke-linejoin:round;stroke-miterlimit:4;stroke-dasharray:none;stroke-opacity:1;paint-order:markers fill stroke"
       d="m 282,217 a 2,2 0 0 1 -2,2 2,2 0 0 1 -2,-2 2,2 0 0 1 2,-2 2,2 0 0 1 2,2 z"
       id="path1740" />
  </g>
</svg>
