<?xml version="1.0" encoding="UTF-8" standalone="no"?>
<!-- Created with Inkscape (http://www.inkscape.org/) -->

<svg
   xmlns:dc="http://purl.org/dc/elements/1.1/"
   xmlns:cc="http://creativecommons.org/ns#"
   xmlns:rdf="http://www.w3.org/1999/02/22-rdf-syntax-ns#"
   xmlns:svg="http://www.w3.org/2000/svg"
   xmlns="http://www.w3.org/2000/svg"
   xmlns:sodipodi="http://sodipodi.sourceforge.net/DTD/sodipodi-0.dtd"
   xmlns:inkscape="http://www.inkscape.org/namespaces/inkscape"
   width="210mm"
   height="297mm"
   viewBox="0 0 210 297"
   version="1.1"
   id="svg7915"
   inkscape:version="0.92.4 (5da689c313, 2019-01-14)"
   sodipodi:docname="LorettaPhil.svg">
  <defs
     id="defs7909" />
  <sodipodi:namedview
     id="base"
     pagecolor="#ffffff"
     bordercolor="#666666"
     borderopacity="1.0"
     inkscape:pageopacity="0.0"
     inkscape:pageshadow="2"
     inkscape:zoom="0.49497475"
     inkscape:cx="643.86749"
     inkscape:cy="541.66402"
     inkscape:document-units="mm"
     inkscape:current-layer="layer1"
     showgrid="false"
     inkscape:window-width="1920"
     inkscape:window-height="1137"
     inkscape:window-x="-8"
     inkscape:window-y="-8"
     inkscape:window-maximized="1">
    <inkscape:grid
       type="xygrid"
       id="grid8714" />
  </sodipodi:namedview>
  <metadata
     id="metadata7912">
    <rdf:RDF>
      <cc:Work
         rdf:about="">
        <dc:format>image/svg+xml</dc:format>
        <dc:type
           rdf:resource="http://purl.org/dc/dcmitype/StillImage" />
        <dc:title></dc:title>
      </cc:Work>
    </rdf:RDF>
  </metadata>
  <g
     inkscape:label="Ebene 1"
     inkscape:groupmode="layer"
     id="layer1">
    <rect
       style="opacity:1;fill:#c0c2bf;fill-opacity:1;stroke:#000000;stroke-width:0.69999999;stroke-linejoin:round;stroke-miterlimit:4;stroke-dasharray:none;stroke-opacity:1;paint-order:markers fill stroke"
       id="rect8460"
       width="317.1275"
       height="208.57744"
       x="1.3499336"
       y="85.175705" />
    <g
       id="g902"
       transform="matrix(1.0250216,0,0,1.0250534,-3.9883216,-4.7612924)"
       style="stroke-width:0.97557408">
      <path
         sodipodi:nodetypes="cccccccccccccccccccccccccccc"
         inkscape:connector-curvature="0"
         id="rect9350-0-8"
         d="m 159.25233,92.358423 c -17.96291,0.0072 -35.76299,2.173389 -52.46957,6.385204 -0.15198,-0.420557 -0.30451,-0.840422 -0.45376,-1.262168 -1.2118,-2.112097 -2.29272,-5.412543 -5.31841,-5.084236 -3.922991,1.707315 -5.641465,5.839974 -7.109177,10.062847 -9.718012,3.21791 -18.825056,7.13713 -27.142293,11.6807 -1.058215,-1.90659 -2.245418,-3.72355 -3.634888,-5.39951 -6.813071,-1.75239 -7.223865,7.02954 -9.307902,11.11537 -0.310536,1.00131 -0.659489,1.98911 -1.035766,2.96733 -23.503146,16.71482 -36.527743,38.37178 -36.583303,60.82975 0.02106,1.66425 0.687233,3.34369 0.850802,5.00472 -9.3855362,0 0,0 -9.3855362,0 6.5667502,22.34385 5.0771382,53.89857 1.0428372,76.13076 18.771072,1.04289 21.899583,6.25732 22.942421,22.94353 85.512655,0 181.783655,-0.23625 256.537975,0 1.04283,-14.60043 6.47926,-22.56216 22.14803,-23.61776 -7.07811,-30.51932 -3.85443,-55.59807 0.79439,-75.45653 -9.38552,0 0,0 -9.38552,0 0.19242,-1.60378 0.50589,-3.39669 0.56527,-5.00472 -0.0625,-18.7914 -9.20971,-37.11274 -26.19328,-52.46345 -1.28676,-1.95422 -2.75597,-3.8908 -3.2555,-5.94221 -3.41424,-5.71922 -3.70164,-14.55725 -9.88506,-17.89399 -5.08029,0.0922 -6.03513,4.72478 -7.26116,9.0308 -4.79843,-2.84459 -9.89729,-5.47553 -15.2606,-7.87426 -1.12385,-2.46507 -2.11512,-4.98753 -2.79959,-7.64414 -0.9749,-4.762531 -6.90822,-8.157426 -9.72339,-2.853618 -1.00911,1.480461 -1.61249,3.170968 -2.14591,4.888608 -20.51035,-6.903533 -43.3429,-10.521753 -66.53111,-10.543027 z"
         style="opacity:1;fill:#ffffff;fill-opacity:1;stroke:#000000;stroke-width:0.6829018;stroke-linejoin:round;stroke-miterlimit:4;stroke-dasharray:none;stroke-opacity:1;paint-order:markers fill stroke" />
      <path
         sodipodi:nodetypes="csccsccscccccccccccccccccccccccccccsscccccccccccccccccccccsccsscscccccccsccccccccccccscccsccccccsccscccccccccccscccsccccsccccccscccccccccccc"
         inkscape:connector-curvature="0"
         id="rect9350-0"
         d="m 101.29158,96.291508 c -0.23875,0.03869 -1.664887,3.30783 -3.240947,7.441332 -3.527986,9.25279 -7.954343,18.69885 -10.888185,23.23559 -2.327836,3.59962 -2.38226,3.41653 1.187689,4.01899 0.958074,0.1617 1.742047,0.40586 1.742047,0.54207 0,0.52232 -5.561044,7.01417 -7.795828,9.1008 -2.520576,2.35344 -2.526776,2.33458 0.944019,2.94992 0.958074,0.16986 1.742047,0.44596 1.742047,0.61378 0,0.45723 -2.290706,3.79134 -3.831153,5.57608 l -1.354983,1.56953 2.012732,2.06433 c 1.106803,1.13524 3.430546,3.14687 5.164315,4.47063 l 3.152622,2.40681 -3.71945,0.86223 -3.71893,0.8622 1.230292,1.61372 c 1.471953,1.93048 7.476676,7.1442 10.238228,8.8898 1.085382,0.68608 1.972692,1.35246 1.972206,1.48016 -5.82e-4,0.12779 -1.586504,0.85951 -3.524098,1.6262 -1.937595,0.76672 -3.610979,1.53452 -3.71893,1.70624 -0.238377,0.37908 3.962289,5.58112 7.418424,9.25074 0.140821,1.04757 0,1.04289 -1.042837,4.17155 C 89.003836,183.444 89.003836,183.444 84.766805,177.13378 l -0.809977,-1.2702 2.83258,-1.22913 2.832061,-1.22862 -4.211463,-3.96597 c -4.061483,-3.82456 -8.227937,-9.11815 -7.510596,-9.54257 0.191108,-0.11307 1.234805,-0.35268 2.319266,-0.53218 1.084484,-0.17949 2.071444,-0.48719 2.193014,-0.68395 0.121498,-0.19664 -0.593552,-1.0117 -1.588779,-1.81173 -1.448784,-1.16467 -5.270968,-5.55264 -8.039499,-9.22919 -0.309324,-0.41078 0.209551,-0.6431 1.950906,-0.87416 1.30477,-0.17315 2.475157,-0.48143 2.600861,-0.68499 0.125753,-0.20353 -0.416122,-1.32585 -1.204314,-2.49412 -2.097752,-3.1093 -8.231486,-16.11314 -11.612435,-24.61909 -2.212302,-5.56581 -3.025723,-7.17301 -3.292899,-6.50532 -0.195167,0.48774 -1.743694,4.44169 -3.440971,8.78636 -3.565129,9.12604 -7.702041,17.84416 -10.358243,21.82975 -1.018377,1.5281 -1.768677,2.91226 -1.667752,3.07571 0.100916,0.16335 1.240388,0.43711 2.53228,0.60858 l 2.348881,0.31132 -1.525396,2.17295 c -0.839056,1.19499 -3.118982,3.80516 -5.06612,5.80005 -1.94714,1.99492 -3.410056,3.69975 -3.251336,3.78875 0.158735,0.0891 1.123138,0.31275 2.143138,0.49738 1.020003,0.18453 2.024016,0.4404 2.231463,0.56858 0.901141,0.55711 -5.117697,7.9812 -8.988195,11.08663 l -2.850761,2.28728 2.871545,1.28268 2.871027,1.28213 c -4.657317,13.91998 -15.903766,16.82702 -25.770469,16.93713 4.822632,23.9026 5.096673,46.92714 0.05865,67.79793 17.333442,0.94446 22.118541,8.40159 22.118541,21.47591 79.772437,0.11947 169.498767,0.36466 249.237997,0 1.00539,-16.09148 10.15216,-20.47019 21.21143,-20.47019 -5.3133,-20.18654 -5.86642,-47.82078 -0.0172,-68.75151 -5.08434,-0.52486 -17.72823,1.04289 -19.81391,-2.08577 -0.94892,-0.96143 -0.81111,-2.36219 0.0782,-3.09188 1.99798,-1.63938 7.09109,-4.17108 7.22165,-4.20833 -5.21418,-4.17155 -6.80884,-5.7663 -8.78877,-9.49191 0.0587,-0.0515 0.98529,-0.53154 2.05949,-1.06698 1.07419,-0.53545 2.01364,-1.02837 2.08754,-1.09505 0.0739,-0.0666 -1.04937,-1.44602 -2.49643,-3.06531 -4.02448,-4.50343 -6.49635,-7.99549 -6.49635,-8.87427 0,-0.1538 0.96375,-0.66241 2.14158,-1.1304 l 2.14157,-0.85077 -1.34251,-1.09557 c -3.59948,-2.93666 -7.89953,-7.80843 -7.90856,-8.96151 -0.002,-0.22203 0.71184,-0.51077 1.58617,-0.64185 0.87435,-0.13117 1.66609,-0.36219 1.7592,-0.51298 0.0932,-0.15083 -0.71468,-1.14048 -1.79505,-2.19944 -1.91659,-1.87856 -5.45994,-6.08958 -5.45994,-6.48869 0,-0.10995 0.59919,-0.30149 1.33161,-0.42513 2.73581,-0.46169 2.69134,-0.39727 1.49007,-2.14384 -1.69696,-2.46725 -6.11865,-11.78793 -8.83129,-18.61632 -2.18275,-5.49458 -2.50638,-6.10907 -2.80764,-5.32816 -0.18728,0.4855 -0.98176,2.56109 -1.76543,4.61251 -3.37162,8.82606 -6.1556,14.76683 -8.6936,18.55291 -1.75169,2.61307 -1.79328,2.49707 1.06038,2.94057 l 1.49268,0.23179 -1.73322,2.19166 c -0.95339,1.20544 -2.69644,3.13848 -3.87324,4.29548 -1.17679,1.15701 -2.06355,2.22679 -1.97065,2.37719 0.093,0.1505 0.88485,0.38136 1.75919,0.51245 0.87433,0.13116 1.58931,0.38324 1.58931,0.56025 0,1.16434 -4.71667,6.67196 -7.41242,8.65541 -0.26818,0.19731 -0.48118,0.36257 -0.66969,0.51503 0.037,-1.09244 0.0683,-2.18495 0.0899,-3.2763 2.08868,-1.85091 4.08625,-3.83015 4.08625,-4.16608 0,-0.13699 -1.04022,-0.53086 -2.312,-0.8752 -0.69489,-0.18816 -1.32482,-0.39103 -1.78568,-0.56441 -0.0116,-0.38422 -0.025,-0.76844 -0.0421,-1.1517 0.0206,-0.0142 0.0395,-0.0287 0.0608,-0.0427 1.44439,-0.9467 5.89247,-4.86602 6.08132,-5.3583 0.0959,-0.25002 -0.63489,-1.56408 -1.62411,-2.92029 -0.9892,-1.35621 -1.79868,-2.63854 -1.79868,-2.84962 0,-0.21111 0.67922,-0.49614 1.50929,-0.63354 0.83008,-0.13738 1.64116,-0.32834 1.80231,-0.42409 0.16108,-0.0956 -0.96725,-1.47558 -2.50734,-3.06686 -3.88082,-4.00979 -4.98417,-5.52186 -4.33044,-5.93571 0.27922,-0.17682 0.90724,-0.32606 1.39551,-0.3321 1.91359,-0.0235 1.89928,-0.42444 -0.14184,-3.8797 -2.04147,-3.45587 -5.60291,-11.25806 -8.28212,-18.14442 -0.87414,-2.24677 -1.69338,-4.19646 -1.8205,-4.332369 -0.1271,-0.135867 -1.24857,2.421799 -2.49228,5.683639 -2.12327,5.56864 -4.67035,11.22078 -6.7531,15.06924 -0.53252,-1.24638 -1.04604,-2.47514 -1.50305,-3.62554 -2.18274,-5.4946 -2.50638,-6.1096 -2.80763,-5.32869 -0.18729,0.48551 -0.98177,2.56109 -1.76544,4.61251 -2.4425,6.39392 -4.57562,11.26696 -6.53124,14.9102 -2.0333,-4.11085 -4.59292,-9.7626 -6.27355,-13.99081 -1.69122,-4.25487 -2.3135,-5.48363 -2.51774,-4.9732 -0.14919,0.37285 -1.33245,3.39549 -2.62995,6.71685 -0.20886,0.53465 -0.4242,1.06137 -0.63748,1.59085 -2.08918,-3.83054 -5.23418,-10.80591 -7.66023,-17.04157 -0.87414,-2.24678 -1.69338,-4.196472 -1.82051,-4.332381 -0.1271,-0.135857 -1.24907,2.421811 -2.49279,5.683641 -2.69702,7.0734 -6.08037,14.29479 -8.32318,17.76295 -1.77953,2.75179 -1.82092,2.61151 0.90818,3.07206 0.73241,0.12361 1.33161,0.31008 1.33161,0.41421 0,0.39929 -5.90685,5.36233 -7.61526,6.95748 -0.12146,0.1134 -0.21249,0.19979 -0.31848,0.29936 -0.38985,-0.23124 -0.8089,-0.44176 -1.26251,-0.62731 -1.58366,-0.33582 -3.02334,-0.10752 -4.39695,0.38979 -2.10161,-3.95621 -3.87966,-11.39558 -5.95691,-16.62164 -1.69122,-4.25485 -2.3135,-5.48361 -2.51774,-4.97319 -0.14919,0.37286 -1.33297,3.39549 -2.63048,6.71686 -2.12495,5.43945 -4.51311,10.68087 -6.42578,14.17427 -1.81892,-3.93804 -3.6641,-8.16912 -5.12949,-11.85789 -2.85529,-7.18752 -3.27861,-7.99147 -3.6727,-6.96995 -0.24498,0.6351 -1.28426,3.35046 -2.30939,6.03393 -1.84092,4.8191 -3.54636,8.97151 -5.15185,12.54497 -8.02415,-0.50711 -16.47003,1.90013 -20.9323,4.23283 -1.04284,-2.08578 -1.04284,-3.12867 -1.04284,-4.17155 0.36527,-0.2313 4.57548,-1.03585 5.21419,-1.04289 -5.21419,-9.38598 -8.97521,-19.48735 -12.42574,-28.29199 -1.14347,-2.93902 -2.21478,-5.488692 -2.38109,-5.666494 -0.005,-0.0063 -0.0115,-0.0083 -0.0192,-0.0073 z"
         style="opacity:1;fill:#00000f;fill-opacity:1;stroke:none;stroke-width:0.6829018;stroke-linejoin:round;stroke-miterlimit:4;stroke-dasharray:none;stroke-opacity:1;paint-order:markers fill stroke" />
      <path
         sodipodi:nodetypes="cccccsscccscccccccccscccccccscscscscscccsscscccscccscccscccscscsccscsccccsccscccccsccccscccssscccsccssccsccscccssscccscccscscccsccscccsccsccscsscccscccscscccsccscccscscccccscscscsccccscscsccscscccccccscssscsccsscccsccscccscscscc"
         inkscape:connector-curvature="0"
         id="rect9350"
         d="m 106.52415,144.47546 c -3.21509,2.79534 -4.82244,4.94424 -4.82245,6.44711 0,0.81154 0.3151,1.30761 0.9461,1.48796 l 1.30719,0.45111 c 1.14181,0.42081 1.93816,1.09668 2.38889,2.02847 0.4507,0.93178 0.67593,2.54018 0.67593,4.82454 v 24.88726 c 0,2.49478 -0.0899,4.31331 -0.27017,5.45549 -0.24038,1.20232 -0.63124,2.0742 -1.1721,2.61523 -0.60095,0.60115 -1.59223,1.21744 -2.97442,1.84864 -1.08171,0.48093 -1.62254,1.17197 -1.62254,2.07368 0,0.0715 0.003,0.13972 0.008,0.20581 H 19.336934 c 3.486613,19.90504 4.253366,39.97335 0,60.343 11.105063,1.1e-4 20.107471,9.00547 20.107575,20.11417 H 280.74162 c 0.0435,-10.82925 8.91589,-19.6947 20.10394,-20.08818 -4.85105,-20.51553 -3.90369,-40.56714 0,-60.36899 h -27.84085 c 1.79968,-0.76704 3.3988,-1.87924 4.79233,-3.34491 0.80187,-0.85227 1.20275,-1.54567 1.20275,-2.08044 0,-0.23396 -0.0499,-0.4095 -0.15015,-0.52647 -0.0835,-0.10032 -0.33415,-0.26706 -0.75178,-0.50101 -0.35082,-0.21724 -0.60144,-0.50965 -0.75179,-0.87729 -0.16706,-0.33422 -0.25094,-0.81914 -0.25094,-1.45417 l 0.0254,-2.70722 c 0,-0.73528 0.10858,-1.26139 0.32577,-1.5789 0.21717,-0.35094 0.73486,-0.83586 1.55344,-1.45418 0.46775,-0.36765 0.70191,-0.73519 0.70191,-1.10284 0,-0.23395 -0.0921,-0.44296 -0.27587,-0.62678 -0.20048,-0.1504 -0.42588,-0.22556 -0.67646,-0.22556 -0.16705,0 -0.61837,0.10043 -1.35342,0.30092 -1.20281,0.33422 -2.40547,0.50101 -3.60827,0.50101 -1.18611,0 -2.44742,-0.17502 -3.78388,-0.52595 -0.71834,-0.20054 -1.23604,-0.30093 -1.55345,-0.30093 -0.28398,0 -0.53461,0.0917 -0.75178,0.27546 -0.21718,0.20053 -0.32576,0.44299 -0.32576,0.72708 0,0.33422 0.2254,0.64361 0.67646,0.9277 l 0.82711,0.42618 c 0.53459,0.26737 0.91848,0.63493 1.15236,1.10284 0.20047,0.45119 0.30082,1.15285 0.30082,2.10538 0,3.50935 -1.52839,5.26423 -4.58554,5.26423 -1.62044,0 -2.97388,-0.55133 -4.05975,-1.65427 -1.10257,-1.08623 -1.65372,-2.46532 -1.65372,-4.13644 0,-1.85494 0.62628,-3.4173 1.87921,-4.68734 1.21951,-1.23664 2.99029,-2.09734 5.31238,-2.58197 0.71835,-0.1504 1.17789,-0.30071 1.37836,-0.45111 0.18377,-0.13369 0.27588,-0.38439 0.27588,-0.75204 0,-0.36765 -0.24237,-0.64304 -0.72685,-0.82687 l -1.15287,-0.40122 c -1.13599,-0.40107 -2.02934,-1.05279 -2.68088,-1.95519 -0.66823,-0.86897 -1.00273,-1.88001 -1.00273,-3.03308 0,-1.25334 0.39265,-2.29782 1.17783,-3.13338 2.07677,-2.82813 7.80548,-1.27203 7.45396,1.19743 0,0.56817 -0.17548,1.04435 -0.5263,1.42871 -0.35082,0.40107 -0.77692,0.60183 -1.27809,0.60183 -0.26728,0 -0.5426,-0.10043 -0.82661,-0.30091 -0.26729,-0.20054 -0.44277,-0.41777 -0.5263,-0.65173 l -0.10021,-0.40122 c -0.10022,-0.31752 -0.30094,-0.47607 -0.60165,-0.47607 -0.28398,0 -0.52586,0.16679 -0.72632,0.50101 -0.21718,0.31751 -0.32577,0.69381 -0.32577,1.12831 0,1.06952 0.45956,1.98016 1.37837,2.73217 0.8854,0.7687 1.9877,1.15326 3.30745,1.15326 1.11927,0 2.13821,-0.28417 3.05702,-0.85235 0.90211,-0.53476 1.62051,-1.29508 2.15509,-2.28104 0.51787,-0.93583 0.77672,-2.00555 0.77672,-3.20875 0,-1.11965 -1.2143,-2.03853 -1.515,-2.75711 -0.3007,-0.71858 -0.69335,-1.07789 -1.17781,-1.07789 -0.16702,0 -0.27561,0.008 -0.32576,0.0249 -0.568,0.0334 -0.81862,0.0498 -0.75178,0.0498 -0.41765,0 -0.85198,-0.0752 -1.30304,-0.22556 l -1.75399,-0.60131 c -1.60375,-0.53476 -3.14914,-0.80244 -4.63594,-0.80244 -1.73739,0 -3.28225,0.30114 -4.63541,0.90275 -1.35316,0.58488 -2.42254,1.96081 -3.2077,3.06374 -0.76847,1.06952 -1.15288,2.32301 -1.15288,3.76016 0,1.35362 0.36744,2.49797 1.10249,3.43378 0.73506,0.93584 1.98813,1.87994 3.75894,2.83247 v 5.4e-4 c -1.36987,0.40106 -2.59774,0.95239 -3.6836,1.65427 -1.08588,0.68515 -2.01321,1.49541 -2.78167,2.43124 -1.55364,1.87166 -2.33018,4.08624 -2.33018,6.64304 0,2.07219 0.54291,3.92694 1.62879,5.56464 1.08586,1.62098 2.61427,2.87447 4.58553,3.76016 0.0489,0.0216 0.0999,0.0397 0.14912,0.0608 h -22.89863 c 1.1e-4,-0.009 10e-4,-0.0167 10e-4,-0.0254 0,-0.54104 -0.48074,-1.11184 -1.44227,-1.713 -0.5709,-0.36069 -1.03649,-0.82695 -1.39706,-1.39804 -0.33052,-0.51097 -0.55627,-1.11212 -0.67646,-1.80342 -0.1202,-0.63121 -0.18029,-1.60817 -0.18029,-2.93071 v -49.86497 c 0,-1.35257 -0.48073,-2.02898 -1.44226,-2.02898 -0.39062,0 -0.90115,0.27026 -1.53215,0.81127 -1.44228,1.11214 -2.85473,1.95371 -4.23692,2.5248 -1.50238,0.6312 -3.36527,1.17223 -5.58879,1.62309 -1.02162,0.18034 -1.53266,0.6764 -1.53266,1.48795 0,0.51098 0.31561,0.93176 0.94661,1.26239 1.26201,0.60116 2.05836,1.23259 2.38889,1.89387 0.27043,0.63119 0.40577,2.01379 0.40577,4.14787 v 36.56483 c 0,2.73523 -0.13534,4.58408 -0.40577,5.54591 -0.33053,0.96185 -0.99155,1.74332 -1.98312,2.34446 -0.7512,0.39076 -1.1269,0.90145 -1.1269,1.53265 0,0.009 10e-4,0.0168 10e-4,0.0255 h -3.33711 c 1.3e-4,-0.009 0.001,-0.0167 0.001,-0.0255 0,-0.51098 -0.48074,-1.08178 -1.44227,-1.71299 -0.5709,-0.36069 -1.03701,-0.82695 -1.39758,-1.39804 -0.33053,-0.51099 -0.55574,-1.11212 -0.67594,-1.80343 -0.12018,-0.63121 -0.18028,-1.60816 -0.18028,-2.9307 v -29.21548 c 0,-1.32253 -0.48074,-1.98376 -1.44227,-1.98376 -0.39062,0 -0.93145,0.24045 -1.62255,0.72137 -1.74276,1.23235 -3.20014,2.10374 -4.372,2.6147 -1.3221,0.5711 -3.14005,1.08231 -5.45371,1.53317 -0.90142,0.18035 -1.35186,0.64609 -1.35186,1.39753 0,0.54103 0.33026,0.96183 0.99129,1.2624 0.84133,0.45086 1.44227,0.87164 1.80284,1.26239 0.30048,0.39075 0.5257,0.96207 0.67594,1.71352 0.12019,0.6312 0.1282,1.69897 0.18028,3.20094 v 15.91536 0.99215 c 0,2.13407 -0.13482,3.63689 -0.40525,4.50855 -0.33053,0.87167 -0.93146,1.59302 -1.80283,2.16411 l -0.63125,0.4506 c -0.48077,0.27052 -0.72113,0.70646 -0.72113,1.30761 0,0.009 0.001,0.0168 0.001,0.0255 h -3.33759 c 1.3e-4,-0.009 0.001,-0.0167 0.001,-0.0255 0,-0.51098 -0.48074,-1.08178 -1.44226,-1.71299 -0.57092,-0.4208 -1.02134,-0.87193 -1.35187,-1.35283 -0.30048,-0.45086 -0.5257,-1.06716 -0.67593,-1.84864 -0.15023,-0.84162 -0.8391,-2.05249 -0.22548,-3.15573 v -0.99215 -16.95218 -1.03736 c 0,-3.18609 -0.49591,-5.63556 -1.48748,-7.34883 -0.81128,-1.50288 -2.08837,-2.72028 -3.83115,-3.65207 -1.74276,-0.93179 -3.65059,-1.39752 -5.72386,-1.39752 -3.60573,0 -6.92598,1.65335 -9.96078,4.95968 v -23.21949 c 0,-1.32252 -0.49591,-1.98377 -1.48747,-1.98377 -0.33053,0 -0.84106,0.2551 -1.53216,0.76606 -1.3221,1.05203 -2.71937,1.8936 -4.19171,2.5248 -1.38219,0.57109 -3.26023,1.11212 -5.63399,1.62309 -0.96152,0.18034 -1.44227,0.69156 -1.44227,1.53317 0,0.54105 0.30047,0.94666 0.90142,1.21717 0.81128,0.39075 1.42737,0.79691 1.84803,1.21771 0.39063,0.36069 0.64562,0.88656 0.76582,1.57787 0.12019,0.60115 0.15843,1.62322 0.18029,3.06583 v 36.42968 1.30763 c 0,2.07397 -0.13483,3.54646 -0.40526,4.41813 -0.33052,0.90172 -0.93145,1.65338 -1.80283,2.25453 l -0.63126,0.4506 c -0.5108,0.33063 -0.76633,0.76658 -0.76633,1.30761 0,0.009 0.001,0.0168 0.001,0.0255 h -29.46202 c 0.0482,-0.18614 0.0748,-0.38887 0.0748,-0.61171 0,-1.02196 -0.75144,-1.75795 -2.2538,-2.20881 -1.35215,-0.39074 -2.37373,-0.88681 -3.06483,-1.48795 -0.69109,-0.60115 -1.14204,-1.44274 -1.35238,-2.5248 -0.21033,-1.02194 -0.31537,-2.84049 -0.31537,-5.45549 v -20.87503 -0.99162 c 0,-3.33638 0.22521,-5.87628 0.67594,-7.61959 0.60093,-2.22427 1.75787,-3.9529 3.47058,-5.18525 3.49619,-2.14208 7.36698,-2.29037 10.86221,-0.94692 8.38801,2.77105 10.72184,10.414 7.43014,17.08783 -0.78124,1.68322 -1.87807,3.0057 -3.2903,3.96754 -1.41224,0.96183 -2.94435,1.44274 -4.59697,1.44274 -1.77281,0 -3.27514,-0.57081 -4.50708,-1.71299 -1.23196,-1.14218 -1.84805,-2.52477 -1.84805,-4.14788 0,-1.29247 0.39035,-2.41998 1.17159,-3.38181 0.75119,-0.93179 1.69804,-1.39753 2.83986,-1.39753 0.57091,0 1.08143,0.18034 1.53214,0.54103 0.45072,0.39075 0.67594,0.82669 0.67594,1.30761 0,0.33064 -0.12018,0.66099 -0.36057,0.99163 l -0.49565,0.63146 c -0.18029,0.2104 -0.27016,0.48065 -0.27017,0.81128 0,0.36069 0.18028,0.70672 0.54086,1.03735 0.33051,0.30058 0.72088,0.4506 1.17157,0.4506 0.96153,0 1.77304,-0.46573 2.4341,-1.39752 0.66104,-0.87167 0.99129,-1.90875 0.99129,-3.11104 0,-1.65316 -0.60092,-3.03575 -1.80284,-4.14787 -1.20189,-1.08208 -2.734,-1.62309 -4.59696,-1.62309 -1.59253,0 -3.0499,0.43594 -4.372,1.30761 -1.29205,0.84161 -2.32878,2.02871 -3.11002,3.56164 -0.78124,1.563 -1.1721,3.2613 -1.1721,5.09481 0,3.30632 1.32203,6.08665 3.96623,8.34096 2.61415,2.25431 5.90462,3.3813 9.87091,3.3813 3.27519,0 5.18602,-0.82643 7.86026,-2.47958 2.67424,-1.6231 4.80727,-3.87759 6.3998,-6.7631 2.57946,-5.94114 2.28223,-12.95949 -0.0557,-18.44016 -1.20191,-2.70516 -2.92998,-5.09451 -5.18354,-7.16848 -2.13338,-1.98378 -4.77748,-3.54724 -7.93248,-4.68943 -9.99632,-3.7524 -24.50022,0.80551 -30.964,6.08704 z m 100.50931,-0.27077 c -1.47233,0 -2.77922,0.54101 -3.92104,1.62307 -1.11175,1.08207 -1.66775,2.38991 -1.66775,3.92285 0,1.53293 0.556,2.84025 1.66775,3.92232 1.14182,1.08206 2.44871,1.62307 3.92104,1.62307 1.53243,0 2.83931,-0.54101 3.92103,-1.62307 1.08172,-1.08207 1.62255,-2.38939 1.62255,-3.92232 0,-1.53294 -0.54083,-2.84078 -1.62255,-3.92285 -1.08172,-1.08206 -2.3886,-1.62307 -3.92103,-1.62307 z m -31.55012,21.28092 c 1.65261,0 2.86962,0.57081 3.65086,1.713 0.78125,1.2023 1.17211,3.03599 1.17211,5.50071 v 14.74338 c 0,2.58495 -0.13534,4.32822 -0.40577,5.22993 -0.27042,0.93179 -0.87135,1.71325 -1.80283,2.34445 l -0.63125,0.4506 c -0.46148,0.32942 -0.72113,0.73651 -0.72113,1.30762 0,0.009 0.001,0.0168 0.001,0.0254 h -3.29239 c -0.009,0 0.001,-0.0167 0.001,-0.0254 0,-0.51099 -0.48075,-1.08179 -1.44228,-1.713 -0.60094,-0.39074 -1.06654,-0.84187 -1.39706,-1.35283 -0.33052,-0.51098 -0.55573,-1.1121 -0.67593,-1.80342 -0.1202,-0.60116 -0.18029,-1.56296 -0.18029,-2.88548 v -0.99215 -14.51731 c 0,-2.55487 0.4959,-4.52396 1.48747,-5.9066 0.99157,-1.4127 2.4035,-2.1189 4.23641,-2.1189 z"
         style="opacity:1;fill:#ffffff;fill-opacity:1;stroke:none;stroke-width:0.68290186;stroke-linejoin:round;stroke-miterlimit:4;stroke-dasharray:none;stroke-opacity:1;paint-order:markers fill stroke" />
      <g
         transform="matrix(1.0053882,0,0,1.1948183,66.847188,-15.414915)"
         aria-label="Loretta"
         style="font-style:normal;font-variant:normal;font-weight:bold;font-stretch:normal;font-size:89.22705078px;line-height:1.25;font-family:'Victorian LET';-inkscape-font-specification:'Victorian LET Bold';letter-spacing:0px;word-spacing:0px;fill:#000000;fill-opacity:1;stroke:none;stroke-width:0.23550758"
         id="text9344">
        <path
           d="m 15.006778,238.86397 h -35.769242 q -2.788346,0 -2.788346,-1.78629 0,-0.69708 0.479247,-1.17633 0.522815,-0.43568 1.612012,-0.87136 2.526938,-1.08919 3.224025,-2.78834 0.653518,-1.65558 0.653518,-6.84016 v -31.02034 q 0,-3.48544 -0.304975,-4.96674 -0.348543,-1.61202 -1.219901,-2.57051 -0.914926,-1.00206 -3.093321,-2.4398 -1.263469,-0.87136 -1.263469,-1.69915 0,-0.74065 0.479247,-1.30704 0.479247,-0.52281 1.04563,-0.52281 0.566382,0 1.350604,0.26141 l 2.744778,0.91492 q 3.616135,1.13277 6.535184,1.13277 1.9605554,0 3.3111602,-0.30498 1.8734195,-0.43568 4.8796044,-1.52487 1.4377405,-0.47925 2.091259,-0.47925 0.78422208,0 1.26346893,0.47925 0.43567896,0.47924 0.43567896,1.3506 0,0.60995 -0.39211106,1.0892 -0.47924686,0.47924 -1.61201213,1.17633 -2.7447775,1.65558 -3.6161354,3.44186 -0.8713579,1.87342 -0.8713579,5.75097 v 23.57023 q 0,4.05181 0.2614074,5.8381 0.1742716,1.69914 0.82779,3.26759 0.7406542,1.52487 1.8734195,2.4398 1.0456295,1.00206 2.70120957,1.61201 1.52487633,0.56639 3.22402433,0.56639 4.0082464,0 6.5351843,-3.04976 2.5705059,-3.09332 2.5705059,-7.71151 0,-2.65765 -1.263469,-5.40242 -0.871358,-1.82986 -0.871358,-2.52694 0,-0.87136 0.566383,-1.43774 0.522815,-0.56638 1.307037,-0.56638 1.350604,0 2.701209,1.04562 1.394173,1.04563 2.352667,2.74478 1.045629,1.78629 1.65558,3.83398 0.60995,2.22196 0.60995,4.53106 0,0.43568 -0.217839,4.44392 v 0.74066 q -0.04357,0.21784 -0.04357,0.65352 0,3.09332 1.873419,5.62025 1.437741,2.00413 1.437741,2.96262 0,0.9585 -0.653519,1.61201 -0.697086,0.69709 -1.612012,0.69709 -0.653518,0 -1.307037,-0.17427 -2.352666,-0.60995 -3.703271,-0.60995 z"
           style="stroke:none;stroke-width:0.23550758"
           id="path9473"
           inkscape:connector-curvature="0" />
        <path
           d="m 55.655624,219.56339 q 0,5.70739 -1.960555,10.28202 -1.960555,4.6182 -5.489555,7.14514 -3.572568,2.5705 -7.929357,2.5705 -4.531061,0 -8.016493,-2.39623 -3.572567,-2.39623 -5.533123,-6.66589 -2.004123,-4.18252 -2.004123,-9.71564 0,-7.36297 4.008246,-14.20313 1.002062,-1.69915 1.524877,-2.22197 0.479247,-0.47924 0.914926,-0.47924 0.958493,0 0.958493,1.00206 0,0.39211 -0.522814,2.3091 -0.82779,3.04975 -0.82779,5.70739 0,4.22609 1.568444,7.84222 1.524876,3.61614 4.13895,5.79453 2.657642,2.1784 5.533123,2.1784 3.354728,0 5.57669,-2.70121 2.221963,-2.70121 2.221963,-6.66589 0,-2.17839 -0.871358,-4.40036 -0.82779,-2.13482 -2.309098,-3.529 -1.437741,-1.30703 -3.049753,-1.30703 -1.089197,0 -1.786284,0.69708 -0.784222,0.69709 -0.784222,1.61202 0,0.17427 0.08714,0.60995 l 0.174272,0.60995 q 0,0.0436 0.04357,0.0871 v 0.17427 q 0,1.00207 -1.307036,1.00207 -1.612013,0 -3.267593,-1.17634 -1.524876,-1.04563 -2.570506,-2.91905 -0.958493,-1.74271 -0.958493,-3.83397 0,-3.18046 2.221962,-5.44599 2.221963,-2.26553 5.489555,-2.26553 4.182518,0 7.493678,2.65764 3.354728,2.70121 5.315284,7.31941 1.916987,4.70533 1.916987,10.32559 z"
           style="stroke-width:0.23550758"
           id="path9475"
           inkscape:connector-curvature="0" />
        <path
           d="m 73.126356,201.48271 v 4.57463 q 1.307037,-3.13689 3.354728,-4.92317 2.004123,-1.74272 4.313222,-1.74272 1.829851,0 3.572567,1.04563 1.65558,1.0892 2.788346,2.74478 1.089197,1.65558 1.089197,3.22403 0,1.04562 -0.566383,1.74271 -0.653518,0.78422 -2.047691,1.61201 -1.960555,1.2199 -2.744777,2.35267 -0.784222,1.0892 -0.784222,2.57051 0,0.78422 0.479247,2.35266 0.261407,0.9585 0.261407,1.0892 0,0.65352 -0.522815,1.04563 -0.522815,0.39211 -1.089197,0.39211 -2.875481,0 -2.919049,-5.53312 -0.04357,-2.52694 -0.609951,-3.529 -0.566382,-0.9585 -1.873419,-0.9585 -1.394173,0 -2.047691,1.43774 -0.653519,1.48131 -0.653519,4.6182 v 13.81102 0.82779 q 0,2.57051 0.522815,3.74684 0.522815,1.26347 2.134827,1.96056 0.914926,0.39211 1.219901,0.69709 0.261407,0.30497 0.261407,0.91492 0,0.74066 -0.392111,1.00206 -0.435679,0.30498 -1.524876,0.30498 H 61.275888 q -1.089197,0 -1.524876,-0.30498 -0.435679,-0.30497 -0.435679,-1.00206 0,-0.69709 1.263469,-1.56844 1.350605,-0.82779 1.829852,-2.13483 0.435679,-1.17633 0.435679,-3.87754 v -18.12425 q 0,-1.96055 -0.479247,-3.00618 -0.435679,-0.9585 -1.786284,-1.56845 -1.176333,-0.60995 -1.176333,-1.3506 0,-0.87136 0.566383,-1.17633 0.522814,-0.34855 1.960555,-0.52282 3.877543,-0.47925 8.103629,-3.529 1.089197,-0.82779 1.699147,-0.82779 0.609951,0 1.002062,0.43568 0.392111,0.43568 0.392111,1.17633 z"
           style="stroke-width:0.23550758"
           id="path9477"
           inkscape:connector-curvature="0" />
        <path
           d="m 99.354226,212.28755 q 1.786284,-2.35266 4.269654,-2.35266 0.95849,0 1.91699,0.39211 1.00206,0.47924 1.56844,1.08919 0.60995,0.74066 0.60995,1.35061 0,0.56638 -0.34854,1.00206 -0.39211,0.43568 -0.87136,0.43568 -0.17427,0 -0.91493,-0.39211 -0.60995,-0.43568 -1.2199,-0.43568 -0.91492,0 -1.4813,0.69709 -0.60996,0.74065 -0.60996,1.61201 0,1.3506 1.04563,2.26553 1.04563,0.91492 2.61408,0.91492 2.61407,0 4.44392,-2.35266 1.78629,-2.3091 1.78629,-5.7074 0,-2.74477 -1.61202,-4.48749 -1.61201,-1.74272 -4.09538,-1.74272 -2.61407,0 -4.53106,2.04769 -1.91699,2.0477 -2.570504,5.66383 z m 0.08714,7.92936 q 0.740654,3.44186 1.960564,5.44599 1.3506,2.13482 3.70327,3.48543 2.26553,1.3506 4.70533,1.3506 5.01031,0 9.41067,-5.31528 0.65351,-0.74066 1.13276,-0.74066 0.56638,0 0.91493,0.47925 0.34854,0.47925 0.34854,1.2199 0,2.78835 -2.3091,6.53519 -2.04769,3.26759 -5.31528,5.05387 -3.35473,1.78629 -7.31941,1.78629 -4.57463,0 -8.277903,-2.43981 -3.659703,-2.4398 -5.707394,-6.88372 -2.091259,-4.44393 -2.091259,-9.97705 0,-5.7074 2.178394,-10.54343 2.178395,-4.83604 5.925234,-7.53725 3.790408,-2.74478 8.277908,-2.74478 2.39623,0 4.35679,0.78423 l 2.00412,0.78422 q 0.91493,0.43568 2.26553,0.43568 0.60995,0 1.39417,-0.13071 0.21784,-0.0436 0.91493,-0.0436 1.52488,0 2.52694,2.04769 0.95849,2.04769 0.95849,5.44598 0,3.92111 -1.96055,7.40655 -2.00413,3.48543 -5.22815,5.66382 -3.31116,2.1784 -6.97087,2.1784 -4.57462,0 -7.798654,-3.74684 z"
           style="stroke-width:0.23550758"
           id="path9479"
           inkscape:connector-curvature="0" />
        <path
           d="m 145.31835,205.62166 h -6.27377 v 20.78189 q 0,2.87548 0.47924,4.18252 0.39211,0.95849 1.2199,1.52487 0.87136,0.60995 1.78629,0.60995 1.04563,0 2.26553,-0.87135 1.13276,-0.78423 1.43774,-0.78423 0.47925,0 0.82779,0.34855 0.30497,0.34854 0.30497,0.87136 0,0.91492 -0.78422,2.30909 -0.82779,1.30704 -2.09126,2.39624 -3.04975,2.61407 -7.45011,2.61407 -5.27171,0 -7.27584,-4.22608 -0.87135,-1.82986 -0.87135,-5.31529 v -24.44159 h -5.09745 v -3.87754 l 0.74066,-0.21784 q 4.70533,-1.56844 6.92729,-4.18252 2.1784,-2.52693 3.31116,-7.79865 0.39211,-1.96056 0.82779,-2.4398 0.47925,-0.52282 1.52488,-0.52282 1.00206,0 1.48131,0.60995 0.43568,0.56639 0.43568,2.04769 v 11.24052 h 6.27377 z"
           style="stroke-width:0.23550758"
           id="path9481"
           inkscape:connector-curvature="0" />
        <path
           d="m 168.40934,205.62166 h -6.27378 v 20.78189 q 0,2.87548 0.47925,4.18252 0.39211,0.95849 1.2199,1.52487 0.87136,0.60995 1.78629,0.60995 1.04563,0 2.26553,-0.87135 1.13276,-0.78423 1.43774,-0.78423 0.47924,0 0.82779,0.34855 0.30497,0.34854 0.30497,0.87136 0,0.91492 -0.78422,2.30909 -0.82779,1.30704 -2.09126,2.39624 -3.04975,2.61407 -7.45011,2.61407 -5.27171,0 -7.27584,-4.22608 -0.87136,-1.82986 -0.87136,-5.31529 v -24.44159 h -5.09744 v -3.87754 l 0.74066,-0.21784 q 4.70533,-1.56844 6.92729,-4.18252 2.1784,-2.52693 3.31116,-7.79865 0.39211,-1.96056 0.82779,-2.4398 0.47925,-0.52282 1.52488,-0.52282 1.00206,0 1.48131,0.60995 0.43567,0.56639 0.43567,2.04769 v 11.24052 h 6.27378 z"
           style="stroke-width:0.23550758"
           id="path9483"
           inkscape:connector-curvature="0" />
        <path
           d="m 195.50857,233.46155 q -1.96056,3.26759 -4.35679,4.70533 -2.39623,1.43774 -5.92523,1.43774 -5.7074,0 -9.27997,-3.70327 -3.6597,-3.74684 -3.6597,-9.3671 0,-5.48955 3.44186,-9.06212 3.48544,-3.61613 8.58288,-3.61613 2.26553,0 4.13895,0.87135 1.82985,0.87136 2.78835,2.48337 0.95849,1.61202 0.95849,3.79041 0,1.52488 -0.52282,2.57051 -0.56638,1.08919 -1.3506,1.08919 -0.39211,0 -0.78422,-0.69708 -1.0892,-2.26553 -2.96262,-2.26553 -1.61201,0 -2.61407,1.30703 -1.04563,1.35061 -1.04563,3.48544 0,2.52693 1.43774,4.18251 1.43774,1.61202 3.61613,1.61202 2.52694,0 4.13895,-2.22197 1.61202,-2.17839 1.61202,-5.62026 0,-3.74683 -1.48131,-11.28408 -0.87136,-4.31322 -2.04769,-6.01237 -1.21991,-1.74272 -3.35473,-1.74272 -1.00206,0 -1.69915,0.56639 -0.74065,0.60995 -0.74065,1.43774 0,0.91492 1.04563,1.56844 0.82779,0.52282 0.82779,1.00206 0,0.82779 -1.39418,1.48131 -1.3506,0.69709 -3.18045,0.69709 -3.35473,0 -5.62026,-2.26553 -2.26553,-2.26553 -2.26553,-5.57669 0,-1.96056 0.74065,-3.70327 0.74066,-1.65558 1.69915,-1.65558 0.56638,0 1.61201,0.43567 2.70121,1.04563 4.96674,1.04563 1.78629,0 3.44187,-0.30497 l 3.04975,-0.47925 q 1.61201,-0.21784 2.5705,-0.21784 4.44393,0 6.97087,2.74478 2.48337,2.70121 3.35472,8.4086 l 3.22403,20.69475 q 0.21784,1.39418 0.47925,2.0477 0.2614,0.87135 0.74065,1.43774 0.43568,0.52281 1.0892,0.95849 1.48131,0.91493 1.48131,1.78628 0,1.35061 -1.69915,1.35061 h -8.80072 q -1.39417,0 -2.00412,-0.65352 -0.60995,-0.56638 -0.82779,-2.13483 -0.26141,-1.91698 -0.39211,-2.61407 z"
           style="stroke-width:0.23550758"
           id="path9485"
           inkscape:connector-curvature="0" />
      </g>
      <path
         style="opacity:1;fill:#00000f;fill-opacity:1;stroke:none;stroke-width:0.6829018;stroke-linejoin:round;stroke-miterlimit:4;stroke-dasharray:none;stroke-opacity:1;paint-order:markers fill stroke"
         d="m 31.40161,206.85789 a 2.0107765,2.011435 0 0 1 -2.010777,2.01144 2.0107765,2.011435 0 0 1 -2.010775,-2.01144 2.0107765,2.011435 0 0 1 2.010775,-2.01144 2.0107765,2.011435 0 0 1 2.010777,2.01144 z"
         id="path9452"
         inkscape:connector-curvature="0" />
      <path
         style="opacity:1;fill:#00000f;fill-opacity:1;stroke:none;stroke-width:0.6829018;stroke-linejoin:round;stroke-miterlimit:4;stroke-dasharray:none;stroke-opacity:1;paint-order:markers fill stroke"
         d="m 292.80252,206.85789 a 2.0107765,2.011435 0 0 1 -2.01078,2.01144 2.0107765,2.011435 0 0 1 -2.01077,-2.01144 2.0107765,2.011435 0 0 1 2.01077,-2.01144 2.0107765,2.011435 0 0 1 2.01078,2.01144 z"
         id="path9454"
         inkscape:connector-curvature="0" />
    </g>
    <g
       aria-label="Phil"
       style="font-style:normal;font-variant:normal;font-weight:bold;font-stretch:normal;font-size:91.81163788px;line-height:1.25;font-family:'Victorian LET';-inkscape-font-specification:'Victorian LET Bold';letter-spacing:0px;word-spacing:0px;fill:#00b300;fill-opacity:1;stroke:none;stroke-width:0.26458332"
       id="text9348"
       transform="translate(0,-0.52916667)" />
    <g
       aria-label="&amp;"
       style="font-style:normal;font-variant:normal;font-weight:bold;font-stretch:normal;font-size:49.25290298px;line-height:1.25;font-family:'Victorian LET';-inkscape-font-specification:'Victorian LET Bold';letter-spacing:0px;word-spacing:0px;fill:#820000;fill-opacity:1;stroke:none;stroke-width:0.26476735"
       id="text9458"
       transform="matrix(0.99916531,0,0,0.99944474,-3.9913758,-3.5741535)" />
    <g
       id="g857">
      <rect
         y="46.455147"
         x="341.29379"
         height="200"
         width="300"
         id="rect8460-6"
         style="opacity:1;fill:#c0c2bf;fill-opacity:1;stroke:#000000;stroke-width:0.69999999;stroke-linejoin:round;stroke-miterlimit:4;stroke-dasharray:none;stroke-opacity:1;paint-order:markers fill stroke" />
      <path
         sodipodi:nodetypes="cccccccccccccccccccccccccccccccccccccccccccccccccccccc"
         inkscape:connector-curvature="0"
         id="rect9350-0-8-2"
         d="m 434.3236,52.36476 c -5.87044,2.55473 -6.5972,10.77409 -9.28659,16.14507 -1.93963,6.99963 -7.15719,12.45403 -9.31692,19.25727 -1.14409,2.62313 3.41535,4.01266 0.14843,5.71875 -2.32574,2.77583 -4.30844,4.74233 -5.33789,-0.0195 -4.47344,-8.27505 -6.55253,-18.21151 -12.5371,-25.42969 -6.53321,-1.68033 -6.92736,6.7404 -8.92579,10.6582 -2.8237,9.10445 -8.80875,17.11237 -11.75,25.93555 0.39888,1.98042 3.15557,2.9089 0.19336,4.39453 -3.66926,2.14913 -6.50713,7.66627 -3.00195,10.72852 -2.50272,4.1071 -9.83145,6.11668 -8.56641,11.74414 0.26181,2.58527 5.73885,2.0113 2.95508,4.52734 -4.1494,7.50802 -13.17474,8.19762 -20.68164,9.43555 -3.53893,3.59747 -0.30154,9.91385 -0.25977,14.5625 3.13545,17.84842 1.84087,36.07028 -1.46679,53.87695 2.55794,6.66567 12.23444,2.63777 16.43359,7.95703 4.92394,4.3112 3.33256,11.83231 6.14453,16.80664 8.76707,3.04198 18.28207,0.21382 27.34374,1.2711 71.69392,0.11891 143.38837,0.25882 215.08205,-0.0406 6.78384,-2.56777 2.94203,-11.80404 7.59764,-16.32812 3.56688,-4.746 10.17143,-4.16953 14.89845,-6.54492 0.59714,-9.73664 -3.45191,-19.4094 -3.13867,-29.17579 -0.96404,-13.36365 1.60107,-26.98693 3.32647,-40.10856 -3.06556,-5.57127 -11.28844,-2.04023 -15.84991,-3.14339 4.13747,-1.41652 5.95458,-7.60016 1.09765,-9.43945 -2.04396,-1.58856 -4.25577,-2.86843 -1.75194,-5.04102 1.90063,-5.09485 -4.99359,-8.18942 -6.1172,-11.51953 5.65349,-4.34231 -3.01773,-8.80474 -4.46288,-11.78906 3.33968,-3.54426 -2.19363,-6.96116 -3.50196,-9.33203 2.84648,-5.01567 -3.35916,-9.01078 -4.47852,-13.60742 -3.27399,-5.48403 -3.54909,-13.95869 -9.47851,-17.15821 -7.00792,0.12715 -5.82763,9.26573 -9.01488,13.5174 -1.22547,2.61644 -2.27811,6.01344 -3.96168,8.03924 -3.41995,-1.46785 -1.21906,-3.64928 -1.85352,-6.29297 -2.861,-7.30302 -7.47536,-13.81606 -9.45117,-21.48437 -0.93485,-4.56668 -6.62469,-7.82203 -9.32422,-2.73633 -2.28656,3.35446 -2.42157,7.82446 -4.55469,11.13867 -1.78552,-5.07338 -8.32817,-2.69967 -9.20703,1.66602 -0.81281,3.02908 -1.86372,5.9705 -3.15039,8.84961 -2.39575,-4.18468 -2.77192,-11.80913 -8.33984,-12.89258 -2.60377,-0.20223 -4.0521,4.51523 -4.69727,-0.27148 -1.87258,-4.17851 -2.76831,-11.92185 -8.41406,-11.85547 -6.38356,3.30093 -5.51236,12.00383 -9.33789,17.37109 -1.94446,4.16884 -6.20064,9.01515 -4.85156,13.33594 -1.53351,1.66193 -5.23649,1.98878 -4.70118,-1.26758 -2.53603,-5.86039 -2.77795,-14.16059 -8.55468,-17.70703 -6.81566,-0.43011 -6.04063,8.20335 -8.90625,12.29687 -0.94195,4.98643 -1.88574,-1.56974 -2.68946,-3.16211 -0.72922,-4.73825 -6.69183,-10.79842 -10.33007,-4.96289 -2.89725,4.88058 -2.82118,11.60429 -6.85547,15.6836 -3.09166,-0.90851 -7.42614,1.36666 -9.75782,0.42383 -4.39915,-9.58994 -8.73312,-19.19646 -12.25781,-29.15625 -1.16203,-2.02524 -2.19821,-5.18981 -5.09961,-4.875 z"
         style="opacity:1;fill:#ffffff;fill-opacity:1;stroke:#000000;stroke-width:0.69999993;stroke-linejoin:round;stroke-miterlimit:4;stroke-dasharray:none;stroke-opacity:1;paint-order:markers fill stroke" />
      <path
         sodipodi:nodetypes="csccsccscccccccccccccccccccccccccccsscccccccccccccccccccccsccsscscccccccsccccccccccccscccsccccccsccscccccccccccscccsccccsccccccscccccccccccc"
         inkscape:connector-curvature="0"
         id="rect9350-0-2"
         d="m 434.59292,56.09902 c -0.22894,0.0371 -1.59649,3.1718 -3.10781,7.13532 -3.38307,8.87228 -7.6276,17.92988 -10.44093,22.28006 -2.23221,3.45159 -2.2844,3.27603 1.1389,3.85371 0.91872,0.15505 1.67049,0.38917 1.67049,0.51978 0,0.50084 -5.33261,6.72572 -7.47559,8.72654 -2.41704,2.25666 -2.42298,2.23858 0.90524,2.82861 0.91872,0.16288 1.67049,0.42762 1.67049,0.58854 0,0.43843 -2.19661,3.63543 -3.67378,5.34677 l -1.29932,1.50499 1.93005,1.97944 c 1.06134,1.08855 3.28962,3.01746 4.95218,4.28678 l 3.02312,2.30783 -3.56667,0.82677 -3.56616,0.82675 1.17975,1.54736 c 1.41149,1.85109 7.16955,6.8504 9.81767,8.52422 1.04079,0.65786 1.89166,1.29684 1.89119,1.41929 -5.3e-4,0.12253 -1.52133,0.82416 -3.37934,1.55932 -1.858,0.73519 -3.46264,1.47142 -3.56616,1.63607 -0.22859,0.3635 3.79953,5.35161 7.11369,8.87032 0.13504,1.00449 0,1 -1,4 -6,-7 -6,-7 -10.06298,-13.05072 l -0.77671,-1.21796 2.71623,-1.17859 2.71572,-1.17809 -4.03846,-3.80288 c -3.89465,-3.66728 -7.88996,-8.74318 -7.20208,-9.15014 0.18326,-0.10842 1.18408,-0.33818 2.22399,-0.5103 1.03994,-0.17211 1.98636,-0.46715 2.10294,-0.65582 0.1165,-0.18856 -0.56918,-0.9701 -1.52352,-1.73723 -1.38927,-1.11677 -5.05445,-5.32429 -7.70926,-8.84965 -0.29661,-0.39389 0.20095,-0.61665 1.87077,-0.83821 1.25117,-0.16603 2.37348,-0.46163 2.49402,-0.65682 0.12059,-0.19516 -0.39902,-1.27133 -1.15484,-2.39156 -2.01158,-2.98143 -7.89336,-15.45051 -11.13542,-23.60666 -2.12143,-5.33693 -2.90144,-6.87803 -3.15764,-6.2378 -0.18715,0.46768 -1.67206,4.25903 -3.29962,8.42503 -3.41868,8.75075 -7.38566,17.11035 -9.93275,20.93204 -0.97655,1.46526 -1.69603,2.7925 -1.59925,2.94922 0.0968,0.15664 1.18944,0.41914 2.42826,0.58356 l 2.2524,0.29851 -1.46274,2.08359 c -0.80459,1.14585 -2.99086,3.64868 -4.85801,5.56154 -1.86716,1.91288 -3.26998,3.5476 -3.11778,3.63294 0.15221,0.0854 1.077,0.29989 2.0551,0.47693 0.9781,0.17694 1.94087,0.42228 2.1398,0.54519 0.86412,0.5342 -4.90747,7.65299 -8.61898,10.63071 l -2.73366,2.19322 2.75359,1.22993 2.75309,1.22941 c -4.466,13.34754 -15.25048,16.13503 -24.71188,16.24061 4.62453,22.91964 4.88732,44.99733 0.0562,65.00984 16.62143,0.90562 21.20996,9.64359 21.20996,22.18025 76.49558,0.11455 163.5945,0.34966 240.05824,0 0.96409,-15.42974 8.6768,-21.21589 19.28178,-21.21589 -5.09506,-19.35639 -5.62544,-45.85422 -0.0164,-65.9242 -4.8755,-0.50328 -17.00001,1 -19.00002,-2 -0.90993,-0.92189 -0.77777,-2.26505 0.075,-2.96473 1.9159,-1.57196 6.79979,-3.99955 6.92499,-4.03527 -4.99999,-4 -6.52915,-5.52917 -8.42774,-9.10157 0.0563,-0.0494 0.94482,-0.50968 1.9749,-1.0231 1.03008,-0.51343 1.93093,-0.98608 2.00178,-1.05002 0.0709,-0.0639 -1.00626,-1.38655 -2.39387,-2.93925 -3.85918,-4.31823 -6.22951,-7.66669 -6.22951,-8.50933 0,-0.14747 0.92417,-0.63517 2.05362,-1.08391 l 2.05359,-0.81579 -1.28736,-1.05051 c -3.45162,-2.8159 -7.57504,-7.48732 -7.5837,-8.59298 -0.002,-0.2129 0.6826,-0.48977 1.52102,-0.61546 0.83843,-0.12577 1.59765,-0.34729 1.68693,-0.49188 0.0894,-0.14463 -0.68532,-1.09358 -1.72131,-2.10899 -1.83786,-1.80131 -5.23566,-5.83916 -5.23566,-6.22186 0,-0.10542 0.57458,-0.28909 1.27691,-0.40764 2.62343,-0.44271 2.58079,-0.38094 1.42886,-2.05568 -1.62725,-2.36579 -5.86731,-11.30317 -8.46852,-17.85075 -2.09309,-5.26863 -2.40342,-5.85785 -2.69231,-5.10905 -0.17958,0.46554 -0.94143,2.45577 -1.69291,4.42283 -3.23312,8.4631 -5.90274,14.15956 -8.33649,17.78995 -1.67973,2.50561 -1.71961,2.39438 1.01683,2.81964 l 1.43136,0.22226 -1.66202,2.10153 c -0.91423,1.15587 -2.58568,3.00941 -3.71414,4.11883 -1.12845,1.10943 -1.97878,2.13522 -1.8897,2.27944 0.0892,0.14431 0.8485,0.36567 1.68693,0.49137 0.83841,0.12577 1.52402,0.36748 1.52402,0.53721 0,1.11646 -4.52292,6.39759 -7.10793,8.29947 -0.25717,0.1892 -0.46142,0.34766 -0.64218,0.49385 0.0355,-1.04751 0.0655,-2.0951 0.0862,-3.14157 2.00289,-1.77479 3.9184,-3.67264 3.9184,-3.99475 0,-0.13136 -0.99749,-0.50903 -2.21703,-0.83921 -0.66634,-0.18042 -1.2704,-0.37495 -1.71233,-0.5412 -0.0111,-0.36842 -0.024,-0.73684 -0.0404,-1.10434 0.0198,-0.0136 0.0379,-0.0275 0.0583,-0.0409 1.38505,-0.90777 5.65042,-4.66592 5.83151,-5.13795 0.092,-0.23974 -0.60881,-1.49976 -1.5574,-2.8002 -0.94856,-1.30044 -1.72479,-2.53003 -1.72479,-2.73243 0,-0.20243 0.65132,-0.47574 1.44729,-0.60749 0.79598,-0.13173 1.57375,-0.31484 1.72828,-0.40665 0.15446,-0.0917 -0.92752,-1.4149 -2.40435,-2.94074 -3.7214,-3.84489 -4.77943,-5.29478 -4.15255,-5.69161 0.26775,-0.16955 0.86997,-0.31265 1.33818,-0.31844 1.83499,-0.0225 1.82127,-0.40699 -0.13601,-3.72016 -1.95761,-3.31375 -5.37276,-10.79509 -7.94191,-17.39825 -0.83823,-2.15438 -1.62382,-4.02389 -1.74572,-4.15421 -0.12188,-0.13028 -1.19728,2.32221 -2.3899,5.44991 -2.03605,5.33963 -4.4785,10.75934 -6.4757,14.44954 -0.51065,-1.19513 -1.00307,-2.37336 -1.44131,-3.47645 -2.09308,-5.26864 -2.40342,-5.85835 -2.6923,-5.10955 -0.17959,0.46554 -0.94144,2.45576 -1.69292,4.42282 -2.34217,6.13098 -4.38766,10.80363 -6.26295,14.29704 -1.94978,-3.94179 -4.40425,-9.36112 -6.01585,-13.41546 -1.62175,-4.07989 -2.21846,-5.25812 -2.41431,-4.76868 -0.14307,0.35752 -1.27772,3.25586 -2.52192,6.44063 -0.20028,0.51266 -0.40678,1.01772 -0.6113,1.52543 -2.00336,-3.67302 -5.01917,-10.36153 -7.34556,-16.34076 -0.83823,-2.15439 -1.62382,-4.0239 -1.74573,-4.15422 -0.12188,-0.13027 -1.19776,2.32222 -2.39039,5.44991 -2.58623,6.78252 -5.8306,13.70694 -7.98128,17.03247 -1.70644,2.63863 -1.74613,2.50412 0.87087,2.94573 0.70232,0.11853 1.27691,0.29733 1.27691,0.39718 0,0.38287 -5.66421,5.14181 -7.30244,6.67136 -0.11647,0.10874 -0.20376,0.19157 -0.3054,0.28705 -0.37384,-0.22173 -0.77567,-0.42359 -1.21065,-0.60151 -1.51861,-0.32201 -2.89915,-0.1031 -4.21633,0.37376 -2.01528,-3.79352 -3.7203,-10.92696 -5.71222,-15.9381 -1.62175,-4.07988 -2.21846,-5.25811 -2.41431,-4.76868 -0.14307,0.35753 -1.27822,3.25586 -2.52243,6.44064 -2.03766,5.21576 -4.32772,10.24164 -6.16182,13.59138 -1.74421,-3.7761 -3.51359,-7.83318 -4.91879,-11.37026 -2.738,-6.89194 -3.14393,-7.66283 -3.52183,-6.68332 -0.23492,0.60899 -1.23151,3.21268 -2.21453,5.7858 -1.7653,4.62092 -3.40068,8.60257 -4.94022,12.02907 -7.69454,-0.48625 -15.79348,1.82199 -20.07245,4.05876 -1,-2 -1,-3 -1,-4 0.35026,-0.22179 4.38753,-0.99325 5,-1 -5,-9 -8.60653,-18.68596 -11.91531,-27.12852 -1.0965,-2.81816 -2.12381,-5.26298 -2.28329,-5.43347 -0.005,-0.006 -0.0111,-0.008 -0.0184,-0.007 z"
         style="opacity:1;fill:#00000f;fill-opacity:1;stroke:none;stroke-width:0.69999993;stroke-linejoin:round;stroke-miterlimit:4;stroke-dasharray:none;stroke-opacity:1;paint-order:markers fill stroke" />
      <path
         sodipodi:nodetypes="cccccsscccscccccccccscccccccscscscscscccsscscccscccscccscccscscsccscsccccsccscccccsccccscccssscccsccssccsccscccssscccscccscscccsccscccsccsccscsscccscccscscccsccscccscscccccscscscsccccscscsccscscccccccscssscsccsscccsccscccscscscc"
         inkscape:connector-curvature="0"
         id="rect9350-1"
         d="m 439.61056,102.30148 c -3.08302,2.68038 -4.62435,4.74091 -4.62435,6.18198 0,0.77817 0.30215,1.25384 0.90723,1.42677 l 1.25349,0.43256 c 1.09491,0.4035 1.85855,1.05158 2.29076,1.94505 0.43219,0.89346 0.64816,2.43572 0.64816,4.62614 v 23.86381 c 0,2.39218 -0.0862,4.13593 -0.25907,5.23114 -0.2305,1.15287 -0.60531,1.9889 -1.12395,2.50768 -0.57627,0.57643 -1.52682,1.16737 -2.85223,1.77262 -1.03728,0.46115 -1.5559,1.12377 -1.5559,1.9884 0,0.0686 0.003,0.13397 0.007,0.19735 h -78.29742 c 3.34339,19.08647 4.07865,38.3295 0,57.86148 10.64889,1e-4 19.2815,8.63513 19.2816,19.287 h 231.3852 c 0.0417,-10.38391 8.54964,-18.88478 19.27812,-19.26208 -4.65177,-19.67186 -3.74335,-38.89888 0,-57.8864 h -26.69721 c 1.72575,-0.7355 3.25918,-1.80196 4.59547,-3.20736 0.76893,-0.81722 1.15334,-1.48211 1.15334,-1.99488 0,-0.22434 -0.0479,-0.39266 -0.14398,-0.50482 -0.0801,-0.0962 -0.32042,-0.25608 -0.7209,-0.48041 -0.33641,-0.20831 -0.57673,-0.48869 -0.72091,-0.84121 -0.16019,-0.32048 -0.24063,-0.78546 -0.24063,-1.39437 l 0.0244,-2.59589 c 0,-0.70505 0.10413,-1.20952 0.31238,-1.51397 0.20826,-0.33651 0.70469,-0.80149 1.48964,-1.39438 0.44854,-0.35253 0.67307,-0.70496 0.67307,-1.05749 0,-0.22433 -0.0883,-0.42474 -0.26453,-0.601 -0.19225,-0.14422 -0.40839,-0.21629 -0.64868,-0.21629 -0.16018,0 -0.59296,0.0963 -1.29782,0.28855 -1.15341,0.32047 -2.30666,0.4804 -3.46006,0.4804 -1.13738,0 -2.34687,-0.16782 -3.62844,-0.50432 -0.68884,-0.19229 -1.18527,-0.28855 -1.48963,-0.28855 -0.27232,0 -0.51266,0.0879 -0.7209,0.26413 -0.20827,0.19228 -0.31238,0.42477 -0.31238,0.69718 0,0.32048 0.21614,0.61714 0.64866,0.88955 l 0.79315,0.40865 c 0.51263,0.25638 0.88075,0.60882 1.10501,1.05749 0.19225,0.43264 0.28847,1.10544 0.28847,2.0188 0,3.36503 -1.4656,5.04775 -4.39717,5.04775 -1.55388,0 -2.85172,-0.52866 -3.89299,-1.58624 -1.05728,-1.04156 -1.58579,-2.36394 -1.58579,-3.96634 0,-1.77866 0.60055,-3.27677 1.80201,-4.49458 1.16943,-1.18578 2.86747,-2.01109 5.09416,-2.47579 0.68884,-0.14421 1.12952,-0.28834 1.32175,-0.43256 0.17621,-0.12819 0.26455,-0.36858 0.26455,-0.72111 0,-0.35253 -0.23243,-0.6166 -0.69699,-0.79287 l -1.10553,-0.38472 c -1.08931,-0.38457 -1.94597,-1.00949 -2.57075,-1.87478 -0.64077,-0.83324 -0.96153,-1.8027 -0.96153,-2.90835 0,-1.2018 0.37651,-2.20333 1.12944,-3.00453 1.99146,-2.71182 7.48484,-1.21972 7.14777,1.14819 0,0.54481 -0.16827,1.0014 -0.50468,1.36996 -0.33641,0.38457 -0.745,0.57708 -1.22559,0.57708 -0.25631,0 -0.52031,-0.0963 -0.79266,-0.28854 -0.25631,-0.19229 -0.42458,-0.40059 -0.50468,-0.62493 l -0.0961,-0.38472 c -0.0961,-0.30446 -0.28858,-0.45649 -0.57693,-0.45649 -0.27233,0 -0.50427,0.15993 -0.6965,0.48041 -0.20824,0.30445 -0.31238,0.66528 -0.31238,1.08191 0,1.02553 0.44069,1.89873 1.32175,2.61981 0.84904,0.73709 1.90605,1.10583 3.17159,1.10583 1.0733,0 2.05038,-0.27248 2.93144,-0.81729 0.86506,-0.51277 1.55394,-1.24183 2.06657,-2.18724 0.4966,-0.89734 0.74481,-1.92307 0.74481,-3.07679 0,-1.07361 -1.16441,-1.9547 -1.45276,-2.64373 -0.28836,-0.68903 -0.66488,-1.03357 -1.12943,-1.03357 -0.16016,0 -0.26429,0.008 -0.31238,0.0239 -0.54468,0.032 -0.78499,0.0478 -0.7209,0.0478 -0.4005,0 -0.81698,-0.0721 -1.24951,-0.21628 l -1.68195,-0.57659 c -1.53786,-0.51277 -3.01977,-0.76944 -4.44551,-0.76944 -1.66602,0 -3.14742,0.28876 -4.445,0.86563 -1.29757,0.56083 -2.32302,1.88017 -3.07593,2.93775 -0.73689,1.02553 -1.10551,2.22748 -1.10551,3.60553 0,1.29795 0.35234,2.39524 1.05719,3.29257 0.70486,0.89735 1.90646,1.80263 3.60453,2.71599 v 5.3e-4 c -1.31359,0.38457 -2.49102,0.91323 -3.53228,1.58624 -1.04127,0.65698 -1.93052,1.43392 -2.66741,2.33126 -1.48981,1.79469 -2.23446,3.9182 -2.23446,6.36986 0,1.98697 0.52061,3.76545 1.56188,5.3358 1.04126,1.55432 2.50688,2.75626 4.39718,3.60553 0.0469,0.0207 0.0958,0.0381 0.14298,0.0583 h -21.958 c 10e-5,-0.009 10e-4,-0.016 10e-4,-0.0244 0,-0.51879 -0.46098,-1.06611 -1.38302,-1.64255 -0.54744,-0.34586 -0.99392,-0.79294 -1.33968,-1.34055 -0.31693,-0.48996 -0.53341,-1.06638 -0.64866,-1.72926 -0.11526,-0.60525 -0.17289,-1.54203 -0.17289,-2.81018 V 97.11364 c 0,-1.29695 -0.46098,-1.94554 -1.38301,-1.94554 -0.37458,0 -0.86413,0.25914 -1.46921,0.77791 -1.38305,1.0664 -2.73747,1.87336 -4.06289,2.42097 -1.44065,0.60524 -3.22702,1.12402 -5.35921,1.55634 -0.97965,0.17292 -1.46971,0.64858 -1.46971,1.42676 0,0.48997 0.30266,0.89344 0.90773,1.21048 1.21017,0.57643 1.97381,1.1819 2.29076,1.81598 0.25933,0.60524 0.38911,1.93098 0.38911,3.9773 v 35.06115 c 0,2.62275 -0.12978,4.39557 -0.38911,5.31785 -0.31695,0.92229 -0.95082,1.67162 -1.90165,2.24804 -0.72035,0.37469 -1.08062,0.86438 -1.08062,1.46963 0,0.009 0.001,0.0161 0.001,0.0244 h -3.20003 c 1.2e-4,-0.009 0.001,-0.016 0.001,-0.0244 0,-0.48997 -0.461,-1.0373 -1.38303,-1.64255 -0.54745,-0.34586 -0.99441,-0.79294 -1.34017,-1.34055 -0.31695,-0.48997 -0.53291,-1.06638 -0.64817,-1.72926 -0.11525,-0.60526 -0.17288,-1.54203 -0.17288,-2.81018 v -28.01404 c 0,-1.26814 -0.46099,-1.90218 -1.38302,-1.90218 -0.37458,0 -0.89319,0.23056 -1.5559,0.6917 -1.67117,1.18168 -3.06869,2.01723 -4.19241,2.50718 -1.26779,0.54761 -3.01106,1.0378 -5.22968,1.47012 -0.8644,0.17293 -1.29633,0.61952 -1.29633,1.34006 0,0.51878 0.31669,0.92227 0.95057,1.21048 0.80677,0.43232 1.38302,0.8358 1.72878,1.21048 0.28814,0.37468 0.50411,0.92251 0.64817,1.64305 0.11526,0.60525 0.12294,1.62911 0.17288,3.06931 v 15.26086 0.95135 c 0,2.04631 -0.12928,3.48733 -0.3886,4.32315 -0.31696,0.83582 -0.8932,1.5275 -1.72878,2.07511 l -0.60532,0.43207 c -0.46102,0.25939 -0.69151,0.67741 -0.69151,1.25384 0,0.009 10e-4,0.0161 10e-4,0.0244 h -3.20049 c 1.3e-4,-0.009 10e-4,-0.016 10e-4,-0.0244 0,-0.48997 -0.46099,-1.0373 -1.38302,-1.64255 -0.54746,-0.4035 -0.97938,-0.83607 -1.29633,-1.2972 -0.28814,-0.43232 -0.50411,-1.02327 -0.64817,-1.77261 -0.14406,-0.80701 -0.80463,-1.96809 -0.21622,-3.02596 v -0.95135 -16.25505 -0.9947 c 0,-3.05506 -0.47554,-5.4038 -1.42637,-7.04662 -0.77796,-1.44107 -2.00259,-2.60841 -3.67378,-3.50188 -1.67117,-0.89347 -3.50063,-1.34005 -5.48874,-1.34005 -3.45761,0 -6.64147,1.58536 -9.55161,4.75572 V 97.11364 c 0,-1.26813 -0.47554,-1.90219 -1.42637,-1.90219 -0.31695,0 -0.80651,0.24461 -1.46922,0.73456 -1.26779,1.00876 -2.60767,1.81572 -4.01953,2.42097 -1.32541,0.5476 -3.1263,1.06638 -5.40256,1.55634 -0.92202,0.17292 -1.38302,0.66312 -1.38302,1.47012 0,0.5188 0.28813,0.90773 0.86439,1.16712 0.77796,0.37468 1.36874,0.76413 1.77212,1.16763 0.37458,0.34586 0.6191,0.8501 0.73436,1.51298 0.11525,0.57643 0.15192,1.55647 0.17288,2.93975 v 34.93157 1.25385 c 0,1.98868 -0.12929,3.40062 -0.38861,4.23644 -0.31694,0.86464 -0.89319,1.58539 -1.72877,2.16182 l -0.60533,0.43207 c -0.48982,0.31703 -0.73485,0.73505 -0.73485,1.25384 0,0.009 0.001,0.0161 0.001,0.0244 h -28.25214 c 0.0462,-0.17849 0.0717,-0.37288 0.0717,-0.58656 0,-0.97993 -0.72057,-1.68565 -2.16122,-2.11797 -1.2966,-0.37467 -2.27622,-0.85034 -2.93893,-1.42676 -0.6627,-0.57643 -1.09513,-1.38341 -1.29683,-2.42097 -0.20169,-0.97992 -0.30241,-2.72368 -0.30241,-5.23114 v -20.01658 -0.95084 c 0,-3.19918 0.21596,-5.63463 0.64817,-7.30625 0.57625,-2.1328 1.68566,-3.79035 3.32802,-4.97201 3.35257,-2.05399 7.06436,-2.19618 10.41601,-0.90799 8.04345,2.65711 10.28142,9.98575 7.12493,16.38513 -0.74915,1.614 -1.80092,2.88209 -3.15514,3.80438 -1.35423,0.92228 -2.8234,1.38341 -4.40814,1.38341 -1.69999,0 -3.1406,-0.54734 -4.32194,-1.64255 -1.18135,-1.09521 -1.77213,-2.42094 -1.77213,-3.9773 0,-1.23932 0.37431,-2.32046 1.12346,-3.24274 0.72033,-0.89347 1.62829,-1.34006 2.7232,-1.34006 0.54746,0 1.03701,0.17293 1.46921,0.51878 0.4322,0.37468 0.64817,0.7927 0.64817,1.25384 0,0.31704 -0.11524,0.63381 -0.34576,0.95085 l -0.47529,0.60549 c -0.17288,0.20175 -0.25906,0.46089 -0.25907,0.77792 0,0.34586 0.17288,0.67766 0.51864,0.99469 0.31694,0.28822 0.69127,0.43207 1.12345,0.43207 0.92203,0 1.70021,-0.44658 2.33411,-1.34005 0.63389,-0.83582 0.95057,-1.83026 0.95057,-2.9831 0,-1.58518 -0.57623,-2.91091 -1.72878,-3.9773 -1.15252,-1.03758 -2.6217,-1.55634 -4.40813,-1.55634 -1.52711,0 -2.92462,0.41801 -4.19241,1.25384 -1.23897,0.807 -2.23312,1.94528 -2.98227,3.41517 -0.74914,1.49872 -1.12395,3.12718 -1.12395,4.88529 0,3.17036 1.26773,5.83635 3.80331,7.99795 2.50676,2.16161 5.66207,3.24225 9.46543,3.24225 3.14066,0 4.97299,-0.79244 7.53738,-2.37761 2.56439,-1.55635 4.6098,-3.71813 6.13691,-6.48498 2.47351,-5.69682 2.18849,-12.42655 -0.0534,-17.68183 -1.15254,-2.59392 -2.80962,-4.88501 -4.97061,-6.87369 -2.04575,-1.9022 -4.58123,-3.40136 -7.60663,-4.49658 -9.5857,-3.59809 -23.49381,0.77238 -29.69207,5.83672 z m 96.38062,-0.25964 c -1.41185,0 -2.66506,0.51876 -3.75997,1.55633 -1.06609,1.03757 -1.59925,2.29162 -1.59925,3.76152 0,1.46989 0.53316,2.72345 1.59925,3.76102 1.09491,1.03757 2.34812,1.55633 3.75997,1.55633 1.46948,0 2.72268,-0.51876 3.75996,-1.55633 1.03729,-1.03757 1.5559,-2.29113 1.5559,-3.76102 0,-1.4699 -0.51861,-2.72395 -1.5559,-3.76152 -1.03728,-1.03757 -2.29048,-1.55633 -3.75996,-1.55633 z m -30.25412,20.40578 c 1.58473,0 2.75175,0.54733 3.5009,1.64255 0.74915,1.15286 1.12396,2.91114 1.12396,5.2745 v 14.13708 c 0,2.47865 -0.12978,4.15023 -0.3891,5.01486 -0.25932,0.89347 -0.83556,1.64279 -1.72878,2.24804 l -0.60532,0.43207 c -0.44252,0.31587 -0.69151,0.70622 -0.69151,1.25384 0,0.009 0.001,0.0161 0.001,0.0244 h -3.15714 c -0.009,0 0.001,-0.016 0.001,-0.0244 0,-0.48997 -0.461,-1.0373 -1.38303,-1.64255 -0.57626,-0.37467 -1.02274,-0.80725 -1.33967,-1.2972 -0.31695,-0.48997 -0.53291,-1.06637 -0.64818,-1.72926 -0.11525,-0.57643 -0.17287,-1.49868 -0.17287,-2.76682 v -0.95134 -13.92031 c 0,-2.44981 0.47553,-4.33792 1.42636,-5.6637 0.95084,-1.35461 2.30478,-2.03176 4.06239,-2.03176 z"
         style="opacity:1;fill:#ffffff;fill-opacity:1;stroke:none;stroke-width:0.69999999;stroke-linejoin:round;stroke-miterlimit:4;stroke-dasharray:none;stroke-opacity:1;paint-order:markers fill stroke" />
      <g
         transform="matrix(0.96408925,0,0,1.1456832,401.56342,-51.01364)"
         aria-label="Loretta"
         style="font-style:normal;font-variant:normal;font-weight:bold;font-stretch:normal;font-size:89.22705078px;line-height:1.25;font-family:'Victorian LET';-inkscape-font-specification:'Victorian LET Bold';letter-spacing:0px;word-spacing:0px;fill:#000000;fill-opacity:1;stroke:none;stroke-width:0.25175121"
         id="text9344-5">
        <path
           d="m 15.006778,238.86397 h -35.769242 q -2.788346,0 -2.788346,-1.78629 0,-0.69708 0.479247,-1.17633 0.522815,-0.43568 1.612012,-0.87136 2.526938,-1.08919 3.224025,-2.78834 0.653518,-1.65558 0.653518,-6.84016 v -31.02034 q 0,-3.48544 -0.304975,-4.96674 -0.348543,-1.61202 -1.219901,-2.57051 -0.914926,-1.00206 -3.093321,-2.4398 -1.263469,-0.87136 -1.263469,-1.69915 0,-0.74065 0.479247,-1.30704 0.479247,-0.52281 1.04563,-0.52281 0.566382,0 1.350604,0.26141 l 2.744778,0.91492 q 3.616135,1.13277 6.535184,1.13277 1.9605554,0 3.3111602,-0.30498 1.8734195,-0.43568 4.8796044,-1.52487 1.4377405,-0.47925 2.091259,-0.47925 0.78422208,0 1.26346893,0.47925 0.43567896,0.47924 0.43567896,1.3506 0,0.60995 -0.39211106,1.0892 -0.47924686,0.47924 -1.61201213,1.17633 -2.7447775,1.65558 -3.6161354,3.44186 -0.8713579,1.87342 -0.8713579,5.75097 v 23.57023 q 0,4.05181 0.2614074,5.8381 0.1742716,1.69914 0.82779,3.26759 0.7406542,1.52487 1.8734195,2.4398 1.0456295,1.00206 2.70120957,1.61201 1.52487633,0.56639 3.22402433,0.56639 4.0082464,0 6.5351843,-3.04976 2.5705059,-3.09332 2.5705059,-7.71151 0,-2.65765 -1.263469,-5.40242 -0.871358,-1.82986 -0.871358,-2.52694 0,-0.87136 0.566383,-1.43774 0.522815,-0.56638 1.307037,-0.56638 1.350604,0 2.701209,1.04562 1.394173,1.04563 2.352667,2.74478 1.045629,1.78629 1.65558,3.83398 0.60995,2.22196 0.60995,4.53106 0,0.43568 -0.217839,4.44392 v 0.74066 q -0.04357,0.21784 -0.04357,0.65352 0,3.09332 1.873419,5.62025 1.437741,2.00413 1.437741,2.96262 0,0.9585 -0.653519,1.61201 -0.697086,0.69709 -1.612012,0.69709 -0.653518,0 -1.307037,-0.17427 -2.352666,-0.60995 -3.703271,-0.60995 z"
           style="stroke:none;stroke-width:0.25175121"
           id="path9473-0"
           inkscape:connector-curvature="0" />
        <path
           d="m 55.655624,219.56339 q 0,5.70739 -1.960555,10.28202 -1.960555,4.6182 -5.489555,7.14514 -3.572568,2.5705 -7.929357,2.5705 -4.531061,0 -8.016493,-2.39623 -3.572567,-2.39623 -5.533123,-6.66589 -2.004123,-4.18252 -2.004123,-9.71564 0,-7.36297 4.008246,-14.20313 1.002062,-1.69915 1.524877,-2.22197 0.479247,-0.47924 0.914926,-0.47924 0.958493,0 0.958493,1.00206 0,0.39211 -0.522814,2.3091 -0.82779,3.04975 -0.82779,5.70739 0,4.22609 1.568444,7.84222 1.524876,3.61614 4.13895,5.79453 2.657642,2.1784 5.533123,2.1784 3.354728,0 5.57669,-2.70121 2.221963,-2.70121 2.221963,-6.66589 0,-2.17839 -0.871358,-4.40036 -0.82779,-2.13482 -2.309098,-3.529 -1.437741,-1.30703 -3.049753,-1.30703 -1.089197,0 -1.786284,0.69708 -0.784222,0.69709 -0.784222,1.61202 0,0.17427 0.08714,0.60995 l 0.174272,0.60995 q 0,0.0436 0.04357,0.0871 v 0.17427 q 0,1.00207 -1.307036,1.00207 -1.612013,0 -3.267593,-1.17634 -1.524876,-1.04563 -2.570506,-2.91905 -0.958493,-1.74271 -0.958493,-3.83397 0,-3.18046 2.221962,-5.44599 2.221963,-2.26553 5.489555,-2.26553 4.182518,0 7.493678,2.65764 3.354728,2.70121 5.315284,7.31941 1.916987,4.70533 1.916987,10.32559 z"
           style="stroke-width:0.25175121"
           id="path9475-8"
           inkscape:connector-curvature="0" />
        <path
           d="m 73.126356,201.48271 v 4.57463 q 1.307037,-3.13689 3.354728,-4.92317 2.004123,-1.74272 4.313222,-1.74272 1.829851,0 3.572567,1.04563 1.65558,1.0892 2.788346,2.74478 1.089197,1.65558 1.089197,3.22403 0,1.04562 -0.566383,1.74271 -0.653518,0.78422 -2.047691,1.61201 -1.960555,1.2199 -2.744777,2.35267 -0.784222,1.0892 -0.784222,2.57051 0,0.78422 0.479247,2.35266 0.261407,0.9585 0.261407,1.0892 0,0.65352 -0.522815,1.04563 -0.522815,0.39211 -1.089197,0.39211 -2.875481,0 -2.919049,-5.53312 -0.04357,-2.52694 -0.609951,-3.529 -0.566382,-0.9585 -1.873419,-0.9585 -1.394173,0 -2.047691,1.43774 -0.653519,1.48131 -0.653519,4.6182 v 13.81102 0.82779 q 0,2.57051 0.522815,3.74684 0.522815,1.26347 2.134827,1.96056 0.914926,0.39211 1.219901,0.69709 0.261407,0.30497 0.261407,0.91492 0,0.74066 -0.392111,1.00206 -0.435679,0.30498 -1.524876,0.30498 H 61.275888 q -1.089197,0 -1.524876,-0.30498 -0.435679,-0.30497 -0.435679,-1.00206 0,-0.69709 1.263469,-1.56844 1.350605,-0.82779 1.829852,-2.13483 0.435679,-1.17633 0.435679,-3.87754 v -18.12425 q 0,-1.96055 -0.479247,-3.00618 -0.435679,-0.9585 -1.786284,-1.56845 -1.176333,-0.60995 -1.176333,-1.3506 0,-0.87136 0.566383,-1.17633 0.522814,-0.34855 1.960555,-0.52282 3.877543,-0.47925 8.103629,-3.529 1.089197,-0.82779 1.699147,-0.82779 0.609951,0 1.002062,0.43568 0.392111,0.43568 0.392111,1.17633 z"
           style="stroke-width:0.25175121"
           id="path9477-9"
           inkscape:connector-curvature="0" />
        <path
           d="m 99.354226,212.28755 q 1.786284,-2.35266 4.269654,-2.35266 0.95849,0 1.91699,0.39211 1.00206,0.47924 1.56844,1.08919 0.60995,0.74066 0.60995,1.35061 0,0.56638 -0.34854,1.00206 -0.39211,0.43568 -0.87136,0.43568 -0.17427,0 -0.91493,-0.39211 -0.60995,-0.43568 -1.2199,-0.43568 -0.91492,0 -1.4813,0.69709 -0.60996,0.74065 -0.60996,1.61201 0,1.3506 1.04563,2.26553 1.04563,0.91492 2.61408,0.91492 2.61407,0 4.44392,-2.35266 1.78629,-2.3091 1.78629,-5.7074 0,-2.74477 -1.61202,-4.48749 -1.61201,-1.74272 -4.09538,-1.74272 -2.61407,0 -4.53106,2.04769 -1.91699,2.0477 -2.570504,5.66383 z m 0.08714,7.92936 q 0.740654,3.44186 1.960564,5.44599 1.3506,2.13482 3.70327,3.48543 2.26553,1.3506 4.70533,1.3506 5.01031,0 9.41067,-5.31528 0.65351,-0.74066 1.13276,-0.74066 0.56638,0 0.91493,0.47925 0.34854,0.47925 0.34854,1.2199 0,2.78835 -2.3091,6.53519 -2.04769,3.26759 -5.31528,5.05387 -3.35473,1.78629 -7.31941,1.78629 -4.57463,0 -8.277903,-2.43981 -3.659703,-2.4398 -5.707394,-6.88372 -2.091259,-4.44393 -2.091259,-9.97705 0,-5.7074 2.178394,-10.54343 2.178395,-4.83604 5.925234,-7.53725 3.790408,-2.74478 8.277908,-2.74478 2.39623,0 4.35679,0.78423 l 2.00412,0.78422 q 0.91493,0.43568 2.26553,0.43568 0.60995,0 1.39417,-0.13071 0.21784,-0.0436 0.91493,-0.0436 1.52488,0 2.52694,2.04769 0.95849,2.04769 0.95849,5.44598 0,3.92111 -1.96055,7.40655 -2.00413,3.48543 -5.22815,5.66382 -3.31116,2.1784 -6.97087,2.1784 -4.57462,0 -7.798654,-3.74684 z"
           style="stroke-width:0.25175121"
           id="path9479-0"
           inkscape:connector-curvature="0" />
        <path
           d="m 145.31835,205.62166 h -6.27377 v 20.78189 q 0,2.87548 0.47924,4.18252 0.39211,0.95849 1.2199,1.52487 0.87136,0.60995 1.78629,0.60995 1.04563,0 2.26553,-0.87135 1.13276,-0.78423 1.43774,-0.78423 0.47925,0 0.82779,0.34855 0.30497,0.34854 0.30497,0.87136 0,0.91492 -0.78422,2.30909 -0.82779,1.30704 -2.09126,2.39624 -3.04975,2.61407 -7.45011,2.61407 -5.27171,0 -7.27584,-4.22608 -0.87135,-1.82986 -0.87135,-5.31529 v -24.44159 h -5.09745 v -3.87754 l 0.74066,-0.21784 q 4.70533,-1.56844 6.92729,-4.18252 2.1784,-2.52693 3.31116,-7.79865 0.39211,-1.96056 0.82779,-2.4398 0.47925,-0.52282 1.52488,-0.52282 1.00206,0 1.48131,0.60995 0.43568,0.56639 0.43568,2.04769 v 11.24052 h 6.27377 z"
           style="stroke-width:0.25175121"
           id="path9481-3"
           inkscape:connector-curvature="0" />
        <path
           d="m 168.40934,205.62166 h -6.27378 v 20.78189 q 0,2.87548 0.47925,4.18252 0.39211,0.95849 1.2199,1.52487 0.87136,0.60995 1.78629,0.60995 1.04563,0 2.26553,-0.87135 1.13276,-0.78423 1.43774,-0.78423 0.47924,0 0.82779,0.34855 0.30497,0.34854 0.30497,0.87136 0,0.91492 -0.78422,2.30909 -0.82779,1.30704 -2.09126,2.39624 -3.04975,2.61407 -7.45011,2.61407 -5.27171,0 -7.27584,-4.22608 -0.87136,-1.82986 -0.87136,-5.31529 v -24.44159 h -5.09744 v -3.87754 l 0.74066,-0.21784 q 4.70533,-1.56844 6.92729,-4.18252 2.1784,-2.52693 3.31116,-7.79865 0.39211,-1.96056 0.82779,-2.4398 0.47925,-0.52282 1.52488,-0.52282 1.00206,0 1.48131,0.60995 0.43567,0.56639 0.43567,2.04769 v 11.24052 h 6.27378 z"
           style="stroke-width:0.25175121"
           id="path9483-4"
           inkscape:connector-curvature="0" />
        <path
           d="m 195.50857,233.46155 q -1.96056,3.26759 -4.35679,4.70533 -2.39623,1.43774 -5.92523,1.43774 -5.7074,0 -9.27997,-3.70327 -3.6597,-3.74684 -3.6597,-9.3671 0,-5.48955 3.44186,-9.06212 3.48544,-3.61613 8.58288,-3.61613 2.26553,0 4.13895,0.87135 1.82985,0.87136 2.78835,2.48337 0.95849,1.61202 0.95849,3.79041 0,1.52488 -0.52282,2.57051 -0.56638,1.08919 -1.3506,1.08919 -0.39211,0 -0.78422,-0.69708 -1.0892,-2.26553 -2.96262,-2.26553 -1.61201,0 -2.61407,1.30703 -1.04563,1.35061 -1.04563,3.48544 0,2.52693 1.43774,4.18251 1.43774,1.61202 3.61613,1.61202 2.52694,0 4.13895,-2.22197 1.61202,-2.17839 1.61202,-5.62026 0,-3.74683 -1.48131,-11.28408 -0.87136,-4.31322 -2.04769,-6.01237 -1.21991,-1.74272 -3.35473,-1.74272 -1.00206,0 -1.69915,0.56639 -0.74065,0.60995 -0.74065,1.43774 0,0.91492 1.04563,1.56844 0.82779,0.52282 0.82779,1.00206 0,0.82779 -1.39418,1.48131 -1.3506,0.69709 -3.18045,0.69709 -3.35473,0 -5.62026,-2.26553 -2.26553,-2.26553 -2.26553,-5.57669 0,-1.96056 0.74065,-3.70327 0.74066,-1.65558 1.69915,-1.65558 0.56638,0 1.61201,0.43567 2.70121,1.04563 4.96674,1.04563 1.78629,0 3.44187,-0.30497 l 3.04975,-0.47925 q 1.61201,-0.21784 2.5705,-0.21784 4.44393,0 6.97087,2.74478 2.48337,2.70121 3.35472,8.4086 l 3.22403,20.69475 q 0.21784,1.39418 0.47925,2.0477 0.2614,0.87135 0.74065,1.43774 0.43568,0.52281 1.0892,0.95849 1.48131,0.91493 1.48131,1.78628 0,1.35061 -1.69915,1.35061 h -8.80072 q -1.39417,0 -2.00412,-0.65352 -0.60995,-0.56638 -0.82779,-2.13483 -0.26141,-1.91698 -0.39211,-2.61407 z"
           style="stroke-width:0.25175121"
           id="path9485-6"
           inkscape:connector-curvature="0" />
      </g>
      <path
         style="opacity:1;fill:#00000f;fill-opacity:1;stroke:none;stroke-width:0.69999993;stroke-linejoin:round;stroke-miterlimit:4;stroke-dasharray:none;stroke-opacity:1;paint-order:markers fill stroke"
         d="m 367.57387,162.11852 a 1.9281785,1.9287177 0 0 1 -1.92818,1.92872 1.9281785,1.9287177 0 0 1 -1.92818,-1.92872 1.9281785,1.9287177 0 0 1 1.92818,-1.92872 1.9281785,1.9287177 0 0 1 1.92818,1.92872 z"
         id="path9452-5"
         inkscape:connector-curvature="0" />
      <path
         style="opacity:1;fill:#00000f;fill-opacity:1;stroke:none;stroke-width:0.69999993;stroke-linejoin:round;stroke-miterlimit:4;stroke-dasharray:none;stroke-opacity:1;paint-order:markers fill stroke"
         d="m 618.23705,162.11852 a 1.9281785,1.9287177 0 0 1 -1.92818,1.92872 1.9281785,1.9287177 0 0 1 -1.92818,-1.92872 1.9281785,1.9287177 0 0 1 1.92818,-1.92872 1.9281785,1.9287177 0 0 1 1.92818,1.92872 z"
         id="path9454-0"
         inkscape:connector-curvature="0" />
    </g>
  </g>
</svg>
