<?xml version="1.0" encoding="UTF-8" standalone="no"?>
<!-- Created with Inkscape (http://www.inkscape.org/) -->

<svg
   xmlns:dc="http://purl.org/dc/elements/1.1/"
   xmlns:cc="http://creativecommons.org/ns#"
   xmlns:rdf="http://www.w3.org/1999/02/22-rdf-syntax-ns#"
   xmlns:svg="http://www.w3.org/2000/svg"
   xmlns="http://www.w3.org/2000/svg"
   xmlns:sodipodi="http://sodipodi.sourceforge.net/DTD/sodipodi-0.dtd"
   xmlns:inkscape="http://www.inkscape.org/namespaces/inkscape"
   width="210mm"
   height="297mm"
   viewBox="0 0 210 297"
   version="1.1"
   id="svg7915"
   inkscape:version="0.92.4 (5da689c313, 2019-01-14)"
   sodipodi:docname="PaulAngie.svg">
  <defs
     id="defs7909" />
  <sodipodi:namedview
     id="base"
     pagecolor="#ffffff"
     bordercolor="#666666"
     borderopacity="1.0"
     inkscape:pageopacity="0.0"
     inkscape:pageshadow="2"
     inkscape:zoom="0.7"
     inkscape:cx="528.78564"
     inkscape:cy="305.3997"
     inkscape:document-units="mm"
     inkscape:current-layer="layer1"
     showgrid="false"
     inkscape:window-width="1920"
     inkscape:window-height="1137"
     inkscape:window-x="1912"
     inkscape:window-y="-8"
     inkscape:window-maximized="1">
    <inkscape:grid
       type="xygrid"
       id="grid8714" />
  </sodipodi:namedview>
  <metadata
     id="metadata7912">
    <rdf:RDF>
      <cc:Work
         rdf:about="">
        <dc:format>image/svg+xml</dc:format>
        <dc:type
           rdf:resource="http://purl.org/dc/dcmitype/StillImage" />
        <dc:title />
      </cc:Work>
    </rdf:RDF>
  </metadata>
  <g
     inkscape:label="Ebene 1"
     inkscape:groupmode="layer"
     id="layer1">
    <g
       id="g8731"
       transform="translate(-2.0624995,0.52916667)">
      <rect
         y="96.523788"
         x="2.7744157"
         height="200"
         width="300"
         id="rect8460"
         style="opacity:1;fill:none;fill-opacity:1;stroke:#000000;stroke-width:0.69999999;stroke-linejoin:round;stroke-miterlimit:4;stroke-dasharray:none;stroke-opacity:1;paint-order:markers fill stroke" />
      <g
         transform="translate(318.62347,18.57573)"
         id="g8701">
        <path
           style="font-style:normal;font-variant:normal;font-weight:bold;font-stretch:normal;font-size:90.28344727px;line-height:1.25;font-family:'Victorian LET';-inkscape-font-specification:'Victorian LET Bold';letter-spacing:0px;word-spacing:0px;fill:#ffffff;fill-opacity:1;stroke:#000000;stroke-width:0.26458338;stroke-opacity:1"
           d="m -244.48868,85.822711 c -6.64354,5.846628 -12.2072,14.266849 -14.83789,21.962879 -4.69212,-5.86042 -12.69057,-10.325131 -20.11523,-9.546868 -5.50652,3.597848 -4.80083,11.529088 -4.59571,17.242178 0.12956,2.27409 2.11014,5.70735 2.44532,6.86914 -5.39727,-2.24618 -10.52342,-6.85599 -16.81446,-5.84961 -4.72329,7.70458 -4.68405,17.34648 -4.46484,26.09375 0.004,2.4857 1.39517,6.38873 0.98437,7.84766 -3.51381,-1.70638 -10.8018,-3.04441 -10.92968,2.54102 -1.59751,7.37858 0.24496,16.24482 6.5332,20.74804 -4.60172,2.82795 -0.86717,8.78421 -0.0176,12.71485 3.44245,10.70224 12.90707,19.07153 24.21219,20.28936 7.00462,0.93781 15.35814,1.51876 21.4089,-2.11748 0.6453,-2.6056 1.39184,-1.26764 2.80299,0.23195 3.60759,2.62139 6.61193,6.57207 4.98059,11.23669 -0.77119,15.09019 -4.21082,31.52187 -15.72694,42.338 -2.77011,2.22296 -1.29657,7.35673 2.57813,5.95117 6.11805,-2.69931 14.98498,-6.00588 19.73242,0.76562 0.89018,5.18274 8.01495,4.57468 9.03711,-0.12695 2.81261,-7.20156 12.35559,-3.95495 17.45313,-1.2207 1.94317,0.93395 3.6469,1.57468 5.39023,2.15507 2.84647,1.21163 4.56593,0.93397 1.8764,-3.0253 -1.64493,-2.42197 -3.24519,-4.79625 -4.75296,-7.00282 4.52538,-1.05236 8.74296,-4.10706 12.44336,-6.15625 9.88829,9.37187 24.53633,5.05249 36.67383,5.70117 8.68653,-0.19024 17.44294,-0.75107 26.08007,0.5 10.77758,16.8276 34.71584,19.25617 51.775356,11.45117 5.91245,-2.29935 10.33494,-7.5635 14.69336,-11.45703 5.55291,0.023 11.0682,-3.94634 16.40039,-0.77343 19.067297,5.48337 42.616271,-10.3789 40.703129,-31.10938 -1.53134,-4.19594 -1.750015,-8.68371 -0.06055,-12.77344 1.170214,-7.05584 -1.795567,-13.99385 -4.234575,-20.17902 1.233346,-9.83159 -1.312242,-23.39337 -12.443159,-26.09833 -3.202905,0.111 -5.394034,-0.13595 -4.0625,-4.23242 -0.214618,-16.27851 1.121378,-32.77415 -1.076172,-48.91406 -3.086388,-7.95302 -14.602247,-8.93964 -20.328123,-3.36133 -6.63138,1.32068 -14.33793,5.8225 -13.62109,13.59375 0.34931,2.00127 1.25748,3.72356 -1.5918,3.78125 -3.08721,0.48206 -6.60062,5.23937 -8.94726,1.56641 -5.58715,-4.27363 -13.105238,-1.86233 -18.437466,1.40429 -2.75963,0.63704 -5.62976,3.80317 -7.54688,0.30079 -7.38034,-6.43474 -17.55752,-3.51002 -26.28906,-4.3711 -2.77453,-0.7088 -2.22815,-4.83679 -4.48828,-6.51172 -11.89685,-16.14913 -36.64492,-17.78598 -52.56836,-6.81445 -0.92769,-4.34015 -5.79361,-8.02161 -9.96875,-5.12305 -2.17742,0.34401 -6.41045,4.7347 -5.21875,0.45703 0.007,-5.91447 -2.84212,-13.143962 -8.07227,-15.658187 -5.56207,0.446004 -10.01556,4.616707 -12.97656,9.052727 -3.27708,-5.954049 -7.98754,-10.928198 -12.53711,-15.912101 l -1.48047,1.539062 z"
           id="path8531-3-6"
           inkscape:connector-curvature="0"
           sodipodi:nodetypes="ccccccccccccccccccccccccccccccccccccccccccccccccccc" />
        <g
           id="g8600"
           transform="translate(-6.6351193,-21.00203)">
          <g
             transform="translate(-22.27216,203.00677)"
             id="text8503-0-6"
             style="font-style:normal;font-variant:normal;font-weight:bold;font-stretch:normal;font-size:90.28344727px;line-height:1.25;font-family:'Victorian LET';-inkscape-font-specification:'Victorian LET Bold';letter-spacing:0px;word-spacing:0px;fill:#000000;fill-opacity:1;stroke:none;stroke-width:0.26458338"
             aria-label="Angie">
            <path
               sodipodi:nodetypes="ccsccccccccccccccccccccccccccccccccccccccccccsscccccscccssccccccccccccccccccsccccscccscccccccccccccccccccccccccsccccccccccccsccccccscscccccccccscccccccccccscccccccccccscccccscccsccc"
               style="stroke-width:1.00000012"
               d="m -927.57422,337.35352 -10.1875,10.5996 c -27.26445,28.36702 -41.48633,63.01246 -41.48633,101.06055 0,31.12052 11.55193,56.44223 32.92969,72.17969 h 0.006 c 4.9254,3.626 9.38384,6.58754 9.90625,6.58398 1.94703,-31.50029 1.94703,-103.31132 12.49609,-103.31445 4.56905,0.003 11.26152,59.62036 11.4336,89.79492 l 0.0195,10.96094 4.54492,-5.02344 c 20.25052,-22.39083 32.44747,-49.9564 32.53516,-73.47851 0.0335,-9.86703 -3.55609,-30.25312 -7.17578,-40.75586 -6.67197,-19.35893 -18.82178,-39.23739 -35.22266,-57.62305 z m 94.58594,18.27343 c -3.09627,0.0279 -16.62496,8.72623 -24.28516,15.61328 -14.17746,12.74656 -19.54816,29.6289 -14.47656,45.51172 2.36009,7.39117 11.96392,23.46357 14.01953,23.46289 2.64147,-11.96929 6.42099,-34.64646 13.22656,-39.40625 4.53302,8.53932 0.75349,27.43696 -2.96289,40.89063 1.94861,0 12.73516,-7.63624 18.62696,-13.1875 9.22458,-8.69125 13.41426,-18.29436 13.46679,-30.92774 0.0489,-10.11439 -0.40321,-11.60238 -8.00781,-26.3457 -4.43293,-8.59415 -8.75725,-15.61889 -9.60742,-15.61133 z m -223.67192,25.48828 c -4.084,-0.26896 -4.9321,2.41515 -7.1367,9.55274 -13.03,42.18663 3.5683,77.20855 42.9883,90.69726 8.8958,3.05039 13.3594,4.02868 13.3594,2.94532 -2.3915,-19.77885 -21.4981,-52.28547 -19.9102,-58.9375 2.1917,-0.90703 21.8796,35.24946 28.00393,51.20507 2.15713,5.62028 6.98153,-11.82993 7.79492,-28.19921 0.64286,-12.92826 0.30521,-15.99114 -2.62109,-23.74805 -6.25036,-16.56813 -25.01186,-31.4491 -50.64066,-40.16602 -5.7716,-1.96309 -9.3874,-3.18823 -11.8379,-3.34961 z m 404.64458,25.32227 c -1.50134,0.0123 -2.99941,0.0551 -4.4961,0.12695 -33.13433,1.01964 -69.91547,13.21036 -94.10156,36.90625 -1.96077,-6.65437 -4.26632,-13.37327 -6.93555,-20.14062 -6.64898,-16.85734 -4.96298,-16.46512 -26.70312,-6.20117 -40.52304,19.13178 -68.00523,50.13823 -77.84961,87.83203 -6.00824,23.00458 -3.42182,53.01176 6.23242,72.28515 4.26266,8.50969 10.75258,18.80952 11.85352,18.8125 0.49942,10e-4 1.36656,-5.0444 1.92578,-11.21289 0.88471,-13.92911 25.83637,-91.04191 37.45117,-86.28711 2.46305,1.49798 -1.31648,5.27751 -4.60742,15.49219 -8.05482,23.96474 -14.49006,70.65581 -12.01368,87.16992 0.55378,3.69298 1.6707,6.71485 2.48243,6.71485 3.55079,0 23.35567,-9.51754 32.61914,-15.67578 11.89644,-7.90874 20.40201,-17.12717 27.46875,-29.76368 1.57104,-2.80922 3.0144,-5.68668 4.35742,-8.61523 0.66753,23.61056 1.57706,47.87468 -3.58594,69.01758 -2.84363,9.49593 -6.62316,9.49593 -18.31445,5.69726 -18.22928,-3.67088 -39.22375,3.95192 -53.26499,18.47411 -14.79917,15.3061 -22.07218,37.93996 -18.19332,49.57653 9.03824,19.93655 -3.77953,18.89763 -9.29365,22.34585 -25.20527,13.0683 -41.86875,39.98795 -45.62109,67.65429 -0.56519,-8.77171 -0.94726,-16.406 -0.94726,-20.68164 0,-20.67216 1.70923,-24.26057 26.85156,-56.35742 33.06062,-42.20538 47.6909,-84.62943 50.92969,-147.68359 l 0.80078,-15.58399 -2.71094,16.32618 c -11.44271,68.9049 -32.68777,110.31479 -69.16406,134.80859 -6.75678,4.53796 -10.43686,5.02666 -11.76563,1.5625 -1.03347,-2.69303 -3.82063,-45.50583 -8.29687,-127.46484 -1.64958,-30.20455 -3.81977,-66.94072 -4.82422,-81.63477 -1.73938,-25.47171 -1.87282,-26.19705 -2.86328,-15.58398 -0.57086,6.12257 -2.7477,42.1907 -4.83789,80.15039 -6.06293,110.10308 -6.79773,122.37642 -9.09961,151.75586 -1.19879,15.3013 -2.94233,29.49305 -3.875,31.53906 -2.32226,5.09662 -7.41986,4.81371 -16.33985,-0.91016 -25.38697,-16.29093 -55.46825,-67.46866 -71.87105,-122.27344 -5.286,-17.66263 -5.864,-17.61795 -3.4903,0.26368 8.807,66.33989 31.7753,118.19627 66.63088,150.4375 8.09035,7.48342 15.59846,15.71037 16.6836,18.28125 4.32094,10.23431 0.81635,57.53848 -6.94336,93.72851 -9.00877,42.01675 -22.20609,70.28301 -42.84372,91.76172 -4.4525,4.63385 -7.9214,8.42578 -7.709,8.42578 0.2121,0 2.325,-0.96688 4.6953,-2.14844 13.31482,-6.63987 37.9644,-8.72454 52.41992,-4.43164 9.53389,2.83132 20.19896,12.11757 24.17578,21.05079 l -0.002,0.002 c 1.54443,3.46949 3.31221,6.30664 3.92578,6.30664 0.6141,0 2.00257,-2.50326 3.08594,-5.56445 4.9282,-13.92186 18.57848,-24.17616 35.01757,-26.30664 9.1702,-1.1884 25.96945,2.10448 37.375,7.32617 4.52459,2.07103 8.32834,3.76562 8.45118,3.76562 0.1234,0 -3.68978,-4.17333 -8.47266,-9.27539 -4.50744,-4.8083 -8.67998,-9.92323 -12.55469,-15.38281 29.27727,-0.25156 58.8372,-13.99871 78.10352,-35.9082 16.43849,30.20994 54.57976,35.05814 85.25195,30.16211 52.88897,0.76944 107.51848,-2.97669 159.30274,0.9082 28.27948,57.61147 104.54187,70.35347 161.10156,52.89847 28.83235,-8.5395 56.33341,-26.21329 70.99804,-53.12699 19.95475,3.56436 40.40744,-5.85822 58.27344,-8.6289 64.05564,33.77017 157.955272,-17.18391 153.521486,-92.53125 -2.026512,-14.79454 -11.382596,-29.40706 -2.095703,-43.5918 6.015346,-26.14207 -0.215427,-54.41088 -15.193363,-76.47656 2.30047,-31.08658 4.95311,-74.59447 -29.14257,-89.88867 -12.41166,-4.68501 -39.15634,2.18703 -32.45899,-20.41016 0.27334,-61.44793 1.44469,-123.17 -1.26953,-184.38477 -3.30325,-24.40116 -34.07138,-30.1837 -51.12695,-15.72461 -14.56665,12.677 -41.4826,7.53891 -47.61328,29.99414 -6.13335,13.80229 2.22793,29.19184 12.88086,36.6211 1.30419,14.93192 -11.20634,-1.83996 -19.27344,1.71289 -18.82531,-0.16233 -35.08198,18.04042 -51.40821,17.23633 -9.0908,-22.53327 -39.97692,-20.89577 -55.38476,-6.20118 -13.19361,5.37564 -29.61424,6.98416 -38.60742,19.41407 -12.14336,-30.78203 -48.94909,-35.23265 -77.4961,-30.05469 -12.9024,1.74309 -30.20142,-2.01185 -40.6582,-5.21484 -14.79791,-45.53403 -63.0056,-73.60401 -109.54687,-73.22266 z m -475.71878,44.16797 c -2.846,0 -9.4807,34.17703 -11.0918,57.14258 -1.918,27.32742 4.5681,62.58283 15.2598,82.9414 9.7369,18.54082 29.7052,36.59214 50.5859,45.73047 3.797,1.66175 12.2467,4.89847 18.7774,7.19336 16.8931,5.93617 16.1446,6.25641 14.9472,-6.36328 0.2205,-31.7849 -31.2662,-76.72099 -25.5918,-85.21484 9.4437,-2.84473 41.1423,49.9064 48.6348,72.22656 l 4.1113,12.61719 6.0098,-12.77735 c 8.39679,-17.85309 10.93351,-29.85494 10.16211,-48.07812 -0.69747,-16.48989 -3.81075,-27.1067 -11.87301,-40.48438 -14.9699,-24.83917 -45.3651,-49.97795 -83.5235,-69.08203 -15.3447,-7.68242 -34.1075,-15.85156 -36.4082,-15.85156 z M -1175.125,574.375 c -0.6905,-0.0291 -1.1382,0.021 -1.2754,0.1582 -0.5489,0.548 -0.9759,8.78851 -0.957,18.3125 0.047,20.767 2.5511,29.52252 11.2734,39.43164 8.007,9.09642 13.0584,12.4835 24.7969,16.62696 v 0.002 c 9.277,3.27398 18.0664,4.60378 18.0664,2.73242 0,-1.98221 -9.5349,-19.77959 -14.9043,-27.82031 -3.2319,-4.83965 -5.875,-9.00043 -5.875,-9.24609 0,-0.75772 23.5002,23.62878 25.7969,26.76953 2.1032,2.87486 2.1886,2.84307 3.1914,-1.15235 1.6932,-6.7466 -0.7057,-19.74383 -5.3692,-29.07617 -8.9887,-17.98794 -23.3507,-29.35927 -43.7714,-34.6582 -4.6413,-1.20461 -8.9012,-1.99277 -10.9727,-2.08008 z m 303.10352,7.58594 -11.79102,11.87304 c -8.32944,8.38799 -13.28518,14.91695 -16.87891,22.23438 -4.71208,9.59448 -5.08789,11.39895 -5.08789,24.48828 0,12.79166 0.44208,15.04632 4.65039,23.7793 l 4.64844,9.64844 3.76758,-8.31055 c 2.07213,-4.57077 5.43199,-13.92135 7.46484,-20.7793 7.2892,-24.59214 8.37803,-24.02106 7.52428,-10.24219 -0.67333,10.87748 -5.86829,29.77911 -8.9774,37.88086 v -0.004 c -0.89382,2.33442 -0.64459,2.33589 3.80078,0.0371 7.29464,-3.77224 16.32689,-12.55889 19.79687,-19.25977 6.9015,-13.32707 4.57152,-41.42275 -5.23828,-63.18164 z m -107.08594,3.71094 c -0.64263,0 -4.54628,6.86161 -8.67383,15.24804 -22.30665,45.32342 -19.03325,74.20904 10.57813,93.34766 4.85389,3.13727 8.98296,5.53442 9.17382,5.32617 0.19174,-0.20795 -0.91221,-5.31349 -2.45312,-11.34766 -3.32168,-12.9922 -5.12346,-40.00709 -3.23438,-48.39843 1.30043,-5.77735 3.04883,-7.0232 3.99197,3.83096 1.07161,12.32134 5.03083,37.00672 9.4553,47.37411 l 2.84961,6.67969 3.19726,-5.19531 c 7.60963,-12.36408 9.77471,-20.68422 9.8125,-37.84766 0.048,-18.57796 -1.68751,-24.6818 -11.69922,-41.16406 -6.09029,-10.02618 -20.80996,-27.85351 -22.99804,-27.85351 z m -151.51168,78.91406 c -2.1292,0.0191 -4.2664,0.0661 -6.4121,0.14062 -12.0859,0.42074 -22.2765,1.06553 -22.6465,1.43555 -0.3696,0.36952 0.9687,7.14149 2.9746,15.04883 4.4138,17.40041 14.4677,38.78745 23.541,50.08008 12.9543,16.12282 39.1213,29.25226 65.5996,32.91406 16.3712,2.26405 58.2653,-0.0276 62.0586,-3.39453 -30.807,-26.22057 -85.7375,-45.9931 -89.2031,-55.72266 6.8072,-3.11399 64.5957,18.53699 89.1132,33.22461 5.5102,3.37746 10.01763,5.78671 10.01763,5.35547 0,-1.93924 -6.95373,-14.31253 -14.25973,-25.37305 -9.5664,-14.48269 -26.5504,-30.78528 -38.9688,-37.4043 -20.057,-10.69001 -49.8771,-16.59098 -81.8144,-16.30468 z"
               transform="matrix(0.26458333,0,0,0.26458333,31.588605,-181.41627)"
               id="path8531-3"
               inkscape:connector-curvature="0" />
          </g>
          <g
             transform="translate(-9.0714289,179.16072)"
             id="text8503-0"
             style="font-style:normal;font-variant:normal;font-weight:bold;font-stretch:normal;font-size:90.28344727px;line-height:1.25;font-family:'Victorian LET';-inkscape-font-specification:'Victorian LET Bold';letter-spacing:0px;word-spacing:0px;fill:#ffffff;fill-opacity:1;stroke:none;stroke-width:0.26458338"
             aria-label="Angie">
            <path
               sodipodi:nodetypes="scsccssscccsccccccccccccccccccccccccccscccssscccsccssccsccccscccscccsccccccssccscsscscccscccsscccccccccccsccscscssscccscsccscscscsccccscccscccscccscccsccscscscsccscscsccccsccscccsccccccccscccc"
               inkscape:connector-curvature="0"
               id="path8531"
               transform="matrix(0.26458333,0,0,0.26458333,9.0714289,-179.16072)"
               d="m -619.30078,512.16602 c -29.10221,0 -54.9279,9.49606 -77.47656,28.49023 -11.88526,10.33017 -17.82813,18.27231 -17.82813,23.82617 0,2.99909 1.16739,4.8316 3.5,5.49805 l 4.83203,1.66601 c 4.22094,1.55509 7.16391,4.05467 8.83008,7.49805 1.66617,3.44338 2.49805,9.38625 2.49805,17.82813 v 91.97265 c 0,9.21937 -0.33145,15.93922 -0.99805,20.16016 -0.8886,4.4431 -2.33266,7.66465 -4.33203,9.66406 -2.22153,2.22149 -5.8885,4.49747 -10.99805,6.83008 -3.99878,1.77725 -5.99804,4.33177 -5.99804,7.66406 0,2.33261 0.722,3.88846 2.16601,4.66602 0.51383,0.31634 1.17557,0.57366 1.9707,0.77734 h -19.80468 c -2.9046,-0.84561 -5.78133,-1.9901 -8.61914,-3.50586 -21.44678,-8.21303 -49.74031,4.62922 -49.17969,29.77149 -1.68828,15.16277 13.76195,24.60361 17.96875,36.17187 0.51655,10.82132 -4.66727,17.85587 -15.22266,14.86719 -36.87379,0.56937 -67.55189,44.24744 -49.45117,77.51562 -43.27786,3.75386 -64.15487,63.73377 -34.33984,94.79883 28.64258,35.56083 88.25078,21.96473 110.64648,-14.09961 6.69793,-5.27431 9.8056,-22.551 16.73438,-21.5039 5.22977,6.6918 21.52168,1.59762 15.85742,12.82422 -5.2334,25.48431 23.87803,45.24272 46.83008,37.14452 22.97692,1.8759 46.99929,0.5243 69.26562,-1.2187 19.26044,5.1249 39.58,0.069 59.2168,1.1894 22.09281,-3.83703 43.76064,4.7693 66.10547,-0.2949 5.39879,8.0437 7.1647,24.5228 17.31054,32.4199 37.48929,36.9721 100.12683,36.1821 144.90625,13.6504 18.87767,-9.4085 32.38577,-28.1744 39.375,-46.668 22.69396,3.1376 53.10481,6.5806 67.95704,-14.99411 40.80744,36.56601 114.8647,17.08741 130.630854,-36.01562 6.606694,-15.95055 2.858768,-36.21964 -7.412109,-47.76758 14.489748,-24.77652 16.247616,-64.03572 -6.000005,-83.72461 v -35.14899 c -0.44358,-20.85428 3.38535,-44.40141 -26.41477,-45.41156 h -25.67116 c 2.55323,-0.77597 3.83398,-2.36729 3.83398,-4.77734 0,-1.99937 -1.77756,-4.10855 -5.33203,-6.33008 -2.11047,-1.33293 -3.83309,-3.05557 -5.16602,-5.16602 -1.22183,-1.88829 -2.05373,-4.10929 -2.49804,-6.66406 -0.44431,-2.33261 -0.66602,-5.94266 -0.66602,-10.83008 V 520.66211 c 0,-4.99846 -1.77756,-7.49805 -5.33203,-7.49805 -1.444,0 -3.3334,1.00063 -5.66601,3 -5.3317,4.10986 -10.55257,7.21963 -15.66211,9.33008 -5.55386,2.33261 -12.44046,4.33188 -20.66016,5.99805 -3.77662,0.66644 -5.66406,2.49895 -5.66406,5.49804 0,1.88829 1.16543,3.44417 3.49804,4.66602 4.66524,2.22153 7.61019,4.55436 8.83204,6.99805 0.99968,2.33265 1.49804,7.44165 1.49804,15.32812 v 135.125 c 0,10.10805 -0.49836,16.93969 -1.49804,20.49414 -1.22185,3.5545 -3.66649,6.44253 -7.33204,8.66406 -2.77692,1.44401 -4.16601,3.33146 -4.16601,5.66407 0,1.88833 0.66707,3.27741 2,4.16601 0.38247,0.2434 0.88144,0.44412 1.4707,0.61133 h -18.64844 c 0.54371,-0.16705 1.00187,-0.36774 1.34961,-0.61133 1.11077,-0.77752 1.66602,-2.10972 1.66602,-3.99804 0,-1.88833 -0.94372,-3.61093 -2.83203,-5.16602 l -3.66602,-2.83203 c -2.77691,-2.33261 -4.60942,-4.94207 -5.49804,-7.83008 -0.88861,-2.99909 -1.33399,-7.83146 -1.33399,-14.49609 v -105.13477 -1.83203 l -0.16601,-1.66602 c 0,-3.77661 -1.77757,-5.66601 -5.33204,-5.66601 -1.44399,0 -3.38833,0.88881 -5.83203,2.66601 -9.66371,7.22004 -20.04854,11.88565 -31.15625,13.9961 -4.22093,0.66648 -6.88727,1.38845 -7.99804,2.16601 -1.22186,0.88861 -1.83203,2.16587 -1.83204,3.83204 0,2.11045 1.38909,3.88806 4.16602,5.33203 3.66554,1.88832 6.10823,4.05435 7.33008,6.49804 0.99969,2.33261 1.5,6.55288 1.5,12.66211 v 39.98828 c 0,7.99752 -0.44537,14.0503 -1.33399,18.16016 -0.99968,4.99846 -3.38744,9.10886 -7.16406,12.33008 -3.77662,3.33233 -7.99687,4.99805 -12.66211,4.99805 -6.7757,0 -11.77486,-3.10977 -14.99609,-9.33008 -1.33293,-2.88798 -1.99805,-8.16381 -1.99805,-15.82813 v -88.30664 c 0,-3.55449 -0.39043,-5.94218 -1.16797,-7.16406 -0.77754,-1.33289 -2.16467,-2 -4.16406,-2 -1.77723,0 -4.27681,1.16739 -7.49805,3.5 -8.44185,6.10923 -18.38328,10.3295 -29.82422,12.66211 l -5.33203,1.16601 c -2.99908,0.66649 -4.49804,2.38913 -4.49804,5.16602 0,1.1108 0.33354,2.1094 1,2.99805 0.77754,0.99968 1.88803,1.88849 3.33203,2.66601 3.66554,1.88833 6.10823,4.16618 7.33008,6.83203 1.11077,2.66586 1.66601,7.55316 1.66601,14.66211 v 59.81446 c 0,8.77508 1.6108,16.49552 4.83203,23.16015 3.22124,6.66463 7.83192,11.60691 13.83008,14.82813 1.13333,0.66289 2.32863,1.24205 3.55664,1.77734 h -45.07812 c 1.96382,-0.75742 2.94923,-2.29097 2.94922,-4.60937 10e-6,-2.22153 -1.88745,-4.49939 -5.66407,-6.83204 -1.66615,-1.11076 -3.05524,-2.33308 -4.16601,-3.66601 -1.22185,-1.44401 -2.16557,-3.27652 -2.83203,-5.49805 -0.66647,-1.66616 -1.2786,-4.27562 -1.83399,-7.83008 l -12.32812,-79.14257 c -2.22156,-14.55111 -6.49869,-25.26946 -12.83008,-32.15625 -6.44248,-6.99784 -15.32836,-10.49805 -26.6582,-10.49805 -2.44369,0 -5.72025,0.27854 -9.83008,0.83398 l -11.66406,1.83203 c -4.22094,0.77753 -8.60793,1.16602 -13.16211,1.16602 -5.77599,0 -12.10739,-1.33219 -18.99415,-3.99805 -2.66585,-1.11076 -4.72005,-1.66601 -6.16406,-1.66601 -2.44369,0 -4.60972,2.11109 -6.49804,6.33203 -1.88829,4.4431 -2.83399,9.16365 -2.83399,14.16211 0,8.44184 2.88804,15.55015 8.66406,21.32617 5.77599,5.77599 12.94119,8.66406 21.49414,8.66406 4.66523,0 8.7187,-0.88877 12.16211,-2.66601 3.55446,-1.66617 5.33203,-3.55358 5.33204,-5.66406 0,-1.22185 -1.05557,-2.49911 -3.16602,-3.83204 -2.66585,-1.66613 -3.99805,-3.66543 -3.99805,-5.99804 0,-2.11045 0.94374,-3.94492 2.83203,-5.5 1.77725,-1.44401 3.94328,-2.16602 6.49805,-2.16602 5.44278,0 9.71995,2.22292 12.83008,6.66602 2.99908,4.33198 5.60852,11.99554 7.83008,22.99218 3.7766,19.21633 5.66601,33.6017 5.66601,43.1543 0,8.77508 -2.05616,15.93832 -6.16601,21.49219 -4.10984,5.66491 -9.38566,8.49805 -15.82813,8.49805 -5.55382,0 -10.16255,-2.05421 -13.82812,-6.16407 -3.66554,-4.22094 -5.49805,-9.55358 -5.49805,-15.99609 0,-5.44278 1.33216,-9.88471 3.99805,-13.32813 2.55473,-3.33229 5.88623,-5 9.99609,-5 4.77634,0 4.55315,2.88808 7.33008,8.66407 4.44065,6.19873 7.43302,0.84 8.16406,-1.49805 1.74068,-15.91885 0.37309,-25.8172 -12.32812,-31.82422 -13.93274,-6.92423 -35.44793,-0.71615 -44.65235,8.49609 -8.77508,9.10833 -13.16211,20.66051 -13.16211,34.65626 0,14.32894 4.66366,26.26966 13.99414,35.82226 4.65846,4.82888 10.03502,8.41625 16.11719,10.77539 H -629.375 c 3.48922,-0.98596 5.24219,-3.29416 5.24219,-6.94141 0,-3.77661 -2.77622,-6.49988 -8.33008,-8.16601 -4.99846,-1.44401 -8.77527,-3.27652 -11.33008,-5.49805 -2.55473,-2.22157 -4.22048,-5.3313 -4.99805,-9.33008 -0.77752,-3.77661 -1.16796,-10.49643 -1.16796,-20.16015 v -77.14258 c 0.30269,-10.63224 0.0438,-21.97338 2.5,-31.82422 2.22153,-8.21972 6.49868,-14.60601 12.83007,-19.16015 6.44247,-4.55418 13.99417,-6.83204 22.65821,-6.83204 5.99814,0 11.83115,1.1105 17.49609,3.33204 5.10954,2.11048 9.66329,5.22021 13.66211,9.33007 3.8877,4.22094 6.88564,9.10825 8.99609,14.66211 2.11049,5.55383 3.16602,11.55363 3.16602,17.9961 0,7.77539 -1.44402,14.82876 -4.33203,21.16015 -2.88798,6.22031 -6.94145,11.10766 -12.16211,14.66211 -5.22059,3.55446 -6.88491,5.33203 -12.99414,5.33203 -6.55355,0 -12.10797,-2.11113 -16.66211,-6.33203 -4.55414,-4.22094 -6.83203,-9.32998 -6.83203,-15.32812 0,-4.77631 1.44405,-8.94164 4.33203,-12.4961 2.77693,-3.44337 6.27711,-5.16601 10.49805,-5.16601 2.11045,0 3.99789,0.66711 5.66406,2 1.66613,1.444 2.5,3.05478 2.5,4.83203 0,1.22184 -0.44534,2.44225 -1.33399,3.66406 l -1.83203,2.33399 c -0.66644,0.77756 -1,1.7762 -1,2.99804 0,1.33293 0.66711,2.61019 2,3.83203 1.22185,1.11077 2.66587,1.66602 4.33203,1.66602 3.55446,0 6.55241,-1.72065 8.9961,-5.16406 2.44369,-3.22122 3.66601,-7.05304 3.66601,-11.4961 0,-6.10923 -2.22096,-11.22025 -6.66406,-15.33008 -10.12864,-7.77153 -23.47149,-7.40306 -33.15625,-1.16601 -10.67894,7.62367 -15.73374,20.18047 -15.83008,31.99023 0,12.2185 4.88735,22.49343 14.66211,30.82422 9.66372,8.33076 21.82805,12.4961 36.49024,12.4961 12.10741,0 19.10243,-3.0548 28.98828,-9.16407 9.88588,-5.99814 17.77309,-14.32878 23.66015,-24.99218 5.77603,-10.44125 8.66407,-21.99348 8.66407,-34.65625 0,-11.88526 -2.27786,-23.04903 -6.83203,-33.49024 -4.44307,-9.99696 -10.82936,-18.82592 -19.16016,-26.49023 -7.88648,-7.33108 -17.66113,-13.10723 -29.32422,-17.32813 -11.32985,-3.99878 -23.65902,-5.99804 -36.98828,-5.99804 z m 190.35742,206.43554 c 0.33324,1.77721 0.83352,5.11067 1.5,9.99805 0.55539,3.99878 1.61094,6.72006 3.16602,8.16406 0.82737,0.88649 1.94649,1.52852 3.33984,1.94336 h -28.82617 c 1.45215,-0.62011 2.84238,-1.32065 4.16015,-2.11133 6.10927,-3.66553 11.66171,-9.66338 16.66016,-17.99414 z m 149.70508,5.49805 c -0.11108,0.99968 -0.16602,2.55556 -0.16602,4.66601 0,3.55446 0.6102,6.2208 1.83203,7.99805 0.65036,0.88683 1.561,1.52856 2.71485,1.94336 h -23.66602 c 7.1939,-2.94625 13.62331,-7.81323 19.28516,-14.60742 z"
               style="fill:#ffffff;fill-opacity:1;stroke-width:1.00000012" />
          </g>
          <g
             transform="translate(-19.130765,1.612964)"
             id="text8511"
             style="font-style:normal;font-variant:normal;font-weight:bold;font-stretch:normal;font-size:90.28344727px;line-height:1.25;font-family:'Victorian LET';-inkscape-font-specification:'Victorian LET Bold';letter-spacing:0px;word-spacing:0px;fill:#000000;fill-opacity:1;stroke:none;stroke-width:0.26458335"
             aria-label="Paul" />
          <g
             id="text8503"
             style="font-style:normal;font-variant:normal;font-weight:bold;font-stretch:normal;font-size:90.28344727px;line-height:1.25;font-family:'Victorian LET';-inkscape-font-specification:'Victorian LET Bold';letter-spacing:0px;word-spacing:0px;fill:#000000;fill-opacity:1;stroke:none;stroke-width:0.26458335"
             aria-label="Angie">
            <path
               inkscape:connector-curvature="0"
               id="path8703"
               style="fill:#000000;fill-opacity:1;stroke-width:0.26458335"
               d="m -188.06003,233.18092 -4.71695,-16.7959 q -0.13225,0.52901 -0.35267,1.3666 l -1.05801,3.83528 -1.05801,3.74711 q -1.19026,4.54063 -1.23435,4.58471 1.71927,2.33644 2.68911,4.14387 1.14618,2.11602 2.24827,5.02554 l 0.35267,-0.70534 q 1.71927,-3.35036 3.12994,-5.20187 z m -10.40375,2.86544 -0.2645,0.88167 q -2.55686,8.06732 -5.55455,13.35737 -3.08586,5.37821 -6.52439,7.89098 -3.48262,2.64503 -7.5824,2.64503 -2.73319,0 -4.93738,-1.14618 -2.07193,-1.05801 -3.39444,-3.21811 -1.23435,-2.02785 -1.23435,-4.62879 0,-3.5267 2.24827,-6.08356 2.24827,-2.51277 5.33413,-2.51277 1.76335,0 2.11602,1.01393 l 0.30859,0.92576 q 0.61717,1.85151 2.73319,1.85151 2.1601,0 4.0557,-1.71926 1.93968,-1.67518 3.7912,-5.24596 1.80743,-3.57079 3.65895,-8.949 -1.71927,-0.79351 -3.04178,-0.79351 -1.23434,0 -2.11602,0.74943 -0.83759,0.70534 -0.83759,1.8956 0,0.30858 0.35267,1.49884 0.13225,0.39676 0.13225,0.61718 0,0.57308 -0.74942,0.96984 -0.70534,0.44083 -1.71927,0.44083 -2.02785,0 -3.43853,-1.67518 -1.41068,-1.67518 -1.41068,-4.01161 0,-3.2622 2.46869,-5.59864 2.42461,-2.29235 5.9513,-2.29235 3.08586,0 6.52439,2.11602 l 0.26451,-0.79351 q 1.93968,-6.34805 2.73319,-9.43391 0.57308,-2.1601 0.57308,-3.83529 0,-1.76334 -0.66125,-2.99769 -0.74942,-1.32251 -2.46869,-2.64502 -1.76335,-1.3666 -1.76335,-2.42461 0,-0.96984 0.66126,-1.54293 0.70534,-0.61717 1.67518,-0.61717 0.92576,0 1.85152,0.30859 l 2.6891,0.88167 q 3.12995,1.05801 6.30397,1.05801 2.86544,0 6.61256,-1.32251 2.86544,-0.92576 3.83528,-0.92576 0.96984,0 1.6311,0.52901 0.61717,0.61717 0.61717,1.49884 0,1.1021 -1.71926,2.51277 -1.6311,1.3666 -2.29236,2.51278 -0.66125,1.19026 -0.66125,2.6891 0,1.45477 0.79351,4.36429 l 8.94899,31.56394 q 0.66126,2.24827 1.14618,3.35036 0.529,1.41068 1.23434,2.42461 0.70534,1.05801 1.6311,1.76335 0.7935,0.66125 2.29235,1.45476 1.58701,0.79351 1.58701,1.85151 0,1.80744 -2.38052,1.8956 l -0.7935,0.0441 h -16.83998 q -1.23435,0 -1.85152,-0.39676 -0.57309,-0.39675 -0.57309,-1.32251 0,-0.70534 0.35267,-1.19026 0.26451,-0.35267 1.54293,-0.96984 1.80744,-0.92576 1.80744,-2.60094 0,-1.23434 -0.39676,-2.46869 l -3.04177,-10.88867 q -1.19026,1.71926 -2.42461,4.40837 l -0.83759,1.80743 q -0.88167,1.93968 -2.51277,1.93968 -0.92576,0 -1.45476,-0.529 -0.52901,-0.39675 -1.01393,-1.85152 -1.49884,-5.29004 -3.96753,-9.08124 z" />
            <path
               inkscape:connector-curvature="0"
               id="path8705"
               style="fill:#000000;fill-opacity:1;stroke-width:0.26458335"
               d="m -147.63526,221.67507 v 2.38052 q 2.33644,-2.46869 4.62879,-3.65895 2.33644,-1.19026 5.06963,-1.19026 3.48261,0 6.17172,1.71926 2.73319,1.80744 3.7912,4.62879 0.74942,2.16011 0.74942,6.7889 v 17.01631 q 0,2.99769 0.44084,4.3202 0.48492,1.41068 1.58701,2.20419 l 0.88168,0.57309 q 0.74942,0.48492 0.74942,1.27843 0,1.45476 -2.24827,1.45476 h -12.74019 q -1.41068,0 -1.85152,-0.30859 -0.529,-0.35267 -0.529,-1.10209 0,-0.83759 0.70534,-1.27843 l 0.66125,-0.44084 q 1.32251,-0.92575 1.71927,-2.1601 0.39675,-1.27843 0.39675,-4.36429 v -0.83759 -14.45945 q 0,-2.77728 -0.48492,-4.09979 -0.44084,-1.3666 -1.58701,-2.1601 -1.1021,-0.79351 -2.60094,-0.79351 -1.54293,0 -2.82136,0.92576 -1.32251,1.05801 -2.02785,2.64502 -0.66126,1.49885 -0.66126,4.49654 v 14.85621 q 0,2.1601 0.17634,3.08586 0.22042,1.1021 0.74942,1.71927 0.48492,0.66125 1.76335,1.54293 0.92576,0.57309 0.92576,1.36659 0,1.3666 -2.20419,1.3666 h -12.82836 q -1.45476,0 -1.8956,-0.30859 -0.529,-0.35267 -0.529,-1.10209 0,-0.52901 0.22041,-0.83759 0.35267,-0.35267 1.14618,-0.88168 1.32251,-0.92575 1.76335,-2.1601 0.39675,-1.19026 0.39675,-4.36429 v -0.83759 -15.51746 q 0,-3.04178 -0.44083,-4.05571 -0.44084,-1.058 -1.98377,-1.85151 -1.19026,-0.66126 -1.19026,-1.3666 0,-1.10209 1.36659,-1.41068 l 2.46869,-0.57308 q 3.5267,-0.70534 7.09748,-3.48262 0.88167,-0.70534 1.49885,-0.70534 1.49884,0 1.49884,1.93969 z" />
            <path
               inkscape:connector-curvature="0"
               id="path8707"
               style="fill:#000000;fill-opacity:1;stroke-width:0.26458335"
               d="m -92.133862,247.68446 -9.257578,3.48261 q 1.939682,-0.13225 2.86544,-0.13225 3.747115,0 6.788892,0.79351 2.997692,0.88167 5.113711,2.24827 2.116018,1.49884 3.262194,3.48261 1.146177,2.07193 1.146177,4.58471 0,2.77727 -1.587014,5.15779 -1.675181,2.42461 -4.672873,4.18795 -3.041777,1.85152 -6.87706,2.77728 -3.747116,0.96984 -8.419987,0.96984 -5.02555,0 -9.25758,-1.45476 -4.18796,-1.45477 -6.61256,-3.92345 -2.4246,-2.42461 -2.4246,-5.46638 0,-3.39445 2.82135,-5.6868 2.77728,-2.24827 6.96523,-2.24827 4.98146,0 8.06732,3.30628 1.01393,1.01392 1.58701,2.11601 0.57309,1.1021 0.57309,1.98377 0,0.48492 -0.35267,0.92576 -0.39675,0.44084 -0.83759,0.44084 -0.39675,0 -1.14617,-0.74943 -0.66126,-0.70534 -2.16011,-1.36659 -1.45476,-0.52901 -2.82135,-0.52901 -1.49885,0 -2.55686,0.79351 -1.05801,0.79351 -1.05801,1.98377 0,2.02785 2.51277,3.48261 2.51277,1.45476 6.17172,1.45476 4.408374,0 7.273816,-2.07193 2.821358,-2.02785 2.821358,-5.29005 0,-2.51277 -1.631098,-4.45245 -1.631097,-1.93969 -4.628786,-3.04178 -3.04178,-1.05801 -6.87706,-1.05801 -3.43853,0 -6.17172,0.52901 -1.23435,0.2645 -1.45477,0.2645 -1.49884,0 -1.49884,-1.32251 0,-1.01393 1.54293,-1.54293 l 0.57309,-0.22042 9.12533,-3.43853 q -15.07664,-3.2622 -15.07664,-15.20888 0,-11.24135 13.40145,-14.19496 2.95361,-0.66125 3.87937,-1.01392 0.66126,-0.17634 1.49885,-0.88168 1.23434,-0.96984 1.23434,-2.07193 0,-0.39676 -0.22042,-0.83759 -0.22042,-0.39676 -0.529,-0.57309 -0.30859,-0.17634 -0.79351,-0.17634 -0.79351,0 -1.76335,0.83759 -0.39675,0.39676 -0.88167,0.39676 -1.41068,0 -1.41068,-2.51277 0,-2.60094 1.85152,-4.32021 1.8956,-1.67518 4.672869,-1.67518 1.851516,0 3.262195,0.74942 1.366595,0.70534 2.248269,2.07194 0.837591,1.36659 0.837591,2.95361 0,1.80743 -1.013926,3.43853 -1.013925,1.6311 -3.703032,3.7912 3.923451,0.61717 6.832976,2.29235 2.953609,1.76335 4.540623,4.36429 1.587014,2.64502 1.587014,5.99538 0,4.8933 -3.526698,8.19957 -3.57078,3.30628 -8.860826,3.30628 -5.334125,0 -8.023235,-3.48261 -1.67518,-2.20419 -1.67518,-3.83528 0,-0.39676 0.30858,-0.70534 0.35267,-0.35267 0.66126,-0.35267 0.44084,0 1.10209,0.66125 1.93969,1.93969 3.83529,1.93969 1.542925,0 2.777269,-0.92576 1.146177,-0.83759 1.8956,-2.51277 0.661256,-1.67518 0.661256,-3.57078 0,-3.30628 -1.719265,-5.29005 -1.719265,-1.98377 -4.62879,-1.98377 -3.39445,0 -5.73088,2.77728 -2.33644,2.82135 -2.33644,6.83297 0,3.30628 1.71927,6.17172 1.63109,2.86544 4.5847,4.54062 2.86544,1.67519 6.171721,1.67519 2.292353,0 4.364288,-0.44084 0.529005,-0.13225 0.969842,-0.13225 0.617172,0 0.969842,0.35267 0.352669,0.35267 0.352669,0.96984 0,0.96984 -1.234344,1.41068 z" />
            <path
               inkscape:connector-curvature="0"
               id="path8709"
               style="fill:#000000;fill-opacity:1;stroke-width:0.26458335"
               d="m -65.639549,259.19031 h -12.872445 q -1.410679,0 -1.851516,-0.30859 -0.529005,-0.35267 -0.529005,-1.10209 0,-0.88168 0.70534,-1.27843 l 0.617172,-0.44084 q 1.278428,-0.83759 1.763348,-2.11601 0.396754,-1.27843 0.396754,-4.40838 v -0.96984 -15.56155 q 0,-2.20418 -0.176335,-3.12994 -0.220419,-1.1021 -0.661256,-1.67518 -0.529004,-0.57309 -1.763348,-1.23435 -0.969842,-0.44083 -0.969842,-1.23434 0,-1.10209 1.322511,-1.3666 3.394446,-0.66125 5.33413,-1.49884 1.719265,-0.74943 4.27612,-2.55686 1.013926,-0.70534 1.587014,-0.70534 1.410679,0 1.410679,1.93969 v 28.56624 q 0,1.93969 0.176335,2.86544 0.176334,1.01393 0.661255,1.76335 0.529005,0.83759 1.366595,1.3666 1.410679,0.92576 1.410679,1.67518 0,1.41068 -2.204185,1.41068 z m -0.793507,-47.39 q 0,2.24827 -1.587014,3.83529 -1.587014,1.58701 -3.835283,1.58701 -2.160102,0 -3.835283,-1.58701 -1.631098,-1.58702 -1.631098,-3.83529 0,-2.24826 1.631098,-3.83528 1.675181,-1.58701 3.835283,-1.58701 2.248269,0 3.835283,1.58701 1.587014,1.58702 1.587014,3.83528 z" />
            <path
               inkscape:connector-curvature="0"
               id="path8711"
               style="fill:#000000;fill-opacity:1;stroke-width:0.26458335"
               d="m -51.224182,232.29924 q 1.807432,-2.38052 4.320204,-2.38052 0.969842,0 1.939684,0.39675 1.013925,0.48493 1.587013,1.1021 0.617172,0.74942 0.617172,1.36659 0,0.57309 -0.352669,1.01393 -0.396754,0.44084 -0.881675,0.44084 -0.176335,0 -0.925758,-0.39676 -0.617172,-0.44084 -1.234344,-0.44084 -0.925758,0 -1.498846,0.70534 -0.617172,0.74943 -0.617172,1.6311 0,1.3666 1.058009,2.29235 1.058009,0.92576 2.645023,0.92576 2.645023,0 4.496539,-2.38052 1.807432,-2.33643 1.807432,-5.77496 0,-2.77728 -1.631097,-4.54063 -1.631098,-1.76335 -4.143869,-1.76335 -2.645023,0 -4.584707,2.07194 -1.939683,2.07193 -2.600939,5.73088 z m 0.08817,8.02324 q 0.749423,3.48261 1.983767,5.51046 1.366595,2.1601 3.747115,3.5267 2.292354,1.36659 4.761042,1.36659 5.069627,0 9.522082,-5.37821 0.661256,-0.74942 1.146176,-0.74942 0.573089,0 0.925758,0.48492 0.35267,0.48492 0.35267,1.23434 0,2.82136 -2.336437,6.61256 -2.071934,3.30628 -5.378213,5.11371 -3.394446,1.80743 -7.406064,1.80743 -4.62879,0 -8.375906,-2.46868 -3.703032,-2.46869 -5.774966,-6.96523 -2.116019,-4.49654 -2.116019,-10.09517 0,-5.77497 2.204186,-10.66826 2.204186,-4.89329 5.995385,-7.62648 3.835284,-2.77728 8.375906,-2.77728 2.424604,0 4.408372,0.79351 l 2.02785,0.79351 q 0.925758,0.44083 2.292354,0.44083 0.617172,0 1.410678,-0.13225 0.220419,-0.0441 0.925758,-0.0441 1.54293,0 2.556856,2.07193 0.969842,2.07194 0.969842,5.51047 0,3.96753 -1.983768,7.49423 -2.02785,3.5267 -5.290045,5.73088 -3.350363,2.20419 -7.053395,2.20419 -4.62879,0 -7.890984,-3.7912 z" />
          </g>
        </g>
      </g>
    </g>
  </g>
</svg>
