<?xml version="1.0" encoding="UTF-8" standalone="no"?>
<svg
   xmlns:dc="http://purl.org/dc/elements/1.1/"
   xmlns:cc="http://creativecommons.org/ns#"
   xmlns:rdf="http://www.w3.org/1999/02/22-rdf-syntax-ns#"
   xmlns:svg="http://www.w3.org/2000/svg"
   xmlns="http://www.w3.org/2000/svg"
   xmlns:sodipodi="http://sodipodi.sourceforge.net/DTD/sodipodi-0.dtd"
   xmlns:inkscape="http://www.inkscape.org/namespaces/inkscape"
   sodipodi:docname="HeimathafenEO21.svg"
   inkscape:version="1.0 (4035a4fb49, 2020-05-01)"
   id="svg24306"
   version="1.1"
   viewBox="0 0 300 380"
   height="380mm"
   width="300mm">
  <defs
     id="defs24300" />
  <sodipodi:namedview
     inkscape:window-maximized="0"
     inkscape:window-y="0"
     inkscape:window-x="3179"
     inkscape:window-height="1368"
     inkscape:window-width="1256"
     showgrid="true"
     inkscape:document-rotation="0"
     inkscape:current-layer="layer1"
     inkscape:document-units="mm"
     inkscape:cy="1269.813"
     inkscape:cx="561.16626"
     inkscape:zoom="0.49497475"
     inkscape:pageshadow="2"
     inkscape:pageopacity="0.0"
     borderopacity="1.0"
     bordercolor="#666666"
     pagecolor="#ffffff"
     id="base">
    <inkscape:grid
       id="grid24909"
       type="xygrid" />
  </sodipodi:namedview>
  <metadata
     id="metadata24303">
    <rdf:RDF>
      <cc:Work
         rdf:about="">
        <dc:format>image/svg+xml</dc:format>
        <dc:type
           rdf:resource="http://purl.org/dc/dcmitype/StillImage" />
        <dc:title></dc:title>
      </cc:Work>
    </rdf:RDF>
  </metadata>
  <g
     id="layer1"
     inkscape:groupmode="layer"
     inkscape:label="Ebene 1">
    <g
       id="g24272"
       transform="translate(-1024.7781,-1028.2221)">
      <path
         d="m 1054.7781,1228.2221 h 238.9999 c 11.0801,0 20.0001,8.92 20.0001,20 v 134 c 0,11.08 -8.92,20 -20.0001,20 h -238.9999 c -11.08,0 -20,-8.92 -20,-20 v -134 c 0,-11.08 8.92,-20 20,-20 z"
         style="fill:#d8dcdd;fill-opacity:1;stroke:#000000;stroke-width:0.537001;stroke-miterlimit:4;stroke-dasharray:none;stroke-opacity:1"
         id="rect2020-3-1-6-9-36-5-0-3-6" />
      <path
         d="m 1054.2781,1245.222 a 2.5,2.5 0 0 1 -2.5,2.5 2.5,2.5 0 0 1 -2.5,-2.5 2.5,2.5 0 0 1 2.5,-2.5 2.5,2.5 0 0 1 2.5,2.5"
         style="fill:#000000;fill-opacity:1;stroke:none;stroke-width:1.5;stroke-miterlimit:4;stroke-dasharray:none;stroke-opacity:1"
         id="path38845-5-6-1-0-3-5-7-0-4-7" />
      <path
         d="m 1054.2781,1385.222 a 2.5,2.5 0 0 1 -2.5,2.5 2.5,2.5 0 0 1 -2.5,-2.5 2.5,2.5 0 0 1 2.5,-2.5 2.5,2.5 0 0 1 2.5,2.5"
         style="fill:#000000;fill-opacity:1;stroke:none;stroke-width:1.5;stroke-miterlimit:4;stroke-dasharray:none;stroke-opacity:1"
         id="path38847-0-5-73-7-0-4-2-8-3-8" />
      <path
         d="m 1299.2781,1385.222 a 2.5,2.5 0 0 1 -2.5,2.5 2.5,2.5 0 0 1 -2.5,-2.5 2.5,2.5 0 0 1 2.5,-2.5 2.5,2.5 0 0 1 2.5,2.5"
         style="fill:#000000;fill-opacity:1;stroke:none;stroke-width:1.5;stroke-miterlimit:4;stroke-dasharray:none;stroke-opacity:1"
         id="path38849-7-1-4-6-4-2-5-1-4-2" />
      <path
         d="m 1299.2781,1245.222 a 2.5,2.5 0 0 1 -2.5,2.5 2.5,2.5 0 0 1 -2.5,-2.5 2.5,2.5 0 0 1 2.5,-2.5 2.5,2.5 0 0 1 2.5,2.5"
         style="fill:#000000;fill-opacity:1;stroke:none;stroke-width:1.5;stroke-miterlimit:4;stroke-dasharray:none;stroke-opacity:1"
         id="path38851-7-3-3-4-6-0-8-6-0-0" />
      <g
         style="font-style:normal;font-variant:normal;font-weight:normal;font-stretch:normal;font-size:51.8422px;line-height:1;font-family:TESLA;-inkscape-font-specification:TESLA;text-align:center;text-anchor:middle;fill:#000000;fill-opacity:1;stroke-width:1.29606"
         id="text38386-4-63-7-8-3-4-6-1-0"
         aria-label="PLÖ-EO 21E">
        <path
           id="path24915"
           style="font-style:normal;font-variant:normal;font-weight:normal;font-stretch:normal;font-size:36.9689px;font-family:'Gotham Black';-inkscape-font-specification:'Gotham Black, ';text-align:center;text-anchor:middle;fill:#000000;fill-opacity:1;stroke-width:1.29606"
           d="m 1065.0387,1369.7648 h 7.172 v -7.3938 h 3.549 c 6.4326,0 11.1276,-3.2163 11.1276,-9.3162 v -0.074 c 0,-5.7302 -4.2144,-9.0944 -10.7579,-9.0944 h -11.0907 z m 7.172,-13.0131 v -6.8392 h 3.3642 c 2.5878,0 4.1405,1.183 4.1405,3.4011 v 0.074 c 0,2.0333 -1.5527,3.3642 -4.1036,3.3642 z" />
        <path
           id="path24917"
           style="font-style:normal;font-variant:normal;font-weight:normal;font-stretch:normal;font-size:36.9689px;font-family:'Gotham Black';-inkscape-font-specification:'Gotham Black, ';text-align:center;text-anchor:middle;fill:#000000;fill-opacity:1;stroke-width:1.29606"
           d="m 1089.9494,1369.7648 h 19.7044 v -6.2847 h -12.5324 v -19.5936 h -7.172 z" />
        <path
           id="path24919"
           style="font-style:normal;font-variant:normal;font-weight:normal;font-stretch:normal;font-size:36.9689px;font-family:'Gotham Black';-inkscape-font-specification:'Gotham Black, ';text-align:center;text-anchor:middle;fill:#000000;fill-opacity:1;stroke-width:1.29606"
           d="m 1125.707,1370.2823 c 7.9853,0 13.9742,-6.0259 13.9742,-13.4566 v -0.074 c 0,-7.4307 -5.915,-13.3827 -13.9003,-13.3827 -7.9852,0 -13.9742,6.0259 -13.9742,13.4567 v 0.074 c 0,7.4307 5.915,13.3827 13.9003,13.3827 z m 0.074,-6.4695 c -3.9187,0 -6.6174,-3.2533 -6.6174,-6.9871 v -0.074 c 0,-3.7338 2.6248,-6.9132 6.5435,-6.9132 3.9557,0 6.6544,3.2533 6.6544,6.9872 v 0.074 c 0,3.7339 -2.6248,6.9132 -6.5805,6.9132 z m 0.9982,-21.6638 h 6.0999 v -5.2865 h -6.0999 z m -8.0962,0 h 6.0999 v -5.2865 h -6.0999 z" />
        <path
           id="path24921"
           style="font-style:normal;font-variant:normal;font-weight:normal;font-stretch:normal;font-size:36.9689px;font-family:'Gotham Black';-inkscape-font-specification:'Gotham Black, ';text-align:center;text-anchor:middle;fill:#000000;fill-opacity:1;stroke-width:1.29606"
           d="m 1142.5677,1361.2989 h 12.1258 v -6.1738 h -12.1258 z" />
        <path
           id="path24923"
           style="font-style:normal;font-variant:normal;font-weight:normal;font-stretch:normal;font-size:36.9689px;font-family:'Gotham Black';-inkscape-font-specification:'Gotham Black, ';text-align:center;text-anchor:middle;fill:#000000;fill-opacity:1;stroke-width:1.29606"
           d="m 1158.4718,1369.7648 h 20.9984 v -6.0999 h -13.9003 v -4.1035 h 12.4215 v -5.6563 h -12.4215 v -3.9187 h 13.7154 v -6.0999 h -20.8135 z" />
        <path
           id="path24925"
           style="font-style:normal;font-variant:normal;font-weight:normal;font-stretch:normal;font-size:36.9689px;font-family:'Gotham Black';-inkscape-font-specification:'Gotham Black, ';text-align:center;text-anchor:middle;fill:#000000;fill-opacity:1;stroke-width:1.29606"
           d="m 1195.9623,1370.2823 c 7.9853,0 13.9743,-6.0259 13.9743,-13.4566 v -0.074 c 0,-7.4307 -5.915,-13.3827 -13.9003,-13.3827 -7.9853,0 -13.9743,6.0259 -13.9743,13.4567 v 0.074 c 0,7.4307 5.9151,13.3827 13.9003,13.3827 z m 0.074,-6.4695 c -3.9187,0 -6.6174,-3.2533 -6.6174,-6.9871 v -0.074 c 0,-3.7338 2.6247,-6.9132 6.5434,-6.9132 3.9557,0 6.6544,3.2533 6.6544,6.9872 v 0.074 c 0,3.7339 -2.6247,6.9132 -6.5804,6.9132 z" />
        <path
           id="path24927"
           style="font-style:normal;font-variant:normal;font-weight:normal;font-stretch:normal;font-size:36.9689px;font-family:'Gotham Black';-inkscape-font-specification:'Gotham Black, ';text-align:center;text-anchor:middle;fill:#000000;fill-opacity:1;stroke-width:1.29606"
           d="m 1222.8174,1369.7648 h 20.4807 v -5.8411 h -10.684 l 4.4363,-3.1054 c 3.8448,-2.7727 5.989,-4.9169 5.989,-9.0574 v -0.074 c 0,-4.8799 -3.8818,-8.2441 -9.538,-8.2441 -5.0278,0 -7.7635,1.9594 -10.5362,5.5453 l 4.843,4.0297 c 2.0333,-2.3291 3.4011,-3.3272 5.1386,-3.3272 1.7376,0 2.8836,0.9981 2.8836,2.6248 0,1.5526 -0.9242,2.7726 -3.3272,4.658 l -9.6858,7.3938 z" />
        <path
           id="path24929"
           style="font-style:normal;font-variant:normal;font-weight:normal;font-stretch:normal;font-size:36.9689px;font-family:'Gotham Black';-inkscape-font-specification:'Gotham Black, ';text-align:center;text-anchor:middle;fill:#000000;fill-opacity:1;stroke-width:1.29606"
           d="m 1250.6567,1369.7648 h 7.061 v -26.0631 h -5.2126 l -7.5786,2.1442 1.3678,5.5453 4.3624,-0.9981 z" />
        <path
           id="path24931"
           style="font-style:normal;font-variant:normal;font-weight:normal;font-stretch:normal;font-size:36.9689px;font-family:'Gotham Black';-inkscape-font-specification:'Gotham Black, ';text-align:center;text-anchor:middle;fill:#000000;fill-opacity:1;stroke-width:1.29606"
           d="m 1262.5191,1369.7648 h 20.9983 v -6.0999 h -13.9003 v -4.1035 h 12.4216 v -5.6563 h -12.4216 v -3.9187 h 13.7155 v -6.0999 h -20.8135 z" />
      </g>
      <g
         id="g24253">
        <g
           id="g24223"
           transform="matrix(0.95076809,0,0,0.95076809,-161.45415,202.30075)">
          <path
             sodipodi:nodetypes="cccssssssccccssccscsccsscscsssccssscsssccsscscsccsscssssscsscsscccccsscssssccscccscssssssssc"
             id="path24190"
             d="m 1401.7751,1186.2139 c -0.087,-0.056 -0.5824,-0.559 -1.1006,-1.1157 -6.8201,-6.1342 -24.7004,-8.2378 -26.5943,-20.806 -0.4262,-1.4438 -0.6456,-1.6508 -2.2555,-2.1291 -1.575,-0.4677 -1.6442,-0.5409 -1.6326,-1.7247 0.023,-2.3828 1.7192,-6.5472 2.782,-6.8315 0.7983,-0.2137 2.9292,1.3962 4.4911,3.3929 0.5552,0.7097 1.143,1.7697 1.1424,2.06 -5e-4,0.2336 -0.2671,0.6482 -0.8868,1.3791 -1.2418,1.4645 -1.2634,1.6815 -0.361,3.6294 2.8128,8.564 20.8198,7.363 21.7535,2.2743 0.074,-0.9346 0.3355,-43.0694 0.3257,-45.0242 v -0.6094 h -0.2549 c -0.3851,0 -0.9856,-0.3405 -1.2657,-0.7177 l -0.2498,-0.3364 -1.295,-0.1066 c -0.7122,-0.059 -2.4181,-0.1864 -3.7909,-0.2843 l -2.496,-0.178 -0.3875,0.4071 c -0.5057,0.5312 -1.0805,0.7642 -1.8816,0.763 -1.4161,0 -2.48,-1.0834 -2.5835,-2.6261 -0.095,-1.4093 0.7082,-2.5757 2.0192,-2.9339 0.8947,-0.2444 1.8629,0.05 2.5126,0.7638 l 0.3336,0.3665 2.4049,-0.1709 c 1.3227,-0.094 2.8431,-0.1964 3.3786,-0.2276 1.5853,-0.093 1.9042,-0.1677 2.1917,-0.517 0.2885,-0.3503 0.8775,-0.6876 1.2542,-0.7182 0.2301,-0.019 0.2692,-0.062 0.3126,-0.3414 0.027,-0.176 0.05,-0.834 0.051,-1.462 l 9e-4,-1.1421 -0.2937,-0.3132 c -0.174,-0.1855 -0.3348,-0.477 -0.3946,-0.7156 -0.09,-0.3595 -0.1516,-0.4307 -0.5742,-0.666 -0.2602,-0.1448 -0.7645,-0.4969 -1.1205,-0.7826 -1.5135,-1.2139 -2.5154,-2.819 -3.0013,-4.8088 -0.2835,-1.1609 -0.3198,-1.7449 -0.085,-2.8584 0.7056,-3.3457 3.1423,-5.9514 6.2722,-6.7072 0.8273,-0.1998 2.7727,-0.1959 3.5351,0.011 0.9666,0.2573 1.8946,0.6866 2.6684,1.2342 4.2635,3.0178 4.9779,8.0853 1.5295,12.1191 -0.5152,0.6025 -1.5016,1.4104 -2.1937,1.7964 -0.4222,0.2355 -0.4838,0.307 -0.5739,0.6664 -0.061,0.2418 -0.2213,0.5306 -0.4023,0.7237 l -0.3012,0.3212 0.047,1.1791 c 0.026,0.6485 0.048,1.3111 0.05,1.4725 0,0.243 0.035,0.2935 0.1932,0.2943 0.3055,0 1.0833,0.4296 1.3707,0.7545 0.3044,0.3442 -0.2201,0.2752 4.8648,0.6418 l 3.0816,0.2222 0.3342,-0.3672 c 0.6528,-0.7172 1.6179,-1.0091 2.5213,-0.7622 0.9091,0.2483 1.7124,1.0469 1.9428,1.9315 0.3514,1.3492 -0.2784,2.8193 -1.4589,3.4053 -0.9378,0.4656 -2.2002,0.2327 -2.9378,-0.5421 l -0.3876,-0.4071 -2.496,0.1781 c -1.3727,0.098 -3.0819,0.2261 -3.7981,0.2848 l -1.3021,0.1067 -0.2553,0.2992 c -0.2926,0.343 -1.0117,0.7537 -1.3194,0.7537 H 1405 l 0.056,2.776 c 0.1238,6.078 0.5599,41.4192 0.601,42.9034 0.8187,5.2096 18.699,6.2614 22.0223,-3.6888 0.2172,-0.7081 0.01,-1.174 -1.1189,-2.4785 -0.635,-0.7358 -0.7492,-0.9953 -0.628,-1.4267 0.2534,-0.9019 2.0788,-3.1532 3.3937,-4.1856 0.6482,-0.5089 1.6418,-1.0399 1.9449,-1.0395 0.6876,0 1.5519,1.3019 2.2982,3.4589 0.5889,1.7021 0.9049,3.7947 0.6497,4.3029 -0.1591,0.3168 -0.6601,0.5891 -1.4936,0.8121 -0.8696,0.2326 -1.5071,0.5425 -1.8106,0.8803 -0.157,0.1747 -0.3459,0.6502 -0.6199,1.5599 -2.6302,12.8298 -19.8606,13.8545 -26.8644,20.8959 -0.6337,0.737 -0.6748,0.7676 -1.0764,0.8022 -0.2297,0.02 -0.4889,-0.011 -0.5761,-0.067 z m -0.8989,-80.3563 c 0.1812,-0.1003 0.5368,-0.1348 1.3707,-0.1346 0.977,3e-4 1.1628,0.024 1.404,0.1812 0.1529,0.099 0.2994,0.2401 0.3256,0.3127 0.1358,0.3772 1.6816,-0.9348 2.189,-1.858 0.6157,-1.1201 0.8218,-1.602 0.5014,-2.7654 -0.5827,-2.1153 -2.3738,-3.5473 -4.437,-3.5473 -1.9193,0 -3.6358,1.2616 -4.3271,3.1803 -0.2587,0.7181 -0.3202,1.1042 -0.1209,1.8352 0.3431,1.2585 1.1019,2.3342 2.0822,2.9518 0.5204,0.3277 0.5359,0.3315 0.6503,0.1574 0.064,-0.098 0.2272,-0.2391 0.3618,-0.3133 z"
             style="fill:#c20000;fill-opacity:1;stroke-width:0.0874277" />
          <g
             style="font-style:normal;font-variant:normal;font-weight:normal;font-stretch:normal;font-size:67.654px;line-height:1;font-family:'Bernard MT Condensed';-inkscape-font-specification:'Bernard MT Condensed, ';text-align:center;text-anchor:middle;fill:#000000;fill-opacity:1;stroke-width:1.69135"
             id="text38386-4-63-7-8-3-4-6-1-0-9-5"
             transform="scale(1.0697563,0.93479234)"
             aria-label="HEIMA">
            <path
               id="path24934"
               style="font-style:normal;font-variant:normal;font-weight:normal;font-stretch:normal;font-size:48.2444px;font-family:'Bernard MT Condensed';-inkscape-font-specification:'Bernard MT Condensed, ';text-align:center;text-anchor:middle;fill:#000000;fill-opacity:1;stroke-width:1.69135"
               d="m 1198.6949,1209.0557 h 3.7691 v -11.849 q 0,-0.5654 -0.1178,-0.7539 -0.094,-0.1884 -0.5654,-0.4711 -0.5182,-0.2827 -0.5182,-1.3192 0,-1.3192 0.1178,-1.6018 0.1177,-0.3063 0.6595,-0.3063 h 10.2237 q 0.6832,0 0.8245,0.2591 0.1413,0.2356 0.1413,1.6019 0,0.8245 -0.1649,0.9894 -0.1413,0.1413 -0.9422,0.5418 -0.8716,0.4711 -0.8716,1.4605 v 28.1976 q 0,1.1071 1.0129,1.7667 0.8245,0.5183 0.8245,0.9423 v 1.4841 q 0,0.4711 -0.1413,0.636 -0.1414,0.1413 -0.8245,0.1413 h -10.2708 q -0.5183,0 -0.636,-0.1884 -0.1178,-0.1885 -0.1178,-1.7432 0,-0.7774 0.636,-1.225 0.7303,-0.5182 0.7303,-1.2014 v -14.6994 h -3.7691 v 14.8408 q 0,0.7538 0.6125,1.2014 0.6124,0.4947 0.6124,1.3898 0,1.2485 -0.1413,1.437 -0.1414,0.1884 -0.5654,0.1884 h -10.3414 q -0.4947,0 -0.6125,-0.212 -0.1178,-0.212 -0.1178,-1.6725 0,-0.6831 0.1178,-0.8952 0.1178,-0.212 0.6596,-0.5182 0.9894,-0.5183 0.9894,-1.3899 v -28.4802 q 0,-0.6831 -0.8716,-1.2956 -0.8716,-0.636 -0.8716,-1.8139 0,-1.2485 0.1884,-1.4841 0.212,-0.2591 0.8952,-0.2591 h 9.6583 q 0.636,0 0.8716,0.2356 0.2356,0.212 0.2356,1.0365 v 1.1072 q -0.047,0.424 -0.589,0.7538 -0.7302,0.4004 -0.7302,1.3192 z" />
            <path
               id="path24936"
               style="font-style:normal;font-variant:normal;font-weight:normal;font-stretch:normal;font-size:48.2444px;font-family:'Bernard MT Condensed';-inkscape-font-specification:'Bernard MT Condensed, ';text-align:center;text-anchor:middle;fill:#000000;fill-opacity:1;stroke-width:1.69135"
               d="m 1225.4083,1195.6519 v 13.451 h 1.6019 q 0.6596,0 0.9658,-0.2827 0.3063,-0.2827 0.4712,-1.225 0.2826,-1.6725 0.4475,-2.0023 0.1885,-0.3298 0.5654,-0.3298 1.861,0 2.0966,0.1649 0.2591,0.1413 0.2591,1.1778 v 7.8445 q 0,0.7302 -0.2356,0.9658 -0.2355,0.212 -1.4605,0.212 -0.8009,0 -1.0836,-0.2827 -0.2591,-0.3062 -0.5183,-1.6725 -0.2591,-1.2485 -0.5182,-1.5312 -0.2356,-0.2827 -0.7538,-0.2827 h -1.8375 v 16.2307 h 1.2485 q 1.1543,0 1.5783,-0.6361 0.4476,-0.6596 1.4135,-3.7455 0.4004,-1.2956 0.8244,-1.6961 0.4241,-0.4005 1.4841,-0.4005 1.4606,0 1.4606,0.9423 0,0.2827 -0.094,0.8245 l -0.8716,5.3474 q -0.2355,1.4605 -0.4004,1.7668 -0.1414,0.2826 -0.9423,0.2826 h -15.7124 q -0.5889,0 -0.7538,-0.2591 -0.1649,-0.2827 -0.1649,-1.5783 0,-0.8245 0.848,-1.2014 1.2956,-0.5418 1.2956,-1.4841 v -29.3753 q -0.024,-0.4476 -1.06,-0.8952 -0.7067,-0.3062 -0.8481,-0.5889 -0.1178,-0.2827 -0.1178,-1.3663 0,-0.9187 0.1414,-1.0836 0.1413,-0.1885 0.8245,-0.1885 h 15.0292 q 0.5654,0 0.8245,0.1885 0.2591,0.1884 0.4005,0.8951 l 1.2014,6.0777 q 0.094,0.4711 0.094,0.636 0,0.6361 -1.1307,0.6361 -1.2721,0 -1.6961,-0.2827 -0.424,-0.3063 -0.8245,-1.4841 -0.7303,-2.1201 -1.2721,-2.9446 -0.5182,-0.8245 -1.1778,-0.8245 z" />
            <path
               id="path24938"
               style="font-style:normal;font-variant:normal;font-weight:normal;font-stretch:normal;font-size:48.2444px;font-family:'Bernard MT Condensed';-inkscape-font-specification:'Bernard MT Condensed, ';text-align:center;text-anchor:middle;fill:#000000;fill-opacity:1;stroke-width:1.69135"
               d="m 1234.6897,1194.7332 v -1.2485 q 0,-0.7303 0.7774,-0.7303 h 11.2837 q 0.6361,0 0.8245,0.1649 0.1885,0.1649 0.1885,0.9894 0,1.2485 -0.1414,1.5547 -0.1178,0.3063 -0.5653,0.377 -1.4606,0.2591 -1.4606,1.8609 v 28.3154 q 0,0.8951 1.0601,1.4134 0.6831,0.3298 0.8245,0.5889 0.1413,0.2591 0.1413,0.8952 v 0.9187 q 0,0.7538 -0.1413,0.848 -0.1414,0.094 -0.7303,0.094 h -11.4957 q -0.6596,0 -0.6596,-0.5182 0,-1.6961 0.1178,-2.073 0.1178,-0.3769 0.8245,-0.5889 1.272,-0.3534 1.272,-1.3428 v -27.9619 q 0,-0.9894 -0.2355,-1.4841 -0.2356,-0.5183 -1.0365,-0.8481 -0.589,-0.2591 -0.7303,-0.4475 -0.1178,-0.212 -0.1178,-0.7774 z" />
            <path
               id="path24940"
               style="font-style:normal;font-variant:normal;font-weight:normal;font-stretch:normal;font-size:48.2444px;font-family:'Bernard MT Condensed';-inkscape-font-specification:'Bernard MT Condensed, ';text-align:center;text-anchor:middle;fill:#000000;fill-opacity:1;stroke-width:1.69135"
               d="m 1266.1617,1192.7544 h 8.3391 q 0.848,0 1.1071,0.2591 0.2592,0.2356 0.2592,1.2486 0,0.9187 -0.1885,1.2956 -0.1649,0.3533 -0.848,0.6831 -0.6125,0.2827 -0.7774,0.6125 -0.1649,0.3298 -0.1649,1.0836 v 27.962 q 0,0.6125 0.1413,0.8951 0.1414,0.2827 0.7774,0.589 0.8716,0.424 0.8716,1.1542 0,1.8375 -0.1178,2.0495 -0.1178,0.1884 -0.8245,0.1884 H 1264.23 q -0.6832,0 -0.6832,-1.1542 0,-0.9894 0.071,-1.4606 0.071,-0.4947 0.8716,-0.8009 0.8952,-0.3533 0.8952,-1.2485 v -19.8349 l -4.2403,16.0187 h -2.5912 l -4.1696,-15.524 v 19.2695 q 0,0.9423 0.8481,1.3899 1.0365,0.5182 1.0365,1.8374 0,1.5076 -1.0365,1.5076 h -5.1119 q -0.8716,0 -0.8716,-1.4369 0,-1.013 0.7303,-1.5548 0.5418,-0.4476 0.6832,-0.7067 0.1413,-0.2827 0.1413,-0.9658 v -27.2082 q 0,-1.1307 -0.212,-1.7196 -0.1885,-0.6125 -0.8481,-0.9894 -0.7067,-0.3769 -0.7067,-0.7774 l 0.024,-1.0129 q 0.024,-1.1072 0.1413,-1.3663 0.1414,-0.2827 0.6361,-0.2827 h 8.716 l 3.7691,14.5581 z" />
            <path
               id="path24942"
               style="font-style:normal;font-variant:normal;font-weight:normal;font-stretch:normal;font-size:48.2444px;font-family:'Bernard MT Condensed';-inkscape-font-specification:'Bernard MT Condensed, ';text-align:center;text-anchor:middle;fill:#000000;fill-opacity:1;stroke-width:1.69135"
               d="m 1288.258,1222.648 h -5.8892 l -0.2592,2.1673 q 0,0.071 -0.047,0.212 -0.1884,0.6831 -0.1884,1.2249 0,0.8481 1.1071,1.437 0.589,0.3062 0.7303,0.636 0.1413,0.3298 0.1413,1.0836 0,0.9659 -0.1177,1.1779 -0.094,0.1884 -0.4947,0.1884 h -6.219 q -0.5183,0 -0.5183,-1.0836 0,-1.2956 0.8245,-2.0965 0.7774,-0.7303 0.8952,-1.5548 l 4.358,-27.7264 q 0.1178,-0.636 0.1178,-1.1071 0,-0.7303 -1.013,-1.2957 -0.4711,-0.2827 -0.4711,-1.2485 0,-1.2956 0.1413,-1.6018 0.1414,-0.3063 0.7538,-0.3063 h 8.9987 q 0.8245,0 1.1543,0.7774 0.3298,0.7774 0.6596,3.3922 0.1414,1.0129 0.2827,2.0023 l 3.8633,25.889 q 0.2827,1.8845 1.3899,2.8739 0.3062,0.2591 0.4004,0.424 0.094,0.1414 0.094,0.9187 0,1.2014 -0.1649,1.4841 -0.1649,0.2591 -0.7067,0.2591 h -10.4828 q -0.4712,0 -0.4712,-0.8951 0,-1.1307 0.1178,-1.4134 0.1178,-0.2827 0.6832,-0.6596 0.8245,-0.5183 0.8245,-1.3192 0,-0.8245 -0.4947,-3.8398 z m -2.8269,-21.0127 -2.6148,18.3037 h 5.1825 z" />
          </g>
          <g
             style="font-style:normal;font-variant:normal;font-weight:normal;font-stretch:normal;font-size:67.654px;line-height:1;font-family:'Bernard MT Condensed';-inkscape-font-specification:'Bernard MT Condensed, ';text-align:center;text-anchor:middle;fill:#000000;fill-opacity:1;stroke-width:1.69135"
             id="text38386-4-63-7-8-3-4-6-1-0-9-3"
             transform="scale(1.0697563,0.93479234)"
             aria-label="HAFEN">
            <path
               id="path24945"
               style="font-style:normal;font-variant:normal;font-weight:normal;font-stretch:normal;font-size:48.2444px;font-family:'Bernard MT Condensed';-inkscape-font-specification:'Bernard MT Condensed, ';text-align:center;text-anchor:middle;fill:#000000;fill-opacity:1;stroke-width:1.69135"
               d="m 1338.8362,1209.0557 h 3.7691 v -11.849 q 0,-0.5654 -0.1178,-0.7539 -0.094,-0.1884 -0.5654,-0.4711 -0.5182,-0.2827 -0.5182,-1.3192 0,-1.3192 0.1178,-1.6018 0.1178,-0.3063 0.6596,-0.3063 h 10.2236 q 0.6832,0 0.8245,0.2591 0.1414,0.2356 0.1414,1.6019 0,0.8245 -0.1649,0.9894 -0.1414,0.1413 -0.9423,0.5418 -0.8716,0.4711 -0.8716,1.4605 v 28.1976 q 0,1.1071 1.0129,1.7667 0.8245,0.5183 0.8245,0.9423 v 1.4841 q 0,0.4711 -0.1413,0.636 -0.1414,0.1413 -0.8245,0.1413 h -10.2708 q -0.5182,0 -0.636,-0.1884 -0.1178,-0.1885 -0.1178,-1.7432 0,-0.7774 0.636,-1.225 0.7303,-0.5182 0.7303,-1.2014 v -14.6994 h -3.7691 v 14.8408 q 0,0.7538 0.6125,1.2014 0.6125,0.4947 0.6125,1.3898 0,1.2485 -0.1414,1.437 -0.1413,0.1884 -0.5653,0.1884 h -10.3415 q -0.4947,0 -0.6125,-0.212 -0.1178,-0.212 -0.1178,-1.6725 0,-0.6831 0.1178,-0.8952 0.1178,-0.212 0.6596,-0.5182 0.9894,-0.5183 0.9894,-1.3899 v -28.4802 q 0,-0.6831 -0.8716,-1.2956 -0.8716,-0.636 -0.8716,-1.8139 0,-1.2485 0.1884,-1.4841 0.2121,-0.2591 0.8952,-0.2591 h 9.6583 q 0.636,0 0.8716,0.2356 0.2356,0.212 0.2356,1.0365 v 1.1072 q -0.047,0.424 -0.5889,0.7538 -0.7303,0.4004 -0.7303,1.3192 z" />
            <path
               id="path24947"
               style="font-style:normal;font-variant:normal;font-weight:normal;font-stretch:normal;font-size:48.2444px;font-family:'Bernard MT Condensed';-inkscape-font-specification:'Bernard MT Condensed, ';text-align:center;text-anchor:middle;fill:#000000;fill-opacity:1;stroke-width:1.69135"
               d="m 1366.0208,1222.648 h -5.8892 l -0.2591,2.1673 q 0,0.071 -0.047,0.212 -0.1884,0.6831 -0.1884,1.2249 0,0.8481 1.1072,1.437 0.5889,0.3062 0.7302,0.636 0.1414,0.3298 0.1414,1.0836 0,0.9659 -0.1178,1.1779 -0.094,0.1884 -0.4947,0.1884 h -6.219 q -0.5183,0 -0.5183,-1.0836 0,-1.2956 0.8245,-2.0965 0.7774,-0.7303 0.8952,-1.5548 l 4.358,-27.7264 q 0.1178,-0.636 0.1178,-1.1071 0,-0.7303 -1.013,-1.2957 -0.4711,-0.2827 -0.4711,-1.2485 0,-1.2956 0.1413,-1.6018 0.1414,-0.3063 0.7539,-0.3063 h 8.9987 q 0.8245,0 1.1543,0.7774 0.3297,0.7774 0.6595,3.3922 0.1414,1.0129 0.2827,2.0023 l 3.8633,25.889 q 0.2827,1.8845 1.3899,2.8739 0.3062,0.2591 0.4005,0.424 0.094,0.1414 0.094,0.9187 0,1.2014 -0.1649,1.4841 -0.1649,0.2591 -0.7067,0.2591 h -10.4828 q -0.4711,0 -0.4711,-0.8951 0,-1.1307 0.1177,-1.4134 0.1178,-0.2827 0.6832,-0.6596 0.8245,-0.5183 0.8245,-1.3192 0,-0.8245 -0.4947,-3.8398 z m -2.8268,-21.0127 -2.6148,18.3037 h 5.1825 z" />
            <path
               id="path24949"
               style="font-style:normal;font-variant:normal;font-weight:normal;font-stretch:normal;font-size:48.2444px;font-family:'Bernard MT Condensed';-inkscape-font-specification:'Bernard MT Condensed, ';text-align:center;text-anchor:middle;fill:#000000;fill-opacity:1;stroke-width:1.69135"
               d="m 1388.4469,1211.647 v 14.299 q 0,1.1072 1.3663,1.5076 0.6831,0.1885 0.848,0.4476 0.1885,0.2356 0.1885,1.0836 0,1.3192 -0.212,1.5548 -0.1885,0.2355 -0.9658,0.2355 h -10.7655 q -0.8952,0 -1.1779,-0.3533 -0.2591,-0.3769 -0.2591,-1.5076 0,-0.7539 0.1178,-0.9423 0.1413,-0.212 0.7774,-0.4947 0.8716,-0.3769 1.0836,-0.636 0.212,-0.2827 0.212,-0.8245 V 1197.56 q 0,-0.6125 -0.2591,-0.9423 -0.2356,-0.3298 -1.0601,-0.6831 -0.5889,-0.2591 -0.5889,-1.1543 0,-0.094 0.024,-1.0365 0.1413,-0.9894 1.1307,-0.9894 h 14.6994 q 0.6596,0 0.9188,0.212 0.2591,0.212 0.4004,1.0365 0.024,0.1414 0.071,0.4005 l 1.0601,5.2296 q 0.094,0.4947 0.094,0.8481 0,0.7538 -1.1307,0.7538 -1.5077,0 -1.8846,-0.5654 -0.3769,-0.5654 -1.1778,-2.8033 -0.4947,-1.3662 -0.9894,-1.8374 -0.4712,-0.4711 -1.4841,-0.4711 -0.2827,0 -1.0365,0.071 v 13.451 h 1.2014 q 0.9423,0 1.2956,-0.424 0.3769,-0.4476 0.5418,-1.5077 0.212,-1.2014 0.4005,-1.5312 0.1884,-0.3533 1.5547,-0.3533 0.9423,0 1.1308,0.1884 0.212,0.1885 0.212,0.7303 v 8.5276 q 0,0.5418 -0.1885,0.7067 -0.1884,0.1649 -1.2014,0.1649 -1.2249,0 -1.5547,-0.4005 -0.3063,-0.4004 -0.4712,-1.9552 -0.1884,-1.5783 -1.7196,-1.5783 z" />
            <path
               id="path24951"
               style="font-style:normal;font-variant:normal;font-weight:normal;font-stretch:normal;font-size:48.2444px;font-family:'Bernard MT Condensed';-inkscape-font-specification:'Bernard MT Condensed, ';text-align:center;text-anchor:middle;fill:#000000;fill-opacity:1;stroke-width:1.69135"
               d="m 1408.2346,1195.6519 v 13.451 h 1.6019 q 0.6596,0 0.9658,-0.2827 0.3063,-0.2827 0.4712,-1.225 0.2827,-1.6725 0.4476,-2.0023 0.1884,-0.3298 0.5653,-0.3298 1.861,0 2.0966,0.1649 0.2591,0.1413 0.2591,1.1778 v 7.8445 q 0,0.7302 -0.2356,0.9658 -0.2355,0.212 -1.4605,0.212 -0.8009,0 -1.0836,-0.2827 -0.2591,-0.3062 -0.5183,-1.6725 -0.2591,-1.2485 -0.5182,-1.5312 -0.2356,-0.2827 -0.7538,-0.2827 h -1.8375 v 16.2307 h 1.2486 q 1.1542,0 1.5783,-0.6361 0.4475,-0.6596 1.4134,-3.7455 0.4004,-1.2956 0.8245,-1.6961 0.424,-0.4005 1.484,-0.4005 1.4606,0 1.4606,0.9423 0,0.2827 -0.094,0.8245 l -0.8716,5.3474 q -0.2355,1.4605 -0.4004,1.7668 -0.1414,0.2826 -0.9423,0.2826 h -15.7124 q -0.5889,0 -0.7538,-0.2591 -0.1649,-0.2827 -0.1649,-1.5783 0,-0.8245 0.848,-1.2014 1.2956,-0.5418 1.2956,-1.4841 v -29.3753 q -0.023,-0.4476 -1.06,-0.8952 -0.7067,-0.3062 -0.8481,-0.5889 -0.1177,-0.2827 -0.1177,-1.3663 0,-0.9187 0.1413,-1.0836 0.1413,-0.1885 0.8245,-0.1885 h 15.0292 q 0.5654,0 0.8245,0.1885 0.2592,0.1884 0.4005,0.8951 l 1.2014,6.0777 q 0.094,0.4711 0.094,0.636 0,0.6361 -1.1307,0.6361 -1.2721,0 -1.6961,-0.2827 -0.424,-0.3063 -0.8245,-1.4841 -0.7302,-2.1201 -1.2721,-2.9446 -0.5182,-0.8245 -1.1778,-0.8245 z" />
            <path
               id="path24953"
               style="font-style:normal;font-variant:normal;font-weight:normal;font-stretch:normal;font-size:48.2444px;font-family:'Bernard MT Condensed';-inkscape-font-specification:'Bernard MT Condensed, ';text-align:center;text-anchor:middle;fill:#000000;fill-opacity:1;stroke-width:1.69135"
               d="m 1423.3581,1209.2206 v 16.6312 q 0,1.0365 1.1779,1.5547 0.9894,0.4476 0.9894,1.2721 0,1.7196 -0.094,1.9081 -0.071,0.1884 -0.6831,0.1884 h -6.2661 q -0.4712,0 -0.589,-0.3533 -0.1177,-0.3769 -0.1177,-1.8139 0,-0.6596 0.636,-0.9187 1.225,-0.5418 1.225,-1.225 v -27.8441 q 0,-1.013 -0.1885,-1.5077 -0.1885,-0.5182 -0.848,-0.848 -0.589,-0.2827 -0.801,-0.6125 -0.1884,-0.3298 -0.1884,-1.2485 0,-1.649 0.8716,-1.649 h 6.5488 l 7.9151,18.3508 v -13.5216 q 0,-1.1308 -1.1543,-1.6019 -0.6832,-0.3062 -0.8952,-0.6831 -0.1884,-0.4005 -0.1884,-1.5312 0,-0.7067 0.1413,-0.8481 0.1413,-0.1649 0.5418,-0.1649 h 6.5017 q 0.5418,0.071 0.5418,1.5548 0,0.8716 -0.1178,1.1071 -0.094,0.2356 -0.4711,0.4005 -0.8245,0.3298 -1.0365,0.636 -0.212,0.3063 -0.212,0.8481 v 33.4742 h -4.0047 z" />
          </g>
        </g>
        <g
           id="g24242"
           transform="translate(-0.72189613)">
          <path
             d="m 1045,1302.3541 h 90 v 5 h -90 z"
             style="fill:#000000;fill-opacity:1;stroke:none;stroke-width:0.536401"
             id="rect2046-4-9" />
          <path
             d="m 1210,1302.3541 h 95 v 5 h -95 z"
             style="fill:#000000;fill-opacity:1;stroke:none;stroke-width:0.551099"
             id="rect2046-4-9-9" />
        </g>
      </g>
    </g>
  </g>
</svg>
