  0
SECTION
  2
HEADER
  9
$ACADVER
  1
AC1014
  9
$HANDSEED
  5
FFFF
  9
$MEASUREMENT
 70
     1
  0
ENDSEC
  0
SECTION
  2
TABLES
  0
TABLE
  2
VPORT
  5
8
330
0
100
AcDbSymbolTable
 70
     4
  0
VPORT
  5
2E
330
8
100
AcDbSymbolTableRecord
100
AcDbViewportTableRecord
  2
*ACTIVE
 70
     0
 10
0.0
 20
0.0
 11
1.0
 21
1.0
 12
210.0
 22
148.5
 13
0.0
 23
0.0
 14
10.0
 24
10.0
 15
10.0
 25
10.0
 16
0.0
 26
0.0
 36
1.0
 17
0.0
 27
0.0
 37
0.0
 40
341.0
 41
1.24
 42
50.0
 43
0.0
 44
0.0
 50
0.0
 51
0.0
 71
     0
 72
   100
 73
     1
 74
     3
 75
     0
 76
     0
 77
     0
 78
     0
  0
ENDTAB
  0
TABLE
  2
LTYPE
  5
5
330
0
100
AcDbSymbolTable
 70
     1
  0
LTYPE
  5
14
330
5
100
AcDbSymbolTableRecord
100
AcDbLinetypeTableRecord
  2
BYBLOCK
 70
     0
  3

 72
    65
 73
     0
 40
0.0
  0
LTYPE
  5
15
330
5
100
AcDbSymbolTableRecord
100
AcDbLinetypeTableRecord
  2
BYLAYER
 70
     0
  3

 72
    65
 73
     0
 40
0.0
  0
LTYPE
  5
16
330
5
100
AcDbSymbolTableRecord
100
AcDbLinetypeTableRecord
  2
CONTINUOUS
 70
     0
  3
Solid line
 72
    65
 73
     0
 40
0.0
  0
ENDTAB
  0
TABLE
  2
LAYER
  5
2
100
AcDbSymbolTable
 70
2
  0
LAYER
  5
50
100
AcDbSymbolTableRecord
100
AcDbLayerTableRecord
  2
0
 70
0
  6
CONTINUOUS
  0
LAYER
  5
51
100
AcDbSymbolTableRecord
100
AcDbLayerTableRecord
  2
Ebene_1
 70
0
  6
CONTINUOUS
  0
ENDTAB
  0
TABLE
  2
STYLE
  5
3
330
0
100
AcDbSymbolTable
 70
     1
  0
STYLE
  5
11
330
3
100
AcDbSymbolTableRecord
100
AcDbTextStyleTableRecord
  2
STANDARD
 70
     0
 40
0.0
 41
1.0
 50
0.0
 71
     0
 42
2.5
  3
txt
  4

  0
ENDTAB
  0
TABLE
  2
VIEW
  5
6
330
0
100
AcDbSymbolTable
 70
     0
  0
ENDTAB
  0
TABLE
  2
UCS
  5
7
330
0
100
AcDbSymbolTable
 70
     0
  0
ENDTAB
  0
TABLE
  2
APPID
  5
9
330
0
100
AcDbSymbolTable
 70
     2
  0
APPID
  5
12
330
9
100
AcDbSymbolTableRecord
100
AcDbRegAppTableRecord
  2
ACAD
 70
     0
  0
ENDTAB
  0
TABLE
  2
DIMSTYLE
  5
A
330
0
100
AcDbSymbolTable
 70
     1
  0
DIMSTYLE
105
27
330
A
100
AcDbSymbolTableRecord
100
AcDbDimStyleTableRecord
  2
ISO-25
 70
     0
  3

  4

  5

  6

  7

 40
1.0
 41
2.5
 42
0.625
 43
3.75
 44
1.25
 45
0.0
 46
0.0
 47
0.0
 48
0.0
140
2.5
141
2.5
142
0.0
143
0.03937007874016
144
1.0
145
0.0
146
1.0
147
0.625
 71
     0
 72
     0
 73
     0
 74
     0
 75
     0
 76
     0
 77
     1
 78
     8
170
     0
171
     3
172
     1
173
     0
174
     0
175
     0
176
     0
177
     0
178
     0
270
     2
271
     2
272
     2
273
     2
274
     3
340
11
275
     0
280
     0
281
     0
282
     0
283
     0
284
     8
285
     0
286
     0
287
     3
288
     0
  0
ENDTAB
  0
TABLE
  2
BLOCK_RECORD
  5
1
330
0
100
AcDbSymbolTable
 70
     1
  0
BLOCK_RECORD
  5
1F
330
1
100
AcDbSymbolTableRecord
100
AcDbBlockTableRecord
  2
*MODEL_SPACE
  0
BLOCK_RECORD
  5
1B
330
1
100
AcDbSymbolTableRecord
100
AcDbBlockTableRecord
  2
*PAPER_SPACE
  0
ENDTAB
  0
ENDSEC
  0
SECTION
  2
BLOCKS
  0
BLOCK
  5
20
330
1F
100
AcDbEntity
  8
0
100
AcDbBlockBegin
  2
*MODEL_SPACE
 70
     0
 10
0.0
 20
0.0
 30
0.0
  3
*MODEL_SPACE
  1

  0
ENDBLK
  5
21
330
1F
100
AcDbEntity
  8
0
100
AcDbBlockEnd
  0
BLOCK
  5
1C
330
1B
100
AcDbEntity
 67
     1
  8
0
100
AcDbBlockBegin
  2
*PAPER_SPACE
  1

  0
ENDBLK
  5
1D
330
1B
100
AcDbEntity
 67
     1
  8
0
100
AcDbBlockEnd
  0
ENDSEC
  0
SECTION
  2
ENTITIES
  0
SPLINE
  5
100
100
AcDbEntity
  8
Ebene_1
 62
7
100
AcDbSpline
 70
8
 71
3
 72
8
 73
4
 74
0
 40
0
 40
0
 40
0
 40
0
 40
1
 40
1
 40
1
 40
1
 10
268.998000
 20
179.997900
 30
0.0
 10
280.078100
 20
179.997900
 30
0.0
 10
288.998100
 20
171.077900
 30
0.0
 10
288.998100
 20
159.997900
 30
0.0
  0
LWPOLYLINE
  5
101
100
AcDbEntity
  8
Ebene_1
 62
7
100
AcDbPolyline
 90
2
 70
0
 10
29.998100
 20
179.997900
 30
0.0
 10
268.998000
 20
179.997900
 30
0.0
  0
SPLINE
  5
102
100
AcDbEntity
  8
Ebene_1
 62
7
100
AcDbSpline
 70
8
 71
3
 72
8
 73
4
 74
0
 40
0
 40
0
 40
0
 40
0
 40
1
 40
1
 40
1
 40
1
 10
288.998100
 20
25.997900
 30
0.0
 10
288.998100
 20
14.917900
 30
0.0
 10
280.078100
 20
5.997900
 30
0.0
 10
268.998000
 20
5.997900
 30
0.0
  0
LWPOLYLINE
  5
103
100
AcDbEntity
  8
Ebene_1
 62
7
100
AcDbPolyline
 90
2
 70
0
 10
288.998100
 20
159.997900
 30
0.0
 10
288.998100
 20
25.997900
 30
0.0
  0
SPLINE
  5
104
100
AcDbEntity
  8
Ebene_1
 62
7
100
AcDbSpline
 70
8
 71
3
 72
8
 73
4
 74
0
 40
0
 40
0
 40
0
 40
0
 40
1
 40
1
 40
1
 40
1
 10
29.998100
 20
5.997900
 30
0.0
 10
18.918100
 20
5.997900
 30
0.0
 10
9.998100
 20
14.917900
 30
0.0
 10
9.998100
 20
25.997900
 30
0.0
  0
LWPOLYLINE
  5
105
100
AcDbEntity
  8
Ebene_1
 62
7
100
AcDbPolyline
 90
2
 70
0
 10
268.998000
 20
5.997900
 30
0.0
 10
29.998100
 20
5.997900
 30
0.0
  0
SPLINE
  5
106
100
AcDbEntity
  8
Ebene_1
 62
7
100
AcDbSpline
 70
8
 71
3
 72
8
 73
4
 74
0
 40
0
 40
0
 40
0
 40
0
 40
1
 40
1
 40
1
 40
1
 10
9.998100
 20
159.997900
 30
0.0
 10
9.998100
 20
171.077900
 30
0.0
 10
18.918100
 20
179.997900
 30
0.0
 10
29.998100
 20
179.997900
 30
0.0
  0
LWPOLYLINE
  5
107
100
AcDbEntity
  8
Ebene_1
 62
7
100
AcDbPolyline
 90
2
 70
0
 10
9.998100
 20
25.997900
 30
0.0
 10
9.998100
 20
159.997900
 30
0.0
  0
SPLINE
  5
108
100
AcDbEntity
  8
Ebene_1
 62
7
100
AcDbSpline
 70
8
 71
3
 72
8
 73
4
 74
0
 40
0
 40
0
 40
0
 40
0
 40
1
 40
1
 40
1
 40
1
 10
29.498100
 20
162.998000
 30
0.0
 10
29.498100
 20
162.334959
 30
0.0
 10
29.234708
 20
161.699074
 30
0.0
 10
28.765867
 20
161.230233
 30
0.0
  0
SPLINE
  5
109
100
AcDbEntity
  8
Ebene_1
 62
7
100
AcDbSpline
 70
8
 71
3
 72
8
 73
4
 74
0
 40
0
 40
0
 40
0
 40
0
 40
1
 40
1
 40
1
 40
1
 10
28.765867
 20
161.230233
 30
0.0
 10
28.297026
 20
160.761392
 30
0.0
 10
27.661141
 20
160.498000
 30
0.0
 10
26.998100
 20
160.498000
 30
0.0
  0
SPLINE
  5
10a
100
AcDbEntity
  8
Ebene_1
 62
7
100
AcDbSpline
 70
8
 71
3
 72
8
 73
4
 74
0
 40
0
 40
0
 40
0
 40
0
 40
1
 40
1
 40
1
 40
1
 10
26.998100
 20
160.498000
 30
0.0
 10
26.335059
 20
160.498000
 30
0.0
 10
25.699174
 20
160.761392
 30
0.0
 10
25.230333
 20
161.230233
 30
0.0
  0
SPLINE
  5
10b
100
AcDbEntity
  8
Ebene_1
 62
7
100
AcDbSpline
 70
8
 71
3
 72
8
 73
4
 74
0
 40
0
 40
0
 40
0
 40
0
 40
1
 40
1
 40
1
 40
1
 10
25.230333
 20
161.230233
 30
0.0
 10
24.761492
 20
161.699074
 30
0.0
 10
24.498100
 20
162.334959
 30
0.0
 10
24.498100
 20
162.998000
 30
0.0
  0
SPLINE
  5
10c
100
AcDbEntity
  8
Ebene_1
 62
7
100
AcDbSpline
 70
8
 71
3
 72
8
 73
4
 74
0
 40
0
 40
0
 40
0
 40
0
 40
1
 40
1
 40
1
 40
1
 10
24.498100
 20
162.998000
 30
0.0
 10
24.498100
 20
163.661041
 30
0.0
 10
24.761492
 20
164.296926
 30
0.0
 10
25.230333
 20
164.765767
 30
0.0
  0
SPLINE
  5
10d
100
AcDbEntity
  8
Ebene_1
 62
7
100
AcDbSpline
 70
8
 71
3
 72
8
 73
4
 74
0
 40
0
 40
0
 40
0
 40
0
 40
1
 40
1
 40
1
 40
1
 10
25.230333
 20
164.765767
 30
0.0
 10
25.699174
 20
165.234608
 30
0.0
 10
26.335059
 20
165.498000
 30
0.0
 10
26.998100
 20
165.498000
 30
0.0
  0
SPLINE
  5
10e
100
AcDbEntity
  8
Ebene_1
 62
7
100
AcDbSpline
 70
8
 71
3
 72
8
 73
4
 74
0
 40
0
 40
0
 40
0
 40
0
 40
1
 40
1
 40
1
 40
1
 10
26.998100
 20
165.498000
 30
0.0
 10
27.661141
 20
165.498000
 30
0.0
 10
28.297026
 20
165.234608
 30
0.0
 10
28.765867
 20
164.765767
 30
0.0
  0
SPLINE
  5
10f
100
AcDbEntity
  8
Ebene_1
 62
7
100
AcDbSpline
 70
8
 71
3
 72
8
 73
4
 74
0
 40
0
 40
0
 40
0
 40
0
 40
1
 40
1
 40
1
 40
1
 10
28.765867
 20
164.765767
 30
0.0
 10
29.234708
 20
164.296926
 30
0.0
 10
29.498100
 20
163.661041
 30
0.0
 10
29.498100
 20
162.998000
 30
0.0
  0
SPLINE
  5
110
100
AcDbEntity
  8
Ebene_1
 62
7
100
AcDbSpline
 70
8
 71
3
 72
8
 73
4
 74
0
 40
0
 40
0
 40
0
 40
0
 40
1
 40
1
 40
1
 40
1
 10
29.498100
 20
22.998000
 30
0.0
 10
29.498100
 20
22.334959
 30
0.0
 10
29.234708
 20
21.699074
 30
0.0
 10
28.765867
 20
21.230233
 30
0.0
  0
SPLINE
  5
111
100
AcDbEntity
  8
Ebene_1
 62
7
100
AcDbSpline
 70
8
 71
3
 72
8
 73
4
 74
0
 40
0
 40
0
 40
0
 40
0
 40
1
 40
1
 40
1
 40
1
 10
28.765867
 20
21.230233
 30
0.0
 10
28.297026
 20
20.761392
 30
0.0
 10
27.661141
 20
20.498000
 30
0.0
 10
26.998100
 20
20.498000
 30
0.0
  0
SPLINE
  5
112
100
AcDbEntity
  8
Ebene_1
 62
7
100
AcDbSpline
 70
8
 71
3
 72
8
 73
4
 74
0
 40
0
 40
0
 40
0
 40
0
 40
1
 40
1
 40
1
 40
1
 10
26.998100
 20
20.498000
 30
0.0
 10
26.335059
 20
20.498000
 30
0.0
 10
25.699174
 20
20.761392
 30
0.0
 10
25.230333
 20
21.230233
 30
0.0
  0
SPLINE
  5
113
100
AcDbEntity
  8
Ebene_1
 62
7
100
AcDbSpline
 70
8
 71
3
 72
8
 73
4
 74
0
 40
0
 40
0
 40
0
 40
0
 40
1
 40
1
 40
1
 40
1
 10
25.230333
 20
21.230233
 30
0.0
 10
24.761492
 20
21.699074
 30
0.0
 10
24.498100
 20
22.334959
 30
0.0
 10
24.498100
 20
22.998000
 30
0.0
  0
SPLINE
  5
114
100
AcDbEntity
  8
Ebene_1
 62
7
100
AcDbSpline
 70
8
 71
3
 72
8
 73
4
 74
0
 40
0
 40
0
 40
0
 40
0
 40
1
 40
1
 40
1
 40
1
 10
24.498100
 20
22.998000
 30
0.0
 10
24.498100
 20
23.661041
 30
0.0
 10
24.761492
 20
24.296926
 30
0.0
 10
25.230333
 20
24.765767
 30
0.0
  0
SPLINE
  5
115
100
AcDbEntity
  8
Ebene_1
 62
7
100
AcDbSpline
 70
8
 71
3
 72
8
 73
4
 74
0
 40
0
 40
0
 40
0
 40
0
 40
1
 40
1
 40
1
 40
1
 10
25.230333
 20
24.765767
 30
0.0
 10
25.699174
 20
25.234608
 30
0.0
 10
26.335059
 20
25.498000
 30
0.0
 10
26.998100
 20
25.498000
 30
0.0
  0
SPLINE
  5
116
100
AcDbEntity
  8
Ebene_1
 62
7
100
AcDbSpline
 70
8
 71
3
 72
8
 73
4
 74
0
 40
0
 40
0
 40
0
 40
0
 40
1
 40
1
 40
1
 40
1
 10
26.998100
 20
25.498000
 30
0.0
 10
27.661141
 20
25.498000
 30
0.0
 10
28.297026
 20
25.234608
 30
0.0
 10
28.765867
 20
24.765767
 30
0.0
  0
SPLINE
  5
117
100
AcDbEntity
  8
Ebene_1
 62
7
100
AcDbSpline
 70
8
 71
3
 72
8
 73
4
 74
0
 40
0
 40
0
 40
0
 40
0
 40
1
 40
1
 40
1
 40
1
 10
28.765867
 20
24.765767
 30
0.0
 10
29.234708
 20
24.296926
 30
0.0
 10
29.498100
 20
23.661041
 30
0.0
 10
29.498100
 20
22.998000
 30
0.0
  0
SPLINE
  5
118
100
AcDbEntity
  8
Ebene_1
 62
7
100
AcDbSpline
 70
8
 71
3
 72
8
 73
4
 74
0
 40
0
 40
0
 40
0
 40
0
 40
1
 40
1
 40
1
 40
1
 10
274.498100
 20
22.998000
 30
0.0
 10
274.498100
 20
22.334959
 30
0.0
 10
274.234708
 20
21.699074
 30
0.0
 10
273.765867
 20
21.230233
 30
0.0
  0
SPLINE
  5
119
100
AcDbEntity
  8
Ebene_1
 62
7
100
AcDbSpline
 70
8
 71
3
 72
8
 73
4
 74
0
 40
0
 40
0
 40
0
 40
0
 40
1
 40
1
 40
1
 40
1
 10
273.765867
 20
21.230233
 30
0.0
 10
273.297026
 20
20.761392
 30
0.0
 10
272.661141
 20
20.498000
 30
0.0
 10
271.998100
 20
20.498000
 30
0.0
  0
SPLINE
  5
11a
100
AcDbEntity
  8
Ebene_1
 62
7
100
AcDbSpline
 70
8
 71
3
 72
8
 73
4
 74
0
 40
0
 40
0
 40
0
 40
0
 40
1
 40
1
 40
1
 40
1
 10
271.998100
 20
20.498000
 30
0.0
 10
271.335059
 20
20.498000
 30
0.0
 10
270.699174
 20
20.761392
 30
0.0
 10
270.230333
 20
21.230233
 30
0.0
  0
SPLINE
  5
11b
100
AcDbEntity
  8
Ebene_1
 62
7
100
AcDbSpline
 70
8
 71
3
 72
8
 73
4
 74
0
 40
0
 40
0
 40
0
 40
0
 40
1
 40
1
 40
1
 40
1
 10
270.230333
 20
21.230233
 30
0.0
 10
269.761492
 20
21.699074
 30
0.0
 10
269.498100
 20
22.334959
 30
0.0
 10
269.498100
 20
22.998000
 30
0.0
  0
SPLINE
  5
11c
100
AcDbEntity
  8
Ebene_1
 62
7
100
AcDbSpline
 70
8
 71
3
 72
8
 73
4
 74
0
 40
0
 40
0
 40
0
 40
0
 40
1
 40
1
 40
1
 40
1
 10
269.498100
 20
22.998000
 30
0.0
 10
269.498100
 20
23.661041
 30
0.0
 10
269.761492
 20
24.296926
 30
0.0
 10
270.230333
 20
24.765767
 30
0.0
  0
SPLINE
  5
11d
100
AcDbEntity
  8
Ebene_1
 62
7
100
AcDbSpline
 70
8
 71
3
 72
8
 73
4
 74
0
 40
0
 40
0
 40
0
 40
0
 40
1
 40
1
 40
1
 40
1
 10
270.230333
 20
24.765767
 30
0.0
 10
270.699174
 20
25.234608
 30
0.0
 10
271.335059
 20
25.498000
 30
0.0
 10
271.998100
 20
25.498000
 30
0.0
  0
SPLINE
  5
11e
100
AcDbEntity
  8
Ebene_1
 62
7
100
AcDbSpline
 70
8
 71
3
 72
8
 73
4
 74
0
 40
0
 40
0
 40
0
 40
0
 40
1
 40
1
 40
1
 40
1
 10
271.998100
 20
25.498000
 30
0.0
 10
272.661141
 20
25.498000
 30
0.0
 10
273.297026
 20
25.234608
 30
0.0
 10
273.765867
 20
24.765767
 30
0.0
  0
SPLINE
  5
11f
100
AcDbEntity
  8
Ebene_1
 62
7
100
AcDbSpline
 70
8
 71
3
 72
8
 73
4
 74
0
 40
0
 40
0
 40
0
 40
0
 40
1
 40
1
 40
1
 40
1
 10
273.765867
 20
24.765767
 30
0.0
 10
274.234708
 20
24.296926
 30
0.0
 10
274.498100
 20
23.661041
 30
0.0
 10
274.498100
 20
22.998000
 30
0.0
  0
SPLINE
  5
120
100
AcDbEntity
  8
Ebene_1
 62
7
100
AcDbSpline
 70
8
 71
3
 72
8
 73
4
 74
0
 40
0
 40
0
 40
0
 40
0
 40
1
 40
1
 40
1
 40
1
 10
274.498100
 20
162.998000
 30
0.0
 10
274.498100
 20
162.334959
 30
0.0
 10
274.234708
 20
161.699074
 30
0.0
 10
273.765867
 20
161.230233
 30
0.0
  0
SPLINE
  5
121
100
AcDbEntity
  8
Ebene_1
 62
7
100
AcDbSpline
 70
8
 71
3
 72
8
 73
4
 74
0
 40
0
 40
0
 40
0
 40
0
 40
1
 40
1
 40
1
 40
1
 10
273.765867
 20
161.230233
 30
0.0
 10
273.297026
 20
160.761392
 30
0.0
 10
272.661141
 20
160.498000
 30
0.0
 10
271.998100
 20
160.498000
 30
0.0
  0
SPLINE
  5
122
100
AcDbEntity
  8
Ebene_1
 62
7
100
AcDbSpline
 70
8
 71
3
 72
8
 73
4
 74
0
 40
0
 40
0
 40
0
 40
0
 40
1
 40
1
 40
1
 40
1
 10
271.998100
 20
160.498000
 30
0.0
 10
271.335059
 20
160.498000
 30
0.0
 10
270.699174
 20
160.761392
 30
0.0
 10
270.230333
 20
161.230233
 30
0.0
  0
SPLINE
  5
123
100
AcDbEntity
  8
Ebene_1
 62
7
100
AcDbSpline
 70
8
 71
3
 72
8
 73
4
 74
0
 40
0
 40
0
 40
0
 40
0
 40
1
 40
1
 40
1
 40
1
 10
270.230333
 20
161.230233
 30
0.0
 10
269.761492
 20
161.699074
 30
0.0
 10
269.498100
 20
162.334959
 30
0.0
 10
269.498100
 20
162.998000
 30
0.0
  0
SPLINE
  5
124
100
AcDbEntity
  8
Ebene_1
 62
7
100
AcDbSpline
 70
8
 71
3
 72
8
 73
4
 74
0
 40
0
 40
0
 40
0
 40
0
 40
1
 40
1
 40
1
 40
1
 10
269.498100
 20
162.998000
 30
0.0
 10
269.498100
 20
163.661041
 30
0.0
 10
269.761492
 20
164.296926
 30
0.0
 10
270.230333
 20
164.765767
 30
0.0
  0
SPLINE
  5
125
100
AcDbEntity
  8
Ebene_1
 62
7
100
AcDbSpline
 70
8
 71
3
 72
8
 73
4
 74
0
 40
0
 40
0
 40
0
 40
0
 40
1
 40
1
 40
1
 40
1
 10
270.230333
 20
164.765767
 30
0.0
 10
270.699174
 20
165.234608
 30
0.0
 10
271.335059
 20
165.498000
 30
0.0
 10
271.998100
 20
165.498000
 30
0.0
  0
SPLINE
  5
126
100
AcDbEntity
  8
Ebene_1
 62
7
100
AcDbSpline
 70
8
 71
3
 72
8
 73
4
 74
0
 40
0
 40
0
 40
0
 40
0
 40
1
 40
1
 40
1
 40
1
 10
271.998100
 20
165.498000
 30
0.0
 10
272.661141
 20
165.498000
 30
0.0
 10
273.297026
 20
165.234608
 30
0.0
 10
273.765867
 20
164.765767
 30
0.0
  0
SPLINE
  5
127
100
AcDbEntity
  8
Ebene_1
 62
7
100
AcDbSpline
 70
8
 71
3
 72
8
 73
4
 74
0
 40
0
 40
0
 40
0
 40
0
 40
1
 40
1
 40
1
 40
1
 10
273.765867
 20
164.765767
 30
0.0
 10
274.234708
 20
164.296926
 30
0.0
 10
274.498100
 20
163.661041
 30
0.0
 10
274.498100
 20
162.998000
 30
0.0
  0
LWPOLYLINE
  5
128
100
AcDbEntity
  8
Ebene_1
 62
7
100
AcDbPolyline
 90
1
 70
1
 10
29.998100
 20
179.997900
 30
0.0
  0
SPLINE
  5
129
100
AcDbEntity
  8
Ebene_1
 62
7
100
AcDbSpline
 70
8
 71
3
 72
8
 73
4
 74
0
 40
0
 40
0
 40
0
 40
0
 40
1
 40
1
 40
1
 40
1
 10
50.979700
 20
45.849000
 30
0.0
 10
57.412300
 20
45.849000
 30
0.0
 10
62.107300
 20
49.065300
 30
0.0
 10
62.107300
 20
55.165200
 30
0.0
  0
LWPOLYLINE
  5
12a
100
AcDbEntity
  8
Ebene_1
 62
7
100
AcDbPolyline
 90
4
 70
0
 10
40.258700
 20
38.455200
 30
0.0
 10
47.430700
 20
38.455200
 30
0.0
 10
47.430700
 20
45.849000
 30
0.0
 10
50.979700
 20
45.849000
 30
0.0
  0
SPLINE
  5
12b
100
AcDbEntity
  8
Ebene_1
 62
7
100
AcDbSpline
 70
8
 71
3
 72
8
 73
4
 74
0
 40
0
 40
0
 40
0
 40
0
 40
1
 40
1
 40
1
 40
1
 10
62.107300
 20
55.239200
 30
0.0
 10
62.107300
 20
60.969400
 30
0.0
 10
57.892900
 20
64.333600
 30
0.0
 10
51.349400
 20
64.333600
 30
0.0
  0
LWPOLYLINE
  5
12c
100
AcDbEntity
  8
Ebene_1
 62
7
100
AcDbPolyline
 90
2
 70
0
 10
62.107300
 20
55.165200
 30
0.0
 10
62.107300
 20
55.239200
 30
0.0
  0
LWPOLYLINE
  5
12d
100
AcDbEntity
  8
Ebene_1
 62
7
100
AcDbPolyline
 90
3
 70
0
 10
51.349400
 20
64.333600
 30
0.0
 10
40.258700
 20
64.333600
 30
0.0
 10
40.258700
 20
38.455200
 30
0.0
  0
SPLINE
  5
12e
100
AcDbEntity
  8
Ebene_1
 62
7
100
AcDbSpline
 70
8
 71
3
 72
8
 73
4
 74
0
 40
0
 40
0
 40
0
 40
0
 40
1
 40
1
 40
1
 40
1
 10
50.794900
 20
58.307500
 30
0.0
 10
53.382700
 20
58.307500
 30
0.0
 10
54.935400
 20
57.124500
 30
0.0
 10
54.935400
 20
54.906400
 30
0.0
  0
LWPOLYLINE
  5
12f
100
AcDbEntity
  8
Ebene_1
 62
7
100
AcDbPolyline
 90
3
 70
0
 10
47.430700
 20
51.468300
 30
0.0
 10
47.430700
 20
58.307500
 30
0.0
 10
50.794900
 20
58.307500
 30
0.0
  0
SPLINE
  5
130
100
AcDbEntity
  8
Ebene_1
 62
7
100
AcDbSpline
 70
8
 71
3
 72
8
 73
4
 74
0
 40
0
 40
0
 40
0
 40
0
 40
1
 40
1
 40
1
 40
1
 10
54.935400
 20
54.832400
 30
0.0
 10
54.935400
 20
52.799100
 30
0.0
 10
53.382700
 20
51.468200
 30
0.0
 10
50.831800
 20
51.468200
 30
0.0
  0
LWPOLYLINE
  5
131
100
AcDbEntity
  8
Ebene_1
 62
7
100
AcDbPolyline
 90
2
 70
0
 10
54.935400
 20
54.906400
 30
0.0
 10
54.935400
 20
54.832400
 30
0.0
  0
LWPOLYLINE
  5
132
100
AcDbEntity
  8
Ebene_1
 62
7
100
AcDbPolyline
 90
2
 70
0
 10
50.831800
 20
51.468200
 30
0.0
 10
47.430700
 20
51.468300
 30
0.0
  0
SPLINE
  5
133
100
AcDbEntity
  8
Ebene_1
 62
7
100
AcDbSpline
 70
8
 71
3
 72
8
 73
4
 74
0
 40
0
 40
0
 40
0
 40
0
 40
1
 40
1
 40
1
 40
1
 10
100.927000
 20
37.937700
 30
0.0
 10
108.912300
 20
37.937700
 30
0.0
 10
114.901200
 20
43.963600
 30
0.0
 10
114.901200
 20
51.394300
 30
0.0
  0
LWPOLYLINE
  5
134
100
AcDbEntity
  8
Ebene_1
 62
7
100
AcDbPolyline
 90
6
 70
1
 10
65.169400
 20
38.455200
 30
0.0
 10
84.873800
 20
38.455200
 30
0.0
 10
84.873800
 20
44.739900
 30
0.0
 10
72.341400
 20
44.739900
 30
0.0
 10
72.341400
 20
64.333500
 30
0.0
 10
65.169400
 20
64.333500
 30
0.0
  0
SPLINE
  5
135
100
AcDbEntity
  8
Ebene_1
 62
7
100
AcDbSpline
 70
8
 71
3
 72
8
 73
4
 74
0
 40
0
 40
0
 40
0
 40
0
 40
1
 40
1
 40
1
 40
1
 10
114.901200
 20
51.468300
 30
0.0
 10
114.901200
 20
58.899000
 30
0.0
 10
108.986200
 20
64.851000
 30
0.0
 10
101.000900
 20
64.851000
 30
0.0
  0
SPLINE
  5
136
100
AcDbEntity
  8
Ebene_1
 62
7
100
AcDbSpline
 70
8
 71
3
 72
8
 73
4
 74
0
 40
0
 40
0
 40
0
 40
0
 40
1
 40
1
 40
1
 40
1
 10
101.000900
 20
64.851000
 30
0.0
 10
93.015700
 20
64.851000
 30
0.0
 10
87.026700
 20
58.825100
 30
0.0
 10
87.026700
 20
51.394300
 30
0.0
  0
LWPOLYLINE
  5
137
100
AcDbEntity
  8
Ebene_1
 62
7
100
AcDbPolyline
 90
2
 70
0
 10
114.901200
 20
51.394300
 30
0.0
 10
114.901200
 20
51.468300
 30
0.0
  0
SPLINE
  5
138
100
AcDbEntity
  8
Ebene_1
 62
7
100
AcDbSpline
 70
8
 71
3
 72
8
 73
4
 74
0
 40
0
 40
0
 40
0
 40
0
 40
1
 40
1
 40
1
 40
1
 10
87.026700
 20
51.320300
 30
0.0
 10
87.026700
 20
43.889600
 30
0.0
 10
92.941700
 20
37.937600
 30
0.0
 10
100.927000
 20
37.937600
 30
0.0
  0
LWPOLYLINE
  5
139
100
AcDbEntity
  8
Ebene_1
 62
7
100
AcDbPolyline
 90
2
 70
0
 10
87.026700
 20
51.394300
 30
0.0
 10
87.026700
 20
51.320300
 30
0.0
  0
SPLINE
  5
13a
100
AcDbEntity
  8
Ebene_1
 62
7
100
AcDbSpline
 70
8
 71
3
 72
8
 73
4
 74
0
 40
0
 40
0
 40
0
 40
0
 40
1
 40
1
 40
1
 40
1
 10
101.001000
 20
44.407200
 30
0.0
 10
97.082300
 20
44.407200
 30
0.0
 10
94.383600
 20
47.660500
 30
0.0
 10
94.383600
 20
51.394300
 30
0.0
  0
LWPOLYLINE
  5
13b
100
AcDbEntity
  8
Ebene_1
 62
7
100
AcDbPolyline
 90
1
 70
1
 10
100.927000
 20
37.937600
 30
0.0
  0
SPLINE
  5
13c
100
AcDbEntity
  8
Ebene_1
 62
7
100
AcDbSpline
 70
8
 71
3
 72
8
 73
4
 74
0
 40
0
 40
0
 40
0
 40
0
 40
1
 40
1
 40
1
 40
1
 10
94.383600
 20
51.468300
 30
0.0
 10
94.383600
 20
55.202100
 30
0.0
 10
97.008400
 20
58.381500
 30
0.0
 10
100.927100
 20
58.381500
 30
0.0
  0
SPLINE
  5
13d
100
AcDbEntity
  8
Ebene_1
 62
7
100
AcDbSpline
 70
8
 71
3
 72
8
 73
4
 74
0
 40
0
 40
0
 40
0
 40
0
 40
1
 40
1
 40
1
 40
1
 10
100.927100
 20
58.381500
 30
0.0
 10
104.882800
 20
58.381500
 30
0.0
 10
107.581500
 20
55.128200
 30
0.0
 10
107.581500
 20
51.394300
 30
0.0
  0
LWPOLYLINE
  5
13e
100
AcDbEntity
  8
Ebene_1
 62
7
100
AcDbPolyline
 90
2
 70
0
 10
94.383600
 20
51.394300
 30
0.0
 10
94.383600
 20
51.468300
 30
0.0
  0
SPLINE
  5
13f
100
AcDbEntity
  8
Ebene_1
 62
7
100
AcDbSpline
 70
8
 71
3
 72
8
 73
4
 74
0
 40
0
 40
0
 40
0
 40
0
 40
1
 40
1
 40
1
 40
1
 10
107.581500
 20
51.320300
 30
0.0
 10
107.581500
 20
47.586400
 30
0.0
 10
104.956700
 20
44.407100
 30
0.0
 10
101.001000
 20
44.407100
 30
0.0
  0
LWPOLYLINE
  5
140
100
AcDbEntity
  8
Ebene_1
 62
7
100
AcDbPolyline
 90
2
 70
0
 10
107.581500
 20
51.394300
 30
0.0
 10
107.581500
 20
51.320300
 30
0.0
  0
LWPOLYLINE
  5
141
100
AcDbEntity
  8
Ebene_1
 62
7
100
AcDbPolyline
 90
1
 70
1
 10
101.001000
 20
44.407100
 30
0.0
  0
LWPOLYLINE
  5
142
100
AcDbEntity
  8
Ebene_1
 62
7
100
AcDbPolyline
 90
4
 70
1
 10
101.999200
 20
66.071000
 30
0.0
 10
108.099100
 20
66.071000
 30
0.0
 10
108.099100
 20
71.357500
 30
0.0
 10
101.999200
 20
71.357500
 30
0.0
  0
LWPOLYLINE
  5
143
100
AcDbEntity
  8
Ebene_1
 62
7
100
AcDbPolyline
 90
4
 70
1
 10
93.903000
 20
66.071000
 30
0.0
 10
100.002900
 20
66.071000
 30
0.0
 10
100.002900
 20
71.357500
 30
0.0
 10
93.903000
 20
71.357500
 30
0.0
  0
LWPOLYLINE
  5
144
100
AcDbEntity
  8
Ebene_1
 62
7
100
AcDbPolyline
 90
4
 70
1
 10
117.787700
 20
46.921100
 30
0.0
 10
129.913500
 20
46.921100
 30
0.0
 10
129.913500
 20
53.094900
 30
0.0
 10
117.787700
 20
53.094900
 30
0.0
  0
SPLINE
  5
145
100
AcDbEntity
  8
Ebene_1
 62
7
100
AcDbSpline
 70
8
 71
3
 72
8
 73
4
 74
0
 40
0
 40
0
 40
0
 40
0
 40
1
 40
1
 40
1
 40
1
 10
171.182300
 20
37.937700
 30
0.0
 10
179.167600
 20
37.937700
 30
0.0
 10
185.156600
 20
43.963600
 30
0.0
 10
185.156600
 20
51.394300
 30
0.0
  0
LWPOLYLINE
  5
146
100
AcDbEntity
  8
Ebene_1
 62
7
100
AcDbPolyline
 90
12
 70
1
 10
133.691800
 20
38.455200
 30
0.0
 10
154.690200
 20
38.455200
 30
0.0
 10
154.690200
 20
44.555100
 30
0.0
 10
140.789900
 20
44.555100
 30
0.0
 10
140.789900
 20
48.658600
 30
0.0
 10
153.211400
 20
48.658600
 30
0.0
 10
153.211400
 20
54.314900
 30
0.0
 10
140.789900
 20
54.314900
 30
0.0
 10
140.789900
 20
58.233600
 30
0.0
 10
154.505300
 20
58.233600
 30
0.0
 10
154.505300
 20
64.333500
 30
0.0
 10
133.691800
 20
64.333500
 30
0.0
  0
SPLINE
  5
147
100
AcDbEntity
  8
Ebene_1
 62
7
100
AcDbSpline
 70
8
 71
3
 72
8
 73
4
 74
0
 40
0
 40
0
 40
0
 40
0
 40
1
 40
1
 40
1
 40
1
 10
185.156600
 20
51.468300
 30
0.0
 10
185.156600
 20
58.899000
 30
0.0
 10
179.241600
 20
64.851000
 30
0.0
 10
171.256300
 20
64.851000
 30
0.0
  0
SPLINE
  5
148
100
AcDbEntity
  8
Ebene_1
 62
7
100
AcDbSpline
 70
8
 71
3
 72
8
 73
4
 74
0
 40
0
 40
0
 40
0
 40
0
 40
1
 40
1
 40
1
 40
1
 10
171.256300
 20
64.851000
 30
0.0
 10
163.271000
 20
64.851000
 30
0.0
 10
157.282000
 20
58.825100
 30
0.0
 10
157.282000
 20
51.394300
 30
0.0
  0
LWPOLYLINE
  5
149
100
AcDbEntity
  8
Ebene_1
 62
7
100
AcDbPolyline
 90
2
 70
0
 10
185.156600
 20
51.394300
 30
0.0
 10
185.156600
 20
51.468300
 30
0.0
  0
SPLINE
  5
14a
100
AcDbEntity
  8
Ebene_1
 62
7
100
AcDbSpline
 70
8
 71
3
 72
8
 73
4
 74
0
 40
0
 40
0
 40
0
 40
0
 40
1
 40
1
 40
1
 40
1
 10
157.282000
 20
51.320300
 30
0.0
 10
157.282000
 20
43.889600
 30
0.0
 10
163.197100
 20
37.937600
 30
0.0
 10
171.182300
 20
37.937600
 30
0.0
  0
LWPOLYLINE
  5
14b
100
AcDbEntity
  8
Ebene_1
 62
7
100
AcDbPolyline
 90
2
 70
0
 10
157.282000
 20
51.394300
 30
0.0
 10
157.282000
 20
51.320300
 30
0.0
  0
SPLINE
  5
14c
100
AcDbEntity
  8
Ebene_1
 62
7
100
AcDbSpline
 70
8
 71
3
 72
8
 73
4
 74
0
 40
0
 40
0
 40
0
 40
0
 40
1
 40
1
 40
1
 40
1
 10
171.256300
 20
44.407200
 30
0.0
 10
167.337600
 20
44.407200
 30
0.0
 10
164.638900
 20
47.660500
 30
0.0
 10
164.638900
 20
51.394300
 30
0.0
  0
LWPOLYLINE
  5
14d
100
AcDbEntity
  8
Ebene_1
 62
7
100
AcDbPolyline
 90
1
 70
1
 10
171.182300
 20
37.937600
 30
0.0
  0
SPLINE
  5
14e
100
AcDbEntity
  8
Ebene_1
 62
7
100
AcDbSpline
 70
8
 71
3
 72
8
 73
4
 74
0
 40
0
 40
0
 40
0
 40
0
 40
1
 40
1
 40
1
 40
1
 10
164.638900
 20
51.468300
 30
0.0
 10
164.638900
 20
55.202100
 30
0.0
 10
167.263600
 20
58.381500
 30
0.0
 10
171.182300
 20
58.381500
 30
0.0
  0
SPLINE
  5
14f
100
AcDbEntity
  8
Ebene_1
 62
7
100
AcDbSpline
 70
8
 71
3
 72
8
 73
4
 74
0
 40
0
 40
0
 40
0
 40
0
 40
1
 40
1
 40
1
 40
1
 10
171.182300
 20
58.381500
 30
0.0
 10
175.138000
 20
58.381500
 30
0.0
 10
177.836700
 20
55.128200
 30
0.0
 10
177.836700
 20
51.394300
 30
0.0
  0
LWPOLYLINE
  5
150
100
AcDbEntity
  8
Ebene_1
 62
7
100
AcDbPolyline
 90
2
 70
0
 10
164.638900
 20
51.394300
 30
0.0
 10
164.638900
 20
51.468300
 30
0.0
  0
SPLINE
  5
151
100
AcDbEntity
  8
Ebene_1
 62
7
100
AcDbSpline
 70
8
 71
3
 72
8
 73
4
 74
0
 40
0
 40
0
 40
0
 40
0
 40
1
 40
1
 40
1
 40
1
 10
177.836700
 20
51.320300
 30
0.0
 10
177.836700
 20
47.586400
 30
0.0
 10
175.212000
 20
44.407100
 30
0.0
 10
171.256300
 20
44.407100
 30
0.0
  0
LWPOLYLINE
  5
152
100
AcDbEntity
  8
Ebene_1
 62
7
100
AcDbPolyline
 90
2
 70
0
 10
177.836700
 20
51.394300
 30
0.0
 10
177.836700
 20
51.320300
 30
0.0
  0
LWPOLYLINE
  5
153
100
AcDbEntity
  8
Ebene_1
 62
7
100
AcDbPolyline
 90
1
 70
1
 10
171.256300
 20
44.407100
 30
0.0
  0
SPLINE
  5
154
100
AcDbEntity
  8
Ebene_1
 62
7
100
AcDbSpline
 70
8
 71
3
 72
8
 73
4
 74
0
 40
0
 40
0
 40
0
 40
0
 40
1
 40
1
 40
1
 40
1
 10
212.270400
 20
47.401700
 30
0.0
 10
216.115200
 20
50.174400
 30
0.0
 10
218.259400
 20
52.318600
 30
0.0
 10
218.259400
 20
56.459100
 30
0.0
  0
LWPOLYLINE
  5
155
100
AcDbEntity
  8
Ebene_1
 62
7
100
AcDbPolyline
 90
5
 70
0
 10
198.037400
 20
38.455200
 30
0.0
 10
218.518100
 20
38.455200
 30
0.0
 10
218.518100
 20
44.296300
 30
0.0
 10
207.834100
 20
44.296300
 30
0.0
 10
212.270400
 20
47.401700
 30
0.0
  0
SPLINE
  5
156
100
AcDbEntity
  8
Ebene_1
 62
7
100
AcDbSpline
 70
8
 71
3
 72
8
 73
4
 74
0
 40
0
 40
0
 40
0
 40
0
 40
1
 40
1
 40
1
 40
1
 10
218.259400
 20
56.533100
 30
0.0
 10
218.259400
 20
61.413000
 30
0.0
 10
214.377600
 20
64.777200
 30
0.0
 10
208.721400
 20
64.777200
 30
0.0
  0
SPLINE
  5
157
100
AcDbEntity
  8
Ebene_1
 62
7
100
AcDbSpline
 70
8
 71
3
 72
8
 73
4
 74
0
 40
0
 40
0
 40
0
 40
0
 40
1
 40
1
 40
1
 40
1
 10
208.721400
 20
64.777200
 30
0.0
 10
203.693600
 20
64.777200
 30
0.0
 10
200.957900
 20
62.817800
 30
0.0
 10
198.185200
 20
59.231900
 30
0.0
  0
LWPOLYLINE
  5
158
100
AcDbEntity
  8
Ebene_1
 62
7
100
AcDbPolyline
 90
2
 70
0
 10
218.259400
 20
56.459100
 30
0.0
 10
218.259400
 20
56.533100
 30
0.0
  0
SPLINE
  5
159
100
AcDbEntity
  8
Ebene_1
 62
7
100
AcDbSpline
 70
8
 71
3
 72
8
 73
4
 74
0
 40
0
 40
0
 40
0
 40
0
 40
1
 40
1
 40
1
 40
1
 10
203.028200
 20
55.202200
 30
0.0
 10
205.061500
 20
57.531300
 30
0.0
 10
206.429300
 20
58.529400
 30
0.0
 10
208.166800
 20
58.529400
 30
0.0
  0
SPLINE
  5
15a
100
AcDbEntity
  8
Ebene_1
 62
7
100
AcDbSpline
 70
8
 71
3
 72
8
 73
4
 74
0
 40
0
 40
0
 40
0
 40
0
 40
1
 40
1
 40
1
 40
1
 10
208.166800
 20
58.529400
 30
0.0
 10
209.904400
 20
58.529400
 30
0.0
 10
211.050400
 20
57.531300
 30
0.0
 10
211.050400
 20
55.904600
 30
0.0
  0
SPLINE
  5
15b
100
AcDbEntity
  8
Ebene_1
 62
7
100
AcDbSpline
 70
8
 71
3
 72
8
 73
4
 74
0
 40
0
 40
0
 40
0
 40
0
 40
1
 40
1
 40
1
 40
1
 10
211.050400
 20
55.904600
 30
0.0
 10
211.050400
 20
54.352000
 30
0.0
 10
210.126200
 20
53.132000
 30
0.0
 10
207.723200
 20
51.246600
 30
0.0
  0
LWPOLYLINE
  5
15c
100
AcDbEntity
  8
Ebene_1
 62
7
100
AcDbPolyline
 90
2
 70
0
 10
198.185200
 20
59.231900
 30
0.0
 10
203.028200
 20
55.202200
 30
0.0
  0
LWPOLYLINE
  5
15d
100
AcDbEntity
  8
Ebene_1
 62
7
100
AcDbPolyline
 90
3
 70
0
 10
207.723200
 20
51.246600
 30
0.0
 10
198.037400
 20
43.852800
 30
0.0
 10
198.037400
 20
38.455200
 30
0.0
  0
LWPOLYLINE
  5
15e
100
AcDbEntity
  8
Ebene_1
 62
7
100
AcDbPolyline
 90
7
 70
1
 10
225.876700
 20
38.455200
 30
0.0
 10
232.937700
 20
38.455200
 30
0.0
 10
232.937700
 20
64.518300
 30
0.0
 10
227.725100
 20
64.518300
 30
0.0
 10
220.146500
 20
62.374100
 30
0.0
 10
221.514300
 20
56.828800
 30
0.0
 10
225.876700
 20
57.826900
 30
0.0
  0
SPLINE
  5
15f
100
AcDbEntity
  8
Ebene_1
 62
7
100
AcDbSpline
 70
8
 71
3
 72
8
 73
4
 74
0
 40
0
 40
0
 40
0
 40
0
 40
1
 40
1
 40
1
 40
1
 10
146.528908
 20
78.104783
 30
0.0
 10
146.446191
 20
78.158026
 30
0.0
 10
145.975181
 20
78.636262
 30
0.0
 10
145.482493
 20
79.165555
 30
0.0
  0
SPLINE
  5
160
100
AcDbEntity
  8
Ebene_1
 62
7
100
AcDbSpline
 70
8
 71
3
 72
8
 73
4
 74
0
 40
0
 40
0
 40
0
 40
0
 40
1
 40
1
 40
1
 40
1
 10
145.482493
 20
79.165555
 30
0.0
 10
138.998160
 20
84.997756
 30
0.0
 10
121.998143
 20
86.997791
 30
0.0
 10
120.197484
 20
98.947234
 30
0.0
  0
SPLINE
  5
161
100
AcDbEntity
  8
Ebene_1
 62
7
100
AcDbSpline
 70
8
 71
3
 72
8
 73
4
 74
0
 40
0
 40
0
 40
0
 40
0
 40
1
 40
1
 40
1
 40
1
 10
120.197484
 20
98.947234
 30
0.0
 10
119.792266
 20
100.319952
 30
0.0
 10
119.583668
 20
100.516761
 30
0.0
 10
118.053026
 20
100.971514
 30
0.0
  0
SPLINE
  5
162
100
AcDbEntity
  8
Ebene_1
 62
7
100
AcDbSpline
 70
8
 71
3
 72
8
 73
4
 74
0
 40
0
 40
0
 40
0
 40
0
 40
1
 40
1
 40
1
 40
1
 10
118.053026
 20
100.971514
 30
0.0
 10
116.555567
 20
101.416188
 30
0.0
 10
116.489774
 20
101.485784
 30
0.0
 10
116.500803
 20
102.611303
 30
0.0
  0
SPLINE
  5
163
100
AcDbEntity
  8
Ebene_1
 62
7
100
AcDbSpline
 70
8
 71
3
 72
8
 73
4
 74
0
 40
0
 40
0
 40
0
 40
0
 40
1
 40
1
 40
1
 40
1
 10
116.500803
 20
102.611303
 30
0.0
 10
116.522670
 20
104.876793
 30
0.0
 10
118.135363
 20
108.836172
 30
0.0
 10
119.145839
 20
109.106475
 30
0.0
  0
SPLINE
  5
164
100
AcDbEntity
  8
Ebene_1
 62
7
100
AcDbSpline
 70
8
 71
3
 72
8
 73
4
 74
0
 40
0
 40
0
 40
0
 40
0
 40
1
 40
1
 40
1
 40
1
 10
119.145839
 20
109.106475
 30
0.0
 10
119.904837
 20
109.309654
 30
0.0
 10
121.930829
 20
107.779013
 30
0.0
 10
123.415833
 20
105.880614
 30
0.0
  0
SPLINE
  5
165
100
AcDbEntity
  8
Ebene_1
 62
7
100
AcDbSpline
 70
8
 71
3
 72
8
 73
4
 74
0
 40
0
 40
0
 40
0
 40
0
 40
1
 40
1
 40
1
 40
1
 10
123.415833
 20
105.880614
 30
0.0
 10
123.943700
 20
105.205854
 30
0.0
 10
124.502561
 20
104.198040
 30
0.0
 10
124.501991
 20
103.922032
 30
0.0
  0
SPLINE
  5
166
100
AcDbEntity
  8
Ebene_1
 62
7
100
AcDbSpline
 70
8
 71
3
 72
8
 73
4
 74
0
 40
0
 40
0
 40
0
 40
0
 40
1
 40
1
 40
1
 40
1
 10
124.501991
 20
103.922032
 30
0.0
 10
124.501515
 20
103.699933
 30
0.0
 10
124.248041
 20
103.305744
 30
0.0
 10
123.658850
 20
102.610828
 30
0.0
  0
SPLINE
  5
167
100
AcDbEntity
  8
Ebene_1
 62
7
100
AcDbSpline
 70
8
 71
3
 72
8
 73
4
 74
0
 40
0
 40
0
 40
0
 40
0
 40
1
 40
1
 40
1
 40
1
 10
123.658850
 20
102.610828
 30
0.0
 10
122.478186
 20
101.218428
 30
0.0
 10
122.457649
 20
101.012112
 30
0.0
 10
123.315622
 20
99.160111
 30
0.0
  0
SPLINE
  5
168
100
AcDbEntity
  8
Ebene_1
 62
7
100
AcDbSpline
 70
8
 71
3
 72
8
 73
4
 74
0
 40
0
 40
0
 40
0
 40
0
 40
1
 40
1
 40
1
 40
1
 10
123.315622
 20
99.160111
 30
0.0
 10
125.989943
 20
91.017733
 30
0.0
 10
143.110422
 20
92.159606
 30
0.0
 10
143.998154
 20
96.997779
 30
0.0
  0
SPLINE
  5
169
100
AcDbEntity
  8
Ebene_1
 62
7
100
AcDbSpline
 70
8
 71
3
 72
8
 73
4
 74
0
 40
0
 40
0
 40
0
 40
0
 40
1
 40
1
 40
1
 40
1
 10
143.998154
 20
96.997779
 30
0.0
 10
144.068511
 20
97.886367
 30
0.0
 10
144.317137
 20
137.946786
 30
0.0
 10
144.307819
 20
139.805347
 30
0.0
  0
LWPOLYLINE
  5
16a
100
AcDbEntity
  8
Ebene_1
 62
7
100
AcDbPolyline
 90
12
 70
1
 10
237.739100
 20
38.455200
 30
0.0
 10
258.737400
 20
38.455200
 30
0.0
 10
258.737400
 20
44.555100
 30
0.0
 10
244.837100
 20
44.555100
 30
0.0
 10
244.837100
 20
48.658600
 30
0.0
 10
257.258700
 20
48.658600
 30
0.0
 10
257.258700
 20
54.314900
 30
0.0
 10
244.837100
 20
54.314900
 30
0.0
 10
244.837100
 20
58.233600
 30
0.0
 10
258.552600
 20
58.233600
 30
0.0
 10
258.552600
 20
64.333500
 30
0.0
 10
237.739100
 20
64.333500
 30
0.0
  0
SPLINE
  5
16b
100
AcDbEntity
  8
Ebene_1
 62
7
100
AcDbSpline
 70
8
 71
3
 72
8
 73
4
 74
0
 40
0
 40
0
 40
0
 40
0
 40
1
 40
1
 40
1
 40
1
 10
144.065468
 20
140.384745
 30
0.0
 10
143.699328
 20
140.384745
 30
0.0
 10
143.128391
 20
140.708482
 30
0.0
 10
142.862081
 20
141.067112
 30
0.0
  0
LWPOLYLINE
  5
16c
100
AcDbEntity
  8
Ebene_1
 62
7
100
AcDbPolyline
 90
3
 70
0
 10
144.307819
 20
139.805347
 30
0.0
 10
144.307819
 20
140.384745
 30
0.0
 10
144.065468
 20
140.384745
 30
0.0
  0
SPLINE
  5
16d
100
AcDbEntity
  8
Ebene_1
 62
7
100
AcDbSpline
 70
8
 71
3
 72
8
 73
4
 74
0
 40
0
 40
0
 40
0
 40
0
 40
1
 40
1
 40
1
 40
1
 10
141.393335
 20
141.488302
 30
0.0
 10
140.716198
 20
141.544397
 30
0.0
 10
139.094283
 20
141.665525
 30
0.0
 10
137.789069
 20
141.758605
 30
0.0
  0
LWPOLYLINE
  5
16e
100
AcDbEntity
  8
Ebene_1
 62
7
100
AcDbPolyline
 90
3
 70
0
 10
142.862081
 20
141.067112
 30
0.0
 10
142.624579
 20
141.386950
 30
0.0
 10
141.393335
 20
141.488302
 30
0.0
  0
SPLINE
  5
16f
100
AcDbEntity
  8
Ebene_1
 62
7
100
AcDbSpline
 70
8
 71
3
 72
8
 73
4
 74
0
 40
0
 40
0
 40
0
 40
0
 40
1
 40
1
 40
1
 40
1
 10
135.047529
 20
141.540784
 30
0.0
 10
134.566726
 20
141.035736
 30
0.0
 10
134.020224
 20
140.814207
 30
0.0
 10
133.258564
 20
140.815348
 30
0.0
  0
SPLINE
  5
170
100
AcDbEntity
  8
Ebene_1
 62
7
100
AcDbSpline
 70
8
 71
3
 72
8
 73
4
 74
0
 40
0
 40
0
 40
0
 40
0
 40
1
 40
1
 40
1
 40
1
 10
133.258564
 20
140.815348
 30
0.0
 10
131.912181
 20
140.815348
 30
0.0
 10
130.900659
 20
141.845410
 30
0.0
 10
130.802255
 20
143.312160
 30
0.0
  0
SPLINE
  5
171
100
AcDbEntity
  8
Ebene_1
 62
7
100
AcDbSpline
 70
8
 71
3
 72
8
 73
4
 74
0
 40
0
 40
0
 40
0
 40
0
 40
1
 40
1
 40
1
 40
1
 10
130.802255
 20
143.312160
 30
0.0
 10
130.711932
 20
144.652078
 30
0.0
 10
131.475589
 20
145.761053
 30
0.0
 10
132.722046
 20
146.101618
 30
0.0
  0
SPLINE
  5
172
100
AcDbEntity
  8
Ebene_1
 62
7
100
AcDbSpline
 70
8
 71
3
 72
8
 73
4
 74
0
 40
0
 40
0
 40
0
 40
0
 40
1
 40
1
 40
1
 40
1
 10
132.722046
 20
146.101618
 30
0.0
 10
133.572698
 20
146.333986
 30
0.0
 10
134.493231
 20
146.054080
 30
0.0
 10
135.110945
 20
145.375422
 30
0.0
  0
LWPOLYLINE
  5
173
100
AcDbEntity
  8
Ebene_1
 62
7
100
AcDbPolyline
 90
3
 70
0
 10
137.789069
 20
141.758605
 30
0.0
 10
135.415952
 20
141.927842
 30
0.0
 10
135.047529
 20
141.540784
 30
0.0
  0
SPLINE
  5
174
100
AcDbEntity
  8
Ebene_1
 62
7
100
AcDbSpline
 70
8
 71
3
 72
8
 73
4
 74
0
 40
0
 40
0
 40
0
 40
0
 40
1
 40
1
 40
1
 40
1
 10
137.714623
 20
145.189452
 30
0.0
 10
138.972204
 20
145.278824
 30
0.0
 10
140.417752
 20
145.376182
 30
0.0
 10
140.926888
 20
145.405846
 30
0.0
  0
SPLINE
  5
175
100
AcDbEntity
  8
Ebene_1
 62
7
100
AcDbSpline
 70
8
 71
3
 72
8
 73
4
 74
0
 40
0
 40
0
 40
0
 40
0
 40
1
 40
1
 40
1
 40
1
 10
140.926888
 20
145.405846
 30
0.0
 10
142.434141
 20
145.494268
 30
0.0
 10
142.737341
 20
145.565290
 30
0.0
 10
143.010686
 20
145.897393
 30
0.0
  0
SPLINE
  5
176
100
AcDbEntity
  8
Ebene_1
 62
7
100
AcDbSpline
 70
8
 71
3
 72
8
 73
4
 74
0
 40
0
 40
0
 40
0
 40
0
 40
1
 40
1
 40
1
 40
1
 10
143.010686
 20
145.897393
 30
0.0
 10
143.284983
 20
146.230447
 30
0.0
 10
143.844985
 20
146.551142
 30
0.0
 10
144.203140
 20
146.580235
 30
0.0
  0
SPLINE
  5
177
100
AcDbEntity
  8
Ebene_1
 62
7
100
AcDbSpline
 70
8
 71
3
 72
8
 73
4
 74
0
 40
0
 40
0
 40
0
 40
0
 40
1
 40
1
 40
1
 40
1
 10
144.203140
 20
146.580235
 30
0.0
 10
144.421911
 20
146.598300
 30
0.0
 10
144.459086
 20
146.639183
 30
0.0
 10
144.500350
 20
146.904827
 30
0.0
  0
SPLINE
  5
178
100
AcDbEntity
  8
Ebene_1
 62
7
100
AcDbSpline
 70
8
 71
3
 72
8
 73
4
 74
0
 40
0
 40
0
 40
0
 40
0
 40
1
 40
1
 40
1
 40
1
 10
144.500350
 20
146.904827
 30
0.0
 10
144.526020
 20
147.072162
 30
0.0
 10
144.547888
 20
147.697768
 30
0.0
 10
144.548839
 20
148.294850
 30
0.0
  0
LWPOLYLINE
  5
179
100
AcDbEntity
  8
Ebene_1
 62
7
100
AcDbPolyline
 90
3
 70
0
 10
135.110945
 20
145.375422
 30
0.0
 10
135.428121
 20
145.026965
 30
0.0
 10
137.714623
 20
145.189452
 30
0.0
  0
SPLINE
  5
17a
100
AcDbEntity
  8
Ebene_1
 62
7
100
AcDbSpline
 70
8
 71
3
 72
8
 73
4
 74
0
 40
0
 40
0
 40
0
 40
0
 40
1
 40
1
 40
1
 40
1
 10
144.270454
 20
149.678503
 30
0.0
 10
144.105020
 20
149.854870
 30
0.0
 10
143.952137
 20
150.132019
 30
0.0
 10
143.895281
 20
150.358872
 30
0.0
  0
SPLINE
  5
17b
100
AcDbEntity
  8
Ebene_1
 62
7
100
AcDbSpline
 70
8
 71
3
 72
8
 73
4
 74
0
 40
0
 40
0
 40
0
 40
0
 40
1
 40
1
 40
1
 40
1
 10
143.895281
 20
150.358872
 30
0.0
 10
143.809712
 20
150.700673
 30
0.0
 10
143.751144
 20
150.768368
 30
0.0
 10
143.349350
 20
150.992084
 30
0.0
  0
SPLINE
  5
17c
100
AcDbEntity
  8
Ebene_1
 62
7
100
AcDbSpline
 70
8
 71
3
 72
8
 73
4
 74
0
 40
0
 40
0
 40
0
 40
0
 40
1
 40
1
 40
1
 40
1
 10
143.349350
 20
150.992084
 30
0.0
 10
143.101960
 20
151.129755
 30
0.0
 10
142.622488
 20
151.464520
 30
0.0
 10
142.284014
 20
151.736155
 30
0.0
  0
SPLINE
  5
17d
100
AcDbEntity
  8
Ebene_1
 62
7
100
AcDbSpline
 70
8
 71
3
 72
8
 73
4
 74
0
 40
0
 40
0
 40
0
 40
0
 40
1
 40
1
 40
1
 40
1
 10
142.284014
 20
151.736155
 30
0.0
 10
140.845027
 20
152.890292
 30
0.0
 10
139.892453
 20
154.416370
 30
0.0
 10
139.430474
 20
156.308208
 30
0.0
  0
SPLINE
  5
17e
100
AcDbEntity
  8
Ebene_1
 62
7
100
AcDbSpline
 70
8
 71
3
 72
8
 73
4
 74
0
 40
0
 40
0
 40
0
 40
0
 40
1
 40
1
 40
1
 40
1
 10
139.430474
 20
156.308208
 30
0.0
 10
139.160932
 20
157.411955
 30
0.0
 10
139.126419
 20
157.967203
 30
0.0
 10
139.349659
 20
159.025883
 30
0.0
  0
SPLINE
  5
17f
100
AcDbEntity
  8
Ebene_1
 62
7
100
AcDbSpline
 70
8
 71
3
 72
8
 73
4
 74
0
 40
0
 40
0
 40
0
 40
0
 40
1
 40
1
 40
1
 40
1
 10
139.349659
 20
159.025883
 30
0.0
 10
140.020521
 20
162.206868
 30
0.0
 10
142.337257
 20
164.684284
 30
0.0
 10
145.313066
 20
165.402874
 30
0.0
  0
SPLINE
  5
180
100
AcDbEntity
  8
Ebene_1
 62
7
100
AcDbSpline
 70
8
 71
3
 72
8
 73
4
 74
0
 40
0
 40
0
 40
0
 40
0
 40
1
 40
1
 40
1
 40
1
 10
145.313066
 20
165.402874
 30
0.0
 10
146.099637
 20
165.592838
 30
0.0
 10
147.949261
 20
165.589130
 30
0.0
 10
148.674126
 20
165.392416
 30
0.0
  0
SPLINE
  5
181
100
AcDbEntity
  8
Ebene_1
 62
7
100
AcDbSpline
 70
8
 71
3
 72
8
 73
4
 74
0
 40
0
 40
0
 40
0
 40
0
 40
1
 40
1
 40
1
 40
1
 10
148.674126
 20
165.392416
 30
0.0
 10
149.593138
 20
165.147783
 30
0.0
 10
150.475451
 20
164.739619
 30
0.0
 10
151.211155
 20
164.218978
 30
0.0
  0
SPLINE
  5
182
100
AcDbEntity
  8
Ebene_1
 62
7
100
AcDbSpline
 70
8
 71
3
 72
8
 73
4
 74
0
 40
0
 40
0
 40
0
 40
0
 40
1
 40
1
 40
1
 40
1
 10
151.211155
 20
164.218978
 30
0.0
 10
155.264755
 20
161.349750
 30
0.0
 10
155.943983
 20
156.531734
 30
0.0
 10
152.665355
 20
152.696526
 30
0.0
  0
SPLINE
  5
183
100
AcDbEntity
  8
Ebene_1
 62
7
100
AcDbSpline
 70
8
 71
3
 72
8
 73
4
 74
0
 40
0
 40
0
 40
0
 40
0
 40
1
 40
1
 40
1
 40
1
 10
152.665355
 20
152.696526
 30
0.0
 10
152.175519
 20
152.123688
 30
0.0
 10
151.237682
 20
151.355562
 30
0.0
 10
150.579655
 20
150.988566
 30
0.0
  0
SPLINE
  5
184
100
AcDbEntity
  8
Ebene_1
 62
7
100
AcDbSpline
 70
8
 71
3
 72
8
 73
4
 74
0
 40
0
 40
0
 40
0
 40
0
 40
1
 40
1
 40
1
 40
1
 10
150.579655
 20
150.988566
 30
0.0
 10
150.178241
 20
150.764660
 30
0.0
 10
150.119674
 20
150.696680
 30
0.0
 10
150.034010
 20
150.354974
 30
0.0
  0
SPLINE
  5
185
100
AcDbEntity
  8
Ebene_1
 62
7
100
AcDbSpline
 70
8
 71
3
 72
8
 73
4
 74
0
 40
0
 40
0
 40
0
 40
0
 40
1
 40
1
 40
1
 40
1
 10
150.034010
 20
150.354974
 30
0.0
 10
149.976013
 20
150.125078
 30
0.0
 10
149.823605
 20
149.850497
 30
0.0
 10
149.651516
 20
149.666903
 30
0.0
  0
LWPOLYLINE
  5
186
100
AcDbEntity
  8
Ebene_1
 62
7
100
AcDbPolyline
 90
3
 70
0
 10
144.548839
 20
148.294850
 30
0.0
 10
144.549695
 20
149.380722
 30
0.0
 10
144.270454
 20
149.678503
 30
0.0
  0
SPLINE
  5
187
100
AcDbEntity
  8
Ebene_1
 62
7
100
AcDbSpline
 70
8
 71
3
 72
8
 73
4
 74
0
 40
0
 40
0
 40
0
 40
0
 40
1
 40
1
 40
1
 40
1
 10
149.409830
 20
148.240466
 30
0.0
 10
149.434550
 20
147.623893
 30
0.0
 10
149.455467
 20
146.993914
 30
0.0
 10
149.457369
 20
146.840460
 30
0.0
  0
SPLINE
  5
188
100
AcDbEntity
  8
Ebene_1
 62
7
100
AcDbSpline
 70
8
 71
3
 72
8
 73
4
 74
0
 40
0
 40
0
 40
0
 40
0
 40
1
 40
1
 40
1
 40
1
 10
149.457369
 20
146.840460
 30
0.0
 10
149.457369
 20
146.609424
 30
0.0
 10
149.490646
 20
146.561410
 30
0.0
 10
149.641057
 20
146.560649
 30
0.0
  0
SPLINE
  5
189
100
AcDbEntity
  8
Ebene_1
 62
7
100
AcDbSpline
 70
8
 71
3
 72
8
 73
4
 74
0
 40
0
 40
0
 40
0
 40
0
 40
1
 40
1
 40
1
 40
1
 10
149.641057
 20
146.560649
 30
0.0
 10
149.931517
 20
146.560649
 30
0.0
 10
150.671024
 20
146.152199
 30
0.0
 10
150.944275
 20
145.843295
 30
0.0
  0
SPLINE
  5
18a
100
AcDbEntity
  8
Ebene_1
 62
7
100
AcDbSpline
 70
8
 71
3
 72
8
 73
4
 74
0
 40
0
 40
0
 40
0
 40
0
 40
1
 40
1
 40
1
 40
1
 10
150.944275
 20
145.843295
 30
0.0
 10
151.233689
 20
145.516040
 30
0.0
 10
150.735011
 20
145.581643
 30
0.0
 10
155.569571
 20
145.233092
 30
0.0
  0
LWPOLYLINE
  5
18b
100
AcDbEntity
  8
Ebene_1
 62
7
100
AcDbPolyline
 90
3
 70
0
 10
149.651516
 20
149.666903
 30
0.0
 10
149.365144
 20
149.361517
 30
0.0
 10
149.409830
 20
148.240466
 30
0.0
  0
SPLINE
  5
18c
100
AcDbEntity
  8
Ebene_1
 62
7
100
AcDbSpline
 70
8
 71
3
 72
8
 73
4
 74
0
 40
0
 40
0
 40
0
 40
0
 40
1
 40
1
 40
1
 40
1
 10
158.817204
 20
145.370953
 30
0.0
 10
159.437866
 20
146.052844
 30
0.0
 10
160.355452
 20
146.330373
 30
0.0
 10
161.214376
 20
146.095629
 30
0.0
  0
SPLINE
  5
18d
100
AcDbEntity
  8
Ebene_1
 62
7
100
AcDbSpline
 70
8
 71
3
 72
8
 73
4
 74
0
 40
0
 40
0
 40
0
 40
0
 40
1
 40
1
 40
1
 40
1
 10
161.214376
 20
146.095629
 30
0.0
 10
162.078719
 20
145.859553
 30
0.0
 10
162.842471
 20
145.100270
 30
0.0
 10
163.061528
 20
144.259220
 30
0.0
  0
SPLINE
  5
18e
100
AcDbEntity
  8
Ebene_1
 62
7
100
AcDbSpline
 70
8
 71
3
 72
8
 73
4
 74
0
 40
0
 40
0
 40
0
 40
0
 40
1
 40
1
 40
1
 40
1
 10
163.061528
 20
144.259220
 30
0.0
 10
163.395628
 20
142.976444
 30
0.0
 10
162.796834
 20
141.578720
 30
0.0
 10
161.674452
 20
141.021570
 30
0.0
  0
SPLINE
  5
18f
100
AcDbEntity
  8
Ebene_1
 62
7
100
AcDbSpline
 70
8
 71
3
 72
8
 73
4
 74
0
 40
0
 40
0
 40
0
 40
0
 40
1
 40
1
 40
1
 40
1
 10
161.674452
 20
141.021570
 30
0.0
 10
160.782822
 20
140.578892
 30
0.0
 10
159.582573
 20
140.800326
 30
0.0
 10
158.881286
 20
141.536981
 30
0.0
  0
LWPOLYLINE
  5
190
100
AcDbEntity
  8
Ebene_1
 62
7
100
AcDbPolyline
 90
3
 70
0
 10
155.569571
 20
145.233092
 30
0.0
 10
158.499458
 20
145.021831
 30
0.0
 10
158.817204
 20
145.370953
 30
0.0
  0
SPLINE
  5
191
100
AcDbEntity
  8
Ebene_1
 62
7
100
AcDbSpline
 70
8
 71
3
 72
8
 73
4
 74
0
 40
0
 40
0
 40
0
 40
0
 40
1
 40
1
 40
1
 40
1
 10
156.139652
 20
141.754707
 30
0.0
 10
154.834532
 20
141.661532
 30
0.0
 10
153.209480
 20
141.539738
 30
0.0
 10
152.528540
 20
141.483928
 30
0.0
  0
LWPOLYLINE
  5
192
100
AcDbEntity
  8
Ebene_1
 62
7
100
AcDbPolyline
 90
3
 70
0
 10
158.881286
 20
141.536981
 30
0.0
 10
158.512768
 20
141.924039
 30
0.0
 10
156.139652
 20
141.754707
 30
0.0
  0
SPLINE
  5
193
100
AcDbEntity
  8
Ebene_1
 62
7
100
AcDbSpline
 70
8
 71
3
 72
8
 73
4
 74
0
 40
0
 40
0
 40
0
 40
0
 40
1
 40
1
 40
1
 40
1
 10
151.047814
 20
141.098012
 30
0.0
 10
150.769619
 20
140.771898
 30
0.0
 10
150.085922
 20
140.381418
 30
0.0
 10
149.793370
 20
140.381418
 30
0.0
  0
LWPOLYLINE
  5
194
100
AcDbEntity
  8
Ebene_1
 62
7
100
AcDbPolyline
 90
3
 70
0
 10
152.528540
 20
141.483928
 30
0.0
 10
151.290545
 20
141.382481
 30
0.0
 10
151.047814
 20
141.098012
 30
0.0
  0
SPLINE
  5
195
100
AcDbEntity
  8
Ebene_1
 62
7
100
AcDbSpline
 70
8
 71
3
 72
8
 73
4
 74
0
 40
0
 40
0
 40
0
 40
0
 40
1
 40
1
 40
1
 40
1
 10
149.648283
 20
137.742086
 30
0.0
 10
149.765988
 20
131.963318
 30
0.0
 10
150.180618
 20
98.362036
 30
0.0
 10
150.219695
 20
96.950906
 30
0.0
  0
SPLINE
  5
196
100
AcDbEntity
  8
Ebene_1
 62
7
100
AcDbSpline
 70
8
 71
3
 72
8
 73
4
 74
0
 40
0
 40
0
 40
0
 40
0
 40
1
 40
1
 40
1
 40
1
 10
150.219695
 20
96.950906
 30
0.0
 10
150.998088
 20
91.997785
 30
0.0
 10
167.998105
 20
90.997767
 30
0.0
 10
171.157793
 20
100.458099
 30
0.0
  0
SPLINE
  5
197
100
AcDbEntity
  8
Ebene_1
 62
7
100
AcDbSpline
 70
8
 71
3
 72
8
 73
4
 74
0
 40
0
 40
0
 40
0
 40
0
 40
1
 40
1
 40
1
 40
1
 10
171.157793
 20
100.458099
 30
0.0
 10
171.364300
 20
101.131338
 30
0.0
 10
171.167300
 20
101.574301
 30
0.0
 10
170.093978
 20
102.814578
 30
0.0
  0
SPLINE
  5
198
100
AcDbEntity
  8
Ebene_1
 62
7
100
AcDbSpline
 70
8
 71
3
 72
8
 73
4
 74
0
 40
0
 40
0
 40
0
 40
0
 40
1
 40
1
 40
1
 40
1
 10
170.093978
 20
102.814578
 30
0.0
 10
169.490241
 20
103.514153
 30
0.0
 10
169.381663
 20
103.760877
 30
0.0
 10
169.496896
 20
104.171038
 30
0.0
  0
SPLINE
  5
199
100
AcDbEntity
  8
Ebene_1
 62
7
100
AcDbSpline
 70
8
 71
3
 72
8
 73
4
 74
0
 40
0
 40
0
 40
0
 40
0
 40
1
 40
1
 40
1
 40
1
 10
169.496896
 20
104.171038
 30
0.0
 10
169.737821
 20
105.028536
 30
0.0
 10
171.473353
 20
107.169000
 30
0.0
 10
172.723517
 20
108.150573
 30
0.0
  0
SPLINE
  5
19a
100
AcDbEntity
  8
Ebene_1
 62
7
100
AcDbSpline
 70
8
 71
3
 72
8
 73
4
 74
0
 40
0
 40
0
 40
0
 40
0
 40
1
 40
1
 40
1
 40
1
 10
172.723517
 20
108.150573
 30
0.0
 10
173.339805
 20
108.634419
 30
0.0
 10
174.284488
 20
109.139276
 30
0.0
 10
174.572666
 20
109.138896
 30
0.0
  0
SPLINE
  5
19b
100
AcDbEntity
  8
Ebene_1
 62
7
100
AcDbSpline
 70
8
 71
3
 72
8
 73
4
 74
0
 40
0
 40
0
 40
0
 40
0
 40
1
 40
1
 40
1
 40
1
 10
174.572666
 20
109.138896
 30
0.0
 10
175.226414
 20
109.138896
 30
0.0
 10
176.048163
 20
107.901091
 30
0.0
 10
176.757721
 20
105.850285
 30
0.0
  0
SPLINE
  5
19c
100
AcDbEntity
  8
Ebene_1
 62
7
100
AcDbSpline
 70
8
 71
3
 72
8
 73
4
 74
0
 40
0
 40
0
 40
0
 40
0
 40
1
 40
1
 40
1
 40
1
 10
176.757721
 20
105.850285
 30
0.0
 10
177.317628
 20
104.231982
 30
0.0
 10
177.618071
 20
102.242405
 30
0.0
 10
177.375435
 20
101.759225
 30
0.0
  0
SPLINE
  5
19d
100
AcDbEntity
  8
Ebene_1
 62
7
100
AcDbSpline
 70
8
 71
3
 72
8
 73
4
 74
0
 40
0
 40
0
 40
0
 40
0
 40
1
 40
1
 40
1
 40
1
 10
177.375435
 20
101.759225
 30
0.0
 10
177.224168
 20
101.458022
 30
0.0
 10
176.747833
 20
101.199128
 30
0.0
 10
175.955368
 20
100.987106
 30
0.0
  0
SPLINE
  5
19e
100
AcDbEntity
  8
Ebene_1
 62
7
100
AcDbSpline
 70
8
 71
3
 72
8
 73
4
 74
0
 40
0
 40
0
 40
0
 40
0
 40
1
 40
1
 40
1
 40
1
 10
175.955368
 20
100.987106
 30
0.0
 10
175.128580
 20
100.765958
 30
0.0
 10
174.522466
 20
100.471315
 30
0.0
 10
174.233907
 20
100.150145
 30
0.0
  0
SPLINE
  5
19f
100
AcDbEntity
  8
Ebene_1
 62
7
100
AcDbSpline
 70
8
 71
3
 72
8
 73
4
 74
0
 40
0
 40
0
 40
0
 40
0
 40
1
 40
1
 40
1
 40
1
 10
174.233907
 20
100.150145
 30
0.0
 10
174.084637
 20
99.984046
 30
0.0
 10
173.905037
 20
99.531956
 30
0.0
 10
173.644526
 20
98.667042
 30
0.0
  0
SPLINE
  5
1a0
100
AcDbEntity
  8
Ebene_1
 62
7
100
AcDbSpline
 70
8
 71
3
 72
8
 73
4
 74
0
 40
0
 40
0
 40
0
 40
0
 40
1
 40
1
 40
1
 40
1
 10
173.644526
 20
98.667042
 30
0.0
 10
171.143816
 20
86.468879
 30
0.0
 10
154.761703
 20
85.494627
 30
0.0
 10
148.102715
 20
78.799889
 30
0.0
  0
SPLINE
  5
1a1
100
AcDbEntity
  8
Ebene_1
 62
7
100
AcDbSpline
 70
8
 71
3
 72
8
 73
4
 74
0
 40
0
 40
0
 40
0
 40
0
 40
1
 40
1
 40
1
 40
1
 10
148.102715
 20
78.799889
 30
0.0
 10
147.500213
 20
78.099173
 30
0.0
 10
147.461136
 20
78.070080
 30
0.0
 10
147.079308
 20
78.037183
 30
0.0
  0
SPLINE
  5
1a2
100
AcDbEntity
  8
Ebene_1
 62
7
100
AcDbSpline
 70
8
 71
3
 72
8
 73
4
 74
0
 40
0
 40
0
 40
0
 40
0
 40
1
 40
1
 40
1
 40
1
 10
147.079308
 20
78.037183
 30
0.0
 10
146.860916
 20
78.018168
 30
0.0
 10
146.614477
 20
78.047642
 30
0.0
 10
146.531570
 20
78.100885
 30
0.0
  0
LWPOLYLINE
  5
1a3
100
AcDbEntity
  8
Ebene_1
 62
7
100
AcDbPolyline
 90
3
 70
0
 10
149.793370
 20
140.381418
 30
0.0
 10
149.595040
 20
140.381418
 30
0.0
 10
149.648283
 20
137.742086
 30
0.0
  0
SPLINE
  5
1a4
100
AcDbEntity
  8
Ebene_1
 62
7
100
AcDbSpline
 70
8
 71
3
 72
8
 73
4
 74
0
 40
0
 40
0
 40
0
 40
0
 40
1
 40
1
 40
1
 40
1
 10
145.674263
 20
154.504981
 30
0.0
 10
145.846542
 20
154.600343
 30
0.0
 10
146.184635
 20
154.633145
 30
0.0
 10
146.977481
 20
154.632955
 30
0.0
  0
SPLINE
  5
1a5
100
AcDbEntity
  8
Ebene_1
 62
7
100
AcDbSpline
 70
8
 71
3
 72
8
 73
4
 74
0
 40
0
 40
0
 40
0
 40
0
 40
1
 40
1
 40
1
 40
1
 10
146.977481
 20
154.632955
 30
0.0
 10
147.906381
 20
154.632670
 30
0.0
 10
148.083034
 20
154.610136
 30
0.0
 10
148.312359
 20
154.460676
 30
0.0
  0
SPLINE
  5
1a6
100
AcDbEntity
  8
Ebene_1
 62
7
100
AcDbSpline
 70
8
 71
3
 72
8
 73
4
 74
0
 40
0
 40
0
 40
0
 40
0
 40
1
 40
1
 40
1
 40
1
 10
148.312359
 20
154.460676
 30
0.0
 10
148.457731
 20
154.366550
 30
0.0
 10
148.597019
 20
154.232396
 30
0.0
 10
148.621929
 20
154.163370
 30
0.0
  0
SPLINE
  5
1a7
100
AcDbEntity
  8
Ebene_1
 62
7
100
AcDbSpline
 70
8
 71
3
 72
8
 73
4
 74
0
 40
0
 40
0
 40
0
 40
0
 40
1
 40
1
 40
1
 40
1
 10
148.621929
 20
154.163370
 30
0.0
 10
148.751043
 20
153.804741
 30
0.0
 10
150.220740
 20
155.052148
 30
0.0
 10
150.703160
 20
155.929897
 30
0.0
  0
SPLINE
  5
1a8
100
AcDbEntity
  8
Ebene_1
 62
7
100
AcDbSpline
 70
8
 71
3
 72
8
 73
4
 74
0
 40
0
 40
0
 40
0
 40
0
 40
1
 40
1
 40
1
 40
1
 10
150.703160
 20
155.929897
 30
0.0
 10
151.288548
 20
156.994853
 30
0.0
 10
151.484501
 20
157.453028
 30
0.0
 10
151.179875
 20
158.559151
 30
0.0
  0
SPLINE
  5
1a9
100
AcDbEntity
  8
Ebene_1
 62
7
100
AcDbSpline
 70
8
 71
3
 72
8
 73
4
 74
0
 40
0
 40
0
 40
0
 40
0
 40
1
 40
1
 40
1
 40
1
 10
151.179875
 20
158.559151
 30
0.0
 10
150.625863
 20
160.570311
 30
0.0
 10
148.922942
 20
161.931811
 30
0.0
 10
146.961318
 20
161.931811
 30
0.0
  0
SPLINE
  5
1aa
100
AcDbEntity
  8
Ebene_1
 62
7
100
AcDbSpline
 70
8
 71
3
 72
8
 73
4
 74
0
 40
0
 40
0
 40
0
 40
0
 40
1
 40
1
 40
1
 40
1
 10
146.961318
 20
161.931811
 30
0.0
 10
145.136509
 20
161.931811
 30
0.0
 10
143.504515
 20
160.732322
 30
0.0
 10
142.847249
 20
158.908083
 30
0.0
  0
SPLINE
  5
1ab
100
AcDbEntity
  8
Ebene_1
 62
7
100
AcDbSpline
 70
8
 71
3
 72
8
 73
4
 74
0
 40
0
 40
0
 40
0
 40
0
 40
1
 40
1
 40
1
 40
1
 10
142.847249
 20
158.908083
 30
0.0
 10
142.601286
 20
158.225337
 30
0.0
 10
142.542813
 20
157.858245
 30
0.0
 10
142.732301
 20
157.163234
 30
0.0
  0
SPLINE
  5
1ac
100
AcDbEntity
  8
Ebene_1
 62
7
100
AcDbSpline
 70
8
 71
3
 72
8
 73
4
 74
0
 40
0
 40
0
 40
0
 40
0
 40
1
 40
1
 40
1
 40
1
 10
142.732301
 20
157.163234
 30
0.0
 10
143.058510
 20
155.966692
 30
0.0
 10
143.779953
 20
154.943951
 30
0.0
 10
144.711991
 20
154.356757
 30
0.0
  0
SPLINE
  5
1ad
100
AcDbEntity
  8
Ebene_1
 62
7
100
AcDbSpline
 70
8
 71
3
 72
8
 73
4
 74
0
 40
0
 40
0
 40
0
 40
0
 40
1
 40
1
 40
1
 40
1
 10
144.711991
 20
154.356757
 30
0.0
 10
145.206770
 20
154.045190
 30
0.0
 10
145.221507
 20
154.041577
 30
0.0
 10
145.330275
 20
154.207106
 30
0.0
  0
SPLINE
  5
1ae
100
AcDbEntity
  8
Ebene_1
 62
7
100
AcDbSpline
 70
8
 71
3
 72
8
 73
4
 74
0
 40
0
 40
0
 40
0
 40
0
 40
1
 40
1
 40
1
 40
1
 10
145.330275
 20
154.207106
 30
0.0
 10
145.391124
 20
154.300281
 30
0.0
 10
145.546290
 20
154.434434
 30
0.0
 10
145.674263
 20
154.504981
 30
0.0
  0
LWPOLYLINE
  5
1af
100
AcDbEntity
  8
Ebene_1
 62
7
100
AcDbPolyline
 90
2
 70
0
 10
146.531570
 20
78.100885
 30
0.0
 10
146.528908
 20
78.104783
 30
0.0
  0
LWPOLYLINE
  5
1b0
100
AcDbEntity
  8
Ebene_1
 62
7
100
AcDbPolyline
 90
1
 70
1
 10
145.674263
 20
154.504981
 30
0.0
  0
SPLINE
  5
1b1
100
AcDbEntity
  8
Ebene_1
 62
7
100
AcDbSpline
 70
8
 71
3
 72
8
 73
4
 74
0
 40
0
 40
0
 40
0
 40
0
 40
1
 40
1
 40
1
 40
1
 10
36.784409
 20
141.877218
 30
0.0
 10
36.784409
 20
142.212225
 30
0.0
 10
36.744472
 20
142.435573
 30
0.0
 10
36.664596
 20
142.547262
 30
0.0
  0
SPLINE
  5
1b2
100
AcDbEntity
  8
Ebene_1
 62
7
100
AcDbSpline
 70
8
 71
3
 72
8
 73
4
 74
0
 40
0
 40
0
 40
0
 40
0
 40
1
 40
1
 40
1
 40
1
 10
36.664596
 20
142.547262
 30
0.0
 10
36.600858
 20
142.658891
 30
0.0
 10
36.409170
 20
142.798458
 30
0.0
 10
36.089531
 20
142.965961
 30
0.0
  0
SPLINE
  5
1b3
100
AcDbEntity
  8
Ebene_1
 62
7
100
AcDbSpline
 70
8
 71
3
 72
8
 73
4
 74
0
 40
0
 40
0
 40
0
 40
0
 40
1
 40
1
 40
1
 40
1
 10
36.089531
 20
142.965961
 30
0.0
 10
35.738159
 20
143.133465
 30
0.0
 10
35.562473
 20
143.524287
 30
0.0
 10
35.562473
 20
144.138427
 30
0.0
  0
SPLINE
  5
1b4
100
AcDbEntity
  8
Ebene_1
 62
7
100
AcDbSpline
 70
8
 71
3
 72
8
 73
4
 74
0
 40
0
 40
0
 40
0
 40
0
 40
1
 40
1
 40
1
 40
1
 10
35.562473
 20
144.138427
 30
0.0
 10
35.562473
 20
144.920071
 30
0.0
 10
35.602411
 20
145.394615
 30
0.0
 10
35.682287
 20
145.562060
 30
0.0
  0
SPLINE
  5
1b5
100
AcDbEntity
  8
Ebene_1
 62
7
100
AcDbSpline
 70
8
 71
3
 72
8
 73
4
 74
0
 40
0
 40
0
 40
0
 40
0
 40
1
 40
1
 40
1
 40
1
 10
35.682287
 20
145.562060
 30
0.0
 10
35.762095
 20
145.743546
 30
0.0
 10
35.985686
 20
145.834290
 30
0.0
 10
36.353060
 20
145.834290
 30
0.0
  0
LWPOLYLINE
  5
1b6
100
AcDbEntity
  8
Ebene_1
 62
7
100
AcDbPolyline
 90
3
 70
0
 10
32.950882
 20
131.346178
 30
0.0
 10
36.784409
 20
131.346178
 30
0.0
 10
36.784409
 20
141.877218
 30
0.0
  0
SPLINE
  5
1b7
100
AcDbEntity
  8
Ebene_1
 62
7
100
AcDbSpline
 70
8
 71
3
 72
8
 73
4
 74
0
 40
0
 40
0
 40
0
 40
0
 40
1
 40
1
 40
1
 40
1
 10
46.751520
 20
145.834290
 30
0.0
 10
47.214772
 20
145.834290
 30
0.0
 10
47.494303
 20
145.757530
 30
0.0
 10
47.590113
 20
145.604010
 30
0.0
  0
SPLINE
  5
1b8
100
AcDbEntity
  8
Ebene_1
 62
7
100
AcDbSpline
 70
8
 71
3
 72
8
 73
4
 74
0
 40
0
 40
0
 40
0
 40
0
 40
1
 40
1
 40
1
 40
1
 10
47.590113
 20
145.604010
 30
0.0
 10
47.685923
 20
145.464413
 30
0.0
 10
47.733829
 20
144.989840
 30
0.0
 10
47.733829
 20
144.180288
 30
0.0
  0
SPLINE
  5
1b9
100
AcDbEntity
  8
Ebene_1
 62
7
100
AcDbSpline
 70
8
 71
3
 72
8
 73
4
 74
0
 40
0
 40
0
 40
0
 40
0
 40
1
 40
1
 40
1
 40
1
 10
47.733829
 20
144.180288
 30
0.0
 10
47.733829
 20
143.691761
 30
0.0
 10
47.677922
 20
143.398644
 30
0.0
 10
47.566110
 20
143.300939
 30
0.0
  0
SPLINE
  5
1ba
100
AcDbEntity
  8
Ebene_1
 62
7
100
AcDbSpline
 70
8
 71
3
 72
8
 73
4
 74
0
 40
0
 40
0
 40
0
 40
0
 40
1
 40
1
 40
1
 40
1
 10
47.566110
 20
143.300939
 30
0.0
 10
47.470300
 20
143.217217
 30
0.0
 10
47.150864
 20
143.056705
 30
0.0
 10
46.607804
 20
142.819403
 30
0.0
  0
SPLINE
  5
1bb
100
AcDbEntity
  8
Ebene_1
 62
7
100
AcDbSpline
 70
8
 71
3
 72
8
 73
4
 74
0
 40
0
 40
0
 40
0
 40
0
 40
1
 40
1
 40
1
 40
1
 10
46.607804
 20
142.819403
 30
0.0
 10
46.016805
 20
142.540270
 30
0.0
 10
45.721306
 20
142.107587
 30
0.0
 10
45.721306
 20
141.521354
 30
0.0
  0
LWPOLYLINE
  5
1bc
100
AcDbEntity
  8
Ebene_1
 62
7
100
AcDbPolyline
 90
2
 70
0
 10
36.353060
 20
145.834290
 30
0.0
 10
46.751520
 20
145.834290
 30
0.0
  0
SPLINE
  5
1bd
100
AcDbEntity
  8
Ebene_1
 62
7
100
AcDbSpline
 70
8
 71
3
 72
8
 73
4
 74
0
 40
0
 40
0
 40
0
 40
0
 40
1
 40
1
 40
1
 40
1
 10
45.721306
 20
116.460164
 30
0.0
 10
45.721306
 20
115.804192
 30
0.0
 10
46.064710
 20
115.280796
 30
0.0
 10
46.751520
 20
114.889974
 30
0.0
  0
SPLINE
  5
1be
100
AcDbEntity
  8
Ebene_1
 62
7
100
AcDbSpline
 70
8
 71
3
 72
8
 73
4
 74
0
 40
0
 40
0
 40
0
 40
0
 40
1
 40
1
 40
1
 40
1
 10
46.751520
 20
114.889974
 30
0.0
 10
47.310582
 20
114.582874
 30
0.0
 10
47.590113
 20
114.303711
 30
0.0
 10
47.590113
 20
114.052485
 30
0.0
  0
LWPOLYLINE
  5
1bf
100
AcDbEntity
  8
Ebene_1
 62
7
100
AcDbPolyline
 90
2
 70
0
 10
45.721306
 20
141.521354
 30
0.0
 10
45.721306
 20
116.460164
 30
0.0
  0
SPLINE
  5
1c0
100
AcDbEntity
  8
Ebene_1
 62
7
100
AcDbSpline
 70
8
 71
3
 72
8
 73
4
 74
0
 40
0
 40
0
 40
0
 40
0
 40
1
 40
1
 40
1
 40
1
 10
47.590113
 20
112.733461
 30
0.0
 10
47.590113
 20
112.454328
 30
0.0
 10
47.542208
 20
112.265909
 30
0.0
 10
47.446398
 20
112.168203
 30
0.0
  0
SPLINE
  5
1c1
100
AcDbEntity
  8
Ebene_1
 62
7
100
AcDbSpline
 70
8
 71
3
 72
8
 73
4
 74
0
 40
0
 40
0
 40
0
 40
0
 40
1
 40
1
 40
1
 40
1
 10
47.446398
 20
112.168203
 30
0.0
 10
47.350520
 20
112.084481
 30
0.0
 10
47.070989
 20
112.042620
 30
0.0
 10
46.607804
 20
112.042620
 30
0.0
  0
LWPOLYLINE
  5
1c2
100
AcDbEntity
  8
Ebene_1
 62
7
100
AcDbPolyline
 90
2
 70
0
 10
47.590113
 20
114.052485
 30
0.0
 10
47.590113
 20
112.733461
 30
0.0
  0
SPLINE
  5
1c3
100
AcDbEntity
  8
Ebene_1
 62
7
100
AcDbSpline
 70
8
 71
3
 72
8
 73
4
 74
0
 40
0
 40
0
 40
0
 40
0
 40
1
 40
1
 40
1
 40
1
 10
36.161440
 20
112.042620
 30
0.0
 10
35.810000
 20
112.042620
 30
0.0
 10
35.594376
 20
112.098435
 30
0.0
 10
35.514568
 20
112.210065
 30
0.0
  0
SPLINE
  5
1c4
100
AcDbEntity
  8
Ebene_1
 62
7
100
AcDbSpline
 70
8
 71
3
 72
8
 73
4
 74
0
 40
0
 40
0
 40
0
 40
0
 40
1
 40
1
 40
1
 40
1
 10
35.514568
 20
112.210065
 30
0.0
 10
35.434692
 20
112.321753
 30
0.0
 10
35.394754
 20
112.838188
 30
0.0
 10
35.394754
 20
113.759369
 30
0.0
  0
SPLINE
  5
1c5
100
AcDbEntity
  8
Ebene_1
 62
7
100
AcDbSpline
 70
8
 71
3
 72
8
 73
4
 74
0
 40
0
 40
0
 40
0
 40
0
 40
1
 40
1
 40
1
 40
1
 10
35.394754
 20
113.759369
 30
0.0
 10
35.394754
 20
114.219989
 30
0.0
 10
35.610378
 20
114.582904
 30
0.0
 10
36.041626
 20
114.848113
 30
0.0
  0
SPLINE
  5
1c6
100
AcDbEntity
  8
Ebene_1
 62
7
100
AcDbSpline
 70
8
 71
3
 72
8
 73
4
 74
0
 40
0
 40
0
 40
0
 40
0
 40
1
 40
1
 40
1
 40
1
 10
36.041626
 20
114.848113
 30
0.0
 10
36.536815
 20
115.155153
 30
0.0
 10
36.784409
 20
115.511076
 30
0.0
 10
36.784409
 20
115.915881
 30
0.0
  0
LWPOLYLINE
  5
1c7
100
AcDbEntity
  8
Ebene_1
 62
7
100
AcDbPolyline
 90
2
 70
0
 10
46.607804
 20
112.042620
 30
0.0
 10
36.161440
 20
112.042620
 30
0.0
  0
SPLINE
  5
1c8
100
AcDbEntity
  8
Ebene_1
 62
7
100
AcDbSpline
 70
8
 71
3
 72
8
 73
4
 74
0
 40
0
 40
0
 40
0
 40
0
 40
1
 40
1
 40
1
 40
1
 10
32.950882
 20
115.790209
 30
0.0
 10
32.950882
 20
115.343572
 30
0.0
 10
33.158539
 20
114.987650
 30
0.0
 10
33.573852
 20
114.722440
 30
0.0
  0
SPLINE
  5
1c9
100
AcDbEntity
  8
Ebene_1
 62
7
100
AcDbSpline
 70
8
 71
3
 72
8
 73
4
 74
0
 40
0
 40
0
 40
0
 40
0
 40
1
 40
1
 40
1
 40
1
 10
33.573852
 20
114.722440
 30
0.0
 10
33.989097
 20
114.429324
 30
0.0
 10
34.196720
 20
114.017586
 30
0.0
 10
34.196720
 20
113.487227
 30
0.0
  0
SPLINE
  5
1ca
100
AcDbEntity
  8
Ebene_1
 62
7
100
AcDbSpline
 70
8
 71
3
 72
8
 73
4
 74
0
 40
0
 40
0
 40
0
 40
0
 40
1
 40
1
 40
1
 40
1
 10
34.196720
 20
113.487227
 30
0.0
 10
34.196720
 20
112.747474
 30
0.0
 10
34.148815
 20
112.321753
 30
0.0
 10
34.053005
 20
112.210065
 30
0.0
  0
SPLINE
  5
1cb
100
AcDbEntity
  8
Ebene_1
 62
7
100
AcDbSpline
 70
8
 71
3
 72
8
 73
4
 74
0
 40
0
 40
0
 40
0
 40
0
 40
1
 40
1
 40
1
 40
1
 10
34.053005
 20
112.210065
 30
0.0
 10
33.957127
 20
112.098435
 30
0.0
 10
33.765438
 20
112.042620
 30
0.0
 10
33.477940
 20
112.042620
 30
0.0
  0
LWPOLYLINE
  5
1cc
100
AcDbEntity
  8
Ebene_1
 62
7
100
AcDbPolyline
 90
4
 70
0
 10
36.784409
 20
115.915881
 30
0.0
 10
36.784409
 20
128.980272
 30
0.0
 10
32.950882
 20
128.980272
 30
0.0
 10
32.950882
 20
115.790209
 30
0.0
  0
SPLINE
  5
1cd
100
AcDbEntity
  8
Ebene_1
 62
7
100
AcDbSpline
 70
8
 71
3
 72
8
 73
4
 74
0
 40
0
 40
0
 40
0
 40
0
 40
1
 40
1
 40
1
 40
1
 10
22.959768
 20
112.042620
 30
0.0
 10
22.624331
 20
112.042620
 30
0.0
 10
22.416674
 20
112.105427
 30
0.0
 10
22.336799
 20
112.231040
 30
0.0
  0
SPLINE
  5
1ce
100
AcDbEntity
  8
Ebene_1
 62
7
100
AcDbSpline
 70
8
 71
3
 72
8
 73
4
 74
0
 40
0
 40
0
 40
0
 40
0
 40
1
 40
1
 40
1
 40
1
 10
22.336799
 20
112.231040
 30
0.0
 10
22.256923
 20
112.356652
 30
0.0
 10
22.216985
 20
112.852142
 30
0.0
 10
22.216985
 20
113.717508
 30
0.0
  0
SPLINE
  5
1cf
100
AcDbEntity
  8
Ebene_1
 62
7
100
AcDbSpline
 70
8
 71
3
 72
8
 73
4
 74
0
 40
0
 40
0
 40
0
 40
0
 40
1
 40
1
 40
1
 40
1
 10
22.216985
 20
113.717508
 30
0.0
 10
22.216985
 20
114.122254
 30
0.0
 10
22.256923
 20
114.387463
 30
0.0
 10
22.336799
 20
114.513135
 30
0.0
  0
SPLINE
  5
1d0
100
AcDbEntity
  8
Ebene_1
 62
7
100
AcDbSpline
 70
8
 71
3
 72
8
 73
4
 74
0
 40
0
 40
0
 40
0
 40
0
 40
1
 40
1
 40
1
 40
1
 10
22.336799
 20
114.513135
 30
0.0
 10
22.416674
 20
114.638748
 30
0.0
 10
22.640299
 20
114.792268
 30
0.0
 10
23.007673
 20
114.973696
 30
0.0
  0
SPLINE
  5
1d1
100
AcDbEntity
  8
Ebene_1
 62
7
100
AcDbSpline
 70
8
 71
3
 72
8
 73
4
 74
0
 40
0
 40
0
 40
0
 40
0
 40
1
 40
1
 40
1
 40
1
 10
23.007673
 20
114.973696
 30
0.0
 10
23.678548
 20
115.280796
 30
0.0
 10
24.013986
 20
115.692563
 30
0.0
 10
24.013986
 20
116.208998
 30
0.0
  0
LWPOLYLINE
  5
1d2
100
AcDbEntity
  8
Ebene_1
 62
7
100
AcDbPolyline
 90
2
 70
0
 10
33.477940
 20
112.042620
 30
0.0
 10
22.959768
 20
112.042620
 30
0.0
  0
SPLINE
  5
1d3
100
AcDbEntity
  8
Ebene_1
 62
7
100
AcDbSpline
 70
8
 71
3
 72
8
 73
4
 74
0
 40
0
 40
0
 40
0
 40
0
 40
1
 40
1
 40
1
 40
1
 10
24.013986
 20
141.521354
 30
0.0
 10
24.013986
 20
141.926100
 30
0.0
 10
23.718486
 20
142.309930
 30
0.0
 10
23.127487
 20
142.672845
 30
0.0
  0
SPLINE
  5
1d4
100
AcDbEntity
  8
Ebene_1
 62
7
100
AcDbSpline
 70
8
 71
3
 72
8
 73
4
 74
0
 40
0
 40
0
 40
0
 40
0
 40
1
 40
1
 40
1
 40
1
 10
23.127487
 20
142.672845
 30
0.0
 10
22.536488
 20
143.049684
 30
0.0
 10
22.240988
 20
143.587064
 30
0.0
 10
22.240988
 20
144.284986
 30
0.0
  0
SPLINE
  5
1d5
100
AcDbEntity
  8
Ebene_1
 62
7
100
AcDbSpline
 70
8
 71
3
 72
8
 73
4
 74
0
 40
0
 40
0
 40
0
 40
0
 40
1
 40
1
 40
1
 40
1
 10
22.240988
 20
144.284986
 30
0.0
 10
22.240988
 20
145.024739
 30
0.0
 10
22.304862
 20
145.464413
 30
0.0
 10
22.432609
 20
145.604010
 30
0.0
  0
SPLINE
  5
1d6
100
AcDbEntity
  8
Ebene_1
 62
7
100
AcDbSpline
 70
8
 71
3
 72
8
 73
4
 74
0
 40
0
 40
0
 40
0
 40
0
 40
1
 40
1
 40
1
 40
1
 10
22.432609
 20
145.604010
 30
0.0
 10
22.576358
 20
145.757530
 30
0.0
 10
22.879859
 20
145.834290
 30
0.0
 10
23.343111
 20
145.834290
 30
0.0
  0
LWPOLYLINE
  5
1d7
100
AcDbEntity
  8
Ebene_1
 62
7
100
AcDbPolyline
 90
2
 70
0
 10
24.013986
 20
116.208998
 30
0.0
 10
24.013986
 20
141.521354
 30
0.0
  0
SPLINE
  5
1d8
100
AcDbEntity
  8
Ebene_1
 62
7
100
AcDbSpline
 70
8
 71
3
 72
8
 73
4
 74
0
 40
0
 40
0
 40
0
 40
0
 40
1
 40
1
 40
1
 40
1
 10
33.166506
 20
145.834290
 30
0.0
 10
33.597754
 20
145.834290
 30
0.0
 10
33.893253
 20
145.764492
 30
0.0
 10
34.053005
 20
145.624896
 30
0.0
  0
SPLINE
  5
1d9
100
AcDbEntity
  8
Ebene_1
 62
7
100
AcDbSpline
 70
8
 71
3
 72
8
 73
4
 74
0
 40
0
 40
0
 40
0
 40
0
 40
1
 40
1
 40
1
 40
1
 10
34.053005
 20
145.624896
 30
0.0
 10
34.212756
 20
145.499283
 30
0.0
 10
34.292632
 20
145.192213
 30
0.0
 10
34.292632
 20
144.703685
 30
0.0
  0
LWPOLYLINE
  5
1da
100
AcDbEntity
  8
Ebene_1
 62
7
100
AcDbPolyline
 90
2
 70
0
 10
23.343111
 20
145.834290
 30
0.0
 10
33.166506
 20
145.834290
 30
0.0
  0
SPLINE
  5
1db
100
AcDbEntity
  8
Ebene_1
 62
7
100
AcDbSpline
 70
8
 71
3
 72
8
 73
4
 74
0
 40
0
 40
0
 40
0
 40
0
 40
1
 40
1
 40
1
 40
1
 10
34.292632
 20
143.719639
 30
0.0
 10
34.260763
 20
143.468413
 30
0.0
 10
34.061074
 20
143.245095
 30
0.0
 10
33.693564
 20
143.049684
 30
0.0
  0
SPLINE
  5
1dc
100
AcDbEntity
  8
Ebene_1
 62
7
100
AcDbSpline
 70
8
 71
3
 72
8
 73
4
 74
0
 40
0
 40
0
 40
0
 40
0
 40
1
 40
1
 40
1
 40
1
 10
33.693564
 20
143.049684
 30
0.0
 10
33.198443
 20
142.812441
 30
0.0
 10
32.950882
 20
142.421619
 30
0.0
 10
32.950882
 20
141.877218
 30
0.0
  0
LWPOLYLINE
  5
1dd
100
AcDbEntity
  8
Ebene_1
 62
7
100
AcDbPolyline
 90
2
 70
0
 10
34.292632
 20
144.703685
 30
0.0
 10
34.292632
 20
143.719639
 30
0.0
  0
LWPOLYLINE
  5
1de
100
AcDbEntity
  8
Ebene_1
 62
7
100
AcDbPolyline
 90
2
 70
0
 10
32.950882
 20
141.877218
 30
0.0
 10
32.950882
 20
131.346178
 30
0.0
  0
SPLINE
  5
1df
100
AcDbEntity
  8
Ebene_1
 62
7
100
AcDbSpline
 70
8
 71
3
 72
8
 73
4
 74
0
 40
0
 40
0
 40
0
 40
0
 40
1
 40
1
 40
1
 40
1
 10
61.750192
 20
131.304228
 30
0.0
 10
62.197442
 20
131.304228
 30
0.0
 10
62.524878
 20
131.387980
 30
0.0
 10
62.732501
 20
131.555484
 30
0.0
  0
SPLINE
  5
1e0
100
AcDbEntity
  8
Ebene_1
 62
7
100
AcDbSpline
 70
8
 71
3
 72
8
 73
4
 74
0
 40
0
 40
0
 40
0
 40
0
 40
1
 40
1
 40
1
 40
1
 10
62.732501
 20
131.555484
 30
0.0
 10
62.940191
 20
131.722987
 30
0.0
 10
63.099943
 20
132.085902
 30
0.0
 10
63.211755
 20
132.644227
 30
0.0
  0
SPLINE
  5
1e1
100
AcDbEntity
  8
Ebene_1
 62
7
100
AcDbSpline
 70
8
 71
3
 72
8
 73
4
 74
0
 40
0
 40
0
 40
0
 40
0
 40
1
 40
1
 40
1
 40
1
 10
63.211755
 20
132.644227
 30
0.0
 10
63.403376
 20
133.635206
 30
0.0
 10
63.555092
 20
134.228401
 30
0.0
 10
63.666905
 20
134.423812
 30
0.0
  0
SPLINE
  5
1e2
100
AcDbEntity
  8
Ebene_1
 62
7
100
AcDbSpline
 70
8
 71
3
 72
8
 73
4
 74
0
 40
0
 40
0
 40
0
 40
0
 40
1
 40
1
 40
1
 40
1
 10
63.666905
 20
134.423812
 30
0.0
 10
63.794719
 20
134.619223
 30
0.0
 10
63.986408
 20
134.716929
 30
0.0
 10
64.241969
 20
134.716929
 30
0.0
  0
SPLINE
  5
1e3
100
AcDbEntity
  8
Ebene_1
 62
7
100
AcDbSpline
 70
8
 71
3
 72
8
 73
4
 74
0
 40
0
 40
0
 40
0
 40
0
 40
1
 40
1
 40
1
 40
1
 10
64.241969
 20
134.716929
 30
0.0
 10
65.503843
 20
134.716929
 30
0.0
 10
66.214656
 20
134.668076
 30
0.0
 10
66.374408
 20
134.570370
 30
0.0
  0
SPLINE
  5
1e4
100
AcDbEntity
  8
Ebene_1
 62
7
100
AcDbSpline
 70
8
 71
3
 72
8
 73
4
 74
0
 40
0
 40
0
 40
0
 40
0
 40
1
 40
1
 40
1
 40
1
 10
66.374408
 20
134.570370
 30
0.0
 10
66.550094
 20
134.486648
 30
0.0
 10
66.637937
 20
134.137717
 30
0.0
 10
66.637937
 20
133.523577
 30
0.0
  0
LWPOLYLINE
  5
1e5
100
AcDbEntity
  8
Ebene_1
 62
7
100
AcDbPolyline
 90
3
 70
0
 10
60.120910
 20
143.259078
 30
0.0
 10
60.120910
 20
131.304228
 30
0.0
 10
61.750192
 20
131.304228
 30
0.0
  0
SPLINE
  5
1e6
100
AcDbEntity
  8
Ebene_1
 62
7
100
AcDbSpline
 70
8
 71
3
 72
8
 73
4
 74
0
 40
0
 40
0
 40
0
 40
0
 40
1
 40
1
 40
1
 40
1
 10
66.637937
 20
126.551618
 30
0.0
 10
66.637937
 20
126.118965
 30
0.0
 10
66.558061
 20
125.832840
 30
0.0
 10
66.398309
 20
125.693244
 30
0.0
  0
SPLINE
  5
1e7
100
AcDbEntity
  8
Ebene_1
 62
7
100
AcDbSpline
 70
8
 71
3
 72
8
 73
4
 74
0
 40
0
 40
0
 40
0
 40
0
 40
1
 40
1
 40
1
 40
1
 10
66.398309
 20
125.693244
 30
0.0
 10
66.238626
 20
125.567631
 30
0.0
 10
65.743471
 20
125.504824
 30
0.0
 10
64.912844
 20
125.504824
 30
0.0
  0
SPLINE
  5
1e8
100
AcDbEntity
  8
Ebene_1
 62
7
100
AcDbSpline
 70
8
 71
3
 72
8
 73
4
 74
0
 40
0
 40
0
 40
0
 40
0
 40
1
 40
1
 40
1
 40
1
 10
64.912844
 20
125.504824
 30
0.0
 10
64.369784
 20
125.504824
 30
0.0
 10
64.002410
 20
125.588576
 30
0.0
 10
63.810722
 20
125.756080
 30
0.0
  0
SPLINE
  5
1e9
100
AcDbEntity
  8
Ebene_1
 62
7
100
AcDbSpline
 70
8
 71
3
 72
8
 73
4
 74
0
 40
0
 40
0
 40
0
 40
0
 40
1
 40
1
 40
1
 40
1
 10
63.810722
 20
125.756080
 30
0.0
 10
63.635036
 20
125.937507
 30
0.0
 10
63.459316
 20
126.432997
 30
0.0
 10
63.283562
 20
127.242548
 30
0.0
  0
SPLINE
  5
1ea
100
AcDbEntity
  8
Ebene_1
 62
7
100
AcDbSpline
 70
8
 71
3
 72
8
 73
4
 74
0
 40
0
 40
0
 40
0
 40
0
 40
1
 40
1
 40
1
 40
1
 10
63.283562
 20
127.242548
 30
0.0
 10
63.107876
 20
127.982301
 30
0.0
 10
62.932190
 20
128.435930
 30
0.0
 10
62.756504
 20
128.603433
 30
0.0
  0
SPLINE
  5
1eb
100
AcDbEntity
  8
Ebene_1
 62
7
100
AcDbSpline
 70
8
 71
3
 72
8
 73
4
 74
0
 40
0
 40
0
 40
0
 40
0
 40
1
 40
1
 40
1
 40
1
 10
62.756504
 20
128.603433
 30
0.0
 10
62.596753
 20
128.770937
 30
0.0
 10
62.341191
 20
128.854688
 30
0.0
 10
61.989819
 20
128.854688
 30
0.0
  0
LWPOLYLINE
  5
1ec
100
AcDbEntity
  8
Ebene_1
 62
7
100
AcDbPolyline
 90
2
 70
0
 10
66.637937
 20
133.523577
 30
0.0
 10
66.637937
 20
126.551618
 30
0.0
  0
SPLINE
  5
1ed
100
AcDbEntity
  8
Ebene_1
 62
7
100
AcDbSpline
 70
8
 71
3
 72
8
 73
4
 74
0
 40
0
 40
0
 40
0
 40
0
 40
1
 40
1
 40
1
 40
1
 10
61.390751
 20
114.429324
 30
0.0
 10
62.173438
 20
114.429324
 30
0.0
 10
62.708531
 20
114.617773
 30
0.0
 10
62.996030
 20
114.994671
 30
0.0
  0
SPLINE
  5
1ee
100
AcDbEntity
  8
Ebene_1
 62
7
100
AcDbSpline
 70
8
 71
3
 72
8
 73
4
 74
0
 40
0
 40
0
 40
0
 40
0
 40
1
 40
1
 40
1
 40
1
 10
62.996030
 20
114.994671
 30
0.0
 10
63.299530
 20
115.385493
 30
0.0
 10
63.778751
 20
116.495123
 30
0.0
 10
64.433691
 20
118.323560
 30
0.0
  0
SPLINE
  5
1ef
100
AcDbEntity
  8
Ebene_1
 62
7
100
AcDbSpline
 70
8
 71
3
 72
8
 73
4
 74
0
 40
0
 40
0
 40
0
 40
0
 40
1
 40
1
 40
1
 40
1
 10
64.433691
 20
118.323560
 30
0.0
 10
64.705188
 20
119.091221
 30
0.0
 10
64.984685
 20
119.593702
 30
0.0
 10
65.272183
 20
119.831003
 30
0.0
  0
SPLINE
  5
1f0
100
AcDbEntity
  8
Ebene_1
 62
7
100
AcDbSpline
 70
8
 71
3
 72
8
 73
4
 74
0
 40
0
 40
0
 40
0
 40
0
 40
1
 40
1
 40
1
 40
1
 10
65.272183
 20
119.831003
 30
0.0
 10
65.559750
 20
120.068305
 30
0.0
 10
66.062906
 20
120.186956
 30
0.0
 10
66.781652
 20
120.186956
 30
0.0
  0
SPLINE
  5
1f1
100
AcDbEntity
  8
Ebene_1
 62
7
100
AcDbSpline
 70
8
 71
3
 72
8
 73
4
 74
0
 40
0
 40
0
 40
0
 40
0
 40
1
 40
1
 40
1
 40
1
 10
66.781652
 20
120.186956
 30
0.0
 10
67.772030
 20
120.186956
 30
0.0
 10
68.267219
 20
119.907793
 30
0.0
 10
68.267219
 20
119.349468
 30
0.0
  0
SPLINE
  5
1f2
100
AcDbEntity
  8
Ebene_1
 62
7
100
AcDbSpline
 70
8
 71
3
 72
8
 73
4
 74
0
 40
0
 40
0
 40
0
 40
0
 40
1
 40
1
 40
1
 40
1
 10
68.267219
 20
119.349468
 30
0.0
 10
68.267219
 20
119.181964
 30
0.0
 10
68.235350
 20
118.937700
 30
0.0
 10
68.171612
 20
118.616677
 30
0.0
  0
LWPOLYLINE
  5
1f3
100
AcDbEntity
  8
Ebene_1
 62
7
100
AcDbPolyline
 90
4
 70
0
 10
61.989819
 20
128.854688
 30
0.0
 10
60.120910
 20
128.854688
 30
0.0
 10
60.120910
 20
114.429324
 30
0.0
 10
61.390751
 20
114.429324
 30
0.0
  0
SPLINE
  5
1f4
100
AcDbEntity
  8
Ebene_1
 62
7
100
AcDbSpline
 70
8
 71
3
 72
8
 73
4
 74
0
 40
0
 40
0
 40
0
 40
0
 40
1
 40
1
 40
1
 40
1
 10
67.285113
 20
113.864066
 30
0.0
 10
67.125430
 20
112.998700
 30
0.0
 10
66.989681
 20
112.475274
 30
0.0
 10
66.877869
 20
112.293787
 30
0.0
  0
SPLINE
  5
1f5
100
AcDbEntity
  8
Ebene_1
 62
7
100
AcDbSpline
 70
8
 71
3
 72
8
 73
4
 74
0
 40
0
 40
0
 40
0
 40
0
 40
1
 40
1
 40
1
 40
1
 10
66.877869
 20
112.293787
 30
0.0
 10
66.781991
 20
112.126342
 30
0.0
 10
66.462522
 20
112.042620
 30
0.0
 10
65.919462
 20
112.042620
 30
0.0
  0
LWPOLYLINE
  5
1f6
100
AcDbEntity
  8
Ebene_1
 62
7
100
AcDbPolyline
 90
2
 70
0
 10
68.171612
 20
118.616677
 30
0.0
 10
67.285113
 20
113.864066
 30
0.0
  0
SPLINE
  5
1f7
100
AcDbEntity
  8
Ebene_1
 62
7
100
AcDbSpline
 70
8
 71
3
 72
8
 73
4
 74
0
 40
0
 40
0
 40
0
 40
0
 40
1
 40
1
 40
1
 40
1
 10
49.938481
 20
112.042620
 30
0.0
 10
49.539170
 20
112.042620
 30
0.0
 10
49.283608
 20
112.119380
 30
0.0
 10
49.171795
 20
112.272901
 30
0.0
  0
SPLINE
  5
1f8
100
AcDbEntity
  8
Ebene_1
 62
7
100
AcDbSpline
 70
8
 71
3
 72
8
 73
4
 74
0
 40
0
 40
0
 40
0
 40
0
 40
1
 40
1
 40
1
 40
1
 10
49.171795
 20
112.272901
 30
0.0
 10
49.059983
 20
112.440404
 30
0.0
 10
49.004077
 20
112.907986
 30
0.0
 10
49.004077
 20
113.675647
 30
0.0
  0
SPLINE
  5
1f9
100
AcDbEntity
  8
Ebene_1
 62
7
100
AcDbSpline
 70
8
 71
3
 72
8
 73
4
 74
0
 40
0
 40
0
 40
0
 40
0
 40
1
 40
1
 40
1
 40
1
 10
49.004077
 20
113.675647
 30
0.0
 10
49.004077
 20
114.164174
 30
0.0
 10
49.291575
 20
114.520097
 30
0.0
 10
49.866572
 20
114.743415
 30
0.0
  0
SPLINE
  5
1fa
100
AcDbEntity
  8
Ebene_1
 62
7
100
AcDbSpline
 70
8
 71
3
 72
8
 73
4
 74
0
 40
0
 40
0
 40
0
 40
0
 40
1
 40
1
 40
1
 40
1
 10
49.866572
 20
114.743415
 30
0.0
 10
50.745070
 20
115.064439
 30
0.0
 10
51.184319
 20
115.504114
 30
0.0
 10
51.184319
 20
116.062439
 30
0.0
  0
LWPOLYLINE
  5
1fb
100
AcDbEntity
  8
Ebene_1
 62
7
100
AcDbPolyline
 90
2
 70
0
 10
65.919462
 20
112.042620
 30
0.0
 10
49.938481
 20
112.042620
 30
0.0
  0
SPLINE
  5
1fc
100
AcDbEntity
  8
Ebene_1
 62
7
100
AcDbSpline
 70
8
 71
3
 72
8
 73
4
 74
0
 40
0
 40
0
 40
0
 40
0
 40
1
 40
1
 40
1
 40
1
 10
51.184319
 20
142.170334
 30
0.0
 10
51.168045
 20
142.435543
 30
0.0
 10
50.808672
 20
142.700752
 30
0.0
 10
50.106199
 20
142.965961
 30
0.0
  0
SPLINE
  5
1fd
100
AcDbEntity
  8
Ebene_1
 62
7
100
AcDbSpline
 70
8
 71
3
 72
8
 73
4
 74
0
 40
0
 40
0
 40
0
 40
0
 40
1
 40
1
 40
1
 40
1
 10
50.106199
 20
142.965961
 30
0.0
 10
49.627013
 20
143.147389
 30
0.0
 10
49.339480
 20
143.321855
 30
0.0
 10
49.243602
 20
143.489358
 30
0.0
  0
SPLINE
  5
1fe
100
AcDbEntity
  8
Ebene_1
 62
7
100
AcDbSpline
 70
8
 71
3
 72
8
 73
4
 74
0
 40
0
 40
0
 40
0
 40
0
 40
1
 40
1
 40
1
 40
1
 10
49.243602
 20
143.489358
 30
0.0
 10
49.163727
 20
143.656862
 30
0.0
 10
49.123789
 20
144.061638
 30
0.0
 10
49.123789
 20
144.703685
 30
0.0
  0
SPLINE
  5
1ff
100
AcDbEntity
  8
Ebene_1
 62
7
100
AcDbSpline
 70
8
 71
3
 72
8
 73
4
 74
0
 40
0
 40
0
 40
0
 40
0
 40
1
 40
1
 40
1
 40
1
 10
49.123789
 20
144.703685
 30
0.0
 10
49.123789
 20
145.248027
 30
0.0
 10
49.171728
 20
145.569051
 30
0.0
 10
49.267606
 20
145.666757
 30
0.0
  0
SPLINE
  5
200
100
AcDbEntity
  8
Ebene_1
 62
7
100
AcDbSpline
 70
8
 71
3
 72
8
 73
4
 74
0
 40
0
 40
0
 40
0
 40
0
 40
1
 40
1
 40
1
 40
1
 10
49.267606
 20
145.666757
 30
0.0
 10
49.363416
 20
145.778446
 30
0.0
 10
49.642947
 20
145.834290
 30
0.0
 10
50.106199
 20
145.834290
 30
0.0
  0
LWPOLYLINE
  5
201
100
AcDbEntity
  8
Ebene_1
 62
7
100
AcDbPolyline
 90
2
 70
0
 10
51.184319
 20
116.062439
 30
0.0
 10
51.184319
 20
142.170334
 30
0.0
  0
SPLINE
  5
202
100
AcDbEntity
  8
Ebene_1
 62
7
100
AcDbSpline
 70
8
 71
3
 72
8
 73
4
 74
0
 40
0
 40
0
 40
0
 40
0
 40
1
 40
1
 40
1
 40
1
 10
65.392302
 20
145.834290
 30
0.0
 10
65.775679
 20
145.834290
 30
0.0
 10
66.055210
 20
145.778446
 30
0.0
 10
66.230896
 20
145.666757
 30
0.0
  0
SPLINE
  5
203
100
AcDbEntity
  8
Ebene_1
 62
7
100
AcDbSpline
 70
8
 71
3
 72
8
 73
4
 74
0
 40
0
 40
0
 40
0
 40
0
 40
1
 40
1
 40
1
 40
1
 10
66.230896
 20
145.666757
 30
0.0
 10
66.406582
 20
145.555127
 30
0.0
 10
66.542364
 20
145.289948
 30
0.0
 10
66.638242
 20
144.871218
 30
0.0
  0
LWPOLYLINE
  5
204
100
AcDbEntity
  8
Ebene_1
 62
7
100
AcDbPolyline
 90
2
 70
0
 10
50.106199
 20
145.834290
 30
0.0
 10
65.392302
 20
145.834290
 30
0.0
  0
SPLINE
  5
205
100
AcDbEntity
  8
Ebene_1
 62
7
100
AcDbSpline
 70
8
 71
3
 72
8
 73
4
 74
0
 40
0
 40
0
 40
0
 40
0
 40
1
 40
1
 40
1
 40
1
 10
67.860178
 20
139.469539
 30
0.0
 10
67.923916
 20
139.190406
 30
0.0
 10
67.955785
 20
139.001987
 30
0.0
 10
67.955785
 20
138.904281
 30
0.0
  0
SPLINE
  5
206
100
AcDbEntity
  8
Ebene_1
 62
7
100
AcDbSpline
 70
8
 71
3
 72
8
 73
4
 74
0
 40
0
 40
0
 40
0
 40
0
 40
1
 40
1
 40
1
 40
1
 10
67.955785
 20
138.904281
 30
0.0
 10
67.955785
 20
138.527383
 30
0.0
 10
67.572442
 20
138.338934
 30
0.0
 10
66.805757
 20
138.338934
 30
0.0
  0
SPLINE
  5
207
100
AcDbEntity
  8
Ebene_1
 62
7
100
AcDbSpline
 70
8
 71
3
 72
8
 73
4
 74
0
 40
0
 40
0
 40
0
 40
0
 40
1
 40
1
 40
1
 40
1
 10
66.805757
 20
138.338934
 30
0.0
 10
65.943194
 20
138.338934
 30
0.0
 10
65.368163
 20
138.422686
 30
0.0
 10
65.080665
 20
138.590190
 30
0.0
  0
SPLINE
  5
208
100
AcDbEntity
  8
Ebene_1
 62
7
100
AcDbSpline
 70
8
 71
3
 72
8
 73
4
 74
0
 40
0
 40
0
 40
0
 40
0
 40
1
 40
1
 40
1
 40
1
 10
65.080665
 20
138.590190
 30
0.0
 10
64.793166
 20
138.771677
 30
0.0
 10
64.513635
 20
139.211351
 30
0.0
 10
64.242071
 20
139.909214
 30
0.0
  0
SPLINE
  5
209
100
AcDbEntity
  8
Ebene_1
 62
7
100
AcDbSpline
 70
8
 71
3
 72
8
 73
4
 74
0
 40
0
 40
0
 40
0
 40
0
 40
1
 40
1
 40
1
 40
1
 10
64.242071
 20
139.909214
 30
0.0
 10
63.746882
 20
141.165402
 30
0.0
 10
63.315600
 20
142.037759
 30
0.0
 10
62.948226
 20
142.526287
 30
0.0
  0
SPLINE
  5
20a
100
AcDbEntity
  8
Ebene_1
 62
7
100
AcDbSpline
 70
8
 71
3
 72
8
 73
4
 74
0
 40
0
 40
0
 40
0
 40
0
 40
1
 40
1
 40
1
 40
1
 10
62.948226
 20
142.526287
 30
0.0
 10
62.596854
 20
143.014814
 30
0.0
 10
62.197543
 20
143.259078
 30
0.0
 10
61.750293
 20
143.259078
 30
0.0
  0
LWPOLYLINE
  5
20b
100
AcDbEntity
  8
Ebene_1
 62
7
100
AcDbPolyline
 90
2
 70
0
 10
66.638242
 20
144.871218
 30
0.0
 10
67.860178
 20
139.469539
 30
0.0
  0
LWPOLYLINE
  5
20c
100
AcDbEntity
  8
Ebene_1
 62
7
100
AcDbPolyline
 90
2
 70
0
 10
61.750293
 20
143.259078
 30
0.0
 10
60.120910
 20
143.259078
 30
0.0
  0
SPLINE
  5
20d
100
AcDbEntity
  8
Ebene_1
 62
7
100
AcDbSpline
 70
8
 71
3
 72
8
 73
4
 74
0
 40
0
 40
0
 40
0
 40
0
 40
1
 40
1
 40
1
 40
1
 10
69.560962
 20
145.185221
 30
0.0
 10
69.560962
 20
145.617934
 30
0.0
 10
69.824525
 20
145.834290
 30
0.0
 10
70.351650
 20
145.834290
 30
0.0
  0
LWPOLYLINE
  5
20e
100
AcDbEntity
  8
Ebene_1
 62
7
100
AcDbPolyline
 90
2
 70
0
 10
69.560962
 20
144.075591
 30
0.0
 10
69.560962
 20
145.185221
 30
0.0
  0
SPLINE
  5
20f
100
AcDbEntity
  8
Ebene_1
 62
7
100
AcDbSpline
 70
8
 71
3
 72
8
 73
4
 74
0
 40
0
 40
0
 40
0
 40
0
 40
1
 40
1
 40
1
 40
1
 10
81.828229
 20
145.834290
 30
0.0
 10
82.259545
 20
145.834290
 30
0.0
 10
82.539076
 20
145.785437
 30
0.0
 10
82.666823
 20
145.687732
 30
0.0
  0
SPLINE
  5
210
100
AcDbEntity
  8
Ebene_1
 62
7
100
AcDbSpline
 70
8
 71
3
 72
8
 73
4
 74
0
 40
0
 40
0
 40
0
 40
0
 40
1
 40
1
 40
1
 40
1
 10
82.666823
 20
145.687732
 30
0.0
 10
82.794638
 20
145.590026
 30
0.0
 10
82.858545
 20
145.296910
 30
0.0
 10
82.858545
 20
144.808382
 30
0.0
  0
SPLINE
  5
211
100
AcDbEntity
  8
Ebene_1
 62
7
100
AcDbSpline
 70
8
 71
3
 72
8
 73
4
 74
0
 40
0
 40
0
 40
0
 40
0
 40
1
 40
1
 40
1
 40
1
 10
82.858545
 20
144.808382
 30
0.0
 10
82.858545
 20
144.068629
 30
0.0
 10
82.810606
 20
143.608039
 30
0.0
 10
82.714728
 20
143.426611
 30
0.0
  0
SPLINE
  5
212
100
AcDbEntity
  8
Ebene_1
 62
7
100
AcDbSpline
 70
8
 71
3
 72
8
 73
4
 74
0
 40
0
 40
0
 40
0
 40
0
 40
1
 40
1
 40
1
 40
1
 10
82.714728
 20
143.426611
 30
0.0
 10
82.634852
 20
143.245124
 30
0.0
 10
82.443198
 20
143.133435
 30
0.0
 10
82.139765
 20
143.091545
 30
0.0
  0
SPLINE
  5
213
100
AcDbEntity
  8
Ebene_1
 62
7
100
AcDbSpline
 70
8
 71
3
 72
8
 73
4
 74
0
 40
0
 40
0
 40
0
 40
0
 40
1
 40
1
 40
1
 40
1
 10
82.139765
 20
143.091545
 30
0.0
 10
81.149387
 20
142.938024
 30
0.0
 10
80.654198
 20
142.386720
 30
0.0
 10
80.654198
 20
141.437632
 30
0.0
  0
LWPOLYLINE
  5
214
100
AcDbEntity
  8
Ebene_1
 62
7
100
AcDbPolyline
 90
2
 70
0
 10
70.351650
 20
145.834290
 30
0.0
 10
81.828229
 20
145.834290
 30
0.0
  0
SPLINE
  5
215
100
AcDbEntity
  8
Ebene_1
 62
7
100
AcDbSpline
 70
8
 71
3
 72
8
 73
4
 74
0
 40
0
 40
0
 40
0
 40
0
 40
1
 40
1
 40
1
 40
1
 10
80.654198
 20
116.271745
 30
0.0
 10
80.654198
 20
115.741386
 30
0.0
 10
81.013605
 20
115.322657
 30
0.0
 10
81.732419
 20
115.015557
 30
0.0
  0
SPLINE
  5
216
100
AcDbEntity
  8
Ebene_1
 62
7
100
AcDbSpline
 70
8
 71
3
 72
8
 73
4
 74
0
 40
0
 40
0
 40
0
 40
0
 40
1
 40
1
 40
1
 40
1
 10
81.732419
 20
115.015557
 30
0.0
 10
82.195603
 20
114.820146
 30
0.0
 10
82.475135
 20
114.645680
 30
0.0
 10
82.571013
 20
114.492160
 30
0.0
  0
SPLINE
  5
217
100
AcDbEntity
  8
Ebene_1
 62
7
100
AcDbSpline
 70
8
 71
3
 72
8
 73
4
 74
0
 40
0
 40
0
 40
0
 40
0
 40
1
 40
1
 40
1
 40
1
 10
82.571013
 20
114.492160
 30
0.0
 10
82.666823
 20
114.338640
 30
0.0
 10
82.714728
 20
114.073431
 30
0.0
 10
82.714728
 20
113.696533
 30
0.0
  0
LWPOLYLINE
  5
218
100
AcDbEntity
  8
Ebene_1
 62
7
100
AcDbPolyline
 90
2
 70
0
 10
80.654198
 20
141.437632
 30
0.0
 10
80.654198
 20
116.271745
 30
0.0
  0
SPLINE
  5
219
100
AcDbEntity
  8
Ebene_1
 62
7
100
AcDbSpline
 70
8
 71
3
 72
8
 73
4
 74
0
 40
0
 40
0
 40
0
 40
0
 40
1
 40
1
 40
1
 40
1
 10
82.714728
 20
112.880020
 30
0.0
 10
82.714728
 20
112.433383
 30
0.0
 10
82.666823
 20
112.182157
 30
0.0
 10
82.571013
 20
112.126342
 30
0.0
  0
SPLINE
  5
21a
100
AcDbEntity
  8
Ebene_1
 62
7
100
AcDbSpline
 70
8
 71
3
 72
8
 73
4
 74
0
 40
0
 40
0
 40
0
 40
0
 40
1
 40
1
 40
1
 40
1
 10
82.571013
 20
112.126342
 30
0.0
 10
82.475135
 20
112.070646
 30
0.0
 10
82.227540
 20
112.042798
 30
0.0
 10
81.828229
 20
112.042798
 30
0.0
  0
LWPOLYLINE
  5
21b
100
AcDbEntity
  8
Ebene_1
 62
7
100
AcDbPolyline
 90
2
 70
0
 10
82.714728
 20
113.696533
 30
0.0
 10
82.714728
 20
112.880020
 30
0.0
  0
SPLINE
  5
21c
100
AcDbEntity
  8
Ebene_1
 62
7
100
AcDbSpline
 70
8
 71
3
 72
8
 73
4
 74
0
 40
0
 40
0
 40
0
 40
0
 40
1
 40
1
 40
1
 40
1
 10
70.136027
 20
112.042798
 30
0.0
 10
69.688777
 20
112.042798
 30
0.0
 10
69.465152
 20
112.196318
 30
0.0
 10
69.465152
 20
112.503359
 30
0.0
  0
SPLINE
  5
21d
100
AcDbEntity
  8
Ebene_1
 62
7
100
AcDbSpline
 70
8
 71
3
 72
8
 73
4
 74
0
 40
0
 40
0
 40
0
 40
0
 40
1
 40
1
 40
1
 40
1
 10
69.465152
 20
112.503359
 30
0.0
 10
69.465152
 20
113.508321
 30
0.0
 10
69.505089
 20
114.122461
 30
0.0
 10
69.584965
 20
114.345780
 30
0.0
  0
SPLINE
  5
21e
100
AcDbEntity
  8
Ebene_1
 62
7
100
AcDbSpline
 70
8
 71
3
 72
8
 73
4
 74
0
 40
0
 40
0
 40
0
 40
0
 40
1
 40
1
 40
1
 40
1
 10
69.584965
 20
114.345780
 30
0.0
 10
69.664841
 20
114.569098
 30
0.0
 10
69.944372
 20
114.743564
 30
0.0
 10
70.423559
 20
114.869176
 30
0.0
  0
SPLINE
  5
21f
100
AcDbEntity
  8
Ebene_1
 62
7
100
AcDbSpline
 70
8
 71
3
 72
8
 73
4
 74
0
 40
0
 40
0
 40
0
 40
0
 40
1
 40
1
 40
1
 40
1
 10
70.423559
 20
114.869176
 30
0.0
 10
71.286054
 20
115.078571
 30
0.0
 10
71.717302
 20
115.476384
 30
0.0
 10
71.717302
 20
116.062617
 30
0.0
  0
LWPOLYLINE
  5
220
100
AcDbEntity
  8
Ebene_1
 62
7
100
AcDbPolyline
 90
2
 70
0
 10
81.828229
 20
112.042798
 30
0.0
 10
70.136027
 20
112.042798
 30
0.0
  0
SPLINE
  5
221
100
AcDbEntity
  8
Ebene_1
 62
7
100
AcDbSpline
 70
8
 71
3
 72
8
 73
4
 74
0
 40
0
 40
0
 40
0
 40
0
 40
1
 40
1
 40
1
 40
1
 10
71.717302
 20
140.914324
 30
0.0
 10
71.717302
 20
141.500557
 30
0.0
 10
71.637460
 20
141.940232
 30
0.0
 10
71.477776
 20
142.233348
 30
0.0
  0
SPLINE
  5
222
100
AcDbEntity
  8
Ebene_1
 62
7
100
AcDbSpline
 70
8
 71
3
 72
8
 73
4
 74
0
 40
0
 40
0
 40
0
 40
0
 40
1
 40
1
 40
1
 40
1
 10
71.477776
 20
142.233348
 30
0.0
 10
71.318025
 20
142.540448
 30
0.0
 10
70.966619
 20
142.791703
 30
0.0
 10
70.423559
 20
142.987114
 30
0.0
  0
SPLINE
  5
223
100
AcDbEntity
  8
Ebene_1
 62
7
100
AcDbSpline
 70
8
 71
3
 72
8
 73
4
 74
0
 40
0
 40
0
 40
0
 40
0
 40
1
 40
1
 40
1
 40
1
 10
70.423559
 20
142.987114
 30
0.0
 10
70.024180
 20
143.140634
 30
0.0
 10
69.776586
 20
143.273209
 30
0.0
 10
69.680775
 20
143.384839
 30
0.0
  0
SPLINE
  5
224
100
AcDbEntity
  8
Ebene_1
 62
7
100
AcDbSpline
 70
8
 71
3
 72
8
 73
4
 74
0
 40
0
 40
0
 40
0
 40
0
 40
1
 40
1
 40
1
 40
1
 10
69.680775
 20
143.384839
 30
0.0
 10
69.600900
 20
143.510452
 30
0.0
 10
69.560962
 20
143.740762
 30
0.0
 10
69.560962
 20
144.075769
 30
0.0
  0
LWPOLYLINE
  5
225
100
AcDbEntity
  8
Ebene_1
 62
7
100
AcDbPolyline
 90
2
 70
0
 10
71.717302
 20
116.062617
 30
0.0
 10
71.717302
 20
140.914324
 30
0.0
  0
LWPOLYLINE
  5
226
100
AcDbEntity
  8
Ebene_1
 62
7
100
AcDbPolyline
 90
2
 70
0
 10
69.560962
 20
144.075769
 30
0.0
 10
69.560962
 20
144.075591
 30
0.0
  0
SPLINE
  5
227
100
AcDbEntity
  8
Ebene_1
 62
7
100
AcDbSpline
 70
8
 71
3
 72
8
 73
4
 74
0
 40
0
 40
0
 40
0
 40
0
 40
1
 40
1
 40
1
 40
1
 10
110.052576
 20
145.834290
 30
0.0
 10
110.627573
 20
145.834290
 30
0.0
 10
111.002914
 20
145.757530
 30
0.0
 10
111.178600
 20
145.604010
 30
0.0
  0
SPLINE
  5
228
100
AcDbEntity
  8
Ebene_1
 62
7
100
AcDbSpline
 70
8
 71
3
 72
8
 73
4
 74
0
 40
0
 40
0
 40
0
 40
0
 40
1
 40
1
 40
1
 40
1
 10
111.178600
 20
145.604010
 30
0.0
 10
111.354354
 20
145.464413
 30
0.0
 10
111.442231
 20
145.094507
 30
0.0
 10
111.442231
 20
144.494291
 30
0.0
  0
SPLINE
  5
229
100
AcDbEntity
  8
Ebene_1
 62
7
100
AcDbSpline
 70
8
 71
3
 72
8
 73
4
 74
0
 40
0
 40
0
 40
0
 40
0
 40
1
 40
1
 40
1
 40
1
 10
111.442231
 20
144.494291
 30
0.0
 10
111.442231
 20
143.949949
 30
0.0
 10
111.378323
 20
143.566118
 30
0.0
 10
111.250509
 20
143.342800
 30
0.0
  0
SPLINE
  5
22a
100
AcDbEntity
  8
Ebene_1
 62
7
100
AcDbSpline
 70
8
 71
3
 72
8
 73
4
 74
0
 40
0
 40
0
 40
0
 40
0
 40
1
 40
1
 40
1
 40
1
 10
111.250509
 20
143.342800
 30
0.0
 10
111.138696
 20
143.133465
 30
0.0
 10
110.851198
 20
142.931092
 30
0.0
 10
110.388013
 20
142.735681
 30
0.0
  0
SPLINE
  5
22b
100
AcDbEntity
  8
Ebene_1
 62
7
100
AcDbSpline
 70
8
 71
3
 72
8
 73
4
 74
0
 40
0
 40
0
 40
0
 40
0
 40
1
 40
1
 40
1
 40
1
 10
110.388013
 20
142.735681
 30
0.0
 10
109.972700
 20
142.568178
 30
0.0
 10
109.709137
 20
142.386720
 30
0.0
 10
109.597325
 20
142.191309
 30
0.0
  0
SPLINE
  5
22c
100
AcDbEntity
  8
Ebene_1
 62
7
100
AcDbSpline
 70
8
 71
3
 72
8
 73
4
 74
0
 40
0
 40
0
 40
0
 40
0
 40
1
 40
1
 40
1
 40
1
 10
109.597325
 20
142.191309
 30
0.0
 10
109.485512
 20
141.995898
 30
0.0
 10
109.429606
 20
141.674874
 30
0.0
 10
109.429606
 20
141.228238
 30
0.0
  0
LWPOLYLINE
  5
22d
100
AcDbEntity
  8
Ebene_1
 62
7
100
AcDbPolyline
 90
2
 70
0
 10
101.570931
 20
145.834290
 30
0.0
 10
110.052576
 20
145.834290
 30
0.0
  0
SPLINE
  5
22e
100
AcDbEntity
  8
Ebene_1
 62
7
100
AcDbSpline
 70
8
 71
3
 72
8
 73
4
 74
0
 40
0
 40
0
 40
0
 40
0
 40
1
 40
1
 40
1
 40
1
 10
109.429606
 20
116.376442
 30
0.0
 10
109.429606
 20
116.013527
 30
0.0
 10
109.477511
 20
115.748348
 30
0.0
 10
109.573321
 20
115.580904
 30
0.0
  0
SPLINE
  5
22f
100
AcDbEntity
  8
Ebene_1
 62
7
100
AcDbSpline
 70
8
 71
3
 72
8
 73
4
 74
0
 40
0
 40
0
 40
0
 40
0
 40
1
 40
1
 40
1
 40
1
 10
109.573321
 20
115.580904
 30
0.0
 10
109.669199
 20
115.413400
 30
0.0
 10
109.932762
 20
115.238905
 30
0.0
 10
110.364010
 20
115.057418
 30
0.0
  0
SPLINE
  5
230
100
AcDbEntity
  8
Ebene_1
 62
7
100
AcDbSpline
 70
8
 71
3
 72
8
 73
4
 74
0
 40
0
 40
0
 40
0
 40
0
 40
1
 40
1
 40
1
 40
1
 10
110.364010
 20
115.057418
 30
0.0
 10
110.955009
 20
114.806192
 30
0.0
 10
111.250509
 20
114.464253
 30
0.0
 10
111.250509
 20
114.031599
 30
0.0
  0
SPLINE
  5
231
100
AcDbEntity
  8
Ebene_1
 62
7
100
AcDbSpline
 70
8
 71
3
 72
8
 73
4
 74
0
 40
0
 40
0
 40
0
 40
0
 40
1
 40
1
 40
1
 40
1
 10
111.250509
 20
114.031599
 30
0.0
 10
111.250509
 20
112.942856
 30
0.0
 10
111.210571
 20
112.335677
 30
0.0
 10
111.130695
 20
112.210065
 30
0.0
  0
SPLINE
  5
232
100
AcDbEntity
  8
Ebene_1
 62
7
100
AcDbSpline
 70
8
 71
3
 72
8
 73
4
 74
0
 40
0
 40
0
 40
0
 40
0
 40
1
 40
1
 40
1
 40
1
 10
111.130695
 20
112.210065
 30
0.0
 10
111.050819
 20
112.098435
 30
0.0
 10
110.771288
 20
112.042620
 30
0.0
 10
110.292101
 20
112.042620
 30
0.0
  0
LWPOLYLINE
  5
233
100
AcDbEntity
  8
Ebene_1
 62
7
100
AcDbPolyline
 90
2
 70
0
 10
109.429606
 20
141.228238
 30
0.0
 10
109.429606
 20
116.376442
 30
0.0
  0
SPLINE
  5
234
100
AcDbEntity
  8
Ebene_1
 62
7
100
AcDbSpline
 70
8
 71
3
 72
8
 73
4
 74
0
 40
0
 40
0
 40
0
 40
0
 40
1
 40
1
 40
1
 40
1
 10
99.606211
 20
112.042620
 30
0.0
 10
99.142959
 20
112.042620
 30
0.0
 10
98.911333
 20
112.384560
 30
0.0
 10
98.911333
 20
113.068439
 30
0.0
  0
SPLINE
  5
235
100
AcDbEntity
  8
Ebene_1
 62
7
100
AcDbSpline
 70
8
 71
3
 72
8
 73
4
 74
0
 40
0
 40
0
 40
0
 40
0
 40
1
 40
1
 40
1
 40
1
 10
98.911333
 20
113.068439
 30
0.0
 10
98.911333
 20
113.654672
 30
0.0
 10
98.935404
 20
114.087384
 30
0.0
 10
98.983546
 20
114.366577
 30
0.0
  0
SPLINE
  5
236
100
AcDbEntity
  8
Ebene_1
 62
7
100
AcDbSpline
 70
8
 71
3
 72
8
 73
4
 74
0
 40
0
 40
0
 40
0
 40
0
 40
1
 40
1
 40
1
 40
1
 10
98.983546
 20
114.366577
 30
0.0
 10
99.031689
 20
114.659693
 30
0.0
 10
99.327189
 20
114.896965
 30
0.0
 10
99.870045
 20
115.078393
 30
0.0
  0
SPLINE
  5
237
100
AcDbEntity
  8
Ebene_1
 62
7
100
AcDbSpline
 70
8
 71
3
 72
8
 73
4
 74
0
 40
0
 40
0
 40
0
 40
0
 40
1
 40
1
 40
1
 40
1
 10
99.870045
 20
115.078393
 30
0.0
 10
100.477047
 20
115.287728
 30
0.0
 10
100.780547
 20
115.657605
 30
0.0
 10
100.780547
 20
116.188023
 30
0.0
  0
LWPOLYLINE
  5
238
100
AcDbEntity
  8
Ebene_1
 62
7
100
AcDbPolyline
 90
2
 70
0
 10
110.292101
 20
112.042620
 30
0.0
 10
99.606211
 20
112.042620
 30
0.0
  0
SPLINE
  5
239
100
AcDbEntity
  8
Ebene_1
 62
7
100
AcDbSpline
 70
8
 71
3
 72
8
 73
4
 74
0
 40
0
 40
0
 40
0
 40
0
 40
1
 40
1
 40
1
 40
1
 10
89.591399
 20
116.250859
 30
0.0
 10
89.591399
 20
115.692533
 30
0.0
 10
89.878932
 20
115.280766
 30
0.0
 10
90.453996
 20
115.015557
 30
0.0
  0
SPLINE
  5
23a
100
AcDbEntity
  8
Ebene_1
 62
7
100
AcDbSpline
 70
8
 71
3
 72
8
 73
4
 74
0
 40
0
 40
0
 40
0
 40
0
 40
1
 40
1
 40
1
 40
1
 10
90.453996
 20
115.015557
 30
0.0
 10
91.156808
 20
114.708516
 30
0.0
 10
91.508214
 20
114.164174
 30
0.0
 10
91.508214
 20
113.382530
 30
0.0
  0
SPLINE
  5
23b
100
AcDbEntity
  8
Ebene_1
 62
7
100
AcDbSpline
 70
8
 71
3
 72
8
 73
4
 74
0
 40
0
 40
0
 40
0
 40
0
 40
1
 40
1
 40
1
 40
1
 10
91.508214
 20
113.382530
 30
0.0
 10
91.508214
 20
112.489257
 30
0.0
 10
91.156808
 20
112.042620
 30
0.0
 10
90.453996
 20
112.042620
 30
0.0
  0
LWPOLYLINE
  5
23c
100
AcDbEntity
  8
Ebene_1
 62
7
100
AcDbPolyline
 90
6
 70
0
 10
100.780547
 20
116.188023
 30
0.0
 10
100.780547
 20
133.816693
 30
0.0
 10
96.467766
 20
119.579748
 30
0.0
 10
93.832273
 20
119.579748
 30
0.0
 10
89.591399
 20
133.377018
 30
0.0
 10
89.591399
 20
116.250859
 30
0.0
  0
SPLINE
  5
23d
100
AcDbEntity
  8
Ebene_1
 62
7
100
AcDbSpline
 70
8
 71
3
 72
8
 73
4
 74
0
 40
0
 40
0
 40
0
 40
0
 40
1
 40
1
 40
1
 40
1
 10
85.254716
 20
112.042620
 30
0.0
 10
84.663717
 20
112.042620
 30
0.0
 10
84.368217
 20
112.468312
 30
0.0
 10
84.368217
 20
113.319694
 30
0.0
  0
SPLINE
  5
23e
100
AcDbEntity
  8
Ebene_1
 62
7
100
AcDbSpline
 70
8
 71
3
 72
8
 73
4
 74
0
 40
0
 40
0
 40
0
 40
0
 40
1
 40
1
 40
1
 40
1
 10
84.368217
 20
113.319694
 30
0.0
 10
84.368217
 20
113.919911
 30
0.0
 10
84.615811
 20
114.380531
 30
0.0
 10
85.111000
 20
114.701554
 30
0.0
  0
SPLINE
  5
23f
100
AcDbEntity
  8
Ebene_1
 62
7
100
AcDbSpline
 70
8
 71
3
 72
8
 73
4
 74
0
 40
0
 40
0
 40
0
 40
0
 40
1
 40
1
 40
1
 40
1
 10
85.111000
 20
114.701554
 30
0.0
 10
85.478375
 20
114.966763
 30
0.0
 10
85.710001
 20
115.176128
 30
0.0
 10
85.805879
 20
115.329648
 30
0.0
  0
SPLINE
  5
240
100
AcDbEntity
  8
Ebene_1
 62
7
100
AcDbSpline
 70
8
 71
3
 72
8
 73
4
 74
0
 40
0
 40
0
 40
0
 40
0
 40
1
 40
1
 40
1
 40
1
 10
85.805879
 20
115.329648
 30
0.0
 10
85.901689
 20
115.497152
 30
0.0
 10
85.949594
 20
115.783277
 30
0.0
 10
85.949594
 20
116.188023
 30
0.0
  0
LWPOLYLINE
  5
241
100
AcDbEntity
  8
Ebene_1
 62
7
100
AcDbPolyline
 90
2
 70
0
 10
90.453996
 20
112.042620
 30
0.0
 10
85.254716
 20
112.042620
 30
0.0
  0
SPLINE
  5
242
100
AcDbEntity
  8
Ebene_1
 62
7
100
AcDbSpline
 70
8
 71
3
 72
8
 73
4
 74
0
 40
0
 40
0
 40
0
 40
0
 40
1
 40
1
 40
1
 40
1
 10
85.949594
 20
140.369863
 30
0.0
 10
85.949594
 20
141.039818
 30
0.0
 10
85.877719
 20
141.549262
 30
0.0
 10
85.733970
 20
141.898193
 30
0.0
  0
SPLINE
  5
243
100
AcDbEntity
  8
Ebene_1
 62
7
100
AcDbSpline
 70
8
 71
3
 72
8
 73
4
 74
0
 40
0
 40
0
 40
0
 40
0
 40
1
 40
1
 40
1
 40
1
 10
85.733970
 20
141.898193
 30
0.0
 10
85.606155
 20
142.261107
 30
0.0
 10
85.318623
 20
142.554224
 30
0.0
 10
84.871373
 20
142.777542
 30
0.0
  0
SPLINE
  5
244
100
AcDbEntity
  8
Ebene_1
 62
7
100
AcDbSpline
 70
8
 71
3
 72
8
 73
4
 74
0
 40
0
 40
0
 40
0
 40
0
 40
1
 40
1
 40
1
 40
1
 10
84.871373
 20
142.777542
 30
0.0
 10
84.392186
 20
143.000861
 30
0.0
 10
84.152593
 20
143.231171
 30
0.0
 10
84.152593
 20
143.468472
 30
0.0
  0
LWPOLYLINE
  5
245
100
AcDbEntity
  8
Ebene_1
 62
7
100
AcDbPolyline
 90
2
 70
0
 10
85.949594
 20
116.188023
 30
0.0
 10
85.949594
 20
140.369863
 30
0.0
  0
SPLINE
  5
246
100
AcDbEntity
  8
Ebene_1
 62
7
100
AcDbSpline
 70
8
 71
3
 72
8
 73
4
 74
0
 40
0
 40
0
 40
0
 40
0
 40
1
 40
1
 40
1
 40
1
 10
84.177003
 20
144.368708
 30
0.0
 10
84.193277
 20
145.024739
 30
0.0
 10
84.241182
 20
145.429514
 30
0.0
 10
84.320719
 20
145.583035
 30
0.0
  0
SPLINE
  5
247
100
AcDbEntity
  8
Ebene_1
 62
7
100
AcDbSpline
 70
8
 71
3
 72
8
 73
4
 74
0
 40
0
 40
0
 40
0
 40
0
 40
1
 40
1
 40
1
 40
1
 10
84.320719
 20
145.583035
 30
0.0
 10
84.416597
 20
145.750538
 30
0.0
 10
84.632254
 20
145.834290
 30
0.0
 10
84.967692
 20
145.834290
 30
0.0
  0
LWPOLYLINE
  5
248
100
AcDbEntity
  8
Ebene_1
 62
7
100
AcDbPolyline
 90
2
 70
0
 10
84.152593
 20
143.468472
 30
0.0
 10
84.177003
 20
144.368708
 30
0.0
  0
LWPOLYLINE
  5
249
100
AcDbEntity
  8
Ebene_1
 62
7
100
AcDbPolyline
 90
4
 70
0
 10
84.967692
 20
145.834290
 30
0.0
 10
93.832679
 20
145.834290
 30
0.0
 10
97.666207
 20
132.895483
 30
0.0
 10
101.570931
 20
145.834290
 30
0.0
  0
SPLINE
  5
24a
100
AcDbEntity
  8
Ebene_1
 62
7
100
AcDbSpline
 70
8
 71
3
 72
8
 73
4
 74
0
 40
0
 40
0
 40
0
 40
0
 40
1
 40
1
 40
1
 40
1
 10
117.791437
 20
117.339514
 30
0.0
 10
117.791437
 20
117.297445
 30
0.0
 10
117.775503
 20
117.234639
 30
0.0
 10
117.743634
 20
117.151094
 30
0.0
  0
SPLINE
  5
24b
100
AcDbEntity
  8
Ebene_1
 62
7
100
AcDbSpline
 70
8
 71
3
 72
8
 73
4
 74
0
 40
0
 40
0
 40
0
 40
0
 40
1
 40
1
 40
1
 40
1
 10
117.743634
 20
117.151094
 30
0.0
 10
117.615887
 20
116.746348
 30
0.0
 10
117.552014
 20
116.383463
 30
0.0
 10
117.552014
 20
116.062439
 30
0.0
  0
SPLINE
  5
24c
100
AcDbEntity
  8
Ebene_1
 62
7
100
AcDbSpline
 70
8
 71
3
 72
8
 73
4
 74
0
 40
0
 40
0
 40
0
 40
0
 40
1
 40
1
 40
1
 40
1
 10
117.552014
 20
116.062439
 30
0.0
 10
117.552014
 20
115.559929
 30
0.0
 10
117.927355
 20
115.134208
 30
0.0
 10
118.678038
 20
114.785277
 30
0.0
  0
SPLINE
  5
24d
100
AcDbEntity
  8
Ebene_1
 62
7
100
AcDbSpline
 70
8
 71
3
 72
8
 73
4
 74
0
 40
0
 40
0
 40
0
 40
0
 40
1
 40
1
 40
1
 40
1
 10
118.678038
 20
114.785277
 30
0.0
 10
119.077417
 20
114.603849
 30
0.0
 10
119.325011
 20
114.415430
 30
0.0
 10
119.420821
 20
114.220019
 30
0.0
  0
SPLINE
  5
24e
100
AcDbEntity
  8
Ebene_1
 62
7
100
AcDbSpline
 70
8
 71
3
 72
8
 73
4
 74
0
 40
0
 40
0
 40
0
 40
0
 40
1
 40
1
 40
1
 40
1
 10
119.420821
 20
114.220019
 30
0.0
 10
119.516632
 20
114.024608
 30
0.0
 10
119.564537
 20
113.703584
 30
0.0
 10
119.564537
 20
113.256947
 30
0.0
  0
SPLINE
  5
24f
100
AcDbEntity
  8
Ebene_1
 62
7
100
AcDbSpline
 70
8
 71
3
 72
8
 73
4
 74
0
 40
0
 40
0
 40
0
 40
0
 40
1
 40
1
 40
1
 40
1
 10
119.564537
 20
113.256947
 30
0.0
 10
119.564537
 20
112.684638
 30
0.0
 10
119.524633
 20
112.335677
 30
0.0
 10
119.444825
 20
112.210065
 30
0.0
  0
SPLINE
  5
250
100
AcDbEntity
  8
Ebene_1
 62
7
100
AcDbSpline
 70
8
 71
3
 72
8
 73
4
 74
0
 40
0
 40
0
 40
0
 40
0
 40
1
 40
1
 40
1
 40
1
 10
119.444825
 20
112.210065
 30
0.0
 10
119.381087
 20
112.098435
 30
0.0
 10
119.213368
 20
112.042620
 30
0.0
 10
118.941669
 20
112.042620
 30
0.0
  0
LWPOLYLINE
  5
251
100
AcDbEntity
  8
Ebene_1
 62
7
100
AcDbPolyline
 90
3
 70
0
 10
124.044936
 20
119.265745
 30
0.0
 10
118.055068
 20
119.265745
 30
0.0
 10
117.791437
 20
117.339514
 30
0.0
  0
SPLINE
  5
252
100
AcDbEntity
  8
Ebene_1
 62
7
100
AcDbSpline
 70
8
 71
3
 72
8
 73
4
 74
0
 40
0
 40
0
 40
0
 40
0
 40
1
 40
1
 40
1
 40
1
 10
112.616364
 20
112.042620
 30
0.0
 10
112.264924
 20
112.042620
 30
0.0
 10
112.089204
 20
112.363644
 30
0.0
 10
112.089204
 20
113.005692
 30
0.0
  0
SPLINE
  5
253
100
AcDbEntity
  8
Ebene_1
 62
7
100
AcDbSpline
 70
8
 71
3
 72
8
 73
4
 74
0
 40
0
 40
0
 40
0
 40
0
 40
1
 40
1
 40
1
 40
1
 10
112.089204
 20
113.005692
 30
0.0
 10
112.089204
 20
113.773352
 30
0.0
 10
112.368735
 20
114.394455
 30
0.0
 10
112.927798
 20
114.868999
 30
0.0
  0
SPLINE
  5
254
100
AcDbEntity
  8
Ebene_1
 62
7
100
AcDbSpline
 70
8
 71
3
 72
8
 73
4
 74
0
 40
0
 40
0
 40
0
 40
0
 40
1
 40
1
 40
1
 40
1
 10
112.927798
 20
114.868999
 30
0.0
 10
113.454923
 20
115.301711
 30
0.0
 10
113.758424
 20
115.762331
 30
0.0
 10
113.838300
 20
116.250859
 30
0.0
  0
LWPOLYLINE
  5
255
100
AcDbEntity
  8
Ebene_1
 62
7
100
AcDbPolyline
 90
2
 70
0
 10
118.941669
 20
112.042620
 30
0.0
 10
112.616364
 20
112.042620
 30
0.0
  0
SPLINE
  5
256
100
AcDbEntity
  8
Ebene_1
 62
7
100
AcDbSpline
 70
8
 71
3
 72
8
 73
4
 74
0
 40
0
 40
0
 40
0
 40
0
 40
1
 40
1
 40
1
 40
1
 10
118.270794
 20
140.893260
 30
0.0
 10
118.350669
 20
141.270099
 30
0.0
 10
118.390607
 20
141.598085
 30
0.0
 10
118.390607
 20
141.877218
 30
0.0
  0
SPLINE
  5
257
100
AcDbEntity
  8
Ebene_1
 62
7
100
AcDbSpline
 70
8
 71
3
 72
8
 73
4
 74
0
 40
0
 40
0
 40
0
 40
0
 40
1
 40
1
 40
1
 40
1
 10
118.390607
 20
141.877218
 30
0.0
 10
118.390607
 20
142.309930
 30
0.0
 10
118.047169
 20
142.693790
 30
0.0
 10
117.360292
 20
143.028798
 30
0.0
  0
SPLINE
  5
258
100
AcDbEntity
  8
Ebene_1
 62
7
100
AcDbSpline
 70
8
 71
3
 72
8
 73
4
 74
0
 40
0
 40
0
 40
0
 40
0
 40
1
 40
1
 40
1
 40
1
 10
117.360292
 20
143.028798
 30
0.0
 10
117.040856
 20
143.196301
 30
0.0
 10
116.881139
 20
143.566178
 30
0.0
 10
116.881139
 20
144.138427
 30
0.0
  0
SPLINE
  5
259
100
AcDbEntity
  8
Ebene_1
 62
7
100
AcDbSpline
 70
8
 71
3
 72
8
 73
4
 74
0
 40
0
 40
0
 40
0
 40
0
 40
1
 40
1
 40
1
 40
1
 10
116.881139
 20
144.138427
 30
0.0
 10
116.881139
 20
144.906088
 30
0.0
 10
116.929044
 20
145.380632
 30
0.0
 10
117.024854
 20
145.562060
 30
0.0
  0
SPLINE
  5
25a
100
AcDbEntity
  8
Ebene_1
 62
7
100
AcDbSpline
 70
8
 71
3
 72
8
 73
4
 74
0
 40
0
 40
0
 40
0
 40
0
 40
1
 40
1
 40
1
 40
1
 10
117.024854
 20
145.562060
 30
0.0
 10
117.120732
 20
145.743546
 30
0.0
 10
117.376294
 20
145.834290
 30
0.0
 10
117.791539
 20
145.834290
 30
0.0
  0
LWPOLYLINE
  5
25b
100
AcDbEntity
  8
Ebene_1
 62
7
100
AcDbPolyline
 90
2
 70
0
 10
113.838300
 20
116.250859
 30
0.0
 10
118.270794
 20
140.893260
 30
0.0
  0
SPLINE
  5
25c
100
AcDbEntity
  8
Ebene_1
 62
7
100
AcDbSpline
 70
8
 71
3
 72
8
 73
4
 74
0
 40
0
 40
0
 40
0
 40
0
 40
1
 40
1
 40
1
 40
1
 10
126.944059
 20
145.834290
 30
0.0
 10
127.503122
 20
145.834290
 30
0.0
 10
127.894465
 20
145.603980
 30
0.0
 10
128.118090
 20
145.143360
 30
0.0
  0
SPLINE
  5
25d
100
AcDbEntity
  8
Ebene_1
 62
7
100
AcDbSpline
 70
8
 71
3
 72
8
 73
4
 74
0
 40
0
 40
0
 40
0
 40
0
 40
1
 40
1
 40
1
 40
1
 10
128.118090
 20
145.143360
 30
0.0
 10
128.341715
 20
144.682740
 30
0.0
 10
128.565340
 20
143.677778
 30
0.0
 10
128.788965
 20
142.128473
 30
0.0
  0
SPLINE
  5
25e
100
AcDbEntity
  8
Ebene_1
 62
7
100
AcDbSpline
 70
8
 71
3
 72
8
 73
4
 74
0
 40
0
 40
0
 40
0
 40
0
 40
1
 40
1
 40
1
 40
1
 10
128.788965
 20
142.128473
 30
0.0
 10
128.884843
 20
141.528316
 30
0.0
 10
128.980687
 20
140.935121
 30
0.0
 10
129.076498
 20
140.348888
 30
0.0
  0
LWPOLYLINE
  5
25f
100
AcDbEntity
  8
Ebene_1
 62
7
100
AcDbPolyline
 90
2
 70
0
 10
117.791539
 20
145.834290
 30
0.0
 10
126.944059
 20
145.834290
 30
0.0
  0
SPLINE
  5
260
100
AcDbEntity
  8
Ebene_1
 62
7
100
AcDbSpline
 70
8
 71
3
 72
8
 73
4
 74
0
 40
0
 40
0
 40
0
 40
0
 40
1
 40
1
 40
1
 40
1
 10
133.005835
 20
117.339514
 30
0.0
 10
133.197523
 20
116.222922
 30
0.0
 10
133.668743
 20
115.371509
 30
0.0
 10
134.419494
 20
114.785277
 30
0.0
  0
SPLINE
  5
261
100
AcDbEntity
  8
Ebene_1
 62
7
100
AcDbSpline
 70
8
 71
3
 72
8
 73
4
 74
0
 40
0
 40
0
 40
0
 40
0
 40
1
 40
1
 40
1
 40
1
 10
134.419494
 20
114.785277
 30
0.0
 10
134.627116
 20
114.631756
 30
0.0
 10
134.762864
 20
114.506143
 30
0.0
 10
134.826738
 20
114.408438
 30
0.0
  0
SPLINE
  5
262
100
AcDbEntity
  8
Ebene_1
 62
7
100
AcDbSpline
 70
8
 71
3
 72
8
 73
4
 74
0
 40
0
 40
0
 40
0
 40
0
 40
1
 40
1
 40
1
 40
1
 10
134.826738
 20
114.408438
 30
0.0
 10
134.890476
 20
114.324657
 30
0.0
 10
134.922345
 20
114.052485
 30
0.0
 10
134.922345
 20
113.591925
 30
0.0
  0
SPLINE
  5
263
100
AcDbEntity
  8
Ebene_1
 62
7
100
AcDbSpline
 70
8
 71
3
 72
8
 73
4
 74
0
 40
0
 40
0
 40
0
 40
0
 40
1
 40
1
 40
1
 40
1
 10
134.922345
 20
113.591925
 30
0.0
 10
134.922345
 20
112.880079
 30
0.0
 10
134.866438
 20
112.440404
 30
0.0
 10
134.754626
 20
112.272901
 30
0.0
  0
SPLINE
  5
264
100
AcDbEntity
  8
Ebene_1
 62
7
100
AcDbSpline
 70
8
 71
3
 72
8
 73
4
 74
0
 40
0
 40
0
 40
0
 40
0
 40
1
 40
1
 40
1
 40
1
 10
134.754626
 20
112.272901
 30
0.0
 10
134.642813
 20
112.119380
 30
0.0
 10
134.403220
 20
112.042620
 30
0.0
 10
134.035846
 20
112.042620
 30
0.0
  0
LWPOLYLINE
  5
265
100
AcDbEntity
  8
Ebene_1
 62
7
100
AcDbPolyline
 90
2
 70
0
 10
129.076498
 20
140.348888
 30
0.0
 10
133.005835
 20
117.339514
 30
0.0
  0
SPLINE
  5
266
100
AcDbEntity
  8
Ebene_1
 62
7
100
AcDbSpline
 70
8
 71
3
 72
8
 73
4
 74
0
 40
0
 40
0
 40
0
 40
0
 40
1
 40
1
 40
1
 40
1
 10
123.373857
 20
112.042620
 30
0.0
 10
123.054354
 20
112.042620
 30
0.0
 10
122.894603
 20
112.307800
 30
0.0
 10
122.894603
 20
112.838159
 30
0.0
  0
SPLINE
  5
267
100
AcDbEntity
  8
Ebene_1
 62
7
100
AcDbSpline
 70
8
 71
3
 72
8
 73
4
 74
0
 40
0
 40
0
 40
0
 40
0
 40
1
 40
1
 40
1
 40
1
 10
122.894603
 20
112.838159
 30
0.0
 10
122.894603
 20
113.508114
 30
0.0
 10
122.934541
 20
113.926843
 30
0.0
 10
123.014416
 20
114.094346
 30
0.0
  0
SPLINE
  5
268
100
AcDbEntity
  8
Ebene_1
 62
7
100
AcDbSpline
 70
8
 71
3
 72
8
 73
4
 74
0
 40
0
 40
0
 40
0
 40
0
 40
1
 40
1
 40
1
 40
1
 10
123.014416
 20
114.094346
 30
0.0
 10
123.094292
 20
114.261850
 30
0.0
 10
123.325918
 20
114.457261
 30
0.0
 10
123.709295
 20
114.680579
 30
0.0
  0
SPLINE
  5
269
100
AcDbEntity
  8
Ebene_1
 62
7
100
AcDbSpline
 70
8
 71
3
 72
8
 73
4
 74
0
 40
0
 40
0
 40
0
 40
0
 40
1
 40
1
 40
1
 40
1
 10
123.709295
 20
114.680579
 30
0.0
 10
124.268357
 20
114.987679
 30
0.0
 10
124.547888
 20
115.378501
 30
0.0
 10
124.547888
 20
115.853045
 30
0.0
  0
SPLINE
  5
26a
100
AcDbEntity
  8
Ebene_1
 62
7
100
AcDbSpline
 70
8
 71
3
 72
8
 73
4
 74
0
 40
0
 40
0
 40
0
 40
0
 40
1
 40
1
 40
1
 40
1
 10
124.547888
 20
115.853045
 30
0.0
 10
124.547888
 20
116.341573
 30
0.0
 10
124.380170
 20
117.479139
 30
0.0
 10
124.044732
 20
119.265745
 30
0.0
  0
LWPOLYLINE
  5
26b
100
AcDbEntity
  8
Ebene_1
 62
7
100
AcDbPolyline
 90
2
 70
0
 10
134.035846
 20
112.042620
 30
0.0
 10
123.373857
 20
112.042620
 30
0.0
  0
LWPOLYLINE
  5
26c
100
AcDbEntity
  8
Ebene_1
 62
7
100
AcDbPolyline
 90
2
 70
0
 10
124.044732
 20
119.265745
 30
0.0
 10
124.044936
 20
119.265745
 30
0.0
  0
LWPOLYLINE
  5
26d
100
AcDbEntity
  8
Ebene_1
 62
7
100
AcDbPolyline
 90
3
 70
1
 10
121.169714
 20
137.941210
 30
0.0
 10
118.510218
 20
121.673424
 30
0.0
 10
123.781305
 20
121.673424
 30
0.0
  0
SPLINE
  5
26e
100
AcDbEntity
  8
Ebene_1
 62
7
100
AcDbSpline
 70
8
 71
3
 72
8
 73
4
 74
0
 40
0
 40
0
 40
0
 40
0
 40
1
 40
1
 40
1
 40
1
 10
179.321225
 20
141.877218
 30
0.0
 10
179.321225
 20
142.212225
 30
0.0
 10
179.281287
 20
142.435573
 30
0.0
 10
179.201412
 20
142.547262
 30
0.0
  0
SPLINE
  5
26f
100
AcDbEntity
  8
Ebene_1
 62
7
100
AcDbSpline
 70
8
 71
3
 72
8
 73
4
 74
0
 40
0
 40
0
 40
0
 40
0
 40
1
 40
1
 40
1
 40
1
 10
179.201412
 20
142.547262
 30
0.0
 10
179.137674
 20
142.658891
 30
0.0
 10
178.945986
 20
142.798458
 30
0.0
 10
178.626347
 20
142.965961
 30
0.0
  0
SPLINE
  5
270
100
AcDbEntity
  8
Ebene_1
 62
7
100
AcDbSpline
 70
8
 71
3
 72
8
 73
4
 74
0
 40
0
 40
0
 40
0
 40
0
 40
1
 40
1
 40
1
 40
1
 10
178.626347
 20
142.965961
 30
0.0
 10
178.274975
 20
143.133465
 30
0.0
 10
178.099289
 20
143.524287
 30
0.0
 10
178.099289
 20
144.138427
 30
0.0
  0
SPLINE
  5
271
100
AcDbEntity
  8
Ebene_1
 62
7
100
AcDbSpline
 70
8
 71
3
 72
8
 73
4
 74
0
 40
0
 40
0
 40
0
 40
0
 40
1
 40
1
 40
1
 40
1
 10
178.099289
 20
144.138427
 30
0.0
 10
178.099289
 20
144.920071
 30
0.0
 10
178.139227
 20
145.394615
 30
0.0
 10
178.219103
 20
145.562060
 30
0.0
  0
SPLINE
  5
272
100
AcDbEntity
  8
Ebene_1
 62
7
100
AcDbSpline
 70
8
 71
3
 72
8
 73
4
 74
0
 40
0
 40
0
 40
0
 40
0
 40
1
 40
1
 40
1
 40
1
 10
178.219103
 20
145.562060
 30
0.0
 10
178.298978
 20
145.743546
 30
0.0
 10
178.522603
 20
145.834290
 30
0.0
 10
178.889978
 20
145.834290
 30
0.0
  0
LWPOLYLINE
  5
273
100
AcDbEntity
  8
Ebene_1
 62
7
100
AcDbPolyline
 90
3
 70
0
 10
175.487698
 20
131.346178
 30
0.0
 10
179.321225
 20
131.346178
 30
0.0
 10
179.321225
 20
141.877218
 30
0.0
  0
SPLINE
  5
274
100
AcDbEntity
  8
Ebene_1
 62
7
100
AcDbSpline
 70
8
 71
3
 72
8
 73
4
 74
0
 40
0
 40
0
 40
0
 40
0
 40
1
 40
1
 40
1
 40
1
 10
189.288336
 20
145.834290
 30
0.0
 10
189.751588
 20
145.834290
 30
0.0
 10
190.031119
 20
145.757530
 30
0.0
 10
190.126929
 20
145.604010
 30
0.0
  0
SPLINE
  5
275
100
AcDbEntity
  8
Ebene_1
 62
7
100
AcDbSpline
 70
8
 71
3
 72
8
 73
4
 74
0
 40
0
 40
0
 40
0
 40
0
 40
1
 40
1
 40
1
 40
1
 10
190.126929
 20
145.604010
 30
0.0
 10
190.222807
 20
145.464413
 30
0.0
 10
190.270746
 20
144.989840
 30
0.0
 10
190.270746
 20
144.180288
 30
0.0
  0
SPLINE
  5
276
100
AcDbEntity
  8
Ebene_1
 62
7
100
AcDbSpline
 70
8
 71
3
 72
8
 73
4
 74
0
 40
0
 40
0
 40
0
 40
0
 40
1
 40
1
 40
1
 40
1
 10
190.270746
 20
144.180288
 30
0.0
 10
190.270746
 20
143.691761
 30
0.0
 10
190.214840
 20
143.398644
 30
0.0
 10
190.103027
 20
143.300939
 30
0.0
  0
SPLINE
  5
277
100
AcDbEntity
  8
Ebene_1
 62
7
100
AcDbSpline
 70
8
 71
3
 72
8
 73
4
 74
0
 40
0
 40
0
 40
0
 40
0
 40
1
 40
1
 40
1
 40
1
 10
190.103027
 20
143.300939
 30
0.0
 10
190.007149
 20
143.217217
 30
0.0
 10
189.687680
 20
143.056705
 30
0.0
 10
189.144620
 20
142.819403
 30
0.0
  0
SPLINE
  5
278
100
AcDbEntity
  8
Ebene_1
 62
7
100
AcDbSpline
 70
8
 71
3
 72
8
 73
4
 74
0
 40
0
 40
0
 40
0
 40
0
 40
1
 40
1
 40
1
 40
1
 10
189.144620
 20
142.819403
 30
0.0
 10
188.553621
 20
142.540270
 30
0.0
 10
188.258121
 20
142.107587
 30
0.0
 10
188.258121
 20
141.521354
 30
0.0
  0
LWPOLYLINE
  5
279
100
AcDbEntity
  8
Ebene_1
 62
7
100
AcDbPolyline
 90
2
 70
0
 10
178.889978
 20
145.834290
 30
0.0
 10
189.288336
 20
145.834290
 30
0.0
  0
SPLINE
  5
27a
100
AcDbEntity
  8
Ebene_1
 62
7
100
AcDbSpline
 70
8
 71
3
 72
8
 73
4
 74
0
 40
0
 40
0
 40
0
 40
0
 40
1
 40
1
 40
1
 40
1
 10
188.258121
 20
116.460164
 30
0.0
 10
188.258121
 20
115.804192
 30
0.0
 10
188.601526
 20
115.280796
 30
0.0
 10
189.288336
 20
114.889974
 30
0.0
  0
SPLINE
  5
27b
100
AcDbEntity
  8
Ebene_1
 62
7
100
AcDbSpline
 70
8
 71
3
 72
8
 73
4
 74
0
 40
0
 40
0
 40
0
 40
0
 40
1
 40
1
 40
1
 40
1
 10
189.288336
 20
114.889974
 30
0.0
 10
189.847398
 20
114.582874
 30
0.0
 10
190.126929
 20
114.303711
 30
0.0
 10
190.126929
 20
114.052485
 30
0.0
  0
LWPOLYLINE
  5
27c
100
AcDbEntity
  8
Ebene_1
 62
7
100
AcDbPolyline
 90
2
 70
0
 10
188.258121
 20
141.521354
 30
0.0
 10
188.258121
 20
116.460164
 30
0.0
  0
SPLINE
  5
27d
100
AcDbEntity
  8
Ebene_1
 62
7
100
AcDbSpline
 70
8
 71
3
 72
8
 73
4
 74
0
 40
0
 40
0
 40
0
 40
0
 40
1
 40
1
 40
1
 40
1
 10
190.126929
 20
112.733461
 30
0.0
 10
190.126929
 20
112.454328
 30
0.0
 10
190.079024
 20
112.265909
 30
0.0
 10
189.983214
 20
112.168203
 30
0.0
  0
SPLINE
  5
27e
100
AcDbEntity
  8
Ebene_1
 62
7
100
AcDbSpline
 70
8
 71
3
 72
8
 73
4
 74
0
 40
0
 40
0
 40
0
 40
0
 40
1
 40
1
 40
1
 40
1
 10
189.983214
 20
112.168203
 30
0.0
 10
189.887336
 20
112.084481
 30
0.0
 10
189.607805
 20
112.042620
 30
0.0
 10
189.144620
 20
112.042620
 30
0.0
  0
LWPOLYLINE
  5
27f
100
AcDbEntity
  8
Ebene_1
 62
7
100
AcDbPolyline
 90
2
 70
0
 10
190.126929
 20
114.052485
 30
0.0
 10
190.126929
 20
112.733461
 30
0.0
  0
SPLINE
  5
280
100
AcDbEntity
  8
Ebene_1
 62
7
100
AcDbSpline
 70
8
 71
3
 72
8
 73
4
 74
0
 40
0
 40
0
 40
0
 40
0
 40
1
 40
1
 40
1
 40
1
 10
178.698255
 20
112.042620
 30
0.0
 10
178.346884
 20
112.042620
 30
0.0
 10
178.131260
 20
112.098435
 30
0.0
 10
178.051384
 20
112.210065
 30
0.0
  0
SPLINE
  5
281
100
AcDbEntity
  8
Ebene_1
 62
7
100
AcDbSpline
 70
8
 71
3
 72
8
 73
4
 74
0
 40
0
 40
0
 40
0
 40
0
 40
1
 40
1
 40
1
 40
1
 10
178.051384
 20
112.210065
 30
0.0
 10
177.971508
 20
112.321753
 30
0.0
 10
177.931570
 20
112.838188
 30
0.0
 10
177.931570
 20
113.759369
 30
0.0
  0
SPLINE
  5
282
100
AcDbEntity
  8
Ebene_1
 62
7
100
AcDbSpline
 70
8
 71
3
 72
8
 73
4
 74
0
 40
0
 40
0
 40
0
 40
0
 40
1
 40
1
 40
1
 40
1
 10
177.931570
 20
113.759369
 30
0.0
 10
177.931570
 20
114.219989
 30
0.0
 10
178.147194
 20
114.582904
 30
0.0
 10
178.578442
 20
114.848113
 30
0.0
  0
SPLINE
  5
283
100
AcDbEntity
  8
Ebene_1
 62
7
100
AcDbSpline
 70
8
 71
3
 72
8
 73
4
 74
0
 40
0
 40
0
 40
0
 40
0
 40
1
 40
1
 40
1
 40
1
 10
178.578442
 20
114.848113
 30
0.0
 10
179.073631
 20
115.155153
 30
0.0
 10
179.321225
 20
115.511076
 30
0.0
 10
179.321225
 20
115.915881
 30
0.0
  0
LWPOLYLINE
  5
284
100
AcDbEntity
  8
Ebene_1
 62
7
100
AcDbPolyline
 90
2
 70
0
 10
189.144620
 20
112.042620
 30
0.0
 10
178.698255
 20
112.042620
 30
0.0
  0
SPLINE
  5
285
100
AcDbEntity
  8
Ebene_1
 62
7
100
AcDbSpline
 70
8
 71
3
 72
8
 73
4
 74
0
 40
0
 40
0
 40
0
 40
0
 40
1
 40
1
 40
1
 40
1
 10
175.487698
 20
115.790209
 30
0.0
 10
175.487698
 20
115.343572
 30
0.0
 10
175.695355
 20
114.987650
 30
0.0
 10
176.110668
 20
114.722440
 30
0.0
  0
SPLINE
  5
286
100
AcDbEntity
  8
Ebene_1
 62
7
100
AcDbSpline
 70
8
 71
3
 72
8
 73
4
 74
0
 40
0
 40
0
 40
0
 40
0
 40
1
 40
1
 40
1
 40
1
 10
176.110668
 20
114.722440
 30
0.0
 10
176.525981
 20
114.429324
 30
0.0
 10
176.733638
 20
114.017586
 30
0.0
 10
176.733638
 20
113.487227
 30
0.0
  0
SPLINE
  5
287
100
AcDbEntity
  8
Ebene_1
 62
7
100
AcDbSpline
 70
8
 71
3
 72
8
 73
4
 74
0
 40
0
 40
0
 40
0
 40
0
 40
1
 40
1
 40
1
 40
1
 10
176.733638
 20
113.487227
 30
0.0
 10
176.733638
 20
112.747474
 30
0.0
 10
176.685699
 20
112.321753
 30
0.0
 10
176.589821
 20
112.210065
 30
0.0
  0
SPLINE
  5
288
100
AcDbEntity
  8
Ebene_1
 62
7
100
AcDbSpline
 70
8
 71
3
 72
8
 73
4
 74
0
 40
0
 40
0
 40
0
 40
0
 40
1
 40
1
 40
1
 40
1
 10
176.589821
 20
112.210065
 30
0.0
 10
176.494010
 20
112.098435
 30
0.0
 10
176.302356
 20
112.042620
 30
0.0
 10
176.014858
 20
112.042620
 30
0.0
  0
LWPOLYLINE
  5
289
100
AcDbEntity
  8
Ebene_1
 62
7
100
AcDbPolyline
 90
4
 70
0
 10
179.321225
 20
115.915881
 30
0.0
 10
179.321225
 20
128.980272
 30
0.0
 10
175.487698
 20
128.980272
 30
0.0
 10
175.487698
 20
115.790209
 30
0.0
  0
SPLINE
  5
28a
100
AcDbEntity
  8
Ebene_1
 62
7
100
AcDbSpline
 70
8
 71
3
 72
8
 73
4
 74
0
 40
0
 40
0
 40
0
 40
0
 40
1
 40
1
 40
1
 40
1
 10
165.496584
 20
112.042620
 30
0.0
 10
165.161147
 20
112.042620
 30
0.0
 10
164.953490
 20
112.105427
 30
0.0
 10
164.873614
 20
112.231040
 30
0.0
  0
SPLINE
  5
28b
100
AcDbEntity
  8
Ebene_1
 62
7
100
AcDbSpline
 70
8
 71
3
 72
8
 73
4
 74
0
 40
0
 40
0
 40
0
 40
0
 40
1
 40
1
 40
1
 40
1
 10
164.873614
 20
112.231040
 30
0.0
 10
164.793739
 20
112.356652
 30
0.0
 10
164.753801
 20
112.852142
 30
0.0
 10
164.753801
 20
113.717508
 30
0.0
  0
SPLINE
  5
28c
100
AcDbEntity
  8
Ebene_1
 62
7
100
AcDbSpline
 70
8
 71
3
 72
8
 73
4
 74
0
 40
0
 40
0
 40
0
 40
0
 40
1
 40
1
 40
1
 40
1
 10
164.753801
 20
113.717508
 30
0.0
 10
164.753801
 20
114.122254
 30
0.0
 10
164.793739
 20
114.387463
 30
0.0
 10
164.873614
 20
114.513135
 30
0.0
  0
SPLINE
  5
28d
100
AcDbEntity
  8
Ebene_1
 62
7
100
AcDbSpline
 70
8
 71
3
 72
8
 73
4
 74
0
 40
0
 40
0
 40
0
 40
0
 40
1
 40
1
 40
1
 40
1
 10
164.873614
 20
114.513135
 30
0.0
 10
164.953490
 20
114.638748
 30
0.0
 10
165.177115
 20
114.792268
 30
0.0
 10
165.544489
 20
114.973696
 30
0.0
  0
SPLINE
  5
28e
100
AcDbEntity
  8
Ebene_1
 62
7
100
AcDbSpline
 70
8
 71
3
 72
8
 73
4
 74
0
 40
0
 40
0
 40
0
 40
0
 40
1
 40
1
 40
1
 40
1
 10
165.544489
 20
114.973696
 30
0.0
 10
166.215364
 20
115.280796
 30
0.0
 10
166.550802
 20
115.692563
 30
0.0
 10
166.550802
 20
116.208998
 30
0.0
  0
LWPOLYLINE
  5
28f
100
AcDbEntity
  8
Ebene_1
 62
7
100
AcDbPolyline
 90
2
 70
0
 10
176.014858
 20
112.042620
 30
0.0
 10
165.496584
 20
112.042620
 30
0.0
  0
SPLINE
  5
290
100
AcDbEntity
  8
Ebene_1
 62
7
100
AcDbSpline
 70
8
 71
3
 72
8
 73
4
 74
0
 40
0
 40
0
 40
0
 40
0
 40
1
 40
1
 40
1
 40
1
 10
166.550802
 20
141.521354
 30
0.0
 10
166.550802
 20
141.926100
 30
0.0
 10
166.255302
 20
142.309930
 30
0.0
 10
165.664303
 20
142.672845
 30
0.0
  0
SPLINE
  5
291
100
AcDbEntity
  8
Ebene_1
 62
7
100
AcDbSpline
 70
8
 71
3
 72
8
 73
4
 74
0
 40
0
 40
0
 40
0
 40
0
 40
1
 40
1
 40
1
 40
1
 10
165.664303
 20
142.672845
 30
0.0
 10
165.073304
 20
143.049684
 30
0.0
 10
164.777804
 20
143.587064
 30
0.0
 10
164.777804
 20
144.284986
 30
0.0
  0
SPLINE
  5
292
100
AcDbEntity
  8
Ebene_1
 62
7
100
AcDbSpline
 70
8
 71
3
 72
8
 73
4
 74
0
 40
0
 40
0
 40
0
 40
0
 40
1
 40
1
 40
1
 40
1
 10
164.777804
 20
144.284986
 30
0.0
 10
164.777804
 20
145.024739
 30
0.0
 10
164.841678
 20
145.464413
 30
0.0
 10
164.969425
 20
145.604010
 30
0.0
  0
SPLINE
  5
293
100
AcDbEntity
  8
Ebene_1
 62
7
100
AcDbSpline
 70
8
 71
3
 72
8
 73
4
 74
0
 40
0
 40
0
 40
0
 40
0
 40
1
 40
1
 40
1
 40
1
 10
164.969425
 20
145.604010
 30
0.0
 10
165.113242
 20
145.757530
 30
0.0
 10
165.416742
 20
145.834290
 30
0.0
 10
165.879927
 20
145.834290
 30
0.0
  0
LWPOLYLINE
  5
294
100
AcDbEntity
  8
Ebene_1
 62
7
100
AcDbPolyline
 90
2
 70
0
 10
166.550802
 20
116.208998
 30
0.0
 10
166.550802
 20
141.521354
 30
0.0
  0
SPLINE
  5
295
100
AcDbEntity
  8
Ebene_1
 62
7
100
AcDbSpline
 70
8
 71
3
 72
8
 73
4
 74
0
 40
0
 40
0
 40
0
 40
0
 40
1
 40
1
 40
1
 40
1
 10
175.703322
 20
145.834290
 30
0.0
 10
176.134569
 20
145.834290
 30
0.0
 10
176.430069
 20
145.764492
 30
0.0
 10
176.589821
 20
145.624896
 30
0.0
  0
SPLINE
  5
296
100
AcDbEntity
  8
Ebene_1
 62
7
100
AcDbSpline
 70
8
 71
3
 72
8
 73
4
 74
0
 40
0
 40
0
 40
0
 40
0
 40
1
 40
1
 40
1
 40
1
 10
176.589821
 20
145.624896
 30
0.0
 10
176.749572
 20
145.499283
 30
0.0
 10
176.829448
 20
145.192213
 30
0.0
 10
176.829448
 20
144.703685
 30
0.0
  0
LWPOLYLINE
  5
297
100
AcDbEntity
  8
Ebene_1
 62
7
100
AcDbPolyline
 90
2
 70
0
 10
165.879927
 20
145.834290
 30
0.0
 10
175.703322
 20
145.834290
 30
0.0
  0
SPLINE
  5
298
100
AcDbEntity
  8
Ebene_1
 62
7
100
AcDbSpline
 70
8
 71
3
 72
8
 73
4
 74
0
 40
0
 40
0
 40
0
 40
0
 40
1
 40
1
 40
1
 40
1
 10
176.829448
 20
143.719639
 30
0.0
 10
176.797579
 20
143.468413
 30
0.0
 10
176.597923
 20
143.245095
 30
0.0
 10
176.230481
 20
143.049684
 30
0.0
  0
SPLINE
  5
299
100
AcDbEntity
  8
Ebene_1
 62
7
100
AcDbSpline
 70
8
 71
3
 72
8
 73
4
 74
0
 40
0
 40
0
 40
0
 40
0
 40
1
 40
1
 40
1
 40
1
 10
176.230481
 20
143.049684
 30
0.0
 10
175.735292
 20
142.812441
 30
0.0
 10
175.487698
 20
142.421619
 30
0.0
 10
175.487698
 20
141.877218
 30
0.0
  0
LWPOLYLINE
  5
29a
100
AcDbEntity
  8
Ebene_1
 62
7
100
AcDbPolyline
 90
2
 70
0
 10
176.829448
 20
144.703685
 30
0.0
 10
176.829448
 20
143.719639
 30
0.0
  0
LWPOLYLINE
  5
29b
100
AcDbEntity
  8
Ebene_1
 62
7
100
AcDbPolyline
 90
2
 70
0
 10
175.487698
 20
141.877218
 30
0.0
 10
175.487698
 20
131.346178
 30
0.0
  0
SPLINE
  5
29c
100
AcDbEntity
  8
Ebene_1
 62
7
100
AcDbSpline
 70
8
 71
3
 72
8
 73
4
 74
0
 40
0
 40
0
 40
0
 40
0
 40
1
 40
1
 40
1
 40
1
 10
196.883583
 20
117.339514
 30
0.0
 10
196.883583
 20
117.297445
 30
0.0
 10
196.867649
 20
117.234639
 30
0.0
 10
196.835780
 20
117.151094
 30
0.0
  0
SPLINE
  5
29d
100
AcDbEntity
  8
Ebene_1
 62
7
100
AcDbSpline
 70
8
 71
3
 72
8
 73
4
 74
0
 40
0
 40
0
 40
0
 40
0
 40
1
 40
1
 40
1
 40
1
 10
196.835780
 20
117.151094
 30
0.0
 10
196.708033
 20
116.746348
 30
0.0
 10
196.644160
 20
116.383463
 30
0.0
 10
196.644160
 20
116.062439
 30
0.0
  0
SPLINE
  5
29e
100
AcDbEntity
  8
Ebene_1
 62
7
100
AcDbSpline
 70
8
 71
3
 72
8
 73
4
 74
0
 40
0
 40
0
 40
0
 40
0
 40
1
 40
1
 40
1
 40
1
 10
196.644160
 20
116.062439
 30
0.0
 10
196.644160
 20
115.559929
 30
0.0
 10
197.019535
 20
115.134208
 30
0.0
 10
197.770286
 20
114.785277
 30
0.0
  0
SPLINE
  5
29f
100
AcDbEntity
  8
Ebene_1
 62
7
100
AcDbSpline
 70
8
 71
3
 72
8
 73
4
 74
0
 40
0
 40
0
 40
0
 40
0
 40
1
 40
1
 40
1
 40
1
 10
197.770286
 20
114.785277
 30
0.0
 10
198.169597
 20
114.603849
 30
0.0
 10
198.417157
 20
114.415430
 30
0.0
 10
198.512967
 20
114.220019
 30
0.0
  0
SPLINE
  5
2a0
100
AcDbEntity
  8
Ebene_1
 62
7
100
AcDbSpline
 70
8
 71
3
 72
8
 73
4
 74
0
 40
0
 40
0
 40
0
 40
0
 40
1
 40
1
 40
1
 40
1
 10
198.512967
 20
114.220019
 30
0.0
 10
198.608845
 20
114.024608
 30
0.0
 10
198.656784
 20
113.703584
 30
0.0
 10
198.656784
 20
113.256947
 30
0.0
  0
SPLINE
  5
2a1
100
AcDbEntity
  8
Ebene_1
 62
7
100
AcDbSpline
 70
8
 71
3
 72
8
 73
4
 74
0
 40
0
 40
0
 40
0
 40
0
 40
1
 40
1
 40
1
 40
1
 10
198.656784
 20
113.256947
 30
0.0
 10
198.656784
 20
112.684638
 30
0.0
 10
198.616847
 20
112.335677
 30
0.0
 10
198.536971
 20
112.210065
 30
0.0
  0
SPLINE
  5
2a2
100
AcDbEntity
  8
Ebene_1
 62
7
100
AcDbSpline
 70
8
 71
3
 72
8
 73
4
 74
0
 40
0
 40
0
 40
0
 40
0
 40
1
 40
1
 40
1
 40
1
 10
198.536971
 20
112.210065
 30
0.0
 10
198.473233
 20
112.098435
 30
0.0
 10
198.305514
 20
112.042620
 30
0.0
 10
198.033815
 20
112.042620
 30
0.0
  0
LWPOLYLINE
  5
2a3
100
AcDbEntity
  8
Ebene_1
 62
7
100
AcDbPolyline
 90
3
 70
0
 10
203.136980
 20
119.265745
 30
0.0
 10
197.147112
 20
119.265745
 30
0.0
 10
196.883583
 20
117.339514
 30
0.0
  0
SPLINE
  5
2a4
100
AcDbEntity
  8
Ebene_1
 62
7
100
AcDbSpline
 70
8
 71
3
 72
8
 73
4
 74
0
 40
0
 40
0
 40
0
 40
0
 40
1
 40
1
 40
1
 40
1
 10
191.708510
 20
112.042620
 30
0.0
 10
191.357070
 20
112.042620
 30
0.0
 10
191.181350
 20
112.363644
 30
0.0
 10
191.181350
 20
113.005692
 30
0.0
  0
SPLINE
  5
2a5
100
AcDbEntity
  8
Ebene_1
 62
7
100
AcDbSpline
 70
8
 71
3
 72
8
 73
4
 74
0
 40
0
 40
0
 40
0
 40
0
 40
1
 40
1
 40
1
 40
1
 10
191.181350
 20
113.005692
 30
0.0
 10
191.181350
 20
113.773352
 30
0.0
 10
191.460881
 20
114.394455
 30
0.0
 10
192.019944
 20
114.868999
 30
0.0
  0
SPLINE
  5
2a6
100
AcDbEntity
  8
Ebene_1
 62
7
100
AcDbSpline
 70
8
 71
3
 72
8
 73
4
 74
0
 40
0
 40
0
 40
0
 40
0
 40
1
 40
1
 40
1
 40
1
 10
192.019944
 20
114.868999
 30
0.0
 10
192.547069
 20
115.301711
 30
0.0
 10
192.850570
 20
115.762331
 30
0.0
 10
192.930446
 20
116.250859
 30
0.0
  0
LWPOLYLINE
  5
2a7
100
AcDbEntity
  8
Ebene_1
 62
7
100
AcDbPolyline
 90
2
 70
0
 10
198.033815
 20
112.042620
 30
0.0
 10
191.708510
 20
112.042620
 30
0.0
  0
SPLINE
  5
2a8
100
AcDbEntity
  8
Ebene_1
 62
7
100
AcDbSpline
 70
8
 71
3
 72
8
 73
4
 74
0
 40
0
 40
0
 40
0
 40
0
 40
1
 40
1
 40
1
 40
1
 10
197.362940
 20
140.893260
 30
0.0
 10
197.442815
 20
141.270099
 30
0.0
 10
197.482753
 20
141.598085
 30
0.0
 10
197.482753
 20
141.877218
 30
0.0
  0
SPLINE
  5
2a9
100
AcDbEntity
  8
Ebene_1
 62
7
100
AcDbSpline
 70
8
 71
3
 72
8
 73
4
 74
0
 40
0
 40
0
 40
0
 40
0
 40
1
 40
1
 40
1
 40
1
 10
197.482753
 20
141.877218
 30
0.0
 10
197.482753
 20
142.309930
 30
0.0
 10
197.139315
 20
142.693790
 30
0.0
 10
196.452438
 20
143.028798
 30
0.0
  0
SPLINE
  5
2aa
100
AcDbEntity
  8
Ebene_1
 62
7
100
AcDbSpline
 70
8
 71
3
 72
8
 73
4
 74
0
 40
0
 40
0
 40
0
 40
0
 40
1
 40
1
 40
1
 40
1
 10
196.452438
 20
143.028798
 30
0.0
 10
196.133002
 20
143.196301
 30
0.0
 10
195.973285
 20
143.566178
 30
0.0
 10
195.973285
 20
144.138427
 30
0.0
  0
SPLINE
  5
2ab
100
AcDbEntity
  8
Ebene_1
 62
7
100
AcDbSpline
 70
8
 71
3
 72
8
 73
4
 74
0
 40
0
 40
0
 40
0
 40
0
 40
1
 40
1
 40
1
 40
1
 10
195.973285
 20
144.138427
 30
0.0
 10
195.973285
 20
144.906088
 30
0.0
 10
196.021190
 20
145.380632
 30
0.0
 10
196.117000
 20
145.562060
 30
0.0
  0
SPLINE
  5
2ac
100
AcDbEntity
  8
Ebene_1
 62
7
100
AcDbSpline
 70
8
 71
3
 72
8
 73
4
 74
0
 40
0
 40
0
 40
0
 40
0
 40
1
 40
1
 40
1
 40
1
 10
196.117000
 20
145.562060
 30
0.0
 10
196.212878
 20
145.743546
 30
0.0
 10
196.468474
 20
145.834290
 30
0.0
 10
196.883787
 20
145.834290
 30
0.0
  0
LWPOLYLINE
  5
2ad
100
AcDbEntity
  8
Ebene_1
 62
7
100
AcDbPolyline
 90
2
 70
0
 10
192.930446
 20
116.250859
 30
0.0
 10
197.362940
 20
140.893260
 30
0.0
  0
SPLINE
  5
2ae
100
AcDbEntity
  8
Ebene_1
 62
7
100
AcDbSpline
 70
8
 71
3
 72
8
 73
4
 74
0
 40
0
 40
0
 40
0
 40
0
 40
1
 40
1
 40
1
 40
1
 10
206.036307
 20
145.834290
 30
0.0
 10
206.595369
 20
145.834290
 30
0.0
 10
206.986713
 20
145.603980
 30
0.0
 10
207.210338
 20
145.143360
 30
0.0
  0
SPLINE
  5
2af
100
AcDbEntity
  8
Ebene_1
 62
7
100
AcDbSpline
 70
8
 71
3
 72
8
 73
4
 74
0
 40
0
 40
0
 40
0
 40
0
 40
1
 40
1
 40
1
 40
1
 10
207.210338
 20
145.143360
 30
0.0
 10
207.433895
 20
144.682740
 30
0.0
 10
207.657486
 20
143.677778
 30
0.0
 10
207.881111
 20
142.128473
 30
0.0
  0
SPLINE
  5
2b0
100
AcDbEntity
  8
Ebene_1
 62
7
100
AcDbSpline
 70
8
 71
3
 72
8
 73
4
 74
0
 40
0
 40
0
 40
0
 40
0
 40
1
 40
1
 40
1
 40
1
 10
207.881111
 20
142.128473
 30
0.0
 10
207.976989
 20
141.528316
 30
0.0
 10
208.072833
 20
140.935121
 30
0.0
 10
208.168644
 20
140.348888
 30
0.0
  0
LWPOLYLINE
  5
2b1
100
AcDbEntity
  8
Ebene_1
 62
7
100
AcDbPolyline
 90
2
 70
0
 10
196.883787
 20
145.834290
 30
0.0
 10
206.036307
 20
145.834290
 30
0.0
  0
SPLINE
  5
2b2
100
AcDbEntity
  8
Ebene_1
 62
7
100
AcDbSpline
 70
8
 71
3
 72
8
 73
4
 74
0
 40
0
 40
0
 40
0
 40
0
 40
1
 40
1
 40
1
 40
1
 10
212.097981
 20
117.339514
 30
0.0
 10
212.289669
 20
116.222922
 30
0.0
 10
212.760889
 20
115.371509
 30
0.0
 10
213.511640
 20
114.785277
 30
0.0
  0
SPLINE
  5
2b3
100
AcDbEntity
  8
Ebene_1
 62
7
100
AcDbSpline
 70
8
 71
3
 72
8
 73
4
 74
0
 40
0
 40
0
 40
0
 40
0
 40
1
 40
1
 40
1
 40
1
 10
213.511640
 20
114.785277
 30
0.0
 10
213.719262
 20
114.631756
 30
0.0
 10
213.855044
 20
114.506143
 30
0.0
 10
213.918986
 20
114.408438
 30
0.0
  0
SPLINE
  5
2b4
100
AcDbEntity
  8
Ebene_1
 62
7
100
AcDbSpline
 70
8
 71
3
 72
8
 73
4
 74
0
 40
0
 40
0
 40
0
 40
0
 40
1
 40
1
 40
1
 40
1
 10
213.918986
 20
114.408438
 30
0.0
 10
213.982723
 20
114.324657
 30
0.0
 10
214.014592
 20
114.052485
 30
0.0
 10
214.014592
 20
113.591925
 30
0.0
  0
SPLINE
  5
2b5
100
AcDbEntity
  8
Ebene_1
 62
7
100
AcDbSpline
 70
8
 71
3
 72
8
 73
4
 74
0
 40
0
 40
0
 40
0
 40
0
 40
1
 40
1
 40
1
 40
1
 10
214.014592
 20
113.591925
 30
0.0
 10
214.014592
 20
112.880079
 30
0.0
 10
213.958686
 20
112.440404
 30
0.0
 10
213.846874
 20
112.272901
 30
0.0
  0
SPLINE
  5
2b6
100
AcDbEntity
  8
Ebene_1
 62
7
100
AcDbSpline
 70
8
 71
3
 72
8
 73
4
 74
0
 40
0
 40
0
 40
0
 40
0
 40
1
 40
1
 40
1
 40
1
 10
213.846874
 20
112.272901
 30
0.0
 10
213.735061
 20
112.119380
 30
0.0
 10
213.495468
 20
112.042620
 30
0.0
 10
213.128094
 20
112.042620
 30
0.0
  0
LWPOLYLINE
  5
2b7
100
AcDbEntity
  8
Ebene_1
 62
7
100
AcDbPolyline
 90
2
 70
0
 10
208.168644
 20
140.348888
 30
0.0
 10
212.097981
 20
117.339514
 30
0.0
  0
SPLINE
  5
2b8
100
AcDbEntity
  8
Ebene_1
 62
7
100
AcDbSpline
 70
8
 71
3
 72
8
 73
4
 74
0
 40
0
 40
0
 40
0
 40
0
 40
1
 40
1
 40
1
 40
1
 10
202.466105
 20
112.042620
 30
0.0
 10
202.146670
 20
112.042620
 30
0.0
 10
201.986952
 20
112.307800
 30
0.0
 10
201.986952
 20
112.838159
 30
0.0
  0
SPLINE
  5
2b9
100
AcDbEntity
  8
Ebene_1
 62
7
100
AcDbSpline
 70
8
 71
3
 72
8
 73
4
 74
0
 40
0
 40
0
 40
0
 40
0
 40
1
 40
1
 40
1
 40
1
 10
201.986952
 20
112.838159
 30
0.0
 10
201.986952
 20
113.508114
 30
0.0
 10
202.026856
 20
113.926843
 30
0.0
 10
202.106664
 20
114.094346
 30
0.0
  0
SPLINE
  5
2ba
100
AcDbEntity
  8
Ebene_1
 62
7
100
AcDbSpline
 70
8
 71
3
 72
8
 73
4
 74
0
 40
0
 40
0
 40
0
 40
0
 40
1
 40
1
 40
1
 40
1
 10
202.106664
 20
114.094346
 30
0.0
 10
202.186540
 20
114.261850
 30
0.0
 10
202.418166
 20
114.457261
 30
0.0
 10
202.801542
 20
114.680579
 30
0.0
  0
SPLINE
  5
2bb
100
AcDbEntity
  8
Ebene_1
 62
7
100
AcDbSpline
 70
8
 71
3
 72
8
 73
4
 74
0
 40
0
 40
0
 40
0
 40
0
 40
1
 40
1
 40
1
 40
1
 10
202.801542
 20
114.680579
 30
0.0
 10
203.360605
 20
114.987679
 30
0.0
 10
203.640136
 20
115.378501
 30
0.0
 10
203.640136
 20
115.853045
 30
0.0
  0
SPLINE
  5
2bc
100
AcDbEntity
  8
Ebene_1
 62
7
100
AcDbSpline
 70
8
 71
3
 72
8
 73
4
 74
0
 40
0
 40
0
 40
0
 40
0
 40
1
 40
1
 40
1
 40
1
 10
203.640136
 20
115.853045
 30
0.0
 10
203.640136
 20
116.341573
 30
0.0
 10
203.472417
 20
117.479139
 30
0.0
 10
203.136980
 20
119.265745
 30
0.0
  0
LWPOLYLINE
  5
2bd
100
AcDbEntity
  8
Ebene_1
 62
7
100
AcDbPolyline
 90
2
 70
0
 10
213.128094
 20
112.042620
 30
0.0
 10
202.466105
 20
112.042620
 30
0.0
  0
LWPOLYLINE
  5
2be
100
AcDbEntity
  8
Ebene_1
 62
7
100
AcDbPolyline
 90
1
 70
1
 10
203.136980
 20
119.265745
 30
0.0
  0
LWPOLYLINE
  5
2bf
100
AcDbEntity
  8
Ebene_1
 62
7
100
AcDbPolyline
 90
3
 70
1
 10
200.261860
 20
137.941210
 30
0.0
 10
197.602364
 20
121.673424
 30
0.0
 10
202.873451
 20
121.673424
 30
0.0
  0
SPLINE
  5
2c0
100
AcDbEntity
  8
Ebene_1
 62
7
100
AcDbSpline
 70
8
 71
3
 72
8
 73
4
 74
0
 40
0
 40
0
 40
0
 40
0
 40
1
 40
1
 40
1
 40
1
 10
225.946422
 20
116.334581
 30
0.0
 10
225.946422
 20
115.678550
 30
0.0
 10
226.409640
 20
115.231913
 30
0.0
 10
227.336077
 20
114.994671
 30
0.0
  0
SPLINE
  5
2c1
100
AcDbEntity
  8
Ebene_1
 62
7
100
AcDbSpline
 70
8
 71
3
 72
8
 73
4
 74
0
 40
0
 40
0
 40
0
 40
0
 40
1
 40
1
 40
1
 40
1
 10
227.336077
 20
114.994671
 30
0.0
 10
227.799262
 20
114.882982
 30
0.0
 10
228.086760
 20
114.750377
 30
0.0
 10
228.198572
 20
114.596857
 30
0.0
  0
SPLINE
  5
2c2
100
AcDbEntity
  8
Ebene_1
 62
7
100
AcDbSpline
 70
8
 71
3
 72
8
 73
4
 74
0
 40
0
 40
0
 40
0
 40
0
 40
1
 40
1
 40
1
 40
1
 10
228.198572
 20
114.596857
 30
0.0
 10
228.326387
 20
114.457261
 30
0.0
 10
228.390295
 20
114.136237
 30
0.0
 10
228.390295
 20
113.633786
 30
0.0
  0
SPLINE
  5
2c3
100
AcDbEntity
  8
Ebene_1
 62
7
100
AcDbSpline
 70
8
 71
3
 72
8
 73
4
 74
0
 40
0
 40
0
 40
0
 40
0
 40
1
 40
1
 40
1
 40
1
 10
228.390295
 20
113.633786
 30
0.0
 10
228.390295
 20
112.852142
 30
0.0
 10
228.318420
 20
112.391522
 30
0.0
 10
228.174671
 20
112.251926
 30
0.0
  0
SPLINE
  5
2c4
100
AcDbEntity
  8
Ebene_1
 62
7
100
AcDbSpline
 70
8
 71
3
 72
8
 73
4
 74
0
 40
0
 40
0
 40
0
 40
0
 40
1
 40
1
 40
1
 40
1
 10
228.174671
 20
112.251926
 30
0.0
 10
228.046856
 20
112.112389
 30
0.0
 10
227.719420
 20
112.042620
 30
0.0
 10
227.192362
 20
112.042620
 30
0.0
  0
LWPOLYLINE
  5
2c5
100
AcDbEntity
  8
Ebene_1
 62
7
100
AcDbPolyline
 90
2
 70
0
 10
225.946422
 20
129.043108
 30
0.0
 10
225.946422
 20
116.334581
 30
0.0
  0
SPLINE
  5
2c6
100
AcDbEntity
  8
Ebene_1
 62
7
100
AcDbSpline
 70
8
 71
3
 72
8
 73
4
 74
0
 40
0
 40
0
 40
0
 40
0
 40
1
 40
1
 40
1
 40
1
 10
216.242841
 20
112.042620
 30
0.0
 10
215.635839
 20
112.042620
 30
0.0
 10
215.236495
 20
112.147288
 30
0.0
 10
215.044806
 20
112.356623
 30
0.0
  0
SPLINE
  5
2c7
100
AcDbEntity
  8
Ebene_1
 62
7
100
AcDbSpline
 70
8
 71
3
 72
8
 73
4
 74
0
 40
0
 40
0
 40
0
 40
0
 40
1
 40
1
 40
1
 40
1
 10
215.044806
 20
112.356623
 30
0.0
 10
214.869120
 20
112.579941
 30
0.0
 10
214.781277
 20
113.026578
 30
0.0
 10
214.781277
 20
113.696533
 30
0.0
  0
SPLINE
  5
2c8
100
AcDbEntity
  8
Ebene_1
 62
7
100
AcDbSpline
 70
8
 71
3
 72
8
 73
4
 74
0
 40
0
 40
0
 40
0
 40
0
 40
1
 40
1
 40
1
 40
1
 10
214.781277
 20
113.696533
 30
0.0
 10
214.781277
 20
114.143229
 30
0.0
 10
214.821215
 20
114.422392
 30
0.0
 10
214.901091
 20
114.534021
 30
0.0
  0
SPLINE
  5
2c9
100
AcDbEntity
  8
Ebene_1
 62
7
100
AcDbSpline
 70
8
 71
3
 72
8
 73
4
 74
0
 40
0
 40
0
 40
0
 40
0
 40
1
 40
1
 40
1
 40
1
 10
214.901091
 20
114.534021
 30
0.0
 10
214.996901
 20
114.659634
 30
0.0
 10
215.260464
 20
114.806192
 30
0.0
 10
215.691780
 20
114.973696
 30
0.0
  0
SPLINE
  5
2ca
100
AcDbEntity
  8
Ebene_1
 62
7
100
AcDbSpline
 70
8
 71
3
 72
8
 73
4
 74
0
 40
0
 40
0
 40
0
 40
0
 40
1
 40
1
 40
1
 40
1
 10
215.691780
 20
114.973696
 30
0.0
 10
216.282779
 20
115.197014
 30
0.0
 10
216.650153
 20
115.385434
 30
0.0
 10
216.793902
 20
115.538954
 30
0.0
  0
SPLINE
  5
2cb
100
AcDbEntity
  8
Ebene_1
 62
7
100
AcDbSpline
 70
8
 71
3
 72
8
 73
4
 74
0
 40
0
 40
0
 40
0
 40
0
 40
1
 40
1
 40
1
 40
1
 10
216.793902
 20
115.538954
 30
0.0
 10
216.937651
 20
115.706457
 30
0.0
 10
217.009526
 20
115.950721
 30
0.0
 10
217.009526
 20
116.271745
 30
0.0
  0
LWPOLYLINE
  5
2cc
100
AcDbEntity
  8
Ebene_1
 62
7
100
AcDbPolyline
 90
2
 70
0
 10
227.192362
 20
112.042620
 30
0.0
 10
216.242841
 20
112.042620
 30
0.0
  0
SPLINE
  5
2cd
100
AcDbEntity
  8
Ebene_1
 62
7
100
AcDbSpline
 70
8
 71
3
 72
8
 73
4
 74
0
 40
0
 40
0
 40
0
 40
0
 40
1
 40
1
 40
1
 40
1
 10
217.009526
 20
141.563215
 30
0.0
 10
217.009526
 20
141.926130
 30
0.0
 10
216.921683
 20
142.205293
 30
0.0
 10
216.745997
 20
142.400704
 30
0.0
  0
SPLINE
  5
2ce
100
AcDbEntity
  8
Ebene_1
 62
7
100
AcDbSpline
 70
8
 71
3
 72
8
 73
4
 74
0
 40
0
 40
0
 40
0
 40
0
 40
1
 40
1
 40
1
 40
1
 10
216.745997
 20
142.400704
 30
0.0
 10
216.586246
 20
142.596115
 30
0.0
 10
216.226839
 20
142.798488
 30
0.0
 10
215.667776
 20
143.007823
 30
0.0
  0
SPLINE
  5
2cf
100
AcDbEntity
  8
Ebene_1
 62
7
100
AcDbSpline
 70
8
 71
3
 72
8
 73
4
 74
0
 40
0
 40
0
 40
0
 40
0
 40
1
 40
1
 40
1
 40
1
 10
215.667776
 20
143.007823
 30
0.0
 10
215.268465
 20
143.161343
 30
0.0
 10
215.068810
 20
143.503312
 30
0.0
 10
215.068810
 20
144.033730
 30
0.0
  0
SPLINE
  5
2d0
100
AcDbEntity
  8
Ebene_1
 62
7
100
AcDbSpline
 70
8
 71
3
 72
8
 73
4
 74
0
 40
0
 40
0
 40
0
 40
0
 40
1
 40
1
 40
1
 40
1
 10
215.068810
 20
144.033730
 30
0.0
 10
215.068810
 20
144.089426
 30
0.0
 10
215.076947
 20
144.396497
 30
0.0
 10
215.093220
 20
144.954941
 30
0.0
  0
SPLINE
  5
2d1
100
AcDbEntity
  8
Ebene_1
 62
7
100
AcDbSpline
 70
8
 71
3
 72
8
 73
4
 74
0
 40
0
 40
0
 40
0
 40
0
 40
1
 40
1
 40
1
 40
1
 10
215.093220
 20
144.954941
 30
0.0
 10
215.189030
 20
145.541173
 30
0.0
 10
215.572373
 20
145.834290
 30
0.0
 10
216.243248
 20
145.834290
 30
0.0
  0
LWPOLYLINE
  5
2d2
100
AcDbEntity
  8
Ebene_1
 62
7
100
AcDbPolyline
 90
2
 70
0
 10
217.009526
 20
116.271745
 30
0.0
 10
217.009526
 20
141.563215
 30
0.0
  0
SPLINE
  5
2d3
100
AcDbEntity
  8
Ebene_1
 62
7
100
AcDbSpline
 70
8
 71
3
 72
8
 73
4
 74
0
 40
0
 40
0
 40
0
 40
0
 40
1
 40
1
 40
1
 40
1
 10
231.193913
 20
145.834290
 30
0.0
 10
231.641163
 20
145.834290
 30
0.0
 10
231.952665
 20
145.771483
 30
0.0
 10
232.128419
 20
145.645871
 30
0.0
  0
SPLINE
  5
2d4
100
AcDbEntity
  8
Ebene_1
 62
7
100
AcDbSpline
 70
8
 71
3
 72
8
 73
4
 74
0
 40
0
 40
0
 40
0
 40
0
 40
1
 40
1
 40
1
 40
1
 10
232.128419
 20
145.645871
 30
0.0
 10
232.304105
 20
145.520258
 30
0.0
 10
232.439853
 20
145.213188
 30
0.0
 10
232.535663
 20
144.724660
 30
0.0
  0
SPLINE
  5
2d5
100
AcDbEntity
  8
Ebene_1
 62
7
100
AcDbSpline
 70
8
 71
3
 72
8
 73
4
 74
0
 40
0
 40
0
 40
0
 40
0
 40
1
 40
1
 40
1
 40
1
 10
232.535663
 20
144.724660
 30
0.0
 10
232.551936
 20
144.640879
 30
0.0
 10
232.576008
 20
144.522228
 30
0.0
 10
232.607877
 20
144.368708
 30
0.0
  0
LWPOLYLINE
  5
2d6
100
AcDbEntity
  8
Ebene_1
 62
7
100
AcDbPolyline
 90
2
 70
0
 10
216.243248
 20
145.834290
 30
0.0
 10
231.193913
 20
145.834290
 30
0.0
  0
SPLINE
  5
2d7
100
AcDbEntity
  8
Ebene_1
 62
7
100
AcDbSpline
 70
8
 71
3
 72
8
 73
4
 74
0
 40
0
 40
0
 40
0
 40
0
 40
1
 40
1
 40
1
 40
1
 10
233.686097
 20
139.720794
 30
0.0
 10
233.749835
 20
139.427678
 30
0.0
 10
233.781704
 20
139.176423
 30
0.0
 10
233.781704
 20
138.967028
 30
0.0
  0
SPLINE
  5
2d8
100
AcDbEntity
  8
Ebene_1
 62
7
100
AcDbSpline
 70
8
 71
3
 72
8
 73
4
 74
0
 40
0
 40
0
 40
0
 40
0
 40
1
 40
1
 40
1
 40
1
 10
233.781704
 20
138.967028
 30
0.0
 10
233.781704
 20
138.520392
 30
0.0
 10
233.398362
 20
138.297073
 30
0.0
 10
232.631677
 20
138.297073
 30
0.0
  0
SPLINE
  5
2d9
100
AcDbEntity
  8
Ebene_1
 62
7
100
AcDbSpline
 70
8
 71
3
 72
8
 73
4
 74
0
 40
0
 40
0
 40
0
 40
0
 40
1
 40
1
 40
1
 40
1
 10
232.631677
 20
138.297073
 30
0.0
 10
231.609362
 20
138.297073
 30
0.0
 10
230.970424
 20
138.464577
 30
0.0
 10
230.714862
 20
138.799584
 30
0.0
  0
SPLINE
  5
2da
100
AcDbEntity
  8
Ebene_1
 62
7
100
AcDbSpline
 70
8
 71
3
 72
8
 73
4
 74
0
 40
0
 40
0
 40
0
 40
0
 40
1
 40
1
 40
1
 40
1
 10
230.714862
 20
138.799584
 30
0.0
 10
230.459300
 20
139.134591
 30
0.0
 10
230.059989
 20
139.965088
 30
0.0
 10
229.516929
 20
141.291074
 30
0.0
  0
SPLINE
  5
2db
100
AcDbEntity
  8
Ebene_1
 62
7
100
AcDbSpline
 70
8
 71
3
 72
8
 73
4
 74
0
 40
0
 40
0
 40
0
 40
0
 40
1
 40
1
 40
1
 40
1
 10
229.516929
 20
141.291074
 30
0.0
 10
229.181492
 20
142.100566
 30
0.0
 10
228.846054
 20
142.644908
 30
0.0
 10
228.510617
 20
142.924100
 30
0.0
  0
SPLINE
  5
2dc
100
AcDbEntity
  8
Ebene_1
 62
7
100
AcDbSpline
 70
8
 71
3
 72
8
 73
4
 74
0
 40
0
 40
0
 40
0
 40
0
 40
1
 40
1
 40
1
 40
1
 10
228.510617
 20
142.924100
 30
0.0
 10
228.191114
 20
143.203234
 30
0.0
 10
227.687958
 20
143.342800
 30
0.0
 10
227.001148
 20
143.342800
 30
0.0
  0
SPLINE
  5
2dd
100
AcDbEntity
  8
Ebene_1
 62
7
100
AcDbSpline
 70
8
 71
3
 72
8
 73
4
 74
0
 40
0
 40
0
 40
0
 40
0
 40
1
 40
1
 40
1
 40
1
 10
227.001148
 20
143.342800
 30
0.0
 10
226.809460
 20
143.342800
 30
0.0
 10
226.458054
 20
143.321766
 30
0.0
 10
225.946931
 20
143.279697
 30
0.0
  0
LWPOLYLINE
  5
2de
100
AcDbEntity
  8
Ebene_1
 62
7
100
AcDbPolyline
 90
2
 70
0
 10
232.607877
 20
144.368708
 30
0.0
 10
233.686097
 20
139.720794
 30
0.0
  0
SPLINE
  5
2df
100
AcDbEntity
  8
Ebene_1
 62
7
100
AcDbSpline
 70
8
 71
3
 72
8
 73
4
 74
0
 40
0
 40
0
 40
0
 40
0
 40
1
 40
1
 40
1
 40
1
 10
227.168867
 20
131.324848
 30
0.0
 10
227.807805
 20
131.324848
 30
0.0
 10
228.247054
 20
131.450461
 30
0.0
 10
228.486613
 20
131.701686
 30
0.0
  0
SPLINE
  5
2e0
100
AcDbEntity
  8
Ebene_1
 62
7
100
AcDbSpline
 70
8
 71
3
 72
8
 73
4
 74
0
 40
0
 40
0
 40
0
 40
0
 40
1
 40
1
 40
1
 40
1
 10
228.486613
 20
131.701686
 30
0.0
 10
228.742175
 20
131.966895
 30
0.0
 10
228.925862
 20
132.413562
 30
0.0
 10
229.037675
 20
133.041685
 30
0.0
  0
SPLINE
  5
2e1
100
AcDbEntity
  8
Ebene_1
 62
7
100
AcDbSpline
 70
8
 71
3
 72
8
 73
4
 74
0
 40
0
 40
0
 40
0
 40
0
 40
1
 40
1
 40
1
 40
1
 10
229.037675
 20
133.041685
 30
0.0
 10
229.181424
 20
133.753531
 30
0.0
 10
229.317206
 20
134.207160
 30
0.0
 10
229.445021
 20
134.402571
 30
0.0
  0
SPLINE
  5
2e2
100
AcDbEntity
  8
Ebene_1
 62
7
100
AcDbSpline
 70
8
 71
3
 72
8
 73
4
 74
0
 40
0
 40
0
 40
0
 40
0
 40
1
 40
1
 40
1
 40
1
 10
229.445021
 20
134.402571
 30
0.0
 10
229.572768
 20
134.611906
 30
0.0
 10
230.099859
 20
134.716573
 30
0.0
 10
231.026296
 20
134.716573
 30
0.0
  0
SPLINE
  5
2e3
100
AcDbEntity
  8
Ebene_1
 62
7
100
AcDbSpline
 70
8
 71
3
 72
8
 73
4
 74
0
 40
0
 40
0
 40
0
 40
0
 40
1
 40
1
 40
1
 40
1
 10
231.026296
 20
134.716573
 30
0.0
 10
231.665234
 20
134.716573
 30
0.0
 10
232.048611
 20
134.660758
 30
0.0
 10
232.176425
 20
134.549129
 30
0.0
  0
SPLINE
  5
2e4
100
AcDbEntity
  8
Ebene_1
 62
7
100
AcDbSpline
 70
8
 71
3
 72
8
 73
4
 74
0
 40
0
 40
0
 40
0
 40
0
 40
1
 40
1
 40
1
 40
1
 10
232.176425
 20
134.549129
 30
0.0
 10
232.320175
 20
134.437440
 30
0.0
 10
232.392049
 20
134.221084
 30
0.0
 10
232.392049
 20
133.900060
 30
0.0
  0
LWPOLYLINE
  5
2e5
100
AcDbEntity
  8
Ebene_1
 62
7
100
AcDbPolyline
 90
3
 70
0
 10
225.946931
 20
143.279697
 30
0.0
 10
225.946931
 20
131.324848
 30
0.0
 10
227.168867
 20
131.324848
 30
0.0
  0
SPLINE
  5
2e6
100
AcDbEntity
  8
Ebene_1
 62
7
100
AcDbSpline
 70
8
 71
3
 72
8
 73
4
 74
0
 40
0
 40
0
 40
0
 40
0
 40
1
 40
1
 40
1
 40
1
 10
232.392049
 20
126.320982
 30
0.0
 10
232.392049
 20
125.999958
 30
0.0
 10
232.328142
 20
125.790594
 30
0.0
 10
232.200327
 20
125.692888
 30
0.0
  0
SPLINE
  5
2e7
100
AcDbEntity
  8
Ebene_1
 62
7
100
AcDbSpline
 70
8
 71
3
 72
8
 73
4
 74
0
 40
0
 40
0
 40
0
 40
0
 40
1
 40
1
 40
1
 40
1
 10
232.200327
 20
125.692888
 30
0.0
 10
232.072580
 20
125.595183
 30
0.0
 10
231.665268
 20
125.546330
 30
0.0
 10
230.978391
 20
125.546330
 30
0.0
  0
SPLINE
  5
2e8
100
AcDbEntity
  8
Ebene_1
 62
7
100
AcDbSpline
 70
8
 71
3
 72
8
 73
4
 74
0
 40
0
 40
0
 40
0
 40
0
 40
1
 40
1
 40
1
 40
1
 10
230.978391
 20
125.546330
 30
0.0
 10
230.147832
 20
125.546330
 30
0.0
 10
229.620741
 20
125.664981
 30
0.0
 10
229.397116
 20
125.902282
 30
0.0
  0
SPLINE
  5
2e9
100
AcDbEntity
  8
Ebene_1
 62
7
100
AcDbSpline
 70
8
 71
3
 72
8
 73
4
 74
0
 40
0
 40
0
 40
0
 40
0
 40
1
 40
1
 40
1
 40
1
 10
229.397116
 20
125.902282
 30
0.0
 10
229.189425
 20
126.139525
 30
0.0
 10
229.029674
 20
126.718766
 30
0.0
 10
228.917861
 20
127.640006
 30
0.0
  0
SPLINE
  5
2ea
100
AcDbEntity
  8
Ebene_1
 62
7
100
AcDbSpline
 70
8
 71
3
 72
8
 73
4
 74
0
 40
0
 40
0
 40
0
 40
0
 40
1
 40
1
 40
1
 40
1
 10
228.917861
 20
127.640006
 30
0.0
 10
228.790114
 20
128.575170
 30
0.0
 10
228.207116
 20
129.042752
 30
0.0
 10
227.168867
 20
129.042752
 30
0.0
  0
LWPOLYLINE
  5
2eb
100
AcDbEntity
  8
Ebene_1
 62
7
100
AcDbPolyline
 90
2
 70
0
 10
232.392049
 20
133.900060
 30
0.0
 10
232.392049
 20
126.320982
 30
0.0
  0
LWPOLYLINE
  5
2ec
100
AcDbEntity
  8
Ebene_1
 62
7
100
AcDbPolyline
 90
2
 70
0
 10
227.168867
 20
129.042752
 30
0.0
 10
225.946422
 20
129.043108
 30
0.0
  0
SPLINE
  5
2ed
100
AcDbEntity
  8
Ebene_1
 62
7
100
AcDbSpline
 70
8
 71
3
 72
8
 73
4
 74
0
 40
0
 40
0
 40
0
 40
0
 40
1
 40
1
 40
1
 40
1
 10
247.701647
 20
131.304228
 30
0.0
 10
248.148897
 20
131.304228
 30
0.0
 10
248.476333
 20
131.387980
 30
0.0
 10
248.683956
 20
131.555484
 30
0.0
  0
SPLINE
  5
2ee
100
AcDbEntity
  8
Ebene_1
 62
7
100
AcDbSpline
 70
8
 71
3
 72
8
 73
4
 74
0
 40
0
 40
0
 40
0
 40
0
 40
1
 40
1
 40
1
 40
1
 10
248.683956
 20
131.555484
 30
0.0
 10
248.891646
 20
131.722987
 30
0.0
 10
249.051398
 20
132.085902
 30
0.0
 10
249.163210
 20
132.644227
 30
0.0
  0
SPLINE
  5
2ef
100
AcDbEntity
  8
Ebene_1
 62
7
100
AcDbSpline
 70
8
 71
3
 72
8
 73
4
 74
0
 40
0
 40
0
 40
0
 40
0
 40
1
 40
1
 40
1
 40
1
 10
249.163210
 20
132.644227
 30
0.0
 10
249.354899
 20
133.635206
 30
0.0
 10
249.506649
 20
134.228401
 30
0.0
 10
249.618461
 20
134.423812
 30
0.0
  0
SPLINE
  5
2f0
100
AcDbEntity
  8
Ebene_1
 62
7
100
AcDbSpline
 70
8
 71
3
 72
8
 73
4
 74
0
 40
0
 40
0
 40
0
 40
0
 40
1
 40
1
 40
1
 40
1
 10
249.618461
 20
134.423812
 30
0.0
 10
249.746208
 20
134.619223
 30
0.0
 10
249.937863
 20
134.716929
 30
0.0
 10
250.193424
 20
134.716929
 30
0.0
  0
SPLINE
  5
2f1
100
AcDbEntity
  8
Ebene_1
 62
7
100
AcDbSpline
 70
8
 71
3
 72
8
 73
4
 74
0
 40
0
 40
0
 40
0
 40
0
 40
1
 40
1
 40
1
 40
1
 10
250.193424
 20
134.716929
 30
0.0
 10
251.455299
 20
134.716929
 30
0.0
 10
252.166111
 20
134.668076
 30
0.0
 10
252.325863
 20
134.570370
 30
0.0
  0
SPLINE
  5
2f2
100
AcDbEntity
  8
Ebene_1
 62
7
100
AcDbSpline
 70
8
 71
3
 72
8
 73
4
 74
0
 40
0
 40
0
 40
0
 40
0
 40
1
 40
1
 40
1
 40
1
 10
252.325863
 20
134.570370
 30
0.0
 10
252.501549
 20
134.486648
 30
0.0
 10
252.589392
 20
134.137717
 30
0.0
 10
252.589392
 20
133.523577
 30
0.0
  0
LWPOLYLINE
  5
2f3
100
AcDbEntity
  8
Ebene_1
 62
7
100
AcDbPolyline
 90
3
 70
0
 10
246.072365
 20
143.259078
 30
0.0
 10
246.072365
 20
131.304228
 30
0.0
 10
247.701647
 20
131.304228
 30
0.0
  0
SPLINE
  5
2f4
100
AcDbEntity
  8
Ebene_1
 62
7
100
AcDbSpline
 70
8
 71
3
 72
8
 73
4
 74
0
 40
0
 40
0
 40
0
 40
0
 40
1
 40
1
 40
1
 40
1
 10
252.589392
 20
126.551618
 30
0.0
 10
252.589392
 20
126.118965
 30
0.0
 10
252.509516
 20
125.832840
 30
0.0
 10
252.349765
 20
125.693244
 30
0.0
  0
SPLINE
  5
2f5
100
AcDbEntity
  8
Ebene_1
 62
7
100
AcDbSpline
 70
8
 71
3
 72
8
 73
4
 74
0
 40
0
 40
0
 40
0
 40
0
 40
1
 40
1
 40
1
 40
1
 10
252.349765
 20
125.693244
 30
0.0
 10
252.190081
 20
125.567631
 30
0.0
 10
251.694926
 20
125.504824
 30
0.0
 10
250.864299
 20
125.504824
 30
0.0
  0
SPLINE
  5
2f6
100
AcDbEntity
  8
Ebene_1
 62
7
100
AcDbSpline
 70
8
 71
3
 72
8
 73
4
 74
0
 40
0
 40
0
 40
0
 40
0
 40
1
 40
1
 40
1
 40
1
 10
250.864299
 20
125.504824
 30
0.0
 10
250.321239
 20
125.504824
 30
0.0
 10
249.953865
 20
125.588576
 30
0.0
 10
249.762177
 20
125.756080
 30
0.0
  0
SPLINE
  5
2f7
100
AcDbEntity
  8
Ebene_1
 62
7
100
AcDbSpline
 70
8
 71
3
 72
8
 73
4
 74
0
 40
0
 40
0
 40
0
 40
0
 40
1
 40
1
 40
1
 40
1
 10
249.762177
 20
125.756080
 30
0.0
 10
249.586491
 20
125.937507
 30
0.0
 10
249.410771
 20
126.432997
 30
0.0
 10
249.235017
 20
127.242548
 30
0.0
  0
SPLINE
  5
2f8
100
AcDbEntity
  8
Ebene_1
 62
7
100
AcDbSpline
 70
8
 71
3
 72
8
 73
4
 74
0
 40
0
 40
0
 40
0
 40
0
 40
1
 40
1
 40
1
 40
1
 10
249.235017
 20
127.242548
 30
0.0
 10
249.059331
 20
127.982301
 30
0.0
 10
248.883645
 20
128.435930
 30
0.0
 10
248.707959
 20
128.603433
 30
0.0
  0
SPLINE
  5
2f9
100
AcDbEntity
  8
Ebene_1
 62
7
100
AcDbSpline
 70
8
 71
3
 72
8
 73
4
 74
0
 40
0
 40
0
 40
0
 40
0
 40
1
 40
1
 40
1
 40
1
 10
248.707959
 20
128.603433
 30
0.0
 10
248.548208
 20
128.770937
 30
0.0
 10
248.292646
 20
128.854688
 30
0.0
 10
247.941274
 20
128.854688
 30
0.0
  0
LWPOLYLINE
  5
2fa
100
AcDbEntity
  8
Ebene_1
 62
7
100
AcDbPolyline
 90
2
 70
0
 10
252.589392
 20
133.523577
 30
0.0
 10
252.589392
 20
126.551618
 30
0.0
  0
SPLINE
  5
2fb
100
AcDbEntity
  8
Ebene_1
 62
7
100
AcDbSpline
 70
8
 71
3
 72
8
 73
4
 74
0
 40
0
 40
0
 40
0
 40
0
 40
1
 40
1
 40
1
 40
1
 10
247.342308
 20
114.429324
 30
0.0
 10
248.124927
 20
114.429324
 30
0.0
 10
248.660020
 20
114.617773
 30
0.0
 10
248.947587
 20
114.994671
 30
0.0
  0
SPLINE
  5
2fc
100
AcDbEntity
  8
Ebene_1
 62
7
100
AcDbSpline
 70
8
 71
3
 72
8
 73
4
 74
0
 40
0
 40
0
 40
0
 40
0
 40
1
 40
1
 40
1
 40
1
 10
248.947587
 20
114.994671
 30
0.0
 10
249.251019
 20
115.385493
 30
0.0
 10
249.730206
 20
116.495123
 30
0.0
 10
250.385147
 20
118.323560
 30
0.0
  0
SPLINE
  5
2fd
100
AcDbEntity
  8
Ebene_1
 62
7
100
AcDbSpline
 70
8
 71
3
 72
8
 73
4
 74
0
 40
0
 40
0
 40
0
 40
0
 40
1
 40
1
 40
1
 40
1
 10
250.385147
 20
118.323560
 30
0.0
 10
250.656643
 20
119.091221
 30
0.0
 10
250.936174
 20
119.593702
 30
0.0
 10
251.223740
 20
119.831003
 30
0.0
  0
SPLINE
  5
2fe
100
AcDbEntity
  8
Ebene_1
 62
7
100
AcDbSpline
 70
8
 71
3
 72
8
 73
4
 74
0
 40
0
 40
0
 40
0
 40
0
 40
1
 40
1
 40
1
 40
1
 10
251.223740
 20
119.831003
 30
0.0
 10
251.511239
 20
120.068305
 30
0.0
 10
252.014361
 20
120.186956
 30
0.0
 10
252.733107
 20
120.186956
 30
0.0
  0
SPLINE
  5
2ff
100
AcDbEntity
  8
Ebene_1
 62
7
100
AcDbSpline
 70
8
 71
3
 72
8
 73
4
 74
0
 40
0
 40
0
 40
0
 40
0
 40
1
 40
1
 40
1
 40
1
 10
252.733107
 20
120.186956
 30
0.0
 10
253.723485
 20
120.186956
 30
0.0
 10
254.218674
 20
119.907793
 30
0.0
 10
254.218674
 20
119.349468
 30
0.0
  0
SPLINE
  5
300
100
AcDbEntity
  8
Ebene_1
 62
7
100
AcDbSpline
 70
8
 71
3
 72
8
 73
4
 74
0
 40
0
 40
0
 40
0
 40
0
 40
1
 40
1
 40
1
 40
1
 10
254.218674
 20
119.349468
 30
0.0
 10
254.218674
 20
119.181964
 30
0.0
 10
254.186805
 20
118.937700
 30
0.0
 10
254.123067
 20
118.616677
 30
0.0
  0
LWPOLYLINE
  5
301
100
AcDbEntity
  8
Ebene_1
 62
7
100
AcDbPolyline
 90
4
 70
0
 10
247.941274
 20
128.854688
 30
0.0
 10
246.072365
 20
128.854688
 30
0.0
 10
246.072365
 20
114.429324
 30
0.0
 10
247.342308
 20
114.429324
 30
0.0
  0
SPLINE
  5
302
100
AcDbEntity
  8
Ebene_1
 62
7
100
AcDbSpline
 70
8
 71
3
 72
8
 73
4
 74
0
 40
0
 40
0
 40
0
 40
0
 40
1
 40
1
 40
1
 40
1
 10
253.236568
 20
113.864066
 30
0.0
 10
253.076885
 20
112.998700
 30
0.0
 10
252.941137
 20
112.475274
 30
0.0
 10
252.829324
 20
112.293787
 30
0.0
  0
SPLINE
  5
303
100
AcDbEntity
  8
Ebene_1
 62
7
100
AcDbSpline
 70
8
 71
3
 72
8
 73
4
 74
0
 40
0
 40
0
 40
0
 40
0
 40
1
 40
1
 40
1
 40
1
 10
252.829324
 20
112.293787
 30
0.0
 10
252.733446
 20
112.126342
 30
0.0
 10
252.413977
 20
112.042620
 30
0.0
 10
251.870917
 20
112.042620
 30
0.0
  0
LWPOLYLINE
  5
304
100
AcDbEntity
  8
Ebene_1
 62
7
100
AcDbPolyline
 90
2
 70
0
 10
254.123067
 20
118.616677
 30
0.0
 10
253.236568
 20
113.864066
 30
0.0
  0
SPLINE
  5
305
100
AcDbEntity
  8
Ebene_1
 62
7
100
AcDbSpline
 70
8
 71
3
 72
8
 73
4
 74
0
 40
0
 40
0
 40
0
 40
0
 40
1
 40
1
 40
1
 40
1
 10
235.889936
 20
112.042620
 30
0.0
 10
235.490625
 20
112.042620
 30
0.0
 10
235.235063
 20
112.119380
 30
0.0
 10
235.123251
 20
112.272901
 30
0.0
  0
SPLINE
  5
306
100
AcDbEntity
  8
Ebene_1
 62
7
100
AcDbSpline
 70
8
 71
3
 72
8
 73
4
 74
0
 40
0
 40
0
 40
0
 40
0
 40
1
 40
1
 40
1
 40
1
 10
235.123251
 20
112.272901
 30
0.0
 10
235.011438
 20
112.440404
 30
0.0
 10
234.955532
 20
112.907986
 30
0.0
 10
234.955532
 20
113.675647
 30
0.0
  0
SPLINE
  5
307
100
AcDbEntity
  8
Ebene_1
 62
7
100
AcDbSpline
 70
8
 71
3
 72
8
 73
4
 74
0
 40
0
 40
0
 40
0
 40
0
 40
1
 40
1
 40
1
 40
1
 10
234.955532
 20
113.675647
 30
0.0
 10
234.955532
 20
114.164174
 30
0.0
 10
235.243030
 20
114.520097
 30
0.0
 10
235.818027
 20
114.743415
 30
0.0
  0
SPLINE
  5
308
100
AcDbEntity
  8
Ebene_1
 62
7
100
AcDbSpline
 70
8
 71
3
 72
8
 73
4
 74
0
 40
0
 40
0
 40
0
 40
0
 40
1
 40
1
 40
1
 40
1
 10
235.818027
 20
114.743415
 30
0.0
 10
236.696525
 20
115.064439
 30
0.0
 10
237.135774
 20
115.504114
 30
0.0
 10
237.135774
 20
116.062439
 30
0.0
  0
LWPOLYLINE
  5
309
100
AcDbEntity
  8
Ebene_1
 62
7
100
AcDbPolyline
 90
2
 70
0
 10
251.870917
 20
112.042620
 30
0.0
 10
235.889936
 20
112.042620
 30
0.0
  0
SPLINE
  5
30a
100
AcDbEntity
  8
Ebene_1
 62
7
100
AcDbSpline
 70
8
 71
3
 72
8
 73
4
 74
0
 40
0
 40
0
 40
0
 40
0
 40
1
 40
1
 40
1
 40
1
 10
237.135774
 20
142.170334
 30
0.0
 10
237.120178
 20
142.435543
 30
0.0
 10
236.760805
 20
142.700752
 30
0.0
 10
236.057655
 20
142.965961
 30
0.0
  0
SPLINE
  5
30b
100
AcDbEntity
  8
Ebene_1
 62
7
100
AcDbSpline
 70
8
 71
3
 72
8
 73
4
 74
0
 40
0
 40
0
 40
0
 40
0
 40
1
 40
1
 40
1
 40
1
 10
236.057655
 20
142.965961
 30
0.0
 10
235.578468
 20
143.147389
 30
0.0
 10
235.290935
 20
143.321855
 30
0.0
 10
235.195057
 20
143.489358
 30
0.0
  0
SPLINE
  5
30c
100
AcDbEntity
  8
Ebene_1
 62
7
100
AcDbSpline
 70
8
 71
3
 72
8
 73
4
 74
0
 40
0
 40
0
 40
0
 40
0
 40
1
 40
1
 40
1
 40
1
 10
235.195057
 20
143.489358
 30
0.0
 10
235.115250
 20
143.656862
 30
0.0
 10
235.075346
 20
144.061638
 30
0.0
 10
235.075346
 20
144.703685
 30
0.0
  0
SPLINE
  5
30d
100
AcDbEntity
  8
Ebene_1
 62
7
100
AcDbSpline
 70
8
 71
3
 72
8
 73
4
 74
0
 40
0
 40
0
 40
0
 40
0
 40
1
 40
1
 40
1
 40
1
 10
235.075346
 20
144.703685
 30
0.0
 10
235.075346
 20
145.248027
 30
0.0
 10
235.123251
 20
145.569051
 30
0.0
 10
235.219061
 20
145.666757
 30
0.0
  0
SPLINE
  5
30e
100
AcDbEntity
  8
Ebene_1
 62
7
100
AcDbSpline
 70
8
 71
3
 72
8
 73
4
 74
0
 40
0
 40
0
 40
0
 40
0
 40
1
 40
1
 40
1
 40
1
 10
235.219061
 20
145.666757
 30
0.0
 10
235.314871
 20
145.778446
 30
0.0
 10
235.594402
 20
145.834290
 30
0.0
 10
236.057655
 20
145.834290
 30
0.0
  0
LWPOLYLINE
  5
30f
100
AcDbEntity
  8
Ebene_1
 62
7
100
AcDbPolyline
 90
2
 70
0
 10
237.135774
 20
116.062439
 30
0.0
 10
237.135774
 20
142.170334
 30
0.0
  0
SPLINE
  5
310
100
AcDbEntity
  8
Ebene_1
 62
7
100
AcDbSpline
 70
8
 71
3
 72
8
 73
4
 74
0
 40
0
 40
0
 40
0
 40
0
 40
1
 40
1
 40
1
 40
1
 10
251.343757
 20
145.834290
 30
0.0
 10
251.727134
 20
145.834290
 30
0.0
 10
252.006665
 20
145.778446
 30
0.0
 10
252.182351
 20
145.666757
 30
0.0
  0
SPLINE
  5
311
100
AcDbEntity
  8
Ebene_1
 62
7
100
AcDbSpline
 70
8
 71
3
 72
8
 73
4
 74
0
 40
0
 40
0
 40
0
 40
0
 40
1
 40
1
 40
1
 40
1
 10
252.182351
 20
145.666757
 30
0.0
 10
252.358105
 20
145.555127
 30
0.0
 10
252.493887
 20
145.289948
 30
0.0
 10
252.589697
 20
144.871218
 30
0.0
  0
LWPOLYLINE
  5
312
100
AcDbEntity
  8
Ebene_1
 62
7
100
AcDbPolyline
 90
2
 70
0
 10
236.057655
 20
145.834290
 30
0.0
 10
251.343757
 20
145.834290
 30
0.0
  0
SPLINE
  5
313
100
AcDbEntity
  8
Ebene_1
 62
7
100
AcDbSpline
 70
8
 71
3
 72
8
 73
4
 74
0
 40
0
 40
0
 40
0
 40
0
 40
1
 40
1
 40
1
 40
1
 10
253.811633
 20
139.469539
 30
0.0
 10
253.875371
 20
139.190406
 30
0.0
 10
253.907240
 20
139.001987
 30
0.0
 10
253.907240
 20
138.904281
 30
0.0
  0
SPLINE
  5
314
100
AcDbEntity
  8
Ebene_1
 62
7
100
AcDbSpline
 70
8
 71
3
 72
8
 73
4
 74
0
 40
0
 40
0
 40
0
 40
0
 40
1
 40
1
 40
1
 40
1
 10
253.907240
 20
138.904281
 30
0.0
 10
253.907240
 20
138.527383
 30
0.0
 10
253.523897
 20
138.338934
 30
0.0
 10
252.757212
 20
138.338934
 30
0.0
  0
SPLINE
  5
315
100
AcDbEntity
  8
Ebene_1
 62
7
100
AcDbSpline
 70
8
 71
3
 72
8
 73
4
 74
0
 40
0
 40
0
 40
0
 40
0
 40
1
 40
1
 40
1
 40
1
 10
252.757212
 20
138.338934
 30
0.0
 10
251.894649
 20
138.338934
 30
0.0
 10
251.319618
 20
138.422686
 30
0.0
 10
251.032120
 20
138.590190
 30
0.0
  0
SPLINE
  5
316
100
AcDbEntity
  8
Ebene_1
 62
7
100
AcDbSpline
 70
8
 71
3
 72
8
 73
4
 74
0
 40
0
 40
0
 40
0
 40
0
 40
1
 40
1
 40
1
 40
1
 10
251.032120
 20
138.590190
 30
0.0
 10
250.744621
 20
138.771677
 30
0.0
 10
250.465090
 20
139.211351
 30
0.0
 10
250.193526
 20
139.909214
 30
0.0
  0
SPLINE
  5
317
100
AcDbEntity
  8
Ebene_1
 62
7
100
AcDbSpline
 70
8
 71
3
 72
8
 73
4
 74
0
 40
0
 40
0
 40
0
 40
0
 40
1
 40
1
 40
1
 40
1
 10
250.193526
 20
139.909214
 30
0.0
 10
249.698405
 20
141.165402
 30
0.0
 10
249.267123
 20
142.037759
 30
0.0
 10
248.899681
 20
142.526287
 30
0.0
  0
SPLINE
  5
318
100
AcDbEntity
  8
Ebene_1
 62
7
100
AcDbSpline
 70
8
 71
3
 72
8
 73
4
 74
0
 40
0
 40
0
 40
0
 40
0
 40
1
 40
1
 40
1
 40
1
 10
248.899681
 20
142.526287
 30
0.0
 10
248.548310
 20
143.014814
 30
0.0
 10
248.148999
 20
143.259078
 30
0.0
 10
247.701749
 20
143.259078
 30
0.0
  0
LWPOLYLINE
  5
319
100
AcDbEntity
  8
Ebene_1
 62
7
100
AcDbPolyline
 90
2
 70
0
 10
252.589697
 20
144.871218
 30
0.0
 10
253.811633
 20
139.469539
 30
0.0
  0
LWPOLYLINE
  5
31a
100
AcDbEntity
  8
Ebene_1
 62
7
100
AcDbPolyline
 90
2
 70
0
 10
247.701749
 20
143.259078
 30
0.0
 10
246.072365
 20
143.259078
 30
0.0
  0
SPLINE
  5
31b
100
AcDbEntity
  8
Ebene_1
 62
7
100
AcDbSpline
 70
8
 71
3
 72
8
 73
4
 74
0
 40
0
 40
0
 40
0
 40
0
 40
1
 40
1
 40
1
 40
1
 10
261.454379
 20
116.418303
 30
0.0
 10
261.454379
 20
115.804163
 30
0.0
 10
261.853724
 20
115.343572
 30
0.0
 10
262.652414
 20
115.036532
 30
0.0
  0
SPLINE
  5
31c
100
AcDbEntity
  8
Ebene_1
 62
7
100
AcDbSpline
 70
8
 71
3
 72
8
 73
4
 74
0
 40
0
 40
0
 40
0
 40
0
 40
1
 40
1
 40
1
 40
1
 10
262.652414
 20
115.036532
 30
0.0
 10
263.323289
 20
114.771323
 30
0.0
 10
263.658726
 20
114.394455
 30
0.0
 10
263.658726
 20
113.905927
 30
0.0
  0
SPLINE
  5
31d
100
AcDbEntity
  8
Ebene_1
 62
7
100
AcDbSpline
 70
8
 71
3
 72
8
 73
4
 74
0
 40
0
 40
0
 40
0
 40
0
 40
1
 40
1
 40
1
 40
1
 10
263.658726
 20
113.905927
 30
0.0
 10
263.658726
 20
112.887041
 30
0.0
 10
263.626857
 20
112.321753
 30
0.0
 10
263.563120
 20
112.210065
 30
0.0
  0
SPLINE
  5
31e
100
AcDbEntity
  8
Ebene_1
 62
7
100
AcDbSpline
 70
8
 71
3
 72
8
 73
4
 74
0
 40
0
 40
0
 40
0
 40
0
 40
1
 40
1
 40
1
 40
1
 10
263.563120
 20
112.210065
 30
0.0
 10
263.514977
 20
112.098435
 30
0.0
 10
263.283385
 20
112.042620
 30
0.0
 10
262.868343
 20
112.042620
 30
0.0
  0
LWPOLYLINE
  5
31f
100
AcDbEntity
  8
Ebene_1
 62
7
100
AcDbPolyline
 90
2
 70
0
 10
261.454379
 20
131.199620
 30
0.0
 10
261.454379
 20
116.418303
 30
0.0
  0
SPLINE
  5
320
100
AcDbEntity
  8
Ebene_1
 62
7
100
AcDbSpline
 70
8
 71
3
 72
8
 73
4
 74
0
 40
0
 40
0
 40
0
 40
0
 40
1
 40
1
 40
1
 40
1
 10
256.495133
 20
112.042620
 30
0.0
 10
256.175630
 20
112.042620
 30
0.0
 10
255.975940
 20
112.147288
 30
0.0
 10
255.896065
 20
112.356623
 30
0.0
  0
SPLINE
  5
321
100
AcDbEntity
  8
Ebene_1
 62
7
100
AcDbSpline
 70
8
 71
3
 72
8
 73
4
 74
0
 40
0
 40
0
 40
0
 40
0
 40
1
 40
1
 40
1
 40
1
 10
255.896065
 20
112.356623
 30
0.0
 10
255.816257
 20
112.579941
 30
0.0
 10
255.776353
 20
113.117321
 30
0.0
 10
255.776353
 20
113.968763
 30
0.0
  0
SPLINE
  5
322
100
AcDbEntity
  8
Ebene_1
 62
7
100
AcDbSpline
 70
8
 71
3
 72
8
 73
4
 74
0
 40
0
 40
0
 40
0
 40
0
 40
1
 40
1
 40
1
 40
1
 10
255.776353
 20
113.968763
 30
0.0
 10
255.776353
 20
114.359585
 30
0.0
 10
255.991977
 20
114.631756
 30
0.0
 10
256.423224
 20
114.785277
 30
0.0
  0
SPLINE
  5
323
100
AcDbEntity
  8
Ebene_1
 62
7
100
AcDbSpline
 70
8
 71
3
 72
8
 73
4
 74
0
 40
0
 40
0
 40
0
 40
0
 40
1
 40
1
 40
1
 40
1
 10
256.423224
 20
114.785277
 30
0.0
 10
257.253851
 20
115.106300
 30
0.0
 10
257.669164
 20
115.469215
 30
0.0
 10
257.669164
 20
115.874020
 30
0.0
  0
LWPOLYLINE
  5
324
100
AcDbEntity
  8
Ebene_1
 62
7
100
AcDbPolyline
 90
2
 70
0
 10
262.868343
 20
112.042620
 30
0.0
 10
256.495133
 20
112.042620
 30
0.0
  0
SPLINE
  5
325
100
AcDbEntity
  8
Ebene_1
 62
7
100
AcDbSpline
 70
8
 71
3
 72
8
 73
4
 74
0
 40
0
 40
0
 40
0
 40
0
 40
1
 40
1
 40
1
 40
1
 10
257.669164
 20
140.621030
 30
0.0
 10
257.669164
 20
141.221246
 30
0.0
 10
257.605257
 20
141.667912
 30
0.0
 10
257.477442
 20
141.961029
 30
0.0
  0
SPLINE
  5
326
100
AcDbEntity
  8
Ebene_1
 62
7
100
AcDbSpline
 70
8
 71
3
 72
8
 73
4
 74
0
 40
0
 40
0
 40
0
 40
0
 40
1
 40
1
 40
1
 40
1
 10
257.477442
 20
141.961029
 30
0.0
 10
257.349627
 20
142.268069
 30
0.0
 10
257.062129
 20
142.519295
 30
0.0
 10
256.614946
 20
142.714706
 30
0.0
  0
SPLINE
  5
327
100
AcDbEntity
  8
Ebene_1
 62
7
100
AcDbSpline
 70
8
 71
3
 72
8
 73
4
 74
0
 40
0
 40
0
 40
0
 40
0
 40
1
 40
1
 40
1
 40
1
 10
256.614946
 20
142.714706
 30
0.0
 10
256.215568
 20
142.882210
 30
0.0
 10
255.944004
 20
143.063667
 30
0.0
 10
255.800255
 20
143.259078
 30
0.0
  0
SPLINE
  5
328
100
AcDbEntity
  8
Ebene_1
 62
7
100
AcDbSpline
 70
8
 71
3
 72
8
 73
4
 74
0
 40
0
 40
0
 40
0
 40
0
 40
1
 40
1
 40
1
 40
1
 10
255.800255
 20
143.259078
 30
0.0
 10
255.672508
 20
143.454489
 30
0.0
 10
255.608634
 20
143.824365
 30
0.0
 10
255.608634
 20
144.368708
 30
0.0
  0
SPLINE
  5
329
100
AcDbEntity
  8
Ebene_1
 62
7
100
AcDbSpline
 70
8
 71
3
 72
8
 73
4
 74
0
 40
0
 40
0
 40
0
 40
0
 40
1
 40
1
 40
1
 40
1
 10
255.608634
 20
144.368708
 30
0.0
 10
255.608634
 20
145.345763
 30
0.0
 10
255.904134
 20
145.834290
 30
0.0
 10
256.495133
 20
145.834290
 30
0.0
  0
LWPOLYLINE
  5
32a
100
AcDbEntity
  8
Ebene_1
 62
7
100
AcDbPolyline
 90
2
 70
0
 10
257.669164
 20
115.874020
 30
0.0
 10
257.669164
 20
140.621030
 30
0.0
  0
SPLINE
  5
32b
100
AcDbEntity
  8
Ebene_1
 62
7
100
AcDbSpline
 70
8
 71
3
 72
8
 73
4
 74
0
 40
0
 40
0
 40
0
 40
0
 40
1
 40
1
 40
1
 40
1
 10
271.206273
 20
141.542240
 30
0.0
 10
271.206273
 20
142.212255
 30
0.0
 10
270.814929
 20
142.686828
 30
0.0
 10
270.032241
 20
142.965961
 30
0.0
  0
SPLINE
  5
32c
100
AcDbEntity
  8
Ebene_1
 62
7
100
AcDbSpline
 70
8
 71
3
 72
8
 73
4
 74
0
 40
0
 40
0
 40
0
 40
0
 40
1
 40
1
 40
1
 40
1
 10
270.032241
 20
142.965961
 30
0.0
 10
269.568989
 20
143.147389
 30
0.0
 10
269.265489
 20
143.349762
 30
0.0
 10
269.121739
 20
143.573080
 30
0.0
  0
SPLINE
  5
32d
100
AcDbEntity
  8
Ebene_1
 62
7
100
AcDbSpline
 70
8
 71
3
 72
8
 73
4
 74
0
 40
0
 40
0
 40
0
 40
0
 40
1
 40
1
 40
1
 40
1
 10
269.121739
 20
143.573080
 30
0.0
 10
268.993992
 20
143.810382
 30
0.0
 10
268.930119
 20
144.264011
 30
0.0
 10
268.930119
 20
144.933966
 30
0.0
  0
SPLINE
  5
32e
100
AcDbEntity
  8
Ebene_1
 62
7
100
AcDbSpline
 70
8
 71
3
 72
8
 73
4
 74
0
 40
0
 40
0
 40
0
 40
0
 40
1
 40
1
 40
1
 40
1
 10
268.930119
 20
144.933966
 30
0.0
 10
268.930119
 20
145.352695
 30
0.0
 10
268.978024
 20
145.603950
 30
0.0
 10
269.073834
 20
145.687732
 30
0.0
  0
SPLINE
  5
32f
100
AcDbEntity
  8
Ebene_1
 62
7
100
AcDbSpline
 70
8
 71
3
 72
8
 73
4
 74
0
 40
0
 40
0
 40
0
 40
0
 40
1
 40
1
 40
1
 40
1
 10
269.073834
 20
145.687732
 30
0.0
 10
269.169644
 20
145.785437
 30
0.0
 10
269.353332
 20
145.834290
 30
0.0
 10
269.624896
 20
145.834290
 30
0.0
  0
LWPOLYLINE
  5
330
100
AcDbEntity
  8
Ebene_1
 62
7
100
AcDbPolyline
 90
4
 70
0
 10
256.495133
 20
145.834290
 30
0.0
 10
263.155875
 20
145.834290
 30
0.0
 10
271.206273
 20
129.524644
 30
0.0
 10
271.206273
 20
141.542240
 30
0.0
  0
SPLINE
  5
331
100
AcDbEntity
  8
Ebene_1
 62
7
100
AcDbSpline
 70
8
 71
3
 72
8
 73
4
 74
0
 40
0
 40
0
 40
0
 40
0
 40
1
 40
1
 40
1
 40
1
 10
276.237733
 20
145.834290
 30
0.0
 10
276.605107
 20
145.792221
 30
0.0
 10
276.788794
 20
145.331601
 30
0.0
 10
276.788794
 20
144.452430
 30
0.0
  0
SPLINE
  5
332
100
AcDbEntity
  8
Ebene_1
 62
7
100
AcDbSpline
 70
8
 71
3
 72
8
 73
4
 74
0
 40
0
 40
0
 40
0
 40
0
 40
1
 40
1
 40
1
 40
1
 10
276.788794
 20
144.452430
 30
0.0
 10
276.788794
 20
143.935995
 30
0.0
 10
276.748856
 20
143.608009
 30
0.0
 10
276.668980
 20
143.468472
 30
0.0
  0
SPLINE
  5
333
100
AcDbEntity
  8
Ebene_1
 62
7
100
AcDbSpline
 70
8
 71
3
 72
8
 73
4
 74
0
 40
0
 40
0
 40
0
 40
0
 40
1
 40
1
 40
1
 40
1
 10
276.668980
 20
143.468472
 30
0.0
 10
276.605243
 20
143.328876
 30
0.0
 10
276.445525
 20
143.210225
 30
0.0
 10
276.189828
 20
143.112520
 30
0.0
  0
SPLINE
  5
334
100
AcDbEntity
  8
Ebene_1
 62
7
100
AcDbSpline
 70
8
 71
3
 72
8
 73
4
 74
0
 40
0
 40
0
 40
0
 40
0
 40
1
 40
1
 40
1
 40
1
 10
276.189828
 20
143.112520
 30
0.0
 10
275.630765
 20
142.917109
 30
0.0
 10
275.279359
 20
142.728689
 30
0.0
 10
275.135610
 20
142.547262
 30
0.0
  0
SPLINE
  5
335
100
AcDbEntity
  8
Ebene_1
 62
7
100
AcDbSpline
 70
8
 71
3
 72
8
 73
4
 74
0
 40
0
 40
0
 40
0
 40
0
 40
1
 40
1
 40
1
 40
1
 10
275.135610
 20
142.547262
 30
0.0
 10
274.991861
 20
142.365775
 30
0.0
 10
274.919986
 20
142.114520
 30
0.0
 10
274.919986
 20
141.793496
 30
0.0
  0
LWPOLYLINE
  5
336
100
AcDbEntity
  8
Ebene_1
 62
7
100
AcDbPolyline
 90
2
 70
0
 10
269.624896
 20
145.834290
 30
0.0
 10
276.237733
 20
145.834290
 30
0.0
  0
LWPOLYLINE
  5
337
100
AcDbEntity
  8
Ebene_1
 62
7
100
AcDbPolyline
 90
4
 70
0
 10
274.919986
 20
141.793496
 30
0.0
 10
274.919986
 20
112.042620
 30
0.0
 10
270.846832
 20
112.042620
 30
0.0
 10
261.454379
 20
131.199620
 30
0.0
  0
LWPOLYLINE
  5
338
100
AcDbEntity
  8
Ebene_1
 62
7
100
AcDbPolyline
 90
4
 70
1
 10
19.498104
 20
105.865900
 30
0.0
 10
109.498104
 20
105.865900
 30
0.0
 10
109.498104
 20
100.865900
 30
0.0
 10
19.498104
 20
100.865900
 30
0.0
  0
LWPOLYLINE
  5
339
100
AcDbEntity
  8
Ebene_1
 62
7
100
AcDbPolyline
 90
4
 70
1
 10
184.498104
 20
105.865900
 30
0.0
 10
279.498104
 20
105.865900
 30
0.0
 10
279.498104
 20
100.865900
 30
0.0
 10
184.498104
 20
100.865900
 30
0.0
  0
LWPOLYLINE
  5
33a
100
AcDbEntity
  8
Ebene_1
 62
7
100
AcDbPolyline
 90
4
 70
1
 10
0.000000
 20
190.000000
 30
0.0
 10
300.000000
 20
190.000000
 30
0.0
 10
300.000000
 20
0.000000
 30
0.0
 10
0.000000
 20
0.000000
 30
0.0
  0
ENDSEC
  0
SECTION
  2
OBJECTS
  0
DICTIONARY
  5
C
330
0
100
AcDbDictionary
  3
ACAD_GROUP
350
D
  3
ACAD_MLINESTYLE
350
17
  0
DICTIONARY
  5
D
330
C
100
AcDbDictionary
  0
DICTIONARY
  5
1A
330
C
100
AcDbDictionary
  0
DICTIONARY
  5
17
330
C
100
AcDbDictionary
  3
STANDARD
350
18
  0
DICTIONARY
  5
19
330
C
100
AcDbDictionary
  0
ENDSEC
  0
EOF
