  0
SECTION
  2
HEADER
  9
$ACADVER
  1
AC1014
  9
$HANDSEED
  5
FFFF
  9
$MEASUREMENT
 70
     1
  0
ENDSEC
  0
SECTION
  2
TABLES
  0
TABLE
  2
VPORT
  5
8
330
0
100
AcDbSymbolTable
 70
     4
  0
VPORT
  5
2E
330
8
100
AcDbSymbolTableRecord
100
AcDbViewportTableRecord
  2
*ACTIVE
 70
     0
 10
0.0
 20
0.0
 11
1.0
 21
1.0
 12
210.0
 22
148.5
 13
0.0
 23
0.0
 14
10.0
 24
10.0
 15
10.0
 25
10.0
 16
0.0
 26
0.0
 36
1.0
 17
0.0
 27
0.0
 37
0.0
 40
341.0
 41
1.24
 42
50.0
 43
0.0
 44
0.0
 50
0.0
 51
0.0
 71
     0
 72
   100
 73
     1
 74
     3
 75
     0
 76
     0
 77
     0
 78
     0
  0
ENDTAB
  0
TABLE
  2
LTYPE
  5
5
330
0
100
AcDbSymbolTable
 70
     1
  0
LTYPE
  5
14
330
5
100
AcDbSymbolTableRecord
100
AcDbLinetypeTableRecord
  2
BYBLOCK
 70
     0
  3

 72
    65
 73
     0
 40
0.0
  0
LTYPE
  5
15
330
5
100
AcDbSymbolTableRecord
100
AcDbLinetypeTableRecord
  2
BYLAYER
 70
     0
  3

 72
    65
 73
     0
 40
0.0
  0
LTYPE
  5
16
330
5
100
AcDbSymbolTableRecord
100
AcDbLinetypeTableRecord
  2
CONTINUOUS
 70
     0
  3
Solid line
 72
    65
 73
     0
 40
0.0
  0
ENDTAB
  0
TABLE
  2
LAYER
  5
2
100
AcDbSymbolTable
 70
2
  0
LAYER
  5
50
100
AcDbSymbolTableRecord
100
AcDbLayerTableRecord
  2
0
 70
0
  6
CONTINUOUS
  0
LAYER
  5
51
100
AcDbSymbolTableRecord
100
AcDbLayerTableRecord
  2
Ebene_1
 70
0
  6
CONTINUOUS
  0
ENDTAB
  0
TABLE
  2
STYLE
  5
3
330
0
100
AcDbSymbolTable
 70
     1
  0
STYLE
  5
11
330
3
100
AcDbSymbolTableRecord
100
AcDbTextStyleTableRecord
  2
STANDARD
 70
     0
 40
0.0
 41
1.0
 50
0.0
 71
     0
 42
2.5
  3
txt
  4

  0
ENDTAB
  0
TABLE
  2
VIEW
  5
6
330
0
100
AcDbSymbolTable
 70
     0
  0
ENDTAB
  0
TABLE
  2
UCS
  5
7
330
0
100
AcDbSymbolTable
 70
     0
  0
ENDTAB
  0
TABLE
  2
APPID
  5
9
330
0
100
AcDbSymbolTable
 70
     2
  0
APPID
  5
12
330
9
100
AcDbSymbolTableRecord
100
AcDbRegAppTableRecord
  2
ACAD
 70
     0
  0
ENDTAB
  0
TABLE
  2
DIMSTYLE
  5
A
330
0
100
AcDbSymbolTable
 70
     1
  0
DIMSTYLE
105
27
330
A
100
AcDbSymbolTableRecord
100
AcDbDimStyleTableRecord
  2
ISO-25
 70
     0
  3

  4

  5

  6

  7

 40
1.0
 41
2.5
 42
0.625
 43
3.75
 44
1.25
 45
0.0
 46
0.0
 47
0.0
 48
0.0
140
2.5
141
2.5
142
0.0
143
0.03937007874016
144
1.0
145
0.0
146
1.0
147
0.625
 71
     0
 72
     0
 73
     0
 74
     0
 75
     0
 76
     0
 77
     1
 78
     8
170
     0
171
     3
172
     1
173
     0
174
     0
175
     0
176
     0
177
     0
178
     0
270
     2
271
     2
272
     2
273
     2
274
     3
340
11
275
     0
280
     0
281
     0
282
     0
283
     0
284
     8
285
     0
286
     0
287
     3
288
     0
  0
ENDTAB
  0
TABLE
  2
BLOCK_RECORD
  5
1
330
0
100
AcDbSymbolTable
 70
     1
  0
BLOCK_RECORD
  5
1F
330
1
100
AcDbSymbolTableRecord
100
AcDbBlockTableRecord
  2
*MODEL_SPACE
  0
BLOCK_RECORD
  5
1B
330
1
100
AcDbSymbolTableRecord
100
AcDbBlockTableRecord
  2
*PAPER_SPACE
  0
ENDTAB
  0
ENDSEC
  0
SECTION
  2
BLOCKS
  0
BLOCK
  5
20
330
1F
100
AcDbEntity
  8
0
100
AcDbBlockBegin
  2
*MODEL_SPACE
 70
     0
 10
0.0
 20
0.0
 30
0.0
  3
*MODEL_SPACE
  1

  0
ENDBLK
  5
21
330
1F
100
AcDbEntity
  8
0
100
AcDbBlockEnd
  0
BLOCK
  5
1C
330
1B
100
AcDbEntity
 67
     1
  8
0
100
AcDbBlockBegin
  2
*PAPER_SPACE
  1

  0
ENDBLK
  5
1D
330
1B
100
AcDbEntity
 67
     1
  8
0
100
AcDbBlockEnd
  0
ENDSEC
  0
SECTION
  2
ENTITIES
  0
LWPOLYLINE
  5
100
100
AcDbEntity
  8
Ebene_1
 62
7
100
AcDbPolyline
 90
4
 70
1
 10
0.000000
 20
379.999990
 30
0.0
 10
300.000010
 20
379.999990
 30
0.0
 10
300.000010
 20
0.000000
 30
0.0
 10
0.000000
 20
0.000000
 30
0.0
  0
SPLINE
  5
101
100
AcDbEntity
  8
Ebene_1
 62
7
100
AcDbSpline
 70
8
 71
3
 72
8
 73
4
 74
0
 40
0
 40
0
 40
0
 40
0
 40
1
 40
1
 40
1
 40
1
 10
269.710700
 20
370.000700
 30
0.0
 10
280.823640
 20
370.000700
 30
0.0
 10
289.770180
 20
361.039920
 30
0.0
 10
289.770180
 20
349.909280
 30
0.0
  0
LWPOLYLINE
  5
102
100
AcDbEntity
  8
Ebene_1
 62
7
100
AcDbPolyline
 90
2
 70
0
 10
30.000052
 20
370.000700
 30
0.0
 10
269.710700
 20
370.000700
 30
0.0
  0
SPLINE
  5
103
100
AcDbEntity
  8
Ebene_1
 62
7
100
AcDbSpline
 70
8
 71
3
 72
8
 73
4
 74
0
 40
0
 40
0
 40
0
 40
0
 40
1
 40
1
 40
1
 40
1
 10
289.770180
 20
215.296725
 30
0.0
 10
289.770180
 20
204.166085
 30
0.0
 10
280.823640
 20
195.205315
 30
0.0
 10
269.710700
 20
195.205315
 30
0.0
  0
LWPOLYLINE
  5
104
100
AcDbEntity
  8
Ebene_1
 62
7
100
AcDbPolyline
 90
2
 70
0
 10
289.770180
 20
349.909280
 30
0.0
 10
289.770180
 20
215.296725
 30
0.0
  0
SPLINE
  5
105
100
AcDbEntity
  8
Ebene_1
 62
7
100
AcDbSpline
 70
8
 71
3
 72
8
 73
4
 74
0
 40
0
 40
0
 40
0
 40
0
 40
1
 40
1
 40
1
 40
1
 10
30.000052
 20
195.205315
 30
0.0
 10
18.887112
 20
195.205315
 30
0.0
 10
9.940582
 20
204.166085
 30
0.0
 10
9.940582
 20
215.296725
 30
0.0
  0
LWPOLYLINE
  5
106
100
AcDbEntity
  8
Ebene_1
 62
7
100
AcDbPolyline
 90
2
 70
0
 10
269.710700
 20
195.205315
 30
0.0
 10
30.000052
 20
195.205315
 30
0.0
  0
SPLINE
  5
107
100
AcDbEntity
  8
Ebene_1
 62
7
100
AcDbSpline
 70
8
 71
3
 72
8
 73
4
 74
0
 40
0
 40
0
 40
0
 40
0
 40
1
 40
1
 40
1
 40
1
 10
9.940582
 20
349.909280
 30
0.0
 10
9.940582
 20
361.039920
 30
0.0
 10
18.887112
 20
370.000700
 30
0.0
 10
30.000052
 20
370.000700
 30
0.0
  0
LWPOLYLINE
  5
108
100
AcDbEntity
  8
Ebene_1
 62
7
100
AcDbPolyline
 90
2
 70
0
 10
9.940582
 20
215.296725
 30
0.0
 10
9.940582
 20
349.909280
 30
0.0
  0
SPLINE
  5
109
100
AcDbEntity
  8
Ebene_1
 62
7
100
AcDbSpline
 70
8
 71
3
 72
8
 73
4
 74
0
 40
0
 40
0
 40
0
 40
0
 40
1
 40
1
 40
1
 40
1
 10
81.277692
 20
349.466520
 30
0.0
 10
76.850792
 20
349.446420
 30
0.0
 10
72.436481
 20
349.223660
 30
0.0
 10
68.044433
 20
348.921420
 30
0.0
  0
SPLINE
  5
10a
100
AcDbEntity
  8
Ebene_1
 62
7
100
AcDbSpline
 70
8
 71
3
 72
8
 73
4
 74
0
 40
0
 40
0
 40
0
 40
0
 40
1
 40
1
 40
1
 40
1
 10
68.044433
 20
348.921420
 30
0.0
 10
63.178994
 20
348.586580
 30
0.0
 10
58.511643
 20
347.462510
 30
0.0
 10
53.988543
 20
346.607690
 30
0.0
  0
SPLINE
  5
10b
100
AcDbEntity
  8
Ebene_1
 62
7
100
AcDbSpline
 70
8
 71
3
 72
8
 73
4
 74
0
 40
0
 40
0
 40
0
 40
0
 40
1
 40
1
 40
1
 40
1
 10
53.988543
 20
346.607690
 30
0.0
 10
52.468541
 20
346.320430
 30
0.0
 10
51.056614
 20
345.575410
 30
0.0
 10
50.187222
 20
344.346690
 30
0.0
  0
SPLINE
  5
10c
100
AcDbEntity
  8
Ebene_1
 62
7
100
AcDbSpline
 70
8
 71
3
 72
8
 73
4
 74
0
 40
0
 40
0
 40
0
 40
0
 40
1
 40
1
 40
1
 40
1
 10
50.187222
 20
344.346690
 30
0.0
 10
49.317822
 20
343.117980
 30
0.0
 10
49.066182
 20
341.624950
 30
0.0
 10
49.135302
 20
340.090290
 30
0.0
  0
SPLINE
  5
10d
100
AcDbEntity
  8
Ebene_1
 62
7
100
AcDbSpline
 70
8
 71
3
 72
8
 73
4
 74
0
 40
0
 40
0
 40
0
 40
0
 40
1
 40
1
 40
1
 40
1
 10
49.135302
 20
340.090290
 30
0.0
 10
49.464573
 20
332.780040
 30
0.0
 10
49.795993
 20
325.485960
 30
0.0
 10
49.887803
 20
318.215890
 30
0.0
  0
LWPOLYLINE
  5
10e
100
AcDbEntity
  8
Ebene_1
 62
7
100
AcDbPolyline
 90
1
 70
1
 10
30.000052
 20
370.000700
 30
0.0
  0
SPLINE
  5
10f
100
AcDbEntity
  8
Ebene_1
 62
7
100
AcDbSpline
 70
8
 71
3
 72
8
 73
4
 74
0
 40
0
 40
0
 40
0
 40
0
 40
1
 40
1
 40
1
 40
1
 10
51.942433
 20
316.187150
 30
0.0
 10
53.595762
 20
316.187150
 30
0.0
 10
54.290444
 20
315.895030
 30
0.0
 10
54.475993
 20
315.736550
 30
0.0
  0
SPLINE
  5
110
100
AcDbEntity
  8
Ebene_1
 62
7
100
AcDbSpline
 70
8
 71
3
 72
8
 73
4
 74
0
 40
0
 40
0
 40
0
 40
0
 40
1
 40
1
 40
1
 40
1
 10
54.475993
 20
315.736550
 30
0.0
 10
54.660583
 20
315.578890
 30
0.0
 10
54.883171
 20
315.226400
 30
0.0
 10
54.941022
 20
313.918690
 30
0.0
  0
SPLINE
  5
111
100
AcDbEntity
  8
Ebene_1
 62
7
100
AcDbSpline
 70
8
 71
3
 72
8
 73
4
 74
0
 40
0
 40
0
 40
0
 40
0
 40
1
 40
1
 40
1
 40
1
 10
54.941022
 20
313.918690
 30
0.0
 10
55.066623
 20
287.284470
 30
0.0
 10
55.004522
 20
260.643835
 30
0.0
 10
54.972322
 20
233.997905
 30
0.0
  0
LWPOLYLINE
  5
112
100
AcDbEntity
  8
Ebene_1
 62
7
100
AcDbPolyline
 90
3
 70
0
 10
49.887803
 20
318.215890
 30
0.0
 10
49.913203
 20
316.187150
 30
0.0
 10
51.942433
 20
316.187150
 30
0.0
  0
SPLINE
  5
113
100
AcDbEntity
  8
Ebene_1
 62
7
100
AcDbSpline
 70
8
 71
3
 72
8
 73
4
 74
0
 40
0
 40
0
 40
0
 40
0
 40
1
 40
1
 40
1
 40
1
 10
51.601243
 20
233.993905
 30
0.0
 10
49.787964
 20
233.870295
 30
0.0
 10
48.400833
 20
233.778905
 30
0.0
 10
47.205572
 20
233.567175
 30
0.0
  0
SPLINE
  5
114
100
AcDbEntity
  8
Ebene_1
 62
7
100
AcDbSpline
 70
8
 71
3
 72
8
 73
4
 74
0
 40
0
 40
0
 40
0
 40
0
 40
1
 40
1
 40
1
 40
1
 10
47.205572
 20
233.567175
 30
0.0
 10
46.010315
 20
233.355445
 30
0.0
 10
44.856432
 20
233.006625
 30
0.0
 10
43.970242
 20
232.060165
 30
0.0
  0
SPLINE
  5
115
100
AcDbEntity
  8
Ebene_1
 62
7
100
AcDbSpline
 70
8
 71
3
 72
8
 73
4
 74
0
 40
0
 40
0
 40
0
 40
0
 40
1
 40
1
 40
1
 40
1
 10
43.970242
 20
232.060165
 30
0.0
 10
43.084055
 20
231.113715
 30
0.0
 10
42.828584
 20
229.876975
 30
0.0
 10
42.779564
 20
228.723375
 30
0.0
  0
SPLINE
  5
116
100
AcDbEntity
  8
Ebene_1
 62
7
100
AcDbSpline
 70
8
 71
3
 72
8
 73
4
 74
0
 40
0
 40
0
 40
0
 40
0
 40
1
 40
1
 40
1
 40
1
 10
42.779564
 20
228.723375
 30
0.0
 10
42.730564
 20
227.569775
 30
0.0
 10
42.843264
 20
226.309815
 30
0.0
 10
42.975033
 20
224.677345
 30
0.0
  0
LWPOLYLINE
  5
117
100
AcDbEntity
  8
Ebene_1
 62
7
100
AcDbPolyline
 90
3
 70
0
 10
54.972322
 20
233.997905
 30
0.0
 10
51.670843
 20
233.997905
 30
0.0
 10
51.601243
 20
233.993905
 30
0.0
  0
SPLINE
  5
118
100
AcDbEntity
  8
Ebene_1
 62
7
100
AcDbSpline
 70
8
 71
3
 72
8
 73
4
 74
0
 40
0
 40
0
 40
0
 40
0
 40
1
 40
1
 40
1
 40
1
 10
115.981520
 20
224.721615
 30
0.0
 10
116.154370
 20
227.652155
 30
0.0
 10
116.512240
 20
229.523445
 30
0.0
 10
115.281240
 20
231.407635
 30
0.0
  0
SPLINE
  5
119
100
AcDbEntity
  8
Ebene_1
 62
7
100
AcDbSpline
 70
8
 71
3
 72
8
 73
4
 74
0
 40
0
 40
0
 40
0
 40
0
 40
1
 40
1
 40
1
 40
1
 10
115.281240
 20
231.407635
 30
0.0
 10
114.665750
 20
232.349725
 30
0.0
 10
113.671760
 20
232.935095
 30
0.0
 10
112.700440
 20
233.263785
 30
0.0
  0
SPLINE
  5
11a
100
AcDbEntity
  8
Ebene_1
 62
7
100
AcDbSpline
 70
8
 71
3
 72
8
 73
4
 74
0
 40
0
 40
0
 40
0
 40
0
 40
1
 40
1
 40
1
 40
1
 10
112.700440
 20
233.263785
 30
0.0
 10
111.729130
 20
233.592465
 30
0.0
 10
110.678070
 20
233.769345
 30
0.0
 10
109.350730
 20
233.974505
 30
0.0
  0
LWPOLYLINE
  5
11b
100
AcDbEntity
  8
Ebene_1
 62
7
100
AcDbPolyline
 90
4
 70
0
 10
42.975033
 20
224.677345
 30
0.0
 10
43.127224
 20
222.787885
 30
0.0
 10
115.867130
 20
222.787885
 30
0.0
 10
115.981520
 20
224.721615
 30
0.0
  0
SPLINE
  5
11c
100
AcDbEntity
  8
Ebene_1
 62
7
100
AcDbSpline
 70
8
 71
3
 72
8
 73
4
 74
0
 40
0
 40
0
 40
0
 40
0
 40
1
 40
1
 40
1
 40
1
 10
104.851180
 20
233.998305
 30
0.0
 10
104.829480
 20
234.354465
 30
0.0
 10
104.786680
 20
234.777375
 30
0.0
 10
104.786480
 20
235.102945
 30
0.0
  0
SPLINE
  5
11d
100
AcDbEntity
  8
Ebene_1
 62
7
100
AcDbSpline
 70
8
 71
3
 72
8
 73
4
 74
0
 40
0
 40
0
 40
0
 40
0
 40
1
 40
1
 40
1
 40
1
 10
104.786480
 20
235.102945
 30
0.0
 10
104.776480
 20
260.902265
 30
0.0
 10
104.792480
 20
286.703800
 30
0.0
 10
104.756180
 20
312.507090
 30
0.0
  0
SPLINE
  5
11e
100
AcDbEntity
  8
Ebene_1
 62
7
100
AcDbSpline
 70
8
 71
3
 72
8
 73
4
 74
0
 40
0
 40
0
 40
0
 40
0
 40
1
 40
1
 40
1
 40
1
 10
104.756180
 20
312.507090
 30
0.0
 10
104.853980
 20
314.589140
 30
0.0
 10
105.249800
 20
315.384630
 30
0.0
 10
105.538530
 20
315.655890
 30
0.0
  0
SPLINE
  5
11f
100
AcDbEntity
  8
Ebene_1
 62
7
100
AcDbSpline
 70
8
 71
3
 72
8
 73
4
 74
0
 40
0
 40
0
 40
0
 40
0
 40
1
 40
1
 40
1
 40
1
 10
105.538530
 20
315.655890
 30
0.0
 10
105.828470
 20
315.928260
 30
0.0
 10
106.552810
 20
316.192930
 30
0.0
 10
108.311310
 20
316.187570
 30
0.0
  0
LWPOLYLINE
  5
120
100
AcDbEntity
  8
Ebene_1
 62
7
100
AcDbPolyline
 90
5
 70
0
 10
109.350730
 20
233.974505
 30
0.0
 10
109.194560
 20
233.998305
 30
0.0
 10
106.093010
 20
233.998305
 30
0.0
 10
105.994610
 20
233.998305
 30
0.0
 10
104.851180
 20
233.998305
 30
0.0
  0
SPLINE
  5
121
100
AcDbEntity
  8
Ebene_1
 62
7
100
AcDbSpline
 70
8
 71
3
 72
8
 73
4
 74
0
 40
0
 40
0
 40
0
 40
0
 40
1
 40
1
 40
1
 40
1
 10
110.372360
 20
318.227690
 30
0.0
 10
110.421760
 20
324.915510
 30
0.0
 10
110.472360
 20
331.603520
 30
0.0
 10
110.520560
 20
338.292200
 30
0.0
  0
SPLINE
  5
122
100
AcDbEntity
  8
Ebene_1
 62
7
100
AcDbSpline
 70
8
 71
3
 72
8
 73
4
 74
0
 40
0
 40
0
 40
0
 40
0
 40
1
 40
1
 40
1
 40
1
 10
110.520560
 20
338.292200
 30
0.0
 10
110.540460
 20
341.046640
 30
0.0
 10
110.734000
 20
342.915230
 30
0.0
 10
109.406980
 20
344.643490
 30
0.0
  0
SPLINE
  5
123
100
AcDbEntity
  8
Ebene_1
 62
7
100
AcDbSpline
 70
8
 71
3
 72
8
 73
4
 74
0
 40
0
 40
0
 40
0
 40
0
 40
1
 40
1
 40
1
 40
1
 10
109.406980
 20
344.643490
 30
0.0
 10
108.743450
 20
345.507640
 30
0.0
 10
107.812050
 20
346.022830
 30
0.0
 10
106.853020
 20
346.376320
 30
0.0
  0
SPLINE
  5
124
100
AcDbEntity
  8
Ebene_1
 62
7
100
AcDbSpline
 70
8
 71
3
 72
8
 73
4
 74
0
 40
0
 40
0
 40
0
 40
0
 40
1
 40
1
 40
1
 40
1
 10
106.853020
 20
346.376320
 30
0.0
 10
105.893980
 20
346.729800
 30
0.0
 10
104.821930
 20
346.979610
 30
0.0
 10
103.454050
 20
347.290960
 30
0.0
  0
SPLINE
  5
125
100
AcDbEntity
  8
Ebene_1
 62
7
100
AcDbSpline
 70
8
 71
3
 72
8
 73
4
 74
0
 40
0
 40
0
 40
0
 40
0
 40
1
 40
1
 40
1
 40
1
 10
103.454050
 20
347.290960
 30
0.0
 10
96.071397
 20
348.971340
 30
0.0
 10
88.656047
 20
349.501050
 30
0.0
 10
81.277768
 20
349.467400
 30
0.0
  0
LWPOLYLINE
  5
126
100
AcDbEntity
  8
Ebene_1
 62
7
100
AcDbPolyline
 90
3
 70
0
 10
108.311310
 20
316.187570
 30
0.0
 10
110.356960
 20
316.181570
 30
0.0
 10
110.372360
 20
318.227690
 30
0.0
  0
SPLINE
  5
127
100
AcDbEntity
  8
Ebene_1
 62
7
100
AcDbSpline
 70
8
 71
3
 72
8
 73
4
 74
0
 40
0
 40
0
 40
0
 40
0
 40
1
 40
1
 40
1
 40
1
 10
81.296082
 20
345.357330
 30
0.0
 10
88.464771
 20
345.390030
 30
0.0
 10
95.557862
 20
344.872960
 30
0.0
 10
102.541820
 20
343.283330
 30
0.0
  0
SPLINE
  5
128
100
AcDbEntity
  8
Ebene_1
 62
7
100
AcDbSpline
 70
8
 71
3
 72
8
 73
4
 74
0
 40
0
 40
0
 40
0
 40
0
 40
1
 40
1
 40
1
 40
1
 10
102.541820
 20
343.283330
 30
0.0
 10
103.881360
 20
342.978440
 30
0.0
 10
104.851360
 20
342.733220
 30
0.0
 10
105.431480
 20
342.519400
 30
0.0
  0
SPLINE
  5
129
100
AcDbEntity
  8
Ebene_1
 62
7
100
AcDbSpline
 70
8
 71
3
 72
8
 73
4
 74
0
 40
0
 40
0
 40
0
 40
0
 40
1
 40
1
 40
1
 40
1
 10
105.431480
 20
342.519400
 30
0.0
 10
106.011590
 20
342.305570
 30
0.0
 10
106.116010
 20
342.181170
 30
0.0
 10
106.147670
 20
342.139900
 30
0.0
  0
SPLINE
  5
12a
100
AcDbEntity
  8
Ebene_1
 62
7
100
AcDbSpline
 70
8
 71
3
 72
8
 73
4
 74
0
 40
0
 40
0
 40
0
 40
0
 40
1
 40
1
 40
1
 40
1
 10
106.147670
 20
342.139900
 30
0.0
 10
106.211070
 20
342.057400
 30
0.0
 10
106.431060
 20
341.051870
 30
0.0
 10
106.411280
 20
338.321180
 30
0.0
  0
SPLINE
  5
12b
100
AcDbEntity
  8
Ebene_1
 62
7
100
AcDbSpline
 70
8
 71
3
 72
8
 73
4
 74
0
 40
0
 40
0
 40
0
 40
0
 40
1
 40
1
 40
1
 40
1
 10
106.411280
 20
338.321180
 30
0.0
 10
106.367580
 20
332.268370
 30
0.0
 10
106.321480
 20
326.215100
 30
0.0
 10
106.276490
 20
320.161550
 30
0.0
  0
SPLINE
  5
12c
100
AcDbEntity
  8
Ebene_1
 62
7
100
AcDbSpline
 70
8
 71
3
 72
8
 73
4
 74
0
 40
0
 40
0
 40
0
 40
0
 40
1
 40
1
 40
1
 40
1
 10
106.276490
 20
320.161550
 30
0.0
 10
104.947150
 20
319.986220
 30
0.0
 10
103.722370
 20
319.587710
 30
0.0
 10
102.724840
 20
318.650590
 30
0.0
  0
SPLINE
  5
12d
100
AcDbEntity
  8
Ebene_1
 62
7
100
AcDbSpline
 70
8
 71
3
 72
8
 73
4
 74
0
 40
0
 40
0
 40
0
 40
0
 40
1
 40
1
 40
1
 40
1
 10
102.724840
 20
318.650590
 30
0.0
 10
101.230880
 20
317.247100
 30
0.0
 10
100.764330
 20
315.206530
 30
0.0
 10
100.648850
 20
312.671310
 30
0.0
  0
LWPOLYLINE
  5
12e
100
AcDbEntity
  8
Ebene_1
 62
7
100
AcDbPolyline
 90
2
 70
0
 10
81.277768
 20
349.467400
 30
0.0
 10
81.277692
 20
349.466520
 30
0.0
  0
SPLINE
  5
12f
100
AcDbEntity
  8
Ebene_1
 62
7
100
AcDbSpline
 70
8
 71
3
 72
8
 73
4
 74
0
 40
0
 40
0
 40
0
 40
0
 40
1
 40
1
 40
1
 40
1
 10
100.646850
 20
312.574710
 30
0.0
 10
100.683750
 20
286.752390
 30
0.0
 10
100.667250
 20
260.927745
 30
0.0
 10
100.677150
 20
235.100925
 30
0.0
  0
LWPOLYLINE
  5
130
100
AcDbEntity
  8
Ebene_1
 62
7
100
AcDbPolyline
 90
3
 70
0
 10
100.648850
 20
312.671310
 30
0.0
 10
100.646850
 20
312.623010
 30
0.0
 10
100.646850
 20
312.574710
 30
0.0
  0
SPLINE
  5
131
100
AcDbEntity
  8
Ebene_1
 62
7
100
AcDbSpline
 70
8
 71
3
 72
8
 73
4
 74
0
 40
0
 40
0
 40
0
 40
0
 40
1
 40
1
 40
1
 40
1
 10
100.677150
 20
235.100405
 30
0.0
 10
100.677680
 20
233.901055
 30
0.0
 10
100.802180
 20
232.814795
 30
0.0
 10
100.861680
 20
231.820315
 30
0.0
  0
LWPOLYLINE
  5
132
100
AcDbEntity
  8
Ebene_1
 62
7
100
AcDbPolyline
 90
2
 70
0
 10
100.677150
 20
235.100925
 30
0.0
 10
100.677150
 20
235.100405
 30
0.0
  0
SPLINE
  5
133
100
AcDbEntity
  8
Ebene_1
 62
7
100
AcDbSpline
 70
8
 71
3
 72
8
 73
4
 74
0
 40
0
 40
0
 40
0
 40
0
 40
1
 40
1
 40
1
 40
1
 10
108.840270
 20
229.888555
 30
0.0
 10
110.023570
 20
229.702155
 30
0.0
 10
110.917110
 20
229.527875
 30
0.0
 10
111.382750
 20
229.370315
 30
0.0
  0
SPLINE
  5
134
100
AcDbEntity
  8
Ebene_1
 62
7
100
AcDbSpline
 70
8
 71
3
 72
8
 73
4
 74
0
 40
0
 40
0
 40
0
 40
0
 40
1
 40
1
 40
1
 40
1
 10
111.382750
 20
229.370315
 30
0.0
 10
111.869900
 20
229.205475
 30
0.0
 10
111.839360
 20
229.161675
 30
0.0
 10
111.840830
 20
229.159435
 30
0.0
  0
SPLINE
  5
135
100
AcDbEntity
  8
Ebene_1
 62
7
100
AcDbSpline
 70
8
 71
3
 72
8
 73
4
 74
0
 40
0
 40
0
 40
0
 40
0
 40
1
 40
1
 40
1
 40
1
 10
111.840830
 20
229.159435
 30
0.0
 10
111.842830
 20
229.156435
 30
0.0
 10
111.904030
 20
228.259185
 30
0.0
 10
111.907030
 20
226.896445
 30
0.0
  0
LWPOLYLINE
  5
136
100
AcDbEntity
  8
Ebene_1
 62
7
100
AcDbPolyline
 90
5
 70
0
 10
100.861680
 20
231.820315
 30
0.0
 10
100.977070
 20
229.888555
 30
0.0
 10
105.994450
 20
229.888555
 30
0.0
 10
106.092850
 20
229.888555
 30
0.0
 10
108.840270
 20
229.888555
 30
0.0
  0
SPLINE
  5
137
100
AcDbEntity
  8
Ebene_1
 62
7
100
AcDbSpline
 70
8
 71
3
 72
8
 73
4
 74
0
 40
0
 40
0
 40
0
 40
0
 40
1
 40
1
 40
1
 40
1
 10
46.971841
 20
226.896445
 30
0.0
 10
46.942941
 20
227.434595
 30
0.0
 10
46.871183
 20
228.215735
 30
0.0
 10
46.885341
 20
228.548175
 30
0.0
  0
SPLINE
  5
138
100
AcDbEntity
  8
Ebene_1
 62
7
100
AcDbSpline
 70
8
 71
3
 72
8
 73
4
 74
0
 40
0
 40
0
 40
0
 40
0
 40
1
 40
1
 40
1
 40
1
 10
46.885341
 20
228.548175
 30
0.0
 10
46.915641
 20
229.260905
 30
0.0
 10
47.015460
 20
229.299595
 30
0.0
 10
46.969941
 20
229.250945
 30
0.0
  0
SPLINE
  5
139
100
AcDbEntity
  8
Ebene_1
 62
7
100
AcDbSpline
 70
8
 71
3
 72
8
 73
4
 74
0
 40
0
 40
0
 40
0
 40
0
 40
1
 40
1
 40
1
 40
1
 10
46.969941
 20
229.250945
 30
0.0
 10
46.924341
 20
229.202245
 30
0.0
 10
47.097121
 20
229.373835
 30
0.0
 10
47.922391
 20
229.520005
 30
0.0
  0
SPLINE
  5
13a
100
AcDbEntity
  8
Ebene_1
 62
7
100
AcDbSpline
 70
8
 71
3
 72
8
 73
4
 74
0
 40
0
 40
0
 40
0
 40
0
 40
1
 40
1
 40
1
 40
1
 10
47.922391
 20
229.520005
 30
0.0
 10
48.689693
 20
229.655925
 30
0.0
 10
49.986512
 20
229.754455
 30
0.0
 10
51.602851
 20
229.866675
 30
0.0
  0
LWPOLYLINE
  5
13b
100
AcDbEntity
  8
Ebene_1
 62
7
100
AcDbPolyline
 90
2
 70
0
 10
111.907030
 20
226.896445
 30
0.0
 10
46.971841
 20
226.896445
 30
0.0
  0
SPLINE
  5
13c
100
AcDbEntity
  8
Ebene_1
 62
7
100
AcDbSpline
 70
8
 71
3
 72
8
 73
4
 74
0
 40
0
 40
0
 40
0
 40
0
 40
1
 40
1
 40
1
 40
1
 10
53.657452
 20
229.838345
 30
0.0
 10
54.796023
 20
229.838095
 30
0.0
 10
55.724753
 20
229.838345
 30
0.0
 10
56.693331
 20
229.838345
 30
0.0
  0
LWPOLYLINE
  5
13d
100
AcDbEntity
  8
Ebene_1
 62
7
100
AcDbPolyline
 90
3
 70
0
 10
51.602851
 20
229.866675
 30
0.0
 10
51.602851
 20
229.838875
 30
0.0
 10
53.657452
 20
229.838345
 30
0.0
  0
SPLINE
  5
13e
100
AcDbEntity
  8
Ebene_1
 62
7
100
AcDbSpline
 70
8
 71
3
 72
8
 73
4
 74
0
 40
0
 40
0
 40
0
 40
0
 40
1
 40
1
 40
1
 40
1
 10
58.511183
 20
230.935025
 30
0.0
 10
58.598983
 20
231.101625
 30
0.0
 10
58.642752
 20
231.170225
 30
0.0
 10
58.722072
 20
231.306555
 30
0.0
  0
SPLINE
  5
13f
100
AcDbEntity
  8
Ebene_1
 62
7
100
AcDbSpline
 70
8
 71
3
 72
8
 73
4
 74
0
 40
0
 40
0
 40
0
 40
0
 40
1
 40
1
 40
1
 40
1
 10
58.722072
 20
231.306555
 30
0.0
 10
58.801372
 20
231.442875
 30
0.0
 10
59.080661
 20
231.808745
 30
0.0
 10
59.080661
 20
232.537015
 30
0.0
  0
SPLINE
  5
140
100
AcDbEntity
  8
Ebene_1
 62
7
100
AcDbSpline
 70
8
 71
3
 72
8
 73
4
 74
0
 40
0
 40
0
 40
0
 40
0
 40
1
 40
1
 40
1
 40
1
 10
59.080661
 20
232.537015
 30
0.0
 10
59.112261
 20
259.686265
 30
0.0
 10
59.179261
 20
286.841220
 30
0.0
 10
59.050861
 20
314.001620
 30
0.0
  0
LWPOLYLINE
  5
141
100
AcDbEntity
  8
Ebene_1
 62
7
100
AcDbPolyline
 90
3
 70
0
 10
56.693331
 20
229.838345
 30
0.0
 10
57.933253
 20
229.838345
 30
0.0
 10
58.511183
 20
230.935025
 30
0.0
  0
SPLINE
  5
142
100
AcDbEntity
  8
Ebene_1
 62
7
100
AcDbSpline
 70
8
 71
3
 72
8
 73
4
 74
0
 40
0
 40
0
 40
0
 40
0
 40
1
 40
1
 40
1
 40
1
 10
59.048761
 20
314.079220
 30
0.0
 10
58.970961
 20
315.906840
 30
0.0
 10
58.525150
 20
317.682900
 30
0.0
 10
57.145359
 20
318.861320
 30
0.0
  0
SPLINE
  5
143
100
AcDbEntity
  8
Ebene_1
 62
7
100
AcDbSpline
 70
8
 71
3
 72
8
 73
4
 74
0
 40
0
 40
0
 40
0
 40
0
 40
1
 40
1
 40
1
 40
1
 10
57.145359
 20
318.861320
 30
0.0
 10
56.241000
 20
319.633720
 30
0.0
 10
55.156708
 20
319.988240
 30
0.0
 10
53.947340
 20
320.155960
 30
0.0
  0
SPLINE
  5
144
100
AcDbEntity
  8
Ebene_1
 62
7
100
AcDbSpline
 70
8
 71
3
 72
8
 73
4
 74
0
 40
0
 40
0
 40
0
 40
0
 40
1
 40
1
 40
1
 40
1
 10
53.947340
 20
320.155960
 30
0.0
 10
53.826219
 20
326.882080
 30
0.0
 10
53.541599
 20
333.591750
 30
0.0
 10
53.240590
 20
340.274670
 30
0.0
  0
SPLINE
  5
145
100
AcDbEntity
  8
Ebene_1
 62
7
100
AcDbSpline
 70
8
 71
3
 72
8
 73
4
 74
0
 40
0
 40
0
 40
0
 40
0
 40
1
 40
1
 40
1
 40
1
 10
53.240590
 20
340.274670
 30
0.0
 10
53.196890
 20
341.244990
 30
0.0
 10
53.373491
 20
341.735010
 30
0.0
 10
53.541990
 20
341.973160
 30
0.0
  0
SPLINE
  5
146
100
AcDbEntity
  8
Ebene_1
 62
7
100
AcDbSpline
 70
8
 71
3
 72
8
 73
4
 74
0
 40
0
 40
0
 40
0
 40
0
 40
1
 40
1
 40
1
 40
1
 10
53.541990
 20
341.973160
 30
0.0
 10
53.710490
 20
342.211300
 30
0.0
 10
53.945869
 20
342.417230
 30
0.0
 10
54.751570
 20
342.569490
 30
0.0
  0
SPLINE
  5
147
100
AcDbEntity
  8
Ebene_1
 62
7
100
AcDbSpline
 70
8
 71
3
 72
8
 73
4
 74
0
 40
0
 40
0
 40
0
 40
0
 40
1
 40
1
 40
1
 40
1
 10
54.751570
 20
342.569490
 30
0.0
 10
59.404469
 20
343.448830
 30
0.0
 10
63.919200
 20
344.518230
 30
0.0
 10
68.326521
 20
344.821530
 30
0.0
  0
SPLINE
  5
148
100
AcDbEntity
  8
Ebene_1
 62
7
100
AcDbSpline
 70
8
 71
3
 72
8
 73
4
 74
0
 40
0
 40
0
 40
0
 40
0
 40
1
 40
1
 40
1
 40
1
 10
68.326521
 20
344.821530
 30
0.0
 10
72.668270
 20
345.120320
 30
0.0
 10
76.994901
 20
345.337590
 30
0.0
 10
81.296179
 20
345.357190
 30
0.0
  0
LWPOLYLINE
  5
149
100
AcDbEntity
  8
Ebene_1
 62
7
100
AcDbPolyline
 90
3
 70
0
 10
59.050861
 20
314.001620
 30
0.0
 10
59.050861
 20
314.040420
 30
0.0
 10
59.048761
 20
314.079220
 30
0.0
  0
SPLINE
  5
14a
100
AcDbEntity
  8
Ebene_1
 62
7
100
AcDbSpline
 70
8
 71
3
 72
8
 73
4
 74
0
 40
0
 40
0
 40
0
 40
0
 40
1
 40
1
 40
1
 40
1
 10
80.159777
 20
324.810070
 30
0.0
 10
76.759979
 20
324.809526
 30
0.0
 10
73.360211
 20
324.795799
 30
0.0
 10
69.960587
 20
324.773969
 30
0.0
  0
SPLINE
  5
14b
100
AcDbEntity
  8
Ebene_1
 62
7
100
AcDbSpline
 70
8
 71
3
 72
8
 73
4
 74
0
 40
0
 40
0
 40
0
 40
0
 40
1
 40
1
 40
1
 40
1
 10
69.960587
 20
324.773969
 30
0.0
 10
64.604288
 20
324.739521
 30
0.0
 10
62.321825
 20
322.587288
 30
0.0
 10
62.299647
 20
317.537749
 30
0.0
  0
SPLINE
  5
14c
100
AcDbEntity
  8
Ebene_1
 62
7
100
AcDbSpline
 70
8
 71
3
 72
8
 73
4
 74
0
 40
0
 40
0
 40
0
 40
0
 40
1
 40
1
 40
1
 40
1
 10
62.299647
 20
317.537749
 30
0.0
 10
62.260594
 20
308.724795
 30
0.0
 10
62.288856
 20
299.911968
 30
0.0
 10
62.291166
 20
291.099286
 30
0.0
  0
SPLINE
  5
14d
100
AcDbEntity
  8
Ebene_1
 62
7
100
AcDbSpline
 70
8
 71
3
 72
8
 73
4
 74
0
 40
0
 40
0
 40
0
 40
0
 40
1
 40
1
 40
1
 40
1
 10
62.291166
 20
291.099286
 30
0.0
 10
62.291166
 20
282.534560
 30
0.0
 10
62.291188
 20
273.970378
 30
0.0
 10
62.291710
 20
265.405652
 30
0.0
  0
SPLINE
  5
14e
100
AcDbEntity
  8
Ebene_1
 62
7
100
AcDbSpline
 70
8
 71
3
 72
8
 73
4
 74
0
 40
0
 40
0
 40
0
 40
0
 40
1
 40
1
 40
1
 40
1
 10
62.291710
 20
265.405652
 30
0.0
 10
62.291710
 20
265.157424
 30
0.0
 10
62.293069
 20
264.908244
 30
0.0
 10
62.302338
 20
264.660260
 30
0.0
  0
SPLINE
  5
14f
100
AcDbEntity
  8
Ebene_1
 62
7
100
AcDbSpline
 70
8
 71
3
 72
8
 73
4
 74
0
 40
0
 40
0
 40
0
 40
0
 40
1
 40
1
 40
1
 40
1
 10
62.302338
 20
264.660260
 30
0.0
 10
62.644723
 20
255.403419
 30
0.0
 10
70.408184
 20
248.210610
 30
0.0
 10
80.032398
 20
248.231975
 30
0.0
  0
SPLINE
  5
150
100
AcDbEntity
  8
Ebene_1
 62
7
100
AcDbSpline
 70
8
 71
3
 72
8
 73
4
 74
0
 40
0
 40
0
 40
0
 40
0
 40
1
 40
1
 40
1
 40
1
 10
80.032398
 20
248.231975
 30
0.0
 10
89.697055
 20
248.253449
 30
0.0
 10
97.556624
 20
255.430329
 30
0.0
 10
97.629203
 20
264.720795
 30
0.0
  0
SPLINE
  5
151
100
AcDbEntity
  8
Ebene_1
 62
7
100
AcDbSpline
 70
8
 71
3
 72
8
 73
4
 74
0
 40
0
 40
0
 40
0
 40
0
 40
1
 40
1
 40
1
 40
1
 10
97.629203
 20
264.720795
 30
0.0
 10
97.768262
 20
282.469785
 30
0.0
 10
97.706971
 20
300.220134
 30
0.0
 10
97.662651
 20
317.969907
 30
0.0
  0
SPLINE
  5
152
100
AcDbEntity
  8
Ebene_1
 62
7
100
AcDbSpline
 70
8
 71
3
 72
8
 73
4
 74
0
 40
0
 40
0
 40
0
 40
0
 40
1
 40
1
 40
1
 40
1
 10
97.662651
 20
317.969907
 30
0.0
 10
97.651289
 20
322.558741
 30
0.0
 10
95.276240
 20
324.724739
 30
0.0
 10
90.359008
 20
324.768127
 30
0.0
  0
SPLINE
  5
153
100
AcDbEntity
  8
Ebene_1
 62
7
100
AcDbSpline
 70
8
 71
3
 72
8
 73
4
 74
0
 40
0
 40
0
 40
0
 40
0
 40
1
 40
1
 40
1
 40
1
 10
90.359008
 20
324.768127
 30
0.0
 10
86.959523
 20
324.798115
 30
0.0
 10
83.559611
 20
324.810605
 30
0.0
 10
80.159815
 20
324.810070
 30
0.0
  0
LWPOLYLINE
  5
154
100
AcDbEntity
  8
Ebene_1
 62
7
100
AcDbPolyline
 90
2
 70
0
 10
81.296179
 20
345.357190
 30
0.0
 10
81.296082
 20
345.357330
 30
0.0
  0
SPLINE
  5
155
100
AcDbEntity
  8
Ebene_1
 62
7
100
AcDbSpline
 70
8
 71
3
 72
8
 73
4
 74
0
 40
0
 40
0
 40
0
 40
0
 40
1
 40
1
 40
1
 40
1
 10
70.945414
 20
320.587793
 30
0.0
 10
76.954612
 20
320.462214
 30
0.0
 10
82.970302
 20
320.463733
 30
0.0
 10
88.979682
 20
320.587249
 30
0.0
  0
SPLINE
  5
156
100
AcDbEntity
  8
Ebene_1
 62
7
100
AcDbSpline
 70
8
 71
3
 72
8
 73
4
 74
0
 40
0
 40
0
 40
0
 40
0
 40
1
 40
1
 40
1
 40
1
 10
88.979682
 20
320.587249
 30
0.0
 10
90.620948
 20
320.620974
 30
0.0
 10
91.684758
 20
320.270299
 30
0.0
 10
92.341365
 20
319.544557
 30
0.0
  0
SPLINE
  5
157
100
AcDbEntity
  8
Ebene_1
 62
7
100
AcDbSpline
 70
8
 71
3
 72
8
 73
4
 74
0
 40
0
 40
0
 40
0
 40
0
 40
1
 40
1
 40
1
 40
1
 10
92.341365
 20
319.544557
 30
0.0
 10
92.997966
 20
318.818814
 30
0.0
 10
93.265948
 20
317.689271
 30
0.0
 10
93.246024
 20
316.122349
 30
0.0
  0
SPLINE
  5
158
100
AcDbEntity
  8
Ebene_1
 62
7
100
AcDbSpline
 70
8
 71
3
 72
8
 73
4
 74
0
 40
0
 40
0
 40
0
 40
0
 40
1
 40
1
 40
1
 40
1
 10
93.246024
 20
316.122349
 30
0.0
 10
93.139303
 20
307.707757
 30
0.0
 10
93.209901
 20
299.291778
 30
0.0
 10
93.209393
 20
290.878430
 30
0.0
  0
SPLINE
  5
159
100
AcDbEntity
  8
Ebene_1
 62
7
100
AcDbSpline
 70
8
 71
3
 72
8
 73
4
 74
0
 40
0
 40
0
 40
0
 40
0
 40
1
 40
1
 40
1
 40
1
 10
93.209393
 20
290.878430
 30
0.0
 10
93.208849
 20
282.704286
 30
0.0
 10
93.251387
 20
274.531067
 30
0.0
 10
93.196644
 20
266.358635
 30
0.0
  0
SPLINE
  5
15a
100
AcDbEntity
  8
Ebene_1
 62
7
100
AcDbSpline
 70
8
 71
3
 72
8
 73
4
 74
0
 40
0
 40
0
 40
0
 40
0
 40
1
 40
1
 40
1
 40
1
 10
93.196644
 20
266.358635
 30
0.0
 10
93.143060
 20
258.355142
 30
0.0
 10
87.494030
 20
252.494400
 30
0.0
 10
79.963869
 20
252.495677
 30
0.0
  0
SPLINE
  5
15b
100
AcDbEntity
  8
Ebene_1
 62
7
100
AcDbSpline
 70
8
 71
3
 72
8
 73
4
 74
0
 40
0
 40
0
 40
0
 40
0
 40
1
 40
1
 40
1
 40
1
 10
79.963869
 20
252.495677
 30
0.0
 10
72.430844
 20
252.495677
 30
0.0
 10
66.762057
 20
258.356066
 30
0.0
 10
66.739058
 20
266.357575
 30
0.0
  0
SPLINE
  5
15c
100
AcDbEntity
  8
Ebene_1
 62
7
100
AcDbSpline
 70
8
 71
3
 72
8
 73
4
 74
0
 40
0
 40
0
 40
0
 40
0
 40
1
 40
1
 40
1
 40
1
 10
66.739058
 20
266.357575
 30
0.0
 10
66.691693
 20
282.944713
 30
0.0
 10
66.765996
 20
299.532477
 30
0.0
 10
66.687559
 20
316.120757
 30
0.0
  0
SPLINE
  5
15d
100
AcDbEntity
  8
Ebene_1
 62
7
100
AcDbSpline
 70
8
 71
3
 72
8
 73
4
 74
0
 40
0
 40
0
 40
0
 40
0
 40
1
 40
1
 40
1
 40
1
 10
66.687559
 20
316.120757
 30
0.0
 10
66.680138
 20
317.686950
 30
0.0
 10
66.945143
 20
318.818265
 30
0.0
 10
67.595936
 20
319.544557
 30
0.0
  0
SPLINE
  5
15e
100
AcDbEntity
  8
Ebene_1
 62
7
100
AcDbSpline
 70
8
 71
3
 72
8
 73
4
 74
0
 40
0
 40
0
 40
0
 40
0
 40
1
 40
1
 40
1
 40
1
 10
67.595936
 20
319.544557
 30
0.0
 10
68.246728
 20
320.270848
 30
0.0
 10
69.301235
 20
320.622132
 30
0.0
 10
70.945409
 20
320.587782
 30
0.0
  0
LWPOLYLINE
  5
15f
100
AcDbEntity
  8
Ebene_1
 62
7
100
AcDbPolyline
 90
1
 70
1
 10
80.159815
 20
324.810070
 30
0.0
  0
SPLINE
  5
160
100
AcDbEntity
  8
Ebene_1
 62
7
100
AcDbSpline
 70
8
 71
3
 72
8
 73
4
 74
0
 40
0
 40
0
 40
0
 40
0
 40
1
 40
1
 40
1
 40
1
 10
73.224134
 20
263.019480
 30
0.0
 10
74.251493
 20
263.019480
 30
0.0
 10
74.251493
 20
263.019480
 30
0.0
 10
75.278855
 20
263.019480
 30
0.0
  0
SPLINE
  5
161
100
AcDbEntity
  8
Ebene_1
 62
7
100
AcDbSpline
 70
8
 71
3
 72
8
 73
4
 74
0
 40
0
 40
0
 40
0
 40
0
 40
1
 40
1
 40
1
 40
1
 10
75.278855
 20
263.019480
 30
0.0
 10
80.274540
 20
274.213807
 30
0.0
 10
84.610467
 20
285.887849
 30
0.0
 10
89.865129
 20
297.661754
 30
0.0
  0
SPLINE
  5
162
100
AcDbEntity
  8
Ebene_1
 62
7
100
AcDbSpline
 70
8
 71
3
 72
8
 73
4
 74
0
 40
0
 40
0
 40
0
 40
0
 40
1
 40
1
 40
1
 40
1
 10
89.865129
 20
297.661754
 30
0.0
 10
87.565402
 20
296.962490
 30
0.0
 10
85.948897
 20
296.470765
 30
0.0
 10
83.962897
 20
295.866740
 30
0.0
  0
SPLINE
  5
163
100
AcDbEntity
  8
Ebene_1
 62
7
100
AcDbSpline
 70
8
 71
3
 72
8
 73
4
 74
0
 40
0
 40
0
 40
0
 40
0
 40
1
 40
1
 40
1
 40
1
 10
83.962897
 20
295.866740
 30
0.0
 10
84.998296
 20
302.245672
 30
0.0
 10
86.652517
 20
308.505437
 30
0.0
 10
87.607193
 20
314.387551
 30
0.0
  0
SPLINE
  5
164
100
AcDbEntity
  8
Ebene_1
 62
7
100
AcDbSpline
 70
8
 71
3
 72
8
 73
4
 74
0
 40
0
 40
0
 40
0
 40
0
 40
1
 40
1
 40
1
 40
1
 10
87.607193
 20
314.387551
 30
0.0
 10
86.579831
 20
314.387551
 30
0.0
 10
86.579831
 20
314.387551
 30
0.0
 10
85.552469
 20
314.387551
 30
0.0
  0
SPLINE
  5
165
100
AcDbEntity
  8
Ebene_1
 62
7
100
AcDbSpline
 70
8
 71
3
 72
8
 73
4
 74
0
 40
0
 40
0
 40
0
 40
0
 40
1
 40
1
 40
1
 40
1
 10
85.552469
 20
314.387551
 30
0.0
 10
80.760248
 20
304.779173
 30
0.0
 10
76.575559
 20
294.970888
 30
0.0
 10
71.504244
 20
284.802794
 30
0.0
  0
SPLINE
  5
166
100
AcDbEntity
  8
Ebene_1
 62
7
100
AcDbSpline
 70
8
 71
3
 72
8
 73
4
 74
0
 40
0
 40
0
 40
0
 40
0
 40
1
 40
1
 40
1
 40
1
 10
71.504244
 20
284.802794
 30
0.0
 10
74.130174
 20
285.333225
 30
0.0
 10
76.136036
 20
285.738370
 30
0.0
 10
78.545006
 20
286.225003
 30
0.0
  0
SPLINE
  5
167
100
AcDbEntity
  8
Ebene_1
 62
7
100
AcDbSpline
 70
8
 71
3
 72
8
 73
4
 74
0
 40
0
 40
0
 40
0
 40
0
 40
1
 40
1
 40
1
 40
1
 10
78.545006
 20
286.225003
 30
0.0
 10
76.917551
 20
278.330915
 30
0.0
 10
74.722737
 20
270.289172
 30
0.0
 10
73.224134
 20
263.019480
 30
0.0
  0
LWPOLYLINE
  5
168
100
AcDbEntity
  8
Ebene_1
 62
7
100
AcDbPolyline
 90
1
 70
1
 10
70.945409
 20
320.587782
 30
0.0
  0
SPLINE
  5
169
100
AcDbEntity
  8
Ebene_1
 62
7
100
AcDbSpline
 70
8
 71
3
 72
8
 73
4
 74
0
 40
0
 40
0
 40
0
 40
0
 40
1
 40
1
 40
1
 40
1
 10
39.658871
 20
214.942146
 30
0.0
 10
39.353546
 20
220.120159
 30
0.0
 10
39.631481
 20
220.415550
 30
0.0
 10
44.758791
 20
220.416824
 30
0.0
  0
SPLINE
  5
16a
100
AcDbEntity
  8
Ebene_1
 62
7
100
AcDbSpline
 70
8
 71
3
 72
8
 73
4
 74
0
 40
0
 40
0
 40
0
 40
0
 40
1
 40
1
 40
1
 40
1
 10
44.758791
 20
220.416824
 30
0.0
 10
67.935130
 20
220.422171
 30
0.0
 10
91.111467
 20
220.422681
 30
0.0
 10
114.287804
 20
220.416569
 30
0.0
  0
SPLINE
  5
16b
100
AcDbEntity
  8
Ebene_1
 62
7
100
AcDbSpline
 70
8
 71
3
 72
8
 73
4
 74
0
 40
0
 40
0
 40
0
 40
0
 40
1
 40
1
 40
1
 40
1
 10
114.287804
 20
220.416569
 30
0.0
 10
119.398842
 20
220.415296
 30
0.0
 10
119.605461
 20
220.180510
 30
0.0
 10
119.244281
 20
214.942401
 30
0.0
  0
SPLINE
  5
16c
100
AcDbEntity
  8
Ebene_1
 62
7
100
AcDbSpline
 70
8
 71
3
 72
8
 73
4
 74
0
 40
0
 40
0
 40
0
 40
0
 40
1
 40
1
 40
1
 40
1
 10
119.244281
 20
214.942401
 30
0.0
 10
92.815691
 20
214.942146
 30
0.0
 10
66.371365
 20
214.942146
 30
0.0
 10
39.658871
 20
214.942146
 30
0.0
  0
LWPOLYLINE
  5
16d
100
AcDbEntity
  8
Ebene_1
 62
7
100
AcDbPolyline
 90
1
 70
1
 10
73.224134
 20
263.019480
 30
0.0
  0
LWPOLYLINE
  5
16e
100
AcDbEntity
  8
Ebene_1
 62
7
100
AcDbPolyline
 90
1
 70
1
 10
39.658871
 20
214.942146
 30
0.0
  0
SPLINE
  5
16f
100
AcDbEntity
  8
Ebene_1
 62
7
100
AcDbSpline
 70
8
 71
3
 72
8
 73
4
 74
0
 40
0
 40
0
 40
0
 40
0
 40
1
 40
1
 40
1
 40
1
 10
92.744182
 20
335.962190
 30
0.0
 10
93.882500
 20
335.962190
 30
0.0
 10
94.798908
 20
335.045780
 30
0.0
 10
94.798908
 20
333.907460
 30
0.0
  0
LWPOLYLINE
  5
170
100
AcDbEntity
  8
Ebene_1
 62
7
100
AcDbPolyline
 90
2
 70
0
 10
66.032741
 20
335.962190
 30
0.0
 10
92.744182
 20
335.962190
 30
0.0
  0
SPLINE
  5
171
100
AcDbEntity
  8
Ebene_1
 62
7
100
AcDbSpline
 70
8
 71
3
 72
8
 73
4
 74
0
 40
0
 40
0
 40
0
 40
0
 40
1
 40
1
 40
1
 40
1
 10
94.798908
 20
332.880100
 30
0.0
 10
94.798908
 20
331.741780
 30
0.0
 10
93.882500
 20
330.825370
 30
0.0
 10
92.744182
 20
330.825370
 30
0.0
  0
LWPOLYLINE
  5
172
100
AcDbEntity
  8
Ebene_1
 62
7
100
AcDbPolyline
 90
2
 70
0
 10
94.798908
 20
333.907460
 30
0.0
 10
94.798908
 20
332.880100
 30
0.0
  0
SPLINE
  5
173
100
AcDbEntity
  8
Ebene_1
 62
7
100
AcDbSpline
 70
8
 71
3
 72
8
 73
4
 74
0
 40
0
 40
0
 40
0
 40
0
 40
1
 40
1
 40
1
 40
1
 10
66.032741
 20
330.825370
 30
0.0
 10
64.894423
 20
330.825370
 30
0.0
 10
63.978016
 20
331.741780
 30
0.0
 10
63.978016
 20
332.880100
 30
0.0
  0
LWPOLYLINE
  5
174
100
AcDbEntity
  8
Ebene_1
 62
7
100
AcDbPolyline
 90
2
 70
0
 10
92.744182
 20
330.825370
 30
0.0
 10
66.032741
 20
330.825370
 30
0.0
  0
SPLINE
  5
175
100
AcDbEntity
  8
Ebene_1
 62
7
100
AcDbSpline
 70
8
 71
3
 72
8
 73
4
 74
0
 40
0
 40
0
 40
0
 40
0
 40
1
 40
1
 40
1
 40
1
 10
63.978016
 20
333.907460
 30
0.0
 10
63.978016
 20
335.045780
 30
0.0
 10
64.894423
 20
335.962190
 30
0.0
 10
66.032741
 20
335.962190
 30
0.0
  0
LWPOLYLINE
  5
176
100
AcDbEntity
  8
Ebene_1
 62
7
100
AcDbPolyline
 90
2
 70
0
 10
63.978016
 20
332.880100
 30
0.0
 10
63.978016
 20
333.907460
 30
0.0
  0
SPLINE
  5
177
100
AcDbEntity
  8
Ebene_1
 62
7
100
AcDbSpline
 70
8
 71
3
 72
8
 73
4
 74
0
 40
0
 40
0
 40
0
 40
0
 40
1
 40
1
 40
1
 40
1
 10
29.658998
 20
352.442000
 30
0.0
 10
29.658998
 20
351.778959
 30
0.0
 10
29.395606
 20
351.143074
 30
0.0
 10
28.926765
 20
350.674233
 30
0.0
  0
SPLINE
  5
178
100
AcDbEntity
  8
Ebene_1
 62
7
100
AcDbSpline
 70
8
 71
3
 72
8
 73
4
 74
0
 40
0
 40
0
 40
0
 40
0
 40
1
 40
1
 40
1
 40
1
 10
28.926765
 20
350.674233
 30
0.0
 10
28.457924
 20
350.205392
 30
0.0
 10
27.822039
 20
349.942000
 30
0.0
 10
27.158998
 20
349.942000
 30
0.0
  0
SPLINE
  5
179
100
AcDbEntity
  8
Ebene_1
 62
7
100
AcDbSpline
 70
8
 71
3
 72
8
 73
4
 74
0
 40
0
 40
0
 40
0
 40
0
 40
1
 40
1
 40
1
 40
1
 10
27.158998
 20
349.942000
 30
0.0
 10
26.495957
 20
349.942000
 30
0.0
 10
25.860072
 20
350.205392
 30
0.0
 10
25.391231
 20
350.674233
 30
0.0
  0
SPLINE
  5
17a
100
AcDbEntity
  8
Ebene_1
 62
7
100
AcDbSpline
 70
8
 71
3
 72
8
 73
4
 74
0
 40
0
 40
0
 40
0
 40
0
 40
1
 40
1
 40
1
 40
1
 10
25.391231
 20
350.674233
 30
0.0
 10
24.922390
 20
351.143074
 30
0.0
 10
24.658998
 20
351.778959
 30
0.0
 10
24.658998
 20
352.442000
 30
0.0
  0
SPLINE
  5
17b
100
AcDbEntity
  8
Ebene_1
 62
7
100
AcDbSpline
 70
8
 71
3
 72
8
 73
4
 74
0
 40
0
 40
0
 40
0
 40
0
 40
1
 40
1
 40
1
 40
1
 10
24.658998
 20
352.442000
 30
0.0
 10
24.658998
 20
353.822712
 30
0.0
 10
25.778286
 20
354.942000
 30
0.0
 10
27.158998
 20
354.942000
 30
0.0
  0
SPLINE
  5
17c
100
AcDbEntity
  8
Ebene_1
 62
7
100
AcDbSpline
 70
8
 71
3
 72
8
 73
4
 74
0
 40
0
 40
0
 40
0
 40
0
 40
1
 40
1
 40
1
 40
1
 10
27.158998
 20
354.942000
 30
0.0
 10
27.822039
 20
354.942000
 30
0.0
 10
28.457924
 20
354.678608
 30
0.0
 10
28.926765
 20
354.209767
 30
0.0
  0
SPLINE
  5
17d
100
AcDbEntity
  8
Ebene_1
 62
7
100
AcDbSpline
 70
8
 71
3
 72
8
 73
4
 74
0
 40
0
 40
0
 40
0
 40
0
 40
1
 40
1
 40
1
 40
1
 10
28.926765
 20
354.209767
 30
0.0
 10
29.395606
 20
353.740926
 30
0.0
 10
29.658998
 20
353.105041
 30
0.0
 10
29.658998
 20
352.442000
 30
0.0
  0
SPLINE
  5
17e
100
AcDbEntity
  8
Ebene_1
 62
7
100
AcDbSpline
 70
8
 71
3
 72
8
 73
4
 74
0
 40
0
 40
0
 40
0
 40
0
 40
1
 40
1
 40
1
 40
1
 10
29.658998
 20
212.441996
 30
0.0
 10
29.658998
 20
211.778955
 30
0.0
 10
29.395606
 20
211.143070
 30
0.0
 10
28.926765
 20
210.674229
 30
0.0
  0
SPLINE
  5
17f
100
AcDbEntity
  8
Ebene_1
 62
7
100
AcDbSpline
 70
8
 71
3
 72
8
 73
4
 74
0
 40
0
 40
0
 40
0
 40
0
 40
1
 40
1
 40
1
 40
1
 10
28.926765
 20
210.674229
 30
0.0
 10
28.457924
 20
210.205388
 30
0.0
 10
27.822039
 20
209.941996
 30
0.0
 10
27.158998
 20
209.941996
 30
0.0
  0
SPLINE
  5
180
100
AcDbEntity
  8
Ebene_1
 62
7
100
AcDbSpline
 70
8
 71
3
 72
8
 73
4
 74
0
 40
0
 40
0
 40
0
 40
0
 40
1
 40
1
 40
1
 40
1
 10
27.158998
 20
209.941996
 30
0.0
 10
26.495957
 20
209.941996
 30
0.0
 10
25.860072
 20
210.205388
 30
0.0
 10
25.391231
 20
210.674229
 30
0.0
  0
SPLINE
  5
181
100
AcDbEntity
  8
Ebene_1
 62
7
100
AcDbSpline
 70
8
 71
3
 72
8
 73
4
 74
0
 40
0
 40
0
 40
0
 40
0
 40
1
 40
1
 40
1
 40
1
 10
25.391231
 20
210.674229
 30
0.0
 10
24.922390
 20
211.143070
 30
0.0
 10
24.658998
 20
211.778955
 30
0.0
 10
24.658998
 20
212.441996
 30
0.0
  0
SPLINE
  5
182
100
AcDbEntity
  8
Ebene_1
 62
7
100
AcDbSpline
 70
8
 71
3
 72
8
 73
4
 74
0
 40
0
 40
0
 40
0
 40
0
 40
1
 40
1
 40
1
 40
1
 10
24.658998
 20
212.441996
 30
0.0
 10
24.658998
 20
213.822708
 30
0.0
 10
25.778286
 20
214.941996
 30
0.0
 10
27.158998
 20
214.941996
 30
0.0
  0
SPLINE
  5
183
100
AcDbEntity
  8
Ebene_1
 62
7
100
AcDbSpline
 70
8
 71
3
 72
8
 73
4
 74
0
 40
0
 40
0
 40
0
 40
0
 40
1
 40
1
 40
1
 40
1
 10
27.158998
 20
214.941996
 30
0.0
 10
27.822039
 20
214.941996
 30
0.0
 10
28.457924
 20
214.678604
 30
0.0
 10
28.926765
 20
214.209763
 30
0.0
  0
SPLINE
  5
184
100
AcDbEntity
  8
Ebene_1
 62
7
100
AcDbSpline
 70
8
 71
3
 72
8
 73
4
 74
0
 40
0
 40
0
 40
0
 40
0
 40
1
 40
1
 40
1
 40
1
 10
28.926765
 20
214.209763
 30
0.0
 10
29.395606
 20
213.740922
 30
0.0
 10
29.658998
 20
213.105037
 30
0.0
 10
29.658998
 20
212.441996
 30
0.0
  0
SPLINE
  5
185
100
AcDbEntity
  8
Ebene_1
 62
7
100
AcDbSpline
 70
8
 71
3
 72
8
 73
4
 74
0
 40
0
 40
0
 40
0
 40
0
 40
1
 40
1
 40
1
 40
1
 10
274.659002
 20
212.441996
 30
0.0
 10
274.659002
 20
211.778955
 30
0.0
 10
274.395610
 20
211.143070
 30
0.0
 10
273.926769
 20
210.674229
 30
0.0
  0
SPLINE
  5
186
100
AcDbEntity
  8
Ebene_1
 62
7
100
AcDbSpline
 70
8
 71
3
 72
8
 73
4
 74
0
 40
0
 40
0
 40
0
 40
0
 40
1
 40
1
 40
1
 40
1
 10
273.926769
 20
210.674229
 30
0.0
 10
273.457928
 20
210.205388
 30
0.0
 10
272.822043
 20
209.941996
 30
0.0
 10
272.159002
 20
209.941996
 30
0.0
  0
SPLINE
  5
187
100
AcDbEntity
  8
Ebene_1
 62
7
100
AcDbSpline
 70
8
 71
3
 72
8
 73
4
 74
0
 40
0
 40
0
 40
0
 40
0
 40
1
 40
1
 40
1
 40
1
 10
272.159002
 20
209.941996
 30
0.0
 10
271.495961
 20
209.941996
 30
0.0
 10
270.860076
 20
210.205388
 30
0.0
 10
270.391235
 20
210.674229
 30
0.0
  0
SPLINE
  5
188
100
AcDbEntity
  8
Ebene_1
 62
7
100
AcDbSpline
 70
8
 71
3
 72
8
 73
4
 74
0
 40
0
 40
0
 40
0
 40
0
 40
1
 40
1
 40
1
 40
1
 10
270.391235
 20
210.674229
 30
0.0
 10
269.922394
 20
211.143070
 30
0.0
 10
269.659002
 20
211.778955
 30
0.0
 10
269.659002
 20
212.441996
 30
0.0
  0
SPLINE
  5
189
100
AcDbEntity
  8
Ebene_1
 62
7
100
AcDbSpline
 70
8
 71
3
 72
8
 73
4
 74
0
 40
0
 40
0
 40
0
 40
0
 40
1
 40
1
 40
1
 40
1
 10
269.659002
 20
212.441996
 30
0.0
 10
269.659002
 20
213.105037
 30
0.0
 10
269.922394
 20
213.740922
 30
0.0
 10
270.391235
 20
214.209763
 30
0.0
  0
SPLINE
  5
18a
100
AcDbEntity
  8
Ebene_1
 62
7
100
AcDbSpline
 70
8
 71
3
 72
8
 73
4
 74
0
 40
0
 40
0
 40
0
 40
0
 40
1
 40
1
 40
1
 40
1
 10
270.391235
 20
214.209763
 30
0.0
 10
270.860076
 20
214.678604
 30
0.0
 10
271.495961
 20
214.941996
 30
0.0
 10
272.159002
 20
214.941996
 30
0.0
  0
SPLINE
  5
18b
100
AcDbEntity
  8
Ebene_1
 62
7
100
AcDbSpline
 70
8
 71
3
 72
8
 73
4
 74
0
 40
0
 40
0
 40
0
 40
0
 40
1
 40
1
 40
1
 40
1
 10
272.159002
 20
214.941996
 30
0.0
 10
272.822043
 20
214.941996
 30
0.0
 10
273.457928
 20
214.678604
 30
0.0
 10
273.926769
 20
214.209763
 30
0.0
  0
SPLINE
  5
18c
100
AcDbEntity
  8
Ebene_1
 62
7
100
AcDbSpline
 70
8
 71
3
 72
8
 73
4
 74
0
 40
0
 40
0
 40
0
 40
0
 40
1
 40
1
 40
1
 40
1
 10
273.926769
 20
214.209763
 30
0.0
 10
274.395610
 20
213.740922
 30
0.0
 10
274.659002
 20
213.105037
 30
0.0
 10
274.659002
 20
212.441996
 30
0.0
  0
SPLINE
  5
18d
100
AcDbEntity
  8
Ebene_1
 62
7
100
AcDbSpline
 70
8
 71
3
 72
8
 73
4
 74
0
 40
0
 40
0
 40
0
 40
0
 40
1
 40
1
 40
1
 40
1
 10
274.659002
 20
352.442000
 30
0.0
 10
274.659002
 20
351.778959
 30
0.0
 10
274.395610
 20
351.143074
 30
0.0
 10
273.926769
 20
350.674233
 30
0.0
  0
SPLINE
  5
18e
100
AcDbEntity
  8
Ebene_1
 62
7
100
AcDbSpline
 70
8
 71
3
 72
8
 73
4
 74
0
 40
0
 40
0
 40
0
 40
0
 40
1
 40
1
 40
1
 40
1
 10
273.926769
 20
350.674233
 30
0.0
 10
273.457928
 20
350.205392
 30
0.0
 10
272.822043
 20
349.942000
 30
0.0
 10
272.159002
 20
349.942000
 30
0.0
  0
SPLINE
  5
18f
100
AcDbEntity
  8
Ebene_1
 62
7
100
AcDbSpline
 70
8
 71
3
 72
8
 73
4
 74
0
 40
0
 40
0
 40
0
 40
0
 40
1
 40
1
 40
1
 40
1
 10
272.159002
 20
349.942000
 30
0.0
 10
271.495961
 20
349.942000
 30
0.0
 10
270.860076
 20
350.205392
 30
0.0
 10
270.391235
 20
350.674233
 30
0.0
  0
SPLINE
  5
190
100
AcDbEntity
  8
Ebene_1
 62
7
100
AcDbSpline
 70
8
 71
3
 72
8
 73
4
 74
0
 40
0
 40
0
 40
0
 40
0
 40
1
 40
1
 40
1
 40
1
 10
270.391235
 20
350.674233
 30
0.0
 10
269.922394
 20
351.143074
 30
0.0
 10
269.659002
 20
351.778959
 30
0.0
 10
269.659002
 20
352.442000
 30
0.0
  0
SPLINE
  5
191
100
AcDbEntity
  8
Ebene_1
 62
7
100
AcDbSpline
 70
8
 71
3
 72
8
 73
4
 74
0
 40
0
 40
0
 40
0
 40
0
 40
1
 40
1
 40
1
 40
1
 10
269.659002
 20
352.442000
 30
0.0
 10
269.659002
 20
353.105041
 30
0.0
 10
269.922394
 20
353.740926
 30
0.0
 10
270.391235
 20
354.209767
 30
0.0
  0
SPLINE
  5
192
100
AcDbEntity
  8
Ebene_1
 62
7
100
AcDbSpline
 70
8
 71
3
 72
8
 73
4
 74
0
 40
0
 40
0
 40
0
 40
0
 40
1
 40
1
 40
1
 40
1
 10
270.391235
 20
354.209767
 30
0.0
 10
270.860076
 20
354.678608
 30
0.0
 10
271.495961
 20
354.942000
 30
0.0
 10
272.159002
 20
354.942000
 30
0.0
  0
SPLINE
  5
193
100
AcDbEntity
  8
Ebene_1
 62
7
100
AcDbSpline
 70
8
 71
3
 72
8
 73
4
 74
0
 40
0
 40
0
 40
0
 40
0
 40
1
 40
1
 40
1
 40
1
 10
272.159002
 20
354.942000
 30
0.0
 10
272.822043
 20
354.942000
 30
0.0
 10
273.457928
 20
354.678608
 30
0.0
 10
273.926769
 20
354.209767
 30
0.0
  0
SPLINE
  5
194
100
AcDbEntity
  8
Ebene_1
 62
7
100
AcDbSpline
 70
8
 71
3
 72
8
 73
4
 74
0
 40
0
 40
0
 40
0
 40
0
 40
1
 40
1
 40
1
 40
1
 10
273.926769
 20
354.209767
 30
0.0
 10
274.395610
 20
353.740926
 30
0.0
 10
274.659002
 20
353.105041
 30
0.0
 10
274.659002
 20
352.442000
 30
0.0
  0
SPLINE
  5
195
100
AcDbEntity
  8
Ebene_1
 62
7
100
AcDbSpline
 70
8
 71
3
 72
8
 73
4
 74
0
 40
0
 40
0
 40
0
 40
0
 40
1
 40
1
 40
1
 40
1
 10
152.355380
 20
352.587850
 30
0.0
 10
152.355380
 20
351.924809
 30
0.0
 10
152.091988
 20
351.288924
 30
0.0
 10
151.623147
 20
350.820083
 30
0.0
  0
SPLINE
  5
196
100
AcDbEntity
  8
Ebene_1
 62
7
100
AcDbSpline
 70
8
 71
3
 72
8
 73
4
 74
0
 40
0
 40
0
 40
0
 40
0
 40
1
 40
1
 40
1
 40
1
 10
151.623147
 20
350.820083
 30
0.0
 10
151.154306
 20
350.351242
 30
0.0
 10
150.518421
 20
350.087850
 30
0.0
 10
149.855380
 20
350.087850
 30
0.0
  0
SPLINE
  5
197
100
AcDbEntity
  8
Ebene_1
 62
7
100
AcDbSpline
 70
8
 71
3
 72
8
 73
4
 74
0
 40
0
 40
0
 40
0
 40
0
 40
1
 40
1
 40
1
 40
1
 10
149.855380
 20
350.087850
 30
0.0
 10
149.192339
 20
350.087850
 30
0.0
 10
148.556454
 20
350.351242
 30
0.0
 10
148.087613
 20
350.820083
 30
0.0
  0
SPLINE
  5
198
100
AcDbEntity
  8
Ebene_1
 62
7
100
AcDbSpline
 70
8
 71
3
 72
8
 73
4
 74
0
 40
0
 40
0
 40
0
 40
0
 40
1
 40
1
 40
1
 40
1
 10
148.087613
 20
350.820083
 30
0.0
 10
147.618772
 20
351.288924
 30
0.0
 10
147.355380
 20
351.924809
 30
0.0
 10
147.355380
 20
352.587850
 30
0.0
  0
SPLINE
  5
199
100
AcDbEntity
  8
Ebene_1
 62
7
100
AcDbSpline
 70
8
 71
3
 72
8
 73
4
 74
0
 40
0
 40
0
 40
0
 40
0
 40
1
 40
1
 40
1
 40
1
 10
147.355380
 20
352.587850
 30
0.0
 10
147.355380
 20
353.250891
 30
0.0
 10
147.618772
 20
353.886776
 30
0.0
 10
148.087613
 20
354.355617
 30
0.0
  0
SPLINE
  5
19a
100
AcDbEntity
  8
Ebene_1
 62
7
100
AcDbSpline
 70
8
 71
3
 72
8
 73
4
 74
0
 40
0
 40
0
 40
0
 40
0
 40
1
 40
1
 40
1
 40
1
 10
148.087613
 20
354.355617
 30
0.0
 10
148.556454
 20
354.824458
 30
0.0
 10
149.192339
 20
355.087850
 30
0.0
 10
149.855380
 20
355.087850
 30
0.0
  0
SPLINE
  5
19b
100
AcDbEntity
  8
Ebene_1
 62
7
100
AcDbSpline
 70
8
 71
3
 72
8
 73
4
 74
0
 40
0
 40
0
 40
0
 40
0
 40
1
 40
1
 40
1
 40
1
 10
149.855380
 20
355.087850
 30
0.0
 10
150.518421
 20
355.087850
 30
0.0
 10
151.154306
 20
354.824458
 30
0.0
 10
151.623147
 20
354.355617
 30
0.0
  0
SPLINE
  5
19c
100
AcDbEntity
  8
Ebene_1
 62
7
100
AcDbSpline
 70
8
 71
3
 72
8
 73
4
 74
0
 40
0
 40
0
 40
0
 40
0
 40
1
 40
1
 40
1
 40
1
 10
151.623147
 20
354.355617
 30
0.0
 10
152.091988
 20
353.886776
 30
0.0
 10
152.355380
 20
353.250891
 30
0.0
 10
152.355380
 20
352.587850
 30
0.0
  0
SPLINE
  5
19d
100
AcDbEntity
  8
Ebene_1
 62
7
100
AcDbSpline
 70
8
 71
3
 72
8
 73
4
 74
0
 40
0
 40
0
 40
0
 40
0
 40
1
 40
1
 40
1
 40
1
 10
152.355380
 20
212.412841
 30
0.0
 10
152.355380
 20
211.749800
 30
0.0
 10
152.091988
 20
211.113915
 30
0.0
 10
151.623147
 20
210.645074
 30
0.0
  0
SPLINE
  5
19e
100
AcDbEntity
  8
Ebene_1
 62
7
100
AcDbSpline
 70
8
 71
3
 72
8
 73
4
 74
0
 40
0
 40
0
 40
0
 40
0
 40
1
 40
1
 40
1
 40
1
 10
151.623147
 20
210.645074
 30
0.0
 10
151.154306
 20
210.176233
 30
0.0
 10
150.518421
 20
209.912841
 30
0.0
 10
149.855380
 20
209.912841
 30
0.0
  0
SPLINE
  5
19f
100
AcDbEntity
  8
Ebene_1
 62
7
100
AcDbSpline
 70
8
 71
3
 72
8
 73
4
 74
0
 40
0
 40
0
 40
0
 40
0
 40
1
 40
1
 40
1
 40
1
 10
149.855380
 20
209.912841
 30
0.0
 10
149.192339
 20
209.912841
 30
0.0
 10
148.556454
 20
210.176233
 30
0.0
 10
148.087613
 20
210.645074
 30
0.0
  0
SPLINE
  5
1a0
100
AcDbEntity
  8
Ebene_1
 62
7
100
AcDbSpline
 70
8
 71
3
 72
8
 73
4
 74
0
 40
0
 40
0
 40
0
 40
0
 40
1
 40
1
 40
1
 40
1
 10
148.087613
 20
210.645074
 30
0.0
 10
147.618772
 20
211.113915
 30
0.0
 10
147.355380
 20
211.749800
 30
0.0
 10
147.355380
 20
212.412841
 30
0.0
  0
SPLINE
  5
1a1
100
AcDbEntity
  8
Ebene_1
 62
7
100
AcDbSpline
 70
8
 71
3
 72
8
 73
4
 74
0
 40
0
 40
0
 40
0
 40
0
 40
1
 40
1
 40
1
 40
1
 10
147.355380
 20
212.412841
 30
0.0
 10
147.355380
 20
213.075882
 30
0.0
 10
147.618772
 20
213.711767
 30
0.0
 10
148.087613
 20
214.180608
 30
0.0
  0
SPLINE
  5
1a2
100
AcDbEntity
  8
Ebene_1
 62
7
100
AcDbSpline
 70
8
 71
3
 72
8
 73
4
 74
0
 40
0
 40
0
 40
0
 40
0
 40
1
 40
1
 40
1
 40
1
 10
148.087613
 20
214.180608
 30
0.0
 10
148.556454
 20
214.649449
 30
0.0
 10
149.192339
 20
214.912841
 30
0.0
 10
149.855380
 20
214.912841
 30
0.0
  0
SPLINE
  5
1a3
100
AcDbEntity
  8
Ebene_1
 62
7
100
AcDbSpline
 70
8
 71
3
 72
8
 73
4
 74
0
 40
0
 40
0
 40
0
 40
0
 40
1
 40
1
 40
1
 40
1
 10
149.855380
 20
214.912841
 30
0.0
 10
150.518421
 20
214.912841
 30
0.0
 10
151.154306
 20
214.649449
 30
0.0
 10
151.623147
 20
214.180608
 30
0.0
  0
SPLINE
  5
1a4
100
AcDbEntity
  8
Ebene_1
 62
7
100
AcDbSpline
 70
8
 71
3
 72
8
 73
4
 74
0
 40
0
 40
0
 40
0
 40
0
 40
1
 40
1
 40
1
 40
1
 10
151.623147
 20
214.180608
 30
0.0
 10
152.091988
 20
213.711767
 30
0.0
 10
152.355380
 20
213.075882
 30
0.0
 10
152.355380
 20
212.412841
 30
0.0
  0
LWPOLYLINE
  5
1a5
100
AcDbEntity
  8
Ebene_1
 62
7
100
AcDbPolyline
 90
1
 70
1
 10
66.032741
 20
335.962190
 30
0.0
  0
SPLINE
  5
1a6
100
AcDbEntity
  8
Ebene_1
 62
7
100
AcDbSpline
 70
8
 71
3
 72
8
 73
4
 74
0
 40
0
 40
0
 40
0
 40
0
 40
1
 40
1
 40
1
 40
1
 10
134.100125
 20
264.183760
 30
0.0
 10
132.470972
 20
264.183760
 30
0.0
 10
130.995508
 20
263.570418
 30
0.0
 10
129.832799
 20
262.413397
 30
0.0
  0
SPLINE
  5
1a7
100
AcDbEntity
  8
Ebene_1
 62
7
100
AcDbSpline
 70
8
 71
3
 72
8
 73
4
 74
0
 40
0
 40
0
 40
0
 40
0
 40
1
 40
1
 40
1
 40
1
 10
129.832799
 20
262.413397
 30
0.0
 10
128.693949
 20
261.280109
 30
0.0
 10
128.093818
 20
259.825167
 30
0.0
 10
128.093818
 20
258.208783
 30
0.0
  0
LWPOLYLINE
  5
1a8
100
AcDbEntity
  8
Ebene_1
 62
7
100
AcDbPolyline
 90
5
 70
0
 10
128.093818
 20
285.025401
 30
0.0
 10
128.093818
 20
267.864041
 30
0.0
 10
154.272731
 20
267.864041
 30
0.0
 10
154.272731
 20
264.183760
 30
0.0
 10
134.100125
 20
264.183760
 30
0.0
  0
SPLINE
  5
1a9
100
AcDbEntity
  8
Ebene_1
 62
7
100
AcDbSpline
 70
8
 71
3
 72
8
 73
4
 74
0
 40
0
 40
0
 40
0
 40
0
 40
1
 40
1
 40
1
 40
1
 10
155.042051
 20
278.282869
 30
0.0
 10
156.642545
 20
278.282869
 30
0.0
 10
158.099380
 20
278.881567
 30
0.0
 10
159.261289
 20
280.007378
 30
0.0
  0
SPLINE
  5
1aa
100
AcDbEntity
  8
Ebene_1
 62
7
100
AcDbSpline
 70
8
 71
3
 72
8
 73
4
 74
0
 40
0
 40
0
 40
0
 40
0
 40
1
 40
1
 40
1
 40
1
 10
159.261289
 20
280.007378
 30
0.0
 10
160.431569
 20
281.141290
 30
0.0
 10
161.048358
 20
282.614892
 30
0.0
 10
161.048358
 20
284.259838
 30
0.0
  0
LWPOLYLINE
  5
1ab
100
AcDbEntity
  8
Ebene_1
 62
7
100
AcDbPolyline
 90
8
 70
0
 10
128.093818
 20
258.208783
 30
0.0
 10
128.093818
 20
257.443221
 30
0.0
 10
128.863138
 20
257.443221
 30
0.0
 10
161.048358
 20
257.443221
 30
0.0
 10
161.048358
 20
274.604580
 30
0.0
 10
134.869445
 20
274.604580
 30
0.0
 10
134.869445
 20
278.282869
 30
0.0
 10
155.042051
 20
278.282869
 30
0.0
  0
LWPOLYLINE
  5
1ac
100
AcDbEntity
  8
Ebene_1
 62
7
100
AcDbPolyline
 90
3
 70
0
 10
161.048358
 20
284.259838
 30
0.0
 10
161.048358
 20
285.025401
 30
0.0
 10
128.093818
 20
285.025401
 30
0.0
  0
SPLINE
  5
1ad
100
AcDbEntity
  8
Ebene_1
 62
7
100
AcDbSpline
 70
8
 71
3
 72
8
 73
4
 74
0
 40
0
 40
0
 40
0
 40
0
 40
1
 40
1
 40
1
 40
1
 10
164.744705
 20
263.418197
 30
0.0
 10
164.744705
 20
261.801815
 30
0.0
 10
165.341984
 20
260.338336
 30
0.0
 10
166.475675
 20
259.179692
 30
0.0
  0
LWPOLYLINE
  5
1ae
100
AcDbEntity
  8
Ebene_1
 62
7
100
AcDbPolyline
 90
2
 70
0
 10
164.744705
 20
264.183760
 30
0.0
 10
164.744705
 20
263.418197
 30
0.0
  0
SPLINE
  5
1af
100
AcDbEntity
  8
Ebene_1
 62
7
100
AcDbSpline
 70
8
 71
3
 72
8
 73
4
 74
0
 40
0
 40
0
 40
0
 40
0
 40
1
 40
1
 40
1
 40
1
 10
166.483881
 20
259.173670
 30
0.0
 10
167.625182
 20
258.037945
 30
0.0
 10
169.100933
 20
257.443179
 30
0.0
 10
170.749196
 20
257.443179
 30
0.0
  0
LWPOLYLINE
  5
1b0
100
AcDbEntity
  8
Ebene_1
 62
7
100
AcDbPolyline
 90
3
 70
0
 10
166.475675
 20
259.179692
 30
0.0
 10
166.479778
 20
259.177651
 30
0.0
 10
166.483881
 20
259.173670
 30
0.0
  0
SPLINE
  5
1b1
100
AcDbEntity
  8
Ebene_1
 62
7
100
AcDbSpline
 70
8
 71
3
 72
8
 73
4
 74
0
 40
0
 40
0
 40
0
 40
0
 40
1
 40
1
 40
1
 40
1
 10
191.693133
 20
257.443179
 30
0.0
 10
193.293626
 20
257.443179
 30
0.0
 10
194.748451
 20
258.039884
 30
0.0
 10
195.910371
 20
259.165695
 30
0.0
  0
SPLINE
  5
1b2
100
AcDbEntity
  8
Ebene_1
 62
7
100
AcDbSpline
 70
8
 71
3
 72
8
 73
4
 74
0
 40
0
 40
0
 40
0
 40
0
 40
1
 40
1
 40
1
 40
1
 10
195.910371
 20
259.165695
 30
0.0
 10
197.080640
 20
260.299607
 30
0.0
 10
197.697440
 20
261.773211
 30
0.0
 10
197.697440
 20
263.418156
 30
0.0
  0
LWPOLYLINE
  5
1b3
100
AcDbEntity
  8
Ebene_1
 62
7
100
AcDbPolyline
 90
2
 70
0
 10
170.749196
 20
257.443179
 30
0.0
 10
191.693133
 20
257.443179
 30
0.0
  0
LWPOLYLINE
  5
1b4
100
AcDbEntity
  8
Ebene_1
 62
7
100
AcDbPolyline
 90
3
 70
0
 10
197.697440
 20
263.418156
 30
0.0
 10
197.697440
 20
264.183718
 30
0.0
 10
164.744705
 20
264.183760
 30
0.0
  0
SPLINE
  5
1b5
100
AcDbEntity
  8
Ebene_1
 62
7
100
AcDbSpline
 70
8
 71
3
 72
8
 73
4
 74
0
 40
0
 40
0
 40
0
 40
0
 40
1
 40
1
 40
1
 40
1
 10
164.744705
 20
273.839018
 30
0.0
 10
164.744705
 20
272.222637
 30
0.0
 10
165.341984
 20
270.759157
 30
0.0
 10
166.475675
 20
269.600513
 30
0.0
  0
LWPOLYLINE
  5
1b6
100
AcDbEntity
  8
Ebene_1
 62
7
100
AcDbPolyline
 90
2
 70
0
 10
164.744705
 20
274.604580
 30
0.0
 10
164.744705
 20
273.839018
 30
0.0
  0
SPLINE
  5
1b7
100
AcDbEntity
  8
Ebene_1
 62
7
100
AcDbSpline
 70
8
 71
3
 72
8
 73
4
 74
0
 40
0
 40
0
 40
0
 40
0
 40
1
 40
1
 40
1
 40
1
 10
166.483881
 20
269.594490
 30
0.0
 10
167.625182
 20
268.458765
 30
0.0
 10
169.100933
 20
267.864000
 30
0.0
 10
170.749196
 20
267.864000
 30
0.0
  0
LWPOLYLINE
  5
1b8
100
AcDbEntity
  8
Ebene_1
 62
7
100
AcDbPolyline
 90
3
 70
0
 10
166.475675
 20
269.600513
 30
0.0
 10
166.479778
 20
269.596532
 30
0.0
 10
166.483881
 20
269.594490
 30
0.0
  0
SPLINE
  5
1b9
100
AcDbEntity
  8
Ebene_1
 62
7
100
AcDbSpline
 70
8
 71
3
 72
8
 73
4
 74
0
 40
0
 40
0
 40
0
 40
0
 40
1
 40
1
 40
1
 40
1
 10
191.693133
 20
267.864000
 30
0.0
 10
193.293626
 20
267.864000
 30
0.0
 10
194.748451
 20
268.460704
 30
0.0
 10
195.910371
 20
269.586515
 30
0.0
  0
SPLINE
  5
1ba
100
AcDbEntity
  8
Ebene_1
 62
7
100
AcDbSpline
 70
8
 71
3
 72
8
 73
4
 74
0
 40
0
 40
0
 40
0
 40
0
 40
1
 40
1
 40
1
 40
1
 10
195.910371
 20
269.586515
 30
0.0
 10
197.080640
 20
270.720428
 30
0.0
 10
197.697440
 20
272.194031
 30
0.0
 10
197.697440
 20
273.838976
 30
0.0
  0
LWPOLYLINE
  5
1bb
100
AcDbEntity
  8
Ebene_1
 62
7
100
AcDbPolyline
 90
2
 70
0
 10
170.749196
 20
267.864000
 30
0.0
 10
191.693133
 20
267.864000
 30
0.0
  0
LWPOLYLINE
  5
1bc
100
AcDbEntity
  8
Ebene_1
 62
7
100
AcDbPolyline
 90
3
 70
0
 10
197.697440
 20
273.838976
 30
0.0
 10
197.697440
 20
274.604538
 30
0.0
 10
164.744705
 20
274.604580
 30
0.0
  0
SPLINE
  5
1bd
100
AcDbEntity
  8
Ebene_1
 62
7
100
AcDbSpline
 70
8
 71
3
 72
8
 73
4
 74
0
 40
0
 40
0
 40
0
 40
0
 40
1
 40
1
 40
1
 40
1
 10
164.744705
 20
284.259838
 30
0.0
 10
164.744705
 20
282.643457
 30
0.0
 10
165.341984
 20
281.179977
 30
0.0
 10
166.475675
 20
280.021334
 30
0.0
  0
LWPOLYLINE
  5
1be
100
AcDbEntity
  8
Ebene_1
 62
7
100
AcDbPolyline
 90
2
 70
0
 10
164.744705
 20
285.025401
 30
0.0
 10
164.744705
 20
284.259838
 30
0.0
  0
SPLINE
  5
1bf
100
AcDbEntity
  8
Ebene_1
 62
7
100
AcDbSpline
 70
8
 71
3
 72
8
 73
4
 74
0
 40
0
 40
0
 40
0
 40
0
 40
1
 40
1
 40
1
 40
1
 10
166.483881
 20
280.013372
 30
0.0
 10
167.625182
 20
278.877648
 30
0.0
 10
169.100933
 20
278.282883
 30
0.0
 10
170.749196
 20
278.282883
 30
0.0
  0
LWPOLYLINE
  5
1c0
100
AcDbEntity
  8
Ebene_1
 62
7
100
AcDbPolyline
 90
3
 70
0
 10
166.475675
 20
280.021334
 30
0.0
 10
166.479778
 20
280.017353
 30
0.0
 10
166.483881
 20
280.013372
 30
0.0
  0
SPLINE
  5
1c1
100
AcDbEntity
  8
Ebene_1
 62
7
100
AcDbSpline
 70
8
 71
3
 72
8
 73
4
 74
0
 40
0
 40
0
 40
0
 40
0
 40
1
 40
1
 40
1
 40
1
 10
191.693133
 20
278.282883
 30
0.0
 10
193.293626
 20
278.282883
 30
0.0
 10
194.748451
 20
278.881581
 30
0.0
 10
195.910371
 20
280.007392
 30
0.0
  0
SPLINE
  5
1c2
100
AcDbEntity
  8
Ebene_1
 62
7
100
AcDbSpline
 70
8
 71
3
 72
8
 73
4
 74
0
 40
0
 40
0
 40
0
 40
0
 40
1
 40
1
 40
1
 40
1
 10
195.910371
 20
280.007392
 30
0.0
 10
197.080640
 20
281.141303
 30
0.0
 10
197.697440
 20
282.614908
 30
0.0
 10
197.697440
 20
284.259852
 30
0.0
  0
LWPOLYLINE
  5
1c3
100
AcDbEntity
  8
Ebene_1
 62
7
100
AcDbPolyline
 90
2
 70
0
 10
170.749196
 20
278.282883
 30
0.0
 10
191.693133
 20
278.282883
 30
0.0
  0
LWPOLYLINE
  5
1c4
100
AcDbEntity
  8
Ebene_1
 62
7
100
AcDbPolyline
 90
3
 70
0
 10
197.697440
 20
284.259852
 30
0.0
 10
197.697440
 20
285.025414
 30
0.0
 10
164.744705
 20
285.025401
 30
0.0
  0
LWPOLYLINE
  5
1c5
100
AcDbEntity
  8
Ebene_1
 62
7
100
AcDbPolyline
 90
25
 70
1
 10
201.395592
 20
285.025401
 30
0.0
 10
201.395592
 20
278.731441
 30
0.0
 10
206.856953
 20
273.296744
 30
0.0
 10
208.930517
 20
271.233315
 30
0.0
 10
201.395592
 20
263.735188
 30
0.0
 10
201.395592
 20
257.443221
 30
0.0
 10
202.164912
 20
257.443221
 30
0.0
 10
208.169208
 20
257.443221
 30
0.0
 10
208.169208
 20
260.495502
 30
0.0
 10
217.871862
 20
270.150761
 30
0.0
 10
227.574505
 20
260.495502
 30
0.0
 10
227.574505
 20
257.443221
 30
0.0
 10
228.343825
 20
257.443221
 30
0.0
 10
234.348132
 20
257.443221
 30
0.0
 10
234.348132
 20
263.735188
 30
0.0
 10
226.809196
 20
271.237302
 30
0.0
 10
228.624309
 20
273.073455
 30
0.0
 10
228.662365
 20
273.073455
 30
0.0
 10
234.348121
 20
278.731441
 30
0.0
 10
234.348121
 20
285.025401
 30
0.0
 10
227.574495
 20
285.025401
 30
0.0
 10
227.574495
 20
281.971126
 30
0.0
 10
217.871851
 20
272.315868
 30
0.0
 10
208.169198
 20
281.971126
 30
0.0
 10
208.169198
 20
285.025401
 30
0.0
  0
LWPOLYLINE
  5
1c6
100
AcDbEntity
  8
Ebene_1
 62
7
100
AcDbPolyline
 90
14
 70
1
 10
238.046468
 20
285.025401
 30
0.0
 10
238.046468
 20
278.731441
 30
0.0
 10
251.134930
 20
265.706910
 30
0.0
 10
251.134930
 20
257.443221
 30
0.0
 10
251.904250
 20
257.443221
 30
0.0
 10
257.908557
 20
257.443221
 30
0.0
 10
257.908557
 20
265.706910
 30
0.0
 10
270.999008
 20
278.731441
 30
0.0
 10
270.999008
 20
285.025401
 30
0.0
 10
264.225392
 20
285.025401
 30
0.0
 10
264.225392
 20
281.971126
 30
0.0
 10
254.522738
 20
272.315868
 30
0.0
 10
244.820095
 20
281.971126
 30
0.0
 10
244.820095
 20
285.025401
 30
0.0
  0
LWPOLYLINE
  5
1c7
100
AcDbEntity
  8
Ebene_1
 62
7
100
AcDbPolyline
 90
10
 70
1
 10
126.712250
 20
235.812441
 30
0.0
 10
131.194820
 20
235.812441
 30
0.0
 10
131.194820
 20
241.588942
 30
0.0
 10
138.842910
 20
241.588942
 30
0.0
 10
138.842910
 20
245.309008
 30
0.0
 10
131.194820
 20
245.309008
 30
0.0
 10
131.194820
 20
248.058622
 30
0.0
 10
139.651620
 20
248.058622
 30
0.0
 10
139.651620
 20
251.986642
 30
0.0
 10
126.712250
 20
251.986642
 30
0.0
  0
LWPOLYLINE
  5
1c8
100
AcDbEntity
  8
Ebene_1
 62
7
100
AcDbPolyline
 90
8
 70
1
 10
138.550830
 20
235.812441
 30
0.0
 10
143.264460
 20
235.812441
 30
0.0
 10
144.419760
 20
238.700692
 30
0.0
 10
150.658380
 20
238.700692
 30
0.0
 10
151.836780
 20
235.812441
 30
0.0
 10
156.642830
 20
235.812441
 30
0.0
 10
149.757240
 20
252.102172
 30
0.0
 10
145.436420
 20
252.102172
 30
0.0
  0
LWPOLYLINE
  5
1c9
100
AcDbEntity
  8
Ebene_1
 62
7
100
AcDbPolyline
 90
3
 70
1
 10
145.736800
 20
242.189698
 30
0.0
 10
147.562170
 20
246.787792
 30
0.0
 10
149.364440
 20
242.189698
 30
0.0
  0
LWPOLYLINE
  5
1ca
100
AcDbEntity
  8
Ebene_1
 62
7
100
AcDbPolyline
 90
12
 70
1
 10
158.212230
 20
235.812441
 30
0.0
 10
162.694800
 20
235.812441
 30
0.0
 10
162.694800
 20
241.958638
 30
0.0
 10
168.448190
 20
241.958638
 30
0.0
 10
168.448190
 20
235.812441
 30
0.0
 10
172.930750
 20
235.812441
 30
0.0
 10
172.930750
 20
251.986642
 30
0.0
 10
168.448190
 20
251.986642
 30
0.0
 10
168.448190
 20
245.932870
 30
0.0
 10
162.694800
 20
245.932870
 30
0.0
 10
162.694800
 20
251.986642
 30
0.0
 10
158.212230
 20
251.986642
 30
0.0
  0
SPLINE
  5
1cb
100
AcDbEntity
  8
Ebene_1
 62
7
100
AcDbSpline
 70
8
 71
3
 72
8
 73
4
 74
0
 40
0
 40
0
 40
0
 40
0
 40
1
 40
1
 40
1
 40
1
 10
186.834060
 20
241.450306
 30
0.0
 10
188.844280
 20
242.305228
 30
0.0
 10
190.161330
 20
243.945754
 30
0.0
 10
190.161330
 20
246.418096
 30
0.0
  0
LWPOLYLINE
  5
1cc
100
AcDbEntity
  8
Ebene_1
 62
7
100
AcDbPolyline
 90
8
 70
0
 10
175.812510
 20
235.812441
 30
0.0
 10
180.295070
 20
235.812441
 30
0.0
 10
180.295070
 20
240.710914
 30
0.0
 10
182.212870
 20
240.710914
 30
0.0
 10
182.259070
 20
240.710914
 30
0.0
 10
185.517020
 20
235.812441
 30
0.0
 10
190.692760
 20
235.812441
 30
0.0
 10
186.834060
 20
241.450306
 30
0.0
  0
SPLINE
  5
1cd
100
AcDbEntity
  8
Ebene_1
 62
7
100
AcDbSpline
 70
8
 71
3
 72
8
 73
4
 74
0
 40
0
 40
0
 40
0
 40
0
 40
1
 40
1
 40
1
 40
1
 10
190.161330
 20
246.464306
 30
0.0
 10
190.161330
 20
248.058620
 30
0.0
 10
189.676100
 20
249.306344
 30
0.0
 10
188.728750
 20
250.230584
 30
0.0
  0
SPLINE
  5
1ce
100
AcDbEntity
  8
Ebene_1
 62
7
100
AcDbSpline
 70
8
 71
3
 72
8
 73
4
 74
0
 40
0
 40
0
 40
0
 40
0
 40
1
 40
1
 40
1
 40
1
 10
188.728750
 20
250.230584
 30
0.0
 10
187.642770
 20
251.339672
 30
0.0
 10
185.932930
 20
251.986640
 30
0.0
 10
183.460590
 20
251.986640
 30
0.0
  0
LWPOLYLINE
  5
1cf
100
AcDbEntity
  8
Ebene_1
 62
7
100
AcDbPolyline
 90
2
 70
0
 10
190.161330
 20
246.418096
 30
0.0
 10
190.161330
 20
246.464306
 30
0.0
  0
LWPOLYLINE
  5
1d0
100
AcDbEntity
  8
Ebene_1
 62
7
100
AcDbPolyline
 90
3
 70
0
 10
183.460590
 20
251.986640
 30
0.0
 10
175.812500
 20
251.986640
 30
0.0
 10
175.812510
 20
235.812441
 30
0.0
  0
SPLINE
  5
1d1
100
AcDbEntity
  8
Ebene_1
 62
7
100
AcDbSpline
 70
8
 71
3
 72
8
 73
4
 74
0
 40
0
 40
0
 40
0
 40
0
 40
1
 40
1
 40
1
 40
1
 10
183.229540
 20
248.104834
 30
0.0
 10
184.731430
 20
248.104834
 30
0.0
 10
185.655670
 20
247.457866
 30
0.0
 10
185.655670
 20
246.187036
 30
0.0
  0
LWPOLYLINE
  5
1d2
100
AcDbEntity
  8
Ebene_1
 62
7
100
AcDbPolyline
 90
3
 70
0
 10
180.295070
 20
244.223026
 30
0.0
 10
180.295070
 20
248.104834
 30
0.0
 10
183.229540
 20
248.104834
 30
0.0
  0
SPLINE
  5
1d3
100
AcDbEntity
  8
Ebene_1
 62
7
100
AcDbSpline
 70
8
 71
3
 72
8
 73
4
 74
0
 40
0
 40
0
 40
0
 40
0
 40
1
 40
1
 40
1
 40
1
 10
185.655670
 20
246.140826
 30
0.0
 10
185.655670
 20
244.962420
 30
0.0
 10
184.777640
 20
244.223028
 30
0.0
 10
183.252640
 20
244.223028
 30
0.0
  0
LWPOLYLINE
  5
1d4
100
AcDbEntity
  8
Ebene_1
 62
7
100
AcDbPolyline
 90
2
 70
0
 10
185.655670
 20
246.187036
 30
0.0
 10
185.655670
 20
246.140826
 30
0.0
  0
LWPOLYLINE
  5
1d5
100
AcDbEntity
  8
Ebene_1
 62
7
100
AcDbPolyline
 90
2
 70
0
 10
183.252640
 20
244.223028
 30
0.0
 10
180.295070
 20
244.223026
 30
0.0
  0
LWPOLYLINE
  5
1d6
100
AcDbEntity
  8
Ebene_1
 62
7
100
AcDbPolyline
 90
10
 70
1
 10
191.911620
 20
235.812441
 30
0.0
 10
206.214230
 20
235.812441
 30
0.0
 10
206.214230
 20
239.601826
 30
0.0
 10
198.104030
 20
239.601826
 30
0.0
 10
206.214230
 20
248.728696
 30
0.0
 10
206.214230
 20
251.986642
 30
0.0
 10
192.188890
 20
251.986642
 30
0.0
 10
192.188890
 20
248.197258
 30
0.0
 10
200.021820
 20
248.197258
 30
0.0
 10
191.911620
 20
239.070388
 30
0.0
  0
SPLINE
  5
1d7
100
AcDbEntity
  8
Ebene_1
 62
7
100
AcDbSpline
 70
8
 71
3
 72
8
 73
4
 74
0
 40
0
 40
0
 40
0
 40
0
 40
1
 40
1
 40
1
 40
1
 10
231.243450
 20
235.512063
 30
0.0
 10
235.841540
 20
235.512063
 30
0.0
 10
238.822210
 20
237.799558
 30
0.0
 10
238.822210
 20
243.021514
 30
0.0
  0
LWPOLYLINE
  5
1d8
100
AcDbEntity
  8
Ebene_1
 62
7
100
AcDbPolyline
 90
12
 70
1
 10
208.530970
 20
235.812441
 30
0.0
 10
221.655170
 20
235.812441
 30
0.0
 10
221.655170
 20
239.624932
 30
0.0
 10
212.967320
 20
239.624932
 30
0.0
 10
212.967320
 20
242.189698
 30
0.0
 10
220.730930
 20
242.189698
 30
0.0
 10
220.730930
 20
245.724916
 30
0.0
 10
212.967320
 20
245.724916
 30
0.0
 10
212.967320
 20
248.174152
 30
0.0
 10
221.539640
 20
248.174152
 30
0.0
 10
221.539640
 20
251.986642
 30
0.0
 10
208.530970
 20
251.986642
 30
0.0
  0
SPLINE
  5
1d9
100
AcDbEntity
  8
Ebene_1
 62
7
100
AcDbSpline
 70
8
 71
3
 72
8
 73
4
 74
0
 40
0
 40
0
 40
0
 40
0
 40
1
 40
1
 40
1
 40
1
 10
234.270330
 20
242.882878
 30
0.0
 10
234.270330
 20
240.618490
 30
0.0
 10
233.091930
 20
239.555614
 30
0.0
 10
231.289660
 20
239.555614
 30
0.0
  0
SPLINE
  5
1da
100
AcDbEntity
  8
Ebene_1
 62
7
100
AcDbSpline
 70
8
 71
3
 72
8
 73
4
 74
0
 40
0
 40
0
 40
0
 40
0
 40
1
 40
1
 40
1
 40
1
 10
231.289660
 20
239.555614
 30
0.0
 10
229.487390
 20
239.555614
 30
0.0
 10
228.308980
 20
240.664702
 30
0.0
 10
228.308980
 20
242.998408
 30
0.0
  0
LWPOLYLINE
  5
1db
100
AcDbEntity
  8
Ebene_1
 62
7
100
AcDbPolyline
 90
4
 70
0
 10
238.822210
 20
243.021514
 30
0.0
 10
238.822210
 20
251.986642
 30
0.0
 10
234.270330
 20
251.986642
 30
0.0
 10
234.270330
 20
242.882878
 30
0.0
  0
SPLINE
  5
1dc
100
AcDbEntity
  8
Ebene_1
 62
7
100
AcDbSpline
 70
8
 71
3
 72
8
 73
4
 74
0
 40
0
 40
0
 40
0
 40
0
 40
1
 40
1
 40
1
 40
1
 10
223.757100
 20
242.905984
 30
0.0
 10
223.757100
 20
237.845770
 30
0.0
 10
226.645350
 20
235.512063
 30
0.0
 10
231.243450
 20
235.512063
 30
0.0
  0
LWPOLYLINE
  5
1dd
100
AcDbEntity
  8
Ebene_1
 62
7
100
AcDbPolyline
 90
4
 70
0
 10
228.308980
 20
242.998408
 30
0.0
 10
228.308980
 20
251.986642
 30
0.0
 10
223.757100
 20
251.986642
 30
0.0
 10
223.757100
 20
242.905984
 30
0.0
  0
SPLINE
  5
1de
100
AcDbEntity
  8
Ebene_1
 62
7
100
AcDbSpline
 70
8
 71
3
 72
8
 73
4
 74
0
 40
0
 40
0
 40
0
 40
0
 40
1
 40
1
 40
1
 40
1
 10
249.723910
 20
235.488957
 30
0.0
 10
252.658380
 20
235.488957
 30
0.0
 10
255.038290
 20
236.574939
 30
0.0
 10
256.748140
 20
237.984406
 30
0.0
  0
LWPOLYLINE
  5
1df
100
AcDbEntity
  8
Ebene_1
 62
7
100
AcDbPolyline
 90
1
 70
1
 10
231.243450
 20
235.512063
 30
0.0
  0
SPLINE
  5
1e0
100
AcDbEntity
  8
Ebene_1
 62
7
100
AcDbSpline
 70
8
 71
3
 72
8
 73
4
 74
0
 40
0
 40
0
 40
0
 40
0
 40
1
 40
1
 40
1
 40
1
 10
252.496630
 20
240.017734
 30
0.0
 10
251.826560
 20
239.578720
 30
0.0
 10
250.994740
 20
239.347660
 30
0.0
 10
249.908760
 20
239.347660
 30
0.0
  0
SPLINE
  5
1e1
100
AcDbEntity
  8
Ebene_1
 62
7
100
AcDbSpline
 70
8
 71
3
 72
8
 73
4
 74
0
 40
0
 40
0
 40
0
 40
0
 40
1
 40
1
 40
1
 40
1
 10
249.908760
 20
239.347660
 30
0.0
 10
247.344000
 20
239.347660
 30
0.0
 10
245.518620
 20
241.219246
 30
0.0
 10
245.518620
 20
243.830224
 30
0.0
  0
LWPOLYLINE
  5
1e2
100
AcDbEntity
  8
Ebene_1
 62
7
100
AcDbPolyline
 90
6
 70
0
 10
256.748140
 20
237.984406
 30
0.0
 10
256.748140
 20
245.262796
 30
0.0
 10
249.308010
 20
245.262796
 30
0.0
 10
249.308010
 20
241.981744
 30
0.0
 10
252.496630
 20
241.981744
 30
0.0
 10
252.496630
 20
240.017734
 30
0.0
  0
SPLINE
  5
1e3
100
AcDbEntity
  8
Ebene_1
 62
7
100
AcDbSpline
 70
8
 71
3
 72
8
 73
4
 74
0
 40
0
 40
0
 40
0
 40
0
 40
1
 40
1
 40
1
 40
1
 10
245.518620
 20
243.876434
 30
0.0
 10
245.518620
 20
246.348776
 30
0.0
 10
247.320890
 20
248.312786
 30
0.0
 10
249.654600
 20
248.312786
 30
0.0
  0
SPLINE
  5
1e4
100
AcDbEntity
  8
Ebene_1
 62
7
100
AcDbSpline
 70
8
 71
3
 72
8
 73
4
 74
0
 40
0
 40
0
 40
0
 40
0
 40
1
 40
1
 40
1
 40
1
 10
249.654600
 20
248.312786
 30
0.0
 10
251.248910
 20
248.312786
 30
0.0
 10
252.404210
 20
247.758242
 30
0.0
 10
253.559510
 20
246.787790
 30
0.0
  0
LWPOLYLINE
  5
1e5
100
AcDbEntity
  8
Ebene_1
 62
7
100
AcDbPolyline
 90
2
 70
0
 10
245.518620
 20
243.830224
 30
0.0
 10
245.518620
 20
243.876434
 30
0.0
  0
SPLINE
  5
1e6
100
AcDbEntity
  8
Ebene_1
 62
7
100
AcDbSpline
 70
8
 71
3
 72
8
 73
4
 74
0
 40
0
 40
0
 40
0
 40
0
 40
1
 40
1
 40
1
 40
1
 10
256.193590
 20
249.953312
 30
0.0
 10
254.483750
 20
251.432096
 30
0.0
 10
252.473530
 20
252.310124
 30
0.0
 10
249.631490
 20
252.310124
 30
0.0
  0
SPLINE
  5
1e7
100
AcDbEntity
  8
Ebene_1
 62
7
100
AcDbSpline
 70
8
 71
3
 72
8
 73
4
 74
0
 40
0
 40
0
 40
0
 40
0
 40
1
 40
1
 40
1
 40
1
 10
249.631490
 20
252.310124
 30
0.0
 10
244.617490
 20
252.310124
 30
0.0
 10
240.920530
 20
248.613164
 30
0.0
 10
240.920530
 20
243.899540
 30
0.0
  0
LWPOLYLINE
  5
1e8
100
AcDbEntity
  8
Ebene_1
 62
7
100
AcDbPolyline
 90
2
 70
0
 10
253.559510
 20
246.787790
 30
0.0
 10
256.193590
 20
249.953312
 30
0.0
  0
SPLINE
  5
1e9
100
AcDbEntity
  8
Ebene_1
 62
7
100
AcDbSpline
 70
8
 71
3
 72
8
 73
4
 74
0
 40
0
 40
0
 40
0
 40
0
 40
1
 40
1
 40
1
 40
1
 10
240.920530
 20
243.853330
 30
0.0
 10
240.920530
 20
238.954858
 30
0.0
 10
244.686810
 20
235.488957
 30
0.0
 10
249.723910
 20
235.488957
 30
0.0
  0
LWPOLYLINE
  5
1ea
100
AcDbEntity
  8
Ebene_1
 62
7
100
AcDbPolyline
 90
2
 70
0
 10
240.920530
 20
243.899540
 30
0.0
 10
240.920530
 20
243.853330
 30
0.0
  0
LWPOLYLINE
  5
1eb
100
AcDbEntity
  8
Ebene_1
 62
7
100
AcDbPolyline
 90
1
 70
1
 10
249.723910
 20
235.488957
 30
0.0
  0
LWPOLYLINE
  5
1ec
100
AcDbEntity
  8
Ebene_1
 62
7
100
AcDbPolyline
 90
12
 70
1
 10
259.255860
 20
235.812441
 30
0.0
 10
272.380070
 20
235.812441
 30
0.0
 10
272.380070
 20
239.624932
 30
0.0
 10
263.692220
 20
239.624932
 30
0.0
 10
263.692220
 20
242.189698
 30
0.0
 10
271.455830
 20
242.189698
 30
0.0
 10
271.455830
 20
245.724916
 30
0.0
 10
263.692220
 20
245.724916
 30
0.0
 10
263.692220
 20
248.174152
 30
0.0
 10
272.264540
 20
248.174152
 30
0.0
 10
272.264540
 20
251.986642
 30
0.0
 10
259.255860
 20
251.986642
 30
0.0
  0
SPLINE
  5
1ed
100
AcDbEntity
  8
Ebene_1
 62
7
100
AcDbSpline
 70
8
 71
3
 72
8
 73
4
 74
0
 40
0
 40
0
 40
0
 40
0
 40
1
 40
1
 40
1
 40
1
 10
135.898520
 20
318.048520
 30
0.0
 10
139.918960
 20
318.048520
 30
0.0
 10
142.853420
 20
320.058740
 30
0.0
 10
142.853420
 20
323.871230
 30
0.0
  0
LWPOLYLINE
  5
1ee
100
AcDbEntity
  8
Ebene_1
 62
7
100
AcDbPolyline
 90
4
 70
0
 10
129.197780
 20
313.427320
 30
0.0
 10
133.680340
 20
313.427320
 30
0.0
 10
133.680340
 20
318.048520
 30
0.0
 10
135.898520
 20
318.048520
 30
0.0
  0
SPLINE
  5
1ef
100
AcDbEntity
  8
Ebene_1
 62
7
100
AcDbSpline
 70
8
 71
3
 72
8
 73
4
 74
0
 40
0
 40
0
 40
0
 40
0
 40
1
 40
1
 40
1
 40
1
 10
142.853420
 20
323.917430
 30
0.0
 10
142.853420
 20
327.498860
 30
0.0
 10
140.219340
 20
329.601500
 30
0.0
 10
136.129580
 20
329.601500
 30
0.0
  0
LWPOLYLINE
  5
1f0
100
AcDbEntity
  8
Ebene_1
 62
7
100
AcDbPolyline
 90
2
 70
0
 10
142.853420
 20
323.871230
 30
0.0
 10
142.853420
 20
323.917430
 30
0.0
  0
LWPOLYLINE
  5
1f1
100
AcDbEntity
  8
Ebene_1
 62
7
100
AcDbPolyline
 90
3
 70
0
 10
136.129580
 20
329.601500
 30
0.0
 10
129.197780
 20
329.601500
 30
0.0
 10
129.197780
 20
313.427320
 30
0.0
  0
SPLINE
  5
1f2
100
AcDbEntity
  8
Ebene_1
 62
7
100
AcDbSpline
 70
8
 71
3
 72
8
 73
4
 74
0
 40
0
 40
0
 40
0
 40
0
 40
1
 40
1
 40
1
 40
1
 10
135.782990
 20
325.835240
 30
0.0
 10
137.400410
 20
325.835240
 30
0.0
 10
138.370860
 20
325.095850
 30
0.0
 10
138.370860
 20
323.709490
 30
0.0
  0
LWPOLYLINE
  5
1f3
100
AcDbEntity
  8
Ebene_1
 62
7
100
AcDbPolyline
 90
3
 70
0
 10
133.680340
 20
321.560630
 30
0.0
 10
133.680340
 20
325.835240
 30
0.0
 10
135.782990
 20
325.835240
 30
0.0
  0
SPLINE
  5
1f4
100
AcDbEntity
  8
Ebene_1
 62
7
100
AcDbSpline
 70
8
 71
3
 72
8
 73
4
 74
0
 40
0
 40
0
 40
0
 40
0
 40
1
 40
1
 40
1
 40
1
 10
138.370860
 20
323.663290
 30
0.0
 10
138.370860
 20
322.392460
 30
0.0
 10
137.400410
 20
321.560640
 30
0.0
 10
135.806090
 20
321.560640
 30
0.0
  0
LWPOLYLINE
  5
1f5
100
AcDbEntity
  8
Ebene_1
 62
7
100
AcDbPolyline
 90
2
 70
0
 10
138.370860
 20
323.709490
 30
0.0
 10
138.370860
 20
323.663290
 30
0.0
  0
LWPOLYLINE
  5
1f6
100
AcDbEntity
  8
Ebene_1
 62
7
100
AcDbPolyline
 90
2
 70
0
 10
135.806090
 20
321.560640
 30
0.0
 10
133.680340
 20
321.560630
 30
0.0
  0
LWPOLYLINE
  5
1f7
100
AcDbEntity
  8
Ebene_1
 62
7
100
AcDbPolyline
 90
8
 70
1
 10
141.848670
 20
313.427320
 30
0.0
 10
146.562300
 20
313.427320
 30
0.0
 10
147.717600
 20
316.315570
 30
0.0
 10
153.956220
 20
316.315570
 30
0.0
 10
155.134630
 20
313.427320
 30
0.0
 10
159.940670
 20
313.427320
 30
0.0
 10
153.055090
 20
329.717050
 30
0.0
 10
148.734260
 20
329.717050
 30
0.0
  0
LWPOLYLINE
  5
1f8
100
AcDbEntity
  8
Ebene_1
 62
7
100
AcDbPolyline
 90
3
 70
1
 10
149.034640
 20
319.804580
 30
0.0
 10
150.860020
 20
324.402670
 30
0.0
 10
152.662280
 20
319.804580
 30
0.0
  0
SPLINE
  5
1f9
100
AcDbEntity
  8
Ebene_1
 62
7
100
AcDbSpline
 70
8
 71
3
 72
8
 73
4
 74
0
 40
0
 40
0
 40
0
 40
0
 40
1
 40
1
 40
1
 40
1
 10
172.531630
 20
319.065190
 30
0.0
 10
174.541850
 20
319.920110
 30
0.0
 10
175.858890
 20
321.560630
 30
0.0
 10
175.858890
 20
324.032980
 30
0.0
  0
LWPOLYLINE
  5
1fa
100
AcDbEntity
  8
Ebene_1
 62
7
100
AcDbPolyline
 90
8
 70
0
 10
161.510080
 20
313.427320
 30
0.0
 10
165.992640
 20
313.427320
 30
0.0
 10
165.992640
 20
318.325790
 30
0.0
 10
167.910440
 20
318.325790
 30
0.0
 10
167.956640
 20
318.325790
 30
0.0
 10
171.214590
 20
313.427320
 30
0.0
 10
176.390330
 20
313.427320
 30
0.0
 10
172.531630
 20
319.065190
 30
0.0
  0
SPLINE
  5
1fb
100
AcDbEntity
  8
Ebene_1
 62
7
100
AcDbSpline
 70
8
 71
3
 72
8
 73
4
 74
0
 40
0
 40
0
 40
0
 40
0
 40
1
 40
1
 40
1
 40
1
 10
175.858890
 20
324.079180
 30
0.0
 10
175.858890
 20
325.673490
 30
0.0
 10
175.373670
 20
326.921220
 30
0.0
 10
174.426320
 20
327.845460
 30
0.0
  0
SPLINE
  5
1fc
100
AcDbEntity
  8
Ebene_1
 62
7
100
AcDbSpline
 70
8
 71
3
 72
8
 73
4
 74
0
 40
0
 40
0
 40
0
 40
0
 40
1
 40
1
 40
1
 40
1
 10
174.426320
 20
327.845460
 30
0.0
 10
173.340340
 20
328.954540
 30
0.0
 10
171.630490
 20
329.601510
 30
0.0
 10
169.158150
 20
329.601510
 30
0.0
  0
LWPOLYLINE
  5
1fd
100
AcDbEntity
  8
Ebene_1
 62
7
100
AcDbPolyline
 90
2
 70
0
 10
175.858890
 20
324.032980
 30
0.0
 10
175.858890
 20
324.079180
 30
0.0
  0
LWPOLYLINE
  5
1fe
100
AcDbEntity
  8
Ebene_1
 62
7
100
AcDbPolyline
 90
3
 70
0
 10
169.158150
 20
329.601510
 30
0.0
 10
161.510070
 20
329.601510
 30
0.0
 10
161.510080
 20
313.427320
 30
0.0
  0
SPLINE
  5
1ff
100
AcDbEntity
  8
Ebene_1
 62
7
100
AcDbSpline
 70
8
 71
3
 72
8
 73
4
 74
0
 40
0
 40
0
 40
0
 40
0
 40
1
 40
1
 40
1
 40
1
 10
168.927100
 20
325.719710
 30
0.0
 10
170.428990
 20
325.719710
 30
0.0
 10
171.353230
 20
325.072750
 30
0.0
 10
171.353230
 20
323.801920
 30
0.0
  0
LWPOLYLINE
  5
200
100
AcDbEntity
  8
Ebene_1
 62
7
100
AcDbPolyline
 90
3
 70
0
 10
165.992640
 20
321.837910
 30
0.0
 10
165.992640
 20
325.719710
 30
0.0
 10
168.927100
 20
325.719710
 30
0.0
  0
SPLINE
  5
201
100
AcDbEntity
  8
Ebene_1
 62
7
100
AcDbSpline
 70
8
 71
3
 72
8
 73
4
 74
0
 40
0
 40
0
 40
0
 40
0
 40
1
 40
1
 40
1
 40
1
 10
171.353230
 20
323.755720
 30
0.0
 10
171.353230
 20
322.577320
 30
0.0
 10
170.475200
 20
321.837930
 30
0.0
 10
168.950210
 20
321.837930
 30
0.0
  0
LWPOLYLINE
  5
202
100
AcDbEntity
  8
Ebene_1
 62
7
100
AcDbPolyline
 90
2
 70
0
 10
171.353230
 20
323.801920
 30
0.0
 10
171.353230
 20
323.755720
 30
0.0
  0
LWPOLYLINE
  5
203
100
AcDbEntity
  8
Ebene_1
 62
7
100
AcDbPolyline
 90
2
 70
0
 10
168.950210
 20
321.837930
 30
0.0
 10
165.992640
 20
321.837910
 30
0.0
  0
LWPOLYLINE
  5
204
100
AcDbEntity
  8
Ebene_1
 62
7
100
AcDbPolyline
 90
12
 70
1
 10
178.117520
 20
313.427320
 30
0.0
 10
182.600080
 20
313.427320
 30
0.0
 10
182.600080
 20
317.609510
 30
0.0
 10
184.240610
 20
319.434880
 30
0.0
 10
188.307260
 20
313.427320
 30
0.0
 10
193.690960
 20
313.427320
 30
0.0
 10
187.359920
 20
322.646620
 30
0.0
 10
193.483010
 20
329.601520
 30
0.0
 10
188.168630
 20
329.601520
 30
0.0
 10
182.600080
 20
323.039420
 30
0.0
 10
182.600080
 20
329.601520
 30
0.0
 10
178.117520
 20
329.601520
 30
0.0
  0
SPLINE
  5
205
100
AcDbEntity
  8
Ebene_1
 62
7
100
AcDbSpline
 70
8
 71
3
 72
8
 73
4
 74
0
 40
0
 40
0
 40
0
 40
0
 40
1
 40
1
 40
1
 40
1
 10
201.696470
 20
318.048520
 30
0.0
 10
205.716910
 20
318.048520
 30
0.0
 10
208.651380
 20
320.058740
 30
0.0
 10
208.651380
 20
323.871230
 30
0.0
  0
LWPOLYLINE
  5
206
100
AcDbEntity
  8
Ebene_1
 62
7
100
AcDbPolyline
 90
4
 70
0
 10
194.995730
 20
313.427320
 30
0.0
 10
199.478290
 20
313.427320
 30
0.0
 10
199.478290
 20
318.048520
 30
0.0
 10
201.696470
 20
318.048520
 30
0.0
  0
SPLINE
  5
207
100
AcDbEntity
  8
Ebene_1
 62
7
100
AcDbSpline
 70
8
 71
3
 72
8
 73
4
 74
0
 40
0
 40
0
 40
0
 40
0
 40
1
 40
1
 40
1
 40
1
 10
208.651380
 20
323.917430
 30
0.0
 10
208.651380
 20
327.498860
 30
0.0
 10
206.017290
 20
329.601500
 30
0.0
 10
201.927530
 20
329.601500
 30
0.0
  0
LWPOLYLINE
  5
208
100
AcDbEntity
  8
Ebene_1
 62
7
100
AcDbPolyline
 90
2
 70
0
 10
208.651380
 20
323.871230
 30
0.0
 10
208.651380
 20
323.917430
 30
0.0
  0
LWPOLYLINE
  5
209
100
AcDbEntity
  8
Ebene_1
 62
7
100
AcDbPolyline
 90
3
 70
0
 10
201.927530
 20
329.601500
 30
0.0
 10
194.995730
 20
329.601500
 30
0.0
 10
194.995730
 20
313.427320
 30
0.0
  0
SPLINE
  5
20a
100
AcDbEntity
  8
Ebene_1
 62
7
100
AcDbSpline
 70
8
 71
3
 72
8
 73
4
 74
0
 40
0
 40
0
 40
0
 40
0
 40
1
 40
1
 40
1
 40
1
 10
201.580940
 20
325.835240
 30
0.0
 10
203.198360
 20
325.835240
 30
0.0
 10
204.168810
 20
325.095850
 30
0.0
 10
204.168810
 20
323.709490
 30
0.0
  0
LWPOLYLINE
  5
20b
100
AcDbEntity
  8
Ebene_1
 62
7
100
AcDbPolyline
 90
3
 70
0
 10
199.478290
 20
321.560630
 30
0.0
 10
199.478290
 20
325.835240
 30
0.0
 10
201.580940
 20
325.835240
 30
0.0
  0
SPLINE
  5
20c
100
AcDbEntity
  8
Ebene_1
 62
7
100
AcDbSpline
 70
8
 71
3
 72
8
 73
4
 74
0
 40
0
 40
0
 40
0
 40
0
 40
1
 40
1
 40
1
 40
1
 10
204.168810
 20
323.663290
 30
0.0
 10
204.168810
 20
322.392460
 30
0.0
 10
203.198360
 20
321.560640
 30
0.0
 10
201.604050
 20
321.560640
 30
0.0
  0
LWPOLYLINE
  5
20d
100
AcDbEntity
  8
Ebene_1
 62
7
100
AcDbPolyline
 90
2
 70
0
 10
204.168810
 20
323.709490
 30
0.0
 10
204.168810
 20
323.663290
 30
0.0
  0
LWPOLYLINE
  5
20e
100
AcDbEntity
  8
Ebene_1
 62
7
100
AcDbPolyline
 90
2
 70
0
 10
201.604050
 20
321.560640
 30
0.0
 10
199.478290
 20
321.560630
 30
0.0
  0
LWPOLYLINE
  5
20f
100
AcDbEntity
  8
Ebene_1
 62
7
100
AcDbPolyline
 90
6
 70
1
 10
210.565200
 20
313.427320
 30
0.0
 10
222.880700
 20
313.427320
 30
0.0
 10
222.880700
 20
317.355340
 30
0.0
 10
215.047770
 20
317.355340
 30
0.0
 10
215.047770
 20
329.601520
 30
0.0
 10
210.565200
 20
329.601520
 30
0.0
  0
LWPOLYLINE
  5
210
100
AcDbEntity
  8
Ebene_1
 62
7
100
AcDbPolyline
 90
8
 70
1
 10
223.486870
 20
313.427320
 30
0.0
 10
228.200500
 20
313.427320
 30
0.0
 10
229.355800
 20
316.315570
 30
0.0
 10
235.594420
 20
316.315570
 30
0.0
 10
236.772820
 20
313.427320
 30
0.0
 10
241.578870
 20
313.427320
 30
0.0
 10
234.693280
 20
329.717050
 30
0.0
 10
230.372460
 20
329.717050
 30
0.0
  0
LWPOLYLINE
  5
211
100
AcDbEntity
  8
Ebene_1
 62
7
100
AcDbPolyline
 90
3
 70
1
 10
230.672840
 20
319.804580
 30
0.0
 10
232.498210
 20
324.402670
 30
0.0
 10
234.300480
 20
319.804580
 30
0.0
  0
LWPOLYLINE
  5
212
100
AcDbEntity
  8
Ebene_1
 62
7
100
AcDbPolyline
 90
8
 70
1
 10
245.023470
 20
313.427320
 30
0.0
 10
249.506030
 20
313.427320
 30
0.0
 10
249.506030
 20
325.673500
 30
0.0
 10
254.358290
 20
325.673500
 30
0.0
 10
254.358290
 20
329.601520
 30
0.0
 10
240.171210
 20
329.601520
 30
0.0
 10
240.171210
 20
325.673500
 30
0.0
 10
245.023470
 20
325.673500
 30
0.0
  0
LWPOLYLINE
  5
213
100
AcDbEntity
  8
Ebene_1
 62
7
100
AcDbPolyline
 90
10
 70
1
 10
255.591930
 20
313.427320
 30
0.0
 10
269.894550
 20
313.427320
 30
0.0
 10
269.894550
 20
317.216710
 30
0.0
 10
261.784340
 20
317.216710
 30
0.0
 10
269.894550
 20
326.343580
 30
0.0
 10
269.894550
 20
329.601520
 30
0.0
 10
255.869210
 20
329.601520
 30
0.0
 10
255.869210
 20
325.812140
 30
0.0
 10
263.702140
 20
325.812140
 30
0.0
 10
255.591930
 20
316.685270
 30
0.0
  0
SPLINE
  5
214
100
AcDbEntity
  8
Ebene_1
 62
7
100
AcDbSpline
 70
8
 71
3
 72
8
 73
4
 74
0
 40
0
 40
0
 40
0
 40
0
 40
1
 40
1
 40
1
 40
1
 10
188.587780
 20
303.259920
 30
0.0
 10
188.587780
 20
304.068630
 30
0.0
 10
189.026800
 20
304.438330
 30
0.0
 10
189.835510
 20
304.438330
 30
0.0
  0
SPLINE
  5
215
100
AcDbEntity
  8
Ebene_1
 62
7
100
AcDbSpline
 70
8
 71
3
 72
8
 73
4
 74
0
 40
0
 40
0
 40
0
 40
0
 40
1
 40
1
 40
1
 40
1
 10
189.835510
 20
304.438330
 30
0.0
 10
190.459370
 20
304.438330
 30
0.0
 10
190.967700
 20
304.345930
 30
0.0
 10
191.476030
 20
304.184160
 30
0.0
  0
LWPOLYLINE
  5
216
100
AcDbEntity
  8
Ebene_1
 62
7
100
AcDbPolyline
 90
7
 70
0
 10
184.290070
 20
290.597830
 30
0.0
 10
188.657100
 20
290.597830
 30
0.0
 10
188.657100
 20
299.586070
 30
0.0
 10
191.452930
 20
299.586070
 30
0.0
 10
191.452930
 20
302.959540
 30
0.0
 10
188.587780
 20
302.959540
 30
0.0
 10
188.587780
 20
303.259920
 30
0.0
  0
SPLINE
  5
217
100
AcDbEntity
  8
Ebene_1
 62
7
100
AcDbSpline
 70
8
 71
3
 72
8
 73
4
 74
0
 40
0
 40
0
 40
0
 40
0
 40
1
 40
1
 40
1
 40
1
 10
191.476030
 20
307.280360
 30
0.0
 10
190.782850
 20
307.488320
 30
0.0
 10
189.951040
 20
307.626950
 30
0.0
 10
188.610890
 20
307.626950
 30
0.0
  0
SPLINE
  5
218
100
AcDbEntity
  8
Ebene_1
 62
7
100
AcDbSpline
 70
8
 71
3
 72
8
 73
4
 74
0
 40
0
 40
0
 40
0
 40
0
 40
1
 40
1
 40
1
 40
1
 10
188.610890
 20
307.626950
 30
0.0
 10
187.132100
 20
307.626950
 30
0.0
 10
186.115440
 20
307.303470
 30
0.0
 10
185.352940
 20
306.540970
 30
0.0
  0
SPLINE
  5
219
100
AcDbEntity
  8
Ebene_1
 62
7
100
AcDbSpline
 70
8
 71
3
 72
8
 73
4
 74
0
 40
0
 40
0
 40
0
 40
0
 40
1
 40
1
 40
1
 40
1
 10
185.352940
 20
306.540970
 30
0.0
 10
184.613550
 20
305.801580
 30
0.0
 10
184.290070
 20
304.738700
 30
0.0
 10
184.290070
 20
303.306130
 30
0.0
  0
LWPOLYLINE
  5
21a
100
AcDbEntity
  8
Ebene_1
 62
7
100
AcDbPolyline
 90
2
 70
0
 10
191.476030
 20
304.184160
 30
0.0
 10
191.476030
 20
307.280360
 30
0.0
  0
SPLINE
  5
21b
100
AcDbEntity
  8
Ebene_1
 62
7
100
AcDbSpline
 70
8
 71
3
 72
8
 73
4
 74
0
 40
0
 40
0
 40
0
 40
0
 40
1
 40
1
 40
1
 40
1
 10
197.005230
 20
290.320560
 30
0.0
 10
198.784390
 20
290.320560
 30
0.0
 10
199.939690
 20
291.267910
 30
0.0
 10
200.748400
 20
292.307680
 30
0.0
  0
LWPOLYLINE
  5
21c
100
AcDbEntity
  8
Ebene_1
 62
7
100
AcDbPolyline
 90
6
 70
0
 10
184.290070
 20
303.306130
 30
0.0
 10
184.290070
 20
303.028860
 30
0.0
 10
182.834390
 20
303.028860
 30
0.0
 10
182.834390
 20
299.586070
 30
0.0
 10
184.290070
 20
299.586070
 30
0.0
 10
184.290070
 20
290.597830
 30
0.0
  0
SPLINE
  5
21d
100
AcDbEntity
  8
Ebene_1
 62
7
100
AcDbSpline
 70
8
 71
3
 72
8
 73
4
 74
0
 40
0
 40
0
 40
0
 40
0
 40
1
 40
1
 40
1
 40
1
 10
200.748400
 20
296.328120
 30
0.0
 10
200.748400
 20
294.964870
 30
0.0
 10
199.962790
 20
294.225470
 30
0.0
 10
198.923020
 20
294.225470
 30
0.0
  0
SPLINE
  5
21e
100
AcDbEntity
  8
Ebene_1
 62
7
100
AcDbSpline
 70
8
 71
3
 72
8
 73
4
 74
0
 40
0
 40
0
 40
0
 40
0
 40
1
 40
1
 40
1
 40
1
 10
198.923020
 20
294.225470
 30
0.0
 10
197.860150
 20
294.225470
 30
0.0
 10
197.143860
 20
294.964870
 30
0.0
 10
197.143860
 20
296.328120
 30
0.0
  0
LWPOLYLINE
  5
21f
100
AcDbEntity
  8
Ebene_1
 62
7
100
AcDbPolyline
 90
6
 70
0
 10
200.748400
 20
292.307680
 30
0.0
 10
200.748400
 20
290.597830
 30
0.0
 10
205.138540
 20
290.597830
 30
0.0
 10
205.138540
 20
303.098180
 30
0.0
 10
200.748400
 20
303.098180
 30
0.0
 10
200.748400
 20
296.328120
 30
0.0
  0
SPLINE
  5
220
100
AcDbEntity
  8
Ebene_1
 62
7
100
AcDbSpline
 70
8
 71
3
 72
8
 73
4
 74
0
 40
0
 40
0
 40
0
 40
0
 40
1
 40
1
 40
1
 40
1
 10
192.753720
 20
294.918650
 30
0.0
 10
192.753720
 20
292.076620
 30
0.0
 10
194.348040
 20
290.320560
 30
0.0
 10
197.005230
 20
290.320560
 30
0.0
  0
LWPOLYLINE
  5
221
100
AcDbEntity
  8
Ebene_1
 62
7
100
AcDbPolyline
 90
4
 70
0
 10
197.143860
 20
296.328120
 30
0.0
 10
197.143860
 20
303.098180
 30
0.0
 10
192.753720
 20
303.098180
 30
0.0
 10
192.753720
 20
294.918650
 30
0.0
  0
LWPOLYLINE
  5
222
100
AcDbEntity
  8
Ebene_1
 62
7
100
AcDbPolyline
 90
1
 70
1
 10
197.005230
 20
290.320560
 30
0.0
  0
LWPOLYLINE
  5
223
100
AcDbEntity
  8
Ebene_1
 62
7
100
AcDbPolyline
 90
4
 70
1
 10
199.616200
 20
304.161050
 30
0.0
 10
203.428690
 20
304.161050
 30
0.0
 10
203.428690
 20
307.465210
 30
0.0
 10
199.616200
 20
307.465210
 30
0.0
  0
LWPOLYLINE
  5
224
100
AcDbEntity
  8
Ebene_1
 62
7
100
AcDbPolyline
 90
4
 70
1
 10
194.555990
 20
304.161050
 30
0.0
 10
198.368480
 20
304.161050
 30
0.0
 10
198.368480
 20
307.465210
 30
0.0
 10
194.555990
 20
307.465210
 30
0.0
  0
SPLINE
  5
225
100
AcDbEntity
  8
Ebene_1
 62
7
100
AcDbSpline
 70
8
 71
3
 72
8
 73
4
 74
0
 40
0
 40
0
 40
0
 40
0
 40
1
 40
1
 40
1
 40
1
 10
211.903180
 20
294.479640
 30
0.0
 10
211.903180
 20
297.367890
 30
0.0
 10
213.197120
 20
298.684930
 30
0.0
 10
215.484610
 20
298.684930
 30
0.0
  0
LWPOLYLINE
  5
226
100
AcDbEntity
  8
Ebene_1
 62
7
100
AcDbPolyline
 90
3
 70
0
 10
207.513040
 20
290.597830
 30
0.0
 10
211.903180
 20
290.597830
 30
0.0
 10
211.903180
 20
294.479640
 30
0.0
  0
SPLINE
  5
227
100
AcDbEntity
  8
Ebene_1
 62
7
100
AcDbSpline
 70
8
 71
3
 72
8
 73
4
 74
0
 40
0
 40
0
 40
0
 40
0
 40
1
 40
1
 40
1
 40
1
 10
215.854310
 20
303.306130
 30
0.0
 10
213.774770
 20
303.398530
 30
0.0
 10
212.619470
 20
302.289470
 30
0.0
 10
211.903180
 20
300.579620
 30
0.0
  0
LWPOLYLINE
  5
228
100
AcDbEntity
  8
Ebene_1
 62
7
100
AcDbPolyline
 90
3
 70
0
 10
215.484610
 20
298.684930
 30
0.0
 10
215.854310
 20
298.684930
 30
0.0
 10
215.854310
 20
303.306130
 30
0.0
  0
LWPOLYLINE
  5
229
100
AcDbEntity
  8
Ebene_1
 62
7
100
AcDbPolyline
 90
4
 70
0
 10
211.903180
 20
300.579620
 30
0.0
 10
211.903180
 20
303.098180
 30
0.0
 10
207.513040
 20
303.098180
 30
0.0
 10
207.513040
 20
290.597830
 30
0.0
  0
SPLINE
  5
22a
100
AcDbEntity
  8
Ebene_1
 62
7
100
AcDbSpline
 70
8
 71
3
 72
8
 73
4
 74
0
 40
0
 40
0
 40
0
 40
0
 40
1
 40
1
 40
1
 40
1
 10
268.999960
 20
184.179330
 30
0.0
 10
280.080000
 20
184.179330
 30
0.0
 10
289.000000
 20
175.259330
 30
0.0
 10
289.000000
 20
164.179330
 30
0.0
  0
LWPOLYLINE
  5
22b
100
AcDbEntity
  8
Ebene_1
 62
7
100
AcDbPolyline
 90
2
 70
0
 10
30.000000
 20
184.179330
 30
0.0
 10
268.999960
 20
184.179330
 30
0.0
  0
SPLINE
  5
22c
100
AcDbEntity
  8
Ebene_1
 62
7
100
AcDbSpline
 70
8
 71
3
 72
8
 73
4
 74
0
 40
0
 40
0
 40
0
 40
0
 40
1
 40
1
 40
1
 40
1
 10
289.000000
 20
30.179300
 30
0.0
 10
289.000000
 20
19.099300
 30
0.0
 10
280.080000
 20
10.179300
 30
0.0
 10
268.999960
 20
10.179300
 30
0.0
  0
LWPOLYLINE
  5
22d
100
AcDbEntity
  8
Ebene_1
 62
7
100
AcDbPolyline
 90
2
 70
0
 10
289.000000
 20
164.179330
 30
0.0
 10
289.000000
 20
30.179300
 30
0.0
  0
SPLINE
  5
22e
100
AcDbEntity
  8
Ebene_1
 62
7
100
AcDbSpline
 70
8
 71
3
 72
8
 73
4
 74
0
 40
0
 40
0
 40
0
 40
0
 40
1
 40
1
 40
1
 40
1
 10
30.000000
 20
10.179300
 30
0.0
 10
18.920000
 20
10.179300
 30
0.0
 10
10.000000
 20
19.099300
 30
0.0
 10
10.000000
 20
30.179300
 30
0.0
  0
LWPOLYLINE
  5
22f
100
AcDbEntity
  8
Ebene_1
 62
7
100
AcDbPolyline
 90
2
 70
0
 10
268.999960
 20
10.179300
 30
0.0
 10
30.000000
 20
10.179300
 30
0.0
  0
SPLINE
  5
230
100
AcDbEntity
  8
Ebene_1
 62
7
100
AcDbSpline
 70
8
 71
3
 72
8
 73
4
 74
0
 40
0
 40
0
 40
0
 40
0
 40
1
 40
1
 40
1
 40
1
 10
10.000000
 20
164.179330
 30
0.0
 10
10.000000
 20
175.259330
 30
0.0
 10
18.920000
 20
184.179330
 30
0.0
 10
30.000000
 20
184.179330
 30
0.0
  0
LWPOLYLINE
  5
231
100
AcDbEntity
  8
Ebene_1
 62
7
100
AcDbPolyline
 90
2
 70
0
 10
10.000000
 20
30.179300
 30
0.0
 10
10.000000
 20
164.179330
 30
0.0
  0
SPLINE
  5
232
100
AcDbEntity
  8
Ebene_1
 62
7
100
AcDbSpline
 70
8
 71
3
 72
8
 73
4
 74
0
 40
0
 40
0
 40
0
 40
0
 40
1
 40
1
 40
1
 40
1
 10
75.609020
 20
159.586800
 30
0.0
 10
71.480240
 20
159.568000
 30
0.0
 10
67.363190
 20
159.360300
 30
0.0
 10
63.266910
 20
159.078410
 30
0.0
  0
SPLINE
  5
233
100
AcDbEntity
  8
Ebene_1
 62
7
100
AcDbSpline
 70
8
 71
3
 72
8
 73
4
 74
0
 40
0
 40
0
 40
0
 40
0
 40
1
 40
1
 40
1
 40
1
 10
63.266910
 20
159.078410
 30
0.0
 10
58.729120
 20
158.766120
 30
0.0
 10
54.376070
 20
157.717750
 30
0.0
 10
50.157570
 20
156.920500
 30
0.0
  0
SPLINE
  5
234
100
AcDbEntity
  8
Ebene_1
 62
7
100
AcDbSpline
 70
8
 71
3
 72
8
 73
4
 74
0
 40
0
 40
0
 40
0
 40
0
 40
1
 40
1
 40
1
 40
1
 10
50.157570
 20
156.920500
 30
0.0
 10
48.739930
 20
156.652580
 30
0.0
 10
47.423080
 20
155.957730
 30
0.0
 10
46.612230
 20
154.811760
 30
0.0
  0
SPLINE
  5
235
100
AcDbEntity
  8
Ebene_1
 62
7
100
AcDbSpline
 70
8
 71
3
 72
8
 73
4
 74
0
 40
0
 40
0
 40
0
 40
0
 40
1
 40
1
 40
1
 40
1
 10
46.612230
 20
154.811760
 30
0.0
 10
45.801380
 20
153.665790
 30
0.0
 10
45.566690
 20
152.273300
 30
0.0
 10
45.631150
 20
150.841990
 30
0.0
  0
SPLINE
  5
236
100
AcDbEntity
  8
Ebene_1
 62
7
100
AcDbSpline
 70
8
 71
3
 72
8
 73
4
 74
0
 40
0
 40
0
 40
0
 40
0
 40
1
 40
1
 40
1
 40
1
 10
45.631150
 20
150.841990
 30
0.0
 10
45.938250
 20
144.024030
 30
0.0
 10
46.247350
 20
137.221140
 30
0.0
 10
46.332980
 20
130.440650
 30
0.0
  0
LWPOLYLINE
  5
237
100
AcDbEntity
  8
Ebene_1
 62
7
100
AcDbPolyline
 90
1
 70
1
 10
30.000000
 20
184.179330
 30
0.0
  0
SPLINE
  5
238
100
AcDbEntity
  8
Ebene_1
 62
7
100
AcDbSpline
 70
8
 71
3
 72
8
 73
4
 74
0
 40
0
 40
0
 40
0
 40
0
 40
1
 40
1
 40
1
 40
1
 10
48.249250
 20
128.548530
 30
0.0
 10
49.791240
 20
128.548520
 30
0.0
 10
50.439140
 20
128.276070
 30
0.0
 10
50.612190
 20
128.128270
 30
0.0
  0
SPLINE
  5
239
100
AcDbEntity
  8
Ebene_1
 62
7
100
AcDbSpline
 70
8
 71
3
 72
8
 73
4
 74
0
 40
0
 40
0
 40
0
 40
0
 40
1
 40
1
 40
1
 40
1
 10
50.612190
 20
128.128270
 30
0.0
 10
50.784360
 20
127.981230
 30
0.0
 10
50.991960
 20
127.652480
 30
0.0
 10
51.045910
 20
126.432830
 30
0.0
  0
SPLINE
  5
23a
100
AcDbEntity
  8
Ebene_1
 62
7
100
AcDbSpline
 70
8
 71
3
 72
8
 73
4
 74
0
 40
0
 40
0
 40
0
 40
0
 40
1
 40
1
 40
1
 40
1
 10
51.045910
 20
126.432830
 30
0.0
 10
51.163050
 20
101.592210
 30
0.0
 10
51.105110
 20
76.745580
 30
0.0
 10
51.075110
 20
51.894040
 30
0.0
  0
LWPOLYLINE
  5
23b
100
AcDbEntity
  8
Ebene_1
 62
7
100
AcDbPolyline
 90
3
 70
0
 10
46.332980
 20
130.440650
 30
0.0
 10
46.356680
 20
128.548530
 30
0.0
 10
48.249250
 20
128.548530
 30
0.0
  0
SPLINE
  5
23c
100
AcDbEntity
  8
Ebene_1
 62
7
100
AcDbSpline
 70
8
 71
3
 72
8
 73
4
 74
0
 40
0
 40
0
 40
0
 40
0
 40
1
 40
1
 40
1
 40
1
 10
47.931070
 20
51.890040
 30
0.0
 10
46.239900
 20
51.774750
 30
0.0
 10
44.946180
 20
51.689510
 30
0.0
 10
43.831410
 20
51.492040
 30
0.0
  0
SPLINE
  5
23d
100
AcDbEntity
  8
Ebene_1
 62
7
100
AcDbSpline
 70
8
 71
3
 72
8
 73
4
 74
0
 40
0
 40
0
 40
0
 40
0
 40
1
 40
1
 40
1
 40
1
 10
43.831410
 20
51.492040
 30
0.0
 10
42.716650
 20
51.294570
 30
0.0
 10
41.640470
 20
50.969240
 30
0.0
 10
40.813960
 20
50.086520
 30
0.0
  0
SPLINE
  5
23e
100
AcDbEntity
  8
Ebene_1
 62
7
100
AcDbSpline
 70
8
 71
3
 72
8
 73
4
 74
0
 40
0
 40
0
 40
0
 40
0
 40
1
 40
1
 40
1
 40
1
 10
40.813960
 20
50.086520
 30
0.0
 10
39.987440
 20
49.203800
 30
0.0
 10
39.749180
 20
48.050350
 30
0.0
 10
39.703460
 20
46.974440
 30
0.0
  0
SPLINE
  5
23f
100
AcDbEntity
  8
Ebene_1
 62
7
100
AcDbSpline
 70
8
 71
3
 72
8
 73
4
 74
0
 40
0
 40
0
 40
0
 40
0
 40
1
 40
1
 40
1
 40
1
 10
39.703460
 20
46.974440
 30
0.0
 10
39.657760
 20
45.898520
 30
0.0
 10
39.762860
 20
44.723410
 30
0.0
 10
39.885760
 20
43.200900
 30
0.0
  0
LWPOLYLINE
  5
240
100
AcDbEntity
  8
Ebene_1
 62
7
100
AcDbPolyline
 90
3
 70
0
 10
51.075110
 20
51.894040
 30
0.0
 10
47.995970
 20
51.894040
 30
0.0
 10
47.931070
 20
51.890040
 30
0.0
  0
SPLINE
  5
241
100
AcDbEntity
  8
Ebene_1
 62
7
100
AcDbSpline
 70
8
 71
3
 72
8
 73
4
 74
0
 40
0
 40
0
 40
0
 40
0
 40
1
 40
1
 40
1
 40
1
 10
107.975880
 20
43.242200
 30
0.0
 10
108.137080
 20
45.975360
 30
0.0
 10
108.470860
 20
47.720620
 30
0.0
 10
107.322750
 20
49.477930
 30
0.0
  0
SPLINE
  5
242
100
AcDbEntity
  8
Ebene_1
 62
7
100
AcDbSpline
 70
8
 71
3
 72
8
 73
4
 74
0
 40
0
 40
0
 40
0
 40
0
 40
1
 40
1
 40
1
 40
1
 10
107.322750
 20
49.477930
 30
0.0
 10
106.748710
 20
50.356580
 30
0.0
 10
105.821660
 20
50.902530
 30
0.0
 10
104.915750
 20
51.209080
 30
0.0
  0
SPLINE
  5
243
100
AcDbEntity
  8
Ebene_1
 62
7
100
AcDbSpline
 70
8
 71
3
 72
8
 73
4
 74
0
 40
0
 40
0
 40
0
 40
0
 40
1
 40
1
 40
1
 40
1
 10
104.915750
 20
51.209080
 30
0.0
 10
104.009840
 20
51.515630
 30
0.0
 10
103.029560
 20
51.680600
 30
0.0
 10
101.791610
 20
51.871950
 30
0.0
  0
LWPOLYLINE
  5
244
100
AcDbEntity
  8
Ebene_1
 62
7
100
AcDbPolyline
 90
4
 70
0
 10
39.885760
 20
43.200900
 30
0.0
 10
40.027700
 20
41.438600
 30
0.0
 10
107.869190
 20
41.438600
 30
0.0
 10
107.975880
 20
43.242200
 30
0.0
  0
SPLINE
  5
245
100
AcDbEntity
  8
Ebene_1
 62
7
100
AcDbSpline
 70
8
 71
3
 72
8
 73
4
 74
0
 40
0
 40
0
 40
0
 40
0
 40
1
 40
1
 40
1
 40
1
 10
97.595040
 20
51.894150
 30
0.0
 10
97.574840
 20
52.226320
 30
0.0
 10
97.534840
 20
52.620750
 30
0.0
 10
97.534740
 20
52.924400
 30
0.0
  0
SPLINE
  5
246
100
AcDbEntity
  8
Ebene_1
 62
7
100
AcDbSpline
 70
8
 71
3
 72
8
 73
4
 74
0
 40
0
 40
0
 40
0
 40
0
 40
1
 40
1
 40
1
 40
1
 10
97.534740
 20
52.924400
 30
0.0
 10
97.525740
 20
76.986350
 30
0.0
 10
97.540740
 20
101.050370
 30
0.0
 10
97.506440
 20
125.116030
 30
0.0
  0
SPLINE
  5
247
100
AcDbEntity
  8
Ebene_1
 62
7
100
AcDbSpline
 70
8
 71
3
 72
8
 73
4
 74
0
 40
0
 40
0
 40
0
 40
0
 40
1
 40
1
 40
1
 40
1
 10
97.506440
 20
125.116030
 30
0.0
 10
97.597740
 20
127.057880
 30
0.0
 10
97.966830
 20
127.799790
 30
0.0
 10
98.236110
 20
128.052770
 30
0.0
  0
SPLINE
  5
248
100
AcDbEntity
  8
Ebene_1
 62
7
100
AcDbSpline
 70
8
 71
3
 72
8
 73
4
 74
0
 40
0
 40
0
 40
0
 40
0
 40
1
 40
1
 40
1
 40
1
 10
98.236110
 20
128.052770
 30
0.0
 10
98.506520
 20
128.306800
 30
0.0
 10
99.182080
 20
128.553650
 30
0.0
 10
100.822170
 20
128.548640
 30
0.0
  0
LWPOLYLINE
  5
249
100
AcDbEntity
  8
Ebene_1
 62
7
100
AcDbPolyline
 90
5
 70
0
 10
101.791610
 20
51.871950
 30
0.0
 10
101.645950
 20
51.894150
 30
0.0
 10
98.753270
 20
51.894150
 30
0.0
 10
98.661470
 20
51.894150
 30
0.0
 10
97.595040
 20
51.894150
 30
0.0
  0
SPLINE
  5
24a
100
AcDbEntity
  8
Ebene_1
 62
7
100
AcDbSpline
 70
8
 71
3
 72
8
 73
4
 74
0
 40
0
 40
0
 40
0
 40
0
 40
1
 40
1
 40
1
 40
1
 10
102.744460
 20
130.450990
 30
0.0
 10
102.790560
 20
136.688440
 30
0.0
 10
102.837660
 20
142.926070
 30
0.0
 10
102.882690
 20
149.164310
 30
0.0
  0
SPLINE
  5
24b
100
AcDbEntity
  8
Ebene_1
 62
7
100
AcDbSpline
 70
8
 71
3
 72
8
 73
4
 74
0
 40
0
 40
0
 40
0
 40
0
 40
1
 40
1
 40
1
 40
1
 10
102.882690
 20
149.164310
 30
0.0
 10
102.901290
 20
151.733260
 30
0.0
 10
103.081750
 20
153.476030
 30
0.0
 10
101.844090
 20
155.087890
 30
0.0
  0
SPLINE
  5
24c
100
AcDbEntity
  8
Ebene_1
 62
7
100
AcDbSpline
 70
8
 71
3
 72
8
 73
4
 74
0
 40
0
 40
0
 40
0
 40
0
 40
1
 40
1
 40
1
 40
1
 10
101.844090
 20
155.087890
 30
0.0
 10
101.225250
 20
155.893850
 30
0.0
 10
100.356570
 20
156.374350
 30
0.0
 10
99.462120
 20
156.704020
 30
0.0
  0
SPLINE
  5
24d
100
AcDbEntity
  8
Ebene_1
 62
7
100
AcDbSpline
 70
8
 71
3
 72
8
 73
4
 74
0
 40
0
 40
0
 40
0
 40
0
 40
1
 40
1
 40
1
 40
1
 10
99.462120
 20
156.704020
 30
0.0
 10
98.567660
 20
157.033710
 30
0.0
 10
97.567800
 20
157.266700
 30
0.0
 10
96.292050
 20
157.557070
 30
0.0
  0
SPLINE
  5
24e
100
AcDbEntity
  8
Ebene_1
 62
7
100
AcDbSpline
 70
8
 71
3
 72
8
 73
4
 74
0
 40
0
 40
0
 40
0
 40
0
 40
1
 40
1
 40
1
 40
1
 10
96.292050
 20
157.557070
 30
0.0
 10
89.406540
 20
159.124300
 30
0.0
 10
82.490560
 20
159.618330
 30
0.0
 10
75.609150
 20
159.586950
 30
0.0
  0
LWPOLYLINE
  5
24f
100
AcDbEntity
  8
Ebene_1
 62
7
100
AcDbPolyline
 90
3
 70
0
 10
100.822170
 20
128.548640
 30
0.0
 10
102.730060
 20
128.542640
 30
0.0
 10
102.744460
 20
130.450990
 30
0.0
  0
SPLINE
  5
250
100
AcDbEntity
  8
Ebene_1
 62
7
100
AcDbSpline
 70
8
 71
3
 72
8
 73
4
 74
0
 40
0
 40
0
 40
0
 40
0
 40
1
 40
1
 40
1
 40
1
 10
75.626220
 20
155.754340
 30
0.0
 10
82.312160
 20
155.784840
 30
0.0
 10
88.927590
 20
155.302580
 30
0.0
 10
95.441230
 20
153.820010
 30
0.0
  0
SPLINE
  5
251
100
AcDbEntity
  8
Ebene_1
 62
7
100
AcDbSpline
 70
8
 71
3
 72
8
 73
4
 74
0
 40
0
 40
0
 40
0
 40
0
 40
1
 40
1
 40
1
 40
1
 10
95.441230
 20
153.820010
 30
0.0
 10
96.690580
 20
153.535650
 30
0.0
 10
97.595240
 20
153.306940
 30
0.0
 10
98.136300
 20
153.107510
 30
0.0
  0
SPLINE
  5
252
100
AcDbEntity
  8
Ebene_1
 62
7
100
AcDbSpline
 70
8
 71
3
 72
8
 73
4
 74
0
 40
0
 40
0
 40
0
 40
0
 40
1
 40
1
 40
1
 40
1
 10
98.136300
 20
153.107510
 30
0.0
 10
98.677350
 20
152.908090
 30
0.0
 10
98.774720
 20
152.792060
 30
0.0
 10
98.804260
 20
152.753580
 30
0.0
  0
SPLINE
  5
253
100
AcDbEntity
  8
Ebene_1
 62
7
100
AcDbSpline
 70
8
 71
3
 72
8
 73
4
 74
0
 40
0
 40
0
 40
0
 40
0
 40
1
 40
1
 40
1
 40
1
 10
98.804260
 20
152.753580
 30
0.0
 10
98.863360
 20
152.676680
 30
0.0
 10
99.068570
 20
151.738810
 30
0.0
 10
99.050110
 20
149.192010
 30
0.0
  0
SPLINE
  5
254
100
AcDbEntity
  8
Ebene_1
 62
7
100
AcDbSpline
 70
8
 71
3
 72
8
 73
4
 74
0
 40
0
 40
0
 40
0
 40
0
 40
1
 40
1
 40
1
 40
1
 10
99.050110
 20
149.192010
 30
0.0
 10
99.009410
 20
143.546820
 30
0.0
 10
98.966410
 20
137.901190
 30
0.0
 10
98.924410
 20
132.255290
 30
0.0
  0
SPLINE
  5
255
100
AcDbEntity
  8
Ebene_1
 62
7
100
AcDbSpline
 70
8
 71
3
 72
8
 73
4
 74
0
 40
0
 40
0
 40
0
 40
0
 40
1
 40
1
 40
1
 40
1
 10
98.924410
 20
132.255290
 30
0.0
 10
97.684590
 20
132.091770
 30
0.0
 10
96.542280
 20
131.720080
 30
0.0
 10
95.611930
 20
130.846070
 30
0.0
  0
SPLINE
  5
256
100
AcDbEntity
  8
Ebene_1
 62
7
100
AcDbSpline
 70
8
 71
3
 72
8
 73
4
 74
0
 40
0
 40
0
 40
0
 40
0
 40
1
 40
1
 40
1
 40
1
 10
95.611930
 20
130.846070
 30
0.0
 10
94.218590
 20
129.537090
 30
0.0
 10
93.783450
 20
127.633940
 30
0.0
 10
93.675750
 20
125.269450
 30
0.0
  0
LWPOLYLINE
  5
257
100
AcDbEntity
  8
Ebene_1
 62
7
100
AcDbPolyline
 90
2
 70
0
 10
75.609150
 20
159.586950
 30
0.0
 10
75.609020
 20
159.586800
 30
0.0
  0
SPLINE
  5
258
100
AcDbEntity
  8
Ebene_1
 62
7
100
AcDbSpline
 70
8
 71
3
 72
8
 73
4
 74
0
 40
0
 40
0
 40
0
 40
0
 40
1
 40
1
 40
1
 40
1
 10
93.673750
 20
125.179450
 30
0.0
 10
93.708150
 20
101.096050
 30
0.0
 10
93.692750
 20
77.010480
 30
0.0
 10
93.702050
 20
52.922880
 30
0.0
  0
LWPOLYLINE
  5
259
100
AcDbEntity
  8
Ebene_1
 62
7
100
AcDbPolyline
 90
3
 70
0
 10
93.675750
 20
125.269450
 30
0.0
 10
93.673750
 20
125.224450
 30
0.0
 10
93.673750
 20
125.179450
 30
0.0
  0
SPLINE
  5
25a
100
AcDbEntity
  8
Ebene_1
 62
7
100
AcDbSpline
 70
8
 71
3
 72
8
 73
4
 74
0
 40
0
 40
0
 40
0
 40
0
 40
1
 40
1
 40
1
 40
1
 10
93.702050
 20
52.922410
 30
0.0
 10
93.702530
 20
51.803830
 30
0.0
 10
93.818650
 20
50.790720
 30
0.0
 10
93.874140
 20
49.863200
 30
0.0
  0
LWPOLYLINE
  5
25b
100
AcDbEntity
  8
Ebene_1
 62
7
100
AcDbPolyline
 90
2
 70
0
 10
93.702050
 20
52.922880
 30
0.0
 10
93.702050
 20
52.922410
 30
0.0
  0
SPLINE
  5
25c
100
AcDbEntity
  8
Ebene_1
 62
7
100
AcDbSpline
 70
8
 71
3
 72
8
 73
4
 74
0
 40
0
 40
0
 40
0
 40
0
 40
1
 40
1
 40
1
 40
1
 10
101.315450
 20
48.061540
 30
0.0
 10
102.419070
 20
47.887690
 30
0.0
 10
103.252450
 20
47.725150
 30
0.0
 10
103.686740
 20
47.578200
 30
0.0
  0
SPLINE
  5
25d
100
AcDbEntity
  8
Ebene_1
 62
7
100
AcDbSpline
 70
8
 71
3
 72
8
 73
4
 74
0
 40
0
 40
0
 40
0
 40
0
 40
1
 40
1
 40
1
 40
1
 10
103.686740
 20
47.578200
 30
0.0
 10
104.141070
 20
47.424460
 30
0.0
 10
104.112600
 20
47.383610
 30
0.0
 10
104.113960
 20
47.381510
 30
0.0
  0
SPLINE
  5
25e
100
AcDbEntity
  8
Ebene_1
 62
7
100
AcDbSpline
 70
8
 71
3
 72
8
 73
4
 74
0
 40
0
 40
0
 40
0
 40
0
 40
1
 40
1
 40
1
 40
1
 10
104.113960
 20
47.381510
 30
0.0
 10
104.115960
 20
47.378510
 30
0.0
 10
104.172860
 20
46.541890
 30
0.0
 10
104.175660
 20
45.270920
 30
0.0
  0
LWPOLYLINE
  5
25f
100
AcDbEntity
  8
Ebene_1
 62
7
100
AcDbPolyline
 90
5
 70
0
 10
93.874140
 20
49.863200
 30
0.0
 10
93.981760
 20
48.061540
 30
0.0
 10
98.661250
 20
48.061540
 30
0.0
 10
98.753050
 20
48.061540
 30
0.0
 10
101.315450
 20
48.061540
 30
0.0
  0
SPLINE
  5
260
100
AcDbEntity
  8
Ebene_1
 62
7
100
AcDbSpline
 70
8
 71
3
 72
8
 73
4
 74
0
 40
0
 40
0
 40
0
 40
0
 40
1
 40
1
 40
1
 40
1
 10
43.613230
 20
45.270920
 30
0.0
 10
43.586230
 20
45.772840
 30
0.0
 10
43.519330
 20
46.501370
 30
0.0
 10
43.532530
 20
46.811420
 30
0.0
  0
SPLINE
  5
261
100
AcDbEntity
  8
Ebene_1
 62
7
100
AcDbSpline
 70
8
 71
3
 72
8
 73
4
 74
0
 40
0
 40
0
 40
0
 40
0
 40
1
 40
1
 40
1
 40
1
 10
43.532530
 20
46.811420
 30
0.0
 10
43.560830
 20
47.476150
 30
0.0
 10
43.653890
 20
47.512250
 30
0.0
 10
43.611430
 20
47.466870
 30
0.0
  0
SPLINE
  5
262
100
AcDbEntity
  8
Ebene_1
 62
7
100
AcDbSpline
 70
8
 71
3
 72
8
 73
4
 74
0
 40
0
 40
0
 40
0
 40
0
 40
1
 40
1
 40
1
 40
1
 10
43.611430
 20
47.466870
 30
0.0
 10
43.568930
 20
47.421470
 30
0.0
 10
43.730040
 20
47.581470
 30
0.0
 10
44.499740
 20
47.717810
 30
0.0
  0
SPLINE
  5
263
100
AcDbEntity
  8
Ebene_1
 62
7
100
AcDbSpline
 70
8
 71
3
 72
8
 73
4
 74
0
 40
0
 40
0
 40
0
 40
0
 40
1
 40
1
 40
1
 40
1
 10
44.499740
 20
47.717810
 30
0.0
 10
45.215370
 20
47.844580
 30
0.0
 10
46.424860
 20
47.936470
 30
0.0
 10
47.932350
 20
48.041130
 30
0.0
  0
LWPOLYLINE
  5
264
100
AcDbEntity
  8
Ebene_1
 62
7
100
AcDbPolyline
 90
2
 70
0
 10
104.175660
 20
45.270920
 30
0.0
 10
43.613230
 20
45.270920
 30
0.0
  0
SPLINE
  5
265
100
AcDbEntity
  8
Ebene_1
 62
7
100
AcDbSpline
 70
8
 71
3
 72
8
 73
4
 74
0
 40
0
 40
0
 40
0
 40
0
 40
1
 40
1
 40
1
 40
1
 10
49.848590
 20
48.014650
 30
0.0
 10
50.910490
 20
48.014420
 30
0.0
 10
51.776680
 20
48.014650
 30
0.0
 10
52.680030
 20
48.014650
 30
0.0
  0
LWPOLYLINE
  5
266
100
AcDbEntity
  8
Ebene_1
 62
7
100
AcDbPolyline
 90
3
 70
0
 10
47.932350
 20
48.041130
 30
0.0
 10
47.932350
 20
48.015130
 30
0.0
 10
49.848590
 20
48.014650
 30
0.0
  0
SPLINE
  5
267
100
AcDbEntity
  8
Ebene_1
 62
7
100
AcDbSpline
 70
8
 71
3
 72
8
 73
4
 74
0
 40
0
 40
0
 40
0
 40
0
 40
1
 40
1
 40
1
 40
1
 10
54.375470
 20
49.037470
 30
0.0
 10
54.457370
 20
49.192860
 30
0.0
 10
54.498170
 20
49.256840
 30
0.0
 10
54.572150
 20
49.383990
 30
0.0
  0
SPLINE
  5
268
100
AcDbEntity
  8
Ebene_1
 62
7
100
AcDbSpline
 70
8
 71
3
 72
8
 73
4
 74
0
 40
0
 40
0
 40
0
 40
0
 40
1
 40
1
 40
1
 40
1
 10
54.572150
 20
49.383990
 30
0.0
 10
54.646150
 20
49.511130
 30
0.0
 10
54.906590
 20
49.852360
 30
0.0
 10
54.906590
 20
50.531590
 30
0.0
  0
SPLINE
  5
269
100
AcDbEntity
  8
Ebene_1
 62
7
100
AcDbSpline
 70
8
 71
3
 72
8
 73
4
 74
0
 40
0
 40
0
 40
0
 40
0
 40
1
 40
1
 40
1
 40
1
 10
54.906590
 20
50.531590
 30
0.0
 10
54.935990
 20
75.852560
 30
0.0
 10
54.998490
 20
101.178860
 30
0.0
 10
54.878790
 20
126.510230
 30
0.0
  0
LWPOLYLINE
  5
26a
100
AcDbEntity
  8
Ebene_1
 62
7
100
AcDbPolyline
 90
3
 70
0
 10
52.680030
 20
48.014650
 30
0.0
 10
53.836450
 20
48.014650
 30
0.0
 10
54.375470
 20
49.037470
 30
0.0
  0
SPLINE
  5
26b
100
AcDbEntity
  8
Ebene_1
 62
7
100
AcDbSpline
 70
8
 71
3
 72
8
 73
4
 74
0
 40
0
 40
0
 40
0
 40
0
 40
1
 40
1
 40
1
 40
1
 10
54.876790
 20
126.582630
 30
0.0
 10
54.804190
 20
128.287180
 30
0.0
 10
54.388440
 20
129.943630
 30
0.0
 10
53.101570
 20
131.042700
 30
0.0
  0
SPLINE
  5
26c
100
AcDbEntity
  8
Ebene_1
 62
7
100
AcDbSpline
 70
8
 71
3
 72
8
 73
4
 74
0
 40
0
 40
0
 40
0
 40
0
 40
1
 40
1
 40
1
 40
1
 10
53.101570
 20
131.042700
 30
0.0
 10
52.258110
 20
131.763080
 30
0.0
 10
51.246840
 20
132.093730
 30
0.0
 10
50.118910
 20
132.250150
 30
0.0
  0
SPLINE
  5
26d
100
AcDbEntity
  8
Ebene_1
 62
7
100
AcDbSpline
 70
8
 71
3
 72
8
 73
4
 74
0
 40
0
 40
0
 40
0
 40
0
 40
1
 40
1
 40
1
 40
1
 10
50.118910
 20
132.250150
 30
0.0
 10
50.005940
 20
138.523330
 30
0.0
 10
49.740500
 20
144.781150
 30
0.0
 10
49.459750
 20
151.014040
 30
0.0
  0
SPLINE
  5
26e
100
AcDbEntity
  8
Ebene_1
 62
7
100
AcDbSpline
 70
8
 71
3
 72
8
 73
4
 74
0
 40
0
 40
0
 40
0
 40
0
 40
1
 40
1
 40
1
 40
1
 10
49.459750
 20
151.014040
 30
0.0
 10
49.418950
 20
151.919010
 30
0.0
 10
49.583700
 20
152.376030
 30
0.0
 10
49.740860
 20
152.598150
 30
0.0
  0
SPLINE
  5
26f
100
AcDbEntity
  8
Ebene_1
 62
7
100
AcDbSpline
 70
8
 71
3
 72
8
 73
4
 74
0
 40
0
 40
0
 40
0
 40
0
 40
1
 40
1
 40
1
 40
1
 10
49.740860
 20
152.598150
 30
0.0
 10
49.898010
 20
152.820250
 30
0.0
 10
50.117530
 20
153.012310
 30
0.0
 10
50.868980
 20
153.154320
 30
0.0
  0
SPLINE
  5
270
100
AcDbEntity
  8
Ebene_1
 62
7
100
AcDbSpline
 70
8
 71
3
 72
8
 73
4
 74
0
 40
0
 40
0
 40
0
 40
0
 40
1
 40
1
 40
1
 40
1
 10
50.868980
 20
153.154320
 30
0.0
 10
55.208550
 20
153.974440
 30
0.0
 10
59.419240
 20
154.971820
 30
0.0
 10
63.529770
 20
155.254710
 30
0.0
  0
SPLINE
  5
271
100
AcDbEntity
  8
Ebene_1
 62
7
100
AcDbSpline
 70
8
 71
3
 72
8
 73
4
 74
0
 40
0
 40
0
 40
0
 40
0
 40
1
 40
1
 40
1
 40
1
 10
63.529770
 20
155.254710
 30
0.0
 10
67.579140
 20
155.533370
 30
0.0
 10
71.614410
 20
155.736010
 30
0.0
 10
75.626030
 20
155.754290
 30
0.0
  0
LWPOLYLINE
  5
272
100
AcDbEntity
  8
Ebene_1
 62
7
100
AcDbPolyline
 90
3
 70
0
 10
54.878790
 20
126.510230
 30
0.0
 10
54.878790
 20
126.546430
 30
0.0
 10
54.876790
 20
126.582630
 30
0.0
  0
SPLINE
  5
273
100
AcDbEntity
  8
Ebene_1
 62
7
100
AcDbSpline
 70
8
 71
3
 72
8
 73
4
 74
0
 40
0
 40
0
 40
0
 40
0
 40
1
 40
1
 40
1
 40
1
 10
74.566807
 20
136.590323
 30
0.0
 10
71.395952
 20
136.589816
 30
0.0
 10
68.225124
 20
136.577013
 30
0.0
 10
65.054430
 20
136.556653
 30
0.0
  0
SPLINE
  5
274
100
AcDbEntity
  8
Ebene_1
 62
7
100
AcDbSpline
 70
8
 71
3
 72
8
 73
4
 74
0
 40
0
 40
0
 40
0
 40
0
 40
1
 40
1
 40
1
 40
1
 10
65.054430
 20
136.556653
 30
0.0
 10
60.058825
 20
136.524525
 30
0.0
 10
57.930063
 20
134.517224
 30
0.0
 10
57.909378
 20
129.807721
 30
0.0
  0
SPLINE
  5
275
100
AcDbEntity
  8
Ebene_1
 62
7
100
AcDbSpline
 70
8
 71
3
 72
8
 73
4
 74
0
 40
0
 40
0
 40
0
 40
0
 40
1
 40
1
 40
1
 40
1
 10
57.909378
 20
129.807721
 30
0.0
 10
57.872955
 20
121.588231
 30
0.0
 10
57.899314
 20
113.368860
 30
0.0
 10
57.901469
 20
105.149624
 30
0.0
  0
SPLINE
  5
276
100
AcDbEntity
  8
Ebene_1
 62
7
100
AcDbSpline
 70
8
 71
3
 72
8
 73
4
 74
0
 40
0
 40
0
 40
0
 40
0
 40
1
 40
1
 40
1
 40
1
 10
57.901469
 20
105.149624
 30
0.0
 10
57.901469
 20
97.161647
 30
0.0
 10
57.901489
 20
89.174177
 30
0.0
 10
57.901976
 20
81.186200
 30
0.0
  0
SPLINE
  5
277
100
AcDbEntity
  8
Ebene_1
 62
7
100
AcDbSpline
 70
8
 71
3
 72
8
 73
4
 74
0
 40
0
 40
0
 40
0
 40
0
 40
1
 40
1
 40
1
 40
1
 10
57.901976
 20
81.186200
 30
0.0
 10
57.901976
 20
80.954687
 30
0.0
 10
57.903243
 20
80.722287
 30
0.0
 10
57.911888
 20
80.491002
 30
0.0
  0
SPLINE
  5
278
100
AcDbEntity
  8
Ebene_1
 62
7
100
AcDbSpline
 70
8
 71
3
 72
8
 73
4
 74
0
 40
0
 40
0
 40
0
 40
0
 40
1
 40
1
 40
1
 40
1
 10
57.911888
 20
80.491002
 30
0.0
 10
58.231217
 20
71.857517
 30
0.0
 10
65.471886
 20
65.149072
 30
0.0
 10
74.448006
 20
65.168998
 30
0.0
  0
SPLINE
  5
279
100
AcDbEntity
  8
Ebene_1
 62
7
100
AcDbSpline
 70
8
 71
3
 72
8
 73
4
 74
0
 40
0
 40
0
 40
0
 40
0
 40
1
 40
1
 40
1
 40
1
 10
74.448006
 20
65.168998
 30
0.0
 10
83.461844
 20
65.189026
 30
0.0
 10
90.792150
 20
71.882616
 30
0.0
 10
90.859842
 20
80.547461
 30
0.0
  0
SPLINE
  5
27a
100
AcDbEntity
  8
Ebene_1
 62
7
100
AcDbSpline
 70
8
 71
3
 72
8
 73
4
 74
0
 40
0
 40
0
 40
0
 40
0
 40
1
 40
1
 40
1
 40
1
 10
90.859842
 20
80.547461
 30
0.0
 10
90.989536
 20
97.101233
 30
0.0
 10
90.932373
 20
113.656274
 30
0.0
 10
90.891037
 20
130.210777
 30
0.0
  0
SPLINE
  5
27b
100
AcDbEntity
  8
Ebene_1
 62
7
100
AcDbSpline
 70
8
 71
3
 72
8
 73
4
 74
0
 40
0
 40
0
 40
0
 40
0
 40
1
 40
1
 40
1
 40
1
 10
90.891037
 20
130.210777
 30
0.0
 10
90.880440
 20
134.490599
 30
0.0
 10
88.665327
 20
136.510739
 30
0.0
 10
84.079222
 20
136.551205
 30
0.0
  0
SPLINE
  5
27c
100
AcDbEntity
  8
Ebene_1
 62
7
100
AcDbSpline
 70
8
 71
3
 72
8
 73
4
 74
0
 40
0
 40
0
 40
0
 40
0
 40
1
 40
1
 40
1
 40
1
 10
84.079222
 20
136.551205
 30
0.0
 10
80.908658
 20
136.579173
 30
0.0
 10
77.737696
 20
136.590822
 30
0.0
 10
74.566843
 20
136.590323
 30
0.0
  0
LWPOLYLINE
  5
27d
100
AcDbEntity
  8
Ebene_1
 62
7
100
AcDbPolyline
 90
2
 70
0
 10
75.626030
 20
155.754290
 30
0.0
 10
75.626220
 20
155.754340
 30
0.0
  0
SPLINE
  5
27e
100
AcDbEntity
  8
Ebene_1
 62
7
100
AcDbSpline
 70
8
 71
3
 72
8
 73
4
 74
0
 40
0
 40
0
 40
0
 40
0
 40
1
 40
1
 40
1
 40
1
 10
65.972939
 20
132.652375
 30
0.0
 10
71.577478
 20
132.535252
 30
0.0
 10
77.188071
 20
132.536669
 30
0.0
 10
82.792779
 20
132.651868
 30
0.0
  0
SPLINE
  5
27f
100
AcDbEntity
  8
Ebene_1
 62
7
100
AcDbSpline
 70
8
 71
3
 72
8
 73
4
 74
0
 40
0
 40
0
 40
0
 40
0
 40
1
 40
1
 40
1
 40
1
 10
82.792779
 20
132.651868
 30
0.0
 10
84.323522
 20
132.683322
 30
0.0
 10
85.315696
 20
132.356260
 30
0.0
 10
85.928087
 20
131.679390
 30
0.0
  0
SPLINE
  5
280
100
AcDbEntity
  8
Ebene_1
 62
7
100
AcDbSpline
 70
8
 71
3
 72
8
 73
4
 74
0
 40
0
 40
0
 40
0
 40
0
 40
1
 40
1
 40
1
 40
1
 10
85.928087
 20
131.679390
 30
0.0
 10
86.540473
 20
131.002519
 30
0.0
 10
86.790409
 20
129.949039
 30
0.0
 10
86.771826
 20
128.487634
 30
0.0
  0
SPLINE
  5
281
100
AcDbEntity
  8
Ebene_1
 62
7
100
AcDbSpline
 70
8
 71
3
 72
8
 73
4
 74
0
 40
0
 40
0
 40
0
 40
0
 40
1
 40
1
 40
1
 40
1
 10
86.771826
 20
128.487634
 30
0.0
 10
86.672292
 20
120.639680
 30
0.0
 10
86.738136
 20
112.790433
 30
0.0
 10
86.737662
 20
104.943640
 30
0.0
  0
SPLINE
  5
282
100
AcDbEntity
  8
Ebene_1
 62
7
100
AcDbSpline
 70
8
 71
3
 72
8
 73
4
 74
0
 40
0
 40
0
 40
0
 40
0
 40
1
 40
1
 40
1
 40
1
 10
86.737662
 20
104.943640
 30
0.0
 10
86.737154
 20
97.319944
 30
0.0
 10
86.776828
 20
89.697109
 30
0.0
 10
86.725772
 20
82.075009
 30
0.0
  0
SPLINE
  5
283
100
AcDbEntity
  8
Ebene_1
 62
7
100
AcDbSpline
 70
8
 71
3
 72
8
 73
4
 74
0
 40
0
 40
0
 40
0
 40
0
 40
1
 40
1
 40
1
 40
1
 10
86.725772
 20
82.075009
 30
0.0
 10
86.675795
 20
74.610471
 30
0.0
 10
81.407171
 20
69.144391
 30
0.0
 10
74.384092
 20
69.145583
 30
0.0
  0
SPLINE
  5
284
100
AcDbEntity
  8
Ebene_1
 62
7
100
AcDbSpline
 70
8
 71
3
 72
8
 73
4
 74
0
 40
0
 40
0
 40
0
 40
0
 40
1
 40
1
 40
1
 40
1
 10
74.384092
 20
69.145583
 30
0.0
 10
67.358340
 20
69.145583
 30
0.0
 10
62.071290
 20
74.611333
 30
0.0
 10
62.049840
 20
82.074020
 30
0.0
  0
SPLINE
  5
285
100
AcDbEntity
  8
Ebene_1
 62
7
100
AcDbSpline
 70
8
 71
3
 72
8
 73
4
 74
0
 40
0
 40
0
 40
0
 40
0
 40
1
 40
1
 40
1
 40
1
 10
62.049840
 20
82.074020
 30
0.0
 10
62.005664
 20
97.544180
 30
0.0
 10
62.074963
 20
113.014924
 30
0.0
 10
62.001808
 20
128.486148
 30
0.0
  0
SPLINE
  5
286
100
AcDbEntity
  8
Ebene_1
 62
7
100
AcDbSpline
 70
8
 71
3
 72
8
 73
4
 74
0
 40
0
 40
0
 40
0
 40
0
 40
1
 40
1
 40
1
 40
1
 10
62.001808
 20
128.486148
 30
0.0
 10
61.994887
 20
129.946874
 30
0.0
 10
62.242047
 20
131.002007
 30
0.0
 10
62.849015
 20
131.679390
 30
0.0
  0
SPLINE
  5
287
100
AcDbEntity
  8
Ebene_1
 62
7
100
AcDbSpline
 70
8
 71
3
 72
8
 73
4
 74
0
 40
0
 40
0
 40
0
 40
0
 40
1
 40
1
 40
1
 40
1
 10
62.849015
 20
131.679390
 30
0.0
 10
63.455983
 20
132.356772
 30
0.0
 10
64.439479
 20
132.684402
 30
0.0
 10
65.972934
 20
132.652364
 30
0.0
  0
LWPOLYLINE
  5
288
100
AcDbEntity
  8
Ebene_1
 62
7
100
AcDbPolyline
 90
1
 70
1
 10
74.566843
 20
136.590323
 30
0.0
  0
SPLINE
  5
289
100
AcDbEntity
  8
Ebene_1
 62
7
100
AcDbSpline
 70
8
 71
3
 72
8
 73
4
 74
0
 40
0
 40
0
 40
0
 40
0
 40
1
 40
1
 40
1
 40
1
 10
68.098210
 20
78.960713
 30
0.0
 10
69.056387
 20
78.960713
 30
0.0
 10
69.056387
 20
78.960713
 30
0.0
 10
70.014567
 20
78.960713
 30
0.0
  0
SPLINE
  5
28a
100
AcDbEntity
  8
Ebene_1
 62
7
100
AcDbSpline
 70
8
 71
3
 72
8
 73
4
 74
0
 40
0
 40
0
 40
0
 40
0
 40
1
 40
1
 40
1
 40
1
 10
70.014567
 20
78.960713
 30
0.0
 10
74.673842
 20
89.401213
 30
0.0
 10
78.717787
 20
100.289125
 30
0.0
 10
83.618600
 20
111.270175
 30
0.0
  0
SPLINE
  5
28b
100
AcDbEntity
  8
Ebene_1
 62
7
100
AcDbSpline
 70
8
 71
3
 72
8
 73
4
 74
0
 40
0
 40
0
 40
0
 40
0
 40
1
 40
1
 40
1
 40
1
 10
83.618600
 20
111.270175
 30
0.0
 10
81.473737
 20
110.618000
 30
0.0
 10
79.966087
 20
110.159388
 30
0.0
 10
78.113825
 20
109.596038
 30
0.0
  0
SPLINE
  5
28c
100
AcDbEntity
  8
Ebene_1
 62
7
100
AcDbSpline
 70
8
 71
3
 72
8
 73
4
 74
0
 40
0
 40
0
 40
0
 40
0
 40
1
 40
1
 40
1
 40
1
 10
78.113825
 20
109.596038
 30
0.0
 10
79.079500
 20
115.545413
 30
0.0
 10
80.622326
 20
121.383645
 30
0.0
 10
81.512714
 20
126.869657
 30
0.0
  0
SPLINE
  5
28d
100
AcDbEntity
  8
Ebene_1
 62
7
100
AcDbSpline
 70
8
 71
3
 72
8
 73
4
 74
0
 40
0
 40
0
 40
0
 40
0
 40
1
 40
1
 40
1
 40
1
 10
81.512714
 20
126.869657
 30
0.0
 10
80.554534
 20
126.869657
 30
0.0
 10
80.554534
 20
126.869657
 30
0.0
 10
79.596355
 20
126.869657
 30
0.0
  0
SPLINE
  5
28e
100
AcDbEntity
  8
Ebene_1
 62
7
100
AcDbSpline
 70
8
 71
3
 72
8
 73
4
 74
0
 40
0
 40
0
 40
0
 40
0
 40
1
 40
1
 40
1
 40
1
 10
79.596355
 20
126.869657
 30
0.0
 10
75.126842
 20
117.908307
 30
0.0
 10
71.223950
 20
108.760513
 30
0.0
 10
66.494137
 20
99.277138
 30
0.0
  0
SPLINE
  5
28f
100
AcDbEntity
  8
Ebene_1
 62
7
100
AcDbSpline
 70
8
 71
3
 72
8
 73
4
 74
0
 40
0
 40
0
 40
0
 40
0
 40
1
 40
1
 40
1
 40
1
 10
66.494137
 20
99.277138
 30
0.0
 10
68.943237
 20
99.771850
 30
0.0
 10
70.814025
 20
100.149713
 30
0.0
 10
73.060775
 20
100.603575
 30
0.0
  0
SPLINE
  5
290
100
AcDbEntity
  8
Ebene_1
 62
7
100
AcDbSpline
 70
8
 71
3
 72
8
 73
4
 74
0
 40
0
 40
0
 40
0
 40
0
 40
1
 40
1
 40
1
 40
1
 10
73.060775
 20
100.603575
 30
0.0
 10
71.542912
 20
93.241075
 30
0.0
 10
69.495898
 20
85.740863
 30
0.0
 10
68.098210
 20
78.960713
 30
0.0
  0
LWPOLYLINE
  5
291
100
AcDbEntity
  8
Ebene_1
 62
7
100
AcDbPolyline
 90
1
 70
1
 10
65.972934
 20
132.652364
 30
0.0
  0
SPLINE
  5
292
100
AcDbEntity
  8
Ebene_1
 62
7
100
AcDbSpline
 70
8
 71
3
 72
8
 73
4
 74
0
 40
0
 40
0
 40
0
 40
0
 40
1
 40
1
 40
1
 40
1
 10
36.792634
 20
34.121645
 30
0.0
 10
36.507869
 20
38.950970
 30
0.0
 10
36.767088
 20
39.226470
 30
0.0
 10
41.549125
 20
39.227658
 30
0.0
  0
SPLINE
  5
293
100
AcDbEntity
  8
Ebene_1
 62
7
100
AcDbSpline
 70
8
 71
3
 72
8
 73
4
 74
0
 40
0
 40
0
 40
0
 40
0
 40
1
 40
1
 40
1
 40
1
 10
41.549125
 20
39.227658
 30
0.0
 10
63.164769
 20
39.232645
 30
0.0
 10
84.780411
 20
39.233120
 30
0.0
 10
106.396053
 20
39.227420
 30
0.0
  0
SPLINE
  5
294
100
AcDbEntity
  8
Ebene_1
 62
7
100
AcDbSpline
 70
8
 71
3
 72
8
 73
4
 74
0
 40
0
 40
0
 40
0
 40
0
 40
1
 40
1
 40
1
 40
1
 10
106.396053
 20
39.227420
 30
0.0
 10
111.162913
 20
39.226233
 30
0.0
 10
111.355619
 20
39.007258
 30
0.0
 10
111.018760
 20
34.121883
 30
0.0
  0
SPLINE
  5
295
100
AcDbEntity
  8
Ebene_1
 62
7
100
AcDbSpline
 70
8
 71
3
 72
8
 73
4
 74
0
 40
0
 40
0
 40
0
 40
0
 40
1
 40
1
 40
1
 40
1
 10
111.018760
 20
34.121883
 30
0.0
 10
86.369873
 20
34.121645
 30
0.0
 10
61.706308
 20
34.121645
 30
0.0
 10
36.792634
 20
34.121645
 30
0.0
  0
LWPOLYLINE
  5
296
100
AcDbEntity
  8
Ebene_1
 62
7
100
AcDbPolyline
 90
1
 70
1
 10
68.098210
 20
78.960713
 30
0.0
  0
LWPOLYLINE
  5
297
100
AcDbEntity
  8
Ebene_1
 62
7
100
AcDbPolyline
 90
1
 70
1
 10
36.792634
 20
34.121645
 30
0.0
  0
SPLINE
  5
298
100
AcDbEntity
  8
Ebene_1
 62
7
100
AcDbSpline
 70
8
 71
3
 72
8
 73
4
 74
0
 40
0
 40
0
 40
0
 40
0
 40
1
 40
1
 40
1
 40
1
 10
86.303320
 20
146.991850
 30
0.0
 10
87.364980
 20
146.991850
 30
0.0
 10
88.219680
 20
146.137150
 30
0.0
 10
88.219680
 20
145.075490
 30
0.0
  0
LWPOLYLINE
  5
299
100
AcDbEntity
  8
Ebene_1
 62
7
100
AcDbPolyline
 90
2
 70
0
 10
61.390670
 20
146.991850
 30
0.0
 10
86.303320
 20
146.991850
 30
0.0
  0
SPLINE
  5
29a
100
AcDbEntity
  8
Ebene_1
 62
7
100
AcDbSpline
 70
8
 71
3
 72
8
 73
4
 74
0
 40
0
 40
0
 40
0
 40
0
 40
1
 40
1
 40
1
 40
1
 10
88.219680
 20
144.117310
 30
0.0
 10
88.219680
 20
143.055650
 30
0.0
 10
87.364980
 20
142.200960
 30
0.0
 10
86.303320
 20
142.200960
 30
0.0
  0
LWPOLYLINE
  5
29b
100
AcDbEntity
  8
Ebene_1
 62
7
100
AcDbPolyline
 90
2
 70
0
 10
88.219680
 20
145.075490
 30
0.0
 10
88.219680
 20
144.117310
 30
0.0
  0
SPLINE
  5
29c
100
AcDbEntity
  8
Ebene_1
 62
7
100
AcDbSpline
 70
8
 71
3
 72
8
 73
4
 74
0
 40
0
 40
0
 40
0
 40
0
 40
1
 40
1
 40
1
 40
1
 10
61.390670
 20
142.200960
 30
0.0
 10
60.329010
 20
142.200960
 30
0.0
 10
59.474320
 20
143.055650
 30
0.0
 10
59.474320
 20
144.117310
 30
0.0
  0
LWPOLYLINE
  5
29d
100
AcDbEntity
  8
Ebene_1
 62
7
100
AcDbPolyline
 90
2
 70
0
 10
86.303320
 20
142.200960
 30
0.0
 10
61.390670
 20
142.200960
 30
0.0
  0
SPLINE
  5
29e
100
AcDbEntity
  8
Ebene_1
 62
7
100
AcDbSpline
 70
8
 71
3
 72
8
 73
4
 74
0
 40
0
 40
0
 40
0
 40
0
 40
1
 40
1
 40
1
 40
1
 10
59.474320
 20
145.075490
 30
0.0
 10
59.474320
 20
146.137150
 30
0.0
 10
60.329010
 20
146.991850
 30
0.0
 10
61.390670
 20
146.991850
 30
0.0
  0
LWPOLYLINE
  5
29f
100
AcDbEntity
  8
Ebene_1
 62
7
100
AcDbPolyline
 90
2
 70
0
 10
59.474320
 20
144.117310
 30
0.0
 10
59.474320
 20
145.075490
 30
0.0
  0
LWPOLYLINE
  5
2a0
100
AcDbEntity
  8
Ebene_1
 62
7
100
AcDbPolyline
 90
1
 70
1
 10
61.390670
 20
146.991850
 30
0.0
  0
LWPOLYLINE
  5
2a1
100
AcDbEntity
  8
Ebene_1
 62
7
100
AcDbPolyline
 90
7
 70
1
 10
127.521080
 20
82.451920
 30
0.0
 10
132.409660
 20
82.451920
 30
0.0
 10
140.122780
 20
101.598910
 30
0.0
 10
134.337940
 20
101.598910
 30
0.0
 10
130.019690
 20
89.567540
 30
0.0
 10
125.701430
 20
101.598910
 30
0.0
 10
119.807960
 20
101.598910
 30
0.0
  0
LWPOLYLINE
  5
2a2
100
AcDbEntity
  8
Ebene_1
 62
7
100
AcDbPolyline
 90
12
 70
1
 10
141.963220
 20
82.587720
 30
0.0
 10
157.389440
 20
82.587720
 30
0.0
 10
157.389440
 20
87.068930
 30
0.0
 10
147.177710
 20
87.068930
 30
0.0
 10
147.177710
 20
90.083560
 30
0.0
 10
156.303070
 20
90.083560
 30
0.0
 10
156.303070
 20
94.238860
 30
0.0
 10
147.177710
 20
94.238860
 30
0.0
 10
147.177710
 20
97.117700
 30
0.0
 10
157.253640
 20
97.117700
 30
0.0
 10
157.253640
 20
101.598910
 30
0.0
 10
141.963220
 20
101.598910
 30
0.0
  0
LWPOLYLINE
  5
2a3
100
AcDbEntity
  8
Ebene_1
 62
7
100
AcDbPolyline
 90
12
 70
1
 10
160.104470
 20
82.587720
 30
0.0
 10
165.373280
 20
82.587720
 30
0.0
 10
165.373280
 20
89.811970
 30
0.0
 10
172.135830
 20
89.811970
 30
0.0
 10
172.135830
 20
82.587720
 30
0.0
 10
177.404640
 20
82.587720
 30
0.0
 10
177.404640
 20
101.598910
 30
0.0
 10
172.135830
 20
101.598910
 30
0.0
 10
172.135830
 20
94.483290
 30
0.0
 10
165.373280
 20
94.483290
 30
0.0
 10
165.373280
 20
101.598910
 30
0.0
 10
160.104470
 20
101.598910
 30
0.0
  0
SPLINE
  5
2a4
100
AcDbEntity
  8
Ebene_1
 62
7
100
AcDbSpline
 70
8
 71
3
 72
8
 73
4
 74
0
 40
0
 40
0
 40
0
 40
0
 40
1
 40
1
 40
1
 40
1
 10
198.802840
 20
82.207500
 30
0.0
 10
203.012460
 20
82.207500
 30
0.0
 10
205.429600
 20
84.027140
 30
0.0
 10
207.222080
 20
86.498590
 30
0.0
  0
LWPOLYLINE
  5
2a5
100
AcDbEntity
  8
Ebene_1
 62
7
100
AcDbPolyline
 90
4
 70
1
 10
180.900490
 20
82.587720
 30
0.0
 10
186.196470
 20
82.587720
 30
0.0
 10
186.196470
 20
101.598910
 30
0.0
 10
180.900490
 20
101.598910
 30
0.0
  0
SPLINE
  5
2a6
100
AcDbEntity
  8
Ebene_1
 62
7
100
AcDbSpline
 70
8
 71
3
 72
8
 73
4
 74
0
 40
0
 40
0
 40
0
 40
0
 40
1
 40
1
 40
1
 40
1
 10
203.256890
 20
89.323110
 30
0.0
 10
202.116220
 20
87.938010
 30
0.0
 10
200.948390
 20
87.014610
 30
0.0
 10
198.965800
 20
87.014610
 30
0.0
  0
SPLINE
  5
2a7
100
AcDbEntity
  8
Ebene_1
 62
7
100
AcDbSpline
 70
8
 71
3
 72
8
 73
4
 74
0
 40
0
 40
0
 40
0
 40
0
 40
1
 40
1
 40
1
 40
1
 10
198.965800
 20
87.014610
 30
0.0
 10
196.304230
 20
87.014610
 30
0.0
 10
194.430270
 20
89.241630
 30
0.0
 10
194.430270
 20
92.093310
 30
0.0
  0
LWPOLYLINE
  5
2a8
100
AcDbEntity
  8
Ebene_1
 62
7
100
AcDbPolyline
 90
2
 70
0
 10
207.222080
 20
86.498590
 30
0.0
 10
203.256890
 20
89.323110
 30
0.0
  0
SPLINE
  5
2a9
100
AcDbEntity
  8
Ebene_1
 62
7
100
AcDbSpline
 70
8
 71
3
 72
8
 73
4
 74
0
 40
0
 40
0
 40
0
 40
0
 40
1
 40
1
 40
1
 40
1
 10
194.430270
 20
92.147610
 30
0.0
 10
194.430270
 20
94.917810
 30
0.0
 10
196.304230
 20
97.171990
 30
0.0
 10
198.965800
 20
97.171990
 30
0.0
  0
SPLINE
  5
2aa
100
AcDbEntity
  8
Ebene_1
 62
7
100
AcDbSpline
 70
8
 71
3
 72
8
 73
4
 74
0
 40
0
 40
0
 40
0
 40
0
 40
1
 40
1
 40
1
 40
1
 10
198.965800
 20
97.171990
 30
0.0
 10
200.785430
 20
97.171990
 30
0.0
 10
202.034740
 20
96.302910
 30
0.0
 10
203.121090
 20
94.944970
 30
0.0
  0
LWPOLYLINE
  5
2ab
100
AcDbEntity
  8
Ebene_1
 62
7
100
AcDbPolyline
 90
2
 70
0
 10
194.430270
 20
92.093310
 30
0.0
 10
194.430270
 20
92.147610
 30
0.0
  0
SPLINE
  5
2ac
100
AcDbEntity
  8
Ebene_1
 62
7
100
AcDbSpline
 70
8
 71
3
 72
8
 73
4
 74
0
 40
0
 40
0
 40
0
 40
0
 40
1
 40
1
 40
1
 40
1
 10
207.086280
 20
98.013920
 30
0.0
 10
205.402440
 20
100.349580
 30
0.0
 10
202.903820
 20
101.979110
 30
0.0
 10
199.020110
 20
101.979110
 30
0.0
  0
SPLINE
  5
2ad
100
AcDbEntity
  8
Ebene_1
 62
7
100
AcDbSpline
 70
8
 71
3
 72
8
 73
4
 74
0
 40
0
 40
0
 40
0
 40
0
 40
1
 40
1
 40
1
 40
1
 10
199.020110
 20
101.979110
 30
0.0
 10
193.262440
 20
101.979110
 30
0.0
 10
188.998500
 20
97.633700
 30
0.0
 10
188.998500
 20
92.093290
 30
0.0
  0
LWPOLYLINE
  5
2ae
100
AcDbEntity
  8
Ebene_1
 62
7
100
AcDbPolyline
 90
2
 70
0
 10
203.121090
 20
94.944970
 30
0.0
 10
207.086280
 20
98.013920
 30
0.0
  0
SPLINE
  5
2af
100
AcDbEntity
  8
Ebene_1
 62
7
100
AcDbSpline
 70
8
 71
3
 72
8
 73
4
 74
0
 40
0
 40
0
 40
0
 40
0
 40
1
 40
1
 40
1
 40
1
 10
188.998500
 20
92.038990
 30
0.0
 10
188.998500
 20
86.362800
 30
0.0
 10
193.371080
 20
82.207500
 30
0.0
 10
198.802840
 20
82.207500
 30
0.0
  0
LWPOLYLINE
  5
2b0
100
AcDbEntity
  8
Ebene_1
 62
7
100
AcDbPolyline
 90
2
 70
0
 10
188.998500
 20
92.093290
 30
0.0
 10
188.998500
 20
92.038990
 30
0.0
  0
LWPOLYLINE
  5
2b1
100
AcDbEntity
  8
Ebene_1
 62
7
100
AcDbPolyline
 90
1
 70
1
 10
198.802840
 20
82.207500
 30
0.0
  0
LWPOLYLINE
  5
2b2
100
AcDbEntity
  8
Ebene_1
 62
7
100
AcDbPolyline
 90
6
 70
1
 10
209.488990
 20
82.587720
 30
0.0
 10
223.964650
 20
82.587720
 30
0.0
 10
223.964650
 20
87.204720
 30
0.0
 10
214.757810
 20
87.204720
 30
0.0
 10
214.757810
 20
101.598910
 30
0.0
 10
209.488990
 20
101.598910
 30
0.0
  0
SPLINE
  5
2b3
100
AcDbEntity
  8
Ebene_1
 62
7
100
AcDbSpline
 70
8
 71
3
 72
8
 73
4
 74
0
 40
0
 40
0
 40
0
 40
0
 40
1
 40
1
 40
1
 40
1
 10
251.807970
 20
82.261810
 30
0.0
 10
256.424980
 20
82.261810
 30
0.0
 10
259.493930
 20
84.570310
 30
0.0
 10
259.493930
 20
88.454030
 30
0.0
  0
LWPOLYLINE
  5
2b4
100
AcDbEntity
  8
Ebene_1
 62
7
100
AcDbPolyline
 90
12
 70
1
 10
226.198040
 20
82.587720
 30
0.0
 10
241.624260
 20
82.587720
 30
0.0
 10
241.624260
 20
87.068930
 30
0.0
 10
231.412540
 20
87.068930
 30
0.0
 10
231.412540
 20
90.083560
 30
0.0
 10
240.537910
 20
90.083560
 30
0.0
 10
240.537910
 20
94.238860
 30
0.0
 10
231.412540
 20
94.238860
 30
0.0
 10
231.412540
 20
97.117700
 30
0.0
 10
241.488470
 20
97.117700
 30
0.0
 10
241.488470
 20
101.598910
 30
0.0
 10
226.198040
 20
101.598910
 30
0.0
  0
SPLINE
  5
2b5
100
AcDbEntity
  8
Ebene_1
 62
7
100
AcDbSpline
 70
8
 71
3
 72
8
 73
4
 74
0
 40
0
 40
0
 40
0
 40
0
 40
1
 40
1
 40
1
 40
1
 10
259.493930
 20
88.508330
 30
0.0
 10
259.493930
 20
92.066140
 30
0.0
 10
256.778050
 20
93.478390
 30
0.0
 10
252.405470
 20
94.428950
 30
0.0
  0
SPLINE
  5
2b6
100
AcDbEntity
  8
Ebene_1
 62
7
100
AcDbSpline
 70
8
 71
3
 72
8
 73
4
 74
0
 40
0
 40
0
 40
0
 40
0
 40
1
 40
1
 40
1
 40
1
 10
252.405470
 20
94.428950
 30
0.0
 10
249.771060
 20
95.026450
 30
0.0
 10
249.119250
 20
95.406670
 30
0.0
 10
249.119250
 20
96.275750
 30
0.0
  0
LWPOLYLINE
  5
2b7
100
AcDbEntity
  8
Ebene_1
 62
7
100
AcDbPolyline
 90
2
 70
0
 10
259.493930
 20
88.454030
 30
0.0
 10
259.493930
 20
88.508330
 30
0.0
  0
SPLINE
  5
2b8
100
AcDbEntity
  8
Ebene_1
 62
7
100
AcDbSpline
 70
8
 71
3
 72
8
 73
4
 74
0
 40
0
 40
0
 40
0
 40
0
 40
1
 40
1
 40
1
 40
1
 10
249.119250
 20
96.330050
 30
0.0
 10
249.119250
 20
97.009020
 30
0.0
 10
249.743900
 20
97.552200
 30
0.0
 10
251.020370
 20
97.552200
 30
0.0
  0
SPLINE
  5
2b9
100
AcDbEntity
  8
Ebene_1
 62
7
100
AcDbSpline
 70
8
 71
3
 72
8
 73
4
 74
0
 40
0
 40
0
 40
0
 40
0
 40
1
 40
1
 40
1
 40
1
 10
251.020370
 20
97.552200
 30
0.0
 10
252.704220
 20
97.552200
 30
0.0
 10
254.605330
 20
96.900380
 30
0.0
 10
256.343500
 20
95.678240
 30
0.0
  0
LWPOLYLINE
  5
2ba
100
AcDbEntity
  8
Ebene_1
 62
7
100
AcDbPolyline
 90
2
 70
0
 10
249.119250
 20
96.275750
 30
0.0
 10
249.119250
 20
96.330050
 30
0.0
  0
SPLINE
  5
2bb
100
AcDbEntity
  8
Ebene_1
 62
7
100
AcDbSpline
 70
8
 71
3
 72
8
 73
4
 74
0
 40
0
 40
0
 40
0
 40
0
 40
1
 40
1
 40
1
 40
1
 10
258.977910
 20
99.399000
 30
0.0
 10
256.913840
 20
101.055690
 30
0.0
 10
254.388070
 20
101.924770
 30
0.0
 10
251.156170
 20
101.924770
 30
0.0
  0
SPLINE
  5
2bc
100
AcDbEntity
  8
Ebene_1
 62
7
100
AcDbSpline
 70
8
 71
3
 72
8
 73
4
 74
0
 40
0
 40
0
 40
0
 40
0
 40
1
 40
1
 40
1
 40
1
 10
251.156170
 20
101.924770
 30
0.0
 10
246.593480
 20
101.924770
 30
0.0
 10
243.796120
 20
99.371840
 30
0.0
 10
243.796120
 20
95.841190
 30
0.0
  0
LWPOLYLINE
  5
2bd
100
AcDbEntity
  8
Ebene_1
 62
7
100
AcDbPolyline
 90
2
 70
0
 10
256.343500
 20
95.678240
 30
0.0
 10
258.977910
 20
99.399000
 30
0.0
  0
SPLINE
  5
2be
100
AcDbEntity
  8
Ebene_1
 62
7
100
AcDbSpline
 70
8
 71
3
 72
8
 73
4
 74
0
 40
0
 40
0
 40
0
 40
0
 40
1
 40
1
 40
1
 40
1
 10
243.796120
 20
95.786890
 30
0.0
 10
243.796120
 20
91.876020
 30
0.0
 10
246.919380
 20
90.735340
 30
0.0
 10
250.966050
 20
89.811940
 30
0.0
  0
SPLINE
  5
2bf
100
AcDbEntity
  8
Ebene_1
 62
7
100
AcDbSpline
 70
8
 71
3
 72
8
 73
4
 74
0
 40
0
 40
0
 40
0
 40
0
 40
1
 40
1
 40
1
 40
1
 10
250.966050
 20
89.811940
 30
0.0
 10
253.546140
 20
89.214440
 30
0.0
 10
254.170800
 20
88.779910
 30
0.0
 10
254.170800
 20
87.992300
 30
0.0
  0
LWPOLYLINE
  5
2c0
100
AcDbEntity
  8
Ebene_1
 62
7
100
AcDbPolyline
 90
2
 70
0
 10
243.796120
 20
95.841190
 30
0.0
 10
243.796120
 20
95.786890
 30
0.0
  0
SPLINE
  5
2c1
100
AcDbEntity
  8
Ebene_1
 62
7
100
AcDbSpline
 70
8
 71
3
 72
8
 73
4
 74
0
 40
0
 40
0
 40
0
 40
0
 40
1
 40
1
 40
1
 40
1
 10
254.170800
 20
87.938000
 30
0.0
 10
254.170800
 20
87.123240
 30
0.0
 10
253.410350
 20
86.634380
 30
0.0
 10
251.998080
 20
86.634380
 30
0.0
  0
SPLINE
  5
2c2
100
AcDbEntity
  8
Ebene_1
 62
7
100
AcDbSpline
 70
8
 71
3
 72
8
 73
4
 74
0
 40
0
 40
0
 40
0
 40
0
 40
1
 40
1
 40
1
 40
1
 10
251.998080
 20
86.634380
 30
0.0
 10
249.798220
 20
86.634380
 30
0.0
 10
247.706990
 20
87.421990
 30
0.0
 10
245.833030
 20
88.915720
 30
0.0
  0
LWPOLYLINE
  5
2c3
100
AcDbEntity
  8
Ebene_1
 62
7
100
AcDbPolyline
 90
2
 70
0
 10
254.170800
 20
87.992300
 30
0.0
 10
254.170800
 20
87.938000
 30
0.0
  0
SPLINE
  5
2c4
100
AcDbEntity
  8
Ebene_1
 62
7
100
AcDbSpline
 70
8
 71
3
 72
8
 73
4
 74
0
 40
0
 40
0
 40
0
 40
0
 40
1
 40
1
 40
1
 40
1
 10
242.899880
 20
85.412230
 30
0.0
 10
245.235540
 20
83.320990
 30
0.0
 10
248.440280
 20
82.261800
 30
0.0
 10
251.807970
 20
82.261800
 30
0.0
  0
LWPOLYLINE
  5
2c5
100
AcDbEntity
  8
Ebene_1
 62
7
100
AcDbPolyline
 90
2
 70
0
 10
245.833030
 20
88.915720
 30
0.0
 10
242.899880
 20
85.412230
 30
0.0
  0
LWPOLYLINE
  5
2c6
100
AcDbEntity
  8
Ebene_1
 62
7
100
AcDbPolyline
 90
1
 70
1
 10
251.807970
 20
82.261800
 30
0.0
  0
SPLINE
  5
2c7
100
AcDbEntity
  8
Ebene_1
 62
7
100
AcDbSpline
 70
8
 71
3
 72
8
 73
4
 74
0
 40
0
 40
0
 40
0
 40
0
 40
1
 40
1
 40
1
 40
1
 10
125.692160
 20
112.860090
 30
0.0
 10
124.096120
 20
112.860090
 30
0.0
 10
122.650660
 20
112.259220
 30
0.0
 10
121.511580
 20
111.125720
 30
0.0
  0
SPLINE
  5
2c8
100
AcDbEntity
  8
Ebene_1
 62
7
100
AcDbSpline
 70
8
 71
3
 72
8
 73
4
 74
0
 40
0
 40
0
 40
0
 40
0
 40
1
 40
1
 40
1
 40
1
 10
121.511580
 20
111.125720
 30
0.0
 10
120.395890
 20
110.015470
 30
0.0
 10
119.807960
 20
108.590100
 30
0.0
 10
119.807960
 20
107.006580
 30
0.0
  0
LWPOLYLINE
  5
2c9
100
AcDbEntity
  8
Ebene_1
 62
7
100
AcDbPolyline
 90
5
 70
0
 10
119.807960
 20
133.278060
 30
0.0
 10
119.807960
 20
116.465560
 30
0.0
 10
145.454660
 20
116.465560
 30
0.0
 10
145.454660
 20
112.860090
 30
0.0
 10
125.692160
 20
112.860090
 30
0.0
  0
SPLINE
  5
2ca
100
AcDbEntity
  8
Ebene_1
 62
7
100
AcDbSpline
 70
8
 71
3
 72
8
 73
4
 74
0
 40
0
 40
0
 40
0
 40
0
 40
1
 40
1
 40
1
 40
1
 10
146.208340
 20
126.672590
 30
0.0
 10
147.776300
 20
126.672590
 30
0.0
 10
149.203520
 20
127.259120
 30
0.0
 10
150.341810
 20
128.362050
 30
0.0
  0
SPLINE
  5
2cb
100
AcDbEntity
  8
Ebene_1
 62
7
100
AcDbSpline
 70
8
 71
3
 72
8
 73
4
 74
0
 40
0
 40
0
 40
0
 40
0
 40
1
 40
1
 40
1
 40
1
 10
150.341810
 20
128.362050
 30
0.0
 10
151.488300
 20
129.472910
 30
0.0
 10
152.092550
 20
130.916550
 30
0.0
 10
152.092550
 20
132.528060
 30
0.0
  0
LWPOLYLINE
  5
2cc
100
AcDbEntity
  8
Ebene_1
 62
7
100
AcDbPolyline
 90
8
 70
0
 10
119.807960
 20
107.006580
 30
0.0
 10
119.807960
 20
106.256580
 30
0.0
 10
120.561640
 20
106.256580
 30
0.0
 10
152.092550
 20
106.256580
 30
0.0
 10
152.092550
 20
123.069080
 30
0.0
 10
126.445840
 20
123.069080
 30
0.0
 10
126.445840
 20
126.672590
 30
0.0
 10
146.208340
 20
126.672590
 30
0.0
  0
LWPOLYLINE
  5
2cd
100
AcDbEntity
  8
Ebene_1
 62
7
100
AcDbPolyline
 90
3
 70
0
 10
152.092550
 20
132.528060
 30
0.0
 10
152.092550
 20
133.278060
 30
0.0
 10
119.807960
 20
133.278060
 30
0.0
  0
SPLINE
  5
2ce
100
AcDbEntity
  8
Ebene_1
 62
7
100
AcDbSpline
 70
8
 71
3
 72
8
 73
4
 74
0
 40
0
 40
0
 40
0
 40
0
 40
1
 40
1
 40
1
 40
1
 10
155.713750
 20
112.110090
 30
0.0
 10
155.713750
 20
110.526570
 30
0.0
 10
156.298890
 20
109.092840
 30
0.0
 10
157.409530
 20
107.957750
 30
0.0
  0
LWPOLYLINE
  5
2cf
100
AcDbEntity
  8
Ebene_1
 62
7
100
AcDbPolyline
 90
2
 70
0
 10
155.713750
 20
112.860090
 30
0.0
 10
155.713750
 20
112.110090
 30
0.0
  0
SPLINE
  5
2d0
100
AcDbEntity
  8
Ebene_1
 62
7
100
AcDbSpline
 70
8
 71
3
 72
8
 73
4
 74
0
 40
0
 40
0
 40
0
 40
0
 40
1
 40
1
 40
1
 40
1
 10
157.417530
 20
107.951750
 30
0.0
 10
158.535630
 20
106.839110
 30
0.0
 10
159.981380
 20
106.256440
 30
0.0
 10
161.596130
 20
106.256440
 30
0.0
  0
LWPOLYLINE
  5
2d1
100
AcDbEntity
  8
Ebene_1
 62
7
100
AcDbPolyline
 90
3
 70
0
 10
157.409530
 20
107.957750
 30
0.0
 10
157.413530
 20
107.955750
 30
0.0
 10
157.417530
 20
107.951750
 30
0.0
  0
SPLINE
  5
2d2
100
AcDbEntity
  8
Ebene_1
 62
7
100
AcDbSpline
 70
8
 71
3
 72
8
 73
4
 74
0
 40
0
 40
0
 40
0
 40
0
 40
1
 40
1
 40
1
 40
1
 10
182.114290
 20
106.256440
 30
0.0
 10
183.682240
 20
106.256440
 30
0.0
 10
185.107490
 20
106.841010
 30
0.0
 10
186.245790
 20
107.943940
 30
0.0
  0
SPLINE
  5
2d3
100
AcDbEntity
  8
Ebene_1
 62
7
100
AcDbSpline
 70
8
 71
3
 72
8
 73
4
 74
0
 40
0
 40
0
 40
0
 40
0
 40
1
 40
1
 40
1
 40
1
 10
186.245790
 20
107.943940
 30
0.0
 10
187.392270
 20
109.054800
 30
0.0
 10
187.996530
 20
110.498450
 30
0.0
 10
187.996530
 20
112.109950
 30
0.0
  0
LWPOLYLINE
  5
2d4
100
AcDbEntity
  8
Ebene_1
 62
7
100
AcDbPolyline
 90
2
 70
0
 10
161.596130
 20
106.256440
 30
0.0
 10
182.114290
 20
106.256440
 30
0.0
  0
LWPOLYLINE
  5
2d5
100
AcDbEntity
  8
Ebene_1
 62
7
100
AcDbPolyline
 90
3
 70
0
 10
187.996530
 20
112.109950
 30
0.0
 10
187.996530
 20
112.859950
 30
0.0
 10
155.713750
 20
112.860090
 30
0.0
  0
SPLINE
  5
2d6
100
AcDbEntity
  8
Ebene_1
 62
7
100
AcDbSpline
 70
8
 71
3
 72
8
 73
4
 74
0
 40
0
 40
0
 40
0
 40
0
 40
1
 40
1
 40
1
 40
1
 10
155.713750
 20
122.319080
 30
0.0
 10
155.713750
 20
120.735550
 30
0.0
 10
156.298890
 20
119.301820
 30
0.0
 10
157.409530
 20
118.166730
 30
0.0
  0
LWPOLYLINE
  5
2d7
100
AcDbEntity
  8
Ebene_1
 62
7
100
AcDbPolyline
 90
2
 70
0
 10
155.713750
 20
123.069080
 30
0.0
 10
155.713750
 20
122.319080
 30
0.0
  0
SPLINE
  5
2d8
100
AcDbEntity
  8
Ebene_1
 62
7
100
AcDbSpline
 70
8
 71
3
 72
8
 73
4
 74
0
 40
0
 40
0
 40
0
 40
0
 40
1
 40
1
 40
1
 40
1
 10
157.417530
 20
118.160730
 30
0.0
 10
158.535630
 20
117.048090
 30
0.0
 10
159.981380
 20
116.465420
 30
0.0
 10
161.596130
 20
116.465420
 30
0.0
  0
LWPOLYLINE
  5
2d9
100
AcDbEntity
  8
Ebene_1
 62
7
100
AcDbPolyline
 90
3
 70
0
 10
157.409530
 20
118.166730
 30
0.0
 10
157.413530
 20
118.162730
 30
0.0
 10
157.417530
 20
118.160730
 30
0.0
  0
SPLINE
  5
2da
100
AcDbEntity
  8
Ebene_1
 62
7
100
AcDbSpline
 70
8
 71
3
 72
8
 73
4
 74
0
 40
0
 40
0
 40
0
 40
0
 40
1
 40
1
 40
1
 40
1
 10
182.114290
 20
116.465420
 30
0.0
 10
183.682240
 20
116.465420
 30
0.0
 10
185.107490
 20
117.049990
 30
0.0
 10
186.245790
 20
118.152920
 30
0.0
  0
SPLINE
  5
2db
100
AcDbEntity
  8
Ebene_1
 62
7
100
AcDbSpline
 70
8
 71
3
 72
8
 73
4
 74
0
 40
0
 40
0
 40
0
 40
0
 40
1
 40
1
 40
1
 40
1
 10
186.245790
 20
118.152920
 30
0.0
 10
187.392270
 20
119.263780
 30
0.0
 10
187.996530
 20
120.707430
 30
0.0
 10
187.996530
 20
122.318940
 30
0.0
  0
LWPOLYLINE
  5
2dc
100
AcDbEntity
  8
Ebene_1
 62
7
100
AcDbPolyline
 90
2
 70
0
 10
161.596130
 20
116.465420
 30
0.0
 10
182.114290
 20
116.465420
 30
0.0
  0
LWPOLYLINE
  5
2dd
100
AcDbEntity
  8
Ebene_1
 62
7
100
AcDbPolyline
 90
3
 70
0
 10
187.996530
 20
122.318940
 30
0.0
 10
187.996530
 20
123.068940
 30
0.0
 10
155.713750
 20
123.069080
 30
0.0
  0
SPLINE
  5
2de
100
AcDbEntity
  8
Ebene_1
 62
7
100
AcDbSpline
 70
8
 71
3
 72
8
 73
4
 74
0
 40
0
 40
0
 40
0
 40
0
 40
1
 40
1
 40
1
 40
1
 10
155.713750
 20
132.528060
 30
0.0
 10
155.713750
 20
130.944540
 30
0.0
 10
156.298890
 20
129.510810
 30
0.0
 10
157.409530
 20
128.375720
 30
0.0
  0
LWPOLYLINE
  5
2df
100
AcDbEntity
  8
Ebene_1
 62
7
100
AcDbPolyline
 90
2
 70
0
 10
155.713750
 20
133.278060
 30
0.0
 10
155.713750
 20
132.528060
 30
0.0
  0
SPLINE
  5
2e0
100
AcDbEntity
  8
Ebene_1
 62
7
100
AcDbSpline
 70
8
 71
3
 72
8
 73
4
 74
0
 40
0
 40
0
 40
0
 40
0
 40
1
 40
1
 40
1
 40
1
 10
157.417530
 20
128.367720
 30
0.0
 10
158.535630
 20
127.255080
 30
0.0
 10
159.981380
 20
126.672410
 30
0.0
 10
161.596130
 20
126.672410
 30
0.0
  0
LWPOLYLINE
  5
2e1
100
AcDbEntity
  8
Ebene_1
 62
7
100
AcDbPolyline
 90
3
 70
0
 10
157.409530
 20
128.375720
 30
0.0
 10
157.413530
 20
128.371720
 30
0.0
 10
157.417530
 20
128.367720
 30
0.0
  0
SPLINE
  5
2e2
100
AcDbEntity
  8
Ebene_1
 62
7
100
AcDbSpline
 70
8
 71
3
 72
8
 73
4
 74
0
 40
0
 40
0
 40
0
 40
0
 40
1
 40
1
 40
1
 40
1
 10
182.114290
 20
126.672410
 30
0.0
 10
183.682240
 20
126.672410
 30
0.0
 10
185.107490
 20
127.258930
 30
0.0
 10
186.245790
 20
128.361860
 30
0.0
  0
SPLINE
  5
2e3
100
AcDbEntity
  8
Ebene_1
 62
7
100
AcDbSpline
 70
8
 71
3
 72
8
 73
4
 74
0
 40
0
 40
0
 40
0
 40
0
 40
1
 40
1
 40
1
 40
1
 10
186.245790
 20
128.361860
 30
0.0
 10
187.392270
 20
129.472720
 30
0.0
 10
187.996530
 20
130.916370
 30
0.0
 10
187.996530
 20
132.527870
 30
0.0
  0
LWPOLYLINE
  5
2e4
100
AcDbEntity
  8
Ebene_1
 62
7
100
AcDbPolyline
 90
2
 70
0
 10
161.596130
 20
126.672410
 30
0.0
 10
182.114290
 20
126.672410
 30
0.0
  0
LWPOLYLINE
  5
2e5
100
AcDbEntity
  8
Ebene_1
 62
7
100
AcDbPolyline
 90
3
 70
0
 10
187.996530
 20
132.527870
 30
0.0
 10
187.996530
 20
133.277870
 30
0.0
 10
155.713750
 20
133.278060
 30
0.0
  0
LWPOLYLINE
  5
2e6
100
AcDbEntity
  8
Ebene_1
 62
7
100
AcDbPolyline
 90
25
 70
1
 10
191.619540
 20
133.278060
 30
0.0
 10
191.619540
 20
127.112050
 30
0.0
 10
196.969880
 20
121.787830
 30
0.0
 10
199.001280
 20
119.766340
 30
0.0
 10
191.619540
 20
112.420640
 30
0.0
 10
191.619540
 20
106.256580
 30
0.0
 10
192.373220
 20
106.256580
 30
0.0
 10
198.255450
 20
106.256580
 30
0.0
 10
198.255450
 20
109.246810
 30
0.0
 10
207.760860
 20
118.705800
 30
0.0
 10
217.266250
 20
109.246810
 30
0.0
 10
217.266250
 20
106.256580
 30
0.0
 10
218.019930
 20
106.256580
 30
0.0
 10
223.902170
 20
106.256580
 30
0.0
 10
223.902170
 20
112.420640
 30
0.0
 10
216.516500
 20
119.770250
 30
0.0
 10
218.294710
 20
121.569080
 30
0.0
 10
218.332010
 20
121.569080
 30
0.0
 10
223.902180
 20
127.112050
 30
0.0
 10
223.902180
 20
133.278060
 30
0.0
 10
217.266260
 20
133.278060
 30
0.0
 10
217.266260
 20
130.285870
 30
0.0
 10
207.760870
 20
120.826890
 30
0.0
 10
198.255460
 20
130.285870
 30
0.0
 10
198.255460
 20
133.278060
 30
0.0
  0
LWPOLYLINE
  5
2e7
100
AcDbEntity
  8
Ebene_1
 62
7
100
AcDbPolyline
 90
14
 70
1
 10
227.525320
 20
133.278060
 30
0.0
 10
227.525320
 20
127.112050
 30
0.0
 10
240.347700
 20
114.352280
 30
0.0
 10
240.347700
 20
106.256580
 30
0.0
 10
241.101380
 20
106.256580
 30
0.0
 10
246.983620
 20
106.256580
 30
0.0
 10
246.983620
 20
114.352280
 30
0.0
 10
259.807950
 20
127.112050
 30
0.0
 10
259.807950
 20
133.278060
 30
0.0
 10
253.172040
 20
133.278060
 30
0.0
 10
253.172040
 20
130.285870
 30
0.0
 10
243.666640
 20
120.826890
 30
0.0
 10
234.161240
 20
130.285870
 30
0.0
 10
234.161240
 20
133.278060
 30
0.0
  0
SPLINE
  5
2e8
100
AcDbEntity
  8
Ebene_1
 62
7
100
AcDbSpline
 70
8
 71
3
 72
8
 73
4
 74
0
 40
0
 40
0
 40
0
 40
0
 40
1
 40
1
 40
1
 40
1
 10
129.978358
 20
63.161485
 30
0.0
 10
135.186127
 20
63.161485
 30
0.0
 10
138.987195
 20
65.694915
 30
0.0
 10
138.987195
 20
70.499686
 30
0.0
  0
LWPOLYLINE
  5
2e9
100
AcDbEntity
  8
Ebene_1
 62
7
100
AcDbPolyline
 90
4
 70
0
 10
121.298745
 20
57.337540
 30
0.0
 10
127.105109
 20
57.337540
 30
0.0
 10
127.105109
 20
63.161485
 30
0.0
 10
129.978358
 20
63.161485
 30
0.0
  0
SPLINE
  5
2ea
100
AcDbEntity
  8
Ebene_1
 62
7
100
AcDbSpline
 70
8
 71
3
 72
8
 73
4
 74
0
 40
0
 40
0
 40
0
 40
0
 40
1
 40
1
 40
1
 40
1
 10
138.987195
 20
70.557882
 30
0.0
 10
138.987195
 20
75.071454
 30
0.0
 10
135.575207
 20
77.721356
 30
0.0
 10
130.277655
 20
77.721356
 30
0.0
  0
LWPOLYLINE
  5
2eb
100
AcDbEntity
  8
Ebene_1
 62
7
100
AcDbPolyline
 90
2
 70
0
 10
138.987195
 20
70.499686
 30
0.0
 10
138.987195
 20
70.557882
 30
0.0
  0
LWPOLYLINE
  5
2ec
100
AcDbEntity
  8
Ebene_1
 62
7
100
AcDbPolyline
 90
3
 70
0
 10
130.277655
 20
77.721356
 30
0.0
 10
121.298745
 20
77.721356
 30
0.0
 10
121.298745
 20
57.337540
 30
0.0
  0
SPLINE
  5
2ed
100
AcDbEntity
  8
Ebene_1
 62
7
100
AcDbSpline
 70
8
 71
3
 72
8
 73
4
 74
0
 40
0
 40
0
 40
0
 40
0
 40
1
 40
1
 40
1
 40
1
 10
129.828709
 20
72.974871
 30
0.0
 10
131.923788
 20
72.974871
 30
0.0
 10
133.180831
 20
72.043030
 30
0.0
 10
133.180831
 20
70.295841
 30
0.0
  0
LWPOLYLINE
  5
2ee
100
AcDbEntity
  8
Ebene_1
 62
7
100
AcDbPolyline
 90
3
 70
0
 10
127.105109
 20
67.587704
 30
0.0
 10
127.105109
 20
72.974871
 30
0.0
 10
129.828709
 20
72.974871
 30
0.0
  0
SPLINE
  5
2ef
100
AcDbEntity
  8
Ebene_1
 62
7
100
AcDbSpline
 70
8
 71
3
 72
8
 73
4
 74
0
 40
0
 40
0
 40
0
 40
0
 40
1
 40
1
 40
1
 40
1
 10
133.180831
 20
70.237645
 30
0.0
 10
133.180831
 20
68.636055
 30
0.0
 10
131.923788
 20
67.587743
 30
0.0
 10
129.858637
 20
67.587743
 30
0.0
  0
LWPOLYLINE
  5
2f0
100
AcDbEntity
  8
Ebene_1
 62
7
100
AcDbPolyline
 90
2
 70
0
 10
133.180831
 20
70.295841
 30
0.0
 10
133.180831
 20
70.237645
 30
0.0
  0
LWPOLYLINE
  5
2f1
100
AcDbEntity
  8
Ebene_1
 62
7
100
AcDbPolyline
 90
2
 70
0
 10
129.858637
 20
67.587743
 30
0.0
 10
127.105109
 20
67.587704
 30
0.0
  0
LWPOLYLINE
  5
2f2
100
AcDbEntity
  8
Ebene_1
 62
7
100
AcDbPolyline
 90
8
 70
1
 10
137.685726
 20
57.337540
 30
0.0
 10
143.791377
 20
57.337540
 30
0.0
 10
145.287862
 20
60.977498
 30
0.0
 10
153.368881
 20
60.977498
 30
0.0
 10
154.895303
 20
57.337540
 30
0.0
 10
161.120675
 20
57.337540
 30
0.0
 10
152.201630
 20
77.866995
 30
0.0
 10
146.604771
 20
77.866995
 30
0.0
  0
LWPOLYLINE
  5
2f3
100
AcDbEntity
  8
Ebene_1
 62
7
100
AcDbPolyline
 90
3
 70
1
 10
146.993861
 20
65.374589
 30
0.0
 10
149.358309
 20
71.169436
 30
0.0
 10
151.692819
 20
65.374589
 30
0.0
  0
SPLINE
  5
2f4
100
AcDbEntity
  8
Ebene_1
 62
7
100
AcDbSpline
 70
8
 71
3
 72
8
 73
4
 74
0
 40
0
 40
0
 40
0
 40
0
 40
1
 40
1
 40
1
 40
1
 10
177.429988
 20
64.442759
 30
0.0
 10
180.033868
 20
65.520188
 30
0.0
 10
181.739857
 20
67.587704
 30
0.0
 10
181.739857
 20
70.703521
 30
0.0
  0
LWPOLYLINE
  5
2f5
100
AcDbEntity
  8
Ebene_1
 62
7
100
AcDbPolyline
 90
8
 70
0
 10
163.153556
 20
57.337540
 30
0.0
 10
168.959920
 20
57.337540
 30
0.0
 10
168.959920
 20
63.510928
 30
0.0
 10
171.444089
 20
63.510928
 30
0.0
 10
171.503904
 20
63.510928
 30
0.0
 10
175.723989
 20
57.337540
 30
0.0
 10
182.428244
 20
57.337540
 30
0.0
 10
177.429988
 20
64.442759
 30
0.0
  0
SPLINE
  5
2f6
100
AcDbEntity
  8
Ebene_1
 62
7
100
AcDbSpline
 70
8
 71
3
 72
8
 73
4
 74
0
 40
0
 40
0
 40
0
 40
0
 40
1
 40
1
 40
1
 40
1
 10
181.739857
 20
70.761717
 30
0.0
 10
181.739857
 20
72.770986
 30
0.0
 10
181.111335
 20
74.343459
 30
0.0
 10
179.884219
 20
75.508252
 30
0.0
  0
SPLINE
  5
2f7
100
AcDbEntity
  8
Ebene_1
 62
7
100
AcDbSpline
 70
8
 71
3
 72
8
 73
4
 74
0
 40
0
 40
0
 40
0
 40
0
 40
1
 40
1
 40
1
 40
1
 10
179.884219
 20
75.508252
 30
0.0
 10
178.477528
 20
76.906007
 30
0.0
 10
176.262728
 20
77.721356
 30
0.0
 10
173.060244
 20
77.721356
 30
0.0
  0
LWPOLYLINE
  5
2f8
100
AcDbEntity
  8
Ebene_1
 62
7
100
AcDbPolyline
 90
2
 70
0
 10
181.739857
 20
70.703521
 30
0.0
 10
181.739857
 20
70.761717
 30
0.0
  0
LWPOLYLINE
  5
2f9
100
AcDbEntity
  8
Ebene_1
 62
7
100
AcDbPolyline
 90
3
 70
0
 10
173.060244
 20
77.721356
 30
0.0
 10
163.153516
 20
77.721356
 30
0.0
 10
163.153556
 20
57.337540
 30
0.0
  0
SPLINE
  5
2fa
100
AcDbEntity
  8
Ebene_1
 62
7
100
AcDbSpline
 70
8
 71
3
 72
8
 73
4
 74
0
 40
0
 40
0
 40
0
 40
0
 40
1
 40
1
 40
1
 40
1
 10
172.760988
 20
72.829271
 30
0.0
 10
174.706418
 20
72.829271
 30
0.0
 10
175.903606
 20
72.013913
 30
0.0
 10
175.903606
 20
70.412322
 30
0.0
  0
LWPOLYLINE
  5
2fb
100
AcDbEntity
  8
Ebene_1
 62
7
100
AcDbPolyline
 90
3
 70
0
 10
168.959920
 20
67.937137
 30
0.0
 10
168.959920
 20
72.829271
 30
0.0
 10
172.760988
 20
72.829271
 30
0.0
  0
SPLINE
  5
2fc
100
AcDbEntity
  8
Ebene_1
 62
7
100
AcDbSpline
 70
8
 71
3
 72
8
 73
4
 74
0
 40
0
 40
0
 40
0
 40
0
 40
1
 40
1
 40
1
 40
1
 10
175.903606
 20
70.354126
 30
0.0
 10
175.903606
 20
68.869007
 30
0.0
 10
174.766283
 20
67.937177
 30
0.0
 10
172.790925
 20
67.937177
 30
0.0
  0
LWPOLYLINE
  5
2fd
100
AcDbEntity
  8
Ebene_1
 62
7
100
AcDbPolyline
 90
2
 70
0
 10
175.903606
 20
70.412322
 30
0.0
 10
175.903606
 20
70.354126
 30
0.0
  0
LWPOLYLINE
  5
2fe
100
AcDbEntity
  8
Ebene_1
 62
7
100
AcDbPolyline
 90
2
 70
0
 10
172.790925
 20
67.937177
 30
0.0
 10
168.959920
 20
67.937137
 30
0.0
  0
LWPOLYLINE
  5
2ff
100
AcDbEntity
  8
Ebene_1
 62
7
100
AcDbPolyline
 90
12
 70
1
 10
184.665530
 20
57.337540
 30
0.0
 10
190.471893
 20
57.337540
 30
0.0
 10
190.471893
 20
62.608206
 30
0.0
 10
192.596900
 20
64.908674
 30
0.0
 10
197.864525
 20
57.337540
 30
0.0
 10
204.838149
 20
57.337540
 30
0.0
 10
196.637409
 20
68.956331
 30
0.0
 10
204.568779
 20
77.721396
 30
0.0
 10
197.684949
 20
77.721396
 30
0.0
 10
190.471893
 20
69.451364
 30
0.0
 10
190.471893
 20
77.721396
 30
0.0
 10
184.665530
 20
77.721396
 30
0.0
  0
LWPOLYLINE
  5
300
100
AcDbEntity
  8
Ebene_1
 62
7
100
AcDbPolyline
 90
4
 70
1
 10
206.647952
 20
57.337540
 30
0.0
 10
212.484243
 20
57.337540
 30
0.0
 10
212.484243
 20
77.721396
 30
0.0
 10
206.647952
 20
77.721396
 30
0.0
  0
SPLINE
  5
301
100
AcDbEntity
  8
Ebene_1
 62
7
100
AcDbSpline
 70
8
 71
3
 72
8
 73
4
 74
0
 40
0
 40
0
 40
0
 40
0
 40
1
 40
1
 40
1
 40
1
 10
250.474857
 20
56.929870
 30
0.0
 10
254.275924
 20
56.929870
 30
0.0
 10
257.358687
 20
58.298478
 30
0.0
 10
259.573487
 20
60.074786
 30
0.0
  0
LWPOLYLINE
  5
302
100
AcDbEntity
  8
Ebene_1
 62
7
100
AcDbPolyline
 90
10
 70
1
 10
216.290461
 20
57.337540
 30
0.0
 10
222.036969
 20
57.337540
 30
0.0
 10
222.036969
 20
68.519534
 30
0.0
 10
230.985951
 20
57.337540
 30
0.0
 10
236.074000
 20
57.337540
 30
0.0
 10
236.074000
 20
77.721396
 30
0.0
 10
230.327492
 20
77.721396
 30
0.0
 10
230.327492
 20
66.947062
 30
0.0
 10
221.707744
 20
77.721396
 30
0.0
 10
216.290461
 20
77.721396
 30
0.0
  0
SPLINE
  5
303
100
AcDbEntity
  8
Ebene_1
 62
7
100
AcDbSpline
 70
8
 71
3
 72
8
 73
4
 74
0
 40
0
 40
0
 40
0
 40
0
 40
1
 40
1
 40
1
 40
1
 10
254.066421
 20
62.637334
 30
0.0
 10
253.198457
 20
62.084055
 30
0.0
 10
252.120990
 20
61.792857
 30
0.0
 10
250.714298
 20
61.792857
 30
0.0
  0
SPLINE
  5
304
100
AcDbEntity
  8
Ebene_1
 62
7
100
AcDbSpline
 70
8
 71
3
 72
8
 73
4
 74
0
 40
0
 40
0
 40
0
 40
0
 40
1
 40
1
 40
1
 40
1
 10
250.714298
 20
61.792857
 30
0.0
 10
247.392104
 20
61.792857
 30
0.0
 10
245.027656
 20
64.151561
 30
0.0
 10
245.027656
 20
67.442104
 30
0.0
  0
LWPOLYLINE
  5
305
100
AcDbEntity
  8
Ebene_1
 62
7
100
AcDbPolyline
 90
6
 70
0
 10
259.573487
 20
60.074786
 30
0.0
 10
259.573487
 20
69.247529
 30
0.0
 10
249.936128
 20
69.247529
 30
0.0
 10
249.936128
 20
65.112519
 30
0.0
 10
254.066421
 20
65.112519
 30
0.0
 10
254.066421
 20
62.637334
 30
0.0
  0
SPLINE
  5
306
100
AcDbEntity
  8
Ebene_1
 62
7
100
AcDbSpline
 70
8
 71
3
 72
8
 73
4
 74
0
 40
0
 40
0
 40
0
 40
0
 40
1
 40
1
 40
1
 40
1
 10
245.027656
 20
67.500301
 30
0.0
 10
245.027656
 20
70.616118
 30
0.0
 10
247.362166
 20
73.091303
 30
0.0
 10
250.385074
 20
73.091303
 30
0.0
  0
SPLINE
  5
307
100
AcDbEntity
  8
Ebene_1
 62
7
100
AcDbSpline
 70
8
 71
3
 72
8
 73
4
 74
0
 40
0
 40
0
 40
0
 40
0
 40
1
 40
1
 40
1
 40
1
 10
250.385074
 20
73.091303
 30
0.0
 10
252.450215
 20
73.091303
 30
0.0
 10
253.946700
 20
72.392435
 30
0.0
 10
255.443185
 20
71.169396
 30
0.0
  0
LWPOLYLINE
  5
308
100
AcDbEntity
  8
Ebene_1
 62
7
100
AcDbPolyline
 90
2
 70
0
 10
245.027656
 20
67.442104
 30
0.0
 10
245.027656
 20
67.500301
 30
0.0
  0
SPLINE
  5
309
100
AcDbEntity
  8
Ebene_1
 62
7
100
AcDbSpline
 70
8
 71
3
 72
8
 73
4
 74
0
 40
0
 40
0
 40
0
 40
0
 40
1
 40
1
 40
1
 40
1
 10
258.855172
 20
75.158818
 30
0.0
 10
256.640373
 20
77.022478
 30
0.0
 10
254.036493
 20
78.129036
 30
0.0
 10
250.355136
 20
78.129036
 30
0.0
  0
SPLINE
  5
30a
100
AcDbEntity
  8
Ebene_1
 62
7
100
AcDbSpline
 70
8
 71
3
 72
8
 73
4
 74
0
 40
0
 40
0
 40
0
 40
0
 40
1
 40
1
 40
1
 40
1
 10
250.355136
 20
78.129036
 30
0.0
 10
243.860395
 20
78.129036
 30
0.0
 10
239.071643
 20
73.469864
 30
0.0
 10
239.071643
 20
67.529419
 30
0.0
  0
LWPOLYLINE
  5
30b
100
AcDbEntity
  8
Ebene_1
 62
7
100
AcDbPolyline
 90
2
 70
0
 10
255.443185
 20
71.169396
 30
0.0
 10
258.855172
 20
75.158818
 30
0.0
  0
SPLINE
  5
30c
100
AcDbEntity
  8
Ebene_1
 62
7
100
AcDbSpline
 70
8
 71
3
 72
8
 73
4
 74
0
 40
0
 40
0
 40
0
 40
0
 40
1
 40
1
 40
1
 40
1
 10
239.071643
 20
67.471222
 30
0.0
 10
239.071643
 20
61.297814
 30
0.0
 10
243.950188
 20
56.929870
 30
0.0
 10
250.474857
 20
56.929870
 30
0.0
  0
LWPOLYLINE
  5
30d
100
AcDbEntity
  8
Ebene_1
 62
7
100
AcDbPolyline
 90
2
 70
0
 10
239.071643
 20
67.529419
 30
0.0
 10
239.071643
 20
67.471222
 30
0.0
  0
SPLINE
  5
30e
100
AcDbEntity
  8
Ebene_1
 62
7
100
AcDbSpline
 70
8
 71
3
 72
8
 73
4
 74
0
 40
0
 40
0
 40
0
 40
0
 40
1
 40
1
 40
1
 40
1
 10
29.499996
 20
167.176000
 30
0.0
 10
29.499996
 20
166.512959
 30
0.0
 10
29.236604
 20
165.877074
 30
0.0
 10
28.767763
 20
165.408233
 30
0.0
  0
SPLINE
  5
30f
100
AcDbEntity
  8
Ebene_1
 62
7
100
AcDbSpline
 70
8
 71
3
 72
8
 73
4
 74
0
 40
0
 40
0
 40
0
 40
0
 40
1
 40
1
 40
1
 40
1
 10
28.767763
 20
165.408233
 30
0.0
 10
28.298922
 20
164.939392
 30
0.0
 10
27.663037
 20
164.676000
 30
0.0
 10
26.999996
 20
164.676000
 30
0.0
  0
SPLINE
  5
310
100
AcDbEntity
  8
Ebene_1
 62
7
100
AcDbSpline
 70
8
 71
3
 72
8
 73
4
 74
0
 40
0
 40
0
 40
0
 40
0
 40
1
 40
1
 40
1
 40
1
 10
26.999996
 20
164.676000
 30
0.0
 10
26.336955
 20
164.676000
 30
0.0
 10
25.701070
 20
164.939392
 30
0.0
 10
25.232229
 20
165.408233
 30
0.0
  0
SPLINE
  5
311
100
AcDbEntity
  8
Ebene_1
 62
7
100
AcDbSpline
 70
8
 71
3
 72
8
 73
4
 74
0
 40
0
 40
0
 40
0
 40
0
 40
1
 40
1
 40
1
 40
1
 10
25.232229
 20
165.408233
 30
0.0
 10
24.763388
 20
165.877074
 30
0.0
 10
24.499996
 20
166.512959
 30
0.0
 10
24.499996
 20
167.176000
 30
0.0
  0
SPLINE
  5
312
100
AcDbEntity
  8
Ebene_1
 62
7
100
AcDbSpline
 70
8
 71
3
 72
8
 73
4
 74
0
 40
0
 40
0
 40
0
 40
0
 40
1
 40
1
 40
1
 40
1
 10
24.499996
 20
167.176000
 30
0.0
 10
24.499996
 20
168.556712
 30
0.0
 10
25.619284
 20
169.676000
 30
0.0
 10
26.999996
 20
169.676000
 30
0.0
  0
SPLINE
  5
313
100
AcDbEntity
  8
Ebene_1
 62
7
100
AcDbSpline
 70
8
 71
3
 72
8
 73
4
 74
0
 40
0
 40
0
 40
0
 40
0
 40
1
 40
1
 40
1
 40
1
 10
26.999996
 20
169.676000
 30
0.0
 10
27.663037
 20
169.676000
 30
0.0
 10
28.298922
 20
169.412608
 30
0.0
 10
28.767763
 20
168.943767
 30
0.0
  0
SPLINE
  5
314
100
AcDbEntity
  8
Ebene_1
 62
7
100
AcDbSpline
 70
8
 71
3
 72
8
 73
4
 74
0
 40
0
 40
0
 40
0
 40
0
 40
1
 40
1
 40
1
 40
1
 10
28.767763
 20
168.943767
 30
0.0
 10
29.236604
 20
168.474926
 30
0.0
 10
29.499996
 20
167.839041
 30
0.0
 10
29.499996
 20
167.176000
 30
0.0
  0
SPLINE
  5
315
100
AcDbEntity
  8
Ebene_1
 62
7
100
AcDbSpline
 70
8
 71
3
 72
8
 73
4
 74
0
 40
0
 40
0
 40
0
 40
0
 40
1
 40
1
 40
1
 40
1
 10
29.499996
 20
27.175996
 30
0.0
 10
29.499996
 20
26.512955
 30
0.0
 10
29.236604
 20
25.877070
 30
0.0
 10
28.767763
 20
25.408229
 30
0.0
  0
SPLINE
  5
316
100
AcDbEntity
  8
Ebene_1
 62
7
100
AcDbSpline
 70
8
 71
3
 72
8
 73
4
 74
0
 40
0
 40
0
 40
0
 40
0
 40
1
 40
1
 40
1
 40
1
 10
28.767763
 20
25.408229
 30
0.0
 10
28.298922
 20
24.939388
 30
0.0
 10
27.663037
 20
24.675996
 30
0.0
 10
26.999996
 20
24.675996
 30
0.0
  0
SPLINE
  5
317
100
AcDbEntity
  8
Ebene_1
 62
7
100
AcDbSpline
 70
8
 71
3
 72
8
 73
4
 74
0
 40
0
 40
0
 40
0
 40
0
 40
1
 40
1
 40
1
 40
1
 10
26.999996
 20
24.675996
 30
0.0
 10
26.336955
 20
24.675996
 30
0.0
 10
25.701070
 20
24.939388
 30
0.0
 10
25.232229
 20
25.408229
 30
0.0
  0
SPLINE
  5
318
100
AcDbEntity
  8
Ebene_1
 62
7
100
AcDbSpline
 70
8
 71
3
 72
8
 73
4
 74
0
 40
0
 40
0
 40
0
 40
0
 40
1
 40
1
 40
1
 40
1
 10
25.232229
 20
25.408229
 30
0.0
 10
24.763388
 20
25.877070
 30
0.0
 10
24.499996
 20
26.512955
 30
0.0
 10
24.499996
 20
27.175996
 30
0.0
  0
SPLINE
  5
319
100
AcDbEntity
  8
Ebene_1
 62
7
100
AcDbSpline
 70
8
 71
3
 72
8
 73
4
 74
0
 40
0
 40
0
 40
0
 40
0
 40
1
 40
1
 40
1
 40
1
 10
24.499996
 20
27.175996
 30
0.0
 10
24.499996
 20
28.556708
 30
0.0
 10
25.619284
 20
29.675996
 30
0.0
 10
26.999996
 20
29.675996
 30
0.0
  0
SPLINE
  5
31a
100
AcDbEntity
  8
Ebene_1
 62
7
100
AcDbSpline
 70
8
 71
3
 72
8
 73
4
 74
0
 40
0
 40
0
 40
0
 40
0
 40
1
 40
1
 40
1
 40
1
 10
26.999996
 20
29.675996
 30
0.0
 10
27.663037
 20
29.675996
 30
0.0
 10
28.298922
 20
29.412604
 30
0.0
 10
28.767763
 20
28.943763
 30
0.0
  0
SPLINE
  5
31b
100
AcDbEntity
  8
Ebene_1
 62
7
100
AcDbSpline
 70
8
 71
3
 72
8
 73
4
 74
0
 40
0
 40
0
 40
0
 40
0
 40
1
 40
1
 40
1
 40
1
 10
28.767763
 20
28.943763
 30
0.0
 10
29.236604
 20
28.474922
 30
0.0
 10
29.499996
 20
27.839037
 30
0.0
 10
29.499996
 20
27.175996
 30
0.0
  0
SPLINE
  5
31c
100
AcDbEntity
  8
Ebene_1
 62
7
100
AcDbSpline
 70
8
 71
3
 72
8
 73
4
 74
0
 40
0
 40
0
 40
0
 40
0
 40
1
 40
1
 40
1
 40
1
 10
274.500000
 20
27.175996
 30
0.0
 10
274.500000
 20
26.512955
 30
0.0
 10
274.236608
 20
25.877070
 30
0.0
 10
273.767767
 20
25.408229
 30
0.0
  0
SPLINE
  5
31d
100
AcDbEntity
  8
Ebene_1
 62
7
100
AcDbSpline
 70
8
 71
3
 72
8
 73
4
 74
0
 40
0
 40
0
 40
0
 40
0
 40
1
 40
1
 40
1
 40
1
 10
273.767767
 20
25.408229
 30
0.0
 10
273.298926
 20
24.939388
 30
0.0
 10
272.663041
 20
24.675996
 30
0.0
 10
272.000000
 20
24.675996
 30
0.0
  0
SPLINE
  5
31e
100
AcDbEntity
  8
Ebene_1
 62
7
100
AcDbSpline
 70
8
 71
3
 72
8
 73
4
 74
0
 40
0
 40
0
 40
0
 40
0
 40
1
 40
1
 40
1
 40
1
 10
272.000000
 20
24.675996
 30
0.0
 10
271.336959
 20
24.675996
 30
0.0
 10
270.701074
 20
24.939388
 30
0.0
 10
270.232233
 20
25.408229
 30
0.0
  0
SPLINE
  5
31f
100
AcDbEntity
  8
Ebene_1
 62
7
100
AcDbSpline
 70
8
 71
3
 72
8
 73
4
 74
0
 40
0
 40
0
 40
0
 40
0
 40
1
 40
1
 40
1
 40
1
 10
270.232233
 20
25.408229
 30
0.0
 10
269.763392
 20
25.877070
 30
0.0
 10
269.500000
 20
26.512955
 30
0.0
 10
269.500000
 20
27.175996
 30
0.0
  0
SPLINE
  5
320
100
AcDbEntity
  8
Ebene_1
 62
7
100
AcDbSpline
 70
8
 71
3
 72
8
 73
4
 74
0
 40
0
 40
0
 40
0
 40
0
 40
1
 40
1
 40
1
 40
1
 10
269.500000
 20
27.175996
 30
0.0
 10
269.500000
 20
27.839037
 30
0.0
 10
269.763392
 20
28.474922
 30
0.0
 10
270.232233
 20
28.943763
 30
0.0
  0
SPLINE
  5
321
100
AcDbEntity
  8
Ebene_1
 62
7
100
AcDbSpline
 70
8
 71
3
 72
8
 73
4
 74
0
 40
0
 40
0
 40
0
 40
0
 40
1
 40
1
 40
1
 40
1
 10
270.232233
 20
28.943763
 30
0.0
 10
270.701074
 20
29.412604
 30
0.0
 10
271.336959
 20
29.675996
 30
0.0
 10
272.000000
 20
29.675996
 30
0.0
  0
SPLINE
  5
322
100
AcDbEntity
  8
Ebene_1
 62
7
100
AcDbSpline
 70
8
 71
3
 72
8
 73
4
 74
0
 40
0
 40
0
 40
0
 40
0
 40
1
 40
1
 40
1
 40
1
 10
272.000000
 20
29.675996
 30
0.0
 10
272.663041
 20
29.675996
 30
0.0
 10
273.298926
 20
29.412604
 30
0.0
 10
273.767767
 20
28.943763
 30
0.0
  0
SPLINE
  5
323
100
AcDbEntity
  8
Ebene_1
 62
7
100
AcDbSpline
 70
8
 71
3
 72
8
 73
4
 74
0
 40
0
 40
0
 40
0
 40
0
 40
1
 40
1
 40
1
 40
1
 10
273.767767
 20
28.943763
 30
0.0
 10
274.236608
 20
28.474922
 30
0.0
 10
274.500000
 20
27.839037
 30
0.0
 10
274.500000
 20
27.175996
 30
0.0
  0
SPLINE
  5
324
100
AcDbEntity
  8
Ebene_1
 62
7
100
AcDbSpline
 70
8
 71
3
 72
8
 73
4
 74
0
 40
0
 40
0
 40
0
 40
0
 40
1
 40
1
 40
1
 40
1
 10
274.500000
 20
167.176000
 30
0.0
 10
274.500000
 20
166.512959
 30
0.0
 10
274.236608
 20
165.877074
 30
0.0
 10
273.767767
 20
165.408233
 30
0.0
  0
SPLINE
  5
325
100
AcDbEntity
  8
Ebene_1
 62
7
100
AcDbSpline
 70
8
 71
3
 72
8
 73
4
 74
0
 40
0
 40
0
 40
0
 40
0
 40
1
 40
1
 40
1
 40
1
 10
273.767767
 20
165.408233
 30
0.0
 10
273.298926
 20
164.939392
 30
0.0
 10
272.663041
 20
164.676000
 30
0.0
 10
272.000000
 20
164.676000
 30
0.0
  0
SPLINE
  5
326
100
AcDbEntity
  8
Ebene_1
 62
7
100
AcDbSpline
 70
8
 71
3
 72
8
 73
4
 74
0
 40
0
 40
0
 40
0
 40
0
 40
1
 40
1
 40
1
 40
1
 10
272.000000
 20
164.676000
 30
0.0
 10
271.336959
 20
164.676000
 30
0.0
 10
270.701074
 20
164.939392
 30
0.0
 10
270.232233
 20
165.408233
 30
0.0
  0
SPLINE
  5
327
100
AcDbEntity
  8
Ebene_1
 62
7
100
AcDbSpline
 70
8
 71
3
 72
8
 73
4
 74
0
 40
0
 40
0
 40
0
 40
0
 40
1
 40
1
 40
1
 40
1
 10
270.232233
 20
165.408233
 30
0.0
 10
269.763392
 20
165.877074
 30
0.0
 10
269.500000
 20
166.512959
 30
0.0
 10
269.500000
 20
167.176000
 30
0.0
  0
SPLINE
  5
328
100
AcDbEntity
  8
Ebene_1
 62
7
100
AcDbSpline
 70
8
 71
3
 72
8
 73
4
 74
0
 40
0
 40
0
 40
0
 40
0
 40
1
 40
1
 40
1
 40
1
 10
269.500000
 20
167.176000
 30
0.0
 10
269.500000
 20
167.839041
 30
0.0
 10
269.763392
 20
168.474926
 30
0.0
 10
270.232233
 20
168.943767
 30
0.0
  0
SPLINE
  5
329
100
AcDbEntity
  8
Ebene_1
 62
7
100
AcDbSpline
 70
8
 71
3
 72
8
 73
4
 74
0
 40
0
 40
0
 40
0
 40
0
 40
1
 40
1
 40
1
 40
1
 10
270.232233
 20
168.943767
 30
0.0
 10
270.701074
 20
169.412608
 30
0.0
 10
271.336959
 20
169.676000
 30
0.0
 10
272.000000
 20
169.676000
 30
0.0
  0
SPLINE
  5
32a
100
AcDbEntity
  8
Ebene_1
 62
7
100
AcDbSpline
 70
8
 71
3
 72
8
 73
4
 74
0
 40
0
 40
0
 40
0
 40
0
 40
1
 40
1
 40
1
 40
1
 10
272.000000
 20
169.676000
 30
0.0
 10
272.663041
 20
169.676000
 30
0.0
 10
273.298926
 20
169.412608
 30
0.0
 10
273.767767
 20
168.943767
 30
0.0
  0
SPLINE
  5
32b
100
AcDbEntity
  8
Ebene_1
 62
7
100
AcDbSpline
 70
8
 71
3
 72
8
 73
4
 74
0
 40
0
 40
0
 40
0
 40
0
 40
1
 40
1
 40
1
 40
1
 10
273.767767
 20
168.943767
 30
0.0
 10
274.236608
 20
168.474926
 30
0.0
 10
274.500000
 20
167.839041
 30
0.0
 10
274.500000
 20
167.176000
 30
0.0
  0
LWPOLYLINE
  5
32c
100
AcDbEntity
  8
Ebene_1
 62
7
100
AcDbPolyline
 90
1
 70
1
 10
250.474857
 20
56.929870
 30
0.0
  0
ENDSEC
  0
SECTION
  2
OBJECTS
  0
DICTIONARY
  5
C
330
0
100
AcDbDictionary
  3
ACAD_GROUP
350
D
  3
ACAD_MLINESTYLE
350
17
  0
DICTIONARY
  5
D
330
C
100
AcDbDictionary
  0
DICTIONARY
  5
1A
330
C
100
AcDbDictionary
  0
DICTIONARY
  5
17
330
C
100
AcDbDictionary
  3
STANDARD
350
18
  0
DICTIONARY
  5
19
330
C
100
AcDbDictionary
  0
ENDSEC
  0
EOF
