  0
SECTION
  2
HEADER
  9
$ACADVER
  1
AC1014
  9
$HANDSEED
  5
FFFF
  9
$MEASUREMENT
 70
     1
  0
ENDSEC
  0
SECTION
  2
TABLES
  0
TABLE
  2
VPORT
  5
8
330
0
100
AcDbSymbolTable
 70
     4
  0
VPORT
  5
2E
330
8
100
AcDbSymbolTableRecord
100
AcDbViewportTableRecord
  2
*ACTIVE
 70
     0
 10
0.0
 20
0.0
 11
1.0
 21
1.0
 12
210.0
 22
148.5
 13
0.0
 23
0.0
 14
10.0
 24
10.0
 15
10.0
 25
10.0
 16
0.0
 26
0.0
 36
1.0
 17
0.0
 27
0.0
 37
0.0
 40
341.0
 41
1.24
 42
50.0
 43
0.0
 44
0.0
 50
0.0
 51
0.0
 71
     0
 72
   100
 73
     1
 74
     3
 75
     0
 76
     0
 77
     0
 78
     0
  0
ENDTAB
  0
TABLE
  2
LTYPE
  5
5
330
0
100
AcDbSymbolTable
 70
     1
  0
LTYPE
  5
14
330
5
100
AcDbSymbolTableRecord
100
AcDbLinetypeTableRecord
  2
BYBLOCK
 70
     0
  3

 72
    65
 73
     0
 40
0.0
  0
LTYPE
  5
15
330
5
100
AcDbSymbolTableRecord
100
AcDbLinetypeTableRecord
  2
BYLAYER
 70
     0
  3

 72
    65
 73
     0
 40
0.0
  0
LTYPE
  5
16
330
5
100
AcDbSymbolTableRecord
100
AcDbLinetypeTableRecord
  2
CONTINUOUS
 70
     0
  3
Solid line
 72
    65
 73
     0
 40
0.0
  0
ENDTAB
  0
TABLE
  2
LAYER
  5
2
100
AcDbSymbolTable
 70
2
  0
LAYER
  5
50
100
AcDbSymbolTableRecord
100
AcDbLayerTableRecord
  2
0
 70
0
  6
CONTINUOUS
  0
LAYER
  5
51
100
AcDbSymbolTableRecord
100
AcDbLayerTableRecord
  2
Ebene_1
 70
0
  6
CONTINUOUS
  0
ENDTAB
  0
TABLE
  2
STYLE
  5
3
330
0
100
AcDbSymbolTable
 70
     1
  0
STYLE
  5
11
330
3
100
AcDbSymbolTableRecord
100
AcDbTextStyleTableRecord
  2
STANDARD
 70
     0
 40
0.0
 41
1.0
 50
0.0
 71
     0
 42
2.5
  3
txt
  4

  0
ENDTAB
  0
TABLE
  2
VIEW
  5
6
330
0
100
AcDbSymbolTable
 70
     0
  0
ENDTAB
  0
TABLE
  2
UCS
  5
7
330
0
100
AcDbSymbolTable
 70
     0
  0
ENDTAB
  0
TABLE
  2
APPID
  5
9
330
0
100
AcDbSymbolTable
 70
     2
  0
APPID
  5
12
330
9
100
AcDbSymbolTableRecord
100
AcDbRegAppTableRecord
  2
ACAD
 70
     0
  0
ENDTAB
  0
TABLE
  2
DIMSTYLE
  5
A
330
0
100
AcDbSymbolTable
 70
     1
  0
DIMSTYLE
105
27
330
A
100
AcDbSymbolTableRecord
100
AcDbDimStyleTableRecord
  2
ISO-25
 70
     0
  3

  4

  5

  6

  7

 40
1.0
 41
2.5
 42
0.625
 43
3.75
 44
1.25
 45
0.0
 46
0.0
 47
0.0
 48
0.0
140
2.5
141
2.5
142
0.0
143
0.03937007874016
144
1.0
145
0.0
146
1.0
147
0.625
 71
     0
 72
     0
 73
     0
 74
     0
 75
     0
 76
     0
 77
     1
 78
     8
170
     0
171
     3
172
     1
173
     0
174
     0
175
     0
176
     0
177
     0
178
     0
270
     2
271
     2
272
     2
273
     2
274
     3
340
11
275
     0
280
     0
281
     0
282
     0
283
     0
284
     8
285
     0
286
     0
287
     3
288
     0
  0
ENDTAB
  0
TABLE
  2
BLOCK_RECORD
  5
1
330
0
100
AcDbSymbolTable
 70
     1
  0
BLOCK_RECORD
  5
1F
330
1
100
AcDbSymbolTableRecord
100
AcDbBlockTableRecord
  2
*MODEL_SPACE
  0
BLOCK_RECORD
  5
1B
330
1
100
AcDbSymbolTableRecord
100
AcDbBlockTableRecord
  2
*PAPER_SPACE
  0
ENDTAB
  0
ENDSEC
  0
SECTION
  2
BLOCKS
  0
BLOCK
  5
20
330
1F
100
AcDbEntity
  8
0
100
AcDbBlockBegin
  2
*MODEL_SPACE
 70
     0
 10
0.0
 20
0.0
 30
0.0
  3
*MODEL_SPACE
  1

  0
ENDBLK
  5
21
330
1F
100
AcDbEntity
  8
0
100
AcDbBlockEnd
  0
BLOCK
  5
1C
330
1B
100
AcDbEntity
 67
     1
  8
0
100
AcDbBlockBegin
  2
*PAPER_SPACE
  1

  0
ENDBLK
  5
1D
330
1B
100
AcDbEntity
 67
     1
  8
0
100
AcDbBlockEnd
  0
ENDSEC
  0
SECTION
  2
ENTITIES
  0
LWPOLYLINE
  5
100
100
AcDbEntity
  8
Ebene_1
 62
7
100
AcDbPolyline
 90
4
 70
1
 10
0.000000
 20
380.000010
 30
0.0
 10
300.000010
 20
380.000010
 30
0.0
 10
300.000010
 20
0.000000
 30
0.0
 10
0.000000
 20
0.000000
 30
0.0
  0
SPLINE
  5
101
100
AcDbEntity
  8
Ebene_1
 62
7
100
AcDbSpline
 70
8
 71
3
 72
8
 73
4
 74
0
 40
0
 40
0
 40
0
 40
0
 40
1
 40
1
 40
1
 40
1
 10
269.710640
 20
370.000010
 30
0.0
 10
280.823590
 20
370.000010
 30
0.0
 10
289.770130
 20
361.039230
 30
0.0
 10
289.770130
 20
349.908591
 30
0.0
  0
LWPOLYLINE
  5
102
100
AcDbEntity
  8
Ebene_1
 62
7
100
AcDbPolyline
 90
2
 70
0
 10
30.000000
 20
370.000010
 30
0.0
 10
269.710640
 20
370.000010
 30
0.0
  0
SPLINE
  5
103
100
AcDbEntity
  8
Ebene_1
 62
7
100
AcDbSpline
 70
8
 71
3
 72
8
 73
4
 74
0
 40
0
 40
0
 40
0
 40
0
 40
1
 40
1
 40
1
 40
1
 10
289.770130
 20
215.296040
 30
0.0
 10
289.770130
 20
204.165400
 30
0.0
 10
280.823590
 20
195.204630
 30
0.0
 10
269.710640
 20
195.204630
 30
0.0
  0
LWPOLYLINE
  5
104
100
AcDbEntity
  8
Ebene_1
 62
7
100
AcDbPolyline
 90
2
 70
0
 10
289.770130
 20
349.908591
 30
0.0
 10
289.770130
 20
215.296040
 30
0.0
  0
SPLINE
  5
105
100
AcDbEntity
  8
Ebene_1
 62
7
100
AcDbSpline
 70
8
 71
3
 72
8
 73
4
 74
0
 40
0
 40
0
 40
0
 40
0
 40
1
 40
1
 40
1
 40
1
 10
30.000000
 20
195.204630
 30
0.0
 10
18.887060
 20
195.204630
 30
0.0
 10
9.940530
 20
204.165400
 30
0.0
 10
9.940530
 20
215.296040
 30
0.0
  0
LWPOLYLINE
  5
106
100
AcDbEntity
  8
Ebene_1
 62
7
100
AcDbPolyline
 90
2
 70
0
 10
269.710640
 20
195.204630
 30
0.0
 10
30.000000
 20
195.204630
 30
0.0
  0
SPLINE
  5
107
100
AcDbEntity
  8
Ebene_1
 62
7
100
AcDbSpline
 70
8
 71
3
 72
8
 73
4
 74
0
 40
0
 40
0
 40
0
 40
0
 40
1
 40
1
 40
1
 40
1
 10
9.940530
 20
349.908591
 30
0.0
 10
9.940530
 20
361.039230
 30
0.0
 10
18.887060
 20
370.000010
 30
0.0
 10
30.000000
 20
370.000010
 30
0.0
  0
LWPOLYLINE
  5
108
100
AcDbEntity
  8
Ebene_1
 62
7
100
AcDbPolyline
 90
2
 70
0
 10
9.940530
 20
215.296040
 30
0.0
 10
9.940530
 20
349.908591
 30
0.0
  0
SPLINE
  5
109
100
AcDbEntity
  8
Ebene_1
 62
7
100
AcDbSpline
 70
8
 71
3
 72
8
 73
4
 74
0
 40
0
 40
0
 40
0
 40
0
 40
1
 40
1
 40
1
 40
1
 10
81.277640
 20
349.465829
 30
0.0
 10
76.850740
 20
349.445719
 30
0.0
 10
72.436430
 20
349.222971
 30
0.0
 10
68.044380
 20
348.920731
 30
0.0
  0
SPLINE
  5
10a
100
AcDbEntity
  8
Ebene_1
 62
7
100
AcDbSpline
 70
8
 71
3
 72
8
 73
4
 74
0
 40
0
 40
0
 40
0
 40
0
 40
1
 40
1
 40
1
 40
1
 10
68.044380
 20
348.920731
 30
0.0
 10
63.178940
 20
348.585891
 30
0.0
 10
58.511590
 20
347.461821
 30
0.0
 10
53.988490
 20
346.607001
 30
0.0
  0
SPLINE
  5
10b
100
AcDbEntity
  8
Ebene_1
 62
7
100
AcDbSpline
 70
8
 71
3
 72
8
 73
4
 74
0
 40
0
 40
0
 40
0
 40
0
 40
1
 40
1
 40
1
 40
1
 10
53.988490
 20
346.607001
 30
0.0
 10
52.468490
 20
346.319741
 30
0.0
 10
51.056560
 20
345.574721
 30
0.0
 10
50.187170
 20
344.346001
 30
0.0
  0
SPLINE
  5
10c
100
AcDbEntity
  8
Ebene_1
 62
7
100
AcDbSpline
 70
8
 71
3
 72
8
 73
4
 74
0
 40
0
 40
0
 40
0
 40
0
 40
1
 40
1
 40
1
 40
1
 10
50.187170
 20
344.346001
 30
0.0
 10
49.317770
 20
343.117291
 30
0.0
 10
49.066130
 20
341.624261
 30
0.0
 10
49.135250
 20
340.089601
 30
0.0
  0
SPLINE
  5
10d
100
AcDbEntity
  8
Ebene_1
 62
7
100
AcDbSpline
 70
8
 71
3
 72
8
 73
4
 74
0
 40
0
 40
0
 40
0
 40
0
 40
1
 40
1
 40
1
 40
1
 10
49.135250
 20
340.089601
 30
0.0
 10
49.464520
 20
332.779351
 30
0.0
 10
49.795940
 20
325.485271
 30
0.0
 10
49.887750
 20
318.215201
 30
0.0
  0
LWPOLYLINE
  5
10e
100
AcDbEntity
  8
Ebene_1
 62
7
100
AcDbPolyline
 90
1
 70
1
 10
30.000000
 20
370.000010
 30
0.0
  0
SPLINE
  5
10f
100
AcDbEntity
  8
Ebene_1
 62
7
100
AcDbSpline
 70
8
 71
3
 72
8
 73
4
 74
0
 40
0
 40
0
 40
0
 40
0
 40
1
 40
1
 40
1
 40
1
 10
51.942380
 20
316.186461
 30
0.0
 10
53.595710
 20
316.186461
 30
0.0
 10
54.290390
 20
315.894341
 30
0.0
 10
54.475940
 20
315.735861
 30
0.0
  0
SPLINE
  5
110
100
AcDbEntity
  8
Ebene_1
 62
7
100
AcDbSpline
 70
8
 71
3
 72
8
 73
4
 74
0
 40
0
 40
0
 40
0
 40
0
 40
1
 40
1
 40
1
 40
1
 10
54.475940
 20
315.735861
 30
0.0
 10
54.660530
 20
315.578201
 30
0.0
 10
54.883120
 20
315.225711
 30
0.0
 10
54.940970
 20
313.918001
 30
0.0
  0
SPLINE
  5
111
100
AcDbEntity
  8
Ebene_1
 62
7
100
AcDbSpline
 70
8
 71
3
 72
8
 73
4
 74
0
 40
0
 40
0
 40
0
 40
0
 40
1
 40
1
 40
1
 40
1
 10
54.940970
 20
313.918001
 30
0.0
 10
55.066570
 20
287.283781
 30
0.0
 10
55.004470
 20
260.643140
 30
0.0
 10
54.972270
 20
233.997220
 30
0.0
  0
LWPOLYLINE
  5
112
100
AcDbEntity
  8
Ebene_1
 62
7
100
AcDbPolyline
 90
3
 70
0
 10
49.887750
 20
318.215201
 30
0.0
 10
49.913150
 20
316.186461
 30
0.0
 10
51.942380
 20
316.186461
 30
0.0
  0
SPLINE
  5
113
100
AcDbEntity
  8
Ebene_1
 62
7
100
AcDbSpline
 70
8
 71
3
 72
8
 73
4
 74
0
 40
0
 40
0
 40
0
 40
0
 40
1
 40
1
 40
1
 40
1
 10
51.601190
 20
233.993220
 30
0.0
 10
49.787910
 20
233.869610
 30
0.0
 10
48.400780
 20
233.778220
 30
0.0
 10
47.205520
 20
233.566490
 30
0.0
  0
SPLINE
  5
114
100
AcDbEntity
  8
Ebene_1
 62
7
100
AcDbSpline
 70
8
 71
3
 72
8
 73
4
 74
0
 40
0
 40
0
 40
0
 40
0
 40
1
 40
1
 40
1
 40
1
 10
47.205520
 20
233.566490
 30
0.0
 10
46.010260
 20
233.354760
 30
0.0
 10
44.856380
 20
233.005930
 30
0.0
 10
43.970190
 20
232.059470
 30
0.0
  0
SPLINE
  5
115
100
AcDbEntity
  8
Ebene_1
 62
7
100
AcDbSpline
 70
8
 71
3
 72
8
 73
4
 74
0
 40
0
 40
0
 40
0
 40
0
 40
1
 40
1
 40
1
 40
1
 10
43.970190
 20
232.059470
 30
0.0
 10
43.084000
 20
231.113030
 30
0.0
 10
42.828530
 20
229.876290
 30
0.0
 10
42.779510
 20
228.722680
 30
0.0
  0
SPLINE
  5
116
100
AcDbEntity
  8
Ebene_1
 62
7
100
AcDbSpline
 70
8
 71
3
 72
8
 73
4
 74
0
 40
0
 40
0
 40
0
 40
0
 40
1
 40
1
 40
1
 40
1
 10
42.779510
 20
228.722680
 30
0.0
 10
42.730510
 20
227.569090
 30
0.0
 10
42.843210
 20
226.309130
 30
0.0
 10
42.974980
 20
224.676650
 30
0.0
  0
LWPOLYLINE
  5
117
100
AcDbEntity
  8
Ebene_1
 62
7
100
AcDbPolyline
 90
3
 70
0
 10
54.972270
 20
233.997220
 30
0.0
 10
51.670790
 20
233.997220
 30
0.0
 10
51.601190
 20
233.993220
 30
0.0
  0
SPLINE
  5
118
100
AcDbEntity
  8
Ebene_1
 62
7
100
AcDbSpline
 70
8
 71
3
 72
8
 73
4
 74
0
 40
0
 40
0
 40
0
 40
0
 40
1
 40
1
 40
1
 40
1
 10
115.981470
 20
224.720920
 30
0.0
 10
116.154320
 20
227.651470
 30
0.0
 10
116.512190
 20
229.522760
 30
0.0
 10
115.281190
 20
231.406950
 30
0.0
  0
SPLINE
  5
119
100
AcDbEntity
  8
Ebene_1
 62
7
100
AcDbSpline
 70
8
 71
3
 72
8
 73
4
 74
0
 40
0
 40
0
 40
0
 40
0
 40
1
 40
1
 40
1
 40
1
 10
115.281190
 20
231.406950
 30
0.0
 10
114.665700
 20
232.349030
 30
0.0
 10
113.671710
 20
232.934410
 30
0.0
 10
112.700390
 20
233.263100
 30
0.0
  0
SPLINE
  5
11a
100
AcDbEntity
  8
Ebene_1
 62
7
100
AcDbSpline
 70
8
 71
3
 72
8
 73
4
 74
0
 40
0
 40
0
 40
0
 40
0
 40
1
 40
1
 40
1
 40
1
 10
112.700390
 20
233.263100
 30
0.0
 10
111.729080
 20
233.591770
 30
0.0
 10
110.678020
 20
233.768660
 30
0.0
 10
109.350680
 20
233.973810
 30
0.0
  0
LWPOLYLINE
  5
11b
100
AcDbEntity
  8
Ebene_1
 62
7
100
AcDbPolyline
 90
4
 70
0
 10
42.974980
 20
224.676650
 30
0.0
 10
43.127170
 20
222.787200
 30
0.0
 10
115.867080
 20
222.787200
 30
0.0
 10
115.981470
 20
224.720920
 30
0.0
  0
SPLINE
  5
11c
100
AcDbEntity
  8
Ebene_1
 62
7
100
AcDbSpline
 70
8
 71
3
 72
8
 73
4
 74
0
 40
0
 40
0
 40
0
 40
0
 40
1
 40
1
 40
1
 40
1
 10
104.851130
 20
233.997610
 30
0.0
 10
104.829430
 20
234.353760
 30
0.0
 10
104.786630
 20
234.776670
 30
0.0
 10
104.786430
 20
235.102240
 30
0.0
  0
SPLINE
  5
11d
100
AcDbEntity
  8
Ebene_1
 62
7
100
AcDbSpline
 70
8
 71
3
 72
8
 73
4
 74
0
 40
0
 40
0
 40
0
 40
0
 40
1
 40
1
 40
1
 40
1
 10
104.786430
 20
235.102240
 30
0.0
 10
104.776430
 20
260.901570
 30
0.0
 10
104.792430
 20
286.703091
 30
0.0
 10
104.756130
 20
312.506381
 30
0.0
  0
SPLINE
  5
11e
100
AcDbEntity
  8
Ebene_1
 62
7
100
AcDbSpline
 70
8
 71
3
 72
8
 73
4
 74
0
 40
0
 40
0
 40
0
 40
0
 40
1
 40
1
 40
1
 40
1
 10
104.756130
 20
312.506381
 30
0.0
 10
104.853930
 20
314.588431
 30
0.0
 10
105.249750
 20
315.383921
 30
0.0
 10
105.538480
 20
315.655181
 30
0.0
  0
SPLINE
  5
11f
100
AcDbEntity
  8
Ebene_1
 62
7
100
AcDbSpline
 70
8
 71
3
 72
8
 73
4
 74
0
 40
0
 40
0
 40
0
 40
0
 40
1
 40
1
 40
1
 40
1
 10
105.538480
 20
315.655181
 30
0.0
 10
105.828420
 20
315.927551
 30
0.0
 10
106.552760
 20
316.192221
 30
0.0
 10
108.311260
 20
316.186861
 30
0.0
  0
LWPOLYLINE
  5
120
100
AcDbEntity
  8
Ebene_1
 62
7
100
AcDbPolyline
 90
5
 70
0
 10
109.350680
 20
233.973810
 30
0.0
 10
109.194510
 20
233.997610
 30
0.0
 10
106.092960
 20
233.997610
 30
0.0
 10
105.994560
 20
233.997610
 30
0.0
 10
104.851130
 20
233.997610
 30
0.0
  0
SPLINE
  5
121
100
AcDbEntity
  8
Ebene_1
 62
7
100
AcDbSpline
 70
8
 71
3
 72
8
 73
4
 74
0
 40
0
 40
0
 40
0
 40
0
 40
1
 40
1
 40
1
 40
1
 10
110.372310
 20
318.226981
 30
0.0
 10
110.421710
 20
324.914801
 30
0.0
 10
110.472310
 20
331.602811
 30
0.0
 10
110.520510
 20
338.291491
 30
0.0
  0
SPLINE
  5
122
100
AcDbEntity
  8
Ebene_1
 62
7
100
AcDbSpline
 70
8
 71
3
 72
8
 73
4
 74
0
 40
0
 40
0
 40
0
 40
0
 40
1
 40
1
 40
1
 40
1
 10
110.520510
 20
338.291491
 30
0.0
 10
110.540410
 20
341.045931
 30
0.0
 10
110.733950
 20
342.914521
 30
0.0
 10
109.406930
 20
344.642781
 30
0.0
  0
SPLINE
  5
123
100
AcDbEntity
  8
Ebene_1
 62
7
100
AcDbSpline
 70
8
 71
3
 72
8
 73
4
 74
0
 40
0
 40
0
 40
0
 40
0
 40
1
 40
1
 40
1
 40
1
 10
109.406930
 20
344.642781
 30
0.0
 10
108.743400
 20
345.506931
 30
0.0
 10
107.812000
 20
346.022121
 30
0.0
 10
106.852970
 20
346.375611
 30
0.0
  0
SPLINE
  5
124
100
AcDbEntity
  8
Ebene_1
 62
7
100
AcDbSpline
 70
8
 71
3
 72
8
 73
4
 74
0
 40
0
 40
0
 40
0
 40
0
 40
1
 40
1
 40
1
 40
1
 10
106.852970
 20
346.375611
 30
0.0
 10
105.893930
 20
346.729091
 30
0.0
 10
104.821880
 20
346.978901
 30
0.0
 10
103.454000
 20
347.290251
 30
0.0
  0
SPLINE
  5
125
100
AcDbEntity
  8
Ebene_1
 62
7
100
AcDbSpline
 70
8
 71
3
 72
8
 73
4
 74
0
 40
0
 40
0
 40
0
 40
0
 40
1
 40
1
 40
1
 40
1
 10
103.454000
 20
347.290251
 30
0.0
 10
96.071350
 20
348.970661
 30
0.0
 10
88.656000
 20
349.500368
 30
0.0
 10
81.277720
 20
349.466718
 30
0.0
  0
LWPOLYLINE
  5
126
100
AcDbEntity
  8
Ebene_1
 62
7
100
AcDbPolyline
 90
3
 70
0
 10
108.311260
 20
316.186861
 30
0.0
 10
110.356910
 20
316.180861
 30
0.0
 10
110.372310
 20
318.226981
 30
0.0
  0
SPLINE
  5
127
100
AcDbEntity
  8
Ebene_1
 62
7
100
AcDbSpline
 70
8
 71
3
 72
8
 73
4
 74
0
 40
0
 40
0
 40
0
 40
0
 40
1
 40
1
 40
1
 40
1
 10
81.296040
 20
345.356641
 30
0.0
 10
88.464730
 20
345.389341
 30
0.0
 10
95.557820
 20
344.872271
 30
0.0
 10
102.541780
 20
343.282641
 30
0.0
  0
SPLINE
  5
128
100
AcDbEntity
  8
Ebene_1
 62
7
100
AcDbSpline
 70
8
 71
3
 72
8
 73
4
 74
0
 40
0
 40
0
 40
0
 40
0
 40
1
 40
1
 40
1
 40
1
 10
102.541780
 20
343.282641
 30
0.0
 10
103.881320
 20
342.977751
 30
0.0
 10
104.851320
 20
342.732531
 30
0.0
 10
105.431440
 20
342.518711
 30
0.0
  0
SPLINE
  5
129
100
AcDbEntity
  8
Ebene_1
 62
7
100
AcDbSpline
 70
8
 71
3
 72
8
 73
4
 74
0
 40
0
 40
0
 40
0
 40
0
 40
1
 40
1
 40
1
 40
1
 10
105.431440
 20
342.518711
 30
0.0
 10
106.011550
 20
342.304881
 30
0.0
 10
106.115970
 20
342.180481
 30
0.0
 10
106.147630
 20
342.139211
 30
0.0
  0
SPLINE
  5
12a
100
AcDbEntity
  8
Ebene_1
 62
7
100
AcDbSpline
 70
8
 71
3
 72
8
 73
4
 74
0
 40
0
 40
0
 40
0
 40
0
 40
1
 40
1
 40
1
 40
1
 10
106.147630
 20
342.139211
 30
0.0
 10
106.211030
 20
342.056711
 30
0.0
 10
106.431020
 20
341.051181
 30
0.0
 10
106.411240
 20
338.320491
 30
0.0
  0
SPLINE
  5
12b
100
AcDbEntity
  8
Ebene_1
 62
7
100
AcDbSpline
 70
8
 71
3
 72
8
 73
4
 74
0
 40
0
 40
0
 40
0
 40
0
 40
1
 40
1
 40
1
 40
1
 10
106.411240
 20
338.320491
 30
0.0
 10
106.367540
 20
332.267681
 30
0.0
 10
106.321440
 20
326.214411
 30
0.0
 10
106.276450
 20
320.160861
 30
0.0
  0
SPLINE
  5
12c
100
AcDbEntity
  8
Ebene_1
 62
7
100
AcDbSpline
 70
8
 71
3
 72
8
 73
4
 74
0
 40
0
 40
0
 40
0
 40
0
 40
1
 40
1
 40
1
 40
1
 10
106.276450
 20
320.160861
 30
0.0
 10
104.947110
 20
319.985531
 30
0.0
 10
103.722330
 20
319.587021
 30
0.0
 10
102.724800
 20
318.649901
 30
0.0
  0
SPLINE
  5
12d
100
AcDbEntity
  8
Ebene_1
 62
7
100
AcDbSpline
 70
8
 71
3
 72
8
 73
4
 74
0
 40
0
 40
0
 40
0
 40
0
 40
1
 40
1
 40
1
 40
1
 10
102.724800
 20
318.649901
 30
0.0
 10
101.230840
 20
317.246411
 30
0.0
 10
100.764290
 20
315.205841
 30
0.0
 10
100.648810
 20
312.670621
 30
0.0
  0
LWPOLYLINE
  5
12e
100
AcDbEntity
  8
Ebene_1
 62
7
100
AcDbPolyline
 90
2
 70
0
 10
81.277720
 20
349.466718
 30
0.0
 10
81.277640
 20
349.465829
 30
0.0
  0
SPLINE
  5
12f
100
AcDbEntity
  8
Ebene_1
 62
7
100
AcDbSpline
 70
8
 71
3
 72
8
 73
4
 74
0
 40
0
 40
0
 40
0
 40
0
 40
1
 40
1
 40
1
 40
1
 10
100.646810
 20
312.574021
 30
0.0
 10
100.683710
 20
286.751701
 30
0.0
 10
100.667210
 20
260.927050
 30
0.0
 10
100.677110
 20
235.100230
 30
0.0
  0
LWPOLYLINE
  5
130
100
AcDbEntity
  8
Ebene_1
 62
7
100
AcDbPolyline
 90
3
 70
0
 10
100.648810
 20
312.670621
 30
0.0
 10
100.646810
 20
312.622321
 30
0.0
 10
100.646810
 20
312.574021
 30
0.0
  0
SPLINE
  5
131
100
AcDbEntity
  8
Ebene_1
 62
7
100
AcDbSpline
 70
8
 71
3
 72
8
 73
4
 74
0
 40
0
 40
0
 40
0
 40
0
 40
1
 40
1
 40
1
 40
1
 10
100.677110
 20
235.099700
 30
0.0
 10
100.677640
 20
233.900350
 30
0.0
 10
100.802140
 20
232.814090
 30
0.0
 10
100.861640
 20
231.819610
 30
0.0
  0
LWPOLYLINE
  5
132
100
AcDbEntity
  8
Ebene_1
 62
7
100
AcDbPolyline
 90
2
 70
0
 10
100.677110
 20
235.100230
 30
0.0
 10
100.677110
 20
235.099700
 30
0.0
  0
SPLINE
  5
133
100
AcDbEntity
  8
Ebene_1
 62
7
100
AcDbSpline
 70
8
 71
3
 72
8
 73
4
 74
0
 40
0
 40
0
 40
0
 40
0
 40
1
 40
1
 40
1
 40
1
 10
108.840230
 20
229.887850
 30
0.0
 10
110.023530
 20
229.701450
 30
0.0
 10
110.917070
 20
229.527170
 30
0.0
 10
111.382710
 20
229.369610
 30
0.0
  0
SPLINE
  5
134
100
AcDbEntity
  8
Ebene_1
 62
7
100
AcDbSpline
 70
8
 71
3
 72
8
 73
4
 74
0
 40
0
 40
0
 40
0
 40
0
 40
1
 40
1
 40
1
 40
1
 10
111.382710
 20
229.369610
 30
0.0
 10
111.869860
 20
229.204770
 30
0.0
 10
111.839320
 20
229.160970
 30
0.0
 10
111.840790
 20
229.158730
 30
0.0
  0
SPLINE
  5
135
100
AcDbEntity
  8
Ebene_1
 62
7
100
AcDbSpline
 70
8
 71
3
 72
8
 73
4
 74
0
 40
0
 40
0
 40
0
 40
0
 40
1
 40
1
 40
1
 40
1
 10
111.840790
 20
229.158730
 30
0.0
 10
111.842790
 20
229.155730
 30
0.0
 10
111.903990
 20
228.258480
 30
0.0
 10
111.906990
 20
226.895740
 30
0.0
  0
LWPOLYLINE
  5
136
100
AcDbEntity
  8
Ebene_1
 62
7
100
AcDbPolyline
 90
5
 70
0
 10
100.861640
 20
231.819610
 30
0.0
 10
100.977030
 20
229.887850
 30
0.0
 10
105.994410
 20
229.887850
 30
0.0
 10
106.092810
 20
229.887850
 30
0.0
 10
108.840230
 20
229.887850
 30
0.0
  0
SPLINE
  5
137
100
AcDbEntity
  8
Ebene_1
 62
7
100
AcDbSpline
 70
8
 71
3
 72
8
 73
4
 74
0
 40
0
 40
0
 40
0
 40
0
 40
1
 40
1
 40
1
 40
1
 10
46.971800
 20
226.895740
 30
0.0
 10
46.942900
 20
227.433890
 30
0.0
 10
46.871140
 20
228.215030
 30
0.0
 10
46.885300
 20
228.547470
 30
0.0
  0
SPLINE
  5
138
100
AcDbEntity
  8
Ebene_1
 62
7
100
AcDbSpline
 70
8
 71
3
 72
8
 73
4
 74
0
 40
0
 40
0
 40
0
 40
0
 40
1
 40
1
 40
1
 40
1
 10
46.885300
 20
228.547470
 30
0.0
 10
46.915600
 20
229.260200
 30
0.0
 10
47.015420
 20
229.298890
 30
0.0
 10
46.969900
 20
229.250240
 30
0.0
  0
SPLINE
  5
139
100
AcDbEntity
  8
Ebene_1
 62
7
100
AcDbSpline
 70
8
 71
3
 72
8
 73
4
 74
0
 40
0
 40
0
 40
0
 40
0
 40
1
 40
1
 40
1
 40
1
 10
46.969900
 20
229.250240
 30
0.0
 10
46.924300
 20
229.201540
 30
0.0
 10
47.097080
 20
229.373130
 30
0.0
 10
47.922350
 20
229.519300
 30
0.0
  0
SPLINE
  5
13a
100
AcDbEntity
  8
Ebene_1
 62
7
100
AcDbSpline
 70
8
 71
3
 72
8
 73
4
 74
0
 40
0
 40
0
 40
0
 40
0
 40
1
 40
1
 40
1
 40
1
 10
47.922350
 20
229.519300
 30
0.0
 10
48.689650
 20
229.655220
 30
0.0
 10
49.986470
 20
229.753750
 30
0.0
 10
51.602810
 20
229.865970
 30
0.0
  0
LWPOLYLINE
  5
13b
100
AcDbEntity
  8
Ebene_1
 62
7
100
AcDbPolyline
 90
2
 70
0
 10
111.906990
 20
226.895740
 30
0.0
 10
46.971800
 20
226.895740
 30
0.0
  0
SPLINE
  5
13c
100
AcDbEntity
  8
Ebene_1
 62
7
100
AcDbSpline
 70
8
 71
3
 72
8
 73
4
 74
0
 40
0
 40
0
 40
0
 40
0
 40
1
 40
1
 40
1
 40
1
 10
53.657410
 20
229.837640
 30
0.0
 10
54.795980
 20
229.837390
 30
0.0
 10
55.724710
 20
229.837640
 30
0.0
 10
56.693290
 20
229.837640
 30
0.0
  0
LWPOLYLINE
  5
13d
100
AcDbEntity
  8
Ebene_1
 62
7
100
AcDbPolyline
 90
3
 70
0
 10
51.602810
 20
229.865970
 30
0.0
 10
51.602810
 20
229.838170
 30
0.0
 10
53.657410
 20
229.837640
 30
0.0
  0
SPLINE
  5
13e
100
AcDbEntity
  8
Ebene_1
 62
7
100
AcDbSpline
 70
8
 71
3
 72
8
 73
4
 74
0
 40
0
 40
0
 40
0
 40
0
 40
1
 40
1
 40
1
 40
1
 10
58.511140
 20
230.934320
 30
0.0
 10
58.598940
 20
231.100920
 30
0.0
 10
58.642710
 20
231.169520
 30
0.0
 10
58.722030
 20
231.305850
 30
0.0
  0
SPLINE
  5
13f
100
AcDbEntity
  8
Ebene_1
 62
7
100
AcDbSpline
 70
8
 71
3
 72
8
 73
4
 74
0
 40
0
 40
0
 40
0
 40
0
 40
1
 40
1
 40
1
 40
1
 10
58.722030
 20
231.305850
 30
0.0
 10
58.801330
 20
231.442170
 30
0.0
 10
59.080620
 20
231.808040
 30
0.0
 10
59.080620
 20
232.536310
 30
0.0
  0
SPLINE
  5
140
100
AcDbEntity
  8
Ebene_1
 62
7
100
AcDbSpline
 70
8
 71
3
 72
8
 73
4
 74
0
 40
0
 40
0
 40
0
 40
0
 40
1
 40
1
 40
1
 40
1
 10
59.080620
 20
232.536310
 30
0.0
 10
59.112220
 20
259.685560
 30
0.0
 10
59.179220
 20
286.840521
 30
0.0
 10
59.050820
 20
314.000921
 30
0.0
  0
LWPOLYLINE
  5
141
100
AcDbEntity
  8
Ebene_1
 62
7
100
AcDbPolyline
 90
3
 70
0
 10
56.693290
 20
229.837640
 30
0.0
 10
57.933210
 20
229.837640
 30
0.0
 10
58.511140
 20
230.934320
 30
0.0
  0
SPLINE
  5
142
100
AcDbEntity
  8
Ebene_1
 62
7
100
AcDbSpline
 70
8
 71
3
 72
8
 73
4
 74
0
 40
0
 40
0
 40
0
 40
0
 40
1
 40
1
 40
1
 40
1
 10
59.048820
 20
314.078521
 30
0.0
 10
58.971020
 20
315.906141
 30
0.0
 10
58.525210
 20
317.682201
 30
0.0
 10
57.145420
 20
318.860621
 30
0.0
  0
SPLINE
  5
143
100
AcDbEntity
  8
Ebene_1
 62
7
100
AcDbSpline
 70
8
 71
3
 72
8
 73
4
 74
0
 40
0
 40
0
 40
0
 40
0
 40
1
 40
1
 40
1
 40
1
 10
57.145420
 20
318.860621
 30
0.0
 10
56.241040
 20
319.633021
 30
0.0
 10
55.156750
 20
319.987541
 30
0.0
 10
53.947380
 20
320.155261
 30
0.0
  0
SPLINE
  5
144
100
AcDbEntity
  8
Ebene_1
 62
7
100
AcDbSpline
 70
8
 71
3
 72
8
 73
4
 74
0
 40
0
 40
0
 40
0
 40
0
 40
1
 40
1
 40
1
 40
1
 10
53.947380
 20
320.155261
 30
0.0
 10
53.826260
 20
326.881381
 30
0.0
 10
53.541640
 20
333.591051
 30
0.0
 10
53.240630
 20
340.273971
 30
0.0
  0
SPLINE
  5
145
100
AcDbEntity
  8
Ebene_1
 62
7
100
AcDbSpline
 70
8
 71
3
 72
8
 73
4
 74
0
 40
0
 40
0
 40
0
 40
0
 40
1
 40
1
 40
1
 40
1
 10
53.240630
 20
340.273971
 30
0.0
 10
53.196930
 20
341.244291
 30
0.0
 10
53.373530
 20
341.734311
 30
0.0
 10
53.542030
 20
341.972461
 30
0.0
  0
SPLINE
  5
146
100
AcDbEntity
  8
Ebene_1
 62
7
100
AcDbSpline
 70
8
 71
3
 72
8
 73
4
 74
0
 40
0
 40
0
 40
0
 40
0
 40
1
 40
1
 40
1
 40
1
 10
53.542030
 20
341.972461
 30
0.0
 10
53.710530
 20
342.210601
 30
0.0
 10
53.945910
 20
342.416531
 30
0.0
 10
54.751610
 20
342.568791
 30
0.0
  0
SPLINE
  5
147
100
AcDbEntity
  8
Ebene_1
 62
7
100
AcDbSpline
 70
8
 71
3
 72
8
 73
4
 74
0
 40
0
 40
0
 40
0
 40
0
 40
1
 40
1
 40
1
 40
1
 10
54.751610
 20
342.568791
 30
0.0
 10
59.404510
 20
343.448131
 30
0.0
 10
63.919240
 20
344.517531
 30
0.0
 10
68.326560
 20
344.820831
 30
0.0
  0
SPLINE
  5
148
100
AcDbEntity
  8
Ebene_1
 62
7
100
AcDbSpline
 70
8
 71
3
 72
8
 73
4
 74
0
 40
0
 40
0
 40
0
 40
0
 40
1
 40
1
 40
1
 40
1
 10
68.326560
 20
344.820831
 30
0.0
 10
72.668310
 20
345.119621
 30
0.0
 10
76.994940
 20
345.336891
 30
0.0
 10
81.296220
 20
345.356491
 30
0.0
  0
LWPOLYLINE
  5
149
100
AcDbEntity
  8
Ebene_1
 62
7
100
AcDbPolyline
 90
3
 70
0
 10
59.050820
 20
314.000921
 30
0.0
 10
59.050820
 20
314.039721
 30
0.0
 10
59.048820
 20
314.078521
 30
0.0
  0
SPLINE
  5
14a
100
AcDbEntity
  8
Ebene_1
 62
7
100
AcDbSpline
 70
8
 71
3
 72
8
 73
4
 74
0
 40
0
 40
0
 40
0
 40
0
 40
1
 40
1
 40
1
 40
1
 10
80.159777
 20
324.809470
 30
0.0
 10
76.759979
 20
324.808926
 30
0.0
 10
73.360211
 20
324.795199
 30
0.0
 10
69.960587
 20
324.773369
 30
0.0
  0
SPLINE
  5
14b
100
AcDbEntity
  8
Ebene_1
 62
7
100
AcDbSpline
 70
8
 71
3
 72
8
 73
4
 74
0
 40
0
 40
0
 40
0
 40
0
 40
1
 40
1
 40
1
 40
1
 10
69.960587
 20
324.773369
 30
0.0
 10
64.604288
 20
324.738921
 30
0.0
 10
62.321825
 20
322.586688
 30
0.0
 10
62.299647
 20
317.537149
 30
0.0
  0
SPLINE
  5
14c
100
AcDbEntity
  8
Ebene_1
 62
7
100
AcDbSpline
 70
8
 71
3
 72
8
 73
4
 74
0
 40
0
 40
0
 40
0
 40
0
 40
1
 40
1
 40
1
 40
1
 10
62.299647
 20
317.537149
 30
0.0
 10
62.260594
 20
308.724195
 30
0.0
 10
62.288856
 20
299.911368
 30
0.0
 10
62.291166
 20
291.098686
 30
0.0
  0
SPLINE
  5
14d
100
AcDbEntity
  8
Ebene_1
 62
7
100
AcDbSpline
 70
8
 71
3
 72
8
 73
4
 74
0
 40
0
 40
0
 40
0
 40
0
 40
1
 40
1
 40
1
 40
1
 10
62.291166
 20
291.098686
 30
0.0
 10
62.291166
 20
282.533960
 30
0.0
 10
62.291188
 20
273.969778
 30
0.0
 10
62.291710
 20
265.405052
 30
0.0
  0
SPLINE
  5
14e
100
AcDbEntity
  8
Ebene_1
 62
7
100
AcDbSpline
 70
8
 71
3
 72
8
 73
4
 74
0
 40
0
 40
0
 40
0
 40
0
 40
1
 40
1
 40
1
 40
1
 10
62.291710
 20
265.405052
 30
0.0
 10
62.291710
 20
265.156824
 30
0.0
 10
62.293069
 20
264.907644
 30
0.0
 10
62.302338
 20
264.659660
 30
0.0
  0
SPLINE
  5
14f
100
AcDbEntity
  8
Ebene_1
 62
7
100
AcDbSpline
 70
8
 71
3
 72
8
 73
4
 74
0
 40
0
 40
0
 40
0
 40
0
 40
1
 40
1
 40
1
 40
1
 10
62.302338
 20
264.659660
 30
0.0
 10
62.644723
 20
255.402819
 30
0.0
 10
70.408184
 20
248.210010
 30
0.0
 10
80.032398
 20
248.231375
 30
0.0
  0
SPLINE
  5
150
100
AcDbEntity
  8
Ebene_1
 62
7
100
AcDbSpline
 70
8
 71
3
 72
8
 73
4
 74
0
 40
0
 40
0
 40
0
 40
0
 40
1
 40
1
 40
1
 40
1
 10
80.032398
 20
248.231375
 30
0.0
 10
89.697055
 20
248.252849
 30
0.0
 10
97.556624
 20
255.429729
 30
0.0
 10
97.629203
 20
264.720195
 30
0.0
  0
SPLINE
  5
151
100
AcDbEntity
  8
Ebene_1
 62
7
100
AcDbSpline
 70
8
 71
3
 72
8
 73
4
 74
0
 40
0
 40
0
 40
0
 40
0
 40
1
 40
1
 40
1
 40
1
 10
97.629203
 20
264.720195
 30
0.0
 10
97.768262
 20
282.469185
 30
0.0
 10
97.706971
 20
300.219534
 30
0.0
 10
97.662651
 20
317.969307
 30
0.0
  0
SPLINE
  5
152
100
AcDbEntity
  8
Ebene_1
 62
7
100
AcDbSpline
 70
8
 71
3
 72
8
 73
4
 74
0
 40
0
 40
0
 40
0
 40
0
 40
1
 40
1
 40
1
 40
1
 10
97.662651
 20
317.969307
 30
0.0
 10
97.651289
 20
322.558141
 30
0.0
 10
95.276240
 20
324.724139
 30
0.0
 10
90.359008
 20
324.767527
 30
0.0
  0
SPLINE
  5
153
100
AcDbEntity
  8
Ebene_1
 62
7
100
AcDbSpline
 70
8
 71
3
 72
8
 73
4
 74
0
 40
0
 40
0
 40
0
 40
0
 40
1
 40
1
 40
1
 40
1
 10
90.359008
 20
324.767527
 30
0.0
 10
86.959523
 20
324.797515
 30
0.0
 10
83.559611
 20
324.810005
 30
0.0
 10
80.159815
 20
324.809470
 30
0.0
  0
LWPOLYLINE
  5
154
100
AcDbEntity
  8
Ebene_1
 62
7
100
AcDbPolyline
 90
2
 70
0
 10
81.296220
 20
345.356491
 30
0.0
 10
81.296040
 20
345.356641
 30
0.0
  0
SPLINE
  5
155
100
AcDbEntity
  8
Ebene_1
 62
7
100
AcDbSpline
 70
8
 71
3
 72
8
 73
4
 74
0
 40
0
 40
0
 40
0
 40
0
 40
1
 40
1
 40
1
 40
1
 10
70.945414
 20
320.587193
 30
0.0
 10
76.954612
 20
320.461614
 30
0.0
 10
82.970302
 20
320.463133
 30
0.0
 10
88.979682
 20
320.586649
 30
0.0
  0
SPLINE
  5
156
100
AcDbEntity
  8
Ebene_1
 62
7
100
AcDbSpline
 70
8
 71
3
 72
8
 73
4
 74
0
 40
0
 40
0
 40
0
 40
0
 40
1
 40
1
 40
1
 40
1
 10
88.979682
 20
320.586649
 30
0.0
 10
90.620948
 20
320.620374
 30
0.0
 10
91.684758
 20
320.269699
 30
0.0
 10
92.341365
 20
319.543957
 30
0.0
  0
SPLINE
  5
157
100
AcDbEntity
  8
Ebene_1
 62
7
100
AcDbSpline
 70
8
 71
3
 72
8
 73
4
 74
0
 40
0
 40
0
 40
0
 40
0
 40
1
 40
1
 40
1
 40
1
 10
92.341365
 20
319.543957
 30
0.0
 10
92.997966
 20
318.818214
 30
0.0
 10
93.265948
 20
317.688671
 30
0.0
 10
93.246024
 20
316.121749
 30
0.0
  0
SPLINE
  5
158
100
AcDbEntity
  8
Ebene_1
 62
7
100
AcDbSpline
 70
8
 71
3
 72
8
 73
4
 74
0
 40
0
 40
0
 40
0
 40
0
 40
1
 40
1
 40
1
 40
1
 10
93.246024
 20
316.121749
 30
0.0
 10
93.139303
 20
307.707157
 30
0.0
 10
93.209901
 20
299.291178
 30
0.0
 10
93.209393
 20
290.877830
 30
0.0
  0
SPLINE
  5
159
100
AcDbEntity
  8
Ebene_1
 62
7
100
AcDbSpline
 70
8
 71
3
 72
8
 73
4
 74
0
 40
0
 40
0
 40
0
 40
0
 40
1
 40
1
 40
1
 40
1
 10
93.209393
 20
290.877830
 30
0.0
 10
93.208849
 20
282.703686
 30
0.0
 10
93.251387
 20
274.530467
 30
0.0
 10
93.196644
 20
266.358035
 30
0.0
  0
SPLINE
  5
15a
100
AcDbEntity
  8
Ebene_1
 62
7
100
AcDbSpline
 70
8
 71
3
 72
8
 73
4
 74
0
 40
0
 40
0
 40
0
 40
0
 40
1
 40
1
 40
1
 40
1
 10
93.196644
 20
266.358035
 30
0.0
 10
93.143060
 20
258.354542
 30
0.0
 10
87.494030
 20
252.493800
 30
0.0
 10
79.963869
 20
252.495077
 30
0.0
  0
SPLINE
  5
15b
100
AcDbEntity
  8
Ebene_1
 62
7
100
AcDbSpline
 70
8
 71
3
 72
8
 73
4
 74
0
 40
0
 40
0
 40
0
 40
0
 40
1
 40
1
 40
1
 40
1
 10
79.963869
 20
252.495077
 30
0.0
 10
72.430844
 20
252.495077
 30
0.0
 10
66.762057
 20
258.355466
 30
0.0
 10
66.739058
 20
266.356975
 30
0.0
  0
SPLINE
  5
15c
100
AcDbEntity
  8
Ebene_1
 62
7
100
AcDbSpline
 70
8
 71
3
 72
8
 73
4
 74
0
 40
0
 40
0
 40
0
 40
0
 40
1
 40
1
 40
1
 40
1
 10
66.739058
 20
266.356975
 30
0.0
 10
66.691693
 20
282.944113
 30
0.0
 10
66.765996
 20
299.531877
 30
0.0
 10
66.687559
 20
316.120157
 30
0.0
  0
SPLINE
  5
15d
100
AcDbEntity
  8
Ebene_1
 62
7
100
AcDbSpline
 70
8
 71
3
 72
8
 73
4
 74
0
 40
0
 40
0
 40
0
 40
0
 40
1
 40
1
 40
1
 40
1
 10
66.687559
 20
316.120157
 30
0.0
 10
66.680138
 20
317.686350
 30
0.0
 10
66.945143
 20
318.817665
 30
0.0
 10
67.595936
 20
319.543957
 30
0.0
  0
SPLINE
  5
15e
100
AcDbEntity
  8
Ebene_1
 62
7
100
AcDbSpline
 70
8
 71
3
 72
8
 73
4
 74
0
 40
0
 40
0
 40
0
 40
0
 40
1
 40
1
 40
1
 40
1
 10
67.595936
 20
319.543957
 30
0.0
 10
68.246728
 20
320.270248
 30
0.0
 10
69.301235
 20
320.621532
 30
0.0
 10
70.945409
 20
320.587182
 30
0.0
  0
LWPOLYLINE
  5
15f
100
AcDbEntity
  8
Ebene_1
 62
7
100
AcDbPolyline
 90
1
 70
1
 10
80.159815
 20
324.809470
 30
0.0
  0
SPLINE
  5
160
100
AcDbEntity
  8
Ebene_1
 62
7
100
AcDbSpline
 70
8
 71
3
 72
8
 73
4
 74
0
 40
0
 40
0
 40
0
 40
0
 40
1
 40
1
 40
1
 40
1
 10
73.224134
 20
263.018880
 30
0.0
 10
74.251493
 20
263.018880
 30
0.0
 10
74.251493
 20
263.018880
 30
0.0
 10
75.278855
 20
263.018880
 30
0.0
  0
SPLINE
  5
161
100
AcDbEntity
  8
Ebene_1
 62
7
100
AcDbSpline
 70
8
 71
3
 72
8
 73
4
 74
0
 40
0
 40
0
 40
0
 40
0
 40
1
 40
1
 40
1
 40
1
 10
75.278855
 20
263.018880
 30
0.0
 10
80.274540
 20
274.213207
 30
0.0
 10
84.610467
 20
285.887249
 30
0.0
 10
89.865129
 20
297.661154
 30
0.0
  0
SPLINE
  5
162
100
AcDbEntity
  8
Ebene_1
 62
7
100
AcDbSpline
 70
8
 71
3
 72
8
 73
4
 74
0
 40
0
 40
0
 40
0
 40
0
 40
1
 40
1
 40
1
 40
1
 10
89.865129
 20
297.661154
 30
0.0
 10
87.565402
 20
296.961890
 30
0.0
 10
85.948897
 20
296.470165
 30
0.0
 10
83.962897
 20
295.866140
 30
0.0
  0
SPLINE
  5
163
100
AcDbEntity
  8
Ebene_1
 62
7
100
AcDbSpline
 70
8
 71
3
 72
8
 73
4
 74
0
 40
0
 40
0
 40
0
 40
0
 40
1
 40
1
 40
1
 40
1
 10
83.962897
 20
295.866140
 30
0.0
 10
84.998296
 20
302.245072
 30
0.0
 10
86.652517
 20
308.504837
 30
0.0
 10
87.607193
 20
314.386951
 30
0.0
  0
SPLINE
  5
164
100
AcDbEntity
  8
Ebene_1
 62
7
100
AcDbSpline
 70
8
 71
3
 72
8
 73
4
 74
0
 40
0
 40
0
 40
0
 40
0
 40
1
 40
1
 40
1
 40
1
 10
87.607193
 20
314.386951
 30
0.0
 10
86.579831
 20
314.386951
 30
0.0
 10
86.579831
 20
314.386951
 30
0.0
 10
85.552469
 20
314.386951
 30
0.0
  0
SPLINE
  5
165
100
AcDbEntity
  8
Ebene_1
 62
7
100
AcDbSpline
 70
8
 71
3
 72
8
 73
4
 74
0
 40
0
 40
0
 40
0
 40
0
 40
1
 40
1
 40
1
 40
1
 10
85.552469
 20
314.386951
 30
0.0
 10
80.760248
 20
304.778573
 30
0.0
 10
76.575559
 20
294.970288
 30
0.0
 10
71.504244
 20
284.802194
 30
0.0
  0
SPLINE
  5
166
100
AcDbEntity
  8
Ebene_1
 62
7
100
AcDbSpline
 70
8
 71
3
 72
8
 73
4
 74
0
 40
0
 40
0
 40
0
 40
0
 40
1
 40
1
 40
1
 40
1
 10
71.504244
 20
284.802194
 30
0.0
 10
74.130174
 20
285.332625
 30
0.0
 10
76.136036
 20
285.737770
 30
0.0
 10
78.545006
 20
286.224403
 30
0.0
  0
SPLINE
  5
167
100
AcDbEntity
  8
Ebene_1
 62
7
100
AcDbSpline
 70
8
 71
3
 72
8
 73
4
 74
0
 40
0
 40
0
 40
0
 40
0
 40
1
 40
1
 40
1
 40
1
 10
78.545006
 20
286.224403
 30
0.0
 10
76.917551
 20
278.330315
 30
0.0
 10
74.722737
 20
270.288572
 30
0.0
 10
73.224134
 20
263.018880
 30
0.0
  0
LWPOLYLINE
  5
168
100
AcDbEntity
  8
Ebene_1
 62
7
100
AcDbPolyline
 90
1
 70
1
 10
70.945409
 20
320.587182
 30
0.0
  0
SPLINE
  5
169
100
AcDbEntity
  8
Ebene_1
 62
7
100
AcDbSpline
 70
8
 71
3
 72
8
 73
4
 74
0
 40
0
 40
0
 40
0
 40
0
 40
1
 40
1
 40
1
 40
1
 10
39.658771
 20
214.941546
 30
0.0
 10
39.353446
 20
220.119559
 30
0.0
 10
39.631381
 20
220.414950
 30
0.0
 10
44.758691
 20
220.416224
 30
0.0
  0
SPLINE
  5
16a
100
AcDbEntity
  8
Ebene_1
 62
7
100
AcDbSpline
 70
8
 71
3
 72
8
 73
4
 74
0
 40
0
 40
0
 40
0
 40
0
 40
1
 40
1
 40
1
 40
1
 10
44.758691
 20
220.416224
 30
0.0
 10
67.935030
 20
220.421571
 30
0.0
 10
91.111367
 20
220.422081
 30
0.0
 10
114.287704
 20
220.415969
 30
0.0
  0
SPLINE
  5
16b
100
AcDbEntity
  8
Ebene_1
 62
7
100
AcDbSpline
 70
8
 71
3
 72
8
 73
4
 74
0
 40
0
 40
0
 40
0
 40
0
 40
1
 40
1
 40
1
 40
1
 10
114.287704
 20
220.415969
 30
0.0
 10
119.398742
 20
220.414696
 30
0.0
 10
119.605361
 20
220.179910
 30
0.0
 10
119.244181
 20
214.941801
 30
0.0
  0
SPLINE
  5
16c
100
AcDbEntity
  8
Ebene_1
 62
7
100
AcDbSpline
 70
8
 71
3
 72
8
 73
4
 74
0
 40
0
 40
0
 40
0
 40
0
 40
1
 40
1
 40
1
 40
1
 10
119.244181
 20
214.941801
 30
0.0
 10
92.815591
 20
214.941546
 30
0.0
 10
66.371265
 20
214.941546
 30
0.0
 10
39.658771
 20
214.941546
 30
0.0
  0
LWPOLYLINE
  5
16d
100
AcDbEntity
  8
Ebene_1
 62
7
100
AcDbPolyline
 90
1
 70
1
 10
73.224134
 20
263.018880
 30
0.0
  0
LWPOLYLINE
  5
16e
100
AcDbEntity
  8
Ebene_1
 62
7
100
AcDbPolyline
 90
1
 70
1
 10
39.658771
 20
214.941546
 30
0.0
  0
SPLINE
  5
16f
100
AcDbEntity
  8
Ebene_1
 62
7
100
AcDbSpline
 70
8
 71
3
 72
8
 73
4
 74
0
 40
0
 40
0
 40
0
 40
0
 40
1
 40
1
 40
1
 40
1
 10
92.744129
 20
335.961494
 30
0.0
 10
93.882447
 20
335.961494
 30
0.0
 10
94.798855
 20
335.045087
 30
0.0
 10
94.798855
 20
333.906769
 30
0.0
  0
LWPOLYLINE
  5
170
100
AcDbEntity
  8
Ebene_1
 62
7
100
AcDbPolyline
 90
2
 70
0
 10
66.032688
 20
335.961494
 30
0.0
 10
92.744129
 20
335.961494
 30
0.0
  0
SPLINE
  5
171
100
AcDbEntity
  8
Ebene_1
 62
7
100
AcDbSpline
 70
8
 71
3
 72
8
 73
4
 74
0
 40
0
 40
0
 40
0
 40
0
 40
1
 40
1
 40
1
 40
1
 10
94.798855
 20
332.879405
 30
0.0
 10
94.798855
 20
331.741087
 30
0.0
 10
93.882447
 20
330.824679
 30
0.0
 10
92.744129
 20
330.824679
 30
0.0
  0
LWPOLYLINE
  5
172
100
AcDbEntity
  8
Ebene_1
 62
7
100
AcDbPolyline
 90
2
 70
0
 10
94.798855
 20
333.906769
 30
0.0
 10
94.798855
 20
332.879405
 30
0.0
  0
SPLINE
  5
173
100
AcDbEntity
  8
Ebene_1
 62
7
100
AcDbSpline
 70
8
 71
3
 72
8
 73
4
 74
0
 40
0
 40
0
 40
0
 40
0
 40
1
 40
1
 40
1
 40
1
 10
66.032688
 20
330.824679
 30
0.0
 10
64.894370
 20
330.824679
 30
0.0
 10
63.977962
 20
331.741087
 30
0.0
 10
63.977962
 20
332.879405
 30
0.0
  0
LWPOLYLINE
  5
174
100
AcDbEntity
  8
Ebene_1
 62
7
100
AcDbPolyline
 90
2
 70
0
 10
92.744129
 20
330.824679
 30
0.0
 10
66.032688
 20
330.824679
 30
0.0
  0
SPLINE
  5
175
100
AcDbEntity
  8
Ebene_1
 62
7
100
AcDbSpline
 70
8
 71
3
 72
8
 73
4
 74
0
 40
0
 40
0
 40
0
 40
0
 40
1
 40
1
 40
1
 40
1
 10
63.977962
 20
333.906769
 30
0.0
 10
63.977962
 20
335.045087
 30
0.0
 10
64.894370
 20
335.961494
 30
0.0
 10
66.032688
 20
335.961494
 30
0.0
  0
LWPOLYLINE
  5
176
100
AcDbEntity
  8
Ebene_1
 62
7
100
AcDbPolyline
 90
2
 70
0
 10
63.977962
 20
332.879405
 30
0.0
 10
63.977962
 20
333.906769
 30
0.0
  0
SPLINE
  5
177
100
AcDbEntity
  8
Ebene_1
 62
7
100
AcDbSpline
 70
8
 71
3
 72
8
 73
4
 74
0
 40
0
 40
0
 40
0
 40
0
 40
1
 40
1
 40
1
 40
1
 10
29.658946
 20
352.441000
 30
0.0
 10
29.658946
 20
351.777959
 30
0.0
 10
29.395554
 20
351.142074
 30
0.0
 10
28.926713
 20
350.673233
 30
0.0
  0
SPLINE
  5
178
100
AcDbEntity
  8
Ebene_1
 62
7
100
AcDbSpline
 70
8
 71
3
 72
8
 73
4
 74
0
 40
0
 40
0
 40
0
 40
0
 40
1
 40
1
 40
1
 40
1
 10
28.926713
 20
350.673233
 30
0.0
 10
28.457872
 20
350.204392
 30
0.0
 10
27.821987
 20
349.941000
 30
0.0
 10
27.158946
 20
349.941000
 30
0.0
  0
SPLINE
  5
179
100
AcDbEntity
  8
Ebene_1
 62
7
100
AcDbSpline
 70
8
 71
3
 72
8
 73
4
 74
0
 40
0
 40
0
 40
0
 40
0
 40
1
 40
1
 40
1
 40
1
 10
27.158946
 20
349.941000
 30
0.0
 10
26.495905
 20
349.941000
 30
0.0
 10
25.860020
 20
350.204392
 30
0.0
 10
25.391179
 20
350.673233
 30
0.0
  0
SPLINE
  5
17a
100
AcDbEntity
  8
Ebene_1
 62
7
100
AcDbSpline
 70
8
 71
3
 72
8
 73
4
 74
0
 40
0
 40
0
 40
0
 40
0
 40
1
 40
1
 40
1
 40
1
 10
25.391179
 20
350.673233
 30
0.0
 10
24.922338
 20
351.142074
 30
0.0
 10
24.658946
 20
351.777959
 30
0.0
 10
24.658946
 20
352.441000
 30
0.0
  0
SPLINE
  5
17b
100
AcDbEntity
  8
Ebene_1
 62
7
100
AcDbSpline
 70
8
 71
3
 72
8
 73
4
 74
0
 40
0
 40
0
 40
0
 40
0
 40
1
 40
1
 40
1
 40
1
 10
24.658946
 20
352.441000
 30
0.0
 10
24.658946
 20
353.821712
 30
0.0
 10
25.778234
 20
354.941000
 30
0.0
 10
27.158946
 20
354.941000
 30
0.0
  0
SPLINE
  5
17c
100
AcDbEntity
  8
Ebene_1
 62
7
100
AcDbSpline
 70
8
 71
3
 72
8
 73
4
 74
0
 40
0
 40
0
 40
0
 40
0
 40
1
 40
1
 40
1
 40
1
 10
27.158946
 20
354.941000
 30
0.0
 10
27.821987
 20
354.941000
 30
0.0
 10
28.457872
 20
354.677608
 30
0.0
 10
28.926713
 20
354.208767
 30
0.0
  0
SPLINE
  5
17d
100
AcDbEntity
  8
Ebene_1
 62
7
100
AcDbSpline
 70
8
 71
3
 72
8
 73
4
 74
0
 40
0
 40
0
 40
0
 40
0
 40
1
 40
1
 40
1
 40
1
 10
28.926713
 20
354.208767
 30
0.0
 10
29.395554
 20
353.739926
 30
0.0
 10
29.658946
 20
353.104041
 30
0.0
 10
29.658946
 20
352.441000
 30
0.0
  0
SPLINE
  5
17e
100
AcDbEntity
  8
Ebene_1
 62
7
100
AcDbSpline
 70
8
 71
3
 72
8
 73
4
 74
0
 40
0
 40
0
 40
0
 40
0
 40
1
 40
1
 40
1
 40
1
 10
29.658946
 20
212.440996
 30
0.0
 10
29.658946
 20
211.777955
 30
0.0
 10
29.395554
 20
211.142070
 30
0.0
 10
28.926713
 20
210.673229
 30
0.0
  0
SPLINE
  5
17f
100
AcDbEntity
  8
Ebene_1
 62
7
100
AcDbSpline
 70
8
 71
3
 72
8
 73
4
 74
0
 40
0
 40
0
 40
0
 40
0
 40
1
 40
1
 40
1
 40
1
 10
28.926713
 20
210.673229
 30
0.0
 10
28.457872
 20
210.204388
 30
0.0
 10
27.821987
 20
209.940996
 30
0.0
 10
27.158946
 20
209.940996
 30
0.0
  0
SPLINE
  5
180
100
AcDbEntity
  8
Ebene_1
 62
7
100
AcDbSpline
 70
8
 71
3
 72
8
 73
4
 74
0
 40
0
 40
0
 40
0
 40
0
 40
1
 40
1
 40
1
 40
1
 10
27.158946
 20
209.940996
 30
0.0
 10
26.495905
 20
209.940996
 30
0.0
 10
25.860020
 20
210.204388
 30
0.0
 10
25.391179
 20
210.673229
 30
0.0
  0
SPLINE
  5
181
100
AcDbEntity
  8
Ebene_1
 62
7
100
AcDbSpline
 70
8
 71
3
 72
8
 73
4
 74
0
 40
0
 40
0
 40
0
 40
0
 40
1
 40
1
 40
1
 40
1
 10
25.391179
 20
210.673229
 30
0.0
 10
24.922338
 20
211.142070
 30
0.0
 10
24.658946
 20
211.777955
 30
0.0
 10
24.658946
 20
212.440996
 30
0.0
  0
SPLINE
  5
182
100
AcDbEntity
  8
Ebene_1
 62
7
100
AcDbSpline
 70
8
 71
3
 72
8
 73
4
 74
0
 40
0
 40
0
 40
0
 40
0
 40
1
 40
1
 40
1
 40
1
 10
24.658946
 20
212.440996
 30
0.0
 10
24.658946
 20
213.821708
 30
0.0
 10
25.778234
 20
214.940996
 30
0.0
 10
27.158946
 20
214.940996
 30
0.0
  0
SPLINE
  5
183
100
AcDbEntity
  8
Ebene_1
 62
7
100
AcDbSpline
 70
8
 71
3
 72
8
 73
4
 74
0
 40
0
 40
0
 40
0
 40
0
 40
1
 40
1
 40
1
 40
1
 10
27.158946
 20
214.940996
 30
0.0
 10
27.821987
 20
214.940996
 30
0.0
 10
28.457872
 20
214.677604
 30
0.0
 10
28.926713
 20
214.208763
 30
0.0
  0
SPLINE
  5
184
100
AcDbEntity
  8
Ebene_1
 62
7
100
AcDbSpline
 70
8
 71
3
 72
8
 73
4
 74
0
 40
0
 40
0
 40
0
 40
0
 40
1
 40
1
 40
1
 40
1
 10
28.926713
 20
214.208763
 30
0.0
 10
29.395554
 20
213.739922
 30
0.0
 10
29.658946
 20
213.104037
 30
0.0
 10
29.658946
 20
212.440996
 30
0.0
  0
SPLINE
  5
185
100
AcDbEntity
  8
Ebene_1
 62
7
100
AcDbSpline
 70
8
 71
3
 72
8
 73
4
 74
0
 40
0
 40
0
 40
0
 40
0
 40
1
 40
1
 40
1
 40
1
 10
274.658950
 20
212.440996
 30
0.0
 10
274.658950
 20
211.777955
 30
0.0
 10
274.395558
 20
211.142070
 30
0.0
 10
273.926717
 20
210.673229
 30
0.0
  0
SPLINE
  5
186
100
AcDbEntity
  8
Ebene_1
 62
7
100
AcDbSpline
 70
8
 71
3
 72
8
 73
4
 74
0
 40
0
 40
0
 40
0
 40
0
 40
1
 40
1
 40
1
 40
1
 10
273.926717
 20
210.673229
 30
0.0
 10
273.457876
 20
210.204388
 30
0.0
 10
272.821991
 20
209.940996
 30
0.0
 10
272.158950
 20
209.940996
 30
0.0
  0
SPLINE
  5
187
100
AcDbEntity
  8
Ebene_1
 62
7
100
AcDbSpline
 70
8
 71
3
 72
8
 73
4
 74
0
 40
0
 40
0
 40
0
 40
0
 40
1
 40
1
 40
1
 40
1
 10
272.158950
 20
209.940996
 30
0.0
 10
271.495909
 20
209.940996
 30
0.0
 10
270.860024
 20
210.204388
 30
0.0
 10
270.391183
 20
210.673229
 30
0.0
  0
SPLINE
  5
188
100
AcDbEntity
  8
Ebene_1
 62
7
100
AcDbSpline
 70
8
 71
3
 72
8
 73
4
 74
0
 40
0
 40
0
 40
0
 40
0
 40
1
 40
1
 40
1
 40
1
 10
270.391183
 20
210.673229
 30
0.0
 10
269.922342
 20
211.142070
 30
0.0
 10
269.658950
 20
211.777955
 30
0.0
 10
269.658950
 20
212.440996
 30
0.0
  0
SPLINE
  5
189
100
AcDbEntity
  8
Ebene_1
 62
7
100
AcDbSpline
 70
8
 71
3
 72
8
 73
4
 74
0
 40
0
 40
0
 40
0
 40
0
 40
1
 40
1
 40
1
 40
1
 10
269.658950
 20
212.440996
 30
0.0
 10
269.658950
 20
213.104037
 30
0.0
 10
269.922342
 20
213.739922
 30
0.0
 10
270.391183
 20
214.208763
 30
0.0
  0
SPLINE
  5
18a
100
AcDbEntity
  8
Ebene_1
 62
7
100
AcDbSpline
 70
8
 71
3
 72
8
 73
4
 74
0
 40
0
 40
0
 40
0
 40
0
 40
1
 40
1
 40
1
 40
1
 10
270.391183
 20
214.208763
 30
0.0
 10
270.860024
 20
214.677604
 30
0.0
 10
271.495909
 20
214.940996
 30
0.0
 10
272.158950
 20
214.940996
 30
0.0
  0
SPLINE
  5
18b
100
AcDbEntity
  8
Ebene_1
 62
7
100
AcDbSpline
 70
8
 71
3
 72
8
 73
4
 74
0
 40
0
 40
0
 40
0
 40
0
 40
1
 40
1
 40
1
 40
1
 10
272.158950
 20
214.940996
 30
0.0
 10
272.821991
 20
214.940996
 30
0.0
 10
273.457876
 20
214.677604
 30
0.0
 10
273.926717
 20
214.208763
 30
0.0
  0
SPLINE
  5
18c
100
AcDbEntity
  8
Ebene_1
 62
7
100
AcDbSpline
 70
8
 71
3
 72
8
 73
4
 74
0
 40
0
 40
0
 40
0
 40
0
 40
1
 40
1
 40
1
 40
1
 10
273.926717
 20
214.208763
 30
0.0
 10
274.395558
 20
213.739922
 30
0.0
 10
274.658950
 20
213.104037
 30
0.0
 10
274.658950
 20
212.440996
 30
0.0
  0
SPLINE
  5
18d
100
AcDbEntity
  8
Ebene_1
 62
7
100
AcDbSpline
 70
8
 71
3
 72
8
 73
4
 74
0
 40
0
 40
0
 40
0
 40
0
 40
1
 40
1
 40
1
 40
1
 10
274.658950
 20
352.441000
 30
0.0
 10
274.658950
 20
351.777959
 30
0.0
 10
274.395558
 20
351.142074
 30
0.0
 10
273.926717
 20
350.673233
 30
0.0
  0
SPLINE
  5
18e
100
AcDbEntity
  8
Ebene_1
 62
7
100
AcDbSpline
 70
8
 71
3
 72
8
 73
4
 74
0
 40
0
 40
0
 40
0
 40
0
 40
1
 40
1
 40
1
 40
1
 10
273.926717
 20
350.673233
 30
0.0
 10
273.457876
 20
350.204392
 30
0.0
 10
272.821991
 20
349.941000
 30
0.0
 10
272.158950
 20
349.941000
 30
0.0
  0
SPLINE
  5
18f
100
AcDbEntity
  8
Ebene_1
 62
7
100
AcDbSpline
 70
8
 71
3
 72
8
 73
4
 74
0
 40
0
 40
0
 40
0
 40
0
 40
1
 40
1
 40
1
 40
1
 10
272.158950
 20
349.941000
 30
0.0
 10
271.495909
 20
349.941000
 30
0.0
 10
270.860024
 20
350.204392
 30
0.0
 10
270.391183
 20
350.673233
 30
0.0
  0
SPLINE
  5
190
100
AcDbEntity
  8
Ebene_1
 62
7
100
AcDbSpline
 70
8
 71
3
 72
8
 73
4
 74
0
 40
0
 40
0
 40
0
 40
0
 40
1
 40
1
 40
1
 40
1
 10
270.391183
 20
350.673233
 30
0.0
 10
269.922342
 20
351.142074
 30
0.0
 10
269.658950
 20
351.777959
 30
0.0
 10
269.658950
 20
352.441000
 30
0.0
  0
SPLINE
  5
191
100
AcDbEntity
  8
Ebene_1
 62
7
100
AcDbSpline
 70
8
 71
3
 72
8
 73
4
 74
0
 40
0
 40
0
 40
0
 40
0
 40
1
 40
1
 40
1
 40
1
 10
269.658950
 20
352.441000
 30
0.0
 10
269.658950
 20
353.104041
 30
0.0
 10
269.922342
 20
353.739926
 30
0.0
 10
270.391183
 20
354.208767
 30
0.0
  0
SPLINE
  5
192
100
AcDbEntity
  8
Ebene_1
 62
7
100
AcDbSpline
 70
8
 71
3
 72
8
 73
4
 74
0
 40
0
 40
0
 40
0
 40
0
 40
1
 40
1
 40
1
 40
1
 10
270.391183
 20
354.208767
 30
0.0
 10
270.860024
 20
354.677608
 30
0.0
 10
271.495909
 20
354.941000
 30
0.0
 10
272.158950
 20
354.941000
 30
0.0
  0
SPLINE
  5
193
100
AcDbEntity
  8
Ebene_1
 62
7
100
AcDbSpline
 70
8
 71
3
 72
8
 73
4
 74
0
 40
0
 40
0
 40
0
 40
0
 40
1
 40
1
 40
1
 40
1
 10
272.158950
 20
354.941000
 30
0.0
 10
272.821991
 20
354.941000
 30
0.0
 10
273.457876
 20
354.677608
 30
0.0
 10
273.926717
 20
354.208767
 30
0.0
  0
SPLINE
  5
194
100
AcDbEntity
  8
Ebene_1
 62
7
100
AcDbSpline
 70
8
 71
3
 72
8
 73
4
 74
0
 40
0
 40
0
 40
0
 40
0
 40
1
 40
1
 40
1
 40
1
 10
273.926717
 20
354.208767
 30
0.0
 10
274.395558
 20
353.739926
 30
0.0
 10
274.658950
 20
353.104041
 30
0.0
 10
274.658950
 20
352.441000
 30
0.0
  0
LWPOLYLINE
  5
195
100
AcDbEntity
  8
Ebene_1
 62
7
100
AcDbPolyline
 90
1
 70
1
 10
66.032688
 20
335.961494
 30
0.0
  0
SPLINE
  5
196
100
AcDbEntity
  8
Ebene_1
 62
7
100
AcDbSpline
 70
8
 71
3
 72
8
 73
4
 74
0
 40
0
 40
0
 40
0
 40
0
 40
1
 40
1
 40
1
 40
1
 10
132.760395
 20
286.264760
 30
0.0
 10
131.131242
 20
286.264760
 30
0.0
 10
129.655778
 20
285.651418
 30
0.0
 10
128.493069
 20
284.494397
 30
0.0
  0
SPLINE
  5
197
100
AcDbEntity
  8
Ebene_1
 62
7
100
AcDbSpline
 70
8
 71
3
 72
8
 73
4
 74
0
 40
0
 40
0
 40
0
 40
0
 40
1
 40
1
 40
1
 40
1
 10
128.493069
 20
284.494397
 30
0.0
 10
127.354219
 20
283.361109
 30
0.0
 10
126.754088
 20
281.906167
 30
0.0
 10
126.754088
 20
280.289783
 30
0.0
  0
LWPOLYLINE
  5
198
100
AcDbEntity
  8
Ebene_1
 62
7
100
AcDbPolyline
 90
5
 70
0
 10
126.754088
 20
307.106401
 30
0.0
 10
126.754088
 20
289.945041
 30
0.0
 10
152.933001
 20
289.945041
 30
0.0
 10
152.933001
 20
286.264760
 30
0.0
 10
132.760395
 20
286.264760
 30
0.0
  0
SPLINE
  5
199
100
AcDbEntity
  8
Ebene_1
 62
7
100
AcDbSpline
 70
8
 71
3
 72
8
 73
4
 74
0
 40
0
 40
0
 40
0
 40
0
 40
1
 40
1
 40
1
 40
1
 10
153.702321
 20
300.363869
 30
0.0
 10
155.302815
 20
300.363869
 30
0.0
 10
156.759650
 20
300.962567
 30
0.0
 10
157.921559
 20
302.088378
 30
0.0
  0
SPLINE
  5
19a
100
AcDbEntity
  8
Ebene_1
 62
7
100
AcDbSpline
 70
8
 71
3
 72
8
 73
4
 74
0
 40
0
 40
0
 40
0
 40
0
 40
1
 40
1
 40
1
 40
1
 10
157.921559
 20
302.088378
 30
0.0
 10
159.091839
 20
303.222290
 30
0.0
 10
159.708628
 20
304.695892
 30
0.0
 10
159.708628
 20
306.340838
 30
0.0
  0
LWPOLYLINE
  5
19b
100
AcDbEntity
  8
Ebene_1
 62
7
100
AcDbPolyline
 90
8
 70
0
 10
126.754088
 20
280.289783
 30
0.0
 10
126.754088
 20
279.524221
 30
0.0
 10
127.523408
 20
279.524221
 30
0.0
 10
159.708628
 20
279.524221
 30
0.0
 10
159.708628
 20
296.685580
 30
0.0
 10
133.529715
 20
296.685580
 30
0.0
 10
133.529715
 20
300.363869
 30
0.0
 10
153.702321
 20
300.363869
 30
0.0
  0
LWPOLYLINE
  5
19c
100
AcDbEntity
  8
Ebene_1
 62
7
100
AcDbPolyline
 90
3
 70
0
 10
159.708628
 20
306.340838
 30
0.0
 10
159.708628
 20
307.106401
 30
0.0
 10
126.754088
 20
307.106401
 30
0.0
  0
SPLINE
  5
19d
100
AcDbEntity
  8
Ebene_1
 62
7
100
AcDbSpline
 70
8
 71
3
 72
8
 73
4
 74
0
 40
0
 40
0
 40
0
 40
0
 40
1
 40
1
 40
1
 40
1
 10
163.404975
 20
285.499197
 30
0.0
 10
163.404975
 20
283.882815
 30
0.0
 10
164.002254
 20
282.419336
 30
0.0
 10
165.135945
 20
281.260692
 30
0.0
  0
LWPOLYLINE
  5
19e
100
AcDbEntity
  8
Ebene_1
 62
7
100
AcDbPolyline
 90
2
 70
0
 10
163.404975
 20
286.264760
 30
0.0
 10
163.404975
 20
285.499197
 30
0.0
  0
SPLINE
  5
19f
100
AcDbEntity
  8
Ebene_1
 62
7
100
AcDbSpline
 70
8
 71
3
 72
8
 73
4
 74
0
 40
0
 40
0
 40
0
 40
0
 40
1
 40
1
 40
1
 40
1
 10
165.144151
 20
281.254670
 30
0.0
 10
166.285452
 20
280.118945
 30
0.0
 10
167.761203
 20
279.524179
 30
0.0
 10
169.409466
 20
279.524179
 30
0.0
  0
LWPOLYLINE
  5
1a0
100
AcDbEntity
  8
Ebene_1
 62
7
100
AcDbPolyline
 90
3
 70
0
 10
165.135945
 20
281.260692
 30
0.0
 10
165.140048
 20
281.258651
 30
0.0
 10
165.144151
 20
281.254670
 30
0.0
  0
SPLINE
  5
1a1
100
AcDbEntity
  8
Ebene_1
 62
7
100
AcDbSpline
 70
8
 71
3
 72
8
 73
4
 74
0
 40
0
 40
0
 40
0
 40
0
 40
1
 40
1
 40
1
 40
1
 10
190.353403
 20
279.524179
 30
0.0
 10
191.953896
 20
279.524179
 30
0.0
 10
193.408721
 20
280.120884
 30
0.0
 10
194.570641
 20
281.246695
 30
0.0
  0
SPLINE
  5
1a2
100
AcDbEntity
  8
Ebene_1
 62
7
100
AcDbSpline
 70
8
 71
3
 72
8
 73
4
 74
0
 40
0
 40
0
 40
0
 40
0
 40
1
 40
1
 40
1
 40
1
 10
194.570641
 20
281.246695
 30
0.0
 10
195.740910
 20
282.380607
 30
0.0
 10
196.357710
 20
283.854211
 30
0.0
 10
196.357710
 20
285.499156
 30
0.0
  0
LWPOLYLINE
  5
1a3
100
AcDbEntity
  8
Ebene_1
 62
7
100
AcDbPolyline
 90
2
 70
0
 10
169.409466
 20
279.524179
 30
0.0
 10
190.353403
 20
279.524179
 30
0.0
  0
LWPOLYLINE
  5
1a4
100
AcDbEntity
  8
Ebene_1
 62
7
100
AcDbPolyline
 90
3
 70
0
 10
196.357710
 20
285.499156
 30
0.0
 10
196.357710
 20
286.264718
 30
0.0
 10
163.404975
 20
286.264760
 30
0.0
  0
SPLINE
  5
1a5
100
AcDbEntity
  8
Ebene_1
 62
7
100
AcDbSpline
 70
8
 71
3
 72
8
 73
4
 74
0
 40
0
 40
0
 40
0
 40
0
 40
1
 40
1
 40
1
 40
1
 10
163.404975
 20
295.920018
 30
0.0
 10
163.404975
 20
294.303637
 30
0.0
 10
164.002254
 20
292.840157
 30
0.0
 10
165.135945
 20
291.681513
 30
0.0
  0
LWPOLYLINE
  5
1a6
100
AcDbEntity
  8
Ebene_1
 62
7
100
AcDbPolyline
 90
2
 70
0
 10
163.404975
 20
296.685580
 30
0.0
 10
163.404975
 20
295.920018
 30
0.0
  0
SPLINE
  5
1a7
100
AcDbEntity
  8
Ebene_1
 62
7
100
AcDbSpline
 70
8
 71
3
 72
8
 73
4
 74
0
 40
0
 40
0
 40
0
 40
0
 40
1
 40
1
 40
1
 40
1
 10
165.144151
 20
291.675490
 30
0.0
 10
166.285452
 20
290.539765
 30
0.0
 10
167.761203
 20
289.945000
 30
0.0
 10
169.409466
 20
289.945000
 30
0.0
  0
LWPOLYLINE
  5
1a8
100
AcDbEntity
  8
Ebene_1
 62
7
100
AcDbPolyline
 90
3
 70
0
 10
165.135945
 20
291.681513
 30
0.0
 10
165.140048
 20
291.677532
 30
0.0
 10
165.144151
 20
291.675490
 30
0.0
  0
SPLINE
  5
1a9
100
AcDbEntity
  8
Ebene_1
 62
7
100
AcDbSpline
 70
8
 71
3
 72
8
 73
4
 74
0
 40
0
 40
0
 40
0
 40
0
 40
1
 40
1
 40
1
 40
1
 10
190.353403
 20
289.945000
 30
0.0
 10
191.953896
 20
289.945000
 30
0.0
 10
193.408721
 20
290.541704
 30
0.0
 10
194.570641
 20
291.667515
 30
0.0
  0
SPLINE
  5
1aa
100
AcDbEntity
  8
Ebene_1
 62
7
100
AcDbSpline
 70
8
 71
3
 72
8
 73
4
 74
0
 40
0
 40
0
 40
0
 40
0
 40
1
 40
1
 40
1
 40
1
 10
194.570641
 20
291.667515
 30
0.0
 10
195.740910
 20
292.801428
 30
0.0
 10
196.357710
 20
294.275031
 30
0.0
 10
196.357710
 20
295.919976
 30
0.0
  0
LWPOLYLINE
  5
1ab
100
AcDbEntity
  8
Ebene_1
 62
7
100
AcDbPolyline
 90
2
 70
0
 10
169.409466
 20
289.945000
 30
0.0
 10
190.353403
 20
289.945000
 30
0.0
  0
LWPOLYLINE
  5
1ac
100
AcDbEntity
  8
Ebene_1
 62
7
100
AcDbPolyline
 90
3
 70
0
 10
196.357710
 20
295.919976
 30
0.0
 10
196.357710
 20
296.685538
 30
0.0
 10
163.404975
 20
296.685580
 30
0.0
  0
SPLINE
  5
1ad
100
AcDbEntity
  8
Ebene_1
 62
7
100
AcDbSpline
 70
8
 71
3
 72
8
 73
4
 74
0
 40
0
 40
0
 40
0
 40
0
 40
1
 40
1
 40
1
 40
1
 10
163.404975
 20
306.340838
 30
0.0
 10
163.404975
 20
304.724457
 30
0.0
 10
164.002254
 20
303.260977
 30
0.0
 10
165.135945
 20
302.102334
 30
0.0
  0
LWPOLYLINE
  5
1ae
100
AcDbEntity
  8
Ebene_1
 62
7
100
AcDbPolyline
 90
2
 70
0
 10
163.404975
 20
307.106401
 30
0.0
 10
163.404975
 20
306.340838
 30
0.0
  0
SPLINE
  5
1af
100
AcDbEntity
  8
Ebene_1
 62
7
100
AcDbSpline
 70
8
 71
3
 72
8
 73
4
 74
0
 40
0
 40
0
 40
0
 40
0
 40
1
 40
1
 40
1
 40
1
 10
165.144151
 20
302.094372
 30
0.0
 10
166.285452
 20
300.958648
 30
0.0
 10
167.761203
 20
300.363883
 30
0.0
 10
169.409466
 20
300.363883
 30
0.0
  0
LWPOLYLINE
  5
1b0
100
AcDbEntity
  8
Ebene_1
 62
7
100
AcDbPolyline
 90
3
 70
0
 10
165.135945
 20
302.102334
 30
0.0
 10
165.140048
 20
302.098353
 30
0.0
 10
165.144151
 20
302.094372
 30
0.0
  0
SPLINE
  5
1b1
100
AcDbEntity
  8
Ebene_1
 62
7
100
AcDbSpline
 70
8
 71
3
 72
8
 73
4
 74
0
 40
0
 40
0
 40
0
 40
0
 40
1
 40
1
 40
1
 40
1
 10
190.353403
 20
300.363883
 30
0.0
 10
191.953896
 20
300.363883
 30
0.0
 10
193.408721
 20
300.962581
 30
0.0
 10
194.570641
 20
302.088392
 30
0.0
  0
SPLINE
  5
1b2
100
AcDbEntity
  8
Ebene_1
 62
7
100
AcDbSpline
 70
8
 71
3
 72
8
 73
4
 74
0
 40
0
 40
0
 40
0
 40
0
 40
1
 40
1
 40
1
 40
1
 10
194.570641
 20
302.088392
 30
0.0
 10
195.740910
 20
303.222303
 30
0.0
 10
196.357710
 20
304.695908
 30
0.0
 10
196.357710
 20
306.340852
 30
0.0
  0
LWPOLYLINE
  5
1b3
100
AcDbEntity
  8
Ebene_1
 62
7
100
AcDbPolyline
 90
2
 70
0
 10
169.409466
 20
300.363883
 30
0.0
 10
190.353403
 20
300.363883
 30
0.0
  0
LWPOLYLINE
  5
1b4
100
AcDbEntity
  8
Ebene_1
 62
7
100
AcDbPolyline
 90
3
 70
0
 10
196.357710
 20
306.340852
 30
0.0
 10
196.357710
 20
307.106414
 30
0.0
 10
163.404975
 20
307.106401
 30
0.0
  0
LWPOLYLINE
  5
1b5
100
AcDbEntity
  8
Ebene_1
 62
7
100
AcDbPolyline
 90
25
 70
1
 10
200.055862
 20
307.106401
 30
0.0
 10
200.055862
 20
300.812441
 30
0.0
 10
205.517223
 20
295.377744
 30
0.0
 10
207.590787
 20
293.314315
 30
0.0
 10
200.055862
 20
285.816188
 30
0.0
 10
200.055862
 20
279.524221
 30
0.0
 10
200.825182
 20
279.524221
 30
0.0
 10
206.829478
 20
279.524221
 30
0.0
 10
206.829478
 20
282.576502
 30
0.0
 10
216.532132
 20
292.231761
 30
0.0
 10
226.234775
 20
282.576502
 30
0.0
 10
226.234775
 20
279.524221
 30
0.0
 10
227.004095
 20
279.524221
 30
0.0
 10
233.008402
 20
279.524221
 30
0.0
 10
233.008402
 20
285.816188
 30
0.0
 10
225.469466
 20
293.318302
 30
0.0
 10
227.284579
 20
295.154455
 30
0.0
 10
227.322635
 20
295.154455
 30
0.0
 10
233.008391
 20
300.812441
 30
0.0
 10
233.008391
 20
307.106401
 30
0.0
 10
226.234765
 20
307.106401
 30
0.0
 10
226.234765
 20
304.052126
 30
0.0
 10
216.532121
 20
294.396868
 30
0.0
 10
206.829468
 20
304.052126
 30
0.0
 10
206.829468
 20
307.106401
 30
0.0
  0
SPLINE
  5
1b6
100
AcDbEntity
  8
Ebene_1
 62
7
100
AcDbSpline
 70
8
 71
3
 72
8
 73
4
 74
0
 40
0
 40
0
 40
0
 40
0
 40
1
 40
1
 40
1
 40
1
 10
134.800750
 20
258.098887
 30
0.0
 10
138.382180
 20
258.098887
 30
0.0
 10
140.438610
 20
259.646989
 30
0.0
 10
141.963610
 20
261.749635
 30
0.0
  0
LWPOLYLINE
  5
1b7
100
AcDbEntity
  8
Ebene_1
 62
7
100
AcDbPolyline
 90
14
 70
1
 10
236.706738
 20
307.106401
 30
0.0
 10
236.706738
 20
300.812441
 30
0.0
 10
249.795200
 20
287.787910
 30
0.0
 10
249.795200
 20
279.524221
 30
0.0
 10
250.564520
 20
279.524221
 30
0.0
 10
256.568827
 20
279.524221
 30
0.0
 10
256.568827
 20
287.787910
 30
0.0
 10
269.659278
 20
300.812441
 30
0.0
 10
269.659278
 20
307.106401
 30
0.0
 10
262.885662
 20
307.106401
 30
0.0
 10
262.885662
 20
304.052126
 30
0.0
 10
253.183008
 20
294.396868
 30
0.0
 10
243.480365
 20
304.052126
 30
0.0
 10
243.480365
 20
307.106401
 30
0.0
  0
SPLINE
  5
1b8
100
AcDbEntity
  8
Ebene_1
 62
7
100
AcDbSpline
 70
8
 71
3
 72
8
 73
4
 74
0
 40
0
 40
0
 40
0
 40
0
 40
1
 40
1
 40
1
 40
1
 10
138.590130
 20
264.152659
 30
0.0
 10
137.619680
 20
262.974253
 30
0.0
 10
136.626120
 20
262.188649
 30
0.0
 10
134.939380
 20
262.188649
 30
0.0
  0
SPLINE
  5
1b9
100
AcDbEntity
  8
Ebene_1
 62
7
100
AcDbSpline
 70
8
 71
3
 72
8
 73
4
 74
0
 40
0
 40
0
 40
0
 40
0
 40
1
 40
1
 40
1
 40
1
 10
134.939380
 20
262.188649
 30
0.0
 10
132.675000
 20
262.188649
 30
0.0
 10
131.080680
 20
264.083341
 30
0.0
 10
131.080680
 20
266.509471
 30
0.0
  0
LWPOLYLINE
  5
1ba
100
AcDbEntity
  8
Ebene_1
 62
7
100
AcDbPolyline
 90
2
 70
0
 10
141.963610
 20
261.749635
 30
0.0
 10
138.590130
 20
264.152659
 30
0.0
  0
SPLINE
  5
1bb
100
AcDbEntity
  8
Ebene_1
 62
7
100
AcDbSpline
 70
8
 71
3
 72
8
 73
4
 74
0
 40
0
 40
0
 40
0
 40
0
 40
1
 40
1
 40
1
 40
1
 10
131.080680
 20
266.555681
 30
0.0
 10
131.080680
 20
268.912493
 30
0.0
 10
132.675000
 20
270.830291
 30
0.0
 10
134.939380
 20
270.830291
 30
0.0
  0
SPLINE
  5
1bc
100
AcDbEntity
  8
Ebene_1
 62
7
100
AcDbSpline
 70
8
 71
3
 72
8
 73
4
 74
0
 40
0
 40
0
 40
0
 40
0
 40
1
 40
1
 40
1
 40
1
 10
134.939380
 20
270.830291
 30
0.0
 10
136.487490
 20
270.830291
 30
0.0
 10
137.550360
 20
270.090899
 30
0.0
 10
138.474600
 20
268.935599
 30
0.0
  0
LWPOLYLINE
  5
1bd
100
AcDbEntity
  8
Ebene_1
 62
7
100
AcDbPolyline
 90
2
 70
0
 10
131.080680
 20
266.509471
 30
0.0
 10
131.080680
 20
266.555681
 30
0.0
  0
SPLINE
  5
1be
100
AcDbEntity
  8
Ebene_1
 62
7
100
AcDbSpline
 70
8
 71
3
 72
8
 73
4
 74
0
 40
0
 40
0
 40
0
 40
0
 40
1
 40
1
 40
1
 40
1
 10
141.848080
 20
271.546577
 30
0.0
 10
140.415510
 20
273.533694
 30
0.0
 10
138.289750
 20
274.920054
 30
0.0
 10
134.985600
 20
274.920054
 30
0.0
  0
SPLINE
  5
1bf
100
AcDbEntity
  8
Ebene_1
 62
7
100
AcDbSpline
 70
8
 71
3
 72
8
 73
4
 74
0
 40
0
 40
0
 40
0
 40
0
 40
1
 40
1
 40
1
 40
1
 10
134.985600
 20
274.920054
 30
0.0
 10
130.087120
 20
274.920054
 30
0.0
 10
126.459480
 20
271.223093
 30
0.0
 10
126.459480
 20
266.509469
 30
0.0
  0
LWPOLYLINE
  5
1c0
100
AcDbEntity
  8
Ebene_1
 62
7
100
AcDbPolyline
 90
2
 70
0
 10
138.474600
 20
268.935599
 30
0.0
 10
141.848080
 20
271.546577
 30
0.0
  0
SPLINE
  5
1c1
100
AcDbEntity
  8
Ebene_1
 62
7
100
AcDbSpline
 70
8
 71
3
 72
8
 73
4
 74
0
 40
0
 40
0
 40
0
 40
0
 40
1
 40
1
 40
1
 40
1
 10
126.459480
 20
266.463259
 30
0.0
 10
126.459480
 20
261.634105
 30
0.0
 10
130.179550
 20
258.098887
 30
0.0
 10
134.800750
 20
258.098887
 30
0.0
  0
LWPOLYLINE
  5
1c2
100
AcDbEntity
  8
Ebene_1
 62
7
100
AcDbPolyline
 90
2
 70
0
 10
126.459480
 20
266.509469
 30
0.0
 10
126.459480
 20
266.463259
 30
0.0
  0
LWPOLYLINE
  5
1c3
100
AcDbEntity
  8
Ebene_1
 62
7
100
AcDbPolyline
 90
1
 70
1
 10
134.800750
 20
258.098887
 30
0.0
  0
LWPOLYLINE
  5
1c4
100
AcDbEntity
  8
Ebene_1
 62
7
100
AcDbPolyline
 90
8
 70
1
 10
142.462910
 20
258.422371
 30
0.0
 10
147.176540
 20
258.422371
 30
0.0
 10
148.331840
 20
261.310621
 30
0.0
 10
154.570460
 20
261.310621
 30
0.0
 10
155.748860
 20
258.422371
 30
0.0
 10
160.554910
 20
258.422371
 30
0.0
 10
153.669320
 20
274.712102
 30
0.0
 10
149.348500
 20
274.712102
 30
0.0
  0
LWPOLYLINE
  5
1c5
100
AcDbEntity
  8
Ebene_1
 62
7
100
AcDbPolyline
 90
3
 70
1
 10
149.648880
 20
264.799627
 30
0.0
 10
151.474250
 20
269.397721
 30
0.0
 10
153.276520
 20
264.799627
 30
0.0
  0
SPLINE
  5
1c6
100
AcDbEntity
  8
Ebene_1
 62
7
100
AcDbSpline
 70
8
 71
3
 72
8
 73
4
 74
0
 40
0
 40
0
 40
0
 40
0
 40
1
 40
1
 40
1
 40
1
 10
173.145870
 20
264.060235
 30
0.0
 10
175.156090
 20
264.915157
 30
0.0
 10
176.473130
 20
266.555683
 30
0.0
 10
176.473130
 20
269.028025
 30
0.0
  0
LWPOLYLINE
  5
1c7
100
AcDbEntity
  8
Ebene_1
 62
7
100
AcDbPolyline
 90
8
 70
0
 10
162.124320
 20
258.422371
 30
0.0
 10
166.606880
 20
258.422371
 30
0.0
 10
166.606880
 20
263.320843
 30
0.0
 10
168.524680
 20
263.320843
 30
0.0
 10
168.570880
 20
263.320843
 30
0.0
 10
171.828830
 20
258.422371
 30
0.0
 10
177.004570
 20
258.422371
 30
0.0
 10
173.145870
 20
264.060235
 30
0.0
  0
SPLINE
  5
1c8
100
AcDbEntity
  8
Ebene_1
 62
7
100
AcDbSpline
 70
8
 71
3
 72
8
 73
4
 74
0
 40
0
 40
0
 40
0
 40
0
 40
1
 40
1
 40
1
 40
1
 10
176.473130
 20
269.074235
 30
0.0
 10
176.473130
 20
270.668549
 30
0.0
 10
175.987910
 20
271.916273
 30
0.0
 10
175.040560
 20
272.840514
 30
0.0
  0
SPLINE
  5
1c9
100
AcDbEntity
  8
Ebene_1
 62
7
100
AcDbSpline
 70
8
 71
3
 72
8
 73
4
 74
0
 40
0
 40
0
 40
0
 40
0
 40
1
 40
1
 40
1
 40
1
 10
175.040560
 20
272.840514
 30
0.0
 10
173.954580
 20
273.949602
 30
0.0
 10
172.244730
 20
274.596570
 30
0.0
 10
169.772390
 20
274.596570
 30
0.0
  0
LWPOLYLINE
  5
1ca
100
AcDbEntity
  8
Ebene_1
 62
7
100
AcDbPolyline
 90
2
 70
0
 10
176.473130
 20
269.028025
 30
0.0
 10
176.473130
 20
269.074235
 30
0.0
  0
LWPOLYLINE
  5
1cb
100
AcDbEntity
  8
Ebene_1
 62
7
100
AcDbPolyline
 90
3
 70
0
 10
169.772390
 20
274.596570
 30
0.0
 10
162.124310
 20
274.596570
 30
0.0
 10
162.124320
 20
258.422371
 30
0.0
  0
SPLINE
  5
1cc
100
AcDbEntity
  8
Ebene_1
 62
7
100
AcDbSpline
 70
8
 71
3
 72
8
 73
4
 74
0
 40
0
 40
0
 40
0
 40
0
 40
1
 40
1
 40
1
 40
1
 10
169.541340
 20
270.714763
 30
0.0
 10
171.043230
 20
270.714763
 30
0.0
 10
171.967470
 20
270.067795
 30
0.0
 10
171.967470
 20
268.796965
 30
0.0
  0
LWPOLYLINE
  5
1cd
100
AcDbEntity
  8
Ebene_1
 62
7
100
AcDbPolyline
 90
3
 70
0
 10
166.606880
 20
266.832955
 30
0.0
 10
166.606880
 20
270.714763
 30
0.0
 10
169.541340
 20
270.714763
 30
0.0
  0
SPLINE
  5
1ce
100
AcDbEntity
  8
Ebene_1
 62
7
100
AcDbSpline
 70
8
 71
3
 72
8
 73
4
 74
0
 40
0
 40
0
 40
0
 40
0
 40
1
 40
1
 40
1
 40
1
 10
171.967470
 20
268.750755
 30
0.0
 10
171.967470
 20
267.572349
 30
0.0
 10
171.089440
 20
266.832957
 30
0.0
 10
169.564450
 20
266.832957
 30
0.0
  0
LWPOLYLINE
  5
1cf
100
AcDbEntity
  8
Ebene_1
 62
7
100
AcDbPolyline
 90
2
 70
0
 10
171.967470
 20
268.796965
 30
0.0
 10
171.967470
 20
268.750755
 30
0.0
  0
SPLINE
  5
1d0
100
AcDbEntity
  8
Ebene_1
 62
7
100
AcDbSpline
 70
8
 71
3
 72
8
 73
4
 74
0
 40
0
 40
0
 40
0
 40
0
 40
1
 40
1
 40
1
 40
1
 10
185.085900
 20
258.145099
 30
0.0
 10
189.013920
 20
258.145099
 30
0.0
 10
191.624900
 20
260.109109
 30
0.0
 10
191.624900
 20
263.413267
 30
0.0
  0
LWPOLYLINE
  5
1d1
100
AcDbEntity
  8
Ebene_1
 62
7
100
AcDbPolyline
 90
2
 70
0
 10
169.564450
 20
266.832957
 30
0.0
 10
166.606880
 20
266.832955
 30
0.0
  0
SPLINE
  5
1d2
100
AcDbEntity
  8
Ebene_1
 62
7
100
AcDbSpline
 70
8
 71
3
 72
8
 73
4
 74
0
 40
0
 40
0
 40
0
 40
0
 40
1
 40
1
 40
1
 40
1
 10
191.624900
 20
263.459477
 30
0.0
 10
191.624900
 20
266.486363
 30
0.0
 10
189.314300
 20
267.687875
 30
0.0
 10
185.594230
 20
268.496585
 30
0.0
  0
SPLINE
  5
1d3
100
AcDbEntity
  8
Ebene_1
 62
7
100
AcDbSpline
 70
8
 71
3
 72
8
 73
4
 74
0
 40
0
 40
0
 40
0
 40
0
 40
1
 40
1
 40
1
 40
1
 10
185.594230
 20
268.496585
 30
0.0
 10
183.352950
 20
269.004917
 30
0.0
 10
182.798410
 20
269.328401
 30
0.0
 10
182.798410
 20
270.067793
 30
0.0
  0
LWPOLYLINE
  5
1d4
100
AcDbEntity
  8
Ebene_1
 62
7
100
AcDbPolyline
 90
2
 70
0
 10
191.624900
 20
263.413267
 30
0.0
 10
191.624900
 20
263.459477
 30
0.0
  0
SPLINE
  5
1d5
100
AcDbEntity
  8
Ebene_1
 62
7
100
AcDbSpline
 70
8
 71
3
 72
8
 73
4
 74
0
 40
0
 40
0
 40
0
 40
0
 40
1
 40
1
 40
1
 40
1
 10
182.798410
 20
270.114003
 30
0.0
 10
182.798410
 20
270.691653
 30
0.0
 10
183.329850
 20
271.153773
 30
0.0
 10
184.415830
 20
271.153773
 30
0.0
  0
SPLINE
  5
1d6
100
AcDbEntity
  8
Ebene_1
 62
7
100
AcDbSpline
 70
8
 71
3
 72
8
 73
4
 74
0
 40
0
 40
0
 40
0
 40
0
 40
1
 40
1
 40
1
 40
1
 10
184.415830
 20
271.153773
 30
0.0
 10
185.848400
 20
271.153773
 30
0.0
 10
187.465820
 20
270.599229
 30
0.0
 10
188.944600
 20
269.559459
 30
0.0
  0
LWPOLYLINE
  5
1d7
100
AcDbEntity
  8
Ebene_1
 62
7
100
AcDbPolyline
 90
2
 70
0
 10
182.798410
 20
270.067793
 30
0.0
 10
182.798410
 20
270.114003
 30
0.0
  0
SPLINE
  5
1d8
100
AcDbEntity
  8
Ebene_1
 62
7
100
AcDbSpline
 70
8
 71
3
 72
8
 73
4
 74
0
 40
0
 40
0
 40
0
 40
0
 40
1
 40
1
 40
1
 40
1
 10
191.185890
 20
272.724982
 30
0.0
 10
189.429830
 20
274.134448
 30
0.0
 10
187.280970
 20
274.873840
 30
0.0
 10
184.531360
 20
274.873840
 30
0.0
  0
SPLINE
  5
1d9
100
AcDbEntity
  8
Ebene_1
 62
7
100
AcDbSpline
 70
8
 71
3
 72
8
 73
4
 74
0
 40
0
 40
0
 40
0
 40
0
 40
1
 40
1
 40
1
 40
1
 10
184.531360
 20
274.873840
 30
0.0
 10
180.649550
 20
274.873840
 30
0.0
 10
178.269630
 20
272.701876
 30
0.0
 10
178.269630
 20
269.698095
 30
0.0
  0
LWPOLYLINE
  5
1da
100
AcDbEntity
  8
Ebene_1
 62
7
100
AcDbPolyline
 90
2
 70
0
 10
188.944600
 20
269.559459
 30
0.0
 10
191.185890
 20
272.724982
 30
0.0
  0
SPLINE
  5
1db
100
AcDbEntity
  8
Ebene_1
 62
7
100
AcDbSpline
 70
8
 71
3
 72
8
 73
4
 74
0
 40
0
 40
0
 40
0
 40
0
 40
1
 40
1
 40
1
 40
1
 10
178.269630
 20
269.651885
 30
0.0
 10
178.269630
 20
266.324621
 30
0.0
 10
180.926820
 20
265.354169
 30
0.0
 10
184.369620
 20
264.568565
 30
0.0
  0
SPLINE
  5
1dc
100
AcDbEntity
  8
Ebene_1
 62
7
100
AcDbSpline
 70
8
 71
3
 72
8
 73
4
 74
0
 40
0
 40
0
 40
0
 40
0
 40
1
 40
1
 40
1
 40
1
 10
184.369620
 20
264.568565
 30
0.0
 10
186.564690
 20
264.060233
 30
0.0
 10
187.096120
 20
263.690537
 30
0.0
 10
187.096120
 20
263.020463
 30
0.0
  0
LWPOLYLINE
  5
1dd
100
AcDbEntity
  8
Ebene_1
 62
7
100
AcDbPolyline
 90
2
 70
0
 10
178.269630
 20
269.698095
 30
0.0
 10
178.269630
 20
269.651885
 30
0.0
  0
SPLINE
  5
1de
100
AcDbEntity
  8
Ebene_1
 62
7
100
AcDbSpline
 70
8
 71
3
 72
8
 73
4
 74
0
 40
0
 40
0
 40
0
 40
0
 40
1
 40
1
 40
1
 40
1
 10
187.096120
 20
262.974253
 30
0.0
 10
187.096120
 20
262.281073
 30
0.0
 10
186.449160
 20
261.865165
 30
0.0
 10
185.247640
 20
261.865165
 30
0.0
  0
SPLINE
  5
1df
100
AcDbEntity
  8
Ebene_1
 62
7
100
AcDbSpline
 70
8
 71
3
 72
8
 73
4
 74
0
 40
0
 40
0
 40
0
 40
0
 40
1
 40
1
 40
1
 40
1
 10
185.247640
 20
261.865165
 30
0.0
 10
183.376060
 20
261.865165
 30
0.0
 10
181.596900
 20
262.535239
 30
0.0
 10
180.002580
 20
263.806069
 30
0.0
  0
LWPOLYLINE
  5
1e0
100
AcDbEntity
  8
Ebene_1
 62
7
100
AcDbPolyline
 90
2
 70
0
 10
187.096120
 20
263.020463
 30
0.0
 10
187.096120
 20
262.974253
 30
0.0
  0
SPLINE
  5
1e1
100
AcDbEntity
  8
Ebene_1
 62
7
100
AcDbSpline
 70
8
 71
3
 72
8
 73
4
 74
0
 40
0
 40
0
 40
0
 40
0
 40
1
 40
1
 40
1
 40
1
 10
177.507130
 20
260.825395
 30
0.0
 10
179.494250
 20
259.046233
 30
0.0
 10
182.220760
 20
258.145099
 30
0.0
 10
185.085900
 20
258.145099
 30
0.0
  0
LWPOLYLINE
  5
1e2
100
AcDbEntity
  8
Ebene_1
 62
7
100
AcDbPolyline
 90
2
 70
0
 10
180.002580
 20
263.806069
 30
0.0
 10
177.507130
 20
260.825395
 30
0.0
  0
SPLINE
  5
1e3
100
AcDbEntity
  8
Ebene_1
 62
7
100
AcDbSpline
 70
8
 71
3
 72
8
 73
4
 74
0
 40
0
 40
0
 40
0
 40
0
 40
1
 40
1
 40
1
 40
1
 10
208.346430
 20
258.098887
 30
0.0
 10
213.337320
 20
258.098887
 30
0.0
 10
217.080490
 20
261.865165
 30
0.0
 10
217.080490
 20
266.509471
 30
0.0
  0
LWPOLYLINE
  5
1e4
100
AcDbEntity
  8
Ebene_1
 62
7
100
AcDbPolyline
 90
1
 70
1
 10
185.085900
 20
258.145099
 30
0.0
  0
SPLINE
  5
1e5
100
AcDbEntity
  8
Ebene_1
 62
7
100
AcDbSpline
 70
8
 71
3
 72
8
 73
4
 74
0
 40
0
 40
0
 40
0
 40
0
 40
1
 40
1
 40
1
 40
1
 10
217.080490
 20
266.555681
 30
0.0
 10
217.080490
 20
271.199987
 30
0.0
 10
213.383530
 20
274.920054
 30
0.0
 10
208.392640
 20
274.920054
 30
0.0
  0
SPLINE
  5
1e6
100
AcDbEntity
  8
Ebene_1
 62
7
100
AcDbSpline
 70
8
 71
3
 72
8
 73
4
 74
0
 40
0
 40
0
 40
0
 40
0
 40
1
 40
1
 40
1
 40
1
 10
208.392640
 20
274.920054
 30
0.0
 10
203.401740
 20
274.920054
 30
0.0
 10
199.658570
 20
271.153775
 30
0.0
 10
199.658570
 20
266.509469
 30
0.0
  0
LWPOLYLINE
  5
1e7
100
AcDbEntity
  8
Ebene_1
 62
7
100
AcDbPolyline
 90
2
 70
0
 10
217.080490
 20
266.509471
 30
0.0
 10
217.080490
 20
266.555681
 30
0.0
  0
SPLINE
  5
1e8
100
AcDbEntity
  8
Ebene_1
 62
7
100
AcDbSpline
 70
8
 71
3
 72
8
 73
4
 74
0
 40
0
 40
0
 40
0
 40
0
 40
1
 40
1
 40
1
 40
1
 10
199.658570
 20
266.463259
 30
0.0
 10
199.658570
 20
261.818953
 30
0.0
 10
203.355530
 20
258.098887
 30
0.0
 10
208.346430
 20
258.098887
 30
0.0
  0
LWPOLYLINE
  5
1e9
100
AcDbEntity
  8
Ebene_1
 62
7
100
AcDbPolyline
 90
2
 70
0
 10
199.658570
 20
266.509469
 30
0.0
 10
199.658570
 20
266.463259
 30
0.0
  0
SPLINE
  5
1ea
100
AcDbEntity
  8
Ebene_1
 62
7
100
AcDbSpline
 70
8
 71
3
 72
8
 73
4
 74
0
 40
0
 40
0
 40
0
 40
0
 40
1
 40
1
 40
1
 40
1
 10
208.392630
 20
262.142437
 30
0.0
 10
205.943390
 20
262.142437
 30
0.0
 10
204.256650
 20
264.175765
 30
0.0
 10
204.256650
 20
266.509471
 30
0.0
  0
LWPOLYLINE
  5
1eb
100
AcDbEntity
  8
Ebene_1
 62
7
100
AcDbPolyline
 90
1
 70
1
 10
208.346430
 20
258.098887
 30
0.0
  0
SPLINE
  5
1ec
100
AcDbEntity
  8
Ebene_1
 62
7
100
AcDbSpline
 70
8
 71
3
 72
8
 73
4
 74
0
 40
0
 40
0
 40
0
 40
0
 40
1
 40
1
 40
1
 40
1
 10
204.256650
 20
266.555681
 30
0.0
 10
204.256650
 20
268.889387
 30
0.0
 10
205.897180
 20
270.876503
 30
0.0
 10
208.346420
 20
270.876503
 30
0.0
  0
SPLINE
  5
1ed
100
AcDbEntity
  8
Ebene_1
 62
7
100
AcDbSpline
 70
8
 71
3
 72
8
 73
4
 74
0
 40
0
 40
0
 40
0
 40
0
 40
1
 40
1
 40
1
 40
1
 10
208.346420
 20
270.876503
 30
0.0
 10
210.818760
 20
270.876503
 30
0.0
 10
212.505500
 20
268.843175
 30
0.0
 10
212.505500
 20
266.509469
 30
0.0
  0
LWPOLYLINE
  5
1ee
100
AcDbEntity
  8
Ebene_1
 62
7
100
AcDbPolyline
 90
2
 70
0
 10
204.256650
 20
266.509471
 30
0.0
 10
204.256650
 20
266.555681
 30
0.0
  0
SPLINE
  5
1ef
100
AcDbEntity
  8
Ebene_1
 62
7
100
AcDbSpline
 70
8
 71
3
 72
8
 73
4
 74
0
 40
0
 40
0
 40
0
 40
0
 40
1
 40
1
 40
1
 40
1
 10
212.505500
 20
266.463259
 30
0.0
 10
212.505500
 20
264.129553
 30
0.0
 10
210.864970
 20
262.142437
 30
0.0
 10
208.392630
 20
262.142437
 30
0.0
  0
LWPOLYLINE
  5
1f0
100
AcDbEntity
  8
Ebene_1
 62
7
100
AcDbPolyline
 90
2
 70
0
 10
212.505500
 20
266.509469
 30
0.0
 10
212.505500
 20
266.463259
 30
0.0
  0
LWPOLYLINE
  5
1f1
100
AcDbEntity
  8
Ebene_1
 62
7
100
AcDbPolyline
 90
1
 70
1
 10
208.392630
 20
262.142437
 30
0.0
  0
LWPOLYLINE
  5
1f2
100
AcDbEntity
  8
Ebene_1
 62
7
100
AcDbPolyline
 90
10
 70
1
 10
219.392900
 20
258.422371
 30
0.0
 10
223.829250
 20
258.422371
 30
0.0
 10
223.829250
 20
267.295075
 30
0.0
 10
230.737950
 20
258.422371
 30
0.0
 10
234.665970
 20
258.422371
 30
0.0
 10
234.665970
 20
274.596572
 30
0.0
 10
230.229610
 20
274.596572
 30
0.0
 10
230.229610
 20
266.047351
 30
0.0
 10
223.575090
 20
274.596572
 30
0.0
 10
219.392900
 20
274.596572
 30
0.0
  0
LWPOLYLINE
  5
1f3
100
AcDbEntity
  8
Ebene_1
 62
7
100
AcDbPolyline
 90
6
 70
1
 10
237.534720
 20
258.422371
 30
0.0
 10
249.850220
 20
258.422371
 30
0.0
 10
249.850220
 20
262.350391
 30
0.0
 10
242.017290
 20
262.350391
 30
0.0
 10
242.017290
 20
274.596572
 30
0.0
 10
237.534720
 20
274.596572
 30
0.0
  0
LWPOLYLINE
  5
1f4
100
AcDbEntity
  8
Ebene_1
 62
7
100
AcDbPolyline
 90
9
 70
1
 10
253.394110
 20
258.422371
 30
0.0
 10
257.899780
 20
258.422371
 30
0.0
 10
257.899780
 20
264.545461
 30
0.0
 10
264.045970
 20
274.596572
 30
0.0
 10
259.031970
 20
274.596572
 30
0.0
 10
255.681600
 20
268.704541
 30
0.0
 10
252.354340
 20
274.596572
 30
0.0
 10
247.247910
 20
274.596572
 30
0.0
 10
253.394110
 20
264.476143
 30
0.0
  0
LWPOLYLINE
  5
1f5
100
AcDbEntity
  8
Ebene_1
 62
7
100
AcDbPolyline
 90
6
 70
1
 10
266.579690
 20
263.690539
 30
0.0
 10
268.890290
 20
263.690539
 30
0.0
 10
270.230440
 20
272.632562
 30
0.0
 10
270.230440
 20
274.596572
 30
0.0
 10
265.239550
 20
274.596572
 30
0.0
 10
265.239550
 20
272.632562
 30
0.0
  0
SPLINE
  5
1f6
100
AcDbEntity
  8
Ebene_1
 62
7
100
AcDbSpline
 70
8
 71
3
 72
8
 73
4
 74
0
 40
0
 40
0
 40
0
 40
0
 40
1
 40
1
 40
1
 40
1
 10
152.355330
 20
352.586850
 30
0.0
 10
152.355330
 20
351.923809
 30
0.0
 10
152.091938
 20
351.287924
 30
0.0
 10
151.623097
 20
350.819083
 30
0.0
  0
SPLINE
  5
1f7
100
AcDbEntity
  8
Ebene_1
 62
7
100
AcDbSpline
 70
8
 71
3
 72
8
 73
4
 74
0
 40
0
 40
0
 40
0
 40
0
 40
1
 40
1
 40
1
 40
1
 10
151.623097
 20
350.819083
 30
0.0
 10
151.154256
 20
350.350242
 30
0.0
 10
150.518371
 20
350.086850
 30
0.0
 10
149.855330
 20
350.086850
 30
0.0
  0
SPLINE
  5
1f8
100
AcDbEntity
  8
Ebene_1
 62
7
100
AcDbSpline
 70
8
 71
3
 72
8
 73
4
 74
0
 40
0
 40
0
 40
0
 40
0
 40
1
 40
1
 40
1
 40
1
 10
149.855330
 20
350.086850
 30
0.0
 10
149.192289
 20
350.086850
 30
0.0
 10
148.556404
 20
350.350242
 30
0.0
 10
148.087563
 20
350.819083
 30
0.0
  0
SPLINE
  5
1f9
100
AcDbEntity
  8
Ebene_1
 62
7
100
AcDbSpline
 70
8
 71
3
 72
8
 73
4
 74
0
 40
0
 40
0
 40
0
 40
0
 40
1
 40
1
 40
1
 40
1
 10
148.087563
 20
350.819083
 30
0.0
 10
147.618722
 20
351.287924
 30
0.0
 10
147.355330
 20
351.923809
 30
0.0
 10
147.355330
 20
352.586850
 30
0.0
  0
SPLINE
  5
1fa
100
AcDbEntity
  8
Ebene_1
 62
7
100
AcDbSpline
 70
8
 71
3
 72
8
 73
4
 74
0
 40
0
 40
0
 40
0
 40
0
 40
1
 40
1
 40
1
 40
1
 10
147.355330
 20
352.586850
 30
0.0
 10
147.355330
 20
353.249891
 30
0.0
 10
147.618722
 20
353.885776
 30
0.0
 10
148.087563
 20
354.354617
 30
0.0
  0
SPLINE
  5
1fb
100
AcDbEntity
  8
Ebene_1
 62
7
100
AcDbSpline
 70
8
 71
3
 72
8
 73
4
 74
0
 40
0
 40
0
 40
0
 40
0
 40
1
 40
1
 40
1
 40
1
 10
148.087563
 20
354.354617
 30
0.0
 10
148.556404
 20
354.823458
 30
0.0
 10
149.192289
 20
355.086850
 30
0.0
 10
149.855330
 20
355.086850
 30
0.0
  0
SPLINE
  5
1fc
100
AcDbEntity
  8
Ebene_1
 62
7
100
AcDbSpline
 70
8
 71
3
 72
8
 73
4
 74
0
 40
0
 40
0
 40
0
 40
0
 40
1
 40
1
 40
1
 40
1
 10
149.855330
 20
355.086850
 30
0.0
 10
150.518371
 20
355.086850
 30
0.0
 10
151.154256
 20
354.823458
 30
0.0
 10
151.623097
 20
354.354617
 30
0.0
  0
SPLINE
  5
1fd
100
AcDbEntity
  8
Ebene_1
 62
7
100
AcDbSpline
 70
8
 71
3
 72
8
 73
4
 74
0
 40
0
 40
0
 40
0
 40
0
 40
1
 40
1
 40
1
 40
1
 10
151.623097
 20
354.354617
 30
0.0
 10
152.091938
 20
353.885776
 30
0.0
 10
152.355330
 20
353.249891
 30
0.0
 10
152.355330
 20
352.586850
 30
0.0
  0
SPLINE
  5
1fe
100
AcDbEntity
  8
Ebene_1
 62
7
100
AcDbSpline
 70
8
 71
3
 72
8
 73
4
 74
0
 40
0
 40
0
 40
0
 40
0
 40
1
 40
1
 40
1
 40
1
 10
152.355330
 20
212.411841
 30
0.0
 10
152.355330
 20
211.748800
 30
0.0
 10
152.091938
 20
211.112915
 30
0.0
 10
151.623097
 20
210.644074
 30
0.0
  0
SPLINE
  5
1ff
100
AcDbEntity
  8
Ebene_1
 62
7
100
AcDbSpline
 70
8
 71
3
 72
8
 73
4
 74
0
 40
0
 40
0
 40
0
 40
0
 40
1
 40
1
 40
1
 40
1
 10
151.623097
 20
210.644074
 30
0.0
 10
151.154256
 20
210.175233
 30
0.0
 10
150.518371
 20
209.911841
 30
0.0
 10
149.855330
 20
209.911841
 30
0.0
  0
SPLINE
  5
200
100
AcDbEntity
  8
Ebene_1
 62
7
100
AcDbSpline
 70
8
 71
3
 72
8
 73
4
 74
0
 40
0
 40
0
 40
0
 40
0
 40
1
 40
1
 40
1
 40
1
 10
149.855330
 20
209.911841
 30
0.0
 10
149.192289
 20
209.911841
 30
0.0
 10
148.556404
 20
210.175233
 30
0.0
 10
148.087563
 20
210.644074
 30
0.0
  0
SPLINE
  5
201
100
AcDbEntity
  8
Ebene_1
 62
7
100
AcDbSpline
 70
8
 71
3
 72
8
 73
4
 74
0
 40
0
 40
0
 40
0
 40
0
 40
1
 40
1
 40
1
 40
1
 10
148.087563
 20
210.644074
 30
0.0
 10
147.618722
 20
211.112915
 30
0.0
 10
147.355330
 20
211.748800
 30
0.0
 10
147.355330
 20
212.411841
 30
0.0
  0
SPLINE
  5
202
100
AcDbEntity
  8
Ebene_1
 62
7
100
AcDbSpline
 70
8
 71
3
 72
8
 73
4
 74
0
 40
0
 40
0
 40
0
 40
0
 40
1
 40
1
 40
1
 40
1
 10
147.355330
 20
212.411841
 30
0.0
 10
147.355330
 20
213.074882
 30
0.0
 10
147.618722
 20
213.710767
 30
0.0
 10
148.087563
 20
214.179608
 30
0.0
  0
SPLINE
  5
203
100
AcDbEntity
  8
Ebene_1
 62
7
100
AcDbSpline
 70
8
 71
3
 72
8
 73
4
 74
0
 40
0
 40
0
 40
0
 40
0
 40
1
 40
1
 40
1
 40
1
 10
148.087563
 20
214.179608
 30
0.0
 10
148.556404
 20
214.648449
 30
0.0
 10
149.192289
 20
214.911841
 30
0.0
 10
149.855330
 20
214.911841
 30
0.0
  0
SPLINE
  5
204
100
AcDbEntity
  8
Ebene_1
 62
7
100
AcDbSpline
 70
8
 71
3
 72
8
 73
4
 74
0
 40
0
 40
0
 40
0
 40
0
 40
1
 40
1
 40
1
 40
1
 10
149.855330
 20
214.911841
 30
0.0
 10
150.518371
 20
214.911841
 30
0.0
 10
151.154256
 20
214.648449
 30
0.0
 10
151.623097
 20
214.179608
 30
0.0
  0
SPLINE
  5
205
100
AcDbEntity
  8
Ebene_1
 62
7
100
AcDbSpline
 70
8
 71
3
 72
8
 73
4
 74
0
 40
0
 40
0
 40
0
 40
0
 40
1
 40
1
 40
1
 40
1
 10
151.623097
 20
214.179608
 30
0.0
 10
152.091938
 20
213.710767
 30
0.0
 10
152.355330
 20
213.074882
 30
0.0
 10
152.355330
 20
212.411841
 30
0.0
  0
LWPOLYLINE
  5
206
100
AcDbEntity
  8
Ebene_1
 62
7
100
AcDbPolyline
 90
4
 70
1
 10
265.447500
 20
258.422371
 30
0.0
 10
270.022490
 20
258.422371
 30
0.0
 10
270.022490
 20
262.350391
 30
0.0
 10
265.447500
 20
262.350391
 30
0.0
  0
SPLINE
  5
207
100
AcDbEntity
  8
Ebene_1
 62
7
100
AcDbSpline
 70
8
 71
3
 72
8
 73
4
 74
0
 40
0
 40
0
 40
0
 40
0
 40
1
 40
1
 40
1
 40
1
 10
268.999980
 20
185.000010
 30
0.0
 10
280.079980
 20
185.000010
 30
0.0
 10
288.999980
 20
176.080010
 30
0.0
 10
288.999980
 20
165.000010
 30
0.0
  0
LWPOLYLINE
  5
208
100
AcDbEntity
  8
Ebene_1
 62
7
100
AcDbPolyline
 90
2
 70
0
 10
29.999990
 20
185.000010
 30
0.0
 10
268.999980
 20
185.000010
 30
0.0
  0
SPLINE
  5
209
100
AcDbEntity
  8
Ebene_1
 62
7
100
AcDbSpline
 70
8
 71
3
 72
8
 73
4
 74
0
 40
0
 40
0
 40
0
 40
0
 40
1
 40
1
 40
1
 40
1
 10
288.999980
 20
31.000010
 30
0.0
 10
288.999980
 20
19.920010
 30
0.0
 10
280.079980
 20
11.000010
 30
0.0
 10
268.999980
 20
11.000010
 30
0.0
  0
LWPOLYLINE
  5
20a
100
AcDbEntity
  8
Ebene_1
 62
7
100
AcDbPolyline
 90
2
 70
0
 10
288.999980
 20
165.000010
 30
0.0
 10
288.999980
 20
31.000010
 30
0.0
  0
SPLINE
  5
20b
100
AcDbEntity
  8
Ebene_1
 62
7
100
AcDbSpline
 70
8
 71
3
 72
8
 73
4
 74
0
 40
0
 40
0
 40
0
 40
0
 40
1
 40
1
 40
1
 40
1
 10
29.999990
 20
11.000010
 30
0.0
 10
18.919990
 20
11.000010
 30
0.0
 10
9.999990
 20
19.920010
 30
0.0
 10
9.999990
 20
31.000010
 30
0.0
  0
LWPOLYLINE
  5
20c
100
AcDbEntity
  8
Ebene_1
 62
7
100
AcDbPolyline
 90
2
 70
0
 10
268.999980
 20
11.000010
 30
0.0
 10
29.999990
 20
11.000010
 30
0.0
  0
SPLINE
  5
20d
100
AcDbEntity
  8
Ebene_1
 62
7
100
AcDbSpline
 70
8
 71
3
 72
8
 73
4
 74
0
 40
0
 40
0
 40
0
 40
0
 40
1
 40
1
 40
1
 40
1
 10
9.999990
 20
165.000010
 30
0.0
 10
9.999990
 20
176.080010
 30
0.0
 10
18.919990
 20
185.000010
 30
0.0
 10
29.999990
 20
185.000010
 30
0.0
  0
LWPOLYLINE
  5
20e
100
AcDbEntity
  8
Ebene_1
 62
7
100
AcDbPolyline
 90
2
 70
0
 10
9.999990
 20
31.000010
 30
0.0
 10
9.999990
 20
165.000010
 30
0.0
  0
LWPOLYLINE
  5
20f
100
AcDbEntity
  8
Ebene_1
 62
7
100
AcDbPolyline
 90
1
 70
1
 10
29.999990
 20
185.000010
 30
0.0
  0
SPLINE
  5
210
100
AcDbEntity
  8
Ebene_1
 62
7
100
AcDbSpline
 70
8
 71
3
 72
8
 73
4
 74
0
 40
0
 40
0
 40
0
 40
0
 40
1
 40
1
 40
1
 40
1
 10
39.765205
 20
121.701805
 30
0.0
 10
37.683940
 20
118.877566
 30
0.0
 10
36.425687
 20
116.367109
 30
0.0
 10
35.212493
 20
112.618122
 30
0.0
  0
SPLINE
  5
211
100
AcDbEntity
  8
Ebene_1
 62
7
100
AcDbSpline
 70
8
 71
3
 72
8
 73
4
 74
0
 40
0
 40
0
 40
0
 40
0
 40
1
 40
1
 40
1
 40
1
 10
35.212493
 20
112.618122
 30
0.0
 10
33.942493
 20
108.693531
 30
0.0
 10
33.582819
 20
101.251622
 30
0.0
 10
34.458537
 20
97.017019
 30
0.0
  0
SPLINE
  5
212
100
AcDbEntity
  8
Ebene_1
 62
7
100
AcDbSpline
 70
8
 71
3
 72
8
 73
4
 74
0
 40
0
 40
0
 40
0
 40
0
 40
1
 40
1
 40
1
 40
1
 10
34.458537
 20
97.017019
 30
0.0
 10
35.721763
 20
90.908769
 30
0.0
 10
38.221150
 20
86.237021
 30
0.0
 10
42.783096
 20
81.457244
 30
0.0
  0
SPLINE
  5
213
100
AcDbEntity
  8
Ebene_1
 62
7
100
AcDbSpline
 70
8
 71
3
 72
8
 73
4
 74
0
 40
0
 40
0
 40
0
 40
0
 40
1
 40
1
 40
1
 40
1
 10
42.783096
 20
81.457244
 30
0.0
 10
51.781654
 20
73.122843
 30
0.0
 10
62.976043
 20
69.743002
 30
0.0
 10
74.552727
 20
73.273258
 30
0.0
  0
SPLINE
  5
214
100
AcDbEntity
  8
Ebene_1
 62
7
100
AcDbSpline
 70
8
 71
3
 72
8
 73
4
 74
0
 40
0
 40
0
 40
0
 40
0
 40
1
 40
1
 40
1
 40
1
 10
74.552727
 20
73.273258
 30
0.0
 10
79.826693
 20
74.986303
 30
0.0
 10
83.747183
 20
77.349138
 30
0.0
 10
87.435660
 20
81.037641
 30
0.0
  0
SPLINE
  5
215
100
AcDbEntity
  8
Ebene_1
 62
7
100
AcDbSpline
 70
8
 71
3
 72
8
 73
4
 74
0
 40
0
 40
0
 40
0
 40
0
 40
1
 40
1
 40
1
 40
1
 10
87.435660
 20
81.037641
 30
0.0
 10
98.393246
 20
91.995201
 30
0.0
 10
99.761195
 20
109.319483
 30
0.0
 10
90.659238
 20
121.865117
 30
0.0
  0
LWPOLYLINE
  5
216
100
AcDbEntity
  8
Ebene_1
 62
7
100
AcDbPolyline
 90
2
 70
0
 10
41.389906
 20
123.906840
 30
0.0
 10
39.765205
 20
121.701805
 30
0.0
  0
SPLINE
  5
217
100
AcDbEntity
  8
Ebene_1
 62
7
100
AcDbSpline
 70
8
 71
3
 72
8
 73
4
 74
0
 40
0
 40
0
 40
0
 40
0
 40
1
 40
1
 40
1
 40
1
 10
73.454601
 20
119.030651
 30
0.0
 10
74.473008
 20
119.051527
 30
0.0
 10
75.531606
 20
118.706103
 30
0.0
 10
76.479741
 20
117.873615
 30
0.0
  0
SPLINE
  5
218
100
AcDbEntity
  8
Ebene_1
 62
7
100
AcDbSpline
 70
8
 71
3
 72
8
 73
4
 74
0
 40
0
 40
0
 40
0
 40
0
 40
1
 40
1
 40
1
 40
1
 10
76.479741
 20
117.873615
 30
0.0
 10
78.635486
 20
115.980844
 30
0.0
 10
78.739811
 20
113.114454
 30
0.0
 10
76.726253
 20
111.100896
 30
0.0
  0
SPLINE
  5
219
100
AcDbEntity
  8
Ebene_1
 62
7
100
AcDbSpline
 70
8
 71
3
 72
8
 73
4
 74
0
 40
0
 40
0
 40
0
 40
0
 40
1
 40
1
 40
1
 40
1
 10
76.726253
 20
111.100896
 30
0.0
 10
74.635357
 20
109.009999
 30
0.0
 10
70.813027
 20
109.604677
 30
0.0
 10
69.454339
 20
112.232095
 30
0.0
  0
SPLINE
  5
21a
100
AcDbEntity
  8
Ebene_1
 62
7
100
AcDbSpline
 70
8
 71
3
 72
8
 73
4
 74
0
 40
0
 40
0
 40
0
 40
0
 40
1
 40
1
 40
1
 40
1
 10
69.454339
 20
112.232095
 30
0.0
 10
67.707163
 20
115.610745
 30
0.0
 10
70.399536
 20
118.968019
 30
0.0
 10
73.454601
 20
119.030651
 30
0.0
  0
LWPOLYLINE
  5
21b
100
AcDbEntity
  8
Ebene_1
 62
7
100
AcDbPolyline
 90
5
 70
0
 10
90.659238
 20
121.865117
 30
0.0
 10
89.193181
 20
123.886181
 30
0.0
 10
65.291279
 20
123.896527
 30
0.0
 10
54.009287
 20
123.901183
 30
0.0
 10
41.389906
 20
123.906840
 30
0.0
  0
SPLINE
  5
21c
100
AcDbEntity
  8
Ebene_1
 62
7
100
AcDbSpline
 70
8
 71
3
 72
8
 73
4
 74
0
 40
0
 40
0
 40
0
 40
0
 40
1
 40
1
 40
1
 40
1
 10
57.219953
 20
118.962439
 30
0.0
 10
58.542764
 20
118.966910
 30
0.0
 10
58.954535
 20
118.774029
 30
0.0
 10
60.130369
 20
117.598181
 30
0.0
  0
SPLINE
  5
21d
100
AcDbEntity
  8
Ebene_1
 62
7
100
AcDbSpline
 70
8
 71
3
 72
8
 73
4
 74
0
 40
0
 40
0
 40
0
 40
0
 40
1
 40
1
 40
1
 40
1
 10
60.130369
 20
117.598181
 30
0.0
 10
61.306204
 20
116.422328
 30
0.0
 10
61.498609
 20
116.010583
 30
0.0
 10
61.494614
 20
114.687773
 30
0.0
  0
SPLINE
  5
21e
100
AcDbEntity
  8
Ebene_1
 62
7
100
AcDbSpline
 70
8
 71
3
 72
8
 73
4
 74
0
 40
0
 40
0
 40
0
 40
0
 40
1
 40
1
 40
1
 40
1
 10
61.494614
 20
114.687773
 30
0.0
 10
61.487999
 20
112.732105
 30
0.0
 10
60.919066
 20
111.614346
 30
0.0
 10
59.414116
 20
110.600145
 30
0.0
  0
SPLINE
  5
21f
100
AcDbEntity
  8
Ebene_1
 62
7
100
AcDbSpline
 70
8
 71
3
 72
8
 73
4
 74
0
 40
0
 40
0
 40
0
 40
0
 40
1
 40
1
 40
1
 40
1
 10
59.414116
 20
110.600145
 30
0.0
 10
55.333818
 20
107.850437
 30
0.0
 10
50.382114
 20
112.801637
 30
0.0
 10
53.131823
 20
116.881944
 30
0.0
  0
SPLINE
  5
220
100
AcDbEntity
  8
Ebene_1
 62
7
100
AcDbSpline
 70
8
 71
3
 72
8
 73
4
 74
0
 40
0
 40
0
 40
0
 40
0
 40
1
 40
1
 40
1
 40
1
 10
53.131823
 20
116.881944
 30
0.0
 10
54.145997
 20
118.386886
 30
0.0
 10
55.264285
 20
118.955438
 30
0.0
 10
57.219953
 20
118.962439
 30
0.0
  0
LWPOLYLINE
  5
221
100
AcDbEntity
  8
Ebene_1
 62
7
100
AcDbPolyline
 90
1
 70
1
 10
73.454601
 20
119.030651
 30
0.0
  0
SPLINE
  5
222
100
AcDbEntity
  8
Ebene_1
 62
7
100
AcDbSpline
 70
8
 71
3
 72
8
 73
4
 74
0
 40
0
 40
0
 40
0
 40
0
 40
1
 40
1
 40
1
 40
1
 10
48.623561
 20
106.605043
 30
0.0
 10
51.241507
 20
106.605043
 30
0.0
 10
54.086704
 20
104.319678
 30
0.0
 10
54.809228
 20
101.636353
 30
0.0
  0
SPLINE
  5
223
100
AcDbEntity
  8
Ebene_1
 62
7
100
AcDbSpline
 70
8
 71
3
 72
8
 73
4
 74
0
 40
0
 40
0
 40
0
 40
0
 40
1
 40
1
 40
1
 40
1
 10
54.809228
 20
101.636353
 30
0.0
 10
55.527651
 20
98.968401
 30
0.0
 10
54.142902
 20
95.912199
 30
0.0
 10
51.635789
 20
94.633176
 30
0.0
  0
SPLINE
  5
224
100
AcDbEntity
  8
Ebene_1
 62
7
100
AcDbSpline
 70
8
 71
3
 72
8
 73
4
 74
0
 40
0
 40
0
 40
0
 40
0
 40
1
 40
1
 40
1
 40
1
 10
51.635789
 20
94.633176
 30
0.0
 10
47.794886
 20
92.673699
 30
0.0
 10
43.612723
 20
94.633176
 30
0.0
 10
42.432205
 20
98.947631
 30
0.0
  0
SPLINE
  5
225
100
AcDbEntity
  8
Ebene_1
 62
7
100
AcDbSpline
 70
8
 71
3
 72
8
 73
4
 74
0
 40
0
 40
0
 40
0
 40
0
 40
1
 40
1
 40
1
 40
1
 10
42.432205
 20
98.947631
 30
0.0
 10
41.476133
 20
102.441321
 30
0.0
 10
44.842559
 20
106.605043
 30
0.0
 10
48.623561
 20
106.605043
 30
0.0
  0
LWPOLYLINE
  5
226
100
AcDbEntity
  8
Ebene_1
 62
7
100
AcDbPolyline
 90
1
 70
1
 10
57.219953
 20
118.962439
 30
0.0
  0
SPLINE
  5
227
100
AcDbEntity
  8
Ebene_1
 62
7
100
AcDbSpline
 70
8
 71
3
 72
8
 73
4
 74
0
 40
0
 40
0
 40
0
 40
0
 40
1
 40
1
 40
1
 40
1
 10
65.441139
 20
106.589432
 30
0.0
 10
66.221157
 20
106.569060
 30
0.0
 10
66.982469
 20
106.356070
 30
0.0
 10
67.775902
 20
105.949167
 30
0.0
  0
SPLINE
  5
228
100
AcDbEntity
  8
Ebene_1
 62
7
100
AcDbSpline
 70
8
 71
3
 72
8
 73
4
 74
0
 40
0
 40
0
 40
0
 40
0
 40
1
 40
1
 40
1
 40
1
 10
67.775902
 20
105.949167
 30
0.0
 10
70.437583
 20
104.584182
 30
0.0
 10
71.955577
 20
101.943852
 30
0.0
 10
71.567381
 20
99.355248
 30
0.0
  0
SPLINE
  5
229
100
AcDbEntity
  8
Ebene_1
 62
7
100
AcDbSpline
 70
8
 71
3
 72
8
 73
4
 74
0
 40
0
 40
0
 40
0
 40
0
 40
1
 40
1
 40
1
 40
1
 10
71.567381
 20
99.355248
 30
0.0
 10
71.284568
 20
97.469139
 30
0.0
 10
69.715297
 20
95.275135
 30
0.0
 10
68.101974
 20
94.509563
 30
0.0
  0
SPLINE
  5
22a
100
AcDbEntity
  8
Ebene_1
 62
7
100
AcDbSpline
 70
8
 71
3
 72
8
 73
4
 74
0
 40
0
 40
0
 40
0
 40
0
 40
1
 40
1
 40
1
 40
1
 10
68.101974
 20
94.509563
 30
0.0
 10
63.844299
 20
92.489178
 30
0.0
 10
58.949031
 20
95.551492
 30
0.0
 10
58.949031
 20
100.235305
 30
0.0
  0
SPLINE
  5
22b
100
AcDbEntity
  8
Ebene_1
 62
7
100
AcDbSpline
 70
8
 71
3
 72
8
 73
4
 74
0
 40
0
 40
0
 40
0
 40
0
 40
1
 40
1
 40
1
 40
1
 10
58.949031
 20
100.235305
 30
0.0
 10
58.949031
 20
102.931753
 30
0.0
 10
60.365240
 20
104.976929
 30
0.0
 10
62.992711
 20
106.074738
 30
0.0
  0
SPLINE
  5
22c
100
AcDbEntity
  8
Ebene_1
 62
7
100
AcDbSpline
 70
8
 71
3
 72
8
 73
4
 74
0
 40
0
 40
0
 40
0
 40
0
 40
1
 40
1
 40
1
 40
1
 10
62.992711
 20
106.074738
 30
0.0
 10
63.862344
 20
106.438091
 30
0.0
 10
64.661147
 20
106.609858
 30
0.0
 10
65.441139
 20
106.589432
 30
0.0
  0
LWPOLYLINE
  5
22d
100
AcDbEntity
  8
Ebene_1
 62
7
100
AcDbPolyline
 90
1
 70
1
 10
48.623561
 20
106.605043
 30
0.0
  0
SPLINE
  5
22e
100
AcDbEntity
  8
Ebene_1
 62
7
100
AcDbSpline
 70
8
 71
3
 72
8
 73
4
 74
0
 40
0
 40
0
 40
0
 40
0
 40
1
 40
1
 40
1
 40
1
 10
82.000351
 20
106.524318
 30
0.0
 10
83.175207
 20
106.516116
 30
0.0
 10
84.331198
 20
106.181101
 30
0.0
 10
85.312300
 20
105.508371
 30
0.0
  0
SPLINE
  5
22f
100
AcDbEntity
  8
Ebene_1
 62
7
100
AcDbSpline
 70
8
 71
3
 72
8
 73
4
 74
0
 40
0
 40
0
 40
0
 40
0
 40
1
 40
1
 40
1
 40
1
 10
85.312300
 20
105.508371
 30
0.0
 10
89.435646
 20
102.681034
 30
0.0
 10
89.067054
 20
96.590061
 30
0.0
 10
84.645655
 20
94.491995
 30
0.0
  0
SPLINE
  5
230
100
AcDbEntity
  8
Ebene_1
 62
7
100
AcDbSpline
 70
8
 71
3
 72
8
 73
4
 74
0
 40
0
 40
0
 40
0
 40
0
 40
1
 40
1
 40
1
 40
1
 10
84.645655
 20
94.491995
 30
0.0
 10
80.431240
 20
92.492115
 30
0.0
 10
75.617622
 20
95.533818
 30
0.0
 10
75.612622
 20
100.199666
 30
0.0
  0
SPLINE
  5
231
100
AcDbEntity
  8
Ebene_1
 62
7
100
AcDbSpline
 70
8
 71
3
 72
8
 73
4
 74
0
 40
0
 40
0
 40
0
 40
0
 40
1
 40
1
 40
1
 40
1
 10
75.612622
 20
100.199666
 30
0.0
 10
75.609976
 20
102.352104
 30
0.0
 10
76.200632
 20
103.693885
 30
0.0
 10
77.706031
 20
104.960605
 30
0.0
  0
SPLINE
  5
232
100
AcDbEntity
  8
Ebene_1
 62
7
100
AcDbSpline
 70
8
 71
3
 72
8
 73
4
 74
0
 40
0
 40
0
 40
0
 40
0
 40
1
 40
1
 40
1
 40
1
 10
77.706031
 20
104.960605
 30
0.0
 10
78.948144
 20
106.005762
 30
0.0
 10
80.489819
 20
106.535061
 30
0.0
 10
82.000351
 20
106.524318
 30
0.0
  0
LWPOLYLINE
  5
233
100
AcDbEntity
  8
Ebene_1
 62
7
100
AcDbPolyline
 90
1
 70
1
 10
65.441139
 20
106.589432
 30
0.0
  0
SPLINE
  5
234
100
AcDbEntity
  8
Ebene_1
 62
7
100
AcDbSpline
 70
8
 71
3
 72
8
 73
4
 74
0
 40
0
 40
0
 40
0
 40
0
 40
1
 40
1
 40
1
 40
1
 10
73.670633
 20
92.141225
 30
0.0
 10
75.191140
 20
92.141225
 30
0.0
 10
77.428748
 20
91.026535
 30
0.0
 10
78.526663
 20
89.721742
 30
0.0
  0
SPLINE
  5
235
100
AcDbEntity
  8
Ebene_1
 62
7
100
AcDbSpline
 70
8
 71
3
 72
8
 73
4
 74
0
 40
0
 40
0
 40
0
 40
0
 40
1
 40
1
 40
1
 40
1
 10
78.526663
 20
89.721742
 30
0.0
 10
81.128046
 20
86.630139
 30
0.0
 10
80.216398
 20
81.971806
 30
0.0
 10
76.653889
 20
80.154356
 30
0.0
  0
SPLINE
  5
236
100
AcDbEntity
  8
Ebene_1
 62
7
100
AcDbSpline
 70
8
 71
3
 72
8
 73
4
 74
0
 40
0
 40
0
 40
0
 40
0
 40
1
 40
1
 40
1
 40
1
 10
76.653889
 20
80.154356
 30
0.0
 10
73.885607
 20
78.742090
 30
0.0
 10
70.006445
 20
79.638789
 30
0.0
 10
68.536050
 20
82.030728
 30
0.0
  0
SPLINE
  5
237
100
AcDbEntity
  8
Ebene_1
 62
7
100
AcDbSpline
 70
8
 71
3
 72
8
 73
4
 74
0
 40
0
 40
0
 40
0
 40
0
 40
1
 40
1
 40
1
 40
1
 10
68.536050
 20
82.030728
 30
0.0
 10
66.844013
 20
84.783268
 30
0.0
 10
66.942252
 20
87.496570
 30
0.0
 10
68.814576
 20
89.721742
 30
0.0
  0
SPLINE
  5
238
100
AcDbEntity
  8
Ebene_1
 62
7
100
AcDbSpline
 70
8
 71
3
 72
8
 73
4
 74
0
 40
0
 40
0
 40
0
 40
0
 40
1
 40
1
 40
1
 40
1
 10
68.814576
 20
89.721742
 30
0.0
 10
69.912518
 20
91.026535
 30
0.0
 10
72.150073
 20
92.141225
 30
0.0
 10
73.670633
 20
92.141225
 30
0.0
  0
LWPOLYLINE
  5
239
100
AcDbEntity
  8
Ebene_1
 62
7
100
AcDbPolyline
 90
1
 70
1
 10
82.000351
 20
106.524318
 30
0.0
  0
SPLINE
  5
23a
100
AcDbEntity
  8
Ebene_1
 62
7
100
AcDbSpline
 70
8
 71
3
 72
8
 73
4
 74
0
 40
0
 40
0
 40
0
 40
0
 40
1
 40
1
 40
1
 40
1
 10
56.940368
 20
92.114766
 30
0.0
 10
57.814207
 20
92.103389
 30
0.0
 10
58.689740
 20
91.872249
 30
0.0
 10
59.622396
 20
91.420764
 30
0.0
  0
SPLINE
  5
23b
100
AcDbEntity
  8
Ebene_1
 62
7
100
AcDbSpline
 70
8
 71
3
 72
8
 73
4
 74
0
 40
0
 40
0
 40
0
 40
0
 40
1
 40
1
 40
1
 40
1
 10
59.622396
 20
91.420764
 30
0.0
 10
64.307294
 20
89.152809
 30
0.0
 10
64.362988
 20
82.522430
 30
0.0
 10
59.716958
 20
80.152187
 30
0.0
  0
SPLINE
  5
23c
100
AcDbEntity
  8
Ebene_1
 62
7
100
AcDbSpline
 70
8
 71
3
 72
8
 73
4
 74
0
 40
0
 40
0
 40
0
 40
0
 40
1
 40
1
 40
1
 40
1
 10
59.716958
 20
80.152187
 30
0.0
 10
55.567048
 20
78.035070
 30
0.0
 10
50.570577
 20
80.965516
 30
0.0
 10
50.565576
 20
85.519312
 30
0.0
  0
SPLINE
  5
23d
100
AcDbEntity
  8
Ebene_1
 62
7
100
AcDbSpline
 70
8
 71
3
 72
8
 73
4
 74
0
 40
0
 40
0
 40
0
 40
0
 40
1
 40
1
 40
1
 40
1
 10
50.565576
 20
85.519312
 30
0.0
 10
50.562401
 20
88.466771
 30
0.0
 10
51.703258
 20
90.306207
 30
0.0
 10
54.268182
 20
91.490006
 30
0.0
  0
SPLINE
  5
23e
100
AcDbEntity
  8
Ebene_1
 62
7
100
AcDbSpline
 70
8
 71
3
 72
8
 73
4
 74
0
 40
0
 40
0
 40
0
 40
0
 40
1
 40
1
 40
1
 40
1
 10
54.268182
 20
91.490006
 30
0.0
 10
55.194462
 20
91.917493
 30
0.0
 10
56.066555
 20
92.126038
 30
0.0
 10
56.940368
 20
92.114766
 30
0.0
  0
LWPOLYLINE
  5
23f
100
AcDbEntity
  8
Ebene_1
 62
7
100
AcDbPolyline
 90
1
 70
1
 10
73.670633
 20
92.141225
 30
0.0
  0
LWPOLYLINE
  5
240
100
AcDbEntity
  8
Ebene_1
 62
7
100
AcDbPolyline
 90
1
 70
1
 10
56.940368
 20
92.114766
 30
0.0
  0
LWPOLYLINE
  5
241
100
AcDbEntity
  8
Ebene_1
 62
7
100
AcDbPolyline
 90
12
 70
1
 10
139.152640
 20
116.748230
 30
0.0
 10
151.835630
 20
116.748230
 30
0.0
 10
151.835630
 20
120.432540
 30
0.0
 10
143.439850
 20
120.432540
 30
0.0
 10
143.439850
 20
122.911080
 30
0.0
 10
150.942460
 20
122.911080
 30
0.0
 10
150.942460
 20
126.327450
 30
0.0
 10
143.439850
 20
126.327450
 30
0.0
 10
143.439850
 20
128.694350
 30
0.0
 10
151.723980
 20
128.694350
 30
0.0
 10
151.723980
 20
132.378670
 30
0.0
 10
139.152640
 20
132.378670
 30
0.0
  0
LWPOLYLINE
  5
242
100
AcDbEntity
  8
Ebene_1
 62
7
100
AcDbPolyline
 90
6
 70
1
 10
154.067850
 20
116.748230
 30
0.0
 10
165.969310
 20
116.748230
 30
0.0
 10
165.969310
 20
120.544190
 30
0.0
 10
158.399710
 20
120.544190
 30
0.0
 10
158.399710
 20
132.378670
 30
0.0
 10
154.067850
 20
132.378670
 30
0.0
  0
SPLINE
  5
243
100
AcDbEntity
  8
Ebene_1
 62
7
100
AcDbSpline
 70
8
 71
3
 72
8
 73
4
 74
0
 40
0
 40
0
 40
0
 40
0
 40
1
 40
1
 40
1
 40
1
 10
190.114850
 20
116.435620
 30
0.0
 10
193.575880
 20
116.435620
 30
0.0
 10
195.563180
 20
117.931670
 30
0.0
 10
197.036910
 20
119.963630
 30
0.0
  0
LWPOLYLINE
  5
244
100
AcDbEntity
  8
Ebene_1
 62
7
100
AcDbPolyline
 90
12
 70
1
 10
167.805540
 20
116.748230
 30
0.0
 10
180.488530
 20
116.748230
 30
0.0
 10
180.488530
 20
120.432540
 30
0.0
 10
172.092750
 20
120.432540
 30
0.0
 10
172.092750
 20
122.911080
 30
0.0
 10
179.595360
 20
122.911080
 30
0.0
 10
179.595360
 20
126.327450
 30
0.0
 10
172.092750
 20
126.327450
 30
0.0
 10
172.092750
 20
128.694350
 30
0.0
 10
180.376880
 20
128.694350
 30
0.0
 10
180.376880
 20
132.378670
 30
0.0
 10
167.805540
 20
132.378670
 30
0.0
  0
SPLINE
  5
245
100
AcDbEntity
  8
Ebene_1
 62
7
100
AcDbSpline
 70
8
 71
3
 72
8
 73
4
 74
0
 40
0
 40
0
 40
0
 40
0
 40
1
 40
1
 40
1
 40
1
 10
193.776840
 20
122.285870
 30
0.0
 10
192.839020
 20
121.147080
 30
0.0
 10
191.878860
 20
120.387890
 30
0.0
 10
190.248830
 20
120.387890
 30
0.0
  0
SPLINE
  5
246
100
AcDbEntity
  8
Ebene_1
 62
7
100
AcDbSpline
 70
8
 71
3
 72
8
 73
4
 74
0
 40
0
 40
0
 40
0
 40
0
 40
1
 40
1
 40
1
 40
1
 10
190.248830
 20
120.387890
 30
0.0
 10
188.060570
 20
120.387890
 30
0.0
 10
186.519850
 20
122.218880
 30
0.0
 10
186.519850
 20
124.563450
 30
0.0
  0
LWPOLYLINE
  5
247
100
AcDbEntity
  8
Ebene_1
 62
7
100
AcDbPolyline
 90
2
 70
0
 10
197.036910
 20
119.963630
 30
0.0
 10
193.776840
 20
122.285870
 30
0.0
  0
SPLINE
  5
248
100
AcDbEntity
  8
Ebene_1
 62
7
100
AcDbSpline
 70
8
 71
3
 72
8
 73
4
 74
0
 40
0
 40
0
 40
0
 40
0
 40
1
 40
1
 40
1
 40
1
 10
186.519850
 20
124.608050
 30
0.0
 10
186.519850
 20
126.885630
 30
0.0
 10
188.060570
 20
128.738960
 30
0.0
 10
190.248830
 20
128.738960
 30
0.0
  0
SPLINE
  5
249
100
AcDbEntity
  8
Ebene_1
 62
7
100
AcDbSpline
 70
8
 71
3
 72
8
 73
4
 74
0
 40
0
 40
0
 40
0
 40
0
 40
1
 40
1
 40
1
 40
1
 10
190.248830
 20
128.738960
 30
0.0
 10
191.744890
 20
128.738960
 30
0.0
 10
192.772030
 20
128.024420
 30
0.0
 10
193.665200
 20
126.907960
 30
0.0
  0
LWPOLYLINE
  5
24a
100
AcDbEntity
  8
Ebene_1
 62
7
100
AcDbPolyline
 90
2
 70
0
 10
186.519850
 20
124.563450
 30
0.0
 10
186.519850
 20
124.608050
 30
0.0
  0
SPLINE
  5
24b
100
AcDbEntity
  8
Ebene_1
 62
7
100
AcDbSpline
 70
8
 71
3
 72
8
 73
4
 74
0
 40
0
 40
0
 40
0
 40
0
 40
1
 40
1
 40
1
 40
1
 10
196.925260
 20
129.431160
 30
0.0
 10
195.540850
 20
131.351470
 30
0.0
 10
193.486560
 20
132.691220
 30
0.0
 10
190.293490
 20
132.691220
 30
0.0
  0
SPLINE
  5
24c
100
AcDbEntity
  8
Ebene_1
 62
7
100
AcDbSpline
 70
8
 71
3
 72
8
 73
4
 74
0
 40
0
 40
0
 40
0
 40
0
 40
1
 40
1
 40
1
 40
1
 10
190.293490
 20
132.691220
 30
0.0
 10
185.559700
 20
132.691220
 30
0.0
 10
182.054010
 20
129.118550
 30
0.0
 10
182.054010
 20
124.563400
 30
0.0
  0
LWPOLYLINE
  5
24d
100
AcDbEntity
  8
Ebene_1
 62
7
100
AcDbPolyline
 90
2
 70
0
 10
193.665200
 20
126.907960
 30
0.0
 10
196.925260
 20
129.431160
 30
0.0
  0
SPLINE
  5
24e
100
AcDbEntity
  8
Ebene_1
 62
7
100
AcDbSpline
 70
8
 71
3
 72
8
 73
4
 74
0
 40
0
 40
0
 40
0
 40
0
 40
1
 40
1
 40
1
 40
1
 10
182.054010
 20
124.518700
 30
0.0
 10
182.054010
 20
119.851890
 30
0.0
 10
185.649010
 20
116.435530
 30
0.0
 10
190.114850
 20
116.435530
 30
0.0
  0
LWPOLYLINE
  5
24f
100
AcDbEntity
  8
Ebene_1
 62
7
100
AcDbPolyline
 90
2
 70
0
 10
182.054010
 20
124.563400
 30
0.0
 10
182.054010
 20
124.518700
 30
0.0
  0
LWPOLYLINE
  5
250
100
AcDbEntity
  8
Ebene_1
 62
7
100
AcDbPolyline
 90
1
 70
1
 10
190.114850
 20
116.435530
 30
0.0
  0
LWPOLYLINE
  5
251
100
AcDbEntity
  8
Ebene_1
 62
7
100
AcDbPolyline
 90
8
 70
1
 10
202.718990
 20
116.748230
 30
0.0
 10
207.050850
 20
116.748230
 30
0.0
 10
207.050850
 20
128.582700
 30
0.0
 10
211.739990
 20
128.582700
 30
0.0
 10
211.739990
 20
132.378670
 30
0.0
 10
198.029860
 20
132.378670
 30
0.0
 10
198.029860
 20
128.582700
 30
0.0
 10
202.718990
 20
128.582700
 30
0.0
  0
SPLINE
  5
252
100
AcDbEntity
  8
Ebene_1
 62
7
100
AcDbSpline
 70
8
 71
3
 72
8
 73
4
 74
0
 40
0
 40
0
 40
0
 40
0
 40
1
 40
1
 40
1
 40
1
 10
224.292540
 20
122.196550
 30
0.0
 10
226.235180
 20
123.022730
 30
0.0
 10
227.507940
 20
124.608100
 30
0.0
 10
227.507940
 20
126.997330
 30
0.0
  0
LWPOLYLINE
  5
253
100
AcDbEntity
  8
Ebene_1
 62
7
100
AcDbPolyline
 90
8
 70
0
 10
213.641460
 20
116.748230
 30
0.0
 10
217.973320
 20
116.748230
 30
0.0
 10
217.973320
 20
121.482020
 30
0.0
 10
219.826650
 20
121.482020
 30
0.0
 10
219.871350
 20
121.482020
 30
0.0
 10
223.019770
 20
116.748230
 30
0.0
 10
228.021510
 20
116.748230
 30
0.0
 10
224.292540
 20
122.196550
 30
0.0
  0
SPLINE
  5
254
100
AcDbEntity
  8
Ebene_1
 62
7
100
AcDbSpline
 70
8
 71
3
 72
8
 73
4
 74
0
 40
0
 40
0
 40
0
 40
0
 40
1
 40
1
 40
1
 40
1
 10
227.507940
 20
127.042030
 30
0.0
 10
227.507940
 20
128.582740
 30
0.0
 10
227.039030
 20
129.788520
 30
0.0
 10
226.123530
 20
130.681690
 30
0.0
  0
SPLINE
  5
255
100
AcDbEntity
  8
Ebene_1
 62
7
100
AcDbSpline
 70
8
 71
3
 72
8
 73
4
 74
0
 40
0
 40
0
 40
0
 40
0
 40
1
 40
1
 40
1
 40
1
 10
226.123530
 20
130.681690
 30
0.0
 10
225.074060
 20
131.753490
 30
0.0
 10
223.421700
 20
132.378710
 30
0.0
 10
221.032470
 20
132.378710
 30
0.0
  0
LWPOLYLINE
  5
256
100
AcDbEntity
  8
Ebene_1
 62
7
100
AcDbPolyline
 90
2
 70
0
 10
227.507940
 20
126.997330
 30
0.0
 10
227.507940
 20
127.042030
 30
0.0
  0
LWPOLYLINE
  5
257
100
AcDbEntity
  8
Ebene_1
 62
7
100
AcDbPolyline
 90
3
 70
0
 10
221.032470
 20
132.378710
 30
0.0
 10
213.641510
 20
132.378710
 30
0.0
 10
213.641460
 20
116.748230
 30
0.0
  0
SPLINE
  5
258
100
AcDbEntity
  8
Ebene_1
 62
7
100
AcDbSpline
 70
8
 71
3
 72
8
 73
4
 74
0
 40
0
 40
0
 40
0
 40
0
 40
1
 40
1
 40
1
 40
1
 10
220.809130
 20
128.627360
 30
0.0
 10
222.260530
 20
128.627360
 30
0.0
 10
223.153700
 20
128.002140
 30
0.0
 10
223.153700
 20
126.774040
 30
0.0
  0
LWPOLYLINE
  5
259
100
AcDbEntity
  8
Ebene_1
 62
7
100
AcDbPolyline
 90
3
 70
0
 10
217.973320
 20
124.876050
 30
0.0
 10
217.973320
 20
128.627360
 30
0.0
 10
220.809130
 20
128.627360
 30
0.0
  0
SPLINE
  5
25a
100
AcDbEntity
  8
Ebene_1
 62
7
100
AcDbSpline
 70
8
 71
3
 72
8
 73
4
 74
0
 40
0
 40
0
 40
0
 40
0
 40
1
 40
1
 40
1
 40
1
 10
223.153700
 20
126.729340
 30
0.0
 10
223.153700
 20
125.590550
 30
0.0
 10
222.305190
 20
124.876010
 30
0.0
 10
220.831460
 20
124.876010
 30
0.0
  0
LWPOLYLINE
  5
25b
100
AcDbEntity
  8
Ebene_1
 62
7
100
AcDbPolyline
 90
2
 70
0
 10
223.153700
 20
126.774040
 30
0.0
 10
223.153700
 20
126.729340
 30
0.0
  0
LWPOLYLINE
  5
25c
100
AcDbEntity
  8
Ebene_1
 62
7
100
AcDbPolyline
 90
2
 70
0
 10
220.831460
 20
124.876010
 30
0.0
 10
217.973320
 20
124.876050
 30
0.0
  0
SPLINE
  5
25d
100
AcDbEntity
  8
Ebene_1
 62
7
100
AcDbSpline
 70
8
 71
3
 72
8
 73
4
 74
0
 40
0
 40
0
 40
0
 40
0
 40
1
 40
1
 40
1
 40
1
 10
244.498670
 20
116.435620
 30
0.0
 10
247.959700
 20
116.435620
 30
0.0
 10
249.947000
 20
117.931670
 30
0.0
 10
251.420730
 20
119.963630
 30
0.0
  0
LWPOLYLINE
  5
25e
100
AcDbEntity
  8
Ebene_1
 62
7
100
AcDbPolyline
 90
4
 70
1
 10
229.779890
 20
116.748230
 30
0.0
 10
234.134090
 20
116.748230
 30
0.0
 10
234.134090
 20
132.378670
 30
0.0
 10
229.779890
 20
132.378670
 30
0.0
  0
SPLINE
  5
25f
100
AcDbEntity
  8
Ebene_1
 62
7
100
AcDbSpline
 70
8
 71
3
 72
8
 73
4
 74
0
 40
0
 40
0
 40
0
 40
0
 40
1
 40
1
 40
1
 40
1
 10
248.160660
 20
122.285870
 30
0.0
 10
247.222840
 20
121.147080
 30
0.0
 10
246.262680
 20
120.387890
 30
0.0
 10
244.632650
 20
120.387890
 30
0.0
  0
SPLINE
  5
260
100
AcDbEntity
  8
Ebene_1
 62
7
100
AcDbSpline
 70
8
 71
3
 72
8
 73
4
 74
0
 40
0
 40
0
 40
0
 40
0
 40
1
 40
1
 40
1
 40
1
 10
244.632650
 20
120.387890
 30
0.0
 10
242.444390
 20
120.387890
 30
0.0
 10
240.903670
 20
122.218880
 30
0.0
 10
240.903670
 20
124.563450
 30
0.0
  0
LWPOLYLINE
  5
261
100
AcDbEntity
  8
Ebene_1
 62
7
100
AcDbPolyline
 90
2
 70
0
 10
251.420730
 20
119.963630
 30
0.0
 10
248.160660
 20
122.285870
 30
0.0
  0
SPLINE
  5
262
100
AcDbEntity
  8
Ebene_1
 62
7
100
AcDbSpline
 70
8
 71
3
 72
8
 73
4
 74
0
 40
0
 40
0
 40
0
 40
0
 40
1
 40
1
 40
1
 40
1
 10
240.903670
 20
124.608050
 30
0.0
 10
240.903670
 20
126.885630
 30
0.0
 10
242.444390
 20
128.738960
 30
0.0
 10
244.632650
 20
128.738960
 30
0.0
  0
SPLINE
  5
263
100
AcDbEntity
  8
Ebene_1
 62
7
100
AcDbSpline
 70
8
 71
3
 72
8
 73
4
 74
0
 40
0
 40
0
 40
0
 40
0
 40
1
 40
1
 40
1
 40
1
 10
244.632650
 20
128.738960
 30
0.0
 10
246.128710
 20
128.738960
 30
0.0
 10
247.155850
 20
128.024420
 30
0.0
 10
248.049020
 20
126.907960
 30
0.0
  0
LWPOLYLINE
  5
264
100
AcDbEntity
  8
Ebene_1
 62
7
100
AcDbPolyline
 90
2
 70
0
 10
240.903670
 20
124.563450
 30
0.0
 10
240.903670
 20
124.608050
 30
0.0
  0
SPLINE
  5
265
100
AcDbEntity
  8
Ebene_1
 62
7
100
AcDbSpline
 70
8
 71
3
 72
8
 73
4
 74
0
 40
0
 40
0
 40
0
 40
0
 40
1
 40
1
 40
1
 40
1
 10
251.309080
 20
129.431160
 30
0.0
 10
249.924670
 20
131.351470
 30
0.0
 10
247.870380
 20
132.691220
 30
0.0
 10
244.677310
 20
132.691220
 30
0.0
  0
SPLINE
  5
266
100
AcDbEntity
  8
Ebene_1
 62
7
100
AcDbSpline
 70
8
 71
3
 72
8
 73
4
 74
0
 40
0
 40
0
 40
0
 40
0
 40
1
 40
1
 40
1
 40
1
 10
244.677310
 20
132.691220
 30
0.0
 10
239.943520
 20
132.691220
 30
0.0
 10
236.437830
 20
129.118550
 30
0.0
 10
236.437830
 20
124.563400
 30
0.0
  0
LWPOLYLINE
  5
267
100
AcDbEntity
  8
Ebene_1
 62
7
100
AcDbPolyline
 90
2
 70
0
 10
248.049020
 20
126.907960
 30
0.0
 10
251.309080
 20
129.431160
 30
0.0
  0
SPLINE
  5
268
100
AcDbEntity
  8
Ebene_1
 62
7
100
AcDbSpline
 70
8
 71
3
 72
8
 73
4
 74
0
 40
0
 40
0
 40
0
 40
0
 40
1
 40
1
 40
1
 40
1
 10
236.437830
 20
124.518700
 30
0.0
 10
236.437830
 20
119.851890
 30
0.0
 10
240.032830
 20
116.435530
 30
0.0
 10
244.498670
 20
116.435530
 30
0.0
  0
LWPOLYLINE
  5
269
100
AcDbEntity
  8
Ebene_1
 62
7
100
AcDbPolyline
 90
2
 70
0
 10
236.437830
 20
124.563400
 30
0.0
 10
236.437830
 20
124.518700
 30
0.0
  0
SPLINE
  5
26a
100
AcDbEntity
  8
Ebene_1
 62
7
100
AcDbSpline
 70
8
 71
3
 72
8
 73
4
 74
0
 40
0
 40
0
 40
0
 40
0
 40
1
 40
1
 40
1
 40
1
 10
141.141540
 20
63.308760
 30
0.0
 10
144.602560
 20
63.308760
 30
0.0
 10
146.589860
 20
64.804810
 30
0.0
 10
148.063590
 20
66.836770
 30
0.0
  0
LWPOLYLINE
  5
26b
100
AcDbEntity
  8
Ebene_1
 62
7
100
AcDbPolyline
 90
1
 70
1
 10
244.498670
 20
116.435530
 30
0.0
  0
SPLINE
  5
26c
100
AcDbEntity
  8
Ebene_1
 62
7
100
AcDbSpline
 70
8
 71
3
 72
8
 73
4
 74
0
 40
0
 40
0
 40
0
 40
0
 40
1
 40
1
 40
1
 40
1
 10
144.803530
 20
69.159010
 30
0.0
 10
143.865700
 20
68.020220
 30
0.0
 10
142.905550
 20
67.261020
 30
0.0
 10
141.275510
 20
67.261020
 30
0.0
  0
SPLINE
  5
26d
100
AcDbEntity
  8
Ebene_1
 62
7
100
AcDbSpline
 70
8
 71
3
 72
8
 73
4
 74
0
 40
0
 40
0
 40
0
 40
0
 40
1
 40
1
 40
1
 40
1
 10
141.275510
 20
67.261020
 30
0.0
 10
139.087250
 20
67.261020
 30
0.0
 10
137.546540
 20
69.092020
 30
0.0
 10
137.546540
 20
71.436580
 30
0.0
  0
LWPOLYLINE
  5
26e
100
AcDbEntity
  8
Ebene_1
 62
7
100
AcDbPolyline
 90
2
 70
0
 10
148.063590
 20
66.836770
 30
0.0
 10
144.803530
 20
69.159010
 30
0.0
  0
SPLINE
  5
26f
100
AcDbEntity
  8
Ebene_1
 62
7
100
AcDbSpline
 70
8
 71
3
 72
8
 73
4
 74
0
 40
0
 40
0
 40
0
 40
0
 40
1
 40
1
 40
1
 40
1
 10
137.546540
 20
71.481280
 30
0.0
 10
137.546540
 20
73.758860
 30
0.0
 10
139.087250
 20
75.612180
 30
0.0
 10
141.275510
 20
75.612180
 30
0.0
  0
SPLINE
  5
270
100
AcDbEntity
  8
Ebene_1
 62
7
100
AcDbSpline
 70
8
 71
3
 72
8
 73
4
 74
0
 40
0
 40
0
 40
0
 40
0
 40
1
 40
1
 40
1
 40
1
 10
141.275510
 20
75.612180
 30
0.0
 10
142.771570
 20
75.612180
 30
0.0
 10
143.798710
 20
74.897650
 30
0.0
 10
144.691880
 20
73.781190
 30
0.0
  0
LWPOLYLINE
  5
271
100
AcDbEntity
  8
Ebene_1
 62
7
100
AcDbPolyline
 90
2
 70
0
 10
137.546540
 20
71.436580
 30
0.0
 10
137.546540
 20
71.481280
 30
0.0
  0
SPLINE
  5
272
100
AcDbEntity
  8
Ebene_1
 62
7
100
AcDbSpline
 70
8
 71
3
 72
8
 73
4
 74
0
 40
0
 40
0
 40
0
 40
0
 40
1
 40
1
 40
1
 40
1
 10
147.951940
 20
76.304390
 30
0.0
 10
146.567530
 20
78.224700
 30
0.0
 10
144.513250
 20
79.564450
 30
0.0
 10
141.320170
 20
79.564450
 30
0.0
  0
SPLINE
  5
273
100
AcDbEntity
  8
Ebene_1
 62
7
100
AcDbSpline
 70
8
 71
3
 72
8
 73
4
 74
0
 40
0
 40
0
 40
0
 40
0
 40
1
 40
1
 40
1
 40
1
 10
141.320170
 20
79.564450
 30
0.0
 10
136.586380
 20
79.564450
 30
0.0
 10
133.080700
 20
75.991780
 30
0.0
 10
133.080700
 20
71.436620
 30
0.0
  0
LWPOLYLINE
  5
274
100
AcDbEntity
  8
Ebene_1
 62
7
100
AcDbPolyline
 90
2
 70
0
 10
144.691880
 20
73.781190
 30
0.0
 10
147.951940
 20
76.304390
 30
0.0
  0
SPLINE
  5
275
100
AcDbEntity
  8
Ebene_1
 62
7
100
AcDbSpline
 70
8
 71
3
 72
8
 73
4
 74
0
 40
0
 40
0
 40
0
 40
0
 40
1
 40
1
 40
1
 40
1
 10
133.080700
 20
71.392020
 30
0.0
 10
133.080700
 20
66.725210
 30
0.0
 10
136.675700
 20
63.308850
 30
0.0
 10
141.141540
 20
63.308850
 30
0.0
  0
LWPOLYLINE
  5
276
100
AcDbEntity
  8
Ebene_1
 62
7
100
AcDbPolyline
 90
2
 70
0
 10
133.080700
 20
71.436620
 30
0.0
 10
133.080700
 20
71.392020
 30
0.0
  0
LWPOLYLINE
  5
277
100
AcDbEntity
  8
Ebene_1
 62
7
100
AcDbPolyline
 90
1
 70
1
 10
141.141540
 20
63.308850
 30
0.0
  0
LWPOLYLINE
  5
278
100
AcDbEntity
  8
Ebene_1
 62
7
100
AcDbPolyline
 90
12
 70
1
 10
149.927380
 20
63.621360
 30
0.0
 10
154.259250
 20
63.621360
 30
0.0
 10
154.259250
 20
69.560930
 30
0.0
 10
159.819220
 20
69.560930
 30
0.0
 10
159.819220
 20
63.621360
 30
0.0
 10
164.151080
 20
63.621360
 30
0.0
 10
164.151080
 20
79.251800
 30
0.0
 10
159.819220
 20
79.251800
 30
0.0
 10
159.819220
 20
73.401550
 30
0.0
 10
154.259250
 20
73.401550
 30
0.0
 10
154.259250
 20
79.251800
 30
0.0
 10
149.927380
 20
79.251800
 30
0.0
  0
LWPOLYLINE
  5
279
100
AcDbEntity
  8
Ebene_1
 62
7
100
AcDbPolyline
 90
8
 70
1
 10
165.685520
 20
63.621360
 30
0.0
 10
170.240670
 20
63.621360
 30
0.0
 10
171.357130
 20
66.412510
 30
0.0
 10
177.386020
 20
66.412510
 30
0.0
 10
178.524810
 20
63.621360
 30
0.0
 10
183.169280
 20
63.621360
 30
0.0
 10
176.515180
 20
79.363450
 30
0.0
 10
172.339620
 20
79.363450
 30
0.0
  0
LWPOLYLINE
  5
27a
100
AcDbEntity
  8
Ebene_1
 62
7
100
AcDbPolyline
 90
3
 70
1
 10
172.629900
 20
69.784220
 30
0.0
 10
174.393910
 20
74.227730
 30
0.0
 10
176.135580
 20
69.784220
 30
0.0
  0
SPLINE
  5
27b
100
AcDbEntity
  8
Ebene_1
 62
7
100
AcDbSpline
 70
8
 71
3
 72
8
 73
4
 74
0
 40
0
 40
0
 40
0
 40
0
 40
1
 40
1
 40
1
 40
1
 10
195.336990
 20
69.069690
 30
0.0
 10
197.279630
 20
69.895870
 30
0.0
 10
198.552400
 20
71.481240
 30
0.0
 10
198.552400
 20
73.870470
 30
0.0
  0
LWPOLYLINE
  5
27c
100
AcDbEntity
  8
Ebene_1
 62
7
100
AcDbPolyline
 90
8
 70
0
 10
184.685920
 20
63.621360
 30
0.0
 10
189.017790
 20
63.621360
 30
0.0
 10
189.017790
 20
68.355150
 30
0.0
 10
190.871110
 20
68.355150
 30
0.0
 10
190.915810
 20
68.355150
 30
0.0
 10
194.064230
 20
63.621360
 30
0.0
 10
199.065970
 20
63.621360
 30
0.0
 10
195.336990
 20
69.069690
 30
0.0
  0
SPLINE
  5
27d
100
AcDbEntity
  8
Ebene_1
 62
7
100
AcDbSpline
 70
8
 71
3
 72
8
 73
4
 74
0
 40
0
 40
0
 40
0
 40
0
 40
1
 40
1
 40
1
 40
1
 10
198.552400
 20
73.915170
 30
0.0
 10
198.552400
 20
75.455880
 30
0.0
 10
198.083480
 20
76.661660
 30
0.0
 10
197.167990
 20
77.554830
 30
0.0
  0
SPLINE
  5
27e
100
AcDbEntity
  8
Ebene_1
 62
7
100
AcDbSpline
 70
8
 71
3
 72
8
 73
4
 74
0
 40
0
 40
0
 40
0
 40
0
 40
1
 40
1
 40
1
 40
1
 10
197.167990
 20
77.554830
 30
0.0
 10
196.118510
 20
78.626630
 30
0.0
 10
194.466150
 20
79.251840
 30
0.0
 10
192.076930
 20
79.251840
 30
0.0
  0
LWPOLYLINE
  5
27f
100
AcDbEntity
  8
Ebene_1
 62
7
100
AcDbPolyline
 90
2
 70
0
 10
198.552400
 20
73.870470
 30
0.0
 10
198.552400
 20
73.915170
 30
0.0
  0
LWPOLYLINE
  5
280
100
AcDbEntity
  8
Ebene_1
 62
7
100
AcDbPolyline
 90
3
 70
0
 10
192.076930
 20
79.251840
 30
0.0
 10
184.685960
 20
79.251840
 30
0.0
 10
184.685920
 20
63.621360
 30
0.0
  0
SPLINE
  5
281
100
AcDbEntity
  8
Ebene_1
 62
7
100
AcDbSpline
 70
8
 71
3
 72
8
 73
4
 74
0
 40
0
 40
0
 40
0
 40
0
 40
1
 40
1
 40
1
 40
1
 10
191.853600
 20
75.500500
 30
0.0
 10
193.304990
 20
75.500500
 30
0.0
 10
194.198160
 20
74.875280
 30
0.0
 10
194.198160
 20
73.647180
 30
0.0
  0
LWPOLYLINE
  5
282
100
AcDbEntity
  8
Ebene_1
 62
7
100
AcDbPolyline
 90
3
 70
0
 10
189.017790
 20
71.749190
 30
0.0
 10
189.017790
 20
75.500500
 30
0.0
 10
191.853600
 20
75.500500
 30
0.0
  0
SPLINE
  5
283
100
AcDbEntity
  8
Ebene_1
 62
7
100
AcDbSpline
 70
8
 71
3
 72
8
 73
4
 74
0
 40
0
 40
0
 40
0
 40
0
 40
1
 40
1
 40
1
 40
1
 10
194.198160
 20
73.602480
 30
0.0
 10
194.198160
 20
72.463690
 30
0.0
 10
193.349650
 20
71.749150
 30
0.0
 10
191.875920
 20
71.749150
 30
0.0
  0
LWPOLYLINE
  5
284
100
AcDbEntity
  8
Ebene_1
 62
7
100
AcDbPolyline
 90
2
 70
0
 10
194.198160
 20
73.647180
 30
0.0
 10
194.198160
 20
73.602480
 30
0.0
  0
SPLINE
  5
285
100
AcDbEntity
  8
Ebene_1
 62
7
100
AcDbSpline
 70
8
 71
3
 72
8
 73
4
 74
0
 40
0
 40
0
 40
0
 40
0
 40
1
 40
1
 40
1
 40
1
 10
208.706560
 20
63.308760
 30
0.0
 10
211.542370
 20
63.308760
 30
0.0
 10
213.842280
 20
64.358230
 30
0.0
 10
215.494640
 20
65.720310
 30
0.0
  0
LWPOLYLINE
  5
286
100
AcDbEntity
  8
Ebene_1
 62
7
100
AcDbPolyline
 90
2
 70
0
 10
191.875920
 20
71.749150
 30
0.0
 10
189.017790
 20
71.749190
 30
0.0
  0
SPLINE
  5
287
100
AcDbEntity
  8
Ebene_1
 62
7
100
AcDbSpline
 70
8
 71
3
 72
8
 73
4
 74
0
 40
0
 40
0
 40
0
 40
0
 40
1
 40
1
 40
1
 40
1
 10
211.386070
 20
67.685280
 30
0.0
 10
210.738520
 20
67.261020
 30
0.0
 10
209.934670
 20
67.037730
 30
0.0
 10
208.885190
 20
67.037730
 30
0.0
  0
SPLINE
  5
288
100
AcDbEntity
  8
Ebene_1
 62
7
100
AcDbSpline
 70
8
 71
3
 72
8
 73
4
 74
0
 40
0
 40
0
 40
0
 40
0
 40
1
 40
1
 40
1
 40
1
 10
208.885190
 20
67.037730
 30
0.0
 10
206.406650
 20
67.037730
 30
0.0
 10
204.642650
 20
68.846400
 30
0.0
 10
204.642650
 20
71.369600
 30
0.0
  0
LWPOLYLINE
  5
289
100
AcDbEntity
  8
Ebene_1
 62
7
100
AcDbPolyline
 90
6
 70
0
 10
215.494640
 20
65.720310
 30
0.0
 10
215.494640
 20
72.754010
 30
0.0
 10
208.304640
 20
72.754010
 30
0.0
 10
208.304640
 20
69.583260
 30
0.0
 10
211.386070
 20
69.583260
 30
0.0
 10
211.386070
 20
67.685280
 30
0.0
  0
SPLINE
  5
28a
100
AcDbEntity
  8
Ebene_1
 62
7
100
AcDbSpline
 70
8
 71
3
 72
8
 73
4
 74
0
 40
0
 40
0
 40
0
 40
0
 40
1
 40
1
 40
1
 40
1
 10
204.642650
 20
71.414300
 30
0.0
 10
204.642650
 20
73.803520
 30
0.0
 10
206.384320
 20
75.701500
 30
0.0
 10
208.639570
 20
75.701500
 30
0.0
  0
SPLINE
  5
28b
100
AcDbEntity
  8
Ebene_1
 62
7
100
AcDbSpline
 70
8
 71
3
 72
8
 73
4
 74
0
 40
0
 40
0
 40
0
 40
0
 40
1
 40
1
 40
1
 40
1
 10
208.639570
 20
75.701500
 30
0.0
 10
210.180290
 20
75.701500
 30
0.0
 10
211.296750
 20
75.165600
 30
0.0
 10
212.413210
 20
74.227770
 30
0.0
  0
LWPOLYLINE
  5
28c
100
AcDbEntity
  8
Ebene_1
 62
7
100
AcDbPolyline
 90
2
 70
0
 10
204.642650
 20
71.369600
 30
0.0
 10
204.642650
 20
71.414300
 30
0.0
  0
SPLINE
  5
28d
100
AcDbEntity
  8
Ebene_1
 62
7
100
AcDbSpline
 70
8
 71
3
 72
8
 73
4
 74
0
 40
0
 40
0
 40
0
 40
0
 40
1
 40
1
 40
1
 40
1
 10
214.958740
 20
77.286870
 30
0.0
 10
213.306380
 20
78.715940
 30
0.0
 10
211.363740
 20
79.564450
 30
0.0
 10
208.617240
 20
79.564450
 30
0.0
  0
SPLINE
  5
28e
100
AcDbEntity
  8
Ebene_1
 62
7
100
AcDbSpline
 70
8
 71
3
 72
8
 73
4
 74
0
 40
0
 40
0
 40
0
 40
0
 40
1
 40
1
 40
1
 40
1
 10
208.617240
 20
79.564450
 30
0.0
 10
203.771810
 20
79.564450
 30
0.0
 10
200.199140
 20
75.991780
 30
0.0
 10
200.199140
 20
71.436620
 30
0.0
  0
LWPOLYLINE
  5
28f
100
AcDbEntity
  8
Ebene_1
 62
7
100
AcDbPolyline
 90
2
 70
0
 10
212.413210
 20
74.227770
 30
0.0
 10
214.958740
 20
77.286870
 30
0.0
  0
SPLINE
  5
290
100
AcDbEntity
  8
Ebene_1
 62
7
100
AcDbSpline
 70
8
 71
3
 72
8
 73
4
 74
0
 40
0
 40
0
 40
0
 40
0
 40
1
 40
1
 40
1
 40
1
 10
200.199140
 20
71.392020
 30
0.0
 10
200.199140
 20
66.658230
 30
0.0
 10
203.838800
 20
63.308850
 30
0.0
 10
208.706560
 20
63.308850
 30
0.0
  0
LWPOLYLINE
  5
291
100
AcDbEntity
  8
Ebene_1
 62
7
100
AcDbPolyline
 90
2
 70
0
 10
200.199140
 20
71.436620
 30
0.0
 10
200.199140
 20
71.392020
 30
0.0
  0
LWPOLYLINE
  5
292
100
AcDbEntity
  8
Ebene_1
 62
7
100
AcDbPolyline
 90
1
 70
1
 10
208.706560
 20
63.308850
 30
0.0
  0
LWPOLYLINE
  5
293
100
AcDbEntity
  8
Ebene_1
 62
7
100
AcDbPolyline
 90
4
 70
1
 10
218.007370
 20
63.621360
 30
0.0
 10
222.361560
 20
63.621360
 30
0.0
 10
222.361560
 20
79.251800
 30
0.0
 10
218.007370
 20
79.251800
 30
0.0
  0
SPLINE
  5
294
100
AcDbEntity
  8
Ebene_1
 62
7
100
AcDbSpline
 70
8
 71
3
 72
8
 73
4
 74
0
 40
0
 40
0
 40
0
 40
0
 40
1
 40
1
 40
1
 40
1
 10
250.704650
 20
63.308760
 30
0.0
 10
253.540450
 20
63.308760
 30
0.0
 10
255.840360
 20
64.358230
 30
0.0
 10
257.492720
 20
65.720310
 30
0.0
  0
LWPOLYLINE
  5
295
100
AcDbEntity
  8
Ebene_1
 62
7
100
AcDbPolyline
 90
10
 70
1
 10
225.201210
 20
63.621360
 30
0.0
 10
229.488410
 20
63.621360
 30
0.0
 10
229.488410
 20
72.195780
 30
0.0
 10
236.164850
 20
63.621360
 30
0.0
 10
239.960810
 20
63.621360
 30
0.0
 10
239.960810
 20
79.251800
 30
0.0
 10
235.673600
 20
79.251800
 30
0.0
 10
235.673600
 20
70.990000
 30
0.0
 10
229.242790
 20
79.251800
 30
0.0
 10
225.201210
 20
79.251800
 30
0.0
  0
SPLINE
  5
296
100
AcDbEntity
  8
Ebene_1
 62
7
100
AcDbSpline
 70
8
 71
3
 72
8
 73
4
 74
0
 40
0
 40
0
 40
0
 40
0
 40
1
 40
1
 40
1
 40
1
 10
253.384150
 20
67.685280
 30
0.0
 10
252.736600
 20
67.261020
 30
0.0
 10
251.932750
 20
67.037730
 30
0.0
 10
250.883280
 20
67.037730
 30
0.0
  0
SPLINE
  5
297
100
AcDbEntity
  8
Ebene_1
 62
7
100
AcDbSpline
 70
8
 71
3
 72
8
 73
4
 74
0
 40
0
 40
0
 40
0
 40
0
 40
1
 40
1
 40
1
 40
1
 10
250.883280
 20
67.037730
 30
0.0
 10
248.404740
 20
67.037730
 30
0.0
 10
246.640730
 20
68.846400
 30
0.0
 10
246.640730
 20
71.369600
 30
0.0
  0
LWPOLYLINE
  5
298
100
AcDbEntity
  8
Ebene_1
 62
7
100
AcDbPolyline
 90
6
 70
0
 10
257.492720
 20
65.720310
 30
0.0
 10
257.492720
 20
72.754010
 30
0.0
 10
250.302720
 20
72.754010
 30
0.0
 10
250.302720
 20
69.583260
 30
0.0
 10
253.384150
 20
69.583260
 30
0.0
 10
253.384150
 20
67.685280
 30
0.0
  0
SPLINE
  5
299
100
AcDbEntity
  8
Ebene_1
 62
7
100
AcDbSpline
 70
8
 71
3
 72
8
 73
4
 74
0
 40
0
 40
0
 40
0
 40
0
 40
1
 40
1
 40
1
 40
1
 10
246.640730
 20
71.414300
 30
0.0
 10
246.640730
 20
73.803520
 30
0.0
 10
248.382410
 20
75.701500
 30
0.0
 10
250.637660
 20
75.701500
 30
0.0
  0
SPLINE
  5
29a
100
AcDbEntity
  8
Ebene_1
 62
7
100
AcDbSpline
 70
8
 71
3
 72
8
 73
4
 74
0
 40
0
 40
0
 40
0
 40
0
 40
1
 40
1
 40
1
 40
1
 10
250.637660
 20
75.701500
 30
0.0
 10
252.178370
 20
75.701500
 30
0.0
 10
253.294830
 20
75.165600
 30
0.0
 10
254.411290
 20
74.227770
 30
0.0
  0
LWPOLYLINE
  5
29b
100
AcDbEntity
  8
Ebene_1
 62
7
100
AcDbPolyline
 90
2
 70
0
 10
246.640730
 20
71.369600
 30
0.0
 10
246.640730
 20
71.414300
 30
0.0
  0
SPLINE
  5
29c
100
AcDbEntity
  8
Ebene_1
 62
7
100
AcDbSpline
 70
8
 71
3
 72
8
 73
4
 74
0
 40
0
 40
0
 40
0
 40
0
 40
1
 40
1
 40
1
 40
1
 10
256.956820
 20
77.286870
 30
0.0
 10
255.304460
 20
78.715940
 30
0.0
 10
253.361820
 20
79.564450
 30
0.0
 10
250.615330
 20
79.564450
 30
0.0
  0
SPLINE
  5
29d
100
AcDbEntity
  8
Ebene_1
 62
7
100
AcDbSpline
 70
8
 71
3
 72
8
 73
4
 74
0
 40
0
 40
0
 40
0
 40
0
 40
1
 40
1
 40
1
 40
1
 10
250.615330
 20
79.564450
 30
0.0
 10
245.769890
 20
79.564450
 30
0.0
 10
242.197220
 20
75.991780
 30
0.0
 10
242.197220
 20
71.436620
 30
0.0
  0
LWPOLYLINE
  5
29e
100
AcDbEntity
  8
Ebene_1
 62
7
100
AcDbPolyline
 90
2
 70
0
 10
254.411290
 20
74.227770
 30
0.0
 10
256.956820
 20
77.286870
 30
0.0
  0
SPLINE
  5
29f
100
AcDbEntity
  8
Ebene_1
 62
7
100
AcDbSpline
 70
8
 71
3
 72
8
 73
4
 74
0
 40
0
 40
0
 40
0
 40
0
 40
1
 40
1
 40
1
 40
1
 10
242.197220
 20
71.392020
 30
0.0
 10
242.197220
 20
66.658230
 30
0.0
 10
245.836880
 20
63.308850
 30
0.0
 10
250.704650
 20
63.308850
 30
0.0
  0
LWPOLYLINE
  5
2a0
100
AcDbEntity
  8
Ebene_1
 62
7
100
AcDbPolyline
 90
2
 70
0
 10
242.197220
 20
71.436620
 30
0.0
 10
242.197220
 20
71.392020
 30
0.0
  0
LWPOLYLINE
  5
2a1
100
AcDbEntity
  8
Ebene_1
 62
7
100
AcDbPolyline
 90
1
 70
1
 10
250.704650
 20
63.308850
 30
0.0
  0
LWPOLYLINE
  5
2a2
100
AcDbEntity
  8
Ebene_1
 62
7
100
AcDbPolyline
 90
7
 70
1
 10
123.654260
 20
86.884050
 30
0.0
 10
129.290550
 20
86.884050
 30
0.0
 10
138.183350
 20
108.959500
 30
0.0
 10
131.513750
 20
108.959500
 30
0.0
 10
126.535030
 20
95.087980
 30
0.0
 10
121.556310
 20
108.959500
 30
0.0
 10
114.761450
 20
108.959500
 30
0.0
  0
LWPOLYLINE
  5
2a3
100
AcDbEntity
  8
Ebene_1
 62
7
100
AcDbPolyline
 90
12
 70
1
 10
140.305280
 20
87.040610
 30
0.0
 10
158.090890
 20
87.040610
 30
0.0
 10
158.090890
 20
92.207210
 30
0.0
 10
146.317320
 20
92.207210
 30
0.0
 10
146.317320
 20
95.682920
 30
0.0
 10
156.838380
 20
95.682920
 30
0.0
 10
156.838380
 20
100.473760
 30
0.0
 10
146.317320
 20
100.473760
 30
0.0
 10
146.317320
 20
103.792910
 30
0.0
 10
157.934330
 20
103.792910
 30
0.0
 10
157.934330
 20
108.959500
 30
0.0
 10
140.305280
 20
108.959500
 30
0.0
  0
LWPOLYLINE
  5
2a4
100
AcDbEntity
  8
Ebene_1
 62
7
100
AcDbPolyline
 90
12
 70
1
 10
161.221180
 20
87.040610
 30
0.0
 10
167.295850
 20
87.040610
 30
0.0
 10
167.295850
 20
95.369790
 30
0.0
 10
175.092710
 20
95.369790
 30
0.0
 10
175.092710
 20
87.040610
 30
0.0
 10
181.167370
 20
87.040610
 30
0.0
 10
181.167370
 20
108.959500
 30
0.0
 10
175.092710
 20
108.959500
 30
0.0
 10
175.092710
 20
100.755580
 30
0.0
 10
167.295850
 20
100.755580
 30
0.0
 10
167.295850
 20
108.959500
 30
0.0
 10
161.221180
 20
108.959500
 30
0.0
  0
SPLINE
  5
2a5
100
AcDbEntity
  8
Ebene_1
 62
7
100
AcDbSpline
 70
8
 71
3
 72
8
 73
4
 74
0
 40
0
 40
0
 40
0
 40
0
 40
1
 40
1
 40
1
 40
1
 10
205.838360
 20
86.602240
 30
0.0
 10
210.691830
 20
86.602240
 30
0.0
 10
213.478660
 20
88.700190
 30
0.0
 10
215.545290
 20
91.549640
 30
0.0
  0
LWPOLYLINE
  5
2a6
100
AcDbEntity
  8
Ebene_1
 62
7
100
AcDbPolyline
 90
4
 70
1
 10
185.197910
 20
87.040610
 30
0.0
 10
191.303890
 20
87.040610
 30
0.0
 10
191.303890
 20
108.959500
 30
0.0
 10
185.197910
 20
108.959500
 30
0.0
  0
SPLINE
  5
2a7
100
AcDbEntity
  8
Ebene_1
 62
7
100
AcDbSpline
 70
8
 71
3
 72
8
 73
4
 74
0
 40
0
 40
0
 40
0
 40
0
 40
1
 40
1
 40
1
 40
1
 10
210.973640
 20
94.806160
 30
0.0
 10
209.658510
 20
93.209220
 30
0.0
 10
208.312060
 20
92.144580
 30
0.0
 10
206.026230
 20
92.144580
 30
0.0
  0
SPLINE
  5
2a8
100
AcDbEntity
  8
Ebene_1
 62
7
100
AcDbSpline
 70
8
 71
3
 72
8
 73
4
 74
0
 40
0
 40
0
 40
0
 40
0
 40
1
 40
1
 40
1
 40
1
 10
206.026230
 20
92.144580
 30
0.0
 10
202.957590
 20
92.144580
 30
0.0
 10
200.797010
 20
94.712230
 30
0.0
 10
200.797010
 20
98.000060
 30
0.0
  0
LWPOLYLINE
  5
2a9
100
AcDbEntity
  8
Ebene_1
 62
7
100
AcDbPolyline
 90
2
 70
0
 10
215.545290
 20
91.549640
 30
0.0
 10
210.973640
 20
94.806160
 30
0.0
  0
SPLINE
  5
2aa
100
AcDbEntity
  8
Ebene_1
 62
7
100
AcDbSpline
 70
8
 71
3
 72
8
 73
4
 74
0
 40
0
 40
0
 40
0
 40
0
 40
1
 40
1
 40
1
 40
1
 10
200.797010
 20
98.062660
 30
0.0
 10
200.797010
 20
101.256560
 30
0.0
 10
202.957590
 20
103.855510
 30
0.0
 10
206.026230
 20
103.855510
 30
0.0
  0
SPLINE
  5
2ab
100
AcDbEntity
  8
Ebene_1
 62
7
100
AcDbSpline
 70
8
 71
3
 72
8
 73
4
 74
0
 40
0
 40
0
 40
0
 40
0
 40
1
 40
1
 40
1
 40
1
 10
206.026230
 20
103.855510
 30
0.0
 10
208.124180
 20
103.855510
 30
0.0
 10
209.564570
 20
102.853510
 30
0.0
 10
210.817080
 20
101.287870
 30
0.0
  0
LWPOLYLINE
  5
2ac
100
AcDbEntity
  8
Ebene_1
 62
7
100
AcDbPolyline
 90
2
 70
0
 10
200.797010
 20
98.000060
 30
0.0
 10
200.797010
 20
98.062660
 30
0.0
  0
SPLINE
  5
2ad
100
AcDbEntity
  8
Ebene_1
 62
7
100
AcDbSpline
 70
8
 71
3
 72
8
 73
4
 74
0
 40
0
 40
0
 40
0
 40
0
 40
1
 40
1
 40
1
 40
1
 10
215.388730
 20
104.826210
 30
0.0
 10
213.447340
 20
107.519100
 30
0.0
 10
210.566570
 20
109.397860
 30
0.0
 10
206.088860
 20
109.397860
 30
0.0
  0
SPLINE
  5
2ae
100
AcDbEntity
  8
Ebene_1
 62
7
100
AcDbSpline
 70
8
 71
3
 72
8
 73
4
 74
0
 40
0
 40
0
 40
0
 40
0
 40
1
 40
1
 40
1
 40
1
 10
206.088860
 20
109.397860
 30
0.0
 10
199.450570
 20
109.397860
 30
0.0
 10
194.534470
 20
104.387830
 30
0.0
 10
194.534470
 20
98.000040
 30
0.0
  0
LWPOLYLINE
  5
2af
100
AcDbEntity
  8
Ebene_1
 62
7
100
AcDbPolyline
 90
2
 70
0
 10
210.817080
 20
101.287870
 30
0.0
 10
215.388730
 20
104.826210
 30
0.0
  0
SPLINE
  5
2b0
100
AcDbEntity
  8
Ebene_1
 62
7
100
AcDbSpline
 70
8
 71
3
 72
8
 73
4
 74
0
 40
0
 40
0
 40
0
 40
0
 40
1
 40
1
 40
1
 40
1
 10
194.534470
 20
97.937440
 30
0.0
 10
194.534470
 20
91.393090
 30
0.0
 10
199.575820
 20
86.602250
 30
0.0
 10
205.838360
 20
86.602250
 30
0.0
  0
LWPOLYLINE
  5
2b1
100
AcDbEntity
  8
Ebene_1
 62
7
100
AcDbPolyline
 90
2
 70
0
 10
194.534470
 20
98.000040
 30
0.0
 10
194.534470
 20
97.937440
 30
0.0
  0
LWPOLYLINE
  5
2b2
100
AcDbEntity
  8
Ebene_1
 62
7
100
AcDbPolyline
 90
1
 70
1
 10
205.838360
 20
86.602250
 30
0.0
  0
LWPOLYLINE
  5
2b3
100
AcDbEntity
  8
Ebene_1
 62
7
100
AcDbPolyline
 90
6
 70
1
 10
218.158920
 20
87.040610
 30
0.0
 10
234.848590
 20
87.040610
 30
0.0
 10
234.848590
 20
92.363770
 30
0.0
 10
224.233590
 20
92.363770
 30
0.0
 10
224.233590
 20
108.959500
 30
0.0
 10
218.158920
 20
108.959500
 30
0.0
  0
SPLINE
  5
2b4
100
AcDbEntity
  8
Ebene_1
 62
7
100
AcDbSpline
 70
8
 71
3
 72
8
 73
4
 74
0
 40
0
 40
0
 40
0
 40
0
 40
1
 40
1
 40
1
 40
1
 10
266.950480
 20
86.664860
 30
0.0
 10
272.273640
 20
86.664860
 30
0.0
 10
275.811980
 20
89.326440
 30
0.0
 10
275.811980
 20
93.804160
 30
0.0
  0
LWPOLYLINE
  5
2b5
100
AcDbEntity
  8
Ebene_1
 62
7
100
AcDbPolyline
 90
12
 70
1
 10
237.423580
 20
87.040610
 30
0.0
 10
255.209190
 20
87.040610
 30
0.0
 10
255.209190
 20
92.207210
 30
0.0
 10
243.435620
 20
92.207210
 30
0.0
 10
243.435620
 20
95.682920
 30
0.0
 10
253.956690
 20
95.682920
 30
0.0
 10
253.956690
 20
100.473760
 30
0.0
 10
243.435620
 20
100.473760
 30
0.0
 10
243.435620
 20
103.792910
 30
0.0
 10
255.052630
 20
103.792910
 30
0.0
 10
255.052630
 20
108.959500
 30
0.0
 10
237.423580
 20
108.959500
 30
0.0
  0
SPLINE
  5
2b6
100
AcDbEntity
  8
Ebene_1
 62
7
100
AcDbSpline
 70
8
 71
3
 72
8
 73
4
 74
0
 40
0
 40
0
 40
0
 40
0
 40
1
 40
1
 40
1
 40
1
 10
275.811980
 20
93.866760
 30
0.0
 10
275.811980
 20
97.968730
 30
0.0
 10
272.680710
 20
99.596990
 30
0.0
 10
267.639360
 20
100.692930
 30
0.0
  0
SPLINE
  5
2b7
100
AcDbEntity
  8
Ebene_1
 62
7
100
AcDbSpline
 70
8
 71
3
 72
8
 73
4
 74
0
 40
0
 40
0
 40
0
 40
0
 40
1
 40
1
 40
1
 40
1
 10
267.639360
 20
100.692930
 30
0.0
 10
264.602030
 20
101.381810
 30
0.0
 10
263.850520
 20
101.820190
 30
0.0
 10
263.850520
 20
102.822200
 30
0.0
  0
LWPOLYLINE
  5
2b8
100
AcDbEntity
  8
Ebene_1
 62
7
100
AcDbPolyline
 90
2
 70
0
 10
275.811980
 20
93.804160
 30
0.0
 10
275.811980
 20
93.866760
 30
0.0
  0
SPLINE
  5
2b9
100
AcDbEntity
  8
Ebene_1
 62
7
100
AcDbSpline
 70
8
 71
3
 72
8
 73
4
 74
0
 40
0
 40
0
 40
0
 40
0
 40
1
 40
1
 40
1
 40
1
 10
263.850520
 20
102.884800
 30
0.0
 10
263.850520
 20
103.667620
 30
0.0
 10
264.570720
 20
104.293870
 30
0.0
 10
266.042410
 20
104.293870
 30
0.0
  0
SPLINE
  5
2ba
100
AcDbEntity
  8
Ebene_1
 62
7
100
AcDbSpline
 70
8
 71
3
 72
8
 73
4
 74
0
 40
0
 40
0
 40
0
 40
0
 40
1
 40
1
 40
1
 40
1
 10
266.042410
 20
104.293870
 30
0.0
 10
267.983800
 20
104.293870
 30
0.0
 10
270.175690
 20
103.542370
 30
0.0
 10
272.179700
 20
102.133300
 30
0.0
  0
LWPOLYLINE
  5
2bb
100
AcDbEntity
  8
Ebene_1
 62
7
100
AcDbPolyline
 90
2
 70
0
 10
263.850520
 20
102.822200
 30
0.0
 10
263.850520
 20
102.884800
 30
0.0
  0
SPLINE
  5
2bc
100
AcDbEntity
  8
Ebene_1
 62
7
100
AcDbSpline
 70
8
 71
3
 72
8
 73
4
 74
0
 40
0
 40
0
 40
0
 40
0
 40
1
 40
1
 40
1
 40
1
 10
275.217030
 20
106.423140
 30
0.0
 10
272.837270
 20
108.333210
 30
0.0
 10
269.925190
 20
109.335220
 30
0.0
 10
266.198980
 20
109.335220
 30
0.0
  0
SPLINE
  5
2bd
100
AcDbEntity
  8
Ebene_1
 62
7
100
AcDbSpline
 70
8
 71
3
 72
8
 73
4
 74
0
 40
0
 40
0
 40
0
 40
0
 40
1
 40
1
 40
1
 40
1
 10
266.198980
 20
109.335220
 30
0.0
 10
260.938440
 20
109.335220
 30
0.0
 10
257.713240
 20
106.391820
 30
0.0
 10
257.713240
 20
102.321170
 30
0.0
  0
LWPOLYLINE
  5
2be
100
AcDbEntity
  8
Ebene_1
 62
7
100
AcDbPolyline
 90
2
 70
0
 10
272.179700
 20
102.133300
 30
0.0
 10
275.217030
 20
106.423140
 30
0.0
  0
SPLINE
  5
2bf
100
AcDbEntity
  8
Ebene_1
 62
7
100
AcDbSpline
 70
8
 71
3
 72
8
 73
4
 74
0
 40
0
 40
0
 40
0
 40
0
 40
1
 40
1
 40
1
 40
1
 10
257.713240
 20
102.258570
 30
0.0
 10
257.713240
 20
97.749540
 30
0.0
 10
261.314200
 20
96.434400
 30
0.0
 10
265.979790
 20
95.369770
 30
0.0
  0
SPLINE
  5
2c0
100
AcDbEntity
  8
Ebene_1
 62
7
100
AcDbSpline
 70
8
 71
3
 72
8
 73
4
 74
0
 40
0
 40
0
 40
0
 40
0
 40
1
 40
1
 40
1
 40
1
 10
265.979790
 20
95.369770
 30
0.0
 10
268.954490
 20
94.680890
 30
0.0
 10
269.674690
 20
94.179890
 30
0.0
 10
269.674690
 20
93.271820
 30
0.0
  0
LWPOLYLINE
  5
2c1
100
AcDbEntity
  8
Ebene_1
 62
7
100
AcDbPolyline
 90
2
 70
0
 10
257.713240
 20
102.321170
 30
0.0
 10
257.713240
 20
102.258570
 30
0.0
  0
SPLINE
  5
2c2
100
AcDbEntity
  8
Ebene_1
 62
7
100
AcDbSpline
 70
8
 71
3
 72
8
 73
4
 74
0
 40
0
 40
0
 40
0
 40
0
 40
1
 40
1
 40
1
 40
1
 10
269.674690
 20
93.209220
 30
0.0
 10
269.674690
 20
92.269840
 30
0.0
 10
268.797930
 20
91.706210
 30
0.0
 10
267.169670
 20
91.706210
 30
0.0
  0
SPLINE
  5
2c3
100
AcDbEntity
  8
Ebene_1
 62
7
100
AcDbSpline
 70
8
 71
3
 72
8
 73
4
 74
0
 40
0
 40
0
 40
0
 40
0
 40
1
 40
1
 40
1
 40
1
 10
267.169670
 20
91.706210
 30
0.0
 10
264.633340
 20
91.706210
 30
0.0
 10
262.222260
 20
92.614280
 30
0.0
 10
260.061690
 20
94.336470
 30
0.0
  0
LWPOLYLINE
  5
2c4
100
AcDbEntity
  8
Ebene_1
 62
7
100
AcDbPolyline
 90
2
 70
0
 10
269.674690
 20
93.271820
 30
0.0
 10
269.674690
 20
93.209220
 30
0.0
  0
SPLINE
  5
2c5
100
AcDbEntity
  8
Ebene_1
 62
7
100
AcDbSpline
 70
8
 71
3
 72
8
 73
4
 74
0
 40
0
 40
0
 40
0
 40
0
 40
1
 40
1
 40
1
 40
1
 10
256.679920
 20
90.297140
 30
0.0
 10
259.372810
 20
87.886060
 30
0.0
 10
263.067710
 20
86.664860
 30
0.0
 10
266.950480
 20
86.664860
 30
0.0
  0
LWPOLYLINE
  5
2c6
100
AcDbEntity
  8
Ebene_1
 62
7
100
AcDbPolyline
 90
2
 70
0
 10
260.061690
 20
94.336470
 30
0.0
 10
256.679920
 20
90.297140
 30
0.0
  0
LWPOLYLINE
  5
2c7
100
AcDbEntity
  8
Ebene_1
 62
7
100
AcDbPolyline
 90
1
 70
1
 10
266.950480
 20
86.664860
 30
0.0
  0
SPLINE
  5
2c8
100
AcDbEntity
  8
Ebene_1
 62
7
100
AcDbSpline
 70
8
 71
3
 72
8
 73
4
 74
0
 40
0
 40
0
 40
0
 40
0
 40
1
 40
1
 40
1
 40
1
 10
34.729841
 20
132.537321
 30
0.0
 10
25.537131
 20
122.710291
 30
0.0
 10
21.468765
 20
109.505167
 30
0.0
 10
23.593052
 20
96.390168
 30
0.0
  0
SPLINE
  5
2c9
100
AcDbEntity
  8
Ebene_1
 62
7
100
AcDbSpline
 70
8
 71
3
 72
8
 73
4
 74
0
 40
0
 40
0
 40
0
 40
0
 40
1
 40
1
 40
1
 40
1
 10
23.593052
 20
96.390168
 30
0.0
 10
26.446583
 20
78.773152
 30
0.0
 10
40.348850
 20
64.805454
 30
0.0
 10
58.148561
 20
61.672390
 30
0.0
  0
SPLINE
  5
2ca
100
AcDbEntity
  8
Ebene_1
 62
7
100
AcDbSpline
 70
8
 71
3
 72
8
 73
4
 74
0
 40
0
 40
0
 40
0
 40
0
 40
1
 40
1
 40
1
 40
1
 10
58.148561
 20
61.672390
 30
0.0
 10
61.600050
 20
61.064881
 30
0.0
 10
67.566775
 20
60.981775
 30
0.0
 10
71.224269
 20
61.490489
 30
0.0
  0
SPLINE
  5
2cb
100
AcDbEntity
  8
Ebene_1
 62
7
100
AcDbSpline
 70
8
 71
3
 72
8
 73
4
 74
0
 40
0
 40
0
 40
0
 40
0
 40
1
 40
1
 40
1
 40
1
 10
71.224269
 20
61.490489
 30
0.0
 10
80.118661
 20
62.727602
 30
0.0
 10
88.691029
 20
67.061662
 30
0.0
 10
95.195413
 20
73.609649
 30
0.0
  0
SPLINE
  5
2cc
100
AcDbEntity
  8
Ebene_1
 62
7
100
AcDbSpline
 70
8
 71
3
 72
8
 73
4
 74
0
 40
0
 40
0
 40
0
 40
0
 40
1
 40
1
 40
1
 40
1
 10
95.195413
 20
73.609649
 30
0.0
 10
101.427858
 20
79.883899
 30
0.0
 10
105.340914
 20
87.368935
 30
0.0
 10
106.818479
 20
95.841872
 30
0.0
  0
SPLINE
  5
2cd
100
AcDbEntity
  8
Ebene_1
 62
7
100
AcDbSpline
 70
8
 71
3
 72
8
 73
4
 74
0
 40
0
 40
0
 40
0
 40
0
 40
1
 40
1
 40
1
 40
1
 10
106.818479
 20
95.841872
 30
0.0
 10
107.513116
 20
99.825307
 30
0.0
 10
107.513116
 20
106.713363
 30
0.0
 10
106.818479
 20
110.696798
 30
0.0
  0
SPLINE
  5
2ce
100
AcDbEntity
  8
Ebene_1
 62
7
100
AcDbSpline
 70
8
 71
3
 72
8
 73
4
 74
0
 40
0
 40
0
 40
0
 40
0
 40
1
 40
1
 40
1
 40
1
 10
106.818479
 20
110.696798
 30
0.0
 10
105.402059
 20
118.819022
 30
0.0
 10
101.311018
 20
126.828308
 30
0.0
 10
95.610359
 20
132.638090
 30
0.0
  0
LWPOLYLINE
  5
2cf
100
AcDbEntity
  8
Ebene_1
 62
7
100
AcDbPolyline
 90
2
 70
0
 10
36.886301
 20
134.843122
 30
0.0
 10
34.729841
 20
132.537321
 30
0.0
  0
LWPOLYLINE
  5
2d0
100
AcDbEntity
  8
Ebene_1
 62
7
100
AcDbPolyline
 90
4
 70
0
 10
95.610359
 20
132.638090
 30
0.0
 10
93.446676
 20
134.843122
 30
0.0
 10
65.166740
 20
134.843122
 30
0.0
 10
36.886301
 20
134.843122
 30
0.0
  0
SPLINE
  5
2d1
100
AcDbEntity
  8
Ebene_1
 62
7
100
AcDbSpline
 70
8
 71
3
 72
8
 73
4
 74
0
 40
0
 40
0
 40
0
 40
0
 40
1
 40
1
 40
1
 40
1
 10
93.214134
 20
126.597631
 30
0.0
 10
102.475370
 20
114.958865
 30
0.0
 10
104.253714
 20
100.148892
 30
0.0
 10
97.921865
 20
87.394335
 30
0.0
  0
SPLINE
  5
2d2
100
AcDbEntity
  8
Ebene_1
 62
7
100
AcDbSpline
 70
8
 71
3
 72
8
 73
4
 74
0
 40
0
 40
0
 40
0
 40
0
 40
1
 40
1
 40
1
 40
1
 10
97.921865
 20
87.394335
 30
0.0
 10
94.189176
 20
79.875433
 30
0.0
 10
88.565087
 20
74.274944
 30
0.0
 10
81.078966
 20
70.622742
 30
0.0
  0
SPLINE
  5
2d3
100
AcDbEntity
  8
Ebene_1
 62
7
100
AcDbSpline
 70
8
 71
3
 72
8
 73
4
 74
0
 40
0
 40
0
 40
0
 40
0
 40
1
 40
1
 40
1
 40
1
 10
81.078966
 20
70.622742
 30
0.0
 10
77.098813
 20
68.680991
 30
0.0
 10
73.644016
 20
67.656921
 30
0.0
 10
69.270374
 20
67.122199
 30
0.0
  0
SPLINE
  5
2d4
100
AcDbEntity
  8
Ebene_1
 62
7
100
AcDbSpline
 70
8
 71
3
 72
8
 73
4
 74
0
 40
0
 40
0
 40
0
 40
0
 40
1
 40
1
 40
1
 40
1
 10
69.270374
 20
67.122199
 30
0.0
 10
61.369704
 20
66.156258
 30
0.0
 10
52.994980
 20
68.099702
 30
0.0
 10
45.768971
 20
72.575605
 30
0.0
  0
SPLINE
  5
2d5
100
AcDbEntity
  8
Ebene_1
 62
7
100
AcDbSpline
 70
8
 71
3
 72
8
 73
4
 74
0
 40
0
 40
0
 40
0
 40
0
 40
1
 40
1
 40
1
 40
1
 10
45.768971
 20
72.575605
 30
0.0
 10
42.159076
 20
74.811652
 30
0.0
 10
36.768376
 20
80.189096
 30
0.0
 10
34.557253
 20
83.759410
 30
0.0
  0
SPLINE
  5
2d6
100
AcDbEntity
  8
Ebene_1
 62
7
100
AcDbSpline
 70
8
 71
3
 72
8
 73
4
 74
0
 40
0
 40
0
 40
0
 40
0
 40
1
 40
1
 40
1
 40
1
 10
34.557253
 20
83.759410
 30
0.0
 10
28.997458
 20
92.736802
 30
0.0
 10
27.478564
 20
102.681510
 30
0.0
 10
30.122889
 20
112.794335
 30
0.0
  0
SPLINE
  5
2d7
100
AcDbEntity
  8
Ebene_1
 62
7
100
AcDbSpline
 70
8
 71
3
 72
8
 73
4
 74
0
 40
0
 40
0
 40
0
 40
0
 40
1
 40
1
 40
1
 40
1
 10
30.122889
 20
112.794335
 30
0.0
 10
31.435090
 20
117.812658
 30
0.0
 10
34.603740
 20
123.680828
 30
0.0
 10
37.978739
 20
127.342288
 30
0.0
  0
LWPOLYLINE
  5
2d8
100
AcDbEntity
  8
Ebene_1
 62
7
100
AcDbPolyline
 90
4
 70
0
 10
39.364706
 20
128.845555
 30
0.0
 10
65.395154
 20
128.845555
 30
0.0
 10
91.425100
 20
128.845555
 30
0.0
 10
93.214134
 20
126.597631
 30
0.0
  0
SPLINE
  5
2d9
100
AcDbEntity
  8
Ebene_1
 62
7
100
AcDbSpline
 70
8
 71
3
 72
8
 73
4
 74
0
 40
0
 40
0
 40
0
 40
0
 40
1
 40
1
 40
1
 40
1
 10
29.499996
 20
167.999520
 30
0.0
 10
29.499996
 20
167.336479
 30
0.0
 10
29.236604
 20
166.700594
 30
0.0
 10
28.767763
 20
166.231753
 30
0.0
  0
SPLINE
  5
2da
100
AcDbEntity
  8
Ebene_1
 62
7
100
AcDbSpline
 70
8
 71
3
 72
8
 73
4
 74
0
 40
0
 40
0
 40
0
 40
0
 40
1
 40
1
 40
1
 40
1
 10
28.767763
 20
166.231753
 30
0.0
 10
28.298922
 20
165.762912
 30
0.0
 10
27.663037
 20
165.499520
 30
0.0
 10
26.999996
 20
165.499520
 30
0.0
  0
SPLINE
  5
2db
100
AcDbEntity
  8
Ebene_1
 62
7
100
AcDbSpline
 70
8
 71
3
 72
8
 73
4
 74
0
 40
0
 40
0
 40
0
 40
0
 40
1
 40
1
 40
1
 40
1
 10
26.999996
 20
165.499520
 30
0.0
 10
26.336955
 20
165.499520
 30
0.0
 10
25.701070
 20
165.762912
 30
0.0
 10
25.232229
 20
166.231753
 30
0.0
  0
SPLINE
  5
2dc
100
AcDbEntity
  8
Ebene_1
 62
7
100
AcDbSpline
 70
8
 71
3
 72
8
 73
4
 74
0
 40
0
 40
0
 40
0
 40
0
 40
1
 40
1
 40
1
 40
1
 10
25.232229
 20
166.231753
 30
0.0
 10
24.763388
 20
166.700594
 30
0.0
 10
24.499996
 20
167.336479
 30
0.0
 10
24.499996
 20
167.999520
 30
0.0
  0
SPLINE
  5
2dd
100
AcDbEntity
  8
Ebene_1
 62
7
100
AcDbSpline
 70
8
 71
3
 72
8
 73
4
 74
0
 40
0
 40
0
 40
0
 40
0
 40
1
 40
1
 40
1
 40
1
 10
24.499996
 20
167.999520
 30
0.0
 10
24.499996
 20
169.380232
 30
0.0
 10
25.619284
 20
170.499520
 30
0.0
 10
26.999996
 20
170.499520
 30
0.0
  0
SPLINE
  5
2de
100
AcDbEntity
  8
Ebene_1
 62
7
100
AcDbSpline
 70
8
 71
3
 72
8
 73
4
 74
0
 40
0
 40
0
 40
0
 40
0
 40
1
 40
1
 40
1
 40
1
 10
26.999996
 20
170.499520
 30
0.0
 10
27.663037
 20
170.499520
 30
0.0
 10
28.298922
 20
170.236128
 30
0.0
 10
28.767763
 20
169.767287
 30
0.0
  0
SPLINE
  5
2df
100
AcDbEntity
  8
Ebene_1
 62
7
100
AcDbSpline
 70
8
 71
3
 72
8
 73
4
 74
0
 40
0
 40
0
 40
0
 40
0
 40
1
 40
1
 40
1
 40
1
 10
28.767763
 20
169.767287
 30
0.0
 10
29.236604
 20
169.298446
 30
0.0
 10
29.499996
 20
168.662561
 30
0.0
 10
29.499996
 20
167.999520
 30
0.0
  0
SPLINE
  5
2e0
100
AcDbEntity
  8
Ebene_1
 62
7
100
AcDbSpline
 70
8
 71
3
 72
8
 73
4
 74
0
 40
0
 40
0
 40
0
 40
0
 40
1
 40
1
 40
1
 40
1
 10
29.499996
 20
27.999516
 30
0.0
 10
29.499996
 20
27.336475
 30
0.0
 10
29.236604
 20
26.700590
 30
0.0
 10
28.767763
 20
26.231749
 30
0.0
  0
SPLINE
  5
2e1
100
AcDbEntity
  8
Ebene_1
 62
7
100
AcDbSpline
 70
8
 71
3
 72
8
 73
4
 74
0
 40
0
 40
0
 40
0
 40
0
 40
1
 40
1
 40
1
 40
1
 10
28.767763
 20
26.231749
 30
0.0
 10
28.298922
 20
25.762908
 30
0.0
 10
27.663037
 20
25.499516
 30
0.0
 10
26.999996
 20
25.499516
 30
0.0
  0
SPLINE
  5
2e2
100
AcDbEntity
  8
Ebene_1
 62
7
100
AcDbSpline
 70
8
 71
3
 72
8
 73
4
 74
0
 40
0
 40
0
 40
0
 40
0
 40
1
 40
1
 40
1
 40
1
 10
26.999996
 20
25.499516
 30
0.0
 10
26.336955
 20
25.499516
 30
0.0
 10
25.701070
 20
25.762908
 30
0.0
 10
25.232229
 20
26.231749
 30
0.0
  0
SPLINE
  5
2e3
100
AcDbEntity
  8
Ebene_1
 62
7
100
AcDbSpline
 70
8
 71
3
 72
8
 73
4
 74
0
 40
0
 40
0
 40
0
 40
0
 40
1
 40
1
 40
1
 40
1
 10
25.232229
 20
26.231749
 30
0.0
 10
24.763388
 20
26.700590
 30
0.0
 10
24.499996
 20
27.336475
 30
0.0
 10
24.499996
 20
27.999516
 30
0.0
  0
SPLINE
  5
2e4
100
AcDbEntity
  8
Ebene_1
 62
7
100
AcDbSpline
 70
8
 71
3
 72
8
 73
4
 74
0
 40
0
 40
0
 40
0
 40
0
 40
1
 40
1
 40
1
 40
1
 10
24.499996
 20
27.999516
 30
0.0
 10
24.499996
 20
29.380228
 30
0.0
 10
25.619284
 20
30.499516
 30
0.0
 10
26.999996
 20
30.499516
 30
0.0
  0
SPLINE
  5
2e5
100
AcDbEntity
  8
Ebene_1
 62
7
100
AcDbSpline
 70
8
 71
3
 72
8
 73
4
 74
0
 40
0
 40
0
 40
0
 40
0
 40
1
 40
1
 40
1
 40
1
 10
26.999996
 20
30.499516
 30
0.0
 10
27.663037
 20
30.499516
 30
0.0
 10
28.298922
 20
30.236124
 30
0.0
 10
28.767763
 20
29.767283
 30
0.0
  0
SPLINE
  5
2e6
100
AcDbEntity
  8
Ebene_1
 62
7
100
AcDbSpline
 70
8
 71
3
 72
8
 73
4
 74
0
 40
0
 40
0
 40
0
 40
0
 40
1
 40
1
 40
1
 40
1
 10
28.767763
 20
29.767283
 30
0.0
 10
29.236604
 20
29.298442
 30
0.0
 10
29.499996
 20
28.662557
 30
0.0
 10
29.499996
 20
27.999516
 30
0.0
  0
SPLINE
  5
2e7
100
AcDbEntity
  8
Ebene_1
 62
7
100
AcDbSpline
 70
8
 71
3
 72
8
 73
4
 74
0
 40
0
 40
0
 40
0
 40
0
 40
1
 40
1
 40
1
 40
1
 10
274.500000
 20
27.999516
 30
0.0
 10
274.500000
 20
27.336475
 30
0.0
 10
274.236608
 20
26.700590
 30
0.0
 10
273.767767
 20
26.231749
 30
0.0
  0
SPLINE
  5
2e8
100
AcDbEntity
  8
Ebene_1
 62
7
100
AcDbSpline
 70
8
 71
3
 72
8
 73
4
 74
0
 40
0
 40
0
 40
0
 40
0
 40
1
 40
1
 40
1
 40
1
 10
273.767767
 20
26.231749
 30
0.0
 10
273.298926
 20
25.762908
 30
0.0
 10
272.663041
 20
25.499516
 30
0.0
 10
272.000000
 20
25.499516
 30
0.0
  0
SPLINE
  5
2e9
100
AcDbEntity
  8
Ebene_1
 62
7
100
AcDbSpline
 70
8
 71
3
 72
8
 73
4
 74
0
 40
0
 40
0
 40
0
 40
0
 40
1
 40
1
 40
1
 40
1
 10
272.000000
 20
25.499516
 30
0.0
 10
271.336959
 20
25.499516
 30
0.0
 10
270.701074
 20
25.762908
 30
0.0
 10
270.232233
 20
26.231749
 30
0.0
  0
SPLINE
  5
2ea
100
AcDbEntity
  8
Ebene_1
 62
7
100
AcDbSpline
 70
8
 71
3
 72
8
 73
4
 74
0
 40
0
 40
0
 40
0
 40
0
 40
1
 40
1
 40
1
 40
1
 10
270.232233
 20
26.231749
 30
0.0
 10
269.763392
 20
26.700590
 30
0.0
 10
269.500000
 20
27.336475
 30
0.0
 10
269.500000
 20
27.999516
 30
0.0
  0
SPLINE
  5
2eb
100
AcDbEntity
  8
Ebene_1
 62
7
100
AcDbSpline
 70
8
 71
3
 72
8
 73
4
 74
0
 40
0
 40
0
 40
0
 40
0
 40
1
 40
1
 40
1
 40
1
 10
269.500000
 20
27.999516
 30
0.0
 10
269.500000
 20
28.662557
 30
0.0
 10
269.763392
 20
29.298442
 30
0.0
 10
270.232233
 20
29.767283
 30
0.0
  0
SPLINE
  5
2ec
100
AcDbEntity
  8
Ebene_1
 62
7
100
AcDbSpline
 70
8
 71
3
 72
8
 73
4
 74
0
 40
0
 40
0
 40
0
 40
0
 40
1
 40
1
 40
1
 40
1
 10
270.232233
 20
29.767283
 30
0.0
 10
270.701074
 20
30.236124
 30
0.0
 10
271.336959
 20
30.499516
 30
0.0
 10
272.000000
 20
30.499516
 30
0.0
  0
SPLINE
  5
2ed
100
AcDbEntity
  8
Ebene_1
 62
7
100
AcDbSpline
 70
8
 71
3
 72
8
 73
4
 74
0
 40
0
 40
0
 40
0
 40
0
 40
1
 40
1
 40
1
 40
1
 10
272.000000
 20
30.499516
 30
0.0
 10
272.663041
 20
30.499516
 30
0.0
 10
273.298926
 20
30.236124
 30
0.0
 10
273.767767
 20
29.767283
 30
0.0
  0
SPLINE
  5
2ee
100
AcDbEntity
  8
Ebene_1
 62
7
100
AcDbSpline
 70
8
 71
3
 72
8
 73
4
 74
0
 40
0
 40
0
 40
0
 40
0
 40
1
 40
1
 40
1
 40
1
 10
273.767767
 20
29.767283
 30
0.0
 10
274.236608
 20
29.298442
 30
0.0
 10
274.500000
 20
28.662557
 30
0.0
 10
274.500000
 20
27.999516
 30
0.0
  0
SPLINE
  5
2ef
100
AcDbEntity
  8
Ebene_1
 62
7
100
AcDbSpline
 70
8
 71
3
 72
8
 73
4
 74
0
 40
0
 40
0
 40
0
 40
0
 40
1
 40
1
 40
1
 40
1
 10
274.500000
 20
167.999520
 30
0.0
 10
274.500000
 20
167.336479
 30
0.0
 10
274.236608
 20
166.700594
 30
0.0
 10
273.767767
 20
166.231753
 30
0.0
  0
SPLINE
  5
2f0
100
AcDbEntity
  8
Ebene_1
 62
7
100
AcDbSpline
 70
8
 71
3
 72
8
 73
4
 74
0
 40
0
 40
0
 40
0
 40
0
 40
1
 40
1
 40
1
 40
1
 10
273.767767
 20
166.231753
 30
0.0
 10
273.298926
 20
165.762912
 30
0.0
 10
272.663041
 20
165.499520
 30
0.0
 10
272.000000
 20
165.499520
 30
0.0
  0
SPLINE
  5
2f1
100
AcDbEntity
  8
Ebene_1
 62
7
100
AcDbSpline
 70
8
 71
3
 72
8
 73
4
 74
0
 40
0
 40
0
 40
0
 40
0
 40
1
 40
1
 40
1
 40
1
 10
272.000000
 20
165.499520
 30
0.0
 10
271.336959
 20
165.499520
 30
0.0
 10
270.701074
 20
165.762912
 30
0.0
 10
270.232233
 20
166.231753
 30
0.0
  0
SPLINE
  5
2f2
100
AcDbEntity
  8
Ebene_1
 62
7
100
AcDbSpline
 70
8
 71
3
 72
8
 73
4
 74
0
 40
0
 40
0
 40
0
 40
0
 40
1
 40
1
 40
1
 40
1
 10
270.232233
 20
166.231753
 30
0.0
 10
269.763392
 20
166.700594
 30
0.0
 10
269.500000
 20
167.336479
 30
0.0
 10
269.500000
 20
167.999520
 30
0.0
  0
SPLINE
  5
2f3
100
AcDbEntity
  8
Ebene_1
 62
7
100
AcDbSpline
 70
8
 71
3
 72
8
 73
4
 74
0
 40
0
 40
0
 40
0
 40
0
 40
1
 40
1
 40
1
 40
1
 10
269.500000
 20
167.999520
 30
0.0
 10
269.500000
 20
168.662561
 30
0.0
 10
269.763392
 20
169.298446
 30
0.0
 10
270.232233
 20
169.767287
 30
0.0
  0
SPLINE
  5
2f4
100
AcDbEntity
  8
Ebene_1
 62
7
100
AcDbSpline
 70
8
 71
3
 72
8
 73
4
 74
0
 40
0
 40
0
 40
0
 40
0
 40
1
 40
1
 40
1
 40
1
 10
270.232233
 20
169.767287
 30
0.0
 10
270.701074
 20
170.236128
 30
0.0
 10
271.336959
 20
170.499520
 30
0.0
 10
272.000000
 20
170.499520
 30
0.0
  0
SPLINE
  5
2f5
100
AcDbEntity
  8
Ebene_1
 62
7
100
AcDbSpline
 70
8
 71
3
 72
8
 73
4
 74
0
 40
0
 40
0
 40
0
 40
0
 40
1
 40
1
 40
1
 40
1
 10
272.000000
 20
170.499520
 30
0.0
 10
272.663041
 20
170.499520
 30
0.0
 10
273.298926
 20
170.236128
 30
0.0
 10
273.767767
 20
169.767287
 30
0.0
  0
SPLINE
  5
2f6
100
AcDbEntity
  8
Ebene_1
 62
7
100
AcDbSpline
 70
8
 71
3
 72
8
 73
4
 74
0
 40
0
 40
0
 40
0
 40
0
 40
1
 40
1
 40
1
 40
1
 10
273.767767
 20
169.767287
 30
0.0
 10
274.236608
 20
169.298446
 30
0.0
 10
274.500000
 20
168.662561
 30
0.0
 10
274.500000
 20
167.999520
 30
0.0
  0
LWPOLYLINE
  5
2f7
100
AcDbEntity
  8
Ebene_1
 62
7
100
AcDbPolyline
 90
2
 70
0
 10
37.978739
 20
127.342288
 30
0.0
 10
39.364706
 20
128.845555
 30
0.0
  0
ENDSEC
  0
SECTION
  2
OBJECTS
  0
DICTIONARY
  5
C
330
0
100
AcDbDictionary
  3
ACAD_GROUP
350
D
  3
ACAD_MLINESTYLE
350
17
  0
DICTIONARY
  5
D
330
C
100
AcDbDictionary
  0
DICTIONARY
  5
1A
330
C
100
AcDbDictionary
  0
DICTIONARY
  5
17
330
C
100
AcDbDictionary
  3
STANDARD
350
18
  0
DICTIONARY
  5
19
330
C
100
AcDbDictionary
  0
ENDSEC
  0
EOF
