<?xml version="1.0" encoding="UTF-8" standalone="no"?>
<svg
   xmlns:dc="http://purl.org/dc/elements/1.1/"
   xmlns:cc="http://creativecommons.org/ns#"
   xmlns:rdf="http://www.w3.org/1999/02/22-rdf-syntax-ns#"
   xmlns:svg="http://www.w3.org/2000/svg"
   xmlns="http://www.w3.org/2000/svg"
   xmlns:sodipodi="http://sodipodi.sourceforge.net/DTD/sodipodi-0.dtd"
   xmlns:inkscape="http://www.inkscape.org/namespaces/inkscape"
   sodipodi:docname="SchildNeu1.svg"
   inkscape:version="1.0 (4035a4fb49, 2020-05-01)"
   id="svg4506"
   version="1.1"
   viewBox="0 0 300 380"
   height="380mm"
   width="300mm">
  <defs
     id="defs4500" />
  <sodipodi:namedview
     inkscape:window-maximized="1"
     inkscape:window-y="-8"
     inkscape:window-x="1912"
     inkscape:window-height="1377"
     inkscape:window-width="3440"
     showgrid="true"
     inkscape:document-rotation="0"
     inkscape:current-layer="layer1"
     inkscape:document-units="mm"
     inkscape:cy="840.64173"
     inkscape:cx="899.90518"
     inkscape:zoom="0.49497475"
     inkscape:pageshadow="2"
     inkscape:pageopacity="0.0"
     borderopacity="1.0"
     bordercolor="#666666"
     pagecolor="#ffffff"
     id="base">
    <inkscape:grid
       id="grid5728"
       type="xygrid" />
  </sodipodi:namedview>
  <metadata
     id="metadata4503">
    <rdf:RDF>
      <cc:Work
         rdf:about="">
        <dc:format>image/svg+xml</dc:format>
        <dc:type
           rdf:resource="http://purl.org/dc/dcmitype/StillImage" />
        <dc:title></dc:title>
      </cc:Work>
    </rdf:RDF>
  </metadata>
  <g
     id="layer1"
     inkscape:groupmode="layer"
     inkscape:label="Ebene 1">
    <path
       id="rect2189"
       style="fill:none;stroke:#000000;stroke-width:0.394277"
       d="m 0,-1e-5 H 300.00001 V 380 H 0 Z" />
    <path
       id="rect2020-3-2-0-0-6"
       style="fill:#d8dcdd;fill-opacity:1;stroke:#000000;stroke-width:0.539028;stroke-miterlimit:4;stroke-dasharray:none;stroke-opacity:1"
       d="m 30,9.99999 h 239.71064 c 11.11295,0 20.05949,8.96078 20.05949,20.091419 V 164.70396 c 0,11.13064 -8.94654,20.09141 -20.05949,20.09141 H 30 c -11.11294,0 -20.05947,-8.96077 -20.05947,-20.09141 V 30.091409 C 9.94053,18.96077 18.88706,9.99999 30,9.99999 Z" />
    <path
       style="color:#000000;font-style:normal;font-variant:normal;font-weight:normal;font-stretch:normal;font-size:medium;line-height:normal;font-family:sans-serif;font-variant-ligatures:normal;font-variant-position:normal;font-variant-caps:normal;font-variant-numeric:normal;font-variant-alternates:normal;font-variant-east-asian:normal;font-feature-settings:normal;font-variation-settings:normal;text-indent:0;text-align:start;text-decoration:none;text-decoration-line:none;text-decoration-style:solid;text-decoration-color:#000000;letter-spacing:normal;word-spacing:normal;text-transform:none;writing-mode:lr-tb;direction:ltr;text-orientation:mixed;dominant-baseline:auto;baseline-shift:baseline;text-anchor:start;white-space:normal;shape-padding:0;shape-margin:0;inline-size:0;clip-rule:nonzero;display:inline;overflow:visible;visibility:visible;isolation:auto;mix-blend-mode:normal;color-interpolation:sRGB;color-interpolation-filters:linearRGB;solid-color:#000000;solid-opacity:1;vector-effect:none;fill:#000000;fill-opacity:1;fill-rule:nonzero;stroke:none;stroke-width:4.10946;stroke-linecap:butt;stroke-linejoin:miter;stroke-miterlimit:4;stroke-dasharray:none;stroke-dashoffset:0;stroke-opacity:1;color-rendering:auto;image-rendering:auto;shape-rendering:auto;text-rendering:auto;enable-background:accumulate;stop-color:#000000"
       d="m 81.27764,30.534171 c -4.4269,0.02011 -8.84121,0.242858 -13.23326,0.545098 -4.86544,0.33484 -9.53279,1.45891 -14.05589,2.31373 -1.52,0.28726 -2.93193,1.03228 -3.80132,2.261 -0.8694,1.22871 -1.12104,2.72174 -1.05192,4.2564 0.32927,7.31025 0.66069,14.60433 0.7525,21.8744 l 0.0254,2.02874 h 2.02923 c 1.65333,0 2.34801,0.29212 2.53356,0.4506 0.18459,0.15766 0.40718,0.51015 0.46503,1.81786 0.1256,26.63422 0.0635,53.274861 0.0313,79.920781 h -3.30148 l -0.0696,0.004 c -1.81328,0.12361 -3.20041,0.215 -4.39567,0.42673 -1.19526,0.21173 -2.34914,0.56056 -3.23533,1.50702 -0.88619,0.94644 -1.14166,2.18318 -1.19068,3.33679 -0.049,1.15359 0.0637,2.41355 0.19547,4.04603 l 0.15219,1.88945 h 72.73991 l 0.11439,-1.93372 c 0.17285,-2.93055 0.53072,-4.80184 -0.70028,-6.68603 -0.61549,-0.94208 -1.60948,-1.52746 -2.5808,-1.85615 -0.97131,-0.32867 -2.02237,-0.50556 -3.34971,-0.71071 l -0.15617,-0.0238 h -3.10155 -0.0984 -1.14343 c -0.0217,-0.35615 -0.0645,-0.77906 -0.0647,-1.10463 -0.01,-25.79933 0.006,-51.600851 -0.0303,-77.404141 0.0978,-2.08205 0.49362,-2.87754 0.78235,-3.1488 0.28994,-0.27237 1.01428,-0.53704 2.77278,-0.53168 l 2.04565,0.006 0.0154,-2.04612 c 0.0494,-6.68782 0.1,-13.37583 0.1482,-20.06451 0.0199,-2.75444 0.21344,-4.62303 -1.11358,-6.35129 -0.66353,-0.86415 -1.59493,-1.37934 -2.55396,-1.73283 -0.95904,-0.35348 -2.03109,-0.60329 -3.39897,-0.91464 -7.38265,-1.68041 -14.798,-2.210117 -22.17628,-2.176467 z m 0.0184,4.109188 c 7.16869,-0.0327 14.26178,0.48437 21.24574,2.074 1.33954,0.30489 2.30954,0.55011 2.88966,0.76393 0.58011,0.21383 0.68453,0.33823 0.71619,0.3795 0.0634,0.0825 0.28339,1.08803 0.26361,3.81872 -0.0437,6.05281 -0.0898,12.10608 -0.13479,18.15963 -1.32934,0.17533 -2.55412,0.57384 -3.55165,1.51096 -1.49396,1.40349 -1.96051,3.44406 -2.07599,5.97928 l -0.002,0.0483 v 0.0483 c 0.0369,25.82232 0.0204,51.646971 0.0303,77.473791 v 5.3e-4 c 5.3e-4,1.19935 0.12503,2.28561 0.18453,3.28009 l 0.11539,1.93176 h 5.01738 0.0984 2.74742 c 1.1833,0.1864 2.07684,0.36068 2.54248,0.51824 0.48715,0.16484 0.45661,0.20864 0.45808,0.21088 0.002,0.003 0.0632,0.90025 0.0662,2.26299 H 46.9718 c -0.0289,-0.53815 -0.10066,-1.31929 -0.0865,-1.65173 0.0303,-0.71273 0.13012,-0.75142 0.0846,-0.70277 -0.0456,0.0487 0.12718,-0.12289 0.95245,-0.26906 0.7673,-0.13592 2.06412,-0.23445 3.68046,-0.34667 v 0.0278 l 2.0546,5.3e-4 c 1.13857,2.5e-4 2.0673,0 3.03588,0 h 1.23992 l 0.57793,-1.09668 c 0.0878,-0.1666 0.13157,-0.2352 0.21089,-0.37153 0.0793,-0.13632 0.35859,-0.50219 0.35859,-1.23046 0.0316,-27.14925 0.0986,-54.304211 -0.0298,-81.464611 v -0.0388 l -0.002,-0.0388 c -0.0778,-1.82762 -0.52361,-3.60368 -1.9034,-4.7821 -0.90438,-0.7724 -1.98867,-1.12692 -3.19804,-1.29464 -0.12112,-6.72612 -0.40574,-13.43579 -0.70675,-20.11871 -0.0437,-0.97032 0.1329,-1.46034 0.3014,-1.69849 0.1685,-0.23814 0.40388,-0.44407 1.20958,-0.59633 4.6529,-0.87934 9.16763,-1.94874 13.57495,-2.25204 4.34175,-0.29879 8.66838,-0.51606 12.96966,-0.53566 z"
       id="path38358-3-7-5-9" />
    <g
       transform="matrix(0.25464839,0,0,0.25464839,14.46079,32.332629)"
       id="g38360-4-2-0-1">
      <path
         transform="matrix(1.0674449,0,0,1.0674449,-47.613201,-881.95184)"
         d="m 286.30273,910.31836 c -12.50741,0.002 -25.01471,0.0525 -37.52148,0.13281 -19.70512,0.12673 -28.102,8.04451 -28.18359,26.6211 -0.14367,32.4217 -0.0397,64.84293 -0.0312,97.26363 0,31.5085 8e-5,63.015 0.002,94.5235 0,0.9132 0.005,1.8299 0.0391,2.7422 1.25959,34.0547 29.82034,60.5161 65.22656,60.4375 35.555,-0.079 64.46932,-26.4818 64.73633,-60.6602 0.51158,-65.2962 0.2861,-130.5974 0.12305,-195.89648 -0.0418,-16.88172 -8.77929,-24.85014 -26.86914,-25.00976 -12.50626,-0.11032 -25.01409,-0.15627 -37.52149,-0.1543 z m -33.89843,15.5332 c 22.10705,0.46199 44.23798,0.4564 66.3457,0.002 6.038,-0.12407 9.95162,1.16602 12.36719,3.83593 2.41555,2.66991 3.40142,6.82535 3.32812,12.58985 -0.39261,30.95618 -0.13289,61.91746 -0.13476,92.86906 -0.002,30.0716 0.15449,60.1398 -0.0469,90.2051 -0.19713,29.4438 -20.97917,51.0047 -48.68164,51 -27.71301,0 -48.56773,-21.5596 -48.65234,-50.9961 -0.17425,-61.0219 0.0991,-122.0461 -0.18946,-183.0722 -0.0273,-5.76182 0.94762,-9.92378 3.3418,-12.59571 2.39418,-2.67193 6.27357,-3.96426 12.32227,-3.83789 z"
         style="color:#000000;font-style:normal;font-variant:normal;font-weight:normal;font-stretch:normal;font-size:medium;line-height:normal;font-family:sans-serif;font-variant-ligatures:normal;font-variant-position:normal;font-variant-caps:normal;font-variant-numeric:normal;font-variant-alternates:normal;font-variant-east-asian:normal;font-feature-settings:normal;font-variation-settings:normal;text-indent:0;text-align:start;text-decoration:none;text-decoration-line:none;text-decoration-style:solid;text-decoration-color:#000000;letter-spacing:normal;word-spacing:normal;text-transform:none;writing-mode:lr-tb;direction:ltr;text-orientation:mixed;dominant-baseline:auto;baseline-shift:baseline;text-anchor:start;white-space:normal;shape-padding:0;shape-margin:0;inline-size:0;clip-rule:nonzero;display:inline;overflow:visible;visibility:visible;isolation:auto;mix-blend-mode:normal;color-interpolation:sRGB;color-interpolation-filters:linearRGB;solid-color:#000000;solid-opacity:1;vector-effect:none;fill:#cf0000;fill-opacity:1;fill-rule:nonzero;stroke:none;stroke-width:0.992894;stroke-linecap:butt;stroke-linejoin:miter;stroke-miterlimit:4;stroke-dasharray:none;stroke-dashoffset:0;stroke-opacity:1;color-rendering:auto;image-rendering:auto;shape-rendering:auto;text-rendering:auto;enable-background:accumulate;stop-color:#000000;stop-opacity:1"
         id="path38362-5-2-8-5" />
    </g>
    <g
       style="fill:#000000;fill-opacity:1"
       transform="matrix(0.25464839,0,0,0.25464839,14.46079,32.332629)"
       id="g38366-9-4-1-4">
      <path
         sodipodi:nodetypes="ccccccccc"
         style="color:#000000;font-style:normal;font-variant:normal;font-weight:normal;font-stretch:normal;font-size:medium;line-height:normal;font-family:sans-serif;font-variant-ligatures:normal;font-variant-position:normal;font-variant-caps:normal;font-variant-numeric:normal;font-variant-alternates:normal;font-variant-east-asian:normal;font-feature-settings:normal;font-variation-settings:normal;text-indent:0;text-align:start;text-decoration:none;text-decoration-line:none;text-decoration-style:solid;text-decoration-color:#000000;letter-spacing:normal;word-spacing:normal;text-transform:none;writing-mode:lr-tb;direction:ltr;text-orientation:mixed;dominant-baseline:auto;baseline-shift:baseline;text-anchor:start;white-space:normal;shape-padding:0;shape-margin:0;inline-size:0;clip-rule:nonzero;display:inline;overflow:visible;visibility:visible;isolation:auto;mix-blend-mode:normal;color-interpolation:sRGB;color-interpolation-filters:linearRGB;solid-color:#000000;solid-opacity:1;vector-effect:none;fill:#000000;fill-opacity:1;fill-rule:nonzero;stroke:none;stroke-width:1;stroke-linecap:butt;stroke-linejoin:miter;stroke-miterlimit:4;stroke-dasharray:none;stroke-dashoffset:0;stroke-opacity:1;color-rendering:auto;image-rendering:auto;shape-rendering:auto;text-rendering:auto;enable-background:accumulate;stop-color:#000000;stop-opacity:1"
         d="m 230.76299,332.41384 c 4.03443,0 4.03443,0 8.06887,0 19.618,-43.96 36.64514,-89.80384 57.28014,-136.03984 -9.031,2.746 -15.379,4.677 -23.178,7.049 4.066,-25.05 10.56211,-49.63203 14.31111,-72.73103 -4.03444,0 -4.03444,0 -8.06888,0 -18.819,37.732 -35.25223,76.24903 -55.16723,116.17903 10.312,-2.083 18.189,-3.674 27.649,-5.585 -6.391,31 -15.01001,62.57984 -20.89501,91.12784 z"
         id="path38368-0-6-2-5" />
    </g>
    <g
       id="g38242-7-1-2-3-1"
       transform="matrix(0.25464839,0,0,0.25464839,-69.45669,40.147649)">
      <path
         style="fill:#000000;fill-opacity:1;stroke-width:1.03191"
         fill="#76c15c"
         d="m 428.4953,490.5236 c -1.19901,-20.334 -0.10756,-21.494 20.02733,-21.499 91.01324,-0.021 182.02647,-0.023 273.0397,10e-4 20.07099,0.005 20.88238,0.927 19.46403,21.497 -103.78479,10e-4 -207.63138,10e-4 -312.53106,10e-4 z"
         id="path38238-1-7-7-6-5-5" />
    </g>
    <path
       d="m 66.032688,44.038506 h 26.711441 c 1.138318,0 2.054726,0.916407 2.054726,2.054725 v 1.027364 c 0,1.138318 -0.916408,2.054726 -2.054726,2.054726 H 66.032688 c -1.138318,0 -2.054726,-0.916408 -2.054726,-2.054726 v -1.027364 c 0,-1.138318 0.916408,-2.054725 2.054726,-2.054725 z"
       style="fill:#000000;fill-opacity:1;stroke:none;stroke-width:0.290581;stroke-miterlimit:4;stroke-dasharray:none;stroke-opacity:1"
       id="rect38348-0-1-9-4" />
    <g
       transform="translate(-0.34105,195.05869)"
       id="g40775-6-4">
      <path
         d="m 29.999996,-167.5 a 2.5,2.5 0 0 1 -2.5,2.5 2.5,2.5 0 0 1 -2.5,-2.5 2.5,2.5 0 0 1 2.5,-2.5 2.5,2.5 0 0 1 2.5,2.5"
         style="fill:#000000;fill-opacity:1;stroke:none;stroke-width:1.5;stroke-miterlimit:4;stroke-dasharray:none;stroke-opacity:1"
         id="path38845-5-6" />
      <path
         d="m 29.999996,-27.499996 a 2.5,2.5 0 0 1 -2.5,2.5 2.5,2.5 0 0 1 -2.5,-2.5 2.5,2.5 0 0 1 2.5,-2.5 2.5,2.5 0 0 1 2.5,2.5"
         style="fill:#000000;fill-opacity:1;stroke:none;stroke-width:1.5;stroke-miterlimit:4;stroke-dasharray:none;stroke-opacity:1"
         id="path38847-0-5" />
      <path
         d="m 275,-27.499996 a 2.5,2.5 0 0 1 -2.5,2.5 2.5,2.5 0 0 1 -2.5,-2.5 2.5,2.5 0 0 1 2.5,-2.5 2.5,2.5 0 0 1 2.5,2.5"
         style="fill:#000000;fill-opacity:1;stroke:none;stroke-width:1.5;stroke-miterlimit:4;stroke-dasharray:none;stroke-opacity:1"
         id="path38849-7-1" />
      <path
         d="m 275,-167.5 a 2.5,2.5 0 0 1 -2.5,2.5 2.5,2.5 0 0 1 -2.5,-2.5 2.5,2.5 0 0 1 2.5,-2.5 2.5,2.5 0 0 1 2.5,2.5"
         style="fill:#000000;fill-opacity:1;stroke:none;stroke-width:1.5;stroke-miterlimit:4;stroke-dasharray:none;stroke-opacity:1"
         id="path38851-7-3" />
    </g>
    <g
       transform="translate(-0.34105,201.73645)"
       id="g4162">
      <g
         style="fill:#ac0000;fill-opacity:1"
         transform="matrix(1.0257587,0,0,1.0207501,1.4535597,-157.54323)"
         id="g38690-4-6-7">
        <path
           style="color:#000000;font-style:normal;font-variant:normal;font-weight:normal;font-stretch:normal;font-size:medium;line-height:1.25;font-family:TESLA;-inkscape-font-specification:TESLA;font-variant-ligatures:normal;font-variant-position:normal;font-variant-caps:normal;font-variant-numeric:normal;font-variant-alternates:normal;font-variant-east-asian:normal;font-feature-settings:normal;font-variation-settings:normal;text-indent:0;text-align:start;text-decoration:none;text-decoration-line:none;text-decoration-style:solid;text-decoration-color:#000000;letter-spacing:normal;word-spacing:normal;text-transform:none;writing-mode:lr-tb;direction:ltr;text-orientation:mixed;dominant-baseline:auto;baseline-shift:baseline;text-anchor:start;white-space:normal;shape-padding:0;shape-margin:0;inline-size:0;clip-rule:nonzero;display:inline;overflow:visible;visibility:visible;isolation:auto;mix-blend-mode:normal;color-interpolation:sRGB;color-interpolation-filters:linearRGB;solid-color:#000000;solid-opacity:1;vector-effect:none;fill:#ac0000;fill-opacity:1;fill-rule:nonzero;stroke:none;stroke-width:1.5;stroke-linecap:butt;stroke-linejoin:miter;stroke-miterlimit:4;stroke-dasharray:none;stroke-dashoffset:0;stroke-opacity:1;color-rendering:auto;image-rendering:auto;shape-rendering:auto;text-rendering:auto;enable-background:accumulate;stop-color:#000000"
           d="m 122.48633,28.117168 v 16.8125 h 25.52148 v 3.605468 H 128.3418 c -1.58824,0 -3.02665,0.600874 -4.16016,1.734375 -1.11025,1.11025 -1.69531,2.535616 -1.69531,4.119141 v 0.75 h 0.75 31.37695 v -16.8125 H 129.0918 v -3.603516 h 19.66601 c 1.5603,0 2.98055,-0.586527 4.11328,-1.689453 1.14089,-1.110861 1.74219,-2.554508 1.74219,-4.166015 v -0.75 z"
           id="path38618-0-1-7" />
        <path
           style="color:#000000;font-style:normal;font-variant:normal;font-weight:normal;font-stretch:normal;font-size:medium;line-height:1.25;font-family:TESLA;-inkscape-font-specification:TESLA;font-variant-ligatures:normal;font-variant-position:normal;font-variant-caps:normal;font-variant-numeric:normal;font-variant-alternates:normal;font-variant-east-asian:normal;font-feature-settings:normal;font-variation-settings:normal;text-indent:0;text-align:start;text-decoration:none;text-decoration-line:none;text-decoration-style:solid;text-decoration-color:#000000;letter-spacing:normal;word-spacing:normal;text-transform:none;writing-mode:lr-tb;direction:ltr;text-orientation:mixed;dominant-baseline:auto;baseline-shift:baseline;text-anchor:start;white-space:normal;shape-padding:0;shape-margin:0;inline-size:0;clip-rule:nonzero;display:inline;overflow:visible;visibility:visible;isolation:auto;mix-blend-mode:normal;color-interpolation:sRGB;color-interpolation-filters:linearRGB;solid-color:#000000;solid-opacity:1;vector-effect:none;fill:#ac0000;fill-opacity:1;fill-rule:nonzero;stroke:none;stroke-width:1.5;stroke-linecap:butt;stroke-linejoin:miter;stroke-miterlimit:4;stroke-dasharray:none;stroke-dashoffset:0;stroke-opacity:1;color-rendering:auto;image-rendering:auto;shape-rendering:auto;text-rendering:auto;enable-background:accumulate;stop-color:#000000"
           d="m 158.2168,48.535136 v 0.75 c 0,1.583524 0.58228,3.017253 1.6875,4.152344 l 0.004,0.002 0.004,0.0039 c 1.11264,1.112638 2.55133,1.695313 4.1582,1.695313 h 20.41797 c 1.5603,0 2.97859,-0.584575 4.11133,-1.6875 1.14088,-1.110862 1.74219,-2.55451 1.74219,-4.166016 v -0.75 z"
           id="path38670-3-1-6" />
        <path
           style="color:#000000;font-style:normal;font-variant:normal;font-weight:normal;font-stretch:normal;font-size:medium;line-height:1.25;font-family:TESLA;-inkscape-font-specification:TESLA;font-variant-ligatures:normal;font-variant-position:normal;font-variant-caps:normal;font-variant-numeric:normal;font-variant-alternates:normal;font-variant-east-asian:normal;font-feature-settings:normal;font-variation-settings:normal;text-indent:0;text-align:start;text-decoration:none;text-decoration-line:none;text-decoration-style:solid;text-decoration-color:#000000;letter-spacing:normal;word-spacing:normal;text-transform:none;writing-mode:lr-tb;direction:ltr;text-orientation:mixed;dominant-baseline:auto;baseline-shift:baseline;text-anchor:start;white-space:normal;shape-padding:0;shape-margin:0;inline-size:0;clip-rule:nonzero;display:inline;overflow:visible;visibility:visible;isolation:auto;mix-blend-mode:normal;color-interpolation:sRGB;color-interpolation-filters:linearRGB;solid-color:#000000;solid-opacity:1;vector-effect:none;fill:#ac0000;fill-opacity:1;fill-rule:nonzero;stroke:none;stroke-width:1.5;stroke-linecap:butt;stroke-linejoin:miter;stroke-miterlimit:4;stroke-dasharray:none;stroke-dashoffset:0;stroke-opacity:1;color-rendering:auto;image-rendering:auto;shape-rendering:auto;text-rendering:auto;enable-background:accumulate;stop-color:#000000"
           d="m 158.2168,38.326152 v 0.75 c 0,1.583523 0.58228,3.017253 1.6875,4.152344 l 0.004,0.0039 0.004,0.002 c 1.11264,1.112638 2.55133,1.695313 4.1582,1.695313 h 20.41797 c 1.5603,0 2.97859,-0.584575 4.11133,-1.6875 1.14088,-1.110862 1.74219,-2.55451 1.74219,-4.166016 v -0.75 z"
           id="path38666-1-0-5" />
        <path
           style="color:#000000;font-style:normal;font-variant:normal;font-weight:normal;font-stretch:normal;font-size:medium;line-height:1.25;font-family:TESLA;-inkscape-font-specification:TESLA;font-variant-ligatures:normal;font-variant-position:normal;font-variant-caps:normal;font-variant-numeric:normal;font-variant-alternates:normal;font-variant-east-asian:normal;font-feature-settings:normal;font-variation-settings:normal;text-indent:0;text-align:start;text-decoration:none;text-decoration-line:none;text-decoration-style:solid;text-decoration-color:#000000;letter-spacing:normal;word-spacing:normal;text-transform:none;writing-mode:lr-tb;direction:ltr;text-orientation:mixed;dominant-baseline:auto;baseline-shift:baseline;text-anchor:start;white-space:normal;shape-padding:0;shape-margin:0;inline-size:0;clip-rule:nonzero;display:inline;overflow:visible;visibility:visible;isolation:auto;mix-blend-mode:normal;color-interpolation:sRGB;color-interpolation-filters:linearRGB;solid-color:#000000;solid-opacity:1;vector-effect:none;fill:#ac0000;fill-opacity:1;fill-rule:nonzero;stroke:none;stroke-width:1.5;stroke-linecap:butt;stroke-linejoin:miter;stroke-miterlimit:4;stroke-dasharray:none;stroke-dashoffset:0;stroke-opacity:1;color-rendering:auto;image-rendering:auto;shape-rendering:auto;text-rendering:auto;enable-background:accumulate;stop-color:#000000"
           d="m 158.2168,28.117168 v 0.75 c 0,1.583523 0.58228,3.017253 1.6875,4.152343 l 0.004,0.0039 0.004,0.0039 c 1.11264,1.112637 2.55133,1.695312 4.1582,1.695312 h 20.41797 c 1.5603,0 2.97859,-0.586528 4.11133,-1.689453 1.14088,-1.110861 1.74219,-2.55451 1.74219,-4.166015 v -0.75 z"
           id="path38624-0-7-5" />
        <path
           style="color:#000000;font-style:normal;font-variant:normal;font-weight:normal;font-stretch:normal;font-size:medium;line-height:1.25;font-family:TESLA;-inkscape-font-specification:TESLA;font-variant-ligatures:normal;font-variant-position:normal;font-variant-caps:normal;font-variant-numeric:normal;font-variant-alternates:normal;font-variant-east-asian:normal;font-feature-settings:normal;font-variation-settings:normal;text-indent:0;text-align:start;text-decoration:none;text-decoration-line:none;text-decoration-style:solid;text-decoration-color:#000000;letter-spacing:normal;word-spacing:normal;text-transform:none;writing-mode:lr-tb;direction:ltr;text-orientation:mixed;dominant-baseline:auto;baseline-shift:baseline;text-anchor:start;white-space:normal;shape-padding:0;shape-margin:0;inline-size:0;clip-rule:nonzero;display:inline;overflow:visible;visibility:visible;isolation:auto;mix-blend-mode:normal;color-interpolation:sRGB;color-interpolation-filters:linearRGB;solid-color:#000000;solid-opacity:1;vector-effect:none;fill:#ac0000;fill-opacity:1;fill-rule:nonzero;stroke:none;stroke-width:1.5;stroke-linecap:butt;stroke-linejoin:miter;stroke-miterlimit:4;stroke-dasharray:none;stroke-dashoffset:0;stroke-opacity:1;color-rendering:auto;image-rendering:auto;shape-rendering:auto;text-rendering:auto;enable-background:accumulate;stop-color:#000000"
           d="m 193.94727,28.117168 v 6.166015 l 5.32421,5.324219 2.02149,2.021484 -7.3457,7.345703 v 6.164063 h 0.75 5.85351 v -2.990234 l 9.45899,-9.458985 9.45898,9.458985 v 2.990234 h 0.75 5.85352 v -6.164063 l -7.34961,-7.349609 1.76953,-1.798828 h 0.0371 l 5.54297,-5.542969 v -6.166015 h -6.60352 v 2.992187 l -9.45898,9.458984 -9.45899,-9.458984 v -2.992187 z"
           id="path38630-7-9-0" />
        <path
           style="color:#000000;font-style:normal;font-variant:normal;font-weight:normal;font-stretch:normal;font-size:medium;line-height:1.25;font-family:TESLA;-inkscape-font-specification:TESLA;font-variant-ligatures:normal;font-variant-position:normal;font-variant-caps:normal;font-variant-numeric:normal;font-variant-alternates:normal;font-variant-east-asian:normal;font-feature-settings:normal;font-variation-settings:normal;text-indent:0;text-align:start;text-decoration:none;text-decoration-line:none;text-decoration-style:solid;text-decoration-color:#000000;letter-spacing:normal;word-spacing:normal;text-transform:none;writing-mode:lr-tb;direction:ltr;text-orientation:mixed;dominant-baseline:auto;baseline-shift:baseline;text-anchor:start;white-space:normal;shape-padding:0;shape-margin:0;inline-size:0;clip-rule:nonzero;display:inline;overflow:visible;visibility:visible;isolation:auto;mix-blend-mode:normal;color-interpolation:sRGB;color-interpolation-filters:linearRGB;solid-color:#000000;solid-opacity:1;vector-effect:none;fill:#ac0000;fill-opacity:1;fill-rule:nonzero;stroke:none;stroke-width:1.5;stroke-linecap:butt;stroke-linejoin:miter;stroke-miterlimit:4;stroke-dasharray:none;stroke-dashoffset:0;stroke-opacity:1;color-rendering:auto;image-rendering:auto;shape-rendering:auto;text-rendering:auto;enable-background:accumulate;stop-color:#000000"
           d="m 229.67773,28.117168 v 6.166015 l 12.75977,12.759766 v 8.095703 h 0.75 5.85352 v -8.095703 l 12.76171,-12.759766 v -6.166015 h -6.60351 v 2.992187 l -9.45899,9.458984 -9.45898,-9.458984 v -2.992187 z"
           id="path38636-6-1-7" />
      </g>
      <g
         style="font-style:normal;font-variant:normal;font-weight:normal;font-stretch:normal;font-size:32.4021px;line-height:1;font-family:TESLA;-inkscape-font-specification:TESLA;text-align:center;text-anchor:middle;stroke-width:0.810057"
         id="text38386-4-2"
         aria-label="CARS ONLY!">
        <path
           id="path5735"
           style="font-style:normal;font-variant:normal;font-weight:normal;font-stretch:normal;font-size:23.106px;font-family:'Gotham Black';-inkscape-font-specification:'Gotham Black, ';text-align:center;text-anchor:middle;stroke-width:0.810057"
           d="m 135.1418,-79.834887 c 3.58143,0 5.63786,-1.548102 7.16286,-3.650748 l -3.37348,-2.403024 c -0.97045,1.178406 -1.96401,1.96401 -3.65075,1.96401 -2.26438,0 -3.8587,-1.894692 -3.8587,-4.320822 v -0.04621 c 0,-2.356812 1.59432,-4.27461 3.8587,-4.27461 1.54811,0 2.61098,0.739392 3.53522,1.894692 l 3.37348,-2.610978 c -1.43257,-1.987117 -3.55833,-3.373477 -6.86248,-3.373477 -4.89848,0 -8.52612,3.696961 -8.52612,8.410585 v 0.04621 c 0,4.829154 3.72007,8.364372 8.34127,8.364372 z" />
        <path
           id="path5737"
           style="font-style:normal;font-variant:normal;font-weight:normal;font-stretch:normal;font-size:23.106px;font-family:'Gotham Black';-inkscape-font-specification:'Gotham Black, ';text-align:center;text-anchor:middle;stroke-width:0.810057"
           d="m 142.80396,-80.158371 h 4.71363 l 1.1553,-2.88825 h 6.23862 l 1.1784,2.88825 h 4.80605 l -6.88559,-16.289731 h -4.32082 z m 7.18597,-6.377256 1.82537,-4.598094 1.80227,4.598094 z" />
        <path
           id="path5739"
           style="font-style:normal;font-variant:normal;font-weight:normal;font-stretch:normal;font-size:23.106px;font-family:'Gotham Black';-inkscape-font-specification:'Gotham Black, ';text-align:center;text-anchor:middle;stroke-width:0.810057"
           d="m 162.46537,-80.158371 h 4.48256 v -4.898472 h 1.9178 0.0462 l 3.25795,4.898472 h 5.17574 l -3.8587,-5.637864 c 2.01022,-0.854922 3.32726,-2.495448 3.32726,-4.96779 v -0.04621 c 0,-1.594314 -0.48522,-2.842038 -1.43257,-3.766279 -1.08598,-1.109088 -2.79583,-1.756056 -5.26817,-1.756056 h -7.64808 z m 4.48256,-8.410584 v -3.881808 h 2.93446 c 1.50189,0 2.42613,0.646968 2.42613,1.917798 v 0.04621 c 0,1.178406 -0.87803,1.917798 -2.40302,1.917798 z" />
        <path
           id="path5741"
           style="font-style:normal;font-variant:normal;font-weight:normal;font-stretch:normal;font-size:23.106px;font-family:'Gotham Black';-inkscape-font-specification:'Gotham Black, ';text-align:center;text-anchor:middle;stroke-width:0.810057"
           d="m 185.42695,-79.881099 c 3.92802,0 6.539,-1.96401 6.539,-5.268168 v -0.04621 c 0,-3.026886 -2.3106,-4.228398 -6.03067,-5.037108 -2.24128,-0.508332 -2.79582,-0.831816 -2.79582,-1.571208 v -0.04621 c 0,-0.57765 0.53144,-1.03977 1.61742,-1.03977 1.43257,0 3.04999,0.554544 4.52877,1.594314 l 2.24129,-3.165523 c -1.75606,-1.409466 -3.90492,-2.148858 -6.65453,-2.148858 -3.88181,0 -6.26173,2.171964 -6.26173,5.175745 v 0.04621 c 0,3.327264 2.65719,4.297716 6.09999,5.08332 2.19507,0.508332 2.7265,0.878028 2.7265,1.548102 v 0.04621 c 0,0.69318 -0.64696,1.109088 -1.84848,1.109088 -1.87158,0 -3.65074,-0.670074 -5.24506,-1.940904 l -2.49545,2.980674 c 1.98712,1.779162 4.71363,2.680296 7.57877,2.680296 z" />
        <path
           id="path5743"
           style="font-style:normal;font-variant:normal;font-weight:normal;font-stretch:normal;font-size:23.106px;font-family:'Gotham Black';-inkscape-font-specification:'Gotham Black, ';text-align:center;text-anchor:middle;stroke-width:0.810057"
           d="m 208.68748,-79.834887 c 4.99089,0 8.73406,-3.766278 8.73406,-8.410584 v -0.04621 c 0,-4.644306 -3.69696,-8.364373 -8.68785,-8.364373 -4.9909,0 -8.73407,3.766279 -8.73407,8.410585 v 0.04621 c 0,4.644306 3.69696,8.364372 8.68786,8.364372 z m 0.0462,-4.04355 c -2.44924,0 -4.13598,-2.033328 -4.13598,-4.367034 v -0.04621 c 0,-2.333706 1.64053,-4.320822 4.08977,-4.320822 2.47234,0 4.15908,2.033328 4.15908,4.367034 v 0.04621 c 0,2.333706 -1.64053,4.320822 -4.11287,4.320822 z" />
        <path
           id="path5745"
           style="font-style:normal;font-variant:normal;font-weight:normal;font-stretch:normal;font-size:23.106px;font-family:'Gotham Black';-inkscape-font-specification:'Gotham Black, ';text-align:center;text-anchor:middle;stroke-width:0.810057"
           d="m 219.73395,-80.158371 h 4.43635 v -8.872704 l 6.9087,8.872704 h 3.92802 v -16.174201 h -4.43636 v 8.549221 l -6.65452,-8.549221 h -4.18219 z" />
        <path
           id="path5747"
           style="font-style:normal;font-variant:normal;font-weight:normal;font-stretch:normal;font-size:23.106px;font-family:'Gotham Black';-inkscape-font-specification:'Gotham Black, ';text-align:center;text-anchor:middle;stroke-width:0.810057"
           d="m 237.87577,-80.158371 h 12.3155 v -3.92802 h -7.83293 v -12.246181 h -4.48257 z" />
        <path
           id="path5749"
           style="font-style:normal;font-variant:normal;font-weight:normal;font-stretch:normal;font-size:23.106px;font-family:'Gotham Black';-inkscape-font-specification:'Gotham Black, ';text-align:center;text-anchor:middle;stroke-width:0.810057"
           d="m 253.73516,-80.158371 h 4.50567 v -6.12309 l 6.14619,-10.051111 h -5.014 l -3.35037,5.892031 -3.32726,-5.892031 h -5.10643 l 6.1462,10.120429 z" />
        <path
           id="path5751"
           style="font-style:normal;font-variant:normal;font-weight:normal;font-stretch:normal;font-size:23.106px;font-family:'Gotham Black';-inkscape-font-specification:'Gotham Black, ';text-align:center;text-anchor:middle;stroke-width:0.810057"
           d="m 266.92074,-85.426539 h 2.3106 l 1.34015,-8.942023 v -1.96401 h -4.99089 v 1.96401 z m -1.13219,5.268168 h 4.57499 v -3.92802 h -4.57499 z" />
      </g>
    </g>
    <g
       id="g1275"
       transform="translate(-0.34105,200.05869)">
      <path
         id="path5025-2-4"
         style="fill:#f0f1f3;stroke:#000000;stroke-width:0.307001;stroke-miterlimit:4;stroke-dasharray:none"
         d="m 152.69638,-172.64585 a 2.5,2.5 0 0 1 -2.5,2.5 2.5,2.5 0 0 1 -2.5,-2.5 2.5,2.5 0 0 1 2.5,-2.5 2.5,2.5 0 0 1 2.5,2.5" />
      <path
         id="path5027-2-4"
         style="fill:#f0f1f3;stroke:#000000;stroke-width:0.306999;stroke-miterlimit:4;stroke-dasharray:none"
         d="m 152.69638,-32.470841 a 2.5,2.5 0 0 1 -2.5,2.5 2.5,2.5 0 0 1 -2.5,-2.5 2.5,2.5 0 0 1 2.5,-2.5 2.5,2.5 0 0 1 2.5,2.5" />
    </g>
    <g
       id="g4447"
       transform="translate(-597.99998,-1.08752)">
      <path
         id="rect2020-3-1"
         style="fill:#d8dcdd;fill-opacity:1;stroke:#000000;stroke-width:0.537001;stroke-miterlimit:4;stroke-dasharray:none;stroke-opacity:1"
         d="m 627.99999,196.08751 h 238.99999 c 11.08,0 20,8.92 20,20 v 134 c 0,11.08 -8.92,20 -20,20 H 627.99999 c -11.08,0 -20,-8.92 -20,-20 v -134 c 0,-11.08 8.92,-20 20,-20 z" />
      <path
         sodipodi:nodetypes="ccssccscccccssssscscsscssssssssssssssscssssssssssssss"
         transform="scale(0.26458333)"
         d="m 2416.5918,972.02148 -6.1406,8.33399 c -7.8662,10.67429 -12.6218,20.16263 -17.2071,34.33203 -4.8,14.8331 -6.1594,42.96 -2.8496,58.9648 4.7744,23.0863 14.2209,40.7433 31.4629,58.8086 34.0103,31.5001 76.3198,44.2743 120.0742,30.9316 19.9331,-6.4745 34.7507,-15.4049 48.6914,-29.3457 41.4145,-41.4144 46.5847,-106.892 12.1836,-154.30857 l -5.541,-7.63867 -90.3379,-0.0391 -42.6406,-0.0176 z m 121.1894,18.42969 c 3.8491,-0.0789 7.8501,1.22664 11.4336,4.37305 8.1477,7.15378 8.542,17.98738 0.9317,25.59768 -7.9026,7.9026 -22.3492,5.655 -27.4844,-4.2754 -6.6035,-12.7697 3.5724,-25.45861 15.1191,-25.69533 z m -61.3593,0.25781 c 4.9996,-0.0169 6.5559,0.7121 11,5.15625 4.4441,4.44417 5.1713,6.00037 5.1562,10.99997 -0.025,7.3915 -2.1753,11.6161 -7.8633,15.4493 -15.4216,10.3926 -34.1367,-8.3206 -23.7441,-23.74223 3.8331,-5.68797 8.0597,-7.83683 15.4512,-7.86329 z m -32.4903,46.70512 c 9.8946,0 20.6481,8.6376 23.3789,18.7793 2.7153,10.0836 -2.5184,21.6346 -11.9941,26.4687 -14.5168,7.4059 -30.3234,0 -34.7852,-16.3066 -3.6135,-13.2045 9.11,-28.9414 23.4004,-28.9414 z m 63.5625,0.059 c 2.9481,0.077 5.8255,0.882 8.8243,2.4199 10.0599,5.159 15.7972,15.1382 14.33,24.9219 -1.0689,7.1286 -7,15.4209 -13.0976,18.3144 -16.092,7.6361 -34.5938,-3.938 -34.5938,-21.6406 0,-10.1913 5.3526,-17.9211 15.2832,-22.0703 3.2868,-1.3733 6.3059,-2.0225 9.2539,-1.9453 z m 62.586,0.2461 c 4.4404,0.031 8.8095,1.2972 12.5176,3.8398 15.5843,10.686 14.1912,33.707 -2.5196,41.6367 -15.9285,7.5586 -34.1217,-3.9376 -34.1406,-21.5723 -0.01,-8.1352 2.2224,-13.2065 7.9121,-17.9941 4.6946,-3.9502 10.5214,-5.9507 16.2305,-5.9101 z m -31.4824,54.3613 c 5.7468,0 14.2039,4.213 18.3535,9.1445 9.832,11.6848 6.3864,29.2911 -7.0782,36.1602 -10.4628,5.3377 -25.1242,1.9486 -30.6816,-7.0918 -6.3951,-10.4033 -6.0238,-20.6583 1.0527,-29.0684 4.1497,-4.9315 12.6066,-9.1445 18.3536,-9.1445 z m -63.2325,0.1 c 3.3027,0.043 6.6118,0.9166 10.1368,2.623 17.7067,8.5718 17.9172,33.6315 0.3574,42.5899 -15.6847,8.0017 -34.569,-3.074 -34.5879,-20.2852 -0.012,-11.14 4.2999,-18.0922 13.9941,-22.5664 3.5009,-1.6157 6.797,-2.4039 10.0996,-2.3613 z"
         style="fill:#c00000;fill-opacity:1;stroke-width:1.33333"
         id="path3820" />
      <g
         style="font-style:normal;font-variant:normal;font-weight:normal;font-stretch:normal;font-size:31.3127px;line-height:1;font-family:TESLA;-inkscape-font-specification:TESLA;text-align:center;text-anchor:middle;stroke-width:0.782821"
         id="text38386-4-63"
         aria-label="ELECTRIC">
        <path
           id="path5754"
           style="font-style:normal;font-variant:normal;font-weight:normal;font-stretch:normal;font-size:22.3292px;font-family:'Gotham Black';-inkscape-font-specification:'Gotham Black, ';text-align:center;text-anchor:middle;stroke-width:0.782821"
           d="m 737.15264,264.33929 h 12.68299 v -3.68431 h -8.39578 v -2.47854 h 7.50261 v -3.41637 h -7.50261 v -2.3669 h 8.28413 v -3.68432 h -12.57134 z" />
        <path
           id="path5756"
           style="font-style:normal;font-variant:normal;font-weight:normal;font-stretch:normal;font-size:22.3292px;font-family:'Gotham Black';-inkscape-font-specification:'Gotham Black, ';text-align:center;text-anchor:middle;stroke-width:0.782821"
           d="m 752.06785,264.33929 h 11.90146 v -3.79596 h -7.5696 v -11.83448 h -4.33186 z" />
        <path
           id="path5758"
           style="font-style:normal;font-variant:normal;font-weight:normal;font-stretch:normal;font-size:22.3292px;font-family:'Gotham Black';-inkscape-font-specification:'Gotham Black, ';text-align:center;text-anchor:middle;stroke-width:0.782821"
           d="m 765.80554,264.33929 h 12.68299 v -3.68431 h -8.39578 v -2.47854 h 7.50261 v -3.41637 h -7.50261 v -2.3669 h 8.28413 v -3.68432 h -12.57134 z" />
        <path
           id="path5760"
           style="font-style:normal;font-variant:normal;font-weight:normal;font-stretch:normal;font-size:22.3292px;font-family:'Gotham Black';-inkscape-font-specification:'Gotham Black, ';text-align:center;text-anchor:middle;stroke-width:0.782821"
           d="m 788.11485,264.6519 c 3.46103,0 5.44833,-1.49605 6.92206,-3.52801 l -3.26007,-2.32224 c -0.93782,1.13879 -1.89798,1.89798 -3.52801,1.89798 -2.18826,0 -3.72898,-1.83099 -3.72898,-4.17556 v -0.0446 c 0,-2.27758 1.54072,-4.13091 3.72898,-4.13091 1.49606,0 2.5232,0.71454 3.41637,1.831 l 3.26006,-2.5232 c -1.38441,-1.92031 -3.4387,-3.26006 -6.63177,-3.26006 -4.73379,0 -8.23948,3.57267 -8.23948,8.12782 v 0.0447 c 0,4.66681 3.595,8.08317 8.06084,8.08317 z" />
        <path
           id="path5762"
           style="font-style:normal;font-variant:normal;font-weight:normal;font-stretch:normal;font-size:22.3292px;font-family:'Gotham Black';-inkscape-font-specification:'Gotham Black, ';text-align:center;text-anchor:middle;stroke-width:0.782821"
           d="m 800.71899,264.33929 h 4.33186 v -11.83447 h 4.68914 v -3.79597 h -13.71013 v 3.79597 h 4.68913 z" />
        <path
           id="path5764"
           style="font-style:normal;font-variant:normal;font-weight:normal;font-stretch:normal;font-size:22.3292px;font-family:'Gotham Black';-inkscape-font-specification:'Gotham Black, ';text-align:center;text-anchor:middle;stroke-width:0.782821"
           d="m 811.64146,264.33929 h 4.33186 v -4.73379 h 1.85333 0.0447 l 3.14842,4.73379 h 5.00174 l -3.72897,-5.44832 c 1.94264,-0.82618 3.2154,-2.41155 3.2154,-4.80078 v -0.0447 c 0,-1.54071 -0.46891,-2.74649 -1.38441,-3.63966 -1.04947,-1.0718 -2.70183,-1.69702 -5.09106,-1.69702 h -7.39096 z m 4.33186,-8.12782 v -3.75131 h 2.83581 c 1.4514,0 2.34457,0.62522 2.34457,1.85332 v 0.0447 c 0,1.13879 -0.84851,1.85333 -2.32224,1.85333 z" />
        <path
           id="path5766"
           style="font-style:normal;font-variant:normal;font-weight:normal;font-stretch:normal;font-size:22.3292px;font-family:'Gotham Black';-inkscape-font-specification:'Gotham Black, ';text-align:center;text-anchor:middle;stroke-width:0.782821"
           d="m 827.77989,264.33929 h 4.3542 v -15.63044 h -4.3542 z" />
        <path
           id="path5768"
           style="font-style:normal;font-variant:normal;font-weight:normal;font-stretch:normal;font-size:22.3292px;font-family:'Gotham Black';-inkscape-font-specification:'Gotham Black, ';text-align:center;text-anchor:middle;stroke-width:0.782821"
           d="m 842.49867,264.6519 c 3.46103,0 5.44833,-1.49605 6.92206,-3.52801 l -3.26007,-2.32224 c -0.93782,1.13879 -1.89798,1.89798 -3.52801,1.89798 -2.18826,0 -3.72898,-1.83099 -3.72898,-4.17556 v -0.0446 c 0,-2.27758 1.54072,-4.13091 3.72898,-4.13091 1.49606,0 2.5232,0.71454 3.41637,1.831 l 3.26006,-2.5232 c -1.38441,-1.92031 -3.4387,-3.26006 -6.63177,-3.26006 -4.73379,0 -8.23948,3.57267 -8.23948,8.12782 v 0.0447 c 0,4.66681 3.595,8.08317 8.06084,8.08317 z" />
      </g>
      <g
         style="font-style:normal;font-variant:normal;font-weight:normal;font-stretch:normal;font-size:31.3127px;line-height:1;font-family:TESLA;-inkscape-font-specification:TESLA;text-align:center;text-anchor:middle;stroke-width:0.782822"
         id="text38386-4-6-8"
         aria-label="CHARGING">
        <path
           id="path5771"
           style="font-style:normal;font-variant:normal;font-weight:normal;font-stretch:normal;font-size:22.3292px;font-family:'Gotham Black';-inkscape-font-specification:'Gotham Black, ';text-align:center;text-anchor:middle;stroke-width:0.782822"
           d="m 739.14154,317.77876 c 3.46102,0 5.44832,-1.49605 6.92205,-3.52801 l -3.26006,-2.32224 c -0.93783,1.13879 -1.89798,1.89799 -3.52802,1.89799 -2.18826,0 -3.72897,-1.831 -3.72897,-4.17556 v -0.0447 c 0,-2.27758 1.54071,-4.1309 3.72897,-4.1309 1.49606,0 2.5232,0.71453 3.41637,1.83099 l 3.26006,-2.5232 c -1.38441,-1.92031 -3.43869,-3.26006 -6.63177,-3.26006 -4.73379,0 -8.23947,3.57267 -8.23947,8.12783 v 0.0446 c 0,4.66681 3.595,8.08317 8.06084,8.08317 z" />
        <path
           id="path5773"
           style="font-style:normal;font-variant:normal;font-weight:normal;font-stretch:normal;font-size:22.3292px;font-family:'Gotham Black';-inkscape-font-specification:'Gotham Black, ';text-align:center;text-anchor:middle;stroke-width:0.782822"
           d="m 747.92738,317.46616 h 4.33187 v -5.93957 h 5.55997 v 5.93957 h 4.33186 v -15.63044 h -4.33186 v 5.85025 h -5.55997 v -5.85025 h -4.33187 z" />
        <path
           id="path5775"
           style="font-style:normal;font-variant:normal;font-weight:normal;font-stretch:normal;font-size:22.3292px;font-family:'Gotham Black';-inkscape-font-specification:'Gotham Black, ';text-align:center;text-anchor:middle;stroke-width:0.782822"
           d="m 763.68552,317.46616 h 4.55515 l 1.11646,-2.79115 h 6.02889 l 1.13879,2.79115 h 4.64447 l -6.6541,-15.74209 h -4.17556 z m 6.94438,-6.16286 1.76401,-4.44351 1.74167,4.44351 z" />
        <path
           id="path5777"
           style="font-style:normal;font-variant:normal;font-weight:normal;font-stretch:normal;font-size:22.3292px;font-family:'Gotham Black';-inkscape-font-specification:'Gotham Black, ';text-align:center;text-anchor:middle;stroke-width:0.782822"
           d="m 782.68592,317.46616 h 4.33187 v -4.73379 h 1.85332 0.0447 l 3.14842,4.73379 h 5.00174 l -3.72898,-5.44833 c 1.94264,-0.82618 3.21541,-2.41155 3.21541,-4.80078 v -0.0447 c 0,-1.54071 -0.46892,-2.74649 -1.38441,-3.63966 -1.04948,-1.0718 -2.70184,-1.69701 -5.09106,-1.69701 h -7.39097 z m 4.33187,-8.12783 v -3.75131 h 2.83581 c 1.45139,0 2.34456,0.62522 2.34456,1.85332 v 0.0447 c 0,1.13879 -0.84851,1.85333 -2.32224,1.85333 z" />
        <path
           id="path5779"
           style="font-style:normal;font-variant:normal;font-weight:normal;font-stretch:normal;font-size:22.3292px;font-family:'Gotham Black';-inkscape-font-specification:'Gotham Black, ';text-align:center;text-anchor:middle;stroke-width:0.782822"
           d="m 806.70656,317.77876 c 2.83581,0 5.13572,-1.04947 6.78808,-2.41155 v -7.0337 h -7.19 v 3.17075 h 3.08143 v 1.89798 c -0.64755,0.42426 -1.4514,0.64755 -2.50088,0.64755 -2.47854,0 -4.24254,-1.80867 -4.24254,-4.33187 v -0.0447 c 0,-2.38922 1.74167,-4.2872 3.99692,-4.2872 1.54072,0 2.65718,0.5359 3.77364,1.47373 l 2.54553,-3.0591 c -1.65236,-1.42907 -3.595,-2.27758 -6.3415,-2.27758 -4.84543,0 -8.4181,3.57267 -8.4181,8.12783 v 0.0446 c 0,4.73379 3.63966,8.08317 8.50742,8.08317 z" />
        <path
           id="path5781"
           style="font-style:normal;font-variant:normal;font-weight:normal;font-stretch:normal;font-size:22.3292px;font-family:'Gotham Black';-inkscape-font-specification:'Gotham Black, ';text-align:center;text-anchor:middle;stroke-width:0.782822"
           d="m 816.00737,317.46616 h 4.35419 v -15.63044 h -4.35419 z" />
        <path
           id="path5783"
           style="font-style:normal;font-variant:normal;font-weight:normal;font-stretch:normal;font-size:22.3292px;font-family:'Gotham Black';-inkscape-font-specification:'Gotham Black, ';text-align:center;text-anchor:middle;stroke-width:0.782822"
           d="m 823.20121,317.46616 h 4.2872 v -8.57442 l 6.67644,8.57442 h 3.79596 v -15.63044 h -4.28721 v 8.2618 l -6.43081,-8.2618 h -4.04158 z" />
        <path
           id="path5785"
           style="font-style:normal;font-variant:normal;font-weight:normal;font-stretch:normal;font-size:22.3292px;font-family:'Gotham Black';-inkscape-font-specification:'Gotham Black, ';text-align:center;text-anchor:middle;stroke-width:0.782822"
           d="m 848.70465,317.77876 c 2.8358,0 5.13571,-1.04947 6.78807,-2.41155 v -7.0337 h -7.19 v 3.17075 h 3.08143 v 1.89798 c -0.64755,0.42426 -1.4514,0.64755 -2.50087,0.64755 -2.47854,0 -4.24255,-1.80867 -4.24255,-4.33187 v -0.0447 c 0,-2.38922 1.74168,-4.2872 3.99693,-4.2872 1.54071,0 2.65717,0.5359 3.77363,1.47373 l 2.54553,-3.0591 c -1.65236,-1.42907 -3.595,-2.27758 -6.34149,-2.27758 -4.84544,0 -8.41811,3.57267 -8.41811,8.12783 v 0.0446 c 0,4.73379 3.63966,8.08317 8.50743,8.08317 z" />
      </g>
      <g
         style="font-style:normal;font-variant:normal;font-weight:normal;font-stretch:normal;font-size:31.3127px;line-height:1;font-family:TESLA;-inkscape-font-specification:TESLA;text-align:center;text-anchor:middle;fill:#c10000;fill-opacity:1;stroke-width:0.782822"
         id="text38386-4-6-0-0"
         aria-label="VEHICLES">
        <path
           id="path5788"
           style="font-style:normal;font-variant:normal;font-weight:normal;font-stretch:normal;font-size:31.3127px;font-family:'Gotham Black';-inkscape-font-specification:'Gotham Black, ';text-align:center;text-anchor:middle;fill:#c10000;fill-opacity:1;stroke-width:0.782822"
           d="m 721.65426,294.20347 h 5.63629 l 8.8928,-22.07545 h -6.6696 l -4.97872,13.87152 -4.97872,-13.87152 h -6.79486 z" />
        <path
           id="path5790"
           style="font-style:normal;font-variant:normal;font-weight:normal;font-stretch:normal;font-size:31.3127px;font-family:'Gotham Black';-inkscape-font-specification:'Gotham Black, ';text-align:center;text-anchor:middle;fill:#c10000;fill-opacity:1;stroke-width:0.782822"
           d="m 738.30528,294.04691 h 17.78561 v -5.1666 h -11.77357 v -3.47571 h 10.52106 v -4.79084 h -10.52106 v -3.31915 h 11.61701 v -5.16659 h -17.62905 z" />
        <path
           id="path5792"
           style="font-style:normal;font-variant:normal;font-weight:normal;font-stretch:normal;font-size:31.3127px;font-family:'Gotham Black';-inkscape-font-specification:'Gotham Black, ';text-align:center;text-anchor:middle;fill:#c10000;fill-opacity:1;stroke-width:0.782822"
           d="m 759.22118,294.04691 h 6.07467 v -8.32918 h 7.79686 v 8.32918 h 6.07466 v -21.91889 h -6.07466 v 8.20392 h -7.79686 v -8.20392 h -6.07467 z" />
        <path
           id="path5794"
           style="font-style:normal;font-variant:normal;font-weight:normal;font-stretch:normal;font-size:31.3127px;font-family:'Gotham Black';-inkscape-font-specification:'Gotham Black, ';text-align:center;text-anchor:middle;fill:#c10000;fill-opacity:1;stroke-width:0.782822"
           d="m 783.19791,294.04691 h 6.10598 v -21.91889 h -6.10598 z" />
        <path
           id="path5796"
           style="font-style:normal;font-variant:normal;font-weight:normal;font-stretch:normal;font-size:31.3127px;font-family:'Gotham Black';-inkscape-font-specification:'Gotham Black, ';text-align:center;text-anchor:middle;fill:#c10000;fill-opacity:1;stroke-width:0.782822"
           d="m 803.83836,294.48528 c 4.85347,0 7.6403,-2.09795 9.70693,-4.9474 l -4.57165,-3.25652 c -1.31513,1.59694 -2.66158,2.66158 -4.94741,2.66158 -3.06864,0 -5.22922,-2.56765 -5.22922,-5.85548 v -0.0626 c 0,-3.1939 2.16058,-5.79285 5.22922,-5.79285 2.09795,0 3.53834,1.002 4.79085,2.56764 l 4.57165,-3.53834 c -1.94139,-2.69289 -4.82216,-4.57165 -9.29987,-4.57165 -6.63829,0 -11.55439,5.01003 -11.55439,11.39782 v 0.0626 c 0,6.54435 5.04135,11.33519 11.30389,11.33519 z" />
        <path
           id="path5798"
           style="font-style:normal;font-variant:normal;font-weight:normal;font-stretch:normal;font-size:31.3127px;font-family:'Gotham Black';-inkscape-font-specification:'Gotham Black, ';text-align:center;text-anchor:middle;fill:#c10000;fill-opacity:1;stroke-width:0.782822"
           d="m 816.15892,294.04691 h 16.68967 v -5.32316 h -10.615 v -16.59573 h -6.07467 z" />
        <path
           id="path5800"
           style="font-style:normal;font-variant:normal;font-weight:normal;font-stretch:normal;font-size:31.3127px;font-family:'Gotham Black';-inkscape-font-specification:'Gotham Black, ';text-align:center;text-anchor:middle;fill:#c10000;fill-opacity:1;stroke-width:0.782822"
           d="m 835.42358,294.04691 h 17.78561 v -5.1666 h -11.77357 v -3.47571 h 10.52107 v -4.79084 h -10.52107 v -3.31915 h 11.61701 v -5.16659 h -17.62905 z" />
        <path
           id="path5802"
           style="font-style:normal;font-variant:normal;font-weight:normal;font-stretch:normal;font-size:31.3127px;font-family:'Gotham Black';-inkscape-font-specification:'Gotham Black, ';text-align:center;text-anchor:middle;fill:#c10000;fill-opacity:1;stroke-width:0.782822"
           d="m 864.95048,294.42266 c 5.32316,0 8.8615,-2.66158 8.8615,-7.1393 v -0.0626 c 0,-4.10197 -3.13127,-5.73023 -8.17262,-6.82617 -3.03733,-0.68888 -3.78884,-1.12726 -3.78884,-2.12927 v -0.0626 c 0,-0.78282 0.7202,-1.40907 2.19189,-1.40907 1.94139,0 4.13328,0.7515 6.13729,2.16057 l 3.03733,-4.28984 c -2.37976,-1.91007 -5.29184,-2.91208 -9.01805,-2.91208 -5.26054,0 -8.48574,2.9434 -8.48574,7.01405 v 0.0626 c 0,4.50903 3.60096,5.82417 8.26655,6.8888 2.9747,0.68888 3.6949,1.18988 3.6949,2.09795 v 0.0626 c 0,0.93938 -0.87676,1.50301 -2.50502,1.50301 -2.53633,0 -4.94741,-0.90807 -7.10798,-2.63026 l -3.38177,4.03933 c 2.69289,2.41108 6.38779,3.63228 10.27056,3.63228 z" />
      </g>
      <path
         transform="scale(0.26458333)"
         d="m 2399.5703,930.6875 -8.1504,8.71484 c -34.7441,37.14153 -50.1206,87.05066 -42.0918,136.61916 10.785,66.584 63.329,119.3753 130.6035,131.2168 13.045,2.2961 35.5964,2.6102 49.42,0.6875 33.6166,-4.6757 66.0161,-21.0564 90.5996,-45.8047 23.5557,-23.7137 38.3452,-52.0036 43.9297,-84.0273 2.6254,-15.0555 2.6254,-41.0891 0,-56.1446 -5.3534,-30.69817 -20.8156,-60.96949 -42.3614,-82.92772 l -8.1777,-8.33398 H 2506.457 Z m 9.3672,22.66797 h 98.3828 98.3809 l 6.7617,8.49609 c 35.0031,43.98904 41.7244,99.96374 17.793,148.16994 -14.1078,28.4179 -35.3642,49.5851 -63.6582,63.3887 -15.0431,7.3389 -28.1006,11.2094 -44.6309,13.2304 -29.8608,3.6508 -61.5133,-3.6945 -88.8242,-20.6113 -13.6437,-8.4512 -34.018,-28.7754 -42.375,-42.2695 -21.0134,-33.9303 -26.7541,-71.5166 -16.7598,-109.7383 4.9595,-18.96689 16.9355,-41.1458 29.6914,-54.98439 z"
         style="fill:#110000;fill-opacity:1;stroke-width:1.33333"
         id="path3354" />
      <g
         transform="translate(597.49999,380.58751)"
         id="g40775-6-4-1">
        <path
           d="m 29.999996,-167.5 a 2.5,2.5 0 0 1 -2.5,2.5 2.5,2.5 0 0 1 -2.5,-2.5 2.5,2.5 0 0 1 2.5,-2.5 2.5,2.5 0 0 1 2.5,2.5"
           style="fill:#000000;fill-opacity:1;stroke:none;stroke-width:1.5;stroke-miterlimit:4;stroke-dasharray:none;stroke-opacity:1"
           id="path38845-5-6-1" />
        <path
           d="m 29.999996,-27.499996 a 2.5,2.5 0 0 1 -2.5,2.5 2.5,2.5 0 0 1 -2.5,-2.5 2.5,2.5 0 0 1 2.5,-2.5 2.5,2.5 0 0 1 2.5,2.5"
           style="fill:#000000;fill-opacity:1;stroke:none;stroke-width:1.5;stroke-miterlimit:4;stroke-dasharray:none;stroke-opacity:1"
           id="path38847-0-5-73" />
        <path
           d="m 275,-27.499996 a 2.5,2.5 0 0 1 -2.5,2.5 2.5,2.5 0 0 1 -2.5,-2.5 2.5,2.5 0 0 1 2.5,-2.5 2.5,2.5 0 0 1 2.5,2.5"
           style="fill:#000000;fill-opacity:1;stroke:none;stroke-width:1.5;stroke-miterlimit:4;stroke-dasharray:none;stroke-opacity:1"
           id="path38849-7-1-4" />
        <path
           d="m 275,-167.5 a 2.5,2.5 0 0 1 -2.5,2.5 2.5,2.5 0 0 1 -2.5,-2.5 2.5,2.5 0 0 1 2.5,-2.5 2.5,2.5 0 0 1 2.5,2.5"
           style="fill:#000000;fill-opacity:1;stroke:none;stroke-width:1.5;stroke-miterlimit:4;stroke-dasharray:none;stroke-opacity:1"
           id="path38851-7-3-3" />
      </g>
    </g>
  </g>
</svg>
