<?xml version="1.0" encoding="UTF-8" standalone="no"?>
<!-- Created with Inkscape (http://www.inkscape.org/) -->

<svg
   width="500mm"
   height="250mm"
   viewBox="0 0 500 250"
   version="1.1"
   id="svg1"
   xml:space="preserve"
   inkscape:version="1.4.2 (f4327f4, 2025-05-13)"
   sodipodi:docname="PacmanGhostV3.svg"
   inkscape:export-filename="PacmanGhostV3_3.svg"
   inkscape:export-xdpi="96"
   inkscape:export-ydpi="96"
   xmlns:inkscape="http://www.inkscape.org/namespaces/inkscape"
   xmlns:sodipodi="http://sodipodi.sourceforge.net/DTD/sodipodi-0.dtd"
   xmlns="http://www.w3.org/2000/svg"
   xmlns:svg="http://www.w3.org/2000/svg"><sodipodi:namedview
     id="namedview1"
     pagecolor="#ffffff"
     bordercolor="#000000"
     borderopacity="0.25"
     inkscape:showpageshadow="2"
     inkscape:pageopacity="0.0"
     inkscape:pagecheckerboard="0"
     inkscape:deskcolor="#d1d1d1"
     inkscape:document-units="mm"
     showgrid="true"
     inkscape:zoom="0.70710678"
     inkscape:cx="1160.3622"
     inkscape:cy="519.72348"
     inkscape:window-width="3440"
     inkscape:window-height="1369"
     inkscape:window-x="2552"
     inkscape:window-y="-8"
     inkscape:window-maximized="1"
     inkscape:current-layer="layer1"><inkscape:grid
       id="grid2"
       units="mm"
       originx="0"
       originy="0"
       spacingx="0.99999999"
       spacingy="0.99999999"
       empcolor="#0099e5"
       empopacity="0.30196078"
       color="#0099e5"
       opacity="0.14901961"
       empspacing="10"
       enabled="true"
       visible="true" /><inkscape:page
       x="0"
       y="0"
       width="500"
       height="250"
       id="page2"
       margin="0"
       bleed="0" /></sodipodi:namedview><defs
     id="defs1" /><g
     inkscape:label="Ebene 1"
     inkscape:groupmode="layer"
     id="layer1"><path
       id="path4-2-9"
       style="baseline-shift:baseline;display:inline;overflow:visible;opacity:1;vector-effect:none;enable-background:accumulate;stop-color:#000000;stop-opacity:1"
       sodipodi:type="inkscape:offset"
       inkscape:radius="-0.28373948"
       inkscape:original="M 247.87695 19.496094 C 233.28363 19.818663 218.73359 23.881492 206.28125 31.544922 C 192.82394 39.75606 181.91598 52.139365 175.68555 66.638672 C 171.38078 76.561256 169.31818 87.410822 169.48633 98.216797 C 169.49433 132.37439 169.47075 166.53208 169.49805 200.68945 C 169.54715 206.27515 171.75153 211.92235 175.94727 215.69141 C 180.21881 219.60626 186.50708 221.5819 192.16992 219.94922 C 196.93661 218.57442 200.54623 214.95758 204.01367 211.60156 C 207.03498 208.76404 210.09391 205.62292 214.15039 204.3457 C 217.24077 203.37097 220.58065 204.21791 223.31445 205.79297 C 229.75023 209.41909 234.6855 215.40258 241.46875 218.55469 C 245.99113 220.7436 251.36004 221.16711 256.125 219.51758 C 261.93112 217.58329 266.46557 213.2941 271.18555 209.58789 C 274.34207 207.16806 277.70212 204.59606 281.75 204.01172 C 285.03452 203.53718 288.23768 205.00003 290.7793 206.97266 C 295.66575 210.62 299.44364 215.8941 304.97852 218.76562 C 308.00012 220.38957 311.53972 220.8445 314.91016 220.33594 C 319.82155 219.73079 324.53762 217.04412 327.17578 212.79688 C 329.90656 208.57785 330.64235 203.41856 330.51172 198.48047 C 330.53182 173.34554 330.53798 148.20912 330.51758 123.07422 C 330.49558 113.51197 330.55477 103.95049 330.48047 94.388672 C 330.17105 81.165929 326.98443 67.879205 320.33984 56.378906 C 314.18136 45.587512 304.99869 36.601116 294.20312 30.478516 C 280.2171 22.470652 263.89318 19.160831 247.87695 19.496094 z M 250 27.330078 C 261.87652 27.330379 273.88768 29.476117 284.77148 34.462891 C 294.54971 38.901459 303.27892 45.730631 309.67969 54.376953 C 313.227 59.161505 316.13727 64.591128 318.17773 70.191406 C 321.04234 77.964495 322.411 86.246095 322.61914 94.449219 C 322.69804 103.87301 322.6349 113.29834 322.6582 122.72266 C 322.6778 147.68972 322.6747 172.65597 322.6543 197.62305 C 322.674 200.66835 322.71962 203.68156 321.61523 206.57031 C 320.62136 209.34367 318.23365 211.55304 315.36133 212.24805 C 313.22479 212.80527 310.8316 212.93838 308.84375 211.81836 C 305.74607 210.18395 303.32177 207.62371 300.74805 205.25 C 296.98143 201.62336 292.82145 198.01949 287.64453 196.67383 C 282.75268 195.33232 277.44499 196.31489 273.0625 198.75781 C 266.78456 202.13725 262.04913 207.75029 255.75391 211.09961 C 253.13015 212.51004 249.97752 213.15524 247.08008 212.24414 C 242.79863 210.93385 239.35259 207.92024 235.9082 205.18945 C 231.58528 201.64534 227.05096 197.94487 221.49609 196.60938 C 216.82807 195.42772 211.75642 196.22331 207.60742 198.64062 C 202.05199 201.72562 198.17304 206.94491 193.10547 210.66992 C 191.34281 211.95128 189.19248 212.98134 186.95703 212.60742 C 183.24612 212.27642 179.83881 209.77437 178.4707 206.29883 C 176.95727 202.85471 177.41924 199.02009 177.3457 195.36719 C 177.3537 162.21672 177.32992 129.06635 177.35742 95.916016 C 177.43282 88.88716 178.60338 81.750234 180.82812 75.080078 C 185.26029 61.574951 194.12241 49.616214 205.63477 41.300781 C 215.60148 34.045233 227.5034 29.516858 239.67969 27.986328 C 243.06983 27.54134 246.55158 27.341091 250 27.330078 z M 218.87109 63.099609 C 211.7087 63.414317 204.85371 67.408068 201.00781 73.451172 C 198.42236 77.376388 197.23655 82.126612 197.41406 86.806641 C 197.43306 95.349884 197.37686 103.89487 197.44336 112.4375 C 197.74291 119.37468 201.51398 126.01628 207.25781 129.90039 C 213.09518 133.96734 220.89906 134.97978 227.58398 132.55078 C 234.76021 130.04227 240.44869 123.68908 242.06445 116.25 C 242.92716 112.6037 242.5232 108.83329 242.61719 105.125 C 242.59649 98.2296 242.65864 91.332033 242.58594 84.4375 C 242.27007 77.55395 238.53837 70.967869 232.85547 67.087891 C 228.80127 64.258972 223.80643 62.843213 218.87109 63.099609 z M 278.87109 63.099609 C 271.7087 63.414317 264.85371 67.408068 261.00781 73.451172 C 258.42236 77.376388 257.23655 82.126612 257.41406 86.806641 C 257.43306 95.349884 257.37686 103.89487 257.44336 112.4375 C 257.74291 119.37468 261.51398 126.01628 267.25781 129.90039 C 273.09518 133.96734 280.89906 134.97978 287.58398 132.55078 C 294.76021 130.04227 300.44869 123.68908 302.06445 116.25 C 302.92716 112.6037 302.5232 108.83329 302.61719 105.125 C 302.59649 98.2296 302.65864 91.332033 302.58594 84.4375 C 302.27007 77.55395 298.53837 70.967869 292.85547 67.087891 C 288.80127 64.258972 283.80643 62.843213 278.87109 63.099609 z M 220.01562 70.929688 C 225.24538 70.872457 230.37552 73.83252 232.89062 78.425781 C 234.3922 81.017492 234.89425 84.058392 234.75781 87.021484 C 234.73981 95.412748 234.79357 103.80493 234.73047 112.19531 C 234.48022 117.59824 230.94206 122.6657 225.96094 124.76953 C 220.73029 127.10183 214.1839 126.05948 210.00195 122.12305 C 206.77942 119.21654 205.06041 114.82772 205.27148 110.50977 C 205.28948 101.9185 205.23573 93.326704 205.29883 84.736328 C 205.54888 79.366657 209.04331 74.329074 213.97852 72.203125 C 215.87064 71.355595 217.94433 70.933803 220.01562 70.929688 z M 280.01562 70.929688 C 285.24538 70.872457 290.37553 73.83252 292.89062 78.425781 C 294.3922 81.017492 294.89425 84.058392 294.75781 87.021484 C 294.73991 95.412748 294.79357 103.80493 294.73047 112.19531 C 294.48022 117.59824 290.94206 122.6657 285.96094 124.76953 C 280.73029 127.10183 274.1839 126.05948 270.00195 122.12305 C 266.77942 119.21654 265.06041 114.82772 265.27148 110.50977 C 265.28948 101.9185 265.23573 93.326704 265.29883 84.736328 C 265.54888 79.366657 269.04331 74.329074 273.97852 72.203125 C 275.87064 71.355595 277.94433 70.933803 280.01562 70.929688 z "
       d="M 247.88281,19.779297 C 233.33795,20.100795 218.83613,24.151926 206.42969,31.787109 193.02246,39.96769 182.15145,52.307221 175.94531,66.75 a 0.28376785,0.28376785 0 0 1 0,0.002 c -4.28788,9.883664 -6.34332,20.69401 -6.17578,31.460938 a 0.28376785,0.28376785 0 0 1 0,0.0039 c 0.008,34.157763 -0.0156,68.315563 0.0117,102.472653 0.0489,5.51211 2.22828,11.08354 6.35547,14.79102 a 0.28376785,0.28376785 0 0 1 0.002,0.002 c 4.20434,3.85326 10.40256,5.79367 15.95313,4.19336 4.67602,-1.34865 8.25467,-4.91891 11.72461,-8.27734 a 0.28376785,0.28376785 0 0 1 0.004,-0.004 c 3.01481,-2.83141 6.09953,-6.01534 10.24414,-7.32031 3.19128,-1.00655 6.61029,-0.13034 9.39258,1.47265 6.49616,3.66139 11.42566,9.63417 18.13086,12.75 a 0.28376785,0.28376785 0 0 1 0.004,0.002 c 4.45603,2.15679 9.75094,2.57423 14.43945,0.95117 a 0.28376785,0.28376785 0 0 1 0.004,-0.002 c 5.72881,-1.90854 10.24042,-6.16545 14.97461,-9.88282 a 0.28376785,0.28376785 0 0 1 0.004,-0.002 c 3.15664,-2.41992 6.55288,-5.03482 10.69531,-5.63281 3.39204,-0.49007 6.66498,1.01581 9.24414,3.01758 4.93367,3.68371 8.70185,8.93585 14.15625,11.76562 a 0.28376785,0.28376785 0 0 1 0.004,0.002 c 2.95967,1.59067 6.43713,2.03953 9.75391,1.53907 a 0.28376785,0.28376785 0 0 1 0.008,0 c 4.83211,-0.59538 9.47406,-3.24416 12.06055,-7.40821 a 0.28376785,0.28376785 0 0 1 0.002,-0.004 c 2.68608,-4.14997 3.42076,-9.24959 3.29102,-14.1543 a 0.28376785,0.28376785 0 0 1 0,-0.008 c 0.0201,-25.13483 0.0263,-50.27155 0.006,-75.40625 -0.022,-9.56255 0.0371,-19.12181 -0.0371,-28.679689 v -0.0039 c -0.309,-13.18035 -3.48728,-26.417914 -10.10352,-37.869141 a 0.28376785,0.28376785 0 0 1 0,-0.002 C 313.96184,45.774696 304.8145,36.822497 294.0625,30.724609 280.12984,22.747297 263.85594,19.444936 247.88281,19.779297 Z M 250,27.046875 c 11.9101,3.02e-4 23.96146,2.151875 34.88867,7.158203 9.8201,4.457574 18.58787,11.315856 25.01953,20.003906 3.56383,4.807095 6.48537,10.258879 8.53516,15.884766 2.87708,7.80693 4.25017,16.117843 4.45898,24.347656 a 0.28376785,0.28376785 0 0 1 0,0.0059 c 0.0789,9.426644 0.0158,18.852804 0.0391,28.275394 0.0196,24.96723 0.0165,49.93318 -0.004,74.90039 0.0197,3.04303 0.0719,6.0968 -1.05664,9.04882 -1.02765,2.86145 -3.48415,5.13317 -6.45313,5.85157 -2.17267,0.56581 -4.63861,0.71312 -6.71679,-0.45508 -3.15181,-1.66297 -5.59005,-4.2444 -8.1543,-6.60938 a 0.28376785,0.28376785 0 0 1 -0.006,-0.004 c -3.75908,-3.61938 -7.88516,-7.18192 -12.97851,-8.50586 a 0.28376785,0.28376785 0 0 1 -0.002,-0.002 c -4.80729,-1.31832 -10.04349,-0.35265 -14.36914,2.05859 a 0.28376785,0.28376785 0 0 1 -0.004,0.002 c -6.21492,3.34552 -10.95137,8.95845 -17.31055,12.3418 -2.67461,1.43735 -5.90153,2.10525 -8.89063,1.16601 h -0.002 c -4.35629,-1.33373 -7.82523,-4.37899 -11.26172,-7.10351 a 0.28376785,0.28376785 0 0 1 -0.004,-0.004 c -4.32258,-3.54383 -8.82567,-7.20759 -14.29883,-8.52343 a 0.28376785,0.28376785 0 0 1 -0.004,0 c -4.59125,-1.16223 -9.59028,-0.37836 -13.67578,2.00195 a 0.28376785,0.28376785 0 0 1 -0.004,0.002 c -5.48569,3.04627 -9.35885,8.25077 -14.47265,12.00977 a 0.28376785,0.28376785 0 0 1 -0.002,0.002 c -1.79293,1.30337 -4.01304,2.37912 -6.36132,1.98633 -3.80961,-0.34836 -7.28948,-2.9048 -8.69922,-6.47461 l -0.002,-0.008 c -3.2e-4,-8.2e-4 -0.002,-0.001 -0.002,-0.002 -1.54803,-3.53198 -1.07162,-7.40763 -1.14453,-11.02929 a 0.28376785,0.28376785 0 0 1 0,-0.006 c 0.008,-33.15029 -0.0158,-66.30055 0.0117,-99.451174 a 0.28376785,0.28376785 0 0 1 0,-0.0039 c 0.0757,-7.057669 1.25025,-14.220985 3.48437,-20.919922 v -0.002 c 4.45183,-13.563733 13.34965,-25.569708 24.91016,-33.919922 v 0.002 c 10.00767,-7.285365 21.95219,-11.830641 34.17383,-13.367188 3.4041,-0.446821 6.89863,-0.647157 10.35742,-0.658203 z m -29.28711,36.318359 c -0.60896,-0.01948 -1.21725,-0.01406 -1.82617,0.01758 a 0.28376785,0.28376785 0 0 1 -0.004,0 c -7.06515,0.310436 -13.84046,4.258669 -17.63476,10.220704 a 0.28376785,0.28376785 0 0 1 -0.004,0.0039 c -2.54953,3.870679 -3.72229,8.562563 -3.54687,13.1875 a 0.28376785,0.28376785 0 0 1 0,0.01172 c 0.019,8.544908 -0.0372,17.088989 0.0293,25.628909 0.29857,6.83893 4.02491,13.39997 9.68946,17.23047 a 0.28376785,0.28376785 0 0 1 0.004,0.002 c 5.75817,4.01177 13.47189,5.01138 20.06641,2.61523 a 0.28376785,0.28376785 0 0 1 0.004,0 c 7.07945,-2.47468 12.70333,-8.75691 14.29688,-16.09375 a 0.28376785,0.28376785 0 0 1 0.002,-0.004 c 0.84746,-3.58184 0.45104,-7.32939 0.54492,-11.06055 v -0.008 c -0.0206,-6.891813 0.0412,-13.781036 -0.0312,-20.666018 v -0.0098 c -0.31463,-6.786099 -4.00291,-13.292684 -9.60742,-17.11914 a 0.28376785,0.28376785 0 0 1 -0.002,-0.002 c -3.50083,-2.442788 -7.71774,-3.818684 -11.98047,-3.955078 z m 60,0 c -0.60896,-0.01948 -1.21725,-0.01406 -1.82617,0.01758 a 0.28376785,0.28376785 0 0 1 -0.004,0 c -7.06515,0.310436 -13.84046,4.258669 -17.63476,10.220704 a 0.28376785,0.28376785 0 0 1 -0.004,0.0039 c -2.54953,3.870679 -3.72229,8.562563 -3.54687,13.1875 a 0.28376785,0.28376785 0 0 1 0,0.01172 c 0.019,8.544908 -0.0372,17.088989 0.0293,25.628909 0.29857,6.83893 4.02491,13.39997 9.68946,17.23047 a 0.28376785,0.28376785 0 0 1 0.004,0.002 c 5.75817,4.01177 13.47189,5.01138 20.06641,2.61523 a 0.28376785,0.28376785 0 0 1 0.004,0 c 7.07945,-2.47468 12.70333,-8.75691 14.29688,-16.09375 a 0.28376785,0.28376785 0 0 1 0.002,-0.004 c 0.84746,-3.58184 0.45104,-7.32939 0.54492,-11.06055 v -0.008 c -0.0206,-6.891813 0.0412,-13.781036 -0.0312,-20.666018 v -0.0098 c -0.31463,-6.786099 -4.00291,-13.292684 -9.60742,-17.11914 a 0.28376785,0.28376785 0 0 1 -0.002,-0.002 c -3.50083,-2.442788 -7.71774,-3.818684 -11.98047,-3.955078 z m -60.70117,7.28125 h 0.004 c 5.33748,-0.05691 10.55518,2.952941 13.12305,7.642578 1.53367,2.650089 2.04057,5.744165 1.90235,8.746094 -0.0179,8.385094 0.0357,16.773654 -0.0274,25.162114 a 0.28376785,0.28376785 0 0 1 0,0.0117 c -0.25559,5.51822 -3.85421,10.67364 -8.9414,12.82227 -5.33698,2.37771 -11.98927,1.31834 -16.25977,-2.69727 -3.28735,-2.96497 -5.03513,-7.42629 -4.82422,-11.82421 v -0.0117 c 3e-5,-6.5e-4 -3e-5,-0.001 0,-0.002 0.0179,-8.58513 -0.0357,-17.173324 0.0273,-25.761715 a 0.28376785,0.28376785 0 0 1 0,-0.01172 c 0.25539,-5.484134 3.81148,-10.608169 8.85157,-12.779297 h -0.004 c 1.92946,-0.864256 4.0403,-1.292163 6.14844,-1.296875 z m 60,0 h 0.004 c 5.33748,-0.05691 10.55519,2.95294 13.12305,7.642578 1.53367,2.650089 2.04057,5.744165 1.90235,8.746094 -0.0178,8.385098 0.0357,16.773654 -0.0274,25.162114 a 0.28376785,0.28376785 0 0 1 0,0.0117 c -0.25559,5.51822 -3.85421,10.67364 -8.9414,12.82227 -5.33698,2.37771 -11.98927,1.31834 -16.25977,-2.69727 -3.28735,-2.96497 -5.03513,-7.42629 -4.82422,-11.82421 v -0.0117 c 3e-5,-6.5e-4 -3e-5,-0.001 0,-0.002 0.0179,-8.58513 -0.0357,-17.173324 0.0273,-25.761715 a 0.28376785,0.28376785 0 0 1 0,-0.01172 c 0.25539,-5.484134 3.81148,-10.608169 8.85157,-12.779297 h -0.004 c 1.92946,-0.864256 4.0403,-1.292163 6.14844,-1.296875 z" /></g></svg>
