<?xml version="1.0" encoding="UTF-8" standalone="no"?>
<!-- Created with Inkscape (http://www.inkscape.org/) -->

<svg
   width="500mm"
   height="250mm"
   viewBox="0 0 500 250"
   version="1.1"
   id="svg1"
   xml:space="preserve"
   inkscape:version="1.4.2 (f4327f4, 2025-05-13)"
   sodipodi:docname="PacmanGhostV3.svg"
   inkscape:export-filename="PacmanGhostV3.2_2.svg"
   inkscape:export-xdpi="96"
   inkscape:export-ydpi="96"
   xmlns:inkscape="http://www.inkscape.org/namespaces/inkscape"
   xmlns:sodipodi="http://sodipodi.sourceforge.net/DTD/sodipodi-0.dtd"
   xmlns="http://www.w3.org/2000/svg"
   xmlns:svg="http://www.w3.org/2000/svg"><sodipodi:namedview
     id="namedview1"
     pagecolor="#ffffff"
     bordercolor="#000000"
     borderopacity="0.25"
     inkscape:showpageshadow="2"
     inkscape:pageopacity="0.0"
     inkscape:pagecheckerboard="0"
     inkscape:deskcolor="#d1d1d1"
     inkscape:document-units="mm"
     showgrid="true"
     inkscape:zoom="1"
     inkscape:cx="1178.5"
     inkscape:cy="546.5"
     inkscape:window-width="3440"
     inkscape:window-height="1369"
     inkscape:window-x="2552"
     inkscape:window-y="-8"
     inkscape:window-maximized="1"
     inkscape:current-layer="layer1"><inkscape:grid
       id="grid2"
       units="mm"
       originx="0"
       originy="0"
       spacingx="0.99999999"
       spacingy="0.99999999"
       empcolor="#0099e5"
       empopacity="0.30196078"
       color="#0099e5"
       opacity="0.14901961"
       empspacing="10"
       enabled="true"
       visible="true" /><inkscape:page
       x="0"
       y="0"
       width="500"
       height="250"
       id="page2"
       margin="0"
       bleed="0" /></sodipodi:namedview><defs
     id="defs1" /><g
     inkscape:label="Ebene 1"
     inkscape:groupmode="layer"
     id="layer1"><path
       id="path5-1-3-6-9"
       style="baseline-shift:baseline;display:inline;overflow:visible;opacity:1;vector-effect:none;fill:#ffdb00;fill-opacity:1;enable-background:accumulate;stop-color:#000000;stop-opacity:1"
       d="M 170,13.250025 C 107.75662,13.249975 57.224381,63.764027 57.224461,125.98836 57.224671,188.21247 107.75682,238.72469 170,238.72463 c 27.83107,-7e-5 54.66269,-10.28801 75.34476,-28.85302 1.26122,-1.09349 2.42563,-2.28713 3.60495,-3.46645 l -1.41077,-1.41077 v -0.008 l -77.67381,-77.67408 80.49586,-80.495859 -2.50011,-2.384867 C 226.88345,24.417274 198.99778,13.250175 170,13.250025 Z M 170,20 c 26.10505,1.4e-4 51.18235,9.711178 70.58588,27.046928 l -80.26591,80.265382 78.85566,78.85565 C 219.95695,222.73493 195.45602,231.97459 170,231.97465 111.40356,231.97471 63.974631,184.56328 63.974431,125.98836 63.974351,67.413237 111.40337,19.99995 170,20 Z m -15.81247,15.564425 c -18.90525,0 -34.30488,15.394324 -34.30488,34.295064 0,18.90074 15.39963,34.295061 34.30488,34.295061 18.90526,0 34.30437,-15.394321 34.30437,-34.295061 0,-18.90074 -15.39911,-34.295064 -34.30437,-34.295064 z m 0,6.749976 c 15.25851,0 27.55439,12.293548 27.55439,27.545088 0,15.25154 -12.29588,27.545089 -27.55439,27.545089 -15.2585,0 -27.55491,-12.293549 -27.55491,-27.545089 0,-15.25154 12.29641,-27.545088 27.55491,-27.545088 z"
       sodipodi:nodetypes="ccscccccccccccccccssssssssss" /></g></svg>
