<?xml version="1.0" encoding="UTF-8" standalone="no"?>
<!-- Created with Inkscape (http://www.inkscape.org/) -->

<svg
   width="500mm"
   height="250mm"
   viewBox="0 0 500 250"
   version="1.1"
   id="svg1"
   xml:space="preserve"
   inkscape:version="1.4.2 (f4327f4, 2025-05-13)"
   sodipodi:docname="PacmanGhostV3.svg"
   inkscape:export-filename="PacmanGhostV3.2_1.svg"
   inkscape:export-xdpi="96"
   inkscape:export-ydpi="96"
   xmlns:inkscape="http://www.inkscape.org/namespaces/inkscape"
   xmlns:sodipodi="http://sodipodi.sourceforge.net/DTD/sodipodi-0.dtd"
   xmlns="http://www.w3.org/2000/svg"
   xmlns:svg="http://www.w3.org/2000/svg"><sodipodi:namedview
     id="namedview1"
     pagecolor="#ffffff"
     bordercolor="#000000"
     borderopacity="0.25"
     inkscape:showpageshadow="2"
     inkscape:pageopacity="0.0"
     inkscape:pagecheckerboard="0"
     inkscape:deskcolor="#d1d1d1"
     inkscape:document-units="mm"
     showgrid="true"
     inkscape:zoom="1"
     inkscape:cx="1178.5"
     inkscape:cy="546.5"
     inkscape:window-width="3440"
     inkscape:window-height="1369"
     inkscape:window-x="2552"
     inkscape:window-y="-8"
     inkscape:window-maximized="1"
     inkscape:current-layer="layer1"><inkscape:grid
       id="grid2"
       units="mm"
       originx="0"
       originy="0"
       spacingx="0.99999999"
       spacingy="0.99999999"
       empcolor="#0099e5"
       empopacity="0.30196078"
       color="#0099e5"
       opacity="0.14901961"
       empspacing="10"
       enabled="true"
       visible="true" /><inkscape:page
       x="0"
       y="0"
       width="500"
       height="250"
       id="page2"
       margin="0"
       bleed="0" /></sodipodi:namedview><defs
     id="defs1" /><g
     inkscape:label="Ebene 1"
     inkscape:groupmode="layer"
     id="layer1"><path
       id="path5-1-3-6-6"
       style="baseline-shift:baseline;display:inline;overflow:visible;opacity:1;vector-effect:none;fill:#000000;fill-opacity:1;enable-background:accumulate;stop-color:#000000;stop-opacity:1"
       d="m 169.93902,12.974587 c -62.39195,-5e-5 -113.048479,50.640787 -113.048389,113.013773 2e-4,62.37278 50.656639,113.01177 113.048389,113.01171 27.99816,-7e-5 54.98875,-10.38651 75.75094,-29.12226 l 3.59254,-3.47886 -1.52859,-1.52807 -2.00711,-2.00711 -75.55198,-75.55146 80.5,-80.499995 -2.70268,-2.580204 C 226.96361,24.169041 199.0074,12.974737 169.93902,12.974587 Z m 0,7.29878 c 25.94012,1.3e-4 50.85831,9.620182 70.18177,26.789062 l -80.24988,80.249881 78.83601,78.83808 c -19.13537,16.40181 -43.47707,25.55083 -68.7679,25.5509 -58.44788,5e-5 -105.749429,-47.28668 -105.749619,-105.71293 -8e-5,-58.426446 47.301549,-105.715043 105.749619,-105.714993 z m -15.81247,15.017688 c -19.05382,0 -34.5798,15.519022 -34.5798,34.568432 0,19.04941 15.52598,34.567913 34.5798,34.567913 19.05383,0 34.57825,-15.518503 34.57825,-34.567913 0,-19.04941 -15.52442,-34.568432 -34.57825,-34.568432 z m 0,7.298779 c 15.10994,0 27.27948,12.166783 27.27948,27.269653 0,15.10287 -12.16954,27.269137 -27.27948,27.269137 -15.10993,0 -27.27895,-12.166267 -27.27895,-27.269137 0,-15.10287 12.16902,-27.269653 27.27895,-27.269653 z"
       sodipodi:nodetypes="ccscccccccccccccccssssssssss" /></g></svg>
