<?xml version="1.0" encoding="UTF-8" standalone="no"?>
<!-- Created with Inkscape (http://www.inkscape.org/) -->

<svg
   width="500mm"
   height="250mm"
   viewBox="0 0 500 250"
   version="1.1"
   id="svg1"
   xml:space="preserve"
   inkscape:version="1.4.2 (f4327f4, 2025-05-13)"
   sodipodi:docname="PacmanGhostV3.svg"
   inkscape:export-filename="PacmanGhostV3_3.svg"
   inkscape:export-xdpi="96"
   inkscape:export-ydpi="96"
   xmlns:inkscape="http://www.inkscape.org/namespaces/inkscape"
   xmlns:sodipodi="http://sodipodi.sourceforge.net/DTD/sodipodi-0.dtd"
   xmlns="http://www.w3.org/2000/svg"
   xmlns:svg="http://www.w3.org/2000/svg"><sodipodi:namedview
     id="namedview1"
     pagecolor="#ffffff"
     bordercolor="#000000"
     borderopacity="0.25"
     inkscape:showpageshadow="2"
     inkscape:pageopacity="0.0"
     inkscape:pagecheckerboard="0"
     inkscape:deskcolor="#d1d1d1"
     inkscape:document-units="mm"
     showgrid="true"
     inkscape:zoom="0.70710678"
     inkscape:cx="1160.3622"
     inkscape:cy="519.72348"
     inkscape:window-width="3440"
     inkscape:window-height="1369"
     inkscape:window-x="2552"
     inkscape:window-y="-8"
     inkscape:window-maximized="1"
     inkscape:current-layer="layer1"><inkscape:grid
       id="grid2"
       units="mm"
       originx="0"
       originy="0"
       spacingx="0.99999999"
       spacingy="0.99999999"
       empcolor="#0099e5"
       empopacity="0.30196078"
       color="#0099e5"
       opacity="0.14901961"
       empspacing="10"
       enabled="true"
       visible="true" /><inkscape:page
       x="0"
       y="0"
       width="500"
       height="250"
       id="page2"
       margin="0"
       bleed="0" /></sodipodi:namedview><defs
     id="defs1" /><g
     inkscape:label="Ebene 1"
     inkscape:groupmode="layer"
     id="layer1"><path
       id="path4-2-9-2"
       style="baseline-shift:baseline;display:inline;overflow:visible;vector-effect:none;fill:#c2ab00;fill-opacity:1;enable-background:accumulate;stop-color:#000000"
       sodipodi:type="inkscape:offset"
       inkscape:radius="-0.02130026"
       inkscape:original="M 250 20 C 204.66997 20 170.01563 54.403008 170.01562 96.816406 L 170.01562 200.17773 C 170.01562 212.81024 179.41055 220 188.09961 220 C 195.14828 220 199.83734 214.86088 204.12695 210.75781 C 208.41655 206.65474 212.2073 203.40039 217.01562 203.40039 C 221.82396 203.40039 226.26411 206.78555 231.35938 210.93555 C 236.45464 215.08555 242.20599 220 250 220 C 257.79402 220 263.54877 215.0875 268.65234 210.9375 C 273.7559 206.7875 278.2073 203.40039 283.01562 203.40039 C 287.82396 203.40039 291.60566 206.65333 295.9082 210.75977 C 300.21074 214.8662 304.94499 220 312.04102 220 C 316.06697 220 320.56173 218.87081 324.10938 215.64062 C 327.65702 212.41046 329.9283 207.20533 329.98242 200.20508 L 329.98242 200.19336 L 329.98242 200.17969 C 330.05702 99.16818 329.98242 197.82623 329.98242 96.816406 C 329.98242 73.103912 321.35502 53.717479 306.95508 40.435547 C 292.55514 27.153625 272.52937 20 250 20 z M 250 26.800781 C 271.09411 26.800781 289.35785 33.457867 302.34375 45.435547 C 315.32966 57.413226 323.18164 74.735347 323.18164 96.816406 C 323.18164 197.80668 323.25614 99.25434 323.18164 200.15234 C 323.13814 205.78388 321.5333 208.78844 319.53125 210.61133 C 317.52921 212.43421 314.80094 213.19922 312.04102 213.19922 C 308.47353 213.19922 304.99735 210.03341 300.60352 205.83984 C 296.20969 201.64628 290.80963 196.59961 283.01562 196.59961 C 275.22161 196.59961 269.4649 201.51211 264.36133 205.66211 C 259.25777 209.81211 254.80833 213.19922 250 213.19922 C 245.19169 213.19922 240.74957 209.81406 235.6543 205.66406 C 230.55903 201.51406 224.80963 196.59961 217.01562 196.59961 C 209.22162 196.59961 203.81546 201.64682 199.42773 205.84375 C 195.04 210.04068 191.57193 213.19922 188.09961 213.19922 C 182.93188 213.19922 176.81641 209.62577 176.81641 200.17773 L 176.81641 96.816406 C 176.81641 58.085805 208.0831 26.800781 250 26.800781 z M 220.01562 63.599609 C 207.87187 63.599434 197.94318 73.486994 197.94336 85.607422 L 197.94336 111.32422 C 197.94319 123.44464 207.87189 133.33024 220.01562 133.33008 C 232.15893 133.32961 242.08806 123.44418 242.08789 111.32422 L 242.08789 85.607422 C 242.08807 73.487449 232.15894 63.60008 220.01562 63.599609 z M 280.01562 63.599609 C 267.87187 63.599434 257.94318 73.486994 257.94336 85.607422 L 257.94336 111.32422 C 257.94319 123.44464 267.87187 133.33024 280.01562 133.33008 C 292.15893 133.32961 302.08806 123.44418 302.08789 111.32422 L 302.08789 85.607422 C 302.08807 73.487449 292.15893 63.60008 280.01562 63.599609 z M 220.01562 70.400391 C 228.49694 70.40072 235.28725 77.175359 235.28711 85.607422 L 235.28711 111.32422 C 235.28724 119.75628 228.49694 126.53092 220.01562 126.53125 C 211.53401 126.53137 204.74207 119.7566 204.74219 111.32422 L 204.74219 85.607422 C 204.74206 77.175038 211.53402 70.400268 220.01562 70.400391 z M 280.01562 70.400391 C 288.49692 70.40072 295.28725 77.175359 295.28711 85.607422 L 295.28711 111.32422 C 295.28724 119.75628 288.49693 126.53092 280.01562 126.53125 C 271.534 126.53137 264.74207 119.7566 264.74219 111.32422 L 264.74219 85.607422 C 264.74206 77.175038 271.53401 70.400268 280.01562 70.400391 z "
       d="m 250,20.021484 c -45.31925,0 -79.96288,34.393127 -79.96289,76.794922 V 200.17773 c 0,12.62195 9.38519,19.80079 18.0625,19.80079 7.03832,0 11.72129,-5.13248 16.01172,-9.23633 4.29006,-4.10352 8.08636,-7.36328 12.90429,-7.36328 4.81834,0 9.26186,3.39077 14.35743,7.54101 5.09556,4.15025 10.84189,9.0586 18.62695,9.0586 7.78507,0 13.5348,-4.9064 18.63867,-9.05665 5.10386,-4.15024 9.55863,-7.54296 14.37695,-7.54296 4.81795,0 8.60522,3.25837 12.90821,7.36523 4.30331,4.10716 9.03143,9.23438 16.11719,9.23438 4.02196,0 8.51183,-1.1277 12.05468,-4.35352 3.54257,-3.22554 5.81115,-8.4242 5.86524,-15.41992 v -0.0117 -0.0137 c 0.0746,-101.011512 0,-2.35345 0,-103.363284 0,-23.707327 -8.62407,-43.087431 -23.01953,-56.365234 C 292.5459,27.173338 272.52486,20.021484 250,20.021484 Z m 0,6.757813 c 21.09859,0 39.3671,6.658863 52.35742,18.640625 12.99029,11.981717 20.8457,29.310376 20.8457,51.396484 0,100.990264 0.0745,2.437938 0,103.335934 -0.0435,5.63553 -1.65172,8.64769 -3.6582,10.47461 -2.00697,1.82737 -4.74005,2.59375 -7.5039,2.59375 -3.5801,0 -7.05911,-3.17148 -11.45313,-7.36523 -4.3937,-4.19344 -9.78745,-9.23438 -17.57227,-9.23438 -7.78505,0 -13.53675,4.9064 -18.64062,9.05664 -5.10386,4.15025 -9.55667,7.54297 -14.375,7.54297 -4.81831,0 -9.2638,-3.39077 -14.35938,-7.54101 -5.09557,-4.15025 -10.83994,-9.0586 -18.625,-9.0586 -7.7848,0 -13.18468,5.0415 -17.57226,9.23828 -2.19396,2.09856 -4.1584,3.93835 -6.00977,5.25391 -1.85136,1.31556 -3.59136,2.10742 -5.33398,2.10742 -2.58878,0 -5.41447,-0.896 -7.59375,-2.97461 -2.17928,-2.0786 -3.71094,-5.33974 -3.71094,-10.06836 V 96.816406 c 0,-38.742064 31.27758,-70.037109 73.20508,-70.037109 z m -29.98438,36.841797 c -12.13218,-1.75e-4 -22.05096,9.877532 -22.05078,21.986328 v 25.716798 c -1.7e-4,12.10879 9.91861,21.98453 22.05078,21.98437 12.13176,-4.7e-4 22.05096,-9.87604 22.05079,-21.98437 V 85.607422 c 1.8e-4,-12.10834 -9.91903,-21.985858 -22.05079,-21.986328 z m 60,0 c -12.13218,-1.75e-4 -22.05096,9.877532 -22.05078,21.986328 v 25.716798 c -1.7e-4,12.10879 9.91859,21.98453 22.05078,21.98437 12.13176,-4.7e-4 22.05096,-9.87604 22.05079,-21.98437 V 85.607422 c 1.8e-4,-12.10834 -9.91904,-21.985858 -22.05079,-21.986328 z m -60,6.757812 c 8.49267,3.3e-4 15.29311,6.785017 15.29297,15.228516 v 25.716798 c 1.3e-4,8.44349 -6.8003,15.22818 -15.29297,15.22851 -8.49295,1.2e-4 -15.29504,-6.78469 -15.29492,-15.22851 V 85.607422 c -1.3e-4,-8.443822 6.80198,-15.228639 15.29492,-15.228516 z m 60,0 c 8.49265,3.3e-4 15.29311,6.785017 15.29297,15.228516 v 25.716798 c 1.3e-4,8.44349 -6.80031,15.22818 -15.29297,15.22851 -8.49296,1.2e-4 -15.29504,-6.78469 -15.29492,-15.22851 V 85.607422 c -1.3e-4,-8.443822 6.80197,-15.228639 15.29492,-15.228516 z" /></g></svg>
