<?xml version="1.0" encoding="UTF-8" standalone="no"?>
<!-- Created with Inkscape (http://www.inkscape.org/) -->

<svg
   width="500mm"
   height="250mm"
   viewBox="0 0 500 250"
   version="1.1"
   id="svg1"
   xml:space="preserve"
   inkscape:version="1.4.2 (f4327f4, 2025-05-13)"
   sodipodi:docname="PacmanGhostV3.svg"
   inkscape:export-filename="PacmanGhostV3_2.svg"
   inkscape:export-xdpi="96"
   inkscape:export-ydpi="96"
   xmlns:inkscape="http://www.inkscape.org/namespaces/inkscape"
   xmlns:sodipodi="http://sodipodi.sourceforge.net/DTD/sodipodi-0.dtd"
   xmlns="http://www.w3.org/2000/svg"
   xmlns:svg="http://www.w3.org/2000/svg"><sodipodi:namedview
     id="namedview1"
     pagecolor="#ffffff"
     bordercolor="#000000"
     borderopacity="0.25"
     inkscape:showpageshadow="2"
     inkscape:pageopacity="0.0"
     inkscape:pagecheckerboard="0"
     inkscape:deskcolor="#d1d1d1"
     inkscape:document-units="mm"
     showgrid="true"
     inkscape:zoom="0.70710678"
     inkscape:cx="1160.3622"
     inkscape:cy="519.72348"
     inkscape:window-width="3440"
     inkscape:window-height="1369"
     inkscape:window-x="2552"
     inkscape:window-y="-8"
     inkscape:window-maximized="1"
     inkscape:current-layer="layer1"><inkscape:grid
       id="grid2"
       units="mm"
       originx="0"
       originy="0"
       spacingx="0.99999999"
       spacingy="0.99999999"
       empcolor="#0099e5"
       empopacity="0.30196078"
       color="#0099e5"
       opacity="0.14901961"
       empspacing="10"
       enabled="true"
       visible="true" /><inkscape:page
       x="0"
       y="0"
       width="500"
       height="250"
       id="page2"
       margin="0"
       bleed="0" /></sodipodi:namedview><defs
     id="defs1" /><g
     inkscape:label="Ebene 1"
     inkscape:groupmode="layer"
     id="layer1"><path
       id="path4-2-9-2"
       style="baseline-shift:baseline;display:inline;overflow:visible;vector-effect:none;fill:#c2ab00;fill-opacity:1;enable-background:accumulate;stop-color:#000000"
       sodipodi:type="inkscape:offset"
       inkscape:radius="-0.42897668"
       inkscape:original="M 250 20 C 204.66997 20 170.01563 54.403008 170.01562 96.816406 L 170.01562 200.17773 C 170.01562 212.81024 179.41055 220 188.09961 220 C 195.14828 220 199.83734 214.86088 204.12695 210.75781 C 208.41655 206.65474 212.2073 203.40039 217.01562 203.40039 C 221.82396 203.40039 226.26411 206.78555 231.35938 210.93555 C 236.45464 215.08555 242.20599 220 250 220 C 257.79402 220 263.54877 215.0875 268.65234 210.9375 C 273.7559 206.7875 278.2073 203.40039 283.01562 203.40039 C 287.82396 203.40039 291.60566 206.65333 295.9082 210.75977 C 300.21074 214.8662 304.94499 220 312.04102 220 C 316.06697 220 320.56173 218.87081 324.10938 215.64062 C 327.65702 212.41046 329.9283 207.20533 329.98242 200.20508 L 329.98242 200.19336 L 329.98242 200.17969 C 330.05702 99.16818 329.98242 197.82623 329.98242 96.816406 C 329.98242 73.103912 321.35502 53.717479 306.95508 40.435547 C 292.55514 27.153625 272.52937 20 250 20 z M 250 26.800781 C 271.09411 26.800781 289.35785 33.457867 302.34375 45.435547 C 315.32966 57.413226 323.18164 74.735347 323.18164 96.816406 C 323.18164 197.80668 323.25614 99.25434 323.18164 200.15234 C 323.13814 205.78388 321.5333 208.78844 319.53125 210.61133 C 317.52921 212.43421 314.80094 213.19922 312.04102 213.19922 C 308.47353 213.19922 304.99735 210.03341 300.60352 205.83984 C 296.20969 201.64628 290.80963 196.59961 283.01562 196.59961 C 275.22161 196.59961 269.4649 201.51211 264.36133 205.66211 C 259.25777 209.81211 254.80833 213.19922 250 213.19922 C 245.19169 213.19922 240.74957 209.81406 235.6543 205.66406 C 230.55903 201.51406 224.80963 196.59961 217.01562 196.59961 C 209.22162 196.59961 203.81546 201.64682 199.42773 205.84375 C 195.04 210.04068 191.57193 213.19922 188.09961 213.19922 C 182.93188 213.19922 176.81641 209.62577 176.81641 200.17773 L 176.81641 96.816406 C 176.81641 58.085805 208.0831 26.800781 250 26.800781 z M 220.01562 63.599609 C 207.87187 63.599434 197.94318 73.486994 197.94336 85.607422 L 197.94336 111.32422 C 197.94319 123.44464 207.87189 133.33024 220.01562 133.33008 C 232.15893 133.32961 242.08806 123.44418 242.08789 111.32422 L 242.08789 85.607422 C 242.08807 73.487449 232.15894 63.60008 220.01562 63.599609 z M 280.01562 63.599609 C 267.87187 63.599434 257.94318 73.486994 257.94336 85.607422 L 257.94336 111.32422 C 257.94319 123.44464 267.87187 133.33024 280.01562 133.33008 C 292.15893 133.32961 302.08806 123.44418 302.08789 111.32422 L 302.08789 85.607422 C 302.08807 73.487449 292.15893 63.60008 280.01562 63.599609 z M 220.01562 70.400391 C 228.49694 70.40072 235.28725 77.175359 235.28711 85.607422 L 235.28711 111.32422 C 235.28724 119.75628 228.49694 126.53092 220.01562 126.53125 C 211.53401 126.53137 204.74207 119.7566 204.74219 111.32422 L 204.74219 85.607422 C 204.74206 77.175038 211.53402 70.400268 220.01562 70.400391 z M 280.01562 70.400391 C 288.49692 70.40072 295.28725 77.175359 295.28711 85.607422 L 295.28711 111.32422 C 295.28724 119.75628 288.49693 126.53092 280.01562 126.53125 C 271.534 126.53137 264.74207 119.7566 264.74219 111.32422 L 264.74219 85.607422 C 264.74206 77.175038 271.53401 70.400268 280.01562 70.400391 z "
       d="m 250,20.429687 c -45.11298,0 -79.55468,34.206988 -79.55469,76.386719 V 200.17773 c 0,12.41982 9.20188,19.39258 17.6543,19.39258 6.84016,0 11.4244,-5.00424 15.73047,-9.12304 4.29895,-4.11202 8.18367,-7.47657 13.18554,-7.47657 5.00968,0 9.51392,3.47789 14.61524,7.63282 5.10128,4.1549 10.75546,8.96679 18.36914,8.96679 7.61377,0 13.27119,-4.80988 18.38086,-8.96484 5.10965,-4.15495 9.62499,-7.63477 14.63476,-7.63477 5.00182,0 8.87795,3.36352 13.18946,7.47852 4.31802,4.12121 8.94681,9.12109 15.83594,9.12109 3.94573,0 8.32821,-1.10383 11.77929,-4.24609 3.44472,-3.13645 5.67815,-8.21215 5.73242,-15.11914 v -0.004 -0.008 -0.0137 c 0.0746,-101.011508 0,-2.35325 0,-103.363284 0,-23.608443 -8.57888,-42.867624 -22.88867,-56.066406 C 292.35339,27.550417 272.43856,20.429687 250,20.429687 Z m 0,5.941407 c 21.18436,0 39.55975,6.690121 52.63477,18.75 13.07407,12.058999 20.97656,29.512558 20.97656,51.695312 0,100.990064 0.0745,2.437933 0,103.335934 a 0.42901958,0.42901958 0 0 1 0,0.004 c -0.0441,5.71185 -1.69984,8.86745 -3.79102,10.77148 -2.10131,1.91328 -4.9401,2.70118 -7.77929,2.70118 -3.82128,0 -7.33681,-3.28138 -11.73438,-7.47852 -4.39119,-4.19104 -9.68218,-9.12109 -17.29102,-9.12109 -7.61375,0 -13.27318,4.80992 -18.38281,8.96484 -5.1096,4.15492 -9.62303,7.63477 -14.63281,7.63477 -5.00965,0 -9.51583,-3.47785 -14.61719,-7.63282 -5.10133,-4.15493 -10.7535,-8.96679 -18.36719,-8.96679 -7.6088,0 -12.90633,4.93098 -17.29101,9.125 -2.19582,2.10033 -4.16999,3.95038 -6.05664,5.29101 -1.88665,1.34064 -3.70213,2.1836 -5.56836,2.1836 -2.68274,0 -5.61062,-0.92812 -7.875,-3.08789 -2.26438,-2.15978 -3.83789,-5.54671 -3.83789,-10.36329 V 96.816406 c 0,-38.961472 31.48293,-70.445312 73.61328,-70.445312 z m -29.98438,37.658203 c -11.91089,-1.72e-4 -21.64275,9.69197 -21.64257,21.578125 v 25.716798 c -1.7e-4,11.88615 9.73165,21.57633 21.64257,21.57617 11.91051,-4.6e-4 21.64275,-9.6905 21.64258,-21.57617 V 85.607422 c 1.8e-4,-11.885681 -9.7321,-21.577663 -21.64258,-21.578125 z m 60,0 c -11.91089,-1.72e-4 -21.64275,9.69197 -21.64257,21.578125 v 25.716798 c -1.7e-4,11.88615 9.73163,21.57633 21.64257,21.57617 11.91051,-4.6e-4 21.64275,-9.6905 21.64258,-21.57617 V 85.607422 c 1.8e-4,-11.88568 -9.73211,-21.577663 -21.64258,-21.578125 z m -60,5.941406 c 8.70975,3.38e-4 15.70132,6.97435 15.70118,15.636719 v 25.716798 c 1.3e-4,8.66236 -6.99143,15.63638 -15.70118,15.63672 -8.71004,1.2e-4 -15.70324,-6.97399 -15.70312,-15.63672 V 85.607422 c -1.3e-4,-8.662737 6.99309,-15.636845 15.70312,-15.636719 z m 60,0 c 8.70973,3.38e-4 15.70132,6.974349 15.70118,15.636719 v 25.716798 c 1.3e-4,8.66236 -6.99144,15.63638 -15.70118,15.63672 -8.71005,1.2e-4 -15.70324,-6.97399 -15.70312,-15.63672 V 85.607422 c -1.3e-4,-8.662737 6.99308,-15.636845 15.70312,-15.636719 z" /></g></svg>
