<?xml version="1.0" encoding="UTF-8" standalone="no"?>
<!-- Created with Inkscape (http://www.inkscape.org/) -->

<svg
   width="500mm"
   height="250mm"
   viewBox="0 0 500 250"
   version="1.1"
   id="svg1"
   xml:space="preserve"
   inkscape:version="1.4.2 (f4327f4, 2025-05-13)"
   sodipodi:docname="PacmanGhostV3.svg"
   inkscape:export-filename="PacmanGhostV3_2.svg"
   inkscape:export-xdpi="96"
   inkscape:export-ydpi="96"
   xmlns:inkscape="http://www.inkscape.org/namespaces/inkscape"
   xmlns:sodipodi="http://sodipodi.sourceforge.net/DTD/sodipodi-0.dtd"
   xmlns="http://www.w3.org/2000/svg"
   xmlns:svg="http://www.w3.org/2000/svg"><sodipodi:namedview
     id="namedview1"
     pagecolor="#ffffff"
     bordercolor="#000000"
     borderopacity="0.25"
     inkscape:showpageshadow="2"
     inkscape:pageopacity="0.0"
     inkscape:pagecheckerboard="0"
     inkscape:deskcolor="#d1d1d1"
     inkscape:document-units="mm"
     showgrid="true"
     inkscape:zoom="1"
     inkscape:cx="1116.5"
     inkscape:cy="578.5"
     inkscape:window-width="3440"
     inkscape:window-height="1369"
     inkscape:window-x="2552"
     inkscape:window-y="-8"
     inkscape:window-maximized="1"
     inkscape:current-layer="layer1"><inkscape:grid
       id="grid2"
       units="mm"
       originx="0"
       originy="0"
       spacingx="0.99999999"
       spacingy="0.99999999"
       empcolor="#0099e5"
       empopacity="0.30196078"
       color="#0099e5"
       opacity="0.14901961"
       empspacing="10"
       enabled="true"
       visible="true" /><inkscape:page
       x="0"
       y="0"
       width="500"
       height="250"
       id="page2"
       margin="0"
       bleed="0" /></sodipodi:namedview><defs
     id="defs1" /><g
     inkscape:label="Ebene 1"
     inkscape:groupmode="layer"
     id="layer1"><path
       id="path4-2-9-1-3"
       style="baseline-shift:baseline;display:inline;overflow:visible;vector-effect:none;fill:#c200cb;fill-opacity:1;stroke:none;stroke-opacity:1;enable-background:accumulate;stop-color:#000000"
       d="m 279.98485,17.845824 c -46.22877,0 -81.75986,35.21064 -81.75986,78.59158 V 199.79906 c 0,13.5132 10.19033,21.59765 19.85925,21.59765 7.91205,0 13.03431,-5.6969 17.25579,-9.73481 4.2509,-4.06604 7.65343,-6.86521 11.66027,-6.86521 3.97464,0 8.15224,3.00744 13.22245,7.13703 5.07035,4.1297 11.22141,9.46299 19.7621,9.46299 8.5404,0 14.69464,-5.3299 19.77296,-9.45937 5.07835,-4.12951 9.26845,-7.14065 13.2426,-7.14065 4.0072,0 7.40055,2.79835 11.66595,6.86935 4.23843,4.04524 9.40639,9.73067 17.35915,9.73067 4.35809,0 9.31626,-1.22817 13.26379,-4.82244 3.97098,-3.61562 6.39632,-9.35676 6.45335,-16.73438 2e-5,-0.005 2e-5,-0.009 0,-0.014 v -0.0114 -0.0119 -0.002 c 0.0746,-101.002076 0,-2.35616 0,-103.36321 0,-24.14334 -8.82481,-44.0612 -23.59804,-57.68743 C 323.37503,25.12708 302.89023,17.8458 279.98485,17.8458 Z m -43.2139,53.95123 c 7.53545,2.9e-4 13.49646,5.9528 13.49633,13.43122 v 25.717286 c 1.2e-4,7.47842 -5.96088,13.43093 -13.49633,13.43122 -7.53572,1.1e-4 -13.49799,-5.95267 -13.49788,-13.43122 V 85.228274 c -1.2e-4,-7.47855 5.96217,-13.43133 13.49788,-13.43122 z m 51.5333,0 c 7.53543,2.9e-4 13.49645,5.9528 13.49633,13.43122 v 25.717286 c 1.2e-4,7.47842 -5.9609,13.43093 -13.49633,13.43122 -7.53574,1.1e-4 -13.49799,-5.95267 -13.49789,-13.43122 V 85.228274 c -1.1e-4,-7.47855 5.96216,-13.43133 13.49789,-13.43122 z"
       sodipodi:nodetypes="cssssssssssssssccssssccccccccccccccc" /></g></svg>
