<?xml version="1.0" encoding="UTF-8" standalone="no"?>
<!-- Created with Inkscape (http://www.inkscape.org/) -->

<svg
   width="500mm"
   height="250mm"
   viewBox="0 0 500 250"
   version="1.1"
   id="svg1"
   xml:space="preserve"
   inkscape:version="1.4.2 (f4327f4, 2025-05-13)"
   sodipodi:docname="PacmanGhostV3.svg"
   inkscape:export-filename="PackmanV2_0a.svg"
   inkscape:export-xdpi="96"
   inkscape:export-ydpi="96"
   xmlns:inkscape="http://www.inkscape.org/namespaces/inkscape"
   xmlns:sodipodi="http://sodipodi.sourceforge.net/DTD/sodipodi-0.dtd"
   xmlns="http://www.w3.org/2000/svg"
   xmlns:svg="http://www.w3.org/2000/svg"><sodipodi:namedview
     id="namedview1"
     pagecolor="#ffffff"
     bordercolor="#000000"
     borderopacity="0.25"
     inkscape:showpageshadow="2"
     inkscape:pageopacity="0.0"
     inkscape:pagecheckerboard="0"
     inkscape:deskcolor="#d1d1d1"
     inkscape:document-units="mm"
     showgrid="true"
     inkscape:zoom="0.70710678"
     inkscape:cx="1160.3622"
     inkscape:cy="519.72348"
     inkscape:window-width="3440"
     inkscape:window-height="1369"
     inkscape:window-x="2552"
     inkscape:window-y="-8"
     inkscape:window-maximized="1"
     inkscape:current-layer="layer1"><inkscape:grid
       id="grid2"
       units="mm"
       originx="0"
       originy="0"
       spacingx="0.99999999"
       spacingy="0.99999999"
       empcolor="#0099e5"
       empopacity="0.30196078"
       color="#0099e5"
       opacity="0.14901961"
       empspacing="10"
       enabled="true"
       visible="true" /></sodipodi:namedview><defs
     id="defs1" /><g
     inkscape:label="Ebene 1"
     inkscape:groupmode="layer"
     id="layer1"><path
       id="path4-6"
       style="baseline-shift:baseline;display:inline;overflow:visible;vector-effect:none;fill:#c20000;fill-opacity:1;enable-background:accumulate;stop-color:#000000"
       sodipodi:type="inkscape:offset"
       inkscape:radius="1.5996094"
       inkscape:original="M 260 6.5996094 C 213.28741 6.5996094 177.59961 42.165078 177.59961 86 L 177.59961 193 C 177.59961 206.01549 187.23258 213.40039 196.14648 213.40039 C 203.34821 213.40039 208.17498 208.17016 212.60742 203.9668 C 217.03987 199.76343 220.98205 196.40039 226 196.40039 C 231.01795 196.40039 235.61133 199.89258 240.86133 204.14258 C 246.11133 208.39258 252.01795 213.40039 260 213.40039 C 267.98205 213.40039 273.88867 208.39258 279.13867 204.14258 C 284.38867 199.89258 288.98205 196.40039 294 196.40039 C 299.01795 196.40039 302.96172 199.76582 307.41602 203.97266 C 311.87032 208.17949 316.74848 213.40039 324 213.40039 C 328.13525 213.40039 332.74664 212.23474 336.38086 208.91406 C 340.01508 205.59338 342.34477 200.24553 342.40039 193.02539 L 342.40039 193.01367 L 342.40039 193.00195 C 342.47739 88.435179 342.40039 190.5651 342.40039 86 C 342.40039 61.484484 333.51662 41.456398 318.68555 27.728516 C 303.85448 14.000594 283.22016 6.5996094 260 6.5996094 z M 260 13.400391 C 281.77984 13.400391 300.64552 20.297965 314.06445 32.71875 C 327.48338 45.139535 335.59961 63.11018 335.59961 86 C 335.59961 190.54553 335.67651 88.52133 335.59961 192.97461 C 335.55451 198.83085 333.88356 201.9843 331.79297 203.89453 C 329.70237 205.80476 326.86475 206.59961 324 206.59961 C 320.25152 206.59961 316.62968 203.32051 312.08398 199.02734 C 307.53828 194.73418 301.98205 189.59961 294 189.59961 C 286.01795 189.59961 280.11133 194.60742 274.86133 198.85742 C 269.61133 203.10742 265.01795 206.59961 260 206.59961 C 254.98205 206.59961 250.38867 203.10742 245.13867 198.85742 C 239.88867 194.60742 233.98205 189.59961 226 189.59961 C 218.01795 189.59961 212.46049 194.73657 207.92969 199.0332 C 203.39889 203.32984 199.79773 206.59961 196.14648 206.59961 C 190.76633 206.59961 184.40039 202.84223 184.40039 193 L 184.40039 86 C 184.40039 45.83492 216.71259 13.400391 260 13.400391 z M 215.16797 51.480469 C 202.69234 51.480288 192.50567 61.666943 192.50586 74.142578 L 192.50586 97.478516 C 192.50568 109.95414 202.69234 120.13885 215.16797 120.13867 C 227.64314 120.13819 237.8283 109.95368 237.82812 97.478516 L 237.82812 74.142578 C 237.82832 61.667409 227.64314 51.480955 215.16797 51.480469 z M 264.69727 51.480469 C 252.22163 51.480288 242.03497 61.666943 242.03516 74.142578 L 242.03516 97.478516 C 242.03498 109.95414 252.22164 120.13885 264.69727 120.13867 C 277.17243 120.13819 287.3576 109.95368 287.35742 97.478516 L 287.35742 74.142578 C 287.35761 61.667409 277.17243 51.480955 264.69727 51.480469 z M 215.16797 58.28125 C 223.9682 58.281593 231.02943 65.342347 231.0293 74.142578 L 231.0293 97.478516 C 231.02942 106.27875 223.9682 113.3395 215.16797 113.33984 C 206.3674 113.33997 199.30652 106.27908 199.30664 97.478516 L 199.30664 74.142578 C 199.30651 65.34201 206.3674 58.281123 215.16797 58.28125 z M 264.69727 58.28125 C 273.4975 58.281593 280.55677 65.342347 280.55664 74.142578 L 280.55664 97.478516 C 280.55676 106.27875 273.4975 113.3395 264.69727 113.33984 C 255.8967 113.33997 248.83386 106.27908 248.83398 97.478516 L 248.83398 74.142578 C 248.83385 65.34201 255.8967 58.281123 264.69727 58.28125 z "
       d="m 260,5 c -47.52452,0 -84,36.296873 -84,81 v 107 c 0,13.80475 10.3491,22 20.14648,22 7.97621,0 13.19008,-5.7266 17.5625,-9.87305 C 218.10693,200.9563 221.69676,198 226,198 c 4.2758,0 8.62705,3.15419 13.85547,7.38672 C 245.08389,209.61925 251.3489,215 260,215 c 8.6511,0 14.91611,-5.38075 20.14453,-9.61328 C 285.37295,201.15419 289.7242,198 294,198 c 4.30273,0 7.89711,2.95914 12.31836,7.13477 C 310.7162,209.28827 315.9807,215 324,215 c 4.43585,0 9.46494,-1.25483 13.45898,-4.9043 4.01427,-3.66793 6.4828,-9.50047 6.54102,-17.05859 a 1.5997693,1.5997693 0 0 0 0,-0.0117 v -0.0117 -0.01 -0.002 C 344.07699,88.444618 344,190.56241 344,86 344,61.098047 334.93805,40.593108 319.77148,26.554687 304.60795,12.519031 283.56006,5 260,5 Z m 0,10 c 21.44211,0 39.89143,6.778951 52.97852,18.892578 C 326.06896,46.009307 334,63.488304 334,86 c 0,104.54631 0.0769,2.519395 0,106.97266 -0.0447,5.54875 -1.52957,8.1361 -3.28516,9.74023 C 328.99323,204.28597 326.56887,205 324,205 c -2.81561,0 -6.28542,-2.85365 -10.81836,-7.13477 C 308.62576,193.56246 302.66803,188 294,188 c -8.6511,0 -14.91611,5.38075 -20.14453,9.61328 C 268.62705,201.84581 264.2758,205 260,205 c -4.2758,0 -8.62705,-3.15419 -13.85547,-7.38672 C 240.91611,193.38075 234.6511,188 226,188 c -8.66835,0 -14.62909,5.56505 -19.17188,9.87305 C 202.31039,202.1573 198.84275,205 196.14648,205 c -2.31769,0 -4.85154,-0.81293 -6.7832,-2.66406 C 187.43163,200.48481 186,197.57624 186,193 V 86 c 0,-39.307172 31.51163,-71 74,-71 z m -44.83203,34.880859 c -13.34639,-1.93e-4 -24.26192,10.915323 -24.26172,24.261719 v 23.335938 c -1.9e-4,13.346384 10.9155,24.259954 24.26172,24.259764 13.34573,-5.1e-4 24.25996,-10.91394 24.25976,-24.259764 V 74.142578 c 2.2e-4,-13.345836 -10.91386,-24.261199 -24.25976,-24.261719 z m 49.5293,0 c -13.3464,-1.93e-4 -24.26193,10.915324 -24.26172,24.261719 v 23.335938 c -2e-4,13.346384 10.91549,24.259954 24.26172,24.259764 13.34572,-5.1e-4 24.25995,-10.91394 24.25976,-24.259764 V 74.142578 c 2e-4,-13.345835 -10.91388,-24.261199 -24.25976,-24.261719 z m -49.5293,10 c 7.94464,3.1e-4 14.26183,6.317176 14.26172,14.261719 v 23.335938 c 1.1e-4,7.944544 -6.31708,14.261414 -14.26172,14.261714 -7.94496,1.2e-4 -14.26183,-6.31676 -14.26172,-14.261714 V 74.142578 c -1.2e-4,-7.944954 6.31676,-14.261833 14.26172,-14.261719 z m 49.5293,0 c 7.94464,3.1e-4 14.25988,6.316938 14.25976,14.261719 v 23.335938 c 1.1e-4,7.944784 -6.31512,14.261414 -14.25976,14.261714 -7.94496,1.2e-4 -14.26378,-6.317 -14.26368,-14.261714 V 74.142578 c -1.1e-4,-7.944716 6.31872,-14.261833 14.26368,-14.261719 z" /><path
       id="path4-1"
       style="baseline-shift:baseline;display:inline;overflow:visible;vector-effect:none;fill:#c29a00;fill-opacity:1;enable-background:accumulate;stop-color:#000000"
       sodipodi:type="inkscape:offset"
       inkscape:radius="0.47129661"
       inkscape:original="M 260 6.5996094 C 213.28741 6.5996094 177.59961 42.165078 177.59961 86 L 177.59961 193 C 177.59961 206.01549 187.23258 213.40039 196.14648 213.40039 C 203.34821 213.40039 208.17498 208.17016 212.60742 203.9668 C 217.03987 199.76343 220.98205 196.40039 226 196.40039 C 231.01795 196.40039 235.61133 199.89258 240.86133 204.14258 C 246.11133 208.39258 252.01795 213.40039 260 213.40039 C 267.98205 213.40039 273.88867 208.39258 279.13867 204.14258 C 284.38867 199.89258 288.98205 196.40039 294 196.40039 C 299.01795 196.40039 302.96172 199.76582 307.41602 203.97266 C 311.87032 208.17949 316.74848 213.40039 324 213.40039 C 328.13525 213.40039 332.74664 212.23474 336.38086 208.91406 C 340.01508 205.59338 342.34477 200.24553 342.40039 193.02539 L 342.40039 193.01367 L 342.40039 193.00195 C 342.47739 88.435179 342.40039 190.5651 342.40039 86 C 342.40039 61.484484 333.51662 41.456398 318.68555 27.728516 C 303.85448 14.000594 283.22016 6.5996094 260 6.5996094 z M 260 13.400391 C 281.77984 13.400391 300.64552 20.297965 314.06445 32.71875 C 327.48338 45.139535 335.59961 63.11018 335.59961 86 C 335.59961 190.54553 335.67651 88.52133 335.59961 192.97461 C 335.55451 198.83085 333.88356 201.9843 331.79297 203.89453 C 329.70237 205.80476 326.86475 206.59961 324 206.59961 C 320.25152 206.59961 316.62968 203.32051 312.08398 199.02734 C 307.53828 194.73418 301.98205 189.59961 294 189.59961 C 286.01795 189.59961 280.11133 194.60742 274.86133 198.85742 C 269.61133 203.10742 265.01795 206.59961 260 206.59961 C 254.98205 206.59961 250.38867 203.10742 245.13867 198.85742 C 239.88867 194.60742 233.98205 189.59961 226 189.59961 C 218.01795 189.59961 212.46049 194.73657 207.92969 199.0332 C 203.39889 203.32984 199.79773 206.59961 196.14648 206.59961 C 190.76633 206.59961 184.40039 202.84223 184.40039 193 L 184.40039 86 C 184.40039 45.83492 216.71259 13.400391 260 13.400391 z M 215.16797 51.480469 C 202.69234 51.480288 192.50567 61.666943 192.50586 74.142578 L 192.50586 97.478516 C 192.50568 109.95414 202.69234 120.13885 215.16797 120.13867 C 227.64314 120.13819 237.8283 109.95368 237.82812 97.478516 L 237.82812 74.142578 C 237.82832 61.667409 227.64314 51.480955 215.16797 51.480469 z M 264.69727 51.480469 C 252.22163 51.480288 242.03497 61.666943 242.03516 74.142578 L 242.03516 97.478516 C 242.03498 109.95414 252.22164 120.13885 264.69727 120.13867 C 277.17243 120.13819 287.3576 109.95368 287.35742 97.478516 L 287.35742 74.142578 C 287.35761 61.667409 277.17243 51.480955 264.69727 51.480469 z M 215.16797 58.28125 C 223.9682 58.281593 231.02943 65.342347 231.0293 74.142578 L 231.0293 97.478516 C 231.02942 106.27875 223.9682 113.3395 215.16797 113.33984 C 206.3674 113.33997 199.30652 106.27908 199.30664 97.478516 L 199.30664 74.142578 C 199.30651 65.34201 206.3674 58.281123 215.16797 58.28125 z M 264.69727 58.28125 C 273.4975 58.281593 280.55677 65.342347 280.55664 74.142578 L 280.55664 97.478516 C 280.55676 106.27875 273.4975 113.3395 264.69727 113.33984 C 255.8967 113.33997 248.83386 106.27908 248.83398 97.478516 L 248.83398 74.142578 C 248.83385 65.34201 255.8967 58.281123 264.69727 58.28125 z "
       d="M 260,6.1289062 C 213.04819,6.1289062 177.12891,41.909277 177.12891,86 v 107 c 0,13.24803 9.84337,20.87109 19.01757,20.87109 7.42992,0 12.3704,-5.3759 16.78516,-9.5625 4.42228,-4.19373 8.26099,-7.4375 13.06836,-7.4375 4.79929,0 9.32081,3.39382 14.56445,7.63868 5.24365,4.24485 11.25638,9.36132 19.43555,9.36132 8.17917,0 14.1919,-5.11647 19.43555,-9.36132 5.24364,-4.24486 9.76516,-7.63868 14.56445,-7.63868 4.80722,0 8.64723,3.24572 13.0918,7.44336 4.43766,4.19112 9.43047,9.55664 16.9082,9.55664 4.22382,0 8.95898,-1.19182 12.69922,-4.60937 3.74619,-3.42299 6.11549,-8.9127 6.17187,-16.23242 a 0.47134374,0.47134374 0 0 0 0,-0.004 v -0.0117 -0.0117 c 0.077,-104.566773 0,-2.43708 0,-107.00195 0,-24.629373 -8.93531,-44.797811 -23.86523,-58.617188 C 304.07683,13.564222 283.3203,6.1289063 260,6.1289062 Z m 0,7.7421878 c 21.68034,0 40.42298,6.863073 53.74414,19.193359 13.32215,12.3312 21.38477,30.157135 21.38477,52.935547 0,104.54576 0.0769,2.521335 0,106.97461 -0.0452,5.76503 -1.66257,8.75237 -3.6543,10.57226 -1.98188,1.8109 -4.69704,2.58204 -7.47461,2.58204 -3.47363,0 -7.04986,-3.15374 -11.5918,-7.44336 -4.5487,-4.296 -10.22404,-9.55664 -18.4082,-9.55664 -8.17917,0 -14.1919,5.11647 -19.43555,9.36132 -5.24364,4.24486 -9.76516,7.63868 -14.56445,7.63868 -4.79929,0 -9.32081,-3.39382 -14.56445,-7.63868 -5.24365,-4.24485 -11.25638,-9.36132 -19.43555,-9.36132 -8.18426,0 -13.8602,5.26252 -18.39453,9.5625 -4.52695,4.29299 -8.08911,7.4375 -11.45899,7.4375 -2.58036,0 -5.39837,-0.90273 -7.56445,-2.97852 C 186.41595,201.07461 184.87109,197.8195 184.87109,193 V 86 c 0,-39.912313 32.07692,-72.128906 75.12891,-72.128906 z m -44.83203,37.138672 c -12.73219,-1.85e-4 -23.13301,10.400623 -23.13281,23.132812 v 23.335938 c -1.9e-4,12.732174 10.40067,23.131044 23.13281,23.130864 12.73166,-4.9e-4 23.13104,-10.39917 23.13086,-23.130864 V 74.142578 c 2e-4,-12.731695 -10.39915,-23.132316 -23.13086,-23.132812 z m 49.5293,0 c -12.7322,-1.85e-4 -23.13301,10.400623 -23.13282,23.132812 v 23.335938 c -1.8e-4,12.732174 10.40068,23.131044 23.13282,23.130864 12.73165,-4.9e-4 23.13104,-10.39917 23.13085,-23.130864 V 74.142578 c 2e-4,-12.731695 -10.39915,-23.132316 -23.13085,-23.132812 z m -49.5293,7.742187 c 8.54815,3.33e-4 15.39075,6.842507 15.39062,15.390625 v 23.335938 c 1.2e-4,8.548124 -6.84247,15.390294 -15.39062,15.390624 -8.54848,1.3e-4 -15.39074,-6.84215 -15.39063,-15.390624 V 74.142578 c -1.2e-4,-8.548476 6.84215,-15.390748 15.39063,-15.390625 z m 49.5293,0 c 8.54814,3.33e-4 15.38879,6.842437 15.38867,15.390625 v 23.335938 c 1.1e-4,8.548194 -6.84053,15.390294 -15.38867,15.390624 -8.54848,1.3e-4 -15.3927,-6.84222 -15.39258,-15.390624 V 74.142578 c -1.3e-4,-8.548406 6.8441,-15.390748 15.39258,-15.390625 z" /><path
       style="baseline-shift:baseline;display:inline;overflow:visible;vector-effect:none;enable-background:accumulate;stop-color:#000000;stop-opacity:1;opacity:1"
       d="M 260,6.5996094 C 213.28741,6.5996094 177.59961,42.165078 177.59961,86 v 107 c 0,13.01549 9.63297,20.40039 18.54687,20.40039 7.20173,0 12.0285,-5.23023 16.46094,-9.43359 4.43245,-4.20337 8.37463,-7.56641 13.39258,-7.56641 5.01795,0 9.61133,3.49219 14.86133,7.74219 5.25,4.25 11.15662,9.25781 19.13867,9.25781 7.98205,0 13.88867,-5.00781 19.13867,-9.25781 5.25,-4.25 9.84338,-7.74219 14.86133,-7.74219 5.01795,0 8.96172,3.36543 13.41602,7.57227 4.4543,4.20683 9.33246,9.42773 16.58398,9.42773 4.13525,0 8.74664,-1.16565 12.38086,-4.48633 3.63422,-3.32068 5.96391,-8.66853 6.01953,-15.88867 v -0.0117 -0.0117 c 0.077,-104.566774 0,-2.43685 0,-107.00195 0,-24.515516 -8.88377,-44.543602 -23.71484,-58.271484 C 303.85448,14.000634 283.22016,6.5996094 260,6.5996094 Z m 0,6.8007816 c 21.77984,0 40.64552,6.897574 54.06445,19.318359 13.41893,12.420785 21.53516,30.39143 21.53516,53.28125 0,104.54553 0.0769,2.521331 0,106.97461 -0.0451,5.85624 -1.71605,9.00969 -3.80664,10.91992 -2.0906,1.91023 -4.92822,2.70508 -7.79297,2.70508 -3.74848,0 -7.37032,-3.2791 -11.91602,-7.57227 -4.5457,-4.29316 -10.10193,-9.42773 -18.08398,-9.42773 -7.98205,0 -13.88867,5.00781 -19.13867,9.25781 -5.25,4.25 -9.84338,7.74219 -14.86133,7.74219 -5.01795,0 -9.61133,-3.49219 -14.86133,-7.74219 -5.25,-4.25 -11.15662,-9.25781 -19.13867,-9.25781 -7.98205,0 -13.53951,5.13696 -18.07031,9.43359 -4.5308,4.29664 -8.13196,7.56641 -11.78321,7.56641 -5.38015,0 -11.74609,-3.75738 -11.74609,-13.59961 V 86 c 0,-40.16508 32.3122,-72.599609 75.59961,-72.599609 z m -44.83203,38.080078 c -12.47563,-1.81e-4 -22.6623,10.186474 -22.66211,22.662109 v 23.335938 c -1.8e-4,12.475624 10.18648,22.660334 22.66211,22.660154 12.47517,-4.8e-4 22.66033,-10.18499 22.66015,-22.660154 V 74.142578 c 1.9e-4,-12.475169 -10.18498,-22.661623 -22.66015,-22.662109 z m 49.5293,0 c -12.47564,-1.81e-4 -22.6623,10.186474 -22.66211,22.662109 v 23.335938 c -1.8e-4,12.475624 10.18648,22.660334 22.66211,22.660154 12.47516,-4.8e-4 22.66033,-10.18499 22.66015,-22.660154 V 74.142578 c 1.9e-4,-12.475169 -10.18499,-22.661623 -22.66015,-22.662109 z m -49.5293,6.800781 c 8.80023,3.43e-4 15.86146,7.061097 15.86133,15.861328 v 23.335938 c 1.2e-4,8.800234 -7.0611,15.860984 -15.86133,15.861324 -8.80057,1.3e-4 -15.86145,-7.06076 -15.86133,-15.861324 V 74.142578 c -1.3e-4,-8.800568 7.06076,-15.861455 15.86133,-15.861328 z m 49.5293,0 c 8.80023,3.43e-4 15.8595,7.061097 15.85937,15.861328 v 23.335938 c 1.2e-4,8.800234 -7.05914,15.860984 -15.85937,15.861324 -8.80057,1.3e-4 -15.86341,-7.06076 -15.86329,-15.861324 V 74.142578 c -1.3e-4,-8.800568 7.06272,-15.861455 15.86329,-15.861328 z"
       id="path4" /><path
       id="path4-2"
       style="fill:none;fill-opacity:1;stroke:#000000;stroke-width:6.8;stroke-dasharray:none;stroke-opacity:1"
       d="m 619,-56.000001 c -45,0 -79,34 -79,76.000001 v 107 c 0,11.42886 8,17 15.14703,17 C 566,144 572,127 585,127 c 13,0 21,17 34,17 13,0 21,-17 34,-17 13,0 19,17 30,17 7,0 14.89927,-3.92362 15,-17 0.077,-104.566739 0,-2.43323 0,-107 0,-47.405336 -34,-76.000001 -79,-76.000001 z m -44.83174,44.880371 c 10.6377,4.15e-4 19.261,8.6241732 19.26084,19.2618732 V 31.47777 c 1.5e-4,10.637699 -8.62314,19.261459 -19.26084,19.261869 -10.6381,1.5e-4 -19.26202,-8.62377 -19.26187,-19.261869 V 8.1422432 c -1.6e-4,-10.638102 8.62377,-19.2620272 19.26187,-19.2618732 z m 49.52824,0 c 10.6377,4.15e-4 19.261,8.6241732 19.26084,19.2618732 V 31.47777 c 1.5e-4,10.637699 -8.62314,19.261459 -19.26084,19.261869 -10.6381,1.5e-4 -19.26202,-8.62377 -19.26187,-19.261869 V 8.1422432 c -1.6e-4,-10.638102 8.62377,-19.2620272 19.26187,-19.2618732 z"
       sodipodi:nodetypes="scsszssscsscccccccccccccc" /></g></svg>
