<?xml version="1.0" encoding="UTF-8" standalone="no"?>
<!-- Created with Inkscape (http://www.inkscape.org/) -->

<svg
   width="500mm"
   height="250mm"
   viewBox="0 0 500 250"
   version="1.1"
   id="svg1"
   xml:space="preserve"
   inkscape:version="1.4.2 (f4327f4, 2025-05-13)"
   sodipodi:docname="PacmanGhostV3.svg"
   inkscape:export-filename="PacmanGhostV3.dot_3.svg"
   inkscape:export-xdpi="96"
   inkscape:export-ydpi="96"
   xmlns:inkscape="http://www.inkscape.org/namespaces/inkscape"
   xmlns:sodipodi="http://sodipodi.sourceforge.net/DTD/sodipodi-0.dtd"
   xmlns="http://www.w3.org/2000/svg"
   xmlns:svg="http://www.w3.org/2000/svg"><sodipodi:namedview
     id="namedview1"
     pagecolor="#ffffff"
     bordercolor="#000000"
     borderopacity="0.25"
     inkscape:showpageshadow="2"
     inkscape:pageopacity="0.0"
     inkscape:pagecheckerboard="0"
     inkscape:deskcolor="#d1d1d1"
     inkscape:document-units="mm"
     showgrid="true"
     inkscape:zoom="0.35355339"
     inkscape:cx="332.34019"
     inkscape:cy="1030.9617"
     inkscape:window-width="2560"
     inkscape:window-height="1369"
     inkscape:window-x="-8"
     inkscape:window-y="-8"
     inkscape:window-maximized="1"
     inkscape:current-layer="layer1"><inkscape:grid
       id="grid2"
       units="mm"
       originx="0"
       originy="0"
       spacingx="0.99999999"
       spacingy="0.99999999"
       empcolor="#0099e5"
       empopacity="0.30196078"
       color="#0099e5"
       opacity="0.14901961"
       empspacing="10"
       enabled="true"
       visible="true" /></sodipodi:namedview><defs
     id="defs1" /><g
     inkscape:label="Ebene 1"
     inkscape:groupmode="layer"
     id="layer1"><path
       style="baseline-shift:baseline;display:inline;overflow:visible;opacity:1;vector-effect:none;fill:#ff0000;enable-background:accumulate;stop-color:#000000;stop-opacity:1"
       d="m 232.2998,107.30078 v 35.39844 h 35.40039 v -35.39844 z m 10.40039,10.39844 h 14.59961 v 14.60156 h -14.59961 z"
       id="rect10-8-7" /><path
       id="path5-1-3-6-68"
       style="baseline-shift:baseline;display:inline;overflow:visible;vector-effect:none;fill:#ff00c8;fill-opacity:1;enable-background:accumulate;stop-color:#000000"
       d="m 169.60643,11.423779 c -63.22936,-5.6e-5 -114.599799,51.35363 -114.599719,114.564581 2.1e-4,63.21074 51.370569,114.56257 114.599719,114.56252 28.78772,-8e-5 56.52593,-10.83434 77.68931,-30.34389 l 0.30489,-0.28112 3.56258,-3.50831 -3.5357,-3.5357 -0.003,0.003 -75.57161,-75.57161 80.52583,-80.527386 -3.85196,-3.674194 C 227.41065,22.773406 199.07273,11.423927 169.60643,11.423779 Z m -15.81247,32.716866 c 14.27254,0 25.72814,11.453938 25.72814,25.718843 0,14.264906 -11.4556,25.718844 -25.72814,25.718844 -14.27253,0 -25.73073,-11.453938 -25.73073,-25.718844 0,-14.264905 11.4582,-25.718843 25.73073,-25.718843 z"
       sodipodi:nodetypes="cccsccccccccsssss" /><path
       id="path4-2"
       style="fill:none;fill-opacity:1;stroke:#000000;stroke-width:6.8;stroke-dasharray:none;stroke-opacity:1"
       d="m 830.00001,-270 c -45,0 -79,34 -79,76 v 106.999999 c 0,11.42886 8,17 15.14703,17 10.85297,0 16.85297,-17 29.85297,-17 13,0 21,17 34,17 13,0 21,-17 34,-17 13,0 19,17 30,17 7,0 14.89927,-3.92362 15,-17 0.077,-104.566739 0,-2.43323 0,-106.999999 0,-47.40534 -34,-76 -79,-76 z m -44.83174,44.88037 c 10.6377,4.1e-4 19.261,8.62417 19.26084,19.26187 v 23.33553 c 1.5e-4,10.6377 -8.62314,19.26146 -19.26084,19.26187 -10.6381,1.5e-4 -19.26202,-8.62377 -19.26187,-19.26187 v -23.33553 c -1.6e-4,-10.6381 8.62377,-19.26203 19.26187,-19.26187 z m 49.52824,0 c 10.6377,4.1e-4 19.261,8.62417 19.26084,19.26187 v 23.33553 c 1.5e-4,10.6377 -8.62314,19.26146 -19.26084,19.26187 -10.6381,1.5e-4 -19.26202,-8.62377 -19.26187,-19.26187 v -23.33553 c -1.6e-4,-10.6381 8.62377,-19.26203 19.26187,-19.26187 z"
       sodipodi:nodetypes="scsszssscsscccccccccccccc" /><g
       id="g10"
       transform="translate(259.76539,-131.13489)"><path
         id="path4-2-9-1"
         style="baseline-shift:baseline;display:inline;overflow:visible;vector-effect:none;fill:#c200cb;fill-opacity:1;stroke:none;stroke-opacity:1;enable-background:accumulate;stop-color:#000000"
         d="m 370.21899,17.535279 c -46.22877,0 -81.75986,35.21064 -81.75986,78.59158 V 199.48851 c 0,13.5132 10.19033,21.59765 19.85925,21.59765 7.91205,0 13.03431,-5.6969 17.25579,-9.73481 4.2509,-4.06604 7.65343,-6.86521 11.66027,-6.86521 3.97464,0 8.15224,3.00744 13.22245,7.13703 5.07035,4.1297 11.22141,9.46299 19.7621,9.46299 8.5404,0 14.69464,-5.3299 19.77296,-9.45937 5.07835,-4.12951 9.26845,-7.14065 13.2426,-7.14065 4.0072,0 7.40055,2.79835 11.66595,6.86935 4.23843,4.04524 9.40639,9.73067 17.35915,9.73067 4.35809,0 9.31626,-1.22817 13.26379,-4.82244 3.97098,-3.61562 6.39632,-9.35676 6.45335,-16.73438 2e-5,-0.005 2e-5,-0.009 0,-0.014 v -0.0114 -0.0119 -0.002 c 0.0746,-101.002071 0,-2.35616 0,-103.363205 0,-24.14334 -8.82481,-44.0612 -23.59804,-57.68743 -14.76958,-13.62287 -35.25438,-20.90415 -58.15976,-20.90415 z m -29.98473,53.95123 c 7.53545,2.9e-4 13.49646,5.9528 13.49633,13.43122 v 25.717291 c 1.2e-4,7.47842 -5.96088,13.43093 -13.49633,13.43122 -7.53572,1.1e-4 -13.49799,-5.95267 -13.49788,-13.43122 V 84.917729 c -1.2e-4,-7.47855 5.96217,-13.43133 13.49788,-13.43122 z m 59.99996,0 c 7.53543,2.9e-4 13.49645,5.9528 13.49633,13.43122 v 25.717291 c 1.2e-4,7.47842 -5.9609,13.43093 -13.49633,13.43122 -7.53574,1.1e-4 -13.49799,-5.95267 -13.49789,-13.43122 V 84.917729 c -1.1e-4,-7.47855 5.96216,-13.43133 13.49789,-13.43122 z"
         sodipodi:nodetypes="sssssssssssssssccsssscccccccccccccc" /><path
         id="path4-2-9-1-1"
         style="baseline-shift:baseline;display:inline;overflow:visible;vector-effect:none;fill:#c20000;fill-opacity:1;stroke:none;stroke-opacity:1;enable-background:accumulate;stop-color:#000000"
         sodipodi:type="inkscape:offset"
         inkscape:radius="1.7762825"
         inkscape:original="M 409.98438 -185.73828 C 364.65434 -185.73828 330 -151.33527 330 -108.92188 L 330 -5.5605469 C 330 7.0719631 339.39492 14.261719 348.08398 14.261719 C 355.13265 14.261719 359.82172 9.1226012 364.11133 5.0195312 C 368.40093 0.91646125 372.19168 -2.3378906 377 -2.3378906 C 381.80833 -2.3378906 386.24848 1.0472656 391.34375 5.1972656 C 396.43902 9.3472656 402.19037 14.261719 409.98438 14.261719 C 417.77839 14.261719 423.53315 9.3492188 428.63672 5.1992188 C 433.74028 1.0492187 438.19168 -2.3378906 443 -2.3378906 C 447.80833 -2.3378906 451.59004 0.91504438 455.89258 5.0214844 C 460.19512 9.1279144 464.92936 14.261719 472.02539 14.261719 C 476.05134 14.261719 480.5461 13.132524 484.09375 9.9023438 C 487.6414 6.6721738 489.91268 1.4670469 489.9668 -5.5332031 L 489.9668 -5.5449219 L 489.9668 -5.5585938 C 490.0414 -106.5701 489.9668 -7.912055 489.9668 -108.92188 C 489.9668 -132.63437 481.33939 -152.0208 466.93945 -165.30273 C 452.53951 -178.58465 432.51375 -185.73828 409.98438 -185.73828 z M 409.98438 -178.9375 C 431.07849 -178.9375 449.34222 -172.28041 462.32812 -160.30273 C 475.31403 -148.32505 483.16602 -131.00293 483.16602 -108.92188 C 483.16602 -7.931605 483.24052 -106.48395 483.16602 -5.5859375 C 483.12252 0.0456025 481.51767 3.0501569 479.51562 4.8730469 C 477.51358 6.6959269 474.78531 7.4609375 472.02539 7.4609375 C 468.4579 7.4609375 464.98172 4.2951325 460.58789 0.1015625 C 456.19406 -4.0919975 450.79401 -9.1386719 443 -9.1386719 C 435.20599 -9.1386719 429.44927 -4.2261719 424.3457 -0.076171875 C 419.24214 4.0738281 414.79271 7.4609375 409.98438 7.4609375 C 405.17606 7.4609375 400.73394 4.0757812 395.63867 -0.07421875 C 390.5434 -4.2242188 384.79401 -9.1386719 377 -9.1386719 C 369.20599 -9.1386719 363.79984 -4.0914612 359.41211 0.10546875 C 355.02438 4.3023988 351.5563 7.4609375 348.08398 7.4609375 C 342.91625 7.4609375 336.80078 3.8874931 336.80078 -5.5605469 L 336.80078 -108.92188 C 336.80078 -147.65249 368.06747 -178.9375 409.98438 -178.9375 z M 380 -142.13867 C 367.85625 -142.13885 357.92755 -132.25129 357.92773 -120.13086 L 357.92773 -94.414062 C 357.92756 -82.293643 367.85626 -72.408043 380 -72.408203 C 392.14331 -72.408673 402.07244 -82.294102 402.07227 -94.414062 L 402.07227 -120.13086 C 402.07245 -132.25083 392.14331 -142.1382 380 -142.13867 z M 440 -142.13867 C 427.85624 -142.13885 417.92755 -132.25129 417.92773 -120.13086 L 417.92773 -94.414062 C 417.92756 -82.293643 427.85625 -72.408043 440 -72.408203 C 452.1433 -72.408673 462.07244 -82.294102 462.07227 -94.414062 L 462.07227 -120.13086 C 462.07245 -132.25083 452.1433 -142.1382 440 -142.13867 z M 380 -135.33789 C 388.48131 -135.33756 395.27162 -128.56292 395.27148 -120.13086 L 395.27148 -94.414062 C 395.27161 -85.982002 388.48131 -79.207361 380 -79.207031 C 371.51838 -79.206911 364.72644 -85.981682 364.72656 -94.414062 L 364.72656 -120.13086 C 364.72643 -128.56324 371.51839 -135.33801 380 -135.33789 z M 440 -135.33789 C 448.4813 -135.33756 455.27162 -128.56292 455.27148 -120.13086 L 455.27148 -94.414062 C 455.27161 -85.982002 448.4813 -79.207361 440 -79.207031 C 431.51837 -79.206911 424.72644 -85.981682 424.72656 -94.414062 L 424.72656 -120.13086 C 424.72643 -128.56324 431.51838 -135.33801 440 -135.33789 z "
         d="m 409.98437,-187.51367 c -46.22877,0 -81.75976,35.21085 -81.75976,78.59179 V -5.5605469 c 0,13.5132024 10.19046,21.5976559 19.85937,21.5976559 7.91205,0 13.03438,-5.69647 17.25586,-9.7343746 C 369.59074,2.2366897 372.99316,-0.5625 377,-0.5625 c 3.97464,0 8.15244,3.0071244 13.22266,7.1367187 5.07034,4.1296983 11.22102,9.4628903 19.76171,9.4628903 8.5404,0 14.69512,-5.329514 19.77344,-9.458984 C 434.83617,2.4486202 439.02585,-0.5625 443,-0.5625 c 4.0072,0 7.40061,2.7981432 11.66602,6.8691406 4.23842,4.0452374 9.40661,9.7304684 17.35937,9.7304684 4.35809,0 9.31614,-1.22799 13.26367,-4.822265 3.97098,-3.6156158 6.39609,-9.3567483 6.45313,-16.7343752 a 1.7764602,1.7764602 0 0 0 0,-0.013672 v -0.011719 -0.011719 -0.00195 c 0.0746,-101.0020763 0,-2.3562395 0,-103.3632863 0,-24.14333 -8.82443,-44.06126 -23.59766,-57.68749 -14.76958,-13.62287 -35.25478,-20.9043 -58.16016,-20.9043 z m 0,10.35156 c 20.7204,0 38.52179,6.5287 51.13868,18.16602 12.62084,11.64095 20.26758,28.41426 20.26757,50.07421 0,100.9911536 0.0745,2.436 0,103.3339894 -0.0432,5.28959807 -1.43867,7.6628126 -3.07031,9.1484375 -1.59096,1.4485923 -3.86324,2.125 -6.29492,2.125 -2.51664,0 -5.83261,-2.6903659 -10.21094,-6.8691406 C 457.40968,-5.3875966 451.56078,-10.914063 443,-10.914063 c -8.54039,0 -14.6969,5.3293749 -19.77539,9.4589849 -5.07853,4.1296458 -9.26608,7.140625 -13.24024,7.140625 -3.97462,0 -8.15456,-3.007266 -13.2246,-7.1367188 C 391.6896,-5.5807289 385.54069,-10.914062 377,-10.914063 c -8.56086,0 -14.41606,5.5273329 -18.81641,9.7363286 -2.18578,2.09073323 -4.1128,3.8809325 -5.80859,5.0859375 -1.69579,1.205005 -3.09344,1.7773438 -4.29102,1.7773438 -2.17443,0 -4.54945,-0.7577976 -6.35351,-2.4785156 -1.80406,-1.7207181 -3.1543,-4.4268053 -3.1543,-8.7675782 V -108.92188 c 0,-37.77463 30.37512,-68.24023 71.4082,-68.24023 z M 380,-143.91406 c -13.10794,-2e-4 -23.84785,10.6927 -23.84766,23.7832 v 25.716798 c -1.8e-4,13.090485 10.73992,23.781422 23.84766,23.78125 13.10728,-5.08e-4 23.84784,-10.691145 23.84766,-23.78125 v -25.716798 c 1.9e-4,-13.09012 -10.74019,-23.7827 -23.84766,-23.7832 z m 60,0 c -13.10795,-2e-4 -23.84785,10.6927 -23.84766,23.7832 v 25.716798 c -1.8e-4,13.090484 10.73991,23.781422 23.84766,23.78125 13.10727,-5.08e-4 23.84784,-10.691144 23.84766,-23.78125 v -25.716798 c 1.9e-4,-13.09012 -10.7402,-23.7827 -23.84766,-23.7832 z m -60,10.35156 c 7.53545,2.9e-4 13.49622,5.95322 13.49609,13.43164 v 25.716798 c 1.2e-4,7.478423 -5.96064,13.431347 -13.49609,13.43164 -7.53573,1.07e-4 -13.49815,-5.95309 -13.49805,-13.43164 v -25.716798 c -1.1e-4,-7.47855 5.96234,-13.43175 13.49805,-13.43164 z m 60,0 c 7.53544,2.9e-4 13.49622,5.95322 13.49609,13.43164 v 25.716798 c 1.2e-4,7.478422 -5.96065,13.431347 -13.49609,13.43164 -7.53574,1.07e-4 -13.49815,-5.953088 -13.49805,-13.43164 v -25.716798 c -1.1e-4,-7.47855 5.96232,-13.43175 13.49805,-13.43164 z"
         transform="translate(-39.765388,205.04895)" /><path
         id="path4-2-9"
         style="baseline-shift:baseline;display:inline;overflow:visible;opacity:1;vector-effect:none;enable-background:accumulate;stop-color:#000000;stop-opacity:1"
         sodipodi:type="inkscape:offset"
         inkscape:radius="-0.28373948"
         inkscape:original="M 247.87695 19.496094 C 233.28363 19.818663 218.73359 23.881492 206.28125 31.544922 C 192.82394 39.75606 181.91598 52.139365 175.68555 66.638672 C 171.38078 76.561256 169.31818 87.410822 169.48633 98.216797 C 169.49433 132.37439 169.47075 166.53208 169.49805 200.68945 C 169.54715 206.27515 171.75153 211.92235 175.94727 215.69141 C 180.21881 219.60626 186.50708 221.5819 192.16992 219.94922 C 196.93661 218.57442 200.54623 214.95758 204.01367 211.60156 C 207.03498 208.76404 210.09391 205.62292 214.15039 204.3457 C 217.24077 203.37097 220.58065 204.21791 223.31445 205.79297 C 229.75023 209.41909 234.6855 215.40258 241.46875 218.55469 C 245.99113 220.7436 251.36004 221.16711 256.125 219.51758 C 261.93112 217.58329 266.46557 213.2941 271.18555 209.58789 C 274.34207 207.16806 277.70212 204.59606 281.75 204.01172 C 285.03452 203.53718 288.23768 205.00003 290.7793 206.97266 C 295.66575 210.62 299.44364 215.8941 304.97852 218.76562 C 308.00012 220.38957 311.53972 220.8445 314.91016 220.33594 C 319.82155 219.73079 324.53762 217.04412 327.17578 212.79688 C 329.90656 208.57785 330.64235 203.41856 330.51172 198.48047 C 330.53182 173.34554 330.53798 148.20912 330.51758 123.07422 C 330.49558 113.51197 330.55477 103.95049 330.48047 94.388672 C 330.17105 81.165929 326.98443 67.879205 320.33984 56.378906 C 314.18136 45.587512 304.99869 36.601116 294.20312 30.478516 C 280.2171 22.470652 263.89318 19.160831 247.87695 19.496094 z M 250 27.330078 C 261.87652 27.330379 273.88768 29.476117 284.77148 34.462891 C 294.54971 38.901459 303.27892 45.730631 309.67969 54.376953 C 313.227 59.161505 316.13727 64.591128 318.17773 70.191406 C 321.04234 77.964495 322.411 86.246095 322.61914 94.449219 C 322.69804 103.87301 322.6349 113.29834 322.6582 122.72266 C 322.6778 147.68972 322.6747 172.65597 322.6543 197.62305 C 322.674 200.66835 322.71962 203.68156 321.61523 206.57031 C 320.62136 209.34367 318.23365 211.55304 315.36133 212.24805 C 313.22479 212.80527 310.8316 212.93838 308.84375 211.81836 C 305.74607 210.18395 303.32177 207.62371 300.74805 205.25 C 296.98143 201.62336 292.82145 198.01949 287.64453 196.67383 C 282.75268 195.33232 277.44499 196.31489 273.0625 198.75781 C 266.78456 202.13725 262.04913 207.75029 255.75391 211.09961 C 253.13015 212.51004 249.97752 213.15524 247.08008 212.24414 C 242.79863 210.93385 239.35259 207.92024 235.9082 205.18945 C 231.58528 201.64534 227.05096 197.94487 221.49609 196.60938 C 216.82807 195.42772 211.75642 196.22331 207.60742 198.64062 C 202.05199 201.72562 198.17304 206.94491 193.10547 210.66992 C 191.34281 211.95128 189.19248 212.98134 186.95703 212.60742 C 183.24612 212.27642 179.83881 209.77437 178.4707 206.29883 C 176.95727 202.85471 177.41924 199.02009 177.3457 195.36719 C 177.3537 162.21672 177.32992 129.06635 177.35742 95.916016 C 177.43282 88.88716 178.60338 81.750234 180.82812 75.080078 C 185.26029 61.574951 194.12241 49.616214 205.63477 41.300781 C 215.60148 34.045233 227.5034 29.516858 239.67969 27.986328 C 243.06983 27.54134 246.55158 27.341091 250 27.330078 z M 218.87109 63.099609 C 211.7087 63.414317 204.85371 67.408068 201.00781 73.451172 C 198.42236 77.376388 197.23655 82.126612 197.41406 86.806641 C 197.43306 95.349884 197.37686 103.89487 197.44336 112.4375 C 197.74291 119.37468 201.51398 126.01628 207.25781 129.90039 C 213.09518 133.96734 220.89906 134.97978 227.58398 132.55078 C 234.76021 130.04227 240.44869 123.68908 242.06445 116.25 C 242.92716 112.6037 242.5232 108.83329 242.61719 105.125 C 242.59649 98.2296 242.65864 91.332033 242.58594 84.4375 C 242.27007 77.55395 238.53837 70.967869 232.85547 67.087891 C 228.80127 64.258972 223.80643 62.843213 218.87109 63.099609 z M 278.87109 63.099609 C 271.7087 63.414317 264.85371 67.408068 261.00781 73.451172 C 258.42236 77.376388 257.23655 82.126612 257.41406 86.806641 C 257.43306 95.349884 257.37686 103.89487 257.44336 112.4375 C 257.74291 119.37468 261.51398 126.01628 267.25781 129.90039 C 273.09518 133.96734 280.89906 134.97978 287.58398 132.55078 C 294.76021 130.04227 300.44869 123.68908 302.06445 116.25 C 302.92716 112.6037 302.5232 108.83329 302.61719 105.125 C 302.59649 98.2296 302.65864 91.332033 302.58594 84.4375 C 302.27007 77.55395 298.53837 70.967869 292.85547 67.087891 C 288.80127 64.258972 283.80643 62.843213 278.87109 63.099609 z M 220.01562 70.929688 C 225.24538 70.872457 230.37552 73.83252 232.89062 78.425781 C 234.3922 81.017492 234.89425 84.058392 234.75781 87.021484 C 234.73981 95.412748 234.79357 103.80493 234.73047 112.19531 C 234.48022 117.59824 230.94206 122.6657 225.96094 124.76953 C 220.73029 127.10183 214.1839 126.05948 210.00195 122.12305 C 206.77942 119.21654 205.06041 114.82772 205.27148 110.50977 C 205.28948 101.9185 205.23573 93.326704 205.29883 84.736328 C 205.54888 79.366657 209.04331 74.329074 213.97852 72.203125 C 215.87064 71.355595 217.94433 70.933803 220.01562 70.929688 z M 280.01562 70.929688 C 285.24538 70.872457 290.37553 73.83252 292.89062 78.425781 C 294.3922 81.017492 294.89425 84.058392 294.75781 87.021484 C 294.73991 95.412748 294.79357 103.80493 294.73047 112.19531 C 294.48022 117.59824 290.94206 122.6657 285.96094 124.76953 C 280.73029 127.10183 274.1839 126.05948 270.00195 122.12305 C 266.77942 119.21654 265.06041 114.82772 265.27148 110.50977 C 265.28948 101.9185 265.23573 93.326704 265.29883 84.736328 C 265.54888 79.366657 269.04331 74.329074 273.97852 72.203125 C 275.87064 71.355595 277.94433 70.933803 280.01562 70.929688 z "
         d="M 247.88281,19.779297 C 233.33795,20.100795 218.83613,24.151926 206.42969,31.787109 193.02246,39.96769 182.15145,52.307221 175.94531,66.75 a 0.28376785,0.28376785 0 0 1 0,0.002 c -4.28788,9.883664 -6.34332,20.69401 -6.17578,31.460938 a 0.28376785,0.28376785 0 0 1 0,0.0039 c 0.008,34.157763 -0.0156,68.315563 0.0117,102.472653 0.0489,5.51211 2.22828,11.08354 6.35547,14.79102 a 0.28376785,0.28376785 0 0 1 0.002,0.002 c 4.20434,3.85326 10.40256,5.79367 15.95313,4.19336 4.67602,-1.34865 8.25467,-4.91891 11.72461,-8.27734 a 0.28376785,0.28376785 0 0 1 0.004,-0.004 c 3.01481,-2.83141 6.09953,-6.01534 10.24414,-7.32031 3.19128,-1.00655 6.61029,-0.13034 9.39258,1.47265 6.49616,3.66139 11.42566,9.63417 18.13086,12.75 a 0.28376785,0.28376785 0 0 1 0.004,0.002 c 4.45603,2.15679 9.75094,2.57423 14.43945,0.95117 a 0.28376785,0.28376785 0 0 1 0.004,-0.002 c 5.72881,-1.90854 10.24042,-6.16545 14.97461,-9.88282 a 0.28376785,0.28376785 0 0 1 0.004,-0.002 c 3.15664,-2.41992 6.55288,-5.03482 10.69531,-5.63281 3.39204,-0.49007 6.66498,1.01581 9.24414,3.01758 4.93367,3.68371 8.70185,8.93585 14.15625,11.76562 a 0.28376785,0.28376785 0 0 1 0.004,0.002 c 2.95967,1.59067 6.43713,2.03953 9.75391,1.53907 a 0.28376785,0.28376785 0 0 1 0.008,0 c 4.83211,-0.59538 9.47406,-3.24416 12.06055,-7.40821 a 0.28376785,0.28376785 0 0 1 0.002,-0.004 c 2.68608,-4.14997 3.42076,-9.24959 3.29102,-14.1543 a 0.28376785,0.28376785 0 0 1 0,-0.008 c 0.0201,-25.13483 0.0263,-50.27155 0.006,-75.40625 -0.022,-9.56255 0.0371,-19.12181 -0.0371,-28.679689 v -0.0039 c -0.309,-13.18035 -3.48728,-26.417914 -10.10352,-37.869141 a 0.28376785,0.28376785 0 0 1 0,-0.002 C 313.96184,45.774696 304.8145,36.822497 294.0625,30.724609 280.12984,22.747297 263.85594,19.444936 247.88281,19.779297 Z M 250,27.046875 c 11.9101,3.02e-4 23.96146,2.151875 34.88867,7.158203 9.8201,4.457574 18.58787,11.315856 25.01953,20.003906 3.56383,4.807095 6.48537,10.258879 8.53516,15.884766 2.87708,7.80693 4.25017,16.117843 4.45898,24.347656 a 0.28376785,0.28376785 0 0 1 0,0.0059 c 0.0789,9.426644 0.0158,18.852804 0.0391,28.275394 0.0196,24.96723 0.0165,49.93318 -0.004,74.90039 0.0197,3.04303 0.0719,6.0968 -1.05664,9.04882 -1.02765,2.86145 -3.48415,5.13317 -6.45313,5.85157 -2.17267,0.56581 -4.63861,0.71312 -6.71679,-0.45508 -3.15181,-1.66297 -5.59005,-4.2444 -8.1543,-6.60938 a 0.28376785,0.28376785 0 0 1 -0.006,-0.004 c -3.75908,-3.61938 -7.88516,-7.18192 -12.97851,-8.50586 a 0.28376785,0.28376785 0 0 1 -0.002,-0.002 c -4.80729,-1.31832 -10.04349,-0.35265 -14.36914,2.05859 a 0.28376785,0.28376785 0 0 1 -0.004,0.002 c -6.21492,3.34552 -10.95137,8.95845 -17.31055,12.3418 -2.67461,1.43735 -5.90153,2.10525 -8.89063,1.16601 h -0.002 c -4.35629,-1.33373 -7.82523,-4.37899 -11.26172,-7.10351 a 0.28376785,0.28376785 0 0 1 -0.004,-0.004 c -4.32258,-3.54383 -8.82567,-7.20759 -14.29883,-8.52343 a 0.28376785,0.28376785 0 0 1 -0.004,0 c -4.59125,-1.16223 -9.59028,-0.37836 -13.67578,2.00195 a 0.28376785,0.28376785 0 0 1 -0.004,0.002 c -5.48569,3.04627 -9.35885,8.25077 -14.47265,12.00977 a 0.28376785,0.28376785 0 0 1 -0.002,0.002 c -1.79293,1.30337 -4.01304,2.37912 -6.36132,1.98633 -3.80961,-0.34836 -7.28948,-2.9048 -8.69922,-6.47461 l -0.002,-0.008 c -3.2e-4,-8.2e-4 -0.002,-0.001 -0.002,-0.002 -1.54803,-3.53198 -1.07162,-7.40763 -1.14453,-11.02929 a 0.28376785,0.28376785 0 0 1 0,-0.006 c 0.008,-33.15029 -0.0158,-66.30055 0.0117,-99.451174 a 0.28376785,0.28376785 0 0 1 0,-0.0039 c 0.0757,-7.057669 1.25025,-14.220985 3.48437,-20.919922 v -0.002 c 4.45183,-13.563733 13.34965,-25.569708 24.91016,-33.919922 v 0.002 c 10.00767,-7.285365 21.95219,-11.830641 34.17383,-13.367188 3.4041,-0.446821 6.89863,-0.647157 10.35742,-0.658203 z m -29.28711,36.318359 c -1.03525,-0.03167 -2.38054,0.01746 -1.83008,0.01758 -7.06515,0.310436 -13.84046,4.258669 -17.63476,10.220704 a 0.28376785,0.28376785 0 0 1 -0.004,0.0039 c -2.54953,3.870679 -3.72229,8.562563 -3.54687,13.1875 a 0.28376785,0.28376785 0 0 1 0,0.01172 c 0.019,8.544908 -0.0372,17.088989 0.0293,25.628909 0.29857,6.83893 4.02491,13.39997 9.68946,17.23047 a 0.28376785,0.28376785 0 0 1 0.004,0.002 c 5.75817,4.01177 13.47189,5.01138 20.06641,2.61523 a 0.28376785,0.28376785 0 0 1 0.004,0 c 7.07945,-2.47468 12.70333,-8.75691 14.29688,-16.09375 a 0.28376785,0.28376785 0 0 1 0.002,-0.004 c 0.84746,-3.58184 0.45104,-7.32939 0.54492,-11.06055 v -0.008 c -0.0206,-6.891813 0.0412,-13.781036 -0.0312,-20.666018 v -0.0098 c -0.31463,-6.786099 -4.00291,-13.292684 -9.60742,-17.11914 a 0.28376785,0.28376785 0 0 1 -0.002,-0.002 c -3.50083,-2.442788 -7.71774,-3.818684 -11.98047,-3.955078 z m 60,0 c -1.03525,-0.03167 -2.38054,0.01746 -1.83008,0.01758 -7.06515,0.310436 -13.84046,4.258669 -17.63476,10.220704 a 0.28376785,0.28376785 0 0 1 -0.004,0.0039 c -2.54953,3.870679 -3.72229,8.562563 -3.54687,13.1875 a 0.28376785,0.28376785 0 0 1 0,0.01172 c 0.019,8.544908 -0.0372,17.088989 0.0293,25.628909 0.29857,6.83893 4.02491,13.39997 9.68946,17.23047 a 0.28376785,0.28376785 0 0 1 0.004,0.002 c 5.75817,4.01177 13.47189,5.01138 20.06641,2.61523 a 0.28376785,0.28376785 0 0 1 0.004,0 c 7.07945,-2.47468 12.70333,-8.75691 14.29688,-16.09375 a 0.28376785,0.28376785 0 0 1 0.002,-0.004 c 0.84746,-3.58184 0.45104,-7.32939 0.54492,-11.06055 v -0.008 c -0.0206,-6.891813 0.0412,-13.781036 -0.0312,-20.666018 v -0.0098 c -0.31463,-6.786099 -4.00291,-13.292684 -9.60742,-17.11914 a 0.28376785,0.28376785 0 0 1 -0.002,-0.002 c -3.50083,-2.442788 -7.71774,-3.818684 -11.98047,-3.955078 z m -60.70117,7.28125 h 0.004 c 5.33748,-0.05691 10.55518,2.952941 13.12305,7.642578 1.53367,2.650089 2.04057,5.744165 1.90235,8.746094 -0.0179,8.385094 0.0357,16.773654 -0.0274,25.162114 a 0.28376785,0.28376785 0 0 1 0,0.0117 c -0.25559,5.51822 -3.85421,10.67364 -8.9414,12.82227 -5.33698,2.37771 -11.98927,1.31834 -16.25977,-2.69727 -3.28735,-2.96497 -5.03513,-7.42629 -4.82422,-11.82421 v -0.0117 c 3e-5,-6.5e-4 -3e-5,-0.001 0,-0.002 0.0179,-8.58513 -0.0357,-17.173324 0.0273,-25.761715 a 0.28376785,0.28376785 0 0 1 0,-0.01172 c 0.25539,-5.484134 3.81148,-10.608169 8.85157,-12.779297 h -0.004 c 1.92946,-0.864256 4.0403,-1.292163 6.14844,-1.296875 z m 60,0 h 0.004 c 5.33748,-0.05691 10.55519,2.95294 13.12305,7.642578 1.53367,2.650089 2.04057,5.744165 1.90235,8.746094 -0.0178,8.385098 0.0357,16.773654 -0.0274,25.162114 a 0.28376785,0.28376785 0 0 1 0,0.0117 c -0.25559,5.51822 -3.85421,10.67364 -8.9414,12.82227 -5.33698,2.37771 -11.98927,1.31834 -16.25977,-2.69727 -3.28735,-2.96497 -5.03513,-7.42629 -4.82422,-11.82421 v -0.0117 c 3e-5,-6.5e-4 -3e-5,-0.001 0,-0.002 0.0179,-8.58513 -0.0357,-17.173324 0.0273,-25.761715 a 0.28376785,0.28376785 0 0 1 0,-0.01172 c 0.25539,-5.484134 3.81148,-10.608169 8.85157,-12.779297 h -0.004 c 1.92946,-0.864256 4.0403,-1.292163 6.14844,-1.296875 z"
         transform="translate(120.21875,-0.6894516)" /><path
         id="path4-2-9-2"
         style="baseline-shift:baseline;display:inline;overflow:visible;vector-effect:none;fill:#c2ab00;fill-opacity:1;enable-background:accumulate;stop-color:#000000"
         sodipodi:type="inkscape:offset"
         inkscape:radius="-0.02130026"
         inkscape:original="M 250 20 C 204.66997 20 170.01563 54.403008 170.01562 96.816406 L 170.01562 200.17773 C 170.01562 212.81024 179.41055 220 188.09961 220 C 195.14828 220 199.83734 214.86088 204.12695 210.75781 C 208.41655 206.65474 212.2073 203.40039 217.01562 203.40039 C 221.82396 203.40039 226.26411 206.78555 231.35938 210.93555 C 236.45464 215.08555 242.20599 220 250 220 C 257.79402 220 263.54877 215.0875 268.65234 210.9375 C 273.7559 206.7875 278.2073 203.40039 283.01562 203.40039 C 287.82396 203.40039 291.60566 206.65333 295.9082 210.75977 C 300.21074 214.8662 304.94499 220 312.04102 220 C 316.06697 220 320.56173 218.87081 324.10938 215.64062 C 327.65702 212.41046 329.9283 207.20533 329.98242 200.20508 L 329.98242 200.19336 L 329.98242 200.17969 C 330.05702 99.16818 329.98242 197.82623 329.98242 96.816406 C 329.98242 73.103912 321.35502 53.717479 306.95508 40.435547 C 292.55514 27.153625 272.52937 20 250 20 z M 250 26.800781 C 271.09411 26.800781 289.35785 33.457867 302.34375 45.435547 C 315.32966 57.413226 323.18164 74.735347 323.18164 96.816406 C 323.18164 197.80668 323.25614 99.25434 323.18164 200.15234 C 323.13814 205.78388 321.5333 208.78844 319.53125 210.61133 C 317.52921 212.43421 314.80094 213.19922 312.04102 213.19922 C 308.47353 213.19922 304.99735 210.03341 300.60352 205.83984 C 296.20969 201.64628 290.80963 196.59961 283.01562 196.59961 C 275.22161 196.59961 269.4649 201.51211 264.36133 205.66211 C 259.25777 209.81211 254.80833 213.19922 250 213.19922 C 245.19169 213.19922 240.74957 209.81406 235.6543 205.66406 C 230.55903 201.51406 224.80963 196.59961 217.01562 196.59961 C 209.22162 196.59961 203.81546 201.64682 199.42773 205.84375 C 195.04 210.04068 191.57193 213.19922 188.09961 213.19922 C 182.93188 213.19922 176.81641 209.62577 176.81641 200.17773 L 176.81641 96.816406 C 176.81641 58.085805 208.0831 26.800781 250 26.800781 z M 220.01562 63.599609 C 207.87187 63.599434 197.94318 73.486994 197.94336 85.607422 L 197.94336 111.32422 C 197.94319 123.44464 207.87189 133.33024 220.01562 133.33008 C 232.15893 133.32961 242.08806 123.44418 242.08789 111.32422 L 242.08789 85.607422 C 242.08807 73.487449 232.15894 63.60008 220.01562 63.599609 z M 280.01562 63.599609 C 267.87187 63.599434 257.94318 73.486994 257.94336 85.607422 L 257.94336 111.32422 C 257.94319 123.44464 267.87187 133.33024 280.01562 133.33008 C 292.15893 133.32961 302.08806 123.44418 302.08789 111.32422 L 302.08789 85.607422 C 302.08807 73.487449 292.15893 63.60008 280.01562 63.599609 z M 220.01562 70.400391 C 228.49694 70.40072 235.28725 77.175359 235.28711 85.607422 L 235.28711 111.32422 C 235.28724 119.75628 228.49694 126.53092 220.01562 126.53125 C 211.53401 126.53137 204.74207 119.7566 204.74219 111.32422 L 204.74219 85.607422 C 204.74206 77.175038 211.53402 70.400268 220.01562 70.400391 z M 280.01562 70.400391 C 288.49692 70.40072 295.28725 77.175359 295.28711 85.607422 L 295.28711 111.32422 C 295.28724 119.75628 288.49693 126.53092 280.01562 126.53125 C 271.534 126.53137 264.74207 119.7566 264.74219 111.32422 L 264.74219 85.607422 C 264.74206 77.175038 271.53401 70.400268 280.01562 70.400391 z "
         d="m 250,20.021484 c -45.31925,0 -79.96288,34.393127 -79.96289,76.794922 V 200.17773 c 0,12.62195 9.38519,19.80079 18.0625,19.80079 7.03832,0 11.72129,-5.13248 16.01172,-9.23633 4.29006,-4.10352 8.08636,-7.36328 12.90429,-7.36328 4.81834,0 9.26186,3.39077 14.35743,7.54101 5.09556,4.15025 10.84189,9.0586 18.62695,9.0586 7.78507,0 13.5348,-4.9064 18.63867,-9.05665 5.10386,-4.15024 9.55863,-7.54296 14.37695,-7.54296 4.81795,0 8.60522,3.25837 12.90821,7.36523 4.30331,4.10716 9.03143,9.23438 16.11719,9.23438 4.02196,0 8.51183,-1.1277 12.05468,-4.35352 3.54257,-3.22554 5.81115,-8.4242 5.86524,-15.41992 v -0.0117 -0.0137 c 0.0746,-101.011512 0,-2.35345 0,-103.363284 0,-23.707327 -8.62407,-43.087431 -23.01953,-56.365234 C 292.5459,27.173338 272.52486,20.021484 250,20.021484 Z m 0,6.757813 c 21.09859,0 39.3671,6.658863 52.35742,18.640625 12.99029,11.981717 20.8457,29.310376 20.8457,51.396484 0,100.990264 0.0745,2.437938 0,103.335934 -0.0435,5.63553 -1.65172,8.64769 -3.6582,10.47461 -2.00697,1.82737 -4.74005,2.59375 -7.5039,2.59375 -3.5801,0 -7.05911,-3.17148 -11.45313,-7.36523 -4.3937,-4.19344 -9.78745,-9.23438 -17.57227,-9.23438 -7.78505,0 -13.53675,4.9064 -18.64062,9.05664 -5.10386,4.15025 -9.55667,7.54297 -14.375,7.54297 -4.81831,0 -9.2638,-3.39077 -14.35938,-7.54101 -5.09557,-4.15025 -10.83994,-9.0586 -18.625,-9.0586 -7.7848,0 -13.18468,5.0415 -17.57226,9.23828 -2.19396,2.09856 -4.1584,3.93835 -6.00977,5.25391 -1.85136,1.31556 -3.59136,2.10742 -5.33398,2.10742 -2.58878,0 -5.41447,-0.896 -7.59375,-2.97461 -2.17928,-2.0786 -3.71094,-5.33974 -3.71094,-10.06836 V 96.816406 c 0,-38.742064 31.27758,-70.037109 73.20508,-70.037109 z m -29.98438,36.841797 c -12.13218,-1.75e-4 -22.05096,9.877532 -22.05078,21.986328 v 25.716798 c -1.7e-4,12.10879 9.91861,21.98453 22.05078,21.98437 12.13176,-4.7e-4 22.05096,-9.87604 22.05079,-21.98437 V 85.607422 c 1.8e-4,-12.10834 -9.91903,-21.985858 -22.05079,-21.986328 z m 60,0 c -12.13218,-1.75e-4 -22.05096,9.877532 -22.05078,21.986328 v 25.716798 c -1.7e-4,12.10879 9.91859,21.98453 22.05078,21.98437 12.13176,-4.7e-4 22.05096,-9.87604 22.05079,-21.98437 V 85.607422 c 1.8e-4,-12.10834 -9.91904,-21.985858 -22.05079,-21.986328 z m -60,6.757812 c 8.49267,3.3e-4 15.29311,6.785017 15.29297,15.228516 v 25.716798 c 1.3e-4,8.44349 -6.8003,15.22818 -15.29297,15.22851 -8.49295,1.2e-4 -15.29504,-6.78469 -15.29492,-15.22851 V 85.607422 c -1.3e-4,-8.443822 6.80198,-15.228639 15.29492,-15.228516 z m 60,0 c 8.49265,3.3e-4 15.29311,6.785017 15.29297,15.228516 v 25.716798 c 1.3e-4,8.44349 -6.80031,15.22818 -15.29297,15.22851 -8.49296,1.2e-4 -15.29504,-6.78469 -15.29492,-15.22851 V 85.607422 c -1.3e-4,-8.443822 6.80197,-15.228639 15.29492,-15.228516 z"
         transform="translate(120.21875,-0.6894516)" /></g><path
       id="path4-2-9-1-3"
       style="baseline-shift:baseline;display:inline;overflow:visible;vector-effect:none;fill:#c200cb;fill-opacity:1;stroke:none;stroke-opacity:1;enable-background:accumulate;stop-color:#000000"
       d="m 369.77098,19.744565 c -46.22877,0 -81.75986,35.21064 -81.75986,78.59158 V 201.6978 c 0,13.5132 10.19033,21.59765 19.85925,21.59765 7.91205,0 13.03431,-5.6969 17.25579,-9.73481 4.2509,-4.06604 7.65343,-6.86521 11.66027,-6.86521 3.97464,0 8.15224,3.00744 13.22245,7.13703 5.07035,4.1297 11.22141,9.46299 19.7621,9.46299 8.5404,0 14.69464,-5.3299 19.77296,-9.45937 5.07835,-4.12951 9.26845,-7.14065 13.2426,-7.14065 4.0072,0 7.40055,2.79835 11.66595,6.86935 4.23843,4.04524 9.40639,9.73067 17.35915,9.73067 4.35809,0 9.31626,-1.22817 13.26379,-4.82244 3.97098,-3.61562 6.39632,-9.35676 6.45335,-16.73438 2e-5,-0.005 2e-5,-0.009 0,-0.014 v -0.0114 -0.0119 -0.002 c 0.0746,-101.00208 0,-2.35616 0,-103.363209 0,-24.14334 -8.82481,-44.0612 -23.59804,-57.68743 -14.76958,-13.62287 -35.25438,-20.90415 -58.15976,-20.90415 z m -43.2139,53.95123 c 7.53545,2.9e-4 13.49646,5.9528 13.49633,13.43122 V 112.8443 c 1.2e-4,7.47842 -5.96088,13.43093 -13.49633,13.43122 -7.53572,1.1e-4 -13.49799,-5.95267 -13.49788,-13.43122 V 87.127015 c -1.2e-4,-7.47855 5.96217,-13.43133 13.49788,-13.43122 z m 51.5333,0 c 7.53543,2.9e-4 13.49645,5.9528 13.49633,13.43122 V 112.8443 c 1.2e-4,7.47842 -5.9609,13.43093 -13.49633,13.43122 -7.53574,1.1e-4 -13.49799,-5.95267 -13.49789,-13.43122 V 87.127015 c -1.1e-4,-7.47855 5.96216,-13.43133 13.49789,-13.43122 z"
       sodipodi:nodetypes="cssssssssssssssccssssccccccccccccccc" /><path
       id="path4-2-9-1-1-8"
       style="baseline-shift:baseline;display:inline;overflow:visible;vector-effect:none;fill:#c20000;enable-background:accumulate;stop-color:#000000"
       d="m 369.77097,19.744571 c -46.22877,0 -81.75976,35.21085 -81.75976,78.59179 V 201.69769 c 0,13.5132 10.19046,21.59766 19.85937,21.59766 7.91205,0 13.03438,-5.69647 17.25586,-9.73438 4.2509,-4.06604 7.65332,-6.86523 11.66016,-6.86523 3.97464,0 8.15244,3.00712 13.22266,7.13672 5.07034,4.1297 11.22102,9.46289 19.76171,9.46289 8.5404,0 14.69512,-5.32952 19.77344,-9.45899 5.07836,-4.1295 9.26804,-7.14062 13.24219,-7.14062 4.0072,0 7.40061,2.79814 11.66602,6.86914 4.23842,4.04524 9.40661,9.73047 17.35937,9.73047 4.35809,0 9.31614,-1.22799 13.26367,-4.82227 3.97098,-3.61561 6.39609,-9.35675 6.45313,-16.73437 2e-5,-0.005 2e-5,-0.009 0,-0.0137 v -0.0117 -0.0117 -0.002 c 0.0746,-101.00208 0,-2.35624 0,-103.363289 0,-24.14333 -8.82443,-44.06126 -23.59766,-57.68749 -14.76958,-13.62287 -35.25478,-20.9043 -58.16016,-20.9043 z m 0,10.35156 c 20.7204,0 38.52179,6.5287 51.13868,18.16602 12.62084,11.64095 20.26758,28.41426 20.26757,50.07421 0,100.991149 0.0745,2.435999 0,103.333989 -0.0432,5.2896 -1.43867,7.66281 -3.07031,9.14844 -1.59096,1.44859 -3.86324,2.125 -6.29492,2.125 -2.51664,0 -5.83261,-2.69037 -10.21094,-6.86914 -4.40477,-4.20401 -10.25367,-9.73047 -18.81445,-9.73047 -8.54039,0 -14.6969,5.32937 -19.77539,9.45898 -5.07853,4.12965 -9.26608,7.14063 -13.24024,7.14063 -3.97462,0 -8.15456,-3.00727 -13.2246,-7.13672 -5.07017,-4.12956 -11.21908,-9.46289 -19.75977,-9.46289 -8.56086,0 -14.41606,5.52733 -18.81641,9.73632 -2.18578,2.09074 -4.1128,3.88094 -5.80859,5.08594 -1.69579,1.20501 -3.09344,1.77735 -4.29102,1.77735 -2.17443,0 -4.54945,-0.7578 -6.35351,-2.47852 -1.80406,-1.72072 -3.1543,-4.42681 -3.1543,-8.76758 V 98.336361 c 0,-37.77463 30.37512,-68.24023 71.4082,-68.24023 z m -43.21354,33.24805 c -13.10794,-2e-4 -23.84785,10.6927 -23.84766,23.7832 v 25.716799 c -1.8e-4,13.09048 10.73992,23.78142 23.84766,23.78125 13.10728,-5.1e-4 23.84784,-10.69115 23.84766,-23.78125 V 87.127381 c 1.9e-4,-13.09012 -10.74019,-23.7827 -23.84766,-23.7832 z m 51.53334,0 c -13.10795,-2e-4 -23.84785,10.6927 -23.84766,23.7832 v 25.716799 c -1.8e-4,13.09048 10.73991,23.78142 23.84766,23.78125 13.10727,-5.1e-4 23.84784,-10.69115 23.84766,-23.78125 V 87.127381 c 1.9e-4,-13.09012 -10.7402,-23.7827 -23.84766,-23.7832 z m -51.53334,10.35156 c 7.53545,2.9e-4 13.49622,5.95322 13.49609,13.43164 v 25.716799 c 1.2e-4,7.47842 -5.96064,13.43134 -13.49609,13.43164 -7.53573,1e-4 -13.49815,-5.95309 -13.49805,-13.43164 V 87.127381 c -1.1e-4,-7.47855 5.96234,-13.43175 13.49805,-13.43164 z m 51.53334,0 c 7.53544,2.9e-4 13.49622,5.95322 13.49609,13.43164 v 25.716799 c 1.2e-4,7.47842 -5.96065,13.43134 -13.49609,13.43164 -7.53574,1e-4 -13.49815,-5.95309 -13.49805,-13.43164 V 87.127381 c -1.1e-4,-7.47855 5.96232,-13.43175 13.49805,-13.43164 z"
       sodipodi:nodetypes="sssssssssssssssccsssssssscssssssssssssssscccccccccccccccccccccccccccc" /><path
       id="path4-2-9-0"
       style="baseline-shift:baseline;display:inline;overflow:visible;vector-effect:none;enable-background:accumulate;stop-color:#000000"
       d="m 367.65355,21.299132 c -14.54486,0.321498 -29.04668,4.372629 -41.45312,12.007812 -13.40723,8.180581 -24.27824,20.520112 -30.48438,34.962891 0,6.67e-4 0,0.0013 0,0.002 -4.28788,9.883664 -6.34332,20.69401 -6.17578,31.460938 10e-6,0.0013 10e-6,0.0026 0,0.0039 0.008,34.157757 -0.0156,68.315557 0.0117,102.472647 0.0489,5.51211 2.22828,11.08354 6.35547,14.79102 6.7e-4,6.6e-4 10e-4,0.001 0.002,0.002 4.20434,3.85326 10.40256,5.79367 15.95313,4.19336 4.67602,-1.34865 8.25467,-4.91891 11.72461,-8.27734 0.001,-0.001 0.003,-0.003 0.004,-0.004 3.01481,-2.83141 6.09953,-6.01534 10.24414,-7.32031 3.19128,-1.00655 6.61029,-0.13034 9.39258,1.47265 6.49616,3.66139 11.42566,9.63417 18.13086,12.75 10e-4,6.6e-4 0.003,0.001 0.004,0.002 4.45603,2.15679 9.75094,2.57423 14.43945,0.95117 10e-4,-6.8e-4 0.003,-0.001 0.004,-0.002 5.72881,-1.90854 10.24042,-6.16545 14.97461,-9.88282 10e-4,-6.8e-4 0.003,-0.001 0.004,-0.002 3.15664,-2.41992 6.55288,-5.03482 10.69531,-5.63281 3.39204,-0.49007 6.66498,1.01581 9.24414,3.01758 4.93367,3.68371 8.70185,8.93585 14.15625,11.76562 0.001,6.6e-4 0.003,10e-4 0.004,0.002 2.95967,1.59067 6.43713,2.03953 9.75391,1.53907 0.003,-4e-5 0.005,-4e-5 0.008,0 4.83211,-0.59538 9.47406,-3.24416 12.06055,-7.40821 6.6e-4,-0.001 0.001,-0.003 0.002,-0.004 2.68608,-4.14997 3.42076,-9.24959 3.29102,-14.1543 -4e-5,-0.003 -4e-5,-0.005 0,-0.008 0.0201,-25.13483 0.0263,-50.27155 0.006,-75.40625 -0.022,-9.56255 0.0371,-19.12181 -0.0371,-28.679683 v -0.0039 c -0.309,-13.18035 -3.48728,-26.417914 -10.10352,-37.869141 0,-6.67e-4 0,-0.0013 0,-0.002 C 433.73258,47.294531 424.58524,38.342332 413.83324,32.244444 399.90058,24.267132 383.62668,20.964771 367.65355,21.299132 Z m 2.11719,7.267578 c 11.9101,3.02e-4 23.96146,2.151875 34.88867,7.158203 9.8201,4.457574 18.58787,11.315856 25.01953,20.003906 3.56383,4.807095 6.48537,10.258879 8.53516,15.884766 2.87708,7.80693 4.25017,16.117843 4.45898,24.347656 2e-5,0.002 2e-5,0.0039 0,0.0059 0.0789,9.426639 0.0158,18.852799 0.0391,28.275389 0.0196,24.96723 0.0165,49.93318 -0.004,74.90039 0.0197,3.04303 0.0719,6.0968 -1.05664,9.04882 -1.02765,2.86145 -3.48415,5.13317 -6.45313,5.85157 -2.17267,0.56581 -4.63861,0.71312 -6.71679,-0.45508 -3.15181,-1.66297 -5.59005,-4.2444 -8.1543,-6.60938 -0.002,-0.001 -0.004,-0.003 -0.006,-0.004 -3.75908,-3.61938 -7.88516,-7.18192 -12.97851,-8.50586 -6.7e-4,-6.6e-4 -10e-4,-0.001 -0.002,-0.002 -4.80729,-1.31832 -10.04349,-0.35265 -14.36914,2.05859 -0.001,6.8e-4 -0.003,0.001 -0.004,0.002 -6.21492,3.34552 -10.95137,8.95845 -17.31055,12.3418 -2.67461,1.43735 -5.90153,2.10525 -8.89063,1.16601 h -0.002 c -4.35629,-1.33373 -7.82523,-4.37899 -11.26172,-7.10351 -10e-4,-0.001 -0.003,-0.003 -0.004,-0.004 -4.32258,-3.54383 -8.82567,-7.20759 -14.29883,-8.52343 -0.001,1e-5 -0.003,1e-5 -0.004,0 -4.59125,-1.16223 -9.59028,-0.37836 -13.67578,2.00195 -10e-4,6.8e-4 -0.003,0.001 -0.004,0.002 -5.48569,3.04627 -9.35885,8.25077 -14.47265,12.00977 -6.6e-4,6.7e-4 -0.001,0.001 -0.002,0.002 -1.79293,1.30337 -4.01304,2.37912 -6.36132,1.98633 -3.80961,-0.34836 -7.28948,-2.9048 -8.69922,-6.47461 l -0.002,-0.008 c -3.2e-4,-8.2e-4 -0.002,-0.001 -0.002,-0.002 -1.54803,-3.53198 -1.07162,-7.40763 -1.14453,-11.02929 -2e-5,-0.002 -2e-5,-0.004 0,-0.006 0.008,-33.15029 -0.0158,-66.30055 0.0117,-99.451169 -10e-6,-0.0013 -10e-6,-0.0026 0,-0.0039 0.0757,-7.057669 1.25025,-14.220985 3.48437,-20.919922 v -0.002 c 4.45183,-13.563733 13.34965,-25.569708 24.91016,-33.919922 v 0.002 c 10.00767,-7.285365 21.95219,-11.830641 34.17383,-13.367188 3.4041,-0.446821 6.89863,-0.647157 10.35742,-0.658203 z m -42.51628,36.318359 c -1.03525,-0.03167 -2.38054,0.01746 -1.83008,0.01758 -7.06515,0.310436 -13.84046,4.258669 -17.63476,10.220704 -0.001,0.0013 -0.003,0.0026 -0.004,0.0039 -2.54953,3.870679 -3.72229,8.562563 -3.54687,13.1875 8e-5,0.0039 8e-5,0.0078 0,0.01172 0.019,8.544908 -0.0372,17.088987 0.0293,25.628907 0.29857,6.83893 4.02491,13.39997 9.68946,17.23047 10e-4,6.5e-4 0.003,0.001 0.004,0.002 5.75817,4.01177 13.47189,5.01138 20.06641,2.61523 0.001,-1e-5 0.003,-1e-5 0.004,0 7.07945,-2.47468 12.70333,-8.75691 14.29688,-16.09375 6.6e-4,-10e-4 10e-4,-0.003 0.002,-0.004 0.84746,-3.58184 0.45104,-7.32939 0.54492,-11.06055 v -0.008 c 0,-6.891842 0.0412,-13.781034 -0.0312,-20.666016 v -0.0098 c -0.31463,-6.786099 -4.00291,-13.292684 -9.60742,-17.11914 -6.7e-4,-6.63e-4 -10e-4,-0.0013 -0.002,-0.002 -3.50083,-2.442788 -7.71774,-3.818684 -11.98047,-3.955078 z m 51.53334,0 c -1.03525,-0.03167 -2.38054,0.01746 -1.83008,0.01758 -7.06515,0.310436 -13.84046,4.258669 -17.63476,10.220704 -0.001,0.0013 -0.003,0.0026 -0.004,0.0039 -2.54953,3.870679 -3.72229,8.562563 -3.54687,13.1875 8e-5,0.0039 8e-5,0.0078 0,0.01172 0.019,8.544908 -0.0372,17.088987 0.0293,25.628907 0.29857,6.83893 4.02491,13.39997 9.68946,17.23047 10e-4,6.5e-4 0.003,0.001 0.004,0.002 5.75817,4.01177 13.47189,5.01138 20.06641,2.61523 10e-4,-1e-5 0.003,-1e-5 0.004,0 7.07945,-2.47468 12.70333,-8.75691 14.29688,-16.09375 6.5e-4,-10e-4 10e-4,-0.003 0.002,-0.004 0.84746,-3.58184 0.45104,-7.32939 0.54492,-11.06055 v -0.008 c 0,-6.891842 0.0412,-13.781034 -0.0312,-20.666016 v -0.0098 c -0.31463,-6.786099 -4.00291,-13.292684 -9.60742,-17.11914 -6.7e-4,-6.63e-4 -0.001,-0.0013 -0.002,-0.002 -3.50083,-2.442788 -7.71774,-3.818684 -11.98047,-3.955078 z m -52.23451,7.28125 h 0.004 c 5.33779,0 10.55518,2.952941 13.12305,7.642578 1.53367,2.650089 2.04057,5.744165 1.90235,8.746094 -0.0179,8.385094 0.0357,16.773649 -0.0274,25.162109 8e-5,0.004 8e-5,0.008 0,0.0117 -0.25559,5.51822 -3.85421,10.67364 -8.9414,12.82227 -5.33698,2.37771 -11.98927,1.31834 -16.25977,-2.69727 -3.28735,-2.96497 -5.03513,-7.42629 -4.82422,-11.82421 v -0.0117 c 3e-5,-6.5e-4 -3e-5,-10e-4 0,-0.002 0.0179,-8.58513 -0.0357,-17.173319 0.0273,-25.76171 -8e-5,-0.0039 -8e-5,-0.0078 0,-0.01172 0.25539,-5.484134 3.81148,-10.608169 8.85157,-12.779297 h -0.004 c 1.92946,-0.864256 4.18272,-2.058592 6.14844,-1.296875 z m 51.53334,0 h 0.004 c 5.33778,0 10.55519,2.95294 13.12305,7.642578 1.53367,2.650089 2.04057,5.744165 1.90235,8.746094 -0.0178,8.385098 0.0357,16.773649 -0.0274,25.162109 8e-5,0.004 8e-5,0.008 0,0.0117 -0.25559,5.51822 -3.85421,10.67364 -8.9414,12.82227 -5.33698,2.37771 -11.98927,1.31834 -16.25977,-2.69727 -3.28735,-2.96497 -5.03513,-7.42629 -4.82422,-11.82421 v -0.0117 c 3e-5,-6.5e-4 -3e-5,-10e-4 0,-0.002 0.0179,-8.58513 -0.0357,-17.173319 0.0273,-25.76171 -8e-5,-0.0039 -8e-5,-0.0078 0,-0.01172 0.25539,-5.484134 3.81148,-10.608169 8.85157,-12.779297 h -0.004 c 1.92946,-0.864256 4.18271,-2.058592 6.14844,-1.296875 z"
       sodipodi:nodetypes="ccccsccsccscccscccccccscccccsccscccccccccsccccccccccsccccccccccccccccscsccccccccccccccccccccccsccccccccccccccccccccscccccccscccccccccccccsccscccccccccccccsc" /><path
       id="path4-2-9-2-1"
       style="baseline-shift:baseline;display:inline;overflow:visible;vector-effect:none;fill:#c2ab00;enable-background:accumulate;stop-color:#000000"
       d="m 369.77074,21.541319 c -45.31925,0 -79.96288,34.393127 -79.96289,76.794922 V 201.69756 c 0,12.62195 9.38519,19.80079 18.0625,19.80079 7.03832,0 11.72129,-5.13248 16.01172,-9.23633 4.29006,-4.10352 8.08636,-7.36328 12.90429,-7.36328 4.81834,0 9.26186,3.39077 14.35743,7.54101 5.09556,4.15025 10.84189,9.0586 18.62695,9.0586 7.78507,0 13.5348,-4.9064 18.63867,-9.05665 5.10386,-4.15024 9.55863,-7.54296 14.37695,-7.54296 4.81795,0 8.60522,3.25837 12.90821,7.36523 4.30331,4.10716 9.03143,9.23438 16.11719,9.23438 4.02196,0 8.51183,-1.1277 12.05468,-4.35352 3.54257,-3.22554 5.81115,-8.4242 5.86524,-15.41992 v -0.0117 -0.0137 c 0.0746,-101.01151 0,-2.35345 0,-103.363279 0,-23.707327 -8.62407,-43.087431 -23.01953,-56.365234 C 412.31664,28.693173 392.2956,21.541319 369.77074,21.541319 Z m 0,6.757813 c 21.09859,0 39.3671,6.658863 52.35742,18.640625 12.99029,11.981717 20.8457,29.310376 20.8457,51.396484 0,100.990259 0.0745,2.437939 0,103.335929 -0.0435,5.63553 -1.65172,8.64769 -3.6582,10.47461 -2.00697,1.82737 -4.74005,2.59375 -7.5039,2.59375 -3.5801,0 -7.05911,-3.17148 -11.45313,-7.36523 -4.3937,-4.19344 -9.78745,-9.23438 -17.57227,-9.23438 -7.78505,0 -13.53675,4.9064 -18.64062,9.05664 -5.10386,4.15025 -9.55667,7.54297 -14.375,7.54297 -4.81831,0 -9.2638,-3.39077 -14.35938,-7.54101 -5.09557,-4.15025 -10.83994,-9.0586 -18.625,-9.0586 -7.7848,0 -13.18468,5.0415 -17.57226,9.23828 -2.19396,2.09856 -4.1584,3.93835 -6.00977,5.25391 -1.85136,1.31556 -3.59136,2.10742 -5.33398,2.10742 -2.58878,0 -5.41447,-0.896 -7.59375,-2.97461 -2.17928,-2.0786 -3.71094,-5.33974 -3.71094,-10.06836 V 98.336241 c 0,-38.742064 31.27758,-70.037109 73.20508,-70.037109 z m -43.21355,36.841797 c -12.13218,-1.75e-4 -22.05096,9.877532 -22.05078,21.986328 v 25.716793 c -1.7e-4,12.10879 9.91861,21.98453 22.05078,21.98437 12.13176,-4.7e-4 22.05096,-9.87604 22.05079,-21.98437 V 87.127257 c 1.8e-4,-12.10834 -9.91903,-21.985858 -22.05079,-21.986328 z m 51.53334,0 c -12.13218,-1.75e-4 -22.05096,9.877532 -22.05078,21.986328 v 25.716793 c -1.7e-4,12.10879 9.91859,21.98453 22.05078,21.98437 12.13176,-4.7e-4 22.05096,-9.87604 22.05079,-21.98437 V 87.127257 c 1.8e-4,-12.10834 -9.91904,-21.985858 -22.05079,-21.986328 z m -51.53334,6.757812 c 8.49267,3.3e-4 15.29311,6.785017 15.29297,15.228516 v 25.716793 c 1.3e-4,8.44349 -6.8003,15.22818 -15.29297,15.22851 -8.49295,1.2e-4 -15.29504,-6.78469 -15.29492,-15.22851 V 87.127257 c -1.3e-4,-8.443822 6.80198,-15.228639 15.29492,-15.228516 z m 51.53334,0 c 8.49265,3.3e-4 15.29311,6.785017 15.29297,15.228516 v 25.716793 c 1.3e-4,8.44349 -6.80031,15.22818 -15.29297,15.22851 -8.49296,1.2e-4 -15.29504,-6.78469 -15.29492,-15.22851 V 87.127257 c -1.3e-4,-8.443822 6.80197,-15.228639 15.29492,-15.228516 z"
       sodipodi:nodetypes="sssssssssssssccssssssscssssssssssssssscccccccccccccccccccccccccccc" /><text
       xml:space="preserve"
       style="font-size:7.04301px;line-height:1.25;font-family:'Gotham Black';-inkscape-font-specification:'Gotham Black, ';stroke-width:0.264583"
       x="-0.063379139"
       y="5.1413941"
       id="text1"><tspan
         sodipodi:role="line"
         id="tspan1"
         style="stroke-width:0.264583"
         x="-0.063379139"
         y="5.1413941">Gelb: 6,75</tspan><tspan
         sodipodi:role="line"
         style="stroke-width:0.264583"
         x="-0.063379139"
         y="13.945157"
         id="tspan2">Schwarz: 7.3</tspan><tspan
         sodipodi:role="line"
         style="stroke-width:0.264583"
         x="-0.063379139"
         y="22.748919"
         id="tspan3">Rot: 10,4</tspan><tspan
         sodipodi:role="line"
         style="stroke-width:0.264583"
         x="-0.063379139"
         y="31.552683"
         id="tspan4" /></text><path
       id="path5-1-3"
       style="fill:none;fill-opacity:1;stroke:#ff0000;stroke-width:10.4;stroke-dasharray:none;stroke-opacity:1"
       d="M 874.90721,19.311679 C 814.48719,19.311624 765.50708,68.2753 765.50716,128.67502 c 2e-4,60.39952 48.98023,109.36289 109.40005,109.36283 27.48335,-7e-5 53.95986,-10.341 74.1639,-28.96619 v -5.1e-4 L 870.00001,130 950.43901,49.560996 C 930.08867,30.144981 903.03854,19.31182 874.90721,19.311679 Z"
       sodipodi:nodetypes="cssccccc" /><ellipse
       style="fill:none;fill-opacity:1;stroke:#ff0000;stroke-width:10.4;stroke-dasharray:none;stroke-opacity:1"
       id="path6-8-9"
       cx="859.09375"
       cy="72.546944"
       rx="30.929478"
       ry="30.919085" /><path
       id="path5-1-3-6"
       style="baseline-shift:baseline;display:inline;overflow:visible;opacity:1;vector-effect:none;fill:#ff0000;enable-background:accumulate;stop-color:#000000;stop-opacity:1"
       d="m 169.60643,11.423778 c -63.22936,-5.6e-5 -114.599799,51.35363 -114.599719,114.564582 2.1e-4,63.21074 51.370569,114.56257 114.599719,114.56252 28.78772,-8e-5 56.52593,-10.83434 77.68931,-30.34389 l 0.30489,-0.28112 3.56258,-3.50831 -3.5357,-3.5357 -0.003,0.003 -75.57161,-75.57161 80.52583,-80.527387 -3.85196,-3.674194 C 227.41065,22.773405 199.07273,11.423926 169.60643,11.423778 Z m 0,10.400398 c 25.00913,1.26e-4 49.04697,9.084551 67.91007,25.318352 l -80.16979,80.170302 78.73783,78.73783 c -18.65719,15.47896 -42.11798,24.09976 -66.47811,24.09982 -57.61048,6e-5 -104.199129,-46.57383 -104.199319,-104.16212 -8e-5,-57.588478 46.588649,-104.164234 104.199319,-104.164184 z m -15.81247,11.916069 c -19.89122,0 -36.13113,16.23187 -36.13113,36.119242 0,19.887372 16.23991,36.119243 36.13113,36.119243 19.89123,0 36.12854,-16.231871 36.12854,-36.119243 0,-19.887372 -16.23731,-36.119242 -36.12854,-36.119242 z m 0,10.400399 c 14.27254,0 25.72814,11.453938 25.72814,25.718843 0,14.264906 -11.4556,25.718844 -25.72814,25.718844 -14.27253,0 -25.73073,-11.453938 -25.73073,-25.718844 0,-14.264905 11.4582,-25.718843 25.73073,-25.718843 z"
       sodipodi:nodetypes="cccscccccccccccccccssssssssss" /><path
       id="path5-1-3-6-6"
       style="baseline-shift:baseline;display:inline;overflow:visible;opacity:1;vector-effect:none;fill:#000000;fill-opacity:1;enable-background:accumulate;stop-color:#000000;stop-opacity:1"
       d="m 169.93902,12.974587 c -62.39195,-5e-5 -113.048479,50.640787 -113.048389,113.013773 2e-4,62.37278 50.656639,113.01177 113.048389,113.01171 27.99816,-7e-5 54.98875,-10.38651 75.75094,-29.12226 l 3.59254,-3.47886 -1.52859,-1.52807 -2.00711,-2.00711 -75.55198,-75.55146 80.5,-80.499995 -2.70268,-2.580204 C 226.96361,24.169041 199.0074,12.974737 169.93902,12.974587 Z m 0,7.29878 c 25.94012,1.3e-4 50.85831,9.620182 70.18177,26.789062 l -80.24988,80.249881 78.83601,78.83808 c -19.13537,16.40181 -43.47707,25.55083 -68.7679,25.5509 -58.44788,5e-5 -105.749429,-47.28668 -105.749619,-105.71293 -8e-5,-58.426446 47.301549,-105.715043 105.749619,-105.714993 z m -15.81247,15.017688 c -19.05382,0 -34.5798,15.519022 -34.5798,34.568432 0,19.04941 15.52598,34.567913 34.5798,34.567913 19.05383,0 34.57825,-15.518503 34.57825,-34.567913 0,-19.04941 -15.52442,-34.568432 -34.57825,-34.568432 z m 0,7.298779 c 15.10994,0 27.27948,12.166783 27.27948,27.269653 0,15.10287 -12.16954,27.269137 -27.27948,27.269137 -15.10993,0 -27.27895,-12.166267 -27.27895,-27.269137 0,-15.10287 12.16902,-27.269653 27.27895,-27.269653 z"
       sodipodi:nodetypes="ccscccccccccccccccssssssssss" /><path
       id="path5-1-3-6-9"
       style="baseline-shift:baseline;display:inline;overflow:visible;opacity:1;vector-effect:none;fill:#ffdb00;fill-opacity:1;enable-background:accumulate;stop-color:#000000;stop-opacity:1"
       d="M 170,13.250025 C 107.75662,13.249975 57.224381,63.764027 57.224461,125.98836 57.224671,188.21247 107.75682,238.72469 170,238.72463 c 27.83107,-7e-5 54.66269,-10.28801 75.34476,-28.85302 1.26122,-1.09349 2.42563,-2.28713 3.60495,-3.46645 l -1.41077,-1.41077 v -0.008 l -77.67381,-77.67408 80.49586,-80.495859 -2.50011,-2.384867 C 226.88345,24.417274 198.99778,13.250175 170,13.250025 Z M 170,20 c 26.10505,1.4e-4 51.18235,9.711178 70.58588,27.046928 l -80.26591,80.265382 78.85566,78.85565 C 219.95695,222.73493 195.45602,231.97459 170,231.97465 111.40356,231.97471 63.974631,184.56328 63.974431,125.98836 63.974351,67.413237 111.40337,19.99995 170,20 Z m -15.81247,15.564425 c -18.90525,0 -34.30488,15.394324 -34.30488,34.295064 0,18.90074 15.39963,34.295061 34.30488,34.295061 18.90526,0 34.30437,-15.394321 34.30437,-34.295061 0,-18.90074 -15.39911,-34.295064 -34.30437,-34.295064 z m 0,6.749976 c 15.25851,0 27.55439,12.293548 27.55439,27.545088 0,15.25154 -12.29588,27.545089 -27.55439,27.545089 -15.2585,0 -27.55491,-12.293549 -27.55491,-27.545089 0,-15.25154 12.29641,-27.545088 27.55491,-27.545088 z"
       sodipodi:nodetypes="ccscccccccccccccccssssssssss" /><path
       style="baseline-shift:baseline;display:inline;overflow:visible;opacity:1;vector-effect:none;enable-background:accumulate;stop-color:#000000;stop-opacity:1"
       d="m 233.84961,108.84961 v 32.30078 h 32.30078 v -32.30078 z m 7.30078,7.30078 h 17.69922 v 17.69922 h -17.69922 z"
       id="rect10-8" /><path
       style="baseline-shift:baseline;display:inline;overflow:visible;opacity:1;vector-effect:none;fill:#ffde00;enable-background:accumulate;stop-color:#000000;stop-opacity:1"
       d="m 234.125,109.125 v 31.75 h 31.75 v -31.75 z m 6.75,6.75 h 18.25 v 18.25 h -18.25 z"
       id="rect10" /></g></svg>
