<?xml version="1.0" encoding="UTF-8" standalone="no"?>
<!-- Created with Inkscape (http://www.inkscape.org/) -->

<svg
   width="500mm"
   height="250mm"
   viewBox="0 0 500 250"
   version="1.1"
   id="svg1"
   xml:space="preserve"
   inkscape:version="1.4.2 (f4327f4, 2025-05-13)"
   sodipodi:docname="PacmanGhostV3.svg"
   inkscape:export-filename="PacmanGhostV3_1.svg"
   inkscape:export-xdpi="96"
   inkscape:export-ydpi="96"
   xmlns:inkscape="http://www.inkscape.org/namespaces/inkscape"
   xmlns:sodipodi="http://sodipodi.sourceforge.net/DTD/sodipodi-0.dtd"
   xmlns="http://www.w3.org/2000/svg"
   xmlns:svg="http://www.w3.org/2000/svg"><sodipodi:namedview
     id="namedview1"
     pagecolor="#ffffff"
     bordercolor="#000000"
     borderopacity="0.25"
     inkscape:showpageshadow="2"
     inkscape:pageopacity="0.0"
     inkscape:pagecheckerboard="0"
     inkscape:deskcolor="#d1d1d1"
     inkscape:document-units="mm"
     showgrid="true"
     inkscape:zoom="0.70710678"
     inkscape:cx="1160.3622"
     inkscape:cy="519.72348"
     inkscape:window-width="3440"
     inkscape:window-height="1369"
     inkscape:window-x="2552"
     inkscape:window-y="-8"
     inkscape:window-maximized="1"
     inkscape:current-layer="layer1"><inkscape:grid
       id="grid2"
       units="mm"
       originx="0"
       originy="0"
       spacingx="0.99999999"
       spacingy="0.99999999"
       empcolor="#0099e5"
       empopacity="0.30196078"
       color="#0099e5"
       opacity="0.14901961"
       empspacing="10"
       enabled="true"
       visible="true" /><inkscape:page
       x="0"
       y="0"
       width="500"
       height="250"
       id="page2"
       margin="0"
       bleed="0" /></sodipodi:namedview><defs
     id="defs1" /><g
     inkscape:label="Ebene 1"
     inkscape:groupmode="layer"
     id="layer1"><path
       style="baseline-shift:baseline;display:inline;overflow:visible;opacity:1;vector-effect:none;enable-background:accumulate;stop-color:#000000;stop-opacity:1"
       d="m 250,20 c -45.33003,0 -79.98437,34.403008 -79.98437,76.81641 v 103.36132 c 0,12.63251 9.39492,19.82227 18.08398,19.82227 7.04867,0 11.73774,-5.13912 16.02735,-9.24219 4.2896,-4.10307 8.08035,-7.35742 12.88867,-7.35742 4.80833,0 9.24848,3.38516 14.34375,7.53516 C 236.45465,215.08555 242.20599,220 250,220 c 7.79402,0 13.54878,-4.9125 18.65235,-9.0625 5.10356,-4.15 9.55496,-7.53711 14.36328,-7.53711 4.80833,0 8.59004,3.25294 12.89258,7.35938 4.30254,4.10643 9.03678,9.24023 16.13281,9.24023 4.02595,0 8.52071,-1.1292 12.06836,-4.35938 3.54765,-3.23017 5.81893,-8.43529 5.87305,-15.43554 v -0.0117 -0.0137 c 0.0746,-101.01151 0,-2.35346 0,-103.36328 0,-23.712498 -8.62741,-43.098931 -23.02735,-56.380863 C 292.55514,27.153615 272.52937,20 250,20 Z m 0,6.800781 c 21.09411,0 39.35785,6.657086 52.34375,18.634766 12.98591,11.977679 20.8379,29.2998 20.8379,51.380863 0,100.99027 0.0745,2.43792 0,103.33593 -0.0435,5.63154 -1.64835,8.6361 -3.6504,10.45899 -2.00204,1.82288 -4.73031,2.58789 -7.49023,2.58789 -3.56749,0 -7.04367,-3.16581 -11.4375,-7.35938 -4.39383,-4.19356 -9.79388,-9.24023 -17.58789,-9.24023 -7.79401,0 -13.55073,4.9125 -18.6543,9.0625 -5.10356,4.15 -9.553,7.53711 -14.36133,7.53711 -4.80831,0 -9.25043,-3.38516 -14.3457,-7.53516 -5.09527,-4.15 -10.84466,-9.06445 -18.63867,-9.06445 -7.79401,0 -13.20016,5.04721 -17.58789,9.24414 -4.38773,4.19693 -7.85581,7.35547 -11.32813,7.35547 -5.16773,0 -11.2832,-3.57345 -11.2832,-13.02149 V 96.81641 c 0,-38.730605 31.26669,-70.015629 73.18359,-70.015629 z m -29.98437,36.798828 c -12.14375,-1.75e-4 -22.07245,9.887385 -22.07227,22.007813 v 25.716798 c -1.7e-4,12.12042 9.92853,22.00602 22.07227,22.00586 12.14331,-4.7e-4 22.07244,-9.8859 22.07227,-22.00586 V 85.607422 c 1.8e-4,-12.119973 -9.92896,-22.007342 -22.07227,-22.007813 z m 60,0 c -12.14376,-1.75e-4 -22.07245,9.887385 -22.07227,22.007813 v 25.716798 c -1.7e-4,12.12042 9.92852,22.00602 22.07227,22.00586 12.1433,-4.7e-4 22.07244,-9.8859 22.07227,-22.00586 V 85.607422 c 1.8e-4,-12.119973 -9.92897,-22.007342 -22.07227,-22.007813 z m -60,6.800782 c 8.48131,3.29e-4 15.27162,6.774968 15.27148,15.207031 v 25.716798 c 1.3e-4,8.43206 -6.79017,15.2067 -15.27148,15.20703 -8.48162,1.2e-4 -15.27356,-6.77465 -15.27344,-15.20703 V 85.607422 c -1.3e-4,-8.432384 6.79183,-15.207154 15.27344,-15.207031 z m 60,0 c 8.4813,3.29e-4 15.27162,6.774968 15.27148,15.207031 v 25.716798 c 1.3e-4,8.43206 -6.79018,15.2067 -15.27148,15.20703 -8.48163,1.2e-4 -15.27356,-6.77465 -15.27344,-15.20703 V 85.607422 c -1.3e-4,-8.432384 6.79182,-15.207154 15.27344,-15.207031 z"
       id="path4-2-9" /></g></svg>
