<?xml version="1.0" encoding="UTF-8" standalone="no"?>
<!-- Created with Inkscape (http://www.inkscape.org/) -->

<svg
   width="500mm"
   height="250mm"
   viewBox="0 0 500 250"
   version="1.1"
   id="svg1"
   xml:space="preserve"
   inkscape:version="1.4.2 (f4327f4, 2025-05-13)"
   sodipodi:docname="PacmanGhostV3.svg"
   inkscape:export-filename="PacmanGhostV3.1_1.svg"
   inkscape:export-xdpi="96"
   inkscape:export-ydpi="96"
   xmlns:inkscape="http://www.inkscape.org/namespaces/inkscape"
   xmlns:sodipodi="http://sodipodi.sourceforge.net/DTD/sodipodi-0.dtd"
   xmlns="http://www.w3.org/2000/svg"
   xmlns:svg="http://www.w3.org/2000/svg"><sodipodi:namedview
     id="namedview1"
     pagecolor="#ffffff"
     bordercolor="#000000"
     borderopacity="0.25"
     inkscape:showpageshadow="2"
     inkscape:pageopacity="0.0"
     inkscape:pagecheckerboard="0"
     inkscape:deskcolor="#d1d1d1"
     inkscape:document-units="mm"
     showgrid="true"
     inkscape:zoom="1"
     inkscape:cx="1116.5"
     inkscape:cy="578.5"
     inkscape:window-width="3440"
     inkscape:window-height="1369"
     inkscape:window-x="2552"
     inkscape:window-y="-8"
     inkscape:window-maximized="1"
     inkscape:current-layer="layer1"><inkscape:grid
       id="grid2"
       units="mm"
       originx="0"
       originy="0"
       spacingx="0.99999999"
       spacingy="0.99999999"
       empcolor="#0099e5"
       empopacity="0.30196078"
       color="#0099e5"
       opacity="0.14901961"
       empspacing="10"
       enabled="true"
       visible="true" /><inkscape:page
       x="0"
       y="0"
       width="500"
       height="250"
       id="page2"
       margin="0"
       bleed="0" /></sodipodi:namedview><defs
     id="defs1" /><g
     inkscape:label="Ebene 1"
     inkscape:groupmode="layer"
     id="layer1"><path
       id="path4-2-9-0"
       style="baseline-shift:baseline;display:inline;overflow:visible;vector-effect:none;enable-background:accumulate;stop-color:#000000"
       transform="translate(29.984608,-0.37890571)"
       d="m 247.88281,19.779297 c -14.54486,0.321498 -29.04668,4.372629 -41.45312,12.007812 -13.40723,8.180581 -24.27824,20.520112 -30.48438,34.962891 0,6.67e-4 0,0.0013 0,0.002 -4.28788,9.883664 -6.34332,20.69401 -6.17578,31.460938 1e-5,0.0013 1e-5,0.0026 0,0.0039 0.008,34.157762 -0.0156,68.315562 0.0117,102.472652 0.0489,5.51211 2.22828,11.08354 6.35547,14.79102 6.7e-4,6.6e-4 0.001,10e-4 0.002,0.002 4.20434,3.85326 10.40256,5.79367 15.95313,4.19336 4.67602,-1.34865 8.25467,-4.91891 11.72461,-8.27734 0.001,-0.001 0.003,-0.003 0.004,-0.004 3.01481,-2.83141 6.09953,-6.01534 10.24414,-7.32031 3.19128,-1.00655 6.61029,-0.13034 9.39258,1.47265 6.49616,3.66139 11.42566,9.63417 18.13086,12.75 0.001,6.6e-4 0.003,10e-4 0.004,0.002 4.45603,2.15679 9.75094,2.57423 14.43945,0.95117 10e-4,-6.8e-4 0.003,-0.001 0.004,-0.002 5.72881,-1.90854 10.24042,-6.16545 14.97461,-9.88282 10e-4,-6.8e-4 0.003,-0.001 0.004,-0.002 3.15664,-2.41992 6.55288,-5.03482 10.69531,-5.63281 3.39204,-0.49007 6.66498,1.01581 9.24414,3.01758 4.93367,3.68371 8.70185,8.93585 14.15625,11.76562 10e-4,6.6e-4 0.003,0.001 0.004,0.002 2.95967,1.59067 6.43713,2.03953 9.75391,1.53907 0.003,-4e-5 0.005,-4e-5 0.008,0 4.83211,-0.59538 9.47406,-3.24416 12.06055,-7.40821 6.6e-4,-0.001 10e-4,-0.003 0.002,-0.004 2.68608,-4.14997 3.42076,-9.24959 3.29102,-14.1543 -4e-5,-0.003 -4e-5,-0.005 0,-0.008 0.0201,-25.13483 0.0263,-50.27155 0.006,-75.40625 -0.022,-9.56255 0.0371,-19.12181 -0.0371,-28.679688 v -0.0039 c -0.309,-13.18035 -3.48728,-26.417914 -10.10352,-37.869141 0,-6.67e-4 0,-0.0013 0,-0.002 C 313.96184,45.774696 304.8145,36.822497 294.0625,30.724609 280.12984,22.747297 263.85594,19.444936 247.88281,19.779297 Z M 250,27.046875 c 11.9101,3.02e-4 23.96146,2.151875 34.88867,7.158203 9.8201,4.457574 18.58787,11.315856 25.01953,20.003906 3.56383,4.807095 6.48537,10.258879 8.53516,15.884766 2.87708,7.80693 4.25017,16.117843 4.45898,24.347656 2e-5,0.002 2e-5,0.0039 0,0.0059 0.0789,9.426644 0.0158,18.852804 0.0391,28.275394 0.0196,24.96723 0.0165,49.93318 -0.004,74.90039 0.0197,3.04303 0.0719,6.0968 -1.05664,9.04882 -1.02765,2.86145 -3.48415,5.13317 -6.45313,5.85157 -2.17267,0.56581 -4.63861,0.71312 -6.71679,-0.45508 -3.15181,-1.66297 -5.59005,-4.2444 -8.1543,-6.60938 -0.002,-0.001 -0.004,-0.003 -0.006,-0.004 -3.75908,-3.61938 -7.88516,-7.18192 -12.97851,-8.50586 -6.7e-4,-6.6e-4 -10e-4,-0.001 -0.002,-0.002 -4.80729,-1.31832 -10.04349,-0.35265 -14.36914,2.05859 -0.001,6.8e-4 -0.003,0.001 -0.004,0.002 -6.21492,3.34552 -10.95137,8.95845 -17.31055,12.3418 -2.67461,1.43735 -5.90153,2.10525 -8.89063,1.16601 h -0.002 c -4.35629,-1.33373 -7.82523,-4.37899 -11.26172,-7.10351 -0.001,-0.001 -0.003,-0.003 -0.004,-0.004 -4.32258,-3.54383 -8.82567,-7.20759 -14.29883,-8.52343 -0.001,10e-6 -0.003,10e-6 -0.004,0 -4.59125,-1.16223 -9.59028,-0.37836 -13.67578,2.00195 -10e-4,6.8e-4 -0.003,0.001 -0.004,0.002 -5.48569,3.04627 -9.35885,8.25077 -14.47265,12.00977 -6.6e-4,6.7e-4 -0.001,0.001 -0.002,0.002 -1.79293,1.30337 -4.01304,2.37912 -6.36132,1.98633 -3.80961,-0.34836 -7.28948,-2.9048 -8.69922,-6.47461 l -0.002,-0.008 c -3.2e-4,-8.2e-4 -0.002,-10e-4 -0.002,-0.002 -1.54803,-3.53198 -1.07162,-7.40763 -1.14453,-11.02929 -2e-5,-0.002 -2e-5,-0.004 0,-0.006 0.008,-33.15029 -0.0158,-66.30055 0.0117,-99.451174 -1e-5,-0.0013 -1e-5,-0.0026 0,-0.0039 0.0757,-7.057669 1.25025,-14.220985 3.48437,-20.919922 v -0.002 c 4.45183,-13.563733 13.34965,-25.569708 24.91016,-33.919922 v 0.002 c 10.00767,-7.285365 21.95219,-11.830641 34.17383,-13.367188 3.4041,-0.446821 6.89863,-0.647157 10.35742,-0.658203 z m -42.51628,36.318359 c -1.03525,-0.03167 -2.38054,0.01746 -1.83008,0.01758 -7.06515,0.310436 -13.84046,4.258669 -17.63476,10.220704 -0.001,0.0013 -0.003,0.0026 -0.004,0.0039 -2.54953,3.870679 -3.72229,8.562563 -3.54687,13.1875 8e-5,0.0039 8e-5,0.0078 0,0.01172 0.019,8.544908 -0.0372,17.088992 0.0293,25.628912 0.29857,6.83893 4.02491,13.39997 9.68946,17.23047 0.001,6.5e-4 0.003,0.001 0.004,0.002 5.75817,4.01177 13.47189,5.01138 20.06641,2.61523 0.001,-1e-5 0.003,-1e-5 0.004,0 7.07945,-2.47468 12.70333,-8.75691 14.29688,-16.09375 6.6e-4,-10e-4 10e-4,-0.003 0.002,-0.004 0.84746,-3.58184 0.45104,-7.32939 0.54492,-11.06055 v -0.008 c 0,-6.891847 0.0412,-13.781039 -0.0312,-20.666021 v -0.0098 c -0.31463,-6.786099 -4.00291,-13.292684 -9.60742,-17.11914 -6.7e-4,-6.63e-4 -0.001,-0.0013 -0.002,-0.002 -3.50083,-2.442788 -7.71774,-3.818684 -11.98047,-3.955078 z m 51.53334,0 c -1.03525,-0.03167 -2.38054,0.01746 -1.83008,0.01758 -7.06515,0.310436 -13.84046,4.258669 -17.63476,10.220704 -0.001,0.0013 -0.003,0.0026 -0.004,0.0039 -2.54953,3.870679 -3.72229,8.562563 -3.54687,13.1875 8e-5,0.0039 8e-5,0.0078 0,0.01172 0.019,8.544908 -0.0372,17.088992 0.0293,25.628912 0.29857,6.83893 4.02491,13.39997 9.68946,17.23047 0.001,6.5e-4 0.003,0.001 0.004,0.002 5.75817,4.01177 13.47189,5.01138 20.06641,2.61523 10e-4,-1e-5 0.003,-1e-5 0.004,0 7.07945,-2.47468 12.70333,-8.75691 14.29688,-16.09375 6.5e-4,-10e-4 10e-4,-0.003 0.002,-0.004 0.84746,-3.58184 0.45104,-7.32939 0.54492,-11.06055 v -0.008 c 0,-6.891847 0.0412,-13.781039 -0.0312,-20.666021 v -0.0098 c -0.31463,-6.786099 -4.00291,-13.292684 -9.60742,-17.11914 -6.7e-4,-6.63e-4 -0.001,-0.0013 -0.002,-0.002 -3.50083,-2.442788 -7.71774,-3.818684 -11.98047,-3.955078 z m -52.23451,7.28125 h 0.004 c 5.33779,0 10.55518,2.952941 13.12305,7.642578 1.53367,2.650089 2.04057,5.744165 1.90235,8.746094 -0.0179,8.385094 0.0357,16.773654 -0.0274,25.162114 8e-5,0.004 8e-5,0.008 0,0.0117 -0.25559,5.51822 -3.85421,10.67364 -8.9414,12.82227 -5.33698,2.37771 -11.98927,1.31834 -16.25977,-2.69727 -3.28735,-2.96497 -5.03513,-7.42629 -4.82422,-11.82421 v -0.0117 c 3e-5,-6.5e-4 -3e-5,-10e-4 0,-0.002 0.0179,-8.58513 -0.0357,-17.173324 0.0273,-25.761715 -8e-5,-0.0039 -8e-5,-0.0078 0,-0.01172 0.25539,-5.484134 3.81148,-10.608169 8.85157,-12.779297 h -0.004 c 1.92946,-0.864256 4.18272,-2.058592 6.14844,-1.296875 z m 51.53334,0 h 0.004 c 5.33778,0 10.55519,2.95294 13.12305,7.642578 1.53367,2.650089 2.04057,5.744165 1.90235,8.746094 -0.0178,8.385098 0.0357,16.773654 -0.0274,25.162114 8e-5,0.004 8e-5,0.008 0,0.0117 -0.25559,5.51822 -3.85421,10.67364 -8.9414,12.82227 -5.33698,2.37771 -11.98927,1.31834 -16.25977,-2.69727 -3.28735,-2.96497 -5.03513,-7.42629 -4.82422,-11.82421 v -0.0117 c 3e-5,-6.5e-4 -3e-5,-10e-4 0,-0.002 0.0179,-8.58513 -0.0357,-17.173324 0.0273,-25.761715 -8e-5,-0.0039 -8e-5,-0.0078 0,-0.01172 0.25539,-5.484134 3.81148,-10.608169 8.85157,-12.779297 h -0.004 c 1.92946,-0.864256 4.18271,-2.058592 6.14844,-1.296875 z"
       sodipodi:nodetypes="ccccsccsccscccscccccccscccccsccscccccccccsccccccccccsccccccccccccccccscsccccccccccccccccccccccsccccccccccccccccccccscccccccscccccccccccccsccscccccccccccccsc" /></g></svg>
