<?xml version="1.0" encoding="UTF-8" standalone="no"?>
<!-- Created with Inkscape (http://www.inkscape.org/) -->

<svg
   width="500mm"
   height="250mm"
   viewBox="0 0 500 250"
   version="1.1"
   id="svg1"
   xml:space="preserve"
   inkscape:version="1.4.2 (f4327f4, 2025-05-13)"
   sodipodi:docname="PacmanGhostV3.svg"
   inkscape:export-filename="PacmanGhostV3.1_3.svg"
   inkscape:export-xdpi="96"
   inkscape:export-ydpi="96"
   xmlns:inkscape="http://www.inkscape.org/namespaces/inkscape"
   xmlns:sodipodi="http://sodipodi.sourceforge.net/DTD/sodipodi-0.dtd"
   xmlns="http://www.w3.org/2000/svg"
   xmlns:svg="http://www.w3.org/2000/svg"><sodipodi:namedview
     id="namedview1"
     pagecolor="#ffffff"
     bordercolor="#000000"
     borderopacity="0.25"
     inkscape:showpageshadow="2"
     inkscape:pageopacity="0.0"
     inkscape:pagecheckerboard="0"
     inkscape:deskcolor="#d1d1d1"
     inkscape:document-units="mm"
     showgrid="true"
     inkscape:zoom="1"
     inkscape:cx="1178.5"
     inkscape:cy="546.5"
     inkscape:window-width="3440"
     inkscape:window-height="1369"
     inkscape:window-x="2552"
     inkscape:window-y="-8"
     inkscape:window-maximized="1"
     inkscape:current-layer="layer1"><inkscape:grid
       id="grid2"
       units="mm"
       originx="0"
       originy="0"
       spacingx="0.99999999"
       spacingy="0.99999999"
       empcolor="#0099e5"
       empopacity="0.30196078"
       color="#0099e5"
       opacity="0.14901961"
       empspacing="10"
       enabled="true"
       visible="true" /><inkscape:page
       x="0"
       y="0"
       width="500"
       height="250"
       id="page2"
       margin="0"
       bleed="0" /></sodipodi:namedview><defs
     id="defs1" /><g
     inkscape:label="Ebene 1"
     inkscape:groupmode="layer"
     id="layer1"><path
       id="path5-1-3-6-68"
       style="baseline-shift:baseline;display:inline;overflow:visible;vector-effect:none;fill:#ff00c8;fill-opacity:1;enable-background:accumulate;stop-color:#000000"
       d="m 169.60643,11.423779 c -63.22936,-5.6e-5 -114.599799,51.35363 -114.599719,114.564581 2.1e-4,63.21074 51.370569,114.56257 114.599719,114.56252 28.78772,-8e-5 56.52593,-10.83434 77.68931,-30.34389 l 0.30489,-0.28112 3.56258,-3.50831 -3.5357,-3.5357 -0.003,0.003 -75.57161,-75.57161 80.52583,-80.527386 -3.85196,-3.674194 C 227.41065,22.773406 199.07273,11.423927 169.60643,11.423779 Z m -15.81247,32.716866 c 14.27254,0 25.72814,11.453938 25.72814,25.718843 0,14.264906 -11.4556,25.718844 -25.72814,25.718844 -14.27253,0 -25.73073,-11.453938 -25.73073,-25.718844 0,-14.264905 11.4582,-25.718843 25.73073,-25.718843 z"
       sodipodi:nodetypes="cccsccccccccsssss" /></g></svg>
