<?xml version="1.0" encoding="UTF-8" standalone="no"?>
<!-- Created with Inkscape (http://www.inkscape.org/) -->

<svg
   width="500mm"
   height="250mm"
   viewBox="0 0 500 250"
   version="1.1"
   id="svg1"
   xml:space="preserve"
   inkscape:version="1.4.2 (f4327f4, 2025-05-13)"
   sodipodi:docname="PacmanGhostV3.svg"
   inkscape:export-filename="PacmanGhostV3.1_0.svg"
   inkscape:export-xdpi="96"
   inkscape:export-ydpi="96"
   xmlns:inkscape="http://www.inkscape.org/namespaces/inkscape"
   xmlns:sodipodi="http://sodipodi.sourceforge.net/DTD/sodipodi-0.dtd"
   xmlns="http://www.w3.org/2000/svg"
   xmlns:svg="http://www.w3.org/2000/svg"><sodipodi:namedview
     id="namedview1"
     pagecolor="#ffffff"
     bordercolor="#000000"
     borderopacity="0.25"
     inkscape:showpageshadow="2"
     inkscape:pageopacity="0.0"
     inkscape:pagecheckerboard="0"
     inkscape:deskcolor="#d1d1d1"
     inkscape:document-units="mm"
     showgrid="true"
     inkscape:zoom="1"
     inkscape:cx="1116.5"
     inkscape:cy="578.5"
     inkscape:window-width="3440"
     inkscape:window-height="1369"
     inkscape:window-x="2552"
     inkscape:window-y="-8"
     inkscape:window-maximized="1"
     inkscape:current-layer="layer1"><inkscape:grid
       id="grid2"
       units="mm"
       originx="0"
       originy="0"
       spacingx="0.99999999"
       spacingy="0.99999999"
       empcolor="#0099e5"
       empopacity="0.30196078"
       color="#0099e5"
       opacity="0.14901961"
       empspacing="10"
       enabled="true"
       visible="true" /><inkscape:page
       x="0"
       y="0"
       width="500"
       height="250"
       id="page2"
       margin="0"
       bleed="0" /></sodipodi:namedview><defs
     id="defs1" /><g
     inkscape:label="Ebene 1"
     inkscape:groupmode="layer"
     id="layer1"><path
       id="path4-2-9-1-1-8"
       style="baseline-shift:baseline;display:inline;overflow:visible;vector-effect:none;fill:#c20000;enable-background:accumulate;stop-color:#000000"
       transform="translate(-129.99953,205.3595)"
       d="m 409.98437,-187.51367 c -46.22877,0 -81.75976,35.21085 -81.75976,78.59179 V -5.5605469 c 0,13.5132024 10.19046,21.5976559 19.85937,21.5976559 7.91205,0 13.03438,-5.69647 17.25586,-9.7343746 C 369.59074,2.2366897 372.99316,-0.5625 377,-0.5625 c 3.97464,0 8.15244,3.0071244 13.22266,7.1367187 5.07034,4.1296983 11.22102,9.4628903 19.76171,9.4628903 8.5404,0 14.69512,-5.329514 19.77344,-9.458984 C 434.83617,2.4486202 439.02585,-0.5625 443,-0.5625 c 4.0072,0 7.40061,2.7981432 11.66602,6.8691406 4.23842,4.0452374 9.40661,9.7304684 17.35937,9.7304684 4.35809,0 9.31614,-1.22799 13.26367,-4.822265 3.97098,-3.6156158 6.39609,-9.3567483 6.45313,-16.7343752 2e-5,-0.00456 2e-5,-0.00911 0,-0.013672 v -0.011719 -0.011719 -0.00195 c 0.0746,-101.0020788 0,-2.3562395 0,-103.3632888 0,-24.14333 -8.82443,-44.06126 -23.59766,-57.68749 -14.76958,-13.62287 -35.25478,-20.9043 -58.16016,-20.9043 z m 0,10.35156 c 20.7204,0 38.52179,6.5287 51.13868,18.16602 12.62084,11.64095 20.26758,28.41426 20.26757,50.07421 0,100.9911536 0.0745,2.436 0,103.3339894 -0.0432,5.28959807 -1.43867,7.6628126 -3.07031,9.1484375 -1.59096,1.4485923 -3.86324,2.125 -6.29492,2.125 -2.51664,0 -5.83261,-2.6903659 -10.21094,-6.8691406 C 457.40968,-5.3875966 451.56078,-10.914063 443,-10.914063 c -8.54039,0 -14.6969,5.3293749 -19.77539,9.4589849 -5.07853,4.1296458 -9.26608,7.140625 -13.24024,7.140625 -3.97462,0 -8.15456,-3.007266 -13.2246,-7.1367188 C 391.6896,-5.5807289 385.54069,-10.914062 377,-10.914063 c -8.56086,0 -14.41606,5.5273329 -18.81641,9.7363286 -2.18578,2.09073323 -4.1128,3.8809325 -5.80859,5.0859375 -1.69579,1.205005 -3.09344,1.7773438 -4.29102,1.7773438 -2.17443,0 -4.54945,-0.7577976 -6.35351,-2.4785156 -1.80406,-1.7207181 -3.1543,-4.4268053 -3.1543,-8.7675782 V -108.92188 c 0,-37.77463 30.37512,-68.24023 71.4082,-68.24023 z m -43.21354,33.24805 c -13.10794,-2e-4 -23.84785,10.6927 -23.84766,23.7832 v 25.716798 c -1.8e-4,13.090485 10.73992,23.781422 23.84766,23.78125 13.10728,-5.08e-4 23.84784,-10.691145 23.84766,-23.78125 v -25.716798 c 1.9e-4,-13.09012 -10.74019,-23.7827 -23.84766,-23.7832 z m 51.53334,0 c -13.10795,-2e-4 -23.84785,10.6927 -23.84766,23.7832 v 25.716798 c -1.8e-4,13.090484 10.73991,23.781422 23.84766,23.78125 13.10727,-5.08e-4 23.84784,-10.691144 23.84766,-23.78125 v -25.716798 c 1.9e-4,-13.09012 -10.7402,-23.7827 -23.84766,-23.7832 z m -51.53334,10.35156 c 7.53545,2.9e-4 13.49622,5.95322 13.49609,13.43164 v 25.716798 c 1.2e-4,7.478423 -5.96064,13.431347 -13.49609,13.43164 -7.53573,1.07e-4 -13.49815,-5.95309 -13.49805,-13.43164 v -25.716798 c -1.1e-4,-7.47855 5.96234,-13.43175 13.49805,-13.43164 z m 51.53334,0 c 7.53544,2.9e-4 13.49622,5.95322 13.49609,13.43164 v 25.716798 c 1.2e-4,7.478422 -5.96065,13.431347 -13.49609,13.43164 -7.53574,1.07e-4 -13.49815,-5.953088 -13.49805,-13.43164 v -25.716798 c -1.1e-4,-7.47855 5.96232,-13.43175 13.49805,-13.43164 z"
       sodipodi:nodetypes="sssssssssssssssccsssssssscssssssssssssssscccccccccccccccccccccccccccc" /></g></svg>
