<?xml version="1.0" encoding="UTF-8" standalone="no"?>
<!-- Created with Inkscape (http://www.inkscape.org/) -->

<svg
   width="500mm"
   height="250mm"
   viewBox="0 0 500 250"
   version="1.1"
   id="svg1"
   xml:space="preserve"
   inkscape:version="1.4.2 (f4327f4, 2025-05-13)"
   sodipodi:docname="PacmanGhostV3.svg"
   inkscape:export-filename="PacmanGhostV3.2_0.svg"
   inkscape:export-xdpi="96"
   inkscape:export-ydpi="96"
   xmlns:inkscape="http://www.inkscape.org/namespaces/inkscape"
   xmlns:sodipodi="http://sodipodi.sourceforge.net/DTD/sodipodi-0.dtd"
   xmlns="http://www.w3.org/2000/svg"
   xmlns:svg="http://www.w3.org/2000/svg"><sodipodi:namedview
     id="namedview1"
     pagecolor="#ffffff"
     bordercolor="#000000"
     borderopacity="0.25"
     inkscape:showpageshadow="2"
     inkscape:pageopacity="0.0"
     inkscape:pagecheckerboard="0"
     inkscape:deskcolor="#d1d1d1"
     inkscape:document-units="mm"
     showgrid="true"
     inkscape:zoom="1"
     inkscape:cx="1178.5"
     inkscape:cy="546.5"
     inkscape:window-width="3440"
     inkscape:window-height="1369"
     inkscape:window-x="2552"
     inkscape:window-y="-8"
     inkscape:window-maximized="1"
     inkscape:current-layer="layer1"><inkscape:grid
       id="grid2"
       units="mm"
       originx="0"
       originy="0"
       spacingx="0.99999999"
       spacingy="0.99999999"
       empcolor="#0099e5"
       empopacity="0.30196078"
       color="#0099e5"
       opacity="0.14901961"
       empspacing="10"
       enabled="true"
       visible="true" /><inkscape:page
       x="0"
       y="0"
       width="500"
       height="250"
       id="page2"
       margin="0"
       bleed="0" /></sodipodi:namedview><defs
     id="defs1" /><g
     inkscape:label="Ebene 1"
     inkscape:groupmode="layer"
     id="layer1"><path
       id="path5-1-3-6"
       style="baseline-shift:baseline;display:inline;overflow:visible;opacity:1;vector-effect:none;fill:#ff0000;enable-background:accumulate;stop-color:#000000;stop-opacity:1"
       d="m 169.60643,11.423778 c -63.22936,-5.6e-5 -114.599799,51.35363 -114.599719,114.564582 2.1e-4,63.21074 51.370569,114.56257 114.599719,114.56252 28.78772,-8e-5 56.52593,-10.83434 77.68931,-30.34389 l 0.30489,-0.28112 3.56258,-3.50831 -3.5357,-3.5357 -0.003,0.003 -75.57161,-75.57161 80.52583,-80.527387 -3.85196,-3.674194 C 227.41065,22.773405 199.07273,11.423926 169.60643,11.423778 Z m 0,10.400398 c 25.00913,1.26e-4 49.04697,9.084551 67.91007,25.318352 l -80.16979,80.170302 78.73783,78.73783 c -18.65719,15.47896 -42.11798,24.09976 -66.47811,24.09982 -57.61048,6e-5 -104.199129,-46.57383 -104.199319,-104.16212 -8e-5,-57.588478 46.588649,-104.164234 104.199319,-104.164184 z m -15.81247,11.916069 c -19.89122,0 -36.13113,16.23187 -36.13113,36.119242 0,19.887372 16.23991,36.119243 36.13113,36.119243 19.89123,0 36.12854,-16.231871 36.12854,-36.119243 0,-19.887372 -16.23731,-36.119242 -36.12854,-36.119242 z m 0,10.400399 c 14.27254,0 25.72814,11.453938 25.72814,25.718843 0,14.264906 -11.4556,25.718844 -25.72814,25.718844 -14.27253,0 -25.73073,-11.453938 -25.73073,-25.718844 0,-14.264905 11.4582,-25.718843 25.73073,-25.718843 z"
       sodipodi:nodetypes="cccscccccccccccccccssssssssss" /></g></svg>
