<?xml version="1.0" encoding="UTF-8" standalone="no"?>
<!-- Created with Inkscape (http://www.inkscape.org/) -->

<svg
   width="500mm"
   height="250mm"
   viewBox="0 0 500 250"
   version="1.1"
   id="svg1"
   xml:space="preserve"
   inkscape:version="1.4.2 (f4327f4, 2025-05-13)"
   sodipodi:docname="PacmanGhostV3.svg"
   inkscape:export-filename="PacmanGhostV3.1_2.svg"
   inkscape:export-xdpi="96"
   inkscape:export-ydpi="96"
   xmlns:inkscape="http://www.inkscape.org/namespaces/inkscape"
   xmlns:sodipodi="http://sodipodi.sourceforge.net/DTD/sodipodi-0.dtd"
   xmlns="http://www.w3.org/2000/svg"
   xmlns:svg="http://www.w3.org/2000/svg"><sodipodi:namedview
     id="namedview1"
     pagecolor="#ffffff"
     bordercolor="#000000"
     borderopacity="0.25"
     inkscape:showpageshadow="2"
     inkscape:pageopacity="0.0"
     inkscape:pagecheckerboard="0"
     inkscape:deskcolor="#d1d1d1"
     inkscape:document-units="mm"
     showgrid="true"
     inkscape:zoom="1"
     inkscape:cx="1116.5"
     inkscape:cy="578.5"
     inkscape:window-width="3440"
     inkscape:window-height="1369"
     inkscape:window-x="2552"
     inkscape:window-y="-8"
     inkscape:window-maximized="1"
     inkscape:current-layer="layer1"><inkscape:grid
       id="grid2"
       units="mm"
       originx="0"
       originy="0"
       spacingx="0.99999999"
       spacingy="0.99999999"
       empcolor="#0099e5"
       empopacity="0.30196078"
       color="#0099e5"
       opacity="0.14901961"
       empspacing="10"
       enabled="true"
       visible="true" /><inkscape:page
       x="0"
       y="0"
       width="500"
       height="250"
       id="page2"
       margin="0"
       bleed="0" /></sodipodi:namedview><defs
     id="defs1" /><g
     inkscape:label="Ebene 1"
     inkscape:groupmode="layer"
     id="layer1"><path
       id="path4-2-9-2-1"
       style="baseline-shift:baseline;display:inline;overflow:visible;vector-effect:none;fill:#c2ab00;enable-background:accumulate;stop-color:#000000"
       transform="translate(29.984608,-0.37890571)"
       d="m 250,20.021484 c -45.31925,0 -79.96288,34.393127 -79.96289,76.794922 V 200.17773 c 0,12.62195 9.38519,19.80079 18.0625,19.80079 7.03832,0 11.72129,-5.13248 16.01172,-9.23633 4.29006,-4.10352 8.08636,-7.36328 12.90429,-7.36328 4.81834,0 9.26186,3.39077 14.35743,7.54101 5.09556,4.15025 10.84189,9.0586 18.62695,9.0586 7.78507,0 13.5348,-4.9064 18.63867,-9.05665 5.10386,-4.15024 9.55863,-7.54296 14.37695,-7.54296 4.81795,0 8.60522,3.25837 12.90821,7.36523 4.30331,4.10716 9.03143,9.23438 16.11719,9.23438 4.02196,0 8.51183,-1.1277 12.05468,-4.35352 3.54257,-3.22554 5.81115,-8.4242 5.86524,-15.41992 v -0.0117 -0.0137 c 0.0746,-101.011512 0,-2.35345 0,-103.363284 0,-23.707327 -8.62407,-43.087431 -23.01953,-56.365234 C 292.5459,27.173338 272.52486,20.021484 250,20.021484 Z m 0,6.757813 c 21.09859,0 39.3671,6.658863 52.35742,18.640625 12.99029,11.981717 20.8457,29.310376 20.8457,51.396484 0,100.990264 0.0745,2.437938 0,103.335934 -0.0435,5.63553 -1.65172,8.64769 -3.6582,10.47461 -2.00697,1.82737 -4.74005,2.59375 -7.5039,2.59375 -3.5801,0 -7.05911,-3.17148 -11.45313,-7.36523 -4.3937,-4.19344 -9.78745,-9.23438 -17.57227,-9.23438 -7.78505,0 -13.53675,4.9064 -18.64062,9.05664 -5.10386,4.15025 -9.55667,7.54297 -14.375,7.54297 -4.81831,0 -9.2638,-3.39077 -14.35938,-7.54101 -5.09557,-4.15025 -10.83994,-9.0586 -18.625,-9.0586 -7.7848,0 -13.18468,5.0415 -17.57226,9.23828 -2.19396,2.09856 -4.1584,3.93835 -6.00977,5.25391 -1.85136,1.31556 -3.59136,2.10742 -5.33398,2.10742 -2.58878,0 -5.41447,-0.896 -7.59375,-2.97461 -2.17928,-2.0786 -3.71094,-5.33974 -3.71094,-10.06836 V 96.816406 c 0,-38.742064 31.27758,-70.037109 73.20508,-70.037109 z m -43.21355,36.841797 c -12.13218,-1.75e-4 -22.05096,9.877532 -22.05078,21.986328 v 25.716798 c -1.7e-4,12.10879 9.91861,21.98453 22.05078,21.98437 12.13176,-4.7e-4 22.05096,-9.87604 22.05079,-21.98437 V 85.607422 c 1.8e-4,-12.10834 -9.91903,-21.985858 -22.05079,-21.986328 z m 51.53334,0 c -12.13218,-1.75e-4 -22.05096,9.877532 -22.05078,21.986328 v 25.716798 c -1.7e-4,12.10879 9.91859,21.98453 22.05078,21.98437 12.13176,-4.7e-4 22.05096,-9.87604 22.05079,-21.98437 V 85.607422 c 1.8e-4,-12.10834 -9.91904,-21.985858 -22.05079,-21.986328 z m -51.53334,6.757812 c 8.49267,3.3e-4 15.29311,6.785017 15.29297,15.228516 v 25.716798 c 1.3e-4,8.44349 -6.8003,15.22818 -15.29297,15.22851 -8.49295,1.2e-4 -15.29504,-6.78469 -15.29492,-15.22851 V 85.607422 c -1.3e-4,-8.443822 6.80198,-15.228639 15.29492,-15.228516 z m 51.53334,0 c 8.49265,3.3e-4 15.29311,6.785017 15.29297,15.228516 v 25.716798 c 1.3e-4,8.44349 -6.80031,15.22818 -15.29297,15.22851 -8.49296,1.2e-4 -15.29504,-6.78469 -15.29492,-15.22851 V 85.607422 c -1.3e-4,-8.443822 6.80197,-15.228639 15.29492,-15.228516 z"
       sodipodi:nodetypes="sssssssssssssccssssssscssssssssssssssscccccccccccccccccccccccccccc" /></g></svg>
