<?xml version="1.0" encoding="UTF-8" standalone="no"?>
<!-- Created with Inkscape (http://www.inkscape.org/) -->

<svg
   width="380mm"
   height="380mm"
   viewBox="0 0 380 380"
   version="1.1"
   id="svg5"
   xml:space="preserve"
   inkscape:version="1.3.2 (091e20e, 2023-11-25, custom)"
   sodipodi:docname="Lieblingsplatz.svg"
   xmlns:inkscape="http://www.inkscape.org/namespaces/inkscape"
   xmlns:sodipodi="http://sodipodi.sourceforge.net/DTD/sodipodi-0.dtd"
   xmlns="http://www.w3.org/2000/svg"
   xmlns:svg="http://www.w3.org/2000/svg"><sodipodi:namedview
     id="namedview7"
     pagecolor="#ffffff"
     bordercolor="#666666"
     borderopacity="1.0"
     inkscape:showpageshadow="2"
     inkscape:pageopacity="0.0"
     inkscape:pagecheckerboard="0"
     inkscape:deskcolor="#d1d1d1"
     inkscape:document-units="mm"
     showgrid="true"
     inkscape:zoom="0.3585374"
     inkscape:cx="2202.0018"
     inkscape:cy="723.77386"
     inkscape:window-width="3440"
     inkscape:window-height="1369"
     inkscape:window-x="2552"
     inkscape:window-y="-8"
     inkscape:window-maximized="1"
     inkscape:current-layer="layer1"><inkscape:grid
       type="xygrid"
       id="grid25636"
       originx="0"
       originy="0"
       empspacing="5"
       spacingy="1"
       spacingx="1"
       units="mm"
       visible="true" /></sodipodi:namedview><defs
     id="defs2"><inkscape:path-effect
       effect="simplify"
       id="path-effect1"
       is_visible="true"
       lpeversion="1.3"
       threshold="2.2671106"
       steps="1"
       smooth_angles="360"
       helper_size="10"
       simplify_individual_paths="false"
       simplify_just_coalesce="false" /></defs><g
     inkscape:label="Ebene 1"
     inkscape:groupmode="layer"
     id="layer1"><g
       aria-label="MOIN"
       transform="matrix(0.7632839,0,0,0.84986748,298.47741,-208.29009)"
       id="text2980-3"
       style="font-size:92.2262px;line-height:1.25;font-family:'Berlin Sans FB Demi';-inkscape-font-specification:'Berlin Sans FB Demi';text-align:center;text-anchor:middle;stroke-width:2.30565" /><path
       id="rect60665-8-8"
       style="fill:#404344;fill-opacity:1;stroke:#000000;stroke-width:0.4;stroke-miterlimit:4;stroke-dasharray:none;stroke-opacity:1"
       d="m 19.777145,215.33978 c -0.1195,8.11112 -6.66577,14.65761 -14.7768797,14.7774 v 129.51613 c 0.0666,-0.01 0.13328,-0.016 0.19999,-0.023 8.2841697,1.9e-4 14.9996697,6.716 14.9995997,15.0001 -0.007,0.067 -0.0147,0.1334 -0.0227,0.2 H 360.22303 c 0.11978,-8.1109 6.66597,-14.6571 14.77688,-14.7769 V 230.3399 c -8.28416,-2.3e-4 -14.99966,-6.71596 -14.9996,-15.00012 z"
       sodipodi:nodetypes="ccccccccccc" /><rect
       style="fill:none;stroke:#000000;stroke-width:0.399824;stroke-miterlimit:4;stroke-dasharray:none;stroke-opacity:1"
       id="rect25985-4-4"
       width="380.00018"
       height="169.85019"
       x="0"
       y="210.14981" /><g
       id="g100593-4-9"
       transform="translate(-0.07691469,15.249873)"
       style="fill:#ffffff;fill-opacity:1"><circle
         style="fill:#ffffff;fill-opacity:1;stroke:#000000;stroke-width:0.4;stroke-miterlimit:4;stroke-dasharray:none;stroke-opacity:1"
         id="path84251-5-40"
         cx="19.839582"
         cy="279.72525"
         r="2.5" /><circle
         style="fill:#ffffff;fill-opacity:1;stroke:#000000;stroke-width:0.4;stroke-miterlimit:4;stroke-dasharray:none;stroke-opacity:1"
         id="path84253-0-6"
         cx="360.31442"
         cy="279.72525"
         r="2.5" /></g><text
       xml:space="preserve"
       style="font-style:normal;font-variant:normal;font-weight:normal;font-stretch:normal;font-size:69.3589px;line-height:1.25;font-family:'Victorian LET';-inkscape-font-specification:'Victorian LET';text-align:center;text-anchor:middle;fill:#ffffff;fill-opacity:1;stroke-width:1.73397"
       x="199.77434"
       y="263.96082"
       id="text2-2-1-8-7"
       transform="scale(0.94890182,1.0538498)"><tspan
         sodipodi:role="line"
         id="tspan2-7-2-3-80"
         style="font-style:normal;font-variant:normal;font-weight:normal;font-stretch:normal;font-family:'Victorian LET';-inkscape-font-specification:'Victorian LET';fill:#ffffff;fill-opacity:1;stroke-width:1.73397"
         x="199.77434"
         y="263.96082">Lieblingsplatz</tspan></text><path
       style="fill:#ffffff;fill-opacity:1;stroke-width:1.30462"
       d="m 155.30142,288.42851 c 0.26248,0 -0.25272,1.66486 -0.25495,3.20351 -0.0117,8.04698 5.33296,14.7964 13.15692,16.61514 1.07775,0.25054 2.02085,0.39422 2.09577,0.31931 0.24115,-0.24116 0.1442,-5.81207 -0.12289,-7.06073 -0.84327,-3.94251 -4.03898,-8.45273 -7.6223,-10.75766 -3.03456,-1.95192 -8.21585,-2.31957 -7.25256,-2.31957 z m 191.80955,3.88437 c 0.12694,0.3797 0.3401,0.84569 0.47381,1.03554 0.3628,0.51518 1.33675,3.30493 1.56658,4.48733 0.61317,3.15437 0.28112,8.10889 -0.71713,10.70059 -0.44013,1.14267 -1.52909,3.4076 -1.98246,4.12332 -0.87886,1.38738 -1.17129,1.72856 -3.40796,3.97612 -12.24036,12.29977 -33.36688,6.47056 -53.9721,-1.1712 -1.5096,-0.55987 -1.5096,-0.57578 0,-0.71038 2.25772,-0.2013 5.19415,-0.67099 6.3271,-1.01206 0.31708,-0.0955 0.96482,-0.25243 1.43944,-0.34885 2.70825,-0.55017 4.17262,-1.05164 6.7132,-2.2989 2.82194,-1.38539 3.4576,-1.84956 6.42148,-4.68901 1.48476,-1.42242 1.63131,-1.48423 2.66484,-1.12394 2.38965,0.83304 4.83914,-1.0482 5.16841,-3.96941 0.1438,-1.27575 0.0233,-1.62738 -0.9287,-2.71173 -2.12015,-2.41471 -5.88101,-1.8908 -7.08333,0.98674 -0.42774,1.02376 -0.42339,2.78461 0.008,3.21597 0.23885,0.23884 -2.95947,3.22449 -4.85213,4.52951 -2.91612,2.0107 -6.02586,3.36591 -9.14727,3.98632 -0.47463,0.0943 -1.04703,0.23596 -1.27203,0.3147 -2.46403,0.86245 -12.61241,0.89388 -16.50475,0.0512 -2.48252,-0.53752 -6.80449,-1.90943 -10.52798,-3.3419 -1.04416,-0.40169 -3.60713,-1.31873 -5.69546,-2.03785 -5.33314,-1.83647 -5.95045,-2.05712 -8.30039,-2.96689 -1.10499,-0.42779 -25.75027,-9.77835 -37.95963,2.43101 -1.38495,1.38495 -3.77279,4.66584 -3.39582,4.66584 0.10958,0 0.9201,-0.6035 1.8011,-1.34111 0.88098,-0.7376 2.7665,-1.91693 4.19006,-2.62074 15.35851,-7.59321 28.17746,-0.58096 33.72141,3.49378 5.48655,4.03252 9.30998,8.78104 11.33068,14.07215 l 0.59475,1.55732 -0.90479,1.07528 c -2.63729,3.13418 0.0608,5.68755 0.92417,6.21397 3.7922,2.31226 7.76186,-1.53903 5.77884,-5.60651 -0.40795,-0.83678 -2.17662,-2.00141 -3.03943,-2.00141 -0.18283,0 -0.59721,-0.73783 -0.92085,-1.63961 -1.91593,-5.33845 -3.19714,-7.91812 -7.31017,-12.0782 -1.73791,-1.7578 -3.05382,-3.196 -2.92425,-3.196 0.12955,0 0.38315,0.13046 0.56352,0.28985 0.18035,0.15942 0.87157,0.49339 1.53604,0.74214 1.37948,0.51644 2.92729,1.15291 4.62804,1.9031 0.64693,0.28536 2.6274,1.07631 4.40104,1.75767 1.77364,0.68136 3.76847,1.47597 4.43294,1.76579 0.66448,0.28982 1.67412,0.72825 2.24368,0.97427 0.56954,0.24603 3.28783,1.33151 6.04063,2.41217 15.4407,6.06147 18.34882,6.93278 19.5418,7.25265 20.54858,5.50951 31.83183,5.90161 42.59059,-1.05165 9.42719,-6.09267 12.9888,-19.58022 7.76817,-29.4175 -1.06051,-1.99834 -2.37985,-3.74515 -2.02367,-2.67936 z m -171.98243,5.45683 c -0.43271,1.36333 -0.40964,5.82704 0.0412,7.98204 0.8052,3.84839 2.26787,6.07762 6.17181,9.40634 l 1.6919,1.44261 -2.55484,-0.23122 c -4.66129,-0.42184 -7.97219,-0.28977 -9.35557,0.3732 -3.96914,1.90217 -5.73338,5.542 -4.56614,9.42044 0.7687,2.55421 1.09676,2.77769 2.36045,1.60797 0.99717,-0.92301 2.66471,-1.7633 4.69165,-2.36417 0.47462,-0.1407 2.73425,-0.2195 5.02137,-0.17512 2.28712,0.0444 4.79505,-0.0624 5.57317,-0.23716 l 1.41476,-0.31789 -0.96313,1.51872 c -2.077,3.27508 -2.73871,7.2879 -1.69851,10.30044 1.01623,2.94314 1.69679,3.95839 4.59837,6.85997 2.75846,2.75846 4.00334,4.63347 4.00334,6.02977 0,1.11923 0.48912,1.13813 1.93277,0.0747 1.63312,-1.20301 2.70107,-2.60609 3.626,-4.76388 1.18248,-2.75859 0.64229,-7.8387 -1.30302,-12.25416 -0.70499,-1.60018 -1.00764,-2.82349 -0.98048,-3.96305 0.0441,-1.8487 -0.0292,-1.82334 2.93796,-1.01731 3.19164,0.86701 4.17797,1.00611 7.99009,1.12673 4.18011,0.13228 8.13095,-0.71078 9.56138,-2.04026 2.72617,-2.53379 2.58073,-6.02426 -0.36232,-8.69483 -1.91252,-1.73546 -2.53466,-1.94379 -5.56853,-1.86472 -3.3177,0.0865 -5.82636,0.61333 -7.78741,1.63548 -1.67477,0.87293 -1.77108,0.64619 -0.42114,-0.99153 1.09876,-1.33298 6.57948,-5.16242 7.3885,-5.16242 0.77144,0 1.62591,-1.5455 1.62591,-2.94083 0,-1.41625 -0.98604,-3.77174 -2.05471,-4.90833 -1.42708,-1.51781 -2.75915,-1.94822 -6.05702,-1.9571 -2.81296,-0.008 -3.30362,0.0935 -5.19058,1.06988 -3.38796,1.75292 -6.08911,4.62749 -8.18975,8.71549 l -0.98627,1.91937 c 1.39007,-9.21046 -1.66619,-11.97968 -10.18908,-15.53757 -2.17769,-0.76095 -2.18017,-0.76101 -2.40217,-0.0616 z m 16.14723,20.69055 c 0.79174,0.633 0.99571,1.91275 0.39983,2.50862 -0.81254,0.81253 -2.43852,0.65575 -2.748,-0.26496 -0.46465,-1.38234 -0.42708,-1.6346 0.32164,-2.15902 0.89781,-0.62885 1.32359,-0.64665 2.02653,-0.0847 z M 31.436195,300.70549 c -2.98616,4.65353 -3.781,11.06254 -2.14841,17.32329 2.30418,8.83614 9.31334,15.01676 19.9851,17.62273 5.47987,1.33813 19.84399,0.0493 28.20356,-2.4407 0.56955,-0.17686 2.51118,-0.77825 4.31475,-1.33645 3.2423,-1.00346 5.73628,-1.85561 7.07619,-2.41782 7.69885,-2.82335 15.274095,-5.96013 22.868165,-9.04669 2.99343,-1.2818 6.06929,-2.36653 9.06097,-3.65132 1.75845,-0.76565 2.88647,-1.26374 3.2792,-1.44796 0.50207,-0.23548 -0.80501,1.23442 -2.52152,2.83564 -2.79698,2.60914 -6.45453,8.87693 -7.2781,12.47222 -0.17729,0.77398 -0.51036,1.10508 -1.35545,1.34745 -0.61624,0.17674 -1.58155,0.84654 -2.14516,1.48845 -2.38771,2.71946 -0.43639,6.76459 3.26315,6.76459 1.87392,0 3.10917,-0.82938 3.79754,-2.5498 0.64334,-1.60786 0.45066,-2.78418 -0.71195,-4.34648 -0.78613,-1.05638 -0.79907,-1.16395 -0.31132,-2.58885 0.61417,-1.79431 1.42585,-3.38226 2.78893,-5.45624 1.26382,-1.92297 1.20352,-1.85213 4.08145,-4.79448 6.90974,-7.06443 15.91274,-10.81152 25.41797,-10.57908 4.27548,0.1045 4.90394,0.20281 8.09242,1.26503 3.36979,1.12262 7.73582,3.48052 9.65923,5.21651 1.06086,0.95749 1.07033,0.39725 0.0173,-1.0225 -1.40348,-1.89221 -4.3637,-4.73748 -6.01034,-5.77697 -1.34587,-0.84961 -5.02663,-2.2955 -6.92607,-2.72073 -3.53572,-0.79155 -11.04731,-0.93859 -14.15238,-0.27703 -2.25419,0.48025 -3.26713,0.68299 -4.65992,0.93264 -2.75954,0.49462 -5.78144,1.43465 -12.0813,3.75818 -1.32894,0.49014 -3.96957,1.41767 -5.86807,2.06117 -1.89847,0.6435 -4.30611,1.50071 -5.35028,1.9049 -4.54441,1.75913 -8.68754,2.96414 -11.73611,3.41342 -2.102035,0.30978 -10.794395,0.29435 -12.992115,-0.0231 -5.83416,-0.84261 -11.18596,-3.33733 -15.22113,-7.09526 -1.36775,-1.27377 -1.45925,-1.47478 -1.4221,-3.12395 0.0732,-3.25012 -1.7709,-4.84811 -5.28954,-4.58351 -0.31872,0.024 -1.13419,0.56674 -1.81219,1.20617 -1.05587,0.99582 -1.23271,1.38371 -1.23271,2.70393 0,1.24408 0.21636,1.79024 1.12184,2.83198 0.93424,1.07481 1.38159,1.30983 2.67515,1.40545 0.85431,0.0631 1.74491,-0.0427 1.97908,-0.23512 0.30923,-0.25416 0.84122,0.0775 1.94349,1.21165 3.91855,4.03189 8.76972,6.46854 15.2349,7.65222 3.15563,0.57774 4.7563,0.80313 6.21324,0.87494 0.56956,0.028 0.80255,0.13532 0.51778,0.23831 -0.28478,0.10307 -0.98376,0.38913 -1.55332,0.63584 -0.89768,0.38884 -5.26964,1.83667 -14.49756,4.80109 -12.0091,3.85784 -27.17593,5.87676 -37.77409,-2.74468 -3.41486,-2.77793 -6.07507,-7.01486 -7.04767,-11.22484 -0.69235,-2.99687 -0.49433,-7.51226 0.46138,-10.52149 0.42206,-1.32895 0.92859,-2.61418 1.12563,-2.85608 0.19704,-0.24189 0.27842,-0.51963 0.18087,-0.61719 -0.0976,-0.0976 -0.66476,0.58216 -1.26046,1.51049 z m 195.627065,6.0526 c -3.0859,0.32544 -6.76273,1.99946 -9.05241,4.12147 l -0.89901,0.83317 1.54687,1.44984 c 0.85076,0.79741 2.37075,1.88323 3.37772,2.41292 7.53197,3.96206 15.1395,1.39791 19.04145,-2.0944 l 1.60626,-1.43764 -0.79622,-0.72891 c -4.1154,-3.87897 -9.37792,-5.20664 -14.82466,-4.55646 z m 45.26723,15.6849 c 0,5.98782 2.76331,10.9276 8.00176,14.30416 1.58984,1.02478 4.5136,2.00623 6.62217,2.22296 l 2.02487,0.20813 -0.17363,-2.5493 c -0.21932,-3.22022 -0.42832,-4.12347 -1.49231,-6.44959 -2.57275,-5.62461 -7.68334,-9.42937 -13.86104,-10.31937 l -1.12182,-0.16161 z m -117.44534,-0.18575 c -1.76962,2.22659 -2.20197,3.03405 -2.98911,5.5825 -1.41297,4.57466 -0.60032,8.52649 2.56083,12.45315 1.13583,1.41087 1.89317,2.67511 1.89317,3.16025 0,0.14938 -0.97082,-0.67718 -2.15737,-1.83681 -1.18656,-1.15962 -2.47226,-2.26823 -2.85712,-2.46356 -1.34514,-0.68273 -4.45762,-0.22906 -6.51865,0.95014 -2.26919,1.29831 -2.50286,1.59875 -1.84256,2.3691 0.62788,0.73255 0.96792,1.64594 1.15835,3.11155 0.32189,2.47724 2.05505,4.78332 4.28293,5.69892 1.21534,0.4994 3.23912,0.4655 3.9332,-0.066 0.20726,-0.1587 0.64347,-0.3835 0.96937,-0.4995 2.17063,-0.7726 -6.47544,5.1691 -4.21241,12.0261 1.24507,3.7726 6.20941,5.134 10.09186,2.7675 2.6529,-1.617 4.45587,-5.5336 3.72326,-8.088 -0.3652,-1.2734 -0.67669,-1.4077 3.78453,1.6306 4.2391,2.8869 5.7541,3.5342 8.78208,3.7521 2.73399,0.1968 3.68936,-0.1222 5.56557,-1.8581 1.84839,-1.7103 2.68209,-3.4581 2.78499,-5.8387 0.0819,-1.8967 -0.0235,-2.3193 -0.8698,-3.4821 -0.9843,-1.3525 -3.28592,-2.61621 -7.80592,-4.28583 -1.1391,-0.42077 -2.53707,-0.9555 -3.10662,-1.18831 -0.56955,-0.23281 -1.92869,-0.69686 -3.02033,-1.03125 -1.09162,-0.33438 -1.98478,-0.75994 -1.98478,-0.94568 0,-0.39105 3.64365,-0.0171 4.55094,0.46714 0.9638,0.51433 3.82854,0.34865 5.08956,-0.29435 2.28587,-1.16559 3.03053,-3.06189 2.29675,-5.84869 -0.24017,-0.91214 -0.47055,-2.83018 -0.51196,-4.26233 -0.0644,-2.22924 0.0496,-2.8237 0.79242,-4.1315 1.02766,-1.80922 0.82519,-2.05571 -1.68972,-2.05705 -2.28799,-0.001 -5.36079,1.55896 -7.44746,3.78133 -0.90855,0.96764 -2.37115,3.24398 -3.44343,5.35919 -1.02522,2.02239 -1.99042,3.75519 -2.14488,3.85064 -0.15447,0.0955 -0.16504,-0.57718 -0.0235,-1.4948 0.37465,-2.42879 0.20665,-6.91809 -0.33603,-8.97914 -0.85963,-3.26483 -3.8912,-7.47471 -6.54993,-9.09581 -0.61091,-0.37249 -1.21685,-0.67784 -1.34653,-0.67854 -0.12968,-7.2e-4 -0.76045,0.65885 -1.40171,1.46572 z m 6.66529,23.74326 c 0.86406,0.46243 0.90363,2.43558 0.0635,3.1715 -1.19843,1.04988 -3.2792,0.055 -3.2792,-1.56789 0,-1.66525 1.60492,-2.46562 3.2156,-1.60361 z m 64.46128,-23.64984 c -0.0708,0.0708 -0.66465,0.22329 -1.31943,0.33864 -3.38786,0.59685 -6.42041,3.08923 -8.52027,7.00257 -0.31697,0.5907 -0.32832,1.02596 -0.045,1.72589 0.20836,0.51479 0.48804,1.59457 0.6215,2.3995 0.19328,1.16563 0.11977,1.57476 -0.36117,2.01001 -0.68817,0.62278 -0.76386,0.48704 -1.16705,-2.09281 -0.11872,-0.75939 -0.54951,-2.04965 -0.95738,-2.86722 -0.71028,-1.42372 -0.79358,-1.47747 -1.97174,-1.27216 -2.27758,0.39688 -8.8489,0.50918 -10.02683,0.17136 -0.64228,-0.18421 -1.23085,-0.27187 -1.30791,-0.1948 -0.0771,0.0771 0.37864,0.84235 1.01268,1.7006 1.17139,1.58566 2.1719,2.18083 3.76383,2.23896 2.08769,0.0762 4.00566,1.45732 5.34344,3.84766 0.23291,0.41617 0.1921,0.43963 -0.20796,0.1195 -0.89996,-0.72007 -3.74254,-2.12378 -5.41452,-2.67378 -1.65928,-0.54582 -6.64191,-1.36262 -6.87716,-1.12735 -0.0701,0.0701 0.1773,1.1067 0.54979,2.30354 1.32945,4.2715 0.57081,8.89168 -1.89729,11.55481 l -0.86078,0.92881 1.47823,-0.20307 c 0.81302,-0.11167 1.86657,-0.2794 2.34119,-0.3727 0.47462,-0.0933 1.6396,-0.32053 2.58884,-0.50494 1.79852,-0.3494 2.74683,-0.56275 4.05587,-0.91249 0.42716,-0.11415 1.24265,-0.27816 1.81219,-0.36451 l 1.03554,-0.15701 -1.02598,0.87013 c -0.56428,0.47858 -1.77028,1.02977 -2.67999,1.22486 -2.22979,0.47821 -4.05672,1.27151 -5.02665,2.18272 -2.88975,2.7148 -3.30709,7.0213 -0.90637,9.3528 1.254,1.2179 2.37731,1.5961 4.74064,1.5961 3.20894,0 6.59304,-2.9627 9.14151,-8.0032 1.31682,-2.6044 1.44836,-2.7536 1.74635,-1.9803 0.9179,2.3818 5.15332,6.0953 8.0629,7.0693 3.13849,1.0506 6.25166,-0.1775 8.58425,-3.3866 2.71768,-3.7389 2.87771,-7.19354 0.50607,-10.92489 -1.41967,-2.23358 -3.80233,-3.7336 -7.43705,-4.68201 -1.462,-0.38148 -3.63054,-0.47756 -5.00511,-0.22174 l -1.72589,0.3212 1.38072,-1.18173 c 2.3933,-2.04836 4.04957,-2.80124 6.50675,-2.95769 2.61054,-0.16624 3.42676,-0.71294 4.4376,-2.9723 0.63969,-1.4298 0.64179,-1.56527 0.0642,-4.14216 -0.32843,-1.46522 -0.60974,-3.36302 -0.62514,-4.21733 l -0.028,-1.55332 -2.12524,-0.0609 c -1.1689,-0.0335 -2.18327,-0.003 -2.25416,0.068 z m -9.9712,19.10247 c 0.4626,0.86434 0.089,2.05234 -0.7269,2.31129 -1.1745,0.37277 -2.26017,-0.11637 -2.51539,-1.13325 -0.19152,-0.76307 -0.0609,-1.09897 0.67276,-1.73004 0.99683,-0.85743 1.92154,-0.65879 2.56953,0.552 z m -84.12996,-15.13739 c 2.10064,2.10067 18.27455,1.97497 21.95615,-10.86193 0.28666,-0.99956 0.24859,-1.04639 -1.13621,-1.39797 -13.88902,-3.52632 -22.08112,10.99874 -20.81994,12.2599 z"
       id="path1-9"
       sodipodi:nodetypes="sssssssscssssssssssssscsssscsssssssssscsssssssssssssssssccccscssssssccssssssssssssssssssccscsccssssssssssssssssssssssssscssssssssssscsccsssccssccssssssssssscssscssssscssscssssssssssssssssssscssssscsscscsssssssssssssssssssssssssssscsssscssssscsssssssssssscssssscsssssssssssss" /><path
       id="rect60665-8-8-9"
       style="fill:#404344;fill-opacity:1;stroke:#000000;stroke-width:0.4;stroke-miterlimit:4;stroke-dasharray:none;stroke-opacity:1"
       d="m 19.888671,45.129143 c -0.1195,8.11112 -6.66577,14.65761 -14.7768796,14.77739 V 189.42266 c 0.0666,-0.01 0.13328,-0.016 0.19999,-0.023 8.2841696,1.9e-4 14.9996696,6.716 14.9995996,15.0001 -0.007,0.067 -0.0147,0.1334 -0.0227,0.2 H 360.33455 c 0.11978,-8.1109 6.66597,-14.6571 14.77688,-14.7769 V 60.129253 c -8.28416,-2.2e-4 -14.99966,-6.71595 -14.9996,-15.00011 z"
       sodipodi:nodetypes="ccccccccccc" /><rect
       style="fill:none;stroke:#000000;stroke-width:0.399824;stroke-miterlimit:4;stroke-dasharray:none;stroke-opacity:1"
       id="rect25985-4-4-3"
       width="380.00018"
       height="169.85019"
       x="2.7755576e-17"
       y="39.899799" /><g
       id="g100593-4-9-3"
       transform="translate(-0.07690868,-155.00017)"
       style="fill:#ffffff;fill-opacity:1"><circle
         style="fill:#ffffff;fill-opacity:1;stroke:#000000;stroke-width:0.4;stroke-miterlimit:4;stroke-dasharray:none;stroke-opacity:1"
         id="path84251-5-40-2"
         cx="19.839582"
         cy="279.72525"
         r="2.5" /><circle
         style="fill:#ffffff;fill-opacity:1;stroke:#000000;stroke-width:0.4;stroke-miterlimit:4;stroke-dasharray:none;stroke-opacity:1"
         id="path84253-0-6-7"
         cx="360.31442"
         cy="279.72525"
         r="2.5" /></g><text
       xml:space="preserve"
       style="font-style:normal;font-variant:normal;font-weight:normal;font-stretch:normal;font-size:69.3589px;line-height:1.25;font-family:'Victorian LET';-inkscape-font-specification:'Victorian LET';text-align:center;text-anchor:middle;fill:#ffffff;fill-opacity:1;stroke-width:1.73397"
       x="200.42853"
       y="99.022179"
       id="text2-2-1-8-7-8"
       transform="scale(0.94890182,1.0538498)"><tspan
         sodipodi:role="line"
         id="tspan2-7-2-3-80-3"
         style="font-style:normal;font-variant:normal;font-weight:normal;font-stretch:normal;font-family:'Victorian LET';-inkscape-font-specification:'Victorian LET';fill:#ffffff;fill-opacity:1;stroke-width:1.73397"
         x="200.42853"
         y="99.022179">Lieblingsplatz</tspan></text><g
       id="g29"
       transform="translate(-790.07264,-509.98201)"><path
         id="path4-7-9"
         style="fill:#ffffff;fill-opacity:1;stroke:none;stroke-width:0.610543;stroke-opacity:1"
         d="m 915.78286,621.77083 c -0.0351,0.003 -0.0703,0.007 -0.10542,0.01 -1.1649,0.20191 -2.32479,0.47979 -3.40548,0.95395 -1.42246,0.60335 -2.71197,1.49073 -3.78271,2.57555 -0.49885,0.5078 -0.94764,1.06115 -1.33894,1.65003 -0.38749,0.58809 -0.7162,1.21303 -0.96893,1.86604 -0.28912,0.74989 -0.48847,1.53284 -0.57464,2.32905 -0.0979,0.85338 -0.0673,1.71921 0.0677,2.56729 0.14336,0.845 0.38131,1.67833 0.75086,2.45825 0.3529,0.75122 0.81293,1.45611 1.36426,2.08669 0.66487,0.77146 1.48865,1.40942 2.3952,1.89859 0.47143,0.25647 0.96835,0.46869 1.47898,0.64131 0.43313,0.14725 0.87911,0.25877 1.33015,0.34106 0.8576,0.15368 1.7386,0.19369 2.60605,0.0992 0.67583,-0.0704 1.34094,-0.22718 1.9792,-0.45165 0.65221,-0.23104 1.27152,-0.5468 1.83865,-0.93379 1.19117,-0.82393 2.14403,-1.9794 2.66082,-3.30575 0.27595,-0.70485 0.42938,-1.45481 0.43718,-2.20865 0.0208,-1.01394 -0.22567,-2.02769 -0.68626,-2.9378 -0.3402,-0.67382 -0.80685,-1.28937 -1.38338,-1.79317 -0.63364,-0.56375 -1.39812,-1.00191 -2.235,-1.21388 -0.50827,-0.12771 -1.0389,-0.17437 -1.5627,-0.13385 -0.76702,0.0532 -1.51995,0.28538 -2.17764,0.66973 -0.4261,0.25936 -0.82357,0.57662 -1.10743,0.98237 -0.44496,0.61857 -0.6643,1.40022 -0.54312,2.14922 0.0529,0.34581 0.16143,0.71458 0.4532,0.94465 0.29687,0.2477 0.71494,0.32367 1.09554,0.26045 0.4792,-0.0732 0.91005,-0.30602 1.37201,-0.4377 0.30718,-0.0969 0.64901,-0.14944 0.95963,-0.0362 0.35862,0.11614 0.66563,0.3617 0.85835,0.6749 0.31169,0.49057 0.37365,1.10341 0.23306,1.65675 -0.11133,0.46283 -0.35192,0.89389 -0.67231,1.25315 -0.46399,0.51443 -1.09304,0.87327 -1.76165,1.0821 -0.87817,0.27226 -1.83952,0.27202 -2.72335,0.0227 -0.63493,-0.17792 -1.23795,-0.47089 -1.75234,-0.87281 -0.6595,-0.51588 -1.18336,-1.18335 -1.55702,-1.91668 -0.60291,-1.18757 -0.77895,-2.56097 -0.54363,-3.86023 0.14402,-0.79437 0.44466,-1.55993 0.85783,-2.25981 0.40996,-0.68146 0.93861,-1.29785 1.56424,-1.80506 0.71027,-0.58895 1.52655,-1.061 2.40502,-1.37614 0.99137,-0.3593 2.05321,-0.53867 3.11248,-0.51418 1.19507,0.0221 2.38525,0.30838 3.44836,0.83612 0.82037,0.39974 1.59304,0.89275 2.28669,1.47485 0.60368,0.50995 1.16299,1.07119 1.64227,1.69292 0.55239,0.70667 1.00764,1.48715 1.3162,2.32182 0.29849,0.78285 0.46302,1.61066 0.51056,2.44274 0.0619,1.00498 -0.0304,2.0103 -0.11162,3.0117 -0.1565,1.85351 -0.34695,3.70461 -0.4656,5.56091 -0.0579,0.90304 -0.0463,1.80921 5.2e-4,2.71249 0.0551,0.89745 0.16579,1.79102 0.30334,2.67994 0.15917,1.02773 0.35092,2.05139 0.61288,3.05976 0.31188,1.24719 0.70743,2.47346 1.156,3.68092 0.20692,0.58048 0.42964,1.15566 0.64802,1.73219 0.10613,0.21607 0.27441,0.48786 0.11421,0.71934 -0.15135,0.15464 -0.39985,0.0991 -0.56896,0.004 -1.12028,-0.65399 -2.27056,-1.25971 -3.42356,-1.85829 -0.91359,-0.45889 -1.84233,-0.89049 -2.79001,-1.28002 -1.25248,-0.53164 -2.54264,-0.98034 -3.86023,-1.33687 -1.37175,-0.38545 -2.7694,-0.67882 -4.17443,-0.92604 -1.5736,-0.27817 -3.16216,-0.47506 -4.75474,-0.61908 -2.57791,-0.22405 -5.17062,-0.28748 -7.75715,-0.19844 -1.06016,0.035 -2.1191,0.0956 -3.17707,0.16846 -1.10125,0.0869 -2.20093,0.19125 -3.29799,0.31833 -2.68867,0.31669 -5.36482,0.72274 -8.05015,1.0635 -0.4468,0.0507 -0.89894,0.0549 -1.34618,0.007 -1.19072,-0.10334 -2.37525,-0.26374 -3.56257,-0.39739 -1.36661,-0.1607 -2.73648,-0.29591 -4.11086,-0.37672 -1.66008,-0.10511 -3.32371,-0.159 -4.98729,-0.16692 -1.34798,-0.005 -2.69621,0.0146 -4.04368,0.0496 -1.18802,0.0336 -2.37534,0.085 -3.56154,0.15658 -1.45216,0.10131 -2.89978,0.25864 -4.34031,0.46199 -2.11996,0.28458 -4.22583,0.66368 -6.31227,1.12396 -1.3493,0.29185 -2.68814,0.62943 -4.01991,0.98805 -1.07876,0.29715 -2.15177,0.61357 -3.21789,0.95033 -2.15904,0.68944 -4.28364,1.48159 -6.35207,2.39417 -1.70295,0.7455 -3.37228,1.56331 -4.99401,2.46187 -1.34354,0.74439 -2.6461,1.55818 -3.89279,2.44584 -0.82197,0.58477 -1.62453,1.19668 -2.36729,1.87379 -1.02161,0.90641 -1.98455,1.87769 -2.83859,2.93419 -0.8031,0.9838 -1.50441,2.05727 -1.97197,3.22926 -0.41408,1.03437 -0.63364,2.14097 -0.64027,3.24993 -0.004,0.59959 0.0341,1.19853 0.0801,1.79627 0.0137,0.23414 0.0608,0.47165 -0.061,0.68523 -0.105,0.22607 -0.36777,0.30108 -0.5917,0.37259 -1.05671,0.2816 -2.12014,0.54087 -3.19102,0.76791 -0.66542,0.14149 -1.33228,0.27872 -2.00763,0.36897 -1.03791,0.1501 -2.08923,0.22526 -3.13882,0.1943 -1.42738,-0.0291 -2.85017,-0.24263 -4.22145,-0.62528 -0.9978,-0.29603 -1.98306,-0.62971 -2.9683,-0.96222 -0.54144,-0.18104 -1.08004,-0.37035 -1.62315,-0.54622 -0.27352,-0.0833 -0.59979,-0.029 -0.80047,0.17725 -0.19276,0.22175 -0.13205,0.56033 0.0491,0.7705 0.19166,0.22327 0.44136,0.39251 0.6842,0.56017 0.80169,0.53974 1.67842,0.9644 2.5616,1.36426 0.7508,0.33331 1.51386,0.64464 2.2934,0.91002 0.84836,0.28414 1.71612,0.51561 2.59932,0.67386 1.37893,0.24586 2.79277,0.28366 4.18838,0.16847 0.97843,-0.0878 1.94846,-0.25626 2.90163,-0.48576 1.38055,-0.3216 2.75132,-0.68139 4.1305,-1.00769 0.20146,-0.0498 0.40928,-0.12082 0.6196,-0.0806 0.23924,0.0354 0.42842,0.15843 0.62993,0.28732 0.76684,0.47895 1.53816,0.95439 2.34715,1.36374 0.48374,0.24162 0.9818,0.45525 1.49086,0.64234 0.97759,0.36288 1.99192,0.63295 3.02152,0.81856 1.05822,0.182 2.13022,0.29656 3.20549,0.31367 1.26293,0.0155 2.52509,-0.0781 3.77703,-0.23409 1.05348,-0.13028 2.10077,-0.30311 3.14451,-0.49196 1.97978,-0.37711 3.94694,-0.81284 5.91695,-1.23352 0.26088,-0.043 0.52944,-0.2066 0.79479,-0.10438 0.22307,0.14458 0.20657,0.45096 0.26613,0.68006 0.16601,0.82613 0.37852,1.64393 0.6289,2.44998 0.2657,0.81857 0.57536,1.6255 0.97307,2.39365 0.64339,1.28127 1.46284,2.4865 2.47892,3.52227 0.81951,0.84575 1.75751,1.58256 2.77192,2.20038 0.60373,0.38083 1.2466,0.70087 1.90221,0.9896 0.83014,0.36098 1.69457,0.64797 2.57866,0.85835 1.30068,0.30685 2.64588,0.44374 3.98425,0.3886 1.33211,-0.0613 2.65611,-0.31753 3.9057,-0.76791 1.64386,-0.59436 3.1678,-1.51037 4.41369,-2.70629 0.59022,-0.55848 1.12579,-1.1717 1.59267,-1.82986 0.28065,-0.40176 0.52926,-0.82335 0.78548,-1.23972 0.094,-0.21724 0.18833,-0.53254 0.478,-0.55242 0.29948,0.0294 0.39413,0.35118 0.52039,0.56534 0.29296,0.52651 0.68627,0.99149 1.06453,1.46192 0.99531,1.19193 2.15794,2.25078 3.42718,3.16777 0.79189,0.56379 1.63745,1.05731 2.52595,1.46606 1.26395,0.58168 2.60728,1.00292 3.98425,1.25005 0.87113,0.14342 1.75354,0.24146 2.6386,0.22738 1.04993,-0.004 2.10102,-0.11499 3.12177,-0.35502 1.23315,-0.28077 2.425,-0.72884 3.5326,-1.32188 0.86435,-0.46496 1.6832,-1.01197 2.42466,-1.64486 0.77042,-0.6574 1.47009,-1.39307 2.06447,-2.20349 0.44748,-0.61522 0.83385,-1.27235 1.1436,-1.96215 0.26778,-0.60065 0.48429,-1.22407 0.6165,-1.86604 0.19462,-0.90415 0.2608,-1.83304 0.21084,-2.75487 -0.05,-0.97531 -0.24071,-1.94361 -0.56172,-2.86959 -0.25512,-0.7342 -0.60996,-1.43644 -1.0635,-2.07584 -0.63317,-0.90051 -1.44641,-1.68537 -2.38797,-2.28565 -0.63813,-0.40331 -1.33054,-0.72927 -2.06034,-0.9462 -0.84913,-0.25561 -1.74275,-0.38 -2.6324,-0.35501 -0.68715,0.0257 -1.3714,0.13839 -2.0252,0.3452 -0.55404,0.18049 -1.08713,0.42737 -1.56217,0.75809 -0.42638,0.29171 -0.80414,0.6486 -1.11415,1.05472 -0.36801,0.47888 -0.64665,1.02452 -0.80253,1.60196 -0.14247,0.52965 -0.18379,1.08463 -0.11369,1.62781 0.0648,0.48334 0.23466,0.95584 0.51108,1.36478 0.52672,0.78564 1.44099,1.33046 2.41484,1.38389 0.6385,0.0424 1.2928,-0.16931 1.76268,-0.59118 0.3128,-0.24373 0.42895,-0.67391 0.31885,-1.04128 -0.10295,-0.38945 -0.32692,-0.7352 -0.45682,-1.11517 -0.0628,-0.30465 0.0883,-0.61929 0.32246,-0.82063 0.42668,-0.39438 1.02731,-0.5664 1.60765,-0.58601 0.6505,-0.0182 1.29779,0.17652 1.83761,0.52349 0.52531,0.33679 0.95565,0.79418 1.32757,1.28157 0.4703,0.63958 0.78174,1.37973 0.94465,2.14612 0.18535,0.83862 0.16247,1.70938 0.0227,2.55282 -0.19413,1.09886 -0.65051,2.15092 -1.29862,3.07216 -0.64528,0.91413 -1.48277,1.69859 -2.43758,2.30942 -0.5747,0.36981 -1.19323,0.67416 -1.83658,0.91623 -0.80337,0.30556 -1.64569,0.51714 -2.50166,0.62786 -0.90148,0.10955 -1.81647,0.11975 -2.71973,0.0222 -1.16643,-0.12129 -2.31422,-0.41196 -3.38842,-0.86765 -0.68491,-0.28446 -1.34236,-0.62845 -1.96732,-1.02061 -0.60905,-0.38281 -1.18445,-0.8152 -1.72186,-1.28726 -0.76403,-0.67474 -1.44672,-1.43473 -2.03605,-2.25619 -0.41035,-0.57303 -0.77776,-1.17537 -1.08573,-1.80558 -0.29102,-0.59364 -0.5344,-1.20872 -0.72863,-1.83813 -0.20604,-0.65532 -0.34056,-1.32927 -0.44752,-2.00556 -0.1944,-1.31538 -0.18976,-2.65368 -0.0512,-3.97392 0.0993,-0.8755 0.26847,-1.74334 0.51676,-2.59106 0.31605,-1.09963 0.75329,-2.16705 1.2976,-3.18016 0.3001,-0.56949 0.64024,-1.11835 1.00045,-1.65417 0.38646,-0.5553 0.79786,-1.09511 1.25264,-1.60042 0.62211,-0.70942 1.30837,-1.36664 2.04742,-1.96267 0.81184,-0.65308 1.68558,-1.23441 2.60294,-1.74097 0.90176,-0.50841 1.84166,-0.95081 2.79673,-1.35754 1.08545,-0.45882 2.18822,-0.87975 3.31194,-1.24334 1.01874,-0.33383 2.05064,-0.62881 3.08147,-0.92552 0.309,-0.0823 0.61449,-0.17965 0.92552,-0.25322 0.51337,-0.0988 1.05339,0.002 1.51309,0.23616 0.95616,0.44232 1.87575,0.95258 2.80345,1.44694 1.27021,0.697 2.53726,1.40077 3.77083,2.15698 0.80837,0.5007 1.61158,1.00916 2.40967,1.52497 0.81459,0.53179 1.62178,1.07411 2.42207,1.62574 3.46629,2.39215 6.89682,4.83208 10.34666,7.24607 1.23198,0.86256 2.46088,1.72966 3.7052,2.57555 1.40718,0.94997 2.82853,1.88101 4.28087,2.76572 1.34781,0.83269 2.73778,1.60115 4.15324,2.32131 1.75849,0.88347 3.57044,1.67027 5.43119,2.33164 1.5866,0.55697 3.21061,1.01793 4.86172,1.35961 1.08161,0.22504 2.17801,0.38216 3.2799,0.478 0.7027,0.0547 1.40621,0.0981 2.10995,0.13695 l 1.91927,-3.26957 c -1.4421,-2.2e-4 -2.89119,-0.14772 -4.32222,-0.32711 -0.94197,-0.12677 -1.87385,-0.32297 -2.78329,-0.5917 -1.45526,-0.40957 -2.88484,-0.90092 -4.29018,-1.44849 -1.16125,-0.44829 -2.30398,-0.94036 -3.4277,-1.47019 -1.3253,-0.6337 -2.62888,-1.31035 -3.90157,-2.03761 -0.52729,-0.296 -1.0489,-0.60223 -1.56786,-0.91157 -0.83368,-0.50792 -1.65968,-1.02737 -2.46962,-1.56993 -1.02332,-0.68193 -2.02632,-1.39174 -3.03237,-2.09703 -2.35792,-1.67007 -4.70285,-3.35728 -7.05745,-5.03173 -1.02838,-0.72847 -2.05053,-1.46528 -3.08405,-2.18695 -0.96852,-0.67644 -1.95292,-1.33163 -2.95279,-1.96422 -0.88955,-0.57284 -1.7994,-1.11569 -2.70992,-1.65675 -1.40883,-0.82863 -2.8146,-1.66278 -4.24625,-2.45463 -0.21538,-0.0876 -0.50448,-0.31981 -0.3483,-0.56637 0.17623,-0.2242 0.49498,-0.19539 0.75344,-0.22634 1.7139,-0.15157 3.42718,-0.31125 5.14388,-0.43047 1.17539,-0.0743 2.35331,-0.0991 3.53105,-0.093 h 0.0501 0.0413 c 1.51394,0.0576 3.02814,0.12049 4.53875,0.23512 1.39257,0.11534 2.78063,0.30937 4.13773,0.63614 0.75467,0.18085 1.49752,0.40745 2.22932,0.66042 0.80015,0.27958 1.58486,0.59858 2.34973,0.9586 1.25616,0.59432 2.45752,1.29575 3.59513,2.08101 1.02962,0.71927 2.01483,1.49982 2.91713,2.36472 0.66405,0.62323 1.29851,1.27498 1.94097,1.91874 1.02138,1.03478 2.03822,2.07418 3.08456,3.0856 1.03357,0.98705 2.1339,1.91411 3.33468,2.70836 1.02472,0.6831 2.10948,1.2786 3.22513,1.81178 2.51408,0.95946 4.99706,2.14614 7.66155,2.63911 0.38635,-0.91878 0.81291,-1.87776 1.28622,-2.88354 -1.80542,-0.22146 -3.54192,-0.97317 -5.20691,-1.6614 -0.9266,-0.39533 -1.82523,-0.86184 -2.6417,-1.4428 -0.85862,-0.61382 -1.623,-1.34831 -2.27015,-2.16835 -0.58341,-0.73181 -1.07272,-1.53469 -1.44022,-2.38745 -0.28149,-0.66319 -0.47935,-1.36119 -0.57826,-2.07171 -0.15464,-1.15662 -0.0932,-2.34296 0.20516,-3.4742 0.17224,-0.63498 0.41394,-1.25364 0.74207,-1.82935 0.51036,-0.90325 1.22182,-1.70314 2.08359,-2.31097 0.50821,-0.3564 1.06353,-0.65359 1.65727,-0.85473 0.57061,-0.19865 1.17425,-0.30984 1.78077,-0.32711 0.68392,-0.03 1.37457,0.0694 2.01899,0.29249 0.66206,0.22548 1.2812,0.61293 1.69189,1.16995 0.36269,0.48234 0.51735,1.08689 0.51676,1.6769 0.005,0.61057 -0.19024,1.19835 -0.31987,1.79008 -0.0653,0.28844 -0.15676,0.57246 -0.1881,0.86713 -0.005,0.5738 0.51231,1.08894 1.1007,1.12861 0.32639,0.026 0.65413,-0.035 0.96687,-0.12092 0.8351,-0.26119 1.54519,-0.84493 1.98179,-1.57562 0.33336,-0.54955 0.51124,-1.18179 0.52865,-1.81746 0.0522,-0.88343 -0.0743,-1.77982 -0.40359,-2.60759 -0.19156,-0.48168 -0.4425,-0.94107 -0.74776,-1.36477 -0.4078,-0.57893 -0.9209,-1.08548 -1.49242,-1.51516 -0.48183,-0.35314 -1.00426,-0.65452 -1.55804,-0.89038 -1.18915,-0.51315 -2.50183,-0.747 -3.80235,-0.71365 -1.46126,0.0373 -2.91315,0.4041 -4.20233,1.0697 -0.81115,0.41332 -1.56433,0.9323 -2.23035,1.54099 -0.90199,0.81213 -1.66418,1.76618 -2.25775,2.80913 -0.37869,0.67265 -0.69104,1.38128 -0.91622,2.11563 -0.17323,0.54474 -0.29438,1.10379 -0.38137,1.66709 -0.14228,1.01055 -0.15985,2.03756 -0.0563,3.05252 0.004,0.21508 0.1212,0.45924 -0.0362,0.64957 -0.11254,0.18778 -0.38401,0.18545 -0.51573,0.0165 -0.20483,-0.1776 -0.33162,-0.41797 -0.50023,-0.62477 -1.01667,-1.36985 -2.0413,-2.73405 -3.02411,-4.12688 -0.45943,-0.65329 -0.89348,-1.32364 -1.30483,-2.00608 -0.51022,-0.85012 -0.96658,-1.72974 -1.37304,-2.63033 -0.33361,-0.72568 -0.64161,-1.46251 -0.9064,-2.21433 -0.41982,-1.17019 -0.74443,-2.37218 -0.96532,-3.59203 -0.10483,-0.57818 -0.1926,-1.15962 -0.25476,-1.74356 -0.0882,-0.82491 -0.13172,-1.65427 -0.12816,-2.48357 0.004,-1.20567 0.11041,-2.4108 0.30696,-3.60133 0.14044,-0.84636 0.33307,-1.68399 0.5705,-2.50993 0.20236,-0.69883 0.44589,-1.38588 0.70745,-2.06602 0.41058,-1.02363 0.9092,-2.01323 1.46813,-2.96881 0.75308,-1.28721 1.66066,-2.48956 2.68718,-3.58635 0.51426,-0.53861 1.10512,-1.01125 1.76578,-1.37407 0.38613,-0.22691 0.798,-0.41303 1.22266,-0.56224 0.76101,-0.25128 1.56878,-0.39733 2.37505,-0.3452 0.9118,0.0426 1.80796,0.36957 2.51613,0.92604 0.5042,0.39227 0.91796,0.89071 1.20664,1.45004 0.20652,0.38212 0.34843,0.81206 0.30593,1.24747 -0.0384,0.52747 -0.30023,1.02867 -0.69712,1.3901 -0.34094,0.31327 -0.77633,0.50311 -1.17925,0.72915 -0.331,0.17661 -0.66193,0.35376 -0.97669,0.55656 -0.20404,0.20204 -0.32718,0.47662 -0.33796,0.75861 -0.0151,0.28518 0.0819,0.56985 0.23719,0.81028 0.27102,0.42047 0.72782,0.69574 1.20613,0.85163 0.68528,0.22058 1.44102,0.20672 2.12959,0.006 0.70676,-0.21105 1.33947,-0.62336 1.8495,-1.13585 0.48228,-0.48006 0.87598,-1.04345 1.15238,-1.65674 0.42099,-0.91724 0.52566,-1.94922 0.39739,-2.93884 -0.11395,-0.85194 -0.39816,-1.6805 -0.81183,-2.44016 -0.47465,-0.87032 -1.12066,-1.65281 -1.88775,-2.30012 -0.89924,-0.75764 -1.96968,-1.32287 -3.11298,-1.65365 -0.8801,-0.2633 -1.80353,-0.37894 -2.72387,-0.37517 -0.63889,0.0107 -1.27647,0.0878 -1.89756,0.23306 -0.52937,0.12687 -1.04328,0.30823 -1.53995,0.52504 -0.91783,0.39026 -1.80344,0.84751 -2.67374,1.32756 -0.71148,0.40561 -1.4039,0.85625 -1.99058,1.42162 -0.50829,0.49976 -0.93973,1.065 -1.37614,1.62264 -0.19195,0.20833 -0.29967,0.51384 -0.5824,0.62632 -0.27534,0.11297 -0.52136,-0.1501 -0.59272,-0.38499 -0.21614,-0.49948 -0.4607,-0.98703 -0.71211,-1.47071 -0.59871,-1.10736 -1.38975,-2.11485 -2.30942,-2.99258 -0.81366,-0.76453 -1.72814,-1.43152 -2.72283,-1.96164 -0.53502,-0.28515 -1.09259,-0.53012 -1.66449,-0.73794 -0.54253,-0.19942 -1.10142,-0.35686 -1.66864,-0.47594 -0.73949,-0.15754 -1.49399,-0.24004 -2.24999,-0.27337 -0.4527,-0.0248 -0.90639,-0.0225 -1.35961,-0.0294 z m -44.59159,32.17892 c 0.0973,2.6e-4 0.19468,2.6e-4 0.29197,5.1e-4 1.87714,0.0938 3.75333,0.20457 5.62963,0.31265 0.18197,0.0263 0.37295,0.0323 0.54054,0.11317 -1.54965,0.60186 -3.11081,1.17595 -4.67155,1.75028 -2.57194,0.94927 -5.14503,1.89608 -7.71426,2.85202 -1.42548,0.53841 -2.84347,1.09469 -4.26279,1.64796 -2.45809,0.96154 -4.90201,1.95676 -7.33702,2.9714 -2.84481,1.19105 -5.67267,2.41901 -8.50749,3.63182 -3.64668,1.56197 -7.28875,3.13402 -10.94094,4.68395 -1.31863,0.55552 -2.63695,1.11227 -3.96099,1.65571 -1.33347,0.54266 -2.67051,1.07775 -4.00441,1.61954 -0.17122,-0.65041 -0.25962,-1.32566 -0.20981,-1.99678 0.0354,-0.62386 0.1961,-1.23538 0.40825,-1.82366 0.32028,-0.83548 0.75223,-1.6324 1.30173,-2.34921 0.50152,-0.66678 1.07085,-1.28357 1.65364,-1.88464 1.02335,-1.04146 2.13877,-1.99645 3.31194,-2.87786 0.8615,-0.64446 1.7561,-1.24775 2.67684,-1.81074 0.83907,-0.51444 1.69946,-0.99612 2.57607,-1.44849 1.278,-0.64734 2.58324,-1.24645 3.92276,-1.7663 2.44066,-0.95527 4.94664,-1.7527 7.48998,-2.41174 0.81276,-0.2175 1.63076,-0.41697 2.44998,-0.6103 1.58734,-0.36949 3.18301,-0.70653 4.78886,-0.9927 1.67635,-0.30279 3.36433,-0.54378 5.05705,-0.74311 1.53024,-0.17865 3.06507,-0.32125 4.60386,-0.40928 1.63357,-0.0875 3.27019,-0.11652 4.90616,-0.1142 z m 31.93758,0.2098 c 0.39116,-0.003 0.78244,-0.002 1.17358,0.002 0.0419,6.6e-4 0.0841,10e-4 0.12609,0.002 1.01546,0.0349 2.02992,0.0957 3.04425,0.15296 1.54039,0.0829 3.07804,0.2058 4.61213,0.36277 0.19919,0.0195 0.3987,0.0389 0.59789,0.0584 -1.95073,0.0802 -3.90262,0.14689 -5.85235,0.24649 -0.72223,0.0408 -1.44493,0.0715 -2.16525,0.1385 -0.95758,0.0882 -1.91354,0.1976 -2.86649,0.32401 -1.30089,0.18106 -2.60106,0.366 -3.90105,0.55294 -0.69543,-0.0477 -1.34616,-0.30843 -1.98438,-0.55966 -0.66763,-0.26006 -1.33533,-0.52026 -2.00298,-0.78031 1.8989,-0.14659 3.79778,-0.29756 5.69992,-0.39895 1.17191,-0.0585 2.34517,-0.0931 3.51864,-0.10077 z m -16.2698,2.00195 c 0.59982,0.11235 1.19113,0.26981 1.78387,0.41393 0.50379,0.12959 1.00953,0.25226 1.51205,0.38602 0.24917,0.0846 0.54892,0.0712 0.74621,0.26407 0.24394,0.21067 -0.0232,0.52665 -0.27957,0.56844 -1.57519,0.43258 -3.13377,0.91984 -4.67982,1.44074 -1.27136,0.42589 -2.53541,0.87167 -3.7884,1.34565 -1.88314,0.7242 -3.74908,1.49273 -5.57279,2.34766 -2.16527,1.00167 -4.28068,2.09967 -6.40994,3.16983 -2.10347,1.06072 -4.2035,2.1284 -6.31538,3.17345 -0.99803,0.49278 -1.99965,0.979 -3.00705,1.45366 -2.22856,1.03965 -4.47505,2.04207 -6.71742,3.05356 -0.17127,0.0588 -0.31957,0.17681 -0.50229,0.20309 0.18814,-0.51525 0.40219,-1.02142 0.61236,-1.52859 0.43752,-1.05108 0.95276,-2.0749 1.59164,-3.02669 0.82264,-1.2463 1.85066,-2.36487 3.021,-3.31711 0.81015,-0.65706 1.69554,-1.22184 2.60553,-1.74098 0.75884,-0.42648 1.53843,-0.81827 2.3337,-1.1777 1.35451,-0.61295 2.74841,-1.13907 4.13825,-1.67174 1.38063,-0.50063 2.76567,-0.99014 4.15892,-1.45727 1.04147,-0.34986 2.08877,-0.68413 3.14141,-1.00149 1.2076,-0.36159 2.41889,-0.71277 3.63182,-1.0573 1.00958,-0.28375 2.01904,-0.56794 3.03392,-0.83354 1.04112,-0.2793 2.08361,-0.55353 3.13418,-0.79788 0.59871,-0.13279 1.21158,-0.23162 1.8278,-0.20981 z m -8.29459,10.41383 c -0.16336,0.22917 -0.32653,0.45814 -0.48989,0.6873 -0.73818,1.09686 -1.48739,2.19584 -2.04432,3.39204 -0.32087,0.6644 -0.59349,1.35013 -0.82372,2.04845 -0.2694,0.82219 -0.47337,1.66333 -0.62994,2.512 -0.0534,0.2905 -0.11206,0.58011 -0.1571,0.87178 -0.0124,0.21805 -0.0317,0.58498 -0.33021,0.59376 -0.28366,-0.0657 -0.48387,-0.30593 -0.74776,-0.42168 -0.83759,-0.44199 -1.71815,-0.83432 -2.66133,-1.00924 -1.25174,-0.24047 -2.5916,-0.10519 -3.73776,0.44855 -0.86117,0.40955 -1.62354,1.03712 -2.11511,1.83813 -0.43838,0.72421 -0.62523,1.59984 -0.46458,2.42828 0.10784,0.51041 0.36423,0.99041 0.72916,1.37407 0.29588,0.32098 0.68326,0.55954 1.10071,0.70539 0.3486,0.11697 0.73157,0.1812 1.09554,0.093 0.41246,-0.0853 0.79587,-0.33547 0.99063,-0.70228 0.22539,-0.41671 0.18132,-0.90765 0.35089,-1.34204 0.14426,-0.29178 0.4884,-0.45369 0.81545,-0.43924 0.57013,6.8e-4 1.1222,0.25028 1.52084,0.63768 0.43101,0.39136 0.73039,0.8993 0.93534,1.43092 0.22727,0.61297 0.31912,1.26983 0.28061,1.91927 -0.0465,0.77986 -0.25665,1.54929 -0.59893,2.25671 -0.43746,0.90532 -1.09247,1.70828 -1.88774,2.34662 -0.75827,0.6123 -1.64579,1.07351 -2.59313,1.34721 -0.65235,0.19307 -1.33138,0.29306 -2.01176,0.33124 -0.9223,0.0479 -1.85103,-0.0276 -2.75229,-0.22272 -1.25225,-0.26802 -2.45067,-0.7604 -3.52691,-1.43247 -1.36777,-0.83993 -2.52987,-1.97498 -3.43597,-3.26854 -0.46946,-0.67983 -0.87123,-1.40375 -1.18391,-2.16317 -0.29677,-0.71419 -0.52274,-1.45505 -0.68058,-2.20917 -0.0941,-0.42512 -0.16835,-0.85465 -0.25166,-1.28158 -0.0401,-0.24807 0.0395,-0.52001 0.24391,-0.68419 0.21053,-0.16883 0.47874,-0.24447 0.71779,-0.36639 1.73477,-0.78549 3.46491,-1.58066 5.17229,-2.42052 3.44108,-1.69 6.88076,-3.38349 10.3234,-5.07049 1.48685,-0.73073 2.98559,-1.43864 4.47777,-2.15905 1.37654,-0.66123 2.75292,-1.3226 4.12946,-1.98385 0.0787,-0.0328 0.15895,-0.0612 0.24081,-0.0858 z m -24.71735,0.78342 c -0.74511,1.0518 -1.51441,2.09468 -2.1084,3.23598 -0.58614,1.10246 -1.04762,2.26318 -1.42885,3.44526 -0.13238,0.39218 -0.25769,0.78622 -0.38551,1.17978 -0.11775,0.3031 -0.38998,0.53657 -0.70642,0.63665 -1.44344,0.53753 -2.88948,1.06848 -4.34495,1.5751 -0.79463,0.27323 -1.58973,0.54524 -2.39572,0.786 -0.92819,0.28489 -1.86669,0.54047 -2.8143,0.75809 -0.89828,0.20074 -1.80565,0.36455 -2.72025,0.47801 -1.07275,0.13378 -2.16233,0.18185 -3.23908,0.062 -1.0185,-0.10336 -2.01415,-0.3658 -2.97036,-0.71365 -0.56069,-0.2113 -1.10196,-0.47591 -1.65054,-0.72089 -0.18574,-0.1154 -0.42701,-0.13646 -0.58705,-0.29094 -0.11718,-0.10191 -0.0641,-0.29689 0.0749,-0.35346 0.21562,-0.0943 0.42303,-0.18364 0.65268,-0.26407 1.07266,-0.44283 2.13895,-0.90252 3.21169,-1.34617 2.19642,-0.90014 4.41057,-1.76011 6.61716,-2.63653 4.90069,-1.93698 9.79985,-3.87744 14.69988,-5.81567 0.0337,0.004 0.0603,-0.0284 0.0951,-0.0155 z" /><path
         id="path13"
         style="fill:#ffffff;fill-opacity:1;stroke-width:0.610543"
         d="m 1014.8032,641.85643 v 5.2e-4 c -0.7094,0.0176 -1.6696,0.0917 -2.3725,0.1819 0.1415,1.4683 0.1565,2.9366 -0.01,4.4049 0.1035,-0.058 0.185,-0.14694 0.2914,-0.19896 0.5758,-0.27106 1.2011,-0.43694 1.8351,-0.5178 0.8578,-0.0982 1.7363,-0.0382 2.5678,0.19017 0.7135,0.19215 1.3925,0.49745 2.0143,0.8847 0.5418,0.33934 1.0464,0.73414 1.496,1.18184 0.5544,0.56165 1.0238,1.20029 1.3917,1.88981 0.6251,1.15148 0.9674,2.43825 1.0351,3.73466 0.062,1.05583 -0.065,2.11831 -0.3328,3.14244 -0.2464,0.92636 -0.6047,1.82639 -1.0837,2.66444 -0.3347,0.57279 -0.7047,1.12705 -1.1255,1.64486 -0.2072,0.25567 -0.4282,0.50058 -0.6444,0.74931 l 2.4841,2.19986 c 2.7349,-3.57198 4.143,-5.33652 4.5542,-9.45265 0.064,-0.60932 0.1175,-1.21995 0.1804,-1.82935 0.061,-0.30956 0.3,-0.54785 0.5534,-0.72863 0.3451,-0.26281 0.7175,-0.48996 1.0863,-0.72037 1.0257,-0.6262 2.0931,-1.19158 3.2034,-1.66605 1.1162,-0.48823 2.2744,-0.88909 3.4633,-1.17771 1.434,-0.35949 2.9053,-0.58423 4.3853,-0.65681 0.7139,-0.0333 1.4289,-0.0402 2.1435,-0.0403 1.1975,0.0473 2.3919,0.14755 3.5864,0.23978 0.8076,0.0733 1.6119,0.1796 2.4133,0.30024 1.1027,0.16493 2.2007,0.35836 3.2995,0.5457 0.2399,-0.0718 0.4808,0.20469 0.3969,0.42375 -0.1304,0.19648 -0.3913,0.26206 -0.5989,0.35915 -0.2613,0.10375 -0.5054,0.24312 -0.7617,0.3576 -1.3527,0.64425 -2.701,1.29769 -4.0365,1.97455 -0.6862,0.34995 -1.3703,0.70349 -2.0464,1.07126 -2.9288,1.56385 -5.8322,3.17103 -8.7452,4.76198 -3.7163,2.02288 -5.527,3.15295 -8.2501,4.80746 l -3.5068,2.57659 2.404,2.1518 c 6.3636,-3.85175 12.3426,-7.40678 18.7399,-10.59832 1.3239,-0.79856 2.6752,-1.55503 4.0515,-2.26653 1.1835,-0.60737 2.3907,-1.17136 3.6153,-1.69757 1.3989,-0.60614 2.8123,-1.1811 4.2219,-1.76371 0.32,-0.11056 0.667,-0.12656 1.0036,-0.10697 0.5103,0.0403 0.9913,0.22468 1.4717,0.3824 0.8566,0.29913 1.6903,0.65534 2.5265,1.00304 1.2901,0.55664 2.5801,1.12493 3.7874,1.83762 1.1459,0.66476 2.2291,1.43556 3.1905,2.3337 0.6142,0.56807 1.1726,1.19162 1.6779,1.85157 0.6275,0.82698 1.1663,1.71805 1.5808,2.66237 0.257,0.5644 0.4555,1.15169 0.6227,1.74615 0.1879,0.68628 0.32,1.38601 0.402,2.09134 0.099,0.89197 0.1212,1.79269 0.066,2.68821 -0.076,1.22588 -0.3428,2.44148 -0.7974,3.58893 -0.3624,0.88489 -0.8353,1.7305 -1.4345,2.4877 -0.6375,0.82673 -1.3875,1.57418 -2.234,2.20348 -0.8715,0.65921 -1.8369,1.20368 -2.866,1.59991 -0.8711,0.33901 -1.7909,0.55868 -2.7233,0.66456 -0.5395,0.0611 -1.0848,0.076 -1.6273,0.0496 -1.0583,-0.047 -2.1062,-0.27643 -3.082,-0.67437 -0.9301,-0.37548 -1.7902,-0.90937 -2.5332,-1.56632 -0.5087,-0.44154 -0.9561,-0.94974 -1.3255,-1.50533 -0.4843,-0.73528 -0.8199,-1.56524 -0.9488,-2.42879 -0.075,-0.53669 -0.068,-1.08314 0,-1.62057 0.074,-0.57572 0.2193,-1.14542 0.4589,-1.67846 0.366,-0.78654 0.9861,-1.47078 1.7736,-1.88567 0.4393,-0.22997 0.9383,-0.37972 1.4428,-0.35398 0.403,0.0114 0.7997,0.11691 1.1616,0.28629 0.225,0.11565 0.4127,0.34286 0.3969,0.59893 -0.01,0.29743 -0.1861,0.55327 -0.2914,0.82423 -0.1159,0.25976 -0.2534,0.54429 -0.1757,0.83303 0.082,0.39976 0.3812,0.74376 0.7596,0.91777 0.4311,0.21189 0.9398,0.20813 1.402,0.10542 0.4337,-0.0993 0.8459,-0.29253 1.1922,-0.56327 0.4047,-0.32976 0.6968,-0.77614 0.8702,-1.25626 0.1429,-0.4057 0.2034,-0.83621 0.1881,-1.264 -0.013,-0.40454 -0.1024,-0.8047 -0.2413,-1.18598 -0.142,-0.35651 -0.3258,-0.6989 -0.5705,-1.00045 -0.3191,-0.40858 -0.7163,-0.75769 -1.1586,-1.03921 -1.0311,-0.67406 -2.2831,-1.01479 -3.5259,-1.00149 -1.2065,0.004 -2.3935,0.38673 -3.406,1.00975 -0.7068,0.44172 -1.3408,0.99089 -1.8753,1.61851 -0.6401,0.75165 -1.1392,1.61526 -1.4583,2.53835 -0.2056,0.595 -0.3405,1.21256 -0.4093,1.83606 -0.1261,1.18153 -0.025,2.38442 0.2914,3.53208 0.3065,1.11781 0.8195,2.18518 1.5214,3.12333 0.4343,0.57685 0.9327,1.10755 1.481,1.58543 0.7274,0.63952 1.5421,1.18534 2.4133,1.62677 0.5483,0.2813 1.1199,0.52096 1.7064,0.71779 0.9274,0.32085 1.8988,0.51377 2.8778,0.61133 1.3166,0.12046 2.6547,0.0592 3.9455,-0.22531 0.8575,-0.18226 1.6969,-0.44567 2.4976,-0.79375 0.9281,-0.39254 1.8004,-0.90136 2.6137,-1.48311 0.6237,-0.44674 1.2183,-0.93206 1.7596,-1.47019 0.4989,-0.4889 0.9611,-1.01168 1.4154,-1.53893 0.1493,-0.18639 0.2857,-0.41186 0.5287,-0.49454 0.3031,-0.0758 0.5196,0.21991 0.5912,0.46664 0.1077,0.30303 0.2366,0.59802 0.3767,0.88831 0.2756,0.57381 0.5999,1.12684 0.9896,1.63608 0.6375,0.85069 1.4141,1.60807 2.3136,2.20142 0.7053,0.47156 1.4794,0.84492 2.283,1.13326 0.9625,0.34342 1.9741,0.55516 2.9957,0.64492 1.1008,0.0842 2.2147,0.0494 3.3006,-0.15193 1.2403,-0.22378 2.4423,-0.64487 3.5419,-1.24178 0.7566,-0.40901 1.4579,-0.90765 2.1084,-1.45986 0.5919,-0.50298 1.1378,-1.05605 1.634,-1.64745 0.9532,-1.12425 1.7143,-2.39844 2.2505,-3.75532 0.251,-0.63563 0.4544,-1.28774 0.6759,-1.93322 0.093,-0.23488 0.3616,-0.40757 0.6243,-0.35915 0.4625,0.0977 0.8994,0.28056 1.3482,0.42271 1.6468,0.5523 3.2886,1.11984 4.9522,1.6242 1.1446,0.34211 2.3136,0.60854 3.4974,0.78909 1.0788,0.16452 2.1743,0.26637 3.267,0.20051 0.5872,-0.0295 1.1726,-0.0941 1.7513,-0.19534 0.9316,-0.16256 1.8514,-0.39837 2.7322,-0.73535 0.9066,-0.33499 1.7754,-0.7561 2.6489,-1.16272 0.3654,-0.11548 0.7723,-0.0795 1.1198,0.0744 1.4344,0.50469 2.8618,1.02958 4.3109,1.49397 0.9298,0.26882 1.8941,0.40901 2.8597,0.48731 0.93,0.0735 1.8643,0.0513 2.7957,0.0176 1.3602,-0.0672 2.7054,-0.35266 3.9812,-0.80926 0.9182,-0.32372 1.7985,-0.74248 2.6386,-1.2237 1.1999,-0.68927 2.3334,-1.49229 3.3429,-2.42465 0.7022,-0.64143 1.3581,-1.33121 1.9534,-2.06654 0.483,-0.60649 0.9256,-1.24221 1.3374,-1.8955 0.4992,-0.81118 0.9057,-1.67232 1.2475,-2.5554 0.5441,-1.34321 1.0505,-2.70089 1.604,-4.04058 0.2331,-0.57141 0.4725,-1.16236 0.9162,-1.61643 0.5331,-0.56308 1.2183,-0.99086 1.972,-1.22215 0.9509,-0.30038 2.0006,-0.32353 2.9579,-0.0357 0.582,0.17809 1.1268,0.47994 1.5586,0.89865 0.3651,0.34119 0.6447,0.76414 0.8305,1.21957 0.2115,0.53448 0.3017,1.11912 0.2175,1.68775 -0.068,0.47517 -0.2459,0.93773 -0.5297,1.33274 -0.2855,0.38063 -0.6535,0.71636 -1.1012,0.91105 -0.5434,0.24219 -1.1904,0.31777 -1.757,0.10387 -0.505,-0.17745 -0.9442,-0.54939 -1.1477,-1.03404 -0.1486,-0.35398 -0.156,-0.78257 0.05,-1.11725 0.1422,-0.23287 0.4602,-0.35928 0.7276,-0.2651 0.2655,0.0764 0.4596,0.27967 0.6811,0.42891 0.2191,0.17314 0.488,0.33303 0.7834,0.30076 0.3788,-0.0421 0.7063,-0.31417 0.8346,-0.65629 0.2425,-0.56405 0.1533,-1.22919 -0.1669,-1.7477 -0.3616,-0.59341 -1.0147,-1.00047 -1.7157,-1.10949 -0.5074,-0.0888 -1.0364,-0.0482 -1.525,0.10956 -0.5002,0.15678 -0.9608,0.43402 -1.3229,0.80253 -0.4837,0.498 -0.807,1.13156 -0.9508,1.79782 -0.1227,0.57487 -0.1306,1.1765 0.016,1.74822 0.1553,0.62895 0.4868,1.21377 0.9369,1.69137 0.7653,0.80326 1.8185,1.34613 2.9362,1.51412 0.9906,0.1571 2.0286,-0.0171 2.9146,-0.46923 0.9166,-0.46556 1.6737,-1.20526 2.173,-2.07842 0.4028,-0.69813 0.6422,-1.48127 0.7069,-2.27738 0.074,-0.91772 -0.08,-1.85409 -0.4609,-2.69906 -0.2895,-0.64865 -0.6896,-1.25 -1.1772,-1.77664 -0.4767,-0.52225 -1.0496,-0.96129 -1.6805,-1.29811 -0.4274,-0.22589 -0.8824,-0.40333 -1.3534,-0.52452 -0.5238,-0.13537 -1.0681,-0.19235 -1.6098,-0.18655 -0.7948,0.007 -1.5848,0.15434 -2.3332,0.41031 -0.8209,0.26985 -1.5789,0.6911 -2.2841,1.17357 l -0.4764,0.31833 c -0.3978,-1.05669 -0.7797,-2.12918 -1.3705,-3.10368 -0.6316,-1.08215 -1.3968,-2.09462 -2.3016,-2.97967 -0.989,-0.98397 -2.132,-1.82922 -3.3952,-2.4598 -0.7397,-0.36397 -1.5209,-0.64916 -2.3254,-0.84749 -1.0557,-0.26422 -2.1517,-0.37958 -3.2417,-0.33383 -0.639,0.0232 -1.2756,0.10348 -1.8986,0.2434 -0.8135,0.18359 -1.6082,0.45801 -2.3394,0.85059 -0.8504,0.45482 -1.6256,1.03996 -2.2939,1.72083 -0.5606,0.57079 -1.0505,1.20677 -1.4542,1.8898 -0.3322,0.57297 -0.6055,1.18115 -0.7679,1.82005 -0.2305,0.85748 -0.2586,1.76034 -0.1261,2.63498 0.1948,1.23884 0.7275,2.4379 1.5798,3.38894 0.4447,0.49299 0.9881,0.89797 1.5756,1.2206 0.4561,0.23286 0.9411,0.42346 1.4521,0.50591 0.4801,0.069 0.9803,0.0628 1.4439,-0.0879 0.6561,-0.20065 1.2472,-0.61964 1.6076,-1.18959 0.2221,-0.33877 0.2684,-0.78605 0.086,-1.15032 -0.1819,-0.36632 -0.571,-0.57744 -0.9467,-0.72347 -0.7669,-0.31708 -1.5996,-0.48088 -2.3286,-0.88315 -0.3079,-0.14675 -0.5061,-0.43009 -0.6924,-0.6966 -0.2366,-0.35849 -0.3617,-0.77567 -0.4181,-1.19424 -0.091,-0.75139 0.05,-1.52492 0.3943,-2.204 0.3867,-0.77543 0.986,-1.44106 1.68,-1.97611 0.8068,-0.6127 1.7598,-1.04484 2.7647,-1.24953 0.94,-0.19982 1.9223,-0.19434 2.8639,-0.007 0.8456,0.16424 1.6547,0.46515 2.4412,0.80099 0.3646,0.15553 0.7297,0.30943 1.0955,0.4625 0.2417,0.11258 0.2895,0.49423 0.061,0.64285 -0.501,0.19379 -1.0226,0.35381 -1.4738,0.64751 -0.62,0.37658 -1.1489,0.89449 -1.5193,1.50482 -0.3108,0.53172 -0.4967,1.1423 -0.4656,1.75596 0.045,0.82574 0.4671,1.645 1.1798,2.11874 0.3993,0.26551 0.888,0.43921 1.3782,0.38395 0.39,-0.0339 0.7784,-0.21325 1.0051,-0.52865 0.2039,-0.27047 0.2701,-0.63615 0.1535,-0.95343 -0.096,-0.26045 -0.2748,-0.48253 -0.4207,-0.71778 -0.1691,-0.24707 -0.3478,-0.53404 -0.264,-0.84233 0.079,-0.37013 0.3952,-0.67477 0.7741,-0.76429 0.3809,-0.093 0.7785,-0.0276 1.1555,0.0506 0.5484,0.1285 1.0449,0.43451 1.4133,0.84491 0.264,0.31674 0.4586,0.68212 0.5995,1.06402 0.2119,0.56568 0.3308,1.15951 0.4129,1.75441 0.084,0.61099 0.11,1.22874 0.079,1.84433 -0.035,0.71537 -0.1351,1.42884 -0.3033,2.12649 -0.2345,0.95684 -0.6192,1.87691 -1.1126,2.73627 -0.3163,0.55066 -0.6906,1.06941 -1.0966,1.56166 -0.4998,0.60512 -1.0593,1.1634 -1.6676,1.6676 -0.8687,0.72473 -1.8189,1.35077 -2.7456,2.00297 -0.1265,0.24137 -0.5421,0.0318 -0.417,-0.21239 0,-0.33797 0.071,-0.67271 0.055,-1.0113 0.01,-0.76188 -0.067,-1.5305 -0.292,-2.26343 -0.2312,-0.79103 -0.6773,-1.51793 -1.264,-2.11202 -0.5304,-0.54042 -1.1804,-0.96567 -1.882,-1.27124 -0.4715,-0.19974 -0.9702,-0.3407 -1.4806,-0.40876 -0.5823,-0.0698 -1.1795,-0.0617 -1.7513,0.0734 -0.6924,0.15709 -1.3463,0.47676 -1.8784,0.93328 -0.4896,0.40606 -0.8884,0.92174 -1.1121,1.50843 -0.3193,0.811 -0.213,1.77095 0.3034,2.48512 0.2606,0.37737 0.66,0.68554 1.1312,0.76533 0.2767,0.0483 0.5723,0.003 0.8097,-0.14521 0.2716,-0.15908 0.4766,-0.41639 0.5783,-0.7059 0.1295,-0.35789 0.2293,-0.72575 0.3679,-1.08055 0.1528,-0.32428 0.542,-0.51517 0.9044,-0.46302 0.3366,0.0316 0.6623,0.15036 0.9353,0.34313 0.4313,0.29555 0.7479,0.73361 0.9173,1.21491 0.3173,0.87832 0.231,1.8685 -0.167,2.7094 -0.3103,0.6451 -0.8113,1.20614 -1.4329,1.58956 -0.5218,0.32042 -1.1253,0.49592 -1.7328,0.5886 -0.5944,0.0833 -1.1972,0.10979 -1.7967,0.0708 -0.7761,-0.0442 -1.5451,-0.1767 -2.2971,-0.36483 -0.943,-0.23582 -1.8554,-0.56855 -2.7771,-0.86972 -0.2551,-0.0856 -0.5541,-0.14692 -0.7012,-0.39067 -0.1613,-0.21461 -0.1066,-0.48716 -0.073,-0.73019 0.1059,-0.86012 0.2017,-1.72873 0.1246,-2.59519 -0.085,-0.90199 -0.2805,-1.79634 -0.6119,-2.6448 -0.3945,-1.06219 -1.0121,-2.03253 -1.7089,-2.93367 -0.5951,-0.76635 -1.2445,-1.49202 -1.926,-2.18798 -0.6126,-0.62103 -1.2675,-1.20267 -1.9348,-1.76837 -0.8533,-0.7193 -1.7532,-1.38634 -2.6758,-2.02054 -1.0414,-0.70416 -2.113,-1.36597 -3.2091,-1.988 -1.4191,-0.80566 -2.8765,-1.54827 -4.3641,-2.22932 -1.966,-0.90906 -3.9865,-1.70827 -6.0466,-2.39675 -1.3376,-0.45658 -2.6914,-0.86957 -4.0561,-1.24385 -1.3352,-0.36534 -2.6822,-0.6904 -4.039,-0.97204 -2.1257,-0.44504 -4.2754,-0.78026 -6.4369,-1.01441 -1.0756,-0.11698 -2.1545,-0.2045 -3.2349,-0.26716 -0.7798,-0.0459 -1.56,-0.0866 -2.3409,-0.10956 -2.4197,-0.0573 -4.8402,0.004 -7.2601,0.0181 -0.4702,0.007 -0.9428,0.0137 -1.4092,-0.0548 -0.892,-0.11315 -1.7622,-0.33922 -2.6396,-0.52503 -1.5569,-0.34119 -3.1111,-0.69507 -4.6736,-1.01234 -1.7452,-0.36291 -3.5099,-0.63231 -5.2808,-0.84801 -1.5472,-0.18966 -3.1031,-0.3134 -4.6613,-0.37827 -1.4873,-0.0542 -2.9771,-0.0609 -4.4638,0.0129 -0.9147,0.0487 -1.829,0.11243 -2.7399,0.20722 -1.0763,0.11713 -2.1457,0.28859 -3.208,0.49196 -1.1824,0.22797 -2.3525,0.51537 -3.5016,0.86816 -1.0104,0.31667 -2.0086,0.67324 -2.9823,1.08366 -1.5149,0.63306 -2.969,1.3953 -4.3708,2.235 -0.9734,0.58268 -1.9179,1.20854 -2.8696,1.82315 -0.2601,0.1218 -0.609,-0.0102 -0.7146,-0.26975 -0.5607,-0.89763 -1.127,-1.79958 -1.8392,-2.59519 -0.8106,-0.93333 -1.7656,-1.75002 -2.8267,-2.40968 -0.7643,-0.46979 -1.5876,-0.85451 -2.4541,-1.11414 -0.5466,-0.17211 -1.1104,-0.29338 -1.6795,-0.37155 -0.686,-0.0942 -1.3801,-0.11969 -2.0722,-0.0961 z m 33.784,3.50004 0.04,0.004 c 2.0917,0.14305 4.1855,0.26727 6.2736,0.45423 1.1272,0.10513 2.2487,0.25907 3.3719,0.3974 0.2523,0.0615 0.5353,-0.005 0.7674,0.12867 0.2567,0.13038 0.078,0.46922 -0.1587,0.50695 -0.3002,0.0703 -0.6103,0.10224 -0.9152,0.15296 -0.3735,0.0588 -0.7586,0.0663 -1.1301,-0.006 -1.1389,-0.17851 -2.2641,-0.42749 -3.3942,-0.64958 -1.632,-0.32884 -3.2638,-0.65767 -4.8958,-0.9865 z m 27.0495,2.18385 h 5e-4 5e-4 c 1.8138,0.11133 3.6291,0.20749 5.4395,0.3638 1.1562,0.0966 2.3083,0.23398 3.4582,0.38396 1.8861,0.25961 3.7648,0.58283 5.6187,1.00976 1.7736,0.40479 3.5253,0.89503 5.2591,1.43608 1.7446,0.54789 3.4669,1.16134 5.1599,1.8433 0.8541,0.34472 1.7009,0.7081 2.5368,1.09192 1.0871,0.49953 2.1529,1.0416 3.1941,1.62471 0.6434,0.35851 1.272,0.74115 1.8945,1.13223 1.101,0.70431 2.1669,1.46241 3.1698,2.29237 0.7225,0.59638 1.4116,1.22921 2.0723,1.88877 0.8831,0.88538 1.7074,1.83341 2.3828,2.87735 0.4191,0.65766 0.7546,1.36733 0.9617,2.11408 0.2011,0.70129 0.2685,1.43265 0.2542,2.15852 0,0.24912 0.033,0.51311 -0.067,0.74931 -0.1054,0.20471 -0.3707,0.3088 -0.5953,0.23875 -0.3568,-0.1199 -0.6739,-0.32264 -1.0092,-0.48679 -2.619,-1.36055 -5.2322,-2.73205 -7.8393,-4.11397 -5.768,-3.04722 -11.5242,-6.11501 -17.2987,-9.15086 -1.5152,-0.80071 -3.0352,-1.59321 -4.5667,-2.36471 -2.0501,-1.03807 -4.1192,-2.04124 -6.2001,-3.02049 -1.4169,-0.66679 -2.8355,-1.33022 -4.253,-1.99574 0.1341,-0.0568 0.2811,-0.0786 0.4269,-0.0724 z m -8.8651,0.91209 c 0.075,0.013 0.1512,0.0262 0.2268,0.0393 v -5.1e-4 c 0.5616,0.11242 1.1004,0.3068 1.6464,0.47232 1.2001,0.38262 2.3926,0.78777 3.5683,1.23558 1.3013,0.48969 2.5864,1.01858 3.8721,1.54513 0.9363,0.3839 1.8674,0.77987 2.7962,1.18029 1.2852,0.5599 2.5666,1.12758 3.8318,1.72857 1.2337,0.57941 2.4515,1.19238 3.6365,1.85984 0.7501,0.42352 1.4938,0.86239 2.1756,1.38441 1.0144,0.77058 1.9326,1.66162 2.7027,2.66237 0.6688,0.86656 1.2347,1.80801 1.6769,2.80086 0.3314,0.75234 0.5933,1.5306 0.8568,2.30684 0.1514,0.24554 -0.054,0.61028 -0.3602,0.58136 -0.2728,-0.0574 -0.4805,-0.26827 -0.7271,-0.38809 -1.1353,-0.68651 -2.2541,-1.3986 -3.3827,-2.09496 -3.7495,-2.32997 -7.4993,-4.65978 -11.2536,-6.98252 -1.9221,-1.18208 -3.8621,-2.33956 -5.857,-3.40445 -1.3277,-0.71401 -2.6923,-1.36045 -4.0644,-1.99057 -1.3509,-0.61715 -2.71,-1.21809 -4.0643,-1.82832 -0.231,-0.0532 -0.6226,-0.21013 -0.492,-0.50022 0.1213,-0.19203 0.3741,-0.22734 0.585,-0.26097 0.8727,-0.13274 1.741,-0.31168 2.6262,-0.34623 z m 5.9138,9.05061 v 0 c 1.7591,1.06315 3.5182,2.12632 5.2772,3.18947 2.9635,1.77195 5.9201,3.55455 8.9029,5.29632 0.796,0.47028 1.6029,0.92391 2.4107,1.37511 1.317,0.73343 2.6442,1.44903 3.9672,2.17247 0.2854,0.12246 0.5367,0.37421 0.5586,0.68678 0.031,0.25986 -0.096,0.50373 -0.1576,0.75086 -0.3124,1.00546 -0.7067,1.99351 -1.262,2.89905 -0.5173,0.85991 -1.1562,1.65338 -1.8996,2.34249 -0.5918,0.54032 -1.2351,1.03353 -1.9461,1.42059 -0.7277,0.39784 -1.51,0.70002 -2.3162,0.91312 -0.4086,0.0994 -0.8231,0.17872 -1.2423,0.22273 -1.1433,0.12701 -2.3115,0.0237 -3.4173,-0.28061 -0.7731,-0.22405 -1.5106,-0.56584 -2.1684,-1.01751 -0.7044,-0.4911 -1.3094,-1.11611 -1.7528,-1.83813 -0.2622,-0.43596 -0.4754,-0.90078 -0.6098,-1.38854 -0.1498,-0.52116 -0.2114,-1.06623 -0.1721,-1.60611 0.056,-0.64306 0.2417,-1.2854 0.6,-1.83451 0.3184,-0.49279 0.8052,-0.90812 1.3978,-1.05317 0.3197,-0.08 0.6536,-0.0982 0.9824,-0.0765 0.2648,0.0536 0.4694,0.29087 0.4919,0.54881 0.058,0.36727 0.021,0.75654 0.1861,1.10174 0.2326,0.34617 0.6657,0.52916 1.0847,0.5333 0.5681,0.0289 1.1276,-0.20136 1.5441,-0.56637 0.3319,-0.3025 0.5727,-0.69749 0.6764,-1.12707 0.094,-0.34846 0.1155,-0.71399 0.077,-1.07177 -0.058,-0.51756 -0.2414,-1.02251 -0.5338,-1.46037 -0.3765,-0.56719 -0.9279,-1.01379 -1.5415,-1.32809 -0.8156,-0.41793 -1.7574,-0.59177 -2.6763,-0.51986 -0.7066,0.0484 -1.4,0.23882 -2.0377,0.53433 -0.3441,0.14938 -0.6591,0.35067 -0.9782,0.54312 -0.223,0.13112 -0.5877,0.0605 -0.6604,-0.20515 -0.091,-0.26351 -0.077,-0.54591 -0.1183,-0.81804 -0.1639,-1.55391 -0.4536,-3.10597 -1.017,-4.57492 -0.3368,-0.89905 -0.7664,-1.76285 -1.2212,-2.61121 -0.1414,-0.26958 -0.2881,-0.53627 -0.432,-0.8046 -0.034,-0.11139 -0.069,-0.24306 0,-0.34778 z m 20.9972,2.4846 c 1.3979,0.72396 2.7961,1.448 4.1941,2.17196 5.4506,2.80273 10.9012,5.60508 16.3519,8.40776 0.2922,-0.0368 0.5282,0.33648 0.3504,0.56689 -0.7436,0.30707 -1.5125,0.56457 -2.3089,0.709 -1.2056,0.22751 -2.4477,0.24933 -3.6665,0.1142 -1.2879,-0.14609 -2.5503,-0.4558 -3.7821,-0.84181 -0.7877,-0.25155 -1.5667,-0.53 -2.3431,-0.81235 -1.2109,-0.44438 -2.392,-0.95977 -3.5682,-1.4826 -0.6127,-0.27765 -1.225,-0.55537 -1.8376,-0.83302 -0.3531,-0.21774 -0.5781,-0.58615 -0.6775,-0.97255 -0.3069,-1.05897 -0.5869,-2.12704 -0.9715,-3.16311 -0.4488,-1.21178 -1.0786,-2.34916 -1.6335,-3.51659 -0.047,-0.11225 -0.086,-0.22829 -0.1075,-0.34778 z" /><g
         id="g27"
         style="fill:#b80000;fill-opacity:1"><path
           style="fill:#b80000;fill-opacity:1;stroke-width:0.610543"
           d="m 990.74345,675.72773 c -0.19019,0.15193 -0.16107,0.43707 -0.0284,0.61547 0.1462,0.20812 0.33434,0.38422 0.48937,0.58601 0.80701,0.95421 1.63112,1.89708 2.37247,2.9006 0.50929,0.69187 0.96139,1.42334 1.34824,2.18539 0.44061,0.87788 0.79324,1.79365 1.11104,2.7187 0.43952,1.31022 0.74893,2.65766 0.99735,4.01268 0.0906,0.48924 0.15834,0.98296 0.28216,1.46606 0.10108,0.20919 -0.12223,0.55674 -0.36277,0.36845 -0.21044,-0.13348 -0.24208,-0.39617 -0.3328,-0.60358 -0.18225,-0.37108 -0.34128,-0.75245 -0.52296,-1.12396 -0.69928,-1.46807 -1.40172,-2.93757 -2.22364,-4.34651 -0.72417,-1.235 -1.52045,-2.43289 -2.42724,-3.5512 -0.63855,-0.79358 -1.35869,-1.5263 -2.15181,-2.17765 -0.22171,-0.1837 -0.44358,-0.36776 -0.66921,-0.54673 -0.1583,-0.12059 -0.41962,-0.2111 -0.57929,-0.0429 -0.16555,0.17259 -0.0632,0.42094 0.0181,0.60772 0.43237,1.05946 0.87666,2.11436 1.29914,3.17758 0.4077,1.00253 0.79542,2.01267 1.156,3.03186 0.24486,0.69059 0.4749,1.38599 0.69195,2.08514 0.35116,1.13545 0.66902,2.2806 0.95085,3.4339 0.41688,1.73292 0.70799,3.49058 1.02577,5.24206 0.10387,0.21124 0.0395,0.59848 -0.2651,0.58963 -0.30316,-0.0757 -0.37367,-0.41068 -0.50281,-0.64389 -0.91549,-1.86273 -1.84918,-3.71702 -2.74815,-5.58726 -0.70196,-1.4587 -1.35327,-2.9405 -1.93632,-4.44727 -0.48115,-1.23161 -0.92655,-2.47576 -1.372,-3.71967 -0.0637,-0.24906 -0.18145,-0.61528 -0.51419,-0.58601 -0.1967,0.0564 -0.30655,0.25542 -0.31832,0.44338 -0.0401,0.6652 -0.0684,1.33111 -0.0899,1.9973 -0.0258,0.97225 -0.004,1.94711 0.1049,2.91455 0.1338,1.21153 0.38383,2.41045 0.74466,3.57807 0.22451,0.75508 0.48404,1.49988 0.73691,2.24638 0.0814,0.2064 0.24293,0.41129 0.1912,0.64337 -0.0751,0.25381 -0.44785,0.17175 -0.55345,-0.0186 -0.43872,-0.526 -0.88679,-1.04768 -1.25471,-1.62368 -0.42838,-0.64787 -0.77421,-1.34624 -1.04024,-2.07016 -0.25281,-0.68174 -0.41569,-1.3919 -0.51522,-2.10891 -0.31608,-2.02449 -0.61926,-4.05084 -0.96066,-6.07146 -0.14557,-0.75438 -0.33973,-1.51112 -0.71366,-2.19367 -0.22596,-0.4264 -0.51556,-0.81667 -0.78289,-1.21905 -0.13414,-0.19995 -0.44903,-0.35967 -0.66508,-0.17725 -0.20091,0.1414 -0.24288,0.39281 -0.32401,0.60358 -0.25864,0.73228 -0.53316,1.45943 -0.77308,2.1978 -0.349,1.03799 -0.66386,2.08832 -0.88367,3.1595 -0.19909,0.94358 -0.34132,1.89986 -0.40101,2.86132 -0.0608,1.03883 0.005,2.08559 0.21705,3.10627 0.19468,0.96243 0.51334,1.90007 0.92965,2.79415 0.51228,1.06607 1.16793,2.06993 1.96578,2.95899 0.48534,0.54869 1.02302,1.05241 1.57613,1.53686 0.84564,0.72969 1.73057,1.41538 2.62206,2.09186 1.74602,1.32204 3.51778,2.61213 5.26841,3.92844 1.03203,0.77547 2.06429,1.55327 3.02824,2.40761 0.83303,0.72398 1.61836,1.49658 2.41329,2.25878 0.17375,0.17642 0.37329,0.37746 0.64079,0.39377 0.31213,0.0352 0.5661,-0.19159 0.73897,-0.41548 0.588,-0.68595 1.10058,-1.42727 1.63039,-2.15491 0.47239,-0.67822 0.93777,-1.36169 1.36737,-2.06602 0.7865,-1.3197 1.4633,-2.70426 1.9549,-4.1522 0.3716,-1.09821 0.6347,-2.23313 0.7488,-3.38377 0.1012,-1.08854 0.082,-2.18671 -0.048,-3.27216 -0.093,-0.78043 -0.2291,-1.55672 -0.431,-2.3182 -0.18,-0.69748 -0.4028,-1.38415 -0.6294,-2.06861 -0.2104,-0.59952 -0.4485,-1.1893 -0.7085,-1.77043 -0.276,-0.61183 -0.5838,-1.21014 -0.9172,-1.79473 -0.396,-0.69557 -0.84333,-1.36339 -1.31572,-2.01279 -0.46986,-0.63645 -0.97123,-1.25144 -1.5043,-1.83968 -0.57946,-0.62922 -1.18999,-1.2315 -1.83658,-1.79679 -0.98827,-0.8787 -2.07165,-1.66093 -3.24166,-2.30064 -0.52429,-0.29116 -1.06154,-0.56009 -1.60301,-0.8201 -0.14833,-0.0613 -0.30895,-0.13143 -0.47387,-0.11731 z"
           id="path27" /><path
           style="fill:#b80000;fill-opacity:1;stroke-width:0.610543"
           d="m 969.02643,664.30879 c -0.95749,-0.009 -1.91468,0.0473 -2.86804,0.12919 -0.66568,0.0585 -1.32797,0.16396 -1.97043,0.34417 -0.97246,0.25971 -1.90179,0.65432 -2.78742,1.11776 -1.05897,0.55744 -2.03338,1.2595 -2.90267,2.06551 -0.76146,0.70324 -1.44567,1.48639 -2.019,2.34042 -0.43383,0.63812 -0.79591,1.3175 -1.15858,1.99471 -0.17033,0.31192 -0.3223,0.63353 -0.50488,0.93896 -1.8273,4.97831 -4.03037,9.71408 -6.58151,14.35571 -0.0588,0.24702 0.10698,0.49581 0.32711,0.61185 0.32015,0.15218 0.65992,0.26266 0.99167,0.38913 1.08166,0.399 2.17931,0.75701 3.28714,1.0821 0.95995,0.27373 1.92981,0.51553 2.90938,0.71469 0.83218,0.17075 1.67086,0.31381 2.51406,0.42374 0.99523,0.13032 1.99607,0.229 3.00034,0.26045 1.32756,0.0402 2.66099,-0.0163 3.97288,-0.22376 0.72035,-0.11216 1.43161,-0.27553 2.13062,-0.47697 0.62139,-0.17899 1.23176,-0.39352 1.82831,-0.63872 0.65081,-0.27018 1.28082,-0.5873 1.88464,-0.94465 0.80761,-0.48352 1.57068,-1.03917 2.25929,-1.67173 0.45584,-0.41725 0.87499,-0.87017 1.26039,-1.34875 0.69583,-0.85565 1.29527,-1.78116 1.83348,-2.73575 0.44399,-0.788 0.85598,-1.59219 1.25884,-2.40037 0.38712,-0.77936 0.7549,-1.56848 1.06763,-2.37867 0.39021,-0.98843 0.70901,-2.00438 0.92553,-3.04167 0.11799,-0.55933 0.22454,-1.12097 0.3359,-1.68156 0.0282,-0.20785 -0.11609,-0.45416 -0.34675,-0.47439 -0.26954,0.0123 -0.43987,0.25344 -0.59687,0.43564 -1.25655,1.45612 -2.50716,2.91717 -3.79098,4.35115 -0.65299,0.72828 -1.33053,1.43601 -2.0345,2.11874 -1.06818,1.04657 -2.19556,2.03479 -3.34088,3.00188 -0.46524,0.39728 -0.93502,0.78961 -1.4025,1.18442 -0.12687,0.17159 -0.41615,0.42861 -0.61547,0.20464 -0.11369,-0.29701 0.24442,-0.48024 0.38499,-0.69815 0.28754,-0.3475 0.55635,-0.70869 0.83975,-1.05936 0.6633,-0.83758 1.30656,-1.69018 1.94923,-2.54248 0.78538,-1.06772 1.53916,-2.15963 2.18746,-3.31091 0.51722,-0.88848 0.95891,-1.81513 1.38183,-2.74816 0.14987,-0.32748 0.29973,-0.65482 0.44959,-0.98236 0.0901,-0.23226 -0.14749,-0.52531 -0.40515,-0.47491 -0.23756,0.0919 -0.42197,0.27515 -0.61236,0.4346 -0.63968,0.53507 -1.27231,1.07873 -1.92392,1.60042 -0.69363,0.56335 -1.39892,1.11281 -2.11201,1.65313 -0.42133,0.32215 -0.85441,0.63029 -1.28829,0.93637 -0.74448,0.52027 -1.50161,1.02327 -2.27325,1.50534 -0.6015,0.3783 -1.22049,0.73085 -1.8433,1.07538 -1.18241,0.64555 -2.4007,1.22654 -3.6282,1.78749 -0.32745,0.15669 -0.66506,0.29531 -0.98599,0.46406 -0.16602,0.0927 -0.36186,0.22216 -0.5612,0.14469 -0.28753,-0.10838 -0.0985,-0.4612 0.0956,-0.56741 1.19927,-0.91898 2.3855,-1.85373 3.56412,-2.79724 1.00862,-0.8127 2.01874,-1.62429 2.9869,-2.48202 1.28766,-1.12845 2.53121,-2.30628 3.68608,-3.56206 0.46272,-0.50369 0.91101,-1.02016 1.34617,-1.54616 0.15259,-0.17397 0.3216,-0.38537 0.24495,-0.6289 -0.0368,-0.19675 -0.24539,-0.30571 -0.4408,-0.29094 -0.30557,0.006 -0.59955,0.10679 -0.89607,0.17002 -1.12074,0.26208 -2.23258,0.57387 -3.29541,1.00924 -0.785,0.30924 -1.54636,0.67371 -2.28151,1.08107 -0.70353,0.38769 -1.37408,0.8282 -2.02469,1.29346 -0.3377,0.23983 -0.67755,0.47749 -1.0082,0.72606 -0.20181,0.15493 -0.40889,0.40027 -0.69298,0.36638 -0.24538,-0.0647 -0.30691,-0.39908 -0.15193,-0.57412 0.27855,-0.45543 0.59586,-0.88715 0.8971,-1.3286 0.31138,-0.43674 0.623,-0.87474 0.96325,-1.29088 0.43795,-0.46761 0.8883,-0.93269 1.4242,-1.29811 1.30129,-0.94489 2.7086,-1.74034 4.11086,-2.53525 1.47478,-0.84135 2.95412,-1.67504 4.43281,-2.50992 0.22172,-0.088 0.48264,-0.27091 0.44803,-0.53279 -0.049,-0.23689 -0.33349,-0.31674 -0.55242,-0.33486 -1.09039,-0.11039 -2.18509,-0.19289 -3.28197,-0.19999 z"
           id="path24" /><path
           style="fill:#b80000;fill-opacity:1;stroke-width:0.610543"
           d="m 984.87714,659.61657 c -0.57846,0.0957 -1.16784,0.3103 -1.56321,0.74569 -0.19684,0.21774 -0.33135,0.47812 -0.46819,0.73277 -0.0369,0.22722 -0.21854,0.44512 -0.4656,0.47078 -0.2647,-0.01 -0.52531,0.0594 -0.78187,0.11523 -0.68201,0.18497 -1.33298,0.53835 -1.77405,1.08263 -0.55013,0.64192 -0.74869,1.53263 -0.56534,2.34197 0.12036,0.55442 0.38217,1.08265 0.7736,1.50689 0.31807,0.36597 0.73224,0.6399 1.17047,0.85576 0.23481,0.13632 0.49915,0.21931 0.72812,0.3638 0.20209,0.13415 0.29792,0.35386 0.40669,0.55552 0.26726,0.47809 0.58468,0.96153 1.07539,1.2516 0.52513,0.32236 1.17422,0.4323 1.78645,0.34624 0.54465,-0.0757 1.0735,-0.30073 1.47588,-0.66611 0.29721,-0.28125 0.51491,-0.62801 0.7183,-0.97514 0.1191,-0.25911 0.40188,-0.40974 0.68265,-0.45217 0.48539,-0.12247 0.94657,-0.36467 1.28209,-0.72863 0.24555,-0.27244 0.41405,-0.61267 0.45527,-0.97307 0.0631,-0.49123 -0.11647,-0.96853 -0.1726,-1.45211 -0.0527,-0.36118 0.006,-0.72507 -0.001,-1.08779 0.003,-0.44244 -0.0467,-0.90244 -0.27027,-1.29656 -0.17104,-0.30331 -0.4558,-0.5322 -0.77153,-0.6873 -0.33765,-0.18924 -0.68846,-0.35538 -1.03611,-0.52658 -0.45235,-0.27903 -0.73418,-0.74622 -1.18339,-1.02939 -0.43798,-0.29347 -0.95752,-0.5216 -1.50172,-0.49403 z"
           id="path22" /><path
           style="fill:#b80000;fill-opacity:1;stroke-width:0.610543"
           d="m 1007.7662,657.71539 c -1.0674,-0.0711 -2.14,-0.0426 -3.2055,0.0444 -1.0367,0.0849 -2.0687,0.22132 -3.0934,0.3948 -1.50821,0.25751 -2.99543,0.62027 -4.4586,1.05575 -0.47711,0.13985 -0.95431,0.27978 -1.43144,0.41962 -0.22403,0.0981 -0.31756,0.42226 -0.14572,0.60358 0.18321,0.15513 0.44114,0.17681 0.67437,0.19017 1.49797,0.11659 2.99841,0.20966 4.49119,0.38034 0.8264,0.12541 1.6439,0.31866 2.4247,0.61081 0.9689,0.35688 1.8754,0.85544 2.73,1.41904 0.7981,0.53562 1.5516,1.13042 2.2934,1.73581 -0.5945,0.038 -1.1869,-0.0517 -1.7812,-0.0527 -0.9944,-0.0413 -1.995,-0.0561 -2.9838,0.0698 -0.9859,0.11057 -1.9587,0.31774 -2.911,0.58549 -1.24002,0.3677 -2.42925,0.88135 -3.56566,1.4826 -0.22667,0.11367 -0.49822,0.20243 -0.6227,0.43615 -0.13494,0.22641 0.002,0.53745 0.26097,0.60926 0.27872,0.10186 0.58136,0.10372 0.87178,0.15555 1.70337,0.23994 3.40801,0.47312 5.10561,0.74931 1.5684,0.23721 3.1224,0.55804 4.6576,0.94723 0.9124,0.22464 1.8186,0.47341 2.7265,0.71417 1.0948,0.29497 2.1887,0.59245 3.2825,0.8909 -2.5033,0.0693 -5.0062,0.15763 -7.5107,0.17363 -1.5776,-0.0231 -3.1547,-0.092 -4.7279,-0.20877 -1.68525,-0.12944 -3.36844,-0.28475 -5.05135,-0.43977 -0.26076,-0.035 -0.58806,-0.11332 -0.79271,0.0966 -0.18002,0.21755 0.003,0.51164 0.22582,0.62218 0.26516,0.13905 0.51824,0.2975 0.7829,0.4377 1.05265,0.56955 2.14611,1.06505 3.25148,1.53117 0.81726,0.34145 1.64656,0.65589 2.48256,0.95188 1.3069,0.45666 2.6366,0.85259 3.9827,1.18701 0.6765,0.17011 1.3562,0.32833 2.0355,0.48783 0.1241,0.0401 0.254,0.0703 0.3643,0.14107 -0.2751,0.10815 -0.5772,0.0782 -0.8666,0.10542 -1.2776,0.0131 -2.5558,0.0487 -3.8333,0.0124 -1.0408,-0.0359 -2.0811,-0.11073 -3.1115,-0.25994 -1.33562,-0.18158 -2.65262,-0.48216 -3.93875,-0.87281 -0.76549,-0.22145 -1.52258,-0.46709 -2.28307,-0.70384 -0.23752,-0.0879 -0.52798,-0.23304 -0.77049,-0.0858 -0.22505,0.17774 -0.0842,0.49385 0.0961,0.65009 0.2305,0.20168 0.43776,0.42504 0.66094,0.63407 0.80734,0.78476 1.6494,1.54086 2.57348,2.19728 0.73581,0.54185 1.49904,1.05018 2.30167,1.49604 1.19772,0.69191 2.46172,1.27558 3.76822,1.74976 1.0077,0.35932 2.0399,0.65796 3.0918,0.87075 1.2981,0.27459 2.6205,0.44077 3.9481,0.49712 1.5217,0.0583 3.058,-0.007 4.5506,-0.31367 1.2498,-0.25703 2.4614,-0.67284 3.6127,-1.20561 0.7514,-0.34647 1.4738,-0.74978 2.1679,-1.19321 0.5228,-0.33393 1.0246,-0.69794 1.5105,-1.08004 0.9438,-0.7573 1.8149,-1.59723 2.6251,-2.48615 0.6941,-0.77074 1.3415,-1.58074 1.9317,-2.42828 0.456,-0.6447 0.8795,-1.30983 1.3048,-1.97352 0.1445,-0.23925 0.3312,-0.46915 0.3576,-0.75499 0.035,-0.27314 -0.079,-0.5412 -0.2759,-0.73536 -0.3323,-0.34916 -0.6982,-0.6669 -1.0485,-0.9989 -3.0181,-2.73715 -5.8841,-5.54179 -9.2889,-7.69514 -1.2491,-0.79501 -2.4979,-1.597 -3.8261,-2.26601 -0.9532,-0.49016 -1.9551,-0.89663 -2.9988,-1.16944 -0.8553,-0.22738 -1.7357,-0.36507 -2.6215,-0.4129 z"
           id="path21" /><path
           style="fill:#b80000;fill-opacity:1;stroke-width:0.610543"
           d="m 1008.3512,633.81504 5e-4,5.2e-4 c -0.3146,0.0846 -0.6291,0.1691 -0.9436,0.25373 h -5e-4 c -1.331,0.37415 -2.6571,0.7653 -3.9972,1.10846 -1.6944,0.4329 -3.3989,0.82903 -5.09894,1.24075 -1.21091,0.29098 -2.42205,0.58005 -3.6282,0.88884 -1.20864,0.32407 -2.3914,0.74458 -3.51193,1.29036 -0.67643,0.32538 -1.31774,0.71641 -1.92546,1.14928 -0.69039,0.49447 -1.3359,1.04609 -1.94149,1.63453 -0.85827,0.83033 -1.61704,1.75469 -2.26808,2.74453 -0.39266,0.59306 -0.7388,1.21339 -1.05575,1.84692 -0.53998,1.06721 -0.95891,2.18958 -1.27124,3.33778 -0.217,0.77728 -0.37782,1.56826 -0.48679,2.36626 -0.14804,1.01295 -0.20072,2.0366 -0.21497,3.05873 10e-4,0.27182 -0.0536,0.55816 0.0506,0.81804 0.10601,0.24869 0.42303,0.35451 0.66818,0.23254 0.22928,-0.0998 0.42087,-0.26249 0.62167,-0.40566 0.94479,-0.70814 1.74381,-1.60653 2.28358,-2.63911 0.30208,-0.56486 0.52182,-1.16522 0.74104,-1.7632 0.42466,-1.14671 0.82621,-2.30147 1.27951,-3.43803 0.21562,-0.53144 0.45039,-1.06091 0.78599,-1.53376 0.23839,-0.35285 0.53164,-0.66906 0.86042,-0.94568 0.23071,-0.19674 0.44793,-0.41124 0.68161,-0.60255 0.24032,-0.11901 0.56103,0.17357 0.37827,0.39843 -0.13204,0.25487 -0.35195,0.45838 -0.46974,0.7214 -0.35913,0.67792 -0.66706,1.38242 -0.88263,2.11563 -0.3043,1.02279 -0.45715,2.09893 -0.34313,3.16157 0.032,0.38515 0.10882,0.76443 0.18293,1.1436 0.0485,0.20553 0.21068,0.41568 0.44183,0.4377 0.21757,0.009 0.39251,-0.16091 0.48628,-0.33487 0.39212,-0.73011 0.76304,-1.47155 1.17719,-2.19056 0.71652,-1.22973 1.60456,-2.36666 2.63343,-3.3693 0.64055,-0.62728 1.33042,-1.2083 2.05879,-1.73892 0.79672,-0.584 1.64284,-1.10014 2.47323,-1.63762 0.16314,-0.0926 0.31395,0.16328 0.13695,0.24649 -0.21196,0.25715 -0.43603,0.50558 -0.62839,0.77722 -0.86697,1.13892 -1.6183,2.35438 -2.33474,3.58531 -0.66945,1.18368 -1.25555,2.41063 -1.76268,3.66696 -0.46977,1.15953 -0.85173,2.34933 -1.24747,3.53363 -0.0746,0.24694 -0.17701,0.48647 -0.23048,0.73898 -0.0433,0.21701 0.018,0.48849 0.24701,0.58601 0.29847,0.13344 0.58819,-0.0633 0.84801,-0.18707 0.49116,-0.25521 0.9755,-0.5237 1.45004,-0.80667 1.11201,-0.67141 2.14984,-1.45134 3.12694,-2.29443 0.9376,-0.80263 1.8243,-1.65937 2.67891,-2.54352 0.9065,-0.96176 1.7233,-1.99701 2.5611,-3.01377 0.1481,-0.1823 0.2963,-0.36494 0.4444,-0.54725 -0.306,1.31407 -0.5996,2.64016 -1.1245,3.89278 -0.3137,0.76877 -0.6948,1.51181 -1.1441,2.21537 -0.4106,0.63949 -0.8753,1.24753 -1.39112,1.81178 -0.65215,0.7096 -1.38913,1.3392 -2.10375,1.98851 -0.1927,0.18326 -0.52009,0.35192 -0.49041,0.65112 0.0348,0.25155 0.31859,0.35889 0.55139,0.30179 0.3361,-0.0276 0.66588,-0.10117 0.99839,-0.15348 1.286,-0.2238 2.5533,-0.56183 3.7595,-1.04955 1.1516,-0.45498 2.2442,-1.04361 3.2654,-1.72857 0.4192,-0.29135 0.8243,-0.60101 1.2071,-0.93586 0.4938,-0.43194 0.9543,-0.89976 1.37,-1.4025 0.3963,-0.47888 0.7505,-0.99044 1.0526,-1.52962 2.2695,-3.76259 1.7343,-8.46505 0.9318,-12.61215 -0.3028,-1.4026 -0.753,-2.77319 -1.2992,-4.10466 -0.1111,-0.23749 -0.3491,-0.46217 -0.6382,-0.43719 z"
           id="path11" /><path
           style="fill:#b80000;fill-opacity:1;stroke-width:0.610543"
           d="m 954.34567,632.06941 c -0.21444,0.25465 -0.24109,0.60496 -0.18655,0.91726 0.21738,1.80822 0.43323,3.61642 0.66559,5.42293 0.3227,2.5545 0.65715,5.10811 0.98495,7.66206 0.17856,1.14434 0.39726,2.28238 0.6134,3.42046 0.19828,0.93515 0.41155,1.86831 0.68162,2.78691 0.38159,1.29953 0.96375,2.54232 1.71307,3.68298 0.32414,0.48856 0.68279,0.95551 1.06712,1.40147 0.7785,0.87546 1.67268,1.65159 2.6355,2.33422 1.15996,0.81945 2.42603,1.49727 3.75739,2.02055 0.54256,0.2162 1.09745,0.4037 1.65726,0.57361 1.0352,0.31414 2.09551,0.55033 3.16828,0.70797 0.57241,0.0903 1.14741,0.16713 1.7229,0.23564 0.24198,0.0834 0.62218,0.0539 0.6599,-0.25063 0.0647,-0.34387 -0.34333,-0.43673 -0.57102,-0.58756 -1.20537,-0.64976 -2.40158,-1.31518 -3.60133,-1.97456 -0.71644,-0.40004 -1.43635,-0.79529 -2.14664,-1.20509 -0.6419,-0.42116 -1.27121,-0.86871 -1.80867,-1.41232 -0.67803,-0.66673 -1.21101,-1.45936 -1.64848,-2.28926 -0.54273,-1.06007 -0.8933,-2.19652 -1.27589,-3.31608 -0.0525,-0.24288 -0.22474,-0.47824 -0.18914,-0.72812 0.0963,-0.2361 0.47075,-0.27451 0.59996,-0.0429 0.17626,0.19033 0.33592,0.39423 0.52039,0.57774 0.85163,0.9173 1.70728,1.83437 2.64118,2.67529 0.53895,0.47909 1.11264,0.92236 1.72599,1.31 0.82463,0.53939 1.70525,0.9987 2.6231,1.37252 0.59014,0.23134 1.18827,0.44525 1.79627,0.6289 0.23723,0.0947 0.55529,0.0862 0.71468,-0.13487 0.15284,-0.26018 0.004,-0.55707 -0.0946,-0.80874 -0.38117,-0.98516 -0.7898,-1.961 -1.22163,-2.92643 -0.47777,-1.06056 -0.99284,-2.10606 -1.56942,-3.12023 -0.50306,-0.90532 -1.03402,-1.79642 -1.60093,-2.66598 -0.58935,-0.91045 -1.2137,-1.79871 -1.83142,-2.69131 -0.17069,-0.18828 -0.49775,-0.46111 -0.28783,-0.72296 0.2672,-0.16938 0.50177,0.11397 0.66817,0.28371 0.88788,0.85324 1.77651,1.70626 2.64532,2.57762 0.71853,0.71805 1.41277,1.45872 2.06396,2.23449 0.85384,1.00285 1.67993,2.02752 2.5001,3.05614 0.46229,0.58353 0.92471,1.16676 1.387,1.75028 0.16372,0.20504 0.55894,0.11096 0.61546,-0.13849 0.004,-0.26159 -0.0852,-0.51543 -0.16588,-0.76275 -0.41249,-1.23477 -0.81359,-2.47561 -1.3286,-3.67522 -0.5527,-1.2755 -1.17473,-2.52421 -1.87792,-3.72897 -0.53493,-0.90062 -1.11976,-1.77266 -1.73633,-2.6231 -0.48166,-0.67032 -0.98023,-1.32939 -1.47743,-1.98903 -0.15428,-0.22767 -0.34492,-0.42523 -0.52968,-0.6289 -0.1528,-0.1492 -0.0881,-0.4433 0.15606,-0.43563 0.25902,7e-5 0.45292,0.19155 0.65474,0.32143 1.01191,0.69311 2.02837,1.38207 2.99207,2.13733 0.94058,0.75038 1.81195,1.58322 2.57917,2.49959 0.51532,0.60133 0.96932,1.24886 1.39578,1.911 0.63416,0.98131 1.18875,2.00852 1.68258,3.06183 0.39269,0.81344 0.75924,1.63843 1.13482,2.45928 0.0393,0.24202 0.34475,0.42912 0.58084,0.31264 0.26628,-0.18409 0.21328,-0.53727 0.24236,-0.81339 0.0908,-1.44159 0.14716,-2.90105 -0.11937,-4.32945 -0.17464,-0.98392 -0.48279,-1.94475 -0.90175,-2.85719 -0.23125,-0.4987 -0.49134,-0.98524 -0.78393,-1.45314 -0.50787,-0.80467 -1.10082,-1.5574 -1.75235,-2.25878 -1.18249,-1.26079 -2.54932,-2.35861 -4.04265,-3.2613 -0.59619,-0.36152 -1.21676,-0.68532 -1.84278,-0.9958 -1.13652,-0.55053 -2.31794,-1.01183 -3.52537,-1.3963 -2.17009,-0.71874 -4.35698,-1.38988 -6.53758,-2.07791 l -6.43837,-2.01796 c -0.0502,-0.0119 -0.10122,-0.0275 -0.15348,-0.0155 z"
           id="path9" /></g></g></g></svg>
