  0
SECTION
  2
HEADER
  9
$ACADVER
  1
AC1014
  9
$HANDSEED
  5
FFFF
  9
$MEASUREMENT
 70
     1
  0
ENDSEC
  0
SECTION
  2
TABLES
  0
TABLE
  2
VPORT
  5
8
330
0
100
AcDbSymbolTable
 70
     4
  0
VPORT
  5
2E
330
8
100
AcDbSymbolTableRecord
100
AcDbViewportTableRecord
  2
*ACTIVE
 70
     0
 10
0.0
 20
0.0
 11
1.0
 21
1.0
 12
210.0
 22
148.5
 13
0.0
 23
0.0
 14
10.0
 24
10.0
 15
10.0
 25
10.0
 16
0.0
 26
0.0
 36
1.0
 17
0.0
 27
0.0
 37
0.0
 40
341.0
 41
1.24
 42
50.0
 43
0.0
 44
0.0
 50
0.0
 51
0.0
 71
     0
 72
   100
 73
     1
 74
     3
 75
     0
 76
     0
 77
     0
 78
     0
  0
ENDTAB
  0
TABLE
  2
LTYPE
  5
5
330
0
100
AcDbSymbolTable
 70
     1
  0
LTYPE
  5
14
330
5
100
AcDbSymbolTableRecord
100
AcDbLinetypeTableRecord
  2
BYBLOCK
 70
     0
  3

 72
    65
 73
     0
 40
0.0
  0
LTYPE
  5
15
330
5
100
AcDbSymbolTableRecord
100
AcDbLinetypeTableRecord
  2
BYLAYER
 70
     0
  3

 72
    65
 73
     0
 40
0.0
  0
LTYPE
  5
16
330
5
100
AcDbSymbolTableRecord
100
AcDbLinetypeTableRecord
  2
CONTINUOUS
 70
     0
  3
Solid line
 72
    65
 73
     0
 40
0.0
  0
ENDTAB
  0
TABLE
  2
LAYER
  5
2
100
AcDbSymbolTable
 70
2
  0
LAYER
  5
50
100
AcDbSymbolTableRecord
100
AcDbLayerTableRecord
  2
0
 70
0
  6
CONTINUOUS
  0
LAYER
  5
51
100
AcDbSymbolTableRecord
100
AcDbLayerTableRecord
  2
Ebene_1
 70
0
  6
CONTINUOUS
  0
ENDTAB
  0
TABLE
  2
STYLE
  5
3
330
0
100
AcDbSymbolTable
 70
     1
  0
STYLE
  5
11
330
3
100
AcDbSymbolTableRecord
100
AcDbTextStyleTableRecord
  2
STANDARD
 70
     0
 40
0.0
 41
1.0
 50
0.0
 71
     0
 42
2.5
  3
txt
  4

  0
ENDTAB
  0
TABLE
  2
VIEW
  5
6
330
0
100
AcDbSymbolTable
 70
     0
  0
ENDTAB
  0
TABLE
  2
UCS
  5
7
330
0
100
AcDbSymbolTable
 70
     0
  0
ENDTAB
  0
TABLE
  2
APPID
  5
9
330
0
100
AcDbSymbolTable
 70
     2
  0
APPID
  5
12
330
9
100
AcDbSymbolTableRecord
100
AcDbRegAppTableRecord
  2
ACAD
 70
     0
  0
ENDTAB
  0
TABLE
  2
DIMSTYLE
  5
A
330
0
100
AcDbSymbolTable
 70
     1
  0
DIMSTYLE
105
27
330
A
100
AcDbSymbolTableRecord
100
AcDbDimStyleTableRecord
  2
ISO-25
 70
     0
  3

  4

  5

  6

  7

 40
1.0
 41
2.5
 42
0.625
 43
3.75
 44
1.25
 45
0.0
 46
0.0
 47
0.0
 48
0.0
140
2.5
141
2.5
142
0.0
143
0.03937007874016
144
1.0
145
0.0
146
1.0
147
0.625
 71
     0
 72
     0
 73
     0
 74
     0
 75
     0
 76
     0
 77
     1
 78
     8
170
     0
171
     3
172
     1
173
     0
174
     0
175
     0
176
     0
177
     0
178
     0
270
     2
271
     2
272
     2
273
     2
274
     3
340
11
275
     0
280
     0
281
     0
282
     0
283
     0
284
     8
285
     0
286
     0
287
     3
288
     0
  0
ENDTAB
  0
TABLE
  2
BLOCK_RECORD
  5
1
330
0
100
AcDbSymbolTable
 70
     1
  0
BLOCK_RECORD
  5
1F
330
1
100
AcDbSymbolTableRecord
100
AcDbBlockTableRecord
  2
*MODEL_SPACE
  0
BLOCK_RECORD
  5
1B
330
1
100
AcDbSymbolTableRecord
100
AcDbBlockTableRecord
  2
*PAPER_SPACE
  0
ENDTAB
  0
ENDSEC
  0
SECTION
  2
BLOCKS
  0
BLOCK
  5
20
330
1F
100
AcDbEntity
  8
0
100
AcDbBlockBegin
  2
*MODEL_SPACE
 70
     0
 10
0.0
 20
0.0
 30
0.0
  3
*MODEL_SPACE
  1

  0
ENDBLK
  5
21
330
1F
100
AcDbEntity
  8
0
100
AcDbBlockEnd
  0
BLOCK
  5
1C
330
1B
100
AcDbEntity
 67
     1
  8
0
100
AcDbBlockBegin
  2
*PAPER_SPACE
  1

  0
ENDBLK
  5
1D
330
1B
100
AcDbEntity
 67
     1
  8
0
100
AcDbBlockEnd
  0
ENDSEC
  0
SECTION
  2
ENTITIES
  0
SPLINE
  5
100
100
AcDbEntity
  8
Ebene_1
 62
7
100
AcDbSpline
 70
8
 71
3
 72
8
 73
4
 74
0
 40
0
 40
0
 40
0
 40
0
 40
1
 40
1
 40
1
 40
1
 10
171.640130
 20
294.242428
 30
0.0
 10
129.295090
 20
294.232528
 30
0.0
 10
86.949340
 20
294.269026
 30
0.0
 10
44.604770
 20
294.175634
 30
0.0
  0
SPLINE
  5
101
100
AcDbEntity
  8
Ebene_1
 62
7
100
AcDbSpline
 70
8
 71
3
 72
8
 73
4
 74
0
 40
0
 40
0
 40
0
 40
0
 40
1
 40
1
 40
1
 40
1
 10
44.604770
 20
294.175634
 30
0.0
 10
30.258110
 20
293.514313
 30
0.0
 10
16.641300
 20
284.208767
 30
0.0
 10
10.973530
 20
270.985617
 30
0.0
  0
SPLINE
  5
102
100
AcDbEntity
  8
Ebene_1
 62
7
100
AcDbSpline
 70
8
 71
3
 72
8
 73
4
 74
0
 40
0
 40
0
 40
0
 40
0
 40
1
 40
1
 40
1
 40
1
 10
10.973530
 20
270.985617
 30
0.0
 10
8.194520
 20
264.816612
 30
0.0
 10
7.271910
 20
257.948170
 30
0.0
 10
7.591310
 20
251.227194
 30
0.0
  0
SPLINE
  5
103
100
AcDbEntity
  8
Ebene_1
 62
7
100
AcDbSpline
 70
8
 71
3
 72
8
 73
4
 74
0
 40
0
 40
0
 40
0
 40
0
 40
1
 40
1
 40
1
 40
1
 10
7.591310
 20
251.227194
 30
0.0
 10
7.598310
 20
181.921050
 30
0.0
 10
7.577810
 20
112.614470
 30
0.0
 10
7.647710
 20
43.308600
 30
0.0
  0
SPLINE
  5
104
100
AcDbEntity
  8
Ebene_1
 62
7
100
AcDbSpline
 70
8
 71
3
 72
8
 73
4
 74
0
 40
0
 40
0
 40
0
 40
0
 40
1
 40
1
 40
1
 40
1
 10
7.647710
 20
43.308600
 30
0.0
 10
8.243870
 20
28.860440
 30
0.0
 10
17.640960
 20
15.136700
 30
0.0
 10
30.972390
 20
9.484850
 30
0.0
  0
SPLINE
  5
105
100
AcDbEntity
  8
Ebene_1
 62
7
100
AcDbSpline
 70
8
 71
3
 72
8
 73
4
 74
0
 40
0
 40
0
 40
0
 40
0
 40
1
 40
1
 40
1
 40
1
 10
30.972390
 20
9.484850
 30
0.0
 10
37.124850
 20
6.743900
 30
0.0
 10
43.959840
 20
5.833150
 30
0.0
 10
50.651460
 20
6.150630
 30
0.0
  0
SPLINE
  5
106
100
AcDbEntity
  8
Ebene_1
 62
7
100
AcDbSpline
 70
8
 71
3
 72
8
 73
4
 74
0
 40
0
 40
0
 40
0
 40
0
 40
1
 40
1
 40
1
 40
1
 10
50.651460
 20
6.150630
 30
0.0
 10
92.145710
 20
6.157630
 30
0.0
 10
133.640710
 20
6.121330
 30
0.0
 10
175.134450
 20
6.225530
 30
0.0
  0
SPLINE
  5
107
100
AcDbEntity
  8
Ebene_1
 62
7
100
AcDbSpline
 70
8
 71
3
 72
8
 73
4
 74
0
 40
0
 40
0
 40
0
 40
0
 40
1
 40
1
 40
1
 40
1
 10
175.134450
 20
6.225530
 30
0.0
 10
189.493900
 20
6.937950
 30
0.0
 10
203.084330
 20
16.312000
 30
0.0
 10
208.702310
 20
29.570810
 30
0.0
  0
SPLINE
  5
108
100
AcDbEntity
  8
Ebene_1
 62
7
100
AcDbSpline
 70
8
 71
3
 72
8
 73
4
 74
0
 40
0
 40
0
 40
0
 40
0
 40
1
 40
1
 40
1
 40
1
 10
208.702310
 20
29.570810
 30
0.0
 10
211.425060
 20
35.698930
 30
0.0
 10
212.323440
 20
42.504230
 30
0.0
 10
212.009260
 20
49.165860
 30
0.0
  0
SPLINE
  5
109
100
AcDbEntity
  8
Ebene_1
 62
7
100
AcDbSpline
 70
8
 71
3
 72
8
 73
4
 74
0
 40
0
 40
0
 40
0
 40
0
 40
1
 40
1
 40
1
 40
1
 10
212.009260
 20
49.165860
 30
0.0
 10
212.002260
 20
118.472660
 30
0.0
 10
212.022760
 20
187.779890
 30
0.0
 10
211.952860
 20
257.086400
 30
0.0
  0
SPLINE
  5
10a
100
AcDbEntity
  8
Ebene_1
 62
7
100
AcDbSpline
 70
8
 71
3
 72
8
 73
4
 74
0
 40
0
 40
0
 40
0
 40
0
 40
1
 40
1
 40
1
 40
1
 10
211.952860
 20
257.086400
 30
0.0
 10
211.357220
 20
271.516082
 30
0.0
 10
201.981870
 20
285.223213
 30
0.0
 10
188.675080
 20
290.884848
 30
0.0
  0
SPLINE
  5
10b
100
AcDbEntity
  8
Ebene_1
 62
7
100
AcDbSpline
 70
8
 71
3
 72
8
 73
4
 74
0
 40
0
 40
0
 40
0
 40
0
 40
1
 40
1
 40
1
 40
1
 10
188.675080
 20
290.884848
 30
0.0
 10
183.335520
 20
293.238536
 30
0.0
 10
177.472670
 20
294.387001
 30
0.0
 10
171.640120
 20
294.242428
 30
0.0
  0
LWPOLYLINE
  5
10c
100
AcDbEntity
  8
Ebene_1
 62
7
100
AcDbPolyline
 90
4
 70
1
 10
0.000000
 20
299.599980
 30
0.0
 10
219.600000
 20
299.599980
 30
0.0
 10
219.600000
 20
0.000000
 30
0.0
 10
0.000000
 20
0.000000
 30
0.0
  0
SPLINE
  5
10d
100
AcDbEntity
  8
Ebene_1
 62
7
100
AcDbSpline
 70
8
 71
3
 72
8
 73
4
 74
0
 40
0
 40
0
 40
0
 40
0
 40
1
 40
1
 40
1
 40
1
 10
46.760750
 20
289.983449
 30
0.0
 10
27.466180
 20
289.983449
 30
0.0
 10
11.825530
 20
274.363908
 30
0.0
 10
11.825530
 20
255.095395
 30
0.0
  0
LWPOLYLINE
  5
10e
100
AcDbEntity
  8
Ebene_1
 62
7
100
AcDbPolyline
 90
1
 70
1
 10
171.640120
 20
294.242428
 30
0.0
  0
SPLINE
  5
10f
100
AcDbEntity
  8
Ebene_1
 62
7
100
AcDbSpline
 70
8
 71
3
 72
8
 73
4
 74
0
 40
0
 40
0
 40
0
 40
0
 40
1
 40
1
 40
1
 40
1
 10
11.825530
 20
45.249480
 30
0.0
 10
11.825530
 20
25.980960
 30
0.0
 10
27.466180
 20
10.361420
 30
0.0
 10
46.760750
 20
10.361420
 30
0.0
  0
LWPOLYLINE
  5
110
100
AcDbEntity
  8
Ebene_1
 62
7
100
AcDbPolyline
 90
2
 70
0
 10
11.825530
 20
255.095395
 30
0.0
 10
11.825530
 20
45.249480
 30
0.0
  0
SPLINE
  5
111
100
AcDbEntity
  8
Ebene_1
 62
7
100
AcDbSpline
 70
8
 71
3
 72
8
 73
4
 74
0
 40
0
 40
0
 40
0
 40
0
 40
1
 40
1
 40
1
 40
1
 10
172.839260
 20
10.361420
 30
0.0
 10
192.133820
 20
10.361420
 30
0.0
 10
207.774470
 20
25.980960
 30
0.0
 10
207.774470
 20
45.249480
 30
0.0
  0
LWPOLYLINE
  5
112
100
AcDbEntity
  8
Ebene_1
 62
7
100
AcDbPolyline
 90
2
 70
0
 10
46.760750
 20
10.361420
 30
0.0
 10
172.839260
 20
10.361420
 30
0.0
  0
SPLINE
  5
113
100
AcDbEntity
  8
Ebene_1
 62
7
100
AcDbSpline
 70
8
 71
3
 72
8
 73
4
 74
0
 40
0
 40
0
 40
0
 40
0
 40
1
 40
1
 40
1
 40
1
 10
207.774470
 20
255.095395
 30
0.0
 10
207.774470
 20
274.363908
 30
0.0
 10
192.133820
 20
289.983449
 30
0.0
 10
172.839260
 20
289.983449
 30
0.0
  0
LWPOLYLINE
  5
114
100
AcDbEntity
  8
Ebene_1
 62
7
100
AcDbPolyline
 90
2
 70
0
 10
207.774470
 20
45.249480
 30
0.0
 10
207.774470
 20
255.095395
 30
0.0
  0
LWPOLYLINE
  5
115
100
AcDbEntity
  8
Ebene_1
 62
7
100
AcDbPolyline
 90
2
 70
0
 10
172.839260
 20
289.983449
 30
0.0
 10
46.760750
 20
289.983449
 30
0.0
  0
SPLINE
  5
116
100
AcDbEntity
  8
Ebene_1
 62
7
100
AcDbSpline
 70
8
 71
3
 72
8
 73
4
 74
0
 40
0
 40
0
 40
0
 40
0
 40
1
 40
1
 40
1
 40
1
 10
172.839260
 20
283.163401
 30
0.0
 10
188.468540
 20
283.163401
 30
0.0
 10
200.945200
 20
270.703567
 30
0.0
 10
200.945200
 20
255.095395
 30
0.0
  0
LWPOLYLINE
  5
117
100
AcDbEntity
  8
Ebene_1
 62
7
100
AcDbPolyline
 90
2
 70
0
 10
46.760750
 20
283.163401
 30
0.0
 10
172.839260
 20
283.163401
 30
0.0
  0
SPLINE
  5
118
100
AcDbEntity
  8
Ebene_1
 62
7
100
AcDbSpline
 70
8
 71
3
 72
8
 73
4
 74
0
 40
0
 40
0
 40
0
 40
0
 40
1
 40
1
 40
1
 40
1
 10
200.945200
 20
45.249480
 30
0.0
 10
200.945200
 20
29.641300
 30
0.0
 10
188.468540
 20
17.181480
 30
0.0
 10
172.839260
 20
17.181480
 30
0.0
  0
LWPOLYLINE
  5
119
100
AcDbEntity
  8
Ebene_1
 62
7
100
AcDbPolyline
 90
2
 70
0
 10
200.945200
 20
255.095395
 30
0.0
 10
200.945200
 20
45.249480
 30
0.0
  0
SPLINE
  5
11a
100
AcDbEntity
  8
Ebene_1
 62
7
100
AcDbSpline
 70
8
 71
3
 72
8
 73
4
 74
0
 40
0
 40
0
 40
0
 40
0
 40
1
 40
1
 40
1
 40
1
 10
46.760750
 20
17.181480
 30
0.0
 10
31.131460
 20
17.181480
 30
0.0
 10
18.654800
 20
29.641300
 30
0.0
 10
18.654800
 20
45.249480
 30
0.0
  0
LWPOLYLINE
  5
11b
100
AcDbEntity
  8
Ebene_1
 62
7
100
AcDbPolyline
 90
2
 70
0
 10
172.839260
 20
17.181480
 30
0.0
 10
46.760750
 20
17.181480
 30
0.0
  0
SPLINE
  5
11c
100
AcDbEntity
  8
Ebene_1
 62
7
100
AcDbSpline
 70
8
 71
3
 72
8
 73
4
 74
0
 40
0
 40
0
 40
0
 40
0
 40
1
 40
1
 40
1
 40
1
 10
18.654800
 20
255.095395
 30
0.0
 10
18.654800
 20
270.703567
 30
0.0
 10
31.131460
 20
283.163401
 30
0.0
 10
46.760750
 20
283.163401
 30
0.0
  0
LWPOLYLINE
  5
11d
100
AcDbEntity
  8
Ebene_1
 62
7
100
AcDbPolyline
 90
2
 70
0
 10
18.654800
 20
45.249480
 30
0.0
 10
18.654800
 20
255.095395
 30
0.0
  0
SPLINE
  5
11e
100
AcDbEntity
  8
Ebene_1
 62
7
100
AcDbSpline
 70
8
 71
3
 72
8
 73
4
 74
0
 40
0
 40
0
 40
0
 40
0
 40
1
 40
1
 40
1
 40
1
 10
34.654320
 20
32.483450
 30
0.0
 10
34.654320
 20
31.820409
 30
0.0
 10
34.390928
 20
31.184524
 30
0.0
 10
33.922087
 20
30.715683
 30
0.0
  0
SPLINE
  5
11f
100
AcDbEntity
  8
Ebene_1
 62
7
100
AcDbSpline
 70
8
 71
3
 72
8
 73
4
 74
0
 40
0
 40
0
 40
0
 40
0
 40
1
 40
1
 40
1
 40
1
 10
33.922087
 20
30.715683
 30
0.0
 10
33.453246
 20
30.246842
 30
0.0
 10
32.817361
 20
29.983450
 30
0.0
 10
32.154320
 20
29.983450
 30
0.0
  0
SPLINE
  5
120
100
AcDbEntity
  8
Ebene_1
 62
7
100
AcDbSpline
 70
8
 71
3
 72
8
 73
4
 74
0
 40
0
 40
0
 40
0
 40
0
 40
1
 40
1
 40
1
 40
1
 10
32.154320
 20
29.983450
 30
0.0
 10
31.491279
 20
29.983450
 30
0.0
 10
30.855394
 20
30.246842
 30
0.0
 10
30.386553
 20
30.715683
 30
0.0
  0
SPLINE
  5
121
100
AcDbEntity
  8
Ebene_1
 62
7
100
AcDbSpline
 70
8
 71
3
 72
8
 73
4
 74
0
 40
0
 40
0
 40
0
 40
0
 40
1
 40
1
 40
1
 40
1
 10
30.386553
 20
30.715683
 30
0.0
 10
29.917712
 20
31.184524
 30
0.0
 10
29.654320
 20
31.820409
 30
0.0
 10
29.654320
 20
32.483450
 30
0.0
  0
SPLINE
  5
122
100
AcDbEntity
  8
Ebene_1
 62
7
100
AcDbSpline
 70
8
 71
3
 72
8
 73
4
 74
0
 40
0
 40
0
 40
0
 40
0
 40
1
 40
1
 40
1
 40
1
 10
29.654320
 20
32.483450
 30
0.0
 10
29.654320
 20
33.146491
 30
0.0
 10
29.917712
 20
33.782376
 30
0.0
 10
30.386553
 20
34.251217
 30
0.0
  0
SPLINE
  5
123
100
AcDbEntity
  8
Ebene_1
 62
7
100
AcDbSpline
 70
8
 71
3
 72
8
 73
4
 74
0
 40
0
 40
0
 40
0
 40
0
 40
1
 40
1
 40
1
 40
1
 10
30.386553
 20
34.251217
 30
0.0
 10
30.855394
 20
34.720058
 30
0.0
 10
31.491279
 20
34.983450
 30
0.0
 10
32.154320
 20
34.983450
 30
0.0
  0
SPLINE
  5
124
100
AcDbEntity
  8
Ebene_1
 62
7
100
AcDbSpline
 70
8
 71
3
 72
8
 73
4
 74
0
 40
0
 40
0
 40
0
 40
0
 40
1
 40
1
 40
1
 40
1
 10
32.154320
 20
34.983450
 30
0.0
 10
32.817361
 20
34.983450
 30
0.0
 10
33.453246
 20
34.720058
 30
0.0
 10
33.922087
 20
34.251217
 30
0.0
  0
SPLINE
  5
125
100
AcDbEntity
  8
Ebene_1
 62
7
100
AcDbSpline
 70
8
 71
3
 72
8
 73
4
 74
0
 40
0
 40
0
 40
0
 40
0
 40
1
 40
1
 40
1
 40
1
 10
33.922087
 20
34.251217
 30
0.0
 10
34.390928
 20
33.782376
 30
0.0
 10
34.654320
 20
33.146491
 30
0.0
 10
34.654320
 20
32.483450
 30
0.0
  0
LWPOLYLINE
  5
126
100
AcDbEntity
  8
Ebene_1
 62
7
100
AcDbPolyline
 90
1
 70
1
 10
46.760750
 20
283.163401
 30
0.0
  0
SPLINE
  5
127
100
AcDbEntity
  8
Ebene_1
 62
7
100
AcDbSpline
 70
8
 71
3
 72
8
 73
4
 74
0
 40
0
 40
0
 40
0
 40
0
 40
1
 40
1
 40
1
 40
1
 10
189.568000
 20
32.775110
 30
0.0
 10
189.568000
 20
32.112069
 30
0.0
 10
189.304608
 20
31.476184
 30
0.0
 10
188.835767
 20
31.007343
 30
0.0
  0
SPLINE
  5
128
100
AcDbEntity
  8
Ebene_1
 62
7
100
AcDbSpline
 70
8
 71
3
 72
8
 73
4
 74
0
 40
0
 40
0
 40
0
 40
0
 40
1
 40
1
 40
1
 40
1
 10
188.835767
 20
31.007343
 30
0.0
 10
188.366926
 20
30.538502
 30
0.0
 10
187.731041
 20
30.275110
 30
0.0
 10
187.068000
 20
30.275110
 30
0.0
  0
SPLINE
  5
129
100
AcDbEntity
  8
Ebene_1
 62
7
100
AcDbSpline
 70
8
 71
3
 72
8
 73
4
 74
0
 40
0
 40
0
 40
0
 40
0
 40
1
 40
1
 40
1
 40
1
 10
187.068000
 20
30.275110
 30
0.0
 10
186.404959
 20
30.275110
 30
0.0
 10
185.769074
 20
30.538502
 30
0.0
 10
185.300233
 20
31.007343
 30
0.0
  0
SPLINE
  5
12a
100
AcDbEntity
  8
Ebene_1
 62
7
100
AcDbSpline
 70
8
 71
3
 72
8
 73
4
 74
0
 40
0
 40
0
 40
0
 40
0
 40
1
 40
1
 40
1
 40
1
 10
185.300233
 20
31.007343
 30
0.0
 10
184.831392
 20
31.476184
 30
0.0
 10
184.568000
 20
32.112069
 30
0.0
 10
184.568000
 20
32.775110
 30
0.0
  0
SPLINE
  5
12b
100
AcDbEntity
  8
Ebene_1
 62
7
100
AcDbSpline
 70
8
 71
3
 72
8
 73
4
 74
0
 40
0
 40
0
 40
0
 40
0
 40
1
 40
1
 40
1
 40
1
 10
184.568000
 20
32.775110
 30
0.0
 10
184.568000
 20
33.438151
 30
0.0
 10
184.831392
 20
34.074036
 30
0.0
 10
185.300233
 20
34.542877
 30
0.0
  0
SPLINE
  5
12c
100
AcDbEntity
  8
Ebene_1
 62
7
100
AcDbSpline
 70
8
 71
3
 72
8
 73
4
 74
0
 40
0
 40
0
 40
0
 40
0
 40
1
 40
1
 40
1
 40
1
 10
185.300233
 20
34.542877
 30
0.0
 10
185.769074
 20
35.011718
 30
0.0
 10
186.404959
 20
35.275110
 30
0.0
 10
187.068000
 20
35.275110
 30
0.0
  0
SPLINE
  5
12d
100
AcDbEntity
  8
Ebene_1
 62
7
100
AcDbSpline
 70
8
 71
3
 72
8
 73
4
 74
0
 40
0
 40
0
 40
0
 40
0
 40
1
 40
1
 40
1
 40
1
 10
187.068000
 20
35.275110
 30
0.0
 10
187.731041
 20
35.275110
 30
0.0
 10
188.366926
 20
35.011718
 30
0.0
 10
188.835767
 20
34.542877
 30
0.0
  0
SPLINE
  5
12e
100
AcDbEntity
  8
Ebene_1
 62
7
100
AcDbSpline
 70
8
 71
3
 72
8
 73
4
 74
0
 40
0
 40
0
 40
0
 40
0
 40
1
 40
1
 40
1
 40
1
 10
188.835767
 20
34.542877
 30
0.0
 10
189.304608
 20
34.074036
 30
0.0
 10
189.568000
 20
33.438151
 30
0.0
 10
189.568000
 20
32.775110
 30
0.0
  0
LWPOLYLINE
  5
12f
100
AcDbEntity
  8
Ebene_1
 62
7
100
AcDbPolyline
 90
1
 70
1
 10
34.654320
 20
32.483450
 30
0.0
  0
SPLINE
  5
130
100
AcDbEntity
  8
Ebene_1
 62
7
100
AcDbSpline
 70
8
 71
3
 72
8
 73
4
 74
0
 40
0
 40
0
 40
0
 40
0
 40
1
 40
1
 40
1
 40
1
 10
189.945975
 20
267.861419
 30
0.0
 10
189.945975
 20
267.198378
 30
0.0
 10
189.682583
 20
266.562493
 30
0.0
 10
189.213742
 20
266.093652
 30
0.0
  0
SPLINE
  5
131
100
AcDbEntity
  8
Ebene_1
 62
7
100
AcDbSpline
 70
8
 71
3
 72
8
 73
4
 74
0
 40
0
 40
0
 40
0
 40
0
 40
1
 40
1
 40
1
 40
1
 10
189.213742
 20
266.093652
 30
0.0
 10
188.744901
 20
265.624811
 30
0.0
 10
188.109016
 20
265.361419
 30
0.0
 10
187.445975
 20
265.361419
 30
0.0
  0
SPLINE
  5
132
100
AcDbEntity
  8
Ebene_1
 62
7
100
AcDbSpline
 70
8
 71
3
 72
8
 73
4
 74
0
 40
0
 40
0
 40
0
 40
0
 40
1
 40
1
 40
1
 40
1
 10
187.445975
 20
265.361419
 30
0.0
 10
186.782934
 20
265.361419
 30
0.0
 10
186.147049
 20
265.624811
 30
0.0
 10
185.678208
 20
266.093652
 30
0.0
  0
SPLINE
  5
133
100
AcDbEntity
  8
Ebene_1
 62
7
100
AcDbSpline
 70
8
 71
3
 72
8
 73
4
 74
0
 40
0
 40
0
 40
0
 40
0
 40
1
 40
1
 40
1
 40
1
 10
185.678208
 20
266.093652
 30
0.0
 10
185.209367
 20
266.562493
 30
0.0
 10
184.945975
 20
267.198378
 30
0.0
 10
184.945975
 20
267.861419
 30
0.0
  0
SPLINE
  5
134
100
AcDbEntity
  8
Ebene_1
 62
7
100
AcDbSpline
 70
8
 71
3
 72
8
 73
4
 74
0
 40
0
 40
0
 40
0
 40
0
 40
1
 40
1
 40
1
 40
1
 10
184.945975
 20
267.861419
 30
0.0
 10
184.945975
 20
268.524460
 30
0.0
 10
185.209367
 20
269.160345
 30
0.0
 10
185.678208
 20
269.629186
 30
0.0
  0
SPLINE
  5
135
100
AcDbEntity
  8
Ebene_1
 62
7
100
AcDbSpline
 70
8
 71
3
 72
8
 73
4
 74
0
 40
0
 40
0
 40
0
 40
0
 40
1
 40
1
 40
1
 40
1
 10
185.678208
 20
269.629186
 30
0.0
 10
186.147049
 20
270.098027
 30
0.0
 10
186.782934
 20
270.361419
 30
0.0
 10
187.445975
 20
270.361419
 30
0.0
  0
SPLINE
  5
136
100
AcDbEntity
  8
Ebene_1
 62
7
100
AcDbSpline
 70
8
 71
3
 72
8
 73
4
 74
0
 40
0
 40
0
 40
0
 40
0
 40
1
 40
1
 40
1
 40
1
 10
187.445975
 20
270.361419
 30
0.0
 10
188.109016
 20
270.361419
 30
0.0
 10
188.744901
 20
270.098027
 30
0.0
 10
189.213742
 20
269.629186
 30
0.0
  0
SPLINE
  5
137
100
AcDbEntity
  8
Ebene_1
 62
7
100
AcDbSpline
 70
8
 71
3
 72
8
 73
4
 74
0
 40
0
 40
0
 40
0
 40
0
 40
1
 40
1
 40
1
 40
1
 10
189.213742
 20
269.629186
 30
0.0
 10
189.682583
 20
269.160345
 30
0.0
 10
189.945975
 20
268.524460
 30
0.0
 10
189.945975
 20
267.861419
 30
0.0
  0
LWPOLYLINE
  5
138
100
AcDbEntity
  8
Ebene_1
 62
7
100
AcDbPolyline
 90
1
 70
1
 10
189.568000
 20
32.775110
 30
0.0
  0
SPLINE
  5
139
100
AcDbEntity
  8
Ebene_1
 62
7
100
AcDbSpline
 70
8
 71
3
 72
8
 73
4
 74
0
 40
0
 40
0
 40
0
 40
0
 40
1
 40
1
 40
1
 40
1
 10
34.945980
 20
267.861419
 30
0.0
 10
34.945980
 20
267.198378
 30
0.0
 10
34.682588
 20
266.562493
 30
0.0
 10
34.213747
 20
266.093652
 30
0.0
  0
SPLINE
  5
13a
100
AcDbEntity
  8
Ebene_1
 62
7
100
AcDbSpline
 70
8
 71
3
 72
8
 73
4
 74
0
 40
0
 40
0
 40
0
 40
0
 40
1
 40
1
 40
1
 40
1
 10
34.213747
 20
266.093652
 30
0.0
 10
33.744906
 20
265.624811
 30
0.0
 10
33.109021
 20
265.361419
 30
0.0
 10
32.445980
 20
265.361419
 30
0.0
  0
SPLINE
  5
13b
100
AcDbEntity
  8
Ebene_1
 62
7
100
AcDbSpline
 70
8
 71
3
 72
8
 73
4
 74
0
 40
0
 40
0
 40
0
 40
0
 40
1
 40
1
 40
1
 40
1
 10
32.445980
 20
265.361419
 30
0.0
 10
31.782939
 20
265.361419
 30
0.0
 10
31.147054
 20
265.624811
 30
0.0
 10
30.678213
 20
266.093652
 30
0.0
  0
SPLINE
  5
13c
100
AcDbEntity
  8
Ebene_1
 62
7
100
AcDbSpline
 70
8
 71
3
 72
8
 73
4
 74
0
 40
0
 40
0
 40
0
 40
0
 40
1
 40
1
 40
1
 40
1
 10
30.678213
 20
266.093652
 30
0.0
 10
30.209372
 20
266.562493
 30
0.0
 10
29.945980
 20
267.198378
 30
0.0
 10
29.945980
 20
267.861419
 30
0.0
  0
SPLINE
  5
13d
100
AcDbEntity
  8
Ebene_1
 62
7
100
AcDbSpline
 70
8
 71
3
 72
8
 73
4
 74
0
 40
0
 40
0
 40
0
 40
0
 40
1
 40
1
 40
1
 40
1
 10
29.945980
 20
267.861419
 30
0.0
 10
29.945980
 20
268.524460
 30
0.0
 10
30.209372
 20
269.160345
 30
0.0
 10
30.678213
 20
269.629186
 30
0.0
  0
SPLINE
  5
13e
100
AcDbEntity
  8
Ebene_1
 62
7
100
AcDbSpline
 70
8
 71
3
 72
8
 73
4
 74
0
 40
0
 40
0
 40
0
 40
0
 40
1
 40
1
 40
1
 40
1
 10
30.678213
 20
269.629186
 30
0.0
 10
31.147054
 20
270.098027
 30
0.0
 10
31.782939
 20
270.361419
 30
0.0
 10
32.445980
 20
270.361419
 30
0.0
  0
SPLINE
  5
13f
100
AcDbEntity
  8
Ebene_1
 62
7
100
AcDbSpline
 70
8
 71
3
 72
8
 73
4
 74
0
 40
0
 40
0
 40
0
 40
0
 40
1
 40
1
 40
1
 40
1
 10
32.445980
 20
270.361419
 30
0.0
 10
33.109021
 20
270.361419
 30
0.0
 10
33.744906
 20
270.098027
 30
0.0
 10
34.213747
 20
269.629186
 30
0.0
  0
SPLINE
  5
140
100
AcDbEntity
  8
Ebene_1
 62
7
100
AcDbSpline
 70
8
 71
3
 72
8
 73
4
 74
0
 40
0
 40
0
 40
0
 40
0
 40
1
 40
1
 40
1
 40
1
 10
34.213747
 20
269.629186
 30
0.0
 10
34.682588
 20
269.160345
 30
0.0
 10
34.945980
 20
268.524460
 30
0.0
 10
34.945980
 20
267.861419
 30
0.0
  0
LWPOLYLINE
  5
141
100
AcDbEntity
  8
Ebene_1
 62
7
100
AcDbPolyline
 90
1
 70
1
 10
189.945975
 20
267.861419
 30
0.0
  0
LWPOLYLINE
  5
142
100
AcDbEntity
  8
Ebene_1
 62
7
100
AcDbPolyline
 90
1
 70
1
 10
34.945980
 20
267.861419
 30
0.0
  0
SPLINE
  5
143
100
AcDbEntity
  8
Ebene_1
 62
7
100
AcDbSpline
 70
8
 71
3
 72
8
 73
4
 74
0
 40
0
 40
0
 40
0
 40
0
 40
1
 40
1
 40
1
 40
1
 10
46.666240
 20
84.924500
 30
0.0
 10
46.666240
 20
84.549760
 30
0.0
 10
46.572440
 20
84.316790
 30
0.0
 10
46.333610
 20
84.055720
 30
0.0
  0
SPLINE
  5
144
100
AcDbEntity
  8
Ebene_1
 62
7
100
AcDbSpline
 70
8
 71
3
 72
8
 73
4
 74
0
 40
0
 40
0
 40
0
 40
0
 40
1
 40
1
 40
1
 40
1
 10
46.333610
 20
84.055720
 30
0.0
 10
46.090980
 20
83.810990
 30
0.0
 10
45.875790
 20
83.714700
 30
0.0
 10
45.546190
 20
83.714700
 30
0.0
  0
LWPOLYLINE
  5
145
100
AcDbEntity
  8
Ebene_1
 62
7
100
AcDbPolyline
 90
4
 70
0
 10
27.766250
 20
91.878810
 30
0.0
 10
27.766250
 20
86.134300
 30
0.0
 10
46.666240
 20
86.134300
 30
0.0
 10
46.666240
 20
84.924500
 30
0.0
  0
SPLINE
  5
146
100
AcDbEntity
  8
Ebene_1
 62
7
100
AcDbSpline
 70
8
 71
3
 72
8
 73
4
 74
0
 40
0
 40
0
 40
0
 40
0
 40
1
 40
1
 40
1
 40
1
 10
47.434870
 20
77.968170
 30
0.0
 10
48.641120
 20
77.968170
 30
0.0
 10
49.755860
 20
78.466040
 30
0.0
 10
50.629660
 20
79.385010
 30
0.0
  0
SPLINE
  5
147
100
AcDbEntity
  8
Ebene_1
 62
7
100
AcDbSpline
 70
8
 71
3
 72
8
 73
4
 74
0
 40
0
 40
0
 40
0
 40
0
 40
1
 40
1
 40
1
 40
1
 10
50.629660
 20
79.385010
 30
0.0
 10
51.511820
 20
80.312790
 30
0.0
 10
51.984630
 20
81.539220
 30
0.0
 10
51.984630
 20
82.882460
 30
0.0
  0
LWPOLYLINE
  5
148
100
AcDbEntity
  8
Ebene_1
 62
7
100
AcDbPolyline
 90
7
 70
0
 10
45.546190
 20
83.714700
 30
0.0
 10
27.766250
 20
83.714700
 30
0.0
 10
27.766250
 20
69.804060
 30
0.0
 10
28.536750
 20
69.804060
 30
0.0
 10
33.086500
 20
69.804060
 30
0.0
 10
33.086500
 20
77.968170
 30
0.0
 10
47.434870
 20
77.968170
 30
0.0
  0
LWPOLYLINE
  5
149
100
AcDbEntity
  8
Ebene_1
 62
7
100
AcDbPolyline
 90
3
 70
0
 10
51.984630
 20
82.882460
 30
0.0
 10
51.984630
 20
91.878810
 30
0.0
 10
27.766250
 20
91.878810
 30
0.0
  0
LWPOLYLINE
  5
14a
100
AcDbEntity
  8
Ebene_1
 62
7
100
AcDbPolyline
 90
9
 70
1
 10
54.224740
 20
83.714700
 30
0.0
 10
54.224740
 20
69.804060
 30
0.0
 10
54.995250
 20
69.804060
 30
0.0
 10
59.545010
 20
69.804060
 30
0.0
 10
59.545010
 20
77.968170
 30
0.0
 10
73.122870
 20
77.968170
 30
0.0
 10
73.122870
 20
69.804060
 30
0.0
 10
78.443130
 20
69.804060
 30
0.0
 10
78.443130
 20
83.714700
 30
0.0
  0
SPLINE
  5
14b
100
AcDbEntity
  8
Ebene_1
 62
7
100
AcDbSpline
 70
8
 71
3
 72
8
 73
4
 74
0
 40
0
 40
0
 40
0
 40
0
 40
1
 40
1
 40
1
 40
1
 10
54.224740
 20
91.048600
 30
0.0
 10
54.224740
 20
89.728170
 30
0.0
 10
54.683320
 20
88.511780
 30
0.0
 10
55.536480
 20
87.565350
 30
0.0
  0
LWPOLYLINE
  5
14c
100
AcDbEntity
  8
Ebene_1
 62
7
100
AcDbPolyline
 90
2
 70
0
 10
54.224740
 20
91.878810
 30
0.0
 10
54.224740
 20
91.048600
 30
0.0
  0
SPLINE
  5
14d
100
AcDbEntity
  8
Ebene_1
 62
7
100
AcDbSpline
 70
8
 71
3
 72
8
 73
4
 74
0
 40
0
 40
0
 40
0
 40
0
 40
1
 40
1
 40
1
 40
1
 10
55.542480
 20
87.557350
 30
0.0
 10
56.403270
 20
86.627610
 30
0.0
 10
57.536020
 20
86.134420
 30
0.0
 10
58.774870
 20
86.134420
 30
0.0
  0
LWPOLYLINE
  5
14e
100
AcDbEntity
  8
Ebene_1
 62
7
100
AcDbPolyline
 90
3
 70
0
 10
55.536480
 20
87.565350
 30
0.0
 10
55.540480
 20
87.561350
 30
0.0
 10
55.542480
 20
87.557350
 30
0.0
  0
SPLINE
  5
14f
100
AcDbEntity
  8
Ebene_1
 62
7
100
AcDbSpline
 70
8
 71
3
 72
8
 73
4
 74
0
 40
0
 40
0
 40
0
 40
0
 40
1
 40
1
 40
1
 40
1
 10
73.893740
 20
86.134420
 30
0.0
 10
75.099980
 20
86.134420
 30
0.0
 10
76.214730
 20
86.630260
 30
0.0
 10
77.088530
 20
87.549220
 30
0.0
  0
SPLINE
  5
150
100
AcDbEntity
  8
Ebene_1
 62
7
100
AcDbSpline
 70
8
 71
3
 72
8
 73
4
 74
0
 40
0
 40
0
 40
0
 40
0
 40
1
 40
1
 40
1
 40
1
 10
77.088530
 20
87.549220
 30
0.0
 10
77.970700
 20
88.477010
 30
0.0
 10
78.443490
 20
89.705470
 30
0.0
 10
78.443490
 20
91.048710
 30
0.0
  0
LWPOLYLINE
  5
151
100
AcDbEntity
  8
Ebene_1
 62
7
100
AcDbPolyline
 90
2
 70
0
 10
58.774870
 20
86.134420
 30
0.0
 10
73.893740
 20
86.134420
 30
0.0
  0
LWPOLYLINE
  5
152
100
AcDbEntity
  8
Ebene_1
 62
7
100
AcDbPolyline
 90
3
 70
0
 10
78.443490
 20
91.048710
 30
0.0
 10
78.443490
 20
91.878920
 30
0.0
 10
54.224740
 20
91.878810
 30
0.0
  0
SPLINE
  5
153
100
AcDbEntity
  8
Ebene_1
 62
7
100
AcDbSpline
 70
8
 71
3
 72
8
 73
4
 74
0
 40
0
 40
0
 40
0
 40
0
 40
1
 40
1
 40
1
 40
1
 10
80.683240
 20
91.048600
 30
0.0
 10
80.683240
 20
89.728170
 30
0.0
 10
81.139940
 20
88.511780
 30
0.0
 10
81.993110
 20
87.565350
 30
0.0
  0
LWPOLYLINE
  5
154
100
AcDbEntity
  8
Ebene_1
 62
7
100
AcDbPolyline
 90
2
 70
0
 10
80.683240
 20
91.878810
 30
0.0
 10
80.683240
 20
91.048600
 30
0.0
  0
SPLINE
  5
155
100
AcDbEntity
  8
Ebene_1
 62
7
100
AcDbSpline
 70
8
 71
3
 72
8
 73
4
 74
0
 40
0
 40
0
 40
0
 40
0
 40
1
 40
1
 40
1
 40
1
 10
82.001110
 20
87.557350
 30
0.0
 10
82.861880
 20
86.627610
 30
0.0
 10
83.994630
 20
86.134420
 30
0.0
 10
85.233480
 20
86.134420
 30
0.0
  0
LWPOLYLINE
  5
156
100
AcDbEntity
  8
Ebene_1
 62
7
100
AcDbPolyline
 90
3
 70
0
 10
81.993110
 20
87.565350
 30
0.0
 10
81.997110
 20
87.561350
 30
0.0
 10
82.001110
 20
87.557350
 30
0.0
  0
SPLINE
  5
157
100
AcDbEntity
  8
Ebene_1
 62
7
100
AcDbSpline
 70
8
 71
3
 72
8
 73
4
 74
0
 40
0
 40
0
 40
0
 40
0
 40
1
 40
1
 40
1
 40
1
 10
99.581840
 20
84.924610
 30
0.0
 10
99.581840
 20
84.549870
 30
0.0
 10
99.488040
 20
84.316910
 30
0.0
 10
99.249210
 20
84.055840
 30
0.0
  0
SPLINE
  5
158
100
AcDbEntity
  8
Ebene_1
 62
7
100
AcDbSpline
 70
8
 71
3
 72
8
 73
4
 74
0
 40
0
 40
0
 40
0
 40
0
 40
1
 40
1
 40
1
 40
1
 10
99.249210
 20
84.055840
 30
0.0
 10
99.006590
 20
83.811110
 30
0.0
 10
98.791390
 20
83.714820
 30
0.0
 10
98.461790
 20
83.714820
 30
0.0
  0
LWPOLYLINE
  5
159
100
AcDbEntity
  8
Ebene_1
 62
7
100
AcDbPolyline
 90
3
 70
0
 10
85.233480
 20
86.134420
 30
0.0
 10
99.581840
 20
86.134420
 30
0.0
 10
99.581840
 20
84.924610
 30
0.0
  0
SPLINE
  5
15a
100
AcDbEntity
  8
Ebene_1
 62
7
100
AcDbSpline
 70
8
 71
3
 72
8
 73
4
 74
0
 40
0
 40
0
 40
0
 40
0
 40
1
 40
1
 40
1
 40
1
 10
100.252760
 20
77.976280
 30
0.0
 10
101.568550
 20
77.792050
 30
0.0
 10
102.704080
 20
78.498340
 30
0.0
 10
103.547160
 20
79.385000
 30
0.0
  0
SPLINE
  5
15b
100
AcDbEntity
  8
Ebene_1
 62
7
100
AcDbSpline
 70
8
 71
3
 72
8
 73
4
 74
0
 40
0
 40
0
 40
0
 40
0
 40
1
 40
1
 40
1
 40
1
 10
103.547160
 20
79.385000
 30
0.0
 10
104.429330
 20
80.312780
 30
0.0
 10
104.900250
 20
81.539210
 30
0.0
 10
104.900250
 20
82.882450
 30
0.0
  0
LWPOLYLINE
  5
15c
100
AcDbEntity
  8
Ebene_1
 62
7
100
AcDbPolyline
 90
12
 70
0
 10
98.461790
 20
83.714820
 30
0.0
 10
80.683730
 20
83.714820
 30
0.0
 10
80.683730
 20
69.804170
 30
0.0
 10
81.452360
 20
69.804170
 30
0.0
 10
86.002110
 20
69.804170
 30
0.0
 10
86.002110
 20
77.968280
 30
0.0
 10
90.583810
 20
77.968280
 30
0.0
 10
98.142310
 20
69.804170
 30
0.0
 10
105.990220
 20
69.804170
 30
0.0
 10
98.431720
 20
77.968280
 30
0.0
 10
100.352360
 20
77.968280
 30
0.0
 10
100.252760
 20
77.976280
 30
0.0
  0
LWPOLYLINE
  5
15d
100
AcDbEntity
  8
Ebene_1
 62
7
100
AcDbPolyline
 90
3
 70
0
 10
104.900250
 20
82.882450
 30
0.0
 10
104.900250
 20
91.878800
 30
0.0
 10
80.683240
 20
91.878810
 30
0.0
  0
LWPOLYLINE
  5
15e
100
AcDbEntity
  8
Ebene_1
 62
7
100
AcDbPolyline
 90
9
 70
1
 10
124.600330
 20
91.878810
 30
0.0
 10
114.380760
 20
80.842450
 30
0.0
 10
124.600330
 20
69.804060
 30
0.0
 10
124.919810
 20
69.804060
 30
0.0
 10
132.446360
 20
69.804060
 30
0.0
 10
122.223030
 20
80.846510
 30
0.0
 10
123.322410
 20
82.052240
 30
0.0
 10
123.348710
 20
82.052240
 30
0.0
 10
132.446340
 20
91.878810
 30
0.0
  0
LWPOLYLINE
  5
15f
100
AcDbEntity
  8
Ebene_1
 62
7
100
AcDbPolyline
 90
5
 70
1
 10
107.139860
 20
91.878810
 30
0.0
 10
107.139860
 20
69.804060
 30
0.0
 10
107.910370
 20
69.804060
 30
0.0
 10
112.460130
 20
69.804060
 30
0.0
 10
112.460130
 20
91.878810
 30
0.0
  0
LWPOLYLINE
  5
160
100
AcDbEntity
  8
Ebene_1
 62
7
100
AcDbPolyline
 90
5
 70
1
 10
133.598360
 20
91.878810
 30
0.0
 10
133.598360
 20
69.804060
 30
0.0
 10
134.368870
 20
69.804060
 30
0.0
 10
138.918630
 20
69.804060
 30
0.0
 10
138.918630
 20
91.878810
 30
0.0
  0
LWPOLYLINE
  5
161
100
AcDbEntity
  8
Ebene_1
 62
7
100
AcDbPolyline
 90
12
 70
1
 10
140.068755
 20
91.878810
 30
0.0
 10
144.937990
 20
86.621470
 30
0.0
 10
144.937990
 20
69.804060
 30
0.0
 10
145.706619
 20
69.804060
 30
0.0
 10
150.256375
 20
69.804060
 30
0.0
 10
150.256375
 20
80.876950
 30
0.0
 10
160.507893
 20
69.804060
 30
0.0
 10
165.375250
 20
69.804060
 30
0.0
 10
165.375250
 20
91.878810
 30
0.0
 10
160.056864
 20
91.878810
 30
0.0
 10
160.056864
 20
78.765900
 30
0.0
 10
147.916662
 20
91.878810
 30
0.0
  0
SPLINE
  5
162
100
AcDbEntity
  8
Ebene_1
 62
7
100
AcDbSpline
 70
8
 71
3
 72
8
 73
4
 74
0
 40
0
 40
0
 40
0
 40
0
 40
1
 40
1
 40
1
 40
1
 10
167.615362
 20
74.718350
 30
0.0
 10
167.615362
 20
73.397920
 30
0.0
 10
168.073939
 20
72.181530
 30
0.0
 10
168.927105
 20
71.235110
 30
0.0
  0
LWPOLYLINE
  5
163
100
AcDbEntity
  8
Ebene_1
 62
7
100
AcDbPolyline
 90
2
 70
0
 10
167.615362
 20
83.714700
 30
0.0
 10
167.615362
 20
74.718350
 30
0.0
  0
SPLINE
  5
164
100
AcDbEntity
  8
Ebene_1
 62
7
100
AcDbSpline
 70
8
 71
3
 72
8
 73
4
 74
0
 40
0
 40
0
 40
0
 40
0
 40
1
 40
1
 40
1
 40
1
 10
168.934705
 20
71.227110
 30
0.0
 10
169.795482
 20
70.297360
 30
0.0
 10
170.926353
 20
69.804170
 30
0.0
 10
172.165202
 20
69.804170
 30
0.0
  0
LWPOLYLINE
  5
165
100
AcDbEntity
  8
Ebene_1
 62
7
100
AcDbPolyline
 90
3
 70
0
 10
168.927105
 20
71.235110
 30
0.0
 10
168.930905
 20
71.231110
 30
0.0
 10
168.934705
 20
71.227110
 30
0.0
  0
SPLINE
  5
166
100
AcDbEntity
  8
Ebene_1
 62
7
100
AcDbSpline
 70
8
 71
3
 72
8
 73
4
 74
0
 40
0
 40
0
 40
0
 40
0
 40
1
 40
1
 40
1
 40
1
 10
175.175822
 20
82.882260
 30
0.0
 10
175.175822
 20
81.561830
 30
0.0
 10
175.632525
 20
80.347480
 30
0.0
 10
176.485686
 20
79.401050
 30
0.0
  0
LWPOLYLINE
  5
167
100
AcDbEntity
  8
Ebene_1
 62
7
100
AcDbPolyline
 90
5
 70
0
 10
172.165202
 20
69.804170
 30
0.0
 10
191.833834
 20
69.804170
 30
0.0
 10
191.833834
 20
83.714510
 30
0.0
 10
175.175822
 20
83.714510
 30
0.0
 10
175.175822
 20
82.882260
 30
0.0
  0
SPLINE
  5
168
100
AcDbEntity
  8
Ebene_1
 62
7
100
AcDbSpline
 70
8
 71
3
 72
8
 73
4
 74
0
 40
0
 40
0
 40
0
 40
0
 40
1
 40
1
 40
1
 40
1
 10
176.493286
 20
79.393050
 30
0.0
 10
177.354061
 20
78.463320
 30
0.0
 10
178.486813
 20
77.968090
 30
0.0
 10
179.725661
 20
77.968090
 30
0.0
  0
LWPOLYLINE
  5
169
100
AcDbEntity
  8
Ebene_1
 62
7
100
AcDbPolyline
 90
3
 70
0
 10
176.485686
 20
79.401050
 30
0.0
 10
176.489486
 20
79.397050
 30
0.0
 10
176.493286
 20
79.393050
 30
0.0
  0
SPLINE
  5
16a
100
AcDbEntity
  8
Ebene_1
 62
7
100
AcDbSpline
 70
8
 71
3
 72
8
 73
4
 74
0
 40
0
 40
0
 40
0
 40
0
 40
1
 40
1
 40
1
 40
1
 10
174.055848
 20
75.548490
 30
0.0
 10
173.703589
 20
75.548490
 30
0.0
 10
173.481637
 20
75.652210
 30
0.0
 10
173.245875
 20
75.887480
 30
0.0
  0
SPLINE
  5
16b
100
AcDbEntity
  8
Ebene_1
 62
7
100
AcDbSpline
 70
8
 71
3
 72
8
 73
4
 74
0
 40
0
 40
0
 40
0
 40
0
 40
1
 40
1
 40
1
 40
1
 10
173.245875
 20
75.887480
 30
0.0
 10
173.030356
 20
76.140790
 30
0.0
 10
172.935792
 20
76.379640
 30
0.0
 10
172.935792
 20
76.758290
 30
0.0
  0
LWPOLYLINE
  5
16c
100
AcDbEntity
  8
Ebene_1
 62
7
100
AcDbPolyline
 90
4
 70
0
 10
179.725661
 20
77.968090
 30
0.0
 10
186.515530
 20
77.968090
 30
0.0
 10
186.515530
 20
75.548490
 30
0.0
 10
174.055848
 20
75.548490
 30
0.0
  0
LWPOLYLINE
  5
16d
100
AcDbEntity
  8
Ebene_1
 62
7
100
AcDbPolyline
 90
3
 70
0
 10
172.935792
 20
76.758290
 30
0.0
 10
172.935792
 20
83.714630
 30
0.0
 10
167.615362
 20
83.714700
 30
0.0
  0
SPLINE
  5
16e
100
AcDbEntity
  8
Ebene_1
 62
7
100
AcDbSpline
 70
8
 71
3
 72
8
 73
4
 74
0
 40
0
 40
0
 40
0
 40
0
 40
1
 40
1
 40
1
 40
1
 10
187.283994
 20
86.134300
 30
0.0
 10
188.490234
 20
86.134300
 30
0.0
 10
189.604981
 20
86.630150
 30
0.0
 10
190.478784
 20
87.549110
 30
0.0
  0
SPLINE
  5
16f
100
AcDbEntity
  8
Ebene_1
 62
7
100
AcDbSpline
 70
8
 71
3
 72
8
 73
4
 74
0
 40
0
 40
0
 40
0
 40
0
 40
1
 40
1
 40
1
 40
1
 10
190.478784
 20
87.549110
 30
0.0
 10
191.360950
 20
88.476890
 30
0.0
 10
191.833751
 20
89.705360
 30
0.0
 10
191.833751
 20
91.048600
 30
0.0
  0
LWPOLYLINE
  5
170
100
AcDbEntity
  8
Ebene_1
 62
7
100
AcDbPolyline
 90
4
 70
0
 10
167.615362
 20
91.878810
 30
0.0
 10
167.615362
 20
86.134300
 30
0.0
 10
168.385870
 20
86.134300
 30
0.0
 10
187.283994
 20
86.134300
 30
0.0
  0
LWPOLYLINE
  5
171
100
AcDbEntity
  8
Ebene_1
 62
7
100
AcDbPolyline
 90
3
 70
0
 10
191.833751
 20
91.048600
 30
0.0
 10
191.833751
 20
91.878810
 30
0.0
 10
167.615362
 20
91.878810
 30
0.0
  0
LWPOLYLINE
  5
172
100
AcDbEntity
  8
Ebene_1
 62
7
100
AcDbPolyline
 90
9
 70
1
 10
58.003990
 20
54.190350
 30
0.0
 10
58.003990
 20
40.279700
 30
0.0
 10
58.774500
 20
40.279700
 30
0.0
 10
82.222380
 20
40.279700
 30
0.0
 10
82.222380
 20
54.190350
 30
0.0
 10
76.903990
 20
54.190350
 30
0.0
 10
76.903990
 20
46.024220
 30
0.0
 10
63.324250
 20
46.024220
 30
0.0
 10
63.324250
 20
54.190350
 30
0.0
  0
SPLINE
  5
173
100
AcDbEntity
  8
Ebene_1
 62
7
100
AcDbSpline
 70
8
 71
3
 72
8
 73
4
 74
0
 40
0
 40
0
 40
0
 40
0
 40
1
 40
1
 40
1
 40
1
 10
58.003990
 20
61.522220
 30
0.0
 10
58.003990
 20
60.201790
 30
0.0
 10
58.462580
 20
58.987420
 30
0.0
 10
59.315740
 20
58.041000
 30
0.0
  0
LWPOLYLINE
  5
174
100
AcDbEntity
  8
Ebene_1
 62
7
100
AcDbPolyline
 90
2
 70
0
 10
58.003990
 20
62.354460
 30
0.0
 10
58.003990
 20
61.522220
 30
0.0
  0
SPLINE
  5
175
100
AcDbEntity
  8
Ebene_1
 62
7
100
AcDbSpline
 70
8
 71
3
 72
8
 73
4
 74
0
 40
0
 40
0
 40
0
 40
0
 40
1
 40
1
 40
1
 40
1
 10
59.323740
 20
58.033000
 30
0.0
 10
60.184520
 20
57.103260
 30
0.0
 10
61.315390
 20
56.610070
 30
0.0
 10
62.554240
 20
56.610070
 30
0.0
  0
LWPOLYLINE
  5
176
100
AcDbEntity
  8
Ebene_1
 62
7
100
AcDbPolyline
 90
3
 70
0
 10
59.315740
 20
58.041000
 30
0.0
 10
59.319740
 20
58.037000
 30
0.0
 10
59.323740
 20
58.033000
 30
0.0
  0
SPLINE
  5
177
100
AcDbEntity
  8
Ebene_1
 62
7
100
AcDbSpline
 70
8
 71
3
 72
8
 73
4
 74
0
 40
0
 40
0
 40
0
 40
0
 40
1
 40
1
 40
1
 40
1
 10
77.673110
 20
56.610070
 30
0.0
 10
78.879350
 20
56.610070
 30
0.0
 10
79.994100
 20
57.105900
 30
0.0
 10
80.867910
 20
58.024880
 30
0.0
  0
SPLINE
  5
178
100
AcDbEntity
  8
Ebene_1
 62
7
100
AcDbSpline
 70
8
 71
3
 72
8
 73
4
 74
0
 40
0
 40
0
 40
0
 40
0
 40
1
 40
1
 40
1
 40
1
 10
80.867910
 20
58.024880
 30
0.0
 10
81.750070
 20
58.952660
 30
0.0
 10
82.222870
 20
60.179100
 30
0.0
 10
82.222870
 20
61.522340
 30
0.0
  0
LWPOLYLINE
  5
179
100
AcDbEntity
  8
Ebene_1
 62
7
100
AcDbPolyline
 90
2
 70
0
 10
62.554240
 20
56.610070
 30
0.0
 10
77.673110
 20
56.610070
 30
0.0
  0
LWPOLYLINE
  5
17a
100
AcDbEntity
  8
Ebene_1
 62
7
100
AcDbPolyline
 90
3
 70
0
 10
82.222870
 20
61.522340
 30
0.0
 10
82.222870
 20
62.354580
 30
0.0
 10
58.003990
 20
62.354460
 30
0.0
  0
LWPOLYLINE
  5
17b
100
AcDbEntity
  8
Ebene_1
 62
7
100
AcDbPolyline
 90
12
 70
1
 10
83.374380
 20
62.354460
 30
0.0
 10
88.241740
 20
57.097110
 30
0.0
 10
88.241740
 20
40.279700
 30
0.0
 10
89.012250
 20
40.279700
 30
0.0
 10
93.562000
 20
40.279700
 30
0.0
 10
93.562000
 20
51.350580
 30
0.0
 10
103.811650
 20
40.279700
 30
0.0
 10
108.680870
 20
40.279700
 30
0.0
 10
108.680870
 20
62.354460
 30
0.0
 10
103.360620
 20
62.354460
 30
0.0
 10
103.360620
 20
49.241550
 30
0.0
 10
91.220410
 20
62.354460
 30
0.0
  0
SPLINE
  5
17c
100
AcDbEntity
  8
Ebene_1
 62
7
100
AcDbSpline
 70
8
 71
3
 72
8
 73
4
 74
0
 40
0
 40
0
 40
0
 40
0
 40
1
 40
1
 40
1
 40
1
 10
130.589630
 20
40.279700
 30
0.0
 10
131.795860
 20
40.279700
 30
0.0
 10
132.908730
 20
40.775540
 30
0.0
 10
133.782540
 20
41.694520
 30
0.0
  0
SPLINE
  5
17d
100
AcDbEntity
  8
Ebene_1
 62
7
100
AcDbSpline
 70
8
 71
3
 72
8
 73
4
 74
0
 40
0
 40
0
 40
0
 40
0
 40
1
 40
1
 40
1
 40
1
 10
133.782540
 20
41.694520
 30
0.0
 10
134.664700
 20
42.622300
 30
0.0
 10
135.137500
 20
43.850760
 30
0.0
 10
135.137500
 20
45.194000
 30
0.0
  0
LWPOLYLINE
  5
17e
100
AcDbEntity
  8
Ebene_1
 62
7
100
AcDbPolyline
 90
4
 70
0
 10
110.920990
 20
62.354460
 30
0.0
 10
110.920990
 20
40.279700
 30
0.0
 10
111.689620
 20
40.279700
 30
0.0
 10
130.589630
 20
40.279700
 30
0.0
  0
LWPOLYLINE
  5
17f
100
AcDbEntity
  8
Ebene_1
 62
7
100
AcDbPolyline
 90
5
 70
0
 10
135.137500
 20
45.194000
 30
0.0
 10
135.137500
 20
46.024220
 30
0.0
 10
116.239370
 20
46.024220
 30
0.0
 10
116.239370
 20
62.354460
 30
0.0
 10
110.920990
 20
62.354460
 30
0.0
  0
SPLINE
  5
180
100
AcDbEntity
  8
Ebene_1
 62
7
100
AcDbSpline
 70
8
 71
3
 72
8
 73
4
 74
0
 40
0
 40
0
 40
0
 40
0
 40
1
 40
1
 40
1
 40
1
 10
109.721240
 20
101.780070
 30
0.0
 10
109.527230
 20
102.803270
 30
0.0
 10
92.833090
 20
196.005870
 30
0.0
 10
92.833090
 20
196.065820
 30
0.0
  0
SPLINE
  5
181
100
AcDbEntity
  8
Ebene_1
 62
7
100
AcDbSpline
 70
8
 71
3
 72
8
 73
4
 74
0
 40
0
 40
0
 40
0
 40
0
 40
1
 40
1
 40
1
 40
1
 10
92.833090
 20
196.065820
 30
0.0
 10
92.833090
 20
196.151020
 30
0.0
 10
87.902360
 20
196.026320
 30
0.0
 10
85.423930
 20
195.878480
 30
0.0
  0
SPLINE
  5
182
100
AcDbEntity
  8
Ebene_1
 62
7
100
AcDbSpline
 70
8
 71
3
 72
8
 73
4
 74
0
 40
0
 40
0
 40
0
 40
0
 40
1
 40
1
 40
1
 40
1
 10
85.423930
 20
195.878480
 30
0.0
 10
78.048270
 20
195.438630
 30
0.0
 10
74.254760
 20
194.147020
 30
0.0
 10
72.421260
 20
191.451350
 30
0.0
  0
SPLINE
  5
183
100
AcDbEntity
  8
Ebene_1
 62
7
100
AcDbSpline
 70
8
 71
3
 72
8
 73
4
 74
0
 40
0
 40
0
 40
0
 40
0
 40
1
 40
1
 40
1
 40
1
 10
72.421260
 20
191.451350
 30
0.0
 10
71.745260
 20
190.457470
 30
0.0
 10
71.463040
 20
189.748810
 30
0.0
 10
71.168010
 20
188.304670
 30
0.0
  0
SPLINE
  5
184
100
AcDbEntity
  8
Ebene_1
 62
7
100
AcDbSpline
 70
8
 71
3
 72
8
 73
4
 74
0
 40
0
 40
0
 40
0
 40
0
 40
1
 40
1
 40
1
 40
1
 10
71.168010
 20
188.304670
 30
0.0
 10
71.048140
 20
187.717900
 30
0.0
 10
70.928200
 20
187.215950
 30
0.0
 10
70.901490
 20
187.189240
 30
0.0
  0
SPLINE
  5
185
100
AcDbEntity
  8
Ebene_1
 62
7
100
AcDbSpline
 70
8
 71
3
 72
8
 73
4
 74
0
 40
0
 40
0
 40
0
 40
0
 40
1
 40
1
 40
1
 40
1
 10
70.901490
 20
187.189240
 30
0.0
 10
70.811690
 20
187.099440
 30
0.0
 10
67.746530
 20
188.555870
 30
0.0
 10
66.210780
 20
189.418070
 30
0.0
  0
SPLINE
  5
186
100
AcDbEntity
  8
Ebene_1
 62
7
100
AcDbSpline
 70
8
 71
3
 72
8
 73
4
 74
0
 40
0
 40
0
 40
0
 40
0
 40
1
 40
1
 40
1
 40
1
 10
66.210780
 20
189.418070
 30
0.0
 10
61.617330
 20
191.996920
 30
0.0
 10
58.011110
 20
194.982800
 30
0.0
 10
55.557880
 20
198.238490
 30
0.0
  0
SPLINE
  5
187
100
AcDbEntity
  8
Ebene_1
 62
7
100
AcDbSpline
 70
8
 71
3
 72
8
 73
4
 74
0
 40
0
 40
0
 40
0
 40
0
 40
1
 40
1
 40
1
 40
1
 10
55.557880
 20
198.238490
 30
0.0
 10
55.197460
 20
198.716790
 30
0.0
 10
54.902580
 20
199.147280
 30
0.0
 10
54.902580
 20
199.195130
 30
0.0
  0
SPLINE
  5
188
100
AcDbEntity
  8
Ebene_1
 62
7
100
AcDbSpline
 70
8
 71
3
 72
8
 73
4
 74
0
 40
0
 40
0
 40
0
 40
0
 40
1
 40
1
 40
1
 40
1
 10
54.902580
 20
199.195130
 30
0.0
 10
54.902580
 20
199.243030
 30
0.0
 10
55.089200
 20
199.359370
 30
0.0
 10
55.317270
 20
199.453750
 30
0.0
  0
SPLINE
  5
189
100
AcDbEntity
  8
Ebene_1
 62
7
100
AcDbSpline
 70
8
 71
3
 72
8
 73
4
 74
0
 40
0
 40
0
 40
0
 40
0
 40
1
 40
1
 40
1
 40
1
 10
55.317270
 20
199.453750
 30
0.0
 10
55.545350
 20
199.548150
 30
0.0
 10
56.528180
 20
199.971750
 30
0.0
 10
57.501320
 20
200.395114
 30
0.0
  0
SPLINE
  5
18a
100
AcDbEntity
  8
Ebene_1
 62
7
100
AcDbSpline
 70
8
 71
3
 72
8
 73
4
 74
0
 40
0
 40
0
 40
0
 40
0
 40
1
 40
1
 40
1
 40
1
 10
57.501320
 20
200.395114
 30
0.0
 10
68.651100
 20
205.245751
 30
0.0
 10
83.144130
 20
208.636252
 30
0.0
 10
96.150630
 20
209.436732
 30
0.0
  0
LWPOLYLINE
  5
18b
100
AcDbEntity
  8
Ebene_1
 62
7
100
AcDbPolyline
 90
14
 70
1
 10
137.377610
 20
62.354460
 30
0.0
 10
137.377610
 20
57.097110
 30
0.0
 10
146.826674
 20
46.888940
 30
0.0
 10
146.826674
 20
40.279700
 30
0.0
 10
147.597183
 20
40.279700
 30
0.0
 10
152.146940
 20
40.279700
 30
0.0
 10
152.146940
 20
46.888940
 30
0.0
 10
161.596002
 20
57.097110
 30
0.0
 10
161.596002
 20
62.354460
 30
0.0
 10
156.277616
 20
62.354460
 30
0.0
 10
156.277616
 20
59.827280
 30
0.0
 10
149.487746
 20
52.493390
 30
0.0
 10
142.697877
 20
59.827280
 30
0.0
 10
142.697877
 20
62.354460
 30
0.0
  0
SPLINE
  5
18c
100
AcDbEntity
  8
Ebene_1
 62
7
100
AcDbSpline
 70
8
 71
3
 72
8
 73
4
 74
0
 40
0
 40
0
 40
0
 40
0
 40
1
 40
1
 40
1
 40
1
 10
103.544210
 20
201.913733
 30
0.0
 10
106.972050
 20
197.736780
 30
0.0
 10
109.814580
 20
194.361120
 30
0.0
 10
109.860920
 20
194.412260
 30
0.0
  0
SPLINE
  5
18d
100
AcDbEntity
  8
Ebene_1
 62
7
100
AcDbSpline
 70
8
 71
3
 72
8
 73
4
 74
0
 40
0
 40
0
 40
0
 40
0
 40
1
 40
1
 40
1
 40
1
 10
109.860920
 20
194.412260
 30
0.0
 10
109.907320
 20
194.463360
 30
0.0
 10
112.689390
 20
197.849390
 30
0.0
 10
116.043370
 20
201.936647
 30
0.0
  0
SPLINE
  5
18e
100
AcDbEntity
  8
Ebene_1
 62
7
100
AcDbSpline
 70
8
 71
3
 72
8
 73
4
 74
0
 40
0
 40
0
 40
0
 40
0
 40
1
 40
1
 40
1
 40
1
 10
116.043370
 20
201.936647
 30
0.0
 10
119.397380
 20
206.023909
 30
0.0
 10
122.192800
 20
209.399701
 30
0.0
 10
122.255400
 20
209.438402
 30
0.0
  0
SPLINE
  5
18f
100
AcDbEntity
  8
Ebene_1
 62
7
100
AcDbSpline
 70
8
 71
3
 72
8
 73
4
 74
0
 40
0
 40
0
 40
0
 40
0
 40
1
 40
1
 40
1
 40
1
 10
122.255400
 20
209.438402
 30
0.0
 10
122.386020
 20
209.519122
 30
0.0
 10
125.175410
 20
209.339212
 30
0.0
 10
127.611940
 20
209.092925
 30
0.0
  0
SPLINE
  5
190
100
AcDbEntity
  8
Ebene_1
 62
7
100
AcDbSpline
 70
8
 71
3
 72
8
 73
4
 74
0
 40
0
 40
0
 40
0
 40
0
 40
1
 40
1
 40
1
 40
1
 10
127.611940
 20
209.092925
 30
0.0
 10
137.887140
 20
208.054276
 30
0.0
 10
148.207010
 20
205.676593
 30
0.0
 10
157.580360
 20
202.188225
 30
0.0
  0
SPLINE
  5
191
100
AcDbEntity
  8
Ebene_1
 62
7
100
AcDbSpline
 70
8
 71
3
 72
8
 73
4
 74
0
 40
0
 40
0
 40
0
 40
0
 40
1
 40
1
 40
1
 40
1
 10
157.580360
 20
202.188225
 30
0.0
 10
159.792510
 20
201.364948
 30
0.0
 10
163.350880
 20
199.895540
 30
0.0
 10
164.278920
 20
199.422100
 30
0.0
  0
LWPOLYLINE
  5
192
100
AcDbEntity
  8
Ebene_1
 62
7
100
AcDbPolyline
 90
3
 70
0
 10
96.150630
 20
209.436732
 30
0.0
 10
97.311760
 20
209.508202
 30
0.0
 10
103.544210
 20
201.913733
 30
0.0
  0
SPLINE
  5
193
100
AcDbEntity
  8
Ebene_1
 62
7
100
AcDbSpline
 70
8
 71
3
 72
8
 73
4
 74
0
 40
0
 40
0
 40
0
 40
0
 40
1
 40
1
 40
1
 40
1
 10
164.153220
 20
198.432010
 30
0.0
 10
161.979830
 20
195.443860
 30
0.0
 10
158.572620
 20
192.507370
 30
0.0
 10
154.353140
 20
189.985800
 30
0.0
  0
SPLINE
  5
194
100
AcDbEntity
  8
Ebene_1
 62
7
100
AcDbSpline
 70
8
 71
3
 72
8
 73
4
 74
0
 40
0
 40
0
 40
0
 40
0
 40
1
 40
1
 40
1
 40
1
 10
154.353140
 20
189.985800
 30
0.0
 10
153.192690
 20
189.292310
 30
0.0
 10
149.351230
 20
187.364230
 30
0.0
 10
148.827460
 20
187.212370
 30
0.0
  0
SPLINE
  5
195
100
AcDbEntity
  8
Ebene_1
 62
7
100
AcDbSpline
 70
8
 71
3
 72
8
 73
4
 74
0
 40
0
 40
0
 40
0
 40
0
 40
1
 40
1
 40
1
 40
1
 10
148.827460
 20
187.212370
 30
0.0
 10
148.611310
 20
187.149670
 30
0.0
 10
148.582330
 20
187.196770
 30
0.0
 10
148.510420
 20
187.727960
 30
0.0
  0
SPLINE
  5
196
100
AcDbEntity
  8
Ebene_1
 62
7
100
AcDbSpline
 70
8
 71
3
 72
8
 73
4
 74
0
 40
0
 40
0
 40
0
 40
0
 40
1
 40
1
 40
1
 40
1
 10
148.510420
 20
187.727960
 30
0.0
 10
148.466920
 20
188.049460
 30
0.0
 10
148.309690
 20
188.734160
 30
0.0
 10
148.161080
 20
189.249510
 30
0.0
  0
SPLINE
  5
197
100
AcDbEntity
  8
Ebene_1
 62
7
100
AcDbSpline
 70
8
 71
3
 72
8
 73
4
 74
0
 40
0
 40
0
 40
0
 40
0
 40
1
 40
1
 40
1
 40
1
 10
148.161080
 20
189.249510
 30
0.0
 10
146.990800
 20
193.307790
 30
0.0
 10
143.533040
 20
195.109840
 30
0.0
 10
135.629320
 20
195.780560
 30
0.0
  0
SPLINE
  5
198
100
AcDbEntity
  8
Ebene_1
 62
7
100
AcDbSpline
 70
8
 71
3
 72
8
 73
4
 74
0
 40
0
 40
0
 40
0
 40
0
 40
1
 40
1
 40
1
 40
1
 10
135.629320
 20
195.780560
 30
0.0
 10
133.908370
 20
195.926600
 30
0.0
 10
126.751050
 20
196.114020
 30
0.0
 10
126.661120
 20
196.015390
 30
0.0
  0
SPLINE
  5
199
100
AcDbEntity
  8
Ebene_1
 62
7
100
AcDbSpline
 70
8
 71
3
 72
8
 73
4
 74
0
 40
0
 40
0
 40
0
 40
0
 40
1
 40
1
 40
1
 40
1
 10
126.661120
 20
196.015390
 30
0.0
 10
126.615120
 20
195.964990
 30
0.0
 10
112.798220
 20
118.456270
 30
0.0
 10
109.882230
 20
101.890650
 30
0.0
  0
LWPOLYLINE
  5
19a
100
AcDbEntity
  8
Ebene_1
 62
7
100
AcDbPolyline
 90
3
 70
0
 10
164.278920
 20
199.422100
 30
0.0
 10
164.712480
 20
199.200910
 30
0.0
 10
164.153220
 20
198.432010
 30
0.0
  0
SPLINE
  5
19b
100
AcDbEntity
  8
Ebene_1
 62
7
100
AcDbSpline
 70
8
 71
3
 72
8
 73
4
 74
0
 40
0
 40
0
 40
0
 40
0
 40
1
 40
1
 40
1
 40
1
 10
164.713070
 20
203.376462
 30
0.0
 10
151.505540
 20
208.946667
 30
0.0
 10
136.500210
 20
212.491181
 30
0.0
 10
121.529790
 20
213.577081
 30
0.0
  0
SPLINE
  5
19c
100
AcDbEntity
  8
Ebene_1
 62
7
100
AcDbSpline
 70
8
 71
3
 72
8
 73
4
 74
0
 40
0
 40
0
 40
0
 40
0
 40
1
 40
1
 40
1
 40
1
 10
121.529790
 20
213.577081
 30
0.0
 10
116.720110
 20
213.925956
 30
0.0
 10
106.728040
 20
214.040204
 30
0.0
 10
101.889590
 20
213.801644
 30
0.0
  0
SPLINE
  5
19d
100
AcDbEntity
  8
Ebene_1
 62
7
100
AcDbSpline
 70
8
 71
3
 72
8
 73
4
 74
0
 40
0
 40
0
 40
0
 40
0
 40
1
 40
1
 40
1
 40
1
 10
101.889590
 20
213.801644
 30
0.0
 10
85.122130
 20
212.974918
 30
0.0
 10
69.695750
 20
209.557813
 30
0.0
 10
54.870110
 20
203.386340
 30
0.0
  0
SPLINE
  5
19e
100
AcDbEntity
  8
Ebene_1
 62
7
100
AcDbSpline
 70
8
 71
3
 72
8
 73
4
 74
0
 40
0
 40
0
 40
0
 40
0
 40
1
 40
1
 40
1
 40
1
 10
54.870110
 20
203.386340
 30
0.0
 10
53.848680
 20
202.961155
 30
0.0
 10
52.949380
 20
202.637681
 30
0.0
 10
52.871660
 20
202.667502
 30
0.0
  0
SPLINE
  5
19f
100
AcDbEntity
  8
Ebene_1
 62
7
100
AcDbSpline
 70
8
 71
3
 72
8
 73
4
 74
0
 40
0
 40
0
 40
0
 40
0
 40
1
 40
1
 40
1
 40
1
 10
52.871660
 20
202.667502
 30
0.0
 10
52.793960
 20
202.697372
 30
0.0
 10
52.154450
 20
203.883688
 30
0.0
 10
51.450590
 20
205.303866
 30
0.0
  0
SPLINE
  5
1a0
100
AcDbEntity
  8
Ebene_1
 62
7
100
AcDbSpline
 70
8
 71
3
 72
8
 73
4
 74
0
 40
0
 40
0
 40
0
 40
0
 40
1
 40
1
 40
1
 40
1
 10
51.450590
 20
205.303866
 30
0.0
 10
50.133700
 20
207.960949
 30
0.0
 10
49.520000
 20
209.341240
 30
0.0
 10
49.613810
 20
209.435048
 30
0.0
  0
SPLINE
  5
1a1
100
AcDbEntity
  8
Ebene_1
 62
7
100
AcDbSpline
 70
8
 71
3
 72
8
 73
4
 74
0
 40
0
 40
0
 40
0
 40
0
 40
1
 40
1
 40
1
 40
1
 10
49.613810
 20
209.435048
 30
0.0
 10
49.709810
 20
209.530988
 30
0.0
 10
53.576240
 20
210.991695
 30
0.0
 10
55.842550
 20
211.788177
 30
0.0
  0
SPLINE
  5
1a2
100
AcDbEntity
  8
Ebene_1
 62
7
100
AcDbSpline
 70
8
 71
3
 72
8
 73
4
 74
0
 40
0
 40
0
 40
0
 40
0
 40
1
 40
1
 40
1
 40
1
 10
55.842550
 20
211.788177
 30
0.0
 10
77.088390
 20
219.254934
 30
0.0
 10
99.778380
 20
222.349165
 30
0.0
 10
121.253330
 20
220.708232
 30
0.0
  0
SPLINE
  5
1a3
100
AcDbEntity
  8
Ebene_1
 62
7
100
AcDbSpline
 70
8
 71
3
 72
8
 73
4
 74
0
 40
0
 40
0
 40
0
 40
0
 40
1
 40
1
 40
1
 40
1
 10
121.253330
 20
220.708232
 30
0.0
 10
137.315300
 20
219.480911
 30
0.0
 10
152.452940
 20
216.092813
 30
0.0
 10
167.862050
 20
210.276291
 30
0.0
  0
SPLINE
  5
1a4
100
AcDbEntity
  8
Ebene_1
 62
7
100
AcDbSpline
 70
8
 71
3
 72
8
 73
4
 74
0
 40
0
 40
0
 40
0
 40
0
 40
1
 40
1
 40
1
 40
1
 10
167.862050
 20
210.276291
 30
0.0
 10
169.009300
 20
209.843235
 30
0.0
 10
169.967670
 20
209.469202
 30
0.0
 10
169.991760
 20
209.445105
 30
0.0
  0
SPLINE
  5
1a5
100
AcDbEntity
  8
Ebene_1
 62
7
100
AcDbSpline
 70
8
 71
3
 72
8
 73
4
 74
0
 40
0
 40
0
 40
0
 40
0
 40
1
 40
1
 40
1
 40
1
 10
169.991760
 20
209.445105
 30
0.0
 10
170.117720
 20
209.319149
 30
0.0
 10
167.036650
 20
202.887221
 30
0.0
 10
166.724450
 20
202.624407
 30
0.0
  0
SPLINE
  5
1a6
100
AcDbEntity
  8
Ebene_1
 62
7
100
AcDbSpline
 70
8
 71
3
 72
8
 73
4
 74
0
 40
0
 40
0
 40
0
 40
0
 40
1
 40
1
 40
1
 40
1
 10
166.724450
 20
202.624407
 30
0.0
 10
166.682550
 20
202.589147
 30
0.0
 10
165.777440
 20
202.927565
 30
0.0
 10
164.713070
 20
203.376462
 30
0.0
  0
LWPOLYLINE
  5
1a7
100
AcDbEntity
  8
Ebene_1
 62
7
100
AcDbPolyline
 90
3
 70
0
 10
109.882230
 20
101.890650
 30
0.0
 10
109.794630
 20
101.393020
 30
0.0
 10
109.721240
 20
101.780070
 30
0.0
  0
LWPOLYLINE
  5
1a8
100
AcDbEntity
  8
Ebene_1
 62
7
100
AcDbPolyline
 90
1
 70
1
 10
164.713070
 20
203.376462
 30
0.0
  0
SPLINE
  5
1a9
100
AcDbEntity
  8
Ebene_1
 62
7
100
AcDbSpline
 70
8
 71
3
 72
8
 73
4
 74
0
 40
0
 40
0
 40
0
 40
0
 40
1
 40
1
 40
1
 40
1
 10
162.639620
 20
254.163651
 30
0.0
 10
162.639620
 20
252.771321
 30
0.0
 10
163.162070
 20
251.487778
 30
0.0
 10
164.133760
 20
250.489823
 30
0.0
  0
LWPOLYLINE
  5
1aa
100
AcDbEntity
  8
Ebene_1
 62
7
100
AcDbPolyline
 90
2
 70
0
 10
162.639620
 20
255.064042
 30
0.0
 10
162.639620
 20
254.163651
 30
0.0
  0
SPLINE
  5
1ab
100
AcDbEntity
  8
Ebene_1
 62
7
100
AcDbSpline
 70
8
 71
3
 72
8
 73
4
 74
0
 40
0
 40
0
 40
0
 40
0
 40
1
 40
1
 40
1
 40
1
 10
164.141760
 20
250.482023
 30
0.0
 10
165.122360
 20
249.501429
 30
0.0
 10
166.414590
 20
248.980070
 30
0.0
 10
167.825350
 20
248.980070
 30
0.0
  0
LWPOLYLINE
  5
1ac
100
AcDbEntity
  8
Ebene_1
 62
7
100
AcDbPolyline
 90
3
 70
0
 10
164.133760
 20
250.489823
 30
0.0
 10
164.137760
 20
250.485923
 30
0.0
 10
164.141760
 20
250.482023
 30
0.0
  0
SPLINE
  5
1ad
100
AcDbEntity
  8
Ebene_1
 62
7
100
AcDbSpline
 70
8
 71
3
 72
8
 73
4
 74
0
 40
0
 40
0
 40
0
 40
0
 40
1
 40
1
 40
1
 40
1
 10
184.965980
 20
248.980070
 30
0.0
 10
186.340020
 20
248.980069
 30
0.0
 10
187.611480
 20
249.503316
 30
0.0
 10
188.606610
 20
250.472257
 30
0.0
  0
SPLINE
  5
1ae
100
AcDbEntity
  8
Ebene_1
 62
7
100
AcDbSpline
 70
8
 71
3
 72
8
 73
4
 74
0
 40
0
 40
0
 40
0
 40
0
 40
1
 40
1
 40
1
 40
1
 10
188.606610
 20
250.472257
 30
0.0
 10
189.611510
 20
251.450720
 30
0.0
 10
190.151530
 20
252.747337
 30
0.0
 10
190.151530
 20
254.163663
 30
0.0
  0
LWPOLYLINE
  5
1af
100
AcDbEntity
  8
Ebene_1
 62
7
100
AcDbPolyline
 90
2
 70
0
 10
167.825350
 20
248.980070
 30
0.0
 10
184.965980
 20
248.980070
 30
0.0
  0
LWPOLYLINE
  5
1b0
100
AcDbEntity
  8
Ebene_1
 62
7
100
AcDbPolyline
 90
3
 70
0
 10
190.151530
 20
254.163663
 30
0.0
 10
190.151530
 20
255.064054
 30
0.0
 10
162.639620
 20
255.064042
 30
0.0
  0
LWPOLYLINE
  5
1b1
100
AcDbEntity
  8
Ebene_1
 62
7
100
AcDbPolyline
 90
9
 70
1
 10
162.639620
 20
246.493729
 30
0.0
 10
162.639620
 20
231.837479
 30
0.0
 10
163.540010
 20
231.837479
 30
0.0
 10
168.725560
 20
231.837479
 30
0.0
 10
168.725560
 20
240.407792
 30
0.0
 10
184.065400
 20
240.407792
 30
0.0
 10
184.065400
 20
231.837479
 30
0.0
 10
190.151340
 20
231.837479
 30
0.0
 10
190.151340
 20
246.493729
 30
0.0
  0
SPLINE
  5
1b2
100
AcDbEntity
  8
Ebene_1
 62
7
100
AcDbSpline
 70
8
 71
3
 72
8
 73
4
 74
0
 40
0
 40
0
 40
0
 40
0
 40
1
 40
1
 40
1
 40
1
 10
29.448210
 20
254.163651
 30
0.0
 10
29.448210
 20
252.771320
 30
0.0
 10
29.970660
 20
251.487778
 30
0.0
 10
30.942350
 20
250.489823
 30
0.0
  0
LWPOLYLINE
  5
1b3
100
AcDbEntity
  8
Ebene_1
 62
7
100
AcDbPolyline
 90
2
 70
0
 10
29.448210
 20
255.064042
 30
0.0
 10
29.448210
 20
254.163651
 30
0.0
  0
SPLINE
  5
1b4
100
AcDbEntity
  8
Ebene_1
 62
7
100
AcDbSpline
 70
8
 71
3
 72
8
 73
4
 74
0
 40
0
 40
0
 40
0
 40
0
 40
1
 40
1
 40
1
 40
1
 10
30.950350
 20
250.482023
 30
0.0
 10
31.930950
 20
249.501428
 30
0.0
 10
33.223170
 20
248.980070
 30
0.0
 10
34.633950
 20
248.980070
 30
0.0
  0
LWPOLYLINE
  5
1b5
100
AcDbEntity
  8
Ebene_1
 62
7
100
AcDbPolyline
 90
3
 70
0
 10
30.942350
 20
250.489823
 30
0.0
 10
30.946350
 20
250.485923
 30
0.0
 10
30.950350
 20
250.482023
 30
0.0
  0
SPLINE
  5
1b6
100
AcDbEntity
  8
Ebene_1
 62
7
100
AcDbSpline
 70
8
 71
3
 72
8
 73
4
 74
0
 40
0
 40
0
 40
0
 40
0
 40
1
 40
1
 40
1
 40
1
 10
51.774580
 20
248.980058
 30
0.0
 10
53.148620
 20
248.980057
 30
0.0
 10
54.420080
 20
249.503305
 30
0.0
 10
55.415210
 20
250.472245
 30
0.0
  0
SPLINE
  5
1b7
100
AcDbEntity
  8
Ebene_1
 62
7
100
AcDbSpline
 70
8
 71
3
 72
8
 73
4
 74
0
 40
0
 40
0
 40
0
 40
0
 40
1
 40
1
 40
1
 40
1
 10
55.415210
 20
250.472245
 30
0.0
 10
56.420120
 20
251.450708
 30
0.0
 10
56.960130
 20
252.747324
 30
0.0
 10
56.960130
 20
254.163651
 30
0.0
  0
LWPOLYLINE
  5
1b8
100
AcDbEntity
  8
Ebene_1
 62
7
100
AcDbPolyline
 90
7
 70
0
 10
34.633950
 20
248.980070
 30
0.0
 10
40.161290
 20
248.980070
 30
0.0
 10
40.161290
 20
231.837479
 30
0.0
 10
41.061690
 20
231.837479
 30
0.0
 10
46.247240
 20
231.837479
 30
0.0
 10
46.247240
 20
248.980058
 30
0.0
 10
51.774580
 20
248.980058
 30
0.0
  0
LWPOLYLINE
  5
1b9
100
AcDbEntity
  8
Ebene_1
 62
7
100
AcDbPolyline
 90
3
 70
0
 10
56.960130
 20
254.163651
 30
0.0
 10
56.960130
 20
255.064042
 30
0.0
 10
29.448210
 20
255.064042
 30
0.0
  0
SPLINE
  5
1ba
100
AcDbEntity
  8
Ebene_1
 62
7
100
AcDbSpline
 70
8
 71
3
 72
8
 73
4
 74
0
 40
0
 40
0
 40
0
 40
0
 40
1
 40
1
 40
1
 40
1
 10
62.745090
 20
237.023026
 30
0.0
 10
62.745090
 20
235.630695
 30
0.0
 10
63.267540
 20
234.347153
 30
0.0
 10
64.239230
 20
233.349198
 30
0.0
  0
LWPOLYLINE
  5
1bb
100
AcDbEntity
  8
Ebene_1
 62
7
100
AcDbPolyline
 90
2
 70
0
 10
62.745090
 20
237.923417
 30
0.0
 10
62.745090
 20
237.023026
 30
0.0
  0
SPLINE
  5
1bc
100
AcDbEntity
  8
Ebene_1
 62
7
100
AcDbSpline
 70
8
 71
3
 72
8
 73
4
 74
0
 40
0
 40
0
 40
0
 40
0
 40
1
 40
1
 40
1
 40
1
 10
64.249230
 20
233.341398
 30
0.0
 10
65.229820
 20
232.360803
 30
0.0
 10
66.520100
 20
231.837491
 30
0.0
 10
67.930870
 20
231.837491
 30
0.0
  0
LWPOLYLINE
  5
1bd
100
AcDbEntity
  8
Ebene_1
 62
7
100
AcDbPolyline
 90
3
 70
0
 10
64.239230
 20
233.349198
 30
0.0
 10
64.243230
 20
233.345298
 30
0.0
 10
64.249230
 20
233.341398
 30
0.0
  0
SPLINE
  5
1be
100
AcDbEntity
  8
Ebene_1
 62
7
100
AcDbSpline
 70
8
 71
3
 72
8
 73
4
 74
0
 40
0
 40
0
 40
0
 40
0
 40
1
 40
1
 40
1
 40
1
 10
85.071490
 20
231.837491
 30
0.0
 10
86.445530
 20
231.837491
 30
0.0
 10
87.718940
 20
232.362692
 30
0.0
 10
88.714070
 20
233.331632
 30
0.0
  0
SPLINE
  5
1bf
100
AcDbEntity
  8
Ebene_1
 62
7
100
AcDbSpline
 70
8
 71
3
 72
8
 73
4
 74
0
 40
0
 40
0
 40
0
 40
0
 40
1
 40
1
 40
1
 40
1
 10
88.714070
 20
233.331632
 30
0.0
 10
89.718980
 20
234.310095
 30
0.0
 10
90.257040
 20
235.606711
 30
0.0
 10
90.257040
 20
237.023038
 30
0.0
  0
LWPOLYLINE
  5
1c0
100
AcDbEntity
  8
Ebene_1
 62
7
100
AcDbPolyline
 90
2
 70
0
 10
67.930870
 20
231.837491
 30
0.0
 10
85.071490
 20
231.837491
 30
0.0
  0
LWPOLYLINE
  5
1c1
100
AcDbEntity
  8
Ebene_1
 62
7
100
AcDbPolyline
 90
3
 70
0
 10
90.257040
 20
237.023038
 30
0.0
 10
90.257040
 20
237.923429
 30
0.0
 10
62.745090
 20
237.923417
 30
0.0
  0
SPLINE
  5
1c2
100
AcDbEntity
  8
Ebene_1
 62
7
100
AcDbSpline
 70
8
 71
3
 72
8
 73
4
 74
0
 40
0
 40
0
 40
0
 40
0
 40
1
 40
1
 40
1
 40
1
 10
62.745090
 20
245.593339
 30
0.0
 10
62.745090
 20
244.201008
 30
0.0
 10
63.267540
 20
242.917465
 30
0.0
 10
64.239230
 20
241.919511
 30
0.0
  0
LWPOLYLINE
  5
1c3
100
AcDbEntity
  8
Ebene_1
 62
7
100
AcDbPolyline
 90
2
 70
0
 10
62.745090
 20
246.493729
 30
0.0
 10
62.745090
 20
245.593339
 30
0.0
  0
SPLINE
  5
1c4
100
AcDbEntity
  8
Ebene_1
 62
7
100
AcDbSpline
 70
8
 71
3
 72
8
 73
4
 74
0
 40
0
 40
0
 40
0
 40
0
 40
1
 40
1
 40
1
 40
1
 10
64.249230
 20
241.911711
 30
0.0
 10
65.229820
 20
240.931116
 30
0.0
 10
66.520100
 20
240.407805
 30
0.0
 10
67.930870
 20
240.407805
 30
0.0
  0
LWPOLYLINE
  5
1c5
100
AcDbEntity
  8
Ebene_1
 62
7
100
AcDbPolyline
 90
3
 70
0
 10
64.239230
 20
241.919511
 30
0.0
 10
64.243230
 20
241.915611
 30
0.0
 10
64.249230
 20
241.911711
 30
0.0
  0
SPLINE
  5
1c6
100
AcDbEntity
  8
Ebene_1
 62
7
100
AcDbSpline
 70
8
 71
3
 72
8
 73
4
 74
0
 40
0
 40
0
 40
0
 40
0
 40
1
 40
1
 40
1
 40
1
 10
85.071490
 20
240.407805
 30
0.0
 10
86.445530
 20
240.407805
 30
0.0
 10
87.718940
 20
240.933005
 30
0.0
 10
88.714070
 20
241.901945
 30
0.0
  0
SPLINE
  5
1c7
100
AcDbEntity
  8
Ebene_1
 62
7
100
AcDbSpline
 70
8
 71
3
 72
8
 73
4
 74
0
 40
0
 40
0
 40
0
 40
0
 40
1
 40
1
 40
1
 40
1
 10
88.714070
 20
241.901945
 30
0.0
 10
89.718980
 20
242.880409
 30
0.0
 10
90.257040
 20
244.177025
 30
0.0
 10
90.257040
 20
245.593352
 30
0.0
  0
LWPOLYLINE
  5
1c8
100
AcDbEntity
  8
Ebene_1
 62
7
100
AcDbPolyline
 90
2
 70
0
 10
67.930870
 20
240.407805
 30
0.0
 10
85.071490
 20
240.407805
 30
0.0
  0
LWPOLYLINE
  5
1c9
100
AcDbEntity
  8
Ebene_1
 62
7
100
AcDbPolyline
 90
3
 70
0
 10
90.257040
 20
245.593352
 30
0.0
 10
90.257040
 20
246.493742
 30
0.0
 10
62.745090
 20
246.493729
 30
0.0
  0
SPLINE
  5
1ca
100
AcDbEntity
  8
Ebene_1
 62
7
100
AcDbSpline
 70
8
 71
3
 72
8
 73
4
 74
0
 40
0
 40
0
 40
0
 40
0
 40
1
 40
1
 40
1
 40
1
 10
62.745090
 20
254.163651
 30
0.0
 10
62.745090
 20
252.771320
 30
0.0
 10
63.267540
 20
251.487778
 30
0.0
 10
64.239230
 20
250.489823
 30
0.0
  0
LWPOLYLINE
  5
1cb
100
AcDbEntity
  8
Ebene_1
 62
7
100
AcDbPolyline
 90
2
 70
0
 10
62.745090
 20
255.064042
 30
0.0
 10
62.745090
 20
254.163651
 30
0.0
  0
SPLINE
  5
1cc
100
AcDbEntity
  8
Ebene_1
 62
7
100
AcDbSpline
 70
8
 71
3
 72
8
 73
4
 74
0
 40
0
 40
0
 40
0
 40
0
 40
1
 40
1
 40
1
 40
1
 10
64.249230
 20
250.482023
 30
0.0
 10
65.229820
 20
249.501428
 30
0.0
 10
66.520100
 20
248.980069
 30
0.0
 10
67.930870
 20
248.980070
 30
0.0
  0
LWPOLYLINE
  5
1cd
100
AcDbEntity
  8
Ebene_1
 62
7
100
AcDbPolyline
 90
3
 70
0
 10
64.239230
 20
250.489823
 30
0.0
 10
64.243230
 20
250.485923
 30
0.0
 10
64.249230
 20
250.482023
 30
0.0
  0
SPLINE
  5
1ce
100
AcDbEntity
  8
Ebene_1
 62
7
100
AcDbSpline
 70
8
 71
3
 72
8
 73
4
 74
0
 40
0
 40
0
 40
0
 40
0
 40
1
 40
1
 40
1
 40
1
 10
85.071490
 20
248.980070
 30
0.0
 10
86.445530
 20
248.980069
 30
0.0
 10
87.718940
 20
249.503317
 30
0.0
 10
88.714070
 20
250.472257
 30
0.0
  0
SPLINE
  5
1cf
100
AcDbEntity
  8
Ebene_1
 62
7
100
AcDbSpline
 70
8
 71
3
 72
8
 73
4
 74
0
 40
0
 40
0
 40
0
 40
0
 40
1
 40
1
 40
1
 40
1
 10
88.714070
 20
250.472257
 30
0.0
 10
89.718980
 20
251.450720
 30
0.0
 10
90.257040
 20
252.747336
 30
0.0
 10
90.257040
 20
254.163663
 30
0.0
  0
LWPOLYLINE
  5
1d0
100
AcDbEntity
  8
Ebene_1
 62
7
100
AcDbPolyline
 90
2
 70
0
 10
67.930870
 20
248.980070
 30
0.0
 10
85.071490
 20
248.980070
 30
0.0
  0
LWPOLYLINE
  5
1d1
100
AcDbEntity
  8
Ebene_1
 62
7
100
AcDbPolyline
 90
3
 70
0
 10
90.257040
 20
254.163663
 30
0.0
 10
90.257040
 20
255.064054
 30
0.0
 10
62.745090
 20
255.064042
 30
0.0
  0
SPLINE
  5
1d2
100
AcDbEntity
  8
Ebene_1
 62
7
100
AcDbSpline
 70
8
 71
3
 72
8
 73
4
 74
0
 40
0
 40
0
 40
0
 40
0
 40
1
 40
1
 40
1
 40
1
 10
101.229460
 20
237.923417
 30
0.0
 10
99.831470
 20
237.923417
 30
0.0
 10
98.541920
 20
237.384310
 30
0.0
 10
97.545870
 20
236.388261
 30
0.0
  0
SPLINE
  5
1d3
100
AcDbEntity
  8
Ebene_1
 62
7
100
AcDbSpline
 70
8
 71
3
 72
8
 73
4
 74
0
 40
0
 40
0
 40
0
 40
0
 40
1
 40
1
 40
1
 40
1
 10
97.545870
 20
236.388261
 30
0.0
 10
96.568140
 20
235.410532
 30
0.0
 10
96.043920
 20
234.130201
 30
0.0
 10
96.043920
 20
232.737870
 30
0.0
  0
LWPOLYLINE
  5
1d4
100
AcDbEntity
  8
Ebene_1
 62
7
100
AcDbPolyline
 90
5
 70
0
 10
96.043920
 20
255.064042
 30
0.0
 10
96.043920
 20
240.407792
 30
0.0
 10
117.469700
 20
240.407792
 30
0.0
 10
117.469700
 20
237.923417
 30
0.0
 10
101.229460
 20
237.923417
 30
0.0
  0
SPLINE
  5
1d5
100
AcDbEntity
  8
Ebene_1
 62
7
100
AcDbSpline
 70
8
 71
3
 72
8
 73
4
 74
0
 40
0
 40
0
 40
0
 40
0
 40
1
 40
1
 40
1
 40
1
 10
118.370090
 20
248.980058
 30
0.0
 10
119.744130
 20
248.980058
 30
0.0
 10
121.015590
 20
249.503304
 30
0.0
 10
122.010710
 20
250.472245
 30
0.0
  0
SPLINE
  5
1d6
100
AcDbEntity
  8
Ebene_1
 62
7
100
AcDbSpline
 70
8
 71
3
 72
8
 73
4
 74
0
 40
0
 40
0
 40
0
 40
0
 40
1
 40
1
 40
1
 40
1
 10
122.010710
 20
250.472245
 30
0.0
 10
123.015620
 20
251.450708
 30
0.0
 10
123.555630
 20
252.747325
 30
0.0
 10
123.555630
 20
254.163651
 30
0.0
  0
LWPOLYLINE
  5
1d7
100
AcDbEntity
  8
Ebene_1
 62
7
100
AcDbPolyline
 90
8
 70
0
 10
96.043920
 20
232.737870
 30
0.0
 10
96.043920
 20
231.837479
 30
0.0
 10
96.944310
 20
231.837479
 30
0.0
 10
123.555630
 20
231.837479
 30
0.0
 10
123.555630
 20
246.493729
 30
0.0
 10
102.129850
 20
246.493729
 30
0.0
 10
102.129850
 20
248.980058
 30
0.0
 10
118.370090
 20
248.980058
 30
0.0
  0
LWPOLYLINE
  5
1d8
100
AcDbEntity
  8
Ebene_1
 62
7
100
AcDbPolyline
 90
3
 70
0
 10
123.555630
 20
254.163651
 30
0.0
 10
123.555630
 20
255.064042
 30
0.0
 10
96.043920
 20
255.064042
 30
0.0
  0
SPLINE
  5
1d9
100
AcDbEntity
  8
Ebene_1
 62
7
100
AcDbSpline
 70
8
 71
3
 72
8
 73
4
 74
0
 40
0
 40
0
 40
0
 40
0
 40
1
 40
1
 40
1
 40
1
 10
151.666960
 20
231.837479
 30
0.0
 10
153.041000
 20
231.837479
 30
0.0
 10
154.312460
 20
232.362679
 30
0.0
 10
155.307590
 20
233.331620
 30
0.0
  0
SPLINE
  5
1da
100
AcDbEntity
  8
Ebene_1
 62
7
100
AcDbSpline
 70
8
 71
3
 72
8
 73
4
 74
0
 40
0
 40
0
 40
0
 40
0
 40
1
 40
1
 40
1
 40
1
 10
155.307590
 20
233.331620
 30
0.0
 10
156.312490
 20
234.310083
 30
0.0
 10
156.852510
 20
235.606700
 30
0.0
 10
156.852510
 20
237.023026
 30
0.0
  0
LWPOLYLINE
  5
1db
100
AcDbEntity
  8
Ebene_1
 62
7
100
AcDbPolyline
 90
4
 70
0
 10
129.340790
 20
255.064042
 30
0.0
 10
129.340790
 20
231.837479
 30
0.0
 10
130.241180
 20
231.837479
 30
0.0
 10
151.666960
 20
231.837479
 30
0.0
  0
SPLINE
  5
1dc
100
AcDbEntity
  8
Ebene_1
 62
7
100
AcDbSpline
 70
8
 71
3
 72
8
 73
4
 74
0
 40
0
 40
0
 40
0
 40
0
 40
1
 40
1
 40
1
 40
1
 10
411.640130
 20
293.869978
 30
0.0
 10
369.295090
 20
293.860077
 30
0.0
 10
326.949340
 20
293.896578
 30
0.0
 10
284.604770
 20
293.803188
 30
0.0
  0
SPLINE
  5
1dd
100
AcDbEntity
  8
Ebene_1
 62
7
100
AcDbSpline
 70
8
 71
3
 72
8
 73
4
 74
0
 40
0
 40
0
 40
0
 40
0
 40
1
 40
1
 40
1
 40
1
 10
284.604770
 20
293.803188
 30
0.0
 10
270.258110
 20
293.141866
 30
0.0
 10
256.641300
 20
283.836320
 30
0.0
 10
250.973530
 20
270.613170
 30
0.0
  0
SPLINE
  5
1de
100
AcDbEntity
  8
Ebene_1
 62
7
100
AcDbSpline
 70
8
 71
3
 72
8
 73
4
 74
0
 40
0
 40
0
 40
0
 40
0
 40
1
 40
1
 40
1
 40
1
 10
250.973530
 20
270.613170
 30
0.0
 10
248.194520
 20
264.444165
 30
0.0
 10
247.271910
 20
257.575723
 30
0.0
 10
247.591310
 20
250.854747
 30
0.0
  0
SPLINE
  5
1df
100
AcDbEntity
  8
Ebene_1
 62
7
100
AcDbSpline
 70
8
 71
3
 72
8
 73
4
 74
0
 40
0
 40
0
 40
0
 40
0
 40
1
 40
1
 40
1
 40
1
 10
247.591310
 20
250.854747
 30
0.0
 10
247.598310
 20
181.548610
 30
0.0
 10
247.577810
 20
112.242030
 30
0.0
 10
247.647710
 20
42.936160
 30
0.0
  0
SPLINE
  5
1e0
100
AcDbEntity
  8
Ebene_1
 62
7
100
AcDbSpline
 70
8
 71
3
 72
8
 73
4
 74
0
 40
0
 40
0
 40
0
 40
0
 40
1
 40
1
 40
1
 40
1
 10
247.647710
 20
42.936160
 30
0.0
 10
248.243870
 20
28.488000
 30
0.0
 10
257.640960
 20
14.764260
 30
0.0
 10
270.972390
 20
9.112410
 30
0.0
  0
SPLINE
  5
1e1
100
AcDbEntity
  8
Ebene_1
 62
7
100
AcDbSpline
 70
8
 71
3
 72
8
 73
4
 74
0
 40
0
 40
0
 40
0
 40
0
 40
1
 40
1
 40
1
 40
1
 10
270.972390
 20
9.112410
 30
0.0
 10
277.124850
 20
6.371460
 30
0.0
 10
283.959840
 20
5.460710
 30
0.0
 10
290.651460
 20
5.778190
 30
0.0
  0
SPLINE
  5
1e2
100
AcDbEntity
  8
Ebene_1
 62
7
100
AcDbSpline
 70
8
 71
3
 72
8
 73
4
 74
0
 40
0
 40
0
 40
0
 40
0
 40
1
 40
1
 40
1
 40
1
 10
290.651460
 20
5.778190
 30
0.0
 10
332.145710
 20
5.785190
 30
0.0
 10
373.640710
 20
5.748890
 30
0.0
 10
415.134450
 20
5.853090
 30
0.0
  0
SPLINE
  5
1e3
100
AcDbEntity
  8
Ebene_1
 62
7
100
AcDbSpline
 70
8
 71
3
 72
8
 73
4
 74
0
 40
0
 40
0
 40
0
 40
0
 40
1
 40
1
 40
1
 40
1
 10
415.134450
 20
5.853090
 30
0.0
 10
429.493900
 20
6.565510
 30
0.0
 10
443.084330
 20
15.939560
 30
0.0
 10
448.702310
 20
29.198370
 30
0.0
  0
SPLINE
  5
1e4
100
AcDbEntity
  8
Ebene_1
 62
7
100
AcDbSpline
 70
8
 71
3
 72
8
 73
4
 74
0
 40
0
 40
0
 40
0
 40
0
 40
1
 40
1
 40
1
 40
1
 10
448.702310
 20
29.198370
 30
0.0
 10
451.425060
 20
35.326490
 30
0.0
 10
452.323440
 20
42.131790
 30
0.0
 10
452.009260
 20
48.793420
 30
0.0
  0
SPLINE
  5
1e5
100
AcDbEntity
  8
Ebene_1
 62
7
100
AcDbSpline
 70
8
 71
3
 72
8
 73
4
 74
0
 40
0
 40
0
 40
0
 40
0
 40
1
 40
1
 40
1
 40
1
 10
452.009260
 20
48.793420
 30
0.0
 10
452.002260
 20
118.100220
 30
0.0
 10
452.022760
 20
187.407450
 30
0.0
 10
451.952860
 20
256.713953
 30
0.0
  0
SPLINE
  5
1e6
100
AcDbEntity
  8
Ebene_1
 62
7
100
AcDbSpline
 70
8
 71
3
 72
8
 73
4
 74
0
 40
0
 40
0
 40
0
 40
0
 40
1
 40
1
 40
1
 40
1
 10
451.952860
 20
256.713953
 30
0.0
 10
451.357220
 20
271.143635
 30
0.0
 10
441.981870
 20
284.850766
 30
0.0
 10
428.675080
 20
290.512401
 30
0.0
  0
SPLINE
  5
1e7
100
AcDbEntity
  8
Ebene_1
 62
7
100
AcDbSpline
 70
8
 71
3
 72
8
 73
4
 74
0
 40
0
 40
0
 40
0
 40
0
 40
1
 40
1
 40
1
 40
1
 10
428.675080
 20
290.512401
 30
0.0
 10
423.335520
 20
292.866089
 30
0.0
 10
417.472670
 20
294.014555
 30
0.0
 10
411.640120
 20
293.869981
 30
0.0
  0
LWPOLYLINE
  5
1e8
100
AcDbEntity
  8
Ebene_1
 62
7
100
AcDbPolyline
 90
5
 70
0
 10
156.852510
 20
237.023026
 30
0.0
 10
156.852510
 20
237.923417
 30
0.0
 10
135.426730
 20
237.923417
 30
0.0
 10
135.426730
 20
255.064042
 30
0.0
 10
129.340790
 20
255.064042
 30
0.0
  0
LWPOLYLINE
  5
1e9
100
AcDbEntity
  8
Ebene_1
 62
7
100
AcDbPolyline
 90
1
 70
1
 10
411.640120
 20
293.869981
 30
0.0
  0
SPLINE
  5
1ea
100
AcDbEntity
  8
Ebene_1
 62
7
100
AcDbSpline
 70
8
 71
3
 72
8
 73
4
 74
0
 40
0
 40
0
 40
0
 40
0
 40
1
 40
1
 40
1
 40
1
 10
412.839260
 20
282.790950
 30
0.0
 10
428.468540
 20
282.790950
 30
0.0
 10
440.945200
 20
270.331116
 30
0.0
 10
440.945200
 20
254.722944
 30
0.0
  0
LWPOLYLINE
  5
1eb
100
AcDbEntity
  8
Ebene_1
 62
7
100
AcDbPolyline
 90
2
 70
0
 10
286.760750
 20
282.790950
 30
0.0
 10
412.839260
 20
282.790950
 30
0.0
  0
SPLINE
  5
1ec
100
AcDbEntity
  8
Ebene_1
 62
7
100
AcDbSpline
 70
8
 71
3
 72
8
 73
4
 74
0
 40
0
 40
0
 40
0
 40
0
 40
1
 40
1
 40
1
 40
1
 10
440.945200
 20
44.877030
 30
0.0
 10
440.945200
 20
29.268850
 30
0.0
 10
428.468540
 20
16.809030
 30
0.0
 10
412.839260
 20
16.809030
 30
0.0
  0
LWPOLYLINE
  5
1ed
100
AcDbEntity
  8
Ebene_1
 62
7
100
AcDbPolyline
 90
2
 70
0
 10
440.945200
 20
254.722944
 30
0.0
 10
440.945200
 20
44.877030
 30
0.0
  0
SPLINE
  5
1ee
100
AcDbEntity
  8
Ebene_1
 62
7
100
AcDbSpline
 70
8
 71
3
 72
8
 73
4
 74
0
 40
0
 40
0
 40
0
 40
0
 40
1
 40
1
 40
1
 40
1
 10
286.760750
 20
16.809030
 30
0.0
 10
271.131460
 20
16.809030
 30
0.0
 10
258.654800
 20
29.268850
 30
0.0
 10
258.654800
 20
44.877030
 30
0.0
  0
LWPOLYLINE
  5
1ef
100
AcDbEntity
  8
Ebene_1
 62
7
100
AcDbPolyline
 90
2
 70
0
 10
412.839260
 20
16.809030
 30
0.0
 10
286.760750
 20
16.809030
 30
0.0
  0
SPLINE
  5
1f0
100
AcDbEntity
  8
Ebene_1
 62
7
100
AcDbSpline
 70
8
 71
3
 72
8
 73
4
 74
0
 40
0
 40
0
 40
0
 40
0
 40
1
 40
1
 40
1
 40
1
 10
258.654800
 20
254.722944
 30
0.0
 10
258.654800
 20
270.331116
 30
0.0
 10
271.131460
 20
282.790950
 30
0.0
 10
286.760750
 20
282.790950
 30
0.0
  0
LWPOLYLINE
  5
1f1
100
AcDbEntity
  8
Ebene_1
 62
7
100
AcDbPolyline
 90
2
 70
0
 10
258.654800
 20
44.877030
 30
0.0
 10
258.654800
 20
254.722944
 30
0.0
  0
LWPOLYLINE
  5
1f2
100
AcDbEntity
  8
Ebene_1
 62
7
100
AcDbPolyline
 90
1
 70
1
 10
286.760750
 20
282.790950
 30
0.0
  0
SPLINE
  5
1f3
100
AcDbEntity
  8
Ebene_1
 62
7
100
AcDbSpline
 70
8
 71
3
 72
8
 73
4
 74
0
 40
0
 40
0
 40
0
 40
0
 40
1
 40
1
 40
1
 40
1
 10
293.943696
 20
278.680903
 30
0.0
 10
276.834796
 20
278.680903
 30
0.0
 10
262.965903
 20
264.313830
 30
0.0
 10
262.965903
 20
246.590382
 30
0.0
  0
LWPOLYLINE
  5
1f4
100
AcDbEntity
  8
Ebene_1
 62
7
100
AcDbPolyline
 90
4
 70
1
 10
240.000000
 20
299.599983
 30
0.0
 10
459.600000
 20
299.599983
 30
0.0
 10
459.600000
 20
0.000000
 30
0.0
 10
240.000000
 20
0.000000
 30
0.0
  0
SPLINE
  5
1f5
100
AcDbEntity
  8
Ebene_1
 62
7
100
AcDbSpline
 70
8
 71
3
 72
8
 73
4
 74
0
 40
0
 40
0
 40
0
 40
0
 40
1
 40
1
 40
1
 40
1
 10
262.965903
 20
53.571172
 30
0.0
 10
262.965903
 20
35.847717
 30
0.0
 10
276.834796
 20
21.480646
 30
0.0
 10
293.943696
 20
21.480646
 30
0.0
  0
LWPOLYLINE
  5
1f6
100
AcDbEntity
  8
Ebene_1
 62
7
100
AcDbPolyline
 90
2
 70
0
 10
262.965903
 20
246.590382
 30
0.0
 10
262.965903
 20
53.571172
 30
0.0
  0
SPLINE
  5
1f7
100
AcDbEntity
  8
Ebene_1
 62
7
100
AcDbSpline
 70
8
 71
3
 72
8
 73
4
 74
0
 40
0
 40
0
 40
0
 40
0
 40
1
 40
1
 40
1
 40
1
 10
405.740159
 20
21.480646
 30
0.0
 10
422.849050
 20
21.480646
 30
0.0
 10
436.717943
 20
35.847717
 30
0.0
 10
436.717943
 20
53.571172
 30
0.0
  0
LWPOLYLINE
  5
1f8
100
AcDbEntity
  8
Ebene_1
 62
7
100
AcDbPolyline
 90
2
 70
0
 10
293.943696
 20
21.480646
 30
0.0
 10
405.740159
 20
21.480646
 30
0.0
  0
SPLINE
  5
1f9
100
AcDbEntity
  8
Ebene_1
 62
7
100
AcDbSpline
 70
8
 71
3
 72
8
 73
4
 74
0
 40
0
 40
0
 40
0
 40
0
 40
1
 40
1
 40
1
 40
1
 10
436.717943
 20
246.590382
 30
0.0
 10
436.717943
 20
264.313830
 30
0.0
 10
422.849050
 20
278.680903
 30
0.0
 10
405.740159
 20
278.680903
 30
0.0
  0
LWPOLYLINE
  5
1fa
100
AcDbEntity
  8
Ebene_1
 62
7
100
AcDbPolyline
 90
2
 70
0
 10
436.717943
 20
53.571172
 30
0.0
 10
436.717943
 20
246.590382
 30
0.0
  0
LWPOLYLINE
  5
1fb
100
AcDbEntity
  8
Ebene_1
 62
7
100
AcDbPolyline
 90
2
 70
0
 10
405.740159
 20
278.680903
 30
0.0
 10
293.943696
 20
278.680903
 30
0.0
  0
SPLINE
  5
1fc
100
AcDbEntity
  8
Ebene_1
 62
7
100
AcDbSpline
 70
8
 71
3
 72
8
 73
4
 74
0
 40
0
 40
0
 40
0
 40
0
 40
1
 40
1
 40
1
 40
1
 10
405.740159
 20
272.407727
 30
0.0
 10
419.598970
 20
272.407727
 30
0.0
 10
430.662286
 20
260.946997
 30
0.0
 10
430.662286
 20
246.590382
 30
0.0
  0
LWPOLYLINE
  5
1fd
100
AcDbEntity
  8
Ebene_1
 62
7
100
AcDbPolyline
 90
2
 70
0
 10
293.943696
 20
272.407727
 30
0.0
 10
405.740159
 20
272.407727
 30
0.0
  0
SPLINE
  5
1fe
100
AcDbEntity
  8
Ebene_1
 62
7
100
AcDbSpline
 70
8
 71
3
 72
8
 73
4
 74
0
 40
0
 40
0
 40
0
 40
0
 40
1
 40
1
 40
1
 40
1
 10
430.662286
 20
53.571172
 30
0.0
 10
430.662286
 20
39.214549
 30
0.0
 10
419.598970
 20
27.753833
 30
0.0
 10
405.740159
 20
27.753833
 30
0.0
  0
LWPOLYLINE
  5
1ff
100
AcDbEntity
  8
Ebene_1
 62
7
100
AcDbPolyline
 90
2
 70
0
 10
430.662286
 20
246.590382
 30
0.0
 10
430.662286
 20
53.571172
 30
0.0
  0
SPLINE
  5
200
100
AcDbEntity
  8
Ebene_1
 62
7
100
AcDbSpline
 70
8
 71
3
 72
8
 73
4
 74
0
 40
0
 40
0
 40
0
 40
0
 40
1
 40
1
 40
1
 40
1
 10
293.943696
 20
27.753833
 30
0.0
 10
280.084877
 20
27.753833
 30
0.0
 10
269.021560
 20
39.214549
 30
0.0
 10
269.021560
 20
53.571172
 30
0.0
  0
LWPOLYLINE
  5
201
100
AcDbEntity
  8
Ebene_1
 62
7
100
AcDbPolyline
 90
2
 70
0
 10
405.740159
 20
27.753833
 30
0.0
 10
293.943696
 20
27.753833
 30
0.0
  0
SPLINE
  5
202
100
AcDbEntity
  8
Ebene_1
 62
7
100
AcDbSpline
 70
8
 71
3
 72
8
 73
4
 74
0
 40
0
 40
0
 40
0
 40
0
 40
1
 40
1
 40
1
 40
1
 10
269.021560
 20
246.590382
 30
0.0
 10
269.021560
 20
260.946997
 30
0.0
 10
280.084877
 20
272.407727
 30
0.0
 10
293.943696
 20
272.407727
 30
0.0
  0
LWPOLYLINE
  5
203
100
AcDbEntity
  8
Ebene_1
 62
7
100
AcDbPolyline
 90
2
 70
0
 10
269.021560
 20
53.571172
 30
0.0
 10
269.021560
 20
246.590382
 30
0.0
  0
SPLINE
  5
204
100
AcDbEntity
  8
Ebene_1
 62
7
100
AcDbSpline
 70
8
 71
3
 72
8
 73
4
 74
0
 40
0
 40
0
 40
0
 40
0
 40
1
 40
1
 40
1
 40
1
 10
283.208529
 20
41.828799
 30
0.0
 10
283.208529
 20
41.218924
 30
0.0
 10
282.974973
 20
40.634028
 30
0.0
 10
282.559242
 20
40.202782
 30
0.0
  0
SPLINE
  5
205
100
AcDbEntity
  8
Ebene_1
 62
7
100
AcDbSpline
 70
8
 71
3
 72
8
 73
4
 74
0
 40
0
 40
0
 40
0
 40
0
 40
1
 40
1
 40
1
 40
1
 10
282.559242
 20
40.202782
 30
0.0
 10
282.143511
 20
39.771536
 30
0.0
 10
281.579659
 20
39.529264
 30
0.0
 10
280.991726
 20
39.529264
 30
0.0
  0
SPLINE
  5
206
100
AcDbEntity
  8
Ebene_1
 62
7
100
AcDbSpline
 70
8
 71
3
 72
8
 73
4
 74
0
 40
0
 40
0
 40
0
 40
0
 40
1
 40
1
 40
1
 40
1
 10
280.991726
 20
39.529264
 30
0.0
 10
280.403794
 20
39.529264
 30
0.0
 10
279.839941
 20
39.771536
 30
0.0
 10
279.424210
 20
40.202782
 30
0.0
  0
SPLINE
  5
207
100
AcDbEntity
  8
Ebene_1
 62
7
100
AcDbSpline
 70
8
 71
3
 72
8
 73
4
 74
0
 40
0
 40
0
 40
0
 40
0
 40
1
 40
1
 40
1
 40
1
 10
279.424210
 20
40.202782
 30
0.0
 10
279.008479
 20
40.634028
 30
0.0
 10
278.774924
 20
41.218924
 30
0.0
 10
278.774924
 20
41.828799
 30
0.0
  0
SPLINE
  5
208
100
AcDbEntity
  8
Ebene_1
 62
7
100
AcDbSpline
 70
8
 71
3
 72
8
 73
4
 74
0
 40
0
 40
0
 40
0
 40
0
 40
1
 40
1
 40
1
 40
1
 10
278.774924
 20
41.828799
 30
0.0
 10
278.774924
 20
42.438673
 30
0.0
 10
279.008479
 20
43.023569
 30
0.0
 10
279.424210
 20
43.454816
 30
0.0
  0
SPLINE
  5
209
100
AcDbEntity
  8
Ebene_1
 62
7
100
AcDbSpline
 70
8
 71
3
 72
8
 73
4
 74
0
 40
0
 40
0
 40
0
 40
0
 40
1
 40
1
 40
1
 40
1
 10
279.424210
 20
43.454816
 30
0.0
 10
279.839941
 20
43.886062
 30
0.0
 10
280.403794
 20
44.128334
 30
0.0
 10
280.991726
 20
44.128334
 30
0.0
  0
SPLINE
  5
20a
100
AcDbEntity
  8
Ebene_1
 62
7
100
AcDbSpline
 70
8
 71
3
 72
8
 73
4
 74
0
 40
0
 40
0
 40
0
 40
0
 40
1
 40
1
 40
1
 40
1
 10
280.991726
 20
44.128334
 30
0.0
 10
281.579659
 20
44.128334
 30
0.0
 10
282.143511
 20
43.886062
 30
0.0
 10
282.559242
 20
43.454816
 30
0.0
  0
SPLINE
  5
20b
100
AcDbEntity
  8
Ebene_1
 62
7
100
AcDbSpline
 70
8
 71
3
 72
8
 73
4
 74
0
 40
0
 40
0
 40
0
 40
0
 40
1
 40
1
 40
1
 40
1
 10
282.559242
 20
43.454816
 30
0.0
 10
282.974973
 20
43.023569
 30
0.0
 10
283.208529
 20
42.438673
 30
0.0
 10
283.208529
 20
41.828799
 30
0.0
  0
LWPOLYLINE
  5
20c
100
AcDbEntity
  8
Ebene_1
 62
7
100
AcDbPolyline
 90
1
 70
1
 10
293.943696
 20
272.407727
 30
0.0
  0
SPLINE
  5
20d
100
AcDbEntity
  8
Ebene_1
 62
7
100
AcDbSpline
 70
8
 71
3
 72
8
 73
4
 74
0
 40
0
 40
0
 40
0
 40
0
 40
1
 40
1
 40
1
 40
1
 10
420.573742
 20
42.097072
 30
0.0
 10
420.573742
 20
41.487197
 30
0.0
 10
420.340187
 20
40.902301
 30
0.0
 10
419.924456
 20
40.471055
 30
0.0
  0
SPLINE
  5
20e
100
AcDbEntity
  8
Ebene_1
 62
7
100
AcDbSpline
 70
8
 71
3
 72
8
 73
4
 74
0
 40
0
 40
0
 40
0
 40
0
 40
1
 40
1
 40
1
 40
1
 10
419.924456
 20
40.471055
 30
0.0
 10
419.508724
 20
40.039808
 30
0.0
 10
418.944872
 20
39.797537
 30
0.0
 10
418.356939
 20
39.797537
 30
0.0
  0
SPLINE
  5
20f
100
AcDbEntity
  8
Ebene_1
 62
7
100
AcDbSpline
 70
8
 71
3
 72
8
 73
4
 74
0
 40
0
 40
0
 40
0
 40
0
 40
1
 40
1
 40
1
 40
1
 10
418.356939
 20
39.797537
 30
0.0
 10
417.769007
 20
39.797537
 30
0.0
 10
417.205155
 20
40.039808
 30
0.0
 10
416.789423
 20
40.471055
 30
0.0
  0
SPLINE
  5
210
100
AcDbEntity
  8
Ebene_1
 62
7
100
AcDbSpline
 70
8
 71
3
 72
8
 73
4
 74
0
 40
0
 40
0
 40
0
 40
0
 40
1
 40
1
 40
1
 40
1
 10
416.789423
 20
40.471055
 30
0.0
 10
416.373692
 20
40.902301
 30
0.0
 10
416.140137
 20
41.487197
 30
0.0
 10
416.140137
 20
42.097072
 30
0.0
  0
SPLINE
  5
211
100
AcDbEntity
  8
Ebene_1
 62
7
100
AcDbSpline
 70
8
 71
3
 72
8
 73
4
 74
0
 40
0
 40
0
 40
0
 40
0
 40
1
 40
1
 40
1
 40
1
 10
416.140137
 20
42.097072
 30
0.0
 10
416.140137
 20
42.706946
 30
0.0
 10
416.373692
 20
43.291842
 30
0.0
 10
416.789423
 20
43.723089
 30
0.0
  0
SPLINE
  5
212
100
AcDbEntity
  8
Ebene_1
 62
7
100
AcDbSpline
 70
8
 71
3
 72
8
 73
4
 74
0
 40
0
 40
0
 40
0
 40
0
 40
1
 40
1
 40
1
 40
1
 10
416.789423
 20
43.723089
 30
0.0
 10
417.205155
 20
44.154335
 30
0.0
 10
417.769007
 20
44.396607
 30
0.0
 10
418.356939
 20
44.396607
 30
0.0
  0
SPLINE
  5
213
100
AcDbEntity
  8
Ebene_1
 62
7
100
AcDbSpline
 70
8
 71
3
 72
8
 73
4
 74
0
 40
0
 40
0
 40
0
 40
0
 40
1
 40
1
 40
1
 40
1
 10
418.356939
 20
44.396607
 30
0.0
 10
418.944872
 20
44.396607
 30
0.0
 10
419.508724
 20
44.154335
 30
0.0
 10
419.924456
 20
43.723089
 30
0.0
  0
SPLINE
  5
214
100
AcDbEntity
  8
Ebene_1
 62
7
100
AcDbSpline
 70
8
 71
3
 72
8
 73
4
 74
0
 40
0
 40
0
 40
0
 40
0
 40
1
 40
1
 40
1
 40
1
 10
419.924456
 20
43.723089
 30
0.0
 10
420.340187
 20
43.291842
 30
0.0
 10
420.573742
 20
42.706946
 30
0.0
 10
420.573742
 20
42.097072
 30
0.0
  0
LWPOLYLINE
  5
215
100
AcDbEntity
  8
Ebene_1
 62
7
100
AcDbPolyline
 90
1
 70
1
 10
283.208529
 20
41.828799
 30
0.0
  0
SPLINE
  5
216
100
AcDbEntity
  8
Ebene_1
 62
7
100
AcDbSpline
 70
8
 71
3
 72
8
 73
4
 74
0
 40
0
 40
0
 40
0
 40
0
 40
1
 40
1
 40
1
 40
1
 10
420.908900
 20
258.332750
 30
0.0
 10
420.908900
 20
257.722875
 30
0.0
 10
420.675345
 20
257.137980
 30
0.0
 10
420.259614
 20
256.706733
 30
0.0
  0
SPLINE
  5
217
100
AcDbEntity
  8
Ebene_1
 62
7
100
AcDbSpline
 70
8
 71
3
 72
8
 73
4
 74
0
 40
0
 40
0
 40
0
 40
0
 40
1
 40
1
 40
1
 40
1
 10
420.259614
 20
256.706733
 30
0.0
 10
419.843883
 20
256.275487
 30
0.0
 10
419.280030
 20
256.033215
 30
0.0
 10
418.692098
 20
256.033215
 30
0.0
  0
SPLINE
  5
218
100
AcDbEntity
  8
Ebene_1
 62
7
100
AcDbSpline
 70
8
 71
3
 72
8
 73
4
 74
0
 40
0
 40
0
 40
0
 40
0
 40
1
 40
1
 40
1
 40
1
 10
418.692098
 20
256.033215
 30
0.0
 10
418.104165
 20
256.033215
 30
0.0
 10
417.540313
 20
256.275487
 30
0.0
 10
417.124582
 20
256.706733
 30
0.0
  0
SPLINE
  5
219
100
AcDbEntity
  8
Ebene_1
 62
7
100
AcDbSpline
 70
8
 71
3
 72
8
 73
4
 74
0
 40
0
 40
0
 40
0
 40
0
 40
1
 40
1
 40
1
 40
1
 10
417.124582
 20
256.706733
 30
0.0
 10
416.708851
 20
257.137980
 30
0.0
 10
416.475295
 20
257.722875
 30
0.0
 10
416.475295
 20
258.332750
 30
0.0
  0
SPLINE
  5
21a
100
AcDbEntity
  8
Ebene_1
 62
7
100
AcDbSpline
 70
8
 71
3
 72
8
 73
4
 74
0
 40
0
 40
0
 40
0
 40
0
 40
1
 40
1
 40
1
 40
1
 10
416.475295
 20
258.332750
 30
0.0
 10
416.475295
 20
258.942625
 30
0.0
 10
416.708851
 20
259.527520
 30
0.0
 10
417.124582
 20
259.958767
 30
0.0
  0
SPLINE
  5
21b
100
AcDbEntity
  8
Ebene_1
 62
7
100
AcDbSpline
 70
8
 71
3
 72
8
 73
4
 74
0
 40
0
 40
0
 40
0
 40
0
 40
1
 40
1
 40
1
 40
1
 10
417.124582
 20
259.958767
 30
0.0
 10
417.540313
 20
260.390013
 30
0.0
 10
418.104165
 20
260.632285
 30
0.0
 10
418.692098
 20
260.632285
 30
0.0
  0
SPLINE
  5
21c
100
AcDbEntity
  8
Ebene_1
 62
7
100
AcDbSpline
 70
8
 71
3
 72
8
 73
4
 74
0
 40
0
 40
0
 40
0
 40
0
 40
1
 40
1
 40
1
 40
1
 10
418.692098
 20
260.632285
 30
0.0
 10
419.280030
 20
260.632285
 30
0.0
 10
419.843883
 20
260.390013
 30
0.0
 10
420.259614
 20
259.958767
 30
0.0
  0
SPLINE
  5
21d
100
AcDbEntity
  8
Ebene_1
 62
7
100
AcDbSpline
 70
8
 71
3
 72
8
 73
4
 74
0
 40
0
 40
0
 40
0
 40
0
 40
1
 40
1
 40
1
 40
1
 10
420.259614
 20
259.958767
 30
0.0
 10
420.675345
 20
259.527520
 30
0.0
 10
420.908900
 20
258.942625
 30
0.0
 10
420.908900
 20
258.332750
 30
0.0
  0
LWPOLYLINE
  5
21e
100
AcDbEntity
  8
Ebene_1
 62
7
100
AcDbPolyline
 90
1
 70
1
 10
420.573742
 20
42.097072
 30
0.0
  0
SPLINE
  5
21f
100
AcDbEntity
  8
Ebene_1
 62
7
100
AcDbSpline
 70
8
 71
3
 72
8
 73
4
 74
0
 40
0
 40
0
 40
0
 40
0
 40
1
 40
1
 40
1
 40
1
 10
283.467150
 20
258.332750
 30
0.0
 10
283.467150
 20
257.722875
 30
0.0
 10
283.233594
 20
257.137980
 30
0.0
 10
282.817863
 20
256.706733
 30
0.0
  0
SPLINE
  5
220
100
AcDbEntity
  8
Ebene_1
 62
7
100
AcDbSpline
 70
8
 71
3
 72
8
 73
4
 74
0
 40
0
 40
0
 40
0
 40
0
 40
1
 40
1
 40
1
 40
1
 10
282.817863
 20
256.706733
 30
0.0
 10
282.402132
 20
256.275487
 30
0.0
 10
281.838280
 20
256.033215
 30
0.0
 10
281.250347
 20
256.033215
 30
0.0
  0
SPLINE
  5
221
100
AcDbEntity
  8
Ebene_1
 62
7
100
AcDbSpline
 70
8
 71
3
 72
8
 73
4
 74
0
 40
0
 40
0
 40
0
 40
0
 40
1
 40
1
 40
1
 40
1
 10
281.250347
 20
256.033215
 30
0.0
 10
280.662415
 20
256.033215
 30
0.0
 10
280.098562
 20
256.275487
 30
0.0
 10
279.682831
 20
256.706733
 30
0.0
  0
SPLINE
  5
222
100
AcDbEntity
  8
Ebene_1
 62
7
100
AcDbSpline
 70
8
 71
3
 72
8
 73
4
 74
0
 40
0
 40
0
 40
0
 40
0
 40
1
 40
1
 40
1
 40
1
 10
279.682831
 20
256.706733
 30
0.0
 10
279.267100
 20
257.137980
 30
0.0
 10
279.033545
 20
257.722875
 30
0.0
 10
279.033545
 20
258.332750
 30
0.0
  0
SPLINE
  5
223
100
AcDbEntity
  8
Ebene_1
 62
7
100
AcDbSpline
 70
8
 71
3
 72
8
 73
4
 74
0
 40
0
 40
0
 40
0
 40
0
 40
1
 40
1
 40
1
 40
1
 10
279.033545
 20
258.332750
 30
0.0
 10
279.033545
 20
258.942625
 30
0.0
 10
279.267100
 20
259.527520
 30
0.0
 10
279.682831
 20
259.958767
 30
0.0
  0
SPLINE
  5
224
100
AcDbEntity
  8
Ebene_1
 62
7
100
AcDbSpline
 70
8
 71
3
 72
8
 73
4
 74
0
 40
0
 40
0
 40
0
 40
0
 40
1
 40
1
 40
1
 40
1
 10
279.682831
 20
259.958767
 30
0.0
 10
280.098562
 20
260.390013
 30
0.0
 10
280.662415
 20
260.632285
 30
0.0
 10
281.250347
 20
260.632285
 30
0.0
  0
SPLINE
  5
225
100
AcDbEntity
  8
Ebene_1
 62
7
100
AcDbSpline
 70
8
 71
3
 72
8
 73
4
 74
0
 40
0
 40
0
 40
0
 40
0
 40
1
 40
1
 40
1
 40
1
 10
281.250347
 20
260.632285
 30
0.0
 10
281.838280
 20
260.632285
 30
0.0
 10
282.402132
 20
260.390013
 30
0.0
 10
282.817863
 20
259.958767
 30
0.0
  0
SPLINE
  5
226
100
AcDbEntity
  8
Ebene_1
 62
7
100
AcDbSpline
 70
8
 71
3
 72
8
 73
4
 74
0
 40
0
 40
0
 40
0
 40
0
 40
1
 40
1
 40
1
 40
1
 10
282.817863
 20
259.958767
 30
0.0
 10
283.233594
 20
259.527520
 30
0.0
 10
283.467150
 20
258.942625
 30
0.0
 10
283.467150
 20
258.332750
 30
0.0
  0
LWPOLYLINE
  5
227
100
AcDbEntity
  8
Ebene_1
 62
7
100
AcDbPolyline
 90
1
 70
1
 10
420.908900
 20
258.332750
 30
0.0
  0
LWPOLYLINE
  5
228
100
AcDbEntity
  8
Ebene_1
 62
7
100
AcDbPolyline
 90
1
 70
1
 10
283.467150
 20
258.332750
 30
0.0
  0
SPLINE
  5
229
100
AcDbEntity
  8
Ebene_1
 62
7
100
AcDbSpline
 70
8
 71
3
 72
8
 73
4
 74
0
 40
0
 40
0
 40
0
 40
0
 40
1
 40
1
 40
1
 40
1
 10
293.859839
 20
90.064820
 30
0.0
 10
293.859839
 20
89.720129
 30
0.0
 10
293.776665
 20
89.505840
 30
0.0
 10
293.564889
 20
89.265704
 30
0.0
  0
SPLINE
  5
22a
100
AcDbEntity
  8
Ebene_1
 62
7
100
AcDbSpline
 70
8
 71
3
 72
8
 73
4
 74
0
 40
0
 40
0
 40
0
 40
0
 40
1
 40
1
 40
1
 40
1
 10
293.564889
 20
89.265704
 30
0.0
 10
293.349744
 20
89.040598
 30
0.0
 10
293.158931
 20
88.952029
 30
0.0
 10
292.866667
 20
88.952029
 30
0.0
  0
LWPOLYLINE
  5
22b
100
AcDbEntity
  8
Ebene_1
 62
7
100
AcDbPolyline
 90
4
 70
0
 10
277.100821
 20
96.461492
 30
0.0
 10
277.100821
 20
91.177611
 30
0.0
 10
293.859839
 20
91.177611
 30
0.0
 10
293.859839
 20
90.064820
 30
0.0
  0
SPLINE
  5
22c
100
AcDbEntity
  8
Ebene_1
 62
7
100
AcDbSpline
 70
8
 71
3
 72
8
 73
4
 74
0
 40
0
 40
0
 40
0
 40
0
 40
1
 40
1
 40
1
 40
1
 10
294.541400
 20
83.666290
 30
0.0
 10
295.611007
 20
83.666290
 30
0.0
 10
296.599470
 20
84.124238
 30
0.0
 10
297.374287
 20
84.969519
 30
0.0
  0
SPLINE
  5
22d
100
AcDbEntity
  8
Ebene_1
 62
7
100
AcDbSpline
 70
8
 71
3
 72
8
 73
4
 74
0
 40
0
 40
0
 40
0
 40
0
 40
1
 40
1
 40
1
 40
1
 10
297.374287
 20
84.969519
 30
0.0
 10
298.156517
 20
85.822905
 30
0.0
 10
298.575767
 20
86.950992
 30
0.0
 10
298.575767
 20
88.186523
 30
0.0
  0
LWPOLYLINE
  5
22e
100
AcDbEntity
  8
Ebene_1
 62
7
100
AcDbPolyline
 90
7
 70
0
 10
292.866667
 20
88.952029
 30
0.0
 10
277.100821
 20
88.952029
 30
0.0
 10
277.100821
 20
76.156828
 30
0.0
 10
277.784040
 20
76.156828
 30
0.0
 10
281.818399
 20
76.156828
 30
0.0
 10
281.818399
 20
83.666290
 30
0.0
 10
294.541400
 20
83.666290
 30
0.0
  0
LWPOLYLINE
  5
22f
100
AcDbEntity
  8
Ebene_1
 62
7
100
AcDbPolyline
 90
3
 70
0
 10
298.575767
 20
88.186523
 30
0.0
 10
298.575767
 20
96.461492
 30
0.0
 10
277.100821
 20
96.461492
 30
0.0
  0
LWPOLYLINE
  5
230
100
AcDbEntity
  8
Ebene_1
 62
7
100
AcDbPolyline
 90
9
 70
1
 10
300.562120
 20
88.952029
 30
0.0
 10
300.562120
 20
76.156828
 30
0.0
 10
301.245347
 20
76.156828
 30
0.0
 10
305.279715
 20
76.156828
 30
0.0
 10
305.279715
 20
83.666290
 30
0.0
 10
317.319489
 20
83.666290
 30
0.0
 10
317.319489
 20
76.156828
 30
0.0
 10
322.037075
 20
76.156828
 30
0.0
 10
322.037075
 20
88.952029
 30
0.0
  0
SPLINE
  5
231
100
AcDbEntity
  8
Ebene_1
 62
7
100
AcDbSpline
 70
8
 71
3
 72
8
 73
4
 74
0
 40
0
 40
0
 40
0
 40
0
 40
1
 40
1
 40
1
 40
1
 10
300.562120
 20
95.697853
 30
0.0
 10
300.562120
 20
94.483303
 30
0.0
 10
300.968752
 20
93.364450
 30
0.0
 10
301.725267
 20
92.493911
 30
0.0
  0
LWPOLYLINE
  5
232
100
AcDbEntity
  8
Ebene_1
 62
7
100
AcDbPolyline
 90
2
 70
0
 10
300.562120
 20
96.461492
 30
0.0
 10
300.562120
 20
95.697853
 30
0.0
  0
SPLINE
  5
233
100
AcDbEntity
  8
Ebene_1
 62
7
100
AcDbSpline
 70
8
 71
3
 72
8
 73
4
 74
0
 40
0
 40
0
 40
0
 40
0
 40
1
 40
1
 40
1
 40
1
 10
301.730588
 20
92.486552
 30
0.0
 10
302.493868
 20
91.631364
 30
0.0
 10
303.498301
 20
91.177721
 30
0.0
 10
304.596816
 20
91.177721
 30
0.0
  0
LWPOLYLINE
  5
234
100
AcDbEntity
  8
Ebene_1
 62
7
100
AcDbPolyline
 90
3
 70
0
 10
301.725267
 20
92.493911
 30
0.0
 10
301.728814
 20
92.490231
 30
0.0
 10
301.730588
 20
92.486552
 30
0.0
  0
SPLINE
  5
235
100
AcDbEntity
  8
Ebene_1
 62
7
100
AcDbSpline
 70
8
 71
3
 72
8
 73
4
 74
0
 40
0
 40
0
 40
0
 40
0
 40
1
 40
1
 40
1
 40
1
 10
318.003035
 20
91.177721
 30
0.0
 10
319.072634
 20
91.177721
 30
0.0
 10
320.061106
 20
91.633802
 30
0.0
 10
320.835923
 20
92.479074
 30
0.0
  0
SPLINE
  5
236
100
AcDbEntity
  8
Ebene_1
 62
7
100
AcDbSpline
 70
8
 71
3
 72
8
 73
4
 74
0
 40
0
 40
0
 40
0
 40
0
 40
1
 40
1
 40
1
 40
1
 10
320.835923
 20
92.479074
 30
0.0
 10
321.618161
 20
93.332468
 30
0.0
 10
322.037394
 20
94.462423
 30
0.0
 10
322.037394
 20
95.697954
 30
0.0
  0
LWPOLYLINE
  5
237
100
AcDbEntity
  8
Ebene_1
 62
7
100
AcDbPolyline
 90
2
 70
0
 10
304.596816
 20
91.177721
 30
0.0
 10
318.003035
 20
91.177721
 30
0.0
  0
LWPOLYLINE
  5
238
100
AcDbEntity
  8
Ebene_1
 62
7
100
AcDbPolyline
 90
3
 70
0
 10
322.037394
 20
95.697954
 30
0.0
 10
322.037394
 20
96.461593
 30
0.0
 10
300.562120
 20
96.461492
 30
0.0
  0
SPLINE
  5
239
100
AcDbEntity
  8
Ebene_1
 62
7
100
AcDbSpline
 70
8
 71
3
 72
8
 73
4
 74
0
 40
0
 40
0
 40
0
 40
0
 40
1
 40
1
 40
1
 40
1
 10
324.023427
 20
95.697853
 30
0.0
 10
324.023427
 20
94.483303
 30
0.0
 10
324.428393
 20
93.364450
 30
0.0
 10
325.184917
 20
92.493911
 30
0.0
  0
LWPOLYLINE
  5
23a
100
AcDbEntity
  8
Ebene_1
 62
7
100
AcDbPolyline
 90
2
 70
0
 10
324.023427
 20
96.461492
 30
0.0
 10
324.023427
 20
95.697853
 30
0.0
  0
SPLINE
  5
23b
100
AcDbEntity
  8
Ebene_1
 62
7
100
AcDbSpline
 70
8
 71
3
 72
8
 73
4
 74
0
 40
0
 40
0
 40
0
 40
0
 40
1
 40
1
 40
1
 40
1
 10
325.192010
 20
92.486552
 30
0.0
 10
325.955273
 20
91.631364
 30
0.0
 10
326.959706
 20
91.177721
 30
0.0
 10
328.058221
 20
91.177721
 30
0.0
  0
LWPOLYLINE
  5
23c
100
AcDbEntity
  8
Ebene_1
 62
7
100
AcDbPolyline
 90
3
 70
0
 10
325.184917
 20
92.493911
 30
0.0
 10
325.188464
 20
92.490231
 30
0.0
 10
325.192010
 20
92.486552
 30
0.0
  0
SPLINE
  5
23d
100
AcDbEntity
  8
Ebene_1
 62
7
100
AcDbSpline
 70
8
 71
3
 72
8
 73
4
 74
0
 40
0
 40
0
 40
0
 40
0
 40
1
 40
1
 40
1
 40
1
 10
340.781213
 20
90.064921
 30
0.0
 10
340.781213
 20
89.720230
 30
0.0
 10
340.698038
 20
89.505950
 30
0.0
 10
340.486263
 20
89.265814
 30
0.0
  0
SPLINE
  5
23e
100
AcDbEntity
  8
Ebene_1
 62
7
100
AcDbSpline
 70
8
 71
3
 72
8
 73
4
 74
0
 40
0
 40
0
 40
0
 40
0
 40
1
 40
1
 40
1
 40
1
 10
340.486263
 20
89.265814
 30
0.0
 10
340.271127
 20
89.040708
 30
0.0
 10
340.080304
 20
88.952139
 30
0.0
 10
339.788041
 20
88.952139
 30
0.0
  0
LWPOLYLINE
  5
23f
100
AcDbEntity
  8
Ebene_1
 62
7
100
AcDbPolyline
 90
3
 70
0
 10
328.058221
 20
91.177721
 30
0.0
 10
340.781213
 20
91.177721
 30
0.0
 10
340.781213
 20
90.064921
 30
0.0
  0
SPLINE
  5
240
100
AcDbEntity
  8
Ebene_1
 62
7
100
AcDbSpline
 70
8
 71
3
 72
8
 73
4
 74
0
 40
0
 40
0
 40
0
 40
0
 40
1
 40
1
 40
1
 40
1
 10
341.376132
 20
83.673750
 30
0.0
 10
342.542870
 20
83.504293
 30
0.0
 10
343.549769
 20
84.153948
 30
0.0
 10
344.297345
 20
84.969510
 30
0.0
  0
SPLINE
  5
241
100
AcDbEntity
  8
Ebene_1
 62
7
100
AcDbSpline
 70
8
 71
3
 72
8
 73
4
 74
0
 40
0
 40
0
 40
0
 40
0
 40
1
 40
1
 40
1
 40
1
 10
344.297345
 20
84.969510
 30
0.0
 10
345.079584
 20
85.822895
 30
0.0
 10
345.497159
 20
86.950983
 30
0.0
 10
345.497159
 20
88.186514
 30
0.0
  0
LWPOLYLINE
  5
242
100
AcDbEntity
  8
Ebene_1
 62
7
100
AcDbPolyline
 90
12
 70
0
 10
339.788041
 20
88.952139
 30
0.0
 10
324.023862
 20
88.952139
 30
0.0
 10
324.023862
 20
76.156929
 30
0.0
 10
324.705422
 20
76.156929
 30
0.0
 10
328.739781
 20
76.156929
 30
0.0
 10
328.739781
 20
83.666391
 30
0.0
 10
332.802471
 20
83.666391
 30
0.0
 10
339.504751
 20
76.156929
 30
0.0
 10
346.463658
 20
76.156929
 30
0.0
 10
339.761377
 20
83.666391
 30
0.0
 10
341.464449
 20
83.666391
 30
0.0
 10
341.376132
 20
83.673750
 30
0.0
  0
LWPOLYLINE
  5
243
100
AcDbEntity
  8
Ebene_1
 62
7
100
AcDbPolyline
 90
3
 70
0
 10
345.497159
 20
88.186514
 30
0.0
 10
345.497159
 20
96.461482
 30
0.0
 10
324.023427
 20
96.461492
 30
0.0
  0
LWPOLYLINE
  5
244
100
AcDbEntity
  8
Ebene_1
 62
7
100
AcDbPolyline
 90
9
 70
1
 10
362.965633
 20
96.461492
 30
0.0
 10
353.903726
 20
86.310093
 30
0.0
 10
362.965633
 20
76.156828
 30
0.0
 10
363.248923
 20
76.156828
 30
0.0
 10
369.922873
 20
76.156828
 30
0.0
 10
360.857632
 20
86.313828
 30
0.0
 10
361.832475
 20
87.422875
 30
0.0
 10
361.855796
 20
87.422875
 30
0.0
 10
369.922855
 20
96.461492
 30
0.0
  0
LWPOLYLINE
  5
245
100
AcDbEntity
  8
Ebene_1
 62
7
100
AcDbPolyline
 90
5
 70
1
 10
347.483068
 20
96.461492
 30
0.0
 10
347.483068
 20
76.156828
 30
0.0
 10
348.166295
 20
76.156828
 30
0.0
 10
352.200663
 20
76.156828
 30
0.0
 10
352.200663
 20
96.461492
 30
0.0
  0
LWPOLYLINE
  5
246
100
AcDbEntity
  8
Ebene_1
 62
7
100
AcDbPolyline
 90
5
 70
1
 10
370.944376
 20
96.461492
 30
0.0
 10
370.944376
 20
76.156828
 30
0.0
 10
371.627603
 20
76.156828
 30
0.0
 10
375.661971
 20
76.156828
 30
0.0
 10
375.661971
 20
96.461492
 30
0.0
  0
LWPOLYLINE
  5
247
100
AcDbEntity
  8
Ebene_1
 62
7
100
AcDbPolyline
 90
12
 70
1
 10
376.681811
 20
96.461492
 30
0.0
 10
380.999464
 20
91.625717
 30
0.0
 10
380.999464
 20
76.156828
 30
0.0
 10
381.681023
 20
76.156828
 30
0.0
 10
385.715387
 20
76.156828
 30
0.0
 10
385.715387
 20
86.341827
 30
0.0
 10
394.805624
 20
76.156828
 30
0.0
 10
399.121611
 20
76.156828
 30
0.0
 10
399.121611
 20
96.461492
 30
0.0
 10
394.405687
 20
96.461492
 30
0.0
 10
394.405687
 20
84.400053
 30
0.0
 10
383.640715
 20
96.461492
 30
0.0
  0
SPLINE
  5
248
100
AcDbEntity
  8
Ebene_1
 62
7
100
AcDbSpline
 70
8
 71
3
 72
8
 73
4
 74
0
 40
0
 40
0
 40
0
 40
0
 40
1
 40
1
 40
1
 40
1
 10
401.107966
 20
80.677060
 30
0.0
 10
401.107966
 20
79.462510
 30
0.0
 10
401.514595
 20
78.343658
 30
0.0
 10
402.271116
 20
77.473127
 30
0.0
  0
LWPOLYLINE
  5
249
100
AcDbEntity
  8
Ebene_1
 62
7
100
AcDbPolyline
 90
2
 70
0
 10
401.107966
 20
88.952029
 30
0.0
 10
401.107966
 20
80.677060
 30
0.0
  0
SPLINE
  5
24a
100
AcDbEntity
  8
Ebene_1
 62
7
100
AcDbSpline
 70
8
 71
3
 72
8
 73
4
 74
0
 40
0
 40
0
 40
0
 40
0
 40
1
 40
1
 40
1
 40
1
 10
402.277855
 20
77.465769
 30
0.0
 10
403.041124
 20
76.610572
 30
0.0
 10
404.043891
 20
76.156929
 30
0.0
 10
405.142404
 20
76.156929
 30
0.0
  0
LWPOLYLINE
  5
24b
100
AcDbEntity
  8
Ebene_1
 62
7
100
AcDbPolyline
 90
3
 70
0
 10
402.271116
 20
77.473127
 30
0.0
 10
402.274485
 20
77.469448
 30
0.0
 10
402.277855
 20
77.465769
 30
0.0
  0
SPLINE
  5
24c
100
AcDbEntity
  8
Ebene_1
 62
7
100
AcDbSpline
 70
8
 71
3
 72
8
 73
4
 74
0
 40
0
 40
0
 40
0
 40
0
 40
1
 40
1
 40
1
 40
1
 10
407.811984
 20
88.186339
 30
0.0
 10
407.811984
 20
86.971789
 30
0.0
 10
408.216952
 20
85.854813
 30
0.0
 10
408.973468
 20
84.984273
 30
0.0
  0
LWPOLYLINE
  5
24d
100
AcDbEntity
  8
Ebene_1
 62
7
100
AcDbPolyline
 90
5
 70
0
 10
405.142404
 20
76.156929
 30
0.0
 10
422.582993
 20
76.156929
 30
0.0
 10
422.582993
 20
88.951854
 30
0.0
 10
407.811984
 20
88.951854
 30
0.0
 10
407.811984
 20
88.186339
 30
0.0
  0
SPLINE
  5
24e
100
AcDbEntity
  8
Ebene_1
 62
7
100
AcDbSpline
 70
8
 71
3
 72
8
 73
4
 74
0
 40
0
 40
0
 40
0
 40
0
 40
1
 40
1
 40
1
 40
1
 10
408.980207
 20
84.976915
 30
0.0
 10
409.743474
 20
84.121736
 30
0.0
 10
410.747909
 20
83.666217
 30
0.0
 10
411.846422
 20
83.666217
 30
0.0
  0
LWPOLYLINE
  5
24f
100
AcDbEntity
  8
Ebene_1
 62
7
100
AcDbPolyline
 90
3
 70
0
 10
408.973468
 20
84.984273
 30
0.0
 10
408.976838
 20
84.980594
 30
0.0
 10
408.980207
 20
84.976915
 30
0.0
  0
SPLINE
  5
250
100
AcDbEntity
  8
Ebene_1
 62
7
100
AcDbSpline
 70
8
 71
3
 72
8
 73
4
 74
0
 40
0
 40
0
 40
0
 40
0
 40
1
 40
1
 40
1
 40
1
 10
406.818880
 20
81.440635
 30
0.0
 10
406.506524
 20
81.440635
 30
0.0
 10
406.309715
 20
81.536038
 30
0.0
 10
406.100660
 20
81.752442
 30
0.0
  0
SPLINE
  5
251
100
AcDbEntity
  8
Ebene_1
 62
7
100
AcDbSpline
 70
8
 71
3
 72
8
 73
4
 74
0
 40
0
 40
0
 40
0
 40
0
 40
1
 40
1
 40
1
 40
1
 10
406.100660
 20
81.752442
 30
0.0
 10
405.909554
 20
81.985441
 30
0.0
 10
405.825703
 20
82.205138
 30
0.0
 10
405.825703
 20
82.553426
 30
0.0
  0
LWPOLYLINE
  5
252
100
AcDbEntity
  8
Ebene_1
 62
7
100
AcDbPolyline
 90
4
 70
0
 10
411.846422
 20
83.666217
 30
0.0
 10
417.867141
 20
83.666217
 30
0.0
 10
417.867141
 20
81.440635
 30
0.0
 10
406.818880
 20
81.440635
 30
0.0
  0
LWPOLYLINE
  5
253
100
AcDbEntity
  8
Ebene_1
 62
7
100
AcDbPolyline
 90
3
 70
0
 10
405.825703
 20
82.553426
 30
0.0
 10
405.825703
 20
88.951965
 30
0.0
 10
401.107966
 20
88.952029
 30
0.0
  0
SPLINE
  5
254
100
AcDbEntity
  8
Ebene_1
 62
7
100
AcDbSpline
 70
8
 71
3
 72
8
 73
4
 74
0
 40
0
 40
0
 40
0
 40
0
 40
1
 40
1
 40
1
 40
1
 10
418.548555
 20
91.177611
 30
0.0
 10
419.618153
 20
91.177611
 30
0.0
 10
420.606623
 20
91.633701
 30
0.0
 10
421.381442
 20
92.478973
 30
0.0
  0
SPLINE
  5
255
100
AcDbEntity
  8
Ebene_1
 62
7
100
AcDbSpline
 70
8
 71
3
 72
8
 73
4
 74
0
 40
0
 40
0
 40
0
 40
0
 40
1
 40
1
 40
1
 40
1
 10
421.381442
 20
92.478973
 30
0.0
 10
422.163677
 20
93.332358
 30
0.0
 10
422.582920
 20
94.462322
 30
0.0
 10
422.582920
 20
95.697853
 30
0.0
  0
LWPOLYLINE
  5
256
100
AcDbEntity
  8
Ebene_1
 62
7
100
AcDbPolyline
 90
4
 70
0
 10
401.107966
 20
96.461492
 30
0.0
 10
401.107966
 20
91.177611
 30
0.0
 10
401.791191
 20
91.177611
 30
0.0
 10
418.548555
 20
91.177611
 30
0.0
  0
LWPOLYLINE
  5
257
100
AcDbEntity
  8
Ebene_1
 62
7
100
AcDbPolyline
 90
3
 70
0
 10
422.582920
 20
95.697853
 30
0.0
 10
422.582920
 20
96.461492
 30
0.0
 10
401.107966
 20
96.461492
 30
0.0
  0
LWPOLYLINE
  5
258
100
AcDbEntity
  8
Ebene_1
 62
7
100
AcDbPolyline
 90
9
 70
1
 10
303.913260
 20
61.795118
 30
0.0
 10
303.913260
 20
48.999908
 30
0.0
 10
304.596488
 20
48.999908
 30
0.0
 10
325.388215
 20
48.999908
 30
0.0
 10
325.388215
 20
61.795118
 30
0.0
 10
320.672287
 20
61.795118
 30
0.0
 10
320.672287
 20
54.283798
 30
0.0
 10
308.630846
 20
54.283798
 30
0.0
 10
308.630846
 20
61.795118
 30
0.0
  0
SPLINE
  5
259
100
AcDbEntity
  8
Ebene_1
 62
7
100
AcDbSpline
 70
8
 71
3
 72
8
 73
4
 74
0
 40
0
 40
0
 40
0
 40
0
 40
1
 40
1
 40
1
 40
1
 10
303.913260
 20
68.539075
 30
0.0
 10
303.913260
 20
67.324525
 30
0.0
 10
304.319902
 20
66.207531
 30
0.0
 10
305.076416
 20
65.337000
 30
0.0
  0
LWPOLYLINE
  5
25a
100
AcDbEntity
  8
Ebene_1
 62
7
100
AcDbPolyline
 90
2
 70
0
 10
303.913260
 20
69.304581
 30
0.0
 10
303.913260
 20
68.539075
 30
0.0
  0
SPLINE
  5
25b
100
AcDbEntity
  8
Ebene_1
 62
7
100
AcDbSpline
 70
8
 71
3
 72
8
 73
4
 74
0
 40
0
 40
0
 40
0
 40
0
 40
1
 40
1
 40
1
 40
1
 10
305.083510
 20
65.329642
 30
0.0
 10
305.846782
 20
64.474454
 30
0.0
 10
306.849548
 20
64.020811
 30
0.0
 10
307.948062
 20
64.020811
 30
0.0
  0
LWPOLYLINE
  5
25c
100
AcDbEntity
  8
Ebene_1
 62
7
100
AcDbPolyline
 90
3
 70
0
 10
305.076416
 20
65.337000
 30
0.0
 10
305.079963
 20
65.333321
 30
0.0
 10
305.083510
 20
65.329642
 30
0.0
  0
SPLINE
  5
25d
100
AcDbEntity
  8
Ebene_1
 62
7
100
AcDbSpline
 70
8
 71
3
 72
8
 73
4
 74
0
 40
0
 40
0
 40
0
 40
0
 40
1
 40
1
 40
1
 40
1
 10
321.354282
 20
64.020811
 30
0.0
 10
322.423880
 20
64.020811
 30
0.0
 10
323.412352
 20
64.476882
 30
0.0
 10
324.187178
 20
65.322173
 30
0.0
  0
SPLINE
  5
25e
100
AcDbEntity
  8
Ebene_1
 62
7
100
AcDbSpline
 70
8
 71
3
 72
8
 73
4
 74
0
 40
0
 40
0
 40
0
 40
0
 40
1
 40
1
 40
1
 40
1
 10
324.187178
 20
65.322173
 30
0.0
 10
324.969408
 20
66.175558
 30
0.0
 10
325.388650
 20
67.303655
 30
0.0
 10
325.388650
 20
68.539186
 30
0.0
  0
LWPOLYLINE
  5
25f
100
AcDbEntity
  8
Ebene_1
 62
7
100
AcDbPolyline
 90
2
 70
0
 10
307.948062
 20
64.020811
 30
0.0
 10
321.354282
 20
64.020811
 30
0.0
  0
LWPOLYLINE
  5
260
100
AcDbEntity
  8
Ebene_1
 62
7
100
AcDbPolyline
 90
3
 70
0
 10
325.388650
 20
68.539186
 30
0.0
 10
325.388650
 20
69.304692
 30
0.0
 10
303.913260
 20
69.304581
 30
0.0
  0
LWPOLYLINE
  5
261
100
AcDbEntity
  8
Ebene_1
 62
7
100
AcDbPolyline
 90
12
 70
1
 10
326.409718
 20
69.304581
 30
0.0
 10
330.725708
 20
64.468797
 30
0.0
 10
330.725708
 20
48.999908
 30
0.0
 10
331.408935
 20
48.999908
 30
0.0
 10
335.443294
 20
48.999908
 30
0.0
 10
335.443294
 20
59.183058
 30
0.0
 10
344.531874
 20
48.999908
 30
0.0
 10
348.849514
 20
48.999908
 30
0.0
 10
348.849514
 20
69.304581
 30
0.0
 10
344.131936
 20
69.304581
 30
0.0
 10
344.131936
 20
57.243143
 30
0.0
 10
333.366957
 20
69.304581
 30
0.0
  0
SPLINE
  5
262
100
AcDbEntity
  8
Ebene_1
 62
7
100
AcDbSpline
 70
8
 71
3
 72
8
 73
4
 74
0
 40
0
 40
0
 40
0
 40
0
 40
1
 40
1
 40
1
 40
1
 10
368.276471
 20
48.999908
 30
0.0
 10
369.346061
 20
48.999908
 30
0.0
 10
370.332866
 20
49.455988
 30
0.0
 10
371.107692
 20
50.301279
 30
0.0
  0
SPLINE
  5
263
100
AcDbEntity
  8
Ebene_1
 62
7
100
AcDbSpline
 70
8
 71
3
 72
8
 73
4
 74
0
 40
0
 40
0
 40
0
 40
0
 40
1
 40
1
 40
1
 40
1
 10
371.107692
 20
50.301279
 30
0.0
 10
371.889922
 20
51.154664
 30
0.0
 10
372.309163
 20
52.284619
 30
0.0
 10
372.309163
 20
53.520150
 30
0.0
  0
LWPOLYLINE
  5
264
100
AcDbEntity
  8
Ebene_1
 62
7
100
AcDbPolyline
 90
4
 70
0
 10
350.835875
 20
69.304581
 30
0.0
 10
350.835875
 20
48.999908
 30
0.0
 10
351.517436
 20
48.999908
 30
0.0
 10
368.276471
 20
48.999908
 30
0.0
  0
LWPOLYLINE
  5
265
100
AcDbEntity
  8
Ebene_1
 62
7
100
AcDbPolyline
 90
5
 70
0
 10
372.309163
 20
53.520150
 30
0.0
 10
372.309163
 20
54.283798
 30
0.0
 10
355.551795
 20
54.283798
 30
0.0
 10
355.551795
 20
69.304581
 30
0.0
 10
350.835875
 20
69.304581
 30
0.0
  0
SPLINE
  5
266
100
AcDbEntity
  8
Ebene_1
 62
7
100
AcDbSpline
 70
8
 71
3
 72
8
 73
4
 74
0
 40
0
 40
0
 40
0
 40
0
 40
1
 40
1
 40
1
 40
1
 10
349.772085
 20
105.568800
 30
0.0
 10
349.600052
 20
106.509954
 30
0.0
 10
334.797008
 20
192.239010
 30
0.0
 10
334.797008
 20
192.294153
 30
0.0
  0
SPLINE
  5
267
100
AcDbEntity
  8
Ebene_1
 62
7
100
AcDbSpline
 70
8
 71
3
 72
8
 73
4
 74
0
 40
0
 40
0
 40
0
 40
0
 40
1
 40
1
 40
1
 40
1
 10
334.797008
 20
192.294153
 30
0.0
 10
334.797008
 20
192.372521
 30
0.0
 10
330.424826
 20
192.257820
 30
0.0
 10
328.227150
 20
192.121835
 30
0.0
  0
SPLINE
  5
268
100
AcDbEntity
  8
Ebene_1
 62
7
100
AcDbSpline
 70
8
 71
3
 72
8
 73
4
 74
0
 40
0
 40
0
 40
0
 40
0
 40
1
 40
1
 40
1
 40
1
 10
328.227150
 20
192.121835
 30
0.0
 10
321.686997
 20
191.717255
 30
0.0
 10
318.323212
 20
190.529214
 30
0.0
 10
316.697409
 20
188.049699
 30
0.0
  0
SPLINE
  5
269
100
AcDbEntity
  8
Ebene_1
 62
7
100
AcDbSpline
 70
8
 71
3
 72
8
 73
4
 74
0
 40
0
 40
0
 40
0
 40
0
 40
1
 40
1
 40
1
 40
1
 10
316.697409
 20
188.049699
 30
0.0
 10
316.097986
 20
187.135514
 30
0.0
 10
315.847736
 20
186.483679
 30
0.0
 10
315.586126
 20
185.155338
 30
0.0
  0
SPLINE
  5
26a
100
AcDbEntity
  8
Ebene_1
 62
7
100
AcDbSpline
 70
8
 71
3
 72
8
 73
4
 74
0
 40
0
 40
0
 40
0
 40
0
 40
1
 40
1
 40
1
 40
1
 10
315.586126
 20
185.155338
 30
0.0
 10
315.479835
 20
184.615619
 30
0.0
 10
315.373482
 20
184.153919
 30
0.0
 10
315.349797
 20
184.129350
 30
0.0
  0
SPLINE
  5
26b
100
AcDbEntity
  8
Ebene_1
 62
7
100
AcDbSpline
 70
8
 71
3
 72
8
 73
4
 74
0
 40
0
 40
0
 40
0
 40
0
 40
1
 40
1
 40
1
 40
1
 10
315.349797
 20
184.129350
 30
0.0
 10
315.270170
 20
184.046751
 30
0.0
 10
312.552228
 20
185.386396
 30
0.0
 10
311.190446
 20
186.179459
 30
0.0
  0
SPLINE
  5
26c
100
AcDbEntity
  8
Ebene_1
 62
7
100
AcDbSpline
 70
8
 71
3
 72
8
 73
4
 74
0
 40
0
 40
0
 40
0
 40
0
 40
1
 40
1
 40
1
 40
1
 10
311.190446
 20
186.179459
 30
0.0
 10
307.117338
 20
188.551522
 30
0.0
 10
303.919627
 20
191.297976
 30
0.0
 10
301.744296
 20
194.292605
 30
0.0
  0
SPLINE
  5
26d
100
AcDbEntity
  8
Ebene_1
 62
7
100
AcDbSpline
 70
8
 71
3
 72
8
 73
4
 74
0
 40
0
 40
0
 40
0
 40
0
 40
1
 40
1
 40
1
 40
1
 10
301.744296
 20
194.292605
 30
0.0
 10
301.424704
 20
194.732552
 30
0.0
 10
301.163228
 20
195.128523
 30
0.0
 10
301.163228
 20
195.172536
 30
0.0
  0
SPLINE
  5
26e
100
AcDbEntity
  8
Ebene_1
 62
7
100
AcDbSpline
 70
8
 71
3
 72
8
 73
4
 74
0
 40
0
 40
0
 40
0
 40
0
 40
1
 40
1
 40
1
 40
1
 10
301.163228
 20
195.172536
 30
0.0
 10
301.163228
 20
195.216595
 30
0.0
 10
301.328708
 20
195.323606
 30
0.0
 10
301.530942
 20
195.410418
 30
0.0
  0
SPLINE
  5
26f
100
AcDbEntity
  8
Ebene_1
 62
7
100
AcDbSpline
 70
8
 71
3
 72
8
 73
4
 74
0
 40
0
 40
0
 40
0
 40
0
 40
1
 40
1
 40
1
 40
1
 10
301.530942
 20
195.410418
 30
0.0
 10
301.733186
 20
195.497249
 30
0.0
 10
302.604682
 20
195.886882
 30
0.0
 10
303.467585
 20
196.276304
 30
0.0
  0
SPLINE
  5
270
100
AcDbEntity
  8
Ebene_1
 62
7
100
AcDbSpline
 70
8
 71
3
 72
8
 73
4
 74
0
 40
0
 40
0
 40
0
 40
0
 40
1
 40
1
 40
1
 40
1
 10
303.467585
 20
196.276304
 30
0.0
 10
313.354329
 20
200.737981
 30
0.0
 10
326.205603
 20
203.856610
 30
0.0
 10
337.738740
 20
204.592903
 30
0.0
  0
LWPOLYLINE
  5
271
100
AcDbEntity
  8
Ebene_1
 62
7
100
AcDbPolyline
 90
14
 70
1
 10
374.295516
 20
69.304581
 30
0.0
 10
374.295516
 20
64.468797
 30
0.0
 10
382.674199
 20
55.079179
 30
0.0
 10
382.674199
 20
48.999908
 30
0.0
 10
383.357426
 20
48.999908
 30
0.0
 10
387.391791
 20
48.999908
 30
0.0
 10
387.391791
 20
55.079179
 30
0.0
 10
395.770473
 20
64.468797
 30
0.0
 10
395.770473
 20
69.304581
 30
0.0
 10
391.054548
 20
69.304581
 30
0.0
 10
391.054548
 20
66.980046
 30
0.0
 10
385.033828
 20
60.234231
 30
0.0
 10
379.013108
 20
66.980046
 30
0.0
 10
379.013108
 20
69.304581
 30
0.0
  0
SPLINE
  5
272
100
AcDbEntity
  8
Ebene_1
 62
7
100
AcDbSpline
 70
8
 71
3
 72
8
 73
4
 74
0
 40
0
 40
0
 40
0
 40
0
 40
1
 40
1
 40
1
 40
1
 10
344.294783
 20
197.673179
 30
0.0
 10
347.334320
 20
193.831153
 30
0.0
 10
349.854852
 20
190.726174
 30
0.0
 10
349.895942
 20
190.773213
 30
0.0
  0
SPLINE
  5
273
100
AcDbEntity
  8
Ebene_1
 62
7
100
AcDbSpline
 70
8
 71
3
 72
8
 73
4
 74
0
 40
0
 40
0
 40
0
 40
0
 40
1
 40
1
 40
1
 40
1
 10
349.895942
 20
190.773213
 30
0.0
 10
349.937086
 20
190.820215
 30
0.0
 10
352.404006
 20
193.934733
 30
0.0
 10
355.378050
 20
197.694252
 30
0.0
  0
SPLINE
  5
274
100
AcDbEntity
  8
Ebene_1
 62
7
100
AcDbSpline
 70
8
 71
3
 72
8
 73
4
 74
0
 40
0
 40
0
 40
0
 40
0
 40
1
 40
1
 40
1
 40
1
 10
355.378050
 20
197.694252
 30
0.0
 10
358.352122
 20
201.453771
 30
0.0
 10
360.830879
 20
204.558870
 30
0.0
 10
360.886388
 20
204.594467
 30
0.0
  0
SPLINE
  5
275
100
AcDbEntity
  8
Ebene_1
 62
7
100
AcDbSpline
 70
8
 71
3
 72
8
 73
4
 74
0
 40
0
 40
0
 40
0
 40
0
 40
1
 40
1
 40
1
 40
1
 10
360.886388
 20
204.594467
 30
0.0
 10
361.002211
 20
204.668696
 30
0.0
 10
363.475622
 20
204.503221
 30
0.0
 10
365.636144
 20
204.276699
 30
0.0
  0
SPLINE
  5
276
100
AcDbEntity
  8
Ebene_1
 62
7
100
AcDbSpline
 70
8
 71
3
 72
8
 73
4
 74
0
 40
0
 40
0
 40
0
 40
0
 40
1
 40
1
 40
1
 40
1
 10
365.636144
 20
204.276699
 30
0.0
 10
374.747380
 20
203.321334
 30
0.0
 10
383.898225
 20
201.134310
 30
0.0
 10
392.209772
 20
197.925659
 30
0.0
  0
SPLINE
  5
277
100
AcDbEntity
  8
Ebene_1
 62
7
100
AcDbSpline
 70
8
 71
3
 72
8
 73
4
 74
0
 40
0
 40
0
 40
0
 40
0
 40
1
 40
1
 40
1
 40
1
 10
392.209772
 20
197.925659
 30
0.0
 10
394.171332
 20
197.168394
 30
0.0
 10
397.326613
 20
195.816811
 30
0.0
 10
398.149526
 20
195.381334
 30
0.0
  0
LWPOLYLINE
  5
278
100
AcDbEntity
  8
Ebene_1
 62
7
100
AcDbPolyline
 90
3
 70
0
 10
337.738740
 20
204.592903
 30
0.0
 10
338.768338
 20
204.658670
 30
0.0
 10
344.294783
 20
197.673179
 30
0.0
  0
SPLINE
  5
279
100
AcDbEntity
  8
Ebene_1
 62
7
100
AcDbSpline
 70
8
 71
3
 72
8
 73
4
 74
0
 40
0
 40
0
 40
0
 40
0
 40
1
 40
1
 40
1
 40
1
 10
398.038065
 20
194.470635
 30
0.0
 10
396.110874
 20
191.722093
 30
0.0
 10
393.089630
 20
189.021068
 30
0.0
 10
389.348128
 20
186.701693
 30
0.0
  0
SPLINE
  5
27a
100
AcDbEntity
  8
Ebene_1
 62
7
100
AcDbSpline
 70
8
 71
3
 72
8
 73
4
 74
0
 40
0
 40
0
 40
0
 40
0
 40
1
 40
1
 40
1
 40
1
 10
389.348128
 20
186.701693
 30
0.0
 10
388.319133
 20
186.063811
 30
0.0
 10
384.912829
 20
184.290336
 30
0.0
 10
384.448392
 20
184.150653
 30
0.0
  0
SPLINE
  5
27b
100
AcDbEntity
  8
Ebene_1
 62
7
100
AcDbSpline
 70
8
 71
3
 72
8
 73
4
 74
0
 40
0
 40
0
 40
0
 40
0
 40
1
 40
1
 40
1
 40
1
 10
384.448392
 20
184.150653
 30
0.0
 10
384.256727
 20
184.092981
 30
0.0
 10
384.231030
 20
184.136304
 30
0.0
 10
384.167265
 20
184.624900
 30
0.0
  0
SPLINE
  5
27c
100
AcDbEntity
  8
Ebene_1
 62
7
100
AcDbSpline
 70
8
 71
3
 72
8
 73
4
 74
0
 40
0
 40
0
 40
0
 40
0
 40
1
 40
1
 40
1
 40
1
 10
384.167265
 20
184.624900
 30
0.0
 10
384.128693
 20
184.920620
 30
0.0
 10
383.989274
 20
185.550417
 30
0.0
 10
383.857498
 20
186.024443
 30
0.0
  0
SPLINE
  5
27d
100
AcDbEntity
  8
Ebene_1
 62
7
100
AcDbSpline
 70
8
 71
3
 72
8
 73
4
 74
0
 40
0
 40
0
 40
0
 40
0
 40
1
 40
1
 40
1
 40
1
 10
383.857498
 20
186.024443
 30
0.0
 10
382.819787
 20
189.757306
 30
0.0
 10
379.753718
 20
191.414857
 30
0.0
 10
372.745324
 20
192.031794
 30
0.0
  0
SPLINE
  5
27e
100
AcDbEntity
  8
Ebene_1
 62
7
100
AcDbSpline
 70
8
 71
3
 72
8
 73
4
 74
0
 40
0
 40
0
 40
0
 40
0
 40
1
 40
1
 40
1
 40
1
 10
372.745324
 20
192.031794
 30
0.0
 10
371.219321
 20
192.166124
 30
0.0
 10
364.872775
 20
192.338515
 30
0.0
 10
364.793032
 20
192.247794
 30
0.0
  0
SPLINE
  5
27f
100
AcDbEntity
  8
Ebene_1
 62
7
100
AcDbSpline
 70
8
 71
3
 72
8
 73
4
 74
0
 40
0
 40
0
 40
0
 40
0
 40
1
 40
1
 40
1
 40
1
 10
364.793032
 20
192.247794
 30
0.0
 10
364.752243
 20
192.201436
 30
0.0
 10
352.500508
 20
120.907830
 30
0.0
 10
349.914838
 20
105.670541
 30
0.0
  0
LWPOLYLINE
  5
280
100
AcDbEntity
  8
Ebene_1
 62
7
100
AcDbPolyline
 90
3
 70
0
 10
398.149526
 20
195.381334
 30
0.0
 10
398.533972
 20
195.177880
 30
0.0
 10
398.038065
 20
194.470635
 30
0.0
  0
SPLINE
  5
281
100
AcDbEntity
  8
Ebene_1
 62
7
100
AcDbSpline
 70
8
 71
3
 72
8
 73
4
 74
0
 40
0
 40
0
 40
0
 40
0
 40
1
 40
1
 40
1
 40
1
 10
398.534495
 20
199.018582
 30
0.0
 10
386.823101
 20
204.142139
 30
0.0
 10
373.517560
 20
207.402429
 30
0.0
 10
360.242974
 20
208.401255
 30
0.0
  0
SPLINE
  5
282
100
AcDbEntity
  8
Ebene_1
 62
7
100
AcDbSpline
 70
8
 71
3
 72
8
 73
4
 74
0
 40
0
 40
0
 40
0
 40
0
 40
1
 40
1
 40
1
 40
1
 10
360.242974
 20
208.401255
 30
0.0
 10
355.978130
 20
208.722160
 30
0.0
 10
347.117952
 20
208.827248
 30
0.0
 10
342.827596
 20
208.607818
 30
0.0
  0
SPLINE
  5
283
100
AcDbEntity
  8
Ebene_1
 62
7
100
AcDbSpline
 70
8
 71
3
 72
8
 73
4
 74
0
 40
0
 40
0
 40
0
 40
0
 40
1
 40
1
 40
1
 40
1
 10
342.827596
 20
208.607818
 30
0.0
 10
327.959538
 20
207.847380
 30
0.0
 10
314.280642
 20
204.704274
 30
0.0
 10
301.134436
 20
199.027670
 30
0.0
  0
SPLINE
  5
284
100
AcDbEntity
  8
Ebene_1
 62
7
100
AcDbSpline
 70
8
 71
3
 72
8
 73
4
 74
0
 40
0
 40
0
 40
0
 40
0
 40
1
 40
1
 40
1
 40
1
 10
301.134436
 20
199.027670
 30
0.0
 10
300.228713
 20
198.636583
 30
0.0
 10
299.431285
 20
198.339042
 30
0.0
 10
299.362369
 20
198.366471
 30
0.0
  0
SPLINE
  5
285
100
AcDbEntity
  8
Ebene_1
 62
7
100
AcDbSpline
 70
8
 71
3
 72
8
 73
4
 74
0
 40
0
 40
0
 40
0
 40
0
 40
1
 40
1
 40
1
 40
1
 10
299.362369
 20
198.366471
 30
0.0
 10
299.293470
 20
198.393973
 30
0.0
 10
298.726403
 20
199.485139
 30
0.0
 10
298.102276
 20
200.791441
 30
0.0
  0
SPLINE
  5
286
100
AcDbEntity
  8
Ebene_1
 62
7
100
AcDbSpline
 70
8
 71
3
 72
8
 73
4
 74
0
 40
0
 40
0
 40
0
 40
0
 40
1
 40
1
 40
1
 40
1
 10
298.102276
 20
200.791441
 30
0.0
 10
296.934562
 20
203.235460
 30
0.0
 10
296.390381
 20
204.505070
 30
0.0
 10
296.473565
 20
204.591358
 30
0.0
  0
SPLINE
  5
287
100
AcDbEntity
  8
Ebene_1
 62
7
100
AcDbSpline
 70
8
 71
3
 72
8
 73
4
 74
0
 40
0
 40
0
 40
0
 40
0
 40
1
 40
1
 40
1
 40
1
 10
296.473565
 20
204.591358
 30
0.0
 10
296.558690
 20
204.679568
 30
0.0
 10
299.987134
 20
206.023186
 30
0.0
 10
301.996719
 20
206.755800
 30
0.0
  0
SPLINE
  5
288
100
AcDbEntity
  8
Ebene_1
 62
7
100
AcDbSpline
 70
8
 71
3
 72
8
 73
4
 74
0
 40
0
 40
0
 40
0
 40
0
 40
1
 40
1
 40
1
 40
1
 10
301.996719
 20
206.755800
 30
0.0
 10
320.835852
 20
213.623830
 30
0.0
 10
340.955542
 20
216.469946
 30
0.0
 10
359.997831
 20
214.960587
 30
0.0
  0
SPLINE
  5
289
100
AcDbEntity
  8
Ebene_1
 62
7
100
AcDbSpline
 70
8
 71
3
 72
8
 73
4
 74
0
 40
0
 40
0
 40
0
 40
0
 40
1
 40
1
 40
1
 40
1
 10
359.997831
 20
214.960587
 30
0.0
 10
374.240317
 20
213.831680
 30
0.0
 10
387.663181
 20
210.715259
 30
0.0
 10
401.326762
 20
205.365142
 30
0.0
  0
SPLINE
  5
28a
100
AcDbEntity
  8
Ebene_1
 62
7
100
AcDbSpline
 70
8
 71
3
 72
8
 73
4
 74
0
 40
0
 40
0
 40
0
 40
0
 40
1
 40
1
 40
1
 40
1
 10
401.326762
 20
205.365142
 30
0.0
 10
402.344053
 20
204.966817
 30
0.0
 10
403.193860
 20
204.622769
 30
0.0
 10
403.215221
 20
204.600611
 30
0.0
  0
SPLINE
  5
28b
100
AcDbEntity
  8
Ebene_1
 62
7
100
AcDbSpline
 70
8
 71
3
 72
8
 73
4
 74
0
 40
0
 40
0
 40
0
 40
0
 40
1
 40
1
 40
1
 40
1
 10
403.215221
 20
204.600611
 30
0.0
 10
403.326912
 20
204.484751
 30
0.0
 10
400.594863
 20
198.568572
 30
0.0
 10
400.318028
 20
198.326836
 30
0.0
  0
SPLINE
  5
28c
100
AcDbEntity
  8
Ebene_1
 62
7
100
AcDbSpline
 70
8
 71
3
 72
8
 73
4
 74
0
 40
0
 40
0
 40
0
 40
0
 40
1
 40
1
 40
1
 40
1
 10
400.318028
 20
198.326836
 30
0.0
 10
400.280875
 20
198.294366
 30
0.0
 10
399.478295
 20
198.605687
 30
0.0
 10
398.534495
 20
199.018582
 30
0.0
  0
LWPOLYLINE
  5
28d
100
AcDbEntity
  8
Ebene_1
 62
7
100
AcDbPolyline
 90
3
 70
0
 10
349.914838
 20
105.670541
 30
0.0
 10
349.837161
 20
105.212814
 30
0.0
 10
349.772085
 20
105.568800
 30
0.0
  0
LWPOLYLINE
  5
28e
100
AcDbEntity
  8
Ebene_1
 62
7
100
AcDbPolyline
 90
1
 70
1
 10
398.534495
 20
199.018582
 30
0.0
  0
SPLINE
  5
28f
100
AcDbEntity
  8
Ebene_1
 62
7
100
AcDbSpline
 70
8
 71
3
 72
8
 73
4
 74
0
 40
0
 40
0
 40
0
 40
0
 40
1
 40
1
 40
1
 40
1
 10
396.696048
 20
245.733351
 30
0.0
 10
396.696048
 20
244.452667
 30
0.0
 10
397.159315
 20
243.272046
 30
0.0
 10
398.020933
 20
242.354113
 30
0.0
  0
LWPOLYLINE
  5
290
100
AcDbEntity
  8
Ebene_1
 62
7
100
AcDbPolyline
 90
2
 70
0
 10
396.696048
 20
246.561543
 30
0.0
 10
396.696048
 20
245.733351
 30
0.0
  0
SPLINE
  5
291
100
AcDbEntity
  8
Ebene_1
 62
7
100
AcDbSpline
 70
8
 71
3
 72
8
 73
4
 74
0
 40
0
 40
0
 40
0
 40
0
 40
1
 40
1
 40
1
 40
1
 10
398.028027
 20
242.346938
 30
0.0
 10
398.897546
 20
241.444974
 30
0.0
 10
400.043393
 20
240.965421
 30
0.0
 10
401.294344
 20
240.965421
 30
0.0
  0
LWPOLYLINE
  5
292
100
AcDbEntity
  8
Ebene_1
 62
7
100
AcDbPolyline
 90
3
 70
0
 10
398.020933
 20
242.354113
 30
0.0
 10
398.024480
 20
242.350525
 30
0.0
 10
398.028027
 20
242.346938
 30
0.0
  0
SPLINE
  5
293
100
AcDbEntity
  8
Ebene_1
 62
7
100
AcDbSpline
 70
8
 71
3
 72
8
 73
4
 74
0
 40
0
 40
0
 40
0
 40
0
 40
1
 40
1
 40
1
 40
1
 10
416.493300
 20
240.965421
 30
0.0
 10
417.711690
 20
240.965420
 30
0.0
 10
418.839121
 20
241.446710
 30
0.0
 10
419.721523
 20
242.337955
 30
0.0
  0
SPLINE
  5
294
100
AcDbEntity
  8
Ebene_1
 62
7
100
AcDbSpline
 70
8
 71
3
 72
8
 73
4
 74
0
 40
0
 40
0
 40
0
 40
0
 40
1
 40
1
 40
1
 40
1
 10
419.721523
 20
242.337955
 30
0.0
 10
420.612589
 20
243.237959
 30
0.0
 10
421.091436
 20
244.430606
 30
0.0
 10
421.091436
 20
245.733362
 30
0.0
  0
LWPOLYLINE
  5
295
100
AcDbEntity
  8
Ebene_1
 62
7
100
AcDbPolyline
 90
2
 70
0
 10
401.294344
 20
240.965421
 30
0.0
 10
416.493300
 20
240.965421
 30
0.0
  0
LWPOLYLINE
  5
296
100
AcDbEntity
  8
Ebene_1
 62
7
100
AcDbPolyline
 90
3
 70
0
 10
421.091436
 20
245.733362
 30
0.0
 10
421.091436
 20
246.561554
 30
0.0
 10
396.696048
 20
246.561543
 30
0.0
  0
LWPOLYLINE
  5
297
100
AcDbEntity
  8
Ebene_1
 62
7
100
AcDbPolyline
 90
9
 70
1
 10
396.696048
 20
238.678450
 30
0.0
 10
396.696048
 20
225.197426
 30
0.0
 10
397.494443
 20
225.197426
 30
0.0
 10
402.092579
 20
225.197426
 30
0.0
 10
402.092579
 20
233.080519
 30
0.0
 10
415.694737
 20
233.080519
 30
0.0
 10
415.694737
 20
225.197426
 30
0.0
 10
421.091268
 20
225.197426
 30
0.0
 10
421.091268
 20
238.678450
 30
0.0
  0
SPLINE
  5
298
100
AcDbEntity
  8
Ebene_1
 62
7
100
AcDbSpline
 70
8
 71
3
 72
8
 73
4
 74
0
 40
0
 40
0
 40
0
 40
0
 40
1
 40
1
 40
1
 40
1
 10
278.592428
 20
245.733351
 30
0.0
 10
278.592428
 20
244.452666
 30
0.0
 10
279.055695
 20
243.272046
 30
0.0
 10
279.917313
 20
242.354113
 30
0.0
  0
LWPOLYLINE
  5
299
100
AcDbEntity
  8
Ebene_1
 62
7
100
AcDbPolyline
 90
2
 70
0
 10
278.592428
 20
246.561543
 30
0.0
 10
278.592428
 20
245.733351
 30
0.0
  0
SPLINE
  5
29a
100
AcDbEntity
  8
Ebene_1
 62
7
100
AcDbSpline
 70
8
 71
3
 72
8
 73
4
 74
0
 40
0
 40
0
 40
0
 40
0
 40
1
 40
1
 40
1
 40
1
 10
279.924407
 20
242.346938
 30
0.0
 10
280.793925
 20
241.444973
 30
0.0
 10
281.939764
 20
240.965421
 30
0.0
 10
283.190732
 20
240.965421
 30
0.0
  0
LWPOLYLINE
  5
29b
100
AcDbEntity
  8
Ebene_1
 62
7
100
AcDbPolyline
 90
3
 70
0
 10
279.917313
 20
242.354113
 30
0.0
 10
279.920860
 20
242.350525
 30
0.0
 10
279.924407
 20
242.346938
 30
0.0
  0
SPLINE
  5
29c
100
AcDbEntity
  8
Ebene_1
 62
7
100
AcDbSpline
 70
8
 71
3
 72
8
 73
4
 74
0
 40
0
 40
0
 40
0
 40
0
 40
1
 40
1
 40
1
 40
1
 10
298.389689
 20
240.965410
 30
0.0
 10
299.608079
 20
240.965409
 30
0.0
 10
300.735509
 20
241.446700
 30
0.0
 10
301.617912
 20
242.337944
 30
0.0
  0
SPLINE
  5
29d
100
AcDbEntity
  8
Ebene_1
 62
7
100
AcDbSpline
 70
8
 71
3
 72
8
 73
4
 74
0
 40
0
 40
0
 40
0
 40
0
 40
1
 40
1
 40
1
 40
1
 10
301.617912
 20
242.337944
 30
0.0
 10
302.508987
 20
243.237948
 30
0.0
 10
302.987825
 20
244.430594
 30
0.0
 10
302.987825
 20
245.733351
 30
0.0
  0
LWPOLYLINE
  5
29e
100
AcDbEntity
  8
Ebene_1
 62
7
100
AcDbPolyline
 90
7
 70
0
 10
283.190732
 20
240.965421
 30
0.0
 10
288.091941
 20
240.965421
 30
0.0
 10
288.091941
 20
225.197426
 30
0.0
 10
288.890344
 20
225.197426
 30
0.0
 10
293.488480
 20
225.197426
 30
0.0
 10
293.488480
 20
240.965410
 30
0.0
 10
298.389689
 20
240.965410
 30
0.0
  0
LWPOLYLINE
  5
29f
100
AcDbEntity
  8
Ebene_1
 62
7
100
AcDbPolyline
 90
3
 70
0
 10
302.987825
 20
245.733351
 30
0.0
 10
302.987825
 20
246.561543
 30
0.0
 10
278.592428
 20
246.561543
 30
0.0
  0
SPLINE
  5
2a0
100
AcDbEntity
  8
Ebene_1
 62
7
100
AcDbSpline
 70
8
 71
3
 72
8
 73
4
 74
0
 40
0
 40
0
 40
0
 40
0
 40
1
 40
1
 40
1
 40
1
 10
308.117470
 20
229.967164
 30
0.0
 10
308.117470
 20
228.686479
 30
0.0
 10
308.580738
 20
227.505859
 30
0.0
 10
309.442356
 20
226.587926
 30
0.0
  0
LWPOLYLINE
  5
2a1
100
AcDbEntity
  8
Ebene_1
 62
7
100
AcDbPolyline
 90
2
 70
0
 10
308.117470
 20
230.795357
 30
0.0
 10
308.117470
 20
229.967164
 30
0.0
  0
SPLINE
  5
2a2
100
AcDbEntity
  8
Ebene_1
 62
7
100
AcDbSpline
 70
8
 71
3
 72
8
 73
4
 74
0
 40
0
 40
0
 40
0
 40
0
 40
1
 40
1
 40
1
 40
1
 10
309.451223
 20
226.580751
 30
0.0
 10
310.320733
 20
225.678786
 30
0.0
 10
311.464851
 20
225.197437
 30
0.0
 10
312.715810
 20
225.197437
 30
0.0
  0
LWPOLYLINE
  5
2a3
100
AcDbEntity
  8
Ebene_1
 62
7
100
AcDbPolyline
 90
3
 70
0
 10
309.442356
 20
226.587926
 30
0.0
 10
309.445903
 20
226.584339
 30
0.0
 10
309.451223
 20
226.580751
 30
0.0
  0
SPLINE
  5
2a4
100
AcDbEntity
  8
Ebene_1
 62
7
100
AcDbSpline
 70
8
 71
3
 72
8
 73
4
 74
0
 40
0
 40
0
 40
0
 40
0
 40
1
 40
1
 40
1
 40
1
 10
327.914758
 20
225.197437
 30
0.0
 10
329.133148
 20
225.197437
 30
0.0
 10
330.262308
 20
225.680524
 30
0.0
 10
331.144710
 20
226.571768
 30
0.0
  0
SPLINE
  5
2a5
100
AcDbEntity
  8
Ebene_1
 62
7
100
AcDbSpline
 70
8
 71
3
 72
8
 73
4
 74
0
 40
0
 40
0
 40
0
 40
0
 40
1
 40
1
 40
1
 40
1
 10
331.144710
 20
226.571768
 30
0.0
 10
332.035785
 20
227.471772
 30
0.0
 10
332.512894
 20
228.664418
 30
0.0
 10
332.512894
 20
229.967175
 30
0.0
  0
LWPOLYLINE
  5
2a6
100
AcDbEntity
  8
Ebene_1
 62
7
100
AcDbPolyline
 90
2
 70
0
 10
312.715810
 20
225.197437
 30
0.0
 10
327.914758
 20
225.197437
 30
0.0
  0
LWPOLYLINE
  5
2a7
100
AcDbEntity
  8
Ebene_1
 62
7
100
AcDbPolyline
 90
3
 70
0
 10
332.512894
 20
229.967175
 30
0.0
 10
332.512894
 20
230.795368
 30
0.0
 10
308.117470
 20
230.795357
 30
0.0
  0
SPLINE
  5
2a8
100
AcDbEntity
  8
Ebene_1
 62
7
100
AcDbSpline
 70
8
 71
3
 72
8
 73
4
 74
0
 40
0
 40
0
 40
0
 40
0
 40
1
 40
1
 40
1
 40
1
 10
308.117470
 20
237.850258
 30
0.0
 10
308.117470
 20
236.569573
 30
0.0
 10
308.580738
 20
235.388952
 30
0.0
 10
309.442356
 20
234.471020
 30
0.0
  0
LWPOLYLINE
  5
2a9
100
AcDbEntity
  8
Ebene_1
 62
7
100
AcDbPolyline
 90
2
 70
0
 10
308.117470
 20
238.678450
 30
0.0
 10
308.117470
 20
237.850258
 30
0.0
  0
SPLINE
  5
2aa
100
AcDbEntity
  8
Ebene_1
 62
7
100
AcDbSpline
 70
8
 71
3
 72
8
 73
4
 74
0
 40
0
 40
0
 40
0
 40
0
 40
1
 40
1
 40
1
 40
1
 10
309.451223
 20
234.463845
 30
0.0
 10
310.320733
 20
233.561880
 30
0.0
 10
311.464851
 20
233.080531
 30
0.0
 10
312.715810
 20
233.080531
 30
0.0
  0
LWPOLYLINE
  5
2ab
100
AcDbEntity
  8
Ebene_1
 62
7
100
AcDbPolyline
 90
3
 70
0
 10
309.442356
 20
234.471020
 30
0.0
 10
309.445903
 20
234.467433
 30
0.0
 10
309.451223
 20
234.463845
 30
0.0
  0
SPLINE
  5
2ac
100
AcDbEntity
  8
Ebene_1
 62
7
100
AcDbSpline
 70
8
 71
3
 72
8
 73
4
 74
0
 40
0
 40
0
 40
0
 40
0
 40
1
 40
1
 40
1
 40
1
 10
327.914758
 20
233.080531
 30
0.0
 10
329.133148
 20
233.080531
 30
0.0
 10
330.262308
 20
233.563618
 30
0.0
 10
331.144710
 20
234.454862
 30
0.0
  0
SPLINE
  5
2ad
100
AcDbEntity
  8
Ebene_1
 62
7
100
AcDbSpline
 70
8
 71
3
 72
8
 73
4
 74
0
 40
0
 40
0
 40
0
 40
0
 40
1
 40
1
 40
1
 40
1
 10
331.144710
 20
234.454862
 30
0.0
 10
332.035785
 20
235.354867
 30
0.0
 10
332.512894
 20
236.547513
 30
0.0
 10
332.512894
 20
237.850270
 30
0.0
  0
LWPOLYLINE
  5
2ae
100
AcDbEntity
  8
Ebene_1
 62
7
100
AcDbPolyline
 90
2
 70
0
 10
312.715810
 20
233.080531
 30
0.0
 10
327.914758
 20
233.080531
 30
0.0
  0
LWPOLYLINE
  5
2af
100
AcDbEntity
  8
Ebene_1
 62
7
100
AcDbPolyline
 90
3
 70
0
 10
332.512894
 20
237.850270
 30
0.0
 10
332.512894
 20
238.678461
 30
0.0
 10
308.117470
 20
238.678450
 30
0.0
  0
SPLINE
  5
2b0
100
AcDbEntity
  8
Ebene_1
 62
7
100
AcDbSpline
 70
8
 71
3
 72
8
 73
4
 74
0
 40
0
 40
0
 40
0
 40
0
 40
1
 40
1
 40
1
 40
1
 10
308.117470
 20
245.733351
 30
0.0
 10
308.117470
 20
244.452666
 30
0.0
 10
308.580738
 20
243.272046
 30
0.0
 10
309.442356
 20
242.354113
 30
0.0
  0
LWPOLYLINE
  5
2b1
100
AcDbEntity
  8
Ebene_1
 62
7
100
AcDbPolyline
 90
2
 70
0
 10
308.117470
 20
246.561543
 30
0.0
 10
308.117470
 20
245.733351
 30
0.0
  0
SPLINE
  5
2b2
100
AcDbEntity
  8
Ebene_1
 62
7
100
AcDbSpline
 70
8
 71
3
 72
8
 73
4
 74
0
 40
0
 40
0
 40
0
 40
0
 40
1
 40
1
 40
1
 40
1
 10
309.451223
 20
242.346938
 30
0.0
 10
310.320733
 20
241.444973
 30
0.0
 10
311.464851
 20
240.965420
 30
0.0
 10
312.715810
 20
240.965421
 30
0.0
  0
LWPOLYLINE
  5
2b3
100
AcDbEntity
  8
Ebene_1
 62
7
100
AcDbPolyline
 90
3
 70
0
 10
309.442356
 20
242.354113
 30
0.0
 10
309.445903
 20
242.350525
 30
0.0
 10
309.451223
 20
242.346938
 30
0.0
  0
SPLINE
  5
2b4
100
AcDbEntity
  8
Ebene_1
 62
7
100
AcDbSpline
 70
8
 71
3
 72
8
 73
4
 74
0
 40
0
 40
0
 40
0
 40
0
 40
1
 40
1
 40
1
 40
1
 10
327.914758
 20
240.965421
 30
0.0
 10
329.133148
 20
240.965420
 30
0.0
 10
330.262308
 20
241.446711
 30
0.0
 10
331.144710
 20
242.337955
 30
0.0
  0
SPLINE
  5
2b5
100
AcDbEntity
  8
Ebene_1
 62
7
100
AcDbSpline
 70
8
 71
3
 72
8
 73
4
 74
0
 40
0
 40
0
 40
0
 40
0
 40
1
 40
1
 40
1
 40
1
 10
331.144710
 20
242.337955
 30
0.0
 10
332.035785
 20
243.237959
 30
0.0
 10
332.512894
 20
244.430605
 30
0.0
 10
332.512894
 20
245.733362
 30
0.0
  0
LWPOLYLINE
  5
2b6
100
AcDbEntity
  8
Ebene_1
 62
7
100
AcDbPolyline
 90
2
 70
0
 10
312.715810
 20
240.965421
 30
0.0
 10
327.914758
 20
240.965421
 30
0.0
  0
LWPOLYLINE
  5
2b7
100
AcDbEntity
  8
Ebene_1
 62
7
100
AcDbPolyline
 90
3
 70
0
 10
332.512894
 20
245.733362
 30
0.0
 10
332.512894
 20
246.561554
 30
0.0
 10
308.117470
 20
246.561543
 30
0.0
  0
SPLINE
  5
2b8
100
AcDbEntity
  8
Ebene_1
 62
7
100
AcDbSpline
 70
8
 71
3
 72
8
 73
4
 74
0
 40
0
 40
0
 40
0
 40
0
 40
1
 40
1
 40
1
 40
1
 10
342.242369
 20
230.795357
 30
0.0
 10
341.002742
 20
230.795357
 30
0.0
 10
339.859271
 20
230.299478
 30
0.0
 10
338.976053
 20
229.383299
 30
0.0
  0
SPLINE
  5
2b9
100
AcDbEntity
  8
Ebene_1
 62
7
100
AcDbSpline
 70
8
 71
3
 72
8
 73
4
 74
0
 40
0
 40
0
 40
0
 40
0
 40
1
 40
1
 40
1
 40
1
 10
338.976053
 20
229.383299
 30
0.0
 10
338.109079
 20
228.483970
 30
0.0
 10
337.644242
 20
227.306303
 30
0.0
 10
337.644242
 20
226.025618
 30
0.0
  0
LWPOLYLINE
  5
2ba
100
AcDbEntity
  8
Ebene_1
 62
7
100
AcDbPolyline
 90
5
 70
0
 10
337.644242
 20
246.561543
 30
0.0
 10
337.644242
 20
233.080519
 30
0.0
 10
356.642931
 20
233.080519
 30
0.0
 10
356.642931
 20
230.795357
 30
0.0
 10
342.242369
 20
230.795357
 30
0.0
  0
SPLINE
  5
2bb
100
AcDbEntity
  8
Ebene_1
 62
7
100
AcDbSpline
 70
8
 71
3
 72
8
 73
4
 74
0
 40
0
 40
0
 40
0
 40
0
 40
1
 40
1
 40
1
 40
1
 10
357.441326
 20
240.965410
 30
0.0
 10
358.659716
 20
240.965410
 30
0.0
 10
359.787146
 20
241.446699
 30
0.0
 10
360.669540
 20
242.337944
 30
0.0
  0
SPLINE
  5
2bc
100
AcDbEntity
  8
Ebene_1
 62
7
100
AcDbSpline
 70
8
 71
3
 72
8
 73
4
 74
0
 40
0
 40
0
 40
0
 40
0
 40
1
 40
1
 40
1
 40
1
 10
360.669540
 20
242.337944
 30
0.0
 10
361.560615
 20
243.237948
 30
0.0
 10
362.039453
 20
244.430595
 30
0.0
 10
362.039453
 20
245.733351
 30
0.0
  0
LWPOLYLINE
  5
2bd
100
AcDbEntity
  8
Ebene_1
 62
7
100
AcDbPolyline
 90
8
 70
0
 10
337.644242
 20
226.025618
 30
0.0
 10
337.644242
 20
225.197426
 30
0.0
 10
338.442637
 20
225.197426
 30
0.0
 10
362.039453
 20
225.197426
 30
0.0
 10
362.039453
 20
238.678450
 30
0.0
 10
343.040764
 20
238.678450
 30
0.0
 10
343.040764
 20
240.965410
 30
0.0
 10
357.441326
 20
240.965410
 30
0.0
  0
LWPOLYLINE
  5
2be
100
AcDbEntity
  8
Ebene_1
 62
7
100
AcDbPolyline
 90
3
 70
0
 10
362.039453
 20
245.733351
 30
0.0
 10
362.039453
 20
246.561543
 30
0.0
 10
337.644242
 20
246.561543
 30
0.0
  0
SPLINE
  5
2bf
100
AcDbEntity
  8
Ebene_1
 62
7
100
AcDbSpline
 70
8
 71
3
 72
8
 73
4
 74
0
 40
0
 40
0
 40
0
 40
0
 40
1
 40
1
 40
1
 40
1
 10
386.966360
 20
225.197426
 30
0.0
 10
388.184750
 20
225.197426
 30
0.0
 10
389.312180
 20
225.680512
 30
0.0
 10
390.194583
 20
226.571757
 30
0.0
  0
SPLINE
  5
2c0
100
AcDbEntity
  8
Ebene_1
 62
7
100
AcDbSpline
 70
8
 71
3
 72
8
 73
4
 74
0
 40
0
 40
0
 40
0
 40
0
 40
1
 40
1
 40
1
 40
1
 10
390.194583
 20
226.571757
 30
0.0
 10
391.085649
 20
227.471761
 30
0.0
 10
391.564496
 20
228.664408
 30
0.0
 10
391.564496
 20
229.967164
 30
0.0
  0
LWPOLYLINE
  5
2c1
100
AcDbEntity
  8
Ebene_1
 62
7
100
AcDbPolyline
 90
4
 70
0
 10
367.169276
 20
246.561543
 30
0.0
 10
367.169276
 20
225.197426
 30
0.0
 10
367.967671
 20
225.197426
 30
0.0
 10
386.966360
 20
225.197426
 30
0.0
  0
LWPOLYLINE
  5
2c2
100
AcDbEntity
  8
Ebene_1
 62
7
100
AcDbPolyline
 90
5
 70
0
 10
391.564496
 20
229.967164
 30
0.0
 10
391.564496
 20
230.795357
 30
0.0
 10
372.565807
 20
230.795357
 30
0.0
 10
372.565807
 20
246.561543
 30
0.0
 10
367.169276
 20
246.561543
 30
0.0
  0
ENDSEC
  0
SECTION
  2
OBJECTS
  0
DICTIONARY
  5
C
330
0
100
AcDbDictionary
  3
ACAD_GROUP
350
D
  3
ACAD_MLINESTYLE
350
17
  0
DICTIONARY
  5
D
330
C
100
AcDbDictionary
  0
DICTIONARY
  5
1A
330
C
100
AcDbDictionary
  0
DICTIONARY
  5
17
330
C
100
AcDbDictionary
  3
STANDARD
350
18
  0
DICTIONARY
  5
19
330
C
100
AcDbDictionary
  0
ENDSEC
  0
EOF
