  0
SECTION
  2
HEADER
  9
$ACADVER
  1
AC1014
  9
$HANDSEED
  5
FFFF
  9
$MEASUREMENT
 70
     1
  0
ENDSEC
  0
SECTION
  2
TABLES
  0
TABLE
  2
VPORT
  5
8
330
0
100
AcDbSymbolTable
 70
     4
  0
VPORT
  5
2E
330
8
100
AcDbSymbolTableRecord
100
AcDbViewportTableRecord
  2
*ACTIVE
 70
     0
 10
0.0
 20
0.0
 11
1.0
 21
1.0
 12
210.0
 22
148.5
 13
0.0
 23
0.0
 14
10.0
 24
10.0
 15
10.0
 25
10.0
 16
0.0
 26
0.0
 36
1.0
 17
0.0
 27
0.0
 37
0.0
 40
341.0
 41
1.24
 42
50.0
 43
0.0
 44
0.0
 50
0.0
 51
0.0
 71
     0
 72
   100
 73
     1
 74
     3
 75
     0
 76
     0
 77
     0
 78
     0
  0
ENDTAB
  0
TABLE
  2
LTYPE
  5
5
330
0
100
AcDbSymbolTable
 70
     1
  0
LTYPE
  5
14
330
5
100
AcDbSymbolTableRecord
100
AcDbLinetypeTableRecord
  2
BYBLOCK
 70
     0
  3

 72
    65
 73
     0
 40
0.0
  0
LTYPE
  5
15
330
5
100
AcDbSymbolTableRecord
100
AcDbLinetypeTableRecord
  2
BYLAYER
 70
     0
  3

 72
    65
 73
     0
 40
0.0
  0
LTYPE
  5
16
330
5
100
AcDbSymbolTableRecord
100
AcDbLinetypeTableRecord
  2
CONTINUOUS
 70
     0
  3
Solid line
 72
    65
 73
     0
 40
0.0
  0
ENDTAB
  0
TABLE
  2
LAYER
  5
2
100
AcDbSymbolTable
 70
2
  0
LAYER
  5
50
100
AcDbSymbolTableRecord
100
AcDbLayerTableRecord
  2
0
 70
0
  6
CONTINUOUS
  0
LAYER
  5
51
100
AcDbSymbolTableRecord
100
AcDbLayerTableRecord
  2
Ebene_1
 70
0
  6
CONTINUOUS
  0
ENDTAB
  0
TABLE
  2
STYLE
  5
3
330
0
100
AcDbSymbolTable
 70
     1
  0
STYLE
  5
11
330
3
100
AcDbSymbolTableRecord
100
AcDbTextStyleTableRecord
  2
STANDARD
 70
     0
 40
0.0
 41
1.0
 50
0.0
 71
     0
 42
2.5
  3
txt
  4

  0
ENDTAB
  0
TABLE
  2
VIEW
  5
6
330
0
100
AcDbSymbolTable
 70
     0
  0
ENDTAB
  0
TABLE
  2
UCS
  5
7
330
0
100
AcDbSymbolTable
 70
     0
  0
ENDTAB
  0
TABLE
  2
APPID
  5
9
330
0
100
AcDbSymbolTable
 70
     2
  0
APPID
  5
12
330
9
100
AcDbSymbolTableRecord
100
AcDbRegAppTableRecord
  2
ACAD
 70
     0
  0
ENDTAB
  0
TABLE
  2
DIMSTYLE
  5
A
330
0
100
AcDbSymbolTable
 70
     1
  0
DIMSTYLE
105
27
330
A
100
AcDbSymbolTableRecord
100
AcDbDimStyleTableRecord
  2
ISO-25
 70
     0
  3

  4

  5

  6

  7

 40
1.0
 41
2.5
 42
0.625
 43
3.75
 44
1.25
 45
0.0
 46
0.0
 47
0.0
 48
0.0
140
2.5
141
2.5
142
0.0
143
0.03937007874016
144
1.0
145
0.0
146
1.0
147
0.625
 71
     0
 72
     0
 73
     0
 74
     0
 75
     0
 76
     0
 77
     1
 78
     8
170
     0
171
     3
172
     1
173
     0
174
     0
175
     0
176
     0
177
     0
178
     0
270
     2
271
     2
272
     2
273
     2
274
     3
340
11
275
     0
280
     0
281
     0
282
     0
283
     0
284
     8
285
     0
286
     0
287
     3
288
     0
  0
ENDTAB
  0
TABLE
  2
BLOCK_RECORD
  5
1
330
0
100
AcDbSymbolTable
 70
     1
  0
BLOCK_RECORD
  5
1F
330
1
100
AcDbSymbolTableRecord
100
AcDbBlockTableRecord
  2
*MODEL_SPACE
  0
BLOCK_RECORD
  5
1B
330
1
100
AcDbSymbolTableRecord
100
AcDbBlockTableRecord
  2
*PAPER_SPACE
  0
ENDTAB
  0
ENDSEC
  0
SECTION
  2
BLOCKS
  0
BLOCK
  5
20
330
1F
100
AcDbEntity
  8
0
100
AcDbBlockBegin
  2
*MODEL_SPACE
 70
     0
 10
0.0
 20
0.0
 30
0.0
  3
*MODEL_SPACE
  1

  0
ENDBLK
  5
21
330
1F
100
AcDbEntity
  8
0
100
AcDbBlockEnd
  0
BLOCK
  5
1C
330
1B
100
AcDbEntity
 67
     1
  8
0
100
AcDbBlockBegin
  2
*PAPER_SPACE
  1

  0
ENDBLK
  5
1D
330
1B
100
AcDbEntity
 67
     1
  8
0
100
AcDbBlockEnd
  0
ENDSEC
  0
SECTION
  2
ENTITIES
  0
SPLINE
  5
100
100
AcDbEntity
  8
Ebene_1
 62
7
100
AcDbSpline
 70
8
 71
3
 72
8
 73
4
 74
0
 40
0
 40
0
 40
0
 40
0
 40
1
 40
1
 40
1
 40
1
 10
-295.526170
 20
53.377410
 30
0.0
 10
-295.526170
 20
34.082840
 30
0.0
 10
-279.906570
 20
18.442180
 30
0.0
 10
-260.638070
 20
18.442180
 30
0.0
  0
LWPOLYLINE
  5
101
100
AcDbEntity
  8
Ebene_1
 62
7
100
AcDbPolyline
 90
4
 70
1
 10
-305.526170
 20
6.616660
 30
0.0
 10
-305.526170
 20
226.216670
 30
0.0
 10
-5.926212
 20
226.216670
 30
0.0
 10
-5.926212
 20
6.616660
 30
0.0
  0
SPLINE
  5
102
100
AcDbEntity
  8
Ebene_1
 62
7
100
AcDbSpline
 70
8
 71
3
 72
8
 73
4
 74
0
 40
0
 40
0
 40
0
 40
0
 40
1
 40
1
 40
1
 40
1
 10
-50.792212
 20
18.442180
 30
0.0
 10
-31.523622
 20
18.442180
 30
0.0
 10
-15.904102
 20
34.082830
 30
0.0
 10
-15.904102
 20
53.377410
 30
0.0
  0
LWPOLYLINE
  5
103
100
AcDbEntity
  8
Ebene_1
 62
7
100
AcDbPolyline
 90
2
 70
0
 10
-260.638070
 20
18.442180
 30
0.0
 10
-50.792212
 20
18.442180
 30
0.0
  0
SPLINE
  5
104
100
AcDbEntity
  8
Ebene_1
 62
7
100
AcDbSpline
 70
8
 71
3
 72
8
 73
4
 74
0
 40
0
 40
0
 40
0
 40
0
 40
1
 40
1
 40
1
 40
1
 10
-15.904102
 20
179.455910
 30
0.0
 10
-15.904102
 20
198.750480
 30
0.0
 10
-31.523622
 20
214.391130
 30
0.0
 10
-50.792212
 20
214.391130
 30
0.0
  0
LWPOLYLINE
  5
105
100
AcDbEntity
  8
Ebene_1
 62
7
100
AcDbPolyline
 90
2
 70
0
 10
-15.904102
 20
53.377410
 30
0.0
 10
-15.904102
 20
179.455910
 30
0.0
  0
SPLINE
  5
106
100
AcDbEntity
  8
Ebene_1
 62
7
100
AcDbSpline
 70
8
 71
3
 72
8
 73
4
 74
0
 40
0
 40
0
 40
0
 40
0
 40
1
 40
1
 40
1
 40
1
 10
-260.638070
 20
214.391130
 30
0.0
 10
-279.906570
 20
214.391130
 30
0.0
 10
-295.526170
 20
198.750480
 30
0.0
 10
-295.526170
 20
179.455910
 30
0.0
  0
LWPOLYLINE
  5
107
100
AcDbEntity
  8
Ebene_1
 62
7
100
AcDbPolyline
 90
2
 70
0
 10
-50.792212
 20
214.391130
 30
0.0
 10
-260.638070
 20
214.391130
 30
0.0
  0
LWPOLYLINE
  5
108
100
AcDbEntity
  8
Ebene_1
 62
7
100
AcDbPolyline
 90
2
 70
0
 10
-295.526170
 20
179.455910
 30
0.0
 10
-295.526170
 20
53.377410
 30
0.0
  0
SPLINE
  5
109
100
AcDbEntity
  8
Ebene_1
 62
7
100
AcDbSpline
 70
8
 71
3
 72
8
 73
4
 74
0
 40
0
 40
0
 40
0
 40
0
 40
1
 40
1
 40
1
 40
1
 10
-288.706070
 20
179.455910
 30
0.0
 10
-288.706070
 20
195.085190
 30
0.0
 10
-276.246270
 20
207.561860
 30
0.0
 10
-260.638070
 20
207.561860
 30
0.0
  0
LWPOLYLINE
  5
10a
100
AcDbEntity
  8
Ebene_1
 62
7
100
AcDbPolyline
 90
2
 70
0
 10
-288.706070
 20
53.377410
 30
0.0
 10
-288.706070
 20
179.455910
 30
0.0
  0
SPLINE
  5
10b
100
AcDbEntity
  8
Ebene_1
 62
7
100
AcDbSpline
 70
8
 71
3
 72
8
 73
4
 74
0
 40
0
 40
0
 40
0
 40
0
 40
1
 40
1
 40
1
 40
1
 10
-50.792212
 20
207.561860
 30
0.0
 10
-35.184002
 20
207.561860
 30
0.0
 10
-22.724212
 20
195.085190
 30
0.0
 10
-22.724212
 20
179.455910
 30
0.0
  0
LWPOLYLINE
  5
10c
100
AcDbEntity
  8
Ebene_1
 62
7
100
AcDbPolyline
 90
2
 70
0
 10
-260.638070
 20
207.561860
 30
0.0
 10
-50.792212
 20
207.561860
 30
0.0
  0
SPLINE
  5
10d
100
AcDbEntity
  8
Ebene_1
 62
7
100
AcDbSpline
 70
8
 71
3
 72
8
 73
4
 74
0
 40
0
 40
0
 40
0
 40
0
 40
1
 40
1
 40
1
 40
1
 10
-22.724212
 20
53.377410
 30
0.0
 10
-22.724212
 20
37.748130
 30
0.0
 10
-35.184002
 20
25.271450
 30
0.0
 10
-50.792212
 20
25.271450
 30
0.0
  0
LWPOLYLINE
  5
10e
100
AcDbEntity
  8
Ebene_1
 62
7
100
AcDbPolyline
 90
2
 70
0
 10
-22.724212
 20
179.455910
 30
0.0
 10
-22.724212
 20
53.377410
 30
0.0
  0
SPLINE
  5
10f
100
AcDbEntity
  8
Ebene_1
 62
7
100
AcDbSpline
 70
8
 71
3
 72
8
 73
4
 74
0
 40
0
 40
0
 40
0
 40
0
 40
1
 40
1
 40
1
 40
1
 10
-260.638070
 20
25.271450
 30
0.0
 10
-276.246270
 20
25.271450
 30
0.0
 10
-288.706070
 20
37.748130
 30
0.0
 10
-288.706070
 20
53.377410
 30
0.0
  0
LWPOLYLINE
  5
110
100
AcDbEntity
  8
Ebene_1
 62
7
100
AcDbPolyline
 90
2
 70
0
 10
-50.792212
 20
25.271450
 30
0.0
 10
-260.638070
 20
25.271450
 30
0.0
  0
SPLINE
  5
111
100
AcDbEntity
  8
Ebene_1
 62
7
100
AcDbSpline
 70
8
 71
3
 72
8
 73
4
 74
0
 40
0
 40
0
 40
0
 40
0
 40
1
 40
1
 40
1
 40
1
 10
-37.734502
 20
41.502970
 30
0.0
 10
-36.353802
 20
41.502964
 30
0.0
 10
-35.234523
 20
40.383690
 30
0.0
 10
-35.234512
 20
39.002990
 30
0.0
  0
SPLINE
  5
112
100
AcDbEntity
  8
Ebene_1
 62
7
100
AcDbSpline
 70
8
 71
3
 72
8
 73
4
 74
0
 40
0
 40
0
 40
0
 40
0
 40
1
 40
1
 40
1
 40
1
 10
-35.234512
 20
39.002990
 30
0.0
 10
-35.234512
 20
37.622282
 30
0.0
 10
-36.353794
 20
36.502996
 30
0.0
 10
-37.734502
 20
36.502990
 30
0.0
  0
SPLINE
  5
113
100
AcDbEntity
  8
Ebene_1
 62
7
100
AcDbSpline
 70
8
 71
3
 72
8
 73
4
 74
0
 40
0
 40
0
 40
0
 40
0
 40
1
 40
1
 40
1
 40
1
 10
-37.734502
 20
36.502990
 30
0.0
 10
-38.397543
 20
36.502990
 30
0.0
 10
-39.033428
 20
36.766382
 30
0.0
 10
-39.502269
 20
37.235223
 30
0.0
  0
SPLINE
  5
114
100
AcDbEntity
  8
Ebene_1
 62
7
100
AcDbSpline
 70
8
 71
3
 72
8
 73
4
 74
0
 40
0
 40
0
 40
0
 40
0
 40
1
 40
1
 40
1
 40
1
 10
-39.502269
 20
37.235223
 30
0.0
 10
-39.971110
 20
37.704064
 30
0.0
 10
-40.234502
 20
38.339949
 30
0.0
 10
-40.234502
 20
39.002990
 30
0.0
  0
SPLINE
  5
115
100
AcDbEntity
  8
Ebene_1
 62
7
100
AcDbSpline
 70
8
 71
3
 72
8
 73
4
 74
0
 40
0
 40
0
 40
0
 40
0
 40
1
 40
1
 40
1
 40
1
 10
-40.234502
 20
39.002990
 30
0.0
 10
-40.234491
 20
40.383694
 30
0.0
 10
-39.115206
 20
41.502970
 30
0.0
 10
-37.734502
 20
41.502970
 30
0.0
  0
LWPOLYLINE
  5
116
100
AcDbEntity
  8
Ebene_1
 62
7
100
AcDbPolyline
 90
1
 70
1
 10
-288.706070
 20
53.377410
 30
0.0
  0
SPLINE
  5
117
100
AcDbEntity
  8
Ebene_1
 62
7
100
AcDbSpline
 70
8
 71
3
 72
8
 73
4
 74
0
 40
0
 40
0
 40
0
 40
0
 40
1
 40
1
 40
1
 40
1
 10
-38.026202
 20
196.416660
 30
0.0
 10
-37.363143
 20
196.416687
 30
0.0
 10
-36.727233
 20
196.153306
 30
0.0
 10
-36.258370
 20
195.684462
 30
0.0
  0
SPLINE
  5
118
100
AcDbEntity
  8
Ebene_1
 62
7
100
AcDbSpline
 70
8
 71
3
 72
8
 73
4
 74
0
 40
0
 40
0
 40
0
 40
0
 40
1
 40
1
 40
1
 40
1
 10
-36.258370
 20
195.684462
 30
0.0
 10
-35.789508
 20
195.215618
 30
0.0
 10
-35.526102
 20
194.579719
 30
0.0
 10
-35.526102
 20
193.916660
 30
0.0
  0
SPLINE
  5
119
100
AcDbEntity
  8
Ebene_1
 62
7
100
AcDbSpline
 70
8
 71
3
 72
8
 73
4
 74
0
 40
0
 40
0
 40
0
 40
0
 40
1
 40
1
 40
1
 40
1
 10
-35.526102
 20
193.916660
 30
0.0
 10
-35.526102
 20
193.253601
 30
0.0
 10
-35.789508
 20
192.617702
 30
0.0
 10
-36.258370
 20
192.148858
 30
0.0
  0
SPLINE
  5
11a
100
AcDbEntity
  8
Ebene_1
 62
7
100
AcDbSpline
 70
8
 71
3
 72
8
 73
4
 74
0
 40
0
 40
0
 40
0
 40
0
 40
1
 40
1
 40
1
 40
1
 10
-36.258370
 20
192.148858
 30
0.0
 10
-36.727233
 20
191.680014
 30
0.0
 10
-37.363143
 20
191.416633
 30
0.0
 10
-38.026202
 20
191.416660
 30
0.0
  0
SPLINE
  5
11b
100
AcDbEntity
  8
Ebene_1
 62
7
100
AcDbSpline
 70
8
 71
3
 72
8
 73
4
 74
0
 40
0
 40
0
 40
0
 40
0
 40
1
 40
1
 40
1
 40
1
 10
-38.026202
 20
191.416660
 30
0.0
 10
-39.406883
 20
191.416704
 30
0.0
 10
-40.526122
 20
192.535979
 30
0.0
 10
-40.526122
 20
193.916660
 30
0.0
  0
SPLINE
  5
11c
100
AcDbEntity
  8
Ebene_1
 62
7
100
AcDbSpline
 70
8
 71
3
 72
8
 73
4
 74
0
 40
0
 40
0
 40
0
 40
0
 40
1
 40
1
 40
1
 40
1
 10
-40.526122
 20
193.916660
 30
0.0
 10
-40.526122
 20
195.297341
 30
0.0
 10
-39.406883
 20
196.416616
 30
0.0
 10
-38.026202
 20
196.416660
 30
0.0
  0
LWPOLYLINE
  5
11d
100
AcDbEntity
  8
Ebene_1
 62
7
100
AcDbPolyline
 90
1
 70
1
 10
-37.734502
 20
41.502970
 30
0.0
  0
SPLINE
  5
11e
100
AcDbEntity
  8
Ebene_1
 62
7
100
AcDbSpline
 70
8
 71
3
 72
8
 73
4
 74
0
 40
0
 40
0
 40
0
 40
0
 40
1
 40
1
 40
1
 40
1
 10
-273.112470
 20
196.794640
 30
0.0
 10
-272.449429
 20
196.794640
 30
0.0
 10
-271.813544
 20
196.531248
 30
0.0
 10
-271.344703
 20
196.062407
 30
0.0
  0
SPLINE
  5
11f
100
AcDbEntity
  8
Ebene_1
 62
7
100
AcDbSpline
 70
8
 71
3
 72
8
 73
4
 74
0
 40
0
 40
0
 40
0
 40
0
 40
1
 40
1
 40
1
 40
1
 10
-271.344703
 20
196.062407
 30
0.0
 10
-270.875862
 20
195.593566
 30
0.0
 10
-270.612470
 20
194.957681
 30
0.0
 10
-270.612470
 20
194.294640
 30
0.0
  0
SPLINE
  5
120
100
AcDbEntity
  8
Ebene_1
 62
7
100
AcDbSpline
 70
8
 71
3
 72
8
 73
4
 74
0
 40
0
 40
0
 40
0
 40
0
 40
1
 40
1
 40
1
 40
1
 10
-270.612470
 20
194.294640
 30
0.0
 10
-270.612470
 20
193.631599
 30
0.0
 10
-270.875862
 20
192.995714
 30
0.0
 10
-271.344703
 20
192.526873
 30
0.0
  0
SPLINE
  5
121
100
AcDbEntity
  8
Ebene_1
 62
7
100
AcDbSpline
 70
8
 71
3
 72
8
 73
4
 74
0
 40
0
 40
0
 40
0
 40
0
 40
1
 40
1
 40
1
 40
1
 10
-271.344703
 20
192.526873
 30
0.0
 10
-271.813544
 20
192.058032
 30
0.0
 10
-272.449429
 20
191.794640
 30
0.0
 10
-273.112470
 20
191.794640
 30
0.0
  0
SPLINE
  5
122
100
AcDbEntity
  8
Ebene_1
 62
7
100
AcDbSpline
 70
8
 71
3
 72
8
 73
4
 74
0
 40
0
 40
0
 40
0
 40
0
 40
1
 40
1
 40
1
 40
1
 10
-273.112470
 20
191.794640
 30
0.0
 10
-273.775511
 20
191.794640
 30
0.0
 10
-274.411396
 20
192.058032
 30
0.0
 10
-274.880237
 20
192.526873
 30
0.0
  0
SPLINE
  5
123
100
AcDbEntity
  8
Ebene_1
 62
7
100
AcDbSpline
 70
8
 71
3
 72
8
 73
4
 74
0
 40
0
 40
0
 40
0
 40
0
 40
1
 40
1
 40
1
 40
1
 10
-274.880237
 20
192.526873
 30
0.0
 10
-275.349078
 20
192.995714
 30
0.0
 10
-275.612470
 20
193.631599
 30
0.0
 10
-275.612470
 20
194.294640
 30
0.0
  0
SPLINE
  5
124
100
AcDbEntity
  8
Ebene_1
 62
7
100
AcDbSpline
 70
8
 71
3
 72
8
 73
4
 74
0
 40
0
 40
0
 40
0
 40
0
 40
1
 40
1
 40
1
 40
1
 10
-275.612470
 20
194.294640
 30
0.0
 10
-275.612470
 20
194.957681
 30
0.0
 10
-275.349078
 20
195.593566
 30
0.0
 10
-274.880237
 20
196.062407
 30
0.0
  0
SPLINE
  5
125
100
AcDbEntity
  8
Ebene_1
 62
7
100
AcDbSpline
 70
8
 71
3
 72
8
 73
4
 74
0
 40
0
 40
0
 40
0
 40
0
 40
1
 40
1
 40
1
 40
1
 10
-274.880237
 20
196.062407
 30
0.0
 10
-274.411396
 20
196.531248
 30
0.0
 10
-273.775511
 20
196.794640
 30
0.0
 10
-273.112470
 20
196.794640
 30
0.0
  0
LWPOLYLINE
  5
126
100
AcDbEntity
  8
Ebene_1
 62
7
100
AcDbPolyline
 90
1
 70
1
 10
-38.026202
 20
196.416660
 30
0.0
  0
SPLINE
  5
127
100
AcDbEntity
  8
Ebene_1
 62
7
100
AcDbSpline
 70
8
 71
3
 72
8
 73
4
 74
0
 40
0
 40
0
 40
0
 40
0
 40
1
 40
1
 40
1
 40
1
 10
-273.112470
 20
41.794640
 30
0.0
 10
-272.449429
 20
41.794640
 30
0.0
 10
-271.813544
 20
41.531248
 30
0.0
 10
-271.344703
 20
41.062407
 30
0.0
  0
SPLINE
  5
128
100
AcDbEntity
  8
Ebene_1
 62
7
100
AcDbSpline
 70
8
 71
3
 72
8
 73
4
 74
0
 40
0
 40
0
 40
0
 40
0
 40
1
 40
1
 40
1
 40
1
 10
-271.344703
 20
41.062407
 30
0.0
 10
-270.875862
 20
40.593566
 30
0.0
 10
-270.612470
 20
39.957681
 30
0.0
 10
-270.612470
 20
39.294640
 30
0.0
  0
SPLINE
  5
129
100
AcDbEntity
  8
Ebene_1
 62
7
100
AcDbSpline
 70
8
 71
3
 72
8
 73
4
 74
0
 40
0
 40
0
 40
0
 40
0
 40
1
 40
1
 40
1
 40
1
 10
-270.612470
 20
39.294640
 30
0.0
 10
-270.612470
 20
38.631599
 30
0.0
 10
-270.875862
 20
37.995714
 30
0.0
 10
-271.344703
 20
37.526873
 30
0.0
  0
SPLINE
  5
12a
100
AcDbEntity
  8
Ebene_1
 62
7
100
AcDbSpline
 70
8
 71
3
 72
8
 73
4
 74
0
 40
0
 40
0
 40
0
 40
0
 40
1
 40
1
 40
1
 40
1
 10
-271.344703
 20
37.526873
 30
0.0
 10
-271.813544
 20
37.058032
 30
0.0
 10
-272.449429
 20
36.794640
 30
0.0
 10
-273.112470
 20
36.794640
 30
0.0
  0
SPLINE
  5
12b
100
AcDbEntity
  8
Ebene_1
 62
7
100
AcDbSpline
 70
8
 71
3
 72
8
 73
4
 74
0
 40
0
 40
0
 40
0
 40
0
 40
1
 40
1
 40
1
 40
1
 10
-273.112470
 20
36.794640
 30
0.0
 10
-273.775511
 20
36.794640
 30
0.0
 10
-274.411396
 20
37.058032
 30
0.0
 10
-274.880237
 20
37.526873
 30
0.0
  0
SPLINE
  5
12c
100
AcDbEntity
  8
Ebene_1
 62
7
100
AcDbSpline
 70
8
 71
3
 72
8
 73
4
 74
0
 40
0
 40
0
 40
0
 40
0
 40
1
 40
1
 40
1
 40
1
 10
-274.880237
 20
37.526873
 30
0.0
 10
-275.349078
 20
37.995714
 30
0.0
 10
-275.612470
 20
38.631599
 30
0.0
 10
-275.612470
 20
39.294640
 30
0.0
  0
SPLINE
  5
12d
100
AcDbEntity
  8
Ebene_1
 62
7
100
AcDbSpline
 70
8
 71
3
 72
8
 73
4
 74
0
 40
0
 40
0
 40
0
 40
0
 40
1
 40
1
 40
1
 40
1
 10
-275.612470
 20
39.294640
 30
0.0
 10
-275.612470
 20
39.957681
 30
0.0
 10
-275.349078
 20
40.593566
 30
0.0
 10
-274.880237
 20
41.062407
 30
0.0
  0
SPLINE
  5
12e
100
AcDbEntity
  8
Ebene_1
 62
7
100
AcDbSpline
 70
8
 71
3
 72
8
 73
4
 74
0
 40
0
 40
0
 40
0
 40
0
 40
1
 40
1
 40
1
 40
1
 10
-274.880237
 20
41.062407
 30
0.0
 10
-274.411396
 20
41.531248
 30
0.0
 10
-273.775511
 20
41.794640
 30
0.0
 10
-273.112470
 20
41.794640
 30
0.0
  0
LWPOLYLINE
  5
12f
100
AcDbEntity
  8
Ebene_1
 62
7
100
AcDbPolyline
 90
1
 70
1
 10
-273.112470
 20
196.794640
 30
0.0
  0
SPLINE
  5
130
100
AcDbEntity
  8
Ebene_1
 62
7
100
AcDbSpline
 70
8
 71
3
 72
8
 73
4
 74
0
 40
0
 40
0
 40
0
 40
0
 40
1
 40
1
 40
1
 40
1
 10
-207.930950
 20
56.741490
 30
0.0
 10
-208.135310
 20
57.819340
 30
0.0
 10
-225.721680
 20
156.003220
 30
0.0
 10
-225.721680
 20
156.066360
 30
0.0
  0
SPLINE
  5
131
100
AcDbEntity
  8
Ebene_1
 62
7
100
AcDbSpline
 70
8
 71
3
 72
8
 73
4
 74
0
 40
0
 40
0
 40
0
 40
0
 40
1
 40
1
 40
1
 40
1
 10
-225.721680
 20
156.066360
 30
0.0
 10
-225.721680
 20
156.156160
 30
0.0
 10
-230.915930
 20
156.024860
 30
0.0
 10
-233.526800
 20
155.869020
 30
0.0
  0
SPLINE
  5
132
100
AcDbEntity
  8
Ebene_1
 62
7
100
AcDbSpline
 70
8
 71
3
 72
8
 73
4
 74
0
 40
0
 40
0
 40
0
 40
0
 40
1
 40
1
 40
1
 40
1
 10
-233.526800
 20
155.869020
 30
0.0
 10
-241.296690
 20
155.405670
 30
0.0
 10
-245.292950
 20
154.045050
 30
0.0
 10
-247.224440
 20
151.205310
 30
0.0
  0
SPLINE
  5
133
100
AcDbEntity
  8
Ebene_1
 62
7
100
AcDbSpline
 70
8
 71
3
 72
8
 73
4
 74
0
 40
0
 40
0
 40
0
 40
0
 40
1
 40
1
 40
1
 40
1
 10
-247.224440
 20
151.205310
 30
0.0
 10
-247.936560
 20
150.158320
 30
0.0
 10
-248.233870
 20
149.411790
 30
0.0
 10
-248.544690
 20
147.890480
 30
0.0
  0
SPLINE
  5
134
100
AcDbEntity
  8
Ebene_1
 62
7
100
AcDbSpline
 70
8
 71
3
 72
8
 73
4
 74
0
 40
0
 40
0
 40
0
 40
0
 40
1
 40
1
 40
1
 40
1
 10
-248.544690
 20
147.890480
 30
0.0
 10
-248.670870
 20
147.272350
 30
0.0
 10
-248.797270
 20
146.743580
 30
0.0
 10
-248.825420
 20
146.715450
 30
0.0
  0
SPLINE
  5
135
100
AcDbEntity
  8
Ebene_1
 62
7
100
AcDbSpline
 70
8
 71
3
 72
8
 73
4
 74
0
 40
0
 40
0
 40
0
 40
0
 40
1
 40
1
 40
1
 40
1
 10
-248.825420
 20
146.715450
 30
0.0
 10
-248.919920
 20
146.621050
 30
0.0
 10
-252.149010
 20
148.155110
 30
0.0
 10
-253.766820
 20
149.063380
 30
0.0
  0
SPLINE
  5
136
100
AcDbEntity
  8
Ebene_1
 62
7
100
AcDbSpline
 70
8
 71
3
 72
8
 73
4
 74
0
 40
0
 40
0
 40
0
 40
0
 40
1
 40
1
 40
1
 40
1
 10
-253.766820
 20
149.063380
 30
0.0
 10
-258.605770
 20
151.780060
 30
0.0
 10
-262.404740
 20
154.925470
 30
0.0
 10
-264.989060
 20
158.355180
 30
0.0
  0
SPLINE
  5
137
100
AcDbEntity
  8
Ebene_1
 62
7
100
AcDbSpline
 70
8
 71
3
 72
8
 73
4
 74
0
 40
0
 40
0
 40
0
 40
0
 40
1
 40
1
 40
1
 40
1
 10
-264.989060
 20
158.355180
 30
0.0
 10
-265.368770
 20
158.859040
 30
0.0
 10
-265.679400
 20
159.312510
 30
0.0
 10
-265.679400
 20
159.362930
 30
0.0
  0
SPLINE
  5
138
100
AcDbEntity
  8
Ebene_1
 62
7
100
AcDbSpline
 70
8
 71
3
 72
8
 73
4
 74
0
 40
0
 40
0
 40
0
 40
0
 40
1
 40
1
 40
1
 40
1
 10
-265.679400
 20
159.362930
 30
0.0
 10
-265.679400
 20
159.413630
 30
0.0
 10
-265.482810
 20
159.535950
 30
0.0
 10
-265.242570
 20
159.635380
 30
0.0
  0
SPLINE
  5
139
100
AcDbEntity
  8
Ebene_1
 62
7
100
AcDbSpline
 70
8
 71
3
 72
8
 73
4
 74
0
 40
0
 40
0
 40
0
 40
0
 40
1
 40
1
 40
1
 40
1
 10
-265.242570
 20
159.635380
 30
0.0
 10
-265.002280
 20
159.734880
 30
0.0
 10
-263.966930
 20
160.181040
 30
0.0
 10
-262.941760
 20
160.627020
 30
0.0
  0
SPLINE
  5
13a
100
AcDbEntity
  8
Ebene_1
 62
7
100
AcDbSpline
 70
8
 71
3
 72
8
 73
4
 74
0
 40
0
 40
0
 40
0
 40
0
 40
1
 40
1
 40
1
 40
1
 10
-262.941760
 20
160.627020
 30
0.0
 10
-251.196080
 20
165.736880
 30
0.0
 10
-235.928480
 20
169.308610
 30
0.0
 10
-222.226830
 20
170.151910
 30
0.0
  0
LWPOLYLINE
  5
13b
100
AcDbEntity
  8
Ebene_1
 62
7
100
AcDbPolyline
 90
1
 70
1
 10
-273.112470
 20
41.794640
 30
0.0
  0
SPLINE
  5
13c
100
AcDbEntity
  8
Ebene_1
 62
7
100
AcDbSpline
 70
8
 71
3
 72
8
 73
4
 74
0
 40
0
 40
0
 40
0
 40
0
 40
1
 40
1
 40
1
 40
1
 10
-214.438090
 20
162.226820
 30
0.0
 10
-210.827050
 20
157.826670
 30
0.0
 10
-207.832610
 20
154.270620
 30
0.0
 10
-207.783780
 20
154.324470
 30
0.0
  0
SPLINE
  5
13d
100
AcDbEntity
  8
Ebene_1
 62
7
100
AcDbSpline
 70
8
 71
3
 72
8
 73
4
 74
0
 40
0
 40
0
 40
0
 40
0
 40
1
 40
1
 40
1
 40
1
 10
-207.783780
 20
154.324470
 30
0.0
 10
-207.735080
 20
154.378270
 30
0.0
 10
-204.804150
 20
157.945280
 30
0.0
 10
-201.270920
 20
162.250950
 30
0.0
  0
SPLINE
  5
13e
100
AcDbEntity
  8
Ebene_1
 62
7
100
AcDbSpline
 70
8
 71
3
 72
8
 73
4
 74
0
 40
0
 40
0
 40
0
 40
0
 40
1
 40
1
 40
1
 40
1
 10
-201.270920
 20
162.250950
 30
0.0
 10
-197.737670
 20
166.556650
 30
0.0
 10
-194.792820
 20
170.112890
 30
0.0
 10
-194.726870
 20
170.153680
 30
0.0
  0
SPLINE
  5
13f
100
AcDbEntity
  8
Ebene_1
 62
7
100
AcDbSpline
 70
8
 71
3
 72
8
 73
4
 74
0
 40
0
 40
0
 40
0
 40
0
 40
1
 40
1
 40
1
 40
1
 10
-194.726870
 20
170.153680
 30
0.0
 10
-194.589270
 20
170.238680
 30
0.0
 10
-191.650810
 20
170.049310
 30
0.0
 10
-189.084050
 20
169.789740
 30
0.0
  0
SPLINE
  5
140
100
AcDbEntity
  8
Ebene_1
 62
7
100
AcDbSpline
 70
8
 71
3
 72
8
 73
4
 74
0
 40
0
 40
0
 40
0
 40
0
 40
1
 40
1
 40
1
 40
1
 10
-189.084050
 20
169.789740
 30
0.0
 10
-178.259670
 20
168.695540
 30
0.0
 10
-167.388230
 20
166.190770
 30
0.0
 10
-157.513930
 20
162.515980
 30
0.0
  0
SPLINE
  5
141
100
AcDbEntity
  8
Ebene_1
 62
7
100
AcDbSpline
 70
8
 71
3
 72
8
 73
4
 74
0
 40
0
 40
0
 40
0
 40
0
 40
1
 40
1
 40
1
 40
1
 10
-157.513930
 20
162.515980
 30
0.0
 10
-155.183540
 20
161.648730
 30
0.0
 10
-151.434990
 20
160.100770
 30
0.0
 10
-150.457350
 20
159.602050
 30
0.0
  0
LWPOLYLINE
  5
142
100
AcDbEntity
  8
Ebene_1
 62
7
100
AcDbPolyline
 90
3
 70
0
 10
-222.226830
 20
170.151910
 30
0.0
 10
-221.003660
 20
170.227210
 30
0.0
 10
-214.438090
 20
162.226820
 30
0.0
  0
SPLINE
  5
143
100
AcDbEntity
  8
Ebene_1
 62
7
100
AcDbSpline
 70
8
 71
3
 72
8
 73
4
 74
0
 40
0
 40
0
 40
0
 40
0
 40
1
 40
1
 40
1
 40
1
 10
-150.589770
 20
158.559060
 30
0.0
 10
-152.879320
 20
155.411220
 30
0.0
 10
-156.468620
 20
152.317790
 30
0.0
 10
-160.913630
 20
149.661470
 30
0.0
  0
SPLINE
  5
144
100
AcDbEntity
  8
Ebene_1
 62
7
100
AcDbSpline
 70
8
 71
3
 72
8
 73
4
 74
0
 40
0
 40
0
 40
0
 40
0
 40
1
 40
1
 40
1
 40
1
 10
-160.913630
 20
149.661470
 30
0.0
 10
-162.136080
 20
148.930930
 30
0.0
 10
-166.182860
 20
146.899790
 30
0.0
 10
-166.734620
 20
146.739850
 30
0.0
  0
SPLINE
  5
145
100
AcDbEntity
  8
Ebene_1
 62
7
100
AcDbSpline
 70
8
 71
3
 72
8
 73
4
 74
0
 40
0
 40
0
 40
0
 40
0
 40
1
 40
1
 40
1
 40
1
 10
-166.734620
 20
146.739850
 30
0.0
 10
-166.962320
 20
146.673850
 30
0.0
 10
-166.992860
 20
146.723450
 30
0.0
 10
-167.068610
 20
147.282960
 30
0.0
  0
SPLINE
  5
146
100
AcDbEntity
  8
Ebene_1
 62
7
100
AcDbSpline
 70
8
 71
3
 72
8
 73
4
 74
0
 40
0
 40
0
 40
0
 40
0
 40
1
 40
1
 40
1
 40
1
 10
-167.068610
 20
147.282960
 30
0.0
 10
-167.114410
 20
147.621660
 30
0.0
 10
-167.280070
 20
148.342960
 30
0.0
 10
-167.436620
 20
148.885840
 30
0.0
  0
SPLINE
  5
147
100
AcDbEntity
  8
Ebene_1
 62
7
100
AcDbSpline
 70
8
 71
3
 72
8
 73
4
 74
0
 40
0
 40
0
 40
0
 40
0
 40
1
 40
1
 40
1
 40
1
 10
-167.436620
 20
148.885840
 30
0.0
 10
-168.669440
 20
153.160960
 30
0.0
 10
-172.312010
 20
155.059350
 30
0.0
 10
-180.638150
 20
155.765890
 30
0.0
  0
SPLINE
  5
148
100
AcDbEntity
  8
Ebene_1
 62
7
100
AcDbSpline
 70
8
 71
3
 72
8
 73
4
 74
0
 40
0
 40
0
 40
0
 40
0
 40
1
 40
1
 40
1
 40
1
 10
-180.638150
 20
155.765890
 30
0.0
 10
-182.451120
 20
155.919730
 30
0.0
 10
-189.990950
 20
156.117200
 30
0.0
 10
-190.085700
 20
156.013270
 30
0.0
  0
SPLINE
  5
149
100
AcDbEntity
  8
Ebene_1
 62
7
100
AcDbSpline
 70
8
 71
3
 72
8
 73
4
 74
0
 40
0
 40
0
 40
0
 40
0
 40
1
 40
1
 40
1
 40
1
 10
-190.085700
 20
156.013270
 30
0.0
 10
-190.134300
 20
155.960070
 30
0.0
 10
-204.689510
 20
74.308990
 30
0.0
 10
-207.761340
 20
56.858050
 30
0.0
  0
LWPOLYLINE
  5
14a
100
AcDbEntity
  8
Ebene_1
 62
7
100
AcDbPolyline
 90
3
 70
0
 10
-150.457350
 20
159.602050
 30
0.0
 10
-150.000630
 20
159.369040
 30
0.0
 10
-150.589770
 20
158.559060
 30
0.0
  0
SPLINE
  5
14b
100
AcDbEntity
  8
Ebene_1
 62
7
100
AcDbSpline
 70
8
 71
3
 72
8
 73
4
 74
0
 40
0
 40
0
 40
0
 40
0
 40
1
 40
1
 40
1
 40
1
 10
-150.000000
 20
163.767700
 30
0.0
 10
-163.913430
 20
169.635630
 30
0.0
 10
-179.720730
 20
173.369600
 30
0.0
 10
-195.491290
 20
174.513540
 30
0.0
  0
SPLINE
  5
14c
100
AcDbEntity
  8
Ebene_1
 62
7
100
AcDbSpline
 70
8
 71
3
 72
8
 73
4
 74
0
 40
0
 40
0
 40
0
 40
0
 40
1
 40
1
 40
1
 40
1
 10
-195.491290
 20
174.513540
 30
0.0
 10
-200.558000
 20
174.881070
 30
0.0
 10
-211.084100
 20
175.001420
 30
0.0
 10
-216.181140
 20
174.750110
 30
0.0
  0
SPLINE
  5
14d
100
AcDbEntity
  8
Ebene_1
 62
7
100
AcDbSpline
 70
8
 71
3
 72
8
 73
4
 74
0
 40
0
 40
0
 40
0
 40
0
 40
1
 40
1
 40
1
 40
1
 10
-216.181140
 20
174.750110
 30
0.0
 10
-233.844740
 20
173.879190
 30
0.0
 10
-250.095600
 20
170.279430
 30
0.0
 10
-265.713600
 20
163.778120
 30
0.0
  0
SPLINE
  5
14e
100
AcDbEntity
  8
Ebene_1
 62
7
100
AcDbSpline
 70
8
 71
3
 72
8
 73
4
 74
0
 40
0
 40
0
 40
0
 40
0
 40
1
 40
1
 40
1
 40
1
 10
-265.713600
 20
163.778120
 30
0.0
 10
-266.789640
 20
163.330230
 30
0.0
 10
-267.736960
 20
162.989430
 30
0.0
 10
-267.818890
 20
163.020840
 30
0.0
  0
SPLINE
  5
14f
100
AcDbEntity
  8
Ebene_1
 62
7
100
AcDbSpline
 70
8
 71
3
 72
8
 73
4
 74
0
 40
0
 40
0
 40
0
 40
0
 40
1
 40
1
 40
1
 40
1
 10
-267.818890
 20
163.020840
 30
0.0
 10
-267.900990
 20
163.052340
 30
0.0
 10
-268.574430
 20
164.302030
 30
0.0
 10
-269.315850
 20
165.798120
 30
0.0
  0
SPLINE
  5
150
100
AcDbEntity
  8
Ebene_1
 62
7
100
AcDbSpline
 70
8
 71
3
 72
8
 73
4
 74
0
 40
0
 40
0
 40
0
 40
0
 40
1
 40
1
 40
1
 40
1
 10
-269.315850
 20
165.798120
 30
0.0
 10
-270.703140
 20
168.597220
 30
0.0
 10
-271.349650
 20
170.051290
 30
0.0
 10
-271.250840
 20
170.150110
 30
0.0
  0
SPLINE
  5
151
100
AcDbEntity
  8
Ebene_1
 62
7
100
AcDbSpline
 70
8
 71
3
 72
8
 73
4
 74
0
 40
0
 40
0
 40
0
 40
0
 40
1
 40
1
 40
1
 40
1
 10
-271.250840
 20
170.150110
 30
0.0
 10
-271.149610
 20
170.251330
 30
0.0
 10
-267.076610
 20
171.789950
 30
0.0
 10
-264.689180
 20
172.629010
 30
0.0
  0
SPLINE
  5
152
100
AcDbEntity
  8
Ebene_1
 62
7
100
AcDbSpline
 70
8
 71
3
 72
8
 73
4
 74
0
 40
0
 40
0
 40
0
 40
0
 40
1
 40
1
 40
1
 40
1
 10
-264.689180
 20
172.629010
 30
0.0
 10
-242.307870
 20
180.494890
 30
0.0
 10
-218.405160
 20
183.754490
 30
0.0
 10
-195.782510
 20
182.025850
 30
0.0
  0
SPLINE
  5
153
100
AcDbEntity
  8
Ebene_1
 62
7
100
AcDbSpline
 70
8
 71
3
 72
8
 73
4
 74
0
 40
0
 40
0
 40
0
 40
0
 40
1
 40
1
 40
1
 40
1
 10
-195.782510
 20
182.025850
 30
0.0
 10
-178.862090
 20
180.732950
 30
0.0
 10
-162.915380
 20
177.163740
 30
0.0
 10
-146.682720
 20
171.036330
 30
0.0
  0
SPLINE
  5
154
100
AcDbEntity
  8
Ebene_1
 62
7
100
AcDbSpline
 70
8
 71
3
 72
8
 73
4
 74
0
 40
0
 40
0
 40
0
 40
0
 40
1
 40
1
 40
1
 40
1
 10
-146.682720
 20
171.036330
 30
0.0
 10
-145.474160
 20
170.580100
 30
0.0
 10
-144.464560
 20
170.186100
 30
0.0
 10
-144.439170
 20
170.160700
 30
0.0
  0
SPLINE
  5
155
100
AcDbEntity
  8
Ebene_1
 62
7
100
AcDbSpline
 70
8
 71
3
 72
8
 73
4
 74
0
 40
0
 40
0
 40
0
 40
0
 40
1
 40
1
 40
1
 40
1
 10
-144.439170
 20
170.160700
 30
0.0
 10
-144.306480
 20
170.028020
 30
0.0
 10
-147.552230
 20
163.252320
 30
0.0
 10
-147.881110
 20
162.975440
 30
0.0
  0
SPLINE
  5
156
100
AcDbEntity
  8
Ebene_1
 62
7
100
AcDbSpline
 70
8
 71
3
 72
8
 73
4
 74
0
 40
0
 40
0
 40
0
 40
0
 40
1
 40
1
 40
1
 40
1
 10
-147.881110
 20
162.975440
 30
0.0
 10
-147.925310
 20
162.938340
 30
0.0
 10
-148.878740
 20
163.294820
 30
0.0
 10
-150.000000
 20
163.767700
 30
0.0
  0
LWPOLYLINE
  5
157
100
AcDbEntity
  8
Ebene_1
 62
7
100
AcDbPolyline
 90
3
 70
0
 10
-207.761340
 20
56.858050
 30
0.0
 10
-207.853540
 20
56.333850
 30
0.0
 10
-207.930950
 20
56.741490
 30
0.0
  0
LWPOLYLINE
  5
158
100
AcDbEntity
  8
Ebene_1
 62
7
100
AcDbPolyline
 90
1
 70
1
 10
-150.000000
 20
163.767700
 30
0.0
  0
LWPOLYLINE
  5
159
100
AcDbEntity
  8
Ebene_1
 62
7
100
AcDbPolyline
 90
12
 70
1
 10
-133.394410
 20
120.017057
 30
0.0
 10
-133.394410
 20
122.849157
 30
0.0
 10
-141.249860
 20
122.849157
 30
0.0
 10
-141.249860
 20
125.887967
 30
0.0
 10
-134.428020
 20
125.887967
 30
0.0
 10
-134.428020
 20
128.720067
 30
0.0
 10
-141.249860
 20
128.720067
 30
0.0
 10
-141.249860
 20
131.655517
 30
0.0
 10
-133.497770
 20
131.655517
 30
0.0
 10
-133.497770
 20
134.487617
 30
0.0
 10
-144.412710
 20
134.487617
 30
0.0
 10
-144.412710
 20
120.017057
 30
0.0
  0
LWPOLYLINE
  5
15a
100
AcDbEntity
  8
Ebene_1
 62
7
100
AcDbPolyline
 90
6
 70
1
 10
-120.165810
 20
120.017057
 30
0.0
 10
-120.165810
 20
122.911167
 30
0.0
 10
-127.380410
 20
122.911167
 30
0.0
 10
-127.380410
 20
134.487617
 30
0.0
 10
-130.563930
 20
134.487617
 30
0.0
 10
-130.563930
 20
120.017057
 30
0.0
  0
LWPOLYLINE
  5
15b
100
AcDbEntity
  8
Ebene_1
 62
7
100
AcDbPolyline
 90
12
 70
1
 10
-106.746630
 20
120.017057
 30
0.0
 10
-106.746630
 20
122.849157
 30
0.0
 10
-114.602070
 20
122.849157
 30
0.0
 10
-114.602070
 20
125.887967
 30
0.0
 10
-107.780240
 20
125.887967
 30
0.0
 10
-107.780240
 20
128.720067
 30
0.0
 10
-114.602070
 20
128.720067
 30
0.0
 10
-114.602070
 20
131.655517
 30
0.0
 10
-106.849990
 20
131.655517
 30
0.0
 10
-106.849990
 20
134.487617
 30
0.0
 10
-117.764920
 20
134.487617
 30
0.0
 10
-117.764920
 20
120.017057
 30
0.0
  0
SPLINE
  5
15c
100
AcDbEntity
  8
Ebene_1
 62
7
100
AcDbSpline
 70
8
 71
3
 72
8
 73
4
 74
0
 40
0
 40
0
 40
0
 40
0
 40
1
 40
1
 40
1
 40
1
 10
-93.228609
 20
124.399567
 30
0.0
 10
-93.793650
 20
123.875873
 30
0.0
 10
-94.365581
 20
123.462430
 30
0.0
 10
-94.944403
 20
123.159237
 30
0.0
  0
SPLINE
  5
15d
100
AcDbEntity
  8
Ebene_1
 62
7
100
AcDbSpline
 70
8
 71
3
 72
8
 73
4
 74
0
 40
0
 40
0
 40
0
 40
0
 40
1
 40
1
 40
1
 40
1
 10
-94.944403
 20
123.159237
 30
0.0
 10
-95.509444
 20
122.856043
 30
0.0
 10
-96.205409
 20
122.704447
 30
0.0
 10
-97.032298
 20
122.704447
 30
0.0
  0
SPLINE
  5
15e
100
AcDbEntity
  8
Ebene_1
 62
7
100
AcDbSpline
 70
8
 71
3
 72
8
 73
4
 74
0
 40
0
 40
0
 40
0
 40
0
 40
1
 40
1
 40
1
 40
1
 10
-97.032298
 20
122.704447
 30
0.0
 10
-97.652465
 20
122.704447
 30
0.0
 10
-98.224396
 20
122.821590
 30
0.0
 10
-98.748092
 20
123.055877
 30
0.0
  0
SPLINE
  5
15f
100
AcDbEntity
  8
Ebene_1
 62
7
100
AcDbSpline
 70
8
 71
3
 72
8
 73
4
 74
0
 40
0
 40
0
 40
0
 40
0
 40
1
 40
1
 40
1
 40
1
 10
-98.748092
 20
123.055877
 30
0.0
 10
-99.258007
 20
123.303943
 30
0.0
 10
-99.699013
 20
123.634700
 30
0.0
 10
-100.071110
 20
124.048147
 30
0.0
  0
SPLINE
  5
160
100
AcDbEntity
  8
Ebene_1
 62
7
100
AcDbSpline
 70
8
 71
3
 72
8
 73
4
 74
0
 40
0
 40
0
 40
0
 40
0
 40
1
 40
1
 40
1
 40
1
 10
-100.071110
 20
124.048147
 30
0.0
 10
-100.429430
 20
124.461587
 30
0.0
 10
-100.711953
 20
124.943937
 30
0.0
 10
-100.918680
 20
125.495197
 30
0.0
  0
SPLINE
  5
161
100
AcDbEntity
  8
Ebene_1
 62
7
100
AcDbSpline
 70
8
 71
3
 72
8
 73
4
 74
0
 40
0
 40
0
 40
0
 40
0
 40
1
 40
1
 40
1
 40
1
 10
-100.918680
 20
125.495197
 30
0.0
 10
-101.125400
 20
126.046457
 30
0.0
 10
-101.228760
 20
126.632170
 30
0.0
 10
-101.228760
 20
127.252337
 30
0.0
  0
LWPOLYLINE
  5
162
100
AcDbEntity
  8
Ebene_1
 62
7
100
AcDbPolyline
 90
2
 70
0
 10
-91.202732
 20
122.353017
 30
0.0
 10
-93.228609
 20
124.399567
 30
0.0
  0
SPLINE
  5
163
100
AcDbEntity
  8
Ebene_1
 62
7
100
AcDbSpline
 70
8
 71
3
 72
8
 73
4
 74
0
 40
0
 40
0
 40
0
 40
0
 40
1
 40
1
 40
1
 40
1
 10
-101.228760
 20
127.293737
 30
0.0
 10
-101.228760
 20
127.913903
 30
0.0
 10
-101.125400
 20
128.492723
 30
0.0
 10
-100.918680
 20
129.030197
 30
0.0
  0
SPLINE
  5
164
100
AcDbEntity
  8
Ebene_1
 62
7
100
AcDbSpline
 70
8
 71
3
 72
8
 73
4
 74
0
 40
0
 40
0
 40
0
 40
0
 40
1
 40
1
 40
1
 40
1
 10
-100.918680
 20
129.030197
 30
0.0
 10
-100.711953
 20
129.581457
 30
0.0
 10
-100.422540
 20
130.063810
 30
0.0
 10
-100.050440
 20
130.477257
 30
0.0
  0
SPLINE
  5
165
100
AcDbEntity
  8
Ebene_1
 62
7
100
AcDbSpline
 70
8
 71
3
 72
8
 73
4
 74
0
 40
0
 40
0
 40
0
 40
0
 40
1
 40
1
 40
1
 40
1
 10
-100.050440
 20
130.477257
 30
0.0
 10
-99.678341
 20
130.890697
 30
0.0
 10
-99.237335
 20
131.214560
 30
0.0
 10
-98.727420
 20
131.448847
 30
0.0
  0
SPLINE
  5
166
100
AcDbEntity
  8
Ebene_1
 62
7
100
AcDbSpline
 70
8
 71
3
 72
8
 73
4
 74
0
 40
0
 40
0
 40
0
 40
0
 40
1
 40
1
 40
1
 40
1
 10
-98.727420
 20
131.448847
 30
0.0
 10
-98.203723
 20
131.683133
 30
0.0
 10
-97.638683
 20
131.800277
 30
0.0
 10
-97.032298
 20
131.800277
 30
0.0
  0
SPLINE
  5
167
100
AcDbEntity
  8
Ebene_1
 62
7
100
AcDbSpline
 70
8
 71
3
 72
8
 73
4
 74
0
 40
0
 40
0
 40
0
 40
0
 40
1
 40
1
 40
1
 40
1
 10
-97.032298
 20
131.800277
 30
0.0
 10
-96.301879
 20
131.800277
 30
0.0
 10
-95.647259
 20
131.655570
 30
0.0
 10
-95.068437
 20
131.366157
 30
0.0
  0
SPLINE
  5
168
100
AcDbEntity
  8
Ebene_1
 62
7
100
AcDbSpline
 70
8
 71
3
 72
8
 73
4
 74
0
 40
0
 40
0
 40
0
 40
0
 40
1
 40
1
 40
1
 40
1
 10
-95.068437
 20
131.366157
 30
0.0
 10
-94.475833
 20
131.076750
 30
0.0
 10
-93.897011
 20
130.677087
 30
0.0
 10
-93.331970
 20
130.167167
 30
0.0
  0
LWPOLYLINE
  5
169
100
AcDbEntity
  8
Ebene_1
 62
7
100
AcDbPolyline
 90
2
 70
0
 10
-101.228760
 20
127.252337
 30
0.0
 10
-101.228760
 20
127.293737
 30
0.0
  0
SPLINE
  5
16a
100
AcDbEntity
  8
Ebene_1
 62
7
100
AcDbSpline
 70
8
 71
3
 72
8
 73
4
 74
0
 40
0
 40
0
 40
0
 40
0
 40
1
 40
1
 40
1
 40
1
 10
-91.306093
 20
132.503127
 30
0.0
 10
-91.636848
 20
132.833887
 30
0.0
 10
-91.995167
 20
133.137080
 30
0.0
 10
-92.381048
 20
133.412707
 30
0.0
  0
SPLINE
  5
16b
100
AcDbEntity
  8
Ebene_1
 62
7
100
AcDbSpline
 70
8
 71
3
 72
8
 73
4
 74
0
 40
0
 40
0
 40
0
 40
0
 40
1
 40
1
 40
1
 40
1
 10
-92.381048
 20
133.412707
 30
0.0
 10
-92.766929
 20
133.688340
 30
0.0
 10
-93.187265
 20
133.922627
 30
0.0
 10
-93.642054
 20
134.115567
 30
0.0
  0
SPLINE
  5
16c
100
AcDbEntity
  8
Ebene_1
 62
7
100
AcDbSpline
 70
8
 71
3
 72
8
 73
4
 74
0
 40
0
 40
0
 40
0
 40
0
 40
1
 40
1
 40
1
 40
1
 10
-93.642054
 20
134.115567
 30
0.0
 10
-94.096843
 20
134.308507
 30
0.0
 10
-94.606757
 20
134.460103
 30
0.0
 10
-95.171798
 20
134.570357
 30
0.0
  0
SPLINE
  5
16d
100
AcDbEntity
  8
Ebene_1
 62
7
100
AcDbSpline
 70
8
 71
3
 72
8
 73
4
 74
0
 40
0
 40
0
 40
0
 40
0
 40
1
 40
1
 40
1
 40
1
 10
-95.171798
 20
134.570357
 30
0.0
 10
-95.723057
 20
134.680603
 30
0.0
 10
-96.336333
 20
134.735727
 30
0.0
 10
-97.011625
 20
134.735727
 30
0.0
  0
SPLINE
  5
16e
100
AcDbEntity
  8
Ebene_1
 62
7
100
AcDbSpline
 70
8
 71
3
 72
8
 73
4
 74
0
 40
0
 40
0
 40
0
 40
0
 40
1
 40
1
 40
1
 40
1
 10
-97.011625
 20
134.735727
 30
0.0
 10
-98.127925
 20
134.735727
 30
0.0
 10
-99.147753
 20
134.535897
 30
0.0
 10
-100.071110
 20
134.136237
 30
0.0
  0
SPLINE
  5
16f
100
AcDbEntity
  8
Ebene_1
 62
7
100
AcDbSpline
 70
8
 71
3
 72
8
 73
4
 74
0
 40
0
 40
0
 40
0
 40
0
 40
1
 40
1
 40
1
 40
1
 10
-100.071110
 20
134.136237
 30
0.0
 10
-100.994470
 20
133.750357
 30
0.0
 10
-101.786907
 20
133.212880
 30
0.0
 10
-102.448420
 20
132.523807
 30
0.0
  0
SPLINE
  5
170
100
AcDbEntity
  8
Ebene_1
 62
7
100
AcDbSpline
 70
8
 71
3
 72
8
 73
4
 74
0
 40
0
 40
0
 40
0
 40
0
 40
1
 40
1
 40
1
 40
1
 10
-102.448420
 20
132.523807
 30
0.0
 10
-103.109933
 20
131.848513
 30
0.0
 10
-103.626740
 20
131.056077
 30
0.0
 10
-103.998840
 20
130.146497
 30
0.0
  0
SPLINE
  5
171
100
AcDbEntity
  8
Ebene_1
 62
7
100
AcDbSpline
 70
8
 71
3
 72
8
 73
4
 74
0
 40
0
 40
0
 40
0
 40
0
 40
1
 40
1
 40
1
 40
1
 10
-103.998840
 20
130.146497
 30
0.0
 10
-104.370940
 20
129.250703
 30
0.0
 10
-104.556990
 20
128.286000
 30
0.0
 10
-104.556990
 20
127.252387
 30
0.0
  0
LWPOLYLINE
  5
172
100
AcDbEntity
  8
Ebene_1
 62
7
100
AcDbPolyline
 90
2
 70
0
 10
-93.331970
 20
130.167167
 30
0.0
 10
-91.306093
 20
132.503127
 30
0.0
  0
SPLINE
  5
173
100
AcDbEntity
  8
Ebene_1
 62
7
100
AcDbSpline
 70
8
 71
3
 72
8
 73
4
 74
0
 40
0
 40
0
 40
0
 40
0
 40
1
 40
1
 40
1
 40
1
 10
-104.556990
 20
127.211087
 30
0.0
 10
-104.556990
 20
126.177473
 30
0.0
 10
-104.370940
 20
125.205877
 30
0.0
 10
-103.998840
 20
124.296297
 30
0.0
  0
SPLINE
  5
174
100
AcDbEntity
  8
Ebene_1
 62
7
100
AcDbSpline
 70
8
 71
3
 72
8
 73
4
 74
0
 40
0
 40
0
 40
0
 40
0
 40
1
 40
1
 40
1
 40
1
 10
-103.998840
 20
124.296297
 30
0.0
 10
-103.626740
 20
123.386723
 30
0.0
 10
-103.109933
 20
122.594290
 30
0.0
 10
-102.448420
 20
121.918997
 30
0.0
  0
SPLINE
  5
175
100
AcDbEntity
  8
Ebene_1
 62
7
100
AcDbSpline
 70
8
 71
3
 72
8
 73
4
 74
0
 40
0
 40
0
 40
0
 40
0
 40
1
 40
1
 40
1
 40
1
 10
-102.448420
 20
121.918997
 30
0.0
 10
-101.786907
 20
121.257483
 30
0.0
 10
-101.001363
 20
120.733787
 30
0.0
 10
-100.091790
 20
120.347907
 30
0.0
  0
SPLINE
  5
176
100
AcDbEntity
  8
Ebene_1
 62
7
100
AcDbSpline
 70
8
 71
3
 72
8
 73
4
 74
0
 40
0
 40
0
 40
0
 40
0
 40
1
 40
1
 40
1
 40
1
 10
-100.091790
 20
120.347907
 30
0.0
 10
-99.182210
 20
119.962027
 30
0.0
 10
-98.196833
 20
119.769087
 30
0.0
 10
-97.135659
 20
119.769087
 30
0.0
  0
SPLINE
  5
177
100
AcDbEntity
  8
Ebene_1
 62
7
100
AcDbSpline
 70
8
 71
3
 72
8
 73
4
 74
0
 40
0
 40
0
 40
0
 40
0
 40
1
 40
1
 40
1
 40
1
 10
-97.135659
 20
119.769087
 30
0.0
 10
-96.432803
 20
119.769087
 30
0.0
 10
-95.798855
 20
119.831103
 30
0.0
 10
-95.233814
 20
119.955137
 30
0.0
  0
SPLINE
  5
178
100
AcDbEntity
  8
Ebene_1
 62
7
100
AcDbSpline
 70
8
 71
3
 72
8
 73
4
 74
0
 40
0
 40
0
 40
0
 40
0
 40
1
 40
1
 40
1
 40
1
 10
-95.233814
 20
119.955137
 30
0.0
 10
-94.668773
 20
120.065383
 30
0.0
 10
-94.151968
 20
120.230760
 30
0.0
 10
-93.683398
 20
120.451267
 30
0.0
  0
SPLINE
  5
179
100
AcDbEntity
  8
Ebene_1
 62
7
100
AcDbSpline
 70
8
 71
3
 72
8
 73
4
 74
0
 40
0
 40
0
 40
0
 40
0
 40
1
 40
1
 40
1
 40
1
 10
-93.683398
 20
120.451267
 30
0.0
 10
-93.201046
 20
120.685553
 30
0.0
 10
-92.760039
 20
120.961183
 30
0.0
 10
-92.360376
 20
121.278157
 30
0.0
  0
SPLINE
  5
17a
100
AcDbEntity
  8
Ebene_1
 62
7
100
AcDbSpline
 70
8
 71
3
 72
8
 73
4
 74
0
 40
0
 40
0
 40
0
 40
0
 40
1
 40
1
 40
1
 40
1
 10
-92.360376
 20
121.278157
 30
0.0
 10
-91.960713
 20
121.595130
 30
0.0
 10
-91.574831
 20
121.953447
 30
0.0
 10
-91.202732
 20
122.353107
 30
0.0
  0
LWPOLYLINE
  5
17b
100
AcDbEntity
  8
Ebene_1
 62
7
100
AcDbPolyline
 90
2
 70
0
 10
-104.556990
 20
127.252387
 30
0.0
 10
-104.556990
 20
127.211087
 30
0.0
  0
LWPOLYLINE
  5
17c
100
AcDbEntity
  8
Ebene_1
 62
7
100
AcDbPolyline
 90
1
 70
1
 10
-91.202732
 20
122.353107
 30
0.0
  0
LWPOLYLINE
  5
17d
100
AcDbEntity
  8
Ebene_1
 62
7
100
AcDbPolyline
 90
8
 70
1
 10
-77.697961
 20
131.552157
 30
0.0
 10
-77.697961
 20
134.487617
 30
0.0
 10
-89.687848
 20
134.487617
 30
0.0
 10
-89.687848
 20
131.552157
 30
0.0
 10
-85.284666
 20
131.552157
 30
0.0
 10
-85.284666
 20
120.017057
 30
0.0
 10
-82.101144
 20
120.017057
 30
0.0
 10
-82.101144
 20
131.552157
 30
0.0
  0
SPLINE
  5
17e
100
AcDbEntity
  8
Ebene_1
 62
7
100
AcDbSpline
 70
8
 71
3
 72
8
 73
4
 74
0
 40
0
 40
0
 40
0
 40
0
 40
1
 40
1
 40
1
 40
1
 10
-66.277846
 20
125.185117
 30
0.0
 10
-65.354487
 20
125.529650
 30
0.0
 10
-64.610287
 20
126.067127
 30
0.0
 10
-64.045246
 20
126.797547
 30
0.0
  0
SPLINE
  5
17f
100
AcDbEntity
  8
Ebene_1
 62
7
100
AcDbSpline
 70
8
 71
3
 72
8
 73
4
 74
0
 40
0
 40
0
 40
0
 40
0
 40
1
 40
1
 40
1
 40
1
 10
-64.045246
 20
126.797547
 30
0.0
 10
-63.466424
 20
127.541747
 30
0.0
 10
-63.177013
 20
128.499560
 30
0.0
 10
-63.177013
 20
129.670987
 30
0.0
  0
LWPOLYLINE
  5
180
100
AcDbEntity
  8
Ebene_1
 62
7
100
AcDbPolyline
 90
2
 70
0
 10
-62.742896
 20
120.017057
 30
0.0
 10
-66.277846
 20
125.185117
 30
0.0
  0
SPLINE
  5
181
100
AcDbEntity
  8
Ebene_1
 62
7
100
AcDbSpline
 70
8
 71
3
 72
8
 73
4
 74
0
 40
0
 40
0
 40
0
 40
0
 40
1
 40
1
 40
1
 40
1
 10
-63.177013
 20
129.712287
 30
0.0
 10
-63.177013
 20
131.214473
 30
0.0
 10
-63.659365
 20
132.385900
 30
0.0
 10
-64.624068
 20
133.226567
 30
0.0
  0
SPLINE
  5
182
100
AcDbEntity
  8
Ebene_1
 62
7
100
AcDbSpline
 70
8
 71
3
 72
8
 73
4
 74
0
 40
0
 40
0
 40
0
 40
0
 40
1
 40
1
 40
1
 40
1
 10
-64.624068
 20
133.226567
 30
0.0
 10
-65.574991
 20
134.067240
 30
0.0
 10
-66.911794
 20
134.487577
 30
0.0
 10
-68.634479
 20
134.487577
 30
0.0
  0
LWPOLYLINE
  5
183
100
AcDbEntity
  8
Ebene_1
 62
7
100
AcDbPolyline
 90
2
 70
0
 10
-63.177013
 20
129.670987
 30
0.0
 10
-63.177013
 20
129.712287
 30
0.0
  0
SPLINE
  5
184
100
AcDbEntity
  8
Ebene_1
 62
7
100
AcDbSpline
 70
8
 71
3
 72
8
 73
4
 74
0
 40
0
 40
0
 40
0
 40
0
 40
1
 40
1
 40
1
 40
1
 10
-66.401879
 20
129.505607
 30
0.0
 10
-66.401879
 20
128.885440
 30
0.0
 10
-66.615492
 20
128.389307
 30
0.0
 10
-67.042718
 20
128.017207
 30
0.0
  0
SPLINE
  5
185
100
AcDbEntity
  8
Ebene_1
 62
7
100
AcDbSpline
 70
8
 71
3
 72
8
 73
4
 74
0
 40
0
 40
0
 40
0
 40
0
 40
1
 40
1
 40
1
 40
1
 10
-67.042718
 20
128.017207
 30
0.0
 10
-67.456163
 20
127.645107
 30
0.0
 10
-68.055657
 20
127.459057
 30
0.0
 10
-68.841201
 20
127.459057
 30
0.0
  0
LWPOLYLINE
  5
186
100
AcDbEntity
  8
Ebene_1
 62
7
100
AcDbPolyline
 90
8
 70
0
 10
-68.634479
 20
134.487577
 30
0.0
 10
-75.249590
 20
134.487577
 30
0.0
 10
-75.249590
 20
120.017017
 30
0.0
 10
-72.066068
 20
120.017017
 30
0.0
 10
-72.066068
 20
124.647597
 30
0.0
 10
-69.564729
 20
124.647597
 30
0.0
 10
-66.463896
 20
120.017017
 30
0.0
 10
-62.742896
 20
120.017057
 30
0.0
  0
SPLINE
  5
187
100
AcDbEntity
  8
Ebene_1
 62
7
100
AcDbSpline
 70
8
 71
3
 72
8
 73
4
 74
0
 40
0
 40
0
 40
0
 40
0
 40
1
 40
1
 40
1
 40
1
 10
-68.903218
 20
131.614177
 30
0.0
 10
-68.117673
 20
131.614177
 30
0.0
 10
-67.504397
 20
131.441907
 30
0.0
 10
-67.063390
 20
131.097367
 30
0.0
  0
SPLINE
  5
188
100
AcDbEntity
  8
Ebene_1
 62
7
100
AcDbSpline
 70
8
 71
3
 72
8
 73
4
 74
0
 40
0
 40
0
 40
0
 40
0
 40
1
 40
1
 40
1
 40
1
 10
-67.063390
 20
131.097367
 30
0.0
 10
-66.622383
 20
130.752833
 30
0.0
 10
-66.401879
 20
130.236030
 30
0.0
 10
-66.401879
 20
129.546957
 30
0.0
  0
LWPOLYLINE
  5
189
100
AcDbEntity
  8
Ebene_1
 62
7
100
AcDbPolyline
 90
4
 70
0
 10
-68.841201
 20
127.459057
 30
0.0
 10
-72.066068
 20
127.459057
 30
0.0
 10
-72.066068
 20
131.614177
 30
0.0
 10
-68.903218
 20
131.614177
 30
0.0
  0
LWPOLYLINE
  5
18a
100
AcDbEntity
  8
Ebene_1
 62
7
100
AcDbPolyline
 90
2
 70
0
 10
-66.401879
 20
129.546957
 30
0.0
 10
-66.401879
 20
129.505607
 30
0.0
  0
LWPOLYLINE
  5
18b
100
AcDbEntity
  8
Ebene_1
 62
7
100
AcDbPolyline
 90
4
 70
1
 10
-56.982458
 20
120.017057
 30
0.0
 10
-56.982458
 20
134.487617
 30
0.0
 10
-60.165980
 20
134.487617
 30
0.0
 10
-60.165980
 20
120.017057
 30
0.0
  0
SPLINE
  5
18c
100
AcDbEntity
  8
Ebene_1
 62
7
100
AcDbSpline
 70
8
 71
3
 72
8
 73
4
 74
0
 40
0
 40
0
 40
0
 40
0
 40
1
 40
1
 40
1
 40
1
 10
-42.678576
 20
124.399567
 30
0.0
 10
-43.243617
 20
123.875873
 30
0.0
 10
-43.815548
 20
123.462430
 30
0.0
 10
-44.394370
 20
123.159237
 30
0.0
  0
SPLINE
  5
18d
100
AcDbEntity
  8
Ebene_1
 62
7
100
AcDbSpline
 70
8
 71
3
 72
8
 73
4
 74
0
 40
0
 40
0
 40
0
 40
0
 40
1
 40
1
 40
1
 40
1
 10
-44.394370
 20
123.159237
 30
0.0
 10
-44.959411
 20
122.856043
 30
0.0
 10
-45.655375
 20
122.704447
 30
0.0
 10
-46.482264
 20
122.704447
 30
0.0
  0
SPLINE
  5
18e
100
AcDbEntity
  8
Ebene_1
 62
7
100
AcDbSpline
 70
8
 71
3
 72
8
 73
4
 74
0
 40
0
 40
0
 40
0
 40
0
 40
1
 40
1
 40
1
 40
1
 10
-46.482264
 20
122.704447
 30
0.0
 10
-47.102431
 20
122.704447
 30
0.0
 10
-47.674362
 20
122.821590
 30
0.0
 10
-48.198058
 20
123.055877
 30
0.0
  0
SPLINE
  5
18f
100
AcDbEntity
  8
Ebene_1
 62
7
100
AcDbSpline
 70
8
 71
3
 72
8
 73
4
 74
0
 40
0
 40
0
 40
0
 40
0
 40
1
 40
1
 40
1
 40
1
 10
-48.198058
 20
123.055877
 30
0.0
 10
-48.707973
 20
123.303943
 30
0.0
 10
-49.148980
 20
123.634700
 30
0.0
 10
-49.521080
 20
124.048147
 30
0.0
  0
SPLINE
  5
190
100
AcDbEntity
  8
Ebene_1
 62
7
100
AcDbSpline
 70
8
 71
3
 72
8
 73
4
 74
0
 40
0
 40
0
 40
0
 40
0
 40
1
 40
1
 40
1
 40
1
 10
-49.521080
 20
124.048147
 30
0.0
 10
-49.879399
 20
124.461587
 30
0.0
 10
-50.161919
 20
124.943937
 30
0.0
 10
-50.368641
 20
125.495197
 30
0.0
  0
SPLINE
  5
191
100
AcDbEntity
  8
Ebene_1
 62
7
100
AcDbSpline
 70
8
 71
3
 72
8
 73
4
 74
0
 40
0
 40
0
 40
0
 40
0
 40
1
 40
1
 40
1
 40
1
 10
-50.368641
 20
125.495197
 30
0.0
 10
-50.575364
 20
126.046457
 30
0.0
 10
-50.678725
 20
126.632170
 30
0.0
 10
-50.678725
 20
127.252337
 30
0.0
  0
LWPOLYLINE
  5
192
100
AcDbEntity
  8
Ebene_1
 62
7
100
AcDbPolyline
 90
2
 70
0
 10
-40.652698
 20
122.353017
 30
0.0
 10
-42.678576
 20
124.399567
 30
0.0
  0
SPLINE
  5
193
100
AcDbEntity
  8
Ebene_1
 62
7
100
AcDbSpline
 70
8
 71
3
 72
8
 73
4
 74
0
 40
0
 40
0
 40
0
 40
0
 40
1
 40
1
 40
1
 40
1
 10
-50.678725
 20
127.293737
 30
0.0
 10
-50.678725
 20
127.913903
 30
0.0
 10
-50.575364
 20
128.492723
 30
0.0
 10
-50.368641
 20
129.030197
 30
0.0
  0
SPLINE
  5
194
100
AcDbEntity
  8
Ebene_1
 62
7
100
AcDbSpline
 70
8
 71
3
 72
8
 73
4
 74
0
 40
0
 40
0
 40
0
 40
0
 40
1
 40
1
 40
1
 40
1
 10
-50.368641
 20
129.030197
 30
0.0
 10
-50.161919
 20
129.581457
 30
0.0
 10
-49.872508
 20
130.063810
 30
0.0
 10
-49.500408
 20
130.477257
 30
0.0
  0
SPLINE
  5
195
100
AcDbEntity
  8
Ebene_1
 62
7
100
AcDbSpline
 70
8
 71
3
 72
8
 73
4
 74
0
 40
0
 40
0
 40
0
 40
0
 40
1
 40
1
 40
1
 40
1
 10
-49.500408
 20
130.477257
 30
0.0
 10
-49.128308
 20
130.890697
 30
0.0
 10
-48.687301
 20
131.214560
 30
0.0
 10
-48.177386
 20
131.448847
 30
0.0
  0
SPLINE
  5
196
100
AcDbEntity
  8
Ebene_1
 62
7
100
AcDbSpline
 70
8
 71
3
 72
8
 73
4
 74
0
 40
0
 40
0
 40
0
 40
0
 40
1
 40
1
 40
1
 40
1
 10
-48.177386
 20
131.448847
 30
0.0
 10
-47.653690
 20
131.683133
 30
0.0
 10
-47.088649
 20
131.800277
 30
0.0
 10
-46.482264
 20
131.800277
 30
0.0
  0
SPLINE
  5
197
100
AcDbEntity
  8
Ebene_1
 62
7
100
AcDbSpline
 70
8
 71
3
 72
8
 73
4
 74
0
 40
0
 40
0
 40
0
 40
0
 40
1
 40
1
 40
1
 40
1
 10
-46.482264
 20
131.800277
 30
0.0
 10
-45.751845
 20
131.800277
 30
0.0
 10
-45.097225
 20
131.655570
 30
0.0
 10
-44.518403
 20
131.366157
 30
0.0
  0
SPLINE
  5
198
100
AcDbEntity
  8
Ebene_1
 62
7
100
AcDbSpline
 70
8
 71
3
 72
8
 73
4
 74
0
 40
0
 40
0
 40
0
 40
0
 40
1
 40
1
 40
1
 40
1
 10
-44.518403
 20
131.366157
 30
0.0
 10
-43.925800
 20
131.076750
 30
0.0
 10
-43.346978
 20
130.677087
 30
0.0
 10
-42.781937
 20
130.167167
 30
0.0
  0
LWPOLYLINE
  5
199
100
AcDbEntity
  8
Ebene_1
 62
7
100
AcDbPolyline
 90
2
 70
0
 10
-50.678725
 20
127.252337
 30
0.0
 10
-50.678725
 20
127.293737
 30
0.0
  0
SPLINE
  5
19a
100
AcDbEntity
  8
Ebene_1
 62
7
100
AcDbSpline
 70
8
 71
3
 72
8
 73
4
 74
0
 40
0
 40
0
 40
0
 40
0
 40
1
 40
1
 40
1
 40
1
 10
-40.756059
 20
132.503127
 30
0.0
 10
-41.086814
 20
132.833887
 30
0.0
 10
-41.445133
 20
133.137080
 30
0.0
 10
-41.831014
 20
133.412707
 30
0.0
  0
SPLINE
  5
19b
100
AcDbEntity
  8
Ebene_1
 62
7
100
AcDbSpline
 70
8
 71
3
 72
8
 73
4
 74
0
 40
0
 40
0
 40
0
 40
0
 40
1
 40
1
 40
1
 40
1
 10
-41.831014
 20
133.412707
 30
0.0
 10
-42.216896
 20
133.688340
 30
0.0
 10
-42.637231
 20
133.922627
 30
0.0
 10
-43.092020
 20
134.115567
 30
0.0
  0
SPLINE
  5
19c
100
AcDbEntity
  8
Ebene_1
 62
7
100
AcDbSpline
 70
8
 71
3
 72
8
 73
4
 74
0
 40
0
 40
0
 40
0
 40
0
 40
1
 40
1
 40
1
 40
1
 10
-43.092020
 20
134.115567
 30
0.0
 10
-43.546809
 20
134.308507
 30
0.0
 10
-44.056723
 20
134.460103
 30
0.0
 10
-44.621764
 20
134.570357
 30
0.0
  0
SPLINE
  5
19d
100
AcDbEntity
  8
Ebene_1
 62
7
100
AcDbSpline
 70
8
 71
3
 72
8
 73
4
 74
0
 40
0
 40
0
 40
0
 40
0
 40
1
 40
1
 40
1
 40
1
 10
-44.621764
 20
134.570357
 30
0.0
 10
-45.173023
 20
134.680603
 30
0.0
 10
-45.786299
 20
134.735727
 30
0.0
 10
-46.461592
 20
134.735727
 30
0.0
  0
SPLINE
  5
19e
100
AcDbEntity
  8
Ebene_1
 62
7
100
AcDbSpline
 70
8
 71
3
 72
8
 73
4
 74
0
 40
0
 40
0
 40
0
 40
0
 40
1
 40
1
 40
1
 40
1
 10
-46.461592
 20
134.735727
 30
0.0
 10
-47.577892
 20
134.735727
 30
0.0
 10
-48.597721
 20
134.535897
 30
0.0
 10
-49.521080
 20
134.136237
 30
0.0
  0
SPLINE
  5
19f
100
AcDbEntity
  8
Ebene_1
 62
7
100
AcDbSpline
 70
8
 71
3
 72
8
 73
4
 74
0
 40
0
 40
0
 40
0
 40
0
 40
1
 40
1
 40
1
 40
1
 10
-49.521080
 20
134.136237
 30
0.0
 10
-50.444439
 20
133.750357
 30
0.0
 10
-51.236875
 20
133.212880
 30
0.0
 10
-51.898386
 20
132.523807
 30
0.0
  0
SPLINE
  5
1a0
100
AcDbEntity
  8
Ebene_1
 62
7
100
AcDbSpline
 70
8
 71
3
 72
8
 73
4
 74
0
 40
0
 40
0
 40
0
 40
0
 40
1
 40
1
 40
1
 40
1
 10
-51.898386
 20
132.523807
 30
0.0
 10
-52.559897
 20
131.848513
 30
0.0
 10
-53.076702
 20
131.056077
 30
0.0
 10
-53.448802
 20
130.146497
 30
0.0
  0
SPLINE
  5
1a1
100
AcDbEntity
  8
Ebene_1
 62
7
100
AcDbSpline
 70
8
 71
3
 72
8
 73
4
 74
0
 40
0
 40
0
 40
0
 40
0
 40
1
 40
1
 40
1
 40
1
 10
-53.448802
 20
130.146497
 30
0.0
 10
-53.820902
 20
129.250703
 30
0.0
 10
-54.006952
 20
128.286000
 30
0.0
 10
-54.006952
 20
127.252387
 30
0.0
  0
LWPOLYLINE
  5
1a2
100
AcDbEntity
  8
Ebene_1
 62
7
100
AcDbPolyline
 90
2
 70
0
 10
-42.781937
 20
130.167167
 30
0.0
 10
-40.756059
 20
132.503127
 30
0.0
  0
SPLINE
  5
1a3
100
AcDbEntity
  8
Ebene_1
 62
7
100
AcDbSpline
 70
8
 71
3
 72
8
 73
4
 74
0
 40
0
 40
0
 40
0
 40
0
 40
1
 40
1
 40
1
 40
1
 10
-54.006952
 20
127.211087
 30
0.0
 10
-54.006952
 20
126.177473
 30
0.0
 10
-53.820902
 20
125.205877
 30
0.0
 10
-53.448802
 20
124.296297
 30
0.0
  0
SPLINE
  5
1a4
100
AcDbEntity
  8
Ebene_1
 62
7
100
AcDbSpline
 70
8
 71
3
 72
8
 73
4
 74
0
 40
0
 40
0
 40
0
 40
0
 40
1
 40
1
 40
1
 40
1
 10
-53.448802
 20
124.296297
 30
0.0
 10
-53.076702
 20
123.386723
 30
0.0
 10
-52.559897
 20
122.594290
 30
0.0
 10
-51.898386
 20
121.918997
 30
0.0
  0
SPLINE
  5
1a5
100
AcDbEntity
  8
Ebene_1
 62
7
100
AcDbSpline
 70
8
 71
3
 72
8
 73
4
 74
0
 40
0
 40
0
 40
0
 40
0
 40
1
 40
1
 40
1
 40
1
 10
-51.898386
 20
121.918997
 30
0.0
 10
-51.236875
 20
121.257483
 30
0.0
 10
-50.451330
 20
120.733787
 30
0.0
 10
-49.541753
 20
120.347907
 30
0.0
  0
SPLINE
  5
1a6
100
AcDbEntity
  8
Ebene_1
 62
7
100
AcDbSpline
 70
8
 71
3
 72
8
 73
4
 74
0
 40
0
 40
0
 40
0
 40
0
 40
1
 40
1
 40
1
 40
1
 10
-49.541753
 20
120.347907
 30
0.0
 10
-48.632175
 20
119.962027
 30
0.0
 10
-47.646799
 20
119.769087
 30
0.0
 10
-46.585625
 20
119.769087
 30
0.0
  0
SPLINE
  5
1a7
100
AcDbEntity
  8
Ebene_1
 62
7
100
AcDbSpline
 70
8
 71
3
 72
8
 73
4
 74
0
 40
0
 40
0
 40
0
 40
0
 40
1
 40
1
 40
1
 40
1
 10
-46.585625
 20
119.769087
 30
0.0
 10
-45.882770
 20
119.769087
 30
0.0
 10
-45.248822
 20
119.831103
 30
0.0
 10
-44.683781
 20
119.955137
 30
0.0
  0
SPLINE
  5
1a8
100
AcDbEntity
  8
Ebene_1
 62
7
100
AcDbSpline
 70
8
 71
3
 72
8
 73
4
 74
0
 40
0
 40
0
 40
0
 40
0
 40
1
 40
1
 40
1
 40
1
 10
-44.683781
 20
119.955137
 30
0.0
 10
-44.118740
 20
120.065383
 30
0.0
 10
-43.601935
 20
120.230760
 30
0.0
 10
-43.133364
 20
120.451267
 30
0.0
  0
SPLINE
  5
1a9
100
AcDbEntity
  8
Ebene_1
 62
7
100
AcDbSpline
 70
8
 71
3
 72
8
 73
4
 74
0
 40
0
 40
0
 40
0
 40
0
 40
1
 40
1
 40
1
 40
1
 10
-43.133364
 20
120.451267
 30
0.0
 10
-42.651013
 20
120.685553
 30
0.0
 10
-42.210005
 20
120.961183
 30
0.0
 10
-41.810342
 20
121.278157
 30
0.0
  0
SPLINE
  5
1aa
100
AcDbEntity
  8
Ebene_1
 62
7
100
AcDbSpline
 70
8
 71
3
 72
8
 73
4
 74
0
 40
0
 40
0
 40
0
 40
0
 40
1
 40
1
 40
1
 40
1
 10
-41.810342
 20
121.278157
 30
0.0
 10
-41.410679
 20
121.595130
 30
0.0
 10
-41.024798
 20
121.953447
 30
0.0
 10
-40.652698
 20
122.353107
 30
0.0
  0
LWPOLYLINE
  5
1ab
100
AcDbEntity
  8
Ebene_1
 62
7
100
AcDbPolyline
 90
2
 70
0
 10
-54.006952
 20
127.252387
 30
0.0
 10
-54.006952
 20
127.211087
 30
0.0
  0
LWPOLYLINE
  5
1ac
100
AcDbEntity
  8
Ebene_1
 62
7
100
AcDbPolyline
 90
1
 70
1
 10
-40.652698
 20
122.353107
 30
0.0
  0
LWPOLYLINE
  5
1ad
100
AcDbEntity
  8
Ebene_1
 62
7
100
AcDbPolyline
 90
7
 70
1
 10
-131.565080
 20
113.815397
 30
0.0
 10
-134.996670
 20
113.815397
 30
0.0
 10
-138.779690
 20
103.623987
 30
0.0
 10
-142.562700
 20
113.815397
 30
0.0
 10
-146.076980
 20
113.815397
 30
0.0
 10
-140.226740
 20
99.241477
 30
0.0
 10
-137.415320
 20
99.241477
 30
0.0
  0
LWPOLYLINE
  5
1ae
100
AcDbEntity
  8
Ebene_1
 62
7
100
AcDbPolyline
 90
12
 70
1
 10
-118.314190
 20
99.344837
 30
0.0
 10
-118.314190
 20
102.176937
 30
0.0
 10
-126.169630
 20
102.176937
 30
0.0
 10
-126.169630
 20
105.215747
 30
0.0
 10
-119.347800
 20
105.215747
 30
0.0
 10
-119.347800
 20
108.047847
 30
0.0
 10
-126.169630
 20
108.047847
 30
0.0
 10
-126.169630
 20
110.983297
 30
0.0
 10
-118.417550
 20
110.983297
 30
0.0
 10
-118.417550
 20
113.815397
 30
0.0
 10
-129.332480
 20
113.815397
 30
0.0
 10
-129.332480
 20
99.344837
 30
0.0
  0
LWPOLYLINE
  5
1af
100
AcDbEntity
  8
Ebene_1
 62
7
100
AcDbPolyline
 90
12
 70
1
 10
-103.245750
 20
99.344837
 30
0.0
 10
-103.245750
 20
113.815397
 30
0.0
 10
-106.429280
 20
113.815397
 30
0.0
 10
-106.429280
 20
108.089187
 30
0.0
 10
-112.300190
 20
108.089187
 30
0.0
 10
-112.300190
 20
113.815397
 30
0.0
 10
-115.483710
 20
113.815397
 30
0.0
 10
-115.483710
 20
99.344837
 30
0.0
 10
-112.300190
 20
99.344837
 30
0.0
 10
-112.300190
 20
105.153737
 30
0.0
 10
-106.429280
 20
105.153737
 30
0.0
 10
-106.429280
 20
99.344837
 30
0.0
  0
LWPOLYLINE
  5
1b0
100
AcDbEntity
  8
Ebene_1
 62
7
100
AcDbPolyline
 90
4
 70
1
 10
-96.449438
 20
99.344837
 30
0.0
 10
-96.449438
 20
113.815397
 30
0.0
 10
-99.632960
 20
113.815397
 30
0.0
 10
-99.632960
 20
99.344837
 30
0.0
  0
SPLINE
  5
1b1
100
AcDbEntity
  8
Ebene_1
 62
7
100
AcDbSpline
 70
8
 71
3
 72
8
 73
4
 74
0
 40
0
 40
0
 40
0
 40
0
 40
1
 40
1
 40
1
 40
1
 10
-82.145555
 20
103.727347
 30
0.0
 10
-82.710596
 20
103.203653
 30
0.0
 10
-83.282527
 20
102.790210
 30
0.0
 10
-83.861349
 20
102.487017
 30
0.0
  0
SPLINE
  5
1b2
100
AcDbEntity
  8
Ebene_1
 62
7
100
AcDbSpline
 70
8
 71
3
 72
8
 73
4
 74
0
 40
0
 40
0
 40
0
 40
0
 40
1
 40
1
 40
1
 40
1
 10
-83.861349
 20
102.487017
 30
0.0
 10
-84.426390
 20
102.183823
 30
0.0
 10
-85.122354
 20
102.032227
 30
0.0
 10
-85.949243
 20
102.032227
 30
0.0
  0
SPLINE
  5
1b3
100
AcDbEntity
  8
Ebene_1
 62
7
100
AcDbSpline
 70
8
 71
3
 72
8
 73
4
 74
0
 40
0
 40
0
 40
0
 40
0
 40
1
 40
1
 40
1
 40
1
 10
-85.949243
 20
102.032227
 30
0.0
 10
-86.569410
 20
102.032227
 30
0.0
 10
-87.141341
 20
102.149370
 30
0.0
 10
-87.665038
 20
102.383657
 30
0.0
  0
SPLINE
  5
1b4
100
AcDbEntity
  8
Ebene_1
 62
7
100
AcDbSpline
 70
8
 71
3
 72
8
 73
4
 74
0
 40
0
 40
0
 40
0
 40
0
 40
1
 40
1
 40
1
 40
1
 10
-87.665038
 20
102.383657
 30
0.0
 10
-88.174953
 20
102.631723
 30
0.0
 10
-88.615960
 20
102.962480
 30
0.0
 10
-88.988060
 20
103.375927
 30
0.0
  0
SPLINE
  5
1b5
100
AcDbEntity
  8
Ebene_1
 62
7
100
AcDbSpline
 70
8
 71
3
 72
8
 73
4
 74
0
 40
0
 40
0
 40
0
 40
0
 40
1
 40
1
 40
1
 40
1
 10
-88.988060
 20
103.375927
 30
0.0
 10
-89.346379
 20
103.789367
 30
0.0
 10
-89.628899
 20
104.271717
 30
0.0
 10
-89.835621
 20
104.822977
 30
0.0
  0
SPLINE
  5
1b6
100
AcDbEntity
  8
Ebene_1
 62
7
100
AcDbSpline
 70
8
 71
3
 72
8
 73
4
 74
0
 40
0
 40
0
 40
0
 40
0
 40
1
 40
1
 40
1
 40
1
 10
-89.835621
 20
104.822977
 30
0.0
 10
-90.042343
 20
105.374237
 30
0.0
 10
-90.145704
 20
105.959950
 30
0.0
 10
-90.145704
 20
106.580117
 30
0.0
  0
LWPOLYLINE
  5
1b7
100
AcDbEntity
  8
Ebene_1
 62
7
100
AcDbPolyline
 90
2
 70
0
 10
-80.119677
 20
101.680797
 30
0.0
 10
-82.145555
 20
103.727347
 30
0.0
  0
SPLINE
  5
1b8
100
AcDbEntity
  8
Ebene_1
 62
7
100
AcDbSpline
 70
8
 71
3
 72
8
 73
4
 74
0
 40
0
 40
0
 40
0
 40
0
 40
1
 40
1
 40
1
 40
1
 10
-90.145704
 20
106.621417
 30
0.0
 10
-90.145704
 20
107.241583
 30
0.0
 10
-90.042343
 20
107.820407
 30
0.0
 10
-89.835621
 20
108.357887
 30
0.0
  0
SPLINE
  5
1b9
100
AcDbEntity
  8
Ebene_1
 62
7
100
AcDbSpline
 70
8
 71
3
 72
8
 73
4
 74
0
 40
0
 40
0
 40
0
 40
0
 40
1
 40
1
 40
1
 40
1
 10
-89.835621
 20
108.357887
 30
0.0
 10
-89.628899
 20
108.909147
 30
0.0
 10
-89.339488
 20
109.391500
 30
0.0
 10
-88.967388
 20
109.804947
 30
0.0
  0
SPLINE
  5
1ba
100
AcDbEntity
  8
Ebene_1
 62
7
100
AcDbSpline
 70
8
 71
3
 72
8
 73
4
 74
0
 40
0
 40
0
 40
0
 40
0
 40
1
 40
1
 40
1
 40
1
 10
-88.967388
 20
109.804947
 30
0.0
 10
-88.595288
 20
110.218387
 30
0.0
 10
-88.154281
 20
110.542250
 30
0.0
 10
-87.644366
 20
110.776537
 30
0.0
  0
SPLINE
  5
1bb
100
AcDbEntity
  8
Ebene_1
 62
7
100
AcDbSpline
 70
8
 71
3
 72
8
 73
4
 74
0
 40
0
 40
0
 40
0
 40
0
 40
1
 40
1
 40
1
 40
1
 10
-87.644366
 20
110.776537
 30
0.0
 10
-87.120669
 20
111.010823
 30
0.0
 10
-86.555628
 20
111.127967
 30
0.0
 10
-85.949243
 20
111.127967
 30
0.0
  0
SPLINE
  5
1bc
100
AcDbEntity
  8
Ebene_1
 62
7
100
AcDbSpline
 70
8
 71
3
 72
8
 73
4
 74
0
 40
0
 40
0
 40
0
 40
0
 40
1
 40
1
 40
1
 40
1
 10
-85.949243
 20
111.127967
 30
0.0
 10
-85.218825
 20
111.127967
 30
0.0
 10
-84.564205
 20
110.983260
 30
0.0
 10
-83.985383
 20
110.693847
 30
0.0
  0
SPLINE
  5
1bd
100
AcDbEntity
  8
Ebene_1
 62
7
100
AcDbSpline
 70
8
 71
3
 72
8
 73
4
 74
0
 40
0
 40
0
 40
0
 40
0
 40
1
 40
1
 40
1
 40
1
 10
-83.985383
 20
110.693847
 30
0.0
 10
-83.392779
 20
110.404440
 30
0.0
 10
-82.813957
 20
110.004777
 30
0.0
 10
-82.248916
 20
109.494857
 30
0.0
  0
LWPOLYLINE
  5
1be
100
AcDbEntity
  8
Ebene_1
 62
7
100
AcDbPolyline
 90
2
 70
0
 10
-90.145704
 20
106.580117
 30
0.0
 10
-90.145704
 20
106.621417
 30
0.0
  0
SPLINE
  5
1bf
100
AcDbEntity
  8
Ebene_1
 62
7
100
AcDbSpline
 70
8
 71
3
 72
8
 73
4
 74
0
 40
0
 40
0
 40
0
 40
0
 40
1
 40
1
 40
1
 40
1
 10
-80.223038
 20
111.830817
 30
0.0
 10
-80.553794
 20
112.161577
 30
0.0
 10
-80.912113
 20
112.464770
 30
0.0
 10
-81.297994
 20
112.740397
 30
0.0
  0
SPLINE
  5
1c0
100
AcDbEntity
  8
Ebene_1
 62
7
100
AcDbSpline
 70
8
 71
3
 72
8
 73
4
 74
0
 40
0
 40
0
 40
0
 40
0
 40
1
 40
1
 40
1
 40
1
 10
-81.297994
 20
112.740397
 30
0.0
 10
-81.683875
 20
113.016030
 30
0.0
 10
-82.104210
 20
113.250317
 30
0.0
 10
-82.558999
 20
113.443257
 30
0.0
  0
SPLINE
  5
1c1
100
AcDbEntity
  8
Ebene_1
 62
7
100
AcDbSpline
 70
8
 71
3
 72
8
 73
4
 74
0
 40
0
 40
0
 40
0
 40
0
 40
1
 40
1
 40
1
 40
1
 10
-82.558999
 20
113.443257
 30
0.0
 10
-83.013788
 20
113.636197
 30
0.0
 10
-83.523703
 20
113.787793
 30
0.0
 10
-84.088744
 20
113.898047
 30
0.0
  0
SPLINE
  5
1c2
100
AcDbEntity
  8
Ebene_1
 62
7
100
AcDbSpline
 70
8
 71
3
 72
8
 73
4
 74
0
 40
0
 40
0
 40
0
 40
0
 40
1
 40
1
 40
1
 40
1
 10
-84.088744
 20
113.898047
 30
0.0
 10
-84.640003
 20
114.008293
 30
0.0
 10
-85.253278
 20
114.063417
 30
0.0
 10
-85.928571
 20
114.063417
 30
0.0
  0
SPLINE
  5
1c3
100
AcDbEntity
  8
Ebene_1
 62
7
100
AcDbSpline
 70
8
 71
3
 72
8
 73
4
 74
0
 40
0
 40
0
 40
0
 40
0
 40
1
 40
1
 40
1
 40
1
 10
-85.928571
 20
114.063417
 30
0.0
 10
-87.044871
 20
114.063417
 30
0.0
 10
-88.064701
 20
113.863587
 30
0.0
 10
-88.988060
 20
113.463927
 30
0.0
  0
SPLINE
  5
1c4
100
AcDbEntity
  8
Ebene_1
 62
7
100
AcDbSpline
 70
8
 71
3
 72
8
 73
4
 74
0
 40
0
 40
0
 40
0
 40
0
 40
1
 40
1
 40
1
 40
1
 10
-88.988060
 20
113.463927
 30
0.0
 10
-89.911419
 20
113.078047
 30
0.0
 10
-90.703854
 20
112.540570
 30
0.0
 10
-91.365365
 20
111.851497
 30
0.0
  0
SPLINE
  5
1c5
100
AcDbEntity
  8
Ebene_1
 62
7
100
AcDbSpline
 70
8
 71
3
 72
8
 73
4
 74
0
 40
0
 40
0
 40
0
 40
0
 40
1
 40
1
 40
1
 40
1
 10
-91.365365
 20
111.851497
 30
0.0
 10
-92.026876
 20
111.176203
 30
0.0
 10
-92.543682
 20
110.383767
 30
0.0
 10
-92.915782
 20
109.474187
 30
0.0
  0
SPLINE
  5
1c6
100
AcDbEntity
  8
Ebene_1
 62
7
100
AcDbSpline
 70
8
 71
3
 72
8
 73
4
 74
0
 40
0
 40
0
 40
0
 40
0
 40
1
 40
1
 40
1
 40
1
 10
-92.915782
 20
109.474187
 30
0.0
 10
-93.287882
 20
108.578393
 30
0.0
 10
-93.473932
 20
107.613690
 30
0.0
 10
-93.473932
 20
106.580077
 30
0.0
  0
LWPOLYLINE
  5
1c7
100
AcDbEntity
  8
Ebene_1
 62
7
100
AcDbPolyline
 90
2
 70
0
 10
-82.248916
 20
109.494857
 30
0.0
 10
-80.223038
 20
111.830817
 30
0.0
  0
SPLINE
  5
1c8
100
AcDbEntity
  8
Ebene_1
 62
7
100
AcDbSpline
 70
8
 71
3
 72
8
 73
4
 74
0
 40
0
 40
0
 40
0
 40
0
 40
1
 40
1
 40
1
 40
1
 10
-93.473932
 20
106.538777
 30
0.0
 10
-93.473932
 20
105.505163
 30
0.0
 10
-93.287882
 20
104.533567
 30
0.0
 10
-92.915782
 20
103.623987
 30
0.0
  0
SPLINE
  5
1c9
100
AcDbEntity
  8
Ebene_1
 62
7
100
AcDbSpline
 70
8
 71
3
 72
8
 73
4
 74
0
 40
0
 40
0
 40
0
 40
0
 40
1
 40
1
 40
1
 40
1
 10
-92.915782
 20
103.623987
 30
0.0
 10
-92.543682
 20
102.714413
 30
0.0
 10
-92.026876
 20
101.921980
 30
0.0
 10
-91.365365
 20
101.246687
 30
0.0
  0
SPLINE
  5
1ca
100
AcDbEntity
  8
Ebene_1
 62
7
100
AcDbSpline
 70
8
 71
3
 72
8
 73
4
 74
0
 40
0
 40
0
 40
0
 40
0
 40
1
 40
1
 40
1
 40
1
 10
-91.365365
 20
101.246687
 30
0.0
 10
-90.703854
 20
100.585173
 30
0.0
 10
-89.918310
 20
100.061477
 30
0.0
 10
-89.008732
 20
99.675597
 30
0.0
  0
SPLINE
  5
1cb
100
AcDbEntity
  8
Ebene_1
 62
7
100
AcDbSpline
 70
8
 71
3
 72
8
 73
4
 74
0
 40
0
 40
0
 40
0
 40
0
 40
1
 40
1
 40
1
 40
1
 10
-89.008732
 20
99.675597
 30
0.0
 10
-88.099155
 20
99.289717
 30
0.0
 10
-87.113779
 20
99.096777
 30
0.0
 10
-86.052605
 20
99.096777
 30
0.0
  0
SPLINE
  5
1cc
100
AcDbEntity
  8
Ebene_1
 62
7
100
AcDbSpline
 70
8
 71
3
 72
8
 73
4
 74
0
 40
0
 40
0
 40
0
 40
0
 40
1
 40
1
 40
1
 40
1
 10
-86.052605
 20
99.096777
 30
0.0
 10
-85.349749
 20
99.096777
 30
0.0
 10
-84.715801
 20
99.158793
 30
0.0
 10
-84.150760
 20
99.282827
 30
0.0
  0
SPLINE
  5
1cd
100
AcDbEntity
  8
Ebene_1
 62
7
100
AcDbSpline
 70
8
 71
3
 72
8
 73
4
 74
0
 40
0
 40
0
 40
0
 40
0
 40
1
 40
1
 40
1
 40
1
 10
-84.150760
 20
99.282827
 30
0.0
 10
-83.585719
 20
99.393073
 30
0.0
 10
-83.068914
 20
99.558450
 30
0.0
 10
-82.600344
 20
99.778957
 30
0.0
  0
SPLINE
  5
1ce
100
AcDbEntity
  8
Ebene_1
 62
7
100
AcDbSpline
 70
8
 71
3
 72
8
 73
4
 74
0
 40
0
 40
0
 40
0
 40
0
 40
1
 40
1
 40
1
 40
1
 10
-82.600344
 20
99.778957
 30
0.0
 10
-82.117992
 20
100.013243
 30
0.0
 10
-81.676985
 20
100.288873
 30
0.0
 10
-81.277322
 20
100.605847
 30
0.0
  0
SPLINE
  5
1cf
100
AcDbEntity
  8
Ebene_1
 62
7
100
AcDbSpline
 70
8
 71
3
 72
8
 73
4
 74
0
 40
0
 40
0
 40
0
 40
0
 40
1
 40
1
 40
1
 40
1
 10
-81.277322
 20
100.605847
 30
0.0
 10
-80.877659
 20
100.922820
 30
0.0
 10
-80.491777
 20
101.281137
 30
0.0
 10
-80.119677
 20
101.680797
 30
0.0
  0
LWPOLYLINE
  5
1d0
100
AcDbEntity
  8
Ebene_1
 62
7
100
AcDbPolyline
 90
2
 70
0
 10
-93.473932
 20
106.580077
 30
0.0
 10
-93.473932
 20
106.538777
 30
0.0
  0
LWPOLYLINE
  5
1d1
100
AcDbEntity
  8
Ebene_1
 62
7
100
AcDbPolyline
 90
1
 70
1
 10
-80.119677
 20
101.680797
 30
0.0
  0
LWPOLYLINE
  5
1d2
100
AcDbEntity
  8
Ebene_1
 62
7
100
AcDbPolyline
 90
6
 70
1
 10
-67.173057
 20
99.344837
 30
0.0
 10
-67.173057
 20
102.238947
 30
0.0
 10
-74.387661
 20
102.238947
 30
0.0
 10
-74.387661
 20
113.815397
 30
0.0
 10
-77.571183
 20
113.815397
 30
0.0
 10
-77.571183
 20
99.344837
 30
0.0
  0
LWPOLYLINE
  5
1d3
100
AcDbEntity
  8
Ebene_1
 62
7
100
AcDbPolyline
 90
12
 70
1
 10
-53.753879
 20
99.344837
 30
0.0
 10
-53.753879
 20
102.176937
 30
0.0
 10
-61.609322
 20
102.176937
 30
0.0
 10
-61.609322
 20
105.215747
 30
0.0
 10
-54.787490
 20
105.215747
 30
0.0
 10
-54.787490
 20
108.047847
 30
0.0
 10
-61.609322
 20
108.047847
 30
0.0
 10
-61.609322
 20
110.983297
 30
0.0
 10
-53.857240
 20
110.983297
 30
0.0
 10
-53.857240
 20
113.815397
 30
0.0
 10
-64.772172
 20
113.815397
 30
0.0
 10
-64.772172
 20
99.344837
 30
0.0
  0
SPLINE
  5
1d4
100
AcDbEntity
  8
Ebene_1
 62
7
100
AcDbSpline
 70
8
 71
3
 72
8
 73
4
 74
0
 40
0
 40
0
 40
0
 40
0
 40
1
 40
1
 40
1
 40
1
 10
-40.463251
 20
103.665287
 30
0.0
 10
-40.463251
 20
104.299233
 30
0.0
 10
-40.566612
 20
104.843600
 30
0.0
 10
-40.773334
 20
105.298387
 30
0.0
  0
SPLINE
  5
1d5
100
AcDbEntity
  8
Ebene_1
 62
7
100
AcDbSpline
 70
8
 71
3
 72
8
 73
4
 74
0
 40
0
 40
0
 40
0
 40
0
 40
1
 40
1
 40
1
 40
1
 10
-40.773334
 20
105.298387
 30
0.0
 10
-40.966275
 20
105.753180
 30
0.0
 10
-41.262577
 20
106.145953
 30
0.0
 10
-41.662240
 20
106.476707
 30
0.0
  0
SPLINE
  5
1d6
100
AcDbEntity
  8
Ebene_1
 62
7
100
AcDbSpline
 70
8
 71
3
 72
8
 73
4
 74
0
 40
0
 40
0
 40
0
 40
0
 40
1
 40
1
 40
1
 40
1
 10
-41.662240
 20
106.476707
 30
0.0
 10
-42.048121
 20
106.821240
 30
0.0
 10
-42.530473
 20
107.110650
 30
0.0
 10
-43.109295
 20
107.344937
 30
0.0
  0
SPLINE
  5
1d7
100
AcDbEntity
  8
Ebene_1
 62
7
100
AcDbSpline
 70
8
 71
3
 72
8
 73
4
 74
0
 40
0
 40
0
 40
0
 40
0
 40
1
 40
1
 40
1
 40
1
 10
-43.109295
 20
107.344937
 30
0.0
 10
-43.674336
 20
107.593003
 30
0.0
 10
-44.322065
 20
107.813507
 30
0.0
 10
-45.052484
 20
108.006447
 30
0.0
  0
SPLINE
  5
1d8
100
AcDbEntity
  8
Ebene_1
 62
7
100
AcDbSpline
 70
8
 71
3
 72
8
 73
4
 74
0
 40
0
 40
0
 40
0
 40
0
 40
1
 40
1
 40
1
 40
1
 10
-45.052484
 20
108.006447
 30
0.0
 10
-45.672651
 20
108.171827
 30
0.0
 10
-46.189456
 20
108.316533
 30
0.0
 10
-46.602900
 20
108.440567
 30
0.0
  0
SPLINE
  5
1d9
100
AcDbEntity
  8
Ebene_1
 62
7
100
AcDbSpline
 70
8
 71
3
 72
8
 73
4
 74
0
 40
0
 40
0
 40
0
 40
0
 40
1
 40
1
 40
1
 40
1
 10
-46.602900
 20
108.440567
 30
0.0
 10
-47.002563
 20
108.564600
 30
0.0
 10
-47.319537
 20
108.695523
 30
0.0
 10
-47.553822
 20
108.833337
 30
0.0
  0
SPLINE
  5
1da
100
AcDbEntity
  8
Ebene_1
 62
7
100
AcDbSpline
 70
8
 71
3
 72
8
 73
4
 74
0
 40
0
 40
0
 40
0
 40
0
 40
1
 40
1
 40
1
 40
1
 10
-47.553822
 20
108.833337
 30
0.0
 10
-47.788107
 20
108.971150
 30
0.0
 10
-47.953485
 20
109.122747
 30
0.0
 10
-48.049956
 20
109.288127
 30
0.0
  0
SPLINE
  5
1db
100
AcDbEntity
  8
Ebene_1
 62
7
100
AcDbSpline
 70
8
 71
3
 72
8
 73
4
 74
0
 40
0
 40
0
 40
0
 40
0
 40
1
 40
1
 40
1
 40
1
 10
-48.049956
 20
109.288127
 30
0.0
 10
-48.132645
 20
109.467287
 30
0.0
 10
-48.173989
 20
109.674010
 30
0.0
 10
-48.173989
 20
109.908297
 30
0.0
  0
LWPOLYLINE
  5
1dc
100
AcDbEntity
  8
Ebene_1
 62
7
100
AcDbPolyline
 90
2
 70
0
 10
-40.463251
 20
103.623987
 30
0.0
 10
-40.463251
 20
103.665287
 30
0.0
  0
SPLINE
  5
1dd
100
AcDbEntity
  8
Ebene_1
 62
7
100
AcDbSpline
 70
8
 71
3
 72
8
 73
4
 74
0
 40
0
 40
0
 40
0
 40
0
 40
1
 40
1
 40
1
 40
1
 10
-48.173989
 20
109.949597
 30
0.0
 10
-48.173989
 20
110.307917
 30
0.0
 10
-48.022393
 20
110.604220
 30
0.0
 10
-47.719200
 20
110.838507
 30
0.0
  0
SPLINE
  5
1de
100
AcDbEntity
  8
Ebene_1
 62
7
100
AcDbSpline
 70
8
 71
3
 72
8
 73
4
 74
0
 40
0
 40
0
 40
0
 40
0
 40
1
 40
1
 40
1
 40
1
 10
-47.719200
 20
110.838507
 30
0.0
 10
-47.402226
 20
111.086573
 30
0.0
 10
-46.933656
 20
111.210607
 30
0.0
 10
-46.313489
 20
111.210607
 30
0.0
  0
SPLINE
  5
1df
100
AcDbEntity
  8
Ebene_1
 62
7
100
AcDbSpline
 70
8
 71
3
 72
8
 73
4
 74
0
 40
0
 40
0
 40
0
 40
0
 40
1
 40
1
 40
1
 40
1
 10
-46.313489
 20
111.210607
 30
0.0
 10
-45.693322
 20
111.210607
 30
0.0
 10
-45.073156
 20
111.079683
 30
0.0
 10
-44.452989
 20
110.817837
 30
0.0
  0
SPLINE
  5
1e0
100
AcDbEntity
  8
Ebene_1
 62
7
100
AcDbSpline
 70
8
 71
3
 72
8
 73
4
 74
0
 40
0
 40
0
 40
0
 40
0
 40
1
 40
1
 40
1
 40
1
 10
-44.452989
 20
110.817837
 30
0.0
 10
-43.832822
 20
110.569770
 30
0.0
 10
-43.198874
 20
110.225230
 30
0.0
 10
-42.551145
 20
109.784217
 30
0.0
  0
LWPOLYLINE
  5
1e1
100
AcDbEntity
  8
Ebene_1
 62
7
100
AcDbPolyline
 90
2
 70
0
 10
-48.173989
 20
109.908297
 30
0.0
 10
-48.173989
 20
109.949597
 30
0.0
  0
SPLINE
  5
1e2
100
AcDbEntity
  8
Ebene_1
 62
7
100
AcDbSpline
 70
8
 71
3
 72
8
 73
4
 74
0
 40
0
 40
0
 40
0
 40
0
 40
1
 40
1
 40
1
 40
1
 10
-40.897368
 20
112.182197
 30
0.0
 10
-41.641567
 20
112.774803
 30
0.0
 10
-42.461565
 20
113.229593
 30
0.0
 10
-43.357362
 20
113.546567
 30
0.0
  0
SPLINE
  5
1e3
100
AcDbEntity
  8
Ebene_1
 62
7
100
AcDbSpline
 70
8
 71
3
 72
8
 73
4
 74
0
 40
0
 40
0
 40
0
 40
0
 40
1
 40
1
 40
1
 40
1
 10
-43.357362
 20
113.546567
 30
0.0
 10
-44.239377
 20
113.863540
 30
0.0
 10
-45.210971
 20
114.022027
 30
0.0
 10
-46.272145
 20
114.022027
 30
0.0
  0
SPLINE
  5
1e4
100
AcDbEntity
  8
Ebene_1
 62
7
100
AcDbSpline
 70
8
 71
3
 72
8
 73
4
 74
0
 40
0
 40
0
 40
0
 40
0
 40
1
 40
1
 40
1
 40
1
 10
-46.272145
 20
114.022027
 30
0.0
 10
-47.016345
 20
114.022027
 30
0.0
 10
-47.698528
 20
113.918667
 30
0.0
 10
-48.318695
 20
113.711947
 30
0.0
  0
SPLINE
  5
1e5
100
AcDbEntity
  8
Ebene_1
 62
7
100
AcDbSpline
 70
8
 71
3
 72
8
 73
4
 74
0
 40
0
 40
0
 40
0
 40
0
 40
1
 40
1
 40
1
 40
1
 10
-48.318695
 20
113.711947
 30
0.0
 10
-48.938861
 20
113.505220
 30
0.0
 10
-49.476339
 20
113.208917
 30
0.0
 10
-49.931128
 20
112.823037
 30
0.0
  0
SPLINE
  5
1e6
100
AcDbEntity
  8
Ebene_1
 62
7
100
AcDbSpline
 70
8
 71
3
 72
8
 73
4
 74
0
 40
0
 40
0
 40
0
 40
0
 40
1
 40
1
 40
1
 40
1
 10
-49.931128
 20
112.823037
 30
0.0
 10
-50.372135
 20
112.437157
 30
0.0
 10
-50.716672
 20
111.975477
 30
0.0
 10
-50.964739
 20
111.437997
 30
0.0
  0
SPLINE
  5
1e7
100
AcDbEntity
  8
Ebene_1
 62
7
100
AcDbSpline
 70
8
 71
3
 72
8
 73
4
 74
0
 40
0
 40
0
 40
0
 40
0
 40
1
 40
1
 40
1
 40
1
 10
-50.964739
 20
111.437997
 30
0.0
 10
-51.212806
 20
110.914303
 30
0.0
 10
-51.336839
 20
110.321700
 30
0.0
 10
-51.336839
 20
109.660187
 30
0.0
  0
LWPOLYLINE
  5
1e8
100
AcDbEntity
  8
Ebene_1
 62
7
100
AcDbPolyline
 90
2
 70
0
 10
-42.551145
 20
109.784217
 30
0.0
 10
-40.897368
 20
112.182197
 30
0.0
  0
SPLINE
  5
1e9
100
AcDbEntity
  8
Ebene_1
 62
7
100
AcDbSpline
 70
8
 71
3
 72
8
 73
4
 74
0
 40
0
 40
0
 40
0
 40
0
 40
1
 40
1
 40
1
 40
1
 10
-51.336839
 20
109.618887
 30
0.0
 10
-51.336839
 20
108.902247
 30
0.0
 10
-51.226587
 20
108.302750
 30
0.0
 10
-51.006083
 20
107.820397
 30
0.0
  0
SPLINE
  5
1ea
100
AcDbEntity
  8
Ebene_1
 62
7
100
AcDbSpline
 70
8
 71
3
 72
8
 73
4
 74
0
 40
0
 40
0
 40
0
 40
0
 40
1
 40
1
 40
1
 40
1
 10
-51.006083
 20
107.820397
 30
0.0
 10
-50.771798
 20
107.338050
 30
0.0
 10
-50.447933
 20
106.931497
 30
0.0
 10
-50.034489
 20
106.600737
 30
0.0
  0
SPLINE
  5
1eb
100
AcDbEntity
  8
Ebene_1
 62
7
100
AcDbSpline
 70
8
 71
3
 72
8
 73
4
 74
0
 40
0
 40
0
 40
0
 40
0
 40
1
 40
1
 40
1
 40
1
 10
-50.034489
 20
106.600737
 30
0.0
 10
-49.621044
 20
106.283763
 30
0.0
 10
-49.118020
 20
106.015027
 30
0.0
 10
-48.525417
 20
105.794527
 30
0.0
  0
SPLINE
  5
1ec
100
AcDbEntity
  8
Ebene_1
 62
7
100
AcDbSpline
 70
8
 71
3
 72
8
 73
4
 74
0
 40
0
 40
0
 40
0
 40
0
 40
1
 40
1
 40
1
 40
1
 10
-48.525417
 20
105.794527
 30
0.0
 10
-47.932813
 20
105.574020
 30
0.0
 10
-47.271302
 20
105.374187
 30
0.0
 10
-46.540884
 20
105.195027
 30
0.0
  0
SPLINE
  5
1ed
100
AcDbEntity
  8
Ebene_1
 62
7
100
AcDbSpline
 70
8
 71
3
 72
8
 73
4
 74
0
 40
0
 40
0
 40
0
 40
0
 40
1
 40
1
 40
1
 40
1
 10
-46.540884
 20
105.195027
 30
0.0
 10
-45.934499
 20
105.043433
 30
0.0
 10
-45.445256
 20
104.898730
 30
0.0
 10
-45.073156
 20
104.760917
 30
0.0
  0
SPLINE
  5
1ee
100
AcDbEntity
  8
Ebene_1
 62
7
100
AcDbSpline
 70
8
 71
3
 72
8
 73
4
 74
0
 40
0
 40
0
 40
0
 40
0
 40
1
 40
1
 40
1
 40
1
 10
-45.073156
 20
104.760917
 30
0.0
 10
-44.687275
 20
104.623097
 30
0.0
 10
-44.390973
 20
104.485280
 30
0.0
 10
-44.184251
 20
104.347467
 30
0.0
  0
SPLINE
  5
1ef
100
AcDbEntity
  8
Ebene_1
 62
7
100
AcDbSpline
 70
8
 71
3
 72
8
 73
4
 74
0
 40
0
 40
0
 40
0
 40
0
 40
1
 40
1
 40
1
 40
1
 10
-44.184251
 20
104.347467
 30
0.0
 10
-43.963747
 20
104.209653
 30
0.0
 10
-43.819041
 20
104.058057
 30
0.0
 10
-43.750134
 20
103.892677
 30
0.0
  0
SPLINE
  5
1f0
100
AcDbEntity
  8
Ebene_1
 62
7
100
AcDbSpline
 70
8
 71
3
 72
8
 73
4
 74
0
 40
0
 40
0
 40
0
 40
0
 40
1
 40
1
 40
1
 40
1
 10
-43.750134
 20
103.892677
 30
0.0
 10
-43.667445
 20
103.741083
 30
0.0
 10
-43.626101
 20
103.561923
 30
0.0
 10
-43.626101
 20
103.355197
 30
0.0
  0
LWPOLYLINE
  5
1f1
100
AcDbEntity
  8
Ebene_1
 62
7
100
AcDbPolyline
 90
2
 70
0
 10
-51.336839
 20
109.660187
 30
0.0
 10
-51.336839
 20
109.618887
 30
0.0
  0
SPLINE
  5
1f2
100
AcDbEntity
  8
Ebene_1
 62
7
100
AcDbSpline
 70
8
 71
3
 72
8
 73
4
 74
0
 40
0
 40
0
 40
0
 40
0
 40
1
 40
1
 40
1
 40
1
 10
-43.626101
 20
103.313897
 30
0.0
 10
-43.626101
 20
102.886670
 30
0.0
 10
-43.812151
 20
102.549023
 30
0.0
 10
-44.184251
 20
102.300957
 30
0.0
  0
SPLINE
  5
1f3
100
AcDbEntity
  8
Ebene_1
 62
7
100
AcDbSpline
 70
8
 71
3
 72
8
 73
4
 74
0
 40
0
 40
0
 40
0
 40
0
 40
1
 40
1
 40
1
 40
1
 10
-44.184251
 20
102.300957
 30
0.0
 10
-44.542569
 20
102.066670
 30
0.0
 10
-45.052484
 20
101.949527
 30
0.0
 10
-45.713995
 20
101.949527
 30
0.0
  0
SPLINE
  5
1f4
100
AcDbEntity
  8
Ebene_1
 62
7
100
AcDbSpline
 70
8
 71
3
 72
8
 73
4
 74
0
 40
0
 40
0
 40
0
 40
0
 40
1
 40
1
 40
1
 40
1
 10
-45.713995
 20
101.949527
 30
0.0
 10
-46.540884
 20
101.949527
 30
0.0
 10
-47.305756
 20
102.108013
 30
0.0
 10
-48.008611
 20
102.424987
 30
0.0
  0
SPLINE
  5
1f5
100
AcDbEntity
  8
Ebene_1
 62
7
100
AcDbSpline
 70
8
 71
3
 72
8
 73
4
 74
0
 40
0
 40
0
 40
0
 40
0
 40
1
 40
1
 40
1
 40
1
 10
-48.008611
 20
102.424987
 30
0.0
 10
-48.697685
 20
102.741967
 30
0.0
 10
-49.372978
 20
103.169193
 30
0.0
 10
-50.034489
 20
103.706667
 30
0.0
  0
LWPOLYLINE
  5
1f6
100
AcDbEntity
  8
Ebene_1
 62
7
100
AcDbPolyline
 90
2
 70
0
 10
-43.626101
 20
103.355197
 30
0.0
 10
-43.626101
 20
103.313897
 30
0.0
  0
SPLINE
  5
1f7
100
AcDbEntity
  8
Ebene_1
 62
7
100
AcDbSpline
 70
8
 71
3
 72
8
 73
4
 74
0
 40
0
 40
0
 40
0
 40
0
 40
1
 40
1
 40
1
 40
1
 10
-51.915661
 20
101.453397
 30
0.0
 10
-51.047428
 20
100.667850
 30
0.0
 10
-50.082724
 20
100.082137
 30
0.0
 10
-49.021550
 20
99.696257
 30
0.0
  0
SPLINE
  5
1f8
100
AcDbEntity
  8
Ebene_1
 62
7
100
AcDbSpline
 70
8
 71
3
 72
8
 73
4
 74
0
 40
0
 40
0
 40
0
 40
0
 40
1
 40
1
 40
1
 40
1
 10
-49.021550
 20
99.696257
 30
0.0
 10
-47.960376
 20
99.324157
 30
0.0
 10
-46.878530
 20
99.138107
 30
0.0
 10
-45.776011
 20
99.138107
 30
0.0
  0
SPLINE
  5
1f9
100
AcDbEntity
  8
Ebene_1
 62
7
100
AcDbSpline
 70
8
 71
3
 72
8
 73
4
 74
0
 40
0
 40
0
 40
0
 40
0
 40
1
 40
1
 40
1
 40
1
 10
-45.776011
 20
99.138107
 30
0.0
 10
-44.990467
 20
99.138107
 30
0.0
 10
-44.273830
 20
99.234577
 30
0.0
 10
-43.626101
 20
99.427517
 30
0.0
  0
SPLINE
  5
1fa
100
AcDbEntity
  8
Ebene_1
 62
7
100
AcDbSpline
 70
8
 71
3
 72
8
 73
4
 74
0
 40
0
 40
0
 40
0
 40
0
 40
1
 40
1
 40
1
 40
1
 10
-43.626101
 20
99.427517
 30
0.0
 10
-42.978371
 20
99.634243
 30
0.0
 10
-42.420221
 20
99.923657
 30
0.0
 10
-41.951651
 20
100.295757
 30
0.0
  0
SPLINE
  5
1fb
100
AcDbEntity
  8
Ebene_1
 62
7
100
AcDbSpline
 70
8
 71
3
 72
8
 73
4
 74
0
 40
0
 40
0
 40
0
 40
0
 40
1
 40
1
 40
1
 40
1
 10
-41.951651
 20
100.295757
 30
0.0
 10
-41.483080
 20
100.681637
 30
0.0
 10
-41.117871
 20
101.150207
 30
0.0
 10
-40.856023
 20
101.701467
 30
0.0
  0
SPLINE
  5
1fc
100
AcDbEntity
  8
Ebene_1
 62
7
100
AcDbSpline
 70
8
 71
3
 72
8
 73
4
 74
0
 40
0
 40
0
 40
0
 40
0
 40
1
 40
1
 40
1
 40
1
 10
-40.856023
 20
101.701467
 30
0.0
 10
-40.594175
 20
102.266507
 30
0.0
 10
-40.463251
 20
102.907343
 30
0.0
 10
-40.463251
 20
103.623977
 30
0.0
  0
LWPOLYLINE
  5
1fd
100
AcDbEntity
  8
Ebene_1
 62
7
100
AcDbPolyline
 90
2
 70
0
 10
-50.034489
 20
103.706667
 30
0.0
 10
-51.915661
 20
101.453397
 30
0.0
  0
LWPOLYLINE
  5
1fe
100
AcDbEntity
  8
Ebene_1
 62
7
100
AcDbPolyline
 90
1
 70
1
 10
-40.463251
 20
103.623977
 30
0.0
  0
SPLINE
  5
1ff
100
AcDbEntity
  8
Ebene_1
 62
7
100
AcDbSpline
 70
8
 71
3
 72
8
 73
4
 74
0
 40
0
 40
0
 40
0
 40
0
 40
1
 40
1
 40
1
 40
1
 10
-107.265050
 20
85.949197
 30
0.0
 10
-107.265050
 20
86.982810
 30
0.0
 10
-107.457990
 20
87.947517
 30
0.0
 10
-107.843870
 20
88.843317
 30
0.0
  0
SPLINE
  5
200
100
AcDbEntity
  8
Ebene_1
 62
7
100
AcDbSpline
 70
8
 71
3
 72
8
 73
4
 74
0
 40
0
 40
0
 40
0
 40
0
 40
1
 40
1
 40
1
 40
1
 10
-107.843870
 20
88.843317
 30
0.0
 10
-108.215970
 20
89.752890
 30
0.0
 10
-108.746557
 20
90.538433
 30
0.0
 10
-109.435630
 20
91.199947
 30
0.0
  0
SPLINE
  5
201
100
AcDbEntity
  8
Ebene_1
 62
7
100
AcDbSpline
 70
8
 71
3
 72
8
 73
4
 74
0
 40
0
 40
0
 40
0
 40
0
 40
1
 40
1
 40
1
 40
1
 10
-109.435630
 20
91.199947
 30
0.0
 10
-110.110923
 20
91.875240
 30
0.0
 10
-110.917140
 20
92.405827
 30
0.0
 10
-111.854280
 20
92.791707
 30
0.0
  0
SPLINE
  5
202
100
AcDbEntity
  8
Ebene_1
 62
7
100
AcDbSpline
 70
8
 71
3
 72
8
 73
4
 74
0
 40
0
 40
0
 40
0
 40
0
 40
1
 40
1
 40
1
 40
1
 10
-111.854280
 20
92.791707
 30
0.0
 10
-112.791420
 20
93.191367
 30
0.0
 10
-113.818140
 20
93.391197
 30
0.0
 10
-114.934440
 20
93.391197
 30
0.0
  0
SPLINE
  5
203
100
AcDbEntity
  8
Ebene_1
 62
7
100
AcDbSpline
 70
8
 71
3
 72
8
 73
4
 74
0
 40
0
 40
0
 40
0
 40
0
 40
1
 40
1
 40
1
 40
1
 10
-114.934440
 20
93.391197
 30
0.0
 10
-116.050740
 20
93.391197
 30
0.0
 10
-117.084353
 20
93.191367
 30
0.0
 10
-118.035280
 20
92.791707
 30
0.0
  0
SPLINE
  5
204
100
AcDbEntity
  8
Ebene_1
 62
7
100
AcDbSpline
 70
8
 71
3
 72
8
 73
4
 74
0
 40
0
 40
0
 40
0
 40
0
 40
1
 40
1
 40
1
 40
1
 10
-118.035280
 20
92.791707
 30
0.0
 10
-118.972420
 20
92.405827
 30
0.0
 10
-119.785527
 20
91.868350
 30
0.0
 10
-120.474600
 20
91.179277
 30
0.0
  0
SPLINE
  5
205
100
AcDbEntity
  8
Ebene_1
 62
7
100
AcDbSpline
 70
8
 71
3
 72
8
 73
4
 74
0
 40
0
 40
0
 40
0
 40
0
 40
1
 40
1
 40
1
 40
1
 10
-120.474600
 20
91.179277
 30
0.0
 10
-121.149893
 20
90.503983
 30
0.0
 10
-121.680480
 20
89.711547
 30
0.0
 10
-122.066360
 20
88.801967
 30
0.0
  0
SPLINE
  5
206
100
AcDbEntity
  8
Ebene_1
 62
7
100
AcDbSpline
 70
8
 71
3
 72
8
 73
4
 74
0
 40
0
 40
0
 40
0
 40
0
 40
1
 40
1
 40
1
 40
1
 10
-122.066360
 20
88.801967
 30
0.0
 10
-122.452240
 20
87.906173
 30
0.0
 10
-122.645180
 20
86.941470
 30
0.0
 10
-122.645180
 20
85.907857
 30
0.0
  0
LWPOLYLINE
  5
207
100
AcDbEntity
  8
Ebene_1
 62
7
100
AcDbPolyline
 90
2
 70
0
 10
-107.265050
 20
85.907897
 30
0.0
 10
-107.265050
 20
85.949197
 30
0.0
  0
SPLINE
  5
208
100
AcDbEntity
  8
Ebene_1
 62
7
100
AcDbSpline
 70
8
 71
3
 72
8
 73
4
 74
0
 40
0
 40
0
 40
0
 40
0
 40
1
 40
1
 40
1
 40
1
 10
-122.645180
 20
85.866557
 30
0.0
 10
-122.645180
 20
84.832943
 30
0.0
 10
-122.459130
 20
83.861347
 30
0.0
 10
-122.087030
 20
82.951767
 30
0.0
  0
SPLINE
  5
209
100
AcDbEntity
  8
Ebene_1
 62
7
100
AcDbSpline
 70
8
 71
3
 72
8
 73
4
 74
0
 40
0
 40
0
 40
0
 40
0
 40
1
 40
1
 40
1
 40
1
 10
-122.087030
 20
82.951767
 30
0.0
 10
-121.701150
 20
82.055973
 30
0.0
 10
-121.170563
 20
81.270430
 30
0.0
 10
-120.495270
 20
80.595137
 30
0.0
  0
SPLINE
  5
20a
100
AcDbEntity
  8
Ebene_1
 62
7
100
AcDbSpline
 70
8
 71
3
 72
8
 73
4
 74
0
 40
0
 40
0
 40
0
 40
0
 40
1
 40
1
 40
1
 40
1
 10
-120.495270
 20
80.595137
 30
0.0
 10
-119.806197
 20
79.933623
 30
0.0
 10
-118.993090
 20
79.403037
 30
0.0
 10
-118.055950
 20
79.003377
 30
0.0
  0
SPLINE
  5
20b
100
AcDbEntity
  8
Ebene_1
 62
7
100
AcDbSpline
 70
8
 71
3
 72
8
 73
4
 74
0
 40
0
 40
0
 40
0
 40
0
 40
1
 40
1
 40
1
 40
1
 10
-118.055950
 20
79.003377
 30
0.0
 10
-117.118810
 20
78.617497
 30
0.0
 10
-116.092090
 20
78.424557
 30
0.0
 10
-114.975790
 20
78.424557
 30
0.0
  0
SPLINE
  5
20c
100
AcDbEntity
  8
Ebene_1
 62
7
100
AcDbSpline
 70
8
 71
3
 72
8
 73
4
 74
0
 40
0
 40
0
 40
0
 40
0
 40
1
 40
1
 40
1
 40
1
 10
-114.975790
 20
78.424557
 30
0.0
 10
-113.859490
 20
78.424557
 30
0.0
 10
-112.832770
 20
78.617497
 30
0.0
 10
-111.895630
 20
79.003377
 30
0.0
  0
SPLINE
  5
20d
100
AcDbEntity
  8
Ebene_1
 62
7
100
AcDbSpline
 70
8
 71
3
 72
8
 73
4
 74
0
 40
0
 40
0
 40
0
 40
0
 40
1
 40
1
 40
1
 40
1
 10
-111.895630
 20
79.003377
 30
0.0
 10
-110.944703
 20
79.403037
 30
0.0
 10
-110.131593
 20
79.940513
 30
0.0
 10
-109.456300
 20
80.615807
 30
0.0
  0
SPLINE
  5
20e
100
AcDbEntity
  8
Ebene_1
 62
7
100
AcDbSpline
 70
8
 71
3
 72
8
 73
4
 74
0
 40
0
 40
0
 40
0
 40
0
 40
1
 40
1
 40
1
 40
1
 10
-109.456300
 20
80.615807
 30
0.0
 10
-108.767227
 20
81.304880
 30
0.0
 10
-108.229750
 20
82.097317
 30
0.0
 10
-107.843870
 20
82.993117
 30
0.0
  0
SPLINE
  5
20f
100
AcDbEntity
  8
Ebene_1
 62
7
100
AcDbSpline
 70
8
 71
3
 72
8
 73
4
 74
0
 40
0
 40
0
 40
0
 40
0
 40
1
 40
1
 40
1
 40
1
 10
-107.843870
 20
82.993117
 30
0.0
 10
-107.457990
 20
83.902690
 30
0.0
 10
-107.265050
 20
84.874283
 30
0.0
 10
-107.265050
 20
85.907897
 30
0.0
  0
LWPOLYLINE
  5
210
100
AcDbEntity
  8
Ebene_1
 62
7
100
AcDbPolyline
 90
2
 70
0
 10
-122.645180
 20
85.907857
 30
0.0
 10
-122.645180
 20
85.866557
 30
0.0
  0
SPLINE
  5
211
100
AcDbEntity
  8
Ebene_1
 62
7
100
AcDbSpline
 70
8
 71
3
 72
8
 73
4
 74
0
 40
0
 40
0
 40
0
 40
0
 40
1
 40
1
 40
1
 40
1
 10
-110.593280
 20
85.866597
 30
0.0
 10
-110.593280
 20
85.246430
 30
0.0
 10
-110.703530
 20
84.660717
 30
0.0
 10
-110.924030
 20
84.109457
 30
0.0
  0
SPLINE
  5
212
100
AcDbEntity
  8
Ebene_1
 62
7
100
AcDbSpline
 70
8
 71
3
 72
8
 73
4
 74
0
 40
0
 40
0
 40
0
 40
0
 40
1
 40
1
 40
1
 40
1
 10
-110.924030
 20
84.109457
 30
0.0
 10
-111.130757
 20
83.571977
 30
0.0
 10
-111.427060
 20
83.096513
 30
0.0
 10
-111.812940
 20
82.683067
 30
0.0
  0
SPLINE
  5
213
100
AcDbEntity
  8
Ebene_1
 62
7
100
AcDbSpline
 70
8
 71
3
 72
8
 73
4
 74
0
 40
0
 40
0
 40
0
 40
0
 40
1
 40
1
 40
1
 40
1
 10
-111.812940
 20
82.683067
 30
0.0
 10
-112.185040
 20
82.269627
 30
0.0
 10
-112.639827
 20
81.945763
 30
0.0
 10
-113.177300
 20
81.711477
 30
0.0
  0
SPLINE
  5
214
100
AcDbEntity
  8
Ebene_1
 62
7
100
AcDbSpline
 70
8
 71
3
 72
8
 73
4
 74
0
 40
0
 40
0
 40
0
 40
0
 40
1
 40
1
 40
1
 40
1
 10
-113.177300
 20
81.711477
 30
0.0
 10
-113.714780
 20
81.477190
 30
0.0
 10
-114.300493
 20
81.360047
 30
0.0
 10
-114.934440
 20
81.360047
 30
0.0
  0
SPLINE
  5
215
100
AcDbEntity
  8
Ebene_1
 62
7
100
AcDbSpline
 70
8
 71
3
 72
8
 73
4
 74
0
 40
0
 40
0
 40
0
 40
0
 40
1
 40
1
 40
1
 40
1
 10
-114.934440
 20
81.360047
 30
0.0
 10
-115.582173
 20
81.360047
 30
0.0
 10
-116.174777
 20
81.477190
 30
0.0
 10
-116.712250
 20
81.711477
 30
0.0
  0
SPLINE
  5
216
100
AcDbEntity
  8
Ebene_1
 62
7
100
AcDbSpline
 70
8
 71
3
 72
8
 73
4
 74
0
 40
0
 40
0
 40
0
 40
0
 40
1
 40
1
 40
1
 40
1
 10
-116.712250
 20
81.711477
 30
0.0
 10
-117.235950
 20
81.959543
 30
0.0
 10
-117.697630
 20
82.290300
 30
0.0
 10
-118.097290
 20
82.703747
 30
0.0
  0
SPLINE
  5
217
100
AcDbEntity
  8
Ebene_1
 62
7
100
AcDbSpline
 70
8
 71
3
 72
8
 73
4
 74
0
 40
0
 40
0
 40
0
 40
0
 40
1
 40
1
 40
1
 40
1
 10
-118.097290
 20
82.703747
 30
0.0
 10
-118.483170
 20
83.117187
 30
0.0
 10
-118.786363
 20
83.599537
 30
0.0
 10
-119.006870
 20
84.150797
 30
0.0
  0
SPLINE
  5
218
100
AcDbEntity
  8
Ebene_1
 62
7
100
AcDbSpline
 70
8
 71
3
 72
8
 73
4
 74
0
 40
0
 40
0
 40
0
 40
0
 40
1
 40
1
 40
1
 40
1
 10
-119.006870
 20
84.150797
 30
0.0
 10
-119.213590
 20
84.702057
 30
0.0
 10
-119.316950
 20
85.287770
 30
0.0
 10
-119.316950
 20
85.907937
 30
0.0
  0
LWPOLYLINE
  5
219
100
AcDbEntity
  8
Ebene_1
 62
7
100
AcDbPolyline
 90
1
 70
1
 10
-107.265050
 20
85.907897
 30
0.0
  0
SPLINE
  5
21a
100
AcDbEntity
  8
Ebene_1
 62
7
100
AcDbSpline
 70
8
 71
3
 72
8
 73
4
 74
0
 40
0
 40
0
 40
0
 40
0
 40
1
 40
1
 40
1
 40
1
 10
-119.316950
 20
85.949237
 30
0.0
 10
-119.316950
 20
86.569403
 30
0.0
 10
-119.213590
 20
87.148227
 30
0.0
 10
-119.006870
 20
87.685707
 30
0.0
  0
SPLINE
  5
21b
100
AcDbEntity
  8
Ebene_1
 62
7
100
AcDbSpline
 70
8
 71
3
 72
8
 73
4
 74
0
 40
0
 40
0
 40
0
 40
0
 40
1
 40
1
 40
1
 40
1
 10
-119.006870
 20
87.685707
 30
0.0
 10
-118.786363
 20
88.236967
 30
0.0
 10
-118.490060
 20
88.719320
 30
0.0
 10
-118.117960
 20
89.132767
 30
0.0
  0
SPLINE
  5
21c
100
AcDbEntity
  8
Ebene_1
 62
7
100
AcDbSpline
 70
8
 71
3
 72
8
 73
4
 74
0
 40
0
 40
0
 40
0
 40
0
 40
1
 40
1
 40
1
 40
1
 10
-118.117960
 20
89.132767
 30
0.0
 10
-117.732080
 20
89.546207
 30
0.0
 10
-117.277293
 20
89.870070
 30
0.0
 10
-116.753600
 20
90.104357
 30
0.0
  0
SPLINE
  5
21d
100
AcDbEntity
  8
Ebene_1
 62
7
100
AcDbSpline
 70
8
 71
3
 72
8
 73
4
 74
0
 40
0
 40
0
 40
0
 40
0
 40
1
 40
1
 40
1
 40
1
 10
-116.753600
 20
90.104357
 30
0.0
 10
-116.216120
 20
90.338643
 30
0.0
 10
-115.623517
 20
90.455787
 30
0.0
 10
-114.975790
 20
90.455787
 30
0.0
  0
SPLINE
  5
21e
100
AcDbEntity
  8
Ebene_1
 62
7
100
AcDbSpline
 70
8
 71
3
 72
8
 73
4
 74
0
 40
0
 40
0
 40
0
 40
0
 40
1
 40
1
 40
1
 40
1
 10
-114.975790
 20
90.455787
 30
0.0
 10
-114.341843
 20
90.455787
 30
0.0
 10
-113.756130
 20
90.331753
 30
0.0
 10
-113.218650
 20
90.083687
 30
0.0
  0
SPLINE
  5
21f
100
AcDbEntity
  8
Ebene_1
 62
7
100
AcDbSpline
 70
8
 71
3
 72
8
 73
4
 74
0
 40
0
 40
0
 40
0
 40
0
 40
1
 40
1
 40
1
 40
1
 10
-113.218650
 20
90.083687
 30
0.0
 10
-112.681170
 20
89.849400
 30
0.0
 10
-112.219490
 20
89.525533
 30
0.0
 10
-111.833610
 20
89.112087
 30
0.0
  0
SPLINE
  5
220
100
AcDbEntity
  8
Ebene_1
 62
7
100
AcDbSpline
 70
8
 71
3
 72
8
 73
4
 74
0
 40
0
 40
0
 40
0
 40
0
 40
1
 40
1
 40
1
 40
1
 10
-111.833610
 20
89.112087
 30
0.0
 10
-111.433950
 20
88.698647
 30
0.0
 10
-111.130757
 20
88.216297
 30
0.0
 10
-110.924030
 20
87.665037
 30
0.0
  0
SPLINE
  5
221
100
AcDbEntity
  8
Ebene_1
 62
7
100
AcDbSpline
 70
8
 71
3
 72
8
 73
4
 74
0
 40
0
 40
0
 40
0
 40
0
 40
1
 40
1
 40
1
 40
1
 10
-110.924030
 20
87.665037
 30
0.0
 10
-110.703530
 20
87.113777
 30
0.0
 10
-110.593280
 20
86.528063
 30
0.0
 10
-110.593280
 20
85.907897
 30
0.0
  0
LWPOLYLINE
  5
222
100
AcDbEntity
  8
Ebene_1
 62
7
100
AcDbPolyline
 90
2
 70
0
 10
-119.316950
 20
85.907937
 30
0.0
 10
-119.316950
 20
85.949237
 30
0.0
  0
LWPOLYLINE
  5
223
100
AcDbEntity
  8
Ebene_1
 62
7
100
AcDbPolyline
 90
2
 70
0
 10
-110.593280
 20
85.907897
 30
0.0
 10
-110.593280
 20
85.866597
 30
0.0
  0
LWPOLYLINE
  5
224
100
AcDbEntity
  8
Ebene_1
 62
7
100
AcDbPolyline
 90
10
 70
1
 10
-91.582909
 20
78.672617
 30
0.0
 10
-91.582909
 20
93.143177
 30
0.0
 10
-94.725086
 20
93.143177
 30
0.0
 10
-94.725086
 20
84.233447
 30
0.0
 10
-101.505570
 20
93.143177
 30
0.0
 10
-104.441030
 20
93.143177
 30
0.0
 10
-104.441030
 20
78.672617
 30
0.0
 10
-101.298850
 20
78.672617
 30
0.0
 10
-101.298850
 20
87.871757
 30
0.0
 10
-94.290970
 20
78.672617
 30
0.0
  0
LWPOLYLINE
  5
225
100
AcDbEntity
  8
Ebene_1
 62
7
100
AcDbPolyline
 90
6
 70
1
 10
-77.731231
 20
78.672617
 30
0.0
 10
-77.731231
 20
81.566727
 30
0.0
 10
-84.945836
 20
81.566727
 30
0.0
 10
-84.945836
 20
93.143177
 30
0.0
 10
-88.129358
 20
93.143177
 30
0.0
 10
-88.129358
 20
78.672617
 30
0.0
  0
LWPOLYLINE
  5
226
100
AcDbEntity
  8
Ebene_1
 62
7
100
AcDbPolyline
 90
9
 70
1
 10
-62.513570
 20
93.143177
 30
0.0
 10
-66.131208
 20
93.143177
 30
0.0
 10
-69.645486
 20
87.334277
 30
0.0
 10
-73.097747
 20
93.143177
 30
0.0
 10
-76.818746
 20
93.143177
 30
0.0
 10
-71.257919
 20
84.378157
 30
0.0
 10
-71.257919
 20
78.672617
 30
0.0
 10
-68.074397
 20
78.672617
 30
0.0
 10
-68.074397
 20
84.440167
 30
0.0
  0
ENDSEC
  0
SECTION
  2
OBJECTS
  0
DICTIONARY
  5
C
330
0
100
AcDbDictionary
  3
ACAD_GROUP
350
D
  3
ACAD_MLINESTYLE
350
17
  0
DICTIONARY
  5
D
330
C
100
AcDbDictionary
  0
DICTIONARY
  5
1A
330
C
100
AcDbDictionary
  0
DICTIONARY
  5
17
330
C
100
AcDbDictionary
  3
STANDARD
350
18
  0
DICTIONARY
  5
19
330
C
100
AcDbDictionary
  0
ENDSEC
  0
EOF
