<?xml version="1.0" encoding="UTF-8" standalone="no"?>
<!-- Created with Inkscape (http://www.inkscape.org/) -->

<svg
   xmlns:dc="http://purl.org/dc/elements/1.1/"
   xmlns:cc="http://creativecommons.org/ns#"
   xmlns:rdf="http://www.w3.org/1999/02/22-rdf-syntax-ns#"
   xmlns:svg="http://www.w3.org/2000/svg"
   xmlns="http://www.w3.org/2000/svg"
   xmlns:sodipodi="http://sodipodi.sourceforge.net/DTD/sodipodi-0.dtd"
   xmlns:inkscape="http://www.inkscape.org/namespaces/inkscape"
   width="210mm"
   height="297mm"
   viewBox="0 0 210 297"
   version="1.1"
   id="svg1178"
   inkscape:version="0.92.4 (5da689c313, 2019-01-14)"
   sodipodi:docname="ElectricVehiclesOnly.svg">
  <defs
     id="defs1172" />
  <sodipodi:namedview
     id="base"
     pagecolor="#ffffff"
     bordercolor="#666666"
     borderopacity="1.0"
     inkscape:pageopacity="0.0"
     inkscape:pageshadow="2"
     inkscape:zoom="0.49497475"
     inkscape:cx="-818.84702"
     inkscape:cy="-38.78009"
     inkscape:document-units="mm"
     inkscape:current-layer="layer1"
     showgrid="true"
     inkscape:window-width="1920"
     inkscape:window-height="1137"
     inkscape:window-x="-8"
     inkscape:window-y="-8"
     inkscape:window-maximized="1">
    <inkscape:grid
       type="xygrid"
       id="grid1839" />
  </sodipodi:namedview>
  <metadata
     id="metadata1175">
    <rdf:RDF>
      <cc:Work
         rdf:about="">
        <dc:format>image/svg+xml</dc:format>
        <dc:type
           rdf:resource="http://purl.org/dc/dcmitype/StillImage" />
        <dc:title></dc:title>
      </cc:Work>
    </rdf:RDF>
  </metadata>
  <g
     inkscape:label="Ebene 1"
     inkscape:groupmode="layer"
     id="layer1">
    <path
       inkscape:connector-curvature="0"
       style="opacity:1;fill:none;fill-opacity:1;stroke:#000000;stroke-width:0.40000001;stroke-linejoin:round;stroke-miterlimit:4;stroke-dasharray:none;stroke-opacity:1;paint-order:markers fill stroke"
       d="M -305.52617,290.38334 V 70.78333 H -5.9262124 v 219.60001 z"
       id="rect867-2-4-6" />
    <path
       style="color:#000000;font-style:normal;font-variant:normal;font-weight:normal;font-stretch:normal;font-size:medium;line-height:normal;font-family:sans-serif;font-variant-ligatures:normal;font-variant-position:normal;font-variant-caps:normal;font-variant-numeric:normal;font-variant-alternates:normal;font-feature-settings:normal;text-indent:0;text-align:start;text-decoration:none;text-decoration-line:none;text-decoration-style:solid;text-decoration-color:#000000;letter-spacing:normal;word-spacing:normal;text-transform:none;writing-mode:lr-tb;direction:ltr;text-orientation:mixed;dominant-baseline:auto;baseline-shift:baseline;text-anchor:start;white-space:normal;shape-padding:0;clip-rule:nonzero;display:inline;overflow:visible;visibility:visible;opacity:1;isolation:auto;mix-blend-mode:normal;color-interpolation:sRGB;color-interpolation-filters:linearRGB;solid-color:#000000;solid-opacity:1;vector-effect:none;fill:#000000;fill-opacity:1;fill-rule:nonzero;stroke:none;stroke-width:7;stroke-linecap:butt;stroke-linejoin:round;stroke-miterlimit:4;stroke-dasharray:none;stroke-dashoffset:0;stroke-opacity:1;paint-order:markers fill stroke;color-rendering:auto;image-rendering:auto;shape-rendering:auto;text-rendering:auto;enable-background:accumulate"
       d="m -295.52617,243.62259 c 0,19.29457 15.6196,34.93523 34.8881,34.93523 h 209.845858 c 19.26859,0 34.88811,-15.64065 34.88811,-34.93523 v -126.0785 c 0,-19.29457 -15.61952,-34.93522 -34.88811,-34.93522 H -260.63807 c -19.2685,0 -34.8881,15.64065 -34.8881,34.93522 z m 6.8201,0 v -126.0785 c 0,-15.62928 12.4598,-28.10595 28.068,-28.10595 h 209.845858 c 15.60821,0 28.068,12.47667 28.068,28.10595 v 126.0785 c 0,15.62928 -12.45979,28.10596 -28.068,28.10596 H -260.63807 c -15.6082,0 -28.068,-12.47668 -28.068,-28.10596 z"
       id="rect875-4-8-1"
       inkscape:connector-curvature="0" />
    <path
       inkscape:connector-curvature="0"
       style="opacity:1;fill:none;fill-opacity:1;stroke:#000000;stroke-width:0.2;stroke-linejoin:round;stroke-miterlimit:4;stroke-dasharray:none;stroke-opacity:1;paint-order:markers fill stroke"
       d="m -37.734502,255.49703 a 2.5,2.5 0 0 1 2.49999,2.49998 2.5,2.5 0 0 1 -2.49999,2.5 2.5,2.5 0 0 1 -2.5,-2.5 2.5,2.5 0 0 1 2.5,-2.49998 z"
       id="path879-1-8-0" />
    <path
       inkscape:connector-curvature="0"
       style="opacity:1;fill:none;fill-opacity:1;stroke:#000000;stroke-width:0.2;stroke-linejoin:round;stroke-miterlimit:4;stroke-dasharray:none;stroke-opacity:1;paint-order:markers fill stroke"
       d="m -38.026202,100.58334 a 2.5,2.5 0 0 1 2.5001,2.5 2.5,2.5 0 0 1 -2.5001,2.5 2.5,2.5 0 0 1 -2.49992,-2.5 2.5,2.5 0 0 1 2.49992,-2.5 z"
       id="path881-4-5-0" />
    <path
       inkscape:connector-curvature="0"
       style="opacity:1;fill:none;fill-opacity:1;stroke:#000000;stroke-width:0.2;stroke-linejoin:round;stroke-miterlimit:4;stroke-dasharray:none;stroke-opacity:1;paint-order:markers fill stroke"
       d="m -273.11247,100.20536 a 2.5,2.5 0 0 1 2.5,2.5 2.5,2.5 0 0 1 -2.5,2.5 2.5,2.5 0 0 1 -2.5,-2.5 2.5,2.5 0 0 1 2.5,-2.5 z"
       id="path883-9-4-2" />
    <path
       inkscape:connector-curvature="0"
       style="opacity:1;fill:none;fill-opacity:1;stroke:#000000;stroke-width:0.2;stroke-linejoin:round;stroke-miterlimit:4;stroke-dasharray:none;stroke-opacity:1;paint-order:markers fill stroke"
       d="m -273.11247,255.20536 a 2.5,2.5 0 0 1 2.5,2.5 2.5,2.5 0 0 1 -2.5,2.5 2.5,2.5 0 0 1 -2.5,-2.5 2.5,2.5 0 0 1 2.5,-2.5 z"
       id="path885-0-2-2" />
    <path
       style="fill:#000000;stroke-width:0.99999994"
       d="m -207.93095,240.25851 c -0.20436,-1.07785 -17.79073,-99.26173 -17.79073,-99.32487 0,-0.0898 -5.19425,0.0415 -7.80512,0.19734 -7.76989,0.46335 -11.76615,1.82397 -13.69764,4.66371 -0.71212,1.04699 -1.00943,1.79352 -1.32025,3.31483 -0.12618,0.61813 -0.25258,1.1469 -0.28073,1.17503 -0.0945,0.0944 -3.32359,-1.43966 -4.9414,-2.34793 -4.83895,-2.71668 -8.63792,-5.86209 -11.22224,-9.2918 -0.37971,-0.50386 -0.69034,-0.95733 -0.69034,-1.00775 0,-0.0507 0.19659,-0.17302 0.43683,-0.27245 0.24029,-0.0995 1.27564,-0.54566 2.30081,-0.99164 11.74568,-5.10986 27.01328,-8.68159 40.71493,-9.52489 l 1.22317,-0.0753 6.56557,8.00039 c 3.61104,4.40015 6.60548,7.9562 6.65431,7.90235 0.0487,-0.0538 2.97963,-3.62081 6.51286,-7.92648 3.53325,-4.3057 6.4781,-7.86194 6.54405,-7.90273 0.1376,-0.085 3.07606,0.10437 5.64282,0.36394 10.82438,1.0942 21.69582,3.59897 31.57012,7.27376 2.33039,0.86725 6.07894,2.41521 7.05658,2.91393 l 0.45672,0.23301 -0.58914,0.80998 c -2.28955,3.14784 -5.87885,6.24127 -10.32386,8.89759 -1.22245,0.73054 -5.26923,2.76168 -5.82099,2.92162 -0.2277,0.066 -0.25824,0.0164 -0.33399,-0.54311 -0.0458,-0.3387 -0.21146,-1.06 -0.36801,-1.60288 -1.23282,-4.27512 -4.87539,-6.17351 -13.20153,-6.88005 -1.81297,-0.15384 -9.3528,-0.35131 -9.44755,-0.24738 -0.0486,0.0532 -14.60381,81.70428 -17.67564,99.15522 l -0.0922,0.5242 z M -150,133.2323 c -13.91343,-5.86793 -29.72073,-9.6019 -45.49129,-10.74584 -5.06671,-0.36753 -15.59281,-0.48788 -20.68985,-0.23657 -17.6636,0.87092 -33.91446,4.47068 -49.53246,10.97199 -1.07604,0.44789 -2.02336,0.78869 -2.10529,0.75728 -0.0821,-0.0315 -0.75554,-1.28119 -1.49696,-2.77728 -1.38729,-2.7991 -2.0338,-4.25317 -1.93499,-4.35199 0.10123,-0.10122 4.17423,-1.63984 6.56166,-2.4789 22.38131,-7.86588 46.28402,-11.12548 68.90667,-9.39684 16.92042,1.2929 32.86713,4.86211 49.09979,10.98952 1.20856,0.45623 2.21816,0.85023 2.24355,0.87563 0.13269,0.13268 -3.11306,6.90838 -3.44194,7.18526 -0.0442,0.0371 -0.99763,-0.31938 -2.11889,-0.79226 z"
       id="path2190-1-9-2"
       inkscape:connector-curvature="0"
       sodipodi:nodetypes="csscccccscsscscssssccsscccsccccsssccscsssccs" />
    <g
       aria-label="ELECTRIC
VEHICLES
ONLY"
       style="font-style:normal;font-variant:normal;font-weight:bold;font-stretch:normal;font-size:20.67222023px;line-height:1;font-family:Gotham;-inkscape-font-specification:'Gotham Bold';text-align:center;letter-spacing:0px;word-spacing:0px;text-anchor:middle;fill:#000000;fill-opacity:1;stroke:none;stroke-width:0.26458329"
       id="text2822-22-5-9-0"
       transform="translate(0,1.0583333)">
      <path
         d="m -133.39441,175.92461 v -2.8321 h -7.85545 v -3.03881 h 6.82184 v -2.8321 h -6.82184 v -2.93545 h 7.75209 v -2.8321 h -10.91494 v 14.47056 z"
         style="font-style:normal;font-variant:normal;font-weight:bold;font-stretch:normal;line-height:1;font-family:Gotham;-inkscape-font-specification:'Gotham Bold';text-align:center;text-anchor:middle;stroke-width:0.26458329"
         id="path840"
         inkscape:connector-curvature="0" />
      <path
         d="m -120.16581,175.92461 v -2.89411 h -7.2146 v -11.57645 h -3.18352 v 14.47056 z"
         style="font-style:normal;font-variant:normal;font-weight:bold;font-stretch:normal;line-height:1;font-family:Gotham;-inkscape-font-specification:'Gotham Bold';text-align:center;text-anchor:middle;stroke-width:0.26458329"
         id="path842"
         inkscape:connector-curvature="0" />
      <path
         d="m -106.74663,175.92461 v -2.8321 h -7.85544 v -3.03881 h 6.82183 v -2.8321 h -6.82183 v -2.93545 h 7.75208 v -2.8321 h -10.91493 v 14.47056 z"
         style="font-style:normal;font-variant:normal;font-weight:bold;font-stretch:normal;line-height:1;font-family:Gotham;-inkscape-font-specification:'Gotham Bold';text-align:center;text-anchor:middle;stroke-width:0.26458329"
         id="path844"
         inkscape:connector-curvature="0" />
      <path
         d="m -91.202732,173.58865 -2.025877,-2.04655 q -0.847561,0.78554 -1.715794,1.24033 -0.847561,0.45479 -2.087895,0.45479 -0.93025,0 -1.715794,-0.35143 -0.764872,-0.3721 -1.323018,-0.99227 -0.53748,-0.62016 -0.84757,-1.44705 -0.31008,-0.82689 -0.31008,-1.75714 v -0.0414 q 0,-0.93025 0.31008,-1.73646 0.31009,-0.82689 0.86824,-1.44706 0.558148,-0.62016 1.32302,-0.97159 0.785545,-0.35143 1.695122,-0.35143 1.095628,0 1.963861,0.43412 0.888906,0.43411 1.736467,1.19899 l 2.025877,-2.33596 q -0.496133,-0.49614 -1.074955,-0.90958 -0.578822,-0.41345 -1.261006,-0.70286 -0.682183,-0.28941 -1.529744,-0.45479 -0.826889,-0.16537 -1.839827,-0.16537 -1.67445,0 -3.059485,0.59949 -1.38504,0.57882 -2.37731,1.61243 -0.99227,1.01294 -1.55042,2.37731 -0.55815,1.34369 -0.55815,2.89411 v 0.0413 q 0,1.55042 0.55815,2.91479 0.55815,1.36436 1.55042,2.3773 0.99227,0.99227 2.35663,1.57109 1.36437,0.57882 2.956131,0.57882 1.054284,0 1.901845,-0.18605 0.847561,-0.16537 1.550416,-0.49613 0.723528,-0.35143 1.323022,-0.82689 0.599495,-0.47546 1.157644,-1.07495 z"
         style="font-style:normal;font-variant:normal;font-weight:bold;font-stretch:normal;line-height:1;font-family:Gotham;-inkscape-font-specification:'Gotham Bold';text-align:center;text-anchor:middle;stroke-width:0.26458329"
         id="path846"
         inkscape:connector-curvature="0" />
      <path
         d="m -77.697961,164.38951 v -2.93546 h -11.989887 v 2.93546 h 4.403182 v 11.5351 h 3.183522 v -11.5351 z"
         style="font-style:normal;font-variant:normal;font-weight:bold;font-stretch:normal;line-height:1;font-family:Gotham;-inkscape-font-specification:'Gotham Bold';text-align:center;text-anchor:middle;stroke-width:0.26458329"
         id="path848"
         inkscape:connector-curvature="0" />
      <path
         d="m -62.742896,175.92461 -3.53495,-5.16806 q 1.385039,-0.5168 2.2326,-1.61243 0.868233,-1.1163 0.868233,-2.87344 v -0.0413 q 0,-2.25328 -1.447055,-3.51428 -1.426384,-1.26101 -4.010411,-1.26101 h -6.615111 v 14.47056 h 3.183522 v -4.63058 h 2.501339 l 3.100833,4.63058 z m -3.658983,-9.48855 q 0,0.93025 -0.640839,1.4884 -0.620167,0.55815 -1.798483,0.55815 h -3.224867 v -4.15512 h 3.16285 q 1.178317,0 1.839828,0.51681 0.661511,0.5168 0.661511,1.55041 z"
         style="font-style:normal;font-variant:normal;font-weight:bold;font-stretch:normal;line-height:1;font-family:Gotham;-inkscape-font-specification:'Gotham Bold';text-align:center;text-anchor:middle;stroke-width:0.26458329"
         id="path850"
         inkscape:connector-curvature="0" />
      <path
         d="m -56.982458,175.92461 v -14.47056 h -3.183522 v 14.47056 z"
         style="font-style:normal;font-variant:normal;font-weight:bold;font-stretch:normal;line-height:1;font-family:Gotham;-inkscape-font-specification:'Gotham Bold';text-align:center;text-anchor:middle;stroke-width:0.26458329"
         id="path852"
         inkscape:connector-curvature="0" />
      <path
         d="m -40.652698,173.58865 -2.025878,-2.04655 q -0.847561,0.78554 -1.715794,1.24033 -0.847561,0.45479 -2.087894,0.45479 -0.93025,0 -1.715794,-0.35143 -0.764872,-0.3721 -1.323022,-0.99227 -0.537478,-0.62016 -0.847561,-1.44705 -0.310084,-0.82689 -0.310084,-1.75714 v -0.0414 q 0,-0.93025 0.310084,-1.73646 0.310083,-0.82689 0.868233,-1.44706 0.55815,-0.62016 1.323022,-0.97159 0.785544,-0.35143 1.695122,-0.35143 1.095628,0 1.963861,0.43412 0.888905,0.43411 1.736466,1.19899 l 2.025878,-2.33596 q -0.496133,-0.49614 -1.074955,-0.90958 -0.578823,-0.41345 -1.261006,-0.70286 -0.682183,-0.28941 -1.529744,-0.45479 -0.826889,-0.16537 -1.839828,-0.16537 -1.67445,0 -3.059488,0.59949 -1.385039,0.57882 -2.377306,1.61243 -0.992266,1.01294 -1.550416,2.37731 -0.55815,1.34369 -0.55815,2.89411 v 0.0413 q 0,1.55042 0.55815,2.91479 0.55815,1.36436 1.550416,2.3773 0.992267,0.99227 2.356633,1.57109 1.364367,0.57882 2.956128,0.57882 1.054283,0 1.901844,-0.18605 0.847561,-0.16537 1.550417,-0.49613 0.723527,-0.35143 1.323022,-0.82689 0.599494,-0.47546 1.157644,-1.07495 z"
         style="font-style:normal;font-variant:normal;font-weight:bold;font-stretch:normal;line-height:1;font-family:Gotham;-inkscape-font-specification:'Gotham Bold';text-align:center;text-anchor:middle;stroke-width:0.26458329"
         id="path854"
         inkscape:connector-curvature="0" />
      <path
         d="m -131.56508,182.12627 h -3.43159 l -3.78302,10.19141 -3.78301,-10.19141 h -3.51428 l 5.85024,14.57392 h 2.81142 z"
         style="font-style:normal;font-variant:normal;font-weight:bold;font-stretch:normal;line-height:1;font-family:Gotham;-inkscape-font-specification:'Gotham Bold';text-align:center;text-anchor:middle;stroke-width:0.26458329"
         id="path856"
         inkscape:connector-curvature="0" />
      <path
         d="m -118.31419,196.59683 v -2.8321 h -7.85544 v -3.03881 h 6.82183 v -2.8321 h -6.82183 v -2.93545 h 7.75208 v -2.8321 h -10.91493 v 14.47056 z"
         style="font-style:normal;font-variant:normal;font-weight:bold;font-stretch:normal;line-height:1;font-family:Gotham;-inkscape-font-specification:'Gotham Bold';text-align:center;text-anchor:middle;stroke-width:0.26458329"
         id="path858"
         inkscape:connector-curvature="0" />
      <path
         d="m -103.24575,196.59683 v -14.47056 h -3.18353 v 5.72621 h -5.87091 v -5.72621 h -3.18352 v 14.47056 h 3.18352 v -5.8089 h 5.87091 v 5.8089 z"
         style="font-style:normal;font-variant:normal;font-weight:bold;font-stretch:normal;line-height:1;font-family:Gotham;-inkscape-font-specification:'Gotham Bold';text-align:center;text-anchor:middle;stroke-width:0.26458329"
         id="path860"
         inkscape:connector-curvature="0" />
      <path
         d="m -96.449438,196.59683 v -14.47056 h -3.183522 v 14.47056 z"
         style="font-style:normal;font-variant:normal;font-weight:bold;font-stretch:normal;line-height:1;font-family:Gotham;-inkscape-font-specification:'Gotham Bold';text-align:center;text-anchor:middle;stroke-width:0.26458329"
         id="path862"
         inkscape:connector-curvature="0" />
      <path
         d="m -80.119677,194.26087 -2.025878,-2.04655 q -0.847561,0.78554 -1.715794,1.24033 -0.847561,0.45479 -2.087894,0.45479 -0.93025,0 -1.715795,-0.35143 -0.764872,-0.3721 -1.323022,-0.99227 -0.537478,-0.62016 -0.847561,-1.44705 -0.310083,-0.82689 -0.310083,-1.75714 v -0.0413 q 0,-0.93025 0.310083,-1.73647 0.310083,-0.82689 0.868233,-1.44706 0.55815,-0.62016 1.323022,-0.97159 0.785545,-0.35143 1.695123,-0.35143 1.095627,0 1.96386,0.43412 0.888906,0.43411 1.736467,1.19899 l 2.025878,-2.33596 q -0.496134,-0.49614 -1.074956,-0.90958 -0.578822,-0.41345 -1.261005,-0.70286 -0.682184,-0.28941 -1.529745,-0.45479 -0.826888,-0.16537 -1.839827,-0.16537 -1.67445,0 -3.059489,0.59949 -1.385039,0.57882 -2.377305,1.61243 -0.992267,1.01294 -1.550417,2.37731 -0.55815,1.34369 -0.55815,2.89411 v 0.0413 q 0,1.55042 0.55815,2.91479 0.55815,1.36436 1.550417,2.3773 0.992266,0.99227 2.356633,1.57109 1.364366,0.57882 2.956127,0.57882 1.054284,0 1.901845,-0.18605 0.847561,-0.16537 1.550416,-0.49613 0.723528,-0.35143 1.323022,-0.82689 0.599495,-0.47546 1.157645,-1.07495 z"
         style="font-style:normal;font-variant:normal;font-weight:bold;font-stretch:normal;line-height:1;font-family:Gotham;-inkscape-font-specification:'Gotham Bold';text-align:center;text-anchor:middle;stroke-width:0.26458329"
         id="path864"
         inkscape:connector-curvature="0" />
      <path
         d="m -67.173057,196.59683 v -2.89411 h -7.214604 v -11.57645 h -3.183522 v 14.47056 z"
         style="font-style:normal;font-variant:normal;font-weight:bold;font-stretch:normal;line-height:1;font-family:Gotham;-inkscape-font-specification:'Gotham Bold';text-align:center;text-anchor:middle;stroke-width:0.26458329"
         id="path866"
         inkscape:connector-curvature="0" />
      <path
         d="m -53.753879,196.59683 v -2.8321 h -7.855443 v -3.03881 h 6.821832 v -2.8321 h -6.821832 v -2.93545 h 7.752082 v -2.8321 h -10.914932 v 14.47056 z"
         style="font-style:normal;font-variant:normal;font-weight:bold;font-stretch:normal;line-height:1;font-family:Gotham;-inkscape-font-specification:'Gotham Bold';text-align:center;text-anchor:middle;stroke-width:0.26458329"
         id="path868"
         inkscape:connector-curvature="0" />
      <path
         d="m -40.463251,192.31768 v -0.0413 q 0,-0.95092 -0.310083,-1.6331 -0.289411,-0.68219 -0.888906,-1.17832 -0.578822,-0.5168 -1.447055,-0.86823 -0.847561,-0.3721 -1.943189,-0.66151 -0.93025,-0.24807 -1.550416,-0.43412 -0.599495,-0.18605 -0.950922,-0.39277 -0.351428,-0.20672 -0.496134,-0.45479 -0.124033,-0.26874 -0.124033,-0.62017 v -0.0413 q 0,-0.53748 0.454789,-0.88891 0.475461,-0.3721 1.405711,-0.3721 0.93025,0 1.8605,0.39277 0.93025,0.3721 1.901844,1.03362 l 1.653777,-2.39798 q -1.116299,-0.88891 -2.459994,-1.36437 -1.323022,-0.47546 -2.914783,-0.47546 -1.1163,0 -2.04655,0.31008 -0.930249,0.31009 -1.612433,0.88891 -0.661511,0.57882 -1.033611,1.38504 -0.3721,0.78554 -0.3721,1.77781 v 0.0413 q 0,1.07496 0.330756,1.79849 0.351428,0.72352 0.971594,1.21966 0.620167,0.47546 1.509072,0.80621 0.888906,0.33076 1.984533,0.5995 0.909578,0.22739 1.467728,0.43411 0.578822,0.20673 0.888905,0.41345 0.330756,0.20672 0.434117,0.45479 0.124033,0.22739 0.124033,0.53748 v 0.0413 q 0,0.64084 -0.55815,1.01294 -0.537477,0.35143 -1.529744,0.35143 -1.240333,0 -2.294616,-0.47546 -1.033611,-0.47547 -2.025878,-1.28168 l -1.881172,2.25327 q 1.30235,1.17832 2.894111,1.75714 1.591761,0.55815 3.245539,0.55815 1.178316,0 2.14991,-0.28941 0.971595,-0.31009 1.67445,-0.86824 0.702856,-0.57882 1.095628,-1.40571 0.392772,-0.84756 0.392772,-1.92251 z"
         style="font-style:normal;font-variant:normal;font-weight:bold;font-stretch:normal;line-height:1;font-family:Gotham;-inkscape-font-specification:'Gotham Bold';text-align:center;text-anchor:middle;stroke-width:0.26458329"
         id="path870"
         inkscape:connector-curvature="0" />
      <path
         d="m -107.26505,210.03377 v -0.0413 q 0,-1.55042 -0.57882,-2.89412 -0.55815,-1.36436 -1.59176,-2.35663 -1.01294,-1.01294 -2.41865,-1.59176 -1.40571,-0.59949 -3.08016,-0.59949 -1.67445,0 -3.10084,0.59949 -1.40571,0.57882 -2.43932,1.61243 -1.01294,1.01294 -1.59176,2.37731 -0.57882,1.34369 -0.57882,2.89411 v 0.0413 q 0,1.55042 0.55815,2.91479 0.57882,1.34369 1.59176,2.35663 1.03361,0.99227 2.43932,1.59176 1.40571,0.57882 3.08016,0.57882 1.67445,0 3.08016,-0.57882 1.42639,-0.59949 2.43933,-1.61243 1.03361,-1.03361 1.61243,-2.37731 0.57882,-1.36436 0.57882,-2.91478 z m -3.32823,0.0413 q 0,0.93025 -0.33075,1.75714 -0.31009,0.80622 -0.88891,1.42639 -0.55815,0.62016 -1.36436,0.97159 -0.80622,0.35143 -1.75714,0.35143 -0.9716,0 -1.77781,-0.35143 -0.78555,-0.3721 -1.38504,-0.99227 -0.57882,-0.62016 -0.90958,-1.44705 -0.31008,-0.82689 -0.31008,-1.75714 v -0.0413 q 0,-0.93025 0.31008,-1.73647 0.33076,-0.82689 0.88891,-1.44706 0.57882,-0.62016 1.36436,-0.97159 0.80622,-0.35143 1.77781,-0.35143 0.95092,0 1.75714,0.3721 0.80622,0.35143 1.38504,0.9716 0.59949,0.62016 0.90958,1.44705 0.33075,0.82689 0.33075,1.75714 z"
         style="font-style:normal;font-variant:normal;font-weight:bold;font-stretch:normal;line-height:1;font-family:Gotham;-inkscape-font-specification:'Gotham Bold';text-align:center;text-anchor:middle;stroke-width:0.26458329"
         id="path872"
         inkscape:connector-curvature="0" />
      <path
         d="m -91.582909,217.26905 v -14.47056 h -3.142177 v 8.90973 l -6.780484,-8.90973 h -2.93546 v 14.47056 h 3.14218 v -9.19914 l 7.00788,9.19914 z"
         style="font-style:normal;font-variant:normal;font-weight:bold;font-stretch:normal;line-height:1;font-family:Gotham;-inkscape-font-specification:'Gotham Bold';text-align:center;text-anchor:middle;stroke-width:0.26458329"
         id="path874"
         inkscape:connector-curvature="0" />
      <path
         d="m -77.731231,217.26905 v -2.89411 h -7.214605 v -11.57645 h -3.183522 v 14.47056 z"
         style="font-style:normal;font-variant:normal;font-weight:bold;font-stretch:normal;line-height:1;font-family:Gotham;-inkscape-font-specification:'Gotham Bold';text-align:center;text-anchor:middle;stroke-width:0.26458329"
         id="path876"
         inkscape:connector-curvature="0" />
      <path
         d="m -62.51357,202.79849 h -3.617638 l -3.514278,5.8089 -3.452261,-5.8089 h -3.720999 l 5.560827,8.76502 v 5.70554 h 3.183522 v -5.76755 z"
         style="font-style:normal;font-variant:normal;font-weight:bold;font-stretch:normal;line-height:1;font-family:Gotham;-inkscape-font-specification:'Gotham Bold';text-align:center;text-anchor:middle;stroke-width:0.26458329"
         id="path878"
         inkscape:connector-curvature="0" />
    </g>
    <flowRoot
       xml:space="preserve"
       id="flowRoot832"
       style="fill:black;fill-opacity:1;stroke:none;font-family:'Victorian LET';font-style:normal;font-weight:bold;font-size:40px;line-height:1.25;letter-spacing:0px;word-spacing:0px;-inkscape-font-specification:'Victorian LET Bold';font-stretch:normal;font-variant:normal"><flowRegion
         id="flowRegion834"><rect
           id="rect836"
           width="1436.2205"
           height="982.67719"
           x="-1322.8346"
           y="215.43307" /></flowRegion><flowPara
         id="flowPara838"></flowPara></flowRoot>  </g>
</svg>
