<?xml version="1.0" encoding="UTF-8" standalone="no"?>
<svg
   xmlns:dc="http://purl.org/dc/elements/1.1/"
   xmlns:cc="http://creativecommons.org/ns#"
   xmlns:rdf="http://www.w3.org/1999/02/22-rdf-syntax-ns#"
   xmlns:svg="http://www.w3.org/2000/svg"
   xmlns="http://www.w3.org/2000/svg"
   xmlns:sodipodi="http://sodipodi.sourceforge.net/DTD/sodipodi-0.dtd"
   xmlns:inkscape="http://www.inkscape.org/namespaces/inkscape"
   sodipodi:docname="Muskerati.svg"
   inkscape:version="0.92.4 (5da689c313, 2019-01-14)"
   id="svg8"
   version="1.1"
   viewBox="0 0 300 220"
   height="220mm"
   width="300mm">
  <defs
     id="defs2" />
  <sodipodi:namedview
     inkscape:window-maximized="1"
     inkscape:window-y="-8"
     inkscape:window-x="-8"
     inkscape:window-height="1137"
     inkscape:window-width="1920"
     showgrid="true"
     inkscape:document-rotation="0"
     inkscape:current-layer="layer1"
     inkscape:document-units="mm"
     inkscape:cy="1060.6018"
     inkscape:cx="1324.9254"
     inkscape:zoom="0.35"
     inkscape:pageshadow="2"
     inkscape:pageopacity="0.0"
     borderopacity="1.0"
     bordercolor="#666666"
     pagecolor="#ffffff"
     id="base">
    <inkscape:grid
       id="grid833"
       type="xygrid" />
  </sodipodi:namedview>
  <metadata
     id="metadata5">
    <rdf:RDF>
      <cc:Work
         rdf:about="">
        <dc:format>image/svg+xml</dc:format>
        <dc:type
           rdf:resource="http://purl.org/dc/dcmitype/StillImage" />
        <dc:title />
      </cc:Work>
    </rdf:RDF>
  </metadata>
  <g
     id="layer1"
     inkscape:groupmode="layer"
     inkscape:label="Ebene 1">
    <text
       id="text837"
       y="-330.905"
       x="147.82549"
       style="font-style:normal;font-variant:normal;font-weight:bold;font-stretch:normal;font-size:10.58329964px;line-height:1.25;font-family:'Victorian LET';-inkscape-font-specification:'Victorian LET Bold';letter-spacing:0px;word-spacing:0px;fill:#000000;fill-opacity:1;stroke:none;stroke-width:0.26458299"
       xml:space="preserve"><tspan
         style="stroke-width:0.26458299"
         y="-330.905"
         x="147.82549"
         id="tspan835"
         sodipodi:role="line">Smilenator</tspan></text>
    <text
       id="text841"
       y="-330.26797"
       x="8.1359386"
       style="font-style:normal;font-variant:normal;font-weight:bold;font-stretch:normal;font-size:18.42910194px;line-height:1.25;font-family:'Victorian LET';-inkscape-font-specification:'Victorian LET Bold';letter-spacing:0px;word-spacing:0px;fill:#000000;fill-opacity:1;stroke:none;stroke-width:0.26458299"
       xml:space="preserve"><tspan
         style="stroke-width:0.26458299"
         y="-330.26797"
         x="8.1359386"
         id="tspan839"
         sodipodi:role="line">Teslarati</tspan><tspan
         id="tspan843"
         style="stroke-width:0.26458299"
         y="-307.2316"
         x="8.1359386"
         sodipodi:role="line">Futesla</tspan><tspan
         id="tspan845"
         style="stroke-width:0.26458299"
         y="-284.19522"
         x="8.1359386"
         sodipodi:role="line">Futuresla</tspan><tspan
         id="tspan847"
         style="stroke-width:0.26458299"
         y="-261.15884"
         x="8.1359386"
         sodipodi:role="line">Teslafutura</tspan><tspan
         id="tspan849"
         style="stroke-width:0.26458299"
         y="-238.12247"
         x="8.1359386"
         sodipodi:role="line">Elonati</tspan><tspan
         id="tspan897"
         style="stroke-width:0.26458299"
         y="-215.08609"
         x="8.1359386"
         sodipodi:role="line">Muskerari</tspan><tspan
         id="tspan899"
         style="stroke-width:0.26458299"
         y="-192.04971"
         x="8.1359386"
         sodipodi:role="line">Terrari</tspan><tspan
         id="tspan901"
         style="stroke-width:0.26458299"
         y="-169.01334"
         x="8.1359386"
         sodipodi:role="line">Ferrari</tspan><tspan
         id="tspan895"
         style="stroke-width:0.26458299"
         y="-145.97696"
         x="8.1359386"
         sodipodi:role="line">Beam me up Tesla!</tspan><tspan
         id="tspan1071"
         style="stroke-width:0.26458299"
         y="-122.94057"
         x="8.1359386"
         sodipodi:role="line">Tesla</tspan></text>
    <path
       id="rect867-2-4-6"
       d="M 300,-160 V -379.60001 H 599.59996 V -160 Z"
       style="opacity:1;fill:none;fill-opacity:1;stroke:#000000;stroke-width:0.40000001;stroke-linejoin:round;stroke-miterlimit:4;stroke-dasharray:none;stroke-opacity:1;paint-order:markers fill stroke"
       inkscape:connector-curvature="0" />
    <path
       inkscape:connector-curvature="0"
       id="rect875-4-8-1"
       d="m 309.98894,-206.76075 c 0,19.29457 15.6196,34.93523 34.8881,34.93523 H 554.7229 c 19.26859,0 34.88811,-15.64065 34.88811,-34.93523 v -126.0785 c 0,-19.29457 -15.61952,-34.93522 -34.88811,-34.93522 H 344.87704 c -19.2685,0 -34.8881,15.64065 -34.8881,34.93522 z m 6.8201,0 v -126.0785 c 0,-15.62928 12.4598,-28.10595 28.068,-28.10595 H 554.7229 c 15.60821,0 28.068,12.47667 28.068,28.10595 v 126.0785 c 0,15.62928 -12.45979,28.10596 -28.068,28.10596 H 344.87704 c -15.6082,0 -28.068,-12.47668 -28.068,-28.10596 z"
       style="color:#000000;font-style:normal;font-variant:normal;font-weight:normal;font-stretch:normal;font-size:medium;line-height:normal;font-family:sans-serif;font-variant-ligatures:normal;font-variant-position:normal;font-variant-caps:normal;font-variant-numeric:normal;font-variant-alternates:normal;font-feature-settings:normal;text-indent:0;text-align:start;text-decoration:none;text-decoration-line:none;text-decoration-style:solid;text-decoration-color:#000000;letter-spacing:normal;word-spacing:normal;text-transform:none;writing-mode:lr-tb;direction:ltr;text-orientation:mixed;dominant-baseline:auto;baseline-shift:baseline;text-anchor:start;white-space:normal;shape-padding:0;clip-rule:nonzero;display:inline;overflow:visible;visibility:visible;opacity:1;isolation:auto;mix-blend-mode:normal;color-interpolation:sRGB;color-interpolation-filters:linearRGB;solid-color:#000000;solid-opacity:1;vector-effect:none;fill:#000000;fill-opacity:1;fill-rule:nonzero;stroke:none;stroke-width:7;stroke-linecap:butt;stroke-linejoin:round;stroke-miterlimit:4;stroke-dasharray:none;stroke-dashoffset:0;stroke-opacity:1;paint-order:markers fill stroke;color-rendering:auto;image-rendering:auto;shape-rendering:auto;text-rendering:auto;enable-background:accumulate" />
    <path
       sodipodi:nodetypes="csscccccscsscscssssccsscccsccccsssccscsssccs"
       inkscape:connector-curvature="0"
       id="path2190-1-9-2"
       d="M 109.47221,155.02632 C 109.23667,153.78416 88.969461,40.633204 88.969461,40.56044 c 0,-0.10347 -5.986067,0.04782 -8.994929,0.227429 -8.95432,0.533976 -13.559767,2.102016 -15.785689,5.374629 -0.820666,1.206604 -1.163307,2.066923 -1.521498,3.820156 -0.145427,0.712348 -0.291101,1.321725 -0.323543,1.35415 -0.108858,0.108851 -3.830226,-1.659117 -5.69466,-2.705846 -5.576584,-3.130805 -9.954679,-6.755719 -12.932934,-10.708236 -0.437597,-0.580668 -0.795579,-1.103269 -0.795579,-1.161379 0,-0.05834 0.226571,-0.19939 0.503438,-0.313967 0.276914,-0.114732 1.470073,-0.628846 2.651529,-1.142805 13.536162,-5.888813 31.131135,-10.005014 46.921467,-10.976847 l 1.409622,-0.0867 7.566445,9.219953 c 4.16149,5.070902 7.61239,9.169041 7.66866,9.10698 0.056,-0.06206 3.43384,-4.172777 7.5057,-9.134797 4.07186,-4.96204 7.46558,-9.060408 7.54159,-9.107392 0.15858,-0.09793 3.54499,0.120307 6.50302,0.419422 12.47447,1.260968 25.00312,4.147576 36.38265,8.382543 2.68563,0.999449 7.00562,2.78338 8.13227,3.358136 l 0.52634,0.268526 -0.67894,0.93346 c -2.63857,3.627694 -6.77503,7.192673 -11.89762,10.253903 -1.4088,0.841925 -6.07245,3.182668 -6.70833,3.367012 -0.26241,0.07617 -0.2976,0.01895 -0.3849,-0.625911 -0.0528,-0.390313 -0.2437,-1.221584 -0.42412,-1.847227 -1.42075,-4.926813 -5.61857,-7.114585 -15.21397,-7.928838 -2.0893,-0.177288 -10.77854,-0.404847 -10.88772,-0.285078 -0.0559,0.06135 -16.83,94.159214 -20.37009,114.270354 l -0.10641,0.6041 z M 176.23409,31.685118 c -16.03436,-6.76242 -34.25132,-11.065592 -52.42594,-12.38391 -5.83909,-0.423569 -17.96977,-0.562255 -23.843801,-0.272636 -20.356235,1.003659 -39.084355,5.152178 -57.083117,12.644547 -1.240074,0.516174 -2.331827,0.90891 -2.42624,0.872713 -0.09467,-0.03638 -0.870714,-1.476499 -1.72515,-3.200644 -1.598764,-3.225795 -2.343845,-4.901524 -2.229954,-5.015399 0.116633,-0.116591 4.810524,-1.889825 7.561912,-2.856775 25.793091,-9.064952 53.339492,-12.8214471 79.41073,-10.829306 19.49979,1.490002 37.87737,5.6033 56.58454,12.664779 1.39277,0.525748 2.55628,0.979822 2.58552,1.009093 0.15293,0.152907 -3.5876,7.961489 -3.96663,8.280579 -0.0509,0.0428 -1.14968,-0.368069 -2.44187,-0.913041 z"
       style="fill:#000000;stroke-width:1" />
    <text
       id="text2822-22-5-9-0"
       y="-102.59018"
       x="499.87073"
       style="font-style:normal;font-variant:normal;font-weight:bold;font-stretch:normal;font-size:25.7665px;line-height:1;font-family:Gotham;-inkscape-font-specification:'Gotham Bold';text-align:center;letter-spacing:0px;word-spacing:0px;text-anchor:middle;fill:#000000;fill-opacity:1;stroke:none;stroke-width:0.264583"
       xml:space="preserve"><tspan
         id="tspan1123"
         style="font-style:normal;font-variant:normal;font-weight:bold;font-stretch:normal;line-height:1;font-family:Gotham;-inkscape-font-specification:'Gotham Bold';text-align:center;text-anchor:middle;stroke-width:0.264583"
         y="-102.59018"
         x="499.87073"
         sodipodi:role="line">Life's to short</tspan><tspan
         id="tspan934"
         style="font-style:normal;font-variant:normal;font-weight:bold;font-stretch:normal;line-height:1;font-family:Gotham;-inkscape-font-specification:'Gotham Bold';text-align:center;text-anchor:middle;stroke-width:0.264583"
         y="-76.823669"
         x="499.87073"
         sodipodi:role="line">to not drive</tspan><tspan
         id="tspan954"
         style="font-style:normal;font-variant:normal;font-weight:bold;font-stretch:normal;line-height:1;font-family:Gotham;-inkscape-font-specification:'Gotham Bold';text-align:center;text-anchor:middle;stroke-width:0.264583"
         y="-51.05719"
         x="499.87073"
         sodipodi:role="line">a TESLA</tspan></text>
    <g
       transform="translate(-0.7027425)"
       id="g1042">
      <path
         inkscape:connector-curvature="0"
         style="opacity:1;fill:none;fill-opacity:1;stroke:#000000;stroke-width:0.2;stroke-linejoin:round;stroke-miterlimit:4;stroke-dasharray:none;stroke-opacity:1;paint-order:markers fill stroke"
         d="m 568.19171,-194.88631 a 2.5,2.5 0 0 1 2.49999,2.49998 2.5,2.5 0 0 1 -2.49999,2.5 2.5,2.5 0 0 1 -2.5,-2.5 2.5,2.5 0 0 1 2.5,-2.49998 z"
         id="path879-1-8-0" />
      <path
         inkscape:connector-curvature="0"
         style="opacity:1;fill:none;fill-opacity:1;stroke:#000000;stroke-width:0.2;stroke-linejoin:round;stroke-miterlimit:4;stroke-dasharray:none;stroke-opacity:1;paint-order:markers fill stroke"
         d="m 567.90001,-349.8 a 2.5,2.5 0 0 1 2.5001,2.5 2.5,2.5 0 0 1 -2.5001,2.5 2.5,2.5 0 0 1 -2.49992,-2.5 2.5,2.5 0 0 1 2.49992,-2.5 z"
         id="path881-4-5-0" />
      <path
         inkscape:connector-curvature="0"
         style="opacity:1;fill:none;fill-opacity:1;stroke:#000000;stroke-width:0.2;stroke-linejoin:round;stroke-miterlimit:4;stroke-dasharray:none;stroke-opacity:1;paint-order:markers fill stroke"
         d="m 332.81374,-350.17798 a 2.5,2.5 0 0 1 2.5,2.5 2.5,2.5 0 0 1 -2.5,2.5 2.5,2.5 0 0 1 -2.5,-2.5 2.5,2.5 0 0 1 2.5,-2.5 z"
         id="path883-9-4-2" />
      <path
         inkscape:connector-curvature="0"
         style="opacity:1;fill:none;fill-opacity:1;stroke:#000000;stroke-width:0.2;stroke-linejoin:round;stroke-miterlimit:4;stroke-dasharray:none;stroke-opacity:1;paint-order:markers fill stroke"
         d="m 332.81374,-195.17798 a 2.5,2.5 0 0 1 2.5,2.5 2.5,2.5 0 0 1 -2.5,2.5 2.5,2.5 0 0 1 -2.5,-2.5 2.5,2.5 0 0 1 2.5,-2.5 z"
         id="path885-0-2-2" />
    </g>
    <text
       id="text841-8-2"
       y="-25.254955"
       x="111.27826"
       style="font-style:normal;font-variant:normal;font-weight:bold;font-stretch:normal;font-size:27.3664px;line-height:1;font-family:TESLA;-inkscape-font-specification:'TESLA Bold';text-align:center;letter-spacing:0px;word-spacing:0px;text-anchor:middle;fill:#000000;fill-opacity:1;stroke:none;stroke-width:0.264583"
       xml:space="preserve"><tspan
         id="tspan1069"
         style="font-style:normal;font-variant:normal;font-weight:bold;font-stretch:normal;font-family:TESLA;-inkscape-font-specification:'TESLA Bold';text-align:center;text-anchor:middle;stroke-width:0.264583"
         y="-25.254955"
         x="111.27826"
         sodipodi:role="line">BEAM</tspan><tspan
         id="tspan1719"
         style="font-style:normal;font-variant:normal;font-weight:bold;font-stretch:normal;font-family:TESLA;-inkscape-font-specification:'TESLA Bold';text-align:center;text-anchor:middle;stroke-width:0.264583"
         y="2.111445"
         x="111.27826"
         sodipodi:role="line">ME UP</tspan></text>
    <path
       inkscape:connector-curvature="0"
       style="opacity:1;fill:none;fill-opacity:1;stroke:#000000;stroke-width:0.4;stroke-linejoin:round;stroke-miterlimit:4;stroke-dasharray:none;stroke-opacity:1;paint-order:markers fill stroke"
       d="M 219.36786,220.00001 -0.23215,220 V -79.59995 h 219.60001 z"
       id="rect867-2-4-6-5" />
    <path
       style="color:#000000;font-style:normal;font-variant:normal;font-weight:normal;font-stretch:normal;font-size:medium;line-height:normal;font-family:sans-serif;font-variant-ligatures:normal;font-variant-position:normal;font-variant-caps:normal;font-variant-numeric:normal;font-variant-alternates:normal;font-feature-settings:normal;text-indent:0;text-align:start;text-decoration:none;text-decoration-line:none;text-decoration-style:solid;text-decoration-color:#000000;letter-spacing:normal;word-spacing:normal;text-transform:none;writing-mode:lr-tb;direction:ltr;text-orientation:mixed;dominant-baseline:auto;baseline-shift:baseline;text-anchor:start;white-space:normal;shape-padding:0;clip-rule:nonzero;display:inline;overflow:visible;visibility:visible;opacity:1;isolation:auto;mix-blend-mode:normal;color-interpolation:sRGB;color-interpolation-filters:linearRGB;solid-color:#000000;solid-opacity:1;vector-effect:none;fill:#000000;fill-opacity:1;fill-rule:nonzero;stroke:none;stroke-width:7;stroke-linecap:butt;stroke-linejoin:round;stroke-miterlimit:4;stroke-dasharray:none;stroke-dashoffset:0;stroke-opacity:1;paint-order:markers fill stroke;color-rendering:auto;image-rendering:auto;shape-rendering:auto;text-rendering:auto;enable-background:accumulate"
       d="m 172.6071,210.00001 c 19.29457,0 34.93523,-15.6196 34.93523,-34.8881 V -34.73395 c 0,-19.26859 -15.64065,-34.88811 -34.93523,-34.88811 H 46.528599 c -19.29457,0 -34.93522,15.61952 -34.93522,34.8881 V 175.1119 c 0,19.2685 15.64065,34.88811 34.93522,34.88811 z m 0,-6.8201 H 46.528599 c -15.62928,0 -28.10595,-12.4598 -28.10595,-28.068 V -34.73396 c 0,-15.6082 12.47667,-28.06799 28.10595,-28.06799 H 172.6071 c 15.62928,0 28.10596,12.45979 28.10596,28.068 v 209.84586 c 0,15.6082 -12.47667,28.068 -28.10596,28.068 z"
       id="rect875-4-8-1-3"
       inkscape:connector-curvature="0" />
    <text
       xml:space="preserve"
       style="font-style:normal;font-variant:normal;font-weight:bold;font-stretch:normal;font-size:29.3635px;line-height:1.25;font-family:TESLA;-inkscape-font-specification:'TESLA Bold';text-align:center;letter-spacing:0px;word-spacing:0px;text-anchor:middle;fill:#000000;fill-opacity:1;stroke:none;stroke-width:0.264583"
       x="111.40307"
       y="182.01283"
       id="text841-8-2-7"><tspan
         sodipodi:role="line"
         x="111.40307"
         y="182.01283"
         style="font-style:normal;font-variant:normal;font-weight:bold;font-stretch:normal;font-family:TESLA;-inkscape-font-specification:'TESLA Bold';text-align:center;text-anchor:middle;stroke-width:0.264583"
         id="tspan986-4">ELON</tspan></text>
    <g
       id="g1015">
      <path
         id="path879-1-8-0-8"
         d="m 184.7137,-47.79166 a 2.5,2.5 0 0 1 2.49998,-2.49999 2.5,2.5 0 0 1 2.5,2.49999 2.5,2.5 0 0 1 -2.5,2.5 2.5,2.5 0 0 1 -2.49998,-2.5 z"
         style="opacity:1;fill:none;fill-opacity:1;stroke:#000000;stroke-width:0.2;stroke-linejoin:round;stroke-miterlimit:4;stroke-dasharray:none;stroke-opacity:1;paint-order:markers fill stroke"
         inkscape:connector-curvature="0" />
      <path
         id="path881-4-5-0-9"
         d="m 29.8,-47.49996 a 2.5,2.5 0 0 1 2.5,-2.5001 2.5,2.5 0 0 1 2.5,2.5001 2.5,2.5 0 0 1 -2.5,2.49992 2.5,2.5 0 0 1 -2.5,-2.49992 z"
         style="opacity:1;fill:none;fill-opacity:1;stroke:#000000;stroke-width:0.2;stroke-linejoin:round;stroke-miterlimit:4;stroke-dasharray:none;stroke-opacity:1;paint-order:markers fill stroke"
         inkscape:connector-curvature="0" />
      <path
         id="path883-9-4-2-4"
         d="m 29.42203,187.58631 a 2.5,2.5 0 0 1 2.5,-2.5 2.5,2.5 0 0 1 2.5,2.5 2.5,2.5 0 0 1 -2.5,2.5 2.5,2.5 0 0 1 -2.5,-2.5 z"
         style="opacity:1;fill:none;fill-opacity:1;stroke:#000000;stroke-width:0.2;stroke-linejoin:round;stroke-miterlimit:4;stroke-dasharray:none;stroke-opacity:1;paint-order:markers fill stroke"
         inkscape:connector-curvature="0" />
      <path
         id="path885-0-2-2-9"
         d="m 184.42203,187.58631 a 2.5,2.5 0 0 1 2.5,-2.5 2.5,2.5 0 0 1 2.5,2.5 2.5,2.5 0 0 1 -2.5,2.5 2.5,2.5 0 0 1 -2.5,-2.5 z"
         style="opacity:1;fill:none;fill-opacity:1;stroke:#000000;stroke-width:0.2;stroke-linejoin:round;stroke-miterlimit:4;stroke-dasharray:none;stroke-opacity:1;paint-order:markers fill stroke"
         inkscape:connector-curvature="0" />
    </g>
    <path
       style="fill:#000000;stroke-width:0.99999917"
       d="m 513.68729,-241.45208 c -0.17113,-0.90242 -14.89507,-83.10556 -14.89507,-83.15841 0,-0.0752 -4.34882,0.0346 -6.53472,0.16521 -6.50525,0.38794 -9.85106,1.5271 -11.46817,3.90462 -0.59621,0.87659 -0.84513,1.5016 -1.10534,2.77532 -0.10566,0.51751 -0.21151,0.96021 -0.23507,0.98377 -0.0791,0.0791 -2.78262,-1.20533 -4.13713,-1.96576 -4.05132,-2.27452 -7.23198,-4.90798 -9.39565,-7.77945 -0.3179,-0.42185 -0.57797,-0.80151 -0.57797,-0.84372 0,-0.0424 0.16459,-0.14486 0.36575,-0.22809 0.20115,-0.0833 1.06798,-0.45686 1.9263,-0.83024 9.8339,-4.27818 22.61648,-7.26856 34.08802,-7.9746 l 1.02408,-0.063 5.49696,6.69821 c 3.02329,3.68397 5.53032,6.66122 5.57122,6.61614 0.0407,-0.045 2.49465,-3.03149 5.45282,-6.63635 2.95815,-3.60489 5.42367,-6.58232 5.47889,-6.61644 0.1152,-0.0711 2.5754,0.0875 4.72439,0.30471 9.06258,0.91609 18.16454,3.01319 26.43168,6.08985 1.95107,0.72608 5.08951,2.02209 5.90801,2.43965 l 0.3824,0.19509 -0.49326,0.67813 c -1.9169,2.6355 -4.922,5.22542 -8.64352,7.44938 -1.02349,0.61164 -4.41158,2.31219 -4.87355,2.44609 -0.19063,0.0553 -0.2162,0.0137 -0.27963,-0.4547 -0.0384,-0.28357 -0.17703,-0.88747 -0.30811,-1.34199 -1.03216,-3.57928 -4.08182,-5.1687 -11.0528,-5.76024 -1.51787,-0.1288 -7.83053,-0.29412 -7.90985,-0.2071 -0.0406,0.0446 -12.22684,68.4058 -14.79867,83.01636 l -0.0773,0.43889 z m 48.50191,-89.60626 c -11.64882,-4.91284 -24.88328,-8.03905 -38.08697,-8.9968 -4.24205,-0.30771 -13.05488,-0.40849 -17.32232,-0.19807 -14.78861,0.72915 -28.39443,3.74302 -41.47038,9.18614 -0.9009,0.375 -1.69404,0.66034 -1.76263,0.63403 -0.0687,-0.0265 -0.63257,-1.07266 -1.25331,-2.32524 -1.16147,-2.34351 -1.70278,-3.56091 -1.62004,-3.64364 0.0846,-0.0846 3.49481,-1.37295 5.49365,-2.07542 18.73846,-6.5856 38.75067,-9.31467 57.6912,-7.8674 14.16643,1.08248 27.51756,4.07074 41.10815,9.20085 1.01185,0.38195 1.85712,0.71183 1.87837,0.7331 0.11111,0.11108 -2.60636,5.78395 -2.88174,6.01576 -0.0371,0.031 -0.83521,-0.26739 -1.77398,-0.66331 z"
       id="path2190-1-9-2-6"
       inkscape:connector-curvature="0"
       sodipodi:nodetypes="csscccccscsscscssssccsscccsccccsssccscsssccs" />
    <text
       id="text841-8-2-7-6"
       y="-217.01321"
       x="450.13187"
       style="font-style:normal;font-variant:normal;font-weight:bold;font-stretch:normal;font-size:26.74555016px;line-height:1;font-family:Gotham;-inkscape-font-specification:'Gotham Bold';text-align:center;letter-spacing:0px;word-spacing:0px;text-anchor:middle;fill:#000000;fill-opacity:1;stroke:none;stroke-width:0.26458299"
       xml:space="preserve"><tspan
         style="font-style:normal;font-variant:normal;font-weight:bold;font-stretch:normal;line-height:1;font-family:Gotham;-inkscape-font-specification:'Gotham Bold';text-align:center;text-anchor:middle;stroke-width:0.26458299"
         y="-217.01321"
         x="450.13187"
         sodipodi:role="line"
         id="tspan913">...Sentinal Mode</tspan><tspan
         style="font-style:normal;font-variant:normal;font-weight:bold;font-stretch:normal;line-height:1;font-family:Gotham;-inkscape-font-specification:'Gotham Bold';text-align:center;text-anchor:middle;stroke-width:0.26458299"
         y="-190.26767"
         x="450.13187"
         sodipodi:role="line"
         id="tspan943">is watching you!</tspan></text>
    <text
       xml:space="preserve"
       style="font-style:normal;font-variant:normal;font-weight:bold;font-stretch:normal;font-size:27.3664px;line-height:1;font-family:Gotham;-inkscape-font-specification:'Gotham Bold';text-align:center;letter-spacing:0px;word-spacing:0px;text-anchor:middle;fill:#000000;fill-opacity:1;stroke:none;stroke-width:0.264583"
       x="488.82385"
       y="14.821692"
       id="text841-8-2-5"><tspan
         sodipodi:role="line"
         x="488.82385"
         y="14.821692"
         style="font-style:normal;font-variant:normal;font-weight:bold;font-stretch:normal;font-family:Gotham;-inkscape-font-specification:'Gotham Bold';text-align:center;text-anchor:middle;stroke-width:0.264583"
         id="tspan849-8-1-5">FUTURE</tspan><tspan
         sodipodi:role="line"
         x="488.82385"
         y="42.188087"
         style="font-style:normal;font-variant:normal;font-weight:bold;font-stretch:normal;font-family:Gotham;-inkscape-font-specification:'Gotham Bold';text-align:center;text-anchor:middle;stroke-width:0.264583"
         id="tspan986-1">starts here!</tspan></text>
    <text
       id="text841-8-2-7-6-0"
       y="-270.72833"
       x="413.25555"
       style="font-style:normal;font-variant:normal;font-weight:bold;font-stretch:normal;font-size:38.02429199px;line-height:1;font-family:Gotham;-inkscape-font-specification:'Gotham Bold';text-align:center;letter-spacing:0px;word-spacing:0px;text-anchor:middle;fill:#000000;fill-opacity:1;stroke:none;stroke-width:0.26458299"
       xml:space="preserve"><tspan
         id="tspan986-4-8-2"
         style="font-style:normal;font-variant:normal;font-weight:bold;font-stretch:normal;line-height:1;font-family:Gotham;-inkscape-font-specification:'Gotham Bold';text-align:center;text-anchor:middle;stroke-width:0.26458299"
         y="-270.72833"
         x="413.25555"
         sodipodi:role="line">Smile...!</tspan><tspan
         style="font-style:normal;font-variant:normal;font-weight:bold;font-stretch:normal;line-height:1;font-family:Gotham;-inkscape-font-specification:'Gotham Bold';text-align:center;text-anchor:middle;stroke-width:0.26458299"
         y="-270.72833"
         x="413.25555"
         sodipodi:role="line"
         id="tspan913-6"><tspan
           style="font-style:normal;font-variant:normal;font-weight:bold;font-stretch:normal;font-family:TESLA;-inkscape-font-specification:'TESLA Bold';stroke-width:0.26458299"
           id="tspan915-4" /></tspan></text>
  </g>
</svg>
