<?xml version="1.0" encoding="UTF-8" standalone="no"?>
<!-- Created with Inkscape (http://www.inkscape.org/) -->

<svg
   xmlns:dc="http://purl.org/dc/elements/1.1/"
   xmlns:cc="http://creativecommons.org/ns#"
   xmlns:rdf="http://www.w3.org/1999/02/22-rdf-syntax-ns#"
   xmlns:svg="http://www.w3.org/2000/svg"
   xmlns="http://www.w3.org/2000/svg"
   xmlns:sodipodi="http://sodipodi.sourceforge.net/DTD/sodipodi-0.dtd"
   xmlns:inkscape="http://www.inkscape.org/namespaces/inkscape"
   width="210mm"
   height="297mm"
   viewBox="0 0 210 297"
   version="1.1"
   id="svg1201"
   inkscape:version="0.92.4 (5da689c313, 2019-01-14)"
   sodipodi:docname="ParkingHereMini.svg">
  <defs
     id="defs1195" />
  <sodipodi:namedview
     id="base"
     pagecolor="#ffffff"
     bordercolor="#666666"
     borderopacity="1.0"
     inkscape:pageopacity="0.0"
     inkscape:pageshadow="2"
     inkscape:zoom="0.7"
     inkscape:cx="-557.89332"
     inkscape:cy="548.02851"
     inkscape:document-units="mm"
     inkscape:current-layer="layer1"
     showgrid="true"
     inkscape:window-width="1920"
     inkscape:window-height="1137"
     inkscape:window-x="-8"
     inkscape:window-y="-8"
     inkscape:window-maximized="1">
    <inkscape:grid
       type="xygrid"
       id="grid1892" />
  </sodipodi:namedview>
  <metadata
     id="metadata1198">
    <rdf:RDF>
      <cc:Work
         rdf:about="">
        <dc:format>image/svg+xml</dc:format>
        <dc:type
           rdf:resource="http://purl.org/dc/dcmitype/StillImage" />
        <dc:title></dc:title>
      </cc:Work>
    </rdf:RDF>
  </metadata>
  <g
     inkscape:label="Ebene 1"
     inkscape:groupmode="layer"
     id="layer1">
    <path
       inkscape:connector-curvature="0"
       style="opacity:1;fill:none;fill-opacity:1;stroke:#000000;stroke-width:0.40000001;stroke-linejoin:round;stroke-miterlimit:4;stroke-dasharray:none;stroke-opacity:1;paint-order:markers fill stroke"
       d="m 0.87737445,36.009526 0,219.600004 H -298.72261 V 36.009526 Z"
       id="rect867-2" />
    <g
       id="g1832"
       transform="matrix(0.93955726,0,0,0.93955726,-20.150886,9.242954)"
       style="stroke-width:1.06433105">
      <path
         inkscape:connector-curvature="0"
         d="m -177.48553,73.907607 c -0.72346,-0.4872 -1.62475,-1.626922 -1.62475,-2.05456 0,-0.153655 1.49391,-0.189723 7.85547,-0.189723 5.3406,0 7.85543,0.04844 7.85543,0.151261 0,0.298554 -0.56319,1.238112 -0.96862,1.615919 -0.22735,0.211875 -0.64249,0.522582 -0.92251,0.69045 -0.4929,0.29551 -0.68327,0.305241 -5.96625,0.305776 h -5.45713 l -0.77164,-0.519659 z m -67.96128,0.0093 c -0.93714,-0.630653 -1.7245,-1.568811 -1.73876,-2.071787 -0.004,-0.143295 1.66211,-0.181844 7.86009,-0.181844 h 7.86524 l -0.0971,0.327306 c -0.18591,0.6267 -0.86426,1.457031 -1.5892,1.945238 l -0.7297,0.491415 h -5.40614 -5.40613 z m 0.51088,6.082937 c -0.79237,-0.425928 -1.36689,-0.936158 -1.81379,-1.610867 -0.86087,-1.299652 -1.49142,-1.197798 7.41443,-1.197798 5.38775,0 7.85544,0.04787 7.85544,0.152706 0,0.580172 -1.03173,1.952019 -1.86595,2.481074 l -0.66403,0.421108 -5.24484,-0.0057 c -4.53992,-0.0057 -5.3035,-0.03737 -5.68126,-0.240406 z m 66.26207,1.699617 v -4.510955 l 7.45542,0.03773 7.45537,0.03773 0.0386,4.473228 0.0386,4.473236 h -1.31134 -1.31136 V 83.228265 80.24611 h -4.87326 -4.87329 v 2.982155 2.982152 h -1.30924 -1.30924 z m -22.25706,-2.835359 v -7.346273 h 1.30923 1.30924 v 5.891592 5.891571 h 5.88142 5.88143 l -0.13218,0.460889 c -0.20937,0.729971 -0.80176,1.517666 -1.50557,2.0019 l -0.64916,0.44665 h -6.0472 -6.04721 z m -44.00501,7.057966 c -0.86685,-0.429188 -1.64542,-1.124069 -1.96807,-1.756551 -0.1577,-0.309106 -0.28672,-0.630094 -0.28672,-0.713285 0,-0.102804 2.51482,-0.15127 7.85543,-0.15127 6.36153,0 7.85544,0.03594 7.85544,0.189725 0,0.335545 -0.82703,1.506428 -1.33031,1.883362 -1.14163,0.855096 -0.99638,0.836354 -6.48154,0.836226 -4.75268,-1.08e-4 -5.09794,-0.01771 -5.64423,-0.288207 z m 21.31152,0.286734 c 0,-0.369825 0.66009,-1.491634 1.1103,-1.886926 1.1694,-1.026758 1.13287,-1.020914 6.37566,-1.020914 h 4.73361 v -1.527433 -1.527461 h -6.10981 -6.10976 v -4.364116 -4.364143 h 7.41902 c 4.08047,0 7.41904,0.02479 7.41904,0.05495 0,0.03029 -0.0958,0.284176 -0.21283,0.564317 -0.27355,0.654709 -0.86297,1.35174 -1.58581,1.875388 l -0.57257,0.414746 h -4.92419 -4.92418 v 1.454702 1.454712 h 6.18251 6.18252 v 4.509639 4.50959 h -7.49175 c -4.95136,0 -7.49176,-0.0498 -7.49176,-0.147053 z m -40.33023,-5.780883 -0.038,-5.92796 -2.40028,-0.07277 -2.40027,-0.07277 -0.67153,-0.483462 c -0.36935,-0.265909 -0.80107,-0.658676 -0.95939,-0.872831 -0.29865,-0.403944 -0.76934,-1.260754 -0.76934,-1.400414 0,-0.04401 3.89497,-0.07998 8.65552,-0.07998 5.89445,0 8.65552,0.04823 8.65552,0.151271 0,0.336221 -0.59018,1.261254 -1.11507,1.747711 -1.0417,0.965438 -0.92348,0.93224 -3.59813,1.010445 l -2.48761,0.07277 -0.0381,5.927961 -0.038,5.927938 h -1.37872 -1.37872 z"
         style="fill:#000000;stroke-width:0.28160435"
         id="path21491-5" />
      <path
         inkscape:connector-curvature="0"
         id="rect875-4"
         d="m -261.96284,46.679432 c -13.78626,0 -24.96173,11.160404 -24.96173,24.928044 V 221.54553 c 0,13.76766 11.17547,24.92805 24.96173,24.92805 h 90.08499 c 13.78625,0 24.96173,-11.16039 24.96173,-24.92805 V 71.607476 c 0,-13.76764 -11.17548,-24.928044 -24.96173,-24.928044 z m 0,4.873029 h 90.08499 c 11.16735,0 20.08212,8.902743 20.08212,20.055015 V 221.54553 c 0,11.15228 -8.91477,20.05502 -20.08212,20.05502 h -90.08499 c -11.16736,0 -20.08212,-8.90274 -20.08212,-20.05502 V 71.607476 c 0,-11.152272 8.91476,-20.055015 20.08212,-20.055015 z"
         style="color:#000000;font-style:normal;font-variant:normal;font-weight:normal;font-stretch:normal;font-size:medium;line-height:normal;font-family:sans-serif;font-variant-ligatures:normal;font-variant-position:normal;font-variant-caps:normal;font-variant-numeric:normal;font-variant-alternates:normal;font-feature-settings:normal;text-indent:0;text-align:start;text-decoration:none;text-decoration-line:none;text-decoration-style:solid;text-decoration-color:#000000;letter-spacing:normal;word-spacing:normal;text-transform:none;writing-mode:lr-tb;direction:ltr;text-orientation:mixed;dominant-baseline:auto;baseline-shift:baseline;text-anchor:start;white-space:normal;shape-padding:0;clip-rule:nonzero;display:inline;overflow:visible;visibility:visible;opacity:1;isolation:auto;mix-blend-mode:normal;color-interpolation:sRGB;color-interpolation-filters:linearRGB;solid-color:#000000;solid-opacity:1;vector-effect:none;fill:#000000;fill-opacity:1;fill-rule:nonzero;stroke:none;stroke-width:7.45031786;stroke-linecap:butt;stroke-linejoin:round;stroke-miterlimit:4;stroke-dasharray:none;stroke-dashoffset:0;stroke-opacity:1;paint-order:markers fill stroke;color-rendering:auto;image-rendering:auto;shape-rendering:auto;text-rendering:auto;enable-background:accumulate" />
      <path
         id="path879-1"
         d="m -270.4473,230.87546 a 1.7862876,1.7862876 0 0 1 -1.78629,1.78628 1.7862876,1.7862876 0 0 1 -1.78628,-1.78628 1.7862876,1.7862876 0 0 1 1.78628,-1.78629 1.7862876,1.7862876 0 0 1 1.78629,1.78629 z"
         style="opacity:1;fill:none;fill-opacity:1;stroke:#000000;stroke-width:0.21286622;stroke-linejoin:round;stroke-miterlimit:4;stroke-dasharray:none;stroke-opacity:1;paint-order:markers fill stroke"
         inkscape:connector-curvature="0" />
      <path
         id="path881-4"
         d="m -159.75915,230.66705 a 1.7862876,1.7862876 0 0 1 -1.78628,1.7863 1.7862876,1.7862876 0 0 1 -1.78629,-1.7863 1.7862876,1.7862876 0 0 1 1.78629,-1.78628 1.7862876,1.7862876 0 0 1 1.78628,1.78628 z"
         style="opacity:1;fill:none;fill-opacity:1;stroke:#000000;stroke-width:0.21286622;stroke-linejoin:round;stroke-miterlimit:4;stroke-dasharray:none;stroke-opacity:1;paint-order:markers fill stroke"
         inkscape:connector-curvature="0" />
      <path
         id="path883-9"
         d="m -159.48907,62.694359 a 1.7862876,1.7862876 0 0 1 -1.78629,1.786279 1.7862876,1.7862876 0 0 1 -1.78629,-1.786279 1.7862876,1.7862876 0 0 1 1.78629,-1.786289 1.7862876,1.7862876 0 0 1 1.78629,1.786289 z"
         style="opacity:1;fill:none;fill-opacity:1;stroke:#000000;stroke-width:0.21286622;stroke-linejoin:round;stroke-miterlimit:4;stroke-dasharray:none;stroke-opacity:1;paint-order:markers fill stroke"
         inkscape:connector-curvature="0" />
      <path
         id="path885-0"
         d="m -270.2389,62.694359 a 1.7862876,1.7862876 0 0 1 -1.78629,1.786279 1.7862876,1.7862876 0 0 1 -1.78629,-1.786279 1.7862876,1.7862876 0 0 1 1.78629,-1.786289 1.7862876,1.7862876 0 0 1 1.78629,1.786289 z"
         style="opacity:1;fill:none;fill-opacity:1;stroke:#000000;stroke-width:0.21286622;stroke-linejoin:round;stroke-miterlimit:4;stroke-dasharray:none;stroke-opacity:1;paint-order:markers fill stroke"
         inkscape:connector-curvature="0" />
      <path
         sodipodi:nodetypes="csscccccscsscscssssccsscccsccccsssccscsssccs"
         inkscape:connector-curvature="0"
         id="path2190-1"
         d="m -218.0569,186.42931 c -0.14979,-0.78999 -13.03908,-72.7503 -13.03908,-72.79657 0,-0.0658 -3.80694,0.0304 -5.72048,0.14463 -5.69466,0.3396 -8.62357,1.33682 -10.0392,3.4181 -0.52191,0.76736 -0.73982,1.3145 -0.96762,2.4295 -0.0925,0.45302 -0.18512,0.84057 -0.20576,0.86119 -0.0692,0.0692 -2.4359,-1.05514 -3.62162,-1.72083 -3.54652,-1.99108 -6.33085,-4.29642 -8.22493,-6.81009 -0.2783,-0.36929 -0.50596,-0.70165 -0.50596,-0.7386 0,-0.0371 0.14408,-0.12681 0.32017,-0.19967 0.17611,-0.073 0.93492,-0.39994 1.68628,-0.7268 8.60857,-3.7451 19.79841,-6.36286 29.84055,-6.98091 l 0.89648,-0.0552 4.81199,5.86359 c 2.64659,3.22493 4.84124,5.83122 4.87703,5.79175 0.0357,-0.0394 2.18382,-2.65375 4.77338,-5.80945 2.58958,-3.15569 4.74788,-5.76212 4.79621,-5.792 0.10085,-0.0623 2.2545,0.0765 4.13571,0.26674 7.93334,0.80193 15.90117,2.63772 23.13819,5.33103 1.70797,0.63562 4.45534,1.77013 5.17186,2.13566 l 0.33474,0.17078 -0.43179,0.59365 c -1.67805,2.3071 -4.3087,4.5743 -7.5665,6.52116 -0.89596,0.53543 -3.86189,2.02407 -4.26629,2.1413 -0.16689,0.0484 -0.18927,0.0121 -0.24478,-0.39806 -0.0336,-0.24822 -0.15499,-0.77688 -0.26973,-1.17477 -0.90355,-3.1333 -3.57323,-4.52465 -9.67559,-5.04249 -1.32874,-0.11275 -6.8548,-0.25747 -6.92423,-0.1813 -0.0356,0.039 -10.70333,59.8822 -12.95472,72.67227 l -0.0677,0.3842 z m 42.45839,-78.44099 c -10.19734,-4.30068 -21.78274,-7.03736 -33.34119,-7.87577 -3.71347,-0.269367 -11.4282,-0.357574 -15.16388,-0.173387 -12.94591,0.638297 -24.85639,3.276617 -36.30304,8.041527 -0.78864,0.32827 -1.48296,0.57803 -1.54299,0.55501 -0.0602,-0.0232 -0.55375,-0.939 -1.09716,-2.0355 -1.01675,-2.05151 -1.49059,-3.11721 -1.41817,-3.18964 0.0742,-0.0742 3.05934,-1.20187 4.80913,-1.81681 16.40358,-5.765017 33.92221,-8.154026 50.50266,-6.887084 12.40122,0.947597 24.08878,3.563508 35.98593,8.054394 0.88577,0.33435 1.62572,0.62312 1.64431,0.64174 0.0973,0.0972 -2.28159,5.06325 -2.52263,5.26618 -0.0324,0.0272 -0.73117,-0.23408 -1.55297,-0.58066 z"
         style="fill:#000000;stroke-width:1.06433094" />
      <g
         aria-label="PARKING
HERE"
         style="font-style:normal;font-variant:normal;font-weight:bold;font-stretch:normal;font-size:23.56968307px;line-height:0.69999999;font-family:Gotham;-inkscape-font-specification:'Gotham Bold';text-align:center;letter-spacing:0px;word-spacing:0px;text-anchor:middle;fill:#000000;fill-opacity:1;stroke:none;stroke-width:0.28160423"
         id="text2822-22-5">
        <path
           d="m -258.91779,197.66778 v -0.0471 q 0,-1.27276 -0.44782,-2.30983 -0.42426,-1.06063 -1.2492,-1.81486 -0.80137,-0.75423 -1.97985,-1.15492 -1.15492,-0.42425 -2.63981,-0.42425 h -6.74092 v 16.49878 h 3.62973 v -4.94964 h 2.75765 q 1.39061,0 2.59266,-0.35354 1.22563,-0.37712 2.12128,-1.10778 0.91921,-0.73066 1.43775,-1.81486 0.51853,-1.08421 0.51853,-2.52196 z m -3.67687,0.0707 q 0,1.06064 -0.75423,1.7913 -0.75423,0.70709 -2.12127,0.70709 h -2.8755 v -5.04391 h 2.80479 q 1.36704,0 2.14484,0.63638 0.80137,0.63638 0.80137,1.862 z"
           style="font-style:normal;font-variant:normal;font-weight:bold;font-stretch:normal;line-height:0.89999998;font-family:Gotham;-inkscape-font-specification:'Gotham Bold';text-align:center;text-anchor:middle;stroke-width:0.28160423"
           id="path1834"
           inkscape:connector-curvature="0" />
        <path
           d="m -240.15706,208.41556 -7.0709,-16.61663 h -3.3469 l -7.0709,16.61663 h 3.70044 l 1.50846,-3.70044 h 6.97662 l 1.50846,3.70044 z m -6.59951,-6.90592 h -4.38396 l 2.19198,-5.35032 z"
           style="font-style:normal;font-variant:normal;font-weight:bold;font-stretch:normal;line-height:0.89999998;font-family:Gotham;-inkscape-font-specification:'Gotham Bold';text-align:center;text-anchor:middle;stroke-width:0.28160423"
           id="path1836"
           inkscape:connector-curvature="0" />
        <path
           d="m -223.37397,208.41556 -4.03042,-5.89242 q 1.57917,-0.58924 2.54553,-1.83844 0.98993,-1.27276 0.98993,-3.27618 v -0.0471 q 0,-2.5691 -1.64988,-4.00685 -1.62631,-1.43775 -4.57252,-1.43775 h -7.5423 v 16.49878 h 3.62973 v -5.27961 h 2.85193 l 3.53546,5.27961 z m -4.17183,-10.81849 q 0,1.06064 -0.73066,1.69702 -0.70709,0.63638 -2.05057,0.63638 h -3.67687 v -4.7375 h 3.60616 q 1.34348,0 2.09771,0.58924 0.75423,0.58924 0.75423,1.76772 z"
           style="font-style:normal;font-variant:normal;font-weight:bold;font-stretch:normal;line-height:0.89999998;font-family:Gotham;-inkscape-font-specification:'Gotham Bold';text-align:center;text-anchor:middle;stroke-width:0.28160423"
           id="path1838"
           inkscape:connector-curvature="0" />
        <path
           d="m -205.58696,208.41556 -7.02377,-9.49858 6.71736,-7.0002 h -4.38396 l -6.69379,7.21232 v -7.21232 h -3.62973 v 16.49878 h 3.62973 v -5.04391 l 1.90915,-1.97986 5.11462,7.02377 z"
           style="font-style:normal;font-variant:normal;font-weight:bold;font-stretch:normal;line-height:0.89999998;font-family:Gotham;-inkscape-font-specification:'Gotham Bold';text-align:center;text-anchor:middle;stroke-width:0.28160423"
           id="path1840"
           inkscape:connector-curvature="0" />
        <path
           d="m -199.58921,208.41556 v -16.49878 h -3.62974 v 16.49878 z"
           style="font-style:normal;font-variant:normal;font-weight:bold;font-stretch:normal;line-height:0.89999998;font-family:Gotham;-inkscape-font-specification:'Gotham Bold';text-align:center;text-anchor:middle;stroke-width:0.28160423"
           id="path1842"
           inkscape:connector-curvature="0" />
        <path
           d="m -180.80565,208.41556 v -16.49878 h -3.58259 v 10.15853 l -7.73086,-10.15853 h -3.3469 v 16.49878 h 3.5826 v -10.48851 l 7.99012,10.48851 z"
           style="font-style:normal;font-variant:normal;font-weight:bold;font-stretch:normal;line-height:0.89999998;font-family:Gotham;-inkscape-font-specification:'Gotham Bold';text-align:center;text-anchor:middle;stroke-width:0.28160423"
           id="path1844"
           inkscape:connector-curvature="0" />
        <path
           d="m -161.87772,206.08216 v -7.16518 h -7.16519 v 3.13476 h 3.6533 v 2.35697 q -1.39061,0.98993 -3.4176,0.98993 -1.10777,0 -2.02699,-0.37712 -0.89565,-0.40068 -1.57917,-1.10777 -0.65995,-0.70709 -1.03707,-1.64988 -0.35354,-0.96636 -0.35354,-2.0977 v -0.0471 q 0,-1.06064 0.35354,-1.97985 0.37712,-0.94279 1.0135,-1.62631 0.65995,-0.70709 1.50846,-1.10778 0.87208,-0.42425 1.862,-0.42425 0.70709,0 1.29634,0.11785 0.58924,0.11785 1.0842,0.32997 0.51853,0.21213 0.98993,0.51854 0.47139,0.3064 0.94279,0.70709 l 2.28626,-2.75766 q -0.63639,-0.5421 -1.31991,-0.96635 -0.68352,-0.42426 -1.46132,-0.70709 -0.7778,-0.28284 -1.69701,-0.42426 -0.89565,-0.16499 -2.00343,-0.16499 -1.88557,0 -3.46474,0.68352 -1.57917,0.65996 -2.73408,1.83844 -1.15492,1.15491 -1.81487,2.71051 -0.63638,1.53203 -0.63638,3.29976 v 0.0471 q 0,1.83843 0.63638,3.39403 0.63638,1.5556 1.76773,2.68695 1.15491,1.13134 2.73408,1.76772 1.60274,0.63638 3.53545,0.63638 2.26269,0 4.00685,-0.75423 1.76772,-0.7778 3.04049,-1.862 z"
           style="font-style:normal;font-variant:normal;font-weight:bold;font-stretch:normal;line-height:0.89999998;font-family:Gotham;-inkscape-font-specification:'Gotham Bold';text-align:center;text-anchor:middle;stroke-width:0.28160423"
           id="path1846"
           inkscape:connector-curvature="0" />
        <path
           d="m -234.49849,229.62827 v -16.49878 h -3.62973 v 6.52881 h -6.69379 v -6.52881 h -3.62974 v 16.49878 h 3.62974 v -6.62308 h 6.69379 v 6.62308 z"
           style="font-style:normal;font-variant:normal;font-weight:bold;font-stretch:normal;line-height:0.89999998;font-family:Gotham;-inkscape-font-specification:'Gotham Bold';text-align:center;text-anchor:middle;stroke-width:0.28160423"
           id="path1848"
           inkscape:connector-curvature="0" />
        <path
           d="m -217.98167,229.62827 v -3.22904 h -8.95648 v -3.46475 h 7.778 v -3.22904 h -7.778 v -3.3469 h 8.83863 v -3.22905 h -12.44479 v 16.49878 z"
           style="font-style:normal;font-variant:normal;font-weight:bold;font-stretch:normal;line-height:0.89999998;font-family:Gotham;-inkscape-font-specification:'Gotham Bold';text-align:center;text-anchor:middle;stroke-width:0.28160423"
           id="path1850"
           inkscape:connector-curvature="0" />
        <path
           d="m -200.49481,229.62827 -4.03041,-5.89242 q 1.57917,-0.58924 2.54552,-1.83843 0.98993,-1.27277 0.98993,-3.27619 v -0.0471 q 0,-2.56909 -1.64988,-4.00685 -1.62631,-1.43775 -4.57252,-1.43775 h -7.5423 v 16.49878 h 3.62974 v -5.27961 h 2.85193 l 3.53545,5.27961 z m -4.17183,-10.81848 q 0,1.06063 -0.73066,1.69701 -0.70709,0.63639 -2.05056,0.63639 h -3.67687 v -4.73751 h 3.60616 q 1.34347,0 2.0977,0.58924 0.75423,0.58924 0.75423,1.76773 z"
           style="font-style:normal;font-variant:normal;font-weight:bold;font-stretch:normal;line-height:0.89999998;font-family:Gotham;-inkscape-font-specification:'Gotham Bold';text-align:center;text-anchor:middle;stroke-width:0.28160423"
           id="path1852"
           inkscape:connector-curvature="0" />
        <path
           d="m -185.15904,229.62827 v -3.22904 h -8.95648 v -3.46475 h 7.77799 v -3.22904 h -7.77799 v -3.3469 h 8.83863 v -3.22905 h -12.4448 v 16.49878 z"
           style="font-style:normal;font-variant:normal;font-weight:bold;font-stretch:normal;line-height:0.89999998;font-family:Gotham;-inkscape-font-specification:'Gotham Bold';text-align:center;text-anchor:middle;stroke-width:0.28160423"
           id="path1854"
           inkscape:connector-curvature="0" />
      </g>
    </g>
    <flowRoot
       xml:space="preserve"
       id="flowRoot1772"
       style="fill:black;fill-opacity:1;stroke:none;font-family:'Victorian LET';font-style:normal;font-weight:bold;font-size:40px;line-height:1.25;letter-spacing:0px;word-spacing:0px;-inkscape-font-specification:'Victorian LET Bold';font-stretch:normal;font-variant:normal"><flowRegion
         id="flowRegion1774"><rect
           id="rect1776"
           width="751.55347"
           height="961.66522"
           x="-1242.4877"
           y="55.798599" /></flowRegion><flowPara
         id="flowPara1778"></flowPara></flowRoot>    <g
       id="g1867"
       transform="matrix(0.93955726,0,0,0.93955726,-14.036554,9.5403455)"
       style="stroke-width:1.06433105">
      <path
         inkscape:connector-curvature="0"
         d="m -29.520723,73.591089 c -0.72346,-0.4872 -1.62475,-1.62692 -1.62475,-2.05456 0,-0.15366 1.49391,-0.18973 7.85547,-0.18973 5.3406,0 7.85543,0.0484 7.85543,0.15127 0,0.29855 -0.56319,1.23811 -0.96862,1.61591 -0.22735,0.21188 -0.64249,0.52259 -0.92251,0.69045 -0.4929,0.29552 -0.68327,0.30525 -5.96625,0.30578 h -5.45713 l -0.77164,-0.51966 z m -67.961275,0.009 c -0.93714,-0.63065 -1.7245,-1.56881 -1.73876,-2.07179 -0.004,-0.14329 1.66211,-0.18184 7.86008,-0.18184 h 7.86525 l -0.0971,0.3273 c -0.18591,0.6267 -0.86426,1.45703 -1.5892,1.94524 l -0.7297,0.49142 h -5.40614 -5.40614 z m 0.51087,6.08294 c -0.79236,-0.42593 -1.36688,-0.93616 -1.81379,-1.61087 -0.86086,-1.29965 -1.491412,-1.1978 7.41444,-1.1978 5.38775,0 7.85544,0.0479 7.85544,0.15271 0,0.58017 -1.03173,1.95202 -1.86595,2.48107 l -0.66403,0.42111 -5.24484,-0.006 c -4.53992,-0.006 -5.3035,-0.0374 -5.68127,-0.24041 z m 66.262075,1.69961 v -4.51095 l 7.45542,0.0377 7.45537,0.0377 0.0386,4.47323 0.0386,4.47323 h -1.31134 -1.31136 v -2.98216 -2.98216 h -4.87326 -4.87329 v 2.98216 2.98215 h -1.30924 -1.30924 z m -22.257055,-2.83536 v -7.34627 h 1.30923 1.30924 v 5.89159 5.89157 h 5.88142 5.881425 l -0.13218,0.46089 c -0.20937,0.72997 -0.801758,1.51767 -1.505568,2.0019 l -0.649161,0.44665 h -6.047196 -6.04721 z m -44.00502,7.05797 c -0.86684,-0.42919 -1.64541,-1.12407 -1.96806,-1.75655 -0.1577,-0.30911 -0.28672,-0.63009 -0.28672,-0.71329 0,-0.1028 2.51481,-0.15127 7.85543,-0.15127 6.36153,0 7.85544,0.0359 7.85544,0.18973 0,0.33554 -0.82703,1.50643 -1.33031,1.88336 -1.14164,0.8551 -0.99638,0.83635 -6.48154,0.83623 -4.75268,-1.1e-4 -5.09794,-0.0177 -5.64424,-0.28821 z m 21.31153,0.28673 c 0,-0.36982 0.66009,-1.49163 1.1103,-1.88692 1.1694,-1.02676 1.13286,-1.02092 6.37566,-1.02092 h 4.73361 v -1.52743 -1.52746 h -6.10981 -6.10976 v -4.36412 -4.36414 h 7.41902 c 4.08047,0 7.41904,0.0248 7.41904,0.0549 0,0.0303 -0.0958,0.28418 -0.21283,0.56432 -0.27355,0.65471 -0.86297,1.35174 -1.58581,1.87539 l -0.57257,0.41474 h -4.92419 -4.92418 v 1.4547 1.45471 h 6.18251 6.18252 v 4.50964 4.50959 h -7.49175 c -4.95136,0 -7.49176,-0.0498 -7.49176,-0.14705 z m -40.330232,-5.78088 -0.038,-5.92796 -2.40028,-0.0728 -2.40027,-0.0728 -0.67153,-0.48346 c -0.36935,-0.26591 -0.80107,-0.65868 -0.95939,-0.87283 -0.29865,-0.40395 -0.76934,-1.26076 -0.76934,-1.40042 0,-0.044 3.89497,-0.08 8.65552,-0.08 5.89445,0 8.65552,0.0482 8.65552,0.15127 0,0.33622 -0.59019,1.26126 -1.11507,1.74772 -1.04171,0.96543 -0.92348,0.93223 -3.59813,1.01044 l -2.48761,0.0728 -0.0381,5.92796 -0.038,5.92794 h -1.37872 -1.37872 z"
         style="fill:#000000;stroke-width:0.28160435"
         id="path21491-5-6" />
      <path
         inkscape:connector-curvature="0"
         id="rect875-4-3"
         d="m -113.99803,46.362909 c -13.78626,0 -24.96173,11.16041 -24.96173,24.92805 V 221.22901 c 0,13.76766 11.17547,24.92805 24.96173,24.92805 h 90.084987 c 13.78625,0 24.9617297,-11.16039 24.9617297,-24.92805 V 71.290959 c 0,-13.76764 -11.1754797,-24.92805 -24.9617297,-24.92805 z m 0,4.87303 h 90.084987 c 11.16735,0 20.0821197,8.90274 20.0821197,20.05502 V 221.22901 c 0,11.15228 -8.9147697,20.05502 -20.0821197,20.05502 h -90.084987 c -11.16736,0 -20.08212,-8.90274 -20.08212,-20.05502 V 71.290959 c 0,-11.15228 8.91476,-20.05502 20.08212,-20.05502 z"
         style="color:#000000;font-style:normal;font-variant:normal;font-weight:normal;font-stretch:normal;font-size:medium;line-height:normal;font-family:sans-serif;font-variant-ligatures:normal;font-variant-position:normal;font-variant-caps:normal;font-variant-numeric:normal;font-variant-alternates:normal;font-feature-settings:normal;text-indent:0;text-align:start;text-decoration:none;text-decoration-line:none;text-decoration-style:solid;text-decoration-color:#000000;letter-spacing:normal;word-spacing:normal;text-transform:none;writing-mode:lr-tb;direction:ltr;text-orientation:mixed;dominant-baseline:auto;baseline-shift:baseline;text-anchor:start;white-space:normal;shape-padding:0;clip-rule:nonzero;display:inline;overflow:visible;visibility:visible;opacity:1;isolation:auto;mix-blend-mode:normal;color-interpolation:sRGB;color-interpolation-filters:linearRGB;solid-color:#000000;solid-opacity:1;vector-effect:none;fill:#000000;fill-opacity:1;fill-rule:nonzero;stroke:none;stroke-width:7.45031786;stroke-linecap:butt;stroke-linejoin:round;stroke-miterlimit:4;stroke-dasharray:none;stroke-dashoffset:0;stroke-opacity:1;paint-order:markers fill stroke;color-rendering:auto;image-rendering:auto;shape-rendering:auto;text-rendering:auto;enable-background:accumulate" />
      <path
         id="path879-1-7"
         d="m -122.48249,230.55894 a 1.7862876,1.7862876 0 0 1 -1.78629,1.78628 1.7862876,1.7862876 0 0 1 -1.78628,-1.78628 1.7862876,1.7862876 0 0 1 1.78628,-1.78629 1.7862876,1.7862876 0 0 1 1.78629,1.78629 z"
         style="opacity:1;fill:none;fill-opacity:1;stroke:#000000;stroke-width:0.21286622;stroke-linejoin:round;stroke-miterlimit:4;stroke-dasharray:none;stroke-opacity:1;paint-order:markers fill stroke"
         inkscape:connector-curvature="0" />
      <path
         id="path881-4-3"
         d="m -11.794343,230.35053 a 1.7862876,1.7862876 0 0 1 -1.78628,1.7863 1.7862876,1.7862876 0 0 1 -1.78629,-1.7863 1.7862876,1.7862876 0 0 1 1.78629,-1.78628 1.7862876,1.7862876 0 0 1 1.78628,1.78628 z"
         style="opacity:1;fill:none;fill-opacity:1;stroke:#000000;stroke-width:0.21286622;stroke-linejoin:round;stroke-miterlimit:4;stroke-dasharray:none;stroke-opacity:1;paint-order:markers fill stroke"
         inkscape:connector-curvature="0" />
      <path
         id="path883-9-4"
         d="m -11.524263,62.377839 a 1.7862876,1.7862876 0 0 1 -1.78629,1.78628 1.7862876,1.7862876 0 0 1 -1.78629,-1.78628 1.7862876,1.7862876 0 0 1 1.78629,-1.78629 1.7862876,1.7862876 0 0 1 1.78629,1.78629 z"
         style="opacity:1;fill:none;fill-opacity:1;stroke:#000000;stroke-width:0.21286622;stroke-linejoin:round;stroke-miterlimit:4;stroke-dasharray:none;stroke-opacity:1;paint-order:markers fill stroke"
         inkscape:connector-curvature="0" />
      <path
         id="path885-0-8"
         d="m -122.27409,62.377839 a 1.7862876,1.7862876 0 0 1 -1.78629,1.78628 1.7862876,1.7862876 0 0 1 -1.78629,-1.78628 1.7862876,1.7862876 0 0 1 1.78629,-1.78629 1.7862876,1.7862876 0 0 1 1.78629,1.78629 z"
         style="opacity:1;fill:none;fill-opacity:1;stroke:#000000;stroke-width:0.21286622;stroke-linejoin:round;stroke-miterlimit:4;stroke-dasharray:none;stroke-opacity:1;paint-order:markers fill stroke"
         inkscape:connector-curvature="0" />
      <path
         sodipodi:nodetypes="csscccccscsscscssssccsscccsccccsssccscsssccs"
         inkscape:connector-curvature="0"
         id="path2190-1-4"
         d="m -70.092088,186.11279 c -0.14979,-0.78999 -13.03908,-72.7503 -13.03908,-72.79657 0,-0.0658 -3.80694,0.0304 -5.72049,0.14463 -5.69465,0.3396 -8.62357,1.33682 -10.03919,3.4181 -0.52191,0.76736 -0.73982,1.3145 -0.96763,2.4295 -0.0925,0.45302 -0.185112,0.84057 -0.205752,0.86119 -0.0692,0.0692 -2.4359,-1.05514 -3.62162,-1.72083 -3.54652,-1.99108 -6.33086,-4.29642 -8.22493,-6.81009 -0.27831,-0.36929 -0.50596,-0.70165 -0.50596,-0.7386 0,-0.0371 0.14408,-0.12681 0.32017,-0.19967 0.17611,-0.073 0.93491,-0.39994 1.68628,-0.7268 8.60857,-3.7451 19.798412,-6.36286 29.840552,-6.98091 l 0.89648,-0.0552 4.81199,5.86359 c 2.64659,3.22493 4.84124,5.83122 4.87703,5.79175 0.0357,-0.0394 2.18382,-2.65375 4.77338,-5.80945 2.58958,-3.15569 4.74788,-5.76212 4.79621,-5.792 0.10085,-0.0623 2.2545,0.0765 4.13571,0.26674 7.93334,0.80193 15.901166,2.63772 23.138185,5.33103 1.70797,0.63562 4.45534,1.77013 5.17186,2.13566 l 0.33474,0.17078 -0.43179,0.59365 c -1.67805,2.3071 -4.3087,4.5743 -7.5665,6.52116 -0.89596,0.53543 -3.861888,2.02407 -4.266288,2.1413 -0.166891,0.0484 -0.18927,0.0121 -0.244782,-0.39806 -0.0336,-0.24822 -0.154988,-0.77688 -0.26973,-1.17477 -0.903549,-3.1333 -3.573229,-4.52465 -9.675585,-5.04249 -1.32874,-0.11275 -6.8548,-0.25747 -6.92423,-0.1813 -0.0356,0.039 -10.70333,59.8822 -12.95472,72.67227 l -0.0677,0.3842 z m 42.458385,-78.44099 c -10.19734,-4.30068 -21.782735,-7.03736 -33.341185,-7.875771 -3.71347,-0.26937 -11.4282,-0.35757 -15.16388,-0.17339 -12.94591,0.638301 -24.856402,3.276621 -36.303052,8.041531 -0.78863,0.32827 -1.48295,0.57803 -1.54298,0.55501 -0.0602,-0.0232 -0.55375,-0.939 -1.09716,-2.0355 -1.01675,-2.05151 -1.49059,-3.11721 -1.41817,-3.18964 0.0742,-0.0742 3.05934,-1.20187 4.80913,-1.81681 16.403572,-5.765021 33.922212,-8.154031 50.502662,-6.887081 12.40122,0.94759 24.088775,3.5635 35.985925,8.054391 0.88577,0.33435 1.62572,0.62312 1.64431,0.64174 0.0973,0.0972 -2.28159,5.06325 -2.52263,5.26618 -0.0324,0.0272 -0.73117,-0.23408 -1.55297,-0.58066 z"
         style="fill:#000000;stroke-width:1.06433094" />
      <g
         aria-label="PARKING
HERE"
         style="font-style:normal;font-variant:normal;font-weight:bold;font-stretch:normal;font-size:23.56968307px;line-height:0.69999999;font-family:Gotham;-inkscape-font-specification:'Gotham Bold';text-align:center;letter-spacing:0px;word-spacing:0px;text-anchor:middle;fill:#000000;fill-opacity:1;stroke:none;stroke-width:0.28160423"
         id="text2822-22-5-3">
        <path
           d="m -110.95298,197.35127 v -0.0471 q 0,-1.27276 -0.44782,-2.30983 -0.42426,-1.06063 -1.24919,-1.81486 -0.80137,-0.75423 -1.97986,-1.15492 -1.15491,-0.42425 -2.6398,-0.42425 h -6.74093 v 16.49877 h 3.62973 v -4.94963 h 2.75765 q 1.39061,0 2.59267,-0.35354 1.22562,-0.37712 2.12127,-1.10778 0.91922,-0.73066 1.43775,-1.81486 0.51853,-1.08421 0.51853,-2.52196 z m -3.67687,0.0707 q 0,1.06063 -0.75423,1.79129 -0.75423,0.70709 -2.12127,0.70709 h -2.8755 v -5.04391 h 2.80479 q 1.36704,0 2.14484,0.63638 0.80137,0.63639 0.80137,1.86201 z"
           style="font-style:normal;font-variant:normal;font-weight:bold;font-stretch:normal;line-height:0.89999998;font-family:Gotham;-inkscape-font-specification:'Gotham Bold';text-align:center;text-anchor:middle;stroke-width:0.28160423"
           id="path1869"
           inkscape:connector-curvature="0" />
        <path
           d="m -92.192246,208.09904 -7.070905,-16.61662 h -3.346899 l -7.0709,16.61662 h 3.70044 l 1.50846,-3.70044 h 6.976626 l 1.508459,3.70044 z m -6.599511,-6.90591 h -4.383963 l 2.19198,-5.35032 z"
           style="font-style:normal;font-variant:normal;font-weight:bold;font-stretch:normal;line-height:0.89999998;font-family:Gotham;-inkscape-font-specification:'Gotham Bold';text-align:center;text-anchor:middle;stroke-width:0.28160423"
           id="path1871"
           inkscape:connector-curvature="0" />
        <path
           d="m -75.409157,208.09904 -4.030415,-5.89242 q 1.579168,-0.58924 2.545525,-1.83843 0.989927,-1.27276 0.989927,-3.27619 v -0.0471 q 0,-2.56909 -1.649878,-4.00684 -1.626308,-1.43775 -4.572518,-1.43775 h -7.542299 v 16.49877 h 3.629731 v -5.2796 h 2.851932 l 3.535452,5.2796 z m -4.171833,-10.81848 q 0,1.06064 -0.730661,1.69702 -0.70709,0.63638 -2.050562,0.63638 h -3.676871 v -4.73751 h 3.606162 q 1.343472,0 2.097702,0.58924 0.75423,0.58925 0.75423,1.76773 z"
           style="font-style:normal;font-variant:normal;font-weight:bold;font-stretch:normal;line-height:0.89999998;font-family:Gotham;-inkscape-font-specification:'Gotham Bold';text-align:center;text-anchor:middle;stroke-width:0.28160423"
           id="path1873"
           inkscape:connector-curvature="0" />
        <path
           d="m -57.622147,208.09904 -7.023766,-9.49858 6.71736,-7.00019 h -4.383961 l -6.69379,7.21232 v -7.21232 h -3.629731 v 16.49877 h 3.629731 v -5.04391 l 1.909144,-1.97985 5.114622,7.02376 z"
           style="font-style:normal;font-variant:normal;font-weight:bold;font-stretch:normal;line-height:0.89999998;font-family:Gotham;-inkscape-font-specification:'Gotham Bold';text-align:center;text-anchor:middle;stroke-width:0.28160423"
           id="path1875"
           inkscape:connector-curvature="0" />
        <path
           d="m -51.624401,208.09904 v -16.49877 h -3.629731 v 16.49877 z"
           style="font-style:normal;font-variant:normal;font-weight:bold;font-stretch:normal;line-height:0.89999998;font-family:Gotham;-inkscape-font-specification:'Gotham Bold';text-align:center;text-anchor:middle;stroke-width:0.28160423"
           id="path1877"
           inkscape:connector-curvature="0" />
        <path
           d="m -32.840839,208.09904 v -16.49877 h -3.582592 v 10.15853 l -7.730856,-10.15853 h -3.346895 v 16.49877 h 3.582592 v -10.4885 l 7.990123,10.4885 z"
           style="font-style:normal;font-variant:normal;font-weight:bold;font-stretch:normal;line-height:0.89999998;font-family:Gotham;-inkscape-font-specification:'Gotham Bold';text-align:center;text-anchor:middle;stroke-width:0.28160423"
           id="path1879"
           inkscape:connector-curvature="0" />
        <path
           d="m -13.91291,205.76565 v -7.16519 h -7.165183 v 3.13477 h 3.653301 v 2.35697 q -1.390612,0.98993 -3.417604,0.98993 -1.107775,0 -2.026993,-0.37712 -0.895648,-0.40068 -1.579169,-1.10777 -0.659951,-0.7071 -1.037066,-1.64988 -0.353545,-0.96636 -0.353545,-2.0977 v -0.0471 q 0,-1.06064 0.353545,-1.97986 0.377115,-0.94278 1.013496,-1.62631 0.659952,-0.70709 1.50846,-1.10777 0.872078,-0.42425 1.862005,-0.42425 0.707091,0 1.296333,0.11784 0.589242,0.11785 1.084205,0.32998 0.518533,0.21213 0.989927,0.51853 0.471393,0.30641 0.942787,0.70709 l 2.286259,-2.75765 q -0.636381,-0.5421 -1.319902,-0.96636 -0.683521,-0.42425 -1.46132,-0.70709 -0.7778,-0.28283 -1.697017,-0.42425 -0.895648,-0.16499 -2.003423,-0.16499 -1.885575,0 -3.464744,0.68352 -1.579169,0.65995 -2.734083,1.83844 -1.154915,1.15491 -1.814866,2.71051 -0.636381,1.53203 -0.636381,3.29976 v 0.0471 q 0,1.83843 0.636381,3.39403 0.636382,1.5556 1.767726,2.68694 1.154915,1.13135 2.734084,1.76773 1.602738,0.63638 3.535452,0.63638 2.26269,0 4.006846,-0.75423 1.767727,-0.7778 3.040489,-1.862 z"
           style="font-style:normal;font-variant:normal;font-weight:bold;font-stretch:normal;line-height:0.89999998;font-family:Gotham;-inkscape-font-specification:'Gotham Bold';text-align:center;text-anchor:middle;stroke-width:0.28160423"
           id="path1881"
           inkscape:connector-curvature="0" />
        <path
           d="m -86.53368,229.31176 v -16.49878 h -3.629731 v 6.5288 h -6.69379 v -6.5288 h -3.629729 v 16.49878 h 3.629729 v -6.62308 h 6.69379 v 6.62308 z"
           style="font-style:normal;font-variant:normal;font-weight:bold;font-stretch:normal;line-height:0.89999998;font-family:Gotham;-inkscape-font-specification:'Gotham Bold';text-align:center;text-anchor:middle;stroke-width:0.28160423"
           id="path1883"
           inkscape:connector-curvature="0" />
        <path
           d="m -70.016857,229.31176 v -3.22905 h -8.95648 v -3.46474 h 7.777996 v -3.22905 h -7.777996 v -3.34689 h 8.838631 v -3.22905 h -12.444792 v 16.49878 z"
           style="font-style:normal;font-variant:normal;font-weight:bold;font-stretch:normal;line-height:0.89999998;font-family:Gotham;-inkscape-font-specification:'Gotham Bold';text-align:center;text-anchor:middle;stroke-width:0.28160423"
           id="path1885"
           inkscape:connector-curvature="0" />
        <path
           d="m -52.529994,229.31176 -4.030415,-5.89242 q 1.579168,-0.58924 2.545525,-1.83844 0.989927,-1.27276 0.989927,-3.27618 v -0.0471 q 0,-2.5691 -1.649878,-4.00685 -1.626308,-1.43775 -4.572518,-1.43775 h -7.542299 v 16.49878 h 3.629731 v -5.27961 h 2.851932 l 3.535453,5.27961 z m -4.171833,-10.81849 q 0,1.06064 -0.730661,1.69702 -0.70709,0.63638 -2.050562,0.63638 h -3.676871 v -4.7375 h 3.606162 q 1.343472,0 2.097702,0.58924 0.75423,0.58924 0.75423,1.76773 z"
           style="font-style:normal;font-variant:normal;font-weight:bold;font-stretch:normal;line-height:0.89999998;font-family:Gotham;-inkscape-font-specification:'Gotham Bold';text-align:center;text-anchor:middle;stroke-width:0.28160423"
           id="path1887"
           inkscape:connector-curvature="0" />
        <path
           d="m -37.194231,229.31176 v -3.22905 h -8.95648 v -3.46474 h 7.777996 v -3.22905 h -7.777996 v -3.34689 h 8.838632 v -3.22905 h -12.444793 v 16.49878 z"
           style="font-style:normal;font-variant:normal;font-weight:bold;font-stretch:normal;line-height:0.89999998;font-family:Gotham;-inkscape-font-specification:'Gotham Bold';text-align:center;text-anchor:middle;stroke-width:0.28160423"
           id="path1889"
           inkscape:connector-curvature="0" />
      </g>
    </g>
  </g>
</svg>
