  0
SECTION
  2
HEADER
  9
$ACADVER
  1
AC1014
  9
$HANDSEED
  5
FFFF
  9
$MEASUREMENT
 70
     1
  0
ENDSEC
  0
SECTION
  2
TABLES
  0
TABLE
  2
VPORT
  5
8
330
0
100
AcDbSymbolTable
 70
     4
  0
VPORT
  5
2E
330
8
100
AcDbSymbolTableRecord
100
AcDbViewportTableRecord
  2
*ACTIVE
 70
     0
 10
0.0
 20
0.0
 11
1.0
 21
1.0
 12
210.0
 22
148.5
 13
0.0
 23
0.0
 14
10.0
 24
10.0
 15
10.0
 25
10.0
 16
0.0
 26
0.0
 36
1.0
 17
0.0
 27
0.0
 37
0.0
 40
341.0
 41
1.24
 42
50.0
 43
0.0
 44
0.0
 50
0.0
 51
0.0
 71
     0
 72
   100
 73
     1
 74
     3
 75
     0
 76
     0
 77
     0
 78
     0
  0
ENDTAB
  0
TABLE
  2
LTYPE
  5
5
330
0
100
AcDbSymbolTable
 70
     1
  0
LTYPE
  5
14
330
5
100
AcDbSymbolTableRecord
100
AcDbLinetypeTableRecord
  2
BYBLOCK
 70
     0
  3

 72
    65
 73
     0
 40
0.0
  0
LTYPE
  5
15
330
5
100
AcDbSymbolTableRecord
100
AcDbLinetypeTableRecord
  2
BYLAYER
 70
     0
  3

 72
    65
 73
     0
 40
0.0
  0
LTYPE
  5
16
330
5
100
AcDbSymbolTableRecord
100
AcDbLinetypeTableRecord
  2
CONTINUOUS
 70
     0
  3
Solid line
 72
    65
 73
     0
 40
0.0
  0
ENDTAB
  0
TABLE
  2
LAYER
  5
2
100
AcDbSymbolTable
 70
2
  0
LAYER
  5
50
100
AcDbSymbolTableRecord
100
AcDbLayerTableRecord
  2
0
 70
0
  6
CONTINUOUS
  0
LAYER
  5
51
100
AcDbSymbolTableRecord
100
AcDbLayerTableRecord
  2
Ebene_1
 70
0
  6
CONTINUOUS
  0
ENDTAB
  0
TABLE
  2
STYLE
  5
3
330
0
100
AcDbSymbolTable
 70
     1
  0
STYLE
  5
11
330
3
100
AcDbSymbolTableRecord
100
AcDbTextStyleTableRecord
  2
STANDARD
 70
     0
 40
0.0
 41
1.0
 50
0.0
 71
     0
 42
2.5
  3
txt
  4

  0
ENDTAB
  0
TABLE
  2
VIEW
  5
6
330
0
100
AcDbSymbolTable
 70
     0
  0
ENDTAB
  0
TABLE
  2
UCS
  5
7
330
0
100
AcDbSymbolTable
 70
     0
  0
ENDTAB
  0
TABLE
  2
APPID
  5
9
330
0
100
AcDbSymbolTable
 70
     2
  0
APPID
  5
12
330
9
100
AcDbSymbolTableRecord
100
AcDbRegAppTableRecord
  2
ACAD
 70
     0
  0
ENDTAB
  0
TABLE
  2
DIMSTYLE
  5
A
330
0
100
AcDbSymbolTable
 70
     1
  0
DIMSTYLE
105
27
330
A
100
AcDbSymbolTableRecord
100
AcDbDimStyleTableRecord
  2
ISO-25
 70
     0
  3

  4

  5

  6

  7

 40
1.0
 41
2.5
 42
0.625
 43
3.75
 44
1.25
 45
0.0
 46
0.0
 47
0.0
 48
0.0
140
2.5
141
2.5
142
0.0
143
0.03937007874016
144
1.0
145
0.0
146
1.0
147
0.625
 71
     0
 72
     0
 73
     0
 74
     0
 75
     0
 76
     0
 77
     1
 78
     8
170
     0
171
     3
172
     1
173
     0
174
     0
175
     0
176
     0
177
     0
178
     0
270
     2
271
     2
272
     2
273
     2
274
     3
340
11
275
     0
280
     0
281
     0
282
     0
283
     0
284
     8
285
     0
286
     0
287
     3
288
     0
  0
ENDTAB
  0
TABLE
  2
BLOCK_RECORD
  5
1
330
0
100
AcDbSymbolTable
 70
     1
  0
BLOCK_RECORD
  5
1F
330
1
100
AcDbSymbolTableRecord
100
AcDbBlockTableRecord
  2
*MODEL_SPACE
  0
BLOCK_RECORD
  5
1B
330
1
100
AcDbSymbolTableRecord
100
AcDbBlockTableRecord
  2
*PAPER_SPACE
  0
ENDTAB
  0
ENDSEC
  0
SECTION
  2
BLOCKS
  0
BLOCK
  5
20
330
1F
100
AcDbEntity
  8
0
100
AcDbBlockBegin
  2
*MODEL_SPACE
 70
     0
 10
0.0
 20
0.0
 30
0.0
  3
*MODEL_SPACE
  1

  0
ENDBLK
  5
21
330
1F
100
AcDbEntity
  8
0
100
AcDbBlockEnd
  0
BLOCK
  5
1C
330
1B
100
AcDbEntity
 67
     1
  8
0
100
AcDbBlockBegin
  2
*PAPER_SPACE
  1

  0
ENDBLK
  5
1D
330
1B
100
AcDbEntity
 67
     1
  8
0
100
AcDbBlockEnd
  0
ENDSEC
  0
SECTION
  2
ENTITIES
  0
SPLINE
  5
100
100
AcDbEntity
  8
Ebene_1
 62
7
100
AcDbSpline
 70
8
 71
3
 72
8
 73
4
 74
0
 40
0
 40
0
 40
0
 40
0
 40
1
 40
1
 40
1
 40
1
 10
-186.908704
 20
218.316617
 30
0.0
 10
-187.588436
 20
218.774370
 30
0.0
 10
-188.435250
 20
219.845204
 30
0.0
 10
-188.435250
 20
220.246994
 30
0.0
  0
SPLINE
  5
101
100
AcDbEntity
  8
Ebene_1
 62
7
100
AcDbSpline
 70
8
 71
3
 72
8
 73
4
 74
0
 40
0
 40
0
 40
0
 40
0
 40
1
 40
1
 40
1
 40
1
 10
-188.435250
 20
220.246994
 30
0.0
 10
-188.435250
 20
220.391362
 30
0.0
 10
-187.031636
 20
220.425250
 30
0.0
 10
-181.054586
 20
220.425250
 30
0.0
  0
SPLINE
  5
102
100
AcDbEntity
  8
Ebene_1
 62
7
100
AcDbSpline
 70
8
 71
3
 72
8
 73
4
 74
0
 40
0
 40
0
 40
0
 40
0
 40
1
 40
1
 40
1
 40
1
 10
-181.054586
 20
220.425250
 30
0.0
 10
-176.036787
 20
220.425250
 30
0.0
 10
-173.673960
 20
220.379738
 30
0.0
 10
-173.673960
 20
220.283131
 30
0.0
  0
SPLINE
  5
103
100
AcDbEntity
  8
Ebene_1
 62
7
100
AcDbSpline
 70
8
 71
3
 72
8
 73
4
 74
0
 40
0
 40
0
 40
0
 40
0
 40
1
 40
1
 40
1
 40
1
 10
-173.673960
 20
220.283131
 30
0.0
 10
-173.673960
 20
220.002623
 30
0.0
 10
-174.203109
 20
219.119854
 30
0.0
 10
-174.584034
 20
218.764883
 30
0.0
  0
SPLINE
  5
104
100
AcDbEntity
  8
Ebene_1
 62
7
100
AcDbSpline
 70
8
 71
3
 72
8
 73
4
 74
0
 40
0
 40
0
 40
0
 40
0
 40
1
 40
1
 40
1
 40
1
 10
-174.584034
 20
218.764883
 30
0.0
 10
-174.797642
 20
218.565814
 30
0.0
 10
-175.187690
 20
218.273887
 30
0.0
 10
-175.450785
 20
218.116166
 30
0.0
  0
SPLINE
  5
105
100
AcDbEntity
  8
Ebene_1
 62
7
100
AcDbSpline
 70
8
 71
3
 72
8
 73
4
 74
0
 40
0
 40
0
 40
0
 40
0
 40
1
 40
1
 40
1
 40
1
 10
-175.450785
 20
218.116166
 30
0.0
 10
-175.913892
 20
217.838517
 30
0.0
 10
-176.092756
 20
217.829374
 30
0.0
 10
-181.056418
 20
217.828871
 30
0.0
  0
LWPOLYLINE
  5
106
100
AcDbEntity
  8
Ebene_1
 62
7
100
AcDbPolyline
 90
4
 70
1
 10
0.877374
 20
260.990474
 30
0.0
 10
0.877374
 20
41.390470
 30
0.0
 10
-298.722610
 20
41.390470
 30
0.0
 10
-298.722610
 20
260.990474
 30
0.0
  0
SPLINE
  5
107
100
AcDbEntity
  8
Ebene_1
 62
7
100
AcDbSpline
 70
8
 71
3
 72
8
 73
4
 74
0
 40
0
 40
0
 40
0
 40
0
 40
1
 40
1
 40
1
 40
1
 10
-250.762218
 20
218.307879
 30
0.0
 10
-251.642715
 20
218.900414
 30
0.0
 10
-252.382485
 20
219.781867
 30
0.0
 10
-252.395883
 20
220.254442
 30
0.0
  0
SPLINE
  5
108
100
AcDbEntity
  8
Ebene_1
 62
7
100
AcDbSpline
 70
8
 71
3
 72
8
 73
4
 74
0
 40
0
 40
0
 40
0
 40
0
 40
1
 40
1
 40
1
 40
1
 10
-252.395883
 20
220.254442
 30
0.0
 10
-252.399641
 20
220.389076
 30
0.0
 10
-250.834235
 20
220.425295
 30
0.0
 10
-245.010878
 20
220.425295
 30
0.0
  0
LWPOLYLINE
  5
109
100
AcDbEntity
  8
Ebene_1
 62
7
100
AcDbPolyline
 90
4
 70
0
 10
-181.056418
 20
217.828871
 30
0.0
 10
-186.183704
 20
217.828871
 30
0.0
 10
-186.908704
 20
218.317121
 30
0.0
 10
-186.908704
 20
218.316617
 30
0.0
  0
SPLINE
  5
10a
100
AcDbEntity
  8
Ebene_1
 62
7
100
AcDbSpline
 70
8
 71
3
 72
8
 73
4
 74
0
 40
0
 40
0
 40
0
 40
0
 40
1
 40
1
 40
1
 40
1
 10
-237.712266
 20
220.117772
 30
0.0
 10
-237.886939
 20
219.528951
 30
0.0
 10
-238.524288
 20
218.748808
 30
0.0
 10
-239.205410
 20
218.290110
 30
0.0
  0
LWPOLYLINE
  5
10b
100
AcDbEntity
  8
Ebene_1
 62
7
100
AcDbPolyline
 90
3
 70
0
 10
-245.010878
 20
220.425295
 30
0.0
 10
-237.621035
 20
220.425295
 30
0.0
 10
-237.712266
 20
220.117772
 30
0.0
  0
SPLINE
  5
10c
100
AcDbEntity
  8
Ebene_1
 62
7
100
AcDbSpline
 70
8
 71
3
 72
8
 73
4
 74
0
 40
0
 40
0
 40
0
 40
0
 40
1
 40
1
 40
1
 40
1
 10
-250.282217
 20
212.592612
 30
0.0
 10
-251.026694
 20
212.992796
 30
0.0
 10
-251.566489
 20
213.472186
 30
0.0
 10
-251.986377
 20
214.106114
 30
0.0
  0
SPLINE
  5
10d
100
AcDbEntity
  8
Ebene_1
 62
7
100
AcDbSpline
 70
8
 71
3
 72
8
 73
4
 74
0
 40
0
 40
0
 40
0
 40
0
 40
1
 40
1
 40
1
 40
1
 10
-251.986377
 20
214.106114
 30
0.0
 10
-252.795213
 20
215.327211
 30
0.0
 10
-253.387651
 20
215.231513
 30
0.0
 10
-245.020095
 20
215.231513
 30
0.0
  0
SPLINE
  5
10e
100
AcDbEntity
  8
Ebene_1
 62
7
100
AcDbSpline
 70
8
 71
3
 72
8
 73
4
 74
0
 40
0
 40
0
 40
0
 40
0
 40
1
 40
1
 40
1
 40
1
 10
-245.020095
 20
215.231513
 30
0.0
 10
-239.957996
 20
215.231513
 30
0.0
 10
-237.639460
 20
215.186537
 30
0.0
 10
-237.639460
 20
215.088037
 30
0.0
  0
SPLINE
  5
10f
100
AcDbEntity
  8
Ebene_1
 62
7
100
AcDbSpline
 70
8
 71
3
 72
8
 73
4
 74
0
 40
0
 40
0
 40
0
 40
0
 40
1
 40
1
 40
1
 40
1
 10
-237.639460
 20
215.088037
 30
0.0
 10
-237.639460
 20
214.542933
 30
0.0
 10
-238.608829
 20
213.254004
 30
0.0
 10
-239.392626
 20
212.756926
 30
0.0
  0
LWPOLYLINE
  5
110
100
AcDbEntity
  8
Ebene_1
 62
7
100
AcDbPolyline
 90
5
 70
0
 10
-239.205410
 20
218.290110
 30
0.0
 10
-239.891005
 20
217.828397
 30
0.0
 10
-244.970383
 20
217.828397
 30
0.0
 10
-250.049752
 20
217.828397
 30
0.0
 10
-250.762218
 20
218.307879
 30
0.0
  0
SPLINE
  5
111
100
AcDbEntity
  8
Ebene_1
 62
7
100
AcDbSpline
 70
8
 71
3
 72
8
 73
4
 74
0
 40
0
 40
0
 40
0
 40
0
 40
1
 40
1
 40
1
 40
1
 10
-244.944348
 20
212.366627
 30
0.0
 10
-249.209863
 20
212.371982
 30
0.0
 10
-249.927290
 20
212.401738
 30
0.0
 10
-250.282217
 20
212.592502
 30
0.0
  0
LWPOLYLINE
  5
112
100
AcDbEntity
  8
Ebene_1
 62
7
100
AcDbPolyline
 90
3
 70
0
 10
-239.392626
 20
212.756926
 30
0.0
 10
-240.016521
 20
212.361271
 30
0.0
 10
-244.944348
 20
212.366627
 30
0.0
  0
LWPOLYLINE
  5
113
100
AcDbEntity
  8
Ebene_1
 62
7
100
AcDbPolyline
 90
2
 70
0
 10
-250.282217
 20
212.592502
 30
0.0
 10
-250.282217
 20
212.592612
 30
0.0
  0
LWPOLYLINE
  5
114
100
AcDbEntity
  8
Ebene_1
 62
7
100
AcDbPolyline
 90
16
 70
1
 10
-188.025208
 20
210.995724
 30
0.0
 10
-188.025208
 20
215.234025
 30
0.0
 10
-181.020414
 20
215.198575
 30
0.0
 10
-174.015667
 20
215.163126
 30
0.0
 10
-173.979400
 20
210.960272
 30
0.0
 10
-173.943134
 20
206.757411
 30
0.0
 10
-175.175213
 20
206.757411
 30
0.0
 10
-176.407310
 20
206.757411
 30
0.0
 10
-176.407310
 20
209.559325
 30
0.0
 10
-176.407310
 20
212.361231
 30
0.0
 10
-180.986017
 20
212.361231
 30
0.0
 10
-185.564752
 20
212.361231
 30
0.0
 10
-185.564752
 20
209.559325
 30
0.0
 10
-185.564752
 20
206.757423
 30
0.0
 10
-186.794858
 20
206.757423
 30
0.0
 10
-188.024964
 20
206.757423
 30
0.0
  0
SPLINE
  5
115
100
AcDbEntity
  8
Ebene_1
 62
7
100
AcDbSpline
 70
8
 71
3
 72
8
 73
4
 74
0
 40
0
 40
0
 40
0
 40
0
 40
1
 40
1
 40
1
 40
1
 10
-195.549108
 20
209.057963
 30
0.0
 10
-195.745823
 20
208.372113
 30
0.0
 10
-196.302407
 20
207.632028
 30
0.0
 10
-196.963677
 20
207.177063
 30
0.0
  0
LWPOLYLINE
  5
116
100
AcDbEntity
  8
Ebene_1
 62
7
100
AcDbPolyline
 90
9
 70
0
 10
-208.936991
 20
213.659706
 30
0.0
 10
-208.936991
 20
220.561951
 30
0.0
 10
-207.706894
 20
220.561951
 30
0.0
 10
-206.476788
 20
220.561951
 30
0.0
 10
-206.476788
 20
215.026463
 30
0.0
 10
-206.476788
 20
209.490994
 30
0.0
 10
-200.950857
 20
209.490994
 30
0.0
 10
-195.424917
 20
209.490994
 30
0.0
 10
-195.549108
 20
209.057963
 30
0.0
  0
SPLINE
  5
117
100
AcDbEntity
  8
Ebene_1
 62
7
100
AcDbSpline
 70
8
 71
3
 72
8
 73
4
 74
0
 40
0
 40
0
 40
0
 40
0
 40
1
 40
1
 40
1
 40
1
 10
-250.282217
 20
207.028343
 30
0.0
 10
-251.096672
 20
207.431590
 30
0.0
 10
-251.828184
 20
208.084470
 30
0.0
 10
-252.131332
 20
208.678723
 30
0.0
  0
SPLINE
  5
118
100
AcDbEntity
  8
Ebene_1
 62
7
100
AcDbSpline
 70
8
 71
3
 72
8
 73
4
 74
0
 40
0
 40
0
 40
0
 40
0
 40
1
 40
1
 40
1
 40
1
 10
-252.131332
 20
208.678723
 30
0.0
 10
-252.279500
 20
208.969146
 30
0.0
 10
-252.400722
 20
209.270733
 30
0.0
 10
-252.400722
 20
209.348896
 30
0.0
  0
SPLINE
  5
119
100
AcDbEntity
  8
Ebene_1
 62
7
100
AcDbSpline
 70
8
 71
3
 72
8
 73
4
 74
0
 40
0
 40
0
 40
0
 40
0
 40
1
 40
1
 40
1
 40
1
 10
-252.400722
 20
209.348896
 30
0.0
 10
-252.400722
 20
209.445486
 30
0.0
 10
-250.037904
 20
209.491022
 30
0.0
 10
-245.020095
 20
209.491022
 30
0.0
  0
SPLINE
  5
11a
100
AcDbEntity
  8
Ebene_1
 62
7
100
AcDbSpline
 70
8
 71
3
 72
8
 73
4
 74
0
 40
0
 40
0
 40
0
 40
0
 40
1
 40
1
 40
1
 40
1
 10
-245.020095
 20
209.491022
 30
0.0
 10
-239.043074
 20
209.491022
 30
0.0
 10
-237.639460
 20
209.457255
 30
0.0
 10
-237.639460
 20
209.312765
 30
0.0
  0
SPLINE
  5
11b
100
AcDbEntity
  8
Ebene_1
 62
7
100
AcDbSpline
 70
8
 71
3
 72
8
 73
4
 74
0
 40
0
 40
0
 40
0
 40
0
 40
1
 40
1
 40
1
 40
1
 10
-237.639460
 20
209.312765
 30
0.0
 10
-237.639460
 20
208.997501
 30
0.0
 10
-238.416502
 20
207.897390
 30
0.0
 10
-238.889362
 20
207.543238
 30
0.0
  0
SPLINE
  5
11c
100
AcDbEntity
  8
Ebene_1
 62
7
100
AcDbSpline
 70
8
 71
3
 72
8
 73
4
 74
0
 40
0
 40
0
 40
0
 40
0
 40
1
 40
1
 40
1
 40
1
 10
-238.889362
 20
207.543238
 30
0.0
 10
-239.961989
 20
206.739827
 30
0.0
 10
-239.825518
 20
206.757436
 30
0.0
 10
-244.979140
 20
206.757556
 30
0.0
  0
SPLINE
  5
11d
100
AcDbEntity
  8
Ebene_1
 62
7
100
AcDbSpline
 70
8
 71
3
 72
8
 73
4
 74
0
 40
0
 40
0
 40
0
 40
0
 40
1
 40
1
 40
1
 40
1
 10
-244.979140
 20
206.757556
 30
0.0
 10
-249.444555
 20
206.757658
 30
0.0
 10
-249.768947
 20
206.774196
 30
0.0
 10
-250.282217
 20
207.028343
 30
0.0
  0
LWPOLYLINE
  5
11e
100
AcDbEntity
  8
Ebene_1
 62
7
100
AcDbPolyline
 90
5
 70
0
 10
-196.963677
 20
207.177063
 30
0.0
 10
-197.573600
 20
206.757410
 30
0.0
 10
-203.255291
 20
206.757410
 30
0.0
 10
-208.936991
 20
206.757410
 30
0.0
 10
-208.936991
 20
213.659706
 30
0.0
  0
SPLINE
  5
11f
100
AcDbEntity
  8
Ebene_1
 62
7
100
AcDbSpline
 70
8
 71
3
 72
8
 73
4
 74
0
 40
0
 40
0
 40
0
 40
0
 40
1
 40
1
 40
1
 40
1
 10
-230.258824
 20
206.758940
 30
0.0
 10
-230.258824
 20
207.106412
 30
0.0
 10
-229.638632
 20
208.160416
 30
0.0
 10
-229.215634
 20
208.531815
 30
0.0
  0
SPLINE
  5
120
100
AcDbEntity
  8
Ebene_1
 62
7
100
AcDbSpline
 70
8
 71
3
 72
8
 73
4
 74
0
 40
0
 40
0
 40
0
 40
0
 40
1
 40
1
 40
1
 40
1
 10
-229.215634
 20
208.531815
 30
0.0
 10
-228.116915
 20
209.496513
 30
0.0
 10
-228.151237
 20
209.491022
 30
0.0
 10
-223.225336
 20
209.491022
 30
0.0
  0
LWPOLYLINE
  5
121
100
AcDbEntity
  8
Ebene_1
 62
7
100
AcDbPolyline
 90
1
 70
1
 10
-250.282217
 20
207.028343
 30
0.0
  0
SPLINE
  5
122
100
AcDbEntity
  8
Ebene_1
 62
7
100
AcDbSpline
 70
8
 71
3
 72
8
 73
4
 74
0
 40
0
 40
0
 40
0
 40
0
 40
1
 40
1
 40
1
 40
1
 10
-223.288230
 20
220.561969
 30
0.0
 10
-219.454395
 20
220.561969
 30
0.0
 10
-216.317617
 20
220.538678
 30
0.0
 10
-216.317617
 20
220.510341
 30
0.0
  0
SPLINE
  5
123
100
AcDbEntity
  8
Ebene_1
 62
7
100
AcDbSpline
 70
8
 71
3
 72
8
 73
4
 74
0
 40
0
 40
0
 40
0
 40
0
 40
1
 40
1
 40
1
 40
1
 10
-216.317617
 20
220.510341
 30
0.0
 10
-216.317617
 20
220.481881
 30
0.0
 10
-216.407627
 20
220.243341
 30
0.0
 10
-216.517583
 20
219.980133
 30
0.0
  0
SPLINE
  5
124
100
AcDbEntity
  8
Ebene_1
 62
7
100
AcDbSpline
 70
8
 71
3
 72
8
 73
4
 74
0
 40
0
 40
0
 40
0
 40
0
 40
1
 40
1
 40
1
 40
1
 10
-216.517583
 20
219.980133
 30
0.0
 10
-216.774599
 20
219.364996
 30
0.0
 10
-217.328393
 20
218.710095
 30
0.0
 10
-218.007542
 20
218.218098
 30
0.0
  0
LWPOLYLINE
  5
125
100
AcDbEntity
  8
Ebene_1
 62
7
100
AcDbPolyline
 90
9
 70
0
 10
-223.225336
 20
209.491022
 30
0.0
 10
-218.777838
 20
209.491022
 30
0.0
 10
-218.777838
 20
210.926133
 30
0.0
 10
-218.777838
 20
212.361270
 30
0.0
 10
-224.518355
 20
212.361270
 30
0.0
 10
-230.258824
 20
212.361270
 30
0.0
 10
-230.258824
 20
216.461607
 30
0.0
 10
-230.258824
 20
220.561969
 30
0.0
 10
-223.288230
 20
220.561969
 30
0.0
  0
SPLINE
  5
126
100
AcDbEntity
  8
Ebene_1
 62
7
100
AcDbSpline
 70
8
 71
3
 72
8
 73
4
 74
0
 40
0
 40
0
 40
0
 40
0
 40
1
 40
1
 40
1
 40
1
 10
-223.219886
 20
206.620777
 30
0.0
 10
-227.871973
 20
206.620777
 30
0.0
 10
-230.258824
 20
206.667567
 30
0.0
 10
-230.258824
 20
206.758942
 30
0.0
  0
LWPOLYLINE
  5
127
100
AcDbEntity
  8
Ebene_1
 62
7
100
AcDbPolyline
 90
11
 70
0
 10
-218.007542
 20
218.218098
 30
0.0
 10
-218.545505
 20
217.828421
 30
0.0
 10
-223.172063
 20
217.828421
 30
0.0
 10
-227.798612
 20
217.828421
 30
0.0
 10
-227.798612
 20
216.461645
 30
0.0
 10
-227.798612
 20
215.094859
 30
0.0
 10
-221.989790
 20
215.094859
 30
0.0
 10
-216.180958
 20
215.094859
 30
0.0
 10
-216.180958
 20
210.857795
 30
0.0
 10
-216.180958
 20
206.620777
 30
0.0
 10
-223.219886
 20
206.620777
 30
0.0
  0
LWPOLYLINE
  5
128
100
AcDbEntity
  8
Ebene_1
 62
7
100
AcDbPolyline
 90
1
 70
1
 10
-230.258824
 20
206.758942
 30
0.0
  0
SPLINE
  5
129
100
AcDbEntity
  8
Ebene_1
 62
7
100
AcDbSpline
 70
8
 71
3
 72
8
 73
4
 74
0
 40
0
 40
0
 40
0
 40
0
 40
1
 40
1
 40
1
 40
1
 10
-273.328420
 20
218.351052
 30
0.0
 10
-273.675445
 20
218.600889
 30
0.0
 10
-274.081071
 20
218.969916
 30
0.0
 10
-274.229822
 20
219.171127
 30
0.0
  0
SPLINE
  5
12a
100
AcDbEntity
  8
Ebene_1
 62
7
100
AcDbSpline
 70
8
 71
3
 72
8
 73
4
 74
0
 40
0
 40
0
 40
0
 40
0
 40
1
 40
1
 40
1
 40
1
 10
-274.229822
 20
219.171127
 30
0.0
 10
-274.510421
 20
219.550655
 30
0.0
 10
-274.952661
 20
220.355677
 30
0.0
 10
-274.952661
 20
220.486896
 30
0.0
  0
SPLINE
  5
12b
100
AcDbEntity
  8
Ebene_1
 62
7
100
AcDbSpline
 70
8
 71
3
 72
8
 73
4
 74
0
 40
0
 40
0
 40
0
 40
0
 40
1
 40
1
 40
1
 40
1
 10
-274.952661
 20
220.486896
 30
0.0
 10
-274.952661
 20
220.528246
 30
0.0
 10
-271.293113
 20
220.562042
 30
0.0
 10
-266.820304
 20
220.562042
 30
0.0
  0
SPLINE
  5
12c
100
AcDbEntity
  8
Ebene_1
 62
7
100
AcDbSpline
 70
8
 71
3
 72
8
 73
4
 74
0
 40
0
 40
0
 40
0
 40
0
 40
1
 40
1
 40
1
 40
1
 10
-266.820304
 20
220.562042
 30
0.0
 10
-261.282131
 20
220.562042
 30
0.0
 10
-258.687948
 20
220.516727
 30
0.0
 10
-258.687948
 20
220.419914
 30
0.0
  0
SPLINE
  5
12d
100
AcDbEntity
  8
Ebene_1
 62
7
100
AcDbSpline
 70
8
 71
3
 72
8
 73
4
 74
0
 40
0
 40
0
 40
0
 40
0
 40
1
 40
1
 40
1
 40
1
 10
-258.687948
 20
220.419914
 30
0.0
 10
-258.687948
 20
220.104015
 30
0.0
 10
-259.242455
 20
219.234894
 30
0.0
 10
-259.735620
 20
218.777839
 30
0.0
  0
SPLINE
  5
12e
100
AcDbEntity
  8
Ebene_1
 62
7
100
AcDbSpline
 70
8
 71
3
 72
8
 73
4
 74
0
 40
0
 40
0
 40
0
 40
0
 40
1
 40
1
 40
1
 40
1
 10
-259.735620
 20
218.777839
 30
0.0
 10
-260.714356
 20
217.870755
 30
0.0
 10
-260.603282
 20
217.901947
 30
0.0
 10
-263.116269
 20
217.828468
 30
0.0
  0
LWPOLYLINE
  5
12f
100
AcDbEntity
  8
Ebene_1
 62
7
100
AcDbPolyline
 90
5
 70
0
 10
-268.151384
 20
212.190411
 30
0.0
 10
-268.187088
 20
217.760069
 30
0.0
 10
-270.442288
 20
217.828440
 30
0.0
 10
-272.697479
 20
217.896812
 30
0.0
 10
-273.328420
 20
218.351052
 30
0.0
  0
SPLINE
  5
130
100
AcDbEntity
  8
Ebene_1
 62
7
100
AcDbSpline
 70
8
 71
3
 72
8
 73
4
 74
0
 40
0
 40
0
 40
0
 40
0
 40
1
 40
1
 40
1
 40
1
 10
-266.279974
 20
243.899047
 30
0.0
 10
-279.232955
 20
243.899047
 30
0.0
 10
-289.732949
 20
233.413208
 30
0.0
 10
-289.732949
 20
220.477722
 30
0.0
  0
LWPOLYLINE
  5
131
100
AcDbEntity
  8
Ebene_1
 62
7
100
AcDbPolyline
 90
7
 70
0
 10
-263.116269
 20
217.828468
 30
0.0
 10
-265.453521
 20
217.760097
 30
0.0
 10
-265.489318
 20
212.190438
 30
0.0
 10
-265.525021
 20
206.620801
 30
0.0
 10
-266.820408
 20
206.620801
 30
0.0
 10
-268.115794
 20
206.620801
 30
0.0
 10
-268.151384
 20
212.190411
 30
0.0
  0
SPLINE
  5
132
100
AcDbEntity
  8
Ebene_1
 62
7
100
AcDbSpline
 70
8
 71
3
 72
8
 73
4
 74
0
 40
0
 40
0
 40
0
 40
0
 40
1
 40
1
 40
1
 40
1
 10
-289.732949
 20
79.602335
 30
0.0
 10
-289.732949
 20
66.666830
 30
0.0
 10
-279.232955
 20
56.181005
 30
0.0
 10
-266.279974
 20
56.181005
 30
0.0
  0
LWPOLYLINE
  5
133
100
AcDbEntity
  8
Ebene_1
 62
7
100
AcDbPolyline
 90
2
 70
0
 10
-289.732949
 20
220.477722
 30
0.0
 10
-289.732949
 20
79.602335
 30
0.0
  0
SPLINE
  5
134
100
AcDbEntity
  8
Ebene_1
 62
7
100
AcDbSpline
 70
8
 71
3
 72
8
 73
4
 74
0
 40
0
 40
0
 40
0
 40
0
 40
1
 40
1
 40
1
 40
1
 10
-181.639968
 20
56.181005
 30
0.0
 10
-168.686997
 20
56.181005
 30
0.0
 10
-158.186993
 20
66.666830
 30
0.0
 10
-158.186993
 20
79.602335
 30
0.0
  0
LWPOLYLINE
  5
135
100
AcDbEntity
  8
Ebene_1
 62
7
100
AcDbPolyline
 90
2
 70
0
 10
-266.279974
 20
56.181005
 30
0.0
 10
-181.639968
 20
56.181005
 30
0.0
  0
SPLINE
  5
136
100
AcDbEntity
  8
Ebene_1
 62
7
100
AcDbSpline
 70
8
 71
3
 72
8
 73
4
 74
0
 40
0
 40
0
 40
0
 40
0
 40
1
 40
1
 40
1
 40
1
 10
-158.186993
 20
220.477722
 30
0.0
 10
-158.186993
 20
233.413208
 30
0.0
 10
-168.686997
 20
243.899047
 30
0.0
 10
-181.639968
 20
243.899047
 30
0.0
  0
LWPOLYLINE
  5
137
100
AcDbEntity
  8
Ebene_1
 62
7
100
AcDbPolyline
 90
2
 70
0
 10
-158.186993
 20
79.602335
 30
0.0
 10
-158.186993
 20
220.477722
 30
0.0
  0
LWPOLYLINE
  5
138
100
AcDbEntity
  8
Ebene_1
 62
7
100
AcDbPolyline
 90
2
 70
0
 10
-181.639968
 20
243.899047
 30
0.0
 10
-266.279974
 20
243.899047
 30
0.0
  0
SPLINE
  5
139
100
AcDbEntity
  8
Ebene_1
 62
7
100
AcDbSpline
 70
8
 71
3
 72
8
 73
4
 74
0
 40
0
 40
0
 40
0
 40
0
 40
1
 40
1
 40
1
 40
1
 10
-181.639968
 20
239.320557
 30
0.0
 10
-171.147603
 20
239.320557
 30
0.0
 10
-162.771666
 20
230.955920
 30
0.0
 10
-162.771666
 20
220.477722
 30
0.0
  0
LWPOLYLINE
  5
13a
100
AcDbEntity
  8
Ebene_1
 62
7
100
AcDbPolyline
 90
2
 70
0
 10
-266.279974
 20
239.320557
 30
0.0
 10
-181.639968
 20
239.320557
 30
0.0
  0
SPLINE
  5
13b
100
AcDbEntity
  8
Ebene_1
 62
7
100
AcDbSpline
 70
8
 71
3
 72
8
 73
4
 74
0
 40
0
 40
0
 40
0
 40
0
 40
1
 40
1
 40
1
 40
1
 10
-162.771666
 20
79.602335
 30
0.0
 10
-162.771666
 20
69.124129
 30
0.0
 10
-171.147603
 20
60.759495
 30
0.0
 10
-181.639968
 20
60.759495
 30
0.0
  0
LWPOLYLINE
  5
13c
100
AcDbEntity
  8
Ebene_1
 62
7
100
AcDbPolyline
 90
2
 70
0
 10
-162.771666
 20
220.477722
 30
0.0
 10
-162.771666
 20
79.602335
 30
0.0
  0
SPLINE
  5
13d
100
AcDbEntity
  8
Ebene_1
 62
7
100
AcDbSpline
 70
8
 71
3
 72
8
 73
4
 74
0
 40
0
 40
0
 40
0
 40
0
 40
1
 40
1
 40
1
 40
1
 10
-266.279974
 20
60.759495
 30
0.0
 10
-276.772348
 20
60.759495
 30
0.0
 10
-285.148276
 20
69.124129
 30
0.0
 10
-285.148276
 20
79.602335
 30
0.0
  0
LWPOLYLINE
  5
13e
100
AcDbEntity
  8
Ebene_1
 62
7
100
AcDbPolyline
 90
2
 70
0
 10
-181.639968
 20
60.759495
 30
0.0
 10
-266.279974
 20
60.759495
 30
0.0
  0
SPLINE
  5
13f
100
AcDbEntity
  8
Ebene_1
 62
7
100
AcDbSpline
 70
8
 71
3
 72
8
 73
4
 74
0
 40
0
 40
0
 40
0
 40
0
 40
1
 40
1
 40
1
 40
1
 10
-285.148276
 20
220.477722
 30
0.0
 10
-285.148276
 20
230.955920
 30
0.0
 10
-276.772348
 20
239.320557
 30
0.0
 10
-266.279974
 20
239.320557
 30
0.0
  0
LWPOLYLINE
  5
140
100
AcDbEntity
  8
Ebene_1
 62
7
100
AcDbPolyline
 90
2
 70
0
 10
-285.148276
 20
79.602335
 30
0.0
 10
-285.148276
 20
220.477722
 30
0.0
  0
SPLINE
  5
141
100
AcDbEntity
  8
Ebene_1
 62
7
100
AcDbSpline
 70
8
 71
3
 72
8
 73
4
 74
0
 40
0
 40
0
 40
0
 40
0
 40
1
 40
1
 40
1
 40
1
 10
-274.251610
 20
70.836331
 30
0.0
 10
-274.251614
 20
69.909423
 30
0.0
 10
-275.003024
 20
69.158018
 30
0.0
 10
-275.929932
 20
69.158019
 30
0.0
  0
SPLINE
  5
142
100
AcDbEntity
  8
Ebene_1
 62
7
100
AcDbSpline
 70
8
 71
3
 72
8
 73
4
 74
0
 40
0
 40
0
 40
0
 40
0
 40
1
 40
1
 40
1
 40
1
 10
-275.929932
 20
69.158019
 30
0.0
 10
-276.856837
 20
69.158023
 30
0.0
 10
-277.608240
 20
69.909427
 30
0.0
 10
-277.608244
 20
70.836331
 30
0.0
  0
SPLINE
  5
143
100
AcDbEntity
  8
Ebene_1
 62
7
100
AcDbSpline
 70
8
 71
3
 72
8
 73
4
 74
0
 40
0
 40
0
 40
0
 40
0
 40
1
 40
1
 40
1
 40
1
 10
-277.608244
 20
70.836331
 30
0.0
 10
-277.608245
 20
71.763240
 30
0.0
 10
-276.856840
 20
72.514649
 30
0.0
 10
-275.929932
 20
72.514653
 30
0.0
  0
SPLINE
  5
144
100
AcDbEntity
  8
Ebene_1
 62
7
100
AcDbSpline
 70
8
 71
3
 72
8
 73
4
 74
0
 40
0
 40
0
 40
0
 40
0
 40
1
 40
1
 40
1
 40
1
 10
-275.929932
 20
72.514653
 30
0.0
 10
-275.484813
 20
72.514654
 30
0.0
 10
-275.057925
 20
72.337831
 30
0.0
 10
-274.743179
 20
72.023085
 30
0.0
  0
SPLINE
  5
145
100
AcDbEntity
  8
Ebene_1
 62
7
100
AcDbSpline
 70
8
 71
3
 72
8
 73
4
 74
0
 40
0
 40
0
 40
0
 40
0
 40
1
 40
1
 40
1
 40
1
 10
-274.743179
 20
72.023085
 30
0.0
 10
-274.428432
 20
71.708338
 30
0.0
 10
-274.251610
 20
71.281450
 30
0.0
 10
-274.251610
 20
70.836331
 30
0.0
  0
LWPOLYLINE
  5
146
100
AcDbEntity
  8
Ebene_1
 62
7
100
AcDbPolyline
 90
1
 70
1
 10
-266.279974
 20
239.320557
 30
0.0
  0
SPLINE
  5
147
100
AcDbEntity
  8
Ebene_1
 62
7
100
AcDbSpline
 70
8
 71
3
 72
8
 73
4
 74
0
 40
0
 40
0
 40
0
 40
0
 40
1
 40
1
 40
1
 40
1
 10
-170.253755
 20
71.032145
 30
0.0
 10
-170.253752
 20
70.587026
 30
0.0
 10
-170.430572
 20
70.160137
 30
0.0
 10
-170.745317
 20
69.845388
 30
0.0
  0
SPLINE
  5
148
100
AcDbEntity
  8
Ebene_1
 62
7
100
AcDbSpline
 70
8
 71
3
 72
8
 73
4
 74
0
 40
0
 40
0
 40
0
 40
0
 40
1
 40
1
 40
1
 40
1
 10
-170.745317
 20
69.845388
 30
0.0
 10
-171.060062
 20
69.530640
 30
0.0
 10
-171.486949
 20
69.353815
 30
0.0
 10
-171.932068
 20
69.353813
 30
0.0
  0
SPLINE
  5
149
100
AcDbEntity
  8
Ebene_1
 62
7
100
AcDbSpline
 70
8
 71
3
 72
8
 73
4
 74
0
 40
0
 40
0
 40
0
 40
0
 40
1
 40
1
 40
1
 40
1
 10
-171.932068
 20
69.353813
 30
0.0
 10
-172.377188
 20
69.353813
 30
0.0
 10
-172.804077
 20
69.530637
 30
0.0
 10
-173.118824
 20
69.845385
 30
0.0
  0
SPLINE
  5
14a
100
AcDbEntity
  8
Ebene_1
 62
7
100
AcDbSpline
 70
8
 71
3
 72
8
 73
4
 74
0
 40
0
 40
0
 40
0
 40
0
 40
1
 40
1
 40
1
 40
1
 10
-173.118824
 20
69.845385
 30
0.0
 10
-173.433571
 20
70.160134
 30
0.0
 10
-173.610392
 20
70.587024
 30
0.0
 10
-173.610389
 20
71.032145
 30
0.0
  0
SPLINE
  5
14b
100
AcDbEntity
  8
Ebene_1
 62
7
100
AcDbSpline
 70
8
 71
3
 72
8
 73
4
 74
0
 40
0
 40
0
 40
0
 40
0
 40
1
 40
1
 40
1
 40
1
 10
-173.610389
 20
71.032145
 30
0.0
 10
-173.610385
 20
71.959053
 30
0.0
 10
-172.858976
 20
72.710458
 30
0.0
 10
-171.932068
 20
72.710457
 30
0.0
  0
SPLINE
  5
14c
100
AcDbEntity
  8
Ebene_1
 62
7
100
AcDbSpline
 70
8
 71
3
 72
8
 73
4
 74
0
 40
0
 40
0
 40
0
 40
0
 40
1
 40
1
 40
1
 40
1
 10
-171.932068
 20
72.710457
 30
0.0
 10
-171.005163
 20
72.710453
 30
0.0
 10
-170.253759
 20
71.959049
 30
0.0
 10
-170.253755
 20
71.032145
 30
0.0
  0
LWPOLYLINE
  5
14d
100
AcDbEntity
  8
Ebene_1
 62
7
100
AcDbPolyline
 90
1
 70
1
 10
-274.251610
 20
70.836331
 30
0.0
  0
SPLINE
  5
14e
100
AcDbEntity
  8
Ebene_1
 62
7
100
AcDbSpline
 70
8
 71
3
 72
8
 73
4
 74
0
 40
0
 40
0
 40
0
 40
0
 40
1
 40
1
 40
1
 40
1
 10
-170.000000
 20
228.852106
 30
0.0
 10
-170.000004
 20
227.925198
 30
0.0
 10
-170.751413
 20
227.173793
 30
0.0
 10
-171.678321
 20
227.173794
 30
0.0
  0
SPLINE
  5
14f
100
AcDbEntity
  8
Ebene_1
 62
7
100
AcDbSpline
 70
8
 71
3
 72
8
 73
4
 74
0
 40
0
 40
0
 40
0
 40
0
 40
1
 40
1
 40
1
 40
1
 10
-171.678321
 20
227.173794
 30
0.0
 10
-172.605229
 20
227.173793
 30
0.0
 10
-173.356639
 20
227.925198
 30
0.0
 10
-173.356643
 20
228.852106
 30
0.0
  0
SPLINE
  5
150
100
AcDbEntity
  8
Ebene_1
 62
7
100
AcDbSpline
 70
8
 71
3
 72
8
 73
4
 74
0
 40
0
 40
0
 40
0
 40
0
 40
1
 40
1
 40
1
 40
1
 10
-173.356643
 20
228.852106
 30
0.0
 10
-173.356643
 20
229.297224
 30
0.0
 10
-173.179821
 20
229.724112
 30
0.0
 10
-172.865074
 20
230.038859
 30
0.0
  0
SPLINE
  5
151
100
AcDbEntity
  8
Ebene_1
 62
7
100
AcDbSpline
 70
8
 71
3
 72
8
 73
4
 74
0
 40
0
 40
0
 40
0
 40
0
 40
1
 40
1
 40
1
 40
1
 10
-172.865074
 20
230.038859
 30
0.0
 10
-172.550328
 20
230.353605
 30
0.0
 10
-172.123440
 20
230.530427
 30
0.0
 10
-171.678321
 20
230.530427
 30
0.0
  0
SPLINE
  5
152
100
AcDbEntity
  8
Ebene_1
 62
7
100
AcDbSpline
 70
8
 71
3
 72
8
 73
4
 74
0
 40
0
 40
0
 40
0
 40
0
 40
1
 40
1
 40
1
 40
1
 10
-171.678321
 20
230.530427
 30
0.0
 10
-171.233203
 20
230.530427
 30
0.0
 10
-170.806315
 20
230.353605
 30
0.0
 10
-170.491568
 20
230.038859
 30
0.0
  0
SPLINE
  5
153
100
AcDbEntity
  8
Ebene_1
 62
7
100
AcDbSpline
 70
8
 71
3
 72
8
 73
4
 74
0
 40
0
 40
0
 40
0
 40
0
 40
1
 40
1
 40
1
 40
1
 10
-170.491568
 20
230.038859
 30
0.0
 10
-170.176822
 20
229.724112
 30
0.0
 10
-169.999999
 20
229.297224
 30
0.0
 10
-170.000000
 20
228.852106
 30
0.0
  0
LWPOLYLINE
  5
154
100
AcDbEntity
  8
Ebene_1
 62
7
100
AcDbPolyline
 90
1
 70
1
 10
-170.253755
 20
71.032145
 30
0.0
  0
SPLINE
  5
155
100
AcDbEntity
  8
Ebene_1
 62
7
100
AcDbSpline
 70
8
 71
3
 72
8
 73
4
 74
0
 40
0
 40
0
 40
0
 40
0
 40
1
 40
1
 40
1
 40
1
 10
-274.055806
 20
228.852106
 30
0.0
 10
-274.055811
 20
227.925198
 30
0.0
 10
-274.807220
 20
227.173793
 30
0.0
 10
-275.734128
 20
227.173794
 30
0.0
  0
SPLINE
  5
156
100
AcDbEntity
  8
Ebene_1
 62
7
100
AcDbSpline
 70
8
 71
3
 72
8
 73
4
 74
0
 40
0
 40
0
 40
0
 40
0
 40
1
 40
1
 40
1
 40
1
 10
-275.734128
 20
227.173794
 30
0.0
 10
-276.661036
 20
227.173793
 30
0.0
 10
-277.412445
 20
227.925198
 30
0.0
 10
-277.412450
 20
228.852106
 30
0.0
  0
SPLINE
  5
157
100
AcDbEntity
  8
Ebene_1
 62
7
100
AcDbSpline
 70
8
 71
3
 72
8
 73
4
 74
0
 40
0
 40
0
 40
0
 40
0
 40
1
 40
1
 40
1
 40
1
 10
-277.412450
 20
228.852106
 30
0.0
 10
-277.412450
 20
229.297224
 30
0.0
 10
-277.235628
 20
229.724112
 30
0.0
 10
-276.920881
 20
230.038859
 30
0.0
  0
SPLINE
  5
158
100
AcDbEntity
  8
Ebene_1
 62
7
100
AcDbSpline
 70
8
 71
3
 72
8
 73
4
 74
0
 40
0
 40
0
 40
0
 40
0
 40
1
 40
1
 40
1
 40
1
 10
-276.920881
 20
230.038859
 30
0.0
 10
-276.606135
 20
230.353605
 30
0.0
 10
-276.179247
 20
230.530427
 30
0.0
 10
-275.734128
 20
230.530427
 30
0.0
  0
SPLINE
  5
159
100
AcDbEntity
  8
Ebene_1
 62
7
100
AcDbSpline
 70
8
 71
3
 72
8
 73
4
 74
0
 40
0
 40
0
 40
0
 40
0
 40
1
 40
1
 40
1
 40
1
 10
-275.734128
 20
230.530427
 30
0.0
 10
-275.289010
 20
230.530427
 30
0.0
 10
-274.862122
 20
230.353605
 30
0.0
 10
-274.547375
 20
230.038859
 30
0.0
  0
SPLINE
  5
15a
100
AcDbEntity
  8
Ebene_1
 62
7
100
AcDbSpline
 70
8
 71
3
 72
8
 73
4
 74
0
 40
0
 40
0
 40
0
 40
0
 40
1
 40
1
 40
1
 40
1
 10
-274.547375
 20
230.038859
 30
0.0
 10
-274.232629
 20
229.724112
 30
0.0
 10
-274.055806
 20
229.297224
 30
0.0
 10
-274.055806
 20
228.852106
 30
0.0
  0
LWPOLYLINE
  5
15b
100
AcDbEntity
  8
Ebene_1
 62
7
100
AcDbPolyline
 90
1
 70
1
 10
-170.000000
 20
228.852106
 30
0.0
  0
SPLINE
  5
15c
100
AcDbEntity
  8
Ebene_1
 62
7
100
AcDbSpline
 70
8
 71
3
 72
8
 73
4
 74
0
 40
0
 40
0
 40
0
 40
0
 40
1
 40
1
 40
1
 40
1
 10
-225.027829
 20
112.596034
 30
0.0
 10
-225.168566
 20
113.338275
 30
0.0
 10
-237.278792
 20
180.949107
 30
0.0
 10
-237.278792
 20
180.992580
 30
0.0
  0
SPLINE
  5
15d
100
AcDbEntity
  8
Ebene_1
 62
7
100
AcDbSpline
 70
8
 71
3
 72
8
 73
4
 74
0
 40
0
 40
0
 40
0
 40
0
 40
1
 40
1
 40
1
 40
1
 10
-237.278792
 20
180.992580
 30
0.0
 10
-237.278792
 20
181.054403
 30
0.0
 10
-240.855630
 20
180.964018
 30
0.0
 10
-242.653510
 20
180.856692
 30
0.0
  0
SPLINE
  5
15e
100
AcDbEntity
  8
Ebene_1
 62
7
100
AcDbSpline
 70
8
 71
3
 72
8
 73
4
 74
0
 40
0
 40
0
 40
0
 40
0
 40
1
 40
1
 40
1
 40
1
 10
-242.653510
 20
180.856692
 30
0.0
 10
-248.003969
 20
180.537618
 30
0.0
 10
-250.755848
 20
179.600673
 30
0.0
 10
-252.085914
 20
177.645191
 30
0.0
  0
SPLINE
  5
15f
100
AcDbEntity
  8
Ebene_1
 62
7
100
AcDbSpline
 70
8
 71
3
 72
8
 73
4
 74
0
 40
0
 40
0
 40
0
 40
0
 40
1
 40
1
 40
1
 40
1
 10
-252.085914
 20
177.645191
 30
0.0
 10
-252.576278
 20
176.924213
 30
0.0
 10
-252.781017
 20
176.410143
 30
0.0
 10
-252.995048
 20
175.362537
 30
0.0
  0
SPLINE
  5
160
100
AcDbEntity
  8
Ebene_1
 62
7
100
AcDbSpline
 70
8
 71
3
 72
8
 73
4
 74
0
 40
0
 40
0
 40
0
 40
0
 40
1
 40
1
 40
1
 40
1
 10
-252.995048
 20
175.362537
 30
0.0
 10
-253.081957
 20
174.936899
 30
0.0
 10
-253.168979
 20
174.572773
 30
0.0
 10
-253.188371
 20
174.553400
 30
0.0
  0
SPLINE
  5
161
100
AcDbEntity
  8
Ebene_1
 62
7
100
AcDbSpline
 70
8
 71
3
 72
8
 73
4
 74
0
 40
0
 40
0
 40
0
 40
0
 40
1
 40
1
 40
1
 40
1
 10
-253.188371
 20
174.553400
 30
0.0
 10
-253.253389
 20
174.488382
 30
0.0
 10
-255.477039
 20
175.544764
 30
0.0
 10
-256.591091
 20
176.170218
 30
0.0
  0
SPLINE
  5
162
100
AcDbEntity
  8
Ebene_1
 62
7
100
AcDbSpline
 70
8
 71
3
 72
8
 73
4
 74
0
 40
0
 40
0
 40
0
 40
0
 40
1
 40
1
 40
1
 40
1
 10
-256.591091
 20
176.170218
 30
0.0
 10
-259.923249
 20
178.040952
 30
0.0
 10
-262.539287
 20
180.206951
 30
0.0
 10
-264.318883
 20
182.568687
 30
0.0
  0
SPLINE
  5
163
100
AcDbEntity
  8
Ebene_1
 62
7
100
AcDbSpline
 70
8
 71
3
 72
8
 73
4
 74
0
 40
0
 40
0
 40
0
 40
0
 40
1
 40
1
 40
1
 40
1
 10
-264.318883
 20
182.568687
 30
0.0
 10
-264.580362
 20
182.915657
 30
0.0
 10
-264.794262
 20
183.227928
 30
0.0
 10
-264.794262
 20
183.262644
 30
0.0
  0
SPLINE
  5
164
100
AcDbEntity
  8
Ebene_1
 62
7
100
AcDbSpline
 70
8
 71
3
 72
8
 73
4
 74
0
 40
0
 40
0
 40
0
 40
0
 40
1
 40
1
 40
1
 40
1
 10
-264.794262
 20
183.262644
 30
0.0
 10
-264.794262
 20
183.297502
 30
0.0
 10
-264.658890
 20
183.381790
 30
0.0
 10
-264.493444
 20
183.450246
 30
0.0
  0
SPLINE
  5
165
100
AcDbEntity
  8
Ebene_1
 62
7
100
AcDbSpline
 70
8
 71
3
 72
8
 73
4
 74
0
 40
0
 40
0
 40
0
 40
0
 40
1
 40
1
 40
1
 40
1
 10
-264.493444
 20
183.450246
 30
0.0
 10
-264.327978
 20
183.518834
 30
0.0
 10
-263.615033
 20
183.826012
 30
0.0
 10
-262.909087
 20
184.133116
 30
0.0
  0
SPLINE
  5
166
100
AcDbEntity
  8
Ebene_1
 62
7
100
AcDbSpline
 70
8
 71
3
 72
8
 73
4
 74
0
 40
0
 40
0
 40
0
 40
0
 40
1
 40
1
 40
1
 40
1
 10
-262.909087
 20
184.133116
 30
0.0
 10
-254.820843
 20
187.651852
 30
0.0
 10
-244.307347
 20
190.111387
 30
0.0
 10
-234.872182
 20
190.692081
 30
0.0
  0
LWPOLYLINE
  5
167
100
AcDbEntity
  8
Ebene_1
 62
7
100
AcDbPolyline
 90
1
 70
1
 10
-274.055806
 20
228.852106
 30
0.0
  0
SPLINE
  5
168
100
AcDbEntity
  8
Ebene_1
 62
7
100
AcDbSpline
 70
8
 71
3
 72
8
 73
4
 74
0
 40
0
 40
0
 40
0
 40
0
 40
1
 40
1
 40
1
 40
1
 10
-229.508747
 20
185.234766
 30
0.0
 10
-227.022124
 20
182.204759
 30
0.0
 10
-224.960125
 20
179.756001
 30
0.0
 10
-224.926498
 20
179.793085
 30
0.0
  0
SPLINE
  5
169
100
AcDbEntity
  8
Ebene_1
 62
7
100
AcDbSpline
 70
8
 71
3
 72
8
 73
4
 74
0
 40
0
 40
0
 40
0
 40
0
 40
1
 40
1
 40
1
 40
1
 10
-224.926498
 20
179.793085
 30
0.0
 10
-224.892956
 20
179.830104
 30
0.0
 10
-222.874674
 20
182.286435
 30
0.0
 10
-220.441634
 20
185.251396
 30
0.0
  0
SPLINE
  5
16a
100
AcDbEntity
  8
Ebene_1
 62
7
100
AcDbSpline
 70
8
 71
3
 72
8
 73
4
 74
0
 40
0
 40
0
 40
0
 40
0
 40
1
 40
1
 40
1
 40
1
 10
-220.441634
 20
185.251396
 30
0.0
 10
-218.008576
 20
188.216347
 30
0.0
 10
-215.980729
 20
190.665238
 30
0.0
 10
-215.935320
 20
190.693312
 30
0.0
  0
SPLINE
  5
16b
100
AcDbEntity
  8
Ebene_1
 62
7
100
AcDbSpline
 70
8
 71
3
 72
8
 73
4
 74
0
 40
0
 40
0
 40
0
 40
0
 40
1
 40
1
 40
1
 40
1
 10
-215.935320
 20
190.693312
 30
0.0
 10
-215.840566
 20
190.751846
 30
0.0
 10
-213.817089
 20
190.621435
 30
0.0
 10
-212.049584
 20
190.442694
 30
0.0
  0
SPLINE
  5
16c
100
AcDbEntity
  8
Ebene_1
 62
7
100
AcDbSpline
 70
8
 71
3
 72
8
 73
4
 74
0
 40
0
 40
0
 40
0
 40
0
 40
1
 40
1
 40
1
 40
1
 10
-212.049584
 20
190.442694
 30
0.0
 10
-204.595757
 20
189.689235
 30
0.0
 10
-197.109524
 20
187.964405
 30
0.0
 10
-190.309930
 20
185.433886
 30
0.0
  0
SPLINE
  5
16d
100
AcDbEntity
  8
Ebene_1
 62
7
100
AcDbSpline
 70
8
 71
3
 72
8
 73
4
 74
0
 40
0
 40
0
 40
0
 40
0
 40
1
 40
1
 40
1
 40
1
 10
-190.309930
 20
185.433886
 30
0.0
 10
-188.705194
 20
184.836685
 30
0.0
 10
-186.123883
 20
183.770748
 30
0.0
 10
-185.450671
 20
183.427311
 30
0.0
  0
LWPOLYLINE
  5
16e
100
AcDbEntity
  8
Ebene_1
 62
7
100
AcDbPolyline
 90
3
 70
0
 10
-234.872182
 20
190.692081
 30
0.0
 10
-234.029887
 20
190.743944
 30
0.0
 10
-229.508747
 20
185.234766
 30
0.0
  0
SPLINE
  5
16f
100
AcDbEntity
  8
Ebene_1
 62
7
100
AcDbSpline
 70
8
 71
3
 72
8
 73
4
 74
0
 40
0
 40
0
 40
0
 40
0
 40
1
 40
1
 40
1
 40
1
 10
-185.541855
 20
182.709086
 30
0.0
 10
-187.118479
 20
180.541433
 30
0.0
 10
-189.590126
 20
178.411269
 30
0.0
 10
-192.651015
 20
176.582082
 30
0.0
  0
SPLINE
  5
170
100
AcDbEntity
  8
Ebene_1
 62
7
100
AcDbSpline
 70
8
 71
3
 72
8
 73
4
 74
0
 40
0
 40
0
 40
0
 40
0
 40
1
 40
1
 40
1
 40
1
 10
-192.651015
 20
176.582082
 30
0.0
 10
-193.492821
 20
176.079015
 30
0.0
 10
-196.279482
 20
174.680353
 30
0.0
 10
-196.659439
 20
174.570208
 30
0.0
  0
SPLINE
  5
171
100
AcDbEntity
  8
Ebene_1
 62
7
100
AcDbSpline
 70
8
 71
3
 72
8
 73
4
 74
0
 40
0
 40
0
 40
0
 40
0
 40
1
 40
1
 40
1
 40
1
 10
-196.659439
 20
174.570208
 30
0.0
 10
-196.816242
 20
174.524734
 30
0.0
 10
-196.837269
 20
174.558840
 30
0.0
 10
-196.889424
 20
174.944208
 30
0.0
  0
SPLINE
  5
172
100
AcDbEntity
  8
Ebene_1
 62
7
100
AcDbSpline
 70
8
 71
3
 72
8
 73
4
 74
0
 40
0
 40
0
 40
0
 40
0
 40
1
 40
1
 40
1
 40
1
 10
-196.889424
 20
174.944208
 30
0.0
 10
-196.920993
 20
175.177425
 30
0.0
 10
-197.035046
 20
175.674132
 30
0.0
 10
-197.142851
 20
176.047972
 30
0.0
  0
SPLINE
  5
173
100
AcDbEntity
  8
Ebene_1
 62
7
100
AcDbSpline
 70
8
 71
3
 72
8
 73
4
 74
0
 40
0
 40
0
 40
0
 40
0
 40
1
 40
1
 40
1
 40
1
 10
-197.142851
 20
176.047972
 30
0.0
 10
-197.991787
 20
178.991887
 30
0.0
 10
-200.500105
 20
180.299140
 30
0.0
 10
-206.233621
 20
180.785680
 30
0.0
  0
SPLINE
  5
174
100
AcDbEntity
  8
Ebene_1
 62
7
100
AcDbSpline
 70
8
 71
3
 72
8
 73
4
 74
0
 40
0
 40
0
 40
0
 40
0
 40
1
 40
1
 40
1
 40
1
 10
-206.233621
 20
180.785680
 30
0.0
 10
-207.482049
 20
180.891615
 30
0.0
 10
-212.674098
 20
181.027588
 30
0.0
 10
-212.739332
 20
180.956022
 30
0.0
  0
SPLINE
  5
175
100
AcDbEntity
  8
Ebene_1
 62
7
100
AcDbSpline
 70
8
 71
3
 72
8
 73
4
 74
0
 40
0
 40
0
 40
0
 40
0
 40
1
 40
1
 40
1
 40
1
 10
-212.739332
 20
180.956022
 30
0.0
 10
-212.772780
 20
180.919379
 30
0.0
 10
-222.795723
 20
124.693266
 30
0.0
 10
-224.911033
 20
112.676263
 30
0.0
  0
LWPOLYLINE
  5
176
100
AcDbEntity
  8
Ebene_1
 62
7
100
AcDbPolyline
 90
3
 70
0
 10
-185.450671
 20
183.427311
 30
0.0
 10
-185.136164
 20
183.266854
 30
0.0
 10
-185.541855
 20
182.709086
 30
0.0
  0
SPLINE
  5
177
100
AcDbEntity
  8
Ebene_1
 62
7
100
AcDbSpline
 70
8
 71
3
 72
8
 73
4
 74
0
 40
0
 40
0
 40
0
 40
0
 40
1
 40
1
 40
1
 40
1
 10
-185.135741
 20
186.295836
 30
0.0
 10
-194.716726
 20
190.336571
 30
0.0
 10
-205.601872
 20
192.907839
 30
0.0
 10
-216.461698
 20
193.695573
 30
0.0
  0
SPLINE
  5
178
100
AcDbEntity
  8
Ebene_1
 62
7
100
AcDbSpline
 70
8
 71
3
 72
8
 73
4
 74
0
 40
0
 40
0
 40
0
 40
0
 40
1
 40
1
 40
1
 40
1
 10
-216.461698
 20
193.695573
 30
0.0
 10
-219.950716
 20
193.948659
 30
0.0
 10
-227.199146
 20
194.031534
 30
0.0
 10
-230.709032
 20
193.858480
 30
0.0
  0
SPLINE
  5
179
100
AcDbEntity
  8
Ebene_1
 62
7
100
AcDbSpline
 70
8
 71
3
 72
8
 73
4
 74
0
 40
0
 40
0
 40
0
 40
0
 40
1
 40
1
 40
1
 40
1
 10
-230.709032
 20
193.858480
 30
0.0
 10
-242.872455
 20
193.258763
 30
0.0
 10
-254.063033
 20
190.779911
 30
0.0
 10
-264.817816
 20
186.303005
 30
0.0
  0
SPLINE
  5
17a
100
AcDbEntity
  8
Ebene_1
 62
7
100
AcDbSpline
 70
8
 71
3
 72
8
 73
4
 74
0
 40
0
 40
0
 40
0
 40
0
 40
1
 40
1
 40
1
 40
1
 10
-264.817816
 20
186.303005
 30
0.0
 10
-265.558789
 20
185.994576
 30
0.0
 10
-266.211142
 20
185.759912
 30
0.0
 10
-266.267544
 20
185.781541
 30
0.0
  0
SPLINE
  5
17b
100
AcDbEntity
  8
Ebene_1
 62
7
100
AcDbSpline
 70
8
 71
3
 72
8
 73
4
 74
0
 40
0
 40
0
 40
0
 40
0
 40
1
 40
1
 40
1
 40
1
 10
-266.267544
 20
185.781541
 30
0.0
 10
-266.324105
 20
185.803339
 30
0.0
 10
-266.787824
 20
186.663785
 30
0.0
 10
-267.298388
 20
187.694010
 30
0.0
  0
SPLINE
  5
17c
100
AcDbEntity
  8
Ebene_1
 62
7
100
AcDbSpline
 70
8
 71
3
 72
8
 73
4
 74
0
 40
0
 40
0
 40
0
 40
0
 40
1
 40
1
 40
1
 40
1
 10
-267.298388
 20
187.694010
 30
0.0
 10
-268.253683
 20
189.621521
 30
0.0
 10
-268.698883
 20
190.622807
 30
0.0
 10
-268.630840
 20
190.690859
 30
0.0
  0
SPLINE
  5
17d
100
AcDbEntity
  8
Ebene_1
 62
7
100
AcDbSpline
 70
8
 71
3
 72
8
 73
4
 74
0
 40
0
 40
0
 40
0
 40
0
 40
1
 40
1
 40
1
 40
1
 10
-268.630840
 20
190.690859
 30
0.0
 10
-268.561125
 20
190.760574
 30
0.0
 10
-265.756415
 20
191.820085
 30
0.0
 10
-264.112387
 20
192.397856
 30
0.0
  0
SPLINE
  5
17e
100
AcDbEntity
  8
Ebene_1
 62
7
100
AcDbSpline
 70
8
 71
3
 72
8
 73
4
 74
0
 40
0
 40
0
 40
0
 40
0
 40
1
 40
1
 40
1
 40
1
 10
-264.112387
 20
192.397856
 30
0.0
 10
-248.700285
 20
197.814420
 30
0.0
 10
-232.240529
 20
200.059031
 30
0.0
 10
-216.662247
 20
198.868666
 30
0.0
  0
SPLINE
  5
17f
100
AcDbEntity
  8
Ebene_1
 62
7
100
AcDbSpline
 70
8
 71
3
 72
8
 73
4
 74
0
 40
0
 40
0
 40
0
 40
0
 40
1
 40
1
 40
1
 40
1
 10
-216.662247
 20
198.868666
 30
0.0
 10
-205.010590
 20
197.978344
 30
0.0
 10
-194.029458
 20
195.520546
 30
0.0
 10
-182.851405
 20
191.301102
 30
0.0
  0
SPLINE
  5
180
100
AcDbEntity
  8
Ebene_1
 62
7
100
AcDbSpline
 70
8
 71
3
 72
8
 73
4
 74
0
 40
0
 40
0
 40
0
 40
0
 40
1
 40
1
 40
1
 40
1
 10
-182.851405
 20
191.301102
 30
0.0
 10
-182.019173
 20
190.986961
 30
0.0
 10
-181.323948
 20
190.715645
 30
0.0
 10
-181.306481
 20
190.698150
 30
0.0
  0
SPLINE
  5
181
100
AcDbEntity
  8
Ebene_1
 62
7
100
AcDbSpline
 70
8
 71
3
 72
8
 73
4
 74
0
 40
0
 40
0
 40
0
 40
0
 40
1
 40
1
 40
1
 40
1
 10
-181.306481
 20
190.698150
 30
0.0
 10
-181.215062
 20
190.606825
 30
0.0
 10
-183.450166
 20
185.940937
 30
0.0
 10
-183.676637
 20
185.750273
 30
0.0
  0
SPLINE
  5
182
100
AcDbEntity
  8
Ebene_1
 62
7
100
AcDbSpline
 70
8
 71
3
 72
8
 73
4
 74
0
 40
0
 40
0
 40
0
 40
0
 40
1
 40
1
 40
1
 40
1
 10
-183.676637
 20
185.750273
 30
0.0
 10
-183.707078
 20
185.724717
 30
0.0
 10
-184.363613
 20
185.970204
 30
0.0
 10
-185.135741
 20
186.295836
 30
0.0
  0
LWPOLYLINE
  5
183
100
AcDbEntity
  8
Ebene_1
 62
7
100
AcDbPolyline
 90
3
 70
0
 10
-224.911033
 20
112.676263
 30
0.0
 10
-224.974641
 20
112.315285
 30
0.0
 10
-225.027829
 20
112.596034
 30
0.0
  0
LWPOLYLINE
  5
184
100
AcDbEntity
  8
Ebene_1
 62
7
100
AcDbPolyline
 90
1
 70
1
 10
-185.135741
 20
186.295836
 30
0.0
  0
SPLINE
  5
185
100
AcDbEntity
  8
Ebene_1
 62
7
100
AcDbSpline
 70
8
 71
3
 72
8
 73
4
 74
0
 40
0
 40
0
 40
0
 40
0
 40
1
 40
1
 40
1
 40
1
 10
-263.418975
 20
102.081101
 30
0.0
 10
-263.418975
 20
102.878322
 30
0.0
 10
-263.559226
 20
103.601728
 30
0.0
 10
-263.839728
 20
104.251319
 30
0.0
  0
SPLINE
  5
186
100
AcDbEntity
  8
Ebene_1
 62
7
100
AcDbSpline
 70
8
 71
3
 72
8
 73
4
 74
0
 40
0
 40
0
 40
0
 40
0
 40
1
 40
1
 40
1
 40
1
 10
-263.839728
 20
104.251319
 30
0.0
 10
-264.105472
 20
104.915667
 30
0.0
 10
-264.496704
 20
105.484056
 30
0.0
 10
-265.013423
 20
105.956484
 30
0.0
  0
SPLINE
  5
187
100
AcDbEntity
  8
Ebene_1
 62
7
100
AcDbSpline
 70
8
 71
3
 72
8
 73
4
 74
0
 40
0
 40
0
 40
0
 40
0
 40
1
 40
1
 40
1
 40
1
 10
-265.013423
 20
105.956484
 30
0.0
 10
-265.515378
 20
106.428912
 30
0.0
 10
-266.135439
 20
106.790616
 30
0.0
 10
-266.873605
 20
107.041597
 30
0.0
  0
SPLINE
  5
188
100
AcDbEntity
  8
Ebene_1
 62
7
100
AcDbSpline
 70
8
 71
3
 72
8
 73
4
 74
0
 40
0
 40
0
 40
0
 40
0
 40
1
 40
1
 40
1
 40
1
 10
-266.873605
 20
107.041597
 30
0.0
 10
-267.597014
 20
107.307335
 30
0.0
 10
-268.423765
 20
107.440204
 30
0.0
 10
-269.353858
 20
107.440204
 30
0.0
  0
LWPOLYLINE
  5
189
100
AcDbEntity
  8
Ebene_1
 62
7
100
AcDbPolyline
 90
2
 70
0
 10
-263.418975
 20
102.036848
 30
0.0
 10
-263.418975
 20
102.081101
 30
0.0
  0
SPLINE
  5
18a
100
AcDbEntity
  8
Ebene_1
 62
7
100
AcDbSpline
 70
8
 71
3
 72
8
 73
4
 74
0
 40
0
 40
0
 40
0
 40
0
 40
1
 40
1
 40
1
 40
1
 10
-269.686029
 20
96.589126
 30
0.0
 10
-268.814990
 20
96.589126
 30
0.0
 10
-268.003006
 20
96.699850
 30
0.0
 10
-267.250076
 20
96.921297
 30
0.0
  0
SPLINE
  5
18b
100
AcDbEntity
  8
Ebene_1
 62
7
100
AcDbSpline
 70
8
 71
3
 72
8
 73
4
 74
0
 40
0
 40
0
 40
0
 40
0
 40
1
 40
1
 40
1
 40
1
 10
-267.250076
 20
96.921297
 30
0.0
 10
-266.482377
 20
97.157514
 30
0.0
 10
-265.818022
 20
97.504455
 30
0.0
 10
-265.257012
 20
97.962120
 30
0.0
  0
SPLINE
  5
18c
100
AcDbEntity
  8
Ebene_1
 62
7
100
AcDbSpline
 70
8
 71
3
 72
8
 73
4
 74
0
 40
0
 40
0
 40
0
 40
0
 40
1
 40
1
 40
1
 40
1
 10
-265.257012
 20
97.962120
 30
0.0
 10
-264.681245
 20
98.419785
 30
0.0
 10
-264.230963
 20
98.988173
 30
0.0
 10
-263.906164
 20
99.667285
 30
0.0
  0
SPLINE
  5
18d
100
AcDbEntity
  8
Ebene_1
 62
7
100
AcDbSpline
 70
8
 71
3
 72
8
 73
4
 74
0
 40
0
 40
0
 40
0
 40
0
 40
1
 40
1
 40
1
 40
1
 10
-263.906164
 20
99.667285
 30
0.0
 10
-263.581372
 20
100.346403
 30
0.0
 10
-263.418975
 20
101.136245
 30
0.0
 10
-263.418975
 20
102.036811
 30
0.0
  0
LWPOLYLINE
  5
18e
100
AcDbEntity
  8
Ebene_1
 62
7
100
AcDbPolyline
 90
6
 70
0
 10
-269.353858
 20
107.440204
 30
0.0
 10
-275.687338
 20
107.440204
 30
0.0
 10
-275.687338
 20
91.938656
 30
0.0
 10
-272.276999
 20
91.938656
 30
0.0
 10
-272.276999
 20
96.589126
 30
0.0
 10
-269.686029
 20
96.589126
 30
0.0
  0
SPLINE
  5
18f
100
AcDbEntity
  8
Ebene_1
 62
7
100
AcDbSpline
 70
8
 71
3
 72
8
 73
4
 74
0
 40
0
 40
0
 40
0
 40
0
 40
1
 40
1
 40
1
 40
1
 10
-266.873605
 20
101.970422
 30
0.0
 10
-266.873605
 20
101.306067
 30
0.0
 10
-267.109819
 20
100.745057
 30
0.0
 10
-267.582248
 20
100.287393
 30
0.0
  0
SPLINE
  5
190
100
AcDbEntity
  8
Ebene_1
 62
7
100
AcDbSpline
 70
8
 71
3
 72
8
 73
4
 74
0
 40
0
 40
0
 40
0
 40
0
 40
1
 40
1
 40
1
 40
1
 10
-267.582248
 20
100.287393
 30
0.0
 10
-268.054676
 20
99.844492
 30
0.0
 10
-268.719027
 20
99.623041
 30
0.0
 10
-269.575302
 20
99.623041
 30
0.0
  0
LWPOLYLINE
  5
191
100
AcDbEntity
  8
Ebene_1
 62
7
100
AcDbPolyline
 90
1
 70
1
 10
-263.418975
 20
102.036811
 30
0.0
  0
SPLINE
  5
192
100
AcDbEntity
  8
Ebene_1
 62
7
100
AcDbSpline
 70
8
 71
3
 72
8
 73
4
 74
0
 40
0
 40
0
 40
0
 40
0
 40
1
 40
1
 40
1
 40
1
 10
-269.641738
 20
104.362083
 30
0.0
 10
-268.785463
 20
104.362083
 30
0.0
 10
-268.113730
 20
104.162778
 30
0.0
 10
-267.626538
 20
103.764168
 30
0.0
  0
SPLINE
  5
193
100
AcDbEntity
  8
Ebene_1
 62
7
100
AcDbSpline
 70
8
 71
3
 72
8
 73
4
 74
0
 40
0
 40
0
 40
0
 40
0
 40
1
 40
1
 40
1
 40
1
 10
-267.626538
 20
103.764168
 30
0.0
 10
-267.124583
 20
103.365558
 30
0.0
 10
-266.873605
 20
102.782406
 30
0.0
 10
-266.873605
 20
102.014712
 30
0.0
  0
LWPOLYLINE
  5
194
100
AcDbEntity
  8
Ebene_1
 62
7
100
AcDbPolyline
 90
4
 70
0
 10
-269.575302
 20
99.623041
 30
0.0
 10
-272.276999
 20
99.623041
 30
0.0
 10
-272.276999
 20
104.362083
 30
0.0
 10
-269.641738
 20
104.362083
 30
0.0
  0
LWPOLYLINE
  5
195
100
AcDbEntity
  8
Ebene_1
 62
7
100
AcDbPolyline
 90
2
 70
0
 10
-266.873605
 20
102.014712
 30
0.0
 10
-266.873605
 20
101.970422
 30
0.0
  0
LWPOLYLINE
  5
196
100
AcDbEntity
  8
Ebene_1
 62
7
100
AcDbPolyline
 90
8
 70
1
 10
-245.792195
 20
91.938694
 30
0.0
 10
-252.435711
 20
107.550969
 30
0.0
 10
-255.580315
 20
107.550969
 30
0.0
 10
-262.223830
 20
91.938694
 30
0.0
 10
-258.747055
 20
91.938694
 30
0.0
 10
-257.329771
 20
95.415469
 30
0.0
 10
-250.774837
 20
95.415469
 30
0.0
 10
-249.357552
 20
91.938694
 30
0.0
  0
LWPOLYLINE
  5
197
100
AcDbEntity
  8
Ebene_1
 62
7
100
AcDbPolyline
 90
3
 70
1
 10
-251.992813
 20
98.427201
 30
0.0
 10
-256.111794
 20
98.427201
 30
0.0
 10
-254.052304
 20
103.454133
 30
0.0
  0
SPLINE
  5
198
100
AcDbEntity
  8
Ebene_1
 62
7
100
AcDbSpline
 70
8
 71
3
 72
8
 73
4
 74
0
 40
0
 40
0
 40
0
 40
0
 40
1
 40
1
 40
1
 40
1
 10
-233.810332
 20
97.474959
 30
0.0
 10
-232.821184
 20
97.844043
 30
0.0
 10
-232.023961
 20
98.419816
 30
0.0
 10
-231.418660
 20
99.202279
 30
0.0
  0
SPLINE
  5
199
100
AcDbEntity
  8
Ebene_1
 62
7
100
AcDbSpline
 70
8
 71
3
 72
8
 73
4
 74
0
 40
0
 40
0
 40
0
 40
0
 40
1
 40
1
 40
1
 40
1
 10
-231.418660
 20
99.202279
 30
0.0
 10
-230.798596
 20
99.999500
 30
0.0
 10
-230.488564
 20
101.025553
 30
0.0
 10
-230.488564
 20
102.280438
 30
0.0
  0
LWPOLYLINE
  5
19a
100
AcDbEntity
  8
Ebene_1
 62
7
100
AcDbPolyline
 90
2
 70
0
 10
-230.023521
 20
91.938694
 30
0.0
 10
-233.810332
 20
97.474959
 30
0.0
  0
SPLINE
  5
19b
100
AcDbEntity
  8
Ebene_1
 62
7
100
AcDbSpline
 70
8
 71
3
 72
8
 73
4
 74
0
 40
0
 40
0
 40
0
 40
0
 40
1
 40
1
 40
1
 40
1
 10
-230.488564
 20
102.324691
 30
0.0
 10
-230.488564
 20
103.933902
 30
0.0
 10
-231.005283
 20
105.188790
 30
0.0
 10
-232.038721
 20
106.089356
 30
0.0
  0
SPLINE
  5
19c
100
AcDbEntity
  8
Ebene_1
 62
7
100
AcDbSpline
 70
8
 71
3
 72
8
 73
4
 74
0
 40
0
 40
0
 40
0
 40
0
 40
1
 40
1
 40
1
 40
1
 10
-232.038721
 20
106.089356
 30
0.0
 10
-233.057395
 20
106.989922
 30
0.0
 10
-234.489444
 20
107.440204
 30
0.0
 10
-236.334866
 20
107.440204
 30
0.0
  0
LWPOLYLINE
  5
19d
100
AcDbEntity
  8
Ebene_1
 62
7
100
AcDbPolyline
 90
2
 70
0
 10
-230.488564
 20
102.280438
 30
0.0
 10
-230.488564
 20
102.324691
 30
0.0
  0
SPLINE
  5
19e
100
AcDbEntity
  8
Ebene_1
 62
7
100
AcDbSpline
 70
8
 71
3
 72
8
 73
4
 74
0
 40
0
 40
0
 40
0
 40
0
 40
1
 40
1
 40
1
 40
1
 10
-233.943194
 20
102.103284
 30
0.0
 10
-233.943194
 20
101.438930
 30
0.0
 10
-234.172027
 20
100.907447
 30
0.0
 10
-234.629691
 20
100.508837
 30
0.0
  0
SPLINE
  5
19f
100
AcDbEntity
  8
Ebene_1
 62
7
100
AcDbSpline
 70
8
 71
3
 72
8
 73
4
 74
0
 40
0
 40
0
 40
0
 40
0
 40
1
 40
1
 40
1
 40
1
 10
-234.629691
 20
100.508837
 30
0.0
 10
-235.072592
 20
100.110227
 30
0.0
 10
-235.714802
 20
99.910921
 30
0.0
 10
-236.556319
 20
99.910921
 30
0.0
  0
LWPOLYLINE
  5
1a0
100
AcDbEntity
  8
Ebene_1
 62
7
100
AcDbPolyline
 90
8
 70
0
 10
-236.334866
 20
107.440204
 30
0.0
 10
-243.421288
 20
107.440204
 30
0.0
 10
-243.421288
 20
91.938656
 30
0.0
 10
-240.010949
 20
91.938656
 30
0.0
 10
-240.010949
 20
96.899152
 30
0.0
 10
-237.331398
 20
96.899152
 30
0.0
 10
-234.009630
 20
91.938656
 30
0.0
 10
-230.023521
 20
91.938694
 30
0.0
  0
SPLINE
  5
1a1
100
AcDbEntity
  8
Ebene_1
 62
7
100
AcDbSpline
 70
8
 71
3
 72
8
 73
4
 74
0
 40
0
 40
0
 40
0
 40
0
 40
1
 40
1
 40
1
 40
1
 10
-236.622755
 20
104.362074
 30
0.0
 10
-235.781238
 20
104.362074
 30
0.0
 10
-235.124265
 20
104.177532
 30
0.0
 10
-234.651837
 20
103.808449
 30
0.0
  0
SPLINE
  5
1a2
100
AcDbEntity
  8
Ebene_1
 62
7
100
AcDbSpline
 70
8
 71
3
 72
8
 73
4
 74
0
 40
0
 40
0
 40
0
 40
0
 40
1
 40
1
 40
1
 40
1
 10
-234.651837
 20
103.808449
 30
0.0
 10
-234.179408
 20
103.439366
 30
0.0
 10
-233.943194
 20
102.885741
 30
0.0
 10
-233.943194
 20
102.147575
 30
0.0
  0
LWPOLYLINE
  5
1a3
100
AcDbEntity
  8
Ebene_1
 62
7
100
AcDbPolyline
 90
4
 70
0
 10
-236.556319
 20
99.910921
 30
0.0
 10
-240.010949
 20
99.910921
 30
0.0
 10
-240.010949
 20
104.362074
 30
0.0
 10
-236.622755
 20
104.362074
 30
0.0
  0
LWPOLYLINE
  5
1a4
100
AcDbEntity
  8
Ebene_1
 62
7
100
AcDbPolyline
 90
2
 70
0
 10
-233.943194
 20
102.147575
 30
0.0
 10
-233.943194
 20
102.103284
 30
0.0
  0
LWPOLYLINE
  5
1a5
100
AcDbEntity
  8
Ebene_1
 62
7
100
AcDbPolyline
 90
12
 70
1
 10
-213.311607
 20
91.938694
 30
0.0
 10
-219.910841
 20
100.863153
 30
0.0
 10
-213.599497
 20
107.440242
 30
0.0
 10
-217.718478
 20
107.440242
 30
0.0
 10
-224.007677
 20
100.663854
 30
0.0
 10
-224.007677
 20
107.440242
 30
0.0
 10
-227.418016
 20
107.440242
 30
0.0
 10
-227.418016
 20
91.938694
 30
0.0
 10
-224.007677
 20
91.938694
 30
0.0
 10
-224.007677
 20
96.677736
 30
0.0
 10
-222.213921
 20
98.537928
 30
0.0
 10
-217.408443
 20
91.938694
 30
0.0
  0
LWPOLYLINE
  5
1a6
100
AcDbEntity
  8
Ebene_1
 62
7
100
AcDbPolyline
 90
4
 70
1
 10
-207.676377
 20
91.938694
 30
0.0
 10
-207.676377
 20
107.440242
 30
0.0
 10
-211.086726
 20
107.440242
 30
0.0
 10
-211.086726
 20
91.938694
 30
0.0
  0
LWPOLYLINE
  5
1a7
100
AcDbEntity
  8
Ebene_1
 62
7
100
AcDbPolyline
 90
10
 70
1
 10
-190.028147
 20
91.938694
 30
0.0
 10
-190.028147
 20
107.440242
 30
0.0
 10
-193.394196
 20
107.440242
 30
0.0
 10
-193.394196
 20
97.895721
 30
0.0
 10
-200.657781
 20
107.440242
 30
0.0
 10
-203.802385
 20
107.440242
 30
0.0
 10
-203.802385
 20
91.938694
 30
0.0
 10
-200.436328
 20
91.938694
 30
0.0
 10
-200.436328
 20
101.793249
 30
0.0
 10
-192.929152
 20
91.938694
 30
0.0
  0
SPLINE
  5
1a8
100
AcDbEntity
  8
Ebene_1
 62
7
100
AcDbSpline
 70
8
 71
3
 72
8
 73
4
 74
0
 40
0
 40
0
 40
0
 40
0
 40
1
 40
1
 40
1
 40
1
 10
-175.543895
 20
95.703359
 30
0.0
 10
-176.414933
 20
95.083295
 30
0.0
 10
-177.485277
 20
94.773263
 30
0.0
 10
-178.754926
 20
94.773263
 30
0.0
  0
SPLINE
  5
1a9
100
AcDbEntity
  8
Ebene_1
 62
7
100
AcDbSpline
 70
8
 71
3
 72
8
 73
4
 74
0
 40
0
 40
0
 40
0
 40
0
 40
1
 40
1
 40
1
 40
1
 10
-178.754926
 20
94.773263
 30
0.0
 10
-179.448801
 20
94.773263
 30
0.0
 10
-180.083626
 20
94.891371
 30
0.0
 10
-180.659399
 20
95.127588
 30
0.0
  0
SPLINE
  5
1aa
100
AcDbEntity
  8
Ebene_1
 62
7
100
AcDbSpline
 70
8
 71
3
 72
8
 73
4
 74
0
 40
0
 40
0
 40
0
 40
0
 40
1
 40
1
 40
1
 40
1
 10
-180.659399
 20
95.127588
 30
0.0
 10
-181.220409
 20
95.378563
 30
0.0
 10
-181.714982
 20
95.725501
 30
0.0
 10
-182.143120
 20
96.168402
 30
0.0
  0
SPLINE
  5
1ab
100
AcDbEntity
  8
Ebene_1
 62
7
100
AcDbSpline
 70
8
 71
3
 72
8
 73
4
 74
0
 40
0
 40
0
 40
0
 40
0
 40
1
 40
1
 40
1
 40
1
 10
-182.143120
 20
96.168402
 30
0.0
 10
-182.556493
 20
96.611303
 30
0.0
 10
-182.881289
 20
97.128022
 30
0.0
 10
-183.117506
 20
97.718559
 30
0.0
  0
SPLINE
  5
1ac
100
AcDbEntity
  8
Ebene_1
 62
7
100
AcDbSpline
 70
8
 71
3
 72
8
 73
4
 74
0
 40
0
 40
0
 40
0
 40
0
 40
1
 40
1
 40
1
 40
1
 10
-183.117506
 20
97.718559
 30
0.0
 10
-183.338954
 20
98.323859
 30
0.0
 10
-183.449677
 20
98.980829
 30
0.0
 10
-183.449677
 20
99.689468
 30
0.0
  0
LWPOLYLINE
  5
1ad
100
AcDbEntity
  8
Ebene_1
 62
7
100
AcDbPolyline
 90
6
 70
0
 10
-172.244273
 20
94.131056
 30
0.0
 10
-172.244273
 20
100.863153
 30
0.0
 10
-178.976379
 20
100.863153
 30
0.0
 10
-178.976379
 20
97.917867
 30
0.0
 10
-175.543895
 20
97.917867
 30
0.0
 10
-175.543895
 20
95.703359
 30
0.0
  0
SPLINE
  5
1ae
100
AcDbEntity
  8
Ebene_1
 62
7
100
AcDbSpline
 70
8
 71
3
 72
8
 73
4
 74
0
 40
0
 40
0
 40
0
 40
0
 40
1
 40
1
 40
1
 40
1
 10
-183.449677
 20
99.733721
 30
0.0
 10
-183.449677
 20
100.398076
 30
0.0
 10
-183.338954
 20
101.018136
 30
0.0
 10
-183.117506
 20
101.593903
 30
0.0
  0
SPLINE
  5
1af
100
AcDbEntity
  8
Ebene_1
 62
7
100
AcDbSpline
 70
8
 71
3
 72
8
 73
4
 74
0
 40
0
 40
0
 40
0
 40
0
 40
1
 40
1
 40
1
 40
1
 10
-183.117506
 20
101.593903
 30
0.0
 10
-182.881289
 20
102.184440
 30
0.0
 10
-182.563875
 20
102.693777
 30
0.0
 10
-182.165265
 20
103.121915
 30
0.0
  0
SPLINE
  5
1b0
100
AcDbEntity
  8
Ebene_1
 62
7
100
AcDbSpline
 70
8
 71
3
 72
8
 73
4
 74
0
 40
0
 40
0
 40
0
 40
0
 40
1
 40
1
 40
1
 40
1
 10
-182.165265
 20
103.121915
 30
0.0
 10
-181.751891
 20
103.564816
 30
0.0
 10
-181.279463
 20
103.911757
 30
0.0
 10
-180.747980
 20
104.162737
 30
0.0
  0
SPLINE
  5
1b1
100
AcDbEntity
  8
Ebene_1
 62
7
100
AcDbSpline
 70
8
 71
3
 72
8
 73
4
 74
0
 40
0
 40
0
 40
0
 40
0
 40
1
 40
1
 40
1
 40
1
 10
-180.747980
 20
104.162737
 30
0.0
 10
-180.201734
 20
104.428476
 30
0.0
 10
-179.618582
 20
104.561345
 30
0.0
 10
-178.998525
 20
104.561345
 30
0.0
  0
SPLINE
  5
1b2
100
AcDbEntity
  8
Ebene_1
 62
7
100
AcDbSpline
 70
8
 71
3
 72
8
 73
4
 74
0
 40
0
 40
0
 40
0
 40
0
 40
1
 40
1
 40
1
 40
1
 10
-178.998525
 20
104.561345
 30
0.0
 10
-178.555624
 20
104.561345
 30
0.0
 10
-178.149628
 20
104.524436
 30
0.0
 10
-177.780539
 20
104.450618
 30
0.0
  0
SPLINE
  5
1b3
100
AcDbEntity
  8
Ebene_1
 62
7
100
AcDbSpline
 70
8
 71
3
 72
8
 73
4
 74
0
 40
0
 40
0
 40
0
 40
0
 40
1
 40
1
 40
1
 40
1
 10
-177.780539
 20
104.450618
 30
0.0
 10
-177.411456
 20
104.376800
 30
0.0
 10
-177.071900
 20
104.273458
 30
0.0
 10
-176.761871
 20
104.140592
 30
0.0
  0
SPLINE
  5
1b4
100
AcDbEntity
  8
Ebene_1
 62
7
100
AcDbSpline
 70
8
 71
3
 72
8
 73
4
 74
0
 40
0
 40
0
 40
0
 40
0
 40
1
 40
1
 40
1
 40
1
 10
-176.761871
 20
104.140592
 30
0.0
 10
-176.437079
 20
104.007720
 30
0.0
 10
-176.127047
 20
103.845321
 30
0.0
 10
-175.831775
 20
103.653394
 30
0.0
  0
SPLINE
  5
1b5
100
AcDbEntity
  8
Ebene_1
 62
7
100
AcDbSpline
 70
8
 71
3
 72
8
 73
4
 74
0
 40
0
 40
0
 40
0
 40
0
 40
1
 40
1
 40
1
 40
1
 10
-175.831775
 20
103.653394
 30
0.0
 10
-175.536510
 20
103.461474
 30
0.0
 10
-175.241241
 20
103.240023
 30
0.0
 10
-174.945970
 20
102.989043
 30
0.0
  0
LWPOLYLINE
  5
1b6
100
AcDbEntity
  8
Ebene_1
 62
7
100
AcDbPolyline
 90
2
 70
0
 10
-183.449677
 20
99.689468
 30
0.0
 10
-183.449677
 20
99.733721
 30
0.0
  0
SPLINE
  5
1b7
100
AcDbEntity
  8
Ebene_1
 62
7
100
AcDbSpline
 70
8
 71
3
 72
8
 73
4
 74
0
 40
0
 40
0
 40
0
 40
0
 40
1
 40
1
 40
1
 40
1
 10
-172.797898
 20
105.580022
 30
0.0
 10
-173.196514
 20
105.919578
 30
0.0
 10
-173.609891
 20
106.222225
 30
0.0
 10
-174.038029
 20
106.487963
 30
0.0
  0
SPLINE
  5
1b8
100
AcDbEntity
  8
Ebene_1
 62
7
100
AcDbSpline
 70
8
 71
3
 72
8
 73
4
 74
0
 40
0
 40
0
 40
0
 40
0
 40
1
 40
1
 40
1
 40
1
 10
-174.038029
 20
106.487963
 30
0.0
 10
-174.466166
 20
106.753708
 30
0.0
 10
-174.923831
 20
106.975158
 30
0.0
 10
-175.411023
 20
107.152315
 30
0.0
  0
SPLINE
  5
1b9
100
AcDbEntity
  8
Ebene_1
 62
7
100
AcDbSpline
 70
8
 71
3
 72
8
 73
4
 74
0
 40
0
 40
0
 40
0
 40
0
 40
1
 40
1
 40
1
 40
1
 10
-175.411023
 20
107.152315
 30
0.0
 10
-175.898214
 20
107.329478
 30
0.0
 10
-176.429694
 20
107.462350
 30
0.0
 10
-177.005461
 20
107.550931
 30
0.0
  0
SPLINE
  5
1ba
100
AcDbEntity
  8
Ebene_1
 62
7
100
AcDbSpline
 70
8
 71
3
 72
8
 73
4
 74
0
 40
0
 40
0
 40
0
 40
0
 40
1
 40
1
 40
1
 40
1
 10
-177.005461
 20
107.550931
 30
0.0
 10
-177.566470
 20
107.654276
 30
0.0
 10
-178.193916
 20
107.705949
 30
0.0
 10
-178.887798
 20
107.705949
 30
0.0
  0
SPLINE
  5
1bb
100
AcDbEntity
  8
Ebene_1
 62
7
100
AcDbSpline
 70
8
 71
3
 72
8
 73
4
 74
0
 40
0
 40
0
 40
0
 40
0
 40
1
 40
1
 40
1
 40
1
 10
-178.887798
 20
107.705949
 30
0.0
 10
-180.068865
 20
107.705949
 30
0.0
 10
-181.153972
 20
107.491880
 30
0.0
 10
-182.143120
 20
107.063743
 30
0.0
  0
SPLINE
  5
1bc
100
AcDbEntity
  8
Ebene_1
 62
7
100
AcDbSpline
 70
8
 71
3
 72
8
 73
4
 74
0
 40
0
 40
0
 40
0
 40
0
 40
1
 40
1
 40
1
 40
1
 10
-182.143120
 20
107.063743
 30
0.0
 10
-183.132267
 20
106.650363
 30
0.0
 10
-183.988542
 20
106.074589
 30
0.0
 10
-184.711944
 20
105.336423
 30
0.0
  0
SPLINE
  5
1bd
100
AcDbEntity
  8
Ebene_1
 62
7
100
AcDbSpline
 70
8
 71
3
 72
8
 73
4
 74
0
 40
0
 40
0
 40
0
 40
0
 40
1
 40
1
 40
1
 40
1
 10
-184.711944
 20
105.336423
 30
0.0
 10
-185.435353
 20
104.613020
 30
0.0
 10
-186.003745
 20
103.764127
 30
0.0
 10
-186.417119
 20
102.789744
 30
0.0
  0
SPLINE
  5
1be
100
AcDbEntity
  8
Ebene_1
 62
7
100
AcDbSpline
 70
8
 71
3
 72
8
 73
4
 74
0
 40
0
 40
0
 40
0
 40
0
 40
1
 40
1
 40
1
 40
1
 10
-186.417119
 20
102.789744
 30
0.0
 10
-186.815729
 20
101.830124
 30
0.0
 10
-187.015034
 20
100.796686
 30
0.0
 10
-187.015034
 20
99.689430
 30
0.0
  0
LWPOLYLINE
  5
1bf
100
AcDbEntity
  8
Ebene_1
 62
7
100
AcDbPolyline
 90
2
 70
0
 10
-174.945970
 20
102.989043
 30
0.0
 10
-172.797898
 20
105.580022
 30
0.0
  0
SPLINE
  5
1c0
100
AcDbEntity
  8
Ebene_1
 62
7
100
AcDbSpline
 70
8
 71
3
 72
8
 73
4
 74
0
 40
0
 40
0
 40
0
 40
0
 40
1
 40
1
 40
1
 40
1
 10
-187.015034
 20
99.645177
 30
0.0
 10
-187.015034
 20
98.493637
 30
0.0
 10
-186.815729
 20
97.430675
 30
0.0
 10
-186.417119
 20
96.456292
 30
0.0
  0
SPLINE
  5
1c1
100
AcDbEntity
  8
Ebene_1
 62
7
100
AcDbSpline
 70
8
 71
3
 72
8
 73
4
 74
0
 40
0
 40
0
 40
0
 40
0
 40
1
 40
1
 40
1
 40
1
 10
-186.417119
 20
96.456292
 30
0.0
 10
-186.018508
 20
95.481908
 30
0.0
 10
-185.464880
 20
94.640394
 30
0.0
 10
-184.756235
 20
93.931748
 30
0.0
  0
SPLINE
  5
1c2
100
AcDbEntity
  8
Ebene_1
 62
7
100
AcDbSpline
 70
8
 71
3
 72
8
 73
4
 74
0
 40
0
 40
0
 40
0
 40
0
 40
1
 40
1
 40
1
 40
1
 10
-184.756235
 20
93.931748
 30
0.0
 10
-184.032832
 20
93.223109
 30
0.0
 10
-183.176557
 20
92.669484
 30
0.0
 10
-182.187410
 20
92.270874
 30
0.0
  0
SPLINE
  5
1c3
100
AcDbEntity
  8
Ebene_1
 62
7
100
AcDbSpline
 70
8
 71
3
 72
8
 73
4
 74
0
 40
0
 40
0
 40
0
 40
0
 40
1
 40
1
 40
1
 40
1
 10
-182.187410
 20
92.270874
 30
0.0
 10
-181.183500
 20
91.872264
 30
0.0
 10
-180.076247
 20
91.672959
 30
0.0
 10
-178.865653
 20
91.672959
 30
0.0
  0
SPLINE
  5
1c4
100
AcDbEntity
  8
Ebene_1
 62
7
100
AcDbSpline
 70
8
 71
3
 72
8
 73
4
 74
0
 40
0
 40
0
 40
0
 40
0
 40
1
 40
1
 40
1
 40
1
 10
-178.865653
 20
91.672959
 30
0.0
 10
-177.448368
 20
91.672959
 30
0.0
 10
-176.193480
 20
91.909173
 30
0.0
 10
-175.100988
 20
92.381601
 30
0.0
  0
SPLINE
  5
1c5
100
AcDbEntity
  8
Ebene_1
 62
7
100
AcDbSpline
 70
8
 71
3
 72
8
 73
4
 74
0
 40
0
 40
0
 40
0
 40
0
 40
1
 40
1
 40
1
 40
1
 10
-175.100988
 20
92.381601
 30
0.0
 10
-173.993738
 20
92.868793
 30
0.0
 10
-173.041500
 20
93.451944
 30
0.0
 10
-172.244273
 20
94.131056
 30
0.0
  0
LWPOLYLINE
  5
1c6
100
AcDbEntity
  8
Ebene_1
 62
7
100
AcDbPolyline
 90
2
 70
0
 10
-187.015034
 20
99.689430
 30
0.0
 10
-187.015034
 20
99.645177
 30
0.0
  0
LWPOLYLINE
  5
1c7
100
AcDbEntity
  8
Ebene_1
 62
7
100
AcDbPolyline
 90
1
 70
1
 10
-172.244273
 20
94.131056
 30
0.0
  0
LWPOLYLINE
  5
1c8
100
AcDbEntity
  8
Ebene_1
 62
7
100
AcDbPolyline
 90
12
 70
1
 10
-240.475645
 20
72.008138
 30
0.0
 10
-240.475645
 20
87.509686
 30
0.0
 10
-243.885984
 20
87.509686
 30
0.0
 10
-243.885984
 20
81.375496
 30
0.0
 10
-250.175183
 20
81.375496
 30
0.0
 10
-250.175183
 20
87.509686
 30
0.0
 10
-253.585531
 20
87.509686
 30
0.0
 10
-253.585531
 20
72.008138
 30
0.0
 10
-250.175183
 20
72.008138
 30
0.0
 10
-250.175183
 20
78.230901
 30
0.0
 10
-243.885984
 20
78.230901
 30
0.0
 10
-243.885984
 20
72.008138
 30
0.0
  0
LWPOLYLINE
  5
1c9
100
AcDbEntity
  8
Ebene_1
 62
7
100
AcDbPolyline
 90
12
 70
1
 10
-224.957147
 20
72.008138
 30
0.0
 10
-224.957147
 20
75.042006
 30
0.0
 10
-233.372272
 20
75.042006
 30
0.0
 10
-233.372272
 20
78.297337
 30
0.0
 10
-226.064396
 20
78.297337
 30
0.0
 10
-226.064396
 20
81.331205
 30
0.0
 10
-233.372272
 20
81.331205
 30
0.0
 10
-233.372272
 20
84.475809
 30
0.0
 10
-225.067873
 20
84.475809
 30
0.0
 10
-225.067873
 20
87.509686
 30
0.0
 10
-236.760466
 20
87.509686
 30
0.0
 10
-236.760466
 20
72.008138
 30
0.0
  0
SPLINE
  5
1ca
100
AcDbEntity
  8
Ebene_1
 62
7
100
AcDbSpline
 70
8
 71
3
 72
8
 73
4
 74
0
 40
0
 40
0
 40
0
 40
0
 40
1
 40
1
 40
1
 40
1
 10
-212.314041
 20
77.544404
 30
0.0
 10
-211.324894
 20
77.913487
 30
0.0
 10
-210.527674
 20
78.489257
 30
0.0
 10
-209.922380
 20
79.271714
 30
0.0
  0
SPLINE
  5
1cb
100
AcDbEntity
  8
Ebene_1
 62
7
100
AcDbSpline
 70
8
 71
3
 72
8
 73
4
 74
0
 40
0
 40
0
 40
0
 40
0
 40
1
 40
1
 40
1
 40
1
 10
-209.922380
 20
79.271714
 30
0.0
 10
-209.302316
 20
80.068941
 30
0.0
 10
-208.992284
 20
81.094997
 30
0.0
 10
-208.992284
 20
82.349882
 30
0.0
  0
LWPOLYLINE
  5
1cc
100
AcDbEntity
  8
Ebene_1
 62
7
100
AcDbPolyline
 90
2
 70
0
 10
-208.527240
 20
72.008138
 30
0.0
 10
-212.314041
 20
77.544404
 30
0.0
  0
SPLINE
  5
1cd
100
AcDbEntity
  8
Ebene_1
 62
7
100
AcDbSpline
 70
8
 71
3
 72
8
 73
4
 74
0
 40
0
 40
0
 40
0
 40
0
 40
1
 40
1
 40
1
 40
1
 10
-208.992284
 20
82.394135
 30
0.0
 10
-208.992284
 20
84.003340
 30
0.0
 10
-209.509003
 20
85.258228
 30
0.0
 10
-210.542440
 20
86.158800
 30
0.0
  0
SPLINE
  5
1ce
100
AcDbEntity
  8
Ebene_1
 62
7
100
AcDbSpline
 70
8
 71
3
 72
8
 73
4
 74
0
 40
0
 40
0
 40
0
 40
0
 40
1
 40
1
 40
1
 40
1
 10
-210.542440
 20
86.158800
 30
0.0
 10
-211.561115
 20
87.059366
 30
0.0
 10
-212.993163
 20
87.509649
 30
0.0
 10
-214.838585
 20
87.509649
 30
0.0
  0
LWPOLYLINE
  5
1cf
100
AcDbEntity
  8
Ebene_1
 62
7
100
AcDbPolyline
 90
2
 70
0
 10
-208.992284
 20
82.349882
 30
0.0
 10
-208.992284
 20
82.394135
 30
0.0
  0
SPLINE
  5
1d0
100
AcDbEntity
  8
Ebene_1
 62
7
100
AcDbSpline
 70
8
 71
3
 72
8
 73
4
 74
0
 40
0
 40
0
 40
0
 40
0
 40
1
 40
1
 40
1
 40
1
 10
-212.446913
 20
82.172719
 30
0.0
 10
-212.446913
 20
81.508371
 30
0.0
 10
-212.675746
 20
80.976891
 30
0.0
 10
-213.133410
 20
80.578281
 30
0.0
  0
SPLINE
  5
1d1
100
AcDbEntity
  8
Ebene_1
 62
7
100
AcDbSpline
 70
8
 71
3
 72
8
 73
4
 74
0
 40
0
 40
0
 40
0
 40
0
 40
1
 40
1
 40
1
 40
1
 10
-213.133410
 20
80.578281
 30
0.0
 10
-213.576311
 20
80.179665
 30
0.0
 10
-214.218518
 20
79.980356
 30
0.0
 10
-215.060029
 20
79.980356
 30
0.0
  0
LWPOLYLINE
  5
1d2
100
AcDbEntity
  8
Ebene_1
 62
7
100
AcDbPolyline
 90
8
 70
0
 10
-214.838585
 20
87.509649
 30
0.0
 10
-221.925007
 20
87.509649
 30
0.0
 10
-221.925007
 20
72.008100
 30
0.0
 10
-218.514659
 20
72.008100
 30
0.0
 10
-218.514659
 20
76.968596
 30
0.0
 10
-215.835107
 20
76.968596
 30
0.0
 10
-212.513350
 20
72.008100
 30
0.0
 10
-208.527240
 20
72.008138
 30
0.0
  0
SPLINE
  5
1d3
100
AcDbEntity
  8
Ebene_1
 62
7
100
AcDbSpline
 70
8
 71
3
 72
8
 73
4
 74
0
 40
0
 40
0
 40
0
 40
0
 40
1
 40
1
 40
1
 40
1
 10
-215.126465
 20
84.431518
 30
0.0
 10
-214.284954
 20
84.431518
 30
0.0
 10
-213.627984
 20
84.246977
 30
0.0
 10
-213.155556
 20
83.877894
 30
0.0
  0
SPLINE
  5
1d4
100
AcDbEntity
  8
Ebene_1
 62
7
100
AcDbSpline
 70
8
 71
3
 72
8
 73
4
 74
0
 40
0
 40
0
 40
0
 40
0
 40
1
 40
1
 40
1
 40
1
 10
-213.155556
 20
83.877894
 30
0.0
 10
-212.683128
 20
83.508810
 30
0.0
 10
-212.446913
 20
82.955183
 30
0.0
 10
-212.446913
 20
82.217010
 30
0.0
  0
LWPOLYLINE
  5
1d5
100
AcDbEntity
  8
Ebene_1
 62
7
100
AcDbPolyline
 90
4
 70
0
 10
-215.060029
 20
79.980356
 30
0.0
 10
-218.514659
 20
79.980356
 30
0.0
 10
-218.514659
 20
84.431518
 30
0.0
 10
-215.126465
 20
84.431518
 30
0.0
  0
LWPOLYLINE
  5
1d6
100
AcDbEntity
  8
Ebene_1
 62
7
100
AcDbPolyline
 90
2
 70
0
 10
-212.446913
 20
82.217010
 30
0.0
 10
-212.446913
 20
82.172719
 30
0.0
  0
SPLINE
  5
1d7
100
AcDbEntity
  8
Ebene_1
 62
7
100
AcDbSpline
 70
8
 71
3
 72
8
 73
4
 74
0
 40
0
 40
0
 40
0
 40
0
 40
1
 40
1
 40
1
 40
1
 10
-41.772964
 20
218.316613
 30
0.0
 10
-42.452696
 20
218.774365
 30
0.0
 10
-43.299509
 20
219.845197
 30
0.0
 10
-43.299509
 20
220.246989
 30
0.0
  0
SPLINE
  5
1d8
100
AcDbEntity
  8
Ebene_1
 62
7
100
AcDbSpline
 70
8
 71
3
 72
8
 73
4
 74
0
 40
0
 40
0
 40
0
 40
0
 40
1
 40
1
 40
1
 40
1
 10
-43.299509
 20
220.246989
 30
0.0
 10
-43.299509
 20
220.391362
 30
0.0
 10
-41.895895
 20
220.425252
 30
0.0
 10
-35.918845
 20
220.425252
 30
0.0
  0
SPLINE
  5
1d9
100
AcDbEntity
  8
Ebene_1
 62
7
100
AcDbSpline
 70
8
 71
3
 72
8
 73
4
 74
0
 40
0
 40
0
 40
0
 40
0
 40
1
 40
1
 40
1
 40
1
 10
-35.918845
 20
220.425252
 30
0.0
 10
-30.901046
 20
220.425252
 30
0.0
 10
-28.538219
 20
220.379777
 30
0.0
 10
-28.538219
 20
220.283125
 30
0.0
  0
SPLINE
  5
1da
100
AcDbEntity
  8
Ebene_1
 62
7
100
AcDbSpline
 70
8
 71
3
 72
8
 73
4
 74
0
 40
0
 40
0
 40
0
 40
0
 40
1
 40
1
 40
1
 40
1
 10
-28.538219
 20
220.283125
 30
0.0
 10
-28.538219
 20
220.002620
 30
0.0
 10
-29.067368
 20
219.119849
 30
0.0
 10
-29.448293
 20
218.764885
 30
0.0
  0
SPLINE
  5
1db
100
AcDbEntity
  8
Ebene_1
 62
7
100
AcDbSpline
 70
8
 71
3
 72
8
 73
4
 74
0
 40
0
 40
0
 40
0
 40
0
 40
1
 40
1
 40
1
 40
1
 10
-29.448293
 20
218.764885
 30
0.0
 10
-29.661901
 20
218.565811
 30
0.0
 10
-30.051949
 20
218.273881
 30
0.0
 10
-30.315044
 20
218.116167
 30
0.0
  0
SPLINE
  5
1dc
100
AcDbEntity
  8
Ebene_1
 62
7
100
AcDbSpline
 70
8
 71
3
 72
8
 73
4
 74
0
 40
0
 40
0
 40
0
 40
0
 40
1
 40
1
 40
1
 40
1
 10
-30.315044
 20
218.116167
 30
0.0
 10
-30.778152
 20
217.838509
 30
0.0
 10
-30.957015
 20
217.829368
 30
0.0
 10
-35.920678
 20
217.828870
 30
0.0
  0
LWPOLYLINE
  5
1dd
100
AcDbEntity
  8
Ebene_1
 62
7
100
AcDbPolyline
 90
12
 70
1
 10
-194.118406
 20
72.008138
 30
0.0
 10
-194.118406
 20
75.042006
 30
0.0
 10
-202.533532
 20
75.042006
 30
0.0
 10
-202.533532
 20
78.297337
 30
0.0
 10
-195.225665
 20
78.297337
 30
0.0
 10
-195.225665
 20
81.331205
 30
0.0
 10
-202.533532
 20
81.331205
 30
0.0
 10
-202.533532
 20
84.475809
 30
0.0
 10
-194.229133
 20
84.475809
 30
0.0
 10
-194.229133
 20
87.509686
 30
0.0
 10
-205.921735
 20
87.509686
 30
0.0
 10
-205.921735
 20
72.008138
 30
0.0
  0
SPLINE
  5
1de
100
AcDbEntity
  8
Ebene_1
 62
7
100
AcDbSpline
 70
8
 71
3
 72
8
 73
4
 74
0
 40
0
 40
0
 40
0
 40
0
 40
1
 40
1
 40
1
 40
1
 10
-105.626473
 20
218.308157
 30
0.0
 10
-106.506970
 20
218.900688
 30
0.0
 10
-107.246739
 20
219.782143
 30
0.0
 10
-107.260138
 20
220.254722
 30
0.0
  0
SPLINE
  5
1df
100
AcDbEntity
  8
Ebene_1
 62
7
100
AcDbSpline
 70
8
 71
3
 72
8
 73
4
 74
0
 40
0
 40
0
 40
0
 40
0
 40
1
 40
1
 40
1
 40
1
 10
-107.260138
 20
220.254722
 30
0.0
 10
-107.263896
 20
220.389351
 30
0.0
 10
-105.698490
 20
220.425571
 30
0.0
 10
-99.875142
 20
220.425571
 30
0.0
  0
LWPOLYLINE
  5
1e0
100
AcDbEntity
  8
Ebene_1
 62
7
100
AcDbPolyline
 90
4
 70
0
 10
-35.920678
 20
217.828870
 30
0.0
 10
-41.047964
 20
217.828870
 30
0.0
 10
-41.772964
 20
218.317120
 30
0.0
 10
-41.772964
 20
218.316613
 30
0.0
  0
SPLINE
  5
1e1
100
AcDbEntity
  8
Ebene_1
 62
7
100
AcDbSpline
 70
8
 71
3
 72
8
 73
4
 74
0
 40
0
 40
0
 40
0
 40
0
 40
1
 40
1
 40
1
 40
1
 10
-92.576521
 20
220.118054
 30
0.0
 10
-92.751194
 20
219.529233
 30
0.0
 10
-93.388542
 20
218.749091
 30
0.0
 10
-94.069665
 20
218.290390
 30
0.0
  0
LWPOLYLINE
  5
1e2
100
AcDbEntity
  8
Ebene_1
 62
7
100
AcDbPolyline
 90
3
 70
0
 10
-99.875142
 20
220.425571
 30
0.0
 10
-92.485290
 20
220.425571
 30
0.0
 10
-92.576521
 20
220.118054
 30
0.0
  0
SPLINE
  5
1e3
100
AcDbEntity
  8
Ebene_1
 62
7
100
AcDbSpline
 70
8
 71
3
 72
8
 73
4
 74
0
 40
0
 40
0
 40
0
 40
0
 40
1
 40
1
 40
1
 40
1
 10
-105.146481
 20
212.592886
 30
0.0
 10
-105.890949
 20
212.993072
 30
0.0
 10
-106.430743
 20
213.472462
 30
0.0
 10
-106.850641
 20
214.106391
 30
0.0
  0
SPLINE
  5
1e4
100
AcDbEntity
  8
Ebene_1
 62
7
100
AcDbSpline
 70
8
 71
3
 72
8
 73
4
 74
0
 40
0
 40
0
 40
0
 40
0
 40
1
 40
1
 40
1
 40
1
 10
-106.850641
 20
214.106391
 30
0.0
 10
-107.659468
 20
215.327486
 30
0.0
 10
-108.251908
 20
215.231792
 30
0.0
 10
-99.884350
 20
215.231792
 30
0.0
  0
SPLINE
  5
1e5
100
AcDbEntity
  8
Ebene_1
 62
7
100
AcDbSpline
 70
8
 71
3
 72
8
 73
4
 74
0
 40
0
 40
0
 40
0
 40
0
 40
1
 40
1
 40
1
 40
1
 10
-99.884350
 20
215.231792
 30
0.0
 10
-94.822250
 20
215.231792
 30
0.0
 10
-92.503714
 20
215.186788
 30
0.0
 10
-92.503714
 20
215.088313
 30
0.0
  0
SPLINE
  5
1e6
100
AcDbEntity
  8
Ebene_1
 62
7
100
AcDbSpline
 70
8
 71
3
 72
8
 73
4
 74
0
 40
0
 40
0
 40
0
 40
0
 40
1
 40
1
 40
1
 40
1
 10
-92.503714
 20
215.088313
 30
0.0
 10
-92.503714
 20
214.543210
 30
0.0
 10
-93.473084
 20
213.254278
 30
0.0
 10
-94.256881
 20
212.757205
 30
0.0
  0
LWPOLYLINE
  5
1e7
100
AcDbEntity
  8
Ebene_1
 62
7
100
AcDbPolyline
 90
5
 70
0
 10
-94.069665
 20
218.290390
 30
0.0
 10
-94.755260
 20
217.828672
 30
0.0
 10
-99.834638
 20
217.828672
 30
0.0
 10
-104.914016
 20
217.828672
 30
0.0
 10
-105.626473
 20
218.308157
 30
0.0
  0
SPLINE
  5
1e8
100
AcDbEntity
  8
Ebene_1
 62
7
100
AcDbSpline
 70
8
 71
3
 72
8
 73
4
 74
0
 40
0
 40
0
 40
0
 40
0
 40
1
 40
1
 40
1
 40
1
 10
-99.808603
 20
212.367186
 30
0.0
 10
-104.074118
 20
212.372823
 30
0.0
 10
-104.791545
 20
212.402325
 30
0.0
 10
-105.146481
 20
212.593065
 30
0.0
  0
LWPOLYLINE
  5
1e9
100
AcDbEntity
  8
Ebene_1
 62
7
100
AcDbPolyline
 90
3
 70
0
 10
-94.256881
 20
212.757205
 30
0.0
 10
-94.880775
 20
212.361548
 30
0.0
 10
-99.808603
 20
212.367186
 30
0.0
  0
LWPOLYLINE
  5
1ea
100
AcDbEntity
  8
Ebene_1
 62
7
100
AcDbPolyline
 90
2
 70
0
 10
-105.146481
 20
212.593065
 30
0.0
 10
-105.146481
 20
212.592886
 30
0.0
  0
LWPOLYLINE
  5
1eb
100
AcDbEntity
  8
Ebene_1
 62
7
100
AcDbPolyline
 90
16
 70
1
 10
-42.889468
 20
210.996005
 30
0.0
 10
-42.889468
 20
215.234301
 30
0.0
 10
-35.884674
 20
215.198880
 30
0.0
 10
-28.879927
 20
215.163458
 30
0.0
 10
-28.843660
 20
210.960603
 30
0.0
 10
-28.807393
 20
206.757747
 30
0.0
 10
-30.039472
 20
206.757747
 30
0.0
 10
-31.271570
 20
206.757747
 30
0.0
 10
-31.271570
 20
209.559657
 30
0.0
 10
-31.271570
 20
212.361567
 30
0.0
 10
-35.850277
 20
212.361567
 30
0.0
 10
-40.429012
 20
212.361567
 30
0.0
 10
-40.429012
 20
209.559657
 30
0.0
 10
-40.429012
 20
206.757756
 30
0.0
 10
-41.659117
 20
206.757756
 30
0.0
 10
-42.889223
 20
206.757756
 30
0.0
  0
SPLINE
  5
1ec
100
AcDbEntity
  8
Ebene_1
 62
7
100
AcDbSpline
 70
8
 71
3
 72
8
 73
4
 74
0
 40
0
 40
0
 40
0
 40
0
 40
1
 40
1
 40
1
 40
1
 10
-50.413367
 20
209.058244
 30
0.0
 10
-50.610082
 20
208.372395
 30
0.0
 10
-51.166665
 20
207.632306
 30
0.0
 10
-51.827934
 20
207.177344
 30
0.0
  0
LWPOLYLINE
  5
1ed
100
AcDbEntity
  8
Ebene_1
 62
7
100
AcDbPolyline
 90
9
 70
0
 10
-63.801245
 20
213.659988
 30
0.0
 10
-63.801245
 20
220.562230
 30
0.0
 10
-62.571149
 20
220.562230
 30
0.0
 10
-61.341043
 20
220.562230
 30
0.0
 10
-61.341043
 20
215.026743
 30
0.0
 10
-61.341043
 20
209.491276
 30
0.0
 10
-55.815112
 20
209.491276
 30
0.0
 10
-50.289176
 20
209.491276
 30
0.0
 10
-50.413367
 20
209.058244
 30
0.0
  0
SPLINE
  5
1ee
100
AcDbEntity
  8
Ebene_1
 62
7
100
AcDbSpline
 70
8
 71
3
 72
8
 73
4
 74
0
 40
0
 40
0
 40
0
 40
0
 40
1
 40
1
 40
1
 40
1
 10
-105.146481
 20
207.028621
 30
0.0
 10
-105.960927
 20
207.431870
 30
0.0
 10
-106.692438
 20
208.084749
 30
0.0
 10
-106.995586
 20
208.679001
 30
0.0
  0
SPLINE
  5
1ef
100
AcDbEntity
  8
Ebene_1
 62
7
100
AcDbSpline
 70
8
 71
3
 72
8
 73
4
 74
0
 40
0
 40
0
 40
0
 40
0
 40
1
 40
1
 40
1
 40
1
 10
-106.995586
 20
208.679001
 30
0.0
 10
-107.143755
 20
208.969427
 30
0.0
 10
-107.264976
 20
209.271006
 30
0.0
 10
-107.264976
 20
209.349177
 30
0.0
  0
SPLINE
  5
1f0
100
AcDbEntity
  8
Ebene_1
 62
7
100
AcDbSpline
 70
8
 71
3
 72
8
 73
4
 74
0
 40
0
 40
0
 40
0
 40
0
 40
1
 40
1
 40
1
 40
1
 10
-107.264976
 20
209.349177
 30
0.0
 10
-107.264976
 20
209.445764
 30
0.0
 10
-104.902168
 20
209.491304
 30
0.0
 10
-99.884350
 20
209.491304
 30
0.0
  0
SPLINE
  5
1f1
100
AcDbEntity
  8
Ebene_1
 62
7
100
AcDbSpline
 70
8
 71
3
 72
8
 73
4
 74
0
 40
0
 40
0
 40
0
 40
0
 40
1
 40
1
 40
1
 40
1
 10
-99.884350
 20
209.491304
 30
0.0
 10
-93.907328
 20
209.491304
 30
0.0
 10
-92.503714
 20
209.457574
 30
0.0
 10
-92.503714
 20
209.313042
 30
0.0
  0
SPLINE
  5
1f2
100
AcDbEntity
  8
Ebene_1
 62
7
100
AcDbSpline
 70
8
 71
3
 72
8
 73
4
 74
0
 40
0
 40
0
 40
0
 40
0
 40
1
 40
1
 40
1
 40
1
 10
-92.503714
 20
209.313042
 30
0.0
 10
-92.503714
 20
208.997783
 30
0.0
 10
-93.280756
 20
207.897665
 30
0.0
 10
-93.753617
 20
207.543517
 30
0.0
  0
SPLINE
  5
1f3
100
AcDbEntity
  8
Ebene_1
 62
7
100
AcDbSpline
 70
8
 71
3
 72
8
 73
4
 74
0
 40
0
 40
0
 40
0
 40
0
 40
1
 40
1
 40
1
 40
1
 10
-93.753617
 20
207.543517
 30
0.0
 10
-94.826253
 20
206.740102
 30
0.0
 10
-94.689773
 20
206.757719
 30
0.0
 10
-99.843395
 20
206.757832
 30
0.0
  0
SPLINE
  5
1f4
100
AcDbEntity
  8
Ebene_1
 62
7
100
AcDbSpline
 70
8
 71
3
 72
8
 73
4
 74
0
 40
0
 40
0
 40
0
 40
0
 40
1
 40
1
 40
1
 40
1
 10
-99.843395
 20
206.757832
 30
0.0
 10
-104.308810
 20
206.757935
 30
0.0
 10
-104.633201
 20
206.774462
 30
0.0
 10
-105.146481
 20
207.028621
 30
0.0
  0
LWPOLYLINE
  5
1f5
100
AcDbEntity
  8
Ebene_1
 62
7
100
AcDbPolyline
 90
5
 70
0
 10
-51.827934
 20
207.177344
 30
0.0
 10
-52.437858
 20
206.757691
 30
0.0
 10
-58.119545
 20
206.757691
 30
0.0
 10
-63.801245
 20
206.757691
 30
0.0
 10
-63.801245
 20
213.659988
 30
0.0
  0
SPLINE
  5
1f6
100
AcDbEntity
  8
Ebene_1
 62
7
100
AcDbSpline
 70
8
 71
3
 72
8
 73
4
 74
0
 40
0
 40
0
 40
0
 40
0
 40
1
 40
1
 40
1
 40
1
 10
-85.123079
 20
206.759222
 30
0.0
 10
-85.123079
 20
207.106689
 30
0.0
 10
-84.502886
 20
208.160694
 30
0.0
 10
-84.079888
 20
208.532091
 30
0.0
  0
SPLINE
  5
1f7
100
AcDbEntity
  8
Ebene_1
 62
7
100
AcDbSpline
 70
8
 71
3
 72
8
 73
4
 74
0
 40
0
 40
0
 40
0
 40
0
 40
1
 40
1
 40
1
 40
1
 10
-84.079888
 20
208.532091
 30
0.0
 10
-82.981170
 20
209.496791
 30
0.0
 10
-83.015501
 20
209.491304
 30
0.0
 10
-78.089591
 20
209.491304
 30
0.0
  0
LWPOLYLINE
  5
1f8
100
AcDbEntity
  8
Ebene_1
 62
7
100
AcDbPolyline
 90
1
 70
1
 10
-105.146481
 20
207.028621
 30
0.0
  0
SPLINE
  5
1f9
100
AcDbEntity
  8
Ebene_1
 62
7
100
AcDbSpline
 70
8
 71
3
 72
8
 73
4
 74
0
 40
0
 40
0
 40
0
 40
0
 40
1
 40
1
 40
1
 40
1
 10
-78.152484
 20
220.562248
 30
0.0
 10
-74.318649
 20
220.562248
 30
0.0
 10
-71.181872
 20
220.538947
 30
0.0
 10
-71.181872
 20
220.510667
 30
0.0
  0
SPLINE
  5
1fa
100
AcDbEntity
  8
Ebene_1
 62
7
100
AcDbSpline
 70
8
 71
3
 72
8
 73
4
 74
0
 40
0
 40
0
 40
0
 40
0
 40
1
 40
1
 40
1
 40
1
 10
-71.181872
 20
220.510667
 30
0.0
 10
-71.181872
 20
220.482198
 30
0.0
 10
-71.271881
 20
220.243663
 30
0.0
 10
-71.381838
 20
219.980456
 30
0.0
  0
SPLINE
  5
1fb
100
AcDbEntity
  8
Ebene_1
 62
7
100
AcDbSpline
 70
8
 71
3
 72
8
 73
4
 74
0
 40
0
 40
0
 40
0
 40
0
 40
1
 40
1
 40
1
 40
1
 10
-71.381838
 20
219.980456
 30
0.0
 10
-71.638853
 20
219.365318
 30
0.0
 10
-72.192647
 20
218.710419
 30
0.0
 10
-72.871797
 20
218.218419
 30
0.0
  0
LWPOLYLINE
  5
1fc
100
AcDbEntity
  8
Ebene_1
 62
7
100
AcDbPolyline
 90
9
 70
0
 10
-78.089591
 20
209.491304
 30
0.0
 10
-73.642093
 20
209.491304
 30
0.0
 10
-73.642093
 20
210.926412
 30
0.0
 10
-73.642093
 20
212.361548
 30
0.0
 10
-79.382609
 20
212.361548
 30
0.0
 10
-85.123079
 20
212.361548
 30
0.0
 10
-85.123079
 20
216.461889
 30
0.0
 10
-85.123079
 20
220.562248
 30
0.0
 10
-78.152484
 20
220.562248
 30
0.0
  0
SPLINE
  5
1fd
100
AcDbEntity
  8
Ebene_1
 62
7
100
AcDbSpline
 70
8
 71
3
 72
8
 73
4
 74
0
 40
0
 40
0
 40
0
 40
0
 40
1
 40
1
 40
1
 40
1
 10
-78.084141
 20
206.621107
 30
0.0
 10
-82.736227
 20
206.621107
 30
0.0
 10
-85.123079
 20
206.667897
 30
0.0
 10
-85.123079
 20
206.759269
 30
0.0
  0
LWPOLYLINE
  5
1fe
100
AcDbEntity
  8
Ebene_1
 62
7
100
AcDbPolyline
 90
11
 70
0
 10
-72.871797
 20
218.218419
 30
0.0
 10
-73.409759
 20
217.828747
 30
0.0
 10
-78.036318
 20
217.828747
 30
0.0
 10
-82.662867
 20
217.828747
 30
0.0
 10
-82.662867
 20
216.461974
 30
0.0
 10
-82.662867
 20
215.095190
 30
0.0
 10
-76.854045
 20
215.095190
 30
0.0
 10
-71.045213
 20
215.095190
 30
0.0
 10
-71.045213
 20
210.858125
 30
0.0
 10
-71.045213
 20
206.621107
 30
0.0
 10
-78.084141
 20
206.621107
 30
0.0
  0
LWPOLYLINE
  5
1ff
100
AcDbEntity
  8
Ebene_1
 62
7
100
AcDbPolyline
 90
1
 70
1
 10
-85.123079
 20
206.759269
 30
0.0
  0
SPLINE
  5
200
100
AcDbEntity
  8
Ebene_1
 62
7
100
AcDbSpline
 70
8
 71
3
 72
8
 73
4
 74
0
 40
0
 40
0
 40
0
 40
0
 40
1
 40
1
 40
1
 40
1
 10
-128.192677
 20
218.351386
 30
0.0
 10
-128.539702
 20
218.601223
 30
0.0
 10
-128.945328
 20
218.970253
 30
0.0
 10
-129.094078
 20
219.171459
 30
0.0
  0
SPLINE
  5
201
100
AcDbEntity
  8
Ebene_1
 62
7
100
AcDbSpline
 70
8
 71
3
 72
8
 73
4
 74
0
 40
0
 40
0
 40
0
 40
0
 40
1
 40
1
 40
1
 40
1
 10
-129.094078
 20
219.171459
 30
0.0
 10
-129.374677
 20
219.550993
 30
0.0
 10
-129.816917
 20
220.356016
 30
0.0
 10
-129.816917
 20
220.487234
 30
0.0
  0
SPLINE
  5
202
100
AcDbEntity
  8
Ebene_1
 62
7
100
AcDbSpline
 70
8
 71
3
 72
8
 73
4
 74
0
 40
0
 40
0
 40
0
 40
0
 40
1
 40
1
 40
1
 40
1
 10
-129.816917
 20
220.487234
 30
0.0
 10
-129.816917
 20
220.528575
 30
0.0
 10
-126.157370
 20
220.562399
 30
0.0
 10
-121.684561
 20
220.562399
 30
0.0
  0
SPLINE
  5
203
100
AcDbEntity
  8
Ebene_1
 62
7
100
AcDbSpline
 70
8
 71
3
 72
8
 73
4
 74
0
 40
0
 40
0
 40
0
 40
0
 40
1
 40
1
 40
1
 40
1
 10
-121.684561
 20
220.562399
 30
0.0
 10
-116.146387
 20
220.562399
 30
0.0
 10
-113.552204
 20
220.517112
 30
0.0
 10
-113.552204
 20
220.420272
 30
0.0
  0
SPLINE
  5
204
100
AcDbEntity
  8
Ebene_1
 62
7
100
AcDbSpline
 70
8
 71
3
 72
8
 73
4
 74
0
 40
0
 40
0
 40
0
 40
0
 40
1
 40
1
 40
1
 40
1
 10
-113.552204
 20
220.420272
 30
0.0
 10
-113.552204
 20
220.104374
 30
0.0
 10
-114.106721
 20
219.235246
 30
0.0
 10
-114.599876
 20
218.778189
 30
0.0
  0
SPLINE
  5
205
100
AcDbEntity
  8
Ebene_1
 62
7
100
AcDbSpline
 70
8
 71
3
 72
8
 73
4
 74
0
 40
0
 40
0
 40
0
 40
0
 40
1
 40
1
 40
1
 40
1
 10
-114.599876
 20
218.778189
 30
0.0
 10
-115.578622
 20
217.871112
 30
0.0
 10
-115.467538
 20
217.902305
 30
0.0
 10
-117.980525
 20
217.828823
 30
0.0
  0
LWPOLYLINE
  5
206
100
AcDbEntity
  8
Ebene_1
 62
7
100
AcDbPolyline
 90
5
 70
0
 10
-123.015641
 20
212.190690
 30
0.0
 10
-123.051344
 20
217.760348
 30
0.0
 10
-125.306545
 20
217.828747
 30
0.0
 10
-127.561736
 20
217.897147
 30
0.0
 10
-128.192677
 20
218.351386
 30
0.0
  0
SPLINE
  5
207
100
AcDbEntity
  8
Ebene_1
 62
7
100
AcDbSpline
 70
8
 71
3
 72
8
 73
4
 74
0
 40
0
 40
0
 40
0
 40
0
 40
1
 40
1
 40
1
 40
1
 10
-121.144231
 20
243.899047
 30
0.0
 10
-134.097211
 20
243.899047
 30
0.0
 10
-144.597205
 20
233.413203
 30
0.0
 10
-144.597205
 20
220.477716
 30
0.0
  0
LWPOLYLINE
  5
208
100
AcDbEntity
  8
Ebene_1
 62
7
100
AcDbPolyline
 90
7
 70
0
 10
-117.980525
 20
217.828823
 30
0.0
 10
-120.317777
 20
217.760423
 30
0.0
 10
-120.353574
 20
212.190765
 30
0.0
 10
-120.389278
 20
206.621126
 30
0.0
 10
-121.684664
 20
206.621126
 30
0.0
 10
-122.980050
 20
206.621126
 30
0.0
 10
-123.015641
 20
212.190690
 30
0.0
  0
SPLINE
  5
209
100
AcDbEntity
  8
Ebene_1
 62
7
100
AcDbSpline
 70
8
 71
3
 72
8
 73
4
 74
0
 40
0
 40
0
 40
0
 40
0
 40
1
 40
1
 40
1
 40
1
 10
-144.597205
 20
79.602332
 30
0.0
 10
-144.597205
 20
66.666827
 30
0.0
 10
-134.097211
 20
56.181002
 30
0.0
 10
-121.144231
 20
56.181002
 30
0.0
  0
LWPOLYLINE
  5
20a
100
AcDbEntity
  8
Ebene_1
 62
7
100
AcDbPolyline
 90
2
 70
0
 10
-144.597205
 20
220.477716
 30
0.0
 10
-144.597205
 20
79.602332
 30
0.0
  0
SPLINE
  5
20b
100
AcDbEntity
  8
Ebene_1
 62
7
100
AcDbSpline
 70
8
 71
3
 72
8
 73
4
 74
0
 40
0
 40
0
 40
0
 40
0
 40
1
 40
1
 40
1
 40
1
 10
-36.504227
 20
56.181002
 30
0.0
 10
-23.551256
 20
56.181002
 30
0.0
 10
-13.051253
 20
66.666827
 30
0.0
 10
-13.051253
 20
79.602332
 30
0.0
  0
LWPOLYLINE
  5
20c
100
AcDbEntity
  8
Ebene_1
 62
7
100
AcDbPolyline
 90
2
 70
0
 10
-121.144231
 20
56.181002
 30
0.0
 10
-36.504227
 20
56.181002
 30
0.0
  0
SPLINE
  5
20d
100
AcDbEntity
  8
Ebene_1
 62
7
100
AcDbSpline
 70
8
 71
3
 72
8
 73
4
 74
0
 40
0
 40
0
 40
0
 40
0
 40
1
 40
1
 40
1
 40
1
 10
-13.051253
 20
220.477716
 30
0.0
 10
-13.051253
 20
233.413203
 30
0.0
 10
-23.551256
 20
243.899047
 30
0.0
 10
-36.504227
 20
243.899047
 30
0.0
  0
LWPOLYLINE
  5
20e
100
AcDbEntity
  8
Ebene_1
 62
7
100
AcDbPolyline
 90
2
 70
0
 10
-13.051253
 20
79.602332
 30
0.0
 10
-13.051253
 20
220.477716
 30
0.0
  0
LWPOLYLINE
  5
20f
100
AcDbEntity
  8
Ebene_1
 62
7
100
AcDbPolyline
 90
2
 70
0
 10
-36.504227
 20
243.899047
 30
0.0
 10
-121.144231
 20
243.899047
 30
0.0
  0
SPLINE
  5
210
100
AcDbEntity
  8
Ebene_1
 62
7
100
AcDbSpline
 70
8
 71
3
 72
8
 73
4
 74
0
 40
0
 40
0
 40
0
 40
0
 40
1
 40
1
 40
1
 40
1
 10
-36.504227
 20
239.320556
 30
0.0
 10
-26.011862
 20
239.320556
 30
0.0
 10
-17.635926
 20
230.955922
 30
0.0
 10
-17.635926
 20
220.477716
 30
0.0
  0
LWPOLYLINE
  5
211
100
AcDbEntity
  8
Ebene_1
 62
7
100
AcDbPolyline
 90
2
 70
0
 10
-121.144231
 20
239.320556
 30
0.0
 10
-36.504227
 20
239.320556
 30
0.0
  0
SPLINE
  5
212
100
AcDbEntity
  8
Ebene_1
 62
7
100
AcDbSpline
 70
8
 71
3
 72
8
 73
4
 74
0
 40
0
 40
0
 40
0
 40
0
 40
1
 40
1
 40
1
 40
1
 10
-17.635926
 20
79.602332
 30
0.0
 10
-17.635926
 20
69.124126
 30
0.0
 10
-26.011862
 20
60.759492
 30
0.0
 10
-36.504227
 20
60.759492
 30
0.0
  0
LWPOLYLINE
  5
213
100
AcDbEntity
  8
Ebene_1
 62
7
100
AcDbPolyline
 90
2
 70
0
 10
-17.635926
 20
220.477716
 30
0.0
 10
-17.635926
 20
79.602332
 30
0.0
  0
SPLINE
  5
214
100
AcDbEntity
  8
Ebene_1
 62
7
100
AcDbSpline
 70
8
 71
3
 72
8
 73
4
 74
0
 40
0
 40
0
 40
0
 40
0
 40
1
 40
1
 40
1
 40
1
 10
-121.144231
 20
60.759492
 30
0.0
 10
-131.636605
 20
60.759492
 30
0.0
 10
-140.012532
 20
69.124126
 30
0.0
 10
-140.012532
 20
79.602332
 30
0.0
  0
LWPOLYLINE
  5
215
100
AcDbEntity
  8
Ebene_1
 62
7
100
AcDbPolyline
 90
2
 70
0
 10
-36.504227
 20
60.759492
 30
0.0
 10
-121.144231
 20
60.759492
 30
0.0
  0
SPLINE
  5
216
100
AcDbEntity
  8
Ebene_1
 62
7
100
AcDbSpline
 70
8
 71
3
 72
8
 73
4
 74
0
 40
0
 40
0
 40
0
 40
0
 40
1
 40
1
 40
1
 40
1
 10
-140.012532
 20
220.477716
 30
0.0
 10
-140.012532
 20
230.955922
 30
0.0
 10
-131.636605
 20
239.320556
 30
0.0
 10
-121.144231
 20
239.320556
 30
0.0
  0
LWPOLYLINE
  5
217
100
AcDbEntity
  8
Ebene_1
 62
7
100
AcDbPolyline
 90
2
 70
0
 10
-140.012532
 20
79.602332
 30
0.0
 10
-140.012532
 20
220.477716
 30
0.0
  0
SPLINE
  5
218
100
AcDbEntity
  8
Ebene_1
 62
7
100
AcDbSpline
 70
8
 71
3
 72
8
 73
4
 74
0
 40
0
 40
0
 40
0
 40
0
 40
1
 40
1
 40
1
 40
1
 10
-129.115867
 20
70.836329
 30
0.0
 10
-129.115871
 20
69.909420
 30
0.0
 10
-129.867280
 20
69.158015
 30
0.0
 10
-130.794188
 20
69.158016
 30
0.0
  0
SPLINE
  5
219
100
AcDbEntity
  8
Ebene_1
 62
7
100
AcDbSpline
 70
8
 71
3
 72
8
 73
4
 74
0
 40
0
 40
0
 40
0
 40
0
 40
1
 40
1
 40
1
 40
1
 10
-130.794188
 20
69.158016
 30
0.0
 10
-131.721093
 20
69.158020
 30
0.0
 10
-132.472497
 20
69.909424
 30
0.0
 10
-132.472501
 20
70.836329
 30
0.0
  0
SPLINE
  5
21a
100
AcDbEntity
  8
Ebene_1
 62
7
100
AcDbSpline
 70
8
 71
3
 72
8
 73
4
 74
0
 40
0
 40
0
 40
0
 40
0
 40
1
 40
1
 40
1
 40
1
 10
-132.472501
 20
70.836329
 30
0.0
 10
-132.472502
 20
71.763237
 30
0.0
 10
-131.721097
 20
72.514646
 30
0.0
 10
-130.794188
 20
72.514650
 30
0.0
  0
SPLINE
  5
21b
100
AcDbEntity
  8
Ebene_1
 62
7
100
AcDbSpline
 70
8
 71
3
 72
8
 73
4
 74
0
 40
0
 40
0
 40
0
 40
0
 40
1
 40
1
 40
1
 40
1
 10
-130.794188
 20
72.514650
 30
0.0
 10
-130.349070
 20
72.514651
 30
0.0
 10
-129.922182
 20
72.337828
 30
0.0
 10
-129.607435
 20
72.023082
 30
0.0
  0
SPLINE
  5
21c
100
AcDbEntity
  8
Ebene_1
 62
7
100
AcDbSpline
 70
8
 71
3
 72
8
 73
4
 74
0
 40
0
 40
0
 40
0
 40
0
 40
1
 40
1
 40
1
 40
1
 10
-129.607435
 20
72.023082
 30
0.0
 10
-129.292689
 20
71.708335
 30
0.0
 10
-129.115866
 20
71.281447
 30
0.0
 10
-129.115867
 20
70.836329
 30
0.0
  0
LWPOLYLINE
  5
21d
100
AcDbEntity
  8
Ebene_1
 62
7
100
AcDbPolyline
 90
1
 70
1
 10
-121.144231
 20
239.320556
 30
0.0
  0
SPLINE
  5
21e
100
AcDbEntity
  8
Ebene_1
 62
7
100
AcDbSpline
 70
8
 71
3
 72
8
 73
4
 74
0
 40
0
 40
0
 40
0
 40
0
 40
1
 40
1
 40
1
 40
1
 10
-25.118015
 20
71.032142
 30
0.0
 10
-25.118012
 20
70.587023
 30
0.0
 10
-25.294832
 20
70.160134
 30
0.0
 10
-25.609576
 20
69.845386
 30
0.0
  0
SPLINE
  5
21f
100
AcDbEntity
  8
Ebene_1
 62
7
100
AcDbSpline
 70
8
 71
3
 72
8
 73
4
 74
0
 40
0
 40
0
 40
0
 40
0
 40
1
 40
1
 40
1
 40
1
 10
-25.609576
 20
69.845386
 30
0.0
 10
-25.924321
 20
69.530637
 30
0.0
 10
-26.351208
 20
69.353812
 30
0.0
 10
-26.796327
 20
69.353811
 30
0.0
  0
SPLINE
  5
220
100
AcDbEntity
  8
Ebene_1
 62
7
100
AcDbSpline
 70
8
 71
3
 72
8
 73
4
 74
0
 40
0
 40
0
 40
0
 40
0
 40
1
 40
1
 40
1
 40
1
 10
-26.796327
 20
69.353811
 30
0.0
 10
-27.241447
 20
69.353810
 30
0.0
 10
-27.668337
 20
69.530634
 30
0.0
 10
-27.983084
 20
69.845382
 30
0.0
  0
SPLINE
  5
221
100
AcDbEntity
  8
Ebene_1
 62
7
100
AcDbSpline
 70
8
 71
3
 72
8
 73
4
 74
0
 40
0
 40
0
 40
0
 40
0
 40
1
 40
1
 40
1
 40
1
 10
-27.983084
 20
69.845382
 30
0.0
 10
-28.297830
 20
70.160131
 30
0.0
 10
-28.474652
 20
70.587021
 30
0.0
 10
-28.474649
 20
71.032142
 30
0.0
  0
SPLINE
  5
222
100
AcDbEntity
  8
Ebene_1
 62
7
100
AcDbSpline
 70
8
 71
3
 72
8
 73
4
 74
0
 40
0
 40
0
 40
0
 40
0
 40
1
 40
1
 40
1
 40
1
 10
-28.474649
 20
71.032142
 30
0.0
 10
-28.474645
 20
71.959050
 30
0.0
 10
-27.723235
 20
72.710455
 30
0.0
 10
-26.796327
 20
72.710454
 30
0.0
  0
SPLINE
  5
223
100
AcDbEntity
  8
Ebene_1
 62
7
100
AcDbSpline
 70
8
 71
3
 72
8
 73
4
 74
0
 40
0
 40
0
 40
0
 40
0
 40
1
 40
1
 40
1
 40
1
 10
-26.796327
 20
72.710454
 30
0.0
 10
-25.869422
 20
72.710450
 30
0.0
 10
-25.118019
 20
71.959046
 30
0.0
 10
-25.118015
 20
71.032142
 30
0.0
  0
LWPOLYLINE
  5
224
100
AcDbEntity
  8
Ebene_1
 62
7
100
AcDbPolyline
 90
1
 70
1
 10
-129.115867
 20
70.836329
 30
0.0
  0
SPLINE
  5
225
100
AcDbEntity
  8
Ebene_1
 62
7
100
AcDbSpline
 70
8
 71
3
 72
8
 73
4
 74
0
 40
0
 40
0
 40
0
 40
0
 40
1
 40
1
 40
1
 40
1
 10
-24.864259
 20
228.852103
 30
0.0
 10
-24.864263
 20
227.925195
 30
0.0
 10
-25.615672
 20
227.173789
 30
0.0
 10
-26.542581
 20
227.173791
 30
0.0
  0
SPLINE
  5
226
100
AcDbEntity
  8
Ebene_1
 62
7
100
AcDbSpline
 70
8
 71
3
 72
8
 73
4
 74
0
 40
0
 40
0
 40
0
 40
0
 40
1
 40
1
 40
1
 40
1
 10
-26.542581
 20
227.173791
 30
0.0
 10
-27.469489
 20
227.173789
 30
0.0
 10
-28.220899
 20
227.925195
 30
0.0
 10
-28.220902
 20
228.852103
 30
0.0
  0
SPLINE
  5
227
100
AcDbEntity
  8
Ebene_1
 62
7
100
AcDbSpline
 70
8
 71
3
 72
8
 73
4
 74
0
 40
0
 40
0
 40
0
 40
0
 40
1
 40
1
 40
1
 40
1
 10
-28.220902
 20
228.852103
 30
0.0
 10
-28.220903
 20
229.297222
 30
0.0
 10
-28.044081
 20
229.724110
 30
0.0
 10
-27.729334
 20
230.038856
 30
0.0
  0
SPLINE
  5
228
100
AcDbEntity
  8
Ebene_1
 62
7
100
AcDbSpline
 70
8
 71
3
 72
8
 73
4
 74
0
 40
0
 40
0
 40
0
 40
0
 40
1
 40
1
 40
1
 40
1
 10
-27.729334
 20
230.038856
 30
0.0
 10
-27.414588
 20
230.353603
 30
0.0
 10
-26.987699
 20
230.530425
 30
0.0
 10
-26.542581
 20
230.530425
 30
0.0
  0
SPLINE
  5
229
100
AcDbEntity
  8
Ebene_1
 62
7
100
AcDbSpline
 70
8
 71
3
 72
8
 73
4
 74
0
 40
0
 40
0
 40
0
 40
0
 40
1
 40
1
 40
1
 40
1
 10
-26.542581
 20
230.530425
 30
0.0
 10
-26.097462
 20
230.530425
 30
0.0
 10
-25.670574
 20
230.353603
 30
0.0
 10
-25.355827
 20
230.038856
 30
0.0
  0
SPLINE
  5
22a
100
AcDbEntity
  8
Ebene_1
 62
7
100
AcDbSpline
 70
8
 71
3
 72
8
 73
4
 74
0
 40
0
 40
0
 40
0
 40
0
 40
1
 40
1
 40
1
 40
1
 10
-25.355827
 20
230.038856
 30
0.0
 10
-25.041081
 20
229.724110
 30
0.0
 10
-24.864258
 20
229.297222
 30
0.0
 10
-24.864259
 20
228.852103
 30
0.0
  0
LWPOLYLINE
  5
22b
100
AcDbEntity
  8
Ebene_1
 62
7
100
AcDbPolyline
 90
1
 70
1
 10
-25.118015
 20
71.032142
 30
0.0
  0
SPLINE
  5
22c
100
AcDbEntity
  8
Ebene_1
 62
7
100
AcDbSpline
 70
8
 71
3
 72
8
 73
4
 74
0
 40
0
 40
0
 40
0
 40
0
 40
1
 40
1
 40
1
 40
1
 10
-128.920063
 20
228.852103
 30
0.0
 10
-128.920067
 20
227.925195
 30
0.0
 10
-129.671476
 20
227.173789
 30
0.0
 10
-130.598385
 20
227.173791
 30
0.0
  0
SPLINE
  5
22d
100
AcDbEntity
  8
Ebene_1
 62
7
100
AcDbSpline
 70
8
 71
3
 72
8
 73
4
 74
0
 40
0
 40
0
 40
0
 40
0
 40
1
 40
1
 40
1
 40
1
 10
-130.598385
 20
227.173791
 30
0.0
 10
-131.525293
 20
227.173789
 30
0.0
 10
-132.276703
 20
227.925195
 30
0.0
 10
-132.276706
 20
228.852103
 30
0.0
  0
SPLINE
  5
22e
100
AcDbEntity
  8
Ebene_1
 62
7
100
AcDbSpline
 70
8
 71
3
 72
8
 73
4
 74
0
 40
0
 40
0
 40
0
 40
0
 40
1
 40
1
 40
1
 40
1
 10
-132.276706
 20
228.852103
 30
0.0
 10
-132.276707
 20
229.297222
 30
0.0
 10
-132.099885
 20
229.724110
 30
0.0
 10
-131.785138
 20
230.038856
 30
0.0
  0
SPLINE
  5
22f
100
AcDbEntity
  8
Ebene_1
 62
7
100
AcDbSpline
 70
8
 71
3
 72
8
 73
4
 74
0
 40
0
 40
0
 40
0
 40
0
 40
1
 40
1
 40
1
 40
1
 10
-131.785138
 20
230.038856
 30
0.0
 10
-131.470392
 20
230.353603
 30
0.0
 10
-131.043503
 20
230.530425
 30
0.0
 10
-130.598385
 20
230.530425
 30
0.0
  0
SPLINE
  5
230
100
AcDbEntity
  8
Ebene_1
 62
7
100
AcDbSpline
 70
8
 71
3
 72
8
 73
4
 74
0
 40
0
 40
0
 40
0
 40
0
 40
1
 40
1
 40
1
 40
1
 10
-130.598385
 20
230.530425
 30
0.0
 10
-130.153266
 20
230.530425
 30
0.0
 10
-129.726378
 20
230.353603
 30
0.0
 10
-129.411631
 20
230.038856
 30
0.0
  0
SPLINE
  5
231
100
AcDbEntity
  8
Ebene_1
 62
7
100
AcDbSpline
 70
8
 71
3
 72
8
 73
4
 74
0
 40
0
 40
0
 40
0
 40
0
 40
1
 40
1
 40
1
 40
1
 10
-129.411631
 20
230.038856
 30
0.0
 10
-129.096885
 20
229.724110
 30
0.0
 10
-128.920062
 20
229.297222
 30
0.0
 10
-128.920063
 20
228.852103
 30
0.0
  0
LWPOLYLINE
  5
232
100
AcDbEntity
  8
Ebene_1
 62
7
100
AcDbPolyline
 90
1
 70
1
 10
-24.864259
 20
228.852103
 30
0.0
  0
SPLINE
  5
233
100
AcDbEntity
  8
Ebene_1
 62
7
100
AcDbSpline
 70
8
 71
3
 72
8
 73
4
 74
0
 40
0
 40
0
 40
0
 40
0
 40
1
 40
1
 40
1
 40
1
 10
-79.892084
 20
112.596031
 30
0.0
 10
-80.032820
 20
113.338272
 30
0.0
 10
-92.143046
 20
180.949104
 30
0.0
 10
-92.143046
 20
180.992577
 30
0.0
  0
SPLINE
  5
234
100
AcDbEntity
  8
Ebene_1
 62
7
100
AcDbSpline
 70
8
 71
3
 72
8
 73
4
 74
0
 40
0
 40
0
 40
0
 40
0
 40
1
 40
1
 40
1
 40
1
 10
-92.143046
 20
180.992577
 30
0.0
 10
-92.143046
 20
181.054400
 30
0.0
 10
-95.719885
 20
180.964015
 30
0.0
 10
-97.517774
 20
180.856689
 30
0.0
  0
SPLINE
  5
235
100
AcDbEntity
  8
Ebene_1
 62
7
100
AcDbSpline
 70
8
 71
3
 72
8
 73
4
 74
0
 40
0
 40
0
 40
0
 40
0
 40
1
 40
1
 40
1
 40
1
 10
-97.517774
 20
180.856689
 30
0.0
 10
-102.868224
 20
180.537616
 30
0.0
 10
-105.620112
 20
179.600670
 30
0.0
 10
-106.950168
 20
177.645188
 30
0.0
  0
SPLINE
  5
236
100
AcDbEntity
  8
Ebene_1
 62
7
100
AcDbSpline
 70
8
 71
3
 72
8
 73
4
 74
0
 40
0
 40
0
 40
0
 40
0
 40
1
 40
1
 40
1
 40
1
 10
-106.950168
 20
177.645188
 30
0.0
 10
-107.440533
 20
176.924210
 30
0.0
 10
-107.645271
 20
176.410140
 30
0.0
 10
-107.859312
 20
175.362534
 30
0.0
  0
SPLINE
  5
237
100
AcDbEntity
  8
Ebene_1
 62
7
100
AcDbSpline
 70
8
 71
3
 72
8
 73
4
 74
0
 40
0
 40
0
 40
0
 40
0
 40
1
 40
1
 40
1
 40
1
 10
-107.859312
 20
175.362534
 30
0.0
 10
-107.946221
 20
174.936896
 30
0.0
 10
-108.033235
 20
174.572770
 30
0.0
 10
-108.052628
 20
174.553397
 30
0.0
  0
SPLINE
  5
238
100
AcDbEntity
  8
Ebene_1
 62
7
100
AcDbSpline
 70
8
 71
3
 72
8
 73
4
 74
0
 40
0
 40
0
 40
0
 40
0
 40
1
 40
1
 40
1
 40
1
 10
-108.052628
 20
174.553397
 30
0.0
 10
-108.117645
 20
174.488379
 30
0.0
 10
-110.341295
 20
175.544761
 30
0.0
 10
-111.455347
 20
176.170215
 30
0.0
  0
SPLINE
  5
239
100
AcDbEntity
  8
Ebene_1
 62
7
100
AcDbSpline
 70
8
 71
3
 72
8
 73
4
 74
0
 40
0
 40
0
 40
0
 40
0
 40
1
 40
1
 40
1
 40
1
 10
-111.455347
 20
176.170215
 30
0.0
 10
-114.787506
 20
178.040949
 30
0.0
 10
-117.403553
 20
180.206948
 30
0.0
 10
-119.183140
 20
182.568685
 30
0.0
  0
SPLINE
  5
23a
100
AcDbEntity
  8
Ebene_1
 62
7
100
AcDbSpline
 70
8
 71
3
 72
8
 73
4
 74
0
 40
0
 40
0
 40
0
 40
0
 40
1
 40
1
 40
1
 40
1
 10
-119.183140
 20
182.568685
 30
0.0
 10
-119.444628
 20
182.915654
 30
0.0
 10
-119.658518
 20
183.227925
 30
0.0
 10
-119.658518
 20
183.262642
 30
0.0
  0
SPLINE
  5
23b
100
AcDbEntity
  8
Ebene_1
 62
7
100
AcDbSpline
 70
8
 71
3
 72
8
 73
4
 74
0
 40
0
 40
0
 40
0
 40
0
 40
1
 40
1
 40
1
 40
1
 10
-119.658518
 20
183.262642
 30
0.0
 10
-119.658518
 20
183.297499
 30
0.0
 10
-119.523147
 20
183.381787
 30
0.0
 10
-119.357700
 20
183.450243
 30
0.0
  0
SPLINE
  5
23c
100
AcDbEntity
  8
Ebene_1
 62
7
100
AcDbSpline
 70
8
 71
3
 72
8
 73
4
 74
0
 40
0
 40
0
 40
0
 40
0
 40
1
 40
1
 40
1
 40
1
 10
-119.357700
 20
183.450243
 30
0.0
 10
-119.192235
 20
183.518831
 30
0.0
 10
-118.479299
 20
183.826010
 30
0.0
 10
-117.773344
 20
184.133113
 30
0.0
  0
SPLINE
  5
23d
100
AcDbEntity
  8
Ebene_1
 62
7
100
AcDbSpline
 70
8
 71
3
 72
8
 73
4
 74
0
 40
0
 40
0
 40
0
 40
0
 40
1
 40
1
 40
1
 40
1
 10
-117.773344
 20
184.133113
 30
0.0
 10
-109.685099
 20
187.651849
 30
0.0
 10
-99.171602
 20
190.111385
 30
0.0
 10
-89.736436
 20
190.692078
 30
0.0
  0
LWPOLYLINE
  5
23e
100
AcDbEntity
  8
Ebene_1
 62
7
100
AcDbPolyline
 90
1
 70
1
 10
-128.920063
 20
228.852103
 30
0.0
  0
SPLINE
  5
23f
100
AcDbEntity
  8
Ebene_1
 62
7
100
AcDbSpline
 70
8
 71
3
 72
8
 73
4
 74
0
 40
0
 40
0
 40
0
 40
0
 40
1
 40
1
 40
1
 40
1
 10
-84.373002
 20
185.234763
 30
0.0
 10
-81.886379
 20
182.204757
 30
0.0
 10
-79.824380
 20
179.755998
 30
0.0
 10
-79.790753
 20
179.793082
 30
0.0
  0
SPLINE
  5
240
100
AcDbEntity
  8
Ebene_1
 62
7
100
AcDbSpline
 70
8
 71
3
 72
8
 73
4
 74
0
 40
0
 40
0
 40
0
 40
0
 40
1
 40
1
 40
1
 40
1
 10
-79.790753
 20
179.793082
 30
0.0
 10
-79.757211
 20
179.830101
 30
0.0
 10
-77.738929
 20
182.286432
 30
0.0
 10
-75.305889
 20
185.251393
 30
0.0
  0
SPLINE
  5
241
100
AcDbEntity
  8
Ebene_1
 62
7
100
AcDbSpline
 70
8
 71
3
 72
8
 73
4
 74
0
 40
0
 40
0
 40
0
 40
0
 40
1
 40
1
 40
1
 40
1
 10
-75.305889
 20
185.251393
 30
0.0
 10
-72.872830
 20
188.216345
 30
0.0
 10
-70.844984
 20
190.665235
 30
0.0
 10
-70.799575
 20
190.693309
 30
0.0
  0
SPLINE
  5
242
100
AcDbEntity
  8
Ebene_1
 62
7
100
AcDbSpline
 70
8
 71
3
 72
8
 73
4
 74
0
 40
0
 40
0
 40
0
 40
0
 40
1
 40
1
 40
1
 40
1
 10
-70.799575
 20
190.693309
 30
0.0
 10
-70.704821
 20
190.751843
 30
0.0
 10
-68.681343
 20
190.621433
 30
0.0
 10
-66.913839
 20
190.442691
 30
0.0
  0
SPLINE
  5
243
100
AcDbEntity
  8
Ebene_1
 62
7
100
AcDbSpline
 70
8
 71
3
 72
8
 73
4
 74
0
 40
0
 40
0
 40
0
 40
0
 40
1
 40
1
 40
1
 40
1
 10
-66.913839
 20
190.442691
 30
0.0
 10
-59.460012
 20
189.689232
 30
0.0
 10
-51.973783
 20
187.964402
 30
0.0
 10
-45.174189
 20
185.433883
 30
0.0
  0
SPLINE
  5
244
100
AcDbEntity
  8
Ebene_1
 62
7
100
AcDbSpline
 70
8
 71
3
 72
8
 73
4
 74
0
 40
0
 40
0
 40
0
 40
0
 40
1
 40
1
 40
1
 40
1
 10
-45.174189
 20
185.433883
 30
0.0
 10
-43.569453
 20
184.836682
 30
0.0
 10
-40.988142
 20
183.770745
 30
0.0
 10
-40.314930
 20
183.427308
 30
0.0
  0
LWPOLYLINE
  5
245
100
AcDbEntity
  8
Ebene_1
 62
7
100
AcDbPolyline
 90
3
 70
0
 10
-89.736436
 20
190.692078
 30
0.0
 10
-88.894142
 20
190.743941
 30
0.0
 10
-84.373002
 20
185.234763
 30
0.0
  0
SPLINE
  5
246
100
AcDbEntity
  8
Ebene_1
 62
7
100
AcDbSpline
 70
8
 71
3
 72
8
 73
4
 74
0
 40
0
 40
0
 40
0
 40
0
 40
1
 40
1
 40
1
 40
1
 10
-40.406115
 20
182.709083
 30
0.0
 10
-41.982739
 20
180.541430
 30
0.0
 10
-44.454385
 20
178.411266
 30
0.0
 10
-47.515275
 20
176.582079
 30
0.0
  0
SPLINE
  5
247
100
AcDbEntity
  8
Ebene_1
 62
7
100
AcDbSpline
 70
8
 71
3
 72
8
 73
4
 74
0
 40
0
 40
0
 40
0
 40
0
 40
1
 40
1
 40
1
 40
1
 10
-47.515275
 20
176.582079
 30
0.0
 10
-48.357080
 20
176.079012
 30
0.0
 10
-51.143739
 20
174.680350
 30
0.0
 10
-51.523696
 20
174.570205
 30
0.0
  0
SPLINE
  5
248
100
AcDbEntity
  8
Ebene_1
 62
7
100
AcDbSpline
 70
8
 71
3
 72
8
 73
4
 74
0
 40
0
 40
0
 40
0
 40
0
 40
1
 40
1
 40
1
 40
1
 10
-51.523696
 20
174.570205
 30
0.0
 10
-51.680500
 20
174.524731
 30
0.0
 10
-51.701526
 20
174.558837
 30
0.0
 10
-51.753683
 20
174.944206
 30
0.0
  0
SPLINE
  5
249
100
AcDbEntity
  8
Ebene_1
 62
7
100
AcDbSpline
 70
8
 71
3
 72
8
 73
4
 74
0
 40
0
 40
0
 40
0
 40
0
 40
1
 40
1
 40
1
 40
1
 10
-51.753683
 20
174.944206
 30
0.0
 10
-51.785252
 20
175.177423
 30
0.0
 10
-51.899303
 20
175.674129
 30
0.0
 10
-52.007110
 20
176.047969
 30
0.0
  0
SPLINE
  5
24a
100
AcDbEntity
  8
Ebene_1
 62
7
100
AcDbSpline
 70
8
 71
3
 72
8
 73
4
 74
0
 40
0
 40
0
 40
0
 40
0
 40
1
 40
1
 40
1
 40
1
 10
-52.007110
 20
176.047969
 30
0.0
 10
-52.856046
 20
178.991884
 30
0.0
 10
-55.364363
 20
180.299137
 30
0.0
 10
-61.097876
 20
180.785677
 30
0.0
  0
SPLINE
  5
24b
100
AcDbEntity
  8
Ebene_1
 62
7
100
AcDbSpline
 70
8
 71
3
 72
8
 73
4
 74
0
 40
0
 40
0
 40
0
 40
0
 40
1
 40
1
 40
1
 40
1
 10
-61.097876
 20
180.785677
 30
0.0
 10
-62.346303
 20
180.891613
 30
0.0
 10
-67.538353
 20
181.027585
 30
0.0
 10
-67.603587
 20
180.956019
 30
0.0
  0
SPLINE
  5
24c
100
AcDbEntity
  8
Ebene_1
 62
7
100
AcDbSpline
 70
8
 71
3
 72
8
 73
4
 74
0
 40
0
 40
0
 40
0
 40
0
 40
1
 40
1
 40
1
 40
1
 10
-67.603587
 20
180.956019
 30
0.0
 10
-67.637035
 20
180.919376
 30
0.0
 10
-77.659978
 20
124.693263
 30
0.0
 10
-79.775288
 20
112.676260
 30
0.0
  0
LWPOLYLINE
  5
24d
100
AcDbEntity
  8
Ebene_1
 62
7
100
AcDbPolyline
 90
3
 70
0
 10
-40.314930
 20
183.427308
 30
0.0
 10
-40.000423
 20
183.266851
 30
0.0
 10
-40.406115
 20
182.709083
 30
0.0
  0
SPLINE
  5
24e
100
AcDbEntity
  8
Ebene_1
 62
7
100
AcDbSpline
 70
8
 71
3
 72
8
 73
4
 74
0
 40
0
 40
0
 40
0
 40
0
 40
1
 40
1
 40
1
 40
1
 10
-40.000000
 20
186.295833
 30
0.0
 10
-49.580985
 20
190.336568
 30
0.0
 10
-60.466127
 20
192.907836
 30
0.0
 10
-71.325953
 20
193.695571
 30
0.0
  0
SPLINE
  5
24f
100
AcDbEntity
  8
Ebene_1
 62
7
100
AcDbSpline
 70
8
 71
3
 72
8
 73
4
 74
0
 40
0
 40
0
 40
0
 40
0
 40
1
 40
1
 40
1
 40
1
 10
-71.325953
 20
193.695571
 30
0.0
 10
-74.814970
 20
193.948659
 30
0.0
 10
-82.063401
 20
194.031528
 30
0.0
 10
-85.573286
 20
193.858481
 30
0.0
  0
SPLINE
  5
250
100
AcDbEntity
  8
Ebene_1
 62
7
100
AcDbSpline
 70
8
 71
3
 72
8
 73
4
 74
0
 40
0
 40
0
 40
0
 40
0
 40
1
 40
1
 40
1
 40
1
 10
-85.573286
 20
193.858481
 30
0.0
 10
-97.736710
 20
193.258760
 30
0.0
 10
-108.927299
 20
190.779908
 30
0.0
 10
-119.682082
 20
186.303002
 30
0.0
  0
SPLINE
  5
251
100
AcDbEntity
  8
Ebene_1
 62
7
100
AcDbSpline
 70
8
 71
3
 72
8
 73
4
 74
0
 40
0
 40
0
 40
0
 40
0
 40
1
 40
1
 40
1
 40
1
 10
-119.682082
 20
186.303002
 30
0.0
 10
-120.423045
 20
185.994573
 30
0.0
 10
-121.075399
 20
185.759910
 30
0.0
 10
-121.131800
 20
185.781538
 30
0.0
  0
SPLINE
  5
252
100
AcDbEntity
  8
Ebene_1
 62
7
100
AcDbSpline
 70
8
 71
3
 72
8
 73
4
 74
0
 40
0
 40
0
 40
0
 40
0
 40
1
 40
1
 40
1
 40
1
 10
-121.131800
 20
185.781538
 30
0.0
 10
-121.188362
 20
185.803336
 30
0.0
 10
-121.652080
 20
186.663783
 30
0.0
 10
-122.162645
 20
187.694007
 30
0.0
  0
SPLINE
  5
253
100
AcDbEntity
  8
Ebene_1
 62
7
100
AcDbSpline
 70
8
 71
3
 72
8
 73
4
 74
0
 40
0
 40
0
 40
0
 40
0
 40
1
 40
1
 40
1
 40
1
 10
-122.162645
 20
187.694007
 30
0.0
 10
-123.117940
 20
189.621518
 30
0.0
 10
-123.563140
 20
190.622804
 30
0.0
 10
-123.495097
 20
190.690856
 30
0.0
  0
SPLINE
  5
254
100
AcDbEntity
  8
Ebene_1
 62
7
100
AcDbSpline
 70
8
 71
3
 72
8
 73
4
 74
0
 40
0
 40
0
 40
0
 40
0
 40
1
 40
1
 40
1
 40
1
 10
-123.495097
 20
190.690856
 30
0.0
 10
-123.425382
 20
190.760572
 30
0.0
 10
-120.620672
 20
191.820082
 30
0.0
 10
-118.976644
 20
192.397854
 30
0.0
  0
SPLINE
  5
255
100
AcDbEntity
  8
Ebene_1
 62
7
100
AcDbSpline
 70
8
 71
3
 72
8
 73
4
 74
0
 40
0
 40
0
 40
0
 40
0
 40
1
 40
1
 40
1
 40
1
 10
-118.976644
 20
192.397854
 30
0.0
 10
-103.564549
 20
197.814421
 30
0.0
 10
-87.104783
 20
200.059033
 30
0.0
 10
-71.526501
 20
198.868660
 30
0.0
  0
SPLINE
  5
256
100
AcDbEntity
  8
Ebene_1
 62
7
100
AcDbSpline
 70
8
 71
3
 72
8
 73
4
 74
0
 40
0
 40
0
 40
0
 40
0
 40
1
 40
1
 40
1
 40
1
 10
-71.526501
 20
198.868660
 30
0.0
 10
-59.874845
 20
197.978345
 30
0.0
 10
-48.893718
 20
195.520548
 30
0.0
 10
-37.715664
 20
191.301099
 30
0.0
  0
SPLINE
  5
257
100
AcDbEntity
  8
Ebene_1
 62
7
100
AcDbSpline
 70
8
 71
3
 72
8
 73
4
 74
0
 40
0
 40
0
 40
0
 40
0
 40
1
 40
1
 40
1
 40
1
 10
-37.715664
 20
191.301099
 30
0.0
 10
-36.883432
 20
190.986958
 30
0.0
 10
-36.188207
 20
190.715642
 30
0.0
 10
-36.170741
 20
190.698147
 30
0.0
  0
SPLINE
  5
258
100
AcDbEntity
  8
Ebene_1
 62
7
100
AcDbSpline
 70
8
 71
3
 72
8
 73
4
 74
0
 40
0
 40
0
 40
0
 40
0
 40
1
 40
1
 40
1
 40
1
 10
-36.170741
 20
190.698147
 30
0.0
 10
-36.079322
 20
190.606822
 30
0.0
 10
-38.314425
 20
185.940934
 30
0.0
 10
-38.540896
 20
185.750270
 30
0.0
  0
SPLINE
  5
259
100
AcDbEntity
  8
Ebene_1
 62
7
100
AcDbSpline
 70
8
 71
3
 72
8
 73
4
 74
0
 40
0
 40
0
 40
0
 40
0
 40
1
 40
1
 40
1
 40
1
 10
-38.540896
 20
185.750270
 30
0.0
 10
-38.571338
 20
185.724714
 30
0.0
 10
-39.227872
 20
185.970201
 30
0.0
 10
-40.000000
 20
186.295833
 30
0.0
  0
LWPOLYLINE
  5
25a
100
AcDbEntity
  8
Ebene_1
 62
7
100
AcDbPolyline
 90
3
 70
0
 10
-79.775288
 20
112.676260
 30
0.0
 10
-79.838896
 20
112.315282
 30
0.0
 10
-79.892084
 20
112.596031
 30
0.0
  0
LWPOLYLINE
  5
25b
100
AcDbEntity
  8
Ebene_1
 62
7
100
AcDbPolyline
 90
1
 70
1
 10
-40.000000
 20
186.295833
 30
0.0
  0
SPLINE
  5
25c
100
AcDbEntity
  8
Ebene_1
 62
7
100
AcDbSpline
 70
8
 71
3
 72
8
 73
4
 74
0
 40
0
 40
0
 40
0
 40
0
 40
1
 40
1
 40
1
 40
1
 10
-118.283232
 20
102.081089
 30
0.0
 10
-118.283232
 20
102.878310
 30
0.0
 10
-118.423483
 20
103.601716
 30
0.0
 10
-118.703984
 20
104.251307
 30
0.0
  0
SPLINE
  5
25d
100
AcDbEntity
  8
Ebene_1
 62
7
100
AcDbSpline
 70
8
 71
3
 72
8
 73
4
 74
0
 40
0
 40
0
 40
0
 40
0
 40
1
 40
1
 40
1
 40
1
 10
-118.703984
 20
104.251307
 30
0.0
 10
-118.969729
 20
104.915655
 30
0.0
 10
-119.360957
 20
105.484043
 30
0.0
 10
-119.877670
 20
105.956472
 30
0.0
  0
SPLINE
  5
25e
100
AcDbEntity
  8
Ebene_1
 62
7
100
AcDbSpline
 70
8
 71
3
 72
8
 73
4
 74
0
 40
0
 40
0
 40
0
 40
0
 40
1
 40
1
 40
1
 40
1
 10
-119.877670
 20
105.956472
 30
0.0
 10
-120.379625
 20
106.428900
 30
0.0
 10
-120.999689
 20
106.790604
 30
0.0
 10
-121.737862
 20
107.041585
 30
0.0
  0
SPLINE
  5
25f
100
AcDbEntity
  8
Ebene_1
 62
7
100
AcDbSpline
 70
8
 71
3
 72
8
 73
4
 74
0
 40
0
 40
0
 40
0
 40
0
 40
1
 40
1
 40
1
 40
1
 10
-121.737862
 20
107.041585
 30
0.0
 10
-122.461264
 20
107.307323
 30
0.0
 10
-123.288012
 20
107.440192
 30
0.0
 10
-124.218105
 20
107.440192
 30
0.0
  0
LWPOLYLINE
  5
260
100
AcDbEntity
  8
Ebene_1
 62
7
100
AcDbPolyline
 90
2
 70
0
 10
-118.283232
 20
102.036836
 30
0.0
 10
-118.283232
 20
102.081089
 30
0.0
  0
SPLINE
  5
261
100
AcDbEntity
  8
Ebene_1
 62
7
100
AcDbSpline
 70
8
 71
3
 72
8
 73
4
 74
0
 40
0
 40
0
 40
0
 40
0
 40
1
 40
1
 40
1
 40
1
 10
-124.550286
 20
96.589114
 30
0.0
 10
-123.679247
 20
96.589114
 30
0.0
 10
-122.867260
 20
96.699838
 30
0.0
 10
-122.114324
 20
96.921285
 30
0.0
  0
SPLINE
  5
262
100
AcDbEntity
  8
Ebene_1
 62
7
100
AcDbSpline
 70
8
 71
3
 72
8
 73
4
 74
0
 40
0
 40
0
 40
0
 40
0
 40
1
 40
1
 40
1
 40
1
 10
-122.114324
 20
96.921285
 30
0.0
 10
-121.346630
 20
97.157502
 30
0.0
 10
-120.682279
 20
97.504443
 30
0.0
 10
-120.121269
 20
97.962108
 30
0.0
  0
SPLINE
  5
263
100
AcDbEntity
  8
Ebene_1
 62
7
100
AcDbSpline
 70
8
 71
3
 72
8
 73
4
 74
0
 40
0
 40
0
 40
0
 40
0
 40
1
 40
1
 40
1
 40
1
 10
-120.121269
 20
97.962108
 30
0.0
 10
-119.545496
 20
98.419772
 30
0.0
 10
-119.095213
 20
98.988161
 30
0.0
 10
-118.770421
 20
99.667273
 30
0.0
  0
SPLINE
  5
264
100
AcDbEntity
  8
Ebene_1
 62
7
100
AcDbSpline
 70
8
 71
3
 72
8
 73
4
 74
0
 40
0
 40
0
 40
0
 40
0
 40
1
 40
1
 40
1
 40
1
 10
-118.770421
 20
99.667273
 30
0.0
 10
-118.445628
 20
100.346391
 30
0.0
 10
-118.283232
 20
101.136233
 30
0.0
 10
-118.283232
 20
102.036798
 30
0.0
  0
LWPOLYLINE
  5
265
100
AcDbEntity
  8
Ebene_1
 62
7
100
AcDbPolyline
 90
6
 70
0
 10
-124.218105
 20
107.440192
 30
0.0
 10
-130.551595
 20
107.440192
 30
0.0
 10
-130.551595
 20
91.938653
 30
0.0
 10
-127.141256
 20
91.938653
 30
0.0
 10
-127.141256
 20
96.589114
 30
0.0
 10
-124.550286
 20
96.589114
 30
0.0
  0
SPLINE
  5
266
100
AcDbEntity
  8
Ebene_1
 62
7
100
AcDbSpline
 70
8
 71
3
 72
8
 73
4
 74
0
 40
0
 40
0
 40
0
 40
0
 40
1
 40
1
 40
1
 40
1
 10
-121.737862
 20
101.970409
 30
0.0
 10
-121.737862
 20
101.306061
 30
0.0
 10
-121.974076
 20
100.745054
 30
0.0
 10
-122.446504
 20
100.287390
 30
0.0
  0
SPLINE
  5
267
100
AcDbEntity
  8
Ebene_1
 62
7
100
AcDbSpline
 70
8
 71
3
 72
8
 73
4
 74
0
 40
0
 40
0
 40
0
 40
0
 40
1
 40
1
 40
1
 40
1
 10
-122.446504
 20
100.287390
 30
0.0
 10
-122.918932
 20
99.844489
 30
0.0
 10
-123.583284
 20
99.623038
 30
0.0
 10
-124.439559
 20
99.623038
 30
0.0
  0
LWPOLYLINE
  5
268
100
AcDbEntity
  8
Ebene_1
 62
7
100
AcDbPolyline
 90
1
 70
1
 10
-118.283232
 20
102.036798
 30
0.0
  0
SPLINE
  5
269
100
AcDbEntity
  8
Ebene_1
 62
7
100
AcDbSpline
 70
8
 71
3
 72
8
 73
4
 74
0
 40
0
 40
0
 40
0
 40
0
 40
1
 40
1
 40
1
 40
1
 10
-124.505995
 20
104.362080
 30
0.0
 10
-123.649720
 20
104.362080
 30
0.0
 10
-122.977987
 20
104.162775
 30
0.0
 10
-122.490795
 20
103.764165
 30
0.0
  0
SPLINE
  5
26a
100
AcDbEntity
  8
Ebene_1
 62
7
100
AcDbSpline
 70
8
 71
3
 72
8
 73
4
 74
0
 40
0
 40
0
 40
0
 40
0
 40
1
 40
1
 40
1
 40
1
 10
-122.490795
 20
103.764165
 30
0.0
 10
-121.988839
 20
103.365548
 30
0.0
 10
-121.737862
 20
102.782393
 30
0.0
 10
-121.737862
 20
102.014700
 30
0.0
  0
LWPOLYLINE
  5
26b
100
AcDbEntity
  8
Ebene_1
 62
7
100
AcDbPolyline
 90
4
 70
0
 10
-124.439559
 20
99.623038
 30
0.0
 10
-127.141256
 20
99.623038
 30
0.0
 10
-127.141256
 20
104.362080
 30
0.0
 10
-124.505995
 20
104.362080
 30
0.0
  0
LWPOLYLINE
  5
26c
100
AcDbEntity
  8
Ebene_1
 62
7
100
AcDbPolyline
 90
2
 70
0
 10
-121.737862
 20
102.014700
 30
0.0
 10
-121.737862
 20
101.970409
 30
0.0
  0
LWPOLYLINE
  5
26d
100
AcDbEntity
  8
Ebene_1
 62
7
100
AcDbPolyline
 90
8
 70
1
 10
-100.656448
 20
91.938691
 30
0.0
 10
-107.299968
 20
107.550957
 30
0.0
 10
-110.444571
 20
107.550957
 30
0.0
 10
-117.088087
 20
91.938691
 30
0.0
 10
-113.611312
 20
91.938691
 30
0.0
 10
-112.194027
 20
95.415466
 30
0.0
 10
-105.639087
 20
95.415466
 30
0.0
 10
-104.221804
 20
91.938691
 30
0.0
  0
LWPOLYLINE
  5
26e
100
AcDbEntity
  8
Ebene_1
 62
7
100
AcDbPolyline
 90
3
 70
1
 10
-106.857067
 20
98.427189
 30
0.0
 10
-110.976051
 20
98.427189
 30
0.0
 10
-108.916560
 20
103.454121
 30
0.0
  0
SPLINE
  5
26f
100
AcDbEntity
  8
Ebene_1
 62
7
100
AcDbSpline
 70
8
 71
3
 72
8
 73
4
 74
0
 40
0
 40
0
 40
0
 40
0
 40
1
 40
1
 40
1
 40
1
 10
-88.674581
 20
97.474957
 30
0.0
 10
-87.685435
 20
97.844040
 30
0.0
 10
-86.888213
 20
98.419810
 30
0.0
 10
-86.282914
 20
99.202267
 30
0.0
  0
SPLINE
  5
270
100
AcDbEntity
  8
Ebene_1
 62
7
100
AcDbSpline
 70
8
 71
3
 72
8
 73
4
 74
0
 40
0
 40
0
 40
0
 40
0
 40
1
 40
1
 40
1
 40
1
 10
-86.282914
 20
99.202267
 30
0.0
 10
-85.662852
 20
99.999488
 30
0.0
 10
-85.352821
 20
101.025544
 30
0.0
 10
-85.352821
 20
102.280435
 30
0.0
  0
LWPOLYLINE
  5
271
100
AcDbEntity
  8
Ebene_1
 62
7
100
AcDbPolyline
 90
2
 70
0
 10
-84.887775
 20
91.938691
 30
0.0
 10
-88.674581
 20
97.474957
 30
0.0
  0
SPLINE
  5
272
100
AcDbEntity
  8
Ebene_1
 62
7
100
AcDbSpline
 70
8
 71
3
 72
8
 73
4
 74
0
 40
0
 40
0
 40
0
 40
0
 40
1
 40
1
 40
1
 40
1
 10
-85.352821
 20
102.324688
 30
0.0
 10
-85.352821
 20
103.933893
 30
0.0
 10
-85.869539
 20
105.188778
 30
0.0
 10
-86.902976
 20
106.089344
 30
0.0
  0
SPLINE
  5
273
100
AcDbEntity
  8
Ebene_1
 62
7
100
AcDbSpline
 70
8
 71
3
 72
8
 73
4
 74
0
 40
0
 40
0
 40
0
 40
0
 40
1
 40
1
 40
1
 40
1
 10
-86.902976
 20
106.089344
 30
0.0
 10
-87.921649
 20
106.989909
 30
0.0
 10
-89.353696
 20
107.440192
 30
0.0
 10
-91.199118
 20
107.440192
 30
0.0
  0
LWPOLYLINE
  5
274
100
AcDbEntity
  8
Ebene_1
 62
7
100
AcDbPolyline
 90
2
 70
0
 10
-85.352821
 20
102.280435
 30
0.0
 10
-85.352821
 20
102.324688
 30
0.0
  0
SPLINE
  5
275
100
AcDbEntity
  8
Ebene_1
 62
7
100
AcDbSpline
 70
8
 71
3
 72
8
 73
4
 74
0
 40
0
 40
0
 40
0
 40
0
 40
1
 40
1
 40
1
 40
1
 10
-88.807451
 20
102.103272
 30
0.0
 10
-88.807451
 20
101.438917
 30
0.0
 10
-89.036284
 20
100.907435
 30
0.0
 10
-89.493949
 20
100.508825
 30
0.0
  0
SPLINE
  5
276
100
AcDbEntity
  8
Ebene_1
 62
7
100
AcDbSpline
 70
8
 71
3
 72
8
 73
4
 74
0
 40
0
 40
0
 40
0
 40
0
 40
1
 40
1
 40
1
 40
1
 10
-89.493949
 20
100.508825
 30
0.0
 10
-89.936850
 20
100.110214
 30
0.0
 10
-90.579057
 20
99.910909
 30
0.0
 10
-91.420569
 20
99.910909
 30
0.0
  0
LWPOLYLINE
  5
277
100
AcDbEntity
  8
Ebene_1
 62
7
100
AcDbPolyline
 90
8
 70
0
 10
-91.199118
 20
107.440192
 30
0.0
 10
-98.285540
 20
107.440192
 30
0.0
 10
-98.285540
 20
91.938653
 30
0.0
 10
-94.875200
 20
91.938653
 30
0.0
 10
-94.875200
 20
96.899140
 30
0.0
 10
-92.195647
 20
96.899140
 30
0.0
 10
-88.873887
 20
91.938653
 30
0.0
 10
-84.887775
 20
91.938691
 30
0.0
  0
SPLINE
  5
278
100
AcDbEntity
  8
Ebene_1
 62
7
100
AcDbSpline
 70
8
 71
3
 72
8
 73
4
 74
0
 40
0
 40
0
 40
0
 40
0
 40
1
 40
1
 40
1
 40
1
 10
-91.487004
 20
104.362071
 30
0.0
 10
-90.645492
 20
104.362071
 30
0.0
 10
-89.988521
 20
104.177530
 30
0.0
 10
-89.516093
 20
103.808446
 30
0.0
  0
SPLINE
  5
279
100
AcDbEntity
  8
Ebene_1
 62
7
100
AcDbSpline
 70
8
 71
3
 72
8
 73
4
 74
0
 40
0
 40
0
 40
0
 40
0
 40
1
 40
1
 40
1
 40
1
 10
-89.516093
 20
103.808446
 30
0.0
 10
-89.043665
 20
103.439357
 30
0.0
 10
-88.807451
 20
102.885729
 30
0.0
 10
-88.807451
 20
102.147563
 30
0.0
  0
LWPOLYLINE
  5
27a
100
AcDbEntity
  8
Ebene_1
 62
7
100
AcDbPolyline
 90
4
 70
0
 10
-91.420569
 20
99.910909
 30
0.0
 10
-94.875200
 20
99.910909
 30
0.0
 10
-94.875200
 20
104.362071
 30
0.0
 10
-91.487004
 20
104.362071
 30
0.0
  0
LWPOLYLINE
  5
27b
100
AcDbEntity
  8
Ebene_1
 62
7
100
AcDbPolyline
 90
2
 70
0
 10
-88.807451
 20
102.147563
 30
0.0
 10
-88.807451
 20
102.103272
 30
0.0
  0
LWPOLYLINE
  5
27c
100
AcDbEntity
  8
Ebene_1
 62
7
100
AcDbPolyline
 90
12
 70
1
 10
-68.175861
 20
91.938691
 30
0.0
 10
-74.775091
 20
100.863150
 30
0.0
 10
-68.463747
 20
107.440230
 30
0.0
 10
-72.582729
 20
107.440230
 30
0.0
 10
-78.871928
 20
100.663842
 30
0.0
 10
-78.871928
 20
107.440230
 30
0.0
 10
-82.282268
 20
107.440230
 30
0.0
 10
-82.282268
 20
91.938691
 30
0.0
 10
-78.871928
 20
91.938691
 30
0.0
 10
-78.871928
 20
96.677733
 30
0.0
 10
-77.078178
 20
98.537915
 30
0.0
 10
-72.272698
 20
91.938691
 30
0.0
  0
LWPOLYLINE
  5
27d
100
AcDbEntity
  8
Ebene_1
 62
7
100
AcDbPolyline
 90
4
 70
1
 10
-62.540635
 20
91.938691
 30
0.0
 10
-62.540635
 20
107.440230
 30
0.0
 10
-65.950975
 20
107.440230
 30
0.0
 10
-65.950975
 20
91.938691
 30
0.0
  0
LWPOLYLINE
  5
27e
100
AcDbEntity
  8
Ebene_1
 62
7
100
AcDbPolyline
 90
10
 70
1
 10
-44.892403
 20
91.938691
 30
0.0
 10
-44.892403
 20
107.440230
 30
0.0
 10
-48.258453
 20
107.440230
 30
0.0
 10
-48.258453
 20
97.895709
 30
0.0
 10
-55.522035
 20
107.440230
 30
0.0
 10
-58.666634
 20
107.440230
 30
0.0
 10
-58.666634
 20
91.938691
 30
0.0
 10
-55.300584
 20
91.938691
 30
0.0
 10
-55.300584
 20
101.793237
 30
0.0
 10
-47.793406
 20
91.938691
 30
0.0
  0
SPLINE
  5
27f
100
AcDbEntity
  8
Ebene_1
 62
7
100
AcDbSpline
 70
8
 71
3
 72
8
 73
4
 74
0
 40
0
 40
0
 40
0
 40
0
 40
1
 40
1
 40
1
 40
1
 10
-30.408144
 20
95.703346
 30
0.0
 10
-31.279184
 20
95.083282
 30
0.0
 10
-32.349528
 20
94.773250
 30
0.0
 10
-33.619178
 20
94.773250
 30
0.0
  0
SPLINE
  5
280
100
AcDbEntity
  8
Ebene_1
 62
7
100
AcDbSpline
 70
8
 71
3
 72
8
 73
4
 74
0
 40
0
 40
0
 40
0
 40
0
 40
1
 40
1
 40
1
 40
1
 10
-33.619178
 20
94.773250
 30
0.0
 10
-34.313057
 20
94.773250
 30
0.0
 10
-34.947883
 20
94.891359
 30
0.0
 10
-35.523654
 20
95.127576
 30
0.0
  0
SPLINE
  5
281
100
AcDbEntity
  8
Ebene_1
 62
7
100
AcDbSpline
 70
8
 71
3
 72
8
 73
4
 74
0
 40
0
 40
0
 40
0
 40
0
 40
1
 40
1
 40
1
 40
1
 10
-35.523654
 20
95.127576
 30
0.0
 10
-36.084663
 20
95.378551
 30
0.0
 10
-36.579236
 20
95.725489
 30
0.0
 10
-37.007374
 20
96.168390
 30
0.0
  0
SPLINE
  5
282
100
AcDbEntity
  8
Ebene_1
 62
7
100
AcDbSpline
 70
8
 71
3
 72
8
 73
4
 74
0
 40
0
 40
0
 40
0
 40
0
 40
1
 40
1
 40
1
 40
1
 10
-37.007374
 20
96.168390
 30
0.0
 10
-37.420749
 20
96.611297
 30
0.0
 10
-37.745543
 20
97.128016
 30
0.0
 10
-37.981757
 20
97.718546
 30
0.0
  0
SPLINE
  5
283
100
AcDbEntity
  8
Ebene_1
 62
7
100
AcDbSpline
 70
8
 71
3
 72
8
 73
4
 74
0
 40
0
 40
0
 40
0
 40
0
 40
1
 40
1
 40
1
 40
1
 10
-37.981757
 20
97.718546
 30
0.0
 10
-38.203208
 20
98.323847
 30
0.0
 10
-38.313933
 20
98.980816
 30
0.0
 10
-38.313933
 20
99.689456
 30
0.0
  0
LWPOLYLINE
  5
284
100
AcDbEntity
  8
Ebene_1
 62
7
100
AcDbPolyline
 90
6
 70
0
 10
-27.108530
 20
94.131044
 30
0.0
 10
-27.108530
 20
100.863150
 30
0.0
 10
-33.840629
 20
100.863150
 30
0.0
 10
-33.840629
 20
97.917855
 30
0.0
 10
-30.408144
 20
97.917855
 30
0.0
 10
-30.408144
 20
95.703346
 30
0.0
  0
SPLINE
  5
285
100
AcDbEntity
  8
Ebene_1
 62
7
100
AcDbSpline
 70
8
 71
3
 72
8
 73
4
 74
0
 40
0
 40
0
 40
0
 40
0
 40
1
 40
1
 40
1
 40
1
 10
-38.313933
 20
99.733709
 30
0.0
 10
-38.313933
 20
100.398063
 30
0.0
 10
-38.203208
 20
101.018127
 30
0.0
 10
-37.981757
 20
101.593901
 30
0.0
  0
SPLINE
  5
286
100
AcDbEntity
  8
Ebene_1
 62
7
100
AcDbSpline
 70
8
 71
3
 72
8
 73
4
 74
0
 40
0
 40
0
 40
0
 40
0
 40
1
 40
1
 40
1
 40
1
 10
-37.981757
 20
101.593901
 30
0.0
 10
-37.745543
 20
102.184431
 30
0.0
 10
-37.428130
 20
102.693768
 30
0.0
 10
-37.029520
 20
103.121912
 30
0.0
  0
SPLINE
  5
287
100
AcDbEntity
  8
Ebene_1
 62
7
100
AcDbSpline
 70
8
 71
3
 72
8
 73
4
 74
0
 40
0
 40
0
 40
0
 40
0
 40
1
 40
1
 40
1
 40
1
 10
-37.029520
 20
103.121912
 30
0.0
 10
-36.616144
 20
103.564813
 30
0.0
 10
-36.143716
 20
103.911751
 30
0.0
 10
-35.612235
 20
104.162725
 30
0.0
  0
SPLINE
  5
288
100
AcDbEntity
  8
Ebene_1
 62
7
100
AcDbSpline
 70
8
 71
3
 72
8
 73
4
 74
0
 40
0
 40
0
 40
0
 40
0
 40
1
 40
1
 40
1
 40
1
 10
-35.612235
 20
104.162725
 30
0.0
 10
-35.065990
 20
104.428463
 30
0.0
 10
-34.482837
 20
104.561332
 30
0.0
 10
-33.862775
 20
104.561332
 30
0.0
  0
SPLINE
  5
289
100
AcDbEntity
  8
Ebene_1
 62
7
100
AcDbSpline
 70
8
 71
3
 72
8
 73
4
 74
0
 40
0
 40
0
 40
0
 40
0
 40
1
 40
1
 40
1
 40
1
 10
-33.862775
 20
104.561332
 30
0.0
 10
-33.419873
 20
104.561332
 30
0.0
 10
-33.013880
 20
104.524427
 30
0.0
 10
-32.644796
 20
104.450615
 30
0.0
  0
SPLINE
  5
28a
100
AcDbEntity
  8
Ebene_1
 62
7
100
AcDbSpline
 70
8
 71
3
 72
8
 73
4
 74
0
 40
0
 40
0
 40
0
 40
0
 40
1
 40
1
 40
1
 40
1
 10
-32.644796
 20
104.450615
 30
0.0
 10
-32.275711
 20
104.376797
 30
0.0
 10
-31.936154
 20
104.273452
 30
0.0
 10
-31.626123
 20
104.140580
 30
0.0
  0
SPLINE
  5
28b
100
AcDbEntity
  8
Ebene_1
 62
7
100
AcDbSpline
 70
8
 71
3
 72
8
 73
4
 74
0
 40
0
 40
0
 40
0
 40
0
 40
1
 40
1
 40
1
 40
1
 10
-31.626123
 20
104.140580
 30
0.0
 10
-31.301329
 20
104.007708
 30
0.0
 10
-30.991298
 20
103.845311
 30
0.0
 10
-30.696030
 20
103.653391
 30
0.0
  0
SPLINE
  5
28c
100
AcDbEntity
  8
Ebene_1
 62
7
100
AcDbSpline
 70
8
 71
3
 72
8
 73
4
 74
0
 40
0
 40
0
 40
0
 40
0
 40
1
 40
1
 40
1
 40
1
 10
-30.696030
 20
103.653391
 30
0.0
 10
-30.400763
 20
103.461465
 30
0.0
 10
-30.105495
 20
103.240014
 30
0.0
 10
-29.810227
 20
102.989040
 30
0.0
  0
LWPOLYLINE
  5
28d
100
AcDbEntity
  8
Ebene_1
 62
7
100
AcDbPolyline
 90
2
 70
0
 10
-38.313933
 20
99.689456
 30
0.0
 10
-38.313933
 20
99.733709
 30
0.0
  0
SPLINE
  5
28e
100
AcDbEntity
  8
Ebene_1
 62
7
100
AcDbSpline
 70
8
 71
3
 72
8
 73
4
 74
0
 40
0
 40
0
 40
0
 40
0
 40
1
 40
1
 40
1
 40
1
 10
-27.662156
 20
105.580010
 30
0.0
 10
-28.060767
 20
105.919566
 30
0.0
 10
-28.474142
 20
106.222216
 30
0.0
 10
-28.902280
 20
106.487960
 30
0.0
  0
SPLINE
  5
28f
100
AcDbEntity
  8
Ebene_1
 62
7
100
AcDbSpline
 70
8
 71
3
 72
8
 73
4
 74
0
 40
0
 40
0
 40
0
 40
0
 40
1
 40
1
 40
1
 40
1
 10
-28.902280
 20
106.487960
 30
0.0
 10
-29.330418
 20
106.753698
 30
0.0
 10
-29.788082
 20
106.975149
 30
0.0
 10
-30.275274
 20
107.152312
 30
0.0
  0
SPLINE
  5
290
100
AcDbEntity
  8
Ebene_1
 62
7
100
AcDbSpline
 70
8
 71
3
 72
8
 73
4
 74
0
 40
0
 40
0
 40
0
 40
0
 40
1
 40
1
 40
1
 40
1
 10
-30.275274
 20
107.152312
 30
0.0
 10
-30.762465
 20
107.329469
 30
0.0
 10
-31.293947
 20
107.462338
 30
0.0
 10
-31.869718
 20
107.550919
 30
0.0
  0
SPLINE
  5
291
100
AcDbEntity
  8
Ebene_1
 62
7
100
AcDbSpline
 70
8
 71
3
 72
8
 73
4
 74
0
 40
0
 40
0
 40
0
 40
0
 40
1
 40
1
 40
1
 40
1
 10
-31.869718
 20
107.550919
 30
0.0
 10
-32.430727
 20
107.654264
 30
0.0
 10
-33.058170
 20
107.705937
 30
0.0
 10
-33.752049
 20
107.705937
 30
0.0
  0
SPLINE
  5
292
100
AcDbEntity
  8
Ebene_1
 62
7
100
AcDbSpline
 70
8
 71
3
 72
8
 73
4
 74
0
 40
0
 40
0
 40
0
 40
0
 40
1
 40
1
 40
1
 40
1
 10
-33.752049
 20
107.705937
 30
0.0
 10
-34.933119
 20
107.705937
 30
0.0
 10
-36.018228
 20
107.491868
 30
0.0
 10
-37.007374
 20
107.063730
 30
0.0
  0
SPLINE
  5
293
100
AcDbEntity
  8
Ebene_1
 62
7
100
AcDbSpline
 70
8
 71
3
 72
8
 73
4
 74
0
 40
0
 40
0
 40
0
 40
0
 40
1
 40
1
 40
1
 40
1
 10
-37.007374
 20
107.063730
 30
0.0
 10
-37.996521
 20
106.650357
 30
0.0
 10
-38.852796
 20
106.074583
 30
0.0
 10
-39.576202
 20
105.336411
 30
0.0
  0
SPLINE
  5
294
100
AcDbEntity
  8
Ebene_1
 62
7
100
AcDbSpline
 70
8
 71
3
 72
8
 73
4
 74
0
 40
0
 40
0
 40
0
 40
0
 40
1
 40
1
 40
1
 40
1
 10
-39.576202
 20
105.336411
 30
0.0
 10
-40.299608
 20
104.613008
 30
0.0
 10
-40.867998
 20
103.764115
 30
0.0
 10
-41.281372
 20
102.789731
 30
0.0
  0
SPLINE
  5
295
100
AcDbEntity
  8
Ebene_1
 62
7
100
AcDbSpline
 70
8
 71
3
 72
8
 73
4
 74
0
 40
0
 40
0
 40
0
 40
0
 40
1
 40
1
 40
1
 40
1
 10
-41.281372
 20
102.789731
 30
0.0
 10
-41.679983
 20
101.830111
 30
0.0
 10
-41.879289
 20
100.796674
 30
0.0
 10
-41.879289
 20
99.689418
 30
0.0
  0
LWPOLYLINE
  5
296
100
AcDbEntity
  8
Ebene_1
 62
7
100
AcDbPolyline
 90
2
 70
0
 10
-29.810227
 20
102.989040
 30
0.0
 10
-27.662156
 20
105.580010
 30
0.0
  0
SPLINE
  5
297
100
AcDbEntity
  8
Ebene_1
 62
7
100
AcDbSpline
 70
8
 71
3
 72
8
 73
4
 74
0
 40
0
 40
0
 40
0
 40
0
 40
1
 40
1
 40
1
 40
1
 10
-41.879289
 20
99.645165
 30
0.0
 10
-41.879289
 20
98.493625
 30
0.0
 10
-41.679983
 20
97.430663
 30
0.0
 10
-41.281372
 20
96.456279
 30
0.0
  0
SPLINE
  5
298
100
AcDbEntity
  8
Ebene_1
 62
7
100
AcDbSpline
 70
8
 71
3
 72
8
 73
4
 74
0
 40
0
 40
0
 40
0
 40
0
 40
1
 40
1
 40
1
 40
1
 10
-41.281372
 20
96.456279
 30
0.0
 10
-40.882761
 20
95.481896
 30
0.0
 10
-40.329134
 20
94.640384
 30
0.0
 10
-39.620492
 20
93.931745
 30
0.0
  0
SPLINE
  5
299
100
AcDbEntity
  8
Ebene_1
 62
7
100
AcDbSpline
 70
8
 71
3
 72
8
 73
4
 74
0
 40
0
 40
0
 40
0
 40
0
 40
1
 40
1
 40
1
 40
1
 10
-39.620492
 20
93.931745
 30
0.0
 10
-38.897087
 20
93.223100
 30
0.0
 10
-38.040810
 20
92.669472
 30
0.0
 10
-37.051664
 20
92.270862
 30
0.0
  0
SPLINE
  5
29a
100
AcDbEntity
  8
Ebene_1
 62
7
100
AcDbSpline
 70
8
 71
3
 72
8
 73
4
 74
0
 40
0
 40
0
 40
0
 40
0
 40
1
 40
1
 40
1
 40
1
 10
-37.051664
 20
92.270862
 30
0.0
 10
-36.047755
 20
91.872251
 30
0.0
 10
-34.940501
 20
91.672946
 30
0.0
 10
-33.729904
 20
91.672946
 30
0.0
  0
SPLINE
  5
29b
100
AcDbEntity
  8
Ebene_1
 62
7
100
AcDbSpline
 70
8
 71
3
 72
8
 73
4
 74
0
 40
0
 40
0
 40
0
 40
0
 40
1
 40
1
 40
1
 40
1
 10
-33.729904
 20
91.672946
 30
0.0
 10
-32.312620
 20
91.672946
 30
0.0
 10
-31.057733
 20
91.909160
 30
0.0
 10
-29.965243
 20
92.381589
 30
0.0
  0
SPLINE
  5
29c
100
AcDbEntity
  8
Ebene_1
 62
7
100
AcDbSpline
 70
8
 71
3
 72
8
 73
4
 74
0
 40
0
 40
0
 40
0
 40
0
 40
1
 40
1
 40
1
 40
1
 10
-29.965243
 20
92.381589
 30
0.0
 10
-28.857989
 20
92.868780
 30
0.0
 10
-27.905751
 20
93.451932
 30
0.0
 10
-27.108530
 20
94.131044
 30
0.0
  0
LWPOLYLINE
  5
29d
100
AcDbEntity
  8
Ebene_1
 62
7
100
AcDbPolyline
 90
2
 70
0
 10
-41.879289
 20
99.689418
 30
0.0
 10
-41.879289
 20
99.645165
 30
0.0
  0
LWPOLYLINE
  5
29e
100
AcDbEntity
  8
Ebene_1
 62
7
100
AcDbPolyline
 90
1
 70
1
 10
-27.108530
 20
94.131044
 30
0.0
  0
LWPOLYLINE
  5
29f
100
AcDbEntity
  8
Ebene_1
 62
7
100
AcDbPolyline
 90
12
 70
1
 10
-95.339901
 20
72.008126
 30
0.0
 10
-95.339901
 20
87.509674
 30
0.0
 10
-98.750241
 20
87.509674
 30
0.0
 10
-98.750241
 20
81.375493
 30
0.0
 10
-105.039440
 20
81.375493
 30
0.0
 10
-105.039440
 20
87.509674
 30
0.0
 10
-108.449779
 20
87.509674
 30
0.0
 10
-108.449779
 20
72.008126
 30
0.0
 10
-105.039440
 20
72.008126
 30
0.0
 10
-105.039440
 20
78.230888
 30
0.0
 10
-98.750241
 20
78.230888
 30
0.0
 10
-98.750241
 20
72.008126
 30
0.0
  0
LWPOLYLINE
  5
2a0
100
AcDbEntity
  8
Ebene_1
 62
7
100
AcDbPolyline
 90
12
 70
1
 10
-79.821400
 20
72.008126
 30
0.0
 10
-79.821400
 20
75.042003
 30
0.0
 10
-88.236526
 20
75.042003
 30
0.0
 10
-88.236526
 20
78.297325
 30
0.0
 10
-80.928654
 20
78.297325
 30
0.0
 10
-80.928654
 20
81.331202
 30
0.0
 10
-88.236526
 20
81.331202
 30
0.0
 10
-88.236526
 20
84.475797
 30
0.0
 10
-79.932126
 20
84.475797
 30
0.0
 10
-79.932126
 20
87.509674
 30
0.0
 10
-91.624721
 20
87.509674
 30
0.0
 10
-91.624721
 20
72.008126
 30
0.0
  0
SPLINE
  5
2a1
100
AcDbEntity
  8
Ebene_1
 62
7
100
AcDbSpline
 70
8
 71
3
 72
8
 73
4
 74
0
 40
0
 40
0
 40
0
 40
0
 40
1
 40
1
 40
1
 40
1
 10
-67.178297
 20
77.544392
 30
0.0
 10
-66.189151
 20
77.913475
 30
0.0
 10
-65.391929
 20
78.489248
 30
0.0
 10
-64.786630
 20
79.271711
 30
0.0
  0
SPLINE
  5
2a2
100
AcDbEntity
  8
Ebene_1
 62
7
100
AcDbSpline
 70
8
 71
3
 72
8
 73
4
 74
0
 40
0
 40
0
 40
0
 40
0
 40
1
 40
1
 40
1
 40
1
 10
-64.786630
 20
79.271711
 30
0.0
 10
-64.166568
 20
80.068932
 30
0.0
 10
-63.856537
 20
81.094985
 30
0.0
 10
-63.856537
 20
82.349870
 30
0.0
  0
LWPOLYLINE
  5
2a3
100
AcDbEntity
  8
Ebene_1
 62
7
100
AcDbPolyline
 90
2
 70
0
 10
-63.391491
 20
72.008126
 30
0.0
 10
-67.178297
 20
77.544392
 30
0.0
  0
SPLINE
  5
2a4
100
AcDbEntity
  8
Ebene_1
 62
7
100
AcDbSpline
 70
8
 71
3
 72
8
 73
4
 74
0
 40
0
 40
0
 40
0
 40
0
 40
1
 40
1
 40
1
 40
1
 10
-63.856537
 20
82.394123
 30
0.0
 10
-63.856537
 20
84.003334
 30
0.0
 10
-64.373256
 20
85.258222
 30
0.0
 10
-65.406692
 20
86.158788
 30
0.0
  0
SPLINE
  5
2a5
100
AcDbEntity
  8
Ebene_1
 62
7
100
AcDbSpline
 70
8
 71
3
 72
8
 73
4
 74
0
 40
0
 40
0
 40
0
 40
0
 40
1
 40
1
 40
1
 40
1
 10
-65.406692
 20
86.158788
 30
0.0
 10
-66.425365
 20
87.059354
 30
0.0
 10
-67.857413
 20
87.509637
 30
0.0
 10
-69.702835
 20
87.509637
 30
0.0
  0
LWPOLYLINE
  5
2a6
100
AcDbEntity
  8
Ebene_1
 62
7
100
AcDbPolyline
 90
2
 70
0
 10
-63.856537
 20
82.349870
 30
0.0
 10
-63.856537
 20
82.394123
 30
0.0
  0
SPLINE
  5
2a7
100
AcDbEntity
  8
Ebene_1
 62
7
100
AcDbSpline
 70
8
 71
3
 72
8
 73
4
 74
0
 40
0
 40
0
 40
0
 40
0
 40
1
 40
1
 40
1
 40
1
 10
-67.311167
 20
82.172716
 30
0.0
 10
-67.311167
 20
81.508362
 30
0.0
 10
-67.540000
 20
80.976879
 30
0.0
 10
-67.997665
 20
80.578269
 30
0.0
  0
SPLINE
  5
2a8
100
AcDbEntity
  8
Ebene_1
 62
7
100
AcDbSpline
 70
8
 71
3
 72
8
 73
4
 74
0
 40
0
 40
0
 40
0
 40
0
 40
1
 40
1
 40
1
 40
1
 10
-67.997665
 20
80.578269
 30
0.0
 10
-68.440566
 20
80.179659
 30
0.0
 10
-69.082773
 20
79.980354
 30
0.0
 10
-69.924285
 20
79.980354
 30
0.0
  0
LWPOLYLINE
  5
2a9
100
AcDbEntity
  8
Ebene_1
 62
7
100
AcDbPolyline
 90
8
 70
0
 10
-69.702835
 20
87.509637
 30
0.0
 10
-76.789256
 20
87.509637
 30
0.0
 10
-76.789256
 20
72.008088
 30
0.0
 10
-73.378916
 20
72.008088
 30
0.0
 10
-73.378916
 20
76.968584
 30
0.0
 10
-70.699363
 20
76.968584
 30
0.0
 10
-67.377602
 20
72.008088
 30
0.0
 10
-63.391491
 20
72.008126
 30
0.0
  0
SPLINE
  5
2aa
100
AcDbEntity
  8
Ebene_1
 62
7
100
AcDbSpline
 70
8
 71
3
 72
8
 73
4
 74
0
 40
0
 40
0
 40
0
 40
0
 40
1
 40
1
 40
1
 40
1
 10
-69.990721
 20
84.431506
 30
0.0
 10
-69.149208
 20
84.431506
 30
0.0
 10
-68.492238
 20
84.246964
 30
0.0
 10
-68.019809
 20
83.877881
 30
0.0
  0
SPLINE
  5
2ab
100
AcDbEntity
  8
Ebene_1
 62
7
100
AcDbSpline
 70
8
 71
3
 72
8
 73
4
 74
0
 40
0
 40
0
 40
0
 40
0
 40
1
 40
1
 40
1
 40
1
 10
-68.019809
 20
83.877881
 30
0.0
 10
-67.547381
 20
83.508798
 30
0.0
 10
-67.311167
 20
82.955170
 30
0.0
 10
-67.311167
 20
82.216998
 30
0.0
  0
LWPOLYLINE
  5
2ac
100
AcDbEntity
  8
Ebene_1
 62
7
100
AcDbPolyline
 90
4
 70
0
 10
-69.924285
 20
79.980354
 30
0.0
 10
-73.378916
 20
79.980354
 30
0.0
 10
-73.378916
 20
84.431506
 30
0.0
 10
-69.990721
 20
84.431506
 30
0.0
  0
LWPOLYLINE
  5
2ad
100
AcDbEntity
  8
Ebene_1
 62
7
100
AcDbPolyline
 90
2
 70
0
 10
-67.311167
 20
82.216998
 30
0.0
 10
-67.311167
 20
82.172716
 30
0.0
  0
LWPOLYLINE
  5
2ae
100
AcDbEntity
  8
Ebene_1
 62
7
100
AcDbPolyline
 90
12
 70
1
 10
-48.982664
 20
72.008126
 30
0.0
 10
-48.982664
 20
75.042003
 30
0.0
 10
-57.397790
 20
75.042003
 30
0.0
 10
-57.397790
 20
78.297325
 30
0.0
 10
-50.089917
 20
78.297325
 30
0.0
 10
-50.089917
 20
81.331202
 30
0.0
 10
-57.397790
 20
81.331202
 30
0.0
 10
-57.397790
 20
84.475797
 30
0.0
 10
-49.093389
 20
84.475797
 30
0.0
 10
-49.093389
 20
87.509674
 30
0.0
 10
-60.785984
 20
87.509674
 30
0.0
 10
-60.785984
 20
72.008126
 30
0.0
  0
ENDSEC
  0
SECTION
  2
OBJECTS
  0
DICTIONARY
  5
C
330
0
100
AcDbDictionary
  3
ACAD_GROUP
350
D
  3
ACAD_MLINESTYLE
350
17
  0
DICTIONARY
  5
D
330
C
100
AcDbDictionary
  0
DICTIONARY
  5
1A
330
C
100
AcDbDictionary
  0
DICTIONARY
  5
17
330
C
100
AcDbDictionary
  3
STANDARD
350
18
  0
DICTIONARY
  5
19
330
C
100
AcDbDictionary
  0
ENDSEC
  0
EOF
