<?xml version="1.0" encoding="UTF-8" standalone="no"?>
<svg
   xmlns:dc="http://purl.org/dc/elements/1.1/"
   xmlns:cc="http://creativecommons.org/ns#"
   xmlns:rdf="http://www.w3.org/1999/02/22-rdf-syntax-ns#"
   xmlns:svg="http://www.w3.org/2000/svg"
   xmlns="http://www.w3.org/2000/svg"
   xmlns:sodipodi="http://sodipodi.sourceforge.net/DTD/sodipodi-0.dtd"
   xmlns:inkscape="http://www.inkscape.org/namespaces/inkscape"
   sodipodi:docname="Smile.svg"
   inkscape:version="1.0beta0 (7864170, 2019-09-07)"
   id="svg8"
   version="1.1"
   viewBox="0 0 300 220"
   height="220mm"
   width="300mm">
  <defs
     id="defs2" />
  <sodipodi:namedview
     inkscape:window-maximized="1"
     inkscape:window-y="-8"
     inkscape:window-x="-8"
     inkscape:window-height="1137"
     inkscape:window-width="1920"
     showgrid="true"
     inkscape:document-rotation="0"
     inkscape:current-layer="layer1"
     inkscape:document-units="mm"
     inkscape:cy="567.39405"
     inkscape:cx="584.36001"
     inkscape:zoom="0.7"
     inkscape:pageshadow="2"
     inkscape:pageopacity="0.0"
     borderopacity="1.0"
     bordercolor="#666666"
     pagecolor="#ffffff"
     id="base">
    <inkscape:grid
       id="grid833"
       type="xygrid" />
  </sodipodi:namedview>
  <metadata
     id="metadata5">
    <rdf:RDF>
      <cc:Work
         rdf:about="">
        <dc:format>image/svg+xml</dc:format>
        <dc:type
           rdf:resource="http://purl.org/dc/dcmitype/StillImage" />
        <dc:title />
      </cc:Work>
    </rdf:RDF>
  </metadata>
  <g
     id="layer1"
     inkscape:groupmode="layer"
     inkscape:label="Ebene 1">
    <path
       id="rect867-2-4-6"
       d="M 0,220 V 0.39999 H 299.59996 V 220 Z"
       style="opacity:1;fill:none;fill-opacity:1;stroke:#000000;stroke-width:0.40000001;stroke-linejoin:round;stroke-miterlimit:4;stroke-dasharray:none;stroke-opacity:1;paint-order:markers fill stroke"
       inkscape:connector-curvature="0" />
    <path
       inkscape:connector-curvature="0"
       id="rect875-4-8-1"
       d="m 9.98894,173.23925 c 0,19.29457 15.6196,34.93523 34.8881,34.93523 H 254.7229 c 19.26859,0 34.88811,-15.64065 34.88811,-34.93523 V 47.16075 c 0,-19.29457 -15.61952,-34.93522 -34.88811,-34.93522 H 44.87704 c -19.2685,0 -34.8881,15.64065 -34.8881,34.93522 z m 6.8201,0 V 47.16075 c 0,-15.62928 12.4598,-28.10595 28.068,-28.10595 H 254.7229 c 15.60821,0 28.068,12.47667 28.068,28.10595 v 126.0785 c 0,15.62928 -12.45979,28.10596 -28.068,28.10596 H 44.87704 c -15.6082,0 -28.068,-12.47668 -28.068,-28.10596 z"
       style="color:#000000;font-style:normal;font-variant:normal;font-weight:normal;font-stretch:normal;font-size:medium;line-height:normal;font-family:sans-serif;font-variant-ligatures:normal;font-variant-position:normal;font-variant-caps:normal;font-variant-numeric:normal;font-variant-alternates:normal;font-feature-settings:normal;text-indent:0;text-align:start;text-decoration:none;text-decoration-line:none;text-decoration-style:solid;text-decoration-color:#000000;letter-spacing:normal;word-spacing:normal;text-transform:none;writing-mode:lr-tb;direction:ltr;text-orientation:mixed;dominant-baseline:auto;baseline-shift:baseline;text-anchor:start;white-space:normal;shape-padding:0;clip-rule:nonzero;display:inline;overflow:visible;visibility:visible;opacity:1;isolation:auto;mix-blend-mode:normal;color-interpolation:sRGB;color-interpolation-filters:linearRGB;solid-color:#000000;solid-opacity:1;vector-effect:none;fill:#000000;fill-opacity:1;fill-rule:nonzero;stroke:none;stroke-width:7;stroke-linecap:butt;stroke-linejoin:round;stroke-miterlimit:4;stroke-dasharray:none;stroke-dashoffset:0;stroke-opacity:1;paint-order:markers fill stroke;color-rendering:auto;image-rendering:auto;shape-rendering:auto;text-rendering:auto;enable-background:accumulate" />
    <g
       transform="translate(-300.70274,380)"
       id="g1042">
      <path
         inkscape:connector-curvature="0"
         style="opacity:1;fill:none;fill-opacity:1;stroke:#000000;stroke-width:0.2;stroke-linejoin:round;stroke-miterlimit:4;stroke-dasharray:none;stroke-opacity:1;paint-order:markers fill stroke"
         d="m 568.19171,-194.88631 a 2.5,2.5 0 0 1 2.49999,2.49998 2.5,2.5 0 0 1 -2.49999,2.5 2.5,2.5 0 0 1 -2.5,-2.5 2.5,2.5 0 0 1 2.5,-2.49998 z"
         id="path879-1-8-0" />
      <path
         inkscape:connector-curvature="0"
         style="opacity:1;fill:none;fill-opacity:1;stroke:#000000;stroke-width:0.2;stroke-linejoin:round;stroke-miterlimit:4;stroke-dasharray:none;stroke-opacity:1;paint-order:markers fill stroke"
         d="m 567.90001,-349.8 a 2.5,2.5 0 0 1 2.5001,2.5 2.5,2.5 0 0 1 -2.5001,2.5 2.5,2.5 0 0 1 -2.49992,-2.5 2.5,2.5 0 0 1 2.49992,-2.5 z"
         id="path881-4-5-0" />
      <path
         inkscape:connector-curvature="0"
         style="opacity:1;fill:none;fill-opacity:1;stroke:#000000;stroke-width:0.2;stroke-linejoin:round;stroke-miterlimit:4;stroke-dasharray:none;stroke-opacity:1;paint-order:markers fill stroke"
         d="m 332.81374,-350.17798 a 2.5,2.5 0 0 1 2.5,2.5 2.5,2.5 0 0 1 -2.5,2.5 2.5,2.5 0 0 1 -2.5,-2.5 2.5,2.5 0 0 1 2.5,-2.5 z"
         id="path883-9-4-2" />
      <path
         inkscape:connector-curvature="0"
         style="opacity:1;fill:none;fill-opacity:1;stroke:#000000;stroke-width:0.2;stroke-linejoin:round;stroke-miterlimit:4;stroke-dasharray:none;stroke-opacity:1;paint-order:markers fill stroke"
         d="m 332.81374,-195.17798 a 2.5,2.5 0 0 1 2.5,2.5 2.5,2.5 0 0 1 -2.5,2.5 2.5,2.5 0 0 1 -2.5,-2.5 2.5,2.5 0 0 1 2.5,-2.5 z"
         id="path885-0-2-2" />
    </g>
    <path
       transform="scale(0.26458333)"
       d="M 327.53516 124.42578 C 268.39043 124.75625 207.6683 135.35658 150.125 155.58008 C 142.57033 158.23508 129.68108 163.10603 129.36133 163.42578 C 129.04861 163.73846 131.09457 168.33795 135.48438 177.19531 C 137.83048 181.92947 139.963 185.88422 140.22266 185.98438 C 140.48189 186.08381 143.47979 185.00521 146.88477 183.58789 C 196.30568 163.01547 247.72909 151.62498 303.62305 148.86914 C 319.75195 148.07385 353.05887 148.45419 369.0918 149.61719 C 418.99545 153.23703 469.01593 165.05288 513.04297 183.62109 C 516.59108 185.11748 519.60783 186.24607 519.74805 186.12891 C 520.78885 185.25277 531.06057 163.81045 530.64062 163.39062 C 530.56031 163.31023 527.36533 162.06468 523.54102 160.62109 C 472.17501 141.2317 421.71423 129.93697 368.17188 125.8457 C 354.74946 124.82008 341.18394 124.34952 327.53516 124.42578 z M 288.36133 163.18164 L 284.49219 163.41992 C 241.13519 166.08842 192.82179 177.38909 155.6543 193.55859 C 152.41025 194.96979 149.13525 196.38243 148.375 196.69727 C 147.61471 197.01184 146.99219 197.39834 146.99219 197.55859 C 146.99219 197.71813 147.97427 199.15365 149.17578 200.74805 C 157.35343 211.60085 169.37542 221.55378 184.6875 230.15039 C 189.80691 233.02446 200.02526 237.87904 200.32422 237.58008 C 200.41326 237.49103 200.81355 235.81922 201.21289 233.86328 C 202.19636 229.04922 203.13723 226.68614 205.39062 223.37305 C 211.50254 214.38714 224.1476 210.08146 248.73438 208.61523 C 256.99604 208.12159 273.43359 207.70601 273.43359 207.99023 C 273.43359 208.18998 329.08173 518.88029 329.72852 522.29102 L 329.97266 523.58008 L 330.26562 521.92188 C 333.15041 505.53344 339.45374 470.04868 346.58984 429.93359 L 409.77734 429.88672 C 431.64085 429.86026 450.24128 429.62317 451.11133 429.36133 C 454.01314 428.48758 456.49785 426.54984 457.93555 424.03906 C 459.30547 421.64662 459.37023 421.05509 459.64844 408.33203 L 459.9375 395.11133 L 463.18555 394.10742 C 467.92326 392.64312 472.36378 389.90423 475.62109 386.4375 C 478.41745 383.46135 481.38534 379.20565 480.96094 378.78125 C 480.54315 378.36346 428.35533 354.19141 427.87109 354.19141 C 427.02214 354.19141 425.51579 359.50271 425.16406 363.73242 C 424.46636 372.12377 427.60853 380.64174 433.61719 386.65039 L 437.09766 390.13281 L 437.09766 398.75977 L 437.09766 407.38672 L 403.5625 407.38672 L 350.60352 407.38672 C 366.90158 315.82444 386.09758 208.26771 386.19727 208.1582 C 386.49706 207.82931 410.35692 208.4546 416.09375 208.94141 C 442.44076 211.17715 453.96611 217.1849 457.86719 230.71289 C 458.36261 232.43076 458.88612 234.7134 459.03125 235.78516 C 459.27099 237.55549 459.36935 237.71291 460.08984 237.50391 C 461.83587 236.99783 474.6395 230.56952 478.50781 228.25781 C 492.5734 219.85229 503.93276 210.06446 511.17773 200.10352 L 513.04102 197.54102 L 511.5957 196.80273 C 508.50216 195.22455 496.63975 190.32627 489.26562 187.58203 C 458.01974 175.95371 423.61946 168.02879 389.36719 164.56641 C 381.24502 163.74546 371.94712 163.14534 371.51172 163.41406 C 371.30301 163.54302 361.9851 174.79514 350.80469 188.41992 C 339.6242 202.04459 330.34914 213.33383 330.19531 213.50391 C 330.04073 213.67429 320.56528 202.42171 309.13867 188.49805 L 288.36133 163.18164 z M 424.23047 251.99805 C 421.51856 251.8977 418.43928 253.11018 416.24023 255.21289 C 414.39564 256.97675 411.73218 262.24458 400.69531 285.96289 C 388.61779 311.91753 387.37708 314.8689 387.375 317.64258 C 387.37281 320.89138 388.69596 324.20878 390.72852 326.04688 C 391.85149 327.0624 516.0058 385.26175 520.57812 386.91602 C 523.0767 387.82 524.99423 387.87337 527.62305 387.10938 C 532.11921 385.80287 532.84845 384.56429 547.03906 354.19141 C 561.83644 322.51983 562.03342 321.94051 559.57227 317.21875 C 558.83594 315.80611 557.32202 313.95413 556.20898 313.10156 C 555.09591 312.24901 545.46987 307.50634 534.81641 302.5625 C 524.16286 297.61866 495.61882 284.32906 471.38672 273.03125 C 447.15466 261.73342 426.44613 252.3235 425.36719 252.12109 C 424.99847 252.05192 424.61788 252.01238 424.23047 251.99805 z M 426.37109 267.45898 C 428.95716 267.45898 542.07765 320.09482 543.92188 322.15625 C 544.63742 322.95604 545.22266 324.25901 545.22266 325.05078 C 545.22266 326.94289 542.78973 329.32812 540.85938 329.32812 C 540.02002 329.32812 513.32706 317.19254 481.54297 302.36133 C 445.71055 285.64104 423.43389 274.93913 422.91016 274.19141 C 420.96774 271.41823 423.00289 267.45898 426.37109 267.45898 z M 591.48047 340.3418 C 591.00345 340.31912 587.03066 341.39084 582.65234 342.7207 L 574.69141 345.13867 L 569.19336 342.64453 C 566.16943 341.27313 563.61282 340.25283 563.51172 340.37695 C 563.32841 340.60184 548.2056 373.01111 547.74219 374.17188 C 547.60839 374.5075 549.94343 375.89087 552.93164 377.24609 L 558.36523 379.70898 L 561.66406 387.42383 C 563.47873 391.6668 565.40139 395.52303 565.93555 395.99219 C 567.2396 397.13765 575.78362 401.02539 576.99609 401.02539 C 577.52651 401.02539 578.39316 400.70008 578.92188 400.30273 C 579.45063 399.9052 585.26488 388.02134 591.84375 373.89453 C 605.76065 344.0106 605.28191 346.75909 597.26172 342.80469 C 594.5586 341.47187 591.95752 340.3636 591.48047 340.3418 z "
       style="fill:#000000;stroke-width:3.77952"
       id="path2190-1-9-2-6" />
    <g
       style="font-style:normal;font-variant:normal;font-weight:bold;font-stretch:normal;font-size:21.2014px;line-height:1.25;font-family:Gotham;-inkscape-font-specification:'Gotham Bold';text-align:center;letter-spacing:0px;word-spacing:0px;text-anchor:middle;opacity:1;fill:#000000;fill-opacity:1;stroke:none;stroke-width:0.0700042;stop-opacity:1"
       id="text943"
       aria-label="...TESLA Sentry Mode
is watching you !">
      <path
         id="path981"
         style="font-style:normal;font-variant:normal;font-weight:bold;font-stretch:normal;font-family:Gotham;-inkscape-font-specification:'Gotham Bold';stroke-width:0.0700042"
         d="m 27.839595,160.35349 v -3.39223 h -3.434627 v 3.39223 z" />
      <path
         id="path983"
         style="font-style:normal;font-variant:normal;font-weight:bold;font-stretch:normal;font-family:Gotham;-inkscape-font-specification:'Gotham Bold';stroke-width:0.0700042"
         d="m 33.885307,160.35349 v -3.39223 H 30.45068 v 3.39223 z" />
      <path
         id="path985"
         style="font-style:normal;font-variant:normal;font-weight:bold;font-stretch:normal;font-family:Gotham;-inkscape-font-specification:'Gotham Bold';stroke-width:0.0700042"
         d="m 39.931019,160.35349 v -3.39223 h -3.434627 v 3.39223 z" />
      <path
         id="path987"
         style="font-style:normal;font-variant:normal;font-weight:bold;font-stretch:normal;font-family:TESLA;-inkscape-font-specification:'TESLA Bold';stroke-width:0.0700042"
         d="m 47.853056,160.35349 v -10.60071 h -3.975263 q -1.118043,0 -1.884109,-0.76606 -0.766066,-0.78677 -0.766066,-1.88411 h 15.90105 q 0,1.11804 -0.78677,1.88411 -0.786771,0.76606 -1.863405,0.76606 h -3.975262 v 10.60071 z" />
      <path
         id="path989"
         style="font-style:normal;font-variant:normal;font-weight:bold;font-stretch:normal;font-family:TESLA;-inkscape-font-specification:'TESLA Bold';stroke-width:0.0700042"
         d="m 62.429019,160.35349 q -1.118043,0 -1.884109,-0.76607 -0.766066,-0.78677 -0.766066,-1.88411 h 15.90105 q 0,1.11804 -0.786771,1.88411 -0.78677,0.76607 -1.863404,0.76607 z m 0,-5.30036 q -1.118043,0 -1.884109,-0.76606 -0.766066,-0.78677 -0.766066,-1.88411 h 15.90105 q 0,1.11804 -0.786771,1.88411 -0.78677,0.76606 -1.863404,0.76606 z m 0,-5.30035 q -1.118043,0 -1.884109,-0.76606 -0.766066,-0.78677 -0.766066,-1.88411 h 15.90105 q 0,1.11804 -0.786771,1.88411 -0.78677,0.76606 -1.863404,0.76606 z" />
      <path
         id="path991"
         style="font-style:normal;font-variant:normal;font-weight:bold;font-stretch:normal;font-family:TESLA;-inkscape-font-specification:'TESLA Bold';stroke-width:0.0700042"
         d="m 78.330067,160.35349 q 0,-1.09734 0.766067,-1.86341 0.78677,-0.78677 1.884108,-0.78677 h 10.600701 v -2.65018 H 78.330067 v -7.95052 h 15.901051 q 0,1.11804 -0.786771,1.88411 -0.786771,0.76606 -1.863404,0.76606 H 80.980242 v 2.65018 h 13.250876 v 7.95053 z" />
      <path
         id="path993"
         style="font-style:normal;font-variant:normal;font-weight:bold;font-stretch:normal;font-family:TESLA;-inkscape-font-specification:'TESLA Bold';stroke-width:0.0700042"
         d="m 96.881291,160.35349 v -13.25088 h 2.650175 v 10.6007 h 13.250874 q 0,1.11804 -0.78677,1.88411 -0.78677,0.76607 -1.8634,0.76607 z" />
      <path
         id="path995"
         style="font-style:normal;font-variant:normal;font-weight:bold;font-stretch:normal;font-family:TESLA;-inkscape-font-specification:'TESLA Bold';stroke-width:0.0700042"
         d="m 115.43252,160.35349 v -7.95053 h 15.90105 v 7.95053 h -2.65017 v -5.30036 h -10.6007 v 5.30036 z m 2.65018,-10.60071 q -1.11805,0 -1.88411,-0.76606 -0.76607,-0.78677 -0.76607,-1.88411 h 15.90105 q 0,1.11804 -0.78677,1.88411 -0.78677,0.76606 -1.8634,0.76606 z" />
      <path
         id="path997"
         style="font-style:normal;font-variant:normal;font-weight:bold;font-stretch:normal;font-family:Gotham;-inkscape-font-specification:'Gotham Bold';stroke-width:0.0700042"
         d="m 152.86956,155.9648 v -0.0424 q 0,-0.97526 -0.31802,-1.67491 -0.29682,-0.69964 -0.91166,-1.20848 -0.59364,-0.53003 -1.4841,-0.89046 -0.86926,-0.38162 -1.99293,-0.67844 -0.95407,-0.25442 -1.59011,-0.44523 -0.61484,-0.19081 -0.97526,-0.40283 -0.36043,-0.21201 -0.50884,-0.46643 -0.12721,-0.27562 -0.12721,-0.63604 v -0.0424 q 0,-0.55124 0.46643,-0.91166 0.48764,-0.38163 1.4417,-0.38163 0.95406,0 1.90813,0.40283 0.95406,0.38162 1.95052,1.06007 l 1.69612,-2.45936 q -1.14488,-0.91166 -2.52297,-1.3993 -1.35689,-0.48763 -2.9894,-0.48763 -1.14487,0 -2.09894,0.31802 -0.95406,0.31802 -1.65371,0.91166 -0.67844,0.59364 -1.06007,1.4205 -0.38162,0.80565 -0.38162,1.82332 v 0.0424 q 0,1.10247 0.33922,1.84452 0.36043,0.74205 0.99647,1.25088 0.63604,0.48764 1.5477,0.82686 0.91166,0.33922 2.03533,0.61484 0.93287,0.23321 1.5053,0.44523 0.59364,0.21201 0.91166,0.42403 0.33923,0.21201 0.44523,0.46643 0.12721,0.23321 0.12721,0.55123 v 0.0424 q 0,0.65724 -0.57244,1.03886 -0.55123,0.36043 -1.5689,0.36043 -1.27208,0 -2.35335,-0.48763 -1.06007,-0.48764 -2.07774,-1.31449 l -1.92933,2.31095 q 1.33569,1.20848 2.9682,1.80212 1.6325,0.57244 3.32862,0.57244 1.20848,0 2.20494,-0.29682 0.99647,-0.31802 1.71732,-0.89046 0.72084,-0.59364 1.12367,-1.44169 0.40283,-0.86926 0.40283,-1.97173 z" />
      <path
         id="path999"
         style="font-style:normal;font-variant:normal;font-weight:bold;font-stretch:normal;font-family:Gotham;-inkscape-font-specification:'Gotham Bold';stroke-width:0.0700042"
         d="m 165.98528,154.98953 v -0.0424 q 0,-1.20848 -0.33922,-2.31095 -0.31802,-1.12368 -1.01767,-1.97174 -0.67845,-0.86925 -1.71731,-1.37809 -1.03887,-0.50883 -2.45937,-0.50883 -1.25088,0 -2.28975,0.46643 -1.01767,0.46643 -1.75971,1.27209 -0.74205,0.80565 -1.16608,1.88692 -0.40283,1.08127 -0.40283,2.28975 v 0.0424 q 0,1.31449 0.44523,2.39576 0.44523,1.06007 1.22968,1.84452 0.80566,0.78446 1.88693,1.20848 1.10247,0.42403 2.37455,0.42403 1.54771,0 2.69258,-0.55123 1.14488,-0.57244 1.95053,-1.56891 l -1.84452,-1.63251 q -0.67845,0.61484 -1.31449,0.89046 -0.63604,0.27562 -1.44169,0.27562 -1.08127,0 -1.82332,-0.55124 -0.72085,-0.57243 -0.95407,-1.67491 h 7.90813 q 0.0212,-0.23321 0.0212,-0.40282 0.0212,-0.16961 0.0212,-0.40283 z m -3.13781,-1.20848 h -4.85512 q 0.19081,-1.10247 0.80565,-1.75972 0.63605,-0.65724 1.65371,-0.65724 1.01767,0 1.63251,0.67845 0.61484,0.65724 0.76325,1.73851 z" />
      <path
         id="path1001"
         style="font-style:normal;font-variant:normal;font-weight:bold;font-stretch:normal;font-family:Gotham;-inkscape-font-specification:'Gotham Bold';stroke-width:0.0700042"
         d="m 178.79688,160.35349 v -7.35689 q 0,-1.97173 -1.01767,-3.09541 -0.99647,-1.12367 -2.84099,-1.12367 -0.61484,0 -1.10247,0.14841 -0.48763,0.14841 -0.89046,0.40283 -0.40283,0.25441 -0.74205,0.59364 -0.31802,0.31802 -0.59364,0.67844 v -1.61131 h -3.22261 v 11.36396 h 3.22261 v -6.33922 q 0,-1.14488 0.53004,-1.71732 0.55123,-0.59364 1.4841,-0.59364 0.93286,0 1.44169,0.59364 0.50883,0.57244 0.50883,1.71732 v 6.33922 z" />
      <path
         id="path1003"
         style="font-style:normal;font-variant:normal;font-weight:bold;font-stretch:normal;font-family:Gotham;-inkscape-font-specification:'Gotham Bold';stroke-width:0.0700042"
         d="m 187.97808,159.88705 v -2.58657 q -0.74205,0.40283 -1.5901,0.40283 -1.03887,0 -1.03887,-1.10247 v -4.85512 h 2.67138 v -2.75619 h -2.67138 v -2.90459 h -3.22261 v 2.90459 h -1.35689 v 2.75619 h 1.35689 v 5.38515 q 0,0.99647 0.23321,1.65371 0.25442,0.63604 0.67845,1.03887 0.44523,0.40283 1.03887,0.55124 0.61484,0.16961 1.35689,0.16961 0.80565,0 1.42049,-0.19081 0.61484,-0.16962 1.12367,-0.46644 z" />
      <path
         id="path1005"
         style="font-style:normal;font-variant:normal;font-weight:bold;font-stretch:normal;font-family:Gotham;-inkscape-font-specification:'Gotham Bold';stroke-width:0.0700042"
         d="m 197.22322,152.14854 v -3.37102 q -1.4417,-0.0636 -2.28976,0.63604 -0.84805,0.69965 -1.33568,1.86573 v -2.28976 h -3.22262 v 11.36396 h 3.22262 v -4.19788 q 0,-2.05654 0.91166,-3.0318 0.93286,-0.97527 2.54417,-0.97527 z" />
      <path
         id="path1007"
         style="font-style:normal;font-variant:normal;font-weight:bold;font-stretch:normal;font-family:Gotham;-inkscape-font-specification:'Gotham Bold';stroke-width:0.0700042"
         d="m 210.0494,148.98953 h -3.34982 l -2.48056,7.73852 -2.58657,-7.73852 h -3.41343 l 4.4523,11.40636 q -0.21202,0.42403 -0.46643,0.57244 -0.23322,0.16961 -0.65725,0.16961 -0.31802,0 -0.69964,-0.12721 -0.36043,-0.12721 -0.67845,-0.31802 l -1.08127,2.33215 q 0.61484,0.36043 1.29329,0.57244 0.67844,0.21201 1.5689,0.21201 0.72085,0 1.27208,-0.16961 0.55124,-0.16961 0.97527,-0.55123 0.44523,-0.38163 0.80565,-0.99647 0.36043,-0.59364 0.67845,-1.4629 z" />
      <path
         id="path1009"
         style="font-style:normal;font-variant:normal;font-weight:bold;font-stretch:normal;font-family:Gotham;-inkscape-font-specification:'Gotham Bold';stroke-width:0.0700042"
         d="M 233.50643,160.35349 V 145.5125 H 229.987 l -3.90106,6.27562 -3.90106,-6.27562 h -3.51943 v 14.84099 h 3.20141 v -9.62544 l 4.13428,6.27561 h 0.0848 l 4.17668,-6.33922 v 9.68905 z" />
      <path
         id="path1011"
         style="font-style:normal;font-variant:normal;font-weight:bold;font-stretch:normal;font-family:Gotham;-inkscape-font-specification:'Gotham Bold';stroke-width:0.0700042"
         d="m 248.45739,154.69271 v -0.0424 q 0,-1.22968 -0.46643,-2.28975 -0.46643,-1.08127 -1.29328,-1.86573 -0.80566,-0.80565 -1.92933,-1.25088 -1.12367,-0.46643 -2.43816,-0.46643 -1.33569,0 -2.45936,0.46643 -1.12368,0.46643 -1.95053,1.27209 -0.82686,0.80565 -1.29329,1.88692 -0.46643,1.06007 -0.46643,2.28975 v 0.0424 q 0,1.22969 0.46643,2.31096 0.46643,1.06007 1.27209,1.86572 0.82685,0.78445 1.95053,1.25088 1.12367,0.44523 2.43816,0.44523 1.33569,0 2.45936,-0.46643 1.12367,-0.46643 1.95053,-1.27208 0.82685,-0.80566 1.29328,-1.86573 0.46643,-1.08127 0.46643,-2.31095 z m -3.18021,0.0424 q 0,0.63605 -0.21201,1.20848 -0.19081,0.55124 -0.57244,0.97527 -0.38162,0.42403 -0.93286,0.67844 -0.53003,0.23322 -1.22968,0.23322 -0.67845,0 -1.22968,-0.25442 -0.53004,-0.25442 -0.93286,-0.67844 -0.40283,-0.44523 -0.61484,-0.99647 -0.21202,-0.57244 -0.21202,-1.20848 v -0.0424 q 0,-0.63604 0.19081,-1.18728 0.21202,-0.57244 0.59364,-0.99647 0.38163,-0.42402 0.91166,-0.65724 0.55124,-0.25442 1.25089,-0.25442 0.65724,0 1.20848,0.25442 0.55123,0.25442 0.95406,0.69965 0.40283,0.42402 0.61484,0.99646 0.21201,0.55124 0.21201,1.18728 z" />
      <path
         id="path1013"
         style="font-style:normal;font-variant:normal;font-weight:bold;font-stretch:normal;font-family:Gotham;-inkscape-font-specification:'Gotham Bold';stroke-width:0.0700042"
         d="m 262.21843,160.35349 v -15.47703 h -3.22261 v 5.59717 q -0.57244,-0.67844 -1.4205,-1.18728 -0.82685,-0.50883 -2.12014,-0.50883 -1.01766,0 -1.95053,0.38163 -0.93286,0.38162 -1.65371,1.14487 -0.69964,0.74205 -1.14487,1.84452 -0.42403,1.08127 -0.42403,2.50177 v 0.0424 q 0,1.42049 0.42403,2.52297 0.44523,1.08127 1.16608,1.84452 0.72084,0.74205 1.6537,1.12367 0.93287,0.38163 1.92933,0.38163 1.27209,0 2.09894,-0.50883 0.84806,-0.53004 1.4417,-1.33569 v 1.63251 z m -3.18021,-5.66078 q 0,0.69965 -0.23322,1.29329 -0.21201,0.57243 -0.59364,0.99646 -0.36042,0.40283 -0.86925,0.63604 -0.48764,0.21202 -1.06007,0.21202 -0.57244,0 -1.08127,-0.21202 -0.48764,-0.23321 -0.86926,-0.63604 -0.38163,-0.42403 -0.61484,-0.99646 -0.21202,-0.59364 -0.21202,-1.29329 v -0.0424 q 0,-0.72085 0.21202,-1.29329 0.23321,-0.57243 0.61484,-0.97526 0.38162,-0.42403 0.86926,-0.63604 0.50883,-0.23322 1.08127,-0.23322 0.57243,0 1.06007,0.23322 0.50883,0.21201 0.86925,0.63604 0.38163,0.40283 0.59364,0.99646 0.23322,0.57244 0.23322,1.27209 z" />
      <path
         id="path1015"
         style="font-style:normal;font-variant:normal;font-weight:bold;font-stretch:normal;font-family:Gotham;-inkscape-font-specification:'Gotham Bold';stroke-width:0.0700042"
         d="m 275.71909,154.98953 v -0.0424 q 0,-1.20848 -0.33922,-2.31095 -0.31802,-1.12368 -1.01767,-1.97174 -0.67845,-0.86925 -1.71731,-1.37809 -1.03887,-0.50883 -2.45937,-0.50883 -1.25088,0 -2.28975,0.46643 -1.01766,0.46643 -1.75971,1.27209 -0.74205,0.80565 -1.16608,1.88692 -0.40283,1.08127 -0.40283,2.28975 v 0.0424 q 0,1.31449 0.44523,2.39576 0.44523,1.06007 1.22968,1.84452 0.80566,0.78446 1.88693,1.20848 1.10247,0.42403 2.37455,0.42403 1.54771,0 2.69258,-0.55123 1.14488,-0.57244 1.95053,-1.56891 l -1.84452,-1.63251 q -0.67845,0.61484 -1.31449,0.89046 -0.63604,0.27562 -1.44169,0.27562 -1.08127,0 -1.82332,-0.55124 -0.72085,-0.57243 -0.95407,-1.67491 h 7.90813 q 0.0212,-0.23321 0.0212,-0.40282 0.0212,-0.16961 0.0212,-0.40283 z m -3.13781,-1.20848 h -4.85512 q 0.19081,-1.10247 0.80565,-1.75972 0.63605,-0.65724 1.65371,-0.65724 1.01767,0 1.63251,0.67845 0.61484,0.65724 0.76325,1.73851 z" />
      <path
         id="path1017"
         style="font-style:normal;font-variant:normal;font-weight:bold;font-stretch:normal;font-family:Gotham;-inkscape-font-specification:'Gotham Bold';stroke-width:0.0700042"
         d="m 63.827482,174.2404 v -2.86219 h -3.392224 v 2.86219 z m -0.08481,12.61484 v -11.36395 h -3.222613 v 11.36395 z" />
      <path
         id="path1019"
         style="font-style:normal;font-variant:normal;font-weight:bold;font-stretch:normal;font-family:Gotham;-inkscape-font-specification:'Gotham Bold';stroke-width:0.0700042"
         d="m 75.122197,183.39941 v -0.0424 q 0,-0.78445 -0.318021,-1.33568 -0.318021,-0.55124 -0.805653,-0.93286 -0.487632,-0.38163 -1.102473,-0.63605 -0.614841,-0.27562 -1.20848,-0.46643 -0.466431,-0.14841 -0.890459,-0.29682 -0.402826,-0.14841 -0.720847,-0.29682 -0.318021,-0.16961 -0.508834,-0.33922 -0.190812,-0.19081 -0.190812,-0.42403 v -0.0424 q 0,-0.33922 0.296819,-0.55124 0.29682,-0.23321 0.890459,-0.23321 0.614841,0 1.420494,0.29682 0.805653,0.27562 1.653709,0.76325 l 1.229681,-2.22615 q -0.932861,-0.61484 -2.056536,-0.95406 -1.102472,-0.36043 -2.183744,-0.36043 -0.869257,0 -1.632508,0.23322 -0.742049,0.23321 -1.314487,0.69965 -0.551236,0.46643 -0.890458,1.14487 -0.318021,0.65724 -0.318021,1.5265 v 0.0424 q 0,0.82686 0.296819,1.3993 0.318021,0.57244 0.805653,0.97526 0.487633,0.38163 1.081272,0.63604 0.614841,0.23322 1.20848,0.40283 0.466431,0.14841 0.890459,0.27562 0.424028,0.12721 0.742049,0.27562 0.339222,0.12721 0.530035,0.31802 0.190812,0.19081 0.190812,0.44523 v 0.0424 q 0,0.38163 -0.339222,0.61484 -0.318021,0.23322 -1.017667,0.23322 -0.805654,0 -1.738515,-0.33923 -0.911661,-0.33922 -1.844522,-1.01766 l -1.378091,2.12014 q 1.144875,0.89046 2.395758,1.31448 1.272084,0.40283 2.480564,0.40283 0.91166,0 1.696112,-0.21201 0.805653,-0.23322 1.399292,-0.67845 0.59364,-0.44523 0.911661,-1.12367 0.339222,-0.69965 0.339222,-1.65371 z" />
      <path
         id="path1021"
         style="font-style:normal;font-variant:normal;font-weight:bold;font-stretch:normal;font-family:Gotham;-inkscape-font-specification:'Gotham Bold';stroke-width:0.0700042"
         d="m 100.11302,175.49129 h -3.201416 l -1.865723,6.91165 -2.162543,-6.95406 h -2.777383 l -2.141342,6.93286 -1.82332,-6.89045 h -3.265016 l 3.498231,11.44875 h 2.883391 l 2.226147,-6.97526 2.183744,6.97526 h 2.904592 z" />
      <path
         id="path1023"
         style="font-style:normal;font-variant:normal;font-weight:bold;font-stretch:normal;font-family:Gotham;-inkscape-font-specification:'Gotham Bold';stroke-width:0.0700042"
         d="m 111.84435,186.85524 v -6.59364 q 0,-2.31095 -1.20848,-3.60424 -1.20848,-1.29328 -3.85866,-1.29328 -1.44169,0 -2.45936,0.25441 -1.01767,0.25442 -1.95053,0.65725 l 0.80566,2.45936 q 0.78445,-0.29682 1.48409,-0.44523 0.72085,-0.16961 1.65371,-0.16961 1.20848,0 1.82332,0.53003 0.61484,0.53004 0.61484,1.54771 v 0.19081 q -0.61484,-0.21202 -1.27208,-0.33922 -0.63604,-0.12721 -1.5053,-0.12721 -1.01767,0 -1.86572,0.23321 -0.82686,0.21202 -1.4417,0.65725 -0.59364,0.44523 -0.93286,1.12367 -0.33922,0.67845 -0.33922,1.61131 v 0.0424 q 0,0.84806 0.29682,1.5053 0.31802,0.63604 0.84805,1.08127 0.53004,0.44523 1.22968,0.67845 0.72085,0.21201 1.52651,0.21201 1.18727,0 2.01413,-0.38163 0.82685,-0.40282 1.42049,-1.06007 v 1.22969 z m -3.053,-4.00707 q 0,0.89046 -0.69965,1.4417 -0.67844,0.55123 -1.82332,0.55123 -0.78445,0 -1.27208,-0.36042 -0.48764,-0.36042 -0.48764,-1.01767 v -0.0424 q 0,-0.76325 0.59364,-1.16608 0.59364,-0.40282 1.63251,-0.40282 0.59364,0 1.10247,0.1272 0.53004,0.10601 0.95407,0.29682 z" />
      <path
         id="path1025"
         style="font-style:normal;font-variant:normal;font-weight:bold;font-stretch:normal;font-family:Gotham;-inkscape-font-specification:'Gotham Bold';stroke-width:0.0700042"
         d="m 120.99905,186.38881 v -2.58658 q -0.74205,0.40283 -1.59011,0.40283 -1.03887,0 -1.03887,-1.10247 v -4.85512 h 2.67138 v -2.75618 h -2.67138 v -2.9046 h -3.22261 v 2.9046 h -1.35689 v 2.75618 h 1.35689 v 5.38515 q 0,0.99647 0.23321,1.65371 0.25442,0.63604 0.67845,1.03887 0.44523,0.40283 1.03887,0.55124 0.61484,0.16961 1.35689,0.16961 0.80565,0 1.42049,-0.19081 0.61484,-0.16962 1.12368,-0.46643 z" />
      <path
         id="path1027"
         style="font-style:normal;font-variant:normal;font-weight:bold;font-stretch:normal;font-family:Gotham;-inkscape-font-specification:'Gotham Bold';stroke-width:0.0700042"
         d="m 133.40319,185.03192 -1.88692,-1.90813 q -0.59364,0.55124 -1.20848,0.89046 -0.59364,0.31802 -1.3993,0.31802 -0.65724,0 -1.18728,-0.23322 -0.53003,-0.25441 -0.91166,-0.67844 -0.38162,-0.42403 -0.59363,-0.99647 -0.19082,-0.57243 -0.19082,-1.22968 v -0.0424 q 0,-0.63604 0.19082,-1.18728 0.21201,-0.57244 0.57243,-0.99647 0.38163,-0.42402 0.86926,-0.65724 0.50883,-0.25442 1.12367,-0.25442 0.86926,0 1.4417,0.33923 0.59364,0.33922 1.14488,0.91166 l 1.97173,-2.12014 q -0.80566,-0.89046 -1.86573,-1.3993 -1.06007,-0.50883 -2.67137,-0.50883 -1.31449,0 -2.41696,0.46643 -1.08127,0.46643 -1.86573,1.27209 -0.78445,0.80565 -1.22968,1.88692 -0.44523,1.08127 -0.44523,2.28975 v 0.0424 q 0,1.20848 0.44523,2.28976 0.44523,1.06007 1.22968,1.86572 0.78446,0.78445 1.86573,1.25088 1.10247,0.46643 2.37455,0.46643 1.69612,0 2.75619,-0.57243 1.06007,-0.59364 1.88692,-1.5053 z" />
      <path
         id="path1029"
         style="font-style:normal;font-variant:normal;font-weight:bold;font-stretch:normal;font-family:Gotham;-inkscape-font-specification:'Gotham Bold';stroke-width:0.0700042"
         d="m 145.89744,186.85524 v -7.35689 q 0,-1.97173 -1.01767,-3.0954 -0.99646,-1.12368 -2.84099,-1.12368 -0.61484,0 -1.10247,0.14841 -0.48763,0.14841 -0.89046,0.40283 -0.40282,0.25441 -0.74205,0.59364 -0.31802,0.31802 -0.59363,0.67844 v -5.72438 h -3.22262 v 15.47703 h 3.22262 v -6.33922 q 0,-1.14488 0.53003,-1.71732 0.55124,-0.59364 1.4841,-0.59364 0.93286,0 1.44169,0.59364 0.50884,0.57244 0.50884,1.71732 v 6.33922 z" />
      <path
         id="path1031"
         style="font-style:normal;font-variant:normal;font-weight:bold;font-stretch:normal;font-family:Gotham;-inkscape-font-specification:'Gotham Bold';stroke-width:0.0700042"
         d="m 152.15285,174.2404 v -2.86219 h -3.39223 v 2.86219 z m -0.0848,12.61484 v -11.36395 h -3.22261 v 11.36395 z" />
      <path
         id="path1033"
         style="font-style:normal;font-variant:normal;font-weight:bold;font-stretch:normal;font-family:Gotham;-inkscape-font-specification:'Gotham Bold';stroke-width:0.0700042"
         d="m 165.5253,186.85524 v -7.35689 q 0,-1.97173 -1.01767,-3.0954 -0.99646,-1.12368 -2.84098,-1.12368 -0.61484,0 -1.10248,0.14841 -0.48763,0.14841 -0.89046,0.40283 -0.40282,0.25441 -0.74204,0.59364 -0.31803,0.31802 -0.59364,0.67844 v -1.6113 h -3.22262 v 11.36395 h 3.22262 v -6.33922 q 0,-1.14488 0.53003,-1.71732 0.55124,-0.59364 1.4841,-0.59364 0.93286,0 1.44169,0.59364 0.50884,0.57244 0.50884,1.71732 v 6.33922 z" />
      <path
         id="path1035"
         style="font-style:normal;font-variant:normal;font-weight:bold;font-stretch:normal;font-family:Gotham;-inkscape-font-specification:'Gotham Bold';stroke-width:0.0700042"
         d="m 179.75243,184.28987 v -8.79858 h -3.22261 v 1.48409 q -0.65724,-0.72084 -1.5053,-1.20848 -0.84806,-0.48763 -2.16254,-0.48763 -0.97527,0 -1.88693,0.36043 -0.91166,0.33922 -1.6113,1.01766 -0.69965,0.67845 -1.12368,1.67491 -0.42403,0.97527 -0.42403,2.24735 v 0.0424 q 0,1.27209 0.40283,2.26855 0.42403,0.97527 1.12368,1.65371 0.69964,0.67845 1.6113,1.03887 0.91166,0.33922 1.90813,0.33922 1.29328,0 2.14134,-0.48763 0.84806,-0.48763 1.5689,-1.35689 v 0.55124 q 0,1.5265 -0.80565,2.31095 -0.78445,0.78445 -2.43816,0.78445 -1.14488,0 -2.05654,-0.27561 -0.89046,-0.27562 -1.78091,-0.76326 l -1.10248,2.41696 q 1.08127,0.57244 2.35336,0.86926 1.27208,0.31802 2.67137,0.31802 1.59011,0 2.77739,-0.33922 1.18728,-0.33922 1.97173,-1.06007 0.80565,-0.72085 1.18728,-1.86572 0.40282,-1.12368 0.40282,-2.73498 z m -3.18021,-3.66785 q 0,0.57244 -0.21201,1.06007 -0.21201,0.48764 -0.59364,0.84806 -0.36042,0.33922 -0.86926,0.53004 -0.50883,0.19081 -1.10247,0.19081 -1.18728,0 -1.97173,-0.72085 -0.78445,-0.72085 -0.78445,-1.90813 v -0.0424 q 0,-0.57244 0.21201,-1.06007 0.21202,-0.48763 0.57244,-0.82685 0.38162,-0.36043 0.86926,-0.55124 0.50883,-0.19081 1.10247,-0.19081 0.59364,0 1.10247,0.19081 0.50884,0.19081 0.86926,0.55124 0.38163,0.33922 0.59364,0.82685 0.21201,0.48763 0.21201,1.06007 z" />
      <path
         id="path1037"
         style="font-style:normal;font-variant:normal;font-weight:bold;font-stretch:normal;font-family:Gotham;-inkscape-font-specification:'Gotham Bold';stroke-width:0.0700042"
         d="m 199.84208,175.49129 h -3.34982 l -2.48056,7.73851 -2.58657,-7.73851 h -3.41343 l 4.4523,11.40635 q -0.21202,0.42403 -0.46644,0.57244 -0.23321,0.16961 -0.65724,0.16961 -0.31802,0 -0.69964,-0.12721 -0.36043,-0.12721 -0.67845,-0.31802 l -1.08127,2.33215 q 0.61484,0.36043 1.29328,0.57244 0.67845,0.21201 1.56891,0.21201 0.72085,0 1.27208,-0.16961 0.55124,-0.16961 0.97527,-0.55123 0.44523,-0.38163 0.80565,-0.99647 0.36042,-0.59364 0.67844,-1.4629 z" />
      <path
         id="path1039"
         style="font-style:normal;font-variant:normal;font-weight:bold;font-stretch:normal;font-family:Gotham;-inkscape-font-specification:'Gotham Bold';stroke-width:0.0700042"
         d="m 213.4875,181.19446 v -0.0424 q 0,-1.22968 -0.46643,-2.28975 -0.46643,-1.08127 -1.29329,-1.86573 -0.80565,-0.80565 -1.92932,-1.25088 -1.12368,-0.46643 -2.43817,-0.46643 -1.33568,0 -2.45936,0.46643 -1.12367,0.46643 -1.95053,1.27209 -0.82685,0.80565 -1.29328,1.88692 -0.46643,1.06007 -0.46643,2.28975 v 0.0424 q 0,1.22969 0.46643,2.31096 0.46643,1.06007 1.27208,1.86572 0.82686,0.78445 1.95053,1.25088 1.12368,0.44523 2.43816,0.44523 1.33569,0 2.45936,-0.46643 1.12368,-0.46643 1.95053,-1.27208 0.82686,-0.80566 1.29329,-1.86573 0.46643,-1.08127 0.46643,-2.31095 z m -3.18021,0.0424 q 0,0.63605 -0.21201,1.20848 -0.19082,0.55124 -0.57244,0.97527 -0.38163,0.42403 -0.93286,0.67844 -0.53004,0.23322 -1.22969,0.23322 -0.67844,0 -1.22968,-0.25442 -0.53003,-0.25441 -0.93286,-0.67844 -0.40282,-0.44523 -0.61484,-0.99647 -0.21201,-0.57244 -0.21201,-1.20848 v -0.0424 q 0,-0.63604 0.19081,-1.18728 0.21201,-0.57244 0.59364,-0.99647 0.38162,-0.42402 0.91166,-0.65724 0.55124,-0.25442 1.25088,-0.25442 0.65725,0 1.20848,0.25442 0.55124,0.25442 0.95407,0.69965 0.40282,0.42403 0.61484,0.99646 0.21201,0.55124 0.21201,1.18728 z" />
      <path
         id="path1041"
         style="font-style:normal;font-variant:normal;font-weight:bold;font-stretch:normal;font-family:Gotham;-inkscape-font-specification:'Gotham Bold';stroke-width:0.0700042"
         d="m 226.14606,186.85524 v -11.36395 h -3.22261 v 6.33921 q 0,1.14488 -0.55124,1.73852 -0.53003,0.57244 -1.46289,0.57244 -0.93287,0 -1.4417,-0.57244 -0.50883,-0.59364 -0.50883,-1.73852 v -6.33921 h -3.22262 v 7.35688 q 0,1.97173 0.99647,3.09541 1.01767,1.12367 2.86219,1.12367 0.61484,0 1.10247,-0.14841 0.48763,-0.14841 0.89046,-0.40283 0.40283,-0.25441 0.72085,-0.57243 0.33922,-0.33923 0.61484,-0.69965 v 1.61131 z" />
      <path
         id="path1043"
         style="font-style:normal;font-variant:normal;font-weight:bold;font-stretch:normal;font-family:Gotham;-inkscape-font-specification:'Gotham Bold';stroke-width:0.0700042"
         d="m 235.51344,172.01426 v 0.42402 l 0.99647,9.37102 h 1.78092 l 0.99646,-9.37102 v -0.42402 z m 3.60424,14.84098 v -3.39223 h -3.43463 v 3.39223 z" />
    </g>
    <g
       transform="matrix(0.76682274,0,0,0.76682274,126.78484,-13.792001)"
       aria-label="Smile...!"
       style="font-style:normal;font-variant:normal;font-weight:bold;font-stretch:normal;font-size:38.0243px;line-height:1;font-family:Gotham;-inkscape-font-specification:'Gotham Bold';text-align:center;letter-spacing:0px;word-spacing:0px;text-anchor:middle;fill:#000000;fill-opacity:1;stroke:none;stroke-width:0.345038"
       id="text841-8-2-7-6-0">
      <g
         transform="translate(2.381575,9.5904381)"
         id="g979">
        <path
           id="path945"
           style="font-style:normal;font-variant:normal;font-weight:bold;font-stretch:normal;line-height:1;font-family:Gotham;-inkscape-font-specification:'Gotham Bold';text-align:center;text-anchor:middle;stroke-width:0.345038"
           d="m 59.864093,101.40064 v -0.076 q 0,-1.749117 -0.570364,-3.003919 -0.53234,-1.254801 -1.635044,-2.167384 -1.064681,-0.950608 -2.661701,-1.597021 -1.558996,-0.684437 -3.574283,-1.216777 -1.711094,-0.456291 -2.851822,-0.79851 -1.102705,-0.342219 -1.749118,-0.722462 -0.646413,-0.380242 -0.912583,-0.836534 -0.228145,-0.494316 -0.228145,-1.140729 v -0.07605 q 0,-0.988632 0.836534,-1.635045 0.874559,-0.684437 2.585652,-0.684437 1.711093,0 3.422186,0.722461 1.711093,0.684438 3.498235,1.901215 l 3.041943,-4.410818 q -2.053311,-1.635044 -4.52489,-2.509603 -2.433555,-0.874559 -5.361426,-0.874559 -2.053311,0 -3.764405,0.570365 -1.711093,0.570364 -2.965894,1.635044 -1.216778,1.06468 -1.901215,2.547628 -0.684437,1.444923 -0.684437,3.270089 v 0.07605 q 0,1.977264 0.608389,3.308114 0.646412,1.33085 1.787141,2.243433 1.140729,0.874559 2.775774,1.482947 1.635044,0.608389 3.650332,1.102705 1.673068,0.418267 2.699724,0.79851 1.064681,0.380243 1.635045,0.760487 0.608389,0.38024 0.79851,0.83653 0.228146,0.41827 0.228146,0.98863 v 0.0761 q 0,1.17876 -1.026656,1.86319 -0.988632,0.64642 -2.813798,0.64642 -2.281457,0 -4.220696,-0.87456 -1.901215,-0.87456 -3.726381,-2.35751 l -3.46021,4.14465 q 2.39553,2.16738 5.323401,3.23206 2.92787,1.02666 5.969813,1.02666 2.167385,0 3.954527,-0.53234 1.787141,-0.57036 3.079967,-1.59702 1.292826,-1.06468 2.015288,-2.58565 0.722461,-1.559 0.722461,-3.53626 z"
           inkscape:connector-curvature="0" />
        <path
           id="path947"
           style="font-style:normal;font-variant:normal;font-weight:bold;font-stretch:normal;line-height:1;font-family:Gotham;-inkscape-font-specification:'Gotham Bold';text-align:center;text-anchor:middle;stroke-width:0.345038"
           d="M 95.478596,109.27167 V 96.00119 q 0,-3.688357 -1.825166,-5.589571 -1.825166,-1.901215 -5.057231,-1.901215 -2.091336,0 -3.726381,0.836534 -1.635044,0.798511 -2.965894,2.395531 -0.79851,-1.558996 -2.281458,-2.395531 -1.444923,-0.836534 -3.46021,-0.836534 -1.102705,0 -2.015288,0.26617 -0.874559,0.26617 -1.59702,0.722462 -0.722462,0.456291 -1.33085,1.06468 -0.570365,0.570364 -1.064681,1.216777 v -2.889846 h -5.779692 v 20.381023 h 5.779692 V 97.902404 q 0,-2.053312 0.912583,-3.079967 0.950608,-1.064681 2.585652,-1.064681 1.635045,0 2.509604,1.064681 0.874558,1.026655 0.874558,3.079967 v 11.369266 h 5.779693 V 97.902404 q 0,-2.053312 0.912583,-3.079967 0.950607,-1.064681 2.585652,-1.064681 1.635044,0 2.509603,1.064681 0.874559,1.026655 0.874559,3.079967 v 11.369266 z"
           inkscape:connector-curvature="0" />
        <path
           id="path949"
           style="font-style:normal;font-variant:normal;font-weight:bold;font-stretch:normal;line-height:1;font-family:Gotham;-inkscape-font-specification:'Gotham Bold';text-align:center;text-anchor:middle;stroke-width:0.345038"
           d="m 106.66606,86.647214 v -5.13328 h -6.08389 v 5.13328 z m -0.1521,22.624456 V 88.890647 h -5.77969 v 20.381023 z"
           inkscape:connector-curvature="0" />
        <path
           id="path951"
           style="font-style:normal;font-variant:normal;font-weight:bold;font-stretch:normal;line-height:1;font-family:Gotham;-inkscape-font-specification:'Gotham Bold';text-align:center;text-anchor:middle;stroke-width:0.345038"
           d="M 118.02522,109.27167 V 81.513934 h -5.77969 v 27.757736 z"
           inkscape:connector-curvature="0" />
        <path
           id="path953"
           style="font-style:normal;font-variant:normal;font-weight:bold;font-stretch:normal;line-height:1;font-family:Gotham;-inkscape-font-specification:'Gotham Bold';text-align:center;text-anchor:middle;stroke-width:0.345038"
           d="m 142.50276,99.651522 v -0.07605 q 0,-2.167385 -0.60839,-4.144648 -0.57036,-2.015287 -1.82516,-3.536259 -1.21678,-1.558996 -3.07997,-2.471579 -1.86319,-0.912583 -4.41082,-0.912583 -2.24343,0 -4.10662,0.836534 -1.82517,0.836535 -3.15602,2.281458 -1.33085,1.444923 -2.09133,3.384162 -0.72246,1.939239 -0.72246,4.106624 v 0.07605 q 0,2.357509 0.79851,4.296749 0.79851,1.90121 2.2054,3.30811 1.44493,1.4069 3.38417,2.16738 1.97726,0.76049 4.25872,0.76049 2.77577,0 4.82908,-0.98863 2.05331,-1.02666 3.49824,-2.8138 l -3.30812,-2.92787 q -1.21677,1.1027 -2.3575,1.59702 -1.14073,0.49432 -2.58565,0.49432 -1.93924,0 -3.27009,-0.98864 -1.29283,-1.02665 -1.7111,-3.00392 h 14.18306 q 0.038,-0.41826 0.038,-0.72246 0.038,-0.30419 0.038,-0.722457 z m -5.62759,-2.167385 h -8.70756 q 0.34221,-1.977263 1.44492,-3.156016 1.14073,-1.178753 2.96589,-1.178753 1.82517,0 2.92787,1.216777 1.10271,1.178753 1.36888,3.117992 z"
           inkscape:connector-curvature="0" />
        <path
           id="path955"
           style="font-style:normal;font-variant:normal;font-weight:bold;font-stretch:normal;line-height:1;font-family:Gotham;-inkscape-font-specification:'Gotham Bold';text-align:center;text-anchor:middle;stroke-width:0.345038"
           d="m 152.74199,109.27167 v -6.08389 h -6.15993 v 6.08389 z"
           inkscape:connector-curvature="0" />
        <path
           id="path957"
           style="font-style:normal;font-variant:normal;font-weight:bold;font-stretch:normal;line-height:1;font-family:Gotham;-inkscape-font-specification:'Gotham Bold';text-align:center;text-anchor:middle;stroke-width:0.345038"
           d="m 163.58486,109.27167 v -6.08389 h -6.15994 v 6.08389 z"
           inkscape:connector-curvature="0" />
        <path
           id="path961"
           style="font-style:normal;font-variant:normal;font-weight:bold;font-stretch:normal;line-height:1;font-family:Gotham;-inkscape-font-specification:'Gotham Bold';text-align:center;text-anchor:middle;stroke-width:0.345038"
           d="m 167.7976,82.654663 v 0.760486 l 1.78715,16.806741 h 3.19404 l 1.78714,-16.806741 v -0.760486 z m 6.46413,26.617007 v -6.08389 h -6.15993 v 6.08389 z"
           inkscape:connector-curvature="0"
           sodipodi:nodetypes="cccccccccccc" />
      </g>
    </g>
  </g>
</svg>
