999
"DXF R12 Output" (www.mydxf.blogspot.com)
 0 
SECTION
 2 
HEADER
 9 
$ACADVER
 1 
AC1009
 9 
$EXTMIN
 10 
 0 
 20 
 0 
 9 
$EXTMAX
 10 
 8.5 
 20 
 11 
 0 
ENDSEC
 0 
SECTION
 2 
ENTITIES
0
LINE
8
Ebene 1
10
0.000000
20
220.000000
11
0.000000
21
0.399990
0
LINE
8
Ebene 1
10
0.000000
20
0.399990
11
299.600000
21
0.399990
0
LINE
8
Ebene 1
10
299.600000
20
0.399990
11
299.600000
21
220.000000
0
LINE
8
Ebene 1
10
299.600000
20
220.000000
11
0.000000
21
220.000000
0
LINE
8
Ebene 1
10
9.988940
20
173.239000
11
10.169060
21
176.810991
0
LINE
8
Ebene 1
10
10.169060
20
176.810991
11
10.697728
21
180.279782
0
LINE
8
Ebene 1
10
10.697728
20
180.279782
11
11.557411
21
183.627816
0
LINE
8
Ebene 1
10
11.557411
20
183.627816
11
12.730573
21
186.837534
0
LINE
8
Ebene 1
10
12.730573
20
186.837534
11
14.199678
21
189.891378
0
LINE
8
Ebene 1
10
14.199678
20
189.891378
11
15.947191
21
192.771788
0
LINE
8
Ebene 1
10
15.947191
20
192.771788
11
17.955578
21
195.461206
0
LINE
8
Ebene 1
10
17.955578
20
195.461206
11
20.207302
21
197.942075
0
LINE
8
Ebene 1
10
20.207302
20
197.942075
11
22.684830
21
200.196835
0
LINE
8
Ebene 1
10
22.684830
20
200.196835
11
25.370625
21
202.207928
0
LINE
8
Ebene 1
10
25.370625
20
202.207928
11
28.247152
21
203.957795
0
LINE
8
Ebene 1
10
28.247152
20
203.957795
11
31.296876
21
205.428878
0
LINE
8
Ebene 1
10
31.296876
20
205.428878
11
34.502262
21
206.603619
0
LINE
8
Ebene 1
10
34.502262
20
206.603619
11
37.845775
21
207.464458
0
LINE
8
Ebene 1
10
37.845775
20
207.464458
11
41.309879
21
207.993838
0
LINE
8
Ebene 1
10
41.309879
20
207.993838
11
44.877040
21
208.174200
0
LINE
8
Ebene 1
10
44.877040
20
208.174200
11
254.723000
21
208.174200
0
LINE
8
Ebene 1
10
254.723000
20
208.174200
11
258.290177
21
207.993837
0
LINE
8
Ebene 1
10
258.290177
20
207.993837
11
261.754294
21
207.464454
0
LINE
8
Ebene 1
10
261.754294
20
207.464454
11
265.097815
21
206.603610
0
LINE
8
Ebene 1
10
265.097815
20
206.603610
11
268.303206
21
205.428864
0
LINE
8
Ebene 1
10
268.303206
20
205.428864
11
271.352933
21
203.957775
0
LINE
8
Ebene 1
10
271.352933
20
203.957775
11
274.229459
21
202.207901
0
LINE
8
Ebene 1
10
274.229459
20
202.207901
11
276.915252
21
200.196803
0
LINE
8
Ebene 1
10
276.915252
20
200.196803
11
279.392775
21
197.942038
0
LINE
8
Ebene 1
10
279.392775
20
197.942038
11
281.644494
21
195.461165
0
LINE
8
Ebene 1
10
281.644494
20
195.461165
11
283.652875
21
192.771744
0
LINE
8
Ebene 1
10
283.652875
20
192.771744
11
285.400382
21
189.891333
0
LINE
8
Ebene 1
10
285.400382
20
189.891333
11
286.869481
21
186.837492
0
LINE
8
Ebene 1
10
286.869481
20
186.837492
11
288.042637
21
183.627779
0
LINE
8
Ebene 1
10
288.042637
20
183.627779
11
288.902316
21
180.279754
0
LINE
8
Ebene 1
10
288.902316
20
180.279754
11
289.430981
21
176.810974
0
LINE
8
Ebene 1
10
289.430981
20
176.810974
11
289.611100
21
173.239000
0
LINE
8
Ebene 1
10
289.611100
20
173.239000
11
289.611100
21
47.160800
0
LINE
8
Ebene 1
10
289.611100
20
47.160800
11
289.430981
21
43.588809
0
LINE
8
Ebene 1
10
289.430981
20
43.588809
11
288.902316
21
40.120018
0
LINE
8
Ebene 1
10
288.902316
20
40.120018
11
288.042637
21
36.771984
0
LINE
8
Ebene 1
10
288.042637
20
36.771984
11
286.869481
21
33.562266
0
LINE
8
Ebene 1
10
286.869481
20
33.562266
11
285.400382
21
30.508422
0
LINE
8
Ebene 1
10
285.400382
20
30.508422
11
283.652875
21
27.628012
0
LINE
8
Ebene 1
10
283.652875
20
27.628012
11
281.644494
21
24.938594
0
LINE
8
Ebene 1
10
281.644494
20
24.938594
11
279.392775
21
22.457725
0
LINE
8
Ebene 1
10
279.392775
20
22.457725
11
276.915252
21
20.202965
0
LINE
8
Ebene 1
10
276.915252
20
20.202965
11
274.229459
21
18.191872
0
LINE
8
Ebene 1
10
274.229459
20
18.191872
11
271.352933
21
16.442005
0
LINE
8
Ebene 1
10
271.352933
20
16.442005
11
268.303206
21
14.970922
0
LINE
8
Ebene 1
10
268.303206
20
14.970922
11
265.097815
21
13.796181
0
LINE
8
Ebene 1
10
265.097815
20
13.796181
11
261.754294
21
12.935342
0
LINE
8
Ebene 1
10
261.754294
20
12.935342
11
258.290177
21
12.405962
0
LINE
8
Ebene 1
10
258.290177
20
12.405962
11
254.723000
21
12.225600
0
LINE
8
Ebene 1
10
254.723000
20
12.225600
11
44.877000
21
12.225600
0
LINE
8
Ebene 1
10
44.877000
20
12.225600
11
41.309839
21
12.405963
0
LINE
8
Ebene 1
10
41.309839
20
12.405963
11
37.845735
21
12.935346
0
LINE
8
Ebene 1
10
37.845735
20
12.935346
11
34.502222
21
13.796190
0
LINE
8
Ebene 1
10
34.502222
20
13.796190
11
31.296836
21
14.970936
0
LINE
8
Ebene 1
10
31.296836
20
14.970936
11
28.247112
21
16.442025
0
LINE
8
Ebene 1
10
28.247112
20
16.442025
11
25.370585
21
18.191899
0
LINE
8
Ebene 1
10
25.370585
20
18.191899
11
22.684790
21
20.202997
0
LINE
8
Ebene 1
10
22.684790
20
20.202997
11
20.207263
21
22.457763
0
LINE
8
Ebene 1
10
20.207263
20
22.457763
11
17.955538
21
24.938635
0
LINE
8
Ebene 1
10
17.955538
20
24.938635
11
15.947151
21
27.628056
0
LINE
8
Ebene 1
10
15.947151
20
27.628056
11
14.199638
21
30.508467
0
LINE
8
Ebene 1
10
14.199638
20
30.508467
11
12.730533
21
33.562308
0
LINE
8
Ebene 1
10
12.730533
20
33.562308
11
11.557371
21
36.772021
0
LINE
8
Ebene 1
10
11.557371
20
36.772021
11
10.697688
21
40.120046
0
LINE
8
Ebene 1
10
10.697688
20
40.120046
11
10.169020
21
43.588826
0
LINE
8
Ebene 1
10
10.169020
20
43.588826
11
9.988900
21
47.160800
0
LINE
8
Ebene 1
10
9.988900
20
47.160800
11
9.988940
21
173.239000
0
LINE
8
Ebene 1
10
9.988940
20
173.239000
11
16.809040
21
173.239000
0
LINE
8
Ebene 1
10
16.809040
20
173.239000
11
16.809040
21
47.160800
0
LINE
8
Ebene 1
10
16.809040
20
47.160800
11
16.952780
21
44.269528
0
LINE
8
Ebene 1
10
16.952780
20
44.269528
11
17.374907
21
41.465806
0
LINE
8
Ebene 1
10
17.374907
20
41.465806
11
18.061781
21
38.763291
0
LINE
8
Ebene 1
10
18.061781
20
38.763291
11
18.999762
21
36.175642
0
LINE
8
Ebene 1
10
18.999762
20
36.175642
11
20.175211
21
33.716517
0
LINE
8
Ebene 1
10
20.175211
20
33.716517
11
21.574487
21
31.399573
0
LINE
8
Ebene 1
10
21.574487
20
31.399573
11
23.183952
21
29.238469
0
LINE
8
Ebene 1
10
23.183952
20
29.238469
11
24.989965
21
27.246863
0
LINE
8
Ebene 1
10
24.989965
20
27.246863
11
26.978887
21
25.438412
0
LINE
8
Ebene 1
10
26.978887
20
25.438412
11
29.137077
21
23.826776
0
LINE
8
Ebene 1
10
29.137077
20
23.826776
11
31.450897
21
22.425611
0
LINE
8
Ebene 1
10
31.450897
20
22.425611
11
33.906706
21
21.248577
0
LINE
8
Ebene 1
10
33.906706
20
21.248577
11
36.490864
21
20.309330
0
LINE
8
Ebene 1
10
36.490864
20
20.309330
11
39.189733
21
19.621530
0
LINE
8
Ebene 1
10
39.189733
20
19.621530
11
41.989671
21
19.198834
0
LINE
8
Ebene 1
10
41.989671
20
19.198834
11
44.877040
21
19.054900
0
LINE
8
Ebene 1
10
44.877040
20
19.054900
11
254.723000
21
19.054900
0
LINE
8
Ebene 1
10
254.723000
20
19.054900
11
257.610369
21
19.198835
0
LINE
8
Ebene 1
10
257.610369
20
19.198835
11
260.410307
21
19.621534
0
LINE
8
Ebene 1
10
260.410307
20
19.621534
11
263.109176
21
20.309339
0
LINE
8
Ebene 1
10
263.109176
20
20.309339
11
265.693334
21
21.248591
0
LINE
8
Ebene 1
10
265.693334
20
21.248591
11
268.149143
21
22.425631
0
LINE
8
Ebene 1
10
268.149143
20
22.425631
11
270.462963
21
23.826802
0
LINE
8
Ebene 1
10
270.462963
20
23.826802
11
272.621153
21
25.438444
0
LINE
8
Ebene 1
10
272.621153
20
25.438444
11
274.610075
21
27.246900
0
LINE
8
Ebene 1
10
274.610075
20
27.246900
11
276.416088
21
29.238510
0
LINE
8
Ebene 1
10
276.416088
20
29.238510
11
278.025553
21
31.399617
0
LINE
8
Ebene 1
10
278.025553
20
31.399617
11
279.424829
21
33.716561
0
LINE
8
Ebene 1
10
279.424829
20
33.716561
11
280.600278
21
36.175684
0
LINE
8
Ebene 1
10
280.600278
20
36.175684
11
281.538259
21
38.763328
0
LINE
8
Ebene 1
10
281.538259
20
38.763328
11
282.225133
21
41.465835
0
LINE
8
Ebene 1
10
282.225133
20
41.465835
11
282.647260
21
44.269545
0
LINE
8
Ebene 1
10
282.647260
20
44.269545
11
282.791000
21
47.160800
0
LINE
8
Ebene 1
10
282.791000
20
47.160800
11
282.791000
21
173.239800
0
LINE
8
Ebene 1
10
282.791000
20
173.239800
11
282.647260
21
176.131073
0
LINE
8
Ebene 1
10
282.647260
20
176.131073
11
282.225133
21
178.934798
0
LINE
8
Ebene 1
10
282.225133
20
178.934798
11
281.538259
21
181.637318
0
LINE
8
Ebene 1
10
281.538259
20
181.637318
11
280.600278
21
184.224973
0
LINE
8
Ebene 1
10
280.600278
20
184.224973
11
279.424829
21
186.684107
0
LINE
8
Ebene 1
10
279.424829
20
186.684107
11
278.025553
21
189.001059
0
LINE
8
Ebene 1
10
278.025553
20
189.001059
11
276.416088
21
191.162172
0
LINE
8
Ebene 1
10
276.416088
20
191.162172
11
274.610075
21
193.153788
0
LINE
8
Ebene 1
10
274.610075
20
193.153788
11
272.621153
21
194.962247
0
LINE
8
Ebene 1
10
272.621153
20
194.962247
11
270.462963
21
196.573893
0
LINE
8
Ebene 1
10
270.462963
20
196.573893
11
268.149143
21
197.975066
0
LINE
8
Ebene 1
10
268.149143
20
197.975066
11
265.693334
21
199.152108
0
LINE
8
Ebene 1
10
265.693334
20
199.152108
11
263.109176
21
200.091361
0
LINE
8
Ebene 1
10
263.109176
20
200.091361
11
260.410307
21
200.779166
0
LINE
8
Ebene 1
10
260.410307
20
200.779166
11
257.610369
21
201.201865
0
LINE
8
Ebene 1
10
257.610369
20
201.201865
11
254.723000
21
201.345800
0
LINE
8
Ebene 1
10
254.723000
20
201.345800
11
44.877000
21
201.345800
0
LINE
8
Ebene 1
10
44.877000
20
201.345800
11
41.989631
21
201.201865
0
LINE
8
Ebene 1
10
41.989631
20
201.201865
11
39.189693
21
200.779166
0
LINE
8
Ebene 1
10
39.189693
20
200.779166
11
36.490824
21
200.091361
0
LINE
8
Ebene 1
10
36.490824
20
200.091361
11
33.906666
21
199.152108
0
LINE
8
Ebene 1
10
33.906666
20
199.152108
11
31.450857
21
197.975066
0
LINE
8
Ebene 1
10
31.450857
20
197.975066
11
29.137037
21
196.573893
0
LINE
8
Ebene 1
10
29.137037
20
196.573893
11
26.978847
21
194.962247
0
LINE
8
Ebene 1
10
26.978847
20
194.962247
11
24.989925
21
193.153788
0
LINE
8
Ebene 1
10
24.989925
20
193.153788
11
23.183912
21
191.162172
0
LINE
8
Ebene 1
10
23.183912
20
191.162172
11
21.574447
21
189.001059
0
LINE
8
Ebene 1
10
21.574447
20
189.001059
11
20.175171
21
186.684107
0
LINE
8
Ebene 1
10
20.175171
20
186.684107
11
18.999722
21
184.224973
0
LINE
8
Ebene 1
10
18.999722
20
184.224973
11
18.061741
21
181.637318
0
LINE
8
Ebene 1
10
18.061741
20
181.637318
11
17.374867
21
178.934798
0
LINE
8
Ebene 1
10
17.374867
20
178.934798
11
16.952740
21
176.131073
0
LINE
8
Ebene 1
10
16.952740
20
176.131073
11
16.809000
21
173.239800
0
LINE
8
Ebene 1
10
16.809000
20
173.239800
11
9.988940
21
173.239000
0
LINE
8
Layer 1
10
568.192000
20
-194.886000
11
569.165105
21
-194.689537
0
LINE
8
Layer 1
10
569.165105
20
-194.689537
11
569.959753
21
-194.153770
0
LINE
8
Layer 1
10
569.959753
20
-194.153770
11
570.495523
21
-193.359124
0
LINE
8
Layer 1
10
570.495523
20
-193.359124
11
570.691990
21
-192.386020
0
LINE
8
Layer 1
10
570.691990
20
-192.386020
11
570.495529
21
-191.412910
0
LINE
8
Layer 1
10
570.495529
20
-191.412910
11
569.959760
21
-190.618257
0
LINE
8
Layer 1
10
569.959760
20
-190.618257
11
569.165110
21
-190.082485
0
LINE
8
Layer 1
10
569.165110
20
-190.082485
11
568.192000
21
-189.886020
0
LINE
8
Layer 1
10
568.192000
20
-189.886020
11
567.235291
21
-190.076321
0
LINE
8
Layer 1
10
567.235291
20
-190.076321
11
566.424233
21
-190.618253
0
LINE
8
Layer 1
10
566.424233
20
-190.618253
11
565.882301
21
-191.429311
0
LINE
8
Layer 1
10
565.882301
20
-191.429311
11
565.692000
21
-192.386020
0
LINE
8
Layer 1
10
565.692000
20
-192.386020
11
565.888468
21
-193.359126
0
LINE
8
Layer 1
10
565.888468
20
-193.359126
11
566.424240
21
-194.153774
0
LINE
8
Layer 1
10
566.424240
20
-194.153774
11
567.218892
21
-194.689540
0
LINE
8
Layer 1
10
567.218892
20
-194.689540
11
568.192000
21
-194.886000
0
LINE
8
Layer 1
10
568.192000
20
-194.886000
11
568.192000
21
-194.886000
0
LINE
8
Layer 1
10
567.900000
20
-349.800000
11
568.856739
21
-349.609728
0
LINE
8
Layer 1
10
568.856739
20
-349.609728
11
569.667832
21
-349.067802
0
LINE
8
Layer 1
10
569.667832
20
-349.067802
11
570.209789
21
-348.256732
0
LINE
8
Layer 1
10
570.209789
20
-348.256732
11
570.400100
21
-347.300000
0
LINE
8
Layer 1
10
570.400100
20
-347.300000
11
570.209789
21
-346.343268
0
LINE
8
Layer 1
10
570.209789
20
-346.343268
11
569.667832
21
-345.532198
0
LINE
8
Layer 1
10
569.667832
20
-345.532198
11
568.856739
21
-344.990272
0
LINE
8
Layer 1
10
568.856739
20
-344.990272
11
567.900000
21
-344.800000
0
LINE
8
Layer 1
10
567.900000
20
-344.800000
11
566.926913
21
-344.996485
0
LINE
8
Layer 1
10
566.926913
20
-344.996485
11
566.132285
21
-345.532261
0
LINE
8
Layer 1
10
566.132285
20
-345.532261
11
565.596534
21
-346.326907
0
LINE
8
Layer 1
10
565.596534
20
-346.326907
11
565.400080
21
-347.300000
0
LINE
8
Layer 1
10
565.400080
20
-347.300000
11
565.596534
21
-348.273093
0
LINE
8
Layer 1
10
565.596534
20
-348.273093
11
566.132285
21
-349.067739
0
LINE
8
Layer 1
10
566.132285
20
-349.067739
11
566.926913
21
-349.603515
0
LINE
8
Layer 1
10
566.926913
20
-349.603515
11
567.900000
21
-349.800000
0
LINE
8
Layer 1
10
567.900000
20
-349.800000
11
567.900000
21
-349.800000
0
LINE
8
Layer 1
10
332.814000
20
-350.178000
11
333.770709
21
-349.987699
0
LINE
8
Layer 1
10
333.770709
20
-349.987699
11
334.581767
21
-349.445767
0
LINE
8
Layer 1
10
334.581767
20
-349.445767
11
335.123699
21
-348.634709
0
LINE
8
Layer 1
10
335.123699
20
-348.634709
11
335.314000
21
-347.678000
0
LINE
8
Layer 1
10
335.314000
20
-347.678000
11
335.123699
21
-346.721291
0
LINE
8
Layer 1
10
335.123699
20
-346.721291
11
334.581767
21
-345.910233
0
LINE
8
Layer 1
10
334.581767
20
-345.910233
11
333.770709
21
-345.368301
0
LINE
8
Layer 1
10
333.770709
20
-345.368301
11
332.814000
21
-345.178000
0
LINE
8
Layer 1
10
332.814000
20
-345.178000
11
331.857291
21
-345.368301
0
LINE
8
Layer 1
10
331.857291
20
-345.368301
11
331.046233
21
-345.910233
0
LINE
8
Layer 1
10
331.046233
20
-345.910233
11
330.504301
21
-346.721291
0
LINE
8
Layer 1
10
330.504301
20
-346.721291
11
330.314000
21
-347.678000
0
LINE
8
Layer 1
10
330.314000
20
-347.678000
11
330.504301
21
-348.634709
0
LINE
8
Layer 1
10
330.504301
20
-348.634709
11
331.046233
21
-349.445767
0
LINE
8
Layer 1
10
331.046233
20
-349.445767
11
331.857291
21
-349.987699
0
LINE
8
Layer 1
10
331.857291
20
-349.987699
11
332.814000
21
-350.178000
0
LINE
8
Layer 1
10
332.814000
20
-350.178000
11
332.814000
21
-350.178000
0
LINE
8
Layer 1
10
332.814000
20
-195.178000
11
333.770709
21
-194.987699
0
LINE
8
Layer 1
10
333.770709
20
-194.987699
11
334.581767
21
-194.445767
0
LINE
8
Layer 1
10
334.581767
20
-194.445767
11
335.123699
21
-193.634709
0
LINE
8
Layer 1
10
335.123699
20
-193.634709
11
335.314000
21
-192.678000
0
LINE
8
Layer 1
10
335.314000
20
-192.678000
11
335.123699
21
-191.721291
0
LINE
8
Layer 1
10
335.123699
20
-191.721291
11
334.581767
21
-190.910233
0
LINE
8
Layer 1
10
334.581767
20
-190.910233
11
333.770709
21
-190.368301
0
LINE
8
Layer 1
10
333.770709
20
-190.368301
11
332.814000
21
-190.178000
0
LINE
8
Layer 1
10
332.814000
20
-190.178000
11
331.857291
21
-190.368301
0
LINE
8
Layer 1
10
331.857291
20
-190.368301
11
331.046233
21
-190.910233
0
LINE
8
Layer 1
10
331.046233
20
-190.910233
11
330.504301
21
-191.721291
0
LINE
8
Layer 1
10
330.504301
20
-191.721291
11
330.314000
21
-192.678000
0
LINE
8
Layer 1
10
330.314000
20
-192.678000
11
330.504301
21
-193.634709
0
LINE
8
Layer 1
10
330.504301
20
-193.634709
11
331.046233
21
-194.445767
0
LINE
8
Layer 1
10
331.046233
20
-194.445767
11
331.857291
21
-194.987699
0
LINE
8
Layer 1
10
331.857291
20
-194.987699
11
332.814000
21
-195.178000
0
LINE
8
Layer 1
10
332.814000
20
-195.178000
11
332.814000
21
-195.178000
0
LINE
8
Ebene 1
10
214.746000
20
138.548000
11
199.850900
21
55.389600
0
LINE
8
Ebene 1
10
199.850900
20
55.389600
11
193.316180
21
55.554810
0
LINE
8
Ebene 1
10
193.316180
20
55.554810
11
189.007282
21
55.994230
0
LINE
8
Ebene 1
10
189.007282
20
55.994230
11
185.749039
21
56.761028
0
LINE
8
Ebene 1
10
185.749039
20
56.761028
11
184.471996
21
57.281464
0
LINE
8
Ebene 1
10
184.471996
20
57.281464
11
183.407316
21
57.900871
0
LINE
8
Ebene 1
10
183.407316
20
57.900871
11
182.538233
21
58.624957
0
LINE
8
Ebene 1
10
182.538233
20
58.624957
11
181.847980
21
59.459430
0
LINE
8
Ebene 1
10
181.847980
20
59.459430
11
181.169310
21
60.698166
0
LINE
8
Ebene 1
10
181.169310
20
60.698166
11
180.742640
21
62.234750
0
LINE
8
Ebene 1
10
180.742640
20
62.234750
11
180.507570
21
63.218520
0
LINE
8
Ebene 1
10
180.507570
20
63.218520
11
178.917284
21
62.550464
0
LINE
8
Ebene 1
10
178.917284
20
62.550464
11
176.370440
21
61.252760
0
LINE
8
Ebene 1
10
176.370440
20
61.252760
11
173.497485
21
59.481458
0
LINE
8
Ebene 1
10
173.497485
20
59.481458
11
170.964746
21
57.586891
0
LINE
8
Ebene 1
10
170.964746
20
57.586891
11
168.785942
21
55.580396
0
LINE
8
Ebene 1
10
168.785942
20
55.580396
11
166.974790
21
53.473310
0
LINE
8
Ebene 1
10
166.974790
20
53.473310
11
166.396820
21
52.629590
0
LINE
8
Ebene 1
10
166.396820
20
52.629590
11
166.762570
21
52.401500
0
LINE
8
Ebene 1
10
166.762570
20
52.401500
11
168.688870
21
51.571260
0
LINE
8
Ebene 1
10
168.688870
20
51.571260
11
172.506483
21
50.029254
0
LINE
8
Ebene 1
10
172.506483
20
50.029254
11
176.550617
21
48.619658
0
LINE
8
Ebene 1
10
176.550617
20
48.619658
11
180.771352
21
47.354150
0
LINE
8
Ebene 1
10
180.771352
20
47.354150
11
185.118770
21
46.244408
0
LINE
8
Ebene 1
10
185.118770
20
46.244408
11
189.542950
21
45.302109
0
LINE
8
Ebene 1
10
189.542950
20
45.302109
11
193.993973
21
44.538933
0
LINE
8
Ebene 1
10
193.993973
20
44.538933
11
198.421920
21
43.966557
0
LINE
8
Ebene 1
10
198.421920
20
43.966557
11
202.776870
21
43.596660
0
LINE
8
Ebene 1
10
202.776870
20
43.596660
11
203.800950
21
43.533660
0
LINE
8
Ebene 1
10
203.800950
20
43.533660
11
209.297910
21
50.231870
0
LINE
8
Ebene 1
10
209.297910
20
50.231870
11
214.869130
21
56.848010
0
LINE
8
Ebene 1
10
214.869130
20
56.848010
11
220.321950
21
50.211660
0
LINE
8
Ebene 1
10
220.321950
20
50.211660
11
225.800840
21
43.595220
0
LINE
8
Ebene 1
10
225.800840
20
43.595220
11
230.525230
21
43.899930
0
LINE
8
Ebene 1
10
230.525230
20
43.899930
11
237.315884
21
44.805289
0
LINE
8
Ebene 1
10
237.315884
20
44.805289
11
244.039348
21
46.134641
0
LINE
8
Ebene 1
10
244.039348
20
46.134641
11
250.613677
21
47.869100
0
LINE
8
Ebene 1
10
250.613677
20
47.869100
11
256.956930
21
49.989780
0
LINE
8
Ebene 1
10
256.956930
20
49.989780
11
262.864940
21
52.429430
0
LINE
8
Ebene 1
10
262.864940
20
52.429430
11
263.247340
21
52.624520
0
LINE
8
Ebene 1
10
263.247340
20
52.624520
11
262.754080
21
53.302650
0
LINE
8
Ebene 1
10
262.754080
20
53.302650
11
261.118177
21
55.265723
0
LINE
8
Ebene 1
10
261.118177
20
55.265723
11
259.109052
21
57.181668
0
LINE
8
Ebene 1
10
259.109052
20
57.181668
11
256.761562
21
59.020448
0
LINE
8
Ebene 1
10
256.761562
20
59.020448
11
254.110560
21
60.752030
0
LINE
8
Ebene 1
10
254.110560
20
60.752030
11
249.237010
21
63.198120
0
LINE
8
Ebene 1
10
249.237010
20
63.198120
11
249.049495
21
63.167158
0
LINE
8
Ebene 1
10
249.049495
20
63.167158
11
248.957380
21
62.743420
0
LINE
8
Ebene 1
10
248.957380
20
62.743420
11
248.649270
21
61.401430
0
LINE
8
Ebene 1
10
248.649270
20
61.401430
11
248.163921
21
60.150537
0
LINE
8
Ebene 1
10
248.163921
20
60.150537
11
247.467122
21
59.074569
0
LINE
8
Ebene 1
10
247.467122
20
59.074569
11
246.536560
21
58.161901
0
LINE
8
Ebene 1
10
246.536560
20
58.161901
11
245.349928
21
57.400908
0
LINE
8
Ebene 1
10
245.349928
20
57.400908
11
243.884912
21
56.779965
0
LINE
8
Ebene 1
10
243.884912
20
56.779965
11
242.119205
21
56.287447
0
LINE
8
Ebene 1
10
242.119205
20
56.287447
11
240.030494
21
55.911731
0
LINE
8
Ebene 1
10
240.030494
20
55.911731
11
237.596470
21
55.641190
0
LINE
8
Ebene 1
10
237.596470
20
55.641190
11
229.686620
21
55.434090
0
LINE
8
Ebene 1
10
229.686620
20
55.434090
11
214.887920
21
138.450490
0
LINE
8
Ebene 1
10
214.887920
20
138.450490
11
214.810620
21
138.889380
0
LINE
8
Ebene 1
10
214.810620
20
138.889380
11
214.746000
21
138.548000
0
LINE
8
Ebene 1
10
214.746000
20
138.548000
11
263.247900
21
48.941700
0
LINE
8
Ebene 1
10
263.247900
20
48.941700
11
258.808428
21
47.183879
0
LINE
8
Ebene 1
10
258.808428
20
47.183879
11
254.239239
21
45.598029
0
LINE
8
Ebene 1
10
254.239239
20
45.598029
11
249.559278
21
44.188625
0
LINE
8
Ebene 1
10
249.559278
20
44.188625
11
244.787487
21
42.960141
0
LINE
8
Ebene 1
10
244.787487
20
42.960141
11
239.942811
21
41.917052
0
LINE
8
Ebene 1
10
239.942811
20
41.917052
11
235.044192
21
41.063833
0
LINE
8
Ebene 1
10
235.044192
20
41.063833
11
230.110574
21
40.404957
0
LINE
8
Ebene 1
10
230.110574
20
40.404957
11
225.160900
21
39.944900
0
LINE
8
Ebene 1
10
225.160900
20
39.944900
11
216.509256
21
39.651566
0
LINE
8
Ebene 1
10
216.509256
20
39.651566
11
207.838600
21
39.746830
0
LINE
8
Ebene 1
10
207.838600
20
39.746830
11
202.347043
21
40.127640
0
LINE
8
Ebene 1
10
202.347043
20
40.127640
11
196.958722
21
40.724336
0
LINE
8
Ebene 1
10
196.958722
20
40.724336
11
191.665983
21
41.538612
0
LINE
8
Ebene 1
10
191.665983
20
41.538612
11
186.461175
21
42.572161
0
LINE
8
Ebene 1
10
186.461175
20
42.572161
11
181.336645
21
43.826678
0
LINE
8
Ebene 1
10
181.336645
20
43.826678
11
176.284741
21
45.303856
0
LINE
8
Ebene 1
10
176.284741
20
45.303856
11
171.297810
21
47.005389
0
LINE
8
Ebene 1
10
171.297810
20
47.005389
11
166.368200
21
48.932970
0
LINE
8
Ebene 1
10
166.368200
20
48.932970
11
164.605570
21
49.567000
0
LINE
8
Ebene 1
10
164.605570
20
49.567000
11
163.352260
21
47.241760
0
LINE
8
Ebene 1
10
163.352260
20
47.241760
11
162.075661
21
44.572147
0
LINE
8
Ebene 1
10
162.075661
20
44.572147
11
161.732220
21
43.598120
0
LINE
8
Ebene 1
10
161.732220
20
43.598120
11
167.225870
21
41.522700
0
LINE
8
Ebene 1
10
167.225870
20
41.522700
11
174.307931
21
39.234499
0
LINE
8
Ebene 1
10
174.307931
20
39.234499
11
181.481917
21
37.311596
0
LINE
8
Ebene 1
10
181.481917
20
37.311596
11
188.720341
21
35.757739
0
LINE
8
Ebene 1
10
188.720341
20
35.757739
11
195.995720
21
34.576674
0
LINE
8
Ebene 1
10
195.995720
20
34.576674
11
203.280567
21
33.772150
0
LINE
8
Ebene 1
10
203.280567
20
33.772150
11
210.547398
21
33.347914
0
LINE
8
Ebene 1
10
210.547398
20
33.347914
11
217.768727
21
33.307715
0
LINE
8
Ebene 1
10
217.768727
20
33.307715
11
224.917070
21
33.655300
0
LINE
8
Ebene 1
10
224.917070
20
33.655300
11
230.193317
21
34.151025
0
LINE
8
Ebene 1
10
230.193317
20
34.151025
11
235.405498
21
34.828182
0
LINE
8
Ebene 1
10
235.405498
20
34.828182
11
240.565971
21
35.689540
0
LINE
8
Ebene 1
10
240.565971
20
35.689540
11
245.687095
21
36.737864
0
LINE
8
Ebene 1
10
245.687095
20
36.737864
11
250.781228
21
37.975920
0
LINE
8
Ebene 1
10
250.781228
20
37.975920
11
255.860729
21
39.406476
0
LINE
8
Ebene 1
10
255.860729
20
39.406476
11
260.937957
21
41.032297
0
LINE
8
Ebene 1
10
260.937957
20
41.032297
11
266.025270
21
42.856150
0
LINE
8
Ebene 1
10
266.025270
20
42.856150
11
267.903640
21
43.589250
0
LINE
8
Ebene 1
10
267.903640
20
43.589250
11
266.607704
21
46.551856
0
LINE
8
Ebene 1
10
266.607704
20
46.551856
11
265.021900
21
49.605010
0
LINE
8
Ebene 1
10
265.021900
20
49.605010
11
263.247920
21
48.941700
0
LINE
8
Ebene 1
10
263.247920
20
48.941700
11
214.746000
21
138.548000
0
LINE
8
Layer 1
10
47.678000
20
162.987000
11
47.678000
21
158.707710
0
LINE
8
Layer 1
10
47.678000
20
158.707710
11
43.345220
21
158.707710
0
LINE
8
Layer 1
10
43.345220
20
158.707710
11
43.345220
21
162.987000
0
LINE
8
Layer 1
10
43.345220
20
162.987000
11
47.678000
21
162.987000
0
LINE
8
Layer 1
10
55.304700
20
162.987000
11
55.304700
21
158.707710
0
LINE
8
Layer 1
10
55.304700
20
158.707710
11
50.971920
21
158.707710
0
LINE
8
Layer 1
10
50.971920
20
158.707710
11
50.971920
21
162.987000
0
LINE
8
Layer 1
10
50.971920
20
162.987000
11
55.304700
21
162.987000
0
LINE
8
Layer 1
10
62.931300
20
162.987000
11
62.931300
21
158.707710
0
LINE
8
Layer 1
10
62.931300
20
158.707710
11
58.598520
21
158.707710
0
LINE
8
Layer 1
10
58.598520
20
158.707710
11
58.598520
21
162.987000
0
LINE
8
Layer 1
10
58.598520
20
162.987000
11
62.931300
21
162.987000
0
LINE
8
Layer 1
10
80.346900
20
157.450000
11
80.346900
21
157.396500
0
LINE
8
Layer 1
10
80.346900
20
157.396500
11
80.246604
21
156.253125
0
LINE
8
Layer 1
10
80.246604
20
156.253125
11
79.945717
21
155.283600
0
LINE
8
Layer 1
10
79.945717
20
155.283600
11
79.470983
21
154.461170
0
LINE
8
Layer 1
10
79.470983
20
154.461170
11
78.795657
21
153.759100
0
LINE
8
Layer 1
10
78.795657
20
153.759100
11
77.953172
21
153.143952
0
LINE
8
Layer 1
10
77.953172
20
153.143952
11
76.923467
21
152.635790
0
LINE
8
Layer 1
10
76.923467
20
152.635790
11
74.409387
21
151.779930
0
LINE
8
Layer 1
10
74.409387
20
151.779930
11
72.403467
21
151.218270
0
LINE
8
Layer 1
10
72.403467
20
151.218270
11
71.173167
21
150.710110
0
LINE
8
Layer 1
10
71.173167
20
150.710110
11
70.531274
21
150.121710
0
LINE
8
Layer 1
10
70.531274
20
150.121710
11
70.370801
21
149.319340
0
LINE
8
Layer 1
10
70.370801
20
149.319340
11
70.370801
21
149.265840
0
LINE
8
Layer 1
10
70.370801
20
149.265840
11
70.517902
21
148.630630
0
LINE
8
Layer 1
10
70.517902
20
148.630630
11
70.959203
21
148.115780
0
LINE
8
Layer 1
10
70.959203
20
148.115780
11
71.721452
21
147.754715
0
LINE
8
Layer 1
10
71.721452
20
147.754715
11
72.777903
21
147.634360
0
LINE
8
Layer 1
10
72.777903
20
147.634360
11
73.981453
21
147.761402
0
LINE
8
Layer 1
10
73.981453
20
147.761402
11
75.185003
21
148.142530
0
LINE
8
Layer 1
10
75.185003
20
148.142530
11
76.401926
21
148.717557
0
LINE
8
Layer 1
10
76.401926
20
148.717557
11
77.645593
21
149.479800
0
LINE
8
Layer 1
10
77.645593
20
149.479800
11
79.785233
21
146.377320
0
LINE
8
Layer 1
10
79.785233
20
146.377320
11
78.267423
21
145.360987
0
LINE
8
Layer 1
10
78.267423
20
145.360987
11
76.602513
21
144.612110
0
LINE
8
Layer 1
10
76.602513
20
144.612110
11
74.803873
21
144.150755
0
LINE
8
Layer 1
10
74.803873
20
144.150755
11
72.831393
21
143.996970
0
LINE
8
Layer 1
10
72.831393
20
143.996970
11
71.447311
21
144.097265
0
LINE
8
Layer 1
10
71.447311
20
144.097265
11
70.183583
21
144.398150
0
LINE
8
Layer 1
10
70.183583
20
144.398150
11
69.060271
21
144.886255
0
LINE
8
Layer 1
10
69.060271
20
144.886255
11
68.097433
21
145.548210
0
LINE
8
Layer 1
10
68.097433
20
145.548210
11
67.335184
21
146.370632
0
LINE
8
Layer 1
10
67.335184
20
146.370632
11
66.760153
21
147.340160
0
LINE
8
Layer 1
10
66.760153
20
147.340160
11
66.399088
21
148.423355
0
LINE
8
Layer 1
10
66.399088
20
148.423355
11
66.278733
21
149.640280
0
LINE
8
Layer 1
10
66.278733
20
149.640280
11
66.278733
21
149.693780
0
LINE
8
Layer 1
10
66.278733
20
149.693780
11
66.385715
21
150.970880
0
LINE
8
Layer 1
10
66.385715
20
150.970880
11
66.706662
21
152.020640
0
LINE
8
Layer 1
10
66.706662
20
152.020640
11
67.248259
21
152.883182
0
LINE
8
Layer 1
10
67.248259
20
152.883182
11
67.963702
21
153.598630
0
LINE
8
Layer 1
10
67.963702
20
153.598630
11
68.852993
21
154.166972
0
LINE
8
Layer 1
10
68.852993
20
154.166972
11
69.916132
21
154.641700
0
LINE
8
Layer 1
10
69.916132
20
154.641700
11
72.483702
21
155.417330
0
LINE
8
Layer 1
10
72.483702
20
155.417330
11
74.382632
21
155.978980
0
LINE
8
Layer 1
10
74.382632
20
155.978980
11
75.532692
21
156.513890
0
LINE
8
Layer 1
10
75.532692
20
156.513890
11
76.094349
21
157.102290
0
LINE
8
Layer 1
10
76.094349
20
157.102290
11
76.254822
21
157.797680
0
LINE
8
Layer 1
10
76.254822
20
157.797680
11
76.254822
21
157.851180
0
LINE
8
Layer 1
10
76.254822
20
157.851180
11
76.074290
21
158.593367
0
LINE
8
Layer 1
10
76.074290
20
158.593367
11
75.532692
21
159.161710
0
LINE
8
Layer 1
10
75.532692
20
159.161710
11
74.690208
21
159.502720
0
LINE
8
Layer 1
10
74.690208
20
159.502720
11
73.553522
21
159.616390
0
LINE
8
Layer 1
10
73.553522
20
159.616390
11
72.008967
21
159.462602
0
LINE
8
Layer 1
10
72.008967
20
159.462602
11
70.584762
21
159.001240
0
LINE
8
Layer 1
10
70.584762
20
159.001240
11
69.260857
21
158.279107
0
LINE
8
Layer 1
10
69.260857
20
158.279107
11
67.963702
21
157.343010
0
LINE
8
Layer 1
10
67.963702
20
157.343010
11
65.529862
21
160.258280
0
LINE
8
Layer 1
10
65.529862
20
160.258280
11
67.308442
21
161.588872
0
LINE
8
Layer 1
10
67.308442
20
161.588872
11
69.274242
21
162.531650
0
LINE
8
Layer 1
10
69.274242
20
162.531650
11
71.353710
21
163.073247
0
LINE
8
Layer 1
10
71.353710
20
163.073247
11
73.473292
21
163.253780
0
LINE
8
Layer 1
10
73.473292
20
163.253780
11
74.930927
21
163.160170
0
LINE
8
Layer 1
10
74.930927
20
163.160170
11
76.254832
21
162.879340
0
LINE
8
Layer 1
10
76.254832
20
162.879340
11
77.424950
21
162.397922
0
LINE
8
Layer 1
10
77.424950
20
162.397922
11
78.421222
21
161.756030
0
LINE
8
Layer 1
10
78.421222
20
161.756030
11
79.230274
21
160.926920
0
LINE
8
Layer 1
10
79.230274
20
160.926920
11
79.838732
21
159.937330
0
LINE
8
Layer 1
10
79.838732
20
159.937330
11
80.219856
21
158.767217
0
LINE
8
Layer 1
10
80.219856
20
158.767217
11
80.346897
21
157.450000
0
LINE
8
Layer 1
10
80.346897
20
157.450000
11
80.346900
21
157.450000
0
LINE
8
Layer 1
10
96.892300
20
156.220000
11
96.892300
21
156.166500
0
LINE
8
Layer 1
10
96.892300
20
156.166500
11
96.785318
21
154.675435
0
LINE
8
Layer 1
10
96.785318
20
154.675435
11
96.464371
21
153.251240
0
LINE
8
Layer 1
10
96.464371
20
153.251240
11
95.942832
21
151.920645
0
LINE
8
Layer 1
10
95.942832
20
151.920645
11
95.180581
21
150.763900
0
LINE
8
Layer 1
10
95.180581
20
150.763900
11
94.211054
21
149.781000
0
LINE
8
Layer 1
10
94.211054
20
149.781000
11
93.014191
21
149.025440
0
LINE
8
Layer 1
10
93.014191
20
149.025440
11
91.583306
21
148.544023
0
LINE
8
Layer 1
10
91.583306
20
148.544023
11
89.911711
21
148.383550
0
LINE
8
Layer 1
10
89.911711
20
148.383550
11
88.400586
21
148.530650
0
LINE
8
Layer 1
10
88.400586
20
148.530650
11
87.023191
21
148.971950
0
LINE
8
Layer 1
10
87.023191
20
148.971950
11
85.826326
21
149.667333
0
LINE
8
Layer 1
10
85.826326
20
149.667333
11
84.803311
21
150.576680
0
LINE
8
Layer 1
10
84.803311
20
150.576680
11
83.967511
21
151.679933
0
LINE
8
Layer 1
10
83.967511
20
151.679933
11
83.332301
21
152.957030
0
LINE
8
Layer 1
10
83.332301
20
152.957030
11
82.951177
21
154.361175
0
LINE
8
Layer 1
10
82.951177
20
154.361175
11
82.824136
21
155.845550
0
LINE
8
Layer 1
10
82.824136
20
155.845550
11
82.824136
21
155.899050
0
LINE
8
Layer 1
10
82.824136
20
155.899050
11
82.964550
21
157.483720
0
LINE
8
Layer 1
10
82.964550
20
157.483720
11
83.385792
21
158.921290
0
LINE
8
Layer 1
10
83.385792
20
158.921290
11
84.054430
21
160.171648
0
LINE
8
Layer 1
10
84.054430
20
160.171648
11
84.937032
21
161.248160
0
LINE
8
Layer 1
10
84.937032
20
161.248160
11
86.040284
21
162.124073
0
LINE
8
Layer 1
10
86.040284
20
162.124073
11
87.317382
21
162.772650
0
LINE
8
Layer 1
10
87.317382
20
162.772650
11
88.761642
21
163.173833
0
LINE
8
Layer 1
10
88.761642
20
163.173833
11
90.312882
21
163.307560
0
LINE
8
Layer 1
10
90.312882
20
163.307560
11
92.138269
21
163.133715
0
LINE
8
Layer 1
10
92.138269
20
163.133715
11
93.709572
21
162.612180
0
LINE
8
Layer 1
10
93.709572
20
162.612180
11
95.046849
21
161.756323
0
LINE
8
Layer 1
10
95.046849
20
161.756323
11
96.170162
21
160.633010
0
LINE
8
Layer 1
10
96.170162
20
160.633010
11
93.843302
21
158.573600
0
LINE
8
Layer 1
10
93.843302
20
158.573600
11
93.000818
21
159.242237
0
LINE
8
Layer 1
10
93.000818
20
159.242237
11
92.185082
21
159.696910
0
LINE
8
Layer 1
10
92.185082
20
159.696910
11
91.329224
21
159.957685
0
LINE
8
Layer 1
10
91.329224
20
159.957685
11
90.366382
21
160.044610
0
LINE
8
Layer 1
10
90.366382
20
160.044610
11
89.109342
21
159.870762
0
LINE
8
Layer 1
10
89.109342
20
159.870762
11
88.066262
21
159.349220
0
LINE
8
Layer 1
10
88.066262
20
159.349220
11
87.310700
21
158.459930
0
LINE
8
Layer 1
10
87.310700
20
158.459930
11
86.862712
21
157.236320
0
LINE
8
Layer 1
10
86.862712
20
157.236320
11
96.838802
21
157.236320
0
LINE
8
Layer 1
10
96.838802
20
157.236320
11
96.865552
21
156.728160
0
LINE
8
Layer 1
10
96.865552
20
156.728160
11
96.892302
21
156.219990
0
LINE
8
Layer 1
10
96.892302
20
156.219990
11
96.892300
21
156.220000
0
LINE
8
Layer 1
10
96.892300
20
156.220000
11
92.933960
21
154.695510
0
LINE
8
Layer 1
10
92.933960
20
154.695510
11
86.809300
21
154.695510
0
LINE
8
Layer 1
10
86.809300
20
154.695510
11
87.183738
21
153.445153
0
LINE
8
Layer 1
10
87.183738
20
153.445153
11
87.825630
21
152.475620
0
LINE
8
Layer 1
10
87.825630
20
152.475620
11
88.748350
21
151.853788
0
LINE
8
Layer 1
10
88.748350
20
151.853788
11
89.911780
21
151.646510
0
LINE
8
Layer 1
10
89.911780
20
151.646510
11
91.068527
21
151.860475
0
LINE
8
Layer 1
10
91.068527
20
151.860475
11
91.971190
21
152.502370
0
LINE
8
Layer 1
10
91.971190
20
152.502370
11
92.599710
21
153.465210
0
LINE
8
Layer 1
10
92.599710
20
153.465210
11
92.934030
21
154.695510
0
LINE
8
Layer 1
10
92.934030
20
154.695510
11
96.892300
21
156.220000
0
LINE
8
Layer 1
10
113.054000
20
162.987000
11
113.054000
21
153.706290
0
LINE
8
Layer 1
10
113.054000
20
153.706290
11
112.973764
21
152.529484
0
LINE
8
Layer 1
10
112.973764
20
152.529484
11
112.733055
21
151.486408
0
LINE
8
Layer 1
10
112.733055
20
151.486408
11
112.331874
21
150.577059
0
LINE
8
Layer 1
10
112.331874
20
150.577059
11
111.770220
21
149.801440
0
LINE
8
Layer 1
10
111.770220
20
149.801440
11
111.074836
21
149.181279
0
LINE
8
Layer 1
10
111.074836
20
149.181279
11
110.245723
21
148.738307
0
LINE
8
Layer 1
10
110.245723
20
148.738307
11
109.282881
21
148.472524
0
LINE
8
Layer 1
10
109.282881
20
148.472524
11
108.186310
21
148.383930
0
LINE
8
Layer 1
10
108.186310
20
148.383930
11
106.795550
21
148.571140
0
LINE
8
Layer 1
10
106.795550
20
148.571140
11
105.672230
21
149.079310
0
LINE
8
Layer 1
10
105.672230
20
149.079310
11
104.736140
21
149.828190
0
LINE
8
Layer 1
10
104.736140
20
149.828190
11
103.987260
21
150.684040
0
LINE
8
Layer 1
10
103.987260
20
150.684040
11
103.987260
21
148.651380
0
LINE
8
Layer 1
10
103.987260
20
148.651380
11
99.921940
21
148.651380
0
LINE
8
Layer 1
10
99.921940
20
148.651380
11
99.921940
21
162.986980
0
LINE
8
Layer 1
10
99.921940
20
162.986980
11
103.987260
21
162.986980
0
LINE
8
Layer 1
10
103.987260
20
162.986980
11
103.987260
21
154.990060
0
LINE
8
Layer 1
10
103.987260
20
154.990060
11
104.154420
21
153.726333
0
LINE
8
Layer 1
10
104.154420
20
153.726333
11
104.655900
21
152.823670
0
LINE
8
Layer 1
10
104.655900
20
152.823670
11
105.471643
21
152.262010
0
LINE
8
Layer 1
10
105.471643
20
152.262010
11
106.528090
21
152.074790
0
LINE
8
Layer 1
10
106.528090
20
152.074790
11
107.571165
21
152.262010
0
LINE
8
Layer 1
10
107.571165
20
152.262010
11
108.346790
21
152.823670
0
LINE
8
Layer 1
10
108.346790
20
152.823670
11
108.828208
21
153.726333
0
LINE
8
Layer 1
10
108.828208
20
153.726333
11
108.988680
21
154.990060
0
LINE
8
Layer 1
10
108.988680
20
154.990060
11
108.988680
21
162.986980
0
LINE
8
Layer 1
10
108.988680
20
162.986980
11
113.054000
21
162.987000
0
LINE
8
Layer 1
10
124.636000
20
162.398000
11
124.636000
21
159.135050
0
LINE
8
Layer 1
10
124.636000
20
159.135050
11
123.666475
21
159.516170
0
LINE
8
Layer 1
10
123.666475
20
159.516170
11
122.630080
21
159.643210
0
LINE
8
Layer 1
10
122.630080
20
159.643210
11
122.056723
21
159.556287
0
LINE
8
Layer 1
10
122.056723
20
159.556287
11
121.647182
21
159.295517
0
LINE
8
Layer 1
10
121.647182
20
159.295517
11
121.401458
21
158.860902
0
LINE
8
Layer 1
10
121.401458
20
158.860902
11
121.319550
21
158.252440
0
LINE
8
Layer 1
10
121.319550
20
158.252440
11
121.319550
21
152.127710
0
LINE
8
Layer 1
10
121.319550
20
152.127710
11
124.689490
21
152.127710
0
LINE
8
Layer 1
10
124.689490
20
152.127710
11
124.689490
21
148.650790
0
LINE
8
Layer 1
10
124.689490
20
148.650790
11
121.319550
21
148.650790
0
LINE
8
Layer 1
10
121.319550
20
148.650790
11
121.319550
21
144.986650
0
LINE
8
Layer 1
10
121.319550
20
144.986650
11
117.254230
21
144.986650
0
LINE
8
Layer 1
10
117.254230
20
144.986650
11
117.254230
21
148.650790
0
LINE
8
Layer 1
10
117.254230
20
148.650790
11
115.542510
21
148.650790
0
LINE
8
Layer 1
10
115.542510
20
148.650790
11
115.542510
21
152.127710
0
LINE
8
Layer 1
10
115.542510
20
152.127710
11
117.254230
21
152.127710
0
LINE
8
Layer 1
10
117.254230
20
152.127710
11
117.254230
21
158.921080
0
LINE
8
Layer 1
10
117.254230
20
158.921080
11
117.327780
21
160.071140
0
LINE
8
Layer 1
10
117.327780
20
160.071140
11
117.548430
21
161.007240
0
LINE
8
Layer 1
10
117.548430
20
161.007240
11
117.922870
21
161.736052
0
LINE
8
Layer 1
10
117.922870
20
161.736052
11
118.404290
21
162.317770
0
LINE
8
Layer 1
10
118.404290
20
162.317770
11
119.012747
21
162.745695
0
LINE
8
Layer 1
10
119.012747
20
162.745695
11
119.714820
21
163.013150
0
LINE
8
Layer 1
10
119.714820
20
163.013150
11
121.426530
21
163.227120
0
LINE
8
Layer 1
10
121.426530
20
163.227120
11
123.218490
21
162.986410
0
LINE
8
Layer 1
10
123.218490
20
162.986410
11
124.636000
21
162.398000
0
LINE
8
Layer 1
10
124.636000
20
162.398000
11
124.636000
21
162.398000
0
LINE
8
Layer 1
10
132.020000
20
147.073000
11
132.020000
21
143.462350
0
LINE
8
Layer 1
10
132.020000
20
143.462350
11
127.740710
21
143.462350
0
LINE
8
Layer 1
10
127.740710
20
143.462350
11
127.740710
21
147.073000
0
LINE
8
Layer 1
10
127.740710
20
147.073000
11
132.020000
21
147.073000
0
LINE
8
Layer 1
10
132.020000
20
147.073000
11
131.913020
21
162.986600
0
LINE
8
Layer 1
10
131.913020
20
162.986600
11
131.913020
21
148.651000
0
LINE
8
Layer 1
10
131.913020
20
148.651000
11
127.847690
21
148.651000
0
LINE
8
Layer 1
10
127.847690
20
148.651000
11
127.847690
21
162.986600
0
LINE
8
Layer 1
10
127.847690
20
162.986600
11
132.020000
21
147.073000
0
LINE
8
Layer 1
10
148.889000
20
162.987000
11
148.889000
21
153.706290
0
LINE
8
Layer 1
10
148.889000
20
153.706290
11
148.808764
21
152.529484
0
LINE
8
Layer 1
10
148.808764
20
152.529484
11
148.568055
21
151.486408
0
LINE
8
Layer 1
10
148.568055
20
151.486408
11
148.166874
21
150.577059
0
LINE
8
Layer 1
10
148.166874
20
150.577059
11
147.605220
21
149.801440
0
LINE
8
Layer 1
10
147.605220
20
149.801440
11
146.909836
21
149.181279
0
LINE
8
Layer 1
10
146.909836
20
149.181279
11
146.080723
21
148.738307
0
LINE
8
Layer 1
10
146.080723
20
148.738307
11
145.117881
21
148.472524
0
LINE
8
Layer 1
10
145.117881
20
148.472524
11
144.021310
21
148.383930
0
LINE
8
Layer 1
10
144.021310
20
148.383930
11
142.630540
21
148.571140
0
LINE
8
Layer 1
10
142.630540
20
148.571140
11
141.507230
21
149.079310
0
LINE
8
Layer 1
10
141.507230
20
149.079310
11
140.571140
21
149.828190
0
LINE
8
Layer 1
10
140.571140
20
149.828190
11
139.822260
21
150.684040
0
LINE
8
Layer 1
10
139.822260
20
150.684040
11
139.822260
21
148.651380
0
LINE
8
Layer 1
10
139.822260
20
148.651380
11
135.756940
21
148.651380
0
LINE
8
Layer 1
10
135.756940
20
148.651380
11
135.756940
21
162.986980
0
LINE
8
Layer 1
10
135.756940
20
162.986980
11
139.822260
21
162.986980
0
LINE
8
Layer 1
10
139.822260
20
162.986980
11
139.822260
21
154.990060
0
LINE
8
Layer 1
10
139.822260
20
154.990060
11
139.989420
21
153.726333
0
LINE
8
Layer 1
10
139.989420
20
153.726333
11
140.490900
21
152.823670
0
LINE
8
Layer 1
10
140.490900
20
152.823670
11
141.306637
21
152.262010
0
LINE
8
Layer 1
10
141.306637
20
152.262010
11
142.363090
21
152.074790
0
LINE
8
Layer 1
10
142.363090
20
152.074790
11
143.406165
21
152.262010
0
LINE
8
Layer 1
10
143.406165
20
152.262010
11
144.181790
21
152.823670
0
LINE
8
Layer 1
10
144.181790
20
152.823670
11
144.663207
21
153.726333
0
LINE
8
Layer 1
10
144.663207
20
153.726333
11
144.823680
21
154.990060
0
LINE
8
Layer 1
10
144.823680
20
154.990060
11
144.823680
21
162.986980
0
LINE
8
Layer 1
10
144.823680
20
162.986980
11
148.889000
21
162.987000
0
LINE
8
Layer 1
10
165.793000
20
156.220000
11
165.793000
21
156.166500
0
LINE
8
Layer 1
10
165.793000
20
156.166500
11
165.686017
21
154.675435
0
LINE
8
Layer 1
10
165.686017
20
154.675435
11
165.365070
21
153.251240
0
LINE
8
Layer 1
10
165.365070
20
153.251240
11
164.843532
21
151.920645
0
LINE
8
Layer 1
10
164.843532
20
151.920645
11
164.081280
21
150.763900
0
LINE
8
Layer 1
10
164.081280
20
150.763900
11
163.111757
21
149.781000
0
LINE
8
Layer 1
10
163.111757
20
149.781000
11
161.914890
21
149.025440
0
LINE
8
Layer 1
10
161.914890
20
149.025440
11
160.484005
21
148.544023
0
LINE
8
Layer 1
10
160.484005
20
148.544023
11
158.812410
21
148.383550
0
LINE
8
Layer 1
10
158.812410
20
148.383550
11
157.301285
21
148.530650
0
LINE
8
Layer 1
10
157.301285
20
148.530650
11
155.923890
21
148.971950
0
LINE
8
Layer 1
10
155.923890
20
148.971950
11
154.727025
21
149.667333
0
LINE
8
Layer 1
10
154.727025
20
149.667333
11
153.704010
21
150.576680
0
LINE
8
Layer 1
10
153.704010
20
150.576680
11
152.868215
21
151.679933
0
LINE
8
Layer 1
10
152.868215
20
151.679933
11
152.233010
21
152.957030
0
LINE
8
Layer 1
10
152.233010
20
152.957030
11
151.851882
21
154.361175
0
LINE
8
Layer 1
10
151.851882
20
154.361175
11
151.724840
21
155.845550
0
LINE
8
Layer 1
10
151.724840
20
155.845550
11
151.724840
21
155.899050
0
LINE
8
Layer 1
10
151.724840
20
155.899050
11
151.865255
21
157.483720
0
LINE
8
Layer 1
10
151.865255
20
157.483720
11
152.286500
21
158.921290
0
LINE
8
Layer 1
10
152.286500
20
158.921290
11
152.955135
21
160.171648
0
LINE
8
Layer 1
10
152.955135
20
160.171648
11
153.837740
21
161.248160
0
LINE
8
Layer 1
10
153.837740
20
161.248160
11
154.940992
21
162.124073
0
LINE
8
Layer 1
10
154.940992
20
162.124073
11
156.218090
21
162.772650
0
LINE
8
Layer 1
10
156.218090
20
162.772650
11
157.662350
21
163.173833
0
LINE
8
Layer 1
10
157.662350
20
163.173833
11
159.213590
21
163.307560
0
LINE
8
Layer 1
10
159.213590
20
163.307560
11
161.038977
21
163.133715
0
LINE
8
Layer 1
10
161.038977
20
163.133715
11
162.610280
21
162.612180
0
LINE
8
Layer 1
10
162.610280
20
162.612180
11
163.947558
21
161.756323
0
LINE
8
Layer 1
10
163.947558
20
161.756323
11
165.070870
21
160.633010
0
LINE
8
Layer 1
10
165.070870
20
160.633010
11
162.744010
21
158.573600
0
LINE
8
Layer 1
10
162.744010
20
158.573600
11
161.901522
21
159.242237
0
LINE
8
Layer 1
10
161.901522
20
159.242237
11
161.085780
21
159.696910
0
LINE
8
Layer 1
10
161.085780
20
159.696910
11
160.229925
21
159.957685
0
LINE
8
Layer 1
10
160.229925
20
159.957685
11
159.267080
21
160.044610
0
LINE
8
Layer 1
10
159.267080
20
160.044610
11
158.010042
21
159.870762
0
LINE
8
Layer 1
10
158.010042
20
159.870762
11
156.966970
21
159.349220
0
LINE
8
Layer 1
10
156.966970
20
159.349220
11
156.211407
21
158.459930
0
LINE
8
Layer 1
10
156.211407
20
158.459930
11
155.763420
21
157.236320
0
LINE
8
Layer 1
10
155.763420
20
157.236320
11
165.739510
21
157.236320
0
LINE
8
Layer 1
10
165.739510
20
157.236320
11
165.766210
21
156.728160
0
LINE
8
Layer 1
10
165.766210
20
156.728160
11
165.793010
21
156.219990
0
LINE
8
Layer 1
10
165.793010
20
156.219990
11
165.793000
21
156.220000
0
LINE
8
Layer 1
10
165.793000
20
156.220000
11
161.834660
21
154.695510
0
LINE
8
Layer 1
10
161.834660
20
154.695510
11
155.709930
21
154.695510
0
LINE
8
Layer 1
10
155.709930
20
154.695510
11
156.084368
21
153.445153
0
LINE
8
Layer 1
10
156.084368
20
153.445153
11
156.726260
21
152.475620
0
LINE
8
Layer 1
10
156.726260
20
152.475620
11
157.648978
21
151.853788
0
LINE
8
Layer 1
10
157.648978
20
151.853788
11
158.812410
21
151.646510
0
LINE
8
Layer 1
10
158.812410
20
151.646510
11
159.969157
21
151.860475
0
LINE
8
Layer 1
10
159.969157
20
151.860475
11
160.871820
21
152.502370
0
LINE
8
Layer 1
10
160.871820
20
152.502370
11
161.500340
21
153.465210
0
LINE
8
Layer 1
10
161.500340
20
153.465210
11
161.834660
21
154.695510
0
LINE
8
Layer 1
10
161.834660
20
154.695510
11
165.793000
21
156.220000
0
LINE
8
Layer 1
10
173.076000
20
162.987000
11
173.076000
21
143.462700
0
LINE
8
Layer 1
10
173.076000
20
143.462700
11
169.010670
21
143.462700
0
LINE
8
Layer 1
10
169.010670
20
143.462700
11
169.010670
21
162.987000
0
LINE
8
Layer 1
10
169.010670
20
162.987000
11
173.076000
21
162.987000
0
LINE
8
Layer 1
10
204.114000
20
162.987000
11
204.114000
21
144.265000
0
LINE
8
Layer 1
10
204.114000
20
144.265000
11
199.674240
21
144.265000
0
LINE
8
Layer 1
10
199.674240
20
144.265000
11
194.753050
21
152.181680
0
LINE
8
Layer 1
10
194.753050
20
152.181680
11
189.831870
21
144.265000
0
LINE
8
Layer 1
10
189.831870
20
144.265000
11
185.392110
21
144.265000
0
LINE
8
Layer 1
10
185.392110
20
144.265000
11
185.392110
21
162.986900
0
LINE
8
Layer 1
10
185.392110
20
162.986900
11
189.430690
21
162.986900
0
LINE
8
Layer 1
10
189.430690
20
162.986900
11
189.430690
21
150.844400
0
LINE
8
Layer 1
10
189.430690
20
150.844400
11
194.646070
21
158.761080
0
LINE
8
Layer 1
10
194.646070
20
158.761080
11
194.753050
21
158.761080
0
LINE
8
Layer 1
10
194.753050
20
158.761080
11
200.021930
21
150.764160
0
LINE
8
Layer 1
10
200.021930
20
150.764160
11
200.021930
21
162.986860
0
LINE
8
Layer 1
10
200.021930
20
162.986860
11
204.114000
21
162.987000
0
LINE
8
Layer 1
10
222.975000
20
155.846000
11
222.975000
21
155.792500
0
LINE
8
Layer 1
10
222.975000
20
155.792500
11
222.827900
21
154.294750
0
LINE
8
Layer 1
10
222.827900
20
154.294750
11
222.386600
21
152.903980
0
LINE
8
Layer 1
10
222.386600
20
152.903980
11
221.684530
21
151.633570
0
LINE
8
Layer 1
10
221.684530
20
151.633570
11
220.755120
21
150.550380
0
LINE
8
Layer 1
10
220.755120
20
150.550380
11
219.638495
21
149.647712
0
LINE
8
Layer 1
10
219.638495
20
149.647712
11
218.321280
21
148.972390
0
LINE
8
Layer 1
10
218.321280
20
148.972390
11
216.843585
21
148.531090
0
LINE
8
Layer 1
10
216.843585
20
148.531090
11
215.245540
21
148.383990
0
LINE
8
Layer 1
10
215.245540
20
148.383990
11
213.627435
21
148.531090
0
LINE
8
Layer 1
10
213.627435
20
148.531090
11
212.143060
21
148.972390
0
LINE
8
Layer 1
10
212.143060
20
148.972390
11
210.819152
21
149.667772
0
LINE
8
Layer 1
10
210.819152
20
149.667772
11
209.682470
21
150.577120
0
LINE
8
Layer 1
10
209.682470
20
150.577120
11
208.753060
21
151.680372
0
LINE
8
Layer 1
10
208.753060
20
151.680372
11
208.050990
21
152.957470
0
LINE
8
Layer 1
10
208.050990
20
152.957470
11
207.609682
21
154.348240
0
LINE
8
Layer 1
10
207.609682
20
154.348240
11
207.462580
21
155.845990
0
LINE
8
Layer 1
10
207.462580
20
155.845990
11
207.462580
21
155.899490
0
LINE
8
Layer 1
10
207.462580
20
155.899490
11
207.609682
21
157.403925
0
LINE
8
Layer 1
10
207.609682
20
157.403925
11
208.050990
21
158.814750
0
LINE
8
Layer 1
10
208.050990
20
158.814750
11
208.746372
21
160.071792
0
LINE
8
Layer 1
10
208.746372
20
160.071792
11
209.655720
21
161.168360
0
LINE
8
Layer 1
10
209.655720
20
161.168360
11
210.792407
21
162.057647
0
LINE
8
Layer 1
10
210.792407
20
162.057647
11
212.116310
21
162.746350
0
LINE
8
Layer 1
10
212.116310
20
162.746350
11
213.594000
21
163.167587
0
LINE
8
Layer 1
10
213.594000
20
163.167587
11
215.192050
21
163.308000
0
LINE
8
Layer 1
10
215.192050
20
163.308000
11
216.810155
21
163.160900
0
LINE
8
Layer 1
10
216.810155
20
163.160900
11
218.294530
21
162.719600
0
LINE
8
Layer 1
10
218.294530
20
162.719600
11
219.618437
21
162.024217
0
LINE
8
Layer 1
10
219.618437
20
162.024217
11
220.755120
21
161.114870
0
LINE
8
Layer 1
10
220.755120
20
161.114870
11
221.684530
21
160.018302
0
LINE
8
Layer 1
10
221.684530
20
160.018302
11
222.386600
21
158.761260
0
LINE
8
Layer 1
10
222.386600
20
158.761260
11
222.827900
21
157.350432
0
LINE
8
Layer 1
10
222.827900
20
157.350432
11
222.975000
21
155.845990
0
LINE
8
Layer 1
10
222.975000
20
155.845990
11
222.975000
21
155.846000
0
LINE
8
Layer 1
10
222.975000
20
155.846000
11
218.963170
21
155.899500
0
LINE
8
Layer 1
10
218.963170
20
155.899500
11
218.695720
21
157.423990
0
LINE
8
Layer 1
10
218.695720
20
157.423990
11
217.973590
21
158.654290
0
LINE
8
Layer 1
10
217.973590
20
158.654290
11
216.796780
21
159.510140
0
LINE
8
Layer 1
10
216.796780
20
159.510140
11
216.074650
21
159.730797
0
LINE
8
Layer 1
10
216.074650
20
159.730797
11
215.245540
21
159.804350
0
LINE
8
Layer 1
10
215.245540
20
159.804350
11
214.429800
21
159.724112
0
LINE
8
Layer 1
10
214.429800
20
159.724112
11
213.694300
21
159.483400
0
LINE
8
Layer 1
10
213.694300
20
159.483400
11
212.517490
21
158.627540
0
LINE
8
Layer 1
10
212.517490
20
158.627540
11
211.741870
21
157.370500
0
LINE
8
Layer 1
10
211.741870
20
157.370500
11
211.474420
21
155.846000
0
LINE
8
Layer 1
10
211.474420
20
155.846000
11
211.474420
21
155.792500
0
LINE
8
Layer 1
10
211.474420
20
155.792500
11
211.715130
21
154.294750
0
LINE
8
Layer 1
10
211.715130
20
154.294750
11
212.464000
21
153.037710
0
LINE
8
Layer 1
10
212.464000
20
153.037710
11
212.992225
21
152.562977
0
LINE
8
Layer 1
10
212.992225
20
152.562977
11
213.614060
21
152.208600
0
LINE
8
Layer 1
10
213.614060
20
152.208600
11
214.356253
21
151.967887
0
LINE
8
Layer 1
10
214.356253
20
151.967887
11
215.192050
21
151.887650
0
LINE
8
Layer 1
10
215.192050
20
151.887650
11
215.987728
21
151.967887
0
LINE
8
Layer 1
10
215.987728
20
151.967887
11
216.716540
21
152.208600
0
LINE
8
Layer 1
10
216.716540
20
152.208600
11
217.365122
21
152.589725
0
LINE
8
Layer 1
10
217.365122
20
152.589725
11
217.920090
21
153.091200
0
LINE
8
Layer 1
10
217.920090
20
153.091200
11
218.368083
21
153.672915
0
LINE
8
Layer 1
10
218.368083
20
153.672915
11
218.695720
21
154.348240
0
LINE
8
Layer 1
10
218.695720
20
154.348240
11
218.963170
21
155.845990
0
LINE
8
Layer 1
10
218.963170
20
155.845990
11
222.975000
21
155.846000
0
LINE
8
Layer 1
10
240.335000
20
162.987000
11
240.335000
21
143.462700
0
LINE
8
Layer 1
10
240.335000
20
143.462700
11
236.269670
21
143.462700
0
LINE
8
Layer 1
10
236.269670
20
143.462700
11
236.269670
21
150.523530
0
LINE
8
Layer 1
10
236.269670
20
150.523530
11
235.460618
21
149.721162
0
LINE
8
Layer 1
10
235.460618
20
149.721162
11
234.477720
21
149.025780
0
LINE
8
Layer 1
10
234.477720
20
149.025780
11
233.287548
21
148.544363
0
LINE
8
Layer 1
10
233.287548
20
148.544363
11
231.803170
21
148.383890
0
LINE
8
Layer 1
10
231.803170
20
148.383890
11
230.546128
21
148.504245
0
LINE
8
Layer 1
10
230.546128
20
148.504245
11
229.342580
21
148.865310
0
LINE
8
Layer 1
10
229.342580
20
148.865310
11
228.232635
21
149.467085
0
LINE
8
Layer 1
10
228.232635
20
149.467085
11
227.256420
21
150.309570
0
LINE
8
Layer 1
10
227.256420
20
150.309570
11
226.454055
21
151.359330
0
LINE
8
Layer 1
10
226.454055
20
151.359330
11
225.812160
21
152.636430
0
LINE
8
Layer 1
10
225.812160
20
152.636430
11
225.410978
21
154.107433
0
LINE
8
Layer 1
10
225.410978
20
154.107433
11
225.277250
21
155.792400
0
LINE
8
Layer 1
10
225.277250
20
155.792400
11
225.277250
21
155.845900
0
LINE
8
Layer 1
10
225.277250
20
155.845900
11
225.410978
21
157.537560
0
LINE
8
Layer 1
10
225.410978
20
157.537560
11
225.812160
21
159.028620
0
LINE
8
Layer 1
10
225.812160
20
159.028620
11
226.460742
21
160.292353
0
LINE
8
Layer 1
10
226.460742
20
160.292353
11
227.283170
21
161.355490
0
LINE
8
Layer 1
10
227.283170
20
161.355490
11
228.259383
21
162.177913
0
LINE
8
Layer 1
10
228.259383
20
162.177913
11
229.369320
21
162.773000
0
LINE
8
Layer 1
10
229.369320
20
162.773000
11
230.566188
21
163.134065
0
LINE
8
Layer 1
10
230.566188
20
163.134065
11
231.803170
21
163.254420
0
LINE
8
Layer 1
10
231.803170
20
163.254420
11
233.267488
21
163.093948
0
LINE
8
Layer 1
10
233.267488
20
163.093948
11
234.450980
21
162.612530
0
LINE
8
Layer 1
10
234.450980
20
162.612530
11
235.440562
21
161.856968
0
LINE
8
Layer 1
10
235.440562
20
161.856968
11
236.269670
21
160.927560
0
LINE
8
Layer 1
10
236.269670
20
160.927560
11
236.269670
21
162.986970
0
LINE
8
Layer 1
10
236.269670
20
162.986970
11
240.335000
21
162.987000
0
LINE
8
Layer 1
10
240.335000
20
162.987000
11
236.323160
21
155.845930
0
LINE
8
Layer 1
10
236.323160
20
155.845930
11
236.249610
21
156.695105
0
LINE
8
Layer 1
10
236.249610
20
156.695105
11
236.028960
21
157.477410
0
LINE
8
Layer 1
10
236.028960
20
157.477410
11
235.280090
21
158.734450
0
LINE
8
Layer 1
10
235.280090
20
158.734450
11
234.183520
21
159.536820
0
LINE
8
Layer 1
10
234.183520
20
159.536820
11
232.846240
21
159.804280
0
LINE
8
Layer 1
10
232.846240
20
159.804280
11
231.482220
21
159.536820
0
LINE
8
Layer 1
10
231.482220
20
159.536820
11
230.385650
21
158.734450
0
LINE
8
Layer 1
10
230.385650
20
158.734450
11
229.610030
21
157.477410
0
LINE
8
Layer 1
10
229.610030
20
157.477410
11
229.342580
21
155.845930
0
LINE
8
Layer 1
10
229.342580
20
155.845930
11
229.342580
21
155.792430
0
LINE
8
Layer 1
10
229.342580
20
155.792430
11
229.610030
21
154.160950
0
LINE
8
Layer 1
10
229.610030
20
154.160950
11
230.385650
21
152.930660
0
LINE
8
Layer 1
10
230.385650
20
152.930660
11
231.482220
21
152.128290
0
LINE
8
Layer 1
10
231.482220
20
152.128290
11
232.144170
21
151.907640
0
LINE
8
Layer 1
10
232.144170
20
151.907640
11
232.846240
21
151.834090
0
LINE
8
Layer 1
10
232.846240
20
151.834090
11
233.541625
21
151.907640
0
LINE
8
Layer 1
10
233.541625
20
151.907640
11
234.183520
21
152.128290
0
LINE
8
Layer 1
10
234.183520
20
152.128290
11
234.778607
21
152.462612
0
LINE
8
Layer 1
10
234.778607
20
152.462612
11
235.280090
21
152.930660
0
LINE
8
Layer 1
10
235.280090
20
152.930660
11
235.708017
21
153.499000
0
LINE
8
Layer 1
10
235.708017
20
153.499000
11
236.028960
21
154.187700
0
LINE
8
Layer 1
10
236.028960
20
154.187700
11
236.249610
21
154.949947
0
LINE
8
Layer 1
10
236.249610
20
154.949947
11
236.323160
21
155.792430
0
LINE
8
Layer 1
10
236.323160
20
155.792430
11
240.335000
21
162.987000
0
LINE
8
Layer 1
10
257.366000
20
156.220000
11
257.366000
21
156.166500
0
LINE
8
Layer 1
10
257.366000
20
156.166500
11
257.259017
21
154.675435
0
LINE
8
Layer 1
10
257.259017
20
154.675435
11
256.938070
21
153.251240
0
LINE
8
Layer 1
10
256.938070
20
153.251240
11
256.416535
21
151.920645
0
LINE
8
Layer 1
10
256.416535
20
151.920645
11
255.654290
21
150.763900
0
LINE
8
Layer 1
10
255.654290
20
150.763900
11
254.684762
21
149.781000
0
LINE
8
Layer 1
10
254.684762
20
149.781000
11
253.487900
21
149.025440
0
LINE
8
Layer 1
10
253.487900
20
149.025440
11
252.057012
21
148.544023
0
LINE
8
Layer 1
10
252.057012
20
148.544023
11
250.385410
21
148.383550
0
LINE
8
Layer 1
10
250.385410
20
148.383550
11
248.874292
21
148.530650
0
LINE
8
Layer 1
10
248.874292
20
148.530650
11
247.496900
21
148.971950
0
LINE
8
Layer 1
10
247.496900
20
148.971950
11
246.300032
21
149.667333
0
LINE
8
Layer 1
10
246.300032
20
149.667333
11
245.277010
21
150.576680
0
LINE
8
Layer 1
10
245.277010
20
150.576680
11
244.441215
21
151.679933
0
LINE
8
Layer 1
10
244.441215
20
151.679933
11
243.806010
21
152.957030
0
LINE
8
Layer 1
10
243.806010
20
152.957030
11
243.424882
21
154.361175
0
LINE
8
Layer 1
10
243.424882
20
154.361175
11
243.297840
21
155.845550
0
LINE
8
Layer 1
10
243.297840
20
155.845550
11
243.297840
21
155.899050
0
LINE
8
Layer 1
10
243.297840
20
155.899050
11
243.438255
21
157.483720
0
LINE
8
Layer 1
10
243.438255
20
157.483720
11
243.859500
21
158.921290
0
LINE
8
Layer 1
10
243.859500
20
158.921290
11
244.528140
21
160.171648
0
LINE
8
Layer 1
10
244.528140
20
160.171648
11
245.410740
21
161.248160
0
LINE
8
Layer 1
10
245.410740
20
161.248160
11
246.513995
21
162.124073
0
LINE
8
Layer 1
10
246.513995
20
162.124073
11
247.791100
21
162.772650
0
LINE
8
Layer 1
10
247.791100
20
162.772650
11
249.235355
21
163.173833
0
LINE
8
Layer 1
10
249.235355
20
163.173833
11
250.786600
21
163.307560
0
LINE
8
Layer 1
10
250.786600
20
163.307560
11
252.611980
21
163.133715
0
LINE
8
Layer 1
10
252.611980
20
163.133715
11
254.183280
21
162.612180
0
LINE
8
Layer 1
10
254.183280
20
162.612180
11
255.520557
21
161.756323
0
LINE
8
Layer 1
10
255.520557
20
161.756323
11
256.643870
21
160.633010
0
LINE
8
Layer 1
10
256.643870
20
160.633010
11
254.317010
21
158.573600
0
LINE
8
Layer 1
10
254.317010
20
158.573600
11
253.474525
21
159.242237
0
LINE
8
Layer 1
10
253.474525
20
159.242237
11
252.658790
21
159.696910
0
LINE
8
Layer 1
10
252.658790
20
159.696910
11
251.802930
21
159.957685
0
LINE
8
Layer 1
10
251.802930
20
159.957685
11
250.840090
21
160.044610
0
LINE
8
Layer 1
10
250.840090
20
160.044610
11
249.583050
21
159.870762
0
LINE
8
Layer 1
10
249.583050
20
159.870762
11
248.539970
21
159.349220
0
LINE
8
Layer 1
10
248.539970
20
159.349220
11
247.784407
21
158.459930
0
LINE
8
Layer 1
10
247.784407
20
158.459930
11
247.336420
21
157.236320
0
LINE
8
Layer 1
10
247.336420
20
157.236320
11
257.312510
21
157.236320
0
LINE
8
Layer 1
10
257.312510
20
157.236320
11
257.339310
21
156.728160
0
LINE
8
Layer 1
10
257.339310
20
156.728160
11
257.366010
21
156.219990
0
LINE
8
Layer 1
10
257.366010
20
156.219990
11
257.366000
21
156.220000
0
LINE
8
Layer 1
10
257.366000
20
156.220000
11
253.407660
21
154.695510
0
LINE
8
Layer 1
10
253.407660
20
154.695510
11
247.282930
21
154.695510
0
LINE
8
Layer 1
10
247.282930
20
154.695510
11
247.657367
21
153.445153
0
LINE
8
Layer 1
10
247.657367
20
153.445153
11
248.299260
21
152.475620
0
LINE
8
Layer 1
10
248.299260
20
152.475620
11
249.221982
21
151.853788
0
LINE
8
Layer 1
10
249.221982
20
151.853788
11
250.385410
21
151.646510
0
LINE
8
Layer 1
10
250.385410
20
151.646510
11
251.542158
21
151.860475
0
LINE
8
Layer 1
10
251.542158
20
151.860475
11
252.444820
21
152.502370
0
LINE
8
Layer 1
10
252.444820
20
152.502370
11
253.073340
21
153.465210
0
LINE
8
Layer 1
10
253.073340
20
153.465210
11
253.407660
21
154.695510
0
LINE
8
Layer 1
10
253.407660
20
154.695510
11
257.366000
21
156.220000
0
LINE
8
Layer 1
10
45.592900
20
173.819000
11
45.592900
21
170.208350
0
LINE
8
Layer 1
10
45.592900
20
170.208350
11
41.313610
21
170.208350
0
LINE
8
Layer 1
10
41.313610
20
170.208350
11
41.313610
21
173.819000
0
LINE
8
Layer 1
10
41.313610
20
173.819000
11
45.592900
21
173.819000
0
LINE
8
Layer 1
10
45.592900
20
173.819000
11
45.485917
21
189.732600
0
LINE
8
Layer 1
10
45.485917
20
189.732600
11
45.485917
21
175.397000
0
LINE
8
Layer 1
10
45.485917
20
175.397000
11
41.420597
21
175.397000
0
LINE
8
Layer 1
10
41.420597
20
175.397000
11
41.420597
21
189.732600
0
LINE
8
Layer 1
10
41.420597
20
189.732600
11
45.592900
21
173.819000
0
LINE
8
Layer 1
10
59.841200
20
185.373000
11
59.841200
21
185.319500
0
LINE
8
Layer 1
10
59.841200
20
185.319500
11
59.740904
21
184.403462
0
LINE
8
Layer 1
10
59.740904
20
184.403462
11
59.440017
21
183.634530
0
LINE
8
Layer 1
10
59.440017
20
183.634530
11
58.985343
21
182.992640
0
LINE
8
Layer 1
10
58.985343
20
182.992640
11
58.423687
21
182.457730
0
LINE
8
Layer 1
10
58.423687
20
182.457730
11
57.032917
21
181.655360
0
LINE
8
Layer 1
10
57.032917
20
181.655360
11
55.508417
21
181.066960
0
LINE
8
Layer 1
10
55.508417
20
181.066960
11
54.385107
21
180.692520
0
LINE
8
Layer 1
10
54.385107
20
180.692520
11
53.475758
21
180.318080
0
LINE
8
Layer 1
10
53.475758
20
180.318080
11
52.833865
21
179.890150
0
LINE
8
Layer 1
10
52.833865
20
179.890150
11
52.593155
21
179.355240
0
LINE
8
Layer 1
10
52.593155
20
179.355240
11
52.593155
21
179.301740
0
LINE
8
Layer 1
10
52.593155
20
179.301740
11
52.686764
21
178.913930
0
LINE
8
Layer 1
10
52.686764
20
178.913930
11
52.967593
21
178.606360
0
LINE
8
Layer 1
10
52.967593
20
178.606360
11
53.435639
21
178.385710
0
LINE
8
Layer 1
10
53.435639
20
178.385710
11
54.090903
21
178.312160
0
LINE
8
Layer 1
10
54.090903
20
178.312160
11
54.926701
21
178.405767
0
LINE
8
Layer 1
10
54.926701
20
178.405767
11
55.882853
21
178.686590
0
LINE
8
Layer 1
10
55.882853
20
178.686590
11
57.969003
21
179.649430
0
LINE
8
Layer 1
10
57.969003
20
179.649430
11
59.520243
21
176.841150
0
LINE
8
Layer 1
10
59.520243
20
176.841150
11
58.283258
21
176.152452
0
LINE
8
Layer 1
10
58.283258
20
176.152452
11
56.925923
21
175.637600
0
LINE
8
Layer 1
10
56.925923
20
175.637600
11
55.541840
21
175.296597
0
LINE
8
Layer 1
10
55.541840
20
175.296597
11
54.171133
21
175.182930
0
LINE
8
Layer 1
10
54.171133
20
175.182930
11
53.107995
21
175.256480
0
LINE
8
Layer 1
10
53.107995
20
175.256480
11
52.111723
21
175.477130
0
LINE
8
Layer 1
10
52.111723
20
175.477130
11
51.229121
21
175.844880
0
LINE
8
Layer 1
10
51.229121
20
175.844880
11
50.453503
21
176.359730
0
LINE
8
Layer 1
10
50.453503
20
176.359730
11
49.824983
21
177.014995
0
LINE
8
Layer 1
10
49.824983
20
177.014995
11
49.330193
21
177.803990
0
LINE
8
Layer 1
10
49.330193
20
177.803990
11
49.029306
21
178.699965
0
LINE
8
Layer 1
10
49.029306
20
178.699965
11
48.929010
21
179.729670
0
LINE
8
Layer 1
10
48.929010
20
179.729670
11
48.929010
21
179.783170
0
LINE
8
Layer 1
10
48.929010
20
179.783170
11
49.022619
21
180.746012
0
LINE
8
Layer 1
10
49.022619
20
180.746012
11
49.303447
21
181.548380
0
LINE
8
Layer 1
10
49.303447
20
181.548380
11
49.758121
21
182.217017
0
LINE
8
Layer 1
10
49.758121
20
182.217017
11
50.319777
21
182.778670
0
LINE
8
Layer 1
10
50.319777
20
182.778670
11
51.683797
21
183.581040
0
LINE
8
Layer 1
10
51.683797
20
183.581040
11
53.208297
21
184.089200
0
LINE
8
Layer 1
10
53.208297
20
184.089200
11
54.331607
21
184.436900
0
LINE
8
Layer 1
10
54.331607
20
184.436900
11
55.267701
21
184.784590
0
LINE
8
Layer 1
10
55.267701
20
184.784590
11
55.936340
21
185.185770
0
LINE
8
Layer 1
10
55.936340
20
185.185770
11
56.177050
21
185.747430
0
LINE
8
Layer 1
10
56.177050
20
185.747430
11
56.177050
21
185.800930
0
LINE
8
Layer 1
10
56.177050
20
185.800930
11
56.070068
21
186.235545
0
LINE
8
Layer 1
10
56.070068
20
186.235545
11
55.749121
21
186.576550
0
LINE
8
Layer 1
10
55.749121
20
186.576550
11
55.227582
21
186.797200
0
LINE
8
Layer 1
10
55.227582
20
186.797200
11
54.465331
21
186.870750
0
LINE
8
Layer 1
10
54.465331
20
186.870750
11
53.408881
21
186.763767
0
LINE
8
Layer 1
10
53.408881
20
186.763767
11
52.272191
21
186.442820
0
LINE
8
Layer 1
10
52.272191
20
186.442820
11
51.115446
21
185.907910
0
LINE
8
Layer 1
10
51.115446
20
185.907910
11
49.945331
21
185.159040
0
LINE
8
Layer 1
10
49.945331
20
185.159040
11
48.206871
21
187.833590
0
LINE
8
Layer 1
10
48.206871
20
187.833590
11
49.684563
21
188.809807
0
LINE
8
Layer 1
10
49.684563
20
188.809807
11
51.229121
21
189.491820
0
LINE
8
Layer 1
10
51.229121
20
189.491820
11
52.813793
21
189.872940
0
LINE
8
Layer 1
10
52.813793
20
189.872940
11
54.358351
21
189.999980
0
LINE
8
Layer 1
10
54.358351
20
189.999980
11
56.497991
21
189.732530
0
LINE
8
Layer 1
10
56.497991
20
189.732530
11
57.447458
21
189.371460
0
LINE
8
Layer 1
10
57.447458
20
189.371460
11
58.263201
21
188.876670
0
LINE
8
Layer 1
10
58.263201
20
188.876670
11
58.925153
21
188.241460
0
LINE
8
Layer 1
10
58.925153
20
188.241460
11
59.413261
21
187.459150
0
LINE
8
Layer 1
10
59.413261
20
187.459150
11
59.734208
21
186.496312
0
LINE
8
Layer 1
10
59.734208
20
186.496312
11
59.841190
21
185.373000
0
LINE
8
Layer 1
10
59.841190
20
185.373000
11
59.841200
21
185.373000
0
LINE
8
Layer 1
10
91.367100
20
175.397000
11
87.328520
21
175.397000
0
LINE
8
Layer 1
10
87.328520
20
175.397000
11
84.974910
21
184.116050
0
LINE
8
Layer 1
10
84.974910
20
184.116050
11
82.246860
21
175.343510
0
LINE
8
Layer 1
10
82.246860
20
175.343510
11
78.743190
21
175.343510
0
LINE
8
Layer 1
10
78.743190
20
175.343510
11
76.041890
21
184.089300
0
LINE
8
Layer 1
10
76.041890
20
184.089300
11
73.741770
21
175.397000
0
LINE
8
Layer 1
10
73.741770
20
175.397000
11
69.622960
21
175.397000
0
LINE
8
Layer 1
10
69.622960
20
175.397000
11
74.035980
21
189.839600
0
LINE
8
Layer 1
10
74.035980
20
189.839600
11
77.673370
21
189.839600
0
LINE
8
Layer 1
10
77.673370
20
189.839600
11
80.481650
21
181.040310
0
LINE
8
Layer 1
10
80.481650
20
181.040310
11
83.236440
21
189.839600
0
LINE
8
Layer 1
10
83.236440
20
189.839600
11
86.900580
21
189.839600
0
LINE
8
Layer 1
10
86.900580
20
189.839600
11
91.367100
21
175.397000
0
LINE
8
Layer 1
10
106.166000
20
189.732000
11
106.166000
21
181.414130
0
LINE
8
Layer 1
10
106.166000
20
181.414130
11
106.070719
21
180.036733
0
LINE
8
Layer 1
10
106.070719
20
180.036733
11
105.784878
21
178.819810
0
LINE
8
Layer 1
10
105.784878
20
178.819810
11
105.308474
21
177.763363
0
LINE
8
Layer 1
10
105.308474
20
177.763363
11
104.641510
21
176.867390
0
LINE
8
Layer 1
10
104.641510
20
176.867390
11
103.765592
21
176.153617
0
LINE
8
Layer 1
10
103.765592
20
176.153617
11
102.662337
21
175.643780
0
LINE
8
Layer 1
10
102.662337
20
175.643780
11
101.331747
21
175.337877
0
LINE
8
Layer 1
10
101.331747
20
175.337877
11
99.773820
21
175.235910
0
LINE
8
Layer 1
10
99.773820
20
175.235910
11
98.088850
21
175.316145
0
LINE
8
Layer 1
10
98.088850
20
175.316145
11
96.671340
21
175.556850
0
LINE
8
Layer 1
10
96.671340
20
175.556850
11
94.210750
21
176.385970
0
LINE
8
Layer 1
10
94.210750
20
176.385970
11
95.227080
21
179.488450
0
LINE
8
Layer 1
10
95.227080
20
179.488450
11
97.099270
21
178.926790
0
LINE
8
Layer 1
10
97.099270
20
178.926790
11
99.185420
21
178.712830
0
LINE
8
Layer 1
10
99.185420
20
178.712830
11
100.522700
21
178.879990
0
LINE
8
Layer 1
10
100.522700
20
178.879990
11
101.485540
21
179.381470
0
LINE
8
Layer 1
10
101.485540
20
179.381470
11
102.067255
21
180.203895
0
LINE
8
Layer 1
10
102.067255
20
180.203895
11
102.261160
21
181.333890
0
LINE
8
Layer 1
10
102.261160
20
181.333890
11
102.261160
21
181.574600
0
LINE
8
Layer 1
10
102.261160
20
181.574600
11
100.656430
21
181.146670
0
LINE
8
Layer 1
10
100.656430
20
181.146670
11
98.757500
21
180.986200
0
LINE
8
Layer 1
10
98.757500
20
180.986200
11
97.527203
21
181.059750
0
LINE
8
Layer 1
10
97.527203
20
181.059750
11
96.403890
21
181.280400
0
LINE
8
Layer 1
10
96.403890
20
181.280400
11
95.427675
21
181.621408
0
LINE
8
Layer 1
10
95.427675
20
181.621408
11
94.585190
21
182.109510
0
LINE
8
Layer 1
10
94.585190
20
182.109510
11
93.916552
21
182.744720
0
LINE
8
Layer 1
10
93.916552
20
182.744720
11
93.408390
21
183.527030
0
LINE
8
Layer 1
10
93.408390
20
183.527030
11
93.087443
21
184.463125
0
LINE
8
Layer 1
10
93.087443
20
184.463125
11
92.980461
21
185.559690
0
LINE
8
Layer 1
10
92.980461
20
185.559690
11
92.980461
21
185.613190
0
LINE
8
Layer 1
10
92.980461
20
185.613190
11
93.074071
21
186.622835
0
LINE
8
Layer 1
10
93.074071
20
186.622835
11
93.354899
21
187.512130
0
LINE
8
Layer 1
10
93.354899
20
187.512130
11
93.822946
21
188.254315
0
LINE
8
Layer 1
10
93.822946
20
188.254315
11
94.424719
21
188.876150
0
LINE
8
Layer 1
10
94.424719
20
188.876150
11
95.146848
21
189.370940
0
LINE
8
Layer 1
10
95.146848
20
189.370940
11
95.975959
21
189.732010
0
LINE
8
Layer 1
10
95.975959
20
189.732010
11
97.901639
21
189.999460
0
LINE
8
Layer 1
10
97.901639
20
189.999460
11
99.285721
21
189.879105
0
LINE
8
Layer 1
10
99.285721
20
189.879105
11
100.442469
21
189.518040
0
LINE
8
Layer 1
10
100.442469
20
189.518040
11
101.411992
21
188.929640
0
LINE
8
Layer 1
10
101.411992
20
188.929640
11
102.234419
21
188.180760
0
LINE
8
Layer 1
10
102.234419
20
188.180760
11
102.234419
21
189.732010
0
LINE
8
Layer 1
10
102.234419
20
189.732010
11
106.166000
21
189.732000
0
LINE
8
Layer 1
10
106.166000
20
189.732000
11
102.314640
21
184.677090
0
LINE
8
Layer 1
10
102.314640
20
184.677090
11
102.093990
21
185.693417
0
LINE
8
Layer 1
10
102.093990
20
185.693417
11
101.432040
21
186.495780
0
LINE
8
Layer 1
10
101.432040
20
186.495780
11
100.429080
21
187.017322
0
LINE
8
Layer 1
10
100.429080
20
187.017322
11
99.131920
21
187.191170
0
LINE
8
Layer 1
10
99.131920
20
187.191170
11
98.235945
21
187.077500
0
LINE
8
Layer 1
10
98.235945
20
187.077500
11
97.527190
21
186.736490
0
LINE
8
Layer 1
10
97.527190
20
186.736490
11
97.065830
21
186.188210
0
LINE
8
Layer 1
10
97.065830
20
186.188210
11
96.912043
21
185.452710
0
LINE
8
Layer 1
10
96.912043
20
185.452710
11
96.912043
21
185.399210
0
LINE
8
Layer 1
10
96.912043
20
185.399210
11
97.099262
21
184.550037
0
LINE
8
Layer 1
10
97.099262
20
184.550037
11
97.660918
21
183.928200
0
LINE
8
Layer 1
10
97.660918
20
183.928200
11
98.550208
21
183.547080
0
LINE
8
Layer 1
10
98.550208
20
183.547080
11
99.720328
21
183.420040
0
LINE
8
Layer 1
10
99.720328
20
183.420040
11
101.111098
21
183.580510
0
LINE
8
Layer 1
10
101.111098
20
183.580510
11
102.314648
21
183.954950
0
LINE
8
Layer 1
10
102.314648
20
183.954950
11
106.166000
21
189.732000
0
LINE
8
Layer 1
10
117.715000
20
189.144000
11
117.715000
21
185.881050
0
LINE
8
Layer 1
10
117.715000
20
185.881050
11
116.745475
21
186.262170
0
LINE
8
Layer 1
10
116.745475
20
186.262170
11
115.709080
21
186.389210
0
LINE
8
Layer 1
10
115.709080
20
186.389210
11
115.135723
21
186.302287
0
LINE
8
Layer 1
10
115.135723
20
186.302287
11
114.726182
21
186.041518
0
LINE
8
Layer 1
10
114.726182
20
186.041518
11
114.480458
21
185.606902
0
LINE
8
Layer 1
10
114.480458
20
185.606902
11
114.398550
21
184.998440
0
LINE
8
Layer 1
10
114.398550
20
184.998440
11
114.398550
21
178.873710
0
LINE
8
Layer 1
10
114.398550
20
178.873710
11
117.768490
21
178.873710
0
LINE
8
Layer 1
10
117.768490
20
178.873710
11
117.768490
21
175.396790
0
LINE
8
Layer 1
10
117.768490
20
175.396790
11
114.398550
21
175.396790
0
LINE
8
Layer 1
10
114.398550
20
175.396790
11
114.398550
21
171.732650
0
LINE
8
Layer 1
10
114.398550
20
171.732650
11
110.333230
21
171.732650
0
LINE
8
Layer 1
10
110.333230
20
171.732650
11
110.333230
21
175.396790
0
LINE
8
Layer 1
10
110.333230
20
175.396790
11
108.621510
21
175.396790
0
LINE
8
Layer 1
10
108.621510
20
175.396790
11
108.621510
21
178.873710
0
LINE
8
Layer 1
10
108.621510
20
178.873710
11
110.333230
21
178.873710
0
LINE
8
Layer 1
10
110.333230
20
178.873710
11
110.333230
21
185.667080
0
LINE
8
Layer 1
10
110.333230
20
185.667080
11
110.406780
21
186.817140
0
LINE
8
Layer 1
10
110.406780
20
186.817140
11
110.627430
21
187.753240
0
LINE
8
Layer 1
10
110.627430
20
187.753240
11
111.001870
21
188.482053
0
LINE
8
Layer 1
10
111.001870
20
188.482053
11
111.483290
21
189.063770
0
LINE
8
Layer 1
10
111.483290
20
189.063770
11
112.091747
21
189.491695
0
LINE
8
Layer 1
10
112.091747
20
189.491695
11
112.793820
21
189.759150
0
LINE
8
Layer 1
10
112.793820
20
189.759150
11
114.505530
21
189.973120
0
LINE
8
Layer 1
10
114.505530
20
189.973120
11
116.297490
21
189.732410
0
LINE
8
Layer 1
10
116.297490
20
189.732410
11
117.715000
21
189.144000
0
LINE
8
Layer 1
10
117.715000
20
189.144000
11
117.715000
21
189.144000
0
LINE
8
Layer 1
10
133.363000
20
187.432000
11
130.982650
21
185.024900
0
LINE
8
Layer 1
10
130.982650
20
185.024900
11
129.458150
21
186.148210
0
LINE
8
Layer 1
10
129.458150
20
186.148210
11
128.642415
21
186.449103
0
LINE
8
Layer 1
10
128.642415
20
186.449103
11
127.692950
21
186.549400
0
LINE
8
Layer 1
10
127.692950
20
186.549400
11
126.903958
21
186.475848
0
LINE
8
Layer 1
10
126.903958
20
186.475848
11
126.195200
21
186.255190
0
LINE
8
Layer 1
10
126.195200
20
186.255190
11
125.045140
21
185.399340
0
LINE
8
Layer 1
10
125.045140
20
185.399340
11
124.296260
21
184.142300
0
LINE
8
Layer 1
10
124.296260
20
184.142300
11
124.055550
21
182.591050
0
LINE
8
Layer 1
10
124.055550
20
182.591050
11
124.055550
21
182.537550
0
LINE
8
Layer 1
10
124.055550
20
182.537550
11
124.296260
21
181.039800
0
LINE
8
Layer 1
10
124.296260
20
181.039800
11
125.018390
21
179.782760
0
LINE
8
Layer 1
10
125.018390
20
179.782760
11
126.114960
21
178.953650
0
LINE
8
Layer 1
10
126.114960
20
178.953650
11
126.790283
21
178.712938
0
LINE
8
Layer 1
10
126.790283
20
178.712938
11
127.532470
21
178.632700
0
LINE
8
Layer 1
10
127.532470
20
178.632700
11
128.535430
21
178.739683
0
LINE
8
Layer 1
10
128.535430
20
178.739683
11
129.351170
21
179.060630
0
LINE
8
Layer 1
10
129.351170
20
179.060630
11
130.795430
21
180.210690
0
LINE
8
Layer 1
10
130.795430
20
180.210690
11
133.282770
21
177.536140
0
LINE
8
Layer 1
10
133.282770
20
177.536140
11
132.186203
21
176.533178
0
LINE
8
Layer 1
10
132.186203
20
176.533178
11
130.929160
21
175.770930
0
LINE
8
Layer 1
10
130.929160
20
175.770930
11
129.418035
21
175.289513
0
LINE
8
Layer 1
10
129.418035
20
175.289513
11
127.559220
21
175.129040
0
LINE
8
Layer 1
10
127.559220
20
175.129040
11
125.967863
21
175.276140
0
LINE
8
Layer 1
10
125.967863
20
175.276140
11
124.510230
21
175.717440
0
LINE
8
Layer 1
10
124.510230
20
175.717440
11
123.239813
21
176.412823
0
LINE
8
Layer 1
10
123.239813
20
176.412823
11
122.156620
21
177.322170
0
LINE
8
Layer 1
10
122.156620
20
177.322170
11
121.274015
21
178.425423
0
LINE
8
Layer 1
10
121.274015
20
178.425423
11
120.605380
21
179.702520
0
LINE
8
Layer 1
10
120.605380
20
179.702520
11
120.184135
21
181.106665
0
LINE
8
Layer 1
10
120.184135
20
181.106665
11
120.043720
21
182.591040
0
LINE
8
Layer 1
10
120.043720
20
182.591040
11
120.043720
21
182.644540
0
LINE
8
Layer 1
10
120.043720
20
182.644540
11
120.184135
21
184.128913
0
LINE
8
Layer 1
10
120.184135
20
184.128913
11
120.605380
21
185.533050
0
LINE
8
Layer 1
10
120.605380
20
185.533050
11
121.274015
21
186.790093
0
LINE
8
Layer 1
10
121.274015
20
186.790093
11
122.156620
21
187.886660
0
LINE
8
Layer 1
10
122.156620
20
187.886660
11
123.239813
21
188.775953
0
LINE
8
Layer 1
10
123.239813
20
188.775953
11
124.510230
21
189.464650
0
LINE
8
Layer 1
10
124.510230
20
189.464650
11
125.954490
21
189.905950
0
LINE
8
Layer 1
10
125.954490
20
189.905950
11
127.505730
21
190.053050
0
LINE
8
Layer 1
10
127.505730
20
190.053050
11
129.444780
21
189.872518
0
LINE
8
Layer 1
10
129.444780
20
189.872518
11
130.982650
21
189.330920
0
LINE
8
Layer 1
10
130.982650
20
189.330920
11
132.246378
21
188.481753
0
LINE
8
Layer 1
10
132.246378
20
188.481753
11
133.363000
21
187.431990
0
LINE
8
Layer 1
10
133.363000
20
187.431990
11
133.363000
21
187.432000
0
LINE
8
Layer 1
10
149.124000
20
189.732000
11
149.124000
21
180.451290
0
LINE
8
Layer 1
10
149.124000
20
180.451290
11
149.043763
21
179.274484
0
LINE
8
Layer 1
10
149.043763
20
179.274484
11
148.803053
21
178.231408
0
LINE
8
Layer 1
10
148.803053
20
178.231408
11
148.401868
21
177.322059
0
LINE
8
Layer 1
10
148.401868
20
177.322059
11
147.840210
21
176.546440
0
LINE
8
Layer 1
10
147.840210
20
176.546440
11
147.144826
21
175.926279
0
LINE
8
Layer 1
10
147.144826
20
175.926279
11
146.315715
21
175.483307
0
LINE
8
Layer 1
10
146.315715
20
175.483307
11
145.352876
21
175.217524
0
LINE
8
Layer 1
10
145.352876
20
175.217524
11
144.256310
21
175.128930
0
LINE
8
Layer 1
10
144.256310
20
175.128930
11
142.865540
21
175.316140
0
LINE
8
Layer 1
10
142.865540
20
175.316140
11
141.742220
21
175.824310
0
LINE
8
Layer 1
10
141.742220
20
175.824310
11
140.806130
21
176.573190
0
LINE
8
Layer 1
10
140.806130
20
176.573190
11
140.057250
21
177.429040
0
LINE
8
Layer 1
10
140.057250
20
177.429040
11
140.057250
21
170.207740
0
LINE
8
Layer 1
10
140.057250
20
170.207740
11
135.991930
21
170.207740
0
LINE
8
Layer 1
10
135.991930
20
170.207740
11
135.991930
21
189.732040
0
LINE
8
Layer 1
10
135.991930
20
189.732040
11
140.057250
21
189.732040
0
LINE
8
Layer 1
10
140.057250
20
189.732040
11
140.057250
21
181.735120
0
LINE
8
Layer 1
10
140.057250
20
181.735120
11
140.224410
21
180.471392
0
LINE
8
Layer 1
10
140.224410
20
180.471392
11
140.725890
21
179.568730
0
LINE
8
Layer 1
10
140.725890
20
179.568730
11
141.541632
21
179.007070
0
LINE
8
Layer 1
10
141.541632
20
179.007070
11
142.598080
21
178.819850
0
LINE
8
Layer 1
10
142.598080
20
178.819850
11
143.641160
21
179.007070
0
LINE
8
Layer 1
10
143.641160
20
179.007070
11
144.416780
21
179.568730
0
LINE
8
Layer 1
10
144.416780
20
179.568730
11
144.898197
21
180.471392
0
LINE
8
Layer 1
10
144.898197
20
180.471392
11
145.058670
21
181.735120
0
LINE
8
Layer 1
10
145.058670
20
181.735120
11
145.058670
21
189.732040
0
LINE
8
Layer 1
10
145.058670
20
189.732040
11
149.124000
21
189.732000
0
LINE
8
Layer 1
10
157.015000
20
173.819000
11
157.015000
21
170.208350
0
LINE
8
Layer 1
10
157.015000
20
170.208350
11
152.736000
21
170.208350
0
LINE
8
Layer 1
10
152.736000
20
170.208350
11
152.736000
21
173.819000
0
LINE
8
Layer 1
10
152.736000
20
173.819000
11
157.015000
21
173.819000
0
LINE
8
Layer 1
10
157.015000
20
173.819000
11
156.908020
21
189.732600
0
LINE
8
Layer 1
10
156.908020
20
189.732600
11
156.908020
21
175.397000
0
LINE
8
Layer 1
10
156.908020
20
175.397000
11
152.842700
21
175.397000
0
LINE
8
Layer 1
10
152.842700
20
175.397000
11
152.842700
21
189.732600
0
LINE
8
Layer 1
10
152.842700
20
189.732600
11
157.015000
21
173.819000
0
LINE
8
Layer 1
10
173.885000
20
189.732000
11
173.885000
21
180.451290
0
LINE
8
Layer 1
10
173.885000
20
180.451290
11
173.804764
21
179.274484
0
LINE
8
Layer 1
10
173.804764
20
179.274484
11
173.564055
21
178.231408
0
LINE
8
Layer 1
10
173.564055
20
178.231408
11
173.162874
21
177.322059
0
LINE
8
Layer 1
10
173.162874
20
177.322059
11
172.601220
21
176.546440
0
LINE
8
Layer 1
10
172.601220
20
176.546440
11
171.905836
21
175.926279
0
LINE
8
Layer 1
10
171.905836
20
175.926279
11
171.076722
21
175.483307
0
LINE
8
Layer 1
10
171.076722
20
175.483307
11
170.113881
21
175.217524
0
LINE
8
Layer 1
10
170.113881
20
175.217524
11
169.017310
21
175.128930
0
LINE
8
Layer 1
10
169.017310
20
175.128930
11
167.626550
21
175.316140
0
LINE
8
Layer 1
10
167.626550
20
175.316140
11
166.503230
21
175.824310
0
LINE
8
Layer 1
10
166.503230
20
175.824310
11
165.567140
21
176.573190
0
LINE
8
Layer 1
10
165.567140
20
176.573190
11
164.818260
21
177.429040
0
LINE
8
Layer 1
10
164.818260
20
177.429040
11
164.818260
21
175.396380
0
LINE
8
Layer 1
10
164.818260
20
175.396380
11
160.752940
21
175.396380
0
LINE
8
Layer 1
10
160.752940
20
175.396380
11
160.752940
21
189.731980
0
LINE
8
Layer 1
10
160.752940
20
189.731980
11
164.818260
21
189.731980
0
LINE
8
Layer 1
10
164.818260
20
189.731980
11
164.818260
21
181.735060
0
LINE
8
Layer 1
10
164.818260
20
181.735060
11
164.985420
21
180.471333
0
LINE
8
Layer 1
10
164.985420
20
180.471333
11
165.486900
21
179.568670
0
LINE
8
Layer 1
10
165.486900
20
179.568670
11
166.302642
21
179.007010
0
LINE
8
Layer 1
10
166.302642
20
179.007010
11
167.359090
21
178.819790
0
LINE
8
Layer 1
10
167.359090
20
178.819790
11
168.402165
21
179.007010
0
LINE
8
Layer 1
10
168.402165
20
179.007010
11
169.177790
21
179.568670
0
LINE
8
Layer 1
10
169.177790
20
179.568670
11
169.659207
21
180.471333
0
LINE
8
Layer 1
10
169.659207
20
180.471333
11
169.819680
21
181.735060
0
LINE
8
Layer 1
10
169.819680
20
181.735060
11
169.819680
21
189.731980
0
LINE
8
Layer 1
10
169.819680
20
189.731980
11
173.885000
21
189.732000
0
LINE
8
Layer 1
10
191.832000
20
186.496000
11
191.832000
21
175.396600
0
LINE
8
Layer 1
10
191.832000
20
175.396600
11
187.766670
21
175.396600
0
LINE
8
Layer 1
10
187.766670
20
175.396600
11
187.766670
21
177.268790
0
LINE
8
Layer 1
10
187.766670
20
177.268790
11
186.877383
21
176.432990
0
LINE
8
Layer 1
10
186.877383
20
176.432990
11
185.867740
21
175.744290
0
LINE
8
Layer 1
10
185.867740
20
175.744290
11
184.650817
21
175.282935
0
LINE
8
Layer 1
10
184.650817
20
175.282935
11
183.139690
21
175.129150
0
LINE
8
Layer 1
10
183.139690
20
175.129150
11
181.929458
21
175.242818
0
LINE
8
Layer 1
10
181.929458
20
175.242818
11
180.759340
21
175.583820
0
LINE
8
Layer 1
10
180.759340
20
175.583820
11
179.676145
21
176.118732
0
LINE
8
Layer 1
10
179.676145
20
176.118732
11
178.726680
21
176.867610
0
LINE
8
Layer 1
10
178.726680
20
176.867610
11
177.930995
21
177.823757
0
LINE
8
Layer 1
10
177.930995
20
177.823757
11
177.309160
21
178.980500
0
LINE
8
Layer 1
10
177.309160
20
178.980500
11
176.907978
21
180.304408
0
LINE
8
Layer 1
10
176.907978
20
180.304408
11
176.774250
21
181.815530
0
LINE
8
Layer 1
10
176.774250
20
181.815530
11
176.774250
21
181.869030
0
LINE
8
Layer 1
10
176.774250
20
181.869030
11
176.901293
21
183.386845
0
LINE
8
Layer 1
10
176.901293
20
183.386845
11
177.282420
21
184.730810
0
LINE
8
Layer 1
10
177.282420
20
184.730810
11
177.904253
21
185.867493
0
LINE
8
Layer 1
10
177.904253
20
185.867493
11
178.699930
21
186.816960
0
LINE
8
Layer 1
10
178.699930
20
186.816960
11
179.649400
21
187.572523
0
LINE
8
Layer 1
10
179.649400
20
187.572523
11
180.732590
21
188.127490
0
LINE
8
Layer 1
10
180.732590
20
188.127490
11
181.909395
21
188.448438
0
LINE
8
Layer 1
10
181.909395
20
188.448438
11
183.139690
21
188.555420
0
LINE
8
Layer 1
10
183.139690
20
188.555420
11
184.630755
21
188.401633
0
LINE
8
Layer 1
10
184.630755
20
188.401633
11
185.840990
21
187.940270
0
LINE
8
Layer 1
10
185.840990
20
187.940270
11
186.870700
21
187.204773
0
LINE
8
Layer 1
10
186.870700
20
187.204773
11
187.820170
21
186.228560
0
LINE
8
Layer 1
10
187.820170
20
186.228560
11
187.820170
21
186.923940
0
LINE
8
Layer 1
10
187.820170
20
186.923940
11
187.566085
21
188.615597
0
LINE
8
Layer 1
10
187.566085
20
188.615597
11
187.248479
21
189.285909
0
LINE
8
Layer 1
10
187.248479
20
189.285909
11
186.803830
21
189.839210
0
LINE
8
Layer 1
10
186.803830
20
189.839210
11
186.240504
21
190.272151
0
LINE
8
Layer 1
10
186.240504
20
190.272151
11
185.540108
21
190.581395
0
LINE
8
Layer 1
10
185.540108
20
190.581395
11
183.728100
21
190.828790
0
LINE
8
Layer 1
10
183.728100
20
190.828790
11
182.357390
21
190.741867
0
LINE
8
Layer 1
10
182.357390
20
190.741867
11
181.133780
21
190.481100
0
LINE
8
Layer 1
10
181.133780
20
190.481100
11
178.887150
21
189.518260
0
LINE
8
Layer 1
10
178.887150
20
189.518260
11
177.496380
21
192.567250
0
LINE
8
Layer 1
10
177.496380
20
192.567250
11
178.920585
21
193.202457
0
LINE
8
Layer 1
10
178.920585
20
193.202457
11
180.465140
21
193.663820
0
LINE
8
Layer 1
10
180.465140
20
193.663820
11
182.109990
21
193.964713
0
LINE
8
Layer 1
10
182.109990
20
193.964713
11
183.835080
21
194.065010
0
LINE
8
Layer 1
10
183.835080
20
194.065010
11
185.713953
21
193.958028
0
LINE
8
Layer 1
10
185.713953
20
193.958028
11
187.338750
21
193.637080
0
LINE
8
Layer 1
10
187.338750
20
193.637080
11
188.709458
21
193.088795
0
LINE
8
Layer 1
10
188.709458
20
193.088795
11
189.826080
21
192.299800
0
LINE
8
Layer 1
10
189.826080
20
192.299800
11
190.708683
21
191.256723
0
LINE
8
Layer 1
10
190.708683
20
191.256723
11
191.323830
21
189.946190
0
LINE
8
Layer 1
10
191.323830
20
189.946190
11
191.704958
21
188.374890
0
LINE
8
Layer 1
10
191.704958
20
188.374890
11
191.832000
21
186.496010
0
LINE
8
Layer 1
10
191.832000
20
186.496010
11
191.832000
21
186.496000
0
LINE
8
Layer 1
10
191.832000
20
186.496000
11
187.820170
21
181.869020
0
LINE
8
Layer 1
10
187.820170
20
181.869020
11
187.552710
21
183.206300
0
LINE
8
Layer 1
10
187.552710
20
183.206300
11
186.803830
21
184.276120
0
LINE
8
Layer 1
10
186.803830
20
184.276120
11
185.707270
21
184.944760
0
LINE
8
Layer 1
10
185.707270
20
184.944760
11
184.316500
21
185.185470
0
LINE
8
Layer 1
10
184.316500
20
185.185470
11
182.945790
21
184.958133
0
LINE
8
Layer 1
10
182.945790
20
184.958133
11
181.829160
21
184.276120
0
LINE
8
Layer 1
10
181.829160
20
184.276120
11
181.086975
21
183.219675
0
LINE
8
Layer 1
10
181.086975
20
183.219675
11
180.839580
21
181.869020
0
LINE
8
Layer 1
10
180.839580
20
181.869020
11
180.839580
21
181.815520
0
LINE
8
Layer 1
10
180.839580
20
181.815520
11
181.107030
21
180.478250
0
LINE
8
Layer 1
10
181.107030
20
180.478250
11
181.829160
21
179.435170
0
LINE
8
Layer 1
10
181.829160
20
179.435170
11
182.925730
21
178.739780
0
LINE
8
Layer 1
10
182.925730
20
178.739780
11
184.316500
21
178.499070
0
LINE
8
Layer 1
10
184.316500
20
178.499070
11
185.707270
21
178.739780
0
LINE
8
Layer 1
10
185.707270
20
178.739780
11
186.803830
21
179.435170
0
LINE
8
Layer 1
10
186.803830
20
179.435170
11
187.552710
21
180.478250
0
LINE
8
Layer 1
10
187.552710
20
180.478250
11
187.820170
21
181.815520
0
LINE
8
Layer 1
10
187.820170
20
181.815520
11
191.832000
21
186.496000
0
LINE
8
Layer 1
10
217.175000
20
175.397000
11
212.949210
21
175.397000
0
LINE
8
Layer 1
10
212.949210
20
175.397000
11
209.819980
21
185.159130
0
LINE
8
Layer 1
10
209.819980
20
185.159130
11
206.557020
21
175.397000
0
LINE
8
Layer 1
10
206.557020
20
175.397000
11
202.250990
21
175.397000
0
LINE
8
Layer 1
10
202.250990
20
175.397000
11
207.867550
21
189.786100
0
LINE
8
Layer 1
10
207.867550
20
189.786100
11
207.279150
21
190.508230
0
LINE
8
Layer 1
10
207.279150
20
190.508230
11
206.450040
21
190.722190
0
LINE
8
Layer 1
10
206.450040
20
190.722190
11
205.567440
21
190.561720
0
LINE
8
Layer 1
10
205.567440
20
190.561720
11
204.711580
21
190.160530
0
LINE
8
Layer 1
10
204.711580
20
190.160530
11
203.347560
21
193.102550
0
LINE
8
Layer 1
10
203.347560
20
193.102550
11
204.979030
21
193.824680
0
LINE
8
Layer 1
10
204.979030
20
193.824680
11
205.901752
21
194.025267
0
LINE
8
Layer 1
10
205.901752
20
194.025267
11
206.958200
21
194.092130
0
LINE
8
Layer 1
10
206.958200
20
194.092130
11
208.562940
21
193.878170
0
LINE
8
Layer 1
10
208.562940
20
193.878170
11
209.218202
21
193.597337
0
LINE
8
Layer 1
10
209.218202
20
193.597337
11
209.793230
21
193.182780
0
LINE
8
Layer 1
10
209.793230
20
193.182780
11
210.809560
21
191.925740
0
LINE
8
Layer 1
10
210.809560
20
191.925740
11
211.665420
21
190.080300
0
LINE
8
Layer 1
10
211.665420
20
190.080300
11
217.175000
21
175.397000
0
LINE
8
Layer 1
10
234.389000
20
182.591000
11
234.389000
21
182.537500
0
LINE
8
Layer 1
10
234.389000
20
182.537500
11
234.241900
21
181.039750
0
LINE
8
Layer 1
10
234.241900
20
181.039750
11
233.800600
21
179.648980
0
LINE
8
Layer 1
10
233.800600
20
179.648980
11
233.098530
21
178.378570
0
LINE
8
Layer 1
10
233.098530
20
178.378570
11
232.169120
21
177.295380
0
LINE
8
Layer 1
10
232.169120
20
177.295380
11
231.052492
21
176.392712
0
LINE
8
Layer 1
10
231.052492
20
176.392712
11
229.735270
21
175.717390
0
LINE
8
Layer 1
10
229.735270
20
175.717390
11
228.257582
21
175.276090
0
LINE
8
Layer 1
10
228.257582
20
175.276090
11
226.659540
21
175.128990
0
LINE
8
Layer 1
10
226.659540
20
175.128990
11
225.041432
21
175.276090
0
LINE
8
Layer 1
10
225.041432
20
175.276090
11
223.557050
21
175.717390
0
LINE
8
Layer 1
10
223.557050
20
175.717390
11
222.233148
21
176.412773
0
LINE
8
Layer 1
10
222.233148
20
176.412773
11
221.096460
21
177.322120
0
LINE
8
Layer 1
10
221.096460
20
177.322120
11
220.167050
21
178.425372
0
LINE
8
Layer 1
10
220.167050
20
178.425372
11
219.464980
21
179.702470
0
LINE
8
Layer 1
10
219.464980
20
179.702470
11
219.023680
21
181.093240
0
LINE
8
Layer 1
10
219.023680
20
181.093240
11
218.876580
21
182.590990
0
LINE
8
Layer 1
10
218.876580
20
182.590990
11
218.876580
21
182.644490
0
LINE
8
Layer 1
10
218.876580
20
182.644490
11
219.023680
21
184.148925
0
LINE
8
Layer 1
10
219.023680
20
184.148925
11
219.464980
21
185.559750
0
LINE
8
Layer 1
10
219.464980
20
185.559750
11
220.160365
21
186.816792
0
LINE
8
Layer 1
10
220.160365
20
186.816792
11
221.069720
21
187.913360
0
LINE
8
Layer 1
10
221.069720
20
187.913360
11
222.206402
21
188.802647
0
LINE
8
Layer 1
10
222.206402
20
188.802647
11
223.530310
21
189.491350
0
LINE
8
Layer 1
10
223.530310
20
189.491350
11
225.007997
21
189.912587
0
LINE
8
Layer 1
10
225.007997
20
189.912587
11
226.606040
21
190.053000
0
LINE
8
Layer 1
10
226.606040
20
190.053000
11
228.224147
21
189.905900
0
LINE
8
Layer 1
10
228.224147
20
189.905900
11
229.708530
21
189.464600
0
LINE
8
Layer 1
10
229.708530
20
189.464600
11
231.032432
21
188.769217
0
LINE
8
Layer 1
10
231.032432
20
188.769217
11
232.169120
21
187.859870
0
LINE
8
Layer 1
10
232.169120
20
187.859870
11
233.098530
21
186.763302
0
LINE
8
Layer 1
10
233.098530
20
186.763302
11
233.800600
21
185.506260
0
LINE
8
Layer 1
10
233.800600
20
185.506260
11
234.241900
21
184.095432
0
LINE
8
Layer 1
10
234.241900
20
184.095432
11
234.389000
21
182.590990
0
LINE
8
Layer 1
10
234.389000
20
182.590990
11
234.389000
21
182.591000
0
LINE
8
Layer 1
10
234.389000
20
182.591000
11
230.377170
21
182.644500
0
LINE
8
Layer 1
10
230.377170
20
182.644500
11
230.109710
21
184.168990
0
LINE
8
Layer 1
10
230.109710
20
184.168990
11
229.387580
21
185.399290
0
LINE
8
Layer 1
10
229.387580
20
185.399290
11
228.210780
21
186.255140
0
LINE
8
Layer 1
10
228.210780
20
186.255140
11
227.488650
21
186.475797
0
LINE
8
Layer 1
10
227.488650
20
186.475797
11
226.659540
21
186.549350
0
LINE
8
Layer 1
10
226.659540
20
186.549350
11
225.843797
21
186.469112
0
LINE
8
Layer 1
10
225.843797
20
186.469112
11
225.108290
21
186.228400
0
LINE
8
Layer 1
10
225.108290
20
186.228400
11
223.931490
21
185.372540
0
LINE
8
Layer 1
10
223.931490
20
185.372540
11
223.155870
21
184.115500
0
LINE
8
Layer 1
10
223.155870
20
184.115500
11
222.888410
21
182.591000
0
LINE
8
Layer 1
10
222.888410
20
182.591000
11
222.888410
21
182.537500
0
LINE
8
Layer 1
10
222.888410
20
182.537500
11
223.129120
21
181.039750
0
LINE
8
Layer 1
10
223.129120
20
181.039750
11
223.878000
21
179.782710
0
LINE
8
Layer 1
10
223.878000
20
179.782710
11
224.406225
21
179.307977
0
LINE
8
Layer 1
10
224.406225
20
179.307977
11
225.028060
21
178.953600
0
LINE
8
Layer 1
10
225.028060
20
178.953600
11
225.770245
21
178.712887
0
LINE
8
Layer 1
10
225.770245
20
178.712887
11
226.606040
21
178.632650
0
LINE
8
Layer 1
10
226.606040
20
178.632650
11
227.401725
21
178.712887
0
LINE
8
Layer 1
10
227.401725
20
178.712887
11
228.130540
21
178.953600
0
LINE
8
Layer 1
10
228.130540
20
178.953600
11
228.779122
21
179.334725
0
LINE
8
Layer 1
10
228.779122
20
179.334725
11
229.334090
21
179.836200
0
LINE
8
Layer 1
10
229.334090
20
179.836200
11
229.782080
21
180.417915
0
LINE
8
Layer 1
10
229.782080
20
180.417915
11
230.109710
21
181.093240
0
LINE
8
Layer 1
10
230.109710
20
181.093240
11
230.377170
21
182.590990
0
LINE
8
Layer 1
10
230.377170
20
182.590990
11
234.389000
21
182.591000
0
LINE
8
Layer 1
10
250.358000
20
189.732000
11
250.358000
21
175.396400
0
LINE
8
Layer 1
10
250.358000
20
175.396400
11
246.292680
21
175.396400
0
LINE
8
Layer 1
10
246.292680
20
175.396400
11
246.292680
21
183.393320
0
LINE
8
Layer 1
10
246.292680
20
183.393320
11
246.118835
21
184.663735
0
LINE
8
Layer 1
10
246.118835
20
184.663735
11
245.597300
21
185.586460
0
LINE
8
Layer 1
10
245.597300
20
185.586460
11
244.801618
21
186.128057
0
LINE
8
Layer 1
10
244.801618
20
186.128057
11
243.751850
21
186.308590
0
LINE
8
Layer 1
10
243.751850
20
186.308590
11
242.708777
21
186.128057
0
LINE
8
Layer 1
10
242.708777
20
186.128057
11
241.933160
21
185.586460
0
LINE
8
Layer 1
10
241.933160
20
185.586460
11
241.451735
21
184.663735
0
LINE
8
Layer 1
10
241.451735
20
184.663735
11
241.291260
21
183.393320
0
LINE
8
Layer 1
10
241.291260
20
183.393320
11
241.291260
21
175.396400
0
LINE
8
Layer 1
10
241.291260
20
175.396400
11
237.225940
21
175.396400
0
LINE
8
Layer 1
10
237.225940
20
175.396400
11
237.225940
21
184.677110
0
LINE
8
Layer 1
10
237.225940
20
184.677110
11
237.304505
21
185.853912
0
LINE
8
Layer 1
10
237.304505
20
185.853912
11
237.540200
21
186.896987
0
LINE
8
Layer 1
10
237.540200
20
186.896987
11
237.933025
21
187.806337
0
LINE
8
Layer 1
10
237.933025
20
187.806337
11
238.482980
21
188.581960
0
LINE
8
Layer 1
10
238.482980
20
188.581960
11
239.190067
21
189.202121
0
LINE
8
Layer 1
10
239.190067
20
189.202121
11
240.027538
21
189.645093
0
LINE
8
Layer 1
10
240.027538
20
189.645093
11
240.995392
21
189.910876
0
LINE
8
Layer 1
10
240.995392
20
189.910876
11
242.093630
21
189.999470
0
LINE
8
Layer 1
10
242.093630
20
189.999470
11
243.484400
21
189.812250
0
LINE
8
Layer 1
10
243.484400
20
189.812250
11
244.607710
21
189.304090
0
LINE
8
Layer 1
10
244.607710
20
189.304090
11
245.517060
21
188.581960
0
LINE
8
Layer 1
10
245.517060
20
188.581960
11
246.292680
21
187.699350
0
LINE
8
Layer 1
10
246.292680
20
187.699350
11
246.292680
21
189.732020
0
LINE
8
Layer 1
10
246.292680
20
189.732020
11
250.358000
21
189.732000
0
LINE
8
Layer 1
10
254.130000
20
171.010000
11
254.130000
21
171.544910
0
LINE
8
Layer 1
10
254.130000
20
171.544910
11
255.387040
21
183.366410
0
LINE
8
Layer 1
10
255.387040
20
183.366410
11
257.633660
21
183.366410
0
LINE
8
Layer 1
10
257.633660
20
183.366410
11
258.890700
21
171.544910
0
LINE
8
Layer 1
10
258.890700
20
171.544910
11
258.890700
21
171.010000
0
LINE
8
Layer 1
10
258.890700
20
171.010000
11
254.130000
21
171.010000
0
LINE
8
Layer 1
10
254.130000
20
171.010000
11
258.676740
21
189.731900
0
LINE
8
Layer 1
10
258.676740
20
189.731900
11
258.676740
21
185.452610
0
LINE
8
Layer 1
10
258.676740
20
185.452610
11
254.343960
21
185.452610
0
LINE
8
Layer 1
10
254.343960
20
185.452610
11
254.343960
21
189.731900
0
LINE
8
Layer 1
10
254.343960
20
189.731900
11
254.130000
21
171.010000
0
LINE
8
Layer 1
10
59.864100
20
101.401000
11
59.864100
21
101.325000
0
LINE
8
Layer 1
10
59.864100
20
101.325000
11
59.721509
21
99.699460
0
LINE
8
Layer 1
10
59.721509
20
99.699460
11
59.293736
21
98.321080
0
LINE
8
Layer 1
10
59.293736
20
98.321080
11
58.618806
21
97.151835
0
LINE
8
Layer 1
10
58.618806
20
97.151835
11
57.658696
21
96.153700
0
LINE
8
Layer 1
10
57.658696
20
96.153700
11
56.460931
21
95.279141
0
LINE
8
Layer 1
10
56.460931
20
95.279141
11
54.996996
21
94.556680
0
LINE
8
Layer 1
10
54.996996
20
94.556680
11
51.422716
21
93.339900
0
LINE
8
Layer 1
10
51.422716
20
93.339900
11
48.570896
21
92.541390
0
LINE
8
Layer 1
10
48.570896
20
92.541390
11
46.821776
21
91.818928
0
LINE
8
Layer 1
10
46.821776
20
91.818928
11
46.270424
21
91.419674
0
LINE
8
Layer 1
10
46.270424
20
91.419674
11
45.909193
21
90.982394
0
LINE
8
Layer 1
10
45.909193
20
90.982394
11
45.681048
21
89.841664
0
LINE
8
Layer 1
10
45.681048
20
89.841664
11
45.681048
21
89.765614
0
LINE
8
Layer 1
10
45.681048
20
89.765614
11
45.890182
21
88.862536
0
LINE
8
Layer 1
10
45.890182
20
88.862536
11
46.517582
21
88.130564
0
LINE
8
Layer 1
10
46.517582
20
88.130564
11
47.601274
21
87.617236
0
LINE
8
Layer 1
10
47.601274
20
87.617236
11
49.103232
21
87.446127
0
LINE
8
Layer 1
10
49.103232
20
87.446127
11
50.814325
21
87.626742
0
LINE
8
Layer 1
10
50.814325
20
87.626742
11
52.525422
21
88.168588
0
LINE
8
Layer 1
10
52.525422
20
88.168588
11
54.255527
21
88.986112
0
LINE
8
Layer 1
10
54.255527
20
88.986112
11
56.023662
21
90.069808
0
LINE
8
Layer 1
10
56.023662
20
90.069808
11
59.065602
21
85.658988
0
LINE
8
Layer 1
10
59.065602
20
85.658988
11
56.907725
21
84.214068
0
LINE
8
Layer 1
10
56.907725
20
84.214068
11
54.540712
21
83.149388
0
LINE
8
Layer 1
10
54.540712
20
83.149388
11
51.983575
21
82.493469
0
LINE
8
Layer 1
10
51.983575
20
82.493469
11
49.179282
21
82.274829
0
LINE
8
Layer 1
10
49.179282
20
82.274829
11
47.211525
21
82.417420
0
LINE
8
Layer 1
10
47.211525
20
82.417420
11
45.414872
21
82.845194
0
LINE
8
Layer 1
10
45.414872
20
82.845194
11
43.817855
21
83.539136
0
LINE
8
Layer 1
10
43.817855
20
83.539136
11
42.448982
21
84.480234
0
LINE
8
Layer 1
10
42.448982
20
84.480234
11
41.365287
21
85.649481
0
LINE
8
Layer 1
10
41.365287
20
85.649481
11
40.547762
21
87.027864
0
LINE
8
Layer 1
10
40.547762
20
87.027864
11
40.034434
21
88.567847
0
LINE
8
Layer 1
10
40.034434
20
88.567847
11
39.863325
21
90.297954
0
LINE
8
Layer 1
10
39.863325
20
90.297954
11
39.863325
21
90.374004
0
LINE
8
Layer 1
10
39.863325
20
90.374004
11
40.015422
21
92.189661
0
LINE
8
Layer 1
10
40.015422
20
92.189661
11
40.471714
21
93.682114
0
LINE
8
Layer 1
10
40.471714
20
93.682114
11
41.241705
21
94.908396
0
LINE
8
Layer 1
10
41.241705
20
94.908396
11
42.258854
21
95.925544
0
LINE
8
Layer 1
10
42.258854
20
95.925544
11
43.523162
21
96.733561
0
LINE
8
Layer 1
10
43.523162
20
96.733561
11
45.034624
21
97.408494
0
LINE
8
Layer 1
10
45.034624
20
97.408494
11
48.684954
21
98.511204
0
LINE
8
Layer 1
10
48.684954
20
98.511204
11
51.384674
21
99.309714
0
LINE
8
Layer 1
10
51.384674
20
99.309714
11
53.019724
21
100.070201
0
LINE
8
Layer 1
10
53.019724
20
100.070201
11
53.523546
21
100.469453
0
LINE
8
Layer 1
10
53.523546
20
100.469453
11
53.818234
21
100.906731
0
LINE
8
Layer 1
10
53.818234
20
100.906731
11
54.046380
21
101.895361
0
LINE
8
Layer 1
10
54.046380
20
101.895361
11
54.046380
21
101.971461
0
LINE
8
Layer 1
10
54.046380
20
101.971461
11
53.789715
21
103.026638
0
LINE
8
Layer 1
10
53.789715
20
103.026638
11
53.019720
21
103.834651
0
LINE
8
Layer 1
10
53.019720
20
103.834651
11
51.821954
21
104.319466
0
LINE
8
Layer 1
10
51.821954
20
104.319466
11
50.205920
21
104.481071
0
LINE
8
Layer 1
10
50.205920
20
104.481071
11
48.010015
21
104.262431
0
LINE
8
Layer 1
10
48.010015
20
104.262431
11
45.985220
21
103.606511
0
LINE
8
Layer 1
10
45.985220
20
103.606511
11
44.103015
21
102.579853
0
LINE
8
Layer 1
10
44.103015
20
102.579853
11
42.258840
21
101.249001
0
LINE
8
Layer 1
10
42.258840
20
101.249001
11
38.798630
21
105.393651
0
LINE
8
Layer 1
10
38.798630
20
105.393651
11
40.029666
21
106.408422
0
LINE
8
Layer 1
10
40.029666
20
106.408422
11
41.327245
21
107.285356
0
LINE
8
Layer 1
10
41.327245
20
107.285356
11
42.691366
21
108.024452
0
LINE
8
Layer 1
10
42.691366
20
108.024452
11
44.122030
21
108.625711
0
LINE
8
Layer 1
10
44.122030
20
108.625711
11
47.078418
21
109.395706
0
LINE
8
Layer 1
10
47.078418
20
109.395706
11
50.091840
21
109.652371
0
LINE
8
Layer 1
10
50.091840
20
109.652371
11
52.164163
21
109.519286
0
LINE
8
Layer 1
10
52.164163
20
109.519286
11
54.046370
21
109.120031
0
LINE
8
Layer 1
10
54.046370
20
109.120031
11
55.709933
21
108.435596
0
LINE
8
Layer 1
10
55.709933
20
108.435596
11
57.126340
21
107.523011
0
LINE
8
Layer 1
10
57.126340
20
107.523011
11
58.276578
21
106.344258
0
LINE
8
Layer 1
10
58.276578
20
106.344258
11
59.141630
21
104.937361
0
LINE
8
Layer 1
10
59.141630
20
104.937361
11
59.683476
21
103.273796
0
LINE
8
Layer 1
10
59.683476
20
103.273796
11
59.864091
21
101.401101
0
LINE
8
Layer 1
10
59.864091
20
101.401101
11
59.864100
21
101.401000
0
LINE
8
Layer 1
10
95.478600
20
109.272000
11
95.478600
21
96.001200
0
LINE
8
Layer 1
10
95.478600
20
96.001200
11
95.364527
21
94.268717
0
LINE
8
Layer 1
10
95.364527
20
94.268717
11
95.022308
21
92.759628
0
LINE
8
Layer 1
10
95.022308
20
92.759628
11
94.451942
21
91.473932
0
LINE
8
Layer 1
10
94.451942
20
91.473932
11
93.653430
21
90.411630
0
LINE
8
Layer 1
10
93.653430
20
90.411630
11
92.652914
21
89.579846
0
LINE
8
Layer 1
10
92.652914
20
89.579846
11
91.476538
21
88.985715
0
LINE
8
Layer 1
10
91.476538
20
88.985715
11
90.124299
21
88.629236
0
LINE
8
Layer 1
10
90.124299
20
88.629236
11
88.596200
21
88.510410
0
LINE
8
Layer 1
10
88.596200
20
88.510410
11
86.618935
21
88.719544
0
LINE
8
Layer 1
10
86.618935
20
88.719544
11
84.869820
21
89.346944
0
LINE
8
Layer 1
10
84.869820
20
89.346944
11
83.310827
21
90.345082
0
LINE
8
Layer 1
10
83.310827
20
90.345082
11
81.903930
21
91.742474
0
LINE
8
Layer 1
10
81.903930
20
91.742474
11
80.934310
21
90.364091
0
LINE
8
Layer 1
10
80.934310
20
90.364091
11
79.622470
21
89.346944
0
LINE
8
Layer 1
10
79.622470
20
89.346944
11
78.034957
21
88.719544
0
LINE
8
Layer 1
10
78.034957
20
88.719544
11
76.162260
21
88.510410
0
LINE
8
Layer 1
10
76.162260
20
88.510410
11
74.146970
21
88.776580
0
LINE
8
Layer 1
10
74.146970
20
88.776580
11
72.549950
21
89.499042
0
LINE
8
Layer 1
10
72.549950
20
89.499042
11
71.219100
21
90.563722
0
LINE
8
Layer 1
10
71.219100
20
90.563722
11
70.154420
21
91.780502
0
LINE
8
Layer 1
10
70.154420
20
91.780502
11
70.154420
21
88.890652
0
LINE
8
Layer 1
10
70.154420
20
88.890652
11
64.374730
21
88.890652
0
LINE
8
Layer 1
10
64.374730
20
88.890652
11
64.374730
21
109.271652
0
LINE
8
Layer 1
10
64.374730
20
109.271652
11
70.154420
21
109.271652
0
LINE
8
Layer 1
10
70.154420
20
109.271652
11
70.154420
21
97.902400
0
LINE
8
Layer 1
10
70.154420
20
97.902400
11
70.382566
21
96.105752
0
LINE
8
Layer 1
10
70.382566
20
96.105752
11
70.667748
21
95.399926
0
LINE
8
Layer 1
10
70.667748
20
95.399926
11
71.067003
21
94.822430
0
LINE
8
Layer 1
10
71.067003
20
94.822430
11
71.585084
21
94.356632
0
LINE
8
Layer 1
10
71.585084
20
94.356632
11
72.188720
21
94.023920
0
LINE
8
Layer 1
10
72.188720
20
94.023920
11
73.652653
21
93.757750
0
LINE
8
Layer 1
10
73.652653
20
93.757750
11
75.097578
21
94.023920
0
LINE
8
Layer 1
10
75.097578
20
94.023920
11
75.677447
21
94.356632
0
LINE
8
Layer 1
10
75.677447
20
94.356632
11
76.162253
21
94.822430
0
LINE
8
Layer 1
10
76.162253
20
94.822430
11
76.544872
21
95.399926
0
LINE
8
Layer 1
10
76.544872
20
95.399926
11
76.818172
21
96.105752
0
LINE
8
Layer 1
10
76.818172
20
96.105752
11
77.036811
21
97.902400
0
LINE
8
Layer 1
10
77.036811
20
97.902400
11
77.036811
21
109.271700
0
LINE
8
Layer 1
10
77.036811
20
109.271700
11
82.816501
21
109.271700
0
LINE
8
Layer 1
10
82.816501
20
109.271700
11
82.816501
21
97.902400
0
LINE
8
Layer 1
10
82.816501
20
97.902400
11
83.044647
21
96.105752
0
LINE
8
Layer 1
10
83.044647
20
96.105752
11
83.329829
21
95.399926
0
LINE
8
Layer 1
10
83.329829
20
95.399926
11
83.729084
21
94.822430
0
LINE
8
Layer 1
10
83.729084
20
94.822430
11
84.247165
21
94.356632
0
LINE
8
Layer 1
10
84.247165
20
94.356632
11
84.850800
21
94.023920
0
LINE
8
Layer 1
10
84.850800
20
94.023920
11
86.314734
21
93.757750
0
LINE
8
Layer 1
10
86.314734
20
93.757750
11
87.759654
21
94.023920
0
LINE
8
Layer 1
10
87.759654
20
94.023920
11
88.339524
21
94.356632
0
LINE
8
Layer 1
10
88.339524
20
94.356632
11
88.824334
21
94.822430
0
LINE
8
Layer 1
10
88.824334
20
94.822430
11
89.206954
21
95.399926
0
LINE
8
Layer 1
10
89.206954
20
95.399926
11
89.480253
21
96.105752
0
LINE
8
Layer 1
10
89.480253
20
96.105752
11
89.698893
21
97.902400
0
LINE
8
Layer 1
10
89.698893
20
97.902400
11
89.698893
21
109.271700
0
LINE
8
Layer 1
10
89.698893
20
109.271700
11
95.478600
21
109.272000
0
LINE
8
Layer 1
10
106.666000
20
86.647200
11
106.666000
21
81.513920
0
LINE
8
Layer 1
10
106.666000
20
81.513920
11
100.582110
21
81.513920
0
LINE
8
Layer 1
10
100.582110
20
81.513920
11
100.582110
21
86.647200
0
LINE
8
Layer 1
10
100.582110
20
86.647200
11
106.666000
21
86.647200
0
LINE
8
Layer 1
10
106.666000
20
86.647200
11
106.513900
21
109.271700
0
LINE
8
Layer 1
10
106.513900
20
109.271700
11
106.513900
21
88.890600
0
LINE
8
Layer 1
10
106.513900
20
88.890600
11
100.734210
21
88.890600
0
LINE
8
Layer 1
10
100.734210
20
88.890600
11
100.734210
21
109.271600
0
LINE
8
Layer 1
10
100.734210
20
109.271600
11
106.666000
21
86.647200
0
LINE
8
Layer 1
10
118.025000
20
109.272000
11
118.025000
21
81.513900
0
LINE
8
Layer 1
10
118.025000
20
81.513900
11
112.245310
21
81.513900
0
LINE
8
Layer 1
10
112.245310
20
81.513900
11
112.245310
21
109.271600
0
LINE
8
Layer 1
10
112.245310
20
109.271600
11
118.025000
21
109.272000
0
LINE
8
Layer 1
10
142.503000
20
99.651500
11
142.503000
21
99.575450
0
LINE
8
Layer 1
10
142.503000
20
99.575450
11
142.350902
21
97.455598
0
LINE
8
Layer 1
10
142.350902
20
97.455598
11
141.894610
21
95.430800
0
LINE
8
Layer 1
10
141.894610
20
95.430800
11
141.153140
21
93.539090
0
LINE
8
Layer 1
10
141.153140
20
93.539090
11
140.069450
21
91.894540
0
LINE
8
Layer 1
10
140.069450
20
91.894540
11
138.691068
21
90.497145
0
LINE
8
Layer 1
10
138.691068
20
90.497145
11
136.989480
21
89.422960
0
LINE
8
Layer 1
10
136.989480
20
89.422960
11
134.955180
21
88.738523
0
LINE
8
Layer 1
10
134.955180
20
88.738523
11
132.578660
21
88.510377
0
LINE
8
Layer 1
10
132.578660
20
88.510377
11
130.430290
21
88.719511
0
LINE
8
Layer 1
10
130.430290
20
88.719511
11
128.472040
21
89.346911
0
LINE
8
Layer 1
10
128.472040
20
89.346911
11
126.770450
21
90.335543
0
LINE
8
Layer 1
10
126.770450
20
90.335543
11
125.316020
21
91.628371
0
LINE
8
Layer 1
10
125.316020
20
91.628371
11
124.127762
21
93.196871
0
LINE
8
Layer 1
10
124.127762
20
93.196871
11
123.224690
21
95.012531
0
LINE
8
Layer 1
10
123.224690
20
95.012531
11
122.682845
21
97.008806
0
LINE
8
Layer 1
10
122.682845
20
97.008806
11
122.502230
21
99.119151
0
LINE
8
Layer 1
10
122.502230
20
99.119151
11
122.502230
21
99.195201
0
LINE
8
Layer 1
10
122.502230
20
99.195201
11
122.701857
21
101.448144
0
LINE
8
Layer 1
10
122.701857
20
101.448144
11
123.300740
21
103.491951
0
LINE
8
Layer 1
10
123.300740
20
103.491951
11
124.251345
21
105.269584
0
LINE
8
Layer 1
10
124.251345
20
105.269584
11
125.506140
21
106.800061
0
LINE
8
Layer 1
10
125.506140
20
106.800061
11
127.074647
21
108.045356
0
LINE
8
Layer 1
10
127.074647
20
108.045356
11
128.890310
21
108.967441
0
LINE
8
Layer 1
10
128.890310
20
108.967441
11
130.943620
21
109.537808
0
LINE
8
Layer 1
10
130.943620
20
109.537808
11
133.149030
21
109.727931
0
LINE
8
Layer 1
10
133.149030
20
109.727931
11
135.744185
21
109.480773
0
LINE
8
Layer 1
10
135.744185
20
109.480773
11
137.978110
21
108.739301
0
LINE
8
Layer 1
10
137.978110
20
108.739301
11
139.879325
21
107.522521
0
LINE
8
Layer 1
10
139.879325
20
107.522521
11
141.476350
21
105.925501
0
LINE
8
Layer 1
10
141.476350
20
105.925501
11
138.168230
21
102.997631
0
LINE
8
Layer 1
10
138.168230
20
102.997631
11
136.970470
21
103.948236
0
LINE
8
Layer 1
10
136.970470
20
103.948236
11
135.810730
21
104.594651
0
LINE
8
Layer 1
10
135.810730
20
104.594651
11
134.593953
21
104.965391
0
LINE
8
Layer 1
10
134.593953
20
104.965391
11
133.225080
21
105.088971
0
LINE
8
Layer 1
10
133.225080
20
105.088971
11
131.437938
21
104.841811
0
LINE
8
Layer 1
10
131.437938
20
104.841811
11
129.954990
21
104.100331
0
LINE
8
Layer 1
10
129.954990
20
104.100331
11
129.363235
21
103.527592
0
LINE
8
Layer 1
10
129.363235
20
103.527592
11
128.880800
21
102.836026
0
LINE
8
Layer 1
10
128.880800
20
102.836026
11
128.243890
21
101.096411
0
LINE
8
Layer 1
10
128.243890
20
101.096411
11
142.426990
21
101.096411
0
LINE
8
Layer 1
10
142.426990
20
101.096411
11
142.464990
21
100.373951
0
LINE
8
Layer 1
10
142.464990
20
100.373951
11
142.502990
21
99.651493
0
LINE
8
Layer 1
10
142.502990
20
99.651493
11
142.503000
21
99.651500
0
LINE
8
Layer 1
10
142.503000
20
99.651500
11
136.875410
21
97.484120
0
LINE
8
Layer 1
10
136.875410
20
97.484120
11
128.167850
21
97.484120
0
LINE
8
Layer 1
10
128.167850
20
97.484120
11
128.700185
21
95.706485
0
LINE
8
Layer 1
10
128.700185
20
95.706485
11
129.612770
21
94.328100
0
LINE
8
Layer 1
10
129.612770
20
94.328100
11
130.225912
21
93.812397
0
LINE
8
Layer 1
10
130.225912
20
93.812397
11
130.924607
21
93.444038
0
LINE
8
Layer 1
10
130.924607
20
93.444038
11
131.708857
21
93.223022
0
LINE
8
Layer 1
10
131.708857
20
93.223022
11
132.578660
21
93.149350
0
LINE
8
Layer 1
10
132.578660
20
93.149350
11
133.446091
21
93.225399
0
LINE
8
Layer 1
10
133.446091
20
93.225399
11
134.223212
21
93.453545
0
LINE
8
Layer 1
10
134.223212
20
93.453545
11
134.910026
21
93.833789
0
LINE
8
Layer 1
10
134.910026
20
93.833789
11
135.506530
21
94.366130
0
LINE
8
Layer 1
10
135.506530
20
94.366130
11
136.400105
21
95.735003
0
LINE
8
Layer 1
10
136.400105
20
95.735003
11
136.875410
21
97.484120
0
LINE
8
Layer 1
10
136.875410
20
97.484120
11
142.503000
21
99.651500
0
LINE
8
Layer 1
10
152.742000
20
109.272000
11
152.742000
21
103.188110
0
LINE
8
Layer 1
10
152.742000
20
103.188110
11
146.582070
21
103.188110
0
LINE
8
Layer 1
10
146.582070
20
103.188110
11
146.582070
21
109.272000
0
LINE
8
Layer 1
10
146.582070
20
109.272000
11
152.742000
21
109.272000
0
LINE
8
Layer 1
10
163.585000
20
109.272000
11
163.585000
21
103.188110
0
LINE
8
Layer 1
10
163.585000
20
103.188110
11
157.425060
21
103.188110
0
LINE
8
Layer 1
10
157.425060
20
103.188110
11
157.425060
21
109.272000
0
LINE
8
Layer 1
10
157.425060
20
109.272000
11
163.585000
21
109.272000
0
LINE
8
Layer 1
10
174.428000
20
109.272000
11
174.428000
21
103.188110
0
LINE
8
Layer 1
10
174.428000
20
103.188110
11
168.268060
21
103.188110
0
LINE
8
Layer 1
10
168.268060
20
103.188110
11
168.268060
21
109.272000
0
LINE
8
Layer 1
10
168.268060
20
109.272000
11
174.428000
21
109.272000
0
LINE
8
Layer 1
10
179.529000
20
82.654700
11
179.529000
21
83.415186
0
LINE
8
Layer 1
10
179.529000
20
83.415186
11
181.316150
21
100.221886
0
LINE
8
Layer 1
10
181.316150
20
100.221886
11
184.510190
21
100.221886
0
LINE
8
Layer 1
10
184.510190
20
100.221886
11
186.297330
21
83.415186
0
LINE
8
Layer 1
10
186.297330
20
83.415186
11
186.297330
21
82.654700
0
LINE
8
Layer 1
10
186.297330
20
82.654700
11
179.529000
21
82.654700
0
LINE
8
Layer 1
10
179.529000
20
82.654700
11
185.993130
21
109.271700
0
LINE
8
Layer 1
10
185.993130
20
109.271700
11
185.993130
21
103.187810
0
LINE
8
Layer 1
10
185.993130
20
103.187810
11
179.833200
21
103.187810
0
LINE
8
Layer 1
10
179.833200
20
103.187810
11
179.833200
21
109.271700
0
LINE
8
Layer 1
10
179.833200
20
109.271700
11
179.529000
21
82.654700
 0 
ENDSEC
 0 
EOF