  0
SECTION
  2
HEADER
  9
$ACADVER
  1
AC1014
  9
$HANDSEED
  5
FFFF
  9
$MEASUREMENT
 70
     1
  0
ENDSEC
  0
SECTION
  2
TABLES
  0
TABLE
  2
VPORT
  5
8
330
0
100
AcDbSymbolTable
 70
     4
  0
VPORT
  5
2E
330
8
100
AcDbSymbolTableRecord
100
AcDbViewportTableRecord
  2
*ACTIVE
 70
     0
 10
0.0
 20
0.0
 11
1.0
 21
1.0
 12
210.0
 22
148.5
 13
0.0
 23
0.0
 14
10.0
 24
10.0
 15
10.0
 25
10.0
 16
0.0
 26
0.0
 36
1.0
 17
0.0
 27
0.0
 37
0.0
 40
341.0
 41
1.24
 42
50.0
 43
0.0
 44
0.0
 50
0.0
 51
0.0
 71
     0
 72
   100
 73
     1
 74
     3
 75
     0
 76
     0
 77
     0
 78
     0
  0
ENDTAB
  0
TABLE
  2
LTYPE
  5
5
330
0
100
AcDbSymbolTable
 70
     1
  0
LTYPE
  5
14
330
5
100
AcDbSymbolTableRecord
100
AcDbLinetypeTableRecord
  2
BYBLOCK
 70
     0
  3

 72
    65
 73
     0
 40
0.0
  0
LTYPE
  5
15
330
5
100
AcDbSymbolTableRecord
100
AcDbLinetypeTableRecord
  2
BYLAYER
 70
     0
  3

 72
    65
 73
     0
 40
0.0
  0
LTYPE
  5
16
330
5
100
AcDbSymbolTableRecord
100
AcDbLinetypeTableRecord
  2
CONTINUOUS
 70
     0
  3
Solid line
 72
    65
 73
     0
 40
0.0
  0
ENDTAB
  0
TABLE
  2
LAYER
  5
2
100
AcDbSymbolTable
 70
2
  0
LAYER
  5
50
100
AcDbSymbolTableRecord
100
AcDbLayerTableRecord
  2
0
 70
0
  6
CONTINUOUS
  0
LAYER
  5
51
100
AcDbSymbolTableRecord
100
AcDbLayerTableRecord
  2
Ebene_1
 70
0
  6
CONTINUOUS
  0
ENDTAB
  0
TABLE
  2
STYLE
  5
3
330
0
100
AcDbSymbolTable
 70
     1
  0
STYLE
  5
11
330
3
100
AcDbSymbolTableRecord
100
AcDbTextStyleTableRecord
  2
STANDARD
 70
     0
 40
0.0
 41
1.0
 50
0.0
 71
     0
 42
2.5
  3
txt
  4

  0
ENDTAB
  0
TABLE
  2
VIEW
  5
6
330
0
100
AcDbSymbolTable
 70
     0
  0
ENDTAB
  0
TABLE
  2
UCS
  5
7
330
0
100
AcDbSymbolTable
 70
     0
  0
ENDTAB
  0
TABLE
  2
APPID
  5
9
330
0
100
AcDbSymbolTable
 70
     2
  0
APPID
  5
12
330
9
100
AcDbSymbolTableRecord
100
AcDbRegAppTableRecord
  2
ACAD
 70
     0
  0
ENDTAB
  0
TABLE
  2
DIMSTYLE
  5
A
330
0
100
AcDbSymbolTable
 70
     1
  0
DIMSTYLE
105
27
330
A
100
AcDbSymbolTableRecord
100
AcDbDimStyleTableRecord
  2
ISO-25
 70
     0
  3

  4

  5

  6

  7

 40
1.0
 41
2.5
 42
0.625
 43
3.75
 44
1.25
 45
0.0
 46
0.0
 47
0.0
 48
0.0
140
2.5
141
2.5
142
0.0
143
0.03937007874016
144
1.0
145
0.0
146
1.0
147
0.625
 71
     0
 72
     0
 73
     0
 74
     0
 75
     0
 76
     0
 77
     1
 78
     8
170
     0
171
     3
172
     1
173
     0
174
     0
175
     0
176
     0
177
     0
178
     0
270
     2
271
     2
272
     2
273
     2
274
     3
340
11
275
     0
280
     0
281
     0
282
     0
283
     0
284
     8
285
     0
286
     0
287
     3
288
     0
  0
ENDTAB
  0
TABLE
  2
BLOCK_RECORD
  5
1
330
0
100
AcDbSymbolTable
 70
     1
  0
BLOCK_RECORD
  5
1F
330
1
100
AcDbSymbolTableRecord
100
AcDbBlockTableRecord
  2
*MODEL_SPACE
  0
BLOCK_RECORD
  5
1B
330
1
100
AcDbSymbolTableRecord
100
AcDbBlockTableRecord
  2
*PAPER_SPACE
  0
ENDTAB
  0
ENDSEC
  0
SECTION
  2
BLOCKS
  0
BLOCK
  5
20
330
1F
100
AcDbEntity
  8
0
100
AcDbBlockBegin
  2
*MODEL_SPACE
 70
     0
 10
0.0
 20
0.0
 30
0.0
  3
*MODEL_SPACE
  1

  0
ENDBLK
  5
21
330
1F
100
AcDbEntity
  8
0
100
AcDbBlockEnd
  0
BLOCK
  5
1C
330
1B
100
AcDbEntity
 67
     1
  8
0
100
AcDbBlockBegin
  2
*PAPER_SPACE
  1

  0
ENDBLK
  5
1D
330
1B
100
AcDbEntity
 67
     1
  8
0
100
AcDbBlockEnd
  0
ENDSEC
  0
SECTION
  2
ENTITIES
  0
SPLINE
  5
100
100
AcDbEntity
  8
Ebene_1
 62
7
100
AcDbSpline
 70
8
 71
3
 72
8
 73
4
 74
0
 40
0
 40
0
 40
0
 40
0
 40
1
 40
1
 40
1
 40
1
 10
-295.526170
 20
53.377410
 30
0.0
 10
-295.526170
 20
34.082840
 30
0.0
 10
-279.906570
 20
18.442180
 30
0.0
 10
-260.638070
 20
18.442180
 30
0.0
  0
LWPOLYLINE
  5
101
100
AcDbEntity
  8
Ebene_1
 62
7
100
AcDbPolyline
 90
4
 70
1
 10
-305.526170
 20
6.616660
 30
0.0
 10
-305.526170
 20
226.216670
 30
0.0
 10
-5.926212
 20
226.216670
 30
0.0
 10
-5.926212
 20
6.616660
 30
0.0
  0
SPLINE
  5
102
100
AcDbEntity
  8
Ebene_1
 62
7
100
AcDbSpline
 70
8
 71
3
 72
8
 73
4
 74
0
 40
0
 40
0
 40
0
 40
0
 40
1
 40
1
 40
1
 40
1
 10
-50.792212
 20
18.442180
 30
0.0
 10
-31.523622
 20
18.442180
 30
0.0
 10
-15.904102
 20
34.082830
 30
0.0
 10
-15.904102
 20
53.377410
 30
0.0
  0
LWPOLYLINE
  5
103
100
AcDbEntity
  8
Ebene_1
 62
7
100
AcDbPolyline
 90
2
 70
0
 10
-260.638070
 20
18.442180
 30
0.0
 10
-50.792212
 20
18.442180
 30
0.0
  0
SPLINE
  5
104
100
AcDbEntity
  8
Ebene_1
 62
7
100
AcDbSpline
 70
8
 71
3
 72
8
 73
4
 74
0
 40
0
 40
0
 40
0
 40
0
 40
1
 40
1
 40
1
 40
1
 10
-15.904102
 20
179.455910
 30
0.0
 10
-15.904102
 20
198.750480
 30
0.0
 10
-31.523622
 20
214.391130
 30
0.0
 10
-50.792212
 20
214.391130
 30
0.0
  0
LWPOLYLINE
  5
105
100
AcDbEntity
  8
Ebene_1
 62
7
100
AcDbPolyline
 90
2
 70
0
 10
-15.904102
 20
53.377410
 30
0.0
 10
-15.904102
 20
179.455910
 30
0.0
  0
SPLINE
  5
106
100
AcDbEntity
  8
Ebene_1
 62
7
100
AcDbSpline
 70
8
 71
3
 72
8
 73
4
 74
0
 40
0
 40
0
 40
0
 40
0
 40
1
 40
1
 40
1
 40
1
 10
-260.638070
 20
214.391130
 30
0.0
 10
-279.906570
 20
214.391130
 30
0.0
 10
-295.526170
 20
198.750480
 30
0.0
 10
-295.526170
 20
179.455910
 30
0.0
  0
LWPOLYLINE
  5
107
100
AcDbEntity
  8
Ebene_1
 62
7
100
AcDbPolyline
 90
2
 70
0
 10
-50.792212
 20
214.391130
 30
0.0
 10
-260.638070
 20
214.391130
 30
0.0
  0
LWPOLYLINE
  5
108
100
AcDbEntity
  8
Ebene_1
 62
7
100
AcDbPolyline
 90
2
 70
0
 10
-295.526170
 20
179.455910
 30
0.0
 10
-295.526170
 20
53.377410
 30
0.0
  0
SPLINE
  5
109
100
AcDbEntity
  8
Ebene_1
 62
7
100
AcDbSpline
 70
8
 71
3
 72
8
 73
4
 74
0
 40
0
 40
0
 40
0
 40
0
 40
1
 40
1
 40
1
 40
1
 10
-288.706070
 20
179.455910
 30
0.0
 10
-288.706070
 20
195.085190
 30
0.0
 10
-276.246270
 20
207.561860
 30
0.0
 10
-260.638070
 20
207.561860
 30
0.0
  0
LWPOLYLINE
  5
10a
100
AcDbEntity
  8
Ebene_1
 62
7
100
AcDbPolyline
 90
2
 70
0
 10
-288.706070
 20
53.377410
 30
0.0
 10
-288.706070
 20
179.455910
 30
0.0
  0
SPLINE
  5
10b
100
AcDbEntity
  8
Ebene_1
 62
7
100
AcDbSpline
 70
8
 71
3
 72
8
 73
4
 74
0
 40
0
 40
0
 40
0
 40
0
 40
1
 40
1
 40
1
 40
1
 10
-50.792212
 20
207.561860
 30
0.0
 10
-35.184002
 20
207.561860
 30
0.0
 10
-22.724212
 20
195.085190
 30
0.0
 10
-22.724212
 20
179.455910
 30
0.0
  0
LWPOLYLINE
  5
10c
100
AcDbEntity
  8
Ebene_1
 62
7
100
AcDbPolyline
 90
2
 70
0
 10
-260.638070
 20
207.561860
 30
0.0
 10
-50.792212
 20
207.561860
 30
0.0
  0
SPLINE
  5
10d
100
AcDbEntity
  8
Ebene_1
 62
7
100
AcDbSpline
 70
8
 71
3
 72
8
 73
4
 74
0
 40
0
 40
0
 40
0
 40
0
 40
1
 40
1
 40
1
 40
1
 10
-22.724212
 20
53.377410
 30
0.0
 10
-22.724212
 20
37.748130
 30
0.0
 10
-35.184002
 20
25.271450
 30
0.0
 10
-50.792212
 20
25.271450
 30
0.0
  0
LWPOLYLINE
  5
10e
100
AcDbEntity
  8
Ebene_1
 62
7
100
AcDbPolyline
 90
2
 70
0
 10
-22.724212
 20
179.455910
 30
0.0
 10
-22.724212
 20
53.377410
 30
0.0
  0
SPLINE
  5
10f
100
AcDbEntity
  8
Ebene_1
 62
7
100
AcDbSpline
 70
8
 71
3
 72
8
 73
4
 74
0
 40
0
 40
0
 40
0
 40
0
 40
1
 40
1
 40
1
 40
1
 10
-260.638070
 20
25.271450
 30
0.0
 10
-276.246270
 20
25.271450
 30
0.0
 10
-288.706070
 20
37.748130
 30
0.0
 10
-288.706070
 20
53.377410
 30
0.0
  0
LWPOLYLINE
  5
110
100
AcDbEntity
  8
Ebene_1
 62
7
100
AcDbPolyline
 90
2
 70
0
 10
-50.792212
 20
25.271450
 30
0.0
 10
-260.638070
 20
25.271450
 30
0.0
  0
SPLINE
  5
111
100
AcDbEntity
  8
Ebene_1
 62
7
100
AcDbSpline
 70
8
 71
3
 72
8
 73
4
 74
0
 40
0
 40
0
 40
0
 40
0
 40
1
 40
1
 40
1
 40
1
 10
-37.734502
 20
41.502970
 30
0.0
 10
-36.353802
 20
41.502964
 30
0.0
 10
-35.234523
 20
40.383690
 30
0.0
 10
-35.234512
 20
39.002990
 30
0.0
  0
SPLINE
  5
112
100
AcDbEntity
  8
Ebene_1
 62
7
100
AcDbSpline
 70
8
 71
3
 72
8
 73
4
 74
0
 40
0
 40
0
 40
0
 40
0
 40
1
 40
1
 40
1
 40
1
 10
-35.234512
 20
39.002990
 30
0.0
 10
-35.234512
 20
37.622282
 30
0.0
 10
-36.353794
 20
36.502996
 30
0.0
 10
-37.734502
 20
36.502990
 30
0.0
  0
SPLINE
  5
113
100
AcDbEntity
  8
Ebene_1
 62
7
100
AcDbSpline
 70
8
 71
3
 72
8
 73
4
 74
0
 40
0
 40
0
 40
0
 40
0
 40
1
 40
1
 40
1
 40
1
 10
-37.734502
 20
36.502990
 30
0.0
 10
-38.397543
 20
36.502990
 30
0.0
 10
-39.033428
 20
36.766382
 30
0.0
 10
-39.502269
 20
37.235223
 30
0.0
  0
SPLINE
  5
114
100
AcDbEntity
  8
Ebene_1
 62
7
100
AcDbSpline
 70
8
 71
3
 72
8
 73
4
 74
0
 40
0
 40
0
 40
0
 40
0
 40
1
 40
1
 40
1
 40
1
 10
-39.502269
 20
37.235223
 30
0.0
 10
-39.971110
 20
37.704064
 30
0.0
 10
-40.234502
 20
38.339949
 30
0.0
 10
-40.234502
 20
39.002990
 30
0.0
  0
SPLINE
  5
115
100
AcDbEntity
  8
Ebene_1
 62
7
100
AcDbSpline
 70
8
 71
3
 72
8
 73
4
 74
0
 40
0
 40
0
 40
0
 40
0
 40
1
 40
1
 40
1
 40
1
 10
-40.234502
 20
39.002990
 30
0.0
 10
-40.234491
 20
40.383694
 30
0.0
 10
-39.115206
 20
41.502970
 30
0.0
 10
-37.734502
 20
41.502970
 30
0.0
  0
LWPOLYLINE
  5
116
100
AcDbEntity
  8
Ebene_1
 62
7
100
AcDbPolyline
 90
1
 70
1
 10
-288.706070
 20
53.377410
 30
0.0
  0
SPLINE
  5
117
100
AcDbEntity
  8
Ebene_1
 62
7
100
AcDbSpline
 70
8
 71
3
 72
8
 73
4
 74
0
 40
0
 40
0
 40
0
 40
0
 40
1
 40
1
 40
1
 40
1
 10
-38.026202
 20
196.416660
 30
0.0
 10
-37.363143
 20
196.416687
 30
0.0
 10
-36.727233
 20
196.153306
 30
0.0
 10
-36.258370
 20
195.684462
 30
0.0
  0
SPLINE
  5
118
100
AcDbEntity
  8
Ebene_1
 62
7
100
AcDbSpline
 70
8
 71
3
 72
8
 73
4
 74
0
 40
0
 40
0
 40
0
 40
0
 40
1
 40
1
 40
1
 40
1
 10
-36.258370
 20
195.684462
 30
0.0
 10
-35.789508
 20
195.215618
 30
0.0
 10
-35.526102
 20
194.579719
 30
0.0
 10
-35.526102
 20
193.916660
 30
0.0
  0
SPLINE
  5
119
100
AcDbEntity
  8
Ebene_1
 62
7
100
AcDbSpline
 70
8
 71
3
 72
8
 73
4
 74
0
 40
0
 40
0
 40
0
 40
0
 40
1
 40
1
 40
1
 40
1
 10
-35.526102
 20
193.916660
 30
0.0
 10
-35.526102
 20
193.253601
 30
0.0
 10
-35.789508
 20
192.617702
 30
0.0
 10
-36.258370
 20
192.148858
 30
0.0
  0
SPLINE
  5
11a
100
AcDbEntity
  8
Ebene_1
 62
7
100
AcDbSpline
 70
8
 71
3
 72
8
 73
4
 74
0
 40
0
 40
0
 40
0
 40
0
 40
1
 40
1
 40
1
 40
1
 10
-36.258370
 20
192.148858
 30
0.0
 10
-36.727233
 20
191.680014
 30
0.0
 10
-37.363143
 20
191.416633
 30
0.0
 10
-38.026202
 20
191.416660
 30
0.0
  0
SPLINE
  5
11b
100
AcDbEntity
  8
Ebene_1
 62
7
100
AcDbSpline
 70
8
 71
3
 72
8
 73
4
 74
0
 40
0
 40
0
 40
0
 40
0
 40
1
 40
1
 40
1
 40
1
 10
-38.026202
 20
191.416660
 30
0.0
 10
-39.406883
 20
191.416704
 30
0.0
 10
-40.526122
 20
192.535979
 30
0.0
 10
-40.526122
 20
193.916660
 30
0.0
  0
SPLINE
  5
11c
100
AcDbEntity
  8
Ebene_1
 62
7
100
AcDbSpline
 70
8
 71
3
 72
8
 73
4
 74
0
 40
0
 40
0
 40
0
 40
0
 40
1
 40
1
 40
1
 40
1
 10
-40.526122
 20
193.916660
 30
0.0
 10
-40.526122
 20
195.297341
 30
0.0
 10
-39.406883
 20
196.416616
 30
0.0
 10
-38.026202
 20
196.416660
 30
0.0
  0
LWPOLYLINE
  5
11d
100
AcDbEntity
  8
Ebene_1
 62
7
100
AcDbPolyline
 90
1
 70
1
 10
-37.734502
 20
41.502970
 30
0.0
  0
SPLINE
  5
11e
100
AcDbEntity
  8
Ebene_1
 62
7
100
AcDbSpline
 70
8
 71
3
 72
8
 73
4
 74
0
 40
0
 40
0
 40
0
 40
0
 40
1
 40
1
 40
1
 40
1
 10
-273.112470
 20
196.794640
 30
0.0
 10
-272.449429
 20
196.794640
 30
0.0
 10
-271.813544
 20
196.531248
 30
0.0
 10
-271.344703
 20
196.062407
 30
0.0
  0
SPLINE
  5
11f
100
AcDbEntity
  8
Ebene_1
 62
7
100
AcDbSpline
 70
8
 71
3
 72
8
 73
4
 74
0
 40
0
 40
0
 40
0
 40
0
 40
1
 40
1
 40
1
 40
1
 10
-271.344703
 20
196.062407
 30
0.0
 10
-270.875862
 20
195.593566
 30
0.0
 10
-270.612470
 20
194.957681
 30
0.0
 10
-270.612470
 20
194.294640
 30
0.0
  0
SPLINE
  5
120
100
AcDbEntity
  8
Ebene_1
 62
7
100
AcDbSpline
 70
8
 71
3
 72
8
 73
4
 74
0
 40
0
 40
0
 40
0
 40
0
 40
1
 40
1
 40
1
 40
1
 10
-270.612470
 20
194.294640
 30
0.0
 10
-270.612470
 20
193.631599
 30
0.0
 10
-270.875862
 20
192.995714
 30
0.0
 10
-271.344703
 20
192.526873
 30
0.0
  0
SPLINE
  5
121
100
AcDbEntity
  8
Ebene_1
 62
7
100
AcDbSpline
 70
8
 71
3
 72
8
 73
4
 74
0
 40
0
 40
0
 40
0
 40
0
 40
1
 40
1
 40
1
 40
1
 10
-271.344703
 20
192.526873
 30
0.0
 10
-271.813544
 20
192.058032
 30
0.0
 10
-272.449429
 20
191.794640
 30
0.0
 10
-273.112470
 20
191.794640
 30
0.0
  0
SPLINE
  5
122
100
AcDbEntity
  8
Ebene_1
 62
7
100
AcDbSpline
 70
8
 71
3
 72
8
 73
4
 74
0
 40
0
 40
0
 40
0
 40
0
 40
1
 40
1
 40
1
 40
1
 10
-273.112470
 20
191.794640
 30
0.0
 10
-273.775511
 20
191.794640
 30
0.0
 10
-274.411396
 20
192.058032
 30
0.0
 10
-274.880237
 20
192.526873
 30
0.0
  0
SPLINE
  5
123
100
AcDbEntity
  8
Ebene_1
 62
7
100
AcDbSpline
 70
8
 71
3
 72
8
 73
4
 74
0
 40
0
 40
0
 40
0
 40
0
 40
1
 40
1
 40
1
 40
1
 10
-274.880237
 20
192.526873
 30
0.0
 10
-275.349078
 20
192.995714
 30
0.0
 10
-275.612470
 20
193.631599
 30
0.0
 10
-275.612470
 20
194.294640
 30
0.0
  0
SPLINE
  5
124
100
AcDbEntity
  8
Ebene_1
 62
7
100
AcDbSpline
 70
8
 71
3
 72
8
 73
4
 74
0
 40
0
 40
0
 40
0
 40
0
 40
1
 40
1
 40
1
 40
1
 10
-275.612470
 20
194.294640
 30
0.0
 10
-275.612470
 20
194.957681
 30
0.0
 10
-275.349078
 20
195.593566
 30
0.0
 10
-274.880237
 20
196.062407
 30
0.0
  0
SPLINE
  5
125
100
AcDbEntity
  8
Ebene_1
 62
7
100
AcDbSpline
 70
8
 71
3
 72
8
 73
4
 74
0
 40
0
 40
0
 40
0
 40
0
 40
1
 40
1
 40
1
 40
1
 10
-274.880237
 20
196.062407
 30
0.0
 10
-274.411396
 20
196.531248
 30
0.0
 10
-273.775511
 20
196.794640
 30
0.0
 10
-273.112470
 20
196.794640
 30
0.0
  0
LWPOLYLINE
  5
126
100
AcDbEntity
  8
Ebene_1
 62
7
100
AcDbPolyline
 90
1
 70
1
 10
-38.026202
 20
196.416660
 30
0.0
  0
SPLINE
  5
127
100
AcDbEntity
  8
Ebene_1
 62
7
100
AcDbSpline
 70
8
 71
3
 72
8
 73
4
 74
0
 40
0
 40
0
 40
0
 40
0
 40
1
 40
1
 40
1
 40
1
 10
-273.112470
 20
41.794640
 30
0.0
 10
-272.449429
 20
41.794640
 30
0.0
 10
-271.813544
 20
41.531248
 30
0.0
 10
-271.344703
 20
41.062407
 30
0.0
  0
SPLINE
  5
128
100
AcDbEntity
  8
Ebene_1
 62
7
100
AcDbSpline
 70
8
 71
3
 72
8
 73
4
 74
0
 40
0
 40
0
 40
0
 40
0
 40
1
 40
1
 40
1
 40
1
 10
-271.344703
 20
41.062407
 30
0.0
 10
-270.875862
 20
40.593566
 30
0.0
 10
-270.612470
 20
39.957681
 30
0.0
 10
-270.612470
 20
39.294640
 30
0.0
  0
SPLINE
  5
129
100
AcDbEntity
  8
Ebene_1
 62
7
100
AcDbSpline
 70
8
 71
3
 72
8
 73
4
 74
0
 40
0
 40
0
 40
0
 40
0
 40
1
 40
1
 40
1
 40
1
 10
-270.612470
 20
39.294640
 30
0.0
 10
-270.612470
 20
38.631599
 30
0.0
 10
-270.875862
 20
37.995714
 30
0.0
 10
-271.344703
 20
37.526873
 30
0.0
  0
SPLINE
  5
12a
100
AcDbEntity
  8
Ebene_1
 62
7
100
AcDbSpline
 70
8
 71
3
 72
8
 73
4
 74
0
 40
0
 40
0
 40
0
 40
0
 40
1
 40
1
 40
1
 40
1
 10
-271.344703
 20
37.526873
 30
0.0
 10
-271.813544
 20
37.058032
 30
0.0
 10
-272.449429
 20
36.794640
 30
0.0
 10
-273.112470
 20
36.794640
 30
0.0
  0
SPLINE
  5
12b
100
AcDbEntity
  8
Ebene_1
 62
7
100
AcDbSpline
 70
8
 71
3
 72
8
 73
4
 74
0
 40
0
 40
0
 40
0
 40
0
 40
1
 40
1
 40
1
 40
1
 10
-273.112470
 20
36.794640
 30
0.0
 10
-273.775511
 20
36.794640
 30
0.0
 10
-274.411396
 20
37.058032
 30
0.0
 10
-274.880237
 20
37.526873
 30
0.0
  0
SPLINE
  5
12c
100
AcDbEntity
  8
Ebene_1
 62
7
100
AcDbSpline
 70
8
 71
3
 72
8
 73
4
 74
0
 40
0
 40
0
 40
0
 40
0
 40
1
 40
1
 40
1
 40
1
 10
-274.880237
 20
37.526873
 30
0.0
 10
-275.349078
 20
37.995714
 30
0.0
 10
-275.612470
 20
38.631599
 30
0.0
 10
-275.612470
 20
39.294640
 30
0.0
  0
SPLINE
  5
12d
100
AcDbEntity
  8
Ebene_1
 62
7
100
AcDbSpline
 70
8
 71
3
 72
8
 73
4
 74
0
 40
0
 40
0
 40
0
 40
0
 40
1
 40
1
 40
1
 40
1
 10
-275.612470
 20
39.294640
 30
0.0
 10
-275.612470
 20
39.957681
 30
0.0
 10
-275.349078
 20
40.593566
 30
0.0
 10
-274.880237
 20
41.062407
 30
0.0
  0
SPLINE
  5
12e
100
AcDbEntity
  8
Ebene_1
 62
7
100
AcDbSpline
 70
8
 71
3
 72
8
 73
4
 74
0
 40
0
 40
0
 40
0
 40
0
 40
1
 40
1
 40
1
 40
1
 10
-274.880237
 20
41.062407
 30
0.0
 10
-274.411396
 20
41.531248
 30
0.0
 10
-273.775511
 20
41.794640
 30
0.0
 10
-273.112470
 20
41.794640
 30
0.0
  0
LWPOLYLINE
  5
12f
100
AcDbEntity
  8
Ebene_1
 62
7
100
AcDbPolyline
 90
1
 70
1
 10
-273.112470
 20
196.794640
 30
0.0
  0
SPLINE
  5
130
100
AcDbEntity
  8
Ebene_1
 62
7
100
AcDbSpline
 70
8
 71
3
 72
8
 73
4
 74
0
 40
0
 40
0
 40
0
 40
0
 40
1
 40
1
 40
1
 40
1
 10
-208.393410
 20
83.475190
 30
0.0
 10
-208.574850
 20
84.432150
 30
0.0
 10
-224.188890
 20
171.604570
 30
0.0
 10
-224.188890
 20
171.660630
 30
0.0
  0
SPLINE
  5
131
100
AcDbEntity
  8
Ebene_1
 62
7
100
AcDbSpline
 70
8
 71
3
 72
8
 73
4
 74
0
 40
0
 40
0
 40
0
 40
0
 40
1
 40
1
 40
1
 40
1
 10
-224.188890
 20
171.660630
 30
0.0
 10
-224.188890
 20
171.740330
 30
0.0
 10
-228.800600
 20
171.623830
 30
0.0
 10
-231.118640
 20
171.485430
 30
0.0
  0
SPLINE
  5
132
100
AcDbEntity
  8
Ebene_1
 62
7
100
AcDbSpline
 70
8
 71
3
 72
8
 73
4
 74
0
 40
0
 40
0
 40
0
 40
0
 40
1
 40
1
 40
1
 40
1
 10
-231.118640
 20
171.485430
 30
0.0
 10
-238.017130
 20
171.074040
 30
0.0
 10
-241.565210
 20
169.866010
 30
0.0
 10
-243.280080
 20
167.344750
 30
0.0
  0
SPLINE
  5
133
100
AcDbEntity
  8
Ebene_1
 62
7
100
AcDbSpline
 70
8
 71
3
 72
8
 73
4
 74
0
 40
0
 40
0
 40
0
 40
0
 40
1
 40
1
 40
1
 40
1
 10
-243.280080
 20
167.344750
 30
0.0
 10
-243.912330
 20
166.415180
 30
0.0
 10
-244.176300
 20
165.752390
 30
0.0
 10
-244.452260
 20
164.401690
 30
0.0
  0
SPLINE
  5
134
100
AcDbEntity
  8
Ebene_1
 62
7
100
AcDbSpline
 70
8
 71
3
 72
8
 73
4
 74
0
 40
0
 40
0
 40
0
 40
0
 40
1
 40
1
 40
1
 40
1
 10
-244.452260
 20
164.401690
 30
0.0
 10
-244.564290
 20
163.852890
 30
0.0
 10
-244.676510
 20
163.383420
 30
0.0
 10
-244.701500
 20
163.358430
 30
0.0
  0
SPLINE
  5
135
100
AcDbEntity
  8
Ebene_1
 62
7
100
AcDbSpline
 70
8
 71
3
 72
8
 73
4
 74
0
 40
0
 40
0
 40
0
 40
0
 40
1
 40
1
 40
1
 40
1
 10
-244.701500
 20
163.358430
 30
0.0
 10
-244.785400
 20
163.274530
 30
0.0
 10
-247.652350
 20
164.636640
 30
0.0
 10
-249.088720
 20
165.443050
 30
0.0
  0
SPLINE
  5
136
100
AcDbEntity
  8
Ebene_1
 62
7
100
AcDbSpline
 70
8
 71
3
 72
8
 73
4
 74
0
 40
0
 40
0
 40
0
 40
0
 40
1
 40
1
 40
1
 40
1
 10
-249.088720
 20
165.443050
 30
0.0
 10
-253.384970
 20
167.855040
 30
0.0
 10
-256.757890
 20
170.647700
 30
0.0
 10
-259.052370
 20
173.692750
 30
0.0
  0
SPLINE
  5
137
100
AcDbEntity
  8
Ebene_1
 62
7
100
AcDbSpline
 70
8
 71
3
 72
8
 73
4
 74
0
 40
0
 40
0
 40
0
 40
0
 40
1
 40
1
 40
1
 40
1
 10
-259.052370
 20
173.692750
 30
0.0
 10
-259.389490
 20
174.140110
 30
0.0
 10
-259.665290
 20
174.542720
 30
0.0
 10
-259.665290
 20
174.587480
 30
0.0
  0
SPLINE
  5
138
100
AcDbEntity
  8
Ebene_1
 62
7
100
AcDbSpline
 70
8
 71
3
 72
8
 73
4
 74
0
 40
0
 40
0
 40
0
 40
0
 40
1
 40
1
 40
1
 40
1
 10
-259.665290
 20
174.587480
 30
0.0
 10
-259.665290
 20
174.632480
 30
0.0
 10
-259.490750
 20
174.741100
 30
0.0
 10
-259.277440
 20
174.829370
 30
0.0
  0
SPLINE
  5
139
100
AcDbEntity
  8
Ebene_1
 62
7
100
AcDbSpline
 70
8
 71
3
 72
8
 73
4
 74
0
 40
0
 40
0
 40
0
 40
0
 40
1
 40
1
 40
1
 40
1
 10
-259.277440
 20
174.829370
 30
0.0
 10
-259.064100
 20
174.917770
 30
0.0
 10
-258.144880
 20
175.313840
 30
0.0
 10
-257.234680
 20
175.709810
 30
0.0
  0
SPLINE
  5
13a
100
AcDbEntity
  8
Ebene_1
 62
7
100
AcDbSpline
 70
8
 71
3
 72
8
 73
4
 74
0
 40
0
 40
0
 40
0
 40
0
 40
1
 40
1
 40
1
 40
1
 10
-257.234680
 20
175.709810
 30
0.0
 10
-246.806280
 20
180.246600
 30
0.0
 10
-233.250980
 20
183.417740
 30
0.0
 10
-221.085980
 20
184.166460
 30
0.0
  0
LWPOLYLINE
  5
13b
100
AcDbEntity
  8
Ebene_1
 62
7
100
AcDbPolyline
 90
1
 70
1
 10
-273.112470
 20
41.794640
 30
0.0
  0
SPLINE
  5
13c
100
AcDbEntity
  8
Ebene_1
 62
7
100
AcDbSpline
 70
8
 71
3
 72
8
 73
4
 74
0
 40
0
 40
0
 40
0
 40
0
 40
1
 40
1
 40
1
 40
1
 10
-214.170750
 20
177.130230
 30
0.0
 10
-210.964710
 20
173.223570
 30
0.0
 10
-208.306110
 20
170.066330
 30
0.0
 10
-208.262740
 20
170.114140
 30
0.0
  0
SPLINE
  5
13d
100
AcDbEntity
  8
Ebene_1
 62
7
100
AcDbSpline
 70
8
 71
3
 72
8
 73
4
 74
0
 40
0
 40
0
 40
0
 40
0
 40
1
 40
1
 40
1
 40
1
 10
-208.262740
 20
170.114140
 30
0.0
 10
-208.219540
 20
170.161840
 30
0.0
 10
-205.617280
 20
173.328870
 30
0.0
 10
-202.480300
 20
177.151660
 30
0.0
  0
SPLINE
  5
13e
100
AcDbEntity
  8
Ebene_1
 62
7
100
AcDbSpline
 70
8
 71
3
 72
8
 73
4
 74
0
 40
0
 40
0
 40
0
 40
0
 40
1
 40
1
 40
1
 40
1
 10
-202.480300
 20
177.151660
 30
0.0
 10
-199.343310
 20
180.974460
 30
0.0
 10
-196.728740
 20
184.131880
 30
0.0
 10
-196.670190
 20
184.168080
 30
0.0
  0
SPLINE
  5
13f
100
AcDbEntity
  8
Ebene_1
 62
7
100
AcDbSpline
 70
8
 71
3
 72
8
 73
4
 74
0
 40
0
 40
0
 40
0
 40
0
 40
1
 40
1
 40
1
 40
1
 10
-196.670190
 20
184.168080
 30
0.0
 10
-196.548020
 20
184.243480
 30
0.0
 10
-193.939100
 20
184.075380
 30
0.0
 10
-191.660210
 20
183.844950
 30
0.0
  0
SPLINE
  5
140
100
AcDbEntity
  8
Ebene_1
 62
7
100
AcDbSpline
 70
8
 71
3
 72
8
 73
4
 74
0
 40
0
 40
0
 40
0
 40
0
 40
1
 40
1
 40
1
 40
1
 10
-191.660210
 20
183.844950
 30
0.0
 10
-182.049790
 20
182.873480
 30
0.0
 10
-172.397600
 20
180.649630
 30
0.0
 10
-163.630720
 20
177.386960
 30
0.0
  0
SPLINE
  5
141
100
AcDbEntity
  8
Ebene_1
 62
7
100
AcDbSpline
 70
8
 71
3
 72
8
 73
4
 74
0
 40
0
 40
0
 40
0
 40
0
 40
1
 40
1
 40
1
 40
1
 10
-163.630720
 20
177.386960
 30
0.0
 10
-161.561690
 20
176.616970
 30
0.0
 10
-158.233540
 20
175.242620
 30
0.0
 10
-157.365550
 20
174.799830
 30
0.0
  0
LWPOLYLINE
  5
142
100
AcDbEntity
  8
Ebene_1
 62
7
100
AcDbPolyline
 90
3
 70
0
 10
-221.085980
 20
184.166460
 30
0.0
 10
-220.000000
 20
184.233360
 30
0.0
 10
-214.170750
 20
177.130230
 30
0.0
  0
SPLINE
  5
143
100
AcDbEntity
  8
Ebene_1
 62
7
100
AcDbSpline
 70
8
 71
3
 72
8
 73
4
 74
0
 40
0
 40
0
 40
0
 40
0
 40
1
 40
1
 40
1
 40
1
 10
-157.483110
 20
173.873810
 30
0.0
 10
-159.515890
 20
171.079010
 30
0.0
 10
-162.702640
 20
168.332510
 30
0.0
 10
-166.649140
 20
165.974110
 30
0.0
  0
SPLINE
  5
144
100
AcDbEntity
  8
Ebene_1
 62
7
100
AcDbSpline
 70
8
 71
3
 72
8
 73
4
 74
0
 40
0
 40
0
 40
0
 40
0
 40
1
 40
1
 40
1
 40
1
 10
-166.649140
 20
165.974110
 30
0.0
 10
-167.734500
 20
165.325490
 30
0.0
 10
-171.327420
 20
163.522160
 30
0.0
 10
-171.817300
 20
163.380140
 30
0.0
  0
SPLINE
  5
145
100
AcDbEntity
  8
Ebene_1
 62
7
100
AcDbSpline
 70
8
 71
3
 72
8
 73
4
 74
0
 40
0
 40
0
 40
0
 40
0
 40
1
 40
1
 40
1
 40
1
 10
-171.817300
 20
163.380140
 30
0.0
 10
-172.019460
 20
163.321540
 30
0.0
 10
-172.046580
 20
163.365540
 30
0.0
 10
-172.113840
 20
163.862340
 30
0.0
  0
SPLINE
  5
146
100
AcDbEntity
  8
Ebene_1
 62
7
100
AcDbSpline
 70
8
 71
3
 72
8
 73
4
 74
0
 40
0
 40
0
 40
0
 40
0
 40
1
 40
1
 40
1
 40
1
 10
-172.113840
 20
163.862340
 30
0.0
 10
-172.154440
 20
164.163060
 30
0.0
 10
-172.301580
 20
164.803470
 30
0.0
 10
-172.440570
 20
165.285460
 30
0.0
  0
SPLINE
  5
147
100
AcDbEntity
  8
Ebene_1
 62
7
100
AcDbSpline
 70
8
 71
3
 72
8
 73
4
 74
0
 40
0
 40
0
 40
0
 40
0
 40
1
 40
1
 40
1
 40
1
 10
-172.440570
 20
165.285460
 30
0.0
 10
-173.535140
 20
169.081130
 30
0.0
 10
-176.769180
 20
170.766610
 30
0.0
 10
-184.161540
 20
171.393910
 30
0.0
  0
SPLINE
  5
148
100
AcDbEntity
  8
Ebene_1
 62
7
100
AcDbSpline
 70
8
 71
3
 72
8
 73
4
 74
0
 40
0
 40
0
 40
0
 40
0
 40
1
 40
1
 40
1
 40
1
 10
-184.161540
 20
171.393910
 30
0.0
 10
-185.771180
 20
171.530500
 30
0.0
 10
-192.465410
 20
171.705810
 30
0.0
 10
-192.549530
 20
171.613540
 30
0.0
  0
SPLINE
  5
149
100
AcDbEntity
  8
Ebene_1
 62
7
100
AcDbSpline
 70
8
 71
3
 72
8
 73
4
 74
0
 40
0
 40
0
 40
0
 40
0
 40
1
 40
1
 40
1
 40
1
 10
-192.549530
 20
171.613540
 30
0.0
 10
-192.592630
 20
171.566240
 30
0.0
 10
-205.515490
 20
99.072510
 30
0.0
 10
-208.242810
 20
83.578720
 30
0.0
  0
LWPOLYLINE
  5
14a
100
AcDbEntity
  8
Ebene_1
 62
7
100
AcDbPolyline
 90
3
 70
0
 10
-157.365550
 20
174.799830
 30
0.0
 10
-156.960060
 20
174.592960
 30
0.0
 10
-157.483110
 20
173.873810
 30
0.0
  0
SPLINE
  5
14b
100
AcDbEntity
  8
Ebene_1
 62
7
100
AcDbSpline
 70
8
 71
3
 72
8
 73
4
 74
0
 40
0
 40
0
 40
0
 40
0
 40
1
 40
1
 40
1
 40
1
 10
-156.959490
 20
178.498250
 30
0.0
 10
-169.312510
 20
183.708090
 30
0.0
 10
-183.347000
 20
187.023280
 30
0.0
 10
-197.348870
 20
188.038920
 30
0.0
  0
SPLINE
  5
14c
100
AcDbEntity
  8
Ebene_1
 62
7
100
AcDbSpline
 70
8
 71
3
 72
8
 73
4
 74
0
 40
0
 40
0
 40
0
 40
0
 40
1
 40
1
 40
1
 40
1
 10
-197.348870
 20
188.038920
 30
0.0
 10
-201.847350
 20
188.365240
 30
0.0
 10
-211.192920
 20
188.472090
 30
0.0
 10
-215.718330
 20
188.248960
 30
0.0
  0
SPLINE
  5
14d
100
AcDbEntity
  8
Ebene_1
 62
7
100
AcDbSpline
 70
8
 71
3
 72
8
 73
4
 74
0
 40
0
 40
0
 40
0
 40
0
 40
1
 40
1
 40
1
 40
1
 10
-215.718330
 20
188.248960
 30
0.0
 10
-231.400930
 20
187.475730
 30
0.0
 10
-245.829230
 20
184.279680
 30
0.0
 10
-259.695650
 20
178.507510
 30
0.0
  0
SPLINE
  5
14e
100
AcDbEntity
  8
Ebene_1
 62
7
100
AcDbSpline
 70
8
 71
3
 72
8
 73
4
 74
0
 40
0
 40
0
 40
0
 40
0
 40
1
 40
1
 40
1
 40
1
 10
-259.695650
 20
178.507510
 30
0.0
 10
-260.651010
 20
178.109840
 30
0.0
 10
-261.492090
 20
177.807260
 30
0.0
 10
-261.564830
 20
177.835150
 30
0.0
  0
SPLINE
  5
14f
100
AcDbEntity
  8
Ebene_1
 62
7
100
AcDbSpline
 70
8
 71
3
 72
8
 73
4
 74
0
 40
0
 40
0
 40
0
 40
0
 40
1
 40
1
 40
1
 40
1
 10
-261.564830
 20
177.835150
 30
0.0
 10
-261.637730
 20
177.863150
 30
0.0
 10
-262.235640
 20
178.972660
 30
0.0
 10
-262.893910
 20
180.300960
 30
0.0
  0
SPLINE
  5
150
100
AcDbEntity
  8
Ebene_1
 62
7
100
AcDbSpline
 70
8
 71
3
 72
8
 73
4
 74
0
 40
0
 40
0
 40
0
 40
0
 40
1
 40
1
 40
1
 40
1
 10
-262.893910
 20
180.300960
 30
0.0
 10
-264.125600
 20
182.786140
 30
0.0
 10
-264.699620
 20
184.077130
 30
0.0
 10
-264.611880
 20
184.164870
 30
0.0
  0
SPLINE
  5
151
100
AcDbEntity
  8
Ebene_1
 62
7
100
AcDbSpline
 70
8
 71
3
 72
8
 73
4
 74
0
 40
0
 40
0
 40
0
 40
0
 40
1
 40
1
 40
1
 40
1
 10
-264.611880
 20
184.164870
 30
0.0
 10
-264.521980
 20
184.254770
 30
0.0
 10
-260.905800
 20
185.620800
 30
0.0
 10
-258.786130
 20
186.365750
 30
0.0
  0
SPLINE
  5
152
100
AcDbEntity
  8
Ebene_1
 62
7
100
AcDbSpline
 70
8
 71
3
 72
8
 73
4
 74
0
 40
0
 40
0
 40
0
 40
0
 40
1
 40
1
 40
1
 40
1
 10
-258.786130
 20
186.365750
 30
0.0
 10
-238.914900
 20
193.349460
 30
0.0
 10
-217.692930
 20
196.243490
 30
0.0
 10
-197.607430
 20
194.708730
 30
0.0
  0
SPLINE
  5
153
100
AcDbEntity
  8
Ebene_1
 62
7
100
AcDbSpline
 70
8
 71
3
 72
8
 73
4
 74
0
 40
0
 40
0
 40
0
 40
0
 40
1
 40
1
 40
1
 40
1
 10
-197.607430
 20
194.708730
 30
0.0
 10
-182.584650
 20
193.560830
 30
0.0
 10
-168.426400
 20
190.391900
 30
0.0
 10
-154.014250
 20
184.951690
 30
0.0
  0
SPLINE
  5
154
100
AcDbEntity
  8
Ebene_1
 62
7
100
AcDbSpline
 70
8
 71
3
 72
8
 73
4
 74
0
 40
0
 40
0
 40
0
 40
0
 40
1
 40
1
 40
1
 40
1
 10
-154.014250
 20
184.951690
 30
0.0
 10
-152.941230
 20
184.546640
 30
0.0
 10
-152.044860
 20
184.196820
 30
0.0
 10
-152.022330
 20
184.174270
 30
0.0
  0
SPLINE
  5
155
100
AcDbEntity
  8
Ebene_1
 62
7
100
AcDbSpline
 70
8
 71
3
 72
8
 73
4
 74
0
 40
0
 40
0
 40
0
 40
0
 40
1
 40
1
 40
1
 40
1
 10
-152.022330
 20
184.174270
 30
0.0
 10
-151.904510
 20
184.056460
 30
0.0
 10
-154.786240
 20
178.040670
 30
0.0
 10
-155.078240
 20
177.794840
 30
0.0
  0
SPLINE
  5
156
100
AcDbEntity
  8
Ebene_1
 62
7
100
AcDbSpline
 70
8
 71
3
 72
8
 73
4
 74
0
 40
0
 40
0
 40
0
 40
0
 40
1
 40
1
 40
1
 40
1
 10
-155.078240
 20
177.794840
 30
0.0
 10
-155.117540
 20
177.761840
 30
0.0
 10
-155.963990
 20
178.078400
 30
0.0
 10
-156.959490
 20
178.498250
 30
0.0
  0
LWPOLYLINE
  5
157
100
AcDbEntity
  8
Ebene_1
 62
7
100
AcDbPolyline
 90
3
 70
0
 10
-208.242810
 20
83.578720
 30
0.0
 10
-208.324710
 20
83.113310
 30
0.0
 10
-208.393410
 20
83.475190
 30
0.0
  0
LWPOLYLINE
  5
158
100
AcDbEntity
  8
Ebene_1
 62
7
100
AcDbPolyline
 90
1
 70
1
 10
-156.959490
 20
178.498250
 30
0.0
  0
SPLINE
  5
159
100
AcDbEntity
  8
Ebene_1
 62
7
100
AcDbSpline
 70
8
 71
3
 72
8
 73
4
 74
0
 40
0
 40
0
 40
0
 40
0
 40
1
 40
1
 40
1
 40
1
 10
43.389250
 20
194.600970
 30
0.0
 10
42.713550
 20
193.974703
 30
0.0
 10
42.029607
 20
193.480283
 30
0.0
 10
41.337420
 20
193.117710
 30
0.0
  0
SPLINE
  5
15a
100
AcDbEntity
  8
Ebene_1
 62
7
100
AcDbSpline
 70
8
 71
3
 72
8
 73
4
 74
0
 40
0
 40
0
 40
0
 40
0
 40
1
 40
1
 40
1
 40
1
 10
41.337420
 20
193.117710
 30
0.0
 10
40.661713
 20
192.755137
 30
0.0
 10
39.829440
 20
192.573850
 30
0.0
 10
38.840600
 20
192.573850
 30
0.0
  0
SPLINE
  5
15b
100
AcDbEntity
  8
Ebene_1
 62
7
100
AcDbSpline
 70
8
 71
3
 72
8
 73
4
 74
0
 40
0
 40
0
 40
0
 40
0
 40
1
 40
1
 40
1
 40
1
 10
38.840600
 20
192.573850
 30
0.0
 10
38.098973
 20
192.573850
 30
0.0
 10
37.415030
 20
192.713937
 30
0.0
 10
36.788770
 20
192.994110
 30
0.0
  0
SPLINE
  5
15c
100
AcDbEntity
  8
Ebene_1
 62
7
100
AcDbSpline
 70
8
 71
3
 72
8
 73
4
 74
0
 40
0
 40
0
 40
0
 40
0
 40
1
 40
1
 40
1
 40
1
 10
36.788770
 20
192.994110
 30
0.0
 10
36.178983
 20
193.290763
 30
0.0
 10
35.651603
 20
193.686297
 30
0.0
 10
35.206630
 20
194.180710
 30
0.0
  0
SPLINE
  5
15d
100
AcDbEntity
  8
Ebene_1
 62
7
100
AcDbSpline
 70
8
 71
3
 72
8
 73
4
 74
0
 40
0
 40
0
 40
0
 40
0
 40
1
 40
1
 40
1
 40
1
 10
35.206630
 20
194.180710
 30
0.0
 10
34.778130
 20
194.675130
 30
0.0
 10
34.440277
 20
195.251953
 30
0.0
 10
34.193070
 20
195.911180
 30
0.0
  0
SPLINE
  5
15e
100
AcDbEntity
  8
Ebene_1
 62
7
100
AcDbSpline
 70
8
 71
3
 72
8
 73
4
 74
0
 40
0
 40
0
 40
0
 40
0
 40
1
 40
1
 40
1
 40
1
 10
34.193070
 20
195.911180
 30
0.0
 10
33.945857
 20
196.570407
 30
0.0
 10
33.822250
 20
197.270833
 30
0.0
 10
33.822250
 20
198.012460
 30
0.0
  0
LWPOLYLINE
  5
15f
100
AcDbEntity
  8
Ebene_1
 62
7
100
AcDbPolyline
 90
2
 70
0
 10
45.811900
 20
192.153600
 30
0.0
 10
43.389250
 20
194.600970
 30
0.0
  0
SPLINE
  5
160
100
AcDbEntity
  8
Ebene_1
 62
7
100
AcDbSpline
 70
8
 71
3
 72
8
 73
4
 74
0
 40
0
 40
0
 40
0
 40
0
 40
1
 40
1
 40
1
 40
1
 10
33.822250
 20
198.061860
 30
0.0
 10
33.822250
 20
198.803487
 30
0.0
 10
33.945857
 20
199.495673
 30
0.0
 10
34.193070
 20
200.138420
 30
0.0
  0
SPLINE
  5
161
100
AcDbEntity
  8
Ebene_1
 62
7
100
AcDbSpline
 70
8
 71
3
 72
8
 73
4
 74
0
 40
0
 40
0
 40
0
 40
0
 40
1
 40
1
 40
1
 40
1
 10
34.193070
 20
200.138420
 30
0.0
 10
34.440277
 20
200.797640
 30
0.0
 10
34.786370
 20
201.374460
 30
0.0
 10
35.231350
 20
201.868880
 30
0.0
  0
SPLINE
  5
162
100
AcDbEntity
  8
Ebene_1
 62
7
100
AcDbSpline
 70
8
 71
3
 72
8
 73
4
 74
0
 40
0
 40
0
 40
0
 40
0
 40
1
 40
1
 40
1
 40
1
 10
35.231350
 20
201.868880
 30
0.0
 10
35.676323
 20
202.363300
 30
0.0
 10
36.203703
 20
202.750597
 30
0.0
 10
36.813490
 20
203.030770
 30
0.0
  0
SPLINE
  5
163
100
AcDbEntity
  8
Ebene_1
 62
7
100
AcDbSpline
 70
8
 71
3
 72
8
 73
4
 74
0
 40
0
 40
0
 40
0
 40
0
 40
1
 40
1
 40
1
 40
1
 10
36.813490
 20
203.030770
 30
0.0
 10
37.439750
 20
203.310937
 30
0.0
 10
38.115453
 20
203.451020
 30
0.0
 10
38.840600
 20
203.451020
 30
0.0
  0
SPLINE
  5
164
100
AcDbEntity
  8
Ebene_1
 62
7
100
AcDbSpline
 70
8
 71
3
 72
8
 73
4
 74
0
 40
0
 40
0
 40
0
 40
0
 40
1
 40
1
 40
1
 40
1
 10
38.840600
 20
203.451020
 30
0.0
 10
39.714073
 20
203.451020
 30
0.0
 10
40.496903
 20
203.277973
 30
0.0
 10
41.189090
 20
202.931880
 30
0.0
  0
SPLINE
  5
165
100
AcDbEntity
  8
Ebene_1
 62
7
100
AcDbSpline
 70
8
 71
3
 72
8
 73
4
 74
0
 40
0
 40
0
 40
0
 40
0
 40
1
 40
1
 40
1
 40
1
 10
41.189090
 20
202.931880
 30
0.0
 10
41.897757
 20
202.585787
 30
0.0
 10
42.589943
 20
202.107850
 30
0.0
 10
43.265650
 20
201.498070
 30
0.0
  0
LWPOLYLINE
  5
166
100
AcDbEntity
  8
Ebene_1
 62
7
100
AcDbPolyline
 90
2
 70
0
 10
33.822250
 20
198.012460
 30
0.0
 10
33.822250
 20
198.061860
 30
0.0
  0
SPLINE
  5
167
100
AcDbEntity
  8
Ebene_1
 62
7
100
AcDbSpline
 70
8
 71
3
 72
8
 73
4
 74
0
 40
0
 40
0
 40
0
 40
0
 40
1
 40
1
 40
1
 40
1
 10
45.688300
 20
204.291530
 30
0.0
 10
45.292767
 20
204.687070
 30
0.0
 10
44.864270
 20
205.049643
 30
0.0
 10
44.402810
 20
205.379250
 30
0.0
  0
SPLINE
  5
168
100
AcDbEntity
  8
Ebene_1
 62
7
100
AcDbSpline
 70
8
 71
3
 72
8
 73
4
 74
0
 40
0
 40
0
 40
0
 40
0
 40
1
 40
1
 40
1
 40
1
 10
44.402810
 20
205.379250
 30
0.0
 10
43.941357
 20
205.708863
 30
0.0
 10
43.438700
 20
205.989037
 30
0.0
 10
42.894840
 20
206.219770
 30
0.0
  0
SPLINE
  5
169
100
AcDbEntity
  8
Ebene_1
 62
7
100
AcDbSpline
 70
8
 71
3
 72
8
 73
4
 74
0
 40
0
 40
0
 40
0
 40
0
 40
1
 40
1
 40
1
 40
1
 10
42.894840
 20
206.219770
 30
0.0
 10
42.350973
 20
206.450497
 30
0.0
 10
41.741190
 20
206.631783
 30
0.0
 10
41.065490
 20
206.763630
 30
0.0
  0
SPLINE
  5
16a
100
AcDbEntity
  8
Ebene_1
 62
7
100
AcDbSpline
 70
8
 71
3
 72
8
 73
4
 74
0
 40
0
 40
0
 40
0
 40
0
 40
1
 40
1
 40
1
 40
1
 10
41.065490
 20
206.763630
 30
0.0
 10
40.406263
 20
206.895470
 30
0.0
 10
39.672873
 20
206.961390
 30
0.0
 10
38.865320
 20
206.961390
 30
0.0
  0
SPLINE
  5
16b
100
AcDbEntity
  8
Ebene_1
 62
7
100
AcDbSpline
 70
8
 71
3
 72
8
 73
4
 74
0
 40
0
 40
0
 40
0
 40
0
 40
1
 40
1
 40
1
 40
1
 10
38.865320
 20
206.961390
 30
0.0
 10
37.530393
 20
206.961390
 30
0.0
 10
36.310830
 20
206.722423
 30
0.0
 10
35.206630
 20
206.244490
 30
0.0
  0
SPLINE
  5
16c
100
AcDbEntity
  8
Ebene_1
 62
7
100
AcDbSpline
 70
8
 71
3
 72
8
 73
4
 74
0
 40
0
 40
0
 40
0
 40
0
 40
1
 40
1
 40
1
 40
1
 10
35.206630
 20
206.244490
 30
0.0
 10
34.102423
 20
205.783030
 30
0.0
 10
33.154787
 20
205.140283
 30
0.0
 10
32.363720
 20
204.316250
 30
0.0
  0
SPLINE
  5
16d
100
AcDbEntity
  8
Ebene_1
 62
7
100
AcDbSpline
 70
8
 71
3
 72
8
 73
4
 74
0
 40
0
 40
0
 40
0
 40
0
 40
1
 40
1
 40
1
 40
1
 10
32.363720
 20
204.316250
 30
0.0
 10
31.572653
 20
203.508703
 30
0.0
 10
30.954630
 20
202.561070
 30
0.0
 10
30.509650
 20
201.473350
 30
0.0
  0
SPLINE
  5
16e
100
AcDbEntity
  8
Ebene_1
 62
7
100
AcDbSpline
 70
8
 71
3
 72
8
 73
4
 74
0
 40
0
 40
0
 40
0
 40
0
 40
1
 40
1
 40
1
 40
1
 10
30.509650
 20
201.473350
 30
0.0
 10
30.064677
 20
200.402110
 30
0.0
 10
29.842190
 20
199.248467
 30
0.0
 10
29.842190
 20
198.012420
 30
0.0
  0
LWPOLYLINE
  5
16f
100
AcDbEntity
  8
Ebene_1
 62
7
100
AcDbPolyline
 90
2
 70
0
 10
43.265650
 20
201.498070
 30
0.0
 10
45.688300
 20
204.291530
 30
0.0
  0
SPLINE
  5
170
100
AcDbEntity
  8
Ebene_1
 62
7
100
AcDbSpline
 70
8
 71
3
 72
8
 73
4
 74
0
 40
0
 40
0
 40
0
 40
0
 40
1
 40
1
 40
1
 40
1
 10
29.842190
 20
197.963020
 30
0.0
 10
29.842190
 20
196.726973
 30
0.0
 10
30.064677
 20
195.565087
 30
0.0
 10
30.509650
 20
194.477360
 30
0.0
  0
SPLINE
  5
171
100
AcDbEntity
  8
Ebene_1
 62
7
100
AcDbSpline
 70
8
 71
3
 72
8
 73
4
 74
0
 40
0
 40
0
 40
0
 40
0
 40
1
 40
1
 40
1
 40
1
 10
30.509650
 20
194.477360
 30
0.0
 10
30.954630
 20
193.389640
 30
0.0
 10
31.572653
 20
192.442007
 30
0.0
 10
32.363720
 20
191.634460
 30
0.0
  0
SPLINE
  5
172
100
AcDbEntity
  8
Ebene_1
 62
7
100
AcDbSpline
 70
8
 71
3
 72
8
 73
4
 74
0
 40
0
 40
0
 40
0
 40
0
 40
1
 40
1
 40
1
 40
1
 10
32.363720
 20
191.634460
 30
0.0
 10
33.154787
 20
190.843387
 30
0.0
 10
34.094183
 20
190.217123
 30
0.0
 10
35.181910
 20
189.755670
 30
0.0
  0
SPLINE
  5
173
100
AcDbEntity
  8
Ebene_1
 62
7
100
AcDbSpline
 70
8
 71
3
 72
8
 73
4
 74
0
 40
0
 40
0
 40
0
 40
0
 40
1
 40
1
 40
1
 40
1
 10
35.181910
 20
189.755670
 30
0.0
 10
36.269630
 20
189.294210
 30
0.0
 10
37.447993
 20
189.063480
 30
0.0
 10
38.717000
 20
189.063480
 30
0.0
  0
SPLINE
  5
174
100
AcDbEntity
  8
Ebene_1
 62
7
100
AcDbSpline
 70
8
 71
3
 72
8
 73
4
 74
0
 40
0
 40
0
 40
0
 40
0
 40
1
 40
1
 40
1
 40
1
 10
38.717000
 20
189.063480
 30
0.0
 10
39.557513
 20
189.063480
 30
0.0
 10
40.315620
 20
189.137643
 30
0.0
 10
40.991320
 20
189.285970
 30
0.0
  0
SPLINE
  5
175
100
AcDbEntity
  8
Ebene_1
 62
7
100
AcDbSpline
 70
8
 71
3
 72
8
 73
4
 74
0
 40
0
 40
0
 40
0
 40
0
 40
1
 40
1
 40
1
 40
1
 10
40.991320
 20
189.285970
 30
0.0
 10
41.667027
 20
189.417817
 30
0.0
 10
42.285050
 20
189.615583
 30
0.0
 10
42.845390
 20
189.879270
 30
0.0
  0
SPLINE
  5
176
100
AcDbEntity
  8
Ebene_1
 62
7
100
AcDbSpline
 70
8
 71
3
 72
8
 73
4
 74
0
 40
0
 40
0
 40
0
 40
0
 40
1
 40
1
 40
1
 40
1
 10
42.845390
 20
189.879270
 30
0.0
 10
43.422217
 20
190.159443
 30
0.0
 10
43.949597
 20
190.489057
 30
0.0
 10
44.427530
 20
190.868110
 30
0.0
  0
SPLINE
  5
177
100
AcDbEntity
  8
Ebene_1
 62
7
100
AcDbSpline
 70
8
 71
3
 72
8
 73
4
 74
0
 40
0
 40
0
 40
0
 40
0
 40
1
 40
1
 40
1
 40
1
 10
44.427530
 20
190.868110
 30
0.0
 10
44.905470
 20
191.247163
 30
0.0
 10
45.366927
 20
191.675660
 30
0.0
 10
45.811900
 20
192.153600
 30
0.0
  0
LWPOLYLINE
  5
178
100
AcDbEntity
  8
Ebene_1
 62
7
100
AcDbPolyline
 90
2
 70
0
 10
29.842190
 20
198.012420
 30
0.0
 10
29.842190
 20
197.963020
 30
0.0
  0
LWPOLYLINE
  5
179
100
AcDbEntity
  8
Ebene_1
 62
7
100
AcDbPolyline
 90
1
 70
1
 10
45.811900
 20
192.153600
 30
0.0
  0
LWPOLYLINE
  5
17a
100
AcDbEntity
  8
Ebene_1
 62
7
100
AcDbPolyline
 90
12
 70
1
 10
63.494320
 20
189.360130
 30
0.0
 10
63.494320
 20
206.664780
 30
0.0
 10
59.687300
 20
206.664780
 30
0.0
 10
59.687300
 20
199.817090
 30
0.0
 10
52.666550
 20
199.817090
 30
0.0
 10
52.666550
 20
206.664780
 30
0.0
 10
48.859530
 20
206.664780
 30
0.0
 10
48.859530
 20
189.360130
 30
0.0
 10
52.666550
 20
189.360130
 30
0.0
 10
52.666550
 20
196.306710
 30
0.0
 10
59.687300
 20
196.306710
 30
0.0
 10
59.687300
 20
189.360130
 30
0.0
  0
LWPOLYLINE
  5
17b
100
AcDbEntity
  8
Ebene_1
 62
7
100
AcDbPolyline
 90
8
 70
1
 10
84.501320
 20
189.360130
 30
0.0
 10
77.085040
 20
206.788390
 30
0.0
 10
73.574670
 20
206.788390
 30
0.0
 10
66.158390
 20
189.360130
 30
0.0
 10
70.039580
 20
189.360130
 30
0.0
 10
71.621710
 20
193.241320
 30
0.0
 10
78.939110
 20
193.241320
 30
0.0
 10
80.521250
 20
189.360130
 30
0.0
  0
LWPOLYLINE
  5
17c
100
AcDbEntity
  8
Ebene_1
 62
7
100
AcDbPolyline
 90
3
 70
1
 10
77.579460
 20
196.603360
 30
0.0
 10
72.981370
 20
196.603360
 30
0.0
 10
75.280410
 20
202.215020
 30
0.0
  0
SPLINE
  5
17d
100
AcDbEntity
  8
Ebene_1
 62
7
100
AcDbSpline
 70
8
 71
3
 72
8
 73
4
 74
0
 40
0
 40
0
 40
0
 40
0
 40
1
 40
1
 40
1
 40
1
 10
97.876880
 20
195.540360
 30
0.0
 10
98.981087
 20
195.952380
 30
0.0
 10
99.871040
 20
196.595127
 30
0.0
 10
100.546740
 20
197.468600
 30
0.0
  0
SPLINE
  5
17e
100
AcDbEntity
  8
Ebene_1
 62
7
100
AcDbSpline
 70
8
 71
3
 72
8
 73
4
 74
0
 40
0
 40
0
 40
0
 40
0
 40
1
 40
1
 40
1
 40
1
 10
100.546740
 20
197.468600
 30
0.0
 10
101.238927
 20
198.358553
 30
0.0
 10
101.585020
 20
199.503957
 30
0.0
 10
101.585020
 20
200.904810
 30
0.0
  0
LWPOLYLINE
  5
17f
100
AcDbEntity
  8
Ebene_1
 62
7
100
AcDbPolyline
 90
2
 70
0
 10
102.104160
 20
189.360130
 30
0.0
 10
97.876880
 20
195.540360
 30
0.0
  0
SPLINE
  5
180
100
AcDbEntity
  8
Ebene_1
 62
7
100
AcDbSpline
 70
8
 71
3
 72
8
 73
4
 74
0
 40
0
 40
0
 40
0
 40
0
 40
1
 40
1
 40
1
 40
1
 10
101.585020
 20
200.954210
 30
0.0
 10
101.585020
 20
202.750597
 30
0.0
 10
101.008200
 20
204.151450
 30
0.0
 10
99.854560
 20
205.156770
 30
0.0
  0
SPLINE
  5
181
100
AcDbEntity
  8
Ebene_1
 62
7
100
AcDbSpline
 70
8
 71
3
 72
8
 73
4
 74
0
 40
0
 40
0
 40
0
 40
0
 40
1
 40
1
 40
1
 40
1
 10
99.854560
 20
205.156770
 30
0.0
 10
98.717393
 20
206.162083
 30
0.0
 10
97.118773
 20
206.664740
 30
0.0
 10
95.058700
 20
206.664740
 30
0.0
  0
LWPOLYLINE
  5
182
100
AcDbEntity
  8
Ebene_1
 62
7
100
AcDbPolyline
 90
2
 70
0
 10
101.585020
 20
200.904810
 30
0.0
 10
101.585020
 20
200.954210
 30
0.0
  0
SPLINE
  5
183
100
AcDbEntity
  8
Ebene_1
 62
7
100
AcDbSpline
 70
8
 71
3
 72
8
 73
4
 74
0
 40
0
 40
0
 40
0
 40
0
 40
1
 40
1
 40
1
 40
1
 10
97.728560
 20
200.707040
 30
0.0
 10
97.728560
 20
199.965413
 30
0.0
 10
97.473110
 20
199.372110
 30
0.0
 10
96.962210
 20
198.927130
 30
0.0
  0
SPLINE
  5
184
100
AcDbEntity
  8
Ebene_1
 62
7
100
AcDbSpline
 70
8
 71
3
 72
8
 73
4
 74
0
 40
0
 40
0
 40
0
 40
0
 40
1
 40
1
 40
1
 40
1
 10
96.962210
 20
198.927130
 30
0.0
 10
96.467790
 20
198.482157
 30
0.0
 10
95.750883
 20
198.259670
 30
0.0
 10
94.811490
 20
198.259670
 30
0.0
  0
LWPOLYLINE
  5
185
100
AcDbEntity
  8
Ebene_1
 62
7
100
AcDbPolyline
 90
8
 70
0
 10
95.058700
 20
206.664740
 30
0.0
 10
87.148000
 20
206.664740
 30
0.0
 10
87.148000
 20
189.360090
 30
0.0
 10
90.955020
 20
189.360090
 30
0.0
 10
90.955020
 20
194.897580
 30
0.0
 10
93.946260
 20
194.897580
 30
0.0
 10
97.654400
 20
189.360090
 30
0.0
 10
102.104160
 20
189.360130
 30
0.0
  0
SPLINE
  5
186
100
AcDbEntity
  8
Ebene_1
 62
7
100
AcDbSpline
 70
8
 71
3
 72
8
 73
4
 74
0
 40
0
 40
0
 40
0
 40
0
 40
1
 40
1
 40
1
 40
1
 10
94.737330
 20
203.228570
 30
0.0
 10
95.676723
 20
203.228570
 30
0.0
 10
96.410110
 20
203.022563
 30
0.0
 10
96.937490
 20
202.610550
 30
0.0
  0
SPLINE
  5
187
100
AcDbEntity
  8
Ebene_1
 62
7
100
AcDbSpline
 70
8
 71
3
 72
8
 73
4
 74
0
 40
0
 40
0
 40
0
 40
0
 40
1
 40
1
 40
1
 40
1
 10
96.937490
 20
202.610550
 30
0.0
 10
97.464870
 20
202.198537
 30
0.0
 10
97.728560
 20
201.580513
 30
0.0
 10
97.728560
 20
200.756480
 30
0.0
  0
LWPOLYLINE
  5
188
100
AcDbEntity
  8
Ebene_1
 62
7
100
AcDbPolyline
 90
4
 70
0
 10
94.811490
 20
198.259670
 30
0.0
 10
90.955020
 20
198.259670
 30
0.0
 10
90.955020
 20
203.228570
 30
0.0
 10
94.737330
 20
203.228570
 30
0.0
  0
LWPOLYLINE
  5
189
100
AcDbEntity
  8
Ebene_1
 62
7
100
AcDbPolyline
 90
2
 70
0
 10
97.728560
 20
200.756480
 30
0.0
 10
97.728560
 20
200.707040
 30
0.0
  0
SPLINE
  5
18a
100
AcDbEntity
  8
Ebene_1
 62
7
100
AcDbSpline
 70
8
 71
3
 72
8
 73
4
 74
0
 40
0
 40
0
 40
0
 40
0
 40
1
 40
1
 40
1
 40
1
 10
117.051824
 20
193.562690
 30
0.0
 10
116.079467
 20
192.870503
 30
0.0
 10
114.884622
 20
192.524410
 30
0.0
 10
113.467289
 20
192.524410
 30
0.0
  0
SPLINE
  5
18b
100
AcDbEntity
  8
Ebene_1
 62
7
100
AcDbSpline
 70
8
 71
3
 72
8
 73
4
 74
0
 40
0
 40
0
 40
0
 40
0
 40
1
 40
1
 40
1
 40
1
 10
113.467289
 20
192.524410
 30
0.0
 10
112.692700
 20
192.524410
 30
0.0
 10
111.984033
 20
192.656257
 30
0.0
 10
111.341289
 20
192.919950
 30
0.0
  0
SPLINE
  5
18c
100
AcDbEntity
  8
Ebene_1
 62
7
100
AcDbSpline
 70
8
 71
3
 72
8
 73
4
 74
0
 40
0
 40
0
 40
0
 40
0
 40
1
 40
1
 40
1
 40
1
 10
111.341289
 20
192.919950
 30
0.0
 10
110.715026
 20
193.200117
 30
0.0
 10
110.162925
 20
193.587410
 30
0.0
 10
109.684987
 20
194.081830
 30
0.0
  0
SPLINE
  5
18d
100
AcDbEntity
  8
Ebene_1
 62
7
100
AcDbSpline
 70
8
 71
3
 72
8
 73
4
 74
0
 40
0
 40
0
 40
0
 40
0
 40
1
 40
1
 40
1
 40
1
 10
109.684987
 20
194.081830
 30
0.0
 10
109.223530
 20
194.576250
 30
0.0
 10
108.860956
 20
195.153070
 30
0.0
 10
108.597266
 20
195.812290
 30
0.0
  0
SPLINE
  5
18e
100
AcDbEntity
  8
Ebene_1
 62
7
100
AcDbSpline
 70
8
 71
3
 72
8
 73
4
 74
0
 40
0
 40
0
 40
0
 40
0
 40
1
 40
1
 40
1
 40
1
 10
108.597266
 20
195.812290
 30
0.0
 10
108.350057
 20
196.487997
 30
0.0
 10
108.226452
 20
197.221387
 30
0.0
 10
108.226452
 20
198.012460
 30
0.0
  0
LWPOLYLINE
  5
18f
100
AcDbEntity
  8
Ebene_1
 62
7
100
AcDbPolyline
 90
6
 70
0
 10
120.735242
 20
191.807500
 30
0.0
 10
120.735242
 20
199.322670
 30
0.0
 10
113.220080
 20
199.322670
 30
0.0
 10
113.220080
 20
196.034780
 30
0.0
 10
117.051824
 20
196.034780
 30
0.0
 10
117.051824
 20
193.562690
 30
0.0
  0
SPLINE
  5
190
100
AcDbEntity
  8
Ebene_1
 62
7
100
AcDbSpline
 70
8
 71
3
 72
8
 73
4
 74
0
 40
0
 40
0
 40
0
 40
0
 40
1
 40
1
 40
1
 40
1
 10
108.226452
 20
198.061860
 30
0.0
 10
108.226452
 20
198.803487
 30
0.0
 10
108.350057
 20
199.495673
 30
0.0
 10
108.597266
 20
200.138420
 30
0.0
  0
SPLINE
  5
191
100
AcDbEntity
  8
Ebene_1
 62
7
100
AcDbSpline
 70
8
 71
3
 72
8
 73
4
 74
0
 40
0
 40
0
 40
0
 40
0
 40
1
 40
1
 40
1
 40
1
 10
108.597266
 20
200.138420
 30
0.0
 10
108.860956
 20
200.797640
 30
0.0
 10
109.215289
 20
201.366220
 30
0.0
 10
109.660266
 20
201.844160
 30
0.0
  0
SPLINE
  5
192
100
AcDbEntity
  8
Ebene_1
 62
7
100
AcDbSpline
 70
8
 71
3
 72
8
 73
4
 74
0
 40
0
 40
0
 40
0
 40
0
 40
1
 40
1
 40
1
 40
1
 10
109.660266
 20
201.844160
 30
0.0
 10
110.121723
 20
202.338580
 30
0.0
 10
110.649103
 20
202.725873
 30
0.0
 10
111.242406
 20
203.006040
 30
0.0
  0
SPLINE
  5
193
100
AcDbEntity
  8
Ebene_1
 62
7
100
AcDbSpline
 70
8
 71
3
 72
8
 73
4
 74
0
 40
0
 40
0
 40
0
 40
0
 40
1
 40
1
 40
1
 40
1
 10
111.242406
 20
203.006040
 30
0.0
 10
111.852189
 20
203.302693
 30
0.0
 10
112.503173
 20
203.451020
 30
0.0
 10
113.195359
 20
203.451020
 30
0.0
  0
SPLINE
  5
194
100
AcDbEntity
  8
Ebene_1
 62
7
100
AcDbSpline
 70
8
 71
3
 72
8
 73
4
 74
0
 40
0
 40
0
 40
0
 40
0
 40
1
 40
1
 40
1
 40
1
 10
113.195359
 20
203.451020
 30
0.0
 10
113.689778
 20
203.451020
 30
0.0
 10
114.142995
 20
203.409820
 30
0.0
 10
114.555010
 20
203.327420
 30
0.0
  0
SPLINE
  5
195
100
AcDbEntity
  8
Ebene_1
 62
7
100
AcDbSpline
 70
8
 71
3
 72
8
 73
4
 74
0
 40
0
 40
0
 40
0
 40
0
 40
1
 40
1
 40
1
 40
1
 10
114.555010
 20
203.327420
 30
0.0
 10
114.967025
 20
203.245013
 30
0.0
 10
115.346080
 20
203.129647
 30
0.0
 10
115.692173
 20
202.981320
 30
0.0
  0
SPLINE
  5
196
100
AcDbEntity
  8
Ebene_1
 62
7
100
AcDbSpline
 70
8
 71
3
 72
8
 73
4
 74
0
 40
0
 40
0
 40
0
 40
0
 40
1
 40
1
 40
1
 40
1
 10
115.692173
 20
202.981320
 30
0.0
 10
116.054746
 20
202.833000
 30
0.0
 10
116.400839
 20
202.651713
 30
0.0
 10
116.730452
 20
202.437460
 30
0.0
  0
SPLINE
  5
197
100
AcDbEntity
  8
Ebene_1
 62
7
100
AcDbSpline
 70
8
 71
3
 72
8
 73
4
 74
0
 40
0
 40
0
 40
0
 40
0
 40
1
 40
1
 40
1
 40
1
 10
116.730452
 20
202.437460
 30
0.0
 10
117.060064
 20
202.223213
 30
0.0
 10
117.389676
 20
201.976007
 30
0.0
 10
117.719289
 20
201.695840
 30
0.0
  0
LWPOLYLINE
  5
198
100
AcDbEntity
  8
Ebene_1
 62
7
100
AcDbPolyline
 90
2
 70
0
 10
108.226452
 20
198.012460
 30
0.0
 10
108.226452
 20
198.061860
 30
0.0
  0
SPLINE
  5
199
100
AcDbEntity
  8
Ebene_1
 62
7
100
AcDbSpline
 70
8
 71
3
 72
8
 73
4
 74
0
 40
0
 40
0
 40
0
 40
0
 40
1
 40
1
 40
1
 40
1
 10
120.117219
 20
204.588180
 30
0.0
 10
119.672242
 20
204.967240
 30
0.0
 10
119.210785
 20
205.305093
 30
0.0
 10
118.732847
 20
205.601740
 30
0.0
  0
SPLINE
  5
19a
100
AcDbEntity
  8
Ebene_1
 62
7
100
AcDbSpline
 70
8
 71
3
 72
8
 73
4
 74
0
 40
0
 40
0
 40
0
 40
0
 40
1
 40
1
 40
1
 40
1
 10
118.732847
 20
205.601740
 30
0.0
 10
118.254909
 20
205.898393
 30
0.0
 10
117.744010
 20
206.145603
 30
0.0
 10
117.200149
 20
206.343370
 30
0.0
  0
SPLINE
  5
19b
100
AcDbEntity
  8
Ebene_1
 62
7
100
AcDbSpline
 70
8
 71
3
 72
8
 73
4
 74
0
 40
0
 40
0
 40
0
 40
0
 40
1
 40
1
 40
1
 40
1
 10
117.200149
 20
206.343370
 30
0.0
 10
116.656289
 20
206.541137
 30
0.0
 10
116.062987
 20
206.689463
 30
0.0
 10
115.420242
 20
206.788350
 30
0.0
  0
SPLINE
  5
19c
100
AcDbEntity
  8
Ebene_1
 62
7
100
AcDbSpline
 70
8
 71
3
 72
8
 73
4
 74
0
 40
0
 40
0
 40
0
 40
0
 40
1
 40
1
 40
1
 40
1
 10
115.420242
 20
206.788350
 30
0.0
 10
114.793979
 20
206.903710
 30
0.0
 10
114.093553
 20
206.961390
 30
0.0
 10
113.318964
 20
206.961390
 30
0.0
  0
SPLINE
  5
19d
100
AcDbEntity
  8
Ebene_1
 62
7
100
AcDbSpline
 70
8
 71
3
 72
8
 73
4
 74
0
 40
0
 40
0
 40
0
 40
0
 40
1
 40
1
 40
1
 40
1
 10
113.318964
 20
206.961390
 30
0.0
 10
112.000514
 20
206.961390
 30
0.0
 10
110.789188
 20
206.722423
 30
0.0
 10
109.684987
 20
206.244490
 30
0.0
  0
SPLINE
  5
19e
100
AcDbEntity
  8
Ebene_1
 62
7
100
AcDbSpline
 70
8
 71
3
 72
8
 73
4
 74
0
 40
0
 40
0
 40
0
 40
0
 40
1
 40
1
 40
1
 40
1
 10
109.684987
 20
206.244490
 30
0.0
 10
108.580786
 20
205.783030
 30
0.0
 10
107.624910
 20
205.140283
 30
0.0
 10
106.817359
 20
204.316250
 30
0.0
  0
SPLINE
  5
19f
100
AcDbEntity
  8
Ebene_1
 62
7
100
AcDbSpline
 70
8
 71
3
 72
8
 73
4
 74
0
 40
0
 40
0
 40
0
 40
0
 40
1
 40
1
 40
1
 40
1
 10
106.817359
 20
204.316250
 30
0.0
 10
106.009806
 20
203.508703
 30
0.0
 10
105.375303
 20
202.561070
 30
0.0
 10
104.913850
 20
201.473350
 30
0.0
  0
SPLINE
  5
1a0
100
AcDbEntity
  8
Ebene_1
 62
7
100
AcDbSpline
 70
8
 71
3
 72
8
 73
4
 74
0
 40
0
 40
0
 40
0
 40
0
 40
1
 40
1
 40
1
 40
1
 10
104.913850
 20
201.473350
 30
0.0
 10
104.468870
 20
200.402110
 30
0.0
 10
104.246380
 20
199.248467
 30
0.0
 10
104.246380
 20
198.012420
 30
0.0
  0
LWPOLYLINE
  5
1a1
100
AcDbEntity
  8
Ebene_1
 62
7
100
AcDbPolyline
 90
2
 70
0
 10
117.719289
 20
201.695840
 30
0.0
 10
120.117219
 20
204.588180
 30
0.0
  0
SPLINE
  5
1a2
100
AcDbEntity
  8
Ebene_1
 62
7
100
AcDbSpline
 70
8
 71
3
 72
8
 73
4
 74
0
 40
0
 40
0
 40
0
 40
0
 40
1
 40
1
 40
1
 40
1
 10
104.246380
 20
197.963020
 30
0.0
 10
104.246380
 20
196.677527
 30
0.0
 10
104.468870
 20
195.490920
 30
0.0
 10
104.913850
 20
194.403200
 30
0.0
  0
SPLINE
  5
1a3
100
AcDbEntity
  8
Ebene_1
 62
7
100
AcDbSpline
 70
8
 71
3
 72
8
 73
4
 74
0
 40
0
 40
0
 40
0
 40
0
 40
1
 40
1
 40
1
 40
1
 10
104.913850
 20
194.403200
 30
0.0
 10
105.358823
 20
193.315480
 30
0.0
 10
105.976846
 20
192.376087
 30
0.0
 10
106.767918
 20
191.585020
 30
0.0
  0
SPLINE
  5
1a4
100
AcDbEntity
  8
Ebene_1
 62
7
100
AcDbSpline
 70
8
 71
3
 72
8
 73
4
 74
0
 40
0
 40
0
 40
0
 40
0
 40
1
 40
1
 40
1
 40
1
 10
106.767918
 20
191.585020
 30
0.0
 10
107.575468
 20
190.793947
 30
0.0
 10
108.531344
 20
190.175923
 30
0.0
 10
109.635545
 20
189.730950
 30
0.0
  0
SPLINE
  5
1a5
100
AcDbEntity
  8
Ebene_1
 62
7
100
AcDbSpline
 70
8
 71
3
 72
8
 73
4
 74
0
 40
0
 40
0
 40
0
 40
0
 40
1
 40
1
 40
1
 40
1
 10
109.635545
 20
189.730950
 30
0.0
 10
110.756227
 20
189.285970
 30
0.0
 10
111.992273
 20
189.063480
 30
0.0
 10
113.343684
 20
189.063480
 30
0.0
  0
SPLINE
  5
1a6
100
AcDbEntity
  8
Ebene_1
 62
7
100
AcDbSpline
 70
8
 71
3
 72
8
 73
4
 74
0
 40
0
 40
0
 40
0
 40
0
 40
1
 40
1
 40
1
 40
1
 10
113.343684
 20
189.063480
 30
0.0
 10
114.925824
 20
189.063480
 30
0.0
 10
116.326677
 20
189.327170
 30
0.0
 10
117.546242
 20
189.854550
 30
0.0
  0
SPLINE
  5
1a7
100
AcDbEntity
  8
Ebene_1
 62
7
100
AcDbSpline
 70
8
 71
3
 72
8
 73
4
 74
0
 40
0
 40
0
 40
0
 40
0
 40
1
 40
1
 40
1
 40
1
 10
117.546242
 20
189.854550
 30
0.0
 10
118.782289
 20
190.398410
 30
0.0
 10
119.845289
 20
191.049393
 30
0.0
 10
120.735242
 20
191.807500
 30
0.0
  0
LWPOLYLINE
  5
1a8
100
AcDbEntity
  8
Ebene_1
 62
7
100
AcDbPolyline
 90
2
 70
0
 10
104.246380
 20
198.012420
 30
0.0
 10
104.246380
 20
197.963020
 30
0.0
  0
LWPOLYLINE
  5
1a9
100
AcDbEntity
  8
Ebene_1
 62
7
100
AcDbPolyline
 90
1
 70
1
 10
120.735242
 20
191.807500
 30
0.0
  0
LWPOLYLINE
  5
1aa
100
AcDbEntity
  8
Ebene_1
 62
7
100
AcDbPolyline
 90
4
 70
1
 10
128.354312
 20
189.360130
 30
0.0
 10
128.354312
 20
206.664780
 30
0.0
 10
124.547289
 20
206.664780
 30
0.0
 10
124.547289
 20
189.360130
 30
0.0
  0
LWPOLYLINE
  5
1ab
100
AcDbEntity
  8
Ebene_1
 62
7
100
AcDbPolyline
 90
10
 70
1
 10
148.055348
 20
189.360130
 30
0.0
 10
148.055348
 20
206.664780
 30
0.0
 10
144.297767
 20
206.664780
 30
0.0
 10
144.297767
 20
196.010060
 30
0.0
 10
136.189302
 20
206.664780
 30
0.0
 10
132.678930
 20
206.664780
 30
0.0
 10
132.678930
 20
189.360130
 30
0.0
 10
136.436511
 20
189.360130
 30
0.0
 10
136.436511
 20
200.360950
 30
0.0
 10
144.816906
 20
189.360130
 30
0.0
  0
SPLINE
  5
1ac
100
AcDbEntity
  8
Ebene_1
 62
7
100
AcDbSpline
 70
8
 71
3
 72
8
 73
4
 74
0
 40
0
 40
0
 40
0
 40
0
 40
1
 40
1
 40
1
 40
1
 10
164.224378
 20
193.562690
 30
0.0
 10
163.252021
 20
192.870503
 30
0.0
 10
162.057176
 20
192.524410
 30
0.0
 10
160.639843
 20
192.524410
 30
0.0
  0
SPLINE
  5
1ad
100
AcDbEntity
  8
Ebene_1
 62
7
100
AcDbSpline
 70
8
 71
3
 72
8
 73
4
 74
0
 40
0
 40
0
 40
0
 40
0
 40
1
 40
1
 40
1
 40
1
 10
160.639843
 20
192.524410
 30
0.0
 10
159.865254
 20
192.524410
 30
0.0
 10
159.156587
 20
192.656257
 30
0.0
 10
158.513843
 20
192.919950
 30
0.0
  0
SPLINE
  5
1ae
100
AcDbEntity
  8
Ebene_1
 62
7
100
AcDbSpline
 70
8
 71
3
 72
8
 73
4
 74
0
 40
0
 40
0
 40
0
 40
0
 40
1
 40
1
 40
1
 40
1
 10
158.513843
 20
192.919950
 30
0.0
 10
157.887580
 20
193.200117
 30
0.0
 10
157.335479
 20
193.587410
 30
0.0
 10
156.857541
 20
194.081830
 30
0.0
  0
SPLINE
  5
1af
100
AcDbEntity
  8
Ebene_1
 62
7
100
AcDbSpline
 70
8
 71
3
 72
8
 73
4
 74
0
 40
0
 40
0
 40
0
 40
0
 40
1
 40
1
 40
1
 40
1
 10
156.857541
 20
194.081830
 30
0.0
 10
156.396084
 20
194.576250
 30
0.0
 10
156.033510
 20
195.153070
 30
0.0
 10
155.769820
 20
195.812290
 30
0.0
  0
SPLINE
  5
1b0
100
AcDbEntity
  8
Ebene_1
 62
7
100
AcDbSpline
 70
8
 71
3
 72
8
 73
4
 74
0
 40
0
 40
0
 40
0
 40
0
 40
1
 40
1
 40
1
 40
1
 10
155.769820
 20
195.812290
 30
0.0
 10
155.522611
 20
196.487997
 30
0.0
 10
155.399006
 20
197.221387
 30
0.0
 10
155.399006
 20
198.012460
 30
0.0
  0
LWPOLYLINE
  5
1b1
100
AcDbEntity
  8
Ebene_1
 62
7
100
AcDbPolyline
 90
6
 70
0
 10
167.907796
 20
191.807500
 30
0.0
 10
167.907796
 20
199.322670
 30
0.0
 10
160.392634
 20
199.322670
 30
0.0
 10
160.392634
 20
196.034780
 30
0.0
 10
164.224378
 20
196.034780
 30
0.0
 10
164.224378
 20
193.562690
 30
0.0
  0
SPLINE
  5
1b2
100
AcDbEntity
  8
Ebene_1
 62
7
100
AcDbSpline
 70
8
 71
3
 72
8
 73
4
 74
0
 40
0
 40
0
 40
0
 40
0
 40
1
 40
1
 40
1
 40
1
 10
155.399006
 20
198.061860
 30
0.0
 10
155.399006
 20
198.803487
 30
0.0
 10
155.522611
 20
199.495673
 30
0.0
 10
155.769820
 20
200.138420
 30
0.0
  0
SPLINE
  5
1b3
100
AcDbEntity
  8
Ebene_1
 62
7
100
AcDbSpline
 70
8
 71
3
 72
8
 73
4
 74
0
 40
0
 40
0
 40
0
 40
0
 40
1
 40
1
 40
1
 40
1
 10
155.769820
 20
200.138420
 30
0.0
 10
156.033510
 20
200.797640
 30
0.0
 10
156.387843
 20
201.366220
 30
0.0
 10
156.832820
 20
201.844160
 30
0.0
  0
SPLINE
  5
1b4
100
AcDbEntity
  8
Ebene_1
 62
7
100
AcDbSpline
 70
8
 71
3
 72
8
 73
4
 74
0
 40
0
 40
0
 40
0
 40
0
 40
1
 40
1
 40
1
 40
1
 10
156.832820
 20
201.844160
 30
0.0
 10
157.294277
 20
202.338580
 30
0.0
 10
157.821657
 20
202.725873
 30
0.0
 10
158.414960
 20
203.006040
 30
0.0
  0
SPLINE
  5
1b5
100
AcDbEntity
  8
Ebene_1
 62
7
100
AcDbSpline
 70
8
 71
3
 72
8
 73
4
 74
0
 40
0
 40
0
 40
0
 40
0
 40
1
 40
1
 40
1
 40
1
 10
158.414960
 20
203.006040
 30
0.0
 10
159.024743
 20
203.302693
 30
0.0
 10
159.675727
 20
203.451020
 30
0.0
 10
160.367913
 20
203.451020
 30
0.0
  0
SPLINE
  5
1b6
100
AcDbEntity
  8
Ebene_1
 62
7
100
AcDbSpline
 70
8
 71
3
 72
8
 73
4
 74
0
 40
0
 40
0
 40
0
 40
0
 40
1
 40
1
 40
1
 40
1
 10
160.367913
 20
203.451020
 30
0.0
 10
160.862332
 20
203.451020
 30
0.0
 10
161.315549
 20
203.409820
 30
0.0
 10
161.727564
 20
203.327420
 30
0.0
  0
SPLINE
  5
1b7
100
AcDbEntity
  8
Ebene_1
 62
7
100
AcDbSpline
 70
8
 71
3
 72
8
 73
4
 74
0
 40
0
 40
0
 40
0
 40
0
 40
1
 40
1
 40
1
 40
1
 10
161.727564
 20
203.327420
 30
0.0
 10
162.139579
 20
203.245013
 30
0.0
 10
162.518634
 20
203.129647
 30
0.0
 10
162.864727
 20
202.981320
 30
0.0
  0
SPLINE
  5
1b8
100
AcDbEntity
  8
Ebene_1
 62
7
100
AcDbSpline
 70
8
 71
3
 72
8
 73
4
 74
0
 40
0
 40
0
 40
0
 40
0
 40
1
 40
1
 40
1
 40
1
 10
162.864727
 20
202.981320
 30
0.0
 10
163.227300
 20
202.833000
 30
0.0
 10
163.573393
 20
202.651713
 30
0.0
 10
163.903006
 20
202.437460
 30
0.0
  0
SPLINE
  5
1b9
100
AcDbEntity
  8
Ebene_1
 62
7
100
AcDbSpline
 70
8
 71
3
 72
8
 73
4
 74
0
 40
0
 40
0
 40
0
 40
0
 40
1
 40
1
 40
1
 40
1
 10
163.903006
 20
202.437460
 30
0.0
 10
164.232618
 20
202.223213
 30
0.0
 10
164.562230
 20
201.976007
 30
0.0
 10
164.891843
 20
201.695840
 30
0.0
  0
LWPOLYLINE
  5
1ba
100
AcDbEntity
  8
Ebene_1
 62
7
100
AcDbPolyline
 90
2
 70
0
 10
155.399006
 20
198.012460
 30
0.0
 10
155.399006
 20
198.061860
 30
0.0
  0
SPLINE
  5
1bb
100
AcDbEntity
  8
Ebene_1
 62
7
100
AcDbSpline
 70
8
 71
3
 72
8
 73
4
 74
0
 40
0
 40
0
 40
0
 40
0
 40
1
 40
1
 40
1
 40
1
 10
167.289773
 20
204.588180
 30
0.0
 10
166.844796
 20
204.967240
 30
0.0
 10
166.383339
 20
205.305093
 30
0.0
 10
165.905401
 20
205.601740
 30
0.0
  0
SPLINE
  5
1bc
100
AcDbEntity
  8
Ebene_1
 62
7
100
AcDbSpline
 70
8
 71
3
 72
8
 73
4
 74
0
 40
0
 40
0
 40
0
 40
0
 40
1
 40
1
 40
1
 40
1
 10
165.905401
 20
205.601740
 30
0.0
 10
165.427463
 20
205.898393
 30
0.0
 10
164.916564
 20
206.145603
 30
0.0
 10
164.372703
 20
206.343370
 30
0.0
  0
SPLINE
  5
1bd
100
AcDbEntity
  8
Ebene_1
 62
7
100
AcDbSpline
 70
8
 71
3
 72
8
 73
4
 74
0
 40
0
 40
0
 40
0
 40
0
 40
1
 40
1
 40
1
 40
1
 10
164.372703
 20
206.343370
 30
0.0
 10
163.828843
 20
206.541137
 30
0.0
 10
163.235541
 20
206.689463
 30
0.0
 10
162.592796
 20
206.788350
 30
0.0
  0
SPLINE
  5
1be
100
AcDbEntity
  8
Ebene_1
 62
7
100
AcDbSpline
 70
8
 71
3
 72
8
 73
4
 74
0
 40
0
 40
0
 40
0
 40
0
 40
1
 40
1
 40
1
 40
1
 10
162.592796
 20
206.788350
 30
0.0
 10
161.966533
 20
206.903710
 30
0.0
 10
161.266107
 20
206.961390
 30
0.0
 10
160.491518
 20
206.961390
 30
0.0
  0
SPLINE
  5
1bf
100
AcDbEntity
  8
Ebene_1
 62
7
100
AcDbSpline
 70
8
 71
3
 72
8
 73
4
 74
0
 40
0
 40
0
 40
0
 40
0
 40
1
 40
1
 40
1
 40
1
 10
160.491518
 20
206.961390
 30
0.0
 10
159.173068
 20
206.961390
 30
0.0
 10
157.961742
 20
206.722423
 30
0.0
 10
156.857541
 20
206.244490
 30
0.0
  0
SPLINE
  5
1c0
100
AcDbEntity
  8
Ebene_1
 62
7
100
AcDbSpline
 70
8
 71
3
 72
8
 73
4
 74
0
 40
0
 40
0
 40
0
 40
0
 40
1
 40
1
 40
1
 40
1
 10
156.857541
 20
206.244490
 30
0.0
 10
155.753340
 20
205.783030
 30
0.0
 10
154.797464
 20
205.140283
 30
0.0
 10
153.989913
 20
204.316250
 30
0.0
  0
SPLINE
  5
1c1
100
AcDbEntity
  8
Ebene_1
 62
7
100
AcDbSpline
 70
8
 71
3
 72
8
 73
4
 74
0
 40
0
 40
0
 40
0
 40
0
 40
1
 40
1
 40
1
 40
1
 10
153.989913
 20
204.316250
 30
0.0
 10
153.182363
 20
203.508703
 30
0.0
 10
152.547859
 20
202.561070
 30
0.0
 10
152.086402
 20
201.473350
 30
0.0
  0
SPLINE
  5
1c2
100
AcDbEntity
  8
Ebene_1
 62
7
100
AcDbSpline
 70
8
 71
3
 72
8
 73
4
 74
0
 40
0
 40
0
 40
0
 40
0
 40
1
 40
1
 40
1
 40
1
 10
152.086402
 20
201.473350
 30
0.0
 10
151.641425
 20
200.402110
 30
0.0
 10
151.418937
 20
199.248467
 30
0.0
 10
151.418937
 20
198.012420
 30
0.0
  0
LWPOLYLINE
  5
1c3
100
AcDbEntity
  8
Ebene_1
 62
7
100
AcDbPolyline
 90
2
 70
0
 10
164.891843
 20
201.695840
 30
0.0
 10
167.289773
 20
204.588180
 30
0.0
  0
SPLINE
  5
1c4
100
AcDbEntity
  8
Ebene_1
 62
7
100
AcDbSpline
 70
8
 71
3
 72
8
 73
4
 74
0
 40
0
 40
0
 40
0
 40
0
 40
1
 40
1
 40
1
 40
1
 10
151.418937
 20
197.963020
 30
0.0
 10
151.418937
 20
196.677527
 30
0.0
 10
151.641425
 20
195.490920
 30
0.0
 10
152.086402
 20
194.403200
 30
0.0
  0
SPLINE
  5
1c5
100
AcDbEntity
  8
Ebene_1
 62
7
100
AcDbSpline
 70
8
 71
3
 72
8
 73
4
 74
0
 40
0
 40
0
 40
0
 40
0
 40
1
 40
1
 40
1
 40
1
 10
152.086402
 20
194.403200
 30
0.0
 10
152.531379
 20
193.315480
 30
0.0
 10
153.149402
 20
192.376087
 30
0.0
 10
153.940472
 20
191.585020
 30
0.0
  0
SPLINE
  5
1c6
100
AcDbEntity
  8
Ebene_1
 62
7
100
AcDbSpline
 70
8
 71
3
 72
8
 73
4
 74
0
 40
0
 40
0
 40
0
 40
0
 40
1
 40
1
 40
1
 40
1
 10
153.940472
 20
191.585020
 30
0.0
 10
154.748022
 20
190.793947
 30
0.0
 10
155.703898
 20
190.175923
 30
0.0
 10
156.808099
 20
189.730950
 30
0.0
  0
SPLINE
  5
1c7
100
AcDbEntity
  8
Ebene_1
 62
7
100
AcDbSpline
 70
8
 71
3
 72
8
 73
4
 74
0
 40
0
 40
0
 40
0
 40
0
 40
1
 40
1
 40
1
 40
1
 10
156.808099
 20
189.730950
 30
0.0
 10
157.928781
 20
189.285970
 30
0.0
 10
159.164827
 20
189.063480
 30
0.0
 10
160.516238
 20
189.063480
 30
0.0
  0
SPLINE
  5
1c8
100
AcDbEntity
  8
Ebene_1
 62
7
100
AcDbSpline
 70
8
 71
3
 72
8
 73
4
 74
0
 40
0
 40
0
 40
0
 40
0
 40
1
 40
1
 40
1
 40
1
 10
160.516238
 20
189.063480
 30
0.0
 10
162.098378
 20
189.063480
 30
0.0
 10
163.499231
 20
189.327170
 30
0.0
 10
164.718796
 20
189.854550
 30
0.0
  0
SPLINE
  5
1c9
100
AcDbEntity
  8
Ebene_1
 62
7
100
AcDbSpline
 70
8
 71
3
 72
8
 73
4
 74
0
 40
0
 40
0
 40
0
 40
0
 40
1
 40
1
 40
1
 40
1
 10
164.718796
 20
189.854550
 30
0.0
 10
165.954843
 20
190.398410
 30
0.0
 10
167.017843
 20
191.049393
 30
0.0
 10
167.907796
 20
191.807500
 30
0.0
  0
LWPOLYLINE
  5
1ca
100
AcDbEntity
  8
Ebene_1
 62
7
100
AcDbPolyline
 90
2
 70
0
 10
151.418937
 20
198.012420
 30
0.0
 10
151.418937
 20
197.963020
 30
0.0
  0
LWPOLYLINE
  5
1cb
100
AcDbEntity
  8
Ebene_1
 62
7
100
AcDbPolyline
 90
1
 70
1
 10
167.907796
 20
191.807500
 30
0.0
  0
SPLINE
  5
1cc
100
AcDbEntity
  8
Ebene_1
 62
7
100
AcDbSpline
 70
8
 71
3
 72
8
 73
4
 74
0
 40
0
 40
0
 40
0
 40
0
 40
1
 40
1
 40
1
 40
1
 10
55.477790
 20
169.805840
 30
0.0
 10
55.477790
 20
170.563947
 30
0.0
 10
55.354183
 20
171.214930
 30
0.0
 10
55.106970
 20
171.758790
 30
0.0
  0
SPLINE
  5
1cd
100
AcDbEntity
  8
Ebene_1
 62
7
100
AcDbSpline
 70
8
 71
3
 72
8
 73
4
 74
0
 40
0
 40
0
 40
0
 40
0
 40
1
 40
1
 40
1
 40
1
 10
55.106970
 20
171.758790
 30
0.0
 10
54.876243
 20
172.302650
 30
0.0
 10
54.521910
 20
172.772347
 30
0.0
 10
54.043970
 20
173.167880
 30
0.0
  0
SPLINE
  5
1ce
100
AcDbEntity
  8
Ebene_1
 62
7
100
AcDbSpline
 70
8
 71
3
 72
8
 73
4
 74
0
 40
0
 40
0
 40
0
 40
0
 40
1
 40
1
 40
1
 40
1
 10
54.043970
 20
173.167880
 30
0.0
 10
53.582517
 20
173.579900
 30
0.0
 10
53.005697
 20
173.925993
 30
0.0
 10
52.313510
 20
174.206160
 30
0.0
  0
SPLINE
  5
1cf
100
AcDbEntity
  8
Ebene_1
 62
7
100
AcDbSpline
 70
8
 71
3
 72
8
 73
4
 74
0
 40
0
 40
0
 40
0
 40
0
 40
1
 40
1
 40
1
 40
1
 10
52.313510
 20
174.206160
 30
0.0
 10
51.637803
 20
174.502813
 30
0.0
 10
50.863213
 20
174.766503
 30
0.0
 10
49.989740
 20
174.997230
 30
0.0
  0
SPLINE
  5
1d0
100
AcDbEntity
  8
Ebene_1
 62
7
100
AcDbSpline
 70
8
 71
3
 72
8
 73
4
 74
0
 40
0
 40
0
 40
0
 40
0
 40
1
 40
1
 40
1
 40
1
 10
49.989740
 20
174.997230
 30
0.0
 10
49.248113
 20
175.194997
 30
0.0
 10
48.630090
 20
175.368043
 30
0.0
 10
48.135670
 20
175.516370
 30
0.0
  0
SPLINE
  5
1d1
100
AcDbEntity
  8
Ebene_1
 62
7
100
AcDbSpline
 70
8
 71
3
 72
8
 73
4
 74
0
 40
0
 40
0
 40
0
 40
0
 40
1
 40
1
 40
1
 40
1
 10
48.135670
 20
175.516370
 30
0.0
 10
47.657737
 20
175.664697
 30
0.0
 10
47.278683
 20
175.821263
 30
0.0
 10
46.998510
 20
175.986070
 30
0.0
  0
SPLINE
  5
1d2
100
AcDbEntity
  8
Ebene_1
 62
7
100
AcDbSpline
 70
8
 71
3
 72
8
 73
4
 74
0
 40
0
 40
0
 40
0
 40
0
 40
1
 40
1
 40
1
 40
1
 10
46.998510
 20
175.986070
 30
0.0
 10
46.718337
 20
176.150877
 30
0.0
 10
46.520570
 20
176.332163
 30
0.0
 10
46.405210
 20
176.529930
 30
0.0
  0
SPLINE
  5
1d3
100
AcDbEntity
  8
Ebene_1
 62
7
100
AcDbSpline
 70
8
 71
3
 72
8
 73
4
 74
0
 40
0
 40
0
 40
0
 40
0
 40
1
 40
1
 40
1
 40
1
 10
46.405210
 20
176.529930
 30
0.0
 10
46.306323
 20
176.744177
 30
0.0
 10
46.256880
 20
176.991387
 30
0.0
 10
46.256880
 20
177.271560
 30
0.0
  0
LWPOLYLINE
  5
1d4
100
AcDbEntity
  8
Ebene_1
 62
7
100
AcDbPolyline
 90
2
 70
0
 10
55.477790
 20
169.756440
 30
0.0
 10
55.477790
 20
169.805840
 30
0.0
  0
SPLINE
  5
1d5
100
AcDbEntity
  8
Ebene_1
 62
7
100
AcDbSpline
 70
8
 71
3
 72
8
 73
4
 74
0
 40
0
 40
0
 40
0
 40
0
 40
1
 40
1
 40
1
 40
1
 10
46.256880
 20
177.320960
 30
0.0
 10
46.256880
 20
177.749453
 30
0.0
 10
46.438167
 20
178.103787
 30
0.0
 10
46.800740
 20
178.383960
 30
0.0
  0
SPLINE
  5
1d6
100
AcDbEntity
  8
Ebene_1
 62
7
100
AcDbSpline
 70
8
 71
3
 72
8
 73
4
 74
0
 40
0
 40
0
 40
0
 40
0
 40
1
 40
1
 40
1
 40
1
 10
46.800740
 20
178.383960
 30
0.0
 10
47.179793
 20
178.680613
 30
0.0
 10
47.740137
 20
178.828940
 30
0.0
 10
48.481770
 20
178.828940
 30
0.0
  0
SPLINE
  5
1d7
100
AcDbEntity
  8
Ebene_1
 62
7
100
AcDbSpline
 70
8
 71
3
 72
8
 73
4
 74
0
 40
0
 40
0
 40
0
 40
0
 40
1
 40
1
 40
1
 40
1
 10
48.481770
 20
178.828940
 30
0.0
 10
49.223397
 20
178.828940
 30
0.0
 10
49.965023
 20
178.672373
 30
0.0
 10
50.706650
 20
178.359240
 30
0.0
  0
SPLINE
  5
1d8
100
AcDbEntity
  8
Ebene_1
 62
7
100
AcDbSpline
 70
8
 71
3
 72
8
 73
4
 74
0
 40
0
 40
0
 40
0
 40
0
 40
1
 40
1
 40
1
 40
1
 10
50.706650
 20
178.359240
 30
0.0
 10
51.448277
 20
178.062587
 30
0.0
 10
52.206383
 20
177.650570
 30
0.0
 10
52.980970
 20
177.123190
 30
0.0
  0
LWPOLYLINE
  5
1d9
100
AcDbEntity
  8
Ebene_1
 62
7
100
AcDbPolyline
 90
2
 70
0
 10
46.256880
 20
177.271560
 30
0.0
 10
46.256880
 20
177.320960
 30
0.0
  0
SPLINE
  5
1da
100
AcDbEntity
  8
Ebene_1
 62
7
100
AcDbSpline
 70
8
 71
3
 72
8
 73
4
 74
0
 40
0
 40
0
 40
0
 40
0
 40
1
 40
1
 40
1
 40
1
 10
54.958650
 20
179.990820
 30
0.0
 10
54.068697
 20
180.699487
 30
0.0
 10
53.088100
 20
181.243347
 30
0.0
 10
52.016860
 20
181.622400
 30
0.0
  0
SPLINE
  5
1db
100
AcDbEntity
  8
Ebene_1
 62
7
100
AcDbSpline
 70
8
 71
3
 72
8
 73
4
 74
0
 40
0
 40
0
 40
0
 40
0
 40
1
 40
1
 40
1
 40
1
 10
52.016860
 20
181.622400
 30
0.0
 10
50.962100
 20
182.001453
 30
0.0
 10
49.800217
 20
182.190980
 30
0.0
 10
48.531210
 20
182.190980
 30
0.0
  0
SPLINE
  5
1dc
100
AcDbEntity
  8
Ebene_1
 62
7
100
AcDbSpline
 70
8
 71
3
 72
8
 73
4
 74
0
 40
0
 40
0
 40
0
 40
0
 40
1
 40
1
 40
1
 40
1
 10
48.531210
 20
182.190980
 30
0.0
 10
47.641257
 20
182.190980
 30
0.0
 10
46.825467
 20
182.067377
 30
0.0
 10
46.083840
 20
181.820170
 30
0.0
  0
SPLINE
  5
1dd
100
AcDbEntity
  8
Ebene_1
 62
7
100
AcDbSpline
 70
8
 71
3
 72
8
 73
4
 74
0
 40
0
 40
0
 40
0
 40
0
 40
1
 40
1
 40
1
 40
1
 10
46.083840
 20
181.820170
 30
0.0
 10
45.342207
 20
181.572963
 30
0.0
 10
44.699460
 20
181.218630
 30
0.0
 10
44.155600
 20
180.757170
 30
0.0
  0
SPLINE
  5
1de
100
AcDbEntity
  8
Ebene_1
 62
7
100
AcDbSpline
 70
8
 71
3
 72
8
 73
4
 74
0
 40
0
 40
0
 40
0
 40
0
 40
1
 40
1
 40
1
 40
1
 10
44.155600
 20
180.757170
 30
0.0
 10
43.628220
 20
180.295710
 30
0.0
 10
43.216207
 20
179.743610
 30
0.0
 10
42.919560
 20
179.100870
 30
0.0
  0
SPLINE
  5
1df
100
AcDbEntity
  8
Ebene_1
 62
7
100
AcDbSpline
 70
8
 71
3
 72
8
 73
4
 74
0
 40
0
 40
0
 40
0
 40
0
 40
1
 40
1
 40
1
 40
1
 10
42.919560
 20
179.100870
 30
0.0
 10
42.622907
 20
178.474603
 30
0.0
 10
42.474580
 20
177.765937
 30
0.0
 10
42.474580
 20
176.974870
 30
0.0
  0
LWPOLYLINE
  5
1e0
100
AcDbEntity
  8
Ebene_1
 62
7
100
AcDbPolyline
 90
2
 70
0
 10
52.980970
 20
177.123190
 30
0.0
 10
54.958650
 20
179.990820
 30
0.0
  0
SPLINE
  5
1e1
100
AcDbEntity
  8
Ebene_1
 62
7
100
AcDbSpline
 70
8
 71
3
 72
8
 73
4
 74
0
 40
0
 40
0
 40
0
 40
0
 40
1
 40
1
 40
1
 40
1
 10
42.474580
 20
176.925470
 30
0.0
 10
42.474580
 20
176.068477
 30
0.0
 10
42.606423
 20
175.351567
 30
0.0
 10
42.870110
 20
174.774740
 30
0.0
  0
SPLINE
  5
1e2
100
AcDbEntity
  8
Ebene_1
 62
7
100
AcDbSpline
 70
8
 71
3
 72
8
 73
4
 74
0
 40
0
 40
0
 40
0
 40
0
 40
1
 40
1
 40
1
 40
1
 10
42.870110
 20
174.774740
 30
0.0
 10
43.150283
 20
174.197920
 30
0.0
 10
43.537580
 20
173.711743
 30
0.0
 10
44.032000
 20
173.316210
 30
0.0
  0
SPLINE
  5
1e3
100
AcDbEntity
  8
Ebene_1
 62
7
100
AcDbSpline
 70
8
 71
3
 72
8
 73
4
 74
0
 40
0
 40
0
 40
0
 40
0
 40
1
 40
1
 40
1
 40
1
 10
44.032000
 20
173.316210
 30
0.0
 10
44.526420
 20
172.937157
 30
0.0
 10
45.127963
 20
172.615783
 30
0.0
 10
45.836630
 20
172.352090
 30
0.0
  0
SPLINE
  5
1e4
100
AcDbEntity
  8
Ebene_1
 62
7
100
AcDbSpline
 70
8
 71
3
 72
8
 73
4
 74
0
 40
0
 40
0
 40
0
 40
0
 40
1
 40
1
 40
1
 40
1
 10
45.836630
 20
172.352090
 30
0.0
 10
46.545297
 20
172.088403
 30
0.0
 10
47.336363
 20
171.849437
 30
0.0
 10
48.209830
 20
171.635190
 30
0.0
  0
SPLINE
  5
1e5
100
AcDbEntity
  8
Ebene_1
 62
7
100
AcDbSpline
 70
8
 71
3
 72
8
 73
4
 74
0
 40
0
 40
0
 40
0
 40
0
 40
1
 40
1
 40
1
 40
1
 10
48.209830
 20
171.635190
 30
0.0
 10
48.934983
 20
171.453903
 30
0.0
 10
49.520047
 20
171.280857
 30
0.0
 10
49.965020
 20
171.116050
 30
0.0
  0
SPLINE
  5
1e6
100
AcDbEntity
  8
Ebene_1
 62
7
100
AcDbSpline
 70
8
 71
3
 72
8
 73
4
 74
0
 40
0
 40
0
 40
0
 40
0
 40
1
 40
1
 40
1
 40
1
 10
49.965020
 20
171.116050
 30
0.0
 10
50.426480
 20
170.951243
 30
0.0
 10
50.780813
 20
170.786437
 30
0.0
 10
51.028020
 20
170.621630
 30
0.0
  0
SPLINE
  5
1e7
100
AcDbEntity
  8
Ebene_1
 62
7
100
AcDbSpline
 70
8
 71
3
 72
8
 73
4
 74
0
 40
0
 40
0
 40
0
 40
0
 40
1
 40
1
 40
1
 40
1
 10
51.028020
 20
170.621630
 30
0.0
 10
51.291713
 20
170.456823
 30
0.0
 10
51.464760
 20
170.275537
 30
0.0
 10
51.547160
 20
170.077770
 30
0.0
  0
SPLINE
  5
1e8
100
AcDbEntity
  8
Ebene_1
 62
7
100
AcDbSpline
 70
8
 71
3
 72
8
 73
4
 74
0
 40
0
 40
0
 40
0
 40
0
 40
1
 40
1
 40
1
 40
1
 10
51.547160
 20
170.077770
 30
0.0
 10
51.646047
 20
169.896483
 30
0.0
 10
51.695490
 20
169.682233
 30
0.0
 10
51.695490
 20
169.435020
 30
0.0
  0
LWPOLYLINE
  5
1e9
100
AcDbEntity
  8
Ebene_1
 62
7
100
AcDbPolyline
 90
2
 70
0
 10
42.474580
 20
176.974870
 30
0.0
 10
42.474580
 20
176.925470
 30
0.0
  0
SPLINE
  5
1ea
100
AcDbEntity
  8
Ebene_1
 62
7
100
AcDbSpline
 70
8
 71
3
 72
8
 73
4
 74
0
 40
0
 40
0
 40
0
 40
0
 40
1
 40
1
 40
1
 40
1
 10
51.695490
 20
169.385620
 30
0.0
 10
51.695490
 20
168.874720
 30
0.0
 10
51.473000
 20
168.470947
 30
0.0
 10
51.028020
 20
168.174300
 30
0.0
  0
SPLINE
  5
1eb
100
AcDbEntity
  8
Ebene_1
 62
7
100
AcDbSpline
 70
8
 71
3
 72
8
 73
4
 74
0
 40
0
 40
0
 40
0
 40
0
 40
1
 40
1
 40
1
 40
1
 10
51.028020
 20
168.174300
 30
0.0
 10
50.599527
 20
167.894127
 30
0.0
 10
49.989743
 20
167.754040
 30
0.0
 10
49.198670
 20
167.754040
 30
0.0
  0
SPLINE
  5
1ec
100
AcDbEntity
  8
Ebene_1
 62
7
100
AcDbSpline
 70
8
 71
3
 72
8
 73
4
 74
0
 40
0
 40
0
 40
0
 40
0
 40
1
 40
1
 40
1
 40
1
 10
49.198670
 20
167.754040
 30
0.0
 10
48.209837
 20
167.754040
 30
0.0
 10
47.295163
 20
167.943567
 30
0.0
 10
46.454650
 20
168.322620
 30
0.0
  0
SPLINE
  5
1ed
100
AcDbEntity
  8
Ebene_1
 62
7
100
AcDbSpline
 70
8
 71
3
 72
8
 73
4
 74
0
 40
0
 40
0
 40
0
 40
0
 40
1
 40
1
 40
1
 40
1
 10
46.454650
 20
168.322620
 30
0.0
 10
45.630617
 20
168.701673
 30
0.0
 10
44.823067
 20
169.212573
 30
0.0
 10
44.032000
 20
169.855320
 30
0.0
  0
LWPOLYLINE
  5
1ee
100
AcDbEntity
  8
Ebene_1
 62
7
100
AcDbPolyline
 90
2
 70
0
 10
51.695490
 20
169.435020
 30
0.0
 10
51.695490
 20
169.385620
 30
0.0
  0
SPLINE
  5
1ef
100
AcDbEntity
  8
Ebene_1
 62
7
100
AcDbSpline
 70
8
 71
3
 72
8
 73
4
 74
0
 40
0
 40
0
 40
0
 40
0
 40
1
 40
1
 40
1
 40
1
 10
41.782390
 20
167.160740
 30
0.0
 10
42.820670
 20
166.221347
 30
0.0
 10
43.974313
 20
165.520920
 30
0.0
 10
45.243320
 20
165.059460
 30
0.0
  0
SPLINE
  5
1f0
100
AcDbEntity
  8
Ebene_1
 62
7
100
AcDbSpline
 70
8
 71
3
 72
8
 73
4
 74
0
 40
0
 40
0
 40
0
 40
0
 40
1
 40
1
 40
1
 40
1
 10
45.243320
 20
165.059460
 30
0.0
 10
46.512327
 20
164.614487
 30
0.0
 10
47.806057
 20
164.392000
 30
0.0
 10
49.124510
 20
164.392000
 30
0.0
  0
SPLINE
  5
1f1
100
AcDbEntity
  8
Ebene_1
 62
7
100
AcDbSpline
 70
8
 71
3
 72
8
 73
4
 74
0
 40
0
 40
0
 40
0
 40
0
 40
1
 40
1
 40
1
 40
1
 10
49.124510
 20
164.392000
 30
0.0
 10
50.063903
 20
164.392000
 30
0.0
 10
50.920897
 20
164.507363
 30
0.0
 10
51.695490
 20
164.738090
 30
0.0
  0
SPLINE
  5
1f2
100
AcDbEntity
  8
Ebene_1
 62
7
100
AcDbSpline
 70
8
 71
3
 72
8
 73
4
 74
0
 40
0
 40
0
 40
0
 40
0
 40
1
 40
1
 40
1
 40
1
 10
51.695490
 20
164.738090
 30
0.0
 10
52.470077
 20
164.985297
 30
0.0
 10
53.137540
 20
165.331390
 30
0.0
 10
53.697880
 20
165.776370
 30
0.0
  0
SPLINE
  5
1f3
100
AcDbEntity
  8
Ebene_1
 62
7
100
AcDbSpline
 70
8
 71
3
 72
8
 73
4
 74
0
 40
0
 40
0
 40
0
 40
0
 40
1
 40
1
 40
1
 40
1
 10
53.697880
 20
165.776370
 30
0.0
 10
54.258220
 20
166.237823
 30
0.0
 10
54.694957
 20
166.798163
 30
0.0
 10
55.008090
 20
167.457390
 30
0.0
  0
SPLINE
  5
1f4
100
AcDbEntity
  8
Ebene_1
 62
7
100
AcDbSpline
 70
8
 71
3
 72
8
 73
4
 74
0
 40
0
 40
0
 40
0
 40
0
 40
1
 40
1
 40
1
 40
1
 10
55.008090
 20
167.457390
 30
0.0
 10
55.321223
 20
168.133097
 30
0.0
 10
55.477790
 20
168.899447
 30
0.0
 10
55.477790
 20
169.756440
 30
0.0
  0
LWPOLYLINE
  5
1f5
100
AcDbEntity
  8
Ebene_1
 62
7
100
AcDbPolyline
 90
2
 70
0
 10
44.032000
 20
169.855320
 30
0.0
 10
41.782390
 20
167.160740
 30
0.0
  0
LWPOLYLINE
  5
1f6
100
AcDbEntity
  8
Ebene_1
 62
7
100
AcDbPolyline
 90
1
 70
1
 10
55.477790
 20
169.756440
 30
0.0
  0
LWPOLYLINE
  5
1f7
100
AcDbEntity
  8
Ebene_1
 62
7
100
AcDbPolyline
 90
8
 70
1
 10
71.907930
 20
178.433480
 30
0.0
 10
71.907930
 20
181.943850
 30
0.0
 10
57.569800
 20
181.943850
 30
0.0
 10
57.569800
 20
178.433480
 30
0.0
 10
62.835350
 20
178.433480
 30
0.0
 10
62.835350
 20
164.639200
 30
0.0
 10
66.642380
 20
164.639200
 30
0.0
 10
66.642380
 20
178.433480
 30
0.0
  0
LWPOLYLINE
  5
1f8
100
AcDbEntity
  8
Ebene_1
 62
7
100
AcDbPolyline
 90
8
 70
1
 10
91.695490
 20
164.639200
 30
0.0
 10
84.279210
 20
182.067460
 30
0.0
 10
80.768840
 20
182.067460
 30
0.0
 10
73.352560
 20
164.639200
 30
0.0
 10
77.233750
 20
164.639200
 30
0.0
 10
78.815890
 20
168.520390
 30
0.0
 10
86.133280
 20
168.520390
 30
0.0
 10
87.715420
 20
164.639200
 30
0.0
  0
LWPOLYLINE
  5
1f9
100
AcDbEntity
  8
Ebene_1
 62
7
100
AcDbPolyline
 90
3
 70
1
 10
84.773630
 20
171.882440
 30
0.0
 10
80.175540
 20
171.882440
 30
0.0
 10
82.474590
 20
177.494090
 30
0.0
  0
LWPOLYLINE
  5
1fa
100
AcDbEntity
  8
Ebene_1
 62
7
100
AcDbPolyline
 90
8
 70
1
 10
107.444270
 20
178.433480
 30
0.0
 10
107.444270
 20
181.943850
 30
0.0
 10
93.106130
 20
181.943850
 30
0.0
 10
93.106130
 20
178.433480
 30
0.0
 10
98.371690
 20
178.433480
 30
0.0
 10
98.371690
 20
164.639200
 30
0.0
 10
102.178710
 20
164.639200
 30
0.0
 10
102.178710
 20
178.433480
 30
0.0
  0
LWPOLYLINE
  5
1fb
100
AcDbEntity
  8
Ebene_1
 62
7
100
AcDbPolyline
 90
4
 70
1
 10
114.352228
 20
164.639200
 30
0.0
 10
114.352228
 20
181.943850
 30
0.0
 10
110.545205
 20
181.943850
 30
0.0
 10
110.545205
 20
164.639200
 30
0.0
  0
SPLINE
  5
1fc
100
AcDbEntity
  8
Ebene_1
 62
7
100
AcDbSpline
 70
8
 71
3
 72
8
 73
4
 74
0
 40
0
 40
0
 40
0
 40
0
 40
1
 40
1
 40
1
 40
1
 10
136.302860
 20
173.340930
 30
0.0
 10
136.302860
 20
174.576977
 30
0.0
 10
136.072131
 20
175.730620
 30
0.0
 10
135.610674
 20
176.801860
 30
0.0
  0
SPLINE
  5
1fd
100
AcDbEntity
  8
Ebene_1
 62
7
100
AcDbSpline
 70
8
 71
3
 72
8
 73
4
 74
0
 40
0
 40
0
 40
0
 40
0
 40
1
 40
1
 40
1
 40
1
 10
135.610674
 20
176.801860
 30
0.0
 10
135.165697
 20
177.889580
 30
0.0
 10
134.531193
 20
178.828977
 30
0.0
 10
133.707162
 20
179.620050
 30
0.0
  0
SPLINE
  5
1fe
100
AcDbEntity
  8
Ebene_1
 62
7
100
AcDbSpline
 70
8
 71
3
 72
8
 73
4
 74
0
 40
0
 40
0
 40
0
 40
0
 40
1
 40
1
 40
1
 40
1
 10
133.707162
 20
179.620050
 30
0.0
 10
132.899612
 20
180.427597
 30
0.0
 10
131.935496
 20
181.062100
 30
0.0
 10
130.814814
 20
181.523560
 30
0.0
  0
SPLINE
  5
1ff
100
AcDbEntity
  8
Ebene_1
 62
7
100
AcDbSpline
 70
8
 71
3
 72
8
 73
4
 74
0
 40
0
 40
0
 40
0
 40
0
 40
1
 40
1
 40
1
 40
1
 10
130.814814
 20
181.523560
 30
0.0
 10
129.694132
 20
182.001500
 30
0.0
 10
128.466326
 20
182.240470
 30
0.0
 10
127.131395
 20
182.240470
 30
0.0
  0
SPLINE
  5
200
100
AcDbEntity
  8
Ebene_1
 62
7
100
AcDbSpline
 70
8
 71
3
 72
8
 73
4
 74
0
 40
0
 40
0
 40
0
 40
0
 40
1
 40
1
 40
1
 40
1
 10
127.131395
 20
182.240470
 30
0.0
 10
125.796465
 20
182.240470
 30
0.0
 10
124.560419
 20
182.001500
 30
0.0
 10
123.423256
 20
181.523560
 30
0.0
  0
SPLINE
  5
201
100
AcDbEntity
  8
Ebene_1
 62
7
100
AcDbSpline
 70
8
 71
3
 72
8
 73
4
 74
0
 40
0
 40
0
 40
0
 40
0
 40
1
 40
1
 40
1
 40
1
 10
123.423256
 20
181.523560
 30
0.0
 10
122.302574
 20
181.062100
 30
0.0
 10
121.330218
 20
180.419357
 30
0.0
 10
120.506187
 20
179.595330
 30
0.0
  0
SPLINE
  5
202
100
AcDbEntity
  8
Ebene_1
 62
7
100
AcDbSpline
 70
8
 71
3
 72
8
 73
4
 74
0
 40
0
 40
0
 40
0
 40
0
 40
1
 40
1
 40
1
 40
1
 10
120.506187
 20
179.595330
 30
0.0
 10
119.698636
 20
178.787777
 30
0.0
 10
119.064132
 20
177.840140
 30
0.0
 10
118.602675
 20
176.752420
 30
0.0
  0
SPLINE
  5
203
100
AcDbEntity
  8
Ebene_1
 62
7
100
AcDbSpline
 70
8
 71
3
 72
8
 73
4
 74
0
 40
0
 40
0
 40
0
 40
0
 40
1
 40
1
 40
1
 40
1
 10
118.602675
 20
176.752420
 30
0.0
 10
118.141218
 20
175.681180
 30
0.0
 10
117.910489
 20
174.527537
 30
0.0
 10
117.910489
 20
173.291490
 30
0.0
  0
LWPOLYLINE
  5
204
100
AcDbEntity
  8
Ebene_1
 62
7
100
AcDbPolyline
 90
2
 70
0
 10
136.302860
 20
173.291530
 30
0.0
 10
136.302860
 20
173.340930
 30
0.0
  0
SPLINE
  5
205
100
AcDbEntity
  8
Ebene_1
 62
7
100
AcDbSpline
 70
8
 71
3
 72
8
 73
4
 74
0
 40
0
 40
0
 40
0
 40
0
 40
1
 40
1
 40
1
 40
1
 10
117.910489
 20
173.242090
 30
0.0
 10
117.910489
 20
172.006043
 30
0.0
 10
118.132977
 20
170.844160
 30
0.0
 10
118.577954
 20
169.756440
 30
0.0
  0
SPLINE
  5
206
100
AcDbEntity
  8
Ebene_1
 62
7
100
AcDbSpline
 70
8
 71
3
 72
8
 73
4
 74
0
 40
0
 40
0
 40
0
 40
0
 40
1
 40
1
 40
1
 40
1
 10
118.577954
 20
169.756440
 30
0.0
 10
119.039411
 20
168.685200
 30
0.0
 10
119.673915
 20
167.745803
 30
0.0
 10
120.481466
 20
166.938250
 30
0.0
  0
SPLINE
  5
207
100
AcDbEntity
  8
Ebene_1
 62
7
100
AcDbSpline
 70
8
 71
3
 72
8
 73
4
 74
0
 40
0
 40
0
 40
0
 40
0
 40
1
 40
1
 40
1
 40
1
 10
120.481466
 20
166.938250
 30
0.0
 10
121.305497
 20
166.147183
 30
0.0
 10
122.277853
 20
165.512680
 30
0.0
 10
123.398535
 20
165.034740
 30
0.0
  0
SPLINE
  5
208
100
AcDbEntity
  8
Ebene_1
 62
7
100
AcDbSpline
 70
8
 71
3
 72
8
 73
4
 74
0
 40
0
 40
0
 40
0
 40
0
 40
1
 40
1
 40
1
 40
1
 10
123.398535
 20
165.034740
 30
0.0
 10
124.519217
 20
164.573280
 30
0.0
 10
125.747023
 20
164.342550
 30
0.0
 10
127.081954
 20
164.342550
 30
0.0
  0
SPLINE
  5
209
100
AcDbEntity
  8
Ebene_1
 62
7
100
AcDbSpline
 70
8
 71
3
 72
8
 73
4
 74
0
 40
0
 40
0
 40
0
 40
0
 40
1
 40
1
 40
1
 40
1
 10
127.081954
 20
164.342550
 30
0.0
 10
128.416884
 20
164.342550
 30
0.0
 10
129.644690
 20
164.573280
 30
0.0
 10
130.765372
 20
165.034740
 30
0.0
  0
SPLINE
  5
20a
100
AcDbEntity
  8
Ebene_1
 62
7
100
AcDbSpline
 70
8
 71
3
 72
8
 73
4
 74
0
 40
0
 40
0
 40
0
 40
0
 40
1
 40
1
 40
1
 40
1
 10
130.765372
 20
165.034740
 30
0.0
 10
131.902535
 20
165.512680
 30
0.0
 10
132.874891
 20
166.155423
 30
0.0
 10
133.682441
 20
166.962970
 30
0.0
  0
SPLINE
  5
20b
100
AcDbEntity
  8
Ebene_1
 62
7
100
AcDbSpline
 70
8
 71
3
 72
8
 73
4
 74
0
 40
0
 40
0
 40
0
 40
0
 40
1
 40
1
 40
1
 40
1
 10
133.682441
 20
166.962970
 30
0.0
 10
134.506472
 20
167.787003
 30
0.0
 10
135.149217
 20
168.734640
 30
0.0
 10
135.610674
 20
169.805880
 30
0.0
  0
SPLINE
  5
20c
100
AcDbEntity
  8
Ebene_1
 62
7
100
AcDbSpline
 70
8
 71
3
 72
8
 73
4
 74
0
 40
0
 40
0
 40
0
 40
0
 40
1
 40
1
 40
1
 40
1
 10
135.610674
 20
169.805880
 30
0.0
 10
136.072131
 20
170.893600
 30
0.0
 10
136.302860
 20
172.055483
 30
0.0
 10
136.302860
 20
173.291530
 30
0.0
  0
LWPOLYLINE
  5
20d
100
AcDbEntity
  8
Ebene_1
 62
7
100
AcDbPolyline
 90
2
 70
0
 10
117.910489
 20
173.291490
 30
0.0
 10
117.910489
 20
173.242090
 30
0.0
  0
SPLINE
  5
20e
100
AcDbEntity
  8
Ebene_1
 62
7
100
AcDbSpline
 70
8
 71
3
 72
8
 73
4
 74
0
 40
0
 40
0
 40
0
 40
0
 40
1
 40
1
 40
1
 40
1
 10
132.322790
 20
173.242130
 30
0.0
 10
132.322790
 20
172.500503
 30
0.0
 10
132.190945
 20
171.800077
 30
0.0
 10
131.927256
 20
171.140850
 30
0.0
  0
SPLINE
  5
20f
100
AcDbEntity
  8
Ebene_1
 62
7
100
AcDbSpline
 70
8
 71
3
 72
8
 73
4
 74
0
 40
0
 40
0
 40
0
 40
0
 40
1
 40
1
 40
1
 40
1
 10
131.927256
 20
171.140850
 30
0.0
 10
131.680047
 20
170.498103
 30
0.0
 10
131.325713
 20
169.929520
 30
0.0
 10
130.864256
 20
169.435100
 30
0.0
  0
SPLINE
  5
210
100
AcDbEntity
  8
Ebene_1
 62
7
100
AcDbSpline
 70
8
 71
3
 72
8
 73
4
 74
0
 40
0
 40
0
 40
0
 40
0
 40
1
 40
1
 40
1
 40
1
 10
130.864256
 20
169.435100
 30
0.0
 10
130.419279
 20
168.940687
 30
0.0
 10
129.875419
 20
168.553393
 30
0.0
 10
129.232674
 20
168.273220
 30
0.0
  0
SPLINE
  5
211
100
AcDbEntity
  8
Ebene_1
 62
7
100
AcDbSpline
 70
8
 71
3
 72
8
 73
4
 74
0
 40
0
 40
0
 40
0
 40
0
 40
1
 40
1
 40
1
 40
1
 10
129.232674
 20
168.273220
 30
0.0
 10
128.589930
 20
167.993053
 30
0.0
 10
127.889504
 20
167.852970
 30
0.0
 10
127.131395
 20
167.852970
 30
0.0
  0
SPLINE
  5
212
100
AcDbEntity
  8
Ebene_1
 62
7
100
AcDbSpline
 70
8
 71
3
 72
8
 73
4
 74
0
 40
0
 40
0
 40
0
 40
0
 40
1
 40
1
 40
1
 40
1
 10
127.131395
 20
167.852970
 30
0.0
 10
126.356806
 20
167.852970
 30
0.0
 10
125.648140
 20
167.993053
 30
0.0
 10
125.005396
 20
168.273220
 30
0.0
  0
SPLINE
  5
213
100
AcDbEntity
  8
Ebene_1
 62
7
100
AcDbSpline
 70
8
 71
3
 72
8
 73
4
 74
0
 40
0
 40
0
 40
0
 40
0
 40
1
 40
1
 40
1
 40
1
 10
125.005396
 20
168.273220
 30
0.0
 10
124.379132
 20
168.569873
 30
0.0
 10
123.827031
 20
168.965410
 30
0.0
 10
123.349093
 20
169.459830
 30
0.0
  0
SPLINE
  5
214
100
AcDbEntity
  8
Ebene_1
 62
7
100
AcDbSpline
 70
8
 71
3
 72
8
 73
4
 74
0
 40
0
 40
0
 40
0
 40
0
 40
1
 40
1
 40
1
 40
1
 10
123.349093
 20
169.459830
 30
0.0
 10
122.887636
 20
169.954243
 30
0.0
 10
122.525062
 20
170.531063
 30
0.0
 10
122.261373
 20
171.190290
 30
0.0
  0
SPLINE
  5
215
100
AcDbEntity
  8
Ebene_1
 62
7
100
AcDbSpline
 70
8
 71
3
 72
8
 73
4
 74
0
 40
0
 40
0
 40
0
 40
0
 40
1
 40
1
 40
1
 40
1
 10
122.261373
 20
171.190290
 30
0.0
 10
122.014164
 20
171.849517
 30
0.0
 10
121.890559
 20
172.549943
 30
0.0
 10
121.890559
 20
173.291570
 30
0.0
  0
LWPOLYLINE
  5
216
100
AcDbEntity
  8
Ebene_1
 62
7
100
AcDbPolyline
 90
1
 70
1
 10
136.302860
 20
173.291530
 30
0.0
  0
SPLINE
  5
217
100
AcDbEntity
  8
Ebene_1
 62
7
100
AcDbSpline
 70
8
 71
3
 72
8
 73
4
 74
0
 40
0
 40
0
 40
0
 40
0
 40
1
 40
1
 40
1
 40
1
 10
121.890559
 20
173.340970
 30
0.0
 10
121.890559
 20
174.082597
 30
0.0
 10
122.014164
 20
174.774783
 30
0.0
 10
122.261373
 20
175.417530
 30
0.0
  0
SPLINE
  5
218
100
AcDbEntity
  8
Ebene_1
 62
7
100
AcDbSpline
 70
8
 71
3
 72
8
 73
4
 74
0
 40
0
 40
0
 40
0
 40
0
 40
1
 40
1
 40
1
 40
1
 10
122.261373
 20
175.417530
 30
0.0
 10
122.525062
 20
176.076757
 30
0.0
 10
122.879396
 20
176.653577
 30
0.0
 10
123.324373
 20
177.147990
 30
0.0
  0
SPLINE
  5
219
100
AcDbEntity
  8
Ebene_1
 62
7
100
AcDbSpline
 70
8
 71
3
 72
8
 73
4
 74
0
 40
0
 40
0
 40
0
 40
0
 40
1
 40
1
 40
1
 40
1
 10
123.324373
 20
177.147990
 30
0.0
 10
123.785830
 20
177.642410
 30
0.0
 10
124.329691
 20
178.029707
 30
0.0
 10
124.955954
 20
178.309880
 30
0.0
  0
SPLINE
  5
21a
100
AcDbEntity
  8
Ebene_1
 62
7
100
AcDbSpline
 70
8
 71
3
 72
8
 73
4
 74
0
 40
0
 40
0
 40
0
 40
0
 40
1
 40
1
 40
1
 40
1
 10
124.955954
 20
178.309880
 30
0.0
 10
125.598698
 20
178.590047
 30
0.0
 10
126.307365
 20
178.730130
 30
0.0
 10
127.081954
 20
178.730130
 30
0.0
  0
SPLINE
  5
21b
100
AcDbEntity
  8
Ebene_1
 62
7
100
AcDbSpline
 70
8
 71
3
 72
8
 73
4
 74
0
 40
0
 40
0
 40
0
 40
0
 40
1
 40
1
 40
1
 40
1
 10
127.081954
 20
178.730130
 30
0.0
 10
127.840062
 20
178.730130
 30
0.0
 10
128.540488
 20
178.581807
 30
0.0
 10
129.183233
 20
178.285160
 30
0.0
  0
SPLINE
  5
21c
100
AcDbEntity
  8
Ebene_1
 62
7
100
AcDbSpline
 70
8
 71
3
 72
8
 73
4
 74
0
 40
0
 40
0
 40
0
 40
0
 40
1
 40
1
 40
1
 40
1
 10
129.183233
 20
178.285160
 30
0.0
 10
129.825977
 20
178.004987
 30
0.0
 10
130.378078
 20
177.617690
 30
0.0
 10
130.839535
 20
177.123270
 30
0.0
  0
SPLINE
  5
21d
100
AcDbEntity
  8
Ebene_1
 62
7
100
AcDbSpline
 70
8
 71
3
 72
8
 73
4
 74
0
 40
0
 40
0
 40
0
 40
0
 40
1
 40
1
 40
1
 40
1
 10
130.839535
 20
177.123270
 30
0.0
 10
131.317473
 20
176.628857
 30
0.0
 10
131.680047
 20
176.052037
 30
0.0
 10
131.927256
 20
175.392810
 30
0.0
  0
SPLINE
  5
21e
100
AcDbEntity
  8
Ebene_1
 62
7
100
AcDbSpline
 70
8
 71
3
 72
8
 73
4
 74
0
 40
0
 40
0
 40
0
 40
0
 40
1
 40
1
 40
1
 40
1
 10
131.927256
 20
175.392810
 30
0.0
 10
132.190945
 20
174.733583
 30
0.0
 10
132.322790
 20
174.033157
 30
0.0
 10
132.322790
 20
173.291530
 30
0.0
  0
LWPOLYLINE
  5
21f
100
AcDbEntity
  8
Ebene_1
 62
7
100
AcDbPolyline
 90
2
 70
0
 10
121.890559
 20
173.291570
 30
0.0
 10
121.890559
 20
173.340970
 30
0.0
  0
LWPOLYLINE
  5
220
100
AcDbEntity
  8
Ebene_1
 62
7
100
AcDbPolyline
 90
2
 70
0
 10
132.322790
 20
173.291530
 30
0.0
 10
132.322790
 20
173.242130
 30
0.0
  0
LWPOLYLINE
  5
221
100
AcDbEntity
  8
Ebene_1
 62
7
100
AcDbPolyline
 90
10
 70
1
 10
155.056391
 20
164.639200
 30
0.0
 10
155.056391
 20
181.943850
 30
0.0
 10
151.298810
 20
181.943850
 30
0.0
 10
151.298810
 20
171.289130
 30
0.0
 10
143.190346
 20
181.943850
 30
0.0
 10
139.679974
 20
181.943850
 30
0.0
 10
139.679974
 20
164.639200
 30
0.0
 10
143.437555
 20
164.639200
 30
0.0
 10
143.437555
 20
175.640020
 30
0.0
 10
151.817949
 20
164.639200
 30
0.0
  0
SPLINE
  5
222
100
AcDbEntity
  8
Ebene_1
 62
7
100
AcDbSpline
 70
8
 71
3
 72
8
 73
4
 74
0
 40
0
 40
0
 40
0
 40
0
 40
1
 40
1
 40
1
 40
1
 10
-185.464793
 20
134.085158
 30
0.0
 10
-186.740319
 20
134.085158
 30
0.0
 10
-187.815066
 20
134.522144
 30
0.0
 10
-188.689032
 20
135.396117
 30
0.0
  0
SPLINE
  5
223
100
AcDbEntity
  8
Ebene_1
 62
7
100
AcDbSpline
 70
8
 71
3
 72
8
 73
4
 74
0
 40
0
 40
0
 40
0
 40
0
 40
1
 40
1
 40
1
 40
1
 10
-188.689032
 20
135.396117
 30
0.0
 10
-189.563005
 20
136.293708
 30
0.0
 10
-189.999991
 20
137.368454
 30
0.0
 10
-189.999991
 20
138.620356
 30
0.0
  0
LWPOLYLINE
  5
224
100
AcDbEntity
  8
Ebene_1
 62
7
100
AcDbPolyline
 90
3
 70
0
 10
-178.662001
 20
115.944385
 30
0.0
 10
-178.662001
 20
134.085158
 30
0.0
 10
-185.464793
 20
134.085158
 30
0.0
  0
SPLINE
  5
225
100
AcDbEntity
  8
Ebene_1
 62
7
100
AcDbSpline
 70
8
 71
3
 72
8
 73
4
 74
0
 40
0
 40
0
 40
0
 40
0
 40
1
 40
1
 40
1
 40
1
 10
-162.788822
 20
138.620356
 30
0.0
 10
-162.788822
 20
137.344830
 30
0.0
 10
-163.237617
 20
136.270083
 30
0.0
 10
-164.135208
 20
135.396117
 30
0.0
  0
SPLINE
  5
226
100
AcDbEntity
  8
Ebene_1
 62
7
100
AcDbSpline
 70
8
 71
3
 72
8
 73
4
 74
0
 40
0
 40
0
 40
0
 40
0
 40
1
 40
1
 40
1
 40
1
 10
-164.135208
 20
135.396117
 30
0.0
 10
-165.032798
 20
134.522144
 30
0.0
 10
-166.095736
 20
134.085158
 30
0.0
 10
-167.324020
 20
134.085158
 30
0.0
  0
LWPOLYLINE
  5
227
100
AcDbEntity
  8
Ebene_1
 62
7
100
AcDbPolyline
 90
2
 70
0
 10
-189.999991
 20
138.620356
 30
0.0
 10
-162.788822
 20
138.620356
 30
0.0
  0
SPLINE
  5
228
100
AcDbEntity
  8
Ebene_1
 62
7
100
AcDbSpline
 70
8
 71
3
 72
8
 73
4
 74
0
 40
0
 40
0
 40
0
 40
0
 40
1
 40
1
 40
1
 40
1
 10
-153.718435
 20
115.944385
 30
0.0
 10
-154.993961
 20
115.944385
 30
0.0
 10
-156.068708
 20
116.381368
 30
0.0
 10
-156.942674
 20
117.255334
 30
0.0
  0
SPLINE
  5
229
100
AcDbEntity
  8
Ebene_1
 62
7
100
AcDbSpline
 70
8
 71
3
 72
8
 73
4
 74
0
 40
0
 40
0
 40
0
 40
0
 40
1
 40
1
 40
1
 40
1
 10
-156.942674
 20
117.255334
 30
0.0
 10
-157.816647
 20
118.152925
 30
0.0
 10
-158.253633
 20
119.227674
 30
0.0
 10
-158.253633
 20
120.479583
 30
0.0
  0
LWPOLYLINE
  5
22a
100
AcDbEntity
  8
Ebene_1
 62
7
100
AcDbPolyline
 90
4
 70
0
 10
-167.324020
 20
134.085158
 30
0.0
 10
-174.126812
 20
134.085158
 30
0.0
 10
-174.126812
 20
115.944385
 30
0.0
 10
-178.662001
 20
115.944385
 30
0.0
  0
SPLINE
  5
22b
100
AcDbEntity
  8
Ebene_1
 62
7
100
AcDbSpline
 70
8
 71
3
 72
8
 73
4
 74
0
 40
0
 40
0
 40
0
 40
0
 40
1
 40
1
 40
1
 40
1
 10
-131.042464
 20
120.479583
 30
0.0
 10
-131.042464
 20
119.204057
 30
0.0
 10
-131.491259
 20
118.129307
 30
0.0
 10
-132.388850
 20
117.255334
 30
0.0
  0
SPLINE
  5
22c
100
AcDbEntity
  8
Ebene_1
 62
7
100
AcDbSpline
 70
8
 71
3
 72
8
 73
4
 74
0
 40
0
 40
0
 40
0
 40
0
 40
1
 40
1
 40
1
 40
1
 10
-132.388850
 20
117.255334
 30
0.0
 10
-133.286440
 20
116.381368
 30
0.0
 10
-134.349378
 20
115.944385
 30
0.0
 10
-135.577662
 20
115.944385
 30
0.0
  0
LWPOLYLINE
  5
22d
100
AcDbEntity
  8
Ebene_1
 62
7
100
AcDbPolyline
 90
2
 70
0
 10
-158.253633
 20
120.479583
 30
0.0
 10
-131.042464
 20
120.479583
 30
0.0
  0
SPLINE
  5
22e
100
AcDbEntity
  8
Ebene_1
 62
7
100
AcDbSpline
 70
8
 71
3
 72
8
 73
4
 74
0
 40
0
 40
0
 40
0
 40
0
 40
1
 40
1
 40
1
 40
1
 10
-153.718435
 20
125.014771
 30
0.0
 10
-154.993961
 20
125.014771
 30
0.0
 10
-156.068708
 20
125.451758
 30
0.0
 10
-156.942674
 20
126.325730
 30
0.0
  0
SPLINE
  5
22f
100
AcDbEntity
  8
Ebene_1
 62
7
100
AcDbSpline
 70
8
 71
3
 72
8
 73
4
 74
0
 40
0
 40
0
 40
0
 40
0
 40
1
 40
1
 40
1
 40
1
 10
-156.942674
 20
126.325730
 30
0.0
 10
-157.816647
 20
127.223321
 30
0.0
 10
-158.253633
 20
128.298067
 30
0.0
 10
-158.253633
 20
129.549969
 30
0.0
  0
LWPOLYLINE
  5
230
100
AcDbEntity
  8
Ebene_1
 62
7
100
AcDbPolyline
 90
2
 70
0
 10
-135.577662
 20
115.944385
 30
0.0
 10
-153.718435
 20
115.944385
 30
0.0
  0
SPLINE
  5
231
100
AcDbEntity
  8
Ebene_1
 62
7
100
AcDbSpline
 70
8
 71
3
 72
8
 73
4
 74
0
 40
0
 40
0
 40
0
 40
0
 40
1
 40
1
 40
1
 40
1
 10
-131.042464
 20
129.549969
 30
0.0
 10
-131.042464
 20
128.274443
 30
0.0
 10
-131.491259
 20
127.199697
 30
0.0
 10
-132.388850
 20
126.325730
 30
0.0
  0
SPLINE
  5
232
100
AcDbEntity
  8
Ebene_1
 62
7
100
AcDbSpline
 70
8
 71
3
 72
8
 73
4
 74
0
 40
0
 40
0
 40
0
 40
0
 40
1
 40
1
 40
1
 40
1
 10
-132.388850
 20
126.325730
 30
0.0
 10
-133.286440
 20
125.451758
 30
0.0
 10
-134.349378
 20
125.014771
 30
0.0
 10
-135.577662
 20
125.014771
 30
0.0
  0
LWPOLYLINE
  5
233
100
AcDbEntity
  8
Ebene_1
 62
7
100
AcDbPolyline
 90
2
 70
0
 10
-158.253633
 20
129.549969
 30
0.0
 10
-131.042464
 20
129.549969
 30
0.0
  0
SPLINE
  5
234
100
AcDbEntity
  8
Ebene_1
 62
7
100
AcDbSpline
 70
8
 71
3
 72
8
 73
4
 74
0
 40
0
 40
0
 40
0
 40
0
 40
1
 40
1
 40
1
 40
1
 10
-153.718435
 20
134.085158
 30
0.0
 10
-154.993961
 20
134.085158
 30
0.0
 10
-156.068708
 20
134.522144
 30
0.0
 10
-156.942674
 20
135.396117
 30
0.0
  0
SPLINE
  5
235
100
AcDbEntity
  8
Ebene_1
 62
7
100
AcDbSpline
 70
8
 71
3
 72
8
 73
4
 74
0
 40
0
 40
0
 40
0
 40
0
 40
1
 40
1
 40
1
 40
1
 10
-156.942674
 20
135.396117
 30
0.0
 10
-157.816647
 20
136.293708
 30
0.0
 10
-158.253633
 20
137.368454
 30
0.0
 10
-158.253633
 20
138.620356
 30
0.0
  0
LWPOLYLINE
  5
236
100
AcDbEntity
  8
Ebene_1
 62
7
100
AcDbPolyline
 90
2
 70
0
 10
-135.577662
 20
125.014771
 30
0.0
 10
-153.718435
 20
125.014771
 30
0.0
  0
SPLINE
  5
237
100
AcDbEntity
  8
Ebene_1
 62
7
100
AcDbSpline
 70
8
 71
3
 72
8
 73
4
 74
0
 40
0
 40
0
 40
0
 40
0
 40
1
 40
1
 40
1
 40
1
 10
-131.042464
 20
138.620356
 30
0.0
 10
-131.042464
 20
137.344830
 30
0.0
 10
-131.491259
 20
136.270083
 30
0.0
 10
-132.388850
 20
135.396117
 30
0.0
  0
SPLINE
  5
238
100
AcDbEntity
  8
Ebene_1
 62
7
100
AcDbSpline
 70
8
 71
3
 72
8
 73
4
 74
0
 40
0
 40
0
 40
0
 40
0
 40
1
 40
1
 40
1
 40
1
 10
-132.388850
 20
135.396117
 30
0.0
 10
-133.286440
 20
134.522144
 30
0.0
 10
-134.349378
 20
134.085158
 30
0.0
 10
-135.577662
 20
134.085158
 30
0.0
  0
LWPOLYLINE
  5
239
100
AcDbEntity
  8
Ebene_1
 62
7
100
AcDbPolyline
 90
2
 70
0
 10
-158.253633
 20
138.620356
 30
0.0
 10
-131.042464
 20
138.620356
 30
0.0
  0
SPLINE
  5
23a
100
AcDbEntity
  8
Ebene_1
 62
7
100
AcDbSpline
 70
8
 71
3
 72
8
 73
4
 74
0
 40
0
 40
0
 40
0
 40
0
 40
1
 40
1
 40
1
 40
1
 10
-126.507275
 20
115.944385
 30
0.0
 10
-126.507275
 20
117.196286
 30
0.0
 10
-126.070289
 20
118.259224
 30
0.0
 10
-125.196316
 20
119.133197
 30
0.0
  0
SPLINE
  5
23b
100
AcDbEntity
  8
Ebene_1
 62
7
100
AcDbSpline
 70
8
 71
3
 72
8
 73
4
 74
0
 40
0
 40
0
 40
0
 40
0
 40
1
 40
1
 40
1
 40
1
 10
-125.196316
 20
119.133197
 30
0.0
 10
-124.298725
 20
120.030788
 30
0.0
 10
-123.223979
 20
120.479583
 30
0.0
 10
-121.972077
 20
120.479583
 30
0.0
  0
LWPOLYLINE
  5
23c
100
AcDbEntity
  8
Ebene_1
 62
7
100
AcDbPolyline
 90
2
 70
0
 10
-135.577662
 20
134.085158
 30
0.0
 10
-153.718435
 20
134.085158
 30
0.0
  0
SPLINE
  5
23d
100
AcDbEntity
  8
Ebene_1
 62
7
100
AcDbSpline
 70
8
 71
3
 72
8
 73
4
 74
0
 40
0
 40
0
 40
0
 40
0
 40
1
 40
1
 40
1
 40
1
 10
-99.296110
 20
138.620356
 30
0.0
 10
-99.296110
 20
137.344830
 30
0.0
 10
-99.744905
 20
136.270083
 30
0.0
 10
-100.642496
 20
135.396117
 30
0.0
  0
SPLINE
  5
23e
100
AcDbEntity
  8
Ebene_1
 62
7
100
AcDbSpline
 70
8
 71
3
 72
8
 73
4
 74
0
 40
0
 40
0
 40
0
 40
0
 40
1
 40
1
 40
1
 40
1
 10
-100.642496
 20
135.396117
 30
0.0
 10
-101.540086
 20
134.522144
 30
0.0
 10
-102.603021
 20
134.085158
 30
0.0
 10
-103.831303
 20
134.085158
 30
0.0
  0
LWPOLYLINE
  5
23f
100
AcDbEntity
  8
Ebene_1
 62
7
100
AcDbPolyline
 90
6
 70
0
 10
-121.972077
 20
120.479583
 30
0.0
 10
-103.831303
 20
120.479583
 30
0.0
 10
-103.831303
 20
125.014771
 30
0.0
 10
-126.507275
 20
125.014771
 30
0.0
 10
-126.507275
 20
138.620356
 30
0.0
 10
-99.296110
 20
138.620356
 30
0.0
  0
LWPOLYLINE
  5
240
100
AcDbEntity
  8
Ebene_1
 62
7
100
AcDbPolyline
 90
6
 70
0
 10
-103.831303
 20
134.085158
 30
0.0
 10
-121.972077
 20
134.085158
 30
0.0
 10
-121.972077
 20
129.549969
 30
0.0
 10
-99.296110
 20
129.549969
 30
0.0
 10
-99.296110
 20
115.944385
 30
0.0
 10
-126.507275
 20
115.944385
 30
0.0
  0
SPLINE
  5
241
100
AcDbEntity
  8
Ebene_1
 62
7
100
AcDbSpline
 70
8
 71
3
 72
8
 73
4
 74
0
 40
0
 40
0
 40
0
 40
0
 40
1
 40
1
 40
1
 40
1
 10
-67.549752
 20
120.479583
 30
0.0
 10
-67.549752
 20
119.204057
 30
0.0
 10
-67.998547
 20
118.129307
 30
0.0
 10
-68.896138
 20
117.255334
 30
0.0
  0
SPLINE
  5
242
100
AcDbEntity
  8
Ebene_1
 62
7
100
AcDbSpline
 70
8
 71
3
 72
8
 73
4
 74
0
 40
0
 40
0
 40
0
 40
0
 40
1
 40
1
 40
1
 40
1
 10
-68.896138
 20
117.255334
 30
0.0
 10
-69.793728
 20
116.381368
 30
0.0
 10
-70.856665
 20
115.944385
 30
0.0
 10
-72.084946
 20
115.944385
 30
0.0
  0
LWPOLYLINE
  5
243
100
AcDbEntity
  8
Ebene_1
 62
7
100
AcDbPolyline
 90
5
 70
0
 10
-94.760916
 20
115.944385
 30
0.0
 10
-94.760916
 20
138.620356
 30
0.0
 10
-90.225722
 20
138.620356
 30
0.0
 10
-90.225722
 20
120.479583
 30
0.0
 10
-67.549752
 20
120.479583
 30
0.0
  0
LWPOLYLINE
  5
244
100
AcDbEntity
  8
Ebene_1
 62
7
100
AcDbPolyline
 90
2
 70
0
 10
-72.084946
 20
115.944385
 30
0.0
 10
-94.760916
 20
115.944385
 30
0.0
  0
SPLINE
  5
245
100
AcDbEntity
  8
Ebene_1
 62
7
100
AcDbSpline
 70
8
 71
3
 72
8
 73
4
 74
0
 40
0
 40
0
 40
0
 40
0
 40
1
 40
1
 40
1
 40
1
 10
-58.479364
 20
134.085158
 30
0.0
 10
-59.754888
 20
134.085158
 30
0.0
 10
-60.829635
 20
134.522144
 30
0.0
 10
-61.703604
 20
135.396117
 30
0.0
  0
SPLINE
  5
246
100
AcDbEntity
  8
Ebene_1
 62
7
100
AcDbSpline
 70
8
 71
3
 72
8
 73
4
 74
0
 40
0
 40
0
 40
0
 40
0
 40
1
 40
1
 40
1
 40
1
 10
-61.703604
 20
135.396117
 30
0.0
 10
-62.577574
 20
136.293708
 30
0.0
 10
-63.014559
 20
137.368454
 30
0.0
 10
-63.014559
 20
138.620356
 30
0.0
  0
LWPOLYLINE
  5
247
100
AcDbEntity
  8
Ebene_1
 62
7
100
AcDbPolyline
 90
8
 70
1
 10
-63.014559
 20
115.944385
 30
0.0
 10
-63.014559
 20
129.549969
 30
0.0
 10
-35.803394
 20
129.549969
 30
0.0
 10
-35.803394
 20
115.944385
 30
0.0
 10
-40.338588
 20
115.944385
 30
0.0
 10
-40.338588
 20
125.014771
 30
0.0
 10
-58.479364
 20
125.014771
 30
0.0
 10
-58.479364
 20
115.944385
 30
0.0
  0
SPLINE
  5
248
100
AcDbEntity
  8
Ebene_1
 62
7
100
AcDbSpline
 70
8
 71
3
 72
8
 73
4
 74
0
 40
0
 40
0
 40
0
 40
0
 40
1
 40
1
 40
1
 40
1
 10
-35.803394
 20
138.620356
 30
0.0
 10
-35.803394
 20
137.344830
 30
0.0
 10
-36.252189
 20
136.270083
 30
0.0
 10
-37.149780
 20
135.396117
 30
0.0
  0
SPLINE
  5
249
100
AcDbEntity
  8
Ebene_1
 62
7
100
AcDbSpline
 70
8
 71
3
 72
8
 73
4
 74
0
 40
0
 40
0
 40
0
 40
0
 40
1
 40
1
 40
1
 40
1
 10
-37.149780
 20
135.396117
 30
0.0
 10
-38.047371
 20
134.522144
 30
0.0
 10
-39.110307
 20
134.085158
 30
0.0
 10
-40.338588
 20
134.085158
 30
0.0
  0
LWPOLYLINE
  5
24a
100
AcDbEntity
  8
Ebene_1
 62
7
100
AcDbPolyline
 90
2
 70
0
 10
-63.014559
 20
138.620356
 30
0.0
 10
-35.803394
 20
138.620356
 30
0.0
  0
LWPOLYLINE
  5
24b
100
AcDbEntity
  8
Ebene_1
 62
7
100
AcDbPolyline
 90
2
 70
0
 10
-40.338588
 20
134.085158
 30
0.0
 10
-58.479364
 20
134.085158
 30
0.0
  0
LWPOLYLINE
  5
24c
100
AcDbEntity
  8
Ebene_1
 62
7
100
AcDbPolyline
 90
7
 70
1
 10
89.596833
 20
113.508223
 30
0.0
 10
86.393453
 20
113.508223
 30
0.0
 10
82.862020
 20
103.994570
 30
0.0
 10
79.330578
 20
113.508223
 30
0.0
 10
76.050015
 20
113.508223
 30
0.0
 10
81.511196
 20
99.903511
 30
0.0
 10
84.135653
 20
99.903511
 30
0.0
  0
LWPOLYLINE
  5
24d
100
AcDbEntity
  8
Ebene_1
 62
7
100
AcDbPolyline
 90
12
 70
1
 10
101.966507
 20
100.000000
 30
0.0
 10
101.966507
 20
102.643746
 30
0.0
 10
94.633472
 20
102.643746
 30
0.0
 10
94.633472
 20
105.480478
 30
0.0
 10
101.001629
 20
105.480478
 30
0.0
 10
101.001629
 20
108.124224
 30
0.0
 10
94.633472
 20
108.124224
 30
0.0
 10
94.633472
 20
110.864468
 30
0.0
 10
101.870019
 20
110.864468
 30
0.0
 10
101.870019
 20
113.508223
 30
0.0
 10
91.680954
 20
113.508223
 30
0.0
 10
91.680954
 20
100.000000
 30
0.0
  0
LWPOLYLINE
  5
24e
100
AcDbEntity
  8
Ebene_1
 62
7
100
AcDbPolyline
 90
12
 70
1
 10
116.032850
 20
100.000000
 30
0.0
 10
116.032850
 20
113.508223
 30
0.0
 10
113.061042
 20
113.508223
 30
0.0
 10
113.061042
 20
108.162820
 30
0.0
 10
107.580564
 20
108.162820
 30
0.0
 10
107.580564
 20
113.508223
 30
0.0
 10
104.608748
 20
113.508223
 30
0.0
 10
104.608748
 20
100.000000
 30
0.0
 10
107.580564
 20
100.000000
 30
0.0
 10
107.580564
 20
105.422585
 30
0.0
 10
113.061042
 20
105.422585
 30
0.0
 10
113.061042
 20
100.000000
 30
0.0
  0
LWPOLYLINE
  5
24f
100
AcDbEntity
  8
Ebene_1
 62
7
100
AcDbPolyline
 90
4
 70
1
 10
122.377192
 20
100.000000
 30
0.0
 10
122.377192
 20
113.508223
 30
0.0
 10
119.405384
 20
113.508223
 30
0.0
 10
119.405384
 20
100.000000
 30
0.0
  0
SPLINE
  5
250
100
AcDbEntity
  8
Ebene_1
 62
7
100
AcDbSpline
 70
8
 71
3
 72
8
 73
4
 74
0
 40
0
 40
0
 40
0
 40
0
 40
1
 40
1
 40
1
 40
1
 10
135.729831
 20
104.091059
 30
0.0
 10
135.202367
 20
103.602189
 30
0.0
 10
134.668471
 20
103.216240
 30
0.0
 10
134.128142
 20
102.933212
 30
0.0
  0
SPLINE
  5
251
100
AcDbEntity
  8
Ebene_1
 62
7
100
AcDbSpline
 70
8
 71
3
 72
8
 73
4
 74
0
 40
0
 40
0
 40
0
 40
0
 40
1
 40
1
 40
1
 40
1
 10
134.128142
 20
102.933212
 30
0.0
 10
133.600678
 20
102.650184
 30
0.0
 10
132.950997
 20
102.508670
 30
0.0
 10
132.179098
 20
102.508670
 30
0.0
  0
SPLINE
  5
252
100
AcDbEntity
  8
Ebene_1
 62
7
100
AcDbSpline
 70
8
 71
3
 72
8
 73
4
 74
0
 40
0
 40
0
 40
0
 40
0
 40
1
 40
1
 40
1
 40
1
 10
132.179098
 20
102.508670
 30
0.0
 10
131.600174
 20
102.508670
 30
0.0
 10
131.066278
 20
102.618021
 30
0.0
 10
130.577409
 20
102.836723
 30
0.0
  0
SPLINE
  5
253
100
AcDbEntity
  8
Ebene_1
 62
7
100
AcDbSpline
 70
8
 71
3
 72
8
 73
4
 74
0
 40
0
 40
0
 40
0
 40
0
 40
1
 40
1
 40
1
 40
1
 10
130.577409
 20
102.836723
 30
0.0
 10
130.101404
 20
103.068290
 30
0.0
 10
129.689725
 20
103.377051
 30
0.0
 10
129.342370
 20
103.763006
 30
0.0
  0
SPLINE
  5
254
100
AcDbEntity
  8
Ebene_1
 62
7
100
AcDbSpline
 70
8
 71
3
 72
8
 73
4
 74
0
 40
0
 40
0
 40
0
 40
0
 40
1
 40
1
 40
1
 40
1
 10
129.342370
 20
103.763006
 30
0.0
 10
129.007879
 20
104.148955
 30
0.0
 10
128.744147
 20
104.599227
 30
0.0
 10
128.551175
 20
105.113821
 30
0.0
  0
SPLINE
  5
255
100
AcDbEntity
  8
Ebene_1
 62
7
100
AcDbSpline
 70
8
 71
3
 72
8
 73
4
 74
0
 40
0
 40
0
 40
0
 40
0
 40
1
 40
1
 40
1
 40
1
 10
128.551175
 20
105.113821
 30
0.0
 10
128.358198
 20
105.628422
 30
0.0
 10
128.261710
 20
106.175185
 30
0.0
 10
128.261710
 20
106.754111
 30
0.0
  0
LWPOLYLINE
  5
256
100
AcDbEntity
  8
Ebene_1
 62
7
100
AcDbPolyline
 90
2
 70
0
 10
137.620983
 20
102.180609
 30
0.0
 10
135.729831
 20
104.091059
 30
0.0
  0
SPLINE
  5
257
100
AcDbEntity
  8
Ebene_1
 62
7
100
AcDbSpline
 70
8
 71
3
 72
8
 73
4
 74
0
 40
0
 40
0
 40
0
 40
0
 40
1
 40
1
 40
1
 40
1
 10
128.261710
 20
106.792673
 30
0.0
 10
128.261710
 20
107.371594
 30
0.0
 10
128.358198
 20
107.911922
 30
0.0
 10
128.551175
 20
108.413657
 30
0.0
  0
SPLINE
  5
258
100
AcDbEntity
  8
Ebene_1
 62
7
100
AcDbSpline
 70
8
 71
3
 72
8
 73
4
 74
0
 40
0
 40
0
 40
0
 40
0
 40
1
 40
1
 40
1
 40
1
 10
128.551175
 20
108.413657
 30
0.0
 10
128.744147
 20
108.928257
 30
0.0
 10
129.014311
 20
109.378532
 30
0.0
 10
129.361668
 20
109.764481
 30
0.0
  0
SPLINE
  5
259
100
AcDbEntity
  8
Ebene_1
 62
7
100
AcDbSpline
 70
8
 71
3
 72
8
 73
4
 74
0
 40
0
 40
0
 40
0
 40
0
 40
1
 40
1
 40
1
 40
1
 10
129.361668
 20
109.764481
 30
0.0
 10
129.709023
 20
110.150430
 30
0.0
 10
130.120702
 20
110.452755
 30
0.0
 10
130.596706
 20
110.671457
 30
0.0
  0
SPLINE
  5
25a
100
AcDbEntity
  8
Ebene_1
 62
7
100
AcDbSpline
 70
8
 71
3
 72
8
 73
4
 74
0
 40
0
 40
0
 40
0
 40
0
 40
1
 40
1
 40
1
 40
1
 10
130.596706
 20
110.671457
 30
0.0
 10
131.085575
 20
110.890165
 30
0.0
 10
131.613039
 20
110.999518
 30
0.0
 10
132.179098
 20
110.999518
 30
0.0
  0
SPLINE
  5
25b
100
AcDbEntity
  8
Ebene_1
 62
7
100
AcDbSpline
 70
8
 71
3
 72
8
 73
4
 74
0
 40
0
 40
0
 40
0
 40
0
 40
1
 40
1
 40
1
 40
1
 10
132.179098
 20
110.999518
 30
0.0
 10
132.860942
 20
110.999518
 30
0.0
 10
133.472028
 20
110.864434
 30
0.0
 10
134.012357
 20
110.594266
 30
0.0
  0
SPLINE
  5
25c
100
AcDbEntity
  8
Ebene_1
 62
7
100
AcDbSpline
 70
8
 71
3
 72
8
 73
4
 74
0
 40
0
 40
0
 40
0
 40
0
 40
1
 40
1
 40
1
 40
1
 10
134.012357
 20
110.594266
 30
0.0
 10
134.565551
 20
110.324104
 30
0.0
 10
135.105880
 20
109.951020
 30
0.0
 10
135.633344
 20
109.475015
 30
0.0
  0
LWPOLYLINE
  5
25d
100
AcDbEntity
  8
Ebene_1
 62
7
100
AcDbPolyline
 90
2
 70
0
 10
128.261710
 20
106.754111
 30
0.0
 10
128.261710
 20
106.792673
 30
0.0
  0
SPLINE
  5
25e
100
AcDbEntity
  8
Ebene_1
 62
7
100
AcDbSpline
 70
8
 71
3
 72
8
 73
4
 74
0
 40
0
 40
0
 40
0
 40
0
 40
1
 40
1
 40
1
 40
1
 10
137.524496
 20
111.655633
 30
0.0
 10
137.215736
 20
111.964391
 30
0.0
 10
136.881247
 20
112.247418
 30
0.0
 10
136.521028
 20
112.504716
 30
0.0
  0
SPLINE
  5
25f
100
AcDbEntity
  8
Ebene_1
 62
7
100
AcDbSpline
 70
8
 71
3
 72
8
 73
4
 74
0
 40
0
 40
0
 40
0
 40
0
 40
1
 40
1
 40
1
 40
1
 10
136.521028
 20
112.504716
 30
0.0
 10
136.160808
 20
112.762019
 30
0.0
 10
135.768426
 20
112.980723
 30
0.0
 10
135.343882
 20
113.160830
 30
0.0
  0
SPLINE
  5
260
100
AcDbEntity
  8
Ebene_1
 62
7
100
AcDbSpline
 70
8
 71
3
 72
8
 73
4
 74
0
 40
0
 40
0
 40
0
 40
0
 40
1
 40
1
 40
1
 40
1
 10
135.343882
 20
113.160830
 30
0.0
 10
134.919338
 20
113.340942
 30
0.0
 10
134.443334
 20
113.482459
 30
0.0
 10
133.915870
 20
113.585380
 30
0.0
  0
SPLINE
  5
261
100
AcDbEntity
  8
Ebene_1
 62
7
100
AcDbSpline
 70
8
 71
3
 72
8
 73
4
 74
0
 40
0
 40
0
 40
0
 40
0
 40
1
 40
1
 40
1
 40
1
 10
133.915870
 20
113.585380
 30
0.0
 10
133.401271
 20
113.688296
 30
0.0
 10
132.828779
 20
113.739753
 30
0.0
 10
132.198395
 20
113.739753
 30
0.0
  0
SPLINE
  5
262
100
AcDbEntity
  8
Ebene_1
 62
7
100
AcDbSpline
 70
8
 71
3
 72
8
 73
4
 74
0
 40
0
 40
0
 40
0
 40
0
 40
1
 40
1
 40
1
 40
1
 10
132.198395
 20
113.739753
 30
0.0
 10
131.156332
 20
113.739753
 30
0.0
 10
130.204324
 20
113.553211
 30
0.0
 10
129.342370
 20
113.180128
 30
0.0
  0
SPLINE
  5
263
100
AcDbEntity
  8
Ebene_1
 62
7
100
AcDbSpline
 70
8
 71
3
 72
8
 73
4
 74
0
 40
0
 40
0
 40
0
 40
0
 40
1
 40
1
 40
1
 40
1
 10
129.342370
 20
113.180128
 30
0.0
 10
128.480419
 20
112.819909
 30
0.0
 10
127.740682
 20
112.318177
 30
0.0
 10
127.123161
 20
111.674930
 30
0.0
  0
SPLINE
  5
264
100
AcDbEntity
  8
Ebene_1
 62
7
100
AcDbSpline
 70
8
 71
3
 72
8
 73
4
 74
0
 40
0
 40
0
 40
0
 40
0
 40
1
 40
1
 40
1
 40
1
 10
127.123161
 20
111.674930
 30
0.0
 10
126.505645
 20
111.044544
 30
0.0
 10
126.023210
 20
110.304806
 30
0.0
 10
125.675856
 20
109.455717
 30
0.0
  0
SPLINE
  5
265
100
AcDbEntity
  8
Ebene_1
 62
7
100
AcDbSpline
 70
8
 71
3
 72
8
 73
4
 74
0
 40
0
 40
0
 40
0
 40
0
 40
1
 40
1
 40
1
 40
1
 10
125.675856
 20
109.455717
 30
0.0
 10
125.328497
 20
108.619494
 30
0.0
 10
125.154818
 20
107.718947
 30
0.0
 10
125.154818
 20
106.754078
 30
0.0
  0
LWPOLYLINE
  5
266
100
AcDbEntity
  8
Ebene_1
 62
7
100
AcDbPolyline
 90
2
 70
0
 10
135.633344
 20
109.475015
 30
0.0
 10
137.524496
 20
111.655633
 30
0.0
  0
SPLINE
  5
267
100
AcDbEntity
  8
Ebene_1
 62
7
100
AcDbSpline
 70
8
 71
3
 72
8
 73
4
 74
0
 40
0
 40
0
 40
0
 40
0
 40
1
 40
1
 40
1
 40
1
 10
125.154818
 20
106.715516
 30
0.0
 10
125.154818
 20
105.750641
 30
0.0
 10
125.328497
 20
104.843659
 30
0.0
 10
125.675856
 20
103.994570
 30
0.0
  0
SPLINE
  5
268
100
AcDbEntity
  8
Ebene_1
 62
7
100
AcDbSpline
 70
8
 71
3
 72
8
 73
4
 74
0
 40
0
 40
0
 40
0
 40
0
 40
1
 40
1
 40
1
 40
1
 10
125.675856
 20
103.994570
 30
0.0
 10
126.023210
 20
103.145481
 30
0.0
 10
126.505645
 20
102.405746
 30
0.0
 10
127.123161
 20
101.775365
 30
0.0
  0
SPLINE
  5
269
100
AcDbEntity
  8
Ebene_1
 62
7
100
AcDbSpline
 70
8
 71
3
 72
8
 73
4
 74
0
 40
0
 40
0
 40
0
 40
0
 40
1
 40
1
 40
1
 40
1
 10
127.123161
 20
101.775365
 30
0.0
 10
127.740682
 20
101.157844
 30
0.0
 10
128.473987
 20
100.668974
 30
0.0
 10
129.323074
 20
100.308755
 30
0.0
  0
SPLINE
  5
26a
100
AcDbEntity
  8
Ebene_1
 62
7
100
AcDbSpline
 70
8
 71
3
 72
8
 73
4
 74
0
 40
0
 40
0
 40
0
 40
0
 40
1
 40
1
 40
1
 40
1
 10
129.323074
 20
100.308755
 30
0.0
 10
130.172162
 20
99.948536
 30
0.0
 10
131.092007
 20
99.768427
 30
0.0
 10
132.082610
 20
99.768427
 30
0.0
  0
SPLINE
  5
26b
100
AcDbEntity
  8
Ebene_1
 62
7
100
AcDbSpline
 70
8
 71
3
 72
8
 73
4
 74
0
 40
0
 40
0
 40
0
 40
0
 40
1
 40
1
 40
1
 40
1
 10
132.082610
 20
99.768427
 30
0.0
 10
132.738724
 20
99.768427
 30
0.0
 10
133.330513
 20
99.826320
 30
0.0
 10
133.857978
 20
99.942107
 30
0.0
  0
SPLINE
  5
26c
100
AcDbEntity
  8
Ebene_1
 62
7
100
AcDbSpline
 70
8
 71
3
 72
8
 73
4
 74
0
 40
0
 40
0
 40
0
 40
0
 40
1
 40
1
 40
1
 40
1
 10
133.857978
 20
99.942107
 30
0.0
 10
134.385441
 20
100.045022
 30
0.0
 10
134.867878
 20
100.199401
 30
0.0
 10
135.305287
 20
100.405244
 30
0.0
  0
SPLINE
  5
26d
100
AcDbEntity
  8
Ebene_1
 62
7
100
AcDbSpline
 70
8
 71
3
 72
8
 73
4
 74
0
 40
0
 40
0
 40
0
 40
0
 40
1
 40
1
 40
1
 40
1
 10
135.305287
 20
100.405244
 30
0.0
 10
135.755561
 20
100.623946
 30
0.0
 10
136.167240
 20
100.881246
 30
0.0
 10
136.540324
 20
101.177144
 30
0.0
  0
SPLINE
  5
26e
100
AcDbEntity
  8
Ebene_1
 62
7
100
AcDbSpline
 70
8
 71
3
 72
8
 73
4
 74
0
 40
0
 40
0
 40
0
 40
0
 40
1
 40
1
 40
1
 40
1
 10
136.540324
 20
101.177144
 30
0.0
 10
136.913409
 20
101.473037
 30
0.0
 10
137.273628
 20
101.807525
 30
0.0
 10
137.620983
 20
102.180609
 30
0.0
  0
LWPOLYLINE
  5
26f
100
AcDbEntity
  8
Ebene_1
 62
7
100
AcDbPolyline
 90
2
 70
0
 10
125.154818
 20
106.754078
 30
0.0
 10
125.154818
 20
106.715516
 30
0.0
  0
LWPOLYLINE
  5
270
100
AcDbEntity
  8
Ebene_1
 62
7
100
AcDbPolyline
 90
1
 70
1
 10
137.620983
 20
102.180609
 30
0.0
  0
LWPOLYLINE
  5
271
100
AcDbEntity
  8
Ebene_1
 62
7
100
AcDbPolyline
 90
6
 70
1
 10
149.706621
 20
100.000000
 30
0.0
 10
149.706621
 20
102.701639
 30
0.0
 10
142.971807
 20
102.701639
 30
0.0
 10
142.971807
 20
113.508223
 30
0.0
 10
139.999997
 20
113.508223
 30
0.0
 10
139.999997
 20
100.000000
 30
0.0
  0
LWPOLYLINE
  5
272
100
AcDbEntity
  8
Ebene_1
 62
7
100
AcDbPolyline
 90
12
 70
1
 10
162.233393
 20
100.000000
 30
0.0
 10
162.233393
 20
102.643746
 30
0.0
 10
154.900357
 20
102.643746
 30
0.0
 10
154.900357
 20
105.480478
 30
0.0
 10
161.268520
 20
105.480478
 30
0.0
 10
161.268520
 20
108.124224
 30
0.0
 10
154.900357
 20
108.124224
 30
0.0
 10
154.900357
 20
110.864468
 30
0.0
 10
162.136906
 20
110.864468
 30
0.0
 10
162.136906
 20
113.508223
 30
0.0
 10
151.947845
 20
113.508223
 30
0.0
 10
151.947845
 20
100.000000
 30
0.0
  0
SPLINE
  5
273
100
AcDbEntity
  8
Ebene_1
 62
7
100
AcDbSpline
 70
8
 71
3
 72
8
 73
4
 74
0
 40
0
 40
0
 40
0
 40
0
 40
1
 40
1
 40
1
 40
1
 10
174.640153
 20
104.033132
 30
0.0
 10
174.640153
 20
104.624923
 30
0.0
 10
174.543666
 20
105.133091
 30
0.0
 10
174.350691
 20
105.557636
 30
0.0
  0
SPLINE
  5
274
100
AcDbEntity
  8
Ebene_1
 62
7
100
AcDbSpline
 70
8
 71
3
 72
8
 73
4
 74
0
 40
0
 40
0
 40
0
 40
0
 40
1
 40
1
 40
1
 40
1
 10
174.350691
 20
105.557636
 30
0.0
 10
174.170581
 20
105.982180
 30
0.0
 10
173.893984
 20
106.348831
 30
0.0
 10
173.520900
 20
106.657589
 30
0.0
  0
SPLINE
  5
275
100
AcDbEntity
  8
Ebene_1
 62
7
100
AcDbSpline
 70
8
 71
3
 72
8
 73
4
 74
0
 40
0
 40
0
 40
0
 40
0
 40
1
 40
1
 40
1
 40
1
 10
173.520900
 20
106.657589
 30
0.0
 10
173.160681
 20
106.979212
 30
0.0
 10
172.710407
 20
107.249378
 30
0.0
 10
172.170078
 20
107.468085
 30
0.0
  0
SPLINE
  5
276
100
AcDbEntity
  8
Ebene_1
 62
7
100
AcDbSpline
 70
8
 71
3
 72
8
 73
4
 74
0
 40
0
 40
0
 40
0
 40
0
 40
1
 40
1
 40
1
 40
1
 10
172.170078
 20
107.468085
 30
0.0
 10
171.642614
 20
107.699652
 30
0.0
 10
171.037960
 20
107.905492
 30
0.0
 10
170.356116
 20
108.085604
 30
0.0
  0
SPLINE
  5
277
100
AcDbEntity
  8
Ebene_1
 62
7
100
AcDbSpline
 70
8
 71
3
 72
8
 73
4
 74
0
 40
0
 40
0
 40
0
 40
0
 40
1
 40
1
 40
1
 40
1
 10
170.356116
 20
108.085604
 30
0.0
 10
169.777192
 20
108.239980
 30
0.0
 10
169.294755
 20
108.375061
 30
0.0
 10
168.908806
 20
108.490848
 30
0.0
  0
SPLINE
  5
278
100
AcDbEntity
  8
Ebene_1
 62
7
100
AcDbSpline
 70
8
 71
3
 72
8
 73
4
 74
0
 40
0
 40
0
 40
0
 40
0
 40
1
 40
1
 40
1
 40
1
 10
168.908806
 20
108.490848
 30
0.0
 10
168.535722
 20
108.606634
 30
0.0
 10
168.239828
 20
108.728850
 30
0.0
 10
168.021123
 20
108.857496
 30
0.0
  0
SPLINE
  5
279
100
AcDbEntity
  8
Ebene_1
 62
7
100
AcDbSpline
 70
8
 71
3
 72
8
 73
4
 74
0
 40
0
 40
0
 40
0
 40
0
 40
1
 40
1
 40
1
 40
1
 10
168.021123
 20
108.857496
 30
0.0
 10
167.802418
 20
108.986148
 30
0.0
 10
167.648038
 20
109.127664
 30
0.0
 10
167.557984
 20
109.282046
 30
0.0
  0
SPLINE
  5
27a
100
AcDbEntity
  8
Ebene_1
 62
7
100
AcDbSpline
 70
8
 71
3
 72
8
 73
4
 74
0
 40
0
 40
0
 40
0
 40
0
 40
1
 40
1
 40
1
 40
1
 10
167.557984
 20
109.282046
 30
0.0
 10
167.480794
 20
109.449287
 30
0.0
 10
167.442199
 20
109.642262
 30
0.0
 10
167.442199
 20
109.860969
 30
0.0
  0
LWPOLYLINE
  5
27b
100
AcDbEntity
  8
Ebene_1
 62
7
100
AcDbPolyline
 90
2
 70
0
 10
174.640153
 20
103.994570
 30
0.0
 10
174.640153
 20
104.033132
 30
0.0
  0
SPLINE
  5
27c
100
AcDbEntity
  8
Ebene_1
 62
7
100
AcDbSpline
 70
8
 71
3
 72
8
 73
4
 74
0
 40
0
 40
0
 40
0
 40
0
 40
1
 40
1
 40
1
 40
1
 10
167.442199
 20
109.899531
 30
0.0
 10
167.442199
 20
110.234020
 30
0.0
 10
167.583714
 20
110.510615
 30
0.0
 10
167.866743
 20
110.729317
 30
0.0
  0
SPLINE
  5
27d
100
AcDbEntity
  8
Ebene_1
 62
7
100
AcDbSpline
 70
8
 71
3
 72
8
 73
4
 74
0
 40
0
 40
0
 40
0
 40
0
 40
1
 40
1
 40
1
 40
1
 10
167.866743
 20
110.729317
 30
0.0
 10
168.162637
 20
110.960889
 30
0.0
 10
168.600047
 20
111.076676
 30
0.0
 10
169.178971
 20
111.076676
 30
0.0
  0
SPLINE
  5
27e
100
AcDbEntity
  8
Ebene_1
 62
7
100
AcDbSpline
 70
8
 71
3
 72
8
 73
4
 74
0
 40
0
 40
0
 40
0
 40
0
 40
1
 40
1
 40
1
 40
1
 10
169.178971
 20
111.076676
 30
0.0
 10
169.757895
 20
111.076676
 30
0.0
 10
170.336818
 20
110.954457
 30
0.0
 10
170.915742
 20
110.710019
 30
0.0
  0
SPLINE
  5
27f
100
AcDbEntity
  8
Ebene_1
 62
7
100
AcDbSpline
 70
8
 71
3
 72
8
 73
4
 74
0
 40
0
 40
0
 40
0
 40
0
 40
1
 40
1
 40
1
 40
1
 10
170.915742
 20
110.710019
 30
0.0
 10
171.494666
 20
110.478452
 30
0.0
 10
172.086455
 20
110.156829
 30
0.0
 10
172.691109
 20
109.745150
 30
0.0
  0
LWPOLYLINE
  5
280
100
AcDbEntity
  8
Ebene_1
 62
7
100
AcDbPolyline
 90
2
 70
0
 10
167.442199
 20
109.860969
 30
0.0
 10
167.442199
 20
109.899531
 30
0.0
  0
SPLINE
  5
281
100
AcDbEntity
  8
Ebene_1
 62
7
100
AcDbSpline
 70
8
 71
3
 72
8
 73
4
 74
0
 40
0
 40
0
 40
0
 40
0
 40
1
 40
1
 40
1
 40
1
 10
174.234907
 20
111.983652
 30
0.0
 10
173.540197
 20
112.536848
 30
0.0
 10
172.774731
 20
112.961392
 30
0.0
 10
171.938508
 20
113.257285
 30
0.0
  0
SPLINE
  5
282
100
AcDbEntity
  8
Ebene_1
 62
7
100
AcDbSpline
 70
8
 71
3
 72
8
 73
4
 74
0
 40
0
 40
0
 40
0
 40
0
 40
1
 40
1
 40
1
 40
1
 10
171.938508
 20
113.257285
 30
0.0
 10
171.115150
 20
113.553178
 30
0.0
 10
170.208169
 20
113.701124
 30
0.0
 10
169.217566
 20
113.701124
 30
0.0
  0
SPLINE
  5
283
100
AcDbEntity
  8
Ebene_1
 62
7
100
AcDbSpline
 70
8
 71
3
 72
8
 73
4
 74
0
 40
0
 40
0
 40
0
 40
0
 40
1
 40
1
 40
1
 40
1
 10
169.217566
 20
113.701124
 30
0.0
 10
168.522857
 20
113.701124
 30
0.0
 10
167.886040
 20
113.604639
 30
0.0
 10
167.307116
 20
113.411667
 30
0.0
  0
SPLINE
  5
284
100
AcDbEntity
  8
Ebene_1
 62
7
100
AcDbSpline
 70
8
 71
3
 72
8
 73
4
 74
0
 40
0
 40
0
 40
0
 40
0
 40
1
 40
1
 40
1
 40
1
 10
167.307116
 20
113.411667
 30
0.0
 10
166.728193
 20
113.218690
 30
0.0
 10
166.226459
 20
112.942092
 30
0.0
 10
165.801915
 20
112.581873
 30
0.0
  0
SPLINE
  5
285
100
AcDbEntity
  8
Ebene_1
 62
7
100
AcDbSpline
 70
8
 71
3
 72
8
 73
4
 74
0
 40
0
 40
0
 40
0
 40
0
 40
1
 40
1
 40
1
 40
1
 10
165.801915
 20
112.581873
 30
0.0
 10
165.390236
 20
112.221655
 30
0.0
 10
165.068611
 20
111.790678
 30
0.0
 10
164.837041
 20
111.288942
 30
0.0
  0
SPLINE
  5
286
100
AcDbEntity
  8
Ebene_1
 62
7
100
AcDbSpline
 70
8
 71
3
 72
8
 73
4
 74
0
 40
0
 40
0
 40
0
 40
0
 40
1
 40
1
 40
1
 40
1
 10
164.837041
 20
111.288942
 30
0.0
 10
164.605472
 20
110.800078
 30
0.0
 10
164.489687
 20
110.246885
 30
0.0
 10
164.489687
 20
109.629363
 30
0.0
  0
LWPOLYLINE
  5
287
100
AcDbEntity
  8
Ebene_1
 62
7
100
AcDbPolyline
 90
2
 70
0
 10
172.691109
 20
109.745150
 30
0.0
 10
174.234907
 20
111.983652
 30
0.0
  0
SPLINE
  5
288
100
AcDbEntity
  8
Ebene_1
 62
7
100
AcDbSpline
 70
8
 71
3
 72
8
 73
4
 74
0
 40
0
 40
0
 40
0
 40
0
 40
1
 40
1
 40
1
 40
1
 10
164.489687
 20
109.590801
 30
0.0
 10
164.489687
 20
108.921825
 30
0.0
 10
164.592607
 20
108.362199
 30
0.0
 10
164.798447
 20
107.911924
 30
0.0
  0
SPLINE
  5
289
100
AcDbEntity
  8
Ebene_1
 62
7
100
AcDbSpline
 70
8
 71
3
 72
8
 73
4
 74
0
 40
0
 40
0
 40
0
 40
0
 40
1
 40
1
 40
1
 40
1
 10
164.798447
 20
107.911924
 30
0.0
 10
165.017151
 20
107.461650
 30
0.0
 10
165.319478
 20
107.082133
 30
0.0
 10
165.705427
 20
106.773375
 30
0.0
  0
SPLINE
  5
28a
100
AcDbEntity
  8
Ebene_1
 62
7
100
AcDbSpline
 70
8
 71
3
 72
8
 73
4
 74
0
 40
0
 40
0
 40
0
 40
0
 40
1
 40
1
 40
1
 40
1
 10
165.705427
 20
106.773375
 30
0.0
 10
166.091377
 20
106.477477
 30
0.0
 10
166.560948
 20
106.226609
 30
0.0
 10
167.114142
 20
106.020773
 30
0.0
  0
SPLINE
  5
28b
100
AcDbEntity
  8
Ebene_1
 62
7
100
AcDbSpline
 70
8
 71
3
 72
8
 73
4
 74
0
 40
0
 40
0
 40
0
 40
0
 40
1
 40
1
 40
1
 40
1
 10
167.114142
 20
106.020773
 30
0.0
 10
167.667336
 20
105.814930
 30
0.0
 10
168.284855
 20
105.628388
 30
0.0
 10
168.966699
 20
105.461147
 30
0.0
  0
SPLINE
  5
28c
100
AcDbEntity
  8
Ebene_1
 62
7
100
AcDbSpline
 70
8
 71
3
 72
8
 73
4
 74
0
 40
0
 40
0
 40
0
 40
0
 40
1
 40
1
 40
1
 40
1
 10
168.966699
 20
105.461147
 30
0.0
 10
169.532758
 20
105.319630
 30
0.0
 10
169.989464
 20
105.184546
 30
0.0
 10
170.336818
 20
105.055895
 30
0.0
  0
SPLINE
  5
28d
100
AcDbEntity
  8
Ebene_1
 62
7
100
AcDbSpline
 70
8
 71
3
 72
8
 73
4
 74
0
 40
0
 40
0
 40
0
 40
0
 40
1
 40
1
 40
1
 40
1
 10
170.336818
 20
105.055895
 30
0.0
 10
170.697038
 20
104.927249
 30
0.0
 10
170.973635
 20
104.798600
 30
0.0
 10
171.166609
 20
104.669949
 30
0.0
  0
SPLINE
  5
28e
100
AcDbEntity
  8
Ebene_1
 62
7
100
AcDbSpline
 70
8
 71
3
 72
8
 73
4
 74
0
 40
0
 40
0
 40
0
 40
0
 40
1
 40
1
 40
1
 40
1
 10
171.166609
 20
104.669949
 30
0.0
 10
171.372449
 20
104.541297
 30
0.0
 10
171.507531
 20
104.399783
 30
0.0
 10
171.571857
 20
104.245407
 30
0.0
  0
SPLINE
  5
28f
100
AcDbEntity
  8
Ebene_1
 62
7
100
AcDbSpline
 70
8
 71
3
 72
8
 73
4
 74
0
 40
0
 40
0
 40
0
 40
0
 40
1
 40
1
 40
1
 40
1
 10
171.571857
 20
104.245407
 30
0.0
 10
171.649046
 20
104.103890
 30
0.0
 10
171.687641
 20
103.936646
 30
0.0
 10
171.687641
 20
103.743675
 30
0.0
  0
LWPOLYLINE
  5
290
100
AcDbEntity
  8
Ebene_1
 62
7
100
AcDbPolyline
 90
2
 70
0
 10
164.489687
 20
109.629363
 30
0.0
 10
164.489687
 20
109.590801
 30
0.0
  0
SPLINE
  5
291
100
AcDbEntity
  8
Ebene_1
 62
7
100
AcDbSpline
 70
8
 71
3
 72
8
 73
4
 74
0
 40
0
 40
0
 40
0
 40
0
 40
1
 40
1
 40
1
 40
1
 10
171.687641
 20
103.705113
 30
0.0
 10
171.687641
 20
103.306299
 30
0.0
 10
171.513964
 20
102.991105
 30
0.0
 10
171.166609
 20
102.759532
 30
0.0
  0
SPLINE
  5
292
100
AcDbEntity
  8
Ebene_1
 62
7
100
AcDbSpline
 70
8
 71
3
 72
8
 73
4
 74
0
 40
0
 40
0
 40
0
 40
0
 40
1
 40
1
 40
1
 40
1
 10
171.166609
 20
102.759532
 30
0.0
 10
170.832120
 20
102.540831
 30
0.0
 10
170.356116
 20
102.431480
 30
0.0
 10
169.738597
 20
102.431480
 30
0.0
  0
SPLINE
  5
293
100
AcDbEntity
  8
Ebene_1
 62
7
100
AcDbSpline
 70
8
 71
3
 72
8
 73
4
 74
0
 40
0
 40
0
 40
0
 40
0
 40
1
 40
1
 40
1
 40
1
 10
169.738597
 20
102.431480
 30
0.0
 10
168.966699
 20
102.431480
 30
0.0
 10
168.252693
 20
102.579426
 30
0.0
 10
167.596579
 20
102.875319
 30
0.0
  0
SPLINE
  5
294
100
AcDbEntity
  8
Ebene_1
 62
7
100
AcDbSpline
 70
8
 71
3
 72
8
 73
4
 74
0
 40
0
 40
0
 40
0
 40
0
 40
1
 40
1
 40
1
 40
1
 10
167.596579
 20
102.875319
 30
0.0
 10
166.953330
 20
103.171212
 30
0.0
 10
166.322946
 20
103.570026
 30
0.0
 10
165.705427
 20
104.071761
 30
0.0
  0
LWPOLYLINE
  5
295
100
AcDbEntity
  8
Ebene_1
 62
7
100
AcDbPolyline
 90
2
 70
0
 10
171.687641
 20
103.743675
 30
0.0
 10
171.687641
 20
103.705113
 30
0.0
  0
SPLINE
  5
296
100
AcDbEntity
  8
Ebene_1
 62
7
100
AcDbSpline
 70
8
 71
3
 72
8
 73
4
 74
0
 40
0
 40
0
 40
0
 40
0
 40
1
 40
1
 40
1
 40
1
 10
163.949358
 20
101.968334
 30
0.0
 10
164.759852
 20
101.235032
 30
0.0
 10
165.660400
 20
100.688271
 30
0.0
 10
166.651003
 20
100.328053
 30
0.0
  0
SPLINE
  5
297
100
AcDbEntity
  8
Ebene_1
 62
7
100
AcDbSpline
 70
8
 71
3
 72
8
 73
4
 74
0
 40
0
 40
0
 40
0
 40
0
 40
1
 40
1
 40
1
 40
1
 10
166.651003
 20
100.328053
 30
0.0
 10
167.641606
 20
99.980699
 30
0.0
 10
168.651507
 20
99.807023
 30
0.0
 10
169.680705
 20
99.807023
 30
0.0
  0
SPLINE
  5
298
100
AcDbEntity
  8
Ebene_1
 62
7
100
AcDbSpline
 70
8
 71
3
 72
8
 73
4
 74
0
 40
0
 40
0
 40
0
 40
0
 40
1
 40
1
 40
1
 40
1
 10
169.680705
 20
99.807023
 30
0.0
 10
170.414008
 20
99.807023
 30
0.0
 10
171.082987
 20
99.897076
 30
0.0
 10
171.687641
 20
100.077182
 30
0.0
  0
SPLINE
  5
299
100
AcDbEntity
  8
Ebene_1
 62
7
100
AcDbSpline
 70
8
 71
3
 72
8
 73
4
 74
0
 40
0
 40
0
 40
0
 40
0
 40
1
 40
1
 40
1
 40
1
 10
171.687641
 20
100.077182
 30
0.0
 10
172.292295
 20
100.270160
 30
0.0
 10
172.813326
 20
100.540325
 30
0.0
 10
173.250735
 20
100.887678
 30
0.0
  0
SPLINE
  5
29a
100
AcDbEntity
  8
Ebene_1
 62
7
100
AcDbSpline
 70
8
 71
3
 72
8
 73
4
 74
0
 40
0
 40
0
 40
0
 40
0
 40
1
 40
1
 40
1
 40
1
 10
173.250735
 20
100.887678
 30
0.0
 10
173.688145
 20
101.247897
 30
0.0
 10
174.029067
 20
101.685306
 30
0.0
 10
174.273501
 20
102.199907
 30
0.0
  0
SPLINE
  5
29b
100
AcDbEntity
  8
Ebene_1
 62
7
100
AcDbSpline
 70
8
 71
3
 72
8
 73
4
 74
0
 40
0
 40
0
 40
0
 40
0
 40
1
 40
1
 40
1
 40
1
 10
174.273501
 20
102.199907
 30
0.0
 10
174.517936
 20
102.727372
 30
0.0
 10
174.640153
 20
103.325593
 30
0.0
 10
174.640153
 20
103.994570
 30
0.0
  0
LWPOLYLINE
  5
29c
100
AcDbEntity
  8
Ebene_1
 62
7
100
AcDbPolyline
 90
2
 70
0
 10
165.705427
 20
104.071761
 30
0.0
 10
163.949358
 20
101.968334
 30
0.0
  0
LWPOLYLINE
  5
29d
100
AcDbEntity
  8
Ebene_1
 62
7
100
AcDbPolyline
 90
1
 70
1
 10
174.640153
 20
103.994570
 30
0.0
  0
SPLINE
  5
29e
100
AcDbEntity
  8
Ebene_1
 62
7
100
AcDbSpline
 70
8
 71
3
 72
8
 73
4
 74
0
 40
0
 40
0
 40
0
 40
0
 40
1
 40
1
 40
1
 40
1
 10
112.280852
 20
87.495208
 30
0.0
 10
112.280852
 20
88.460078
 30
0.0
 10
112.100743
 20
89.360624
 30
0.0
 10
111.740524
 20
90.196848
 30
0.0
  0
SPLINE
  5
29f
100
AcDbEntity
  8
Ebene_1
 62
7
100
AcDbSpline
 70
8
 71
3
 72
8
 73
4
 74
0
 40
0
 40
0
 40
0
 40
0
 40
1
 40
1
 40
1
 40
1
 10
111.740524
 20
90.196848
 30
0.0
 10
111.393165
 20
91.045937
 30
0.0
 10
110.897862
 20
91.779242
 30
0.0
 10
110.254616
 20
92.396763
 30
0.0
  0
SPLINE
  5
2a0
100
AcDbEntity
  8
Ebene_1
 62
7
100
AcDbSpline
 70
8
 71
3
 72
8
 73
4
 74
0
 40
0
 40
0
 40
0
 40
0
 40
1
 40
1
 40
1
 40
1
 10
110.254616
 20
92.396763
 30
0.0
 10
109.624229
 20
93.027145
 30
0.0
 10
108.871629
 20
93.522444
 30
0.0
 10
107.996816
 20
93.882663
 30
0.0
  0
SPLINE
  5
2a1
100
AcDbEntity
  8
Ebene_1
 62
7
100
AcDbSpline
 70
8
 71
3
 72
8
 73
4
 74
0
 40
0
 40
0
 40
0
 40
0
 40
1
 40
1
 40
1
 40
1
 10
107.996816
 20
93.882663
 30
0.0
 10
107.121997
 20
94.255752
 30
0.0
 10
106.163554
 20
94.442297
 30
0.0
 10
105.121488
 20
94.442297
 30
0.0
  0
SPLINE
  5
2a2
100
AcDbEntity
  8
Ebene_1
 62
7
100
AcDbSpline
 70
8
 71
3
 72
8
 73
4
 74
0
 40
0
 40
0
 40
0
 40
0
 40
1
 40
1
 40
1
 40
1
 10
105.121488
 20
94.442297
 30
0.0
 10
104.079428
 20
94.442297
 30
0.0
 10
103.114556
 20
94.255752
 30
0.0
 10
102.226872
 20
93.882663
 30
0.0
  0
SPLINE
  5
2a3
100
AcDbEntity
  8
Ebene_1
 62
7
100
AcDbSpline
 70
8
 71
3
 72
8
 73
4
 74
0
 40
0
 40
0
 40
0
 40
0
 40
1
 40
1
 40
1
 40
1
 10
102.226872
 20
93.882663
 30
0.0
 10
101.352053
 20
93.522444
 30
0.0
 10
100.593020
 20
93.020712
 30
0.0
 10
99.949774
 20
92.377466
 30
0.0
  0
SPLINE
  5
2a4
100
AcDbEntity
  8
Ebene_1
 62
7
100
AcDbSpline
 70
8
 71
3
 72
8
 73
4
 74
0
 40
0
 40
0
 40
0
 40
0
 40
1
 40
1
 40
1
 40
1
 10
99.949774
 20
92.377466
 30
0.0
 10
99.319387
 20
91.747079
 30
0.0
 10
98.824084
 20
91.007341
 30
0.0
 10
98.463866
 20
90.158253
 30
0.0
  0
SPLINE
  5
2a5
100
AcDbEntity
  8
Ebene_1
 62
7
100
AcDbSpline
 70
8
 71
3
 72
8
 73
4
 74
0
 40
0
 40
0
 40
0
 40
0
 40
1
 40
1
 40
1
 40
1
 10
98.463866
 20
90.158253
 30
0.0
 10
98.103647
 20
89.322029
 30
0.0
 10
97.923538
 20
88.421483
 30
0.0
 10
97.923538
 20
87.456613
 30
0.0
  0
LWPOLYLINE
  5
2a6
100
AcDbEntity
  8
Ebene_1
 62
7
100
AcDbPolyline
 90
2
 70
0
 10
112.280852
 20
87.456646
 30
0.0
 10
112.280852
 20
87.495208
 30
0.0
  0
SPLINE
  5
2a7
100
AcDbEntity
  8
Ebene_1
 62
7
100
AcDbSpline
 70
8
 71
3
 72
8
 73
4
 74
0
 40
0
 40
0
 40
0
 40
0
 40
1
 40
1
 40
1
 40
1
 10
97.923538
 20
87.418051
 30
0.0
 10
97.923538
 20
86.453176
 30
0.0
 10
98.097215
 20
85.546194
 30
0.0
 10
98.444568
 20
84.697105
 30
0.0
  0
SPLINE
  5
2a8
100
AcDbEntity
  8
Ebene_1
 62
7
100
AcDbSpline
 70
8
 71
3
 72
8
 73
4
 74
0
 40
0
 40
0
 40
0
 40
0
 40
1
 40
1
 40
1
 40
1
 10
98.444568
 20
84.697105
 30
0.0
 10
98.804787
 20
83.860882
 30
0.0
 10
99.300089
 20
83.127580
 30
0.0
 10
99.930476
 20
82.497198
 30
0.0
  0
SPLINE
  5
2a9
100
AcDbEntity
  8
Ebene_1
 62
7
100
AcDbSpline
 70
8
 71
3
 72
8
 73
4
 74
0
 40
0
 40
0
 40
0
 40
0
 40
1
 40
1
 40
1
 40
1
 10
99.930476
 20
82.497198
 30
0.0
 10
100.573722
 20
81.879677
 30
0.0
 10
101.332755
 20
81.384374
 30
0.0
 10
102.207574
 20
81.011290
 30
0.0
  0
SPLINE
  5
2aa
100
AcDbEntity
  8
Ebene_1
 62
7
100
AcDbSpline
 70
8
 71
3
 72
8
 73
4
 74
0
 40
0
 40
0
 40
0
 40
0
 40
1
 40
1
 40
1
 40
1
 10
102.207574
 20
81.011290
 30
0.0
 10
103.082393
 20
80.651072
 30
0.0
 10
104.040833
 20
80.470962
 30
0.0
 10
105.082893
 20
80.470962
 30
0.0
  0
SPLINE
  5
2ab
100
AcDbEntity
  8
Ebene_1
 62
7
100
AcDbSpline
 70
8
 71
3
 72
8
 73
4
 74
0
 40
0
 40
0
 40
0
 40
0
 40
1
 40
1
 40
1
 40
1
 10
105.082893
 20
80.470962
 30
0.0
 10
106.124959
 20
80.470962
 30
0.0
 10
107.083401
 20
80.651072
 30
0.0
 10
107.958220
 20
81.011290
 30
0.0
  0
SPLINE
  5
2ac
100
AcDbEntity
  8
Ebene_1
 62
7
100
AcDbSpline
 70
8
 71
3
 72
8
 73
4
 74
0
 40
0
 40
0
 40
0
 40
0
 40
1
 40
1
 40
1
 40
1
 10
107.958220
 20
81.011290
 30
0.0
 10
108.845899
 20
81.384374
 30
0.0
 10
109.604932
 20
81.886109
 30
0.0
 10
110.235318
 20
82.516496
 30
0.0
  0
SPLINE
  5
2ad
100
AcDbEntity
  8
Ebene_1
 62
7
100
AcDbSpline
 70
8
 71
3
 72
8
 73
4
 74
0
 40
0
 40
0
 40
0
 40
0
 40
1
 40
1
 40
1
 40
1
 10
110.235318
 20
82.516496
 30
0.0
 10
110.878565
 20
83.159742
 30
0.0
 10
111.380300
 20
83.899477
 30
0.0
 10
111.740524
 20
84.735701
 30
0.0
  0
SPLINE
  5
2ae
100
AcDbEntity
  8
Ebene_1
 62
7
100
AcDbSpline
 70
8
 71
3
 72
8
 73
4
 74
0
 40
0
 40
0
 40
0
 40
0
 40
1
 40
1
 40
1
 40
1
 10
111.740524
 20
84.735701
 30
0.0
 10
112.100743
 20
85.584790
 30
0.0
 10
112.280852
 20
86.491771
 30
0.0
 10
112.280852
 20
87.456646
 30
0.0
  0
LWPOLYLINE
  5
2af
100
AcDbEntity
  8
Ebene_1
 62
7
100
AcDbPolyline
 90
2
 70
0
 10
97.923538
 20
87.456613
 30
0.0
 10
97.923538
 20
87.418051
 30
0.0
  0
SPLINE
  5
2b0
100
AcDbEntity
  8
Ebene_1
 62
7
100
AcDbSpline
 70
8
 71
3
 72
8
 73
4
 74
0
 40
0
 40
0
 40
0
 40
0
 40
1
 40
1
 40
1
 40
1
 10
109.173960
 20
87.418085
 30
0.0
 10
109.173960
 20
86.839158
 30
0.0
 10
109.071039
 20
86.292398
 30
0.0
 10
108.865197
 20
85.777803
 30
0.0
  0
SPLINE
  5
2b1
100
AcDbEntity
  8
Ebene_1
 62
7
100
AcDbSpline
 70
8
 71
3
 72
8
 73
4
 74
0
 40
0
 40
0
 40
0
 40
0
 40
1
 40
1
 40
1
 40
1
 10
108.865197
 20
85.777803
 30
0.0
 10
108.672225
 20
85.276068
 30
0.0
 10
108.395627
 20
84.832226
 30
0.0
 10
108.035403
 20
84.446277
 30
0.0
  0
SPLINE
  5
2b2
100
AcDbEntity
  8
Ebene_1
 62
7
100
AcDbSpline
 70
8
 71
3
 72
8
 73
4
 74
0
 40
0
 40
0
 40
0
 40
0
 40
1
 40
1
 40
1
 40
1
 10
108.035403
 20
84.446277
 30
0.0
 10
107.688049
 20
84.060328
 30
0.0
 10
107.263508
 20
83.758000
 30
0.0
 10
106.761778
 20
83.539292
 30
0.0
  0
SPLINE
  5
2b3
100
AcDbEntity
  8
Ebene_1
 62
7
100
AcDbSpline
 70
8
 71
3
 72
8
 73
4
 74
0
 40
0
 40
0
 40
0
 40
0
 40
1
 40
1
 40
1
 40
1
 10
106.761778
 20
83.539292
 30
0.0
 10
106.260043
 20
83.320590
 30
0.0
 10
105.713280
 20
83.211239
 30
0.0
 10
105.121488
 20
83.211239
 30
0.0
  0
SPLINE
  5
2b4
100
AcDbEntity
  8
Ebene_1
 62
7
100
AcDbSpline
 70
8
 71
3
 72
8
 73
4
 74
0
 40
0
 40
0
 40
0
 40
0
 40
1
 40
1
 40
1
 40
1
 10
105.121488
 20
83.211239
 30
0.0
 10
104.516838
 20
83.211239
 30
0.0
 10
103.963645
 20
83.320590
 30
0.0
 10
103.461909
 20
83.539292
 30
0.0
  0
SPLINE
  5
2b5
100
AcDbEntity
  8
Ebene_1
 62
7
100
AcDbSpline
 70
8
 71
3
 72
8
 73
4
 74
0
 40
0
 40
0
 40
0
 40
0
 40
1
 40
1
 40
1
 40
1
 10
103.461909
 20
83.539292
 30
0.0
 10
102.973039
 20
83.770865
 30
0.0
 10
102.542062
 20
84.079626
 30
0.0
 10
102.168978
 20
84.465575
 30
0.0
  0
SPLINE
  5
2b6
100
AcDbEntity
  8
Ebene_1
 62
7
100
AcDbSpline
 70
8
 71
3
 72
8
 73
4
 74
0
 40
0
 40
0
 40
0
 40
0
 40
1
 40
1
 40
1
 40
1
 10
102.168978
 20
84.465575
 30
0.0
 10
101.808760
 20
84.851523
 30
0.0
 10
101.525729
 20
85.301795
 30
0.0
 10
101.319887
 20
85.816390
 30
0.0
  0
SPLINE
  5
2b7
100
AcDbEntity
  8
Ebene_1
 62
7
100
AcDbSpline
 70
8
 71
3
 72
8
 73
4
 74
0
 40
0
 40
0
 40
0
 40
0
 40
1
 40
1
 40
1
 40
1
 10
101.319887
 20
85.816390
 30
0.0
 10
101.126915
 20
86.330991
 30
0.0
 10
101.030430
 20
86.877754
 30
0.0
 10
101.030430
 20
87.456680
 30
0.0
  0
LWPOLYLINE
  5
2b8
100
AcDbEntity
  8
Ebene_1
 62
7
100
AcDbPolyline
 90
1
 70
1
 10
112.280852
 20
87.456646
 30
0.0
  0
SPLINE
  5
2b9
100
AcDbEntity
  8
Ebene_1
 62
7
100
AcDbSpline
 70
8
 71
3
 72
8
 73
4
 74
0
 40
0
 40
0
 40
0
 40
0
 40
1
 40
1
 40
1
 40
1
 10
101.030430
 20
87.495242
 30
0.0
 10
101.030430
 20
88.074163
 30
0.0
 10
101.126915
 20
88.614490
 30
0.0
 10
101.319887
 20
89.116226
 30
0.0
  0
SPLINE
  5
2ba
100
AcDbEntity
  8
Ebene_1
 62
7
100
AcDbSpline
 70
8
 71
3
 72
8
 73
4
 74
0
 40
0
 40
0
 40
0
 40
0
 40
1
 40
1
 40
1
 40
1
 10
101.319887
 20
89.116226
 30
0.0
 10
101.525729
 20
89.630826
 30
0.0
 10
101.802327
 20
90.081101
 30
0.0
 10
102.149681
 20
90.467050
 30
0.0
  0
SPLINE
  5
2bb
100
AcDbEntity
  8
Ebene_1
 62
7
100
AcDbSpline
 70
8
 71
3
 72
8
 73
4
 74
0
 40
0
 40
0
 40
0
 40
0
 40
1
 40
1
 40
1
 40
1
 10
102.149681
 20
90.467050
 30
0.0
 10
102.509899
 20
90.852999
 30
0.0
 10
102.934444
 20
91.155324
 30
0.0
 10
103.423314
 20
91.374026
 30
0.0
  0
SPLINE
  5
2bc
100
AcDbEntity
  8
Ebene_1
 62
7
100
AcDbSpline
 70
8
 71
3
 72
8
 73
4
 74
0
 40
0
 40
0
 40
0
 40
0
 40
1
 40
1
 40
1
 40
1
 10
103.423314
 20
91.374026
 30
0.0
 10
103.925049
 20
91.592733
 30
0.0
 10
104.478242
 20
91.702087
 30
0.0
 10
105.082893
 20
91.702087
 30
0.0
  0
SPLINE
  5
2bd
100
AcDbEntity
  8
Ebene_1
 62
7
100
AcDbSpline
 70
8
 71
3
 72
8
 73
4
 74
0
 40
0
 40
0
 40
0
 40
0
 40
1
 40
1
 40
1
 40
1
 10
105.082893
 20
91.702087
 30
0.0
 10
105.674684
 20
91.702087
 30
0.0
 10
106.221448
 20
91.586304
 30
0.0
 10
106.723183
 20
91.354737
 30
0.0
  0
SPLINE
  5
2be
100
AcDbEntity
  8
Ebene_1
 62
7
100
AcDbSpline
 70
8
 71
3
 72
8
 73
4
 74
0
 40
0
 40
0
 40
0
 40
0
 40
1
 40
1
 40
1
 40
1
 10
106.723183
 20
91.354737
 30
0.0
 10
107.224912
 20
91.136029
 30
0.0
 10
107.655889
 20
90.833701
 30
0.0
 10
108.016114
 20
90.447752
 30
0.0
  0
SPLINE
  5
2bf
100
AcDbEntity
  8
Ebene_1
 62
7
100
AcDbSpline
 70
8
 71
3
 72
8
 73
4
 74
0
 40
0
 40
0
 40
0
 40
0
 40
1
 40
1
 40
1
 40
1
 10
108.016114
 20
90.447752
 30
0.0
 10
108.389197
 20
90.061803
 30
0.0
 10
108.672225
 20
89.611528
 30
0.0
 10
108.865197
 20
89.096928
 30
0.0
  0
SPLINE
  5
2c0
100
AcDbEntity
  8
Ebene_1
 62
7
100
AcDbSpline
 70
8
 71
3
 72
8
 73
4
 74
0
 40
0
 40
0
 40
0
 40
0
 40
1
 40
1
 40
1
 40
1
 10
108.865197
 20
89.096928
 30
0.0
 10
109.071039
 20
88.582328
 30
0.0
 10
109.173960
 20
88.035567
 30
0.0
 10
109.173960
 20
87.456646
 30
0.0
  0
LWPOLYLINE
  5
2c1
100
AcDbEntity
  8
Ebene_1
 62
7
100
AcDbPolyline
 90
2
 70
0
 10
101.030430
 20
87.456680
 30
0.0
 10
101.030430
 20
87.495242
 30
0.0
  0
LWPOLYLINE
  5
2c2
100
AcDbEntity
  8
Ebene_1
 62
7
100
AcDbPolyline
 90
2
 70
0
 10
109.173960
 20
87.456646
 30
0.0
 10
109.173960
 20
87.418085
 30
0.0
  0
LWPOLYLINE
  5
2c3
100
AcDbEntity
  8
Ebene_1
 62
7
100
AcDbPolyline
 90
10
 70
1
 10
126.920087
 20
80.702535
 30
0.0
 10
126.920087
 20
94.210758
 30
0.0
 10
123.986875
 20
94.210758
 30
0.0
 10
123.986875
 20
85.893548
 30
0.0
 10
117.657305
 20
94.210758
 30
0.0
 10
114.917062
 20
94.210758
 30
0.0
 10
114.917062
 20
80.702535
 30
0.0
 10
117.850274
 20
80.702535
 30
0.0
 10
117.850274
 20
89.289905
 30
0.0
 10
124.392119
 20
80.702535
 30
0.0
  0
LWPOLYLINE
  5
2c4
100
AcDbEntity
  8
Ebene_1
 62
7
100
AcDbPolyline
 90
6
 70
1
 10
139.850593
 20
80.702535
 30
0.0
 10
139.850593
 20
83.404175
 30
0.0
 10
133.115777
 20
83.404175
 30
0.0
 10
133.115777
 20
94.210758
 30
0.0
 10
130.143968
 20
94.210758
 30
0.0
 10
130.143968
 20
80.702535
 30
0.0
  0
LWPOLYLINE
  5
2c5
100
AcDbEntity
  8
Ebene_1
 62
7
100
AcDbPolyline
 90
9
 70
1
 10
154.056240
 20
94.210758
 30
0.0
 10
150.679184
 20
94.210758
 30
0.0
 10
147.398615
 20
88.788173
 30
0.0
 10
144.175939
 20
94.210758
 30
0.0
 10
140.702395
 20
94.210758
 30
0.0
 10
145.893413
 20
86.028632
 30
0.0
 10
145.893413
 20
80.702535
 30
0.0
 10
148.865222
 20
80.702535
 30
0.0
 10
148.865222
 20
86.086525
 30
0.0
  0
SPLINE
  5
2c6
100
AcDbEntity
  8
Ebene_1
 62
7
100
AcDbSpline
 70
8
 71
3
 72
8
 73
4
 74
0
 40
0
 40
0
 40
0
 40
0
 40
1
 40
1
 40
1
 40
1
 10
-275.620526
 20
49.978868
 30
0.0
 10
-275.620526
 20
50.779774
 30
0.0
 10
-275.342025
 20
51.459787
 30
0.0
 10
-274.785024
 20
52.018908
 30
0.0
  0
SPLINE
  5
2c7
100
AcDbEntity
  8
Ebene_1
 62
7
100
AcDbSpline
 70
8
 71
3
 72
8
 73
4
 74
0
 40
0
 40
0
 40
0
 40
0
 40
1
 40
1
 40
1
 40
1
 10
-274.785024
 20
52.018908
 30
0.0
 10
-274.212971
 20
52.593137
 30
0.0
 10
-273.528010
 20
52.880252
 30
0.0
 10
-272.730140
 20
52.880252
 30
0.0
  0
LWPOLYLINE
  5
2c8
100
AcDbEntity
  8
Ebene_1
 62
7
100
AcDbPolyline
 90
4
 70
1
 10
-275.529167
 20
75.000000
 30
0.0
 10
-35.529169
 20
75.000000
 30
0.0
 10
-35.529169
 20
70.000000
 30
0.0
 10
-275.529167
 20
70.000000
 30
0.0
  0
SPLINE
  5
2c9
100
AcDbEntity
  8
Ebene_1
 62
7
100
AcDbSpline
 70
8
 71
3
 72
8
 73
4
 74
0
 40
0
 40
0
 40
0
 40
0
 40
1
 40
1
 40
1
 40
1
 10
-258.278219
 20
64.485789
 30
0.0
 10
-258.278219
 20
63.669774
 30
0.0
 10
-258.564245
 20
62.982206
 30
0.0
 10
-259.136298
 20
62.423085
 30
0.0
  0
SPLINE
  5
2ca
100
AcDbEntity
  8
Ebene_1
 62
7
100
AcDbSpline
 70
8
 71
3
 72
8
 73
4
 74
0
 40
0
 40
0
 40
0
 40
0
 40
1
 40
1
 40
1
 40
1
 10
-259.136298
 20
62.423085
 30
0.0
 10
-259.708357
 20
61.863965
 30
0.0
 10
-260.385793
 20
61.584404
 30
0.0
 10
-261.168605
 20
61.584404
 30
0.0
  0
LWPOLYLINE
  5
2cb
100
AcDbEntity
  8
Ebene_1
 62
7
100
AcDbPolyline
 90
6
 70
0
 10
-272.730140
 20
52.880252
 30
0.0
 10
-261.168605
 20
52.880252
 30
0.0
 10
-261.168605
 20
55.781636
 30
0.0
 10
-275.620526
 20
55.781636
 30
0.0
 10
-275.620526
 20
64.485789
 30
0.0
 10
-258.278219
 20
64.485789
 30
0.0
  0
SPLINE
  5
2cc
100
AcDbEntity
  8
Ebene_1
 62
7
100
AcDbSpline
 70
8
 71
3
 72
8
 73
4
 74
0
 40
0
 40
0
 40
0
 40
0
 40
1
 40
1
 40
1
 40
1
 10
-252.497447
 20
49.978868
 30
0.0
 10
-253.310368
 20
49.978868
 30
0.0
 10
-253.995329
 20
50.258428
 30
0.0
 10
-254.552331
 20
50.817549
 30
0.0
  0
SPLINE
  5
2cd
100
AcDbEntity
  8
Ebene_1
 62
7
100
AcDbSpline
 70
8
 71
3
 72
8
 73
4
 74
0
 40
0
 40
0
 40
0
 40
0
 40
1
 40
1
 40
1
 40
1
 10
-254.552331
 20
50.817549
 30
0.0
 10
-255.109332
 20
51.391785
 30
0.0
 10
-255.387833
 20
52.079352
 30
0.0
 10
-255.387833
 20
52.880252
 30
0.0
  0
LWPOLYLINE
  5
2ce
100
AcDbEntity
  8
Ebene_1
 62
7
100
AcDbPolyline
 90
6
 70
0
 10
-261.168605
 20
61.584404
 30
0.0
 10
-272.730140
 20
61.584404
 30
0.0
 10
-272.730140
 20
58.683020
 30
0.0
 10
-258.278219
 20
58.683020
 30
0.0
 10
-258.278219
 20
49.978868
 30
0.0
 10
-275.620526
 20
49.978868
 30
0.0
  0
SPLINE
  5
2cf
100
AcDbEntity
  8
Ebene_1
 62
7
100
AcDbSpline
 70
8
 71
3
 72
8
 73
4
 74
0
 40
0
 40
0
 40
0
 40
0
 40
1
 40
1
 40
1
 40
1
 10
-238.045516
 20
52.880252
 30
0.0
 10
-238.045516
 20
52.064237
 30
0.0
 10
-238.331545
 20
51.376669
 30
0.0
 10
-238.903605
 20
50.817549
 30
0.0
  0
SPLINE
  5
2d0
100
AcDbEntity
  8
Ebene_1
 62
7
100
AcDbSpline
 70
8
 71
3
 72
8
 73
4
 74
0
 40
0
 40
0
 40
0
 40
0
 40
1
 40
1
 40
1
 40
1
 10
-238.903605
 20
50.817549
 30
0.0
 10
-239.475657
 20
50.258428
 30
0.0
 10
-240.153090
 20
49.978868
 30
0.0
 10
-240.935902
 20
49.978868
 30
0.0
  0
LWPOLYLINE
  5
2d1
100
AcDbEntity
  8
Ebene_1
 62
7
100
AcDbPolyline
 90
2
 70
0
 10
-255.387833
 20
52.880252
 30
0.0
 10
-238.045516
 20
52.880252
 30
0.0
  0
LWPOLYLINE
  5
2d2
100
AcDbEntity
  8
Ebene_1
 62
7
100
AcDbPolyline
 90
2
 70
0
 10
-240.935902
 20
49.978868
 30
0.0
 10
-252.497447
 20
49.978868
 30
0.0
  0
LWPOLYLINE
  5
2d3
100
AcDbEntity
  8
Ebene_1
 62
7
100
AcDbPolyline
 90
4
 70
1
 10
-255.387833
 20
55.781636
 30
0.0
 10
-255.387833
 20
64.485789
 30
0.0
 10
-252.497447
 20
64.485789
 30
0.0
 10
-252.497447
 20
55.781636
 30
0.0
  0
LWPOLYLINE
  5
2d4
100
AcDbEntity
  8
Ebene_1
 62
7
100
AcDbPolyline
 90
4
 70
1
 10
-240.935902
 20
55.781636
 30
0.0
 10
-240.935902
 20
64.485789
 30
0.0
 10
-238.045516
 20
64.485789
 30
0.0
 10
-238.045516
 20
55.781636
 30
0.0
  0
SPLINE
  5
2d5
100
AcDbEntity
  8
Ebene_1
 62
7
100
AcDbSpline
 70
8
 71
3
 72
8
 73
4
 74
0
 40
0
 40
0
 40
0
 40
0
 40
1
 40
1
 40
1
 40
1
 10
-222.148401
 20
58.683020
 30
0.0
 10
-221.756992
 20
58.683020
 30
0.0
 10
-221.418276
 20
58.819025
 30
0.0
 10
-221.132253
 20
59.091034
 30
0.0
  0
SPLINE
  5
2d6
100
AcDbEntity
  8
Ebene_1
 62
7
100
AcDbSpline
 70
8
 71
3
 72
8
 73
4
 74
0
 40
0
 40
0
 40
0
 40
0
 40
1
 40
1
 40
1
 40
1
 10
-221.132253
 20
59.091034
 30
0.0
 10
-220.846223
 20
59.378146
 30
0.0
 10
-220.703208
 20
59.725705
 30
0.0
 10
-220.703208
 20
60.133712
 30
0.0
  0
LWPOLYLINE
  5
2d7
100
AcDbEntity
  8
Ebene_1
 62
7
100
AcDbPolyline
 90
3
 70
0
 10
-235.155139
 20
49.978868
 30
0.0
 10
-235.155139
 20
58.683020
 30
0.0
 10
-222.148401
 20
58.683020
 30
0.0
  0
SPLINE
  5
2d8
100
AcDbEntity
  8
Ebene_1
 62
7
100
AcDbSpline
 70
8
 71
3
 72
8
 73
4
 74
0
 40
0
 40
0
 40
0
 40
0
 40
1
 40
1
 40
1
 40
1
 10
-217.812822
 20
58.683020
 30
0.0
 10
-217.812822
 20
57.867006
 30
0.0
 10
-218.098848
 20
57.179438
 30
0.0
 10
-218.670901
 20
56.620317
 30
0.0
  0
SPLINE
  5
2d9
100
AcDbEntity
  8
Ebene_1
 62
7
100
AcDbSpline
 70
8
 71
3
 72
8
 73
4
 74
0
 40
0
 40
0
 40
0
 40
0
 40
1
 40
1
 40
1
 40
1
 10
-218.670901
 20
56.620317
 30
0.0
 10
-219.242961
 20
56.061196
 30
0.0
 10
-219.920396
 20
55.781636
 30
0.0
 10
-220.703208
 20
55.781636
 30
0.0
  0
LWPOLYLINE
  5
2da
100
AcDbEntity
  8
Ebene_1
 62
7
100
AcDbPolyline
 90
6
 70
0
 10
-220.703208
 20
60.133712
 30
0.0
 10
-220.703208
 20
61.584404
 30
0.0
 10
-235.155139
 20
61.584404
 30
0.0
 10
-235.155139
 20
64.485789
 30
0.0
 10
-217.812822
 20
64.485789
 30
0.0
 10
-217.812822
 20
58.683020
 30
0.0
  0
SPLINE
  5
2db
100
AcDbEntity
  8
Ebene_1
 62
7
100
AcDbSpline
 70
8
 71
3
 72
8
 73
4
 74
0
 40
0
 40
0
 40
0
 40
0
 40
1
 40
1
 40
1
 40
1
 10
-212.032050
 20
49.978868
 30
0.0
 10
-212.844971
 20
49.978868
 30
0.0
 10
-213.529933
 20
50.258428
 30
0.0
 10
-214.086934
 20
50.817549
 30
0.0
  0
SPLINE
  5
2dc
100
AcDbEntity
  8
Ebene_1
 62
7
100
AcDbSpline
 70
8
 71
3
 72
8
 73
4
 74
0
 40
0
 40
0
 40
0
 40
0
 40
1
 40
1
 40
1
 40
1
 10
-214.086934
 20
50.817549
 30
0.0
 10
-214.643935
 20
51.391785
 30
0.0
 10
-214.922436
 20
52.079352
 30
0.0
 10
-214.922436
 20
52.880252
 30
0.0
  0
LWPOLYLINE
  5
2dd
100
AcDbEntity
  8
Ebene_1
 62
7
100
AcDbPolyline
 90
4
 70
0
 10
-220.703208
 20
55.781636
 30
0.0
 10
-232.264753
 20
55.781636
 30
0.0
 10
-232.264753
 20
49.978868
 30
0.0
 10
-235.155139
 20
49.978868
 30
0.0
  0
SPLINE
  5
2de
100
AcDbEntity
  8
Ebene_1
 62
7
100
AcDbSpline
 70
8
 71
3
 72
8
 73
4
 74
0
 40
0
 40
0
 40
0
 40
0
 40
1
 40
1
 40
1
 40
1
 10
-197.580129
 20
52.880252
 30
0.0
 10
-197.580129
 20
52.064237
 30
0.0
 10
-197.866155
 20
51.376669
 30
0.0
 10
-198.438208
 20
50.817549
 30
0.0
  0
SPLINE
  5
2df
100
AcDbEntity
  8
Ebene_1
 62
7
100
AcDbSpline
 70
8
 71
3
 72
8
 73
4
 74
0
 40
0
 40
0
 40
0
 40
0
 40
1
 40
1
 40
1
 40
1
 10
-198.438208
 20
50.817549
 30
0.0
 10
-199.010267
 20
50.258428
 30
0.0
 10
-199.687703
 20
49.978868
 30
0.0
 10
-200.470515
 20
49.978868
 30
0.0
  0
LWPOLYLINE
  5
2e0
100
AcDbEntity
  8
Ebene_1
 62
7
100
AcDbPolyline
 90
2
 70
0
 10
-214.922436
 20
52.880252
 30
0.0
 10
-197.580129
 20
52.880252
 30
0.0
  0
SPLINE
  5
2e1
100
AcDbEntity
  8
Ebene_1
 62
7
100
AcDbSpline
 70
8
 71
3
 72
8
 73
4
 74
0
 40
0
 40
0
 40
0
 40
0
 40
1
 40
1
 40
1
 40
1
 10
-212.032050
 20
55.781636
 30
0.0
 10
-212.844971
 20
55.781636
 30
0.0
 10
-213.529933
 20
56.061196
 30
0.0
 10
-214.086934
 20
56.620317
 30
0.0
  0
SPLINE
  5
2e2
100
AcDbEntity
  8
Ebene_1
 62
7
100
AcDbSpline
 70
8
 71
3
 72
8
 73
4
 74
0
 40
0
 40
0
 40
0
 40
0
 40
1
 40
1
 40
1
 40
1
 10
-214.086934
 20
56.620317
 30
0.0
 10
-214.643935
 20
57.194553
 30
0.0
 10
-214.922436
 20
57.882121
 30
0.0
 10
-214.922436
 20
58.683020
 30
0.0
  0
LWPOLYLINE
  5
2e3
100
AcDbEntity
  8
Ebene_1
 62
7
100
AcDbPolyline
 90
2
 70
0
 10
-200.470515
 20
49.978868
 30
0.0
 10
-212.032050
 20
49.978868
 30
0.0
  0
SPLINE
  5
2e4
100
AcDbEntity
  8
Ebene_1
 62
7
100
AcDbSpline
 70
8
 71
3
 72
8
 73
4
 74
0
 40
0
 40
0
 40
0
 40
0
 40
1
 40
1
 40
1
 40
1
 10
-197.580129
 20
58.683020
 30
0.0
 10
-197.580129
 20
57.867006
 30
0.0
 10
-197.866155
 20
57.179438
 30
0.0
 10
-198.438208
 20
56.620317
 30
0.0
  0
SPLINE
  5
2e5
100
AcDbEntity
  8
Ebene_1
 62
7
100
AcDbSpline
 70
8
 71
3
 72
8
 73
4
 74
0
 40
0
 40
0
 40
0
 40
0
 40
1
 40
1
 40
1
 40
1
 10
-198.438208
 20
56.620317
 30
0.0
 10
-199.010267
 20
56.061196
 30
0.0
 10
-199.687703
 20
55.781636
 30
0.0
 10
-200.470515
 20
55.781636
 30
0.0
  0
LWPOLYLINE
  5
2e6
100
AcDbEntity
  8
Ebene_1
 62
7
100
AcDbPolyline
 90
2
 70
0
 10
-214.922436
 20
58.683020
 30
0.0
 10
-197.580129
 20
58.683020
 30
0.0
  0
SPLINE
  5
2e7
100
AcDbEntity
  8
Ebene_1
 62
7
100
AcDbSpline
 70
8
 71
3
 72
8
 73
4
 74
0
 40
0
 40
0
 40
0
 40
0
 40
1
 40
1
 40
1
 40
1
 10
-212.032050
 20
61.584404
 30
0.0
 10
-212.844971
 20
61.584404
 30
0.0
 10
-213.529933
 20
61.863965
 30
0.0
 10
-214.086934
 20
62.423085
 30
0.0
  0
SPLINE
  5
2e8
100
AcDbEntity
  8
Ebene_1
 62
7
100
AcDbSpline
 70
8
 71
3
 72
8
 73
4
 74
0
 40
0
 40
0
 40
0
 40
0
 40
1
 40
1
 40
1
 40
1
 10
-214.086934
 20
62.423085
 30
0.0
 10
-214.643935
 20
62.997322
 30
0.0
 10
-214.922436
 20
63.684889
 30
0.0
 10
-214.922436
 20
64.485789
 30
0.0
  0
LWPOLYLINE
  5
2e9
100
AcDbEntity
  8
Ebene_1
 62
7
100
AcDbPolyline
 90
2
 70
0
 10
-200.470515
 20
55.781636
 30
0.0
 10
-212.032050
 20
55.781636
 30
0.0
  0
SPLINE
  5
2ea
100
AcDbEntity
  8
Ebene_1
 62
7
100
AcDbSpline
 70
8
 71
3
 72
8
 73
4
 74
0
 40
0
 40
0
 40
0
 40
0
 40
1
 40
1
 40
1
 40
1
 10
-197.580129
 20
64.485789
 30
0.0
 10
-197.580129
 20
63.669774
 30
0.0
 10
-197.866155
 20
62.982206
 30
0.0
 10
-198.438208
 20
62.423085
 30
0.0
  0
SPLINE
  5
2eb
100
AcDbEntity
  8
Ebene_1
 62
7
100
AcDbSpline
 70
8
 71
3
 72
8
 73
4
 74
0
 40
0
 40
0
 40
0
 40
0
 40
1
 40
1
 40
1
 40
1
 10
-198.438208
 20
62.423085
 30
0.0
 10
-199.010267
 20
61.863965
 30
0.0
 10
-199.687703
 20
61.584404
 30
0.0
 10
-200.470515
 20
61.584404
 30
0.0
  0
LWPOLYLINE
  5
2ec
100
AcDbEntity
  8
Ebene_1
 62
7
100
AcDbPolyline
 90
2
 70
0
 10
-214.922436
 20
64.485789
 30
0.0
 10
-197.580129
 20
64.485789
 30
0.0
  0
LWPOLYLINE
  5
2ed
100
AcDbEntity
  8
Ebene_1
 62
7
100
AcDbPolyline
 90
2
 70
0
 10
-200.470515
 20
61.584404
 30
0.0
 10
-212.032050
 20
61.584404
 30
0.0
  0
SPLINE
  5
2ee
100
AcDbEntity
  8
Ebene_1
 62
7
100
AcDbSpline
 70
8
 71
3
 72
8
 73
4
 74
0
 40
0
 40
0
 40
0
 40
0
 40
1
 40
1
 40
1
 40
1
 10
-181.683005
 20
58.683020
 30
0.0
 10
-181.291595
 20
58.683020
 30
0.0
 10
-180.952879
 20
58.819025
 30
0.0
 10
-180.666856
 20
59.091034
 30
0.0
  0
SPLINE
  5
2ef
100
AcDbEntity
  8
Ebene_1
 62
7
100
AcDbSpline
 70
8
 71
3
 72
8
 73
4
 74
0
 40
0
 40
0
 40
0
 40
0
 40
1
 40
1
 40
1
 40
1
 10
-180.666856
 20
59.091034
 30
0.0
 10
-180.380826
 20
59.378146
 30
0.0
 10
-180.237812
 20
59.725705
 30
0.0
 10
-180.237812
 20
60.133712
 30
0.0
  0
LWPOLYLINE
  5
2f0
100
AcDbEntity
  8
Ebene_1
 62
7
100
AcDbPolyline
 90
3
 70
0
 10
-194.689743
 20
49.978868
 30
0.0
 10
-194.689743
 20
58.683020
 30
0.0
 10
-181.683005
 20
58.683020
 30
0.0
  0
SPLINE
  5
2f1
100
AcDbEntity
  8
Ebene_1
 62
7
100
AcDbSpline
 70
8
 71
3
 72
8
 73
4
 74
0
 40
0
 40
0
 40
0
 40
0
 40
1
 40
1
 40
1
 40
1
 10
-191.799356
 20
61.584404
 30
0.0
 10
-192.612278
 20
61.584404
 30
0.0
 10
-193.297239
 20
61.863965
 30
0.0
 10
-193.854241
 20
62.423085
 30
0.0
  0
SPLINE
  5
2f2
100
AcDbEntity
  8
Ebene_1
 62
7
100
AcDbSpline
 70
8
 71
3
 72
8
 73
4
 74
0
 40
0
 40
0
 40
0
 40
0
 40
1
 40
1
 40
1
 40
1
 10
-193.854241
 20
62.423085
 30
0.0
 10
-194.411242
 20
62.997322
 30
0.0
 10
-194.689743
 20
63.684889
 30
0.0
 10
-194.689743
 20
64.485789
 30
0.0
  0
LWPOLYLINE
  5
2f3
100
AcDbEntity
  8
Ebene_1
 62
7
100
AcDbPolyline
 90
3
 70
0
 10
-180.237812
 20
60.133712
 30
0.0
 10
-180.237812
 20
61.584404
 30
0.0
 10
-191.799356
 20
61.584404
 30
0.0
  0
SPLINE
  5
2f4
100
AcDbEntity
  8
Ebene_1
 62
7
100
AcDbSpline
 70
8
 71
3
 72
8
 73
4
 74
0
 40
0
 40
0
 40
0
 40
0
 40
1
 40
1
 40
1
 40
1
 10
-177.347425
 20
58.683020
 30
0.0
 10
-177.347425
 20
57.867006
 30
0.0
 10
-177.633452
 20
57.179438
 30
0.0
 10
-178.205504
 20
56.620317
 30
0.0
  0
SPLINE
  5
2f5
100
AcDbEntity
  8
Ebene_1
 62
7
100
AcDbSpline
 70
8
 71
3
 72
8
 73
4
 74
0
 40
0
 40
0
 40
0
 40
0
 40
1
 40
1
 40
1
 40
1
 10
-178.205504
 20
56.620317
 30
0.0
 10
-178.777564
 20
56.061196
 30
0.0
 10
-179.454999
 20
55.781636
 30
0.0
 10
-180.237812
 20
55.781636
 30
0.0
  0
LWPOLYLINE
  5
2f6
100
AcDbEntity
  8
Ebene_1
 62
7
100
AcDbPolyline
 90
3
 70
0
 10
-194.689743
 20
64.485789
 30
0.0
 10
-177.347425
 20
64.485789
 30
0.0
 10
-177.347425
 20
58.683020
 30
0.0
  0
SPLINE
  5
2f7
100
AcDbEntity
  8
Ebene_1
 62
7
100
AcDbSpline
 70
8
 71
3
 72
8
 73
4
 74
0
 40
0
 40
0
 40
0
 40
0
 40
1
 40
1
 40
1
 40
1
 10
-171.566653
 20
49.978868
 30
0.0
 10
-172.379575
 20
49.978868
 30
0.0
 10
-173.064536
 20
50.258428
 30
0.0
 10
-173.621537
 20
50.817549
 30
0.0
  0
SPLINE
  5
2f8
100
AcDbEntity
  8
Ebene_1
 62
7
100
AcDbSpline
 70
8
 71
3
 72
8
 73
4
 74
0
 40
0
 40
0
 40
0
 40
0
 40
1
 40
1
 40
1
 40
1
 10
-173.621537
 20
50.817549
 30
0.0
 10
-174.178539
 20
51.391785
 30
0.0
 10
-174.457039
 20
52.079352
 30
0.0
 10
-174.457039
 20
52.880252
 30
0.0
  0
LWPOLYLINE
  5
2f9
100
AcDbEntity
  8
Ebene_1
 62
7
100
AcDbPolyline
 90
8
 70
0
 10
-180.237812
 20
55.781636
 30
0.0
 10
-183.128198
 20
55.781636
 30
0.0
 10
-177.347425
 20
49.978868
 30
0.0
 10
-181.683005
 20
49.978868
 30
0.0
 10
-187.463777
 20
55.781636
 30
0.0
 10
-191.799356
 20
55.781636
 30
0.0
 10
-191.799356
 20
49.978868
 30
0.0
 10
-194.689743
 20
49.978868
 30
0.0
  0
SPLINE
  5
2fa
100
AcDbEntity
  8
Ebene_1
 62
7
100
AcDbSpline
 70
8
 71
3
 72
8
 73
4
 74
0
 40
0
 40
0
 40
0
 40
0
 40
1
 40
1
 40
1
 40
1
 10
-171.566653
 20
54.330944
 30
0.0
 10
-171.566653
 20
53.922937
 30
0.0
 10
-171.431167
 20
53.575377
 30
0.0
 10
-171.160196
 20
53.288266
 30
0.0
  0
SPLINE
  5
2fb
100
AcDbEntity
  8
Ebene_1
 62
7
100
AcDbSpline
 70
8
 71
3
 72
8
 73
4
 74
0
 40
0
 40
0
 40
0
 40
0
 40
1
 40
1
 40
1
 40
1
 10
-171.160196
 20
53.288266
 30
0.0
 10
-170.874166
 20
53.016257
 30
0.0
 10
-170.527921
 20
52.880252
 30
0.0
 10
-170.121460
 20
52.880252
 30
0.0
  0
LWPOLYLINE
  5
2fc
100
AcDbEntity
  8
Ebene_1
 62
7
100
AcDbPolyline
 90
4
 70
0
 10
-174.457039
 20
52.880252
 30
0.0
 10
-174.457039
 20
58.683020
 30
0.0
 10
-171.566653
 20
58.683020
 30
0.0
 10
-171.566653
 20
54.330944
 30
0.0
  0
SPLINE
  5
2fd
100
AcDbEntity
  8
Ebene_1
 62
7
100
AcDbSpline
 70
8
 71
3
 72
8
 73
4
 74
0
 40
0
 40
0
 40
0
 40
0
 40
1
 40
1
 40
1
 40
1
 10
-157.114722
 20
52.880252
 30
0.0
 10
-157.114722
 20
52.064237
 30
0.0
 10
-157.400752
 20
51.376669
 30
0.0
 10
-157.972811
 20
50.817549
 30
0.0
  0
SPLINE
  5
2fe
100
AcDbEntity
  8
Ebene_1
 62
7
100
AcDbSpline
 70
8
 71
3
 72
8
 73
4
 74
0
 40
0
 40
0
 40
0
 40
0
 40
1
 40
1
 40
1
 40
1
 10
-157.972811
 20
50.817549
 30
0.0
 10
-158.544864
 20
50.258428
 30
0.0
 10
-159.222296
 20
49.978868
 30
0.0
 10
-160.005108
 20
49.978868
 30
0.0
  0
LWPOLYLINE
  5
2ff
100
AcDbEntity
  8
Ebene_1
 62
7
100
AcDbPolyline
 90
2
 70
0
 10
-170.121460
 20
52.880252
 30
0.0
 10
-157.114722
 20
52.880252
 30
0.0
  0
LWPOLYLINE
  5
300
100
AcDbEntity
  8
Ebene_1
 62
7
100
AcDbPolyline
 90
2
 70
0
 10
-160.005108
 20
49.978868
 30
0.0
 10
-171.566653
 20
49.978868
 30
0.0
  0
SPLINE
  5
301
100
AcDbEntity
  8
Ebene_1
 62
7
100
AcDbSpline
 70
8
 71
3
 72
8
 73
4
 74
0
 40
0
 40
0
 40
0
 40
0
 40
1
 40
1
 40
1
 40
1
 10
-157.114722
 20
64.485789
 30
0.0
 10
-157.114722
 20
63.669774
 30
0.0
 10
-157.400752
 20
62.982206
 30
0.0
 10
-157.972811
 20
62.423085
 30
0.0
  0
SPLINE
  5
302
100
AcDbEntity
  8
Ebene_1
 62
7
100
AcDbSpline
 70
8
 71
3
 72
8
 73
4
 74
0
 40
0
 40
0
 40
0
 40
0
 40
1
 40
1
 40
1
 40
1
 10
-157.972811
 20
62.423085
 30
0.0
 10
-158.544864
 20
61.863965
 30
0.0
 10
-159.222296
 20
61.584404
 30
0.0
 10
-160.005108
 20
61.584404
 30
0.0
  0
LWPOLYLINE
  5
303
100
AcDbEntity
  8
Ebene_1
 62
7
100
AcDbPolyline
 90
3
 70
0
 10
-174.457039
 20
61.584404
 30
0.0
 10
-174.457039
 20
64.485789
 30
0.0
 10
-157.114722
 20
64.485789
 30
0.0
  0
LWPOLYLINE
  5
304
100
AcDbEntity
  8
Ebene_1
 62
7
100
AcDbPolyline
 90
2
 70
0
 10
-160.005108
 20
61.584404
 30
0.0
 10
-174.457039
 20
61.584404
 30
0.0
  0
SPLINE
  5
305
100
AcDbEntity
  8
Ebene_1
 62
7
100
AcDbSpline
 70
8
 71
3
 72
8
 73
4
 74
0
 40
0
 40
0
 40
0
 40
0
 40
1
 40
1
 40
1
 40
1
 10
-139.772425
 20
58.683020
 30
0.0
 10
-139.772425
 20
57.867006
 30
0.0
 10
-140.058451
 20
57.179438
 30
0.0
 10
-140.630504
 20
56.620317
 30
0.0
  0
SPLINE
  5
306
100
AcDbEntity
  8
Ebene_1
 62
7
100
AcDbSpline
 70
8
 71
3
 72
8
 73
4
 74
0
 40
0
 40
0
 40
0
 40
0
 40
1
 40
1
 40
1
 40
1
 10
-140.630504
 20
56.620317
 30
0.0
 10
-141.202556
 20
56.061196
 30
0.0
 10
-141.879989
 20
55.781636
 30
0.0
 10
-142.662801
 20
55.781636
 30
0.0
  0
LWPOLYLINE
  5
307
100
AcDbEntity
  8
Ebene_1
 62
7
100
AcDbPolyline
 90
5
 70
0
 10
-154.224346
 20
49.978868
 30
0.0
 10
-154.224346
 20
64.485789
 30
0.0
 10
-151.333960
 20
64.485789
 30
0.0
 10
-151.333960
 20
58.683020
 30
0.0
 10
-139.772425
 20
58.683020
 30
0.0
  0
LWPOLYLINE
  5
308
100
AcDbEntity
  8
Ebene_1
 62
7
100
AcDbPolyline
 90
4
 70
0
 10
-142.662801
 20
55.781636
 30
0.0
 10
-151.333960
 20
55.781636
 30
0.0
 10
-151.333960
 20
49.978868
 30
0.0
 10
-154.224346
 20
49.978868
 30
0.0
  0
LWPOLYLINE
  5
309
100
AcDbEntity
  8
Ebene_1
 62
7
100
AcDbPolyline
 90
4
 70
1
 10
-139.772425
 20
49.978868
 30
0.0
 10
-139.772425
 20
64.485789
 30
0.0
 10
-136.882039
 20
64.485789
 30
0.0
 10
-136.882039
 20
49.978868
 30
0.0
  0
SPLINE
  5
30a
100
AcDbEntity
  8
Ebene_1
 62
7
100
AcDbSpline
 70
8
 71
3
 72
8
 73
4
 74
0
 40
0
 40
0
 40
0
 40
0
 40
1
 40
1
 40
1
 40
1
 10
-131.101256
 20
61.584404
 30
0.0
 10
-131.914178
 20
61.584404
 30
0.0
 10
-132.599139
 20
61.863965
 30
0.0
 10
-133.156140
 20
62.423085
 30
0.0
  0
SPLINE
  5
30b
100
AcDbEntity
  8
Ebene_1
 62
7
100
AcDbSpline
 70
8
 71
3
 72
8
 73
4
 74
0
 40
0
 40
0
 40
0
 40
0
 40
1
 40
1
 40
1
 40
1
 10
-133.156140
 20
62.423085
 30
0.0
 10
-133.713142
 20
62.997322
 30
0.0
 10
-133.991642
 20
63.684889
 30
0.0
 10
-133.991642
 20
64.485789
 30
0.0
  0
LWPOLYLINE
  5
30c
100
AcDbEntity
  8
Ebene_1
 62
7
100
AcDbPolyline
 90
8
 70
1
 10
-133.991642
 20
49.978868
 30
0.0
 10
-133.991642
 20
58.683020
 30
0.0
 10
-116.649325
 20
58.683020
 30
0.0
 10
-116.649325
 20
49.978868
 30
0.0
 10
-119.539711
 20
49.978868
 30
0.0
 10
-119.539711
 20
55.781636
 30
0.0
 10
-131.101256
 20
55.781636
 30
0.0
 10
-131.101256
 20
49.978868
 30
0.0
  0
SPLINE
  5
30d
100
AcDbEntity
  8
Ebene_1
 62
7
100
AcDbSpline
 70
8
 71
3
 72
8
 73
4
 74
0
 40
0
 40
0
 40
0
 40
0
 40
1
 40
1
 40
1
 40
1
 10
-116.649325
 20
64.485789
 30
0.0
 10
-116.649325
 20
63.669774
 30
0.0
 10
-116.935355
 20
62.982206
 30
0.0
 10
-117.507414
 20
62.423085
 30
0.0
  0
SPLINE
  5
30e
100
AcDbEntity
  8
Ebene_1
 62
7
100
AcDbSpline
 70
8
 71
3
 72
8
 73
4
 74
0
 40
0
 40
0
 40
0
 40
0
 40
1
 40
1
 40
1
 40
1
 10
-117.507414
 20
62.423085
 30
0.0
 10
-118.079467
 20
61.863965
 30
0.0
 10
-118.756899
 20
61.584404
 30
0.0
 10
-119.539711
 20
61.584404
 30
0.0
  0
LWPOLYLINE
  5
30f
100
AcDbEntity
  8
Ebene_1
 62
7
100
AcDbPolyline
 90
2
 70
0
 10
-133.991642
 20
64.485789
 30
0.0
 10
-116.649325
 20
64.485789
 30
0.0
  0
LWPOLYLINE
  5
310
100
AcDbEntity
  8
Ebene_1
 62
7
100
AcDbPolyline
 90
2
 70
0
 10
-119.539711
 20
61.584404
 30
0.0
 10
-131.101256
 20
61.584404
 30
0.0
  0
SPLINE
  5
311
100
AcDbEntity
  8
Ebene_1
 62
7
100
AcDbSpline
 70
8
 71
3
 72
8
 73
4
 74
0
 40
0
 40
0
 40
0
 40
0
 40
1
 40
1
 40
1
 40
1
 10
-100.752211
 20
58.683020
 30
0.0
 10
-100.360806
 20
58.683020
 30
0.0
 10
-100.022090
 20
58.819025
 30
0.0
 10
-99.736062
 20
59.091034
 30
0.0
  0
SPLINE
  5
312
100
AcDbEntity
  8
Ebene_1
 62
7
100
AcDbSpline
 70
8
 71
3
 72
8
 73
4
 74
0
 40
0
 40
0
 40
0
 40
0
 40
1
 40
1
 40
1
 40
1
 10
-99.736062
 20
59.091034
 30
0.0
 10
-99.450034
 20
59.378146
 30
0.0
 10
-99.307020
 20
59.725705
 30
0.0
 10
-99.307020
 20
60.133712
 30
0.0
  0
LWPOLYLINE
  5
313
100
AcDbEntity
  8
Ebene_1
 62
7
100
AcDbPolyline
 90
3
 70
0
 10
-113.758949
 20
49.978868
 30
0.0
 10
-113.758949
 20
58.683020
 30
0.0
 10
-100.752211
 20
58.683020
 30
0.0
  0
SPLINE
  5
314
100
AcDbEntity
  8
Ebene_1
 62
7
100
AcDbSpline
 70
8
 71
3
 72
8
 73
4
 74
0
 40
0
 40
0
 40
0
 40
0
 40
1
 40
1
 40
1
 40
1
 10
-110.868563
 20
61.584404
 30
0.0
 10
-111.681484
 20
61.584404
 30
0.0
 10
-112.366446
 20
61.863965
 30
0.0
 10
-112.923447
 20
62.423085
 30
0.0
  0
SPLINE
  5
315
100
AcDbEntity
  8
Ebene_1
 62
7
100
AcDbSpline
 70
8
 71
3
 72
8
 73
4
 74
0
 40
0
 40
0
 40
0
 40
0
 40
1
 40
1
 40
1
 40
1
 10
-112.923447
 20
62.423085
 30
0.0
 10
-113.480448
 20
62.997322
 30
0.0
 10
-113.758949
 20
63.684889
 30
0.0
 10
-113.758949
 20
64.485789
 30
0.0
  0
LWPOLYLINE
  5
316
100
AcDbEntity
  8
Ebene_1
 62
7
100
AcDbPolyline
 90
3
 70
0
 10
-99.307020
 20
60.133712
 30
0.0
 10
-99.307020
 20
61.584404
 30
0.0
 10
-110.868563
 20
61.584404
 30
0.0
  0
SPLINE
  5
317
100
AcDbEntity
  8
Ebene_1
 62
7
100
AcDbSpline
 70
8
 71
3
 72
8
 73
4
 74
0
 40
0
 40
0
 40
0
 40
0
 40
1
 40
1
 40
1
 40
1
 10
-96.416635
 20
58.683020
 30
0.0
 10
-96.416635
 20
57.867006
 30
0.0
 10
-96.702662
 20
57.179438
 30
0.0
 10
-97.274718
 20
56.620317
 30
0.0
  0
SPLINE
  5
318
100
AcDbEntity
  8
Ebene_1
 62
7
100
AcDbSpline
 70
8
 71
3
 72
8
 73
4
 74
0
 40
0
 40
0
 40
0
 40
0
 40
1
 40
1
 40
1
 40
1
 10
-97.274718
 20
56.620317
 30
0.0
 10
-97.846773
 20
56.061196
 30
0.0
 10
-98.524207
 20
55.781636
 30
0.0
 10
-99.307020
 20
55.781636
 30
0.0
  0
LWPOLYLINE
  5
319
100
AcDbEntity
  8
Ebene_1
 62
7
100
AcDbPolyline
 90
3
 70
0
 10
-113.758949
 20
64.485789
 30
0.0
 10
-96.416635
 20
64.485789
 30
0.0
 10
-96.416635
 20
58.683020
 30
0.0
  0
SPLINE
  5
31a
100
AcDbEntity
  8
Ebene_1
 62
7
100
AcDbSpline
 70
8
 71
3
 72
8
 73
4
 74
0
 40
0
 40
0
 40
0
 40
0
 40
1
 40
1
 40
1
 40
1
 10
-90.635870
 20
49.978868
 30
0.0
 10
-91.448791
 20
49.978868
 30
0.0
 10
-92.133752
 20
50.258428
 30
0.0
 10
-92.690754
 20
50.817549
 30
0.0
  0
SPLINE
  5
31b
100
AcDbEntity
  8
Ebene_1
 62
7
100
AcDbSpline
 70
8
 71
3
 72
8
 73
4
 74
0
 40
0
 40
0
 40
0
 40
0
 40
1
 40
1
 40
1
 40
1
 10
-92.690754
 20
50.817549
 30
0.0
 10
-93.247755
 20
51.391785
 30
0.0
 10
-93.526256
 20
52.079352
 30
0.0
 10
-93.526256
 20
52.880252
 30
0.0
  0
LWPOLYLINE
  5
31c
100
AcDbEntity
  8
Ebene_1
 62
7
100
AcDbPolyline
 90
8
 70
0
 10
-99.307020
 20
55.781636
 30
0.0
 10
-102.197404
 20
55.781636
 30
0.0
 10
-96.416635
 20
49.978868
 30
0.0
 10
-100.752211
 20
49.978868
 30
0.0
 10
-106.532983
 20
55.781636
 30
0.0
 10
-110.868563
 20
55.781636
 30
0.0
 10
-110.868563
 20
49.978868
 30
0.0
 10
-113.758949
 20
49.978868
 30
0.0
  0
SPLINE
  5
31d
100
AcDbEntity
  8
Ebene_1
 62
7
100
AcDbSpline
 70
8
 71
3
 72
8
 73
4
 74
0
 40
0
 40
0
 40
0
 40
0
 40
1
 40
1
 40
1
 40
1
 10
-90.635870
 20
54.330944
 30
0.0
 10
-90.635870
 20
53.922937
 30
0.0
 10
-90.500384
 20
53.575377
 30
0.0
 10
-90.229410
 20
53.288266
 30
0.0
  0
SPLINE
  5
31e
100
AcDbEntity
  8
Ebene_1
 62
7
100
AcDbSpline
 70
8
 71
3
 72
8
 73
4
 74
0
 40
0
 40
0
 40
0
 40
0
 40
1
 40
1
 40
1
 40
1
 10
-90.229410
 20
53.288266
 30
0.0
 10
-89.943382
 20
53.016257
 30
0.0
 10
-89.597138
 20
52.880252
 30
0.0
 10
-89.190677
 20
52.880252
 30
0.0
  0
LWPOLYLINE
  5
31f
100
AcDbEntity
  8
Ebene_1
 62
7
100
AcDbPolyline
 90
4
 70
0
 10
-93.526256
 20
52.880252
 30
0.0
 10
-93.526256
 20
58.683020
 30
0.0
 10
-90.635870
 20
58.683020
 30
0.0
 10
-90.635870
 20
54.330944
 30
0.0
  0
SPLINE
  5
320
100
AcDbEntity
  8
Ebene_1
 62
7
100
AcDbSpline
 70
8
 71
3
 72
8
 73
4
 74
0
 40
0
 40
0
 40
0
 40
0
 40
1
 40
1
 40
1
 40
1
 10
-84.855099
 20
55.781636
 30
0.0
 10
-85.668020
 20
55.781636
 30
0.0
 10
-86.352981
 20
56.061196
 30
0.0
 10
-86.909982
 20
56.620317
 30
0.0
  0
SPLINE
  5
321
100
AcDbEntity
  8
Ebene_1
 62
7
100
AcDbSpline
 70
8
 71
3
 72
8
 73
4
 74
0
 40
0
 40
0
 40
0
 40
0
 40
1
 40
1
 40
1
 40
1
 10
-86.909982
 20
56.620317
 30
0.0
 10
-87.466984
 20
57.194553
 30
0.0
 10
-87.745485
 20
57.882121
 30
0.0
 10
-87.745485
 20
58.683020
 30
0.0
  0
LWPOLYLINE
  5
322
100
AcDbEntity
  8
Ebene_1
 62
7
100
AcDbPolyline
 90
4
 70
0
 10
-89.190677
 20
52.880252
 30
0.0
 10
-79.074329
 20
52.880252
 30
0.0
 10
-79.074329
 20
55.781636
 30
0.0
 10
-84.855099
 20
55.781636
 30
0.0
  0
LWPOLYLINE
  5
323
100
AcDbEntity
  8
Ebene_1
 62
7
100
AcDbPolyline
 90
4
 70
0
 10
-87.745485
 20
58.683020
 30
0.0
 10
-76.183942
 20
58.683020
 30
0.0
 10
-76.183942
 20
49.978868
 30
0.0
 10
-90.635870
 20
49.978868
 30
0.0
  0
SPLINE
  5
324
100
AcDbEntity
  8
Ebene_1
 62
7
100
AcDbSpline
 70
8
 71
3
 72
8
 73
4
 74
0
 40
0
 40
0
 40
0
 40
0
 40
1
 40
1
 40
1
 40
1
 10
-76.183942
 20
64.485789
 30
0.0
 10
-76.183942
 20
63.669774
 30
0.0
 10
-76.469970
 20
62.982206
 30
0.0
 10
-77.042026
 20
62.423085
 30
0.0
  0
SPLINE
  5
325
100
AcDbEntity
  8
Ebene_1
 62
7
100
AcDbSpline
 70
8
 71
3
 72
8
 73
4
 74
0
 40
0
 40
0
 40
0
 40
0
 40
1
 40
1
 40
1
 40
1
 10
-77.042026
 20
62.423085
 30
0.0
 10
-77.614082
 20
61.863965
 30
0.0
 10
-78.291516
 20
61.584404
 30
0.0
 10
-79.074329
 20
61.584404
 30
0.0
  0
LWPOLYLINE
  5
326
100
AcDbEntity
  8
Ebene_1
 62
7
100
AcDbPolyline
 90
3
 70
0
 10
-93.526256
 20
61.584404
 30
0.0
 10
-93.526256
 20
64.485789
 30
0.0
 10
-76.183942
 20
64.485789
 30
0.0
  0
SPLINE
  5
327
100
AcDbEntity
  8
Ebene_1
 62
7
100
AcDbSpline
 70
8
 71
3
 72
8
 73
4
 74
0
 40
0
 40
0
 40
0
 40
0
 40
1
 40
1
 40
1
 40
1
 10
-70.403163
 20
49.978868
 30
0.0
 10
-71.216084
 20
49.978868
 30
0.0
 10
-71.901045
 20
50.258428
 30
0.0
 10
-72.458046
 20
50.817549
 30
0.0
  0
SPLINE
  5
328
100
AcDbEntity
  8
Ebene_1
 62
7
100
AcDbSpline
 70
8
 71
3
 72
8
 73
4
 74
0
 40
0
 40
0
 40
0
 40
0
 40
1
 40
1
 40
1
 40
1
 10
-72.458046
 20
50.817549
 30
0.0
 10
-73.015048
 20
51.391785
 30
0.0
 10
-73.293548
 20
52.079352
 30
0.0
 10
-73.293548
 20
52.880252
 30
0.0
  0
LWPOLYLINE
  5
329
100
AcDbEntity
  8
Ebene_1
 62
7
100
AcDbPolyline
 90
2
 70
0
 10
-79.074329
 20
61.584404
 30
0.0
 10
-93.526256
 20
61.584404
 30
0.0
  0
SPLINE
  5
32a
100
AcDbEntity
  8
Ebene_1
 62
7
100
AcDbSpline
 70
8
 71
3
 72
8
 73
4
 74
0
 40
0
 40
0
 40
0
 40
0
 40
1
 40
1
 40
1
 40
1
 10
-55.951236
 20
52.880252
 30
0.0
 10
-55.951236
 20
52.064237
 30
0.0
 10
-56.237264
 20
51.376669
 30
0.0
 10
-56.809319
 20
50.817549
 30
0.0
  0
SPLINE
  5
32b
100
AcDbEntity
  8
Ebene_1
 62
7
100
AcDbSpline
 70
8
 71
3
 72
8
 73
4
 74
0
 40
0
 40
0
 40
0
 40
0
 40
1
 40
1
 40
1
 40
1
 10
-56.809319
 20
50.817549
 30
0.0
 10
-57.381374
 20
50.258428
 30
0.0
 10
-58.058808
 20
49.978868
 30
0.0
 10
-58.841621
 20
49.978868
 30
0.0
  0
LWPOLYLINE
  5
32c
100
AcDbEntity
  8
Ebene_1
 62
7
100
AcDbPolyline
 90
2
 70
0
 10
-73.293548
 20
52.880252
 30
0.0
 10
-55.951236
 20
52.880252
 30
0.0
  0
SPLINE
  5
32d
100
AcDbEntity
  8
Ebene_1
 62
7
100
AcDbSpline
 70
8
 71
3
 72
8
 73
4
 74
0
 40
0
 40
0
 40
0
 40
0
 40
1
 40
1
 40
1
 40
1
 10
-70.403163
 20
55.781636
 30
0.0
 10
-71.216084
 20
55.781636
 30
0.0
 10
-71.901045
 20
56.061196
 30
0.0
 10
-72.458046
 20
56.620317
 30
0.0
  0
SPLINE
  5
32e
100
AcDbEntity
  8
Ebene_1
 62
7
100
AcDbSpline
 70
8
 71
3
 72
8
 73
4
 74
0
 40
0
 40
0
 40
0
 40
0
 40
1
 40
1
 40
1
 40
1
 10
-72.458046
 20
56.620317
 30
0.0
 10
-73.015048
 20
57.194553
 30
0.0
 10
-73.293548
 20
57.882121
 30
0.0
 10
-73.293548
 20
58.683020
 30
0.0
  0
LWPOLYLINE
  5
32f
100
AcDbEntity
  8
Ebene_1
 62
7
100
AcDbPolyline
 90
2
 70
0
 10
-58.841621
 20
49.978868
 30
0.0
 10
-70.403163
 20
49.978868
 30
0.0
  0
SPLINE
  5
330
100
AcDbEntity
  8
Ebene_1
 62
7
100
AcDbSpline
 70
8
 71
3
 72
8
 73
4
 74
0
 40
0
 40
0
 40
0
 40
0
 40
1
 40
1
 40
1
 40
1
 10
-55.951236
 20
58.683020
 30
0.0
 10
-55.951236
 20
57.867006
 30
0.0
 10
-56.237264
 20
57.179438
 30
0.0
 10
-56.809319
 20
56.620317
 30
0.0
  0
SPLINE
  5
331
100
AcDbEntity
  8
Ebene_1
 62
7
100
AcDbSpline
 70
8
 71
3
 72
8
 73
4
 74
0
 40
0
 40
0
 40
0
 40
0
 40
1
 40
1
 40
1
 40
1
 10
-56.809319
 20
56.620317
 30
0.0
 10
-57.381374
 20
56.061196
 30
0.0
 10
-58.058808
 20
55.781636
 30
0.0
 10
-58.841621
 20
55.781636
 30
0.0
  0
LWPOLYLINE
  5
332
100
AcDbEntity
  8
Ebene_1
 62
7
100
AcDbPolyline
 90
2
 70
0
 10
-73.293548
 20
58.683020
 30
0.0
 10
-55.951236
 20
58.683020
 30
0.0
  0
SPLINE
  5
333
100
AcDbEntity
  8
Ebene_1
 62
7
100
AcDbSpline
 70
8
 71
3
 72
8
 73
4
 74
0
 40
0
 40
0
 40
0
 40
0
 40
1
 40
1
 40
1
 40
1
 10
-70.403163
 20
61.584404
 30
0.0
 10
-71.216084
 20
61.584404
 30
0.0
 10
-71.901045
 20
61.863965
 30
0.0
 10
-72.458046
 20
62.423085
 30
0.0
  0
SPLINE
  5
334
100
AcDbEntity
  8
Ebene_1
 62
7
100
AcDbSpline
 70
8
 71
3
 72
8
 73
4
 74
0
 40
0
 40
0
 40
0
 40
0
 40
1
 40
1
 40
1
 40
1
 10
-72.458046
 20
62.423085
 30
0.0
 10
-73.015048
 20
62.997322
 30
0.0
 10
-73.293548
 20
63.684889
 30
0.0
 10
-73.293548
 20
64.485789
 30
0.0
  0
LWPOLYLINE
  5
335
100
AcDbEntity
  8
Ebene_1
 62
7
100
AcDbPolyline
 90
2
 70
0
 10
-58.841621
 20
55.781636
 30
0.0
 10
-70.403163
 20
55.781636
 30
0.0
  0
SPLINE
  5
336
100
AcDbEntity
  8
Ebene_1
 62
7
100
AcDbSpline
 70
8
 71
3
 72
8
 73
4
 74
0
 40
0
 40
0
 40
0
 40
0
 40
1
 40
1
 40
1
 40
1
 10
-55.951236
 20
64.485789
 30
0.0
 10
-55.951236
 20
63.669774
 30
0.0
 10
-56.237264
 20
62.982206
 30
0.0
 10
-56.809319
 20
62.423085
 30
0.0
  0
SPLINE
  5
337
100
AcDbEntity
  8
Ebene_1
 62
7
100
AcDbSpline
 70
8
 71
3
 72
8
 73
4
 74
0
 40
0
 40
0
 40
0
 40
0
 40
1
 40
1
 40
1
 40
1
 10
-56.809319
 20
62.423085
 30
0.0
 10
-57.381374
 20
61.863965
 30
0.0
 10
-58.058808
 20
61.584404
 30
0.0
 10
-58.841621
 20
61.584404
 30
0.0
  0
LWPOLYLINE
  5
338
100
AcDbEntity
  8
Ebene_1
 62
7
100
AcDbPolyline
 90
2
 70
0
 10
-73.293548
 20
64.485789
 30
0.0
 10
-55.951236
 20
64.485789
 30
0.0
  0
LWPOLYLINE
  5
339
100
AcDbEntity
  8
Ebene_1
 62
7
100
AcDbPolyline
 90
2
 70
0
 10
-58.841621
 20
61.584404
 30
0.0
 10
-70.403163
 20
61.584404
 30
0.0
  0
SPLINE
  5
33a
100
AcDbEntity
  8
Ebene_1
 62
7
100
AcDbSpline
 70
8
 71
3
 72
8
 73
4
 74
0
 40
0
 40
0
 40
0
 40
0
 40
1
 40
1
 40
1
 40
1
 10
-40.054122
 20
58.683020
 30
0.0
 10
-39.662715
 20
58.683020
 30
0.0
 10
-39.323998
 20
58.819025
 30
0.0
 10
-39.037970
 20
59.091034
 30
0.0
  0
SPLINE
  5
33b
100
AcDbEntity
  8
Ebene_1
 62
7
100
AcDbSpline
 70
8
 71
3
 72
8
 73
4
 74
0
 40
0
 40
0
 40
0
 40
0
 40
1
 40
1
 40
1
 40
1
 10
-39.037970
 20
59.091034
 30
0.0
 10
-38.751943
 20
59.378146
 30
0.0
 10
-38.608929
 20
59.725705
 30
0.0
 10
-38.608929
 20
60.133712
 30
0.0
  0
LWPOLYLINE
  5
33c
100
AcDbEntity
  8
Ebene_1
 62
7
100
AcDbPolyline
 90
3
 70
0
 10
-53.060856
 20
49.978868
 30
0.0
 10
-53.060856
 20
58.683020
 30
0.0
 10
-40.054122
 20
58.683020
 30
0.0
  0
SPLINE
  5
33d
100
AcDbEntity
  8
Ebene_1
 62
7
100
AcDbSpline
 70
8
 71
3
 72
8
 73
4
 74
0
 40
0
 40
0
 40
0
 40
0
 40
1
 40
1
 40
1
 40
1
 10
-50.170471
 20
61.584404
 30
0.0
 10
-50.983391
 20
61.584404
 30
0.0
 10
-51.668353
 20
61.863965
 30
0.0
 10
-52.225354
 20
62.423085
 30
0.0
  0
SPLINE
  5
33e
100
AcDbEntity
  8
Ebene_1
 62
7
100
AcDbSpline
 70
8
 71
3
 72
8
 73
4
 74
0
 40
0
 40
0
 40
0
 40
0
 40
1
 40
1
 40
1
 40
1
 10
-52.225354
 20
62.423085
 30
0.0
 10
-52.782355
 20
62.997322
 30
0.0
 10
-53.060856
 20
63.684889
 30
0.0
 10
-53.060856
 20
64.485789
 30
0.0
  0
LWPOLYLINE
  5
33f
100
AcDbEntity
  8
Ebene_1
 62
7
100
AcDbPolyline
 90
3
 70
0
 10
-38.608929
 20
60.133712
 30
0.0
 10
-38.608929
 20
61.584404
 30
0.0
 10
-50.170471
 20
61.584404
 30
0.0
  0
SPLINE
  5
340
100
AcDbEntity
  8
Ebene_1
 62
7
100
AcDbSpline
 70
8
 71
3
 72
8
 73
4
 74
0
 40
0
 40
0
 40
0
 40
0
 40
1
 40
1
 40
1
 40
1
 10
-35.718544
 20
58.683020
 30
0.0
 10
-35.718544
 20
57.867006
 30
0.0
 10
-36.004571
 20
57.179438
 30
0.0
 10
-36.576627
 20
56.620317
 30
0.0
  0
SPLINE
  5
341
100
AcDbEntity
  8
Ebene_1
 62
7
100
AcDbSpline
 70
8
 71
3
 72
8
 73
4
 74
0
 40
0
 40
0
 40
0
 40
0
 40
1
 40
1
 40
1
 40
1
 10
-36.576627
 20
56.620317
 30
0.0
 10
-37.148682
 20
56.061196
 30
0.0
 10
-37.826116
 20
55.781636
 30
0.0
 10
-38.608929
 20
55.781636
 30
0.0
  0
LWPOLYLINE
  5
342
100
AcDbEntity
  8
Ebene_1
 62
7
100
AcDbPolyline
 90
3
 70
0
 10
-53.060856
 20
64.485789
 30
0.0
 10
-35.718544
 20
64.485789
 30
0.0
 10
-35.718544
 20
58.683020
 30
0.0
  0
LWPOLYLINE
  5
343
100
AcDbEntity
  8
Ebene_1
 62
7
100
AcDbPolyline
 90
8
 70
0
 10
-38.608929
 20
55.781636
 30
0.0
 10
-41.499314
 20
55.781636
 30
0.0
 10
-35.718544
 20
49.978868
 30
0.0
 10
-40.054122
 20
49.978868
 30
0.0
 10
-45.834892
 20
55.781636
 30
0.0
 10
-50.170471
 20
55.781636
 30
0.0
 10
-50.170471
 20
49.978868
 30
0.0
 10
-53.060856
 20
49.978868
 30
0.0
  0
ENDSEC
  0
SECTION
  2
OBJECTS
  0
DICTIONARY
  5
C
330
0
100
AcDbDictionary
  3
ACAD_GROUP
350
D
  3
ACAD_MLINESTYLE
350
17
  0
DICTIONARY
  5
D
330
C
100
AcDbDictionary
  0
DICTIONARY
  5
1A
330
C
100
AcDbDictionary
  0
DICTIONARY
  5
17
330
C
100
AcDbDictionary
  3
STANDARD
350
18
  0
DICTIONARY
  5
19
330
C
100
AcDbDictionary
  0
ENDSEC
  0
EOF
