<?xml version="1.0" encoding="UTF-8" standalone="no"?>
<!-- Created with Inkscape (http://www.inkscape.org/) -->

<svg
   xmlns:dc="http://purl.org/dc/elements/1.1/"
   xmlns:cc="http://creativecommons.org/ns#"
   xmlns:rdf="http://www.w3.org/1999/02/22-rdf-syntax-ns#"
   xmlns:svg="http://www.w3.org/2000/svg"
   xmlns="http://www.w3.org/2000/svg"
   xmlns:sodipodi="http://sodipodi.sourceforge.net/DTD/sodipodi-0.dtd"
   xmlns:inkscape="http://www.inkscape.org/namespaces/inkscape"
   width="210mm"
   height="297mm"
   viewBox="0 0 210 297"
   version="1.1"
   id="svg8"
   inkscape:version="0.92.4 (5da689c313, 2019-01-14)"
   sodipodi:docname="TeslaParkingV4TimesRoman.svg">
  <defs
     id="defs2" />
  <sodipodi:namedview
     id="base"
     pagecolor="#ffffff"
     bordercolor="#666666"
     borderopacity="1.0"
     inkscape:pageopacity="0.0"
     inkscape:pageshadow="2"
     inkscape:zoom="0.35"
     inkscape:cx="-1093.4014"
     inkscape:cy="743.68407"
     inkscape:document-units="mm"
     inkscape:current-layer="layer1"
     showgrid="true"
     inkscape:window-width="1920"
     inkscape:window-height="1137"
     inkscape:window-x="-8"
     inkscape:window-y="-8"
     inkscape:window-maximized="1">
    <inkscape:grid
       type="xygrid"
       id="grid21485"
       empspacing="5" />
  </sodipodi:namedview>
  <metadata
     id="metadata5">
    <rdf:RDF>
      <cc:Work
         rdf:about="">
        <dc:format>image/svg+xml</dc:format>
        <dc:type
           rdf:resource="http://purl.org/dc/dcmitype/StillImage" />
        <dc:title />
      </cc:Work>
    </rdf:RDF>
  </metadata>
  <g
     inkscape:label="Ebene 1"
     inkscape:groupmode="layer"
     id="layer1">
    <path
       inkscape:connector-curvature="0"
       style="opacity:1;fill:none;fill-opacity:1;stroke:#000000;stroke-width:0.40000001;stroke-linejoin:round;stroke-miterlimit:4;stroke-dasharray:none;stroke-opacity:1;paint-order:markers fill stroke"
       d="M -537.8266,297.82208 V 78.22207 l 299.59998,0 v 219.60001 z"
       id="rect867-7" />
    <path
       style="color:#000000;font-style:normal;font-variant:normal;font-weight:normal;font-stretch:normal;font-size:medium;line-height:normal;font-family:sans-serif;font-variant-ligatures:normal;font-variant-position:normal;font-variant-caps:normal;font-variant-numeric:normal;font-variant-alternates:normal;font-feature-settings:normal;text-indent:0;text-align:start;text-decoration:none;text-decoration-line:none;text-decoration-style:solid;text-decoration-color:#000000;letter-spacing:normal;word-spacing:normal;text-transform:none;writing-mode:lr-tb;direction:ltr;text-orientation:mixed;dominant-baseline:auto;baseline-shift:baseline;text-anchor:start;white-space:normal;shape-padding:0;clip-rule:nonzero;display:inline;overflow:visible;visibility:visible;opacity:1;isolation:auto;mix-blend-mode:normal;color-interpolation:sRGB;color-interpolation-filters:linearRGB;solid-color:#000000;solid-opacity:1;vector-effect:none;fill:#000000;fill-opacity:1;fill-rule:nonzero;stroke:none;stroke-width:7;stroke-linecap:butt;stroke-linejoin:round;stroke-miterlimit:4;stroke-dasharray:none;stroke-dashoffset:0;stroke-opacity:1;paint-order:markers fill stroke;color-rendering:auto;image-rendering:auto;shape-rendering:auto;text-rendering:auto;enable-background:accumulate"
       d="m -527.8266,251.06133 c 0,19.29457 15.61954,34.93522 34.88806,34.93522 l 209.84591,0 c 19.26853,0 34.88807,-15.64065 34.88807,-34.93522 v -126.0785 c 0,-19.29457 -15.61954,-34.93522 -34.88807,-34.93522 l -209.84591,0 c -19.26852,0 -34.88806,15.64065 -34.88806,34.93522 z m 6.82005,0 v -126.0785 c 0,-15.62928 12.45984,-28.10595 28.06801,-28.10595 h 209.84591 c 15.60818,0 28.06801,12.47667 28.06801,28.10595 v 126.0785 c 0,15.62929 -12.45983,28.10595 -28.06801,28.10595 h -209.84591 c -15.60817,0 -28.06801,-12.47666 -28.06801,-28.10595 z"
       id="rect875-8"
       inkscape:connector-curvature="0" />
    <path
       inkscape:connector-curvature="0"
       style="opacity:1;fill:none;fill-opacity:1;stroke:#000000;stroke-width:0.2;stroke-linejoin:round;stroke-miterlimit:4;stroke-dasharray:none;stroke-opacity:1;paint-order:markers fill stroke"
       d="m -270.03493,262.93576 a 2.5,2.5 0 0 1 2.49999,2.5 2.5,2.5 0 0 1 -2.49999,2.5 2.5,2.5 0 0 1 -2.5,-2.5 2.5,2.5 0 0 1 2.5,-2.5 z"
       id="path879-6" />
    <path
       inkscape:connector-curvature="0"
       style="opacity:1;fill:none;fill-opacity:1;stroke:#000000;stroke-width:0.2;stroke-linejoin:round;stroke-miterlimit:4;stroke-dasharray:none;stroke-opacity:1;paint-order:markers fill stroke"
       d="m -270.32661,108.02208 a 2.5,2.5 0 0 1 2.50002,2.5 2.5,2.5 0 0 1 -2.50002,2.5 2.5,2.5 0 0 1 -2.49999,-2.5 2.5,2.5 0 0 1 2.49999,-2.5 z"
       id="path881-2" />
    <path
       inkscape:connector-curvature="0"
       style="opacity:1;fill:none;fill-opacity:1;stroke:#000000;stroke-width:0.2;stroke-linejoin:round;stroke-miterlimit:4;stroke-dasharray:none;stroke-opacity:1;paint-order:markers fill stroke"
       d="m -505.4129,107.6441 a 2.5,2.5 0 0 1 2.49999,2.5 2.5,2.5 0 0 1 -2.49999,2.5 2.5,2.5 0 0 1 -2.50001,-2.5 2.5,2.5 0 0 1 2.50001,-2.5 z"
       id="path883-1" />
    <path
       inkscape:connector-curvature="0"
       style="opacity:1;fill:none;fill-opacity:1;stroke:#000000;stroke-width:0.2;stroke-linejoin:round;stroke-miterlimit:4;stroke-dasharray:none;stroke-opacity:1;paint-order:markers fill stroke"
       d="m -505.4129,262.6441 a 2.5,2.5 0 0 1 2.49999,2.5 2.5,2.5 0 0 1 -2.49999,2.5 2.5,2.5 0 0 1 -2.50001,-2.5 2.5,2.5 0 0 1 2.50001,-2.5 z"
       id="path885-2" />
    <g
       id="g1500"
       transform="translate(-345,85)">
      <path
         sodipodi:nodetypes="sccsccccccccccccssssccccccccscscssscccccccccscccccssssssssss"
         inkscape:connector-curvature="0"
         id="path826"
         d="m -88.787401,37.651478 c -1.312047,0 -1.405094,0.139291 -1.694318,2.547159 -0.168271,1.400946 -0.307121,3.802323 -0.309871,5.336686 -0.004,2.748901 -0.0251,2.789513 -1.40079,2.789513 -0.76786,0 -1.61831,0.273382 -1.89047,0.606932 -0.27217,0.333565 -0.51925,3.226183 -0.54868,6.428327 -0.0591,6.451584 -0.21394,5.997323 4.247888,12.46574 l 2.11079,3.05958 -0.335453,19.892615 c -0.325943,19.31856 -0.297913,20.27636 0.975085,33.23394 1.407757,14.33011 1.404255,19.67437 -0.01422,23.18174 -1.181462,2.92141 -3.85963,4.12997 -6.61878,2.98709 -1.7717,-0.73386 -3.58062,-4.45733 -4.34525,-8.94492 -0.57205,-3.3573 -0.42794,-18.93611 0.36957,-39.88329 C -98.2786,97.57421 -99.49852,89.61033 -105,89.61033 l 3e-4,-22.004378 c 0,-15.128257 0,-16.503554 0.0474,-23.333962 0.01,-1.422125 -1.42286,-2.796927 -2.79814,-2.796927 h -44.00963 c -1.3753,0 -2.75043,1.375847 -2.75043,2.751143 V 90.98627 157 h -11.00238 v 8.25198 h 82.517707 c 0.093,-2.9919 -0.093,-5.26007 0,-8.25198 C -91.11169,156.9616 -97.29164,157.13065 -105,157 V 97.86232 c 0.61419,0 2.07975,1.47689 1.79952,6.97627 -0.18019,3.53571 -0.82142,12.8176 -0.8628,21.35666 -0.0666,13.72938 0.0289,15.91848 0.8244,18.92178 2.29092,8.64803 7.50408,12.52156 13.947578,10.3642 4.363211,-1.46087 6.904671,-5.22254 7.833381,-11.59443 0.58194,-3.99267 0.368906,-8.33399 -1.34394,-27.39479 -0.617633,-6.87315 -0.665102,-11.34099 -0.284282,-26.80421 0.51521,-20.920134 0.120434,-18.873378 4.813595,-24.947125 1.916876,-2.480774 2.168875,-3.123766 2.589097,-6.599607 0.256052,-2.118135 0.398828,-5.138987 0.317683,-6.712587 l -0.147113,-2.860589 -1.845701,-0.152094 -1.846409,-0.152795 0.08742,-5.082957 c 0.048,-2.795922 -0.03887,-5.209952 -0.193312,-5.364398 -0.154446,-0.154432 -0.837111,-0.141408 -1.516642,0.02915 -1.225914,0.307627 -1.235203,0.350701 -1.235203,5.394957 v 5.085089 h -2.668697 -2.667981 V 42.98815 37.651478 Z m -56.095869,9.325141 h 30.90426 c 2.28574,0 4.12564,1.839899 4.12564,4.125641 v 20.629609 c 0,2.285742 -1.8399,4.125627 -4.12564,4.125627 h -30.90426 c -2.28574,0 -4.12562,-1.839885 -4.12562,-4.125627 V 51.10226 c 0,-2.285742 1.83988,-4.125641 4.12562,-4.125641 z"
         style="fill:#000000;stroke-width:0.99999994" />
      <text
         id="text835"
         y="109.90271"
         x="-129.63495"
         style="font-style:normal;font-variant:normal;font-weight:bold;font-stretch:normal;font-size:36.22584534px;line-height:1;font-family:Gotham;-inkscape-font-specification:'Gotham Bold';text-align:center;letter-spacing:0px;word-spacing:0px;text-anchor:middle;fill:#a30000;fill-opacity:1;stroke:none;stroke-width:0.26458332"
         xml:space="preserve"><tspan
           style="font-style:normal;font-variant:normal;font-weight:bold;font-stretch:normal;line-height:1;font-family:Gotham;-inkscape-font-specification:'Gotham Bold';text-align:center;text-anchor:middle;fill:#a30000;fill-opacity:1;stroke-width:0.26458332"
           y="109.90271"
           x="-129.63495"
           id="tspan833"
           sodipodi:role="line">E</tspan><tspan
           id="tspan837"
           style="font-style:normal;font-variant:normal;font-weight:bold;font-stretch:normal;line-height:1;font-family:Gotham;-inkscape-font-specification:'Gotham Bold';text-align:center;text-anchor:middle;fill:#a30000;fill-opacity:1;stroke-width:0.26458332"
           y="146.12856"
           x="-129.63495"
           sodipodi:role="line">V</tspan></text>
    </g>
    <text
       xml:space="preserve"
       style="font-style:normal;font-variant:normal;font-weight:bold;font-stretch:normal;font-size:27.18625641px;line-height:1;font-family:'Sitka Small';-inkscape-font-specification:'Sitka Small Bold';text-align:center;letter-spacing:0px;word-spacing:0px;text-anchor:middle;fill:#000000;fill-opacity:1;stroke:none;stroke-width:0.26458332"
       x="-341.08954"
       y="157.05846"
       id="text1460"><tspan
         sodipodi:role="line"
         x="-341.08954"
         y="157.05846"
         style="font-style:normal;font-variant:normal;font-weight:bold;font-stretch:normal;line-height:1;font-family:'Sitka Small';-inkscape-font-specification:'Sitka Small Bold';text-align:center;text-anchor:middle;stroke-width:0.26458332"
         id="tspan1466">ELECTRIC</tspan><tspan
         sodipodi:role="line"
         x="-341.08954"
         y="184.24471"
         style="font-style:normal;font-variant:normal;font-weight:bold;font-stretch:normal;line-height:1;font-family:'Sitka Small';-inkscape-font-specification:'Sitka Small Bold';text-align:center;text-anchor:middle;stroke-width:0.26458332"
         id="tspan1477">VEHICLE</tspan><tspan
         sodipodi:role="line"
         x="-341.08954"
         y="211.43097"
         style="font-style:normal;font-variant:normal;font-weight:bold;font-stretch:normal;line-height:1;font-family:'Sitka Small';-inkscape-font-specification:'Sitka Small Bold';text-align:center;text-anchor:middle;stroke-width:0.26458332"
         id="tspan1479">PARKING</tspan><tspan
         sodipodi:role="line"
         x="-341.08954"
         y="238.61723"
         style="font-style:normal;font-variant:normal;font-weight:bold;font-stretch:normal;line-height:1;font-family:'Sitka Small';-inkscape-font-specification:'Sitka Small Bold';text-align:center;text-anchor:middle;stroke-width:0.26458332"
         id="tspan1481">ONLY</tspan></text>
    <path
       style="fill:#000000;stroke-width:0.99999994"
       d="m -60.04765,9.83716 c -5.51953,-0.65241 -10.48734,-4.16523 -13.03904,-9.22011 -1.95216,-3.86722 -2.24741,-8.78454 -0.7794,-12.98059 1.86662,-5.33537 6.21745,-9.28984 11.84433,-10.76532 1.74948,-0.45873 5.09792,-0.56828 6.91179,-0.22611 3.55188,0.67001 6.53057,2.22021 8.98791,4.67754 2.23617,2.23617 3.74757,4.95488 4.51857,8.12799 0.42208,1.73708 0.3801,6.10374 -0.0748,7.78046 -1.33029,4.90354 -4.42978,8.76496 -8.7786,10.93654 -1.78172,0.88971 -3.97009,1.49473 -5.77232,1.70433 -1.41744,0.11433 -1.50841,0.12247 -3.81848,-0.0348 z m 3.63928,-3.25973 c 8.83721,-1.10156 14.18648,-10.07612 10.96695,-18.39942 -1.32326,-3.42095 -4.37983,-6.38981 -7.87721,-7.65113 -7.67279,-2.76719 -15.82162,1.54894 -17.80393,9.43007 -0.47602,1.89255 -0.47572,4.70323 0,6.49699 0.98394,3.70462 3.5429,6.94938 6.82022,8.64808 2.60092,1.3481 5.12685,1.82025 7.89326,1.47541 z M -60.21196,5.5934 c -1.42895,-0.26878 -1.79289,-0.39087 -1.68508,-0.56529 0.0489,-0.079 0.31084,-0.14382 0.58232,-0.14413 0.63656,-5.4e-4 1.42101,-0.48251 1.71666,-1.05426 0.14845,-0.28705 0.32018,-1.50671 0.4747,-3.37135 0.13316,-1.60688 0.28314,-3.24214 0.33329,-3.63391 0.0772,-0.6035 0.0472,-0.72756 -0.19646,-0.81222 -0.15821,-0.0549 -0.37069,-0.13914 -0.47215,-0.1871 -0.11853,-0.0559 -0.22053,0.12379 -0.28527,0.50285 -0.21086,1.23481 -1.68403,5.1409 -2.70374,7.16903 -0.34092,0.67805 -0.6472,1.23284 -0.68063,1.23284 -0.0334,0 -0.49472,-0.24529 -1.0251,-0.54508 -1.24985,-0.70646 -2.74697,-1.90244 -3.42705,-2.73775 -0.74455,-0.91447 -1.42295,-1.96712 -1.32856,-2.0615 0.0432,-0.0432 0.42897,0.0974 0.85721,0.31254 1.41019,0.70828 2.20506,0.46266 3.75019,-1.15884 1.1727,-1.23064 2.73366,-2.49282 3.51451,-2.8418 l 0.65275,-0.29175 -0.33195,-0.48135 c -0.18256,-0.26475 -0.34192,-0.49782 -0.35412,-0.51791 -0.0122,-0.0202 -0.52821,0.10365 -1.14665,0.27504 -1.42363,0.39451 -2.36615,0.87196 -4.11347,2.08368 -1.44801,1.00417 -2.84978,1.77711 -3.22286,1.77711 -0.45833,0 -1.41187,-3.71465 -1.31226,-5.11213 l 0.0492,-0.68875 0.38673,0.77322 c 0.22105,0.44199 0.61866,0.92773 0.92813,1.13389 0.64037,0.42655 0.73517,0.41831 4.09929,-0.35596 1.2762,-0.29372 2.72061,-0.6112 3.20983,-0.70551 0.86025,-0.16583 0.88948,-0.18761 0.88975,-0.66325 V -7.568 l -1.97259,0.0502 c -1.9374,0.0493 -4.56819,-0.13838 -6.51691,-0.46491 l -0.98645,-0.1653 0.0862,-0.79283 c 0.10648,-0.979 0.56488,-2.41708 1.12134,-3.51809 0.70944,-1.40367 2.5357,-3.80033 2.18638,-2.86926 -0.0585,0.15603 -0.15143,0.768 -0.20646,1.35994 -0.0964,1.03746 -0.0838,1.09329 0.34818,1.54899 0.24651,0.25999 1.14431,0.8233 1.99511,1.25179 1.72697,0.86975 3.00055,1.69833 3.74669,2.43759 l 0.4982,0.49361 0.37905,-0.43931 0.37906,-0.43932 -0.32186,-0.54141 c -0.93878,-1.57923 -1.50569,-2.15226 -4.37175,-4.41887 -0.8115,-0.64174 -1.93364,-1.76872 -1.93364,-1.94194 0,-0.24855 1.91236,-1.55916 3.16297,-2.16772 1.43263,-0.69712 1.9457,-0.78069 1.20397,-0.19613 -0.61598,0.48543 -0.96375,1.12275 -0.96375,1.76609 0,0.59393 0.0102,0.61255 1.85513,3.55539 0.82693,1.31873 1.62215,2.62854 1.76711,2.91069 0.2388,0.46479 0.30994,0.50306 0.75704,0.40733 0.27139,-0.0581 0.51041,-0.12027 0.53109,-0.13812 0.0207,-0.0179 -0.12761,-0.37519 -0.32959,-0.79406 -0.71516,-1.48304 -2.06975,-6.36566 -2.14247,-7.72246 l -0.0406,-0.75784 0.6961,-0.13289 c 1.14314,-0.21825 4.42281,-0.0302 5.59572,0.32091 1.54237,0.46165 1.72463,0.59711 0.97407,0.72392 -1.0793,0.18238 -1.60907,0.4003 -2.05347,0.8447 -0.39447,0.39447 -0.4501,0.59281 -0.61804,2.20392 -0.20257,1.94338 -0.62328,3.78479 -1.08132,4.73283 l -0.29562,0.61187 0.55693,0.17526 c 0.53739,0.16912 0.57401,0.15527 1.04261,-0.3936 0.89179,-1.04463 1.49933,-2.23378 2.22865,-4.36222 0.81199,-2.36973 1.36098,-3.58033 1.62358,-3.58033 0.56928,0 4.61912,3.54711 4.35331,3.81293 -0.039,0.039 -0.30508,-0.0717 -0.59118,-0.24614 -0.34789,-0.2121 -0.78673,-0.31732 -1.32488,-0.31771 -0.94307,-5.5e-4 -1.04797,0.0887 -3.38108,2.88189 -0.79126,0.94726 -1.72226,2.02045 -2.0689,2.38485 -0.61129,0.6426 -0.62216,0.67224 -0.3606,0.98478 0.14832,0.17723 0.28123,0.34464 0.29537,0.37206 0.014,0.0274 0.46734,-0.30766 1.00713,-0.74459 1.52441,-1.23393 4.7043,-3.27958 6.59357,-4.24169 l 0.50735,-0.25838 0.53191,1.12786 c 0.29256,0.62032 0.64188,1.54552 0.77626,2.05599 0.29848,1.13384 0.51235,3.51622 0.38187,4.25371 l -0.0958,0.54169 -0.34324,-0.6961 c -0.1888,-0.38287 -0.51373,-0.90493 -0.72212,-1.16018 -0.35855,-0.43916 -0.43919,-0.46384 -1.50263,-0.46005 -0.61805,0.003 -1.84885,0.13214 -2.73513,0.28874 -1.06029,0.18736 -2.05226,0.2616 -2.90044,0.21708 l -1.28904,-0.0676 v 0.55236 c 0,0.50454 0.0574,0.57546 0.65743,0.81923 1.2527,0.50897 2.52592,0.71201 5.06554,0.80781 3.32929,0.12559 3.71256,0.1879 3.71256,0.60365 0,0.90531 -1.64421,4.69641 -2.1032,4.84941 -0.10909,0.0363 -0.14529,-0.22469 -0.10558,-0.76116 0.0463,-0.62586 -0.0126,-0.93241 -0.25156,-1.313 -0.36607,-0.5827 -0.84858,-0.84531 -3.48752,-1.89813 -1.08035,-0.43102 -2.38065,-0.99383 -2.88952,-1.25071 l -0.92521,-0.46706 -0.29567,0.35462 c -0.3699,0.44361 -0.37638,0.57128 -0.0352,0.69272 0.75659,0.26936 3.92853,2.72304 5.92984,4.58707 l 1.30193,1.21262 -0.96706,0.91074 c -1.2169,1.146 -3.0104,2.20568 -4.5711,2.7008 -0.66376,0.21058 -1.27933,0.38286 -1.36793,0.38286 -0.0886,0 0.11363,-0.33064 0.44942,-0.73477 1.25885,-1.51501 1.25698,-1.72721 -0.0381,-4.29266 -0.55831,-1.10604 -1.17007,-2.58188 -1.3595,-3.27966 -0.32912,-1.21246 -0.36153,-1.2647 -0.73112,-1.17889 -0.2127,0.0495 -0.45634,0.15424 -0.54142,0.23298 -0.0854,0.0791 -0.15161,0.88364 -0.1478,1.79763 0.006,1.46684 0.0726,1.86503 0.58622,3.51076 0.63677,2.04037 1.00489,3.86762 0.81706,4.05575 -0.20755,0.20788 -2.75086,0.19412 -3.89483,-0.021 z m 3.36195,-10.39635 c 1.30442,-0.65662 1.55842,-2.6221 0.47268,-3.65785 -1.67918,-1.60185 -4.37075,-0.13503 -3.87437,2.1114 0.34027,1.53993 1.95567,2.2743 3.40169,1.54645 z m -1.48968,-0.25135 c -0.0338,-0.10636 -0.10524,-0.58657 -0.15902,-1.06717 -0.10454,-0.93532 -0.23814,-1.05292 -1.20088,-1.0577 -0.60299,-0.003 -0.52714,-0.2533 0.1872,-0.61773 0.78279,-0.39935 2.19276,-0.41932 2.93606,-0.0416 0.69118,0.35125 0.79094,0.65653 0.21546,0.6593 -1.00222,0.004 -1.08871,0.0946 -1.20241,1.24857 -0.0912,0.92562 -0.14646,1.06968 -0.41026,1.06968 -0.16768,0 -0.33245,-0.087 -0.36615,-0.19337 z M -199.82564,9.60212 c -3.37502,-0.67259 -6.59316,-2.46232 -8.98319,-4.99587 -7.02651,-7.44847 -5.83428,-19.28899 2.53662,-25.19231 6.00969,-4.23815 14.02309,-4.09416 19.87286,0.35709 6.08754,4.63218 8.28724,12.97988 5.25211,19.93141 -2.21495,5.07299 -6.54306,8.63421 -11.93397,9.81943 -1.65212,0.36322 -5.11761,0.40444 -6.74443,0.0803 z m 7.0538,-3.54823 c 7.42184,-2.20681 11.45815,-10.11184 8.91054,-17.45104 -1.50062,-4.32301 -5.23677,-7.63247 -9.80959,-8.68927 -1.58578,-0.36648 -4.51337,-0.32629 -6.14857,0.0844 -3.96805,0.99661 -7.22421,3.65684 -8.9711,7.32924 -0.94174,1.97975 -1.28502,3.53181 -1.28305,5.80088 0.003,2.15919 0.23744,3.33429 1.0543,5.25947 1.79302,4.2258 5.56004,7.19084 10.29191,8.10081 0.2127,0.0409 1.32646,0.053 2.47503,0.0269 1.72119,-0.0391 2.33308,-0.12021 3.48053,-0.4614 z m -4.71805,-0.34446 c -0.94381,-0.0847 -3.0938,-0.55029 -3.0938,-0.66998 0,-0.0634 0.33317,-0.15923 0.74037,-0.21326 0.91017,-0.12074 1.39174,-0.44231 1.67398,-1.1178 0.1188,-0.28433 0.32016,-1.75446 0.44746,-3.26694 0.22761,-2.70406 0.33033,-3.58347 0.47734,-4.08663 0.0519,-0.17804 -0.0728,-0.30505 -0.41806,-0.4254 -0.27072,-0.0944 -0.50889,-0.17159 -0.52927,-0.17159 -0.0204,0 -0.0844,0.25256 -0.14233,0.56125 -0.39087,2.08356 -2.98707,8.2561 -3.47254,8.2561 -0.43378,0 -2.27469,-1.21671 -3.35691,-2.2187 -0.94842,-0.87809 -2.38109,-2.71424 -2.38109,-3.05168 0,-0.0645 0.33064,0.0506 0.73476,0.25569 1.63621,0.83043 2.03965,0.69734 4.22308,-1.39317 1.25157,-1.19831 2.10691,-1.86275 3.59969,-2.79621 0.21997,-0.13755 0.20685,-0.20434 -0.11824,-0.60264 l -0.36564,-0.44794 -1.05904,0.2642 c -1.06624,0.266 -3.11453,1.26201 -3.68878,1.7937 -0.45088,0.41749 -3.35511,2.16382 -3.59852,2.16382 -0.43669,0 -1.24349,-2.63784 -1.38391,-4.52468 -0.0631,-0.84807 -0.0375,-1.19885 0.0876,-1.19885 0.0972,0 0.17679,0.10047 0.17679,0.22319 0,0.40542 0.64846,1.33111 1.09378,1.56139 0.64024,0.33109 1.22021,0.28477 3.70968,-0.29627 1.23163,-0.28747 2.73704,-0.61471 3.34536,-0.72722 1.07702,-0.19919 1.10752,-0.2175 1.16363,-0.69796 l 0.0577,-0.49342 -1.19037,0.0815 c -1.28737,0.0882 -5.42451,-0.19005 -7.1727,-0.48246 -1.28068,-0.21422 -1.29693,-0.24739 -0.92953,-1.89875 0.32863,-1.47711 1.55132,-3.92138 2.46475,-4.92726 l 0.70236,-0.77346 -0.11405,0.69611 c -0.20575,1.25581 -0.13843,2.10614 0.19609,2.47692 0.16975,0.18815 0.93512,0.65662 1.70084,1.04108 1.74699,0.87715 3.57769,2.04445 4.16062,2.65291 l 0.44686,0.4664 0.32585,-0.41425 c 0.40116,-0.50999 0.37193,-0.64684 -0.36877,-1.72628 -0.71098,-1.03617 -1.60179,-1.89922 -3.55907,-3.44823 -0.80826,-0.63966 -1.6716,-1.37838 -1.91855,-1.64161 -0.53792,-0.57338 -0.49517,-0.65082 0.91447,-1.65672 1.67884,-1.198 4.21256,-2.21465 3.02136,-1.21232 -0.58619,0.49325 -0.93515,1.13477 -0.93241,1.71415 0.003,0.48022 0.60576,1.58496 2.54706,4.66256 0.71601,1.1351 1.32363,2.12925 1.35028,2.20921 0.0291,0.0872 0.24728,0.0761 0.5457,-0.028 l 0.49724,-0.17334 -0.28696,-0.56631 c -0.63956,-1.26216 -1.96849,-5.92935 -2.26162,-7.94275 l -0.10558,-0.72474 0.59616,-0.12302 c 1.23691,-0.25525 4.23064,-0.12248 5.57479,0.24724 0.69633,0.19153 1.38687,0.43656 1.53452,0.54455 0.23498,0.17181 0.17761,0.20992 -0.45985,0.30552 -1.86759,0.28006 -2.33009,0.77502 -2.47405,2.64766 -0.12734,1.65684 -0.58774,3.8109 -1.03845,4.85859 -0.18698,0.43464 -0.31306,0.81672 -0.2802,0.84909 0.0329,0.0323 0.30337,0.10126 0.60115,0.15324 0.52072,0.0908 0.56897,0.0573 1.26171,-0.87567 0.80011,-1.07762 0.94826,-1.39453 1.89957,-4.06388 0.67086,-1.88243 1.273,-3.2756 1.46772,-3.39595 0.16642,-0.10285 1.85659,1.02338 2.75175,1.83362 0.88657,0.80249 1.82536,1.92122 1.70945,2.03714 -0.0406,0.0406 -0.37965,-0.10093 -0.75343,-0.31465 -0.37377,-0.21367 -0.87448,-0.38932 -1.11267,-0.39035 -0.89631,-0.003 -1.1826,0.25578 -4.00628,3.63336 -0.64013,0.76572 -1.37551,1.59997 -1.63414,1.85389 l -0.47026,0.46166 0.30891,0.43384 0.30893,0.43383 0.65783,-0.60638 c 1.37111,-1.26384 7.0111,-4.80122 7.33545,-4.60076 0.24868,0.1537 0.95302,1.80077 1.33765,3.12805 0.27896,0.96264 0.38373,1.7154 0.39764,2.85714 0.0102,0.85259 -0.0179,1.58695 -0.0629,1.63192 -0.045,0.0449 -0.19953,-0.15094 -0.34346,-0.43536 -0.83981,-1.65945 -1.4913,-1.96548 -3.41495,-1.60418 -2.02593,0.38053 -3.94909,0.54221 -4.8928,0.41138 l -0.88946,-0.12333 v 0.57381 c 0,0.53748 0.0466,0.59365 0.73477,0.88697 1.34008,0.57112 1.94678,0.66765 5.06756,0.80621 1.7024,0.0755 3.21643,0.18391 3.36451,0.24073 0.34932,0.13405 0.33944,0.42866 -0.0575,1.71686 -0.44176,1.43344 -1.5695,3.61179 -1.87024,3.61256 -0.0598,1.5e-4 -0.0678,-0.34543 -0.0178,-0.76796 0.17933,-1.51418 -0.29521,-1.97465 -3.20263,-3.1077 -0.86959,-0.33889 -2.19774,-0.90268 -2.95144,-1.25287 l -1.37038,-0.63671 -0.30735,0.36904 c -0.34586,0.41527 -0.39407,0.60108 -0.15598,0.60108 0.49805,0 5.19271,3.66581 6.71091,5.24021 0.60544,0.62785 0.60656,0.63133 0.30939,0.96039 -0.55653,0.61625 -2.15039,1.80513 -3.16003,2.3571 -1.0542,0.57633 -3.3769,1.42031 -3.51865,1.27856 -0.0455,-0.0455 0.16543,-0.35715 0.46859,-0.69271 0.82372,-0.91176 1.08712,-1.37567 1.07253,-1.88899 -0.007,-0.25473 -0.50632,-1.45172 -1.10906,-2.65999 -0.63827,-1.27952 -1.20201,-2.65228 -1.35002,-3.28747 l -0.25411,-1.0906 -0.51242,0.16039 c -0.45096,0.14114 -0.52455,0.24135 -0.61367,0.83557 -0.16318,1.08825 0.0691,2.84292 0.62322,4.70683 0.66309,2.2306 0.86227,3.0767 0.86227,3.66266 0,0.44027 -0.04,0.47409 -0.58009,0.49021 -0.31904,0.009 -0.78892,0.032 -1.04416,0.0499 -0.25524,0.018 -0.7077,0.0113 -1.00548,-0.0159 z m 2.01505,-10.57244 c 1.69663,-0.86555 1.53182,-3.59108 -0.25275,-4.18004 -1.66172,-0.54842 -3.15451,0.50116 -3.15451,2.21794 0,1.72972 1.81456,2.77464 3.40726,1.9621 z m -1.45201,-0.42332 c -0.0421,-0.14889 -0.12296,-0.63616 -0.17964,-1.08283 l -0.10308,-0.81212 h -0.77182 c -0.95118,0 -0.94002,-0.23706 0.0351,-0.74601 0.55478,-0.28956 0.85613,-0.34538 1.55276,-0.28766 1.60213,0.13277 2.61053,1.03367 1.15701,1.03367 -0.76421,0 -0.77146,0.0102 -0.94188,1.35354 -0.0822,0.64789 -0.16058,0.81212 -0.38751,0.81212 -0.15643,0 -0.31889,-0.12182 -0.361,-0.27071 z m -19.58993,7.83187 c -7.86489,-2.03288 -11.26114,-3.24307 -12.62224,-4.49768 -1.23118,-1.13487 -1.22837,-2.0712 0.0115,-3.83194 0.3848,-0.54645 0.69962,-1.14511 0.69962,-1.33035 0,-0.18524 -0.34719,-0.77114 -0.77154,-1.302 -1.39068,-1.73971 -1.39093,-1.7404 -1.21066,-3.32821 0.22994,-2.02535 0.0803,-4.35724 -0.42506,-6.62618 -0.58565,-2.62915 -0.64063,-2.52485 2.4346,-4.6194 7.48896,-5.10072 11.81731,-6.88168 20.77853,-8.54965 1.61649,-0.30087 3.39156,-0.65236 3.94457,-0.78104 1.23611,-0.28766 6.22679,-1.09155 11.98849,-1.93111 6.13039,-0.89327 9.94039,-1.55834 12.29787,-2.14671 0.915,-0.22836 1.92761,-0.67853 7.28312,-3.2378 14.72413,-7.03628 21.54125,-9.86314 29.86421,-12.38377 7.44332,-2.25424 11.82887,-2.98713 22.48574,-3.7578 3.46158,-0.25032 15.91546,-0.25341 19.33628,-0.004 15.4067,1.11975 27.01868,3.51716 39.67802,8.19196 3.85088,1.42203 9.39318,3.59718 13.30337,5.22107 7.3101,3.03586 8.97639,3.68342 10.40566,4.04384 1.84598,0.4655 2.8463,0.87354 3.23216,1.31845 0.34377,0.39637 0.34626,0.45146 0.0522,1.15511 -0.45495,1.08885 -0.33016,1.34949 0.98839,2.06445 0.6431,0.34872 0.72731,0.45981 0.85677,1.13024 0.11339,0.58719 0.0809,0.97744 -0.15469,1.85627 -0.6611,2.46652 -0.23509,7.62032 0.97196,11.75849 0.30231,1.03631 0.64945,2.23225 0.77148,2.65764 0.42112,1.46819 0.20748,2.43462 -1.17659,5.32228 -0.67666,1.41182 -1.27834,2.8062 -1.33707,3.09867 -0.15214,0.75767 -1.42974,2.04186 -2.93744,2.95255 -2.43866,1.47301 -3.65825,1.87265 -3.85201,1.26222 -0.0491,-0.15451 -0.0169,-0.65919 0.0716,-1.12151 0.19801,-1.03543 0.20553,-3.9459 0.0131,-5.09456 -0.96628,-5.77017 -4.71135,-11.04466 -9.60723,-13.53066 -2.62547,-1.33314 -5.43977,-1.97532 -8.66265,-1.97665 -6.35083,-0.003 -12.05625,2.78814 -15.25807,7.46342 -1.59157,2.32401 -2.86585,5.35395 -3.48053,8.27593 -0.1093,0.51949 -0.19869,2.05188 -0.20309,3.48052 -0.007,2.10072 0.0588,2.89107 0.36911,4.46618 0.4339,2.20294 0.35232,2.58796 -0.61449,2.89976 -0.38544,0.12431 -11.61223,0.20273 -39.98193,0.27928 -21.6953,0.0585 -44.34736,0.16863 -50.3379,0.24466 -7.11801,0.0904 -10.99046,0.0855 -11.17635,-0.0141 -0.36384,-0.19471 -0.35791,-0.46853 0.0605,-2.79037 0.28822,-1.59966 0.34497,-2.47377 0.34522,-5.31754 3e-4,-3.19943 -0.0245,-3.49648 -0.41388,-4.9617 -0.85919,-3.23328 -1.97976,-5.39798 -4.0692,-7.86092 -1.77802,-2.09583 -4.86824,-4.18418 -7.5768,-5.12034 -4.63621,-1.60244 -9.35887,-1.4631 -13.62706,0.40208 -6.51858,2.84857 -10.18988,7.75083 -11.21367,14.97356 -0.23362,1.64804 -0.10558,4.52575 0.32425,7.28538 0.17888,1.14857 0.36533,2.55726 0.41433,3.13043 0.13837,1.61826 -0.10195,1.74329 -2.27253,1.18224 z m 78.7373,-10.88329 c 15.17943,-0.44461 23.17187,-0.7863 36.27486,-1.55083 2.127,-0.12409 5.12025,-0.29642 6.65167,-0.38293 6.12234,-0.34585 8.85242,-0.70723 9.00926,-1.19251 0.21154,-0.65448 -3.78062,-0.85355 -14.96481,-0.74622 -18.36391,0.17623 -26.07805,0.4276 -38.36319,1.25007 -3.27189,0.21906 -10.07643,0.90919 -16.62918,1.68659 -1.02096,0.12111 -2.55239,0.29465 -3.40318,0.38561 -3.10014,0.33148 -4.18923,0.5089 -3.86727,0.63003 0.55979,0.21058 17.16619,0.15818 25.29184,-0.0798 z m 61.33467,-24.33987 c 1.53144,-0.17682 4.35067,-0.46507 6.26496,-0.64055 1.91429,-0.17549 4.17663,-0.3898 5.02743,-0.47626 2.83702,-0.28827 9.95891,-0.45371 19.61715,-0.45569 10.70748,-0.003 10.46131,0.0242 10.46773,-1.11988 0.003,-0.67031 -0.5132,-0.88821 -2.49464,-1.05151 -7.16476,-0.59048 -18.87566,-0.23238 -28.3637,0.86728 -6.93856,0.80419 -15.35489,2.47484 -16.08778,3.19346 -0.21621,0.212 2.15891,0.0769 5.56885,-0.31685 z M -150,-33.00009 c 1.53828,-0.29118 3.95243,-0.44063 11.44708,-0.70868 1.31873,-0.0472 3.26783,-0.11976 4.33132,-0.16134 1.0635,-0.0416 4.09155,-0.14526 6.72904,-0.23043 4.41023,-0.14241 9.33558,-0.32571 14.61822,-0.54401 3.12589,-0.12917 13.69084,-0.69385 18.79485,-1.00455 12.81682,-0.7802 20.00685,-1.40324 24.13167,-2.09111 6.10237,-1.01764 9.75381,-2.52191 11.91272,-4.90759 0.9872,-1.09088 1.056,-1.46738 0.34647,-1.89649 -2.39057,-1.44583 -12.5781,-4.73164 -20.30308,-6.54842 -5.40356,-1.27082 -13.90828,-2.59961 -19.87769,-3.10573 -13.47068,-1.14211 -27.60719,-0.18143 -37.45441,2.54528 -8.4641,2.34373 -19.00715,7.36299 -27.63244,13.15508 -4.41159,2.96249 -6.93118,4.9081 -6.74536,5.20875 0.0699,0.11317 1.43862,0.1264 4.44848,0.0432 5.82573,-0.1612 5.89793,-0.15862 8.29208,0.29473 2.44924,0.46378 4.32314,0.4507 6.96105,-0.0486 z m 2.25463,-1.75472 c -0.0395,-0.19143 -0.10036,-0.84286 -0.13541,-1.44763 -0.14775,-2.54651 -1.56949,-3.51701 -5.44506,-3.71687 l -1.70159,-0.0878 -0.74088,0.49842 c -0.71803,0.48304 -1.90889,1.77081 -2.8314,3.06184 -0.24732,0.34609 -0.58888,0.67011 -0.75904,0.72005 -0.61529,0.18054 -5.2228,0.41305 -5.3651,0.27073 -0.22038,-0.22038 5.26777,-3.75715 9.46439,-6.09921 7.21064,-4.02413 14.71512,-7.2402 20.49646,-8.78382 4.4564,-1.18987 11.18898,-2.1845 17.32529,-2.55952 0.8508,-0.052 1.92977,-0.13099 2.3977,-0.17552 1.59263,-0.1516 12.13434,-0.0852 14.46353,0.0911 9.54063,0.72208 20.74767,2.71887 29.62317,5.27804 5.14773,1.48431 11.44708,3.61483 11.44708,3.87156 0,0.25294 -1.17139,1.26457 -2.08383,1.79964 -4.32895,2.53856 -12.03737,3.67972 -32.72146,4.84408 -1.57398,0.0886 -4.01034,0.22598 -5.41417,0.30527 -2.34393,0.13237 -3.84225,0.20737 -7.88918,0.39495 -0.80827,0.0375 -2.06125,0.10534 -2.78443,0.15091 -0.72318,0.0455 -4.65619,0.22134 -8.74,0.39064 -4.08382,0.16929 -8.99137,0.37571 -10.90566,0.45868 -7.62659,0.33053 -10.70356,0.46017 -13.07133,0.55065 -1.36127,0.052 -2.88092,0.19298 -3.377,0.31323 -1.16198,0.28165 -1.1676,0.28107 -1.25208,-0.12943 z"
       id="path1494"
       inkscape:connector-curvature="0"
       sodipodi:nodetypes="cscccsccsccccccccccccccccccccsccsccccccccscccccccccccccccccccccccsccsccccccccccsccccccsccccccccccccccscccccsccsccccccccscccscccccccccccccccccccccsccccscsccccccccccccccccccccscscscccccccscsscsccccccccccscccccccccccccccccccccscccccsccccccccscccscsccsccccccscccscccsccccccccsccccccsccccsccscscccccscccsccscssccccccccccccccccccsccccccccccccccscccccccccsccccccccsccssccccsccssccscssccccccccccccssccccssccsccccccccc" />
    <path
       style="fill:#000000;stroke-width:0.99999994"
       d="M -106.4082 24.476562 C -110.1385 24.632124 -113.86914 24.823783 -117.58637 25.179985 C -121.07217 25.513479 -124.54917 25.986901 -127.97152 26.736662 C -129.94015 27.159481 -131.88166 27.697312 -133.80942 28.276533 C -137.65646 29.43583 -141.44844 30.774182 -145.18149 32.25939 C -148.33402 33.510684 -151.43734 34.880702 -154.53718 36.256068 C -159.16425 38.308381 -163.77894 40.388604 -168.41253 42.42618 C -169.2629 42.791746 -170.10322 43.181239 -170.96094 43.529297 C -171.92887 43.893815 -172.94003 44.121281 -173.95305 44.319032 C -175.94098 44.725793 -177.94611 45.040663 -179.94339 45.396917 C -186.00452 46.447736 -192.06863 47.482418 -198.1203 48.586672 C -201.41135 49.210731 -204.68113 49.957498 -207.90011 50.886283 C -210.93435 51.796547 -213.79021 53.219567 -216.49523 54.853655 C -218.08588 55.825954 -219.65057 56.842427 -221.16995 57.923014 C -221.69632 58.305137 -222.22213 58.690763 -222.71559 59.114524 C -223.08348 59.465679 -223.32139 59.987444 -223.23174 60.501275 C -223.1576 61.277909 -223.04646 62.050469 -222.96809 62.826748 C -222.73245 64.913335 -222.57128 67.0137 -222.63318 69.114748 C -222.63068 69.770989 -222.39144 70.403595 -222.04867 70.955626 C -221.67626 71.616698 -221.25164 72.246747 -220.87305 72.904297 C -220.7432 73.415436 -221.03726 73.89476 -221.24219 74.341797 C -221.54814 74.988539 -221.85306 75.635827 -222.14062 76.291016 C -222.27664 77.066586 -221.86043 77.841141 -221.28053 78.332874 C -220.62111 78.880107 -219.82142 79.214026 -219.04773 79.563701 C -217.1501 80.371883 -215.16585 80.948994 -213.18932 81.527561 C -211.26813 82.074134 -209.33304 82.569938 -207.39844 83.066406 C -207.1142 83.123189 -206.73551 83.061704 -206.61133 82.763672 C -206.43771 82.270877 -206.59666 81.751011 -206.60779 81.246743 C -206.85043 78.471254 -207.12976 75.694526 -207.1582 72.90625 C -207.0211 69.966259 -206.2748 67.044056 -204.89646 64.438428 C -203.75352 62.226379 -202.08005 60.298852 -200.07498 58.825976 C -197.9013 57.204451 -195.38788 56.04006 -192.74532 55.430622 C -189.78565 54.74472 -186.65278 54.802755 -183.72774 55.630929 C -179.91865 56.700349 -176.44642 59.00035 -174.05613 62.162742 C -172.21386 64.579988 -170.97599 67.470377 -170.5866 70.489764 C -170.32046 72.516503 -170.40659 74.56815 -170.52783 76.602387 C -170.62766 78.091859 -170.76219 79.578695 -170.88477 81.066406 C -170.96377 81.373187 -170.84901 81.758654 -170.53665 81.884571 C -170.25152 82.023041 -169.92716 81.926385 -169.62397 81.952691 C -155.93575 81.889197 -142.24747 81.835147 -128.5593 81.760715 C -111.98104 81.666433 -95.402784 81.568674 -78.824617 81.458322 C -75.746359 81.433803 -72.668101 81.409284 -69.589844 81.384766 C -69.03528 81.477933 -68.435549 81.007637 -68.457031 80.431641 C -68.422674 79.814472 -68.553458 79.204523 -68.574722 78.58917 C -68.773748 76.291299 -69.012558 73.972045 -68.732847 71.670092 C -68.335235 68.571587 -67.193144 65.587551 -65.522709 62.954537 C -64.200569 60.9174 -62.449547 59.145146 -60.366998 57.885557 C -57.694845 56.232057 -54.600922 55.308908 -51.474369 55.083953 C -48.508795 54.876451 -45.48027 55.279253 -42.720703 56.40625 C -40.635099 57.256518 -38.730993 58.542764 -37.158461 60.154667 C -35.091574 62.257883 -33.534662 64.847568 -32.584625 67.635832 C -31.947029 69.531527 -31.668173 71.543322 -31.743697 73.541096 C -31.756181 74.497129 -31.804234 75.452243 -31.820312 76.408203 C -31.777729 76.75547 -31.324475 76.963013 -31.03125 76.775391 C -29.220804 76.010651 -27.516165 74.985638 -26.021484 73.707031 C -24.978037 72.239456 -24.330016 70.546301 -23.634743 68.898308 C -23.244828 67.907355 -22.86176 66.913759 -22.484375 65.917969 C -22.481017 64.199702 -22.969598 62.53746 -23.311435 60.867599 C -23.820199 58.469786 -24.400609 56.059324 -24.412109 53.59421 C -24.428591 51.628151 -24.248181 49.667731 -24.205078 47.703125 C -24.244052 47.249994 -24.638877 46.959446 -24.940544 46.667194 C -25.193803 46.438098 -25.465795 46.23112 -25.730469 46.015625 C -25.994785 45.615803 -26.164132 45.100839 -26.003906 44.628906 C -25.955952 44.358163 -25.898249 44.088627 -25.873047 43.814453 C -26.13632 43.245781 -26.736566 42.952762 -27.291282 42.73666 C -34.850653 39.857459 -42.398701 36.948631 -49.954129 34.059145 C -54.646778 32.280741 -59.381801 30.595541 -64.224438 29.268711 C -67.398471 28.400931 -70.61069 27.675634 -73.844114 27.066585 C -78.90764 26.111883 -84.021974 25.431631 -89.155714 24.993954 C -92.30628 24.723254 -95.465958 24.561084 -98.627723 24.50938 C -101.22098 24.468191 -103.8147 24.475229 -106.4082 24.476562 z M -98.714844 25.792969 C -96.580648 25.869616 -94.448689 26.0053 -92.318591 26.157346 C -89.672804 26.344226 -87.030122 26.583393 -84.399335 26.92367 C -78.49817 27.668231 -72.637274 28.754581 -66.877039 30.24077 C -64.069372 30.968214 -61.286893 31.791267 -58.525313 32.677064 C -56.046717 33.479403 -53.586248 34.344235 -51.179688 35.34375 C -50.749856 35.525607 -50.321499 35.712476 -49.896484 35.904297 C -49.563775 36.071769 -49.482068 36.527457 -49.669645 36.831524 C -49.820492 37.064436 -50.035721 37.249411 -50.219588 37.456309 C -51.643303 38.948395 -53.434962 40.063597 -55.362295 40.782498 C -56.372411 41.157687 -57.416396 41.433354 -58.46162 41.691175 C -60.788056 42.245333 -63.16038 42.573693 -65.530317 42.876452 C -71.13304 43.562558 -76.76843 43.922258 -82.398778 44.293244 C -86.754158 44.573108 -91.111342 44.825264 -95.469601 45.055938 C -105.48014 45.570548 -115.49334 46.031321 -125.50562 46.510446 C -130.61425 46.753344 -135.72277 46.999852 -140.82999 47.270844 C -142.63812 47.37124 -144.44577 47.492738 -146.25597 47.546015 C -147.29265 47.547345 -148.32548 47.44068 -149.35837 47.364439 C -151.42171 47.192863 -153.48991 47.008809 -155.56259 47.069048 C -157.35748 47.093558 -159.15237 47.118068 -160.94727 47.142578 C -161.18819 47.231083 -161.60056 47.101187 -161.54003 46.788056 C -161.46195 46.43518 -161.10908 46.258869 -160.852 46.047528 C -158.16439 43.997927 -155.35333 42.11623 -152.5049 40.298949 C -146.94025 36.779134 -141.04219 33.787156 -134.91572 31.374578 C -132.2267 30.321114 -129.49531 29.365829 -126.70257 28.624632 C -124.6258 28.069211 -122.51826 27.634609 -120.39711 27.28731 C -116.89797 26.706414 -113.36694 26.331108 -109.82809 26.100633 C -106.12898 25.863117 -102.42107 25.783703 -98.714844 25.792969 z M -108.23438 27.464844 C -111.67982 27.73734 -115.12389 28.051119 -118.548 28.526389 C -121.5264 28.938545 -124.49035 29.485204 -127.39075 30.284635 C -129.47098 30.846069 -131.50928 31.55298 -133.51116 32.347996 C -137.14994 33.76543 -140.71513 35.372814 -144.17953 37.175439 C -146.9607 38.615091 -149.67635 40.178488 -152.34482 41.816895 C -153.72732 42.661486 -155.1014 43.519737 -156.47852 44.373047 C -156.70578 44.567614 -156.47719 45.004418 -156.1875 44.927734 C -154.81584 44.842604 -153.44508 44.742866 -152.07617 44.621094 C -151.31512 44.40059 -150.78898 43.770418 -150.25153 43.228905 C -149.42184 42.365469 -148.57977 41.514027 -147.72656 40.673828 C -146.92028 40.348075 -146.03249 40.460937 -145.18945 40.525391 C -144.09444 40.659901 -143.00976 40.874229 -141.94531 41.164062 C -140.89175 41.783918 -140.22503 42.958108 -140.13281 44.166016 C -140.07813 44.597005 -140.02344 45.027995 -139.96875 45.458984 C -139.79343 45.78361 -139.37631 45.844921 -139.04297 45.798828 C -135.81028 45.570631 -132.57631 45.360275 -129.34038 45.183455 C -125.8138 44.990186 -122.28542 44.831604 -118.75804 44.653785 C -108.60779 44.154484 -98.457379 43.657718 -88.307215 43.156832 C -82.787753 42.772833 -77.266557 42.411127 -71.750692 41.977691 C -69.171094 41.729747 -66.596604 41.42595 -64.03125 41.058594 C -61.681454 40.701794 -59.336018 40.264875 -57.062092 39.563263 C -55.645825 39.110855 -54.271358 38.494019 -53.056362 37.629738 C -52.715258 37.402299 -52.375877 37.172307 -52.037109 36.941406 C -51.805505 36.723428 -51.94859 36.274471 -52.259766 36.222656 C -56.93458 34.723427 -61.593022 33.158334 -66.348767 31.929613 C -68.456488 31.382114 -70.582418 30.906953 -72.712327 30.454435 C -76.42504 29.673385 -80.16604 29.030766 -83.921373 28.492624 C -86.967447 28.053583 -90.029181 27.716795 -93.100803 27.521068 C -94.942577 27.399922 -96.787922 27.343768 -98.63347 27.329504 C -101.09599 27.296433 -103.55879 27.297449 -106.02148 27.294922 C -106.75911 27.351562 -107.49674 27.408203 -108.23438 27.464844 z M -34.591797 43.767578 C -32.531623 43.841442 -30.476619 44.010923 -28.421875 44.171875 C -28.03625 44.224337 -27.643718 44.401483 -27.429688 44.740234 C -27.325445 45.001197 -27.359463 45.31387 -27.523438 45.542969 C -28.231152 45.921517 -29.05774 45.881515 -29.835466 45.919015 C -37.22538 46.082613 -44.615788 46.226981 -52.004883 46.425138 C -54.391795 46.490489 -56.77487 46.647043 -59.155524 46.826986 C -63.830782 47.196615 -68.501435 47.621677 -73.173828 48.025391 C -73.37738 48.217648 -73.773974 47.971066 -73.675781 47.703125 C -73.374011 47.416579 -72.932053 47.443938 -72.556641 47.333984 C -69.12813 46.666406 -65.697854 45.999463 -62.241035 45.493062 C -58.928496 45.015965 -55.600797 44.642983 -52.264123 44.382858 C -47.606016 44.010687 -42.934035 43.830722 -38.26179 43.781368 C -37.038544 43.765717 -35.815123 43.767776 -34.591797 43.767578 z M -189.49414 56.78125 C -192.59059 56.919802 -195.62655 57.968808 -198.19284 59.697606 C -200.49284 61.254043 -202.38362 63.405548 -203.64361 65.879637 C -204.71101 67.960594 -205.34326 70.265785 -205.4652 72.602396 C -205.66722 76.506282 -204.44303 80.483188 -202.01758 83.556641 C -200.22998 85.800473 -197.90292 87.62052 -195.26983 88.76677 C -193.48263 89.555976 -191.5376 89.965451 -189.58693 90.017989 C -187.11809 90.098556 -184.62111 89.702975 -182.33065 88.765845 C -179.95116 87.771235 -177.83615 86.182288 -176.16172 84.22593 C -174.68886 82.499726 -173.5714 80.472786 -172.89434 78.307084 C -172.19239 76.051467 -171.994 73.64378 -172.30175 71.302216 C -172.6222 68.78685 -173.5269 66.344666 -174.94968 64.243701 C -176.48789 61.944979 -178.60064 60.026148 -181.0625 58.759035 C -183.45405 57.502014 -186.14315 56.823461 -188.84384 56.780798 C -189.06052 56.773684 -189.27739 56.781442 -189.49414 56.78125 z M -50.613281 56.894531 C -52.431892 57.018107 -54.277582 57.215491 -55.985832 57.890961 C -58.700806 58.993148 -61.194303 60.701632 -63.080631 62.955671 C -64.360912 64.473006 -65.343268 66.2353 -65.98264 68.113827 C -67.033043 71.17672 -67.163033 74.549559 -66.33671 77.681441 C -65.571327 80.624583 -63.996519 83.36029 -61.795713 85.463872 C -59.187896 87.983438 -55.743902 89.638574 -52.134538 90.035092 C -48.995384 90.401306 -45.756524 89.844849 -42.917405 88.457044 C -40.825925 87.438966 -38.948507 85.977796 -37.466721 84.183051 C -35.719636 82.100406 -34.474433 79.583312 -33.957031 76.910156 C -33.579222 74.915801 -33.61044 72.863638 -33.856475 70.855277 C -33.990765 69.751054 -34.24257 68.660237 -34.637634 67.619472 C -35.418861 65.530309 -36.667173 63.628828 -38.200138 62.014522 C -40.664989 59.433881 -43.977699 57.655952 -47.511126 57.112577 C -48.535487 56.94318 -49.575561 56.878584 -50.613281 56.894531 z M -186.95508 60.146484 C -184.49504 60.550655 -182.14462 61.607257 -180.21772 63.190314 C -178.64153 64.471151 -177.37305 66.116916 -176.51023 67.954346 C -175.8019 69.464902 -175.3806 71.10327 -175.23488 72.765045 C -175.08762 74.521717 -175.29164 76.322815 -175.94964 77.965198 C -176.80046 80.111433 -178.27653 81.963668 -180.00753 83.470813 C -181.71152 84.949868 -183.78322 86.021474 -186.00107 86.465406 C -188.44992 86.975615 -191.04473 86.839857 -193.4043 85.994141 C -195.38763 85.271781 -197.16143 84.030965 -198.61133 82.505859 C -200.27823 80.725859 -201.4268 78.473252 -201.91602 76.085938 C -202.3152 74.111796 -202.26338 72.048319 -201.75507 70.098909 C -201.08085 67.503663 -199.61409 65.112823 -197.56903 63.373192 C -195.59329 61.66673 -193.11886 60.516938 -190.51801 60.217339 C -189.48942 60.090747 -188.44976 60.060375 -187.41501 60.081033 C -187.2617 60.10285 -187.10839 60.124667 -186.95508 60.146484 z M -49.587891 60.130859 C -47.275894 60.361227 -44.982484 61.048183 -43.021966 62.315224 C -39.934143 64.302106 -37.686285 67.587581 -37.054279 71.214479 C -36.390484 74.981892 -37.425592 79.030675 -39.87893 81.975452 C -42.096236 84.656371 -45.362921 86.472921 -48.832031 86.837891 C -52.469767 87.219592 -56.258121 86.018676 -58.974151 83.560153 C -60.17847 82.489044 -61.208107 81.218945 -61.979502 79.802496 C -63.100598 77.771057 -63.651138 75.433741 -63.56981 73.115667 C -63.475248 70.115128 -62.372922 67.137225 -60.408689 64.856913 C -58.726982 62.88421 -56.452176 61.437934 -53.972496 60.695045 C -52.554655 60.270891 -51.066279 60.089158 -49.587891 60.130859 z M -191.10156 61.078125 C -191.32424 61.10563 -191.55915 61.308108 -191.50195 61.550781 C -191.4431 62.032098 -191.14129 62.430022 -190.94465 62.860711 C -190.39731 63.898587 -189.75858 64.884488 -189.11328 65.863281 C -189.07915 66.125847 -188.68792 66.261436 -188.51562 66.046875 C -188.10205 65.056578 -187.55795 64.129362 -187.03711 63.193359 C -186.46244 62.501868 -185.5528 62.12785 -184.66016 62.15625 C -184.36723 62.165292 -184.27566 61.663501 -184.56836 61.585938 C -186.71422 61.139332 -188.91622 61.061462 -191.10156 61.078125 z M -193.26562 61.658203 C -194.54701 62.378477 -195.83048 63.098131 -197.06055 63.904297 C -197.36325 64.181135 -197.26575 64.740745 -196.89355 64.907982 C -195.76553 65.682299 -194.59253 66.391503 -193.37891 67.023438 C -193.2519 66.650388 -193.48048 66.286567 -193.53398 65.922024 C -193.70755 65.272886 -193.88112 64.623748 -194.05469 63.974609 C -194.05238 63.189291 -193.68106 62.417334 -193.07812 61.916016 C -192.96637 61.798711 -193.13341 61.619316 -193.26562 61.658203 z M -182.92773 62.375 C -183.40026 62.83504 -183.55695 63.5057 -183.6802 64.129977 C -183.81537 65.082327 -183.86061 66.044082 -183.9082 67.003906 C -183.60585 66.973016 -183.39628 66.724176 -183.13004 66.604637 C -182.50639 66.244052 -181.88453 65.87978 -181.25977 65.521484 C -180.71533 65.41365 -180.13866 65.423838 -179.60938 65.601562 C -179.49015 65.705817 -179.30372 65.797145 -179.1543 65.701172 C -179.05245 65.512365 -179.23686 65.326315 -179.36536 65.209101 C -180.43817 64.192895 -181.56803 63.23327 -182.7832 62.390625 C -182.82777 62.367925 -182.87934 62.36228 -182.92773 62.375 z M -198.07617 65.001953 C -199.60001 66.856645 -200.65522 69.078608 -201.20898 71.410156 C -201.25152 71.837924 -200.82327 72.21607 -200.40625 72.166016 C -198.97462 72.220239 -197.59263 71.781551 -196.20468 71.49955 C -195.80768 71.413762 -195.41067 71.327975 -195.01367 71.242188 C -195.92521 70.143726 -196.84285 69.050279 -197.74414 67.943359 C -198.13166 67.317743 -198.0915 66.549684 -198.03125 65.845703 C -198.01257 65.572619 -197.96269 65.299765 -197.98828 65.025391 C -198.01136 65.005259 -198.04564 64.990722 -198.07617 65.001953 z M -178.14453 67.287109 C -178.80953 67.835489 -179.41581 68.446393 -180.01172 69.072266 C -180.5251 69.624813 -181.00155 70.213768 -181.4082 70.849609 C -181.19422 70.827375 -180.98226 70.876521 -180.76758 70.878906 C -179.80553 70.973238 -178.86915 71.24843 -177.98438 71.630859 C -177.50744 71.909308 -177.12263 72.32173 -176.80664 72.771484 C -176.92642 71.403045 -176.9941 70.006126 -177.49257 68.712171 C -177.64753 68.278479 -177.79494 67.842214 -177.9375 67.404297 C -177.99342 67.343025 -178.04739 67.241923 -178.14453 67.287109 z M -80.787109 68.384766 C -80.022786 68.435547 -79.258464 68.486328 -78.494141 68.537109 C -78.219219 68.588357 -78.175255 69.056055 -78.453125 69.136719 C -82.931736 69.712893 -87.440589 70.006079 -91.948512 70.234566 C -98.332361 70.573953 -104.71709 70.898908 -111.10404 71.174486 C -116.18892 71.393083 -121.27507 71.583202 -126.36243 71.733886 C -131.04314 71.871539 -135.72505 71.967776 -140.4075 72.019495 C -144.88674 72.071811 -149.36628 72.089122 -153.8457 72.119141 C -153.94226 72.345197 -154.31921 72.175544 -154.27344 71.960938 C -154.12979 71.758939 -153.83314 71.772072 -153.6084 71.758496 C -153.22701 71.742699 -152.84948 71.675606 -152.46879 71.644261 C -146.65932 71.026278 -140.85202 70.385325 -135.0358 69.833379 C -130.57596 69.422844 -126.10425 69.154747 -121.6308 68.946286 C -117.34554 68.751784 -113.05774 68.613325 -108.76919 68.51686 C -103.07775 68.390345 -97.385222 68.319764 -91.692556 68.28028 C -88.805744 68.255983 -85.918578 68.236867 -83.031806 68.243277 C -82.283574 68.29044 -81.535342 68.337603 -80.787109 68.384766 z M -201.24414 73.546875 C -201.47402 74.031581 -201.31624 74.577208 -201.21875 75.074219 C -200.9571 76.247028 -200.64668 77.408182 -200.32031 78.564453 C -199.92052 78.782272 -199.43042 78.588703 -199.12695 78.292969 C -198.28654 77.518068 -197.52383 76.660977 -196.83398 75.75 C -197.74023 75.550781 -198.64648 75.351562 -199.55273 75.152344 C -200.14553 74.792007 -200.75355 74.353822 -201.02148 73.6875 C -201.07097 73.614467 -201.14322 73.522514 -201.24414 73.546875 z M -178.11328 76.554688 C -178.40169 76.643229 -178.6901 76.731771 -178.97852 76.820312 C -178.67763 77.279784 -178.3483 77.750486 -178.26702 78.307019 C -178.19611 78.600718 -178.16594 78.902167 -178.14648 79.203125 C -178.21745 79.47526 -178.28841 79.747396 -178.35938 80.019531 C -178.01345 78.765728 -177.67175 77.510608 -177.29492 76.265625 C -177.56771 76.361979 -177.84049 76.458333 -178.11328 76.554688 z M -192.99023 78.890625 C -194.28289 79.346496 -195.57342 79.808518 -196.87109 80.25 C -197.60158 80.396526 -198.3488 80.186425 -199.00977 79.878906 C -199.2505 79.762575 -199.52204 80.079953 -199.37695 80.302734 C -199.16526 80.617654 -198.8783 80.870689 -198.63194 81.15732 C -197.44151 82.450121 -196.15092 83.674848 -194.64648 84.597656 C -194.38623 84.835423 -193.91298 84.737366 -193.76562 84.417969 C -193.38532 83.83474 -193.22221 83.145448 -193.07467 82.474097 C -192.85285 81.349596 -192.8177 80.200515 -192.76953 79.058594 C -192.77859 78.957988 -192.88101 78.838918 -192.99023 78.890625 z M -189.06055 81.386719 C -189.60595 82.413957 -190.06054 83.490514 -190.68164 84.476562 C -191.06298 84.825028 -191.55276 85.015535 -192.03125 85.189453 C -192.33983 85.108948 -192.25635 85.736578 -191.97656 85.578125 C -190.93036 85.734695 -189.88108 85.879936 -188.8238 85.934604 C -188.42485 85.962913 -188.0259 85.991222 -187.62695 86.019531 C -187.28209 85.958124 -187.06614 85.539166 -187.20703 85.220703 C -187.56807 83.86655 -188.28287 82.648137 -188.95312 81.429688 C -188.97589 81.396446 -189.02006 81.372633 -189.06055 81.386719 z "
       id="path1494-2"
       inkscape:connector-curvature="0"
       sodipodi:nodetypes="cscccsccsccccccccccccscsccccccccccccccccccccscscscccccccscsscsccccccccccscccccccccccccccccccccscccccsccccccccscccscsccsccccccscccscccsccccccccscccccccccccsccscscccccscccsccscssccccccccccccccccccsccccccccccccccscccccccccscccccccccccsscccccccssccscssccccccccccccssccccssccscccccccccc" />
  </g>
</svg>
