<?xml version="1.0" encoding="UTF-8" standalone="no"?>
<!-- Created with Inkscape (http://www.inkscape.org/) -->

<svg
   xmlns:dc="http://purl.org/dc/elements/1.1/"
   xmlns:cc="http://creativecommons.org/ns#"
   xmlns:rdf="http://www.w3.org/1999/02/22-rdf-syntax-ns#"
   xmlns:svg="http://www.w3.org/2000/svg"
   xmlns="http://www.w3.org/2000/svg"
   xmlns:sodipodi="http://sodipodi.sourceforge.net/DTD/sodipodi-0.dtd"
   xmlns:inkscape="http://www.inkscape.org/namespaces/inkscape"
   width="210mm"
   height="297mm"
   viewBox="0 0 210 297"
   version="1.1"
   id="svg1178"
   inkscape:version="0.92.4 (5da689c313, 2019-01-14)"
   sodipodi:docname="TeslaExclusiveParking.svg">
  <defs
     id="defs1172" />
  <sodipodi:namedview
     id="base"
     pagecolor="#ffffff"
     bordercolor="#666666"
     borderopacity="1.0"
     inkscape:pageopacity="0.0"
     inkscape:pageshadow="2"
     inkscape:zoom="0.9899495"
     inkscape:cx="287.90271"
     inkscape:cy="358.88328"
     inkscape:document-units="mm"
     inkscape:current-layer="text2822-22-5-9-0-5-8"
     showgrid="true"
     inkscape:window-width="1920"
     inkscape:window-height="1137"
     inkscape:window-x="-8"
     inkscape:window-y="-8"
     inkscape:window-maximized="1">
    <inkscape:grid
       type="xygrid"
       id="grid1839"
       empspacing="5" />
  </sodipodi:namedview>
  <metadata
     id="metadata1175">
    <rdf:RDF>
      <cc:Work
         rdf:about="">
        <dc:format>image/svg+xml</dc:format>
        <dc:type
           rdf:resource="http://purl.org/dc/dcmitype/StillImage" />
        <dc:title></dc:title>
      </cc:Work>
    </rdf:RDF>
  </metadata>
  <g
     inkscape:label="Ebene 1"
     inkscape:groupmode="layer"
     id="layer1">
    <path
       inkscape:connector-curvature="0"
       style="opacity:1;fill:none;fill-opacity:1;stroke:#000000;stroke-width:0.40000001;stroke-linejoin:round;stroke-miterlimit:4;stroke-dasharray:none;stroke-opacity:1;paint-order:markers fill stroke"
       d="M 237.5863,7.17798 V -212.42203 H 537.18626 V 7.17798 Z"
       id="rect867-2-4-6" />
    <path
       style="color:#000000;font-style:normal;font-variant:normal;font-weight:normal;font-stretch:normal;font-size:medium;line-height:normal;font-family:sans-serif;font-variant-ligatures:normal;font-variant-position:normal;font-variant-caps:normal;font-variant-numeric:normal;font-variant-alternates:normal;font-feature-settings:normal;text-indent:0;text-align:start;text-decoration:none;text-decoration-line:none;text-decoration-style:solid;text-decoration-color:#000000;letter-spacing:normal;word-spacing:normal;text-transform:none;writing-mode:lr-tb;direction:ltr;text-orientation:mixed;dominant-baseline:auto;baseline-shift:baseline;text-anchor:start;white-space:normal;shape-padding:0;clip-rule:nonzero;display:inline;overflow:visible;visibility:visible;opacity:1;isolation:auto;mix-blend-mode:normal;color-interpolation:sRGB;color-interpolation-filters:linearRGB;solid-color:#000000;solid-opacity:1;vector-effect:none;fill:#000000;fill-opacity:1;fill-rule:nonzero;stroke:none;stroke-width:7;stroke-linecap:butt;stroke-linejoin:round;stroke-miterlimit:4;stroke-dasharray:none;stroke-dashoffset:0;stroke-opacity:1;paint-order:markers fill stroke;color-rendering:auto;image-rendering:auto;shape-rendering:auto;text-rendering:auto;enable-background:accumulate"
       d="m 247.5863,-39.58277 c 0,19.29457 15.6196,34.93523 34.8881,34.93523 h 209.84586 c 19.26859,0 34.88811,-15.64065 34.88811,-34.93523 v -126.0785 c 0,-19.29457 -15.61952,-34.93522 -34.88811,-34.93522 H 282.4744 c -19.2685,0 -34.8881,15.64065 -34.8881,34.93522 z m 6.8201,0 v -126.0785 c 0,-15.62928 12.4598,-28.10595 28.068,-28.10595 h 209.84586 c 15.60821,0 28.068,12.47667 28.068,28.10595 v 126.0785 c 0,15.62928 -12.45979,28.10596 -28.068,28.10596 H 282.4744 c -15.6082,0 -28.068,-12.47668 -28.068,-28.10596 z"
       id="rect875-4-8-1"
       inkscape:connector-curvature="0" />
    <path
       inkscape:connector-curvature="0"
       style="opacity:1;fill:none;fill-opacity:1;stroke:#000000;stroke-width:0.2;stroke-linejoin:round;stroke-miterlimit:4;stroke-dasharray:none;stroke-opacity:1;paint-order:markers fill stroke"
       d="m 505.37797,-27.70833 a 2.5,2.5 0 0 1 2.49999,2.49998 2.5,2.5 0 0 1 -2.49999,2.5 2.5,2.5 0 0 1 -2.5,-2.5 2.5,2.5 0 0 1 2.5,-2.49998 z"
       id="path879-1-8-0" />
    <path
       inkscape:connector-curvature="0"
       style="opacity:1;fill:none;fill-opacity:1;stroke:#000000;stroke-width:0.2;stroke-linejoin:round;stroke-miterlimit:4;stroke-dasharray:none;stroke-opacity:1;paint-order:markers fill stroke"
       d="m 505.08627,-182.62202 a 2.5,2.5 0 0 1 2.5001,2.5 2.5,2.5 0 0 1 -2.5001,2.5 2.5,2.5 0 0 1 -2.49992,-2.5 2.5,2.5 0 0 1 2.49992,-2.5 z"
       id="path881-4-5-0" />
    <path
       inkscape:connector-curvature="0"
       style="opacity:1;fill:none;fill-opacity:1;stroke:#000000;stroke-width:0.2;stroke-linejoin:round;stroke-miterlimit:4;stroke-dasharray:none;stroke-opacity:1;paint-order:markers fill stroke"
       d="m 270,-183 a 2.5,2.5 0 0 1 2.5,2.5 2.5,2.5 0 0 1 -2.5,2.5 2.5,2.5 0 0 1 -2.5,-2.5 2.5,2.5 0 0 1 2.5,-2.5 z"
       id="path883-9-4-2" />
    <path
       inkscape:connector-curvature="0"
       style="opacity:1;fill:none;fill-opacity:1;stroke:#000000;stroke-width:0.2;stroke-linejoin:round;stroke-miterlimit:4;stroke-dasharray:none;stroke-opacity:1;paint-order:markers fill stroke"
       d="m 270,-28 a 2.5,2.5 0 0 1 2.5,2.5 2.5,2.5 0 0 1 -2.5,2.5 2.5,2.5 0 0 1 -2.5,-2.5 2.5,2.5 0 0 1 2.5,-2.5 z"
       id="path885-0-2-2" />
    <path
       style="fill:#000000;stroke-width:0.99999994"
       d="m 388.16074,-181.52964 c -36.16524,-0.0396 -73.37156,6.33662 -108.59472,18.71576 -4.53709,1.59454 -12.27745,4.51833 -12.46975,4.7109 -0.18781,0.18781 1.04121,2.95079 3.67759,8.2702 1.40902,2.84318 2.68857,5.2179 2.84479,5.27795 0.1557,0.0597 1.95574,-0.5879 4.00063,-1.4391 29.6806,-12.35512 60.56407,-19.1963 94.13208,-20.85135 9.68649,-0.47758 29.69003,-0.24865 39.31886,0.44982 29.97051,2.17397 60.0111,9.27019 86.45227,20.42168 2.13085,0.89868 3.94256,1.57593 4.02662,1.50542 0.62504,-0.5262 6.79305,-13.40266 6.54095,-13.65478 -0.0482,-0.0482 -1.96644,-0.79703 -4.26322,-1.664 -30.84866,-11.64457 -61.15417,-18.42771 -93.30988,-20.88476 -7.3893,-0.56464 -14.85023,-0.84951 -22.35622,-0.85774 z m -25.57444,23.27972 -2.32443,0.14322 c -26.03873,1.60265 -55.0531,8.39015 -77.37472,18.10099 -1.94825,0.84756 -3.91582,1.6956 -4.37248,1.88467 -0.45657,0.18893 -0.83015,0.42133 -0.83015,0.51772 0,0.0958 0.5902,0.95785 1.3118,1.91545 4.91127,6.51781 12.13066,12.49524 21.32662,17.65805 3.0745,1.72607 9.2114,4.64176 9.39104,4.46212 0.0535,-0.0535 0.29339,-1.05847 0.5331,-2.23318 0.59068,-2.89111 1.1557,-4.3099 2.50901,-6.29959 3.67063,-5.39667 11.26521,-7.98217 26.03117,-8.86272 4.96171,-0.29639 14.83289,-0.54577 14.83289,-0.37502 0,0.0301 2.11673,11.87148 5.27954,29.54431 h 57.15196 c 3.07743,-17.21181 5.2668,-29.41617 5.29174,-29.44352 0.18004,-0.19754 14.50864,0.17759 17.95404,0.46997 15.82308,1.3427 22.74565,4.95048 25.08855,13.07499 0.29748,1.0317 0.61209,2.40214 0.69914,3.04583 0.14395,1.06363 0.20222,1.15781 0.63494,1.03226 1.04856,-0.30399 8.73879,-4.16389 11.06195,-5.5522 8.44737,-5.0481 15.26853,-10.92688 19.61965,-16.90906 l 1.11976,-1.53935 -0.86833,-0.44294 c -1.85789,-0.94778 -8.98156,-3.88921 -13.41024,-5.53733 -18.76522,-6.98363 -39.42547,-11.74406 -59.99621,-13.82345 -4.8779,-0.49315 -10.46201,-0.85305 -10.72353,-0.69171 -0.12531,0.0775 -5.72173,6.83599 -12.43632,15.01856 -6.7146,8.18251 -12.28434,14.9615 -12.37693,15.06362 -0.0928,0.10236 -5.78342,-6.65542 -12.64585,-15.01748 z"
       id="path2190-1-9-2"
       inkscape:connector-curvature="0" />
    <g
       aria-label="TESLA"
       style="font-style:normal;font-variant:normal;font-weight:bold;font-stretch:normal;font-size:36.18276596px;line-height:1;font-family:TESLA;-inkscape-font-specification:'TESLA Bold';text-align:center;letter-spacing:0px;word-spacing:0px;text-anchor:middle;fill:#000000;fill-opacity:1;stroke:none;stroke-width:0.16952816"
       id="text2822-22-5-9-0-5"
       transform="matrix(1.560704,0,0,1.560704,553.07876,-344.02627)">
      <path
         d="M -171.61831,180.71878 V 162.6274 h -6.78427 q -1.90808,0 -3.21546,-1.30739 -1.30739,-1.34272 -1.30739,-3.21546 h 27.13708 q 0,1.90808 -1.34272,3.21546 -1.34272,1.30739 -3.18013,1.30739 h -6.78427 v 18.09138 z"
         style="font-style:normal;font-variant:normal;font-weight:bold;font-stretch:normal;line-height:1;font-family:TESLA;-inkscape-font-specification:'TESLA Bold';text-align:center;text-anchor:middle;stroke-width:0.16952816"
         id="path1828"
         inkscape:connector-curvature="0" />
      <path
         d="m -146.74266,180.71878 q -1.90808,0 -3.21546,-1.30738 -1.30739,-1.34272 -1.30739,-3.21547 h 27.13708 q 0,1.90808 -1.34272,3.21547 -1.34272,1.30738 -3.18013,1.30738 z m 0,-9.04569 q -1.90808,0 -3.21546,-1.30739 -1.30739,-1.34272 -1.30739,-3.21546 h 27.13708 q 0,1.90808 -1.34272,3.21546 -1.34272,1.30739 -3.18013,1.30739 z m 0,-9.04569 q -1.90808,0 -3.21546,-1.30739 -1.30739,-1.34272 -1.30739,-3.21546 h 27.13708 q 0,1.90808 -1.34272,3.21546 -1.34272,1.30739 -3.18013,1.30739 z"
         style="font-style:normal;font-variant:normal;font-weight:bold;font-stretch:normal;line-height:1;font-family:TESLA;-inkscape-font-specification:'TESLA Bold';text-align:center;text-anchor:middle;stroke-width:0.16952816"
         id="path1830"
         inkscape:connector-curvature="0" />
      <path
         d="m -119.60559,180.71878 q 0,-1.87274 1.30739,-3.18013 1.34272,-1.34272 3.21546,-1.34272 h 18.091381 v -4.52284 h -22.614231 v -13.56854 h 27.137076 q 0,1.90808 -1.34272,3.21546 -1.342719,1.30739 -3.180125,1.30739 h -18.091381 v 4.52284 h 22.614226 v 13.56854 z"
         style="font-style:normal;font-variant:normal;font-weight:bold;font-stretch:normal;line-height:1;font-family:TESLA;-inkscape-font-specification:'TESLA Bold';text-align:center;text-anchor:middle;stroke-width:0.16952816"
         id="path1832"
         inkscape:connector-curvature="0" />
      <path
         d="m -87.945668,180.71878 v -22.61423 h 4.522845 v 18.09138 h 22.614229 q 0,1.90808 -1.34272,3.21547 -1.34272,1.30738 -3.180126,1.30738 z"
         style="font-style:normal;font-variant:normal;font-weight:bold;font-stretch:normal;line-height:1;font-family:TESLA;-inkscape-font-specification:'TESLA Bold';text-align:center;text-anchor:middle;stroke-width:0.16952816"
         id="path1834"
         inkscape:connector-curvature="0" />
      <path
         d="m -56.285749,180.71878 v -13.56854 h 27.137075 v 13.56854 h -4.522846 v -9.04569 h -18.091383 v 9.04569 z m 4.522846,-18.09138 q -1.908076,0 -3.215461,-1.30739 -1.307385,-1.34272 -1.307385,-3.21546 h 27.137075 q 0,1.90808 -1.34272,3.21546 -1.34272,1.30739 -3.180126,1.30739 z"
         style="font-style:normal;font-variant:normal;font-weight:bold;font-stretch:normal;line-height:1;font-family:TESLA;-inkscape-font-specification:'TESLA Bold';text-align:center;text-anchor:middle;stroke-width:0.16952816"
         id="path1836"
         inkscape:connector-curvature="0" />
    </g>
    <path
       style="opacity:1;fill:#000000;fill-opacity:1;stroke:none;stroke-width:0.20000002;stroke-linejoin:round;stroke-miterlimit:4;stroke-dasharray:none;stroke-opacity:1;paint-order:markers fill stroke"
       d="m 267.5863,-57.82202 h 240 v 5 h -240 z"
       id="rect1847"
       inkscape:connector-curvature="0" />
    <g
       aria-label="EXCLUSIVE PARKING"
       transform="matrix(1.0004183,0,0,0.99958189,232.5863,-284.82202)"
       style="font-style:normal;font-variant:normal;font-weight:bold;font-stretch:normal;font-size:22.02007294px;line-height:1.25;font-family:Gotham;-inkscape-font-specification:'Gotham Bold';letter-spacing:0px;word-spacing:0px;fill:#000000;fill-opacity:1;stroke:none;stroke-width:0.26458332"
       id="text1837">
      <path
         d="m 46.898187,251.49005 v -3.01675 h -8.367628 v -3.23695 h 7.266624 v -3.01675 h -7.266624 v -3.12685 h 8.257528 V 236.076 H 35.161488 v 15.41405 z"
         style="font-style:normal;font-variant:normal;font-weight:bold;font-stretch:normal;font-family:Gotham;-inkscape-font-specification:'Gotham Bold';stroke-width:0.26458332"
         id="path1915"
         inkscape:connector-curvature="0" />
      <path
         d="m 63.499602,251.49005 -5.372898,-7.88318 5.152697,-7.53087 h -3.853512 l -3.258971,4.99856 -3.236951,-4.99856 h -3.963613 l 5.152697,7.57491 -5.372898,7.83914 h 3.853513 l 3.479171,-5.28482 3.457152,5.28482 z"
         style="font-style:normal;font-variant:normal;font-weight:bold;font-stretch:normal;font-family:Gotham;-inkscape-font-specification:'Gotham Bold';stroke-width:0.26458332"
         id="path1917"
         inkscape:connector-curvature="0" />
      <path
         d="m 79.583544,249.00178 -2.157967,-2.17998 q -0.902823,0.83676 -1.827666,1.3212 -0.902823,0.48444 -2.224028,0.48444 -0.990903,0 -1.827666,-0.37434 -0.814742,-0.39636 -1.409284,-1.05696 -0.572522,-0.66061 -0.902823,-1.54141 -0.330301,-0.8808 -0.330301,-1.8717 v -0.044 q 0,-0.99091 0.330301,-1.84969 0.330301,-0.8808 0.924843,-1.54141 0.594542,-0.6606 1.409284,-1.03494 0.836763,-0.37434 1.805646,-0.37434 1.167064,0 2.091907,0.46242 0.946864,0.46242 1.849687,1.27717 l 2.157967,-2.48827 q -0.528482,-0.52848 -1.145044,-0.96889 -0.616562,-0.4404 -1.343225,-0.74868 -0.726662,-0.30828 -1.629485,-0.48444 -0.880803,-0.17616 -1.959786,-0.17616 -1.783626,0 -3.258971,0.63858 -1.475345,0.61656 -2.532309,1.71757 -1.056963,1.07898 -1.651505,2.53231 -0.594542,1.4313 -0.594542,3.08281 v 0.044 q 0,1.6515 0.594542,3.10483 0.594542,1.45332 1.651505,2.5323 1.056964,1.05697 2.510289,1.67353 1.453324,0.61656 3.14887,0.61656 1.123024,0 2.025847,-0.19818 0.902823,-0.17616 1.651505,-0.52848 0.770703,-0.37434 1.409285,-0.8808 0.638582,-0.50646 1.233124,-1.14505 z"
         style="font-style:normal;font-variant:normal;font-weight:bold;font-stretch:normal;font-family:Gotham;-inkscape-font-specification:'Gotham Bold';stroke-width:0.26458332"
         id="path1919"
         inkscape:connector-curvature="0" />
      <path
         d="m 93.374303,251.49005 v -3.08281 H 85.689298 V 236.076 h -3.391091 v 15.41405 z"
         style="font-style:normal;font-variant:normal;font-weight:bold;font-stretch:normal;font-family:Gotham;-inkscape-font-specification:'Gotham Bold';stroke-width:0.26458332"
         id="path1921"
         inkscape:connector-curvature="0" />
      <path
         d="M 109.12175,244.77393 V 236.076 h -3.39109 v 8.83005 q 0,1.84969 -0.8808,2.77453 -0.8808,0.92484 -2.44423,0.92484 -1.56342,0 -2.444228,-0.94686 -0.880803,-0.96888 -0.880803,-2.86261 V 236.076 h -3.391091 v 8.80803 q 0,3.41311 1.783626,5.13068 1.783626,1.71756 4.888456,1.71756 1.54141,0 2.79655,-0.41838 1.25514,-0.4404 2.13595,-1.29918 0.8808,-0.88081 1.34322,-2.17999 0.48444,-1.29919 0.48444,-3.06079 z"
         style="font-style:normal;font-variant:normal;font-weight:bold;font-stretch:normal;font-family:Gotham;-inkscape-font-specification:'Gotham Bold';stroke-width:0.26458332"
         id="path1923"
         inkscape:connector-curvature="0" />
      <path
         d="m 123.71797,246.9319 v -0.044 q 0,-1.01293 -0.3303,-1.73959 -0.30829,-0.72666 -0.94687,-1.25514 -0.61656,-0.55051 -1.5414,-0.92485 -0.90283,-0.39636 -2.06989,-0.70464 -0.9909,-0.26424 -1.6515,-0.46242 -0.63859,-0.19818 -1.01293,-0.41838 -0.37434,-0.2202 -0.52848,-0.48444 -0.13212,-0.28626 -0.13212,-0.66061 v -0.044 q 0,-0.57252 0.48444,-0.94686 0.50646,-0.39636 1.49737,-0.39636 0.9909,0 1.9818,0.41838 0.99091,0.39636 2.02585,1.101 l 1.76161,-2.55432 q -1.18909,-0.94687 -2.62039,-1.45333 -1.40929,-0.50646 -3.10483,-0.50646 -1.18909,0 -2.17999,0.3303 -0.9909,0.3303 -1.71757,0.94686 -0.70464,0.61657 -1.101,1.47535 -0.39636,0.83676 -0.39636,1.89372 v 0.044 q 0,1.14504 0.35232,1.91574 0.37434,0.7707 1.03494,1.29919 0.66061,0.50646 1.60747,0.85878 0.94686,0.35232 2.11393,0.63858 0.96888,0.24222 1.56342,0.46242 0.61656,0.2202 0.94686,0.4404 0.35232,0.2202 0.46243,0.48445 0.13212,0.24222 0.13212,0.57252 v 0.044 q 0,0.68262 -0.59455,1.07898 -0.57252,0.37434 -1.62948,0.37434 -1.32121,0 -2.44423,-0.50646 -1.101,-0.50646 -2.15797,-1.36524 l -2.00382,2.40018 q 1.38726,1.25515 3.08281,1.87171 1.69554,0.59454 3.45715,0.59454 1.25514,0 2.29009,-0.30828 1.03494,-0.3303 1.78362,-0.92484 0.74868,-0.61656 1.16707,-1.49737 0.41838,-0.90282 0.41838,-2.04786 z"
         style="font-style:normal;font-variant:normal;font-weight:bold;font-stretch:normal;font-family:Gotham;-inkscape-font-specification:'Gotham Bold';stroke-width:0.26458332"
         id="path1925"
         inkscape:connector-curvature="0" />
      <path
         d="M 130.22765,251.49005 V 236.076 h -3.39109 v 15.41405 z"
         style="font-style:normal;font-variant:normal;font-weight:bold;font-stretch:normal;font-family:Gotham;-inkscape-font-specification:'Gotham Bold';stroke-width:0.26458332"
         id="path1927"
         inkscape:connector-curvature="0" />
      <path
         d="m 148.21667,236.076 h -3.65533 l -4.02967,10.8559 -4.02968,-10.8559 h -3.74341 l 6.23168,15.52415 h 2.99473 z"
         style="font-style:normal;font-variant:normal;font-weight:bold;font-stretch:normal;font-family:Gotham;-inkscape-font-specification:'Gotham Bold';stroke-width:0.26458332"
         id="path1929"
         inkscape:connector-curvature="0" />
      <path
         d="m 162.33154,251.49005 v -3.01675 h -8.36763 v -3.23695 h 7.26662 v -3.01675 h -7.26662 v -3.12685 h 8.25753 V 236.076 h -11.6266 v 15.41405 z"
         style="font-style:normal;font-variant:normal;font-weight:bold;font-stretch:normal;font-family:Gotham;-inkscape-font-specification:'Gotham Bold';stroke-width:0.26458332"
         id="path1931"
         inkscape:connector-curvature="0" />
      <path
         d="m 184.16891,241.4489 v -0.044 q 0,-1.18909 -0.41838,-2.15797 -0.39636,-0.9909 -1.16706,-1.69554 -0.74869,-0.70465 -1.84969,-1.07899 -1.07898,-0.39636 -2.46625,-0.39636 h -6.29774 v 15.41405 h 3.39109 v -4.62421 h 2.57635 q 1.29919,0 2.42221,-0.33031 1.14504,-0.35232 1.98181,-1.03494 0.85878,-0.68262 1.34322,-1.69554 0.48444,-1.01293 0.48444,-2.35615 z m -3.43513,0.0661 q 0,0.9909 -0.70464,1.67352 -0.70464,0.66061 -1.98181,0.66061 h -2.68645 v -4.7123 h 2.62039 q 1.27717,0 2.00383,0.59454 0.74868,0.59454 0.74868,1.73959 z"
         style="font-style:normal;font-variant:normal;font-weight:bold;font-stretch:normal;font-family:Gotham;-inkscape-font-specification:'Gotham Bold';stroke-width:0.26458332"
         id="path1933"
         inkscape:connector-curvature="0" />
      <path
         d="m 201.69621,251.49005 -6.60603,-15.52415 h -3.12685 l -6.60602,15.52415 h 3.45715 l 1.40929,-3.45715 h 6.51794 l 1.40928,3.45715 z m -6.16562,-6.45188 h -4.09574 l 2.04787,-4.99856 z"
         style="font-style:normal;font-variant:normal;font-weight:bold;font-stretch:normal;font-family:Gotham;-inkscape-font-specification:'Gotham Bold';stroke-width:0.26458332"
         id="path1935"
         inkscape:connector-curvature="0" />
      <path
         d="m 217.37587,251.49005 -3.76543,-5.50502 q 1.47535,-0.5505 2.37817,-1.71756 0.92484,-1.18909 0.92484,-3.06079 v -0.044 q 0,-2.40019 -1.5414,-3.74342 -1.51939,-1.34322 -4.2719,-1.34322 h -7.04642 v 15.41405 h 3.39109 v -4.9325 h 2.66443 l 3.30301,4.9325 z m -3.89755,-10.10721 q 0,0.9909 -0.68262,1.58544 -0.6606,0.59455 -1.91575,0.59455 h -3.43513 v -4.42604 h 3.36907 q 1.25515,0 1.95979,0.5505 0.70464,0.5505 0.70464,1.65151 z"
         style="font-style:normal;font-variant:normal;font-weight:bold;font-stretch:normal;font-family:Gotham;-inkscape-font-specification:'Gotham Bold';stroke-width:0.26458332"
         id="path1937"
         inkscape:connector-curvature="0" />
      <path
         d="m 233.99347,251.49005 -6.56199,-8.87409 6.27572,-6.53996 h -4.09573 l -6.2537,6.73814 V 236.076 h -3.39109 v 15.41405 h 3.39109 v -4.71229 l 1.78363,-1.84969 4.77835,6.56198 z"
         style="font-style:normal;font-variant:normal;font-weight:bold;font-stretch:normal;font-family:Gotham;-inkscape-font-specification:'Gotham Bold';stroke-width:0.26458332"
         id="path1939"
         inkscape:connector-curvature="0" />
      <path
         d="M 239.59687,251.49005 V 236.076 h -3.39109 v 15.41405 z"
         style="font-style:normal;font-variant:normal;font-weight:bold;font-stretch:normal;font-family:Gotham;-inkscape-font-specification:'Gotham Bold';stroke-width:0.26458332"
         id="path1941"
         inkscape:connector-curvature="0" />
      <path
         d="M 257.14549,251.49005 V 236.076 h -3.34705 v 9.49065 l -7.22258,-9.49065 h -3.12685 v 15.41405 h 3.34705 v -9.79893 l 7.46481,9.79893 z"
         style="font-style:normal;font-variant:normal;font-weight:bold;font-stretch:normal;font-family:Gotham;-inkscape-font-specification:'Gotham Bold';stroke-width:0.26458332"
         id="path1943"
         inkscape:connector-curvature="0" />
      <path
         d="m 274.82899,249.31006 v -6.6941 h -6.6941 v 2.92867 h 3.41311 v 2.20201 q -1.29919,0.92484 -3.19291,0.92484 -1.03495,0 -1.89373,-0.35232 -0.83676,-0.37434 -1.47534,-1.03494 -0.61657,-0.6606 -0.96889,-1.54141 -0.3303,-0.90282 -0.3303,-1.95978 v -0.044 q 0,-0.99091 0.3303,-1.84969 0.35232,-0.8808 0.94687,-1.51939 0.61656,-0.6606 1.40928,-1.03494 0.81474,-0.39636 1.73959,-0.39636 0.6606,0 1.2111,0.1101 0.5505,0.1101 1.01292,0.30828 0.48445,0.19818 0.92485,0.48444 0.4404,0.28626 0.8808,0.6606 l 2.13595,-2.57634 q -0.59454,-0.50647 -1.23313,-0.90283 -0.63858,-0.39636 -1.36524,-0.6606 -0.72666,-0.26424 -1.58545,-0.39636 -0.83676,-0.15414 -1.8717,-0.15414 -1.76161,0 -3.23695,0.63858 -1.47535,0.61656 -2.55433,1.71757 -1.07899,1.07898 -1.69555,2.53231 -0.59454,1.4313 -0.59454,3.08281 v 0.044 q 0,1.71756 0.59454,3.17089 0.59454,1.45332 1.65151,2.51028 1.07898,1.05697 2.55433,1.65151 1.49736,0.59454 3.30301,0.59454 2.11392,0 3.74341,-0.70464 1.65151,-0.72666 2.84059,-1.73959 z"
         style="font-style:normal;font-variant:normal;font-weight:bold;font-stretch:normal;font-family:Gotham;-inkscape-font-specification:'Gotham Bold';stroke-width:0.26458332"
         id="path1945"
         inkscape:connector-curvature="0" />
    </g>
    <path
       style="fill:#000000;stroke-width:0.99999988"
       d="m 160.58341,93.191938 c -36.18339,-0.03968 -73.407856,6.339102 -108.648688,18.724442 -4.539351,1.59534 -12.283837,4.52075 -12.476242,4.7134 -0.187881,0.1879 1.041162,2.95235 3.678846,8.27443 1.409726,2.8446 2.690045,5.22072 2.846334,5.28082 0.155787,0.0597 1.956964,-0.58808 4.002855,-1.43971 29.695484,-12.36131 60.594425,-19.20589 94.179285,-20.86177 9.69134,-0.47782 29.70501,-0.24925 39.33867,0.44958 29.98552,2.17506 60.04108,9.27475 86.49549,20.43183 2.13194,0.89914 3.9446,1.57687 4.02871,1.50637 0.62531,-0.52646 6.79651,-13.40947 6.54431,-13.6617 -0.0483,-0.0483 -1.968,-0.7976 -4.26591,-1.66502 -30.86414,-11.65039 -61.18423,-18.436559 -93.35605,-20.894843 -7.39299,-0.564901 -14.85789,-0.849593 -22.36761,-0.857829 z m -25.58709,23.291082 -2.32542,0.14315 c -26.0518,1.60345 -55.081094,8.39482 -77.413885,18.11052 -1.949238,0.848 -3.918056,1.69599 -4.374938,1.88515 -0.456803,0.18904 -0.830448,0.42192 -0.830448,0.51832 0,0.0959 0.590629,0.95808 1.312598,1.91616 4.913736,6.52108 12.137125,12.50122 21.337719,17.66662 3.076046,1.72694 9.215544,4.64406 9.395275,4.46433 0.05355,-0.0535 0.293979,-1.05867 0.533823,-2.23397 0.590974,-2.89256 1.156468,-4.31228 2.510446,-6.30298 3.67247,-5.39937 11.270536,-7.98617 26.04389,-8.86715 4.96419,-0.29653 14.84043,-0.54602 14.84043,-0.37518 0,0.0507 6.25438,34.9931 13.16664,73.59189 h 41.43571 c 6.96968,-39.08374 13.11148,-73.4442 13.15424,-73.49112 0.18012,-0.19763 14.51612,0.17775 17.96325,0.47026 15.831,1.34337 22.75723,4.95279 25.10131,13.08137 0.2976,1.03222 0.61259,2.40388 0.69969,3.04788 0.14401,1.06413 0.20164,1.15811 0.6346,1.03249 1.04907,-0.30413 8.74374,-4.16621 11.06805,-5.55522 8.45159,-5.05062 15.27598,-10.93213 19.62928,-16.91731 l 1.12035,-1.53996 -0.86868,-0.44338 c -1.85883,-0.94826 -8.98586,-3.89128 -13.41676,-5.54023 -18.77462,-6.98713 -39.44524,-11.74972 -60.02631,-13.83016 -4.88034,-0.4934 -10.46744,-0.85337 -10.72904,-0.69195 -0.12541,0.0775 -5.72471,6.83928 -12.44266,15.02596 -6.71796,8.18661 -12.29061,14.96924 -12.38322,15.07143 -0.0929,0.1024 -5.78659,-6.65919 -12.65245,-15.02544 z m 10.46501,135.51679 c 0.66638,3.71991 1.1384,6.35155 1.79213,10.00044 h 25.36021 c 0.62505,-3.51094 1.14546,-6.44167 1.77921,-10.00044 z"
       id="path2190-1-9-2-4"
       inkscape:connector-curvature="0" />
    <path
       inkscape:connector-curvature="0"
       style="opacity:1;fill:none;fill-opacity:1;stroke:#000000;stroke-width:0.2;stroke-linejoin:round;stroke-miterlimit:4;stroke-dasharray:none;stroke-opacity:1;paint-order:markers fill stroke"
       d="m 116.94496,102.88648 a 2.5,2.5 0 0 1 2.5,2.5 2.5,2.5 0 0 1 -2.5,2.5 2.5,2.5 0 0 1 -2.5,-2.5 2.5,2.5 0 0 1 2.5,-2.5 z"
       id="path883-9-4-2-6" />
    <path
       inkscape:connector-curvature="0"
       style="opacity:1;fill:none;fill-opacity:1;stroke:#000000;stroke-width:0.40000001;stroke-linejoin:round;stroke-miterlimit:4;stroke-dasharray:none;stroke-opacity:1;paint-order:markers fill stroke"
       d="M 10,287 V 67.399987 H 309.59996 V 287 Z"
       id="rect867-2-4-6-8" />
    <path
       style="color:#000000;font-style:normal;font-variant:normal;font-weight:normal;font-stretch:normal;font-size:medium;line-height:normal;font-family:sans-serif;font-variant-ligatures:normal;font-variant-position:normal;font-variant-caps:normal;font-variant-numeric:normal;font-variant-alternates:normal;font-feature-settings:normal;text-indent:0;text-align:start;text-decoration:none;text-decoration-line:none;text-decoration-style:solid;text-decoration-color:#000000;letter-spacing:normal;word-spacing:normal;text-transform:none;writing-mode:lr-tb;direction:ltr;text-orientation:mixed;dominant-baseline:auto;baseline-shift:baseline;text-anchor:start;white-space:normal;shape-padding:0;clip-rule:nonzero;display:inline;overflow:visible;visibility:visible;opacity:1;isolation:auto;mix-blend-mode:normal;color-interpolation:sRGB;color-interpolation-filters:linearRGB;solid-color:#000000;solid-opacity:1;vector-effect:none;fill:#000000;fill-opacity:1;fill-rule:nonzero;stroke:none;stroke-width:7;stroke-linecap:butt;stroke-linejoin:round;stroke-miterlimit:4;stroke-dasharray:none;stroke-dashoffset:0;stroke-opacity:1;paint-order:markers fill stroke;color-rendering:auto;image-rendering:auto;shape-rendering:auto;text-rendering:auto;enable-background:accumulate"
       d="m 20,240.23925 c 0,19.29457 15.6196,34.93523 34.8881,34.93523 h 209.84586 c 19.26859,0 34.88811,-15.64065 34.88811,-34.93523 v -126.0785 c 0,-19.29457 -15.61952,-34.935223 -34.88811,-34.935223 H 54.8881 C 35.6196,79.225527 20,94.86618 20,114.16075 Z m 6.8201,0 v -126.0785 c 0,-15.62928 12.4598,-28.105953 28.068,-28.105953 h 209.84586 c 15.60821,0 28.068,12.476673 28.068,28.105953 v 126.0785 c 0,15.62928 -12.45979,28.10596 -28.068,28.10596 H 54.8881 c -15.6082,0 -28.068,-12.47668 -28.068,-28.10596 z"
       id="rect875-4-8-1-1"
       inkscape:connector-curvature="0" />
    <path
       inkscape:connector-curvature="0"
       style="opacity:1;fill:none;fill-opacity:1;stroke:#000000;stroke-width:0.2;stroke-linejoin:round;stroke-miterlimit:4;stroke-dasharray:none;stroke-opacity:1;paint-order:markers fill stroke"
       d="m 277.79167,252.11369 a 2.5,2.5 0 0 1 2.49999,2.49998 2.5,2.5 0 0 1 -2.49999,2.5 2.5,2.5 0 0 1 -2.5,-2.5 2.5,2.5 0 0 1 2.5,-2.49998 z"
       id="path879-1-8-0-1" />
    <path
       inkscape:connector-curvature="0"
       style="opacity:1;fill:none;fill-opacity:1;stroke:#000000;stroke-width:0.2;stroke-linejoin:round;stroke-miterlimit:4;stroke-dasharray:none;stroke-opacity:1;paint-order:markers fill stroke"
       d="m 277.49997,97.2 a 2.5,2.5 0 0 1 2.5001,2.5 2.5,2.5 0 0 1 -2.5001,2.5 2.5,2.5 0 0 1 -2.49992,-2.5 2.5,2.5 0 0 1 2.49992,-2.5 z"
       id="path881-4-5-0-8" />
    <path
       inkscape:connector-curvature="0"
       style="opacity:1;fill:none;fill-opacity:1;stroke:#000000;stroke-width:0.2;stroke-linejoin:round;stroke-miterlimit:4;stroke-dasharray:none;stroke-opacity:1;paint-order:markers fill stroke"
       d="m 42.4137,96.82202 a 2.5,2.5 0 0 1 2.5,2.5 2.5,2.5 0 0 1 -2.5,2.5 2.5,2.5 0 0 1 -2.5,-2.5 2.5,2.5 0 0 1 2.5,-2.5 z"
       id="path883-9-4-2-62" />
    <path
       inkscape:connector-curvature="0"
       style="opacity:1;fill:none;fill-opacity:1;stroke:#000000;stroke-width:0.2;stroke-linejoin:round;stroke-miterlimit:4;stroke-dasharray:none;stroke-opacity:1;paint-order:markers fill stroke"
       d="m 42.4137,251.82202 a 2.5,2.5 0 0 1 2.5,2.5 2.5,2.5 0 0 1 -2.5,2.5 2.5,2.5 0 0 1 -2.5,-2.5 2.5,2.5 0 0 1 2.5,-2.5 z"
       id="path885-0-2-2-3" />
    <g
       aria-label="TESLA"
       style="font-style:normal;font-variant:normal;font-weight:bold;font-stretch:normal;font-size:36.18276596px;line-height:1;font-family:TESLA;-inkscape-font-specification:'TESLA Bold';text-align:center;letter-spacing:0px;word-spacing:0px;text-anchor:middle;fill:#ad0000;fill-opacity:1;stroke:none;stroke-width:0.16952816"
       id="text2822-22-5-9-0-5-8"
       transform="matrix(1.560704,0,0,1.560704,665.49247,-66.083424)">
      <path
         d="m -387.05515,176.57284 v -16.58376 h -6.21891 q -1.74907,0 -2.9475,-1.19844 -1.19844,-1.23083 -1.19844,-2.94751 h 24.87565 q 0,1.74907 -1.23083,2.94751 -1.23082,1.19844 -2.91512,1.19844 h -6.21891 v 16.58376 z"
         style="font-style:normal;font-variant:normal;font-weight:bold;font-stretch:normal;line-height:1;font-family:TESLA;-inkscape-font-specification:'TESLA Bold';text-align:center;text-anchor:middle;fill:#ad0000;fill-opacity:1;stroke-width:0.16952816"
         id="path1828-4"
         inkscape:connector-curvature="0" />
      <path
         d="m -364.25247,176.57284 q -1.74907,0 -2.9475,-1.19843 -1.19845,-1.23083 -1.19845,-2.94752 h 24.87566 q 0,1.74908 -1.23083,2.94752 -1.23083,1.19843 -2.91512,1.19843 z m 0,-8.29188 q -1.74907,0 -2.9475,-1.19844 -1.19845,-1.23083 -1.19845,-2.94751 h 24.87566 q 0,1.74908 -1.23083,2.94751 -1.23083,1.19844 -2.91512,1.19844 z m 0,-8.29188 q -1.74907,0 -2.9475,-1.19844 -1.19845,-1.23083 -1.19845,-2.94751 h 24.87566 q 0,1.74907 -1.23083,2.94751 -1.23083,1.19844 -2.91512,1.19844 z"
         style="font-style:normal;font-variant:normal;font-weight:bold;font-stretch:normal;line-height:1;font-family:TESLA;-inkscape-font-specification:'TESLA Bold';text-align:center;text-anchor:middle;fill:#ad0000;fill-opacity:1;stroke-width:0.16952816"
         id="path1830-5"
         inkscape:connector-curvature="0" />
      <path
         d="m -336.32529,176.57284 q 0,-1.71668 1.19844,-2.91512 1.23083,-1.23083 2.94751,-1.23083 h 16.58377 v -4.14593 h -20.72972 v -12.43783 h 24.87566 q 0,1.74907 -1.23083,2.94751 -1.23083,1.19844 -2.91511,1.19844 h -16.58377 v 4.14593 h 20.72971 v 12.43783 z"
         style="font-style:normal;font-variant:normal;font-weight:bold;font-stretch:normal;line-height:1;font-family:TESLA;-inkscape-font-specification:'TESLA Bold';text-align:center;text-anchor:middle;fill:#ad0000;fill-opacity:1;stroke-width:0.16952816"
         id="path1832-1"
         inkscape:connector-curvature="0" />
      <path
         d="m -304.25219,176.57284 v -20.72971 h 4.14594 v 16.58376 h 20.72971 q 0,1.74908 -1.23083,2.94752 -1.23082,1.19843 -2.91511,1.19843 z"
         style="font-style:normal;font-variant:normal;font-weight:bold;font-stretch:normal;line-height:1;font-family:TESLA;-inkscape-font-specification:'TESLA Bold';text-align:center;text-anchor:middle;fill:#ad0000;fill-opacity:1;stroke-width:0.16952816"
         id="path1834-8"
         inkscape:connector-curvature="0" />
      <path
         d="m -275.2306,176.57284 v -12.43783 h 24.87565 v 12.43783 h -4.14594 v -8.29188 h -16.58377 v 8.29188 z m 4.14594,-16.58376 q -1.74907,0 -2.9475,-1.19844 -1.19844,-1.23083 -1.19844,-2.94751 h 24.87565 q 0,1.74907 -1.23083,2.94751 -1.23082,1.19844 -2.91511,1.19844 z"
         style="font-style:normal;font-variant:normal;font-weight:bold;font-stretch:normal;line-height:1;font-family:TESLA;-inkscape-font-specification:'TESLA Bold';text-align:center;text-anchor:middle;fill:#ad0000;fill-opacity:1;stroke-width:0.16952816"
         id="path1836-33"
         inkscape:connector-curvature="0" />
    </g>
    <path
       style="opacity:1;fill:#000000;fill-opacity:1;stroke:none;stroke-width:0.20000002;stroke-linejoin:round;stroke-miterlimit:4;stroke-dasharray:none;stroke-opacity:1;paint-order:markers fill stroke"
       d="m 40,222 h 240.00001 v 5 H 40 Z"
       id="rect1847-9"
       inkscape:connector-curvature="0" />
    <g
       aria-label="EXCLUSIVE PARKING"
       transform="matrix(1.0004183,0,0,0.99958189,5,-5.0000027)"
       style="font-style:normal;font-variant:normal;font-weight:bold;font-stretch:normal;font-size:22.02007294px;line-height:1.25;font-family:Gotham;-inkscape-font-specification:'Gotham Bold';letter-spacing:0px;word-spacing:0px;fill:#000000;fill-opacity:1;stroke:none;stroke-width:0.26458332"
       id="text1837-81">
      <path
         inkscape:connector-curvature="0"
         d="m 46.898187,251.49005 v -3.01675 h -8.367628 v -3.23695 h 7.266624 v -3.01675 h -7.266624 v -3.12685 h 8.257528 V 236.076 H 35.161488 v 15.41405 z"
         style="font-style:normal;font-variant:normal;font-weight:bold;font-stretch:normal;font-family:Gotham;-inkscape-font-specification:'Gotham Bold';stroke-width:0.26458332"
         id="path1915-59" />
      <path
         inkscape:connector-curvature="0"
         d="m 63.499602,251.49005 -5.372898,-7.88318 5.152697,-7.53087 h -3.853512 l -3.258971,4.99856 -3.236951,-4.99856 h -3.963613 l 5.152697,7.57491 -5.372898,7.83914 h 3.853513 l 3.479171,-5.28482 3.457152,5.28482 z"
         style="font-style:normal;font-variant:normal;font-weight:bold;font-stretch:normal;font-family:Gotham;-inkscape-font-specification:'Gotham Bold';stroke-width:0.26458332"
         id="path1917-7" />
      <path
         inkscape:connector-curvature="0"
         d="m 79.583544,249.00178 -2.157967,-2.17998 q -0.902823,0.83676 -1.827666,1.3212 -0.902823,0.48444 -2.224028,0.48444 -0.990903,0 -1.827666,-0.37434 -0.814742,-0.39636 -1.409284,-1.05696 -0.572522,-0.66061 -0.902823,-1.54141 -0.330301,-0.8808 -0.330301,-1.8717 v -0.044 q 0,-0.99091 0.330301,-1.84969 0.330301,-0.8808 0.924843,-1.54141 0.594542,-0.6606 1.409284,-1.03494 0.836763,-0.37434 1.805646,-0.37434 1.167064,0 2.091907,0.46242 0.946864,0.46242 1.849687,1.27717 l 2.157967,-2.48827 q -0.528482,-0.52848 -1.145044,-0.96889 -0.616562,-0.4404 -1.343225,-0.74868 -0.726662,-0.30828 -1.629485,-0.48444 -0.880803,-0.17616 -1.959786,-0.17616 -1.783626,0 -3.258971,0.63858 -1.475345,0.61656 -2.532309,1.71757 -1.056963,1.07898 -1.651505,2.53231 -0.594542,1.4313 -0.594542,3.08281 v 0.044 q 0,1.6515 0.594542,3.10483 0.594542,1.45332 1.651505,2.5323 1.056964,1.05697 2.510289,1.67353 1.453324,0.61656 3.14887,0.61656 1.123024,0 2.025847,-0.19818 0.902823,-0.17616 1.651505,-0.52848 0.770703,-0.37434 1.409285,-0.8808 0.638582,-0.50646 1.233124,-1.14505 z"
         style="font-style:normal;font-variant:normal;font-weight:bold;font-stretch:normal;font-family:Gotham;-inkscape-font-specification:'Gotham Bold';stroke-width:0.26458332"
         id="path1919-9" />
      <path
         inkscape:connector-curvature="0"
         d="m 93.374303,251.49005 v -3.08281 H 85.689298 V 236.076 h -3.391091 v 15.41405 z"
         style="font-style:normal;font-variant:normal;font-weight:bold;font-stretch:normal;font-family:Gotham;-inkscape-font-specification:'Gotham Bold';stroke-width:0.26458332"
         id="path1921-1" />
      <path
         inkscape:connector-curvature="0"
         d="M 109.12175,244.77393 V 236.076 h -3.39109 v 8.83005 q 0,1.84969 -0.8808,2.77453 -0.8808,0.92484 -2.44423,0.92484 -1.56342,0 -2.444228,-0.94686 -0.880803,-0.96888 -0.880803,-2.86261 V 236.076 h -3.391091 v 8.80803 q 0,3.41311 1.783626,5.13068 1.783626,1.71756 4.888456,1.71756 1.54141,0 2.79655,-0.41838 1.25514,-0.4404 2.13595,-1.29918 0.8808,-0.88081 1.34322,-2.17999 0.48444,-1.29919 0.48444,-3.06079 z"
         style="font-style:normal;font-variant:normal;font-weight:bold;font-stretch:normal;font-family:Gotham;-inkscape-font-specification:'Gotham Bold';stroke-width:0.26458332"
         id="path1923-8" />
      <path
         inkscape:connector-curvature="0"
         d="m 123.71797,246.9319 v -0.044 q 0,-1.01293 -0.3303,-1.73959 -0.30829,-0.72666 -0.94687,-1.25514 -0.61656,-0.55051 -1.5414,-0.92485 -0.90283,-0.39636 -2.06989,-0.70464 -0.9909,-0.26424 -1.6515,-0.46242 -0.63859,-0.19818 -1.01293,-0.41838 -0.37434,-0.2202 -0.52848,-0.48444 -0.13212,-0.28626 -0.13212,-0.66061 v -0.044 q 0,-0.57252 0.48444,-0.94686 0.50646,-0.39636 1.49737,-0.39636 0.9909,0 1.9818,0.41838 0.99091,0.39636 2.02585,1.101 l 1.76161,-2.55432 q -1.18909,-0.94687 -2.62039,-1.45333 -1.40929,-0.50646 -3.10483,-0.50646 -1.18909,0 -2.17999,0.3303 -0.9909,0.3303 -1.71757,0.94686 -0.70464,0.61657 -1.101,1.47535 -0.39636,0.83676 -0.39636,1.89372 v 0.044 q 0,1.14504 0.35232,1.91574 0.37434,0.7707 1.03494,1.29919 0.66061,0.50646 1.60747,0.85878 0.94686,0.35232 2.11393,0.63858 0.96888,0.24222 1.56342,0.46242 0.61656,0.2202 0.94686,0.4404 0.35232,0.2202 0.46243,0.48445 0.13212,0.24222 0.13212,0.57252 v 0.044 q 0,0.68262 -0.59455,1.07898 -0.57252,0.37434 -1.62948,0.37434 -1.32121,0 -2.44423,-0.50646 -1.101,-0.50646 -2.15797,-1.36524 l -2.00382,2.40018 q 1.38726,1.25515 3.08281,1.87171 1.69554,0.59454 3.45715,0.59454 1.25514,0 2.29009,-0.30828 1.03494,-0.3303 1.78362,-0.92484 0.74868,-0.61656 1.16707,-1.49737 0.41838,-0.90282 0.41838,-2.04786 z"
         style="font-style:normal;font-variant:normal;font-weight:bold;font-stretch:normal;font-family:Gotham;-inkscape-font-specification:'Gotham Bold';stroke-width:0.26458332"
         id="path1925-71" />
      <path
         inkscape:connector-curvature="0"
         d="M 130.22765,251.49005 V 236.076 h -3.39109 v 15.41405 z"
         style="font-style:normal;font-variant:normal;font-weight:bold;font-stretch:normal;font-family:Gotham;-inkscape-font-specification:'Gotham Bold';stroke-width:0.26458332"
         id="path1927-1" />
      <path
         inkscape:connector-curvature="0"
         d="m 148.21667,236.076 h -3.65533 l -4.02967,10.8559 -4.02968,-10.8559 h -3.74341 l 6.23168,15.52415 h 2.99473 z"
         style="font-style:normal;font-variant:normal;font-weight:bold;font-stretch:normal;font-family:Gotham;-inkscape-font-specification:'Gotham Bold';stroke-width:0.26458332"
         id="path1929-0" />
      <path
         inkscape:connector-curvature="0"
         d="m 162.33154,251.49005 v -3.01675 h -8.36763 v -3.23695 h 7.26662 v -3.01675 h -7.26662 v -3.12685 h 8.25753 V 236.076 h -11.6266 v 15.41405 z"
         style="font-style:normal;font-variant:normal;font-weight:bold;font-stretch:normal;font-family:Gotham;-inkscape-font-specification:'Gotham Bold';stroke-width:0.26458332"
         id="path1931-0" />
      <path
         inkscape:connector-curvature="0"
         d="m 184.16891,241.4489 v -0.044 q 0,-1.18909 -0.41838,-2.15797 -0.39636,-0.9909 -1.16706,-1.69554 -0.74869,-0.70465 -1.84969,-1.07899 -1.07898,-0.39636 -2.46625,-0.39636 h -6.29774 v 15.41405 h 3.39109 v -4.62421 h 2.57635 q 1.29919,0 2.42221,-0.33031 1.14504,-0.35232 1.98181,-1.03494 0.85878,-0.68262 1.34322,-1.69554 0.48444,-1.01293 0.48444,-2.35615 z m -3.43513,0.0661 q 0,0.9909 -0.70464,1.67352 -0.70464,0.66061 -1.98181,0.66061 h -2.68645 v -4.7123 h 2.62039 q 1.27717,0 2.00383,0.59454 0.74868,0.59454 0.74868,1.73959 z"
         style="font-style:normal;font-variant:normal;font-weight:bold;font-stretch:normal;font-family:Gotham;-inkscape-font-specification:'Gotham Bold';stroke-width:0.26458332"
         id="path1933-04" />
      <path
         inkscape:connector-curvature="0"
         d="m 201.69621,251.49005 -6.60603,-15.52415 h -3.12685 l -6.60602,15.52415 h 3.45715 l 1.40929,-3.45715 h 6.51794 l 1.40928,3.45715 z m -6.16562,-6.45188 h -4.09574 l 2.04787,-4.99856 z"
         style="font-style:normal;font-variant:normal;font-weight:bold;font-stretch:normal;font-family:Gotham;-inkscape-font-specification:'Gotham Bold';stroke-width:0.26458332"
         id="path1935-4" />
      <path
         inkscape:connector-curvature="0"
         d="m 217.37587,251.49005 -3.76543,-5.50502 q 1.47535,-0.5505 2.37817,-1.71756 0.92484,-1.18909 0.92484,-3.06079 v -0.044 q 0,-2.40019 -1.5414,-3.74342 -1.51939,-1.34322 -4.2719,-1.34322 h -7.04642 v 15.41405 h 3.39109 v -4.9325 h 2.66443 l 3.30301,4.9325 z m -3.89755,-10.10721 q 0,0.9909 -0.68262,1.58544 -0.6606,0.59455 -1.91575,0.59455 h -3.43513 v -4.42604 h 3.36907 q 1.25515,0 1.95979,0.5505 0.70464,0.5505 0.70464,1.65151 z"
         style="font-style:normal;font-variant:normal;font-weight:bold;font-stretch:normal;font-family:Gotham;-inkscape-font-specification:'Gotham Bold';stroke-width:0.26458332"
         id="path1937-6" />
      <path
         inkscape:connector-curvature="0"
         d="m 233.99347,251.49005 -6.56199,-8.87409 6.27572,-6.53996 h -4.09573 l -6.2537,6.73814 V 236.076 h -3.39109 v 15.41405 h 3.39109 v -4.71229 l 1.78363,-1.84969 4.77835,6.56198 z"
         style="font-style:normal;font-variant:normal;font-weight:bold;font-stretch:normal;font-family:Gotham;-inkscape-font-specification:'Gotham Bold';stroke-width:0.26458332"
         id="path1939-3" />
      <path
         inkscape:connector-curvature="0"
         d="M 239.59687,251.49005 V 236.076 h -3.39109 v 15.41405 z"
         style="font-style:normal;font-variant:normal;font-weight:bold;font-stretch:normal;font-family:Gotham;-inkscape-font-specification:'Gotham Bold';stroke-width:0.26458332"
         id="path1941-6" />
      <path
         inkscape:connector-curvature="0"
         d="M 257.14549,251.49005 V 236.076 h -3.34705 v 9.49065 l -7.22258,-9.49065 h -3.12685 v 15.41405 h 3.34705 v -9.79893 l 7.46481,9.79893 z"
         style="font-style:normal;font-variant:normal;font-weight:bold;font-stretch:normal;font-family:Gotham;-inkscape-font-specification:'Gotham Bold';stroke-width:0.26458332"
         id="path1943-3" />
      <path
         inkscape:connector-curvature="0"
         d="m 274.82899,249.31006 v -6.6941 h -6.6941 v 2.92867 h 3.41311 v 2.20201 q -1.29919,0.92484 -3.19291,0.92484 -1.03495,0 -1.89373,-0.35232 -0.83676,-0.37434 -1.47534,-1.03494 -0.61657,-0.6606 -0.96889,-1.54141 -0.3303,-0.90282 -0.3303,-1.95978 v -0.044 q 0,-0.99091 0.3303,-1.84969 0.35232,-0.8808 0.94687,-1.51939 0.61656,-0.6606 1.40928,-1.03494 0.81474,-0.39636 1.73959,-0.39636 0.6606,0 1.2111,0.1101 0.5505,0.1101 1.01292,0.30828 0.48445,0.19818 0.92485,0.48444 0.4404,0.28626 0.8808,0.6606 l 2.13595,-2.57634 q -0.59454,-0.50647 -1.23313,-0.90283 -0.63858,-0.39636 -1.36524,-0.6606 -0.72666,-0.26424 -1.58545,-0.39636 -0.83676,-0.15414 -1.8717,-0.15414 -1.76161,0 -3.23695,0.63858 -1.47535,0.61656 -2.55433,1.71757 -1.07899,1.07898 -1.69555,2.53231 -0.59454,1.4313 -0.59454,3.08281 v 0.044 q 0,1.71756 0.59454,3.17089 0.59454,1.45332 1.65151,2.51028 1.07898,1.05697 2.55433,1.65151 1.49736,0.59454 3.30301,0.59454 2.11392,0 3.74341,-0.70464 1.65151,-0.72666 2.84059,-1.73959 z"
         style="font-style:normal;font-variant:normal;font-weight:bold;font-stretch:normal;font-family:Gotham;-inkscape-font-specification:'Gotham Bold';stroke-width:0.26458332"
         id="path1945-8" />
    </g>
  </g>
</svg>
