<?xml version="1.0" encoding="UTF-8" standalone="no"?>
<!-- Created with Inkscape (http://www.inkscape.org/) -->

<svg
   xmlns:dc="http://purl.org/dc/elements/1.1/"
   xmlns:cc="http://creativecommons.org/ns#"
   xmlns:rdf="http://www.w3.org/1999/02/22-rdf-syntax-ns#"
   xmlns:svg="http://www.w3.org/2000/svg"
   xmlns="http://www.w3.org/2000/svg"
   xmlns:sodipodi="http://sodipodi.sourceforge.net/DTD/sodipodi-0.dtd"
   xmlns:inkscape="http://www.inkscape.org/namespaces/inkscape"
   width="210mm"
   height="297mm"
   viewBox="0 0 210 297"
   version="1.1"
   id="svg1178"
   inkscape:version="0.92.4 (5da689c313, 2019-01-14)"
   sodipodi:docname="TeslaVehiclesOnly.svg">
  <defs
     id="defs1172" />
  <sodipodi:namedview
     id="base"
     pagecolor="#ffffff"
     bordercolor="#666666"
     borderopacity="1.0"
     inkscape:pageopacity="0.0"
     inkscape:pageshadow="2"
     inkscape:zoom="0.35"
     inkscape:cx="-483.14434"
     inkscape:cy="-300.06523"
     inkscape:document-units="mm"
     inkscape:current-layer="layer1"
     showgrid="true"
     inkscape:window-width="1920"
     inkscape:window-height="1137"
     inkscape:window-x="-8"
     inkscape:window-y="-8"
     inkscape:window-maximized="1">
    <inkscape:grid
       type="xygrid"
       id="grid1839" />
  </sodipodi:namedview>
  <metadata
     id="metadata1175">
    <rdf:RDF>
      <cc:Work
         rdf:about="">
        <dc:format>image/svg+xml</dc:format>
        <dc:type
           rdf:resource="http://purl.org/dc/dcmitype/StillImage" />
        <dc:title />
      </cc:Work>
    </rdf:RDF>
  </metadata>
  <g
     inkscape:label="Ebene 1"
     inkscape:groupmode="layer"
     id="layer1">
    <path
       inkscape:connector-curvature="0"
       style="opacity:1;fill:none;fill-opacity:1;stroke:#000000;stroke-width:0.40000001;stroke-linejoin:round;stroke-miterlimit:4;stroke-dasharray:none;stroke-opacity:1;paint-order:markers fill stroke"
       d="M -305.52617,290.38334 V 70.78333 H -5.9262124 v 219.60001 z"
       id="rect867-2-4-6" />
    <path
       style="color:#000000;font-style:normal;font-variant:normal;font-weight:normal;font-stretch:normal;font-size:medium;line-height:normal;font-family:sans-serif;font-variant-ligatures:normal;font-variant-position:normal;font-variant-caps:normal;font-variant-numeric:normal;font-variant-alternates:normal;font-feature-settings:normal;text-indent:0;text-align:start;text-decoration:none;text-decoration-line:none;text-decoration-style:solid;text-decoration-color:#000000;letter-spacing:normal;word-spacing:normal;text-transform:none;writing-mode:lr-tb;direction:ltr;text-orientation:mixed;dominant-baseline:auto;baseline-shift:baseline;text-anchor:start;white-space:normal;shape-padding:0;clip-rule:nonzero;display:inline;overflow:visible;visibility:visible;opacity:1;isolation:auto;mix-blend-mode:normal;color-interpolation:sRGB;color-interpolation-filters:linearRGB;solid-color:#000000;solid-opacity:1;vector-effect:none;fill:#000000;fill-opacity:1;fill-rule:nonzero;stroke:none;stroke-width:7;stroke-linecap:butt;stroke-linejoin:round;stroke-miterlimit:4;stroke-dasharray:none;stroke-dashoffset:0;stroke-opacity:1;paint-order:markers fill stroke;color-rendering:auto;image-rendering:auto;shape-rendering:auto;text-rendering:auto;enable-background:accumulate"
       d="m -295.52617,243.62259 c 0,19.29457 15.6196,34.93523 34.8881,34.93523 h 209.845858 c 19.26859,0 34.88811,-15.64065 34.88811,-34.93523 v -126.0785 c 0,-19.29457 -15.61952,-34.93522 -34.88811,-34.93522 H -260.63807 c -19.2685,0 -34.8881,15.64065 -34.8881,34.93522 z m 6.8201,0 v -126.0785 c 0,-15.62928 12.4598,-28.10595 28.068,-28.10595 h 209.845858 c 15.60821,0 28.068,12.47667 28.068,28.10595 v 126.0785 c 0,15.62928 -12.45979,28.10596 -28.068,28.10596 H -260.63807 c -15.6082,0 -28.068,-12.47668 -28.068,-28.10596 z"
       id="rect875-4-8-1"
       inkscape:connector-curvature="0" />
    <path
       inkscape:connector-curvature="0"
       style="opacity:1;fill:none;fill-opacity:1;stroke:#000000;stroke-width:0.2;stroke-linejoin:round;stroke-miterlimit:4;stroke-dasharray:none;stroke-opacity:1;paint-order:markers fill stroke"
       d="m -37.734502,255.49703 a 2.5,2.5 0 0 1 2.49999,2.49998 2.5,2.5 0 0 1 -2.49999,2.5 2.5,2.5 0 0 1 -2.5,-2.5 2.5,2.5 0 0 1 2.5,-2.49998 z"
       id="path879-1-8-0" />
    <path
       inkscape:connector-curvature="0"
       style="opacity:1;fill:none;fill-opacity:1;stroke:#000000;stroke-width:0.2;stroke-linejoin:round;stroke-miterlimit:4;stroke-dasharray:none;stroke-opacity:1;paint-order:markers fill stroke"
       d="m -38.026202,100.58334 a 2.5,2.5 0 0 1 2.5001,2.5 2.5,2.5 0 0 1 -2.5001,2.5 2.5,2.5 0 0 1 -2.49992,-2.5 2.5,2.5 0 0 1 2.49992,-2.5 z"
       id="path881-4-5-0" />
    <path
       inkscape:connector-curvature="0"
       style="opacity:1;fill:none;fill-opacity:1;stroke:#000000;stroke-width:0.2;stroke-linejoin:round;stroke-miterlimit:4;stroke-dasharray:none;stroke-opacity:1;paint-order:markers fill stroke"
       d="m -273.11247,100.20536 a 2.5,2.5 0 0 1 2.5,2.5 2.5,2.5 0 0 1 -2.5,2.5 2.5,2.5 0 0 1 -2.5,-2.5 2.5,2.5 0 0 1 2.5,-2.5 z"
       id="path883-9-4-2" />
    <path
       inkscape:connector-curvature="0"
       style="opacity:1;fill:none;fill-opacity:1;stroke:#000000;stroke-width:0.2;stroke-linejoin:round;stroke-miterlimit:4;stroke-dasharray:none;stroke-opacity:1;paint-order:markers fill stroke"
       d="m -273.11247,255.20536 a 2.5,2.5 0 0 1 2.5,2.5 2.5,2.5 0 0 1 -2.5,2.5 2.5,2.5 0 0 1 -2.5,-2.5 2.5,2.5 0 0 1 2.5,-2.5 z"
       id="path885-0-2-2" />
    <path
       style="fill:#000000;stroke-width:0.99999994"
       d="m -203.5311,252.43636 c -0.23738,-1.25197 -20.66478,-115.29716 -20.66478,-115.37051 0,-0.10428 -6.03337,0.0482 -9.06601,0.22922 -9.02509,0.5382 -13.66694,2.11863 -15.91046,5.41712 -0.82715,1.21613 -1.1725,2.08325 -1.53353,3.85033 -0.14656,0.71798 -0.29338,1.33217 -0.32608,1.36486 -0.10977,0.10965 -3.8605,-1.67224 -5.73967,-2.72724 -5.62066,-3.15555 -10.03335,-6.8091 -13.03516,-10.79286 -0.44105,-0.58526 -0.80186,-1.11199 -0.80186,-1.17055 0,-0.0588 0.22835,-0.20097 0.5074,-0.31646 0.27911,-0.11562 1.48171,-0.63382 2.6725,-1.15184 13.64316,-5.93535 31.37719,-10.08408 47.29231,-11.0636 l 1.42076,-0.0875 7.62623,9.29282 c 4.19438,5.11098 7.67256,9.24151 7.72929,9.17896 0.0566,-0.0625 3.46098,-4.20575 7.565,-9.20699 4.10404,-5.00127 7.52461,-9.13202 7.60121,-9.17938 0.15983,-0.0987 3.573,0.12126 6.55441,0.42273 12.57303,1.27095 25.20072,4.18036 36.67018,8.44881 2.70686,1.00735 7.06098,2.80538 8.19655,3.38467 l 0.5305,0.27065 -0.68431,0.94084 c -2.65942,3.65636 -6.82856,7.24952 -11.99165,10.33495 -1.41994,0.84857 -6.12046,3.20782 -6.76135,3.39361 -0.26449,0.0767 -0.29996,0.0191 -0.38795,-0.63085 -0.0532,-0.39341 -0.24562,-1.23124 -0.42747,-1.86182 -1.43198,-4.96576 -5.66299,-7.17083 -15.3342,-7.99151 -2.10584,-0.17869 -10.86372,-0.40805 -10.97377,-0.28733 -0.0564,0.0618 -16.963,94.90337 -20.53108,115.17345 l -0.10715,0.60889 z m 67.28952,-124.31598 c -16.16109,-6.81587 -34.52203,-11.15305 -52.84027,-12.48179 -5.88523,-0.42691 -18.11179,-0.5667 -24.03224,-0.27479 -20.51711,1.0116 -39.39324,5.1929 -57.53428,12.74448 -1.24987,0.52025 -2.35024,0.9161 -2.4454,0.87961 -0.0953,-0.0366 -0.8776,-1.48816 -1.73879,-3.22594 -1.6114,-3.25128 -2.36236,-4.94026 -2.24758,-5.05504 0.11753,-0.11753 4.84856,-1.90476 7.62167,-2.87935 25.99695,-9.1366 53.76107,-12.92277 80.03835,-10.91488 19.65387,1.50176 38.17671,5.64757 57.03173,12.76485 1.40379,0.52992 2.57649,0.98758 2.60597,1.01708 0.15414,0.15412 -3.61596,8.02441 -3.99797,8.34602 -0.0513,0.0431 -1.15879,-0.37097 -2.46119,-0.92025 z"
       id="path2190-1-9-2"
       inkscape:connector-curvature="0"
       sodipodi:nodetypes="csscccccscsscscssssccsscccsccccsssccscsssccs" />
    <g
       aria-label="TESLA"
       style="font-style:normal;font-variant:normal;font-weight:bold;font-stretch:normal;font-size:36.18276596px;line-height:1;font-family:TESLA;-inkscape-font-specification:'TESLA Bold';text-align:center;letter-spacing:0px;word-spacing:0px;text-anchor:middle;fill:#000000;fill-opacity:1;stroke:none;stroke-width:0.29506451"
       id="text2822-22-5-9-0-5"
       transform="matrix(0.89669647,0,0,0.89669647,-11.949058,18.38001)">
      <path
         d="M -171.61831,180.71878 V 162.6274 h -6.78427 q -1.90808,0 -3.21546,-1.30739 -1.30739,-1.34272 -1.30739,-3.21546 h 27.13708 q 0,1.90808 -1.34272,3.21546 -1.34272,1.30739 -3.18013,1.30739 h -6.78427 v 18.09138 z"
         style="font-style:normal;font-variant:normal;font-weight:bold;font-stretch:normal;line-height:1;font-family:TESLA;-inkscape-font-specification:'TESLA Bold';text-align:center;text-anchor:middle;stroke-width:0.29506451"
         id="path1828"
         inkscape:connector-curvature="0" />
      <path
         d="m -146.74266,180.71878 q -1.90808,0 -3.21546,-1.30738 -1.30739,-1.34272 -1.30739,-3.21547 h 27.13708 q 0,1.90808 -1.34272,3.21547 -1.34272,1.30738 -3.18013,1.30738 z m 0,-9.04569 q -1.90808,0 -3.21546,-1.30739 -1.30739,-1.34272 -1.30739,-3.21546 h 27.13708 q 0,1.90808 -1.34272,3.21546 -1.34272,1.30739 -3.18013,1.30739 z m 0,-9.04569 q -1.90808,0 -3.21546,-1.30739 -1.30739,-1.34272 -1.30739,-3.21546 h 27.13708 q 0,1.90808 -1.34272,3.21546 -1.34272,1.30739 -3.18013,1.30739 z"
         style="font-style:normal;font-variant:normal;font-weight:bold;font-stretch:normal;line-height:1;font-family:TESLA;-inkscape-font-specification:'TESLA Bold';text-align:center;text-anchor:middle;stroke-width:0.29506451"
         id="path1830"
         inkscape:connector-curvature="0" />
      <path
         d="m -119.60559,180.71878 q 0,-1.87274 1.30739,-3.18013 1.34272,-1.34272 3.21546,-1.34272 h 18.091381 v -4.52284 h -22.614231 v -13.56854 h 27.137076 q 0,1.90808 -1.34272,3.21546 -1.342719,1.30739 -3.180125,1.30739 h -18.091381 v 4.52284 h 22.614226 v 13.56854 z"
         style="font-style:normal;font-variant:normal;font-weight:bold;font-stretch:normal;line-height:1;font-family:TESLA;-inkscape-font-specification:'TESLA Bold';text-align:center;text-anchor:middle;stroke-width:0.29506451"
         id="path1832"
         inkscape:connector-curvature="0" />
      <path
         d="m -87.945668,180.71878 v -22.61423 h 4.522845 v 18.09138 h 22.614229 q 0,1.90808 -1.34272,3.21547 -1.34272,1.30738 -3.180126,1.30738 z"
         style="font-style:normal;font-variant:normal;font-weight:bold;font-stretch:normal;line-height:1;font-family:TESLA;-inkscape-font-specification:'TESLA Bold';text-align:center;text-anchor:middle;stroke-width:0.29506451"
         id="path1834"
         inkscape:connector-curvature="0" />
      <path
         d="m -56.285749,180.71878 v -13.56854 h 27.137075 v 13.56854 h -4.522846 v -9.04569 h -18.091383 v 9.04569 z m 4.522846,-18.09138 q -1.908076,0 -3.215461,-1.30739 -1.307385,-1.34272 -1.307385,-3.21546 h 27.137075 q 0,1.90808 -1.34272,3.21546 -1.34272,1.30739 -3.180126,1.30739 z"
         style="font-style:normal;font-variant:normal;font-weight:bold;font-stretch:normal;line-height:1;font-family:TESLA;-inkscape-font-specification:'TESLA Bold';text-align:center;text-anchor:middle;stroke-width:0.29506451"
         id="path1836"
         inkscape:connector-curvature="0" />
    </g>
    <g
       aria-label="VEHICLES ONLY"
       style="font-style:normal;font-variant:normal;font-weight:bold;font-stretch:normal;font-size:23.0696888px;line-height:1;font-family:Gotham;-inkscape-font-specification:'Gotham Bold';text-align:center;letter-spacing:0px;word-spacing:0px;text-anchor:middle;fill:#000000;fill-opacity:1;stroke:none;stroke-width:0.31630346"
       id="text2822-22-5-9-0-57"
       transform="matrix(0.83648565,0,0,0.83648565,-19.518602,29.37162)">
      <path
         d="m -147.35669,196.202 h -3.82957 l -4.22175,11.37336 -4.22176,-11.37336 h -3.92184 l 6.52872,16.26413 h 3.13748 z"
         style="font-style:normal;font-variant:normal;font-weight:bold;font-stretch:normal;line-height:1;font-family:Gotham;-inkscape-font-specification:'Gotham Bold';text-align:center;text-anchor:middle;stroke-width:0.31630346"
         id="path1803"
         inkscape:connector-curvature="0" />
      <path
         d="m -132.56902,212.35078 v -3.16054 h -8.76648 v -3.39125 h 7.61299 v -3.16054 h -7.61299 v -3.2759 h 8.65113 V 196.202 h -12.1808 v 16.14878 z"
         style="font-style:normal;font-variant:normal;font-weight:bold;font-stretch:normal;line-height:1;font-family:Gotham;-inkscape-font-specification:'Gotham Bold';text-align:center;text-anchor:middle;stroke-width:0.31630346"
         id="path1805"
         inkscape:connector-curvature="0" />
      <path
         d="M -115.75302,212.35078 V 196.202 h -3.55273 v 6.39031 h -6.55179 V 196.202 h -3.55274 v 16.14878 h 3.55274 v -6.48258 h 6.55179 v 6.48258 z"
         style="font-style:normal;font-variant:normal;font-weight:bold;font-stretch:normal;line-height:1;font-family:Gotham;-inkscape-font-specification:'Gotham Bold';text-align:center;text-anchor:middle;stroke-width:0.31630346"
         id="path1807"
         inkscape:connector-curvature="0" />
      <path
         d="M -108.1685,212.35078 V 196.202 h -3.55273 v 16.14878 z"
         style="font-style:normal;font-variant:normal;font-weight:bold;font-stretch:normal;line-height:1;font-family:Gotham;-inkscape-font-specification:'Gotham Bold';text-align:center;text-anchor:middle;stroke-width:0.31630346"
         id="path1809"
         inkscape:connector-curvature="0" />
      <path
         d="m -89.944887,209.74391 -2.26083,-2.2839 q -0.945857,0.87665 -1.914784,1.38418 -0.945857,0.50753 -2.330038,0.50753 -1.038136,0 -1.914784,-0.39218 -0.853579,-0.41525 -1.476461,-1.10735 -0.599816,-0.69209 -0.945856,-1.61487 -0.34605,-0.92279 -0.34605,-1.96093 v -0.0461 q 0,-1.03813 0.34605,-1.93785 0.34604,-0.92279 0.968926,-1.61488 0.622882,-0.69209 1.47646,-1.08427 0.876648,-0.39219 1.891715,-0.39219 1.222693,0 2.19162,0.48447 0.991997,0.48446 1.937854,1.33804 l 2.26083,-2.60688 q -0.553673,-0.55367 -1.199624,-1.01506 -0.645952,-0.4614 -1.407251,-0.78437 -0.7613,-0.32298 -1.707157,-0.50754 -0.922788,-0.18455 -2.053203,-0.18455 -1.868644,0 -3.414314,0.66902 -1.545666,0.64595 -2.653016,1.79943 -1.10734,1.13042 -1.73022,2.65302 -0.62289,1.49953 -0.62289,3.22975 v 0.0461 q 0,1.73023 0.62289,3.25283 0.62288,1.5226 1.73022,2.65301 1.10735,1.10735 2.629947,1.7533 1.522599,0.64595 3.298965,0.64595 1.176554,0 2.122412,-0.20763 0.945857,-0.18455 1.730226,-0.55367 0.807439,-0.39218 1.47646,-0.92279 0.669021,-0.5306 1.291903,-1.19962 z"
         style="font-style:normal;font-variant:normal;font-weight:bold;font-stretch:normal;line-height:1;font-family:Gotham;-inkscape-font-specification:'Gotham Bold';text-align:center;text-anchor:middle;stroke-width:0.31630346"
         id="path1811"
         inkscape:connector-curvature="0" />
      <path
         d="m -75.496775,212.35078 v -3.22975 h -8.051321 V 196.202 h -3.552732 v 16.14878 z"
         style="font-style:normal;font-variant:normal;font-weight:bold;font-stretch:normal;line-height:1;font-family:Gotham;-inkscape-font-specification:'Gotham Bold';text-align:center;text-anchor:middle;stroke-width:0.31630346"
         id="path1813"
         inkscape:connector-curvature="0" />
      <path
         d="m -60.521298,212.35078 v -3.16054 h -8.766481 v -3.39125 h 7.612997 v -3.16054 h -7.612997 v -3.2759 h 8.651133 V 196.202 h -12.180796 v 16.14878 z"
         style="font-style:normal;font-variant:normal;font-weight:bold;font-stretch:normal;line-height:1;font-family:Gotham;-inkscape-font-specification:'Gotham Bold';text-align:center;text-anchor:middle;stroke-width:0.31630346"
         id="path1815"
         inkscape:connector-curvature="0" />
      <path
         d="m -45.689292,207.57536 v -0.0461 q 0,-1.06121 -0.346045,-1.82251 -0.322976,-0.7613 -0.991997,-1.31497 -0.645951,-0.57674 -1.614878,-0.96893 -0.945857,-0.41525 -2.168551,-0.73823 -1.038136,-0.27683 -1.730227,-0.48446 -0.66902,-0.20763 -1.061205,-0.43832 -0.392185,-0.2307 -0.553673,-0.50754 -0.138418,-0.2999 -0.138418,-0.69209 v -0.0461 q 0,-0.59981 0.507533,-0.99199 0.530603,-0.41526 1.568739,-0.41526 1.038136,0 2.076272,0.43833 1.038136,0.41525 2.122411,1.15348 l 1.845576,-2.67608 q -1.245764,-0.992 -2.745293,-1.5226 -1.47646,-0.5306 -3.252826,-0.5306 -1.245764,0 -2.2839,0.34604 -1.038136,0.34605 -1.799435,0.992 -0.73823,0.64595 -1.153485,1.54567 -0.415254,0.87664 -0.415254,1.98399 v 0.0461 q 0,1.19962 0.369115,2.00706 0.392184,0.80744 1.084275,1.36111 0.692091,0.53061 1.684087,0.89972 0.991997,0.36912 2.214691,0.66902 1.015066,0.25377 1.637947,0.48447 0.645952,0.23069 0.991997,0.46139 0.369115,0.2307 0.484464,0.50753 0.138418,0.25377 0.138418,0.59981 v 0.0461 q 0,0.71516 -0.622882,1.13042 -0.599812,0.39218 -1.707157,0.39218 -1.384181,0 -2.560735,-0.5306 -1.153485,-0.5306 -2.26083,-1.43032 l -2.099342,2.5146 q 1.453391,1.31497 3.229757,1.96092 1.776366,0.62288 3.621941,0.62288 1.314972,0 2.399248,-0.32297 1.084275,-0.34605 1.868644,-0.96893 0.78437,-0.64595 1.222694,-1.56874 0.438324,-0.94586 0.438324,-2.14548 z"
         style="font-style:normal;font-variant:normal;font-weight:bold;font-stretch:normal;line-height:1;font-family:Gotham;-inkscape-font-specification:'Gotham Bold';text-align:center;text-anchor:middle;stroke-width:0.31630346"
         id="path1817"
         inkscape:connector-curvature="0" />
      <path
         d="m -120.23845,227.34608 v -0.0461 q 0,-1.73022 -0.64595,-3.22975 -0.62289,-1.5226 -1.77637,-2.62995 -1.13042,-1.13041 -2.69915,-1.77636 -1.56874,-0.66903 -3.43739,-0.66903 -1.86864,0 -3.46045,0.66903 -1.56874,0.64595 -2.72222,1.79943 -1.13042,1.13042 -1.77637,2.65302 -0.64595,1.49953 -0.64595,3.22975 v 0.0461 q 0,1.73023 0.62288,3.25283 0.64595,1.49953 1.77637,2.62994 1.15348,1.10735 2.72222,1.77637 1.56874,0.64595 3.43738,0.64595 1.86865,0 3.43739,-0.64595 1.5918,-0.66902 2.72222,-1.79944 1.15348,-1.15348 1.79944,-2.65301 0.64595,-1.5226 0.64595,-3.25283 z m -3.71422,0.0461 q 0,1.03814 -0.36912,1.96092 -0.34604,0.89972 -0.992,1.59181 -0.62288,0.69209 -1.52259,1.08428 -0.89972,0.39218 -1.96093,0.39218 -1.08427,0 -1.98399,-0.39218 -0.87665,-0.41526 -1.54567,-1.10735 -0.64595,-0.69209 -1.01507,-1.61487 -0.34604,-0.92279 -0.34604,-1.96093 v -0.0461 q 0,-1.03813 0.34604,-1.93785 0.36912,-0.92279 0.992,-1.61488 0.64595,-0.69209 1.5226,-1.08427 0.89972,-0.39219 1.98399,-0.39219 1.06121,0 1.96093,0.41525 0.89971,0.39219 1.54567,1.08428 0.66902,0.69209 1.01506,1.61488 0.36912,0.92279 0.36912,1.96092 z"
         style="font-style:normal;font-variant:normal;font-weight:bold;font-stretch:normal;line-height:1;font-family:Gotham;-inkscape-font-specification:'Gotham Bold';text-align:center;text-anchor:middle;stroke-width:0.31630346"
         id="path1819"
         inkscape:connector-curvature="0" />
      <path
         d="m -102.73757,235.42047 v -16.14878 h -3.50659 v 9.94304 l -7.56686,-9.94304 h -3.2759 v 16.14878 h 3.50659 v -10.26601 l 7.82063,10.26601 z"
         style="font-style:normal;font-variant:normal;font-weight:bold;font-stretch:normal;line-height:1;font-family:Gotham;-inkscape-font-specification:'Gotham Bold';text-align:center;text-anchor:middle;stroke-width:0.31630346"
         id="path1821"
         inkscape:connector-curvature="0" />
      <path
         d="m -87.279438,235.42047 v -3.22975 h -8.051322 v -12.91903 h -3.552732 v 16.14878 z"
         style="font-style:normal;font-variant:normal;font-weight:bold;font-stretch:normal;line-height:1;font-family:Gotham;-inkscape-font-specification:'Gotham Bold';text-align:center;text-anchor:middle;stroke-width:0.31630346"
         id="path1823"
         inkscape:connector-curvature="0" />
      <path
         d="m -70.296902,219.27169 h -4.037196 l -3.921847,6.48258 -3.852638,-6.48258 h -4.152544 l 6.205746,9.78155 v 6.36723 h 3.552732 v -6.43644 z"
         style="font-style:normal;font-variant:normal;font-weight:bold;font-stretch:normal;line-height:1;font-family:Gotham;-inkscape-font-specification:'Gotham Bold';text-align:center;text-anchor:middle;stroke-width:0.31630346"
         id="path1825"
         inkscape:connector-curvature="0" />
    </g>
  </g>
</svg>
