<?xml version="1.0" encoding="UTF-8" standalone="no"?>
<!-- Created with Inkscape (http://www.inkscape.org/) -->

<svg
   xmlns:dc="http://purl.org/dc/elements/1.1/"
   xmlns:cc="http://creativecommons.org/ns#"
   xmlns:rdf="http://www.w3.org/1999/02/22-rdf-syntax-ns#"
   xmlns:svg="http://www.w3.org/2000/svg"
   xmlns="http://www.w3.org/2000/svg"
   xmlns:sodipodi="http://sodipodi.sourceforge.net/DTD/sodipodi-0.dtd"
   xmlns:inkscape="http://www.inkscape.org/namespaces/inkscape"
   width="210mm"
   height="297mm"
   viewBox="0 0 210 297"
   version="1.1"
   id="svg8"
   inkscape:version="0.92.4 (5da689c313, 2019-01-14)"
   sodipodi:docname="TeslaParking.svg">
  <defs
     id="defs2" />
  <sodipodi:namedview
     id="base"
     pagecolor="#ffffff"
     bordercolor="#666666"
     borderopacity="1.0"
     inkscape:pageopacity="0.0"
     inkscape:pageshadow="2"
     inkscape:zoom="0.49497475"
     inkscape:cx="-599.02045"
     inkscape:cy="553.678"
     inkscape:document-units="mm"
     inkscape:current-layer="layer1"
     showgrid="false"
     inkscape:window-width="1920"
     inkscape:window-height="1137"
     inkscape:window-x="-8"
     inkscape:window-y="-8"
     inkscape:window-maximized="1">
    <inkscape:grid
       type="xygrid"
       id="grid21485"
       empspacing="5" />
  </sodipodi:namedview>
  <metadata
     id="metadata5">
    <rdf:RDF>
      <cc:Work
         rdf:about="">
        <dc:format>image/svg+xml</dc:format>
        <dc:type
           rdf:resource="http://purl.org/dc/dcmitype/StillImage" />
        <dc:title />
      </cc:Work>
    </rdf:RDF>
  </metadata>
  <g
     inkscape:label="Ebene 1"
     inkscape:groupmode="layer"
     id="layer1">
    <path
       id="path21491"
       style="fill:#000000;stroke-width:0.26458335"
       d="m -74.548828,43.495487 c -1.007681,-0.678603 -2.263048,-2.266081 -2.263048,-2.861722 0,-0.214023 2.080794,-0.264261 10.941588,-0.264261 7.438753,0 10.941554,0.06746 10.941554,0.210682 0,0.415851 -0.784447,1.724522 -1.349147,2.250757 -0.316672,0.29512 -0.894896,0.727885 -1.284931,0.961707 -0.686549,0.411602 -0.951701,0.425159 -8.310184,0.425905 h -7.601032 l -1.0748,-0.723814 z m -94.660862,0.01297 c -1.30532,-0.878421 -2.40201,-2.185146 -2.42186,-2.885722 -0.005,-0.19959 2.3151,-0.253282 10.94803,-0.253282 h 10.95522 l -0.13524,0.455888 c -0.25894,0.872907 -1.20379,2.029453 -2.21354,2.709451 l -1.01637,0.684474 h -7.53001 -7.53 z m 0.71158,8.472705 c -1.10366,-0.593257 -1.90389,-1.303936 -2.52637,-2.243718 -1.19908,-1.810242 -2.07734,-1.668365 10.3273,-1.668365 7.5044,0 10.94156,0.06665 10.94156,0.212693 0,0.808106 -1.43706,2.718905 -2.599,3.455805 l -0.9249,0.586544 -7.30536,-0.0081 c -6.32351,-0.0081 -7.38706,-0.05206 -7.91323,-0.334851 z m 92.294102,2.367336 v -6.283149 l 10.384378,0.05254 10.384331,0.05254 0.05368,6.230608 0.05368,6.230608 H -57.154461 -58.981 v -4.153739 -4.153739 h -6.787799 -6.787832 v 4.153739 4.153739 h -1.823587 -1.823588 z M -107.2051,50.39923 v -10.2324 h 1.8236 1.82359 v 8.206191 8.206158 h 8.192032 8.192033 l -0.184119,0.641954 c -0.291618,1.016746 -1.116735,2.113908 -2.097043,2.788376 l -0.904204,0.622122 h -8.422937 -8.422952 z m -61.29301,9.830788 c -1.2074,-0.597797 -2.29185,-1.565667 -2.74126,-2.446633 -0.21965,-0.430543 -0.39936,-0.877642 -0.39936,-0.993508 0,-0.14319 3.5028,-0.210698 10.94155,-0.210698 8.86076,0 10.94156,0.05011 10.94156,0.264261 0,0.46737 -1.15194,2.098242 -1.85294,2.623261 -1.59012,1.191038 -1.38781,1.16493 -9.0279,1.164752 -6.61984,-1.46e-4 -7.10075,-0.02465 -7.86165,-0.401435 z m 29.68406,0.399391 c 0,-0.515127 0.91941,-2.077648 1.5465,-2.628239 1.62881,-1.430132 1.57792,-1.421991 8.88043,-1.421991 h 6.59327 v -2.127513 -2.127545 h -8.51012 -8.51008 v -6.078626 -6.078662 h 10.33369 c 5.68355,0 10.33372,0.03454 10.33372,0.07654 0,0.04216 -0.13346,0.395823 -0.29644,0.78602 -0.38103,0.911923 -1.202,1.882793 -2.20882,2.612153 l -0.79752,0.577689 h -6.85873 -6.85871 v 2.02621 2.02621 h 8.6114 8.61142 v 6.281316 6.281252 h -10.435 c -6.89658,0 -10.43501,-0.06941 -10.43501,-0.204828 z m -56.17456,-8.05199 -0.0529,-8.25685 -3.34327,-0.101352 -3.34325,-0.101352 -0.93535,-0.673398 c -0.51445,-0.37038 -1.11578,-0.917453 -1.3363,-1.215735 -0.41597,-0.562641 -1.07159,-1.756063 -1.07159,-1.950593 0,-0.0613 5.42517,-0.111406 12.05597,-0.111406 8.21016,0 12.05597,0.06714 12.05597,0.210698 0,0.46831 -0.82205,1.75676 -1.55315,2.434325 -1.45095,1.34472 -1.28628,1.298488 -5.01171,1.407412 l -3.46489,0.101352 -0.053,8.256851 -0.0529,8.256818 h -1.92036 -1.92037 z"
       inkscape:connector-curvature="0" />
    <path
       id="path839"
       style="fill:#000000;stroke-width:0.26458335"
       d="m -189.16699,82.271203 c -0.94341,-1.381733 -1.73727,-2.607767 -1.76411,-2.724503 -0.0269,-0.116745 0.14277,-0.269207 0.37693,-0.338779 0.23415,-0.06951 1.57524,-0.486345 2.98018,-0.926146 9.91389,-3.103414 22.53126,-5.240779 36.18789,-6.130196 12.07486,-0.786399 29.66139,-0.824685 41.5522,-0.09048 12.025025,0.742509 23.117227,2.383388 32.338501,4.783861 3.246911,0.845225 8.226661,2.343038 8.423352,2.533579 0.08044,0.07799 -0.666302,1.328879 -1.659468,2.779875 l -1.805737,2.638157 -2.512788,-0.822287 c -9.70671,-3.176453 -21.528093,-5.36867 -34.35812,-6.371558 -13.4297,-1.049757 -31.53842,-0.944887 -44.27694,0.256403 -11.27331,1.06311 -22.73889,3.312861 -31.491,6.179064 l -2.27556,0.745217 z m 56.89453,96.370547 c -2.96702,-15.84049 -14.0749,-75.19495 -15.38916,-82.231177 -0.56857,-3.044032 -1.08359,-5.57674 -1.14448,-5.628235 -0.20222,-0.170994 -6.2087,0.13616 -8.28492,0.423657 -7.47189,1.034642 -11.57591,3.58484 -12.1524,7.551341 -0.10634,0.731675 -0.15431,0.798349 -0.53527,0.743778 -1.75861,-0.251845 -6.71027,-2.894214 -10.04683,-5.361285 -1.72197,-1.273256 -4.00997,-3.47911 -4.41984,-4.261151 -0.31673,-0.604351 -0.36381,-0.575841 2.55633,-1.548059 7.49944,-2.496828 18.06815,-4.171364 30.68678,-4.862103 3.43619,-0.188088 14.15573,-0.256257 14.42197,-0.09172 0.0888,0.05491 1.58971,1.937797 3.3352,4.184184 1.74548,2.246365 3.24067,4.042873 3.32262,3.992215 0.082,-0.0506 1.57343,-1.918236 3.31439,-4.150205 l 3.16535,-4.058107 2.4193,-0.08901 c 2.83149,-0.104168 11.55923,0.113341 15.20735,0.379001 11.955233,0.870609 20.860081,2.418421 28.017012,4.869852 1.253109,0.429236 2.307043,0.80906 2.342068,0.844057 0.137187,0.137207 -1.229032,1.799521 -2.310365,2.811059 -2.161173,2.021675 -5.310025,4.151236 -8.500191,5.748689 -1.540025,0.771131 -4.141517,1.813863 -4.241205,1.699916 -0.02284,-0.02611 -0.129116,-0.468891 -0.236238,-0.984029 -0.313942,-1.509522 -0.952254,-2.616398 -2.132428,-3.697831 -2.849762,-2.611294 -8.285663,-3.995639 -16.405293,-4.17789 -1.58369,-0.03549 -1.93115,8.27e-4 -1.99299,0.212407 -0.0413,0.140483 -0.68895,3.550652 -1.43945,7.578149 -0.75051,4.027517 -3.86037,20.656977 -6.91083,36.954307 -3.05045,16.2973 -6.58242,35.18738 -7.8488,41.97795 -1.26639,6.79054 -2.3589,12.5282 -2.42779,12.75036 -0.0845,0.27284 -0.85362,-3.48483 -2.36989,-11.58013 z"
       inkscape:connector-curvature="0" />
    <g
       id="g21659"
       transform="matrix(0.03527778,0,0,-0.03527778,249.65999,286.39139)"
       style="fill:#000000;stroke:none">
      <path
         id="path21589"
         d="M 3140,6999 C 2335,6917 1530,6504 975,5890 475,5337 183,4697 88,3950 70,3809 70,3291 88,3150 229,2034 842,1105 1815,535 2195,312 2660,159 3140,98 c 140,-17 671,-18 800,0 589,81 1051,250 1515,557 698,461 1224,1186 1434,1976 91,345 116,537 116,919 0,382 -25,574 -116,919 -210,790 -736,1515 -1434,1976 -452,299 -914,472 -1470,551 -280.0999,20.2251 -579.0602,30.6256 -845,3 z m 755,-195 c 969,-103 1844,-637 2380,-1454 357,-544 537,-1147 537,-1800 0,-300 -26,-517 -97,-800 C 6517,1956 6025,1265 5340,815 4356,169 3104,98 2058,629 1398,964 861,1523 560,2189 359,2632 267,3062 267,3550 c 0,315 27,532 104,830 235,903 851,1667 1687,2091 568,289 1192,402 1837,333 z"
         inkscape:connector-curvature="0"
         sodipodi:nodetypes="cccccccccsccccccsccccsccc" />
      <path
         id="path21591"
         d="m 3265,6660 c -49,-4 -102,-13 -117,-20 -48,-23 -32,-52 35,-64 26,-5 41,-14 47,-29 9,-22 71,-607 70,-662 -1,-22 -9,-35 -32,-50 -35,-22 -42,-34 -29,-53 7,-11 46,-12 205,-6 l 196,7 v 66 c 0,36 7,219 15,406 8,187 15,357 15,378 v 37 l -157,-2 c -87,0 -198,-4 -248,-8 z"
         inkscape:connector-curvature="0" />
      <path
         id="path21593"
         d="m 3765,6661 c -3,-2 -5,-22 -5,-43 0,-34 3,-38 25,-38 42,0 136,-41 175,-76 20,-18 45,-53 55,-76 10,-24 25,-51 33,-60 18,-21 55,-23 71,-4 11,13 64,236 57,243 -12,12 -402,64 -411,54 z"
         inkscape:connector-curvature="0" />
      <path
         id="path21595"
         d="m 4333,6549 c -22,-22 -14,-37 31,-64 45,-26 60,-51 108,-169 86,-216 153,-482 178,-708 5,-54 10,-104 10,-111 0,-13 152,-118 168,-117 4,1 42,51 85,113 l 78,112 -5,135 c -3,74 -14,189 -26,255 -27,162 -79,372 -93,383 -23,17 -209,93 -327,132 -141,47 -190,56 -207,39 z"
         inkscape:connector-curvature="0" />
      <path
         id="path21597"
         d="m 2594,6521 c -94,-26 -144,-47 -144,-63 1,-37 25,-53 78,-53 35,-1 56,-6 62,-15 18,-29 90,-255 90,-284 0,-18 -10,-38 -30,-56 -28,-26 -29,-31 -18,-57 7,-15 13,-29 14,-31 4,-7 178,68 230,99 74,45 138,116 154,173 7,25 11,72 8,105 -6,82 -39,130 -115,168 -50,24 -71,28 -158,30 -73,2 -119,-2 -171,-16 z"
         inkscape:connector-curvature="0" />
      <path
         id="path21599"
         d="m 2240,6385 c -138,-64 -270,-135 -316,-170 -58,-45 -39,-88 29,-66 19,7 40,9 48,6 13,-5 338,-544 355,-588 4,-11 -1,-32 -11,-51 -21,-39 -15,-66 15,-66 11,0 60,22 108,50 49,27 126,65 173,85 111,48 129,60 129,90 0,23 -4,25 -44,25 -34,0 -48,5 -59,21 -8,11 -79,177 -157,370 -78,192 -145,349 -149,348 -3,0 -58,-24 -121,-54 z"
         inkscape:connector-curvature="0" />
      <path
         id="path21601"
         d="m 3845,6349 c -19,-30 -40,-47 -76,-62 -47,-20 -49,-23 -49,-59 0,-31 5,-40 23,-47 31,-12 62,-50 78,-94 9,-25 21,-40 36,-43 50,-13 53,-5 85,219 14,101 8,120 -40,125 -27,3 -34,-2 -57,-39 z"
         inkscape:connector-curvature="0" />
      <path
         id="path21603"
         d="m 4361,6152 c -104,-342 -112,-357 -196,-380 -37,-10 -45,-16 -45,-36 0,-13 8,-27 18,-31 61,-25 220,-75 238,-75 35,0 37,28 5,73 -17,23 -33,53 -36,67 -4,17 16,88 59,214 l 65,188 -26,64 c -14,35 -28,64 -32,64 -3,0 -26,-67 -50,-148 z"
         inkscape:connector-curvature="0" />
      <path
         id="path21605"
         d="m 5107,6223 c -13,-12 -7,-34 17,-66 58,-76 55,-97 -32,-234 l -50,-78 7,-74 6,-74 79,113 c 121,172 129,180 186,180 27,0 61,-5 76,-10 35,-14 65,10 48,38 -25,41 -278,212 -315,212 -8,0 -19,-3 -22,-7 z"
         inkscape:connector-curvature="0" />
      <path
         id="path21607"
         d="m 3942,5951 c -55,-56 -79,-72 -122,-85 -29,-9 -64,-16 -76,-16 -17,0 -23,-7 -27,-32 -2,-18 -3,-36 -1,-39 2,-4 36,-10 76,-13 40,-4 104,-14 142,-22 38,-8 71,-13 72,-11 6,6 54,225 54,246 0,17 -26,41 -44,41 -3,0 -36,-31 -74,-69 z"
         inkscape:connector-curvature="0" />
      <path
         id="path21609"
         d="m 1630,5962 c -88,-33 -186,-100 -259,-176 l -35,-36 24,-25 c 21,-22 26,-24 44,-11 12,7 37,17 55,21 34,7 37,5 129,-91 112,-117 127,-144 106,-193 -14,-33 -13,-36 11,-60 l 26,-26 55,60 c 139,151 192,258 179,357 -10,69 -60,147 -114,175 -54,28 -152,30 -221,5 z"
         inkscape:connector-curvature="0" />
      <path
         id="path21611"
         d="m 1218,5628 c -160,-186 -271,-340 -266,-372 4,-31 31,-31 68,0 26,22 36,25 55,18 13,-5 146,-94 295,-199 l 271,-190 -5,-42 c -6,-46 10,-69 41,-59 10,4 45,43 78,89 33,45 95,121 138,170 42,48 77,94 77,101 0,8 -7,20 -16,27 -14,11 -21,10 -46,-4 -16,-9 -36,-17 -43,-17 -7,0 -142,122 -299,270 -158,149 -288,270 -290,270 -2,0 -28,-28 -58,-62 z"
         inkscape:connector-curvature="0" />
      <path
         id="path21613"
         d="m 5222,5641 c -18,-22 -32,-47 -32,-56 0,-9 28,-42 63,-73 34,-31 101,-94 148,-139 47,-46 89,-83 94,-83 14,0 74,50 85,70 9,17 3,28 -37,72 -69,73 -264,248 -278,248 -6,0 -26,-18 -43,-39 z"
         inkscape:connector-curvature="0" />
      <path
         id="path21615"
         d="m 3299,5600 c -460,-58 -879,-263 -1207,-592 -295,-294 -483,-645 -568,-1059 -26,-126 -28,-149 -28,-394 0,-245 2,-268 28,-394 85,-414 273,-765 568,-1059 295,-295 651,-486 1059,-567 178,-36 473,-45 654,-21 628,83 1161,430 1501,979 111,177 210,429 253,644 21,99 40,257 41,321 v 32 h -800 -800 v -255 -255 l 490,-2 489,-3 -45,-95 c -145,-305 -420,-580 -724,-724 -596,-281 -1286,-163 -1751,299 -606,602 -606,1578 0,2180 417,415 1021,556 1581,369 183,-61 393,-184 526,-307 l 71,-66 184,185 184,184 -50,51 c -28,28 -86,79 -130,114 -284,222 -581,355 -940,421 -102,19 -478,28 -586,14 z"
         inkscape:connector-curvature="0" />
      <path
         id="path21617"
         d="m 5872,5567 c -8,-10 -8,-23 0,-49 10,-35 8,-42 -47,-140 -102,-179 -250,-396 -406,-593 -5,-7 9,-39 33,-78 33,-55 44,-66 62,-62 11,3 84,18 161,34 l 141,28 55,59 c 70,74 126,138 208,237 35,42 70,77 77,77 7,0 28,-9 47,-20 30,-18 36,-19 47,-5 9,11 9,22 2,44 -27,76 -277,432 -326,464 -31,20 -40,21 -54,4 z"
         inkscape:connector-curvature="0" />
      <path
         id="path21619"
         d="m 847,5099 c -26,-15 -169,-307 -165,-338 4,-36 29,-37 66,-1 36,34 70,50 109,50 28,0 455,-200 486,-227 38,-35 60,-94 59,-160 v -62 l 34,-11 c 20,-7 38,-9 42,-6 14,15 13,126 -2,179 -29,100 -78,140 -331,271 -141,73 -227,123 -240,140 -16,22 -20,43 -20,98 0,73 -7,85 -38,67 z"
         inkscape:connector-curvature="0" />
      <path
         id="path21621"
         d="m 6260,4875 c -8,-2 -61,-9 -117,-15 l -102,-12 -128,-127 c -70,-70 -170,-165 -221,-212 l -93,-84 28,-74 28,-74 158,6 158,5 92,70 c 99,75 248,199 337,280 l 55,49 -41,94 -40,94 -49,2 c -28,0 -57,0 -65,-2 z"
         inkscape:connector-curvature="0" />
      <path
         id="path21623"
         d="m 591,4529 c -42,-69 -135,-476 -129,-562 2,-34 7,-43 24,-45 16,-2 25,7 39,37 9,22 23,42 29,44 6,3 126,-13 266,-35 288,-44 370,-49 415,-26 76,40 150,143 204,285 l 20,52 -39,12 c -36,11 -41,10 -71,-16 -27,-22 -39,-26 -70,-21 -53,8 -602,176 -616,188 -7,6 -13,28 -13,48 0,76 -26,93 -59,39 z"
         inkscape:connector-curvature="0" />
      <path
         id="path21625"
         d="m 6477,4493 c -3,-5 -8,-31 -12,-60 -4,-29 -13,-57 -21,-64 -10,-9 -49,-10 -136,-6 l -122,5 -54,-39 c -33,-23 -49,-40 -41,-43 8,-2 84,-9 169,-16 183,-13 228,-30 273,-97 38,-57 67,-59 67,-4 0,46 -53,258 -75,301 -15,28 -38,39 -48,23 z"
         inkscape:connector-curvature="0" />
      <path
         id="path21627"
         d="m 6576,4004 c -3,-9 -6,-28 -6,-44 0,-15 -6,-33 -14,-39 -12,-10 -617,-90 -684,-91 -15,0 -29,10 -40,30 -21,36 -41,45 -60,27 -12,-13 -12,-43 -3,-202 6,-104 13,-190 15,-192 4,-4 609,-22 770,-23 h 119 l -7,158 c -10,215 -22,332 -37,365 -13,30 -43,36 -53,11 z"
         inkscape:connector-curvature="0" />
      <path
         id="path21629"
         d="m 441,3741 c -23,-43 -7,-538 20,-608 6,-18 15,-23 31,-21 18,2 24,12 30,47 4,25 12,48 18,51 16,10 290,41 301,34 5,-3 9,-17 9,-32 0,-15 3,-44 6,-64 6,-34 10,-38 36,-38 h 30 l -7,74 -7,73 103,12 c 248,27 226,28 246,-8 18,-32 45,-47 63,-36 16,10 1,456 -15,474 -19,19 -45,6 -58,-28 -6,-16 -20,-32 -31,-35 -31,-8 -658,14 -683,24 -13,5 -25,21 -28,37 -13,60 -44,81 -64,44 z"
         inkscape:connector-curvature="0" />
      <path
         id="path21631"
         d="m 5776,3409 c -12,-38 -37,-282 -29,-289 4,-4 61,-17 125,-30 95,-18 121,-20 133,-10 21,18 19,47 -6,68 -75,60 -95,83 -121,137 -15,33 -28,75 -28,93 0,19 -5,32 -12,32 -7,0 -23,3 -35,6 -15,4 -24,1 -27,-7 z"
         inkscape:connector-curvature="0" />
      <path
         id="path21633"
         d="m 6175,3383 c -14,-27 -35,-45 -73,-63 -57,-27 -76,-60 -51,-85 15,-14 294,-56 317,-48 16,6 26,46 18,70 -4,10 -25,31 -47,46 -23,16 -47,43 -56,65 -18,43 -28,52 -63,52 -19,0 -30,-9 -45,-37 z"
         inkscape:connector-curvature="0" />
      <path
         id="path21635"
         d="m 6577,3335 c -14,-96 -81,-186 -168,-224 -55,-25 -72,-63 -42,-91 17,-16 232,-64 242,-54 7,7 39,229 46,323 l 8,91 h -40 c -40,0 -40,0 -46,-45 z"
         inkscape:connector-curvature="0" />
      <path
         id="path21637"
         d="m 1292,3168 c -6,-6 -12,-22 -12,-34 0,-30 -7,-32 -384,-105 l -319,-62 -18,24 c -40,54 -50,61 -65,48 -21,-18 -17,-62 21,-216 44,-180 100,-355 124,-384 30,-37 51,-19 51,45 v 54 l 43,17 c 91,37 605,215 619,215 8,0 25,-11 38,-25 27,-29 42,-31 60,-10 11,13 8,34 -19,118 -17,56 -44,152 -59,212 -22,92 -30,110 -47,113 -11,1 -26,-3 -33,-10 z"
         inkscape:connector-curvature="0" />
      <path
         id="path21639"
         d="m 5710,2991 c -6,-12 -20,-51 -31,-88 -11,-38 -44,-126 -72,-197 -37,-95 -48,-132 -41,-144 17,-26 30,-25 68,9 l 37,32 307,-136 c 169,-75 333,-147 364,-161 l 57,-25 32,77 c 43,104 107,293 125,370 11,49 12,67 3,78 -19,23 -37,16 -61,-26 -14,-25 -30,-40 -42,-40 -28,0 -658,179 -672,191 -7,6 -14,25 -16,42 -4,39 -40,50 -58,18 z"
         inkscape:connector-curvature="0" />
      <path
         id="path21641"
         d="m 1313,2529 c -7,-7 -13,-23 -13,-35 0,-31 17,-41 86,-47 70,-6 134,-35 185,-84 36,-34 37,-35 68,-19 17,9 31,23 31,30 0,26 -106,112 -166,135 -72,28 -173,39 -191,20 z"
         inkscape:connector-curvature="0" />
      <path
         id="path21643"
         d="m 5489,2441 c -51,-32 -104,-105 -120,-165 -13,-46 -5,-137 14,-167 8,-13 21,-19 37,-17 21,3 25,9 28,41 4,46 5,45 96,-17 76,-52 114,-58 174,-26 46,24 57,34 106,89 28,32 36,37 31,20 -41,-128 -45,-202 -14,-266 61,-127 198,-134 326,-18 62,56 116,131 171,241 l 31,61 -33,15 c -32,16 -32,15 -64,-18 -18,-19 -42,-34 -53,-34 -35,0 -237,109 -244,131 -4,12 -4,36 -1,54 6,29 3,34 -24,45 -28,12 -33,11 -55,-10 -35,-33 -67,-28 -175,24 -116,57 -163,60 -231,17 z"
         inkscape:connector-curvature="0" />
      <path
         id="path21645"
         d="m 850,2320 c -69,-32 -129,-64 -133,-72 -14,-22 10,-67 47,-89 26,-15 40,-34 56,-75 11,-30 20,-59 20,-64 0,-12 38,-111 49,-128 7,-12 14,-11 40,2 36,19 36,17 15,76 -29,82 0,204 68,286 21,25 38,54 38,63 0,27 -30,61 -53,60 -12,0 -78,-27 -147,-59 z"
         inkscape:connector-curvature="0" />
      <path
         id="path21647"
         d="m 1668,2299 c -23,-17 -26,-24 -18,-45 13,-34 4,-67 -28,-96 -32,-29 -447,-330 -479,-346 -31,-17 -78,-15 -93,4 -27,31 -49,36 -80,17 -17,-9 -30,-20 -30,-24 0,-4 33,-40 73,-81 75,-76 160,-129 266,-163 127,-41 287,9 394,124 129,140 167,313 108,485 -22,63 -67,146 -79,146 -4,0 -19,-10 -34,-21 z"
         inkscape:connector-curvature="0" />
      <path
         id="path21649"
         d="m 5112,1967 c -65,-62 -137,-128 -160,-147 -62,-50 -52,-95 19,-84 l 35,6 217,-268 c 130,-161 217,-277 217,-290 0,-11 -9,-29 -20,-39 -21,-19 -27,-60 -10,-70 27,-17 177,103 352,280 110,111 141,156 119,178 -9,9 -22,6 -57,-13 -39,-20 -49,-22 -66,-11 -12,7 -131,115 -265,239 -206,190 -243,229 -237,246 3,12 7,34 8,51 2,57 -28,42 -152,-78 z"
         inkscape:connector-curvature="0" />
      <path
         id="path21651"
         d="m 1927,1786 c -107,-39 -176,-141 -164,-245 11,-89 46,-159 158,-309 111,-148 131,-191 109,-231 -21,-40 -56,-44 -145,-16 -15,5 -24,-1 -39,-25 -10,-17 -16,-33 -14,-34 26,-20 87,-49 146,-70 79,-28 186,-35 251,-16 97,28 161,115 161,220 0,86 -36,156 -155,305 -139,172 -159,221 -114,279 23,29 74,35 125,15 24,-9 30,-7 46,13 27,35 22,45 -29,72 -108,54 -251,72 -336,42 z"
         inkscape:connector-curvature="0" />
      <path
         id="path21653"
         d="m 4749,1676 c -46,-29 -129,-77 -184,-107 -85,-46 -100,-58 -100,-79 0,-21 6,-26 37,-31 22,-3 59,-23 90,-48 87,-69 257,-188 354,-248 l 91,-57 -14,-55 c -22,-82 -69,-164 -125,-216 -54,-49 -62,-87 -21,-93 24,-3 143,54 273,131 101,59 130,84 130,109 0,26 -23,32 -65,18 -20,-7 -47,-9 -61,-6 -43,11 -46,43 -18,178 14,68 28,154 31,191 5,61 4,70 -17,93 -13,13 -53,41 -89,61 -52,28 -168,101 -190,119 -2,2 2,17 7,34 27,76 -15,78 -129,6 z"
         inkscape:connector-curvature="0" />
      <path
         id="path21655"
         d="m 2351,1642 c -11,-26 -9,-34 18,-78 43,-69 65,-163 57,-241 -6,-58 -5,-63 18,-78 18,-12 30,-14 43,-7 10,6 44,69 76,141 48,110 56,134 46,152 -9,18 -17,20 -53,15 -41,-7 -43,-6 -104,59 -35,36 -69,65 -76,65 -8,0 -19,-13 -25,-28 z"
         inkscape:connector-curvature="0" />
      <path
         id="path21657"
         d="m 1563,1379 c -88,-92 -115,-131 -107,-153 8,-21 55,-46 88,-46 19,0 39,-18 85,-74 34,-41 78,-88 100,-105 l 39,-31 16,25 c 22,34 20,47 -13,79 -63,61 -90,179 -67,292 7,36 5,44 -15,63 -12,11 -31,21 -41,21 -10,0 -48,-32 -85,-71 z"
         inkscape:connector-curvature="0" />
    </g>
    <g
       aria-label="PARKING ONLY"
       style="font-style:normal;font-variant:normal;font-weight:bold;font-stretch:normal;font-size:34.67768478px;line-height:1;font-family:'Sitka Small';-inkscape-font-specification:'Sitka Small Bold';text-align:center;letter-spacing:0px;word-spacing:0px;text-anchor:middle;fill:#000000;fill-opacity:1;stroke:none;stroke-width:0.26458329"
       id="text861"
       transform="translate(-236.65308,-5.5262218)">
      <path
         d="m -214.22688,226.42084 2.55354,-1.04033 q 0.26796,-0.11033 0.40983,-0.2522 0.14186,-0.15762 0.14186,-0.5044 v -16.40885 q 0,-0.31525 -0.15763,-0.45712 -0.15762,-0.14186 -0.39406,-0.23643 l -2.55354,-1.04033 v -1.46592 h 11.66431 q 1.84423,0 3.45201,0.3783 1.62355,0.3783 2.8215,1.18219 1.19796,0.80389 1.89151,2.08066 0.69356,1.26101 0.69356,3.04218 0,1.87575 -0.59898,3.37319 -0.59898,1.49745 -1.67084,2.53778 -1.07185,1.04033 -2.55354,1.60778 -1.48168,0.55169 -3.24709,0.55169 -0.40982,0 -0.92999,-0.0788 -0.52017,-0.0946 -1.05609,-0.2522 -0.52017,-0.15763 -1.04033,-0.36254 -0.50441,-0.22068 -0.88271,-0.45711 v 6.00554 q 0,0.34678 0.17339,0.52016 0.18915,0.15763 0.40983,0.23644 l 2.66387,1.04033 v 1.46592 h -11.79041 z m 11.11262,-9.6467 q 0.78813,0 1.37135,-0.22067 0.58321,-0.23644 0.99304,-0.59898 0.40983,-0.36254 0.66203,-0.81966 0.26796,-0.47287 0.40983,-0.94575 0.14186,-0.48864 0.18915,-0.92999 0.063,-0.44136 0.063,-0.77237 0,-0.89847 -0.22068,-1.71812 -0.20491,-0.83542 -0.72508,-1.46592 -0.5044,-0.63051 -1.37134,-1.00881 -0.86694,-0.3783 -2.15948,-0.3783 h -1.78117 v 8.59061 q 0.22068,0.0631 0.53593,0.11034 0.31525,0.0473 0.66203,0.0946 0.34677,0.0315 0.69355,0.0473 0.36254,0.0158 0.67779,0.0158 z"
         style="font-style:normal;font-variant:normal;font-weight:bold;font-stretch:normal;line-height:1;font-family:'Sitka Small';-inkscape-font-specification:'Sitka Small Bold';text-align:center;text-anchor:middle;stroke-width:0.26458329"
         id="path892"
         inkscape:connector-curvature="0" />
      <path
         d="m -193.89192,226.42084 1.6866,-0.81965 q 0.53593,-0.2522 0.77237,-0.85118 l 6.46266,-16.26699 1.90727,-3.81454 h 4.24014 l 7.72366,20.16034 q 0.11034,0.26797 0.28373,0.50441 0.17339,0.23643 0.40983,0.33101 l 1.7654,0.7566 v 1.46592 h -10.48211 v -1.46592 l 2.63235,-1.04033 -1.87575,-4.58691 h -8.22807 l -1.73388,4.49234 2.67964,1.1349 v 1.46592 h -8.24384 z m 14.43853,-8.41722 -2.17523,-5.61148 -0.56746,-2.12794 h -0.34677 l -2.93185,7.73942 z"
         style="font-style:normal;font-variant:normal;font-weight:bold;font-stretch:normal;line-height:1;font-family:'Sitka Small';-inkscape-font-specification:'Sitka Small Bold';text-align:center;text-anchor:middle;stroke-width:0.26458329"
         id="path894"
         inkscape:connector-curvature="0" />
      <path
         d="m -166.95144,226.42084 2.55354,-1.04033 q 0.22067,-0.0946 0.3783,-0.2522 0.17339,-0.15762 0.17339,-0.5044 v -16.40885 q 0,-0.31525 -0.17339,-0.45712 -0.15763,-0.15762 -0.3783,-0.23643 l -2.55354,-1.04033 v -1.46592 h 11.91651 q 1.74965,0 3.05794,0.23643 1.32406,0.23644 2.25405,0.66203 0.94576,0.40983 1.54473,0.97728 0.61475,0.55169 0.96152,1.19796 0.36254,0.64626 0.50441,1.35558 0.14186,0.69355 0.14186,1.38711 0,1.30829 -0.39407,2.30134 -0.39406,0.99304 -1.02456,1.73388 -0.63051,0.72508 -1.4344,1.22948 -0.78813,0.48864 -1.59202,0.78813 l 5.31199,7.73943 q 0.0946,0.14186 0.20491,0.29949 0.1261,0.14186 0.26797,0.28373 0.15762,0.1261 0.31525,0.23643 0.15763,0.11034 0.33101,0.15763 l 2.52202,0.81965 v 1.46592 h -6.00555 q -0.83541,0 -1.30829,-0.1261 -0.47288,-0.14186 -0.80389,-0.40982 -0.31526,-0.26797 -0.56746,-0.67779 -0.2522,-0.42559 -0.6305,-0.99305 l -4.87064,-7.37689 -2.15947,-0.53592 v 6.85672 q 0,0.34678 0.15762,0.5044 0.17339,0.14187 0.42559,0.2522 l 2.53778,1.04033 v 1.46592 h -11.66431 z m 10.86042,-10.73432 q 0.97728,0 1.68659,-0.33101 0.70932,-0.34678 1.16644,-0.89847 0.45711,-0.55169 0.67779,-1.261 0.22067,-0.72508 0.22067,-1.46592 0,-1.98609 -1.04033,-2.90032 -1.04033,-0.91423 -3.04218,-0.91423 h -1.98608 v 7.5818 q 0.1261,0.0315 0.42559,0.0631 0.31525,0.0315 0.66203,0.0631 0.36254,0.0315 0.69355,0.0473 0.34678,0.0158 0.53593,0.0158 z"
         style="font-style:normal;font-variant:normal;font-weight:bold;font-stretch:normal;line-height:1;font-family:'Sitka Small';-inkscape-font-specification:'Sitka Small Bold';text-align:center;text-anchor:middle;stroke-width:0.26458329"
         id="path896"
         inkscape:connector-curvature="0" />
      <path
         d="m -140.80772,226.42084 2.55354,-1.04033 q 0.2522,-0.11033 0.39406,-0.2522 0.15763,-0.15762 0.15763,-0.5044 v -16.40885 q 0,-0.31525 -0.17339,-0.45712 -0.15763,-0.14186 -0.3783,-0.23643 l -2.55354,-1.04033 v -1.46592 h 11.66431 v 1.46592 l -2.53777,1.04033 q -0.22068,0.0946 -0.40983,0.23643 -0.17339,0.14187 -0.17339,0.45712 v 8.57485 l 8.60637,-9.36298 -1.40287,-0.94575 v -1.46592 h 8.60637 v 1.46592 l -2.6954,0.85117 q -0.31525,0.0946 -0.6305,0.26797 -0.31525,0.17339 -0.61474,0.48864 l -6.22622,6.4469 7.64485,10.19839 q 0.0788,0.11034 0.20491,0.2522 0.1261,0.1261 0.26797,0.26796 0.14186,0.1261 0.28372,0.23644 0.14187,0.11034 0.26797,0.15763 l 2.33286,0.85118 v 1.3871 h -10.08805 v -1.3871 l 0.92999,-0.81966 -5.91097,-7.91281 -1.57626,0.6305 v 6.22622 q 0,0.34678 0.17339,0.5044 0.18915,0.15763 0.40983,0.2522 l 2.53777,1.04033 v 1.46592 h -11.66431 z"
         style="font-style:normal;font-variant:normal;font-weight:bold;font-stretch:normal;line-height:1;font-family:'Sitka Small';-inkscape-font-specification:'Sitka Small Bold';text-align:center;text-anchor:middle;stroke-width:0.26458329"
         id="path898"
         inkscape:connector-curvature="0" />
      <path
         d="m -114.12216,226.42084 2.71117,-1.04033 q 0.26796,-0.11033 0.40982,-0.2522 0.14187,-0.15762 0.14187,-0.5044 v -16.40885 q 0,-0.31525 -0.17339,-0.45712 -0.15763,-0.15762 -0.3783,-0.23643 l -2.71117,-1.04033 v -1.46592 h 11.97957 v 1.46592 l -2.69541,1.04033 q -0.2522,0.0946 -0.42559,0.23643 -0.15762,0.14187 -0.15762,0.45712 v 16.40885 q 0,0.34678 0.15762,0.5044 0.17339,0.15763 0.42559,0.2522 l 2.69541,1.04033 v 1.46592 h -11.97957 z"
         style="font-style:normal;font-variant:normal;font-weight:bold;font-stretch:normal;line-height:1;font-family:'Sitka Small';-inkscape-font-specification:'Sitka Small Bold';text-align:center;text-anchor:middle;stroke-width:0.26458329"
         id="path900"
         inkscape:connector-curvature="0" />
      <path
         d="m -90.924561,212.84926 -1.087618,-1.97032 h -0.331015 v 13.65039 q 0,0.34678 0.173389,0.48864 0.189151,0.14187 0.378302,0.23644 l 2.506251,1.16643 v 1.46592 h -9.3945 v -1.46592 l 2.553538,-1.16643 q 0.236439,-0.11034 0.394065,-0.23644 0.157626,-0.14186 0.157626,-0.48864 v -16.31427 q 0,-0.31525 -0.173389,-0.45712 -0.157626,-0.15762 -0.378302,-0.23643 l -2.632351,-1.04033 v -1.46592 h 8.54332 l 9.504838,13.65039 1.134906,1.98609 h 0.331015 v -12.3421 q 0,-0.31526 -0.157626,-0.42559 -0.157626,-0.12611 -0.42559,-0.25221 l -2.522013,-1.15066 v -1.46592 h 9.3945 v 1.46592 l -2.537776,1.15066 q -0.204914,0.0946 -0.394065,0.23644 -0.173388,0.1261 -0.173388,0.44136 V 224.419 l -0.48864,3.62539 h -3.735733 z"
         style="font-style:normal;font-variant:normal;font-weight:bold;font-stretch:normal;line-height:1;font-family:'Sitka Small';-inkscape-font-specification:'Sitka Small Bold';text-align:center;text-anchor:middle;stroke-width:0.26458329"
         id="path902"
         inkscape:connector-curvature="0" />
      <path
         d="m -57.926089,228.40693 q -2.490488,0 -4.69725,-0.7566 -2.206761,-0.77237 -3.861833,-2.26982 -1.639308,-1.49744 -2.600826,-3.71997 -0.945755,-2.22252 -0.945755,-5.1386 0,-2.77421 0.929992,-4.99674 0.929993,-2.22252 2.585064,-3.78302 1.655072,-1.56049 3.940646,-2.39591 2.301337,-0.83542 5.028264,-0.83542 1.733885,0 3.089467,0.1261 1.355582,0.11034 2.427438,0.29949 1.071856,0.17339 1.923035,0.3783 0.866942,0.18916 1.607784,0.34678 v 6.54147 h -2.395913 l -0.788129,-3.08946 q -0.06305,-0.23644 -0.299489,-0.39407 -0.220677,-0.15762 -0.42559,-0.23644 -0.551691,-0.23644 -1.229482,-0.42559 -0.662028,-0.20491 -1.355582,-0.34677 -0.693554,-0.15763 -1.371345,-0.23644 -0.677791,-0.0788 -1.245244,-0.0788 -1.418632,0 -2.648114,0.52016 -1.213719,0.52017 -2.096424,1.57626 -0.882704,1.04033 -1.387107,2.64811 -0.504403,1.59202 -0.504403,3.73574 0,2.14371 0.441353,3.92488 0.457115,1.76541 1.324057,3.04218 0.882704,1.27677 2.159474,1.98608 1.292532,0.70932 2.963365,0.70932 0.662029,0 1.229482,-0.0946 0.567453,-0.0946 1.024568,-0.23643 0.457115,-0.14187 0.803892,-0.28373 0.346777,-0.14186 0.567453,-0.23644 v -4.66572 q 0,-0.31526 -0.173389,-0.45712 -0.157625,-0.14186 -0.378302,-0.22068 l -3.404718,-1.08761 v -1.4344 h 11.916514 v 1.4344 l -2.001848,1.08761 q -0.204914,0.11034 -0.394065,0.23644 -0.173388,0.1261 -0.173388,0.44136 v 2.47472 q 0,1.5605 0.01576,2.61659 0.01576,1.05609 0.09458,1.67083 -0.961518,0.31526 -2.112187,0.61474 -1.134906,0.28373 -2.395912,0.50441 -1.245245,0.23644 -2.569302,0.36254 -1.308294,0.14186 -2.616589,0.14186 z"
         style="font-style:normal;font-variant:normal;font-weight:bold;font-stretch:normal;line-height:1;font-family:'Sitka Small';-inkscape-font-specification:'Sitka Small Bold';text-align:center;text-anchor:middle;stroke-width:0.26458329"
         id="path904"
         inkscape:connector-curvature="0" />
      <path
         d="m -167.67701,263.08461 q -2.85303,0 -5.05979,-0.81965 -2.191,-0.81965 -3.70421,-2.36439 -1.49745,-1.56049 -2.26981,-3.78302 -0.77237,-2.22252 -0.77237,-5.02826 0,-2.63235 0.80389,-4.82335 0.8039,-2.191 2.33287,-3.76726 1.52897,-1.59202 3.71997,-2.45896 2.20676,-0.88271 4.98097,-0.88271 3.02642,0 5.23318,0.89847 2.22252,0.89847 3.67268,2.49049 1.46592,1.59202 2.17524,3.78302 0.70931,2.191 0.70931,4.7603 0,1.52897 -0.29948,3.02641 -0.29949,1.48169 -0.91423,2.82151 -0.61474,1.32405 -1.57626,2.45896 -0.96152,1.11914 -2.26981,1.9388 -1.3083,0.81965 -2.9949,1.27677 -1.68659,0.47287 -3.76725,0.47287 z m 0.23644,-2.78997 q 1.43439,0 2.50625,-0.61474 1.07185,-0.63051 1.78117,-1.76541 0.70931,-1.13491 1.05609,-2.72693 0.36254,-1.60778 0.36254,-3.57811 0,-2.26981 -0.3783,-4.05098 -0.36254,-1.79694 -1.13491,-3.02642 -0.7566,-1.24524 -1.92303,-1.90727 -1.16643,-0.66203 -2.75845,-0.66203 -1.52898,0 -2.60083,0.67779 -1.07186,0.66203 -1.76541,1.82846 -0.67779,1.15067 -0.99304,2.72693 -0.31525,1.5605 -0.31525,3.35743 0,2.25405 0.36253,4.05098 0.36254,1.79694 1.11915,3.07371 0.7566,1.261 1.90727,1.9388 1.16643,0.67779 2.77422,0.67779 z"
         style="font-style:normal;font-variant:normal;font-weight:bold;font-stretch:normal;line-height:1;font-family:'Sitka Small';-inkscape-font-specification:'Sitka Small Bold';text-align:center;text-anchor:middle;stroke-width:0.26458329"
         id="path906"
         inkscape:connector-curvature="0" />
      <path
         d="m -144.83752,247.52694 -1.08762,-1.97032 h -0.33101 v 13.6504 q 0,0.34678 0.17338,0.48864 0.18916,0.14186 0.37831,0.23644 l 2.50625,1.16643 v 1.46592 h -9.3945 v -1.46592 l 2.55354,-1.16643 q 0.23643,-0.11034 0.39406,-0.23644 0.15763,-0.14186 0.15763,-0.48864 v -16.31428 q 0,-0.31525 -0.17339,-0.45711 -0.15763,-0.15763 -0.3783,-0.23644 l -2.63236,-1.04033 v -1.46592 h 8.54332 l 9.50484,13.6504 1.13491,1.98608 h 0.33101 v -12.3421 q 0,-0.31525 -0.15762,-0.42559 -0.15763,-0.1261 -0.42559,-0.2522 l -2.52202,-1.15067 v -1.46592 h 9.3945 v 1.46592 l -2.53777,1.15067 q -0.20492,0.0946 -0.39407,0.23644 -0.17338,0.1261 -0.17338,0.44135 v 16.10936 l -0.48864,3.6254 h -3.73574 z"
         style="font-style:normal;font-variant:normal;font-weight:bold;font-stretch:normal;line-height:1;font-family:'Sitka Small';-inkscape-font-specification:'Sitka Small Bold';text-align:center;text-anchor:middle;stroke-width:0.26458329"
         id="path908"
         inkscape:connector-curvature="0" />
      <path
         d="m -123.7398,261.09853 2.55354,-1.04033 q 0.20492,-0.0788 0.3783,-0.23644 0.17339,-0.17339 0.17339,-0.52017 v -16.40885 q 0,-0.31525 -0.17339,-0.45711 -0.15762,-0.14186 -0.3783,-0.23644 l -2.55354,-1.04033 v -1.46592 h 11.66432 v 1.46592 l -2.53778,1.04033 q -0.22068,0.0946 -0.40983,0.23644 -0.17339,0.14186 -0.17339,0.45711 v 16.73987 h 7.47147 q 0.11034,0 0.22068,-0.0315 0.1261,-0.0473 0.22067,-0.11033 0.0946,-0.0788 0.15763,-0.18916 0.0631,-0.1261 0.0946,-0.28372 l 0.86695,-4.77607 h 2.45896 v 8.32265 h -20.03425 z"
         style="font-style:normal;font-variant:normal;font-weight:bold;font-stretch:normal;line-height:1;font-family:'Sitka Small';-inkscape-font-specification:'Sitka Small Bold';text-align:center;text-anchor:middle;stroke-width:0.26458329"
         id="path910"
         inkscape:connector-curvature="0" />
      <path
         d="m -97.923635,261.09853 2.663877,-1.04033 q 0.267964,-0.0946 0.425589,-0.2522 0.157626,-0.15763 0.157626,-0.50441 v -5.12284 l -6.541477,-11.47516 q -0.1261,-0.22067 -0.29948,-0.44135 -0.17339,-0.23644 -0.44136,-0.34678 l -1.82846,-0.7566 v -1.46592 h 10.513647 v 1.46592 l -2.553538,1.02457 4.098271,6.84096 0.772367,1.9388 h 0.331014 l 4.886401,-8.68519 -2.569301,-1.11914 v -1.46592 h 8.243832 v 1.46592 l -1.781172,0.81965 q -0.236439,0.11034 -0.441353,0.34678 -0.189151,0.22068 -0.315251,0.44135 l -6.620286,11.3333 v 5.20165 q 0,0.34678 0.141864,0.50441 0.157625,0.15762 0.394064,0.2522 l 2.695402,1.04033 v 1.46592 h -11.932276 z"
         style="font-style:normal;font-variant:normal;font-weight:bold;font-stretch:normal;line-height:1;font-family:'Sitka Small';-inkscape-font-specification:'Sitka Small Bold';text-align:center;text-anchor:middle;stroke-width:0.26458329"
         id="path912"
         inkscape:connector-curvature="0" />
    </g>
    <path
       style="opacity:1;fill:none;fill-opacity:1;stroke:#000000;stroke-width:0.40000001;stroke-linejoin:round;stroke-miterlimit:4;stroke-dasharray:none;stroke-opacity:1;paint-order:markers fill stroke"
       d="M -239.8,-3 H -20.199997 V 296.59998 H -239.8 Z"
       id="rect867" />
    <path
       style="color:#000000;font-style:normal;font-variant:normal;font-weight:normal;font-stretch:normal;font-size:medium;line-height:normal;font-family:sans-serif;font-variant-ligatures:normal;font-variant-position:normal;font-variant-caps:normal;font-variant-numeric:normal;font-variant-alternates:normal;font-feature-settings:normal;text-indent:0;text-align:start;text-decoration:none;text-decoration-line:none;text-decoration-style:solid;text-decoration-color:#000000;letter-spacing:normal;word-spacing:normal;text-transform:none;writing-mode:lr-tb;direction:ltr;text-orientation:mixed;dominant-baseline:auto;baseline-shift:baseline;text-anchor:start;white-space:normal;shape-padding:0;clip-rule:nonzero;display:inline;overflow:visible;visibility:visible;opacity:1;isolation:auto;mix-blend-mode:normal;color-interpolation:sRGB;color-interpolation-filters:linearRGB;solid-color:#000000;solid-opacity:1;vector-effect:none;fill:#000000;fill-opacity:1;fill-rule:nonzero;stroke:none;stroke-width:7;stroke-linecap:butt;stroke-linejoin:round;stroke-miterlimit:4;stroke-dasharray:none;stroke-dashoffset:0;stroke-opacity:1;paint-order:markers fill stroke;color-rendering:auto;image-rendering:auto;shape-rendering:auto;text-rendering:auto;enable-background:accumulate"
       d="m -193.03925,7.0000001 c -19.29457,0 -34.93522,15.6195419 -34.93522,34.8880549 V 251.73397 c 0,19.26852 15.64065,34.88806 34.93522,34.88806 h 126.078502 c 19.294566,0 34.935214,-15.61954 34.935214,-34.88806 V 41.888055 c 0,-19.268513 -15.640648,-34.8880549 -34.935214,-34.8880549 z m 0,6.8200489 h 126.078502 c 15.62928,0 28.105946,12.459834 28.105946,28.068006 V 251.73397 c 0,15.60818 -12.476666,28.068 -28.105946,28.068 H -193.03925 c -15.62929,0 -28.10595,-12.45982 -28.10595,-28.068 V 41.888055 c 0,-15.608172 12.47666,-28.068006 28.10595,-28.068006 z"
       id="rect875"
       inkscape:connector-curvature="0" />
    <path
       style="opacity:1;fill:none;fill-opacity:1;stroke:#000000;stroke-width:0.2;stroke-linejoin:round;stroke-miterlimit:4;stroke-dasharray:none;stroke-opacity:1;paint-order:markers fill stroke"
       d="m -204.91368,264.79166 a 2.5,2.5 0 0 1 -2.5,2.5 2.5,2.5 0 0 1 -2.5,-2.5 2.5,2.5 0 0 1 2.5,-2.5 2.5,2.5 0 0 1 2.5,2.5 z"
       id="path879" />
    <path
       style="opacity:1;fill:none;fill-opacity:1;stroke:#000000;stroke-width:0.2;stroke-linejoin:round;stroke-miterlimit:4;stroke-dasharray:none;stroke-opacity:1;paint-order:markers fill stroke"
       d="m -50,264.5 a 2.5,2.5 0 0 1 -2.5,2.5 2.5,2.5 0 0 1 -2.5,-2.5 2.5,2.5 0 0 1 2.5,-2.5 2.5,2.5 0 0 1 2.5,2.5 z"
       id="path881" />
    <path
       style="opacity:1;fill:none;fill-opacity:1;stroke:#000000;stroke-width:0.2;stroke-linejoin:round;stroke-miterlimit:4;stroke-dasharray:none;stroke-opacity:1;paint-order:markers fill stroke"
       d="m -49.622025,29.413691 a 2.5,2.5 0 0 1 -2.5,2.5 2.5,2.5 0 0 1 -2.5,-2.5 2.5,2.5 0 0 1 2.5,-2.5 2.5,2.5 0 0 1 2.5,2.5 z"
       id="path883" />
    <path
       style="opacity:1;fill:none;fill-opacity:1;stroke:#000000;stroke-width:0.2;stroke-linejoin:round;stroke-miterlimit:4;stroke-dasharray:none;stroke-opacity:1;paint-order:markers fill stroke"
       d="m -204.62202,29.413691 a 2.5,2.5 0 0 1 -2.5,2.5 2.5,2.5 0 0 1 -2.5,-2.5 2.5,2.5 0 0 1 2.5,-2.5 2.5,2.5 0 0 1 2.5,2.5 z"
       id="path885" />
    <path
       id="path21491-8"
       style="fill:#000000;stroke-width:0.26458338"
       d="m -312.42674,43.289895 c -1.00768,-0.6786 -2.26304,-2.26608 -2.26304,-2.86172 0,-0.21402 2.08079,-0.26426 10.94158,-0.26426 7.43876,0 10.94156,0.0675 10.94156,0.21068 0,0.41585 -0.78445,1.72452 -1.34915,2.25076 -0.31667,0.29512 -0.89489,0.72788 -1.28493,0.9617 -0.68655,0.41161 -0.9517,0.42516 -8.31018,0.42591 h -7.60104 l -1.0748,-0.72382 z m -94.66086,0.013 c -1.30532,-0.87842 -2.40201,-2.18515 -2.42186,-2.88572 -0.005,-0.19959 2.3151,-0.25328 10.94803,-0.25328 h 10.95522 l -0.13524,0.45588 c -0.25894,0.87291 -1.20379,2.02946 -2.21354,2.70946 l -1.01637,0.68447 h -7.53001 -7.53 z m 0.71158,8.4727 c -1.10366,-0.59326 -1.90389,-1.30394 -2.52637,-2.24372 -1.19908,-1.81024 -2.07734,-1.66836 10.3273,-1.66836 7.5044,0 10.94156,0.0666 10.94156,0.21269 0,0.80811 -1.43706,2.7189 -2.599,3.45581 l -0.9249,0.58654 -7.30536,-0.008 c -6.32351,-0.008 -7.38706,-0.0521 -7.91323,-0.33485 z m 92.2941,2.36734 v -6.28314 l 10.38438,0.0525 10.38433,0.0525 0.0537,6.23061 0.0537,6.2306 h -1.82652 -1.82654 v -4.15374 -4.15373 h -6.7878 -6.78783 v 4.15373 4.15374 h -1.82359 -1.82358 z m -31.00109,-3.94927 v -10.2324 h 1.8236 1.82359 v 8.2062 8.20615 h 8.19203 8.19204 l -0.18412,0.64196 c -0.29162,1.01674 -1.11674,2.1139 -2.09704,2.78837 l -0.90421,0.62212 h -8.42294 -8.42295 z m -61.29301,9.83079 c -1.2074,-0.5978 -2.29185,-1.56567 -2.74126,-2.44663 -0.21965,-0.43054 -0.39936,-0.87765 -0.39936,-0.99351 0,-0.14319 3.5028,-0.2107 10.94155,-0.2107 8.86076,0 10.94156,0.0501 10.94156,0.26426 0,0.46737 -1.15194,2.09824 -1.85294,2.62327 -1.59012,1.19103 -1.38781,1.16492 -9.0279,1.16475 -6.61984,-1.5e-4 -7.10075,-0.0247 -7.86165,-0.40144 z m 29.68406,0.39939 c 0,-0.51512 0.91941,-2.07764 1.5465,-2.62824 1.62881,-1.43013 1.57792,-1.42199 8.88043,-1.42199 h 6.59327 v -2.12751 -2.12755 h -8.51012 -8.51008 v -6.07862 -6.07866 h 10.33369 c 5.68355,0 10.33372,0.0345 10.33372,0.0765 0,0.0422 -0.13346,0.39582 -0.29644,0.78601 -0.38103,0.91193 -1.202,1.8828 -2.20882,2.61216 l -0.79752,0.57769 h -6.85873 -6.85871 v 2.02621 2.02621 h 8.6114 8.61142 v 6.28131 6.28125 h -10.435 c -6.89658,0 -10.43501,-0.0694 -10.43501,-0.20482 z m -56.17456,-8.05199 -0.0529,-8.25685 -3.34327,-0.10135 -3.34325,-0.10135 -0.93535,-0.6734 c -0.51445,-0.37038 -1.11578,-0.91745 -1.3363,-1.21573 -0.41597,-0.56265 -1.07159,-1.75607 -1.07159,-1.9506 0,-0.0613 5.42517,-0.11141 12.05597,-0.11141 8.21016,0 12.05597,0.0671 12.05597,0.2107 0,0.46831 -0.82205,1.75677 -1.55315,2.43433 -1.45095,1.34472 -1.28628,1.29849 -5.01171,1.40741 l -3.46489,0.10135 -0.053,8.25685 -0.0529,8.25682 h -1.92036 -1.92037 z"
       inkscape:connector-curvature="0" />
    <path
       id="path839-1"
       style="fill:#000000;stroke-width:0.26458338"
       d="m -427.0449,82.065615 c -0.94341,-1.38174 -1.73727,-2.60777 -1.76411,-2.72451 -0.0269,-0.11674 0.14277,-0.2692 0.37693,-0.33878 0.23415,-0.0695 1.57524,-0.48634 2.98018,-0.92614 9.91389,-3.10342 22.53126,-5.24078 36.18789,-6.1302 12.07486,-0.7864 29.66139,-0.82468 41.5522,-0.0905 12.02503,0.74251 23.11723,2.38339 32.3385,4.78386 3.24691,0.84523 8.22666,2.34304 8.42336,2.53358 0.0804,0.078 -0.66631,1.32888 -1.65947,2.77988 l -1.80574,2.63815 -2.51279,-0.82228 c -9.70671,-3.17646 -21.52809,-5.36867 -34.35812,-6.37156 -13.4297,-1.04976 -31.53842,-0.94489 -44.27694,0.2564 -11.27331,1.06311 -22.73889,3.31286 -31.491,6.17907 l -2.27556,0.74521 z m 56.89453,96.370545 c -2.96702,-15.84049 -14.0749,-75.19495 -15.38916,-82.231175 -0.56857,-3.04403 -1.08359,-5.57674 -1.14448,-5.62824 -0.20222,-0.17099 -6.2087,0.13616 -8.28492,0.42366 -7.47189,1.03464 -11.57591,3.58484 -12.1524,7.55134 -0.10634,0.73167 -0.15431,0.79835 -0.53527,0.74377 -1.75861,-0.25184 -6.71027,-2.89421 -10.04683,-5.36128 -1.72197,-1.27325 -4.00997,-3.47911 -4.41984,-4.26115 -0.31673,-0.60435 -0.36381,-0.57584 2.55633,-1.54806 7.49944,-2.49683 18.06815,-4.17136 30.68678,-4.8621 3.43619,-0.18809 14.15573,-0.25626 14.42197,-0.0917 0.0888,0.0549 1.58971,1.9378 3.3352,4.18418 1.74548,2.24637 3.24067,4.04288 3.32262,3.99222 0.082,-0.0506 1.57343,-1.91824 3.31439,-4.15021 l 3.16535,-4.0581 2.4193,-0.089 c 2.83149,-0.10417 11.55923,0.11334 15.20735,0.379 11.95523,0.8706 20.86008,2.41842 28.01701,4.86985 1.25311,0.42923 2.30705,0.80906 2.34207,0.84406 0.13719,0.1372 -1.22903,1.79952 -2.31036,2.81105 -2.16118,2.02168 -5.31003,4.15124 -8.5002,5.74869 -1.54002,0.77113 -4.14151,1.813873 -4.2412,1.699923 -0.0228,-0.0261 -0.12912,-0.468893 -0.23624,-0.984033 -0.31394,-1.50952 -0.95225,-2.6164 -2.13243,-3.69783 -2.84976,-2.61129 -8.28566,-3.99564 -16.40529,-4.17789 -1.58369,-0.0355 -1.93115,7.9e-4 -1.99299,0.21241 -0.0413,0.14048 -0.68895,3.55065 -1.43945,7.57814 -0.75051,4.027525 -3.86037,20.656985 -6.91083,36.954315 -3.05045,16.2973 -6.58242,35.18738 -7.8488,41.97795 -1.26639,6.79054 -2.3589,12.5282 -2.42779,12.75036 -0.0845,0.27284 -0.85362,-3.48483 -2.36989,-11.58013 z"
       inkscape:connector-curvature="0" />
    <path
       inkscape:connector-curvature="0"
       style="opacity:1;fill:none;fill-opacity:1;stroke:#000000;stroke-width:0.40000001;stroke-linejoin:round;stroke-miterlimit:4;stroke-dasharray:none;stroke-opacity:1;paint-order:markers fill stroke"
       d="M -477.67791,-3.2055948 H -258.0779 V 296.39439 h -219.60001 z"
       id="rect867-7" />
    <path
       style="color:#000000;font-style:normal;font-variant:normal;font-weight:normal;font-stretch:normal;font-size:medium;line-height:normal;font-family:sans-serif;font-variant-ligatures:normal;font-variant-position:normal;font-variant-caps:normal;font-variant-numeric:normal;font-variant-alternates:normal;font-feature-settings:normal;text-indent:0;text-align:start;text-decoration:none;text-decoration-line:none;text-decoration-style:solid;text-decoration-color:#000000;letter-spacing:normal;word-spacing:normal;text-transform:none;writing-mode:lr-tb;direction:ltr;text-orientation:mixed;dominant-baseline:auto;baseline-shift:baseline;text-anchor:start;white-space:normal;shape-padding:0;clip-rule:nonzero;display:inline;overflow:visible;visibility:visible;opacity:1;isolation:auto;mix-blend-mode:normal;color-interpolation:sRGB;color-interpolation-filters:linearRGB;solid-color:#000000;solid-opacity:1;vector-effect:none;fill:#000000;fill-opacity:1;fill-rule:nonzero;stroke:none;stroke-width:7;stroke-linecap:butt;stroke-linejoin:round;stroke-miterlimit:4;stroke-dasharray:none;stroke-dashoffset:0;stroke-opacity:1;paint-order:markers fill stroke;color-rendering:auto;image-rendering:auto;shape-rendering:auto;text-rendering:auto;enable-background:accumulate"
       d="m -430.91716,6.7944049 c -19.29457,0 -34.93522,15.6195401 -34.93522,34.8880601 V 251.52838 c 0,19.26853 15.64065,34.88807 34.93522,34.88807 h 126.0785 c 19.29457,0 34.93522,-15.61954 34.93522,-34.88807 V 41.682465 c 0,-19.26852 -15.64065,-34.8880601 -34.93522,-34.8880601 z m 0,6.8200501 h 126.0785 c 15.62928,0 28.10595,12.45984 28.10595,28.06801 V 251.52838 c 0,15.60818 -12.47667,28.06801 -28.10595,28.06801 h -126.0785 c -15.62929,0 -28.10595,-12.45983 -28.10595,-28.06801 V 41.682465 c 0,-15.60817 12.47666,-28.06801 28.10595,-28.06801 z"
       id="rect875-8"
       inkscape:connector-curvature="0" />
    <path
       inkscape:connector-curvature="0"
       style="opacity:1;fill:none;fill-opacity:1;stroke:#000000;stroke-width:0.2;stroke-linejoin:round;stroke-miterlimit:4;stroke-dasharray:none;stroke-opacity:1;paint-order:markers fill stroke"
       d="m -442.79159,264.58608 a 2.5,2.5 0 0 1 -2.5,2.49999 2.5,2.5 0 0 1 -2.5,-2.49999 2.5,2.5 0 0 1 2.5,-2.5 2.5,2.5 0 0 1 2.5,2.5 z"
       id="path879-6" />
    <path
       inkscape:connector-curvature="0"
       style="opacity:1;fill:none;fill-opacity:1;stroke:#000000;stroke-width:0.2;stroke-linejoin:round;stroke-miterlimit:4;stroke-dasharray:none;stroke-opacity:1;paint-order:markers fill stroke"
       d="m -287.87791,264.2944 a 2.5,2.5 0 0 1 -2.5,2.50002 2.5,2.5 0 0 1 -2.5,-2.50002 2.5,2.5 0 0 1 2.5,-2.49999 2.5,2.5 0 0 1 2.5,2.49999 z"
       id="path881-2" />
    <path
       inkscape:connector-curvature="0"
       style="opacity:1;fill:none;fill-opacity:1;stroke:#000000;stroke-width:0.2;stroke-linejoin:round;stroke-miterlimit:4;stroke-dasharray:none;stroke-opacity:1;paint-order:markers fill stroke"
       d="m -287.49993,29.208105 a 2.5,2.5 0 0 1 -2.5,2.49999 2.5,2.5 0 0 1 -2.5,-2.49999 2.5,2.5 0 0 1 2.5,-2.50001 2.5,2.5 0 0 1 2.5,2.50001 z"
       id="path883-1" />
    <path
       inkscape:connector-curvature="0"
       style="opacity:1;fill:none;fill-opacity:1;stroke:#000000;stroke-width:0.2;stroke-linejoin:round;stroke-miterlimit:4;stroke-dasharray:none;stroke-opacity:1;paint-order:markers fill stroke"
       d="m -442.49993,29.208105 a 2.5,2.5 0 0 1 -2.5,2.49999 2.5,2.5 0 0 1 -2.5,-2.49999 2.5,2.5 0 0 1 2.5,-2.50001 2.5,2.5 0 0 1 2.5,2.50001 z"
       id="path885-2" />
    <g
       aria-label="PARKING ONLY"
       transform="scale(0.96219563,1.0392897)"
       style="font-style:normal;font-variant:normal;font-weight:bold;font-stretch:normal;font-size:31.42560768px;line-height:0.89999998;font-family:'Victorian LET';-inkscape-font-specification:'Victorian LET Bold';letter-spacing:0px;word-spacing:0px;fill:#000000;fill-opacity:1;stroke:none;stroke-width:0.26458329"
       id="text2148">
      <path
         d="m -219.5272,214.36237 v -11.78461 h 17.6769 q 0.79792,0 1.38101,-0.5524 0.58309,-0.58309 0.58309,-1.4117 v -1.9641 h -19.641 v -3.9282 h 23.5692 v 7.8564 q 0,1.65721 -1.16618,2.79271 -1.16619,1.13549 -2.76202,1.13549 h -15.7128 v 7.85641 z"
         style="font-style:normal;font-variant:normal;font-weight:bold;font-stretch:normal;line-height:0.89999998;font-family:TESLA;-inkscape-font-specification:'TESLA Bold';text-align:center;text-anchor:middle;stroke-width:0.26458329"
         id="path2156" />
      <path
         d="m -192.0298,214.36237 v -11.78461 h 23.56921 v 11.78461 h -3.9282 v -7.85641 h -15.71281 v 7.85641 z m 3.9282,-15.71281 q -1.6572,0 -2.7927,-1.13549 -1.1355,-1.16619 -1.1355,-2.79271 h 23.56921 q 0,1.65721 -1.16619,2.79271 -1.16618,1.13549 -2.76201,1.13549 z"
         style="font-style:normal;font-variant:normal;font-weight:bold;font-stretch:normal;line-height:0.89999998;font-family:TESLA;-inkscape-font-specification:'TESLA Bold';text-align:center;text-anchor:middle;stroke-width:0.26458329"
         id="path2158" />
      <path
         d="m -164.53239,214.36237 v -11.78461 h 17.6769 q 0.79792,0 1.38101,-0.5524 0.58309,-0.58309 0.58309,-1.4117 v -1.9641 h -15.7128 q -1.65721,0 -2.7927,-1.13549 -1.1355,-1.16619 -1.1355,-2.79271 h 23.56921 v 7.8564 q 0,1.65721 -1.16619,2.79271 -1.16618,1.13549 -2.76202,1.13549 h -3.9282 l 7.85641,7.85641 h -5.89231 l -7.8564,-7.85641 h -5.8923 v 7.85641 z"
         style="font-style:normal;font-variant:normal;font-weight:bold;font-stretch:normal;line-height:0.89999998;font-family:TESLA;-inkscape-font-specification:'TESLA Bold';text-align:center;text-anchor:middle;stroke-width:0.26458329"
         id="path2160" />
      <path
         d="m -137.03498,214.36237 v -19.64101 h 3.9282 v 19.64101 z m 17.6769,0 -9.8205,-9.82051 9.8205,-9.8205 h 5.8923 l -7.8564,7.8564 h -0.0307 l -1.93341,1.9641 9.8205,9.82051 z"
         style="font-style:normal;font-variant:normal;font-weight:bold;font-stretch:normal;line-height:0.89999998;font-family:TESLA;-inkscape-font-specification:'TESLA Bold';text-align:center;text-anchor:middle;stroke-width:0.26458329"
         id="path2162" />
      <path
         d="m -109.53758,214.36237 v -19.64101 h 3.9282 v 19.64101 z"
         style="font-style:normal;font-variant:normal;font-weight:bold;font-stretch:normal;line-height:0.89999998;font-family:TESLA;-inkscape-font-specification:'TESLA Bold';text-align:center;text-anchor:middle;stroke-width:0.26458329"
         id="path2164" />
      <path
         d="m -97.752978,214.36237 v -15.71281 l -3.928202,-3.9282 h 5.892303 l 13.748703,13.7487 v -13.7487 h 3.928201 v 19.64101 h -3.928201 l -11.784603,-11.78461 v 11.78461 z"
         style="font-style:normal;font-variant:normal;font-weight:bold;font-stretch:normal;line-height:0.89999998;font-family:TESLA;-inkscape-font-specification:'TESLA Bold';text-align:center;text-anchor:middle;stroke-width:0.26458329"
         id="path2166" />
      <path
         d="m -70.255572,214.36237 q -1.657209,0 -2.792705,-1.1355 -1.135496,-1.16618 -1.135496,-2.79271 v -7.8564 h 3.928201 v 5.8923 q 0,0.82861 0.552404,1.4117 0.583092,0.5524 1.411697,0.5524 h 13.748703 v -3.9282 h -7.856402 q -1.657209,0 -2.792705,-1.13549 -1.135496,-1.16619 -1.135496,-2.79271 h 15.712804 v 11.78461 z m -3.928201,-15.71281 v -3.9282 h 23.569206 q 0,1.65721 -1.166184,2.79271 -1.166185,1.13549 -2.762017,1.13549 z"
         style="font-style:normal;font-variant:normal;font-weight:bold;font-stretch:normal;line-height:0.89999998;font-family:TESLA;-inkscape-font-specification:'TESLA Bold';text-align:center;text-anchor:middle;stroke-width:0.26458329"
         id="path2168" />
      <path
         d="m -188.10159,250.91739 v -11.7846 h 3.9282 v 7.8564 h 15.7128 v -7.8564 h 3.9282 v 11.7846 z m 3.9282,-15.7128 q -1.65721,0 -2.79271,-1.1355 -1.13549,-1.16618 -1.13549,-2.7927 h 23.5692 q 0,1.65721 -1.16618,2.7927 -1.16619,1.1355 -2.76202,1.1355 z"
         style="font-style:normal;font-variant:normal;font-weight:bold;font-stretch:normal;line-height:0.89999998;font-family:TESLA;-inkscape-font-specification:'TESLA Bold';text-align:center;text-anchor:middle;stroke-width:0.26458329"
         id="path2170" />
      <path
         d="m -156.67599,250.91739 v -15.7128 l -3.9282,-3.9282 h 5.8923 l 13.74871,13.7487 v -13.7487 h 3.9282 v 19.641 h -3.9282 l -11.78461,-11.7846 v 11.7846 z"
         style="font-style:normal;font-variant:normal;font-weight:bold;font-stretch:normal;line-height:0.89999998;font-family:TESLA;-inkscape-font-specification:'TESLA Bold';text-align:center;text-anchor:middle;stroke-width:0.26458329"
         id="path2172" />
      <path
         d="m -133.10678,250.91739 v -19.641 h 3.9282 v 15.7128 h 19.641 q 0,1.65721 -1.16618,2.79271 -1.16619,1.13549 -2.76202,1.13549 z"
         style="font-style:normal;font-variant:normal;font-weight:bold;font-stretch:normal;line-height:0.89999998;font-family:TESLA;-inkscape-font-specification:'TESLA Bold';text-align:center;text-anchor:middle;stroke-width:0.26458329"
         id="path2174" />
      <path
         d="m -95.788874,250.91739 v -5.8923 l -9.820506,-9.8205 v -3.9282 h 3.9282 v 1.9641 l 7.856406,7.8564 7.856402,-7.8564 v -1.9641 h 3.928201 v 3.9282 l -9.820502,9.8205 v 5.8923 z"
         style="font-style:normal;font-variant:normal;font-weight:bold;font-stretch:normal;line-height:0.89999998;font-family:TESLA;-inkscape-font-specification:'TESLA Bold';text-align:center;text-anchor:middle;stroke-width:0.26458329"
         id="path2176" />
    </g>
  </g>
</svg>
