  0
SECTION
  2
HEADER
  9
$ACADVER
  1
AC1014
  9
$HANDSEED
  5
FFFF
  9
$MEASUREMENT
 70
     1
  0
ENDSEC
  0
SECTION
  2
TABLES
  0
TABLE
  2
VPORT
  5
8
330
0
100
AcDbSymbolTable
 70
     4
  0
VPORT
  5
2E
330
8
100
AcDbSymbolTableRecord
100
AcDbViewportTableRecord
  2
*ACTIVE
 70
     0
 10
0.0
 20
0.0
 11
1.0
 21
1.0
 12
210.0
 22
148.5
 13
0.0
 23
0.0
 14
10.0
 24
10.0
 15
10.0
 25
10.0
 16
0.0
 26
0.0
 36
1.0
 17
0.0
 27
0.0
 37
0.0
 40
341.0
 41
1.24
 42
50.0
 43
0.0
 44
0.0
 50
0.0
 51
0.0
 71
     0
 72
   100
 73
     1
 74
     3
 75
     0
 76
     0
 77
     0
 78
     0
  0
ENDTAB
  0
TABLE
  2
LTYPE
  5
5
330
0
100
AcDbSymbolTable
 70
     1
  0
LTYPE
  5
14
330
5
100
AcDbSymbolTableRecord
100
AcDbLinetypeTableRecord
  2
BYBLOCK
 70
     0
  3

 72
    65
 73
     0
 40
0.0
  0
LTYPE
  5
15
330
5
100
AcDbSymbolTableRecord
100
AcDbLinetypeTableRecord
  2
BYLAYER
 70
     0
  3

 72
    65
 73
     0
 40
0.0
  0
LTYPE
  5
16
330
5
100
AcDbSymbolTableRecord
100
AcDbLinetypeTableRecord
  2
CONTINUOUS
 70
     0
  3
Solid line
 72
    65
 73
     0
 40
0.0
  0
ENDTAB
  0
TABLE
  2
LAYER
  5
2
100
AcDbSymbolTable
 70
2
  0
LAYER
  5
50
100
AcDbSymbolTableRecord
100
AcDbLayerTableRecord
  2
0
 70
0
  6
CONTINUOUS
  0
LAYER
  5
51
100
AcDbSymbolTableRecord
100
AcDbLayerTableRecord
  2
Ebene_1
 70
0
  6
CONTINUOUS
  0
ENDTAB
  0
TABLE
  2
STYLE
  5
3
330
0
100
AcDbSymbolTable
 70
     1
  0
STYLE
  5
11
330
3
100
AcDbSymbolTableRecord
100
AcDbTextStyleTableRecord
  2
STANDARD
 70
     0
 40
0.0
 41
1.0
 50
0.0
 71
     0
 42
2.5
  3
txt
  4

  0
ENDTAB
  0
TABLE
  2
VIEW
  5
6
330
0
100
AcDbSymbolTable
 70
     0
  0
ENDTAB
  0
TABLE
  2
UCS
  5
7
330
0
100
AcDbSymbolTable
 70
     0
  0
ENDTAB
  0
TABLE
  2
APPID
  5
9
330
0
100
AcDbSymbolTable
 70
     2
  0
APPID
  5
12
330
9
100
AcDbSymbolTableRecord
100
AcDbRegAppTableRecord
  2
ACAD
 70
     0
  0
ENDTAB
  0
TABLE
  2
DIMSTYLE
  5
A
330
0
100
AcDbSymbolTable
 70
     1
  0
DIMSTYLE
105
27
330
A
100
AcDbSymbolTableRecord
100
AcDbDimStyleTableRecord
  2
ISO-25
 70
     0
  3

  4

  5

  6

  7

 40
1.0
 41
2.5
 42
0.625
 43
3.75
 44
1.25
 45
0.0
 46
0.0
 47
0.0
 48
0.0
140
2.5
141
2.5
142
0.0
143
0.03937007874016
144
1.0
145
0.0
146
1.0
147
0.625
 71
     0
 72
     0
 73
     0
 74
     0
 75
     0
 76
     0
 77
     1
 78
     8
170
     0
171
     3
172
     1
173
     0
174
     0
175
     0
176
     0
177
     0
178
     0
270
     2
271
     2
272
     2
273
     2
274
     3
340
11
275
     0
280
     0
281
     0
282
     0
283
     0
284
     8
285
     0
286
     0
287
     3
288
     0
  0
ENDTAB
  0
TABLE
  2
BLOCK_RECORD
  5
1
330
0
100
AcDbSymbolTable
 70
     1
  0
BLOCK_RECORD
  5
1F
330
1
100
AcDbSymbolTableRecord
100
AcDbBlockTableRecord
  2
*MODEL_SPACE
  0
BLOCK_RECORD
  5
1B
330
1
100
AcDbSymbolTableRecord
100
AcDbBlockTableRecord
  2
*PAPER_SPACE
  0
ENDTAB
  0
ENDSEC
  0
SECTION
  2
BLOCKS
  0
BLOCK
  5
20
330
1F
100
AcDbEntity
  8
0
100
AcDbBlockBegin
  2
*MODEL_SPACE
 70
     0
 10
0.0
 20
0.0
 30
0.0
  3
*MODEL_SPACE
  1

  0
ENDBLK
  5
21
330
1F
100
AcDbEntity
  8
0
100
AcDbBlockEnd
  0
BLOCK
  5
1C
330
1B
100
AcDbEntity
 67
     1
  8
0
100
AcDbBlockBegin
  2
*PAPER_SPACE
  1

  0
ENDBLK
  5
1D
330
1B
100
AcDbEntity
 67
     1
  8
0
100
AcDbBlockEnd
  0
ENDSEC
  0
SECTION
  2
ENTITIES
  0
SPLINE
  5
100
100
AcDbEntity
  8
Ebene_1
 62
7
100
AcDbSpline
 70
8
 71
3
 72
8
 73
4
 74
0
 40
0
 40
0
 40
0
 40
0
 40
1
 40
1
 40
1
 40
1
 10
-180.478560
 20
219.578904
 30
0.0
 10
-181.258920
 20
220.104412
 30
0.0
 10
-182.231070
 20
221.333744
 30
0.0
 10
-182.231070
 20
221.795005
 30
0.0
  0
SPLINE
  5
101
100
AcDbEntity
  8
Ebene_1
 62
7
100
AcDbSpline
 70
8
 71
3
 72
8
 73
4
 74
0
 40
0
 40
0
 40
0
 40
0
 40
1
 40
1
 40
1
 40
1
 10
-182.231070
 20
221.795005
 30
0.0
 10
-182.231070
 20
221.960742
 30
0.0
 10
-180.619700
 20
221.999646
 30
0.0
 10
-173.757960
 20
221.999646
 30
0.0
  0
SPLINE
  5
102
100
AcDbEntity
  8
Ebene_1
 62
7
100
AcDbSpline
 70
8
 71
3
 72
8
 73
4
 74
0
 40
0
 40
0
 40
0
 40
0
 40
1
 40
1
 40
1
 40
1
 10
-173.757960
 20
221.999646
 30
0.0
 10
-167.997460
 20
221.999646
 30
0.0
 10
-165.284890
 20
221.947406
 30
0.0
 10
-165.284890
 20
221.836491
 30
0.0
  0
SPLINE
  5
103
100
AcDbEntity
  8
Ebene_1
 62
7
100
AcDbSpline
 70
8
 71
3
 72
8
 73
4
 74
0
 40
0
 40
0
 40
0
 40
0
 40
1
 40
1
 40
1
 40
1
 10
-165.284890
 20
221.836491
 30
0.0
 10
-165.284890
 20
221.514464
 30
0.0
 10
-165.892360
 20
220.501032
 30
0.0
 10
-166.329670
 20
220.093521
 30
0.0
  0
SPLINE
  5
104
100
AcDbEntity
  8
Ebene_1
 62
7
100
AcDbSpline
 70
8
 71
3
 72
8
 73
4
 74
0
 40
0
 40
0
 40
0
 40
0
 40
1
 40
1
 40
1
 40
1
 10
-166.329670
 20
220.093521
 30
0.0
 10
-166.574890
 20
219.864986
 30
0.0
 10
-167.022680
 20
219.529849
 30
0.0
 10
-167.324710
 20
219.348784
 30
0.0
  0
SPLINE
  5
105
100
AcDbEntity
  8
Ebene_1
 62
7
100
AcDbSpline
 70
8
 71
3
 72
8
 73
4
 74
0
 40
0
 40
0
 40
0
 40
0
 40
1
 40
1
 40
1
 40
1
 10
-167.324710
 20
219.348784
 30
0.0
 10
-167.856360
 20
219.030039
 30
0.0
 10
-168.061720
 20
219.019543
 30
0.0
 10
-173.760070
 20
219.018965
 30
0.0
  0
LWPOLYLINE
  5
106
100
AcDbEntity
  8
Ebene_1
 62
7
100
AcDbPolyline
 90
4
 70
1
 10
0.877374
 20
260.990474
 30
0.0
 10
0.877374
 20
41.390470
 30
0.0
 10
-298.722610
 20
41.390470
 30
0.0
 10
-298.722610
 20
260.990474
 30
0.0
  0
SPLINE
  5
107
100
AcDbEntity
  8
Ebene_1
 62
7
100
AcDbSpline
 70
8
 71
3
 72
8
 73
4
 74
0
 40
0
 40
0
 40
0
 40
0
 40
1
 40
1
 40
1
 40
1
 10
-253.783340
 20
219.568904
 30
0.0
 10
-254.794150
 20
220.249143
 30
0.0
 10
-255.643410
 20
221.261065
 30
0.0
 10
-255.658790
 20
221.803587
 30
0.0
  0
SPLINE
  5
108
100
AcDbEntity
  8
Ebene_1
 62
7
100
AcDbSpline
 70
8
 71
3
 72
8
 73
4
 74
0
 40
0
 40
0
 40
0
 40
0
 40
1
 40
1
 40
1
 40
1
 10
-255.658790
 20
221.803587
 30
0.0
 10
-255.663790
 20
221.958149
 30
0.0
 10
-253.866010
 20
221.999728
 30
0.0
 10
-247.180710
 20
221.999728
 30
0.0
  0
LWPOLYLINE
  5
109
100
AcDbEntity
  8
Ebene_1
 62
7
100
AcDbPolyline
 90
4
 70
0
 10
-173.760070
 20
219.018965
 30
0.0
 10
-179.646260
 20
219.018965
 30
0.0
 10
-180.478560
 20
219.579483
 30
0.0
 10
-180.478560
 20
219.578904
 30
0.0
  0
SPLINE
  5
10a
100
AcDbEntity
  8
Ebene_1
 62
7
100
AcDbSpline
 70
8
 71
3
 72
8
 73
4
 74
0
 40
0
 40
0
 40
0
 40
0
 40
1
 40
1
 40
1
 40
1
 10
-238.801710
 20
221.646687
 30
0.0
 10
-239.002240
 20
220.970712
 30
0.0
 10
-239.733920
 20
220.075097
 30
0.0
 10
-240.515860
 20
219.548506
 30
0.0
  0
LWPOLYLINE
  5
10b
100
AcDbEntity
  8
Ebene_1
 62
7
100
AcDbPolyline
 90
3
 70
0
 10
-247.180710
 20
221.999728
 30
0.0
 10
-238.697060
 20
221.999728
 30
0.0
 10
-238.801710
 20
221.646687
 30
0.0
  0
SPLINE
  5
10c
100
AcDbEntity
  8
Ebene_1
 62
7
100
AcDbSpline
 70
8
 71
3
 72
8
 73
4
 74
0
 40
0
 40
0
 40
0
 40
0
 40
1
 40
1
 40
1
 40
1
 10
-253.232290
 20
213.007695
 30
0.0
 10
-254.086950
 20
213.467112
 30
0.0
 10
-254.706640
 20
214.017459
 30
0.0
 10
-255.188690
 20
214.745217
 30
0.0
  0
SPLINE
  5
10d
100
AcDbEntity
  8
Ebene_1
 62
7
100
AcDbSpline
 70
8
 71
3
 72
8
 73
4
 74
0
 40
0
 40
0
 40
0
 40
0
 40
1
 40
1
 40
1
 40
1
 10
-255.188690
 20
214.745217
 30
0.0
 10
-256.117240
 20
216.147054
 30
0.0
 10
-256.797360
 20
216.037192
 30
0.0
 10
-247.191290
 20
216.037192
 30
0.0
  0
SPLINE
  5
10e
100
AcDbEntity
  8
Ebene_1
 62
7
100
AcDbSpline
 70
8
 71
3
 72
8
 73
4
 74
0
 40
0
 40
0
 40
0
 40
0
 40
1
 40
1
 40
1
 40
1
 10
-247.191290
 20
216.037192
 30
0.0
 10
-241.379930
 20
216.037192
 30
0.0
 10
-238.718220
 20
215.985562
 30
0.0
 10
-238.718220
 20
215.872479
 30
0.0
  0
SPLINE
  5
10f
100
AcDbEntity
  8
Ebene_1
 62
7
100
AcDbSpline
 70
8
 71
3
 72
8
 73
4
 74
0
 40
0
 40
0
 40
0
 40
0
 40
1
 40
1
 40
1
 40
1
 10
-238.718220
 20
215.872479
 30
0.0
 10
-238.718220
 20
215.246691
 30
0.0
 10
-239.831070
 20
213.766982
 30
0.0
 10
-240.730880
 20
213.196330
 30
0.0
  0
LWPOLYLINE
  5
110
100
AcDbEntity
  8
Ebene_1
 62
7
100
AcDbPolyline
 90
5
 70
0
 10
-240.515860
 20
219.548506
 30
0.0
 10
-241.302930
 20
219.018452
 30
0.0
 10
-247.134120
 20
219.018452
 30
0.0
 10
-252.965310
 20
219.018452
 30
0.0
 10
-253.783340
 20
219.568904
 30
0.0
  0
SPLINE
  5
111
100
AcDbEntity
  8
Ebene_1
 62
7
100
AcDbSpline
 70
8
 71
3
 72
8
 73
4
 74
0
 40
0
 40
0
 40
0
 40
0
 40
1
 40
1
 40
1
 40
1
 10
-247.104340
 20
212.748313
 30
0.0
 10
-252.001200
 20
212.754513
 30
0.0
 10
-252.824820
 20
212.788623
 30
0.0
 10
-253.232290
 20
213.007620
 30
0.0
  0
LWPOLYLINE
  5
112
100
AcDbEntity
  8
Ebene_1
 62
7
100
AcDbPolyline
 90
3
 70
0
 10
-240.730880
 20
213.196330
 30
0.0
 10
-241.447110
 20
212.742113
 30
0.0
 10
-247.104340
 20
212.748313
 30
0.0
  0
LWPOLYLINE
  5
113
100
AcDbEntity
  8
Ebene_1
 62
7
100
AcDbPolyline
 90
1
 70
1
 10
-253.232290
 20
213.007620
 30
0.0
  0
LWPOLYLINE
  5
114
100
AcDbEntity
  8
Ebene_1
 62
7
100
AcDbPolyline
 90
16
 70
1
 10
-181.760340
 20
211.174445
 30
0.0
 10
-181.760340
 20
216.040075
 30
0.0
 10
-173.718720
 20
215.999385
 30
0.0
 10
-165.677180
 20
215.958695
 30
0.0
 10
-165.635480
 20
211.133758
 30
0.0
 10
-165.593780
 20
206.308812
 30
0.0
 10
-167.008220
 20
206.308812
 30
0.0
 10
-168.422690
 20
206.308812
 30
0.0
 10
-168.422690
 20
209.525449
 30
0.0
 10
-168.422690
 20
212.742078
 30
0.0
 10
-173.679110
 20
212.742078
 30
0.0
 10
-178.935560
 20
212.742078
 30
0.0
 10
-178.935560
 20
209.525449
 30
0.0
 10
-178.935560
 20
206.308826
 30
0.0
 10
-180.347750
 20
206.308826
 30
0.0
 10
-181.759920
 20
206.308826
 30
0.0
  0
SPLINE
  5
115
100
AcDbEntity
  8
Ebene_1
 62
7
100
AcDbSpline
 70
8
 71
3
 72
8
 73
4
 74
0
 40
0
 40
0
 40
0
 40
0
 40
1
 40
1
 40
1
 40
1
 10
-190.397880
 20
208.949867
 30
0.0
 10
-190.623710
 20
208.162501
 30
0.0
 10
-191.262680
 20
207.312874
 30
0.0
 10
-192.021840
 20
206.790566
 30
0.0
  0
LWPOLYLINE
  5
116
100
AcDbEntity
  8
Ebene_1
 62
7
100
AcDbPolyline
 90
9
 70
0
 10
-205.767360
 20
214.232735
 30
0.0
 10
-205.767360
 20
222.156611
 30
0.0
 10
-204.355190
 20
222.156611
 30
0.0
 10
-202.943020
 20
222.156611
 30
0.0
 10
-202.943020
 20
215.801791
 30
0.0
 10
-202.943020
 20
209.446993
 30
0.0
 10
-196.599170
 20
209.446993
 30
0.0
 10
-190.255310
 20
209.446993
 30
0.0
 10
-190.397880
 20
208.949867
 30
0.0
  0
SPLINE
  5
117
100
AcDbEntity
  8
Ebene_1
 62
7
100
AcDbSpline
 70
8
 71
3
 72
8
 73
4
 74
0
 40
0
 40
0
 40
0
 40
0
 40
1
 40
1
 40
1
 40
1
 10
-253.232290
 20
206.619834
 30
0.0
 10
-254.167290
 20
207.082767
 30
0.0
 10
-255.007070
 20
207.832283
 30
0.0
 10
-255.355090
 20
208.514494
 30
0.0
  0
SPLINE
  5
118
100
AcDbEntity
  8
Ebene_1
 62
7
100
AcDbSpline
 70
8
 71
3
 72
8
 73
4
 74
0
 40
0
 40
0
 40
0
 40
0
 40
1
 40
1
 40
1
 40
1
 10
-255.355090
 20
208.514494
 30
0.0
 10
-255.525190
 20
208.847904
 30
0.0
 10
-255.664350
 20
209.194130
 30
0.0
 10
-255.664350
 20
209.283863
 30
0.0
  0
SPLINE
  5
119
100
AcDbEntity
  8
Ebene_1
 62
7
100
AcDbSpline
 70
8
 71
3
 72
8
 73
4
 74
0
 40
0
 40
0
 40
0
 40
0
 40
1
 40
1
 40
1
 40
1
 10
-255.664350
 20
209.283863
 30
0.0
 10
-255.664350
 20
209.394750
 30
0.0
 10
-252.951800
 20
209.447025
 30
0.0
 10
-247.191290
 20
209.447025
 30
0.0
  0
SPLINE
  5
11a
100
AcDbEntity
  8
Ebene_1
 62
7
100
AcDbSpline
 70
8
 71
3
 72
8
 73
4
 74
0
 40
0
 40
0
 40
0
 40
0
 40
1
 40
1
 40
1
 40
1
 10
-247.191290
 20
209.447025
 30
0.0
 10
-240.329580
 20
209.447025
 30
0.0
 10
-238.718220
 20
209.408255
 30
0.0
 10
-238.718220
 20
209.242383
 30
0.0
  0
SPLINE
  5
11b
100
AcDbEntity
  8
Ebene_1
 62
7
100
AcDbSpline
 70
8
 71
3
 72
8
 73
4
 74
0
 40
0
 40
0
 40
0
 40
0
 40
1
 40
1
 40
1
 40
1
 10
-238.718220
 20
209.242383
 30
0.0
 10
-238.718220
 20
208.880455
 30
0.0
 10
-239.610270
 20
207.617513
 30
0.0
 10
-240.153120
 20
207.210941
 30
0.0
  0
SPLINE
  5
11c
100
AcDbEntity
  8
Ebene_1
 62
7
100
AcDbSpline
 70
8
 71
3
 72
8
 73
4
 74
0
 40
0
 40
0
 40
0
 40
0
 40
1
 40
1
 40
1
 40
1
 10
-240.153120
 20
207.210941
 30
0.0
 10
-241.384520
 20
206.288613
 30
0.0
 10
-241.227840
 20
206.308829
 30
0.0
 10
-247.144270
 20
206.308966
 30
0.0
  0
SPLINE
  5
11d
100
AcDbEntity
  8
Ebene_1
 62
7
100
AcDbSpline
 70
8
 71
3
 72
8
 73
4
 74
0
 40
0
 40
0
 40
0
 40
0
 40
1
 40
1
 40
1
 40
1
 10
-247.144270
 20
206.308966
 30
0.0
 10
-252.270630
 20
206.309084
 30
0.0
 10
-252.643050
 20
206.328076
 30
0.0
 10
-253.232290
 20
206.619834
 30
0.0
  0
LWPOLYLINE
  5
11e
100
AcDbEntity
  8
Ebene_1
 62
7
100
AcDbPolyline
 90
5
 70
0
 10
-192.021840
 20
206.790566
 30
0.0
 10
-192.722030
 20
206.308798
 30
0.0
 10
-199.244690
 20
206.308798
 30
0.0
 10
-205.767360
 20
206.308798
 30
0.0
 10
-205.767360
 20
214.232735
 30
0.0
  0
SPLINE
  5
11f
100
AcDbEntity
  8
Ebene_1
 62
7
100
AcDbSpline
 70
8
 71
3
 72
8
 73
4
 74
0
 40
0
 40
0
 40
0
 40
0
 40
1
 40
1
 40
1
 40
1
 10
-230.245130
 20
206.310555
 30
0.0
 10
-230.245130
 20
206.709458
 30
0.0
 10
-229.533150
 20
207.919470
 30
0.0
 10
-229.047540
 20
208.345842
 30
0.0
  0
SPLINE
  5
120
100
AcDbEntity
  8
Ebene_1
 62
7
100
AcDbSpline
 70
8
 71
3
 72
8
 73
4
 74
0
 40
0
 40
0
 40
0
 40
0
 40
1
 40
1
 40
1
 40
1
 10
-229.047540
 20
208.345842
 30
0.0
 10
-227.786200
 20
209.453328
 30
0.0
 10
-227.825600
 20
209.447025
 30
0.0
 10
-222.170600
 20
209.447025
 30
0.0
  0
LWPOLYLINE
  5
121
100
AcDbEntity
  8
Ebene_1
 62
7
100
AcDbPolyline
 90
1
 70
1
 10
-253.232290
 20
206.619834
 30
0.0
  0
SPLINE
  5
122
100
AcDbEntity
  8
Ebene_1
 62
7
100
AcDbSpline
 70
8
 71
3
 72
8
 73
4
 74
0
 40
0
 40
0
 40
0
 40
0
 40
1
 40
1
 40
1
 40
1
 10
-222.242790
 20
222.156601
 30
0.0
 10
-217.841490
 20
222.156601
 30
0.0
 10
-214.240440
 20
222.129861
 30
0.0
 10
-214.240440
 20
222.097331
 30
0.0
  0
SPLINE
  5
123
100
AcDbEntity
  8
Ebene_1
 62
7
100
AcDbSpline
 70
8
 71
3
 72
8
 73
4
 74
0
 40
0
 40
0
 40
0
 40
0
 40
1
 40
1
 40
1
 40
1
 10
-214.240440
 20
222.097331
 30
0.0
 10
-214.240440
 20
222.064661
 30
0.0
 10
-214.343720
 20
221.790811
 30
0.0
 10
-214.469990
 20
221.488644
 30
0.0
  0
SPLINE
  5
124
100
AcDbEntity
  8
Ebene_1
 62
7
100
AcDbSpline
 70
8
 71
3
 72
8
 73
4
 74
0
 40
0
 40
0
 40
0
 40
0
 40
1
 40
1
 40
1
 40
1
 10
-214.469990
 20
221.488644
 30
0.0
 10
-214.765050
 20
220.782458
 30
0.0
 10
-215.400820
 20
220.030622
 30
0.0
 10
-216.180490
 20
219.465802
 30
0.0
  0
LWPOLYLINE
  5
125
100
AcDbEntity
  8
Ebene_1
 62
7
100
AcDbPolyline
 90
9
 70
0
 10
-222.170600
 20
209.447025
 30
0.0
 10
-217.064800
 20
209.447025
 30
0.0
 10
-217.064800
 20
211.094522
 30
0.0
 10
-217.064800
 20
212.742080
 30
0.0
 10
-223.654990
 20
212.742080
 30
0.0
 10
-230.245130
 20
212.742080
 30
0.0
 10
-230.245130
 20
217.449326
 30
0.0
 10
-230.245130
 20
222.156601
 30
0.0
 10
-222.242790
 20
222.156601
 30
0.0
  0
SPLINE
  5
126
100
AcDbEntity
  8
Ebene_1
 62
7
100
AcDbSpline
 70
8
 71
3
 72
8
 73
4
 74
0
 40
0
 40
0
 40
0
 40
0
 40
1
 40
1
 40
1
 40
1
 10
-222.164340
 20
206.151910
 30
0.0
 10
-227.504990
 20
206.151910
 30
0.0
 10
-230.245130
 20
206.205630
 30
0.0
 10
-230.245130
 20
206.310526
 30
0.0
  0
LWPOLYLINE
  5
127
100
AcDbEntity
  8
Ebene_1
 62
7
100
AcDbPolyline
 90
11
 70
0
 10
-216.180490
 20
219.465802
 30
0.0
 10
-216.798070
 20
219.018448
 30
0.0
 10
-222.109430
 20
219.018448
 30
0.0
 10
-227.420780
 20
219.018448
 30
0.0
 10
-227.420780
 20
217.449369
 30
0.0
 10
-227.420780
 20
215.880280
 30
0.0
 10
-220.752170
 20
215.880280
 30
0.0
 10
-214.083540
 20
215.880280
 30
0.0
 10
-214.083540
 20
211.016068
 30
0.0
 10
-214.083540
 20
206.151910
 30
0.0
 10
-222.164340
 20
206.151910
 30
0.0
  0
LWPOLYLINE
  5
128
100
AcDbEntity
  8
Ebene_1
 62
7
100
AcDbPolyline
 90
1
 70
1
 10
-230.245130
 20
206.310526
 30
0.0
  0
SPLINE
  5
129
100
AcDbEntity
  8
Ebene_1
 62
7
100
AcDbSpline
 70
8
 71
3
 72
8
 73
4
 74
0
 40
0
 40
0
 40
0
 40
0
 40
1
 40
1
 40
1
 40
1
 10
-279.689650
 20
219.618465
 30
0.0
 10
-280.088050
 20
219.905282
 30
0.0
 10
-280.553720
 20
220.328930
 30
0.0
 10
-280.724480
 20
220.559923
 30
0.0
  0
SPLINE
  5
12a
100
AcDbEntity
  8
Ebene_1
 62
7
100
AcDbSpline
 70
8
 71
3
 72
8
 73
4
 74
0
 40
0
 40
0
 40
0
 40
0
 40
1
 40
1
 40
1
 40
1
 10
-280.724480
 20
220.559923
 30
0.0
 10
-281.046610
 20
220.995627
 30
0.0
 10
-281.554310
 20
221.919803
 30
0.0
 10
-281.554310
 20
222.070445
 30
0.0
  0
SPLINE
  5
12b
100
AcDbEntity
  8
Ebene_1
 62
7
100
AcDbSpline
 70
8
 71
3
 72
8
 73
4
 74
0
 40
0
 40
0
 40
0
 40
0
 40
1
 40
1
 40
1
 40
1
 10
-281.554310
 20
222.070445
 30
0.0
 10
-281.554310
 20
222.117925
 30
0.0
 10
-277.353090
 20
222.156725
 30
0.0
 10
-272.218250
 20
222.156725
 30
0.0
  0
SPLINE
  5
12c
100
AcDbEntity
  8
Ebene_1
 62
7
100
AcDbSpline
 70
8
 71
3
 72
8
 73
4
 74
0
 40
0
 40
0
 40
0
 40
0
 40
1
 40
1
 40
1
 40
1
 10
-272.218250
 20
222.156725
 30
0.0
 10
-265.860340
 20
222.156725
 30
0.0
 10
-262.882190
 20
222.104695
 30
0.0
 10
-262.882190
 20
221.993561
 30
0.0
  0
SPLINE
  5
12d
100
AcDbEntity
  8
Ebene_1
 62
7
100
AcDbSpline
 70
8
 71
3
 72
8
 73
4
 74
0
 40
0
 40
0
 40
0
 40
0
 40
1
 40
1
 40
1
 40
1
 10
-262.882190
 20
221.993561
 30
0.0
 10
-262.882190
 20
221.630904
 30
0.0
 10
-263.518780
 20
220.633140
 30
0.0
 10
-264.084920
 20
220.108434
 30
0.0
  0
SPLINE
  5
12e
100
AcDbEntity
  8
Ebene_1
 62
7
100
AcDbSpline
 70
8
 71
3
 72
8
 73
4
 74
0
 40
0
 40
0
 40
0
 40
0
 40
1
 40
1
 40
1
 40
1
 10
-264.084920
 20
220.108434
 30
0.0
 10
-265.208530
 20
219.067090
 30
0.0
 10
-265.081020
 20
219.102897
 30
0.0
 10
-267.965970
 20
219.018543
 30
0.0
  0
LWPOLYLINE
  5
12f
100
AcDbEntity
  8
Ebene_1
 62
7
100
AcDbPolyline
 90
5
 70
0
 10
-273.746340
 20
212.545963
 30
0.0
 10
-273.787340
 20
218.940011
 30
0.0
 10
-276.376340
 20
219.018501
 30
0.0
 10
-278.965320
 20
219.096991
 30
0.0
 10
-279.689650
 20
219.618465
 30
0.0
  0
SPLINE
  5
130
100
AcDbEntity
  8
Ebene_1
 62
7
100
AcDbSpline
 70
8
 71
3
 72
8
 73
4
 74
0
 40
0
 40
0
 40
0
 40
0
 40
1
 40
1
 40
1
 40
1
 10
-265.959560
 20
244.875974
 30
0.0
 10
-279.089500
 20
244.875974
 30
0.0
 10
-289.732940
 20
234.246888
 30
0.0
 10
-289.732940
 20
221.134690
 30
0.0
  0
LWPOLYLINE
  5
131
100
AcDbEntity
  8
Ebene_1
 62
7
100
AcDbPolyline
 90
7
 70
0
 10
-267.965970
 20
219.018543
 30
0.0
 10
-270.649150
 20
218.940053
 30
0.0
 10
-270.690250
 20
212.546004
 30
0.0
 10
-270.731250
 20
206.151980
 30
0.0
 10
-272.218380
 20
206.151980
 30
0.0
 10
-273.705490
 20
206.151980
 30
0.0
 10
-273.746340
 20
212.545963
 30
0.0
  0
SPLINE
  5
132
100
AcDbEntity
  8
Ebene_1
 62
7
100
AcDbSpline
 70
8
 71
3
 72
8
 73
4
 74
0
 40
0
 40
0
 40
0
 40
0
 40
1
 40
1
 40
1
 40
1
 10
-289.732940
 20
78.334790
 30
0.0
 10
-289.732940
 20
65.222580
 30
0.0
 10
-279.089500
 20
54.593500
 30
0.0
 10
-265.959560
 20
54.593500
 30
0.0
  0
LWPOLYLINE
  5
133
100
AcDbEntity
  8
Ebene_1
 62
7
100
AcDbPolyline
 90
2
 70
0
 10
-289.732940
 20
221.134690
 30
0.0
 10
-289.732940
 20
78.334790
 30
0.0
  0
SPLINE
  5
134
100
AcDbEntity
  8
Ebene_1
 62
7
100
AcDbSpline
 70
8
 71
3
 72
8
 73
4
 74
0
 40
0
 40
0
 40
0
 40
0
 40
1
 40
1
 40
1
 40
1
 10
-180.163300
 20
54.593500
 30
0.0
 10
-167.033380
 20
54.593500
 30
0.0
 10
-156.389930
 20
65.222580
 30
0.0
 10
-156.389930
 20
78.334790
 30
0.0
  0
LWPOLYLINE
  5
135
100
AcDbEntity
  8
Ebene_1
 62
7
100
AcDbPolyline
 90
2
 70
0
 10
-265.959560
 20
54.593500
 30
0.0
 10
-180.163300
 20
54.593500
 30
0.0
  0
SPLINE
  5
136
100
AcDbEntity
  8
Ebene_1
 62
7
100
AcDbSpline
 70
8
 71
3
 72
8
 73
4
 74
0
 40
0
 40
0
 40
0
 40
0
 40
1
 40
1
 40
1
 40
1
 10
-156.389930
 20
221.134690
 30
0.0
 10
-156.389930
 20
234.246888
 30
0.0
 10
-167.033380
 20
244.875974
 30
0.0
 10
-180.163300
 20
244.875974
 30
0.0
  0
LWPOLYLINE
  5
137
100
AcDbEntity
  8
Ebene_1
 62
7
100
AcDbPolyline
 90
2
 70
0
 10
-156.389930
 20
78.334790
 30
0.0
 10
-156.389930
 20
221.134690
 30
0.0
  0
LWPOLYLINE
  5
138
100
AcDbEntity
  8
Ebene_1
 62
7
100
AcDbPolyline
 90
2
 70
0
 10
-180.163300
 20
244.875974
 30
0.0
 10
-265.959560
 20
244.875974
 30
0.0
  0
SPLINE
  5
139
100
AcDbEntity
  8
Ebene_1
 62
7
100
AcDbSpline
 70
8
 71
3
 72
8
 73
4
 74
0
 40
0
 40
0
 40
0
 40
0
 40
1
 40
1
 40
1
 40
1
 10
-180.163300
 20
240.234937
 30
0.0
 10
-169.527590
 20
240.234937
 30
0.0
 10
-161.037240
 20
231.756031
 30
0.0
 10
-161.037240
 20
221.134690
 30
0.0
  0
LWPOLYLINE
  5
13a
100
AcDbEntity
  8
Ebene_1
 62
7
100
AcDbPolyline
 90
2
 70
0
 10
-265.959560
 20
240.234937
 30
0.0
 10
-180.163300
 20
240.234937
 30
0.0
  0
SPLINE
  5
13b
100
AcDbEntity
  8
Ebene_1
 62
7
100
AcDbSpline
 70
8
 71
3
 72
8
 73
4
 74
0
 40
0
 40
0
 40
0
 40
0
 40
1
 40
1
 40
1
 40
1
 10
-161.037240
 20
78.334790
 30
0.0
 10
-161.037240
 20
67.713450
 30
0.0
 10
-169.527590
 20
59.234550
 30
0.0
 10
-180.163300
 20
59.234550
 30
0.0
  0
LWPOLYLINE
  5
13c
100
AcDbEntity
  8
Ebene_1
 62
7
100
AcDbPolyline
 90
2
 70
0
 10
-161.037240
 20
221.134690
 30
0.0
 10
-161.037240
 20
78.334790
 30
0.0
  0
SPLINE
  5
13d
100
AcDbEntity
  8
Ebene_1
 62
7
100
AcDbSpline
 70
8
 71
3
 72
8
 73
4
 74
0
 40
0
 40
0
 40
0
 40
0
 40
1
 40
1
 40
1
 40
1
 10
-265.959560
 20
59.234550
 30
0.0
 10
-276.595280
 20
59.234550
 30
0.0
 10
-285.085630
 20
67.713450
 30
0.0
 10
-285.085630
 20
78.334790
 30
0.0
  0
LWPOLYLINE
  5
13e
100
AcDbEntity
  8
Ebene_1
 62
7
100
AcDbPolyline
 90
2
 70
0
 10
-180.163300
 20
59.234550
 30
0.0
 10
-265.959560
 20
59.234550
 30
0.0
  0
SPLINE
  5
13f
100
AcDbEntity
  8
Ebene_1
 62
7
100
AcDbSpline
 70
8
 71
3
 72
8
 73
4
 74
0
 40
0
 40
0
 40
0
 40
0
 40
1
 40
1
 40
1
 40
1
 10
-285.085630
 20
221.134690
 30
0.0
 10
-285.085630
 20
231.756031
 30
0.0
 10
-276.595280
 20
240.234937
 30
0.0
 10
-265.959560
 20
240.234937
 30
0.0
  0
LWPOLYLINE
  5
140
100
AcDbEntity
  8
Ebene_1
 62
7
100
AcDbPolyline
 90
2
 70
0
 10
-285.085630
 20
78.334790
 30
0.0
 10
-285.085630
 20
221.134690
 30
0.0
  0
SPLINE
  5
141
100
AcDbEntity
  8
Ebene_1
 62
7
100
AcDbSpline
 70
8
 71
3
 72
8
 73
4
 74
0
 40
0
 40
0
 40
0
 40
0
 40
1
 40
1
 40
1
 40
1
 10
-274.040110
 20
69.449040
 30
0.0
 10
-274.040114
 20
68.509473
 30
0.0
 10
-274.801783
 20
67.747804
 30
0.0
 10
-275.741350
 20
67.747800
 30
0.0
  0
SPLINE
  5
142
100
AcDbEntity
  8
Ebene_1
 62
7
100
AcDbSpline
 70
8
 71
3
 72
8
 73
4
 74
0
 40
0
 40
0
 40
0
 40
0
 40
1
 40
1
 40
1
 40
1
 10
-275.741350
 20
67.747800
 30
0.0
 10
-276.680917
 20
67.747804
 30
0.0
 10
-277.442586
 20
68.509473
 30
0.0
 10
-277.442590
 20
69.449040
 30
0.0
  0
SPLINE
  5
143
100
AcDbEntity
  8
Ebene_1
 62
7
100
AcDbSpline
 70
8
 71
3
 72
8
 73
4
 74
0
 40
0
 40
0
 40
0
 40
0
 40
1
 40
1
 40
1
 40
1
 10
-277.442590
 20
69.449040
 30
0.0
 10
-277.442592
 20
70.388611
 30
0.0
 10
-276.680921
 20
71.150286
 30
0.0
 10
-275.741350
 20
71.150290
 30
0.0
  0
SPLINE
  5
144
100
AcDbEntity
  8
Ebene_1
 62
7
100
AcDbSpline
 70
8
 71
3
 72
8
 73
4
 74
0
 40
0
 40
0
 40
0
 40
0
 40
1
 40
1
 40
1
 40
1
 10
-275.741350
 20
71.150290
 30
0.0
 10
-274.801779
 20
71.150286
 30
0.0
 10
-274.040108
 20
70.388611
 30
0.0
 10
-274.040110
 20
69.449040
 30
0.0
  0
LWPOLYLINE
  5
145
100
AcDbEntity
  8
Ebene_1
 62
7
100
AcDbPolyline
 90
1
 70
1
 10
-265.959560
 20
240.234937
 30
0.0
  0
SPLINE
  5
146
100
AcDbEntity
  8
Ebene_1
 62
7
100
AcDbSpline
 70
8
 71
3
 72
8
 73
4
 74
0
 40
0
 40
0
 40
0
 40
0
 40
1
 40
1
 40
1
 40
1
 10
-168.621540
 20
69.647520
 30
0.0
 10
-168.621538
 20
68.707949
 30
0.0
 10
-169.383209
 20
67.946274
 30
0.0
 10
-170.322780
 20
67.946270
 30
0.0
  0
SPLINE
  5
147
100
AcDbEntity
  8
Ebene_1
 62
7
100
AcDbSpline
 70
8
 71
3
 72
8
 73
4
 74
0
 40
0
 40
0
 40
0
 40
0
 40
1
 40
1
 40
1
 40
1
 10
-170.322780
 20
67.946270
 30
0.0
 10
-170.773980
 20
67.946269
 30
0.0
 10
-171.206700
 20
68.125507
 30
0.0
 10
-171.525746
 20
68.444554
 30
0.0
  0
SPLINE
  5
148
100
AcDbEntity
  8
Ebene_1
 62
7
100
AcDbSpline
 70
8
 71
3
 72
8
 73
4
 74
0
 40
0
 40
0
 40
0
 40
0
 40
1
 40
1
 40
1
 40
1
 10
-171.525746
 20
68.444554
 30
0.0
 10
-171.844793
 20
68.763600
 30
0.0
 10
-172.024031
 20
69.196320
 30
0.0
 10
-172.024030
 20
69.647520
 30
0.0
  0
SPLINE
  5
149
100
AcDbEntity
  8
Ebene_1
 62
7
100
AcDbSpline
 70
8
 71
3
 72
8
 73
4
 74
0
 40
0
 40
0
 40
0
 40
0
 40
1
 40
1
 40
1
 40
1
 10
-172.024030
 20
69.647520
 30
0.0
 10
-172.024031
 20
70.098720
 30
0.0
 10
-171.844793
 20
70.531440
 30
0.0
 10
-171.525746
 20
70.850486
 30
0.0
  0
SPLINE
  5
14a
100
AcDbEntity
  8
Ebene_1
 62
7
100
AcDbSpline
 70
8
 71
3
 72
8
 73
4
 74
0
 40
0
 40
0
 40
0
 40
0
 40
1
 40
1
 40
1
 40
1
 10
-171.525746
 20
70.850486
 30
0.0
 10
-171.206700
 20
71.169533
 30
0.0
 10
-170.773980
 20
71.348771
 30
0.0
 10
-170.322780
 20
71.348770
 30
0.0
  0
SPLINE
  5
14b
100
AcDbEntity
  8
Ebene_1
 62
7
100
AcDbSpline
 70
8
 71
3
 72
8
 73
4
 74
0
 40
0
 40
0
 40
0
 40
0
 40
1
 40
1
 40
1
 40
1
 10
-170.322780
 20
71.348770
 30
0.0
 10
-169.383209
 20
71.348766
 30
0.0
 10
-168.621538
 20
70.587091
 30
0.0
 10
-168.621540
 20
69.647520
 30
0.0
  0
LWPOLYLINE
  5
14c
100
AcDbEntity
  8
Ebene_1
 62
7
100
AcDbPolyline
 90
1
 70
1
 10
-274.040110
 20
69.449040
 30
0.0
  0
SPLINE
  5
14d
100
AcDbEntity
  8
Ebene_1
 62
7
100
AcDbSpline
 70
8
 71
3
 72
8
 73
4
 74
0
 40
0
 40
0
 40
0
 40
0
 40
1
 40
1
 40
1
 40
1
 10
-168.364310
 20
229.623477
 30
0.0
 10
-168.364314
 20
228.683906
 30
0.0
 10
-169.125989
 20
227.922235
 30
0.0
 10
-170.065560
 20
227.922237
 30
0.0
  0
SPLINE
  5
14e
100
AcDbEntity
  8
Ebene_1
 62
7
100
AcDbSpline
 70
8
 71
3
 72
8
 73
4
 74
0
 40
0
 40
0
 40
0
 40
0
 40
1
 40
1
 40
1
 40
1
 10
-170.065560
 20
227.922237
 30
0.0
 10
-171.005131
 20
227.922235
 30
0.0
 10
-171.766806
 20
228.683906
 30
0.0
 10
-171.766810
 20
229.623477
 30
0.0
  0
SPLINE
  5
14f
100
AcDbEntity
  8
Ebene_1
 62
7
100
AcDbSpline
 70
8
 71
3
 72
8
 73
4
 74
0
 40
0
 40
0
 40
0
 40
0
 40
1
 40
1
 40
1
 40
1
 10
-171.766810
 20
229.623477
 30
0.0
 10
-171.766810
 20
230.074676
 30
0.0
 10
-171.587572
 20
230.507396
 30
0.0
 10
-171.268526
 20
230.826442
 30
0.0
  0
SPLINE
  5
150
100
AcDbEntity
  8
Ebene_1
 62
7
100
AcDbSpline
 70
8
 71
3
 72
8
 73
4
 74
0
 40
0
 40
0
 40
0
 40
0
 40
1
 40
1
 40
1
 40
1
 10
-171.268526
 20
230.826442
 30
0.0
 10
-170.949479
 20
231.145488
 30
0.0
 10
-170.516759
 20
231.324726
 30
0.0
 10
-170.065560
 20
231.324725
 30
0.0
  0
SPLINE
  5
151
100
AcDbEntity
  8
Ebene_1
 62
7
100
AcDbSpline
 70
8
 71
3
 72
8
 73
4
 74
0
 40
0
 40
0
 40
0
 40
0
 40
1
 40
1
 40
1
 40
1
 10
-170.065560
 20
231.324725
 30
0.0
 10
-169.614361
 20
231.324726
 30
0.0
 10
-169.181641
 20
231.145488
 30
0.0
 10
-168.862594
 20
230.826442
 30
0.0
  0
SPLINE
  5
152
100
AcDbEntity
  8
Ebene_1
 62
7
100
AcDbSpline
 70
8
 71
3
 72
8
 73
4
 74
0
 40
0
 40
0
 40
0
 40
0
 40
1
 40
1
 40
1
 40
1
 10
-168.862594
 20
230.826442
 30
0.0
 10
-168.543548
 20
230.507396
 30
0.0
 10
-168.364310
 20
230.074676
 30
0.0
 10
-168.364310
 20
229.623477
 30
0.0
  0
LWPOLYLINE
  5
153
100
AcDbEntity
  8
Ebene_1
 62
7
100
AcDbPolyline
 90
1
 70
1
 10
-168.621540
 20
69.647520
 30
0.0
  0
SPLINE
  5
154
100
AcDbEntity
  8
Ebene_1
 62
7
100
AcDbSpline
 70
8
 71
3
 72
8
 73
4
 74
0
 40
0
 40
0
 40
0
 40
0
 40
1
 40
1
 40
1
 40
1
 10
-273.841630
 20
229.623477
 30
0.0
 10
-273.841634
 20
228.683906
 30
0.0
 10
-274.603309
 20
227.922235
 30
0.0
 10
-275.542880
 20
227.922237
 30
0.0
  0
SPLINE
  5
155
100
AcDbEntity
  8
Ebene_1
 62
7
100
AcDbSpline
 70
8
 71
3
 72
8
 73
4
 74
0
 40
0
 40
0
 40
0
 40
0
 40
1
 40
1
 40
1
 40
1
 10
-275.542880
 20
227.922237
 30
0.0
 10
-276.482451
 20
227.922235
 30
0.0
 10
-277.244126
 20
228.683906
 30
0.0
 10
-277.244130
 20
229.623477
 30
0.0
  0
SPLINE
  5
156
100
AcDbEntity
  8
Ebene_1
 62
7
100
AcDbSpline
 70
8
 71
3
 72
8
 73
4
 74
0
 40
0
 40
0
 40
0
 40
0
 40
1
 40
1
 40
1
 40
1
 10
-277.244130
 20
229.623477
 30
0.0
 10
-277.244130
 20
230.074676
 30
0.0
 10
-277.064892
 20
230.507396
 30
0.0
 10
-276.745846
 20
230.826442
 30
0.0
  0
SPLINE
  5
157
100
AcDbEntity
  8
Ebene_1
 62
7
100
AcDbSpline
 70
8
 71
3
 72
8
 73
4
 74
0
 40
0
 40
0
 40
0
 40
0
 40
1
 40
1
 40
1
 40
1
 10
-276.745846
 20
230.826442
 30
0.0
 10
-276.426799
 20
231.145488
 30
0.0
 10
-275.994079
 20
231.324726
 30
0.0
 10
-275.542880
 20
231.324725
 30
0.0
  0
SPLINE
  5
158
100
AcDbEntity
  8
Ebene_1
 62
7
100
AcDbSpline
 70
8
 71
3
 72
8
 73
4
 74
0
 40
0
 40
0
 40
0
 40
0
 40
1
 40
1
 40
1
 40
1
 10
-275.542880
 20
231.324725
 30
0.0
 10
-275.091681
 20
231.324726
 30
0.0
 10
-274.658961
 20
231.145488
 30
0.0
 10
-274.339914
 20
230.826442
 30
0.0
  0
SPLINE
  5
159
100
AcDbEntity
  8
Ebene_1
 62
7
100
AcDbSpline
 70
8
 71
3
 72
8
 73
4
 74
0
 40
0
 40
0
 40
0
 40
0
 40
1
 40
1
 40
1
 40
1
 10
-274.339914
 20
230.826442
 30
0.0
 10
-274.020868
 20
230.507396
 30
0.0
 10
-273.841630
 20
230.074676
 30
0.0
 10
-273.841630
 20
229.623477
 30
0.0
  0
LWPOLYLINE
  5
15a
100
AcDbEntity
  8
Ebene_1
 62
7
100
AcDbPolyline
 90
1
 70
1
 10
-168.364310
 20
229.623477
 30
0.0
  0
SPLINE
  5
15b
100
AcDbEntity
  8
Ebene_1
 62
7
100
AcDbSpline
 70
8
 71
3
 72
8
 73
4
 74
0
 40
0
 40
0
 40
0
 40
0
 40
1
 40
1
 40
1
 40
1
 10
-223.080490
 20
98.776590
 30
0.0
 10
-223.246320
 20
99.651140
 30
0.0
 10
-237.515190
 20
179.313640
 30
0.0
 10
-237.515190
 20
179.364860
 30
0.0
  0
SPLINE
  5
15c
100
AcDbEntity
  8
Ebene_1
 62
7
100
AcDbSpline
 70
8
 71
3
 72
8
 73
4
 74
0
 40
0
 40
0
 40
0
 40
0
 40
1
 40
1
 40
1
 40
1
 10
-237.515190
 20
179.364860
 30
0.0
 10
-237.515190
 20
179.437660
 30
0.0
 10
-241.729610
 20
179.331160
 30
0.0
 10
-243.847970
 20
179.204750
 30
0.0
  0
SPLINE
  5
15d
100
AcDbEntity
  8
Ebene_1
 62
7
100
AcDbSpline
 70
8
 71
3
 72
8
 73
4
 74
0
 40
0
 40
0
 40
0
 40
0
 40
1
 40
1
 40
1
 40
1
 10
-243.847970
 20
179.204750
 30
0.0
 10
-250.152150
 20
178.828820
 30
0.0
 10
-253.394560
 20
177.724850
 30
0.0
 10
-254.961700
 20
175.420810
 30
0.0
  0
SPLINE
  5
15e
100
AcDbEntity
  8
Ebene_1
 62
7
100
AcDbSpline
 70
8
 71
3
 72
8
 73
4
 74
0
 40
0
 40
0
 40
0
 40
0
 40
1
 40
1
 40
1
 40
1
 10
-254.961700
 20
175.420810
 30
0.0
 10
-255.539470
 20
174.571310
 30
0.0
 10
-255.780710
 20
173.965610
 30
0.0
 10
-256.032890
 20
172.731270
 30
0.0
  0
SPLINE
  5
15f
100
AcDbEntity
  8
Ebene_1
 62
7
100
AcDbSpline
 70
8
 71
3
 72
8
 73
4
 74
0
 40
0
 40
0
 40
0
 40
0
 40
1
 40
1
 40
1
 40
1
 10
-256.032890
 20
172.731270
 30
0.0
 10
-256.135280
 20
172.229760
 30
0.0
 10
-256.237830
 20
171.800720
 30
0.0
 10
-256.260670
 20
171.777900
 30
0.0
  0
SPLINE
  5
160
100
AcDbEntity
  8
Ebene_1
 62
7
100
AcDbSpline
 70
8
 71
3
 72
8
 73
4
 74
0
 40
0
 40
0
 40
0
 40
0
 40
1
 40
1
 40
1
 40
1
 10
-256.260670
 20
171.777900
 30
0.0
 10
-256.337170
 20
171.701400
 30
0.0
 10
-258.957300
 20
172.945960
 30
0.0
 10
-260.269930
 20
173.682920
 30
0.0
  0
SPLINE
  5
161
100
AcDbEntity
  8
Ebene_1
 62
7
100
AcDbSpline
 70
8
 71
3
 72
8
 73
4
 74
0
 40
0
 40
0
 40
0
 40
0
 40
1
 40
1
 40
1
 40
1
 10
-260.269930
 20
173.682920
 30
0.0
 10
-264.196050
 20
175.887100
 30
0.0
 10
-267.278400
 20
178.439200
 30
0.0
 10
-269.375210
 20
181.221920
 30
0.0
  0
SPLINE
  5
162
100
AcDbEntity
  8
Ebene_1
 62
7
100
AcDbSpline
 70
8
 71
3
 72
8
 73
4
 74
0
 40
0
 40
0
 40
0
 40
0
 40
1
 40
1
 40
1
 40
1
 10
-269.375210
 20
181.221920
 30
0.0
 10
-269.683290
 20
181.630740
 30
0.0
 10
-269.935320
 20
181.998670
 30
0.0
 10
-269.935320
 20
182.039570
 30
0.0
  0
SPLINE
  5
163
100
AcDbEntity
  8
Ebene_1
 62
7
100
AcDbSpline
 70
8
 71
3
 72
8
 73
4
 74
0
 40
0
 40
0
 40
0
 40
0
 40
1
 40
1
 40
1
 40
1
 10
-269.935320
 20
182.039570
 30
0.0
 10
-269.935320
 20
182.080670
 30
0.0
 10
-269.775820
 20
182.179950
 30
0.0
 10
-269.580880
 20
182.260620
 30
0.0
  0
SPLINE
  5
164
100
AcDbEntity
  8
Ebene_1
 62
7
100
AcDbSpline
 70
8
 71
3
 72
8
 73
4
 74
0
 40
0
 40
0
 40
0
 40
0
 40
1
 40
1
 40
1
 40
1
 10
-269.580880
 20
182.260620
 30
0.0
 10
-269.385920
 20
182.341520
 30
0.0
 10
-268.545890
 20
182.703350
 30
0.0
 10
-267.714120
 20
183.065210
 30
0.0
  0
SPLINE
  5
165
100
AcDbEntity
  8
Ebene_1
 62
7
100
AcDbSpline
 70
8
 71
3
 72
8
 73
4
 74
0
 40
0
 40
0
 40
0
 40
0
 40
1
 40
1
 40
1
 40
1
 10
-267.714120
 20
183.065210
 30
0.0
 10
-258.184130
 20
187.211160
 30
0.0
 10
-245.796600
 20
190.109110
 30
0.0
 10
-234.679610
 20
190.793310
 30
0.0
  0
LWPOLYLINE
  5
166
100
AcDbEntity
  8
Ebene_1
 62
7
100
AcDbPolyline
 90
1
 70
1
 10
-273.841630
 20
229.623477
 30
0.0
  0
SPLINE
  5
167
100
AcDbEntity
  8
Ebene_1
 62
7
100
AcDbSpline
 70
8
 71
3
 72
8
 73
4
 74
0
 40
0
 40
0
 40
0
 40
0
 40
1
 40
1
 40
1
 40
1
 10
-228.360140
 20
184.363210
 30
0.0
 10
-225.430270
 20
180.793100
 30
0.0
 10
-223.000710
 20
177.907860
 30
0.0
 10
-222.961100
 20
177.951540
 30
0.0
  0
SPLINE
  5
168
100
AcDbEntity
  8
Ebene_1
 62
7
100
AcDbSpline
 70
8
 71
3
 72
8
 73
4
 74
0
 40
0
 40
0
 40
0
 40
0
 40
1
 40
1
 40
1
 40
1
 10
-222.961100
 20
177.951540
 30
0.0
 10
-222.921700
 20
177.995140
 30
0.0
 10
-220.543540
 20
180.889350
 30
0.0
 10
-217.676800
 20
184.382820
 30
0.0
  0
SPLINE
  5
169
100
AcDbEntity
  8
Ebene_1
 62
7
100
AcDbSpline
 70
8
 71
3
 72
8
 73
4
 74
0
 40
0
 40
0
 40
0
 40
0
 40
1
 40
1
 40
1
 40
1
 10
-217.676800
 20
184.382820
 30
0.0
 10
-214.810060
 20
187.876270
 30
0.0
 10
-212.420740
 20
190.761680
 30
0.0
 10
-212.367250
 20
190.794750
 30
0.0
  0
SPLINE
  5
16a
100
AcDbEntity
  8
Ebene_1
 62
7
100
AcDbSpline
 70
8
 71
3
 72
8
 73
4
 74
0
 40
0
 40
0
 40
0
 40
0
 40
1
 40
1
 40
1
 40
1
 10
-212.367250
 20
190.794750
 30
0.0
 10
-212.255650
 20
190.863650
 30
0.0
 10
-209.871430
 20
190.710050
 30
0.0
 10
-207.788860
 20
190.499450
 30
0.0
  0
SPLINE
  5
16b
100
AcDbEntity
  8
Ebene_1
 62
7
100
AcDbSpline
 70
8
 71
3
 72
8
 73
4
 74
0
 40
0
 40
0
 40
0
 40
0
 40
1
 40
1
 40
1
 40
1
 10
-207.788860
 20
190.499450
 30
0.0
 10
-199.006390
 20
189.611690
 30
0.0
 10
-190.185730
 20
187.579420
 30
0.0
 10
-182.174110
 20
184.597830
 30
0.0
  0
SPLINE
  5
16c
100
AcDbEntity
  8
Ebene_1
 62
7
100
AcDbSpline
 70
8
 71
3
 72
8
 73
4
 74
0
 40
0
 40
0
 40
0
 40
0
 40
1
 40
1
 40
1
 40
1
 10
-182.174110
 20
184.597830
 30
0.0
 10
-180.283320
 20
183.894160
 30
0.0
 10
-177.241890
 20
182.638230
 30
0.0
 10
-176.448680
 20
182.233570
 30
0.0
  0
LWPOLYLINE
  5
16d
100
AcDbEntity
  8
Ebene_1
 62
7
100
AcDbPolyline
 90
3
 70
0
 10
-234.679610
 20
190.793310
 30
0.0
 10
-233.687170
 20
190.854410
 30
0.0
 10
-228.360140
 20
184.363210
 30
0.0
  0
SPLINE
  5
16e
100
AcDbEntity
  8
Ebene_1
 62
7
100
AcDbSpline
 70
8
 71
3
 72
8
 73
4
 74
0
 40
0
 40
0
 40
0
 40
0
 40
1
 40
1
 40
1
 40
1
 10
-176.556120
 20
181.387340
 30
0.0
 10
-178.413780
 20
178.833290
 30
0.0
 10
-181.326000
 20
176.323420
 30
0.0
 10
-184.932500
 20
174.168180
 30
0.0
  0
SPLINE
  5
16f
100
AcDbEntity
  8
Ebene_1
 62
7
100
AcDbSpline
 70
8
 71
3
 72
8
 73
4
 74
0
 40
0
 40
0
 40
0
 40
0
 40
1
 40
1
 40
1
 40
1
 10
-184.932500
 20
174.168180
 30
0.0
 10
-185.924350
 20
173.575450
 30
0.0
 10
-189.207730
 20
171.927460
 30
0.0
 10
-189.655420
 20
171.797690
 30
0.0
  0
SPLINE
  5
170
100
AcDbEntity
  8
Ebene_1
 62
7
100
AcDbSpline
 70
8
 71
3
 72
8
 73
4
 74
0
 40
0
 40
0
 40
0
 40
0
 40
1
 40
1
 40
1
 40
1
 10
-189.655420
 20
171.797690
 30
0.0
 10
-189.840170
 20
171.744090
 30
0.0
 10
-189.864960
 20
171.784290
 30
0.0
 10
-189.926400
 20
172.238360
 30
0.0
  0
SPLINE
  5
171
100
AcDbEntity
  8
Ebene_1
 62
7
100
AcDbSpline
 70
8
 71
3
 72
8
 73
4
 74
0
 40
0
 40
0
 40
0
 40
0
 40
1
 40
1
 40
1
 40
1
 10
-189.926400
 20
172.238360
 30
0.0
 10
-189.963700
 20
172.513140
 30
0.0
 10
-190.097990
 20
173.098380
 30
0.0
 10
-190.225000
 20
173.538870
 30
0.0
  0
SPLINE
  5
172
100
AcDbEntity
  8
Ebene_1
 62
7
100
AcDbSpline
 70
8
 71
3
 72
8
 73
4
 74
0
 40
0
 40
0
 40
0
 40
0
 40
1
 40
1
 40
1
 40
1
 10
-190.225000
 20
173.538870
 30
0.0
 10
-191.225270
 20
177.007540
 30
0.0
 10
-194.180680
 20
178.547800
 30
0.0
 10
-200.936200
 20
179.121080
 30
0.0
  0
SPLINE
  5
173
100
AcDbEntity
  8
Ebene_1
 62
7
100
AcDbSpline
 70
8
 71
3
 72
8
 73
4
 74
0
 40
0
 40
0
 40
0
 40
0
 40
1
 40
1
 40
1
 40
1
 10
-200.936200
 20
179.121080
 30
0.0
 10
-202.407170
 20
179.245890
 30
0.0
 10
-208.524700
 20
179.406110
 30
0.0
 10
-208.601560
 20
179.321780
 30
0.0
  0
SPLINE
  5
174
100
AcDbEntity
  8
Ebene_1
 62
7
100
AcDbSpline
 70
8
 71
3
 72
8
 73
4
 74
0
 40
0
 40
0
 40
0
 40
0
 40
1
 40
1
 40
1
 40
1
 10
-208.601560
 20
179.321780
 30
0.0
 10
-208.640960
 20
179.278580
 30
0.0
 10
-220.450510
 20
113.030160
 30
0.0
 10
-222.942880
 20
98.871110
 30
0.0
  0
LWPOLYLINE
  5
175
100
AcDbEntity
  8
Ebene_1
 62
7
100
AcDbPolyline
 90
3
 70
0
 10
-176.448680
 20
182.233570
 30
0.0
 10
-176.078110
 20
182.044520
 30
0.0
 10
-176.556120
 20
181.387340
 30
0.0
  0
SPLINE
  5
176
100
AcDbEntity
  8
Ebene_1
 62
7
100
AcDbSpline
 70
8
 71
3
 72
8
 73
4
 74
0
 40
0
 40
0
 40
0
 40
0
 40
1
 40
1
 40
1
 40
1
 10
-176.077620
 20
185.613430
 30
0.0
 10
-187.366420
 20
190.374430
 30
0.0
 10
-200.191850
 20
193.404040
 30
0.0
 10
-212.987450
 20
194.332170
 30
0.0
  0
SPLINE
  5
177
100
AcDbEntity
  8
Ebene_1
 62
7
100
AcDbSpline
 70
8
 71
3
 72
8
 73
4
 74
0
 40
0
 40
0
 40
0
 40
0
 40
1
 40
1
 40
1
 40
1
 10
-212.987450
 20
194.332170
 30
0.0
 10
-217.098390
 20
194.630380
 30
0.0
 10
-225.638860
 20
194.728020
 30
0.0
 10
-229.774370
 20
194.524120
 30
0.0
  0
SPLINE
  5
178
100
AcDbEntity
  8
Ebene_1
 62
7
100
AcDbSpline
 70
8
 71
3
 72
8
 73
4
 74
0
 40
0
 40
0
 40
0
 40
0
 40
1
 40
1
 40
1
 40
1
 10
-229.774370
 20
194.524120
 30
0.0
 10
-244.105950
 20
193.817510
 30
0.0
 10
-257.291240
 20
190.896800
 30
0.0
 10
-269.963080
 20
185.621870
 30
0.0
  0
SPLINE
  5
179
100
AcDbEntity
  8
Ebene_1
 62
7
100
AcDbSpline
 70
8
 71
3
 72
8
 73
4
 74
0
 40
0
 40
0
 40
0
 40
0
 40
1
 40
1
 40
1
 40
1
 10
-269.963080
 20
185.621870
 30
0.0
 10
-270.836130
 20
185.258480
 30
0.0
 10
-271.604760
 20
184.981980
 30
0.0
 10
-271.671210
 20
185.007470
 30
0.0
  0
SPLINE
  5
17a
100
AcDbEntity
  8
Ebene_1
 62
7
100
AcDbSpline
 70
8
 71
3
 72
8
 73
4
 74
0
 40
0
 40
0
 40
0
 40
0
 40
1
 40
1
 40
1
 40
1
 10
-271.671210
 20
185.007470
 30
0.0
 10
-271.737910
 20
185.033170
 30
0.0
 10
-272.284230
 20
186.046980
 30
0.0
 10
-272.885810
 20
187.260830
 30
0.0
  0
SPLINE
  5
17b
100
AcDbEntity
  8
Ebene_1
 62
7
100
AcDbSpline
 70
8
 71
3
 72
8
 73
4
 74
0
 40
0
 40
0
 40
0
 40
0
 40
1
 40
1
 40
1
 40
1
 10
-272.885810
 20
187.260830
 30
0.0
 10
-274.011390
 20
189.531920
 30
0.0
 10
-274.535950
 20
190.711690
 30
0.0
 10
-274.455770
 20
190.791870
 30
0.0
  0
SPLINE
  5
17c
100
AcDbEntity
  8
Ebene_1
 62
7
100
AcDbSpline
 70
8
 71
3
 72
8
 73
4
 74
0
 40
0
 40
0
 40
0
 40
0
 40
1
 40
1
 40
1
 40
1
 10
-274.455770
 20
190.791870
 30
0.0
 10
-274.373570
 20
190.873970
 30
0.0
 10
-271.068980
 20
192.122390
 30
0.0
 10
-269.131910
 20
192.803150
 30
0.0
  0
SPLINE
  5
17d
100
AcDbEntity
  8
Ebene_1
 62
7
100
AcDbSpline
 70
8
 71
3
 72
8
 73
4
 74
0
 40
0
 40
0
 40
0
 40
0
 40
1
 40
1
 40
1
 40
1
 10
-269.131910
 20
192.803150
 30
0.0
 10
-250.972580
 20
199.185227
 30
0.0
 10
-231.578860
 20
201.829941
 30
0.0
 10
-213.223750
 20
200.427393
 30
0.0
  0
SPLINE
  5
17e
100
AcDbEntity
  8
Ebene_1
 62
7
100
AcDbSpline
 70
8
 71
3
 72
8
 73
4
 74
0
 40
0
 40
0
 40
0
 40
0
 40
1
 40
1
 40
1
 40
1
 10
-213.223750
 20
200.427393
 30
0.0
 10
-199.495170
 20
199.378369
 30
0.0
 10
-186.556640
 20
196.482470
 30
0.0
 10
-173.386090
 20
191.510890
 30
0.0
  0
SPLINE
  5
17f
100
AcDbEntity
  8
Ebene_1
 62
7
100
AcDbSpline
 70
8
 71
3
 72
8
 73
4
 74
0
 40
0
 40
0
 40
0
 40
0
 40
1
 40
1
 40
1
 40
1
 10
-173.386090
 20
191.510890
 30
0.0
 10
-172.405520
 20
191.140750
 30
0.0
 10
-171.586370
 20
190.821070
 30
0.0
 10
-171.565790
 20
190.800460
 30
0.0
  0
SPLINE
  5
180
100
AcDbEntity
  8
Ebene_1
 62
7
100
AcDbSpline
 70
8
 71
3
 72
8
 73
4
 74
0
 40
0
 40
0
 40
0
 40
0
 40
1
 40
1
 40
1
 40
1
 10
-171.565790
 20
190.800460
 30
0.0
 10
-171.458090
 20
190.692890
 30
0.0
 10
-174.091590
 20
185.195280
 30
0.0
 10
-174.358430
 20
184.970620
 30
0.0
  0
SPLINE
  5
181
100
AcDbEntity
  8
Ebene_1
 62
7
100
AcDbSpline
 70
8
 71
3
 72
8
 73
4
 74
0
 40
0
 40
0
 40
0
 40
0
 40
1
 40
1
 40
1
 40
1
 10
-174.358430
 20
184.970620
 30
0.0
 10
-174.394230
 20
184.940620
 30
0.0
 10
-175.167850
 20
185.229750
 30
0.0
 10
-176.077620
 20
185.613430
 30
0.0
  0
LWPOLYLINE
  5
182
100
AcDbEntity
  8
Ebene_1
 62
7
100
AcDbPolyline
 90
3
 70
0
 10
-222.942880
 20
98.871110
 30
0.0
 10
-223.017780
 20
98.445780
 30
0.0
 10
-223.080490
 20
98.776590
 30
0.0
  0
SPLINE
  5
183
100
AcDbEntity
  8
Ebene_1
 62
7
100
AcDbSpline
 70
8
 71
3
 72
8
 73
4
 74
0
 40
0
 40
0
 40
0
 40
0
 40
1
 40
1
 40
1
 40
1
 10
-36.285158
 20
219.543588
 30
0.0
 10
-37.060427
 20
220.065678
 30
0.0
 10
-38.026259
 20
221.287015
 30
0.0
 10
-38.026259
 20
221.745279
 30
0.0
  0
SPLINE
  5
184
100
AcDbEntity
  8
Ebene_1
 62
7
100
AcDbSpline
 70
8
 71
3
 72
8
 73
4
 74
0
 40
0
 40
0
 40
0
 40
0
 40
1
 40
1
 40
1
 40
1
 10
-38.026259
 20
221.745279
 30
0.0
 10
-38.026259
 20
221.909943
 30
0.0
 10
-36.425367
 20
221.948597
 30
0.0
 10
-29.608241
 20
221.948597
 30
0.0
  0
SPLINE
  5
185
100
AcDbEntity
  8
Ebene_1
 62
7
100
AcDbSpline
 70
8
 71
3
 72
8
 73
4
 74
0
 40
0
 40
0
 40
0
 40
0
 40
1
 40
1
 40
1
 40
1
 10
-29.608241
 20
221.948597
 30
0.0
 10
-23.885187
 20
221.948597
 30
0.0
 10
-21.190265
 20
221.896737
 30
0.0
 10
-21.190265
 20
221.786494
 30
0.0
  0
SPLINE
  5
186
100
AcDbEntity
  8
Ebene_1
 62
7
100
AcDbSpline
 70
8
 71
3
 72
8
 73
4
 74
0
 40
0
 40
0
 40
0
 40
0
 40
1
 40
1
 40
1
 40
1
 10
-21.190265
 20
221.786494
 30
0.0
 10
-21.190265
 20
221.466564
 30
0.0
 10
-21.793786
 20
220.459719
 30
0.0
 10
-22.228249
 20
220.054865
 30
0.0
  0
SPLINE
  5
187
100
AcDbEntity
  8
Ebene_1
 62
7
100
AcDbSpline
 70
8
 71
3
 72
8
 73
4
 74
0
 40
0
 40
0
 40
0
 40
0
 40
1
 40
1
 40
1
 40
1
 10
-22.228249
 20
220.054865
 30
0.0
 10
-22.471881
 20
219.827810
 30
0.0
 10
-22.916750
 20
219.494850
 30
0.0
 10
-23.216823
 20
219.314969
 30
0.0
  0
SPLINE
  5
188
100
AcDbEntity
  8
Ebene_1
 62
7
100
AcDbSpline
 70
8
 71
3
 72
8
 73
4
 74
0
 40
0
 40
0
 40
0
 40
0
 40
1
 40
1
 40
1
 40
1
 10
-23.216823
 20
219.314969
 30
0.0
 10
-23.745021
 20
218.998287
 30
0.0
 10
-23.949023
 20
218.987861
 30
0.0
 10
-29.610331
 20
218.987292
 30
0.0
  0
LWPOLYLINE
  5
189
100
AcDbEntity
  8
Ebene_1
 62
7
100
AcDbPolyline
 90
1
 70
1
 10
-176.077620
 20
185.613430
 30
0.0
  0
SPLINE
  5
18a
100
AcDbEntity
  8
Ebene_1
 62
7
100
AcDbSpline
 70
8
 71
3
 72
8
 73
4
 74
0
 40
0
 40
0
 40
0
 40
0
 40
1
 40
1
 40
1
 40
1
 10
-109.113320
 20
219.533888
 30
0.0
 10
-110.117570
 20
220.209700
 30
0.0
 10
-110.961310
 20
221.215043
 30
0.0
 10
-110.976600
 20
221.754044
 30
0.0
  0
SPLINE
  5
18b
100
AcDbEntity
  8
Ebene_1
 62
7
100
AcDbSpline
 70
8
 71
3
 72
8
 73
4
 74
0
 40
0
 40
0
 40
0
 40
0
 40
1
 40
1
 40
1
 40
1
 10
-110.976600
 20
221.754044
 30
0.0
 10
-110.980600
 20
221.907595
 30
0.0
 10
-109.195460
 20
221.948906
 30
0.0
 10
-102.553620
 20
221.948906
 30
0.0
  0
LWPOLYLINE
  5
18c
100
AcDbEntity
  8
Ebene_1
 62
7
100
AcDbPolyline
 90
4
 70
0
 10
-29.610331
 20
218.987292
 30
0.0
 10
-35.458259
 20
218.987292
 30
0.0
 10
-36.285158
 20
219.544166
 30
0.0
 10
-36.285158
 20
219.543588
 30
0.0
  0
SPLINE
  5
18d
100
AcDbEntity
  8
Ebene_1
 62
7
100
AcDbSpline
 70
8
 71
3
 72
8
 73
4
 74
0
 40
0
 40
0
 40
0
 40
0
 40
1
 40
1
 40
1
 40
1
 10
-94.229177
 20
221.598167
 30
0.0
 10
-94.428400
 20
220.926587
 30
0.0
 10
-95.155328
 20
220.036796
 30
0.0
 10
-95.932183
 20
219.513624
 30
0.0
  0
LWPOLYLINE
  5
18e
100
AcDbEntity
  8
Ebene_1
 62
7
100
AcDbPolyline
 90
3
 70
0
 10
-102.553620
 20
221.948906
 30
0.0
 10
-94.125120
 20
221.948906
 30
0.0
 10
-94.229177
 20
221.598167
 30
0.0
  0
SPLINE
  5
18f
100
AcDbEntity
  8
Ebene_1
 62
7
100
AcDbSpline
 70
8
 71
3
 72
8
 73
4
 74
0
 40
0
 40
0
 40
0
 40
0
 40
1
 40
1
 40
1
 40
1
 10
-108.565860
 20
213.015334
 30
0.0
 10
-109.414970
 20
213.471767
 30
0.0
 10
-110.030620
 20
214.018535
 30
0.0
 10
-110.509540
 20
214.741563
 30
0.0
  0
SPLINE
  5
190
100
AcDbEntity
  8
Ebene_1
 62
7
100
AcDbSpline
 70
8
 71
3
 72
8
 73
4
 74
0
 40
0
 40
0
 40
0
 40
0
 40
1
 40
1
 40
1
 40
1
 10
-110.509540
 20
214.741563
 30
0.0
 10
-111.432050
 20
216.134283
 30
0.0
 10
-112.107760
 20
216.025139
 30
0.0
 10
-102.564120
 20
216.025139
 30
0.0
  0
SPLINE
  5
191
100
AcDbEntity
  8
Ebene_1
 62
7
100
AcDbSpline
 70
8
 71
3
 72
8
 73
4
 74
0
 40
0
 40
0
 40
0
 40
0
 40
1
 40
1
 40
1
 40
1
 10
-102.564120
 20
216.025139
 30
0.0
 10
-96.790541
 20
216.025139
 30
0.0
 10
-94.146134
 20
215.973819
 30
0.0
 10
-94.146134
 20
215.861494
 30
0.0
  0
SPLINE
  5
192
100
AcDbEntity
  8
Ebene_1
 62
7
100
AcDbSpline
 70
8
 71
3
 72
8
 73
4
 74
0
 40
0
 40
0
 40
0
 40
0
 40
1
 40
1
 40
1
 40
1
 10
-94.146134
 20
215.861494
 30
0.0
 10
-94.146134
 20
215.239777
 30
0.0
 10
-95.251749
 20
213.769685
 30
0.0
 10
-96.145710
 20
213.202747
 30
0.0
  0
LWPOLYLINE
  5
193
100
AcDbEntity
  8
Ebene_1
 62
7
100
AcDbPolyline
 90
5
 70
0
 10
-95.932183
 20
219.513624
 30
0.0
 10
-96.714139
 20
218.987012
 30
0.0
 10
-102.507420
 20
218.987012
 30
0.0
 10
-108.300720
 20
218.987012
 30
0.0
 10
-109.113320
 20
219.533888
 30
0.0
  0
SPLINE
  5
194
100
AcDbEntity
  8
Ebene_1
 62
7
100
AcDbSpline
 70
8
 71
3
 72
8
 73
4
 74
0
 40
0
 40
0
 40
0
 40
0
 40
1
 40
1
 40
1
 40
1
 10
-102.477730
 20
212.757881
 30
0.0
 10
-107.342780
 20
212.764281
 30
0.0
 10
-108.161030
 20
212.797961
 30
0.0
 10
-108.565860
 20
213.015508
 30
0.0
  0
LWPOLYLINE
  5
195
100
AcDbEntity
  8
Ebene_1
 62
7
100
AcDbPolyline
 90
3
 70
0
 10
-96.145710
 20
213.202747
 30
0.0
 10
-96.857292
 20
212.751481
 30
0.0
 10
-102.477730
 20
212.757881
 30
0.0
  0
LWPOLYLINE
  5
196
100
AcDbEntity
  8
Ebene_1
 62
7
100
AcDbPolyline
 90
2
 70
0
 10
-108.565860
 20
213.015508
 30
0.0
 10
-108.565860
 20
213.015334
 30
0.0
  0
LWPOLYLINE
  5
197
100
AcDbEntity
  8
Ebene_1
 62
7
100
AcDbPolyline
 90
16
 70
1
 10
-37.558587
 20
211.194011
 30
0.0
 10
-37.558587
 20
216.028001
 30
0.0
 10
-29.569267
 20
215.987611
 30
0.0
 10
-21.580000
 20
215.947221
 30
0.0
 10
-21.538630
 20
211.153653
 30
0.0
 10
-21.497260
 20
206.360084
 30
0.0
 10
-22.902508
 20
206.360084
 30
0.0
 10
-24.307778
 20
206.360084
 30
0.0
 10
-24.307778
 20
209.555777
 30
0.0
 10
-24.307778
 20
212.751497
 30
0.0
 10
-29.530024
 20
212.751497
 30
0.0
 10
-34.752302
 20
212.751497
 30
0.0
 10
-34.752302
 20
209.555777
 30
0.0
 10
-34.752302
 20
206.360067
 30
0.0
 10
-36.155298
 20
206.360067
 30
0.0
 10
-37.558297
 20
206.360067
 30
0.0
  0
SPLINE
  5
198
100
AcDbEntity
  8
Ebene_1
 62
7
100
AcDbSpline
 70
8
 71
3
 72
8
 73
4
 74
0
 40
0
 40
0
 40
0
 40
0
 40
1
 40
1
 40
1
 40
1
 10
-46.139972
 20
208.983947
 30
0.0
 10
-46.364337
 20
208.201701
 30
0.0
 10
-46.999147
 20
207.357593
 30
0.0
 10
-47.753358
 20
206.838686
 30
0.0
  0
LWPOLYLINE
  5
199
100
AcDbEntity
  8
Ebene_1
 62
7
100
AcDbPolyline
 90
9
 70
0
 10
-61.409522
 20
214.232468
 30
0.0
 10
-61.409522
 20
222.104823
 30
0.0
 10
-60.006536
 20
222.104823
 30
0.0
 10
-58.603537
 20
222.104823
 30
0.0
 10
-58.603537
 20
215.791320
 30
0.0
 10
-58.603537
 20
209.477841
 30
0.0
 10
-52.300936
 20
209.477841
 30
0.0
 10
-45.998327
 20
209.477841
 30
0.0
 10
-46.139972
 20
208.983947
 30
0.0
  0
SPLINE
  5
19a
100
AcDbEntity
  8
Ebene_1
 62
7
100
AcDbSpline
 70
8
 71
3
 72
8
 73
4
 74
0
 40
0
 40
0
 40
0
 40
0
 40
1
 40
1
 40
1
 40
1
 10
-108.565860
 20
206.669060
 30
0.0
 10
-109.494790
 20
207.128986
 30
0.0
 10
-110.329110
 20
207.873627
 30
0.0
 10
-110.674860
 20
208.551401
 30
0.0
  0
SPLINE
  5
19b
100
AcDbEntity
  8
Ebene_1
 62
7
100
AcDbSpline
 70
8
 71
3
 72
8
 73
4
 74
0
 40
0
 40
0
 40
0
 40
0
 40
1
 40
1
 40
1
 40
1
 10
-110.674860
 20
208.551401
 30
0.0
 10
-110.843850
 20
208.882646
 30
0.0
 10
-110.982120
 20
209.226612
 30
0.0
 10
-110.982120
 20
209.315770
 30
0.0
  0
SPLINE
  5
19c
100
AcDbEntity
  8
Ebene_1
 62
7
100
AcDbSpline
 70
8
 71
3
 72
8
 73
4
 74
0
 40
0
 40
0
 40
0
 40
0
 40
1
 40
1
 40
1
 40
1
 10
-110.982120
 20
209.315770
 30
0.0
 10
-110.982120
 20
209.425937
 30
0.0
 10
-108.287210
 20
209.477874
 30
0.0
 10
-102.564120
 20
209.477874
 30
0.0
  0
SPLINE
  5
19d
100
AcDbEntity
  8
Ebene_1
 62
7
100
AcDbSpline
 70
8
 71
3
 72
8
 73
4
 74
0
 40
0
 40
0
 40
0
 40
0
 40
1
 40
1
 40
1
 40
1
 10
-102.564120
 20
209.477874
 30
0.0
 10
-95.747026
 20
209.477874
 30
0.0
 10
-94.146134
 20
209.439404
 30
0.0
 10
-94.146134
 20
209.274556
 30
0.0
  0
SPLINE
  5
19e
100
AcDbEntity
  8
Ebene_1
 62
7
100
AcDbSpline
 70
8
 71
3
 72
8
 73
4
 74
0
 40
0
 40
0
 40
0
 40
0
 40
1
 40
1
 40
1
 40
1
 10
-94.146134
 20
209.274556
 30
0.0
 10
-94.146134
 20
208.914988
 30
0.0
 10
-95.032390
 20
207.660248
 30
0.0
 10
-95.571711
 20
207.256324
 30
0.0
  0
SPLINE
  5
19f
100
AcDbEntity
  8
Ebene_1
 62
7
100
AcDbSpline
 70
8
 71
3
 72
8
 73
4
 74
0
 40
0
 40
0
 40
0
 40
0
 40
1
 40
1
 40
1
 40
1
 10
-95.571711
 20
207.256324
 30
0.0
 10
-96.795107
 20
206.339989
 30
0.0
 10
-96.639444
 20
206.360082
 30
0.0
 10
-102.517410
 20
206.360211
 30
0.0
  0
SPLINE
  5
1a0
100
AcDbEntity
  8
Ebene_1
 62
7
100
AcDbSpline
 70
8
 71
3
 72
8
 73
4
 74
0
 40
0
 40
0
 40
0
 40
0
 40
1
 40
1
 40
1
 40
1
 10
-102.517410
 20
206.360211
 30
0.0
 10
-107.610460
 20
206.360328
 30
0.0
 10
-107.980440
 20
206.379181
 30
0.0
 10
-108.565860
 20
206.669060
 30
0.0
  0
LWPOLYLINE
  5
1a1
100
AcDbEntity
  8
Ebene_1
 62
7
100
AcDbPolyline
 90
5
 70
0
 10
-47.753358
 20
206.838686
 30
0.0
 10
-48.449007
 20
206.360050
 30
0.0
 10
-54.929256
 20
206.360050
 30
0.0
 10
-61.409522
 20
206.360050
 30
0.0
 10
-61.409522
 20
214.232468
 30
0.0
  0
SPLINE
  5
1a2
100
AcDbEntity
  8
Ebene_1
 62
7
100
AcDbSpline
 70
8
 71
3
 72
8
 73
4
 74
0
 40
0
 40
0
 40
0
 40
0
 40
1
 40
1
 40
1
 40
1
 10
-85.728148
 20
206.361797
 30
0.0
 10
-85.728148
 20
206.758100
 30
0.0
 10
-85.020786
 20
207.960246
 30
0.0
 10
-84.538336
 20
208.383843
 30
0.0
  0
SPLINE
  5
1a3
100
AcDbEntity
  8
Ebene_1
 62
7
100
AcDbSpline
 70
8
 71
3
 72
8
 73
4
 74
0
 40
0
 40
0
 40
0
 40
0
 40
1
 40
1
 40
1
 40
1
 10
-84.538336
 20
208.383843
 30
0.0
 10
-83.285193
 20
209.484132
 30
0.0
 10
-83.324349
 20
209.477874
 30
0.0
 10
-77.706100
 20
209.477874
 30
0.0
  0
LWPOLYLINE
  5
1a4
100
AcDbEntity
  8
Ebene_1
 62
7
100
AcDbPolyline
 90
1
 70
1
 10
-108.565860
 20
206.669060
 30
0.0
  0
SPLINE
  5
1a5
100
AcDbEntity
  8
Ebene_1
 62
7
100
AcDbSpline
 70
8
 71
3
 72
8
 73
4
 74
0
 40
0
 40
0
 40
0
 40
0
 40
1
 40
1
 40
1
 40
1
 10
-77.777833
 20
222.104866
 30
0.0
 10
-73.405151
 20
222.104866
 30
0.0
 10
-69.827499
 20
222.078286
 30
0.0
 10
-69.827499
 20
222.046046
 30
0.0
  0
SPLINE
  5
1a6
100
AcDbEntity
  8
Ebene_1
 62
7
100
AcDbSpline
 70
8
 71
3
 72
8
 73
4
 74
0
 40
0
 40
0
 40
0
 40
0
 40
1
 40
1
 40
1
 40
1
 10
-69.827499
 20
222.046046
 30
0.0
 10
-69.827499
 20
222.013576
 30
0.0
 10
-69.930160
 20
221.741515
 30
0.0
 10
-70.055571
 20
221.441314
 30
0.0
  0
SPLINE
  5
1a7
100
AcDbEntity
  8
Ebene_1
 62
7
100
AcDbSpline
 70
8
 71
3
 72
8
 73
4
 74
0
 40
0
 40
0
 40
0
 40
0
 40
1
 40
1
 40
1
 40
1
 10
-70.055571
 20
221.441314
 30
0.0
 10
-70.348709
 20
220.739718
 30
0.0
 10
-70.980339
 20
219.992772
 30
0.0
 10
-71.754944
 20
219.431622
 30
0.0
  0
LWPOLYLINE
  5
1a8
100
AcDbEntity
  8
Ebene_1
 62
7
100
AcDbPolyline
 90
9
 70
0
 10
-77.706100
 20
209.477874
 30
0.0
 10
-72.633505
 20
209.477874
 30
0.0
 10
-72.633505
 20
211.114710
 30
0.0
 10
-72.633505
 20
212.751554
 30
0.0
 10
-79.180852
 20
212.751554
 30
0.0
 10
-85.728148
 20
212.751554
 30
0.0
 10
-85.728148
 20
217.428200
 30
0.0
 10
-85.728148
 20
222.104866
 30
0.0
 10
-77.777833
 20
222.104866
 30
0.0
  0
SPLINE
  5
1a9
100
AcDbEntity
  8
Ebene_1
 62
7
100
AcDbSpline
 70
8
 71
3
 72
8
 73
4
 74
0
 40
0
 40
0
 40
0
 40
0
 40
1
 40
1
 40
1
 40
1
 10
-77.699885
 20
206.204303
 30
0.0
 10
-83.005823
 20
206.204303
 30
0.0
 10
-85.728148
 20
206.257673
 30
0.0
 10
-85.728148
 20
206.361883
 30
0.0
  0
LWPOLYLINE
  5
1aa
100
AcDbEntity
  8
Ebene_1
 62
7
100
AcDbPolyline
 90
11
 70
0
 10
-71.754944
 20
219.431622
 30
0.0
 10
-72.368516
 20
218.987181
 30
0.0
 10
-77.645339
 20
218.987181
 30
0.0
 10
-82.922152
 20
218.987181
 30
0.0
 10
-82.922152
 20
217.428308
 30
0.0
 10
-82.922152
 20
215.869421
 30
0.0
 10
-76.296897
 20
215.869421
 30
0.0
 10
-69.671632
 20
215.869421
 30
0.0
 10
-69.671632
 20
211.036836
 30
0.0
 10
-69.671632
 20
206.204303
 30
0.0
 10
-77.699885
 20
206.204303
 30
0.0
  0
LWPOLYLINE
  5
1ab
100
AcDbEntity
  8
Ebene_1
 62
7
100
AcDbPolyline
 90
1
 70
1
 10
-85.728148
 20
206.361883
 30
0.0
  0
SPLINE
  5
1ac
100
AcDbEntity
  8
Ebene_1
 62
7
100
AcDbSpline
 70
8
 71
3
 72
8
 73
4
 74
0
 40
0
 40
0
 40
0
 40
0
 40
1
 40
1
 40
1
 40
1
 10
-134.851190
 20
219.583237
 30
0.0
 10
-135.246990
 20
219.868189
 30
0.0
 10
-135.709630
 20
220.289087
 30
0.0
 10
-135.879290
 20
220.518572
 30
0.0
  0
SPLINE
  5
1ad
100
AcDbEntity
  8
Ebene_1
 62
7
100
AcDbSpline
 70
8
 71
3
 72
8
 73
4
 74
0
 40
0
 40
0
 40
0
 40
0
 40
1
 40
1
 40
1
 40
1
 10
-135.879290
 20
220.518572
 30
0.0
 10
-136.199320
 20
220.951450
 30
0.0
 10
-136.703720
 20
221.869618
 30
0.0
 10
-136.703720
 20
222.019280
 30
0.0
  0
SPLINE
  5
1ae
100
AcDbEntity
  8
Ebene_1
 62
7
100
AcDbSpline
 70
8
 71
3
 72
8
 73
4
 74
0
 40
0
 40
0
 40
0
 40
0
 40
1
 40
1
 40
1
 40
1
 10
-136.703720
 20
222.019280
 30
0.0
 10
-136.703720
 20
222.066430
 30
0.0
 10
-132.529820
 20
222.105010
 30
0.0
 10
-127.428360
 20
222.105010
 30
0.0
  0
SPLINE
  5
1af
100
AcDbEntity
  8
Ebene_1
 62
7
100
AcDbSpline
 70
8
 71
3
 72
8
 73
4
 74
0
 40
0
 40
0
 40
0
 40
0
 40
1
 40
1
 40
1
 40
1
 10
-127.428360
 20
222.105010
 30
0.0
 10
-121.111790
 20
222.105010
 30
0.0
 10
-118.152990
 20
222.053350
 30
0.0
 10
-118.152990
 20
221.942907
 30
0.0
  0
SPLINE
  5
1b0
100
AcDbEntity
  8
Ebene_1
 62
7
100
AcDbSpline
 70
8
 71
3
 72
8
 73
4
 74
0
 40
0
 40
0
 40
0
 40
0
 40
1
 40
1
 40
1
 40
1
 10
-118.152990
 20
221.942907
 30
0.0
 10
-118.152990
 20
221.582609
 30
0.0
 10
-118.785450
 20
220.591325
 30
0.0
 10
-119.347920
 20
220.070029
 30
0.0
  0
SPLINE
  5
1b1
100
AcDbEntity
  8
Ebene_1
 62
7
100
AcDbSpline
 70
8
 71
3
 72
8
 73
4
 74
0
 40
0
 40
0
 40
0
 40
0
 40
1
 40
1
 40
1
 40
1
 10
-119.347920
 20
220.070029
 30
0.0
 10
-120.464220
 20
219.035461
 30
0.0
 10
-120.337540
 20
219.071038
 30
0.0
 10
-123.203730
 20
218.987228
 30
0.0
  0
LWPOLYLINE
  5
1b2
100
AcDbEntity
  8
Ebene_1
 62
7
100
AcDbPolyline
 90
5
 70
0
 10
-128.946540
 20
212.556659
 30
0.0
 10
-128.987240
 20
218.909135
 30
0.0
 10
-131.559410
 20
218.987145
 30
0.0
 10
-134.131580
 20
219.065155
 30
0.0
 10
-134.851190
 20
219.583237
 30
0.0
  0
SPLINE
  5
1b3
100
AcDbEntity
  8
Ebene_1
 62
7
100
AcDbSpline
 70
8
 71
3
 72
8
 73
4
 74
0
 40
0
 40
0
 40
0
 40
0
 40
1
 40
1
 40
1
 40
1
 10
-121.486980
 20
244.875974
 30
0.0
 10
-134.616910
 20
244.875974
 30
0.0
 10
-145.260350
 20
234.246883
 30
0.0
 10
-145.260350
 20
221.134684
 30
0.0
  0
LWPOLYLINE
  5
1b4
100
AcDbEntity
  8
Ebene_1
 62
7
100
AcDbPolyline
 90
7
 70
0
 10
-123.203730
 20
218.987228
 30
0.0
 10
-125.869480
 20
218.909218
 30
0.0
 10
-125.910280
 20
212.556743
 30
0.0
 10
-125.950980
 20
206.204289
 30
0.0
 10
-127.428430
 20
206.204289
 30
0.0
 10
-128.905880
 20
206.204289
 30
0.0
 10
-128.946540
 20
212.556659
 30
0.0
  0
SPLINE
  5
1b5
100
AcDbEntity
  8
Ebene_1
 62
7
100
AcDbSpline
 70
8
 71
3
 72
8
 73
4
 74
0
 40
0
 40
0
 40
0
 40
0
 40
1
 40
1
 40
1
 40
1
 10
-145.260350
 20
78.334790
 30
0.0
 10
-145.260350
 20
65.222580
 30
0.0
 10
-134.616910
 20
54.593500
 30
0.0
 10
-121.486980
 20
54.593500
 30
0.0
  0
LWPOLYLINE
  5
1b6
100
AcDbEntity
  8
Ebene_1
 62
7
100
AcDbPolyline
 90
2
 70
0
 10
-145.260350
 20
221.134684
 30
0.0
 10
-145.260350
 20
78.334790
 30
0.0
  0
SPLINE
  5
1b7
100
AcDbEntity
  8
Ebene_1
 62
7
100
AcDbSpline
 70
8
 71
3
 72
8
 73
4
 74
0
 40
0
 40
0
 40
0
 40
0
 40
1
 40
1
 40
1
 40
1
 10
-35.690691
 20
54.593500
 30
0.0
 10
-22.560769
 20
54.593500
 30
0.0
 10
-11.917325
 20
65.222580
 30
0.0
 10
-11.917325
 20
78.334790
 30
0.0
  0
LWPOLYLINE
  5
1b8
100
AcDbEntity
  8
Ebene_1
 62
7
100
AcDbPolyline
 90
2
 70
0
 10
-121.486980
 20
54.593500
 30
0.0
 10
-35.690691
 20
54.593500
 30
0.0
  0
SPLINE
  5
1b9
100
AcDbEntity
  8
Ebene_1
 62
7
100
AcDbSpline
 70
8
 71
3
 72
8
 73
4
 74
0
 40
0
 40
0
 40
0
 40
0
 40
1
 40
1
 40
1
 40
1
 10
-11.917325
 20
221.134684
 30
0.0
 10
-11.917325
 20
234.246883
 30
0.0
 10
-22.560769
 20
244.875974
 30
0.0
 10
-35.690691
 20
244.875974
 30
0.0
  0
LWPOLYLINE
  5
1ba
100
AcDbEntity
  8
Ebene_1
 62
7
100
AcDbPolyline
 90
2
 70
0
 10
-11.917325
 20
78.334790
 30
0.0
 10
-11.917325
 20
221.134684
 30
0.0
  0
LWPOLYLINE
  5
1bb
100
AcDbEntity
  8
Ebene_1
 62
7
100
AcDbPolyline
 90
2
 70
0
 10
-35.690691
 20
244.875974
 30
0.0
 10
-121.486980
 20
244.875974
 30
0.0
  0
SPLINE
  5
1bc
100
AcDbEntity
  8
Ebene_1
 62
7
100
AcDbSpline
 70
8
 71
3
 72
8
 73
4
 74
0
 40
0
 40
0
 40
0
 40
0
 40
1
 40
1
 40
1
 40
1
 10
-35.690691
 20
240.234936
 30
0.0
 10
-25.054989
 20
240.234936
 30
0.0
 10
-16.564630
 20
231.756033
 30
0.0
 10
-16.564630
 20
221.134684
 30
0.0
  0
LWPOLYLINE
  5
1bd
100
AcDbEntity
  8
Ebene_1
 62
7
100
AcDbPolyline
 90
2
 70
0
 10
-121.486980
 20
240.234936
 30
0.0
 10
-35.690691
 20
240.234936
 30
0.0
  0
SPLINE
  5
1be
100
AcDbEntity
  8
Ebene_1
 62
7
100
AcDbSpline
 70
8
 71
3
 72
8
 73
4
 74
0
 40
0
 40
0
 40
0
 40
0
 40
1
 40
1
 40
1
 40
1
 10
-16.564630
 20
78.334790
 30
0.0
 10
-16.564630
 20
67.713450
 30
0.0
 10
-25.054989
 20
59.234540
 30
0.0
 10
-35.690691
 20
59.234540
 30
0.0
  0
LWPOLYLINE
  5
1bf
100
AcDbEntity
  8
Ebene_1
 62
7
100
AcDbPolyline
 90
2
 70
0
 10
-16.564630
 20
221.134684
 30
0.0
 10
-16.564630
 20
78.334790
 30
0.0
  0
SPLINE
  5
1c0
100
AcDbEntity
  8
Ebene_1
 62
7
100
AcDbSpline
 70
8
 71
3
 72
8
 73
4
 74
0
 40
0
 40
0
 40
0
 40
0
 40
1
 40
1
 40
1
 40
1
 10
-121.486980
 20
59.234540
 30
0.0
 10
-132.122680
 20
59.234540
 30
0.0
 10
-140.613040
 20
67.713450
 30
0.0
 10
-140.613040
 20
78.334790
 30
0.0
  0
LWPOLYLINE
  5
1c1
100
AcDbEntity
  8
Ebene_1
 62
7
100
AcDbPolyline
 90
2
 70
0
 10
-35.690691
 20
59.234540
 30
0.0
 10
-121.486980
 20
59.234540
 30
0.0
  0
SPLINE
  5
1c2
100
AcDbEntity
  8
Ebene_1
 62
7
100
AcDbSpline
 70
8
 71
3
 72
8
 73
4
 74
0
 40
0
 40
0
 40
0
 40
0
 40
1
 40
1
 40
1
 40
1
 10
-140.613040
 20
221.134684
 30
0.0
 10
-140.613040
 20
231.756033
 30
0.0
 10
-132.122680
 20
240.234936
 30
0.0
 10
-121.486980
 20
240.234936
 30
0.0
  0
LWPOLYLINE
  5
1c3
100
AcDbEntity
  8
Ebene_1
 62
7
100
AcDbPolyline
 90
2
 70
0
 10
-140.613040
 20
78.334790
 30
0.0
 10
-140.613040
 20
221.134684
 30
0.0
  0
SPLINE
  5
1c4
100
AcDbEntity
  8
Ebene_1
 62
7
100
AcDbSpline
 70
8
 71
3
 72
8
 73
4
 74
0
 40
0
 40
0
 40
0
 40
0
 40
1
 40
1
 40
1
 40
1
 10
-129.567520
 20
69.449040
 30
0.0
 10
-129.567524
 20
68.509473
 30
0.0
 10
-130.329193
 20
67.747804
 30
0.0
 10
-131.268760
 20
67.747800
 30
0.0
  0
SPLINE
  5
1c5
100
AcDbEntity
  8
Ebene_1
 62
7
100
AcDbSpline
 70
8
 71
3
 72
8
 73
4
 74
0
 40
0
 40
0
 40
0
 40
0
 40
1
 40
1
 40
1
 40
1
 10
-131.268760
 20
67.747800
 30
0.0
 10
-132.208327
 20
67.747804
 30
0.0
 10
-132.969996
 20
68.509473
 30
0.0
 10
-132.970000
 20
69.449040
 30
0.0
  0
SPLINE
  5
1c6
100
AcDbEntity
  8
Ebene_1
 62
7
100
AcDbSpline
 70
8
 71
3
 72
8
 73
4
 74
0
 40
0
 40
0
 40
0
 40
0
 40
1
 40
1
 40
1
 40
1
 10
-132.970000
 20
69.449040
 30
0.0
 10
-132.970002
 20
70.388611
 30
0.0
 10
-132.208331
 20
71.150286
 30
0.0
 10
-131.268760
 20
71.150290
 30
0.0
  0
SPLINE
  5
1c7
100
AcDbEntity
  8
Ebene_1
 62
7
100
AcDbSpline
 70
8
 71
3
 72
8
 73
4
 74
0
 40
0
 40
0
 40
0
 40
0
 40
1
 40
1
 40
1
 40
1
 10
-131.268760
 20
71.150290
 30
0.0
 10
-130.329189
 20
71.150286
 30
0.0
 10
-129.567518
 20
70.388611
 30
0.0
 10
-129.567520
 20
69.449040
 30
0.0
  0
LWPOLYLINE
  5
1c8
100
AcDbEntity
  8
Ebene_1
 62
7
100
AcDbPolyline
 90
1
 70
1
 10
-121.486980
 20
240.234936
 30
0.0
  0
SPLINE
  5
1c9
100
AcDbEntity
  8
Ebene_1
 62
7
100
AcDbSpline
 70
8
 71
3
 72
8
 73
4
 74
0
 40
0
 40
0
 40
0
 40
0
 40
1
 40
1
 40
1
 40
1
 10
-24.148932
 20
69.647520
 30
0.0
 10
-24.148930
 20
68.707949
 30
0.0
 10
-24.910600
 20
67.946274
 30
0.0
 10
-25.850171
 20
67.946270
 30
0.0
  0
SPLINE
  5
1ca
100
AcDbEntity
  8
Ebene_1
 62
7
100
AcDbSpline
 70
8
 71
3
 72
8
 73
4
 74
0
 40
0
 40
0
 40
0
 40
0
 40
1
 40
1
 40
1
 40
1
 10
-25.850171
 20
67.946270
 30
0.0
 10
-26.301371
 20
67.946269
 30
0.0
 10
-26.734090
 20
68.125508
 30
0.0
 10
-27.053137
 20
68.444554
 30
0.0
  0
SPLINE
  5
1cb
100
AcDbEntity
  8
Ebene_1
 62
7
100
AcDbSpline
 70
8
 71
3
 72
8
 73
4
 74
0
 40
0
 40
0
 40
0
 40
0
 40
1
 40
1
 40
1
 40
1
 10
-27.053137
 20
68.444554
 30
0.0
 10
-27.372183
 20
68.763600
 30
0.0
 10
-27.551421
 20
69.196320
 30
0.0
 10
-27.551420
 20
69.647520
 30
0.0
  0
SPLINE
  5
1cc
100
AcDbEntity
  8
Ebene_1
 62
7
100
AcDbSpline
 70
8
 71
3
 72
8
 73
4
 74
0
 40
0
 40
0
 40
0
 40
0
 40
1
 40
1
 40
1
 40
1
 10
-27.551420
 20
69.647520
 30
0.0
 10
-27.551416
 20
70.587091
 30
0.0
 10
-26.789742
 20
71.348761
 30
0.0
 10
-25.850171
 20
71.348760
 30
0.0
  0
SPLINE
  5
1cd
100
AcDbEntity
  8
Ebene_1
 62
7
100
AcDbSpline
 70
8
 71
3
 72
8
 73
4
 74
0
 40
0
 40
0
 40
0
 40
0
 40
1
 40
1
 40
1
 40
1
 10
-25.850171
 20
71.348760
 30
0.0
 10
-24.910604
 20
71.348756
 30
0.0
 10
-24.148936
 20
70.587087
 30
0.0
 10
-24.148932
 20
69.647520
 30
0.0
  0
LWPOLYLINE
  5
1ce
100
AcDbEntity
  8
Ebene_1
 62
7
100
AcDbPolyline
 90
1
 70
1
 10
-129.567520
 20
69.449040
 30
0.0
  0
SPLINE
  5
1cf
100
AcDbEntity
  8
Ebene_1
 62
7
100
AcDbSpline
 70
8
 71
3
 72
8
 73
4
 74
0
 40
0
 40
0
 40
0
 40
0
 40
1
 40
1
 40
1
 40
1
 10
-23.891709
 20
229.623473
 30
0.0
 10
-23.891713
 20
228.683903
 30
0.0
 10
-24.653388
 20
227.922233
 30
0.0
 10
-25.592958
 20
227.922234
 30
0.0
  0
SPLINE
  5
1d0
100
AcDbEntity
  8
Ebene_1
 62
7
100
AcDbSpline
 70
8
 71
3
 72
8
 73
4
 74
0
 40
0
 40
0
 40
0
 40
0
 40
1
 40
1
 40
1
 40
1
 10
-25.592958
 20
227.922234
 30
0.0
 10
-26.532528
 20
227.922233
 30
0.0
 10
-27.294203
 20
228.683903
 30
0.0
 10
-27.294207
 20
229.623473
 30
0.0
  0
SPLINE
  5
1d1
100
AcDbEntity
  8
Ebene_1
 62
7
100
AcDbSpline
 70
8
 71
3
 72
8
 73
4
 74
0
 40
0
 40
0
 40
0
 40
0
 40
1
 40
1
 40
1
 40
1
 10
-27.294207
 20
229.623473
 30
0.0
 10
-27.294208
 20
230.074673
 30
0.0
 10
-27.114970
 20
230.507393
 30
0.0
 10
-26.795924
 20
230.826439
 30
0.0
  0
SPLINE
  5
1d2
100
AcDbEntity
  8
Ebene_1
 62
7
100
AcDbSpline
 70
8
 71
3
 72
8
 73
4
 74
0
 40
0
 40
0
 40
0
 40
0
 40
1
 40
1
 40
1
 40
1
 10
-26.795924
 20
230.826439
 30
0.0
 10
-26.476877
 20
231.145485
 30
0.0
 10
-26.044158
 20
231.324724
 30
0.0
 10
-25.592958
 20
231.324723
 30
0.0
  0
SPLINE
  5
1d3
100
AcDbEntity
  8
Ebene_1
 62
7
100
AcDbSpline
 70
8
 71
3
 72
8
 73
4
 74
0
 40
0
 40
0
 40
0
 40
0
 40
1
 40
1
 40
1
 40
1
 10
-25.592958
 20
231.324723
 30
0.0
 10
-25.141758
 20
231.324724
 30
0.0
 10
-24.709039
 20
231.145485
 30
0.0
 10
-24.389992
 20
230.826439
 30
0.0
  0
SPLINE
  5
1d4
100
AcDbEntity
  8
Ebene_1
 62
7
100
AcDbSpline
 70
8
 71
3
 72
8
 73
4
 74
0
 40
0
 40
0
 40
0
 40
0
 40
1
 40
1
 40
1
 40
1
 10
-24.389992
 20
230.826439
 30
0.0
 10
-24.070946
 20
230.507393
 30
0.0
 10
-23.891708
 20
230.074673
 30
0.0
 10
-23.891709
 20
229.623473
 30
0.0
  0
LWPOLYLINE
  5
1d5
100
AcDbEntity
  8
Ebene_1
 62
7
100
AcDbPolyline
 90
1
 70
1
 10
-24.148932
 20
69.647520
 30
0.0
  0
SPLINE
  5
1d6
100
AcDbEntity
  8
Ebene_1
 62
7
100
AcDbSpline
 70
8
 71
3
 72
8
 73
4
 74
0
 40
0
 40
0
 40
0
 40
0
 40
1
 40
1
 40
1
 40
1
 10
-129.369030
 20
229.623473
 30
0.0
 10
-129.369034
 20
228.683902
 30
0.0
 10
-130.130709
 20
227.922232
 30
0.0
 10
-131.070280
 20
227.922234
 30
0.0
  0
SPLINE
  5
1d7
100
AcDbEntity
  8
Ebene_1
 62
7
100
AcDbSpline
 70
8
 71
3
 72
8
 73
4
 74
0
 40
0
 40
0
 40
0
 40
0
 40
1
 40
1
 40
1
 40
1
 10
-131.070280
 20
227.922234
 30
0.0
 10
-131.521480
 20
227.922231
 30
0.0
 10
-131.954201
 20
228.101466
 30
0.0
 10
-132.273249
 20
228.420510
 30
0.0
  0
SPLINE
  5
1d8
100
AcDbEntity
  8
Ebene_1
 62
7
100
AcDbSpline
 70
8
 71
3
 72
8
 73
4
 74
0
 40
0
 40
0
 40
0
 40
0
 40
1
 40
1
 40
1
 40
1
 10
-132.273249
 20
228.420510
 30
0.0
 10
-132.592297
 20
228.739555
 30
0.0
 10
-132.771538
 20
229.172273
 30
0.0
 10
-132.771540
 20
229.623473
 30
0.0
  0
SPLINE
  5
1d9
100
AcDbEntity
  8
Ebene_1
 62
7
100
AcDbSpline
 70
8
 71
3
 72
8
 73
4
 74
0
 40
0
 40
0
 40
0
 40
0
 40
1
 40
1
 40
1
 40
1
 10
-132.771540
 20
229.623473
 30
0.0
 10
-132.771541
 20
230.074675
 30
0.0
 10
-132.592301
 20
230.507396
 30
0.0
 10
-132.273253
 20
230.826443
 30
0.0
  0
SPLINE
  5
1da
100
AcDbEntity
  8
Ebene_1
 62
7
100
AcDbSpline
 70
8
 71
3
 72
8
 73
4
 74
0
 40
0
 40
0
 40
0
 40
0
 40
1
 40
1
 40
1
 40
1
 10
-132.273253
 20
230.826443
 30
0.0
 10
-131.954204
 20
231.145490
 30
0.0
 10
-131.521482
 20
231.324726
 30
0.0
 10
-131.070280
 20
231.324723
 30
0.0
  0
SPLINE
  5
1db
100
AcDbEntity
  8
Ebene_1
 62
7
100
AcDbSpline
 70
8
 71
3
 72
8
 73
4
 74
0
 40
0
 40
0
 40
0
 40
0
 40
1
 40
1
 40
1
 40
1
 10
-131.070280
 20
231.324723
 30
0.0
 10
-130.619080
 20
231.324724
 30
0.0
 10
-130.186360
 20
231.145486
 30
0.0
 10
-129.867314
 20
230.826439
 30
0.0
  0
SPLINE
  5
1dc
100
AcDbEntity
  8
Ebene_1
 62
7
100
AcDbSpline
 70
8
 71
3
 72
8
 73
4
 74
0
 40
0
 40
0
 40
0
 40
0
 40
1
 40
1
 40
1
 40
1
 10
-129.867314
 20
230.826439
 30
0.0
 10
-129.548267
 20
230.507393
 30
0.0
 10
-129.369029
 20
230.074673
 30
0.0
 10
-129.369030
 20
229.623473
 30
0.0
  0
LWPOLYLINE
  5
1dd
100
AcDbEntity
  8
Ebene_1
 62
7
100
AcDbPolyline
 90
1
 70
1
 10
-23.891709
 20
229.623473
 30
0.0
  0
SPLINE
  5
1de
100
AcDbEntity
  8
Ebene_1
 62
7
100
AcDbSpline
 70
8
 71
3
 72
8
 73
4
 74
0
 40
0
 40
0
 40
0
 40
0
 40
1
 40
1
 40
1
 40
1
 10
-78.494494
 20
99.152310
 30
0.0
 10
-78.659512
 20
100.022600
 30
0.0
 10
-92.859182
 20
179.298710
 30
0.0
 10
-92.859182
 20
179.349680
 30
0.0
  0
SPLINE
  5
1df
100
AcDbEntity
  8
Ebene_1
 62
7
100
AcDbSpline
 70
8
 71
3
 72
8
 73
4
 74
0
 40
0
 40
0
 40
0
 40
0
 40
1
 40
1
 40
1
 40
1
 10
-92.859182
 20
179.349680
 30
0.0
 10
-92.859182
 20
179.421880
 30
0.0
 10
-97.053153
 20
179.316080
 30
0.0
 10
-99.161236
 20
179.190350
 30
0.0
  0
SPLINE
  5
1e0
100
AcDbEntity
  8
Ebene_1
 62
7
100
AcDbSpline
 70
8
 71
3
 72
8
 73
4
 74
0
 40
0
 40
0
 40
0
 40
0
 40
1
 40
1
 40
1
 40
1
 10
-99.161236
 20
179.190350
 30
0.0
 10
-105.434840
 20
178.816230
 30
0.0
 10
-108.661530
 20
177.717630
 30
0.0
 10
-110.221070
 20
175.424740
 30
0.0
  0
SPLINE
  5
1e1
100
AcDbEntity
  8
Ebene_1
 62
7
100
AcDbSpline
 70
8
 71
3
 72
8
 73
4
 74
0
 40
0
 40
0
 40
0
 40
0
 40
1
 40
1
 40
1
 40
1
 10
-110.221070
 20
175.424740
 30
0.0
 10
-110.796030
 20
174.579380
 30
0.0
 10
-111.036110
 20
173.976610
 30
0.0
 10
-111.287080
 20
172.748260
 30
0.0
  0
SPLINE
  5
1e2
100
AcDbEntity
  8
Ebene_1
 62
7
100
AcDbSpline
 70
8
 71
3
 72
8
 73
4
 74
0
 40
0
 40
0
 40
0
 40
0
 40
1
 40
1
 40
1
 40
1
 10
-111.287080
 20
172.748260
 30
0.0
 10
-111.389110
 20
172.249190
 30
0.0
 10
-111.491000
 20
171.822230
 30
0.0
 10
-111.513760
 20
171.799520
 30
0.0
  0
SPLINE
  5
1e3
100
AcDbEntity
  8
Ebene_1
 62
7
100
AcDbSpline
 70
8
 71
3
 72
8
 73
4
 74
0
 40
0
 40
0
 40
0
 40
0
 40
1
 40
1
 40
1
 40
1
 10
-111.513760
 20
171.799520
 30
0.0
 10
-111.590060
 20
171.723220
 30
0.0
 10
-114.197300
 20
172.961930
 30
0.0
 10
-115.503560
 20
173.695300
 30
0.0
  0
SPLINE
  5
1e4
100
AcDbEntity
  8
Ebene_1
 62
7
100
AcDbSpline
 70
8
 71
3
 72
8
 73
4
 74
0
 40
0
 40
0
 40
0
 40
0
 40
1
 40
1
 40
1
 40
1
 10
-115.503560
 20
173.695300
 30
0.0
 10
-119.410630
 20
175.888780
 30
0.0
 10
-122.478030
 20
178.428500
 30
0.0
 10
-124.564660
 20
181.197710
 30
0.0
  0
SPLINE
  5
1e5
100
AcDbEntity
  8
Ebene_1
 62
7
100
AcDbSpline
 70
8
 71
3
 72
8
 73
4
 74
0
 40
0
 40
0
 40
0
 40
0
 40
1
 40
1
 40
1
 40
1
 10
-124.564660
 20
181.197710
 30
0.0
 10
-124.871270
 20
181.604550
 30
0.0
 10
-125.122070
 20
181.970710
 30
0.0
 10
-125.122070
 20
182.011400
 30
0.0
  0
SPLINE
  5
1e6
100
AcDbEntity
  8
Ebene_1
 62
7
100
AcDbSpline
 70
8
 71
3
 72
8
 73
4
 74
0
 40
0
 40
0
 40
0
 40
0
 40
1
 40
1
 40
1
 40
1
 10
-125.122070
 20
182.011400
 30
0.0
 10
-125.122070
 20
182.052300
 30
0.0
 10
-124.963320
 20
182.151120
 30
0.0
 10
-124.769340
 20
182.231380
 30
0.0
  0
SPLINE
  5
1e7
100
AcDbEntity
  8
Ebene_1
 62
7
100
AcDbSpline
 70
8
 71
3
 72
8
 73
4
 74
0
 40
0
 40
0
 40
0
 40
0
 40
1
 40
1
 40
1
 40
1
 10
-124.769340
 20
182.231380
 30
0.0
 10
-124.575320
 20
182.311680
 30
0.0
 10
-123.739400
 20
182.671990
 30
0.0
 10
-122.911630
 20
183.032070
 30
0.0
  0
SPLINE
  5
1e8
100
AcDbEntity
  8
Ebene_1
 62
7
100
AcDbSpline
 70
8
 71
3
 72
8
 73
4
 74
0
 40
0
 40
0
 40
0
 40
0
 40
1
 40
1
 40
1
 40
1
 10
-122.911630
 20
183.032070
 30
0.0
 10
-113.427870
 20
187.157900
 30
0.0
 10
-101.100400
 20
190.041790
 30
0.0
 10
-90.037347
 20
190.722710
 30
0.0
  0
LWPOLYLINE
  5
1e9
100
AcDbEntity
  8
Ebene_1
 62
7
100
AcDbPolyline
 90
1
 70
1
 10
-129.369030
 20
229.623473
 30
0.0
  0
SPLINE
  5
1ea
100
AcDbEntity
  8
Ebene_1
 62
7
100
AcDbSpline
 70
8
 71
3
 72
8
 73
4
 74
0
 40
0
 40
0
 40
0
 40
0
 40
1
 40
1
 40
1
 40
1
 10
-83.748530
 20
184.323810
 30
0.0
 10
-80.832877
 20
180.771020
 30
0.0
 10
-78.415109
 20
177.899770
 30
0.0
 10
-78.375679
 20
177.943250
 30
0.0
  0
SPLINE
  5
1eb
100
AcDbEntity
  8
Ebene_1
 62
7
100
AcDbSpline
 70
8
 71
3
 72
8
 73
4
 74
0
 40
0
 40
0
 40
0
 40
0
 40
1
 40
1
 40
1
 40
1
 10
-78.375679
 20
177.943250
 30
0.0
 10
-78.336339
 20
177.986550
 30
0.0
 10
-75.969844
 20
180.866780
 30
0.0
 10
-73.117018
 20
184.343300
 30
0.0
  0
SPLINE
  5
1ec
100
AcDbEntity
  8
Ebene_1
 62
7
100
AcDbSpline
 70
8
 71
3
 72
8
 73
4
 74
0
 40
0
 40
0
 40
0
 40
0
 40
1
 40
1
 40
1
 40
1
 10
-73.117018
 20
184.343300
 30
0.0
 10
-70.264169
 20
187.819810
 30
0.0
 10
-67.886447
 20
190.691210
 30
0.0
 10
-67.833203
 20
190.724140
 30
0.0
  0
SPLINE
  5
1ed
100
AcDbEntity
  8
Ebene_1
 62
7
100
AcDbSpline
 70
8
 71
3
 72
8
 73
4
 74
0
 40
0
 40
0
 40
0
 40
0
 40
1
 40
1
 40
1
 40
1
 10
-67.833203
 20
190.724140
 30
0.0
 10
-67.722110
 20
190.792640
 30
0.0
 10
-65.349502
 20
190.639840
 30
0.0
 10
-63.277040
 20
190.430280
 30
0.0
  0
SPLINE
  5
1ee
100
AcDbEntity
  8
Ebene_1
 62
7
100
AcDbSpline
 70
8
 71
3
 72
8
 73
4
 74
0
 40
0
 40
0
 40
0
 40
0
 40
1
 40
1
 40
1
 40
1
 10
-63.277040
 20
190.430280
 30
0.0
 10
-54.537164
 20
189.546840
 30
0.0
 10
-45.759292
 20
187.524420
 30
0.0
 10
-37.786528
 20
184.557290
 30
0.0
  0
SPLINE
  5
1ef
100
AcDbEntity
  8
Ebene_1
 62
7
100
AcDbSpline
 70
8
 71
3
 72
8
 73
4
 74
0
 40
0
 40
0
 40
0
 40
0
 40
1
 40
1
 40
1
 40
1
 10
-37.786528
 20
184.557290
 30
0.0
 10
-35.904918
 20
183.857050
 30
0.0
 10
-32.878239
 20
182.607200
 30
0.0
 10
-32.088874
 20
182.204490
 30
0.0
  0
LWPOLYLINE
  5
1f0
100
AcDbEntity
  8
Ebene_1
 62
7
100
AcDbPolyline
 90
3
 70
0
 10
-90.037347
 20
190.722710
 30
0.0
 10
-89.049727
 20
190.783510
 30
0.0
 10
-83.748530
 20
184.323810
 30
0.0
  0
SPLINE
  5
1f1
100
AcDbEntity
  8
Ebene_1
 62
7
100
AcDbSpline
 70
8
 71
3
 72
8
 73
4
 74
0
 40
0
 40
0
 40
0
 40
0
 40
1
 40
1
 40
1
 40
1
 10
-32.195791
 20
181.362350
 30
0.0
 10
-34.044438
 20
178.820710
 30
0.0
 10
-36.942531
 20
176.323010
 30
0.0
 10
-40.531532
 20
174.178220
 30
0.0
  0
SPLINE
  5
1f2
100
AcDbEntity
  8
Ebene_1
 62
7
100
AcDbSpline
 70
8
 71
3
 72
8
 73
4
 74
0
 40
0
 40
0
 40
0
 40
0
 40
1
 40
1
 40
1
 40
1
 10
-40.531532
 20
174.178220
 30
0.0
 10
-41.518580
 20
173.588370
 30
0.0
 10
-44.786037
 20
171.948380
 30
0.0
 10
-45.231551
 20
171.819240
 30
0.0
  0
SPLINE
  5
1f3
100
AcDbEntity
  8
Ebene_1
 62
7
100
AcDbSpline
 70
8
 71
3
 72
8
 73
4
 74
0
 40
0
 40
0
 40
0
 40
0
 40
1
 40
1
 40
1
 40
1
 10
-45.231551
 20
171.819240
 30
0.0
 10
-45.415408
 20
171.765940
 30
0.0
 10
-45.440062
 20
171.805840
 30
0.0
 10
-45.501218
 20
172.257770
 30
0.0
  0
SPLINE
  5
1f4
100
AcDbEntity
  8
Ebene_1
 62
7
100
AcDbSpline
 70
8
 71
3
 72
8
 73
4
 74
0
 40
0
 40
0
 40
0
 40
0
 40
1
 40
1
 40
1
 40
1
 10
-45.501218
 20
172.257770
 30
0.0
 10
-45.538238
 20
172.531210
 30
0.0
 10
-45.671962
 20
173.113630
 30
0.0
 10
-45.798369
 20
173.551970
 30
0.0
  0
SPLINE
  5
1f5
100
AcDbEntity
  8
Ebene_1
 62
7
100
AcDbSpline
 70
8
 71
3
 72
8
 73
4
 74
0
 40
0
 40
0
 40
0
 40
0
 40
1
 40
1
 40
1
 40
1
 10
-45.798369
 20
173.551970
 30
0.0
 10
-46.793778
 20
177.003800
 30
0.0
 10
-49.734870
 20
178.536610
 30
0.0
 10
-56.457617
 20
179.107120
 30
0.0
  0
SPLINE
  5
1f6
100
AcDbEntity
  8
Ebene_1
 62
7
100
AcDbSpline
 70
8
 71
3
 72
8
 73
4
 74
0
 40
0
 40
0
 40
0
 40
0
 40
1
 40
1
 40
1
 40
1
 10
-56.457617
 20
179.107120
 30
0.0
 10
-57.921442
 20
179.231300
 30
0.0
 10
-64.009305
 20
179.390740
 30
0.0
 10
-64.085794
 20
179.306820
 30
0.0
  0
SPLINE
  5
1f7
100
AcDbEntity
  8
Ebene_1
 62
7
100
AcDbSpline
 70
8
 71
3
 72
8
 73
4
 74
0
 40
0
 40
0
 40
0
 40
0
 40
1
 40
1
 40
1
 40
1
 10
-64.085794
 20
179.306820
 30
0.0
 10
-64.125024
 20
179.263820
 30
0.0
 10
-75.877269
 20
113.336750
 30
0.0
 10
-78.357547
 20
99.246380
 30
0.0
  0
LWPOLYLINE
  5
1f8
100
AcDbEntity
  8
Ebene_1
 62
7
100
AcDbPolyline
 90
3
 70
0
 10
-32.088874
 20
182.204490
 30
0.0
 10
-31.720103
 20
182.016360
 30
0.0
 10
-32.195791
 20
181.362350
 30
0.0
  0
SPLINE
  5
1f9
100
AcDbEntity
  8
Ebene_1
 62
7
100
AcDbSpline
 70
8
 71
3
 72
8
 73
4
 74
0
 40
0
 40
0
 40
0
 40
0
 40
1
 40
1
 40
1
 40
1
 10
-31.719606
 20
185.567940
 30
0.0
 10
-42.953652
 20
190.305840
 30
0.0
 10
-55.716868
 20
193.320760
 30
0.0
 10
-68.450401
 20
194.244390
 30
0.0
  0
SPLINE
  5
1fa
100
AcDbEntity
  8
Ebene_1
 62
7
100
AcDbSpline
 70
8
 71
3
 72
8
 73
4
 74
0
 40
0
 40
0
 40
0
 40
0
 40
1
 40
1
 40
1
 40
1
 10
-68.450401
 20
194.244390
 30
0.0
 10
-72.541398
 20
194.541150
 30
0.0
 10
-81.040439
 20
194.638330
 30
0.0
 10
-85.155907
 20
194.435390
 30
0.0
  0
SPLINE
  5
1fb
100
AcDbEntity
  8
Ebene_1
 62
7
100
AcDbSpline
 70
8
 71
3
 72
8
 73
4
 74
0
 40
0
 40
0
 40
0
 40
0
 40
1
 40
1
 40
1
 40
1
 10
-85.155907
 20
194.435390
 30
0.0
 10
-99.417946
 20
193.732220
 30
0.0
 10
-112.539320
 20
190.825690
 30
0.0
 10
-125.149690
 20
185.576340
 30
0.0
  0
SPLINE
  5
1fc
100
AcDbEntity
  8
Ebene_1
 62
7
100
AcDbSpline
 70
8
 71
3
 72
8
 73
4
 74
0
 40
0
 40
0
 40
0
 40
0
 40
1
 40
1
 40
1
 40
1
 10
-125.149690
 20
185.576340
 30
0.0
 10
-126.018490
 20
185.214670
 30
0.0
 10
-126.783420
 20
184.939550
 30
0.0
 10
-126.849540
 20
184.964900
 30
0.0
  0
SPLINE
  5
1fd
100
AcDbEntity
  8
Ebene_1
 62
7
100
AcDbSpline
 70
8
 71
3
 72
8
 73
4
 74
0
 40
0
 40
0
 40
0
 40
0
 40
1
 40
1
 40
1
 40
1
 10
-126.849540
 20
184.964900
 30
0.0
 10
-126.915940
 20
184.990500
 30
0.0
 10
-127.459580
 20
185.999360
 30
0.0
 10
-128.058250
 20
187.207350
 30
0.0
  0
SPLINE
  5
1fe
100
AcDbEntity
  8
Ebene_1
 62
7
100
AcDbSpline
 70
8
 71
3
 72
8
 73
4
 74
0
 40
0
 40
0
 40
0
 40
0
 40
1
 40
1
 40
1
 40
1
 10
-128.058250
 20
187.207350
 30
0.0
 10
-129.178350
 20
189.467410
 30
0.0
 10
-129.700360
 20
190.641460
 30
0.0
 10
-129.620580
 20
190.721270
 30
0.0
  0
SPLINE
  5
1ff
100
AcDbEntity
  8
Ebene_1
 62
7
100
AcDbSpline
 70
8
 71
3
 72
8
 73
4
 74
0
 40
0
 40
0
 40
0
 40
0
 40
1
 40
1
 40
1
 40
1
 10
-129.620580
 20
190.721270
 30
0.0
 10
-129.538780
 20
190.802970
 30
0.0
 10
-126.250220
 20
192.045310
 30
0.0
 10
-124.322530
 20
192.722780
 30
0.0
  0
SPLINE
  5
200
100
AcDbEntity
  8
Ebene_1
 62
7
100
AcDbSpline
 70
8
 71
3
 72
8
 73
4
 74
0
 40
0
 40
0
 40
0
 40
0
 40
1
 40
1
 40
1
 40
1
 10
-124.322530
 20
192.722780
 30
0.0
 10
-106.251300
 20
199.073896
 30
0.0
 10
-86.951639
 20
201.705773
 30
0.0
 10
-68.685552
 20
200.310029
 30
0.0
  0
SPLINE
  5
201
100
AcDbEntity
  8
Ebene_1
 62
7
100
AcDbSpline
 70
8
 71
3
 72
8
 73
4
 74
0
 40
0
 40
0
 40
0
 40
0
 40
1
 40
1
 40
1
 40
1
 10
-68.685552
 20
200.310029
 30
0.0
 10
-55.023569
 20
199.266103
 30
0.0
 10
-42.147808
 20
196.384250
 30
0.0
 10
-29.041140
 20
191.436800
 30
0.0
  0
SPLINE
  5
202
100
AcDbEntity
  8
Ebene_1
 62
7
100
AcDbSpline
 70
8
 71
3
 72
8
 73
4
 74
0
 40
0
 40
0
 40
0
 40
0
 40
1
 40
1
 40
1
 40
1
 10
-29.041140
 20
191.436800
 30
0.0
 10
-28.065320
 20
191.068460
 30
0.0
 10
-27.250143
 20
190.750330
 30
0.0
 10
-27.229664
 20
190.729810
 30
0.0
  0
SPLINE
  5
203
100
AcDbEntity
  8
Ebene_1
 62
7
100
AcDbSpline
 70
8
 71
3
 72
8
 73
4
 74
0
 40
0
 40
0
 40
0
 40
0
 40
1
 40
1
 40
1
 40
1
 10
-27.229664
 20
190.729810
 30
0.0
 10
-27.122475
 20
190.622830
 30
0.0
 10
-29.743211
 20
185.151810
 30
0.0
 10
-30.008754
 20
184.928240
 30
0.0
  0
SPLINE
  5
204
100
AcDbEntity
  8
Ebene_1
 62
7
100
AcDbSpline
 70
8
 71
3
 72
8
 73
4
 74
0
 40
0
 40
0
 40
0
 40
0
 40
1
 40
1
 40
1
 40
1
 10
-30.008754
 20
184.928240
 30
0.0
 10
-30.044454
 20
184.898240
 30
0.0
 10
-30.814259
 20
185.186120
 30
0.0
 10
-31.719606
 20
185.567940
 30
0.0
  0
LWPOLYLINE
  5
205
100
AcDbEntity
  8
Ebene_1
 62
7
100
AcDbPolyline
 90
3
 70
0
 10
-78.357547
 20
99.246380
 30
0.0
 10
-78.432127
 20
98.823110
 30
0.0
 10
-78.494494
 20
99.152310
 30
0.0
  0
SPLINE
  5
206
100
AcDbEntity
  8
Ebene_1
 62
7
100
AcDbSpline
 70
8
 71
3
 72
8
 73
4
 74
0
 40
0
 40
0
 40
0
 40
0
 40
1
 40
1
 40
1
 40
1
 10
-276.779970
 20
80.679630
 30
0.0
 10
-276.779970
 20
81.462623
 30
0.0
 10
-276.506660
 20
82.127427
 30
0.0
 10
-275.960040
 20
82.674040
 30
0.0
  0
SPLINE
  5
207
100
AcDbEntity
  8
Ebene_1
 62
7
100
AcDbSpline
 70
8
 71
3
 72
8
 73
4
 74
0
 40
0
 40
0
 40
0
 40
0
 40
1
 40
1
 40
1
 40
1
 10
-275.960040
 20
82.674040
 30
0.0
 10
-275.398647
 20
83.235433
 30
0.0
 10
-274.726457
 20
83.516130
 30
0.0
 10
-273.943470
 20
83.516130
 30
0.0
  0
LWPOLYLINE
  5
208
100
AcDbEntity
  8
Ebene_1
 62
7
100
AcDbPolyline
 90
1
 70
1
 10
-31.719606
 20
185.567940
 30
0.0
  0
SPLINE
  5
209
100
AcDbEntity
  8
Ebene_1
 62
7
100
AcDbSpline
 70
8
 71
3
 72
8
 73
4
 74
0
 40
0
 40
0
 40
0
 40
0
 40
1
 40
1
 40
1
 40
1
 10
-259.760950
 20
94.862140
 30
0.0
 10
-259.760950
 20
94.064373
 30
0.0
 10
-260.041647
 20
93.392183
 30
0.0
 10
-260.603040
 20
92.845570
 30
0.0
  0
SPLINE
  5
20a
100
AcDbEntity
  8
Ebene_1
 62
7
100
AcDbSpline
 70
8
 71
3
 72
8
 73
4
 74
0
 40
0
 40
0
 40
0
 40
0
 40
1
 40
1
 40
1
 40
1
 10
-260.603040
 20
92.845570
 30
0.0
 10
-261.164427
 20
92.298950
 30
0.0
 10
-261.829230
 20
92.025640
 30
0.0
 10
-262.597450
 20
92.025640
 30
0.0
  0
LWPOLYLINE
  5
20b
100
AcDbEntity
  8
Ebene_1
 62
7
100
AcDbPolyline
 90
6
 70
0
 10
-273.943470
 20
83.516130
 30
0.0
 10
-262.597450
 20
83.516130
 30
0.0
 10
-262.597450
 20
86.352630
 30
0.0
 10
-276.779970
 20
86.352630
 30
0.0
 10
-276.779970
 20
94.862140
 30
0.0
 10
-259.760950
 20
94.862140
 30
0.0
  0
SPLINE
  5
20c
100
AcDbEntity
  8
Ebene_1
 62
7
100
AcDbSpline
 70
8
 71
3
 72
8
 73
4
 74
0
 40
0
 40
0
 40
0
 40
0
 40
1
 40
1
 40
1
 40
1
 10
-254.087940
 20
80.679630
 30
0.0
 10
-254.885707
 20
80.679630
 30
0.0
 10
-255.557900
 20
80.952937
 30
0.0
 10
-256.104520
 20
81.499550
 30
0.0
  0
SPLINE
  5
20d
100
AcDbEntity
  8
Ebene_1
 62
7
100
AcDbSpline
 70
8
 71
3
 72
8
 73
4
 74
0
 40
0
 40
0
 40
0
 40
0
 40
1
 40
1
 40
1
 40
1
 10
-256.104520
 20
81.499550
 30
0.0
 10
-256.651140
 20
82.060943
 30
0.0
 10
-256.924450
 20
82.733137
 30
0.0
 10
-256.924450
 20
83.516130
 30
0.0
  0
LWPOLYLINE
  5
20e
100
AcDbEntity
  8
Ebene_1
 62
7
100
AcDbPolyline
 90
6
 70
0
 10
-262.597450
 20
92.025640
 30
0.0
 10
-273.943470
 20
92.025640
 30
0.0
 10
-273.943470
 20
89.189140
 30
0.0
 10
-259.760950
 20
89.189140
 30
0.0
 10
-259.760950
 20
80.679630
 30
0.0
 10
-276.779970
 20
80.679630
 30
0.0
  0
SPLINE
  5
20f
100
AcDbEntity
  8
Ebene_1
 62
7
100
AcDbSpline
 70
8
 71
3
 72
8
 73
4
 74
0
 40
0
 40
0
 40
0
 40
0
 40
1
 40
1
 40
1
 40
1
 10
-256.924450
 20
89.189140
 30
0.0
 10
-256.924450
 20
89.972133
 30
0.0
 10
-256.651140
 20
90.636937
 30
0.0
 10
-256.104520
 20
91.183550
 30
0.0
  0
SPLINE
  5
210
100
AcDbEntity
  8
Ebene_1
 62
7
100
AcDbSpline
 70
8
 71
3
 72
8
 73
4
 74
0
 40
0
 40
0
 40
0
 40
0
 40
1
 40
1
 40
1
 40
1
 10
-256.104520
 20
91.183550
 30
0.0
 10
-255.543127
 20
91.744943
 30
0.0
 10
-254.870933
 20
92.025640
 30
0.0
 10
-254.087940
 20
92.025640
 30
0.0
  0
LWPOLYLINE
  5
211
100
AcDbEntity
  8
Ebene_1
 62
7
100
AcDbPolyline
 90
2
 70
0
 10
-256.924450
 20
83.516130
 30
0.0
 10
-256.924450
 20
89.189140
 30
0.0
  0
SPLINE
  5
212
100
AcDbEntity
  8
Ebene_1
 62
7
100
AcDbSpline
 70
8
 71
3
 72
8
 73
4
 74
0
 40
0
 40
0
 40
0
 40
0
 40
1
 40
1
 40
1
 40
1
 10
-252.669690
 20
89.189140
 30
0.0
 10
-253.068577
 20
89.189140
 30
0.0
 10
-253.408367
 20
89.048790
 30
0.0
 10
-253.689060
 20
88.768090
 30
0.0
  0
SPLINE
  5
213
100
AcDbEntity
  8
Ebene_1
 62
7
100
AcDbSpline
 70
8
 71
3
 72
8
 73
4
 74
0
 40
0
 40
0
 40
0
 40
0
 40
1
 40
1
 40
1
 40
1
 10
-253.689060
 20
88.768090
 30
0.0
 10
-253.954980
 20
88.487397
 30
0.0
 10
-254.087940
 20
88.154993
 30
0.0
 10
-254.087940
 20
87.770880
 30
0.0
  0
LWPOLYLINE
  5
214
100
AcDbEntity
  8
Ebene_1
 62
7
100
AcDbPolyline
 90
8
 70
0
 10
-254.087940
 20
92.025640
 30
0.0
 10
-242.741930
 20
92.025640
 30
0.0
 10
-246.996690
 20
87.770880
 30
0.0
 10
-242.741930
 20
87.770880
 30
0.0
 10
-245.578430
 20
84.934380
 30
0.0
 10
-252.669690
 20
84.934380
 30
0.0
 10
-248.414940
 20
89.189140
 30
0.0
 10
-252.669690
 20
89.189140
 30
0.0
  0
SPLINE
  5
215
100
AcDbEntity
  8
Ebene_1
 62
7
100
AcDbSpline
 70
8
 71
3
 72
8
 73
4
 74
0
 40
0
 40
0
 40
0
 40
0
 40
1
 40
1
 40
1
 40
1
 10
-254.087940
 20
84.934380
 30
0.0
 10
-254.087940
 20
84.535500
 30
0.0
 10
-253.954980
 20
84.195710
 30
0.0
 10
-253.689060
 20
83.915010
 30
0.0
  0
SPLINE
  5
216
100
AcDbEntity
  8
Ebene_1
 62
7
100
AcDbSpline
 70
8
 71
3
 72
8
 73
4
 74
0
 40
0
 40
0
 40
0
 40
0
 40
1
 40
1
 40
1
 40
1
 10
-253.689060
 20
83.915010
 30
0.0
 10
-253.408367
 20
83.649090
 30
0.0
 10
-253.068577
 20
83.516130
 30
0.0
 10
-252.669690
 20
83.516130
 30
0.0
  0
LWPOLYLINE
  5
217
100
AcDbEntity
  8
Ebene_1
 62
7
100
AcDbPolyline
 90
2
 70
0
 10
-254.087940
 20
87.770880
 30
0.0
 10
-254.087940
 20
84.934380
 30
0.0
  0
SPLINE
  5
218
100
AcDbEntity
  8
Ebene_1
 62
7
100
AcDbSpline
 70
8
 71
3
 72
8
 73
4
 74
0
 40
0
 40
0
 40
0
 40
0
 40
1
 40
1
 40
1
 40
1
 10
-242.741930
 20
83.516130
 30
0.0
 10
-242.741930
 20
82.718363
 30
0.0
 10
-243.022627
 20
82.046170
 30
0.0
 10
-243.584020
 20
81.499550
 30
0.0
  0
SPLINE
  5
219
100
AcDbEntity
  8
Ebene_1
 62
7
100
AcDbSpline
 70
8
 71
3
 72
8
 73
4
 74
0
 40
0
 40
0
 40
0
 40
0
 40
1
 40
1
 40
1
 40
1
 10
-243.584020
 20
81.499550
 30
0.0
 10
-244.145407
 20
80.952937
 30
0.0
 10
-244.810210
 20
80.679630
 30
0.0
 10
-245.578430
 20
80.679630
 30
0.0
  0
LWPOLYLINE
  5
21a
100
AcDbEntity
  8
Ebene_1
 62
7
100
AcDbPolyline
 90
2
 70
0
 10
-252.669690
 20
83.516130
 30
0.0
 10
-242.741930
 20
83.516130
 30
0.0
  0
LWPOLYLINE
  5
21b
100
AcDbEntity
  8
Ebene_1
 62
7
100
AcDbPolyline
 90
2
 70
0
 10
-245.578430
 20
80.679630
 30
0.0
 10
-254.087940
 20
80.679630
 30
0.0
  0
SPLINE
  5
21c
100
AcDbEntity
  8
Ebene_1
 62
7
100
AcDbSpline
 70
8
 71
3
 72
8
 73
4
 74
0
 40
0
 40
0
 40
0
 40
0
 40
1
 40
1
 40
1
 40
1
 10
-239.905430
 20
89.189140
 30
0.0
 10
-239.905430
 20
89.972133
 30
0.0
 10
-239.632120
 20
90.636937
 30
0.0
 10
-239.085500
 20
91.183550
 30
0.0
  0
SPLINE
  5
21d
100
AcDbEntity
  8
Ebene_1
 62
7
100
AcDbSpline
 70
8
 71
3
 72
8
 73
4
 74
0
 40
0
 40
0
 40
0
 40
0
 40
1
 40
1
 40
1
 40
1
 10
-239.085500
 20
91.183550
 30
0.0
 10
-238.524107
 20
91.744943
 30
0.0
 10
-237.851913
 20
92.025640
 30
0.0
 10
-237.068920
 20
92.025640
 30
0.0
  0
LWPOLYLINE
  5
21e
100
AcDbEntity
  8
Ebene_1
 62
7
100
AcDbPolyline
 90
2
 70
0
 10
-239.905430
 20
80.679630
 30
0.0
 10
-239.905430
 20
89.189140
 30
0.0
  0
SPLINE
  5
21f
100
AcDbEntity
  8
Ebene_1
 62
7
100
AcDbSpline
 70
8
 71
3
 72
8
 73
4
 74
0
 40
0
 40
0
 40
0
 40
0
 40
1
 40
1
 40
1
 40
1
 10
-225.722910
 20
92.025640
 30
0.0
 10
-225.722910
 20
91.227873
 30
0.0
 10
-226.003607
 20
90.555680
 30
0.0
 10
-226.565000
 20
90.009060
 30
0.0
  0
SPLINE
  5
220
100
AcDbEntity
  8
Ebene_1
 62
7
100
AcDbSpline
 70
8
 71
3
 72
8
 73
4
 74
0
 40
0
 40
0
 40
0
 40
0
 40
1
 40
1
 40
1
 40
1
 10
-226.565000
 20
90.009060
 30
0.0
 10
-227.126387
 20
89.462447
 30
0.0
 10
-227.791190
 20
89.189140
 30
0.0
 10
-228.559410
 20
89.189140
 30
0.0
  0
LWPOLYLINE
  5
221
100
AcDbEntity
  8
Ebene_1
 62
7
100
AcDbPolyline
 90
2
 70
0
 10
-237.068920
 20
92.025640
 30
0.0
 10
-225.722910
 20
92.025640
 30
0.0
  0
SPLINE
  5
222
100
AcDbEntity
  8
Ebene_1
 62
7
100
AcDbSpline
 70
8
 71
3
 72
8
 73
4
 74
0
 40
0
 40
0
 40
0
 40
0
 40
1
 40
1
 40
1
 40
1
 10
-235.650670
 20
89.189140
 30
0.0
 10
-236.049557
 20
89.189140
 30
0.0
 10
-236.389347
 20
89.048790
 30
0.0
 10
-236.670040
 20
88.768090
 30
0.0
  0
SPLINE
  5
223
100
AcDbEntity
  8
Ebene_1
 62
7
100
AcDbSpline
 70
8
 71
3
 72
8
 73
4
 74
0
 40
0
 40
0
 40
0
 40
0
 40
1
 40
1
 40
1
 40
1
 10
-236.670040
 20
88.768090
 30
0.0
 10
-236.935960
 20
88.487397
 30
0.0
 10
-237.068920
 20
88.154993
 30
0.0
 10
-237.068920
 20
87.770880
 30
0.0
  0
LWPOLYLINE
  5
224
100
AcDbEntity
  8
Ebene_1
 62
7
100
AcDbPolyline
 90
2
 70
0
 10
-228.559410
 20
89.189140
 30
0.0
 10
-235.650670
 20
89.189140
 30
0.0
  0
LWPOLYLINE
  5
225
100
AcDbEntity
  8
Ebene_1
 62
7
100
AcDbPolyline
 90
3
 70
0
 10
-237.068920
 20
87.770880
 30
0.0
 10
-237.068920
 20
80.679630
 30
0.0
 10
-239.905430
 20
80.679630
 30
0.0
  0
LWPOLYLINE
  5
226
100
AcDbEntity
  8
Ebene_1
 62
7
100
AcDbPolyline
 90
7
 70
1
 10
-217.213400
 20
80.679630
 30
0.0
 10
-222.886410
 20
92.025640
 30
0.0
 10
-220.049900
 20
92.025640
 30
0.0
 10
-215.795150
 20
83.516130
 30
0.0
 10
-211.540390
 20
92.025640
 30
0.0
 10
-208.703890
 20
92.025640
 30
0.0
 10
-214.376900
 20
80.679630
 30
0.0
  0
SPLINE
  5
227
100
AcDbEntity
  8
Ebene_1
 62
7
100
AcDbSpline
 70
8
 71
3
 72
8
 73
4
 74
0
 40
0
 40
0
 40
0
 40
0
 40
1
 40
1
 40
1
 40
1
 10
-197.357880
 20
80.679630
 30
0.0
 10
-198.155647
 20
80.679630
 30
0.0
 10
-198.827840
 20
80.952937
 30
0.0
 10
-199.374460
 20
81.499550
 30
0.0
  0
SPLINE
  5
228
100
AcDbEntity
  8
Ebene_1
 62
7
100
AcDbSpline
 70
8
 71
3
 72
8
 73
4
 74
0
 40
0
 40
0
 40
0
 40
0
 40
1
 40
1
 40
1
 40
1
 10
-199.374460
 20
81.499550
 30
0.0
 10
-199.921073
 20
82.060943
 30
0.0
 10
-200.194380
 20
82.733137
 30
0.0
 10
-200.194380
 20
83.516130
 30
0.0
  0
LWPOLYLINE
  5
229
100
AcDbEntity
  8
Ebene_1
 62
7
100
AcDbPolyline
 90
4
 70
1
 10
-205.867390
 20
80.679630
 30
0.0
 10
-205.867390
 20
92.025640
 30
0.0
 10
-203.030880
 20
92.025640
 30
0.0
 10
-203.030880
 20
80.679630
 30
0.0
  0
SPLINE
  5
22a
100
AcDbEntity
  8
Ebene_1
 62
7
100
AcDbSpline
 70
8
 71
3
 72
8
 73
4
 74
0
 40
0
 40
0
 40
0
 40
0
 40
1
 40
1
 40
1
 40
1
 10
-186.011870
 20
92.025640
 30
0.0
 10
-186.011870
 20
91.227873
 30
0.0
 10
-186.292563
 20
90.555680
 30
0.0
 10
-186.853950
 20
90.009060
 30
0.0
  0
SPLINE
  5
22b
100
AcDbEntity
  8
Ebene_1
 62
7
100
AcDbSpline
 70
8
 71
3
 72
8
 73
4
 74
0
 40
0
 40
0
 40
0
 40
0
 40
1
 40
1
 40
1
 40
1
 10
-186.853950
 20
90.009060
 30
0.0
 10
-187.415343
 20
89.462447
 30
0.0
 10
-188.080150
 20
89.189140
 30
0.0
 10
-188.848370
 20
89.189140
 30
0.0
  0
LWPOLYLINE
  5
22c
100
AcDbEntity
  8
Ebene_1
 62
7
100
AcDbPolyline
 90
3
 70
0
 10
-200.194380
 20
83.516130
 30
0.0
 10
-200.194380
 20
92.025640
 30
0.0
 10
-186.011870
 20
92.025640
 30
0.0
  0
SPLINE
  5
22d
100
AcDbEntity
  8
Ebene_1
 62
7
100
AcDbSpline
 70
8
 71
3
 72
8
 73
4
 74
0
 40
0
 40
0
 40
0
 40
0
 40
1
 40
1
 40
1
 40
1
 10
-197.357880
 20
84.934380
 30
0.0
 10
-197.357880
 20
84.535500
 30
0.0
 10
-197.224920
 20
84.195710
 30
0.0
 10
-196.959000
 20
83.915010
 30
0.0
  0
SPLINE
  5
22e
100
AcDbEntity
  8
Ebene_1
 62
7
100
AcDbSpline
 70
8
 71
3
 72
8
 73
4
 74
0
 40
0
 40
0
 40
0
 40
0
 40
1
 40
1
 40
1
 40
1
 10
-196.959000
 20
83.915010
 30
0.0
 10
-196.678300
 20
83.649090
 30
0.0
 10
-196.338510
 20
83.516130
 30
0.0
 10
-195.939630
 20
83.516130
 30
0.0
  0
LWPOLYLINE
  5
22f
100
AcDbEntity
  8
Ebene_1
 62
7
100
AcDbPolyline
 90
3
 70
0
 10
-188.848370
 20
89.189140
 30
0.0
 10
-197.357880
 20
89.189140
 30
0.0
 10
-197.357880
 20
84.934380
 30
0.0
  0
SPLINE
  5
230
100
AcDbEntity
  8
Ebene_1
 62
7
100
AcDbSpline
 70
8
 71
3
 72
8
 73
4
 74
0
 40
0
 40
0
 40
0
 40
0
 40
1
 40
1
 40
1
 40
1
 10
-186.011870
 20
83.516130
 30
0.0
 10
-186.011870
 20
82.718363
 30
0.0
 10
-186.292563
 20
82.046170
 30
0.0
 10
-186.853950
 20
81.499550
 30
0.0
  0
SPLINE
  5
231
100
AcDbEntity
  8
Ebene_1
 62
7
100
AcDbSpline
 70
8
 71
3
 72
8
 73
4
 74
0
 40
0
 40
0
 40
0
 40
0
 40
1
 40
1
 40
1
 40
1
 10
-186.853950
 20
81.499550
 30
0.0
 10
-187.415343
 20
80.952937
 30
0.0
 10
-188.080150
 20
80.679630
 30
0.0
 10
-188.848370
 20
80.679630
 30
0.0
  0
LWPOLYLINE
  5
232
100
AcDbEntity
  8
Ebene_1
 62
7
100
AcDbPolyline
 90
2
 70
0
 10
-195.939630
 20
83.516130
 30
0.0
 10
-186.011870
 20
83.516130
 30
0.0
  0
SPLINE
  5
233
100
AcDbEntity
  8
Ebene_1
 62
7
100
AcDbSpline
 70
8
 71
3
 72
8
 73
4
 74
0
 40
0
 40
0
 40
0
 40
0
 40
1
 40
1
 40
1
 40
1
 10
-180.338860
 20
80.679630
 30
0.0
 10
-181.136627
 20
80.679630
 30
0.0
 10
-181.808820
 20
80.952937
 30
0.0
 10
-182.355440
 20
81.499550
 30
0.0
  0
SPLINE
  5
234
100
AcDbEntity
  8
Ebene_1
 62
7
100
AcDbSpline
 70
8
 71
3
 72
8
 73
4
 74
0
 40
0
 40
0
 40
0
 40
0
 40
1
 40
1
 40
1
 40
1
 10
-182.355440
 20
81.499550
 30
0.0
 10
-182.902053
 20
82.060943
 30
0.0
 10
-183.175360
 20
82.733137
 30
0.0
 10
-183.175360
 20
83.516130
 30
0.0
  0
LWPOLYLINE
  5
235
100
AcDbEntity
  8
Ebene_1
 62
7
100
AcDbPolyline
 90
2
 70
0
 10
-188.848370
 20
80.679630
 30
0.0
 10
-197.357880
 20
80.679630
 30
0.0
  0
SPLINE
  5
236
100
AcDbEntity
  8
Ebene_1
 62
7
100
AcDbSpline
 70
8
 71
3
 72
8
 73
4
 74
0
 40
0
 40
0
 40
0
 40
0
 40
1
 40
1
 40
1
 40
1
 10
-183.175360
 20
89.189140
 30
0.0
 10
-183.175360
 20
89.972133
 30
0.0
 10
-182.902053
 20
90.636937
 30
0.0
 10
-182.355440
 20
91.183550
 30
0.0
  0
SPLINE
  5
237
100
AcDbEntity
  8
Ebene_1
 62
7
100
AcDbSpline
 70
8
 71
3
 72
8
 73
4
 74
0
 40
0
 40
0
 40
0
 40
0
 40
1
 40
1
 40
1
 40
1
 10
-182.355440
 20
91.183550
 30
0.0
 10
-181.794047
 20
91.744943
 30
0.0
 10
-181.121853
 20
92.025640
 30
0.0
 10
-180.338860
 20
92.025640
 30
0.0
  0
LWPOLYLINE
  5
238
100
AcDbEntity
  8
Ebene_1
 62
7
100
AcDbPolyline
 90
2
 70
0
 10
-183.175360
 20
83.516130
 30
0.0
 10
-183.175360
 20
89.189140
 30
0.0
  0
SPLINE
  5
239
100
AcDbEntity
  8
Ebene_1
 62
7
100
AcDbSpline
 70
8
 71
3
 72
8
 73
4
 74
0
 40
0
 40
0
 40
0
 40
0
 40
1
 40
1
 40
1
 40
1
 10
-178.920610
 20
89.189140
 30
0.0
 10
-179.319490
 20
89.189140
 30
0.0
 10
-179.659280
 20
89.048790
 30
0.0
 10
-179.939980
 20
88.768090
 30
0.0
  0
SPLINE
  5
23a
100
AcDbEntity
  8
Ebene_1
 62
7
100
AcDbSpline
 70
8
 71
3
 72
8
 73
4
 74
0
 40
0
 40
0
 40
0
 40
0
 40
1
 40
1
 40
1
 40
1
 10
-179.939980
 20
88.768090
 30
0.0
 10
-180.205900
 20
88.487397
 30
0.0
 10
-180.338860
 20
88.154993
 30
0.0
 10
-180.338860
 20
87.770880
 30
0.0
  0
LWPOLYLINE
  5
23b
100
AcDbEntity
  8
Ebene_1
 62
7
100
AcDbPolyline
 90
8
 70
0
 10
-180.338860
 20
92.025640
 30
0.0
 10
-168.992850
 20
92.025640
 30
0.0
 10
-173.247600
 20
87.770880
 30
0.0
 10
-168.992850
 20
87.770880
 30
0.0
 10
-171.829350
 20
84.934380
 30
0.0
 10
-178.920610
 20
84.934380
 30
0.0
 10
-174.665850
 20
89.189140
 30
0.0
 10
-178.920610
 20
89.189140
 30
0.0
  0
SPLINE
  5
23c
100
AcDbEntity
  8
Ebene_1
 62
7
100
AcDbSpline
 70
8
 71
3
 72
8
 73
4
 74
0
 40
0
 40
0
 40
0
 40
0
 40
1
 40
1
 40
1
 40
1
 10
-180.338860
 20
84.934380
 30
0.0
 10
-180.338860
 20
84.535500
 30
0.0
 10
-180.205900
 20
84.195710
 30
0.0
 10
-179.939980
 20
83.915010
 30
0.0
  0
SPLINE
  5
23d
100
AcDbEntity
  8
Ebene_1
 62
7
100
AcDbSpline
 70
8
 71
3
 72
8
 73
4
 74
0
 40
0
 40
0
 40
0
 40
0
 40
1
 40
1
 40
1
 40
1
 10
-179.939980
 20
83.915010
 30
0.0
 10
-179.659280
 20
83.649090
 30
0.0
 10
-179.319490
 20
83.516130
 30
0.0
 10
-178.920610
 20
83.516130
 30
0.0
  0
LWPOLYLINE
  5
23e
100
AcDbEntity
  8
Ebene_1
 62
7
100
AcDbPolyline
 90
2
 70
0
 10
-180.338860
 20
87.770880
 30
0.0
 10
-180.338860
 20
84.934380
 30
0.0
  0
SPLINE
  5
23f
100
AcDbEntity
  8
Ebene_1
 62
7
100
AcDbSpline
 70
8
 71
3
 72
8
 73
4
 74
0
 40
0
 40
0
 40
0
 40
0
 40
1
 40
1
 40
1
 40
1
 10
-168.992850
 20
83.516130
 30
0.0
 10
-168.992850
 20
82.718363
 30
0.0
 10
-169.273543
 20
82.046170
 30
0.0
 10
-169.834930
 20
81.499550
 30
0.0
  0
SPLINE
  5
240
100
AcDbEntity
  8
Ebene_1
 62
7
100
AcDbSpline
 70
8
 71
3
 72
8
 73
4
 74
0
 40
0
 40
0
 40
0
 40
0
 40
1
 40
1
 40
1
 40
1
 10
-169.834930
 20
81.499550
 30
0.0
 10
-170.396323
 20
80.952937
 30
0.0
 10
-171.061130
 20
80.679630
 30
0.0
 10
-171.829350
 20
80.679630
 30
0.0
  0
LWPOLYLINE
  5
241
100
AcDbEntity
  8
Ebene_1
 62
7
100
AcDbPolyline
 90
2
 70
0
 10
-178.920610
 20
83.516130
 30
0.0
 10
-168.992850
 20
83.516130
 30
0.0
  0
LWPOLYLINE
  5
242
100
AcDbEntity
  8
Ebene_1
 62
7
100
AcDbPolyline
 90
2
 70
0
 10
-171.829350
 20
80.679630
 30
0.0
 10
-180.338860
 20
80.679630
 30
0.0
  0
SPLINE
  5
243
100
AcDbEntity
  8
Ebene_1
 62
7
100
AcDbSpline
 70
8
 71
3
 72
8
 73
4
 74
0
 40
0
 40
0
 40
0
 40
0
 40
1
 40
1
 40
1
 40
1
 10
-123.803647
 20
84.680103
 30
0.0
 10
-123.803647
 20
85.328921
 30
0.0
 10
-123.909431
 20
85.886062
 30
0.0
 10
-124.120999
 20
86.351524
 30
0.0
  0
SPLINE
  5
244
100
AcDbEntity
  8
Ebene_1
 62
7
100
AcDbSpline
 70
8
 71
3
 72
8
 73
4
 74
0
 40
0
 40
0
 40
0
 40
0
 40
1
 40
1
 40
1
 40
1
 10
-124.120999
 20
86.351524
 30
0.0
 10
-124.318469
 20
86.816978
 30
0.0
 10
-124.621723
 20
87.218963
 30
0.0
 10
-125.030761
 20
87.557479
 30
0.0
  0
SPLINE
  5
245
100
AcDbEntity
  8
Ebene_1
 62
7
100
AcDbSpline
 70
8
 71
3
 72
8
 73
4
 74
0
 40
0
 40
0
 40
0
 40
0
 40
1
 40
1
 40
1
 40
1
 10
-125.030761
 20
87.557479
 30
0.0
 10
-125.425693
 20
87.910100
 30
0.0
 10
-125.919360
 20
88.206301
 30
0.0
 10
-126.511761
 20
88.446081
 30
0.0
  0
SPLINE
  5
246
100
AcDbEntity
  8
Ebene_1
 62
7
100
AcDbSpline
 70
8
 71
3
 72
8
 73
4
 74
0
 40
0
 40
0
 40
0
 40
0
 40
1
 40
1
 40
1
 40
1
 10
-126.511761
 20
88.446081
 30
0.0
 10
-127.090057
 20
88.699967
 30
0.0
 10
-127.752981
 20
88.925642
 30
0.0
 10
-128.500535
 20
89.123104
 30
0.0
  0
SPLINE
  5
247
100
AcDbEntity
  8
Ebene_1
 62
7
100
AcDbSpline
 70
8
 71
3
 72
8
 73
4
 74
0
 40
0
 40
0
 40
0
 40
0
 40
1
 40
1
 40
1
 40
1
 10
-128.500535
 20
89.123104
 30
0.0
 10
-129.135254
 20
89.292362
 30
0.0
 10
-129.664182
 20
89.440464
 30
0.0
 10
-130.087319
 20
89.567411
 30
0.0
  0
SPLINE
  5
248
100
AcDbEntity
  8
Ebene_1
 62
7
100
AcDbSpline
 70
8
 71
3
 72
8
 73
4
 74
0
 40
0
 40
0
 40
0
 40
0
 40
1
 40
1
 40
1
 40
1
 10
-130.087319
 20
89.567411
 30
0.0
 10
-130.496364
 20
89.694351
 30
0.0
 10
-130.820777
 20
89.828347
 30
0.0
 10
-131.060558
 20
89.969399
 30
0.0
  0
SPLINE
  5
249
100
AcDbEntity
  8
Ebene_1
 62
7
100
AcDbSpline
 70
8
 71
3
 72
8
 73
4
 74
0
 40
0
 40
0
 40
0
 40
0
 40
1
 40
1
 40
1
 40
1
 10
-131.060558
 20
89.969399
 30
0.0
 10
-131.300338
 20
90.110445
 30
0.0
 10
-131.469596
 20
90.265597
 30
0.0
 10
-131.568330
 20
90.434854
 30
0.0
  0
SPLINE
  5
24a
100
AcDbEntity
  8
Ebene_1
 62
7
100
AcDbSpline
 70
8
 71
3
 72
8
 73
4
 74
0
 40
0
 40
0
 40
0
 40
0
 40
1
 40
1
 40
1
 40
1
 10
-131.568330
 20
90.434854
 30
0.0
 10
-131.652959
 20
90.618218
 30
0.0
 10
-131.695274
 20
90.829790
 30
0.0
 10
-131.695274
 20
91.069570
 30
0.0
  0
LWPOLYLINE
  5
24b
100
AcDbEntity
  8
Ebene_1
 62
7
100
AcDbPolyline
 90
2
 70
0
 10
-123.803647
 20
84.637827
 30
0.0
 10
-123.803647
 20
84.680103
 30
0.0
  0
SPLINE
  5
24c
100
AcDbEntity
  8
Ebene_1
 62
7
100
AcDbSpline
 70
8
 71
3
 72
8
 73
4
 74
0
 40
0
 40
0
 40
0
 40
0
 40
1
 40
1
 40
1
 40
1
 10
-131.695274
 20
91.111846
 30
0.0
 10
-131.695274
 20
91.478573
 30
0.0
 10
-131.540118
 20
91.781827
 30
0.0
 10
-131.229808
 20
92.021607
 30
0.0
  0
SPLINE
  5
24d
100
AcDbEntity
  8
Ebene_1
 62
7
100
AcDbSpline
 70
8
 71
3
 72
8
 73
4
 74
0
 40
0
 40
0
 40
0
 40
0
 40
1
 40
1
 40
1
 40
1
 10
-131.229808
 20
92.021607
 30
0.0
 10
-130.905399
 20
92.275494
 30
0.0
 10
-130.425838
 20
92.402437
 30
0.0
 10
-129.791126
 20
92.402437
 30
0.0
  0
SPLINE
  5
24e
100
AcDbEntity
  8
Ebene_1
 62
7
100
AcDbSpline
 70
8
 71
3
 72
8
 73
4
 74
0
 40
0
 40
0
 40
0
 40
0
 40
1
 40
1
 40
1
 40
1
 10
-129.791126
 20
92.402437
 30
0.0
 10
-129.156406
 20
92.402437
 30
0.0
 10
-128.521690
 20
92.268441
 30
0.0
 10
-127.886978
 20
92.000448
 30
0.0
  0
SPLINE
  5
24f
100
AcDbEntity
  8
Ebene_1
 62
7
100
AcDbSpline
 70
8
 71
3
 72
8
 73
4
 74
0
 40
0
 40
0
 40
0
 40
0
 40
1
 40
1
 40
1
 40
1
 10
-127.886978
 20
92.000448
 30
0.0
 10
-127.252265
 20
91.746562
 30
0.0
 10
-126.603447
 20
91.393944
 30
0.0
 10
-125.940522
 20
90.942595
 30
0.0
  0
LWPOLYLINE
  5
250
100
AcDbEntity
  8
Ebene_1
 62
7
100
AcDbPolyline
 90
2
 70
0
 10
-131.695274
 20
91.069570
 30
0.0
 10
-131.695274
 20
91.111846
 30
0.0
  0
SPLINE
  5
251
100
AcDbEntity
  8
Ebene_1
 62
7
100
AcDbSpline
 70
8
 71
3
 72
8
 73
4
 74
0
 40
0
 40
0
 40
0
 40
0
 40
1
 40
1
 40
1
 40
1
 10
-124.247943
 20
93.396823
 30
0.0
 10
-125.009602
 20
94.003331
 30
0.0
 10
-125.848837
 20
94.468789
 30
0.0
 10
-126.765648
 20
94.793199
 30
0.0
  0
SPLINE
  5
252
100
AcDbEntity
  8
Ebene_1
 62
7
100
AcDbSpline
 70
8
 71
3
 72
8
 73
4
 74
0
 40
0
 40
0
 40
0
 40
0
 40
1
 40
1
 40
1
 40
1
 10
-126.765648
 20
94.793199
 30
0.0
 10
-127.668353
 20
95.117608
 30
0.0
 10
-128.662739
 20
95.279813
 30
0.0
 10
-129.748808
 20
95.279813
 30
0.0
  0
SPLINE
  5
253
100
AcDbEntity
  8
Ebene_1
 62
7
100
AcDbSpline
 70
8
 71
3
 72
8
 73
4
 74
0
 40
0
 40
0
 40
0
 40
0
 40
1
 40
1
 40
1
 40
1
 10
-129.748808
 20
95.279813
 30
0.0
 10
-130.510467
 20
95.279813
 30
0.0
 10
-131.208653
 20
95.174028
 30
0.0
 10
-131.843365
 20
94.962460
 30
0.0
  0
SPLINE
  5
254
100
AcDbEntity
  8
Ebene_1
 62
7
100
AcDbSpline
 70
8
 71
3
 72
8
 73
4
 74
0
 40
0
 40
0
 40
0
 40
0
 40
1
 40
1
 40
1
 40
1
 10
-131.843365
 20
94.962460
 30
0.0
 10
-132.478085
 20
94.750884
 30
0.0
 10
-133.028172
 20
94.447630
 30
0.0
 10
-133.493627
 20
94.052698
 30
0.0
  0
SPLINE
  5
255
100
AcDbEntity
  8
Ebene_1
 62
7
100
AcDbSpline
 70
8
 71
3
 72
8
 73
4
 74
0
 40
0
 40
0
 40
0
 40
0
 40
1
 40
1
 40
1
 40
1
 10
-133.493627
 20
94.052698
 30
0.0
 10
-133.944983
 20
93.657766
 30
0.0
 10
-134.297604
 20
93.185255
 30
0.0
 10
-134.551490
 20
92.635164
 30
0.0
  0
SPLINE
  5
256
100
AcDbEntity
  8
Ebene_1
 62
7
100
AcDbSpline
 70
8
 71
3
 72
8
 73
4
 74
0
 40
0
 40
0
 40
0
 40
0
 40
1
 40
1
 40
1
 40
1
 10
-134.551490
 20
92.635164
 30
0.0
 10
-134.805377
 20
92.099187
 30
0.0
 10
-134.932320
 20
91.492683
 30
0.0
 10
-134.932320
 20
90.815652
 30
0.0
  0
LWPOLYLINE
  5
257
100
AcDbEntity
  8
Ebene_1
 62
7
100
AcDbPolyline
 90
2
 70
0
 10
-125.940522
 20
90.942595
 30
0.0
 10
-124.247943
 20
93.396823
 30
0.0
  0
SPLINE
  5
258
100
AcDbEntity
  8
Ebene_1
 62
7
100
AcDbSpline
 70
8
 71
3
 72
8
 73
4
 74
0
 40
0
 40
0
 40
0
 40
0
 40
1
 40
1
 40
1
 40
1
 10
-134.932320
 20
90.773377
 30
0.0
 10
-134.932320
 20
90.039929
 30
0.0
 10
-134.819479
 20
89.426372
 30
0.0
 10
-134.593798
 20
88.932706
 30
0.0
  0
SPLINE
  5
259
100
AcDbEntity
  8
Ebene_1
 62
7
100
AcDbSpline
 70
8
 71
3
 72
8
 73
4
 74
0
 40
0
 40
0
 40
0
 40
0
 40
1
 40
1
 40
1
 40
1
 10
-134.593798
 20
88.932706
 30
0.0
 10
-134.354017
 20
88.439039
 30
0.0
 10
-134.022555
 20
88.022948
 30
0.0
 10
-133.599411
 20
87.684432
 30
0.0
  0
SPLINE
  5
25a
100
AcDbEntity
  8
Ebene_1
 62
7
100
AcDbSpline
 70
8
 71
3
 72
8
 73
4
 74
0
 40
0
 40
0
 40
0
 40
0
 40
1
 40
1
 40
1
 40
1
 10
-133.599411
 20
87.684432
 30
0.0
 10
-133.176267
 20
87.360023
 30
0.0
 10
-132.661445
 20
87.084978
 30
0.0
 10
-132.054944
 20
86.859296
 30
0.0
  0
SPLINE
  5
25b
100
AcDbEntity
  8
Ebene_1
 62
7
100
AcDbSpline
 70
8
 71
3
 72
8
 73
4
 74
0
 40
0
 40
0
 40
0
 40
0
 40
1
 40
1
 40
1
 40
1
 10
-132.054944
 20
86.859296
 30
0.0
 10
-131.448437
 20
86.633622
 30
0.0
 10
-130.771406
 20
86.429103
 30
0.0
 10
-130.023853
 20
86.245739
 30
0.0
  0
SPLINE
  5
25c
100
AcDbEntity
  8
Ebene_1
 62
7
100
AcDbSpline
 70
8
 71
3
 72
8
 73
4
 74
0
 40
0
 40
0
 40
0
 40
0
 40
1
 40
1
 40
1
 40
1
 10
-130.023853
 20
86.245739
 30
0.0
 10
-129.403239
 20
86.090588
 30
0.0
 10
-128.902520
 20
85.942489
 30
0.0
 10
-128.521694
 20
85.801443
 30
0.0
  0
SPLINE
  5
25d
100
AcDbEntity
  8
Ebene_1
 62
7
100
AcDbSpline
 70
8
 71
3
 72
8
 73
4
 74
0
 40
0
 40
0
 40
0
 40
0
 40
1
 40
1
 40
1
 40
1
 10
-128.521694
 20
85.801443
 30
0.0
 10
-128.126761
 20
85.660398
 30
0.0
 10
-127.823508
 20
85.519349
 30
0.0
 10
-127.611932
 20
85.378296
 30
0.0
  0
SPLINE
  5
25e
100
AcDbEntity
  8
Ebene_1
 62
7
100
AcDbSpline
 70
8
 71
3
 72
8
 73
4
 74
0
 40
0
 40
0
 40
0
 40
0
 40
1
 40
1
 40
1
 40
1
 10
-127.611932
 20
85.378296
 30
0.0
 10
-127.386258
 20
85.237250
 30
0.0
 10
-127.238159
 20
85.082099
 30
0.0
 10
-127.167636
 20
84.912841
 30
0.0
  0
SPLINE
  5
25f
100
AcDbEntity
  8
Ebene_1
 62
7
100
AcDbSpline
 70
8
 71
3
 72
8
 73
4
 74
0
 40
0
 40
0
 40
0
 40
0
 40
1
 40
1
 40
1
 40
1
 10
-127.167636
 20
84.912841
 30
0.0
 10
-127.083007
 20
84.757689
 30
0.0
 10
-127.040693
 20
84.574326
 30
0.0
 10
-127.040693
 20
84.362750
 30
0.0
  0
LWPOLYLINE
  5
260
100
AcDbEntity
  8
Ebene_1
 62
7
100
AcDbPolyline
 90
2
 70
0
 10
-134.932320
 20
90.815652
 30
0.0
 10
-134.932320
 20
90.773377
 30
0.0
  0
SPLINE
  5
261
100
AcDbEntity
  8
Ebene_1
 62
7
100
AcDbSpline
 70
8
 71
3
 72
8
 73
4
 74
0
 40
0
 40
0
 40
0
 40
0
 40
1
 40
1
 40
1
 40
1
 10
-127.040693
 20
84.320475
 30
0.0
 10
-127.040693
 20
83.883225
 30
0.0
 10
-127.231106
 20
83.537657
 30
0.0
 10
-127.611932
 20
83.283770
 30
0.0
  0
SPLINE
  5
262
100
AcDbEntity
  8
Ebene_1
 62
7
100
AcDbSpline
 70
8
 71
3
 72
8
 73
4
 74
0
 40
0
 40
0
 40
0
 40
0
 40
1
 40
1
 40
1
 40
1
 10
-127.611932
 20
83.283770
 30
0.0
 10
-127.978659
 20
83.043990
 30
0.0
 10
-128.500538
 20
82.924100
 30
0.0
 10
-129.177568
 20
82.924100
 30
0.0
  0
SPLINE
  5
263
100
AcDbEntity
  8
Ebene_1
 62
7
100
AcDbSpline
 70
8
 71
3
 72
8
 73
4
 74
0
 40
0
 40
0
 40
0
 40
0
 40
1
 40
1
 40
1
 40
1
 10
-129.177568
 20
82.924100
 30
0.0
 10
-130.023856
 20
82.924100
 30
0.0
 10
-130.806671
 20
83.086304
 30
0.0
 10
-131.526012
 20
83.410713
 30
0.0
  0
SPLINE
  5
264
100
AcDbEntity
  8
Ebene_1
 62
7
100
AcDbSpline
 70
8
 71
3
 72
8
 73
4
 74
0
 40
0
 40
0
 40
0
 40
0
 40
1
 40
1
 40
1
 40
1
 10
-131.526012
 20
83.410713
 30
0.0
 10
-132.231255
 20
83.735123
 30
0.0
 10
-132.922388
 20
84.172373
 30
0.0
 10
-133.599411
 20
84.722463
 30
0.0
  0
LWPOLYLINE
  5
265
100
AcDbEntity
  8
Ebene_1
 62
7
100
AcDbPolyline
 90
2
 70
0
 10
-127.040693
 20
84.362750
 30
0.0
 10
-127.040693
 20
84.320475
 30
0.0
  0
SPLINE
  5
266
100
AcDbEntity
  8
Ebene_1
 62
7
100
AcDbSpline
 70
8
 71
3
 72
8
 73
4
 74
0
 40
0
 40
0
 40
0
 40
0
 40
1
 40
1
 40
1
 40
1
 10
-135.524718
 20
82.416327
 30
0.0
 10
-134.636119
 20
81.612357
 30
0.0
 10
-133.648785
 20
81.012902
 30
0.0
 10
-132.562717
 20
80.617963
 30
0.0
  0
SPLINE
  5
267
100
AcDbEntity
  8
Ebene_1
 62
7
100
AcDbSpline
 70
8
 71
3
 72
8
 73
4
 74
0
 40
0
 40
0
 40
0
 40
0
 40
1
 40
1
 40
1
 40
1
 10
-132.562717
 20
80.617963
 30
0.0
 10
-131.476649
 20
80.237137
 30
0.0
 10
-130.369421
 20
80.046724
 30
0.0
 10
-129.241035
 20
80.046724
 30
0.0
  0
SPLINE
  5
268
100
AcDbEntity
  8
Ebene_1
 62
7
100
AcDbSpline
 70
8
 71
3
 72
8
 73
4
 74
0
 40
0
 40
0
 40
0
 40
0
 40
1
 40
1
 40
1
 40
1
 10
-129.241035
 20
80.046724
 30
0.0
 10
-128.437065
 20
80.046724
 30
0.0
 10
-127.703617
 20
80.145459
 30
0.0
 10
-127.040693
 20
80.342928
 30
0.0
  0
SPLINE
  5
269
100
AcDbEntity
  8
Ebene_1
 62
7
100
AcDbSpline
 70
8
 71
3
 72
8
 73
4
 74
0
 40
0
 40
0
 40
0
 40
0
 40
1
 40
1
 40
1
 40
1
 10
-127.040693
 20
80.342928
 30
0.0
 10
-126.377769
 20
80.554497
 30
0.0
 10
-125.806526
 20
80.850694
 30
0.0
 10
-125.326965
 20
81.231520
 30
0.0
  0
SPLINE
  5
26a
100
AcDbEntity
  8
Ebene_1
 62
7
100
AcDbSpline
 70
8
 71
3
 72
8
 73
4
 74
0
 40
0
 40
0
 40
0
 40
0
 40
1
 40
1
 40
1
 40
1
 10
-125.326965
 20
81.231520
 30
0.0
 10
-124.847397
 20
81.626459
 30
0.0
 10
-124.473621
 20
82.106024
 30
0.0
 10
-124.205635
 20
82.670213
 30
0.0
  0
SPLINE
  5
26b
100
AcDbEntity
  8
Ebene_1
 62
7
100
AcDbSpline
 70
8
 71
3
 72
8
 73
4
 74
0
 40
0
 40
0
 40
0
 40
0
 40
1
 40
1
 40
1
 40
1
 10
-124.205635
 20
82.670213
 30
0.0
 10
-123.937643
 20
83.248509
 30
0.0
 10
-123.803647
 20
83.904380
 30
0.0
 10
-123.803647
 20
84.637827
 30
0.0
  0
LWPOLYLINE
  5
26c
100
AcDbEntity
  8
Ebene_1
 62
7
100
AcDbPolyline
 90
2
 70
0
 10
-133.599411
 20
84.722463
 30
0.0
 10
-135.524718
 20
82.416327
 30
0.0
  0
LWPOLYLINE
  5
26d
100
AcDbEntity
  8
Ebene_1
 62
7
100
AcDbPolyline
 90
1
 70
1
 10
-123.803647
 20
84.637827
 30
0.0
  0
LWPOLYLINE
  5
26e
100
AcDbEntity
  8
Ebene_1
 62
7
100
AcDbPolyline
 90
12
 70
1
 10
-108.430318
 20
80.258292
 30
0.0
 10
-108.430318
 20
95.068318
 30
0.0
 10
-111.688523
 20
95.068318
 30
0.0
 10
-111.688523
 20
89.207783
 30
0.0
 10
-117.697150
 20
89.207783
 30
0.0
 10
-117.697150
 20
95.068318
 30
0.0
 10
-120.955355
 20
95.068318
 30
0.0
 10
-120.955355
 20
80.258292
 30
0.0
 10
-117.697150
 20
80.258292
 30
0.0
 10
-117.697150
 20
86.203464
 30
0.0
 10
-111.688523
 20
86.203464
 30
0.0
 10
-111.688523
 20
80.258292
 30
0.0
  0
SPLINE
  5
26f
100
AcDbEntity
  8
Ebene_1
 62
7
100
AcDbSpline
 70
8
 71
3
 72
8
 73
4
 74
0
 40
0
 40
0
 40
0
 40
0
 40
1
 40
1
 40
1
 40
1
 10
-94.577325
 20
83.855009
 30
0.0
 10
-95.409507
 20
83.262615
 30
0.0
 10
-96.432103
 20
82.966417
 30
0.0
 10
-97.645115
 20
82.966417
 30
0.0
  0
SPLINE
  5
270
100
AcDbEntity
  8
Ebene_1
 62
7
100
AcDbSpline
 70
8
 71
3
 72
8
 73
4
 74
0
 40
0
 40
0
 40
0
 40
0
 40
1
 40
1
 40
1
 40
1
 10
-97.645115
 20
82.966417
 30
0.0
 10
-98.308039
 20
82.966417
 30
0.0
 10
-98.914545
 20
83.079255
 30
0.0
 10
-99.464631
 20
83.304929
 30
0.0
  0
SPLINE
  5
271
100
AcDbEntity
  8
Ebene_1
 62
7
100
AcDbSpline
 70
8
 71
3
 72
8
 73
4
 74
0
 40
0
 40
0
 40
0
 40
0
 40
1
 40
1
 40
1
 40
1
 10
-99.464631
 20
83.304929
 30
0.0
 10
-100.000613
 20
83.544710
 30
0.0
 10
-100.473124
 20
83.876172
 30
0.0
 10
-100.882162
 20
84.299316
 30
0.0
  0
SPLINE
  5
272
100
AcDbEntity
  8
Ebene_1
 62
7
100
AcDbSpline
 70
8
 71
3
 72
8
 73
4
 74
0
 40
0
 40
0
 40
0
 40
0
 40
1
 40
1
 40
1
 40
1
 10
-100.882162
 20
84.299316
 30
0.0
 10
-101.277096
 20
84.722460
 30
0.0
 10
-101.587401
 20
85.216127
 30
0.0
 10
-101.813077
 20
85.780316
 30
0.0
  0
SPLINE
  5
273
100
AcDbEntity
  8
Ebene_1
 62
7
100
AcDbSpline
 70
8
 71
3
 72
8
 73
4
 74
0
 40
0
 40
0
 40
0
 40
0
 40
1
 40
1
 40
1
 40
1
 10
-101.813077
 20
85.780316
 30
0.0
 10
-102.024649
 20
86.358612
 30
0.0
 10
-102.130434
 20
86.986275
 30
0.0
 10
-102.130434
 20
87.663305
 30
0.0
  0
LWPOLYLINE
  5
274
100
AcDbEntity
  8
Ebene_1
 62
7
100
AcDbPolyline
 90
6
 70
0
 10
-91.424906
 20
82.352860
 30
0.0
 10
-91.424906
 20
88.784635
 30
0.0
 10
-97.856687
 20
88.784635
 30
0.0
 10
-97.856687
 20
85.970736
 30
0.0
 10
-94.577325
 20
85.970736
 30
0.0
 10
-94.577325
 20
83.855009
 30
0.0
  0
SPLINE
  5
275
100
AcDbEntity
  8
Ebene_1
 62
7
100
AcDbSpline
 70
8
 71
3
 72
8
 73
4
 74
0
 40
0
 40
0
 40
0
 40
0
 40
1
 40
1
 40
1
 40
1
 10
-102.130434
 20
87.705581
 30
0.0
 10
-102.130434
 20
88.340293
 30
0.0
 10
-102.024649
 20
88.932691
 30
0.0
 10
-101.813077
 20
89.482775
 30
0.0
  0
SPLINE
  5
276
100
AcDbEntity
  8
Ebene_1
 62
7
100
AcDbSpline
 70
8
 71
3
 72
8
 73
4
 74
0
 40
0
 40
0
 40
0
 40
0
 40
1
 40
1
 40
1
 40
1
 10
-101.813077
 20
89.482775
 30
0.0
 10
-101.587401
 20
90.046972
 30
0.0
 10
-101.284148
 20
90.533589
 30
0.0
 10
-100.903319
 20
90.942627
 30
0.0
  0
SPLINE
  5
277
100
AcDbEntity
  8
Ebene_1
 62
7
100
AcDbSpline
 70
8
 71
3
 72
8
 73
4
 74
0
 40
0
 40
0
 40
0
 40
0
 40
1
 40
1
 40
1
 40
1
 10
-100.903319
 20
90.942627
 30
0.0
 10
-100.508385
 20
91.365771
 30
0.0
 10
-100.057032
 20
91.697233
 30
0.0
 10
-99.549260
 20
91.937014
 30
0.0
  0
SPLINE
  5
278
100
AcDbEntity
  8
Ebene_1
 62
7
100
AcDbSpline
 70
8
 71
3
 72
8
 73
4
 74
0
 40
0
 40
0
 40
0
 40
0
 40
1
 40
1
 40
1
 40
1
 10
-99.549260
 20
91.937014
 30
0.0
 10
-99.027383
 20
92.190900
 30
0.0
 10
-98.470244
 20
92.317843
 30
0.0
 10
-97.877843
 20
92.317843
 30
0.0
  0
SPLINE
  5
279
100
AcDbEntity
  8
Ebene_1
 62
7
100
AcDbSpline
 70
8
 71
3
 72
8
 73
4
 74
0
 40
0
 40
0
 40
0
 40
0
 40
1
 40
1
 40
1
 40
1
 10
-97.877843
 20
92.317843
 30
0.0
 10
-97.454700
 20
92.317843
 30
0.0
 10
-97.066819
 20
92.282596
 30
0.0
 10
-96.714199
 20
92.212102
 30
0.0
  0
SPLINE
  5
27a
100
AcDbEntity
  8
Ebene_1
 62
7
100
AcDbSpline
 70
8
 71
3
 72
8
 73
4
 74
0
 40
0
 40
0
 40
0
 40
0
 40
1
 40
1
 40
1
 40
1
 10
-96.714199
 20
92.212102
 30
0.0
 10
-96.361579
 20
92.141536
 30
0.0
 10
-96.037169
 20
92.042802
 30
0.0
 10
-95.740969
 20
91.915897
 30
0.0
  0
SPLINE
  5
27b
100
AcDbEntity
  8
Ebene_1
 62
7
100
AcDbSpline
 70
8
 71
3
 72
8
 73
4
 74
0
 40
0
 40
0
 40
0
 40
0
 40
1
 40
1
 40
1
 40
1
 10
-95.740969
 20
91.915897
 30
0.0
 10
-95.430664
 20
91.788958
 30
0.0
 10
-95.134463
 20
91.633806
 30
0.0
 10
-94.852368
 20
91.450442
 30
0.0
  0
SPLINE
  5
27c
100
AcDbEntity
  8
Ebene_1
 62
7
100
AcDbSpline
 70
8
 71
3
 72
8
 73
4
 74
0
 40
0
 40
0
 40
0
 40
0
 40
1
 40
1
 40
1
 40
1
 10
-94.852368
 20
91.450442
 30
0.0
 10
-94.570272
 20
91.267079
 30
0.0
 10
-94.288177
 20
91.055507
 30
0.0
 10
-94.006081
 20
90.815726
 30
0.0
  0
LWPOLYLINE
  5
27d
100
AcDbEntity
  8
Ebene_1
 62
7
100
AcDbPolyline
 90
2
 70
0
 10
-102.130434
 20
87.663305
 30
0.0
 10
-102.130434
 20
87.705581
 30
0.0
  0
SPLINE
  5
27e
100
AcDbEntity
  8
Ebene_1
 62
7
100
AcDbSpline
 70
8
 71
3
 72
8
 73
4
 74
0
 40
0
 40
0
 40
0
 40
0
 40
1
 40
1
 40
1
 40
1
 10
-91.953835
 20
93.291113
 30
0.0
 10
-92.334664
 20
93.615523
 30
0.0
 10
-92.729598
 20
93.904670
 30
0.0
 10
-93.138637
 20
94.158557
 30
0.0
  0
SPLINE
  5
27f
100
AcDbEntity
  8
Ebene_1
 62
7
100
AcDbSpline
 70
8
 71
3
 72
8
 73
4
 74
0
 40
0
 40
0
 40
0
 40
0
 40
1
 40
1
 40
1
 40
1
 10
-93.138637
 20
94.158557
 30
0.0
 10
-93.547675
 20
94.412443
 30
0.0
 10
-93.984924
 20
94.624015
 30
0.0
 10
-94.450381
 20
94.793273
 30
0.0
  0
SPLINE
  5
280
100
AcDbEntity
  8
Ebene_1
 62
7
100
AcDbSpline
 70
8
 71
3
 72
8
 73
4
 74
0
 40
0
 40
0
 40
0
 40
0
 40
1
 40
1
 40
1
 40
1
 10
-94.450381
 20
94.793273
 30
0.0
 10
-94.915839
 20
94.962530
 30
0.0
 10
-95.423611
 20
95.089474
 30
0.0
 10
-95.973698
 20
95.174102
 30
0.0
  0
SPLINE
  5
281
100
AcDbEntity
  8
Ebene_1
 62
7
100
AcDbSpline
 70
8
 71
3
 72
8
 73
4
 74
0
 40
0
 40
0
 40
0
 40
0
 40
1
 40
1
 40
1
 40
1
 10
-95.973698
 20
95.174102
 30
0.0
 10
-96.509680
 20
95.272837
 30
0.0
 10
-97.109133
 20
95.322205
 30
0.0
 10
-97.772057
 20
95.322205
 30
0.0
  0
SPLINE
  5
282
100
AcDbEntity
  8
Ebene_1
 62
7
100
AcDbSpline
 70
8
 71
3
 72
8
 73
4
 74
0
 40
0
 40
0
 40
0
 40
0
 40
1
 40
1
 40
1
 40
1
 10
-97.772057
 20
95.322205
 30
0.0
 10
-98.900440
 20
95.322205
 30
0.0
 10
-99.937142
 20
95.117686
 30
0.0
 10
-100.882162
 20
94.708648
 30
0.0
  0
SPLINE
  5
283
100
AcDbEntity
  8
Ebene_1
 62
7
100
AcDbSpline
 70
8
 71
3
 72
8
 73
4
 74
0
 40
0
 40
0
 40
0
 40
0
 40
1
 40
1
 40
1
 40
1
 10
-100.882162
 20
94.708648
 30
0.0
 10
-101.827184
 20
94.313708
 30
0.0
 10
-102.645260
 20
93.763621
 30
0.0
 10
-103.336389
 20
93.058386
 30
0.0
  0
SPLINE
  5
284
100
AcDbEntity
  8
Ebene_1
 62
7
100
AcDbSpline
 70
8
 71
3
 72
8
 73
4
 74
0
 40
0
 40
0
 40
0
 40
0
 40
1
 40
1
 40
1
 40
1
 10
-103.336389
 20
93.058386
 30
0.0
 10
-104.027526
 20
92.367250
 30
0.0
 10
-104.570560
 20
91.556223
 30
0.0
 10
-104.965492
 20
90.625306
 30
0.0
  0
SPLINE
  5
285
100
AcDbEntity
  8
Ebene_1
 62
7
100
AcDbSpline
 70
8
 71
3
 72
8
 73
4
 74
0
 40
0
 40
0
 40
0
 40
0
 40
1
 40
1
 40
1
 40
1
 10
-104.965492
 20
90.625306
 30
0.0
 10
-105.346325
 20
89.708495
 30
0.0
 10
-105.536742
 20
88.721162
 30
0.0
 10
-105.536742
 20
87.663305
 30
0.0
  0
LWPOLYLINE
  5
286
100
AcDbEntity
  8
Ebene_1
 62
7
100
AcDbPolyline
 90
2
 70
0
 10
-94.006081
 20
90.815726
 30
0.0
 10
-91.953835
 20
93.291113
 30
0.0
  0
SPLINE
  5
287
100
AcDbEntity
  8
Ebene_1
 62
7
100
AcDbSpline
 70
8
 71
3
 72
8
 73
4
 74
0
 40
0
 40
0
 40
0
 40
0
 40
1
 40
1
 40
1
 40
1
 10
-105.536742
 20
87.621030
 30
0.0
 10
-105.536742
 20
86.520862
 30
0.0
 10
-105.346325
 20
85.505320
 30
0.0
 10
-104.965492
 20
84.574404
 30
0.0
  0
SPLINE
  5
288
100
AcDbEntity
  8
Ebene_1
 62
7
100
AcDbSpline
 70
8
 71
3
 72
8
 73
4
 74
0
 40
0
 40
0
 40
0
 40
0
 40
1
 40
1
 40
1
 40
1
 10
-104.965492
 20
84.574404
 30
0.0
 10
-104.584666
 20
83.643487
 30
0.0
 10
-104.055738
 20
82.839513
 30
0.0
 10
-103.378707
 20
82.162483
 30
0.0
  0
SPLINE
  5
289
100
AcDbEntity
  8
Ebene_1
 62
7
100
AcDbSpline
 70
8
 71
3
 72
8
 73
4
 74
0
 40
0
 40
0
 40
0
 40
0
 40
1
 40
1
 40
1
 40
1
 10
-103.378707
 20
82.162483
 30
0.0
 10
-102.687571
 20
81.485452
 30
0.0
 10
-101.869494
 20
80.956524
 30
0.0
 10
-100.924476
 20
80.575698
 30
0.0
  0
SPLINE
  5
28a
100
AcDbEntity
  8
Ebene_1
 62
7
100
AcDbSpline
 70
8
 71
3
 72
8
 73
4
 74
0
 40
0
 40
0
 40
0
 40
0
 40
1
 40
1
 40
1
 40
1
 10
-100.924476
 20
80.575698
 30
0.0
 10
-99.965351
 20
80.194865
 30
0.0
 10
-98.907492
 20
80.004448
 30
0.0
 10
-97.750900
 20
80.004448
 30
0.0
  0
SPLINE
  5
28b
100
AcDbEntity
  8
Ebene_1
 62
7
100
AcDbSpline
 70
8
 71
3
 72
8
 73
4
 74
0
 40
0
 40
0
 40
0
 40
0
 40
1
 40
1
 40
1
 40
1
 10
-97.750900
 20
80.004448
 30
0.0
 10
-96.396842
 20
80.004448
 30
0.0
 10
-95.197935
 20
80.230126
 30
0.0
 10
-94.154181
 20
80.681482
 30
0.0
  0
SPLINE
  5
28c
100
AcDbEntity
  8
Ebene_1
 62
7
100
AcDbSpline
 70
8
 71
3
 72
8
 73
4
 74
0
 40
0
 40
0
 40
0
 40
0
 40
1
 40
1
 40
1
 40
1
 10
-94.154181
 20
80.681482
 30
0.0
 10
-93.096323
 20
81.146937
 30
0.0
 10
-92.186564
 20
81.704077
 30
0.0
 10
-91.424906
 20
82.352903
 30
0.0
  0
LWPOLYLINE
  5
28d
100
AcDbEntity
  8
Ebene_1
 62
7
100
AcDbPolyline
 90
2
 70
0
 10
-105.536742
 20
87.663305
 30
0.0
 10
-105.536742
 20
87.621030
 30
0.0
  0
LWPOLYLINE
  5
28e
100
AcDbEntity
  8
Ebene_1
 62
7
100
AcDbPolyline
 90
1
 70
1
 10
-91.424906
 20
82.352903
 30
0.0
  0
LWPOLYLINE
  5
28f
100
AcDbEntity
  8
Ebene_1
 62
7
100
AcDbPolyline
 90
6
 70
1
 10
-71.304764
 20
80.258292
 30
0.0
 10
-71.304764
 20
83.220304
 30
0.0
 10
-78.688617
 20
83.220304
 30
0.0
 10
-78.688617
 20
95.068318
 30
0.0
 10
-81.946822
 20
95.068318
 30
0.0
 10
-81.946822
 20
80.258292
 30
0.0
  0
LWPOLYLINE
  5
290
100
AcDbEntity
  8
Ebene_1
 62
7
100
AcDbPolyline
 90
8
 70
1
 10
-54.418366
 20
80.258292
 30
0.0
 10
-60.765517
 20
95.174102
 30
0.0
 10
-63.769836
 20
95.174102
 30
0.0
 10
-70.116988
 20
80.258292
 30
0.0
 10
-66.795312
 20
80.258292
 30
0.0
 10
-65.441253
 20
83.579975
 30
0.0
 10
-59.178730
 20
83.579975
 30
0.0
 10
-57.824671
 20
80.258292
 30
0.0
  0
LWPOLYLINE
  5
291
100
AcDbEntity
  8
Ebene_1
 62
7
100
AcDbPolyline
 90
3
 70
1
 10
-60.342374
 20
86.457350
 30
0.0
 10
-64.277608
 20
86.457350
 30
0.0
 10
-62.309992
 20
91.260022
 30
0.0
  0
SPLINE
  5
292
100
AcDbEntity
  8
Ebene_1
 62
7
100
AcDbSpline
 70
8
 71
3
 72
8
 73
4
 74
0
 40
0
 40
0
 40
0
 40
0
 40
1
 40
1
 40
1
 40
1
 10
-41.748523
 20
86.647760
 30
0.0
 10
-40.817608
 20
86.647760
 30
0.0
 10
-40.105317
 20
86.485555
 30
0.0
 10
-39.611649
 20
86.161146
 30
0.0
  0
SPLINE
  5
293
100
AcDbEntity
  8
Ebene_1
 62
7
100
AcDbSpline
 70
8
 71
3
 72
8
 73
4
 74
0
 40
0
 40
0
 40
0
 40
0
 40
1
 40
1
 40
1
 40
1
 10
-39.611649
 20
86.161146
 30
0.0
 10
-39.103877
 20
85.836737
 30
0.0
 10
-38.849991
 20
85.364225
 30
0.0
 10
-38.849991
 20
84.743612
 30
0.0
  0
SPLINE
  5
294
100
AcDbEntity
  8
Ebene_1
 62
7
100
AcDbSpline
 70
8
 71
3
 72
8
 73
4
 74
0
 40
0
 40
0
 40
0
 40
0
 40
1
 40
1
 40
1
 40
1
 10
-38.849991
 20
84.743612
 30
0.0
 10
-38.849991
 20
84.179422
 30
0.0
 10
-39.047458
 20
83.735123
 30
0.0
 10
-39.442392
 20
83.410713
 30
0.0
  0
SPLINE
  5
295
100
AcDbEntity
  8
Ebene_1
 62
7
100
AcDbSpline
 70
8
 71
3
 72
8
 73
4
 74
0
 40
0
 40
0
 40
0
 40
0
 40
1
 40
1
 40
1
 40
1
 10
-39.442392
 20
83.410713
 30
0.0
 10
-39.823221
 20
83.086304
 30
0.0
 10
-40.323941
 20
82.924100
 30
0.0
 10
-40.944552
 20
82.924100
 30
0.0
  0
SPLINE
  5
296
100
AcDbEntity
  8
Ebene_1
 62
7
100
AcDbSpline
 70
8
 71
3
 72
8
 73
4
 74
0
 40
0
 40
0
 40
0
 40
0
 40
1
 40
1
 40
1
 40
1
 10
-40.944552
 20
82.924100
 30
0.0
 10
-41.706209
 20
82.924100
 30
0.0
 10
-42.369134
 20
83.072198
 30
0.0
 10
-42.933325
 20
83.368395
 30
0.0
  0
SPLINE
  5
297
100
AcDbEntity
  8
Ebene_1
 62
7
100
AcDbSpline
 70
8
 71
3
 72
8
 73
4
 74
0
 40
0
 40
0
 40
0
 40
0
 40
1
 40
1
 40
1
 40
1
 10
-42.933325
 20
83.368395
 30
0.0
 10
-43.483411
 20
83.678706
 30
0.0
 10
-44.012341
 20
84.123009
 30
0.0
 10
-44.520114
 20
84.701304
 30
0.0
  0
LWPOLYLINE
  5
298
100
AcDbEntity
  8
Ebene_1
 62
7
100
AcDbPolyline
 90
4
 70
0
 10
-40.077107
 20
92.275568
 30
0.0
 10
-43.610354
 20
88.721169
 30
0.0
 10
-43.102583
 20
86.647760
 30
0.0
 10
-41.748523
 20
86.647760
 30
0.0
  0
SPLINE
  5
299
100
AcDbEntity
  8
Ebene_1
 62
7
100
AcDbSpline
 70
8
 71
3
 72
8
 73
4
 74
0
 40
0
 40
0
 40
0
 40
0
 40
1
 40
1
 40
1
 40
1
 10
-46.762773
 20
82.564429
 30
0.0
 10
-46.128058
 20
81.802770
 30
0.0
 10
-45.345243
 20
81.182160
 30
0.0
 10
-44.414327
 20
80.702599
 30
0.0
  0
SPLINE
  5
29a
100
AcDbEntity
  8
Ebene_1
 62
7
100
AcDbSpline
 70
8
 71
3
 72
8
 73
4
 74
0
 40
0
 40
0
 40
0
 40
0
 40
1
 40
1
 40
1
 40
1
 10
-44.414327
 20
80.702599
 30
0.0
 10
-43.469307
 20
80.237137
 30
0.0
 10
-42.326819
 20
80.004406
 30
0.0
 10
-40.986865
 20
80.004406
 30
0.0
  0
SPLINE
  5
29b
100
AcDbEntity
  8
Ebene_1
 62
7
100
AcDbSpline
 70
8
 71
3
 72
8
 73
4
 74
0
 40
0
 40
0
 40
0
 40
0
 40
1
 40
1
 40
1
 40
1
 10
-40.986865
 20
80.004406
 30
0.0
 10
-40.168788
 20
80.004406
 30
0.0
 10
-39.428287
 20
80.124296
 30
0.0
 10
-38.765362
 20
80.364077
 30
0.0
  0
SPLINE
  5
29c
100
AcDbEntity
  8
Ebene_1
 62
7
100
AcDbSpline
 70
8
 71
3
 72
8
 73
4
 74
0
 40
0
 40
0
 40
0
 40
0
 40
1
 40
1
 40
1
 40
1
 10
-38.765362
 20
80.364077
 30
0.0
 10
-38.102437
 20
80.603864
 30
0.0
 10
-37.545299
 20
80.942379
 30
0.0
 10
-37.093946
 20
81.379622
 30
0.0
  0
SPLINE
  5
29d
100
AcDbEntity
  8
Ebene_1
 62
7
100
AcDbSpline
 70
8
 71
3
 72
8
 73
4
 74
0
 40
0
 40
0
 40
0
 40
0
 40
1
 40
1
 40
1
 40
1
 10
-37.093946
 20
81.379622
 30
0.0
 10
-36.628488
 20
81.816872
 30
0.0
 10
-36.275868
 20
82.331698
 30
0.0
 10
-36.036087
 20
82.924100
 30
0.0
  0
SPLINE
  5
29e
100
AcDbEntity
  8
Ebene_1
 62
7
100
AcDbSpline
 70
8
 71
3
 72
8
 73
4
 74
0
 40
0
 40
0
 40
0
 40
0
 40
1
 40
1
 40
1
 40
1
 10
-36.036087
 20
82.924100
 30
0.0
 10
-35.782201
 20
83.516501
 30
0.0
 10
-35.655258
 20
84.165320
 30
0.0
 10
-35.655258
 20
84.870555
 30
0.0
  0
SPLINE
  5
29f
100
AcDbEntity
  8
Ebene_1
 62
7
100
AcDbSpline
 70
8
 71
3
 72
8
 73
4
 74
0
 40
0
 40
0
 40
0
 40
0
 40
1
 40
1
 40
1
 40
1
 10
-35.655258
 20
84.870555
 30
0.0
 10
-35.655258
 20
85.561691
 30
0.0
 10
-35.768097
 20
86.147040
 30
0.0
 10
-35.993773
 20
86.626601
 30
0.0
  0
SPLINE
  5
2a0
100
AcDbEntity
  8
Ebene_1
 62
7
100
AcDbSpline
 70
8
 71
3
 72
8
 73
4
 74
0
 40
0
 40
0
 40
0
 40
0
 40
1
 40
1
 40
1
 40
1
 10
-35.993773
 20
86.626601
 30
0.0
 10
-36.219450
 20
87.120268
 30
0.0
 10
-36.515650
 20
87.529309
 30
0.0
 10
-36.882374
 20
87.853725
 30
0.0
  0
SPLINE
  5
2a1
100
AcDbEntity
  8
Ebene_1
 62
7
100
AcDbSpline
 70
8
 71
3
 72
8
 73
4
 74
0
 40
0
 40
0
 40
0
 40
0
 40
1
 40
1
 40
1
 40
1
 10
-36.882374
 20
87.853725
 30
0.0
 10
-37.249099
 20
88.192234
 30
0.0
 10
-37.672242
 20
88.453169
 30
0.0
 10
-38.151804
 20
88.636533
 30
0.0
  0
SPLINE
  5
2a2
100
AcDbEntity
  8
Ebene_1
 62
7
100
AcDbSpline
 70
8
 71
3
 72
8
 73
4
 74
0
 40
0
 40
0
 40
0
 40
0
 40
1
 40
1
 40
1
 40
1
 10
-38.151804
 20
88.636533
 30
0.0
 10
-38.631367
 20
88.819897
 30
0.0
 10
-39.125034
 20
88.953893
 30
0.0
 10
-39.632807
 20
89.038522
 30
0.0
  0
LWPOLYLINE
  5
2a3
100
AcDbEntity
  8
Ebene_1
 62
7
100
AcDbPolyline
 90
2
 70
0
 10
-44.520114
 20
84.701304
 30
0.0
 10
-46.762773
 20
82.564429
 30
0.0
  0
LWPOLYLINE
  5
2a4
100
AcDbEntity
  8
Ebene_1
 62
7
100
AcDbPolyline
 90
6
 70
0
 10
-39.632807
 20
89.038522
 30
0.0
 10
-35.887987
 20
92.614079
 30
0.0
 10
-35.887987
 20
95.068318
 30
0.0
 10
-45.895330
 20
95.068318
 30
0.0
 10
-45.895330
 20
92.275568
 30
0.0
 10
-40.077107
 20
92.275568
 30
0.0
  0
LWPOLYLINE
  5
2a5
100
AcDbEntity
  8
Ebene_1
 62
7
100
AcDbPolyline
 90
12
 70
1
 10
-21.372183
 20
80.258292
 30
0.0
 10
-21.372183
 20
83.156827
 30
0.0
 10
-29.411909
 20
83.156827
 30
0.0
 10
-29.411909
 20
86.266930
 30
0.0
 10
-22.430041
 20
86.266930
 30
0.0
 10
-22.430041
 20
89.165465
 30
0.0
 10
-29.411909
 20
89.165465
 30
0.0
 10
-29.411909
 20
92.169784
 30
0.0
 10
-21.477968
 20
92.169784
 30
0.0
 10
-21.477968
 20
95.068318
 30
0.0
 10
-32.648956
 20
95.068318
 30
0.0
 10
-32.648956
 20
80.258292
 30
0.0
  0
ENDSEC
  0
SECTION
  2
OBJECTS
  0
DICTIONARY
  5
C
330
0
100
AcDbDictionary
  3
ACAD_GROUP
350
D
  3
ACAD_MLINESTYLE
350
17
  0
DICTIONARY
  5
D
330
C
100
AcDbDictionary
  0
DICTIONARY
  5
1A
330
C
100
AcDbDictionary
  0
DICTIONARY
  5
17
330
C
100
AcDbDictionary
  3
STANDARD
350
18
  0
DICTIONARY
  5
19
330
C
100
AcDbDictionary
  0
ENDSEC
  0
EOF
