  0
SECTION
  2
HEADER
  9
$ACADVER
  1
AC1014
  9
$HANDSEED
  5
FFFF
  9
$MEASUREMENT
 70
     1
  0
ENDSEC
  0
SECTION
  2
TABLES
  0
TABLE
  2
VPORT
  5
8
330
0
100
AcDbSymbolTable
 70
     4
  0
VPORT
  5
2E
330
8
100
AcDbSymbolTableRecord
100
AcDbViewportTableRecord
  2
*ACTIVE
 70
     0
 10
0.0
 20
0.0
 11
1.0
 21
1.0
 12
210.0
 22
148.5
 13
0.0
 23
0.0
 14
10.0
 24
10.0
 15
10.0
 25
10.0
 16
0.0
 26
0.0
 36
1.0
 17
0.0
 27
0.0
 37
0.0
 40
341.0
 41
1.24
 42
50.0
 43
0.0
 44
0.0
 50
0.0
 51
0.0
 71
     0
 72
   100
 73
     1
 74
     3
 75
     0
 76
     0
 77
     0
 78
     0
  0
ENDTAB
  0
TABLE
  2
LTYPE
  5
5
330
0
100
AcDbSymbolTable
 70
     1
  0
LTYPE
  5
14
330
5
100
AcDbSymbolTableRecord
100
AcDbLinetypeTableRecord
  2
BYBLOCK
 70
     0
  3

 72
    65
 73
     0
 40
0.0
  0
LTYPE
  5
15
330
5
100
AcDbSymbolTableRecord
100
AcDbLinetypeTableRecord
  2
BYLAYER
 70
     0
  3

 72
    65
 73
     0
 40
0.0
  0
LTYPE
  5
16
330
5
100
AcDbSymbolTableRecord
100
AcDbLinetypeTableRecord
  2
CONTINUOUS
 70
     0
  3
Solid line
 72
    65
 73
     0
 40
0.0
  0
ENDTAB
  0
TABLE
  2
LAYER
  5
2
100
AcDbSymbolTable
 70
2
  0
LAYER
  5
50
100
AcDbSymbolTableRecord
100
AcDbLayerTableRecord
  2
0
 70
0
  6
CONTINUOUS
  0
LAYER
  5
51
100
AcDbSymbolTableRecord
100
AcDbLayerTableRecord
  2
Ebene_1
 70
0
  6
CONTINUOUS
  0
ENDTAB
  0
TABLE
  2
STYLE
  5
3
330
0
100
AcDbSymbolTable
 70
     1
  0
STYLE
  5
11
330
3
100
AcDbSymbolTableRecord
100
AcDbTextStyleTableRecord
  2
STANDARD
 70
     0
 40
0.0
 41
1.0
 50
0.0
 71
     0
 42
2.5
  3
txt
  4

  0
ENDTAB
  0
TABLE
  2
VIEW
  5
6
330
0
100
AcDbSymbolTable
 70
     0
  0
ENDTAB
  0
TABLE
  2
UCS
  5
7
330
0
100
AcDbSymbolTable
 70
     0
  0
ENDTAB
  0
TABLE
  2
APPID
  5
9
330
0
100
AcDbSymbolTable
 70
     2
  0
APPID
  5
12
330
9
100
AcDbSymbolTableRecord
100
AcDbRegAppTableRecord
  2
ACAD
 70
     0
  0
ENDTAB
  0
TABLE
  2
DIMSTYLE
  5
A
330
0
100
AcDbSymbolTable
 70
     1
  0
DIMSTYLE
105
27
330
A
100
AcDbSymbolTableRecord
100
AcDbDimStyleTableRecord
  2
ISO-25
 70
     0
  3

  4

  5

  6

  7

 40
1.0
 41
2.5
 42
0.625
 43
3.75
 44
1.25
 45
0.0
 46
0.0
 47
0.0
 48
0.0
140
2.5
141
2.5
142
0.0
143
0.03937007874016
144
1.0
145
0.0
146
1.0
147
0.625
 71
     0
 72
     0
 73
     0
 74
     0
 75
     0
 76
     0
 77
     1
 78
     8
170
     0
171
     3
172
     1
173
     0
174
     0
175
     0
176
     0
177
     0
178
     0
270
     2
271
     2
272
     2
273
     2
274
     3
340
11
275
     0
280
     0
281
     0
282
     0
283
     0
284
     8
285
     0
286
     0
287
     3
288
     0
  0
ENDTAB
  0
TABLE
  2
BLOCK_RECORD
  5
1
330
0
100
AcDbSymbolTable
 70
     1
  0
BLOCK_RECORD
  5
1F
330
1
100
AcDbSymbolTableRecord
100
AcDbBlockTableRecord
  2
*MODEL_SPACE
  0
BLOCK_RECORD
  5
1B
330
1
100
AcDbSymbolTableRecord
100
AcDbBlockTableRecord
  2
*PAPER_SPACE
  0
ENDTAB
  0
ENDSEC
  0
SECTION
  2
BLOCKS
  0
BLOCK
  5
20
330
1F
100
AcDbEntity
  8
0
100
AcDbBlockBegin
  2
*MODEL_SPACE
 70
     0
 10
0.0
 20
0.0
 30
0.0
  3
*MODEL_SPACE
  1

  0
ENDBLK
  5
21
330
1F
100
AcDbEntity
  8
0
100
AcDbBlockEnd
  0
BLOCK
  5
1C
330
1B
100
AcDbEntity
 67
     1
  8
0
100
AcDbBlockBegin
  2
*PAPER_SPACE
  1

  0
ENDBLK
  5
1D
330
1B
100
AcDbEntity
 67
     1
  8
0
100
AcDbBlockEnd
  0
ENDSEC
  0
SECTION
  2
ENTITIES
  0
SPLINE
  5
100
100
AcDbEntity
  8
Ebene_1
 62
7
100
AcDbSpline
 70
8
 71
3
 72
8
 73
4
 74
0
 40
0
 40
0
 40
0
 40
0
 40
1
 40
1
 40
1
 40
1
 10
-161.936602
 20
69.884450
 30
0.0
 10
-160.821725
 20
69.884450
 30
0.0
 10
-159.875132
 20
69.484780
 30
0.0
 10
-159.096822
 20
68.685440
 30
0.0
  0
SPLINE
  5
101
100
AcDbEntity
  8
Ebene_1
 62
7
100
AcDbSpline
 70
8
 71
3
 72
8
 73
4
 74
0
 40
0
 40
0
 40
0
 40
0
 40
1
 40
1
 40
1
 40
1
 10
-159.096822
 20
68.685440
 30
0.0
 10
-158.297477
 20
67.886090
 30
0.0
 10
-157.897805
 20
66.939500
 30
0.0
 10
-157.897805
 20
65.845660
 30
0.0
  0
LWPOLYLINE
  5
102
100
AcDbEntity
  8
Ebene_1
 62
7
100
AcDbPolyline
 90
6
 70
0
 10
-170.014197
 20
65.845660
 30
0.0
 10
-170.014197
 20
69.884450
 30
0.0
 10
-165.975399
 20
69.884450
 30
0.0
 10
-165.975399
 20
77.962050
 30
0.0
 10
-161.936602
 20
77.962050
 30
0.0
 10
-161.936602
 20
69.884450
 30
0.0
  0
SPLINE
  5
103
100
AcDbEntity
  8
Ebene_1
 62
7
100
AcDbSpline
 70
8
 71
3
 72
8
 73
4
 74
0
 40
0
 40
0
 40
0
 40
0
 40
1
 40
1
 40
1
 40
1
 10
-165.975399
 20
82.000850
 30
0.0
 10
-167.111311
 20
82.000850
 30
0.0
 10
-168.068422
 20
82.390000
 30
0.0
 10
-168.846732
 20
83.168310
 30
0.0
  0
SPLINE
  5
104
100
AcDbEntity
  8
Ebene_1
 62
7
100
AcDbSpline
 70
8
 71
3
 72
8
 73
4
 74
0
 40
0
 40
0
 40
0
 40
0
 40
1
 40
1
 40
1
 40
1
 10
-168.846732
 20
83.168310
 30
0.0
 10
-169.625042
 20
83.967660
 30
0.0
 10
-170.014197
 20
84.924770
 30
0.0
 10
-170.014197
 20
86.039640
 30
0.0
  0
LWPOLYLINE
  5
105
100
AcDbEntity
  8
Ebene_1
 62
7
100
AcDbPolyline
 90
2
 70
0
 10
-157.897805
 20
65.845660
 30
0.0
 10
-170.014197
 20
65.845660
 30
0.0
  0
SPLINE
  5
106
100
AcDbEntity
  8
Ebene_1
 62
7
100
AcDbSpline
 70
8
 71
3
 72
8
 73
4
 74
0
 40
0
 40
0
 40
0
 40
0
 40
1
 40
1
 40
1
 40
1
 10
-149.345484
 20
65.845660
 30
0.0
 10
-150.481396
 20
65.845660
 30
0.0
 10
-151.438507
 20
66.234810
 30
0.0
 10
-152.216816
 20
67.013120
 30
0.0
  0
SPLINE
  5
107
100
AcDbEntity
  8
Ebene_1
 62
7
100
AcDbSpline
 70
8
 71
3
 72
8
 73
4
 74
0
 40
0
 40
0
 40
0
 40
0
 40
1
 40
1
 40
1
 40
1
 10
-152.216816
 20
67.013120
 30
0.0
 10
-152.995126
 20
67.812470
 30
0.0
 10
-153.457161
 20
68.771960
 30
0.0
 10
-153.384281
 20
69.884450
 30
0.0
  0
LWPOLYLINE
  5
108
100
AcDbEntity
  8
Ebene_1
 62
7
100
AcDbPolyline
 90
4
 70
0
 10
-170.014197
 20
86.039640
 30
0.0
 10
-161.936602
 20
86.039640
 30
0.0
 10
-161.936602
 20
82.000850
 30
0.0
 10
-165.975399
 20
82.000850
 30
0.0
  0
SPLINE
  5
109
100
AcDbEntity
  8
Ebene_1
 62
7
100
AcDbSpline
 70
8
 71
3
 72
8
 73
4
 74
0
 40
0
 40
0
 40
0
 40
0
 40
1
 40
1
 40
1
 40
1
 10
-149.345484
 20
71.903850
 30
0.0
 10
-149.345484
 20
71.335900
 30
0.0
 10
-149.156166
 20
70.852080
 30
0.0
 10
-148.777528
 20
70.452410
 30
0.0
  0
SPLINE
  5
10a
100
AcDbEntity
  8
Ebene_1
 62
7
100
AcDbSpline
 70
8
 71
3
 72
8
 73
4
 74
0
 40
0
 40
0
 40
0
 40
0
 40
1
 40
1
 40
1
 40
1
 10
-148.777528
 20
70.452410
 30
0.0
 10
-148.377856
 20
70.073770
 30
0.0
 10
-147.894041
 20
69.884450
 30
0.0
 10
-147.326085
 20
69.884450
 30
0.0
  0
LWPOLYLINE
  5
10b
100
AcDbEntity
  8
Ebene_1
 62
7
100
AcDbPolyline
 90
4
 70
0
 10
-153.384281
 20
69.884450
 30
0.0
 10
-153.384281
 20
77.962050
 30
0.0
 10
-149.345484
 20
77.962050
 30
0.0
 10
-149.345484
 20
71.903850
 30
0.0
  0
SPLINE
  5
10c
100
AcDbEntity
  8
Ebene_1
 62
7
100
AcDbSpline
 70
8
 71
3
 72
8
 73
4
 74
0
 40
0
 40
0
 40
0
 40
0
 40
1
 40
1
 40
1
 40
1
 10
-135.209693
 20
69.884450
 30
0.0
 10
-134.662773
 20
69.884450
 30
0.0
 10
-134.189476
 20
70.073770
 30
0.0
 10
-133.789803
 20
70.452410
 30
0.0
  0
SPLINE
  5
10d
100
AcDbEntity
  8
Ebene_1
 62
7
100
AcDbSpline
 70
8
 71
3
 72
8
 73
4
 74
0
 40
0
 40
0
 40
0
 40
0
 40
1
 40
1
 40
1
 40
1
 10
-133.789803
 20
70.452410
 30
0.0
 10
-133.390131
 20
70.852080
 30
0.0
 10
-133.190294
 20
71.335900
 30
0.0
 10
-133.190294
 20
71.903850
 30
0.0
  0
LWPOLYLINE
  5
10e
100
AcDbEntity
  8
Ebene_1
 62
7
100
AcDbPolyline
 90
2
 70
0
 10
-147.326085
 20
69.884450
 30
0.0
 10
-135.209693
 20
69.884450
 30
0.0
  0
SPLINE
  5
10f
100
AcDbEntity
  8
Ebene_1
 62
7
100
AcDbSpline
 70
8
 71
3
 72
8
 73
4
 74
0
 40
0
 40
0
 40
0
 40
0
 40
1
 40
1
 40
1
 40
1
 10
-129.151497
 20
69.884450
 30
0.0
 10
-129.151497
 20
68.748540
 30
0.0
 10
-129.551170
 20
67.791430
 30
0.0
 10
-130.350515
 20
67.013120
 30
0.0
  0
SPLINE
  5
110
100
AcDbEntity
  8
Ebene_1
 62
7
100
AcDbSpline
 70
8
 71
3
 72
8
 73
4
 74
0
 40
0
 40
0
 40
0
 40
0
 40
1
 40
1
 40
1
 40
1
 10
-130.350515
 20
67.013120
 30
0.0
 10
-131.149861
 20
66.234810
 30
0.0
 10
-132.096454
 20
65.845660
 30
0.0
 10
-133.190294
 20
65.845660
 30
0.0
  0
LWPOLYLINE
  5
111
100
AcDbEntity
  8
Ebene_1
 62
7
100
AcDbPolyline
 90
4
 70
0
 10
-133.190294
 20
71.903850
 30
0.0
 10
-133.190294
 20
77.962050
 30
0.0
 10
-129.151497
 20
77.962050
 30
0.0
 10
-129.151497
 20
69.884450
 30
0.0
  0
SPLINE
  5
112
100
AcDbEntity
  8
Ebene_1
 62
7
100
AcDbSpline
 70
8
 71
3
 72
8
 73
4
 74
0
 40
0
 40
0
 40
0
 40
0
 40
1
 40
1
 40
1
 40
1
 10
-153.384281
 20
82.000850
 30
0.0
 10
-153.384281
 20
83.115720
 30
0.0
 10
-152.995126
 20
84.062320
 30
0.0
 10
-152.216816
 20
84.840630
 30
0.0
  0
SPLINE
  5
113
100
AcDbEntity
  8
Ebene_1
 62
7
100
AcDbSpline
 70
8
 71
3
 72
8
 73
4
 74
0
 40
0
 40
0
 40
0
 40
0
 40
1
 40
1
 40
1
 40
1
 10
-152.216816
 20
84.840630
 30
0.0
 10
-151.417471
 20
85.639970
 30
0.0
 10
-150.460360
 20
86.039640
 30
0.0
 10
-149.345484
 20
86.039640
 30
0.0
  0
LWPOLYLINE
  5
114
100
AcDbEntity
  8
Ebene_1
 62
7
100
AcDbPolyline
 90
2
 70
0
 10
-133.190294
 20
65.845660
 30
0.0
 10
-149.345484
 20
65.845660
 30
0.0
  0
SPLINE
  5
115
100
AcDbEntity
  8
Ebene_1
 62
7
100
AcDbSpline
 70
8
 71
3
 72
8
 73
4
 74
0
 40
0
 40
0
 40
0
 40
0
 40
1
 40
1
 40
1
 40
1
 10
-133.190294
 20
86.039640
 30
0.0
 10
-132.075418
 20
86.039640
 30
0.0
 10
-131.128825
 20
85.639970
 30
0.0
 10
-130.350515
 20
84.840630
 30
0.0
  0
SPLINE
  5
116
100
AcDbEntity
  8
Ebene_1
 62
7
100
AcDbSpline
 70
8
 71
3
 72
8
 73
4
 74
0
 40
0
 40
0
 40
0
 40
0
 40
1
 40
1
 40
1
 40
1
 10
-130.350515
 20
84.840630
 30
0.0
 10
-129.551170
 20
84.041280
 30
0.0
 10
-129.151497
 20
83.094690
 30
0.0
 10
-129.151497
 20
82.000850
 30
0.0
  0
LWPOLYLINE
  5
117
100
AcDbEntity
  8
Ebene_1
 62
7
100
AcDbPolyline
 90
2
 70
0
 10
-149.345484
 20
86.039640
 30
0.0
 10
-133.190294
 20
86.039640
 30
0.0
  0
SPLINE
  5
118
100
AcDbEntity
  8
Ebene_1
 62
7
100
AcDbSpline
 70
8
 71
3
 72
8
 73
4
 74
0
 40
0
 40
0
 40
0
 40
0
 40
1
 40
1
 40
1
 40
1
 10
-121.073902
 20
65.845660
 30
0.0
 10
-122.209814
 20
65.845660
 30
0.0
 10
-123.166925
 20
66.234810
 30
0.0
 10
-123.945235
 20
67.013120
 30
0.0
  0
SPLINE
  5
119
100
AcDbEntity
  8
Ebene_1
 62
7
100
AcDbSpline
 70
8
 71
3
 72
8
 73
4
 74
0
 40
0
 40
0
 40
0
 40
0
 40
1
 40
1
 40
1
 40
1
 10
-123.945235
 20
67.013120
 30
0.0
 10
-124.723545
 20
67.812470
 30
0.0
 10
-125.112700
 20
68.769580
 30
0.0
 10
-125.112700
 20
69.884450
 30
0.0
  0
LWPOLYLINE
  5
11a
100
AcDbEntity
  8
Ebene_1
 62
7
100
AcDbPolyline
 90
2
 70
0
 10
-129.151497
 20
82.000850
 30
0.0
 10
-153.384281
 20
82.000850
 30
0.0
  0
SPLINE
  5
11b
100
AcDbEntity
  8
Ebene_1
 62
7
100
AcDbSpline
 70
8
 71
3
 72
8
 73
4
 74
0
 40
0
 40
0
 40
0
 40
0
 40
1
 40
1
 40
1
 40
1
 10
-121.073902
 20
71.903850
 30
0.0
 10
-121.073902
 20
71.335900
 30
0.0
 10
-120.884584
 20
70.852080
 30
0.0
 10
-120.505946
 20
70.452410
 30
0.0
  0
SPLINE
  5
11c
100
AcDbEntity
  8
Ebene_1
 62
7
100
AcDbSpline
 70
8
 71
3
 72
8
 73
4
 74
0
 40
0
 40
0
 40
0
 40
0
 40
1
 40
1
 40
1
 40
1
 10
-120.505946
 20
70.452410
 30
0.0
 10
-120.106274
 20
70.073770
 30
0.0
 10
-119.622460
 20
69.884450
 30
0.0
 10
-119.054504
 20
69.884450
 30
0.0
  0
LWPOLYLINE
  5
11d
100
AcDbEntity
  8
Ebene_1
 62
7
100
AcDbPolyline
 90
4
 70
0
 10
-125.112700
 20
69.884450
 30
0.0
 10
-125.112700
 20
77.962050
 30
0.0
 10
-121.073902
 20
77.962050
 30
0.0
 10
-121.073902
 20
71.903850
 30
0.0
  0
SPLINE
  5
11e
100
AcDbEntity
  8
Ebene_1
 62
7
100
AcDbSpline
 70
8
 71
3
 72
8
 73
4
 74
0
 40
0
 40
0
 40
0
 40
0
 40
1
 40
1
 40
1
 40
1
 10
-106.938111
 20
69.884450
 30
0.0
 10
-106.391191
 20
69.884450
 30
0.0
 10
-105.917895
 20
70.073770
 30
0.0
 10
-105.518222
 20
70.452410
 30
0.0
  0
SPLINE
  5
11f
100
AcDbEntity
  8
Ebene_1
 62
7
100
AcDbSpline
 70
8
 71
3
 72
8
 73
4
 74
0
 40
0
 40
0
 40
0
 40
0
 40
1
 40
1
 40
1
 40
1
 10
-105.518222
 20
70.452410
 30
0.0
 10
-105.118550
 20
70.852080
 30
0.0
 10
-104.968134
 20
71.338050
 30
0.0
 10
-104.918713
 20
71.903850
 30
0.0
  0
LWPOLYLINE
  5
120
100
AcDbEntity
  8
Ebene_1
 62
7
100
AcDbPolyline
 90
2
 70
0
 10
-119.054504
 20
69.884450
 30
0.0
 10
-106.938111
 20
69.884450
 30
0.0
  0
SPLINE
  5
121
100
AcDbEntity
  8
Ebene_1
 62
7
100
AcDbSpline
 70
8
 71
3
 72
8
 73
4
 74
0
 40
0
 40
0
 40
0
 40
0
 40
1
 40
1
 40
1
 40
1
 10
-100.879915
 20
69.884450
 30
0.0
 10
-100.879915
 20
68.748540
 30
0.0
 10
-101.279588
 20
67.791430
 30
0.0
 10
-102.078933
 20
67.013120
 30
0.0
  0
SPLINE
  5
122
100
AcDbEntity
  8
Ebene_1
 62
7
100
AcDbSpline
 70
8
 71
3
 72
8
 73
4
 74
0
 40
0
 40
0
 40
0
 40
0
 40
1
 40
1
 40
1
 40
1
 10
-102.078933
 20
67.013120
 30
0.0
 10
-102.878279
 20
66.234810
 30
0.0
 10
-103.824872
 20
65.845660
 30
0.0
 10
-104.918713
 20
65.845660
 30
0.0
  0
LWPOLYLINE
  5
123
100
AcDbEntity
  8
Ebene_1
 62
7
100
AcDbPolyline
 90
4
 70
0
 10
-104.918713
 20
71.903850
 30
0.0
 10
-104.918713
 20
77.962050
 30
0.0
 10
-100.879915
 20
77.962050
 30
0.0
 10
-100.879915
 20
69.884450
 30
0.0
  0
SPLINE
  5
124
100
AcDbEntity
  8
Ebene_1
 62
7
100
AcDbSpline
 70
8
 71
3
 72
8
 73
4
 74
0
 40
0
 40
0
 40
0
 40
0
 40
1
 40
1
 40
1
 40
1
 10
-125.112700
 20
82.000850
 30
0.0
 10
-125.112700
 20
83.115720
 30
0.0
 10
-124.723545
 20
84.062320
 30
0.0
 10
-123.945235
 20
84.840630
 30
0.0
  0
SPLINE
  5
125
100
AcDbEntity
  8
Ebene_1
 62
7
100
AcDbSpline
 70
8
 71
3
 72
8
 73
4
 74
0
 40
0
 40
0
 40
0
 40
0
 40
1
 40
1
 40
1
 40
1
 10
-123.945235
 20
84.840630
 30
0.0
 10
-123.145890
 20
85.639970
 30
0.0
 10
-122.188779
 20
86.039640
 30
0.0
 10
-121.073902
 20
86.039640
 30
0.0
  0
LWPOLYLINE
  5
126
100
AcDbEntity
  8
Ebene_1
 62
7
100
AcDbPolyline
 90
2
 70
0
 10
-104.918713
 20
65.845660
 30
0.0
 10
-121.073902
 20
65.845660
 30
0.0
  0
SPLINE
  5
127
100
AcDbEntity
  8
Ebene_1
 62
7
100
AcDbSpline
 70
8
 71
3
 72
8
 73
4
 74
0
 40
0
 40
0
 40
0
 40
0
 40
1
 40
1
 40
1
 40
1
 10
-104.918713
 20
86.039640
 30
0.0
 10
-103.803837
 20
86.039640
 30
0.0
 10
-102.857243
 20
85.639970
 30
0.0
 10
-102.078933
 20
84.840630
 30
0.0
  0
SPLINE
  5
128
100
AcDbEntity
  8
Ebene_1
 62
7
100
AcDbSpline
 70
8
 71
3
 72
8
 73
4
 74
0
 40
0
 40
0
 40
0
 40
0
 40
1
 40
1
 40
1
 40
1
 10
-102.078933
 20
84.840630
 30
0.0
 10
-101.279588
 20
84.041280
 30
0.0
 10
-100.879915
 20
83.094690
 30
0.0
 10
-100.879915
 20
82.000850
 30
0.0
  0
LWPOLYLINE
  5
129
100
AcDbEntity
  8
Ebene_1
 62
7
100
AcDbPolyline
 90
2
 70
0
 10
-121.073902
 20
86.039640
 30
0.0
 10
-104.918713
 20
86.039640
 30
0.0
  0
SPLINE
  5
12a
100
AcDbEntity
  8
Ebene_1
 62
7
100
AcDbSpline
 70
8
 71
3
 72
8
 73
4
 74
0
 40
0
 40
0
 40
0
 40
0
 40
1
 40
1
 40
1
 40
1
 10
-79.374200
 20
68.403990
 30
0.0
 10
-78.681307
 20
68.403990
 30
0.0
 10
-78.081687
 20
68.643840
 30
0.0
 10
-77.575341
 20
69.123520
 30
0.0
  0
SPLINE
  5
12b
100
AcDbEntity
  8
Ebene_1
 62
7
100
AcDbSpline
 70
8
 71
3
 72
8
 73
4
 74
0
 40
0
 40
0
 40
0
 40
0
 40
1
 40
1
 40
1
 40
1
 10
-77.575341
 20
69.123520
 30
0.0
 10
-77.068997
 20
69.629870
 30
0.0
 10
-76.815824
 20
70.242820
 30
0.0
 10
-76.815824
 20
70.962350
 30
0.0
  0
SPLINE
  5
12c
100
AcDbEntity
  8
Ebene_1
 62
7
100
AcDbSpline
 70
8
 71
3
 72
8
 73
4
 74
0
 40
0
 40
0
 40
0
 40
0
 40
1
 40
1
 40
1
 40
1
 10
-76.815824
 20
70.962350
 30
0.0
 10
-76.815824
 20
71.655260
 30
0.0
 10
-77.068997
 20
72.254870
 30
0.0
 10
-77.575341
 20
72.761220
 30
0.0
  0
SPLINE
  5
12d
100
AcDbEntity
  8
Ebene_1
 62
7
100
AcDbSpline
 70
8
 71
3
 72
8
 73
4
 74
0
 40
0
 40
0
 40
0
 40
0
 40
1
 40
1
 40
1
 40
1
 10
-77.575341
 20
72.761220
 30
0.0
 10
-78.081687
 20
73.267550
 30
0.0
 10
-78.681307
 20
73.520730
 30
0.0
 10
-79.374200
 20
73.520730
 30
0.0
  0
SPLINE
  5
12e
100
AcDbEntity
  8
Ebene_1
 62
7
100
AcDbSpline
 70
8
 71
3
 72
8
 73
4
 74
0
 40
0
 40
0
 40
0
 40
0
 40
1
 40
1
 40
1
 40
1
 10
-79.374200
 20
73.520730
 30
0.0
 10
-80.093742
 20
73.520730
 30
0.0
 10
-80.706687
 20
73.267550
 30
0.0
 10
-81.213032
 20
72.761220
 30
0.0
  0
SPLINE
  5
12f
100
AcDbEntity
  8
Ebene_1
 62
7
100
AcDbSpline
 70
8
 71
3
 72
8
 73
4
 74
0
 40
0
 40
0
 40
0
 40
0
 40
1
 40
1
 40
1
 40
1
 10
-81.213032
 20
72.761220
 30
0.0
 10
-81.692727
 20
72.254870
 30
0.0
 10
-81.932574
 20
71.655260
 30
0.0
 10
-81.932574
 20
70.962350
 30
0.0
  0
SPLINE
  5
130
100
AcDbEntity
  8
Ebene_1
 62
7
100
AcDbSpline
 70
8
 71
3
 72
8
 73
4
 74
0
 40
0
 40
0
 40
0
 40
0
 40
1
 40
1
 40
1
 40
1
 10
-81.932574
 20
70.962350
 30
0.0
 10
-81.932574
 20
70.242820
 30
0.0
 10
-81.692727
 20
69.629870
 30
0.0
 10
-81.213032
 20
69.123520
 30
0.0
  0
SPLINE
  5
131
100
AcDbEntity
  8
Ebene_1
 62
7
100
AcDbSpline
 70
8
 71
3
 72
8
 73
4
 74
0
 40
0
 40
0
 40
0
 40
0
 40
1
 40
1
 40
1
 40
1
 10
-81.213032
 20
69.123520
 30
0.0
 10
-80.706687
 20
68.643840
 30
0.0
 10
-80.093742
 20
68.403990
 30
0.0
 10
-79.374200
 20
68.403990
 30
0.0
  0
LWPOLYLINE
  5
132
100
AcDbEntity
  8
Ebene_1
 62
7
100
AcDbPolyline
 90
2
 70
0
 10
-100.879915
 20
82.000850
 30
0.0
 10
-125.112700
 20
82.000850
 30
0.0
  0
SPLINE
  5
133
100
AcDbEntity
  8
Ebene_1
 62
7
100
AcDbSpline
 70
8
 71
3
 72
8
 73
4
 74
0
 40
0
 40
0
 40
0
 40
0
 40
1
 40
1
 40
1
 40
1
 10
-89.607698
 20
78.637480
 30
0.0
 10
-88.914805
 20
78.637480
 30
0.0
 10
-88.315187
 20
78.877340
 30
0.0
 10
-87.808842
 20
79.357030
 30
0.0
  0
SPLINE
  5
134
100
AcDbEntity
  8
Ebene_1
 62
7
100
AcDbSpline
 70
8
 71
3
 72
8
 73
4
 74
0
 40
0
 40
0
 40
0
 40
0
 40
1
 40
1
 40
1
 40
1
 10
-87.808842
 20
79.357030
 30
0.0
 10
-87.302498
 20
79.863370
 30
0.0
 10
-87.049324
 20
80.476330
 30
0.0
 10
-87.049324
 20
81.195860
 30
0.0
  0
SPLINE
  5
135
100
AcDbEntity
  8
Ebene_1
 62
7
100
AcDbSpline
 70
8
 71
3
 72
8
 73
4
 74
0
 40
0
 40
0
 40
0
 40
0
 40
1
 40
1
 40
1
 40
1
 10
-87.049324
 20
81.195860
 30
0.0
 10
-87.049324
 20
81.888760
 30
0.0
 10
-87.302498
 20
82.488380
 30
0.0
 10
-87.808842
 20
82.994720
 30
0.0
  0
SPLINE
  5
136
100
AcDbEntity
  8
Ebene_1
 62
7
100
AcDbSpline
 70
8
 71
3
 72
8
 73
4
 74
0
 40
0
 40
0
 40
0
 40
0
 40
1
 40
1
 40
1
 40
1
 10
-87.808842
 20
82.994720
 30
0.0
 10
-88.315187
 20
83.501060
 30
0.0
 10
-88.914805
 20
83.754240
 30
0.0
 10
-89.607698
 20
83.754240
 30
0.0
  0
SPLINE
  5
137
100
AcDbEntity
  8
Ebene_1
 62
7
100
AcDbSpline
 70
8
 71
3
 72
8
 73
4
 74
0
 40
0
 40
0
 40
0
 40
0
 40
1
 40
1
 40
1
 40
1
 10
-89.607698
 20
83.754240
 30
0.0
 10
-90.327241
 20
83.754240
 30
0.0
 10
-90.940187
 20
83.501060
 30
0.0
 10
-91.446531
 20
82.994720
 30
0.0
  0
SPLINE
  5
138
100
AcDbEntity
  8
Ebene_1
 62
7
100
AcDbSpline
 70
8
 71
3
 72
8
 73
4
 74
0
 40
0
 40
0
 40
0
 40
0
 40
1
 40
1
 40
1
 40
1
 10
-91.446531
 20
82.994720
 30
0.0
 10
-91.926227
 20
82.488380
 30
0.0
 10
-92.166074
 20
81.888760
 30
0.0
 10
-92.166074
 20
81.195860
 30
0.0
  0
SPLINE
  5
139
100
AcDbEntity
  8
Ebene_1
 62
7
100
AcDbSpline
 70
8
 71
3
 72
8
 73
4
 74
0
 40
0
 40
0
 40
0
 40
0
 40
1
 40
1
 40
1
 40
1
 10
-92.166074
 20
81.195860
 30
0.0
 10
-92.166074
 20
80.476330
 30
0.0
 10
-91.926227
 20
79.863370
 30
0.0
 10
-91.446531
 20
79.357030
 30
0.0
  0
SPLINE
  5
13a
100
AcDbEntity
  8
Ebene_1
 62
7
100
AcDbSpline
 70
8
 71
3
 72
8
 73
4
 74
0
 40
0
 40
0
 40
0
 40
0
 40
1
 40
1
 40
1
 40
1
 10
-91.446531
 20
79.357030
 30
0.0
 10
-90.940187
 20
78.877340
 30
0.0
 10
-90.327241
 20
78.637480
 30
0.0
 10
-89.607698
 20
78.637480
 30
0.0
  0
LWPOLYLINE
  5
13b
100
AcDbEntity
  8
Ebene_1
 62
7
100
AcDbPolyline
 90
1
 70
1
 10
-79.374200
 20
68.403990
 30
0.0
  0
LWPOLYLINE
  5
13c
100
AcDbEntity
  8
Ebene_1
 62
7
100
AcDbPolyline
 90
1
 70
1
 10
-89.607698
 20
78.637480
 30
0.0
  0
SPLINE
  5
13d
100
AcDbEntity
  8
Ebene_1
 62
7
100
AcDbSpline
 70
8
 71
3
 72
8
 73
4
 74
0
 40
0
 40
0
 40
0
 40
0
 40
1
 40
1
 40
1
 40
1
 10
-86.569629
 20
77.078480
 30
0.0
 10
-87.449070
 20
76.412220
 30
0.0
 10
-88.461759
 20
76.079110
 30
0.0
 10
-89.607698
 20
76.079110
 30
0.0
  0
SPLINE
  5
13e
100
AcDbEntity
  8
Ebene_1
 62
7
100
AcDbSpline
 70
8
 71
3
 72
8
 73
4
 74
0
 40
0
 40
0
 40
0
 40
0
 40
1
 40
1
 40
1
 40
1
 10
-89.607698
 20
76.079110
 30
0.0
 10
-91.020135
 20
76.079110
 30
0.0
 10
-92.232699
 20
76.572130
 30
0.0
 10
-93.245388
 20
77.558180
 30
0.0
  0
SPLINE
  5
13f
100
AcDbEntity
  8
Ebene_1
 62
7
100
AcDbSpline
 70
8
 71
3
 72
8
 73
4
 74
0
 40
0
 40
0
 40
0
 40
0
 40
1
 40
1
 40
1
 40
1
 10
-93.245388
 20
77.558180
 30
0.0
 10
-94.231429
 20
78.570860
 30
0.0
 10
-94.724449
 20
79.783420
 30
0.0
 10
-94.724449
 20
81.195860
 30
0.0
  0
SPLINE
  5
140
100
AcDbEntity
  8
Ebene_1
 62
7
100
AcDbSpline
 70
8
 71
3
 72
8
 73
4
 74
0
 40
0
 40
0
 40
0
 40
0
 40
1
 40
1
 40
1
 40
1
 10
-94.724449
 20
81.195860
 30
0.0
 10
-94.724449
 20
82.581650
 30
0.0
 10
-94.231429
 20
83.780880
 30
0.0
 10
-93.245388
 20
84.793570
 30
0.0
  0
SPLINE
  5
141
100
AcDbEntity
  8
Ebene_1
 62
7
100
AcDbSpline
 70
8
 71
3
 72
8
 73
4
 74
0
 40
0
 40
0
 40
0
 40
0
 40
1
 40
1
 40
1
 40
1
 10
-93.245388
 20
84.793570
 30
0.0
 10
-92.232699
 20
85.806280
 30
0.0
 10
-91.020135
 20
86.312610
 30
0.0
 10
-89.607698
 20
86.312610
 30
0.0
  0
SPLINE
  5
142
100
AcDbEntity
  8
Ebene_1
 62
7
100
AcDbSpline
 70
8
 71
3
 72
8
 73
4
 74
0
 40
0
 40
0
 40
0
 40
0
 40
1
 40
1
 40
1
 40
1
 10
-89.607698
 20
86.312610
 30
0.0
 10
-88.221913
 20
86.312610
 30
0.0
 10
-87.022675
 20
85.806280
 30
0.0
 10
-86.009984
 20
84.793570
 30
0.0
  0
SPLINE
  5
143
100
AcDbEntity
  8
Ebene_1
 62
7
100
AcDbSpline
 70
8
 71
3
 72
8
 73
4
 74
0
 40
0
 40
0
 40
0
 40
0
 40
1
 40
1
 40
1
 40
1
 10
-86.009984
 20
84.793570
 30
0.0
 10
-84.997294
 20
83.780880
 30
0.0
 10
-84.490948
 20
82.581650
 30
0.0
 10
-84.490948
 20
81.195860
 30
0.0
  0
LWPOLYLINE
  5
144
100
AcDbEntity
  8
Ebene_1
 62
7
100
AcDbPolyline
 90
2
 70
0
 10
-92.166074
 20
65.845610
 30
0.0
 10
-86.569629
 20
77.078480
 30
0.0
  0
SPLINE
  5
145
100
AcDbEntity
  8
Ebene_1
 62
7
100
AcDbSpline
 70
8
 71
3
 72
8
 73
4
 74
0
 40
0
 40
0
 40
0
 40
0
 40
1
 40
1
 40
1
 40
1
 10
-82.452244
 20
75.039770
 30
0.0
 10
-81.572803
 20
75.732660
 30
0.0
 10
-80.546788
 20
76.079110
 30
0.0
 10
-79.374200
 20
76.079110
 30
0.0
  0
SPLINE
  5
146
100
AcDbEntity
  8
Ebene_1
 62
7
100
AcDbSpline
 70
8
 71
3
 72
8
 73
4
 74
0
 40
0
 40
0
 40
0
 40
0
 40
1
 40
1
 40
1
 40
1
 10
-79.374200
 20
76.079110
 30
0.0
 10
-77.988413
 20
76.079110
 30
0.0
 10
-76.789175
 20
75.572770
 30
0.0
 10
-75.776484
 20
74.560070
 30
0.0
  0
SPLINE
  5
147
100
AcDbEntity
  8
Ebene_1
 62
7
100
AcDbSpline
 70
8
 71
3
 72
8
 73
4
 74
0
 40
0
 40
0
 40
0
 40
0
 40
1
 40
1
 40
1
 40
1
 10
-75.776484
 20
74.560070
 30
0.0
 10
-74.763794
 20
73.547390
 30
0.0
 10
-74.257449
 20
72.348150
 30
0.0
 10
-74.257449
 20
70.962350
 30
0.0
  0
SPLINE
  5
148
100
AcDbEntity
  8
Ebene_1
 62
7
100
AcDbSpline
 70
8
 71
3
 72
8
 73
4
 74
0
 40
0
 40
0
 40
0
 40
0
 40
1
 40
1
 40
1
 40
1
 10
-74.257449
 20
70.962350
 30
0.0
 10
-74.257449
 20
69.549930
 30
0.0
 10
-74.763794
 20
68.337360
 30
0.0
 10
-75.776484
 20
67.324670
 30
0.0
  0
SPLINE
  5
149
100
AcDbEntity
  8
Ebene_1
 62
7
100
AcDbSpline
 70
8
 71
3
 72
8
 73
4
 74
0
 40
0
 40
0
 40
0
 40
0
 40
1
 40
1
 40
1
 40
1
 10
-75.776484
 20
67.324670
 30
0.0
 10
-76.789175
 20
66.338620
 30
0.0
 10
-77.988413
 20
65.845610
 30
0.0
 10
-79.374200
 20
65.845610
 30
0.0
  0
SPLINE
  5
14a
100
AcDbEntity
  8
Ebene_1
 62
7
100
AcDbSpline
 70
8
 71
3
 72
8
 73
4
 74
0
 40
0
 40
0
 40
0
 40
0
 40
1
 40
1
 40
1
 40
1
 10
-79.374200
 20
65.845610
 30
0.0
 10
-80.786635
 20
65.845610
 30
0.0
 10
-81.999198
 20
66.338620
 30
0.0
 10
-83.011888
 20
67.324670
 30
0.0
  0
SPLINE
  5
14b
100
AcDbEntity
  8
Ebene_1
 62
7
100
AcDbSpline
 70
8
 71
3
 72
8
 73
4
 74
0
 40
0
 40
0
 40
0
 40
0
 40
1
 40
1
 40
1
 40
1
 10
-83.011888
 20
67.324670
 30
0.0
 10
-83.997928
 20
68.337360
 30
0.0
 10
-84.490948
 20
69.549930
 30
0.0
 10
-84.490948
 20
70.962350
 30
0.0
  0
LWPOLYLINE
  5
14c
100
AcDbEntity
  8
Ebene_1
 62
7
100
AcDbPolyline
 90
5
 70
0
 10
-84.490948
 20
81.195860
 30
0.0
 10
-81.932574
 20
86.312610
 30
0.0
 10
-76.815824
 20
86.312610
 30
0.0
 10
-82.452244
 20
75.039770
 30
0.0
 10
-82.452244
 20
75.039770
 30
0.0
  0
SPLINE
  5
14d
100
AcDbEntity
  8
Ebene_1
 62
7
100
AcDbSpline
 70
8
 71
3
 72
8
 73
4
 74
0
 40
0
 40
0
 40
0
 40
0
 40
1
 40
1
 40
1
 40
1
 10
-200.067814
 20
39.140640
 30
0.0
 10
-201.203726
 20
39.140640
 30
0.0
 10
-202.160837
 20
39.529793
 30
0.0
 10
-202.939147
 20
40.308100
 30
0.0
  0
SPLINE
  5
14e
100
AcDbEntity
  8
Ebene_1
 62
7
100
AcDbSpline
 70
8
 71
3
 72
8
 73
4
 74
0
 40
0
 40
0
 40
0
 40
0
 40
1
 40
1
 40
1
 40
1
 10
-202.939147
 20
40.308100
 30
0.0
 10
-203.717457
 20
41.107447
 30
0.0
 10
-204.106612
 20
42.064560
 30
0.0
 10
-204.106612
 20
43.179440
 30
0.0
  0
LWPOLYLINE
  5
14f
100
AcDbEntity
  8
Ebene_1
 62
7
100
AcDbPolyline
 90
3
 70
0
 10
-84.490948
 20
70.962350
 30
0.0
 10
-87.049324
 20
65.845610
 30
0.0
 10
-92.166074
 20
65.845610
 30
0.0
  0
SPLINE
  5
150
100
AcDbEntity
  8
Ebene_1
 62
7
100
AcDbSpline
 70
8
 71
3
 72
8
 73
4
 74
0
 40
0
 40
0
 40
0
 40
0
 40
1
 40
1
 40
1
 40
1
 10
-204.106612
 20
51.257030
 30
0.0
 10
-204.106612
 20
52.371910
 30
0.0
 10
-203.717457
 20
53.318503
 30
0.0
 10
-202.939147
 20
54.096810
 30
0.0
  0
SPLINE
  5
151
100
AcDbEntity
  8
Ebene_1
 62
7
100
AcDbSpline
 70
8
 71
3
 72
8
 73
4
 74
0
 40
0
 40
0
 40
0
 40
0
 40
1
 40
1
 40
1
 40
1
 10
-202.939147
 20
54.096810
 30
0.0
 10
-202.139802
 20
54.896157
 30
0.0
 10
-201.182691
 20
55.295830
 30
0.0
 10
-200.067814
 20
55.295830
 30
0.0
  0
LWPOLYLINE
  5
152
100
AcDbEntity
  8
Ebene_1
 62
7
100
AcDbPolyline
 90
2
 70
0
 10
-204.106612
 20
43.179440
 30
0.0
 10
-204.106612
 20
51.257030
 30
0.0
  0
SPLINE
  5
153
100
AcDbEntity
  8
Ebene_1
 62
7
100
AcDbSpline
 70
8
 71
3
 72
8
 73
4
 74
0
 40
0
 40
0
 40
0
 40
0
 40
1
 40
1
 40
1
 40
1
 10
-198.048415
 20
51.257030
 30
0.0
 10
-198.616371
 20
51.257030
 30
0.0
 10
-199.100185
 20
51.057193
 30
0.0
 10
-199.499858
 20
50.657520
 30
0.0
  0
SPLINE
  5
154
100
AcDbEntity
  8
Ebene_1
 62
7
100
AcDbSpline
 70
8
 71
3
 72
8
 73
4
 74
0
 40
0
 40
0
 40
0
 40
0
 40
1
 40
1
 40
1
 40
1
 10
-199.499858
 20
50.657520
 30
0.0
 10
-199.878495
 20
50.257847
 30
0.0
 10
-200.067814
 20
49.784550
 30
0.0
 10
-200.067814
 20
49.237630
 30
0.0
  0
LWPOLYLINE
  5
155
100
AcDbEntity
  8
Ebene_1
 62
7
100
AcDbPolyline
 90
8
 70
0
 10
-200.067814
 20
55.295830
 30
0.0
 10
-183.912625
 20
55.295830
 30
0.0
 10
-189.970821
 20
49.237630
 30
0.0
 10
-183.912625
 20
49.237630
 30
0.0
 10
-187.951422
 20
45.198840
 30
0.0
 10
-198.048415
 20
45.198840
 30
0.0
 10
-191.990219
 20
51.257030
 30
0.0
 10
-198.048415
 20
51.257030
 30
0.0
  0
SPLINE
  5
156
100
AcDbEntity
  8
Ebene_1
 62
7
100
AcDbSpline
 70
8
 71
3
 72
8
 73
4
 74
0
 40
0
 40
0
 40
0
 40
0
 40
1
 40
1
 40
1
 40
1
 10
-200.067814
 20
45.198840
 30
0.0
 10
-200.067814
 20
44.630880
 30
0.0
 10
-199.878495
 20
44.147063
 30
0.0
 10
-199.499858
 20
43.747390
 30
0.0
  0
SPLINE
  5
157
100
AcDbEntity
  8
Ebene_1
 62
7
100
AcDbSpline
 70
8
 71
3
 72
8
 73
4
 74
0
 40
0
 40
0
 40
0
 40
0
 40
1
 40
1
 40
1
 40
1
 10
-199.499858
 20
43.747390
 30
0.0
 10
-199.100185
 20
43.368757
 30
0.0
 10
-198.616371
 20
43.179440
 30
0.0
 10
-198.048415
 20
43.179440
 30
0.0
  0
LWPOLYLINE
  5
158
100
AcDbEntity
  8
Ebene_1
 62
7
100
AcDbPolyline
 90
2
 70
0
 10
-200.067814
 20
49.237630
 30
0.0
 10
-200.067814
 20
45.198840
 30
0.0
  0
SPLINE
  5
159
100
AcDbEntity
  8
Ebene_1
 62
7
100
AcDbSpline
 70
8
 71
3
 72
8
 73
4
 74
0
 40
0
 40
0
 40
0
 40
0
 40
1
 40
1
 40
1
 40
1
 10
-183.912625
 20
43.179440
 30
0.0
 10
-183.912625
 20
42.043527
 30
0.0
 10
-184.312298
 20
41.086413
 30
0.0
 10
-185.111643
 20
40.308100
 30
0.0
  0
SPLINE
  5
15a
100
AcDbEntity
  8
Ebene_1
 62
7
100
AcDbSpline
 70
8
 71
3
 72
8
 73
4
 74
0
 40
0
 40
0
 40
0
 40
0
 40
1
 40
1
 40
1
 40
1
 10
-185.111643
 20
40.308100
 30
0.0
 10
-185.910988
 20
39.529793
 30
0.0
 10
-186.857581
 20
39.140640
 30
0.0
 10
-187.951422
 20
39.140640
 30
0.0
  0
LWPOLYLINE
  5
15b
100
AcDbEntity
  8
Ebene_1
 62
7
100
AcDbPolyline
 90
2
 70
0
 10
-198.048415
 20
43.179440
 30
0.0
 10
-183.912625
 20
43.179440
 30
0.0
  0
LWPOLYLINE
  5
15c
100
AcDbEntity
  8
Ebene_1
 62
7
100
AcDbPolyline
 90
2
 70
0
 10
-187.951422
 20
39.140640
 30
0.0
 10
-200.067814
 20
39.140640
 30
0.0
  0
SPLINE
  5
15d
100
AcDbEntity
  8
Ebene_1
 62
7
100
AcDbSpline
 70
8
 71
3
 72
8
 73
4
 74
0
 40
0
 40
0
 40
0
 40
0
 40
1
 40
1
 40
1
 40
1
 10
-167.757435
 20
39.140640
 30
0.0
 10
-168.893347
 20
39.140640
 30
0.0
 10
-169.850458
 20
39.529793
 30
0.0
 10
-170.628768
 20
40.308100
 30
0.0
  0
SPLINE
  5
15e
100
AcDbEntity
  8
Ebene_1
 62
7
100
AcDbSpline
 70
8
 71
3
 72
8
 73
4
 74
0
 40
0
 40
0
 40
0
 40
0
 40
1
 40
1
 40
1
 40
1
 10
-170.628768
 20
40.308100
 30
0.0
 10
-171.407078
 20
41.107447
 30
0.0
 10
-171.796233
 20
42.064560
 30
0.0
 10
-171.796233
 20
43.179440
 30
0.0
  0
LWPOLYLINE
  5
15f
100
AcDbEntity
  8
Ebene_1
 62
7
100
AcDbPolyline
 90
4
 70
1
 10
-179.873827
 20
39.140640
 30
0.0
 10
-179.873827
 20
59.334630
 30
0.0
 10
-175.835030
 20
59.334630
 30
0.0
 10
-175.835030
 20
39.140640
 30
0.0
  0
SPLINE
  5
160
100
AcDbEntity
  8
Ebene_1
 62
7
100
AcDbSpline
 70
8
 71
3
 72
8
 73
4
 74
0
 40
0
 40
0
 40
0
 40
0
 40
1
 40
1
 40
1
 40
1
 10
-171.796233
 20
51.257030
 30
0.0
 10
-171.796233
 20
52.371910
 30
0.0
 10
-171.407078
 20
53.318503
 30
0.0
 10
-170.628768
 20
54.096810
 30
0.0
  0
SPLINE
  5
161
100
AcDbEntity
  8
Ebene_1
 62
7
100
AcDbSpline
 70
8
 71
3
 72
8
 73
4
 74
0
 40
0
 40
0
 40
0
 40
0
 40
1
 40
1
 40
1
 40
1
 10
-170.628768
 20
54.096810
 30
0.0
 10
-169.829422
 20
54.896157
 30
0.0
 10
-168.872312
 20
55.295830
 30
0.0
 10
-167.757435
 20
55.295830
 30
0.0
  0
LWPOLYLINE
  5
162
100
AcDbEntity
  8
Ebene_1
 62
7
100
AcDbPolyline
 90
2
 70
0
 10
-171.796233
 20
43.179440
 30
0.0
 10
-171.796233
 20
51.257030
 30
0.0
  0
SPLINE
  5
163
100
AcDbEntity
  8
Ebene_1
 62
7
100
AcDbSpline
 70
8
 71
3
 72
8
 73
4
 74
0
 40
0
 40
0
 40
0
 40
0
 40
1
 40
1
 40
1
 40
1
 10
-165.738036
 20
51.257030
 30
0.0
 10
-166.305992
 20
51.257030
 30
0.0
 10
-166.789807
 20
51.057193
 30
0.0
 10
-167.189479
 20
50.657520
 30
0.0
  0
SPLINE
  5
164
100
AcDbEntity
  8
Ebene_1
 62
7
100
AcDbSpline
 70
8
 71
3
 72
8
 73
4
 74
0
 40
0
 40
0
 40
0
 40
0
 40
1
 40
1
 40
1
 40
1
 10
-167.189479
 20
50.657520
 30
0.0
 10
-167.568117
 20
50.257847
 30
0.0
 10
-167.757435
 20
49.784550
 30
0.0
 10
-167.757435
 20
49.237630
 30
0.0
  0
LWPOLYLINE
  5
165
100
AcDbEntity
  8
Ebene_1
 62
7
100
AcDbPolyline
 90
8
 70
0
 10
-167.757435
 20
55.295830
 30
0.0
 10
-151.602246
 20
55.295830
 30
0.0
 10
-157.660442
 20
49.237630
 30
0.0
 10
-151.602246
 20
49.237630
 30
0.0
 10
-155.641043
 20
45.198840
 30
0.0
 10
-165.738036
 20
45.198840
 30
0.0
 10
-159.679840
 20
51.257030
 30
0.0
 10
-165.738036
 20
51.257030
 30
0.0
  0
SPLINE
  5
166
100
AcDbEntity
  8
Ebene_1
 62
7
100
AcDbSpline
 70
8
 71
3
 72
8
 73
4
 74
0
 40
0
 40
0
 40
0
 40
0
 40
1
 40
1
 40
1
 40
1
 10
-167.757435
 20
45.198840
 30
0.0
 10
-167.757435
 20
44.630880
 30
0.0
 10
-167.568117
 20
44.147063
 30
0.0
 10
-167.189479
 20
43.747390
 30
0.0
  0
SPLINE
  5
167
100
AcDbEntity
  8
Ebene_1
 62
7
100
AcDbSpline
 70
8
 71
3
 72
8
 73
4
 74
0
 40
0
 40
0
 40
0
 40
0
 40
1
 40
1
 40
1
 40
1
 10
-167.189479
 20
43.747390
 30
0.0
 10
-166.789807
 20
43.368757
 30
0.0
 10
-166.305992
 20
43.179440
 30
0.0
 10
-165.738036
 20
43.179440
 30
0.0
  0
LWPOLYLINE
  5
168
100
AcDbEntity
  8
Ebene_1
 62
7
100
AcDbPolyline
 90
2
 70
0
 10
-167.757435
 20
49.237630
 30
0.0
 10
-167.757435
 20
45.198840
 30
0.0
  0
SPLINE
  5
169
100
AcDbEntity
  8
Ebene_1
 62
7
100
AcDbSpline
 70
8
 71
3
 72
8
 73
4
 74
0
 40
0
 40
0
 40
0
 40
0
 40
1
 40
1
 40
1
 40
1
 10
-151.602246
 20
43.179440
 30
0.0
 10
-151.602246
 20
42.043527
 30
0.0
 10
-152.001919
 20
41.086413
 30
0.0
 10
-152.801264
 20
40.308100
 30
0.0
  0
SPLINE
  5
16a
100
AcDbEntity
  8
Ebene_1
 62
7
100
AcDbSpline
 70
8
 71
3
 72
8
 73
4
 74
0
 40
0
 40
0
 40
0
 40
0
 40
1
 40
1
 40
1
 40
1
 10
-152.801264
 20
40.308100
 30
0.0
 10
-153.600609
 20
39.529793
 30
0.0
 10
-154.547202
 20
39.140640
 30
0.0
 10
-155.641043
 20
39.140640
 30
0.0
  0
LWPOLYLINE
  5
16b
100
AcDbEntity
  8
Ebene_1
 62
7
100
AcDbPolyline
 90
2
 70
0
 10
-165.738036
 20
43.179440
 30
0.0
 10
-151.602246
 20
43.179440
 30
0.0
  0
SPLINE
  5
16c
100
AcDbEntity
  8
Ebene_1
 62
7
100
AcDbSpline
 70
8
 71
3
 72
8
 73
4
 74
0
 40
0
 40
0
 40
0
 40
0
 40
1
 40
1
 40
1
 40
1
 10
-143.524651
 20
39.140640
 30
0.0
 10
-144.660563
 20
39.140640
 30
0.0
 10
-145.617674
 20
39.529793
 30
0.0
 10
-146.395983
 20
40.308100
 30
0.0
  0
SPLINE
  5
16d
100
AcDbEntity
  8
Ebene_1
 62
7
100
AcDbSpline
 70
8
 71
3
 72
8
 73
4
 74
0
 40
0
 40
0
 40
0
 40
0
 40
1
 40
1
 40
1
 40
1
 10
-146.395983
 20
40.308100
 30
0.0
 10
-147.174293
 20
41.107447
 30
0.0
 10
-147.563448
 20
42.064560
 30
0.0
 10
-147.563448
 20
43.179440
 30
0.0
  0
LWPOLYLINE
  5
16e
100
AcDbEntity
  8
Ebene_1
 62
7
100
AcDbPolyline
 90
2
 70
0
 10
-155.641043
 20
39.140640
 30
0.0
 10
-167.757435
 20
39.140640
 30
0.0
  0
SPLINE
  5
16f
100
AcDbEntity
  8
Ebene_1
 62
7
100
AcDbSpline
 70
8
 71
3
 72
8
 73
4
 74
0
 40
0
 40
0
 40
0
 40
0
 40
1
 40
1
 40
1
 40
1
 10
-127.369461
 20
55.295830
 30
0.0
 10
-127.369461
 20
54.159917
 30
0.0
 10
-127.769134
 20
53.202807
 30
0.0
 10
-128.568479
 20
52.424500
 30
0.0
  0
SPLINE
  5
170
100
AcDbEntity
  8
Ebene_1
 62
7
100
AcDbSpline
 70
8
 71
3
 72
8
 73
4
 74
0
 40
0
 40
0
 40
0
 40
0
 40
1
 40
1
 40
1
 40
1
 10
-128.568479
 20
52.424500
 30
0.0
 10
-129.367824
 20
51.646187
 30
0.0
 10
-130.314418
 20
51.257030
 30
0.0
 10
-131.408259
 20
51.257030
 30
0.0
  0
LWPOLYLINE
  5
171
100
AcDbEntity
  8
Ebene_1
 62
7
100
AcDbPolyline
 90
3
 70
0
 10
-147.563448
 20
43.179440
 30
0.0
 10
-147.563448
 20
55.295830
 30
0.0
 10
-127.369461
 20
55.295830
 30
0.0
  0
SPLINE
  5
172
100
AcDbEntity
  8
Ebene_1
 62
7
100
AcDbSpline
 70
8
 71
3
 72
8
 73
4
 74
0
 40
0
 40
0
 40
0
 40
0
 40
1
 40
1
 40
1
 40
1
 10
-143.524651
 20
45.198840
 30
0.0
 10
-143.524651
 20
44.630880
 30
0.0
 10
-143.335332
 20
44.147063
 30
0.0
 10
-142.956695
 20
43.747390
 30
0.0
  0
SPLINE
  5
173
100
AcDbEntity
  8
Ebene_1
 62
7
100
AcDbSpline
 70
8
 71
3
 72
8
 73
4
 74
0
 40
0
 40
0
 40
0
 40
0
 40
1
 40
1
 40
1
 40
1
 10
-142.956695
 20
43.747390
 30
0.0
 10
-142.557022
 20
43.368757
 30
0.0
 10
-142.073208
 20
43.179440
 30
0.0
 10
-141.505252
 20
43.179440
 30
0.0
  0
LWPOLYLINE
  5
174
100
AcDbEntity
  8
Ebene_1
 62
7
100
AcDbPolyline
 90
3
 70
0
 10
-131.408259
 20
51.257030
 30
0.0
 10
-143.524651
 20
51.257030
 30
0.0
 10
-143.524651
 20
45.198840
 30
0.0
  0
SPLINE
  5
175
100
AcDbEntity
  8
Ebene_1
 62
7
100
AcDbSpline
 70
8
 71
3
 72
8
 73
4
 74
0
 40
0
 40
0
 40
0
 40
0
 40
1
 40
1
 40
1
 40
1
 10
-127.369461
 20
43.179440
 30
0.0
 10
-127.369461
 20
42.043527
 30
0.0
 10
-127.769134
 20
41.086413
 30
0.0
 10
-128.568479
 20
40.308100
 30
0.0
  0
SPLINE
  5
176
100
AcDbEntity
  8
Ebene_1
 62
7
100
AcDbSpline
 70
8
 71
3
 72
8
 73
4
 74
0
 40
0
 40
0
 40
0
 40
0
 40
1
 40
1
 40
1
 40
1
 10
-128.568479
 20
40.308100
 30
0.0
 10
-129.367824
 20
39.529793
 30
0.0
 10
-130.314418
 20
39.140640
 30
0.0
 10
-131.408259
 20
39.140640
 30
0.0
  0
LWPOLYLINE
  5
177
100
AcDbEntity
  8
Ebene_1
 62
7
100
AcDbPolyline
 90
2
 70
0
 10
-141.505252
 20
43.179440
 30
0.0
 10
-127.369461
 20
43.179440
 30
0.0
  0
SPLINE
  5
178
100
AcDbEntity
  8
Ebene_1
 62
7
100
AcDbSpline
 70
8
 71
3
 72
8
 73
4
 74
0
 40
0
 40
0
 40
0
 40
0
 40
1
 40
1
 40
1
 40
1
 10
-115.253069
 20
39.140640
 30
0.0
 10
-116.388981
 20
39.140640
 30
0.0
 10
-117.346092
 20
39.529793
 30
0.0
 10
-118.124402
 20
40.308100
 30
0.0
  0
SPLINE
  5
179
100
AcDbEntity
  8
Ebene_1
 62
7
100
AcDbSpline
 70
8
 71
3
 72
8
 73
4
 74
0
 40
0
 40
0
 40
0
 40
0
 40
1
 40
1
 40
1
 40
1
 10
-118.124402
 20
40.308100
 30
0.0
 10
-118.902712
 20
41.107447
 30
0.0
 10
-119.291867
 20
42.064560
 30
0.0
 10
-119.291867
 20
43.179440
 30
0.0
  0
LWPOLYLINE
  5
17a
100
AcDbEntity
  8
Ebene_1
 62
7
100
AcDbPolyline
 90
2
 70
0
 10
-131.408259
 20
39.140640
 30
0.0
 10
-143.524651
 20
39.140640
 30
0.0
  0
SPLINE
  5
17b
100
AcDbEntity
  8
Ebene_1
 62
7
100
AcDbSpline
 70
8
 71
3
 72
8
 73
4
 74
0
 40
0
 40
0
 40
0
 40
0
 40
1
 40
1
 40
1
 40
1
 10
-123.330664
 20
51.257030
 30
0.0
 10
-123.330664
 20
52.371910
 30
0.0
 10
-122.941509
 20
53.318503
 30
0.0
 10
-122.163199
 20
54.096810
 30
0.0
  0
SPLINE
  5
17c
100
AcDbEntity
  8
Ebene_1
 62
7
100
AcDbSpline
 70
8
 71
3
 72
8
 73
4
 74
0
 40
0
 40
0
 40
0
 40
0
 40
1
 40
1
 40
1
 40
1
 10
-122.163199
 20
54.096810
 30
0.0
 10
-121.363854
 20
54.896157
 30
0.0
 10
-120.406743
 20
55.295830
 30
0.0
 10
-119.291867
 20
55.295830
 30
0.0
  0
LWPOLYLINE
  5
17d
100
AcDbEntity
  8
Ebene_1
 62
7
100
AcDbPolyline
 90
3
 70
0
 10
-119.291867
 20
43.179440
 30
0.0
 10
-119.291867
 20
51.257030
 30
0.0
 10
-123.330664
 20
51.257030
 30
0.0
  0
SPLINE
  5
17e
100
AcDbEntity
  8
Ebene_1
 62
7
100
AcDbSpline
 70
8
 71
3
 72
8
 73
4
 74
0
 40
0
 40
0
 40
0
 40
0
 40
1
 40
1
 40
1
 40
1
 10
-103.136677
 20
55.295830
 30
0.0
 10
-103.136677
 20
54.159917
 30
0.0
 10
-103.536350
 20
53.202807
 30
0.0
 10
-104.335695
 20
52.424500
 30
0.0
  0
SPLINE
  5
17f
100
AcDbEntity
  8
Ebene_1
 62
7
100
AcDbSpline
 70
8
 71
3
 72
8
 73
4
 74
0
 40
0
 40
0
 40
0
 40
0
 40
1
 40
1
 40
1
 40
1
 10
-104.335695
 20
52.424500
 30
0.0
 10
-105.135040
 20
51.646187
 30
0.0
 10
-106.081633
 20
51.257030
 30
0.0
 10
-107.175474
 20
51.257030
 30
0.0
  0
LWPOLYLINE
  5
180
100
AcDbEntity
  8
Ebene_1
 62
7
100
AcDbPolyline
 90
5
 70
0
 10
-119.291867
 20
55.295830
 30
0.0
 10
-119.291867
 20
59.334630
 30
0.0
 10
-115.253069
 20
59.334630
 30
0.0
 10
-115.253069
 20
55.295830
 30
0.0
 10
-103.136677
 20
55.295830
 30
0.0
  0
SPLINE
  5
181
100
AcDbEntity
  8
Ebene_1
 62
7
100
AcDbSpline
 70
8
 71
3
 72
8
 73
4
 74
0
 40
0
 40
0
 40
0
 40
0
 40
1
 40
1
 40
1
 40
1
 10
-115.253069
 20
45.198840
 30
0.0
 10
-115.253069
 20
44.630880
 30
0.0
 10
-115.063750
 20
44.147063
 30
0.0
 10
-114.685113
 20
43.747390
 30
0.0
  0
SPLINE
  5
182
100
AcDbEntity
  8
Ebene_1
 62
7
100
AcDbSpline
 70
8
 71
3
 72
8
 73
4
 74
0
 40
0
 40
0
 40
0
 40
0
 40
1
 40
1
 40
1
 40
1
 10
-114.685113
 20
43.747390
 30
0.0
 10
-114.285440
 20
43.368757
 30
0.0
 10
-113.801626
 20
43.179440
 30
0.0
 10
-113.233671
 20
43.179440
 30
0.0
  0
LWPOLYLINE
  5
183
100
AcDbEntity
  8
Ebene_1
 62
7
100
AcDbPolyline
 90
3
 70
0
 10
-107.175474
 20
51.257030
 30
0.0
 10
-115.253069
 20
51.257030
 30
0.0
 10
-115.253069
 20
45.198840
 30
0.0
  0
SPLINE
  5
184
100
AcDbEntity
  8
Ebene_1
 62
7
100
AcDbSpline
 70
8
 71
3
 72
8
 73
4
 74
0
 40
0
 40
0
 40
0
 40
0
 40
1
 40
1
 40
1
 40
1
 10
-103.136677
 20
43.179440
 30
0.0
 10
-103.136677
 20
42.043527
 30
0.0
 10
-103.536350
 20
41.086413
 30
0.0
 10
-104.335695
 20
40.308100
 30
0.0
  0
SPLINE
  5
185
100
AcDbEntity
  8
Ebene_1
 62
7
100
AcDbSpline
 70
8
 71
3
 72
8
 73
4
 74
0
 40
0
 40
0
 40
0
 40
0
 40
1
 40
1
 40
1
 40
1
 10
-104.335695
 20
40.308100
 30
0.0
 10
-105.135040
 20
39.529793
 30
0.0
 10
-106.081633
 20
39.140640
 30
0.0
 10
-107.175474
 20
39.140640
 30
0.0
  0
LWPOLYLINE
  5
186
100
AcDbEntity
  8
Ebene_1
 62
7
100
AcDbPolyline
 90
2
 70
0
 10
-113.233671
 20
43.179440
 30
0.0
 10
-103.136677
 20
43.179440
 30
0.0
  0
LWPOLYLINE
  5
187
100
AcDbEntity
  8
Ebene_1
 62
7
100
AcDbPolyline
 90
2
 70
0
 10
-107.175474
 20
39.140640
 30
0.0
 10
-115.253069
 20
39.140640
 30
0.0
  0
SPLINE
  5
188
100
AcDbEntity
  8
Ebene_1
 62
7
100
AcDbSpline
 70
8
 71
3
 72
8
 73
4
 74
0
 40
0
 40
0
 40
0
 40
0
 40
1
 40
1
 40
1
 40
1
 10
-99.097884
 20
51.257030
 30
0.0
 10
-99.097884
 20
52.371910
 30
0.0
 10
-98.708729
 20
53.318503
 30
0.0
 10
-97.930419
 20
54.096810
 30
0.0
  0
SPLINE
  5
189
100
AcDbEntity
  8
Ebene_1
 62
7
100
AcDbSpline
 70
8
 71
3
 72
8
 73
4
 74
0
 40
0
 40
0
 40
0
 40
0
 40
1
 40
1
 40
1
 40
1
 10
-97.930419
 20
54.096810
 30
0.0
 10
-97.131074
 20
54.896157
 30
0.0
 10
-96.173963
 20
55.295830
 30
0.0
 10
-95.059086
 20
55.295830
 30
0.0
  0
LWPOLYLINE
  5
18a
100
AcDbEntity
  8
Ebene_1
 62
7
100
AcDbPolyline
 90
2
 70
0
 10
-99.097884
 20
39.140640
 30
0.0
 10
-99.097884
 20
51.257030
 30
0.0
  0
SPLINE
  5
18b
100
AcDbEntity
  8
Ebene_1
 62
7
100
AcDbSpline
 70
8
 71
3
 72
8
 73
4
 74
0
 40
0
 40
0
 40
0
 40
0
 40
1
 40
1
 40
1
 40
1
 10
-78.903897
 20
55.295830
 30
0.0
 10
-78.903897
 20
54.159917
 30
0.0
 10
-79.303570
 20
53.202807
 30
0.0
 10
-80.102915
 20
52.424500
 30
0.0
  0
SPLINE
  5
18c
100
AcDbEntity
  8
Ebene_1
 62
7
100
AcDbSpline
 70
8
 71
3
 72
8
 73
4
 74
0
 40
0
 40
0
 40
0
 40
0
 40
1
 40
1
 40
1
 40
1
 10
-80.102915
 20
52.424500
 30
0.0
 10
-80.902260
 20
51.646187
 30
0.0
 10
-81.848853
 20
51.257030
 30
0.0
 10
-82.942694
 20
51.257030
 30
0.0
  0
LWPOLYLINE
  5
18d
100
AcDbEntity
  8
Ebene_1
 62
7
100
AcDbPolyline
 90
2
 70
0
 10
-95.059086
 20
55.295830
 30
0.0
 10
-78.903897
 20
55.295830
 30
0.0
  0
SPLINE
  5
18e
100
AcDbEntity
  8
Ebene_1
 62
7
100
AcDbSpline
 70
8
 71
3
 72
8
 73
4
 74
0
 40
0
 40
0
 40
0
 40
0
 40
1
 40
1
 40
1
 40
1
 10
-93.039687
 20
51.257030
 30
0.0
 10
-93.607643
 20
51.257030
 30
0.0
 10
-94.091457
 20
51.057193
 30
0.0
 10
-94.491130
 20
50.657520
 30
0.0
  0
SPLINE
  5
18f
100
AcDbEntity
  8
Ebene_1
 62
7
100
AcDbSpline
 70
8
 71
3
 72
8
 73
4
 74
0
 40
0
 40
0
 40
0
 40
0
 40
1
 40
1
 40
1
 40
1
 10
-94.491130
 20
50.657520
 30
0.0
 10
-94.869767
 20
50.257847
 30
0.0
 10
-95.059086
 20
49.784550
 30
0.0
 10
-95.059086
 20
49.237630
 30
0.0
  0
LWPOLYLINE
  5
190
100
AcDbEntity
  8
Ebene_1
 62
7
100
AcDbPolyline
 90
2
 70
0
 10
-82.942694
 20
51.257030
 30
0.0
 10
-93.039687
 20
51.257030
 30
0.0
  0
LWPOLYLINE
  5
191
100
AcDbEntity
  8
Ebene_1
 62
7
100
AcDbPolyline
 90
3
 70
0
 10
-95.059086
 20
49.237630
 30
0.0
 10
-95.059086
 20
39.140640
 30
0.0
 10
-99.097884
 20
39.140640
 30
0.0
  0
SPLINE
  5
192
100
AcDbEntity
  8
Ebene_1
 62
7
100
AcDbSpline
 70
8
 71
3
 72
8
 73
4
 74
0
 40
0
 40
0
 40
0
 40
0
 40
1
 40
1
 40
1
 40
1
 10
-62.748710
 20
39.140640
 30
0.0
 10
-63.884617
 20
39.140640
 30
0.0
 10
-64.841727
 20
39.529793
 30
0.0
 10
-65.620040
 20
40.308100
 30
0.0
  0
SPLINE
  5
193
100
AcDbEntity
  8
Ebene_1
 62
7
100
AcDbSpline
 70
8
 71
3
 72
8
 73
4
 74
0
 40
0
 40
0
 40
0
 40
0
 40
1
 40
1
 40
1
 40
1
 10
-65.620040
 20
40.308100
 30
0.0
 10
-66.398349
 20
41.107447
 30
0.0
 10
-66.787504
 20
42.064560
 30
0.0
 10
-66.787504
 20
43.179440
 30
0.0
  0
LWPOLYLINE
  5
194
100
AcDbEntity
  8
Ebene_1
 62
7
100
AcDbPolyline
 90
4
 70
1
 10
-74.865095
 20
39.140640
 30
0.0
 10
-74.865095
 20
55.295830
 30
0.0
 10
-70.826298
 20
55.295830
 30
0.0
 10
-70.826298
 20
39.140640
 30
0.0
  0
SPLINE
  5
195
100
AcDbEntity
  8
Ebene_1
 62
7
100
AcDbSpline
 70
8
 71
3
 72
8
 73
4
 74
0
 40
0
 40
0
 40
0
 40
0
 40
1
 40
1
 40
1
 40
1
 10
-46.593520
 20
55.295830
 30
0.0
 10
-46.593520
 20
54.159917
 30
0.0
 10
-46.993193
 20
53.202807
 30
0.0
 10
-47.792540
 20
52.424500
 30
0.0
  0
SPLINE
  5
196
100
AcDbEntity
  8
Ebene_1
 62
7
100
AcDbSpline
 70
8
 71
3
 72
8
 73
4
 74
0
 40
0
 40
0
 40
0
 40
0
 40
1
 40
1
 40
1
 40
1
 10
-47.792540
 20
52.424500
 30
0.0
 10
-48.591880
 20
51.646187
 30
0.0
 10
-49.538470
 20
51.257030
 30
0.0
 10
-50.632310
 20
51.257030
 30
0.0
  0
LWPOLYLINE
  5
197
100
AcDbEntity
  8
Ebene_1
 62
7
100
AcDbPolyline
 90
3
 70
0
 10
-66.787504
 20
43.179440
 30
0.0
 10
-66.787504
 20
55.295830
 30
0.0
 10
-46.593520
 20
55.295830
 30
0.0
  0
SPLINE
  5
198
100
AcDbEntity
  8
Ebene_1
 62
7
100
AcDbSpline
 70
8
 71
3
 72
8
 73
4
 74
0
 40
0
 40
0
 40
0
 40
0
 40
1
 40
1
 40
1
 40
1
 10
-62.748710
 20
45.198840
 30
0.0
 10
-62.748710
 20
44.630880
 30
0.0
 10
-62.559390
 20
44.147063
 30
0.0
 10
-62.180750
 20
43.747390
 30
0.0
  0
SPLINE
  5
199
100
AcDbEntity
  8
Ebene_1
 62
7
100
AcDbSpline
 70
8
 71
3
 72
8
 73
4
 74
0
 40
0
 40
0
 40
0
 40
0
 40
1
 40
1
 40
1
 40
1
 10
-62.180750
 20
43.747390
 30
0.0
 10
-61.781077
 20
43.368757
 30
0.0
 10
-61.297263
 20
43.179440
 30
0.0
 10
-60.729310
 20
43.179440
 30
0.0
  0
LWPOLYLINE
  5
19a
100
AcDbEntity
  8
Ebene_1
 62
7
100
AcDbPolyline
 90
3
 70
0
 10
-50.632310
 20
51.257030
 30
0.0
 10
-62.748710
 20
51.257030
 30
0.0
 10
-62.748710
 20
45.198840
 30
0.0
  0
SPLINE
  5
19b
100
AcDbEntity
  8
Ebene_1
 62
7
100
AcDbSpline
 70
8
 71
3
 72
8
 73
4
 74
0
 40
0
 40
0
 40
0
 40
0
 40
1
 40
1
 40
1
 40
1
 10
-46.593520
 20
43.179440
 30
0.0
 10
-46.593520
 20
42.043527
 30
0.0
 10
-46.993193
 20
41.086413
 30
0.0
 10
-47.792540
 20
40.308100
 30
0.0
  0
SPLINE
  5
19c
100
AcDbEntity
  8
Ebene_1
 62
7
100
AcDbSpline
 70
8
 71
3
 72
8
 73
4
 74
0
 40
0
 40
0
 40
0
 40
0
 40
1
 40
1
 40
1
 40
1
 10
-47.792540
 20
40.308100
 30
0.0
 10
-48.591880
 20
39.529793
 30
0.0
 10
-49.538470
 20
39.140640
 30
0.0
 10
-50.632310
 20
39.140640
 30
0.0
  0
LWPOLYLINE
  5
19d
100
AcDbEntity
  8
Ebene_1
 62
7
100
AcDbPolyline
 90
2
 70
0
 10
-60.729310
 20
43.179440
 30
0.0
 10
-46.593520
 20
43.179440
 30
0.0
  0
SPLINE
  5
19e
100
AcDbEntity
  8
Ebene_1
 62
7
100
AcDbSpline
 70
8
 71
3
 72
8
 73
4
 74
0
 40
0
 40
0
 40
0
 40
0
 40
1
 40
1
 40
1
 40
1
 10
-69.808974
 20
251.601077
 30
0.0
 10
-70.821484
 20
252.282937
 30
0.0
 10
-72.082884
 20
253.878037
 30
0.0
 10
-72.082884
 20
254.476537
 30
0.0
  0
SPLINE
  5
19f
100
AcDbEntity
  8
Ebene_1
 62
7
100
AcDbSpline
 70
8
 71
3
 72
8
 73
4
 74
0
 40
0
 40
0
 40
0
 40
0
 40
1
 40
1
 40
1
 40
1
 10
-72.082884
 20
254.476537
 30
0.0
 10
-72.082884
 20
254.691577
 30
0.0
 10
-69.992094
 20
254.742057
 30
0.0
 10
-61.088754
 20
254.742057
 30
0.0
  0
SPLINE
  5
1a0
100
AcDbEntity
  8
Ebene_1
 62
7
100
AcDbSpline
 70
8
 71
3
 72
8
 73
4
 74
0
 40
0
 40
0
 40
0
 40
0
 40
1
 40
1
 40
1
 40
1
 10
-61.088754
 20
254.742057
 30
0.0
 10
-53.614294
 20
254.742057
 30
0.0
 10
-50.094684
 20
254.674257
 30
0.0
 10
-50.094684
 20
254.530377
 30
0.0
  0
SPLINE
  5
1a1
100
AcDbEntity
  8
Ebene_1
 62
7
100
AcDbSpline
 70
8
 71
3
 72
8
 73
4
 74
0
 40
0
 40
0
 40
0
 40
0
 40
1
 40
1
 40
1
 40
1
 10
-50.094684
 20
254.530377
 30
0.0
 10
-50.094684
 20
254.112517
 30
0.0
 10
-50.882904
 20
252.797557
 30
0.0
 10
-51.450294
 20
252.268797
 30
0.0
  0
SPLINE
  5
1a2
100
AcDbEntity
  8
Ebene_1
 62
7
100
AcDbSpline
 70
8
 71
3
 72
8
 73
4
 74
0
 40
0
 40
0
 40
0
 40
0
 40
1
 40
1
 40
1
 40
1
 10
-51.450294
 20
252.268797
 30
0.0
 10
-51.768484
 20
251.972277
 30
0.0
 10
-52.349484
 20
251.537437
 30
0.0
 10
-52.741384
 20
251.302487
 30
0.0
  0
SPLINE
  5
1a3
100
AcDbEntity
  8
Ebene_1
 62
7
100
AcDbSpline
 70
8
 71
3
 72
8
 73
4
 74
0
 40
0
 40
0
 40
0
 40
0
 40
1
 40
1
 40
1
 40
1
 10
-52.741384
 20
251.302487
 30
0.0
 10
-53.431234
 20
250.888897
 30
0.0
 10
-53.697674
 20
250.875277
 30
0.0
 10
-61.091474
 20
250.874537
 30
0.0
  0
LWPOLYLINE
  5
1a4
100
AcDbEntity
  8
Ebene_1
 62
7
100
AcDbPolyline
 90
2
 70
0
 10
-50.632310
 20
39.140640
 30
0.0
 10
-62.748710
 20
39.140640
 30
0.0
  0
SPLINE
  5
1a5
100
AcDbEntity
  8
Ebene_1
 62
7
100
AcDbSpline
 70
8
 71
3
 72
8
 73
4
 74
0
 40
0
 40
0
 40
0
 40
0
 40
1
 40
1
 40
1
 40
1
 10
-164.924220
 20
251.588077
 30
0.0
 10
-166.235790
 20
252.470707
 30
0.0
 10
-167.337750
 20
253.783707
 30
0.0
 10
-167.357700
 20
254.487647
 30
0.0
  0
SPLINE
  5
1a6
100
AcDbEntity
  8
Ebene_1
 62
7
100
AcDbSpline
 70
8
 71
3
 72
8
 73
4
 74
0
 40
0
 40
0
 40
0
 40
0
 40
1
 40
1
 40
1
 40
1
 10
-167.357700
 20
254.487647
 30
0.0
 10
-167.362700
 20
254.688197
 30
0.0
 10
-165.031480
 20
254.742147
 30
0.0
 10
-156.357090
 20
254.742147
 30
0.0
  0
LWPOLYLINE
  5
1a7
100
AcDbEntity
  8
Ebene_1
 62
7
100
AcDbPolyline
 90
4
 70
0
 10
-61.091474
 20
250.874537
 30
0.0
 10
-68.729004
 20
250.874537
 30
0.0
 10
-69.808974
 20
251.601817
 30
0.0
 10
-69.808974
 20
251.601077
 30
0.0
  0
SPLINE
  5
1a8
100
AcDbEntity
  8
Ebene_1
 62
7
100
AcDbSpline
 70
8
 71
3
 72
8
 73
4
 74
0
 40
0
 40
0
 40
0
 40
0
 40
1
 40
1
 40
1
 40
1
 10
-145.485180
 20
254.284067
 30
0.0
 10
-145.745370
 20
253.406977
 30
0.0
 10
-146.694750
 20
252.244877
 30
0.0
 10
-147.709350
 20
251.561617
 30
0.0
  0
LWPOLYLINE
  5
1a9
100
AcDbEntity
  8
Ebene_1
 62
7
100
AcDbPolyline
 90
3
 70
0
 10
-156.357090
 20
254.742147
 30
0.0
 10
-145.349320
 20
254.742147
 30
0.0
 10
-145.485180
 20
254.284067
 30
0.0
  0
SPLINE
  5
1aa
100
AcDbEntity
  8
Ebene_1
 62
7
100
AcDbSpline
 70
8
 71
3
 72
8
 73
4
 74
0
 40
0
 40
0
 40
0
 40
0
 40
1
 40
1
 40
1
 40
1
 10
-164.209210
 20
243.074694
 30
0.0
 10
-165.318160
 20
243.670802
 30
0.0
 10
-166.122260
 20
244.384894
 30
0.0
 10
-166.747700
 20
245.329184
 30
0.0
  0
SPLINE
  5
1ab
100
AcDbEntity
  8
Ebene_1
 62
7
100
AcDbSpline
 70
8
 71
3
 72
8
 73
4
 74
0
 40
0
 40
0
 40
0
 40
0
 40
1
 40
1
 40
1
 40
1
 10
-166.747700
 20
245.329184
 30
0.0
 10
-167.952540
 20
247.148113
 30
0.0
 10
-168.835000
 20
247.005563
 30
0.0
 10
-156.370830
 20
247.005563
 30
0.0
  0
SPLINE
  5
1ac
100
AcDbEntity
  8
Ebene_1
 62
7
100
AcDbSpline
 70
8
 71
3
 72
8
 73
4
 74
0
 40
0
 40
0
 40
0
 40
0
 40
1
 40
1
 40
1
 40
1
 10
-156.370830
 20
247.005563
 30
0.0
 10
-148.830410
 20
247.005563
 30
0.0
 10
-145.376750
 20
246.938563
 30
0.0
 10
-145.376750
 20
246.791843
 30
0.0
  0
SPLINE
  5
1ad
100
AcDbEntity
  8
Ebene_1
 62
7
100
AcDbSpline
 70
8
 71
3
 72
8
 73
4
 74
0
 40
0
 40
0
 40
0
 40
0
 40
1
 40
1
 40
1
 40
1
 10
-145.376750
 20
246.791843
 30
0.0
 10
-145.376750
 20
245.979863
 30
0.0
 10
-146.820720
 20
244.059893
 30
0.0
 10
-147.988240
 20
243.319454
 30
0.0
  0
LWPOLYLINE
  5
1ae
100
AcDbEntity
  8
Ebene_1
 62
7
100
AcDbPolyline
 90
5
 70
0
 10
-147.709350
 20
251.561617
 30
0.0
 10
-148.730610
 20
250.873857
 30
0.0
 10
-156.296770
 20
250.873857
 30
0.0
 10
-163.862930
 20
250.873857
 30
0.0
 10
-164.924220
 20
251.588077
 30
0.0
  0
SPLINE
  5
1af
100
AcDbEntity
  8
Ebene_1
 62
7
100
AcDbSpline
 70
8
 71
3
 72
8
 73
4
 74
0
 40
0
 40
0
 40
0
 40
0
 40
1
 40
1
 40
1
 40
1
 10
-156.257980
 20
242.738092
 30
0.0
 10
-162.611840
 20
242.746092
 30
0.0
 10
-163.680520
 20
242.790392
 30
0.0
 10
-164.209210
 20
243.074552
 30
0.0
  0
LWPOLYLINE
  5
1b0
100
AcDbEntity
  8
Ebene_1
 62
7
100
AcDbPolyline
 90
3
 70
0
 10
-147.988240
 20
243.319454
 30
0.0
 10
-148.917570
 20
242.730092
 30
0.0
 10
-156.257980
 20
242.738092
 30
0.0
  0
LWPOLYLINE
  5
1b1
100
AcDbEntity
  8
Ebene_1
 62
7
100
AcDbPolyline
 90
2
 70
0
 10
-164.209210
 20
243.074552
 30
0.0
 10
-164.209210
 20
243.074694
 30
0.0
  0
LWPOLYLINE
  5
1b2
100
AcDbEntity
  8
Ebene_1
 62
7
100
AcDbPolyline
 90
16
 70
1
 10
-71.472094
 20
240.695994
 30
0.0
 10
-71.472094
 20
247.009272
 30
0.0
 10
-61.037844
 20
246.956472
 30
0.0
 10
-50.603684
 20
246.903672
 30
0.0
 10
-50.549684
 20
240.643154
 30
0.0
 10
-50.495684
 20
234.382634
 30
0.0
 10
-52.330964
 20
234.382634
 30
0.0
 10
-54.166274
 20
234.382634
 30
0.0
 10
-54.166274
 20
238.556322
 30
0.0
 10
-54.166274
 20
242.730002
 30
0.0
 10
-60.986644
 20
242.730002
 30
0.0
 10
-67.807074
 20
242.730002
 30
0.0
 10
-67.807074
 20
238.556322
 30
0.0
 10
-67.807074
 20
234.382652
 30
0.0
 10
-69.639394
 20
234.382652
 30
0.0
 10
-71.471764
 20
234.382652
 30
0.0
  0
SPLINE
  5
1b3
100
AcDbEntity
  8
Ebene_1
 62
7
100
AcDbSpline
 70
8
 71
3
 72
8
 73
4
 74
0
 40
0
 40
0
 40
0
 40
0
 40
1
 40
1
 40
1
 40
1
 10
-82.679584
 20
237.809571
 30
0.0
 10
-82.972604
 20
236.787941
 30
0.0
 10
-83.801684
 20
235.685520
 30
0.0
 10
-84.786694
 20
235.007811
 30
0.0
  0
LWPOLYLINE
  5
1b4
100
AcDbEntity
  8
Ebene_1
 62
7
100
AcDbPolyline
 90
9
 70
0
 10
-102.621960
 20
244.664222
 30
0.0
 10
-102.621960
 20
254.945747
 30
0.0
 10
-100.789650
 20
254.945747
 30
0.0
 10
-98.957270
 20
254.945747
 30
0.0
 10
-98.957270
 20
246.700162
 30
0.0
 10
-98.957270
 20
238.454612
 30
0.0
 10
-90.725950
 20
238.454612
 30
0.0
 10
-82.494584
 20
238.454612
 30
0.0
 10
-82.679584
 20
237.809571
 30
0.0
  0
SPLINE
  5
1b5
100
AcDbEntity
  8
Ebene_1
 62
7
100
AcDbSpline
 70
8
 71
3
 72
8
 73
4
 74
0
 40
0
 40
0
 40
0
 40
0
 40
1
 40
1
 40
1
 40
1
 10
-164.209210
 20
234.786241
 30
0.0
 10
-165.422410
 20
235.386912
 30
0.0
 10
-166.512070
 20
236.359433
 30
0.0
 10
-166.963630
 20
237.244623
 30
0.0
  0
SPLINE
  5
1b6
100
AcDbEntity
  8
Ebene_1
 62
7
100
AcDbSpline
 70
8
 71
3
 72
8
 73
4
 74
0
 40
0
 40
0
 40
0
 40
0
 40
1
 40
1
 40
1
 40
1
 10
-166.963630
 20
237.244623
 30
0.0
 10
-167.184350
 20
237.677232
 30
0.0
 10
-167.364900
 20
238.126471
 30
0.0
 10
-167.364900
 20
238.242901
 30
0.0
  0
SPLINE
  5
1b7
100
AcDbEntity
  8
Ebene_1
 62
7
100
AcDbSpline
 70
8
 71
3
 72
8
 73
4
 74
0
 40
0
 40
0
 40
0
 40
0
 40
1
 40
1
 40
1
 40
1
 10
-167.364900
 20
238.242901
 30
0.0
 10
-167.364900
 20
238.386781
 30
0.0
 10
-163.845280
 20
238.454612
 30
0.0
 10
-156.370830
 20
238.454612
 30
0.0
  0
SPLINE
  5
1b8
100
AcDbEntity
  8
Ebene_1
 62
7
100
AcDbSpline
 70
8
 71
3
 72
8
 73
4
 74
0
 40
0
 40
0
 40
0
 40
0
 40
1
 40
1
 40
1
 40
1
 10
-156.370830
 20
238.454612
 30
0.0
 10
-147.467540
 20
238.454612
 30
0.0
 10
-145.376750
 20
238.404312
 30
0.0
 10
-145.376750
 20
238.189082
 30
0.0
  0
SPLINE
  5
1b9
100
AcDbEntity
  8
Ebene_1
 62
7
100
AcDbSpline
 70
8
 71
3
 72
8
 73
4
 74
0
 40
0
 40
0
 40
0
 40
0
 40
1
 40
1
 40
1
 40
1
 10
-145.376750
 20
238.189082
 30
0.0
 10
-145.376750
 20
237.719470
 30
0.0
 10
-146.534230
 20
236.080760
 30
0.0
 10
-147.238570
 20
235.553221
 30
0.0
  0
SPLINE
  5
1ba
100
AcDbEntity
  8
Ebene_1
 62
7
100
AcDbSpline
 70
8
 71
3
 72
8
 73
4
 74
0
 40
0
 40
0
 40
0
 40
0
 40
1
 40
1
 40
1
 40
1
 10
-147.238570
 20
235.553221
 30
0.0
 10
-148.836340
 20
234.356471
 30
0.0
 10
-148.633060
 20
234.382701
 30
0.0
 10
-156.309810
 20
234.382881
 30
0.0
  0
SPLINE
  5
1bb
100
AcDbEntity
  8
Ebene_1
 62
7
100
AcDbSpline
 70
8
 71
3
 72
8
 73
4
 74
0
 40
0
 40
0
 40
0
 40
0
 40
1
 40
1
 40
1
 40
1
 10
-156.309810
 20
234.382881
 30
0.0
 10
-162.961440
 20
234.383032
 30
0.0
 10
-163.444650
 20
234.407671
 30
0.0
 10
-164.209210
 20
234.786241
 30
0.0
  0
LWPOLYLINE
  5
1bc
100
AcDbEntity
  8
Ebene_1
 62
7
100
AcDbPolyline
 90
5
 70
0
 10
-84.786694
 20
235.007811
 30
0.0
 10
-85.695250
 20
234.382701
 30
0.0
 10
-94.158610
 20
234.382701
 30
0.0
 10
-102.621960
 20
234.382701
 30
0.0
 10
-102.621960
 20
244.664222
 30
0.0
  0
SPLINE
  5
1bd
100
AcDbEntity
  8
Ebene_1
 62
7
100
AcDbSpline
 70
8
 71
3
 72
8
 73
4
 74
0
 40
0
 40
0
 40
0
 40
0
 40
1
 40
1
 40
1
 40
1
 10
-134.382650
 20
234.384942
 30
0.0
 10
-134.382650
 20
234.902531
 30
0.0
 10
-133.458830
 20
236.472560
 30
0.0
 10
-132.828730
 20
237.025791
 30
0.0
  0
SPLINE
  5
1be
100
AcDbEntity
  8
Ebene_1
 62
7
100
AcDbSpline
 70
8
 71
3
 72
8
 73
4
 74
0
 40
0
 40
0
 40
0
 40
0
 40
1
 40
1
 40
1
 40
1
 10
-132.828730
 20
237.025791
 30
0.0
 10
-131.192100
 20
238.462791
 30
0.0
 10
-131.243240
 20
238.454612
 30
0.0
 10
-123.905680
 20
238.454612
 30
0.0
  0
LWPOLYLINE
  5
1bf
100
AcDbEntity
  8
Ebene_1
 62
7
100
AcDbPolyline
 90
1
 70
1
 10
-164.209210
 20
234.786241
 30
0.0
  0
SPLINE
  5
1c0
100
AcDbEntity
  8
Ebene_1
 62
7
100
AcDbSpline
 70
8
 71
3
 72
8
 73
4
 74
0
 40
0
 40
0
 40
0
 40
0
 40
1
 40
1
 40
1
 40
1
 10
-123.999370
 20
254.945737
 30
0.0
 10
-118.288530
 20
254.945737
 30
0.0
 10
-113.616040
 20
254.911037
 30
0.0
 10
-113.616040
 20
254.868837
 30
0.0
  0
SPLINE
  5
1c1
100
AcDbEntity
  8
Ebene_1
 62
7
100
AcDbSpline
 70
8
 71
3
 72
8
 73
4
 74
0
 40
0
 40
0
 40
0
 40
0
 40
1
 40
1
 40
1
 40
1
 10
-113.616040
 20
254.868837
 30
0.0
 10
-113.616040
 20
254.826437
 30
0.0
 10
-113.750130
 20
254.471117
 30
0.0
 10
-113.913900
 20
254.079047
 30
0.0
  0
SPLINE
  5
1c2
100
AcDbEntity
  8
Ebene_1
 62
7
100
AcDbSpline
 70
8
 71
3
 72
8
 73
4
 74
0
 40
0
 40
0
 40
0
 40
0
 40
1
 40
1
 40
1
 40
1
 10
-113.913900
 20
254.079047
 30
0.0
 10
-114.296760
 20
253.162747
 30
0.0
 10
-115.121670
 20
252.187217
 30
0.0
 10
-116.133340
 20
251.454337
 30
0.0
  0
LWPOLYLINE
  5
1c3
100
AcDbEntity
  8
Ebene_1
 62
7
100
AcDbPolyline
 90
9
 70
0
 10
-123.905680
 20
238.454612
 30
0.0
 10
-117.280750
 20
238.454612
 30
0.0
 10
-117.280750
 20
240.592332
 30
0.0
 10
-117.280750
 20
242.730091
 30
0.0
 10
-125.831740
 20
242.730091
 30
0.0
 10
-134.382650
 20
242.730091
 30
0.0
 10
-134.382650
 20
248.837892
 30
0.0
 10
-134.382650
 20
254.945737
 30
0.0
 10
-123.999370
 20
254.945737
 30
0.0
  0
SPLINE
  5
1c4
100
AcDbEntity
  8
Ebene_1
 62
7
100
AcDbSpline
 70
8
 71
3
 72
8
 73
4
 74
0
 40
0
 40
0
 40
0
 40
0
 40
1
 40
1
 40
1
 40
1
 10
-123.897560
 20
234.179143
 30
0.0
 10
-130.827240
 20
234.179143
 30
0.0
 10
-134.382650
 20
234.248843
 30
0.0
 10
-134.382650
 20
234.384951
 30
0.0
  0
LWPOLYLINE
  5
1c5
100
AcDbEntity
  8
Ebene_1
 62
7
100
AcDbPolyline
 90
11
 70
0
 10
-116.133340
 20
251.454337
 30
0.0
 10
-116.934680
 20
250.873887
 30
0.0
 10
-123.826330
 20
250.873887
 30
0.0
 10
-130.717960
 20
250.873887
 30
0.0
 10
-130.717960
 20
248.837954
 30
0.0
 10
-130.717960
 20
246.802011
 30
0.0
 10
-122.065210
 20
246.802011
 30
0.0
 10
-113.412470
 20
246.802011
 30
0.0
 10
-113.412470
 20
240.490542
 30
0.0
 10
-113.412470
 20
234.179143
 30
0.0
 10
-123.897560
 20
234.179143
 30
0.0
  0
LWPOLYLINE
  5
1c6
100
AcDbEntity
  8
Ebene_1
 62
7
100
AcDbPolyline
 90
1
 70
1
 10
-134.382650
 20
234.384951
 30
0.0
  0
SPLINE
  5
1c7
100
AcDbEntity
  8
Ebene_1
 62
7
100
AcDbSpline
 70
8
 71
3
 72
8
 73
4
 74
0
 40
0
 40
0
 40
0
 40
0
 40
1
 40
1
 40
1
 40
1
 10
-198.538520
 20
251.652367
 30
0.0
 10
-199.055440
 20
252.024527
 30
0.0
 10
-199.659660
 20
252.574217
 30
0.0
 10
-199.881230
 20
252.873937
 30
0.0
  0
SPLINE
  5
1c8
100
AcDbEntity
  8
Ebene_1
 62
7
100
AcDbSpline
 70
8
 71
3
 72
8
 73
4
 74
0
 40
0
 40
0
 40
0
 40
0
 40
1
 40
1
 40
1
 40
1
 10
-199.881230
 20
252.873937
 30
0.0
 10
-200.299220
 20
253.439287
 30
0.0
 10
-200.957950
 20
254.638427
 30
0.0
 10
-200.957950
 20
254.833897
 30
0.0
  0
SPLINE
  5
1c9
100
AcDbEntity
  8
Ebene_1
 62
7
100
AcDbSpline
 70
8
 71
3
 72
8
 73
4
 74
0
 40
0
 40
0
 40
0
 40
0
 40
1
 40
1
 40
1
 40
1
 10
-200.957950
 20
254.833897
 30
0.0
 10
-200.957950
 20
254.895497
 30
0.0
 10
-195.506760
 20
254.945837
 30
0.0
 10
-188.844110
 20
254.945837
 30
0.0
  0
SPLINE
  5
1ca
100
AcDbEntity
  8
Ebene_1
 62
7
100
AcDbSpline
 70
8
 71
3
 72
8
 73
4
 74
0
 40
0
 40
0
 40
0
 40
0
 40
1
 40
1
 40
1
 40
1
 10
-188.844110
 20
254.945837
 30
0.0
 10
-180.594570
 20
254.945837
 30
0.0
 10
-176.730260
 20
254.878337
 30
0.0
 10
-176.730260
 20
254.734117
 30
0.0
  0
SPLINE
  5
1cb
100
AcDbEntity
  8
Ebene_1
 62
7
100
AcDbSpline
 70
8
 71
3
 72
8
 73
4
 74
0
 40
0
 40
0
 40
0
 40
0
 40
1
 40
1
 40
1
 40
1
 10
-176.730260
 20
254.734117
 30
0.0
 10
-176.730260
 20
254.263567
 30
0.0
 10
-177.556270
 20
252.968937
 30
0.0
 10
-178.290880
 20
252.288107
 30
0.0
  0
SPLINE
  5
1cc
100
AcDbEntity
  8
Ebene_1
 62
7
100
AcDbSpline
 70
8
 71
3
 72
8
 73
4
 74
0
 40
0
 40
0
 40
0
 40
0
 40
1
 40
1
 40
1
 40
1
 10
-178.290880
 20
252.288107
 30
0.0
 10
-179.748790
 20
250.936947
 30
0.0
 10
-179.583350
 20
250.983397
 30
0.0
 10
-183.326640
 20
250.873947
 30
0.0
  0
LWPOLYLINE
  5
1cd
100
AcDbEntity
  8
Ebene_1
 62
7
100
AcDbPolyline
 90
5
 70
0
 10
-190.826850
 20
242.475581
 30
0.0
 10
-190.880050
 20
250.772067
 30
0.0
 10
-194.239380
 20
250.873907
 30
0.0
 10
-197.598670
 20
250.975737
 30
0.0
 10
-198.538520
 20
251.652367
 30
0.0
  0
LWPOLYLINE
  5
1ce
100
AcDbEntity
  8
Ebene_1
 62
7
100
AcDbPolyline
 90
7
 70
0
 10
-183.326640
 20
250.873947
 30
0.0
 10
-186.808160
 20
250.772117
 30
0.0
 10
-186.861460
 20
242.475620
 30
0.0
 10
-186.914660
 20
234.179171
 30
0.0
 10
-188.844240
 20
234.179171
 30
0.0
 10
-190.773820
 20
234.179171
 30
0.0
 10
-190.826850
 20
242.475581
 30
0.0
  0
SPLINE
  5
1cf
100
AcDbEntity
  8
Ebene_1
 62
7
100
AcDbSpline
 70
8
 71
3
 72
8
 73
4
 74
0
 40
0
 40
0
 40
0
 40
0
 40
1
 40
1
 40
1
 40
1
 10
-188.039230
 20
289.708287
 30
0.0
 10
-207.333810
 20
289.708287
 30
0.0
 10
-222.974470
 20
274.088747
 30
0.0
 10
-222.974470
 20
254.820217
 30
0.0
  0
LWPOLYLINE
  5
1d0
100
AcDbEntity
  8
Ebene_1
 62
7
100
AcDbPolyline
 90
4
 70
1
 10
-234.799990
 20
299.708287
 30
0.0
 10
-15.199984
 20
299.708287
 30
0.0
 10
-15.199984
 20
0.108310
 30
0.0
 10
-234.799990
 20
0.108310
 30
0.0
  0
SPLINE
  5
1d1
100
AcDbEntity
  8
Ebene_1
 62
7
100
AcDbSpline
 70
8
 71
3
 72
8
 73
4
 74
0
 40
0
 40
0
 40
0
 40
0
 40
1
 40
1
 40
1
 40
1
 10
-222.974470
 20
44.974320
 30
0.0
 10
-222.974470
 20
25.705790
 30
0.0
 10
-207.333810
 20
10.086250
 30
0.0
 10
-188.039230
 20
10.086250
 30
0.0
  0
LWPOLYLINE
  5
1d2
100
AcDbEntity
  8
Ebene_1
 62
7
100
AcDbPolyline
 90
2
 70
0
 10
-222.974470
 20
254.820217
 30
0.0
 10
-222.974470
 20
44.974320
 30
0.0
  0
SPLINE
  5
1d3
100
AcDbEntity
  8
Ebene_1
 62
7
100
AcDbSpline
 70
8
 71
3
 72
8
 73
4
 74
0
 40
0
 40
0
 40
0
 40
0
 40
1
 40
1
 40
1
 40
1
 10
-61.960734
 20
10.086250
 30
0.0
 10
-42.666154
 20
10.086250
 30
0.0
 10
-27.025514
 20
25.705790
 30
0.0
 10
-27.025514
 20
44.974320
 30
0.0
  0
LWPOLYLINE
  5
1d4
100
AcDbEntity
  8
Ebene_1
 62
7
100
AcDbPolyline
 90
2
 70
0
 10
-188.039230
 20
10.086250
 30
0.0
 10
-61.960734
 20
10.086250
 30
0.0
  0
SPLINE
  5
1d5
100
AcDbEntity
  8
Ebene_1
 62
7
100
AcDbSpline
 70
8
 71
3
 72
8
 73
4
 74
0
 40
0
 40
0
 40
0
 40
0
 40
1
 40
1
 40
1
 40
1
 10
-27.025514
 20
254.820217
 30
0.0
 10
-27.025514
 20
274.088747
 30
0.0
 10
-42.666154
 20
289.708287
 30
0.0
 10
-61.960734
 20
289.708287
 30
0.0
  0
LWPOLYLINE
  5
1d6
100
AcDbEntity
  8
Ebene_1
 62
7
100
AcDbPolyline
 90
2
 70
0
 10
-27.025514
 20
44.974320
 30
0.0
 10
-27.025514
 20
254.820217
 30
0.0
  0
LWPOLYLINE
  5
1d7
100
AcDbEntity
  8
Ebene_1
 62
7
100
AcDbPolyline
 90
2
 70
0
 10
-61.960734
 20
289.708287
 30
0.0
 10
-188.039230
 20
289.708287
 30
0.0
  0
SPLINE
  5
1d8
100
AcDbEntity
  8
Ebene_1
 62
7
100
AcDbSpline
 70
8
 71
3
 72
8
 73
4
 74
0
 40
0
 40
0
 40
0
 40
0
 40
1
 40
1
 40
1
 40
1
 10
-61.960734
 20
282.888237
 30
0.0
 10
-46.331454
 20
282.888237
 30
0.0
 10
-33.854764
 20
270.428387
 30
0.0
 10
-33.854764
 20
254.820217
 30
0.0
  0
LWPOLYLINE
  5
1d9
100
AcDbEntity
  8
Ebene_1
 62
7
100
AcDbPolyline
 90
2
 70
0
 10
-188.039230
 20
282.888237
 30
0.0
 10
-61.960734
 20
282.888237
 30
0.0
  0
SPLINE
  5
1da
100
AcDbEntity
  8
Ebene_1
 62
7
100
AcDbSpline
 70
8
 71
3
 72
8
 73
4
 74
0
 40
0
 40
0
 40
0
 40
0
 40
1
 40
1
 40
1
 40
1
 10
-33.854764
 20
44.974320
 30
0.0
 10
-33.854764
 20
29.366140
 30
0.0
 10
-46.331454
 20
16.906310
 30
0.0
 10
-61.960734
 20
16.906310
 30
0.0
  0
LWPOLYLINE
  5
1db
100
AcDbEntity
  8
Ebene_1
 62
7
100
AcDbPolyline
 90
2
 70
0
 10
-33.854764
 20
254.820217
 30
0.0
 10
-33.854764
 20
44.974320
 30
0.0
  0
SPLINE
  5
1dc
100
AcDbEntity
  8
Ebene_1
 62
7
100
AcDbSpline
 70
8
 71
3
 72
8
 73
4
 74
0
 40
0
 40
0
 40
0
 40
0
 40
1
 40
1
 40
1
 40
1
 10
-188.039230
 20
16.906310
 30
0.0
 10
-203.668540
 20
16.906310
 30
0.0
 10
-216.145170
 20
29.366140
 30
0.0
 10
-216.145170
 20
44.974320
 30
0.0
  0
LWPOLYLINE
  5
1dd
100
AcDbEntity
  8
Ebene_1
 62
7
100
AcDbPolyline
 90
2
 70
0
 10
-61.960734
 20
16.906310
 30
0.0
 10
-188.039230
 20
16.906310
 30
0.0
  0
SPLINE
  5
1de
100
AcDbEntity
  8
Ebene_1
 62
7
100
AcDbSpline
 70
8
 71
3
 72
8
 73
4
 74
0
 40
0
 40
0
 40
0
 40
0
 40
1
 40
1
 40
1
 40
1
 10
-216.145170
 20
254.820217
 30
0.0
 10
-216.145170
 20
270.428387
 30
0.0
 10
-203.668540
 20
282.888237
 30
0.0
 10
-188.039230
 20
282.888237
 30
0.0
  0
LWPOLYLINE
  5
1df
100
AcDbEntity
  8
Ebene_1
 62
7
100
AcDbPolyline
 90
2
 70
0
 10
-216.145170
 20
44.974320
 30
0.0
 10
-216.145170
 20
254.820217
 30
0.0
  0
SPLINE
  5
1e0
100
AcDbEntity
  8
Ebene_1
 62
7
100
AcDbSpline
 70
8
 71
3
 72
8
 73
4
 74
0
 40
0
 40
0
 40
0
 40
0
 40
1
 40
1
 40
1
 40
1
 10
-199.913680
 20
31.916620
 30
0.0
 10
-199.913686
 20
30.535916
 30
0.0
 10
-201.032966
 20
29.416636
 30
0.0
 10
-202.413670
 20
29.416630
 30
0.0
  0
SPLINE
  5
1e1
100
AcDbEntity
  8
Ebene_1
 62
7
100
AcDbSpline
 70
8
 71
3
 72
8
 73
4
 74
0
 40
0
 40
0
 40
0
 40
0
 40
1
 40
1
 40
1
 40
1
 10
-202.413670
 20
29.416630
 30
0.0
 10
-203.794378
 20
29.416630
 30
0.0
 10
-204.913664
 20
30.535912
 30
0.0
 10
-204.913670
 20
31.916620
 30
0.0
  0
SPLINE
  5
1e2
100
AcDbEntity
  8
Ebene_1
 62
7
100
AcDbSpline
 70
8
 71
3
 72
8
 73
4
 74
0
 40
0
 40
0
 40
0
 40
0
 40
1
 40
1
 40
1
 40
1
 10
-204.913670
 20
31.916620
 30
0.0
 10
-204.913670
 20
32.579661
 30
0.0
 10
-204.650278
 20
33.215546
 30
0.0
 10
-204.181437
 20
33.684387
 30
0.0
  0
SPLINE
  5
1e3
100
AcDbEntity
  8
Ebene_1
 62
7
100
AcDbSpline
 70
8
 71
3
 72
8
 73
4
 74
0
 40
0
 40
0
 40
0
 40
0
 40
1
 40
1
 40
1
 40
1
 10
-204.181437
 20
33.684387
 30
0.0
 10
-203.712596
 20
34.153228
 30
0.0
 10
-203.076711
 20
34.416620
 30
0.0
 10
-202.413670
 20
34.416620
 30
0.0
  0
SPLINE
  5
1e4
100
AcDbEntity
  8
Ebene_1
 62
7
100
AcDbSpline
 70
8
 71
3
 72
8
 73
4
 74
0
 40
0
 40
0
 40
0
 40
0
 40
1
 40
1
 40
1
 40
1
 10
-202.413670
 20
34.416620
 30
0.0
 10
-201.032962
 20
34.416614
 30
0.0
 10
-199.913680
 20
33.297328
 30
0.0
 10
-199.913680
 20
31.916620
 30
0.0
  0
LWPOLYLINE
  5
1e5
100
AcDbEntity
  8
Ebene_1
 62
7
100
AcDbPolyline
 90
1
 70
1
 10
-188.039230
 20
282.888237
 30
0.0
  0
SPLINE
  5
1e6
100
AcDbEntity
  8
Ebene_1
 62
7
100
AcDbSpline
 70
8
 71
3
 72
8
 73
4
 74
0
 40
0
 40
0
 40
0
 40
0
 40
1
 40
1
 40
1
 40
1
 10
-44.999974
 20
32.208300
 30
0.0
 10
-44.999969
 20
31.545250
 30
0.0
 10
-45.263363
 20
30.909356
 30
0.0
 10
-45.732211
 20
30.440510
 30
0.0
  0
SPLINE
  5
1e7
100
AcDbEntity
  8
Ebene_1
 62
7
100
AcDbSpline
 70
8
 71
3
 72
8
 73
4
 74
0
 40
0
 40
0
 40
0
 40
0
 40
1
 40
1
 40
1
 40
1
 10
-45.732211
 20
30.440510
 30
0.0
 10
-46.201059
 20
29.971663
 30
0.0
 10
-46.836954
 20
29.708272
 30
0.0
 10
-47.500004
 20
29.708280
 30
0.0
  0
SPLINE
  5
1e8
100
AcDbEntity
  8
Ebene_1
 62
7
100
AcDbSpline
 70
8
 71
3
 72
8
 73
4
 74
0
 40
0
 40
0
 40
0
 40
0
 40
1
 40
1
 40
1
 40
1
 10
-47.500004
 20
29.708280
 30
0.0
 10
-48.163047
 20
29.708283
 30
0.0
 10
-48.798932
 20
29.971679
 30
0.0
 10
-49.267772
 20
30.440524
 30
0.0
  0
SPLINE
  5
1e9
100
AcDbEntity
  8
Ebene_1
 62
7
100
AcDbSpline
 70
8
 71
3
 72
8
 73
4
 74
0
 40
0
 40
0
 40
0
 40
0
 40
1
 40
1
 40
1
 40
1
 10
-49.267772
 20
30.440524
 30
0.0
 10
-49.736611
 20
30.909369
 30
0.0
 10
-49.999999
 20
31.545257
 30
0.0
 10
-49.999994
 20
32.208300
 30
0.0
  0
SPLINE
  5
1ea
100
AcDbEntity
  8
Ebene_1
 62
7
100
AcDbSpline
 70
8
 71
3
 72
8
 73
4
 74
0
 40
0
 40
0
 40
0
 40
0
 40
1
 40
1
 40
1
 40
1
 10
-49.999994
 20
32.208300
 30
0.0
 10
-49.999988
 20
33.589004
 30
0.0
 10
-48.880708
 20
34.708284
 30
0.0
 10
-47.500004
 20
34.708290
 30
0.0
  0
SPLINE
  5
1eb
100
AcDbEntity
  8
Ebene_1
 62
7
100
AcDbSpline
 70
8
 71
3
 72
8
 73
4
 74
0
 40
0
 40
0
 40
0
 40
0
 40
1
 40
1
 40
1
 40
1
 10
-47.500004
 20
34.708290
 30
0.0
 10
-46.836959
 20
34.708298
 30
0.0
 10
-46.201068
 20
34.444911
 30
0.0
 10
-45.732221
 20
33.976071
 30
0.0
  0
SPLINE
  5
1ec
100
AcDbEntity
  8
Ebene_1
 62
7
100
AcDbSpline
 70
8
 71
3
 72
8
 73
4
 74
0
 40
0
 40
0
 40
0
 40
0
 40
1
 40
1
 40
1
 40
1
 10
-45.732221
 20
33.976071
 30
0.0
 10
-45.263374
 20
33.507231
 30
0.0
 10
-44.999977
 20
32.871345
 30
0.0
 10
-44.999974
 20
32.208300
 30
0.0
  0
LWPOLYLINE
  5
1ed
100
AcDbEntity
  8
Ebene_1
 62
7
100
AcDbPolyline
 90
1
 70
1
 10
-199.913680
 20
31.916620
 30
0.0
  0
SPLINE
  5
1ee
100
AcDbEntity
  8
Ebene_1
 62
7
100
AcDbSpline
 70
8
 71
3
 72
8
 73
4
 74
0
 40
0
 40
0
 40
0
 40
0
 40
1
 40
1
 40
1
 40
1
 10
-44.621984
 20
267.294577
 30
0.0
 10
-44.621989
 20
266.631536
 30
0.0
 10
-44.885386
 20
265.995653
 30
0.0
 10
-45.354231
 20
265.526816
 30
0.0
  0
SPLINE
  5
1ef
100
AcDbEntity
  8
Ebene_1
 62
7
100
AcDbSpline
 70
8
 71
3
 72
8
 73
4
 74
0
 40
0
 40
0
 40
0
 40
0
 40
1
 40
1
 40
1
 40
1
 10
-45.354231
 20
265.526816
 30
0.0
 10
-45.823076
 20
265.057979
 30
0.0
 10
-46.458963
 20
264.794592
 30
0.0
 10
-47.122004
 20
264.794597
 30
0.0
  0
SPLINE
  5
1f0
100
AcDbEntity
  8
Ebene_1
 62
7
100
AcDbSpline
 70
8
 71
3
 72
8
 73
4
 74
0
 40
0
 40
0
 40
0
 40
0
 40
1
 40
1
 40
1
 40
1
 10
-47.122004
 20
264.794597
 30
0.0
 10
-48.502708
 20
264.794597
 30
0.0
 10
-49.621993
 20
265.913873
 30
0.0
 10
-49.622004
 20
267.294577
 30
0.0
  0
SPLINE
  5
1f1
100
AcDbEntity
  8
Ebene_1
 62
7
100
AcDbSpline
 70
8
 71
3
 72
8
 73
4
 74
0
 40
0
 40
0
 40
0
 40
0
 40
1
 40
1
 40
1
 40
1
 10
-49.622004
 20
267.294577
 30
0.0
 10
-49.622009
 20
267.957622
 30
0.0
 10
-49.358620
 20
268.593512
 30
0.0
 10
-48.889778
 20
269.062357
 30
0.0
  0
SPLINE
  5
1f2
100
AcDbEntity
  8
Ebene_1
 62
7
100
AcDbSpline
 70
8
 71
3
 72
8
 73
4
 74
0
 40
0
 40
0
 40
0
 40
0
 40
1
 40
1
 40
1
 40
1
 10
-48.889778
 20
269.062357
 30
0.0
 10
-48.420937
 20
269.531202
 30
0.0
 10
-47.785049
 20
269.794597
 30
0.0
 10
-47.122004
 20
269.794597
 30
0.0
  0
SPLINE
  5
1f3
100
AcDbEntity
  8
Ebene_1
 62
7
100
AcDbSpline
 70
8
 71
3
 72
8
 73
4
 74
0
 40
0
 40
0
 40
0
 40
0
 40
1
 40
1
 40
1
 40
1
 10
-47.122004
 20
269.794597
 30
0.0
 10
-46.458956
 20
269.794602
 30
0.0
 10
-45.823063
 20
269.531210
 30
0.0
 10
-45.354217
 20
269.062364
 30
0.0
  0
SPLINE
  5
1f4
100
AcDbEntity
  8
Ebene_1
 62
7
100
AcDbSpline
 70
8
 71
3
 72
8
 73
4
 74
0
 40
0
 40
0
 40
0
 40
0
 40
1
 40
1
 40
1
 40
1
 10
-45.354217
 20
269.062364
 30
0.0
 10
-44.885371
 20
268.593518
 30
0.0
 10
-44.621979
 20
267.957625
 30
0.0
 10
-44.621984
 20
267.294577
 30
0.0
  0
LWPOLYLINE
  5
1f5
100
AcDbEntity
  8
Ebene_1
 62
7
100
AcDbPolyline
 90
1
 70
1
 10
-44.999974
 20
32.208300
 30
0.0
  0
SPLINE
  5
1f6
100
AcDbEntity
  8
Ebene_1
 62
7
100
AcDbSpline
 70
8
 71
3
 72
8
 73
4
 74
0
 40
0
 40
0
 40
0
 40
0
 40
1
 40
1
 40
1
 40
1
 10
-199.622000
 20
267.294577
 30
0.0
 10
-199.622011
 20
265.913877
 30
0.0
 10
-200.741290
 20
264.794603
 30
0.0
 10
-202.121990
 20
264.794597
 30
0.0
  0
SPLINE
  5
1f7
100
AcDbEntity
  8
Ebene_1
 62
7
100
AcDbSpline
 70
8
 71
3
 72
8
 73
4
 74
0
 40
0
 40
0
 40
0
 40
0
 40
1
 40
1
 40
1
 40
1
 10
-202.121990
 20
264.794597
 30
0.0
 10
-202.785033
 20
264.794589
 30
0.0
 10
-203.420922
 20
265.057975
 30
0.0
 10
-203.889769
 20
265.526812
 30
0.0
  0
SPLINE
  5
1f8
100
AcDbEntity
  8
Ebene_1
 62
7
100
AcDbSpline
 70
8
 71
3
 72
8
 73
4
 74
0
 40
0
 40
0
 40
0
 40
0
 40
1
 40
1
 40
1
 40
1
 10
-203.889769
 20
265.526812
 30
0.0
 10
-204.358616
 20
265.995650
 30
0.0
 10
-204.622015
 20
266.631534
 30
0.0
 10
-204.622020
 20
267.294577
 30
0.0
  0
SPLINE
  5
1f9
100
AcDbEntity
  8
Ebene_1
 62
7
100
AcDbSpline
 70
8
 71
3
 72
8
 73
4
 74
0
 40
0
 40
0
 40
0
 40
0
 40
1
 40
1
 40
1
 40
1
 10
-204.622020
 20
267.294577
 30
0.0
 10
-204.622025
 20
267.957627
 30
0.0
 10
-204.358631
 20
268.593521
 30
0.0
 10
-203.889783
 20
269.062367
 30
0.0
  0
SPLINE
  5
1fa
100
AcDbEntity
  8
Ebene_1
 62
7
100
AcDbSpline
 70
8
 71
3
 72
8
 73
4
 74
0
 40
0
 40
0
 40
0
 40
0
 40
1
 40
1
 40
1
 40
1
 10
-203.889783
 20
269.062367
 30
0.0
 10
-203.420935
 20
269.531214
 30
0.0
 10
-202.785040
 20
269.794605
 30
0.0
 10
-202.121990
 20
269.794597
 30
0.0
  0
SPLINE
  5
1fb
100
AcDbEntity
  8
Ebene_1
 62
7
100
AcDbSpline
 70
8
 71
3
 72
8
 73
4
 74
0
 40
0
 40
0
 40
0
 40
0
 40
1
 40
1
 40
1
 40
1
 10
-202.121990
 20
269.794597
 30
0.0
 10
-201.458947
 20
269.794594
 30
0.0
 10
-200.823062
 20
269.531198
 30
0.0
 10
-200.354222
 20
269.062353
 30
0.0
  0
SPLINE
  5
1fc
100
AcDbEntity
  8
Ebene_1
 62
7
100
AcDbSpline
 70
8
 71
3
 72
8
 73
4
 74
0
 40
0
 40
0
 40
0
 40
0
 40
1
 40
1
 40
1
 40
1
 10
-200.354222
 20
269.062353
 30
0.0
 10
-199.885383
 20
268.593508
 30
0.0
 10
-199.621995
 20
267.957620
 30
0.0
 10
-199.622000
 20
267.294577
 30
0.0
  0
LWPOLYLINE
  5
1fd
100
AcDbEntity
  8
Ebene_1
 62
7
100
AcDbPolyline
 90
1
 70
1
 10
-44.621984
 20
267.294577
 30
0.0
  0
SPLINE
  5
1fe
100
AcDbEntity
  8
Ebene_1
 62
7
100
AcDbSpline
 70
8
 71
3
 72
8
 73
4
 74
0
 40
0
 40
0
 40
0
 40
0
 40
1
 40
1
 40
1
 40
1
 10
-126.590650
 20
93.592080
 30
0.0
 10
-126.800280
 20
94.697710
 30
0.0
 10
-144.839520
 20
195.409800
 30
0.0
 10
-144.839520
 20
195.474560
 30
0.0
  0
SPLINE
  5
1ff
100
AcDbEntity
  8
Ebene_1
 62
7
100
AcDbSpline
 70
8
 71
3
 72
8
 73
4
 74
0
 40
0
 40
0
 40
0
 40
0
 40
1
 40
1
 40
1
 40
1
 10
-144.839520
 20
195.474560
 30
0.0
 10
-144.839520
 20
195.566660
 30
0.0
 10
-150.167510
 20
195.431960
 30
0.0
 10
-152.845600
 20
195.272140
 30
0.0
  0
SPLINE
  5
200
100
AcDbEntity
  8
Ebene_1
 62
7
100
AcDbSpline
 70
8
 71
3
 72
8
 73
4
 74
0
 40
0
 40
0
 40
0
 40
0
 40
1
 40
1
 40
1
 40
1
 10
-152.845600
 20
195.272140
 30
0.0
 10
-160.815560
 20
194.796860
 30
0.0
 10
-164.914720
 20
193.401200
 30
0.0
 10
-166.895980
 20
190.488340
 30
0.0
  0
SPLINE
  5
201
100
AcDbEntity
  8
Ebene_1
 62
7
100
AcDbSpline
 70
8
 71
3
 72
8
 73
4
 74
0
 40
0
 40
0
 40
0
 40
0
 40
1
 40
1
 40
1
 40
1
 10
-166.895980
 20
190.488340
 30
0.0
 10
-167.626410
 20
189.414380
 30
0.0
 10
-167.931400
 20
188.648640
 30
0.0
 10
-168.250190
 20
187.088140
 30
0.0
  0
SPLINE
  5
202
100
AcDbEntity
  8
Ebene_1
 62
7
100
AcDbSpline
 70
8
 71
3
 72
8
 73
4
 74
0
 40
0
 40
0
 40
0
 40
0
 40
1
 40
1
 40
1
 40
1
 10
-168.250190
 20
187.088140
 30
0.0
 10
-168.379630
 20
186.454110
 30
0.0
 10
-168.509300
 20
185.911720
 30
0.0
 10
-168.538170
 20
185.882850
 30
0.0
  0
SPLINE
  5
203
100
AcDbEntity
  8
Ebene_1
 62
7
100
AcDbSpline
 70
8
 71
3
 72
8
 73
4
 74
0
 40
0
 40
0
 40
0
 40
0
 40
1
 40
1
 40
1
 40
1
 10
-168.538170
 20
185.882850
 30
0.0
 10
-168.635070
 20
185.785950
 30
0.0
 10
-171.947320
 20
187.359580
 30
0.0
 10
-173.606820
 20
188.291250
 30
0.0
  0
SPLINE
  5
204
100
AcDbEntity
  8
Ebene_1
 62
7
100
AcDbSpline
 70
8
 71
3
 72
8
 73
4
 74
0
 40
0
 40
0
 40
0
 40
0
 40
1
 40
1
 40
1
 40
1
 10
-173.606820
 20
188.291250
 30
0.0
 10
-178.570350
 20
191.077870
 30
0.0
 10
-182.467160
 20
194.304300
 30
0.0
 10
-185.118020
 20
197.822312
 30
0.0
  0
SPLINE
  5
205
100
AcDbEntity
  8
Ebene_1
 62
7
100
AcDbSpline
 70
8
 71
3
 72
8
 73
4
 74
0
 40
0
 40
0
 40
0
 40
0
 40
1
 40
1
 40
1
 40
1
 10
-185.118020
 20
197.822312
 30
0.0
 10
-185.507520
 20
198.339152
 30
0.0
 10
-185.826150
 20
198.804302
 30
0.0
 10
-185.826150
 20
198.856022
 30
0.0
  0
SPLINE
  5
206
100
AcDbEntity
  8
Ebene_1
 62
7
100
AcDbSpline
 70
8
 71
3
 72
8
 73
4
 74
0
 40
0
 40
0
 40
0
 40
0
 40
1
 40
1
 40
1
 40
1
 10
-185.826150
 20
198.856022
 30
0.0
 10
-185.826150
 20
198.907922
 30
0.0
 10
-185.624480
 20
199.033492
 30
0.0
 10
-185.378050
 20
199.135472
 30
0.0
  0
SPLINE
  5
207
100
AcDbEntity
  8
Ebene_1
 62
7
100
AcDbSpline
 70
8
 71
3
 72
8
 73
4
 74
0
 40
0
 40
0
 40
0
 40
0
 40
1
 40
1
 40
1
 40
1
 10
-185.378050
 20
199.135472
 30
0.0
 10
-185.131560
 20
199.237602
 30
0.0
 10
-184.069580
 20
199.695202
 30
0.0
 10
-183.017990
 20
200.152661
 30
0.0
  0
SPLINE
  5
208
100
AcDbEntity
  8
Ebene_1
 62
7
100
AcDbSpline
 70
8
 71
3
 72
8
 73
4
 74
0
 40
0
 40
0
 40
0
 40
0
 40
1
 40
1
 40
1
 40
1
 10
-183.017990
 20
200.152661
 30
0.0
 10
-170.969870
 20
205.394112
 30
0.0
 10
-155.309130
 20
209.057811
 30
0.0
 10
-141.254650
 20
209.922800
 30
0.0
  0
LWPOLYLINE
  5
209
100
AcDbEntity
  8
Ebene_1
 62
7
100
AcDbPolyline
 90
1
 70
1
 10
-199.622000
 20
267.294577
 30
0.0
  0
SPLINE
  5
20a
100
AcDbEntity
  8
Ebene_1
 62
7
100
AcDbSpline
 70
8
 71
3
 72
8
 73
4
 74
0
 40
0
 40
0
 40
0
 40
0
 40
1
 40
1
 40
1
 40
1
 10
-133.265340
 20
201.793612
 30
0.0
 10
-129.561310
 20
197.280152
 30
0.0
 10
-126.489790
 20
193.632520
 30
0.0
 10
-126.439700
 20
193.687760
 30
0.0
  0
SPLINE
  5
20b
100
AcDbEntity
  8
Ebene_1
 62
7
100
AcDbSpline
 70
8
 71
3
 72
8
 73
4
 74
0
 40
0
 40
0
 40
0
 40
0
 40
1
 40
1
 40
1
 40
1
 10
-126.439700
 20
193.687760
 30
0.0
 10
-126.389700
 20
193.742960
 30
0.0
 10
-123.383340
 20
197.401822
 30
0.0
 10
-119.759110
 20
201.818372
 30
0.0
  0
SPLINE
  5
20c
100
AcDbEntity
  8
Ebene_1
 62
7
100
AcDbSpline
 70
8
 71
3
 72
8
 73
4
 74
0
 40
0
 40
0
 40
0
 40
0
 40
1
 40
1
 40
1
 40
1
 10
-119.759110
 20
201.818372
 30
0.0
 10
-116.134870
 20
206.234931
 30
0.0
 10
-113.114230
 20
209.882750
 30
0.0
 10
-113.046570
 20
209.924570
 30
0.0
  0
SPLINE
  5
20d
100
AcDbEntity
  8
Ebene_1
 62
7
100
AcDbSpline
 70
8
 71
3
 72
8
 73
4
 74
0
 40
0
 40
0
 40
0
 40
0
 40
1
 40
1
 40
1
 40
1
 10
-113.046570
 20
209.924570
 30
0.0
 10
-112.905450
 20
210.011770
 30
0.0
 10
-109.891290
 20
209.817480
 30
0.0
 10
-107.258440
 20
209.551261
 30
0.0
  0
SPLINE
  5
20e
100
AcDbEntity
  8
Ebene_1
 62
7
100
AcDbSpline
 70
8
 71
3
 72
8
 73
4
 74
0
 40
0
 40
0
 40
0
 40
0
 40
1
 40
1
 40
1
 40
1
 10
-107.258440
 20
209.551261
 30
0.0
 10
-96.155310
 20
208.428912
 30
0.0
 10
-85.003940
 20
205.859631
 30
0.0
 10
-74.875374
 20
202.090210
 30
0.0
  0
SPLINE
  5
20f
100
AcDbEntity
  8
Ebene_1
 62
7
100
AcDbSpline
 70
8
 71
3
 72
8
 73
4
 74
0
 40
0
 40
0
 40
0
 40
0
 40
1
 40
1
 40
1
 40
1
 10
-74.875374
 20
202.090210
 30
0.0
 10
-72.484974
 20
201.200630
 30
0.0
 10
-68.639914
 20
199.612822
 30
0.0
 10
-67.637094
 20
199.101242
 30
0.0
  0
LWPOLYLINE
  5
210
100
AcDbEntity
  8
Ebene_1
 62
7
100
AcDbPolyline
 90
3
 70
0
 10
-141.254650
 20
209.922800
 30
0.0
 10
-140.000000
 20
210.000000
 30
0.0
 10
-133.265340
 20
201.793612
 30
0.0
  0
SPLINE
  5
211
100
AcDbEntity
  8
Ebene_1
 62
7
100
AcDbSpline
 70
8
 71
3
 72
8
 73
4
 74
0
 40
0
 40
0
 40
0
 40
0
 40
1
 40
1
 40
1
 40
1
 10
-67.772934
 20
198.031392
 30
0.0
 10
-70.121424
 20
194.802490
 30
0.0
 10
-73.803154
 20
191.629420
 30
0.0
 10
-78.362614
 20
188.904700
 30
0.0
  0
SPLINE
  5
212
100
AcDbEntity
  8
Ebene_1
 62
7
100
AcDbSpline
 70
8
 71
3
 72
8
 73
4
 74
0
 40
0
 40
0
 40
0
 40
0
 40
1
 40
1
 40
1
 40
1
 10
-78.362614
 20
188.904700
 30
0.0
 10
-79.616554
 20
188.155340
 30
0.0
 10
-83.767544
 20
186.071910
 30
0.0
 10
-84.333514
 20
185.907840
 30
0.0
  0
SPLINE
  5
213
100
AcDbEntity
  8
Ebene_1
 62
7
100
AcDbSpline
 70
8
 71
3
 72
8
 73
4
 74
0
 40
0
 40
0
 40
0
 40
0
 40
1
 40
1
 40
1
 40
1
 10
-84.333514
 20
185.907840
 30
0.0
 10
-84.567064
 20
185.840040
 30
0.0
 10
-84.598394
 20
185.890940
 30
0.0
 10
-84.676104
 20
186.464940
 30
0.0
  0
SPLINE
  5
214
100
AcDbEntity
  8
Ebene_1
 62
7
100
AcDbSpline
 70
8
 71
3
 72
8
 73
4
 74
0
 40
0
 40
0
 40
0
 40
0
 40
1
 40
1
 40
1
 40
1
 10
-84.676104
 20
186.464940
 30
0.0
 10
-84.723104
 20
186.812340
 30
0.0
 10
-84.893000
 20
187.552230
 30
0.0
 10
-85.053600
 20
188.109090
 30
0.0
  0
SPLINE
  5
215
100
AcDbEntity
  8
Ebene_1
 62
7
100
AcDbSpline
 70
8
 71
3
 72
8
 73
4
 74
0
 40
0
 40
0
 40
0
 40
0
 40
1
 40
1
 40
1
 40
1
 10
-85.053600
 20
188.109090
 30
0.0
 10
-86.318150
 20
192.494300
 30
0.0
 10
-90.054520
 20
194.441570
 30
0.0
 10
-98.595090
 20
195.166310
 30
0.0
  0
SPLINE
  5
216
100
AcDbEntity
  8
Ebene_1
 62
7
100
AcDbSpline
 70
8
 71
3
 72
8
 73
4
 74
0
 40
0
 40
0
 40
0
 40
0
 40
1
 40
1
 40
1
 40
1
 10
-98.595090
 20
195.166310
 30
0.0
 10
-100.454710
 20
195.324110
 30
0.0
 10
-108.188690
 20
195.526650
 30
0.0
 10
-108.285870
 20
195.420050
 30
0.0
  0
SPLINE
  5
217
100
AcDbEntity
  8
Ebene_1
 62
7
100
AcDbSpline
 70
8
 71
3
 72
8
 73
4
 74
0
 40
0
 40
0
 40
0
 40
0
 40
1
 40
1
 40
1
 40
1
 10
-108.285870
 20
195.420050
 30
0.0
 10
-108.335670
 20
195.365450
 30
0.0
 10
-123.265740
 20
111.611880
 30
0.0
 10
-126.416680
 20
93.711530
 30
0.0
  0
LWPOLYLINE
  5
218
100
AcDbEntity
  8
Ebene_1
 62
7
100
AcDbPolyline
 90
3
 70
0
 10
-67.637094
 20
199.101242
 30
0.0
 10
-67.168624
 20
198.862232
 30
0.0
 10
-67.772934
 20
198.031392
 30
0.0
  0
SPLINE
  5
219
100
AcDbEntity
  8
Ebene_1
 62
7
100
AcDbSpline
 70
8
 71
3
 72
8
 73
4
 74
0
 40
0
 40
0
 40
0
 40
0
 40
1
 40
1
 40
1
 40
1
 10
-67.167984
 20
203.374222
 30
0.0
 10
-81.439664
 20
209.393242
 30
0.0
 10
-97.654020
 20
213.223360
 30
0.0
 10
-113.830670
 20
214.396761
 30
0.0
  0
SPLINE
  5
21a
100
AcDbEntity
  8
Ebene_1
 62
7
100
AcDbSpline
 70
8
 71
3
 72
8
 73
4
 74
0
 40
0
 40
0
 40
0
 40
0
 40
1
 40
1
 40
1
 40
1
 10
-113.830670
 20
214.396761
 30
0.0
 10
-119.027850
 20
214.773750
 30
0.0
 10
-129.824990
 20
214.897202
 30
0.0
 10
-135.053290
 20
214.639421
 30
0.0
  0
SPLINE
  5
21b
100
AcDbEntity
  8
Ebene_1
 62
7
100
AcDbSpline
 70
8
 71
3
 72
8
 73
4
 74
0
 40
0
 40
0
 40
0
 40
0
 40
1
 40
1
 40
1
 40
1
 10
-135.053290
 20
214.639421
 30
0.0
 10
-153.171720
 20
213.746090
 30
0.0
 10
-169.841050
 20
210.053631
 30
0.0
 10
-185.861230
 20
203.384901
 30
0.0
  0
SPLINE
  5
21c
100
AcDbEntity
  8
Ebene_1
 62
7
100
AcDbSpline
 70
8
 71
3
 72
8
 73
4
 74
0
 40
0
 40
0
 40
0
 40
0
 40
1
 40
1
 40
1
 40
1
 10
-185.861230
 20
203.384901
 30
0.0
 10
-186.964980
 20
202.925462
 30
0.0
 10
-187.936700
 20
202.575911
 30
0.0
 10
-188.020710
 20
202.608132
 30
0.0
  0
SPLINE
  5
21d
100
AcDbEntity
  8
Ebene_1
 62
7
100
AcDbSpline
 70
8
 71
3
 72
8
 73
4
 74
0
 40
0
 40
0
 40
0
 40
0
 40
1
 40
1
 40
1
 40
1
 10
-188.020710
 20
202.608132
 30
0.0
 10
-188.104910
 20
202.640532
 30
0.0
 10
-188.795720
 20
203.922312
 30
0.0
 10
-189.556240
 20
205.456922
 30
0.0
  0
SPLINE
  5
21e
100
AcDbEntity
  8
Ebene_1
 62
7
100
AcDbSpline
 70
8
 71
3
 72
8
 73
4
 74
0
 40
0
 40
0
 40
0
 40
0
 40
1
 40
1
 40
1
 40
1
 10
-189.556240
 20
205.456922
 30
0.0
 10
-190.979250
 20
208.328100
 30
0.0
 10
-191.642400
 20
209.819612
 30
0.0
 10
-191.541040
 20
209.920972
 30
0.0
  0
SPLINE
  5
21f
100
AcDbEntity
  8
Ebene_1
 62
7
100
AcDbSpline
 70
8
 71
3
 72
8
 73
4
 74
0
 40
0
 40
0
 40
0
 40
0
 40
1
 40
1
 40
1
 40
1
 10
-191.541040
 20
209.920972
 30
0.0
 10
-191.437220
 20
210.024752
 30
0.0
 10
-187.259350
 20
211.603052
 30
0.0
 10
-184.810440
 20
212.463702
 30
0.0
  0
SPLINE
  5
220
100
AcDbEntity
  8
Ebene_1
 62
7
100
AcDbSpline
 70
8
 71
3
 72
8
 73
4
 74
0
 40
0
 40
0
 40
0
 40
0
 40
1
 40
1
 40
1
 40
1
 10
-184.810440
 20
212.463702
 30
0.0
 10
-161.852780
 20
220.532131
 30
0.0
 10
-137.334580
 20
223.875671
 30
0.0
 10
-114.129380
 20
222.102520
 30
0.0
  0
SPLINE
  5
221
100
AcDbEntity
  8
Ebene_1
 62
7
100
AcDbSpline
 70
8
 71
3
 72
8
 73
4
 74
0
 40
0
 40
0
 40
0
 40
0
 40
1
 40
1
 40
1
 40
1
 10
-114.129380
 20
222.102520
 30
0.0
 10
-96.773240
 20
220.776312
 30
0.0
 10
-80.415944
 20
217.115212
 30
0.0
 10
-63.765264
 20
210.829990
 30
0.0
  0
SPLINE
  5
222
100
AcDbEntity
  8
Ebene_1
 62
7
100
AcDbSpline
 70
8
 71
3
 72
8
 73
4
 74
0
 40
0
 40
0
 40
0
 40
0
 40
1
 40
1
 40
1
 40
1
 10
-63.765264
 20
210.829990
 30
0.0
 10
-62.525574
 20
210.362050
 30
0.0
 10
-61.490004
 20
209.957891
 30
0.0
 10
-61.463954
 20
209.931841
 30
0.0
  0
SPLINE
  5
223
100
AcDbEntity
  8
Ebene_1
 62
7
100
AcDbSpline
 70
8
 71
3
 72
8
 73
4
 74
0
 40
0
 40
0
 40
0
 40
0
 40
1
 40
1
 40
1
 40
1
 10
-61.463954
 20
209.931841
 30
0.0
 10
-61.327834
 20
209.795742
 30
0.0
 10
-64.657174
 20
202.845561
 30
0.0
 10
-64.994514
 20
202.561552
 30
0.0
  0
SPLINE
  5
224
100
AcDbEntity
  8
Ebene_1
 62
7
100
AcDbSpline
 70
8
 71
3
 72
8
 73
4
 74
0
 40
0
 40
0
 40
0
 40
0
 40
1
 40
1
 40
1
 40
1
 10
-64.994514
 20
202.561552
 30
0.0
 10
-65.039814
 20
202.523452
 30
0.0
 10
-66.017844
 20
202.889161
 30
0.0
 10
-67.167984
 20
203.374222
 30
0.0
  0
LWPOLYLINE
  5
225
100
AcDbEntity
  8
Ebene_1
 62
7
100
AcDbPolyline
 90
3
 70
0
 10
-126.416680
 20
93.711530
 30
0.0
 10
-126.511380
 20
93.173820
 30
0.0
 10
-126.590650
 20
93.592080
 30
0.0
  0
LWPOLYLINE
  5
226
100
AcDbEntity
  8
Ebene_1
 62
7
100
AcDbPolyline
 90
1
 70
1
 10
-67.167984
 20
203.374222
 30
0.0
  0
ENDSEC
  0
SECTION
  2
OBJECTS
  0
DICTIONARY
  5
C
330
0
100
AcDbDictionary
  3
ACAD_GROUP
350
D
  3
ACAD_MLINESTYLE
350
17
  0
DICTIONARY
  5
D
330
C
100
AcDbDictionary
  0
DICTIONARY
  5
1A
330
C
100
AcDbDictionary
  0
DICTIONARY
  5
17
330
C
100
AcDbDictionary
  3
STANDARD
350
18
  0
DICTIONARY
  5
19
330
C
100
AcDbDictionary
  0
ENDSEC
  0
EOF
