<?xml version="1.0" encoding="UTF-8" standalone="no"?>
<!-- Created with Inkscape (http://www.inkscape.org/) -->

<svg
   xmlns:dc="http://purl.org/dc/elements/1.1/"
   xmlns:cc="http://creativecommons.org/ns#"
   xmlns:rdf="http://www.w3.org/1999/02/22-rdf-syntax-ns#"
   xmlns:svg="http://www.w3.org/2000/svg"
   xmlns="http://www.w3.org/2000/svg"
   xmlns:sodipodi="http://sodipodi.sourceforge.net/DTD/sodipodi-0.dtd"
   xmlns:inkscape="http://www.inkscape.org/namespaces/inkscape"
   width="210mm"
   height="297mm"
   viewBox="0 0 210 297"
   version="1.1"
   id="svg1882"
   inkscape:version="0.92.4 (5da689c313, 2019-01-14)"
   sodipodi:docname="Tesla100ProV1.svg">
  <defs
     id="defs1876" />
  <sodipodi:namedview
     id="base"
     pagecolor="#ffffff"
     bordercolor="#666666"
     borderopacity="1.0"
     inkscape:pageopacity="0.0"
     inkscape:pageshadow="2"
     inkscape:zoom="0.49497475"
     inkscape:cx="-503.81664"
     inkscape:cy="428.65255"
     inkscape:document-units="mm"
     inkscape:current-layer="layer1"
     showgrid="true"
     inkscape:window-width="1920"
     inkscape:window-height="1137"
     inkscape:window-x="-8"
     inkscape:window-y="-8"
     inkscape:window-maximized="1">
    <inkscape:grid
       type="xygrid"
       id="grid2427" />
  </sodipodi:namedview>
  <metadata
     id="metadata1879">
    <rdf:RDF>
      <cc:Work
         rdf:about="">
        <dc:format>image/svg+xml</dc:format>
        <dc:type
           rdf:resource="http://purl.org/dc/dcmitype/StillImage" />
        <dc:title></dc:title>
      </cc:Work>
    </rdf:RDF>
  </metadata>
  <g
     inkscape:label="Ebene 1"
     inkscape:groupmode="layer"
     id="layer1">
    <g
       transform="translate(-164.79999,-683.52095)"
       aria-label="100% electric"
       style="font-style:normal;font-variant:normal;font-weight:bold;font-stretch:normal;font-size:32.31037903px;line-height:0.75;font-family:'Sitka Small';-inkscape-font-specification:'Sitka Small Bold';text-align:center;letter-spacing:0px;word-spacing:0px;text-anchor:middle;fill:#000000;fill-opacity:1;stroke:none;stroke-width:0.26458332"
       id="text2822-2-7">
      <path
         d="m -5.2142067,914.67529 v -4.03879 h 4.0387975 v -8.0776 h 4.0387974 v 8.0776 c 1.1148764,0 2.0614695,0.39967 2.8397794,1.19901 0.7993453,0.79935 1.1990179,1.74594 1.1990179,2.83978 z m 4.0387975,-16.15519 c -1.1359118,0 -2.0930226,-0.38915 -2.8713325,-1.16746 -0.77831,-0.79935 -1.167465,-1.75646 -1.167465,-2.87133 h 8.0775949 v 4.03879 z"
         style="font-style:normal;font-variant:normal;font-weight:bold;font-stretch:normal;line-height:0.75;font-family:TESLA;-inkscape-font-specification:'TESLA Bold';text-align:center;text-anchor:middle;stroke-width:0.26458332"
         id="path1822"
         inkscape:connector-curvature="0"
         sodipodi:nodetypes="cccccccccsccccs" />
      <path
         d="m 15.454506,914.67529 c -1.135912,0 -2.093023,-0.38915 -2.871332,-1.16746 -0.77831,-0.79935 -1.240345,-1.75884 -1.167465,-2.87133 v -8.0776 h 4.038797 v 6.0582 c 0,0.56795 0.189318,1.05177 0.567956,1.45144 0.399672,0.37864 0.883487,0.56796 1.451443,0.56796 h 12.116392 c 0.54692,0 1.020217,-0.18932 1.41989,-0.56796 0.399672,-0.39967 0.599509,-0.88349 0.599509,-1.45144 v -6.0582 h 4.038797 v 8.0776 c 0,1.13591 -0.399673,2.09302 -1.199018,2.87133 -0.799346,0.77831 -1.745939,1.16746 -2.839779,1.16746 z M 11.415709,898.5201 c 0,-1.11487 0.389155,-2.06147 1.167465,-2.83978 0.799345,-0.79934 1.756456,-1.19901 2.871332,-1.19901 h 16.15519 c 1.114876,0 2.061469,0.39967 2.839779,1.19901 0.799345,0.79935 1.199018,1.74594 1.199018,2.83978 z"
         style="font-style:normal;font-variant:normal;font-weight:bold;font-stretch:normal;line-height:0.75;font-family:TESLA;-inkscape-font-specification:'TESLA Bold';text-align:center;text-anchor:middle;stroke-width:0.26458332"
         id="path1824"
         inkscape:connector-curvature="0"
         sodipodi:nodetypes="scsccscsscsccscssccssccc" />
      <path
         d="m 43.726088,914.67529 c -1.135912,0 -2.093023,-0.38915 -2.871333,-1.16746 -0.77831,-0.79935 -1.167465,-1.75646 -1.167465,-2.87133 v -8.0776 h 4.038798 v 6.0582 c 0,0.56795 0.189318,1.05177 0.567956,1.45144 0.399672,0.37864 0.883486,0.56796 1.451442,0.56796 h 12.116393 c 0.54692,0 1.020216,-0.18932 1.419889,-0.56796 0.399672,-0.39967 0.550088,-0.88564 0.599509,-1.45144 v -6.0582 h 4.038798 v 8.0776 c 0,1.13591 -0.399673,2.09302 -1.199018,2.87133 -0.799346,0.77831 -1.745939,1.16746 -2.83978,1.16746 z M 39.68729,898.5201 c 0,-1.11487 0.389155,-2.06147 1.167465,-2.83978 0.799345,-0.79934 1.756456,-1.19901 2.871333,-1.19901 h 16.155189 c 1.114876,0 2.06147,0.39967 2.83978,1.19901 0.799345,0.79935 1.199018,1.74594 1.199018,2.83978 z"
         style="font-style:normal;font-variant:normal;font-weight:bold;font-stretch:normal;line-height:0.75;font-family:TESLA;-inkscape-font-specification:'TESLA Bold';text-align:center;text-anchor:middle;stroke-width:0.26458332"
         id="path1826"
         inkscape:connector-curvature="0"
         sodipodi:nodetypes="scsccscsscsccscssccssccc" />
      <path
         d="m 85.42579,912.11696 c 0.692893,0 1.292513,-0.23985 1.798859,-0.71953 0.506344,-0.50635 0.759517,-1.1193 0.759517,-1.83883 0,-0.69291 -0.253173,-1.29252 -0.759517,-1.79887 -0.506346,-0.50633 -1.105966,-0.75951 -1.798859,-0.75951 -0.719542,0 -1.332487,0.25318 -1.838832,0.75951 -0.479695,0.50635 -0.719542,1.10596 -0.719542,1.79887 0,0.71953 0.239847,1.33248 0.719542,1.83883 0.506345,0.47968 1.11929,0.71953 1.838832,0.71953 z M 75.192292,901.88347 c 0.692893,0 1.292511,-0.23986 1.798856,-0.71955 0.506344,-0.50634 0.759518,-1.1193 0.759518,-1.83883 0,-0.6929 -0.253174,-1.29252 -0.759518,-1.79886 -0.506345,-0.50634 -1.105963,-0.75952 -1.798856,-0.75952 -0.719543,0 -1.332489,0.25318 -1.838833,0.75952 -0.479696,0.50634 -0.719543,1.10596 -0.719543,1.79886 0,0.71953 0.239847,1.33249 0.719543,1.83883 0.506344,0.47969 1.11929,0.71955 1.838833,0.71955 z m -2.558376,12.79187 5.596445,-11.23287 c -0.879441,0.66626 -1.89213,0.99937 -3.038069,0.99937 -1.412437,0 -2.625001,-0.49302 -3.63769,-1.47907 -0.986041,-1.01268 -1.479061,-2.22524 -1.479061,-3.63768 0,-1.38579 0.49302,-2.58502 1.479061,-3.59771 1.012689,-1.01271 2.225253,-1.51904 3.63769,-1.51904 1.385785,0 2.585023,0.50633 3.597714,1.51904 1.01269,1.01269 1.519036,2.21192 1.519036,3.59771 l 2.558374,-5.11675 h 5.11675 l -5.63642,11.27284 v 0 c 0.879441,-0.69289 1.905456,-1.03934 3.078044,-1.03934 1.385787,0 2.585025,0.50634 3.597716,1.51904 1.01269,1.01268 1.519035,2.21192 1.519035,3.59772 0,1.41242 -0.506345,2.62499 -1.519035,3.63768 -1.012691,0.98605 -2.211929,1.47906 -3.597716,1.47906 -1.412435,0 -2.624998,-0.49301 -3.637688,-1.47906 -0.98604,-1.01269 -1.47906,-2.22526 -1.47906,-3.63768 l -2.558376,5.11674 z"
         style="font-style:normal;font-variant:normal;font-weight:bold;font-stretch:normal;line-height:0.75;font-family:TESLA;-inkscape-font-specification:'TESLA Bold';text-align:center;text-anchor:middle;stroke-width:0.26458335"
         id="path1828"
         inkscape:connector-curvature="0"
         sodipodi:nodetypes="scscscscsscssscscsccscscsscccccscscscccc" />
      <path
         inkscape:connector-curvature="0"
         d="m -35.267824,941.38031 q -1.703868,0 -2.871333,-1.16746 -1.167465,-1.19902 -1.167465,-2.87134 v -8.07759 q 0,-1.67232 1.167465,-2.83978 1.199018,-1.19902 2.871333,-1.19902 h 16.155189 l -6.058196,6.0582 h 6.058196 l -4.038797,4.03879 h -10.096993 l 6.058196,-6.05819 h -6.058196 q -0.851934,0 -1.451443,0.59951 -0.567956,0.59951 -0.567956,1.41989 v 4.03879 q 0,0.85194 0.567956,1.45145 0.599509,0.56795 1.451443,0.56795 h 14.13579 q 0,1.70387 -1.199018,2.87134 -1.199018,1.16746 -2.839779,1.16746 z"
         style="font-style:normal;font-variant:normal;font-weight:bold;font-stretch:normal;line-height:0.75;font-family:TESLA;-inkscape-font-specification:'TESLA Bold';text-align:center;text-anchor:middle;stroke-width:0.26458332"
         id="path1830" />
      <path
         inkscape:connector-curvature="0"
         d="m -15.073837,941.38031 v -20.19399 h 4.038797 v 20.19399 z"
         style="font-style:normal;font-variant:normal;font-weight:bold;font-stretch:normal;line-height:0.75;font-family:TESLA;-inkscape-font-specification:'TESLA Bold';text-align:center;text-anchor:middle;stroke-width:0.26458332"
         id="path1832" />
      <path
         inkscape:connector-curvature="0"
         d="m -2.9574451,941.38031 q -1.7038677,0 -2.8713326,-1.16746 -1.1674648,-1.19902 -1.1674648,-2.87134 v -8.07759 q 0,-1.67232 1.1674648,-2.83978 1.199018,-1.19902 2.8713326,-1.19902 H 13.197744 l -6.0581957,6.0582 h 6.0581957 l -4.038797,4.03879 H -0.93804646 l 6.05819606,-6.05819 h -6.05819606 q -0.85193384,0 -1.45144284,0.59951 -0.5679558,0.59951 -0.5679558,1.41989 v 4.03879 q 0,0.85194 0.5679558,1.45145 0.599509,0.56795 1.45144284,0.56795 H 13.197744 q 0,1.70387 -1.199018,2.87134 -1.199018,1.16746 -2.839779,1.16746 z"
         style="font-style:normal;font-variant:normal;font-weight:bold;font-stretch:normal;line-height:0.75;font-family:TESLA;-inkscape-font-specification:'TESLA Bold';text-align:center;text-anchor:middle;stroke-width:0.26458332"
         id="path1834" />
      <path
         inkscape:connector-curvature="0"
         d="m 21.275339,941.38031 q -1.703868,0 -2.871332,-1.16746 -1.167465,-1.19902 -1.167465,-2.87134 v -12.11639 h 20.193987 q 0,1.70387 -1.199018,2.87133 -1.199018,1.16747 -2.83978,1.16747 H 21.275339 v 6.05819 q 0,0.85194 0.567956,1.45145 0.599509,0.56795 1.451443,0.56795 h 14.135791 q 0,1.70387 -1.199018,2.87134 -1.199018,1.16746 -2.83978,1.16746 z"
         style="font-style:normal;font-variant:normal;font-weight:bold;font-stretch:normal;line-height:0.75;font-family:TESLA;-inkscape-font-specification:'TESLA Bold';text-align:center;text-anchor:middle;stroke-width:0.26458332"
         id="path1836" />
      <path
         inkscape:connector-curvature="0"
         d="m 49.546921,941.38031 q -1.703868,0 -2.871333,-1.16746 -1.167465,-1.19902 -1.167465,-2.87134 v -8.07759 h -4.038797 q 0,-1.67232 1.167465,-2.83978 1.199018,-1.19902 2.871332,-1.19902 v -4.0388 h 4.038798 v 4.0388 h 12.116392 q 0,1.70387 -1.199018,2.87133 -1.199018,1.16747 -2.839779,1.16747 h -8.077595 v 6.05819 q 0,0.85194 0.567956,1.45145 0.599509,0.56795 1.451442,0.56795 h 10.096994 q 0,1.70387 -1.199018,2.87134 -1.199018,1.16746 -2.839779,1.16746 z"
         style="font-style:normal;font-variant:normal;font-weight:bold;font-stretch:normal;line-height:0.75;font-family:TESLA;-inkscape-font-specification:'TESLA Bold';text-align:center;text-anchor:middle;stroke-width:0.26458332"
         id="path1838" />
      <path
         inkscape:connector-curvature="0"
         d="m 65.702106,941.38031 v -12.11639 q 0,-1.67232 1.167465,-2.83978 1.199018,-1.19902 2.871333,-1.19902 h 16.155189 q 0,1.70387 -1.199018,2.87133 -1.199018,1.16747 -2.839779,1.16747 H 71.760303 q -0.851934,0 -1.451443,0.59951 -0.567956,0.59951 -0.567956,1.41989 v 10.09699 z"
         style="font-style:normal;font-variant:normal;font-weight:bold;font-stretch:normal;line-height:0.75;font-family:TESLA;-inkscape-font-specification:'TESLA Bold';text-align:center;text-anchor:middle;stroke-width:0.26458332"
         id="path1840" />
      <path
         inkscape:connector-curvature="0"
         d="m 89.934895,941.38031 v -16.15519 h 4.038797 v 16.15519 z"
         style="font-style:normal;font-variant:normal;font-weight:bold;font-stretch:normal;line-height:0.75;font-family:TESLA;-inkscape-font-specification:'TESLA Bold';text-align:center;text-anchor:middle;stroke-width:0.26458332"
         id="path1842" />
      <path
         inkscape:connector-curvature="0"
         d="m 102.05128,941.38031 q -1.70386,0 -2.87133,-1.16746 -1.167464,-1.19902 -1.167464,-2.87134 v -12.11639 h 20.193984 q 0,1.70387 -1.19902,2.87133 -1.19901,1.16747 -2.83977,1.16747 h -12.1164 v 6.05819 q 0,0.85194 0.56796,1.45145 0.59951,0.56795 1.45144,0.56795 h 14.13579 q 0,1.70387 -1.19902,2.87134 -1.19901,1.16746 -2.83977,1.16746 z"
         style="font-style:normal;font-variant:normal;font-weight:bold;font-stretch:normal;line-height:0.75;font-family:TESLA;-inkscape-font-specification:'TESLA Bold';text-align:center;text-anchor:middle;stroke-width:0.26458332"
         id="path1844" />
    </g>
    <path
       id="path21491-9-1"
       style="fill:#000000;stroke-width:0.26458341"
       d="m -69.808974,45.398923 c -1.01251,-0.68186 -2.27391,-2.27696 -2.27391,-2.87546 0,-0.21504 2.09079,-0.26552 10.99413,-0.26552 7.47446,0 10.99407,0.0678 10.99407,0.21168 0,0.41786 -0.78822,1.73282 -1.35561,2.26158 -0.31819,0.29652 -0.89919,0.73136 -1.29109,0.96631 -0.68985,0.41359 -0.95629,0.42721 -8.35009,0.42795 h -7.63753 l -1.07997,-0.72728 z m -95.115246,0.013 c -1.31157,-0.88263 -2.41353,-2.19563 -2.43348,-2.89957 -0.005,-0.20055 2.32622,-0.2545 11.00061,-0.2545 h 11.00777 l -0.13586,0.45808 c -0.26019,0.87709 -1.20957,2.03919 -2.22417,2.72245 l -1.02126,0.68776 h -7.56616 -7.56616 z m 0.71501,8.513383 c -1.10895,-0.596108 -1.91305,-1.3102 -2.53849,-2.25449 -1.20484,-1.818929 -2.0873,-1.676379 10.37687,-1.676379 7.54042,0 10.99408,0.067 10.99408,0.21372 0,0.81198 -1.44397,2.73195 -2.61149,3.472389 l -0.92933,0.589362 -7.34041,-0.008 c -6.35386,-0.008 -7.42254,-0.0523 -7.95123,-0.33646 z m 92.737116,2.3787 v -6.313278 l 10.43425,0.0528 10.43416,0.0528 0.054,6.260518 0.054,6.26052 h -1.83528 -1.83531 v -4.173688 -4.17368 h -6.82037 -6.82043 v 4.17368 4.17367 h -1.83232 -1.83237 z M -102.62196,52.335778 V 42.054253 h 1.83231 1.83238 v 8.245585 8.24555 h 8.23132 8.231366 l -0.185,0.645041 c -0.29302,1.02163 -1.1221,2.124051 -2.10711,2.80176 l -0.908556,0.62511 h -8.46336 -8.46335 z m -61.58725,9.877981 c -1.2132,-0.600671 -2.30286,-1.573192 -2.75442,-2.458382 -0.22072,-0.432609 -0.40127,-0.881848 -0.40127,-0.998278 0,-0.14388 3.51962,-0.211711 10.99407,-0.211711 8.90329,0 10.99408,0.0503 10.99408,0.26553 0,0.469612 -1.15748,2.108322 -1.86182,2.635861 -1.59777,1.19675 -1.39449,1.17052 -9.07124,1.17034 -6.65163,-1.51e-4 -7.13484,-0.02479 -7.8994,-0.40336 z m 29.82656,0.401299 c 0,-0.517589 0.92382,-2.087618 1.55392,-2.640849 1.63663,-1.437 1.58549,-1.428821 8.92305,-1.428821 h 6.62493 v -2.13772 -2.137759 h -8.55099 -8.55091 v -6.107801 -6.107845 h 10.38328 c 5.71084,0 10.38333,0.0347 10.38333,0.0769 0,0.0424 -0.13409,0.39772 -0.29786,0.78979 -0.38286,0.9163 -1.20777,1.89183 -2.21944,2.62471 l -0.80134,0.58045 h -6.89165 -6.89163 v 2.035933 2.035943 h 8.65275 8.65274 v 6.311469 6.311399 h -10.48509 c -6.92968,0 -10.48509,-0.0697 -10.48509,-0.205808 z m -56.4442,-8.090639 -0.0532,-8.296486 -3.35933,-0.10184 -3.35929,-0.10183 -0.93985,-0.67663 c -0.51692,-0.37216 -1.12114,-0.92185 -1.34271,-1.22157 -0.41799,-0.56535 -1.07672,-1.76449 -1.07672,-1.95996 0,-0.0616 5.45119,-0.11194 12.11384,-0.11194 8.24954,0 12.11385,0.0675 12.11385,0.21172 0,0.47055 -0.82601,1.76518 -1.56062,2.44601 -1.45791,1.35116 -1.29247,1.30471 -5.03576,1.41416 l -3.48152,0.10183 -0.0533,8.296497 -0.0532,8.296449 h -1.92958 -1.92958 z"
       inkscape:connector-curvature="0" />
    <path
       inkscape:connector-curvature="0"
       style="opacity:1;fill:none;fill-opacity:1;stroke:#000000;stroke-width:0.40000001;stroke-linejoin:round;stroke-miterlimit:4;stroke-dasharray:none;stroke-opacity:1;paint-order:markers fill stroke"
       d="M -234.79999,-2.708287 H -15.199984 V 296.89169 H -234.79999 Z"
       id="rect867-6-4" />
    <path
       style="color:#000000;font-style:normal;font-variant:normal;font-weight:normal;font-stretch:normal;font-size:medium;line-height:normal;font-family:sans-serif;font-variant-ligatures:normal;font-variant-position:normal;font-variant-caps:normal;font-variant-numeric:normal;font-variant-alternates:normal;font-feature-settings:normal;text-indent:0;text-align:start;text-decoration:none;text-decoration-line:none;text-decoration-style:solid;text-decoration-color:#000000;letter-spacing:normal;word-spacing:normal;text-transform:none;writing-mode:lr-tb;direction:ltr;text-orientation:mixed;dominant-baseline:auto;baseline-shift:baseline;text-anchor:start;white-space:normal;shape-padding:0;clip-rule:nonzero;display:inline;overflow:visible;visibility:visible;opacity:1;isolation:auto;mix-blend-mode:normal;color-interpolation:sRGB;color-interpolation-filters:linearRGB;solid-color:#000000;solid-opacity:1;vector-effect:none;fill:#000000;fill-opacity:1;fill-rule:nonzero;stroke:none;stroke-width:7;stroke-linecap:butt;stroke-linejoin:round;stroke-miterlimit:4;stroke-dasharray:none;stroke-dashoffset:0;stroke-opacity:1;paint-order:markers fill stroke;color-rendering:auto;image-rendering:auto;shape-rendering:auto;text-rendering:auto;enable-background:accumulate"
       d="m -188.03923,7.291713 c -19.29458,0 -34.93524,15.61954 -34.93524,34.88807 V 252.02568 c 0,19.26853 15.64066,34.88807 34.93524,34.88807 h 126.078496 c 19.29458,0 34.93522,-15.61954 34.93522,-34.88807 V 42.179783 c 0,-19.26853 -15.64064,-34.88807 -34.93522,-34.88807 z m 0,6.82005 h 126.078496 c 15.62928,0 28.10597,12.45985 28.10597,28.06802 V 252.02568 c 0,15.60818 -12.47669,28.06801 -28.10597,28.06801 H -188.03923 c -15.62931,0 -28.10594,-12.45983 -28.10594,-28.06801 V 42.179783 c 0,-15.60817 12.47663,-28.06802 28.10594,-28.06802 z"
       id="rect875-2-1"
       inkscape:connector-curvature="0" />
    <path
       inkscape:connector-curvature="0"
       style="opacity:1;fill:none;fill-opacity:1;stroke:#000000;stroke-width:0.2;stroke-linejoin:round;stroke-miterlimit:4;stroke-dasharray:none;stroke-opacity:1;paint-order:markers fill stroke"
       d="m -199.91368,265.08338 a 2.5,2.5 0 0 1 -2.49999,2.49999 2.5,2.5 0 0 1 -2.5,-2.49999 2.5,2.5 0 0 1 2.5,-2.5 2.5,2.5 0 0 1 2.49999,2.5 z"
       id="path879-9-9" />
    <path
       inkscape:connector-curvature="0"
       style="opacity:1;fill:none;fill-opacity:1;stroke:#000000;stroke-width:0.2;stroke-linejoin:round;stroke-miterlimit:4;stroke-dasharray:none;stroke-opacity:1;paint-order:markers fill stroke"
       d="m -44.999974,264.7917 a 2.5,2.5 0 0 1 -2.50003,2.50002 2.5,2.5 0 0 1 -2.49999,-2.50002 2.5,2.5 0 0 1 2.49999,-2.49999 2.5,2.5 0 0 1 2.50003,2.49999 z"
       id="path881-6-2" />
    <path
       inkscape:connector-curvature="0"
       style="opacity:1;fill:none;fill-opacity:1;stroke:#000000;stroke-width:0.2;stroke-linejoin:round;stroke-miterlimit:4;stroke-dasharray:none;stroke-opacity:1;paint-order:markers fill stroke"
       d="m -44.621984,29.705423 a 2.5,2.5 0 0 1 -2.50002,2.49998 2.5,2.5 0 0 1 -2.5,-2.49998 2.5,2.5 0 0 1 2.5,-2.50002 2.5,2.5 0 0 1 2.50002,2.50002 z"
       id="path883-4-9" />
    <path
       inkscape:connector-curvature="0"
       style="opacity:1;fill:none;fill-opacity:1;stroke:#000000;stroke-width:0.2;stroke-linejoin:round;stroke-miterlimit:4;stroke-dasharray:none;stroke-opacity:1;paint-order:markers fill stroke"
       d="m -199.622,29.705423 a 2.5,2.5 0 0 1 -2.49999,2.49998 2.5,2.5 0 0 1 -2.50003,-2.49998 2.5,2.5 0 0 1 2.50003,-2.50002 2.5,2.5 0 0 1 2.49999,2.50002 z"
       id="path885-7-5" />
    <path
       style="fill:#000000;stroke-width:0.99999988"
       d="m -126.59065,203.40792 c -0.20963,-1.10563 -18.24887,-101.81772 -18.24887,-101.88248 0,-0.0921 -5.32799,0.0426 -8.00608,0.20242 -7.96996,0.47528 -12.06912,1.87094 -14.05038,4.7838 -0.73043,1.07396 -1.03542,1.8397 -1.35421,3.4002 -0.12944,0.63403 -0.25911,1.17642 -0.28798,1.20529 -0.0969,0.0969 -3.40915,-1.47673 -5.06865,-2.4084 -4.96353,-2.78662 -8.86034,-6.01305 -11.5112,-9.531062 -0.3895,-0.51684 -0.70813,-0.98199 -0.70813,-1.03371 0,-0.0519 0.20167,-0.17747 0.4481,-0.27945 0.24649,-0.10213 1.30847,-0.55973 2.36006,-1.017189 12.04812,-5.241451 27.70886,-8.90515 41.76334,-9.770139 L -140,87 l 6.73466,8.206388 c 3.70403,4.51346 6.77555,8.161092 6.82564,8.105852 0.05,-0.0552 3.05636,-3.714062 6.68059,-8.130612 3.62424,-4.416559 6.64488,-8.064378 6.71254,-8.106198 0.14112,-0.0872 3.15528,0.10709 5.78813,0.373309 11.10313,1.122349 22.2545,3.69163 32.383066,7.461051 2.3904,0.88958 6.23546,2.477388 7.23828,2.988968 l 0.46847,0.23901 -0.60431,0.83084 c -2.34849,3.228902 -6.03022,6.401972 -10.58968,9.126692 -1.25394,0.74936 -5.40493,2.83279 -5.9709,2.99686 -0.23355,0.0678 -0.26488,0.0169 -0.34259,-0.5571 -0.047,-0.3474 -0.216896,-1.08729 -0.377496,-1.64415 -1.26455,-4.38521 -5.00092,-6.33248 -13.54149,-7.05722 -1.85962,-0.1578 -9.5936,-0.36034 -9.69078,-0.25374 -0.0498,0.0546 -14.97987,83.80817 -18.13081,101.70852 l -0.0947,0.53771 z M -67.167984,93.625778 c -14.27168,-6.01902 -30.486036,-9.849138 -46.662686,-11.022539 -5.19718,-0.376989 -15.99432,-0.500441 -21.22262,-0.24266 -18.11843,0.893331 -34.78776,4.58579 -50.80794,11.25452 -1.10375,0.459439 -2.07547,0.80899 -2.15948,0.776769 -0.0842,-0.0324 -0.77501,-1.31418 -1.53553,-2.84879 -1.42301,-2.871178 -2.08616,-4.36269 -1.9848,-4.46405 0.10382,-0.10378 4.28169,-1.68208 6.7306,-2.54273 22.95766,-8.068429 47.47586,-11.411969 70.68106,-9.638818 17.35614,1.326208 33.713436,4.987308 50.364116,11.27253 1.23969,0.46794 2.27526,0.872099 2.30131,0.898149 0.13612,0.136099 -3.19322,7.08628 -3.53056,7.370289 -0.0453,0.0381 -1.02333,-0.327609 -2.17347,-0.81267 z"
       id="path2190-3-3"
       inkscape:connector-curvature="0"
       sodipodi:nodetypes="csscccccscsscscssssccsscccsccccsssccscsssccs" />
  </g>
</svg>
