  0
SECTION
  2
HEADER
  9
$ACADVER
  1
AC1014
  9
$HANDSEED
  5
FFFF
  9
$MEASUREMENT
 70
     1
  0
ENDSEC
  0
SECTION
  2
TABLES
  0
TABLE
  2
VPORT
  5
8
330
0
100
AcDbSymbolTable
 70
     4
  0
VPORT
  5
2E
330
8
100
AcDbSymbolTableRecord
100
AcDbViewportTableRecord
  2
*ACTIVE
 70
     0
 10
0.0
 20
0.0
 11
1.0
 21
1.0
 12
210.0
 22
148.5
 13
0.0
 23
0.0
 14
10.0
 24
10.0
 15
10.0
 25
10.0
 16
0.0
 26
0.0
 36
1.0
 17
0.0
 27
0.0
 37
0.0
 40
341.0
 41
1.24
 42
50.0
 43
0.0
 44
0.0
 50
0.0
 51
0.0
 71
     0
 72
   100
 73
     1
 74
     3
 75
     0
 76
     0
 77
     0
 78
     0
  0
ENDTAB
  0
TABLE
  2
LTYPE
  5
5
330
0
100
AcDbSymbolTable
 70
     1
  0
LTYPE
  5
14
330
5
100
AcDbSymbolTableRecord
100
AcDbLinetypeTableRecord
  2
BYBLOCK
 70
     0
  3

 72
    65
 73
     0
 40
0.0
  0
LTYPE
  5
15
330
5
100
AcDbSymbolTableRecord
100
AcDbLinetypeTableRecord
  2
BYLAYER
 70
     0
  3

 72
    65
 73
     0
 40
0.0
  0
LTYPE
  5
16
330
5
100
AcDbSymbolTableRecord
100
AcDbLinetypeTableRecord
  2
CONTINUOUS
 70
     0
  3
Solid line
 72
    65
 73
     0
 40
0.0
  0
ENDTAB
  0
TABLE
  2
LAYER
  5
2
100
AcDbSymbolTable
 70
2
  0
LAYER
  5
50
100
AcDbSymbolTableRecord
100
AcDbLayerTableRecord
  2
0
 70
0
  6
CONTINUOUS
  0
LAYER
  5
51
100
AcDbSymbolTableRecord
100
AcDbLayerTableRecord
  2
Ebene_1
 70
0
  6
CONTINUOUS
  0
ENDTAB
  0
TABLE
  2
STYLE
  5
3
330
0
100
AcDbSymbolTable
 70
     1
  0
STYLE
  5
11
330
3
100
AcDbSymbolTableRecord
100
AcDbTextStyleTableRecord
  2
STANDARD
 70
     0
 40
0.0
 41
1.0
 50
0.0
 71
     0
 42
2.5
  3
txt
  4

  0
ENDTAB
  0
TABLE
  2
VIEW
  5
6
330
0
100
AcDbSymbolTable
 70
     0
  0
ENDTAB
  0
TABLE
  2
UCS
  5
7
330
0
100
AcDbSymbolTable
 70
     0
  0
ENDTAB
  0
TABLE
  2
APPID
  5
9
330
0
100
AcDbSymbolTable
 70
     2
  0
APPID
  5
12
330
9
100
AcDbSymbolTableRecord
100
AcDbRegAppTableRecord
  2
ACAD
 70
     0
  0
ENDTAB
  0
TABLE
  2
DIMSTYLE
  5
A
330
0
100
AcDbSymbolTable
 70
     1
  0
DIMSTYLE
105
27
330
A
100
AcDbSymbolTableRecord
100
AcDbDimStyleTableRecord
  2
ISO-25
 70
     0
  3

  4

  5

  6

  7

 40
1.0
 41
2.5
 42
0.625
 43
3.75
 44
1.25
 45
0.0
 46
0.0
 47
0.0
 48
0.0
140
2.5
141
2.5
142
0.0
143
0.03937007874016
144
1.0
145
0.0
146
1.0
147
0.625
 71
     0
 72
     0
 73
     0
 74
     0
 75
     0
 76
     0
 77
     1
 78
     8
170
     0
171
     3
172
     1
173
     0
174
     0
175
     0
176
     0
177
     0
178
     0
270
     2
271
     2
272
     2
273
     2
274
     3
340
11
275
     0
280
     0
281
     0
282
     0
283
     0
284
     8
285
     0
286
     0
287
     3
288
     0
  0
ENDTAB
  0
TABLE
  2
BLOCK_RECORD
  5
1
330
0
100
AcDbSymbolTable
 70
     1
  0
BLOCK_RECORD
  5
1F
330
1
100
AcDbSymbolTableRecord
100
AcDbBlockTableRecord
  2
*MODEL_SPACE
  0
BLOCK_RECORD
  5
1B
330
1
100
AcDbSymbolTableRecord
100
AcDbBlockTableRecord
  2
*PAPER_SPACE
  0
ENDTAB
  0
ENDSEC
  0
SECTION
  2
BLOCKS
  0
BLOCK
  5
20
330
1F
100
AcDbEntity
  8
0
100
AcDbBlockBegin
  2
*MODEL_SPACE
 70
     0
 10
0.0
 20
0.0
 30
0.0
  3
*MODEL_SPACE
  1

  0
ENDBLK
  5
21
330
1F
100
AcDbEntity
  8
0
100
AcDbBlockEnd
  0
BLOCK
  5
1C
330
1B
100
AcDbEntity
 67
     1
  8
0
100
AcDbBlockBegin
  2
*PAPER_SPACE
  1

  0
ENDBLK
  5
1D
330
1B
100
AcDbEntity
 67
     1
  8
0
100
AcDbBlockEnd
  0
ENDSEC
  0
SECTION
  2
ENTITIES
  0
SPLINE
  5
100
100
AcDbEntity
  8
Ebene_1
 62
7
100
AcDbSpline
 70
8
 71
3
 72
8
 73
4
 74
0
 40
0
 40
0
 40
0
 40
0
 40
1
 40
1
 40
1
 40
1
 10
-295.526170
 20
53.377410
 30
0.0
 10
-295.526170
 20
34.082840
 30
0.0
 10
-279.906570
 20
18.442180
 30
0.0
 10
-260.638070
 20
18.442180
 30
0.0
  0
LWPOLYLINE
  5
101
100
AcDbEntity
  8
Ebene_1
 62
7
100
AcDbPolyline
 90
4
 70
1
 10
-305.526170
 20
6.616660
 30
0.0
 10
-305.526170
 20
226.216670
 30
0.0
 10
-5.926212
 20
226.216670
 30
0.0
 10
-5.926212
 20
6.616660
 30
0.0
  0
SPLINE
  5
102
100
AcDbEntity
  8
Ebene_1
 62
7
100
AcDbSpline
 70
8
 71
3
 72
8
 73
4
 74
0
 40
0
 40
0
 40
0
 40
0
 40
1
 40
1
 40
1
 40
1
 10
-50.792212
 20
18.442180
 30
0.0
 10
-31.523622
 20
18.442180
 30
0.0
 10
-15.904102
 20
34.082830
 30
0.0
 10
-15.904102
 20
53.377410
 30
0.0
  0
LWPOLYLINE
  5
103
100
AcDbEntity
  8
Ebene_1
 62
7
100
AcDbPolyline
 90
2
 70
0
 10
-260.638070
 20
18.442180
 30
0.0
 10
-50.792212
 20
18.442180
 30
0.0
  0
SPLINE
  5
104
100
AcDbEntity
  8
Ebene_1
 62
7
100
AcDbSpline
 70
8
 71
3
 72
8
 73
4
 74
0
 40
0
 40
0
 40
0
 40
0
 40
1
 40
1
 40
1
 40
1
 10
-15.904102
 20
179.455910
 30
0.0
 10
-15.904102
 20
198.750480
 30
0.0
 10
-31.523622
 20
214.391130
 30
0.0
 10
-50.792212
 20
214.391130
 30
0.0
  0
LWPOLYLINE
  5
105
100
AcDbEntity
  8
Ebene_1
 62
7
100
AcDbPolyline
 90
2
 70
0
 10
-15.904102
 20
53.377410
 30
0.0
 10
-15.904102
 20
179.455910
 30
0.0
  0
SPLINE
  5
106
100
AcDbEntity
  8
Ebene_1
 62
7
100
AcDbSpline
 70
8
 71
3
 72
8
 73
4
 74
0
 40
0
 40
0
 40
0
 40
0
 40
1
 40
1
 40
1
 40
1
 10
-260.638070
 20
214.391130
 30
0.0
 10
-279.906570
 20
214.391130
 30
0.0
 10
-295.526170
 20
198.750480
 30
0.0
 10
-295.526170
 20
179.455910
 30
0.0
  0
LWPOLYLINE
  5
107
100
AcDbEntity
  8
Ebene_1
 62
7
100
AcDbPolyline
 90
2
 70
0
 10
-50.792212
 20
214.391130
 30
0.0
 10
-260.638070
 20
214.391130
 30
0.0
  0
LWPOLYLINE
  5
108
100
AcDbEntity
  8
Ebene_1
 62
7
100
AcDbPolyline
 90
2
 70
0
 10
-295.526170
 20
179.455910
 30
0.0
 10
-295.526170
 20
53.377410
 30
0.0
  0
SPLINE
  5
109
100
AcDbEntity
  8
Ebene_1
 62
7
100
AcDbSpline
 70
8
 71
3
 72
8
 73
4
 74
0
 40
0
 40
0
 40
0
 40
0
 40
1
 40
1
 40
1
 40
1
 10
-288.706070
 20
179.455910
 30
0.0
 10
-288.706070
 20
195.085190
 30
0.0
 10
-276.246270
 20
207.561860
 30
0.0
 10
-260.638070
 20
207.561860
 30
0.0
  0
LWPOLYLINE
  5
10a
100
AcDbEntity
  8
Ebene_1
 62
7
100
AcDbPolyline
 90
2
 70
0
 10
-288.706070
 20
53.377410
 30
0.0
 10
-288.706070
 20
179.455910
 30
0.0
  0
SPLINE
  5
10b
100
AcDbEntity
  8
Ebene_1
 62
7
100
AcDbSpline
 70
8
 71
3
 72
8
 73
4
 74
0
 40
0
 40
0
 40
0
 40
0
 40
1
 40
1
 40
1
 40
1
 10
-50.792212
 20
207.561860
 30
0.0
 10
-35.184002
 20
207.561860
 30
0.0
 10
-22.724212
 20
195.085190
 30
0.0
 10
-22.724212
 20
179.455910
 30
0.0
  0
LWPOLYLINE
  5
10c
100
AcDbEntity
  8
Ebene_1
 62
7
100
AcDbPolyline
 90
2
 70
0
 10
-260.638070
 20
207.561860
 30
0.0
 10
-50.792212
 20
207.561860
 30
0.0
  0
SPLINE
  5
10d
100
AcDbEntity
  8
Ebene_1
 62
7
100
AcDbSpline
 70
8
 71
3
 72
8
 73
4
 74
0
 40
0
 40
0
 40
0
 40
0
 40
1
 40
1
 40
1
 40
1
 10
-22.724212
 20
53.377410
 30
0.0
 10
-22.724212
 20
37.748130
 30
0.0
 10
-35.184002
 20
25.271450
 30
0.0
 10
-50.792212
 20
25.271450
 30
0.0
  0
LWPOLYLINE
  5
10e
100
AcDbEntity
  8
Ebene_1
 62
7
100
AcDbPolyline
 90
2
 70
0
 10
-22.724212
 20
179.455910
 30
0.0
 10
-22.724212
 20
53.377410
 30
0.0
  0
SPLINE
  5
10f
100
AcDbEntity
  8
Ebene_1
 62
7
100
AcDbSpline
 70
8
 71
3
 72
8
 73
4
 74
0
 40
0
 40
0
 40
0
 40
0
 40
1
 40
1
 40
1
 40
1
 10
-260.638070
 20
25.271450
 30
0.0
 10
-276.246270
 20
25.271450
 30
0.0
 10
-288.706070
 20
37.748130
 30
0.0
 10
-288.706070
 20
53.377410
 30
0.0
  0
LWPOLYLINE
  5
110
100
AcDbEntity
  8
Ebene_1
 62
7
100
AcDbPolyline
 90
2
 70
0
 10
-50.792212
 20
25.271450
 30
0.0
 10
-260.638070
 20
25.271450
 30
0.0
  0
SPLINE
  5
111
100
AcDbEntity
  8
Ebene_1
 62
7
100
AcDbSpline
 70
8
 71
3
 72
8
 73
4
 74
0
 40
0
 40
0
 40
0
 40
0
 40
1
 40
1
 40
1
 40
1
 10
-37.734502
 20
41.502970
 30
0.0
 10
-36.353802
 20
41.502964
 30
0.0
 10
-35.234523
 20
40.383690
 30
0.0
 10
-35.234512
 20
39.002990
 30
0.0
  0
SPLINE
  5
112
100
AcDbEntity
  8
Ebene_1
 62
7
100
AcDbSpline
 70
8
 71
3
 72
8
 73
4
 74
0
 40
0
 40
0
 40
0
 40
0
 40
1
 40
1
 40
1
 40
1
 10
-35.234512
 20
39.002990
 30
0.0
 10
-35.234512
 20
37.622282
 30
0.0
 10
-36.353794
 20
36.502996
 30
0.0
 10
-37.734502
 20
36.502990
 30
0.0
  0
SPLINE
  5
113
100
AcDbEntity
  8
Ebene_1
 62
7
100
AcDbSpline
 70
8
 71
3
 72
8
 73
4
 74
0
 40
0
 40
0
 40
0
 40
0
 40
1
 40
1
 40
1
 40
1
 10
-37.734502
 20
36.502990
 30
0.0
 10
-38.397543
 20
36.502990
 30
0.0
 10
-39.033428
 20
36.766382
 30
0.0
 10
-39.502269
 20
37.235223
 30
0.0
  0
SPLINE
  5
114
100
AcDbEntity
  8
Ebene_1
 62
7
100
AcDbSpline
 70
8
 71
3
 72
8
 73
4
 74
0
 40
0
 40
0
 40
0
 40
0
 40
1
 40
1
 40
1
 40
1
 10
-39.502269
 20
37.235223
 30
0.0
 10
-39.971110
 20
37.704064
 30
0.0
 10
-40.234502
 20
38.339949
 30
0.0
 10
-40.234502
 20
39.002990
 30
0.0
  0
SPLINE
  5
115
100
AcDbEntity
  8
Ebene_1
 62
7
100
AcDbSpline
 70
8
 71
3
 72
8
 73
4
 74
0
 40
0
 40
0
 40
0
 40
0
 40
1
 40
1
 40
1
 40
1
 10
-40.234502
 20
39.002990
 30
0.0
 10
-40.234491
 20
40.383694
 30
0.0
 10
-39.115206
 20
41.502970
 30
0.0
 10
-37.734502
 20
41.502970
 30
0.0
  0
LWPOLYLINE
  5
116
100
AcDbEntity
  8
Ebene_1
 62
7
100
AcDbPolyline
 90
1
 70
1
 10
-288.706070
 20
53.377410
 30
0.0
  0
SPLINE
  5
117
100
AcDbEntity
  8
Ebene_1
 62
7
100
AcDbSpline
 70
8
 71
3
 72
8
 73
4
 74
0
 40
0
 40
0
 40
0
 40
0
 40
1
 40
1
 40
1
 40
1
 10
-38.026202
 20
196.416660
 30
0.0
 10
-37.363143
 20
196.416687
 30
0.0
 10
-36.727233
 20
196.153306
 30
0.0
 10
-36.258370
 20
195.684462
 30
0.0
  0
SPLINE
  5
118
100
AcDbEntity
  8
Ebene_1
 62
7
100
AcDbSpline
 70
8
 71
3
 72
8
 73
4
 74
0
 40
0
 40
0
 40
0
 40
0
 40
1
 40
1
 40
1
 40
1
 10
-36.258370
 20
195.684462
 30
0.0
 10
-35.789508
 20
195.215618
 30
0.0
 10
-35.526102
 20
194.579719
 30
0.0
 10
-35.526102
 20
193.916660
 30
0.0
  0
SPLINE
  5
119
100
AcDbEntity
  8
Ebene_1
 62
7
100
AcDbSpline
 70
8
 71
3
 72
8
 73
4
 74
0
 40
0
 40
0
 40
0
 40
0
 40
1
 40
1
 40
1
 40
1
 10
-35.526102
 20
193.916660
 30
0.0
 10
-35.526102
 20
193.253601
 30
0.0
 10
-35.789508
 20
192.617702
 30
0.0
 10
-36.258370
 20
192.148858
 30
0.0
  0
SPLINE
  5
11a
100
AcDbEntity
  8
Ebene_1
 62
7
100
AcDbSpline
 70
8
 71
3
 72
8
 73
4
 74
0
 40
0
 40
0
 40
0
 40
0
 40
1
 40
1
 40
1
 40
1
 10
-36.258370
 20
192.148858
 30
0.0
 10
-36.727233
 20
191.680014
 30
0.0
 10
-37.363143
 20
191.416633
 30
0.0
 10
-38.026202
 20
191.416660
 30
0.0
  0
SPLINE
  5
11b
100
AcDbEntity
  8
Ebene_1
 62
7
100
AcDbSpline
 70
8
 71
3
 72
8
 73
4
 74
0
 40
0
 40
0
 40
0
 40
0
 40
1
 40
1
 40
1
 40
1
 10
-38.026202
 20
191.416660
 30
0.0
 10
-39.406883
 20
191.416704
 30
0.0
 10
-40.526122
 20
192.535979
 30
0.0
 10
-40.526122
 20
193.916660
 30
0.0
  0
SPLINE
  5
11c
100
AcDbEntity
  8
Ebene_1
 62
7
100
AcDbSpline
 70
8
 71
3
 72
8
 73
4
 74
0
 40
0
 40
0
 40
0
 40
0
 40
1
 40
1
 40
1
 40
1
 10
-40.526122
 20
193.916660
 30
0.0
 10
-40.526122
 20
195.297341
 30
0.0
 10
-39.406883
 20
196.416616
 30
0.0
 10
-38.026202
 20
196.416660
 30
0.0
  0
LWPOLYLINE
  5
11d
100
AcDbEntity
  8
Ebene_1
 62
7
100
AcDbPolyline
 90
1
 70
1
 10
-37.734502
 20
41.502970
 30
0.0
  0
SPLINE
  5
11e
100
AcDbEntity
  8
Ebene_1
 62
7
100
AcDbSpline
 70
8
 71
3
 72
8
 73
4
 74
0
 40
0
 40
0
 40
0
 40
0
 40
1
 40
1
 40
1
 40
1
 10
-273.112470
 20
196.794640
 30
0.0
 10
-272.449429
 20
196.794640
 30
0.0
 10
-271.813544
 20
196.531248
 30
0.0
 10
-271.344703
 20
196.062407
 30
0.0
  0
SPLINE
  5
11f
100
AcDbEntity
  8
Ebene_1
 62
7
100
AcDbSpline
 70
8
 71
3
 72
8
 73
4
 74
0
 40
0
 40
0
 40
0
 40
0
 40
1
 40
1
 40
1
 40
1
 10
-271.344703
 20
196.062407
 30
0.0
 10
-270.875862
 20
195.593566
 30
0.0
 10
-270.612470
 20
194.957681
 30
0.0
 10
-270.612470
 20
194.294640
 30
0.0
  0
SPLINE
  5
120
100
AcDbEntity
  8
Ebene_1
 62
7
100
AcDbSpline
 70
8
 71
3
 72
8
 73
4
 74
0
 40
0
 40
0
 40
0
 40
0
 40
1
 40
1
 40
1
 40
1
 10
-270.612470
 20
194.294640
 30
0.0
 10
-270.612470
 20
193.631599
 30
0.0
 10
-270.875862
 20
192.995714
 30
0.0
 10
-271.344703
 20
192.526873
 30
0.0
  0
SPLINE
  5
121
100
AcDbEntity
  8
Ebene_1
 62
7
100
AcDbSpline
 70
8
 71
3
 72
8
 73
4
 74
0
 40
0
 40
0
 40
0
 40
0
 40
1
 40
1
 40
1
 40
1
 10
-271.344703
 20
192.526873
 30
0.0
 10
-271.813544
 20
192.058032
 30
0.0
 10
-272.449429
 20
191.794640
 30
0.0
 10
-273.112470
 20
191.794640
 30
0.0
  0
SPLINE
  5
122
100
AcDbEntity
  8
Ebene_1
 62
7
100
AcDbSpline
 70
8
 71
3
 72
8
 73
4
 74
0
 40
0
 40
0
 40
0
 40
0
 40
1
 40
1
 40
1
 40
1
 10
-273.112470
 20
191.794640
 30
0.0
 10
-273.775511
 20
191.794640
 30
0.0
 10
-274.411396
 20
192.058032
 30
0.0
 10
-274.880237
 20
192.526873
 30
0.0
  0
SPLINE
  5
123
100
AcDbEntity
  8
Ebene_1
 62
7
100
AcDbSpline
 70
8
 71
3
 72
8
 73
4
 74
0
 40
0
 40
0
 40
0
 40
0
 40
1
 40
1
 40
1
 40
1
 10
-274.880237
 20
192.526873
 30
0.0
 10
-275.349078
 20
192.995714
 30
0.0
 10
-275.612470
 20
193.631599
 30
0.0
 10
-275.612470
 20
194.294640
 30
0.0
  0
SPLINE
  5
124
100
AcDbEntity
  8
Ebene_1
 62
7
100
AcDbSpline
 70
8
 71
3
 72
8
 73
4
 74
0
 40
0
 40
0
 40
0
 40
0
 40
1
 40
1
 40
1
 40
1
 10
-275.612470
 20
194.294640
 30
0.0
 10
-275.612470
 20
194.957681
 30
0.0
 10
-275.349078
 20
195.593566
 30
0.0
 10
-274.880237
 20
196.062407
 30
0.0
  0
SPLINE
  5
125
100
AcDbEntity
  8
Ebene_1
 62
7
100
AcDbSpline
 70
8
 71
3
 72
8
 73
4
 74
0
 40
0
 40
0
 40
0
 40
0
 40
1
 40
1
 40
1
 40
1
 10
-274.880237
 20
196.062407
 30
0.0
 10
-274.411396
 20
196.531248
 30
0.0
 10
-273.775511
 20
196.794640
 30
0.0
 10
-273.112470
 20
196.794640
 30
0.0
  0
LWPOLYLINE
  5
126
100
AcDbEntity
  8
Ebene_1
 62
7
100
AcDbPolyline
 90
1
 70
1
 10
-38.026202
 20
196.416660
 30
0.0
  0
SPLINE
  5
127
100
AcDbEntity
  8
Ebene_1
 62
7
100
AcDbSpline
 70
8
 71
3
 72
8
 73
4
 74
0
 40
0
 40
0
 40
0
 40
0
 40
1
 40
1
 40
1
 40
1
 10
-273.112470
 20
41.794640
 30
0.0
 10
-272.449429
 20
41.794640
 30
0.0
 10
-271.813544
 20
41.531248
 30
0.0
 10
-271.344703
 20
41.062407
 30
0.0
  0
SPLINE
  5
128
100
AcDbEntity
  8
Ebene_1
 62
7
100
AcDbSpline
 70
8
 71
3
 72
8
 73
4
 74
0
 40
0
 40
0
 40
0
 40
0
 40
1
 40
1
 40
1
 40
1
 10
-271.344703
 20
41.062407
 30
0.0
 10
-270.875862
 20
40.593566
 30
0.0
 10
-270.612470
 20
39.957681
 30
0.0
 10
-270.612470
 20
39.294640
 30
0.0
  0
SPLINE
  5
129
100
AcDbEntity
  8
Ebene_1
 62
7
100
AcDbSpline
 70
8
 71
3
 72
8
 73
4
 74
0
 40
0
 40
0
 40
0
 40
0
 40
1
 40
1
 40
1
 40
1
 10
-270.612470
 20
39.294640
 30
0.0
 10
-270.612470
 20
38.631599
 30
0.0
 10
-270.875862
 20
37.995714
 30
0.0
 10
-271.344703
 20
37.526873
 30
0.0
  0
SPLINE
  5
12a
100
AcDbEntity
  8
Ebene_1
 62
7
100
AcDbSpline
 70
8
 71
3
 72
8
 73
4
 74
0
 40
0
 40
0
 40
0
 40
0
 40
1
 40
1
 40
1
 40
1
 10
-271.344703
 20
37.526873
 30
0.0
 10
-271.813544
 20
37.058032
 30
0.0
 10
-272.449429
 20
36.794640
 30
0.0
 10
-273.112470
 20
36.794640
 30
0.0
  0
SPLINE
  5
12b
100
AcDbEntity
  8
Ebene_1
 62
7
100
AcDbSpline
 70
8
 71
3
 72
8
 73
4
 74
0
 40
0
 40
0
 40
0
 40
0
 40
1
 40
1
 40
1
 40
1
 10
-273.112470
 20
36.794640
 30
0.0
 10
-273.775511
 20
36.794640
 30
0.0
 10
-274.411396
 20
37.058032
 30
0.0
 10
-274.880237
 20
37.526873
 30
0.0
  0
SPLINE
  5
12c
100
AcDbEntity
  8
Ebene_1
 62
7
100
AcDbSpline
 70
8
 71
3
 72
8
 73
4
 74
0
 40
0
 40
0
 40
0
 40
0
 40
1
 40
1
 40
1
 40
1
 10
-274.880237
 20
37.526873
 30
0.0
 10
-275.349078
 20
37.995714
 30
0.0
 10
-275.612470
 20
38.631599
 30
0.0
 10
-275.612470
 20
39.294640
 30
0.0
  0
SPLINE
  5
12d
100
AcDbEntity
  8
Ebene_1
 62
7
100
AcDbSpline
 70
8
 71
3
 72
8
 73
4
 74
0
 40
0
 40
0
 40
0
 40
0
 40
1
 40
1
 40
1
 40
1
 10
-275.612470
 20
39.294640
 30
0.0
 10
-275.612470
 20
39.957681
 30
0.0
 10
-275.349078
 20
40.593566
 30
0.0
 10
-274.880237
 20
41.062407
 30
0.0
  0
SPLINE
  5
12e
100
AcDbEntity
  8
Ebene_1
 62
7
100
AcDbSpline
 70
8
 71
3
 72
8
 73
4
 74
0
 40
0
 40
0
 40
0
 40
0
 40
1
 40
1
 40
1
 40
1
 10
-274.880237
 20
41.062407
 30
0.0
 10
-274.411396
 20
41.531248
 30
0.0
 10
-273.775511
 20
41.794640
 30
0.0
 10
-273.112470
 20
41.794640
 30
0.0
  0
LWPOLYLINE
  5
12f
100
AcDbEntity
  8
Ebene_1
 62
7
100
AcDbPolyline
 90
1
 70
1
 10
-273.112470
 20
196.794640
 30
0.0
  0
SPLINE
  5
130
100
AcDbEntity
  8
Ebene_1
 62
7
100
AcDbSpline
 70
8
 71
3
 72
8
 73
4
 74
0
 40
0
 40
0
 40
0
 40
0
 40
1
 40
1
 40
1
 40
1
 10
-203.531100
 20
44.563640
 30
0.0
 10
-203.768480
 20
45.815610
 30
0.0
 10
-224.195880
 20
159.860800
 30
0.0
 10
-224.195880
 20
159.934150
 30
0.0
  0
SPLINE
  5
131
100
AcDbEntity
  8
Ebene_1
 62
7
100
AcDbSpline
 70
8
 71
3
 72
8
 73
4
 74
0
 40
0
 40
0
 40
0
 40
0
 40
1
 40
1
 40
1
 40
1
 10
-224.195880
 20
159.934150
 30
0.0
 10
-224.195880
 20
160.038430
 30
0.0
 10
-230.229250
 20
159.885950
 30
0.0
 10
-233.261890
 20
159.704930
 30
0.0
  0
SPLINE
  5
132
100
AcDbEntity
  8
Ebene_1
 62
7
100
AcDbSpline
 70
8
 71
3
 72
8
 73
4
 74
0
 40
0
 40
0
 40
0
 40
0
 40
1
 40
1
 40
1
 40
1
 10
-233.261890
 20
159.704930
 30
0.0
 10
-242.286980
 20
159.166730
 30
0.0
 10
-246.928830
 20
157.586300
 30
0.0
 10
-249.172350
 20
154.287810
 30
0.0
  0
SPLINE
  5
133
100
AcDbEntity
  8
Ebene_1
 62
7
100
AcDbSpline
 70
8
 71
3
 72
8
 73
4
 74
0
 40
0
 40
0
 40
0
 40
0
 40
1
 40
1
 40
1
 40
1
 10
-249.172350
 20
154.287810
 30
0.0
 10
-249.999500
 20
153.071680
 30
0.0
 10
-250.344850
 20
152.204560
 30
0.0
 10
-250.705880
 20
150.437480
 30
0.0
  0
SPLINE
  5
134
100
AcDbEntity
  8
Ebene_1
 62
7
100
AcDbSpline
 70
8
 71
3
 72
8
 73
4
 74
0
 40
0
 40
0
 40
0
 40
0
 40
1
 40
1
 40
1
 40
1
 10
-250.705880
 20
150.437480
 30
0.0
 10
-250.852440
 20
149.719500
 30
0.0
 10
-250.999260
 20
149.105310
 30
0.0
 10
-251.031960
 20
149.072620
 30
0.0
  0
SPLINE
  5
135
100
AcDbEntity
  8
Ebene_1
 62
7
100
AcDbSpline
 70
8
 71
3
 72
8
 73
4
 74
0
 40
0
 40
0
 40
0
 40
0
 40
1
 40
1
 40
1
 40
1
 10
-251.031960
 20
149.072620
 30
0.0
 10
-251.141730
 20
148.962970
 30
0.0
 10
-254.892460
 20
150.744860
 30
0.0
 10
-256.771630
 20
151.799860
 30
0.0
  0
SPLINE
  5
136
100
AcDbEntity
  8
Ebene_1
 62
7
100
AcDbSpline
 70
8
 71
3
 72
8
 73
4
 74
0
 40
0
 40
0
 40
0
 40
0
 40
1
 40
1
 40
1
 40
1
 10
-256.771630
 20
151.799860
 30
0.0
 10
-262.392290
 20
154.955410
 30
0.0
 10
-266.804980
 20
158.608960
 30
0.0
 10
-269.806790
 20
162.592720
 30
0.0
  0
SPLINE
  5
137
100
AcDbEntity
  8
Ebene_1
 62
7
100
AcDbSpline
 70
8
 71
3
 72
8
 73
4
 74
0
 40
0
 40
0
 40
0
 40
0
 40
1
 40
1
 40
1
 40
1
 10
-269.806790
 20
162.592720
 30
0.0
 10
-270.247840
 20
163.177980
 30
0.0
 10
-270.608650
 20
163.704710
 30
0.0
 10
-270.608650
 20
163.763270
 30
0.0
  0
SPLINE
  5
138
100
AcDbEntity
  8
Ebene_1
 62
7
100
AcDbSpline
 70
8
 71
3
 72
8
 73
4
 74
0
 40
0
 40
0
 40
0
 40
0
 40
1
 40
1
 40
1
 40
1
 10
-270.608650
 20
163.763270
 30
0.0
 10
-270.608650
 20
163.822070
 30
0.0
 10
-270.380300
 20
163.964240
 30
0.0
 10
-270.101250
 20
164.079730
 30
0.0
  0
SPLINE
  5
139
100
AcDbEntity
  8
Ebene_1
 62
7
100
AcDbSpline
 70
8
 71
3
 72
8
 73
4
 74
0
 40
0
 40
0
 40
0
 40
0
 40
1
 40
1
 40
1
 40
1
 10
-270.101250
 20
164.079730
 30
0.0
 10
-269.822140
 20
164.195350
 30
0.0
 10
-268.619540
 20
164.713550
 30
0.0
 10
-267.428750
 20
165.231570
 30
0.0
  0
SPLINE
  5
13a
100
AcDbEntity
  8
Ebene_1
 62
7
100
AcDbSpline
 70
8
 71
3
 72
8
 73
4
 74
0
 40
0
 40
0
 40
0
 40
0
 40
1
 40
1
 40
1
 40
1
 10
-267.428750
 20
165.231570
 30
0.0
 10
-253.785590
 20
171.166920
 30
0.0
 10
-236.051560
 20
175.315650
 30
0.0
 10
-220.136440
 20
176.295170
 30
0.0
  0
LWPOLYLINE
  5
13b
100
AcDbEntity
  8
Ebene_1
 62
7
100
AcDbPolyline
 90
1
 70
1
 10
-273.112470
 20
41.794640
 30
0.0
  0
SPLINE
  5
13c
100
AcDbEntity
  8
Ebene_1
 62
7
100
AcDbSpline
 70
8
 71
3
 72
8
 73
4
 74
0
 40
0
 40
0
 40
0
 40
0
 40
1
 40
1
 40
1
 40
1
 10
-211.089450
 20
167.089850
 30
0.0
 10
-206.895070
 20
161.978870
 30
0.0
 10
-203.416890
 20
157.848340
 30
0.0
 10
-203.360160
 20
157.910890
 30
0.0
  0
SPLINE
  5
13d
100
AcDbEntity
  8
Ebene_1
 62
7
100
AcDbSpline
 70
8
 71
3
 72
8
 73
4
 74
0
 40
0
 40
0
 40
0
 40
0
 40
1
 40
1
 40
1
 40
1
 10
-203.360160
 20
157.910890
 30
0.0
 10
-203.303560
 20
157.973390
 30
0.0
 10
-199.899180
 20
162.116640
 30
0.0
 10
-195.795160
 20
167.117880
 30
0.0
  0
SPLINE
  5
13e
100
AcDbEntity
  8
Ebene_1
 62
7
100
AcDbSpline
 70
8
 71
3
 72
8
 73
4
 74
0
 40
0
 40
0
 40
0
 40
0
 40
1
 40
1
 40
1
 40
1
 10
-195.795160
 20
167.117880
 30
0.0
 10
-191.691120
 20
172.119150
 30
0.0
 10
-188.270550
 20
176.249900
 30
0.0
 10
-188.193950
 20
176.297260
 30
0.0
  0
SPLINE
  5
13f
100
AcDbEntity
  8
Ebene_1
 62
7
100
AcDbSpline
 70
8
 71
3
 72
8
 73
4
 74
0
 40
0
 40
0
 40
0
 40
0
 40
1
 40
1
 40
1
 40
1
 10
-188.193950
 20
176.297260
 30
0.0
 10
-188.034120
 20
176.395960
 30
0.0
 10
-184.620950
 20
176.176000
 30
0.0
 10
-181.639540
 20
175.874530
 30
0.0
  0
SPLINE
  5
140
100
AcDbEntity
  8
Ebene_1
 62
7
100
AcDbSpline
 70
8
 71
3
 72
8
 73
4
 74
0
 40
0
 40
0
 40
0
 40
0
 40
1
 40
1
 40
1
 40
1
 10
-181.639540
 20
175.874530
 30
0.0
 10
-169.066510
 20
174.603580
 30
0.0
 10
-156.438820
 20
171.694170
 30
0.0
 10
-144.969360
 20
167.425720
 30
0.0
  0
SPLINE
  5
141
100
AcDbEntity
  8
Ebene_1
 62
7
100
AcDbSpline
 70
8
 71
3
 72
8
 73
4
 74
0
 40
0
 40
0
 40
0
 40
0
 40
1
 40
1
 40
1
 40
1
 10
-144.969360
 20
167.425720
 30
0.0
 10
-142.262500
 20
166.418370
 30
0.0
 10
-137.908380
 20
164.620340
 30
0.0
 10
-136.772810
 20
164.041050
 30
0.0
  0
LWPOLYLINE
  5
142
100
AcDbEntity
  8
Ebene_1
 62
7
100
AcDbPolyline
 90
3
 70
0
 10
-220.136440
 20
176.295170
 30
0.0
 10
-218.715680
 20
176.382670
 30
0.0
 10
-211.089450
 20
167.089850
 30
0.0
  0
SPLINE
  5
143
100
AcDbEntity
  8
Ebene_1
 62
7
100
AcDbSpline
 70
8
 71
3
 72
8
 73
4
 74
0
 40
0
 40
0
 40
0
 40
0
 40
1
 40
1
 40
1
 40
1
 10
-136.926620
 20
162.829560
 30
0.0
 10
-139.586040
 20
159.173200
 30
0.0
 10
-143.755180
 20
155.580040
 30
0.0
 10
-148.918270
 20
152.494610
 30
0.0
  0
SPLINE
  5
144
100
AcDbEntity
  8
Ebene_1
 62
7
100
AcDbSpline
 70
8
 71
3
 72
8
 73
4
 74
0
 40
0
 40
0
 40
0
 40
0
 40
1
 40
1
 40
1
 40
1
 10
-148.918270
 20
152.494610
 30
0.0
 10
-150.338210
 20
151.646040
 30
0.0
 10
-155.038730
 20
149.286790
 30
0.0
 10
-155.679620
 20
149.101000
 30
0.0
  0
SPLINE
  5
145
100
AcDbEntity
  8
Ebene_1
 62
7
100
AcDbSpline
 70
8
 71
3
 72
8
 73
4
 74
0
 40
0
 40
0
 40
0
 40
0
 40
1
 40
1
 40
1
 40
1
 10
-155.679620
 20
149.101000
 30
0.0
 10
-155.944110
 20
149.024300
 30
0.0
 10
-155.979580
 20
149.081900
 30
0.0
 10
-156.067570
 20
149.731850
 30
0.0
  0
SPLINE
  5
146
100
AcDbEntity
  8
Ebene_1
 62
7
100
AcDbSpline
 70
8
 71
3
 72
8
 73
4
 74
0
 40
0
 40
0
 40
0
 40
0
 40
1
 40
1
 40
1
 40
1
 10
-156.067570
 20
149.731850
 30
0.0
 10
-156.120770
 20
150.125260
 30
0.0
 10
-156.313190
 20
150.963090
 30
0.0
 10
-156.495040
 20
151.593670
 30
0.0
  0
SPLINE
  5
147
100
AcDbEntity
  8
Ebene_1
 62
7
100
AcDbSpline
 70
8
 71
3
 72
8
 73
4
 74
0
 40
0
 40
0
 40
0
 40
0
 40
1
 40
1
 40
1
 40
1
 10
-156.495040
 20
151.593670
 30
0.0
 10
-157.927020
 20
156.559430
 30
0.0
 10
-162.158030
 20
158.764500
 30
0.0
 10
-171.829240
 20
159.585180
 30
0.0
  0
SPLINE
  5
148
100
AcDbEntity
  8
Ebene_1
 62
7
100
AcDbSpline
 70
8
 71
3
 72
8
 73
4
 74
0
 40
0
 40
0
 40
0
 40
0
 40
1
 40
1
 40
1
 40
1
 10
-171.829240
 20
159.585180
 30
0.0
 10
-173.935080
 20
159.763870
 30
0.0
 10
-182.692960
 20
159.993230
 30
0.0
 10
-182.803010
 20
159.872510
 30
0.0
  0
SPLINE
  5
149
100
AcDbEntity
  8
Ebene_1
 62
7
100
AcDbSpline
 70
8
 71
3
 72
8
 73
4
 74
0
 40
0
 40
0
 40
0
 40
0
 40
1
 40
1
 40
1
 40
1
 10
-182.803010
 20
159.872510
 30
0.0
 10
-182.859410
 20
159.810710
 30
0.0
 10
-199.766010
 20
64.969140
 30
0.0
 10
-203.334090
 20
44.699060
 30
0.0
  0
LWPOLYLINE
  5
14a
100
AcDbEntity
  8
Ebene_1
 62
7
100
AcDbPolyline
 90
3
 70
0
 10
-136.772810
 20
164.041050
 30
0.0
 10
-136.242310
 20
163.770400
 30
0.0
 10
-136.926620
 20
162.829560
 30
0.0
  0
SPLINE
  5
14b
100
AcDbEntity
  8
Ebene_1
 62
7
100
AcDbSpline
 70
8
 71
3
 72
8
 73
4
 74
0
 40
0
 40
0
 40
0
 40
0
 40
1
 40
1
 40
1
 40
1
 10
-136.241580
 20
168.879620
 30
0.0
 10
-152.402670
 20
175.695490
 30
0.0
 10
-170.763610
 20
180.032670
 30
0.0
 10
-189.081850
 20
181.361410
 30
0.0
  0
SPLINE
  5
14c
100
AcDbEntity
  8
Ebene_1
 62
7
100
AcDbSpline
 70
8
 71
3
 72
8
 73
4
 74
0
 40
0
 40
0
 40
0
 40
0
 40
1
 40
1
 40
1
 40
1
 10
-189.081850
 20
181.361410
 30
0.0
 10
-194.967080
 20
181.788320
 30
0.0
 10
-207.193640
 20
181.928110
 30
0.0
 10
-213.114090
 20
181.636200
 30
0.0
  0
SPLINE
  5
14d
100
AcDbEntity
  8
Ebene_1
 62
7
100
AcDbSpline
 70
8
 71
3
 72
8
 73
4
 74
0
 40
0
 40
0
 40
0
 40
0
 40
1
 40
1
 40
1
 40
1
 10
-213.114090
 20
181.636200
 30
0.0
 10
-233.631200
 20
180.624600
 30
0.0
 10
-252.507330
 20
176.443300
 30
0.0
 10
-270.648370
 20
168.891720
 30
0.0
  0
SPLINE
  5
14e
100
AcDbEntity
  8
Ebene_1
 62
7
100
AcDbSpline
 70
8
 71
3
 72
8
 73
4
 74
0
 40
0
 40
0
 40
0
 40
0
 40
1
 40
1
 40
1
 40
1
 10
-270.648370
 20
168.891720
 30
0.0
 10
-271.898240
 20
168.371470
 30
0.0
 10
-272.998610
 20
167.975620
 30
0.0
 10
-273.093770
 20
168.012110
 30
0.0
  0
SPLINE
  5
14f
100
AcDbEntity
  8
Ebene_1
 62
7
100
AcDbSpline
 70
8
 71
3
 72
8
 73
4
 74
0
 40
0
 40
0
 40
0
 40
0
 40
1
 40
1
 40
1
 40
1
 10
-273.093770
 20
168.012110
 30
0.0
 10
-273.189070
 20
168.048710
 30
0.0
 10
-273.971370
 20
169.500270
 30
0.0
 10
-274.832560
 20
171.238050
 30
0.0
  0
SPLINE
  5
150
100
AcDbEntity
  8
Ebene_1
 62
7
100
AcDbSpline
 70
8
 71
3
 72
8
 73
4
 74
0
 40
0
 40
0
 40
0
 40
0
 40
1
 40
1
 40
1
 40
1
 10
-274.832560
 20
171.238050
 30
0.0
 10
-276.443960
 20
174.489330
 30
0.0
 10
-277.194920
 20
176.178310
 30
0.0
 10
-277.080140
 20
176.293090
 30
0.0
  0
SPLINE
  5
151
100
AcDbEntity
  8
Ebene_1
 62
7
100
AcDbSpline
 70
8
 71
3
 72
8
 73
4
 74
0
 40
0
 40
0
 40
0
 40
0
 40
1
 40
1
 40
1
 40
1
 10
-277.080140
 20
176.293090
 30
0.0
 10
-276.962610
 20
176.410620
 30
0.0
 10
-272.231580
 20
178.197850
 30
0.0
 10
-269.458470
 20
179.172440
 30
0.0
  0
SPLINE
  5
152
100
AcDbEntity
  8
Ebene_1
 62
7
100
AcDbSpline
 70
8
 71
3
 72
8
 73
4
 74
0
 40
0
 40
0
 40
0
 40
0
 40
1
 40
1
 40
1
 40
1
 10
-269.458470
 20
179.172440
 30
0.0
 10
-243.461520
 20
188.309040
 30
0.0
 10
-215.697400
 20
192.095210
 30
0.0
 10
-189.420120
 20
190.087320
 30
0.0
  0
SPLINE
  5
153
100
AcDbEntity
  8
Ebene_1
 62
7
100
AcDbSpline
 70
8
 71
3
 72
8
 73
4
 74
0
 40
0
 40
0
 40
0
 40
0
 40
1
 40
1
 40
1
 40
1
 10
-189.420120
 20
190.087320
 30
0.0
 10
-169.766250
 20
188.585560
 30
0.0
 10
-151.243410
 20
184.439750
 30
0.0
 10
-132.388390
 20
177.322470
 30
0.0
  0
SPLINE
  5
154
100
AcDbEntity
  8
Ebene_1
 62
7
100
AcDbSpline
 70
8
 71
3
 72
8
 73
4
 74
0
 40
0
 40
0
 40
0
 40
0
 40
1
 40
1
 40
1
 40
1
 10
-132.388390
 20
177.322470
 30
0.0
 10
-130.984600
 20
176.792550
 30
0.0
 10
-129.811900
 20
176.334890
 30
0.0
 10
-129.782420
 20
176.305390
 30
0.0
  0
SPLINE
  5
155
100
AcDbEntity
  8
Ebene_1
 62
7
100
AcDbSpline
 70
8
 71
3
 72
8
 73
4
 74
0
 40
0
 40
0
 40
0
 40
0
 40
1
 40
1
 40
1
 40
1
 10
-129.782420
 20
176.305390
 30
0.0
 10
-129.628280
 20
176.151270
 30
0.0
 10
-133.398380
 20
168.280980
 30
0.0
 10
-133.780390
 20
167.959370
 30
0.0
  0
SPLINE
  5
156
100
AcDbEntity
  8
Ebene_1
 62
7
100
AcDbSpline
 70
8
 71
3
 72
8
 73
4
 74
0
 40
0
 40
0
 40
0
 40
0
 40
1
 40
1
 40
1
 40
1
 10
-133.780390
 20
167.959370
 30
0.0
 10
-133.831690
 20
167.916270
 30
0.0
 10
-134.939180
 20
168.330340
 30
0.0
 10
-136.241580
 20
168.879620
 30
0.0
  0
LWPOLYLINE
  5
157
100
AcDbEntity
  8
Ebene_1
 62
7
100
AcDbPolyline
 90
3
 70
0
 10
-203.334090
 20
44.699060
 30
0.0
 10
-203.441240
 20
44.090170
 30
0.0
 10
-203.531100
 20
44.563640
 30
0.0
  0
LWPOLYLINE
  5
158
100
AcDbEntity
  8
Ebene_1
 62
7
100
AcDbPolyline
 90
1
 70
1
 10
-136.241580
 20
168.879620
 30
0.0
  0
SPLINE
  5
159
100
AcDbEntity
  8
Ebene_1
 62
7
100
AcDbSpline
 70
8
 71
3
 72
8
 73
4
 74
0
 40
0
 40
0
 40
0
 40
0
 40
1
 40
1
 40
1
 40
1
 10
-171.922022
 20
132.792574
 30
0.0
 10
-173.062667
 20
132.792574
 30
0.0
 10
-174.023765
 20
133.183352
 30
0.0
 10
-174.805313
 20
133.964906
 30
0.0
  0
SPLINE
  5
15a
100
AcDbEntity
  8
Ebene_1
 62
7
100
AcDbSpline
 70
8
 71
3
 72
8
 73
4
 74
0
 40
0
 40
0
 40
0
 40
0
 40
1
 40
1
 40
1
 40
1
 10
-174.805313
 20
133.964906
 30
0.0
 10
-175.586868
 20
134.767581
 30
0.0
 10
-175.977645
 20
135.728679
 30
0.0
 10
-175.977645
 20
136.848198
 30
0.0
  0
LWPOLYLINE
  5
15b
100
AcDbEntity
  8
Ebene_1
 62
7
100
AcDbPolyline
 90
3
 70
0
 10
-165.838591
 20
116.570098
 30
0.0
 10
-165.838591
 20
132.792574
 30
0.0
 10
-171.922022
 20
132.792574
 30
0.0
  0
SPLINE
  5
15c
100
AcDbEntity
  8
Ebene_1
 62
7
100
AcDbSpline
 70
8
 71
3
 72
8
 73
4
 74
0
 40
0
 40
0
 40
0
 40
0
 40
1
 40
1
 40
1
 40
1
 10
-151.643922
 20
136.848198
 30
0.0
 10
-151.643922
 20
135.707552
 30
0.0
 10
-152.045259
 20
134.746455
 30
0.0
 10
-152.847934
 20
133.964906
 30
0.0
  0
SPLINE
  5
15d
100
AcDbEntity
  8
Ebene_1
 62
7
100
AcDbSpline
 70
8
 71
3
 72
8
 73
4
 74
0
 40
0
 40
0
 40
0
 40
0
 40
1
 40
1
 40
1
 40
1
 10
-152.847934
 20
133.964906
 30
0.0
 10
-153.650609
 20
133.183352
 30
0.0
 10
-154.601146
 20
132.792574
 30
0.0
 10
-155.699545
 20
132.792574
 30
0.0
  0
LWPOLYLINE
  5
15e
100
AcDbEntity
  8
Ebene_1
 62
7
100
AcDbPolyline
 90
2
 70
0
 10
-175.977645
 20
136.848198
 30
0.0
 10
-151.643922
 20
136.848198
 30
0.0
  0
SPLINE
  5
15f
100
AcDbEntity
  8
Ebene_1
 62
7
100
AcDbSpline
 70
8
 71
3
 72
8
 73
4
 74
0
 40
0
 40
0
 40
0
 40
0
 40
1
 40
1
 40
1
 40
1
 10
-143.532683
 20
116.570098
 30
0.0
 10
-144.673329
 20
116.570098
 30
0.0
 10
-145.634426
 20
116.960872
 30
0.0
 10
-146.415975
 20
117.742421
 30
0.0
  0
SPLINE
  5
160
100
AcDbEntity
  8
Ebene_1
 62
7
100
AcDbSpline
 70
8
 71
3
 72
8
 73
4
 74
0
 40
0
 40
0
 40
0
 40
0
 40
1
 40
1
 40
1
 40
1
 10
-146.415975
 20
117.742421
 30
0.0
 10
-147.197530
 20
118.545096
 30
0.0
 10
-147.588307
 20
119.506196
 30
0.0
 10
-147.588307
 20
120.625722
 30
0.0
  0
LWPOLYLINE
  5
161
100
AcDbEntity
  8
Ebene_1
 62
7
100
AcDbPolyline
 90
4
 70
0
 10
-155.699545
 20
132.792574
 30
0.0
 10
-161.782976
 20
132.792574
 30
0.0
 10
-161.782976
 20
116.570098
 30
0.0
 10
-165.838591
 20
116.570098
 30
0.0
  0
SPLINE
  5
162
100
AcDbEntity
  8
Ebene_1
 62
7
100
AcDbSpline
 70
8
 71
3
 72
8
 73
4
 74
0
 40
0
 40
0
 40
0
 40
0
 40
1
 40
1
 40
1
 40
1
 10
-123.254583
 20
120.625722
 30
0.0
 10
-123.254583
 20
119.485076
 30
0.0
 10
-123.655920
 20
118.523976
 30
0.0
 10
-124.458595
 20
117.742421
 30
0.0
  0
SPLINE
  5
163
100
AcDbEntity
  8
Ebene_1
 62
7
100
AcDbSpline
 70
8
 71
3
 72
8
 73
4
 74
0
 40
0
 40
0
 40
0
 40
0
 40
1
 40
1
 40
1
 40
1
 10
-124.458595
 20
117.742421
 30
0.0
 10
-125.261270
 20
116.960872
 30
0.0
 10
-126.211807
 20
116.570098
 30
0.0
 10
-127.310207
 20
116.570098
 30
0.0
  0
LWPOLYLINE
  5
164
100
AcDbEntity
  8
Ebene_1
 62
7
100
AcDbPolyline
 90
2
 70
0
 10
-147.588307
 20
120.625722
 30
0.0
 10
-123.254583
 20
120.625722
 30
0.0
  0
SPLINE
  5
165
100
AcDbEntity
  8
Ebene_1
 62
7
100
AcDbSpline
 70
8
 71
3
 72
8
 73
4
 74
0
 40
0
 40
0
 40
0
 40
0
 40
1
 40
1
 40
1
 40
1
 10
-143.532683
 20
124.681336
 30
0.0
 10
-144.673329
 20
124.681336
 30
0.0
 10
-145.634426
 20
125.072114
 30
0.0
 10
-146.415975
 20
125.853668
 30
0.0
  0
SPLINE
  5
166
100
AcDbEntity
  8
Ebene_1
 62
7
100
AcDbSpline
 70
8
 71
3
 72
8
 73
4
 74
0
 40
0
 40
0
 40
0
 40
0
 40
1
 40
1
 40
1
 40
1
 10
-146.415975
 20
125.853668
 30
0.0
 10
-147.197530
 20
126.656343
 30
0.0
 10
-147.588307
 20
127.617440
 30
0.0
 10
-147.588307
 20
128.736960
 30
0.0
  0
LWPOLYLINE
  5
167
100
AcDbEntity
  8
Ebene_1
 62
7
100
AcDbPolyline
 90
2
 70
0
 10
-127.310207
 20
116.570098
 30
0.0
 10
-143.532683
 20
116.570098
 30
0.0
  0
SPLINE
  5
168
100
AcDbEntity
  8
Ebene_1
 62
7
100
AcDbSpline
 70
8
 71
3
 72
8
 73
4
 74
0
 40
0
 40
0
 40
0
 40
0
 40
1
 40
1
 40
1
 40
1
 10
-123.254583
 20
128.736960
 30
0.0
 10
-123.254583
 20
127.596314
 30
0.0
 10
-123.655920
 20
126.635217
 30
0.0
 10
-124.458595
 20
125.853668
 30
0.0
  0
SPLINE
  5
169
100
AcDbEntity
  8
Ebene_1
 62
7
100
AcDbSpline
 70
8
 71
3
 72
8
 73
4
 74
0
 40
0
 40
0
 40
0
 40
0
 40
1
 40
1
 40
1
 40
1
 10
-124.458595
 20
125.853668
 30
0.0
 10
-125.261270
 20
125.072114
 30
0.0
 10
-126.211807
 20
124.681336
 30
0.0
 10
-127.310207
 20
124.681336
 30
0.0
  0
LWPOLYLINE
  5
16a
100
AcDbEntity
  8
Ebene_1
 62
7
100
AcDbPolyline
 90
2
 70
0
 10
-147.588307
 20
128.736960
 30
0.0
 10
-123.254583
 20
128.736960
 30
0.0
  0
SPLINE
  5
16b
100
AcDbEntity
  8
Ebene_1
 62
7
100
AcDbSpline
 70
8
 71
3
 72
8
 73
4
 74
0
 40
0
 40
0
 40
0
 40
0
 40
1
 40
1
 40
1
 40
1
 10
-143.532683
 20
132.792574
 30
0.0
 10
-144.673329
 20
132.792574
 30
0.0
 10
-145.634426
 20
133.183352
 30
0.0
 10
-146.415975
 20
133.964906
 30
0.0
  0
SPLINE
  5
16c
100
AcDbEntity
  8
Ebene_1
 62
7
100
AcDbSpline
 70
8
 71
3
 72
8
 73
4
 74
0
 40
0
 40
0
 40
0
 40
0
 40
1
 40
1
 40
1
 40
1
 10
-146.415975
 20
133.964906
 30
0.0
 10
-147.197530
 20
134.767581
 30
0.0
 10
-147.588307
 20
135.728679
 30
0.0
 10
-147.588307
 20
136.848198
 30
0.0
  0
LWPOLYLINE
  5
16d
100
AcDbEntity
  8
Ebene_1
 62
7
100
AcDbPolyline
 90
2
 70
0
 10
-127.310207
 20
124.681336
 30
0.0
 10
-143.532683
 20
124.681336
 30
0.0
  0
SPLINE
  5
16e
100
AcDbEntity
  8
Ebene_1
 62
7
100
AcDbSpline
 70
8
 71
3
 72
8
 73
4
 74
0
 40
0
 40
0
 40
0
 40
0
 40
1
 40
1
 40
1
 40
1
 10
-123.254583
 20
136.848198
 30
0.0
 10
-123.254583
 20
135.707552
 30
0.0
 10
-123.655920
 20
134.746455
 30
0.0
 10
-124.458595
 20
133.964906
 30
0.0
  0
SPLINE
  5
16f
100
AcDbEntity
  8
Ebene_1
 62
7
100
AcDbSpline
 70
8
 71
3
 72
8
 73
4
 74
0
 40
0
 40
0
 40
0
 40
0
 40
1
 40
1
 40
1
 40
1
 10
-124.458595
 20
133.964906
 30
0.0
 10
-125.261270
 20
133.183352
 30
0.0
 10
-126.211807
 20
132.792574
 30
0.0
 10
-127.310207
 20
132.792574
 30
0.0
  0
LWPOLYLINE
  5
170
100
AcDbEntity
  8
Ebene_1
 62
7
100
AcDbPolyline
 90
2
 70
0
 10
-147.588307
 20
136.848198
 30
0.0
 10
-123.254583
 20
136.848198
 30
0.0
  0
SPLINE
  5
171
100
AcDbEntity
  8
Ebene_1
 62
7
100
AcDbSpline
 70
8
 71
3
 72
8
 73
4
 74
0
 40
0
 40
0
 40
0
 40
0
 40
1
 40
1
 40
1
 40
1
 10
-119.198968
 20
116.570098
 30
0.0
 10
-119.198968
 20
117.689617
 30
0.0
 10
-118.808191
 20
118.640155
 30
0.0
 10
-118.026636
 20
119.421709
 30
0.0
  0
SPLINE
  5
172
100
AcDbEntity
  8
Ebene_1
 62
7
100
AcDbSpline
 70
8
 71
3
 72
8
 73
4
 74
0
 40
0
 40
0
 40
0
 40
0
 40
1
 40
1
 40
1
 40
1
 10
-118.026636
 20
119.421709
 30
0.0
 10
-117.223961
 20
120.224384
 30
0.0
 10
-116.262864
 20
120.625722
 30
0.0
 10
-115.143345
 20
120.625722
 30
0.0
  0
LWPOLYLINE
  5
173
100
AcDbEntity
  8
Ebene_1
 62
7
100
AcDbPolyline
 90
2
 70
0
 10
-127.310207
 20
132.792574
 30
0.0
 10
-143.532683
 20
132.792574
 30
0.0
  0
SPLINE
  5
174
100
AcDbEntity
  8
Ebene_1
 62
7
100
AcDbSpline
 70
8
 71
3
 72
8
 73
4
 74
0
 40
0
 40
0
 40
0
 40
0
 40
1
 40
1
 40
1
 40
1
 10
-94.865248
 20
136.848198
 30
0.0
 10
-94.865248
 20
135.707552
 30
0.0
 10
-95.266586
 20
134.746455
 30
0.0
 10
-96.069260
 20
133.964906
 30
0.0
  0
SPLINE
  5
175
100
AcDbEntity
  8
Ebene_1
 62
7
100
AcDbSpline
 70
8
 71
3
 72
8
 73
4
 74
0
 40
0
 40
0
 40
0
 40
0
 40
1
 40
1
 40
1
 40
1
 10
-96.069260
 20
133.964906
 30
0.0
 10
-96.871935
 20
133.183352
 30
0.0
 10
-97.822470
 20
132.792574
 30
0.0
 10
-98.920867
 20
132.792574
 30
0.0
  0
LWPOLYLINE
  5
176
100
AcDbEntity
  8
Ebene_1
 62
7
100
AcDbPolyline
 90
6
 70
0
 10
-115.143345
 20
120.625722
 30
0.0
 10
-98.920867
 20
120.625722
 30
0.0
 10
-98.920867
 20
124.681336
 30
0.0
 10
-119.198968
 20
124.681336
 30
0.0
 10
-119.198968
 20
136.848198
 30
0.0
 10
-94.865248
 20
136.848198
 30
0.0
  0
LWPOLYLINE
  5
177
100
AcDbEntity
  8
Ebene_1
 62
7
100
AcDbPolyline
 90
6
 70
0
 10
-98.920867
 20
132.792574
 30
0.0
 10
-115.143345
 20
132.792574
 30
0.0
 10
-115.143345
 20
128.736960
 30
0.0
 10
-94.865248
 20
128.736960
 30
0.0
 10
-94.865248
 20
116.570098
 30
0.0
 10
-119.198968
 20
116.570098
 30
0.0
  0
SPLINE
  5
178
100
AcDbEntity
  8
Ebene_1
 62
7
100
AcDbSpline
 70
8
 71
3
 72
8
 73
4
 74
0
 40
0
 40
0
 40
0
 40
0
 40
1
 40
1
 40
1
 40
1
 10
-66.475910
 20
120.625722
 30
0.0
 10
-66.475910
 20
119.485076
 30
0.0
 10
-66.877247
 20
118.523976
 30
0.0
 10
-67.679922
 20
117.742421
 30
0.0
  0
SPLINE
  5
179
100
AcDbEntity
  8
Ebene_1
 62
7
100
AcDbSpline
 70
8
 71
3
 72
8
 73
4
 74
0
 40
0
 40
0
 40
0
 40
0
 40
1
 40
1
 40
1
 40
1
 10
-67.679922
 20
117.742421
 30
0.0
 10
-68.482597
 20
116.960872
 30
0.0
 10
-69.433133
 20
116.570098
 30
0.0
 10
-70.531530
 20
116.570098
 30
0.0
  0
LWPOLYLINE
  5
17a
100
AcDbEntity
  8
Ebene_1
 62
7
100
AcDbPolyline
 90
5
 70
0
 10
-90.809628
 20
116.570098
 30
0.0
 10
-90.809628
 20
136.848198
 30
0.0
 10
-86.754009
 20
136.848198
 30
0.0
 10
-86.754009
 20
120.625722
 30
0.0
 10
-66.475910
 20
120.625722
 30
0.0
  0
LWPOLYLINE
  5
17b
100
AcDbEntity
  8
Ebene_1
 62
7
100
AcDbPolyline
 90
2
 70
0
 10
-70.531530
 20
116.570098
 30
0.0
 10
-90.809628
 20
116.570098
 30
0.0
  0
SPLINE
  5
17c
100
AcDbEntity
  8
Ebene_1
 62
7
100
AcDbSpline
 70
8
 71
3
 72
8
 73
4
 74
0
 40
0
 40
0
 40
0
 40
0
 40
1
 40
1
 40
1
 40
1
 10
-58.364670
 20
132.792574
 30
0.0
 10
-59.505314
 20
132.792574
 30
0.0
 10
-60.466411
 20
133.183352
 30
0.0
 10
-61.247963
 20
133.964906
 30
0.0
  0
SPLINE
  5
17d
100
AcDbEntity
  8
Ebene_1
 62
7
100
AcDbSpline
 70
8
 71
3
 72
8
 73
4
 74
0
 40
0
 40
0
 40
0
 40
0
 40
1
 40
1
 40
1
 40
1
 10
-61.247963
 20
133.964906
 30
0.0
 10
-62.029515
 20
134.767581
 30
0.0
 10
-62.420290
 20
135.728679
 30
0.0
 10
-62.420290
 20
136.848198
 30
0.0
  0
LWPOLYLINE
  5
17e
100
AcDbEntity
  8
Ebene_1
 62
7
100
AcDbPolyline
 90
8
 70
1
 10
-62.420290
 20
116.570098
 30
0.0
 10
-62.420290
 20
128.736960
 30
0.0
 10
-38.086571
 20
128.736960
 30
0.0
 10
-38.086571
 20
116.570098
 30
0.0
 10
-42.142191
 20
116.570098
 30
0.0
 10
-42.142191
 20
124.681336
 30
0.0
 10
-58.364670
 20
124.681336
 30
0.0
 10
-58.364670
 20
116.570098
 30
0.0
  0
SPLINE
  5
17f
100
AcDbEntity
  8
Ebene_1
 62
7
100
AcDbSpline
 70
8
 71
3
 72
8
 73
4
 74
0
 40
0
 40
0
 40
0
 40
0
 40
1
 40
1
 40
1
 40
1
 10
-38.086571
 20
136.848198
 30
0.0
 10
-38.086571
 20
135.707552
 30
0.0
 10
-38.487909
 20
134.746455
 30
0.0
 10
-39.290583
 20
133.964906
 30
0.0
  0
SPLINE
  5
180
100
AcDbEntity
  8
Ebene_1
 62
7
100
AcDbSpline
 70
8
 71
3
 72
8
 73
4
 74
0
 40
0
 40
0
 40
0
 40
0
 40
1
 40
1
 40
1
 40
1
 10
-39.290583
 20
133.964906
 30
0.0
 10
-40.093258
 20
133.183352
 30
0.0
 10
-41.043794
 20
132.792574
 30
0.0
 10
-42.142191
 20
132.792574
 30
0.0
  0
LWPOLYLINE
  5
181
100
AcDbEntity
  8
Ebene_1
 62
7
100
AcDbPolyline
 90
2
 70
0
 10
-62.420290
 20
136.848198
 30
0.0
 10
-38.086571
 20
136.848198
 30
0.0
  0
LWPOLYLINE
  5
182
100
AcDbEntity
  8
Ebene_1
 62
7
100
AcDbPolyline
 90
2
 70
0
 10
-42.142191
 20
132.792574
 30
0.0
 10
-58.364670
 20
132.792574
 30
0.0
  0
LWPOLYLINE
  5
183
100
AcDbEntity
  8
Ebene_1
 62
7
100
AcDbPolyline
 90
7
 70
1
 10
-142.780359
 20
103.508223
 30
0.0
 10
-145.983739
 20
103.508223
 30
0.0
 10
-149.515172
 20
93.994570
 30
0.0
 10
-153.046614
 20
103.508223
 30
0.0
 10
-156.327177
 20
103.508223
 30
0.0
 10
-150.865996
 20
89.903511
 30
0.0
 10
-148.241539
 20
89.903511
 30
0.0
  0
LWPOLYLINE
  5
184
100
AcDbEntity
  8
Ebene_1
 62
7
100
AcDbPolyline
 90
12
 70
1
 10
-130.410685
 20
90.000000
 30
0.0
 10
-130.410685
 20
92.643746
 30
0.0
 10
-137.743720
 20
92.643746
 30
0.0
 10
-137.743720
 20
95.480478
 30
0.0
 10
-131.375563
 20
95.480478
 30
0.0
 10
-131.375563
 20
98.124224
 30
0.0
 10
-137.743720
 20
98.124224
 30
0.0
 10
-137.743720
 20
100.864468
 30
0.0
 10
-130.507173
 20
100.864468
 30
0.0
 10
-130.507173
 20
103.508223
 30
0.0
 10
-140.696238
 20
103.508223
 30
0.0
 10
-140.696238
 20
90.000000
 30
0.0
  0
LWPOLYLINE
  5
185
100
AcDbEntity
  8
Ebene_1
 62
7
100
AcDbPolyline
 90
12
 70
1
 10
-116.344342
 20
90.000000
 30
0.0
 10
-116.344342
 20
103.508223
 30
0.0
 10
-119.316150
 20
103.508223
 30
0.0
 10
-119.316150
 20
98.162820
 30
0.0
 10
-124.796628
 20
98.162820
 30
0.0
 10
-124.796628
 20
103.508223
 30
0.0
 10
-127.768444
 20
103.508223
 30
0.0
 10
-127.768444
 20
90.000000
 30
0.0
 10
-124.796628
 20
90.000000
 30
0.0
 10
-124.796628
 20
95.422585
 30
0.0
 10
-119.316150
 20
95.422585
 30
0.0
 10
-119.316150
 20
90.000000
 30
0.0
  0
LWPOLYLINE
  5
186
100
AcDbEntity
  8
Ebene_1
 62
7
100
AcDbPolyline
 90
4
 70
1
 10
-110.000000
 20
90.000000
 30
0.0
 10
-110.000000
 20
103.508223
 30
0.0
 10
-112.971808
 20
103.508223
 30
0.0
 10
-112.971808
 20
90.000000
 30
0.0
  0
SPLINE
  5
187
100
AcDbEntity
  8
Ebene_1
 62
7
100
AcDbSpline
 70
8
 71
3
 72
8
 73
4
 74
0
 40
0
 40
0
 40
0
 40
0
 40
1
 40
1
 40
1
 40
1
 10
-96.647361
 20
94.091059
 30
0.0
 10
-97.174825
 20
93.602189
 30
0.0
 10
-97.708721
 20
93.216240
 30
0.0
 10
-98.249050
 20
92.933212
 30
0.0
  0
SPLINE
  5
188
100
AcDbEntity
  8
Ebene_1
 62
7
100
AcDbSpline
 70
8
 71
3
 72
8
 73
4
 74
0
 40
0
 40
0
 40
0
 40
0
 40
1
 40
1
 40
1
 40
1
 10
-98.249050
 20
92.933212
 30
0.0
 10
-98.776514
 20
92.650184
 30
0.0
 10
-99.426195
 20
92.508670
 30
0.0
 10
-100.198094
 20
92.508670
 30
0.0
  0
SPLINE
  5
189
100
AcDbEntity
  8
Ebene_1
 62
7
100
AcDbSpline
 70
8
 71
3
 72
8
 73
4
 74
0
 40
0
 40
0
 40
0
 40
0
 40
1
 40
1
 40
1
 40
1
 10
-100.198094
 20
92.508670
 30
0.0
 10
-100.777018
 20
92.508670
 30
0.0
 10
-101.310914
 20
92.618021
 30
0.0
 10
-101.799783
 20
92.836723
 30
0.0
  0
SPLINE
  5
18a
100
AcDbEntity
  8
Ebene_1
 62
7
100
AcDbSpline
 70
8
 71
3
 72
8
 73
4
 74
0
 40
0
 40
0
 40
0
 40
0
 40
1
 40
1
 40
1
 40
1
 10
-101.799783
 20
92.836723
 30
0.0
 10
-102.275788
 20
93.068290
 30
0.0
 10
-102.687467
 20
93.377051
 30
0.0
 10
-103.034822
 20
93.763006
 30
0.0
  0
SPLINE
  5
18b
100
AcDbEntity
  8
Ebene_1
 62
7
100
AcDbSpline
 70
8
 71
3
 72
8
 73
4
 74
0
 40
0
 40
0
 40
0
 40
0
 40
1
 40
1
 40
1
 40
1
 10
-103.034822
 20
93.763006
 30
0.0
 10
-103.369313
 20
94.148955
 30
0.0
 10
-103.633045
 20
94.599227
 30
0.0
 10
-103.826017
 20
95.113821
 30
0.0
  0
SPLINE
  5
18c
100
AcDbEntity
  8
Ebene_1
 62
7
100
AcDbSpline
 70
8
 71
3
 72
8
 73
4
 74
0
 40
0
 40
0
 40
0
 40
0
 40
1
 40
1
 40
1
 40
1
 10
-103.826017
 20
95.113821
 30
0.0
 10
-104.018994
 20
95.628422
 30
0.0
 10
-104.115482
 20
96.175185
 30
0.0
 10
-104.115482
 20
96.754111
 30
0.0
  0
LWPOLYLINE
  5
18d
100
AcDbEntity
  8
Ebene_1
 62
7
100
AcDbPolyline
 90
2
 70
0
 10
-94.756209
 20
92.180609
 30
0.0
 10
-96.647361
 20
94.091059
 30
0.0
  0
SPLINE
  5
18e
100
AcDbEntity
  8
Ebene_1
 62
7
100
AcDbSpline
 70
8
 71
3
 72
8
 73
4
 74
0
 40
0
 40
0
 40
0
 40
0
 40
1
 40
1
 40
1
 40
1
 10
-104.115482
 20
96.792673
 30
0.0
 10
-104.115482
 20
97.371594
 30
0.0
 10
-104.018994
 20
97.911922
 30
0.0
 10
-103.826017
 20
98.413657
 30
0.0
  0
SPLINE
  5
18f
100
AcDbEntity
  8
Ebene_1
 62
7
100
AcDbSpline
 70
8
 71
3
 72
8
 73
4
 74
0
 40
0
 40
0
 40
0
 40
0
 40
1
 40
1
 40
1
 40
1
 10
-103.826017
 20
98.413657
 30
0.0
 10
-103.633045
 20
98.928257
 30
0.0
 10
-103.362881
 20
99.378532
 30
0.0
 10
-103.015524
 20
99.764481
 30
0.0
  0
SPLINE
  5
190
100
AcDbEntity
  8
Ebene_1
 62
7
100
AcDbSpline
 70
8
 71
3
 72
8
 73
4
 74
0
 40
0
 40
0
 40
0
 40
0
 40
1
 40
1
 40
1
 40
1
 10
-103.015524
 20
99.764481
 30
0.0
 10
-102.668169
 20
100.150430
 30
0.0
 10
-102.256490
 20
100.452755
 30
0.0
 10
-101.780486
 20
100.671457
 30
0.0
  0
SPLINE
  5
191
100
AcDbEntity
  8
Ebene_1
 62
7
100
AcDbSpline
 70
8
 71
3
 72
8
 73
4
 74
0
 40
0
 40
0
 40
0
 40
0
 40
1
 40
1
 40
1
 40
1
 10
-101.780486
 20
100.671457
 30
0.0
 10
-101.291617
 20
100.890165
 30
0.0
 10
-100.764153
 20
100.999518
 30
0.0
 10
-100.198094
 20
100.999518
 30
0.0
  0
SPLINE
  5
192
100
AcDbEntity
  8
Ebene_1
 62
7
100
AcDbSpline
 70
8
 71
3
 72
8
 73
4
 74
0
 40
0
 40
0
 40
0
 40
0
 40
1
 40
1
 40
1
 40
1
 10
-100.198094
 20
100.999518
 30
0.0
 10
-99.516250
 20
100.999518
 30
0.0
 10
-98.905164
 20
100.864434
 30
0.0
 10
-98.364835
 20
100.594266
 30
0.0
  0
SPLINE
  5
193
100
AcDbEntity
  8
Ebene_1
 62
7
100
AcDbSpline
 70
8
 71
3
 72
8
 73
4
 74
0
 40
0
 40
0
 40
0
 40
0
 40
1
 40
1
 40
1
 40
1
 10
-98.364835
 20
100.594266
 30
0.0
 10
-97.811641
 20
100.324104
 30
0.0
 10
-97.271312
 20
99.951020
 30
0.0
 10
-96.743848
 20
99.475015
 30
0.0
  0
LWPOLYLINE
  5
194
100
AcDbEntity
  8
Ebene_1
 62
7
100
AcDbPolyline
 90
2
 70
0
 10
-104.115482
 20
96.754111
 30
0.0
 10
-104.115482
 20
96.792673
 30
0.0
  0
SPLINE
  5
195
100
AcDbEntity
  8
Ebene_1
 62
7
100
AcDbSpline
 70
8
 71
3
 72
8
 73
4
 74
0
 40
0
 40
0
 40
0
 40
0
 40
1
 40
1
 40
1
 40
1
 10
-94.852696
 20
101.655633
 30
0.0
 10
-95.161456
 20
101.964391
 30
0.0
 10
-95.495945
 20
102.247418
 30
0.0
 10
-95.856164
 20
102.504716
 30
0.0
  0
SPLINE
  5
196
100
AcDbEntity
  8
Ebene_1
 62
7
100
AcDbSpline
 70
8
 71
3
 72
8
 73
4
 74
0
 40
0
 40
0
 40
0
 40
0
 40
1
 40
1
 40
1
 40
1
 10
-95.856164
 20
102.504716
 30
0.0
 10
-96.216384
 20
102.762019
 30
0.0
 10
-96.608766
 20
102.980723
 30
0.0
 10
-97.033310
 20
103.160830
 30
0.0
  0
SPLINE
  5
197
100
AcDbEntity
  8
Ebene_1
 62
7
100
AcDbSpline
 70
8
 71
3
 72
8
 73
4
 74
0
 40
0
 40
0
 40
0
 40
0
 40
1
 40
1
 40
1
 40
1
 10
-97.033310
 20
103.160830
 30
0.0
 10
-97.457854
 20
103.340942
 30
0.0
 10
-97.933858
 20
103.482459
 30
0.0
 10
-98.461322
 20
103.585380
 30
0.0
  0
SPLINE
  5
198
100
AcDbEntity
  8
Ebene_1
 62
7
100
AcDbSpline
 70
8
 71
3
 72
8
 73
4
 74
0
 40
0
 40
0
 40
0
 40
0
 40
1
 40
1
 40
1
 40
1
 10
-98.461322
 20
103.585380
 30
0.0
 10
-98.975921
 20
103.688296
 30
0.0
 10
-99.548413
 20
103.739753
 30
0.0
 10
-100.178797
 20
103.739753
 30
0.0
  0
SPLINE
  5
199
100
AcDbEntity
  8
Ebene_1
 62
7
100
AcDbSpline
 70
8
 71
3
 72
8
 73
4
 74
0
 40
0
 40
0
 40
0
 40
0
 40
1
 40
1
 40
1
 40
1
 10
-100.178797
 20
103.739753
 30
0.0
 10
-101.220860
 20
103.739753
 30
0.0
 10
-102.172868
 20
103.553211
 30
0.0
 10
-103.034822
 20
103.180128
 30
0.0
  0
SPLINE
  5
19a
100
AcDbEntity
  8
Ebene_1
 62
7
100
AcDbSpline
 70
8
 71
3
 72
8
 73
4
 74
0
 40
0
 40
0
 40
0
 40
0
 40
1
 40
1
 40
1
 40
1
 10
-103.034822
 20
103.180128
 30
0.0
 10
-103.896773
 20
102.819909
 30
0.0
 10
-104.636510
 20
102.318177
 30
0.0
 10
-105.254031
 20
101.674930
 30
0.0
  0
SPLINE
  5
19b
100
AcDbEntity
  8
Ebene_1
 62
7
100
AcDbSpline
 70
8
 71
3
 72
8
 73
4
 74
0
 40
0
 40
0
 40
0
 40
0
 40
1
 40
1
 40
1
 40
1
 10
-105.254031
 20
101.674930
 30
0.0
 10
-105.871547
 20
101.044544
 30
0.0
 10
-106.353982
 20
100.304806
 30
0.0
 10
-106.701336
 20
99.455717
 30
0.0
  0
SPLINE
  5
19c
100
AcDbEntity
  8
Ebene_1
 62
7
100
AcDbSpline
 70
8
 71
3
 72
8
 73
4
 74
0
 40
0
 40
0
 40
0
 40
0
 40
1
 40
1
 40
1
 40
1
 10
-106.701336
 20
99.455717
 30
0.0
 10
-107.048695
 20
98.619494
 30
0.0
 10
-107.222374
 20
97.718947
 30
0.0
 10
-107.222374
 20
96.754078
 30
0.0
  0
LWPOLYLINE
  5
19d
100
AcDbEntity
  8
Ebene_1
 62
7
100
AcDbPolyline
 90
2
 70
0
 10
-96.743848
 20
99.475015
 30
0.0
 10
-94.852696
 20
101.655633
 30
0.0
  0
SPLINE
  5
19e
100
AcDbEntity
  8
Ebene_1
 62
7
100
AcDbSpline
 70
8
 71
3
 72
8
 73
4
 74
0
 40
0
 40
0
 40
0
 40
0
 40
1
 40
1
 40
1
 40
1
 10
-107.222374
 20
96.715516
 30
0.0
 10
-107.222374
 20
95.750641
 30
0.0
 10
-107.048695
 20
94.843659
 30
0.0
 10
-106.701336
 20
93.994570
 30
0.0
  0
SPLINE
  5
19f
100
AcDbEntity
  8
Ebene_1
 62
7
100
AcDbSpline
 70
8
 71
3
 72
8
 73
4
 74
0
 40
0
 40
0
 40
0
 40
0
 40
1
 40
1
 40
1
 40
1
 10
-106.701336
 20
93.994570
 30
0.0
 10
-106.353982
 20
93.145481
 30
0.0
 10
-105.871547
 20
92.405746
 30
0.0
 10
-105.254031
 20
91.775365
 30
0.0
  0
SPLINE
  5
1a0
100
AcDbEntity
  8
Ebene_1
 62
7
100
AcDbSpline
 70
8
 71
3
 72
8
 73
4
 74
0
 40
0
 40
0
 40
0
 40
0
 40
1
 40
1
 40
1
 40
1
 10
-105.254031
 20
91.775365
 30
0.0
 10
-104.636510
 20
91.157844
 30
0.0
 10
-103.903206
 20
90.668974
 30
0.0
 10
-103.054118
 20
90.308755
 30
0.0
  0
SPLINE
  5
1a1
100
AcDbEntity
  8
Ebene_1
 62
7
100
AcDbSpline
 70
8
 71
3
 72
8
 73
4
 74
0
 40
0
 40
0
 40
0
 40
0
 40
1
 40
1
 40
1
 40
1
 10
-103.054118
 20
90.308755
 30
0.0
 10
-102.205030
 20
89.948536
 30
0.0
 10
-101.285185
 20
89.768427
 30
0.0
 10
-100.294582
 20
89.768427
 30
0.0
  0
SPLINE
  5
1a2
100
AcDbEntity
  8
Ebene_1
 62
7
100
AcDbSpline
 70
8
 71
3
 72
8
 73
4
 74
0
 40
0
 40
0
 40
0
 40
0
 40
1
 40
1
 40
1
 40
1
 10
-100.294582
 20
89.768427
 30
0.0
 10
-99.638468
 20
89.768427
 30
0.0
 10
-99.046679
 20
89.826320
 30
0.0
 10
-98.519214
 20
89.942107
 30
0.0
  0
SPLINE
  5
1a3
100
AcDbEntity
  8
Ebene_1
 62
7
100
AcDbSpline
 70
8
 71
3
 72
8
 73
4
 74
0
 40
0
 40
0
 40
0
 40
0
 40
1
 40
1
 40
1
 40
1
 10
-98.519214
 20
89.942107
 30
0.0
 10
-97.991751
 20
90.045022
 30
0.0
 10
-97.509314
 20
90.199401
 30
0.0
 10
-97.071905
 20
90.405244
 30
0.0
  0
SPLINE
  5
1a4
100
AcDbEntity
  8
Ebene_1
 62
7
100
AcDbSpline
 70
8
 71
3
 72
8
 73
4
 74
0
 40
0
 40
0
 40
0
 40
0
 40
1
 40
1
 40
1
 40
1
 10
-97.071905
 20
90.405244
 30
0.0
 10
-96.621631
 20
90.623946
 30
0.0
 10
-96.209952
 20
90.881246
 30
0.0
 10
-95.836868
 20
91.177144
 30
0.0
  0
SPLINE
  5
1a5
100
AcDbEntity
  8
Ebene_1
 62
7
100
AcDbSpline
 70
8
 71
3
 72
8
 73
4
 74
0
 40
0
 40
0
 40
0
 40
0
 40
1
 40
1
 40
1
 40
1
 10
-95.836868
 20
91.177144
 30
0.0
 10
-95.463783
 20
91.473037
 30
0.0
 10
-95.103564
 20
91.807525
 30
0.0
 10
-94.756209
 20
92.180609
 30
0.0
  0
LWPOLYLINE
  5
1a6
100
AcDbEntity
  8
Ebene_1
 62
7
100
AcDbPolyline
 90
2
 70
0
 10
-107.222374
 20
96.754078
 30
0.0
 10
-107.222374
 20
96.715516
 30
0.0
  0
LWPOLYLINE
  5
1a7
100
AcDbEntity
  8
Ebene_1
 62
7
100
AcDbPolyline
 90
1
 70
1
 10
-94.756209
 20
92.180609
 30
0.0
  0
LWPOLYLINE
  5
1a8
100
AcDbEntity
  8
Ebene_1
 62
7
100
AcDbPolyline
 90
6
 70
1
 10
-82.670571
 20
90.000000
 30
0.0
 10
-82.670571
 20
92.701639
 30
0.0
 10
-89.405385
 20
92.701639
 30
0.0
 10
-89.405385
 20
103.508223
 30
0.0
 10
-92.377195
 20
103.508223
 30
0.0
 10
-92.377195
 20
90.000000
 30
0.0
  0
LWPOLYLINE
  5
1a9
100
AcDbEntity
  8
Ebene_1
 62
7
100
AcDbPolyline
 90
12
 70
1
 10
-70.143799
 20
90.000000
 30
0.0
 10
-70.143799
 20
92.643746
 30
0.0
 10
-77.476835
 20
92.643746
 30
0.0
 10
-77.476835
 20
95.480478
 30
0.0
 10
-71.108672
 20
95.480478
 30
0.0
 10
-71.108672
 20
98.124224
 30
0.0
 10
-77.476835
 20
98.124224
 30
0.0
 10
-77.476835
 20
100.864468
 30
0.0
 10
-70.240286
 20
100.864468
 30
0.0
 10
-70.240286
 20
103.508223
 30
0.0
 10
-80.429347
 20
103.508223
 30
0.0
 10
-80.429347
 20
90.000000
 30
0.0
  0
SPLINE
  5
1aa
100
AcDbEntity
  8
Ebene_1
 62
7
100
AcDbSpline
 70
8
 71
3
 72
8
 73
4
 74
0
 40
0
 40
0
 40
0
 40
0
 40
1
 40
1
 40
1
 40
1
 10
-57.737039
 20
94.033132
 30
0.0
 10
-57.737039
 20
94.624923
 30
0.0
 10
-57.833526
 20
95.133091
 30
0.0
 10
-58.026501
 20
95.557636
 30
0.0
  0
SPLINE
  5
1ab
100
AcDbEntity
  8
Ebene_1
 62
7
100
AcDbSpline
 70
8
 71
3
 72
8
 73
4
 74
0
 40
0
 40
0
 40
0
 40
0
 40
1
 40
1
 40
1
 40
1
 10
-58.026501
 20
95.557636
 30
0.0
 10
-58.206611
 20
95.982180
 30
0.0
 10
-58.483208
 20
96.348831
 30
0.0
 10
-58.856292
 20
96.657589
 30
0.0
  0
SPLINE
  5
1ac
100
AcDbEntity
  8
Ebene_1
 62
7
100
AcDbSpline
 70
8
 71
3
 72
8
 73
4
 74
0
 40
0
 40
0
 40
0
 40
0
 40
1
 40
1
 40
1
 40
1
 10
-58.856292
 20
96.657589
 30
0.0
 10
-59.216511
 20
96.979212
 30
0.0
 10
-59.666785
 20
97.249378
 30
0.0
 10
-60.207114
 20
97.468085
 30
0.0
  0
SPLINE
  5
1ad
100
AcDbEntity
  8
Ebene_1
 62
7
100
AcDbSpline
 70
8
 71
3
 72
8
 73
4
 74
0
 40
0
 40
0
 40
0
 40
0
 40
1
 40
1
 40
1
 40
1
 10
-60.207114
 20
97.468085
 30
0.0
 10
-60.734578
 20
97.699652
 30
0.0
 10
-61.339232
 20
97.905492
 30
0.0
 10
-62.021076
 20
98.085604
 30
0.0
  0
SPLINE
  5
1ae
100
AcDbEntity
  8
Ebene_1
 62
7
100
AcDbSpline
 70
8
 71
3
 72
8
 73
4
 74
0
 40
0
 40
0
 40
0
 40
0
 40
1
 40
1
 40
1
 40
1
 10
-62.021076
 20
98.085604
 30
0.0
 10
-62.600000
 20
98.239980
 30
0.0
 10
-63.082437
 20
98.375061
 30
0.0
 10
-63.468386
 20
98.490848
 30
0.0
  0
SPLINE
  5
1af
100
AcDbEntity
  8
Ebene_1
 62
7
100
AcDbSpline
 70
8
 71
3
 72
8
 73
4
 74
0
 40
0
 40
0
 40
0
 40
0
 40
1
 40
1
 40
1
 40
1
 10
-63.468386
 20
98.490848
 30
0.0
 10
-63.841470
 20
98.606634
 30
0.0
 10
-64.137364
 20
98.728850
 30
0.0
 10
-64.356069
 20
98.857496
 30
0.0
  0
SPLINE
  5
1b0
100
AcDbEntity
  8
Ebene_1
 62
7
100
AcDbSpline
 70
8
 71
3
 72
8
 73
4
 74
0
 40
0
 40
0
 40
0
 40
0
 40
1
 40
1
 40
1
 40
1
 10
-64.356069
 20
98.857496
 30
0.0
 10
-64.574774
 20
98.986148
 30
0.0
 10
-64.729154
 20
99.127664
 30
0.0
 10
-64.819208
 20
99.282046
 30
0.0
  0
SPLINE
  5
1b1
100
AcDbEntity
  8
Ebene_1
 62
7
100
AcDbSpline
 70
8
 71
3
 72
8
 73
4
 74
0
 40
0
 40
0
 40
0
 40
0
 40
1
 40
1
 40
1
 40
1
 10
-64.819208
 20
99.282046
 30
0.0
 10
-64.896398
 20
99.449287
 30
0.0
 10
-64.934993
 20
99.642262
 30
0.0
 10
-64.934993
 20
99.860969
 30
0.0
  0
LWPOLYLINE
  5
1b2
100
AcDbEntity
  8
Ebene_1
 62
7
100
AcDbPolyline
 90
2
 70
0
 10
-57.737039
 20
93.994570
 30
0.0
 10
-57.737039
 20
94.033132
 30
0.0
  0
SPLINE
  5
1b3
100
AcDbEntity
  8
Ebene_1
 62
7
100
AcDbSpline
 70
8
 71
3
 72
8
 73
4
 74
0
 40
0
 40
0
 40
0
 40
0
 40
1
 40
1
 40
1
 40
1
 10
-64.934993
 20
99.899531
 30
0.0
 10
-64.934993
 20
100.234020
 30
0.0
 10
-64.793478
 20
100.510615
 30
0.0
 10
-64.510449
 20
100.729317
 30
0.0
  0
SPLINE
  5
1b4
100
AcDbEntity
  8
Ebene_1
 62
7
100
AcDbSpline
 70
8
 71
3
 72
8
 73
4
 74
0
 40
0
 40
0
 40
0
 40
0
 40
1
 40
1
 40
1
 40
1
 10
-64.510449
 20
100.729317
 30
0.0
 10
-64.214555
 20
100.960889
 30
0.0
 10
-63.777145
 20
101.076676
 30
0.0
 10
-63.198221
 20
101.076676
 30
0.0
  0
SPLINE
  5
1b5
100
AcDbEntity
  8
Ebene_1
 62
7
100
AcDbSpline
 70
8
 71
3
 72
8
 73
4
 74
0
 40
0
 40
0
 40
0
 40
0
 40
1
 40
1
 40
1
 40
1
 10
-63.198221
 20
101.076676
 30
0.0
 10
-62.619297
 20
101.076676
 30
0.0
 10
-62.040374
 20
100.954457
 30
0.0
 10
-61.461450
 20
100.710019
 30
0.0
  0
SPLINE
  5
1b6
100
AcDbEntity
  8
Ebene_1
 62
7
100
AcDbSpline
 70
8
 71
3
 72
8
 73
4
 74
0
 40
0
 40
0
 40
0
 40
0
 40
1
 40
1
 40
1
 40
1
 10
-61.461450
 20
100.710019
 30
0.0
 10
-60.882526
 20
100.478452
 30
0.0
 10
-60.290737
 20
100.156829
 30
0.0
 10
-59.686083
 20
99.745150
 30
0.0
  0
LWPOLYLINE
  5
1b7
100
AcDbEntity
  8
Ebene_1
 62
7
100
AcDbPolyline
 90
2
 70
0
 10
-64.934993
 20
99.860969
 30
0.0
 10
-64.934993
 20
99.899531
 30
0.0
  0
SPLINE
  5
1b8
100
AcDbEntity
  8
Ebene_1
 62
7
100
AcDbSpline
 70
8
 71
3
 72
8
 73
4
 74
0
 40
0
 40
0
 40
0
 40
0
 40
1
 40
1
 40
1
 40
1
 10
-58.142285
 20
101.983652
 30
0.0
 10
-58.836995
 20
102.536848
 30
0.0
 10
-59.602461
 20
102.961392
 30
0.0
 10
-60.438684
 20
103.257285
 30
0.0
  0
SPLINE
  5
1b9
100
AcDbEntity
  8
Ebene_1
 62
7
100
AcDbSpline
 70
8
 71
3
 72
8
 73
4
 74
0
 40
0
 40
0
 40
0
 40
0
 40
1
 40
1
 40
1
 40
1
 10
-60.438684
 20
103.257285
 30
0.0
 10
-61.262042
 20
103.553178
 30
0.0
 10
-62.169023
 20
103.701124
 30
0.0
 10
-63.159626
 20
103.701124
 30
0.0
  0
SPLINE
  5
1ba
100
AcDbEntity
  8
Ebene_1
 62
7
100
AcDbSpline
 70
8
 71
3
 72
8
 73
4
 74
0
 40
0
 40
0
 40
0
 40
0
 40
1
 40
1
 40
1
 40
1
 10
-63.159626
 20
103.701124
 30
0.0
 10
-63.854335
 20
103.701124
 30
0.0
 10
-64.491152
 20
103.604639
 30
0.0
 10
-65.070076
 20
103.411667
 30
0.0
  0
SPLINE
  5
1bb
100
AcDbEntity
  8
Ebene_1
 62
7
100
AcDbSpline
 70
8
 71
3
 72
8
 73
4
 74
0
 40
0
 40
0
 40
0
 40
0
 40
1
 40
1
 40
1
 40
1
 10
-65.070076
 20
103.411667
 30
0.0
 10
-65.648999
 20
103.218690
 30
0.0
 10
-66.150733
 20
102.942092
 30
0.0
 10
-66.575277
 20
102.581873
 30
0.0
  0
SPLINE
  5
1bc
100
AcDbEntity
  8
Ebene_1
 62
7
100
AcDbSpline
 70
8
 71
3
 72
8
 73
4
 74
0
 40
0
 40
0
 40
0
 40
0
 40
1
 40
1
 40
1
 40
1
 10
-66.575277
 20
102.581873
 30
0.0
 10
-66.986956
 20
102.221655
 30
0.0
 10
-67.308581
 20
101.790678
 30
0.0
 10
-67.540151
 20
101.288942
 30
0.0
  0
SPLINE
  5
1bd
100
AcDbEntity
  8
Ebene_1
 62
7
100
AcDbSpline
 70
8
 71
3
 72
8
 73
4
 74
0
 40
0
 40
0
 40
0
 40
0
 40
1
 40
1
 40
1
 40
1
 10
-67.540151
 20
101.288942
 30
0.0
 10
-67.771720
 20
100.800078
 30
0.0
 10
-67.887505
 20
100.246885
 30
0.0
 10
-67.887505
 20
99.629363
 30
0.0
  0
LWPOLYLINE
  5
1be
100
AcDbEntity
  8
Ebene_1
 62
7
100
AcDbPolyline
 90
2
 70
0
 10
-59.686083
 20
99.745150
 30
0.0
 10
-58.142285
 20
101.983652
 30
0.0
  0
SPLINE
  5
1bf
100
AcDbEntity
  8
Ebene_1
 62
7
100
AcDbSpline
 70
8
 71
3
 72
8
 73
4
 74
0
 40
0
 40
0
 40
0
 40
0
 40
1
 40
1
 40
1
 40
1
 10
-67.887505
 20
99.590801
 30
0.0
 10
-67.887505
 20
98.921825
 30
0.0
 10
-67.784585
 20
98.362199
 30
0.0
 10
-67.578745
 20
97.911924
 30
0.0
  0
SPLINE
  5
1c0
100
AcDbEntity
  8
Ebene_1
 62
7
100
AcDbSpline
 70
8
 71
3
 72
8
 73
4
 74
0
 40
0
 40
0
 40
0
 40
0
 40
1
 40
1
 40
1
 40
1
 10
-67.578745
 20
97.911924
 30
0.0
 10
-67.360041
 20
97.461650
 30
0.0
 10
-67.057714
 20
97.082133
 30
0.0
 10
-66.671765
 20
96.773375
 30
0.0
  0
SPLINE
  5
1c1
100
AcDbEntity
  8
Ebene_1
 62
7
100
AcDbSpline
 70
8
 71
3
 72
8
 73
4
 74
0
 40
0
 40
0
 40
0
 40
0
 40
1
 40
1
 40
1
 40
1
 10
-66.671765
 20
96.773375
 30
0.0
 10
-66.285815
 20
96.477477
 30
0.0
 10
-65.816244
 20
96.226609
 30
0.0
 10
-65.263050
 20
96.020773
 30
0.0
  0
SPLINE
  5
1c2
100
AcDbEntity
  8
Ebene_1
 62
7
100
AcDbSpline
 70
8
 71
3
 72
8
 73
4
 74
0
 40
0
 40
0
 40
0
 40
0
 40
1
 40
1
 40
1
 40
1
 10
-65.263050
 20
96.020773
 30
0.0
 10
-64.709856
 20
95.814930
 30
0.0
 10
-64.092337
 20
95.628388
 30
0.0
 10
-63.410493
 20
95.461147
 30
0.0
  0
SPLINE
  5
1c3
100
AcDbEntity
  8
Ebene_1
 62
7
100
AcDbSpline
 70
8
 71
3
 72
8
 73
4
 74
0
 40
0
 40
0
 40
0
 40
0
 40
1
 40
1
 40
1
 40
1
 10
-63.410493
 20
95.461147
 30
0.0
 10
-62.844434
 20
95.319630
 30
0.0
 10
-62.387728
 20
95.184546
 30
0.0
 10
-62.040374
 20
95.055895
 30
0.0
  0
SPLINE
  5
1c4
100
AcDbEntity
  8
Ebene_1
 62
7
100
AcDbSpline
 70
8
 71
3
 72
8
 73
4
 74
0
 40
0
 40
0
 40
0
 40
0
 40
1
 40
1
 40
1
 40
1
 10
-62.040374
 20
95.055895
 30
0.0
 10
-61.680154
 20
94.927249
 30
0.0
 10
-61.403557
 20
94.798600
 30
0.0
 10
-61.210583
 20
94.669949
 30
0.0
  0
SPLINE
  5
1c5
100
AcDbEntity
  8
Ebene_1
 62
7
100
AcDbSpline
 70
8
 71
3
 72
8
 73
4
 74
0
 40
0
 40
0
 40
0
 40
0
 40
1
 40
1
 40
1
 40
1
 10
-61.210583
 20
94.669949
 30
0.0
 10
-61.004743
 20
94.541297
 30
0.0
 10
-60.869661
 20
94.399783
 30
0.0
 10
-60.805335
 20
94.245407
 30
0.0
  0
SPLINE
  5
1c6
100
AcDbEntity
  8
Ebene_1
 62
7
100
AcDbSpline
 70
8
 71
3
 72
8
 73
4
 74
0
 40
0
 40
0
 40
0
 40
0
 40
1
 40
1
 40
1
 40
1
 10
-60.805335
 20
94.245407
 30
0.0
 10
-60.728146
 20
94.103890
 30
0.0
 10
-60.689551
 20
93.936646
 30
0.0
 10
-60.689551
 20
93.743675
 30
0.0
  0
LWPOLYLINE
  5
1c7
100
AcDbEntity
  8
Ebene_1
 62
7
100
AcDbPolyline
 90
2
 70
0
 10
-67.887505
 20
99.629363
 30
0.0
 10
-67.887505
 20
99.590801
 30
0.0
  0
SPLINE
  5
1c8
100
AcDbEntity
  8
Ebene_1
 62
7
100
AcDbSpline
 70
8
 71
3
 72
8
 73
4
 74
0
 40
0
 40
0
 40
0
 40
0
 40
1
 40
1
 40
1
 40
1
 10
-60.689551
 20
93.705113
 30
0.0
 10
-60.689551
 20
93.306299
 30
0.0
 10
-60.863228
 20
92.991105
 30
0.0
 10
-61.210583
 20
92.759532
 30
0.0
  0
SPLINE
  5
1c9
100
AcDbEntity
  8
Ebene_1
 62
7
100
AcDbSpline
 70
8
 71
3
 72
8
 73
4
 74
0
 40
0
 40
0
 40
0
 40
0
 40
1
 40
1
 40
1
 40
1
 10
-61.210583
 20
92.759532
 30
0.0
 10
-61.545072
 20
92.540831
 30
0.0
 10
-62.021076
 20
92.431480
 30
0.0
 10
-62.638595
 20
92.431480
 30
0.0
  0
SPLINE
  5
1ca
100
AcDbEntity
  8
Ebene_1
 62
7
100
AcDbSpline
 70
8
 71
3
 72
8
 73
4
 74
0
 40
0
 40
0
 40
0
 40
0
 40
1
 40
1
 40
1
 40
1
 10
-62.638595
 20
92.431480
 30
0.0
 10
-63.410493
 20
92.431480
 30
0.0
 10
-64.124499
 20
92.579426
 30
0.0
 10
-64.780613
 20
92.875319
 30
0.0
  0
SPLINE
  5
1cb
100
AcDbEntity
  8
Ebene_1
 62
7
100
AcDbSpline
 70
8
 71
3
 72
8
 73
4
 74
0
 40
0
 40
0
 40
0
 40
0
 40
1
 40
1
 40
1
 40
1
 10
-64.780613
 20
92.875319
 30
0.0
 10
-65.423862
 20
93.171212
 30
0.0
 10
-66.054246
 20
93.570026
 30
0.0
 10
-66.671765
 20
94.071761
 30
0.0
  0
LWPOLYLINE
  5
1cc
100
AcDbEntity
  8
Ebene_1
 62
7
100
AcDbPolyline
 90
2
 70
0
 10
-60.689551
 20
93.743675
 30
0.0
 10
-60.689551
 20
93.705113
 30
0.0
  0
SPLINE
  5
1cd
100
AcDbEntity
  8
Ebene_1
 62
7
100
AcDbSpline
 70
8
 71
3
 72
8
 73
4
 74
0
 40
0
 40
0
 40
0
 40
0
 40
1
 40
1
 40
1
 40
1
 10
-68.427834
 20
91.968334
 30
0.0
 10
-67.617340
 20
91.235032
 30
0.0
 10
-66.716792
 20
90.688271
 30
0.0
 10
-65.726189
 20
90.328053
 30
0.0
  0
SPLINE
  5
1ce
100
AcDbEntity
  8
Ebene_1
 62
7
100
AcDbSpline
 70
8
 71
3
 72
8
 73
4
 74
0
 40
0
 40
0
 40
0
 40
0
 40
1
 40
1
 40
1
 40
1
 10
-65.726189
 20
90.328053
 30
0.0
 10
-64.735586
 20
89.980699
 30
0.0
 10
-63.725685
 20
89.807023
 30
0.0
 10
-62.696487
 20
89.807023
 30
0.0
  0
SPLINE
  5
1cf
100
AcDbEntity
  8
Ebene_1
 62
7
100
AcDbSpline
 70
8
 71
3
 72
8
 73
4
 74
0
 40
0
 40
0
 40
0
 40
0
 40
1
 40
1
 40
1
 40
1
 10
-62.696487
 20
89.807023
 30
0.0
 10
-61.963184
 20
89.807023
 30
0.0
 10
-61.294205
 20
89.897076
 30
0.0
 10
-60.689551
 20
90.077182
 30
0.0
  0
SPLINE
  5
1d0
100
AcDbEntity
  8
Ebene_1
 62
7
100
AcDbSpline
 70
8
 71
3
 72
8
 73
4
 74
0
 40
0
 40
0
 40
0
 40
0
 40
1
 40
1
 40
1
 40
1
 10
-60.689551
 20
90.077182
 30
0.0
 10
-60.084897
 20
90.270160
 30
0.0
 10
-59.563866
 20
90.540325
 30
0.0
 10
-59.126457
 20
90.887678
 30
0.0
  0
SPLINE
  5
1d1
100
AcDbEntity
  8
Ebene_1
 62
7
100
AcDbSpline
 70
8
 71
3
 72
8
 73
4
 74
0
 40
0
 40
0
 40
0
 40
0
 40
1
 40
1
 40
1
 40
1
 10
-59.126457
 20
90.887678
 30
0.0
 10
-58.689047
 20
91.247897
 30
0.0
 10
-58.348125
 20
91.685306
 30
0.0
 10
-58.103691
 20
92.199907
 30
0.0
  0
SPLINE
  5
1d2
100
AcDbEntity
  8
Ebene_1
 62
7
100
AcDbSpline
 70
8
 71
3
 72
8
 73
4
 74
0
 40
0
 40
0
 40
0
 40
0
 40
1
 40
1
 40
1
 40
1
 10
-58.103691
 20
92.199907
 30
0.0
 10
-57.859256
 20
92.727372
 30
0.0
 10
-57.737039
 20
93.325593
 30
0.0
 10
-57.737039
 20
93.994570
 30
0.0
  0
LWPOLYLINE
  5
1d3
100
AcDbEntity
  8
Ebene_1
 62
7
100
AcDbPolyline
 90
2
 70
0
 10
-66.671765
 20
94.071761
 30
0.0
 10
-68.427834
 20
91.968334
 30
0.0
  0
LWPOLYLINE
  5
1d4
100
AcDbEntity
  8
Ebene_1
 62
7
100
AcDbPolyline
 90
1
 70
1
 10
-57.737039
 20
93.994570
 30
0.0
  0
SPLINE
  5
1d5
100
AcDbEntity
  8
Ebene_1
 62
7
100
AcDbSpline
 70
8
 71
3
 72
8
 73
4
 74
0
 40
0
 40
0
 40
0
 40
0
 40
1
 40
1
 40
1
 40
1
 10
-120.096340
 20
77.495208
 30
0.0
 10
-120.096340
 20
78.460078
 30
0.0
 10
-120.276449
 20
79.360624
 30
0.0
 10
-120.636668
 20
80.196848
 30
0.0
  0
SPLINE
  5
1d6
100
AcDbEntity
  8
Ebene_1
 62
7
100
AcDbSpline
 70
8
 71
3
 72
8
 73
4
 74
0
 40
0
 40
0
 40
0
 40
0
 40
1
 40
1
 40
1
 40
1
 10
-120.636668
 20
80.196848
 30
0.0
 10
-120.984027
 20
81.045937
 30
0.0
 10
-121.479330
 20
81.779242
 30
0.0
 10
-122.122576
 20
82.396763
 30
0.0
  0
SPLINE
  5
1d7
100
AcDbEntity
  8
Ebene_1
 62
7
100
AcDbSpline
 70
8
 71
3
 72
8
 73
4
 74
0
 40
0
 40
0
 40
0
 40
0
 40
1
 40
1
 40
1
 40
1
 10
-122.122576
 20
82.396763
 30
0.0
 10
-122.752963
 20
83.027145
 30
0.0
 10
-123.505563
 20
83.522444
 30
0.0
 10
-124.380376
 20
83.882663
 30
0.0
  0
SPLINE
  5
1d8
100
AcDbEntity
  8
Ebene_1
 62
7
100
AcDbSpline
 70
8
 71
3
 72
8
 73
4
 74
0
 40
0
 40
0
 40
0
 40
0
 40
1
 40
1
 40
1
 40
1
 10
-124.380376
 20
83.882663
 30
0.0
 10
-125.255195
 20
84.255752
 30
0.0
 10
-126.213638
 20
84.442297
 30
0.0
 10
-127.255704
 20
84.442297
 30
0.0
  0
SPLINE
  5
1d9
100
AcDbEntity
  8
Ebene_1
 62
7
100
AcDbSpline
 70
8
 71
3
 72
8
 73
4
 74
0
 40
0
 40
0
 40
0
 40
0
 40
1
 40
1
 40
1
 40
1
 10
-127.255704
 20
84.442297
 30
0.0
 10
-128.297764
 20
84.442297
 30
0.0
 10
-129.262636
 20
84.255752
 30
0.0
 10
-130.150320
 20
83.882663
 30
0.0
  0
SPLINE
  5
1da
100
AcDbEntity
  8
Ebene_1
 62
7
100
AcDbSpline
 70
8
 71
3
 72
8
 73
4
 74
0
 40
0
 40
0
 40
0
 40
0
 40
1
 40
1
 40
1
 40
1
 10
-130.150320
 20
83.882663
 30
0.0
 10
-131.025139
 20
83.522444
 30
0.0
 10
-131.784172
 20
83.020712
 30
0.0
 10
-132.427418
 20
82.377466
 30
0.0
  0
SPLINE
  5
1db
100
AcDbEntity
  8
Ebene_1
 62
7
100
AcDbSpline
 70
8
 71
3
 72
8
 73
4
 74
0
 40
0
 40
0
 40
0
 40
0
 40
1
 40
1
 40
1
 40
1
 10
-132.427418
 20
82.377466
 30
0.0
 10
-133.057805
 20
81.747079
 30
0.0
 10
-133.553108
 20
81.007341
 30
0.0
 10
-133.913326
 20
80.158253
 30
0.0
  0
SPLINE
  5
1dc
100
AcDbEntity
  8
Ebene_1
 62
7
100
AcDbSpline
 70
8
 71
3
 72
8
 73
4
 74
0
 40
0
 40
0
 40
0
 40
0
 40
1
 40
1
 40
1
 40
1
 10
-133.913326
 20
80.158253
 30
0.0
 10
-134.273545
 20
79.322029
 30
0.0
 10
-134.453654
 20
78.421483
 30
0.0
 10
-134.453654
 20
77.456613
 30
0.0
  0
LWPOLYLINE
  5
1dd
100
AcDbEntity
  8
Ebene_1
 62
7
100
AcDbPolyline
 90
2
 70
0
 10
-120.096340
 20
77.456646
 30
0.0
 10
-120.096340
 20
77.495208
 30
0.0
  0
SPLINE
  5
1de
100
AcDbEntity
  8
Ebene_1
 62
7
100
AcDbSpline
 70
8
 71
3
 72
8
 73
4
 74
0
 40
0
 40
0
 40
0
 40
0
 40
1
 40
1
 40
1
 40
1
 10
-134.453654
 20
77.418051
 30
0.0
 10
-134.453654
 20
76.453176
 30
0.0
 10
-134.279978
 20
75.546194
 30
0.0
 10
-133.932624
 20
74.697105
 30
0.0
  0
SPLINE
  5
1df
100
AcDbEntity
  8
Ebene_1
 62
7
100
AcDbSpline
 70
8
 71
3
 72
8
 73
4
 74
0
 40
0
 40
0
 40
0
 40
0
 40
1
 40
1
 40
1
 40
1
 10
-133.932624
 20
74.697105
 30
0.0
 10
-133.572405
 20
73.860882
 30
0.0
 10
-133.077103
 20
73.127580
 30
0.0
 10
-132.446716
 20
72.497198
 30
0.0
  0
SPLINE
  5
1e0
100
AcDbEntity
  8
Ebene_1
 62
7
100
AcDbSpline
 70
8
 71
3
 72
8
 73
4
 74
0
 40
0
 40
0
 40
0
 40
0
 40
1
 40
1
 40
1
 40
1
 10
-132.446716
 20
72.497198
 30
0.0
 10
-131.803470
 20
71.879677
 30
0.0
 10
-131.044437
 20
71.384374
 30
0.0
 10
-130.169618
 20
71.011290
 30
0.0
  0
SPLINE
  5
1e1
100
AcDbEntity
  8
Ebene_1
 62
7
100
AcDbSpline
 70
8
 71
3
 72
8
 73
4
 74
0
 40
0
 40
0
 40
0
 40
0
 40
1
 40
1
 40
1
 40
1
 10
-130.169618
 20
71.011290
 30
0.0
 10
-129.294799
 20
70.651072
 30
0.0
 10
-128.336359
 20
70.470962
 30
0.0
 10
-127.294299
 20
70.470962
 30
0.0
  0
SPLINE
  5
1e2
100
AcDbEntity
  8
Ebene_1
 62
7
100
AcDbSpline
 70
8
 71
3
 72
8
 73
4
 74
0
 40
0
 40
0
 40
0
 40
0
 40
1
 40
1
 40
1
 40
1
 10
-127.294299
 20
70.470962
 30
0.0
 10
-126.252233
 20
70.470962
 30
0.0
 10
-125.293791
 20
70.651072
 30
0.0
 10
-124.418972
 20
71.011290
 30
0.0
  0
SPLINE
  5
1e3
100
AcDbEntity
  8
Ebene_1
 62
7
100
AcDbSpline
 70
8
 71
3
 72
8
 73
4
 74
0
 40
0
 40
0
 40
0
 40
0
 40
1
 40
1
 40
1
 40
1
 10
-124.418972
 20
71.011290
 30
0.0
 10
-123.531293
 20
71.384374
 30
0.0
 10
-122.772260
 20
71.886109
 30
0.0
 10
-122.141874
 20
72.516496
 30
0.0
  0
SPLINE
  5
1e4
100
AcDbEntity
  8
Ebene_1
 62
7
100
AcDbSpline
 70
8
 71
3
 72
8
 73
4
 74
0
 40
0
 40
0
 40
0
 40
0
 40
1
 40
1
 40
1
 40
1
 10
-122.141874
 20
72.516496
 30
0.0
 10
-121.498627
 20
73.159742
 30
0.0
 10
-120.996892
 20
73.899477
 30
0.0
 10
-120.636668
 20
74.735701
 30
0.0
  0
SPLINE
  5
1e5
100
AcDbEntity
  8
Ebene_1
 62
7
100
AcDbSpline
 70
8
 71
3
 72
8
 73
4
 74
0
 40
0
 40
0
 40
0
 40
0
 40
1
 40
1
 40
1
 40
1
 10
-120.636668
 20
74.735701
 30
0.0
 10
-120.276449
 20
75.584790
 30
0.0
 10
-120.096340
 20
76.491771
 30
0.0
 10
-120.096340
 20
77.456646
 30
0.0
  0
LWPOLYLINE
  5
1e6
100
AcDbEntity
  8
Ebene_1
 62
7
100
AcDbPolyline
 90
2
 70
0
 10
-134.453654
 20
77.456613
 30
0.0
 10
-134.453654
 20
77.418051
 30
0.0
  0
SPLINE
  5
1e7
100
AcDbEntity
  8
Ebene_1
 62
7
100
AcDbSpline
 70
8
 71
3
 72
8
 73
4
 74
0
 40
0
 40
0
 40
0
 40
0
 40
1
 40
1
 40
1
 40
1
 10
-123.203232
 20
77.418085
 30
0.0
 10
-123.203232
 20
76.839158
 30
0.0
 10
-123.306153
 20
76.292398
 30
0.0
 10
-123.511995
 20
75.777803
 30
0.0
  0
SPLINE
  5
1e8
100
AcDbEntity
  8
Ebene_1
 62
7
100
AcDbSpline
 70
8
 71
3
 72
8
 73
4
 74
0
 40
0
 40
0
 40
0
 40
0
 40
1
 40
1
 40
1
 40
1
 10
-123.511995
 20
75.777803
 30
0.0
 10
-123.704967
 20
75.276068
 30
0.0
 10
-123.981565
 20
74.832226
 30
0.0
 10
-124.341789
 20
74.446277
 30
0.0
  0
SPLINE
  5
1e9
100
AcDbEntity
  8
Ebene_1
 62
7
100
AcDbSpline
 70
8
 71
3
 72
8
 73
4
 74
0
 40
0
 40
0
 40
0
 40
0
 40
1
 40
1
 40
1
 40
1
 10
-124.341789
 20
74.446277
 30
0.0
 10
-124.689143
 20
74.060328
 30
0.0
 10
-125.113684
 20
73.758000
 30
0.0
 10
-125.615414
 20
73.539292
 30
0.0
  0
SPLINE
  5
1ea
100
AcDbEntity
  8
Ebene_1
 62
7
100
AcDbSpline
 70
8
 71
3
 72
8
 73
4
 74
0
 40
0
 40
0
 40
0
 40
0
 40
1
 40
1
 40
1
 40
1
 10
-125.615414
 20
73.539292
 30
0.0
 10
-126.117149
 20
73.320590
 30
0.0
 10
-126.663912
 20
73.211239
 30
0.0
 10
-127.255704
 20
73.211239
 30
0.0
  0
SPLINE
  5
1eb
100
AcDbEntity
  8
Ebene_1
 62
7
100
AcDbSpline
 70
8
 71
3
 72
8
 73
4
 74
0
 40
0
 40
0
 40
0
 40
0
 40
1
 40
1
 40
1
 40
1
 10
-127.255704
 20
73.211239
 30
0.0
 10
-127.860354
 20
73.211239
 30
0.0
 10
-128.413547
 20
73.320590
 30
0.0
 10
-128.915283
 20
73.539292
 30
0.0
  0
SPLINE
  5
1ec
100
AcDbEntity
  8
Ebene_1
 62
7
100
AcDbSpline
 70
8
 71
3
 72
8
 73
4
 74
0
 40
0
 40
0
 40
0
 40
0
 40
1
 40
1
 40
1
 40
1
 10
-128.915283
 20
73.539292
 30
0.0
 10
-129.404153
 20
73.770865
 30
0.0
 10
-129.835130
 20
74.079626
 30
0.0
 10
-130.208214
 20
74.465575
 30
0.0
  0
SPLINE
  5
1ed
100
AcDbEntity
  8
Ebene_1
 62
7
100
AcDbSpline
 70
8
 71
3
 72
8
 73
4
 74
0
 40
0
 40
0
 40
0
 40
0
 40
1
 40
1
 40
1
 40
1
 10
-130.208214
 20
74.465575
 30
0.0
 10
-130.568432
 20
74.851523
 30
0.0
 10
-130.851463
 20
75.301795
 30
0.0
 10
-131.057305
 20
75.816390
 30
0.0
  0
SPLINE
  5
1ee
100
AcDbEntity
  8
Ebene_1
 62
7
100
AcDbSpline
 70
8
 71
3
 72
8
 73
4
 74
0
 40
0
 40
0
 40
0
 40
0
 40
1
 40
1
 40
1
 40
1
 10
-131.057305
 20
75.816390
 30
0.0
 10
-131.250277
 20
76.330991
 30
0.0
 10
-131.346762
 20
76.877754
 30
0.0
 10
-131.346762
 20
77.456680
 30
0.0
  0
LWPOLYLINE
  5
1ef
100
AcDbEntity
  8
Ebene_1
 62
7
100
AcDbPolyline
 90
1
 70
1
 10
-120.096340
 20
77.456646
 30
0.0
  0
SPLINE
  5
1f0
100
AcDbEntity
  8
Ebene_1
 62
7
100
AcDbSpline
 70
8
 71
3
 72
8
 73
4
 74
0
 40
0
 40
0
 40
0
 40
0
 40
1
 40
1
 40
1
 40
1
 10
-131.346762
 20
77.495242
 30
0.0
 10
-131.346762
 20
78.074163
 30
0.0
 10
-131.250277
 20
78.614490
 30
0.0
 10
-131.057305
 20
79.116226
 30
0.0
  0
SPLINE
  5
1f1
100
AcDbEntity
  8
Ebene_1
 62
7
100
AcDbSpline
 70
8
 71
3
 72
8
 73
4
 74
0
 40
0
 40
0
 40
0
 40
0
 40
1
 40
1
 40
1
 40
1
 10
-131.057305
 20
79.116226
 30
0.0
 10
-130.851463
 20
79.630826
 30
0.0
 10
-130.574865
 20
80.081101
 30
0.0
 10
-130.227511
 20
80.467050
 30
0.0
  0
SPLINE
  5
1f2
100
AcDbEntity
  8
Ebene_1
 62
7
100
AcDbSpline
 70
8
 71
3
 72
8
 73
4
 74
0
 40
0
 40
0
 40
0
 40
0
 40
1
 40
1
 40
1
 40
1
 10
-130.227511
 20
80.467050
 30
0.0
 10
-129.867293
 20
80.852999
 30
0.0
 10
-129.442748
 20
81.155324
 30
0.0
 10
-128.953878
 20
81.374026
 30
0.0
  0
SPLINE
  5
1f3
100
AcDbEntity
  8
Ebene_1
 62
7
100
AcDbSpline
 70
8
 71
3
 72
8
 73
4
 74
0
 40
0
 40
0
 40
0
 40
0
 40
1
 40
1
 40
1
 40
1
 10
-128.953878
 20
81.374026
 30
0.0
 10
-128.452143
 20
81.592733
 30
0.0
 10
-127.898950
 20
81.702087
 30
0.0
 10
-127.294299
 20
81.702087
 30
0.0
  0
SPLINE
  5
1f4
100
AcDbEntity
  8
Ebene_1
 62
7
100
AcDbSpline
 70
8
 71
3
 72
8
 73
4
 74
0
 40
0
 40
0
 40
0
 40
0
 40
1
 40
1
 40
1
 40
1
 10
-127.294299
 20
81.702087
 30
0.0
 10
-126.702508
 20
81.702087
 30
0.0
 10
-126.155744
 20
81.586304
 30
0.0
 10
-125.654009
 20
81.354737
 30
0.0
  0
SPLINE
  5
1f5
100
AcDbEntity
  8
Ebene_1
 62
7
100
AcDbSpline
 70
8
 71
3
 72
8
 73
4
 74
0
 40
0
 40
0
 40
0
 40
0
 40
1
 40
1
 40
1
 40
1
 10
-125.654009
 20
81.354737
 30
0.0
 10
-125.152280
 20
81.136029
 30
0.0
 10
-124.721303
 20
80.833701
 30
0.0
 10
-124.361078
 20
80.447752
 30
0.0
  0
SPLINE
  5
1f6
100
AcDbEntity
  8
Ebene_1
 62
7
100
AcDbSpline
 70
8
 71
3
 72
8
 73
4
 74
0
 40
0
 40
0
 40
0
 40
0
 40
1
 40
1
 40
1
 40
1
 10
-124.361078
 20
80.447752
 30
0.0
 10
-123.987995
 20
80.061803
 30
0.0
 10
-123.704967
 20
79.611528
 30
0.0
 10
-123.511995
 20
79.096928
 30
0.0
  0
SPLINE
  5
1f7
100
AcDbEntity
  8
Ebene_1
 62
7
100
AcDbSpline
 70
8
 71
3
 72
8
 73
4
 74
0
 40
0
 40
0
 40
0
 40
0
 40
1
 40
1
 40
1
 40
1
 10
-123.511995
 20
79.096928
 30
0.0
 10
-123.306153
 20
78.582328
 30
0.0
 10
-123.203232
 20
78.035567
 30
0.0
 10
-123.203232
 20
77.456646
 30
0.0
  0
LWPOLYLINE
  5
1f8
100
AcDbEntity
  8
Ebene_1
 62
7
100
AcDbPolyline
 90
2
 70
0
 10
-131.346762
 20
77.456680
 30
0.0
 10
-131.346762
 20
77.495242
 30
0.0
  0
LWPOLYLINE
  5
1f9
100
AcDbEntity
  8
Ebene_1
 62
7
100
AcDbPolyline
 90
2
 70
0
 10
-123.203232
 20
77.456646
 30
0.0
 10
-123.203232
 20
77.418085
 30
0.0
  0
LWPOLYLINE
  5
1fa
100
AcDbEntity
  8
Ebene_1
 62
7
100
AcDbPolyline
 90
10
 70
1
 10
-105.457105
 20
70.702535
 30
0.0
 10
-105.457105
 20
84.210758
 30
0.0
 10
-108.390317
 20
84.210758
 30
0.0
 10
-108.390317
 20
75.893548
 30
0.0
 10
-114.719887
 20
84.210758
 30
0.0
 10
-117.460130
 20
84.210758
 30
0.0
 10
-117.460130
 20
70.702535
 30
0.0
 10
-114.526918
 20
70.702535
 30
0.0
 10
-114.526918
 20
79.289905
 30
0.0
 10
-107.985073
 20
70.702535
 30
0.0
  0
LWPOLYLINE
  5
1fb
100
AcDbEntity
  8
Ebene_1
 62
7
100
AcDbPolyline
 90
6
 70
1
 10
-92.526599
 20
70.702535
 30
0.0
 10
-92.526599
 20
73.404175
 30
0.0
 10
-99.261415
 20
73.404175
 30
0.0
 10
-99.261415
 20
84.210758
 30
0.0
 10
-102.233224
 20
84.210758
 30
0.0
 10
-102.233224
 20
70.702535
 30
0.0
  0
LWPOLYLINE
  5
1fc
100
AcDbEntity
  8
Ebene_1
 62
7
100
AcDbPolyline
 90
9
 70
1
 10
-78.320952
 20
84.210758
 30
0.0
 10
-81.698008
 20
84.210758
 30
0.0
 10
-84.978577
 20
78.788173
 30
0.0
 10
-88.201253
 20
84.210758
 30
0.0
 10
-91.674797
 20
84.210758
 30
0.0
 10
-86.483779
 20
76.028632
 30
0.0
 10
-86.483779
 20
70.702535
 30
0.0
 10
-83.511970
 20
70.702535
 30
0.0
 10
-83.511970
 20
76.086525
 30
0.0
  0
ENDSEC
  0
SECTION
  2
OBJECTS
  0
DICTIONARY
  5
C
330
0
100
AcDbDictionary
  3
ACAD_GROUP
350
D
  3
ACAD_MLINESTYLE
350
17
  0
DICTIONARY
  5
D
330
C
100
AcDbDictionary
  0
DICTIONARY
  5
1A
330
C
100
AcDbDictionary
  0
DICTIONARY
  5
17
330
C
100
AcDbDictionary
  3
STANDARD
350
18
  0
DICTIONARY
  5
19
330
C
100
AcDbDictionary
  0
ENDSEC
  0
EOF
