  0
SECTION
  2
HEADER
  9
$ACADVER
  1
AC1014
  9
$HANDSEED
  5
FFFF
  9
$MEASUREMENT
 70
     1
  0
ENDSEC
  0
SECTION
  2
TABLES
  0
TABLE
  2
VPORT
  5
8
330
0
100
AcDbSymbolTable
 70
     4
  0
VPORT
  5
2E
330
8
100
AcDbSymbolTableRecord
100
AcDbViewportTableRecord
  2
*ACTIVE
 70
     0
 10
0.0
 20
0.0
 11
1.0
 21
1.0
 12
210.0
 22
148.5
 13
0.0
 23
0.0
 14
10.0
 24
10.0
 15
10.0
 25
10.0
 16
0.0
 26
0.0
 36
1.0
 17
0.0
 27
0.0
 37
0.0
 40
341.0
 41
1.24
 42
50.0
 43
0.0
 44
0.0
 50
0.0
 51
0.0
 71
     0
 72
   100
 73
     1
 74
     3
 75
     0
 76
     0
 77
     0
 78
     0
  0
ENDTAB
  0
TABLE
  2
LTYPE
  5
5
330
0
100
AcDbSymbolTable
 70
     1
  0
LTYPE
  5
14
330
5
100
AcDbSymbolTableRecord
100
AcDbLinetypeTableRecord
  2
BYBLOCK
 70
     0
  3

 72
    65
 73
     0
 40
0.0
  0
LTYPE
  5
15
330
5
100
AcDbSymbolTableRecord
100
AcDbLinetypeTableRecord
  2
BYLAYER
 70
     0
  3

 72
    65
 73
     0
 40
0.0
  0
LTYPE
  5
16
330
5
100
AcDbSymbolTableRecord
100
AcDbLinetypeTableRecord
  2
CONTINUOUS
 70
     0
  3
Solid line
 72
    65
 73
     0
 40
0.0
  0
ENDTAB
  0
TABLE
  2
LAYER
  5
2
100
AcDbSymbolTable
 70
2
  0
LAYER
  5
50
100
AcDbSymbolTableRecord
100
AcDbLayerTableRecord
  2
0
 70
0
  6
CONTINUOUS
  0
LAYER
  5
51
100
AcDbSymbolTableRecord
100
AcDbLayerTableRecord
  2
Ebene_1
 70
0
  6
CONTINUOUS
  0
ENDTAB
  0
TABLE
  2
STYLE
  5
3
330
0
100
AcDbSymbolTable
 70
     1
  0
STYLE
  5
11
330
3
100
AcDbSymbolTableRecord
100
AcDbTextStyleTableRecord
  2
STANDARD
 70
     0
 40
0.0
 41
1.0
 50
0.0
 71
     0
 42
2.5
  3
txt
  4

  0
ENDTAB
  0
TABLE
  2
VIEW
  5
6
330
0
100
AcDbSymbolTable
 70
     0
  0
ENDTAB
  0
TABLE
  2
UCS
  5
7
330
0
100
AcDbSymbolTable
 70
     0
  0
ENDTAB
  0
TABLE
  2
APPID
  5
9
330
0
100
AcDbSymbolTable
 70
     2
  0
APPID
  5
12
330
9
100
AcDbSymbolTableRecord
100
AcDbRegAppTableRecord
  2
ACAD
 70
     0
  0
ENDTAB
  0
TABLE
  2
DIMSTYLE
  5
A
330
0
100
AcDbSymbolTable
 70
     1
  0
DIMSTYLE
105
27
330
A
100
AcDbSymbolTableRecord
100
AcDbDimStyleTableRecord
  2
ISO-25
 70
     0
  3

  4

  5

  6

  7

 40
1.0
 41
2.5
 42
0.625
 43
3.75
 44
1.25
 45
0.0
 46
0.0
 47
0.0
 48
0.0
140
2.5
141
2.5
142
0.0
143
0.03937007874016
144
1.0
145
0.0
146
1.0
147
0.625
 71
     0
 72
     0
 73
     0
 74
     0
 75
     0
 76
     0
 77
     1
 78
     8
170
     0
171
     3
172
     1
173
     0
174
     0
175
     0
176
     0
177
     0
178
     0
270
     2
271
     2
272
     2
273
     2
274
     3
340
11
275
     0
280
     0
281
     0
282
     0
283
     0
284
     8
285
     0
286
     0
287
     3
288
     0
  0
ENDTAB
  0
TABLE
  2
BLOCK_RECORD
  5
1
330
0
100
AcDbSymbolTable
 70
     1
  0
BLOCK_RECORD
  5
1F
330
1
100
AcDbSymbolTableRecord
100
AcDbBlockTableRecord
  2
*MODEL_SPACE
  0
BLOCK_RECORD
  5
1B
330
1
100
AcDbSymbolTableRecord
100
AcDbBlockTableRecord
  2
*PAPER_SPACE
  0
ENDTAB
  0
ENDSEC
  0
SECTION
  2
BLOCKS
  0
BLOCK
  5
20
330
1F
100
AcDbEntity
  8
0
100
AcDbBlockBegin
  2
*MODEL_SPACE
 70
     0
 10
0.0
 20
0.0
 30
0.0
  3
*MODEL_SPACE
  1

  0
ENDBLK
  5
21
330
1F
100
AcDbEntity
  8
0
100
AcDbBlockEnd
  0
BLOCK
  5
1C
330
1B
100
AcDbEntity
 67
     1
  8
0
100
AcDbBlockBegin
  2
*PAPER_SPACE
  1

  0
ENDBLK
  5
1D
330
1B
100
AcDbEntity
 67
     1
  8
0
100
AcDbBlockEnd
  0
ENDSEC
  0
SECTION
  2
ENTITIES
  0
SPLINE
  5
100
100
AcDbEntity
  8
Ebene_1
 62
7
100
AcDbSpline
 70
8
 71
3
 72
8
 73
4
 74
0
 40
0
 40
0
 40
0
 40
0
 40
1
 40
1
 40
1
 40
1
 10
247.586300
 20
336.582770
 30
0.0
 10
247.586300
 20
317.288200
 30
0.0
 10
263.205900
 20
301.647540
 30
0.0
 10
282.474400
 20
301.647540
 30
0.0
  0
LWPOLYLINE
  5
101
100
AcDbEntity
  8
Ebene_1
 62
7
100
AcDbPolyline
 90
4
 70
1
 10
237.586300
 20
289.822020
 30
0.0
 10
237.586300
 20
509.422030
 30
0.0
 10
537.186260
 20
509.422030
 30
0.0
 10
537.186260
 20
289.822020
 30
0.0
  0
SPLINE
  5
102
100
AcDbEntity
  8
Ebene_1
 62
7
100
AcDbSpline
 70
8
 71
3
 72
8
 73
4
 74
0
 40
0
 40
0
 40
0
 40
0
 40
1
 40
1
 40
1
 40
1
 10
492.320260
 20
301.647540
 30
0.0
 10
511.588850
 20
301.647540
 30
0.0
 10
527.208370
 20
317.288190
 30
0.0
 10
527.208370
 20
336.582770
 30
0.0
  0
LWPOLYLINE
  5
103
100
AcDbEntity
  8
Ebene_1
 62
7
100
AcDbPolyline
 90
2
 70
0
 10
282.474400
 20
301.647540
 30
0.0
 10
492.320260
 20
301.647540
 30
0.0
  0
SPLINE
  5
104
100
AcDbEntity
  8
Ebene_1
 62
7
100
AcDbSpline
 70
8
 71
3
 72
8
 73
4
 74
0
 40
0
 40
0
 40
0
 40
0
 40
1
 40
1
 40
1
 40
1
 10
527.208370
 20
462.661270
 30
0.0
 10
527.208370
 20
481.955840
 30
0.0
 10
511.588850
 20
497.596490
 30
0.0
 10
492.320260
 20
497.596490
 30
0.0
  0
LWPOLYLINE
  5
105
100
AcDbEntity
  8
Ebene_1
 62
7
100
AcDbPolyline
 90
2
 70
0
 10
527.208370
 20
336.582770
 30
0.0
 10
527.208370
 20
462.661270
 30
0.0
  0
SPLINE
  5
106
100
AcDbEntity
  8
Ebene_1
 62
7
100
AcDbSpline
 70
8
 71
3
 72
8
 73
4
 74
0
 40
0
 40
0
 40
0
 40
0
 40
1
 40
1
 40
1
 40
1
 10
282.474400
 20
497.596490
 30
0.0
 10
263.205900
 20
497.596490
 30
0.0
 10
247.586300
 20
481.955840
 30
0.0
 10
247.586300
 20
462.661270
 30
0.0
  0
LWPOLYLINE
  5
107
100
AcDbEntity
  8
Ebene_1
 62
7
100
AcDbPolyline
 90
2
 70
0
 10
492.320260
 20
497.596490
 30
0.0
 10
282.474400
 20
497.596490
 30
0.0
  0
LWPOLYLINE
  5
108
100
AcDbEntity
  8
Ebene_1
 62
7
100
AcDbPolyline
 90
2
 70
0
 10
247.586300
 20
462.661270
 30
0.0
 10
247.586300
 20
336.582770
 30
0.0
  0
SPLINE
  5
109
100
AcDbEntity
  8
Ebene_1
 62
7
100
AcDbSpline
 70
8
 71
3
 72
8
 73
4
 74
0
 40
0
 40
0
 40
0
 40
0
 40
1
 40
1
 40
1
 40
1
 10
254.406400
 20
462.661270
 30
0.0
 10
254.406400
 20
478.290550
 30
0.0
 10
266.866200
 20
490.767220
 30
0.0
 10
282.474400
 20
490.767220
 30
0.0
  0
LWPOLYLINE
  5
10a
100
AcDbEntity
  8
Ebene_1
 62
7
100
AcDbPolyline
 90
2
 70
0
 10
254.406400
 20
336.582770
 30
0.0
 10
254.406400
 20
462.661270
 30
0.0
  0
SPLINE
  5
10b
100
AcDbEntity
  8
Ebene_1
 62
7
100
AcDbSpline
 70
8
 71
3
 72
8
 73
4
 74
0
 40
0
 40
0
 40
0
 40
0
 40
1
 40
1
 40
1
 40
1
 10
492.320260
 20
490.767220
 30
0.0
 10
507.928470
 20
490.767220
 30
0.0
 10
520.388260
 20
478.290550
 30
0.0
 10
520.388260
 20
462.661270
 30
0.0
  0
LWPOLYLINE
  5
10c
100
AcDbEntity
  8
Ebene_1
 62
7
100
AcDbPolyline
 90
2
 70
0
 10
282.474400
 20
490.767220
 30
0.0
 10
492.320260
 20
490.767220
 30
0.0
  0
SPLINE
  5
10d
100
AcDbEntity
  8
Ebene_1
 62
7
100
AcDbSpline
 70
8
 71
3
 72
8
 73
4
 74
0
 40
0
 40
0
 40
0
 40
0
 40
1
 40
1
 40
1
 40
1
 10
520.388260
 20
336.582770
 30
0.0
 10
520.388260
 20
320.953490
 30
0.0
 10
507.928470
 20
308.476810
 30
0.0
 10
492.320260
 20
308.476810
 30
0.0
  0
LWPOLYLINE
  5
10e
100
AcDbEntity
  8
Ebene_1
 62
7
100
AcDbPolyline
 90
2
 70
0
 10
520.388260
 20
462.661270
 30
0.0
 10
520.388260
 20
336.582770
 30
0.0
  0
SPLINE
  5
10f
100
AcDbEntity
  8
Ebene_1
 62
7
100
AcDbSpline
 70
8
 71
3
 72
8
 73
4
 74
0
 40
0
 40
0
 40
0
 40
0
 40
1
 40
1
 40
1
 40
1
 10
282.474400
 20
308.476810
 30
0.0
 10
266.866200
 20
308.476810
 30
0.0
 10
254.406400
 20
320.953490
 30
0.0
 10
254.406400
 20
336.582770
 30
0.0
  0
LWPOLYLINE
  5
110
100
AcDbEntity
  8
Ebene_1
 62
7
100
AcDbPolyline
 90
2
 70
0
 10
492.320260
 20
308.476810
 30
0.0
 10
282.474400
 20
308.476810
 30
0.0
  0
SPLINE
  5
111
100
AcDbEntity
  8
Ebene_1
 62
7
100
AcDbSpline
 70
8
 71
3
 72
8
 73
4
 74
0
 40
0
 40
0
 40
0
 40
0
 40
1
 40
1
 40
1
 40
1
 10
505.377970
 20
324.708330
 30
0.0
 10
506.758670
 20
324.708324
 30
0.0
 10
507.877949
 20
323.589050
 30
0.0
 10
507.877960
 20
322.208350
 30
0.0
  0
SPLINE
  5
112
100
AcDbEntity
  8
Ebene_1
 62
7
100
AcDbSpline
 70
8
 71
3
 72
8
 73
4
 74
0
 40
0
 40
0
 40
0
 40
0
 40
1
 40
1
 40
1
 40
1
 10
507.877960
 20
322.208350
 30
0.0
 10
507.877960
 20
320.827642
 30
0.0
 10
506.758678
 20
319.708356
 30
0.0
 10
505.377970
 20
319.708350
 30
0.0
  0
SPLINE
  5
113
100
AcDbEntity
  8
Ebene_1
 62
7
100
AcDbSpline
 70
8
 71
3
 72
8
 73
4
 74
0
 40
0
 40
0
 40
0
 40
0
 40
1
 40
1
 40
1
 40
1
 10
505.377970
 20
319.708350
 30
0.0
 10
504.714929
 20
319.708350
 30
0.0
 10
504.079044
 20
319.971742
 30
0.0
 10
503.610203
 20
320.440583
 30
0.0
  0
SPLINE
  5
114
100
AcDbEntity
  8
Ebene_1
 62
7
100
AcDbSpline
 70
8
 71
3
 72
8
 73
4
 74
0
 40
0
 40
0
 40
0
 40
0
 40
1
 40
1
 40
1
 40
1
 10
503.610203
 20
320.440583
 30
0.0
 10
503.141362
 20
320.909424
 30
0.0
 10
502.877970
 20
321.545309
 30
0.0
 10
502.877970
 20
322.208350
 30
0.0
  0
SPLINE
  5
115
100
AcDbEntity
  8
Ebene_1
 62
7
100
AcDbSpline
 70
8
 71
3
 72
8
 73
4
 74
0
 40
0
 40
0
 40
0
 40
0
 40
1
 40
1
 40
1
 40
1
 10
502.877970
 20
322.208350
 30
0.0
 10
502.877981
 20
323.589054
 30
0.0
 10
503.997266
 20
324.708330
 30
0.0
 10
505.377970
 20
324.708330
 30
0.0
  0
LWPOLYLINE
  5
116
100
AcDbEntity
  8
Ebene_1
 62
7
100
AcDbPolyline
 90
1
 70
1
 10
254.406400
 20
336.582770
 30
0.0
  0
SPLINE
  5
117
100
AcDbEntity
  8
Ebene_1
 62
7
100
AcDbSpline
 70
8
 71
3
 72
8
 73
4
 74
0
 40
0
 40
0
 40
0
 40
0
 40
1
 40
1
 40
1
 40
1
 10
505.086270
 20
479.622020
 30
0.0
 10
505.749329
 20
479.622047
 30
0.0
 10
506.385239
 20
479.358666
 30
0.0
 10
506.854102
 20
478.889822
 30
0.0
  0
SPLINE
  5
118
100
AcDbEntity
  8
Ebene_1
 62
7
100
AcDbSpline
 70
8
 71
3
 72
8
 73
4
 74
0
 40
0
 40
0
 40
0
 40
0
 40
1
 40
1
 40
1
 40
1
 10
506.854102
 20
478.889822
 30
0.0
 10
507.322964
 20
478.420978
 30
0.0
 10
507.586370
 20
477.785079
 30
0.0
 10
507.586370
 20
477.122020
 30
0.0
  0
SPLINE
  5
119
100
AcDbEntity
  8
Ebene_1
 62
7
100
AcDbSpline
 70
8
 71
3
 72
8
 73
4
 74
0
 40
0
 40
0
 40
0
 40
0
 40
1
 40
1
 40
1
 40
1
 10
507.586370
 20
477.122020
 30
0.0
 10
507.586370
 20
476.458961
 30
0.0
 10
507.322964
 20
475.823062
 30
0.0
 10
506.854102
 20
475.354218
 30
0.0
  0
SPLINE
  5
11a
100
AcDbEntity
  8
Ebene_1
 62
7
100
AcDbSpline
 70
8
 71
3
 72
8
 73
4
 74
0
 40
0
 40
0
 40
0
 40
0
 40
1
 40
1
 40
1
 40
1
 10
506.854102
 20
475.354218
 30
0.0
 10
506.385239
 20
474.885374
 30
0.0
 10
505.749329
 20
474.621993
 30
0.0
 10
505.086270
 20
474.622020
 30
0.0
  0
SPLINE
  5
11b
100
AcDbEntity
  8
Ebene_1
 62
7
100
AcDbSpline
 70
8
 71
3
 72
8
 73
4
 74
0
 40
0
 40
0
 40
0
 40
0
 40
1
 40
1
 40
1
 40
1
 10
505.086270
 20
474.622020
 30
0.0
 10
503.705589
 20
474.622064
 30
0.0
 10
502.586350
 20
475.741339
 30
0.0
 10
502.586350
 20
477.122020
 30
0.0
  0
SPLINE
  5
11c
100
AcDbEntity
  8
Ebene_1
 62
7
100
AcDbSpline
 70
8
 71
3
 72
8
 73
4
 74
0
 40
0
 40
0
 40
0
 40
0
 40
1
 40
1
 40
1
 40
1
 10
502.586350
 20
477.122020
 30
0.0
 10
502.586350
 20
478.502701
 30
0.0
 10
503.705589
 20
479.621976
 30
0.0
 10
505.086270
 20
479.622020
 30
0.0
  0
LWPOLYLINE
  5
11d
100
AcDbEntity
  8
Ebene_1
 62
7
100
AcDbPolyline
 90
1
 70
1
 10
505.377970
 20
324.708330
 30
0.0
  0
SPLINE
  5
11e
100
AcDbEntity
  8
Ebene_1
 62
7
100
AcDbSpline
 70
8
 71
3
 72
8
 73
4
 74
0
 40
0
 40
0
 40
0
 40
0
 40
1
 40
1
 40
1
 40
1
 10
270.000000
 20
480.000000
 30
0.0
 10
270.663041
 20
480.000000
 30
0.0
 10
271.298926
 20
479.736608
 30
0.0
 10
271.767767
 20
479.267767
 30
0.0
  0
SPLINE
  5
11f
100
AcDbEntity
  8
Ebene_1
 62
7
100
AcDbSpline
 70
8
 71
3
 72
8
 73
4
 74
0
 40
0
 40
0
 40
0
 40
0
 40
1
 40
1
 40
1
 40
1
 10
271.767767
 20
479.267767
 30
0.0
 10
272.236608
 20
478.798926
 30
0.0
 10
272.500000
 20
478.163041
 30
0.0
 10
272.500000
 20
477.500000
 30
0.0
  0
SPLINE
  5
120
100
AcDbEntity
  8
Ebene_1
 62
7
100
AcDbSpline
 70
8
 71
3
 72
8
 73
4
 74
0
 40
0
 40
0
 40
0
 40
0
 40
1
 40
1
 40
1
 40
1
 10
272.500000
 20
477.500000
 30
0.0
 10
272.500000
 20
476.836959
 30
0.0
 10
272.236608
 20
476.201074
 30
0.0
 10
271.767767
 20
475.732233
 30
0.0
  0
SPLINE
  5
121
100
AcDbEntity
  8
Ebene_1
 62
7
100
AcDbSpline
 70
8
 71
3
 72
8
 73
4
 74
0
 40
0
 40
0
 40
0
 40
0
 40
1
 40
1
 40
1
 40
1
 10
271.767767
 20
475.732233
 30
0.0
 10
271.298926
 20
475.263392
 30
0.0
 10
270.663041
 20
475.000000
 30
0.0
 10
270.000000
 20
475.000000
 30
0.0
  0
SPLINE
  5
122
100
AcDbEntity
  8
Ebene_1
 62
7
100
AcDbSpline
 70
8
 71
3
 72
8
 73
4
 74
0
 40
0
 40
0
 40
0
 40
0
 40
1
 40
1
 40
1
 40
1
 10
270.000000
 20
475.000000
 30
0.0
 10
269.336959
 20
475.000000
 30
0.0
 10
268.701074
 20
475.263392
 30
0.0
 10
268.232233
 20
475.732233
 30
0.0
  0
SPLINE
  5
123
100
AcDbEntity
  8
Ebene_1
 62
7
100
AcDbSpline
 70
8
 71
3
 72
8
 73
4
 74
0
 40
0
 40
0
 40
0
 40
0
 40
1
 40
1
 40
1
 40
1
 10
268.232233
 20
475.732233
 30
0.0
 10
267.763392
 20
476.201074
 30
0.0
 10
267.500000
 20
476.836959
 30
0.0
 10
267.500000
 20
477.500000
 30
0.0
  0
SPLINE
  5
124
100
AcDbEntity
  8
Ebene_1
 62
7
100
AcDbSpline
 70
8
 71
3
 72
8
 73
4
 74
0
 40
0
 40
0
 40
0
 40
0
 40
1
 40
1
 40
1
 40
1
 10
267.500000
 20
477.500000
 30
0.0
 10
267.500000
 20
478.163041
 30
0.0
 10
267.763392
 20
478.798926
 30
0.0
 10
268.232233
 20
479.267767
 30
0.0
  0
SPLINE
  5
125
100
AcDbEntity
  8
Ebene_1
 62
7
100
AcDbSpline
 70
8
 71
3
 72
8
 73
4
 74
0
 40
0
 40
0
 40
0
 40
0
 40
1
 40
1
 40
1
 40
1
 10
268.232233
 20
479.267767
 30
0.0
 10
268.701074
 20
479.736608
 30
0.0
 10
269.336959
 20
480.000000
 30
0.0
 10
270.000000
 20
480.000000
 30
0.0
  0
LWPOLYLINE
  5
126
100
AcDbEntity
  8
Ebene_1
 62
7
100
AcDbPolyline
 90
1
 70
1
 10
505.086270
 20
479.622020
 30
0.0
  0
SPLINE
  5
127
100
AcDbEntity
  8
Ebene_1
 62
7
100
AcDbSpline
 70
8
 71
3
 72
8
 73
4
 74
0
 40
0
 40
0
 40
0
 40
0
 40
1
 40
1
 40
1
 40
1
 10
270.000000
 20
325.000000
 30
0.0
 10
270.663041
 20
325.000000
 30
0.0
 10
271.298926
 20
324.736608
 30
0.0
 10
271.767767
 20
324.267767
 30
0.0
  0
SPLINE
  5
128
100
AcDbEntity
  8
Ebene_1
 62
7
100
AcDbSpline
 70
8
 71
3
 72
8
 73
4
 74
0
 40
0
 40
0
 40
0
 40
0
 40
1
 40
1
 40
1
 40
1
 10
271.767767
 20
324.267767
 30
0.0
 10
272.236608
 20
323.798926
 30
0.0
 10
272.500000
 20
323.163041
 30
0.0
 10
272.500000
 20
322.500000
 30
0.0
  0
SPLINE
  5
129
100
AcDbEntity
  8
Ebene_1
 62
7
100
AcDbSpline
 70
8
 71
3
 72
8
 73
4
 74
0
 40
0
 40
0
 40
0
 40
0
 40
1
 40
1
 40
1
 40
1
 10
272.500000
 20
322.500000
 30
0.0
 10
272.500000
 20
321.836959
 30
0.0
 10
272.236608
 20
321.201074
 30
0.0
 10
271.767767
 20
320.732233
 30
0.0
  0
SPLINE
  5
12a
100
AcDbEntity
  8
Ebene_1
 62
7
100
AcDbSpline
 70
8
 71
3
 72
8
 73
4
 74
0
 40
0
 40
0
 40
0
 40
0
 40
1
 40
1
 40
1
 40
1
 10
271.767767
 20
320.732233
 30
0.0
 10
271.298926
 20
320.263392
 30
0.0
 10
270.663041
 20
320.000000
 30
0.0
 10
270.000000
 20
320.000000
 30
0.0
  0
SPLINE
  5
12b
100
AcDbEntity
  8
Ebene_1
 62
7
100
AcDbSpline
 70
8
 71
3
 72
8
 73
4
 74
0
 40
0
 40
0
 40
0
 40
0
 40
1
 40
1
 40
1
 40
1
 10
270.000000
 20
320.000000
 30
0.0
 10
269.336959
 20
320.000000
 30
0.0
 10
268.701074
 20
320.263392
 30
0.0
 10
268.232233
 20
320.732233
 30
0.0
  0
SPLINE
  5
12c
100
AcDbEntity
  8
Ebene_1
 62
7
100
AcDbSpline
 70
8
 71
3
 72
8
 73
4
 74
0
 40
0
 40
0
 40
0
 40
0
 40
1
 40
1
 40
1
 40
1
 10
268.232233
 20
320.732233
 30
0.0
 10
267.763392
 20
321.201074
 30
0.0
 10
267.500000
 20
321.836959
 30
0.0
 10
267.500000
 20
322.500000
 30
0.0
  0
SPLINE
  5
12d
100
AcDbEntity
  8
Ebene_1
 62
7
100
AcDbSpline
 70
8
 71
3
 72
8
 73
4
 74
0
 40
0
 40
0
 40
0
 40
0
 40
1
 40
1
 40
1
 40
1
 10
267.500000
 20
322.500000
 30
0.0
 10
267.500000
 20
323.163041
 30
0.0
 10
267.763392
 20
323.798926
 30
0.0
 10
268.232233
 20
324.267767
 30
0.0
  0
SPLINE
  5
12e
100
AcDbEntity
  8
Ebene_1
 62
7
100
AcDbSpline
 70
8
 71
3
 72
8
 73
4
 74
0
 40
0
 40
0
 40
0
 40
0
 40
1
 40
1
 40
1
 40
1
 10
268.232233
 20
324.267767
 30
0.0
 10
268.701074
 20
324.736608
 30
0.0
 10
269.336959
 20
325.000000
 30
0.0
 10
270.000000
 20
325.000000
 30
0.0
  0
LWPOLYLINE
  5
12f
100
AcDbEntity
  8
Ebene_1
 62
7
100
AcDbPolyline
 90
1
 70
1
 10
270.000000
 20
480.000000
 30
0.0
  0
SPLINE
  5
130
100
AcDbEntity
  8
Ebene_1
 62
7
100
AcDbSpline
 70
8
 71
3
 72
8
 73
4
 74
0
 40
0
 40
0
 40
0
 40
0
 40
1
 40
1
 40
1
 40
1
 10
388.160740
 20
478.529640
 30
0.0
 10
351.995500
 20
478.569240
 30
0.0
 10
314.789180
 20
472.193020
 30
0.0
 10
279.566020
 20
459.813880
 30
0.0
  0
SPLINE
  5
131
100
AcDbEntity
  8
Ebene_1
 62
7
100
AcDbSpline
 70
8
 71
3
 72
8
 73
4
 74
0
 40
0
 40
0
 40
0
 40
0
 40
1
 40
1
 40
1
 40
1
 10
279.566020
 20
459.813880
 30
0.0
 10
275.028930
 20
458.219340
 30
0.0
 10
267.288570
 20
455.295550
 30
0.0
 10
267.096270
 20
455.102980
 30
0.0
  0
SPLINE
  5
132
100
AcDbEntity
  8
Ebene_1
 62
7
100
AcDbSpline
 70
8
 71
3
 72
8
 73
4
 74
0
 40
0
 40
0
 40
0
 40
0
 40
1
 40
1
 40
1
 40
1
 10
267.096270
 20
455.102980
 30
0.0
 10
266.908460
 20
454.915170
 30
0.0
 10
268.137480
 20
452.152190
 30
0.0
 10
270.773860
 20
446.832780
 30
0.0
  0
SPLINE
  5
133
100
AcDbEntity
  8
Ebene_1
 62
7
100
AcDbSpline
 70
8
 71
3
 72
8
 73
4
 74
0
 40
0
 40
0
 40
0
 40
0
 40
1
 40
1
 40
1
 40
1
 10
270.773860
 20
446.832780
 30
0.0
 10
272.182880
 20
443.989600
 30
0.0
 10
273.462430
 20
441.614880
 30
0.0
 10
273.618650
 20
441.554830
 30
0.0
  0
SPLINE
  5
134
100
AcDbEntity
  8
Ebene_1
 62
7
100
AcDbSpline
 70
8
 71
3
 72
8
 73
4
 74
0
 40
0
 40
0
 40
0
 40
0
 40
1
 40
1
 40
1
 40
1
 10
273.618650
 20
441.554830
 30
0.0
 10
273.774350
 20
441.495130
 30
0.0
 10
275.574390
 20
442.142730
 30
0.0
 10
277.619280
 20
442.993930
 30
0.0
  0
SPLINE
  5
135
100
AcDbEntity
  8
Ebene_1
 62
7
100
AcDbSpline
 70
8
 71
3
 72
8
 73
4
 74
0
 40
0
 40
0
 40
0
 40
0
 40
1
 40
1
 40
1
 40
1
 10
277.619280
 20
442.993930
 30
0.0
 10
307.299880
 20
455.349050
 30
0.0
 10
338.183350
 20
462.190230
 30
0.0
 10
371.751360
 20
463.845280
 30
0.0
  0
SPLINE
  5
136
100
AcDbEntity
  8
Ebene_1
 62
7
100
AcDbSpline
 70
8
 71
3
 72
8
 73
4
 74
0
 40
0
 40
0
 40
0
 40
0
 40
1
 40
1
 40
1
 40
1
 10
371.751360
 20
463.845280
 30
0.0
 10
381.437850
 20
464.322860
 30
0.0
 10
401.441390
 20
464.093930
 30
0.0
 10
411.070220
 20
463.395460
 30
0.0
  0
SPLINE
  5
137
100
AcDbEntity
  8
Ebene_1
 62
7
100
AcDbSpline
 70
8
 71
3
 72
8
 73
4
 74
0
 40
0
 40
0
 40
0
 40
0
 40
1
 40
1
 40
1
 40
1
 10
411.070220
 20
463.395460
 30
0.0
 10
441.040730
 20
461.221490
 30
0.0
 10
471.081320
 20
454.125270
 30
0.0
 10
497.522490
 20
442.973780
 30
0.0
  0
SPLINE
  5
138
100
AcDbEntity
  8
Ebene_1
 62
7
100
AcDbSpline
 70
8
 71
3
 72
8
 73
4
 74
0
 40
0
 40
0
 40
0
 40
0
 40
1
 40
1
 40
1
 40
1
 10
497.522490
 20
442.973780
 30
0.0
 10
499.653340
 20
442.075100
 30
0.0
 10
501.465050
 20
441.397850
 30
0.0
 10
501.549110
 20
441.468360
 30
0.0
  0
SPLINE
  5
139
100
AcDbEntity
  8
Ebene_1
 62
7
100
AcDbSpline
 70
8
 71
3
 72
8
 73
4
 74
0
 40
0
 40
0
 40
0
 40
0
 40
1
 40
1
 40
1
 40
1
 10
501.549110
 20
441.468360
 30
0.0
 10
502.174150
 20
441.994560
 30
0.0
 10
508.342160
 20
454.871020
 30
0.0
 10
508.090060
 20
455.123140
 30
0.0
  0
SPLINE
  5
13a
100
AcDbEntity
  8
Ebene_1
 62
7
100
AcDbSpline
 70
8
 71
3
 72
8
 73
4
 74
0
 40
0
 40
0
 40
0
 40
0
 40
1
 40
1
 40
1
 40
1
 10
508.090060
 20
455.123140
 30
0.0
 10
508.041860
 20
455.171340
 30
0.0
 10
506.123620
 20
455.920170
 30
0.0
 10
503.826840
 20
456.787140
 30
0.0
  0
SPLINE
  5
13b
100
AcDbEntity
  8
Ebene_1
 62
7
100
AcDbSpline
 70
8
 71
3
 72
8
 73
4
 74
0
 40
0
 40
0
 40
0
 40
0
 40
1
 40
1
 40
1
 40
1
 10
503.826840
 20
456.787140
 30
0.0
 10
472.978180
 20
468.431710
 30
0.0
 10
442.672670
 20
475.214850
 30
0.0
 10
410.516960
 20
477.671900
 30
0.0
  0
SPLINE
  5
13c
100
AcDbEntity
  8
Ebene_1
 62
7
100
AcDbSpline
 70
8
 71
3
 72
8
 73
4
 74
0
 40
0
 40
0
 40
0
 40
0
 40
1
 40
1
 40
1
 40
1
 10
410.516960
 20
477.671900
 30
0.0
 10
403.127660
 20
478.236540
 30
0.0
 10
395.666730
 20
478.521410
 30
0.0
 10
388.160740
 20
478.529640
 30
0.0
  0
LWPOLYLINE
  5
13d
100
AcDbEntity
  8
Ebene_1
 62
7
100
AcDbPolyline
 90
1
 70
1
 10
270.000000
 20
325.000000
 30
0.0
  0
LWPOLYLINE
  5
13e
100
AcDbEntity
  8
Ebene_1
 62
7
100
AcDbPolyline
 90
1
 70
1
 10
388.160740
 20
478.529640
 30
0.0
  0
SPLINE
  5
13f
100
AcDbEntity
  8
Ebene_1
 62
7
100
AcDbSpline
 70
8
 71
3
 72
8
 73
4
 74
0
 40
0
 40
0
 40
0
 40
0
 40
1
 40
1
 40
1
 40
1
 10
360.261870
 20
455.106700
 30
0.0
 10
334.223140
 20
453.504050
 30
0.0
 10
305.208770
 20
446.716550
 30
0.0
 10
282.887150
 20
437.005710
 30
0.0
  0
SPLINE
  5
140
100
AcDbEntity
  8
Ebene_1
 62
7
100
AcDbSpline
 70
8
 71
3
 72
8
 73
4
 74
0
 40
0
 40
0
 40
0
 40
0
 40
1
 40
1
 40
1
 40
1
 10
282.887150
 20
437.005710
 30
0.0
 10
280.938900
 20
436.158150
 30
0.0
 10
278.971330
 20
435.310110
 30
0.0
 10
278.514670
 20
435.121040
 30
0.0
  0
SPLINE
  5
141
100
AcDbEntity
  8
Ebene_1
 62
7
100
AcDbSpline
 70
8
 71
3
 72
8
 73
4
 74
0
 40
0
 40
0
 40
0
 40
0
 40
1
 40
1
 40
1
 40
1
 10
278.514670
 20
435.121040
 30
0.0
 10
278.058100
 20
434.932110
 30
0.0
 10
277.684520
 20
434.699710
 30
0.0
 10
277.684520
 20
434.603320
 30
0.0
  0
SPLINE
  5
142
100
AcDbEntity
  8
Ebene_1
 62
7
100
AcDbSpline
 70
8
 71
3
 72
8
 73
4
 74
0
 40
0
 40
0
 40
0
 40
0
 40
1
 40
1
 40
1
 40
1
 10
277.684520
 20
434.603320
 30
0.0
 10
277.684520
 20
434.507520
 30
0.0
 10
278.274720
 20
433.645470
 30
0.0
 10
278.996320
 20
432.687870
 30
0.0
  0
SPLINE
  5
143
100
AcDbEntity
  8
Ebene_1
 62
7
100
AcDbSpline
 70
8
 71
3
 72
8
 73
4
 74
0
 40
0
 40
0
 40
0
 40
0
 40
1
 40
1
 40
1
 40
1
 10
278.996320
 20
432.687870
 30
0.0
 10
283.907590
 20
426.170060
 30
0.0
 10
291.126980
 20
420.192630
 30
0.0
 10
300.322940
 20
415.029820
 30
0.0
  0
SPLINE
  5
144
100
AcDbEntity
  8
Ebene_1
 62
7
100
AcDbSpline
 70
8
 71
3
 72
8
 73
4
 74
0
 40
0
 40
0
 40
0
 40
0
 40
1
 40
1
 40
1
 40
1
 10
300.322940
 20
415.029820
 30
0.0
 10
303.397440
 20
413.303750
 30
0.0
 10
309.534340
 20
410.388060
 30
0.0
 10
309.713980
 20
410.567700
 30
0.0
  0
SPLINE
  5
145
100
AcDbEntity
  8
Ebene_1
 62
7
100
AcDbSpline
 70
8
 71
3
 72
8
 73
4
 74
0
 40
0
 40
0
 40
0
 40
0
 40
1
 40
1
 40
1
 40
1
 10
309.713980
 20
410.567700
 30
0.0
 10
309.767480
 20
410.621200
 30
0.0
 10
310.007370
 20
411.626170
 30
0.0
 10
310.247080
 20
412.800880
 30
0.0
  0
SPLINE
  5
146
100
AcDbEntity
  8
Ebene_1
 62
7
100
AcDbSpline
 70
8
 71
3
 72
8
 73
4
 74
0
 40
0
 40
0
 40
0
 40
0
 40
1
 40
1
 40
1
 40
1
 10
310.247080
 20
412.800880
 30
0.0
 10
310.837760
 20
415.691990
 30
0.0
 10
311.402780
 20
417.110780
 30
0.0
 10
312.756090
 20
419.100470
 30
0.0
  0
SPLINE
  5
147
100
AcDbEntity
  8
Ebene_1
 62
7
100
AcDbSpline
 70
8
 71
3
 72
8
 73
4
 74
0
 40
0
 40
0
 40
0
 40
0
 40
1
 40
1
 40
1
 40
1
 10
312.756090
 20
419.100470
 30
0.0
 10
316.426720
 20
424.497140
 30
0.0
 10
324.021300
 20
427.082640
 30
0.0
 10
338.787260
 20
427.963190
 30
0.0
  0
SPLINE
  5
148
100
AcDbEntity
  8
Ebene_1
 62
7
100
AcDbSpline
 70
8
 71
3
 72
8
 73
4
 74
0
 40
0
 40
0
 40
0
 40
0
 40
1
 40
1
 40
1
 40
1
 10
338.787260
 20
427.963190
 30
0.0
 10
343.748970
 20
428.259580
 30
0.0
 10
353.620150
 20
428.508960
 30
0.0
 10
353.620150
 20
428.338210
 30
0.0
  0
SPLINE
  5
149
100
AcDbEntity
  8
Ebene_1
 62
7
100
AcDbSpline
 70
8
 71
3
 72
8
 73
4
 74
0
 40
0
 40
0
 40
0
 40
0
 40
1
 40
1
 40
1
 40
1
 10
353.620150
 20
428.338210
 30
0.0
 10
353.620150
 20
428.308110
 30
0.0
 10
355.736880
 20
416.466730
 30
0.0
 10
358.899690
 20
398.793900
 30
0.0
  0
LWPOLYLINE
  5
14a
100
AcDbEntity
  8
Ebene_1
 62
7
100
AcDbPolyline
 90
2
 70
0
 10
362.586300
 20
455.249920
 30
0.0
 10
360.261870
 20
455.106700
 30
0.0
  0
SPLINE
  5
14b
100
AcDbEntity
  8
Ebene_1
 62
7
100
AcDbSpline
 70
8
 71
3
 72
8
 73
4
 74
0
 40
0
 40
0
 40
0
 40
0
 40
1
 40
1
 40
1
 40
1
 10
416.051650
 20
398.793900
 30
0.0
 10
419.129080
 20
416.005710
 30
0.0
 10
421.318450
 20
428.210070
 30
0.0
 10
421.343390
 20
428.237420
 30
0.0
  0
SPLINE
  5
14c
100
AcDbEntity
  8
Ebene_1
 62
7
100
AcDbSpline
 70
8
 71
3
 72
8
 73
4
 74
0
 40
0
 40
0
 40
0
 40
0
 40
1
 40
1
 40
1
 40
1
 10
421.343390
 20
428.237420
 30
0.0
 10
421.523430
 20
428.434960
 30
0.0
 10
435.852030
 20
428.059830
 30
0.0
 10
439.297430
 20
427.767450
 30
0.0
  0
SPLINE
  5
14d
100
AcDbEntity
  8
Ebene_1
 62
7
100
AcDbSpline
 70
8
 71
3
 72
8
 73
4
 74
0
 40
0
 40
0
 40
0
 40
0
 40
1
 40
1
 40
1
 40
1
 10
439.297430
 20
427.767450
 30
0.0
 10
455.120510
 20
426.424750
 30
0.0
 10
462.043080
 20
422.816970
 30
0.0
 10
464.385980
 20
414.692460
 30
0.0
  0
SPLINE
  5
14e
100
AcDbEntity
  8
Ebene_1
 62
7
100
AcDbSpline
 70
8
 71
3
 72
8
 73
4
 74
0
 40
0
 40
0
 40
0
 40
0
 40
1
 40
1
 40
1
 40
1
 10
464.385980
 20
414.692460
 30
0.0
 10
464.683460
 20
413.660760
 30
0.0
 10
464.998070
 20
412.290320
 30
0.0
 10
465.085120
 20
411.646630
 30
0.0
  0
SPLINE
  5
14f
100
AcDbEntity
  8
Ebene_1
 62
7
100
AcDbSpline
 70
8
 71
3
 72
8
 73
4
 74
0
 40
0
 40
0
 40
0
 40
0
 40
1
 40
1
 40
1
 40
1
 10
465.085120
 20
411.646630
 30
0.0
 10
465.229070
 20
410.583000
 30
0.0
 10
465.287340
 20
410.488820
 30
0.0
 10
465.720060
 20
410.614370
 30
0.0
  0
SPLINE
  5
150
100
AcDbEntity
  8
Ebene_1
 62
7
100
AcDbSpline
 70
8
 71
3
 72
8
 73
4
 74
0
 40
0
 40
0
 40
0
 40
0
 40
1
 40
1
 40
1
 40
1
 10
465.720060
 20
410.614370
 30
0.0
 10
466.768620
 20
410.918360
 30
0.0
 10
474.458850
 20
414.778260
 30
0.0
 10
476.782010
 20
416.166570
 30
0.0
  0
SPLINE
  5
151
100
AcDbEntity
  8
Ebene_1
 62
7
100
AcDbSpline
 70
8
 71
3
 72
8
 73
4
 74
0
 40
0
 40
0
 40
0
 40
0
 40
1
 40
1
 40
1
 40
1
 10
476.782010
 20
416.166570
 30
0.0
 10
485.229380
 20
421.214670
 30
0.0
 10
492.050540
 20
427.093450
 30
0.0
 10
496.401660
 20
433.075630
 30
0.0
  0
LWPOLYLINE
  5
152
100
AcDbEntity
  8
Ebene_1
 62
7
100
AcDbPolyline
 90
2
 70
0
 10
358.899690
 20
398.793900
 30
0.0
 10
416.051650
 20
398.793900
 30
0.0
  0
SPLINE
  5
153
100
AcDbEntity
  8
Ebene_1
 62
7
100
AcDbSpline
 70
8
 71
3
 72
8
 73
4
 74
0
 40
0
 40
0
 40
0
 40
0
 40
1
 40
1
 40
1
 40
1
 10
496.653090
 20
435.057920
 30
0.0
 10
494.795200
 20
436.005700
 30
0.0
 10
487.671530
 20
438.947130
 30
0.0
 10
483.242850
 20
440.595250
 30
0.0
  0
SPLINE
  5
154
100
AcDbEntity
  8
Ebene_1
 62
7
100
AcDbSpline
 70
8
 71
3
 72
8
 73
4
 74
0
 40
0
 40
0
 40
0
 40
0
 40
1
 40
1
 40
1
 40
1
 10
483.242850
 20
440.595250
 30
0.0
 10
464.477630
 20
447.578880
 30
0.0
 10
443.817380
 20
452.339310
 30
0.0
 10
423.246640
 20
454.418700
 30
0.0
  0
SPLINE
  5
155
100
AcDbEntity
  8
Ebene_1
 62
7
100
AcDbSpline
 70
8
 71
3
 72
8
 73
4
 74
0
 40
0
 40
0
 40
0
 40
0
 40
1
 40
1
 40
1
 40
1
 10
423.246640
 20
454.418700
 30
0.0
 10
418.368740
 20
454.911850
 30
0.0
 10
412.784630
 20
455.271750
 30
0.0
 10
412.523110
 20
455.110410
 30
0.0
  0
SPLINE
  5
156
100
AcDbEntity
  8
Ebene_1
 62
7
100
AcDbSpline
 70
8
 71
3
 72
8
 73
4
 74
0
 40
0
 40
0
 40
0
 40
0
 40
1
 40
1
 40
1
 40
1
 10
412.523110
 20
455.110410
 30
0.0
 10
412.397800
 20
455.032910
 30
0.0
 10
406.801380
 20
448.274420
 30
0.0
 10
400.086790
 20
440.091850
 30
0.0
  0
SPLINE
  5
157
100
AcDbEntity
  8
Ebene_1
 62
7
100
AcDbSpline
 70
8
 71
3
 72
8
 73
4
 74
0
 40
0
 40
0
 40
0
 40
0
 40
1
 40
1
 40
1
 40
1
 10
400.086790
 20
440.091850
 30
0.0
 10
393.372190
 20
431.909340
 30
0.0
 10
387.802450
 20
425.130350
 30
0.0
 10
387.709860
 20
425.028230
 30
0.0
  0
SPLINE
  5
158
100
AcDbEntity
  8
Ebene_1
 62
7
100
AcDbSpline
 70
8
 71
3
 72
8
 73
4
 74
0
 40
0
 40
0
 40
0
 40
0
 40
1
 40
1
 40
1
 40
1
 10
387.709860
 20
425.028230
 30
0.0
 10
387.617060
 20
424.925870
 30
0.0
 10
381.926440
 20
431.683650
 30
0.0
 10
375.064010
 20
440.045710
 30
0.0
  0
LWPOLYLINE
  5
159
100
AcDbEntity
  8
Ebene_1
 62
7
100
AcDbPolyline
 90
3
 70
0
 10
496.401660
 20
433.075630
 30
0.0
 10
497.521420
 20
434.614980
 30
0.0
 10
496.653090
 20
435.057920
 30
0.0
  0
LWPOLYLINE
  5
15a
100
AcDbEntity
  8
Ebene_1
 62
7
100
AcDbPolyline
 90
2
 70
0
 10
375.064010
 20
440.045710
 30
0.0
 10
362.586300
 20
455.249920
 30
0.0
  0
SPLINE
  5
15b
100
AcDbEntity
  8
Ebene_1
 62
7
100
AcDbSpline
 70
8
 71
3
 72
8
 73
4
 74
0
 40
0
 40
0
 40
0
 40
0
 40
1
 40
1
 40
1
 40
1
 10
274.645140
 20
387.213036
 30
0.0
 10
272.659841
 20
387.213036
 30
0.0
 10
270.987047
 20
387.893186
 30
0.0
 10
269.626759
 20
389.253485
 30
0.0
  0
SPLINE
  5
15c
100
AcDbEntity
  8
Ebene_1
 62
7
100
AcDbSpline
 70
8
 71
3
 72
8
 73
4
 74
0
 40
0
 40
0
 40
0
 40
0
 40
1
 40
1
 40
1
 40
1
 10
269.626759
 20
389.253485
 30
0.0
 10
268.266459
 20
390.650544
 30
0.0
 10
267.586310
 20
392.323338
 30
0.0
 10
267.586310
 20
394.271866
 30
0.0
  0
LWPOLYLINE
  5
15d
100
AcDbEntity
  8
Ebene_1
 62
7
100
AcDbPolyline
 90
3
 70
0
 10
285.233377
 20
358.977747
 30
0.0
 10
285.233377
 20
387.213036
 30
0.0
 10
274.645140
 20
387.213036
 30
0.0
  0
SPLINE
  5
15e
100
AcDbEntity
  8
Ebene_1
 62
7
100
AcDbSpline
 70
8
 71
3
 72
8
 73
4
 74
0
 40
0
 40
0
 40
0
 40
0
 40
1
 40
1
 40
1
 40
1
 10
309.939259
 20
394.271866
 30
0.0
 10
309.939259
 20
392.286568
 30
0.0
 10
309.240730
 20
390.613774
 30
0.0
 10
307.843671
 20
389.253485
 30
0.0
  0
SPLINE
  5
15f
100
AcDbEntity
  8
Ebene_1
 62
7
100
AcDbSpline
 70
8
 71
3
 72
8
 73
4
 74
0
 40
0
 40
0
 40
0
 40
0
 40
1
 40
1
 40
1
 40
1
 10
307.843671
 20
389.253485
 30
0.0
 10
306.446612
 20
387.893186
 30
0.0
 10
304.792198
 20
387.213036
 30
0.0
 10
302.880429
 20
387.213036
 30
0.0
  0
LWPOLYLINE
  5
160
100
AcDbEntity
  8
Ebene_1
 62
7
100
AcDbPolyline
 90
2
 70
0
 10
267.586310
 20
394.271866
 30
0.0
 10
309.939259
 20
394.271866
 30
0.0
  0
SPLINE
  5
161
100
AcDbEntity
  8
Ebene_1
 62
7
100
AcDbSpline
 70
8
 71
3
 72
8
 73
4
 74
0
 40
0
 40
0
 40
0
 40
0
 40
1
 40
1
 40
1
 40
1
 10
324.056904
 20
358.977747
 30
0.0
 10
322.071605
 20
358.977747
 30
0.0
 10
320.398811
 20
359.657892
 30
0.0
 10
319.038522
 20
361.018180
 30
0.0
  0
SPLINE
  5
162
100
AcDbEntity
  8
Ebene_1
 62
7
100
AcDbSpline
 70
8
 71
3
 72
8
 73
4
 74
0
 40
0
 40
0
 40
0
 40
0
 40
1
 40
1
 40
1
 40
1
 10
319.038522
 20
361.018180
 30
0.0
 10
317.678223
 20
362.415239
 30
0.0
 10
316.998073
 20
364.088038
 30
0.0
 10
316.998073
 20
366.036577
 30
0.0
  0
LWPOLYLINE
  5
163
100
AcDbEntity
  8
Ebene_1
 62
7
100
AcDbPolyline
 90
4
 70
0
 10
302.880429
 20
387.213036
 30
0.0
 10
292.292192
 20
387.213036
 30
0.0
 10
292.292192
 20
358.977747
 30
0.0
 10
285.233377
 20
358.977747
 30
0.0
  0
SPLINE
  5
164
100
AcDbEntity
  8
Ebene_1
 62
7
100
AcDbSpline
 70
8
 71
3
 72
8
 73
4
 74
0
 40
0
 40
0
 40
0
 40
0
 40
1
 40
1
 40
1
 40
1
 10
359.351023
 20
366.036577
 30
0.0
 10
359.351023
 20
364.051279
 30
0.0
 10
358.652493
 20
362.378480
 30
0.0
 10
357.255434
 20
361.018180
 30
0.0
  0
SPLINE
  5
165
100
AcDbEntity
  8
Ebene_1
 62
7
100
AcDbSpline
 70
8
 71
3
 72
8
 73
4
 74
0
 40
0
 40
0
 40
0
 40
0
 40
1
 40
1
 40
1
 40
1
 10
357.255434
 20
361.018180
 30
0.0
 10
355.858375
 20
359.657892
 30
0.0
 10
354.203961
 20
358.977747
 30
0.0
 10
352.292193
 20
358.977747
 30
0.0
  0
LWPOLYLINE
  5
166
100
AcDbEntity
  8
Ebene_1
 62
7
100
AcDbPolyline
 90
2
 70
0
 10
316.998073
 20
366.036577
 30
0.0
 10
359.351023
 20
366.036577
 30
0.0
  0
SPLINE
  5
167
100
AcDbEntity
  8
Ebene_1
 62
7
100
AcDbSpline
 70
8
 71
3
 72
8
 73
4
 74
0
 40
0
 40
0
 40
0
 40
0
 40
1
 40
1
 40
1
 40
1
 10
324.056904
 20
373.095392
 30
0.0
 10
322.071605
 20
373.095392
 30
0.0
 10
320.398811
 20
373.775541
 30
0.0
 10
319.038522
 20
375.135841
 30
0.0
  0
SPLINE
  5
168
100
AcDbEntity
  8
Ebene_1
 62
7
100
AcDbSpline
 70
8
 71
3
 72
8
 73
4
 74
0
 40
0
 40
0
 40
0
 40
0
 40
1
 40
1
 40
1
 40
1
 10
319.038522
 20
375.135841
 30
0.0
 10
317.678223
 20
376.532900
 30
0.0
 10
316.998073
 20
378.205693
 30
0.0
 10
316.998073
 20
380.154222
 30
0.0
  0
LWPOLYLINE
  5
169
100
AcDbEntity
  8
Ebene_1
 62
7
100
AcDbPolyline
 90
2
 70
0
 10
352.292193
 20
358.977747
 30
0.0
 10
324.056904
 20
358.977747
 30
0.0
  0
SPLINE
  5
16a
100
AcDbEntity
  8
Ebene_1
 62
7
100
AcDbSpline
 70
8
 71
3
 72
8
 73
4
 74
0
 40
0
 40
0
 40
0
 40
0
 40
1
 40
1
 40
1
 40
1
 10
359.351023
 20
380.154222
 30
0.0
 10
359.351023
 20
378.168923
 30
0.0
 10
358.652493
 20
376.496129
 30
0.0
 10
357.255434
 20
375.135841
 30
0.0
  0
SPLINE
  5
16b
100
AcDbEntity
  8
Ebene_1
 62
7
100
AcDbSpline
 70
8
 71
3
 72
8
 73
4
 74
0
 40
0
 40
0
 40
0
 40
0
 40
1
 40
1
 40
1
 40
1
 10
357.255434
 20
375.135841
 30
0.0
 10
355.858375
 20
373.775541
 30
0.0
 10
354.203961
 20
373.095392
 30
0.0
 10
352.292193
 20
373.095392
 30
0.0
  0
LWPOLYLINE
  5
16c
100
AcDbEntity
  8
Ebene_1
 62
7
100
AcDbPolyline
 90
2
 70
0
 10
316.998073
 20
380.154222
 30
0.0
 10
359.351023
 20
380.154222
 30
0.0
  0
SPLINE
  5
16d
100
AcDbEntity
  8
Ebene_1
 62
7
100
AcDbSpline
 70
8
 71
3
 72
8
 73
4
 74
0
 40
0
 40
0
 40
0
 40
0
 40
1
 40
1
 40
1
 40
1
 10
324.056904
 20
387.213036
 30
0.0
 10
322.071605
 20
387.213036
 30
0.0
 10
320.398811
 20
387.893186
 30
0.0
 10
319.038522
 20
389.253485
 30
0.0
  0
SPLINE
  5
16e
100
AcDbEntity
  8
Ebene_1
 62
7
100
AcDbSpline
 70
8
 71
3
 72
8
 73
4
 74
0
 40
0
 40
0
 40
0
 40
0
 40
1
 40
1
 40
1
 40
1
 10
319.038522
 20
389.253485
 30
0.0
 10
317.678223
 20
390.650544
 30
0.0
 10
316.998073
 20
392.323338
 30
0.0
 10
316.998073
 20
394.271866
 30
0.0
  0
LWPOLYLINE
  5
16f
100
AcDbEntity
  8
Ebene_1
 62
7
100
AcDbPolyline
 90
2
 70
0
 10
352.292193
 20
373.095392
 30
0.0
 10
324.056904
 20
373.095392
 30
0.0
  0
SPLINE
  5
170
100
AcDbEntity
  8
Ebene_1
 62
7
100
AcDbSpline
 70
8
 71
3
 72
8
 73
4
 74
0
 40
0
 40
0
 40
0
 40
0
 40
1
 40
1
 40
1
 40
1
 10
359.351023
 20
394.271866
 30
0.0
 10
359.351023
 20
392.286568
 30
0.0
 10
358.652493
 20
390.613774
 30
0.0
 10
357.255434
 20
389.253485
 30
0.0
  0
SPLINE
  5
171
100
AcDbEntity
  8
Ebene_1
 62
7
100
AcDbSpline
 70
8
 71
3
 72
8
 73
4
 74
0
 40
0
 40
0
 40
0
 40
0
 40
1
 40
1
 40
1
 40
1
 10
357.255434
 20
389.253485
 30
0.0
 10
355.858375
 20
387.893186
 30
0.0
 10
354.203961
 20
387.213036
 30
0.0
 10
352.292193
 20
387.213036
 30
0.0
  0
LWPOLYLINE
  5
172
100
AcDbEntity
  8
Ebene_1
 62
7
100
AcDbPolyline
 90
2
 70
0
 10
316.998073
 20
394.271866
 30
0.0
 10
359.351023
 20
394.271866
 30
0.0
  0
SPLINE
  5
173
100
AcDbEntity
  8
Ebene_1
 62
7
100
AcDbSpline
 70
8
 71
3
 72
8
 73
4
 74
0
 40
0
 40
0
 40
0
 40
0
 40
1
 40
1
 40
1
 40
1
 10
366.409837
 20
358.977747
 30
0.0
 10
366.409837
 20
360.926276
 30
0.0
 10
367.089987
 20
362.580690
 30
0.0
 10
368.450286
 20
363.940989
 30
0.0
  0
SPLINE
  5
174
100
AcDbEntity
  8
Ebene_1
 62
7
100
AcDbSpline
 70
8
 71
3
 72
8
 73
4
 74
0
 40
0
 40
0
 40
0
 40
0
 40
1
 40
1
 40
1
 40
1
 10
368.450286
 20
363.940989
 30
0.0
 10
369.847345
 20
365.338048
 30
0.0
 10
371.520139
 20
366.036577
 30
0.0
 10
373.468667
 20
366.036577
 30
0.0
  0
LWPOLYLINE
  5
175
100
AcDbEntity
  8
Ebene_1
 62
7
100
AcDbPolyline
 90
2
 70
0
 10
352.292193
 20
387.213036
 30
0.0
 10
324.056904
 20
387.213036
 30
0.0
  0
SPLINE
  5
176
100
AcDbEntity
  8
Ebene_1
 62
7
100
AcDbSpline
 70
8
 71
3
 72
8
 73
4
 74
0
 40
0
 40
0
 40
0
 40
0
 40
1
 40
1
 40
1
 40
1
 10
408.762780
 20
394.271866
 30
0.0
 10
408.762780
 20
392.286568
 30
0.0
 10
408.064251
 20
390.613774
 30
0.0
 10
406.667192
 20
389.253485
 30
0.0
  0
SPLINE
  5
177
100
AcDbEntity
  8
Ebene_1
 62
7
100
AcDbSpline
 70
8
 71
3
 72
8
 73
4
 74
0
 40
0
 40
0
 40
0
 40
0
 40
1
 40
1
 40
1
 40
1
 10
406.667192
 20
389.253485
 30
0.0
 10
405.270134
 20
387.893186
 30
0.0
 10
403.615723
 20
387.213036
 30
0.0
 10
401.703958
 20
387.213036
 30
0.0
  0
LWPOLYLINE
  5
178
100
AcDbEntity
  8
Ebene_1
 62
7
100
AcDbPolyline
 90
6
 70
0
 10
373.468667
 20
366.036577
 30
0.0
 10
401.703958
 20
366.036577
 30
0.0
 10
401.703958
 20
373.095392
 30
0.0
 10
366.409837
 20
373.095392
 30
0.0
 10
366.409837
 20
394.271866
 30
0.0
 10
408.762780
 20
394.271866
 30
0.0
  0
LWPOLYLINE
  5
179
100
AcDbEntity
  8
Ebene_1
 62
7
100
AcDbPolyline
 90
6
 70
0
 10
401.703958
 20
387.213036
 30
0.0
 10
373.468667
 20
387.213036
 30
0.0
 10
373.468667
 20
380.154222
 30
0.0
 10
408.762780
 20
380.154222
 30
0.0
 10
408.762780
 20
358.977747
 30
0.0
 10
366.409837
 20
358.977747
 30
0.0
  0
SPLINE
  5
17a
100
AcDbEntity
  8
Ebene_1
 62
7
100
AcDbSpline
 70
8
 71
3
 72
8
 73
4
 74
0
 40
0
 40
0
 40
0
 40
0
 40
1
 40
1
 40
1
 40
1
 10
458.174544
 20
366.036577
 30
0.0
 10
458.174544
 20
364.051279
 30
0.0
 10
457.476015
 20
362.378480
 30
0.0
 10
456.078956
 20
361.018180
 30
0.0
  0
SPLINE
  5
17b
100
AcDbEntity
  8
Ebene_1
 62
7
100
AcDbSpline
 70
8
 71
3
 72
8
 73
4
 74
0
 40
0
 40
0
 40
0
 40
0
 40
1
 40
1
 40
1
 40
1
 10
456.078956
 20
361.018180
 30
0.0
 10
454.681897
 20
359.657892
 30
0.0
 10
453.027485
 20
358.977747
 30
0.0
 10
451.115720
 20
358.977747
 30
0.0
  0
LWPOLYLINE
  5
17c
100
AcDbEntity
  8
Ebene_1
 62
7
100
AcDbPolyline
 90
5
 70
0
 10
415.821604
 20
358.977747
 30
0.0
 10
415.821604
 20
394.271866
 30
0.0
 10
422.880426
 20
394.271866
 30
0.0
 10
422.880426
 20
366.036577
 30
0.0
 10
458.174544
 20
366.036577
 30
0.0
  0
LWPOLYLINE
  5
17d
100
AcDbEntity
  8
Ebene_1
 62
7
100
AcDbPolyline
 90
2
 70
0
 10
451.115720
 20
358.977747
 30
0.0
 10
415.821604
 20
358.977747
 30
0.0
  0
SPLINE
  5
17e
100
AcDbEntity
  8
Ebene_1
 62
7
100
AcDbSpline
 70
8
 71
3
 72
8
 73
4
 74
0
 40
0
 40
0
 40
0
 40
0
 40
1
 40
1
 40
1
 40
1
 10
472.292190
 20
387.213036
 30
0.0
 10
470.306896
 20
387.213036
 30
0.0
 10
468.634101
 20
387.893186
 30
0.0
 10
467.273807
 20
389.253485
 30
0.0
  0
SPLINE
  5
17f
100
AcDbEntity
  8
Ebene_1
 62
7
100
AcDbSpline
 70
8
 71
3
 72
8
 73
4
 74
0
 40
0
 40
0
 40
0
 40
0
 40
1
 40
1
 40
1
 40
1
 10
467.273807
 20
389.253485
 30
0.0
 10
465.913513
 20
390.650544
 30
0.0
 10
465.233366
 20
392.323338
 30
0.0
 10
465.233366
 20
394.271866
 30
0.0
  0
LWPOLYLINE
  5
180
100
AcDbEntity
  8
Ebene_1
 62
7
100
AcDbPolyline
 90
8
 70
1
 10
465.233366
 20
358.977747
 30
0.0
 10
465.233366
 20
380.154222
 30
0.0
 10
507.586308
 20
380.154222
 30
0.0
 10
507.586308
 20
358.977747
 30
0.0
 10
500.527484
 20
358.977747
 30
0.0
 10
500.527484
 20
373.095392
 30
0.0
 10
472.292190
 20
373.095392
 30
0.0
 10
472.292190
 20
358.977747
 30
0.0
  0
SPLINE
  5
181
100
AcDbEntity
  8
Ebene_1
 62
7
100
AcDbSpline
 70
8
 71
3
 72
8
 73
4
 74
0
 40
0
 40
0
 40
0
 40
0
 40
1
 40
1
 40
1
 40
1
 10
507.586308
 20
394.271866
 30
0.0
 10
507.586308
 20
392.286568
 30
0.0
 10
506.887778
 20
390.613774
 30
0.0
 10
505.490719
 20
389.253485
 30
0.0
  0
SPLINE
  5
182
100
AcDbEntity
  8
Ebene_1
 62
7
100
AcDbSpline
 70
8
 71
3
 72
8
 73
4
 74
0
 40
0
 40
0
 40
0
 40
0
 40
1
 40
1
 40
1
 40
1
 10
505.490719
 20
389.253485
 30
0.0
 10
504.093660
 20
387.893186
 30
0.0
 10
502.439249
 20
387.213036
 30
0.0
 10
500.527484
 20
387.213036
 30
0.0
  0
LWPOLYLINE
  5
183
100
AcDbEntity
  8
Ebene_1
 62
7
100
AcDbPolyline
 90
2
 70
0
 10
465.233366
 20
394.271866
 30
0.0
 10
507.586308
 20
394.271866
 30
0.0
  0
LWPOLYLINE
  5
184
100
AcDbEntity
  8
Ebene_1
 62
7
100
AcDbPolyline
 90
2
 70
0
 10
500.527484
 20
387.213036
 30
0.0
 10
472.292190
 20
387.213036
 30
0.0
  0
LWPOLYLINE
  5
185
100
AcDbEntity
  8
Ebene_1
 62
7
100
AcDbPolyline
 90
4
 70
1
 10
267.586300
 20
354.822020
 30
0.0
 10
507.586300
 20
354.822020
 30
0.0
 10
507.586300
 20
349.822020
 30
0.0
 10
267.586300
 20
349.822020
 30
0.0
  0
LWPOLYLINE
  5
186
100
AcDbEntity
  8
Ebene_1
 62
7
100
AcDbPolyline
 90
12
 70
1
 10
279.504105
 20
330.437121
 30
0.0
 10
279.504105
 20
333.452609
 30
0.0
 10
271.132976
 20
333.452609
 30
0.0
 10
271.132976
 20
336.688206
 30
0.0
 10
278.402640
 20
336.688206
 30
0.0
 10
278.402640
 20
339.703694
 30
0.0
 10
271.132976
 20
339.703694
 30
0.0
 10
271.132976
 20
342.829237
 30
0.0
 10
279.393958
 20
342.829237
 30
0.0
 10
279.393958
 20
345.844726
 30
0.0
 10
267.762496
 20
345.844726
 30
0.0
 10
267.762496
 20
330.437121
 30
0.0
  0
LWPOLYLINE
  5
187
100
AcDbEntity
  8
Ebene_1
 62
7
100
AcDbPolyline
 90
12
 70
1
 10
296.112464
 20
330.437121
 30
0.0
 10
290.737318
 20
338.317004
 30
0.0
 10
295.892171
 20
345.844726
 30
0.0
 10
292.037047
 20
345.844726
 30
0.0
 10
288.776713
 20
340.848256
 30
0.0
 10
285.538408
 20
345.844726
 30
0.0
 10
281.573137
 20
345.844726
 30
0.0
 10
286.727989
 20
338.272983
 30
0.0
 10
281.352844
 20
330.437121
 30
0.0
 10
285.207968
 20
330.437121
 30
0.0
 10
288.688595
 20
335.719731
 30
0.0
 10
292.147193
 20
330.437121
 30
0.0
  0
SPLINE
  5
188
100
AcDbEntity
  8
Ebene_1
 62
7
100
AcDbSpline
 70
8
 71
3
 72
8
 73
4
 74
0
 40
0
 40
0
 40
0
 40
0
 40
1
 40
1
 40
1
 40
1
 10
310.044264
 20
335.103419
 30
0.0
 10
309.442130
 20
334.545812
 30
0.0
 10
308.832654
 20
334.105596
 30
0.0
 10
308.215834
 20
333.782771
 30
0.0
  0
SPLINE
  5
189
100
AcDbEntity
  8
Ebene_1
 62
7
100
AcDbSpline
 70
8
 71
3
 72
8
 73
4
 74
0
 40
0
 40
0
 40
0
 40
0
 40
1
 40
1
 40
1
 40
1
 10
308.215834
 20
333.782771
 30
0.0
 10
307.613700
 20
333.459946
 30
0.0
 10
306.872047
 20
333.298534
 30
0.0
 10
305.990875
 20
333.298534
 30
0.0
  0
SPLINE
  5
18a
100
AcDbEntity
  8
Ebene_1
 62
7
100
AcDbSpline
 70
8
 71
3
 72
8
 73
4
 74
0
 40
0
 40
0
 40
0
 40
0
 40
1
 40
1
 40
1
 40
1
 10
305.990875
 20
333.298534
 30
0.0
 10
305.329997
 20
333.298534
 30
0.0
 10
304.720520
 20
333.423261
 30
0.0
 10
304.162445
 20
333.672717
 30
0.0
  0
SPLINE
  5
18b
100
AcDbEntity
  8
Ebene_1
 62
7
100
AcDbSpline
 70
8
 71
3
 72
8
 73
4
 74
0
 40
0
 40
0
 40
0
 40
0
 40
1
 40
1
 40
1
 40
1
 10
304.162445
 20
333.672717
 30
0.0
 10
303.619056
 20
333.936847
 30
0.0
 10
303.149098
 20
334.289019
 30
0.0
 10
302.752571
 20
334.729235
 30
0.0
  0
SPLINE
  5
18c
100
AcDbEntity
  8
Ebene_1
 62
7
100
AcDbSpline
 70
8
 71
3
 72
8
 73
4
 74
0
 40
0
 40
0
 40
0
 40
0
 40
1
 40
1
 40
1
 40
1
 10
302.752571
 20
334.729235
 30
0.0
 10
302.370730
 20
335.169458
 30
0.0
 10
302.069663
 20
335.683046
 30
0.0
 10
301.849371
 20
336.270001
 30
0.0
  0
SPLINE
  5
18d
100
AcDbEntity
  8
Ebene_1
 62
7
100
AcDbSpline
 70
8
 71
3
 72
8
 73
4
 74
0
 40
0
 40
0
 40
0
 40
0
 40
1
 40
1
 40
1
 40
1
 10
301.849371
 20
336.270001
 30
0.0
 10
301.629078
 20
336.856955
 30
0.0
 10
301.518931
 20
337.480594
 30
0.0
 10
301.518931
 20
338.140918
 30
0.0
  0
LWPOLYLINE
  5
18e
100
AcDbEntity
  8
Ebene_1
 62
7
100
AcDbPolyline
 90
2
 70
0
 10
312.203134
 20
332.924350
 30
0.0
 10
310.044264
 20
335.103419
 30
0.0
  0
SPLINE
  5
18f
100
AcDbEntity
  8
Ebene_1
 62
7
100
AcDbSpline
 70
8
 71
3
 72
8
 73
4
 74
0
 40
0
 40
0
 40
0
 40
0
 40
1
 40
1
 40
1
 40
1
 10
301.518931
 20
338.184900
 30
0.0
 10
301.518931
 20
338.845230
 30
0.0
 10
301.629078
 20
339.461536
 30
0.0
 10
301.849371
 20
340.033816
 30
0.0
  0
SPLINE
  5
190
100
AcDbEntity
  8
Ebene_1
 62
7
100
AcDbSpline
 70
8
 71
3
 72
8
 73
4
 74
0
 40
0
 40
0
 40
0
 40
0
 40
1
 40
1
 40
1
 40
1
 10
301.849371
 20
340.033816
 30
0.0
 10
302.069663
 20
340.620771
 30
0.0
 10
302.378073
 20
341.134359
 30
0.0
 10
302.774600
 20
341.574582
 30
0.0
  0
SPLINE
  5
191
100
AcDbEntity
  8
Ebene_1
 62
7
100
AcDbSpline
 70
8
 71
3
 72
8
 73
4
 74
0
 40
0
 40
0
 40
0
 40
0
 40
1
 40
1
 40
1
 40
1
 10
302.774600
 20
341.574582
 30
0.0
 10
303.171128
 20
342.014798
 30
0.0
 10
303.641085
 20
342.359634
 30
0.0
 10
304.184474
 20
342.609089
 30
0.0
  0
SPLINE
  5
192
100
AcDbEntity
  8
Ebene_1
 62
7
100
AcDbSpline
 70
8
 71
3
 72
8
 73
4
 74
0
 40
0
 40
0
 40
0
 40
0
 40
1
 40
1
 40
1
 40
1
 10
304.184474
 20
342.609089
 30
0.0
 10
304.742549
 20
342.858545
 30
0.0
 10
305.344683
 20
342.983273
 30
0.0
 10
305.990875
 20
342.983273
 30
0.0
  0
SPLINE
  5
193
100
AcDbEntity
  8
Ebene_1
 62
7
100
AcDbSpline
 70
8
 71
3
 72
8
 73
4
 74
0
 40
0
 40
0
 40
0
 40
0
 40
1
 40
1
 40
1
 40
1
 10
305.990875
 20
342.983273
 30
0.0
 10
306.769243
 20
342.983273
 30
0.0
 10
307.466837
 20
342.829197
 30
0.0
 10
308.083657
 20
342.521046
 30
0.0
  0
SPLINE
  5
194
100
AcDbEntity
  8
Ebene_1
 62
7
100
AcDbSpline
 70
8
 71
3
 72
8
 73
4
 74
0
 40
0
 40
0
 40
0
 40
0
 40
1
 40
1
 40
1
 40
1
 10
308.083657
 20
342.521046
 30
0.0
 10
308.715164
 20
342.212895
 30
0.0
 10
309.331984
 20
341.787350
 30
0.0
 10
309.934118
 20
341.244410
 30
0.0
  0
LWPOLYLINE
  5
195
100
AcDbEntity
  8
Ebene_1
 62
7
100
AcDbPolyline
 90
2
 70
0
 10
301.518931
 20
338.140918
 30
0.0
 10
301.518931
 20
338.184900
 30
0.0
  0
SPLINE
  5
196
100
AcDbEntity
  8
Ebene_1
 62
7
100
AcDbSpline
 70
8
 71
3
 72
8
 73
4
 74
0
 40
0
 40
0
 40
0
 40
0
 40
1
 40
1
 40
1
 40
1
 10
312.092988
 20
343.731640
 30
0.0
 10
311.740519
 20
344.083812
 30
0.0
 10
311.358678
 20
344.406641
 30
0.0
 10
310.947465
 20
344.700125
 30
0.0
  0
SPLINE
  5
197
100
AcDbEntity
  8
Ebene_1
 62
7
100
AcDbSpline
 70
8
 71
3
 72
8
 73
4
 74
0
 40
0
 40
0
 40
0
 40
0
 40
1
 40
1
 40
1
 40
1
 10
310.947465
 20
344.700125
 30
0.0
 10
310.536252
 20
344.993602
 30
0.0
 10
310.088323
 20
345.243057
 30
0.0
 10
309.603678
 20
345.448491
 30
0.0
  0
SPLINE
  5
198
100
AcDbEntity
  8
Ebene_1
 62
7
100
AcDbSpline
 70
8
 71
3
 72
8
 73
4
 74
0
 40
0
 40
0
 40
0
 40
0
 40
1
 40
1
 40
1
 40
1
 10
309.603678
 20
345.448491
 30
0.0
 10
309.119034
 20
345.653926
 30
0.0
 10
308.575645
 20
345.815338
 30
0.0
 10
307.973511
 20
345.932729
 30
0.0
  0
SPLINE
  5
199
100
AcDbEntity
  8
Ebene_1
 62
7
100
AcDbSpline
 70
8
 71
3
 72
8
 73
4
 74
0
 40
0
 40
0
 40
0
 40
0
 40
1
 40
1
 40
1
 40
1
 10
307.973511
 20
345.932729
 30
0.0
 10
307.386064
 20
346.050120
 30
0.0
 10
306.732528
 20
346.108815
 30
0.0
 10
306.012906
 20
346.108815
 30
0.0
  0
SPLINE
  5
19a
100
AcDbEntity
  8
Ebene_1
 62
7
100
AcDbSpline
 70
8
 71
3
 72
8
 73
4
 74
0
 40
0
 40
0
 40
0
 40
0
 40
1
 40
1
 40
1
 40
1
 10
306.012906
 20
346.108815
 30
0.0
 10
304.823324
 20
346.108815
 30
0.0
 10
303.736546
 20
345.896044
 30
0.0
 10
302.752571
 20
345.470502
 30
0.0
  0
SPLINE
  5
19b
100
AcDbEntity
  8
Ebene_1
 62
7
100
AcDbSpline
 70
8
 71
3
 72
8
 73
4
 74
0
 40
0
 40
0
 40
0
 40
0
 40
1
 40
1
 40
1
 40
1
 10
302.752571
 20
345.470502
 30
0.0
 10
301.768597
 20
345.059634
 30
0.0
 10
300.924140
 20
344.487350
 30
0.0
 10
300.219203
 20
343.753650
 30
0.0
  0
SPLINE
  5
19c
100
AcDbEntity
  8
Ebene_1
 62
7
100
AcDbSpline
 70
8
 71
3
 72
8
 73
4
 74
0
 40
0
 40
0
 40
0
 40
0
 40
1
 40
1
 40
1
 40
1
 10
300.219203
 20
343.753650
 30
0.0
 10
299.514266
 20
343.034631
 30
0.0
 10
298.963534
 20
342.190881
 30
0.0
 10
298.567007
 20
341.222399
 30
0.0
  0
SPLINE
  5
19d
100
AcDbEntity
  8
Ebene_1
 62
7
100
AcDbSpline
 70
8
 71
3
 72
8
 73
4
 74
0
 40
0
 40
0
 40
0
 40
0
 40
1
 40
1
 40
1
 40
1
 10
298.567007
 20
341.222399
 30
0.0
 10
298.170480
 20
340.268598
 30
0.0
 10
297.972216
 20
339.241424
 30
0.0
 10
297.972216
 20
338.140878
 30
0.0
  0
LWPOLYLINE
  5
19e
100
AcDbEntity
  8
Ebene_1
 62
7
100
AcDbPolyline
 90
2
 70
0
 10
309.934118
 20
341.244410
 30
0.0
 10
312.092988
 20
343.731640
 30
0.0
  0
SPLINE
  5
19f
100
AcDbEntity
  8
Ebene_1
 62
7
100
AcDbSpline
 70
8
 71
3
 72
8
 73
4
 74
0
 40
0
 40
0
 40
0
 40
0
 40
1
 40
1
 40
1
 40
1
 10
297.972216
 20
338.096897
 30
0.0
 10
297.972216
 20
336.996357
 30
0.0
 10
298.170480
 20
335.961846
 30
0.0
 10
298.567007
 20
334.993365
 30
0.0
  0
SPLINE
  5
1a0
100
AcDbEntity
  8
Ebene_1
 62
7
100
AcDbSpline
 70
8
 71
3
 72
8
 73
4
 74
0
 40
0
 40
0
 40
0
 40
0
 40
1
 40
1
 40
1
 40
1
 10
298.567007
 20
334.993365
 30
0.0
 10
298.963534
 20
334.024890
 30
0.0
 10
299.514266
 20
333.181143
 30
0.0
 10
300.219203
 20
332.462123
 30
0.0
  0
SPLINE
  5
1a1
100
AcDbEntity
  8
Ebene_1
 62
7
100
AcDbSpline
 70
8
 71
3
 72
8
 73
4
 74
0
 40
0
 40
0
 40
0
 40
0
 40
1
 40
1
 40
1
 40
1
 10
300.219203
 20
332.462123
 30
0.0
 10
300.924140
 20
331.757771
 30
0.0
 10
301.761253
 20
331.200161
 30
0.0
 10
302.730542
 20
330.789293
 30
0.0
  0
SPLINE
  5
1a2
100
AcDbEntity
  8
Ebene_1
 62
7
100
AcDbSpline
 70
8
 71
3
 72
8
 73
4
 74
0
 40
0
 40
0
 40
0
 40
0
 40
1
 40
1
 40
1
 40
1
 10
302.730542
 20
330.789293
 30
0.0
 10
303.699830
 20
330.378425
 30
0.0
 10
304.749892
 20
330.172991
 30
0.0
 10
305.880729
 20
330.172991
 30
0.0
  0
SPLINE
  5
1a3
100
AcDbEntity
  8
Ebene_1
 62
7
100
AcDbSpline
 70
8
 71
3
 72
8
 73
4
 74
0
 40
0
 40
0
 40
0
 40
0
 40
1
 40
1
 40
1
 40
1
 10
305.880729
 20
330.172991
 30
0.0
 10
306.629725
 20
330.172991
 30
0.0
 10
307.305290
 20
330.239023
 30
0.0
 10
307.907424
 20
330.371088
 30
0.0
  0
SPLINE
  5
1a4
100
AcDbEntity
  8
Ebene_1
 62
7
100
AcDbSpline
 70
8
 71
3
 72
8
 73
4
 74
0
 40
0
 40
0
 40
0
 40
0
 40
1
 40
1
 40
1
 40
1
 10
307.907424
 20
330.371088
 30
0.0
 10
308.509557
 20
330.488479
 30
0.0
 10
309.060289
 20
330.664565
 30
0.0
 10
309.559619
 20
330.899347
 30
0.0
  0
SPLINE
  5
1a5
100
AcDbEntity
  8
Ebene_1
 62
7
100
AcDbSpline
 70
8
 71
3
 72
8
 73
4
 74
0
 40
0
 40
0
 40
0
 40
0
 40
1
 40
1
 40
1
 40
1
 10
309.559619
 20
330.899347
 30
0.0
 10
310.073636
 20
331.148803
 30
0.0
 10
310.543595
 20
331.442280
 30
0.0
 10
310.969494
 20
331.779779
 30
0.0
  0
SPLINE
  5
1a6
100
AcDbEntity
  8
Ebene_1
 62
7
100
AcDbSpline
 70
8
 71
3
 72
8
 73
4
 74
0
 40
0
 40
0
 40
0
 40
0
 40
1
 40
1
 40
1
 40
1
 10
310.969494
 20
331.779779
 30
0.0
 10
311.395393
 20
332.117278
 30
0.0
 10
311.806607
 20
332.498801
 30
0.0
 10
312.203134
 20
332.924350
 30
0.0
  0
LWPOLYLINE
  5
1a7
100
AcDbEntity
  8
Ebene_1
 62
7
100
AcDbPolyline
 90
2
 70
0
 10
297.972216
 20
338.140878
 30
0.0
 10
297.972216
 20
338.096897
 30
0.0
  0
LWPOLYLINE
  5
1a8
100
AcDbEntity
  8
Ebene_1
 62
7
100
AcDbPolyline
 90
1
 70
1
 10
312.203134
 20
332.924350
 30
0.0
  0
LWPOLYLINE
  5
1a9
100
AcDbEntity
  8
Ebene_1
 62
7
100
AcDbPolyline
 90
6
 70
1
 10
325.999661
 20
330.437121
 30
0.0
 10
325.999661
 20
333.518642
 30
0.0
 10
318.311442
 20
333.518642
 30
0.0
 10
318.311442
 20
345.844726
 30
0.0
 10
314.918932
 20
345.844726
 30
0.0
 10
314.918932
 20
330.437121
 30
0.0
  0
SPLINE
  5
1aa
100
AcDbEntity
  8
Ebene_1
 62
7
100
AcDbSpline
 70
8
 71
3
 72
8
 73
4
 74
0
 40
0
 40
0
 40
0
 40
0
 40
1
 40
1
 40
1
 40
1
 10
338.361187
 20
337.018368
 30
0.0
 10
338.361187
 20
335.785757
 30
0.0
 10
338.067464
 20
334.861300
 30
0.0
 10
337.480019
 20
334.244998
 30
0.0
  0
SPLINE
  5
1ab
100
AcDbEntity
  8
Ebene_1
 62
7
100
AcDbSpline
 70
8
 71
3
 72
8
 73
4
 74
0
 40
0
 40
0
 40
0
 40
0
 40
1
 40
1
 40
1
 40
1
 10
337.480019
 20
334.244998
 30
0.0
 10
336.892573
 20
333.628696
 30
0.0
 10
336.077489
 20
333.320544
 30
0.0
 10
335.034766
 20
333.320544
 30
0.0
  0
SPLINE
  5
1ac
100
AcDbEntity
  8
Ebene_1
 62
7
100
AcDbSpline
 70
8
 71
3
 72
8
 73
4
 74
0
 40
0
 40
0
 40
0
 40
0
 40
1
 40
1
 40
1
 40
1
 10
335.034766
 20
333.320544
 30
0.0
 10
333.992050
 20
333.320544
 30
0.0
 10
333.176967
 20
333.636032
 30
0.0
 10
332.589516
 20
334.267009
 30
0.0
  0
SPLINE
  5
1ad
100
AcDbEntity
  8
Ebene_1
 62
7
100
AcDbSpline
 70
8
 71
3
 72
8
 73
4
 74
0
 40
0
 40
0
 40
0
 40
0
 40
1
 40
1
 40
1
 40
1
 10
332.589516
 20
334.267009
 30
0.0
 10
332.002068
 20
334.912658
 30
0.0
 10
331.708344
 20
335.866463
 30
0.0
 10
331.708344
 20
337.128422
 30
0.0
  0
LWPOLYLINE
  5
1ae
100
AcDbEntity
  8
Ebene_1
 62
7
100
AcDbPolyline
 90
4
 70
0
 10
341.753696
 20
337.150432
 30
0.0
 10
341.753696
 20
345.844726
 30
0.0
 10
338.361187
 20
345.844726
 30
0.0
 10
338.361187
 20
337.018368
 30
0.0
  0
SPLINE
  5
1af
100
AcDbEntity
  8
Ebene_1
 62
7
100
AcDbSpline
 70
8
 71
3
 72
8
 73
4
 74
0
 40
0
 40
0
 40
0
 40
0
 40
1
 40
1
 40
1
 40
1
 10
328.315835
 20
337.040378
 30
0.0
 10
328.315835
 20
334.765923
 30
0.0
 10
328.910626
 20
333.056412
 30
0.0
 10
330.100207
 20
331.911844
 30
0.0
  0
SPLINE
  5
1b0
100
AcDbEntity
  8
Ebene_1
 62
7
100
AcDbSpline
 70
8
 71
3
 72
8
 73
4
 74
0
 40
0
 40
0
 40
0
 40
0
 40
1
 40
1
 40
1
 40
1
 10
330.100207
 20
331.911844
 30
0.0
 10
331.289788
 20
330.767282
 30
0.0
 10
332.919955
 20
330.195002
 30
0.0
 10
334.990708
 20
330.195002
 30
0.0
  0
SPLINE
  5
1b1
100
AcDbEntity
  8
Ebene_1
 62
7
100
AcDbSpline
 70
8
 71
3
 72
8
 73
4
 74
0
 40
0
 40
0
 40
0
 40
0
 40
1
 40
1
 40
1
 40
1
 10
334.990708
 20
330.195002
 30
0.0
 10
336.018744
 20
330.195002
 30
0.0
 10
336.951318
 20
330.334403
 30
0.0
 10
337.788428
 20
330.613207
 30
0.0
  0
SPLINE
  5
1b2
100
AcDbEntity
  8
Ebene_1
 62
7
100
AcDbSpline
 70
8
 71
3
 72
8
 73
4
 74
0
 40
0
 40
0
 40
0
 40
0
 40
1
 40
1
 40
1
 40
1
 10
337.788428
 20
330.613207
 30
0.0
 10
338.625538
 20
330.906684
 30
0.0
 10
339.337819
 20
331.339563
 30
0.0
 10
339.925271
 20
331.911844
 30
0.0
  0
SPLINE
  5
1b3
100
AcDbEntity
  8
Ebene_1
 62
7
100
AcDbSpline
 70
8
 71
3
 72
8
 73
4
 74
0
 40
0
 40
0
 40
0
 40
0
 40
1
 40
1
 40
1
 40
1
 10
339.925271
 20
331.911844
 30
0.0
 10
340.512717
 20
332.498805
 30
0.0
 10
340.960644
 20
333.225164
 30
0.0
 10
341.269053
 20
334.090922
 30
0.0
  0
SPLINE
  5
1b4
100
AcDbEntity
  8
Ebene_1
 62
7
100
AcDbSpline
 70
8
 71
3
 72
8
 73
4
 74
0
 40
0
 40
0
 40
0
 40
0
 40
1
 40
1
 40
1
 40
1
 10
341.269053
 20
334.090922
 30
0.0
 10
341.592148
 20
334.956687
 30
0.0
 10
341.753696
 20
335.976523
 30
0.0
 10
341.753696
 20
337.150432
 30
0.0
  0
LWPOLYLINE
  5
1b5
100
AcDbEntity
  8
Ebene_1
 62
7
100
AcDbPolyline
 90
4
 70
0
 10
331.708344
 20
337.128422
 30
0.0
 10
331.708344
 20
345.844726
 30
0.0
 10
328.315835
 20
345.844726
 30
0.0
 10
328.315835
 20
337.040378
 30
0.0
  0
LWPOLYLINE
  5
1b6
100
AcDbEntity
  8
Ebene_1
 62
7
100
AcDbPolyline
 90
1
 70
1
 10
341.753696
 20
337.150432
 30
0.0
  0
SPLINE
  5
1b7
100
AcDbEntity
  8
Ebene_1
 62
7
100
AcDbSpline
 70
8
 71
3
 72
8
 73
4
 74
0
 40
0
 40
0
 40
0
 40
0
 40
1
 40
1
 40
1
 40
1
 10
356.356021
 20
335.037346
 30
0.0
 10
356.356021
 20
335.712351
 30
0.0
 10
356.245875
 20
336.291972
 30
0.0
 10
356.025583
 20
336.776209
 30
0.0
  0
SPLINE
  5
1b8
100
AcDbEntity
  8
Ebene_1
 62
7
100
AcDbSpline
 70
8
 71
3
 72
8
 73
4
 74
0
 40
0
 40
0
 40
0
 40
0
 40
1
 40
1
 40
1
 40
1
 10
356.025583
 20
336.776209
 30
0.0
 10
355.819970
 20
337.260446
 30
0.0
 10
355.504215
 20
337.678651
 30
0.0
 10
355.078317
 20
338.030824
 30
0.0
  0
SPLINE
  5
1b9
100
AcDbEntity
  8
Ebene_1
 62
7
100
AcDbSpline
 70
8
 71
3
 72
8
 73
4
 74
0
 40
0
 40
0
 40
0
 40
0
 40
1
 40
1
 40
1
 40
1
 10
355.078317
 20
338.030824
 30
0.0
 10
354.667105
 20
338.397677
 30
0.0
 10
354.153090
 20
338.705832
 30
0.0
 10
353.536272
 20
338.955287
 30
0.0
  0
SPLINE
  5
1ba
100
AcDbEntity
  8
Ebene_1
 62
7
100
AcDbSpline
 70
8
 71
3
 72
8
 73
4
 74
0
 40
0
 40
0
 40
0
 40
0
 40
1
 40
1
 40
1
 40
1
 10
353.536272
 20
338.955287
 30
0.0
 10
352.934134
 20
339.219417
 30
0.0
 10
352.243882
 20
339.454199
 30
0.0
 10
351.465516
 20
339.659633
 30
0.0
  0
SPLINE
  5
1bb
100
AcDbEntity
  8
Ebene_1
 62
7
100
AcDbSpline
 70
8
 71
3
 72
8
 73
4
 74
0
 40
0
 40
0
 40
0
 40
0
 40
1
 40
1
 40
1
 40
1
 10
351.465516
 20
339.659633
 30
0.0
 10
350.804640
 20
339.835719
 30
0.0
 10
350.253910
 20
339.989795
 30
0.0
 10
349.813326
 20
340.121860
 30
0.0
  0
SPLINE
  5
1bc
100
AcDbEntity
  8
Ebene_1
 62
7
100
AcDbSpline
 70
8
 71
3
 72
8
 73
4
 74
0
 40
0
 40
0
 40
0
 40
0
 40
1
 40
1
 40
1
 40
1
 10
349.813326
 20
340.121860
 30
0.0
 10
349.387421
 20
340.253924
 30
0.0
 10
349.049636
 20
340.393326
 30
0.0
 10
348.799972
 20
340.540065
 30
0.0
  0
SPLINE
  5
1bd
100
AcDbEntity
  8
Ebene_1
 62
7
100
AcDbSpline
 70
8
 71
3
 72
8
 73
4
 74
0
 40
0
 40
0
 40
0
 40
0
 40
1
 40
1
 40
1
 40
1
 10
348.799972
 20
340.540065
 30
0.0
 10
348.550307
 20
340.686803
 30
0.0
 10
348.374074
 20
340.848216
 30
0.0
 10
348.271271
 20
341.024302
 30
0.0
  0
SPLINE
  5
1be
100
AcDbEntity
  8
Ebene_1
 62
7
100
AcDbSpline
 70
8
 71
3
 72
8
 73
4
 74
0
 40
0
 40
0
 40
0
 40
0
 40
1
 40
1
 40
1
 40
1
 10
348.271271
 20
341.024302
 30
0.0
 10
348.183154
 20
341.215062
 30
0.0
 10
348.139096
 20
341.435174
 30
0.0
 10
348.139096
 20
341.684636
 30
0.0
  0
LWPOLYLINE
  5
1bf
100
AcDbEntity
  8
Ebene_1
 62
7
100
AcDbPolyline
 90
2
 70
0
 10
356.356021
 20
334.993365
 30
0.0
 10
356.356021
 20
335.037346
 30
0.0
  0
SPLINE
  5
1c0
100
AcDbEntity
  8
Ebene_1
 62
7
100
AcDbSpline
 70
8
 71
3
 72
8
 73
4
 74
0
 40
0
 40
0
 40
0
 40
0
 40
1
 40
1
 40
1
 40
1
 10
348.139096
 20
341.728617
 30
0.0
 10
348.139096
 20
342.110138
 30
0.0
 10
348.300643
 20
342.425626
 30
0.0
 10
348.623738
 20
342.675082
 30
0.0
  0
SPLINE
  5
1c1
100
AcDbEntity
  8
Ebene_1
 62
7
100
AcDbSpline
 70
8
 71
3
 72
8
 73
4
 74
0
 40
0
 40
0
 40
0
 40
0
 40
1
 40
1
 40
1
 40
1
 10
348.623738
 20
342.675082
 30
0.0
 10
348.961519
 20
342.939211
 30
0.0
 10
349.460852
 20
343.071276
 30
0.0
 10
350.121735
 20
343.071276
 30
0.0
  0
SPLINE
  5
1c2
100
AcDbEntity
  8
Ebene_1
 62
7
100
AcDbSpline
 70
8
 71
3
 72
8
 73
4
 74
0
 40
0
 40
0
 40
0
 40
0
 40
1
 40
1
 40
1
 40
1
 10
350.121735
 20
343.071276
 30
0.0
 10
350.782611
 20
343.071276
 30
0.0
 10
351.443487
 20
342.931874
 30
0.0
 10
352.104364
 20
342.653071
 30
0.0
  0
SPLINE
  5
1c3
100
AcDbEntity
  8
Ebene_1
 62
7
100
AcDbSpline
 70
8
 71
3
 72
8
 73
4
 74
0
 40
0
 40
0
 40
0
 40
0
 40
1
 40
1
 40
1
 40
1
 10
352.104364
 20
342.653071
 30
0.0
 10
352.765247
 20
342.388941
 30
0.0
 10
353.440812
 20
342.022095
 30
0.0
 10
354.131061
 20
341.552531
 30
0.0
  0
LWPOLYLINE
  5
1c4
100
AcDbEntity
  8
Ebene_1
 62
7
100
AcDbPolyline
 90
2
 70
0
 10
348.139096
 20
341.684636
 30
0.0
 10
348.139096
 20
341.728617
 30
0.0
  0
SPLINE
  5
1c5
100
AcDbEntity
  8
Ebene_1
 62
7
100
AcDbSpline
 70
8
 71
3
 72
8
 73
4
 74
0
 40
0
 40
0
 40
0
 40
0
 40
1
 40
1
 40
1
 40
1
 10
355.893408
 20
344.105783
 30
0.0
 10
355.100350
 20
344.736766
 30
0.0
 10
354.226521
 20
345.221007
 30
0.0
 10
353.271922
 20
345.558505
 30
0.0
  0
SPLINE
  5
1c6
100
AcDbEntity
  8
Ebene_1
 62
7
100
AcDbSpline
 70
8
 71
3
 72
8
 73
4
 74
0
 40
0
 40
0
 40
0
 40
0
 40
1
 40
1
 40
1
 40
1
 10
353.271922
 20
345.558505
 30
0.0
 10
352.332002
 20
345.896004
 30
0.0
 10
351.296626
 20
346.064754
 30
0.0
 10
350.165793
 20
346.064754
 30
0.0
  0
SPLINE
  5
1c7
100
AcDbEntity
  8
Ebene_1
 62
7
100
AcDbSpline
 70
8
 71
3
 72
8
 73
4
 74
0
 40
0
 40
0
 40
0
 40
0
 40
1
 40
1
 40
1
 40
1
 10
350.165793
 20
346.064754
 30
0.0
 10
349.372735
 20
346.064754
 30
0.0
 10
348.645767
 20
345.954700
 30
0.0
 10
347.984891
 20
345.734592
 30
0.0
  0
SPLINE
  5
1c8
100
AcDbEntity
  8
Ebene_1
 62
7
100
AcDbSpline
 70
8
 71
3
 72
8
 73
4
 74
0
 40
0
 40
0
 40
0
 40
0
 40
1
 40
1
 40
1
 40
1
 10
347.984891
 20
345.734592
 30
0.0
 10
347.324015
 20
345.514484
 30
0.0
 10
346.751252
 20
345.198996
 30
0.0
 10
346.266603
 20
344.788128
 30
0.0
  0
SPLINE
  5
1c9
100
AcDbEntity
  8
Ebene_1
 62
7
100
AcDbSpline
 70
8
 71
3
 72
8
 73
4
 74
0
 40
0
 40
0
 40
0
 40
0
 40
1
 40
1
 40
1
 40
1
 10
346.266603
 20
344.788128
 30
0.0
 10
345.796646
 20
344.377253
 30
0.0
 10
345.429493
 20
343.885675
 30
0.0
 10
345.165142
 20
343.313395
 30
0.0
  0
SPLINE
  5
1ca
100
AcDbEntity
  8
Ebene_1
 62
7
100
AcDbSpline
 70
8
 71
3
 72
8
 73
4
 74
0
 40
0
 40
0
 40
0
 40
0
 40
1
 40
1
 40
1
 40
1
 10
345.165142
 20
343.313395
 30
0.0
 10
344.900792
 20
342.755788
 30
0.0
 10
344.768616
 20
342.124812
 30
0.0
 10
344.768616
 20
341.420466
 30
0.0
  0
LWPOLYLINE
  5
1cb
100
AcDbEntity
  8
Ebene_1
 62
7
100
AcDbPolyline
 90
2
 70
0
 10
354.131061
 20
341.552531
 30
0.0
 10
355.893408
 20
344.105783
 30
0.0
  0
SPLINE
  5
1cc
100
AcDbEntity
  8
Ebene_1
 62
7
100
AcDbSpline
 70
8
 71
3
 72
8
 73
4
 74
0
 40
0
 40
0
 40
0
 40
0
 40
1
 40
1
 40
1
 40
1
 10
344.768616
 20
341.376485
 30
0.0
 10
344.768616
 20
340.613444
 30
0.0
 10
344.886105
 20
339.975131
 30
0.0
 10
345.121084
 20
339.461546
 30
0.0
  0
SPLINE
  5
1cd
100
AcDbEntity
  8
Ebene_1
 62
7
100
AcDbSpline
 70
8
 71
3
 72
8
 73
4
 74
0
 40
0
 40
0
 40
0
 40
0
 40
1
 40
1
 40
1
 40
1
 10
345.121084
 20
339.461546
 30
0.0
 10
345.370748
 20
338.947961
 30
0.0
 10
345.715872
 20
338.515078
 30
0.0
 10
346.156457
 20
338.162899
 30
0.0
  0
SPLINE
  5
1ce
100
AcDbEntity
  8
Ebene_1
 62
7
100
AcDbSpline
 70
8
 71
3
 72
8
 73
4
 74
0
 40
0
 40
0
 40
0
 40
0
 40
1
 40
1
 40
1
 40
1
 10
346.156457
 20
338.162899
 30
0.0
 10
346.597047
 20
337.825400
 30
0.0
 10
347.133095
 20
337.539260
 30
0.0
 10
347.764599
 20
337.304478
 30
0.0
  0
SPLINE
  5
1cf
100
AcDbEntity
  8
Ebene_1
 62
7
100
AcDbSpline
 70
8
 71
3
 72
8
 73
4
 74
0
 40
0
 40
0
 40
0
 40
0
 40
1
 40
1
 40
1
 40
1
 10
347.764599
 20
337.304478
 30
0.0
 10
348.396103
 20
337.069696
 30
0.0
 10
349.101041
 20
336.856925
 30
0.0
 10
349.879413
 20
336.666165
 30
0.0
  0
SPLINE
  5
1d0
100
AcDbEntity
  8
Ebene_1
 62
7
100
AcDbSpline
 70
8
 71
3
 72
8
 73
4
 74
0
 40
0
 40
0
 40
0
 40
0
 40
1
 40
1
 40
1
 40
1
 10
349.879413
 20
336.666165
 30
0.0
 10
350.525603
 20
336.504753
 30
0.0
 10
351.046961
 20
336.350677
 30
0.0
 10
351.443487
 20
336.203938
 30
0.0
  0
SPLINE
  5
1d1
100
AcDbEntity
  8
Ebene_1
 62
7
100
AcDbSpline
 70
8
 71
3
 72
8
 73
4
 74
0
 40
0
 40
0
 40
0
 40
0
 40
1
 40
1
 40
1
 40
1
 10
351.443487
 20
336.203938
 30
0.0
 10
351.854699
 20
336.057200
 30
0.0
 10
352.170451
 20
335.910461
 30
0.0
 10
352.390743
 20
335.763722
 30
0.0
  0
SPLINE
  5
1d2
100
AcDbEntity
  8
Ebene_1
 62
7
100
AcDbSpline
 70
8
 71
3
 72
8
 73
4
 74
0
 40
0
 40
0
 40
0
 40
0
 40
1
 40
1
 40
1
 40
1
 10
352.390743
 20
335.763722
 30
0.0
 10
352.625722
 20
335.616984
 30
0.0
 10
352.779929
 20
335.455568
 30
0.0
 10
352.853367
 20
335.279475
 30
0.0
  0
SPLINE
  5
1d3
100
AcDbEntity
  8
Ebene_1
 62
7
100
AcDbSpline
 70
8
 71
3
 72
8
 73
4
 74
0
 40
0
 40
0
 40
0
 40
0
 40
1
 40
1
 40
1
 40
1
 10
352.853367
 20
335.279475
 30
0.0
 10
352.941484
 20
335.118063
 30
0.0
 10
352.985542
 20
334.927302
 30
0.0
 10
352.985542
 20
334.707194
 30
0.0
  0
LWPOLYLINE
  5
1d4
100
AcDbEntity
  8
Ebene_1
 62
7
100
AcDbPolyline
 90
2
 70
0
 10
344.768616
 20
341.420466
 30
0.0
 10
344.768616
 20
341.376485
 30
0.0
  0
SPLINE
  5
1d5
100
AcDbEntity
  8
Ebene_1
 62
7
100
AcDbSpline
 70
8
 71
3
 72
8
 73
4
 74
0
 40
0
 40
0
 40
0
 40
0
 40
1
 40
1
 40
1
 40
1
 10
352.985542
 20
334.663213
 30
0.0
 10
352.985542
 20
334.208323
 30
0.0
 10
352.787276
 20
333.848813
 30
0.0
 10
352.390743
 20
333.584684
 30
0.0
  0
SPLINE
  5
1d6
100
AcDbEntity
  8
Ebene_1
 62
7
100
AcDbSpline
 70
8
 71
3
 72
8
 73
4
 74
0
 40
0
 40
0
 40
0
 40
0
 40
1
 40
1
 40
1
 40
1
 10
352.390743
 20
333.584684
 30
0.0
 10
352.008904
 20
333.335228
 30
0.0
 10
351.465516
 20
333.210500
 30
0.0
 10
350.760582
 20
333.210500
 30
0.0
  0
SPLINE
  5
1d7
100
AcDbEntity
  8
Ebene_1
 62
7
100
AcDbSpline
 70
8
 71
3
 72
8
 73
4
 74
0
 40
0
 40
0
 40
0
 40
0
 40
1
 40
1
 40
1
 40
1
 10
350.760582
 20
333.210500
 30
0.0
 10
349.879407
 20
333.210500
 30
0.0
 10
349.064322
 20
333.379250
 30
0.0
 10
348.315329
 20
333.716749
 30
0.0
  0
SPLINE
  5
1d8
100
AcDbEntity
  8
Ebene_1
 62
7
100
AcDbSpline
 70
8
 71
3
 72
8
 73
4
 74
0
 40
0
 40
0
 40
0
 40
0
 40
1
 40
1
 40
1
 40
1
 10
348.315329
 20
333.716749
 30
0.0
 10
347.581022
 20
334.054248
 30
0.0
 10
346.861398
 20
334.509137
 30
0.0
 10
346.156457
 20
335.081418
 30
0.0
  0
LWPOLYLINE
  5
1d9
100
AcDbEntity
  8
Ebene_1
 62
7
100
AcDbPolyline
 90
2
 70
0
 10
352.985542
 20
334.707194
 30
0.0
 10
352.985542
 20
334.663213
 30
0.0
  0
SPLINE
  5
1da
100
AcDbEntity
  8
Ebene_1
 62
7
100
AcDbSpline
 70
8
 71
3
 72
8
 73
4
 74
0
 40
0
 40
0
 40
0
 40
0
 40
1
 40
1
 40
1
 40
1
 10
344.151798
 20
332.682241
 30
0.0
 10
345.077025
 20
331.845825
 30
0.0
 10
346.105058
 20
331.222182
 30
0.0
 10
347.235898
 20
330.811314
 30
0.0
  0
SPLINE
  5
1db
100
AcDbEntity
  8
Ebene_1
 62
7
100
AcDbSpline
 70
8
 71
3
 72
8
 73
4
 74
0
 40
0
 40
0
 40
0
 40
0
 40
1
 40
1
 40
1
 40
1
 10
347.235898
 20
330.811314
 30
0.0
 10
348.366731
 20
330.415120
 30
0.0
 10
349.519596
 20
330.217023
 30
0.0
 10
350.694494
 20
330.217023
 30
0.0
  0
SPLINE
  5
1dc
100
AcDbEntity
  8
Ebene_1
 62
7
100
AcDbSpline
 70
8
 71
3
 72
8
 73
4
 74
0
 40
0
 40
0
 40
0
 40
0
 40
1
 40
1
 40
1
 40
1
 10
350.694494
 20
330.217023
 30
0.0
 10
351.531604
 20
330.217023
 30
0.0
 10
352.295287
 20
330.319740
 30
0.0
 10
352.985542
 20
330.525174
 30
0.0
  0
SPLINE
  5
1dd
100
AcDbEntity
  8
Ebene_1
 62
7
100
AcDbSpline
 70
8
 71
3
 72
8
 73
4
 74
0
 40
0
 40
0
 40
0
 40
0
 40
1
 40
1
 40
1
 40
1
 10
352.985542
 20
330.525174
 30
0.0
 10
353.675791
 20
330.745282
 30
0.0
 10
354.270579
 20
331.053433
 30
0.0
 10
354.769908
 20
331.449627
 30
0.0
  0
SPLINE
  5
1de
100
AcDbEntity
  8
Ebene_1
 62
7
100
AcDbSpline
 70
8
 71
3
 72
8
 73
4
 74
0
 40
0
 40
0
 40
0
 40
0
 40
1
 40
1
 40
1
 40
1
 10
354.769908
 20
331.449627
 30
0.0
 10
355.269237
 20
331.860495
 30
0.0
 10
355.658423
 20
332.359410
 30
0.0
 10
355.937466
 20
332.946371
 30
0.0
  0
SPLINE
  5
1df
100
AcDbEntity
  8
Ebene_1
 62
7
100
AcDbSpline
 70
8
 71
3
 72
8
 73
4
 74
0
 40
0
 40
0
 40
0
 40
0
 40
1
 40
1
 40
1
 40
1
 10
355.937466
 20
332.946371
 30
0.0
 10
356.216503
 20
333.547999
 30
0.0
 10
356.356021
 20
334.230334
 30
0.0
 10
356.356021
 20
334.993375
 30
0.0
  0
LWPOLYLINE
  5
1e0
100
AcDbEntity
  8
Ebene_1
 62
7
100
AcDbPolyline
 90
2
 70
0
 10
346.156457
 20
335.081418
 30
0.0
 10
344.151798
 20
332.682241
 30
0.0
  0
LWPOLYLINE
  5
1e1
100
AcDbEntity
  8
Ebene_1
 62
7
100
AcDbPolyline
 90
1
 70
1
 10
356.356021
 20
334.993375
 30
0.0
  0
LWPOLYLINE
  5
1e2
100
AcDbEntity
  8
Ebene_1
 62
7
100
AcDbPolyline
 90
4
 70
1
 10
362.868424
 20
330.437121
 30
0.0
 10
362.868424
 20
345.844726
 30
0.0
 10
359.475916
 20
345.844726
 30
0.0
 10
359.475916
 20
330.437121
 30
0.0
  0
LWPOLYLINE
  5
1e3
100
AcDbEntity
  8
Ebene_1
 62
7
100
AcDbPolyline
 90
7
 70
1
 10
380.864969
 20
345.844726
 30
0.0
 10
377.208110
 20
345.844726
 30
0.0
 10
373.176754
 20
334.993365
 30
0.0
 10
369.145389
 20
345.844726
 30
0.0
 10
365.400413
 20
345.844726
 30
0.0
 10
371.634700
 20
330.327067
 30
0.0
 10
374.630682
 20
330.327067
 30
0.0
  0
LWPOLYLINE
  5
1e4
100
AcDbEntity
  8
Ebene_1
 62
7
100
AcDbPolyline
 90
12
 70
1
 10
394.985743
 20
330.437121
 30
0.0
 10
394.985743
 20
333.452609
 30
0.0
 10
386.614613
 20
333.452609
 30
0.0
 10
386.614613
 20
336.688206
 30
0.0
 10
393.884273
 20
336.688206
 30
0.0
 10
393.884273
 20
339.703694
 30
0.0
 10
386.614613
 20
339.703694
 30
0.0
 10
386.614613
 20
342.829237
 30
0.0
 10
394.875597
 20
342.829237
 30
0.0
 10
394.875597
 20
345.844726
 30
0.0
 10
383.244134
 20
345.844726
 30
0.0
 10
383.244134
 20
330.437121
 30
0.0
  0
SPLINE
  5
1e5
100
AcDbEntity
  8
Ebene_1
 62
7
100
AcDbSpline
 70
8
 71
3
 72
8
 73
4
 74
0
 40
0
 40
0
 40
0
 40
0
 40
1
 40
1
 40
1
 40
1
 10
416.832248
 20
340.518054
 30
0.0
 10
416.832248
 20
341.310449
 30
0.0
 10
416.692730
 20
342.029472
 30
0.0
 10
416.413693
 20
342.675122
 30
0.0
  0
SPLINE
  5
1e6
100
AcDbEntity
  8
Ebene_1
 62
7
100
AcDbSpline
 70
8
 71
3
 72
8
 73
4
 74
0
 40
0
 40
0
 40
0
 40
0
 40
1
 40
1
 40
1
 40
1
 10
416.413693
 20
342.675122
 30
0.0
 10
416.149342
 20
343.335445
 30
0.0
 10
415.760160
 20
343.900389
 30
0.0
 10
415.246145
 20
344.369953
 30
0.0
  0
SPLINE
  5
1e7
100
AcDbEntity
  8
Ebene_1
 62
7
100
AcDbSpline
 70
8
 71
3
 72
8
 73
4
 74
0
 40
0
 40
0
 40
0
 40
0
 40
1
 40
1
 40
1
 40
1
 10
415.246145
 20
344.369953
 30
0.0
 10
414.746809
 20
344.839523
 30
0.0
 10
414.129988
 20
345.199036
 30
0.0
 10
413.395681
 20
345.448491
 30
0.0
  0
SPLINE
  5
1e8
100
AcDbEntity
  8
Ebene_1
 62
7
100
AcDbSpline
 70
8
 71
3
 72
8
 73
4
 74
0
 40
0
 40
0
 40
0
 40
0
 40
1
 40
1
 40
1
 40
1
 10
413.395681
 20
345.448491
 30
0.0
 10
412.676060
 20
345.712621
 30
0.0
 10
411.853633
 20
345.844686
 30
0.0
 10
410.928399
 20
345.844686
 30
0.0
  0
LWPOLYLINE
  5
1e9
100
AcDbEntity
  8
Ebene_1
 62
7
100
AcDbPolyline
 90
2
 70
0
 10
416.832248
 20
340.474072
 30
0.0
 10
416.832248
 20
340.518054
 30
0.0
  0
SPLINE
  5
1ea
100
AcDbEntity
  8
Ebene_1
 62
7
100
AcDbSpline
 70
8
 71
3
 72
8
 73
4
 74
0
 40
0
 40
0
 40
0
 40
0
 40
1
 40
1
 40
1
 40
1
 10
410.597961
 20
335.059357
 30
0.0
 10
411.464450
 20
335.059357
 30
0.0
 10
412.272191
 20
335.169414
 30
0.0
 10
413.021184
 20
335.389529
 30
0.0
  0
SPLINE
  5
1eb
100
AcDbEntity
  8
Ebene_1
 62
7
100
AcDbSpline
 70
8
 71
3
 72
8
 73
4
 74
0
 40
0
 40
0
 40
0
 40
0
 40
1
 40
1
 40
1
 40
1
 10
413.021184
 20
335.389529
 30
0.0
 10
413.784864
 20
335.624311
 30
0.0
 10
414.445743
 20
335.969147
 30
0.0
 10
415.003823
 20
336.424036
 30
0.0
  0
SPLINE
  5
1ec
100
AcDbEntity
  8
Ebene_1
 62
7
100
AcDbSpline
 70
8
 71
3
 72
8
 73
4
 74
0
 40
0
 40
0
 40
0
 40
0
 40
1
 40
1
 40
1
 40
1
 10
415.003823
 20
336.424036
 30
0.0
 10
415.576583
 20
336.878926
 30
0.0
 10
416.024510
 20
337.443870
 30
0.0
 10
416.347605
 20
338.118867
 30
0.0
  0
SPLINE
  5
1ed
100
AcDbEntity
  8
Ebene_1
 62
7
100
AcDbSpline
 70
8
 71
3
 72
8
 73
4
 74
0
 40
0
 40
0
 40
0
 40
0
 40
1
 40
1
 40
1
 40
1
 10
416.347605
 20
338.118867
 30
0.0
 10
416.670700
 20
338.793872
 30
0.0
 10
416.832248
 20
339.578927
 30
0.0
 10
416.832248
 20
340.474032
 30
0.0
  0
LWPOLYLINE
  5
1ee
100
AcDbEntity
  8
Ebene_1
 62
7
100
AcDbPolyline
 90
6
 70
0
 10
410.928399
 20
345.844686
 30
0.0
 10
404.628025
 20
345.844686
 30
0.0
 10
404.628025
 20
330.437081
 30
0.0
 10
408.020533
 20
330.437081
 30
0.0
 10
408.020533
 20
335.059357
 30
0.0
 10
410.597961
 20
335.059357
 30
0.0
  0
SPLINE
  5
1ef
100
AcDbEntity
  8
Ebene_1
 62
7
100
AcDbSpline
 70
8
 71
3
 72
8
 73
4
 74
0
 40
0
 40
0
 40
0
 40
0
 40
1
 40
1
 40
1
 40
1
 10
413.395681
 20
340.408000
 30
0.0
 10
413.395681
 20
339.747676
 30
0.0
 10
413.160703
 20
339.190069
 30
0.0
 10
412.690746
 20
338.735180
 30
0.0
  0
SPLINE
  5
1f0
100
AcDbEntity
  8
Ebene_1
 62
7
100
AcDbSpline
 70
8
 71
3
 72
8
 73
4
 74
0
 40
0
 40
0
 40
0
 40
0
 40
1
 40
1
 40
1
 40
1
 10
412.690746
 20
338.735180
 30
0.0
 10
412.220790
 20
338.294957
 30
0.0
 10
411.559910
 20
338.074846
 30
0.0
 10
410.708107
 20
338.074846
 30
0.0
  0
LWPOLYLINE
  5
1f1
100
AcDbEntity
  8
Ebene_1
 62
7
100
AcDbPolyline
 90
1
 70
1
 10
416.832248
 20
340.474032
 30
0.0
  0
SPLINE
  5
1f2
100
AcDbEntity
  8
Ebene_1
 62
7
100
AcDbSpline
 70
8
 71
3
 72
8
 73
4
 74
0
 40
0
 40
0
 40
0
 40
0
 40
1
 40
1
 40
1
 40
1
 10
410.642020
 20
342.785176
 30
0.0
 10
411.493822
 20
342.785176
 30
0.0
 10
412.162045
 20
342.587078
 30
0.0
 10
412.646688
 20
342.190884
 30
0.0
  0
SPLINE
  5
1f3
100
AcDbEntity
  8
Ebene_1
 62
7
100
AcDbSpline
 70
8
 71
3
 72
8
 73
4
 74
0
 40
0
 40
0
 40
0
 40
0
 40
1
 40
1
 40
1
 40
1
 10
412.646688
 20
342.190884
 30
0.0
 10
413.146017
 20
341.794690
 30
0.0
 10
413.395681
 20
341.215069
 30
0.0
 10
413.395681
 20
340.452021
 30
0.0
  0
LWPOLYLINE
  5
1f4
100
AcDbEntity
  8
Ebene_1
 62
7
100
AcDbPolyline
 90
4
 70
0
 10
410.708107
 20
338.074846
 30
0.0
 10
408.020533
 20
338.074846
 30
0.0
 10
408.020533
 20
342.785176
 30
0.0
 10
410.642020
 20
342.785176
 30
0.0
  0
LWPOLYLINE
  5
1f5
100
AcDbEntity
  8
Ebene_1
 62
7
100
AcDbPolyline
 90
2
 70
0
 10
413.395681
 20
340.452021
 30
0.0
 10
413.395681
 20
340.408000
 30
0.0
  0
LWPOLYLINE
  5
1f6
100
AcDbEntity
  8
Ebene_1
 62
7
100
AcDbPolyline
 90
8
 70
1
 10
434.366880
 20
330.437121
 30
0.0
 10
427.758086
 20
345.954780
 30
0.0
 10
424.629928
 20
345.954780
 30
0.0
 10
418.021145
 20
330.437121
 30
0.0
 10
421.479741
 20
330.437121
 30
0.0
 10
422.889621
 20
333.892825
 30
0.0
 10
429.410287
 20
333.892825
 30
0.0
 10
430.820157
 20
330.437121
 30
0.0
  0
LWPOLYLINE
  5
1f7
100
AcDbEntity
  8
Ebene_1
 62
7
100
AcDbPolyline
 90
3
 70
1
 10
428.198680
 20
336.886303
 30
0.0
 10
424.101227
 20
336.886303
 30
0.0
 10
426.149954
 20
341.882773
 30
0.0
  0
SPLINE
  5
1f8
100
AcDbEntity
  8
Ebene_1
 62
7
100
AcDbSpline
 70
8
 71
3
 72
8
 73
4
 74
0
 40
0
 40
0
 40
0
 40
0
 40
1
 40
1
 40
1
 40
1
 10
446.286093
 20
335.939839
 30
0.0
 10
447.270071
 20
336.306685
 30
0.0
 10
448.063126
 20
336.878966
 30
0.0
 10
448.665258
 20
337.656681
 30
0.0
  0
SPLINE
  5
1f9
100
AcDbEntity
  8
Ebene_1
 62
7
100
AcDbSpline
 70
8
 71
3
 72
8
 73
4
 74
0
 40
0
 40
0
 40
0
 40
0
 40
1
 40
1
 40
1
 40
1
 10
448.665258
 20
337.656681
 30
0.0
 10
449.282076
 20
338.449076
 30
0.0
 10
449.590485
 20
339.468913
 30
0.0
 10
449.590485
 20
340.716191
 30
0.0
  0
LWPOLYLINE
  5
1fa
100
AcDbEntity
  8
Ebene_1
 62
7
100
AcDbPolyline
 90
2
 70
0
 10
450.053098
 20
330.437121
 30
0.0
 10
446.286093
 20
335.939839
 30
0.0
  0
SPLINE
  5
1fb
100
AcDbEntity
  8
Ebene_1
 62
7
100
AcDbSpline
 70
8
 71
3
 72
8
 73
4
 74
0
 40
0
 40
0
 40
0
 40
0
 40
1
 40
1
 40
1
 40
1
 10
449.590485
 20
340.760173
 30
0.0
 10
449.590485
 20
342.359630
 30
0.0
 10
449.076470
 20
343.606915
 30
0.0
 10
448.048440
 20
344.502027
 30
0.0
  0
SPLINE
  5
1fc
100
AcDbEntity
  8
Ebene_1
 62
7
100
AcDbSpline
 70
8
 71
3
 72
8
 73
4
 74
0
 40
0
 40
0
 40
0
 40
0
 40
1
 40
1
 40
1
 40
1
 10
448.048440
 20
344.502027
 30
0.0
 10
447.035090
 20
345.397133
 30
0.0
 10
445.610527
 20
345.844686
 30
0.0
 10
443.774753
 20
345.844686
 30
0.0
  0
LWPOLYLINE
  5
1fd
100
AcDbEntity
  8
Ebene_1
 62
7
100
AcDbPolyline
 90
2
 70
0
 10
449.590485
 20
340.716191
 30
0.0
 10
449.590485
 20
340.760173
 30
0.0
  0
SPLINE
  5
1fe
100
AcDbEntity
  8
Ebene_1
 62
7
100
AcDbSpline
 70
8
 71
3
 72
8
 73
4
 74
0
 40
0
 40
0
 40
0
 40
0
 40
1
 40
1
 40
1
 40
1
 10
446.153918
 20
340.540105
 30
0.0
 10
446.153918
 20
339.879781
 30
0.0
 10
445.926283
 20
339.351522
 30
0.0
 10
445.471012
 20
338.955327
 30
0.0
  0
SPLINE
  5
1ff
100
AcDbEntity
  8
Ebene_1
 62
7
100
AcDbSpline
 70
8
 71
3
 72
8
 73
4
 74
0
 40
0
 40
0
 40
0
 40
0
 40
1
 40
1
 40
1
 40
1
 10
445.471012
 20
338.955327
 30
0.0
 10
445.030428
 20
338.559127
 30
0.0
 10
444.391578
 20
338.361026
 30
0.0
 10
443.554461
 20
338.361026
 30
0.0
  0
LWPOLYLINE
  5
200
100
AcDbEntity
  8
Ebene_1
 62
7
100
AcDbPolyline
 90
8
 70
0
 10
443.774753
 20
345.844686
 30
0.0
 10
436.725386
 20
345.844686
 30
0.0
 10
436.725386
 20
330.437081
 30
0.0
 10
440.117894
 20
330.437081
 30
0.0
 10
440.117894
 20
335.367518
 30
0.0
 10
442.783439
 20
335.367518
 30
0.0
 10
446.087830
 20
330.437081
 30
0.0
 10
450.053098
 20
330.437121
 30
0.0
  0
SPLINE
  5
201
100
AcDbEntity
  8
Ebene_1
 62
7
100
AcDbSpline
 70
8
 71
3
 72
8
 73
4
 74
0
 40
0
 40
0
 40
0
 40
0
 40
1
 40
1
 40
1
 40
1
 10
443.488373
 20
342.785215
 30
0.0
 10
444.325490
 20
342.785215
 30
0.0
 10
444.979027
 20
342.601792
 30
0.0
 10
445.448983
 20
342.234946
 30
0.0
  0
SPLINE
  5
202
100
AcDbEntity
  8
Ebene_1
 62
7
100
AcDbSpline
 70
8
 71
3
 72
8
 73
4
 74
0
 40
0
 40
0
 40
0
 40
0
 40
1
 40
1
 40
1
 40
1
 10
445.448983
 20
342.234946
 30
0.0
 10
445.918940
 20
341.868099
 30
0.0
 10
446.153918
 20
341.317826
 30
0.0
 10
446.153918
 20
340.584126
 30
0.0
  0
LWPOLYLINE
  5
203
100
AcDbEntity
  8
Ebene_1
 62
7
100
AcDbPolyline
 90
4
 70
0
 10
443.554461
 20
338.361026
 30
0.0
 10
440.117894
 20
338.361026
 30
0.0
 10
440.117894
 20
342.785215
 30
0.0
 10
443.488373
 20
342.785215
 30
0.0
  0
LWPOLYLINE
  5
204
100
AcDbEntity
  8
Ebene_1
 62
7
100
AcDbPolyline
 90
2
 70
0
 10
446.153918
 20
340.584126
 30
0.0
 10
446.153918
 20
340.540105
 30
0.0
  0
LWPOLYLINE
  5
205
100
AcDbEntity
  8
Ebene_1
 62
7
100
AcDbPolyline
 90
12
 70
1
 10
466.677649
 20
330.437121
 30
0.0
 10
460.112915
 20
339.307500
 30
0.0
 10
466.391260
 20
345.844726
 30
0.0
 10
462.293816
 20
345.844726
 30
0.0
 10
456.037501
 20
339.109403
 30
0.0
 10
456.037501
 20
345.844726
 30
0.0
 10
452.644992
 20
345.844726
 30
0.0
 10
452.644992
 20
330.437121
 30
0.0
 10
456.037501
 20
330.437121
 30
0.0
 10
456.037501
 20
335.147440
 30
0.0
 10
457.821877
 20
336.996357
 30
0.0
 10
462.602225
 20
330.437121
 30
0.0
  0
LWPOLYLINE
  5
206
100
AcDbEntity
  8
Ebene_1
 62
7
100
AcDbPolyline
 90
4
 70
1
 10
472.283393
 20
330.437121
 30
0.0
 10
472.283393
 20
345.844726
 30
0.0
 10
468.890885
 20
345.844726
 30
0.0
 10
468.890885
 20
330.437121
 30
0.0
  0
LWPOLYLINE
  5
207
100
AcDbEntity
  8
Ebene_1
 62
7
100
AcDbPolyline
 90
10
 70
1
 10
489.839354
 20
330.437121
 30
0.0
 10
489.839354
 20
345.844726
 30
0.0
 10
486.490904
 20
345.844726
 30
0.0
 10
486.490904
 20
336.358044
 30
0.0
 10
479.265303
 20
345.844726
 30
0.0
 10
476.137145
 20
345.844726
 30
0.0
 10
476.137145
 20
330.437121
 30
0.0
 10
479.485595
 20
330.437121
 30
0.0
 10
479.485595
 20
340.231953
 30
0.0
 10
486.953527
 20
330.437121
 30
0.0
  0
SPLINE
  5
208
100
AcDbEntity
  8
Ebene_1
 62
7
100
AcDbSpline
 70
8
 71
3
 72
8
 73
4
 74
0
 40
0
 40
0
 40
0
 40
0
 40
1
 40
1
 40
1
 40
1
 10
504.247889
 20
334.178965
 30
0.0
 10
503.381400
 20
333.562663
 30
0.0
 10
502.316651
 20
333.254512
 30
0.0
 10
501.053643
 20
333.254512
 30
0.0
  0
SPLINE
  5
209
100
AcDbEntity
  8
Ebene_1
 62
7
100
AcDbSpline
 70
8
 71
3
 72
8
 73
4
 74
0
 40
0
 40
0
 40
0
 40
0
 40
1
 40
1
 40
1
 40
1
 10
501.053643
 20
333.254512
 30
0.0
 10
500.363388
 20
333.254512
 30
0.0
 10
499.731880
 20
333.371903
 30
0.0
 10
499.159121
 20
333.606685
 30
0.0
  0
SPLINE
  5
20a
100
AcDbEntity
  8
Ebene_1
 62
7
100
AcDbSpline
 70
8
 71
3
 72
8
 73
4
 74
0
 40
0
 40
0
 40
0
 40
0
 40
1
 40
1
 40
1
 40
1
 10
499.159121
 20
333.606685
 30
0.0
 10
498.601047
 20
333.856140
 30
0.0
 10
498.109062
 20
334.200976
 30
0.0
 10
497.683164
 20
334.641192
 30
0.0
  0
SPLINE
  5
20b
100
AcDbEntity
  8
Ebene_1
 62
7
100
AcDbSpline
 70
8
 71
3
 72
8
 73
4
 74
0
 40
0
 40
0
 40
0
 40
0
 40
1
 40
1
 40
1
 40
1
 10
497.683164
 20
334.641192
 30
0.0
 10
497.271945
 20
335.081408
 30
0.0
 10
496.948847
 20
335.594996
 30
0.0
 10
496.713868
 20
336.181958
 30
0.0
  0
SPLINE
  5
20c
100
AcDbEntity
  8
Ebene_1
 62
7
100
AcDbSpline
 70
8
 71
3
 72
8
 73
4
 74
0
 40
0
 40
0
 40
0
 40
0
 40
1
 40
1
 40
1
 40
1
 10
496.713868
 20
336.181958
 30
0.0
 10
496.493576
 20
336.783586
 30
0.0
 10
496.383430
 20
337.436573
 30
0.0
 10
496.383430
 20
338.140918
 30
0.0
  0
LWPOLYLINE
  5
20d
100
AcDbEntity
  8
Ebene_1
 62
7
100
AcDbPolyline
 90
6
 70
0
 10
507.530251
 20
332.616199
 30
0.0
 10
507.530251
 20
339.307500
 30
0.0
 10
500.833351
 20
339.307500
 30
0.0
 10
500.833351
 20
336.380055
 30
0.0
 10
504.247889
 20
336.380055
 30
0.0
 10
504.247889
 20
334.178965
 30
0.0
  0
SPLINE
  5
20e
100
AcDbEntity
  8
Ebene_1
 62
7
100
AcDbSpline
 70
8
 71
3
 72
8
 73
4
 74
0
 40
0
 40
0
 40
0
 40
0
 40
1
 40
1
 40
1
 40
1
 10
496.383430
 20
338.184900
 30
0.0
 10
496.383430
 20
338.845230
 30
0.0
 10
496.493576
 20
339.461536
 30
0.0
 10
496.713868
 20
340.033816
 30
0.0
  0
SPLINE
  5
20f
100
AcDbEntity
  8
Ebene_1
 62
7
100
AcDbSpline
 70
8
 71
3
 72
8
 73
4
 74
0
 40
0
 40
0
 40
0
 40
0
 40
1
 40
1
 40
1
 40
1
 10
496.713868
 20
340.033816
 30
0.0
 10
496.948847
 20
340.620771
 30
0.0
 10
497.264602
 20
341.127022
 30
0.0
 10
497.661134
 20
341.552571
 30
0.0
  0
SPLINE
  5
210
100
AcDbEntity
  8
Ebene_1
 62
7
100
AcDbSpline
 70
8
 71
3
 72
8
 73
4
 74
0
 40
0
 40
0
 40
0
 40
0
 40
1
 40
1
 40
1
 40
1
 10
497.661134
 20
341.552571
 30
0.0
 10
498.072346
 20
341.992787
 30
0.0
 10
498.542303
 20
342.337623
 30
0.0
 10
499.071004
 20
342.587078
 30
0.0
  0
SPLINE
  5
211
100
AcDbEntity
  8
Ebene_1
 62
7
100
AcDbSpline
 70
8
 71
3
 72
8
 73
4
 74
0
 40
0
 40
0
 40
0
 40
0
 40
1
 40
1
 40
1
 40
1
 10
499.071004
 20
342.587078
 30
0.0
 10
499.614391
 20
342.851208
 30
0.0
 10
500.194497
 20
342.983273
 30
0.0
 10
500.811322
 20
342.983273
 30
0.0
  0
SPLINE
  5
212
100
AcDbEntity
  8
Ebene_1
 62
7
100
AcDbSpline
 70
8
 71
3
 72
8
 73
4
 74
0
 40
0
 40
0
 40
0
 40
0
 40
1
 40
1
 40
1
 40
1
 10
500.811322
 20
342.983273
 30
0.0
 10
501.251906
 20
342.983273
 30
0.0
 10
501.655775
 20
342.946588
 30
0.0
 10
502.022928
 20
342.873219
 30
0.0
  0
SPLINE
  5
213
100
AcDbEntity
  8
Ebene_1
 62
7
100
AcDbSpline
 70
8
 71
3
 72
8
 73
4
 74
0
 40
0
 40
0
 40
0
 40
0
 40
1
 40
1
 40
1
 40
1
 10
502.022928
 20
342.873219
 30
0.0
 10
502.390082
 20
342.799849
 30
0.0
 10
502.727863
 20
342.697132
 30
0.0
 10
503.036272
 20
342.565068
 30
0.0
  0
SPLINE
  5
214
100
AcDbEntity
  8
Ebene_1
 62
7
100
AcDbSpline
 70
8
 71
3
 72
8
 73
4
 74
0
 40
0
 40
0
 40
0
 40
0
 40
1
 40
1
 40
1
 40
1
 10
503.036272
 20
342.565068
 30
0.0
 10
503.359374
 20
342.433003
 30
0.0
 10
503.667786
 20
342.271590
 30
0.0
 10
503.961509
 20
342.080830
 30
0.0
  0
SPLINE
  5
215
100
AcDbEntity
  8
Ebene_1
 62
7
100
AcDbSpline
 70
8
 71
3
 72
8
 73
4
 74
0
 40
0
 40
0
 40
0
 40
0
 40
1
 40
1
 40
1
 40
1
 10
503.961509
 20
342.080830
 30
0.0
 10
504.255232
 20
341.890070
 30
0.0
 10
504.548954
 20
341.669962
 30
0.0
 10
504.842677
 20
341.420506
 30
0.0
  0
LWPOLYLINE
  5
216
100
AcDbEntity
  8
Ebene_1
 62
7
100
AcDbPolyline
 90
2
 70
0
 10
496.383430
 20
338.140918
 30
0.0
 10
496.383430
 20
338.184900
 30
0.0
  0
SPLINE
  5
217
100
AcDbEntity
  8
Ebene_1
 62
7
100
AcDbSpline
 70
8
 71
3
 72
8
 73
4
 74
0
 40
0
 40
0
 40
0
 40
0
 40
1
 40
1
 40
1
 40
1
 10
506.979521
 20
343.995769
 30
0.0
 10
506.582995
 20
344.333275
 30
0.0
 10
506.171780
 20
344.634092
 30
0.0
 10
505.745875
 20
344.898222
 30
0.0
  0
SPLINE
  5
218
100
AcDbEntity
  8
Ebene_1
 62
7
100
AcDbSpline
 70
8
 71
3
 72
8
 73
4
 74
0
 40
0
 40
0
 40
0
 40
0
 40
1
 40
1
 40
1
 40
1
 10
505.745875
 20
344.898222
 30
0.0
 10
505.319977
 20
345.162351
 30
0.0
 10
504.864706
 20
345.382459
 30
0.0
 10
504.380064
 20
345.558545
 30
0.0
  0
SPLINE
  5
219
100
AcDbEntity
  8
Ebene_1
 62
7
100
AcDbSpline
 70
8
 71
3
 72
8
 73
4
 74
0
 40
0
 40
0
 40
0
 40
0
 40
1
 40
1
 40
1
 40
1
 10
504.380064
 20
345.558545
 30
0.0
 10
503.895421
 20
345.734632
 30
0.0
 10
503.366717
 20
345.866697
 30
0.0
 10
502.793951
 20
345.954740
 30
0.0
  0
SPLINE
  5
21a
100
AcDbEntity
  8
Ebene_1
 62
7
100
AcDbSpline
 70
8
 71
3
 72
8
 73
4
 74
0
 40
0
 40
0
 40
0
 40
0
 40
1
 40
1
 40
1
 40
1
 10
502.793951
 20
345.954740
 30
0.0
 10
502.235877
 20
346.057457
 30
0.0
 10
501.611716
 20
346.108815
 30
0.0
 10
500.921468
 20
346.108815
 30
0.0
  0
SPLINE
  5
21b
100
AcDbEntity
  8
Ebene_1
 62
7
100
AcDbSpline
 70
8
 71
3
 72
8
 73
4
 74
0
 40
0
 40
0
 40
0
 40
0
 40
1
 40
1
 40
1
 40
1
 10
500.921468
 20
346.108815
 30
0.0
 10
499.746570
 20
346.108815
 30
0.0
 10
498.667135
 20
345.896044
 30
0.0
 10
497.683164
 20
345.470502
 30
0.0
  0
SPLINE
  5
21c
100
AcDbEntity
  8
Ebene_1
 62
7
100
AcDbSpline
 70
8
 71
3
 72
8
 73
4
 74
0
 40
0
 40
0
 40
0
 40
0
 40
1
 40
1
 40
1
 40
1
 10
497.683164
 20
345.470502
 30
0.0
 10
496.699186
 20
345.059634
 30
0.0
 10
495.847386
 20
344.487350
 30
0.0
 10
495.127765
 20
343.753650
 30
0.0
  0
SPLINE
  5
21d
100
AcDbEntity
  8
Ebene_1
 62
7
100
AcDbSpline
 70
8
 71
3
 72
8
 73
4
 74
0
 40
0
 40
0
 40
0
 40
0
 40
1
 40
1
 40
1
 40
1
 10
495.127765
 20
343.753650
 30
0.0
 10
494.408138
 20
343.034631
 30
0.0
 10
493.842718
 20
342.190881
 30
0.0
 10
493.431506
 20
341.222399
 30
0.0
  0
SPLINE
  5
21e
100
AcDbEntity
  8
Ebene_1
 62
7
100
AcDbSpline
 70
8
 71
3
 72
8
 73
4
 74
0
 40
0
 40
0
 40
0
 40
0
 40
1
 40
1
 40
1
 40
1
 10
493.431506
 20
341.222399
 30
0.0
 10
493.034980
 20
340.268598
 30
0.0
 10
492.836717
 20
339.241424
 30
0.0
 10
492.836717
 20
338.140878
 30
0.0
  0
LWPOLYLINE
  5
21f
100
AcDbEntity
  8
Ebene_1
 62
7
100
AcDbPolyline
 90
2
 70
0
 10
504.842677
 20
341.420506
 30
0.0
 10
506.979521
 20
343.995769
 30
0.0
  0
SPLINE
  5
220
100
AcDbEntity
  8
Ebene_1
 62
7
100
AcDbSpline
 70
8
 71
3
 72
8
 73
4
 74
0
 40
0
 40
0
 40
0
 40
0
 40
1
 40
1
 40
1
 40
1
 10
492.836717
 20
338.096897
 30
0.0
 10
492.836717
 20
336.952335
 30
0.0
 10
493.034980
 20
335.895814
 30
0.0
 10
493.431506
 20
334.927332
 30
0.0
  0
SPLINE
  5
221
100
AcDbEntity
  8
Ebene_1
 62
7
100
AcDbSpline
 70
8
 71
3
 72
8
 73
4
 74
0
 40
0
 40
0
 40
0
 40
0
 40
1
 40
1
 40
1
 40
1
 10
493.431506
 20
334.927332
 30
0.0
 10
493.828032
 20
333.958857
 30
0.0
 10
494.378765
 20
333.122447
 30
0.0
 10
495.083707
 20
332.418102
 30
0.0
  0
SPLINE
  5
222
100
AcDbEntity
  8
Ebene_1
 62
7
100
AcDbSpline
 70
8
 71
3
 72
8
 73
4
 74
0
 40
0
 40
0
 40
0
 40
0
 40
1
 40
1
 40
1
 40
1
 10
495.083707
 20
332.418102
 30
0.0
 10
495.803328
 20
331.713750
 30
0.0
 10
496.655127
 20
331.163477
 30
0.0
 10
497.639105
 20
330.767282
 30
0.0
  0
SPLINE
  5
223
100
AcDbEntity
  8
Ebene_1
 62
7
100
AcDbSpline
 70
8
 71
3
 72
8
 73
4
 74
0
 40
0
 40
0
 40
0
 40
0
 40
1
 40
1
 40
1
 40
1
 10
497.639105
 20
330.767282
 30
0.0
 10
498.637763
 20
330.371088
 30
0.0
 10
499.739227
 20
330.172991
 30
0.0
 10
500.943497
 20
330.172991
 30
0.0
  0
SPLINE
  5
224
100
AcDbEntity
  8
Ebene_1
 62
7
100
AcDbSpline
 70
8
 71
3
 72
8
 73
4
 74
0
 40
0
 40
0
 40
0
 40
0
 40
1
 40
1
 40
1
 40
1
 10
500.943497
 20
330.172991
 30
0.0
 10
502.353366
 20
330.172991
 30
0.0
 10
503.601692
 20
330.407773
 30
0.0
 10
504.688473
 20
330.877336
 30
0.0
  0
SPLINE
  5
225
100
AcDbEntity
  8
Ebene_1
 62
7
100
AcDbSpline
 70
8
 71
3
 72
8
 73
4
 74
0
 40
0
 40
0
 40
0
 40
0
 40
1
 40
1
 40
1
 40
1
 10
504.688473
 20
330.877336
 30
0.0
 10
505.789940
 20
331.361574
 30
0.0
 10
506.737199
 20
331.941195
 30
0.0
 10
507.530251
 20
332.616199
 30
0.0
  0
LWPOLYLINE
  5
226
100
AcDbEntity
  8
Ebene_1
 62
7
100
AcDbPolyline
 90
2
 70
0
 10
492.836717
 20
338.140878
 30
0.0
 10
492.836717
 20
338.096897
 30
0.0
  0
SPLINE
  5
227
100
AcDbEntity
  8
Ebene_1
 62
7
100
AcDbSpline
 70
8
 71
3
 72
8
 73
4
 74
0
 40
0
 40
0
 40
0
 40
0
 40
1
 40
1
 40
1
 40
1
 10
160.583410
 20
203.808062
 30
0.0
 10
124.400020
 20
203.847742
 30
0.0
 10
87.175554
 20
197.468960
 30
0.0
 10
51.934722
 20
185.083620
 30
0.0
  0
SPLINE
  5
228
100
AcDbEntity
  8
Ebene_1
 62
7
100
AcDbSpline
 70
8
 71
3
 72
8
 73
4
 74
0
 40
0
 40
0
 40
0
 40
0
 40
1
 40
1
 40
1
 40
1
 10
51.934722
 20
185.083620
 30
0.0
 10
47.395371
 20
183.488280
 30
0.0
 10
39.650885
 20
180.562870
 30
0.0
 10
39.458480
 20
180.370220
 30
0.0
  0
SPLINE
  5
229
100
AcDbEntity
  8
Ebene_1
 62
7
100
AcDbSpline
 70
8
 71
3
 72
8
 73
4
 74
0
 40
0
 40
0
 40
0
 40
0
 40
1
 40
1
 40
1
 40
1
 10
39.458480
 20
180.370220
 30
0.0
 10
39.270599
 20
180.182320
 30
0.0
 10
40.499642
 20
177.417870
 30
0.0
 10
43.137326
 20
172.095790
 30
0.0
  0
SPLINE
  5
22a
100
AcDbEntity
  8
Ebene_1
 62
7
100
AcDbSpline
 70
8
 71
3
 72
8
 73
4
 74
0
 40
0
 40
0
 40
0
 40
0
 40
1
 40
1
 40
1
 40
1
 10
43.137326
 20
172.095790
 30
0.0
 10
44.547052
 20
169.251190
 30
0.0
 10
45.827371
 20
166.875070
 30
0.0
 10
45.983660
 20
166.814970
 30
0.0
  0
SPLINE
  5
22b
100
AcDbEntity
  8
Ebene_1
 62
7
100
AcDbSpline
 70
8
 71
3
 72
8
 73
4
 74
0
 40
0
 40
0
 40
0
 40
0
 40
1
 40
1
 40
1
 40
1
 10
45.983660
 20
166.814970
 30
0.0
 10
46.139447
 20
166.755270
 30
0.0
 10
47.940624
 20
167.403050
 30
0.0
 10
49.986515
 20
168.254680
 30
0.0
  0
SPLINE
  5
22c
100
AcDbEntity
  8
Ebene_1
 62
7
100
AcDbSpline
 70
8
 71
3
 72
8
 73
4
 74
0
 40
0
 40
0
 40
0
 40
0
 40
1
 40
1
 40
1
 40
1
 10
49.986515
 20
168.254680
 30
0.0
 10
79.681999
 20
180.615990
 30
0.0
 10
110.580940
 20
187.460570
 30
0.0
 10
144.165800
 20
189.116450
 30
0.0
  0
SPLINE
  5
22d
100
AcDbEntity
  8
Ebene_1
 62
7
100
AcDbSpline
 70
8
 71
3
 72
8
 73
4
 74
0
 40
0
 40
0
 40
0
 40
0
 40
1
 40
1
 40
1
 40
1
 10
144.165800
 20
189.116450
 30
0.0
 10
153.857140
 20
189.594270
 30
0.0
 10
173.870810
 20
189.365700
 30
0.0
 10
183.504470
 20
188.666870
 30
0.0
  0
SPLINE
  5
22e
100
AcDbEntity
  8
Ebene_1
 62
7
100
AcDbSpline
 70
8
 71
3
 72
8
 73
4
 74
0
 40
0
 40
0
 40
0
 40
0
 40
1
 40
1
 40
1
 40
1
 10
183.504470
 20
188.666870
 30
0.0
 10
213.489990
 20
186.491810
 30
0.0
 10
243.545550
 20
179.392120
 30
0.0
 10
269.999960
 20
168.235040
 30
0.0
  0
SPLINE
  5
22f
100
AcDbEntity
  8
Ebene_1
 62
7
100
AcDbSpline
 70
8
 71
3
 72
8
 73
4
 74
0
 40
0
 40
0
 40
0
 40
0
 40
1
 40
1
 40
1
 40
1
 10
269.999960
 20
168.235040
 30
0.0
 10
272.131900
 20
167.335900
 30
0.0
 10
273.944560
 20
166.658170
 30
0.0
 10
274.028670
 20
166.728670
 30
0.0
  0
SPLINE
  5
230
100
AcDbEntity
  8
Ebene_1
 62
7
100
AcDbSpline
 70
8
 71
3
 72
8
 73
4
 74
0
 40
0
 40
0
 40
0
 40
0
 40
1
 40
1
 40
1
 40
1
 10
274.028670
 20
166.728670
 30
0.0
 10
274.653980
 20
167.255130
 30
0.0
 10
280.825180
 20
180.138140
 30
0.0
 10
280.572980
 20
180.390370
 30
0.0
  0
SPLINE
  5
231
100
AcDbEntity
  8
Ebene_1
 62
7
100
AcDbSpline
 70
8
 71
3
 72
8
 73
4
 74
0
 40
0
 40
0
 40
0
 40
0
 40
1
 40
1
 40
1
 40
1
 10
280.572980
 20
180.390370
 30
0.0
 10
280.524680
 20
180.438670
 30
0.0
 10
278.604980
 20
181.187970
 30
0.0
 10
276.307070
 20
182.055390
 30
0.0
  0
SPLINE
  5
232
100
AcDbEntity
  8
Ebene_1
 62
7
100
AcDbSpline
 70
8
 71
3
 72
8
 73
4
 74
0
 40
0
 40
0
 40
0
 40
0
 40
1
 40
1
 40
1
 40
1
 10
276.307070
 20
182.055390
 30
0.0
 10
245.442930
 20
193.705780
 30
0.0
 10
215.122840
 20
200.491949
 30
0.0
 10
182.951020
 20
202.950233
 30
0.0
  0
SPLINE
  5
233
100
AcDbEntity
  8
Ebene_1
 62
7
100
AcDbSpline
 70
8
 71
3
 72
8
 73
4
 74
0
 40
0
 40
0
 40
0
 40
0
 40
1
 40
1
 40
1
 40
1
 10
182.951020
 20
202.950233
 30
0.0
 10
175.558030
 20
203.515134
 30
0.0
 10
168.093130
 20
203.799826
 30
0.0
 10
160.583410
 20
203.808062
 30
0.0
  0
LWPOLYLINE
  5
234
100
AcDbEntity
  8
Ebene_1
 62
7
100
AcDbPolyline
 90
1
 70
1
 10
507.530251
 20
332.616199
 30
0.0
  0
LWPOLYLINE
  5
235
100
AcDbEntity
  8
Ebene_1
 62
7
100
AcDbPolyline
 90
1
 70
1
 10
160.583410
 20
203.808062
 30
0.0
  0
SPLINE
  5
236
100
AcDbEntity
  8
Ebene_1
 62
7
100
AcDbSpline
 70
8
 71
3
 72
8
 73
4
 74
0
 40
0
 40
0
 40
0
 40
0
 40
1
 40
1
 40
1
 40
1
 10
132.670900
 20
180.373830
 30
0.0
 10
106.619100
 20
178.770380
 30
0.0
 10
77.589806
 20
171.979010
 30
0.0
 10
55.257015
 20
162.263310
 30
0.0
  0
SPLINE
  5
237
100
AcDbEntity
  8
Ebene_1
 62
7
100
AcDbSpline
 70
8
 71
3
 72
8
 73
4
 74
0
 40
0
 40
0
 40
0
 40
0
 40
1
 40
1
 40
1
 40
1
 10
55.257015
 20
162.263310
 30
0.0
 10
53.307777
 20
161.415310
 30
0.0
 10
51.338959
 20
160.567320
 30
0.0
 10
50.882077
 20
160.378160
 30
0.0
  0
SPLINE
  5
238
100
AcDbEntity
  8
Ebene_1
 62
7
100
AcDbSpline
 70
8
 71
3
 72
8
 73
4
 74
0
 40
0
 40
0
 40
0
 40
0
 40
1
 40
1
 40
1
 40
1
 10
50.882077
 20
160.378160
 30
0.0
 10
50.425274
 20
160.189120
 30
0.0
 10
50.051629
 20
159.956240
 30
0.0
 10
50.051629
 20
159.859840
 30
0.0
  0
SPLINE
  5
239
100
AcDbEntity
  8
Ebene_1
 62
7
100
AcDbSpline
 70
8
 71
3
 72
8
 73
4
 74
0
 40
0
 40
0
 40
0
 40
0
 40
1
 40
1
 40
1
 40
1
 10
50.051629
 20
159.859840
 30
0.0
 10
50.051629
 20
159.763940
 30
0.0
 10
50.642258
 20
158.901760
 30
0.0
 10
51.364227
 20
157.943680
 30
0.0
  0
SPLINE
  5
23a
100
AcDbEntity
  8
Ebene_1
 62
7
100
AcDbSpline
 70
8
 71
3
 72
8
 73
4
 74
0
 40
0
 40
0
 40
0
 40
0
 40
1
 40
1
 40
1
 40
1
 10
51.364227
 20
157.943680
 30
0.0
 10
56.277963
 20
151.422600
 30
0.0
 10
63.501352
 20
145.442460
 30
0.0
 10
72.701946
 20
140.277060
 30
0.0
  0
SPLINE
  5
23b
100
AcDbEntity
  8
Ebene_1
 62
7
100
AcDbSpline
 70
8
 71
3
 72
8
 73
4
 74
0
 40
0
 40
0
 40
0
 40
0
 40
1
 40
1
 40
1
 40
1
 10
72.701946
 20
140.277060
 30
0.0
 10
75.777992
 20
138.550120
 30
0.0
 10
81.917490
 20
135.633000
 30
0.0
 10
82.097221
 20
135.812730
 30
0.0
  0
SPLINE
  5
23c
100
AcDbEntity
  8
Ebene_1
 62
7
100
AcDbSpline
 70
8
 71
3
 72
8
 73
4
 74
0
 40
0
 40
0
 40
0
 40
0
 40
1
 40
1
 40
1
 40
1
 10
82.097221
 20
135.812730
 30
0.0
 10
82.150771
 20
135.866230
 30
0.0
 10
82.391200
 20
136.871400
 30
0.0
 10
82.631044
 20
138.046700
 30
0.0
  0
SPLINE
  5
23d
100
AcDbEntity
  8
Ebene_1
 62
7
100
AcDbSpline
 70
8
 71
3
 72
8
 73
4
 74
0
 40
0
 40
0
 40
0
 40
0
 40
1
 40
1
 40
1
 40
1
 10
82.631044
 20
138.046700
 30
0.0
 10
83.222018
 20
140.939260
 30
0.0
 10
83.787512
 20
142.358980
 30
0.0
 10
85.141490
 20
144.349680
 30
0.0
  0
SPLINE
  5
23e
100
AcDbEntity
  8
Ebene_1
 62
7
100
AcDbSpline
 70
8
 71
3
 72
8
 73
4
 74
0
 40
0
 40
0
 40
0
 40
0
 40
1
 40
1
 40
1
 40
1
 10
85.141490
 20
144.349680
 30
0.0
 10
88.813960
 20
149.749050
 30
0.0
 10
96.412026
 20
152.335850
 30
0.0
 10
111.185380
 20
153.216830
 30
0.0
  0
SPLINE
  5
23f
100
AcDbEntity
  8
Ebene_1
 62
7
100
AcDbSpline
 70
8
 71
3
 72
8
 73
4
 74
0
 40
0
 40
0
 40
0
 40
0
 40
1
 40
1
 40
1
 40
1
 10
111.185380
 20
153.216830
 30
0.0
 10
116.149570
 20
153.513360
 30
0.0
 10
126.025810
 20
153.762850
 30
0.0
 10
126.025810
 20
153.592010
 30
0.0
  0
SPLINE
  5
240
100
AcDbEntity
  8
Ebene_1
 62
7
100
AcDbSpline
 70
8
 71
3
 72
8
 73
4
 74
0
 40
0
 40
0
 40
0
 40
0
 40
1
 40
1
 40
1
 40
1
 10
126.025810
 20
153.592010
 30
0.0
 10
126.025810
 20
153.541310
 30
0.0
 10
132.280190
 20
118.598910
 30
0.0
 10
139.192450
 20
80.000120
 30
0.0
  0
LWPOLYLINE
  5
241
100
AcDbEntity
  8
Ebene_1
 62
7
100
AcDbPolyline
 90
2
 70
0
 10
134.996320
 20
180.516980
 30
0.0
 10
132.670900
 20
180.373830
 30
0.0
  0
SPLINE
  5
242
100
AcDbEntity
  8
Ebene_1
 62
7
100
AcDbSpline
 70
8
 71
3
 72
8
 73
4
 74
0
 40
0
 40
0
 40
0
 40
0
 40
1
 40
1
 40
1
 40
1
 10
180.628160
 20
80.000120
 30
0.0
 10
187.597840
 20
119.083860
 30
0.0
 10
193.739640
 20
153.444320
 30
0.0
 10
193.782400
 20
153.491240
 30
0.0
  0
SPLINE
  5
243
100
AcDbEntity
  8
Ebene_1
 62
7
100
AcDbSpline
 70
8
 71
3
 72
8
 73
4
 74
0
 40
0
 40
0
 40
0
 40
0
 40
1
 40
1
 40
1
 40
1
 10
193.782400
 20
153.491240
 30
0.0
 10
193.962520
 20
153.688870
 30
0.0
 10
208.298520
 20
153.313490
 30
0.0
 10
211.745650
 20
153.020980
 30
0.0
  0
SPLINE
  5
244
100
AcDbEntity
  8
Ebene_1
 62
7
100
AcDbSpline
 70
8
 71
3
 72
8
 73
4
 74
0
 40
0
 40
0
 40
0
 40
0
 40
1
 40
1
 40
1
 40
1
 10
211.745650
 20
153.020980
 30
0.0
 10
227.576650
 20
151.677610
 30
0.0
 10
234.502880
 20
148.068190
 30
0.0
 10
236.846960
 20
139.939610
 30
0.0
  0
SPLINE
  5
245
100
AcDbEntity
  8
Ebene_1
 62
7
100
AcDbSpline
 70
8
 71
3
 72
8
 73
4
 74
0
 40
0
 40
0
 40
0
 40
0
 40
1
 40
1
 40
1
 40
1
 10
236.846960
 20
139.939610
 30
0.0
 10
237.144560
 20
138.907390
 30
0.0
 10
237.459550
 20
137.535730
 30
0.0
 10
237.546650
 20
136.891730
 30
0.0
  0
SPLINE
  5
246
100
AcDbEntity
  8
Ebene_1
 62
7
100
AcDbSpline
 70
8
 71
3
 72
8
 73
4
 74
0
 40
0
 40
0
 40
0
 40
0
 40
1
 40
1
 40
1
 40
1
 10
237.546650
 20
136.891730
 30
0.0
 10
237.690660
 20
135.827600
 30
0.0
 10
237.748290
 20
135.733620
 30
0.0
 10
238.181250
 20
135.859240
 30
0.0
  0
SPLINE
  5
247
100
AcDbEntity
  8
Ebene_1
 62
7
100
AcDbSpline
 70
8
 71
3
 72
8
 73
4
 74
0
 40
0
 40
0
 40
0
 40
0
 40
1
 40
1
 40
1
 40
1
 10
238.181250
 20
135.859240
 30
0.0
 10
239.230320
 20
136.163370
 30
0.0
 10
246.924990
 20
140.025450
 30
0.0
 10
249.249300
 20
141.414460
 30
0.0
  0
SPLINE
  5
248
100
AcDbEntity
  8
Ebene_1
 62
7
100
AcDbSpline
 70
8
 71
3
 72
8
 73
4
 74
0
 40
0
 40
0
 40
0
 40
0
 40
1
 40
1
 40
1
 40
1
 10
249.249300
 20
141.414460
 30
0.0
 10
257.700890
 20
146.465080
 30
0.0
 10
264.525280
 20
152.346590
 30
0.0
 10
268.878580
 20
158.331770
 30
0.0
  0
LWPOLYLINE
  5
249
100
AcDbEntity
  8
Ebene_1
 62
7
100
AcDbPolyline
 90
2
 70
0
 10
139.192450
 20
80.000120
 30
0.0
 10
180.628160
 20
80.000120
 30
0.0
  0
SPLINE
  5
24a
100
AcDbEntity
  8
Ebene_1
 62
7
100
AcDbSpline
 70
8
 71
3
 72
8
 73
4
 74
0
 40
0
 40
0
 40
0
 40
0
 40
1
 40
1
 40
1
 40
1
 10
269.130250
 20
160.315110
 30
0.0
 10
267.271420
 20
161.263370
 30
0.0
 10
260.144390
 20
164.206390
 30
0.0
 10
255.713490
 20
165.855340
 30
0.0
  0
SPLINE
  5
24b
100
AcDbEntity
  8
Ebene_1
 62
7
100
AcDbSpline
 70
8
 71
3
 72
8
 73
4
 74
0
 40
0
 40
0
 40
0
 40
0
 40
1
 40
1
 40
1
 40
1
 10
255.713490
 20
165.855340
 30
0.0
 10
236.938870
 20
172.842470
 30
0.0
 10
216.268250
 20
177.605060
 30
0.0
 10
195.687180
 20
179.685500
 30
0.0
  0
SPLINE
  5
24c
100
AcDbEntity
  8
Ebene_1
 62
7
100
AcDbSpline
 70
8
 71
3
 72
8
 73
4
 74
0
 40
0
 40
0
 40
0
 40
0
 40
1
 40
1
 40
1
 40
1
 10
195.687180
 20
179.685500
 30
0.0
 10
190.806840
 20
180.178900
 30
0.0
 10
185.219740
 20
180.538870
 30
0.0
 10
184.958140
 20
180.377450
 30
0.0
  0
SPLINE
  5
24d
100
AcDbEntity
  8
Ebene_1
 62
7
100
AcDbSpline
 70
8
 71
3
 72
8
 73
4
 74
0
 40
0
 40
0
 40
0
 40
0
 40
1
 40
1
 40
1
 40
1
 10
184.958140
 20
180.377450
 30
0.0
 10
184.832730
 20
180.299950
 30
0.0
 10
179.233430
 20
173.538170
 30
0.0
 10
172.515480
 20
165.351490
 30
0.0
  0
SPLINE
  5
24e
100
AcDbEntity
  8
Ebene_1
 62
7
100
AcDbSpline
 70
8
 71
3
 72
8
 73
4
 74
0
 40
0
 40
0
 40
0
 40
0
 40
1
 40
1
 40
1
 40
1
 10
172.515480
 20
165.351490
 30
0.0
 10
165.797520
 20
157.164880
 30
0.0
 10
160.224870
 20
150.382250
 30
0.0
 10
160.132260
 20
150.280060
 30
0.0
  0
SPLINE
  5
24f
100
AcDbEntity
  8
Ebene_1
 62
7
100
AcDbSpline
 70
8
 71
3
 72
8
 73
4
 74
0
 40
0
 40
0
 40
0
 40
0
 40
1
 40
1
 40
1
 40
1
 10
160.132260
 20
150.280060
 30
0.0
 10
160.039360
 20
150.177660
 30
0.0
 10
154.345670
 20
156.939250
 30
0.0
 10
147.479810
 20
165.305500
 30
0.0
  0
LWPOLYLINE
  5
250
100
AcDbEntity
  8
Ebene_1
 62
7
100
AcDbPolyline
 90
3
 70
0
 10
268.878580
 20
158.331770
 30
0.0
 10
269.998930
 20
159.871730
 30
0.0
 10
269.130250
 20
160.315110
 30
0.0
  0
SPLINE
  5
251
100
AcDbEntity
  8
Ebene_1
 62
7
100
AcDbSpline
 70
8
 71
3
 72
8
 73
4
 74
0
 40
0
 40
0
 40
0
 40
0
 40
1
 40
1
 40
1
 40
1
 10
145.461330
 20
45.000190
 30
0.0
 10
146.127710
 20
41.280280
 30
0.0
 10
146.599730
 20
38.648640
 30
0.0
 10
147.253460
 20
34.999750
 30
0.0
  0
LWPOLYLINE
  5
252
100
AcDbEntity
  8
Ebene_1
 62
7
100
AcDbPolyline
 90
2
 70
0
 10
147.479810
 20
165.305500
 30
0.0
 10
134.996320
 20
180.516980
 30
0.0
  0
SPLINE
  5
253
100
AcDbEntity
  8
Ebene_1
 62
7
100
AcDbSpline
 70
8
 71
3
 72
8
 73
4
 74
0
 40
0
 40
0
 40
0
 40
0
 40
1
 40
1
 40
1
 40
1
 10
172.613670
 20
34.999750
 30
0.0
 10
173.238720
 20
38.510690
 30
0.0
 10
173.759130
 20
41.441420
 30
0.0
 10
174.392880
 20
45.000190
 30
0.0
  0
LWPOLYLINE
  5
254
100
AcDbEntity
  8
Ebene_1
 62
7
100
AcDbPolyline
 90
2
 70
0
 10
147.253460
 20
34.999750
 30
0.0
 10
172.613670
 20
34.999750
 30
0.0
  0
SPLINE
  5
255
100
AcDbEntity
  8
Ebene_1
 62
7
100
AcDbSpline
 70
8
 71
3
 72
8
 73
4
 74
0
 40
0
 40
0
 40
0
 40
0
 40
1
 40
1
 40
1
 40
1
 10
116.944960
 20
194.113520
 30
0.0
 10
117.608001
 20
194.113520
 30
0.0
 10
118.243886
 20
193.850128
 30
0.0
 10
118.712727
 20
193.381287
 30
0.0
  0
SPLINE
  5
256
100
AcDbEntity
  8
Ebene_1
 62
7
100
AcDbSpline
 70
8
 71
3
 72
8
 73
4
 74
0
 40
0
 40
0
 40
0
 40
0
 40
1
 40
1
 40
1
 40
1
 10
118.712727
 20
193.381287
 30
0.0
 10
119.181568
 20
192.912446
 30
0.0
 10
119.444960
 20
192.276561
 30
0.0
 10
119.444960
 20
191.613520
 30
0.0
  0
SPLINE
  5
257
100
AcDbEntity
  8
Ebene_1
 62
7
100
AcDbSpline
 70
8
 71
3
 72
8
 73
4
 74
0
 40
0
 40
0
 40
0
 40
0
 40
1
 40
1
 40
1
 40
1
 10
119.444960
 20
191.613520
 30
0.0
 10
119.444960
 20
190.950479
 30
0.0
 10
119.181568
 20
190.314594
 30
0.0
 10
118.712727
 20
189.845753
 30
0.0
  0
SPLINE
  5
258
100
AcDbEntity
  8
Ebene_1
 62
7
100
AcDbSpline
 70
8
 71
3
 72
8
 73
4
 74
0
 40
0
 40
0
 40
0
 40
0
 40
1
 40
1
 40
1
 40
1
 10
118.712727
 20
189.845753
 30
0.0
 10
118.243886
 20
189.376912
 30
0.0
 10
117.608001
 20
189.113520
 30
0.0
 10
116.944960
 20
189.113520
 30
0.0
  0
SPLINE
  5
259
100
AcDbEntity
  8
Ebene_1
 62
7
100
AcDbSpline
 70
8
 71
3
 72
8
 73
4
 74
0
 40
0
 40
0
 40
0
 40
0
 40
1
 40
1
 40
1
 40
1
 10
116.944960
 20
189.113520
 30
0.0
 10
116.281919
 20
189.113520
 30
0.0
 10
115.646034
 20
189.376912
 30
0.0
 10
115.177193
 20
189.845753
 30
0.0
  0
SPLINE
  5
25a
100
AcDbEntity
  8
Ebene_1
 62
7
100
AcDbSpline
 70
8
 71
3
 72
8
 73
4
 74
0
 40
0
 40
0
 40
0
 40
0
 40
1
 40
1
 40
1
 40
1
 10
115.177193
 20
189.845753
 30
0.0
 10
114.708352
 20
190.314594
 30
0.0
 10
114.444960
 20
190.950479
 30
0.0
 10
114.444960
 20
191.613520
 30
0.0
  0
SPLINE
  5
25b
100
AcDbEntity
  8
Ebene_1
 62
7
100
AcDbSpline
 70
8
 71
3
 72
8
 73
4
 74
0
 40
0
 40
0
 40
0
 40
0
 40
1
 40
1
 40
1
 40
1
 10
114.444960
 20
191.613520
 30
0.0
 10
114.444960
 20
192.276561
 30
0.0
 10
114.708352
 20
192.912446
 30
0.0
 10
115.177193
 20
193.381287
 30
0.0
  0
SPLINE
  5
25c
100
AcDbEntity
  8
Ebene_1
 62
7
100
AcDbSpline
 70
8
 71
3
 72
8
 73
4
 74
0
 40
0
 40
0
 40
0
 40
0
 40
1
 40
1
 40
1
 40
1
 10
115.177193
 20
193.381287
 30
0.0
 10
115.646034
 20
193.850128
 30
0.0
 10
116.281919
 20
194.113520
 30
0.0
 10
116.944960
 20
194.113520
 30
0.0
  0
LWPOLYLINE
  5
25d
100
AcDbEntity
  8
Ebene_1
 62
7
100
AcDbPolyline
 90
2
 70
0
 10
174.392880
 20
45.000190
 30
0.0
 10
145.461330
 20
45.000190
 30
0.0
  0
LWPOLYLINE
  5
25e
100
AcDbEntity
  8
Ebene_1
 62
7
100
AcDbPolyline
 90
1
 70
1
 10
116.944960
 20
194.113520
 30
0.0
  0
SPLINE
  5
25f
100
AcDbEntity
  8
Ebene_1
 62
7
100
AcDbSpline
 70
8
 71
3
 72
8
 73
4
 74
0
 40
0
 40
0
 40
0
 40
0
 40
1
 40
1
 40
1
 40
1
 10
20.000000
 20
56.760750
 30
0.0
 10
20.000000
 20
37.466180
 30
0.0
 10
35.619600
 20
21.825520
 30
0.0
 10
54.888100
 20
21.825520
 30
0.0
  0
LWPOLYLINE
  5
260
100
AcDbEntity
  8
Ebene_1
 62
7
100
AcDbPolyline
 90
4
 70
1
 10
10.000000
 20
10.000000
 30
0.0
 10
10.000000
 20
229.600013
 30
0.0
 10
309.599960
 20
229.600013
 30
0.0
 10
309.599960
 20
10.000000
 30
0.0
  0
SPLINE
  5
261
100
AcDbEntity
  8
Ebene_1
 62
7
100
AcDbSpline
 70
8
 71
3
 72
8
 73
4
 74
0
 40
0
 40
0
 40
0
 40
0
 40
1
 40
1
 40
1
 40
1
 10
264.733960
 20
21.825520
 30
0.0
 10
284.002550
 20
21.825520
 30
0.0
 10
299.622070
 20
37.466170
 30
0.0
 10
299.622070
 20
56.760750
 30
0.0
  0
LWPOLYLINE
  5
262
100
AcDbEntity
  8
Ebene_1
 62
7
100
AcDbPolyline
 90
2
 70
0
 10
54.888100
 20
21.825520
 30
0.0
 10
264.733960
 20
21.825520
 30
0.0
  0
SPLINE
  5
263
100
AcDbEntity
  8
Ebene_1
 62
7
100
AcDbSpline
 70
8
 71
3
 72
8
 73
4
 74
0
 40
0
 40
0
 40
0
 40
0
 40
1
 40
1
 40
1
 40
1
 10
299.622070
 20
182.839250
 30
0.0
 10
299.622070
 20
202.133820
 30
0.0
 10
284.002550
 20
217.774473
 30
0.0
 10
264.733960
 20
217.774473
 30
0.0
  0
LWPOLYLINE
  5
264
100
AcDbEntity
  8
Ebene_1
 62
7
100
AcDbPolyline
 90
2
 70
0
 10
299.622070
 20
56.760750
 30
0.0
 10
299.622070
 20
182.839250
 30
0.0
  0
SPLINE
  5
265
100
AcDbEntity
  8
Ebene_1
 62
7
100
AcDbSpline
 70
8
 71
3
 72
8
 73
4
 74
0
 40
0
 40
0
 40
0
 40
0
 40
1
 40
1
 40
1
 40
1
 10
54.888100
 20
217.774473
 30
0.0
 10
35.619600
 20
217.774473
 30
0.0
 10
20.000000
 20
202.133820
 30
0.0
 10
20.000000
 20
182.839250
 30
0.0
  0
LWPOLYLINE
  5
266
100
AcDbEntity
  8
Ebene_1
 62
7
100
AcDbPolyline
 90
2
 70
0
 10
264.733960
 20
217.774473
 30
0.0
 10
54.888100
 20
217.774473
 30
0.0
  0
LWPOLYLINE
  5
267
100
AcDbEntity
  8
Ebene_1
 62
7
100
AcDbPolyline
 90
2
 70
0
 10
20.000000
 20
182.839250
 30
0.0
 10
20.000000
 20
56.760750
 30
0.0
  0
SPLINE
  5
268
100
AcDbEntity
  8
Ebene_1
 62
7
100
AcDbSpline
 70
8
 71
3
 72
8
 73
4
 74
0
 40
0
 40
0
 40
0
 40
0
 40
1
 40
1
 40
1
 40
1
 10
26.820100
 20
182.839250
 30
0.0
 10
26.820100
 20
198.468530
 30
0.0
 10
39.279900
 20
210.945203
 30
0.0
 10
54.888100
 20
210.945203
 30
0.0
  0
LWPOLYLINE
  5
269
100
AcDbEntity
  8
Ebene_1
 62
7
100
AcDbPolyline
 90
2
 70
0
 10
26.820100
 20
56.760750
 30
0.0
 10
26.820100
 20
182.839250
 30
0.0
  0
SPLINE
  5
26a
100
AcDbEntity
  8
Ebene_1
 62
7
100
AcDbSpline
 70
8
 71
3
 72
8
 73
4
 74
0
 40
0
 40
0
 40
0
 40
0
 40
1
 40
1
 40
1
 40
1
 10
264.733960
 20
210.945203
 30
0.0
 10
280.342170
 20
210.945203
 30
0.0
 10
292.801960
 20
198.468530
 30
0.0
 10
292.801960
 20
182.839250
 30
0.0
  0
LWPOLYLINE
  5
26b
100
AcDbEntity
  8
Ebene_1
 62
7
100
AcDbPolyline
 90
2
 70
0
 10
54.888100
 20
210.945203
 30
0.0
 10
264.733960
 20
210.945203
 30
0.0
  0
SPLINE
  5
26c
100
AcDbEntity
  8
Ebene_1
 62
7
100
AcDbSpline
 70
8
 71
3
 72
8
 73
4
 74
0
 40
0
 40
0
 40
0
 40
0
 40
1
 40
1
 40
1
 40
1
 10
292.801960
 20
56.760750
 30
0.0
 10
292.801960
 20
41.131470
 30
0.0
 10
280.342170
 20
28.654790
 30
0.0
 10
264.733960
 20
28.654790
 30
0.0
  0
LWPOLYLINE
  5
26d
100
AcDbEntity
  8
Ebene_1
 62
7
100
AcDbPolyline
 90
2
 70
0
 10
292.801960
 20
182.839250
 30
0.0
 10
292.801960
 20
56.760750
 30
0.0
  0
SPLINE
  5
26e
100
AcDbEntity
  8
Ebene_1
 62
7
100
AcDbSpline
 70
8
 71
3
 72
8
 73
4
 74
0
 40
0
 40
0
 40
0
 40
0
 40
1
 40
1
 40
1
 40
1
 10
54.888100
 20
28.654790
 30
0.0
 10
39.279900
 20
28.654790
 30
0.0
 10
26.820100
 20
41.131470
 30
0.0
 10
26.820100
 20
56.760750
 30
0.0
  0
LWPOLYLINE
  5
26f
100
AcDbEntity
  8
Ebene_1
 62
7
100
AcDbPolyline
 90
2
 70
0
 10
264.733960
 20
28.654790
 30
0.0
 10
54.888100
 20
28.654790
 30
0.0
  0
SPLINE
  5
270
100
AcDbEntity
  8
Ebene_1
 62
7
100
AcDbSpline
 70
8
 71
3
 72
8
 73
4
 74
0
 40
0
 40
0
 40
0
 40
0
 40
1
 40
1
 40
1
 40
1
 10
277.791670
 20
44.886310
 30
0.0
 10
279.172370
 20
44.886304
 30
0.0
 10
280.291649
 20
43.767030
 30
0.0
 10
280.291660
 20
42.386330
 30
0.0
  0
SPLINE
  5
271
100
AcDbEntity
  8
Ebene_1
 62
7
100
AcDbSpline
 70
8
 71
3
 72
8
 73
4
 74
0
 40
0
 40
0
 40
0
 40
0
 40
1
 40
1
 40
1
 40
1
 10
280.291660
 20
42.386330
 30
0.0
 10
280.291660
 20
41.005622
 30
0.0
 10
279.172378
 20
39.886336
 30
0.0
 10
277.791670
 20
39.886330
 30
0.0
  0
SPLINE
  5
272
100
AcDbEntity
  8
Ebene_1
 62
7
100
AcDbSpline
 70
8
 71
3
 72
8
 73
4
 74
0
 40
0
 40
0
 40
0
 40
0
 40
1
 40
1
 40
1
 40
1
 10
277.791670
 20
39.886330
 30
0.0
 10
277.128629
 20
39.886330
 30
0.0
 10
276.492744
 20
40.149722
 30
0.0
 10
276.023903
 20
40.618563
 30
0.0
  0
SPLINE
  5
273
100
AcDbEntity
  8
Ebene_1
 62
7
100
AcDbSpline
 70
8
 71
3
 72
8
 73
4
 74
0
 40
0
 40
0
 40
0
 40
0
 40
1
 40
1
 40
1
 40
1
 10
276.023903
 20
40.618563
 30
0.0
 10
275.555062
 20
41.087404
 30
0.0
 10
275.291670
 20
41.723289
 30
0.0
 10
275.291670
 20
42.386330
 30
0.0
  0
SPLINE
  5
274
100
AcDbEntity
  8
Ebene_1
 62
7
100
AcDbSpline
 70
8
 71
3
 72
8
 73
4
 74
0
 40
0
 40
0
 40
0
 40
0
 40
1
 40
1
 40
1
 40
1
 10
275.291670
 20
42.386330
 30
0.0
 10
275.291681
 20
43.767034
 30
0.0
 10
276.410966
 20
44.886310
 30
0.0
 10
277.791670
 20
44.886310
 30
0.0
  0
LWPOLYLINE
  5
275
100
AcDbEntity
  8
Ebene_1
 62
7
100
AcDbPolyline
 90
1
 70
1
 10
26.820100
 20
56.760750
 30
0.0
  0
SPLINE
  5
276
100
AcDbEntity
  8
Ebene_1
 62
7
100
AcDbSpline
 70
8
 71
3
 72
8
 73
4
 74
0
 40
0
 40
0
 40
0
 40
0
 40
1
 40
1
 40
1
 40
1
 10
277.499970
 20
199.800000
 30
0.0
 10
278.163029
 20
199.800027
 30
0.0
 10
278.798939
 20
199.536646
 30
0.0
 10
279.267802
 20
199.067802
 30
0.0
  0
SPLINE
  5
277
100
AcDbEntity
  8
Ebene_1
 62
7
100
AcDbSpline
 70
8
 71
3
 72
8
 73
4
 74
0
 40
0
 40
0
 40
0
 40
0
 40
1
 40
1
 40
1
 40
1
 10
279.267802
 20
199.067802
 30
0.0
 10
279.736664
 20
198.598958
 30
0.0
 10
280.000070
 20
197.963059
 30
0.0
 10
280.000070
 20
197.300000
 30
0.0
  0
SPLINE
  5
278
100
AcDbEntity
  8
Ebene_1
 62
7
100
AcDbSpline
 70
8
 71
3
 72
8
 73
4
 74
0
 40
0
 40
0
 40
0
 40
0
 40
1
 40
1
 40
1
 40
1
 10
280.000070
 20
197.300000
 30
0.0
 10
280.000070
 20
196.636941
 30
0.0
 10
279.736664
 20
196.001042
 30
0.0
 10
279.267802
 20
195.532198
 30
0.0
  0
SPLINE
  5
279
100
AcDbEntity
  8
Ebene_1
 62
7
100
AcDbSpline
 70
8
 71
3
 72
8
 73
4
 74
0
 40
0
 40
0
 40
0
 40
0
 40
1
 40
1
 40
1
 40
1
 10
279.267802
 20
195.532198
 30
0.0
 10
278.798939
 20
195.063354
 30
0.0
 10
278.163029
 20
194.799973
 30
0.0
 10
277.499970
 20
194.800000
 30
0.0
  0
SPLINE
  5
27a
100
AcDbEntity
  8
Ebene_1
 62
7
100
AcDbSpline
 70
8
 71
3
 72
8
 73
4
 74
0
 40
0
 40
0
 40
0
 40
0
 40
1
 40
1
 40
1
 40
1
 10
277.499970
 20
194.800000
 30
0.0
 10
276.119289
 20
194.800044
 30
0.0
 10
275.000050
 20
195.919319
 30
0.0
 10
275.000050
 20
197.300000
 30
0.0
  0
SPLINE
  5
27b
100
AcDbEntity
  8
Ebene_1
 62
7
100
AcDbSpline
 70
8
 71
3
 72
8
 73
4
 74
0
 40
0
 40
0
 40
0
 40
0
 40
1
 40
1
 40
1
 40
1
 10
275.000050
 20
197.300000
 30
0.0
 10
275.000050
 20
198.680681
 30
0.0
 10
276.119289
 20
199.799956
 30
0.0
 10
277.499970
 20
199.800000
 30
0.0
  0
LWPOLYLINE
  5
27c
100
AcDbEntity
  8
Ebene_1
 62
7
100
AcDbPolyline
 90
1
 70
1
 10
277.791670
 20
44.886310
 30
0.0
  0
SPLINE
  5
27d
100
AcDbEntity
  8
Ebene_1
 62
7
100
AcDbSpline
 70
8
 71
3
 72
8
 73
4
 74
0
 40
0
 40
0
 40
0
 40
0
 40
1
 40
1
 40
1
 40
1
 10
42.413700
 20
200.177980
 30
0.0
 10
43.076741
 20
200.177980
 30
0.0
 10
43.712626
 20
199.914588
 30
0.0
 10
44.181467
 20
199.445747
 30
0.0
  0
SPLINE
  5
27e
100
AcDbEntity
  8
Ebene_1
 62
7
100
AcDbSpline
 70
8
 71
3
 72
8
 73
4
 74
0
 40
0
 40
0
 40
0
 40
0
 40
1
 40
1
 40
1
 40
1
 10
44.181467
 20
199.445747
 30
0.0
 10
44.650308
 20
198.976906
 30
0.0
 10
44.913700
 20
198.341021
 30
0.0
 10
44.913700
 20
197.677980
 30
0.0
  0
SPLINE
  5
27f
100
AcDbEntity
  8
Ebene_1
 62
7
100
AcDbSpline
 70
8
 71
3
 72
8
 73
4
 74
0
 40
0
 40
0
 40
0
 40
0
 40
1
 40
1
 40
1
 40
1
 10
44.913700
 20
197.677980
 30
0.0
 10
44.913700
 20
197.014939
 30
0.0
 10
44.650308
 20
196.379054
 30
0.0
 10
44.181467
 20
195.910213
 30
0.0
  0
SPLINE
  5
280
100
AcDbEntity
  8
Ebene_1
 62
7
100
AcDbSpline
 70
8
 71
3
 72
8
 73
4
 74
0
 40
0
 40
0
 40
0
 40
0
 40
1
 40
1
 40
1
 40
1
 10
44.181467
 20
195.910213
 30
0.0
 10
43.712626
 20
195.441372
 30
0.0
 10
43.076741
 20
195.177980
 30
0.0
 10
42.413700
 20
195.177980
 30
0.0
  0
SPLINE
  5
281
100
AcDbEntity
  8
Ebene_1
 62
7
100
AcDbSpline
 70
8
 71
3
 72
8
 73
4
 74
0
 40
0
 40
0
 40
0
 40
0
 40
1
 40
1
 40
1
 40
1
 10
42.413700
 20
195.177980
 30
0.0
 10
41.750659
 20
195.177980
 30
0.0
 10
41.114774
 20
195.441372
 30
0.0
 10
40.645933
 20
195.910213
 30
0.0
  0
SPLINE
  5
282
100
AcDbEntity
  8
Ebene_1
 62
7
100
AcDbSpline
 70
8
 71
3
 72
8
 73
4
 74
0
 40
0
 40
0
 40
0
 40
0
 40
1
 40
1
 40
1
 40
1
 10
40.645933
 20
195.910213
 30
0.0
 10
40.177092
 20
196.379054
 30
0.0
 10
39.913700
 20
197.014939
 30
0.0
 10
39.913700
 20
197.677980
 30
0.0
  0
SPLINE
  5
283
100
AcDbEntity
  8
Ebene_1
 62
7
100
AcDbSpline
 70
8
 71
3
 72
8
 73
4
 74
0
 40
0
 40
0
 40
0
 40
0
 40
1
 40
1
 40
1
 40
1
 10
39.913700
 20
197.677980
 30
0.0
 10
39.913700
 20
198.341021
 30
0.0
 10
40.177092
 20
198.976906
 30
0.0
 10
40.645933
 20
199.445747
 30
0.0
  0
SPLINE
  5
284
100
AcDbEntity
  8
Ebene_1
 62
7
100
AcDbSpline
 70
8
 71
3
 72
8
 73
4
 74
0
 40
0
 40
0
 40
0
 40
0
 40
1
 40
1
 40
1
 40
1
 10
40.645933
 20
199.445747
 30
0.0
 10
41.114774
 20
199.914588
 30
0.0
 10
41.750659
 20
200.177980
 30
0.0
 10
42.413700
 20
200.177980
 30
0.0
  0
LWPOLYLINE
  5
285
100
AcDbEntity
  8
Ebene_1
 62
7
100
AcDbPolyline
 90
1
 70
1
 10
277.499970
 20
199.800000
 30
0.0
  0
SPLINE
  5
286
100
AcDbEntity
  8
Ebene_1
 62
7
100
AcDbSpline
 70
8
 71
3
 72
8
 73
4
 74
0
 40
0
 40
0
 40
0
 40
0
 40
1
 40
1
 40
1
 40
1
 10
42.413700
 20
45.177980
 30
0.0
 10
43.076741
 20
45.177980
 30
0.0
 10
43.712626
 20
44.914588
 30
0.0
 10
44.181467
 20
44.445747
 30
0.0
  0
SPLINE
  5
287
100
AcDbEntity
  8
Ebene_1
 62
7
100
AcDbSpline
 70
8
 71
3
 72
8
 73
4
 74
0
 40
0
 40
0
 40
0
 40
0
 40
1
 40
1
 40
1
 40
1
 10
44.181467
 20
44.445747
 30
0.0
 10
44.650308
 20
43.976906
 30
0.0
 10
44.913700
 20
43.341021
 30
0.0
 10
44.913700
 20
42.677980
 30
0.0
  0
SPLINE
  5
288
100
AcDbEntity
  8
Ebene_1
 62
7
100
AcDbSpline
 70
8
 71
3
 72
8
 73
4
 74
0
 40
0
 40
0
 40
0
 40
0
 40
1
 40
1
 40
1
 40
1
 10
44.913700
 20
42.677980
 30
0.0
 10
44.913700
 20
42.014939
 30
0.0
 10
44.650308
 20
41.379054
 30
0.0
 10
44.181467
 20
40.910213
 30
0.0
  0
SPLINE
  5
289
100
AcDbEntity
  8
Ebene_1
 62
7
100
AcDbSpline
 70
8
 71
3
 72
8
 73
4
 74
0
 40
0
 40
0
 40
0
 40
0
 40
1
 40
1
 40
1
 40
1
 10
44.181467
 20
40.910213
 30
0.0
 10
43.712626
 20
40.441372
 30
0.0
 10
43.076741
 20
40.177980
 30
0.0
 10
42.413700
 20
40.177980
 30
0.0
  0
SPLINE
  5
28a
100
AcDbEntity
  8
Ebene_1
 62
7
100
AcDbSpline
 70
8
 71
3
 72
8
 73
4
 74
0
 40
0
 40
0
 40
0
 40
0
 40
1
 40
1
 40
1
 40
1
 10
42.413700
 20
40.177980
 30
0.0
 10
41.750659
 20
40.177980
 30
0.0
 10
41.114774
 20
40.441372
 30
0.0
 10
40.645933
 20
40.910213
 30
0.0
  0
SPLINE
  5
28b
100
AcDbEntity
  8
Ebene_1
 62
7
100
AcDbSpline
 70
8
 71
3
 72
8
 73
4
 74
0
 40
0
 40
0
 40
0
 40
0
 40
1
 40
1
 40
1
 40
1
 10
40.645933
 20
40.910213
 30
0.0
 10
40.177092
 20
41.379054
 30
0.0
 10
39.913700
 20
42.014939
 30
0.0
 10
39.913700
 20
42.677980
 30
0.0
  0
SPLINE
  5
28c
100
AcDbEntity
  8
Ebene_1
 62
7
100
AcDbSpline
 70
8
 71
3
 72
8
 73
4
 74
0
 40
0
 40
0
 40
0
 40
0
 40
1
 40
1
 40
1
 40
1
 10
39.913700
 20
42.677980
 30
0.0
 10
39.913700
 20
43.341021
 30
0.0
 10
40.177092
 20
43.976906
 30
0.0
 10
40.645933
 20
44.445747
 30
0.0
  0
SPLINE
  5
28d
100
AcDbEntity
  8
Ebene_1
 62
7
100
AcDbSpline
 70
8
 71
3
 72
8
 73
4
 74
0
 40
0
 40
0
 40
0
 40
0
 40
1
 40
1
 40
1
 40
1
 10
40.645933
 20
44.445747
 30
0.0
 10
41.114774
 20
44.914588
 30
0.0
 10
41.750659
 20
45.177980
 30
0.0
 10
42.413700
 20
45.177980
 30
0.0
  0
LWPOLYLINE
  5
28e
100
AcDbEntity
  8
Ebene_1
 62
7
100
AcDbPolyline
 90
1
 70
1
 10
42.413700
 20
200.177980
 30
0.0
  0
LWPOLYLINE
  5
28f
100
AcDbEntity
  8
Ebene_1
 62
7
100
AcDbPolyline
 90
1
 70
1
 10
42.413700
 20
45.177980
 30
0.0
  0
SPLINE
  5
290
100
AcDbEntity
  8
Ebene_1
 62
7
100
AcDbSpline
 70
8
 71
3
 72
8
 73
4
 74
0
 40
0
 40
0
 40
0
 40
0
 40
1
 40
1
 40
1
 40
1
 10
51.708071
 20
113.387827
 30
0.0
 10
49.888218
 20
113.387827
 30
0.0
 10
48.354826
 20
114.011297
 30
0.0
 10
47.107896
 20
115.258237
 30
0.0
  0
SPLINE
  5
291
100
AcDbEntity
  8
Ebene_1
 62
7
100
AcDbSpline
 70
8
 71
3
 72
8
 73
4
 74
0
 40
0
 40
0
 40
0
 40
0
 40
1
 40
1
 40
1
 40
1
 10
47.107896
 20
115.258237
 30
0.0
 10
45.860956
 20
116.538878
 30
0.0
 10
45.237486
 20
118.072275
 30
0.0
 10
45.237486
 20
119.858428
 30
0.0
  0
LWPOLYLINE
  5
292
100
AcDbEntity
  8
Ebene_1
 62
7
100
AcDbPolyline
 90
3
 70
0
 10
61.413949
 20
87.505486
 30
0.0
 10
61.413949
 20
113.387827
 30
0.0
 10
51.708071
 20
113.387827
 30
0.0
  0
SPLINE
  5
293
100
AcDbEntity
  8
Ebene_1
 62
7
100
AcDbSpline
 70
8
 71
3
 72
8
 73
4
 74
0
 40
0
 40
0
 40
0
 40
0
 40
1
 40
1
 40
1
 40
1
 10
84.061013
 20
119.858428
 30
0.0
 10
84.061013
 20
118.038574
 30
0.0
 10
83.420692
 20
116.505177
 30
0.0
 10
82.140051
 20
115.258237
 30
0.0
  0
SPLINE
  5
294
100
AcDbEntity
  8
Ebene_1
 62
7
100
AcDbSpline
 70
8
 71
3
 72
8
 73
4
 74
0
 40
0
 40
0
 40
0
 40
0
 40
1
 40
1
 40
1
 40
1
 10
82.140051
 20
115.258237
 30
0.0
 10
80.859421
 20
114.011297
 30
0.0
 10
79.342875
 20
113.387827
 30
0.0
 10
77.590412
 20
113.387827
 30
0.0
  0
LWPOLYLINE
  5
295
100
AcDbEntity
  8
Ebene_1
 62
7
100
AcDbPolyline
 90
2
 70
0
 10
45.237486
 20
119.858428
 30
0.0
 10
84.061013
 20
119.858428
 30
0.0
  0
SPLINE
  5
296
100
AcDbEntity
  8
Ebene_1
 62
7
100
AcDbSpline
 70
8
 71
3
 72
8
 73
4
 74
0
 40
0
 40
0
 40
0
 40
0
 40
1
 40
1
 40
1
 40
1
 10
97.002183
 20
87.505486
 30
0.0
 10
95.182329
 20
87.505486
 30
0.0
 10
93.648938
 20
88.128951
 30
0.0
 10
92.402008
 20
89.375881
 30
0.0
  0
SPLINE
  5
297
100
AcDbEntity
  8
Ebene_1
 62
7
100
AcDbSpline
 70
8
 71
3
 72
8
 73
4
 74
0
 40
0
 40
0
 40
0
 40
0
 40
1
 40
1
 40
1
 40
1
 10
92.402008
 20
89.375881
 30
0.0
 10
91.155058
 20
90.656522
 30
0.0
 10
90.531582
 20
92.189924
 30
0.0
 10
90.531582
 20
93.976087
 30
0.0
  0
LWPOLYLINE
  5
298
100
AcDbEntity
  8
Ebene_1
 62
7
100
AcDbPolyline
 90
4
 70
0
 10
77.590412
 20
113.387827
 30
0.0
 10
67.884534
 20
113.387827
 30
0.0
 10
67.884534
 20
87.505486
 30
0.0
 10
61.413949
 20
87.505486
 30
0.0
  0
SPLINE
  5
299
100
AcDbEntity
  8
Ebene_1
 62
7
100
AcDbSpline
 70
8
 71
3
 72
8
 73
4
 74
0
 40
0
 40
0
 40
0
 40
0
 40
1
 40
1
 40
1
 40
1
 10
129.355124
 20
93.976087
 30
0.0
 10
129.355124
 20
92.156223
 30
0.0
 10
128.714804
 20
90.622821
 30
0.0
 10
127.434163
 20
89.375881
 30
0.0
  0
SPLINE
  5
29a
100
AcDbEntity
  8
Ebene_1
 62
7
100
AcDbSpline
 70
8
 71
3
 72
8
 73
4
 74
0
 40
0
 40
0
 40
0
 40
0
 40
1
 40
1
 40
1
 40
1
 10
127.434163
 20
89.375881
 30
0.0
 10
126.153522
 20
88.128951
 30
0.0
 10
124.636976
 20
87.505486
 30
0.0
 10
122.884524
 20
87.505486
 30
0.0
  0
LWPOLYLINE
  5
29b
100
AcDbEntity
  8
Ebene_1
 62
7
100
AcDbPolyline
 90
2
 70
0
 10
90.531582
 20
93.976087
 30
0.0
 10
129.355124
 20
93.976087
 30
0.0
  0
SPLINE
  5
29c
100
AcDbEntity
  8
Ebene_1
 62
7
100
AcDbSpline
 70
8
 71
3
 72
8
 73
4
 74
0
 40
0
 40
0
 40
0
 40
0
 40
1
 40
1
 40
1
 40
1
 10
97.002183
 20
100.446657
 30
0.0
 10
95.182329
 20
100.446657
 30
0.0
 10
93.648938
 20
101.070127
 30
0.0
 10
92.402008
 20
102.317067
 30
0.0
  0
SPLINE
  5
29d
100
AcDbEntity
  8
Ebene_1
 62
7
100
AcDbSpline
 70
8
 71
3
 72
8
 73
4
 74
0
 40
0
 40
0
 40
0
 40
0
 40
1
 40
1
 40
1
 40
1
 10
92.402008
 20
102.317067
 30
0.0
 10
91.155058
 20
103.597708
 30
0.0
 10
90.531582
 20
105.131104
 30
0.0
 10
90.531582
 20
106.917257
 30
0.0
  0
LWPOLYLINE
  5
29e
100
AcDbEntity
  8
Ebene_1
 62
7
100
AcDbPolyline
 90
2
 70
0
 10
122.884524
 20
87.505486
 30
0.0
 10
97.002183
 20
87.505486
 30
0.0
  0
SPLINE
  5
29f
100
AcDbEntity
  8
Ebene_1
 62
7
100
AcDbSpline
 70
8
 71
3
 72
8
 73
4
 74
0
 40
0
 40
0
 40
0
 40
0
 40
1
 40
1
 40
1
 40
1
 10
129.355124
 20
106.917257
 30
0.0
 10
129.355124
 20
105.097393
 30
0.0
 10
128.714804
 20
103.563996
 30
0.0
 10
127.434163
 20
102.317067
 30
0.0
  0
SPLINE
  5
2a0
100
AcDbEntity
  8
Ebene_1
 62
7
100
AcDbSpline
 70
8
 71
3
 72
8
 73
4
 74
0
 40
0
 40
0
 40
0
 40
0
 40
1
 40
1
 40
1
 40
1
 10
127.434163
 20
102.317067
 30
0.0
 10
126.153522
 20
101.070127
 30
0.0
 10
124.636976
 20
100.446657
 30
0.0
 10
122.884524
 20
100.446657
 30
0.0
  0
LWPOLYLINE
  5
2a1
100
AcDbEntity
  8
Ebene_1
 62
7
100
AcDbPolyline
 90
2
 70
0
 10
90.531582
 20
106.917257
 30
0.0
 10
129.355124
 20
106.917257
 30
0.0
  0
SPLINE
  5
2a2
100
AcDbEntity
  8
Ebene_1
 62
7
100
AcDbSpline
 70
8
 71
3
 72
8
 73
4
 74
0
 40
0
 40
0
 40
0
 40
0
 40
1
 40
1
 40
1
 40
1
 10
97.002183
 20
113.387827
 30
0.0
 10
95.182329
 20
113.387827
 30
0.0
 10
93.648938
 20
114.011297
 30
0.0
 10
92.402008
 20
115.258237
 30
0.0
  0
SPLINE
  5
2a3
100
AcDbEntity
  8
Ebene_1
 62
7
100
AcDbSpline
 70
8
 71
3
 72
8
 73
4
 74
0
 40
0
 40
0
 40
0
 40
0
 40
1
 40
1
 40
1
 40
1
 10
92.402008
 20
115.258237
 30
0.0
 10
91.155058
 20
116.538878
 30
0.0
 10
90.531582
 20
118.072275
 30
0.0
 10
90.531582
 20
119.858428
 30
0.0
  0
LWPOLYLINE
  5
2a4
100
AcDbEntity
  8
Ebene_1
 62
7
100
AcDbPolyline
 90
2
 70
0
 10
122.884524
 20
100.446657
 30
0.0
 10
97.002183
 20
100.446657
 30
0.0
  0
SPLINE
  5
2a5
100
AcDbEntity
  8
Ebene_1
 62
7
100
AcDbSpline
 70
8
 71
3
 72
8
 73
4
 74
0
 40
0
 40
0
 40
0
 40
0
 40
1
 40
1
 40
1
 40
1
 10
129.355124
 20
119.858428
 30
0.0
 10
129.355124
 20
118.038574
 30
0.0
 10
128.714804
 20
116.505177
 30
0.0
 10
127.434163
 20
115.258237
 30
0.0
  0
SPLINE
  5
2a6
100
AcDbEntity
  8
Ebene_1
 62
7
100
AcDbSpline
 70
8
 71
3
 72
8
 73
4
 74
0
 40
0
 40
0
 40
0
 40
0
 40
1
 40
1
 40
1
 40
1
 10
127.434163
 20
115.258237
 30
0.0
 10
126.153522
 20
114.011297
 30
0.0
 10
124.636976
 20
113.387827
 30
0.0
 10
122.884524
 20
113.387827
 30
0.0
  0
LWPOLYLINE
  5
2a7
100
AcDbEntity
  8
Ebene_1
 62
7
100
AcDbPolyline
 90
2
 70
0
 10
90.531582
 20
119.858428
 30
0.0
 10
129.355124
 20
119.858428
 30
0.0
  0
SPLINE
  5
2a8
100
AcDbEntity
  8
Ebene_1
 62
7
100
AcDbSpline
 70
8
 71
3
 72
8
 73
4
 74
0
 40
0
 40
0
 40
0
 40
0
 40
1
 40
1
 40
1
 40
1
 10
140.588245
 20
87.505486
 30
0.0
 10
140.588245
 20
89.291639
 30
0.0
 10
141.211715
 20
90.808186
 30
0.0
 10
142.458655
 20
92.055126
 30
0.0
  0
SPLINE
  5
2a9
100
AcDbEntity
  8
Ebene_1
 62
7
100
AcDbSpline
 70
8
 71
3
 72
8
 73
4
 74
0
 40
0
 40
0
 40
0
 40
0
 40
1
 40
1
 40
1
 40
1
 10
142.458655
 20
92.055126
 30
0.0
 10
143.739296
 20
93.335767
 30
0.0
 10
145.272692
 20
93.976087
 30
0.0
 10
147.058845
 20
93.976087
 30
0.0
  0
LWPOLYLINE
  5
2aa
100
AcDbEntity
  8
Ebene_1
 62
7
100
AcDbPolyline
 90
2
 70
0
 10
122.884524
 20
113.387827
 30
0.0
 10
97.002183
 20
113.387827
 30
0.0
  0
SPLINE
  5
2ab
100
AcDbEntity
  8
Ebene_1
 62
7
100
AcDbSpline
 70
8
 71
3
 72
8
 73
4
 74
0
 40
0
 40
0
 40
0
 40
0
 40
1
 40
1
 40
1
 40
1
 10
179.411787
 20
119.858428
 30
0.0
 10
179.411787
 20
118.038574
 30
0.0
 10
178.771466
 20
116.505177
 30
0.0
 10
177.490825
 20
115.258237
 30
0.0
  0
SPLINE
  5
2ac
100
AcDbEntity
  8
Ebene_1
 62
7
100
AcDbSpline
 70
8
 71
3
 72
8
 73
4
 74
0
 40
0
 40
0
 40
0
 40
0
 40
1
 40
1
 40
1
 40
1
 10
177.490825
 20
115.258237
 30
0.0
 10
176.210184
 20
114.011297
 30
0.0
 10
174.693643
 20
113.387827
 30
0.0
 10
172.941202
 20
113.387827
 30
0.0
  0
LWPOLYLINE
  5
2ad
100
AcDbEntity
  8
Ebene_1
 62
7
100
AcDbPolyline
 90
6
 70
0
 10
147.058845
 20
93.976087
 30
0.0
 10
172.941202
 20
93.976087
 30
0.0
 10
172.941202
 20
100.446657
 30
0.0
 10
140.588245
 20
100.446657
 30
0.0
 10
140.588245
 20
119.858428
 30
0.0
 10
179.411787
 20
119.858428
 30
0.0
  0
LWPOLYLINE
  5
2ae
100
AcDbEntity
  8
Ebene_1
 62
7
100
AcDbPolyline
 90
6
 70
0
 10
172.941202
 20
113.387827
 30
0.0
 10
147.058845
 20
113.387827
 30
0.0
 10
147.058845
 20
106.917257
 30
0.0
 10
179.411787
 20
106.917257
 30
0.0
 10
179.411787
 20
87.505486
 30
0.0
 10
140.588245
 20
87.505486
 30
0.0
  0
SPLINE
  5
2af
100
AcDbEntity
  8
Ebene_1
 62
7
100
AcDbSpline
 70
8
 71
3
 72
8
 73
4
 74
0
 40
0
 40
0
 40
0
 40
0
 40
1
 40
1
 40
1
 40
1
 10
229.468387
 20
93.976087
 30
0.0
 10
229.468387
 20
92.156223
 30
0.0
 10
228.828066
 20
90.622821
 30
0.0
 10
227.547425
 20
89.375881
 30
0.0
  0
SPLINE
  5
2b0
100
AcDbEntity
  8
Ebene_1
 62
7
100
AcDbSpline
 70
8
 71
3
 72
8
 73
4
 74
0
 40
0
 40
0
 40
0
 40
0
 40
1
 40
1
 40
1
 40
1
 10
227.547425
 20
89.375881
 30
0.0
 10
226.266795
 20
88.128951
 30
0.0
 10
224.750253
 20
87.505486
 30
0.0
 10
222.997801
 20
87.505486
 30
0.0
  0
LWPOLYLINE
  5
2b1
100
AcDbEntity
  8
Ebene_1
 62
7
100
AcDbPolyline
 90
5
 70
0
 10
190.644860
 20
87.505486
 30
0.0
 10
190.644860
 20
119.858428
 30
0.0
 10
197.115445
 20
119.858428
 30
0.0
 10
197.115445
 20
93.976087
 30
0.0
 10
229.468387
 20
93.976087
 30
0.0
  0
LWPOLYLINE
  5
2b2
100
AcDbEntity
  8
Ebene_1
 62
7
100
AcDbPolyline
 90
2
 70
0
 10
222.997801
 20
87.505486
 30
0.0
 10
190.644860
 20
87.505486
 30
0.0
  0
SPLINE
  5
2b3
100
AcDbEntity
  8
Ebene_1
 62
7
100
AcDbSpline
 70
8
 71
3
 72
8
 73
4
 74
0
 40
0
 40
0
 40
0
 40
0
 40
1
 40
1
 40
1
 40
1
 10
242.409557
 20
113.387827
 30
0.0
 10
240.589703
 20
113.387827
 30
0.0
 10
239.056311
 20
114.011297
 30
0.0
 10
237.809382
 20
115.258237
 30
0.0
  0
SPLINE
  5
2b4
100
AcDbEntity
  8
Ebene_1
 62
7
100
AcDbSpline
 70
8
 71
3
 72
8
 73
4
 74
0
 40
0
 40
0
 40
0
 40
0
 40
1
 40
1
 40
1
 40
1
 10
237.809382
 20
115.258237
 30
0.0
 10
236.562442
 20
116.538878
 30
0.0
 10
235.938972
 20
118.072275
 30
0.0
 10
235.938972
 20
119.858428
 30
0.0
  0
LWPOLYLINE
  5
2b5
100
AcDbEntity
  8
Ebene_1
 62
7
100
AcDbPolyline
 90
8
 70
1
 10
235.938972
 20
87.505486
 30
0.0
 10
235.938972
 20
106.917257
 30
0.0
 10
274.762498
 20
106.917257
 30
0.0
 10
274.762498
 20
87.505486
 30
0.0
 10
268.291913
 20
87.505486
 30
0.0
 10
268.291913
 20
100.446657
 30
0.0
 10
242.409557
 20
100.446657
 30
0.0
 10
242.409557
 20
87.505486
 30
0.0
  0
SPLINE
  5
2b6
100
AcDbEntity
  8
Ebene_1
 62
7
100
AcDbSpline
 70
8
 71
3
 72
8
 73
4
 74
0
 40
0
 40
0
 40
0
 40
0
 40
1
 40
1
 40
1
 40
1
 10
274.762498
 20
119.858428
 30
0.0
 10
274.762498
 20
118.038574
 30
0.0
 10
274.122178
 20
116.505177
 30
0.0
 10
272.841537
 20
115.258237
 30
0.0
  0
SPLINE
  5
2b7
100
AcDbEntity
  8
Ebene_1
 62
7
100
AcDbSpline
 70
8
 71
3
 72
8
 73
4
 74
0
 40
0
 40
0
 40
0
 40
0
 40
1
 40
1
 40
1
 40
1
 10
272.841537
 20
115.258237
 30
0.0
 10
271.560906
 20
114.011297
 30
0.0
 10
270.044365
 20
113.387827
 30
0.0
 10
268.291913
 20
113.387827
 30
0.0
  0
LWPOLYLINE
  5
2b8
100
AcDbEntity
  8
Ebene_1
 62
7
100
AcDbPolyline
 90
2
 70
0
 10
235.938972
 20
119.858428
 30
0.0
 10
274.762498
 20
119.858428
 30
0.0
  0
LWPOLYLINE
  5
2b9
100
AcDbEntity
  8
Ebene_1
 62
7
100
AcDbPolyline
 90
2
 70
0
 10
268.291913
 20
113.387827
 30
0.0
 10
242.409557
 20
113.387827
 30
0.0
  0
LWPOLYLINE
  5
2ba
100
AcDbEntity
  8
Ebene_1
 62
7
100
AcDbPolyline
 90
4
 70
1
 10
40.000000
 20
75.000000
 30
0.0
 10
280.000010
 20
75.000000
 30
0.0
 10
280.000010
 20
70.000000
 30
0.0
 10
40.000000
 20
70.000000
 30
0.0
  0
LWPOLYLINE
  5
2bb
100
AcDbEntity
  8
Ebene_1
 62
7
100
AcDbPolyline
 90
12
 70
1
 10
51.917805
 20
50.615103
 30
0.0
 10
51.917805
 20
53.630592
 30
0.0
 10
43.546676
 20
53.630592
 30
0.0
 10
43.546676
 20
56.866188
 30
0.0
 10
50.816340
 20
56.866188
 30
0.0
 10
50.816340
 20
59.881677
 30
0.0
 10
43.546676
 20
59.881677
 30
0.0
 10
43.546676
 20
63.007220
 30
0.0
 10
51.807658
 20
63.007220
 30
0.0
 10
51.807658
 20
66.022708
 30
0.0
 10
40.176196
 20
66.022708
 30
0.0
 10
40.176196
 20
50.615103
 30
0.0
  0
LWPOLYLINE
  5
2bc
100
AcDbEntity
  8
Ebene_1
 62
7
100
AcDbPolyline
 90
12
 70
1
 10
68.526164
 20
50.615103
 30
0.0
 10
63.151018
 20
58.494987
 30
0.0
 10
68.305871
 20
66.022708
 30
0.0
 10
64.450747
 20
66.022708
 30
0.0
 10
61.190413
 20
61.026238
 30
0.0
 10
57.952108
 20
66.022708
 30
0.0
 10
53.986837
 20
66.022708
 30
0.0
 10
59.141689
 20
58.450966
 30
0.0
 10
53.766544
 20
50.615103
 30
0.0
 10
57.621668
 20
50.615103
 30
0.0
 10
61.102295
 20
55.897714
 30
0.0
 10
64.560893
 20
50.615103
 30
0.0
  0
SPLINE
  5
2bd
100
AcDbEntity
  8
Ebene_1
 62
7
100
AcDbSpline
 70
8
 71
3
 72
8
 73
4
 74
0
 40
0
 40
0
 40
0
 40
0
 40
1
 40
1
 40
1
 40
1
 10
82.457964
 20
55.281401
 30
0.0
 10
81.855830
 20
54.723795
 30
0.0
 10
81.246354
 20
54.283579
 30
0.0
 10
80.629534
 20
53.960754
 30
0.0
  0
SPLINE
  5
2be
100
AcDbEntity
  8
Ebene_1
 62
7
100
AcDbSpline
 70
8
 71
3
 72
8
 73
4
 74
0
 40
0
 40
0
 40
0
 40
0
 40
1
 40
1
 40
1
 40
1
 10
80.629534
 20
53.960754
 30
0.0
 10
80.027400
 20
53.637929
 30
0.0
 10
79.285747
 20
53.476516
 30
0.0
 10
78.404575
 20
53.476516
 30
0.0
  0
SPLINE
  5
2bf
100
AcDbEntity
  8
Ebene_1
 62
7
100
AcDbSpline
 70
8
 71
3
 72
8
 73
4
 74
0
 40
0
 40
0
 40
0
 40
0
 40
1
 40
1
 40
1
 40
1
 10
78.404575
 20
53.476516
 30
0.0
 10
77.743697
 20
53.476516
 30
0.0
 10
77.134220
 20
53.601244
 30
0.0
 10
76.576145
 20
53.850700
 30
0.0
  0
SPLINE
  5
2c0
100
AcDbEntity
  8
Ebene_1
 62
7
100
AcDbSpline
 70
8
 71
3
 72
8
 73
4
 74
0
 40
0
 40
0
 40
0
 40
0
 40
1
 40
1
 40
1
 40
1
 10
76.576145
 20
53.850700
 30
0.0
 10
76.032756
 20
54.114829
 30
0.0
 10
75.562798
 20
54.467002
 30
0.0
 10
75.166271
 20
54.907218
 30
0.0
  0
SPLINE
  5
2c1
100
AcDbEntity
  8
Ebene_1
 62
7
100
AcDbSpline
 70
8
 71
3
 72
8
 73
4
 74
0
 40
0
 40
0
 40
0
 40
0
 40
1
 40
1
 40
1
 40
1
 10
75.166271
 20
54.907218
 30
0.0
 10
74.784430
 20
55.347440
 30
0.0
 10
74.483363
 20
55.861029
 30
0.0
 10
74.263071
 20
56.447983
 30
0.0
  0
SPLINE
  5
2c2
100
AcDbEntity
  8
Ebene_1
 62
7
100
AcDbSpline
 70
8
 71
3
 72
8
 73
4
 74
0
 40
0
 40
0
 40
0
 40
0
 40
1
 40
1
 40
1
 40
1
 10
74.263071
 20
56.447983
 30
0.0
 10
74.042778
 20
57.034938
 30
0.0
 10
73.932631
 20
57.658577
 30
0.0
 10
73.932631
 20
58.318901
 30
0.0
  0
LWPOLYLINE
  5
2c3
100
AcDbEntity
  8
Ebene_1
 62
7
100
AcDbPolyline
 90
2
 70
0
 10
84.616834
 20
53.102333
 30
0.0
 10
82.457964
 20
55.281401
 30
0.0
  0
SPLINE
  5
2c4
100
AcDbEntity
  8
Ebene_1
 62
7
100
AcDbSpline
 70
8
 71
3
 72
8
 73
4
 74
0
 40
0
 40
0
 40
0
 40
0
 40
1
 40
1
 40
1
 40
1
 10
73.932631
 20
58.362882
 30
0.0
 10
73.932631
 20
59.023213
 30
0.0
 10
74.042778
 20
59.639518
 30
0.0
 10
74.263071
 20
60.211799
 30
0.0
  0
SPLINE
  5
2c5
100
AcDbEntity
  8
Ebene_1
 62
7
100
AcDbSpline
 70
8
 71
3
 72
8
 73
4
 74
0
 40
0
 40
0
 40
0
 40
0
 40
1
 40
1
 40
1
 40
1
 10
74.263071
 20
60.211799
 30
0.0
 10
74.483363
 20
60.798754
 30
0.0
 10
74.791773
 20
61.312342
 30
0.0
 10
75.188300
 20
61.752565
 30
0.0
  0
SPLINE
  5
2c6
100
AcDbEntity
  8
Ebene_1
 62
7
100
AcDbSpline
 70
8
 71
3
 72
8
 73
4
 74
0
 40
0
 40
0
 40
0
 40
0
 40
1
 40
1
 40
1
 40
1
 10
75.188300
 20
61.752565
 30
0.0
 10
75.584828
 20
62.192780
 30
0.0
 10
76.054785
 20
62.537616
 30
0.0
 10
76.598174
 20
62.787072
 30
0.0
  0
SPLINE
  5
2c7
100
AcDbEntity
  8
Ebene_1
 62
7
100
AcDbSpline
 70
8
 71
3
 72
8
 73
4
 74
0
 40
0
 40
0
 40
0
 40
0
 40
1
 40
1
 40
1
 40
1
 10
76.598174
 20
62.787072
 30
0.0
 10
77.156249
 20
63.036528
 30
0.0
 10
77.758383
 20
63.161255
 30
0.0
 10
78.404575
 20
63.161255
 30
0.0
  0
SPLINE
  5
2c8
100
AcDbEntity
  8
Ebene_1
 62
7
100
AcDbSpline
 70
8
 71
3
 72
8
 73
4
 74
0
 40
0
 40
0
 40
0
 40
0
 40
1
 40
1
 40
1
 40
1
 10
78.404575
 20
63.161255
 30
0.0
 10
79.182943
 20
63.161255
 30
0.0
 10
79.880537
 20
63.007180
 30
0.0
 10
80.497357
 20
62.699029
 30
0.0
  0
SPLINE
  5
2c9
100
AcDbEntity
  8
Ebene_1
 62
7
100
AcDbSpline
 70
8
 71
3
 72
8
 73
4
 74
0
 40
0
 40
0
 40
0
 40
0
 40
1
 40
1
 40
1
 40
1
 10
80.497357
 20
62.699029
 30
0.0
 10
81.128864
 20
62.390878
 30
0.0
 10
81.745684
 20
61.965332
 30
0.0
 10
82.347818
 20
61.422393
 30
0.0
  0
LWPOLYLINE
  5
2ca
100
AcDbEntity
  8
Ebene_1
 62
7
100
AcDbPolyline
 90
2
 70
0
 10
73.932631
 20
58.318901
 30
0.0
 10
73.932631
 20
58.362882
 30
0.0
  0
SPLINE
  5
2cb
100
AcDbEntity
  8
Ebene_1
 62
7
100
AcDbSpline
 70
8
 71
3
 72
8
 73
4
 74
0
 40
0
 40
0
 40
0
 40
0
 40
1
 40
1
 40
1
 40
1
 10
84.506688
 20
63.909622
 30
0.0
 10
84.154219
 20
64.261795
 30
0.0
 10
83.772378
 20
64.584623
 30
0.0
 10
83.361165
 20
64.878107
 30
0.0
  0
SPLINE
  5
2cc
100
AcDbEntity
  8
Ebene_1
 62
7
100
AcDbSpline
 70
8
 71
3
 72
8
 73
4
 74
0
 40
0
 40
0
 40
0
 40
0
 40
1
 40
1
 40
1
 40
1
 10
83.361165
 20
64.878107
 30
0.0
 10
82.949951
 20
65.171584
 30
0.0
 10
82.502023
 20
65.421040
 30
0.0
 10
82.017378
 20
65.626474
 30
0.0
  0
SPLINE
  5
2cd
100
AcDbEntity
  8
Ebene_1
 62
7
100
AcDbSpline
 70
8
 71
3
 72
8
 73
4
 74
0
 40
0
 40
0
 40
0
 40
0
 40
1
 40
1
 40
1
 40
1
 10
82.017378
 20
65.626474
 30
0.0
 10
81.532734
 20
65.831908
 30
0.0
 10
80.989345
 20
65.993321
 30
0.0
 10
80.387211
 20
66.110712
 30
0.0
  0
SPLINE
  5
2ce
100
AcDbEntity
  8
Ebene_1
 62
7
100
AcDbSpline
 70
8
 71
3
 72
8
 73
4
 74
0
 40
0
 40
0
 40
0
 40
0
 40
1
 40
1
 40
1
 40
1
 10
80.387211
 20
66.110712
 30
0.0
 10
79.799764
 20
66.228103
 30
0.0
 10
79.146228
 20
66.286798
 30
0.0
 10
78.426606
 20
66.286798
 30
0.0
  0
SPLINE
  5
2cf
100
AcDbEntity
  8
Ebene_1
 62
7
100
AcDbSpline
 70
8
 71
3
 72
8
 73
4
 74
0
 40
0
 40
0
 40
0
 40
0
 40
1
 40
1
 40
1
 40
1
 10
78.426606
 20
66.286798
 30
0.0
 10
77.237024
 20
66.286798
 30
0.0
 10
76.150246
 20
66.074027
 30
0.0
 10
75.166271
 20
65.648485
 30
0.0
  0
SPLINE
  5
2d0
100
AcDbEntity
  8
Ebene_1
 62
7
100
AcDbSpline
 70
8
 71
3
 72
8
 73
4
 74
0
 40
0
 40
0
 40
0
 40
0
 40
1
 40
1
 40
1
 40
1
 10
75.166271
 20
65.648485
 30
0.0
 10
74.182297
 20
65.237617
 30
0.0
 10
73.337840
 20
64.665333
 30
0.0
 10
72.632903
 20
63.931633
 30
0.0
  0
SPLINE
  5
2d1
100
AcDbEntity
  8
Ebene_1
 62
7
100
AcDbSpline
 70
8
 71
3
 72
8
 73
4
 74
0
 40
0
 40
0
 40
0
 40
0
 40
1
 40
1
 40
1
 40
1
 10
72.632903
 20
63.931633
 30
0.0
 10
71.927966
 20
63.212614
 30
0.0
 10
71.377234
 20
62.368863
 30
0.0
 10
70.980707
 20
61.400382
 30
0.0
  0
SPLINE
  5
2d2
100
AcDbEntity
  8
Ebene_1
 62
7
100
AcDbSpline
 70
8
 71
3
 72
8
 73
4
 74
0
 40
0
 40
0
 40
0
 40
0
 40
1
 40
1
 40
1
 40
1
 10
70.980707
 20
61.400382
 30
0.0
 10
70.584180
 20
60.446581
 30
0.0
 10
70.385916
 20
59.419407
 30
0.0
 10
70.385916
 20
58.318861
 30
0.0
  0
LWPOLYLINE
  5
2d3
100
AcDbEntity
  8
Ebene_1
 62
7
100
AcDbPolyline
 90
2
 70
0
 10
82.347818
 20
61.422393
 30
0.0
 10
84.506688
 20
63.909622
 30
0.0
  0
SPLINE
  5
2d4
100
AcDbEntity
  8
Ebene_1
 62
7
100
AcDbSpline
 70
8
 71
3
 72
8
 73
4
 74
0
 40
0
 40
0
 40
0
 40
0
 40
1
 40
1
 40
1
 40
1
 10
70.385916
 20
58.274879
 30
0.0
 10
70.385916
 20
57.174340
 30
0.0
 10
70.584180
 20
56.139829
 30
0.0
 10
70.980707
 20
55.171347
 30
0.0
  0
SPLINE
  5
2d5
100
AcDbEntity
  8
Ebene_1
 62
7
100
AcDbSpline
 70
8
 71
3
 72
8
 73
4
 74
0
 40
0
 40
0
 40
0
 40
0
 40
1
 40
1
 40
1
 40
1
 10
70.980707
 20
55.171347
 30
0.0
 10
71.377234
 20
54.202872
 30
0.0
 10
71.927966
 20
53.359125
 30
0.0
 10
72.632903
 20
52.640106
 30
0.0
  0
SPLINE
  5
2d6
100
AcDbEntity
  8
Ebene_1
 62
7
100
AcDbSpline
 70
8
 71
3
 72
8
 73
4
 74
0
 40
0
 40
0
 40
0
 40
0
 40
1
 40
1
 40
1
 40
1
 10
72.632903
 20
52.640106
 30
0.0
 10
73.337840
 20
51.935754
 30
0.0
 10
74.174953
 20
51.378144
 30
0.0
 10
75.144242
 20
50.967276
 30
0.0
  0
SPLINE
  5
2d7
100
AcDbEntity
  8
Ebene_1
 62
7
100
AcDbSpline
 70
8
 71
3
 72
8
 73
4
 74
0
 40
0
 40
0
 40
0
 40
0
 40
1
 40
1
 40
1
 40
1
 10
75.144242
 20
50.967276
 30
0.0
 10
76.113530
 20
50.556408
 30
0.0
 10
77.163592
 20
50.350974
 30
0.0
 10
78.294429
 20
50.350974
 30
0.0
  0
SPLINE
  5
2d8
100
AcDbEntity
  8
Ebene_1
 62
7
100
AcDbSpline
 70
8
 71
3
 72
8
 73
4
 74
0
 40
0
 40
0
 40
0
 40
0
 40
1
 40
1
 40
1
 40
1
 10
78.294429
 20
50.350974
 30
0.0
 10
79.043425
 20
50.350974
 30
0.0
 10
79.718990
 20
50.417006
 30
0.0
 10
80.321124
 20
50.549071
 30
0.0
  0
SPLINE
  5
2d9
100
AcDbEntity
  8
Ebene_1
 62
7
100
AcDbSpline
 70
8
 71
3
 72
8
 73
4
 74
0
 40
0
 40
0
 40
0
 40
0
 40
1
 40
1
 40
1
 40
1
 10
80.321124
 20
50.549071
 30
0.0
 10
80.923257
 20
50.666462
 30
0.0
 10
81.473989
 20
50.842548
 30
0.0
 10
81.973319
 20
51.077330
 30
0.0
  0
SPLINE
  5
2da
100
AcDbEntity
  8
Ebene_1
 62
7
100
AcDbSpline
 70
8
 71
3
 72
8
 73
4
 74
0
 40
0
 40
0
 40
0
 40
0
 40
1
 40
1
 40
1
 40
1
 10
81.973319
 20
51.077330
 30
0.0
 10
82.487336
 20
51.326786
 30
0.0
 10
82.957295
 20
51.620263
 30
0.0
 10
83.383194
 20
51.957762
 30
0.0
  0
SPLINE
  5
2db
100
AcDbEntity
  8
Ebene_1
 62
7
100
AcDbSpline
 70
8
 71
3
 72
8
 73
4
 74
0
 40
0
 40
0
 40
0
 40
0
 40
1
 40
1
 40
1
 40
1
 10
83.383194
 20
51.957762
 30
0.0
 10
83.809093
 20
52.295260
 30
0.0
 10
84.220307
 20
52.676784
 30
0.0
 10
84.616834
 20
53.102333
 30
0.0
  0
LWPOLYLINE
  5
2dc
100
AcDbEntity
  8
Ebene_1
 62
7
100
AcDbPolyline
 90
2
 70
0
 10
70.385916
 20
58.318861
 30
0.0
 10
70.385916
 20
58.274879
 30
0.0
  0
LWPOLYLINE
  5
2dd
100
AcDbEntity
  8
Ebene_1
 62
7
100
AcDbPolyline
 90
1
 70
1
 10
84.616834
 20
53.102333
 30
0.0
  0
LWPOLYLINE
  5
2de
100
AcDbEntity
  8
Ebene_1
 62
7
100
AcDbPolyline
 90
6
 70
1
 10
98.413361
 20
50.615103
 30
0.0
 10
98.413361
 20
53.696624
 30
0.0
 10
90.725142
 20
53.696624
 30
0.0
 10
90.725142
 20
66.022708
 30
0.0
 10
87.332632
 20
66.022708
 30
0.0
 10
87.332632
 20
50.615103
 30
0.0
  0
SPLINE
  5
2df
100
AcDbEntity
  8
Ebene_1
 62
7
100
AcDbSpline
 70
8
 71
3
 72
8
 73
4
 74
0
 40
0
 40
0
 40
0
 40
0
 40
1
 40
1
 40
1
 40
1
 10
110.774887
 20
57.196350
 30
0.0
 10
110.774887
 20
55.963739
 30
0.0
 10
110.481164
 20
55.039283
 30
0.0
 10
109.893719
 20
54.422980
 30
0.0
  0
SPLINE
  5
2e0
100
AcDbEntity
  8
Ebene_1
 62
7
100
AcDbSpline
 70
8
 71
3
 72
8
 73
4
 74
0
 40
0
 40
0
 40
0
 40
0
 40
1
 40
1
 40
1
 40
1
 10
109.893719
 20
54.422980
 30
0.0
 10
109.306273
 20
53.806678
 30
0.0
 10
108.491189
 20
53.498527
 30
0.0
 10
107.448466
 20
53.498527
 30
0.0
  0
SPLINE
  5
2e1
100
AcDbEntity
  8
Ebene_1
 62
7
100
AcDbSpline
 70
8
 71
3
 72
8
 73
4
 74
0
 40
0
 40
0
 40
0
 40
0
 40
1
 40
1
 40
1
 40
1
 10
107.448466
 20
53.498527
 30
0.0
 10
106.405750
 20
53.498527
 30
0.0
 10
105.590667
 20
53.814015
 30
0.0
 10
105.003216
 20
54.444991
 30
0.0
  0
SPLINE
  5
2e2
100
AcDbEntity
  8
Ebene_1
 62
7
100
AcDbSpline
 70
8
 71
3
 72
8
 73
4
 74
0
 40
0
 40
0
 40
0
 40
0
 40
1
 40
1
 40
1
 40
1
 10
105.003216
 20
54.444991
 30
0.0
 10
104.415768
 20
55.090641
 30
0.0
 10
104.122044
 20
56.044446
 30
0.0
 10
104.122044
 20
57.306404
 30
0.0
  0
LWPOLYLINE
  5
2e3
100
AcDbEntity
  8
Ebene_1
 62
7
100
AcDbPolyline
 90
4
 70
0
 10
114.167396
 20
57.328415
 30
0.0
 10
114.167396
 20
66.022708
 30
0.0
 10
110.774887
 20
66.022708
 30
0.0
 10
110.774887
 20
57.196350
 30
0.0
  0
SPLINE
  5
2e4
100
AcDbEntity
  8
Ebene_1
 62
7
100
AcDbSpline
 70
8
 71
3
 72
8
 73
4
 74
0
 40
0
 40
0
 40
0
 40
0
 40
1
 40
1
 40
1
 40
1
 10
100.729535
 20
57.218361
 30
0.0
 10
100.729535
 20
54.943906
 30
0.0
 10
101.324326
 20
53.234394
 30
0.0
 10
102.513907
 20
52.089826
 30
0.0
  0
SPLINE
  5
2e5
100
AcDbEntity
  8
Ebene_1
 62
7
100
AcDbSpline
 70
8
 71
3
 72
8
 73
4
 74
0
 40
0
 40
0
 40
0
 40
0
 40
1
 40
1
 40
1
 40
1
 10
102.513907
 20
52.089826
 30
0.0
 10
103.703488
 20
50.945265
 30
0.0
 10
105.333655
 20
50.372984
 30
0.0
 10
107.404408
 20
50.372984
 30
0.0
  0
SPLINE
  5
2e6
100
AcDbEntity
  8
Ebene_1
 62
7
100
AcDbSpline
 70
8
 71
3
 72
8
 73
4
 74
0
 40
0
 40
0
 40
0
 40
0
 40
1
 40
1
 40
1
 40
1
 10
107.404408
 20
50.372984
 30
0.0
 10
108.432444
 20
50.372984
 30
0.0
 10
109.365018
 20
50.512386
 30
0.0
 10
110.202128
 20
50.791190
 30
0.0
  0
SPLINE
  5
2e7
100
AcDbEntity
  8
Ebene_1
 62
7
100
AcDbSpline
 70
8
 71
3
 72
8
 73
4
 74
0
 40
0
 40
0
 40
0
 40
0
 40
1
 40
1
 40
1
 40
1
 10
110.202128
 20
50.791190
 30
0.0
 10
111.039238
 20
51.084667
 30
0.0
 10
111.751519
 20
51.517546
 30
0.0
 10
112.338971
 20
52.089826
 30
0.0
  0
SPLINE
  5
2e8
100
AcDbEntity
  8
Ebene_1
 62
7
100
AcDbSpline
 70
8
 71
3
 72
8
 73
4
 74
0
 40
0
 40
0
 40
0
 40
0
 40
1
 40
1
 40
1
 40
1
 10
112.338971
 20
52.089826
 30
0.0
 10
112.926417
 20
52.676788
 30
0.0
 10
113.374344
 20
53.403147
 30
0.0
 10
113.682753
 20
54.268905
 30
0.0
  0
SPLINE
  5
2e9
100
AcDbEntity
  8
Ebene_1
 62
7
100
AcDbSpline
 70
8
 71
3
 72
8
 73
4
 74
0
 40
0
 40
0
 40
0
 40
0
 40
1
 40
1
 40
1
 40
1
 10
113.682753
 20
54.268905
 30
0.0
 10
114.005848
 20
55.134669
 30
0.0
 10
114.167396
 20
56.154506
 30
0.0
 10
114.167396
 20
57.328415
 30
0.0
  0
LWPOLYLINE
  5
2ea
100
AcDbEntity
  8
Ebene_1
 62
7
100
AcDbPolyline
 90
4
 70
0
 10
104.122044
 20
57.306404
 30
0.0
 10
104.122044
 20
66.022708
 30
0.0
 10
100.729535
 20
66.022708
 30
0.0
 10
100.729535
 20
57.218361
 30
0.0
  0
LWPOLYLINE
  5
2eb
100
AcDbEntity
  8
Ebene_1
 62
7
100
AcDbPolyline
 90
1
 70
1
 10
114.167396
 20
57.328415
 30
0.0
  0
SPLINE
  5
2ec
100
AcDbEntity
  8
Ebene_1
 62
7
100
AcDbSpline
 70
8
 71
3
 72
8
 73
4
 74
0
 40
0
 40
0
 40
0
 40
0
 40
1
 40
1
 40
1
 40
1
 10
128.769721
 20
55.215329
 30
0.0
 10
128.769721
 20
55.890333
 30
0.0
 10
128.659575
 20
56.469954
 30
0.0
 10
128.439283
 20
56.954192
 30
0.0
  0
SPLINE
  5
2ed
100
AcDbEntity
  8
Ebene_1
 62
7
100
AcDbSpline
 70
8
 71
3
 72
8
 73
4
 74
0
 40
0
 40
0
 40
0
 40
0
 40
1
 40
1
 40
1
 40
1
 10
128.439283
 20
56.954192
 30
0.0
 10
128.233670
 20
57.438429
 30
0.0
 10
127.917915
 20
57.856634
 30
0.0
 10
127.492017
 20
58.208807
 30
0.0
  0
SPLINE
  5
2ee
100
AcDbEntity
  8
Ebene_1
 62
7
100
AcDbSpline
 70
8
 71
3
 72
8
 73
4
 74
0
 40
0
 40
0
 40
0
 40
0
 40
1
 40
1
 40
1
 40
1
 10
127.492017
 20
58.208807
 30
0.0
 10
127.080805
 20
58.575660
 30
0.0
 10
126.566790
 20
58.883815
 30
0.0
 10
125.949972
 20
59.133270
 30
0.0
  0
SPLINE
  5
2ef
100
AcDbEntity
  8
Ebene_1
 62
7
100
AcDbSpline
 70
8
 71
3
 72
8
 73
4
 74
0
 40
0
 40
0
 40
0
 40
0
 40
1
 40
1
 40
1
 40
1
 10
125.949972
 20
59.133270
 30
0.0
 10
125.347834
 20
59.397400
 30
0.0
 10
124.657582
 20
59.632181
 30
0.0
 10
123.879216
 20
59.837616
 30
0.0
  0
SPLINE
  5
2f0
100
AcDbEntity
  8
Ebene_1
 62
7
100
AcDbSpline
 70
8
 71
3
 72
8
 73
4
 74
0
 40
0
 40
0
 40
0
 40
0
 40
1
 40
1
 40
1
 40
1
 10
123.879216
 20
59.837616
 30
0.0
 10
123.218340
 20
60.013702
 30
0.0
 10
122.667610
 20
60.167777
 30
0.0
 10
122.227026
 20
60.299842
 30
0.0
  0
SPLINE
  5
2f1
100
AcDbEntity
  8
Ebene_1
 62
7
100
AcDbSpline
 70
8
 71
3
 72
8
 73
4
 74
0
 40
0
 40
0
 40
0
 40
0
 40
1
 40
1
 40
1
 40
1
 10
122.227026
 20
60.299842
 30
0.0
 10
121.801121
 20
60.431907
 30
0.0
 10
121.463336
 20
60.571309
 30
0.0
 10
121.213672
 20
60.718047
 30
0.0
  0
SPLINE
  5
2f2
100
AcDbEntity
  8
Ebene_1
 62
7
100
AcDbSpline
 70
8
 71
3
 72
8
 73
4
 74
0
 40
0
 40
0
 40
0
 40
0
 40
1
 40
1
 40
1
 40
1
 10
121.213672
 20
60.718047
 30
0.0
 10
120.964007
 20
60.864786
 30
0.0
 10
120.787774
 20
61.026198
 30
0.0
 10
120.684971
 20
61.202285
 30
0.0
  0
SPLINE
  5
2f3
100
AcDbEntity
  8
Ebene_1
 62
7
100
AcDbSpline
 70
8
 71
3
 72
8
 73
4
 74
0
 40
0
 40
0
 40
0
 40
0
 40
1
 40
1
 40
1
 40
1
 10
120.684971
 20
61.202285
 30
0.0
 10
120.596854
 20
61.393045
 30
0.0
 10
120.552796
 20
61.613156
 30
0.0
 10
120.552796
 20
61.862619
 30
0.0
  0
LWPOLYLINE
  5
2f4
100
AcDbEntity
  8
Ebene_1
 62
7
100
AcDbPolyline
 90
2
 70
0
 10
128.769721
 20
55.171347
 30
0.0
 10
128.769721
 20
55.215329
 30
0.0
  0
SPLINE
  5
2f5
100
AcDbEntity
  8
Ebene_1
 62
7
100
AcDbSpline
 70
8
 71
3
 72
8
 73
4
 74
0
 40
0
 40
0
 40
0
 40
0
 40
1
 40
1
 40
1
 40
1
 10
120.552796
 20
61.906600
 30
0.0
 10
120.552796
 20
62.288121
 30
0.0
 10
120.714343
 20
62.603609
 30
0.0
 10
121.037438
 20
62.853064
 30
0.0
  0
SPLINE
  5
2f6
100
AcDbEntity
  8
Ebene_1
 62
7
100
AcDbSpline
 70
8
 71
3
 72
8
 73
4
 74
0
 40
0
 40
0
 40
0
 40
0
 40
1
 40
1
 40
1
 40
1
 10
121.037438
 20
62.853064
 30
0.0
 10
121.375219
 20
63.117194
 30
0.0
 10
121.874552
 20
63.249259
 30
0.0
 10
122.535435
 20
63.249259
 30
0.0
  0
SPLINE
  5
2f7
100
AcDbEntity
  8
Ebene_1
 62
7
100
AcDbSpline
 70
8
 71
3
 72
8
 73
4
 74
0
 40
0
 40
0
 40
0
 40
0
 40
1
 40
1
 40
1
 40
1
 10
122.535435
 20
63.249259
 30
0.0
 10
123.196311
 20
63.249259
 30
0.0
 10
123.857187
 20
63.109857
 30
0.0
 10
124.518064
 20
62.831053
 30
0.0
  0
SPLINE
  5
2f8
100
AcDbEntity
  8
Ebene_1
 62
7
100
AcDbSpline
 70
8
 71
3
 72
8
 73
4
 74
0
 40
0
 40
0
 40
0
 40
0
 40
1
 40
1
 40
1
 40
1
 10
124.518064
 20
62.831053
 30
0.0
 10
125.178947
 20
62.566924
 30
0.0
 10
125.854512
 20
62.200077
 30
0.0
 10
126.544761
 20
61.730514
 30
0.0
  0
LWPOLYLINE
  5
2f9
100
AcDbEntity
  8
Ebene_1
 62
7
100
AcDbPolyline
 90
2
 70
0
 10
120.552796
 20
61.862619
 30
0.0
 10
120.552796
 20
61.906600
 30
0.0
  0
SPLINE
  5
2fa
100
AcDbEntity
  8
Ebene_1
 62
7
100
AcDbSpline
 70
8
 71
3
 72
8
 73
4
 74
0
 40
0
 40
0
 40
0
 40
0
 40
1
 40
1
 40
1
 40
1
 10
128.307108
 20
64.283766
 30
0.0
 10
127.514050
 20
64.914749
 30
0.0
 10
126.640221
 20
65.398989
 30
0.0
 10
125.685622
 20
65.736488
 30
0.0
  0
SPLINE
  5
2fb
100
AcDbEntity
  8
Ebene_1
 62
7
100
AcDbSpline
 70
8
 71
3
 72
8
 73
4
 74
0
 40
0
 40
0
 40
0
 40
0
 40
1
 40
1
 40
1
 40
1
 10
125.685622
 20
65.736488
 30
0.0
 10
124.745702
 20
66.073987
 30
0.0
 10
123.710326
 20
66.242736
 30
0.0
 10
122.579493
 20
66.242736
 30
0.0
  0
SPLINE
  5
2fc
100
AcDbEntity
  8
Ebene_1
 62
7
100
AcDbSpline
 70
8
 71
3
 72
8
 73
4
 74
0
 40
0
 40
0
 40
0
 40
0
 40
1
 40
1
 40
1
 40
1
 10
122.579493
 20
66.242736
 30
0.0
 10
121.786435
 20
66.242736
 30
0.0
 10
121.059467
 20
66.132682
 30
0.0
 10
120.398591
 20
65.912575
 30
0.0
  0
SPLINE
  5
2fd
100
AcDbEntity
  8
Ebene_1
 62
7
100
AcDbSpline
 70
8
 71
3
 72
8
 73
4
 74
0
 40
0
 40
0
 40
0
 40
0
 40
1
 40
1
 40
1
 40
1
 10
120.398591
 20
65.912575
 30
0.0
 10
119.737715
 20
65.692467
 30
0.0
 10
119.164952
 20
65.376979
 30
0.0
 10
118.680303
 20
64.966110
 30
0.0
  0
SPLINE
  5
2fe
100
AcDbEntity
  8
Ebene_1
 62
7
100
AcDbSpline
 70
8
 71
3
 72
8
 73
4
 74
0
 40
0
 40
0
 40
0
 40
0
 40
1
 40
1
 40
1
 40
1
 10
118.680303
 20
64.966110
 30
0.0
 10
118.210346
 20
64.555236
 30
0.0
 10
117.843193
 20
64.063658
 30
0.0
 10
117.578842
 20
63.491377
 30
0.0
  0
SPLINE
  5
2ff
100
AcDbEntity
  8
Ebene_1
 62
7
100
AcDbSpline
 70
8
 71
3
 72
8
 73
4
 74
0
 40
0
 40
0
 40
0
 40
0
 40
1
 40
1
 40
1
 40
1
 10
117.578842
 20
63.491377
 30
0.0
 10
117.314492
 20
62.933770
 30
0.0
 10
117.182316
 20
62.302794
 30
0.0
 10
117.182316
 20
61.598449
 30
0.0
  0
LWPOLYLINE
  5
300
100
AcDbEntity
  8
Ebene_1
 62
7
100
AcDbPolyline
 90
2
 70
0
 10
126.544761
 20
61.730514
 30
0.0
 10
128.307108
 20
64.283766
 30
0.0
  0
SPLINE
  5
301
100
AcDbEntity
  8
Ebene_1
 62
7
100
AcDbSpline
 70
8
 71
3
 72
8
 73
4
 74
0
 40
0
 40
0
 40
0
 40
0
 40
1
 40
1
 40
1
 40
1
 10
117.182316
 20
61.554467
 30
0.0
 10
117.182316
 20
60.791427
 30
0.0
 10
117.299805
 20
60.153114
 30
0.0
 10
117.534784
 20
59.639528
 30
0.0
  0
SPLINE
  5
302
100
AcDbEntity
  8
Ebene_1
 62
7
100
AcDbSpline
 70
8
 71
3
 72
8
 73
4
 74
0
 40
0
 40
0
 40
0
 40
0
 40
1
 40
1
 40
1
 40
1
 10
117.534784
 20
59.639528
 30
0.0
 10
117.784448
 20
59.125943
 30
0.0
 10
118.129572
 20
58.693061
 30
0.0
 10
118.570157
 20
58.340882
 30
0.0
  0
SPLINE
  5
303
100
AcDbEntity
  8
Ebene_1
 62
7
100
AcDbSpline
 70
8
 71
3
 72
8
 73
4
 74
0
 40
0
 40
0
 40
0
 40
0
 40
1
 40
1
 40
1
 40
1
 10
118.570157
 20
58.340882
 30
0.0
 10
119.010747
 20
58.003383
 30
0.0
 10
119.546795
 20
57.717242
 30
0.0
 10
120.178299
 20
57.482461
 30
0.0
  0
SPLINE
  5
304
100
AcDbEntity
  8
Ebene_1
 62
7
100
AcDbSpline
 70
8
 71
3
 72
8
 73
4
 74
0
 40
0
 40
0
 40
0
 40
0
 40
1
 40
1
 40
1
 40
1
 10
120.178299
 20
57.482461
 30
0.0
 10
120.809803
 20
57.247679
 30
0.0
 10
121.514741
 20
57.034908
 30
0.0
 10
122.293113
 20
56.844148
 30
0.0
  0
SPLINE
  5
305
100
AcDbEntity
  8
Ebene_1
 62
7
100
AcDbSpline
 70
8
 71
3
 72
8
 73
4
 74
0
 40
0
 40
0
 40
0
 40
0
 40
1
 40
1
 40
1
 40
1
 10
122.293113
 20
56.844148
 30
0.0
 10
122.939303
 20
56.682735
 30
0.0
 10
123.460661
 20
56.528660
 30
0.0
 10
123.857187
 20
56.381921
 30
0.0
  0
SPLINE
  5
306
100
AcDbEntity
  8
Ebene_1
 62
7
100
AcDbSpline
 70
8
 71
3
 72
8
 73
4
 74
0
 40
0
 40
0
 40
0
 40
0
 40
1
 40
1
 40
1
 40
1
 10
123.857187
 20
56.381921
 30
0.0
 10
124.268399
 20
56.235182
 30
0.0
 10
124.584151
 20
56.088444
 30
0.0
 10
124.804443
 20
55.941705
 30
0.0
  0
SPLINE
  5
307
100
AcDbEntity
  8
Ebene_1
 62
7
100
AcDbSpline
 70
8
 71
3
 72
8
 73
4
 74
0
 40
0
 40
0
 40
0
 40
0
 40
1
 40
1
 40
1
 40
1
 10
124.804443
 20
55.941705
 30
0.0
 10
125.039421
 20
55.794967
 30
0.0
 10
125.193629
 20
55.633551
 30
0.0
 10
125.267067
 20
55.457458
 30
0.0
  0
SPLINE
  5
308
100
AcDbEntity
  8
Ebene_1
 62
7
100
AcDbSpline
 70
8
 71
3
 72
8
 73
4
 74
0
 40
0
 40
0
 40
0
 40
0
 40
1
 40
1
 40
1
 40
1
 10
125.267067
 20
55.457458
 30
0.0
 10
125.355184
 20
55.296045
 30
0.0
 10
125.399242
 20
55.105285
 30
0.0
 10
125.399242
 20
54.885177
 30
0.0
  0
LWPOLYLINE
  5
309
100
AcDbEntity
  8
Ebene_1
 62
7
100
AcDbPolyline
 90
2
 70
0
 10
117.182316
 20
61.598449
 30
0.0
 10
117.182316
 20
61.554467
 30
0.0
  0
SPLINE
  5
30a
100
AcDbEntity
  8
Ebene_1
 62
7
100
AcDbSpline
 70
8
 71
3
 72
8
 73
4
 74
0
 40
0
 40
0
 40
0
 40
0
 40
1
 40
1
 40
1
 40
1
 10
125.399242
 20
54.841195
 30
0.0
 10
125.399242
 20
54.386306
 30
0.0
 10
125.200976
 20
54.026796
 30
0.0
 10
124.804443
 20
53.762667
 30
0.0
  0
SPLINE
  5
30b
100
AcDbEntity
  8
Ebene_1
 62
7
100
AcDbSpline
 70
8
 71
3
 72
8
 73
4
 74
0
 40
0
 40
0
 40
0
 40
0
 40
1
 40
1
 40
1
 40
1
 10
124.804443
 20
53.762667
 30
0.0
 10
124.422604
 20
53.513211
 30
0.0
 10
123.879216
 20
53.388483
 30
0.0
 10
123.174282
 20
53.388483
 30
0.0
  0
SPLINE
  5
30c
100
AcDbEntity
  8
Ebene_1
 62
7
100
AcDbSpline
 70
8
 71
3
 72
8
 73
4
 74
0
 40
0
 40
0
 40
0
 40
0
 40
1
 40
1
 40
1
 40
1
 10
123.174282
 20
53.388483
 30
0.0
 10
122.293107
 20
53.388483
 30
0.0
 10
121.478022
 20
53.557233
 30
0.0
 10
120.729029
 20
53.894731
 30
0.0
  0
SPLINE
  5
30d
100
AcDbEntity
  8
Ebene_1
 62
7
100
AcDbSpline
 70
8
 71
3
 72
8
 73
4
 74
0
 40
0
 40
0
 40
0
 40
0
 40
1
 40
1
 40
1
 40
1
 10
120.729029
 20
53.894731
 30
0.0
 10
119.994722
 20
54.232230
 30
0.0
 10
119.275098
 20
54.687120
 30
0.0
 10
118.570157
 20
55.259401
 30
0.0
  0
LWPOLYLINE
  5
30e
100
AcDbEntity
  8
Ebene_1
 62
7
100
AcDbPolyline
 90
2
 70
0
 10
125.399242
 20
54.885177
 30
0.0
 10
125.399242
 20
54.841195
 30
0.0
  0
SPLINE
  5
30f
100
AcDbEntity
  8
Ebene_1
 62
7
100
AcDbSpline
 70
8
 71
3
 72
8
 73
4
 74
0
 40
0
 40
0
 40
0
 40
0
 40
1
 40
1
 40
1
 40
1
 10
116.565498
 20
52.860224
 30
0.0
 10
117.490725
 20
52.023807
 30
0.0
 10
118.518758
 20
51.400165
 30
0.0
 10
119.649598
 20
50.989297
 30
0.0
  0
SPLINE
  5
310
100
AcDbEntity
  8
Ebene_1
 62
7
100
AcDbSpline
 70
8
 71
3
 72
8
 73
4
 74
0
 40
0
 40
0
 40
0
 40
0
 40
1
 40
1
 40
1
 40
1
 10
119.649598
 20
50.989297
 30
0.0
 10
120.780431
 20
50.593102
 30
0.0
 10
121.933296
 20
50.395005
 30
0.0
 10
123.108194
 20
50.395005
 30
0.0
  0
SPLINE
  5
311
100
AcDbEntity
  8
Ebene_1
 62
7
100
AcDbSpline
 70
8
 71
3
 72
8
 73
4
 74
0
 40
0
 40
0
 40
0
 40
0
 40
1
 40
1
 40
1
 40
1
 10
123.108194
 20
50.395005
 30
0.0
 10
123.945304
 20
50.395005
 30
0.0
 10
124.708987
 20
50.497722
 30
0.0
 10
125.399242
 20
50.703156
 30
0.0
  0
SPLINE
  5
312
100
AcDbEntity
  8
Ebene_1
 62
7
100
AcDbSpline
 70
8
 71
3
 72
8
 73
4
 74
0
 40
0
 40
0
 40
0
 40
0
 40
1
 40
1
 40
1
 40
1
 10
125.399242
 20
50.703156
 30
0.0
 10
126.089491
 20
50.923264
 30
0.0
 10
126.684279
 20
51.231415
 30
0.0
 10
127.183608
 20
51.627610
 30
0.0
  0
SPLINE
  5
313
100
AcDbEntity
  8
Ebene_1
 62
7
100
AcDbSpline
 70
8
 71
3
 72
8
 73
4
 74
0
 40
0
 40
0
 40
0
 40
0
 40
1
 40
1
 40
1
 40
1
 10
127.183608
 20
51.627610
 30
0.0
 10
127.682937
 20
52.038478
 30
0.0
 10
128.072123
 20
52.537392
 30
0.0
 10
128.351166
 20
53.124354
 30
0.0
  0
SPLINE
  5
314
100
AcDbEntity
  8
Ebene_1
 62
7
100
AcDbSpline
 70
8
 71
3
 72
8
 73
4
 74
0
 40
0
 40
0
 40
0
 40
0
 40
1
 40
1
 40
1
 40
1
 10
128.351166
 20
53.124354
 30
0.0
 10
128.630203
 20
53.725982
 30
0.0
 10
128.769721
 20
54.408317
 30
0.0
 10
128.769721
 20
55.171357
 30
0.0
  0
LWPOLYLINE
  5
315
100
AcDbEntity
  8
Ebene_1
 62
7
100
AcDbPolyline
 90
2
 70
0
 10
118.570157
 20
55.259401
 30
0.0
 10
116.565498
 20
52.860224
 30
0.0
  0
LWPOLYLINE
  5
316
100
AcDbEntity
  8
Ebene_1
 62
7
100
AcDbPolyline
 90
1
 70
1
 10
128.769721
 20
55.171357
 30
0.0
  0
LWPOLYLINE
  5
317
100
AcDbEntity
  8
Ebene_1
 62
7
100
AcDbPolyline
 90
4
 70
1
 10
135.282124
 20
50.615103
 30
0.0
 10
135.282124
 20
66.022708
 30
0.0
 10
131.889616
 20
66.022708
 30
0.0
 10
131.889616
 20
50.615103
 30
0.0
  0
LWPOLYLINE
  5
318
100
AcDbEntity
  8
Ebene_1
 62
7
100
AcDbPolyline
 90
7
 70
1
 10
153.278669
 20
66.022708
 30
0.0
 10
149.621810
 20
66.022708
 30
0.0
 10
145.590454
 20
55.171347
 30
0.0
 10
141.559089
 20
66.022708
 30
0.0
 10
137.814113
 20
66.022708
 30
0.0
 10
144.048400
 20
50.505049
 30
0.0
 10
147.044382
 20
50.505049
 30
0.0
  0
LWPOLYLINE
  5
319
100
AcDbEntity
  8
Ebene_1
 62
7
100
AcDbPolyline
 90
12
 70
1
 10
167.399443
 20
50.615103
 30
0.0
 10
167.399443
 20
53.630592
 30
0.0
 10
159.028313
 20
53.630592
 30
0.0
 10
159.028313
 20
56.866188
 30
0.0
 10
166.297973
 20
56.866188
 30
0.0
 10
166.297973
 20
59.881677
 30
0.0
 10
159.028313
 20
59.881677
 30
0.0
 10
159.028313
 20
63.007220
 30
0.0
 10
167.289297
 20
63.007220
 30
0.0
 10
167.289297
 20
66.022708
 30
0.0
 10
155.657834
 20
66.022708
 30
0.0
 10
155.657834
 20
50.615103
 30
0.0
  0
SPLINE
  5
31a
100
AcDbEntity
  8
Ebene_1
 62
7
100
AcDbSpline
 70
8
 71
3
 72
8
 73
4
 74
0
 40
0
 40
0
 40
0
 40
0
 40
1
 40
1
 40
1
 40
1
 10
189.245948
 20
60.696037
 30
0.0
 10
189.245948
 20
61.488432
 30
0.0
 10
189.106430
 20
62.207454
 30
0.0
 10
188.827393
 20
62.853104
 30
0.0
  0
SPLINE
  5
31b
100
AcDbEntity
  8
Ebene_1
 62
7
100
AcDbSpline
 70
8
 71
3
 72
8
 73
4
 74
0
 40
0
 40
0
 40
0
 40
0
 40
1
 40
1
 40
1
 40
1
 10
188.827393
 20
62.853104
 30
0.0
 10
188.563042
 20
63.513428
 30
0.0
 10
188.173860
 20
64.078372
 30
0.0
 10
187.659845
 20
64.547935
 30
0.0
  0
SPLINE
  5
31c
100
AcDbEntity
  8
Ebene_1
 62
7
100
AcDbSpline
 70
8
 71
3
 72
8
 73
4
 74
0
 40
0
 40
0
 40
0
 40
0
 40
1
 40
1
 40
1
 40
1
 10
187.659845
 20
64.547935
 30
0.0
 10
187.160509
 20
65.017506
 30
0.0
 10
186.543688
 20
65.377019
 30
0.0
 10
185.809381
 20
65.626474
 30
0.0
  0
SPLINE
  5
31d
100
AcDbEntity
  8
Ebene_1
 62
7
100
AcDbSpline
 70
8
 71
3
 72
8
 73
4
 74
0
 40
0
 40
0
 40
0
 40
0
 40
1
 40
1
 40
1
 40
1
 10
185.809381
 20
65.626474
 30
0.0
 10
185.089760
 20
65.890604
 30
0.0
 10
184.267333
 20
66.022668
 30
0.0
 10
183.342099
 20
66.022668
 30
0.0
  0
LWPOLYLINE
  5
31e
100
AcDbEntity
  8
Ebene_1
 62
7
100
AcDbPolyline
 90
2
 70
0
 10
189.245948
 20
60.652055
 30
0.0
 10
189.245948
 20
60.696037
 30
0.0
  0
SPLINE
  5
31f
100
AcDbEntity
  8
Ebene_1
 62
7
100
AcDbSpline
 70
8
 71
3
 72
8
 73
4
 74
0
 40
0
 40
0
 40
0
 40
0
 40
1
 40
1
 40
1
 40
1
 10
183.011661
 20
55.237340
 30
0.0
 10
183.878150
 20
55.237340
 30
0.0
 10
184.685891
 20
55.347397
 30
0.0
 10
185.434884
 20
55.567512
 30
0.0
  0
SPLINE
  5
320
100
AcDbEntity
  8
Ebene_1
 62
7
100
AcDbSpline
 70
8
 71
3
 72
8
 73
4
 74
0
 40
0
 40
0
 40
0
 40
0
 40
1
 40
1
 40
1
 40
1
 10
185.434884
 20
55.567512
 30
0.0
 10
186.198564
 20
55.802293
 30
0.0
 10
186.859443
 20
56.147129
 30
0.0
 10
187.417523
 20
56.602019
 30
0.0
  0
SPLINE
  5
321
100
AcDbEntity
  8
Ebene_1
 62
7
100
AcDbSpline
 70
8
 71
3
 72
8
 73
4
 74
0
 40
0
 40
0
 40
0
 40
0
 40
1
 40
1
 40
1
 40
1
 10
187.417523
 20
56.602019
 30
0.0
 10
187.990283
 20
57.056909
 30
0.0
 10
188.438210
 20
57.621852
 30
0.0
 10
188.761305
 20
58.296850
 30
0.0
  0
SPLINE
  5
322
100
AcDbEntity
  8
Ebene_1
 62
7
100
AcDbSpline
 70
8
 71
3
 72
8
 73
4
 74
0
 40
0
 40
0
 40
0
 40
0
 40
1
 40
1
 40
1
 40
1
 10
188.761305
 20
58.296850
 30
0.0
 10
189.084400
 20
58.971854
 30
0.0
 10
189.245948
 20
59.756909
 30
0.0
 10
189.245948
 20
60.652015
 30
0.0
  0
LWPOLYLINE
  5
323
100
AcDbEntity
  8
Ebene_1
 62
7
100
AcDbPolyline
 90
6
 70
0
 10
183.342099
 20
66.022668
 30
0.0
 10
177.041725
 20
66.022668
 30
0.0
 10
177.041725
 20
50.615063
 30
0.0
 10
180.434233
 20
50.615063
 30
0.0
 10
180.434233
 20
55.237340
 30
0.0
 10
183.011661
 20
55.237340
 30
0.0
  0
SPLINE
  5
324
100
AcDbEntity
  8
Ebene_1
 62
7
100
AcDbSpline
 70
8
 71
3
 72
8
 73
4
 74
0
 40
0
 40
0
 40
0
 40
0
 40
1
 40
1
 40
1
 40
1
 10
185.809381
 20
60.585983
 30
0.0
 10
185.809381
 20
59.925659
 30
0.0
 10
185.574403
 20
59.368052
 30
0.0
 10
185.104446
 20
58.913162
 30
0.0
  0
SPLINE
  5
325
100
AcDbEntity
  8
Ebene_1
 62
7
100
AcDbSpline
 70
8
 71
3
 72
8
 73
4
 74
0
 40
0
 40
0
 40
0
 40
0
 40
1
 40
1
 40
1
 40
1
 10
185.104446
 20
58.913162
 30
0.0
 10
184.634490
 20
58.472940
 30
0.0
 10
183.973610
 20
58.252828
 30
0.0
 10
183.121807
 20
58.252828
 30
0.0
  0
LWPOLYLINE
  5
326
100
AcDbEntity
  8
Ebene_1
 62
7
100
AcDbPolyline
 90
1
 70
1
 10
189.245948
 20
60.652015
 30
0.0
  0
SPLINE
  5
327
100
AcDbEntity
  8
Ebene_1
 62
7
100
AcDbSpline
 70
8
 71
3
 72
8
 73
4
 74
0
 40
0
 40
0
 40
0
 40
0
 40
1
 40
1
 40
1
 40
1
 10
183.055720
 20
62.963158
 30
0.0
 10
183.907522
 20
62.963158
 30
0.0
 10
184.575745
 20
62.765061
 30
0.0
 10
185.060388
 20
62.368867
 30
0.0
  0
SPLINE
  5
328
100
AcDbEntity
  8
Ebene_1
 62
7
100
AcDbSpline
 70
8
 71
3
 72
8
 73
4
 74
0
 40
0
 40
0
 40
0
 40
0
 40
1
 40
1
 40
1
 40
1
 10
185.060388
 20
62.368867
 30
0.0
 10
185.559717
 20
61.972673
 30
0.0
 10
185.809381
 20
61.393052
 30
0.0
 10
185.809381
 20
60.630004
 30
0.0
  0
LWPOLYLINE
  5
329
100
AcDbEntity
  8
Ebene_1
 62
7
100
AcDbPolyline
 90
4
 70
0
 10
183.121807
 20
58.252828
 30
0.0
 10
180.434233
 20
58.252828
 30
0.0
 10
180.434233
 20
62.963158
 30
0.0
 10
183.055720
 20
62.963158
 30
0.0
  0
LWPOLYLINE
  5
32a
100
AcDbEntity
  8
Ebene_1
 62
7
100
AcDbPolyline
 90
2
 70
0
 10
185.809381
 20
60.630004
 30
0.0
 10
185.809381
 20
60.585983
 30
0.0
  0
LWPOLYLINE
  5
32b
100
AcDbEntity
  8
Ebene_1
 62
7
100
AcDbPolyline
 90
8
 70
1
 10
206.780580
 20
50.615103
 30
0.0
 10
200.171786
 20
66.132762
 30
0.0
 10
197.043628
 20
66.132762
 30
0.0
 10
190.434845
 20
50.615103
 30
0.0
 10
193.893441
 20
50.615103
 30
0.0
 10
195.303321
 20
54.070808
 30
0.0
 10
201.823987
 20
54.070808
 30
0.0
 10
203.233857
 20
50.615103
 30
0.0
  0
LWPOLYLINE
  5
32c
100
AcDbEntity
  8
Ebene_1
 62
7
100
AcDbPolyline
 90
3
 70
1
 10
200.612380
 20
57.064286
 30
0.0
 10
196.514927
 20
57.064286
 30
0.0
 10
198.563654
 20
62.060756
 30
0.0
  0
SPLINE
  5
32d
100
AcDbEntity
  8
Ebene_1
 62
7
100
AcDbSpline
 70
8
 71
3
 72
8
 73
4
 74
0
 40
0
 40
0
 40
0
 40
0
 40
1
 40
1
 40
1
 40
1
 10
218.699793
 20
56.117822
 30
0.0
 10
219.683771
 20
56.484668
 30
0.0
 10
220.476826
 20
57.056949
 30
0.0
 10
221.078958
 20
57.834663
 30
0.0
  0
SPLINE
  5
32e
100
AcDbEntity
  8
Ebene_1
 62
7
100
AcDbSpline
 70
8
 71
3
 72
8
 73
4
 74
0
 40
0
 40
0
 40
0
 40
0
 40
1
 40
1
 40
1
 40
1
 10
221.078958
 20
57.834663
 30
0.0
 10
221.695776
 20
58.627059
 30
0.0
 10
222.004185
 20
59.646895
 30
0.0
 10
222.004185
 20
60.894174
 30
0.0
  0
LWPOLYLINE
  5
32f
100
AcDbEntity
  8
Ebene_1
 62
7
100
AcDbPolyline
 90
2
 70
0
 10
222.466798
 20
50.615103
 30
0.0
 10
218.699793
 20
56.117822
 30
0.0
  0
SPLINE
  5
330
100
AcDbEntity
  8
Ebene_1
 62
7
100
AcDbSpline
 70
8
 71
3
 72
8
 73
4
 74
0
 40
0
 40
0
 40
0
 40
0
 40
1
 40
1
 40
1
 40
1
 10
222.004185
 20
60.938155
 30
0.0
 10
222.004185
 20
62.537613
 30
0.0
 10
221.490170
 20
63.784898
 30
0.0
 10
220.462140
 20
64.680010
 30
0.0
  0
SPLINE
  5
331
100
AcDbEntity
  8
Ebene_1
 62
7
100
AcDbSpline
 70
8
 71
3
 72
8
 73
4
 74
0
 40
0
 40
0
 40
0
 40
0
 40
1
 40
1
 40
1
 40
1
 10
220.462140
 20
64.680010
 30
0.0
 10
219.448790
 20
65.575116
 30
0.0
 10
218.024227
 20
66.022668
 30
0.0
 10
216.188453
 20
66.022668
 30
0.0
  0
LWPOLYLINE
  5
332
100
AcDbEntity
  8
Ebene_1
 62
7
100
AcDbPolyline
 90
2
 70
0
 10
222.004185
 20
60.894174
 30
0.0
 10
222.004185
 20
60.938155
 30
0.0
  0
SPLINE
  5
333
100
AcDbEntity
  8
Ebene_1
 62
7
100
AcDbSpline
 70
8
 71
3
 72
8
 73
4
 74
0
 40
0
 40
0
 40
0
 40
0
 40
1
 40
1
 40
1
 40
1
 10
218.567618
 20
60.718087
 30
0.0
 10
218.567618
 20
60.057763
 30
0.0
 10
218.339983
 20
59.529504
 30
0.0
 10
217.884712
 20
59.133310
 30
0.0
  0
SPLINE
  5
334
100
AcDbEntity
  8
Ebene_1
 62
7
100
AcDbSpline
 70
8
 71
3
 72
8
 73
4
 74
0
 40
0
 40
0
 40
0
 40
0
 40
1
 40
1
 40
1
 40
1
 10
217.884712
 20
59.133310
 30
0.0
 10
217.444128
 20
58.737109
 30
0.0
 10
216.805278
 20
58.539009
 30
0.0
 10
215.968161
 20
58.539009
 30
0.0
  0
LWPOLYLINE
  5
335
100
AcDbEntity
  8
Ebene_1
 62
7
100
AcDbPolyline
 90
8
 70
0
 10
216.188453
 20
66.022668
 30
0.0
 10
209.139086
 20
66.022668
 30
0.0
 10
209.139086
 20
50.615063
 30
0.0
 10
212.531594
 20
50.615063
 30
0.0
 10
212.531594
 20
55.545501
 30
0.0
 10
215.197139
 20
55.545501
 30
0.0
 10
218.501530
 20
50.615063
 30
0.0
 10
222.466798
 20
50.615103
 30
0.0
  0
SPLINE
  5
336
100
AcDbEntity
  8
Ebene_1
 62
7
100
AcDbSpline
 70
8
 71
3
 72
8
 73
4
 74
0
 40
0
 40
0
 40
0
 40
0
 40
1
 40
1
 40
1
 40
1
 10
215.902073
 20
62.963198
 30
0.0
 10
216.739190
 20
62.963198
 30
0.0
 10
217.392727
 20
62.779775
 30
0.0
 10
217.862683
 20
62.412928
 30
0.0
  0
SPLINE
  5
337
100
AcDbEntity
  8
Ebene_1
 62
7
100
AcDbSpline
 70
8
 71
3
 72
8
 73
4
 74
0
 40
0
 40
0
 40
0
 40
0
 40
1
 40
1
 40
1
 40
1
 10
217.862683
 20
62.412928
 30
0.0
 10
218.332640
 20
62.046082
 30
0.0
 10
218.567618
 20
61.495809
 30
0.0
 10
218.567618
 20
60.762109
 30
0.0
  0
LWPOLYLINE
  5
338
100
AcDbEntity
  8
Ebene_1
 62
7
100
AcDbPolyline
 90
4
 70
0
 10
215.968161
 20
58.539009
 30
0.0
 10
212.531594
 20
58.539009
 30
0.0
 10
212.531594
 20
62.963198
 30
0.0
 10
215.902073
 20
62.963198
 30
0.0
  0
LWPOLYLINE
  5
339
100
AcDbEntity
  8
Ebene_1
 62
7
100
AcDbPolyline
 90
2
 70
0
 10
218.567618
 20
60.762109
 30
0.0
 10
218.567618
 20
60.718087
 30
0.0
  0
LWPOLYLINE
  5
33a
100
AcDbEntity
  8
Ebene_1
 62
7
100
AcDbPolyline
 90
12
 70
1
 10
239.091349
 20
50.615103
 30
0.0
 10
232.526615
 20
59.485483
 30
0.0
 10
238.804960
 20
66.022708
 30
0.0
 10
234.707516
 20
66.022708
 30
0.0
 10
228.451201
 20
59.287386
 30
0.0
 10
228.451201
 20
66.022708
 30
0.0
 10
225.058692
 20
66.022708
 30
0.0
 10
225.058692
 20
50.615103
 30
0.0
 10
228.451201
 20
50.615103
 30
0.0
 10
228.451201
 20
55.325423
 30
0.0
 10
230.235577
 20
57.174340
 30
0.0
 10
235.015925
 20
50.615103
 30
0.0
  0
LWPOLYLINE
  5
33b
100
AcDbEntity
  8
Ebene_1
 62
7
100
AcDbPolyline
 90
4
 70
1
 10
244.697093
 20
50.615103
 30
0.0
 10
244.697093
 20
66.022708
 30
0.0
 10
241.304585
 20
66.022708
 30
0.0
 10
241.304585
 20
50.615103
 30
0.0
  0
LWPOLYLINE
  5
33c
100
AcDbEntity
  8
Ebene_1
 62
7
100
AcDbPolyline
 90
10
 70
1
 10
262.253054
 20
50.615103
 30
0.0
 10
262.253054
 20
66.022708
 30
0.0
 10
258.904604
 20
66.022708
 30
0.0
 10
258.904604
 20
56.536027
 30
0.0
 10
251.679003
 20
66.022708
 30
0.0
 10
248.550845
 20
66.022708
 30
0.0
 10
248.550845
 20
50.615103
 30
0.0
 10
251.899295
 20
50.615103
 30
0.0
 10
251.899295
 20
60.409936
 30
0.0
 10
259.367227
 20
50.615103
 30
0.0
  0
SPLINE
  5
33d
100
AcDbEntity
  8
Ebene_1
 62
7
100
AcDbSpline
 70
8
 71
3
 72
8
 73
4
 74
0
 40
0
 40
0
 40
0
 40
0
 40
1
 40
1
 40
1
 40
1
 10
276.661589
 20
54.356948
 30
0.0
 10
275.795100
 20
53.740646
 30
0.0
 10
274.730351
 20
53.432495
 30
0.0
 10
273.467343
 20
53.432495
 30
0.0
  0
SPLINE
  5
33e
100
AcDbEntity
  8
Ebene_1
 62
7
100
AcDbSpline
 70
8
 71
3
 72
8
 73
4
 74
0
 40
0
 40
0
 40
0
 40
0
 40
1
 40
1
 40
1
 40
1
 10
273.467343
 20
53.432495
 30
0.0
 10
272.777088
 20
53.432495
 30
0.0
 10
272.145580
 20
53.549886
 30
0.0
 10
271.572821
 20
53.784667
 30
0.0
  0
SPLINE
  5
33f
100
AcDbEntity
  8
Ebene_1
 62
7
100
AcDbSpline
 70
8
 71
3
 72
8
 73
4
 74
0
 40
0
 40
0
 40
0
 40
0
 40
1
 40
1
 40
1
 40
1
 10
271.572821
 20
53.784667
 30
0.0
 10
271.014747
 20
54.034123
 30
0.0
 10
270.522762
 20
54.378959
 30
0.0
 10
270.096864
 20
54.819175
 30
0.0
  0
SPLINE
  5
340
100
AcDbEntity
  8
Ebene_1
 62
7
100
AcDbSpline
 70
8
 71
3
 72
8
 73
4
 74
0
 40
0
 40
0
 40
0
 40
0
 40
1
 40
1
 40
1
 40
1
 10
270.096864
 20
54.819175
 30
0.0
 10
269.685645
 20
55.259391
 30
0.0
 10
269.362547
 20
55.772979
 30
0.0
 10
269.127568
 20
56.359940
 30
0.0
  0
SPLINE
  5
341
100
AcDbEntity
  8
Ebene_1
 62
7
100
AcDbSpline
 70
8
 71
3
 72
8
 73
4
 74
0
 40
0
 40
0
 40
0
 40
0
 40
1
 40
1
 40
1
 40
1
 10
269.127568
 20
56.359940
 30
0.0
 10
268.907276
 20
56.961569
 30
0.0
 10
268.797130
 20
57.614555
 30
0.0
 10
268.797130
 20
58.318901
 30
0.0
  0
LWPOLYLINE
  5
342
100
AcDbEntity
  8
Ebene_1
 62
7
100
AcDbPolyline
 90
6
 70
0
 10
279.943951
 20
52.794182
 30
0.0
 10
279.943951
 20
59.485483
 30
0.0
 10
273.247051
 20
59.485483
 30
0.0
 10
273.247051
 20
56.558037
 30
0.0
 10
276.661589
 20
56.558037
 30
0.0
 10
276.661589
 20
54.356948
 30
0.0
  0
SPLINE
  5
343
100
AcDbEntity
  8
Ebene_1
 62
7
100
AcDbSpline
 70
8
 71
3
 72
8
 73
4
 74
0
 40
0
 40
0
 40
0
 40
0
 40
1
 40
1
 40
1
 40
1
 10
268.797130
 20
58.362882
 30
0.0
 10
268.797130
 20
59.023213
 30
0.0
 10
268.907276
 20
59.639518
 30
0.0
 10
269.127568
 20
60.211799
 30
0.0
  0
SPLINE
  5
344
100
AcDbEntity
  8
Ebene_1
 62
7
100
AcDbSpline
 70
8
 71
3
 72
8
 73
4
 74
0
 40
0
 40
0
 40
0
 40
0
 40
1
 40
1
 40
1
 40
1
 10
269.127568
 20
60.211799
 30
0.0
 10
269.362547
 20
60.798754
 30
0.0
 10
269.678302
 20
61.305005
 30
0.0
 10
270.074834
 20
61.730554
 30
0.0
  0
SPLINE
  5
345
100
AcDbEntity
  8
Ebene_1
 62
7
100
AcDbSpline
 70
8
 71
3
 72
8
 73
4
 74
0
 40
0
 40
0
 40
0
 40
0
 40
1
 40
1
 40
1
 40
1
 10
270.074834
 20
61.730554
 30
0.0
 10
270.486046
 20
62.170770
 30
0.0
 10
270.956003
 20
62.515605
 30
0.0
 10
271.484704
 20
62.765061
 30
0.0
  0
SPLINE
  5
346
100
AcDbEntity
  8
Ebene_1
 62
7
100
AcDbSpline
 70
8
 71
3
 72
8
 73
4
 74
0
 40
0
 40
0
 40
0
 40
0
 40
1
 40
1
 40
1
 40
1
 10
271.484704
 20
62.765061
 30
0.0
 10
272.028091
 20
63.029191
 30
0.0
 10
272.608197
 20
63.161255
 30
0.0
 10
273.225022
 20
63.161255
 30
0.0
  0
SPLINE
  5
347
100
AcDbEntity
  8
Ebene_1
 62
7
100
AcDbSpline
 70
8
 71
3
 72
8
 73
4
 74
0
 40
0
 40
0
 40
0
 40
0
 40
1
 40
1
 40
1
 40
1
 10
273.225022
 20
63.161255
 30
0.0
 10
273.665606
 20
63.161255
 30
0.0
 10
274.069475
 20
63.124571
 30
0.0
 10
274.436628
 20
63.051201
 30
0.0
  0
SPLINE
  5
348
100
AcDbEntity
  8
Ebene_1
 62
7
100
AcDbSpline
 70
8
 71
3
 72
8
 73
4
 74
0
 40
0
 40
0
 40
0
 40
0
 40
1
 40
1
 40
1
 40
1
 10
274.436628
 20
63.051201
 30
0.0
 10
274.803782
 20
62.977832
 30
0.0
 10
275.141563
 20
62.875115
 30
0.0
 10
275.449972
 20
62.743050
 30
0.0
  0
SPLINE
  5
349
100
AcDbEntity
  8
Ebene_1
 62
7
100
AcDbSpline
 70
8
 71
3
 72
8
 73
4
 74
0
 40
0
 40
0
 40
0
 40
0
 40
1
 40
1
 40
1
 40
1
 10
275.449972
 20
62.743050
 30
0.0
 10
275.773074
 20
62.610986
 30
0.0
 10
276.081486
 20
62.449573
 30
0.0
 10
276.375209
 20
62.258813
 30
0.0
  0
SPLINE
  5
34a
100
AcDbEntity
  8
Ebene_1
 62
7
100
AcDbSpline
 70
8
 71
3
 72
8
 73
4
 74
0
 40
0
 40
0
 40
0
 40
0
 40
1
 40
1
 40
1
 40
1
 10
276.375209
 20
62.258813
 30
0.0
 10
276.668932
 20
62.068053
 30
0.0
 10
276.962654
 20
61.847945
 30
0.0
 10
277.256377
 20
61.598489
 30
0.0
  0
LWPOLYLINE
  5
34b
100
AcDbEntity
  8
Ebene_1
 62
7
100
AcDbPolyline
 90
2
 70
0
 10
268.797130
 20
58.318901
 30
0.0
 10
268.797130
 20
58.362882
 30
0.0
  0
SPLINE
  5
34c
100
AcDbEntity
  8
Ebene_1
 62
7
100
AcDbSpline
 70
8
 71
3
 72
8
 73
4
 74
0
 40
0
 40
0
 40
0
 40
0
 40
1
 40
1
 40
1
 40
1
 10
279.393221
 20
64.173752
 30
0.0
 10
278.996695
 20
64.511257
 30
0.0
 10
278.585480
 20
64.812075
 30
0.0
 10
278.159575
 20
65.076204
 30
0.0
  0
SPLINE
  5
34d
100
AcDbEntity
  8
Ebene_1
 62
7
100
AcDbSpline
 70
8
 71
3
 72
8
 73
4
 74
0
 40
0
 40
0
 40
0
 40
0
 40
1
 40
1
 40
1
 40
1
 10
278.159575
 20
65.076204
 30
0.0
 10
277.733677
 20
65.340334
 30
0.0
 10
277.278406
 20
65.560442
 30
0.0
 10
276.793764
 20
65.736528
 30
0.0
  0
SPLINE
  5
34e
100
AcDbEntity
  8
Ebene_1
 62
7
100
AcDbSpline
 70
8
 71
3
 72
8
 73
4
 74
0
 40
0
 40
0
 40
0
 40
0
 40
1
 40
1
 40
1
 40
1
 10
276.793764
 20
65.736528
 30
0.0
 10
276.309121
 20
65.912614
 30
0.0
 10
275.780417
 20
66.044679
 30
0.0
 10
275.207651
 20
66.132722
 30
0.0
  0
SPLINE
  5
34f
100
AcDbEntity
  8
Ebene_1
 62
7
100
AcDbSpline
 70
8
 71
3
 72
8
 73
4
 74
0
 40
0
 40
0
 40
0
 40
0
 40
1
 40
1
 40
1
 40
1
 10
275.207651
 20
66.132722
 30
0.0
 10
274.649577
 20
66.235439
 30
0.0
 10
274.025416
 20
66.286798
 30
0.0
 10
273.335168
 20
66.286798
 30
0.0
  0
SPLINE
  5
350
100
AcDbEntity
  8
Ebene_1
 62
7
100
AcDbSpline
 70
8
 71
3
 72
8
 73
4
 74
0
 40
0
 40
0
 40
0
 40
0
 40
1
 40
1
 40
1
 40
1
 10
273.335168
 20
66.286798
 30
0.0
 10
272.160270
 20
66.286798
 30
0.0
 10
271.080835
 20
66.074027
 30
0.0
 10
270.096864
 20
65.648485
 30
0.0
  0
SPLINE
  5
351
100
AcDbEntity
  8
Ebene_1
 62
7
100
AcDbSpline
 70
8
 71
3
 72
8
 73
4
 74
0
 40
0
 40
0
 40
0
 40
0
 40
1
 40
1
 40
1
 40
1
 10
270.096864
 20
65.648485
 30
0.0
 10
269.112886
 20
65.237617
 30
0.0
 10
268.261086
 20
64.665333
 30
0.0
 10
267.541465
 20
63.931633
 30
0.0
  0
SPLINE
  5
352
100
AcDbEntity
  8
Ebene_1
 62
7
100
AcDbSpline
 70
8
 71
3
 72
8
 73
4
 74
0
 40
0
 40
0
 40
0
 40
0
 40
1
 40
1
 40
1
 40
1
 10
267.541465
 20
63.931633
 30
0.0
 10
266.821838
 20
63.212614
 30
0.0
 10
266.256418
 20
62.368863
 30
0.0
 10
265.845206
 20
61.400382
 30
0.0
  0
SPLINE
  5
353
100
AcDbEntity
  8
Ebene_1
 62
7
100
AcDbSpline
 70
8
 71
3
 72
8
 73
4
 74
0
 40
0
 40
0
 40
0
 40
0
 40
1
 40
1
 40
1
 40
1
 10
265.845206
 20
61.400382
 30
0.0
 10
265.448680
 20
60.446581
 30
0.0
 10
265.250417
 20
59.419407
 30
0.0
 10
265.250417
 20
58.318861
 30
0.0
  0
LWPOLYLINE
  5
354
100
AcDbEntity
  8
Ebene_1
 62
7
100
AcDbPolyline
 90
2
 70
0
 10
277.256377
 20
61.598489
 30
0.0
 10
279.393221
 20
64.173752
 30
0.0
  0
SPLINE
  5
355
100
AcDbEntity
  8
Ebene_1
 62
7
100
AcDbSpline
 70
8
 71
3
 72
8
 73
4
 74
0
 40
0
 40
0
 40
0
 40
0
 40
1
 40
1
 40
1
 40
1
 10
265.250417
 20
58.274879
 30
0.0
 10
265.250417
 20
57.130318
 30
0.0
 10
265.448680
 20
56.073797
 30
0.0
 10
265.845206
 20
55.105315
 30
0.0
  0
SPLINE
  5
356
100
AcDbEntity
  8
Ebene_1
 62
7
100
AcDbSpline
 70
8
 71
3
 72
8
 73
4
 74
0
 40
0
 40
0
 40
0
 40
0
 40
1
 40
1
 40
1
 40
1
 10
265.845206
 20
55.105315
 30
0.0
 10
266.241732
 20
54.136840
 30
0.0
 10
266.792465
 20
53.300430
 30
0.0
 10
267.497407
 20
52.596085
 30
0.0
  0
SPLINE
  5
357
100
AcDbEntity
  8
Ebene_1
 62
7
100
AcDbSpline
 70
8
 71
3
 72
8
 73
4
 74
0
 40
0
 40
0
 40
0
 40
0
 40
1
 40
1
 40
1
 40
1
 10
267.497407
 20
52.596085
 30
0.0
 10
268.217028
 20
51.891733
 30
0.0
 10
269.068827
 20
51.341459
 30
0.0
 10
270.052805
 20
50.945265
 30
0.0
  0
SPLINE
  5
358
100
AcDbEntity
  8
Ebene_1
 62
7
100
AcDbSpline
 70
8
 71
3
 72
8
 73
4
 74
0
 40
0
 40
0
 40
0
 40
0
 40
1
 40
1
 40
1
 40
1
 10
270.052805
 20
50.945265
 30
0.0
 10
271.051463
 20
50.549071
 30
0.0
 10
272.152927
 20
50.350974
 30
0.0
 10
273.357197
 20
50.350974
 30
0.0
  0
SPLINE
  5
359
100
AcDbEntity
  8
Ebene_1
 62
7
100
AcDbSpline
 70
8
 71
3
 72
8
 73
4
 74
0
 40
0
 40
0
 40
0
 40
0
 40
1
 40
1
 40
1
 40
1
 10
273.357197
 20
50.350974
 30
0.0
 10
274.767066
 20
50.350974
 30
0.0
 10
276.015392
 20
50.585755
 30
0.0
 10
277.102173
 20
51.055319
 30
0.0
  0
SPLINE
  5
35a
100
AcDbEntity
  8
Ebene_1
 62
7
100
AcDbSpline
 70
8
 71
3
 72
8
 73
4
 74
0
 40
0
 40
0
 40
0
 40
0
 40
1
 40
1
 40
1
 40
1
 10
277.102173
 20
51.055319
 30
0.0
 10
278.203640
 20
51.539557
 30
0.0
 10
279.150899
 20
52.119177
 30
0.0
 10
279.943951
 20
52.794182
 30
0.0
  0
LWPOLYLINE
  5
35b
100
AcDbEntity
  8
Ebene_1
 62
7
100
AcDbPolyline
 90
2
 70
0
 10
265.250417
 20
58.318861
 30
0.0
 10
265.250417
 20
58.274879
 30
0.0
  0
LWPOLYLINE
  5
35c
100
AcDbEntity
  8
Ebene_1
 62
7
100
AcDbPolyline
 90
1
 70
1
 10
279.943951
 20
52.794182
 30
0.0
  0
ENDSEC
  0
SECTION
  2
OBJECTS
  0
DICTIONARY
  5
C
330
0
100
AcDbDictionary
  3
ACAD_GROUP
350
D
  3
ACAD_MLINESTYLE
350
17
  0
DICTIONARY
  5
D
330
C
100
AcDbDictionary
  0
DICTIONARY
  5
1A
330
C
100
AcDbDictionary
  0
DICTIONARY
  5
17
330
C
100
AcDbDictionary
  3
STANDARD
350
18
  0
DICTIONARY
  5
19
330
C
100
AcDbDictionary
  0
ENDSEC
  0
EOF
