<?xml version="1.0" encoding="UTF-8" standalone="no"?>
<!-- Created with Inkscape (http://www.inkscape.org/) -->

<svg
   xmlns:dc="http://purl.org/dc/elements/1.1/"
   xmlns:cc="http://creativecommons.org/ns#"
   xmlns:rdf="http://www.w3.org/1999/02/22-rdf-syntax-ns#"
   xmlns:svg="http://www.w3.org/2000/svg"
   xmlns="http://www.w3.org/2000/svg"
   xmlns:sodipodi="http://sodipodi.sourceforge.net/DTD/sodipodi-0.dtd"
   xmlns:inkscape="http://www.inkscape.org/namespaces/inkscape"
   width="210mm"
   height="297mm"
   viewBox="0 0 210 297"
   version="1.1"
   id="svg1201"
   inkscape:version="0.92.4 (5da689c313, 2019-01-14)"
   sodipodi:docname="TeslaSparkalaSchiefer.svg">
  <defs
     id="defs1195" />
  <sodipodi:namedview
     id="base"
     pagecolor="#ffffff"
     bordercolor="#666666"
     borderopacity="1.0"
     inkscape:pageopacity="0.0"
     inkscape:pageshadow="2"
     inkscape:zoom="0.7"
     inkscape:cx="-222.29735"
     inkscape:cy="493.03429"
     inkscape:document-units="mm"
     inkscape:current-layer="layer1"
     showgrid="false"
     inkscape:window-width="1920"
     inkscape:window-height="1137"
     inkscape:window-x="-8"
     inkscape:window-y="-8"
     inkscape:window-maximized="1">
    <inkscape:grid
       type="xygrid"
       id="grid1892" />
  </sodipodi:namedview>
  <metadata
     id="metadata1198">
    <rdf:RDF>
      <cc:Work
         rdf:about="">
        <dc:format>image/svg+xml</dc:format>
        <dc:type
           rdf:resource="http://purl.org/dc/dcmitype/StillImage" />
        <dc:title></dc:title>
      </cc:Work>
    </rdf:RDF>
  </metadata>
  <g
     inkscape:label="Ebene 1"
     inkscape:groupmode="layer"
     id="layer1">
    <path
       inkscape:connector-curvature="0"
       style="opacity:1;fill:none;fill-opacity:1;stroke:#000000;stroke-width:0.40000001;stroke-linejoin:round;stroke-miterlimit:4;stroke-dasharray:none;stroke-opacity:1;paint-order:markers fill stroke"
       d="m 0.87737445,36.009526 0,219.600004 H -298.72261 V 36.009526 Z"
       id="rect867-2"
       inkscape:export-xdpi="119.97266"
       inkscape:export-ydpi="119.97266" />
    <path
       id="path21491-5"
       style="fill:#000000;stroke-width:0.26458338"
       d="m -180.47856,77.421096 c -0.78036,-0.525508 -1.75251,-1.75484 -1.75251,-2.216101 0,-0.165737 1.61137,-0.204641 8.47311,-0.204641 5.7605,0 8.47307,0.05224 8.47307,0.163155 0,0.322027 -0.60747,1.335459 -1.04478,1.74297 -0.24522,0.228535 -0.69301,0.563672 -0.99504,0.744737 -0.53165,0.318745 -0.73701,0.329241 -6.43536,0.329819 h -5.88619 l -0.8323,-0.560518 z m -73.30478,0.01 c -1.01081,-0.680239 -1.86007,-1.692161 -1.87545,-2.234683 -0.005,-0.154562 1.79278,-0.196141 8.47808,-0.196141 h 8.48365 l -0.10465,0.353041 c -0.20053,0.675975 -0.93221,1.57159 -1.71415,2.098181 l -0.78707,0.530054 h -5.83119 -5.83119 z m 0.55105,6.561209 c -0.85466,-0.459417 -1.47435,-1.009764 -1.9564,-1.737522 -0.92855,-1.401837 -1.60867,-1.291975 7.9974,-1.291975 5.81136,0 8.47307,0.05163 8.47307,0.164713 0,0.625788 -1.11285,2.105497 -2.01266,2.676149 l -0.71623,0.454217 -5.65723,-0.0062 c -4.89686,-0.0062 -5.72048,-0.04031 -6.12795,-0.259307 z m 71.47195,1.83325 v -4.86563 l 8.04162,0.04069 8.04154,0.04069 0.0417,4.824937 0.0417,4.824946 h -1.41444 -1.41447 v -3.216637 -3.216629 h -5.25642 -5.25645 v 3.216629 3.216623 h -1.41219 -1.41217 z m -24.00702,-3.05829 v -7.923876 h 1.41217 1.41217 v 6.35482 6.354798 h 6.34385 6.34386 l -0.14257,0.497126 c -0.22583,0.787366 -0.8648,1.636993 -1.62396,2.159301 l -0.70019,0.481768 h -6.52266 -6.52267 z m -47.46493,7.612901 c -0.935,-0.462933 -1.77478,-1.212449 -2.1228,-1.89466 -0.1701,-0.33341 -0.30926,-0.679636 -0.30926,-0.769369 0,-0.110887 2.71255,-0.163162 8.47306,-0.163162 6.86171,0 8.47307,0.03877 8.47307,0.204642 0,0.361928 -0.89205,1.62487 -1.4349,2.031442 -1.2314,0.922328 -1.07472,0.902112 -6.99115,0.901975 -5.12636,-1.18e-4 -5.49878,-0.01911 -6.08802,-0.310868 z m 22.98716,0.309279 c 0,-0.398903 0.71198,-1.608915 1.19759,-2.035287 1.26134,-1.107486 1.22194,-1.101183 6.87694,-1.101183 h 5.1058 V 85.905478 84.25792 h -6.59019 -6.59014 v -4.707246 -4.707275 h 8.00234 c 4.4013,0 8.00235,0.02674 8.00235,0.05927 0,0.03267 -0.10328,0.30652 -0.22955,0.608687 -0.29506,0.706186 -0.93083,1.458022 -1.7105,2.022842 l -0.61758,0.447354 h -5.31136 -5.31135 v 1.569079 1.569089 h 6.66861 6.66863 v 4.864212 4.864158 h -8.0808 c -5.34065,0 -8.08079,-0.05372 -8.08079,-0.158616 z m -43.50121,-6.235408 -0.041,-6.394048 -2.589,-0.07849 -2.58898,-0.07849 -0.72433,-0.521474 c -0.3984,-0.286817 -0.86407,-0.710465 -1.03483,-0.941458 -0.32213,-0.435704 -0.82983,-1.35988 -0.82983,-1.510522 0,-0.04748 4.20122,-0.08628 9.33606,-0.08628 6.35791,0 9.33606,0.05203 9.33606,0.163164 0,0.362657 -0.63659,1.360421 -1.20273,1.885127 -1.12361,1.041344 -0.9961,1.005537 -3.88105,1.089891 l -2.68318,0.07849 -0.0411,6.394049 -0.041,6.394024 h -1.48713 -1.48711 z"
       inkscape:connector-curvature="0"
       inkscape:export-xdpi="119.97266"
       inkscape:export-ydpi="119.97266" />
    <path
       style="color:#000000;font-style:normal;font-variant:normal;font-weight:normal;font-stretch:normal;font-size:medium;line-height:normal;font-family:sans-serif;font-variant-ligatures:normal;font-variant-position:normal;font-variant-caps:normal;font-variant-numeric:normal;font-variant-alternates:normal;font-feature-settings:normal;text-indent:0;text-align:start;text-decoration:none;text-decoration-line:none;text-decoration-style:solid;text-decoration-color:#000000;letter-spacing:normal;word-spacing:normal;text-transform:none;writing-mode:lr-tb;direction:ltr;text-orientation:mixed;dominant-baseline:auto;baseline-shift:baseline;text-anchor:start;white-space:normal;shape-padding:0;clip-rule:nonzero;display:inline;overflow:visible;visibility:visible;opacity:1;isolation:auto;mix-blend-mode:normal;color-interpolation:sRGB;color-interpolation-filters:linearRGB;solid-color:#000000;solid-opacity:1;vector-effect:none;fill:#000000;fill-opacity:1;fill-rule:nonzero;stroke:none;stroke-width:7;stroke-linecap:butt;stroke-linejoin:round;stroke-miterlimit:4;stroke-dasharray:none;stroke-dashoffset:0;stroke-opacity:1;paint-order:markers fill stroke;color-rendering:auto;image-rendering:auto;shape-rendering:auto;text-rendering:auto;enable-background:accumulate"
       d="m -265.95956,52.124026 c -13.12994,0 -23.77338,10.629086 -23.77338,23.741284 v 142.7999 c 0,13.11221 10.64344,23.74129 23.77338,23.74129 h 85.79626 c 13.12992,0 23.77337,-10.62908 23.77337,-23.74129 V 75.86531 c 0,-13.112198 -10.64345,-23.741284 -23.77337,-23.741284 z m 0,4.641037 h 85.79626 c 10.63571,0 19.12606,8.478906 19.12606,19.100247 v 142.7999 c 0,10.62134 -8.49035,19.10024 -19.12606,19.10024 h -85.79626 c -10.63572,0 -19.12607,-8.4789 -19.12607,-19.10024 V 75.86531 c 0,-10.621341 8.49035,-19.100247 19.12607,-19.100247 z"
       id="rect875-4"
       inkscape:connector-curvature="0"
       inkscape:export-xdpi="119.97266"
       inkscape:export-ydpi="119.97266" />
    <path
       inkscape:connector-curvature="0"
       style="opacity:1;fill:none;fill-opacity:1;stroke:#000000;stroke-width:0.2;stroke-linejoin:round;stroke-miterlimit:4;stroke-dasharray:none;stroke-opacity:1;paint-order:markers fill stroke"
       d="m -274.04011,227.55096 a 1.701247,1.701247 0 0 1 -1.70124,1.70124 1.701247,1.701247 0 0 1 -1.70124,-1.70124 1.701247,1.701247 0 0 1 1.70124,-1.70125 1.701247,1.701247 0 0 1 1.70124,1.70125 z"
       id="path879-1"
       inkscape:export-xdpi="119.97266"
       inkscape:export-ydpi="119.97266" />
    <path
       inkscape:connector-curvature="0"
       style="opacity:1;fill:none;fill-opacity:1;stroke:#000000;stroke-width:0.2;stroke-linejoin:round;stroke-miterlimit:4;stroke-dasharray:none;stroke-opacity:1;paint-order:markers fill stroke"
       d="m -168.62154,227.35248 a 1.701247,1.701247 0 0 1 -1.70124,1.70125 1.701247,1.701247 0 0 1 -1.70125,-1.70125 1.701247,1.701247 0 0 1 1.70125,-1.70125 1.701247,1.701247 0 0 1 1.70124,1.70125 z"
       id="path881-4"
       inkscape:export-xdpi="119.97266"
       inkscape:export-ydpi="119.97266" />
    <path
       inkscape:connector-curvature="0"
       style="opacity:1;fill:none;fill-opacity:1;stroke:#000000;stroke-width:0.2;stroke-linejoin:round;stroke-miterlimit:4;stroke-dasharray:none;stroke-opacity:1;paint-order:markers fill stroke"
       d="m -168.36431,67.376523 a 1.701247,1.701247 0 0 1 -1.70125,1.70124 1.701247,1.701247 0 0 1 -1.70125,-1.70124 1.701247,1.701247 0 0 1 1.70125,-1.701248 1.701247,1.701247 0 0 1 1.70125,1.701248 z"
       id="path883-9"
       inkscape:export-xdpi="119.97266"
       inkscape:export-ydpi="119.97266" />
    <path
       inkscape:connector-curvature="0"
       style="opacity:1;fill:none;fill-opacity:1;stroke:#000000;stroke-width:0.2;stroke-linejoin:round;stroke-miterlimit:4;stroke-dasharray:none;stroke-opacity:1;paint-order:markers fill stroke"
       d="m -273.84163,67.376523 a 1.701247,1.701247 0 0 1 -1.70125,1.70124 1.701247,1.701247 0 0 1 -1.70125,-1.70124 1.701247,1.701247 0 0 1 1.70125,-1.701248 1.701247,1.701247 0 0 1 1.70125,1.701248 z"
       id="path885-0"
       inkscape:export-xdpi="119.97266"
       inkscape:export-ydpi="119.97266" />
    <path
       style="fill:#000000;stroke-width:0.99999994"
       d="m -223.08049,198.22341 c -0.16583,-0.87455 -14.4347,-80.53705 -14.4347,-80.58827 0,-0.0728 -4.21442,0.0337 -6.33278,0.16011 -6.30418,0.37593 -9.54659,1.4799 -11.11373,3.78394 -0.57777,0.8495 -0.81901,1.4552 -1.07119,2.68954 -0.10239,0.50151 -0.20494,0.93055 -0.22778,0.95337 -0.0765,0.0765 -2.69663,-1.16806 -4.00926,-1.90502 -3.92612,-2.20418 -7.00847,-4.75628 -9.10528,-7.539 -0.30808,-0.40882 -0.56011,-0.77675 -0.56011,-0.81765 0,-0.0411 0.1595,-0.14038 0.35444,-0.22105 0.19496,-0.0809 1.03499,-0.44273 1.86676,-0.80459 9.52999,-4.14595 21.91752,-7.0439 33.03451,-7.7281 l 0.99244,-0.0611 5.32703,6.4912 c 2.92987,3.57011 5.35943,6.45535 5.39904,6.41167 0.0394,-0.0436 2.41756,-2.93781 5.2843,-6.43128 2.86674,-3.49345 5.25606,-6.37886 5.30955,-6.41193 0.1116,-0.0689 2.49582,0.0847 4.57839,0.2953 8.78247,0.88776 17.60313,2.92003 25.61475,5.90162 1.89079,0.70367 4.93222,1.9596 5.72543,2.36426 l 0.37057,0.18905 -0.47801,0.65718 c -1.85766,2.55405 -4.76988,5.06392 -8.37638,7.21916 -0.99185,0.59273 -4.27523,2.24072 -4.72292,2.37049 -0.18475,0.0536 -0.20954,0.0134 -0.27098,-0.44067 -0.0373,-0.27478 -0.17159,-0.86002 -0.2986,-1.30051 -1.00027,-3.46867 -3.95568,-5.00893 -10.7112,-5.58221 -1.47097,-0.12481 -7.5885,-0.28503 -7.66536,-0.2007 -0.0394,0.0432 -11.84895,66.29162 -14.34132,80.45067 l -0.0749,0.42533 z m 47.00287,-86.83684 c -11.2888,-4.761 -24.11423,-7.79061 -36.90983,-8.71874 -4.11094,-0.29821 -12.65141,-0.39585 -16.78692,-0.19195 -14.33158,0.70661 -27.51687,3.62732 -40.18871,8.90225 -0.87305,0.36339 -1.64168,0.63989 -1.70813,0.6144 -0.0667,-0.0257 -0.61302,-1.03951 -1.2146,-2.25336 -1.12558,-2.27109 -1.65014,-3.45086 -1.56996,-3.53104 0.0822,-0.0821 3.38679,-1.33052 5.32386,-2.01128 18.15933,-6.382077 37.55305,-9.026791 55.90816,-7.624243 13.72858,1.049024 26.66711,3.944923 39.83766,8.916503 0.98057,0.37014 1.79972,0.68982 1.8203,0.71043 0.1077,0.10757 -2.5258,5.60518 -2.79264,5.82984 -0.0358,0.03 -0.80942,-0.25913 -1.71919,-0.64281 z"
       id="path2190-1"
       inkscape:connector-curvature="0"
       sodipodi:nodetypes="csscccccscsscscssssccsscccsccccsssccscsssccs"
       inkscape:export-xdpi="119.97266"
       inkscape:export-ydpi="119.97266" />
    <flowRoot
       xml:space="preserve"
       id="flowRoot1772"
       style="fill:black;fill-opacity:1;stroke:none;font-family:'Victorian LET';font-style:normal;font-weight:bold;font-size:40px;line-height:1.25;letter-spacing:0px;word-spacing:0px;-inkscape-font-specification:'Victorian LET Bold';font-stretch:normal;font-variant:normal"><flowRegion
         id="flowRegion1774"><rect
           id="rect1776"
           width="751.55347"
           height="961.66522"
           x="-1242.4877"
           y="55.798599" /></flowRegion><flowPara
         id="flowPara1778"></flowPara></flowRoot>    <path
       id="path21491-5-6"
       style="fill:#000000;stroke-width:0.26458338"
       d="m -36.285158,77.456412 c -0.775269,-0.52209 -1.741101,-1.743427 -1.741101,-2.201691 0,-0.164664 1.600892,-0.203318 8.418018,-0.203318 5.723054,0 8.417976,0.05186 8.417976,0.162103 0,0.31993 -0.603521,1.326775 -1.037984,1.731629 -0.243632,0.227055 -0.688501,0.560015 -0.988574,0.739896 -0.528198,0.316682 -0.7322,0.327108 -6.393508,0.327677 h -5.847928 l -0.826899,-0.556874 z m -72.828162,0.0097 c -1.00425,-0.675812 -1.84799,-1.681155 -1.86328,-2.220156 -0.004,-0.153551 1.78114,-0.194862 8.42298,-0.194862 h 8.4285 l -0.104057,0.350739 c -0.199223,0.67158 -0.926151,1.561371 -1.703006,2.084543 l -0.781956,0.526612 h -5.793281 -5.7933 z m 0.54746,6.518554 c -0.84911,-0.456433 -1.46476,-1.003201 -1.94368,-1.726229 -0.92251,-1.39272 -1.59822,-1.283576 7.94542,-1.283576 5.773579,0 8.417986,0.05132 8.417986,0.163645 0,0.621717 -1.105615,2.091809 -1.999576,2.658747 l -0.711582,0.451266 -5.620438,-0.0064 c -4.86505,-0.0064 -5.6833,-0.04008 -6.08813,-0.257627 z m 71.007273,1.821323 v -4.83399 l 7.98932,0.04039 7.989267,0.04039 0.04137,4.793568 0.04137,4.793569 h -1.405248 -1.40527 v -3.195693 -3.19572 h -5.222246 -5.222278 v 3.19572 3.19571 h -1.402996 -1.402999 z m -23.850935,-3.038457 v -7.872355 h 1.402986 1.402999 v 6.313503 6.313479 h 6.302601 6.302609 l -0.141645,0.493894 c -0.224365,0.782246 -0.859175,1.626354 -1.613386,2.145261 l -0.695649,0.478636 h -6.480249 -6.480266 z m -47.156338,7.563408 c -0.92893,-0.459926 -1.76325,-1.204567 -2.109,-1.882341 -0.16899,-0.331245 -0.30726,-0.675211 -0.30726,-0.764369 0,-0.110167 2.69491,-0.162104 8.418,-0.162104 6.817094,0 8.417986,0.03847 8.417986,0.203318 0,0.359568 -0.886256,1.614308 -1.425577,2.018232 -1.223396,0.916335 -1.067733,0.896242 -6.945699,0.896113 -5.09305,-1.17e-4 -5.46303,-0.01897 -6.04845,-0.308849 z m 22.837712,0.307263 c 0,-0.396303 0.707362,-1.598449 1.189812,-2.022046 1.253143,-1.100289 1.213987,-1.094031 6.832236,-1.094031 h 5.072595 V 85.88529 84.248446 h -6.547347 -6.547296 V 79.5718 74.895134 h 7.950315 c 4.372682,0 7.950334,0.02658 7.950334,0.05882 0,0.03247 -0.102661,0.304531 -0.228072,0.604732 -0.293138,0.701596 -0.924768,1.448542 -1.699373,2.009692 l -0.613572,0.444441 h -5.276823 -5.276813 v 1.558873 1.558887 h 6.625255 6.625265 v 4.832585 4.832533 h -8.028253 c -5.305938,0 -8.028263,-0.05337 -8.028263,-0.15758 z m -43.218392,-6.194862 -0.0407,-6.352476 -2.57217,-0.07801 -2.57217,-0.07801 -0.71961,-0.518082 c -0.3958,-0.284952 -0.85844,-0.70585 -1.0281,-0.935335 -0.32003,-0.432878 -0.82443,-1.351046 -0.82443,-1.500708 0,-0.04715 4.1739,-0.08573 9.27536,-0.08573 6.31657,0 9.27537,0.05166 9.27537,0.162103 0,0.360298 -0.63246,1.351582 -1.19493,1.872878 -1.1163,1.034568 -0.98962,0.998991 -3.85581,1.082801 l -2.66575,0.07801 -0.0408,6.352475 -0.0407,6.352454 h -1.47745 -1.47745 z"
       inkscape:connector-curvature="0"
       inkscape:export-xdpi="119.97266"
       inkscape:export-ydpi="119.97266" />
    <path
       style="color:#000000;font-style:normal;font-variant:normal;font-weight:normal;font-stretch:normal;font-size:medium;line-height:normal;font-family:sans-serif;font-variant-ligatures:normal;font-variant-position:normal;font-variant-caps:normal;font-variant-numeric:normal;font-variant-alternates:normal;font-feature-settings:normal;text-indent:0;text-align:start;text-decoration:none;text-decoration-line:none;text-decoration-style:solid;text-decoration-color:#000000;letter-spacing:normal;word-spacing:normal;text-transform:none;writing-mode:lr-tb;direction:ltr;text-orientation:mixed;dominant-baseline:auto;baseline-shift:baseline;text-anchor:start;white-space:normal;shape-padding:0;clip-rule:nonzero;display:inline;overflow:visible;visibility:visible;opacity:1;isolation:auto;mix-blend-mode:normal;color-interpolation:sRGB;color-interpolation-filters:linearRGB;solid-color:#000000;solid-opacity:1;vector-effect:none;fill:#000000;fill-opacity:1;fill-rule:nonzero;stroke:none;stroke-width:7;stroke-linecap:butt;stroke-linejoin:round;stroke-miterlimit:4;stroke-dasharray:none;stroke-dashoffset:0;stroke-opacity:1;paint-order:markers fill stroke;color-rendering:auto;image-rendering:auto;shape-rendering:auto;text-rendering:auto;enable-background:accumulate"
       d="m -121.48698,52.124026 c -13.12993,0 -23.77337,10.629091 -23.77337,23.74129 V 218.66521 c 0,13.11221 10.64344,23.74129 23.77337,23.74129 h 85.796289 c 13.129922,0 23.773366,-10.62908 23.773366,-23.74129 V 75.865316 c 0,-13.112199 -10.643444,-23.74129 -23.773366,-23.74129 z m 0,4.641038 h 85.796289 c 10.635702,0 19.126061,8.478903 19.126061,19.100252 V 218.66521 c 0,10.62134 -8.490359,19.10025 -19.126061,19.10025 h -85.796289 c -10.6357,0 -19.12606,-8.47891 -19.12606,-19.10025 V 75.865316 c 0,-10.621349 8.49036,-19.100252 19.12606,-19.100252 z"
       id="rect875-4-3"
       inkscape:connector-curvature="0"
       inkscape:export-xdpi="119.97266"
       inkscape:export-ydpi="119.97266" />
    <path
       inkscape:connector-curvature="0"
       style="opacity:1;fill:none;fill-opacity:1;stroke:#000000;stroke-width:0.2;stroke-linejoin:round;stroke-miterlimit:4;stroke-dasharray:none;stroke-opacity:1;paint-order:markers fill stroke"
       d="m -129.56752,227.55096 a 1.701247,1.701247 0 0 1 -1.70124,1.70124 1.701247,1.701247 0 0 1 -1.70124,-1.70124 1.701247,1.701247 0 0 1 1.70124,-1.70125 1.701247,1.701247 0 0 1 1.70124,1.70125 z"
       id="path879-1-7"
       inkscape:export-xdpi="119.97266"
       inkscape:export-ydpi="119.97266" />
    <path
       inkscape:connector-curvature="0"
       style="opacity:1;fill:none;fill-opacity:1;stroke:#000000;stroke-width:0.2;stroke-linejoin:round;stroke-miterlimit:4;stroke-dasharray:none;stroke-opacity:1;paint-order:markers fill stroke"
       d="m -24.148932,227.35248 a 1.701247,1.701247 0 0 1 -1.701239,1.70125 1.701247,1.701247 0 0 1 -1.701249,-1.70125 1.701247,1.701247 0 0 1 1.701249,-1.70124 1.701247,1.701247 0 0 1 1.701239,1.70124 z"
       id="path881-4-3"
       inkscape:export-xdpi="119.97266"
       inkscape:export-ydpi="119.97266" />
    <path
       inkscape:connector-curvature="0"
       style="opacity:1;fill:none;fill-opacity:1;stroke:#000000;stroke-width:0.2;stroke-linejoin:round;stroke-miterlimit:4;stroke-dasharray:none;stroke-opacity:1;paint-order:markers fill stroke"
       d="m -23.891709,67.376527 a 1.701247,1.701247 0 0 1 -1.701249,1.701239 1.701247,1.701247 0 0 1 -1.701249,-1.701239 1.701247,1.701247 0 0 1 1.701249,-1.70125 1.701247,1.701247 0 0 1 1.701249,1.70125 z"
       id="path883-9-4"
       inkscape:export-xdpi="119.97266"
       inkscape:export-ydpi="119.97266" />
    <path
       inkscape:connector-curvature="0"
       style="opacity:1;fill:none;fill-opacity:1;stroke:#000000;stroke-width:0.2;stroke-linejoin:round;stroke-miterlimit:4;stroke-dasharray:none;stroke-opacity:1;paint-order:markers fill stroke"
       d="m -129.36903,67.376527 a 1.701247,1.701247 0 0 1 -1.70125,1.701239 1.701247,1.701247 0 0 1 -1.70126,-1.701239 1.701247,1.701247 0 0 1 1.70126,-1.70125 1.701247,1.701247 0 0 1 1.70125,1.70125 z"
       id="path885-0-8"
       inkscape:export-xdpi="119.97266"
       inkscape:export-ydpi="119.97266" />
    <path
       style="fill:#000000;stroke-width:0.9999997"
       d="m -78.494494,197.84769 c -0.165018,-0.87029 -14.364688,-80.1464 -14.364688,-80.19737 0,-0.0722 -4.193971,0.0336 -6.302054,0.15933 -6.273604,0.37412 -9.500294,1.47272 -11.059834,3.76561 -0.57496,0.84536 -0.81504,1.44813 -1.06601,2.67648 -0.10203,0.49907 -0.20392,0.92603 -0.22668,0.94874 -0.0763,0.0763 -2.68354,-1.16241 -3.9898,-1.89578 -3.90707,-2.19348 -6.97447,-4.7332 -9.0611,-7.50241 -0.30661,-0.40684 -0.55741,-0.773 -0.55741,-0.81369 0,-0.0409 0.15875,-0.13972 0.35273,-0.21998 0.19402,-0.0803 1.02994,-0.44061 1.85771,-0.80069 9.48376,-4.12583 21.81123,-7.00972 32.874283,-7.69064 l 0.98762,-0.0608 5.301197,6.4597 c 2.915653,3.55279 5.333421,6.42404 5.372851,6.38056 0.03934,-0.0433 2.405835,-2.92353 5.258661,-6.40005 2.852849,-3.47651 5.230571,-6.34791 5.283815,-6.38084 0.111093,-0.0685 2.483701,0.0843 4.556163,0.29386 8.739876,0.88344 17.517748,2.90586 25.490512,5.87299 1.88161,0.70024 4.908289,1.95009 5.697654,2.3528 l 0.368771,0.18813 -0.475688,0.65401 c -1.848647,2.54164 -4.74674,5.03934 -8.335741,7.18413 -0.987048,0.58985 -4.254505,2.22984 -4.700019,2.35898 -0.183857,0.0533 -0.208511,0.0134 -0.269667,-0.43853 -0.03702,-0.27344 -0.170744,-0.85586 -0.297151,-1.2942 -0.995409,-3.45183 -3.936501,-4.98464 -10.659248,-5.55515 -1.463825,-0.12418 -7.551688,-0.28362 -7.628177,-0.1997 -0.03923,0.043 -11.791475,65.97007 -14.271753,80.06044 l -0.07458,0.42327 z m 46.774888,-86.41563 c -11.234046,-4.7379 -23.997262,-7.75282 -36.730795,-8.67645 -4.090997,-0.29676 -12.590038,-0.39394 -16.705506,-0.191 -14.262039,0.70317 -27.383413,3.6097 -39.993783,8.85905 -0.8688,0.36167 -1.63373,0.63679 -1.69985,0.61144 -0.0664,-0.0256 -0.61004,-1.03446 -1.20871,-2.24245 -1.1201,-2.26006 -1.64211,-3.43411 -1.56233,-3.51392 0.0818,-0.0817 3.37036,-1.32404 5.29805,-2.00151 18.07123,-6.351116 37.370891,-8.982993 55.636978,-7.587249 13.661983,1.043926 26.537744,3.925779 39.644412,8.873229 0.97582,0.36834 1.790997,0.68647 1.811476,0.70699 0.107189,0.10698 -2.513547,5.578 -2.77909,5.80157 -0.0357,0.03 -0.805505,-0.25788 -1.710852,-0.6397 z"
       id="path2190-1-4"
       inkscape:connector-curvature="0"
       sodipodi:nodetypes="csscccccscsscscssssccsscccsccccsssccscsssccs"
       inkscape:export-xdpi="119.97266"
       inkscape:export-ydpi="119.97266" />
    <g
       aria-label="Service"
       style="font-style:normal;font-variant:normal;font-weight:bold;font-stretch:normal;font-size:22.69202614px;line-height:0.80000001;font-family:'Victorian LET';-inkscape-font-specification:'Victorian LET Bold';letter-spacing:0px;word-spacing:0px;fill:#000000;fill-opacity:1;stroke:none;stroke-width:0.26458332"
       id="text1896">
      <path
         d="m -276.77997,216.32037 q 0,-1.17449 0.81993,-1.99441 0.84209,-0.84209 2.01657,-0.84209 h 11.34602 v -2.8365 h -14.18252 v -8.50951 h 17.01902 q 0,1.19665 -0.84209,2.01657 -0.84208,0.81993 -1.99441,0.81993 h -11.34602 v 2.8365 h 14.18252 v 8.50951 z"
         style="font-style:normal;font-variant:normal;font-weight:bold;font-stretch:normal;line-height:0.80000001;font-family:TESLA;-inkscape-font-specification:'TESLA Bold';text-align:center;text-anchor:middle;stroke-width:0.26458332"
         id="path1982" />
      <path
         d="m -254.08794,216.32037 q -1.19665,0 -2.01658,-0.81992 -0.81993,-0.84209 -0.81993,-2.01658 v -5.67301 q 0,-1.17449 0.81993,-1.99441 0.84209,-0.84209 2.01658,-0.84209 h 11.34601 l -4.25476,4.25476 h 4.25476 l -2.8365,2.8365 h -7.09126 l 4.25475,-4.25476 h -4.25475 q -0.59833,0 -1.01937,0.42105 -0.39888,0.42104 -0.39888,0.99721 v 2.8365 q 0,0.59832 0.39888,1.01937 0.42104,0.39888 1.01937,0.39888 h 9.92776 q 0,1.19665 -0.84209,2.01658 -0.84208,0.81992 -1.99441,0.81992 z"
         style="font-style:normal;font-variant:normal;font-weight:bold;font-stretch:normal;line-height:0.80000001;font-family:TESLA;-inkscape-font-specification:'TESLA Bold';text-align:center;text-anchor:middle;stroke-width:0.26458332"
         id="path1984" />
      <path
         d="m -239.90543,216.32037 v -8.50951 q 0,-1.17449 0.81993,-1.99441 0.84209,-0.84209 2.01658,-0.84209 h 11.34601 q 0,1.19665 -0.84209,2.01658 -0.84208,0.81992 -1.99441,0.81992 h -7.09126 q -0.59833,0 -1.01937,0.42105 -0.39888,0.42104 -0.39888,0.99721 v 7.09125 z"
         style="font-style:normal;font-variant:normal;font-weight:bold;font-stretch:normal;line-height:0.80000001;font-family:TESLA;-inkscape-font-specification:'TESLA Bold';text-align:center;text-anchor:middle;stroke-width:0.26458332"
         id="path1986" />
      <path
         d="m -217.2134,216.32037 -5.67301,-11.34601 h 2.83651 l 4.25475,8.50951 4.25476,-8.50951 h 2.8365 l -5.67301,11.34601 z"
         style="font-style:normal;font-variant:normal;font-weight:bold;font-stretch:normal;line-height:0.80000001;font-family:TESLA;-inkscape-font-specification:'TESLA Bold';text-align:center;text-anchor:middle;stroke-width:0.26458332"
         id="path1988" />
      <path
         d="m -205.86739,216.32037 v -11.34601 h 2.83651 v 11.34601 z"
         style="font-style:normal;font-variant:normal;font-weight:bold;font-stretch:normal;line-height:0.80000001;font-family:TESLA;-inkscape-font-specification:'TESLA Bold';text-align:center;text-anchor:middle;stroke-width:0.26458332"
         id="path1990" />
      <path
         d="m -197.35788,216.32037 q -1.19665,0 -2.01658,-0.81992 -0.81992,-0.84209 -0.81992,-2.01658 v -8.50951 h 14.18251 q 0,1.19665 -0.84208,2.01658 -0.84209,0.81992 -1.99442,0.81992 h -8.50951 v 4.25476 q 0,0.59832 0.39888,1.01937 0.42105,0.39888 1.01937,0.39888 h 9.92776 q 0,1.19665 -0.84208,2.01658 -0.84209,0.81992 -1.99442,0.81992 z"
         style="font-style:normal;font-variant:normal;font-weight:bold;font-stretch:normal;line-height:0.80000001;font-family:TESLA;-inkscape-font-specification:'TESLA Bold';text-align:center;text-anchor:middle;stroke-width:0.26458332"
         id="path1992" />
      <path
         d="m -180.33886,216.32037 q -1.19665,0 -2.01658,-0.81992 -0.81992,-0.84209 -0.81992,-2.01658 v -5.67301 q 0,-1.17449 0.81992,-1.99441 0.84209,-0.84209 2.01658,-0.84209 h 11.34601 l -4.25475,4.25476 h 4.25475 l -2.8365,2.8365 h -7.09126 l 4.25476,-4.25476 h -4.25476 q -0.59832,0 -1.01937,0.42105 -0.39888,0.42104 -0.39888,0.99721 v 2.8365 q 0,0.59832 0.39888,1.01937 0.42105,0.39888 1.01937,0.39888 h 9.92776 q 0,1.19665 -0.84208,2.01658 -0.84209,0.81992 -1.99442,0.81992 z"
         style="font-style:normal;font-variant:normal;font-weight:bold;font-stretch:normal;line-height:0.80000001;font-family:TESLA;-inkscape-font-specification:'TESLA Bold';text-align:center;text-anchor:middle;stroke-width:0.26458332"
         id="path1994" />
    </g>
    <g
       aria-label="SHG LA 3E"
       style="font-style:normal;font-variant:normal;font-weight:bold;font-stretch:normal;font-size:19.9683075px;line-height:0.80000001;font-family:Gotham;-inkscape-font-specification:'Gotham Bold';letter-spacing:0px;word-spacing:0px;fill:#000000;fill-opacity:1;stroke:none;stroke-width:0.24971583"
       id="text1896-7"
       transform="matrix(1.0595376,0,0,1.0595376,4.1099624,-12.46341)">
      <path
         d="m -120.72588,212.19217 v -0.0399 q 0,-0.91854 -0.29952,-1.5775 -0.27956,-0.65895 -0.85864,-1.13819 -0.55911,-0.49921 -1.39778,-0.83867 -0.8187,-0.35943 -1.87702,-0.63898 -0.89858,-0.23962 -1.49762,-0.41934 -0.57909,-0.17971 -0.91855,-0.3794 -0.33946,-0.19968 -0.47924,-0.4393 -0.11981,-0.25959 -0.11981,-0.59905 v -0.0399 q 0,-0.51918 0.43931,-0.85864 0.45927,-0.35943 1.35784,-0.35943 0.89858,0 1.79715,0.3794 0.89857,0.35943 1.83708,0.99841 l 1.59747,-2.31632 q -1.07829,-0.85864 -2.37623,-1.31791 -1.27797,-0.45927 -2.81553,-0.45927 -1.07829,0 -1.97686,0.29952 -0.89858,0.29953 -1.55753,0.85864 -0.63899,0.55911 -0.99842,1.33788 -0.35943,0.75879 -0.35943,1.71727 v 0.0399 q 0,1.03835 0.3195,1.73724 0.33946,0.69889 0.93851,1.17813 0.59905,0.45927 1.45768,0.77877 0.85864,0.31949 1.91696,0.57908 0.87861,0.21965 1.41775,0.41933 0.55911,0.19968 0.85864,0.39937 0.31949,0.19968 0.41933,0.4393 0.11981,0.21965 0.11981,0.51918 v 0.0399 q 0,0.61902 -0.53914,0.97845 -0.51918,0.33946 -1.47766,0.33946 -1.1981,0 -2.21648,-0.45927 -0.99842,-0.45927 -1.95689,-1.23804 l -1.81712,2.17655 q 1.258,1.13819 2.79556,1.69731 1.53756,0.53914 3.13503,0.53914 1.13819,0 2.0767,-0.27956 0.93851,-0.29952 1.61743,-0.83866 0.67893,-0.55912 1.05832,-1.35785 0.3794,-0.8187 0.3794,-1.85705 z"
         style="font-style:normal;font-variant:normal;font-weight:bold;font-stretch:normal;line-height:0.80000001;font-family:Gotham;-inkscape-font-specification:'Gotham Bold';text-align:center;text-anchor:middle;stroke-width:0.24971583"
         id="path1967"
         inkscape:connector-curvature="0" />
      <path
         d="m -106.21641,216.32561 v -13.97782 h -3.07512 v 5.53122 h -5.67099 v -5.53122 h -3.07512 v 13.97782 h 3.07512 v -5.6111 h 5.67099 v 5.6111 z"
         style="font-style:normal;font-variant:normal;font-weight:bold;font-stretch:normal;line-height:0.80000001;font-family:Gotham;-inkscape-font-specification:'Gotham Bold';text-align:center;text-anchor:middle;stroke-width:0.24971583"
         id="path1969"
         inkscape:connector-curvature="0" />
      <path
         d="m -90.166567,214.34874 v -6.07036 h -6.070366 v 2.65578 h 3.095088 v 1.99684 q -1.17813,0.83866 -2.895405,0.83866 -0.93851,0 -1.717274,-0.31949 -0.758796,-0.33946 -1.337877,-0.93851 -0.559112,-0.59905 -0.878605,-1.39778 -0.299524,-0.8187 -0.299524,-1.77718 v -0.0399 q 0,-0.89857 0.299524,-1.67733 0.319493,-0.79874 0.858637,-1.37782 0.559113,-0.59905 1.277972,-0.93851 0.738827,-0.35943 1.577496,-0.35943 0.599049,0 1.098257,0.0998 0.499208,0.0999 0.918542,0.27956 0.439303,0.17971 0.838669,0.4393 0.399366,0.25959 0.798732,0.59905 l 1.936926,-2.33629 q -0.539144,-0.45927 -1.118225,-0.8187 -0.579081,-0.35943 -1.238035,-0.59905 -0.658954,-0.23962 -1.437718,-0.35943 -0.758796,-0.13978 -1.697306,-0.13978 -1.597465,0 -2.935342,0.57908 -1.337879,0.55912 -2.316319,1.55753 -0.97845,0.97845 -1.53756,2.29636 -0.53915,1.29794 -0.53915,2.79556 v 0.0399 q 0,1.55752 0.53915,2.87543 0.53914,1.31791 1.49762,2.27639 0.97845,0.95848 2.316323,1.49762 1.357845,0.53915 2.995246,0.53915 1.916957,0 3.394612,-0.63899 1.497623,-0.65895 2.575912,-1.5775 z"
         style="font-style:normal;font-variant:normal;font-weight:bold;font-stretch:normal;line-height:0.80000001;font-family:Gotham;-inkscape-font-specification:'Gotham Bold';text-align:center;text-anchor:middle;stroke-width:0.24971583"
         id="path1971"
         inkscape:connector-curvature="0" />
      <path
         d="m -71.177018,216.32561 v -2.79557 h -6.968939 v -11.18225 h -3.075119 v 13.97782 z"
         style="font-style:normal;font-variant:normal;font-weight:bold;font-stretch:normal;line-height:0.80000001;font-family:Gotham;-inkscape-font-specification:'Gotham Bold';text-align:center;text-anchor:middle;stroke-width:0.24971583"
         id="path1973"
         inkscape:connector-curvature="0" />
      <path
         d="m -55.239501,216.32561 -5.990492,-14.07766 h -2.8355 l -5.990492,14.07766 h 3.135024 l 1.277972,-3.13503 h 5.910619 l 1.277971,3.13503 z m -5.591126,-5.85072 h -3.714105 l 1.857052,-4.5328 z"
         style="font-style:normal;font-variant:normal;font-weight:bold;font-stretch:normal;line-height:0.80000001;font-family:Gotham;-inkscape-font-specification:'Gotham Bold';text-align:center;text-anchor:middle;stroke-width:0.24971583"
         id="path1975"
         inkscape:connector-curvature="0" />
      <path
         d="m -41.704107,204.98361 -3.334707,3.35467 0.479239,1.9569 h 1.277972 q 1.317908,0 2.016799,0.45927 0.718859,0.45927 0.718859,1.33788 0,0.79873 -0.559113,1.258 -0.539144,0.45927 -1.41775,0.45927 -1.078288,0 -1.87702,-0.41933 -0.778764,-0.43931 -1.497624,-1.25801 l -2.11664,2.0168 q 0.898574,1.07829 2.216482,1.75721 1.337877,0.65896 3.234866,0.65896 1.158162,0 2.096672,-0.33946 0.938511,-0.33947 1.577496,-0.95848 0.658955,-0.61902 0.998416,-1.45769 0.359429,-0.83867 0.359429,-1.83708 0,-0.97845 -0.319493,-1.65737 -0.319493,-0.69889 -0.838669,-1.15817 -0.519176,-0.47923 -1.198098,-0.73882 -0.678922,-0.25959 -1.397782,-0.3794 l 3.534391,-3.37464 v -2.31633 h -9.44501 v 2.63582 z"
         style="font-style:normal;font-variant:normal;font-weight:bold;font-stretch:normal;line-height:0.80000001;font-family:Gotham;-inkscape-font-specification:'Gotham Bold';text-align:center;text-anchor:middle;stroke-width:0.24971583"
         id="path1977"
         inkscape:connector-curvature="0" />
      <path
         d="m -24.050251,216.32561 v -2.73566 h -7.587957 v -2.93534 h 6.589542 v -2.73566 h -6.589542 v -2.8355 h 7.488116 v -2.73566 h -10.543267 v 13.97782 z"
         style="font-style:normal;font-variant:normal;font-weight:bold;font-stretch:normal;line-height:0.80000001;font-family:Gotham;-inkscape-font-specification:'Gotham Bold';text-align:center;text-anchor:middle;stroke-width:0.24971583"
         id="path1979"
         inkscape:connector-curvature="0" />
    </g>
  </g>
</svg>
