<?xml version="1.0" encoding="UTF-8" standalone="no"?>
<!-- Created with Inkscape (http://www.inkscape.org/) -->

<svg
   xmlns:dc="http://purl.org/dc/elements/1.1/"
   xmlns:cc="http://creativecommons.org/ns#"
   xmlns:rdf="http://www.w3.org/1999/02/22-rdf-syntax-ns#"
   xmlns:svg="http://www.w3.org/2000/svg"
   xmlns="http://www.w3.org/2000/svg"
   xmlns:sodipodi="http://sodipodi.sourceforge.net/DTD/sodipodi-0.dtd"
   xmlns:inkscape="http://www.inkscape.org/namespaces/inkscape"
   width="210mm"
   height="297mm"
   viewBox="0 0 210 297"
   version="1.1"
   id="svg1230"
   inkscape:version="0.92.4 (5da689c313, 2019-01-14)"
   sodipodi:docname="ZoeParkingOnly.svg">
  <defs
     id="defs1224" />
  <sodipodi:namedview
     id="base"
     pagecolor="#ffffff"
     bordercolor="#666666"
     borderopacity="1.0"
     inkscape:pageopacity="0.0"
     inkscape:pageshadow="2"
     inkscape:zoom="0.98994948"
     inkscape:cx="26.381983"
     inkscape:cy="388.39673"
     inkscape:document-units="mm"
     inkscape:current-layer="layer1"
     showgrid="true"
     inkscape:window-width="1920"
     inkscape:window-height="1137"
     inkscape:window-x="-8"
     inkscape:window-y="-8"
     inkscape:window-maximized="1"
     showguides="false">
    <inkscape:grid
       type="xygrid"
       id="grid1878"
       empspacing="5" />
  </sodipodi:namedview>
  <metadata
     id="metadata1227">
    <rdf:RDF>
      <cc:Work
         rdf:about="">
        <dc:format>image/svg+xml</dc:format>
        <dc:type
           rdf:resource="http://purl.org/dc/dcmitype/StillImage" />
        <dc:title></dc:title>
      </cc:Work>
    </rdf:RDF>
  </metadata>
  <g
     inkscape:label="Ebene 1"
     inkscape:groupmode="layer"
     id="layer1">
    <path
       id="rect867-5"
       d="M -11.009617,-0.52382991 H 208.59038 V 299.07615 H -11.009617 Z"
       style="opacity:1;fill:none;fill-opacity:1;stroke:#000000;stroke-width:0.40000001;stroke-linejoin:round;stroke-miterlimit:4;stroke-dasharray:none;stroke-opacity:1;paint-order:markers fill stroke"
       inkscape:connector-curvature="0" />
    <path
       inkscape:connector-curvature="0"
       id="rect875-2"
       d="m 35.751133,9.4761699 c -19.29457,0 -34.93522,15.6195421 -34.93522,34.8880551 V 254.21014 c 0,19.26852 15.64065,34.88806 34.93522,34.88806 H 161.82963 c 19.29457,0 34.93522,-15.61954 34.93522,-34.88806 V 44.364225 c 0,-19.268513 -15.64065,-34.8880551 -34.93522,-34.8880551 z m 0,6.8200491 H 161.82963 c 15.62928,0 28.10595,12.459834 28.10595,28.068006 V 254.21014 c 0,15.60818 -12.47667,28.068 -28.10595,28.068 H 35.751133 c -15.62929,0 -28.10595,-12.45982 -28.10595,-28.068 V 44.364225 c 0,-15.608172 12.47666,-28.068006 28.10595,-28.068006 z"
       style="color:#000000;font-style:normal;font-variant:normal;font-weight:normal;font-stretch:normal;font-size:medium;line-height:normal;font-family:sans-serif;font-variant-ligatures:normal;font-variant-position:normal;font-variant-caps:normal;font-variant-numeric:normal;font-variant-alternates:normal;font-feature-settings:normal;text-indent:0;text-align:start;text-decoration:none;text-decoration-line:none;text-decoration-style:solid;text-decoration-color:#000000;letter-spacing:normal;word-spacing:normal;text-transform:none;writing-mode:lr-tb;direction:ltr;text-orientation:mixed;dominant-baseline:auto;baseline-shift:baseline;text-anchor:start;white-space:normal;shape-padding:0;clip-rule:nonzero;display:inline;overflow:visible;visibility:visible;opacity:1;isolation:auto;mix-blend-mode:normal;color-interpolation:sRGB;color-interpolation-filters:linearRGB;solid-color:#000000;solid-opacity:1;vector-effect:none;fill:#000000;fill-opacity:1;fill-rule:nonzero;stroke:none;stroke-width:7;stroke-linecap:butt;stroke-linejoin:round;stroke-miterlimit:4;stroke-dasharray:none;stroke-dashoffset:0;stroke-opacity:1;paint-order:markers fill stroke;color-rendering:auto;image-rendering:auto;shape-rendering:auto;text-rendering:auto;enable-background:accumulate" />
    <g
       id="g899"
       transform="translate(246.95704,-1.0690781)">
      <path
         inkscape:connector-curvature="0"
         style="opacity:1;fill:none;fill-opacity:1;stroke:#000000;stroke-width:0.2;stroke-linejoin:round;stroke-miterlimit:4;stroke-dasharray:none;stroke-opacity:1;paint-order:markers fill stroke"
         d="m -223.08034,268.33691 a 2.5,2.5 0 0 1 -2.5,2.5 2.5,2.5 0 0 1 -2.5,-2.5 2.5,2.5 0 0 1 2.5,-2.5 2.5,2.5 0 0 1 2.5,2.5 z"
         id="path879-4" />
      <path
         inkscape:connector-curvature="0"
         style="opacity:1;fill:none;fill-opacity:1;stroke:#000000;stroke-width:0.2;stroke-linejoin:round;stroke-miterlimit:4;stroke-dasharray:none;stroke-opacity:1;paint-order:markers fill stroke"
         d="m -68.166664,268.04525 a 2.5,2.5 0 0 1 -2.5,2.5 2.5,2.5 0 0 1 -2.5,-2.5 2.5,2.5 0 0 1 2.5,-2.5 2.5,2.5 0 0 1 2.5,2.5 z"
         id="path881-7" />
      <path
         inkscape:connector-curvature="0"
         style="opacity:1;fill:none;fill-opacity:1;stroke:#000000;stroke-width:0.2;stroke-linejoin:round;stroke-miterlimit:4;stroke-dasharray:none;stroke-opacity:1;paint-order:markers fill stroke"
         d="m -67.788694,32.958939 a 2.5,2.5 0 0 1 -2.5,2.5 2.5,2.5 0 0 1 -2.5,-2.5 2.5,2.5 0 0 1 2.5,-2.5 2.5,2.5 0 0 1 2.5,2.5 z"
         id="path883-8" />
      <path
         inkscape:connector-curvature="0"
         style="opacity:1;fill:none;fill-opacity:1;stroke:#000000;stroke-width:0.2;stroke-linejoin:round;stroke-miterlimit:4;stroke-dasharray:none;stroke-opacity:1;paint-order:markers fill stroke"
         d="m -222.78868,32.958939 a 2.5,2.5 0 0 1 -2.5,2.5 2.5,2.5 0 0 1 -2.5,-2.5 2.5,2.5 0 0 1 2.5,-2.5 2.5,2.5 0 0 1 2.5,2.5 z"
         id="path885-8" />
    </g>
    <path
       style="fill:#000000;stroke-width:0.99999988"
       d="m 85.87349,-16.11162 c -1.67165,-0.1403 -2.25305,-0.39232 -3.02697,-1.31208 -3.41301,-4.05612 -25.04682,-42.43733 -26.63465,-47.3166 -0.25971,-0.79806 -0.15123,-0.3766 0,-1 0.51549,-2.12512 8.66332,-18.03037 14.53215,-28.23789 4.87792,-8.48401 11.97816,-20.08955 12.6785,-20.72335 0.747,-0.67603 1.72573,-0.73198 12.93502,-0.73954 l 12.12687,-0.008 1.08812,1.21758 c 1.57952,1.76746 13.02775,21.15034 18.42067,31.18787 4.21438,7.84393 8.25923,16.28438 8.25923,17.23464 0,1.25414 -6.48517,14.24727 -11.93813,23.9182 -6.09225,10.80473 -14.15108,24.19125 -15.05689,25.011 -0.72822,0.65903 -1.76964,0.73764 -11.05938,0.83477 -5.64051,0.059 -11.18654,0.029 -12.32454,-0.0664 z m 7.35319,-13.18823 c 7.4422,-13.35182 17.67825,-34.93096 17.67828,-36.44783 3e-5,-0.74986 -2.47132,-6.11601 -6.65468,-14.44967 l -6.65473,-13.25686 1.1,-2.64767 c 0.605,-1.45621 3.0261,-5.7946 4.61867,-9.96849 3.49087,-9.14901 2.5931,-8.61571 -6.10235,7.33007 -6.92806,12.57916 -15.5317,31.64159 -15.5317,33.0041 0,0.6801 2.68634,6.5038 6.65991,14.43804 L 95,-38 l -0.90119,2.22944 c -0.49565,1.22619 -2.70474,5.64076 -4.62215,9.94326 -3.66443,8.22267 -3.28675,9.15189 3.75002,-3.47255 z"
       id="path1832"
       inkscape:connector-curvature="0"
       sodipodi:nodetypes="ccccccccscsscccscsccscssccss" />
    <g
       aria-label="ZOE"
       style="font-style:normal;font-variant:normal;font-weight:bold;font-stretch:normal;font-size:61.92498398px;line-height:1.25;font-family:Bahnschrift;-inkscape-font-specification:'Bahnschrift Bold';letter-spacing:0px;word-spacing:0px;fill:#000000;fill-opacity:1;stroke:none;stroke-width:0.30841255"
       id="text1856"
       transform="matrix(0.85788767,0,0,0.85788767,211.59296,2.0633331)">
      <path
         d="m -170.60622,39.931326 -24.12734,38.087312 h 24.93428 v 10.651535 h -38.08731 v -9.925295 l 24.12734,-38.08731 h -23.4011 V 30.006031 h 36.55413 z"
         style="font-style:normal;font-variant:normal;font-weight:bold;font-stretch:normal;font-family:Bahnschrift;-inkscape-font-specification:'Bahnschrift Bold';stroke-width:0.30841255"
         id="path914"
         inkscape:connector-curvature="0" />
      <path
         d="m -149.10229,78.113417 q -5.21352,0 -9.20615,-2.159719 -3.95963,-2.192441 -6.13742,-6.151924 -2.17781,-3.992208 -2.17781,-9.227888 V 47.092009 q 0,-5.23568 2.17781,-9.195163 2.17779,-3.992206 6.13742,-6.151924 3.99263,-2.192441 9.20615,-2.192441 5.21351,0 9.17314,2.192441 3.99263,2.159718 6.17044,6.151924 2.17779,3.959483 2.17779,9.195163 v 13.481877 q 0,5.23568 -2.17779,9.227888 -2.17781,3.959483 -6.17044,6.151924 -3.95963,2.159719 -9.17314,2.159719 z m 0,-8.966105 q 2.44177,0 4.2896,-1.014413 1.84783,-1.047135 2.83773,-2.945069 1.02291,-1.897935 1.02291,-4.384882 v -13.94 q 0,-2.486948 -1.02291,-4.384881 -0.9899,-1.897934 -2.83773,-2.912347 -1.84783,-1.047137 -4.2896,-1.047137 -2.44178,0 -4.28961,1.047137 -1.84782,1.014413 -2.87073,2.912347 -0.9899,1.897933 -0.9899,4.384881 v 13.94 q 0,2.486947 0.9899,4.384882 1.02291,1.897934 2.87073,2.945069 1.84783,1.014413 4.28961,1.014413 z"
         style="font-style:normal;font-variant:normal;font-weight:bold;font-stretch:normal;font-family:Bahnschrift;-inkscape-font-specification:'Bahnschrift Bold';stroke-width:0.30841255"
         id="path916"
         inkscape:connector-curvature="0" />
      <path
         style="font-style:normal;font-variant:normal;font-weight:bold;font-stretch:normal;font-family:Bahnschrift;-inkscape-font-specification:'Bahnschrift Bold';stroke-width:0.30841258"
         d="m -122.60593,30.043177 v 47.579388 h 3.26705 5.77421 23.098127 V 68.98362 H -113.56467 V 58.315972 h 19.468213 v -8.638947 h -19.468213 v -10.9949 h 23.098127 v -8.638948 h -23.098127 -5.77421 z"
         id="path874"
         inkscape:connector-curvature="0" />
    </g>
    <text
       xml:space="preserve"
       style="font-style:normal;font-variant:normal;font-weight:bold;font-stretch:normal;font-size:31.88658714px;line-height:1.25;font-family:Bahnschrift;-inkscape-font-specification:'Bahnschrift Bold';text-align:center;letter-spacing:0px;word-spacing:0px;text-anchor:middle;fill:#000000;fill-opacity:1;stroke:none;stroke-width:0.26458332"
       x="98.443695"
       y="224.67508"
       id="text1856-2"><tspan
         sodipodi:role="line"
         id="tspan1854-4"
         x="98.443695"
         y="224.67508"
         style="font-style:normal;font-variant:normal;font-weight:bold;font-stretch:normal;font-family:Bahnschrift;-inkscape-font-specification:'Bahnschrift Bold';text-align:center;text-anchor:middle;stroke-width:0.26458332">PARKING</tspan><tspan
         sodipodi:role="line"
         x="98.443695"
         y="264.53329"
         style="font-style:normal;font-variant:normal;font-weight:bold;font-stretch:normal;font-family:Bahnschrift;-inkscape-font-specification:'Bahnschrift Bold';text-align:center;text-anchor:middle;stroke-width:0.26458332"
         id="tspan1876">ONLY</tspan></text>
    <g
       id="g893"
       transform="translate(246.95704,-1.0690781)">
      <path
         inkscape:connector-curvature="0"
         style="opacity:1;fill:none;fill-opacity:1;stroke:#000000;stroke-width:0.40000001;stroke-linejoin:round;stroke-miterlimit:4;stroke-dasharray:none;stroke-opacity:1;paint-order:markers fill stroke"
         d="m -477.56666,0.5452482 h 219.6 V 300.14523 h -219.6 z"
         id="rect867-5-2" />
      <path
         style="color:#000000;font-style:normal;font-variant:normal;font-weight:normal;font-stretch:normal;font-size:medium;line-height:normal;font-family:sans-serif;font-variant-ligatures:normal;font-variant-position:normal;font-variant-caps:normal;font-variant-numeric:normal;font-variant-alternates:normal;font-feature-settings:normal;text-indent:0;text-align:start;text-decoration:none;text-decoration-line:none;text-decoration-style:solid;text-decoration-color:#000000;letter-spacing:normal;word-spacing:normal;text-transform:none;writing-mode:lr-tb;direction:ltr;text-orientation:mixed;dominant-baseline:auto;baseline-shift:baseline;text-anchor:start;white-space:normal;shape-padding:0;clip-rule:nonzero;display:inline;overflow:visible;visibility:visible;opacity:1;isolation:auto;mix-blend-mode:normal;color-interpolation:sRGB;color-interpolation-filters:linearRGB;solid-color:#000000;solid-opacity:1;vector-effect:none;fill:#000000;fill-opacity:1;fill-rule:nonzero;stroke:none;stroke-width:7;stroke-linecap:butt;stroke-linejoin:round;stroke-miterlimit:4;stroke-dasharray:none;stroke-dashoffset:0;stroke-opacity:1;paint-order:markers fill stroke;color-rendering:auto;image-rendering:auto;shape-rendering:auto;text-rendering:auto;enable-background:accumulate"
         d="m -430.80591,10.545248 c -19.29457,0 -34.93522,15.61955 -34.93522,34.88806 V 255.27922 c 0,19.26853 15.64065,34.88807 34.93522,34.88807 h 126.0785 c 19.29457,0 34.93522,-15.61954 34.93522,-34.88807 V 45.433308 c 0,-19.26851 -15.64065,-34.88806 -34.93522,-34.88806 z m 0,6.82005 h 126.0785 c 15.62928,0 28.10595,12.45984 28.10595,28.06801 V 255.27922 c 0,15.60818 -12.47667,28.06801 -28.10595,28.06801 h -126.0785 c -15.62929,0 -28.10595,-12.45983 -28.10595,-28.06801 V 45.433308 c 0,-15.60817 12.47666,-28.06801 28.10595,-28.06801 z"
         id="rect875-2-1"
         inkscape:connector-curvature="0" />
      <path
         inkscape:connector-curvature="0"
         style="opacity:1;fill:none;fill-opacity:1;stroke:#000000;stroke-width:0.2;stroke-linejoin:round;stroke-miterlimit:4;stroke-dasharray:none;stroke-opacity:1;paint-order:markers fill stroke"
         d="m -442.68034,268.33692 a 2.5,2.5 0 0 1 -2.5,2.49999 2.5,2.5 0 0 1 -2.5,-2.49999 2.5,2.5 0 0 1 2.5,-2.5 2.5,2.5 0 0 1 2.5,2.5 z"
         id="path879-4-2" />
      <path
         inkscape:connector-curvature="0"
         style="opacity:1;fill:none;fill-opacity:1;stroke:#000000;stroke-width:0.2;stroke-linejoin:round;stroke-miterlimit:4;stroke-dasharray:none;stroke-opacity:1;paint-order:markers fill stroke"
         d="m -287.76666,268.04524 a 2.5,2.5 0 0 1 -2.5,2.50002 2.5,2.5 0 0 1 -2.5,-2.50002 2.5,2.5 0 0 1 2.5,-2.49999 2.5,2.5 0 0 1 2.5,2.49999 z"
         id="path881-7-3" />
      <path
         inkscape:connector-curvature="0"
         style="opacity:1;fill:none;fill-opacity:1;stroke:#000000;stroke-width:0.2;stroke-linejoin:round;stroke-miterlimit:4;stroke-dasharray:none;stroke-opacity:1;paint-order:markers fill stroke"
         d="m -287.38869,32.958938 a 2.5,2.5 0 0 1 -2.5,2.5 2.5,2.5 0 0 1 -2.5,-2.5 2.5,2.5 0 0 1 2.5,-2.49999 2.5,2.5 0 0 1 2.5,2.49999 z"
         id="path883-8-3" />
      <path
         inkscape:connector-curvature="0"
         style="opacity:1;fill:none;fill-opacity:1;stroke:#000000;stroke-width:0.2;stroke-linejoin:round;stroke-miterlimit:4;stroke-dasharray:none;stroke-opacity:1;paint-order:markers fill stroke"
         d="m -442.38868,32.958938 a 2.5,2.5 0 0 1 -2.5,2.5 2.5,2.5 0 0 1 -2.5,-2.5 2.5,2.5 0 0 1 2.5,-2.49999 2.5,2.5 0 0 1 2.5,2.49999 z"
         id="path885-8-0" />
      <path
         sodipodi:nodetypes="ccccccccscsscccscsccscssccss"
         inkscape:connector-curvature="0"
         id="path1832-4"
         d="m -380.45028,185.62868 c -1.67165,-0.1403 -2.25305,-0.39232 -3.02697,-1.31208 -3.41301,-4.05612 -25.04682,-42.43733 -26.63465,-47.3166 -0.25971,-0.79806 -0.15123,-0.3766 0,-1 0.51549,-2.12512 8.66332,-18.03037 14.53215,-28.23789 4.87792,-8.484002 11.97816,-20.089532 12.6785,-20.723332 0.747,-0.67602 1.72573,-0.73198 12.93502,-0.73954 l 12.12687,-0.008 1.08812,1.21758 c 1.57952,1.76746 13.02775,21.150322 18.42067,31.187852 4.21438,7.84393 8.25923,16.28438 8.25923,17.23464 0,1.25414 -6.48517,14.24727 -11.93813,23.9182 -6.09225,10.80473 -14.15108,24.19125 -15.05689,25.011 -0.72822,0.65903 -1.76964,0.73764 -11.05938,0.83477 -5.64051,0.059 -11.18654,0.029 -12.32454,-0.0664 z m 7.35319,-13.18823 c 7.4422,-13.35182 17.67825,-34.93096 17.67828,-36.44783 3e-5,-0.74986 -2.47132,-6.11601 -6.65468,-14.44967 l -6.65473,-13.25686 1.1,-2.64767 c 0.605,-1.45621 3.0261,-5.794592 4.61867,-9.968472 3.49087,-9.14901 2.5931,-8.61571 -6.10235,7.330052 -6.92806,12.57916 -15.5317,31.64159 -15.5317,33.0041 0,0.6801 2.68634,6.5038 6.65991,14.43804 l 6.65992,13.29816 -0.90119,2.22944 c -0.49565,1.22619 -2.70474,5.64076 -4.62215,9.94326 -3.66443,8.22267 -3.28675,9.15189 3.75002,-3.47255 z"
         style="fill:#000000;stroke-width:0.99999988" />
      <text
         id="text1856-9"
         y="72.366745"
         x="-432.42957"
         style="font-style:normal;font-variant:normal;font-weight:bold;font-stretch:normal;font-size:61.92498398px;line-height:1.25;font-family:'Sitka Small';-inkscape-font-specification:'Sitka Small Bold';letter-spacing:0px;word-spacing:0px;fill:#000000;fill-opacity:1;stroke:none;stroke-width:0.26458332"
         xml:space="preserve"><tspan
           style="font-style:normal;font-variant:normal;font-weight:bold;font-stretch:normal;font-family:'Sitka Small';-inkscape-font-specification:'Sitka Small Bold';stroke-width:0.26458332"
           y="72.366745"
           x="-432.42957"
           id="tspan1854-6"
           sodipodi:role="line">ZOE</tspan></text>
      <text
         id="text1856-2-4"
         y="225.74416"
         x="-368.11334"
         style="font-style:normal;font-variant:normal;font-weight:bold;font-stretch:normal;font-size:31.88658714px;line-height:1.25;font-family:'Sitka Small';-inkscape-font-specification:'Sitka Small Bold';text-align:center;letter-spacing:0px;word-spacing:0px;text-anchor:middle;fill:#000000;fill-opacity:1;stroke:none;stroke-width:0.26458332"
         xml:space="preserve"><tspan
           style="font-style:normal;font-variant:normal;font-weight:bold;font-stretch:normal;font-family:'Sitka Small';-inkscape-font-specification:'Sitka Small Bold';text-align:center;text-anchor:middle;stroke-width:0.26458332"
           y="225.74416"
           x="-368.11334"
           id="tspan1854-4-7"
           sodipodi:role="line">PARKING</tspan><tspan
           id="tspan1876-9"
           style="font-style:normal;font-variant:normal;font-weight:bold;font-stretch:normal;font-family:'Sitka Small';-inkscape-font-specification:'Sitka Small Bold';text-align:center;text-anchor:middle;stroke-width:0.26458332"
           y="265.60239"
           x="-368.11334"
           sodipodi:role="line">ONLY</tspan></text>
    </g>
    <path
       style="fill:#000000;stroke-width:1"
       d="m 345.32311,74.207708 c -12.84598,0.05785 -19.7562,5.308244 -19.81192,16.851891 H 291.76335 258.0148 l -7.1e-4,2.2665 v 2.267205 l 33.74857,-0.278478 33.74853,-0.277774 v 3.831882 c 0.38094,10.041376 7.34462,12.285446 20.40136,12.335296 l 10.41056,0.004 v -6 -5 l 5.95986,-0.0819 c 4.25313,-0.0585 5.54073,-0.351147 5.54073,-1.511232 0,-1.156621 -1.27576,-1.510534 -5.43524,-1.510534 l -6.06535,0.103687 v -4 -4 l 5.17787,-0.163369 c 4.59412,-0.144951 5.31499,-0.265283 5.31499,-1.962004 0,-1.65678 -1.02706,-1.617619 -5.49286,-1.874627 h -5 v -6 -5 z m -2.52174,4.259908 7.52174,-0.259908 v 14 15.000002 l -5.89517,-0.0928 c -11.26581,-0.11374 -12.78934,-1.24818 -13.35783,-13.622911 -0.003,-11.780083 4.66096,-14.595954 11.73126,-15.024447 z"
       id="path923"
       inkscape:connector-curvature="0"
       sodipodi:nodetypes="cccccccccccccssscccssccccccccccccc" />
    <path
       style="fill:#000000;fill-opacity:1;stroke:none;stroke-width:0.62362206;stroke-linejoin:round;paint-order:markers fill stroke"
       d="m 634.96094,215.43359 c -7.55936,-5.2e-4 -22.67747,-5.2e-4 -37.79558,-5.2e-4 -30.23622,0 -50.00507,28.18021 -52.62825,56.69388 h -283.75 v 11.33789 h 283.77344 c 2.63436,28.4942 22.36859,56.69264 52.60481,56.69264 15.11811,0 30.23622,0 37.79558,7.2e-4 v -6.81836 -15.85937 h 45.35351 v -11.33789 h -45.35351 v -56.69336 h 45.35351 v -11.33984 h -45.35351 v -15.79102 z"
       transform="scale(0.26458333)"
       id="rect852"
       inkscape:connector-curvature="0"
       sodipodi:nodetypes="ccccccccccccccccccc" />
    <path
       style="fill:#000000;fill-opacity:1;stroke:none;stroke-width:0.16500001;stroke-linejoin:round;paint-order:markers fill stroke"
       d="m 86.05831,89.416806 -27.99984,50.000064 27.99984,49.69981 h 25.00003 l 28.09308,-49.56165 -28.09308,-50.138224 z m 21.09311,3.13821 v 0 l -6,20.000014 12,27 -23.000009,46 v 0 l 6,-19 -12,-27 z"
       id="rect892"
       inkscape:connector-curvature="0"
       sodipodi:nodetypes="cccccccccccccccc" />
  </g>
</svg>
