<?xml version="1.0" encoding="UTF-8" standalone="no"?>
<!-- Created with Inkscape (http://www.inkscape.org/) -->

<svg
   width="210mm"
   height="297mm"
   viewBox="0 0 210 297"
   version="1.1"
   id="svg1"
   inkscape:version="1.4.2 (f4327f4, 2025-05-13)"
   sodipodi:docname="ArcadeV1.svg"
   xmlns:inkscape="http://www.inkscape.org/namespaces/inkscape"
   xmlns:sodipodi="http://sodipodi.sourceforge.net/DTD/sodipodi-0.dtd"
   xmlns="http://www.w3.org/2000/svg"
   xmlns:svg="http://www.w3.org/2000/svg">
  <sodipodi:namedview
     id="namedview1"
     pagecolor="#ffffff"
     bordercolor="#666666"
     borderopacity="1.0"
     inkscape:showpageshadow="2"
     inkscape:pageopacity="0.0"
     inkscape:pagecheckerboard="0"
     inkscape:deskcolor="#d1d1d1"
     inkscape:document-units="mm"
     showgrid="true"
     inkscape:zoom="1.4142136"
     inkscape:cx="519.36993"
     inkscape:cy="565.33187"
     inkscape:window-width="3440"
     inkscape:window-height="1369"
     inkscape:window-x="2552"
     inkscape:window-y="-8"
     inkscape:window-maximized="1"
     inkscape:current-layer="layer1">
    <inkscape:grid
       id="grid1"
       units="mm"
       originx="0"
       originy="0"
       spacingx="0.99999998"
       spacingy="1"
       empcolor="#0099e5"
       empopacity="0.30196078"
       color="#0099e5"
       opacity="0.14901961"
       empspacing="10"
       enabled="true"
       visible="true" />
  </sodipodi:namedview>
  <defs
     id="defs1" />
  <g
     inkscape:label="Ebene 1"
     inkscape:groupmode="layer"
     id="layer1">
    <path
       id="text20"
       style="font-style:normal;font-variant:normal;font-weight:normal;font-stretch:normal;font-size:61.4022px;line-height:1.25;font-family:'Neon 80s';-inkscape-font-specification:'Neon 80s';fill:#ff0000;fill-opacity:1;stroke-width:0.264583"
       sodipodi:type="inkscape:offset"
       inkscape:radius="2.0841439"
       inkscape:original="M 27.796875 104.07422 C 26.957392 104.07422 26.247612 104.37498 25.667969 104.97461 C 25.388141 105.25444 25.178976 105.55324 25.039062 105.87305 L 7.2597656 142.51172 C 6.9599502 142.97144 6.8105469 143.49067 6.8105469 144.07031 C 6.8105469 144.88981 7.1000443 145.59959 7.6796875 146.19922 C 8.2593307 146.77886 8.9691106 147.06836 9.8085938 147.06836 C 10.628089 147.06836 11.337869 146.77886 11.9375 146.19922 C 12.19734 145.91939 12.397196 145.62989 12.537109 145.33008 L 17.513672 135.07617 L 38.050781 135.07617 L 43.027344 145.33008 L 43.058594 145.33008 C 43.198508 145.62989 43.398363 145.91939 43.658203 146.19922 C 44.237846 146.77886 44.947626 147.06836 45.787109 147.06836 C 46.606605 147.06836 47.305122 146.77886 47.884766 146.19922 C 48.484396 145.59959 48.785156 144.88981 48.785156 144.07031 C 48.785156 143.43071 48.615181 142.87033 48.275391 142.39062 L 30.496094 105.75391 C 30.35618 105.47408 30.165634 105.21446 29.925781 104.97461 C 29.32615 104.37498 28.61637 104.07422 27.796875 104.07422 z M 167.54102 108.15234 C 166.70153 108.15234 165.98244 108.45115 165.38281 109.05078 C 164.78318 109.65041 164.48242 110.37145 164.48242 111.21094 L 164.48242 120.02539 C 161.924 118.10657 158.97662 117.14648 155.63867 117.14648 C 151.50122 117.14648 147.97289 118.60523 145.05469 121.52344 C 142.13648 124.44164 140.67773 127.96997 140.67773 132.10742 C 140.67773 136.24487 142.13648 139.7732 145.05469 142.69141 C 147.97289 145.60961 151.50122 147.06836 155.63867 147.06836 C 159.77612 147.06836 163.30445 145.60961 166.22266 142.69141 C 169.10088 139.81318 170.55963 136.3353 170.59961 132.25781 L 170.59961 111.21094 C 170.59961 110.37145 170.29885 109.65041 169.69922 109.05078 C 169.09959 108.45115 168.3805 108.15234 167.54102 108.15234 z M 27.796875 113.9375 L 35.142578 129.08008 L 20.421875 129.08008 L 27.796875 113.9375 z M 69.861328 117.08594 C 65.543986 117.28581 62.006349 118.76514 59.248047 121.52344 C 56.369819 124.40167 54.911069 127.87954 54.871094 131.95703 L 54.871094 143.5293 C 54.871094 144.68858 55.1699 145.56834 55.769531 146.16797 C 56.369162 146.7676 57.090204 147.06836 57.929688 147.06836 C 58.769171 147.06836 59.48826 146.7676 60.087891 146.16797 C 60.687521 145.56834 60.986328 144.70915 60.986328 143.58984 L 60.986328 132.01758 C 60.986328 131.83769 60.977019 131.6584 60.957031 131.47852 C 61.076957 129.27987 61.936141 127.38957 63.535156 125.81055 C 65.274086 124.07162 67.373545 123.20312 69.832031 123.20312 L 69.861328 123.20312 C 70.700811 123.20312 71.4199 122.90237 72.019531 122.30273 C 72.619162 121.7031 72.919922 120.98401 72.919922 120.14453 C 72.919922 119.30505 72.619162 118.58596 72.019531 117.98633 C 71.4199 117.3867 70.700811 117.08594 69.861328 117.08594 z M 89.050781 117.14648 C 84.913328 117.14648 81.385 118.60523 78.466797 121.52344 C 75.548593 124.44164 74.089844 127.96997 74.089844 132.10742 C 74.089844 136.24487 75.548593 139.7732 78.466797 142.69141 C 81.385 145.60961 84.913328 147.06836 89.050781 147.06836 C 93.188234 147.06836 96.7053 145.61892 99.603516 142.7207 L 99.664062 142.66016 C 100.26369 142.06053 100.5625 141.34144 100.5625 140.50195 C 100.5625 139.66247 100.26369 138.95269 99.664062 138.37305 C 99.064432 137.77342 98.343389 137.47461 97.503906 137.47461 C 96.664423 137.47461 95.954643 137.76411 95.375 138.34375 L 95.316406 138.4043 C 93.577477 140.12324 91.48928 140.98242 89.050781 140.98242 C 86.592295 140.98242 84.492836 140.11198 82.753906 138.37305 C 81.014977 136.63412 80.144531 134.53661 80.144531 132.07812 C 80.144531 129.61964 81.014977 127.52949 82.753906 125.81055 C 84.492836 124.07162 86.592295 123.20312 89.050781 123.20312 C 91.509268 123.20312 93.597464 124.06231 95.316406 125.78125 L 95.345703 125.78125 C 95.925346 126.38088 96.635126 126.67969 97.474609 126.67969 C 98.294105 126.67969 98.994576 126.39019 99.574219 125.81055 C 100.17385 125.21092 100.47266 124.50114 100.47266 123.68164 C 100.47266 122.84216 100.18316 122.13433 99.603516 121.55469 C 99.583528 121.55469 99.574219 121.54343 99.574219 121.52344 L 99.603516 121.49414 C 96.7053 118.59592 93.188234 117.14648 89.050781 117.14648 z M 119.60156 117.14648 C 115.46411 117.14648 111.93578 118.60523 109.01758 121.52344 C 106.09937 124.44164 104.64062 127.96997 104.64062 132.10742 C 104.64062 136.24487 106.09937 139.7732 109.01758 142.69141 C 111.93578 145.60961 115.46411 147.06836 119.60156 147.06836 C 122.93951 147.06836 125.88689 146.10827 128.44531 144.18945 C 128.44531 145.30876 128.74607 146.069 129.3457 146.46875 C 129.94533 146.8685 130.66442 147.06836 131.50391 147.06836 C 132.34339 147.06836 133.06248 146.8685 133.66211 146.46875 C 134.26174 146.069 134.5625 145.28819 134.5625 144.12891 L 134.5625 131.95703 C 134.52252 127.87954 133.06182 124.40167 130.18359 121.52344 C 127.26539 118.60523 123.73902 117.14648 119.60156 117.14648 z M 191.67578 117.14648 C 187.53833 117.14648 184.01195 118.60523 181.09375 121.52344 C 178.17555 124.44164 176.7168 127.96997 176.7168 132.10742 C 176.7168 136.24487 178.17555 139.7732 181.09375 142.69141 C 184.01195 145.60961 187.53833 147.06836 191.67578 147.06836 C 195.81323 147.06836 199.33225 145.61892 202.23047 142.7207 L 202.29102 142.66016 C 202.89065 142.06053 203.18945 141.34144 203.18945 140.50195 C 203.18945 139.66247 202.89065 138.95269 202.29102 138.37305 C 201.69138 137.77342 200.97034 137.47461 200.13086 137.47461 C 199.29138 137.47461 198.5816 137.76411 198.00195 138.34375 L 197.94336 138.4043 C 196.20443 140.12324 194.11428 140.98242 191.67578 140.98242 C 189.21729 140.98242 187.11979 140.11198 185.38086 138.37305 C 183.64193 136.63412 182.77148 134.53661 182.77148 132.07812 C 182.77148 129.61964 183.64193 127.52949 185.38086 125.81055 C 187.11979 124.07162 189.21729 123.20312 191.67578 123.20312 C 192.99497 123.20312 194.20536 123.45343 195.30469 123.95312 L 189.30859 129.94922 C 188.72895 130.54885 188.43945 131.26794 188.43945 132.10742 C 188.43945 132.96689 188.72895 133.69724 189.30859 134.29688 C 189.90822 134.87652 190.63662 135.16602 191.49609 135.16602 C 192.33558 135.16602 193.05662 134.87652 193.65625 134.29688 L 202.23047 125.78125 C 202.81011 125.20161 203.09961 124.50114 203.09961 123.68164 C 203.09961 122.84216 202.81011 122.13433 202.23047 121.55469 C 202.21048 121.55469 202.19922 121.54343 202.19922 121.52344 L 202.23047 121.49414 C 199.33225 118.59592 195.81323 117.14648 191.67578 117.14648 z M 119.60156 123.20312 C 122.06005 123.20312 124.15755 124.07162 125.89648 125.81055 C 127.4955 127.38957 128.35468 129.27987 128.47461 131.47852 C 128.45462 131.6584 128.44531 131.83769 128.44531 132.01758 L 128.44531 133.15625 C 128.22545 135.15502 127.37557 136.89396 125.89648 138.37305 C 124.15755 140.11198 122.06005 140.98242 119.60156 140.98242 C 117.14308 140.98242 115.04362 140.11198 113.30469 138.37305 C 111.58575 136.63412 110.72656 134.53661 110.72656 132.07812 C 110.72656 129.61964 111.58575 127.52949 113.30469 125.81055 C 115.04362 124.07162 117.14308 123.20312 119.60156 123.20312 z M 155.63867 123.23242 C 158.09716 123.23242 160.19662 124.10287 161.93555 125.8418 C 163.41464 127.32089 164.26256 129.05982 164.48242 131.05859 L 164.48242 132.19727 C 164.48242 132.37715 164.49368 132.55644 164.51367 132.73633 C 164.39375 134.93497 163.53456 136.82527 161.93555 138.4043 C 160.19662 140.14323 158.09716 141.01172 155.63867 141.01172 C 153.18019 141.01172 151.08073 140.15254 149.3418 138.43359 C 147.62286 136.69466 146.76367 134.59521 146.76367 132.13672 C 146.76367 129.67823 147.62286 127.58073 149.3418 125.8418 C 151.08073 124.10287 153.18019 123.23242 155.63867 123.23242 z "
       d="m 27.796875,101.99023 c -1.332578,0 -2.686963,0.57289 -3.615234,1.52735 -0.430795,0.43404 -0.801045,0.94423 -1.052735,1.51953 l -17.7441404,36.56445 0.1289063,-0.22851 c -0.5189979,0.7958 -0.7871094,1.75949 -0.7871094,2.69726 0,1.31033 0.5452369,2.63691 1.4550781,3.57813 a 2.0843523,2.0843523 0 0 0 0.023437,0.0254 c 0.9358227,0.93582 2.2848808,1.47851 3.6035157,1.47851 1.3103332,0 2.6369142,-0.54524 3.5781252,-1.45507 a 2.0843523,2.0843523 0 0 0 0.07813,-0.0801 c 0.384958,-0.41458 0.716813,-0.88313 0.960937,-1.40625 l 4.392578,-9.05078 h 17.927735 l 4.40625,9.08007 a 2.0843523,2.0843523 0 0 0 0.06641,0.041 c 0.240148,0.49158 0.546497,0.9422 0.912109,1.33594 a 2.0843523,2.0843523 0 0 0 0.05273,0.0566 c 0.935822,0.93582 2.284881,1.47851 3.603515,1.47851 1.310334,0 2.645988,-0.55224 3.572266,-1.47851 0.934713,-0.93472 1.509766,-2.27409 1.509766,-3.60352 0,-1.00884 -0.299774,-2.04785 -0.892579,-2.88476 l 0.173829,0.29492 -17.779297,-36.63672 a 2.0843523,2.0843523 0 0 0 -0.01172,-0.0215 C 32.111567,104.32665 31.78172,103.88132 31.400391,103.5 30.465677,102.56529 29.1263,101.99023 27.796875,101.99023 Z m 139.744145,4.07813 c -1.33405,0 -2.68888,0.56387 -3.63282,1.50781 -0.94393,0.94394 -1.50976,2.29749 -1.50976,3.63477 v 5.41015 c -2.11052,-0.92264 -4.33829,-1.55859 -6.75977,-1.55859 -4.62732,0 -8.79201,1.71973 -12.05859,4.98633 -3.2666,3.26658 -4.98633,7.43127 -4.98633,12.05859 0,4.62733 1.71973,8.792 4.98633,12.0586 3.26658,3.26658 7.43127,4.98632 12.05859,4.98632 4.62733,0 8.792,-1.71974 12.0586,-4.98632 3.22283,-3.22285 4.94158,-7.3258 4.98632,-11.88868 a 2.0843523,2.0843523 0 0 0 0,-0.0195 v -21.04687 c 0,-1.33728 -0.56582,-2.69083 -1.50976,-3.63477 -0.94394,-0.94394 -2.29877,-1.50781 -3.63281,-1.50781 z m -97.679692,8.93359 a 2.0843523,2.0843523 0 0 0 -0.0957,0.002 c -4.739364,0.2194 -8.867313,1.92005 -11.992188,5.04492 -3.222837,3.22284 -4.941594,7.32579 -4.986328,11.88867 a 2.0843523,2.0843523 0 0 0 0,0.0195 v 11.57227 c 0,1.5174 0.432244,3.03771 1.507813,4.11328 0.94394,0.94394 2.297494,1.50976 3.634765,1.50976 1.337272,0 2.690473,-0.56742 3.632813,-1.50976 1.058715,-1.05872 1.507813,-2.56251 1.507812,-4.05274 v -11.57226 c 0,-0.15147 -0.01531,-0.30803 -0.02539,-0.46289 0.101137,-1.70293 0.692309,-3.01474 1.955078,-4.26172 a 2.0843523,2.0843523 0 0 0 0.0098,-0.008 c 1.391191,-1.3912 2.854618,-1.99805 4.822265,-1.99805 h 0.0293 c 1.337255,0 2.690463,-0.5674 3.632813,-1.50977 0.942342,-0.94234 1.509765,-2.29554 1.509765,-3.63281 0,-1.33727 -0.567423,-2.69047 -1.509765,-3.63281 -0.94234,-0.94234 -2.295542,-1.50977 -3.632813,-1.50977 z m 19.189453,0.0606 c -4.627327,0 -8.792007,1.71973 -12.058594,4.98633 -3.266589,3.26658 -4.986328,7.43127 -4.986328,12.05859 0,4.62733 1.719742,8.792 4.986328,12.0586 3.266587,3.26658 7.431267,4.98632 12.058594,4.98632 4.624201,0 8.778673,-1.70835 12.027349,-4.95703 l 0.0605,-0.0605 c 0.94394,-0.94394 1.50781,-2.29877 1.50781,-3.63282 0,-1.32936 -0.56934,-2.6854 -1.52539,-3.61523 -0.94483,-0.93655 -2.290167,-1.49609 -3.617184,-1.4961 -1.318635,0 -2.667693,0.5427 -3.603515,1.47852 a 2.0843523,2.0843523 0 0 0 -0.02344,0.0254 l -0.0293,0.0293 c -1.391574,1.37421 -2.849513,1.97461 -4.796875,1.97461 -1.966551,0 -3.430526,-0.60826 -4.822265,-2 -1.392291,-1.39229 -2,-2.85376 -2,-4.82032 0,-1.96654 0.604733,-3.41558 1.990234,-4.78515 a 2.0843523,2.0843523 0 0 0 0.0098,-0.008 c 1.391191,-1.3912 2.854618,-1.99805 4.822265,-1.99805 1.972911,0 3.423298,0.60103 4.791016,1.96875 a 2.0843523,2.0843523 0 0 0 0.111328,0.0449 c 0.926757,0.90775 2.229543,1.46289 3.521484,1.46289 1.310334,0 2.646281,-0.55059 3.574221,-1.47851 0.93631,-0.93631 1.50781,-2.2774 1.50781,-3.60352 0,-1.28675 -0.53263,-2.59063 -1.42578,-3.52148 0.44103,0.49617 0.52734,1.05329 0.52734,1.36328 l -0.58007,1.40429 a 2.0843523,2.0843523 0 0 0 0,-2.80468 c 0.0128,0.0131 0.0286,0.006 0.041,0.0195 -0.0173,-0.0179 -0.0234,-0.0449 -0.041,-0.0625 a 2.0843523,2.0843523 0 0 0 0,-0.0605 c -3.248676,-3.24867 -7.403148,-4.95703 -12.027349,-4.95703 z m 30.550779,0 c -4.62732,0 -8.79201,1.71973 -12.05859,4.98633 -3.2666,3.26658 -4.98633,7.43127 -4.98633,12.05859 0,4.62733 1.71974,8.792 4.98633,12.0586 3.26658,3.26658 7.43127,4.98632 12.05859,4.98632 2.79616,0 5.34191,-0.82543 7.70899,-2.05273 0.26244,0.39135 0.46216,0.82569 0.8789,1.10351 0.97274,0.64849 2.14418,0.94922 3.31446,0.94922 1.17027,0 2.34171,-0.30073 3.31445,-0.94922 1.3742,-0.91612 1.82812,-2.55446 1.82812,-4.07421 v -12.17188 a 2.0843523,2.0843523 0 0 0 0,-0.0195 c -0.0447,-4.56354 -1.76577,-8.66616 -4.98828,-11.88867 -3.26625,-3.26627 -7.4293,-4.98633 -12.05664,-4.98633 z m 72.07422,0 c -4.62732,0 -8.79038,1.72006 -12.05664,4.98633 -3.26658,3.26658 -4.98633,7.43127 -4.98633,12.05859 0,4.62733 1.71975,8.792 4.98633,12.0586 3.26626,3.26625 7.42932,4.98632 12.05664,4.98632 4.62368,0 8.7785,-1.70873 12.02734,-4.95703 l 0.0605,-0.0605 a 2.0843523,2.0843523 0 0 0 0.002,0 c 0.94395,-0.94395 1.50782,-2.29879 1.50782,-3.63282 0,-1.32934 -0.56934,-2.68539 -1.52539,-3.61523 -0.94483,-0.93653 -2.29017,-1.4961 -3.61719,-1.4961 -1.31863,0 -2.66769,0.54271 -3.60352,1.47852 a 2.0843523,2.0843523 0 0 0 -0.0234,0.0254 l -0.0293,0.0293 c -1.39103,1.37366 -2.85146,1.97461 -4.79883,1.97461 -1.96655,0 -3.42802,-0.60771 -4.82031,-2 -1.39229,-1.3923 -2,-2.85376 -2,-4.82032 0,-1.96653 0.60473,-3.41558 1.99023,-4.78515 a 2.0843523,2.0843523 0 0 0 0.01,-0.008 c 1.18015,-1.18016 2.47486,-1.69391 4.02148,-1.85352 l -3.04297,3.04297 a 2.0843523,2.0843523 0 0 0 -0.0234,0.0254 c -0.91733,0.94896 -1.45508,2.28879 -1.45508,3.60742 0,1.32748 0.5287,2.68034 1.45508,3.63867 a 2.0843523,2.0843523 0 0 0 0.0488,0.0488 c 0.95672,0.92482 2.30924,1.45508 3.63672,1.45508 1.31864,0 2.65879,-0.53618 3.60938,-1.45508 a 2.0843523,2.0843523 0 0 0 0.0195,-0.0195 l 8.57422,-8.51562 a 2.0843523,2.0843523 0 0 0 0.006,-0.004 c 0.92793,-0.92793 1.47851,-2.26388 1.47851,-3.57422 0,-1.28062 -0.53066,-2.57581 -1.41601,-3.50586 a 2.0843523,2.0843523 0 0 0 -0.0625,-0.15625 c -3.24901,-3.249 -7.4051,-4.95703 -12.0293,-4.95703 z m -163.882811,3.64063 4.021484,8.29296 h -8.060547 z m 91.808591,6.58398 c 1.96765,0 3.42857,0.6063 4.82032,1.99805 a 2.0843523,2.0843523 0 0 0 0.01,0.008 c 1.26277,1.24698 1.85394,2.55878 1.95508,4.26172 -0.0101,0.15486 -0.0254,0.31141 -0.0254,0.46289 v 0.95117 c -0.17694,1.52821 -0.76709,2.75732 -1.93945,3.92969 -1.3923,1.39229 -2.85376,2 -4.82032,2 -1.96554,0 -3.4292,-0.60782 -4.82031,-1.99805 -7.1e-4,-7.1e-4 -0.001,-0.001 -0.002,-0.002 -1.36716,-1.38707 -1.96875,-2.85202 -1.96875,-4.82032 0,-1.9729 0.60159,-3.42581 1.96875,-4.79296 1.39119,-1.39119 2.85462,-1.99805 4.82226,-1.99805 z m 36.03711,0.0293 c 1.96655,0 3.43053,0.60825 4.82227,2 1.17172,1.17172 1.76045,2.40019 1.9375,3.92968 v 0.95118 c 0,0.16118 0.0146,0.31125 0.0254,0.46484 -0.10157,1.70168 -0.69098,3.01339 -1.95313,4.25976 a 2.0843523,2.0843523 0 0 0 -0.01,0.008 c -1.39119,1.39119 -2.85461,1.99804 -4.82227,1.99804 -1.96829,0 -3.43574,-0.60213 -4.82226,-1.96875 -1.36662,-1.38652 -1.96875,-2.85397 -1.96875,-4.82226 0,-1.96829 0.60159,-3.43325 1.96875,-4.82031 l 0.002,-0.002 c 1.39111,-1.39023 2.85477,-1.99804 4.82031,-1.99804 z" />
    <path
       id="text20-8-1"
       style="font-style:normal;font-variant:normal;font-weight:normal;font-stretch:normal;font-size:61.4022px;line-height:1.25;font-family:'Neon 80s';-inkscape-font-specification:'Neon 80s';fill:#000000;fill-opacity:1;stroke-width:0.264583"
       sodipodi:type="inkscape:offset"
       inkscape:radius="0.72086817"
       inkscape:original="M 27.796875 104.07422 C 26.957392 104.07422 26.247612 104.37498 25.667969 104.97461 C 25.388141 105.25444 25.178976 105.55324 25.039062 105.87305 L 7.2597656 142.51172 C 6.9599502 142.97144 6.8105469 143.49067 6.8105469 144.07031 C 6.8105469 144.88981 7.1000443 145.59959 7.6796875 146.19922 C 8.2593307 146.77886 8.9691106 147.06836 9.8085938 147.06836 C 10.628089 147.06836 11.337869 146.77886 11.9375 146.19922 C 12.19734 145.91939 12.397196 145.62989 12.537109 145.33008 L 17.513672 135.07617 L 38.050781 135.07617 L 43.027344 145.33008 L 43.058594 145.33008 C 43.198508 145.62989 43.398363 145.91939 43.658203 146.19922 C 44.237846 146.77886 44.947626 147.06836 45.787109 147.06836 C 46.606605 147.06836 47.305122 146.77886 47.884766 146.19922 C 48.484396 145.59959 48.785156 144.88981 48.785156 144.07031 C 48.785156 143.43071 48.615181 142.87033 48.275391 142.39062 L 30.496094 105.75391 C 30.35618 105.47408 30.165634 105.21446 29.925781 104.97461 C 29.32615 104.37498 28.61637 104.07422 27.796875 104.07422 z M 167.54102 108.15234 C 166.70153 108.15234 165.98244 108.45115 165.38281 109.05078 C 164.78318 109.65041 164.48242 110.37145 164.48242 111.21094 L 164.48242 120.02539 C 161.924 118.10657 158.97662 117.14648 155.63867 117.14648 C 151.50122 117.14648 147.97289 118.60523 145.05469 121.52344 C 142.13648 124.44164 140.67773 127.96997 140.67773 132.10742 C 140.67773 136.24487 142.13648 139.7732 145.05469 142.69141 C 147.97289 145.60961 151.50122 147.06836 155.63867 147.06836 C 159.77612 147.06836 163.30445 145.60961 166.22266 142.69141 C 169.10088 139.81318 170.55963 136.3353 170.59961 132.25781 L 170.59961 111.21094 C 170.59961 110.37145 170.29885 109.65041 169.69922 109.05078 C 169.09959 108.45115 168.3805 108.15234 167.54102 108.15234 z M 27.796875 113.9375 L 35.142578 129.08008 L 20.421875 129.08008 L 27.796875 113.9375 z M 69.861328 117.08594 C 65.543986 117.28581 62.006349 118.76514 59.248047 121.52344 C 56.369819 124.40167 54.911069 127.87954 54.871094 131.95703 L 54.871094 143.5293 C 54.871094 144.68858 55.1699 145.56834 55.769531 146.16797 C 56.369162 146.7676 57.090204 147.06836 57.929688 147.06836 C 58.769171 147.06836 59.48826 146.7676 60.087891 146.16797 C 60.687521 145.56834 60.986328 144.70915 60.986328 143.58984 L 60.986328 132.01758 C 60.986328 131.83769 60.977019 131.6584 60.957031 131.47852 C 61.076957 129.27987 61.936141 127.38957 63.535156 125.81055 C 65.274086 124.07162 67.373545 123.20312 69.832031 123.20312 L 69.861328 123.20312 C 70.700811 123.20312 71.4199 122.90237 72.019531 122.30273 C 72.619162 121.7031 72.919922 120.98401 72.919922 120.14453 C 72.919922 119.30505 72.619162 118.58596 72.019531 117.98633 C 71.4199 117.3867 70.700811 117.08594 69.861328 117.08594 z M 89.050781 117.14648 C 84.913328 117.14648 81.385 118.60523 78.466797 121.52344 C 75.548593 124.44164 74.089844 127.96997 74.089844 132.10742 C 74.089844 136.24487 75.548593 139.7732 78.466797 142.69141 C 81.385 145.60961 84.913328 147.06836 89.050781 147.06836 C 93.188234 147.06836 96.7053 145.61892 99.603516 142.7207 L 99.664062 142.66016 C 100.26369 142.06053 100.5625 141.34144 100.5625 140.50195 C 100.5625 139.66247 100.26369 138.95269 99.664062 138.37305 C 99.064432 137.77342 98.343389 137.47461 97.503906 137.47461 C 96.664423 137.47461 95.954643 137.76411 95.375 138.34375 L 95.316406 138.4043 C 93.577477 140.12324 91.48928 140.98242 89.050781 140.98242 C 86.592295 140.98242 84.492836 140.11198 82.753906 138.37305 C 81.014977 136.63412 80.144531 134.53661 80.144531 132.07812 C 80.144531 129.61964 81.014977 127.52949 82.753906 125.81055 C 84.492836 124.07162 86.592295 123.20312 89.050781 123.20312 C 91.509268 123.20312 93.597464 124.06231 95.316406 125.78125 L 95.345703 125.78125 C 95.925346 126.38088 96.635126 126.67969 97.474609 126.67969 C 98.294105 126.67969 98.994576 126.39019 99.574219 125.81055 C 100.17385 125.21092 100.47266 124.50114 100.47266 123.68164 C 100.47266 122.84216 100.18316 122.13433 99.603516 121.55469 C 99.583528 121.55469 99.574219 121.54343 99.574219 121.52344 L 99.603516 121.49414 C 96.7053 118.59592 93.188234 117.14648 89.050781 117.14648 z M 119.60156 117.14648 C 115.46411 117.14648 111.93578 118.60523 109.01758 121.52344 C 106.09937 124.44164 104.64062 127.96997 104.64062 132.10742 C 104.64062 136.24487 106.09937 139.7732 109.01758 142.69141 C 111.93578 145.60961 115.46411 147.06836 119.60156 147.06836 C 122.93951 147.06836 125.88689 146.10827 128.44531 144.18945 C 128.44531 145.30876 128.74607 146.069 129.3457 146.46875 C 129.94533 146.8685 130.66442 147.06836 131.50391 147.06836 C 132.34339 147.06836 133.06248 146.8685 133.66211 146.46875 C 134.26174 146.069 134.5625 145.28819 134.5625 144.12891 L 134.5625 131.95703 C 134.52252 127.87954 133.06182 124.40167 130.18359 121.52344 C 127.26539 118.60523 123.73902 117.14648 119.60156 117.14648 z M 191.67578 117.14648 C 187.53833 117.14648 184.01195 118.60523 181.09375 121.52344 C 178.17555 124.44164 176.7168 127.96997 176.7168 132.10742 C 176.7168 136.24487 178.17555 139.7732 181.09375 142.69141 C 184.01195 145.60961 187.53833 147.06836 191.67578 147.06836 C 195.81323 147.06836 199.33225 145.61892 202.23047 142.7207 L 202.29102 142.66016 C 202.89065 142.06053 203.18945 141.34144 203.18945 140.50195 C 203.18945 139.66247 202.89065 138.95269 202.29102 138.37305 C 201.69138 137.77342 200.97034 137.47461 200.13086 137.47461 C 199.29138 137.47461 198.5816 137.76411 198.00195 138.34375 L 197.94336 138.4043 C 196.20443 140.12324 194.11428 140.98242 191.67578 140.98242 C 189.21729 140.98242 187.11979 140.11198 185.38086 138.37305 C 183.64193 136.63412 182.77148 134.53661 182.77148 132.07812 C 182.77148 129.61964 183.64193 127.52949 185.38086 125.81055 C 187.11979 124.07162 189.21729 123.20312 191.67578 123.20312 C 192.99497 123.20312 194.20536 123.45343 195.30469 123.95312 L 189.30859 129.94922 C 188.72895 130.54885 188.43945 131.26794 188.43945 132.10742 C 188.43945 132.96689 188.72895 133.69724 189.30859 134.29688 C 189.90822 134.87652 190.63662 135.16602 191.49609 135.16602 C 192.33558 135.16602 193.05662 134.87652 193.65625 134.29688 L 202.23047 125.78125 C 202.81011 125.20161 203.09961 124.50114 203.09961 123.68164 C 203.09961 122.84216 202.81011 122.13433 202.23047 121.55469 C 202.21048 121.55469 202.19922 121.54343 202.19922 121.52344 L 202.23047 121.49414 C 199.33225 118.59592 195.81323 117.14648 191.67578 117.14648 z M 119.60156 123.20312 C 122.06005 123.20312 124.15755 124.07162 125.89648 125.81055 C 127.4955 127.38957 128.35468 129.27987 128.47461 131.47852 C 128.45462 131.6584 128.44531 131.83769 128.44531 132.01758 L 128.44531 133.15625 C 128.22545 135.15502 127.37557 136.89396 125.89648 138.37305 C 124.15755 140.11198 122.06005 140.98242 119.60156 140.98242 C 117.14308 140.98242 115.04362 140.11198 113.30469 138.37305 C 111.58575 136.63412 110.72656 134.53661 110.72656 132.07812 C 110.72656 129.61964 111.58575 127.52949 113.30469 125.81055 C 115.04362 124.07162 117.14308 123.20312 119.60156 123.20312 z M 155.63867 123.23242 C 158.09716 123.23242 160.19662 124.10287 161.93555 125.8418 C 163.41464 127.32089 164.26256 129.05982 164.48242 131.05859 L 164.48242 132.19727 C 164.48242 132.37715 164.49368 132.55644 164.51367 132.73633 C 164.39375 134.93497 163.53456 136.82527 161.93555 138.4043 C 160.19662 140.14323 158.09716 141.01172 155.63867 141.01172 C 153.18019 141.01172 151.08073 140.15254 149.3418 138.43359 C 147.62286 136.69466 146.76367 134.59521 146.76367 132.13672 C 146.76367 129.67823 147.62286 127.58073 149.3418 125.8418 C 151.08073 124.10287 153.18019 123.23242 155.63867 123.23242 z "
       d="m 27.796875,103.35352 c -1.009783,0 -1.942699,0.39333 -2.642578,1.11523 -0.332376,0.33324 -0.596537,0.70642 -0.775391,1.11523 l -17.7675779,36.61329 0.044922,-0.0801 c -0.3756267,0.57596 -0.5664062,1.24961 -0.5664063,1.95312 0,0.98927 0.3784129,1.91308 1.0722657,2.63086 a 0.72094026,0.72094026 0 0 0 0.00781,0.008 c 0.7028393,0.70284 1.6334586,1.08008 2.6386719,1.08008 0.9892672,0 1.9130822,-0.37842 2.6308592,-1.07226 a 0.72094026,0.72094026 0 0 0 0.02539,-0.0274 c 0.303116,-0.32643 0.548651,-0.67764 0.724609,-1.05468 l 4.775391,-9.8379 h 19.634765 l 4.779297,9.84766 a 0.72094026,0.72094026 0 0 0 0.06055,0.0371 c 0.174002,0.35792 0.401895,0.69603 0.691406,1.00781 a 0.72094026,0.72094026 0 0 0 0.01758,0.0195 c 0.70284,0.70284 1.633459,1.08008 2.638672,1.08008 0.989268,0 1.907884,-0.38054 2.607422,-1.08008 0.71553,-0.71552 1.111328,-1.64279 1.111328,-2.63867 0,-0.76731 -0.215275,-1.49244 -0.642578,-2.0957 l 0.06055,0.10156 -17.779297,-36.63672 a 0.72094026,0.72094026 0 0 0 -0.0039,-0.008 c -0.177233,-0.35447 -0.416291,-0.67801 -0.705078,-0.9668 -0.71553,-0.71553 -1.642801,-1.11132 -2.638672,-1.11132 z m 139.744145,4.07812 c -1.01055,0 -1.94925,0.39066 -2.66797,1.10938 -0.71872,0.71872 -1.11133,1.65825 -1.11133,2.66992 v 7.50976 c -2.41316,-1.49517 -5.12616,-2.29492 -8.12305,-2.29492 -4.30689,0 -8.05505,1.54918 -11.09375,4.58789 -3.03871,3.0387 -4.58789,6.78686 -4.58789,11.09375 0,4.30689 1.54918,8.05504 4.58789,11.09375 3.0387,3.0387 6.78686,4.58789 11.09375,4.58789 4.30689,0 8.05504,-1.54919 11.09375,-4.58789 2.99742,-2.99742 4.54627,-6.69017 4.58789,-10.93555 a 0.72094026,0.72094026 0 0 0 0,-0.008 v -21.04687 c 0,-1.01167 -0.39261,-1.9512 -1.11133,-2.66992 -0.71872,-0.71872 -1.65742,-1.10938 -2.66796,-1.10938 z m -139.744145,8.15625 6.195312,12.77148 H 21.576172 Z m 42.03125,0.77734 c -4.463312,0.20663 -8.204751,1.76335 -11.089844,4.64844 -2.997422,2.99743 -4.546269,6.69017 -4.58789,10.93555 a 0.72094026,0.72094026 0 0 0 0,0.008 v 11.57227 c 0,1.28315 0.345125,2.38419 1.109375,3.14843 0.718721,0.71872 1.658262,1.11133 2.669921,1.11133 1.01166,0 1.949801,-0.39316 2.667969,-1.11133 0.75842,-0.75841 1.109375,-1.84028 1.109375,-3.08789 v -11.57226 c 0,-0.16795 -0.01204,-0.33789 -0.02734,-0.50781 0.112627,-2.03034 0.87719,-3.71997 2.361329,-5.18555 a 0.72094026,0.72094026 0 0 0 0.0039,-0.004 c 1.618653,-1.61865 3.498395,-2.39648 5.787109,-2.39648 h 0.0293 c 1.011653,0 1.949798,-0.39315 2.667969,-1.11133 0.718168,-0.71817 1.111328,-1.65631 1.111328,-2.66797 0,-1.01166 -0.39316,-1.9498 -1.111328,-2.66797 -0.718168,-0.71816 -1.65631,-1.11133 -2.667969,-1.11133 a 0.72094026,0.72094026 0 0 0 -0.0332,0 z m 19.222656,0.0606 c -4.306891,0 -8.055047,1.54918 -11.09375,4.58789 -3.038704,3.0387 -4.58789,6.78686 -4.58789,11.09375 0,4.30689 1.549187,8.05504 4.58789,11.09375 3.038703,3.0387 6.786859,4.58789 11.09375,4.58789 4.30581,0 8.043068,-1.53915 11.062499,-4.55859 l 0.0605,-0.0606 c 0.71872,-0.71872 1.10937,-1.65742 1.10937,-2.66797 0,-1.00866 -0.39083,-1.94216 -1.11328,-2.64258 -0.71876,-0.71674 -1.657325,-1.10546 -2.666014,-1.10546 -1.005213,0 -1.935832,0.37724 -2.638672,1.08007 a 0.72094026,0.72094026 0 0 0 -0.0078,0.008 l -0.05273,0.0547 c -1.617904,1.59693 -3.487243,2.36524 -5.753906,2.36524 -2.288334,0 -4.168266,-0.7796 -5.787109,-2.39844 -1.619033,-1.61903 -2.398438,-3.49682 -2.398438,-5.78516 0,-2.28832 0.777847,-4.15775 2.394532,-5.75585 a 0.72094026,0.72094026 0 0 0 0.0039,-0.002 c 1.618653,-1.61865 3.498395,-2.39648 5.787109,-2.39648 2.290535,0 4.1584,0.76973 5.75586,2.36719 a 0.72094026,0.72094026 0 0 0 0.08203,0.0332 c 0.694697,0.69073 1.600618,1.07617 2.585937,1.07617 0.989268,0 1.909265,-0.37997 2.609371,-1.08008 0.71609,-0.71608 1.10938,-1.64394 1.10938,-2.63867 0,-1.00521 -0.37781,-1.93445 -1.08008,-2.63672 a 0.72094026,0.72094026 0 0 0 0,-0.0605 c -3.019431,-3.01944 -6.756689,-4.5586 -11.062499,-4.5586 z m 30.550779,0 c -4.30689,0 -8.05505,1.54918 -11.09375,4.58789 -3.03871,3.0387 -4.58789,6.78686 -4.58789,11.09375 0,4.30689 1.54918,8.05504 4.58789,11.09375 3.0387,3.0387 6.78686,4.58789 11.09375,4.58789 3.08052,0 5.86212,-0.84245 8.32422,-2.42187 0.17519,0.70477 0.45988,1.32807 1.01953,1.70117 0.72868,0.48578 1.60469,0.7207 2.5586,0.7207 0.95389,0 1.82991,-0.23492 2.55859,-0.7207 0.86754,-0.57836 1.2207,-1.65549 1.2207,-2.93945 v -12.17188 a 0.72094026,0.72094026 0 0 0 0,-0.008 c -0.0416,-4.24561 -1.59253,-7.93824 -4.58984,-10.93555 -3.03859,-3.03859 -6.7849,-4.58789 -11.0918,-4.58789 z m 72.07422,0 c -4.30689,0 -8.05321,1.54929 -11.0918,4.58789 -3.0387,3.0387 -4.58789,6.78686 -4.58789,11.09375 0,4.30689 1.5492,8.05504 4.58789,11.09375 3.03859,3.03859 6.78491,4.58789 11.0918,4.58789 4.30581,0 8.0449,-1.53904 11.06445,-4.55859 l 0.0606,-0.0606 c 0.71872,-0.71872 1.10938,-1.65742 1.10938,-2.66797 0,-1.00866 -0.39084,-1.94215 -1.11329,-2.64258 -0.71876,-0.71674 -1.65732,-1.10546 -2.66601,-1.10546 -1.00521,0 -1.93583,0.37724 -2.63867,1.08007 a 0.72094026,0.72094026 0 0 0 -0.008,0.008 l -0.0527,0.0547 c -1.61772,1.59674 -3.4892,2.36524 -5.75586,2.36524 -2.28834,0 -4.16612,-0.7794 -5.78516,-2.39844 -1.61903,-1.61903 -2.39843,-3.49682 -2.39843,-5.78516 0,-2.28832 0.77784,-4.15775 2.39453,-5.75585 a 0.72094026,0.72094026 0 0 0 0.004,-0.002 c 1.61885,-1.61884 3.49644,-2.39648 5.78516,-2.39648 0.82422,0 1.57288,0.14183 2.29102,0.34765 l -5.16797,5.16797 a 0.72094026,0.72094026 0 0 0 -0.008,0.008 c -0.69644,0.72045 -1.07227,1.65494 -1.07227,2.66015 0,1.02135 0.3727,1.9677 1.07227,2.69141 a 0.72094026,0.72094026 0 0 0 0.0156,0.0156 c 0.72314,0.69903 1.66811,1.07227 2.68945,1.07227 1.00522,0 1.94109,-0.37528 2.66211,-1.07227 a 0.72094026,0.72094026 0 0 0 0.006,-0.006 l 8.57422,-8.51562 a 0.72094026,0.72094026 0 0 0 0.002,-0.002 c 0.70011,-0.70011 1.08008,-1.62011 1.08008,-2.60938 0,-0.9661 -0.36696,-1.85127 -1.01758,-2.54297 a 0.72094026,0.72094026 0 0 0 -0.0625,-0.15429 c -3.01955,-3.01956 -6.75864,-4.5586 -11.06445,-4.5586 z m -91.5625,4.63672 c 0.40511,0.40604 -0.0396,1.07885 0,0.90039 a 0.72094026,0.72094026 0 0 0 0,-0.90039 z m 19.48828,2.86133 c 2.28872,0 4.16631,0.77764 5.78516,2.39648 a 0.72094026,0.72094026 0 0 0 0.004,0.004 c 1.48414,1.46558 2.24869,3.15521 2.36132,5.18555 -0.0153,0.16992 -0.0273,0.33986 -0.0273,0.50781 v 1.07422 c -0.20519,1.83686 -0.9646,3.39819 -2.33789,4.77148 -1.61904,1.61904 -3.49682,2.39844 -5.78516,2.39844 -2.28833,0 -4.16826,-0.7796 -5.78711,-2.39844 -1.59741,-1.61748 -2.36718,-3.49617 -2.36718,-5.78516 0,-2.29052 0.76992,-4.16054 2.36718,-5.75781 1.61866,-1.61865 3.49841,-2.39648 5.78711,-2.39648 z m 36.03711,0.0293 c 2.28834,0 4.16827,0.77959 5.78711,2.39843 1.37307,1.37307 2.13071,2.93417 2.33594,4.77149 v 1.07422 c 0,0.17287 0.0136,0.34191 0.0293,0.50976 -0.11302,2.02943 -0.87769,3.71849 -2.36133,5.18359 a 0.72094026,0.72094026 0 0 0 -0.004,0.004 c -1.61865,1.61865 -3.49839,2.39649 -5.78711,2.39649 -2.28897,0 -4.16981,-0.76996 -5.78711,-2.36719 -1.59722,-1.6173 -2.36719,-3.49813 -2.36719,-5.78711 0,-2.28898 0.76978,-4.16767 2.36719,-5.78516 1.61885,-1.61884 3.49879,-2.39843 5.78711,-2.39843 z"
       transform="translate(0.00195313,0.00585938)" />
    <path
       id="text20-8"
       style="font-style:normal;font-variant:normal;font-weight:normal;font-stretch:normal;font-size:61.4022px;line-height:1.25;font-family:'Neon 80s';-inkscape-font-specification:'Neon 80s';fill:#ffff00;fill-opacity:1;stroke-width:0.264583"
       sodipodi:type="inkscape:offset"
       inkscape:radius="0.5014773"
       inkscape:original="M 27.796875 104.07422 C 26.957392 104.07422 26.247612 104.37498 25.667969 104.97461 C 25.388141 105.25444 25.178976 105.55324 25.039062 105.87305 L 7.2597656 142.51172 C 6.9599502 142.97144 6.8105469 143.49067 6.8105469 144.07031 C 6.8105469 144.88981 7.1000443 145.59959 7.6796875 146.19922 C 8.2593307 146.77886 8.9691106 147.06836 9.8085938 147.06836 C 10.628089 147.06836 11.337869 146.77886 11.9375 146.19922 C 12.19734 145.91939 12.397196 145.62989 12.537109 145.33008 L 17.513672 135.07617 L 38.050781 135.07617 L 43.027344 145.33008 L 43.058594 145.33008 C 43.198508 145.62989 43.398363 145.91939 43.658203 146.19922 C 44.237846 146.77886 44.947626 147.06836 45.787109 147.06836 C 46.606605 147.06836 47.305122 146.77886 47.884766 146.19922 C 48.484396 145.59959 48.785156 144.88981 48.785156 144.07031 C 48.785156 143.43071 48.615181 142.87033 48.275391 142.39062 L 30.496094 105.75391 C 30.35618 105.47408 30.165634 105.21446 29.925781 104.97461 C 29.32615 104.37498 28.61637 104.07422 27.796875 104.07422 z M 167.54102 108.15234 C 166.70153 108.15234 165.98244 108.45115 165.38281 109.05078 C 164.78318 109.65041 164.48242 110.37145 164.48242 111.21094 L 164.48242 120.02539 C 161.924 118.10657 158.97662 117.14648 155.63867 117.14648 C 151.50122 117.14648 147.97289 118.60523 145.05469 121.52344 C 142.13648 124.44164 140.67773 127.96997 140.67773 132.10742 C 140.67773 136.24487 142.13648 139.7732 145.05469 142.69141 C 147.97289 145.60961 151.50122 147.06836 155.63867 147.06836 C 159.77612 147.06836 163.30445 145.60961 166.22266 142.69141 C 169.10088 139.81318 170.55963 136.3353 170.59961 132.25781 L 170.59961 111.21094 C 170.59961 110.37145 170.29885 109.65041 169.69922 109.05078 C 169.09959 108.45115 168.3805 108.15234 167.54102 108.15234 z M 27.796875 113.9375 L 35.142578 129.08008 L 20.421875 129.08008 L 27.796875 113.9375 z M 69.861328 117.08594 C 65.543986 117.28581 62.006349 118.76514 59.248047 121.52344 C 56.369819 124.40167 54.911069 127.87954 54.871094 131.95703 L 54.871094 143.5293 C 54.871094 144.68858 55.1699 145.56834 55.769531 146.16797 C 56.369162 146.7676 57.090204 147.06836 57.929688 147.06836 C 58.769171 147.06836 59.48826 146.7676 60.087891 146.16797 C 60.687521 145.56834 60.986328 144.70915 60.986328 143.58984 L 60.986328 132.01758 C 60.986328 131.83769 60.977019 131.6584 60.957031 131.47852 C 61.076957 129.27987 61.936141 127.38957 63.535156 125.81055 C 65.274086 124.07162 67.373545 123.20312 69.832031 123.20312 L 69.861328 123.20312 C 70.700811 123.20312 71.4199 122.90237 72.019531 122.30273 C 72.619162 121.7031 72.919922 120.98401 72.919922 120.14453 C 72.919922 119.30505 72.619162 118.58596 72.019531 117.98633 C 71.4199 117.3867 70.700811 117.08594 69.861328 117.08594 z M 89.050781 117.14648 C 84.913328 117.14648 81.385 118.60523 78.466797 121.52344 C 75.548593 124.44164 74.089844 127.96997 74.089844 132.10742 C 74.089844 136.24487 75.548593 139.7732 78.466797 142.69141 C 81.385 145.60961 84.913328 147.06836 89.050781 147.06836 C 93.188234 147.06836 96.7053 145.61892 99.603516 142.7207 L 99.664062 142.66016 C 100.26369 142.06053 100.5625 141.34144 100.5625 140.50195 C 100.5625 139.66247 100.26369 138.95269 99.664062 138.37305 C 99.064432 137.77342 98.343389 137.47461 97.503906 137.47461 C 96.664423 137.47461 95.954643 137.76411 95.375 138.34375 L 95.316406 138.4043 C 93.577477 140.12324 91.48928 140.98242 89.050781 140.98242 C 86.592295 140.98242 84.492836 140.11198 82.753906 138.37305 C 81.014977 136.63412 80.144531 134.53661 80.144531 132.07812 C 80.144531 129.61964 81.014977 127.52949 82.753906 125.81055 C 84.492836 124.07162 86.592295 123.20312 89.050781 123.20312 C 91.509268 123.20312 93.597464 124.06231 95.316406 125.78125 L 95.345703 125.78125 C 95.925346 126.38088 96.635126 126.67969 97.474609 126.67969 C 98.294105 126.67969 98.994576 126.39019 99.574219 125.81055 C 100.17385 125.21092 100.47266 124.50114 100.47266 123.68164 C 100.47266 122.84216 100.18316 122.13433 99.603516 121.55469 C 99.583528 121.55469 99.574219 121.54343 99.574219 121.52344 L 99.603516 121.49414 C 96.7053 118.59592 93.188234 117.14648 89.050781 117.14648 z M 119.60156 117.14648 C 115.46411 117.14648 111.93578 118.60523 109.01758 121.52344 C 106.09937 124.44164 104.64062 127.96997 104.64062 132.10742 C 104.64062 136.24487 106.09937 139.7732 109.01758 142.69141 C 111.93578 145.60961 115.46411 147.06836 119.60156 147.06836 C 122.93951 147.06836 125.88689 146.10827 128.44531 144.18945 C 128.44531 145.30876 128.74607 146.069 129.3457 146.46875 C 129.94533 146.8685 130.66442 147.06836 131.50391 147.06836 C 132.34339 147.06836 133.06248 146.8685 133.66211 146.46875 C 134.26174 146.069 134.5625 145.28819 134.5625 144.12891 L 134.5625 131.95703 C 134.52252 127.87954 133.06182 124.40167 130.18359 121.52344 C 127.26539 118.60523 123.73902 117.14648 119.60156 117.14648 z M 191.67578 117.14648 C 187.53833 117.14648 184.01195 118.60523 181.09375 121.52344 C 178.17555 124.44164 176.7168 127.96997 176.7168 132.10742 C 176.7168 136.24487 178.17555 139.7732 181.09375 142.69141 C 184.01195 145.60961 187.53833 147.06836 191.67578 147.06836 C 195.81323 147.06836 199.33225 145.61892 202.23047 142.7207 L 202.29102 142.66016 C 202.89065 142.06053 203.18945 141.34144 203.18945 140.50195 C 203.18945 139.66247 202.89065 138.95269 202.29102 138.37305 C 201.69138 137.77342 200.97034 137.47461 200.13086 137.47461 C 199.29138 137.47461 198.5816 137.76411 198.00195 138.34375 L 197.94336 138.4043 C 196.20443 140.12324 194.11428 140.98242 191.67578 140.98242 C 189.21729 140.98242 187.11979 140.11198 185.38086 138.37305 C 183.64193 136.63412 182.77148 134.53661 182.77148 132.07812 C 182.77148 129.61964 183.64193 127.52949 185.38086 125.81055 C 187.11979 124.07162 189.21729 123.20312 191.67578 123.20312 C 192.99497 123.20312 194.20536 123.45343 195.30469 123.95312 L 189.30859 129.94922 C 188.72895 130.54885 188.43945 131.26794 188.43945 132.10742 C 188.43945 132.96689 188.72895 133.69724 189.30859 134.29688 C 189.90822 134.87652 190.63662 135.16602 191.49609 135.16602 C 192.33558 135.16602 193.05662 134.87652 193.65625 134.29688 L 202.23047 125.78125 C 202.81011 125.20161 203.09961 124.50114 203.09961 123.68164 C 203.09961 122.84216 202.81011 122.13433 202.23047 121.55469 C 202.21048 121.55469 202.19922 121.54343 202.19922 121.52344 L 202.23047 121.49414 C 199.33225 118.59592 195.81323 117.14648 191.67578 117.14648 z M 119.60156 123.20312 C 122.06005 123.20312 124.15755 124.07162 125.89648 125.81055 C 127.4955 127.38957 128.35468 129.27987 128.47461 131.47852 C 128.45462 131.6584 128.44531 131.83769 128.44531 132.01758 L 128.44531 133.15625 C 128.22545 135.15502 127.37557 136.89396 125.89648 138.37305 C 124.15755 140.11198 122.06005 140.98242 119.60156 140.98242 C 117.14308 140.98242 115.04362 140.11198 113.30469 138.37305 C 111.58575 136.63412 110.72656 134.53661 110.72656 132.07812 C 110.72656 129.61964 111.58575 127.52949 113.30469 125.81055 C 115.04362 124.07162 117.14308 123.20312 119.60156 123.20312 z M 155.63867 123.23242 C 158.09716 123.23242 160.19662 124.10287 161.93555 125.8418 C 163.41464 127.32089 164.26256 129.05982 164.48242 131.05859 L 164.48242 132.19727 C 164.48242 132.37715 164.49368 132.55644 164.51367 132.73633 C 164.39375 134.93497 163.53456 136.82527 161.93555 138.4043 C 160.19662 140.14323 158.09716 141.01172 155.63867 141.01172 C 153.18019 141.01172 151.08073 140.15254 149.3418 138.43359 C 147.62286 136.69466 146.76367 134.59521 146.76367 132.13672 C 146.76367 129.67823 147.62286 127.58073 149.3418 125.8418 C 151.08073 124.10287 153.18019 123.23242 155.63867 123.23242 z "
       d="m 27.796875,103.57227 c -0.959259,0 -1.826649,0.36822 -2.490234,1.05468 -0.314227,0.31579 -0.560337,0.66497 -0.726563,1.04493 l -17.7714843,36.62109 0.03125,-0.0547 c -0.3525541,0.54059 -0.5312499,1.16622 -0.53125,1.83203 0,0.9376 0.3506717,1.79474 1.0097657,2.47656 a 0.50152745,0.50152745 0 0 0 0.00586,0.008 c 0.6653455,0.66534 1.5296005,1.01562 2.4843751,1.01562 0.9375982,0 1.7947422,-0.35067 2.4765622,-1.00976 a 0.50152745,0.50152745 0 0 0 0.01953,-0.0195 c 0.28826,-0.31044 0.518794,-0.64095 0.683593,-0.99219 l 4.839844,-9.97071 h 19.908203 l 4.839844,9.97071 a 0.50152745,0.50152745 0 0 0 0.05469,0.0351 c 0.163465,0.33753 0.382003,0.65748 0.660157,0.95704 a 0.50152745,0.50152745 0 0 0 0.01172,0.0137 c 0.665346,0.66534 1.529601,1.01562 2.484375,1.01562 0.9376,0 1.790076,-0.35258 2.453125,-1.01562 0.680257,-0.68026 1.046875,-1.54218 1.046875,-2.48438 0,-0.72844 -0.200893,-1.40309 -0.601562,-1.96875 l 0.04102,0.0703 -17.779296,-36.63671 a 0.50152745,0.50152745 0 0 0 -0.002,-0.006 c -0.165875,-0.33176 -0.390168,-0.63627 -0.664062,-0.91016 -0.680257,-0.68026 -1.542183,-1.04687 -2.484375,-1.04687 z m 139.744145,4.07812 c -0.95849,0 -1.8312,0.36245 -2.51368,1.04492 -0.68247,0.68248 -1.04687,1.55636 -1.04687,2.51563 v 7.90625 c -2.45917,-1.61541 -5.2422,-2.47266 -8.3418,-2.47266 -4.25532,0 -7.93742,1.5214 -10.93945,4.52344 -3.00204,3.00203 -4.52344,6.68413 -4.52344,10.93945 0,4.25532 1.5214,7.93742 4.52344,10.93945 3.00203,3.00203 6.68413,4.52344 10.93945,4.52344 4.25532,0 7.93742,-1.52141 10.93945,-4.52344 2.96114,-2.96114 4.48232,-6.58892 4.52344,-10.7832 a 0.50152745,0.50152745 0 0 0 0,-0.006 v -21.04687 c 0,-0.95927 -0.3644,-1.83315 -1.04687,-2.51563 -0.68248,-0.68247 -1.55519,-1.04492 -2.51367,-1.04492 z m -139.744145,7.43359 6.544922,13.49414 H 21.224609 Z m 42.064453,1.5 a 0.50152745,0.50152745 0 0 0 -0.02344,0.002 c -4.418887,0.20457 -8.098808,1.73553 -10.945313,4.58203 -2.961146,2.96115 -4.482317,6.58892 -4.523437,10.7832 a 0.50152745,0.50152745 0 0 0 0,0.006 v 11.57227 c 0,1.24545 0.330772,2.27999 1.044921,2.99414 0.682478,0.68247 1.556366,1.04687 2.515625,1.04687 0.959259,0 1.83158,-0.36478 2.513672,-1.04687 0.710093,-0.7101 1.044922,-1.72504 1.044922,-2.9336 v -11.57226 c 0,-0.17449 -0.01211,-0.34934 -0.0293,-0.52539 0.116521,-2.07795 0.910652,-3.82611 2.427735,-5.32422 a 0.50152745,0.50152745 0 0 0 0.0039,-0.002 c 1.655259,-1.65526 3.601024,-2.46094 5.941406,-2.46094 h 0.0293 c 0.959255,0 1.831578,-0.36477 2.513672,-1.04688 0.682093,-0.68209 1.046875,-1.55441 1.046875,-2.51367 0,-0.95925 -0.364782,-1.83158 -1.046875,-2.51367 -0.682092,-0.68209 -1.554413,-1.04688 -2.513672,-1.04688 z m 19.189453,0.0606 c -4.255324,0 -7.937423,1.5214 -10.939453,4.52344 -3.002031,3.00203 -4.523437,6.68413 -4.523437,10.93945 0,4.25532 1.521407,7.93742 4.523437,10.93945 3.00203,3.00203 6.684129,4.52344 10.939453,4.52344 4.254572,0 7.925662,-1.51159 10.908203,-4.49414 l 0.06055,-0.0605 c 0.68247,-0.68247 1.04492,-1.55518 1.04492,-2.51367 0,-0.95792 -0.36665,-1.82447 -1.05273,-2.48828 -2.7e-4,-2.7e-4 2.7e-4,-0.002 0,-0.002 -0.681799,-0.67823 -1.55269,-1.03906 -2.507814,-1.03906 -0.954774,0 -1.819029,0.35028 -2.484375,1.01562 a 0.50152745,0.50152745 0 0 0 -0.0059,0.006 l -0.05859,0.0606 c -1.653807,1.63114 -3.587387,2.42578 -5.904297,2.42578 -2.340119,0 -4.286015,-0.8075 -5.941406,-2.46289 -1.655523,-1.65553 -2.462891,-3.59933 -2.462891,-5.93946 0,-2.34011 0.807049,-4.27527 2.460938,-5.91015 a 0.50152745,0.50152745 0 0 0 0.002,-0.002 c 1.655259,-1.65526 3.601024,-2.46094 5.941406,-2.46094 2.34165,0 4.275724,0.79721 5.910156,2.43164 a 0.50152745,0.50152745 0 0 0 0.08594,0.0352 c 0.656481,0.65069 1.495615,1.00976 2.427734,1.00976 0.9376,0 1.791631,-0.35218 2.455078,-1.01562 0.680643,-0.68064 1.044923,-1.54298 1.044923,-2.48438 0,-0.95477 -0.35068,-1.81748 -1.015626,-2.48242 a 0.50152745,0.50152745 0 0 0 0,-0.0605 c -2.982541,-2.98254 -6.653631,-4.49414 -10.908203,-4.49414 z m 30.550779,0 c -4.25532,0 -7.93742,1.5214 -10.93945,4.52344 -3.00204,3.00203 -4.52344,6.68413 -4.52344,10.93945 0,4.25532 1.5214,7.93742 4.52344,10.93945 3.00203,3.00203 6.68413,4.52344 10.93945,4.52344 3.15683,0 5.98684,-0.88512 8.47852,-2.56054 0.13526,0.79891 0.40772,1.48991 0.98828,1.87695 0.6894,0.4596 1.51646,0.68359 2.43555,0.68359 0.91907,0 1.74614,-0.22399 2.43554,-0.68359 0.78601,-0.524 1.125,-1.5118 1.125,-2.75781 v -12.17188 a 0.50152745,0.50152745 0 0 0 0,-0.006 c -0.0411,-4.19444 -1.56432,-7.82213 -4.52539,-10.7832 -3.00194,-3.00196 -6.68217,-4.52344 -10.9375,-4.52344 z m 72.07422,0 c -4.25532,0 -7.93555,1.52148 -10.9375,4.52344 -3.00203,3.00203 -4.52344,6.68413 -4.52344,10.93945 0,4.25532 1.52142,7.93742 4.52344,10.93945 3.00195,3.00195 6.68218,4.52344 10.9375,4.52344 4.25457,0 7.92753,-1.51151 10.91016,-4.49414 l 0.0605,-0.0605 c 0.68248,-0.68247 1.04493,-1.55518 1.04493,-2.51367 0,-0.95791 -0.36665,-1.82447 -1.05274,-2.48828 -2.7e-4,-2.7e-4 2.7e-4,-0.002 0,-0.002 -0.6818,-0.67823 -1.55269,-1.03906 -2.50781,-1.03906 -0.95477,0 -1.81902,0.35028 -2.48438,1.01562 a 0.50152745,0.50152745 0 0 0 -0.006,0.006 l -0.0586,0.0606 c -1.65368,1.63101 -3.58934,2.42578 -5.90625,2.42578 -2.34012,0 -4.28393,-0.80737 -5.93945,-2.46289 -1.65553,-1.65553 -2.46289,-3.59933 -2.46289,-5.93946 0,-2.34011 0.80704,-4.27527 2.46093,-5.91015 a 0.50152745,0.50152745 0 0 0 0.002,-0.002 c 1.65539,-1.6554 3.59906,-2.46094 5.93945,-2.46094 0.97605,0 1.85945,0.18511 2.69727,0.46875 l -5.41993,5.41992 a 0.50152745,0.50152745 0 0 0 -0.006,0.008 c -0.6609,0.68369 -1.00977,1.55109 -1.00977,2.50586 0,0.97208 0.3467,1.85116 1.00977,2.53711 a 0.50152745,0.50152745 0 0 0 0.0137,0.0137 c 0.68555,0.6627 1.56307,1.00977 2.53515,1.00977 0.95478,0 1.82374,-0.3485 2.50782,-1.00977 a 0.50152745,0.50152745 0 0 0 0.006,-0.006 l 8.57421,-8.51562 a 0.50152745,0.50152745 0 0 0 0.002,0 c 0.66344,-0.66345 1.01562,-1.51748 1.01562,-2.45508 0,-0.91584 -0.3399,-1.73756 -0.95312,-2.39062 a 0.50152745,0.50152745 0 0 0 -0.0625,-0.15235 c -2.98263,-2.98262 -6.65559,-4.49414 -10.91016,-4.49414 z m -91.716796,4.58008 c 0.215526,0.55783 0.123786,0.2152 0,0.58398 a 0.50152745,0.50152745 0 0 0 0,-0.58398 z m 19.642576,2.48047 c 2.34039,0 4.28406,0.80554 5.93946,2.46094 a 0.50152745,0.50152745 0 0 0 0.004,0.002 c 1.51709,1.49811 2.31121,3.24627 2.42774,5.32422 -0.0172,0.17606 -0.0293,0.3509 -0.0293,0.52539 v 1.09765 c -0.21042,1.88428 -0.99795,3.49795 -2.40234,4.90235 -1.65553,1.65552 -3.59933,2.46289 -5.93946,2.46289 -2.34011,0 -4.28601,-0.8075 -5.9414,-2.46289 -1.63385,-1.65428 -2.43164,-3.59928 -2.43164,-5.93946 0,-2.34164 0.79734,-4.27781 2.43164,-5.9121 1.65525,-1.65526 3.60103,-2.46094 5.9414,-2.46094 z m 36.03711,0.0293 c 2.34012,0 4.28602,0.80749 5.94141,2.46289 1.40424,1.40423 2.18994,3.01775 2.40039,4.90234 v 1.09766 c 0,0.17769 0.0139,0.35175 0.0312,0.52539 -0.11652,2.07793 -0.91066,3.82609 -2.42774,5.32421 a 0.50152745,0.50152745 0 0 0 -0.004,0.002 c -1.65526,1.65526 -3.60102,2.46094 -5.94141,2.46094 -2.33973,0 -4.2855,-0.79658 -5.93945,-2.42969 l -0.002,-0.002 c -6.8e-4,-6.6e-4 -0.001,-0.001 -0.002,-0.002 -1.6331,-1.65395 -2.42969,-3.59971 -2.42969,-5.93945 0,-2.34165 0.79766,-4.28644 2.4336,-5.94141 1.65495,-1.65402 3.60029,-2.46093 5.93945,-2.46093 z" />
    <path
       id="text20-8-2"
       style="font-style:normal;font-variant:normal;font-weight:normal;font-stretch:normal;font-size:61.4022px;line-height:1.25;font-family:'Neon 80s';-inkscape-font-specification:'Neon 80s';fill:#ffff00;fill-opacity:1;stroke-width:0.264583"
       sodipodi:type="inkscape:offset"
       inkscape:radius="0.5014773"
       inkscape:original="M 27.796875 104.07422 C 26.957392 104.07422 26.247612 104.37498 25.667969 104.97461 C 25.388141 105.25444 25.178976 105.55324 25.039062 105.87305 L 7.2597656 142.51172 C 6.9599502 142.97144 6.8105469 143.49067 6.8105469 144.07031 C 6.8105469 144.88981 7.1000443 145.59959 7.6796875 146.19922 C 8.2593307 146.77886 8.9691106 147.06836 9.8085938 147.06836 C 10.628089 147.06836 11.337869 146.77886 11.9375 146.19922 C 12.19734 145.91939 12.397196 145.62989 12.537109 145.33008 L 17.513672 135.07617 L 38.050781 135.07617 L 43.027344 145.33008 L 43.058594 145.33008 C 43.198508 145.62989 43.398363 145.91939 43.658203 146.19922 C 44.237846 146.77886 44.947626 147.06836 45.787109 147.06836 C 46.606605 147.06836 47.305122 146.77886 47.884766 146.19922 C 48.484396 145.59959 48.785156 144.88981 48.785156 144.07031 C 48.785156 143.43071 48.615181 142.87033 48.275391 142.39062 L 30.496094 105.75391 C 30.35618 105.47408 30.165634 105.21446 29.925781 104.97461 C 29.32615 104.37498 28.61637 104.07422 27.796875 104.07422 z M 167.54102 108.15234 C 166.70153 108.15234 165.98244 108.45115 165.38281 109.05078 C 164.78318 109.65041 164.48242 110.37145 164.48242 111.21094 L 164.48242 120.02539 C 161.924 118.10657 158.97662 117.14648 155.63867 117.14648 C 151.50122 117.14648 147.97289 118.60523 145.05469 121.52344 C 142.13648 124.44164 140.67773 127.96997 140.67773 132.10742 C 140.67773 136.24487 142.13648 139.7732 145.05469 142.69141 C 147.97289 145.60961 151.50122 147.06836 155.63867 147.06836 C 159.77612 147.06836 163.30445 145.60961 166.22266 142.69141 C 169.10088 139.81318 170.55963 136.3353 170.59961 132.25781 L 170.59961 111.21094 C 170.59961 110.37145 170.29885 109.65041 169.69922 109.05078 C 169.09959 108.45115 168.3805 108.15234 167.54102 108.15234 z M 27.796875 113.9375 L 35.142578 129.08008 L 20.421875 129.08008 L 27.796875 113.9375 z M 69.861328 117.08594 C 65.543986 117.28581 62.006349 118.76514 59.248047 121.52344 C 56.369819 124.40167 54.911069 127.87954 54.871094 131.95703 L 54.871094 143.5293 C 54.871094 144.68858 55.1699 145.56834 55.769531 146.16797 C 56.369162 146.7676 57.090204 147.06836 57.929688 147.06836 C 58.769171 147.06836 59.48826 146.7676 60.087891 146.16797 C 60.687521 145.56834 60.986328 144.70915 60.986328 143.58984 L 60.986328 132.01758 C 60.986328 131.83769 60.977019 131.6584 60.957031 131.47852 C 61.076957 129.27987 61.936141 127.38957 63.535156 125.81055 C 65.274086 124.07162 67.373545 123.20312 69.832031 123.20312 L 69.861328 123.20312 C 70.700811 123.20312 71.4199 122.90237 72.019531 122.30273 C 72.619162 121.7031 72.919922 120.98401 72.919922 120.14453 C 72.919922 119.30505 72.619162 118.58596 72.019531 117.98633 C 71.4199 117.3867 70.700811 117.08594 69.861328 117.08594 z M 89.050781 117.14648 C 84.913328 117.14648 81.385 118.60523 78.466797 121.52344 C 75.548593 124.44164 74.089844 127.96997 74.089844 132.10742 C 74.089844 136.24487 75.548593 139.7732 78.466797 142.69141 C 81.385 145.60961 84.913328 147.06836 89.050781 147.06836 C 93.188234 147.06836 96.7053 145.61892 99.603516 142.7207 L 99.664062 142.66016 C 100.26369 142.06053 100.5625 141.34144 100.5625 140.50195 C 100.5625 139.66247 100.26369 138.95269 99.664062 138.37305 C 99.064432 137.77342 98.343389 137.47461 97.503906 137.47461 C 96.664423 137.47461 95.954643 137.76411 95.375 138.34375 L 95.316406 138.4043 C 93.577477 140.12324 91.48928 140.98242 89.050781 140.98242 C 86.592295 140.98242 84.492836 140.11198 82.753906 138.37305 C 81.014977 136.63412 80.144531 134.53661 80.144531 132.07812 C 80.144531 129.61964 81.014977 127.52949 82.753906 125.81055 C 84.492836 124.07162 86.592295 123.20312 89.050781 123.20312 C 91.509268 123.20312 93.597464 124.06231 95.316406 125.78125 L 95.345703 125.78125 C 95.925346 126.38088 96.635126 126.67969 97.474609 126.67969 C 98.294105 126.67969 98.994576 126.39019 99.574219 125.81055 C 100.17385 125.21092 100.47266 124.50114 100.47266 123.68164 C 100.47266 122.84216 100.18316 122.13433 99.603516 121.55469 C 99.583528 121.55469 99.574219 121.54343 99.574219 121.52344 L 99.603516 121.49414 C 96.7053 118.59592 93.188234 117.14648 89.050781 117.14648 z M 119.60156 117.14648 C 115.46411 117.14648 111.93578 118.60523 109.01758 121.52344 C 106.09937 124.44164 104.64062 127.96997 104.64062 132.10742 C 104.64062 136.24487 106.09937 139.7732 109.01758 142.69141 C 111.93578 145.60961 115.46411 147.06836 119.60156 147.06836 C 122.93951 147.06836 125.88689 146.10827 128.44531 144.18945 C 128.44531 145.30876 128.74607 146.069 129.3457 146.46875 C 129.94533 146.8685 130.66442 147.06836 131.50391 147.06836 C 132.34339 147.06836 133.06248 146.8685 133.66211 146.46875 C 134.26174 146.069 134.5625 145.28819 134.5625 144.12891 L 134.5625 131.95703 C 134.52252 127.87954 133.06182 124.40167 130.18359 121.52344 C 127.26539 118.60523 123.73902 117.14648 119.60156 117.14648 z M 191.67578 117.14648 C 187.53833 117.14648 184.01195 118.60523 181.09375 121.52344 C 178.17555 124.44164 176.7168 127.96997 176.7168 132.10742 C 176.7168 136.24487 178.17555 139.7732 181.09375 142.69141 C 184.01195 145.60961 187.53833 147.06836 191.67578 147.06836 C 195.81323 147.06836 199.33225 145.61892 202.23047 142.7207 L 202.29102 142.66016 C 202.89065 142.06053 203.18945 141.34144 203.18945 140.50195 C 203.18945 139.66247 202.89065 138.95269 202.29102 138.37305 C 201.69138 137.77342 200.97034 137.47461 200.13086 137.47461 C 199.29138 137.47461 198.5816 137.76411 198.00195 138.34375 L 197.94336 138.4043 C 196.20443 140.12324 194.11428 140.98242 191.67578 140.98242 C 189.21729 140.98242 187.11979 140.11198 185.38086 138.37305 C 183.64193 136.63412 182.77148 134.53661 182.77148 132.07812 C 182.77148 129.61964 183.64193 127.52949 185.38086 125.81055 C 187.11979 124.07162 189.21729 123.20312 191.67578 123.20312 C 192.99497 123.20312 194.20536 123.45343 195.30469 123.95312 L 189.30859 129.94922 C 188.72895 130.54885 188.43945 131.26794 188.43945 132.10742 C 188.43945 132.96689 188.72895 133.69724 189.30859 134.29688 C 189.90822 134.87652 190.63662 135.16602 191.49609 135.16602 C 192.33558 135.16602 193.05662 134.87652 193.65625 134.29688 L 202.23047 125.78125 C 202.81011 125.20161 203.09961 124.50114 203.09961 123.68164 C 203.09961 122.84216 202.81011 122.13433 202.23047 121.55469 C 202.21048 121.55469 202.19922 121.54343 202.19922 121.52344 L 202.23047 121.49414 C 199.33225 118.59592 195.81323 117.14648 191.67578 117.14648 z M 119.60156 123.20312 C 122.06005 123.20312 124.15755 124.07162 125.89648 125.81055 C 127.4955 127.38957 128.35468 129.27987 128.47461 131.47852 C 128.45462 131.6584 128.44531 131.83769 128.44531 132.01758 L 128.44531 133.15625 C 128.22545 135.15502 127.37557 136.89396 125.89648 138.37305 C 124.15755 140.11198 122.06005 140.98242 119.60156 140.98242 C 117.14308 140.98242 115.04362 140.11198 113.30469 138.37305 C 111.58575 136.63412 110.72656 134.53661 110.72656 132.07812 C 110.72656 129.61964 111.58575 127.52949 113.30469 125.81055 C 115.04362 124.07162 117.14308 123.20312 119.60156 123.20312 z M 155.63867 123.23242 C 158.09716 123.23242 160.19662 124.10287 161.93555 125.8418 C 163.41464 127.32089 164.26256 129.05982 164.48242 131.05859 L 164.48242 132.19727 C 164.48242 132.37715 164.49368 132.55644 164.51367 132.73633 C 164.39375 134.93497 163.53456 136.82527 161.93555 138.4043 C 160.19662 140.14323 158.09716 141.01172 155.63867 141.01172 C 153.18019 141.01172 151.08073 140.15254 149.3418 138.43359 C 147.62286 136.69466 146.76367 134.59521 146.76367 132.13672 C 146.76367 129.67823 147.62286 127.58073 149.3418 125.8418 C 151.08073 124.10287 153.18019 123.23242 155.63867 123.23242 z "
       d="m 27.796875,103.57227 c -0.959259,0 -1.826649,0.36822 -2.490234,1.05468 -0.314227,0.31579 -0.560337,0.66497 -0.726563,1.04493 l -17.7714843,36.62109 0.03125,-0.0547 c -0.3525541,0.54059 -0.5312499,1.16622 -0.53125,1.83203 0,0.9376 0.3506717,1.79474 1.0097657,2.47656 a 0.50152745,0.50152745 0 0 0 0.00586,0.008 c 0.6653455,0.66534 1.5296005,1.01562 2.4843751,1.01562 0.9375982,0 1.7947422,-0.35067 2.4765622,-1.00976 a 0.50152745,0.50152745 0 0 0 0.01953,-0.0195 c 0.28826,-0.31044 0.518794,-0.64095 0.683593,-0.99219 l 4.839844,-9.97071 h 19.908203 l 4.839844,9.97071 a 0.50152745,0.50152745 0 0 0 0.05469,0.0351 c 0.163465,0.33753 0.382003,0.65748 0.660157,0.95704 a 0.50152745,0.50152745 0 0 0 0.01172,0.0137 c 0.665346,0.66534 1.529601,1.01562 2.484375,1.01562 0.9376,0 1.790076,-0.35258 2.453125,-1.01562 0.680257,-0.68026 1.046875,-1.54218 1.046875,-2.48438 0,-0.72844 -0.200893,-1.40309 -0.601562,-1.96875 l 0.04102,0.0703 -17.779296,-36.63671 a 0.50152745,0.50152745 0 0 0 -0.002,-0.006 c -0.165875,-0.33176 -0.390168,-0.63627 -0.664062,-0.91016 -0.680257,-0.68026 -1.542183,-1.04687 -2.484375,-1.04687 z m 139.744145,4.07812 c -0.95849,0 -1.8312,0.36245 -2.51368,1.04492 -0.68247,0.68248 -1.04687,1.55636 -1.04687,2.51563 v 7.90625 c -2.45917,-1.61541 -5.2422,-2.47266 -8.3418,-2.47266 -4.25532,0 -7.93742,1.5214 -10.93945,4.52344 -3.00204,3.00203 -4.52344,6.68413 -4.52344,10.93945 0,4.25532 1.5214,7.93742 4.52344,10.93945 3.00203,3.00203 6.68413,4.52344 10.93945,4.52344 4.25532,0 7.93742,-1.52141 10.93945,-4.52344 2.96114,-2.96114 4.48232,-6.58892 4.52344,-10.7832 a 0.50152745,0.50152745 0 0 0 0,-0.006 v -21.04687 c 0,-0.95927 -0.3644,-1.83315 -1.04687,-2.51563 -0.68248,-0.68247 -1.55519,-1.04492 -2.51367,-1.04492 z m -139.744145,7.43359 6.544922,13.49414 H 21.224609 Z m 42.064453,1.5 a 0.50152745,0.50152745 0 0 0 -0.02344,0.002 c -4.418887,0.20457 -8.098808,1.73553 -10.945313,4.58203 -2.961146,2.96115 -4.482317,6.58892 -4.523437,10.7832 a 0.50152745,0.50152745 0 0 0 0,0.006 v 11.57227 c 0,1.24545 0.330772,2.27999 1.044921,2.99414 0.682478,0.68247 1.556366,1.04687 2.515625,1.04687 0.959259,0 1.83158,-0.36478 2.513672,-1.04687 0.710093,-0.7101 1.044922,-1.72504 1.044922,-2.9336 v -11.57226 c 0,-0.17449 -0.01211,-0.34934 -0.0293,-0.52539 0.116521,-2.07795 0.910652,-3.82611 2.427735,-5.32422 a 0.50152745,0.50152745 0 0 0 0.0039,-0.002 c 1.655259,-1.65526 3.601024,-2.46094 5.941406,-2.46094 h 0.0293 c 0.959255,0 1.831578,-0.36477 2.513672,-1.04688 0.682093,-0.68209 1.046875,-1.55441 1.046875,-2.51367 0,-0.95925 -0.364782,-1.83158 -1.046875,-2.51367 -0.682092,-0.68209 -1.554413,-1.04688 -2.513672,-1.04688 z m 19.189453,0.0606 c -4.255324,0 -7.937423,1.5214 -10.939453,4.52344 -3.002031,3.00203 -4.523437,6.68413 -4.523437,10.93945 0,4.25532 1.521407,7.93742 4.523437,10.93945 3.00203,3.00203 6.684129,4.52344 10.939453,4.52344 4.254572,0 7.925662,-1.51159 10.908203,-4.49414 l 0.06055,-0.0605 c 0.68247,-0.68247 1.04492,-1.55518 1.04492,-2.51367 0,-0.95792 -0.36665,-1.82447 -1.05273,-2.48828 -2.7e-4,-2.7e-4 2.7e-4,-0.002 0,-0.002 -0.681799,-0.67823 -1.55269,-1.03906 -2.507814,-1.03906 -0.954774,0 -1.819029,0.35028 -2.484375,1.01562 a 0.50152745,0.50152745 0 0 0 -0.0059,0.006 l -0.05859,0.0606 c -1.653807,1.63114 -3.587387,2.42578 -5.904297,2.42578 -2.340119,0 -4.286015,-0.8075 -5.941406,-2.46289 -1.655523,-1.65553 -2.462891,-3.59933 -2.462891,-5.93946 0,-2.34011 0.807049,-4.27527 2.460938,-5.91015 a 0.50152745,0.50152745 0 0 0 0.002,-0.002 c 1.655259,-1.65526 3.601024,-2.46094 5.941406,-2.46094 2.34165,0 4.275724,0.79721 5.910156,2.43164 a 0.50152745,0.50152745 0 0 0 0.08594,0.0352 c 0.656481,0.65069 1.495615,1.00976 2.427734,1.00976 0.9376,0 1.791631,-0.35218 2.455078,-1.01562 0.680643,-0.68064 1.044923,-1.54298 1.044923,-2.48438 0,-0.95477 -0.35068,-1.81748 -1.015626,-2.48242 a 0.50152745,0.50152745 0 0 0 0,-0.0605 c -2.982541,-2.98254 -6.653631,-4.49414 -10.908203,-4.49414 z m 30.550779,0 c -4.25532,0 -7.93742,1.5214 -10.93945,4.52344 -3.00204,3.00203 -4.52344,6.68413 -4.52344,10.93945 0,4.25532 1.5214,7.93742 4.52344,10.93945 3.00203,3.00203 6.68413,4.52344 10.93945,4.52344 3.15683,0 5.98684,-0.88512 8.47852,-2.56054 0.13526,0.79891 0.40772,1.48991 0.98828,1.87695 0.6894,0.4596 1.51646,0.68359 2.43555,0.68359 0.91907,0 1.74614,-0.22399 2.43554,-0.68359 0.78601,-0.524 1.125,-1.5118 1.125,-2.75781 v -12.17188 a 0.50152745,0.50152745 0 0 0 0,-0.006 c -0.0411,-4.19444 -1.56432,-7.82213 -4.52539,-10.7832 -3.00194,-3.00196 -6.68217,-4.52344 -10.9375,-4.52344 z m 72.07422,0 c -4.25532,0 -7.93555,1.52148 -10.9375,4.52344 -3.00203,3.00203 -4.52344,6.68413 -4.52344,10.93945 0,4.25532 1.52142,7.93742 4.52344,10.93945 3.00195,3.00195 6.68218,4.52344 10.9375,4.52344 4.25457,0 7.92753,-1.51151 10.91016,-4.49414 l 0.0605,-0.0605 c 0.68248,-0.68247 1.04493,-1.55518 1.04493,-2.51367 0,-0.95791 -0.36665,-1.82447 -1.05274,-2.48828 -2.7e-4,-2.7e-4 2.7e-4,-0.002 0,-0.002 -0.6818,-0.67823 -1.55269,-1.03906 -2.50781,-1.03906 -0.95477,0 -1.81902,0.35028 -2.48438,1.01562 a 0.50152745,0.50152745 0 0 0 -0.006,0.006 l -0.0586,0.0606 c -1.65368,1.63101 -3.58934,2.42578 -5.90625,2.42578 -2.34012,0 -4.28393,-0.80737 -5.93945,-2.46289 -1.65553,-1.65553 -2.46289,-3.59933 -2.46289,-5.93946 0,-2.34011 0.80704,-4.27527 2.46093,-5.91015 a 0.50152745,0.50152745 0 0 0 0.002,-0.002 c 1.65539,-1.6554 3.59906,-2.46094 5.93945,-2.46094 0.97605,0 1.85945,0.18511 2.69727,0.46875 l -5.41993,5.41992 a 0.50152745,0.50152745 0 0 0 -0.006,0.008 c -0.6609,0.68369 -1.00977,1.55109 -1.00977,2.50586 0,0.97208 0.3467,1.85116 1.00977,2.53711 a 0.50152745,0.50152745 0 0 0 0.0137,0.0137 c 0.68555,0.6627 1.56307,1.00977 2.53515,1.00977 0.95478,0 1.82374,-0.3485 2.50782,-1.00977 a 0.50152745,0.50152745 0 0 0 0.006,-0.006 l 8.57421,-8.51562 a 0.50152745,0.50152745 0 0 0 0.002,0 c 0.66344,-0.66345 1.01562,-1.51748 1.01562,-2.45508 0,-0.91584 -0.3399,-1.73756 -0.95312,-2.39062 a 0.50152745,0.50152745 0 0 0 -0.0625,-0.15235 c -2.98263,-2.98262 -6.65559,-4.49414 -10.91016,-4.49414 z m -91.716796,4.58008 c 0.215596,0.55769 0.123626,0.21556 0,0.58398 a 0.50152745,0.50152745 0 0 0 0,-0.58398 z m 19.642576,2.48047 c 2.34039,0 4.28406,0.80554 5.93946,2.46094 a 0.50152745,0.50152745 0 0 0 0.004,0.002 c 1.51709,1.49811 2.31121,3.24627 2.42774,5.32422 -0.0172,0.17606 -0.0293,0.3509 -0.0293,0.52539 v 1.09765 c -0.21042,1.88428 -0.99795,3.49795 -2.40234,4.90235 -1.65553,1.65552 -3.59933,2.46289 -5.93946,2.46289 -2.34011,0 -4.28601,-0.8075 -5.9414,-2.46289 -1.63385,-1.65428 -2.43164,-3.59928 -2.43164,-5.93946 0,-2.34164 0.79734,-4.27781 2.43164,-5.9121 1.65525,-1.65526 3.60103,-2.46094 5.9414,-2.46094 z m 36.03711,0.0293 c 2.34012,0 4.28602,0.80749 5.94141,2.46289 1.40424,1.40423 2.18994,3.01775 2.40039,4.90234 v 1.09766 c 0,0.17769 0.0139,0.35175 0.0312,0.52539 -0.11652,2.07793 -0.91066,3.82609 -2.42774,5.32421 a 0.50152745,0.50152745 0 0 0 -0.004,0.002 c -1.65526,1.65526 -3.60102,2.46094 -5.94141,2.46094 -2.33973,0 -4.2855,-0.79658 -5.93945,-2.42969 l -0.002,-0.002 c -6.8e-4,-6.6e-4 -0.001,-0.001 -0.002,-0.002 -1.6331,-1.65395 -2.42969,-3.59971 -2.42969,-5.93945 0,-2.34165 0.79766,-4.28644 2.4336,-5.94141 1.65495,-1.65402 3.60029,-2.46093 5.93945,-2.46093 z"
       transform="translate(1.3535175,-40.078128)" />
  </g>
</svg>
