<?xml version="1.0" encoding="UTF-8" standalone="no"?>
<!-- Created with Inkscape (http://www.inkscape.org/) -->

<svg
   width="250mm"
   height="250mm"
   viewBox="0 0 250 250"
   version="1.1"
   id="svg1"
   xml:space="preserve"
   inkscape:version="1.4.2 (f4327f4, 2025-05-13)"
   sodipodi:docname="Batman.svg"
   xmlns:inkscape="http://www.inkscape.org/namespaces/inkscape"
   xmlns:sodipodi="http://sodipodi.sourceforge.net/DTD/sodipodi-0.dtd"
   xmlns="http://www.w3.org/2000/svg"
   xmlns:svg="http://www.w3.org/2000/svg"><sodipodi:namedview
     id="namedview1"
     pagecolor="#ffffff"
     bordercolor="#666666"
     borderopacity="1.0"
     inkscape:showpageshadow="2"
     inkscape:pageopacity="0.0"
     inkscape:pagecheckerboard="0"
     inkscape:deskcolor="#d1d1d1"
     inkscape:document-units="mm"
     showgrid="true"
     inkscape:zoom="0.71731513"
     inkscape:cx="1030.2306"
     inkscape:cy="693.55849"
     inkscape:window-width="3440"
     inkscape:window-height="1369"
     inkscape:window-x="2552"
     inkscape:window-y="-8"
     inkscape:window-maximized="1"
     inkscape:current-layer="layer1"><inkscape:grid
       id="grid1"
       units="mm"
       originx="0"
       originy="0"
       spacingx="0.99999998"
       spacingy="1"
       empcolor="#0099e5"
       empopacity="0.30196078"
       color="#0099e5"
       opacity="0.14901961"
       empspacing="10"
       enabled="true"
       visible="true" /></sodipodi:namedview><defs
     id="defs1"><pattern
       id="EMFhbasepattern"
       patternUnits="userSpaceOnUse"
       width="6"
       height="6"
       x="0"
       y="0" /></defs><g
     inkscape:label="Ebene 1"
     inkscape:groupmode="layer"
     id="layer1"><path
       id="text1-9"
       style="font-size:106.22px;line-height:1.25;font-family:'Neon 80s';-inkscape-font-specification:'Neon 80s';letter-spacing:-5.29167px;fill:#00619a;fill-opacity:0.498084;stroke-width:0.264583"
       d="m 449.48921,-232.97052 c -5.61972,0.39453 -10.54114,4.50336 -12.59986,9.64624 -5.98163,12.96812 -12.43055,25.71477 -18.55738,38.61576 -4.18384,8.72866 -8.44542,17.4279 -12.47163,26.2263 -1.60459,6.74644 2.70721,14.45145 9.46252,16.2887 6.21199,1.74168 13.45194,-1.44571 16.20117,-7.32222 2.07399,-3.83318 3.64873,-7.91125 5.67931,-11.76695 0.32108,-0.40274 0.30773,-1.33893 0.9933,-1.16042 8.14049,0.005 16.28099,0.0108 24.42148,0.0156 3.21801,5.65801 5.17798,12.10383 9.56745,17.03881 3.56083,3.56565 9.22121,4.44719 13.9043,2.86011 1.47957,-0.6282 3.13261,-0.87713 4.7093,-0.48137 1.77407,0.45167 3.48233,1.23484 5.3448,1.27532 5.19387,0.31007 10.64067,-2.46793 12.89815,-7.25852 1.04618,-2.07148 2.30838,-4.40464 4.67982,-5.14768 2.88973,-0.99142 6.18669,0.36252 7.97401,2.73979 4.2688,4.22103 9.76044,7.12025 15.50112,8.63458 8.76346,2.32578 18.40156,0.85643 26.14866,-3.82572 1.7041,-0.86304 3.10476,-2.4163 5.0736,-2.67029 1.91762,-0.32935 3.8859,0.35742 5.36131,1.58179 4.63949,3.15378 9.94181,5.07771 15.54609,5.73438 4.54147,0.5413 9.16636,0.10727 13.56924,-1.10182 1.77113,-0.41321 3.71461,-0.36117 5.36756,0.32993 1.74961,0.60339 3.56772,1.15417 5.44052,1.00836 3.88536,0.005 7.7127,-1.55047 10.54884,-4.19618 1.91499,-1.71703 4.75674,-2.05601 7.13101,-1.20025 1.71589,0.58249 3.14427,1.75347 4.82948,2.41326 9.09598,4.07843 20.07698,3.99911 29.06057,-0.45983 4.01986,-1.92745 7.48237,-4.79788 10.69769,-7.84498 2.26581,-1.60904 5.56266,-0.7038 7.18396,1.40467 2.25175,2.20007 4.80101,4.07044 7.59616,5.60571 4.94735,2.6902 10.71975,4.28615 16.43354,4.29846 8.94481,0.0327 17.99415,-3.48632 24.19454,-10.00611 1.94273,-2.05511 3.59559,-4.52144 4.02079,-7.37175 0.71228,-4.0025 -0.50393,-8.41277 -3.1854,-11.55414 -0.83677,-0.92601 -1.79468,-1.80363 -2.18305,-3.03309 -1.07107,-2.83961 -0.15579,-6.22295 2.0734,-8.24887 3.30736,-3.54823 4.20908,-8.9935 2.47388,-13.48842 -1.40549,-3.83996 -4.40548,-6.88043 -7.84471,-8.98726 -5.5559,-3.64543 -12.16194,-5.83866 -18.791,-5.90133 -4.63726,-0.10715 -9.26815,0.68056 -13.5183,2.40403 -1.40259,0.45551 -2.74458,1.21353 -4.22725,1.35466 -3.1484,0.13409 -5.95613,-2.85495 -5.72949,-5.9791 -0.073,-2.27721 -0.69159,-4.58541 -1.75776,-6.50746 -2.07412,-3.88836 -6.34787,-6.29612 -10.59182,-6.81126 -3.67902,-0.49391 -7.48164,0.79635 -10.1993,3.30161 -2.51354,2.24179 -4.16099,5.32603 -4.93955,8.57964 -0.84711,2.2878 -3.42241,3.30676 -5.69377,3.44287 -3.25365,0.26569 -6.55593,0.33961 -9.70924,1.27804 -4.89809,1.28709 -9.52507,3.69832 -13.38102,6.86363 -1.29845,1.00687 -2.4233,2.21607 -3.68164,3.26367 -2.25433,1.55797 -5.60692,0.82385 -7.17802,-1.3657 -5.44796,-5.33743 -12.71043,-8.79096 -20.23605,-9.68949 -8.54108,-1.02722 -17.3674,1.41771 -24.3125,6.45558 -1.72924,1.20175 -4.12817,1.50933 -5.98943,0.41837 -1.88458,-0.97582 -3.46309,-2.4632 -5.43574,-3.28461 -8.23873,-4.19347 -18.14722,-4.89119 -26.85512,-1.99043 -1.83563,0.56756 -3.58945,1.62667 -5.57828,1.48404 -2.15272,-0.0189 -4.00713,-1.22274 -5.83674,-2.20549 -3.2496,-1.38844 -6.88605,-1.36843 -10.2961,-0.78039 -5.08498,0.83548 -9.96418,2.7759 -14.27812,5.63 -3.33323,2.22222 -6.34333,5.03227 -8.74455,8.31072 -1.29125,1.77535 -2.57847,3.90439 -4.85733,4.48282 -3.2342,0.98536 -6.96557,-0.99915 -8.06598,-4.17442 -5.24371,-10.64572 -10.29196,-21.39376 -15.925,-31.84112 -1.30728,-1.94298 -3.37513,-3.2524 -5.47464,-4.20241 -1.87616,-0.79515 -3.92356,-1.19155 -5.9618,-1.12833 z" /><path
       d="m 431.73362,-170.40606 -8.60963,17.73791 q -0.36306,0.77797 -1.03731,1.50409 -1.55595,1.50409 -3.68243,1.50409 -2.17834,0 -3.68243,-1.50409 -1.50409,-1.55596 -1.50409,-3.68243 0,-1.5041 0.77798,-2.697 l 30.75608,-63.37931 q 0.36306,-0.82985 1.08917,-1.55596 1.50409,-1.55596 3.68243,-1.55596 2.12648,0 3.68244,1.55596 0.62238,0.62238 0.98544,1.3485 l 30.75608,63.37931 q 0.88171,1.24477 0.88171,2.90446 0,2.12647 -1.55596,3.68243 -1.50409,1.50409 -3.63056,1.50409 -2.17834,0 -3.68244,-1.50409 -0.67424,-0.72612 -1.0373,-1.50409 h -0.0519 l -8.60964,-17.73791 z m 30.49676,-10.37305 -12.70699,-26.19195 -12.75884,26.19195 z m 54.76826,-20.7461 q 2.17834,0 3.7343,1.55596 1.55596,1.55596 1.55596,3.7343 0,2.17834 -1.55596,3.7343 -1.55596,1.55595 -3.7343,1.55595 h -0.0519 q -6.37942,0 -10.8917,4.51228 -4.14922,4.09735 -4.46041,9.80253 0.0519,0.46678 0.0519,0.93357 v 20.01998 q 0,2.90446 -1.55596,4.46041 -1.55591,1.55596 -3.73425,1.55596 -2.17834,0 -3.7343,-1.55596 -1.55595,-1.55595 -1.55595,-4.56414 v -20.01998 q 0.10373,-10.58051 7.57232,-18.0491 7.1574,-7.1574 18.36029,-7.67606 z m 46.10679,7.67606 q 0,0.0519 0.0519,0.0519 1.50409,1.50409 1.50409,3.68243 0,2.12648 -1.55595,3.68243 -1.5041,1.50409 -3.63057,1.50409 -2.17834,0 -3.68243,-1.55595 h -0.0519 q -4.46041,-4.46041 -10.83983,-4.46041 -6.37943,0 -10.8917,4.51227 -4.51228,4.46041 -4.51228,10.83984 0,6.37942 4.51228,10.8917 4.51227,4.51227 10.8917,4.51227 6.32756,0 10.83983,-4.46041 0.0519,-0.0519 0.10373,-0.10373 1.50409,-1.50409 3.68243,-1.50409 2.17834,0 3.7343,1.55596 1.55596,1.50409 1.55596,3.68243 0,2.17834 -1.55596,3.73429 -0.0519,0.0519 -0.10373,0.10374 -7.52047,7.52046 -18.25657,7.52046 -10.73611,0 -18.30843,-7.57232 -7.57232,-7.57233 -7.57232,-18.30843 0,-10.73611 7.57232,-18.30843 7.57232,-7.57233 18.30843,-7.57233 10.7361,0 18.25656,7.52046 z m 40.24599,7.41673 q -4.51228,-4.51228 -10.8917,-4.51228 -6.37943,0 -10.8917,4.51228 -4.46041,4.46041 -4.46041,10.83983 0,6.37943 4.46041,10.8917 4.51227,4.51228 10.8917,4.51228 6.37942,0 10.8917,-4.51228 3.83803,-3.83803 4.40854,-9.02455 v -1.97088 q 0,-0.46679 0.0519,-0.93357 -0.31119,-5.70518 -4.46041,-9.80253 z m 14.98905,31.68966 q 0,3.00818 -1.55596,4.04548 -1.55595,1.03731 -3.73429,1.03731 -2.17834,0 -3.7343,-1.03731 -1.55596,-1.0373 -1.55596,-3.94175 -6.63875,4.97906 -15.30024,4.97906 -10.7361,0 -18.30843,-7.57232 -7.57232,-7.57233 -7.57232,-18.30843 0,-10.73611 7.57232,-18.30843 7.57233,-7.57233 18.30843,-7.57233 10.7361,0 18.30843,7.57233 7.46859,7.46859 7.57232,18.0491 z m 46.52171,-19.70879 q -0.0519,-0.46679 -0.0519,-0.93358 v -1.97088 q -0.57052,-5.18652 -4.40855,-9.02455 -4.51227,-4.51227 -10.8917,-4.51227 -6.37942,0 -10.8917,4.51227 -4.46041,4.51228 -4.46041,10.8917 0,6.37943 4.46041,10.8917 4.51228,4.46041 10.8917,4.46041 6.37943,0 10.8917,-4.51227 4.14922,-4.09736 4.46041,-9.80253 z m 10.52865,-0.82985 q -0.10374,10.58051 -7.57233,18.04911 -7.57232,7.57232 -18.30843,7.57232 -10.7361,0 -18.30843,-7.57232 -7.57232,-7.57233 -7.57232,-18.30843 0,-10.73611 7.57232,-18.30843 7.57233,-7.57233 18.30843,-7.57233 8.6615,0 15.30025,4.97907 v -15.24838 q 0,-2.17834 1.55595,-3.7343 1.55596,-1.55596 3.7343,-1.55596 2.17834,0 3.7343,1.55596 1.55596,1.55596 1.55596,3.7343 z m 37.44529,-14.36667 q -2.85259,-1.29663 -6.27569,-1.29663 -6.37943,0 -10.8917,4.51228 -4.51228,4.46041 -4.51228,10.83983 0,6.37943 4.51228,10.8917 4.51227,4.51228 10.8917,4.51228 6.32756,0 10.83983,-4.46041 0.0519,-0.0519 0.10373,-0.10373 1.50409,-1.5041 3.68243,-1.5041 2.17834,0 3.7343,1.55596 1.55596,1.50409 1.55596,3.68243 0,2.17834 -1.55596,3.7343 -0.0519,0.0519 -0.10373,0.10373 -7.52046,7.52046 -18.25656,7.52046 -10.73611,0 -18.30843,-7.57232 -7.57233,-7.57233 -7.57233,-18.30843 0,-10.73611 7.57233,-18.30843 7.57232,-7.57233 18.30843,-7.57233 10.7361,0 18.25656,7.52046 l -0.0519,0.0519 q 0,0.0519 0.0519,0.0519 1.50409,1.5041 1.50409,3.68244 0,2.12647 -1.50409,3.63056 l -14.83346,14.72974 q -1.55595,1.50409 -3.73429,1.50409 -2.23021,0 -3.78617,-1.50409 -1.50409,-1.55596 -1.50409,-3.78616 0,-2.17834 1.50409,-3.7343 z"
       id="text1"
       style="font-size:106.22px;line-height:1.25;font-family:'Neon 80s';-inkscape-font-specification:'Neon 80s';letter-spacing:-5.29167px;fill:#ff0000;fill-opacity:1;stroke-width:0.264583"
       aria-label="Arcade" /><text
       xml:space="preserve"
       style="font-style:normal;font-variant:normal;font-weight:normal;font-stretch:normal;font-size:106.22px;line-height:1.25;font-family:'Neon 80s';-inkscape-font-specification:'Neon 80s';letter-spacing:-5.29167px;stroke-width:0.264583"
       x="854.81348"
       y="120"
       id="text1-8"><tspan
         sodipodi:role="line"
         id="tspan1-5"
         x="854.81348"
         y="120"
         style="font-style:normal;font-variant:normal;font-weight:normal;font-stretch:normal;font-family:'Neon 80s';-inkscape-font-specification:'Neon 80s';letter-spacing:-5.29167px;stroke-width:0.264583"
         dx="0">Arcade</tspan></text><path
       style="fill:#000000;stroke-width:1"
       d="m 666.83003,-48.04185 c -3.21609,-0.3359 -6.23719,-1.99805 -8.19458,-4.50849 -2.46983,-3.16766 -3.17217,-7.33816 -1.8977,-11.26849 0.13493,-0.41611 0.23867,-0.76017 0.23052,-0.76456 -0.008,-0.004 -0.21942,-0.0622 -0.46948,-0.12846 -0.67671,-0.17929 -1.64021,-0.6824 -2.28685,-1.1941 -1.14951,-0.90964 -1.96163,-2.16727 -2.38238,-3.68927 -0.0955,-0.34542 -0.12131,-0.70364 -0.11766,-1.63173 0.004,-1.08941 0.0208,-1.24195 0.19658,-1.8187 0.74161,-2.43287 2.68451,-4.17712 5.22659,-4.69221 0.84769,-0.17177 2.19181,-0.10925 3.0316,0.141 1.98934,0.59281 3.56751,1.9833 4.35694,3.83878 0.24677,0.58 0.50646,1.63644 0.50814,2.06712 8e-4,0.20752 0.0196,0.23144 0.15831,0.20134 0.0866,-0.0188 0.4879,-0.1076 0.89186,-0.19736 0.62208,-0.13824 0.92714,-0.16297 1.99357,-0.16164 1.20693,0.002 1.83094,0.079 2.81548,0.34987 0.14339,0.0394 0.15753,0.0192 0.15891,-0.22718 0.002,-0.4454 0.25602,-1.45717 0.51475,-2.05421 0.80227,-1.85129 2.36843,-3.22565 4.34973,-3.81702 0.88724,-0.26482 2.22919,-0.31239 3.19237,-0.11317 1.35368,0.28 2.32254,0.81079 3.34346,1.83171 0.76253,0.76253 1.1357,1.3062 1.48841,2.16845 0.87721,2.14448 0.59476,4.57056 -0.75331,6.47036 -0.41721,0.58797 -1.30052,1.41042 -1.94862,1.81436 -0.50586,0.31529 -1.73512,0.80667 -2.02166,0.80813 -0.15224,8e-4 -0.15609,-0.0356 0.0558,0.52752 0.43648,1.15963 0.72775,2.79335 0.72915,4.0898 0.006,5.85187 -4.17982,10.84431 -9.915,11.82479 -0.96237,0.16452 -2.39474,0.22321 -3.25498,0.13336 z"
       id="path1" /><path
       style="fill:none;stroke:#000000;stroke-width:5;stroke-dasharray:none;stroke-opacity:1"
       d="m 817.90784,-39.488101 c -9.15577,0.05328 -19.33611,-41.21874 -43.17705,-32.59146 -8.0624,2.91753 -16.38485,9.50071 -18.60044,-2.36276 -2.96956,-15.90065 -30.96956,-22.90065 -45.7708,-14.79181 -6.62926,3.63183 -6.15605,-2.94187 -6.19885,-5.76281 -0.38387,-25.299279 30.01331,-39.476649 54.00009,-53.346029 7.52403,-4.35046 -8.33278,17.47591 8.44982,30 11.99631,8.95229 35.63109,21.454939 35.68619,11.81872 0.0518,-9.05397 0.0397,-13.09108 0.58346,-22.31174 0.57578,-9.76395 8.69632,10.05472 15.64938,10.05814 6.44488,0.003 14.26169,-20.43849 14.04209,-9.28316 -0.16971,8.62111 -0.44076,13.47287 -0.12154,22.18239 0.3483,9.501949 19.77298,-3.16335 31.33359,-14.75475 8.22029,-7.36605 2.42043,-30.40222 9.78795,-27.07347 23.59288,10.6596 48.64164,23.26833 57.88637,48.682989 1.7027,4.68088 5.77656,14.53331 -3.62789,10.29381 -14.66941,-6.61293 -37.66942,-2.61293 -46.37973,12.52036 -2.88559,5.01342 -5.82682,8.25448 -13.28969,4.84658 -25.84301,-9.87642 -43.07997,31.83326 -50.25295,31.875 z"
       id="path2"
       sodipodi:nodetypes="ssssassssssssssssss" /><text
       xml:space="preserve"
       style="font-style:normal;font-variant:normal;font-weight:normal;font-stretch:normal;font-size:68.0009px;line-height:1.25;font-family:'Neon 80s';-inkscape-font-specification:'Neon 80s';fill:#ffc100;fill-opacity:1;stroke-width:0.264583"
       x="410.41403"
       y="-69.659973"
       id="text2"><tspan
         sodipodi:role="line"
         id="tspan2"
         style="font-style:normal;font-variant:normal;font-weight:normal;font-stretch:normal;font-family:'Neon 80s';-inkscape-font-specification:'Neon 80s';fill:#ffc100;fill-opacity:1;stroke-width:0.264583"
         x="410.41403"
         y="-69.659973">Arcade</tspan></text><path
       id="rect2"
       style="fill:#ff7c00;fill-opacity:0.448276;stroke-width:4.99999"
       d="m 430.06066,-90.000001 3.55034,0.0346 -1.17554,4.59184 H 430 Z"
       sodipodi:nodetypes="ccccc" /><g
       id="g21"><path
         style="fill:none;stroke:#000000;stroke-width:6.75;stroke-linecap:butt;stroke-linejoin:miter;stroke-dasharray:none;stroke-opacity:1"
         d="m 384,169.97917 c 17.38856,-7.72779 25,2 22,10 -7.85708,20.95221 -56.63269,58.016 -32.3847,69.71204 23.6534,11.40924 65.32045,-54.95321 79.28866,-80.85357"
         id="path6-3"
         sodipodi:nodetypes="cssc" /><path
         style="fill:none;stroke:#000000;stroke-width:6.75;stroke-linecap:butt;stroke-linejoin:miter;stroke-dasharray:none;stroke-opacity:1"
         d="m 408,244 c 14,0 31,0 49,0"
         id="path7-1"
         sodipodi:nodetypes="cc" /><path
         style="fill:none;stroke:#000000;stroke-width:6.74999;stroke-linecap:butt;stroke-linejoin:miter;stroke-dasharray:none;stroke-opacity:1"
         d="m 496,244 c 38,1 80.38579,0 115.09221,0"
         id="path7-3-9"
         sodipodi:nodetypes="cc" /><path
         style="fill:none;stroke:#000000;stroke-width:6.75;stroke-linecap:butt;stroke-linejoin:miter;stroke-dasharray:none;stroke-opacity:1"
         d="m 444,219.1 c 11.83229,-4.47282 31.14405,-12.7578 23,-22 -7.52188,-8.53614 -21.78767,4.50435 -28,12 -4.94506,5.96659 -12.12513,14.10922 -6,21 8,9 24.31169,-3.42638 35,-11"
         id="path8-8"
         sodipodi:nodetypes="csssc" /><path
         style="fill:none;stroke:#000000;stroke-width:6.75;stroke-linecap:butt;stroke-linejoin:miter;stroke-dasharray:none;stroke-opacity:1"
         d="m 482.15172,234.1 c 0,0 -13.01411,1.92241 -16.56194,7 -5.58978,8 -0.58978,12 5.41022,12 17.02939,0 37.84601,-43.29825 43,-49.46107"
         id="path9-6"
         sodipodi:nodetypes="cssc" /><path
         style="fill:none;stroke:#000000;stroke-width:6.75;stroke-linecap:butt;stroke-linejoin:miter;stroke-dasharray:none;stroke-opacity:1"
         d="m 521,200.1 c -6.51903,-4.74635 -28.80161,-9.81935 -39,3 -4.28624,5.3878 -9.32254,15.28419 -4,21 5.94001,6.3789 14,-1 16.88552,-3.8656"
         id="path10-5"
         sodipodi:nodetypes="cssc" /><path
         style="fill:none;stroke:#000000;stroke-width:6.75;stroke-linecap:butt;stroke-linejoin:miter;stroke-dasharray:none;stroke-opacity:1"
         d="M 571.05833,200.15833 C 549.19973,177.15309 504.22389,214.76681 521,230.1 c 7.84652,7.17163 16,-4 16,-4"
         id="path11-0"
         sodipodi:nodetypes="csc" /><path
         style="fill:none;stroke:#000000;stroke-width:6.75;stroke-linecap:butt;stroke-linejoin:miter;stroke-dasharray:none;stroke-opacity:1"
         d="M 564.71167,202.60344 C 559.58751,210.1 538.58751,220.1 546.58751,229.1 c 8.45597,9.51297 43,-26 50,-31"
         id="path12-2"
         sodipodi:nodetypes="csc" /><path
         style="fill:none;stroke:#000000;stroke-width:6.75;stroke-linecap:butt;stroke-linejoin:miter;stroke-dasharray:none;stroke-opacity:1"
         d="m 598.58751,192.1 c 15.61066,18.8437 6.597,40.26896 -7,41 -8.34747,0.44881 -10,-4 -15,-10"
         id="path13-8"
         sodipodi:nodetypes="csc" /><path
         style="fill:none;stroke:#000000;stroke-width:6.75;stroke-linecap:butt;stroke-linejoin:miter;stroke-dasharray:none;stroke-opacity:1"
         d="m 556.837,121.2856 c -21.96125,-23.222386 -67.40369,14.51602 -50.5875,29.94167 7.83356,7.18579 16,-4 16,-4"
         id="path11-8-6"
         sodipodi:nodetypes="csc" /><path
         style="fill:none;stroke:#000000;stroke-width:6.75;stroke-linecap:butt;stroke-linejoin:miter;stroke-dasharray:none;stroke-opacity:1"
         d="m 549.96117,123.73071 c -5.12416,7.49656 -26.12416,17.49656 -18.12416,26.49656 8.45597,9.51297 43,-26 50,-31"
         id="path12-7-0"
         sodipodi:nodetypes="csc" /><path
         style="fill:none;stroke:#000000;stroke-width:6.75;stroke-linecap:butt;stroke-linejoin:miter;stroke-dasharray:none;stroke-opacity:1"
         d="m 583.83701,113.22727 c 15.61066,18.8437 6.597,40.26896 -7,41 -8.34747,0.44881 -10,-4 -15,-10"
         id="path13-4-2"
         sodipodi:nodetypes="csc" /><path
         style="fill:none;stroke:#000000;stroke-width:6.75;stroke-linecap:butt;stroke-linejoin:miter;stroke-dasharray:none;stroke-opacity:1"
         d="M 448.49966,145.89427 C 420,123.70517 399.65205,158.9493 421.89344,170 c 12.85889,6.38898 20.5901,-3.76497 31.37821,-19.28511 16.91355,-24.33242 34.6944,-60.714889 53.62179,-60.714889 21,0 18.28015,28.477639 -12.89344,29.099999"
         id="path14-4"
         sodipodi:nodetypes="csssc" /><path
         style="fill:none;stroke:#000000;stroke-width:6.75;stroke-linecap:butt;stroke-linejoin:miter;stroke-dasharray:none;stroke-opacity:1"
         d="M 595.43694,165.08949 C 478.10882,164.43391 480,170 460,155.1"
         id="path15-8"
         sodipodi:nodetypes="cc" /></g><g
       id="g22"
       transform="matrix(0.9252347,0,0,0.9252347,8.6354968,3.3545046)"
       style="stroke-width:1.08081"><path
         style="fill:none;stroke:#ffbf00;stroke-width:7.29544;stroke-linecap:butt;stroke-linejoin:miter;stroke-dasharray:none;stroke-opacity:1"
         d="m 30.871509,130.02954 c 16.016339,-7.11241 23.027121,1.84074 20.263866,9.20369 -7.237037,19.28375 -52.1635122,53.39609 -29.829056,64.16075 21.786788,10.5007 60.165676,-50.57719 73.031583,-74.41506"
         id="path6-3-7"
         sodipodi:nodetypes="cssc" /><path
         style="fill:none;stroke:#ffbf00;stroke-width:7.29544;stroke-linecap:butt;stroke-linejoin:miter;stroke-dasharray:none;stroke-opacity:1"
         d="m 52.977545,198.15597 c 12.895187,0 28.55363,0 45.133157,0"
         id="path7-1-1"
         sodipodi:nodetypes="cc" /><path
         style="fill:none;stroke:#ffbf00;stroke-width:7.29542;stroke-linecap:butt;stroke-linejoin:miter;stroke-dasharray:none;stroke-opacity:1"
         d="m 134.03301,198.15597 c 35.00122,0.92037 74.04213,0 106.00969,0"
         id="path7-3-9-7"
         sodipodi:nodetypes="cc" /><path
         style="fill:none;stroke:#ffbf00;stroke-width:7.29544;stroke-linecap:butt;stroke-linejoin:miter;stroke-dasharray:none;stroke-opacity:1"
         d="m 86.136599,175.2388 c 10.898543,-4.11664 28.686311,-11.74187 21.184951,-20.2481 -6.92829,-7.8564 -20.068292,4.14566 -25.790375,11.04442 -4.55482,5.49146 -11.168274,12.98568 -5.526509,19.32773 7.368678,8.28332 22.393129,-3.15353 32.237974,-10.12405"
         id="path8-8-7"
         sodipodi:nodetypes="csssc" /><path
         style="fill:none;stroke:#ffbf00;stroke-width:7.29544;stroke-linecap:butt;stroke-linejoin:miter;stroke-dasharray:none;stroke-opacity:1"
         d="m 121.27757,189.04433 c 0,0 -11.9871,1.76932 -15.25495,6.44257 -5.14866,7.36295 -0.54324,11.04442 4.98327,11.04442 15.68551,0 34.85939,-39.85033 39.60665,-45.5224"
         id="path9-6-7"
         sodipodi:nodetypes="cssc" /><path
         style="fill:none;stroke:#ffbf00;stroke-width:7.29544;stroke-linecap:butt;stroke-linejoin:miter;stroke-dasharray:none;stroke-opacity:1"
         d="m 157.06013,157.7518 c -6.00458,-4.36839 -26.52872,-9.03742 -35.92231,2.76111 -3.94799,4.95876 -8.58685,14.06708 -3.68434,19.32773 5.47126,5.87094 12.89519,-0.92037 15.553,-3.55777"
         id="path10-5-7"
         sodipodi:nodetypes="cssc" /><path
         style="fill:none;stroke:#ffbf00;stroke-width:7.29544;stroke-linecap:butt;stroke-linejoin:miter;stroke-dasharray:none;stroke-opacity:1"
         d="m 203.1681,157.80549 c -20.13362,-21.1733 -61.56019,13.44518 -46.10797,27.55736 7.22731,6.60054 14.73736,-3.68147 14.73736,-3.68147"
         id="path11-0-3"
         sodipodi:nodetypes="csc" /><path
         style="fill:none;stroke:#ffbf00;stroke-width:7.29544;stroke-linecap:butt;stroke-linejoin:miter;stroke-dasharray:none;stroke-opacity:1"
         d="m 197.32229,160.05589 c -4.71979,6.8996 -24.06257,16.10328 -16.69389,24.38659 7.78866,8.75544 39.60665,-23.92957 46.05424,-28.53141"
         id="path12-2-3"
         sodipodi:nodetypes="csc" /><path
         style="fill:none;stroke:#ffbf00;stroke-width:7.29544;stroke-linecap:butt;stroke-linejoin:miter;stroke-dasharray:none;stroke-opacity:1"
         d="m 228.52481,150.38886 c 14.37874,17.34314 6.0764,37.06227 -6.44759,37.7351 -7.68873,0.41307 -9.21085,-3.68148 -13.81628,-9.20369"
         id="path13-8-5"
         sodipodi:nodetypes="csc" /><path
         style="fill:none;stroke:#ffbf00;stroke-width:7.29544;stroke-linecap:butt;stroke-linejoin:miter;stroke-dasharray:none;stroke-opacity:1"
         d="m 190.06905,85.213523 c -20.22818,-21.373149 -62.08452,13.360086 -46.59538,27.557367 7.21537,6.61357 14.73736,-3.68147 14.73736,-3.68147"
         id="path11-8-6-9"
         sodipodi:nodetypes="csc" /><path
         style="fill:none;stroke:#ffbf00;stroke-width:7.29544;stroke-linecap:butt;stroke-linejoin:miter;stroke-dasharray:none;stroke-opacity:1"
         d="m 183.73583,87.463925 c -4.71979,6.899597 -24.06257,16.103285 -16.69389,24.386595 7.78866,8.75544 39.60665,-23.929577 46.05424,-28.531418"
         id="path12-7-0-9"
         sodipodi:nodetypes="csc" /><path
         style="fill:none;stroke:#ffbf00;stroke-width:7.29544;stroke-linecap:butt;stroke-linejoin:miter;stroke-dasharray:none;stroke-opacity:1"
         d="m 214.93835,77.796892 c 14.37874,17.343144 6.0764,37.062278 -6.44759,37.735098 -7.68873,0.41307 -9.21085,-3.68147 -13.81628,-9.20368"
         id="path13-4-2-8"
         sodipodi:nodetypes="csc" /><path
         style="fill:none;stroke:#ffbf00;stroke-width:7.29544;stroke-linecap:butt;stroke-linejoin:miter;stroke-dasharray:none;stroke-opacity:1"
         d="M 90.281168,107.86256 C 64.030563,87.440419 45.288375,119.878 65.774582,130.04871 c 11.844128,5.88022 18.965229,-3.46515 28.901993,-17.7494 15.578815,-22.394789 31.956485,-55.880061 49.390215,-55.880061 19.34278,0 16.83757,26.209917 -11.87595,26.782717"
         id="path14-4-1"
         sodipodi:nodetypes="csssc" /><path
         style="fill:none;stroke:#ffbf00;stroke-width:7.29544;stroke-linecap:butt;stroke-linejoin:miter;stroke-dasharray:none;stroke-opacity:1"
         d="m 225.62287,125.52924 c -108.06915,-0.60338 -106.32722,4.51947 -124.74891,-9.19401"
         id="path15-8-8"
         sodipodi:nodetypes="cc" /></g><rect
       style="fill:none;fill-opacity:0.455939;stroke:#ffbf00;stroke-width:6.75;stroke-dasharray:none;stroke-opacity:1"
       id="rect22"
       width="230.68097"
       height="160.40025"
       x="9.6595154"
       y="44.799873"
       ry="14.754091"
       rx="14.754093" /></g></svg>
