<?xml version="1.0" encoding="UTF-8" standalone="no"?>
<!-- Created with Inkscape (http://www.inkscape.org/) -->

<svg
   width="500mm"
   height="250mm"
   viewBox="0 0 500 250"
   version="1.1"
   id="svg1"
   xml:space="preserve"
   inkscape:version="1.4.2 (f4327f4, 2025-05-13)"
   sodipodi:docname="PackmanGhostV2.svg"
   inkscape:export-filename="PackmanV2_1.svg"
   inkscape:export-xdpi="96"
   inkscape:export-ydpi="96"
   xmlns:inkscape="http://www.inkscape.org/namespaces/inkscape"
   xmlns:sodipodi="http://sodipodi.sourceforge.net/DTD/sodipodi-0.dtd"
   xmlns="http://www.w3.org/2000/svg"
   xmlns:svg="http://www.w3.org/2000/svg"><sodipodi:namedview
     id="namedview1"
     pagecolor="#ffffff"
     bordercolor="#000000"
     borderopacity="0.25"
     inkscape:showpageshadow="2"
     inkscape:pageopacity="0.0"
     inkscape:pagecheckerboard="0"
     inkscape:deskcolor="#d1d1d1"
     inkscape:document-units="mm"
     showgrid="true"
     inkscape:zoom="1.1602057"
     inkscape:cx="395.18853"
     inkscape:cy="504.65188"
     inkscape:window-width="3440"
     inkscape:window-height="1369"
     inkscape:window-x="2552"
     inkscape:window-y="-8"
     inkscape:window-maximized="1"
     inkscape:current-layer="layer1"><inkscape:grid
       id="grid2"
       units="mm"
       originx="0"
       originy="0"
       spacingx="0.99999999"
       spacingy="0.99999999"
       empcolor="#0099e5"
       empopacity="0.30196078"
       color="#0099e5"
       opacity="0.14901961"
       empspacing="10"
       enabled="true"
       visible="true" /><inkscape:page
       x="0"
       y="0"
       width="500"
       height="250"
       id="page2"
       margin="0"
       bleed="0" /></sodipodi:namedview><defs
     id="defs1" /><g
     inkscape:label="Ebene 1"
     inkscape:groupmode="layer"
     id="layer1"><path
       id="path3-4-1-2"
       style="baseline-shift:baseline;display:inline;overflow:visible;vector-effect:none;fill:#c31a00;fill-opacity:0.790828;enable-background:accumulate;stop-color:#000000"
       sodipodi:type="inkscape:offset"
       inkscape:radius="0.35951996"
       inkscape:original="M 286.48242 46.507812 C 270.3233 46.750329 254.09013 52.082485 241.45508 62.654297 C 228.82003 73.226108 219.9006 89.110089 218.50781 109.76367 L 218.50586 109.78711 L 218.50586 109.80859 C 218.38948 111.93239 218.40629 117.25554 218.42969 124.97656 C 218.45319 132.69759 218.5 142.58628 218.5 153 C 218.5 171.49143 218.43084 181.24283 218.52344 186.85547 C 218.56974 189.66179 218.64902 191.43871 218.83594 192.87891 C 219.02286 194.3191 219.39772 195.50924 219.79883 196.41602 C 221.62606 200.5468 224.78574 203.24931 228.30273 204.89062 C 230.73584 206.02613 233.35541 206.1626 235.9707 205.91016 C 238.586 205.65772 241.16034 204.99715 243.36523 203.48633 C 247.70306 200.51403 250.0747 196.12341 250.82617 190.13867 C 251.50112 184.76339 253.39504 182.56504 255.21094 181.32812 C 257.02684 180.09122 259.10451 179.87891 260.07031 179.87891 C 262.82295 179.87891 264.68538 180.69488 266.24805 182.33008 C 267.81071 183.96528 269.07381 186.63563 269.61914 190.48633 C 270.27267 195.10112 271.87157 199.00571 274.73047 201.75781 C 277.58937 204.50992 281.54984 205.81836 285.88477 205.81836 C 291.74371 205.81836 296.07149 203.04979 298.47461 199.76758 C 300.87773 196.48536 301.66597 192.9109 301.99414 190.58984 C 302.83739 184.62617 303.64228 183.20673 306.62305 181.31641 C 308.63279 180.04186 312.24745 179.43904 315.00977 180.50977 C 317.77208 181.5805 320.19596 183.86595 320.74023 190.08008 L 320.74805 190.17969 L 320.76367 190.27734 C 321.63129 196.27909 323.78132 200.3732 327.80859 203.16406 C 336.17666 208.96318 347.56365 205.4472 351.74609 195.99219 C 352.09387 195.206 352.50317 194.09661 352.74219 192.67578 C 352.98121 191.25496 353.12296 189.46944 353.23047 186.62891 C 353.44546 180.94782 353.5 171.00691 353.5 152 C 353.5 141.20156 353.54441 130.8188 353.56641 122.69727 C 353.58841 114.57573 353.60429 108.94756 353.49609 106.82227 C 352.47248 86.71364 343.79135 71.289029 331.29883 61.199219 C 318.80631 51.109408 302.64154 46.265297 286.48242 46.507812 z M 286.58789 53.507812 C 301.27274 53.287424 315.86007 57.727621 326.90039 66.644531 C 337.94071 75.561441 345.57175 88.865656 346.50391 107.17773 C 346.57121 108.50066 346.58831 114.56528 346.56641 122.67773 C 346.54451 130.79019 346.5 141.18262 346.5 152 C 346.5 170.99309 346.4412 180.95111 346.23633 186.36328 C 346.13391 189.06937 345.98875 190.62851 345.83984 191.51367 C 345.69094 192.39883 345.61253 192.55696 345.3457 193.16016 C 342.68455 199.17608 336.84305 200.90854 331.79492 197.41016 C 328.98228 195.46102 328.44499 194.48829 327.69141 189.27539 L 327.71289 189.4707 C 326.99826 181.31158 322.69499 175.98096 317.53906 173.98242 C 312.38313 171.98388 306.88984 172.85814 302.875 175.4043 C 298.39516 178.24529 296.0246 182.81896 295.06445 189.60938 C 294.83088 191.26135 294.16901 193.79679 292.82617 195.63086 C 291.48333 197.46493 289.7689 198.81836 285.88477 198.81836 C 282.85146 198.81836 280.99279 198.07103 279.58398 196.71484 C 278.17518 195.35866 277.05834 193.10367 276.54883 189.50586 C 275.85746 184.62392 274.16619 180.48437 271.30859 177.49414 C 268.451 174.50391 264.42626 172.87891 260.07031 172.87891 C 258.23551 172.87891 254.72649 173.18824 251.26953 175.54297 C 247.81257 177.8977 244.74791 182.3604 243.88086 189.26562 C 243.25645 194.2385 242.47126 195.61212 239.4082 197.71094 C 238.73207 198.17423 237.01065 198.77599 235.29688 198.94141 C 233.5831 199.10683 231.84192 198.81674 231.26367 198.54688 C 228.74568 197.37178 227.36768 196.22108 226.20117 193.58398 C 225.96644 193.05333 225.89715 192.89963 225.77734 191.97656 C 225.65754 191.05349 225.56816 189.44761 225.52344 186.73828 C 225.43394 181.31963 225.5 171.50857 225.5 153 C 225.5 142.56528 225.45309 132.66592 225.42969 124.95508 C 225.40629 117.25954 225.42374 111.53605 225.49414 110.2207 C 226.77315 91.31347 234.69638 77.437116 245.94727 68.023438 C 257.20136 58.607076 271.90304 53.728203 286.58789 53.507812 z M 247.66211 85.296875 C 240.35673 86.135374 234.62415 90.90456 231.0625 98.515625 C 226.14228 109.0299 227.27788 120.94831 232.04688 129.57422 C 234.43138 133.88717 237.78527 137.44956 242.0293 139.39258 C 246.27333 141.3356 251.41616 141.4393 256.33203 139.15039 C 261.63301 136.68213 265.68217 131.56345 268.13086 125.16211 C 270.55819 118.81659 270.70761 109.41994 268.66797 102.71094 C 267.0872 97.511238 264.16832 93.04766 260.51367 89.880859 C 256.85903 86.714059 252.33967 84.760008 247.66211 85.296875 z M 290.78906 85.560547 C 283.48368 86.399046 277.75111 91.170175 274.18945 98.78125 C 269.26923 109.29552 270.40483 121.21198 275.17383 129.83789 C 277.55833 134.15085 280.91222 137.71518 285.15625 139.6582 C 289.40028 141.60122 294.54311 141.70492 299.45898 139.41602 C 304.75996 136.94775 308.80913 131.82908 311.25781 125.42773 C 313.68514 119.08222 313.83456 109.68361 311.79492 102.97461 C 310.21415 97.774911 307.29528 93.311332 303.64062 90.144531 C 299.98599 86.977731 295.46663 85.023679 290.78906 85.560547 z M 248.45898 92.25 C 250.64694 91.998877 253.36628 92.948698 255.92969 95.169922 C 258.49309 97.391146 260.77082 100.79926 261.9707 104.74609 C 263.31081 109.15411 263.02609 118.91259 261.5918 122.66211 C 259.63448 127.77891 256.46227 131.36809 253.37695 132.80469 C 250.10124 134.32991 247.47266 134.18727 244.94336 133.0293 C 242.41406 131.87132 239.99346 129.47876 238.17383 126.1875 C 234.53456 119.60499 233.5504 109.71995 237.4043 101.48438 C 240.3222 95.248957 243.44827 92.825121 248.45898 92.25 z M 291.58789 92.515625 C 293.77585 92.264502 296.49324 93.214323 299.05664 95.435547 C 301.62004 97.656771 303.89777 101.06489 305.09766 105.01172 C 306.43776 109.41973 306.15304 119.17626 304.71875 122.92578 C 302.76144 128.04258 299.58923 131.63176 296.50391 133.06836 C 293.22819 134.59359 290.59961 134.45094 288.07031 133.29297 C 285.54102 132.135 283.12041 129.74243 281.30078 126.45117 C 277.66152 119.86866 276.67736 109.98362 280.53125 101.74805 C 283.44916 95.512621 286.57717 93.090746 291.58789 92.515625 z "
       d="m 286.47656,46.148437 c -16.23457,0.24365 -32.5463,5.599584 -45.25195,16.230469 -12.70711,10.632108 -21.67728,26.617288 -23.07617,47.361324 l 0.002,-0.006 -0.002,0.0234 a 0.35955591,0.35955591 0 0 0 -0.002,0.0293 v 0.0215 c -0.11777,2.16378 -0.0995,7.45885 -0.0762,15.16993 0.0235,7.72154 0.0703,17.60884 0.0703,28.02148 0,18.49053 -0.0693,28.23887 0.0234,33.86133 0.0464,2.81058 0.12435,4.59969 0.31446,6.06445 0.19156,1.47596 0.57752,2.69734 0.99218,3.63477 1.86579,4.21795 5.10043,6.98588 8.67969,8.65625 2.51272,1.17266 5.20499,1.30661 7.85547,1.05078 2.65254,-0.25604 5.29028,-0.92742 7.5625,-2.48438 4.42361,-3.03107 6.85482,-7.54366 7.61523,-13.59961 0.66611,-5.30481 2.48225,-7.36777 4.23047,-8.55859 1.72627,-1.17585 3.74314,-1.38672 4.65625,-1.38672 2.68159,0 4.41261,0.76461 5.91797,2.33984 1.49445,1.56382 2.73763,4.16175 3.27539,7.95899 0.661,4.66752 2.28375,8.65699 5.2168,11.48047 2.9374,2.82768 6.99702,4.16015 11.4043,4.16015 5.97219,0 10.41312,-2.8268 12.88085,-6.19726 2.45449,-3.35237 3.25181,-6.99043 3.58399,-9.33985 0.41996,-2.97004 0.83325,-4.78294 1.47851,-6.05273 0.64527,-1.26979 1.51991,-2.03755 2.98829,-2.96875 1.88838,-1.19759 5.44112,-1.78953 8.0625,-0.77344 1.33382,0.51702 2.55672,1.30773 3.53125,2.72461 0.97453,1.41689 1.70423,3.47635 1.97265,6.54102 l -0.002,-0.004 0.008,0.0996 a 0.35955591,0.35955591 0 0 0 0.004,0.0293 l 0.0156,0.0918 c 0.87634,6.06208 3.08199,10.28037 7.19532,13.13086 8.54948,5.92485 20.20394,2.32337 24.4707,-7.32226 0.35618,-0.80518 0.77836,-1.94354 1.02344,-3.40039 0.24333,-1.44648 0.38444,-3.24698 0.49218,-6.09375 0.21551,-5.69463 0.26953,-15.63498 0.26953,-34.64258 10e-6,-10.79745 0.0444,-21.17877 0.0664,-29.30078 0.022,-8.12152 0.0396,-13.73527 -0.0703,-15.89453 C 352.82709,86.602308 344.09391,71.071112 331.52539,60.919922 318.95869,50.770201 302.71111,45.904791 286.47656,46.148437 Z m 0.11719,7.71875 c 14.60883,-0.219247 29.1148,4.200338 40.08008,13.056641 10.96733,8.857959 18.54316,22.050074 19.4707,40.271482 0.0646,1.27034 0.0844,7.37096 0.0625,15.48242 -0.0219,8.11198 -0.0664,18.5039 -0.0664,29.32227 0,18.99235 -0.0593,28.9515 -0.26367,34.34961 -0.10213,2.69848 -0.24878,4.24877 -0.39258,5.10351 -0.14663,0.87171 -0.19882,0.95673 -0.46679,1.5625 -1.29637,2.93064 -3.34471,4.78044 -5.65821,5.49415 -2.31349,0.7137 -4.9115,0.30185 -7.35937,-1.39454 -1.39212,-0.96472 -2.16419,-1.64178 -2.70898,-2.71093 -0.5448,-1.06915 -0.86863,-2.58208 -1.24415,-5.17969 a 0.35955591,0.35955591 0 0 0 -0.01,-0.008 c -0.78534,-8.14089 -5.12289,-13.53752 -10.36719,-15.57032 -5.26911,-2.04241 -10.87962,-1.15058 -14.98828,1.45508 -4.57877,2.90373 -7.00415,7.60755 -7.97266,14.45703 -0.22752,1.60924 -0.89102,4.1073 -2.17382,5.85938 -1.30648,1.78441 -2.84978,3.04101 -6.65039,3.04101 -2.97426,0 -4.70826,-0.71152 -6.05079,-2.0039 -1.33374,-1.28393 -2.42748,-3.45376 -2.92968,-7 -0.69883,-4.9346 -2.41279,-9.15016 -5.33594,-12.20899 -2.92914,-3.06509 -7.05268,-4.72656 -11.49805,-4.72656 -1.87521,0 -5.4655,0.31635 -9.0039,2.72656 -3.54993,2.41806 -6.66526,6.98448 -7.54297,13.97461 -0.3104,2.47202 -0.65964,4.01494 -1.28125,5.17578 -0.62161,1.16085 -1.52393,1.98075 -3.03711,3.01758 -0.56116,0.38451 -2.28967,1.0103 -3.94336,1.16992 -0.8253,0.0797 -1.6666,0.0496 -2.36524,-0.0332 -0.69863,-0.0828 -1.27192,-0.23275 -1.48046,-0.33008 -2.48204,-1.15832 -3.74693,-2.20456 -4.88672,-4.78125 -0.23493,-0.5311 -0.27635,-0.59919 -0.39453,-1.50976 -0.11589,-0.89293 -0.20733,-2.4935 -0.25196,-5.19727 -0.0893,-5.40856 -0.0234,-15.22299 -0.0234,-33.73242 10e-6,-10.4358 -0.0469,-20.33656 -0.0703,-28.04687 -0.0234,-7.69242 -0.003,-13.444 0.0645,-14.70899 v -0.004 c 1.2739,-18.817246 9.14376,-32.586658 20.32421,-41.941402 11.18279,-9.356697 25.80717,-14.21239 40.41602,-14.431641 z m -37.18164,30.982422 c -0.59301,-0.0084 -1.19079,0.02095 -1.79102,0.08984 -7.43764,0.85368 -13.28478,5.730849 -16.88476,13.423828 -4.97343,10.627979 -3.82906,22.657289 0.99609,31.384769 2.41301,4.36451 5.81641,7.98829 10.14649,9.9707 4.33958,1.98676 9.59885,2.08898 14.60546,-0.24219 5.4099,-2.51897 9.50933,-7.72041 11.98243,-14.18554 2.46788,-6.45155 2.61315,-15.88249 0.54492,-22.68555 -1.59994,-5.262758 -4.55231,-9.781846 -8.26172,-12.996095 -3.24641,-2.813062 -7.1868,-4.701129 -11.33789,-4.759766 z m 43.12695,0.263672 c -0.59301,-0.0084 -1.19079,0.02095 -1.79101,0.08984 -7.43771,0.853687 -13.28479,5.732814 -16.88477,13.425781 -4.97342,10.627954 -3.82905,22.655354 0.99609,31.382814 2.41299,4.36448 5.81633,7.9902 10.14649,9.97265 4.33958,1.98677 9.59885,2.08897 14.60547,-0.24218 5.40989,-2.51899 9.50934,-7.7204 11.98242,-14.18555 2.4679,-6.45156 2.61316,-15.88442 0.54492,-22.6875 -1.59994,-5.262753 -4.5523,-9.781844 -8.26172,-12.996093 -3.2464,-2.813063 -7.18679,-4.70113 -11.33789,-4.759766 z M 248.5,92.607422 c 2.05241,-0.235565 4.68672,0.661949 7.19336,2.833984 2.50551,2.17106 4.75379,5.529364 5.93359,9.410154 0.64652,2.12659 0.91831,5.65663 0.83594,9.0918 -0.0824,3.43517 -0.52423,6.80488 -1.20703,8.58984 -1.93105,5.04813 -5.06817,8.56563 -8.03125,9.94532 -3.20122,1.49053 -5.67712,1.34798 -8.13086,0.2246 -2.43782,-1.11609 -4.81547,-3.45178 -6.60547,-6.68945 -3.57881,-6.47315 -4.55494,-16.26269 -0.75781,-24.37695 1.44564,-3.089269 2.92944,-5.205231 4.64453,-6.615236 1.71509,-1.410004 3.66807,-2.13206 6.125,-2.414062 z m 43.12891,0.265625 c 2.05243,-0.235568 4.6847,0.66189 7.1914,2.833984 2.50551,2.171059 4.75378,5.529359 5.9336,9.410159 0.64651,2.1266 0.91831,5.65516 0.83593,9.08984 -0.0824,3.43468 -0.52422,6.80486 -1.20703,8.58985 -1.93104,5.04813 -5.06817,8.56563 -8.03125,9.94531 -3.20122,1.49054 -5.67712,1.34798 -8.13086,0.22461 -2.4378,-1.11609 -4.81546,-3.45178 -6.60547,-6.68946 -3.57879,-6.47314 -4.55493,-16.26269 -0.75781,-24.37695 1.44563,-3.089229 2.93092,-5.203752 4.64649,-6.613281 1.71556,-1.409528 3.66801,-2.132054 6.125,-2.414062 z" /></g></svg>
