<?xml version="1.0" encoding="UTF-8" standalone="no"?>
<!-- Created with Inkscape (http://www.inkscape.org/) -->

<svg
   width="500mm"
   height="250mm"
   viewBox="0 0 500 250"
   version="1.1"
   id="svg1"
   xml:space="preserve"
   inkscape:version="1.4.2 (f4327f4, 2025-05-13)"
   sodipodi:docname="PackmanGhostV2.svg"
   inkscape:export-filename="PackmanV2_3.svg"
   inkscape:export-xdpi="96"
   inkscape:export-ydpi="96"
   xmlns:inkscape="http://www.inkscape.org/namespaces/inkscape"
   xmlns:sodipodi="http://sodipodi.sourceforge.net/DTD/sodipodi-0.dtd"
   xmlns="http://www.w3.org/2000/svg"
   xmlns:svg="http://www.w3.org/2000/svg"><sodipodi:namedview
     id="namedview1"
     pagecolor="#ffffff"
     bordercolor="#000000"
     borderopacity="0.25"
     inkscape:showpageshadow="2"
     inkscape:pageopacity="0.0"
     inkscape:pagecheckerboard="0"
     inkscape:deskcolor="#d1d1d1"
     inkscape:document-units="mm"
     showgrid="true"
     inkscape:zoom="18.563292"
     inkscape:cx="1093.8523"
     inkscape:cy="200.79952"
     inkscape:window-width="3440"
     inkscape:window-height="1369"
     inkscape:window-x="2552"
     inkscape:window-y="-8"
     inkscape:window-maximized="1"
     inkscape:current-layer="layer1"><inkscape:grid
       id="grid2"
       units="mm"
       originx="0"
       originy="0"
       spacingx="0.99999999"
       spacingy="0.99999999"
       empcolor="#0099e5"
       empopacity="0.30196078"
       color="#0099e5"
       opacity="0.14901961"
       empspacing="10"
       enabled="true"
       visible="true" /><inkscape:page
       x="0"
       y="0"
       width="500"
       height="250"
       id="page2"
       margin="0"
       bleed="0" /></sodipodi:namedview><defs
     id="defs1" /><g
     inkscape:label="Ebene 1"
     inkscape:groupmode="layer"
     id="layer1"><path
       id="path3-4-1-2-1-8"
       style="baseline-shift:baseline;display:inline;overflow:visible;vector-effect:none;fill:#c3d000;fill-opacity:0.790828;enable-background:accumulate;stop-color:#000000"
       d="M 286.46282,45.261572 C 270.04208,45.508015 253.53405,50.922718 240.65424,61.699328 227.77315,72.477 218.68391,88.702363 217.26549,109.66022 v 0.002 0.002 0.002 0.004 c -2.2e-4,0.003 -0.002,0.006 -0.002,0.01 v 0.002 0.002 c -0.002,0.0267 -0.003,0.0533 -0.004,0.0801 -1.1e-4,0.008 -1.1e-4,0.0159 0,0.0238 v 0.0212 c -0.121,2.25926 -0.0993,7.4855 -0.076,15.17168 0.0235,7.72282 0.0703,17.61001 0.0703,28.01999 0,18.48831 -0.0699,28.22828 0.0233,33.87494 0.0465,2.82078 0.12239,4.63846 0.32039,6.16396 0.20309,1.56486 0.61486,2.869 1.06247,3.8809 1.96117,4.43359 5.38118,7.35867 9.1152,9.10126 2.70936,1.26443 5.57913,1.39333 8.31629,1.12913 2.7442,-0.26489 5.54009,-0.96425 7.97833,-2.63498 4.63731,-3.17749 7.21159,-7.98646 7.99434,-14.22032 0.64482,-5.1352 2.25944,-6.85414 3.84989,-7.9375 1.5013,-1.02261 3.37932,-1.23249 4.15582,-1.23249 2.51292,0 3.90801,0.63325 5.27772,2.06654 1.32513,1.38664 2.518,3.80546 3.03702,7.47035 0.67942,4.79764 2.36419,8.9944 5.48029,11.9941 3.13135,3.01438 7.43329,4.40852 12.01942,4.40852 6.25218,0 10.96984,-2.97178 13.59762,-6.56084 2.58115,-3.52536 3.40458,-7.31933 3.74654,-9.73791 0.41566,-2.93969 0.83055,-4.67375 1.39061,-5.77588 0.56401,-1.10987 1.25499,-1.72262 2.67167,-2.62103 1.57497,-0.99883 5.00659,-1.57152 7.26778,-0.69504 1.21997,0.47289 2.25527,1.13999 3.12074,2.3983 0.86286,1.25452 1.55622,3.15375 1.81642,6.10557 4.2e-4,0.005 0.002,0.007 0.002,0.0119 l 0.006,0.0879 c 6.7e-4,0.004 0.001,0.008 0.002,0.0114 0.003,0.034 0.008,0.0682 0.0139,0.10181 l 0.01,0.0646 v 5.2e-4 c 3.4e-4,10e-4 0.001,0.003 0.002,0.004 7e-5,2.6e-4 -4e-5,7.7e-4 0,0.001 l 0.002,0.0155 c 0.9006,6.20129 3.24158,10.71513 7.5644,13.71079 8.99814,6.23577 21.31152,2.42658 25.78705,-7.691 0.37641,-0.85091 0.82812,-2.06654 1.08831,-3.61322 0.254,-1.50992 0.39553,-3.34547 0.50384,-6.20737 0.21678,-5.72802 0.26924,-15.66664 0.26924,-34.67592 0,-10.79502 0.0447,-21.17527 0.0667,-29.29847 0.022,-8.12134 0.0439,-13.6996 -0.0703,-15.94166 -1.0406,-20.434776 -9.90415,-36.226746 -22.66053,-46.529666 -12.7497,-10.297528 -29.19878,-15.215552 -45.61944,-14.969112 z"
       transform="translate(-159.93359,-7.9863274)"
       sodipodi:nodetypes="ssccccccccccccsssssscssssssssssssssccccccscccssssscss" /></g></svg>
