<?xml version="1.0" encoding="UTF-8" standalone="no"?>
<!-- Created with Inkscape (http://www.inkscape.org/) -->

<svg
   width="250mm"
   height="250mm"
   viewBox="0 0 250 250"
   version="1.1"
   id="svg1"
   xml:space="preserve"
   inkscape:version="1.4.2 (f4327f4, 2025-05-13)"
   sodipodi:docname="PackmanGhost.svg"
   inkscape:export-filename="PackmanGhost_2.svg"
   inkscape:export-xdpi="96"
   inkscape:export-ydpi="96"
   xmlns:inkscape="http://www.inkscape.org/namespaces/inkscape"
   xmlns:sodipodi="http://sodipodi.sourceforge.net/DTD/sodipodi-0.dtd"
   xmlns="http://www.w3.org/2000/svg"
   xmlns:svg="http://www.w3.org/2000/svg"><sodipodi:namedview
     id="namedview1"
     pagecolor="#ffffff"
     bordercolor="#000000"
     borderopacity="0.25"
     inkscape:showpageshadow="2"
     inkscape:pageopacity="0.0"
     inkscape:pagecheckerboard="0"
     inkscape:deskcolor="#d1d1d1"
     inkscape:document-units="mm"
     showgrid="true"
     inkscape:zoom="0.36756309"
     inkscape:cx="265.26058"
     inkscape:cy="718.24404"
     inkscape:window-width="1971"
     inkscape:window-height="1250"
     inkscape:window-x="430"
     inkscape:window-y="114"
     inkscape:window-maximized="0"
     inkscape:current-layer="layer1"><inkscape:grid
       id="grid2"
       units="mm"
       originx="0"
       originy="0"
       spacingx="0.99999999"
       spacingy="0.99999999"
       empcolor="#0099e5"
       empopacity="0.30196078"
       color="#0099e5"
       opacity="0.14901961"
       empspacing="10"
       enabled="true"
       visible="true" /><inkscape:page
       x="0"
       y="0"
       width="250"
       height="250"
       id="page2"
       margin="0"
       bleed="0" /></sodipodi:namedview><defs
     id="defs1" /><g
     inkscape:label="Ebene 1"
     inkscape:groupmode="layer"
     id="layer1"><path
       id="path3-4-9-3"
       style="baseline-shift:baseline;display:inline;overflow:visible;vector-effect:none;fill:#dcc500;fill-opacity:1;enable-background:accumulate;stop-color:#000000"
       sodipodi:type="inkscape:offset"
       inkscape:radius="1.4927955"
       inkscape:original="M 147.76172 40.005859 C 132.22815 40.186628 116.57112 44.880648 104.27148 54.289062 C 91.971863 63.697479 83.119134 77.926882 81.494141 96.541016 L 81.488281 96.589844 L 81.486328 96.638672 C 81.278935 100.42322 80.826226 120.01839 80.441406 140.87305 C 80.103822 159.16833 79.939811 168.65197 80.021484 174.05469 C 80.062324 176.75605 80.156578 178.44822 80.365234 179.80664 C 80.573891 181.16506 80.962915 182.2204 81.316406 183.01953 C 83.042788 186.92232 85.81645 189.90882 89.46875 191.61328 C 91.769362 192.68695 94.326052 192.83411 96.876953 192.58789 C 99.427854 192.34167 101.94141 191.686 104.03711 190.25 C 108.28388 187.34009 110.54276 183.16441 111.28516 177.25195 C 111.98731 171.66 112.67359 170.426 116.20508 168.08398 C 118.29332 166.69911 118.75986 166.55469 121.02539 166.55469 C 123.89255 166.55469 125.90929 167.43012 127.56445 169.16211 C 129.21961 170.89409 130.5126 173.66743 131.06836 177.5918 C 131.7116 182.13395 133.27593 185.92182 136.03125 188.57422 C 138.78657 191.22662 142.59789 192.49414 146.83984 192.49414 C 149.42607 192.49414 151.67926 192.22048 153.75 191.14453 C 155.82074 190.06858 157.41841 188.40373 159.24219 186.14844 C 161.0091 183.96353 161.94424 181.3084 162.45508 177.69531 C 163.30668 171.67259 164.22271 170.02854 167.31055 168.07031 C 169.92741 166.41074 174.00665 166.20138 176.01172 167.19141 C 178.62872 168.84738 179.97134 170.07189 180.73828 171.33398 C 181.52265 172.62477 181.93553 174.26916 182.19336 177.21289 L 182.20117 177.29688 L 182.21289 177.38086 C 183.07236 183.32625 185.10638 187.19895 189.04688 189.92969 C 197.17783 195.56447 208.17036 192.17421 212.24414 182.96484 C 212.59787 182.16521 212.97523 181.08987 213.17383 179.70508 C 213.37242 178.32029 213.46464 176.57009 213.50195 173.76758 C 213.57655 168.16254 213.40815 158.32144 213.0625 139.5 C 212.66487 117.84489 211.8228 97.366158 211.67188 93.888672 C 210.89243 75.930832 202.62475 62.139046 190.69727 53.146484 C 178.76977 44.153923 163.29529 39.82509 147.76172 40.005859 z M 147.83203 46.005859 C 162.19766 45.838682 176.42059 49.89651 187.08594 57.9375 C 197.75129 65.97849 204.97104 77.865168 205.67773 94.148438 C 205.82623 97.569812 206.66645 118.04208 207.0625 139.61133 C 207.40805 158.42978 207.57368 168.29931 207.50195 173.6875 C 207.46605 176.3816 207.36434 177.94732 207.23438 178.85352 C 207.10442 179.75971 207.0187 179.9493 206.75781 180.53906 C 203.98799 186.80064 197.75011 188.66077 192.46484 184.99805 C 189.56544 182.98879 188.91212 181.79073 188.15039 176.52148 L 188.16992 176.68945 C 187.88086 173.38915 187.34689 170.657 185.86523 168.21875 C 184.38358 165.7805 182.14363 163.9389 179.05664 162.00586 L 178.95117 161.93945 L 178.8418 161.88281 C 174.30556 159.53695 168.57656 160.16221 164.0957 163.00391 C 159.72294 165.777 157.46547 170.12409 156.51367 176.85547 C 156.07258 179.97514 155.61777 181.08942 154.57812 182.375 C 152.94428 184.39543 151.89184 185.3488 150.98438 185.82031 C 150.07692 186.29183 149.02489 186.49414 146.83984 186.49414 C 143.71356 186.49414 141.70575 185.70784 140.19336 184.25195 C 138.68097 182.79606 137.52761 180.4224 137.00781 176.75195 C 136.32687 171.94368 134.66744 167.90906 131.90234 165.01562 C 129.13725 162.1222 125.26681 160.55469 121.02539 160.55469 C 118.04174 160.55469 115.49826 161.35271 112.89062 163.08203 C 108.38582 166.06953 106.12778 170.16654 105.33203 176.50391 C 104.69854 181.54905 103.80059 183.13957 100.64648 185.30078 C 99.861166 185.8389 98.078953 186.4436 96.300781 186.61523 C 94.522609 186.78687 92.716597 186.50747 92.005859 186.17578 C 89.62318 185.06383 88.070093 183.45689 86.802734 180.5918 C 86.520386 179.9535 86.428792 179.75335 86.296875 178.89453 C 86.164958 178.03571 86.058612 176.55008 86.019531 173.96484 C 85.941371 168.79437 86.103871 159.27511 86.441406 140.98242 C 86.699913 126.97308 86.914505 119.78117 87.136719 111.38672 C 87.310425 111.90412 87.389882 112.47149 87.585938 112.97461 C 90.761077 121.12271 97.180761 127.71268 105.58398 127.7832 L 105.58594 127.7832 C 108.05008 127.8026 110.49687 126.96488 112.8418 125.87305 C 117.98452 123.47848 121.97118 118.46975 124.38477 112.16016 C 126.74116 106.00007 126.90178 96.575899 124.91211 90.03125 C 123.35855 84.921043 120.4849 80.532853 116.9082 77.433594 C 113.3315 74.334334 108.93919 72.452293 104.43945 72.96875 C 99.116704 73.579686 94.68829 76.303226 91.318359 80.755859 C 94.936996 71.761187 100.72634 64.554325 107.91602 59.054688 C 119.02154 50.559686 133.4664 46.173037 147.83203 46.005859 z M 146.50977 73.234375 C 139.36829 74.054061 133.82232 78.657117 130.30664 86.169922 C 126.18901 94.969093 126.47916 105.09018 129.6543 113.23828 C 132.82944 121.38638 139.24911 127.97831 147.65234 128.04883 L 147.6543 128.04883 C 150.11844 128.06823 152.56523 127.23051 154.91016 126.13867 C 160.05287 123.7441 164.03955 118.73537 166.45312 112.42578 C 168.80953 106.2657 168.97014 96.841531 166.98047 90.296875 C 165.42691 85.186672 162.55325 80.798477 158.97656 77.699219 C 155.39986 74.599961 151.0095 72.717918 146.50977 73.234375 z M 105.125 78.929688 C 107.49078 78.658156 110.33716 79.679984 112.97852 81.96875 C 115.61986 84.257516 117.94477 87.741021 119.17188 91.777344 C 120.56194 96.349715 120.28648 106.08263 118.78125 110.01758 C 116.78884 115.22613 113.55218 118.92331 110.30859 120.43359 C 108.75464 121.15714 105.8358 121.78429 105.63477 121.7832 C 100.39136 121.7392 95.773871 117.45718 93.177734 110.79492 C 90.581598 104.13267 90.367765 95.507981 93.671875 88.447266 C 96.635764 82.113581 99.95038 79.523622 105.125 78.929688 z M 147.19336 79.195312 C 149.55914 78.923781 152.40553 79.94561 155.04688 82.234375 C 157.68822 84.52314 160.01315 88.004698 161.24023 92.041016 C 162.6303 96.613399 162.35483 106.34631 160.84961 110.28125 C 158.8572 115.4898 155.62249 119.18893 152.37891 120.69922 C 150.82495 121.42276 147.90417 122.04991 147.70312 122.04883 C 142.45972 122.00483 137.84223 117.7228 135.24609 111.06055 C 132.64996 104.39829 132.43612 95.773612 135.74023 88.712891 C 138.70412 82.379216 142.01874 79.789246 147.19336 79.195312 z "
       d="m 147.74414,38.513672 c -15.82257,0.184132 -31.784,4.955574 -44.37891,14.589844 C 90.763259,62.743218 81.667925,77.39569 80.007812,96.412109 l 0.0039,-0.04883 -0.0059,0.04883 a 1.4929447,1.4929447 0 0 0 -0.0098,0.117188 l -0.002,0.04883 0.002,-0.02148 c -0.216303,3.947139 -0.661975,23.430059 -1.046875,44.289059 -0.337595,18.29588 -0.502451,27.7731 -0.419922,33.23242 0.04122,2.72666 0.13467,4.47947 0.361328,5.95508 0.233315,1.51895 0.674275,2.71661 1.060547,3.58985 1.851703,4.1861 4.891331,7.47917 8.886719,9.34375 2.637311,1.2308 5.479173,1.36827 8.18164,1.10742 2.709822,-0.26156 5.481289,-0.96292 7.861329,-2.59375 4.59247,-3.14679 7.10655,-7.84532 7.88477,-14.04297 0.34527,-2.74979 0.69277,-4.27802 1.23242,-5.2793 0.53964,-1.00128 1.32902,-1.70119 3.03125,-2.83008 2.04273,-1.35468 1.794,-1.28125 3.99609,-1.28125 2.5633,0 4.0487,0.67074 5.45899,2.14649 1.37352,1.43727 2.58109,3.90465 3.10546,7.60742 0.6742,4.76076 2.34274,8.90052 5.40625,11.84961 3.07966,2.96462 7.30443,4.33594 11.84375,4.33594 2.69154,0 5.22567,-0.2851 7.59766,-1.51758 2.35104,-1.22159 4.09889,-3.07342 5.96484,-5.38086 1.9768,-2.44444 2.99925,-5.42084 3.53125,-9.18359 0.41805,-2.95654 0.85572,-4.72548 1.43946,-5.86524 0.58373,-1.13976 1.29559,-1.7953 2.73632,-2.70898 1.03614,-0.6571 2.51074,-1.08608 3.90821,-1.20508 1.38033,-0.11754 2.67814,0.10727 3.29297,0.40039 2.44011,1.55661 3.57453,2.63313 4.15234,3.58398 0.61291,1.00864 0.99418,2.38051 1.24414,5.23438 a 1.4929447,1.4929447 0 0 0 0,0.008 l 0.008,0.084 a 1.4929447,1.4929447 0 0 0 0.008,0.0684 l 0.0117,0.084 a 1.4929447,1.4929447 0 0 0 0.002,0.006 c 0.89405,6.18461 3.17501,10.59239 7.46094,13.5625 8.87907,6.15324 20.99125,2.40609 25.4121,-7.58789 0.39514,-0.89324 0.82207,-2.11006 1.04297,-3.65039 a 1.4929447,1.4929447 0 0 0 0,-0.002 c 0.21447,-1.49547 0.30416,-3.30193 0.3418,-6.12891 0.0753,-5.65818 -0.0938,-15.49236 -0.43945,-34.31445 -0.39803,-21.67652 -1.23913,-42.157631 -1.39063,-45.648441 C 212.36622,75.442569 203.84425,61.189707 191.5957,51.955078 179.3565,42.727514 163.56653,38.329542 147.74414,38.513672 Z m 0.10547,8.984375 c 14.07311,-0.163773 27.98918,3.828594 38.33789,11.630859 10.35925,7.810213 17.30909,19.209285 17.99805,35.083985 0.14789,3.407349 0.98911,23.877939 1.38476,45.425779 0.34554,18.81763 0.51046,28.69595 0.43946,34.0293 -0.0355,2.66424 -0.14271,4.19925 -0.25391,4.97461 -0.12102,0.84384 -0.10133,0.70082 -0.36328,1.29297 -1.23932,2.80165 -3.16374,4.47641 -5.27735,5.12695 -2.1136,0.65054 -4.48137,0.31635 -6.80078,-1.29102 -1.37867,-0.95541 -2.00122,-1.53739 -2.48047,-2.4707 -0.47924,-0.93331 -0.83252,-2.40152 -1.20703,-4.99219 a 1.4929447,1.4929447 0 0 0 -0.0117,-0.008 c -0.30329,-3.27716 -0.86303,-6.20538 -2.47461,-8.85742 -1.65472,-2.72307 -4.11711,-4.7147 -7.28906,-6.70117 l -0.002,-0.002 -0.10352,-0.0644 a 1.4929447,1.4929447 0 0 0 -0.10937,-0.0625 l -0.10938,-0.0566 c -5.0879,-2.63114 -11.34725,-1.90937 -16.23047,1.1875 -4.77238,3.02652 -7.27658,7.93519 -8.26171,14.90234 -0.42808,3.02762 -0.70889,3.66591 -1.61719,4.78907 -1.58113,1.95524 -2.52515,2.7509 -3.1211,3.06054 -0.64361,0.33443 -1.36412,0.50586 -3.45703,0.50586 -2.87597,0 -4.38104,-0.64184 -5.61132,-1.82617 -1.20153,-1.15664 -2.25285,-3.17743 -2.74219,-6.63281 -0.7119,-5.02686 -2.46603,-9.37972 -5.50391,-12.5586 -3.05975,-3.20176 -7.34781,-4.92187 -11.95703,-4.92187 -3.24983,0 -6.15501,0.91587 -8.95898,2.77539 -4.83721,3.20795 -7.38551,7.87564 -8.21485,14.48047 -0.3083,2.4553 -0.67775,3.92708 -1.23242,4.95898 -0.55467,1.0319 -1.32572,1.76959 -2.816406,2.79102 a 1.4929447,1.4929447 0 0 0 0,0.002 c -0.346738,0.2376 -2.105174,0.91002 -3.644531,1.0586 -0.76387,0.0737 -1.568372,0.0507 -2.230469,-0.0273 -0.662097,-0.078 -1.229177,-0.25044 -1.291015,-0.27929 -2.108507,-0.984 -3.300375,-2.19267 -4.46875,-4.83399 -0.283962,-0.64195 -0.275026,-0.52958 -0.396485,-1.32031 -0.110973,-0.72247 -0.221172,-2.17361 -0.259765,-4.72656 -0.07727,-5.11152 0.08435,-14.63967 0.421875,-32.93164 0.201728,-10.93232 0.370196,-16.6542 0.542968,-23.09571 3.742142,6.41599 9.586061,11.29831 17.095708,11.36133 a 1.4929447,1.4929447 0 0 0 0.002,0 c 2.81022,0.0221 5.45816,-0.9126 7.89844,-2.04883 5.59721,-2.60619 9.79125,-7.9575 12.30664,-14.5332 0.46093,-1.20497 0.75529,-2.58554 1.05859,-3.95117 0.39988,1.71771 0.803,3.44086 1.42578,5.03906 3.3234,8.52857 10.1995,15.68275 19.37695,15.75977 a 1.4929447,1.4929447 0 0 0 0.002,0 c 2.81022,0.0221 5.45816,-0.9126 7.89844,-2.04883 5.5972,-2.6062 9.79127,-7.9575 12.30664,-14.53321 2.52984,-6.61347 2.67272,-16.148085 0.56054,-23.095699 -1.63339,-5.372801 -4.64846,-9.99617 -8.45312,-13.292969 -3.80757,-3.299309 -8.59807,-5.394205 -13.61524,-4.818359 -7.68348,0.881896 -13.71285,5.938497 -17.38476,13.785156 -0.9644,2.060862 -1.62004,4.200482 -2.14063,6.353516 -0.16859,-0.758197 -0.25875,-1.582945 -0.47461,-2.292969 -1.63339,-5.372804 -4.64845,-9.996169 -8.45312,-13.292969 -3.80777,-3.299488 -8.59996,-5.39421 -13.61719,-4.818359 -2.89935,0.332783 -5.566106,1.270854 -7.960936,2.720703 3.316755,-5.495078 7.541376,-10.163312 12.513676,-13.966797 10.80634,-8.266151 24.9539,-12.578409 39.02734,-12.742187 z m -42.55469,32.914062 c 1.80954,-0.207689 4.29866,0.600359 6.70508,2.685547 2.40244,2.081757 4.60013,5.350311 5.74414,9.113281 0.60131,1.977907 0.90697,5.497439 0.82617,8.890623 -0.0808,3.39319 -0.56686,6.77056 -1.18359,8.38282 -1.88389,4.92484 -4.96603,8.31852 -7.70899,9.5957 -0.60236,0.28047 -1.685,0.61989 -2.58984,0.85547 -0.45242,0.11779 -0.86714,0.21437 -1.16992,0.27929 -0.13725,0.0294 -0.24152,0.0518 -0.32031,0.0664 -4.41963,-0.0643 -8.581198,-3.74693 -11.029301,-10.0293 -2.447952,-6.28197 -2.640755,-14.556232 0.455078,-21.171872 1.424508,-3.044102 2.881589,-5.0682 4.492188,-6.388672 1.610595,-1.320472 3.400325,-2.006242 5.779295,-2.279297 z m 42.06836,0.265625 c 1.80953,-0.207688 4.29867,0.600363 6.70508,2.685547 2.40276,2.082033 4.6002,5.348502 5.74414,9.111328 0.60131,1.977912 0.90697,5.49744 0.82617,8.890621 -0.0808,3.39319 -0.56686,6.77057 -1.18359,8.38282 -1.88405,4.92526 -4.96474,8.32077 -7.70703,9.59765 -0.60216,0.28037 -1.68452,0.61989 -2.58985,0.85547 -0.45266,0.11779 -0.86889,0.21436 -1.17187,0.2793 -0.13734,0.0294 -0.24145,0.0518 -0.32031,0.0664 -4.41961,-0.0643 -8.5812,-3.74694 -11.0293,-10.0293 -2.44795,-6.28199 -2.64076,-14.556231 0.45508,-21.171877 1.4245,-3.044097 2.88158,-5.068198 4.49218,-6.388672 1.61061,-1.320474 3.40033,-2.006243 5.7793,-2.279297 z" /></g></svg>
