<?xml version="1.0" encoding="UTF-8" standalone="no"?>
<!-- Created with Inkscape (http://www.inkscape.org/) -->

<svg
   width="250mm"
   height="250mm"
   viewBox="0 0 250 250"
   version="1.1"
   id="svg1"
   xml:space="preserve"
   inkscape:version="1.4.2 (f4327f4, 2025-05-13)"
   sodipodi:docname="PackmanGhost.svg"
   inkscape:export-filename="PackmanGhost_6mm.svg"
   inkscape:export-xdpi="96"
   inkscape:export-ydpi="96"
   xmlns:inkscape="http://www.inkscape.org/namespaces/inkscape"
   xmlns:sodipodi="http://sodipodi.sourceforge.net/DTD/sodipodi-0.dtd"
   xmlns="http://www.w3.org/2000/svg"
   xmlns:svg="http://www.w3.org/2000/svg"><sodipodi:namedview
     id="namedview1"
     pagecolor="#ffffff"
     bordercolor="#000000"
     borderopacity="0.25"
     inkscape:showpageshadow="2"
     inkscape:pageopacity="0.0"
     inkscape:pagecheckerboard="0"
     inkscape:deskcolor="#d1d1d1"
     inkscape:document-units="mm"
     showgrid="true"
     inkscape:zoom="0.36756309"
     inkscape:cx="425.77724"
     inkscape:cy="821.62765"
     inkscape:window-width="1971"
     inkscape:window-height="1250"
     inkscape:window-x="425"
     inkscape:window-y="109"
     inkscape:window-maximized="0"
     inkscape:current-layer="layer1"><inkscape:grid
       id="grid2"
       units="mm"
       originx="0"
       originy="0"
       spacingx="0.99999999"
       spacingy="0.99999999"
       empcolor="#0099e5"
       empopacity="0.30196078"
       color="#0099e5"
       opacity="0.14901961"
       empspacing="10"
       enabled="true"
       visible="true" /><inkscape:page
       x="0"
       y="0"
       width="250"
       height="250"
       id="page2"
       margin="0"
       bleed="0" /></sodipodi:namedview><defs
     id="defs1" /><g
     inkscape:label="Ebene 1"
     inkscape:groupmode="layer"
     id="layer1"><path
       id="path3-4-6-2-5"
       style="baseline-shift:baseline;display:inline;overflow:visible;vector-effect:none;fill:#dcb800;fill-opacity:0.668235;enable-background:accumulate;stop-color:#000000"
       sodipodi:type="inkscape:offset"
       inkscape:radius="0.34247178"
       inkscape:original="M 149.59766 54.318359 C 134.06409 54.499129 118.40705 59.193156 106.10742 68.601562 C 93.807796 78.009982 84.955078 92.239376 83.330078 110.85352 L 83.324219 110.90234 L 83.322266 110.95117 C 83.114876 114.73571 82.662164 134.33089 82.277344 155.18555 C 81.939764 173.48083 81.775752 182.96447 81.857422 188.36719 C 81.898222 191.06855 81.992512 192.76072 82.201172 194.11914 C 82.409832 195.47756 82.798854 196.5329 83.152344 197.33203 C 84.878724 201.23482 87.652388 204.22132 91.304688 205.92578 C 93.605307 206.99945 96.161991 207.14661 98.712891 206.90039 C 101.26379 206.65417 103.77735 205.9985 105.87305 204.5625 C 110.11982 201.65259 112.3787 197.47691 113.12109 191.56445 C 113.82324 185.9725 114.50953 184.73655 118.04102 182.39453 C 120.12926 181.00966 120.5958 180.86719 122.86133 180.86719 C 125.72849 180.86719 127.74523 181.74067 129.40039 183.47266 C 131.05555 185.20464 132.34854 187.97993 132.9043 191.9043 C 133.54754 196.44645 135.11186 200.23432 137.86719 202.88672 C 140.62251 205.53912 144.43382 206.80664 148.67578 206.80664 C 151.26201 206.80664 153.5152 206.53298 155.58594 205.45703 C 157.65667 204.38108 159.25435 202.71623 161.07812 200.46094 C 162.84503 198.27603 163.78016 195.6209 164.29102 192.00781 C 165.14261 185.98509 166.05864 184.34104 169.14648 182.38281 C 171.76334 180.72324 175.84259 180.51388 177.84766 181.50391 C 180.46466 183.15988 181.80728 184.38439 182.57422 185.64648 C 183.35859 186.93727 183.77147 188.58166 184.0293 191.52539 L 184.03711 191.60938 L 184.04883 191.69336 C 184.9083 197.63875 186.9423 201.51145 190.88281 204.24219 C 199.01373 209.87697 210.0063 206.48671 214.08008 197.27734 C 214.4338 196.47771 214.81117 195.40237 215.00977 194.01758 C 215.20836 192.63279 215.30059 190.88064 215.33789 188.07812 C 215.41249 182.4731 215.24409 172.63394 214.89844 153.8125 C 214.50081 132.15739 213.65874 111.67866 213.50781 108.20117 C 212.72837 90.243392 204.46069 76.449588 192.5332 67.457031 C 180.60572 58.464471 165.13122 54.137589 149.59766 54.318359 z M 149.66797 60.316406 C 164.0336 60.149226 178.25654 64.20706 188.92188 72.248047 C 199.58722 80.289037 206.80697 92.177668 207.51367 108.46094 C 207.66217 111.88231 208.50239 132.35458 208.89844 153.92383 C 209.244 172.74228 209.40961 182.61181 209.33789 188 C 209.30199 190.6941 209.20027 192.25982 209.07031 193.16602 C 208.94035 194.07221 208.85268 194.25985 208.5918 194.84961 C 205.82198 201.11118 199.58604 202.97327 194.30078 199.31055 C 191.40138 197.30129 190.74806 196.10323 189.98633 190.83398 L 190.00586 191.00195 C 189.7168 187.70165 189.18283 184.96755 187.70117 182.5293 C 186.21952 180.09105 183.97761 178.24945 180.89062 176.31641 L 180.78711 176.25195 L 180.67773 176.19531 C 176.1415 173.84945 170.4125 174.47471 165.93164 177.31641 C 161.55888 180.0895 159.30141 184.43659 158.34961 191.16797 C 157.90852 194.28764 157.45369 195.40192 156.41406 196.6875 C 154.7802 198.70793 153.72778 199.6613 152.82031 200.13281 C 151.91285 200.60433 150.86083 200.80664 148.67578 200.80664 C 145.5495 200.80664 143.54168 200.02034 142.0293 198.56445 C 140.51691 197.10856 139.36355 194.7349 138.84375 191.06445 C 138.16281 186.25618 136.50338 182.22156 133.73828 179.32812 C 130.97318 176.4347 127.10275 174.86719 122.86133 174.86719 C 119.87768 174.86719 117.3342 175.66521 114.72656 177.39453 C 110.22176 180.38203 107.96372 184.47904 107.16797 190.81641 C 106.53448 195.86155 105.63653 197.45012 102.48242 199.61133 C 101.6971 200.14945 99.914899 200.7561 98.136719 200.92773 C 96.358549 201.09937 94.552537 200.81997 93.841797 200.48828 C 91.459117 199.37633 89.906032 197.76939 88.638672 194.9043 C 88.356322 194.266 88.264723 194.06585 88.132812 193.20703 C 88.000893 192.34821 87.894559 190.86063 87.855469 188.27539 C 87.777269 183.10492 87.939764 173.58761 88.277344 155.29492 C 88.535864 141.28466 88.750436 134.09157 88.972656 125.69727 C 89.146366 126.21466 89.225825 126.78204 89.421875 127.28516 C 92.597015 135.43326 99.016696 142.02518 107.41992 142.0957 L 107.42188 142.0957 C 109.88602 142.1151 112.33281 141.27738 114.67773 140.18555 C 119.82045 137.79098 123.80711 132.78225 126.2207 126.47266 C 128.5771 120.31257 128.73772 110.8884 126.74805 104.34375 C 125.19449 99.23354 122.32084 94.845354 118.74414 91.746094 C 115.16744 88.646844 110.77513 86.76479 106.27539 87.28125 C 100.95263 87.89219 96.524227 90.615719 93.154297 95.068359 C 96.772937 86.073689 102.56227 78.866818 109.75195 73.367188 C 120.85748 64.872191 135.30234 60.483576 149.66797 60.316406 z M 148.3457 87.544922 C 141.20423 88.364612 135.65825 92.967659 132.14258 100.48047 C 128.02495 109.27964 128.3151 119.40268 131.49023 127.55078 C 134.66537 135.69888 141.08505 142.29081 149.48828 142.36133 L 149.49023 142.36133 C 151.95438 142.38073 154.40117 141.54105 156.74609 140.44922 C 161.88881 138.05465 165.87547 133.04592 168.28906 126.73633 C 170.64546 120.57625 170.80608 111.15402 168.81641 104.60938 C 167.26284 99.499165 164.3892 95.110979 160.8125 92.011719 C 157.2358 88.912459 152.84544 87.028462 148.3457 87.544922 z M 106.96094 93.242188 C 109.32672 92.970647 112.1731 93.99248 114.81445 96.28125 C 117.4558 98.57001 119.78072 102.05352 121.00781 106.08984 C 122.39788 110.66221 122.12241 120.39317 120.61719 124.32812 C 118.62478 129.53668 115.38811 133.23581 112.14453 134.74609 C 110.59058 135.46964 107.67174 136.09679 107.4707 136.0957 C 102.81897 136.0567 98.745044 132.56145 96.052734 127.14844 C 97.096374 127.45336 98.193962 127.60352 99.320312 127.60352 L 99.355469 127.60352 L 99.390625 127.60352 C 106.24009 127.4419 110.77185 121.11674 110.43164 114.80469 C 110.39104 109.20197 107.65294 105.5195 104.85742 103.87305 C 102.04104 102.21431 99.488386 102.23438 99.134766 102.23438 C 97.891696 102.23438 96.671752 102.38087 95.482422 102.83789 C 95.493922 102.81299 95.496112 102.78457 95.507812 102.75977 C 98.471703 96.426076 101.78631 93.836118 106.96094 93.242188 z M 149.0293 93.505859 C 151.39508 93.234329 154.24146 94.256162 156.88281 96.544922 C 159.52416 98.833692 161.84908 102.31719 163.07617 106.35352 C 164.46624 110.92589 164.19077 120.65881 162.68555 124.59375 C 160.69314 129.8023 157.45843 133.49948 154.21484 135.00977 C 152.66089 135.73331 149.7401 136.36241 149.53906 136.36133 C 144.88791 136.32233 140.81539 132.8259 138.12305 127.41406 C 139.16614 127.71861 140.263 127.86719 141.38867 127.86719 L 141.42383 127.86719 L 141.45898 127.86719 C 148.30553 127.70564 152.83591 121.38554 152.5 115.07617 C 152.4621 109.46873 149.72269 105.78595 146.92578 104.13867 C 144.1094 102.47993 141.55673 102.5 141.20312 102.5 C 139.9601 102.5 138.74008 102.64458 137.55078 103.10156 C 137.56228 103.07666 137.56457 103.04824 137.57617 103.02344 C 140.54006 96.689757 143.85467 94.099789 149.0293 93.505859 z M 99.134766 108.23438 C 98.900146 108.23436 100.50328 108.27188 101.8125 109.04297 C 103.12172 109.81405 104.44531 110.94422 104.44531 114.91992 L 104.44531 115.00781 L 104.45117 115.0957 C 104.64425 118.36203 102.39954 121.4939 99.285156 121.59375 C 98.215096 121.58145 96.996994 121.12614 96.677734 120.875 C 93.714644 118.54423 93.315314 112.6606 96.089844 109.71875 C 96.964294 108.79155 97.383358 108.49755 97.580078 108.40625 C 97.776808 108.31495 98.061516 108.23437 99.134766 108.23438 z M 141.20312 108.5 C 140.96855 108.5 142.57164 108.5375 143.88086 109.30859 C 145.19008 110.07967 146.51367 111.20789 146.51367 115.18359 L 146.51367 115.27148 L 146.51953 115.36133 C 146.71256 118.62696 144.47077 121.75824 141.35742 121.85938 C 140.2861 121.84847 139.06585 121.3902 138.74609 121.13867 C 135.783 118.8079 135.38368 112.92622 138.1582 109.98438 C 139.03265 109.05716 139.45171 108.76318 139.64844 108.67188 C 139.84516 108.58057 140.12987 108.5 141.20312 108.5 z "
       d="m 149.59375,53.976562 c -15.59987,0.181542 -31.32794,4.893295 -43.69531,14.353516 -12.368993,9.461481 -21.277102,23.787706 -22.910159,42.494142 l -0.0039,0.0371 a 0.34250603,0.34250603 0 0 0 -0.002,0.0273 l -0.002,0.0488 c -0.209485,3.82699 -0.660155,23.39041 -1.044922,44.24219 -0.337583,18.29541 -0.501788,27.77765 -0.419922,33.19336 0.04089,2.70716 0.134867,4.41352 0.347656,5.79882 0.214317,1.39525 0.615552,2.4827 0.976563,3.29883 1.75513,3.96779 4.589302,7.02444 8.320312,8.76563 2.377863,1.10972 5.000266,1.25543 7.585938,1.00586 2.587356,-0.24974 5.159376,-0.91579 7.320316,-2.39649 4.32608,-2.96425 6.64392,-7.26039 7.39453,-13.23828 0.34974,-2.78538 0.69749,-4.45143 1.36133,-5.68359 0.66383,-1.23217 1.65706,-2.08282 3.4082,-3.24414 2.07767,-1.37787 2.37969,-1.47071 4.63086,-1.47071 2.7976,0 4.69212,0.82689 6.29101,2.5 1.59046,1.66428 2.86355,4.3706 3.41211,8.24414 0.65035,4.59231 2.23842,8.45923 5.06446,11.17969 2.82972,2.72403 6.73669,4.01563 11.04687,4.01563 2.61039,0 4.92851,-0.27486 7.06836,-1.38672 2.13504,-1.10936 3.76617,-2.81868 5.59961,-5.08594 1.81506,-2.24445 2.77139,-4.97172 3.28711,-8.61914 0.42402,-2.99878 0.86484,-4.88157 1.55469,-6.22852 0.68984,-1.34694 1.62428,-2.19214 3.14453,-3.15625 1.24596,-0.79016 2.87413,-1.24873 4.42578,-1.38085 1.54631,-0.13167 3.01572,0.0689 3.92773,0.51562 2.58063,1.63534 3.87411,2.82689 4.59766,4.01758 0.74503,1.22606 1.15023,2.80735 1.40625,5.73047 a 0.34250603,0.34250603 0 0 0 0,0.002 l 0.008,0.084 a 0.34250603,0.34250603 0 0 0 0.002,0.0156 l 0.0117,0.084 a 0.34250603,0.34250603 0 0 0 0,0.002 c 0.86741,6.00027 2.95876,9.99559 6.97852,12.78125 8.30255,5.75372 19.55167,2.28195 23.70508,-7.10742 0.36322,-0.8211 0.75331,-1.92914 0.95703,-3.34961 0.20224,-1.41023 0.2927,-3.17625 0.33008,-5.98438 0.0748,-5.61721 -0.0938,-15.4538 -0.43946,-34.27539 -0.39772,-21.66002 -1.23956,-42.14054 -1.39062,-45.62109 C 213.06595,90.130541 204.7414,76.2317 192.74023,67.183594 180.74123,58.137105 165.19354,53.795022 149.59375,53.976562 Z m 0.0781,6.681641 c 14.29853,-0.166399 28.45028,3.877062 39.04297,11.863281 10.5951,7.98803 17.7544,19.765538 18.45703,35.955076 0.14837,3.41816 0.98881,23.88879 1.38477,45.45313 0.34556,18.81826 0.51101,28.69079 0.43945,34.0664 -0.0358,2.68725 -0.13997,4.24491 -0.26562,5.1211 -0.12783,0.89134 -0.18968,1.00261 -0.45117,1.59375 -1.35153,3.05531 -3.52824,5.00529 -5.99024,5.76367 -2.46199,0.75838 -5.2245,0.33465 -7.79297,-1.44531 -1.4334,-0.99334 -2.26115,-1.74462 -2.84961,-2.89063 -0.58845,-1.146 -0.9409,-2.72897 -1.32031,-5.35351 -0.29499,-3.23548 -0.84009,-5.97843 -2.33203,-8.4336 -1.52152,-2.50387 -3.81517,-4.38079 -6.92187,-6.32617 l -0.10352,-0.0644 a 0.34250603,0.34250603 0 0 0 -0.0234,-0.0137 l -0.10937,-0.0566 c -4.66279,-2.4113 -10.51473,-1.76352 -15.08789,1.13672 -4.46444,2.83124 -6.77884,7.30633 -7.73828,14.0918 -0.43811,3.09855 -0.85183,4.1052 -1.86133,5.35352 -1.62177,2.00547 -2.65033,2.92109 -3.48633,3.35546 -0.84693,0.44007 -1.82242,0.63672 -3.98633,0.63672 -3.06885,0 -4.96054,-0.75289 -6.4082,-2.14648 -1.44108,-1.38724 -2.57117,-3.68163 -3.08399,-7.30274 -0.68804,-4.85841 -2.36958,-8.9649 -5.19726,-11.92382 -2.8327,-2.96416 -6.7992,-4.56641 -11.125,-4.56641 -3.04472,0 -5.67154,0.82479 -8.32422,2.58398 -4.58106,3.03808 -6.90553,7.26534 -7.70898,13.66407 -0.31481,2.50713 -0.69433,4.1226 -1.35938,5.35937 -0.66505,1.23678 -1.62241,2.12826 -3.17969,3.19531 -0.68502,0.4694 -2.462399,1.0915 -4.185544,1.25782 -0.860359,0.083 -1.735054,0.0578 -2.47461,-0.0293 -0.739556,-0.0871 -1.354548,-0.24449 -1.642578,-0.37891 -2.31978,-1.08259 -3.790505,-2.59835 -5.035156,-5.41211 -0.282721,-0.63913 -0.350957,-0.76813 -0.480469,-1.61132 -0.127102,-0.82746 -0.234459,-2.30693 -0.273437,-4.88477 -0.078,-5.15694 0.0843,-14.67622 0.421875,-32.96875 0.240479,-13.03259 0.440503,-19.84124 0.646484,-27.53125 3.258526,8.06659 9.699746,14.59704 18.152345,14.66797 a 0.34250603,0.34250603 0 0 0 0.002,0 c 2.54354,0.02 5.03555,-0.83939 7.40235,-1.94141 5.24699,-2.44312 9.2818,-7.52975 11.71875,-13.90039 2.39618,-6.2641 2.55293,-15.71446 0.53515,-22.35156 -1.57187,-5.170454 -4.47842,-9.613233 -8.10742,-12.757812 -3.62971,-3.145185 -8.11396,-5.075008 -12.73242,-4.544922 -4.6356,0.532069 -8.611391,2.658355 -11.804689,6.087891 3.619574,-7.925596 8.975859,-14.377682 15.529299,-19.390625 11.03691,-8.442511 25.41237,-12.814079 39.71093,-12.980469 z m 0.35938,26.460938 c -0.57165,-0.0083 -1.14729,0.01968 -1.72461,0.08594 -7.26581,0.833962 -12.9231,5.541456 -16.47461,13.130862 -4.16298,8.89609 -3.86756,19.10891 -0.66016,27.33984 3.20916,8.23539 9.73361,14.95533 18.31446,15.02734 a 0.34250603,0.34250603 0 0 0 0.002,0 c 2.54373,0.02 5.03569,-0.84141 7.40234,-1.94335 5.24699,-2.44312 9.28181,-7.52976 11.71875,-13.90039 2.39619,-6.26408 2.55293,-15.71255 0.53516,-22.34961 -1.57188,-5.170463 -4.47842,-9.613238 -8.10742,-12.757817 -3.17591,-2.75197 -7.0043,-4.574909 -11.00586,-4.632812 z M 107,93.582031 c 2.23817,-0.256893 5.00239,0.716919 7.58984,2.958985 2.58655,2.241268 4.88182,5.674834 6.08985,9.648434 0.67354,2.21548 0.95965,5.77759 0.87695,9.25 -0.0827,3.47242 -0.53832,6.87963 -1.25976,8.76563 -1.96753,5.1435 -5.16826,8.77371 -8.29688,10.23047 -0.73692,0.34312 -1.84622,0.68133 -2.78516,0.92578 -0.46946,0.12222 -0.89792,0.22222 -1.21875,0.29101 -0.16041,0.0344 -0.29395,0.0606 -0.39062,0.0781 -0.0967,0.0175 -0.19896,0.0231 -0.13281,0.0234 -4.29326,-0.036 -8.107606,-3.15851 -10.757816,-8.11524 0.847587,0.18602 1.713947,0.30664 2.605468,0.30664 h 0.03516 0.03516 a 0.34250603,0.34250603 0 0 0 0.0078,0 c 7.050883,-0.16637 11.716313,-6.66024 11.375003,-13.14258 v -0.006 c -0.0433,-5.70982 -2.83955,-9.50922 -5.74219,-11.21875 -2.89539,-1.70528 -5.555823,-1.68555 -5.896484,-1.68555 -1.012877,0 -2.01927,0.1455 -3.015625,0.42578 1.380099,-2.808701 2.832489,-4.834743 4.503909,-6.205079 1.79197,-1.469172 3.83743,-2.239771 6.37695,-2.53125 z m 42.06836,0.263672 c 2.23817,-0.256883 5.00239,0.716929 7.58984,2.958984 2.58655,2.24128 4.88182,5.674823 6.08985,9.648443 0.67353,2.21546 0.95965,5.77904 0.87695,9.25195 -0.0827,3.47291 -0.53833,6.87965 -1.25977,8.76562 -1.96753,5.14354 -5.16623,8.77173 -8.29492,10.22852 -0.73697,0.34314 -1.84766,0.68084 -2.78711,0.92578 -0.46972,0.12247 -0.89774,0.22399 -1.21875,0.29297 -0.1605,0.0345 -0.2939,0.0606 -0.39062,0.0781 -0.0967,0.0175 -0.19921,0.0231 -0.13281,0.0234 -4.29263,-0.036 -8.10571,-3.15938 -10.75586,-8.11523 0.84688,0.18526 1.71311,0.30468 2.60351,0.30468 h 0.0352 0.0351 a 0.34250603,0.34250603 0 0 0 0.008,0 c 7.04788,-0.1663 11.7119,-6.65523 11.375,-13.13476 v -0.006 c -0.0406,-5.71457 -2.83824,-9.51429 -5.74219,-11.22461 -2.89539,-1.70527 -5.55583,-1.68555 -5.89649,-1.68555 -1.01255,0 -2.01911,0.14403 -3.01562,0.42383 1.3801,-2.808695 2.83249,-4.83474 4.50391,-6.205077 1.79197,-1.469173 3.83743,-2.239771 6.37695,-2.53125 z M 99.103516,108.58008 c 0.02959,0.003 0.06879,0.005 0.128906,0.0117 0.131239,0.0148 0.339881,0.0432 0.595703,0.0937 0.511645,0.10112 1.206515,0.29658 1.810545,0.65234 0.63505,0.37402 1.22693,0.80058 1.6836,1.60938 0.45666,0.80879 0.78125,2.02281 0.78125,3.97265 v 0.0879 a 0.34250603,0.34250603 0 0 0 0,0.0234 l 0.006,0.0879 c 0.18088,3.09299 -1.94313,6.03292 -4.82813,6.13086 -0.485985,-0.007 -1.02916,-0.1154 -1.480469,-0.25391 -0.453721,-0.13924 -0.839785,-0.33373 -0.912109,-0.39062 -1.377359,-1.08343 -2.19551,-3.04659 -2.314453,-5.09961 -0.118944,-2.05302 0.462177,-4.17068 1.765625,-5.55273 0.861771,-0.91376 1.274237,-1.18504 1.384765,-1.23633 0.148702,-0.069 0.382966,-0.13375 1.378907,-0.13672 z m 42.068354,0.26562 c 0.0296,0.003 0.0688,0.005 0.12891,0.0117 0.13125,0.0148 0.33988,0.0432 0.5957,0.0937 0.51164,0.10113 1.20652,0.29659 1.81055,0.65235 0.63516,0.37408 1.22697,0.80109 1.68359,1.60937 0.45663,0.80828 0.78125,2.02086 0.78125,3.9707 v 0.0879 a 0.34250603,0.34250603 0 0 0 0,0.0215 l 0.006,0.0898 c 0.18187,3.09319 -1.9396,6.03366 -4.82421,6.13282 -0.4862,-0.006 -1.03044,-0.11484 -1.48243,-0.25391 -0.45439,-0.13982 -0.84113,-0.33521 -0.91406,-0.39258 -1.37739,-1.08346 -2.19551,-3.04514 -2.31445,-5.09766 -0.11894,-2.05251 0.46215,-4.17065 1.76562,-5.55273 0.86177,-0.91377 1.27422,-1.18502 1.38477,-1.23633 0.14866,-0.069 0.38296,-0.13373 1.3789,-0.13672 z"
       transform="translate(0.40625114,6.023438)" /></g></svg>
