<?xml version="1.0" encoding="UTF-8" standalone="no"?>
<!-- Created with Inkscape (http://www.inkscape.org/) -->

<svg
   width="250mm"
   height="250mm"
   viewBox="0 0 250 250"
   version="1.1"
   id="svg1"
   xml:space="preserve"
   inkscape:version="1.4.2 (f4327f4, 2025-05-13)"
   sodipodi:docname="PackmanGhost.svg"
   xmlns:inkscape="http://www.inkscape.org/namespaces/inkscape"
   xmlns:sodipodi="http://sodipodi.sourceforge.net/DTD/sodipodi-0.dtd"
   xmlns="http://www.w3.org/2000/svg"
   xmlns:svg="http://www.w3.org/2000/svg"><sodipodi:namedview
     id="namedview1"
     pagecolor="#ffffff"
     bordercolor="#000000"
     borderopacity="0.25"
     inkscape:showpageshadow="2"
     inkscape:pageopacity="0.0"
     inkscape:pagecheckerboard="0"
     inkscape:deskcolor="#d1d1d1"
     inkscape:document-units="mm"
     showgrid="true"
     inkscape:zoom="0.36756309"
     inkscape:cx="425.77724"
     inkscape:cy="821.62765"
     inkscape:window-width="1971"
     inkscape:window-height="1250"
     inkscape:window-x="425"
     inkscape:window-y="109"
     inkscape:window-maximized="0"
     inkscape:current-layer="layer1"><inkscape:grid
       id="grid2"
       units="mm"
       originx="0"
       originy="0"
       spacingx="0.99999999"
       spacingy="0.99999999"
       empcolor="#0099e5"
       empopacity="0.30196078"
       color="#0099e5"
       opacity="0.14901961"
       empspacing="10"
       enabled="true"
       visible="true" /><inkscape:page
       x="0"
       y="0"
       width="250"
       height="250"
       id="page2"
       margin="0"
       bleed="0" /></sodipodi:namedview><defs
     id="defs1" /><g
     inkscape:label="Ebene 1"
     inkscape:groupmode="layer"
     id="layer1"><path
       style="baseline-shift:baseline;display:inline;overflow:visible;opacity:1;vector-effect:none;enable-background:accumulate;stop-color:#000000;stop-opacity:1"
       d="m 149.59766,54.318359 c -15.53357,0.180769 -31.19061,4.874788 -43.49024,14.283203 -12.299629,9.408416 -21.152348,23.637821 -22.777342,42.251958 l -0.0059,0.0488 -0.002,0.0488 c -0.207393,3.78454 -0.660102,23.37972 -1.044922,44.23438 -0.337584,18.29528 -0.501595,27.77892 -0.419922,33.18164 0.04084,2.70136 0.135093,4.39353 0.34375,5.75195 0.208656,1.35842 0.59768,2.41376 0.951172,3.21289 1.726381,3.90279 4.500043,6.88929 8.152343,8.59375 2.300613,1.07367 4.857303,1.22083 7.408204,0.97461 2.550897,-0.24622 5.064457,-0.90189 7.160157,-2.33789 4.24677,-2.90991 6.50565,-7.08559 7.24804,-12.99805 0.70215,-5.59195 1.38844,-6.8279 4.91993,-9.16992 2.08824,-1.38487 2.55478,-1.52734 4.82031,-1.52734 2.86716,0 4.8839,0.87348 6.53906,2.60547 1.65516,1.73198 2.94815,4.50727 3.50391,8.43164 0.64324,4.54215 2.20756,8.33002 4.96289,10.98242 2.75532,2.6524 6.56663,3.91992 10.80859,3.91992 2.58623,0 4.83942,-0.27366 6.91016,-1.34961 2.07073,-1.07595 3.6684,-2.7408 5.49218,-4.99609 1.76691,-2.18491 2.70204,-4.84004 3.2129,-8.45313 0.85159,-6.02272 1.76762,-7.66677 4.85546,-9.625 2.61686,-1.65957 6.69611,-1.86893 8.70118,-0.8789 2.617,1.65597 3.95962,2.88048 4.72656,4.14257 0.78437,1.29079 1.19725,2.93518 1.45508,5.87891 l 0.008,0.084 0.0117,0.084 c 0.85947,5.94539 2.89347,9.81809 6.83398,12.54883 8.13093,5.63478 19.12349,2.24452 23.19727,-6.96485 0.35372,-0.79963 0.73109,-1.87497 0.92969,-3.25976 0.19859,-1.38479 0.29082,-3.13694 0.32812,-5.93946 0.0746,-5.60503 -0.0938,-15.44418 -0.43945,-34.26562 -0.39763,-21.65511 -1.2397,-42.13384 -1.39063,-45.61133 C 212.72844,90.243366 204.46069,76.449592 192.5332,67.457031 180.60572,58.46447 165.13122,54.13759 149.59766,54.318359 Z m 0.0703,5.998047 c 14.36563,-0.167177 28.58856,3.890651 39.2539,11.931641 10.66535,8.04099 17.8851,19.929621 18.5918,36.212893 0.14849,3.42137 0.98872,23.89364 1.38477,45.46289 0.34555,18.81845 0.51117,28.68798 0.43945,34.07617 -0.0359,2.6941 -0.13762,4.25982 -0.26758,5.16602 -0.12996,0.90619 -0.21763,1.09383 -0.47851,1.68359 -2.76982,6.26157 -9.00575,8.12366 -14.29102,4.46094 -2.8994,-2.00926 -3.55272,-3.20732 -4.31445,-8.47657 l 0.0195,0.16797 c -0.28906,-3.3003 -0.82303,-6.0344 -2.30469,-8.47265 -1.48165,-2.43825 -3.72356,-4.27985 -6.81055,-6.21289 l -0.10351,-0.0645 -0.10938,-0.0566 c -4.53623,-2.34586 -10.26523,-1.7206 -14.74609,1.1211 -4.37276,2.77309 -6.63023,7.12018 -7.58203,13.85156 -0.44109,3.11967 -0.89592,4.23395 -1.93555,5.51953 -1.63386,2.02043 -2.68628,2.9738 -3.59375,3.44531 -0.90746,0.47152 -1.95948,0.67383 -4.14453,0.67383 -3.12628,0 -5.1341,-0.7863 -6.64648,-2.24219 -1.51239,-1.45589 -2.66575,-3.82955 -3.18555,-7.5 -0.68094,-4.80827 -2.34037,-8.84289 -5.10547,-11.73633 -2.7651,-2.89343 -6.63553,-4.46093 -10.87695,-4.46093 -2.98365,0 -5.52713,0.79802 -8.13477,2.52734 -4.5048,2.9875 -6.76284,7.08451 -7.55859,13.42188 -0.63349,5.04514 -1.53144,6.63371 -4.68555,8.79492 -0.78532,0.53812 -2.56753,1.14477 -4.345701,1.3164 -1.778172,0.17164 -3.584184,-0.10776 -4.294922,-0.43945 -2.38268,-1.11195 -3.935767,-2.71889 -5.203125,-5.58398 -0.282348,-0.6383 -0.373943,-0.83845 -0.50586,-1.69727 -0.131916,-0.85882 -0.238262,-2.3464 -0.277343,-4.93164 -0.07816,-5.17047 0.08434,-14.68778 0.421875,-32.98047 0.258524,-14.01026 0.473095,-21.20335 0.695312,-29.59765 0.173706,0.51739 0.253164,1.08477 0.449219,1.58789 3.175139,8.1481 9.594815,14.74002 17.998045,14.81054 h 0.002 c 2.46414,0.0194 4.91093,-0.81832 7.25585,-1.91015 5.14272,-2.39457 9.12938,-7.4033 11.54297,-13.71289 2.3564,-6.16009 2.51702,-15.58426 0.52735,-22.12891 -1.55356,-5.110206 -4.42721,-9.498397 -8.00391,-12.597656 -3.5767,-3.099259 -7.96901,-4.9813 -12.46875,-4.464844 -5.32276,0.610938 -9.751161,3.334465 -13.121093,7.787109 3.618636,-8.994672 9.407973,-16.201535 16.597653,-21.701172 11.10553,-8.495001 25.55039,-12.883603 39.91602,-13.050781 z m -1.32227,27.228516 c -7.14147,0.819687 -12.68745,5.42274 -16.20312,12.935548 -4.11763,8.79917 -3.82748,18.92221 -0.65235,27.07031 3.17514,8.1481 9.59482,14.74003 17.99805,14.81055 h 0.002 c 2.46415,0.0194 4.91094,-0.82028 7.25586,-1.91211 5.14272,-2.39457 9.12938,-7.4033 11.54297,-13.71289 2.3564,-6.16008 2.51702,-15.58231 0.52735,-22.12695 -1.55357,-5.110214 -4.42721,-9.498401 -8.00391,-12.597661 -3.5767,-3.09926 -7.96706,-4.983254 -12.4668,-4.466797 z m -41.38476,5.697265 c 2.36578,-0.271532 5.21216,0.750298 7.85351,3.039063 2.64135,2.288765 4.96627,5.77227 6.19336,9.80859 1.39007,4.57237 1.1146,14.30333 -0.39062,18.23829 -1.99241,5.20855 -5.22908,8.90768 -8.47266,10.41796 -1.55395,0.72355 -4.47279,1.3507 -4.67383,1.34961 -4.65173,-0.039 -8.725656,-3.53425 -11.417966,-8.94726 1.043638,0.30492 2.141234,0.45508 3.267578,0.45508 h 0.03516 0.03516 c 6.849468,-0.16162 11.381228,-6.48678 11.041018,-12.79883 -0.0406,-5.60272 -2.7787,-9.28519 -5.57422,-10.93164 -2.81638,-1.65874 -5.36904,-1.63867 -5.722657,-1.63867 -1.243064,0 -2.463015,0.14649 -3.652344,0.60351 0.01155,-0.0249 0.01375,-0.0533 0.02539,-0.0781 2.963889,-6.333685 6.278501,-8.923648 11.453131,-9.517583 z m 42.06836,0.263672 c 2.36578,-0.271532 5.21216,0.750297 7.85351,3.039063 2.64135,2.288766 4.96627,5.772268 6.19336,9.808598 1.39007,4.57237 1.1146,14.30529 -0.39062,18.24023 -1.99241,5.20855 -5.22712,8.90573 -8.47071,10.41602 -1.55395,0.72354 -4.47474,1.35264 -4.67578,1.35156 -4.65115,-0.039 -8.72367,-3.53543 -11.41601,-8.94727 1.04309,0.30455 2.13995,0.45313 3.26562,0.45313 h 0.0352 0.0351 c 6.84655,-0.16155 11.37693,-6.48165 11.04102,-12.79102 -0.0379,-5.60744 -2.77731,-9.29022 -5.57422,-10.9375 -2.81638,-1.65874 -5.36906,-1.63867 -5.72266,-1.63867 -1.24302,0 -2.46304,0.14458 -3.65234,0.60156 0.0115,-0.0249 0.0138,-0.0533 0.0254,-0.0781 2.96389,-6.333679 6.2785,-8.923646 11.45313,-9.517581 z M 99.134766,108.23438 c -0.234618,-1e-5 1.368514,0.0375 2.677734,0.80859 1.30922,0.77108 2.63281,1.90125 2.63281,5.87695 v 0.0879 l 0.006,0.0879 c 0.19308,3.26633 -2.05163,6.3982 -5.166014,6.49805 -1.070064,-0.0123 -2.288159,-0.46761 -2.607422,-0.71875 -2.96309,-2.33077 -3.362417,-8.2144 -0.58789,-11.15625 0.874449,-0.9272 1.293507,-1.2212 1.490234,-1.3125 0.196727,-0.0913 0.481433,-0.17187 1.554688,-0.17187 z M 141.20312,108.5 c -0.23458,0 1.36852,0.0375 2.67774,0.80859 1.30922,0.77108 2.63281,1.8993 2.63281,5.875 v 0.0879 l 0.006,0.0898 c 0.19303,3.26563 -2.04876,6.39692 -5.16211,6.49805 -1.07132,-0.0109 -2.29157,-0.46918 -2.61133,-0.72071 -2.96309,-2.33077 -3.36241,-8.21244 -0.58789,-11.15429 0.87445,-0.92721 1.29351,-1.2212 1.49024,-1.3125 0.19672,-0.0913 0.48143,-0.17188 1.55468,-0.17188 z"
       id="path3-4-6" /></g></svg>
