<?xml version="1.0" encoding="UTF-8" standalone="no"?>
<!-- Created with Inkscape (http://www.inkscape.org/) -->

<svg
   width="250mm"
   height="250mm"
   viewBox="0 0 250 250"
   version="1.1"
   id="svg1"
   xml:space="preserve"
   inkscape:version="1.4.2 (f4327f4, 2025-05-13)"
   sodipodi:docname="PackmanGhost.svg"
   inkscape:export-filename="PackmanGhost_2a.svg"
   inkscape:export-xdpi="96"
   inkscape:export-ydpi="96"
   xmlns:inkscape="http://www.inkscape.org/namespaces/inkscape"
   xmlns:sodipodi="http://sodipodi.sourceforge.net/DTD/sodipodi-0.dtd"
   xmlns="http://www.w3.org/2000/svg"
   xmlns:svg="http://www.w3.org/2000/svg"><sodipodi:namedview
     id="namedview1"
     pagecolor="#ffffff"
     bordercolor="#000000"
     borderopacity="0.25"
     inkscape:showpageshadow="2"
     inkscape:pageopacity="0.0"
     inkscape:pagecheckerboard="0"
     inkscape:deskcolor="#d1d1d1"
     inkscape:document-units="mm"
     showgrid="true"
     inkscape:zoom="1.0396254"
     inkscape:cx="299.62715"
     inkscape:cy="586.7498"
     inkscape:window-width="1971"
     inkscape:window-height="1250"
     inkscape:window-x="2692"
     inkscape:window-y="19"
     inkscape:window-maximized="0"
     inkscape:current-layer="layer1"><inkscape:grid
       id="grid2"
       units="mm"
       originx="0"
       originy="0"
       spacingx="0.99999999"
       spacingy="0.99999999"
       empcolor="#0099e5"
       empopacity="0.30196078"
       color="#0099e5"
       opacity="0.14901961"
       empspacing="10"
       enabled="true"
       visible="true" /><inkscape:page
       x="0"
       y="0"
       width="250"
       height="250"
       id="page2"
       margin="0"
       bleed="0" /></sodipodi:namedview><defs
     id="defs1" /><g
     inkscape:label="Ebene 1"
     inkscape:groupmode="layer"
     id="layer1"><path
       d="m 147.74407,38.513816 c -15.82258,0.18413 -31.78379,4.95554 -44.37869,14.58981 -12.601981,9.6397 -21.697121,24.29205 -23.357231,43.30847 l 0.004,-0.0491 -0.006,0.0491 c -0.005,0.0389 -0.008,0.0781 -0.01,0.1173 l -0.002,0.0486 0.002,-0.0212 c -0.2163,3.947144 -0.66206,23.429764 -1.04696,44.288774 -0.3376,18.29588 -0.50214,27.77328 -0.41961,33.2326 0.0412,2.72665 0.13456,4.47957 0.36122,5.95519 0.23331,1.51895 0.67412,2.71621 1.0604,3.58944 1.8517,4.1861 4.8914,7.47956 8.88679,9.34414 2.63731,1.2308 5.47895,1.36827 8.18141,1.10742 2.70983,-0.26156 5.481501,-0.96332 7.861541,-2.59415 4.59247,-3.14679 7.10658,-7.84491 7.88479,-14.04256 0.34528,-2.74979 0.69284,-4.27798 1.23248,-5.27926 0.53965,-1.00128 1.32912,-1.70144 3.03134,-2.83032 2.04273,-1.35469 1.79405,-1.28106 3.99614,-1.28106 2.5633,0 4.04829,0.67037 5.45858,2.14612 1.37352,1.43727 2.58138,3.90503 3.10576,7.60781 0.67419,4.76076 2.34235,8.90032 5.40587,11.8494 3.07965,2.96462 7.30492,4.33617 11.84424,4.33617 2.69153,0 5.22548,-0.28526 7.59747,-1.51773 2.35103,-1.2216 4.09906,-3.07364 5.96501,-5.38107 1.97679,-2.44445 2.99905,-5.42066 3.53105,-9.18342 0.41804,-2.95654 0.85545,-4.72552 1.43918,-5.86528 0.58374,-1.13975 1.29605,-1.79519 2.73679,-2.70887 1.03614,-0.65711 2.5103,-1.0861 3.90777,-1.2051 1.38033,-0.11753 2.67852,0.10737 3.29334,0.40049 2.44011,1.55661 3.57439,2.63291 4.1522,3.58376 0.61291,1.00864 0.99441,2.38044 1.24437,5.23431 -1e-5,0.003 -1e-5,0.005 0,0.008 l 0.008,0.0842 c 0.002,0.0228 0.005,0.0455 0.008,0.0682 l 0.0114,0.0842 c 6.6e-4,0.002 10e-4,0.004 0.002,0.006 0.89405,6.18462 3.17512,10.59237 7.46104,13.56248 8.87908,6.15324 20.99103,2.40634 25.41189,-7.58765 0.39514,-0.89323 0.82244,-2.11009 1.04334,-3.65042 v -0.002 c 0.21447,-1.49546 0.30395,-3.30184 0.34159,-6.12882 0.0753,-5.65818 -0.0936,-15.49261 -0.43925,-34.3147 -0.39803,-21.67652 -1.23912,-42.157574 -1.39062,-45.648384 -0.79784,-18.38165 -9.32016,-32.63465 -21.56871,-41.86928 -12.2392,-9.22756 -28.0292,-13.62517 -43.85158,-13.44104 z m -41.74009,41.86825 c 1.72158,0.044 3.8904,0.89105 5.99602,2.71559 2.40244,2.08176 4.60034,5.35017 5.74435,9.11314 0.60131,1.97791 0.9071,5.49775 0.8263,8.890934 -0.0808,3.39319 -0.56717,6.77018 -1.1839,8.38244 -1.88389,4.92484 -4.96614,8.31862 -7.70909,9.59579 -0.60237,0.28048 -1.68467,0.62019 -2.58951,0.85577 -0.45242,0.11778 -0.86718,0.21412 -1.16995,0.27905 -0.13725,0.0294 -0.24161,0.0521 -0.3204,0.0667 -4.41962,-0.0643 -8.581201,-3.74699 -11.029301,-10.02936 -2.44795,-6.28198 -2.64056,-14.556204 0.45527,-21.171844 1.42451,-3.0441 2.88163,-5.06828 4.49223,-6.38875 1.610601,-1.32048 3.400011,-2.0064 5.778981,-2.27945 0.22619,-0.026 0.46306,-0.0363 0.709,-0.03 z m 42.06823,0.26561 c 1.72158,0.044 3.89093,0.89106 5.99654,2.7156 2.40276,2.08203 4.59989,5.34825 5.74383,9.11107 0.60131,1.97791 0.9071,5.49775 0.82631,8.890934 -0.0808,3.39319 -0.56666,6.7707 -1.18339,8.38295 -1.88405,4.92527 -4.96473,8.32047 -7.70703,9.59735 -0.60215,0.28037 -1.68469,0.62018 -2.59002,0.85576 -0.45266,0.11779 -0.86904,0.21412 -1.17202,0.27905 -0.13734,0.0294 -0.24153,0.0521 -0.32039,0.0667 -4.41962,-0.0643 -8.5812,-3.747 -11.02931,-10.02936 -2.44794,-6.282 -2.64056,-14.556194 0.45527,-21.171844 1.42451,-3.0441 2.88164,-5.06828 4.49224,-6.38876 1.6106,-1.32047 3.4,-2.00639 5.77897,-2.27944 0.22619,-0.026 0.46306,-0.0363 0.709,-0.03 z"
       style="baseline-shift:baseline;display:inline;overflow:visible;vector-effect:none;fill:#60c500;fill-opacity:1;enable-background:accumulate;stop-color:#000000"
       id="path12"
       sodipodi:nodetypes="csccccccssssssssssssssssssssscsccscccssccsscsccsssssssscsssssssssssssscssssss" /></g></svg>
