<?xml version="1.0" encoding="UTF-8" standalone="no"?>
<!-- Created with Inkscape (http://www.inkscape.org/) -->

<svg
   width="250mm"
   height="250mm"
   viewBox="0 0 250 250"
   version="1.1"
   id="svg1"
   xml:space="preserve"
   inkscape:version="1.4.2 (f4327f4, 2025-05-13)"
   sodipodi:docname="PackmanGhost.svg"
   inkscape:export-filename="PackmanGhost_1.svg"
   inkscape:export-xdpi="96"
   inkscape:export-ydpi="96"
   xmlns:inkscape="http://www.inkscape.org/namespaces/inkscape"
   xmlns:sodipodi="http://sodipodi.sourceforge.net/DTD/sodipodi-0.dtd"
   xmlns="http://www.w3.org/2000/svg"
   xmlns:svg="http://www.w3.org/2000/svg"><sodipodi:namedview
     id="namedview1"
     pagecolor="#ffffff"
     bordercolor="#000000"
     borderopacity="0.25"
     inkscape:showpageshadow="2"
     inkscape:pageopacity="0.0"
     inkscape:pagecheckerboard="0"
     inkscape:deskcolor="#d1d1d1"
     inkscape:document-units="mm"
     showgrid="true"
     inkscape:zoom="0.36756309"
     inkscape:cx="265.26058"
     inkscape:cy="718.24404"
     inkscape:window-width="1971"
     inkscape:window-height="1250"
     inkscape:window-x="430"
     inkscape:window-y="114"
     inkscape:window-maximized="0"
     inkscape:current-layer="layer1"><inkscape:grid
       id="grid2"
       units="mm"
       originx="0"
       originy="0"
       spacingx="0.99999999"
       spacingy="0.99999999"
       empcolor="#0099e5"
       empopacity="0.30196078"
       color="#0099e5"
       opacity="0.14901961"
       empspacing="10"
       enabled="true"
       visible="true" /><inkscape:page
       x="0"
       y="0"
       width="250"
       height="250"
       id="page2"
       margin="0"
       bleed="0" /></sodipodi:namedview><defs
     id="defs1" /><g
     inkscape:label="Ebene 1"
     inkscape:groupmode="layer"
     id="layer1"><path
       id="path3-4-9-4"
       style="baseline-shift:baseline;display:inline;overflow:visible;vector-effect:none;fill:#dc0000;fill-opacity:1;enable-background:accumulate;stop-color:#000000"
       sodipodi:type="inkscape:offset"
       inkscape:radius="0.52490395"
       inkscape:original="M 147.76172 40.005859 C 132.22815 40.186628 116.5711 44.880648 104.27148 54.289062 C 91.971853 63.697479 83.119134 77.926882 81.494141 96.541016 L 81.488281 96.589844 L 81.486328 96.638672 C 81.278935 100.42322 80.826226 120.01839 80.441406 140.87305 C 80.103822 159.16833 79.939811 168.65197 80.021484 174.05469 C 80.062324 176.75605 80.156578 178.44822 80.365234 179.80664 C 80.573891 181.16506 80.962915 182.2204 81.316406 183.01953 C 83.042788 186.92232 85.81645 189.90882 89.46875 191.61328 C 91.769362 192.68695 94.326052 192.83411 96.876953 192.58789 C 99.427854 192.34167 101.9414 191.686 104.03711 190.25 C 108.28387 187.34009 110.54276 183.16441 111.28516 177.25195 C 111.98731 171.66 112.6736 170.426 116.20508 168.08398 C 118.29332 166.69911 118.75986 166.55469 121.02539 166.55469 C 123.89255 166.55469 125.90929 167.43012 127.56445 169.16211 C 129.21961 170.89409 130.5126 173.66743 131.06836 177.5918 C 131.7116 182.13395 133.27593 185.92182 136.03125 188.57422 C 138.78657 191.22662 142.59789 192.49414 146.83984 192.49414 C 149.42607 192.49414 151.67926 192.22048 153.75 191.14453 C 155.82074 190.06858 157.41841 188.40373 159.24219 186.14844 C 161.0091 183.96353 161.94423 181.3084 162.45508 177.69531 C 163.30668 171.67259 164.22271 170.02854 167.31055 168.07031 C 169.92741 166.41074 174.00665 166.20138 176.01172 167.19141 C 178.62872 168.84738 179.97134 170.07189 180.73828 171.33398 C 181.52265 172.62477 181.93553 174.26916 182.19336 177.21289 L 182.20117 177.29688 L 182.21289 177.38086 C 183.07236 183.32625 185.10636 187.19895 189.04688 189.92969 C 197.17782 195.56447 208.17036 192.17421 212.24414 182.96484 C 212.59786 182.16521 212.97523 181.08987 213.17383 179.70508 C 213.37242 178.32029 213.46465 176.57009 213.50195 173.76758 C 213.57655 168.16254 213.40815 158.32144 213.0625 139.5 C 212.66487 117.84489 211.8228 97.366158 211.67188 93.888672 C 210.89243 75.930832 202.62475 62.139046 190.69727 53.146484 C 178.76978 44.153923 163.29529 39.82509 147.76172 40.005859 z M 147.83203 46.005859 C 162.19766 45.838682 176.42059 49.89651 187.08594 57.9375 C 197.75129 65.97849 204.97104 77.865168 205.67773 94.148438 C 205.82623 97.569812 206.66645 118.04208 207.0625 139.61133 C 207.40805 158.42978 207.57368 168.29931 207.50195 173.6875 C 207.46605 176.3816 207.36434 177.94732 207.23438 178.85352 C 207.10442 179.75971 207.0187 179.9493 206.75781 180.53906 C 203.98799 186.80064 197.75011 188.66077 192.46484 184.99805 C 189.56544 182.98879 188.91212 181.79073 188.15039 176.52148 L 188.16992 176.68945 C 187.88086 173.38915 187.34689 170.657 185.86523 168.21875 C 184.38358 165.7805 182.14363 163.9389 179.05664 162.00586 L 178.95117 161.93945 L 178.8418 161.88281 C 174.30556 159.53695 168.57656 160.16221 164.0957 163.00391 C 159.72294 165.777 157.46547 170.12409 156.51367 176.85547 C 156.07258 179.97514 155.61777 181.08942 154.57812 182.375 C 152.94428 184.39543 151.89184 185.3488 150.98438 185.82031 C 150.07692 186.29183 149.02489 186.49414 146.83984 186.49414 C 143.71356 186.49414 141.70575 185.70784 140.19336 184.25195 C 138.68097 182.79606 137.52761 180.4224 137.00781 176.75195 C 136.32687 171.94368 134.66744 167.90906 131.90234 165.01562 C 129.13725 162.1222 125.26681 160.55469 121.02539 160.55469 C 118.04174 160.55469 115.49826 161.35271 112.89062 163.08203 C 108.38582 166.06953 106.12778 170.16654 105.33203 176.50391 C 104.69854 181.54905 103.80059 183.13957 100.64648 185.30078 C 99.861166 185.8389 98.078953 186.4436 96.300781 186.61523 C 94.522609 186.78687 92.716597 186.50747 92.005859 186.17578 C 89.62318 185.06383 88.070093 183.45689 86.802734 180.5918 C 86.520386 179.9535 86.428792 179.75335 86.296875 178.89453 C 86.164958 178.03571 86.058612 176.55008 86.019531 173.96484 C 85.941371 168.79437 86.103871 159.27511 86.441406 140.98242 C 86.699913 126.97308 86.914505 119.78117 87.136719 111.38672 C 87.310425 111.90412 87.389882 112.47149 87.585938 112.97461 C 90.761077 121.12271 97.180761 127.71268 105.58398 127.7832 L 105.58594 127.7832 C 108.05008 127.8026 110.49687 126.96488 112.8418 125.87305 C 117.98452 123.47848 121.97118 118.46975 124.38477 112.16016 C 126.74116 106.00007 126.90178 96.575899 124.91211 90.03125 C 123.35855 84.921043 120.4849 80.532853 116.9082 77.433594 C 113.3315 74.334334 108.93919 72.452293 104.43945 72.96875 C 99.116704 73.579686 94.68829 76.303226 91.318359 80.755859 C 94.936996 71.761187 100.72634 64.554325 107.91602 59.054688 C 119.02154 50.559686 133.4664 46.173037 147.83203 46.005859 z M 146.50977 73.234375 C 139.36829 74.054061 133.82231 78.657117 130.30664 86.169922 C 126.18901 94.969093 126.47916 105.09018 129.6543 113.23828 C 132.82944 121.38638 139.24911 127.97831 147.65234 128.04883 L 147.6543 128.04883 C 150.11844 128.06823 152.56523 127.23051 154.91016 126.13867 C 160.05287 123.7441 164.03955 118.73537 166.45312 112.42578 C 168.80953 106.2657 168.97014 96.841531 166.98047 90.296875 C 165.42691 85.186672 162.55326 80.798477 158.97656 77.699219 C 155.39986 74.599961 151.0095 72.717918 146.50977 73.234375 z M 105.125 78.929688 C 107.49078 78.658156 110.33717 79.679984 112.97852 81.96875 C 115.61986 84.257516 117.94478 87.741021 119.17188 91.777344 C 120.56194 96.349715 120.28647 106.08263 118.78125 110.01758 C 116.78884 115.22613 113.55218 118.92331 110.30859 120.43359 C 108.75464 121.15714 105.8358 121.78429 105.63477 121.7832 C 100.39136 121.7392 95.773871 117.45718 93.177734 110.79492 C 90.581598 104.13267 90.367765 95.507981 93.671875 88.447266 C 96.635764 82.113581 99.95038 79.523622 105.125 78.929688 z M 147.19336 79.195312 C 149.55914 78.923781 152.40553 79.94561 155.04688 82.234375 C 157.68822 84.52314 160.01315 88.004698 161.24023 92.041016 C 162.6303 96.613399 162.35483 106.34631 160.84961 110.28125 C 158.8572 115.4898 155.62249 119.18893 152.37891 120.69922 C 150.82495 121.42276 147.90417 122.04991 147.70312 122.04883 C 142.45972 122.00483 137.84223 117.7228 135.24609 111.06055 C 132.64996 104.39829 132.43612 95.773612 135.74023 88.712891 C 138.70412 82.379216 142.01874 79.789246 147.19336 79.195312 z "
       d="M 147.75586,39.480469 C 132.12067,39.66242 116.35657,44.385216 103.95313,53.873047 91.547181,63.36279 82.608045,77.740506 80.970703,96.496094 l -0.0039,0.03125 a 0.52495644,0.52495644 0 0 0 -0.0039,0.04102 l -0.002,0.04883 0.002,-0.0078 c -0.210526,3.841725 -0.662027,23.397715 -1.046875,44.253905 -0.337588,18.29549 -0.501896,27.7766 -0.419922,33.19922 0.04097,2.71025 0.134623,4.42459 0.349609,5.82422 0.217327,1.41487 0.625217,2.52051 0.990234,3.3457 1.770448,4.00241 4.637219,7.09666 8.410157,8.85742 2.419004,1.12893 5.077445,1.27285 7.68164,1.02149 2.606782,-0.25162 5.210556,-0.92323 7.406246,-2.42774 4.36832,-2.9932 6.71767,-7.35444 7.47266,-13.36718 0.34904,-2.77974 0.69573,-4.42207 1.33984,-5.61719 0.64412,-1.19512 1.60621,-2.02154 3.34961,-3.17774 2.07224,-1.37425 2.28608,-1.4414 4.5293,-1.4414 2.76031,0 4.5911,0.80342 6.16016,2.44531 1.55613,1.62835 2.81855,4.29417 3.36328,8.14063 0.65412,4.61901 2.25545,8.53038 5.11914,11.2871 2.86936,2.76219 6.82536,4.06641 11.17187,4.06641 2.62326,0 4.97568,-0.27917 7.15235,-1.41016 2.1693,-1.12716 3.81959,-2.85723 5.6582,-5.13085 1.84071,-2.27617 2.80593,-5.04327 3.32422,-8.70899 0.42307,-2.99208 0.86409,-4.85779 1.53711,-6.17187 0.67302,-1.31409 1.57244,-2.12788 3.08008,-3.08399 1.21268,-0.76906 2.81655,-1.22347 4.34375,-1.35351 1.51905,-0.12935 2.96185,0.0748 3.82617,0.49609 2.55999,1.62372 3.82696,2.79861 4.52734,3.95117 0.72408,1.19158 1.1258,2.73826 1.38086,5.65039 a 0.52495644,0.52495644 0 0 0 0,0.004 l 0.008,0.084 a 0.52495644,0.52495644 0 0 0 0.004,0.0234 l 0.0117,0.084 a 0.52495644,0.52495644 0 0 0 0,0.002 c 0.87163,6.0295 2.99271,10.09134 7.05469,12.90625 8.394,5.81708 19.78074,2.30166 23.97656,-7.1836 0.36828,-0.83253 0.76231,-1.95895 0.96875,-3.39843 0.20417,-1.42371 0.29657,-3.19279 0.33398,-6.00391 0.0748,-5.62373 -0.0938,-15.46349 -0.43945,-34.28516 -0.39777,-21.66263 -1.2395,-42.142825 -1.39062,-45.624996 -0.78592,-18.106862 -9.14322,-32.060993 -21.1836,-41.138672 -12.03709,-9.075194 -27.62269,-13.428044 -43.25781,-13.246093 z m 0.082,7.050781 c 14.26277,-0.16598 28.37763,3.869124 38.93164,11.826172 10.55772,7.959843 17.68236,19.674847 18.38281,35.814453 0.14829,3.416443 0.98886,23.887495 1.38477,45.449215 0.34554,18.81816 0.51093,28.68969 0.43945,34.0586 -0.0358,2.6836 -0.13835,4.23941 -0.26172,5.09961 -0.12681,0.88426 -0.17623,0.95627 -0.4375,1.54687 -1.33371,3.01506 -3.46979,4.92122 -5.87695,5.66211 -2.40716,0.74089 -5.10774,0.33072 -7.63672,-1.42187 -1.42472,-0.98733 -2.21988,-1.71195 -2.79101,-2.82422 -0.57114,-1.11228 -0.92411,-2.67576 -1.30274,-5.29492 a 0.52495644,0.52495644 0 0 0 -0.008,-0.006 c -0.29653,-3.23695 -0.83841,-6.01245 -2.34766,-8.4961 -1.54266,-2.53865 -3.86123,-4.43275 -6.97851,-6.38476 v 0.002 l -0.10547,-0.0664 a 0.52495644,0.52495644 0 0 0 -0.0371,-0.0234 l -0.10938,-0.0566 a 0.52495644,0.52495644 0 0 0 -0.002,0 c -4.73022,-2.44618 -10.64524,-1.7869 -15.26758,1.14453 -4.51328,2.8622 -6.85679,7.40642 -7.82031,14.2207 -0.43651,3.0873 -0.83075,4.0352 -1.82422,5.26367 -1.6153,1.99751 -2.62981,2.89595 -3.42773,3.31055 -0.81469,0.42331 -1.7497,0.61328 -3.90235,0.61328 -3.03826,0 -4.87,-0.7353 -6.2832,-2.0957 -1.40308,-1.35067 -2.52021,-3.60049 -3.0293,-7.19532 -0.69182,-4.88513 -2.38507,-9.03158 -5.24609,-12.02539 -2.8687,-3.00184 -6.88511,-4.62304 -11.25586,-4.62304 -3.07724,0 -5.74911,0.84013 -8.42578,2.61523 -4.62168,3.06502 -6.9815,7.36351 -7.78906,13.79492 -0.31378,2.49892 -0.69033,4.09022 -1.33789,5.29492 -0.64757,1.20471 -1.57637,2.07302 -3.12305,3.13282 -0.631101,0.43245 -2.405411,1.06108 -4.09961,1.22461 -0.845057,0.0816 -1.708275,0.0564 -2.435547,-0.0293 -0.727271,-0.0857 -1.333781,-0.2456 -1.585937,-0.36328 -2.286273,-1.06696 -3.712759,-2.53391 -4.945313,-5.32031 -0.282915,-0.63959 -0.338557,-0.72958 -0.466797,-1.56446 -0.124553,-0.81087 -0.232575,-2.28353 -0.271484,-4.85742 -0.07785,-5.14974 0.08434,-14.6724 0.421875,-32.96484 0.233408,-12.64918 0.427176,-19.28439 0.626953,-26.72266 3.369387,7.76415 9.706343,13.96958 17.98633,14.03906 a 0.52495644,0.52495644 0 0 0 0.002,0 c 2.58583,0.0204 5.10201,-0.85154 7.48047,-1.95898 5.30253,-2.46898 9.36312,-7.59879 11.8125,-14.00195 1.17527,-3.07239 1.79394,-6.89527 1.9082,-10.77344 0.14714,4.14721 0.95784,8.19868 2.38282,11.85547 3.22727,8.28188 9.80695,15.07172 18.48242,15.14453 a 0.52495644,0.52495644 0 0 0 0.002,0 c 2.58583,0.0204 5.10201,-0.85154 7.48047,-1.95899 5.30252,-2.46898 9.36314,-7.59879 11.8125,-14.00195 2.41739,-6.3195 2.57181,-15.782403 0.53906,-22.468749 -1.58163,-5.202538 -4.50525,-9.673078 -8.16211,-12.841797 -3.65788,-3.169601 -8.18942,-5.127183 -12.87109,-4.589843 -7.33206,0.84156 -13.04658,5.604178 -16.61719,13.234375 -2.05148,4.383917 -3.01387,9.081198 -3.0957,13.707031 -0.0544,-3.453391 -0.44269,-6.882191 -1.32227,-9.775391 -1.58163,-5.202542 -4.50525,-9.673077 -8.16211,-12.841797 -3.65795,-3.169665 -8.19134,-5.127185 -12.87304,-4.589843 -4.24969,0.487772 -7.938065,2.332527 -10.996098,5.251953 C 96.97435,70.330997 102.02497,64.220497 108.23438,59.470703 119.2347,51.056171 133.575,46.697232 147.83789,46.53125 Z m -42.65234,32.919922 c 2.17019,-0.249083 4.89048,0.69688 7.44922,2.914062 2.55733,2.215977 4.83727,5.62425 6.03515,9.564453 0.66208,2.177787 0.94959,5.733094 0.86719,9.193363 -0.0824,3.46026 -0.54126,6.86446 -1.24609,8.70703 -1.95425,5.10879 -5.13558,8.69864 -8.20313,10.12695 -0.71558,0.33319 -1.82233,0.67297 -2.75586,0.91602 -0.46676,0.12152 -0.89298,0.22088 -1.21094,0.28906 -0.15898,0.0341 -0.29098,0.0592 -0.38476,0.0762 -0.092,0.0166 -0.20167,0.0189 -0.0977,0.0195 -4.96025,-0.0416 -9.425342,-4.11733 -11.972654,-10.65429 -2.544031,-6.52854 -2.750407,-15.029383 0.480468,-21.933598 1.461749,-3.123684 2.992653,-5.282927 4.75586,-6.728516 1.763206,-1.445589 3.769146,-2.201675 6.283206,-2.490234 z m 42.06836,0.265625 c 2.17019,-0.249082 4.89048,0.696881 7.44921,2.914062 2.55745,2.216073 4.83732,5.622349 6.03516,9.5625 0.66208,2.177793 0.94958,5.733095 0.86719,9.193361 -0.0824,3.46026 -0.54126,6.86446 -1.2461,8.70703 -1.9543,5.10894 -5.13385,8.70069 -8.20117,10.12891 -0.7155,0.33314 -1.82184,0.67296 -2.75586,0.91601 -0.467,0.12153 -0.89474,0.22088 -1.21289,0.28906 -0.15907,0.0341 -0.29091,0.0592 -0.38476,0.0762 -0.0921,0.0166 -0.20163,0.0189 -0.0977,0.0195 -4.96024,-0.0416 -9.42534,-4.11734 -11.97266,-10.6543 -2.54402,-6.52855 -2.7504,-15.029372 0.48047,-21.933593 1.46175,-3.123679 2.99266,-5.282925 4.75586,-6.728516 1.76321,-1.44559 3.76915,-2.201676 6.28321,-2.490234 z" /></g></svg>
