<?xml version="1.0" encoding="UTF-8" standalone="no"?>
<!-- Created with Inkscape (http://www.inkscape.org/) -->

<svg
   width="250mm"
   height="250mm"
   viewBox="0 0 250 250"
   version="1.1"
   id="svg1"
   xml:space="preserve"
   inkscape:version="1.4.2 (f4327f4, 2025-05-13)"
   sodipodi:docname="PackmanGhost.svg"
   inkscape:export-filename="PackmanGhost_8.mm.svg"
   inkscape:export-xdpi="96"
   inkscape:export-ydpi="96"
   xmlns:inkscape="http://www.inkscape.org/namespaces/inkscape"
   xmlns:sodipodi="http://sodipodi.sourceforge.net/DTD/sodipodi-0.dtd"
   xmlns="http://www.w3.org/2000/svg"
   xmlns:svg="http://www.w3.org/2000/svg"><sodipodi:namedview
     id="namedview1"
     pagecolor="#ffffff"
     bordercolor="#000000"
     borderopacity="0.25"
     inkscape:showpageshadow="2"
     inkscape:pageopacity="0.0"
     inkscape:pagecheckerboard="0"
     inkscape:deskcolor="#d1d1d1"
     inkscape:document-units="mm"
     showgrid="true"
     inkscape:zoom="0.25990635"
     inkscape:cx="963.80868"
     inkscape:cy="842.61118"
     inkscape:window-width="1971"
     inkscape:window-height="1250"
     inkscape:window-x="430"
     inkscape:window-y="114"
     inkscape:window-maximized="0"
     inkscape:current-layer="layer1"><inkscape:grid
       id="grid2"
       units="mm"
       originx="0"
       originy="0"
       spacingx="0.99999999"
       spacingy="0.99999999"
       empcolor="#0099e5"
       empopacity="0.30196078"
       color="#0099e5"
       opacity="0.14901961"
       empspacing="10"
       enabled="true"
       visible="true" /><inkscape:page
       x="0"
       y="0"
       width="250"
       height="250"
       id="page2"
       margin="0"
       bleed="0" /></sodipodi:namedview><defs
     id="defs1" /><g
     inkscape:label="Ebene 1"
     inkscape:groupmode="layer"
     id="layer1"><path
       id="path3-4-6-2-5"
       style="baseline-shift:baseline;display:inline;overflow:visible;vector-effect:none;fill:#dcb800;fill-opacity:0.668235;enable-background:accumulate;stop-color:#000000"
       sodipodi:type="inkscape:offset"
       inkscape:radius="0.4459109"
       inkscape:original="M 149.59766 54.318359 C 134.06409 54.499129 118.40705 59.193156 106.10742 68.601562 C 93.807796 78.009982 84.955078 92.239376 83.330078 110.85352 L 83.324219 110.90234 L 83.322266 110.95117 C 83.114876 114.73571 82.662164 134.33089 82.277344 155.18555 C 81.939764 173.48083 81.775752 182.96447 81.857422 188.36719 C 81.898222 191.06855 81.992512 192.76072 82.201172 194.11914 C 82.409832 195.47756 82.798854 196.5329 83.152344 197.33203 C 84.878724 201.23482 87.652388 204.22132 91.304688 205.92578 C 93.605307 206.99945 96.161991 207.14661 98.712891 206.90039 C 101.26379 206.65417 103.77735 205.9985 105.87305 204.5625 C 110.11982 201.65259 112.3787 197.47691 113.12109 191.56445 C 113.82324 185.9725 114.50953 184.73655 118.04102 182.39453 C 120.12926 181.00966 120.5958 180.86719 122.86133 180.86719 C 125.72849 180.86719 127.74523 181.74067 129.40039 183.47266 C 131.05555 185.20464 132.34854 187.97993 132.9043 191.9043 C 133.54754 196.44645 135.11186 200.23432 137.86719 202.88672 C 140.62251 205.53912 144.43382 206.80664 148.67578 206.80664 C 151.26201 206.80664 153.5152 206.53298 155.58594 205.45703 C 157.65667 204.38108 159.25435 202.71623 161.07812 200.46094 C 162.84503 198.27603 163.78016 195.6209 164.29102 192.00781 C 165.14261 185.98509 166.05864 184.34104 169.14648 182.38281 C 171.76334 180.72324 175.84259 180.51388 177.84766 181.50391 C 180.46466 183.15988 181.80728 184.38439 182.57422 185.64648 C 183.35859 186.93727 183.77147 188.58166 184.0293 191.52539 L 184.03711 191.60938 L 184.04883 191.69336 C 184.9083 197.63875 186.9423 201.51145 190.88281 204.24219 C 199.01373 209.87697 210.0063 206.48671 214.08008 197.27734 C 214.4338 196.47771 214.81117 195.40237 215.00977 194.01758 C 215.20836 192.63279 215.30059 190.88064 215.33789 188.07812 C 215.41249 182.4731 215.24409 172.63394 214.89844 153.8125 C 214.50081 132.15739 213.65874 111.67866 213.50781 108.20117 C 212.72837 90.243392 204.46069 76.449588 192.5332 67.457031 C 180.60572 58.464471 165.13122 54.137589 149.59766 54.318359 z M 149.66797 60.316406 C 164.0336 60.149226 178.25654 64.20706 188.92188 72.248047 C 199.58722 80.289037 206.80697 92.177668 207.51367 108.46094 C 207.66217 111.88231 208.50239 132.35458 208.89844 153.92383 C 209.244 172.74228 209.40961 182.61181 209.33789 188 C 209.30199 190.6941 209.20027 192.25982 209.07031 193.16602 C 208.94035 194.07221 208.85268 194.25985 208.5918 194.84961 C 205.82198 201.11118 199.58604 202.97327 194.30078 199.31055 C 191.40138 197.30129 190.74806 196.10323 189.98633 190.83398 L 190.00586 191.00195 C 189.7168 187.70165 189.18283 184.96755 187.70117 182.5293 C 186.21952 180.09105 183.97761 178.24945 180.89062 176.31641 L 180.78711 176.25195 L 180.67773 176.19531 C 176.1415 173.84945 170.4125 174.47471 165.93164 177.31641 C 161.55888 180.0895 159.30141 184.43659 158.34961 191.16797 C 157.90852 194.28764 157.45369 195.40192 156.41406 196.6875 C 154.7802 198.70793 153.72778 199.6613 152.82031 200.13281 C 151.91285 200.60433 150.86083 200.80664 148.67578 200.80664 C 145.5495 200.80664 143.54168 200.02034 142.0293 198.56445 C 140.51691 197.10856 139.36355 194.7349 138.84375 191.06445 C 138.16281 186.25618 136.50338 182.22156 133.73828 179.32812 C 130.97318 176.4347 127.10275 174.86719 122.86133 174.86719 C 119.87768 174.86719 117.3342 175.66521 114.72656 177.39453 C 110.22176 180.38203 107.96372 184.47904 107.16797 190.81641 C 106.53448 195.86155 105.63653 197.45012 102.48242 199.61133 C 101.6971 200.14945 99.914899 200.7561 98.136719 200.92773 C 96.358549 201.09937 94.552537 200.81997 93.841797 200.48828 C 91.459117 199.37633 89.906032 197.76939 88.638672 194.9043 C 88.356322 194.266 88.264723 194.06585 88.132812 193.20703 C 88.000893 192.34821 87.894559 190.86063 87.855469 188.27539 C 87.777269 183.10492 87.939764 173.58761 88.277344 155.29492 C 88.535864 141.28466 88.750436 134.09157 88.972656 125.69727 C 89.146366 126.21466 89.225825 126.78204 89.421875 127.28516 C 92.597015 135.43326 99.016696 142.02518 107.41992 142.0957 L 107.42188 142.0957 C 109.88602 142.1151 112.33281 141.27738 114.67773 140.18555 C 119.82045 137.79098 123.80711 132.78225 126.2207 126.47266 C 128.5771 120.31257 128.73772 110.8884 126.74805 104.34375 C 125.19449 99.23354 122.32084 94.845354 118.74414 91.746094 C 115.16744 88.646844 110.77513 86.76479 106.27539 87.28125 C 100.95263 87.89219 96.524227 90.615719 93.154297 95.068359 C 96.772937 86.073689 102.56227 78.866818 109.75195 73.367188 C 120.85748 64.872191 135.30234 60.483576 149.66797 60.316406 z M 148.3457 87.544922 C 141.20423 88.364612 135.65825 92.967659 132.14258 100.48047 C 128.02495 109.27964 128.3151 119.40268 131.49023 127.55078 C 134.66537 135.69888 141.08505 142.29081 149.48828 142.36133 L 149.49023 142.36133 C 151.95438 142.38073 154.40117 141.54105 156.74609 140.44922 C 161.88881 138.05465 165.87547 133.04592 168.28906 126.73633 C 170.64546 120.57625 170.80608 111.15402 168.81641 104.60938 C 167.26284 99.499165 164.3892 95.110979 160.8125 92.011719 C 157.2358 88.912459 152.84544 87.028462 148.3457 87.544922 z M 106.96094 93.242188 C 109.32672 92.970647 112.1731 93.99248 114.81445 96.28125 C 117.4558 98.57001 119.78072 102.05352 121.00781 106.08984 C 122.39788 110.66221 122.12241 120.39317 120.61719 124.32812 C 118.62478 129.53668 115.38811 133.23581 112.14453 134.74609 C 110.59058 135.46964 107.67174 136.09679 107.4707 136.0957 C 102.81897 136.0567 98.745044 132.56145 96.052734 127.14844 C 97.096374 127.45336 98.193962 127.60352 99.320312 127.60352 L 99.355469 127.60352 L 99.390625 127.60352 C 106.24009 127.4419 110.77185 121.11674 110.43164 114.80469 C 110.39104 109.20197 107.65294 105.5195 104.85742 103.87305 C 102.04104 102.21431 99.488386 102.23438 99.134766 102.23438 C 97.891696 102.23438 96.671752 102.38087 95.482422 102.83789 C 95.493922 102.81299 95.496112 102.78457 95.507812 102.75977 C 98.471703 96.426076 101.78631 93.836118 106.96094 93.242188 z M 149.0293 93.505859 C 151.39508 93.234329 154.24146 94.256162 156.88281 96.544922 C 159.52416 98.833692 161.84908 102.31719 163.07617 106.35352 C 164.46624 110.92589 164.19077 120.65881 162.68555 124.59375 C 160.69314 129.8023 157.45843 133.49948 154.21484 135.00977 C 152.66089 135.73331 149.7401 136.36241 149.53906 136.36133 C 144.88791 136.32233 140.81539 132.8259 138.12305 127.41406 C 139.16614 127.71861 140.263 127.86719 141.38867 127.86719 L 141.42383 127.86719 L 141.45898 127.86719 C 148.30553 127.70564 152.83591 121.38554 152.5 115.07617 C 152.4621 109.46873 149.72269 105.78595 146.92578 104.13867 C 144.1094 102.47993 141.55673 102.5 141.20312 102.5 C 139.9601 102.5 138.74008 102.64458 137.55078 103.10156 C 137.56228 103.07666 137.56457 103.04824 137.57617 103.02344 C 140.54006 96.689757 143.85467 94.099789 149.0293 93.505859 z M 99.134766 108.23438 C 98.900146 108.23436 100.50328 108.27188 101.8125 109.04297 C 103.12172 109.81405 104.44531 110.94422 104.44531 114.91992 L 104.44531 115.00781 L 104.45117 115.0957 C 104.64425 118.36203 102.39954 121.4939 99.285156 121.59375 C 98.215096 121.58145 96.996994 121.12614 96.677734 120.875 C 93.714644 118.54423 93.315314 112.6606 96.089844 109.71875 C 96.964294 108.79155 97.383358 108.49755 97.580078 108.40625 C 97.776808 108.31495 98.061516 108.23437 99.134766 108.23438 z M 141.20312 108.5 C 140.96855 108.5 142.57164 108.5375 143.88086 109.30859 C 145.19008 110.07967 146.51367 111.20789 146.51367 115.18359 L 146.51367 115.27148 L 146.51953 115.36133 C 146.71256 118.62696 144.47077 121.75824 141.35742 121.85938 C 140.2861 121.84847 139.06585 121.3902 138.74609 121.13867 C 135.783 118.8079 135.38368 112.92622 138.1582 109.98438 C 139.03265 109.05716 139.45171 108.76318 139.64844 108.67188 C 139.84516 108.58057 140.12987 108.5 141.20312 108.5 z "
       d="m 149.5918,53.873047 c -15.6199,0.181775 -31.36804,4.899129 -43.75586,14.375 -12.389944,9.477507 -21.313731,23.832096 -22.949221,42.566403 v -0.0137 l -0.0059,0.0488 a 0.44595549,0.44595549 0 0 0 -0.002,0.0352 l -0.002,0.0488 c -0.210087,3.83677 -0.660129,23.39095 -1.044922,44.24414 -0.337583,18.29546 -0.501847,27.77569 -0.419922,33.19532 0.04091,2.70892 0.13362,4.42103 0.347657,5.81445 0.216025,1.40637 0.621093,2.50295 0.984375,3.32422 1.763814,3.98742 4.61631,7.06607 8.371093,8.81836 2.401194,1.1206 5.044451,1.26426 7.640625,1.01367 2.598371,-0.2508 5.188501,-0.91986 7.369141,-2.41406 4.35003,-2.98067 6.68637,-7.3129 7.43945,-13.31055 0.34935,-2.78218 0.69498,-4.43503 1.34766,-5.64648 0.65268,-1.21146 1.62828,-2.04864 3.375,-3.20704 2.07448,-1.37574 2.32738,-1.45312 4.57422,-1.45312 2.77659,0 4.6349,0.81342 6.21679,2.46875 1.57092,1.64383 2.83838,4.32735 3.38477,8.18555 0.65249,4.60745 2.24831,8.49921 5.0957,11.24023 2.8522,2.74566 6.7864,4.04492 11.11719,4.04492 2.61769,0 4.95451,-0.27573 7.11524,-1.39843 2.15445,-1.11946 3.79839,-2.84046 5.63476,-5.11133 1.82961,-2.26244 2.78946,-5.01408 3.30664,-8.67188 0.42348,-2.99498 0.86462,-4.86699 1.54492,-6.19531 0.68031,-1.32832 1.59433,-2.15567 3.10743,-3.11523 1.22709,-0.77821 2.84112,-1.2343 4.3789,-1.36524 1.53158,-0.13041 2.98825,0.0731 3.87305,0.50586 2.5677,1.62815 3.8464,2.80974 4.55664,3.97852 0.73315,1.2065 1.1371,2.76865 1.39258,5.68554 a 0.44595549,0.44595549 0 0 0 0,0.002 l 0.008,0.084 a 0.44595549,0.44595549 0 0 0 0.002,0.0215 l 0.0117,0.084 a 0.44595549,0.44595549 0 0 0 0,0.002 c 0.8698,6.01685 2.9778,10.04932 7.02149,12.85156 8.35439,5.78965 19.68192,2.2914 23.85937,-7.15234 0.36609,-0.82758 0.75763,-1.9457 0.96289,-3.37695 0.20334,-1.41791 0.29464,-3.18627 0.33203,-5.9961 0.0748,-5.62089 -0.0938,-15.45766 -0.43945,-34.27929 -0.39775,-21.66151 -1.23952,-42.14157 -1.39063,-45.62305 C 213.16819,90.097268 204.8242,76.166446 192.80078,67.101562 180.78017,58.038786 165.21159,53.691273 149.5918,53.873047 Z m 0.082,6.888672 c 14.27825,-0.166163 28.40971,3.872119 38.98047,11.841797 10.57388,7.972033 17.71266,19.715723 18.41406,35.876954 0.14832,3.41718 0.98883,23.88832 1.38476,45.45117 0.34556,18.8182 0.51096,28.69069 0.43946,34.0625 -0.0358,2.68518 -0.13932,4.24226 -0.26367,5.10938 -0.12719,0.88685 -0.18364,0.97484 -0.44532,1.5664 -1.34144,3.03252 -3.49515,4.95636 -5.92578,5.70508 -2.43062,0.74872 -5.15705,0.3328 -7.70312,-1.43164 -1.42849,-0.98993 -2.23777,-1.72468 -2.81641,-2.85156 -0.57863,-1.12688 -0.93158,-2.70077 -1.31055,-5.32227 a 0.44595549,0.44595549 0 0 0 -0.01,-0.008 c -0.29605,-3.23265 -0.83545,-5.99561 -2.33594,-8.46485 -1.53357,-2.52368 -3.84242,-4.40831 -6.95508,-6.35742 a 0.44595549,0.44595549 0 0 0 0,-0.002 l -0.10351,-0.0644 a 0.44595549,0.44595549 0 0 0 -0.0312,-0.0176 l -0.10938,-0.0566 c -4.70101,-2.43108 -10.5884,-1.7773 -15.18945,1.14062 -4.49213,2.8488 -6.8234,7.36421 -7.78516,14.16602 -0.4372,3.09217 -0.8414,4.06371 -1.84179,5.30078 -1.61812,2.00096 -2.63676,2.90692 -3.45118,3.33008 -0.82864,0.43057 -1.78192,0.625 -3.93945,0.625 -3.05151,0 -4.90978,-0.74242 -6.33789,-2.11719 -1.41953,-1.3665 -2.54203,-3.63598 -3.05273,-7.24219 -0.69019,-4.87356 -2.37803,-9.00372 -5.22461,-11.98242 -2.85312,-2.98552 -6.84794,-4.59766 -11.19922,-4.59766 -3.06316,0 -5.71458,0.83336 -8.38086,2.60157 -4.60409,3.05335 -6.95008,7.32102 -7.75586,13.73828 -0.31422,2.50247 -0.69254,4.10396 -1.34766,5.32226 -0.65511,1.21831 -1.59517,2.0972 -3.14648,3.16016 -0.65473,0.44864 -2.430198,1.07552 -4.13672,1.24023 -0.851682,0.0822 -1.720534,0.0551 -2.453125,-0.0312 -0.732591,-0.0863 -1.341685,-0.24421 -1.609375,-0.36914 -2.300782,-1.07373 -3.746582,-2.56112 -4.984375,-5.35937 -0.282833,-0.63939 -0.34387,-0.74746 -0.472656,-1.58594 -0.125647,-0.81799 -0.234493,-2.29354 -0.273438,-4.86914 -0.07793,-5.15286 0.0843,-14.67432 0.421875,-32.9668 0.236464,-12.81496 0.434275,-19.52692 0.636719,-27.07226 3.323173,7.89413 9.702307,14.24044 18.056645,14.31055 a 0.44595549,0.44595549 0 0 0 0.002,0 c 2.56752,0.0202 5.07386,-0.84609 7.44726,-1.95118 5.27849,-2.45778 9.32749,-7.56795 11.77149,-13.95703 2.4082,-6.29552 2.56337,-15.75295 0.53711,-22.41797 -1.57741,-5.188646 -4.49192,-9.64837 -8.13672,-12.806637 -3.64572,-3.159059 -8.15818,-5.104514 -12.8125,-4.570312 -4.5231,0.519155 -8.385117,2.615631 -11.544923,5.884765 3.609832,-7.751248 8.898143,-14.071486 15.343753,-19.001953 11.01619,-8.426658 25.37208,-12.79283 39.65039,-12.958984 z m 0.35742,26.253906 c -0.57587,-0.0083 -1.15452,0.01916 -1.73633,0.08594 -7.30337,0.838273 -12.9943,5.576917 -16.55664,13.189458 -4.17668,8.92536 -3.88122,19.16591 -0.66406,27.42187 3.21943,8.26175 9.77566,15.02129 18.41015,15.09375 a 0.44595549,0.44595549 0 0 0 0.002,0 c 2.56776,0.0202 5.07405,-0.84812 7.44726,-1.95312 5.27849,-2.45779 9.32749,-7.56796 11.77149,-13.95704 2.40819,-6.29548 2.56336,-15.75103 0.53711,-22.41601 -1.57742,-5.188655 -4.49192,-9.648375 -8.13672,-12.806642 -3.18989,-2.764087 -7.0431,-4.600025 -11.07422,-4.658203 z m -43.01953,6.669922 c 2.19962,-0.25247 4.93859,0.705635 7.50976,2.933594 2.56999,2.226924 4.85829,5.644939 6.06055,9.599609 0.66705,2.19412 0.95362,5.7535 0.8711,9.21875 -0.0825,3.46525 -0.53993,6.86908 -1.25196,8.73047 -1.96,5.12385 -5.15024,8.73324 -8.24414,10.17383 -0.72482,0.33749 -1.83366,0.67626 -2.76953,0.91992 -0.46793,0.12183 -0.89369,0.22061 -1.21289,0.28906 -0.1596,0.0342 -0.29364,0.0609 -0.38867,0.0781 -0.0935,0.0169 -0.19682,0.0209 -0.11133,0.0215 -4.16911,-0.0349 -7.868076,-3.06877 -10.500001,-7.85156 0.766424,0.14838 1.546006,0.25 2.345703,0.25 h 0.03516 0.03516 a 0.44595549,0.44595549 0 0 0 0.0098,0 c 7.112009,-0.16782 11.818639,-6.71401 11.476559,-13.24805 v -0.008 c -0.0442,-5.74207 -2.85802,-9.57612 -5.79297,-11.30469 -2.91925,-1.71933 -5.612466,-1.69922 -5.949214,-1.69922 -0.926419,0 -1.849658,0.13209 -2.767579,0.35938 1.332626,-2.646426 2.722228,-4.644867 4.320313,-5.955081 1.77566,-1.4558 3.79914,-2.21799 6.32422,-2.507812 z m 42.06836,0.263672 c 2.19962,-0.25246 4.93859,0.705644 7.50976,2.933593 2.56999,2.226936 4.85828,5.644938 6.06055,9.599608 0.66704,2.1941 0.95362,5.75301 0.87109,9.21875 -0.0825,3.46574 -0.53993,6.87106 -1.25195,8.73242 -1.96003,5.1239 -5.1482,8.73125 -8.24219,10.17188 -0.72489,0.33752 -1.83314,0.67578 -2.76953,0.91992 -0.46819,0.12207 -0.89545,0.22239 -1.21484,0.29102 -0.1597,0.0343 -0.29359,0.0609 -0.38867,0.0781 -0.0935,0.017 -0.19713,0.0209 -0.11133,0.0215 -4.16846,-0.035 -7.86621,-3.06956 -10.49805,-7.85157 0.76606,0.1478 1.54479,0.24805 2.34375,0.24805 h 0.0352 0.0351 a 0.44595549,0.44595549 0 0 0 0.01,0 c 7.10899,-0.16774 11.81419,-6.70903 11.47656,-13.24023 v -0.008 c -0.0415,-5.74683 -2.85673,-9.58121 -5.79297,-11.31054 -2.91925,-1.71933 -5.61248,-1.69922 -5.94922,-1.69922 -0.92657,0 -1.85095,0.13039 -2.76953,0.35742 1.33277,-2.646904 2.724,-4.644712 4.32227,-5.955079 1.77566,-1.455801 3.79914,-2.21799 6.32422,-2.507812 z M 99.097656,108.68359 c 0.03037,0.003 0.06571,0.005 0.123047,0.0117 0.12927,0.0146 0.335612,0.0419 0.587891,0.0918 0.504556,0.0997 1.188586,0.29386 1.777346,0.64062 0.62914,0.37055 1.20126,0.78179 1.64648,1.57032 0.44523,0.78853 0.76758,1.98351 0.76758,3.92187 v 0.0879 a 0.44595549,0.44595549 0 0 0 0,0.0293 l 0.006,0.0879 c 0.17781,3.04122 -1.90823,5.92441 -4.72461,6.02148 -0.47143,-0.007 -1.007839,-0.11198 -1.451172,-0.24804 -0.446331,-0.13698 -0.830999,-0.3369 -0.876953,-0.37305 -1.345891,-1.05868 -2.157794,-2.99561 -2.275391,-5.02539 -0.117596,-2.02978 0.458196,-4.1194 1.736328,-5.47461 0.857943,-0.9097 1.26902,-1.17563 1.353516,-1.21484 0.134829,-0.0626 0.353271,-0.12352 1.330078,-0.12696 z m 42.068364,0.26563 c 0.0304,0.003 0.0657,0.005 0.12304,0.0117 0.12928,0.0146 0.33562,0.0419 0.58789,0.0918 0.50456,0.0997 1.18859,0.29387 1.77735,0.64063 0.62928,0.37062 1.20131,0.78231 1.64648,1.57031 0.44517,0.788 0.76758,1.98156 0.76758,3.91992 v 0.0879 a 0.44595549,0.44595549 0 0 0 0,0.0293 l 0.006,0.0898 c 0.17777,3.04072 -1.90532,5.92323 -4.7207,6.02148 -0.47196,-0.006 -1.00857,-0.11321 -1.45313,-0.25 -0.44698,-0.13754 -0.83224,-0.33634 -0.87891,-0.37305 -1.34593,-1.05871 -2.15779,-2.99417 -2.27539,-5.02343 -0.11759,-2.02927 0.45817,-4.11937 1.73633,-5.47461 0.85794,-0.90972 1.269,-1.17562 1.35352,-1.21485 0.13478,-0.0626 0.35326,-0.1235 1.33008,-0.12695 z"
       transform="translate(0.40625114,6.023438)" /></g></svg>
