<?xml version="1.0" encoding="UTF-8" standalone="no"?>
<!-- Created with Inkscape (http://www.inkscape.org/) -->

<svg
   width="250mm"
   height="250mm"
   viewBox="0 0 250 250"
   version="1.1"
   id="svg1"
   xml:space="preserve"
   inkscape:version="1.4.2 (f4327f4, 2025-05-13)"
   sodipodi:docname="PackmanGhost.svg"
   xmlns:inkscape="http://www.inkscape.org/namespaces/inkscape"
   xmlns:sodipodi="http://sodipodi.sourceforge.net/DTD/sodipodi-0.dtd"
   xmlns="http://www.w3.org/2000/svg"
   xmlns:svg="http://www.w3.org/2000/svg"><sodipodi:namedview
     id="namedview1"
     pagecolor="#ffffff"
     bordercolor="#000000"
     borderopacity="0.25"
     inkscape:showpageshadow="2"
     inkscape:pageopacity="0.0"
     inkscape:pagecheckerboard="0"
     inkscape:deskcolor="#d1d1d1"
     inkscape:document-units="mm"
     showgrid="true"
     inkscape:zoom="0.51981271"
     inkscape:cx="1228.327"
     inkscape:cy="840.68741"
     inkscape:window-width="1971"
     inkscape:window-height="1250"
     inkscape:window-x="425"
     inkscape:window-y="109"
     inkscape:window-maximized="0"
     inkscape:current-layer="layer1"><inkscape:grid
       id="grid2"
       units="mm"
       originx="0"
       originy="0"
       spacingx="0.99999999"
       spacingy="0.99999999"
       empcolor="#0099e5"
       empopacity="0.30196078"
       color="#0099e5"
       opacity="0.14901961"
       empspacing="10"
       enabled="true"
       visible="true" /><inkscape:grid
       id="grid3"
       units="mm"
       originx="0"
       originy="0"
       spacingx="0.99999999"
       spacingy="0.99999999"
       empcolor="#0099e5"
       empopacity="0.30196078"
       color="#0099e5"
       opacity="0.14901961"
       empspacing="5"
       enabled="true"
       visible="true" /></sodipodi:namedview><defs
     id="defs1" /><g
     inkscape:label="Ebene 1"
     inkscape:groupmode="layer"
     id="layer1"><path
       style="fill:#000000"
       d="m 23.955033,180.61409 c -0.78814,-0.23134 -1.9771,-1.39104 -4.68711,-4.5718 -0.69978,-0.82133 -1.55016,-1.56305 -1.88974,-1.64828 -0.97367,-0.24438 -2.10746,0.51744 -5.1846,3.48362 -2.7492703,2.65013 -2.9018403,2.75448 -4.0274503,2.75448 -1.35784,0 -1.807,-0.38315 -2.49673,-2.1298 -0.42255,-1.07006 -0.47279,-2.68626 -0.55071,-17.71395 -0.0574,-11.06807 0.0112,-17.26831 0.20731,-18.74957 1.41946,-10.71995 9.6430103,-19.97254 20.2474803,-22.78111 3.42265,-0.90648 7.35977,-1.22217 10.66235,-0.85494 3.82808,0.42566 6.25164,1.13049 9.7044,2.82227 7.42477,3.63799 12.47238,9.85051 14.73217,18.1321 l 0.613673,2.24896 v 18.25625 c 0,17.72708 -0.0153,18.28692 -0.529173,19.31458 -0.29104,0.58208 -0.86281,1.21664 -1.27059,1.41013 -1.25114,0.59363 -2.17128,0.0308 -5.34647,-3.27054 -2.10725,-2.19093 -3.09237,-3.03438 -3.54404,-3.03438 -0.44901,0 -1.41826,0.81927 -3.43431,2.90289 -4.66559,4.82196 -5.38183,4.85157 -9.68792,0.40054 -1.90646,-1.97062 -3.17875,-3.07351 -3.6883,-3.1972 -1.21076,-0.29392 -2.42623,0.55264 -4.36795,3.04222 -0.95333,1.22233 -2.03099,2.43357 -2.39479,2.69165 -0.85304,0.60514 -2.03562,0.79477 -3.0675,0.49188 z m -12.44921,-3.10393 c 5.23252,-5.0539 5.77267,-5.09483 9.43129,-0.71451 3.08208,3.69005 4.31951,4.12287 6.18638,2.16382 0.59931,-0.62891 1.72384,-1.94847 2.49894,-2.93237 1.59906,-2.02979 2.75452,-2.68322 4.25589,-2.40677 0.76545,0.14095 1.5438,0.78595 4.01688,3.32872 2.6602,2.73515 3.18009,3.15389 3.91574,3.15389 1.35322,0 2.1858,-0.59995 4.9112,-3.53899 1.40912,-1.51956 2.84318,-2.8334 3.1868,-2.91965 1.13381,-0.28456 2.0838,0.35994 5.05033,3.4263 3.07425,3.1777 3.79236,3.57357 4.66082,2.56932 0.96224,-1.11267 1.00453,-1.93891 1.00418,-19.61865 l -3.5e-4,-17.35687 -0.6415,-2.64583 c -2.05723,-8.48482 -7.16997,-14.75457 -15.09107,-18.50617 -4.9411,-2.34021 -10.30719,-3.04678 -16.28975,-2.14492 -7.32173,1.10374 -14.11842,5.48568 -18.3175,11.8096 -1.7316103,2.60785 -2.5672203,4.38878 -3.5725703,7.6142 l -0.71242,2.28562 -0.0839,17.68335 c -0.0731,15.41021 -0.0308,17.86595 0.32906,19.10381 0.42088,1.44779 1.15557,2.23888 2.07926,2.23888 0.27382,0 1.7058403,-1.16675 3.1822703,-2.59278 z m 13.05679,-25.83467 c -5.68257,-2.02702 -7.32087,-9.12698 -3.08373,-13.36412 3.33065,-3.33065 8.72328,-3.15465 11.84027,0.38643 0.58958,0.66981 1.2595,1.76821 1.48871,2.44091 0.54259,1.5924 0.53084,4.13865 -0.0267,5.77804 -0.60304,1.7733 -2.92365,4.0939 -4.69694,4.69694 -1.55684,0.52943 -4.12996,0.55823 -5.52164,0.0618 z m 5.16006,-0.82337 c 4.03202,-1.37384 5.97385,-6.27358 4.00896,-10.11563 -2.26125,-4.42151 -7.99674,-5.39406 -11.56017,-1.96022 -1.66939,1.60869 -2.15054,2.77172 -2.15581,5.21105 -0.004,1.86044 0.0915,2.29087 0.78917,3.55581 0.8126,1.47334 2.34134,2.78732 3.92005,3.36937 1.21034,0.44624 3.59553,0.41742 4.9978,-0.0604 z m -1.00193,-3.54927 c -0.83725,-0.3387 -1.92134,-1.76713 -2.11185,-2.78265 -0.33787,-1.80099 1.55447,-4.10476 3.37168,-4.10476 2.04775,0 3.65456,1.57045 3.65456,3.57188 0,2.53912 -2.56161,4.26733 -4.91439,3.31553 z m 2.76133,-0.91444 c 0.84231,-0.43557 1.36129,-1.41624 1.36129,-2.57229 0,-1.08296 -1.49354,-2.60733 -2.55323,-2.60594 -1.92704,0.003 -3.41899,2.06019 -2.71903,3.75003 0.37612,0.90803 1.65227,1.80275 2.57342,1.80424 0.33465,5.5e-4 0.93655,-0.16867 1.33755,-0.37604 z m 15.59074,5.17161 c -1.99986,-0.80713 -3.26893,-1.98737 -4.22485,-3.92911 -1.10581,-2.24624 -1.18737,-4.7063 -0.22842,-6.89006 0.85281,-1.94205 3.02846,-3.89138 4.97464,-4.45715 5.3799,-1.56398 10.44736,2.15309 10.48278,7.6893 0.0199,3.117 -1.47587,5.7223 -4.10792,7.15484 -1.8589,1.01174 -4.97621,1.2071 -6.89623,0.43218 z m 5.87888,-0.84661 c 1.55227,-0.70184 2.79227,-1.90987 3.64507,-3.55109 0.83839,-1.61349 0.93949,-4.40517 0.21864,-6.03713 -0.72781,-1.6477 -2.41628,-3.27098 -4.03061,-3.87498 -5.0537,-1.89083 -10.0113,1.52437 -9.97182,6.8694 0.015,2.02971 0.50693,3.29065 1.87651,4.80991 2.01643,2.23682 5.56562,3.00312 8.26221,1.78389 z m -1.77309,-3.65696 c -2.42626,-1.52439 -2.12013,-5.33174 0.50917,-6.33246 3.64307,-1.38657 6.48546,3.18799 3.66176,5.89327 -1.05427,1.01005 -2.9454,1.20919 -4.17093,0.43919 z m 3.10131,-0.69062 c 2.52113,-1.30373 1.40081,-5.15664 -1.49942,-5.15664 -0.4154,0 -1.02182,0.34636 -1.57505,0.89959 -0.71532,0.71532 -0.89838,1.10822 -0.8937,1.91822 0.0123,2.13 2.04976,3.33087 3.96817,2.33883 z"
       id="path1" /><path
       id="rect1"
       style="fill:#ff0000;fill-opacity:0.581656;stroke:none;stroke-width:0.272622"
       d="m 97.999842,117.14138 a 28,27.358614 0 0 0 -27.989506,26.59889 c -0.0072,0.10995 -0.01033,0.22098 -0.01033,0.3328 v 0.42684 31.00018 c 0,2.77 2.229694,4.99969 4.999694,4.99969 h 46.000295 c 2.77,0 4.99969,-2.22969 4.99969,-4.99969 v -31.00018 -0.42684 c 0,-0.11182 -0.004,-0.22285 -0.0109,-0.3328 A 28,27.358614 0 0 0 97.999842,117.14138 Z" /><g
       style="fill:none"
       id="g3"
       transform="matrix(0.64967197,0,0,0.64967197,129.63957,153.64989)"><path
         id="Subtract"
         fill="#000000"
         fill-rule="evenodd"
         d="M 2.6785714,50 C 2.6785714,23.865071 23.865071,2.6785714 50,2.6785714 c 17.032286,0 31.959286,9.0007146 40.289286,22.4881426 0.497857,0.806429 0.655,1.777715 0.436428,2.7 -0.218571,0.922215 -0.795,1.719857 -1.601428,2.217072 L 56.807286,50 l 32.317,19.916214 c 0.806428,0.497215 1.382857,1.294857 1.601428,2.217357 0.218572,0.922143 0.06143,1.893572 -0.436428,2.7 C 81.959286,88.320714 67.032286,97.321429 50,97.321429 23.865071,97.321429 2.6785714,76.135 2.6785714,50 Z M 42.857143,35.714286 C 46.802,35.714286 50,32.516286 50,28.571429 c 0,-3.944858 -3.198,-7.142858 -7.142857,-7.142858 -3.944857,0 -7.142857,3.198 -7.142857,7.142858 0,3.944857 3.198,7.142857 7.142857,7.142857 z"
         clip-rule="evenodd"
         stroke-width="7.1429" /></g><path
       style="fill:#000000"
       d="m 174.32461,135.13525 c -1.15417,-0.53863 -1.98181,-1.41719 -2.55435,-2.71152 -0.48641,-1.09961 -0.49459,-1.64083 -0.23636,-15.63546 0.14712,-7.97302 0.32622,-15.56797 0.39799,-16.87766 0.50292,-9.176604 7.00354,-17.131319 16.15105,-19.763783 1.9086,-0.549255 2.66285,-0.609133 7.67292,-0.609133 5.02034,0 5.76006,0.059 7.66938,0.611681 8.77831,2.541019 15.07145,9.890269 16.00978,18.696524 0.13993,1.313191 0.37861,9.151121 0.5304,17.417621 0.26436,14.39699 0.25532,15.07672 -0.21485,16.13958 -1.30881,2.95876 -4.60373,3.96276 -7.16953,2.18465 -1.30811,-0.90651 -1.82222,-1.87595 -2.13227,-4.02071 -0.14445,-0.99926 -0.265,-1.9058 -0.26788,-2.01452 -0.01,-0.37589 -1.95253,-2.35151 -2.6842,-2.72987 -1.24661,-0.64465 -3.13568,-0.48577 -4.4982,0.37832 -1.42681,0.90485 -2.03402,2.05093 -2.37891,4.4901 -0.18206,1.28762 -0.4476,2.00849 -0.98434,2.67221 -1.32252,1.63543 -2.02705,2.0015 -3.85203,2.0015 -2.8183,0 -4.45146,-1.57215 -4.89631,-4.71341 -0.47303,-3.34017 -2.25846,-5.20847 -4.97744,-5.20847 -1.00389,0 -1.57944,0.18023 -2.47751,0.77581 -1.53691,1.01925 -2.10019,2.03891 -2.38666,4.32035 -0.26313,2.0956 -0.86672,3.19793 -2.28211,4.16776 -1.10197,0.75509 -3.28675,0.96597 -4.43857,0.42843 z m 7.97051,-25.14553 c 1.60385,-0.74679 2.98502,-2.41199 3.82765,-4.61479 0.73852,-1.93064 0.82174,-5.59406 0.17538,-7.720149 -1.06358,-3.498481 -3.9755,-6.021704 -6.60151,-5.720297 -2.35541,0.27035 -4.04973,1.645962 -5.28892,4.294059 -2.83876,6.066287 0.38569,14.340947 5.60543,14.384747 0.50932,0.004 1.53621,-0.27633 2.28197,-0.62357 z m -7.11037,-5.44395 c -1.73418,-1.36411 -1.90699,-4.30518 -0.34996,-5.956115 0.7338,-0.778061 1.05688,-0.928003 1.99958,-0.928003 0.9533,0 1.28065,0.15628 2.15157,1.027206 0.97357,0.973565 1.02721,1.113357 1.02721,2.676962 0,1.5636 -0.0536,1.70339 -1.02721,2.67696 -0.84933,0.84934 -1.20967,1.0272 -2.08098,1.0272 -0.64983,0 -1.30925,-0.20094 -1.72021,-0.52421 z M 200,110 c 5.99529,-2.79177 6.08754,-14.414445 0.13837,-17.431577 -2.28531,-1.158998 -4.09864,-0.856402 -6.10298,1.018424 -1.84163,1.722631 -2.71817,3.832536 -2.85856,6.880853 -0.21194,4.60168 1.52911,8.28067 4.57315,9.66348 1.43234,0.65066 2.65186,0.61302 4.25002,-0.13118 z m -7.26004,-5.73766 c -1.62411,-1.6241 -1.61294,-4.325272 0.0242,-5.854589 1.70137,-1.589322 4.24425,-0.647183 4.99233,1.849659 1.01864,3.39991 -2.67375,6.34771 -5.01654,4.00493 z"
       id="path3" /><path
       style="fill:#000000"
       d="m 177.1531,79.355562 c -2.03572,-0.619237 -3.84864,-2.304165 -4.60217,-4.277239 -0.4042,-1.058393 -0.43728,-2.742912 -0.35801,-18.230744 l 0.0873,-17.064598 0.70881,-2.434073 c 1.46527,-5.031804 3.55562,-8.541005 7.30696,-12.266638 6.27403,-6.231052 14.77005,-8.959593 23.33664,-7.494679 5.84223,0.99904 10.44553,3.390737 14.67981,7.627063 3.79439,3.796224 5.77438,7.191612 7.32985,12.569617 0.56368,1.948887 0.58019,2.428562 0.6623,19.242763 0.083,17.005081 0.0766,17.260286 -0.46637,18.41535 -1.23397,2.625144 -3.38371,4.012382 -6.21782,4.012382 -2.01962,0 -2.70823,-0.281325 -5.40983,-2.210127 -1.71122,-1.221729 -2.87655,-1.610616 -4.82634,-1.610616 -1.94664,0 -3.47563,0.568234 -5.37425,1.997284 -3.32028,2.499095 -6.62309,2.499601 -9.59195,0.0015 -2.54095,-2.138067 -5.88431,-2.60007 -8.6643,-1.197276 -0.87313,0.440582 -2.1617,1.211188 -2.8635,1.712457 -1.87156,1.336778 -3.90526,1.764847 -5.73717,1.207605 z m 4.82287,-3.664732 c 0.77936,-0.601272 2.12679,-1.424347 2.99428,-1.829055 1.37699,-0.6424 1.89643,-0.735834 4.09081,-0.735834 2.19438,0 2.71382,0.09343 4.09081,0.735834 0.86749,0.404708 2.20201,1.217818 2.96558,1.806911 1.41216,1.089477 2.86837,1.514031 4.10628,1.197173 0.33621,-0.08606 1.43038,-0.755594 2.4315,-1.487857 3.94718,-2.887153 8.87423,-3.144114 12.55426,-0.654743 3.14966,2.130599 3.35078,2.233681 4.35798,2.233681 1.46262,0 2.76502,-0.705303 3.58231,-1.939969 l 0.70399,-1.063517 0.0791,-14.571695 c 0.0795,-14.648395 -0.061,-18.059673 -0.87103,-21.147692 -0.64887,-2.473614 -1.95774,-5.370912 -3.37217,-7.464572 -1.68794,-2.498515 -5.39777,-6.069961 -7.76761,-7.477857 -3.75383,-2.230105 -8.32942,-3.484699 -12.70895,-3.484699 -11.53502,0 -21.3792,8.057906 -24.08107,19.711459 -0.44921,1.937508 -0.49075,3.471547 -0.49075,18.123958 0,14.782961 0.0356,16.072475 0.46585,16.859514 1.01123,1.849952 2.10992,2.487077 4.08049,2.366259 1.13337,-0.06949 1.61724,-0.27379 2.78836,-1.177299 z m 6.08591,-25.035934 c -4.24469,-1.38495 -6.46091,-5.551874 -5.22918,-9.831864 0.36791,-1.278408 0.73165,-1.843116 1.96272,-3.047183 3.08861,-3.020858 7.25444,-3.173717 10.55468,-0.387287 4.23463,3.575338 3.01365,10.787313 -2.1947,12.963503 -1.45733,0.60891 -3.73956,0.744599 -5.09352,0.302831 z m 4.83569,-3.066737 C 193.88029,46.980804 194.6971,45.975288 195,45 c 0.18498,-0.59559 0.17841,-0.594689 -0.48243,0.06615 -1.22668,1.226685 -3.50139,0.612984 -4.16129,-1.122689 -0.32532,-0.85566 0.1329,-2.299046 0.90057,-2.836739 0.81763,-0.572691 2.36577,-0.499624 3.19249,0.150675 0.82456,0.648601 0.88422,0.423143 0.18951,-0.716161 -1.39547,-2.288508 -4.32577,-3.131341 -6.77114,-1.947557 -3.7866,1.833062 -3.631,7.482043 0.25636,9.307293 1.34736,0.632631 3.46867,0.49362 4.7735,-0.312809 z m 16.37307,3.203721 c -2.52272,-0.648675 -4.58396,-2.384266 -5.55729,-4.679299 -0.66389,-1.5654 -0.60194,-4.424129 0.13206,-6.093432 1.5857,-3.606293 5.80754,-5.450394 9.5967,-4.191838 2.07254,0.688388 4.26735,2.951984 4.869,5.021605 1.08553,3.734086 -0.5698,7.594801 -3.96953,9.258136 -1.50533,0.736492 -3.71137,1.034417 -5.07094,0.684828 z m 3.54166,-2.819444 c 1.15805,-0.483865 2.08542,-1.300443 2.59994,-2.289337 0.53036,-1.019333 0.46575,-1.117686 -0.3254,-0.495363 -2.13025,1.675654 -5.03951,-0.832379 -3.75756,-3.239337 0.47721,-0.896004 1.05651,-1.221813 2.18869,-1.230962 0.71334,-0.0058 1.23413,0.172762 1.65364,0.566873 0.79443,0.746325 0.81908,0.156011 0.0409,-0.979649 -1.06846,-1.559324 -2.20133,-2.10918 -4.34554,-2.10918 -1.73562,0 -2.00735,0.07504 -2.9298,0.809087 -1.16243,0.925018 -2.20737,2.777204 -2.20737,3.912633 0,3.78575 3.73698,6.453078 7.08249,5.055235 z"
       id="path4" /></g></svg>
