<?xml version="1.0" encoding="UTF-8" standalone="no"?>
<!-- Created with Inkscape (http://www.inkscape.org/) -->

<svg
   width="500mm"
   height="250mm"
   viewBox="0 0 500 250"
   version="1.1"
   id="svg1"
   xml:space="preserve"
   inkscape:version="1.4.2 (f4327f4, 2025-05-13)"
   sodipodi:docname="PackmanGhostV2.svg"
   inkscape:export-filename="PackmanV2_2.svg"
   inkscape:export-xdpi="96"
   inkscape:export-ydpi="96"
   xmlns:inkscape="http://www.inkscape.org/namespaces/inkscape"
   xmlns:sodipodi="http://sodipodi.sourceforge.net/DTD/sodipodi-0.dtd"
   xmlns="http://www.w3.org/2000/svg"
   xmlns:svg="http://www.w3.org/2000/svg"><sodipodi:namedview
     id="namedview1"
     pagecolor="#ffffff"
     bordercolor="#000000"
     borderopacity="0.25"
     inkscape:showpageshadow="2"
     inkscape:pageopacity="0.0"
     inkscape:pagecheckerboard="0"
     inkscape:deskcolor="#d1d1d1"
     inkscape:document-units="mm"
     showgrid="true"
     inkscape:zoom="1.1602057"
     inkscape:cx="395.18853"
     inkscape:cy="504.65188"
     inkscape:window-width="3440"
     inkscape:window-height="1369"
     inkscape:window-x="2552"
     inkscape:window-y="-8"
     inkscape:window-maximized="1"
     inkscape:current-layer="layer1"><inkscape:grid
       id="grid2"
       units="mm"
       originx="0"
       originy="0"
       spacingx="0.99999999"
       spacingy="0.99999999"
       empcolor="#0099e5"
       empopacity="0.30196078"
       color="#0099e5"
       opacity="0.14901961"
       empspacing="10"
       enabled="true"
       visible="true" /><inkscape:page
       x="0"
       y="0"
       width="500"
       height="250"
       id="page2"
       margin="0"
       bleed="0" /></sodipodi:namedview><defs
     id="defs1" /><g
     inkscape:label="Ebene 1"
     inkscape:groupmode="layer"
     id="layer1"><path
       style="baseline-shift:baseline;display:inline;overflow:visible;opacity:1;vector-effect:none;enable-background:accumulate;stop-color:#000000;stop-opacity:1"
       d="m 286.48242,46.507812 c -16.15912,0.242516 -32.39229,5.574673 -45.02734,16.146485 -12.63505,10.571811 -21.55448,26.45579 -22.94727,47.109373 l -0.002,0.0234 v 0.0215 c -0.11638,2.1238 -0.0996,7.44695 -0.0762,15.16797 0.0235,7.72103 0.0703,17.60972 0.0703,28.02344 0,18.49143 -0.0692,28.24283 0.0234,33.85547 0.0463,2.80632 0.12558,4.58324 0.3125,6.02344 0.18692,1.44019 0.56178,2.63033 0.96289,3.53711 1.82723,4.13078 4.98691,6.83329 8.5039,8.4746 2.43311,1.1355 5.05268,1.27198 7.66797,1.01954 2.6153,-0.25244 5.18964,-0.91301 7.39453,-2.42383 4.33783,-2.9723 6.70947,-7.36292 7.46094,-13.34766 0.67495,-5.37528 2.56887,-7.57363 4.38477,-8.81055 1.8159,-1.23691 3.89357,-1.44921 4.85937,-1.44921 2.75264,0 4.61507,0.81597 6.17774,2.45117 1.56266,1.6352 2.82576,4.30555 3.37109,8.15625 0.65353,4.61479 2.25243,8.51938 5.11133,11.27148 2.8589,2.75211 6.81937,4.06055 11.1543,4.06055 5.85894,0 10.18672,-2.76857 12.58984,-6.05078 2.40312,-3.28222 3.19136,-6.85668 3.51953,-9.17774 0.84325,-5.96367 1.64814,-7.38311 4.62891,-9.27343 2.00974,-1.27455 5.6244,-1.87737 8.38672,-0.80664 2.76231,1.07073 5.18619,3.35618 5.73046,9.57031 l 0.008,0.0996 0.0156,0.0977 c 0.86762,6.00175 3.01765,10.09586 7.04492,12.88672 8.36807,5.79912 19.75506,2.28314 23.9375,-7.17187 0.34778,-0.78619 0.75708,-1.89558 0.9961,-3.31641 0.23902,-1.42082 0.38077,-3.20634 0.48828,-6.04687 C 353.44549,180.94784 353.5,171.00691 353.5,152 c 0,-10.79844 0.0444,-21.1812 0.0664,-29.30273 0.022,-8.12154 0.0379,-13.74971 -0.0703,-15.875 C 352.47249,86.713644 343.79135,71.289029 331.29883,61.199219 318.80631,51.109408 302.64154,46.265297 286.48242,46.507812 Z m 0.10547,7 c 14.68485,-0.220389 29.27218,4.219809 40.3125,13.136719 11.04032,8.91691 18.67136,22.221121 19.60352,40.533199 0.0673,1.32293 0.0844,7.38755 0.0625,15.5 -0.0219,8.11246 -0.0664,18.50489 -0.0664,29.32227 0,18.99309 -0.0588,28.95111 -0.26367,34.36328 -0.10242,2.70609 -0.24758,4.26523 -0.39649,5.15039 -0.1489,0.88516 -0.22731,1.04329 -0.49414,1.64649 -2.66115,6.01592 -8.50265,7.74838 -13.55078,4.25 -2.81264,-1.94914 -3.34993,-2.92187 -4.10351,-8.13477 l 0.0215,0.19531 c -0.71463,-8.15912 -5.0179,-13.48974 -10.17383,-15.48828 -5.15593,-1.99854 -10.64922,-1.12428 -14.66406,1.42188 -4.47984,2.84099 -6.8504,7.41465 -7.81055,14.20507 -0.23357,1.65197 -0.89544,4.18742 -2.23828,6.02149 -1.34284,1.83407 -3.05727,3.1875 -6.9414,3.1875 -3.03331,0 -4.89198,-0.74733 -6.30079,-2.10352 -1.4088,-1.35618 -2.52564,-3.61117 -3.03515,-7.20898 -0.69137,-4.88194 -2.38264,-9.02149 -5.24024,-12.01172 -2.85759,-2.99023 -6.88233,-4.61523 -11.23828,-4.61523 -1.8348,0 -5.34382,0.30933 -8.80078,2.66406 -3.45696,2.35473 -6.52162,6.81742 -7.38867,13.72265 -0.62441,4.97287 -1.4096,6.3465 -4.47266,8.44532 -0.67613,0.46329 -2.39755,1.06505 -4.11133,1.23047 -1.71377,0.16542 -3.45495,-0.12467 -4.0332,-0.39454 -2.51799,-1.1751 -3.89599,-2.32579 -5.0625,-4.96289 -0.23473,-0.53065 -0.30402,-0.68435 -0.42383,-1.60742 -0.1198,-0.92307 -0.20918,-2.52895 -0.2539,-5.23828 C 225.434,181.31963 225.5,171.50857 225.5,153 c 0,-10.43472 -0.0469,-20.33408 -0.0703,-28.04492 -0.0234,-7.69554 -0.006,-13.41903 0.0644,-14.73438 1.27901,-18.907233 9.20224,-32.783585 20.45313,-42.197263 11.25409,-9.416361 25.95577,-14.295235 40.64062,-14.515625 z m -38.92578,31.789063 c -7.30538,0.838499 -13.03796,5.607685 -16.59961,13.21875 -4.92022,10.514275 -3.78462,22.432685 0.98437,31.058595 2.3845,4.31295 5.7384,7.87534 9.98243,9.81836 4.24403,1.94302 9.38686,2.04672 14.30273,-0.24219 5.30098,-2.46826 9.35014,-7.58694 11.79883,-13.98828 2.42733,-6.34552 2.57675,-15.74217 0.53711,-22.45117 -1.58077,-5.1997 -4.49965,-9.66328 -8.1543,-12.830081 -3.65464,-3.1668 -8.174,-5.120851 -12.85156,-4.583984 z m 43.12695,0.263672 c -7.30538,0.838499 -13.03795,5.609628 -16.59961,13.220703 -4.92022,10.51427 -3.78462,22.43073 0.98438,31.05664 2.3845,4.31296 5.73839,7.87729 9.98242,9.82031 4.24403,1.94302 9.38686,2.04672 14.30273,-0.24218 5.30098,-2.46827 9.35015,-7.58694 11.79883,-13.98829 2.42733,-6.34551 2.57675,-15.74412 0.53711,-22.45312 -1.58077,-5.199698 -4.49965,-9.663278 -8.1543,-12.830079 -3.65464,-3.1668 -8.17399,-5.120852 -12.85156,-4.583984 z M 248.45898,92.25 c 2.18796,-0.251123 4.9073,0.698698 7.47071,2.919922 2.5634,2.221224 4.84113,5.629338 6.04101,9.576168 1.34011,4.40802 1.05539,14.1665 -0.3789,17.91602 -1.95732,5.1168 -5.12953,8.70598 -8.21485,10.14258 -3.27571,1.52522 -5.90429,1.38258 -8.43359,0.22461 -2.5293,-1.15798 -4.9499,-3.55054 -6.76953,-6.8418 -3.63927,-6.58251 -4.62343,-16.46754 -0.76953,-24.70312 2.9179,-6.235418 6.04397,-8.659259 11.05468,-9.23438 z m 43.12891,0.265625 c 2.18796,-0.251123 4.90535,0.698698 7.46875,2.919922 2.5634,2.221224 4.84113,5.629343 6.04102,9.576173 1.3401,4.40801 1.05538,14.16454 -0.37891,17.91406 -1.95731,5.1168 -5.12952,8.70598 -8.21484,10.14258 -3.27572,1.52523 -5.9043,1.38258 -8.4336,0.22461 -2.52929,-1.15797 -4.9499,-3.55054 -6.76953,-6.8418 -3.63926,-6.58251 -4.62342,-16.46755 -0.76953,-24.70312 2.91791,-6.235426 6.04592,-8.657304 11.05664,-9.232425 z"
       id="path3-4-1" /></g></svg>
