<?xml version="1.0" encoding="UTF-8" standalone="no"?>
<!-- Created with Inkscape (http://www.inkscape.org/) -->

<svg
   width="250mm"
   height="250mm"
   viewBox="0 0 250 250"
   version="1.1"
   id="svg1"
   xml:space="preserve"
   inkscape:version="1.4.2 (f4327f4, 2025-05-13)"
   sodipodi:docname="PackmanGhost.svg"
   inkscape:export-filename="PackmanGhost_6,3.mm.svg"
   inkscape:export-xdpi="96"
   inkscape:export-ydpi="96"
   xmlns:inkscape="http://www.inkscape.org/namespaces/inkscape"
   xmlns:sodipodi="http://sodipodi.sourceforge.net/DTD/sodipodi-0.dtd"
   xmlns="http://www.w3.org/2000/svg"
   xmlns:svg="http://www.w3.org/2000/svg"><sodipodi:namedview
     id="namedview1"
     pagecolor="#ffffff"
     bordercolor="#000000"
     borderopacity="0.25"
     inkscape:showpageshadow="2"
     inkscape:pageopacity="0.0"
     inkscape:pagecheckerboard="0"
     inkscape:deskcolor="#d1d1d1"
     inkscape:document-units="mm"
     showgrid="true"
     inkscape:zoom="0.36756309"
     inkscape:cx="265.26058"
     inkscape:cy="718.24404"
     inkscape:window-width="1971"
     inkscape:window-height="1250"
     inkscape:window-x="430"
     inkscape:window-y="114"
     inkscape:window-maximized="0"
     inkscape:current-layer="layer1"><inkscape:grid
       id="grid2"
       units="mm"
       originx="0"
       originy="0"
       spacingx="0.99999999"
       spacingy="0.99999999"
       empcolor="#0099e5"
       empopacity="0.30196078"
       color="#0099e5"
       opacity="0.14901961"
       empspacing="10"
       enabled="true"
       visible="true" /><inkscape:page
       x="0"
       y="0"
       width="250"
       height="250"
       id="page2"
       margin="0"
       bleed="0" /></sodipodi:namedview><defs
     id="defs1" /><g
     inkscape:label="Ebene 1"
     inkscape:groupmode="layer"
     id="layer1"><path
       style="baseline-shift:baseline;display:inline;overflow:visible;opacity:1;vector-effect:none;enable-background:accumulate;stop-color:#000000;stop-opacity:1"
       d="m 147.76172,40.005859 c -15.53357,0.180769 -31.19061,4.874788 -43.49024,14.283203 -12.299626,9.408416 -21.152346,23.63782 -22.777339,42.251954 l -0.0059,0.04883 -0.002,0.04883 c -0.207393,3.784544 -0.660102,23.379714 -1.044922,44.234374 -0.337584,18.29528 -0.501595,27.77892 -0.419922,33.18164 0.04084,2.70136 0.135094,4.39353 0.34375,5.75195 0.208657,1.35842 0.597681,2.41376 0.951172,3.21289 1.726382,3.90279 4.500044,6.88929 8.152344,8.59375 2.300612,1.07367 4.857302,1.22083 7.408203,0.97461 2.550901,-0.24622 5.064454,-0.90189 7.160154,-2.33789 4.24677,-2.90991 6.50565,-7.08559 7.24805,-12.99805 0.70215,-5.59195 1.38844,-6.82595 4.91992,-9.16797 2.08824,-1.38487 2.55478,-1.52929 4.82031,-1.52929 2.86716,0 4.8839,0.87543 6.53906,2.60742 1.65516,1.73198 2.94815,4.50532 3.50391,8.42969 0.64324,4.54215 2.20757,8.33002 4.96289,10.98242 2.75532,2.6524 6.56664,3.91992 10.80859,3.91992 2.58623,0 4.83942,-0.27366 6.91016,-1.34961 2.07074,-1.07595 3.66841,-2.7408 5.49219,-4.99609 1.76691,-2.18491 2.70204,-4.84004 3.21289,-8.45313 0.8516,-6.02272 1.76763,-7.66677 4.85547,-9.625 2.61686,-1.65957 6.6961,-1.86893 8.70117,-0.8789 2.617,1.65597 3.95962,2.88048 4.72656,4.14257 0.78437,1.29079 1.19725,2.93518 1.45508,5.87891 l 0.008,0.084 0.0117,0.084 c 0.85947,5.94539 2.89347,9.81809 6.83398,12.54883 8.13094,5.63478 19.12349,2.24452 23.19727,-6.96485 0.35372,-0.79963 0.73109,-1.87497 0.92969,-3.25976 0.19859,-1.38479 0.29082,-3.13499 0.32812,-5.9375 0.0746,-5.60504 -0.0938,-15.44614 -0.43945,-34.26758 -0.39763,-21.65511 -1.2397,-42.133838 -1.39063,-45.611324 -0.77945,-17.95784 -9.0472,-31.74966 -20.97468,-40.742222 C 178.76978,44.153923 163.29529,39.82509 147.76172,40.005859 Z m 0.0703,6 c 14.36563,-0.167177 28.58856,3.890651 39.25391,11.931641 10.66535,8.04099 17.8851,19.927668 18.59179,36.210937 0.1485,3.421374 0.98872,23.893643 1.38477,45.462893 0.34555,18.81845 0.51118,28.68798 0.43945,34.07617 -0.0359,2.6941 -0.13762,4.25982 -0.26758,5.16602 -0.12995,0.90619 -0.21567,1.09578 -0.47656,1.68554 -2.76982,6.26158 -9.0077,8.12171 -14.29297,4.45899 -2.8994,-2.00926 -3.55272,-3.20732 -4.31445,-8.47657 l 0.0195,0.16797 c -0.28906,-3.3003 -0.82303,-6.03245 -2.30469,-8.4707 -1.48165,-2.43825 -3.7216,-4.27985 -6.80859,-6.21289 l -0.10547,-0.0664 -0.10937,-0.0566 c -4.53624,-2.34586 -10.26524,-1.7206 -14.7461,1.1211 -4.37276,2.77309 -6.63023,7.12018 -7.58203,13.85156 -0.44109,3.11967 -0.89591,4.23395 -1.93555,5.51953 -1.63385,2.02043 -2.68628,2.9738 -3.59375,3.44531 -0.90746,0.47152 -1.95948,0.67383 -4.14453,0.67383 -3.12628,0 -5.13409,-0.7863 -6.64648,-2.24219 -1.51239,-1.45589 -2.66575,-3.82955 -3.18555,-7.5 -0.68094,-4.80827 -2.34037,-8.84289 -5.10547,-11.73633 -2.76509,-2.89343 -6.63553,-4.46093 -10.87695,-4.46093 -2.98365,0 -5.52713,0.79802 -8.13476,2.52734 -4.5048,2.9875 -6.76285,7.08451 -7.5586,13.42188 -0.63349,5.04514 -1.53144,6.63566 -4.68555,8.79687 -0.785323,0.53812 -2.567527,1.14282 -4.345699,1.31445 -1.778172,0.17164 -3.584184,-0.10776 -4.294922,-0.43945 -2.382679,-1.11195 -3.935766,-2.71889 -5.203125,-5.58398 -0.282348,-0.6383 -0.373942,-0.83845 -0.505859,-1.69727 -0.131917,-0.85882 -0.238263,-2.34445 -0.277344,-4.92969 -0.07816,-5.17047 0.08434,-14.68973 0.421875,-32.98242 0.258507,-14.00934 0.473099,-21.20125 0.695313,-29.5957 0.173706,0.5174 0.253163,1.08477 0.449218,1.58789 3.175139,8.1481 9.594815,14.73807 17.998043,14.80859 h 0.002 c 2.46414,0.0194 4.91093,-0.81832 7.25586,-1.91015 5.14272,-2.39457 9.12938,-7.4033 11.54297,-13.71289 2.35639,-6.16009 2.51701,-15.584261 0.52734,-22.12891 -1.55356,-5.110207 -4.42721,-9.498397 -8.00391,-12.597656 -3.5767,-3.09926 -7.96901,-4.981301 -12.46875,-4.464844 -5.322754,0.610936 -9.75116,3.334476 -13.121091,7.787109 3.618637,-8.994672 9.407981,-16.201535 16.597661,-21.701172 11.10552,-8.495001 25.55038,-12.88165 39.91601,-13.048828 z m -1.32226,27.228516 c -7.14148,0.819686 -12.68746,5.422742 -16.20313,12.935547 -4.11763,8.799171 -3.82748,18.920258 -0.65234,27.068358 3.17514,8.1481 9.59481,14.74003 17.99804,14.81055 h 0.002 c 2.46414,0.0194 4.91093,-0.81832 7.25586,-1.91016 5.14271,-2.39457 9.12938,-7.4033 11.54296,-13.71289 2.3564,-6.16008 2.51702,-15.584249 0.52735,-22.128905 -1.55356,-5.110203 -4.42721,-9.498398 -8.00391,-12.597656 -3.5767,-3.099258 -7.96706,-4.981301 -12.46679,-4.464844 z M 105.125,78.929687 c 2.36578,-0.271532 5.21217,0.750297 7.85352,3.039063 2.64134,2.288766 4.96627,5.772271 6.19336,9.808594 1.39006,4.572371 1.11459,14.305286 -0.39063,18.240236 -1.99241,5.20855 -5.22907,8.90573 -8.47266,10.41601 -1.55395,0.72355 -4.47279,1.3507 -4.67382,1.34961 -5.24341,-0.044 -9.860899,-4.32602 -12.457036,-10.98828 -2.596136,-6.66225 -2.809969,-15.286939 0.494141,-22.347654 2.963889,-6.333685 6.2785,-8.923644 11.453125,-9.517579 z m 42.06836,0.265625 c 2.36578,-0.271532 5.21217,0.750298 7.85351,3.039063 2.64135,2.288765 4.96628,5.770323 6.19336,9.806641 1.39007,4.572383 1.1146,14.305294 -0.39062,18.240234 -1.99241,5.20855 -5.22712,8.90768 -8.4707,10.41797 -1.55396,0.72354 -4.47475,1.35069 -4.67579,1.34961 -5.2434,-0.044 -9.86089,-4.32603 -12.45703,-10.98828 -2.59613,-6.66226 -2.80997,-15.286938 0.49414,-22.347659 2.96389,-6.333675 6.27851,-8.923645 11.45313,-9.517579 z"
       id="path3-4-9" /></g></svg>
