<?xml version="1.0" encoding="UTF-8" standalone="no"?>
<!-- Created with Inkscape (http://www.inkscape.org/) -->

<svg
   width="250mm"
   height="250mm"
   viewBox="0 0 250 250"
   version="1.1"
   id="svg1"
   xml:space="preserve"
   inkscape:version="1.4.2 (f4327f4, 2025-05-13)"
   sodipodi:docname="PackmanGhost.svg"
   inkscape:export-filename="PackmanGhost_6,3mm.svg"
   inkscape:export-xdpi="96"
   inkscape:export-ydpi="96"
   xmlns:inkscape="http://www.inkscape.org/namespaces/inkscape"
   xmlns:sodipodi="http://sodipodi.sourceforge.net/DTD/sodipodi-0.dtd"
   xmlns="http://www.w3.org/2000/svg"
   xmlns:svg="http://www.w3.org/2000/svg"><sodipodi:namedview
     id="namedview1"
     pagecolor="#ffffff"
     bordercolor="#000000"
     borderopacity="0.25"
     inkscape:showpageshadow="2"
     inkscape:pageopacity="0.0"
     inkscape:pagecheckerboard="0"
     inkscape:deskcolor="#d1d1d1"
     inkscape:document-units="mm"
     showgrid="true"
     inkscape:zoom="0.36756309"
     inkscape:cx="425.77724"
     inkscape:cy="821.62765"
     inkscape:window-width="1971"
     inkscape:window-height="1250"
     inkscape:window-x="425"
     inkscape:window-y="109"
     inkscape:window-maximized="0"
     inkscape:current-layer="layer1"><inkscape:grid
       id="grid2"
       units="mm"
       originx="0"
       originy="0"
       spacingx="0.99999999"
       spacingy="0.99999999"
       empcolor="#0099e5"
       empopacity="0.30196078"
       color="#0099e5"
       opacity="0.14901961"
       empspacing="10"
       enabled="true"
       visible="true" /><inkscape:page
       x="0"
       y="0"
       width="250"
       height="250"
       id="page2"
       margin="0"
       bleed="0" /></sodipodi:namedview><defs
     id="defs1" /><g
     inkscape:label="Ebene 1"
     inkscape:groupmode="layer"
     id="layer1"><path
       id="path3-4-6-2"
       style="baseline-shift:baseline;display:inline;overflow:visible;vector-effect:none;fill:#dc0000;fill-opacity:0.668235;enable-background:accumulate;stop-color:#000000"
       sodipodi:type="inkscape:offset"
       inkscape:radius="1.7546815"
       inkscape:original="M 149.59766 54.318359 C 134.06409 54.499129 118.40705 59.193156 106.10742 68.601562 C 93.807796 78.009982 84.955078 92.239376 83.330078 110.85352 L 83.324219 110.90234 L 83.322266 110.95117 C 83.114876 114.73571 82.662164 134.33089 82.277344 155.18555 C 81.939764 173.48083 81.775752 182.96447 81.857422 188.36719 C 81.898222 191.06855 81.992512 192.76072 82.201172 194.11914 C 82.409832 195.47756 82.798854 196.5329 83.152344 197.33203 C 84.878724 201.23482 87.652388 204.22132 91.304688 205.92578 C 93.605307 206.99945 96.161991 207.14661 98.712891 206.90039 C 101.26379 206.65417 103.77735 205.9985 105.87305 204.5625 C 110.11982 201.65259 112.3787 197.47691 113.12109 191.56445 C 113.82324 185.9725 114.50953 184.73655 118.04102 182.39453 C 120.12926 181.00966 120.5958 180.86719 122.86133 180.86719 C 125.72849 180.86719 127.74523 181.74067 129.40039 183.47266 C 131.05555 185.20464 132.34854 187.97993 132.9043 191.9043 C 133.54754 196.44645 135.11186 200.23432 137.86719 202.88672 C 140.62251 205.53912 144.43382 206.80664 148.67578 206.80664 C 151.26201 206.80664 153.5152 206.53298 155.58594 205.45703 C 157.65667 204.38108 159.25435 202.71623 161.07812 200.46094 C 162.84503 198.27603 163.78016 195.6209 164.29102 192.00781 C 165.14261 185.98509 166.05864 184.34104 169.14648 182.38281 C 171.76334 180.72324 175.84259 180.51388 177.84766 181.50391 C 180.46466 183.15988 181.80728 184.38439 182.57422 185.64648 C 183.35859 186.93727 183.77147 188.58166 184.0293 191.52539 L 184.03711 191.60938 L 184.04883 191.69336 C 184.9083 197.63875 186.9423 201.51145 190.88281 204.24219 C 199.01373 209.87697 210.0063 206.48671 214.08008 197.27734 C 214.4338 196.47771 214.81117 195.40237 215.00977 194.01758 C 215.20836 192.63279 215.30059 190.88064 215.33789 188.07812 C 215.41249 182.4731 215.24409 172.63394 214.89844 153.8125 C 214.50081 132.15739 213.65874 111.67866 213.50781 108.20117 C 212.72837 90.243392 204.46069 76.449588 192.5332 67.457031 C 180.60572 58.464471 165.13122 54.137589 149.59766 54.318359 z M 149.66797 60.316406 C 164.0336 60.149226 178.25654 64.20706 188.92188 72.248047 C 199.58722 80.289037 206.80697 92.177668 207.51367 108.46094 C 207.66217 111.88231 208.50239 132.35458 208.89844 153.92383 C 209.244 172.74228 209.40961 182.61181 209.33789 188 C 209.30199 190.6941 209.20027 192.25982 209.07031 193.16602 C 208.94035 194.07221 208.85268 194.25985 208.5918 194.84961 C 205.82198 201.11118 199.58604 202.97327 194.30078 199.31055 C 191.40138 197.30129 190.74806 196.10323 189.98633 190.83398 L 190.00586 191.00195 C 189.7168 187.70165 189.18283 184.96755 187.70117 182.5293 C 186.21952 180.09105 183.97761 178.24945 180.89062 176.31641 L 180.78711 176.25195 L 180.67773 176.19531 C 176.1415 173.84945 170.4125 174.47471 165.93164 177.31641 C 161.55888 180.0895 159.30141 184.43659 158.34961 191.16797 C 157.90852 194.28764 157.45369 195.40192 156.41406 196.6875 C 154.7802 198.70793 153.72778 199.6613 152.82031 200.13281 C 151.91285 200.60433 150.86083 200.80664 148.67578 200.80664 C 145.5495 200.80664 143.54168 200.02034 142.0293 198.56445 C 140.51691 197.10856 139.36355 194.7349 138.84375 191.06445 C 138.16281 186.25618 136.50338 182.22156 133.73828 179.32812 C 130.97318 176.4347 127.10275 174.86719 122.86133 174.86719 C 119.87768 174.86719 117.3342 175.66521 114.72656 177.39453 C 110.22176 180.38203 107.96372 184.47904 107.16797 190.81641 C 106.53448 195.86155 105.63653 197.45012 102.48242 199.61133 C 101.6971 200.14945 99.914899 200.7561 98.136719 200.92773 C 96.358549 201.09937 94.552537 200.81997 93.841797 200.48828 C 91.459117 199.37633 89.906032 197.76939 88.638672 194.9043 C 88.356322 194.266 88.264723 194.06585 88.132812 193.20703 C 88.000893 192.34821 87.894559 190.86063 87.855469 188.27539 C 87.777269 183.10492 87.939764 173.58761 88.277344 155.29492 C 88.535864 141.28466 88.750436 134.09157 88.972656 125.69727 C 89.146366 126.21466 89.225825 126.78204 89.421875 127.28516 C 92.597015 135.43326 99.016696 142.02518 107.41992 142.0957 L 107.42188 142.0957 C 109.88602 142.1151 112.33281 141.27738 114.67773 140.18555 C 119.82045 137.79098 123.80711 132.78225 126.2207 126.47266 C 128.5771 120.31257 128.73772 110.8884 126.74805 104.34375 C 125.19449 99.23354 122.32084 94.845354 118.74414 91.746094 C 115.16744 88.646844 110.77513 86.76479 106.27539 87.28125 C 100.95263 87.89219 96.524227 90.615719 93.154297 95.068359 C 96.772937 86.073689 102.56227 78.866818 109.75195 73.367188 C 120.85748 64.872191 135.30234 60.483576 149.66797 60.316406 z M 148.3457 87.544922 C 141.20423 88.364612 135.65825 92.967659 132.14258 100.48047 C 128.02495 109.27964 128.3151 119.40268 131.49023 127.55078 C 134.66537 135.69888 141.08505 142.29081 149.48828 142.36133 L 149.49023 142.36133 C 151.95438 142.38073 154.40117 141.54105 156.74609 140.44922 C 161.88881 138.05465 165.87547 133.04592 168.28906 126.73633 C 170.64546 120.57625 170.80608 111.15402 168.81641 104.60938 C 167.26284 99.499165 164.3892 95.110979 160.8125 92.011719 C 157.2358 88.912459 152.84544 87.028462 148.3457 87.544922 z M 106.96094 93.242188 C 109.32672 92.970647 112.1731 93.99248 114.81445 96.28125 C 117.4558 98.57001 119.78072 102.05352 121.00781 106.08984 C 122.39788 110.66221 122.12241 120.39317 120.61719 124.32812 C 118.62478 129.53668 115.38811 133.23581 112.14453 134.74609 C 110.59058 135.46964 107.67174 136.09679 107.4707 136.0957 C 102.81897 136.0567 98.745044 132.56145 96.052734 127.14844 C 97.096374 127.45336 98.193962 127.60352 99.320312 127.60352 L 99.355469 127.60352 L 99.390625 127.60352 C 106.24009 127.4419 110.77185 121.11674 110.43164 114.80469 C 110.39104 109.20197 107.65294 105.5195 104.85742 103.87305 C 102.04104 102.21431 99.488386 102.23438 99.134766 102.23438 C 97.891696 102.23438 96.671752 102.38087 95.482422 102.83789 C 95.493922 102.81299 95.496112 102.78457 95.507812 102.75977 C 98.471703 96.426076 101.78631 93.836118 106.96094 93.242188 z M 149.0293 93.505859 C 151.39508 93.234329 154.24146 94.256162 156.88281 96.544922 C 159.52416 98.833692 161.84908 102.31719 163.07617 106.35352 C 164.46624 110.92589 164.19077 120.65881 162.68555 124.59375 C 160.69314 129.8023 157.45843 133.49948 154.21484 135.00977 C 152.66089 135.73331 149.7401 136.36241 149.53906 136.36133 C 144.88791 136.32233 140.81539 132.8259 138.12305 127.41406 C 139.16614 127.71861 140.263 127.86719 141.38867 127.86719 L 141.42383 127.86719 L 141.45898 127.86719 C 148.30553 127.70564 152.83591 121.38554 152.5 115.07617 C 152.4621 109.46873 149.72269 105.78595 146.92578 104.13867 C 144.1094 102.47993 141.55673 102.5 141.20312 102.5 C 139.9601 102.5 138.74008 102.64458 137.55078 103.10156 C 137.56228 103.07666 137.56457 103.04824 137.57617 103.02344 C 140.54006 96.689757 143.85467 94.099789 149.0293 93.505859 z M 99.134766 108.23438 C 98.900146 108.23436 100.50328 108.27188 101.8125 109.04297 C 103.12172 109.81405 104.44531 110.94422 104.44531 114.91992 L 104.44531 115.00781 L 104.45117 115.0957 C 104.64425 118.36203 102.39954 121.4939 99.285156 121.59375 C 98.215096 121.58145 96.996994 121.12614 96.677734 120.875 C 93.714644 118.54423 93.315314 112.6606 96.089844 109.71875 C 96.964294 108.79155 97.383358 108.49755 97.580078 108.40625 C 97.776808 108.31495 98.061516 108.23437 99.134766 108.23438 z M 141.20312 108.5 C 140.96855 108.5 142.57164 108.5375 143.88086 109.30859 C 145.19008 110.07967 146.51367 111.20789 146.51367 115.18359 L 146.51367 115.27148 L 146.51953 115.36133 C 146.71256 118.62696 144.47077 121.75824 141.35742 121.85938 C 140.2861 121.84847 139.06585 121.3902 138.74609 121.13867 C 135.783 118.8079 135.38368 112.92622 138.1582 109.98438 C 139.03265 109.05716 139.45171 108.76318 139.64844 108.67188 C 139.84516 108.58057 140.12987 108.5 141.20312 108.5 z "
       d="m 149.57812,52.564453 c -15.87327,0.184723 -31.89041,4.968694 -44.5371,14.642578 -12.653287,9.678946 -21.790879,24.403158 -23.458989,43.486329 -2.3e-4,0.003 2.3e-4,0.005 0,0.008 a 1.7548569,1.7548569 0 0 0 -0.01172,0.13086 v 0.0234 c -0.217862,3.97565 -0.66196,23.4371 -1.046875,44.29687 -0.337592,18.29599 -0.502597,27.77294 -0.419921,33.24219 0.04125,2.73111 0.133465,4.49408 0.363281,5.99024 0.237643,1.5471 0.688056,2.77001 1.080078,3.65625 1.873687,4.2358 4.960049,7.58194 9.015625,9.4746 2.696383,1.25837 5.589303,1.39428 8.318359,1.13086 2.737701,-0.26425 5.554451,-0.9717 7.984371,-2.63671 4.65312,-3.18835 7.21162,-7.97888 7.9961,-14.22657 0.34426,-2.74171 0.69162,-4.24004 1.20312,-5.18945 0.5115,-0.94941 1.25638,-1.61496 2.94727,-2.73633 2.03411,-1.34897 1.65764,-1.23633 3.84961,-1.23633 2.51078,0 3.90265,0.63413 5.26953,2.06446 1.32366,1.38509 2.51627,3.80086 3.03516,7.46484 0.67962,4.79911 2.36677,8.99886 5.48437,12 3.13655,3.01939 7.43389,4.41016 12.02539,4.41016 2.71001,0 5.29391,-0.28694 7.71875,-1.54688 2.4002,-1.24714 4.17549,-3.13263 6.04883,-5.44922 2.01361,-2.48998 3.0502,-5.52154 3.58594,-9.31054 0.41668,-2.94692 0.85253,-4.69062 1.41211,-5.78321 0.55957,-1.09258 1.22189,-1.70327 2.64453,-2.60547 0.98837,-0.6268 2.42669,-1.05196 3.78906,-1.16796 1.34575,-0.1146 2.60954,0.11688 3.15625,0.37695 2.40222,1.53563 3.4984,2.58822 4.04297,3.48437 0.58283,0.95914 0.95845,2.28103 1.20703,5.11914 a 1.7548569,1.7548569 0 0 0 0,0.01 l 0.008,0.084 a 1.7548569,1.7548569 0 0 0 0.01,0.0801 l 0.0117,0.084 a 1.7548569,1.7548569 0 0 0 0.002,0.01 c 0.90012,6.22658 3.22378,10.72617 7.57031,13.73828 9.0103,6.2442 21.32099,2.43437 25.80274,-7.69726 0.40238,-0.90963 0.83572,-2.15113 1.06054,-3.71875 0.21728,-1.5151 0.30802,-3.33474 0.34571,-6.16602 0.0754,-5.66748 -0.0938,-15.49811 -0.43946,-34.32031 -0.39809,-21.68027 -1.23901,-42.16308 -1.39062,-45.65625 C 214.46066,89.669066 205.89483,75.333808 193.58984,66.056641 181.29588,56.787775 165.45102,52.379734 149.57812,52.564453 Z m 0.10938,9.505859 c 14.02179,-0.163178 27.88458,3.817744 38.17773,11.578125 10.30544,7.769645 17.20868,19.085641 17.89454,34.888673 0.14778,3.40488 0.98917,23.87389 1.38476,45.41797 0.34554,18.81748 0.51032,28.69775 0.43945,34.02148 -0.0354,2.659 -0.14209,4.18704 -0.25,4.93946 -0.11905,0.83011 -0.0836,0.62776 -0.34765,1.2246 -1.21386,2.74411 -3.07962,4.35794 -5.11328,4.98438 -2.03367,0.62644 -4.30961,0.31218 -6.57227,-1.25586 -1.36621,-0.94677 -1.94406,-1.49011 -2.39844,-2.375 -0.45437,-0.88489 -0.80629,-2.32915 -1.17968,-4.91211 a 1.7548569,1.7548569 0 0 0 -0.0117,-0.01 c -0.30525,-3.28674 -0.87117,-6.25856 -2.50977,-8.95508 -1.68595,-2.77446 -4.19092,-4.79083 -7.3789,-6.78711 a 1.7548569,1.7548569 0 0 0 -0.004,-0.004 l -0.10352,-0.0644 a 1.7548569,1.7548569 0 0 0 -0.12109,-0.0684 l -0.10938,-0.0566 c -5.18467,-2.6812 -11.53838,-1.94437 -16.49218,1.19726 -4.8425,3.07099 -7.38988,8.07938 -8.38086,15.08789 -0.42579,3.01146 -0.67725,3.56744 -1.5625,4.66211 -1.57191,1.94382 -2.49582,2.71094 -3.03711,2.99219 -0.59733,0.31038 -1.2592,0.47656 -3.33594,0.47656 -2.83206,0 -4.2489,-0.61527 -5.42969,-1.75195 -1.14699,-1.10414 -2.18006,-3.06478 -2.66406,-6.48242 -0.71733,-5.06521 -2.48849,-9.47417 -5.57422,-12.70313 -3.11146,-3.25585 -7.47274,-5.00195 -12.14648,-5.00195 -3.29653,0 -6.26706,0.936 -9.10547,2.81836 -4.89552,3.24662 -7.4929,8.01427 -8.32813,14.66602 -0.30681,2.44347 -0.67369,3.88261 -1.20312,4.86718 -0.52943,0.98458 -1.25864,1.68804 -2.73438,2.69922 -0.27144,0.18601 -2.025276,0.87317 -3.52148,1.01758 -0.741902,0.0716 -1.529366,0.0486 -2.173828,-0.0273 -0.644463,-0.0759 -1.200592,-0.25103 -1.210938,-0.25586 -2.060408,-0.96155 -3.188832,-2.10106 -4.339843,-4.70313 -0.28425,-0.64259 -0.257337,-0.47513 -0.376954,-1.2539 -0.107237,-0.69814 -0.219295,-2.14605 -0.257812,-4.69336 -0.07715,-5.10117 0.08431,-14.62807 0.421875,-32.91993 0.19287,-10.45242 0.354129,-15.88815 0.519531,-22.08203 3.8024,6.04656 9.571309,10.54241 16.853519,10.60352 a 1.7548569,1.7548569 0 0 0 0.004,0 c 2.87094,0.0226 5.55278,-0.93021 8.00977,-2.07422 5.67695,-2.64332 9.90816,-8.0534 12.44141,-14.67578 0.35797,-0.93582 0.55849,-2.02758 0.82226,-3.06055 0.36419,1.39918 0.66089,2.83212 1.17383,4.14844 3.34941,8.59532 10.30391,15.84958 19.61719,15.92773 a 1.7548569,1.7548569 0 0 0 0.004,0 c 2.87187,0.0226 5.5535,-0.93249 8.00977,-2.07617 5.67695,-2.64332 9.90816,-8.0534 12.4414,-14.67578 2.56022,-6.69289 2.702,-16.24547 0.56836,-23.26367 -1.6474,-5.418877 -4.69049,-10.082607 -8.53515,-13.414063 -3.8478,-3.334169 -8.70601,-5.471091 -13.81446,-4.884766 -7.77855,0.892814 -13.89444,6.03031 -17.59375,13.935547 -0.82978,1.773202 -1.33992,3.620862 -1.84179,5.464842 -0.11233,-0.44161 -0.15422,-0.94292 -0.28321,-1.36719 -1.64739,-5.418871 -4.69049,-10.082603 -8.53515,-13.414058 -3.84831,-3.334602 -8.7084,-5.469087 -13.81641,-4.882813 -2.59249,0.297563 -4.97537,1.136194 -7.175779,2.324219 3.222999,-5.108497 7.218539,-9.504856 11.917969,-13.099609 10.75397,-8.226079 24.84712,-12.528235 38.86914,-12.691407 z m -42.52734,32.916016 c 1.71194,-0.196494 4.14066,0.571618 6.50586,2.621094 2.36053,2.045434 4.5327,5.277178 5.66211,8.992188 0.58489,1.92389 0.89677,5.43211 0.8164,8.80664 -0.0804,3.37453 -0.57309,6.74489 -1.16601,8.29492 -1.8649,4.87522 -4.91963,8.21904 -7.57422,9.45508 -0.57173,0.26621 -1.64979,0.60433 -2.54688,0.83789 -0.44854,0.11678 -0.85953,0.2133 -1.1582,0.27734 -0.12145,0.026 -0.2068,0.0425 -0.28125,0.0566 -2.91906,-0.0516 -5.69112,-1.83796 -7.960939,-4.9746 7.877749,-0.20181 13.086579,-7.4069 12.724609,-14.59375 -0.0556,-6.15063 -3.0901,-10.42926 -6.43359,-12.39844 -3.2212,-1.89717 -6.326057,-1.88086 -6.613284,-1.88086 -0.115929,0 -0.242469,0.0581 -0.359375,0.0606 0.884047,-1.383453 1.784549,-2.550805 2.742189,-3.335942 1.5693,-1.286618 3.30015,-1.949893 5.64258,-2.21875 z M 149.22852,95.25 c 1.71194,-0.196487 4.14066,0.571626 6.50585,2.621094 2.36055,2.045447 4.53271,5.277176 5.66211,8.992186 0.58488,1.92382 0.89678,5.43356 0.81641,8.8086 -0.0804,3.37503 -0.57312,6.74499 -1.16602,8.29492 -1.86498,4.87542 -4.91737,8.21695 -7.57226,9.45312 -0.57203,0.26634 -1.64919,0.60579 -2.54688,0.83985 -0.44884,0.11702 -0.86128,0.21312 -1.16015,0.27734 -0.12072,0.0259 -0.20492,0.0425 -0.2793,0.0566 -2.91928,-0.0509 -5.6927,-1.83877 -7.96289,-4.97656 7.87372,-0.20171 13.08066,-7.40106 12.72461,-14.58399 -0.0526,-6.15552 -3.08911,-10.43647 -6.43359,-12.40625 -3.22121,-1.89716 -6.32607,-1.88086 -6.61329,-1.88086 -0.11578,0 -0.24258,0.0581 -0.35937,0.0606 0.88431,-1.384103 1.78424,-2.552502 2.74219,-3.33789 1.56931,-1.28662 3.30015,-1.949893 5.64258,-2.21875 z m -50.029301,11.23242 c 0,0 -0.01519,0.0455 -0.01563,0.0469 a 1.7548569,1.7548569 0 0 0 -0.03516,-0.0352 c 0.0052,-0.001 0.05078,-0.0117 0.05078,-0.0117 z m 42.066401,0.26563 c 0,0 -0.0555,0.16999 -0.0625,0.1914 v -0.17578 c 0.008,-0.002 0.0625,-0.0156 0.0625,-0.0156 z m -42.251948,3.24218 c 0.01731,0.002 0.03453,0.003 0.05859,0.006 0.10436,0.0118 0.274976,0.0332 0.482421,0.0742 0.414891,0.082 0.971713,0.25145 1.367193,0.48438 0.55439,0.32652 0.86947,0.55576 1.16992,1.08789 0.30045,0.53212 0.59961,1.48421 0.59961,3.27734 v 0.0879 a 1.7548569,1.7548569 0 0 0 0.004,0.11719 l 0.004,0.0742 c 0.14117,2.38814 -1.48821,4.5482 -3.441408,4.63281 -0.29315,-0.01 -0.705295,-0.0819 -1.042968,-0.18555 -0.352821,-0.10828 -0.740815,-0.37669 -0.453125,-0.15039 -0.947739,-0.74549 -1.676787,-2.33661 -1.777344,-4.07226 -0.100557,-1.73566 0.42499,-3.48637 1.382812,-4.50195 0.809492,-0.85833 1.19606,-1.03749 0.951172,-0.92383 -0.02729,0.0127 0.116734,-0.003 0.695313,-0.008 z m 42.066408,0.26563 c 0.0176,0.002 0.0361,0.003 0.0605,0.006 0.10438,0.0118 0.27498,0.0332 0.48243,0.0742 0.41488,0.082 0.9717,0.25145 1.36718,0.48437 0.55496,0.32685 0.86968,0.55642 1.16993,1.08789 0.30025,0.53148 0.59961,1.48227 0.59961,3.27539 v 0.0879 a 1.7548569,1.7548569 0 0 0 0.004,0.11329 l 0.006,0.0898 -0.002,-0.01 c 0.14121,2.38907 -1.48626,4.54871 -3.43946,4.63282 -0.29176,-0.009 -0.70496,-0.0816 -1.04296,-0.18555 -0.35317,-0.10867 -0.74069,-0.37701 -0.45508,-0.15234 -0.94793,-0.74564 -1.6768,-2.33524 -1.77735,-4.07032 -0.10054,-1.73507 0.42487,-3.48623 1.38282,-4.50195 0.80948,-0.85833 1.196,-1.03745 0.95117,-0.92383 -0.0273,0.0127 0.1202,-0.003 0.69336,-0.008 z"
       transform="translate(10.421876,17.435547)" /></g></svg>
