<?xml version="1.0" encoding="UTF-8" standalone="no"?>
<!-- Created with Inkscape (http://www.inkscape.org/) -->

<svg
   width="500mm"
   height="250mm"
   viewBox="0 0 500 250"
   version="1.1"
   id="svg1"
   xml:space="preserve"
   inkscape:version="1.4.2 (f4327f4, 2025-05-13)"
   sodipodi:docname="PackmanGhostV2.svg"
   inkscape:export-filename="Packman_3.svg"
   inkscape:export-xdpi="96"
   inkscape:export-ydpi="96"
   xmlns:inkscape="http://www.inkscape.org/namespaces/inkscape"
   xmlns:sodipodi="http://sodipodi.sourceforge.net/DTD/sodipodi-0.dtd"
   xmlns="http://www.w3.org/2000/svg"
   xmlns:svg="http://www.w3.org/2000/svg"><sodipodi:namedview
     id="namedview1"
     pagecolor="#ffffff"
     bordercolor="#000000"
     borderopacity="0.25"
     inkscape:showpageshadow="2"
     inkscape:pageopacity="0.0"
     inkscape:pagecheckerboard="0"
     inkscape:deskcolor="#d1d1d1"
     inkscape:document-units="mm"
     showgrid="true"
     inkscape:zoom="1.1602057"
     inkscape:cx="395.18853"
     inkscape:cy="504.65188"
     inkscape:window-width="3440"
     inkscape:window-height="1369"
     inkscape:window-x="2552"
     inkscape:window-y="-8"
     inkscape:window-maximized="1"
     inkscape:current-layer="layer1"><inkscape:grid
       id="grid2"
       units="mm"
       originx="0"
       originy="0"
       spacingx="0.99999999"
       spacingy="0.99999999"
       empcolor="#0099e5"
       empopacity="0.30196078"
       color="#0099e5"
       opacity="0.14901961"
       empspacing="10"
       enabled="true"
       visible="true" /><inkscape:page
       x="0"
       y="0"
       width="500"
       height="250"
       id="page2"
       margin="0"
       bleed="0" /></sodipodi:namedview><defs
     id="defs1" /><g
     inkscape:label="Ebene 1"
     inkscape:groupmode="layer"
     id="layer1"><path
       id="path3-4-1-2-1"
       style="baseline-shift:baseline;display:inline;overflow:visible;vector-effect:none;fill:#c3d000;fill-opacity:0.790828;enable-background:accumulate;stop-color:#000000"
       sodipodi:type="inkscape:offset"
       inkscape:radius="0.88732326"
       inkscape:original="M 286.47656 46.148438 C 270.24199 46.392087 253.93026 51.748021 241.22461 62.378906 C 228.5175 73.011014 219.54733 88.996194 218.14844 109.74023 L 218.15039 109.73438 L 218.14844 109.75781 A 0.35955591 0.35955591 0 0 0 218.14648 109.78711 L 218.14648 109.80859 C 218.02871 111.97237 218.04694 117.26744 218.07031 124.97852 C 218.09381 132.70006 218.14062 142.58736 218.14062 153 C 218.14062 171.49053 218.0713 181.23887 218.16406 186.86133 C 218.21043 189.67191 218.28841 191.46102 218.47852 192.92578 C 218.67008 194.40174 219.05604 195.62312 219.4707 196.56055 C 221.33649 200.7785 224.57113 203.54643 228.15039 205.2168 C 230.66311 206.38946 233.35538 206.52341 236.00586 206.26758 C 238.6584 206.01154 241.29614 205.34016 243.56836 203.7832 C 247.99197 200.75213 250.42318 196.23954 251.18359 190.18359 C 251.8497 184.87878 253.66584 182.81582 255.41406 181.625 C 257.14033 180.44915 259.1572 180.23828 260.07031 180.23828 C 262.7519 180.23828 264.48292 181.00289 265.98828 182.57812 C 267.48273 184.14194 268.72591 186.73987 269.26367 190.53711 C 269.92467 195.20463 271.54742 199.1941 274.48047 202.01758 C 277.41787 204.84526 281.47749 206.17773 285.88477 206.17773 C 291.85696 206.17773 296.29789 203.35093 298.76562 199.98047 C 301.22011 196.6281 302.01743 192.99004 302.34961 190.64062 C 302.76957 187.67058 303.18286 185.85768 303.82812 184.58789 C 304.47339 183.3181 305.34803 182.55034 306.81641 181.61914 C 308.70479 180.42155 312.25753 179.82961 314.87891 180.8457 C 316.21273 181.36272 317.43563 182.15343 318.41016 183.57031 C 319.38469 184.9872 320.11439 187.04666 320.38281 190.11133 L 320.38086 190.10742 L 320.38867 190.20703 A 0.35955591 0.35955591 0 0 0 320.39258 190.23633 L 320.4082 190.32812 C 321.28454 196.3902 323.49019 200.60849 327.60352 203.45898 C 336.153 209.38383 347.80746 205.78235 352.07422 196.13672 C 352.4304 195.33154 352.85258 194.19318 353.09766 192.73633 C 353.34099 191.28985 353.4821 189.48935 353.58984 186.64258 C 353.80535 180.94795 353.85938 171.0076 353.85938 152 C 353.85938 141.20255 353.90378 130.82123 353.92578 122.69922 C 353.94778 114.5777 353.9654 108.96395 353.85547 106.80469 C 352.82709 86.602308 344.09391 71.071112 331.52539 60.919922 C 318.95869 50.770201 302.71111 45.904791 286.47656 46.148438 z M 286.59375 53.867188 C 301.20258 53.64794 315.70855 58.067525 326.67383 66.923828 C 337.64116 75.781787 345.21699 88.973902 346.14453 107.19531 C 346.20916 108.46565 346.22893 114.56627 346.20703 122.67773 C 346.18513 130.78971 346.14063 141.18163 346.14062 152 C 346.14062 170.99235 346.08129 180.9515 345.87695 186.34961 C 345.77482 189.04809 345.62817 190.59838 345.48438 191.45312 C 345.33774 192.32483 345.28555 192.40985 345.01758 193.01562 C 343.72121 195.94626 341.67287 197.79606 339.35938 198.50977 C 337.04588 199.22347 334.44787 198.81162 332 197.11523 C 330.60788 196.15051 329.83581 195.47345 329.29102 194.4043 C 328.74622 193.33515 328.42239 191.82222 328.04688 189.22461 A 0.35955591 0.35955591 0 0 0 328.03711 189.2168 C 327.25177 181.07591 322.91422 175.67928 317.66992 173.64648 C 312.40081 171.60407 306.7903 172.4959 302.68164 175.10156 C 298.10287 178.00529 295.67749 182.70911 294.70898 189.55859 C 294.48146 191.16783 293.81796 193.66589 292.53516 195.41797 C 291.22868 197.20238 289.68538 198.45898 285.88477 198.45898 C 282.91051 198.45898 281.17651 197.74746 279.83398 196.45508 C 278.50024 195.17115 277.4065 193.00132 276.9043 189.45508 C 276.20547 184.52048 274.49151 180.30492 271.56836 177.24609 C 268.63922 174.181 264.51568 172.51953 260.07031 172.51953 C 258.1951 172.51953 254.60481 172.83588 251.06641 175.24609 C 247.51648 177.66415 244.40115 182.23057 243.52344 189.2207 C 243.21304 191.69272 242.8638 193.23564 242.24219 194.39648 C 241.62058 195.55733 240.71826 196.37723 239.20508 197.41406 C 238.64392 197.79857 236.91541 198.42436 235.26172 198.58398 C 234.43642 198.66364 233.59512 198.63361 232.89648 198.55078 C 232.19785 198.46795 231.62456 198.31803 231.41602 198.2207 C 228.93398 197.06238 227.66909 196.01614 226.5293 193.43945 C 226.29437 192.90835 226.25295 192.84026 226.13477 191.92969 C 226.01888 191.03676 225.92744 189.43619 225.88281 186.73242 C 225.79348 181.32386 225.85937 171.50943 225.85938 153 C 225.85938 142.5642 225.81246 132.66344 225.78906 124.95312 C 225.76567 117.26071 225.78596 111.50913 225.85352 110.24414 L 225.85352 110.24023 C 227.12742 91.422984 234.99728 77.653572 246.17773 68.298828 C 257.36052 58.942131 271.9849 54.086438 286.59375 53.867188 z M 249.41211 84.849609 C 248.8191 84.841233 248.22132 84.870562 247.62109 84.939453 C 240.18345 85.793133 234.33631 90.670302 230.73633 98.363281 C 225.7629 108.99126 226.90727 121.02057 231.73242 129.74805 C 234.14543 134.11256 237.54883 137.73634 241.87891 139.71875 C 246.21849 141.70551 251.47776 141.80773 256.48438 139.47656 C 261.89427 136.95759 265.9937 131.75615 268.4668 125.29102 C 270.93468 118.83947 271.07995 109.40853 269.01172 102.60547 C 267.41178 97.342712 264.45941 92.823624 260.75 89.609375 C 257.50359 86.796313 253.5632 84.908246 249.41211 84.849609 z M 292.53906 85.113281 C 291.94605 85.104905 291.34827 85.134234 290.74805 85.203125 C 283.31034 86.056812 277.46326 90.935939 273.86328 98.628906 C 268.88986 109.25686 270.03423 121.28426 274.85938 130.01172 C 277.27236 134.3762 280.6757 138.00192 285.00586 139.98438 C 289.34544 141.97114 294.60471 142.07334 299.61133 139.74219 C 305.02122 137.2232 309.12067 132.02179 311.59375 125.55664 C 314.06165 119.10508 314.20691 109.67222 312.13867 102.86914 C 310.53873 97.606387 307.58637 93.087296 303.87695 89.873047 C 300.63055 87.059984 296.69016 85.171917 292.53906 85.113281 z M 248.5 92.607422 C 250.55241 92.371857 253.18672 93.269371 255.69336 95.441406 C 258.19887 97.612466 260.44715 100.97077 261.62695 104.85156 C 262.27347 106.97815 262.54526 110.50819 262.46289 113.94336 C 262.38052 117.37853 261.93866 120.74824 261.25586 122.5332 C 259.32481 127.58133 256.18769 131.09883 253.22461 132.47852 C 250.02339 133.96905 247.54749 133.8265 245.09375 132.70312 C 242.65593 131.58703 240.27828 129.25134 238.48828 126.01367 C 234.90947 119.54052 233.93334 109.75098 237.73047 101.63672 C 239.17611 98.547451 240.65991 96.431489 242.375 95.021484 C 244.09009 93.61148 246.04307 92.889424 248.5 92.607422 z M 291.62891 92.873047 C 293.68134 92.637479 296.31361 93.534937 298.82031 95.707031 C 301.32582 97.87809 303.57409 101.23639 304.75391 105.11719 C 305.40042 107.24379 305.67222 110.77235 305.58984 114.20703 C 305.50747 117.64171 305.06562 121.01189 304.38281 122.79688 C 302.45177 127.84501 299.31464 131.36251 296.35156 132.74219 C 293.15034 134.23273 290.67444 134.09017 288.2207 132.9668 C 285.7829 131.85071 283.40524 129.51502 281.61523 126.27734 C 278.03644 119.8042 277.0603 110.01465 280.85742 101.90039 C 282.30305 98.811161 283.78834 96.696638 285.50391 95.287109 C 287.21947 93.877581 289.17192 93.155055 291.62891 92.873047 z "
       d="m 286.46289,45.261719 c -16.42074,0.246443 -32.92878,5.66089 -45.80859,16.4375 -12.88109,10.777672 -21.97026,27.003079 -23.38868,47.960941 v 0.002 c -6e-5,6.5e-4 7e-5,0.001 0,0.002 v 0.002 0.004 c -2.2e-4,0.003 -0.002,0.006 -0.002,0.01 a 0.88741199,0.88741199 0 0 0 0,0.002 v 0.002 c -0.002,0.0267 -0.003,0.0533 -0.004,0.0801 a 0.88741199,0.88741199 0 0 0 0,0.0234 v 0.0215 c -0.121,2.25926 -0.0995,7.4857 -0.0762,15.17188 0.0235,7.72282 0.0703,17.60955 0.0703,28.01953 0,18.48831 -0.0697,28.22834 0.0234,33.875 0.0465,2.82078 0.12232,4.63856 0.32032,6.16406 0.20309,1.56486 0.61489,2.86896 1.0625,3.88086 1.96117,4.43359 5.38121,7.35897 9.11523,9.10156 2.70936,1.26443 5.57925,1.39311 8.31641,1.12891 2.7442,-0.26489 5.54027,-0.96404 7.97851,-2.63477 4.63731,-3.17749 7.21139,-7.98684 7.99414,-14.2207 0.64482,-5.1352 2.25916,-6.85414 3.84961,-7.9375 1.5013,-1.02261 3.37975,-1.23242 4.15625,-1.23242 2.51292,0 3.90764,0.63312 5.27735,2.06641 1.32513,1.38664 2.51809,3.80581 3.03711,7.4707 0.67942,4.79764 2.36436,8.99444 5.48046,11.99414 3.13135,3.01438 7.43341,4.4082 12.01954,4.4082 6.25218,0 10.96987,-2.97148 13.59765,-6.56054 2.58115,-3.52536 3.40414,-7.31971 3.7461,-9.73829 0.41566,-2.93969 0.83056,-4.67326 1.39062,-5.77539 0.56401,-1.10987 1.2552,-1.72268 2.67188,-2.62109 1.57497,-0.99883 5.00638,-1.57179 7.26757,-0.69531 1.21997,0.47289 2.25563,1.14013 3.1211,2.39844 0.86286,1.25452 1.5562,3.15364 1.8164,6.10546 4.2e-4,0.005 0.002,0.007 0.002,0.0117 l 0.006,0.0879 a 0.88741199,0.88741199 0 0 0 0.002,0.0117 c 0.003,0.034 0.008,0.0679 0.0137,0.10156 l 0.01,0.0645 c 3.1e-4,0.002 0.002,0.004 0.002,0.006 l 0.002,0.0156 c 0.9006,6.20129 3.24164,10.71528 7.56446,13.71094 8.99814,6.23577 21.31158,2.42617 25.78711,-7.69141 0.37641,-0.85091 0.8277,-2.0666 1.08789,-3.61328 0.254,-1.50992 0.39559,-3.34513 0.5039,-6.20703 0.21678,-5.72802 0.26953,-15.6665 0.26953,-34.67578 0,-10.79502 0.0444,-21.17563 0.0664,-29.29883 0.022,-8.12134 0.0438,-13.69934 -0.0703,-15.9414 -1.04018,-20.434053 -9.90378,-36.226381 -22.66016,-46.529301 -12.7497,-10.297528 -29.19848,-15.21519 -45.61914,-14.96875 z m 0.14453,9.492187 c 14.42112,-0.216431 28.72981,4.152754 39.50977,12.859375 10.7877,8.71288 18.22445,21.628822 19.14062,39.626949 0.0578,1.13554 0.0844,7.32673 0.0625,15.43555 -0.0219,8.11078 -0.0664,18.50342 -0.0664,29.32422 0,18.9905 -0.0607,28.95303 -0.26368,34.31641 -0.1014,2.67923 -0.24981,4.21125 -0.38086,4.99023 -0.14249,0.84705 -0.12955,0.73295 -0.40234,1.34961 -1.21236,2.74073 -3.06759,4.37597 -5.10937,5.00586 -2.04281,0.63019 -4.33025,0.29187 -6.5918,-1.27539 -1.35861,-0.9415 -1.96421,-1.48276 -2.42383,-2.38477 -0.45564,-0.89417 -0.78409,-2.32989 -1.15625,-4.90429 a 0.88741199,0.88741199 0 0 0 -0.0215,-0.0391 c -0.83231,-8.37151 -5.34746,-14.0825 -10.91407,-16.24023 -5.54818,-2.15059 -11.44334,-1.21908 -15.7832,1.5332 -4.82509,3.05995 -7.38757,8.08498 -8.37695,15.08203 -0.21187,1.49851 -0.88025,3.91556 -2.01172,5.46094 -1.22702,1.67588 -2.32857,2.67774 -5.93359,2.67774 -2.83275,0 -4.25081,-0.61538 -5.43555,-1.75586 -1.1485,-1.10562 -2.18185,-3.06743 -2.66602,-6.48633 -0.71723,-5.06457 -2.48943,-9.46929 -5.57422,-12.69727 -3.10586,-3.25001 -7.4722,-5 -12.13867,-5 -1.975,0 -5.76455,0.33377 -9.5039,2.88086 -3.77989,2.5747 -7.01974,7.39545 -7.92383,14.5957 -0.30584,2.43568 -0.65115,3.87483 -1.1836,4.86915 -0.535,0.9991 -1.28692,1.69661 -2.75586,2.70312 -0.1153,0.079 -0.67072,0.34851 -1.32812,0.55664 -0.6574,0.20813 -1.45333,0.3909 -2.19922,0.46289 -0.74667,0.0721 -1.53494,0.0447 -2.17578,-0.0312 -0.63068,-0.0748 -1.24876,-0.27247 -1.20898,-0.2539 -2.40118,-1.12059 -3.37369,-1.90009 -4.45118,-4.33594 -0.23918,-0.54073 -0.20871,-0.37375 -0.32422,-1.26367 -0.10613,-0.8178 -0.20169,-2.40811 -0.24609,-5.09766 -0.0889,-5.38363 -0.0234,-15.20721 -0.0234,-33.71875 0,-10.43846 -0.0469,-20.3398 -0.0703,-28.04883 -0.0154,-5.07204 0.0197,-7.02833 0.043,-9.66992 0.33576,5.38755 1.82613,10.53704 4.23633,14.89648 2.48332,4.49169 6.01249,8.26814 10.55469,10.34766 4.57582,2.09492 10.11842,2.19159 15.3496,-0.24414 5.67813,-2.64387 9.90229,-8.05142 12.43555,-14.67383 0.56365,-1.47349 0.96207,-3.12232 1.29297,-4.81054 0.72627,3.45033 1.8843,6.73273 3.49414,9.64453 2.48324,4.49155 6.01221,8.26994 10.55469,10.34961 4.57583,2.09491 10.11843,2.19156 15.34961,-0.24415 5.67812,-2.64388 9.9023,-8.05139 12.43554,-14.67382 2.56687,-6.71028 2.70441,-16.22919 0.56641,-23.26172 -1.64718,-5.41815 -4.6849,-10.076998 -8.5293,-13.408205 -3.36645,-2.91709 -7.49605,-4.914239 -11.9082,-4.976563 -0.63068,-0.0089 -1.26611,0.02246 -1.9043,0.0957 -7.76588,0.891354 -13.89067,6.0331 -17.58593,13.929687 -1.15094,2.459507 -1.94253,4.993817 -2.48438,7.541017 -0.2195,-1.16706 -0.38938,-2.37478 -0.71484,-3.44531 -1.64718,-5.418158 -4.68491,-10.077 -8.5293,-13.408207 -3.36646,-2.917088 -7.49606,-4.914238 -11.9082,-4.976562 -0.63068,-0.0089 -1.26611,0.02246 -1.9043,0.0957 -7.76566,0.89133 -13.89064,6.03108 -17.58594,13.927734 -1.87249,4.001432 -2.88608,8.191862 -3.19336,12.335942 1.3e-4,-0.002 -1.2e-4,-0.0288 0,-0.0312 a 0.88741199,0.88741199 0 0 0 0,-0.008 c 1.26305,-18.591255 9.00244,-32.096428 20.00782,-41.304684 11.00666,-9.20933 25.43819,-14.008176 39.85937,-14.22461 z m -38.00586,38.734375 c 1.71331,-0.196644 4.14423,0.573276 6.50977,2.623047 2.3618,2.046534 4.53603,5.281102 5.66601,8.998052 0.58717,1.93134 0.87973,5.43865 0.79883,8.8125 -0.0809,3.37304 -0.55314,6.73871 -1.14844,8.29492 -1.86561,4.87707 -4.92096,8.21978 -7.57812,9.45703 -3.02288,1.40749 -5.11256,1.26382 -7.38672,0.22265 -2.21034,-1.01194 -4.48082,-3.20786 -6.19727,-6.3125 -3.42857,-6.20141 -4.38868,-15.75707 -0.73242,-23.57031 1.41278,-3.019035 2.83363,-5.013754 4.40625,-6.306639 1.57463,-1.294528 3.32273,-1.95024 5.66211,-2.21875 z m 43.12891,0.265625 c 1.71341,-0.196657 4.14203,0.573064 6.50781,2.623047 2.3618,2.046533 4.53601,5.281087 5.66602,8.998047 0.58719,1.93148 0.87973,5.4372 0.79882,8.81055 -0.0809,3.37255 -0.55314,6.73873 -1.14843,8.29492 -1.86561,4.87707 -4.92096,8.21979 -7.57813,9.45703 -3.02288,1.4075 -5.11255,1.26381 -7.38672,0.22266 -2.21032,-1.01195 -4.4808,-3.20786 -6.19726,-6.3125 -3.42856,-6.20141 -4.38868,-15.75708 -0.73242,-23.57032 1.41262,-3.018686 2.8329,-5.012008 4.40625,-6.304684 1.57533,-1.294315 3.32474,-1.950248 5.66406,-2.21875 z" /></g></svg>
