<?xml version="1.0" encoding="UTF-8" standalone="no"?>
<!-- Created with Inkscape (http://www.inkscape.org/) -->

<svg
   width="250mm"
   height="250mm"
   viewBox="0 0 250 250"
   version="1.1"
   id="svg1"
   xml:space="preserve"
   inkscape:version="1.4.2 (f4327f4, 2025-05-13)"
   sodipodi:docname="PackmanGhost.svg"
   inkscape:export-filename="PackmanGhost_3.svg"
   inkscape:export-xdpi="96"
   inkscape:export-ydpi="96"
   xmlns:inkscape="http://www.inkscape.org/namespaces/inkscape"
   xmlns:sodipodi="http://sodipodi.sourceforge.net/DTD/sodipodi-0.dtd"
   xmlns="http://www.w3.org/2000/svg"
   xmlns:svg="http://www.w3.org/2000/svg"><sodipodi:namedview
     id="namedview1"
     pagecolor="#ffffff"
     bordercolor="#000000"
     borderopacity="0.25"
     inkscape:showpageshadow="2"
     inkscape:pageopacity="0.0"
     inkscape:pagecheckerboard="0"
     inkscape:deskcolor="#d1d1d1"
     inkscape:document-units="mm"
     showgrid="true"
     inkscape:zoom="0.36756309"
     inkscape:cx="265.26058"
     inkscape:cy="718.24404"
     inkscape:window-width="1971"
     inkscape:window-height="1250"
     inkscape:window-x="430"
     inkscape:window-y="114"
     inkscape:window-maximized="0"
     inkscape:current-layer="layer1"><inkscape:grid
       id="grid2"
       units="mm"
       originx="0"
       originy="0"
       spacingx="0.99999999"
       spacingy="0.99999999"
       empcolor="#0099e5"
       empopacity="0.30196078"
       color="#0099e5"
       opacity="0.14901961"
       empspacing="10"
       enabled="true"
       visible="true" /><inkscape:page
       x="0"
       y="0"
       width="250"
       height="250"
       id="page2"
       margin="0"
       bleed="0" /></sodipodi:namedview><defs
     id="defs1" /><g
     inkscape:label="Ebene 1"
     inkscape:groupmode="layer"
     id="layer1"><path
       id="path3-4-9-4-8"
       style="baseline-shift:baseline;display:inline;overflow:visible;vector-effect:none;fill:#dc00d3;fill-opacity:0.795294;enable-background:accumulate;stop-color:#000000"
       sodipodi:type="inkscape:offset"
       inkscape:radius="0.23374976"
       inkscape:original="M 147.76172 40.005859 C 132.22815 40.186628 116.5711 44.880648 104.27148 54.289062 C 91.971853 63.697479 83.119134 77.926882 81.494141 96.541016 L 81.488281 96.589844 L 81.486328 96.638672 C 81.278935 100.42322 80.826226 120.01839 80.441406 140.87305 C 80.103822 159.16833 79.939811 168.65197 80.021484 174.05469 C 80.062324 176.75605 80.156578 178.44822 80.365234 179.80664 C 80.573891 181.16506 80.962915 182.2204 81.316406 183.01953 C 83.042788 186.92232 85.81645 189.90882 89.46875 191.61328 C 91.769362 192.68695 94.326052 192.83411 96.876953 192.58789 C 99.427854 192.34167 101.9414 191.686 104.03711 190.25 C 108.28387 187.34009 110.54276 183.16441 111.28516 177.25195 C 111.98731 171.66 112.6736 170.426 116.20508 168.08398 C 118.29332 166.69911 118.75986 166.55469 121.02539 166.55469 C 123.89255 166.55469 125.90929 167.43012 127.56445 169.16211 C 129.21961 170.89409 130.5126 173.66743 131.06836 177.5918 C 131.7116 182.13395 133.27593 185.92182 136.03125 188.57422 C 138.78657 191.22662 142.59789 192.49414 146.83984 192.49414 C 149.42607 192.49414 151.67926 192.22048 153.75 191.14453 C 155.82074 190.06858 157.41841 188.40373 159.24219 186.14844 C 161.0091 183.96353 161.94423 181.3084 162.45508 177.69531 C 163.30668 171.67259 164.22271 170.02854 167.31055 168.07031 C 169.92741 166.41074 174.00665 166.20138 176.01172 167.19141 C 178.62872 168.84738 179.97134 170.07189 180.73828 171.33398 C 181.52265 172.62477 181.93553 174.26916 182.19336 177.21289 L 182.20117 177.29688 L 182.21289 177.38086 C 183.07236 183.32625 185.10636 187.19895 189.04688 189.92969 C 197.17782 195.56447 208.17036 192.17421 212.24414 182.96484 C 212.59786 182.16521 212.97523 181.08987 213.17383 179.70508 C 213.37242 178.32029 213.46465 176.57009 213.50195 173.76758 C 213.57655 168.16254 213.40815 158.32144 213.0625 139.5 C 212.66487 117.84489 211.8228 97.366158 211.67188 93.888672 C 210.89243 75.930832 202.62475 62.139046 190.69727 53.146484 C 178.76978 44.153923 163.29529 39.82509 147.76172 40.005859 z M 147.83203 46.005859 C 162.19766 45.838682 176.42059 49.89651 187.08594 57.9375 C 197.75129 65.97849 204.97104 77.865168 205.67773 94.148438 C 205.82623 97.569812 206.66645 118.04208 207.0625 139.61133 C 207.40805 158.42978 207.57368 168.29931 207.50195 173.6875 C 207.46605 176.3816 207.36434 177.94732 207.23438 178.85352 C 207.10442 179.75971 207.0187 179.9493 206.75781 180.53906 C 203.98799 186.80064 197.75011 188.66077 192.46484 184.99805 C 189.56544 182.98879 188.91212 181.79073 188.15039 176.52148 L 188.16992 176.68945 C 187.88086 173.38915 187.34689 170.657 185.86523 168.21875 C 184.38358 165.7805 182.14363 163.9389 179.05664 162.00586 L 178.95117 161.93945 L 178.8418 161.88281 C 174.30556 159.53695 168.57656 160.16221 164.0957 163.00391 C 159.72294 165.777 157.46547 170.12409 156.51367 176.85547 C 156.07258 179.97514 155.61777 181.08942 154.57812 182.375 C 152.94428 184.39543 151.89184 185.3488 150.98438 185.82031 C 150.07692 186.29183 149.02489 186.49414 146.83984 186.49414 C 143.71356 186.49414 141.70575 185.70784 140.19336 184.25195 C 138.68097 182.79606 137.52761 180.4224 137.00781 176.75195 C 136.32687 171.94368 134.66744 167.90906 131.90234 165.01562 C 129.13725 162.1222 125.26681 160.55469 121.02539 160.55469 C 118.04174 160.55469 115.49826 161.35271 112.89062 163.08203 C 108.38582 166.06953 106.12778 170.16654 105.33203 176.50391 C 104.69854 181.54905 103.80059 183.13957 100.64648 185.30078 C 99.861166 185.8389 98.078953 186.4436 96.300781 186.61523 C 94.522609 186.78687 92.716597 186.50747 92.005859 186.17578 C 89.62318 185.06383 88.070093 183.45689 86.802734 180.5918 C 86.520386 179.9535 86.428792 179.75335 86.296875 178.89453 C 86.164958 178.03571 86.058612 176.55008 86.019531 173.96484 C 85.941371 168.79437 86.103871 159.27511 86.441406 140.98242 C 86.699913 126.97308 86.914505 119.78117 87.136719 111.38672 C 87.310425 111.90412 87.389882 112.47149 87.585938 112.97461 C 90.761077 121.12271 97.180761 127.71268 105.58398 127.7832 L 105.58594 127.7832 C 108.05008 127.8026 110.49687 126.96488 112.8418 125.87305 C 117.98452 123.47848 121.97118 118.46975 124.38477 112.16016 C 126.74116 106.00007 126.90178 96.575899 124.91211 90.03125 C 123.35855 84.921043 120.4849 80.532853 116.9082 77.433594 C 113.3315 74.334334 108.93919 72.452293 104.43945 72.96875 C 99.116704 73.579686 94.68829 76.303226 91.318359 80.755859 C 94.936996 71.761187 100.72634 64.554325 107.91602 59.054688 C 119.02154 50.559686 133.4664 46.173037 147.83203 46.005859 z M 146.50977 73.234375 C 139.36829 74.054061 133.82231 78.657117 130.30664 86.169922 C 126.18901 94.969093 126.47916 105.09018 129.6543 113.23828 C 132.82944 121.38638 139.24911 127.97831 147.65234 128.04883 L 147.6543 128.04883 C 150.11844 128.06823 152.56523 127.23051 154.91016 126.13867 C 160.05287 123.7441 164.03955 118.73537 166.45312 112.42578 C 168.80953 106.2657 168.97014 96.841531 166.98047 90.296875 C 165.42691 85.186672 162.55326 80.798477 158.97656 77.699219 C 155.39986 74.599961 151.0095 72.717918 146.50977 73.234375 z M 105.125 78.929688 C 107.49078 78.658156 110.33717 79.679984 112.97852 81.96875 C 115.61986 84.257516 117.94478 87.741021 119.17188 91.777344 C 120.56194 96.349715 120.28647 106.08263 118.78125 110.01758 C 116.78884 115.22613 113.55218 118.92331 110.30859 120.43359 C 108.75464 121.15714 105.8358 121.78429 105.63477 121.7832 C 100.39136 121.7392 95.773871 117.45718 93.177734 110.79492 C 90.581598 104.13267 90.367765 95.507981 93.671875 88.447266 C 96.635764 82.113581 99.95038 79.523622 105.125 78.929688 z M 147.19336 79.195312 C 149.55914 78.923781 152.40553 79.94561 155.04688 82.234375 C 157.68822 84.52314 160.01315 88.004698 161.24023 92.041016 C 162.6303 96.613399 162.35483 106.34631 160.84961 110.28125 C 158.8572 115.4898 155.62249 119.18893 152.37891 120.69922 C 150.82495 121.42276 147.90417 122.04991 147.70312 122.04883 C 142.45972 122.00483 137.84223 117.7228 135.24609 111.06055 C 132.64996 104.39829 132.43612 95.773612 135.74023 88.712891 C 138.70412 82.379216 142.01874 79.789246 147.19336 79.195312 z "
       d="M 147.75977,39.771484 C 132.18094,39.95278 116.47476,44.659736 104.12891,54.103516 91.781934,63.548148 82.892211,77.844358 81.261719,96.521484 l -0.0059,0.04102 a 0.23377314,0.23377314 0 0 0 -0.002,0.01758 l -0.002,0.04883 c -0.208822,3.813444 -0.660137,23.387484 -1.044922,44.240234 -0.337585,18.29537 -0.501729,27.77787 -0.419922,33.18945 0.0409,2.70532 0.136182,4.40644 0.347657,5.78321 0.212518,1.38355 0.610126,2.46075 0.96875,3.27148 1.746005,3.94715 4.559602,6.98141 8.265625,8.71094 2.353334,1.09827 4.954662,1.2446 7.529296,0.99609 2.575786,-0.24862 5.131253,-0.91044 7.271483,-2.37695 4.30089,-2.947 6.59965,-7.20499 7.34766,-13.16211 0.35017,-2.78874 0.6975,-4.46727 1.37305,-5.7207 0.67554,-1.25344 1.68756,-2.11684 3.44335,-3.28125 2.08112,-1.38015 2.43581,-1.49024 4.69141,-1.49024 2.81958,0 4.75232,0.84329 6.36914,2.53516 1.61106,1.68583 2.89251,4.41111 3.44336,8.30078 0.64809,4.57638 2.22767,8.41833 5.03125,11.11719 2.80611,2.70129 6.68219,3.98633 10.9707,3.98633 2.60272,0 4.89967,-0.2765 7.01758,-1.37696 2.11463,-1.09875 3.73603,-2.79318 5.56641,-5.05664 1.79977,-2.22555 2.74951,-4.92988 3.26367,-8.5664 0.42459,-3.00278 0.86458,-4.89715 1.56445,-6.26368 0.69988,-1.36653 1.65583,-2.22839 3.1836,-3.19726 1.26579,-0.80275 2.90839,-1.26312 4.47461,-1.39649 1.5614,-0.13295 3.04755,0.0642 3.98828,0.52539 2.59473,1.64315 3.90296,2.84469 4.64062,4.0586 0.75752,1.24661 1.16528,2.84768 1.42188,5.77734 a 0.23377314,0.23377314 0 0 0 0,0.002 l 0.008,0.084 a 0.23377314,0.23377314 0 0 0 0,0.0117 l 0.0117,0.084 a 0.23377314,0.23377314 0 0 0 0.002,0 c 0.86489,5.98285 2.93703,9.93881 6.93164,12.70703 8.24809,5.71597 19.41484,2.26973 23.54297,-7.0625 0.3602,-0.81428 0.74517,-1.91116 0.94727,-3.32031 0.20107,-1.40212 0.29468,-3.16045 0.33203,-5.9668 0.0747,-5.61336 -0.0938,-15.45384 -0.43946,-34.27539 -0.39769,-21.65846 -1.23961,-42.137611 -1.39062,-45.617184 -0.78233,-18.024202 -9.0906,-31.889455 -21.06836,-40.919922 -11.9763,-9.029359 -27.49933,-13.368795 -43.07812,-13.1875 z m 0.0742,6.46875 c 14.31983,-0.166644 28.49556,3.881157 39.11133,11.884766 10.61742,8.004854 17.79414,19.813909 18.49805,36.033203 0.1484,3.419178 0.98878,23.891137 1.38476,45.457027 0.34555,18.81833 0.51107,28.68876 0.43946,34.06836 -0.0358,2.68943 -0.13665,4.25101 -0.26367,5.13672 -0.12856,0.89643 -0.19793,1.03487 -0.45899,1.625 -1.36211,3.07925 -3.56313,5.0542 -6.05859,5.82227 -2.49546,0.76807 -5.29665,0.33535 -7.88867,-1.46094 -1.43858,-0.99692 -2.28404,-1.76553 -2.88282,-2.93164 -0.59804,-1.16469 -0.95268,-2.75689 -1.33203,-5.37891 -4.6e-4,-0.003 -0.001,-0.005 -0.002,-0.008 -0.29427,-3.23099 -0.83614,-5.95467 -2.31641,-8.39062 -1.50882,-2.48296 -3.78233,-4.34758 -6.88281,-6.28907 l -0.10547,-0.0664 a 0.23377314,0.23377314 0 0 0 -0.0176,-0.01 l -0.10937,-0.0566 c -4.62262,-2.39053 -10.43465,-1.7508 -14.97852,1.13086 -4.43533,2.81277 -6.73243,7.24733 -7.68945,14.01563 -0.43905,3.10525 -0.86568,4.1461 -1.88477,5.40625 -1.62558,2.01022 -2.66085,2.9386 -3.51953,3.38476 -0.86614,0.45005 -1.86648,0.64649 -4.03711,0.64649 -3.08708,0 -5.01615,-0.76242 -6.48437,-2.17579 -1.46371,-1.40903 -2.60216,-3.72846 -3.11719,-7.36523 -0.68579,-4.8425 -2.3582,-8.9271 -5.16601,-11.86523 -2.81123,-2.94171 -6.74787,-4.53321 -11.04688,-4.53321 -3.02533,0 -5.62529,0.8167 -8.26367,2.56641 -4.55685,3.02202 -6.8611,7.20864 -7.66211,13.58789 -0.31542,2.51204 -0.69559,4.14175 -1.37109,5.39844 -0.67551,1.25669 -1.65132,2.16303 -3.21485,3.23437 -0.716638,0.49106 -2.493596,1.10737 -4.234373,1.27539 -0.869479,0.0839 -1.75117,0.0567 -2.498047,-0.0312 -0.746877,-0.088 -1.366375,-0.24232 -1.675781,-0.38672 -2.339748,-1.09191 -3.837984,-2.63674 -5.089844,-5.46679 -0.282601,-0.63887 -0.358002,-0.79052 -0.488281,-1.63868 -0.128638,-0.83747 -0.234433,-2.31825 -0.273438,-4.89843 -0.07802,-5.16124 0.08434,-14.68203 0.421875,-32.97461 0.244945,-13.27435 0.44825,-20.18673 0.658203,-28.04297 0.01388,0.0392 0.01804,0.0763 0.0332,0.11523 3.19836,8.20769 9.69043,14.88745 18.214843,14.95899 a 0.23377314,0.23377314 0 0 0 0.002,0 c 2.51834,0.0198 4.99757,-0.83481 7.35743,-1.9336 5.21388,-2.4277 9.23258,-7.48858 11.66211,-13.83984 2.38354,-6.23108 2.54205,-15.673503 0.5332,-22.281249 -1.56606,-5.151326 -4.46378,-9.574888 -8.07617,-12.705079 -3.61289,-3.130612 -8.06767,-5.047241 -12.64844,-4.521484 -4.83604,0.555073 -8.942827,2.854081 -12.195313,6.568359 3.627124,-8.231889 9.102783,-14.909549 15.841793,-20.064453 11.05868,-8.459167 25.45552,-12.833354 39.77539,-13 z m 0.35938,26.677735 c -0.56721,-0.0082 -1.13834,0.01826 -1.71094,0.08398 -7.22635,0.829427 -12.84658,5.503278 -16.38672,13.068359 -4.14858,8.865313 -3.85732,19.047328 -0.66015,27.251958 3.19835,8.20767 9.69038,14.8894 18.21484,14.96093 a 0.23377314,0.23377314 0 0 0 0.002,0 c 2.51833,0.0198 4.99757,-0.8348 7.35743,-1.93359 5.21387,-2.42771 9.2326,-7.48858 11.6621,-13.83984 2.38357,-6.23108 2.54206,-15.673501 0.53321,-22.281254 -1.56606,-5.151322 -4.46378,-9.574888 -8.07617,-12.705079 -3.16125,-2.73926 -6.96509,-4.548228 -10.93555,-4.605468 z m -43.04102,6.24414 c 2.27868,-0.261535 5.06927,0.725534 7.67383,2.982422 2.60393,2.256352 4.90701,5.707653 6.1211,9.701172 0.68035,2.237914 0.96373,5.804712 0.88086,9.285157 -0.0829,3.48044 -0.5343,6.89088 -1.26563,8.80273 -1.97542,5.16413 -5.18832,8.81529 -8.35352,10.28907 -0.74963,0.34904 -1.86057,0.68635 -2.80273,0.93164 -0.47108,0.12264 -0.90208,0.22185 -1.22461,0.29101 -0.16126,0.0346 -0.29614,0.0623 -0.39453,0.0801 -0.0984,0.0178 -0.18756,0.0232 -0.15039,0.0234 -5.11732,-0.0429 -9.665841,-4.23143 -12.240236,-10.83789 -2.572932,-6.60271 -2.785169,-15.173042 0.486328,-22.164065 1.472951,-3.147623 3.024872,-5.346852 4.833985,-6.830078 1.809113,-1.483226 3.880863,-2.261465 6.435543,-2.554688 z m 42.06836,0.265625 c 2.27868,-0.261534 5.06927,0.725535 7.67383,2.982422 2.60398,2.256394 4.90703,5.705726 6.12109,9.699219 0.68036,2.237919 0.96374,5.804713 0.88086,9.285155 -0.0829,3.48044 -0.53429,6.89089 -1.26562,8.80274 -1.97544,5.16419 -5.18648,8.81727 -8.35156,10.29101 -0.74961,0.34903 -1.86205,0.68635 -2.80469,0.93164 -0.47132,0.12265 -0.89994,0.22185 -1.22266,0.29102 -0.16135,0.0346 -0.29608,0.0623 -0.39453,0.0801 -0.0984,0.0178 -0.18949,0.0232 -0.15234,0.0234 -5.11731,-0.0429 -9.66584,-4.23143 -12.24024,-10.83789 -2.57292,-6.60271 -2.78517,-15.173031 0.48633,-22.16406 1.47295,-3.147618 3.02487,-5.346851 4.83399,-6.830078 1.80911,-1.483228 3.88086,-2.261465 6.43554,-2.554688 z" /></g></svg>
